<?xml version="1.0" encoding="UTF-8" standalone="no"?>
<!-- Created with Inkscape (http://www.inkscape.org/) -->

<svg
   width="400"
   height="400"
   viewBox="0 0 400 400"
   version="1.1"
   id="svg224850"
   xml:space="preserve"
   inkscape:version="1.2.2 (b0a8486, 2022-12-01)"
   sodipodi:docname="klingonRankInsignia.svg"
   xmlns:inkscape="http://www.inkscape.org/namespaces/inkscape"
   xmlns:sodipodi="http://sodipodi.sourceforge.net/DTD/sodipodi-0.dtd"
   xmlns:xlink="http://www.w3.org/1999/xlink"
   xmlns="http://www.w3.org/2000/svg"
   xmlns:svg="http://www.w3.org/2000/svg"><sodipodi:namedview
     id="namedview224852"
     pagecolor="#ffffff"
     bordercolor="#666666"
     borderopacity="1.0"
     inkscape:showpageshadow="2"
     inkscape:pageopacity="0.0"
     inkscape:pagecheckerboard="0"
     inkscape:deskcolor="#d1d1d1"
     inkscape:document-units="px"
     showgrid="false"
     inkscape:zoom="1.825"
     inkscape:cx="106.0274"
     inkscape:cy="336.9863"
     inkscape:window-width="1936"
     inkscape:window-height="950"
     inkscape:window-x="2452"
     inkscape:window-y="354"
     inkscape:window-maximized="0"
     inkscape:current-layer="g249885"
     showguides="true" /><defs
     id="defs224847" /><g
     inkscape:groupmode="layer"
     id="layer10"
     inkscape:label="Border Rank Captain"
     style="display:inline"><path
       style="opacity:1;fill:#c7b791;fill-opacity:1;fill-rule:evenodd;stroke:#000000;stroke-width:1.75122;stroke-linecap:round;stroke-linejoin:miter;stroke-miterlimit:10;stroke-dasharray:none;stroke-opacity:1"
       d="m 79.424528,305.81758 -2.482449,14.76869 -6.932502,-7.00811 0.761477,9.07293 -11.285341,-5.8254 6.568865,10.89471 -9.287139,-0.22322 7.503158,5.99099 -14.783094,3.80019 14.768692,2.48246 -7.008108,6.9325 9.072918,-0.76148 -5.82539,11.28534 10.894701,-6.56886 -0.223221,9.28714 5.991005,-7.50317 3.800185,14.78309 2.48245,-14.76868 6.932501,7.00811 -0.761478,-9.07293 11.285342,5.82539 -6.568864,-10.8947 9.287144,0.22322 -7.503164,-5.99099 14.783094,-3.80019 -14.768692,-2.48246 7.008112,-6.9325 -9.072921,0.76148 5.825395,-11.28534 -10.894708,6.56886 0.223223,-9.28714 -5.991006,7.50317 z"
       id="path235636" /><path
       style="opacity:1;fill:#c7b791;fill-opacity:1;fill-rule:evenodd;stroke:#000000;stroke-width:1.9;stroke-linecap:round;stroke-linejoin:miter;stroke-miterlimit:10;stroke-dasharray:none;stroke-opacity:1"
       d="m 80.191406,290.52148 a 46,46 0 0 0 -46,46 46,46 0 0 0 46,46 46,46 0 0 0 46.000004,-46 46,46 0 0 0 -46.000004,-46 z m 0,9.69727 a 36.301369,36.301369 0 0 1 36.300784,36.30273 36.301369,36.301369 0 0 1 -36.300784,36.30079 36.301369,36.301369 0 0 1 -36.300781,-36.30079 36.301369,36.301369 0 0 1 36.300781,-36.30273 z"
       id="path230388" /></g><g
     inkscape:groupmode="layer"
     id="g249885"
     inkscape:label="Rank Captain tos"
     style="display:inline"><path
       style="fill:#c7b791;fill-opacity:1;fill-rule:evenodd;stroke:#000000;stroke-width:0.320547;stroke-linecap:round;stroke-linejoin:miter;stroke-miterlimit:10;stroke-dasharray:none;stroke-opacity:1"
       d="m 161.69488,257.4767 -0.4544,2.7033 -1.26894,-1.28278 0.13938,1.66073 -2.06569,-1.06629 1.20238,1.99419 -1.69994,-0.0409 1.37339,1.09661 -2.70592,0.69559 2.70329,0.4544 -1.28278,1.26894 1.66072,-0.13939 -1.06629,2.0657 1.9942,-1.20238 -0.0409,1.69994 1.09661,-1.3734 0.69559,2.70593 0.45439,-2.70329 1.26895,1.28278 -0.13939,-1.66073 2.0657,1.06629 -1.20238,-1.99419 1.69994,0.0409 -1.3734,-1.09661 2.70593,-0.69559 -2.70329,-0.4544 1.28277,-1.26894 -1.66072,0.13938 1.06629,-2.06569 -1.99419,1.20238 0.0409,-1.69994 -1.09661,1.3734 z"
       id="path249881" /><path
       style="fill:#c7b791;fill-opacity:1;fill-rule:evenodd;stroke:#000000;stroke-width:0.34778;stroke-linecap:round;stroke-linejoin:miter;stroke-miterlimit:10;stroke-dasharray:none;stroke-opacity:1"
       d="m 161.83525,254.67687 a 8.4199453,8.4199453 0 0 0 -8.41995,8.41995 8.4199453,8.4199453 0 0 0 8.41995,8.41994 8.4199453,8.4199453 0 0 0 8.41994,-8.41994 8.4199453,8.4199453 0 0 0 -8.41994,-8.41995 z m 0,1.77501 a 6.6446859,6.6446859 0 0 1 6.64458,6.64494 6.6446859,6.6446859 0 0 1 -6.64458,6.64458 6.6446859,6.6446859 0 0 1 -6.64458,-6.64458 6.6446859,6.6446859 0 0 1 6.64458,-6.64494 z"
       id="path249883" /><path
       style="fill:#c7b791;fill-opacity:1;fill-rule:evenodd;stroke:#000000;stroke-width:0.28803;stroke-linecap:round;stroke-linejoin:miter;stroke-miterlimit:10;stroke-dasharray:none;stroke-opacity:1"
       d="m 301.14456,258.30417 -0.4083,2.42908 -1.14022,-1.15266 0.12525,1.49227 -1.85615,-0.95814 1.0804,1.79191 -1.52749,-0.0367 1.23408,0.98536 -2.43144,0.62503 2.42907,0.4083 -1.15266,1.14022 1.49227,-0.12525 -0.95813,1.85615 1.7919,-1.0804 -0.0368,1.52748 0.98537,-1.23407 0.62502,2.43144 0.4083,-2.42907 1.14022,1.15266 -0.12525,-1.49227 1.85616,0.95813 -1.08041,-1.7919 1.52749,0.0367 -1.23408,-0.98536 2.43144,-0.62503 -2.42907,-0.40831 1.15266,-1.14021 -1.49227,0.12524 0.95813,-1.85614 -1.7919,1.0804 0.0367,-1.52749 -0.98536,1.23408 z"
       id="path249891" /><path
       style="fill:#c7b791;fill-opacity:1;fill-rule:evenodd;stroke:#000000;stroke-width:0.312501;stroke-linecap:round;stroke-linejoin:miter;stroke-miterlimit:10;stroke-dasharray:none;stroke-opacity:1"
       d="m 301.27069,255.78836 a 7.5658098,7.5658098 0 0 0 -7.56581,7.56582 7.5658098,7.5658098 0 0 0 7.56581,7.5658 7.5658098,7.5658098 0 0 0 7.56581,-7.5658 7.5658098,7.5658098 0 0 0 -7.56581,-7.56582 z m 0,1.59495 a 5.970636,5.970636 0 0 1 5.97054,5.97087 5.970636,5.970636 0 0 1 -5.97054,5.97054 5.970636,5.970636 0 0 1 -5.97054,-5.97054 5.970636,5.970636 0 0 1 5.97054,-5.97087 z"
       id="path249893" /></g><g
     inkscape:groupmode="layer"
     id="g236393"
     inkscape:label="Border Rank Commander"
     style="display:inline"><path
       style="opacity:1;fill:#c7b791;fill-opacity:1;fill-rule:evenodd;stroke:#000000;stroke-width:1.9;stroke-linecap:round;stroke-linejoin:miter;stroke-miterlimit:10;stroke-dasharray:none;stroke-opacity:1"
       d="m 80.191406,290.52148 a 46,46 0 0 0 -46,46 46,46 0 0 0 46,46 46,46 0 0 0 46.000004,-46 46,46 0 0 0 -46.000004,-46 z m 0,9.69727 a 36.301369,36.301369 0 0 1 36.300784,36.30273 36.301369,36.301369 0 0 1 -36.300784,36.30079 36.301369,36.301369 0 0 1 -36.300781,-36.30079 36.301369,36.301369 0 0 1 36.300781,-36.30273 z"
       id="path236391" /><path
       style="fill:#c7b791;fill-opacity:1;stroke:#000000;stroke-width:1.7;stroke-linecap:butt;stroke-linejoin:miter;stroke-dasharray:none;stroke-opacity:1"
       d="m 71.780822,321.64384 c 0,0 12.111581,-9.57549 17.534246,-6.0274 5.422665,3.54809 3.813178,13.32055 1.643836,20.27397 -2.169342,6.95342 -6.770627,16.80776 -14.79452,18.08219 -8.023893,1.27443 -14.826789,-5.00563 -19.82004,-11.56762 -4.993251,-6.56199 -7.886448,-23.51464 -7.886448,-23.51464 -1.746912,2.73905 -2.740398,5.68359 -3.596899,9.45004 0,0 5.256755,19.6089 9.673319,26.53438 4.416564,6.92548 6.930212,11.40329 13.604617,14.50679 6.674405,3.1035 26.107642,-0.0665 26.107642,-0.0665 l 17.501005,-51.01968 c 0,0 -3.74995,-8.79204 -17.240799,-14.88853 -13.490853,-6.09649 -24.984216,-1.55566 -24.984216,-1.55566 z"
       id="path236395"
       sodipodi:nodetypes="czzzzcczzcczcc" /></g><g
     inkscape:groupmode="layer"
     id="g242415"
     inkscape:label="Border Rank LtCommander"
     style="display:inline"><path
       style="opacity:1;fill:#c7b791;fill-opacity:1;fill-rule:evenodd;stroke:#000000;stroke-width:1.9;stroke-linecap:round;stroke-linejoin:miter;stroke-miterlimit:10;stroke-dasharray:none;stroke-opacity:1"
       d="m 80.191406,290.52148 a 46,46 0 0 0 -46,46 46,46 0 0 0 46,46 46,46 0 0 0 46.000004,-46 46,46 0 0 0 -46.000004,-46 z m 0,9.69727 a 36.301369,36.301369 0 0 1 36.300784,36.30273 36.301369,36.301369 0 0 1 -36.300784,36.30079 36.301369,36.301369 0 0 1 -36.300781,-36.30079 36.301369,36.301369 0 0 1 36.300781,-36.30273 z"
       id="path242411" /><path
       style="fill:#c7b791;fill-opacity:1;stroke:#000000;stroke-width:1.7;stroke-linecap:butt;stroke-linejoin:miter;stroke-miterlimit:10;stroke-dasharray:none;stroke-opacity:1"
       d="m 44.899694,345.15705 27.155101,-22.96527 c 0.273973,11.59817 -1.09589,23.74429 -4.109589,35.61644 l 57.808214,-29.0411 c -1.36986,-6.57534 -3.28767,-11.50685 -6.57534,-17.26027 l -34.246573,20 5.462833,-25.10862 c 1.724555,-1.08576 4.408252,-2.37537 5.415826,-2.62766 -4.658967,-2.3833 -10.145841,-3.87696 -18.970586,-3.65708 -8.824745,0.21988 -17.508319,6.69011 -20.159064,9.00928 5.921714,-1.21638 10.260123,-2.77574 15.100306,-1.99948 l -27.138481,21.54697 c -1.607909,5.29403 -1.191411,10.96721 0.257353,16.48679 z"
       id="path242417"
       sodipodi:nodetypes="cccccccczcccc" /></g><g
     inkscape:groupmode="layer"
     id="g243149"
     inkscape:label="Border Rank Lieutenant"
     style="display:inline"><path
       style="opacity:1;fill:#c7b791;fill-opacity:1;fill-rule:evenodd;stroke:#000000;stroke-width:1.9;stroke-linecap:round;stroke-linejoin:miter;stroke-miterlimit:10;stroke-dasharray:none;stroke-opacity:1"
       d="m 80.191406,290.52148 a 46,46 0 0 0 -46,46 46,46 0 0 0 46,46 46,46 0 0 0 46.000004,-46 46,46 0 0 0 -46.000004,-46 z m 0,9.69727 a 36.301369,36.301369 0 0 1 36.300784,36.30273 36.301369,36.301369 0 0 1 -36.300784,36.30079 36.301369,36.301369 0 0 1 -36.300781,-36.30079 36.301369,36.301369 0 0 1 36.300781,-36.30273 z"
       id="path243145" /><path
       style="fill:#c7b791;fill-opacity:1;stroke:#000000;stroke-width:1.7;stroke-linecap:butt;stroke-linejoin:miter;stroke-dasharray:none;stroke-opacity:1"
       d="m 45.616438,325.20548 33.287672,16.02739 20.958904,26.0274 c 3.150686,-2.19178 5.890416,-4.79452 8.493156,-7.9452 L 87.808219,334.52055 115.75343,307.26028 c -4.15526,-4.52055 -7.48859,-7.39726 -12.19179,-10.41096 L 76.575343,328.49315 50.410959,315.61644 c -2.328767,3.379 -3.424658,5.6621 -4.794521,9.58904 z"
       id="path243151"
       sodipodi:nodetypes="cccccccccc" /></g><g
     inkscape:groupmode="layer"
     id="g243900"
     inkscape:label="Border Rank LieutenantJG"
     style="display:inline"><path
       style="opacity:1;fill:#c7b791;fill-opacity:1;fill-rule:evenodd;stroke:#000000;stroke-width:1.9;stroke-linecap:round;stroke-linejoin:miter;stroke-miterlimit:10;stroke-dasharray:none;stroke-opacity:1"
       d="m 80.191406,290.52148 a 46,46 0 0 0 -46,46 46,46 0 0 0 46,46 46,46 0 0 0 46.000004,-46 46,46 0 0 0 -46.000004,-46 z m 0,9.69727 a 36.301369,36.301369 0 0 1 36.300784,36.30273 36.301369,36.301369 0 0 1 -36.300784,36.30079 36.301369,36.301369 0 0 1 -36.300781,-36.30079 36.301369,36.301369 0 0 1 36.300781,-36.30273 z"
       id="path243896" /><path
       style="fill:#c7b791;fill-opacity:1;stroke:#000000;stroke-width:1.7;stroke-linecap:butt;stroke-linejoin:miter;stroke-dasharray:none;stroke-opacity:1"
       d="m 34.650651,330.21723 80.417839,-23.91586 c 3.70837,3.98503 5.67318,8.35751 8.21918,13.69863 l -21.91781,6.57534 -18.630134,46.09102 c -4.524743,0.14118 -6.91848,-0.20196 -11.249496,-1.12628 L 81.643836,346.30137 46.575342,367.12329 C 43.60865,364.49151 41.610597,361.56913 40,358.35616 l 40.547945,-25.20548 -45.446213,11.86107 c -1.054424,-5.90014 -0.849617,-9.47556 -0.451081,-14.79452 z"
       id="path243902"
       sodipodi:nodetypes="cccccccccccc" /></g><g
     inkscape:groupmode="layer"
     id="g243928"
     inkscape:label="Border Rank Ensign"
     style="display:inline"><path
       style="opacity:1;fill:#c7b791;fill-opacity:1;fill-rule:evenodd;stroke:#000000;stroke-width:1.9;stroke-linecap:round;stroke-linejoin:miter;stroke-miterlimit:10;stroke-dasharray:none;stroke-opacity:1"
       d="m 80.191406,290.52148 a 46,46 0 0 0 -46,46 46,46 0 0 0 46,46 46,46 0 0 0 46.000004,-46 46,46 0 0 0 -46.000004,-46 z m 0,9.69727 a 36.301369,36.301369 0 0 1 36.300784,36.30273 36.301369,36.301369 0 0 1 -36.300784,36.30079 36.301369,36.301369 0 0 1 -36.300781,-36.30079 36.301369,36.301369 0 0 1 36.300781,-36.30273 z"
       id="path243924" /><path
       style="fill:#c7b791;fill-opacity:1;stroke:#000000;stroke-width:1.7;stroke-linecap:butt;stroke-linejoin:miter;stroke-dasharray:none;stroke-opacity:1"
       d="m 44.557414,343.867 64.123926,-43.39505 c 4.50465,3.24637 6.42033,5.16988 9.61589,10.01308 0,0 -2.35662,-0.0955 -10.93875,6.91176 -8.582124,7.00724 -33.257564,64.73147 -33.257564,64.73147 -6.909628,-0.5166 -11.300794,-2.29245 -16.660598,-5.9087 l 19.275925,-39.5205 -27.703088,18.21043 c -2.453886,-3.4871 -3.35795,-6.58675 -4.455741,-11.04249 z"
       id="path243930"
       sodipodi:nodetypes="ccczccccc" /></g><g
     inkscape:label="Image"
     inkscape:groupmode="layer"
     id="layer1"
     sodipodi:insensitive="true"><image
       width="400"
       height="400"
       preserveAspectRatio="none"
       xlink:href="../../../../../../../../Downloads/token-Human-Command-None(9).png"
       id="image249877"
       x="-0.2739726"
       y="-2.8421709e-14"
       style="opacity:0.549747" /></g></svg>
