<?xml version="1.0" encoding="UTF-8" standalone="no"?>
<!-- Generator: Adobe Illustrator 28.2.0, SVG Export Plug-In . SVG Version: 6.00 Build 0)  -->

<svg
   version="1.1"
   id="Binar_Headpiece_2"
   x="0px"
   y="0px"
   viewBox="0 0 400 400"
   enable-background="new 0 0 300 300"
   xml:space="preserve"
   sodipodi:docname="BynarHeadpiece1.svg"
   width="400"
   height="400"
   inkscape:version="1.3.2 (091e20e, 2023-11-25)"
   xmlns:inkscape="http://www.inkscape.org/namespaces/inkscape"
   xmlns:sodipodi="http://sodipodi.sourceforge.net/DTD/sodipodi-0.dtd"
   xmlns="http://www.w3.org/2000/svg"
   xmlns:svg="http://www.w3.org/2000/svg"><defs
   id="defs10">
	
	
	
	
	
		
	
	
	
	
	
	
</defs><sodipodi:namedview
   id="namedview10"
   pagecolor="#ffffff"
   bordercolor="#666666"
   borderopacity="1.0"
   inkscape:showpageshadow="2"
   inkscape:pageopacity="0.0"
   inkscape:pagecheckerboard="0"
   inkscape:deskcolor="#d1d1d1"
   inkscape:zoom="2.4025"
   inkscape:cx="200"
   inkscape:cy="199.79188"
   inkscape:window-width="1904"
   inkscape:window-height="1243"
   inkscape:window-x="2577"
   inkscape:window-y="90"
   inkscape:window-maximized="0"
   inkscape:current-layer="layer4" />

<g
   inkscape:groupmode="layer"
   id="layer4"
   inkscape:label="Headpiece"><path
     opacity="0.2"
     d="m 256.16933,106.1 -3.94667,8.10666 c -3.15467,6.47867 -6.41467,11.41067 -13.348,8.24267 -6.93333,-3.168 -5.07867,-8.74133 -1.924,-15.22 l 3.94667,-8.106666 c -1.37067,-3.254666 -1.37467,-7.1 0.33733,-10.614666 3.15467,-6.478667 10.9,-9.36 17.30133,-6.436 6.40134,2.924 9.03067,10.546666 5.876,17.025333 -1.712,3.513329 -4.77733,5.957329 -8.24266,7.002669 z"
     id="path1"
     style="stroke-width:1.33333;fill:#000000;fill-opacity:1" /><path
     fill="#a3a3a3"
     d="m 265.22133,98.431998 c 3.04133,-6.245334 0.45333,-13.618667 -5.78134,-16.466667 -6.23466,-2.848 -13.22133,0.149334 -16.26266,6.394667 -1.64934,3.388 -1.63067,7.101333 -0.28534,10.250666 l -3.80533,7.814666 c -3.04133,6.24533 -5.35467,11.37867 1.39867,14.464 6.75466,3.08533 9.904,-1.66533 12.94533,-7.91067 l 3.80533,-7.81466 c 3.36534,-0.996 6.336,-3.34534 7.98534,-6.732002 z"
     id="path2"
     style="stroke-width:1.33333" /><path
     id="path4"
     style="stroke-width:1.33333;fill:#000000;fill-opacity:1;opacity:0.2"
     d="m 249.18666,97.118664 c 0,0 -3.028,-0.177333 -6.27333,1.153334 0,0 -1.99067,-3.877334 -0.128,-9.396 0,0 0.10666,4.804 1.24266,5.978666 1.136,1.174667 5.15867,2.264 5.15867,2.264 z m 7.39867,7.419996 c 0,0 -1.04934,-4.004 -4.73067,-6.273329 0,0 4.4,0.198667 6.55067,3.530669 0,0 5.08,-1.792 7.096,-8.116002 0,0 0.196,3.272 -1.13334,5.406666 -1.32933,2.134666 -4.90266,5.397336 -7.78266,5.451996 z" /><path
     id="ellipse4"
     style="opacity:0.2;stroke-width:1.33333"
     transform="rotate(-41.789606)"
     d="m 134.43981,236.15248 a 5.929358,5.7293568 0 0 1 -5.92936,5.72936 5.929358,5.7293568 0 0 1 -5.92936,-5.72936 5.929358,5.7293568 0 0 1 5.92936,-5.72936 5.929358,5.7293568 0 0 1 5.92936,5.72936 z" /><path
     fill="#ffffff"
     d="m 250.50133,96.059998 c -3.072,-1.404 -4.33467,-5.062667 -2.82134,-8.173334 0.652,-1.338666 1.71334,-2.355999 2.956,-2.969333 -1.76533,0.456 -3.34266,1.664 -4.20533,3.434667 -1.51467,3.110666 -0.252,6.769333 2.82133,8.173333 1.74934,0.798667 3.70667,0.692 5.34934,-0.12 -1.336,0.344 -2.77734,0.258667 -4.1,-0.345333 z"
     id="path5"
     style="stroke-width:1.33333" /><path
     opacity="0.4"
     d="m 255.88399,84.835998 c 3.072,1.404 4.33467,5.062666 2.82134,8.173333 -0.652,1.338667 -1.71334,2.356 -2.956,2.969333 1.76533,-0.456 3.34266,-1.664 4.20533,-3.434666 1.51467,-3.110667 0.252,-6.769333 -2.82133,-8.173333 -1.74934,-0.798667 -3.70667,-0.692 -5.34934,0.12 1.33467,-0.345334 2.77734,-0.26 4.1,0.345333 z"
     id="path6"
     style="stroke-width:1.33333;fill:#000000;fill-opacity:1" /><path
     fill="#ffffff"
     d="m 251.83866,98.894664 c 0,0 3.052,2.471996 3.61867,4.883996 0,0 -4.48534,9.21067 -5.42134,11.13334 -0.936,1.92266 -2.50666,3.35866 -4.51466,3.90933 0,0 2.084,-1.3 4.77466,-6.82667 2.69067,-5.52666 3.31467,-6.808 3.70534,-7.60933 0.39066,-0.80133 -1.25067,-4.583999 -2.16267,-5.490666 z"
     id="path7"
     style="stroke-width:1.33333" /><path
     id="path8"
     style="stroke-width:1.33333;fill:#000000;fill-opacity:1"
     d="M 254.33984 80.419922 C 249.53293 80.539841 244.89437 83.337604 242.62695 87.994141 C 240.91495 91.508804 240.91839 95.354711 242.28906 98.609375 L 238.3418 106.7168 C 235.18713 113.19545 233.33426 118.76755 240.26758 121.93555 C 247.2009 125.10354 250.46057 120.17202 253.61523 113.69336 L 257.56055 105.58594 C 261.02587 104.54061 264.09269 102.09731 265.80469 98.583984 C 268.95935 92.105324 266.32907 84.482591 259.92773 81.558594 C 258.12736 80.73622 256.22081 80.372997 254.33984 80.419922 z M 254.63477 81.599609 C 256.10704 81.612359 257.5809 81.920928 258.97656 82.558594 C 264.56056 85.109257 266.76192 91.953709 263.89258 97.845703 C 262.33658 101.0417 259.60564 103.28863 256.54297 104.2793 L 252.95312 111.65234 C 251.82407 113.97079 250.68145 116.06462 249.3457 117.59375 L 249.45898 117.25391 C 249.45898 117.25391 249.83542 113.62486 247.10742 112.24219 C 244.62012 110.98151 239.67152 108.46532 238.29688 108.50586 C 238.59013 107.79031 238.93223 107.04914 239.28711 106.30078 C 240.9129 106.49104 245.50515 108.82623 247.87109 110.02539 C 248.66442 110.42806 249.17401 111.02539 249.52734 111.66406 L 250.99414 108.43945 C 250.6408 107.78211 250.12325 107.16334 249.30859 106.75 C 247.00617 105.58134 242.58954 103.33788 240.85742 103.04492 L 243.2207 98.193359 C 242.06337 95.274695 242.11783 91.803419 243.67383 88.607422 C 245.82582 84.188426 250.21796 81.561359 254.63477 81.599609 z M 237.77734 110.12695 C 239.18666 110.11711 244.09342 112.61099 246.56445 113.86523 C 248.47856 114.83679 248.86232 116.91063 248.92188 118.0625 C 246.94104 120.08107 244.51655 120.83981 241.09766 119.27734 C 236.68647 117.26138 236.41019 114.0224 237.69336 110.13281 C 237.7207 110.13018 237.74662 110.12717 237.77734 110.12695 z " /></g></svg>
