<?xml version="1.0" encoding="UTF-8" standalone="no"?>
<!-- Generator: Adobe Illustrator 28.2.0, SVG Export Plug-In . SVG Version: 6.00 Build 0)  -->

<svg
   version="1.1"
   id="Binar_Headpiece_1"
   x="0px"
   y="0px"
   viewBox="0 0 400 400"
   enable-background="new 0 0 300 300"
   xml:space="preserve"
   sodipodi:docname="BynarHeadpiece2.svg"
   width="400"
   height="400"
   inkscape:version="1.3.2 (091e20e, 2023-11-25)"
   xmlns:inkscape="http://www.inkscape.org/namespaces/inkscape"
   xmlns:sodipodi="http://sodipodi.sourceforge.net/DTD/sodipodi-0.dtd"
   xmlns="http://www.w3.org/2000/svg"
   xmlns:svg="http://www.w3.org/2000/svg"><defs
   id="defs7">
	
	
	
	
	
	
	
	
</defs><sodipodi:namedview
   id="namedview7"
   pagecolor="#ffffff"
   bordercolor="#666666"
   borderopacity="1.0"
   inkscape:showpageshadow="2"
   inkscape:pageopacity="0.0"
   inkscape:pagecheckerboard="0"
   inkscape:deskcolor="#d1d1d1"
   inkscape:zoom="10.988439"
   inkscape:cx="235.29274"
   inkscape:cy="89.048132"
   inkscape:window-width="1720"
   inkscape:window-height="1180"
   inkscape:window-x="2576"
   inkscape:window-y="85"
   inkscape:window-maximized="0"
   inkscape:current-layer="layer5" />

<g
   inkscape:groupmode="layer"
   id="layer5"
   inkscape:label="Headpiece"><path
     opacity="0.2"
     d="m 251.68399,83.182665 c 2.95067,1.252 7.48534,2.808 4.756,7.762666 -2.72933,4.956 -11.224,24.949329 -12.336,28.317329 -1.112,3.368 -6.52133,4.39467 -10.744,2.084 -3.25066,-1.77866 -2.98133,-6.46133 -1.152,-11.19333 1.82934,-4.732 9.62134,-22.867999 10.776,-24.755999 1.15334,-1.888 3.652,-4.357333 8.7,-2.214666 z"
     id="path1"
     style="display:inline;fill:#000000;fill-opacity:1;stroke-width:1.33333" /><path
     fill="#a3a3a3"
     d="m 242.76533,119.39333 c -1.624,0.10533 -1.65867,2.036 -8.20134,-0.944 -2.18133,-0.99467 -1.95866,-5.55467 -0.384,-9.67733 1.98934,-5.20934 9.83867,-23.452002 10.89067,-25.142669 0.916,-1.472 2.13467,-2.237333 3.72933,-2.341333 1.08134,-0.07067 2.33734,0.169333 3.73334,0.712 l 0.53866,0.206667 c 1.74267,0.668 4.12934,1.581333 4.588,2.88 0.21067,0.594666 0.0307,1.410666 -0.53333,2.422666 -2.972,5.34 -11.64267,25.913329 -12.76933,29.406669 -0.0427,0.0733 -1.18534,2.452 -1.592,2.47733 z"
     id="path2"
     style="display:inline;stroke-width:1.33333" /><path
     fill="#ffffff"
     d="m 250.50399,83.514665 c -0.49466,0.076 1.57734,0.625333 2.14667,1.074666 0.009,0.0067 0.0173,0.01733 0.0213,0.02933 0.092,0.222666 -0.0947,0.633333 -0.16266,0.841333 -0.196,0.593333 -0.436,1.170667 -0.676,1.744 -0.33867,0.808 -0.692,1.609333 -1.04934,2.408 -0.132,0.294666 -0.25333,0.833333 -0.56133,0.954666 -0.32,0.125334 -0.77067,-0.02 -1.08533,-0.08133 -0.66267,-0.128 -1.32667,-0.333333 -1.98134,-0.446667 0.176,0.156 0.16134,0.330667 0.34667,0.465334 0.50267,0.365333 1.27867,0.673333 1.74267,1.109333 0.46933,0.441333 0.312,0.826667 0.0547,1.342667 -0.11466,0.230666 -0.224,0.566666 -0.43733,0.681333 -0.26533,0.141333 -0.65333,0.056 -0.91867,-0.01867 -0.21066,-0.06 -0.43066,-0.113333 -0.65066,-0.165333 -0.49334,-0.114667 -1.05467,-0.341333 -1.56134,-0.28 0.0667,0.381333 1.09467,1.005333 1.652,1.372 0.30534,0.201333 0.69734,0.501333 0.66667,0.948 -0.0187,0.276 -0.184,0.592 -0.296,0.834667 -0.204,0.444 -0.26,0.498666 -0.46133,0.944 -0.976,2.161333 -1.724,3.969336 -2.256,5.420006 -1.96267,5.34933 -3.93334,10.456 -4.77067,12.332 -0.83733,1.876 1.004,3.94133 2.35867,0.696 0.70533,-1.69067 1.38666,-3.39334 2.07866,-5.092 1.05467,-2.58667 2.11467,-5.172 3.19467,-7.748 0.536,-1.27867 1.07733,-2.556 1.628,-3.828006 0.24933,-0.574667 0.5,-1.148 0.75333,-1.72 0.21334,-0.481334 0.35467,-1.205334 0.932,-1.134667 0.14267,0.01733 0.336,0.106667 0.42,-0.084 0.0973,-0.221333 -0.04,-0.413333 -0.11733,-0.589333 -0.28133,-0.646667 0.18133,-1.408 0.512,-1.937334 0.14533,-0.230666 0.228,-0.545333 0.52267,-0.473333 0.14933,0.036 0.34266,0.316 0.508,0.178667 0.188,-0.156 0.04,-0.473334 -0.0187,-0.653334 -0.1,-0.308 -0.14267,-0.424 0.0213,-0.708 0.408,-0.704 0.81467,-1.408 1.20134,-2.126666 0.66133,-1.232 1.34,-2.505334 1.788,-3.846667 0.0933,-0.28 0.26133,-0.696 0.17333,-0.994666 -0.14933,-0.504 -1.64533,-1.578667 -3.06133,-1.865334 -0.924,-0.185333 -1.56,0.250667 -2.65734,0.417334 z"
     id="path4"
     style="stroke-width:1.33333" /><path
     id="path3"
     style="stroke-width:1.33333;fill:#000000;fill-opacity:1"
     d="M 249.94141 80.935547 C 247.05528 80.814609 245.43436 82.556658 244.56836 83.972656 C 243.4137 85.860654 235.62035 103.99652 233.79102 108.72852 C 231.96169 113.46051 231.6927 118.14322 234.94336 119.92188 C 239.16603 122.23254 244.5755 121.20589 245.6875 117.83789 C 246.7995 114.46989 255.29411 94.477479 258.02344 89.521484 C 260.75277 84.566823 256.21825 83.009811 253.26758 81.757812 C 252.00558 81.222146 250.90345 80.975859 249.94141 80.935547 z M 249.39844 81.740234 C 250.29665 81.749458 251.30766 81.991151 252.41016 82.458984 L 252.89648 82.662109 C 254.46982 83.319442 256.62381 84.220283 257.00781 85.488281 C 257.18381 86.069614 256.99775 86.863657 256.45508 87.847656 C 255.59494 89.409213 254.20708 92.368739 252.68359 95.755859 C 252.37375 95.01755 251.81275 94.272306 250.79883 93.816406 C 248.46637 92.76764 243.85566 90.691687 242.47266 90.666016 C 242.76604 90.001874 243.03568 89.399682 243.30273 88.802734 C 244.80044 88.921945 249.24876 90.9236 251.52539 91.947266 C 252.28005 92.287265 252.76619 92.791412 253.10352 93.330078 L 254.49609 90.611328 C 254.16009 90.056662 253.6692 89.5355 252.89453 89.1875 C 250.55787 88.136845 245.93361 86.055412 244.56055 86.037109 C 245.01331 85.06413 245.38746 84.283278 245.54883 84.019531 C 246.42616 82.588866 247.56087 81.84467 249.01953 81.75 C 249.1432 81.741833 249.27012 81.738917 249.39844 81.740234 z M 241.91992 92.035156 C 243.26009 92.027202 247.92983 94.13021 250.28125 95.1875 C 251.24524 95.620951 251.80038 96.315695 252.11914 97.017578 C 248.68977 104.71575 244.73081 114.21394 243.98633 116.4668 C 243.945 116.5388 243.41109 117.70964 242.73242 118.18164 C 242.07642 118.63631 239.43399 120.31934 235.11133 117.88867 C 233.19533 116.81134 233.36339 112.50161 234.91406 108.48828 C 236.08188 105.46705 239.2669 97.975302 241.87109 92.039062 C 241.8877 92.038205 241.90213 92.035262 241.91992 92.035156 z " /><path
     id="polygon7"
     style="opacity:0.2"
     transform="scale(1.3333333)"
     d="m 180.211,83.708 0.584,-1.378 -3.856,-1.678 -0.501,1.319 z m -4.102,-0.871 c 0,0 -0.908,2.295997 -0.392,2.808997 0.516,0.513 0.888,0.909 1.957,1.239 1.069,0.33 1.728,-0.931995 2.272,-2.334 0,0 -2.058,-0.828 -3.837,-1.713997 z" /></g></svg>
