<?xml version="1.0" encoding="UTF-8" standalone="no"?>
<!-- Created with Inkscape (http://www.inkscape.org/) -->

<svg
   version="1.1"
   id="svg1242"
   width="400"
   height="400"
   viewBox="0 0 400 400"
   sodipodi:docname="ferengiHeadwear.svg"
   inkscape:version="1.2.2 (b0a8486, 2022-12-01)"
   xmlns:inkscape="http://www.inkscape.org/namespaces/inkscape"
   xmlns:sodipodi="http://sodipodi.sourceforge.net/DTD/sodipodi-0.dtd"
   xmlns="http://www.w3.org/2000/svg"
   xmlns:svg="http://www.w3.org/2000/svg">
  <defs
     id="defs1246" />
  <sodipodi:namedview
     id="namedview1244"
     pagecolor="#ffffff"
     bordercolor="#666666"
     borderopacity="1.0"
     inkscape:showpageshadow="2"
     inkscape:pageopacity="0.0"
     inkscape:pagecheckerboard="0"
     inkscape:deskcolor="#d1d1d1"
     showgrid="false"
     inkscape:zoom="1.475"
     inkscape:cx="28.813559"
     inkscape:cy="200"
     inkscape:window-width="1920"
     inkscape:window-height="1080"
     inkscape:window-x="2280"
     inkscape:window-y="111"
     inkscape:window-maximized="0"
     inkscape:current-layer="g1250">
    <inkscape:page
       x="0"
       y="0"
       id="page1248"
       width="400"
       height="400" />
  </sodipodi:namedview>
  <g
     id="g1250"
     inkscape:groupmode="layer"
     inkscape:label="Page 1"
     style="display:inline">
    <path
       d="m 165.60506,90.725874 c 0,0 -11.70666,100.850666 -15.7,111.190666 0,0 23.85334,0.46533 54.77867,-4.85867 l 9.01066,-97.075996 z"
       style="fill:#d30000;fill-opacity:1;fill-rule:nonzero;stroke:none;stroke-width:1.33333"
       id="path31682" />
    <path
       d="m 165.60506,90.725874 c 0,0 -11.70666,100.850666 -15.7,111.190666 0,0 23.85334,0.46533 54.77867,-4.85867 l 9.01066,-97.075996 z"
       style="opacity:0.199997;fill:#000000;fill-opacity:1;fill-rule:nonzero;stroke:none;stroke-width:1.33333"
       id="path31692" />
    <path
       d="m 171.1,120.09561 c 0.63466,-3.02267 1.26933,-6.04667 1.904,-9.06934 0.41466,-1.97066 0.37066,-5.13733 2.184,-6.356 1.47866,-0.99466 3.52933,-0.87333 5.14,-0.39466 1.77466,0.52933 3.58,0.51333 5.40133,0.89333 1.224,0.25467 2.352,0.408 3.63333,0.55467 1.60934,0.184 3.17467,0.468 4.77467,0.744 0.91333,0.15866 2.288,0.93466 3.16533,0.312 0.452,-0.32134 1.14267,-3.33734 0.268,-3.22667 -1.42266,0.18 -3.04266,-0.41333 -4.46933,-0.62533 -0.91333,-0.136 -1.848,-0.18 -2.736,-0.30934 -0.83467,-0.12266 -1.59867,-0.32933 -2.45867,-0.528 -2.364,-0.54666 -4.596,-1.564 -6.98266,-2.02133 -1.69067,-0.325332 -4.44267,0.28667 -5.00534,-2.023999 -0.296,-1.217333 0.42,-2.893333 0.67467,-4.105333 l -0.57867,-1.116 -10.40933,-2.097334 c 0,0 -11.70667,100.850666 -15.7,111.190666 0,0 23.85333,0.46533 54.77866,-4.85867 l 0.36667,-3.484 c -6.64933,0.708 -37.24933,7.11333 -40.47866,4.59334 -3.85734,-3.01067 6.528,-78.072 6.528,-78.072"
       style="opacity:0.199997;fill:#000000;fill-opacity:1;fill-rule:nonzero;stroke:none;stroke-width:1.33333"
       id="path31708" />
    <path
       d="m 152.08666,201.39947 c 4.116,0.996 27.75467,-1.24667 52.32667,-5.296 l 7.09466,-94.47066 -44.04133,-8.658669 c -0.90933,14.174669 -11.48266,93.090669 -15.38,108.425329 m 52.61467,-2.532 c -0.0693,0.0187 -0.13867,0.0333 -0.20934,0.0453 -31.10533,5.35466 -55.17733,5.09999 -55.76399,4.88133 -0.80534,-0.3 -1.12534,-1.16534 -0.76934,-2.08667 3.176,-8.22266 13.92534,-83.64666 15.65067,-111.107996 0.0347,-0.550666 0.29467,-1.061333 0.72,-1.414666 0.42533,-0.352 0.97067,-0.513334 1.524,-0.444 l 48.08933,9.36 c 1.07733,0.128 1.84933,1.046666 1.74133,2.070662 l -8.91866,96.532 c -0.10134,0.96134 -1.004,1.89067 -2.064,2.164"
       style="fill:#000000;fill-opacity:1;fill-rule:nonzero;stroke:none;stroke-width:1.33333"
       id="path31718" />
    <path
       d="m 206.00906,96.205208 c -9.43333,-2.129334 -18.86266,-4.273334 -28.28533,-6.448 -1.97867,-0.456 -3.22267,-0.902667 -4.5,-2.558667 -0.73067,-0.946666 -1.3,-0.968 -2.432,-1.082666 -1.55467,-0.158667 -3.32133,-0.568 -4.84,-0.0093 -1.56667,0.577333 -1.33467,2.073333 -1.55733,3.510667 l -1.088,7.042666 40.65866,9.038662 z"
       style="fill:#d30000;fill-opacity:1;fill-rule:nonzero;stroke:none;stroke-width:1.33333"
       id="path31722" />
    <path
       d="m 165.48973,87.494274 c 0.516,-0.724 1.316,-1.233333 2.63867,-1.381333 2.73866,-0.306666 0.89733,4.644 0.95333,5.682667 0.108,1.985333 4.208,2.077333 5.63467,2.425333 2.768,0.674667 5.53466,1.349333 8.30133,2.024 6.41733,1.565333 12.836,3.130667 19.25333,4.695999 l -3.78266,3.73867 c 0,0 -35.17067,-8.017336 -35.18134,-8.020002 -0.0253,-0.0053 0.92,-4.752 0.98267,-5.078667 0.296,-1.525333 0.44933,-3.034667 1.2,-4.086667"
       style="opacity:0.199997;fill:#000000;fill-opacity:1;fill-rule:nonzero;stroke:none;stroke-width:1.33333"
       id="path31732" />
    <path
       d="m 166.45266,94.404008 c 0.11334,0.172 0.248,0.345333 0.40667,0.518666 0.86267,0.945334 1.99867,0.824 3.22133,1.109334 3.948,0.918666 7.89467,1.837333 11.84267,2.756 6.736,1.568002 13.472,3.136002 20.208,4.704002 0.0853,0.02 0.16933,0.04 0.25466,0.06 0,0 1.36267,-7.348002 1.36267,-7.348002 -4.92533,0.542666 -10.39866,-1.073334 -15.13866,-2.189334 -3.23734,-0.762666 -6.456,-1.612 -9.65334,-2.526666 -1.244,-0.354667 -2.48133,-0.814667 -3.724,-1.145334 -0.88666,-0.237333 -2.108,-0.238666 -2.63466,-1.157333 -0.47734,-0.833333 0.11333,-1.285333 -1.004,-1.769333 -1.20934,-0.524 -2.83067,-0.224 -4.00134,0.28 -1.09066,0.469333 -1.124,0.96 -1.28533,2.108 -0.23867,1.697333 -0.816,3.134666 0.14533,4.6 m 37.51467,13.189332 c -0.10134,0 -0.20267,-0.007 -0.30534,-0.0213 -6.21066,-1.364 -12.42133,-2.72934 -18.63199,-4.09467 -4.55334,-1 -9.10667,-2.00133 -13.66,-3.00133 -2.98934,-0.657336 -8.98934,-0.929336 -9.10934,-5.182669 -0.04,-1.413333 0.34667,-2.86 0.51067,-4.262667 0.16,-1.369333 0.39333,-2.672 0.784,-3.970666 0.97067,-3.228 4.328,-2.114667 7.036,-2.453333 0.71733,-0.08933 1.304,-0.286667 1.85467,0.108 4.77333,3.419999 10.872,5.198666 16.50533,6.591999 4.87867,1.206667 9.84533,2.488 14.84666,3.082667 0.29467,0.036 2.3,0.42 2.43334,-0.068 0.148,-0.541333 1.06533,0.338667 1.39466,0.769333 0.33067,0.429334 0.45467,0.972 0.34267,1.493334 l -2.044,9.493332 c -0.19333,0.89333 -1.02267,1.516 -1.95733,1.516"
       style="fill:#000000;fill-opacity:1;fill-rule:nonzero;stroke:none;stroke-width:1.33333"
       id="path31742" />
  </g>
</svg>
