<?xml version="1.0" encoding="UTF-8" standalone="no"?>
<!-- Created with Inkscape (http://www.inkscape.org/) -->

<svg
   width="400"
   height="400"
   viewBox="0 0 400 400"
   version="1.1"
   id="svg6148"
   xml:space="preserve"
   inkscape:version="1.2.2 (b0a8486, 2022-12-01)"
   sodipodi:docname="foreheadMarkers.svg"
   xmlns:inkscape="http://www.inkscape.org/namespaces/inkscape"
   xmlns:sodipodi="http://sodipodi.sourceforge.net/DTD/sodipodi-0.dtd"
   xmlns="http://www.w3.org/2000/svg"
   xmlns:svg="http://www.w3.org/2000/svg"><sodipodi:namedview
     id="namedview6150"
     pagecolor="#ffffff"
     bordercolor="#666666"
     borderopacity="1.0"
     inkscape:showpageshadow="2"
     inkscape:pageopacity="0.0"
     inkscape:pagecheckerboard="0"
     inkscape:deskcolor="#d1d1d1"
     inkscape:document-units="px"
     showgrid="false"
     inkscape:zoom="14.6"
     inkscape:cx="313.08219"
     inkscape:cy="93.356165"
     inkscape:window-width="1697"
     inkscape:window-height="950"
     inkscape:window-x="2459"
     inkscape:window-y="354"
     inkscape:window-maximized="0"
     inkscape:current-layer="layer8"
     showguides="true" /><defs
     id="defs6145" /><g
     inkscape:groupmode="layer"
     id="layer3"
     inkscape:label="Bindi"
     sodipodi:insensitive="true"
     style="display:none"><ellipse
       style="fill:#821c2b;fill-opacity:1;stroke:#000000;stroke-width:0.500001;stroke-miterlimit:40;stroke-dasharray:none;stroke-opacity:1"
       id="path6783"
       cx="315.79523"
       cy="121.07501"
       rx="2.7118647"
       ry="3.2203395" /></g><g
     inkscape:groupmode="layer"
     id="g8367"
     inkscape:label="Risan Symbol"
     style="display:none"
     sodipodi:insensitive="true"><ellipse
       style="fill:#dcd18e;fill-opacity:1;stroke:#000000;stroke-width:0.715546;stroke-miterlimit:40;stroke-dasharray:none;stroke-opacity:1"
       id="ellipse8365"
       cx="315.79523"
       cy="113.95172"
       rx="7.1894622"
       ry="6.9182663" /><path
       style="color:#000000;fill:#000000;stroke-width:1.43109;stroke-miterlimit:40;-inkscape-stroke:none"
       d="m 312.8373,115.7618 -0.0504,-0.0419 0.0252,0.0252 z"
       id="path8891" /><path
       style="color:#000000;fill:#845a17;fill-opacity:1;stroke-width:1.35581;stroke-miterlimit:40;-inkscape-stroke:none"
       d="m 312.15686,110.03725 c -0.29922,0.21666 -0.60727,0.58817 -0.85797,1.06981 -0.2507,0.48165 -0.43693,1.07322 -0.43693,1.71594 0,1.23957 0.5271,2.65613 1.75035,3.4213 0.9793,0.61225 2.20669,0.57462 3.24389,0.57462 1.13873,0 2.33468,0.17889 3.35774,-0.5958 1.03486,-0.78367 1.63385,-2.21465 1.63385,-3.40012 0,-1.23224 -0.69991,-2.31216 -1.72388,-3.02143 -0.13696,-0.10791 -0.32175,-0.15999 -0.56668,-0.16153 -0.22272,-0.001 -0.3972,0.10819 -0.54552,0.2595 -0.14829,0.15139 -0.2671,0.36843 -0.26744,0.62494 6.5e-4,0.47993 0.37995,0.88716 0.85796,0.88711 0.10075,-6e-5 0.1774,-0.0764 0.27011,-0.1112 0.42615,0.45122 0.70703,0.96205 0.70703,1.52262 0,0.33007 -0.13109,0.83396 -0.34425,1.2949 -0.21309,0.46095 -0.51283,0.88378 -0.78647,1.09101 -0.26958,0.20413 -0.59493,0.29294 -1.02481,0.32836 -0.42987,0.0354 -0.95326,0.0129 -1.56764,0.0129 -1.03085,0 -2.069,-0.0683 -2.56862,-0.38133 l -0.006,-0.003 c -0.73946,-0.46256 -1.14925,-1.47773 -1.14925,-2.34354 0,-0.5846 0.3022,-1.11717 0.76529,-1.58089 0.093,0.0351 0.17162,0.10848 0.27275,0.10862 0.47801,6e-5 0.85732,-0.40716 0.85797,-0.8871 -3.3e-4,-0.23998 -0.0912,-0.45135 -0.22244,-0.60906 -0.13137,-0.15771 -0.30561,-0.2768 -0.55132,-0.28161 -0.24572,-0.006 -0.57925,0.0882 -1.0983,0.46402 z"
       id="path8877"
       sodipodi:nodetypes="ssscsssccscscsssssccscccscs" /><path
       id="path8546"
       style="color:#000000;fill:#845a17;fill-opacity:1;stroke-width:1.80043;-inkscape-stroke:none"
       d="m 312.69064,117.02906 a 0.8719825,0.91558157 0 0 0 -0.87208,0.9143 0.8719825,0.91558157 0 0 0 0.87208,0.91779 0.8719825,0.91558157 0 0 0 0.87209,-0.91779 0.8719825,0.91558157 0 0 0 0,-0.0143 h 4.62062 a 0.8719825,0.91558157 0 0 0 0,0.0143 0.8719825,0.91558157 0 0 0 0.8721,0.91779 0.8719825,0.91558157 0 0 0 0.87207,-0.91779 0.8719825,0.91558157 0 0 0 -0.61187,-0.87209 v -0.0422 h -0.21803 -0.0422 -6.32262 a 0.8719825,0.91558157 0 0 0 -0.0422,0 z" /></g><g
     inkscape:groupmode="layer"
     id="layer8"
     inkscape:label="Inuit Tattoo"><path
       id="path42368"
       style="color:#000000;fill:#09053a;fill-opacity:0.6;-inkscape-stroke:none"
       d="m 323.69747,74.849668 c -2.49394,9.144448 -5.20736,16.986711 -9.07052,25.728462 -6.30287,-8.988794 -13.54854,-17.649432 -21.41869,-25.672406 l -1.68177,0.03046 c 8.70515,9.417271 16.91879,18.928672 23.42663,28.306006 4.18292,-9.841416 7.72638,-19.893541 10.08204,-28.425787 z m 4.88867,-0.641907 c -4.04346,12.664418 -8.35915,24.459736 -14.01192,36.102789 -7.8424,-12.724144 -18.16148,-24.513551 -29.06559,-35.648033 l -1.78441,0.08731 c 11.88094,12.599202 22.42215,25.501933 31.03164,38.658373 6.05955,-13.01011 11.52601,-27.349903 15.3418,-39.246087 z"
       sodipodi:nodetypes="cccccccccccccc" /></g></svg>
