<?xml version="1.0" encoding="UTF-8" standalone="no"?>
<!-- Created with Inkscape (http://www.inkscape.org/) -->

<svg
   width="400"
   height="400"
   viewBox="0 0 400 400"
   version="1.1"
   id="svg1"
   xml:space="preserve"
   inkscape:version="1.3.2 (091e20e, 2023-11-25)"
   sodipodi:docname="securityHelmet.svg"
   xmlns:inkscape="http://www.inkscape.org/namespaces/inkscape"
   xmlns:sodipodi="http://sodipodi.sourceforge.net/DTD/sodipodi-0.dtd"
   xmlns="http://www.w3.org/2000/svg"
   xmlns:svg="http://www.w3.org/2000/svg"><sodipodi:namedview
     id="namedview1"
     pagecolor="#ffffff"
     bordercolor="#666666"
     borderopacity="1.0"
     inkscape:showpageshadow="2"
     inkscape:pageopacity="0.0"
     inkscape:pagecheckerboard="0"
     inkscape:deskcolor="#d1d1d1"
     inkscape:document-units="px"
     inkscape:zoom="1.885"
     inkscape:cx="199.73475"
     inkscape:cy="200"
     inkscape:window-width="1992"
     inkscape:window-height="967"
     inkscape:window-x="2195"
     inkscape:window-y="342"
     inkscape:window-maximized="0"
     inkscape:current-layer="layer4" /><defs
     id="defs1" /><g
     inkscape:groupmode="layer"
     id="layer4"
     inkscape:label="Helmet Top"><path
       style="fill:#715041;fill-opacity:1;stroke:none;stroke-width:2.5;stroke-linecap:butt;stroke-linejoin:miter;stroke-dasharray:none;stroke-opacity:1"
       d="m 190.4831,113.06723 c 0,0 48.53758,0.97739 73.33276,1.77355 24.7441,0.79453 44.02544,0.87421 74.83324,-1.87561 7.46759,-0.66654 13.60554,-2.33624 13.60554,-2.33624 0,0 1.00379,-30.62811 -18.03714,-53.865004 -16.39328,-20.0058 -51.62471,-34.991345 -60.28989,-35.136464 -5.7092,-0.09561 -37.76168,4.344501 -60.82039,26.525199 -26.03399,25.042695 -22.62412,64.914569 -22.62412,64.914569 z"
       id="path3"
       sodipodi:nodetypes="csscsssc" /><path
       style="fill:#ffffff;fill-opacity:0.2;stroke:none;stroke-width:1px;stroke-linecap:butt;stroke-linejoin:miter;stroke-opacity:1"
       d="m 329.31035,52.387268 c 0,0 2.96605,5.695875 5.74842,10.61008 4.1321,7.298071 5.66297,12.828796 7.37212,19.628647 1.93277,7.689531 3.08782,13.723481 3.97878,20.689655 0.34845,2.72444 0.5305,8.22281 0.5305,8.22281 l 5.31447,-1.32626 -0.26525,-11.273208 -4.37666,-18.169761 -8.09018,-16.976127 z"
       id="path31"
       sodipodi:nodetypes="cssscccccc" /><path
       id="path1"
       style="color:#000000;fill:#000000;-inkscape-stroke:none"
       d="m 273.94922,20.376953 c -3.21767,-0.05389 -12.5849,1.061831 -24.32031,4.974609 -11.73543,3.91278 -25.68083,10.638345 -37.38868,21.900391 -25.45959,24.490168 -23.38703,61.410767 -22.90625,67.042967 13.83119,0.26467 54.42118,1.15208 74.44141,1.79492 24.7622,0.79512 44.12851,0.8752 74.98438,-1.8789 6.53007,-0.58286 11.82075,-1.82754 14.71484,-2.61914 0.14691,-4.62221 0.23894,-33.007786 -18.29102,-55.621097 -8.37788,-10.224091 -21.39185,-19.014602 -33.42773,-25.330078 -6.01794,-3.157738 -11.79125,-5.688783 -16.63086,-7.449219 -4.83961,-1.760436 -8.66353,-2.772379 -11.17578,-2.814453 z m -1.79297,2.613281 c 4.09417,1.946095 15.10078,7.611981 23.51953,16.052735 6.40778,6.424529 12.67969,15.333984 12.67969,15.333984 0,0 -4.9763,-9.789364 -11.39258,-16.564453 -6.28603,-6.637562 -13.17224,-11.248787 -17.60742,-13.849609 1.48593,0.418496 3.10505,0.919376 4.91601,1.578125 4.71565,1.715342 10.40007,4.206952 16.32227,7.314453 11.8444,6.215002 24.64089,14.919502 32.65625,24.701172 17.81307,21.738455 17.76872,49.468199 17.72852,52.082029 -1.21824,0.31387 -5.98035,1.50533 -12.44141,2.08203 -30.75961,2.74552 -49.95574,2.66504 -74.68164,1.8711 -24.40826,-0.78374 -70.60198,-1.71297 -72.14649,-1.74414 -0.21117,-3.1167 -2.16422,-39.295295 22.26563,-62.794926 11.35082,-10.918608 24.96061,-17.501544 36.44336,-21.330078 9.86506,-3.289169 17.98403,-4.473388 21.73828,-4.732422 z"
       sodipodi:nodetypes="ssscsscsssscscscssscsscssc" /><path
       style="fill:#000000;fill-opacity:0.2;stroke:none;stroke-width:1.52149;stroke-linecap:butt;stroke-linejoin:miter;stroke-dasharray:none;stroke-opacity:1"
       d="m 303.67147,98.176249 c 0,0 -3.48564,-17.856541 -3.20189,-26.340705 0.23866,-7.136133 4.11693,-22.397004 4.11693,-22.397004 0,0 10.16779,9.872551 13.8568,15.075891 5.32292,7.507959 11.61938,24.990588 11.61938,24.990588 0,0 -8.55996,-10.907845 -12.97783,-10.770803 -7.27409,0.225643 -13.41339,19.442033 -13.41339,19.442033 z"
       id="path26"
       sodipodi:nodetypes="cscscsc" /><path
       style="fill:#f1dcbf;fill-opacity:1;stroke:#000000;stroke-width:1.5;stroke-linecap:butt;stroke-linejoin:miter;stroke-dasharray:none;stroke-opacity:1"
       d="m 304.59985,95.656355 c 0,0 -2.15937,-16.324387 -1.87562,-24.570554 0.23866,-6.935951 3.18854,-21.382009 3.18854,-21.382009 0,0 10.56567,8.822174 14.25468,13.87955 5.32292,7.297347 10.691,25.3208 10.691,25.3208 0,0 -6.83582,-11.76201 -11.25369,-11.628812 -7.27409,0.219313 -15.00491,18.381025 -15.00491,18.381025 z"
       id="path4"
       sodipodi:nodetypes="cscscsc" /><path
       id="path24"
       style="fill:#000000;fill-opacity:0.2;stroke:none;stroke-width:1px;stroke-linecap:butt;stroke-linejoin:miter;stroke-opacity:1"
       d="m 261.54492,23.361328 c -12.88491,2.821684 -32.73761,9.688939 -48.4375,24.791016 -19.23397,18.501601 -22.38663,45.054312 -22.72656,57.685546 15.42698,3.18532 30.49629,8.00894 48.34567,2.38505 7.84571,-2.47199 16.90677,-9.310882 26.52483,-20.158839 7.56658,-8.534155 13.76522,-15.420574 23.34239,-25.995742 2.96758,-3.276815 7.80592,-8.857062 7.42773,-13.261718 -0.72768,-8.475274 -12.72914,-15.488886 -20.16015,-19.628907 -3.97796,-2.21623 -9.28679,-4.210692 -14.31641,-5.816406 z"
       sodipodi:nodetypes="cscsssssc" /><path
       style="fill:#715041;fill-opacity:1;stroke:none;stroke-width:2.4;stroke-linecap:butt;stroke-linejoin:miter;stroke-dasharray:none;stroke-opacity:1"
       d="m 190.42427,97.017867 61.56512,-3.118663 3.18302,1.061008 c 0,0 -0.91556,14.512558 -1.59151,21.750668 -0.22079,2.36421 -5.35482,8.23676 -4.77453,12.73209 2.78366,21.56422 8.78056,37.76817 21.53091,59.37874 3.45472,5.85539 14.32404,17.34644 23.56192,22.31887 5.917,3.18492 14.19042,2.72459 20.9094,2.62586 7.122,-0.10465 17.98518,-3.18785 17.96335,-3.20968 0,0 1.56998,4.82727 0.25192,8.54138 -1.32244,3.72645 -1.75879,9.31457 -4.55479,12.11057 -4.4736,4.4736 -13.4076,6.50453 -19.71576,6.98758 -13.04274,0.99875 -26.41455,-1.04167 -38.72679,-5.30504 -14.53004,-5.03132 -27.86801,-13.51745 -38.84999,-24.27999 -13.13108,-12.86869 -28.1322,-41.06073 -40.00202,-74.699 -3.61763,-10.25211 -0.75025,-36.894393 -0.75025,-36.894393 z"
       id="path20"
       sodipodi:nodetypes="cccssssscssssssc" /><path
       style="color:#000000;fill:#000000;-inkscape-stroke:none"
       d="m 252.1543,92.689453 -62.81446,3.181641 c 0,0 -0.8294,7.717136 -1.0957,15.708986 -0.2663,7.99184 -0.15163,17.20496 1.79883,22.73242 11.90537,33.73901 26.86247,61.99413 40.29297,75.15625 11.10366,10.88179 24.58912,19.46311 39.29883,24.55664 12.45421,4.31253 25.98189,6.3802 39.21093,5.36719 6.49662,-0.49748 15.82018,-2.55168 20.60444,-7.33594 1.65858,-1.65857 2.89098,-3.54834 3.5346,-5.83064 0.64362,-2.28229 1.08927,-5.00174 1.70118,-6.726 1.5281,-4.306 -0.64007,-9.31445 -0.64007,-9.31445 l -0.36914,-1.13672 -1.13867,0.36523 c 0,0 -10.94457,2.8042 -17.78999,3.1543 -7.0936,0.36279 -14.77162,0.48022 -20.2793,-2.48438 -8.90438,-4.79291 -19.85355,-16.37266 -23.09766,-21.87109 -12.70061,-21.52627 -18.60958,-37.50096 -21.375,-58.92383 -0.22412,-1.73621 0.74895,-4.17893 1.95703,-6.44726 0.60405,-1.13417 1.2442,-2.2255 1.76758,-3.2168 0.52339,-0.9913 0.96373,-1.82878 1.05469,-2.80273 0.68043,-7.28608 1.26097,-14.45719 1.59375,-21.787114 0.0367,-0.80908 -0.57925,-1.886003 -1.22077,-2.100799 -1.08622,-0.363691 -2.99407,-0.244904 -2.99407,-0.244904 z m -0.33008,2.419922 c 1.02289,-0.0033 2.04789,0.16205 2.08398,0.693359 0.0554,0.814889 -0.8784,13.910686 -1.52148,20.796876 -0.0194,0.20815 -0.3039,0.99104 -0.78711,1.90625 -0.48321,0.91521 -1.1311,2.01562 -1.76563,3.20703 -1.26905,2.38282 -2.57296,5.1237 -2.21679,7.88281 2.8019,21.70553 8.88744,38.14111 21.6875,59.83594 3.66532,6.21234 14.45403,17.61369 24.02539,22.76563 6.32631,3.40523 14.39895,3.13274 21.53906,2.76757 6.50023,-0.33244 15.37978,-2.37064 17.12007,-2.91015 0.31941,1.31833 1.31288,4.16879 0.43498,6.64258 -0.71054,2.00219 -1.14584,4.73401 -1.75,6.87639 -0.60417,2.14238 -1.7839,3.64829 -2.92132,4.78571 -4.16293,4.16293 -12.97108,6.17201 -19.09077,6.64063 -12.85641,0.98448 -26.07195,-1.02799 -38.24219,-5.24219 -14.35035,-4.9691 -27.54401,-13.36063 -38.4043,-24.0039 -12.83163,-12.57523 -27.87473,-40.70278 -39.70898,-74.24024 -1.66717,-4.72463 -1.92704,-13.96121 -1.66406,-21.85351 0.24458,-7.34003 0.81883,-12.660505 0.90625,-13.498051 z"
       id="path5"
       sodipodi:nodetypes="ccsssssssscccsssssssssccsssssssscsssssssscc" /><path
       id="path8"
       style="fill:#715041;fill-opacity:1;stroke:none;stroke-width:1px;stroke-linecap:butt;stroke-linejoin:miter;stroke-opacity:1"
       d="m 188.125,128.38672 c 0,0 -1.88715,0.32786 -1.87695,2.90625 0.0102,2.57839 2.25195,2.71875 2.25195,2.71875 0.1136,-0.009 0.34155,0.0133 0.5293,0.0254 l 0.041,0.14258 c -0.41319,0.12263 -1.70591,0.6644 -1.69726,2.84961 0.0102,2.57837 2.25195,2.7207 2.25195,2.7207 h 1.08984 l 0.0195,0.0644 c -0.49201,0.17458 -1.63699,0.77977 -1.62891,2.82032 0.0102,2.57837 2.25,2.71875 2.25,2.71875 0.44302,0.15497 0.73689,0.0138 0.91797,-0.32813 l 0.23828,0.8125 c -0.48505,0.39643 -0.98378,1.12346 -0.97852,2.45508 0.0102,2.57839 2.25,2.71875 2.25,2.71875 0.0969,0 0.15973,-0.002 0.25586,-0.002 l 0.22266,0.75585 c -0.5071,0.3806 -1.05828,1.10511 -1.05274,2.50586 0.0102,2.57839 2.25,2.72071 2.25,2.72071 0.12064,0 0.22551,-0.002 0.34571,-0.002 L 196,157.65234 c -0.46709,0.40622 -0.93085,1.13087 -0.92578,2.41211 0.0102,2.57839 2.25,2.71875 2.25,2.71875 0.0661,0 0.12347,-0.002 0.18945,-0.002 l 0.19727,0.66602 c -0.47509,0.4021 -0.95438,1.12847 -0.94922,2.43164 0.0102,2.57837 2.25,2.71875 2.25,2.71875 h 32.82422 c -0.0603,-1.49407 -0.53764,-2.67808 -1.32422,-3.62305 l -0.99414,-3.39258 -1.03516,-3.53906 -0.66406,-2.26758 -1.02734,-3.51172 c -2.17135,-7.93563 -4.49072,-15.92651 -6.59375,-23.7832 z"
       sodipodi:nodetypes="cscccscccscccscccscccscccsccccccccc" /><path
       id="path6"
       style="color:#000000;fill:#000000;-inkscape-stroke:none"
       d="m 187.65625,127.73438 c -0.36488,0.10371 -0.70445,0.19123 -1.01367,0.55859 -0.53542,0.63608 -1.09953,1.54199 -1.09375,3.00195 0.006,1.4919 0.73138,2.45628 1.45312,2.91602 0.16503,0.10512 0.32916,0.18616 0.48633,0.25195 -0.45512,0.5634 -0.81905,1.40733 -0.81445,2.56836 0.006,1.4919 0.73138,2.45628 1.45312,2.91602 0.31856,0.20291 0.63594,0.32244 0.89453,0.39453 -0.3571,0.55229 -0.61913,1.30934 -0.61523,2.29492 0.006,1.4919 0.73139,2.45627 1.45313,2.91601 0.72173,0.45974 1.45312,0.5 1.45312,0.5 l 0.0234,0.002 h 0.0762 c -0.33877,0.54738 -0.58385,1.28751 -0.58008,2.24023 0.006,1.4919 0.73139,2.45628 1.45313,2.91602 0.40792,0.25984 0.80369,0.37914 1.08398,0.43945 -0.47636,0.56245 -0.86412,1.42341 -0.85937,2.62305 0.006,1.4919 0.73138,2.45627 1.45312,2.91601 0.42609,0.27141 0.8349,0.39023 1.11523,0.44727 -0.40254,0.56057 -0.7093,1.363 -0.70507,2.42969 0.006,1.49189 0.73138,2.45627 1.45312,2.91601 0.35211,0.22429 0.70591,0.34738 0.97656,0.41602 -0.42086,0.56238 -0.74654,1.383 -0.74218,2.48242 0.006,1.4919 0.73138,2.45628 1.45312,2.91602 0.72174,0.45973 1.45313,0.5 1.45313,0.5 l 0.0234,0.002 33.76758,0.0664 c -3.96404,-13.78273 -8.38182,-27.89029 -11.98828,-41.58398 z m 0.56836,1.35156 30.56836,0.0898 c -0.36286,0.52296 -0.66343,1.24246 -0.59375,2.1543 0.0676,0.88443 0.62548,1.53158 1.19531,1.98242 h -30.85742 c -0.006,-4.4e-4 -0.38508,-0.0296 -0.7832,-0.2832 -0.40108,-0.25548 -0.80038,-0.65181 -0.80469,-1.73828 -0.004,-1.11843 0.35911,-1.60447 0.68945,-1.88868 0.31986,-0.27518 0.56925,-0.31353 0.58594,-0.3164 z m 31.48437,0.50195 0.88289,3.41804 c -0.037,-0.024 -0.0741,-0.0466 -0.11133,-0.0723 -0.53519,-0.36922 -1.24203,-1.11454 -1.28523,-1.67976 -0.0565,-0.73983 0.21737,-1.29339 0.51367,-1.66602 z m -30.35937,5.23438 30.56836,0.0898 c -0.36286,0.52296 -0.66343,1.24246 -0.59375,2.1543 0.0676,0.88443 0.62548,1.53158 1.19531,1.98242 h -22.23437 l -8.00391,-0.0234 v 0.0234 h -0.61914 c -0.006,-4.4e-4 -0.38508,-0.0296 -0.7832,-0.28321 -0.40108,-0.25547 -0.80038,-0.6518 -0.80469,-1.73828 -0.004,-1.11843 0.35911,-1.60446 0.68945,-1.88867 0.31986,-0.27518 0.56925,-0.31353 0.58594,-0.3164 z m 31.67193,0.59573 0.69533,3.32426 c -0.037,-0.024 -0.0741,-0.0466 -0.11133,-0.0723 -0.53519,-0.36922 -1.19514,-0.59876 -1.28523,-1.67977 -0.10339,-1.20872 0.70123,-2.0483 0.70123,-1.57223 z m -29.93951,5.00973 30.56836,0.0899 c -0.36286,0.52296 -0.66343,1.24246 -0.59375,2.1543 0.0676,0.88442 0.62548,1.53158 1.19531,1.98242 h -30.85742 c -0.006,-4.4e-4 -0.38508,-0.0296 -0.7832,-0.28321 -0.40108,-0.25548 -0.80038,-0.6518 -0.80469,-1.73828 -0.004,-1.11843 0.35911,-1.60446 0.68945,-1.88867 0.31986,-0.27518 0.56925,-0.31354 0.58594,-0.31641 z m 31.67194,0.40818 1.02355,3.79316 c -0.037,-0.024 -0.0741,-0.0466 -0.11132,-0.0723 -0.53519,-0.36922 -1.52338,-0.8801 -1.61347,-1.96111 -0.10339,-1.06806 0.40494,-1.38716 0.70124,-1.75979 z m -29.24616,5.25003 30.56836,0.0898 c -0.36286,0.52296 -0.66343,1.24246 -0.59375,2.1543 0.0676,0.88443 0.62548,1.53158 1.19531,1.98242 h -30.85742 c -0.006,-4.4e-4 -0.38508,-0.0296 -0.7832,-0.2832 -0.40108,-0.25548 -0.80038,-0.65181 -0.80469,-1.73828 -0.004,-1.11843 0.35912,-1.60447 0.68946,-1.88868 0.31985,-0.27518 0.56924,-0.31353 0.58593,-0.3164 z m 31.48438,0.50195 0.64843,3.18359 c -0.037,-0.024 -0.0741,-0.0466 -0.11132,-0.0723 -0.53519,-0.36922 -1.00758,-0.88009 -1.05078,-1.44531 -0.0565,-0.73983 0.21737,-1.29339 0.51367,-1.66602 z m -29.80664,5.47656 30.56836,0.0899 c -0.36286,0.52296 -0.66343,1.24245 -0.59375,2.15429 0.0676,0.88443 0.62548,1.53159 1.19531,1.98243 h -30.85742 c -0.006,-4.4e-4 -0.38509,-0.0296 -0.78321,-0.28321 -0.40108,-0.25548 -0.80037,-0.6518 -0.80468,-1.73828 -0.004,-1.11843 0.35911,-1.60446 0.68945,-1.88867 0.31986,-0.27518 0.56925,-0.31354 0.58594,-0.31641 z m 31.48437,0.50196 0.64844,3.18359 c -0.037,-0.024 -0.0741,-0.0466 -0.11133,-0.0723 -0.53519,-0.36922 -1.00758,-0.88009 -1.05078,-1.44531 -0.0565,-0.73983 0.21737,-1.29338 0.51367,-1.66601 z m -29.62109,5.29101 30.56836,0.0899 c -0.36286,0.52296 -0.66343,1.24245 -0.59375,2.15429 0.0676,0.88443 0.62548,1.53158 1.19531,1.98242 h -30.85742 c -0.006,-4.4e-4 -0.38509,-0.0296 -0.78321,-0.2832 -0.40107,-0.25548 -0.80037,-0.6518 -0.80468,-1.73828 -0.004,-1.11843 0.35911,-1.60446 0.68945,-1.88867 0.31986,-0.27518 0.56925,-0.31354 0.58594,-0.31641 z m 31.48437,0.50196 0.64844,3.18359 c -0.037,-0.024 -0.0741,-0.0466 -0.11133,-0.0723 -0.53519,-0.36922 -1.00758,-0.88009 -1.05078,-1.44531 -0.0565,-0.73983 0.21737,-1.29339 0.51367,-1.66601 z m -29.79687,5.3125 30.56836,0.0898 c -0.36286,0.52296 -0.66343,1.24246 -0.59375,2.1543 0.0676,0.88442 0.62548,1.53158 1.19531,1.98242 h -30.85742 c -0.006,-4.4e-4 -0.38509,-0.0296 -0.78321,-0.28321 -0.40107,-0.25548 -0.80037,-0.6518 -0.80468,-1.73828 -0.004,-1.11843 0.35911,-1.60446 0.68945,-1.88867 0.31986,-0.27518 0.56925,-0.31354 0.58594,-0.3164 z m 31.48437,0.50195 0.64844,3.18359 c -0.037,-0.024 -0.0741,-0.0466 -0.11133,-0.0723 -0.53519,-0.36922 -1.00758,-0.8801 -1.05078,-1.44532 -0.0565,-0.73983 0.21737,-1.29338 0.51367,-1.66601 z"
       sodipodi:nodetypes="cscsccsccsccccsccsccsccscccccccsccscsccccscccccccccscsccccccccsccscsccccscscsccscsccccscccsccscsccccscccsccscsccscscccsccscsccccscsccscssscccssc" /><path
       style="color:#000000;fill:#000000;fill-opacity:0.3;-inkscape-stroke:none"
       d="m 248.50586,96.486328 c -18.08228,1.006704 -55.53125,2.458985 -55.53125,2.458984 l 0.0508,1.298828 c 0,0 37.44028,-1.4506 55.55273,-2.458984 0.31498,-0.01754 0.87824,0.01982 1.27735,0.13086 0.19955,0.05552 0.35644,0.13348 0.41601,0.179687 0.0596,0.04621 0.0159,-0.0013 0.0156,-0.02734 0.0614,7.337547 0.0166,10.288557 -0.74609,18.841797 -0.0196,0.22016 -0.218,0.71738 -0.56055,1.27539 -0.34255,0.558 -0.80964,1.19497 -1.29688,1.83593 -0.97447,1.28192 -2.01998,2.48803 -2.40234,3.54883 -1.40043,3.88528 -0.72552,7.84629 0.01,11.48242 2.8281,13.98483 6.33101,27.54595 12.6875,40.27539 4.97334,9.95958 10.77016,20.04028 18.83984,27.84961 5.35769,5.18484 11.67886,9.65902 18.74609,12.19141 5.70962,2.04592 11.96524,1.90719 17.8711,1.72656 2.50435,-0.0766 8.82365,-0.75079 11.77733,-1.34765 1.47685,-0.29843 2.40727,-0.71078 3.35994,-0.88849 0.40216,-0.075 0.69107,-0.11893 0.93164,-0.15039 0.40848,1.44691 0.71988,2.93709 0.65429,4.38867 -0.0844,1.86797 -1.70405,4.90254 -2.37955,7.29278 -0.6755,2.39025 -1.32812,4.28516 -1.32812,4.28516 l 1.22851,0.42383 c 0,0 0.66536,-1.92732 1.35157,-4.35547 0.68621,-2.42815 2.33082,-5.47164 2.42642,-7.58771 0.0817,-1.80735 -0.26443,-3.60655 -0.77929,-5.28515 -0.0934,-0.30438 -0.33384,-0.41545 -0.45118,-0.45508 -0.11733,-0.0396 -0.19199,-0.0431 -0.26367,-0.0469 -0.14335,-0.008 -0.27208,0.003 -0.42773,0.0195 -0.31131,0.0336 -0.71088,0.1019 -1.20117,0.19336 -0.98059,0.18293 -1.90937,0.59533 -3.37947,0.8924 -2.9402,0.59413 -9.25672,1.25181 -11.56054,1.32226 -5.89621,0.18034 -11.98472,0.28671 -17.39062,-1.65039 -6.84072,-2.45122 -13.02238,-6.81313 -18.28125,-11.90234 -7.89113,-7.63655 -13.63071,-17.58453 -18.58008,-27.49609 -6.27686,-12.56999 -9.75903,-26.01284 -12.57813,-39.95313 -0.72883,-3.60422 -1.31927,-7.29107 -0.0605,-10.7832 0.19628,-0.54458 1.22433,-1.90011 2.21484,-3.20313 0.49525,-0.6515 0.98257,-1.31365 1.36914,-1.94336 0.38657,-0.6297 0.6919,-1.21014 0.74805,-1.83984 0.76468,-8.57538 0.81143,-11.62281 0.75,-18.968745 -0.003,-0.417704 -0.24974,-0.780539 -0.51758,-0.988282 -0.26784,-0.207742 -0.56274,-0.322636 -0.86328,-0.40625 -0.60109,-0.167227 -1.23202,-0.201794 -1.69922,-0.175781 z"
       id="path21"
       sodipodi:nodetypes="sccssscsssscsssssscssccssssccssssssssssscssss" /><path
       id="path25"
       style="display:inline;fill:#000000;fill-opacity:0.2;stroke:none;stroke-width:1px;stroke-linecap:butt;stroke-linejoin:miter;stroke-opacity:1"
       d="m 190.42383,97.017578 c 0,0 -2.06764,19.309562 -0.44727,31.375002 l -1.85156,-0.006 c 0,0 -1.88715,0.32786 -1.87695,2.90625 0.0102,2.57839 2.25195,2.71875 2.25195,2.71875 0.1136,-0.009 0.34155,0.0133 0.5293,0.0254 l 0.041,0.14258 c -0.41319,0.12263 -1.70591,0.6644 -1.69726,2.84961 0.0102,2.57836 2.25195,2.7207 2.25195,2.7207 h 1.08984 l 0.0195,0.0644 c -0.49201,0.17458 -1.63699,0.77977 -1.62891,2.82032 0.0102,2.57836 2.25,2.71875 2.25,2.71875 0.44302,0.15497 0.73689,0.0138 0.91797,-0.32813 l 0.23828,0.8125 c -0.48505,0.39643 -0.98378,1.12346 -0.97852,2.45508 0.0102,2.57839 2.25,2.71875 2.25,2.71875 0.0969,0 0.15973,-0.002 0.25586,-0.002 l 0.22266,0.75585 c -0.5071,0.3806 -1.05828,1.10512 -1.05274,2.50586 0.0102,2.57839 2.25,2.72071 2.25,2.72071 0.12064,0 0.22551,-0.002 0.34571,-0.002 L 196,157.65234 c -0.46709,0.40622 -0.93085,1.13087 -0.92578,2.41211 0.0102,2.57839 2.25,2.71875 2.25,2.71875 0.0661,0 0.12347,-0.002 0.18945,-0.002 l 0.19727,0.66602 c -0.47509,0.4021 -0.95438,1.12847 -0.94922,2.43164 0.0102,2.57836 2.25,2.71875 2.25,2.71875 h 6.41406 c 8.49382,17.75917 17.49135,31.92005 25.75,40.01367 10.98196,10.76252 24.32156,19.24799 38.85156,24.27929 2.36233,0.81801 4.7726,1.52722 7.20313,2.17579 -3.92697,-5.57108 -11.37203,-12.0725 -14.09979,-17.03005 -5.30584,-9.6431 -10.33505,-19.25904 -13.79417,-29.70777 -5.70266,-17.22571 -9.83304,-35.59136 -12.20117,-53.58129 -1.45377,-11.04383 13.23212,-33.7392 14.82701,-39.079109 z"
       sodipodi:nodetypes="cccscccscccscccscccscccscccsccsscssscc" /><path
       id="path28"
       style="fill:#000000;fill-opacity:0.2;stroke:none;stroke-width:2.4;stroke-linecap:butt;stroke-linejoin:miter;stroke-dasharray:none;stroke-opacity:1"
       d="M 307.81641 216.1582 C 307.47768 216.16328 307.13739 216.17263 306.79492 216.18945 C 295.83578 216.7279 287.21703 223.14461 287.54492 230.52148 C 287.66653 233.25757 289.00428 235.74095 291.19531 237.75586 C 297.03188 238.45071 302.92483 238.64363 308.75391 238.19727 C 314.19384 237.7807 321.57211 236.2028 326.37305 232.91016 C 326.99041 231.53112 327.29908 230.072 327.23242 228.57227 C 326.91479 221.42591 318.3169 216.0008 307.81641 216.1582 z " /><path
       id="ellipse6"
       style="fill:none;fill-rule:evenodd;stroke:#000000;stroke-width:2.4;stroke-linecap:round;stroke-linejoin:round;stroke-miterlimit:20;stroke-dasharray:none"
       d="m 326.42115,228.76858 a 9.6016253,15.869106 87.032492 0 1 -15.42353,10.37106 9.6016253,15.869106 87.032492 0 1 -16.27624,-8.81358 9.6016253,15.869106 87.032492 0 1 15.42354,-10.37106 9.6016253,15.869106 87.032492 0 1 16.27623,8.81358 z m 3.99342,-0.19621 a 13.369947,19.867405 86.965465 0 1 -19.24961,14.33198 13.369947,19.867405 86.965465 0 1 -20.43698,-12.38208 13.369947,19.867405 86.965465 0 1 19.2496,-14.33198 13.369947,19.867405 86.965465 0 1 20.43699,12.38208 z" /><path
       id="path23"
       style="fill:#715041;fill-opacity:1;fill-rule:evenodd;stroke:none;stroke-width:2.4;stroke-linecap:round;stroke-linejoin:round;stroke-miterlimit:20;stroke-dasharray:none"
       d="m 330.41457,228.57237 c 0.32789,7.37688 -8.29046,13.79353 -19.24961,14.33198 -10.95915,0.53845 -20.1091,-5.00519 -20.43698,-12.38208 -0.32789,-7.37688 8.29045,-13.79353 19.2496,-14.33198 10.95915,-0.53846 20.10911,5.00519 20.43699,12.38208 z"
       sodipodi:nodetypes="sssss" /><path
       style="fill:#ffffff;fill-opacity:0.2;stroke:none;stroke-width:1px;stroke-linecap:butt;stroke-linejoin:miter;stroke-opacity:1"
       d="m 324.92426,232.45453 c 0,0 -0.96012,-3.80798 -2.25464,-5.17242 -1.90507,-2.00798 -4.75038,-3.00879 -7.42706,-3.71352 -3.33902,-0.87911 -6.89488,-0.67085 -10.34483,-0.53051 -2.00534,0.0816 -5.96817,0.79576 -5.96817,0.79576 l 6.89655,-3.0504 9.01857,-0.13263 7.55968,2.38727 3.71353,4.90716 z"
       id="path30"
       sodipodi:nodetypes="cssscccccc" /><path
       id="path22"
       style="fill:none;fill-rule:evenodd;stroke:#000000;stroke-width:2.4;stroke-linecap:round;stroke-linejoin:round;stroke-miterlimit:20;stroke-dasharray:none"
       d="m 326.42115,228.76858 a 9.6016253,15.869106 87.032492 0 1 -15.42353,10.37106 9.6016253,15.869106 87.032492 0 1 -16.27624,-8.81358 9.6016253,15.869106 87.032492 0 1 15.42354,-10.37106 9.6016253,15.869106 87.032492 0 1 16.27623,8.81358 z m 3.99342,-0.19621 a 13.369947,19.867405 86.965465 0 1 -19.24961,14.33198 13.369947,19.867405 86.965465 0 1 -20.43698,-12.38208 13.369947,19.867405 86.965465 0 1 19.2496,-14.33198 13.369947,19.867405 86.965465 0 1 20.43699,12.38208 z" /><path
       style="fill:#000000;stroke:none;stroke-width:1px;stroke-linecap:butt;stroke-linejoin:miter;stroke-opacity:1;fill-opacity:0.2"
       d="m 295.62334,227.0557 c 0,0 0.96012,3.80798 2.25464,5.17242 1.90507,2.00798 4.75038,3.00879 7.42706,3.71352 3.33902,0.87911 6.89488,0.67085 10.34483,0.53051 2.00534,-0.0816 5.96817,-0.79576 5.96817,-0.79576 l -6.89655,3.0504 -9.01857,0.13263 -7.55968,-2.38727 -3.71353,-4.90716 z"
       id="path29"
       sodipodi:nodetypes="cssscccccc" /></g></svg>
