<?xml version="1.0" encoding="UTF-8" standalone="no"?>
<!-- Created with Inkscape (http://www.inkscape.org/) -->

<svg
   width="400"
   height="400"
   viewBox="0 0 400 400"
   version="1.1"
   id="svg1"
   xml:space="preserve"
   inkscape:version="1.3.1 (91b66b0, 2023-11-16)"
   sodipodi:docname="visor.svg"
   xmlns:inkscape="http://www.inkscape.org/namespaces/inkscape"
   xmlns:sodipodi="http://sodipodi.sourceforge.net/DTD/sodipodi-0.dtd"
   xmlns:xlink="http://www.w3.org/1999/xlink"
   xmlns="http://www.w3.org/2000/svg"
   xmlns:svg="http://www.w3.org/2000/svg"><sodipodi:namedview
     id="namedview1"
     pagecolor="#ffffff"
     bordercolor="#666666"
     borderopacity="1.0"
     inkscape:showpageshadow="2"
     inkscape:pageopacity="0.0"
     inkscape:pagecheckerboard="0"
     inkscape:deskcolor="#d1d1d1"
     inkscape:document-units="px"
     inkscape:zoom="2.29"
     inkscape:cx="176.41921"
     inkscape:cy="180.78603"
     inkscape:window-width="1976"
     inkscape:window-height="1129"
     inkscape:window-x="2333"
     inkscape:window-y="138"
     inkscape:window-maximized="0"
     inkscape:current-layer="layer2" /><defs
     id="defs1" /><g
     inkscape:groupmode="layer"
     id="layer2"
     inkscape:label="Visor"><path
       style="fill:#e8dca8;stroke:#000000;stroke-width:1px;stroke-linecap:butt;stroke-linejoin:miter;stroke-opacity:1;fill-opacity:1"
       d="m 227.26227,125.056 0.77195,14.97585 99.73602,4.94048 32.73071,-3.55097 -0.30878,-16.82853 -34.12022,-1.85268 z"
       id="path13" /><path
       id="path87"
       style="fill:none;stroke:#000000;stroke-width:1px;stroke-linecap:butt;stroke-linejoin:miter;stroke-opacity:1"
       d="m 360.52173,124.34487 v 18.341 m -1.81567,-18.341 v 18.341 m -1.81568,-18.341 v 18.341 m -1.81567,-18.341 v 18.341 m -1.81568,-18.341 v 18.341 m -1.81567,-18.341 v 18.341 m -1.81568,-18.341 v 18.341 m -1.81567,-18.341 v 18.341 m -1.81568,-18.341 v 18.341 m -1.81567,-18.341 v 18.341 m -1.81568,-18.341 v 18.341 m -1.81567,-18.341 v 18.341 m -1.81568,-18.341 v 18.341 m -1.63755,-18.341 v 18.341 m -1.81568,-18.341 v 18.341 m -1.81567,-18.341 v 18.341 m -1.81568,-18.341 v 18.341 m -1.81567,-18.341 v 18.341 m -1.81568,-18.341 v 18.341 m -1.81567,-18.341 v 18.341 m -1.81568,-18.341 v 18.341 m -1.81567,-18.341 v 18.341 m -1.81568,-18.341 v 18.341 m -1.81567,-18.341 v 18.341 m -1.81568,-18.341 v 18.341 m -1.81567,-18.341 v 18.341 m -1.81568,-18.341 v 18.341 m -1.81567,-18.341 v 18.341 m -1.81568,-18.341 v 18.341 m -1.81567,-18.341 v 18.341 m -1.81568,-18.341 v 18.341 m -1.81567,-18.341 v 18.341 m -1.81568,-18.341 v 18.341 m -1.74671,-18.341 v 18.341 m -1.81568,-18.341 v 18.341 m -1.81567,-18.341 v 18.341 m -1.81568,-18.341 v 18.341 m -1.81567,-18.341 v 18.341 m -1.81568,-18.341 v 18.341 m -1.81567,-18.341 v 18.341 m -1.81568,-18.341 v 18.341 m -1.81567,-18.341 v 18.341 m -1.81568,-18.341 v 18.341 m -1.81567,-18.341 v 18.341 m -1.81568,-18.341 v 18.341 m -1.81567,-18.341 v 18.341 m -1.81568,-18.341 v 18.341 m -1.81567,-18.341 v 18.341 m -1.81568,-18.341 v 18.341 m -1.81567,-18.341 v 18.341 m -1.81568,-18.341 v 18.341 m -1.81567,-18.341 v 18.341 m -1.81568,-18.341 v 18.341 m -1.96505,-18.341 v 18.341 m -1.81568,-18.341 v 18.341 m -1.81567,-18.341 v 18.341 m -1.81568,-18.341 v 18.341 m -1.81567,-18.341 v 18.341 m -1.81568,-18.341 v 18.341 m -1.81567,-18.341 v 18.341 m -1.81568,-18.341 v 18.341 m -1.81567,-18.341 v 18.341 m -1.81568,-18.341 v 18.341 m -1.81567,-18.341 v 18.341 m -1.81568,-18.341 v 18.341 m -1.81567,-18.341 v 18.341 m -1.81568,-18.341 v 18.341 m -1.81567,-18.341 v 18.341 m -1.81568,-18.341 v 18.341 m -1.81567,-18.341 v 18.341 m -1.81568,-18.341 v 18.341 m -1.81567,-18.341 v 18.341 m -1.81568,-18.341 v 18.341" /><path
       style="fill:#000000;stroke:none;stroke-width:1px;stroke-linecap:butt;stroke-linejoin:miter;stroke-opacity:1;fill-opacity:0.2"
       d="m 227.07424,141.9214 c 0,0 35.38234,11.62327 53.71179,11.79039 20.555,0.18741 25.01314,-8.73204 34.98747,-8.39836 4.81841,0.16119 8.15214,6.13269 12.97254,6.21495 15.00117,0.25599 21.90898,-7.86026 21.90898,-7.86026 l -37.1179,-0.87336 z"
       id="path12"
       sodipodi:nodetypes="csssccc" /><path
       style="fill:#c0c0c0;fill-opacity:1;stroke:#000000;stroke-width:1px;stroke-linecap:butt;stroke-linejoin:miter;stroke-opacity:1"
       d="m 215.21984,121.81381 0,20.88127 c 0,0 71.3601,4.01453 106.87222,3.7291 5.50534,-0.0443 13.12147,-0.36416 20.26735,-0.55592 10.5188,-0.28229 19.73066,-2.36491 19.73066,-2.36491 v -4.01415 c 0,0 -9.62316,1.81626 -20.04498,2.29448 -7.0261,0.3224 -14.47701,0.46646 -19.88266,0.56241 -28.73759,0.51009 -86.25432,-3.0862 -86.25432,-3.0862 0,0 -6.71457,-0.12502 -6.63877,-6.63877 0.0625,-5.36804 5.75765,-5.88556 5.75765,-5.88556 0,0 57.43188,-1.3178 86.14969,-1.47219 13.43175,-0.0722 41.06002,0.98253 41.06002,0.98253 l 0.15439,-4.47731 c 0,0 -17.98917,-0.91289 -41.53521,-1.01063 -31.73354,-0.13172 -105.63604,1.05585 -105.63604,1.05585 z"
       id="path1"
       sodipodi:nodetypes="ccssccsscscsccsc" /><ellipse
       style="fill:#565656;fill-rule:evenodd;stroke:#000000;stroke-width:0.916216;stroke-linecap:round;stroke-linejoin:round;stroke-miterlimit:20;stroke-dasharray:none;stroke-opacity:1;fill-opacity:1"
       id="path2"
       cx="223.03494"
       cy="132.47816"
       rx="3.5899267"
       ry="5.3912363" /><ellipse
       style="fill:#cd6d81;fill-rule:evenodd;stroke:#000000;stroke-width:0.916216;stroke-linecap:round;stroke-linejoin:round;stroke-miterlimit:20;stroke-dasharray:none;stroke-opacity:1;fill-opacity:1"
       id="ellipse3"
       cx="221.83406"
       cy="132.36899"
       rx="3.5899267"
       ry="5.3912363" /><path
       id="ellipse4"
       style="fill:#ffffff;fill-opacity:0.2;fill-rule:evenodd;stroke:none;stroke-width:0.74349;stroke-linecap:round;stroke-linejoin:round;stroke-miterlimit:20;stroke-dasharray:none;stroke-opacity:1"
       d="m 223.21954,128.60454 a 2.8151127,4.5272207 0 0 1 0.51615,2.60943 2.8151127,4.5272207 0 0 1 -2.81505,4.52835 2.8151127,4.5272207 0 0 1 -1.41212,-0.61178 2.8151127,4.5272207 0 0 0 2.28971,1.90746 2.8151127,4.5272207 0 0 0 2.81505,-4.52672 2.8151127,4.5272207 0 0 0 -1.39374,-3.90674 z" /><path
       id="path6"
       style="fill:#ffffff;fill-opacity:0.33333334;stroke:none;stroke-width:1px;stroke-linecap:butt;stroke-linejoin:miter;stroke-opacity:1"
       d="M 302.88477 120.79297 C 294.79625 120.83575 286.04797 120.92266 277.02734 121.01562 L 277.02734 125.88672 C 285.91011 125.72366 294.3535 125.59024 302.88477 125.47461 L 302.88477 120.79297 z M 277.02734 141.37109 L 277.02734 145.51562 C 285.88887 145.83097 294.64569 146.08486 302.88477 146.24609 L 302.88477 142.20898 C 294.48115 142.02922 285.67338 141.73454 277.02734 141.37109 z " /><path
       id="path9"
       style="fill:#ffffff;fill-opacity:0.80000001;stroke:none;stroke-width:1px;stroke-linecap:butt;stroke-linejoin:miter;stroke-opacity:1"
       d="M 349.84766 121.28516 L 349.84766 125.83203 C 354.83768 125.99224 358.6016 126.12015 359.88281 126.16797 L 359.88281 121.65625 C 357.80461 121.56421 354.60774 121.43653 349.84766 121.28516 z M 359.88281 139.86328 C 357.72456 140.21691 354.16405 140.74823 349.84766 141.18945 L 349.84766 145.38086 C 354.21988 144.94363 357.73465 144.34383 359.88281 143.9375 L 359.88281 139.86328 z " /><path
       id="path10"
       style="fill:#0c0c0c;fill-opacity:0.19871795;stroke:none;stroke-width:1px;stroke-linecap:butt;stroke-linejoin:miter;stroke-opacity:1"
       d="M 338.88672 120.99805 L 338.88672 125.5293 C 342.82609 125.62702 345.46188 125.69202 348.92188 125.80078 L 348.92188 121.26172 C 345.95965 121.16988 342.59081 121.07786 338.88672 120.99805 z M 348.92188 141.2793 C 346.73484 141.48984 344.41921 141.67426 342.04492 141.7832 C 340.99316 141.83146 339.94923 141.85187 338.88672 141.89258 L 338.88672 145.97656 C 340.05479 145.9406 341.20497 145.90012 342.35938 145.86914 C 344.64403 145.80783 346.84152 145.65037 348.92188 145.45898 L 348.92188 141.2793 z " /><path
       id="path11"
       style="fill:#ffffff;fill-opacity:1;stroke:none;stroke-width:1px;stroke-linecap:butt;stroke-linejoin:miter;stroke-opacity:1"
       d="M 296.58398 120.83203 C 293.27064 120.85501 290.01746 120.88314 286.54883 120.91406 L 286.54883 125.71875 C 289.98201 125.66028 293.21745 125.59802 296.58398 125.54688 L 296.58398 120.83203 z M 286.54883 141.74023 L 286.54883 145.83398 C 289.98555 145.94038 293.2539 146.02154 296.58398 146.10352 L 296.58398 142.07812 C 293.27814 141.98519 289.90754 141.8615 286.54883 141.74023 z " /><path
       style="fill:none;fill-opacity:1;stroke:#000000;stroke-width:2;stroke-linecap:butt;stroke-linejoin:miter;stroke-opacity:1;stroke-dasharray:none"
       d="m 215.21984,121.81381 0,20.88127 c 0,0 71.3601,4.01453 106.87222,3.7291 5.50534,-0.0443 13.12147,-0.36416 20.26735,-0.55592 10.5188,-0.28229 19.73066,-2.36491 19.73066,-2.36491 v -4.01415 c 0,0 -9.62316,1.81626 -20.04498,2.29448 -7.0261,0.3224 -14.47701,0.46646 -19.88266,0.56241 -28.73759,0.51009 -86.25432,-3.0862 -86.25432,-3.0862 0,0 -6.71457,-0.12502 -6.63877,-6.63877 0.0625,-5.36804 5.75765,-5.88556 5.75765,-5.88556 0,0 57.43188,-1.3178 86.14969,-1.47219 13.43175,-0.0722 41.06002,0.98253 41.06002,0.98253 l 0.15439,-4.47731 c 0,0 -17.98917,-0.91289 -41.53521,-1.01063 -31.73354,-0.13172 -105.63604,1.05585 -105.63604,1.05585 z"
       id="path7"
       sodipodi:nodetypes="ccssccsscscsccsc" /></g><g
     inkscape:label="Image"
     inkscape:groupmode="layer"
     id="layer1"
     sodipodi:insensitive="true"
     style="display:none;opacity:0.5"><image
       width="400"
       height="400"
       preserveAspectRatio="none"
       xlink:href="../../../../../../Pictures/STA%20Miniature%20Maker/Visor.png"
       id="image1"
       x="0"
       y="0" /></g></svg>
