<?xml version="1.0" encoding="UTF-8" standalone="no"?>
<!-- Created with Inkscape (http://www.inkscape.org/) -->

<svg
   width="400"
   height="400"
   viewBox="0 0 400 400"
   version="1.1"
   id="svg1"
   xml:space="preserve"
   inkscape:version="1.3.1 (91b66b0, 2023-11-16)"
   sodipodi:docname="visor.svg"
   xmlns:inkscape="http://www.inkscape.org/namespaces/inkscape"
   xmlns:sodipodi="http://sodipodi.sourceforge.net/DTD/sodipodi-0.dtd"
   xmlns="http://www.w3.org/2000/svg"
   xmlns:svg="http://www.w3.org/2000/svg"><sodipodi:namedview
     id="namedview1"
     pagecolor="#ffffff"
     bordercolor="#666666"
     borderopacity="1.0"
     inkscape:showpageshadow="2"
     inkscape:pageopacity="0.0"
     inkscape:pagecheckerboard="0"
     inkscape:deskcolor="#d1d1d1"
     inkscape:document-units="px"
     inkscape:zoom="2.29"
     inkscape:cx="200"
     inkscape:cy="200"
     inkscape:window-width="1976"
     inkscape:window-height="1129"
     inkscape:window-x="2333"
     inkscape:window-y="138"
     inkscape:window-maximized="0"
     inkscape:current-layer="layer2" /><defs
     id="defs1" /><g
     inkscape:groupmode="layer"
     id="layer2"
     inkscape:label="Visor"><path
       style="fill:#e8dca8;fill-opacity:1;stroke:#000000;stroke-width:1px;stroke-linecap:butt;stroke-linejoin:miter;stroke-opacity:1"
       d="m 227.26227,126.056 0.77195,14.97585 99.73602,4.94048 32.73071,-3.55097 -0.30878,-16.82853 -34.12022,-1.85268 z"
       id="path13" /><path
       id="path87"
       style="fill:none;stroke:#000000;stroke-width:1px;stroke-linecap:butt;stroke-linejoin:miter;stroke-opacity:1"
       d="m 360.52173,125.34487 v 18.341 m -1.81567,-18.341 v 18.341 m -1.81568,-18.341 v 18.341 m -1.81567,-18.341 v 18.341 m -1.81568,-18.341 v 18.341 m -1.81567,-18.341 v 18.341 m -1.81568,-18.341 v 18.341 m -1.81567,-18.341 v 18.341 m -1.81568,-18.341 v 18.341 m -1.81567,-18.341 v 18.341 m -1.81568,-18.341 v 18.341 m -1.81567,-18.341 v 18.341 m -1.81568,-18.341 v 18.341 m -1.63755,-18.341 v 18.341 m -1.81568,-18.341 v 18.341 m -1.81567,-18.341 v 18.341 m -1.81568,-18.341 v 18.341 m -1.81567,-18.341 v 18.341 m -1.81568,-18.341 v 18.341 m -1.81567,-18.341 v 18.341 m -1.81568,-18.341 v 18.341 m -1.81567,-18.341 v 18.341 m -1.81568,-18.341 v 18.341 m -1.81567,-18.341 v 18.341 m -1.81568,-18.341 v 18.341 m -1.81567,-18.341 v 18.341 m -1.81568,-18.341 v 18.341 m -1.81567,-18.341 v 18.341 m -1.81568,-18.341 v 18.341 m -1.81567,-18.341 v 18.341 m -1.81568,-18.341 v 18.341 m -1.81567,-18.341 v 18.341 m -1.81568,-18.341 v 18.341 m -1.74671,-18.341 v 18.341 m -1.81568,-18.341 v 18.341 m -1.81567,-18.341 v 18.341 m -1.81568,-18.341 v 18.341 m -1.81567,-18.341 v 18.341 m -1.81568,-18.341 v 18.341 m -1.81567,-18.341 v 18.341 m -1.81568,-18.341 v 18.341 m -1.81567,-18.341 v 18.341 m -1.81568,-18.341 v 18.341 m -1.81567,-18.341 v 18.341 m -1.81568,-18.341 v 18.341 m -1.81567,-18.341 v 18.341 m -1.81568,-18.341 v 18.341 m -1.81567,-18.341 v 18.341 m -1.81568,-18.341 v 18.341 m -1.81567,-18.341 v 18.341 m -1.81568,-18.341 v 18.341 m -1.81567,-18.341 v 18.341 m -1.81568,-18.341 v 18.341 m -1.96505,-18.341 v 18.341 m -1.81568,-18.341 v 18.341 m -1.81567,-18.341 v 18.341 m -1.81568,-18.341 v 18.341 m -1.81567,-18.341 v 18.341 m -1.81568,-18.341 v 18.341 m -1.81567,-18.341 v 18.341 m -1.81568,-18.341 v 18.341 m -1.81567,-18.341 v 18.341 m -1.81568,-18.341 v 18.341 m -1.81567,-18.341 v 18.341 m -1.81568,-18.341 v 18.341 m -1.81567,-18.341 v 18.341 m -1.81568,-18.341 v 18.341 m -1.81567,-18.341 v 18.341 m -1.81568,-18.341 v 18.341 m -1.81567,-18.341 v 18.341 m -1.81568,-18.341 v 18.341 m -1.81567,-18.341 v 18.341 m -1.81568,-18.341 v 18.341" /><path
       style="fill:#000000;fill-opacity:0.2;stroke:none;stroke-width:1px;stroke-linecap:butt;stroke-linejoin:miter;stroke-opacity:1"
       d="m 227.07424,142.9214 c 0,0 35.38234,11.62327 53.71179,11.79039 20.555,0.18741 25.01314,-8.73204 34.98747,-8.39836 4.81841,0.16119 9.54165,7.98537 14.36205,8.06763 15.00117,0.25599 20.51947,-9.71294 20.51947,-9.71294 l -37.1179,-0.87336 z"
       id="path12"
       sodipodi:nodetypes="csssccc" /><path
       style="fill:#c0c0c0;fill-opacity:1;stroke:#000000;stroke-width:1px;stroke-linecap:butt;stroke-linejoin:miter;stroke-opacity:1"
       d="m 215.21984,122.81381 v 20.88127 c 0,0 71.3601,4.01453 106.87222,3.7291 5.50534,-0.0443 13.12147,-0.36416 20.26735,-0.55592 10.5188,-0.28229 19.73066,-2.36491 19.73066,-2.36491 v -4.01415 c 0,0 -9.62316,1.81626 -20.04498,2.29448 -7.0261,0.3224 -14.47701,0.46646 -19.88266,0.56241 -28.73759,0.51009 -86.25432,-3.0862 -86.25432,-3.0862 0,0 -6.71457,-0.12502 -6.63877,-6.63877 0.0625,-5.36804 5.75765,-5.88556 5.75765,-5.88556 0,0 57.43188,-1.3178 86.14969,-1.47219 13.43175,-0.0722 41.06002,0.98253 41.06002,0.98253 l 0.15439,-4.47731 c 0,0 -17.98917,-0.91289 -41.53521,-1.01063 -31.73354,-0.13172 -105.63604,1.05585 -105.63604,1.05585 z"
       id="path1"
       sodipodi:nodetypes="ccssccsscscsccsc" /><ellipse
       style="fill:#565656;fill-opacity:1;fill-rule:evenodd;stroke:#000000;stroke-width:0.916216;stroke-linecap:round;stroke-linejoin:round;stroke-miterlimit:20;stroke-dasharray:none;stroke-opacity:1"
       id="path2"
       cx="223.03494"
       cy="133.47816"
       rx="3.5899267"
       ry="5.3912363" /><ellipse
       style="fill:#cd6d81;fill-opacity:1;fill-rule:evenodd;stroke:#000000;stroke-width:0.916216;stroke-linecap:round;stroke-linejoin:round;stroke-miterlimit:20;stroke-dasharray:none;stroke-opacity:1"
       id="ellipse3"
       cx="221.83406"
       cy="133.36899"
       rx="3.5899267"
       ry="5.3912363" /><path
       id="ellipse4"
       style="fill:#ffffff;fill-opacity:0.2;fill-rule:evenodd;stroke:none;stroke-width:0.74349;stroke-linecap:round;stroke-linejoin:round;stroke-miterlimit:20;stroke-dasharray:none;stroke-opacity:1"
       d="m 223.21954,129.60454 a 2.8151127,4.5272207 0 0 1 0.51615,2.60943 2.8151127,4.5272207 0 0 1 -2.81505,4.52835 2.8151127,4.5272207 0 0 1 -1.41212,-0.61178 2.8151127,4.5272207 0 0 0 2.28971,1.90746 2.8151127,4.5272207 0 0 0 2.81505,-4.52672 2.8151127,4.5272207 0 0 0 -1.39374,-3.90674 z" /><path
       id="path6"
       style="fill:#ffffff;fill-opacity:0.333333;stroke:none;stroke-width:1px;stroke-linecap:butt;stroke-linejoin:miter;stroke-opacity:1"
       d="m 302.88477,121.79297 c -8.08852,0.0428 -16.8368,0.12969 -25.85743,0.22265 v 4.8711 c 8.88277,-0.16306 17.32616,-0.29648 25.85743,-0.41211 z m -25.85743,20.57812 v 4.14453 c 8.86153,0.31535 17.61835,0.56924 25.85743,0.73047 v -4.03711 c -8.40362,-0.17976 -17.21139,-0.47444 -25.85743,-0.83789 z" /><path
       id="path9"
       style="fill:#ffffff;fill-opacity:0.8;stroke:none;stroke-width:1px;stroke-linecap:butt;stroke-linejoin:miter;stroke-opacity:1"
       d="m 349.84766,122.28516 v 4.54687 c 4.99002,0.16021 8.75394,0.28812 10.03515,0.33594 v -4.51172 c -2.0782,-0.092 -5.27507,-0.21972 -10.03515,-0.37109 z m 10.03515,18.57812 c -2.15825,0.35363 -5.71876,0.88495 -10.03515,1.32617 v 4.19141 c 4.37222,-0.43723 7.88699,-1.03703 10.03515,-1.44336 z" /><path
       id="path10"
       style="fill:#0c0c0c;fill-opacity:0.198718;stroke:none;stroke-width:1px;stroke-linecap:butt;stroke-linejoin:miter;stroke-opacity:1"
       d="m 338.88672,121.99805 v 4.53125 c 3.93937,0.0977 6.57516,0.16272 10.03516,0.27148 v -4.53906 c -2.96223,-0.0918 -6.33107,-0.18386 -10.03516,-0.26367 z m 10.03516,20.28125 c -2.18704,0.21054 -4.50267,0.39496 -6.87696,0.5039 -1.05176,0.0483 -2.09569,0.0687 -3.1582,0.10938 v 4.08398 c 1.16807,-0.036 2.31825,-0.0764 3.47266,-0.10742 2.28465,-0.0613 4.48214,-0.21877 6.5625,-0.41016 z" /><path
       id="path11"
       style="fill:#ffffff;fill-opacity:1;stroke:none;stroke-width:1px;stroke-linecap:butt;stroke-linejoin:miter;stroke-opacity:1"
       d="m 296.58398,121.83203 c -3.31334,0.023 -6.56652,0.0511 -10.03515,0.082 v 4.80469 c 3.43318,-0.0585 6.66862,-0.12073 10.03515,-0.17187 z m -10.03515,20.9082 v 4.09375 c 3.43672,0.1064 6.70507,0.18756 10.03515,0.26954 v -4.0254 c -3.30584,-0.0929 -6.67644,-0.21662 -10.03515,-0.33789 z" /><path
       style="fill:none;fill-opacity:1;stroke:#000000;stroke-width:2;stroke-linecap:butt;stroke-linejoin:miter;stroke-dasharray:none;stroke-opacity:1"
       d="m 215.21984,122.81381 v 20.88127 c 0,0 71.3601,4.01453 106.87222,3.7291 5.50534,-0.0443 13.12147,-0.36416 20.26735,-0.55592 10.5188,-0.28229 19.73066,-2.36491 19.73066,-2.36491 v -4.01415 c 0,0 -9.62316,1.81626 -20.04498,2.29448 -7.0261,0.3224 -14.47701,0.46646 -19.88266,0.56241 -28.73759,0.51009 -86.25432,-3.0862 -86.25432,-3.0862 0,0 -6.71457,-0.12502 -6.63877,-6.63877 0.0625,-5.36804 5.75765,-5.88556 5.75765,-5.88556 0,0 57.43188,-1.3178 86.14969,-1.47219 13.43175,-0.0722 41.06002,0.98253 41.06002,0.98253 l 0.15439,-4.47731 c 0,0 -17.98917,-0.91289 -41.53521,-1.01063 -31.73354,-0.13172 -105.63604,1.05585 -105.63604,1.05585 z"
       id="path7"
       sodipodi:nodetypes="ccssccsscscsccsc" /></g></svg>
