<?xml version="1.0" encoding="UTF-8" standalone="no"?>
<svg
   width="100%"
   height="100%"
   viewBox="0 0 400 400"
   version="1.1"
   xml:space="preserve"
   style="fill-rule:evenodd;clip-rule:evenodd;stroke-linejoin:round;stroke-miterlimit:2;"
   id="svg31"
   sodipodi:docname="VulcanHeaddress.svg"
   inkscape:version="1.3.2 (091e20e, 2023-11-25)"
   xmlns:inkscape="http://www.inkscape.org/namespaces/inkscape"
   xmlns:sodipodi="http://sodipodi.sourceforge.net/DTD/sodipodi-0.dtd"
   xmlns="http://www.w3.org/2000/svg"
   xmlns:svg="http://www.w3.org/2000/svg"><defs
   id="defs31">
        
    
            
            
            
            
            
            
            
            
            
            
            
            
            
            
            
            
            
            
            
            
            
            
            
            
        
                
            
                
            
                
            
                
            
                
            
                
            
                
            
                
            
                
            
                
            
                
            
                
            
                
            
                
            
                
            
                
            
                
            
                
            
                
            
                
            
                
            
                
            
                
            
                
            
                    
                
                    
                
                    
                
                    
                
                    
                
                    
                </defs><sodipodi:namedview
   id="namedview31"
   pagecolor="#ffffff"
   bordercolor="#666666"
   borderopacity="1.0"
   inkscape:showpageshadow="2"
   inkscape:pageopacity="0.0"
   inkscape:pagecheckerboard="0"
   inkscape:deskcolor="#d1d1d1"
   inkscape:zoom="1.8575"
   inkscape:cx="200"
   inkscape:cy="200"
   inkscape:window-width="1816"
   inkscape:window-height="982"
   inkscape:window-x="2642"
   inkscape:window-y="110"
   inkscape:window-maximized="0"
   inkscape:current-layer="layer2" />
    
<g
   inkscape:groupmode="layer"
   id="layer2"
   inkscape:label="Headdress"><path
     d="m 187.5382,85.352587 c -1.464,-3.806658 -2.04933,-20.202617 4.39199,-28.401263 6.44132,-8.198646 35.72124,-33.08525 74.66248,-33.08525 38.94124,0 69.39183,25.765268 74.36915,34.842579 4.97732,9.075977 11.83997,33.667916 11.83997,33.667916 z"
     style="fill-rule:nonzero;clip-rule:evenodd;stroke-linejoin:round;stroke-miterlimit:2;fill:#c14242;stroke-width:1.33333"
     id="path1" /><path
     d="m 189.07953,83.416458 161.03293,6.843983 c -1.91333,-6.569317 -7.04665,-23.554608 -10.90531,-30.59059 -5.10532,-9.30931 -35.16791,-33.803916 -72.61581,-33.803916 -39.20791,0 -68.0505,25.909269 -73.08915,32.321253 -5.50532,7.005316 -5.36666,20.447949 -4.42266,25.22927 m 163.72226,10.959973 c -0.028,0 -0.0573,-0.0013 -0.0853,-0.0027 L 187.45287,87.351115 c -0.796,-0.03467 -1.496,-0.537332 -1.78266,-1.279997 -1.56667,-4.07599 -2.40267,-21.33328 4.68665,-30.354591 5.61732,-7.150648 35.01991,-33.850582 76.23448,-33.850582 39.08923,0 70.70382,25.998602 76.12381,35.881244 5.03065,9.171977 11.7293,33.078584 12.01197,34.090581 0.172,0.617332 0.0387,1.278664 -0.35867,1.781329 -0.38,0.478666 -0.95866,0.757332 -1.56666,0.757332"
     style="fill-rule:nonzero;clip-rule:evenodd;stroke-linejoin:round;stroke-miterlimit:2;stroke-width:1.33333;fill:#000000;fill-opacity:1"
     id="path3" /><path
     id="path4"
     style="fill-rule:nonzero;clip-rule:evenodd;stroke-linejoin:round;stroke-miterlimit:2;fill:#c14242;stroke-width:1.33333"
     d="M 201.15234 86.962891 C 201.15234 86.962891 193.52642 93.471267 187.53711 95.308594 C 181.54914 97.14592 180.95069 133.07787 179.19336 152.8418 C 178.12536 164.86042 173.43361 176.19887 167.9043 186.79883 C 164.15066 193.99704 160.2709 200.91409 160.92773 208.39062 C 155.12931 211.18348 146.43975 214.45111 147.02344 220.36719 C 147.44611 224.66983 149.89972 228.60119 152.23438 232.47852 C 153.9557 235.33583 154.98945 238.88681 156.68945 241.9668 C 160.36677 248.63211 165.42992 255.24209 171.61523 260.91406 C 176.73255 265.60738 179.87589 268.15584 186.0332 271.0625 C 192.56785 274.14649 199.27498 277.10397 206.48828 279.66797 C 216.93758 283.38262 231.72838 283.30656 243.51367 283.58789 C 256.54963 283.89855 270.25692 283.07153 282.1582 279.43555 C 283.78486 278.93822 285.9132 278.42261 287.25586 277.61328 C 288.59586 276.80528 288.25333 275.41813 288.86133 274.35547 C 289.304 273.58481 290.59245 273.20084 291.56445 272.82617 C 294.01511 271.87951 296.82627 271.39599 299.18359 270.36133 C 301.74492 269.23733 302.11461 267.28261 302.97461 265.11328 L 298.72266 269.75195 C 300.04798 268.38796 300.677 267.44081 301.48633 265.27148 C 303.05433 261.07017 305.86886 256.18952 305.91016 251.76953 C 305.94616 247.76822 302.69527 243.85758 299.86328 240.79492 C 297.33928 238.0656 294.45484 236.57197 290.99219 235.16797 C 288.75486 234.2613 287.06055 232.70564 284.97656 231.68164 C 282.58723 230.50831 279.64011 230.14805 277.05078 229.66406 C 273.37879 228.97739 271.54275 229.60238 268.21875 230.73438 C 262.03478 232.84236 256.93648 233.79753 250.3125 231.9082 C 241.4072 229.36555 230.89202 226.24757 223.60938 221.40625 C 223.41763 221.27884 223.24236 221.13044 223.05273 221 C 219.94577 217.59388 218.32213 213.39075 217.7793 208.68555 C 216.74997 199.74958 214.8088 190.80892 213.49414 181.87695 C 212.41814 174.56232 212.1939 167.17444 211.25391 159.86914 C 211.25257 159.86514 205.54481 115.5121 216.52344 128.24805 C 227.5034 140.984 231.45695 128.24821 238.04492 115.07227 C 244.63291 101.89631 246.82909 93.990234 263.95703 93.990234 L 201.15234 86.962891 z M 201.66797 196.15039 C 201.9957 196.59099 202.35797 197.03545 202.52148 197.2793 C 203.32698 198.47982 204.175 199.65366 205.00391 200.83789 C 203.68903 199.35415 202.47393 197.82003 201.66797 196.15039 z " /><path
     id="path7"
     style="fill-rule:nonzero;clip-rule:evenodd;stroke-linejoin:round;stroke-miterlimit:2;stroke-width:1.33333;fill:#000000;fill-opacity:1"
     d="M 200.91211 194.53125 C 200.64289 195.74589 200.67059 197.00515 200.83398 198.25586 C 201.21184 198.82958 201.5752 199.40925 201.82617 200.0293 C 202.44617 201.56263 202.31881 203.49877 202.52148 205.13477 C 202.98281 208.84141 203.49597 212.59062 204.30664 216.33594 C 204.31353 216.36774 204.32315 216.39982 204.33008 216.43164 C 204.48155 216.99902 204.62551 217.56755 204.77734 218.13477 C 205.20676 219.74135 206.71813 223.1457 206.89062 225.21094 C 208.60068 229.66619 211.03178 233.96066 214.73242 237.62109 C 225.06971 247.84772 242.85344 254.49211 258.88672 256.77344 C 265.3067 257.68677 271.92333 257.94241 278.41797 257.94141 C 272.34732 257.69741 265.34538 255.98616 259.30273 254.91016 C 251.78809 253.57283 244.44115 251.35186 237.70117 248.5332 C 225.44255 243.40789 215.44813 236.68037 212.02148 225.81641 C 211.21615 223.26575 210.19263 220.72157 210.11133 218.01758 C 213.07799 218.35491 215.08202 220.27387 217.52734 221.64453 C 219.994 223.02586 222.80357 223.35605 225.35156 224.60938 C 233.17553 228.4547 241.23793 231.16651 249.61523 233.5625 C 255.82455 235.33983 261.22263 234.25273 267.33594 233.05273 C 269.84793 232.5594 273.25034 231.57878 275.76367 232.41211 C 280.34232 233.93211 272.18207 239.06092 270.19141 240.04492 C 266.68476 241.77825 262.83626 242.62353 258.71094 242.54883 C 255.05362 242.48349 252.31183 240.70684 248.83984 240.21484 C 252.1825 244.12683 263.0067 244.86172 268.41602 244.40039 C 272.21467 244.07639 276.32007 242.67331 279.02539 240.44531 C 281.33739 238.53999 281.59649 234.74912 284.25781 233.45312 C 286.19647 234.74645 287.85034 235.8221 290.125 236.74609 C 293.44633 238.09676 295.95703 239.4187 298.17969 241.83203 C 300.92634 244.81602 303.75484 248.33506 303.71484 251.62305 C 303.68017 254.45237 302.08664 256.78773 301.58398 259.51172 C 301.13731 261.93572 302.0627 264.66978 300.60938 266.92578 C 299.32539 268.91644 295.69695 270.17833 293.1543 270.48633 C 290.51698 270.805 287.98139 271.48502 285.30273 271.81836 C 278.79343 272.62769 272.09147 271.90998 265.54883 271.33398 C 263.44483 271.14864 261.34661 270.94409 259.25195 270.71875 C 251.51465 269.88275 243.85614 268.74152 236.4375 267.13086 C 229.44687 265.61353 222.50735 264.01586 216.2207 261.5332 C 208.96606 258.66922 203.15375 252.94985 196.78711 248.64453 C 200.9111 252.62719 204.72677 257.23219 209.85742 259.71484 C 216.74672 263.04683 224.32883 266.11662 231.99414 268.72461 C 245.32743 273.26726 260.49124 274.83779 275.36719 275.56445 C 279.0645 275.74579 282.89228 275.83858 286.29492 274.91992 C 286.29359 275.33991 286.39414 275.94775 286.13281 276.34375 C 285.80614 276.83575 285.44403 276.84231 284.83203 277.07031 C 283.53736 277.55164 282.29579 278.08177 280.95312 278.50977 C 278.14381 279.40842 275.16799 280.06126 272.13867 280.55859 C 265.81336 281.59725 259.25436 281.96678 252.73438 282.05078 C 249.69039 282.09081 246.64484 282.06028 243.60352 281.98828 C 242.46352 281.96158 241.2948 281.93806 240.10547 281.91406 C 229.07084 281.68873 216.57239 281.43461 207.59375 278.25195 C 201.45111 276.07464 195.20802 273.45342 187.38672 269.77344 C 182.68407 267.56011 180.09906 266.07055 176.17773 262.36523 C 175.23908 261.47724 174.28568 260.57658 173.29102 259.66992 C 167.48837 254.36861 162.44649 247.97969 158.70117 241.23438 C 157.94117 239.86639 157.29453 238.33847 156.67188 236.86914 C 155.93055 235.12248 155.16802 233.3255 154.19336 231.71484 L 153.93945 231.29688 C 151.76347 227.71023 149.5391 224.0425 149.14844 220.20117 C 148.93244 218.08384 150.44819 216.26551 152.35352 214.85352 C 153.26018 214.18019 157.28891 211.04055 158.12891 212.69922 C 158.44224 213.31655 158.30164 214.21958 158.30664 214.90625 C 158.32397 217.21424 158.88867 219.4108 159.47266 221.68945 C 160.31666 224.98011 161.17208 228.27637 162.44141 231.56836 C 163.31874 233.84302 164.67603 236.0682 165.91602 238.26953 C 166.63068 239.53886 167.50581 240.57352 168.61914 241.63086 C 168.73822 241.74435 168.85218 241.87541 168.97266 241.99414 C 167.87323 240.31401 167.08659 238.4545 166.32227 236.74414 C 165.12761 234.06948 163.63638 231.58231 162.90039 228.84766 C 162.03772 225.64367 161.43258 222.3275 161.39258 219.10352 C 161.36551 216.96159 161.04259 214.69286 161.79297 212.63672 C 160.4997 208.6763 160.6322 204.90317 161.56641 201.20703 C 160.68871 201.41718 159.86212 201.75364 159.12891 202.31641 C 157.20892 203.78973 156.68233 206.10735 155.40234 208.02734 C 154.08102 210.00733 153.33986 210.10483 151.39453 211.27148 C 148.10654 213.24481 144.49248 216.2885 144.89648 220.53516 C 145.32181 224.98714 147.69492 228.94823 150.01758 232.82422 L 150.26953 233.24414 C 151.12419 234.6708 151.80016 236.29606 152.52148 238.02539 C 153.16815 239.57472 153.83988 241.18251 154.67188 242.70117 C 158.5652 249.80381 163.83762 256.55075 169.93359 262.16406 C 170.90959 263.06272 171.84564 263.9547 172.76562 264.83203 C 176.74828 268.62535 179.43651 269.87876 184.67383 272.35742 C 192.65914 276.13608 199.05492 278.83456 205.37891 281.08789 C 215.27487 284.61454 228.37168 284.87986 239.93164 285.11719 C 241.1183 285.14119 242.28259 285.16666 243.41992 285.19336 C 244.83459 285.22666 246.35737 285.24709 247.9707 285.24609 C 256.57733 285.24343 265.25171 284.68892 273.54102 283.18359 C 279.13433 282.16759 284.32469 280.70538 289.02734 278.52539 C 290.27533 277.94805 290.65883 277.2517 290.9375 276.23438 C 291.05749 275.79171 291.00916 274.89203 291.42383 274.55469 C 294.54382 272.01737 300.24698 272.78228 303.18164 270.01562 C 305.4723 267.85431 304.12402 264.49788 304.91602 261.97656 C 305.99867 258.52724 308.08417 255.5921 308.10547 251.91211 C 308.1308 247.45746 304.78367 243.25371 301.54102 239.76172 C 298.4437 236.42439 294.40674 234.56256 290.21875 233.00391 C 285.91343 231.39991 281.87413 228.54603 277.27148 227.85938 C 273.0595 227.23271 268.66585 229.02295 264.64453 229.98828 C 259.98589 231.10695 255.7005 231.59771 251.00586 230.26172 C 243.51255 228.12972 232.27877 224.93188 224.9668 220.08789 C 223.13905 218.87721 221.38943 217.48118 219.75781 215.98633 C 221.2558 219.26361 223.58228 222.11868 227.00586 224.36523 C 223.93786 222.35191 220.79089 220.44445 217.87891 218.20312 C 214.72692 215.7778 212.63861 211.77601 210.39062 208.55469 C 208.62397 206.02537 206.85908 203.49745 205.09375 200.9668 C 204.23642 199.7388 203.35615 198.5233 202.52148 197.2793 C 202.13615 196.70464 200.75877 195.22458 200.91211 194.53125 z M 168.97266 241.99414 C 169.39796 242.64408 169.86 243.27268 170.40039 243.84766 C 170.10868 243.16299 169.54287 242.55608 168.97266 241.99414 z " /><path
     id="path8"
     style="fill-rule:nonzero;clip-rule:evenodd;stroke-linejoin:round;stroke-miterlimit:2;opacity:0.2;stroke-width:1.33333;fill:#000000;fill-opacity:1"
     d="M 247.79492 25.800781 C 218.43639 31.794087 197.28566 50.135203 191.92969 56.951172 C 185.48837 65.149802 186.07506 81.546865 187.53906 85.353516 L 254.0918 88.181641 C 255.91446 84.998988 256.01378 81.682088 253.20312 78.023438 C 246.31649 69.058143 241.83631 60.149145 240.82031 48.394531 C 240.03898 39.334572 242.83362 31.904754 247.79492 25.800781 z M 201.15234 86.962891 C 201.15234 86.962891 193.5264 93.471271 187.53711 95.308594 C 181.54916 97.145916 180.95069 133.07791 179.19336 152.8418 C 178.12536 164.86038 173.43359 176.19889 167.9043 186.79883 C 164.15066 193.99702 160.27092 200.91411 160.92773 208.39062 C 155.12933 211.18229 146.43975 214.44988 147.02344 220.36719 C 147.4461 224.66848 149.89972 228.6012 152.23438 232.47852 C 153.95568 235.33715 154.98946 238.88681 156.68945 241.9668 C 160.36678 248.63342 165.42995 255.24077 171.61523 260.91406 C 176.73255 265.60738 179.87591 268.15523 186.0332 271.06055 C 192.56785 274.14452 199.27499 277.10202 206.48828 279.66602 C 212.09227 281.65798 218.51909 282.29212 224.81641 282.68945 C 233.73369 283.25208 243.08146 282.95942 252.08008 282.60742 C 244.17346 279.03146 234.57091 278.1002 226.43359 274.9082 C 221.6283 273.02424 216.26268 271.77944 211.88672 269.43945 C 208.64406 267.70612 199.47702 265.45591 204.93164 262.41992 C 208.73965 260.30034 213.59209 261.27631 218.30469 262.89258 C 216.90273 262.26227 215.51078 261.64468 214.11133 261.0957 C 207.96068 258.6824 201.278 255.2058 200.25 248.89648 C 199.43533 243.89652 198.50019 236.99899 204.02148 233.375 C 208.6268 230.351 214.71817 235.94121 217.6875 238.33984 C 219.72483 239.98783 221.76895 241.86553 224.09961 243.26953 C 226.01561 244.42286 228.45243 244.95883 230.17773 246.4375 C 228.2391 242.88684 226.39219 239.15458 225.99219 235.28125 C 225.80019 233.43326 225.81889 231.4119 226.82422 229.69727 C 227.11488 229.20127 230.56722 225.47239 231.42188 226.26172 C 229.05752 224.07716 225.73617 222.55629 222.88477 220.79883 C 219.89337 217.42779 218.31174 213.30066 217.7793 208.68555 C 216.74997 199.7496 214.8088 190.8089 213.49414 181.87695 C 212.41814 174.56234 212.1939 167.17576 211.25391 159.86914 C 210.56191 154.49318 210.10619 149.06638 209.88086 143.65039 C 209.71952 139.80107 209.63367 135.89385 210.09766 132.06055 C 210.42566 129.34989 211.03143 126.69661 212.24609 124.22461 C 213.26876 122.14729 215.08899 122.38276 217.01562 121.85742 C 218.95162 121.32942 220.73106 120.28462 222.26172 119.00195 C 225.81638 116.02732 229.15178 111.55513 231.17578 107.39648 C 231.88244 105.94318 232.44173 104.40016 232.67773 102.79883 C 232.8404 101.6975 232.88794 100.08381 234.19727 99.646484 C 238.72389 98.134494 243.57462 98.344119 248.19727 97.328125 C 250.9199 96.730796 253.35885 95.336959 256.02148 94.654297 C 258.52014 94.014302 261.38637 93.990234 263.95703 93.990234 L 201.15234 86.962891 z M 218.30469 262.89258 C 221.95571 264.53405 225.69398 266.26244 229.95508 267.10156 C 226.8049 266.38072 222.61295 264.37018 218.30469 262.89258 z M 280.98438 230.12109 C 280.08271 230.12493 279.17627 230.22064 278.34961 230.30664 C 275.77362 230.57331 273.08829 229.96331 270.54297 230.55664 C 268.39897 231.0553 266.97228 232.70305 264.62695 232.62305 C 270.23227 232.81638 281.99822 237.323 271.18359 240.375 C 265.32361 242.02966 258.10563 241.72136 249.375 240.9707 C 254.51898 244.88935 258.18913 250.09171 265.89844 249.73438 C 273.37574 249.38638 280.55846 246.46021 284.17578 240.96289 C 285.73711 238.58956 286.23586 235.87368 287.47852 233.42969 C 287.69319 233.00703 284.14932 230.6817 283.58398 230.48438 C 282.78266 230.20438 281.88604 230.11726 280.98438 230.12109 z " /><path
     d="m 212.65147,228.2097 c 0.003,0 0.004,0.001 0.007,0.001 -0.003,0 -0.005,-0.001 -0.007,-0.001 m 7.11465,-19.75462 c -0.616,-5.35465 -1.568,-10.76797 -2.48666,-16.00396 -0.628,-3.56666 -1.27467,-7.25465 -1.80666,-10.86531 -0.57467,-3.90799 -0.91067,-7.93464 -1.236,-11.82663 -0.27733,-3.32399 -0.564,-6.76132 -1,-10.14798 -1.94799,-15.09729 -1.94133,-29.66526 -0.012,-31.62392 0.22933,0.0973 0.80933,0.43467 1.784,1.56533 3.79599,4.40266 7.22398,6.33465 10.47197,5.89999 5.31999,-0.708 8.52798,-7.39865 12.2413,-15.1453 0.68,-1.41866 1.37867,-2.87733 2.112,-4.34132 0.58533,-1.17067 1.13466,-2.3 1.66533,-3.38533 5.38798,-11.04664 8.09198,-16.590622 22.45728,-16.590622 1.06133,0 1.93732,-0.829331 1.99732,-1.889328 0.0587,-1.058664 -0.71999,-1.979995 -1.77466,-2.098662 l -62.80518,-7.026649 c -0.54666,-0.06 -1.09866,0.106667 -1.51999,0.465332 -0.0733,0.06267 -7.38665,6.262651 -12.90264,7.954647 -5.37732,1.649329 -6.83198,15.374632 -8.67197,44.123892 -0.35334,5.51865 -0.68667,10.73064 -1.07867,15.14529 -1.69066,19.01862 -13.92663,39.08124 -24.72127,56.78386 0,0 -0.46667,0.76267 -0.46667,0.764 -4.71598,7.72931 -4.77465,16.63996 -0.17333,24.43061 2.37466,4.01998 5.68532,6.61865 8.79598,9.9333 3.43999,3.66533 6.94798,7.39465 11.27331,10.03198 -2.81866,-0.92133 -5.02399,-7.37998 -6.85065,-9.68931 -1.81733,-2.29866 -4.44933,-3.75866 -6.06932,-6.22265 -1.488,-2.25866 -3.13199,-4.87066 -4.38932,-7.31598 -3.216,-6.25865 -2.82666,-13.09064 0.82799,-19.08529 l 0.46667,-0.764 c 11.02264,-18.07595 23.51727,-38.56257 25.2906,-58.51318 0.396,-4.46266 0.732,-9.69865 1.08667,-15.24263 0.86799,-13.56664 2.48399,-38.821239 5.85198,-40.555901 5.31065,-1.627996 11.59597,-6.503984 13.65063,-8.174647 l 48.83855,5.46532 c -6.26132,3.099992 -9.08131,8.881308 -12.7093,16.317288 -0.524,1.07467 -1.068,2.19067 -1.648,3.34933 -0.74266,1.484 -1.45066,2.96399 -2.13999,4.40132 -3.07866,6.42132 -5.98666,12.48664 -9.16265,12.9093 -1.77333,0.22934 -4.10799,-1.29199 -6.91331,-4.54665 -2.30933,-2.67733 -4.47466,-3.57199 -6.43999,-2.65066 -2.21199,1.03599 -4.38265,4.18799 -3.70665,19.69861 0.35733,8.18398 1.37599,16.13596 1.37733,16.13596 0.42399,3.29466 0.70666,6.68665 0.98133,9.96665 0.32933,3.95465 0.67066,8.04398 1.26399,12.07597 0.54,3.66665 1.192,7.38264 1.824,10.97597 0.90933,5.17865 1.85066,10.53331 2.45333,15.77063 0.38799,3.37065 1.18266,6.88265 2.87865,9.85197 0.824,1.444 1.91467,2.82533 3.388,3.64666 0.79733,0.444 3.72132,2.14533 4.50265,1.36 0.928,-0.93334 -1.22533,-2.36133 -1.80399,-2.82266 -1.41333,-1.13067 -1.844,-2.304 -2.46533,-4.00933 -0.97467,-2.66932 -2.19733,-5.63998 -2.52666,-8.48531"
     style="fill-rule:nonzero;clip-rule:evenodd;stroke-linejoin:round;stroke-miterlimit:2;stroke-width:1.33333;fill:#000000;fill-opacity:1"
     id="path13" /><path
     d="m 356.10081,98.163071 c 0,0 -24.26523,-2.635818 -37.64321,-0.879618 l 0.63996,-13.175281 c 0,0 6.84845,-1.75602 25.61842,-0.87799 18.76997,0.87803 11.38483,14.932889 11.38483,14.932889"
     style="fill-rule:nonzero;clip-rule:evenodd;stroke-linejoin:round;stroke-miterlimit:2;fill:#fbb03b;stroke-width:1.33333"
     id="path14" /><path
     d="m 355.60444,96.812025 c 0.50533,-1.19733 1.52133,-4.12799 0.65733,-6.679983 -0.788,-2.330661 -3.43599,-5.187987 -11.57597,-5.56932 -17.28396,-0.810664 -13.79863,0.639999 -24.31461,0.853331 l -0.50666,10.390641 c 4.34399,-0.333332 13.23597,-0.463999 24.37061,-0.463999 z m 0.49733,2.683993 c -0.008,0 -0.0147,0 -0.0227,-0.0013 -0.79734,-0.02533 -24.32394,-2.611994 -37.44791,-0.887998 -0.38933,0.048 -0.78533,-0.07333 -1.07733,-0.342666 -0.29067,-0.266666 -0.44667,-0.649331 -0.428,-1.04533 l 0.64133,-13.175968 c 0.0347,-0.698664 0.604,-1.25333 1.304,-1.267996 0.83733,-0.01733 7.09731,-1.749329 25.67593,-0.877331 7.29465,0.341332 11.73731,2.726659 13.20264,7.091982 1.59599,4.749321 -0.99067,9.762642 -1.10133,9.973308 -0.17734,0.335999 -0.45334,0.533332 -0.74667,0.533332"
     style="fill-rule:nonzero;clip-rule:evenodd;stroke-linejoin:round;stroke-miterlimit:2;stroke-width:1.33333;fill:#000000;fill-opacity:1"
     id="path15" /><path
     id="path18"
     style="fill-rule:nonzero;clip-rule:evenodd;stroke-linejoin:round;stroke-miterlimit:2;display:inline;fill:#e6e6e6;stroke-width:1.33333"
     d="M 276.36914 0 C 276.90582 24.245683 286.55078 89.054688 286.55078 89.054688 L 318.80664 99.273438 L 319.77734 82.861328 C 319.77734 82.861328 309.62777 39.274498 293.2832 0 L 276.36914 0 z M 350.625 0 C 348.68843 6.4981751 346.36428 16.654972 343.36133 31.765625 C 337.39201 61.804187 332.6582 82.861328 332.6582 82.861328 L 335.33594 98.964844 L 354.06445 93.390625 C 354.06445 93.390625 359.81182 13.943727 360.78906 0 L 350.625 0 z " /><path
     id="path19"
     style="fill-rule:nonzero;clip-rule:evenodd;stroke-linejoin:round;stroke-miterlimit:2;fill:#7d7d7d;stroke-width:1.33333"
     d="M 275.0332 0 C 275.18707 7.0886524 276.14304 19.599575 278.89258 42.261719 C 281.7499 65.813612 285.19577 89.019953 285.23047 89.251953 C 285.30647 89.755952 285.66249 90.172839 286.14648 90.326172 L 318.40234 100.54492 C 318.53434 100.58632 318.67197 100.60742 318.80664 100.60742 C 319.07464 100.60742 319.33716 100.52905 319.5625 100.37305 C 319.90116 100.14105 320.11272 99.762846 320.13672 99.353516 L 321.10938 82.941406 C 321.11606 82.813406 321.10417 82.684546 321.07617 82.560547 C 320.96737 82.094418 310.80357 38.845232 294.71875 0 L 291.8418 0 C 307.54648 37.600935 317.6852 79.80859 318.43555 82.978516 L 317.57617 97.486328 L 287.74805 88.037109 C 280.65654 40.285693 278.06963 12.51357 277.75586 0 L 275.0332 0 z M 349.2207 0 C 347.35811 6.3470745 345.09503 16.208782 342.05469 31.507812 C 336.1587 61.182346 331.40736 82.360981 331.35938 82.570312 C 331.32198 82.738312 331.31575 82.911364 331.34375 83.082031 L 334.01953 99.183594 C 334.0822 99.560924 334.30491 99.89304 334.62891 100.0957 C 334.84357 100.22907 335.08794 100.29883 335.33594 100.29883 C 335.46261 100.29883 335.59084 100.27949 335.71484 100.24219 L 354.44531 94.669922 C 354.9773 94.511255 355.35323 94.03966 355.39453 93.486328 C 355.45932 92.58423 361.1673 13.707258 362.12695 0 L 359.45508 0 C 358.56308 12.748145 353.47023 83.143939 352.80273 92.376953 L 336.40234 97.255859 L 334.01758 82.900391 C 334.57358 80.408401 339.11529 59.981884 344.66992 32.027344 C 345.97753 25.447908 349.08826 9.8117072 352.02344 0 L 349.2207 0 z " /><path
     d="m 317.80192,96.185727 c 0,0 -119.91914,-2.633766 -133.99404,-0.878408 l 0.67716,-13.176256 c 0,0 88.03704,-1.755671 116.22021,-0.877379 28.18596,0.877245 17.09667,14.932043 17.09667,14.932043"
     style="fill-rule:nonzero;clip-rule:evenodd;stroke-linejoin:round;stroke-miterlimit:2;fill:#fbb03b;stroke-width:1.33333"
     id="path20" /><path
     d="m 317.80237,95.720178 c 0,0 -119.91912,-1.937152 -133.993,-0.644611 l 0.67567,-9.686057 c 0,0 88.03725,-1.290279 116.22094,-0.645607 28.18492,0.646104 17.09639,10.976275 17.09639,10.976275"
     style="fill-rule:nonzero;clip-rule:evenodd;stroke-linejoin:round;stroke-miterlimit:2;opacity:0.2;stroke-width:1.33333;fill:#000000;fill-opacity:1"
     id="path21" /><path
     d="m 210.92881,93.366967 c 37.07457,0 97.86776,1.28933 106.1264,1.46933 0.75867,-1.197331 2.28533,-4.129323 0.988,-6.681317 -1.184,-2.330661 -5.15999,-5.187987 -17.38262,-5.567986 -25.95461,-0.810665 -103.77441,0.639998 -114.83838,0.851998 l -0.532,10.39064 c 4.56932,-0.333332 13.92396,-0.462665 25.6386,-0.462665 m 106.87307,4.15199 h -0.032 c -1.19867,-0.02667 -119.97037,-2.613327 -133.777,-0.889332 -0.41067,0.048 -0.82667,-0.07333 -1.13333,-0.341332 -0.30667,-0.267999 -0.47067,-0.650665 -0.45067,-1.045331 l 0.67467,-13.175967 c 0.036,-0.699998 0.63599,-1.25333 1.37199,-1.267997 0.88,-0.01733 88.39845,-1.749329 116.29705,-0.877331 10.9533,0.339999 17.62395,2.72666 19.82528,7.090649 2.39733,4.749322 -1.48666,9.762642 -1.65466,9.973309 -0.26534,0.335999 -0.68,0.533332 -1.12133,0.533332"
     style="fill-rule:nonzero;clip-rule:evenodd;stroke-linejoin:round;stroke-miterlimit:2;stroke-width:1.33333;fill:#000000;fill-opacity:1"
     id="path23" /><path
     d="m 339.49782,80.107534 10.19331,9.530642 -12.07731,18.926624 -21.05728,0.30933 -15.17329,-20.091951 15.19863,-9.350644 z"
     style="fill-rule:nonzero;clip-rule:evenodd;stroke-linejoin:round;stroke-miterlimit:2;fill:#fbb03b;stroke-width:1.33333"
     id="path24" /><path
     d="m 333.40983,86.23312 5.74799,5.374653 -6.81065,10.671977 -11.87331,0.17466 -8.55598,-11.329303 8.57065,-5.27332 z"
     style="fill-rule:nonzero;clip-rule:evenodd;stroke-linejoin:round;stroke-miterlimit:2;opacity:0.2;stroke-width:1.33333;fill:#000000;fill-opacity:1"
     id="path25" /><path
     d="m 347.90046,89.922708 -8.77331,-8.491978 -22.03861,-0.649332 -13.83197,8.319979 13.91197,18.430623 19.66661,-0.28933 z M 315.53921,109.73599 300.36458,89.553376 c -0.47467,-0.602665 -0.40667,-1.434663 0.152,-1.861329 l 15.19996,-9.322643 c 0.232,-0.185333 0.524,-0.281333 0.82933,-0.271999 l 22.91594,0.674665 c 0.25867,0.004 0.52667,0.096 0.75067,0.249332 l 10.19331,9.55331 c 0.60266,0.434665 0.79733,1.24133 0.44266,1.829329 l -12.0773,18.823949 c -0.23467,0.408 -0.66667,0.66267 -1.13733,0.67067 l -21.05728,0.30933 h -0.02 c -0.392,0 -0.76533,-0.172 -1.01733,-0.472"
     style="fill-rule:nonzero;clip-rule:evenodd;stroke-linejoin:round;stroke-miterlimit:2;stroke-width:1.33333;fill:#000000;fill-opacity:1"
     id="path27" /><path
     d="m 208.91148,207.15549 c -7.89065,-7.50932 -10.35331,-20.57995 -13.24797,-30.73459 -1.28133,3.95865 1.64933,9.61197 2.708,13.5693 1.54399,5.77731 2.44799,11.7773 4.18132,17.50128 0.76133,2.51733 1.92133,7.24532 5.47865,6.39732 2.59333,-0.61733 3.25866,-4.30399 0.88,-6.73331"
     style="fill-rule:nonzero;clip-rule:evenodd;stroke-linejoin:round;stroke-miterlimit:2;stroke-width:1.33333;fill:#000000;fill-opacity:1"
     id="path28" /><path
     d="m 181.39021,150.05695 c 1.48,2.83733 -0.21333,10.82931 -0.34667,13.97997 -0.77466,18.32929 -2.38666,36.86524 0.988,55.04253 0.66933,3.60399 1.508,7.29865 3.12666,10.56664 -3.89199,-1.62533 -4.47599,-11.80931 -5.23332,-15.4653 -1.11866,-5.40932 -3.22132,-10.68397 -3.57866,-16.33862 -0.62133,-9.85864 -0.84,-21.28795 0.0653,-31.26526 0.44133,-4.86265 -0.32534,-10.03731 1.03866,-14.79196 0.60267,-2.09999 2.09466,-4.95465 3.88666,-1.82533 0.0187,0.032 0.036,0.064 0.0533,0.0973"
     style="fill-rule:nonzero;clip-rule:evenodd;stroke-linejoin:round;stroke-miterlimit:2;stroke-width:1.33333;fill:#000000;fill-opacity:1"
     id="path29" /></g></svg>
