<?xml version="1.0" encoding="UTF-8" standalone="no"?>
<!-- Created with Inkscape (http://www.inkscape.org/) -->

<svg
   version="1.1"
   id="svg19837"
   width="400"
   height="400"
   viewBox="0 0 400 400"
   sodipodi:docname="zaraniteMask.svg"
   inkscape:version="1.3.1 (91b66b0, 2023-11-16)"
   xmlns:inkscape="http://www.inkscape.org/namespaces/inkscape"
   xmlns:sodipodi="http://sodipodi.sourceforge.net/DTD/sodipodi-0.dtd"
   xmlns="http://www.w3.org/2000/svg"
   xmlns:svg="http://www.w3.org/2000/svg">
  <defs
     id="defs19841" />
  <sodipodi:namedview
     id="namedview19839"
     pagecolor="#ffffff"
     bordercolor="#666666"
     borderopacity="1.0"
     inkscape:showpageshadow="2"
     inkscape:pageopacity="0.0"
     inkscape:pagecheckerboard="0"
     inkscape:deskcolor="#d1d1d1"
     showgrid="false"
     inkscape:zoom="2.2275"
     inkscape:cx="199.77553"
     inkscape:cy="200"
     inkscape:window-width="2024"
     inkscape:window-height="1104"
     inkscape:window-x="2053"
     inkscape:window-y="88"
     inkscape:window-maximized="0"
     inkscape:current-layer="g19845">
    <inkscape:page
       x="0"
       y="0"
       id="page19843"
       width="400"
       height="400"
       margin="0"
       bleed="0" />
  </sodipodi:namedview>
  <g
     id="g19845"
     inkscape:groupmode="layer"
     inkscape:label="Page 1">
    <path
       d="m 378.43092,197.28187 c -2.14266,0 -4.31333,-0.63733 -6.37333,-1.91466 -10.672,-6.616 -19.94133,-7.46667 -25.47867,-7.97467 -1.548,-0.14267 -2.77066,-0.25467 -3.796,-0.46 -1.44533,-0.28933 -2.38133,-1.69333 -2.092,-3.13733 0.288,-1.444 1.69467,-2.38534 3.13734,-2.092 0.748,0.14933 1.90266,0.25466 3.23733,0.37733 6.00667,0.552 16.06,1.47467 27.80267,8.75467 2.43466,1.50933 4.79866,1.496 7.024,-0.044 3.848,-2.66134 6.02533,-9.00934 4.95466,-14.44934 -1.168,-5.92933 -5.812,-10.076 -13.07866,-11.672 -2.19334,-0.48266 -4.41734,-0.84 -6.65734,-1.01733 -4.75066,-0.37467 -9.62,0.10133 -14.02133,2.01467 -1.78,0.77333 -3.45867,1.768 -5.00133,2.944 -0.732,0.55733 -1.43334,1.15466 -2.104,1.784 -0.29067,0.272 -0.60267,0.764 -1.044,0.656 -0.40267,-0.0987 -0.69867,-0.64267 -0.95467,-0.93067 -0.35733,-0.4 -0.67067,-0.828 -1.02267,-1.23067 -0.26533,-0.30666 -0.68933,-0.63866 -0.868,-1.00666 -0.344,-0.71067 0.28134,-1.24 0.70934,-1.716 0.71333,-0.79334 1.52133,-1.5 2.368,-2.148 1.8,-1.38 3.95866,-2.46667 6.05466,-3.35467 2.08667,-0.88533 4.27467,-1.52 6.50534,-1.91867 5.692,-1.01866 11.564,-0.52 17.18133,0.71467 9.32933,2.05067 15.58533,7.828 17.16533,15.852 1.49734,7.608 -1.51066,15.96267 -7.15333,19.86533 -2.02667,1.40134 -4.24533,2.104 -6.49467,2.104"
       style="fill:#000000;fill-opacity:1;fill-rule:nonzero;stroke:none;stroke-width:1.33333"
       id="path19857" />
    <path
       d="m 378.42972,196.61001 c -2.024,0 -4.07466,-0.60267 -6.02133,-1.808 -10.80533,-6.70134 -20.172,-7.56 -25.76933,-8.07467 -1.528,-0.14 -2.73467,-0.25067 -3.72534,-0.44933 -1.084,-0.216 -1.78666,-1.26934 -1.56933,-2.352 0.21733,-1.084 1.26533,-1.78934 2.35333,-1.56934 0.78267,0.156 1.95334,0.264 3.308,0.388 5.948,0.54534 15.90267,1.46 27.51067,8.65734 3.34133,2.06933 6.06,1.10933 7.75467,-0.0627 4.11866,-2.848 6.36666,-9.35067 5.22933,-15.12533 -1.22267,-6.20667 -6.048,-10.53867 -13.588,-12.196 -1.47867,-0.32534 -2.97067,-0.59067 -4.472,-0.784 -5.004,-0.64267 -10.18533,-0.456 -14.97333,1.248 -1.904,0.67733 -3.72134,1.58666 -5.40534,2.70133 -0.704,0.46533 -1.46533,0.948 -2.06533,1.544 -0.15733,0.156 -0.26,0.55333 -0.53333,0.55733 -0.0933,0.001 -0.70667,-0.736 -0.712,-0.72933 0.168,-0.19733 0.32533,-0.448 0.42533,-0.68533 0.30267,-0.716 0.624,-1.448 0.86667,-2.18 0.35733,-1.08 0.568,-2.4 1.63333,-3.004 0.87067,-0.49334 1.772,-0.936 2.692,-1.332 1.99733,-0.86 4.092,-1.48534 6.228,-1.88934 5.68267,-1.07333 11.56,-0.588 17.17333,0.64667 12.40267,2.72533 15.75867,10.77467 16.656,15.33067 1.448,7.35866 -1.444,15.42933 -6.87866,19.188 -1.908,1.31866 -3.99867,1.98 -6.11734,1.98"
       style="fill:#7d7d7d;fill-opacity:1;fill-rule:nonzero;stroke:none;stroke-width:1.33333"
       id="path19861" />
    <path
       d="m 350.94066,166.11734 c -0.432,0.412 -1.41867,0.76133 -1.88,1.06533 -0.70267,0.46534 -1.46534,0.948 -2.064,1.54534 -0.15734,0.156 -0.26,0.552 -0.53334,0.55733 -0.0933,0.001 -0.70666,-0.73733 -0.712,-0.73067 0.168,-0.196 0.32534,-0.44666 0.42534,-0.684 0.30266,-0.716 0.62266,-1.448 0.86533,-2.18 0.35867,-1.08 0.56933,-2.4 1.63333,-3.004 0.872,-0.49466 1.77334,-0.93733 2.69334,-1.332 0.708,-0.30533 1.632,-0.45733 2.272,-0.872 -0.68667,1.016 -1.53467,1.89334 -2.128,2.992 -0.17734,0.32934 -0.48,0.772 -0.52,1.13334 -0.0627,0.56533 0.41866,0.90266 0.056,1.38933 -0.0307,0.0413 -0.0667,0.0813 -0.108,0.12"
       style="opacity:0.199997;fill:#000000;fill-opacity:1;fill-rule:nonzero;stroke:none;stroke-width:1.33333"
       id="path19871" />
    <path
       d="m 357.65826,184.97614 c 2.60933,0.48933 11.68666,3.316 15.27333,6.088 3.588,2.772 9.07733,2.71733 12.22933,-0.59867 0,0 -4.23866,6.632 -12.664,1.41334 -8.42533,-5.21734 -14.83866,-6.90267 -14.83866,-6.90267"
       style="fill:#bebebe;fill-opacity:1;fill-rule:nonzero;stroke:none;stroke-width:1.33333"
       id="path19881" />
    <path
       d="m 331.51626,150.77214 c 2.00933,1.13333 4.016,1.808 5.98133,2.012 10.25467,1.05333 18.53333,-8.20133 20.608,-17.77733 1.82267,-8.41334 2.94933,-16.252 -3.19333,-19.72667 -4.94267,-2.796 -24.75867,-11.15067 -36.16133,-13.684 -1.096,-0.44267 -6.39334,-2.406666 -11.744,-1.21867 -15.30267,0.24667 -38.804,4.36934 -59.14267,15.216 -7.184,3.832 -11.08933,8.42667 -11.60533,13.656 -0.93734,9.50667 9.412,17.992 15.59466,23.06134 l 0.37734,0.30933 c 6.648,5.45333 22.98133,9.348 36.692,4.292 -7.408,5.40267 -19.42134,12.848 -30.71334,14.74667 -10.76533,1.808 -16.78666,4.808 -18.40666,9.168 -1.08,2.90533 -0.16934,6.13466 2.70533,9.59866 0.30133,0.36267 0.61867,0.75867 0.96,1.18134 6.49867,8.072 20.02133,24.86799 70.85067,24.86799 16.536,0 25.51599,-7.92533 30.13599,-14.576 7.072,-10.17733 7.67067,-22.16533 5.848,-27.06266 -0.97866,-2.632 -4.448,-6.19467 -8.46533,-10.31867 -4.288,-4.40266 -10.76666,-11.05466 -10.32933,-13.70266 0.003,-0.0133 0.005,-0.0267 0.008,-0.0427"
       style="fill:#000000;fill-opacity:1;fill-rule:nonzero;stroke:none;stroke-width:1.33333"
       id="path19885" />
    <path
       d="m 297.48266,152.54921 c -2.252,2.39733 -21.52,18.15333 -38.94133,21.08133 -17.42134,2.928 -20.20267,8.63733 -14.49334,15.51867 5.70934,6.88 17.56667,25.32666 70.27067,25.32666 31.91466,0 37.16933,-30.72266 34.11066,-38.94266 -2.34266,-6.29467 -25.47333,-22.984 -17.12933,-27.22934 3.89333,-1.98 -13.15333,-44.79333 -13.15333,-44.79333 0,0 -5.524,-2.416 -10.89867,-1.13733 -5.37333,1.27866 -16.5,40.22133 -16.5,40.22133 0,0 11.27334,5.124 6.73467,9.95467"
       style="fill:#7d7d7d;fill-opacity:1;fill-rule:nonzero;stroke:none;stroke-width:1.33333"
       id="path19889" />
    <path
       d="m 342.52199,201.162 c -8.88533,3.416 -20.28,5.69067 -34.792,5.26134 -49.48133,-1.464 -47.432,-28.84 -36.59866,-31.62133 10.83333,-2.78134 29.572,-19.032 32.93866,-22.10667 3.368,-3.07467 7.46667,-25.18 7.61334,-32.35333 0.108,-5.328 -1.39734,-14.124 -2.18,-18.3 -0.744,0.0507 -1.5,0.152 -2.25467,0.332 -5.37467,1.27866 -16.5,40.22 -16.5,40.22 0,0 11.272,5.124 6.73467,9.95466 -2.25334,2.39867 -21.52134,18.15334 -38.94267,21.08134 -17.42133,2.928 -20.20267,8.63733 -14.49333,15.51866 5.70933,6.88 17.568,25.32667 70.27066,25.32667 14.044,0 22.92133,-5.95067 28.204,-13.31334"
       style="opacity:0.350006;fill:#000000;fill-opacity:1;fill-rule:nonzero;stroke:none;stroke-width:1.33333"
       id="path19899" />
    <path
       d="m 291.54359,142.23761 c 1.69734,0.84666 6.932,3.71066 7.608,7.13466 0.25734,1.30134 -0.14133,2.524 -1.184,3.63334 -2.88933,3.076 -22.34666,18.43066 -39.316,21.28266 -9.608,1.61467 -15.108,4.12667 -16.34933,7.468 -0.72267,1.94534 0.0373,4.28934 2.25867,6.96667 0.308,0.372 0.63466,0.77733 0.984,1.212 6.24,7.74933 19.22133,23.87333 68.77333,23.87333 15.384,0 23.68933,-7.304 27.94666,-13.43067 6.24534,-8.98799 7.22934,-20.06799 5.53867,-24.61199 -0.78267,-2.104 -4.22933,-5.64134 -7.876,-9.388 -5.756,-5.90934 -11.708,-12.02134 -11.05066,-15.99867 0.19066,-1.152 0.904,-2.05067 2.12133,-2.66933 1.896,-1.45467 -5.44267,-23.75467 -13.36667,-43.688 -1.10933,-0.42934 -5.76666,-2.064 -10.228,-1 -3.596,0.856 -11.56,24.27333 -15.86,39.216 m 22.77467,72.90399 c -50.19067,0 -63.44267,-16.45999 -69.81067,-24.37066 -0.34666,-0.42933 -0.668,-0.82933 -0.97333,-1.19733 -2.548,-3.06934 -3.38267,-5.85734 -2.48133,-8.28134 1.43866,-3.87466 7.124,-6.596 17.37733,-8.32 16.64133,-2.796 35.72933,-17.86 38.56667,-20.87866 0.74133,-0.78934 1.01866,-1.596 0.84666,-2.464 -0.548,-2.77467 -5.50666,-5.58134 -7.372,-6.428 l -0.52266,-0.23867 0.15733,-0.552 c 0.028,-0.0973 2.82667,-9.86667 6.24667,-19.66667 6.3,-18.048 9.14666,-20.64 10.74133,-21.01866 5.52667,-1.31734 11.08533,1.072 11.31867,1.17466 l 0.252,0.10934 0.10133,0.25466 c 5.19333,13.04267 16.83866,43.59734 12.836,45.63467 -0.82933,0.42133 -1.29067,0.97733 -1.40933,1.69867 -0.548,3.312 5.68266,9.70933 10.68933,14.84933 3.912,4.01733 7.29066,7.48533 8.172,9.85467 1.792,4.81733 0.81066,16.47466 -5.69467,25.83599 -4.43867,6.38934 -13.08133,14.004 -29.04133,14.004"
       style="fill:#000000;fill-opacity:1;fill-rule:nonzero;stroke:none;stroke-width:1.33333"
       id="path19909" />
    <path
       d="m 253.50026,151.07347 c 8.32267,6.828 34.78267,11.30934 47.58533,-5.33466 9.16934,-11.91867 7.72267,-32.588 6.16267,-43.36534 -16.31867,0.22667 -39.376,4.816 -58.44267,14.984 -22.40533,11.95067 -3.628,26.888 4.69467,33.716"
       style="fill:#7d7d7d;fill-opacity:1;fill-rule:nonzero;stroke:none;stroke-width:1.33333"
       id="path19913" />
    <path
       d="m 253.50026,151.07347 c 8.32267,6.828 34.78267,11.30934 47.58533,-5.33466 2.08534,-2.71067 3.59867,-5.88534 4.70934,-9.28134 -6.716,5.712 -20.532,14.56267 -35.54267,7.16134 -16.68533,-8.22667 -12.37067,-24.972 -9.84533,-31.60267 -3.96534,1.57467 -7.86134,3.348 -11.60134,5.34133 -22.40533,11.95067 -3.628,26.888 4.69467,33.716"
       style="opacity:0.350006;fill:#000000;fill-opacity:1;fill-rule:nonzero;stroke:none;stroke-width:1.33333"
       id="path19923" />
    <path
       d="m 253.92319,150.55801 c 4.504,3.696 15.12534,6.95866 25.92667,5.72 6.14667,-0.704 14.72933,-3.17334 20.708,-10.94534 8.804,-11.44533 7.668,-31.15733 6.11333,-42.28266 -14.99733,0.304 -37.8,4.36133 -57.552,14.89733 -6.34933,3.38533 -9.78266,7.27733 -10.20666,11.564 -0.79734,8.088 8.86133,16.00533 14.632,20.73733 z m 21.228,7.31733 c -9.39866,0 -18.044,-2.98 -22.07466,-6.28667 l -0.37734,-0.30933 c -5.97733,-4.9 -15.98133,-13.10133 -15.11333,-21.89867 0.46933,-4.75866 4.14,-9.00133 10.90667,-12.61066 20.22133,-10.78534 43.60533,-14.852 58.74666,-15.06267 l 0.58534,-0.008 0.084,0.57867 c 1.624,11.21733 2.964,31.83066 -6.29334,43.86666 -6.264,8.14134 -15.21066,10.72534 -21.61333,11.45867 -1.62667,0.18533 -3.24933,0.272 -4.85067,0.272"
       style="fill:#000000;fill-opacity:1;fill-rule:nonzero;stroke:none;stroke-width:1.33333"
       id="path19933" />
    <path
       d="m 318.14626,103.51094 c 0,0 1.556,21.616 2,28.14533 0.44533,6.52934 8.89067,18.23867 17.55733,19.13867 8.668,0.90133 16.44667,-6.98 18.448,-16.212 2,-9.23067 2.336,-14.98267 -2.22267,-17.56267 -4.56,-2.57866 -24.44799,-11.032 -35.78266,-13.50933"
       style="fill:#7d7d7d;fill-opacity:1;fill-rule:nonzero;stroke:none;stroke-width:1.33333"
       id="path19937" />
    <path
       d="m 354.71906,119.70934 c -0.72534,-1.39067 -1.62667,-2.59467 -2.63734,-3.64667 -3.464,-1.70266 -9.724,-4.416 -16.376,-6.948 -0.924,-0.0893 -1.47466,-0.10133 -1.47466,-0.10133 0,0 17.02266,8.28533 18.52933,11.29867 1.50667,3.01333 4.52,10.244 -2.26,21.99466 0,0 9.64267,-12.20266 4.21867,-22.59733"
       style="fill:#bebebe;fill-opacity:1;fill-rule:nonzero;stroke:none;stroke-width:1.33333"
       id="path19941" />
    <path
       d="m 337.70426,150.79507 c 4.3,0.44667 8.37733,-1.27066 11.64266,-4.23866 -18.11599,4.676 -24.16799,-12.82134 -25.51333,-16.992 -1.28,-3.968 1.13467,-19.132 3.132,-23.56134 -3.196,-1.048 -6.232,-1.92666 -8.81866,-2.492 0,0 1.55466,21.616 2,28.14534 0.444,6.52933 8.88933,18.23866 17.55733,19.13866"
       style="opacity:0.350006;fill:#000000;fill-opacity:1;fill-rule:nonzero;stroke:none;stroke-width:1.33333"
       id="path19951" />
    <path
       d="m 318.87626,104.36067 c 0.29867,4.15067 1.54533,21.516 1.936,27.24934 0.432,6.34933 8.808,17.67466 16.96133,18.52133 6.89067,0.72133 15.4,-4.956 17.72533,-15.68933 1.97334,-9.10934 2.256,-14.49067 -1.89866,-16.84134 -4.60667,-2.60533 -23.63067,-10.616 -34.724,-13.24 m 20.23466,47.17467 c -0.48666,0 -0.97866,-0.0253 -1.476,-0.0773 -9.01599,-0.936 -17.69199,-12.976 -18.15333,-19.756 -0.44533,-6.52934 -2,-28.14267 -2,-28.144 l -0.064,-0.88934 0.872,0.192 c 11.25467,2.45867 31.05067,10.79867 35.96667,13.58 4.87333,2.756 4.65466,8.552 2.54666,18.284 -1.84933,8.53067 -8.86533,16.81067 -17.692,16.81067"
       style="fill:#000000;fill-opacity:1;fill-rule:nonzero;stroke:none;stroke-width:1.33333"
       id="path19961" />
    <path
       d="m 300.95319,112.96814 c 0,0 -32.768,2.22933 -51.77466,11.56267 l 3.576,7.81466 c 0,0 28.29333,-9.472 47.98266,-10.108 0,0 0.99867,-4.89733 0.216,-9.26933"
       style="fill:#000000;fill-opacity:1;fill-rule:nonzero;stroke:none;stroke-width:1.33333"
       id="path19965" />
    <path
       d="m 326.05253,114.79734 -0.21334,8.74933 c 0,0 12.16267,0.85334 27.1,8.53467 0,0 1.28133,-4.05333 0.85333,-7.68133 0,0 -12.16266,-7.256 -27.73999,-9.60267"
       style="fill:#000000;fill-opacity:1;fill-rule:nonzero;stroke:none;stroke-width:1.33333"
       id="path19969" />
    <path
       d="m 263.05666,128.23427 c 3.69067,-1.008 8.38133,-2.21066 13.43067,-3.31866 l -1.84534,-7.08667 c -4.524,0.90267 -9.22533,2.01067 -13.65333,3.35467 z"
       style="fill:#ffffff;fill-opacity:1;fill-rule:nonzero;stroke:none;stroke-width:1.33333"
       id="path19973" />
    <path
       d="m 332.40359,123.46987 c 1.99733,0.44934 4.48667,1.08667 7.34133,1.96267 0.32,-1.692 0.68667,-3.82133 0.86934,-5.516 -2.35867,-0.78533 -4.96,-1.56533 -7.748,-2.264 z"
       style="fill:#ffffff;fill-opacity:1;fill-rule:nonzero;stroke:none;stroke-width:1.33333"
       id="path19977" />
    <path
       d="m 303.04573,155.77001 c 0,0 -14.2,8.344 -15.07867,15.664 -0.87867,7.32 0.732,22.25333 2.34267,24.59466 1.60933,2.34267 9.808,6.588 20.49466,6.296 10.688,-0.29333 17.42134,-3.07466 17.42134,-3.07466 0,0 -14.34667,-0.14667 -17.56667,-0.14667 -3.22133,0 -15.66533,-1.464 -16.544,-4.83067 -0.87733,-3.36666 -2.63467,-19.61733 -1.60933,-22.984 1.024,-3.368 10.54,-15.51866 10.54,-15.51866"
       style="fill:#bebebe;fill-opacity:1;fill-rule:nonzero;stroke:none;stroke-width:1.33333"
       id="path19981" />
    <path
       d="m 328.22613,199.25001 c 0,0 -14.34667,-0.14667 -17.568,-0.14667 -3.22,0 -15.664,-1.464 -16.54267,-4.83067 -0.87867,-3.36666 -2.63467,-19.61733 -1.61067,-22.984 1.02534,-3.368 10.54134,-15.51866 10.54134,-15.51866 h 1.756 c 0,0 -8.92934,12.736 -9.516,15.95733 -0.58534,3.22133 0,20.056 1.02533,21.37333 1.02533,1.31867 18.15333,5.41734 31.91467,6.14934"
       style="opacity:0.350006;fill:#000000;fill-opacity:1;fill-rule:nonzero;stroke:none;stroke-width:1.33333"
       id="path19991" />
    <path
       d="m 324.01719,156.35561 c -1.91333,-0.68934 8.344,10.39466 9.516,12.88266 1.17067,2.48934 -0.0733,20.05734 0.0733,22.25334 0.14667,2.19466 -6.25866,7.46533 -6.25866,7.46533 l 2.63467,-0.14667 c 0,0 5.37999,-3.80533 6.25866,-7.612 0.87867,-3.80666 1.83067,-20.34933 -0.36533,-23.424 -2.196,-3.07466 -8.19867,-10.10133 -11.85867,-11.41866"
       style="opacity:0.350006;fill:#000000;fill-opacity:1;fill-rule:nonzero;stroke:none;stroke-width:1.33333"
       id="path20007" />
    <path
       d="m 299.97026,190.09707 c 0.86267,0.73334 11.45867,0.888 16.3,0.72667 4.84133,-0.16133 13.47467,-0.0813 13.47467,-0.0813 0,0 0.808,-1.53334 -2.98534,-1.69467 -3.792,-0.16133 -30.01733,-1.69467 -26.78933,1.04933"
       style="fill:#bebebe;fill-opacity:1;fill-rule:nonzero;stroke:none;stroke-width:1.33333"
       id="path20017" />
    <path
       d="m 303.08933,188.56214 c 1.396,-0.18533 2.79733,-0.336 4.2,-0.47467 4.52266,-0.44666 9.06666,-0.78 13.612,-0.87733 1.87333,-0.04 3.76133,-0.056 5.62933,0.11333 0.76267,0.068 2.27733,0.0693 2.812,0.756 1.67333,2.15334 0.43333,2.65067 0.404,2.66267 0.076,-0.0293 -0.11333,-0.35067 -0.128,-0.37467 -0.392,-0.62933 -1.45867,-0.38533 -2.08133,-0.43733 -7.49867,-0.62667 -15.036,-0.75733 -22.552,-0.41333 -0.52134,0.0253 -1.04134,0.02 -1.56267,0.02 -0.29867,0.0107 -3.75867,0.244 -3.74533,0.29466 -0.17067,-1.06133 2.85733,-1.196 3.412,-1.26933"
       style="opacity:0.350006;fill:#000000;fill-opacity:1;fill-rule:nonzero;stroke:none;stroke-width:1.33333"
       id="path20027" />
    <path
       d="m 299.97026,185.36454 c 0.86267,0.73333 11.45867,0.888 16.3,0.72667 4.84133,-0.16134 13.47467,-0.0813 13.47467,-0.0813 0,0 0.808,-1.53333 -2.98534,-1.69466 -3.792,-0.16134 -30.01733,-1.69467 -26.78933,1.04933"
       style="fill:#bebebe;fill-opacity:1;fill-rule:nonzero;stroke:none;stroke-width:1.33333"
       id="path20037" />
    <path
       d="m 303.08933,183.82961 c 1.396,-0.18534 2.79733,-0.336 4.2,-0.47467 4.52266,-0.44667 9.06666,-0.78 13.612,-0.87733 1.87333,-0.04 3.76133,-0.056 5.62933,0.11333 0.76267,0.068 2.27733,0.0693 2.812,0.756 1.67333,2.15333 0.43333,2.65067 0.404,2.66267 0.076,-0.0293 -0.11333,-0.35067 -0.128,-0.37467 -0.392,-0.62933 -1.45867,-0.38533 -2.08133,-0.43733 -7.49867,-0.62667 -15.036,-0.75734 -22.552,-0.41334 -0.52134,0.0253 -1.04134,0.02 -1.56267,0.02 -0.29867,0.0107 -3.75867,0.244 -3.74533,0.29467 -0.17067,-1.06133 2.85733,-1.196 3.412,-1.26933"
       style="opacity:0.350006;fill:#000000;fill-opacity:1;fill-rule:nonzero;stroke:none;stroke-width:1.33333"
       id="path20047" />
    <path
       d="m 299.97026,180.63214 c 0.86267,0.73333 11.45867,0.888 16.3,0.72667 4.84133,-0.16134 13.47467,-0.0813 13.47467,-0.0813 0,0 0.808,-1.53333 -2.98534,-1.69466 -3.792,-0.16134 -30.01733,-1.69467 -26.78933,1.04933"
       style="fill:#bebebe;fill-opacity:1;fill-rule:nonzero;stroke:none;stroke-width:1.33333"
       id="path20057" />
    <path
       d="m 303.08933,179.09721 c 1.396,-0.18534 2.79733,-0.336 4.2,-0.47467 4.52266,-0.44667 9.06666,-0.78 13.612,-0.87733 1.87333,-0.04 3.76133,-0.056 5.62933,0.11333 0.76267,0.068 2.27733,0.0693 2.812,0.756 1.67333,2.15333 0.43333,2.65067 0.404,2.66267 0.076,-0.0293 -0.11333,-0.35067 -0.128,-0.37467 -0.392,-0.62933 -1.45867,-0.38533 -2.08133,-0.43733 -7.49867,-0.62667 -15.036,-0.75734 -22.552,-0.41334 -0.52134,0.0253 -1.04134,0.02 -1.56267,0.02 -0.29867,0.0107 -3.75867,0.244 -3.74533,0.29467 -0.17067,-1.06133 2.85733,-1.196 3.412,-1.26933"
       style="opacity:0.350006;fill:#000000;fill-opacity:1;fill-rule:nonzero;stroke:none;stroke-width:1.33333"
       id="path20067" />
    <path
       d="m 299.97026,175.89961 c 0.86267,0.73333 11.45867,0.888 16.3,0.72666 4.84133,-0.16133 13.47467,-0.0813 13.47467,-0.0813 0,0 0.808,-1.53333 -2.98534,-1.69467 -3.792,-0.16133 -30.01733,-1.69466 -26.78933,1.04934"
       style="fill:#bebebe;fill-opacity:1;fill-rule:nonzero;stroke:none;stroke-width:1.33333"
       id="path20077" />
    <path
       d="m 303.08933,174.36467 c 1.396,-0.18533 2.79733,-0.336 4.2,-0.47466 4.52266,-0.44667 9.06666,-0.78 13.612,-0.87734 1.87333,-0.04 3.76133,-0.056 5.62933,0.11334 0.76267,0.068 2.27733,0.0693 2.812,0.756 1.67333,2.15333 0.43333,2.65066 0.404,2.66266 0.076,-0.0293 -0.11333,-0.35066 -0.128,-0.37466 -0.392,-0.62934 -1.45867,-0.38534 -2.08133,-0.43734 -7.49867,-0.62666 -15.036,-0.75733 -22.552,-0.412 -0.52134,0.024 -1.04134,0.0187 -1.56267,0.0187 -0.29867,0.0107 -3.75867,0.244 -3.74533,0.29467 -0.17067,-1.06134 2.85733,-1.196 3.412,-1.26934"
       style="opacity:0.350006;fill:#000000;fill-opacity:1;fill-rule:nonzero;stroke:none;stroke-width:1.33333"
       id="path20087" />
    <path
       d="m 307.19799,168.30654 c 0,1.02533 -0.76533,1.85733 -1.70933,1.85733 -0.94533,0 -1.71067,-0.832 -1.71067,-1.85733 0,-1.02533 0.76534,-1.85733 1.71067,-1.85733 0.944,0 1.70933,0.832 1.70933,1.85733"
       style="fill:#bebebe;fill-opacity:1;fill-rule:nonzero;stroke:none;stroke-width:1.33333"
       id="path20097" />
    <path
       d="m 307.88199,168.12094 c 0,1.02533 -0.76533,1.85733 -1.70933,1.85733 -0.94533,0 -1.71067,-0.832 -1.71067,-1.85733 0,-1.02533 0.76534,-1.85733 1.71067,-1.85733 0.944,0 1.70933,0.832 1.70933,1.85733"
       style="opacity:0.350006;fill:#000000;fill-opacity:1;fill-rule:nonzero;stroke:none;stroke-width:1.33333"
       id="path20107" />
    <path
       d="m 312.95439,168.30654 c 0,1.02533 -0.76533,1.85733 -1.70933,1.85733 -0.94533,0 -1.71067,-0.832 -1.71067,-1.85733 0,-1.02533 0.76534,-1.85733 1.71067,-1.85733 0.944,0 1.70933,0.832 1.70933,1.85733"
       style="fill:#bebebe;fill-opacity:1;fill-rule:nonzero;stroke:none;stroke-width:1.33333"
       id="path20117" />
    <path
       d="m 313.63826,168.12094 c 0,1.02533 -0.76533,1.85733 -1.70933,1.85733 -0.94534,0 -1.71067,-0.832 -1.71067,-1.85733 0,-1.02533 0.76533,-1.85733 1.71067,-1.85733 0.944,0 1.70933,0.832 1.70933,1.85733"
       style="opacity:0.350006;fill:#000000;fill-opacity:1;fill-rule:nonzero;stroke:none;stroke-width:1.33333"
       id="path20127" />
    <path
       d="m 318.71079,168.30654 c 0,1.02533 -0.76533,1.85733 -1.70933,1.85733 -0.94533,0 -1.71067,-0.832 -1.71067,-1.85733 0,-1.02533 0.76534,-1.85733 1.71067,-1.85733 0.944,0 1.70933,0.832 1.70933,1.85733"
       style="fill:#bebebe;fill-opacity:1;fill-rule:nonzero;stroke:none;stroke-width:1.33333"
       id="path20137" />
    <path
       d="m 319.39466,168.12094 c 0,1.02533 -0.76533,1.85733 -1.70933,1.85733 -0.94534,0 -1.71067,-0.832 -1.71067,-1.85733 0,-1.02533 0.76533,-1.85733 1.71067,-1.85733 0.944,0 1.70933,0.832 1.70933,1.85733"
       style="opacity:0.350006;fill:#000000;fill-opacity:1;fill-rule:nonzero;stroke:none;stroke-width:1.33333"
       id="path20147" />
    <path
       d="m 324.46706,168.30654 c 0,1.02533 -0.76533,1.85733 -1.70933,1.85733 -0.94534,0 -1.71067,-0.832 -1.71067,-1.85733 0,-1.02533 0.76533,-1.85733 1.71067,-1.85733 0.944,0 1.70933,0.832 1.70933,1.85733"
       style="fill:#bebebe;fill-opacity:1;fill-rule:nonzero;stroke:none;stroke-width:1.33333"
       id="path20157" />
    <path
       d="m 325.15106,168.12094 c 0,1.02533 -0.76533,1.85733 -1.70933,1.85733 -0.94534,0 -1.71067,-0.832 -1.71067,-1.85733 0,-1.02533 0.76533,-1.85733 1.71067,-1.85733 0.944,0 1.70933,0.832 1.70933,1.85733"
       style="opacity:0.350006;fill:#000000;fill-opacity:1;fill-rule:nonzero;stroke:none;stroke-width:1.33333"
       id="path20167" />
    <path
       d="m 306.97839,161.82854 c 0,1.02533 -0.76533,1.85733 -1.70933,1.85733 -0.94533,0 -1.71067,-0.832 -1.71067,-1.85733 0,-1.02533 0.76534,-1.85733 1.71067,-1.85733 0.944,0 1.70933,0.832 1.70933,1.85733"
       style="fill:#bebebe;fill-opacity:1;fill-rule:nonzero;stroke:none;stroke-width:1.33333"
       id="path20177" />
    <path
       d="m 307.66239,161.64281 c 0,1.02533 -0.76533,1.85733 -1.70933,1.85733 -0.94533,0 -1.71067,-0.832 -1.71067,-1.85733 0,-1.02534 0.76534,-1.85734 1.71067,-1.85734 0.944,0 1.70933,0.832 1.70933,1.85734"
       style="opacity:0.350006;fill:#000000;fill-opacity:1;fill-rule:nonzero;stroke:none;stroke-width:1.33333"
       id="path20187" />
    <path
       d="m 312.73479,161.82854 c 0,1.02533 -0.76533,1.85733 -1.70933,1.85733 -0.94533,0 -1.71067,-0.832 -1.71067,-1.85733 0,-1.02533 0.76534,-1.85733 1.71067,-1.85733 0.944,0 1.70933,0.832 1.70933,1.85733"
       style="fill:#bebebe;fill-opacity:1;fill-rule:nonzero;stroke:none;stroke-width:1.33333"
       id="path20197" />
    <path
       d="m 313.41866,161.64281 c 0,1.02533 -0.76533,1.85733 -1.70933,1.85733 -0.94534,0 -1.71067,-0.832 -1.71067,-1.85733 0,-1.02534 0.76533,-1.85734 1.71067,-1.85734 0.944,0 1.70933,0.832 1.70933,1.85734"
       style="opacity:0.350006;fill:#000000;fill-opacity:1;fill-rule:nonzero;stroke:none;stroke-width:1.33333"
       id="path20207" />
    <path
       d="m 318.49119,161.82854 c 0,1.02533 -0.76533,1.85733 -1.70933,1.85733 -0.94533,0 -1.71067,-0.832 -1.71067,-1.85733 0,-1.02533 0.76534,-1.85733 1.71067,-1.85733 0.944,0 1.70933,0.832 1.70933,1.85733"
       style="fill:#bebebe;fill-opacity:1;fill-rule:nonzero;stroke:none;stroke-width:1.33333"
       id="path20217" />
    <path
       d="m 319.17506,161.64281 c 0,1.02533 -0.76533,1.85733 -1.70933,1.85733 -0.94534,0 -1.71067,-0.832 -1.71067,-1.85733 0,-1.02534 0.76533,-1.85734 1.71067,-1.85734 0.944,0 1.70933,0.832 1.70933,1.85734"
       style="opacity:0.350006;fill:#000000;fill-opacity:1;fill-rule:nonzero;stroke:none;stroke-width:1.33333"
       id="path20227" />
    <path
       d="m 324.24746,161.82854 c 0,1.02533 -0.76533,1.85733 -1.70933,1.85733 -0.94534,0 -1.71067,-0.832 -1.71067,-1.85733 0,-1.02533 0.76533,-1.85733 1.71067,-1.85733 0.944,0 1.70933,0.832 1.70933,1.85733"
       style="fill:#bebebe;fill-opacity:1;fill-rule:nonzero;stroke:none;stroke-width:1.33333"
       id="path20237" />
    <path
       d="m 324.93146,161.64281 c 0,1.02533 -0.76533,1.85733 -1.70933,1.85733 -0.94534,0 -1.71067,-0.832 -1.71067,-1.85733 0,-1.02534 0.76533,-1.85734 1.71067,-1.85734 0.944,0 1.70933,0.832 1.70933,1.85734"
       style="opacity:0.350006;fill:#000000;fill-opacity:1;fill-rule:nonzero;stroke:none;stroke-width:1.33333"
       id="path20247" />
    <path
       d="m 339.20239,167.46454 c 0,0 7.08,4.67067 7.38133,8.436 0.30134,3.76667 1.356,12.80533 -3.61466,21.54267 0,0 5.57333,-19.584 -3.76667,-29.97867"
       style="fill:#bebebe;fill-opacity:1;fill-rule:nonzero;stroke:none;stroke-width:1.33333"
       id="path20257" />
    <path
       d="m 316.60533,107.20561 c 0,0 1.05466,23.50133 2.10933,27.116 1.05467,3.616 -1.95867,0.30133 -2.712,-8.73734 -0.75333,-9.03866 0.452,-19.43333 -0.75333,-20.18666 -1.20534,-0.75334 1.50666,-1.95867 1.356,1.808"
       style="fill:#bebebe;fill-opacity:1;fill-rule:nonzero;stroke:none;stroke-width:1.33333"
       id="path20261" />
    <path
       d="m 268.39826,111.27307 c 0,0 30.732,-7.38133 34.64933,-6.628 3.916,0.75334 3.16267,9.49067 3.16267,9.49067 0,0 -2.71067,-7.232 -4.21733,-7.38267 -1.50667,-0.15066 -33.59467,4.52 -33.59467,4.52"
       style="fill:#bebebe;fill-opacity:1;fill-rule:nonzero;stroke:none;stroke-width:1.33333"
       id="path20265" />
    <path
       d="m 250.27493,185.48614 c 0,1.748 -1.41734,3.16533 -3.16534,3.16533 -1.74933,0 -3.16666,-1.41733 -3.16666,-3.16533 0,-1.748 1.41733,-3.16533 3.16666,-3.16533 1.748,0 3.16534,1.41733 3.16534,3.16533"
       style="fill:#000000;fill-opacity:1;fill-rule:nonzero;stroke:none;stroke-width:1.33333"
       id="path20269" />
    <path
       d="m 171.30466,203.92774 c -14.65866,0 -29.17866,-3.27334 -37.32133,-8.38933 -4.14267,-2.60134 -6.328,-5.54134 -6.496,-8.73867 -0.436,-8.28933 5.69467,-18.06 15.62,-24.892 2.192,-1.508 4.516,-2.82267 6.91867,-3.964 3.37466,-1.60133 6.91066,-2.856 10.53333,-3.764 4.56,-1.14267 9.25333,-1.73467 13.952,-1.812 5.78533,-0.096 11.568,0.584 17.204,1.87333 2.68533,0.61467 5.33867,1.36667 7.95333,2.236 0.45467,0.15067 0.96,0.168 1.34267,0.464 0.35733,0.27867 0.61466,0.67867 0.83733,1.06667 0.44667,0.78 0.71067,1.64933 1.15867,2.42533 0.75466,1.31067 1.83866,2.49734 2.49733,3.832 -0.24,0.284 -1.67067,-0.552 -2.01067,-0.69066 -0.792,-0.32134 -1.58933,-0.63334 -2.39066,-0.93334 -1.53467,-0.57466 -3.084,-1.108 -4.648,-1.59466 -2.87467,-0.896 -5.79733,-1.636 -8.75733,-2.19067 -5.03467,-0.944 -10.17867,-1.348 -15.29734,-1.07333 -4.13733,0.22133 -8.252,0.88533 -12.23733,2.024 -3.12,0.892 -6.16,2.07066 -9.052,3.544 -1.72,0.876 -3.38933,1.856 -4.98,2.95066 -9.588,6.6 -13.59733,14.90934 -13.31867,20.21867 0.0693,1.30533 1.52934,2.94667 4.008,4.50267 10.77867,6.772 40.3,11.47599 60.228,3.132 25.352,-10.612 48.872,-11.30667 49.86133,-11.332 1.45067,-0.0493 2.69334,1.128 2.73067,2.6 0.0373,1.472 -1.12667,2.69466 -2.59867,2.732 -0.23333,0.007 -23.54666,0.712 -47.93333,10.92 -8.07333,3.37999 -17.97066,4.85333 -27.804,4.85333"
       style="fill:#000000;fill-opacity:1;fill-rule:nonzero;stroke:none;stroke-width:1.33333"
       id="path20273" />
    <path
       d="m 171.27733,203.27347 c -14.51333,0 -28.88267,-3.23733 -36.94,-8.29866 -3.948,-2.48 -6.028,-5.24267 -6.184,-8.21067 -0.42533,-8.06267 5.59467,-17.604 15.332,-24.308 2.2,-1.51333 4.53467,-2.82933 6.948,-3.968 3.39867,-1.60267 6.96267,-2.84933 10.612,-3.74267 4.60533,-1.12666 9.34267,-1.684 14.08133,-1.71866 5.852,-0.0413 11.69467,0.71333 17.38,2.08533 1.49334,0.36 2.976,0.76267 4.44667,1.204 1.19867,0.36 2.92533,0.52267 3.56,1.69733 0.37066,0.684 0.72266,1.34134 1.14133,1.99467 0.352,0.54933 0.69333,1.108 1.01867,1.67067 0.18533,0.32 0.48133,0.64666 0.59066,0.99866 0.0133,0.0427 -0.80666,-0.232 -0.852,-0.25066 -0.42133,-0.16934 -0.84933,-0.32667 -1.276,-0.48534 -0.80133,-0.29733 -1.60799,-0.584 -2.41866,-0.86 -1.55067,-0.52666 -3.116,-1.00933 -4.696,-1.444 -2.9,-0.79866 -5.84533,-1.43466 -8.82,-1.87866 -5.056,-0.75334 -10.20133,-0.94667 -15.292,-0.45867 -4.09067,0.39333 -8.14133,1.224 -12.044,2.51867 -2.992,0.992 -5.89867,2.252 -8.65333,3.78933 -1.184,0.66133 -2.34,1.37467 -3.45867,2.14267 -8.48533,5.84133 -13.95333,14.20133 -13.60533,20.804 0.0813,1.54666 1.61466,3.33466 4.31733,5.032 10.896,6.84666 40.72,11.60533 60.84133,3.18266 25.23733,-10.564 48.636,-11.256 49.61867,-11.28 1.16266,-0.0253 2.02133,0.84534 2.04933,1.94934 0.0267,1.104 -0.84533,2.02133 -1.94933,2.04933 -0.23334,0.007 -23.66134,0.71067 -48.17467,10.972 -8.008,3.352 -17.824,4.81333 -27.57333,4.81333"
       style="fill:#7d7d7d;fill-opacity:1;fill-rule:nonzero;stroke:none;stroke-width:1.33333"
       id="path20277" />
    <path
       d="m 191.44093,158.94987 c -0.36,-0.16133 -0.63067,-0.356 -0.70667,-0.59466 -0.184,-0.576 0.56934,-0.62667 1.028,-0.76267 2.204,-0.656 7.24667,-2.35867 8.752,0.42133 0.36933,0.684 0.72133,1.34 1.14,1.99334 0.35333,0.54933 0.69333,1.108 1.02,1.672 0.184,0.31866 0.48,0.64666 0.59067,0.99733 0.0133,0.044 -0.808,-0.23067 -0.85334,-0.24933 -0.42133,-0.16934 -0.84933,-0.32667 -1.276,-0.48534 -0.80133,-0.29866 -1.60799,-0.58533 -2.41733,-0.86 -1.552,-0.52666 -3.11733,-1.00933 -4.696,-1.44533 -0.45333,-0.124 -1.752,-0.31467 -2.58133,-0.68667"
       style="opacity:0.149994;fill:#000000;fill-opacity:1;fill-rule:nonzero;stroke:none;stroke-width:1.33333"
       id="path20287" />
    <path
       d="m 130.33253,178.07321 c 0,0 -2.2,5.24266 -1.544,8.94 0.65467,3.69733 4.44533,7.62933 10.484,9.96933 0,0 -9.268,-5.804 -9.82933,-10.016 -0.56134,-4.21333 0.88933,-8.89333 0.88933,-8.89333"
       style="fill:#bebebe;fill-opacity:1;fill-rule:nonzero;stroke:none;stroke-width:1.33333"
       id="path20297" />
    <path
       d="m 138.85093,193.42521 c 0,0 13.76,8.14399 38.192,6.132 0,0 -21.108,4.86666 -38.192,-6.132"
       style="fill:#bebebe;fill-opacity:1;fill-rule:nonzero;stroke:none;stroke-width:1.33333"
       id="path20301" />
  </g>
</svg>
