<?xml version="1.0" encoding="UTF-8" standalone="no"?>
<!-- Created with Inkscape (http://www.inkscape.org/) -->

<svg
   version="1.1"
   id="svg171226"
   width="400"
   height="400"
   viewBox="0 0 400 400"
   sodipodi:docname="Body1-b.svg"
   inkscape:version="1.3.2 (091e20e, 2023-11-25)"
   xml:space="preserve"
   xmlns:inkscape="http://www.inkscape.org/namespaces/inkscape"
   xmlns:sodipodi="http://sodipodi.sourceforge.net/DTD/sodipodi-0.dtd"
   xmlns="http://www.w3.org/2000/svg"
   xmlns:svg="http://www.w3.org/2000/svg"><defs
     id="defs171230" /><sodipodi:namedview
     id="namedview171228"
     pagecolor="#ffffff"
     bordercolor="#666666"
     borderopacity="1.0"
     inkscape:showpageshadow="2"
     inkscape:pageopacity="0.0"
     inkscape:pagecheckerboard="0"
     inkscape:deskcolor="#d1d1d1"
     showgrid="false"
     inkscape:zoom="2.12"
     inkscape:cx="200"
     inkscape:cy="200"
     inkscape:window-width="1920"
     inkscape:window-height="1145"
     inkscape:window-x="2278"
     inkscape:window-y="26"
     inkscape:window-maximized="0"
     inkscape:current-layer="g171234"><inkscape:page
       x="0"
       y="0"
       id="page171232"
       width="400"
       height="400"
       margin="0"
       bleed="0" /></sodipodi:namedview><g
     inkscape:groupmode="layer"
     id="layer3"
     inkscape:label="Neck"
     style="display:none"><path
       d="m 213.63253,151.29441 -13.54934,47.14666 c 0,0 12.42667,24.85333 21.464,31.49067 9.03734,6.636 24.148,15.816 35.02134,17.228 l 3.67066,3.67066 2.82534,-2.824 5.224,-2.25866 3.81333,-10.87467 18.428,-23.08667 z"
       style="display:inline;fill:#cd976d;fill-opacity:1;fill-rule:nonzero;stroke:none;stroke-width:1.33333"
       id="path171974" /><path
       d="m 200.08306,198.44081 c 0,0 12.86667,21.57066 17.836,27.06399 4.96933,5.49334 32.696,1.83067 40.54267,4.18534 6.33866,1.90133 13.09866,2.66533 15.47066,2.89066 l 16.59734,-20.79333 -76.89734,-60.49333 z"
       style="display:inline;opacity:0.199997;fill:#000000;fill-opacity:1;fill-rule:nonzero;stroke:none;stroke-width:1.33333"
       id="path171984" /><path
       d="m 211.64493,149.52841 c -1.01067,4.99733 -6.2,23.82533 -7.36934,28.788 -0.956,4.064 -1.95733,8.11866 -3.072,12.14266 -0.516,1.85867 -1.07466,3.70267 -1.63333,5.54934 -0.18666,0.616 -0.95466,1.86266 -0.88133,2.47466 0.02,0.16934 0.80667,2.38267 1.11067,1.93733 3.68799,-5.38666 5.03733,-14.18666 7.12666,-20.38133 1.49067,-4.41866 7.06133,-22.68666 8.552,-27.104 0,0 -3.83333,-3.40666 -3.83333,-3.40666"
       style="display:inline;fill:#000000;fill-opacity:1;fill-rule:nonzero;stroke:none;stroke-width:1.33333"
       id="path171994" /><path
       d="m 293.27599,213.31907 c -2.83733,2.044 -16.28266,19.912 -18.592,22.53067 -1.87866,2.13066 -4.41733,10.85066 -7.52933,10.948 -2.104,0.0653 -1.74133,-3.72534 -1.19333,-5.332 0.26266,-0.76934 21.288,-30.90934 21.288,-30.90934 0,0 6.02666,2.76267 6.02666,2.76267"
       style="display:inline;fill:#000000;fill-opacity:1;fill-rule:nonzero;stroke:none;stroke-width:1.33333"
       id="path171998" /></g><g
     id="g171234"
     inkscape:groupmode="layer"
     inkscape:label="Page 1"
     style="display:inline"><path
       d="m 275.46293,349.22293 c 75.85199,1.56934 89.45333,6.8 89.45333,6.8 l 5.232,6.27867 14.532,6.804 -0.87067,-26.57333 c -1.52533,-11.00267 -6.34267,-44.99867 -8.672,-52.57067 -2.78933,-9.06533 -4.292,-11.15866 -12.44533,-16.04 -8.15467,-4.88133 -35.19275,-16.35477 -45.63272,-21.07666 -9.76437,-4.41632 -26.73261,-13.278 -36.95661,-17.62067 l -7.53334,-1.63867 3.23632,6.95068 0.56727,3.76492 c 0,0 3.97539,11.16515 5.39539,15.13982 0.83038,5.15525 -3.17081,13.90352 -3.17081,13.90352 l -4.3815,64.21839 -36.05867,-64.73333 -3.40666,-4.54266 c 0,0 -15.332,-8.51734 -37.47733,-27.54 -12.6822,-11.13606 -17.3948,-15.47208 -16.41296,-31.34977 -1.99151,1.19307 -4.39893,-0.64875 -6.68689,-0.47915 l -40.67749,19.20892 -38.587996,22.548 -11.855999,6.044 -6.741334,6.27733 -9.459999,6.824 C 55.016154,282.27116 47.655892,295.12361 41.88121,310.7319 l -15.188357,70.92406 c 0,0 12.671477,12.29888 18.199174,12.12071 10.293721,-0.3318 52.029446,-20.01112 72.065573,-37.22974 0,0 82.652,-8.89333 158.50533,-7.324"
       style="fill:#7d7d7d;fill-opacity:1;fill-rule:nonzero;stroke:none;stroke-width:1.33333"
       id="path171958"
       sodipodi:nodetypes="cccccccscccccccccccccccccccscc" /><path
       d="M 384.67959,369.10547 385.69026,399.9668 25.664768,400 27.657852,382.55863 c 0,0 15.357817,12.57418 17.89775,12.68819 3.543486,0.15905 44.088752,-23.39107 71.401328,-38.70002 0,0 82.65333,-8.89333 158.50533,-7.324 75.85333,1.56933 89.45466,6.80133 89.45466,6.80133 l 5.23067,6.27734 z"
       style="fill:#2d2d2d;fill-opacity:1;fill-rule:nonzero;stroke:none;stroke-width:1.33333"
       id="path171962"
       sodipodi:nodetypes="ccccscsccc" /><path
       d="m 196.9892,241.882 c 22.14533,19.02267 37.47733,27.54 37.47733,27.54 l 3.408,4.54267 36.05733,64.73466 5.67867,-65.86933 c 0,0 4.82666,-7.09866 3.40666,-11.07333 -1.42,-3.97467 -6.26,-16.73733 -6.26,-16.73733 l 0.29734,-2.28534 -4.768,-8.012 -0.18534,0.152 -3.812,10.87334 -5.22533,2.25866 -2.824,2.82534 -3.672,-3.672 c -10.87333,-1.412 -25.98267,-10.59067 -35.02,-17.228 -9.03867,-6.63734 -25.67628,-28.53049 -25.67628,-28.53049 -0.94266,-1.79264 -1.78264,-2.91834 -2.24533,-3.816 -5.78967,6.37103 -10.6992,11.15342 -12.4086,12.72099 0,0 -6.37382,12.5535 15.77152,31.57616"
       style="fill:#d30000;fill-opacity:1;fill-rule:nonzero;stroke:none;stroke-width:1.33333"
       id="path171966"
       sodipodi:nodetypes="cccccsccccccccccccc" /><path
       d="m 367.95412,278.712 c 0,0 3.12934,28.84534 1.144,48.11334 0,0 3.30134,-23.672 0.824,-46.24134 z"
       style="fill:#000000;fill-opacity:1;fill-rule:nonzero;stroke:none;stroke-width:1.33333"
       id="path172006" /><path
       id="path172002"
       style="fill:#000000;fill-opacity:1;fill-rule:nonzero;stroke:none;stroke-width:1.33333"
       d="m 193.97656,195.99414 c -0.7503,-0.0381 -0.87749,-0.0302 -1.55664,0.33398 -0.10133,0.0893 -5.20413,6.87874 -10.68554,13.55079 -1.17467,-0.48666 -3.32863,-2.16687 -8.36329,-0.82422 -4.85065,1.29467 -26.63063,11.14575 -47.33593,23.12304 -16.79064,9.71198 -32.650928,18.88602 -36.656254,20.38868 -8.445315,3.16665 -14.804241,9.80901 -15.878906,11.40234 -1.077331,0.63733 -5.047699,1.38449 -8.318359,3.61914 -9.85585,5.31259 -22.830202,27.76068 -28.478516,46.72656 C 31.054811,333.28033 24.036083,390.94613 23.314453,400 l 4.236328,-0.21484 1.353516,-13.66602 c 0,0 13.934029,12.70389 15.220703,12.55274 0.619677,-0.0728 51.615286,-26.51361 76.03125,-38.63672 0,0 1.52182,5.1832 1.86133,10.98437 0.33951,5.80118 1.95516,15.70987 1.26953,28.98047 h 6.7168 c 0.49001,-13.11168 -2.19846,-36.6824 -2.48003,-41.79919 -0.30168,-5.48247 142.0568,-6.06142 149.03659,-5.83948 7.84729,0.24952 59.40907,2.09203 86.96101,6.27734 0,0 0.82645,23.99615 -0.46289,41.32813 h 5.57422 c 0.484,-9.21598 1.59261,-30.13893 1.86328,-33.65625 0,0 7.27724,2.90397 11.81055,6.39062 0,0 0.67098,14.69499 0.45898,27.26563 h 4.79102 l -2.30469,-57.4336 c -0.0733,-1.01867 -0.18937,-1.86516 -0.33203,-2.5625 -2.15734,-16.44929 -7.67836,-54.12103 -13.76367,-60.81836 -7.53598,-8.29865 -41.32043,-21.36116 -51.99031,-25.98593 -7.95925,-3.44987 -14.41012,-6.64746 -22.04115,-10.70632 -5.21498,-2.7738 -11.06675,-5.79749 -17.14508,-8.8003 -1.48203,-0.73215 -8.04137,-3.65812 -9.50269,-2.52079 -1.98933,1.54665 -1.06078,3.15415 -2.02296,6.50115 -0.78112,2.71715 -0.72093,4.85995 -3.04104,6.57542 -2.11909,1.37789 -2.90851,0.98714 -3.8056,2.33131 l -1.23242,1.8496 -1.80273,-2.52734 c -0.272,-0.37866 -0.69164,-0.62254 -1.1543,-0.67187 -40.28259,-4.272 -62.22509,-47.5835 -62.34375,-48.04883 -0.14,-0.54934 -0.55633,-0.9863 -1.09766,-1.1543 z m -1.06054,4.94141 c 3.23331,9.93198 27.0285,43.09664 63.42578,47.41797 l 2.75586,3.85546 c 0.31067,0.43467 0.77628,0.68298 1.34961,0.68164 1.30131,-9.8e-4 1.3394,-1.26576 1.91406,-2.09374 1.73817,-2.49636 3.57664,-2.86455 5.43537,-4.18061 1.24396,-0.88078 2.20672,-2.54096 2.84806,-3.76496 0.549,-1.18163 1.13402,-4.10638 1.41381,-5.37946 0.66744,1.02512 1.89701,3.69698 2.14755,4.96833 0.20063,1.01807 -0.35665,2.07108 -0.99805,3.18164 -0.792,1.37467 -3.53376,5.03677 -3.99909,6.65943 -0.65466,2.28 -0.90751,4.53042 -1.10351,6.84375 -0.19333,2.27067 0.13581,3.42978 1.00781,5.64844 1.46533,-4.408 2.06029,-10.44368 4.44696,-14.47568 0.99234,-1.67546 1.8782,-2.32503 2.35351,-3.34765 2.44566,5.549 5.2759,12.00066 4.44758,17.64559 -0.69437,4.73204 -3.42672,8.63756 -3.77739,13.48022 -0.312,4.30132 -0.38769,8.36906 -0.69969,12.6704 -0.49615,11.01403 -0.75515,20.73186 -1.48581,30.80251 -0.24934,3.44531 -0.75066,7.97459 -1,11.41992 l -35.69922,-62.59766 c -6.89836,-5.40272 -23.59137,-17.04294 -37.52734,-27.79492 -6.40665,-4.94132 -11.3821,-12.38209 -14.7461,-17.96875 -3.81598,-8.26932 -2.77359,-9.96314 -2.43359,-11.61914 4.61378,-5.44854 7.18212,-7.82266 9.92383,-12.05273 z m -14.19336,10.68554 c -0.96657,5.59904 0.33804,7.77674 3.45898,13.98047 3.90537,7.76299 11.01849,17.74635 26.0918,28.125 18.39596,12.66664 24.63964,17.11811 26.70898,18.66211 0.012,0.028 0.0244,0.0534 0.0391,0.0801 L 272.5,341.74609 c 0.22267,0.412 0.61088,0.67911 1.04688,0.78711 h 0.80273 c 0.66,-0.17734 1.14775,-0.73973 1.20508,-1.42773 l 3.86324,-66.86744 c 3.024,-4.2 4.61959,-7.81767 3.80959,-15.34298 -0.28605,-2.65754 -2.18155,-6.83344 -3.32422,-9.22542 -0.50133,-1.04934 -3.17933,-4.25623 -2.85533,-5.46689 0.12534,-0.46667 0.11943,-1.7921 0.11289,-2.26557 -0.0295,-2.13634 -1.50685,-4.19865 -2.27618,-6.37598 0,0 -0.75829,-1.36961 -0.47695,-1.38161 3.29115,0.51908 9.25489,4.30852 12.62277,6.10521 10.63489,5.67348 19.81863,10.89712 31.13544,15.98122 9.5347,4.28348 43.73372,17.41749 50.62703,25.00547 5.13198,5.64933 10.78207,42.52176 13.19141,61.26172 0.63864,5.392 1.27734,24.52344 1.27734,24.52344 l -12.82813,-9.07422 c -0.64933,-15.30529 -1.74804,-22.01562 -1.74804,-22.01562 -1.2,9.90531 -2.17624,12.55445 -3.60157,16.39843 0,0 -58.94114,-5.39344 -88.5039,-6.15039 -49.93525,-1.27859 -149.83008,2.72461 -149.83008,2.72461 -3.00167,-11.22287 -11.58651,-30.81966 -18.375,-41.92773 0,0 7.84244,18.71126 9.92969,34.44726 0.7587,4.43661 1.37392,7.45286 1.54883,10.9375 -10.85376,7.39062 -40.471115,22.0252 -75.328129,40.59375 L 29.720703,381.2168 c 1.510664,-11.19865 8.378265,-51.91778 11.955078,-66.44727 3.576814,-14.52948 17.764291,-36.14577 24.84961,-43.48242 7.085319,-7.33664 23.557383,3.63852 27.609375,9.20117 0.306665,-1.03467 -0.155258,-2.13012 -0.669922,-3.07812 -2.467996,-4.544 -6.364394,-7.99576 -10.761719,-10.6211 -1.478665,-0.88133 -3.620252,-1.56847 -4.65625,-2.98047 -0.306667,-0.42 11.426611,-7.80136 12.474609,-8.19336 4.258659,-1.59732 19.498616,-10.41249 37.142576,-20.61914 19.56662,-11.31729 41.86222,-21.44428 46.29688,-22.62695 2.17334,-0.58 3.709,-0.84318 4.76172,-0.74805 z"
       sodipodi:nodetypes="ccccccccscccscsccssccccccccccssscsccccccccccccsccsccccccsccccccccccsccccccccsscsccssccccccsccccccsscccccccc" /><path
       d="m 320.33559,374.954 c -0.003,-0.0453 0.48934,-0.84667 0.48934,-0.84667 l 7.64266,-0.33333 -0.33066,3.02533 -0.40134,-0.0307 c 0,0 -6.85066,0.43866 -7.152,0.136 -0.30133,-0.30267 -0.24533,-1.90534 -0.248,-1.95067 m -2.224,5.524 c 0.42134,0.76667 9.07067,1.86267 9.07067,1.86267 l 3.39467,-13.14667 c 0,0 -8.404,-0.11067 -9.60267,0.10933 -1.2,0.21867 -2.31867,1.752 -2.644,4.05334 -0.32667,2.30133 -0.63867,6.35466 -0.21867,7.12133"
       style="fill:#d9a14b;fill-opacity:1;fill-rule:nonzero;stroke:none;stroke-width:1.33333"
       id="path172018" /><path
       d="m 348.58052,376.90493 c -0.228,0.30267 -6.48933,-0.136 -6.48933,-0.136 l -0.35867,0.0307 -0.74933,-3.02533 6.96267,0.33333 c 0,0 0.564,0.80133 0.568,0.84667 0.005,0.0453 0.29466,1.648 0.0667,1.95066 m 1.51067,-3.548 c -0.63733,-2.30133 -1.87867,-3.83466 -2.996,-4.05333 -1.11733,-0.22 -8.70267,-0.11067 -8.70267,-0.11067 l 5.02934,13.148 c 0,0 7.66,-1.096 7.92666,-1.86266 0.26534,-0.76667 -0.62,-4.82134 -1.25733,-7.12134"
       style="fill:#d9a14b;fill-opacity:1;fill-rule:nonzero;stroke:none;stroke-width:1.33333"
       id="path172022" /><path
       d="m 325.07319,398.59747 c -0.16933,0 -0.344,-0.048 -0.50533,-0.144 -0.38,-0.228 -0.62933,-0.68534 -0.636,-1.172 -0.007,-0.49467 -0.14933,-12.216 1.86933,-20.72267 2.048,-8.62533 5.78934,-17.97333 7.144,-20.19067 0.19467,-0.316 0.51467,-0.49066 0.85733,-0.472 0.344,0.02 0.67067,0.232 0.87734,0.572 0.40933,0.67334 10.048,16.73067 12.68266,38.38267 0.0693,0.56933 -0.19733,1.092 -0.64666,1.272 -0.448,0.18133 -0.96667,-0.028 -1.25867,-0.508 -1.79333,-2.93733 -5.16,-7.21067 -6.788,-7.21067 -0.0213,0 -0.044,0 -0.0653,0.003 -1.82667,0.13467 -8.644,5.89067 -12.90133,9.93467 -0.17867,0.16933 -0.40134,0.256 -0.62934,0.256"
       style="fill:#d9a14b;fill-opacity:1;fill-rule:nonzero;stroke:none;stroke-width:1.33333"
       id="path172026" /><path
       d="m 333.80212,356.72613 c -0.108,0 -0.208,0.0587 -0.26933,0.15867 -1.33066,2.17733 -5.01733,11.40667 -7.04533,19.94933 -1.99467,8.39734 -1.852,20.00267 -1.84533,20.49334 0.003,0.16133 0.0853,0.31466 0.212,0.39066 0.12266,0.0733 0.27733,0.0587 0.37866,-0.0373 2.896,-2.752 10.92667,-9.93067 13.27733,-10.104 l 0.108,-0.004 c 2.27467,0 6.11734,5.48 7.40667,7.592 0.0973,0.16 0.26933,0.228 0.41733,0.17067 0.152,-0.0613 0.24134,-0.236 0.21734,-0.42534 -2.60934,-21.44933 -12.144,-37.32666 -12.548,-37.992 -0.0693,-0.11333 -0.17867,-0.18533 -0.292,-0.19066 -0.005,-0.001 -0.012,-0.001 -0.0173,-0.001 m -8.67733,42.70267 c -0.288,0 -0.57866,-0.0827 -0.84266,-0.24 -0.632,-0.38 -1.048,-1.14533 -1.06,-1.95333 -0.007,-0.49867 -0.152,-12.33334 1.89466,-20.952 2.06667,-8.70534 5.86267,-18.17467 7.24134,-20.42934 0.32266,-0.52666 0.85066,-0.82533 1.42666,-0.78933 0.57333,0.0333 1.12,0.38933 1.464,0.95467 0.41333,0.68 10.156,16.90533 12.816,38.77333 0.116,0.94667 -0.32667,1.81867 -1.076,2.11867 -0.748,0.30133 -1.612,-0.0453 -2.1,-0.84534 -2.14267,-3.51066 -5.14,-6.83066 -6.168,-6.83066 -1.47867,0.108 -7.67466,5.13733 -12.548,9.76666 -0.28933,0.27467 -0.66266,0.42667 -1.048,0.42667"
       style="fill:#000000;fill-opacity:1;fill-rule:nonzero;stroke:none;stroke-width:1.33333"
       id="path172030" /><path
       d="m 333.90839,359.4808 c -1.61066,3.492 -4.41733,11.02 -6.05066,17.904 -1.372,5.77467 -1.70267,13.32933 -1.77734,17.30933 3.332,-3.04666 9.71733,-8.592 12.24,-8.77733 2.024,-0.152 4.45467,2.31333 6.27467,4.64 -2.58934,-15.004 -8.412,-26.85467 -10.68667,-31.076"
       style="fill:#999999;fill-opacity:1;fill-rule:nonzero;stroke:none;stroke-width:1.33333"
       id="path172034" /><path
       d="m 345.49786,382.88827 c 0,0 5.656,-0.876 6.16533,-1.75334 0.508,-0.876 -0.0187,-4.41733 -0.64667,-6.608 -0.62666,-2.192 -1.36933,-5.00533 -3.44533,-5.55333 -2.07733,-0.54667 -7.08667,-0.876 -7.08667,-0.876 l 0.70134,2.08133 c 0,0 6.06666,0.0227 6.89733,0.65734 0.96933,0.74133 1.65333,2.07066 1.972,3.944 0.30533,1.79866 1.096,4.492 0.904,5.14933 -0.192,0.65733 -6.216,1.20533 -6.216,1.20533 z"
       style="fill:#000000;fill-opacity:1;fill-rule:nonzero;stroke:none;stroke-width:1.33333"
       id="path172038" /><path
       d="m 343.27919,376.3148 c 0,0 3.98667,0.21867 4.83067,0.21867 0.844,0 0.15333,-1.972 -0.52267,-1.972 -0.67467,0 -4.99867,-0.21867 -4.99867,-0.21867 l -0.0827,-0.876 c 0,0 4.84,0.31867 5.516,0.328 0.676,0.009 1.13333,2.19067 1.11066,2.84933 -0.0227,0.65734 -1.45733,0.65734 -2.21733,0.65734 -0.75867,0 -3.46933,-0.11067 -3.46933,-0.11067 z"
       style="fill:#000000;fill-opacity:1;fill-rule:nonzero;stroke:none;stroke-width:1.33333"
       id="path172042" /><path
       d="m 324.97719,382.88827 c 0,0 -6.39733,-0.876 -7.10533,-1.75334 -0.70667,-0.876 -0.588,-4.44933 -0.256,-6.64 0.332,-2.192 0.97867,-4.848 3.184,-5.396 2.20533,-0.548 7.284,-1.00133 7.284,-1.00133 l -0.432,2.08133 c 0,0 -6.832,-0.15466 -7.51733,0.65734 -0.54134,0.64266 -1.34934,2.54 -1.61467,4.29333 -0.26667,1.75333 -0.388,4.14267 -0.068,4.8 0.32,0.65733 7.07067,1.20533 7.07067,1.20533 z"
       style="fill:#000000;fill-opacity:1;fill-rule:nonzero;stroke:none;stroke-width:1.33333"
       id="path172046" /><path
       d="m 326.34773,376.3148 c 0,0 -4.372,0.21867 -5.30534,0.21867 -0.932,0 -0.49333,-1.972 0.25334,-1.972 0.74666,0 5.49066,-0.21867 5.49066,-0.21867 l -0.0533,-0.876 c 0,0 -5.29867,0.31867 -6.044,0.328 -0.74533,0.009 -0.892,2.19067 -0.75867,2.84933 0.13334,0.65734 1.72,0.65734 2.55867,0.65734 0.84,0 3.81867,-0.11067 3.81867,-0.11067 z"
       style="fill:#000000;fill-opacity:1;fill-rule:nonzero;stroke:none;stroke-width:1.33333"
       id="path172050" /><path
       d="m 219.51133,258.96734 c -4.76,-3.34934 -14.796,-9.37067 -28.60533,-22.44 -13.80934,-13.07067 -10.0252,-25.53469 -10.0252,-25.53469 l 12.49609,-13.07292 2.24533,3.81466 c 3.13855,12.95651 11.01607,19.95546 19.36007,28.17946 7.41067,7.304 12.34665,12.55791 24.62637,17.05749 4.07149,1.49189 3.568,11.54666 3.352,13.924 -0.216,2.37733 -9.3,8.028 -23.44933,-1.928"
       style="opacity:0.199997;fill:#000000;fill-opacity:1;fill-rule:nonzero;stroke:none;stroke-width:1.33333"
       id="path172060"
       sodipodi:nodetypes="ccccccssc" /><path
       d="m 251.72759,333.67013 c -1.63466,-6.52399 -3.46533,-12.99466 -5.42266,-19.42799 -0.003,-0.007 -0.004,-0.012 -0.007,-0.0187 3.75467,7.66267 7.26933,14.83733 9.496,19.384 -1.34,0.0187 -2.704,0.0413 -4.06667,0.0627 m -13.75066,0.252 c -3.62667,-20.32666 -9.33734,-40.37599 -17.564,-59.33733 3.04133,1.94534 6.116,3.84667 9.24933,5.67867 0.31467,0.64 0.80667,1.64533 1.44533,2.948 6.568,16.79467 12.524,33.804 19.66667,50.47333 -4.18133,0.068 -8.45333,0.14667 -12.79733,0.23733 m -15.032,0.34134 c -1.01334,-4.668 -2.152,-9.30933 -3.28667,-13.95733 -1.45067,-5.968 -3.55067,-12.26134 -5.44267,-18.084 -5.38933,-16.51734 -12.50933,-32.576 -21.53066,-47.464 -0.10667,-0.20667 -0.232,-0.43467 -0.36933,-0.672 3.652,3.19733 7.49466,6.17333 11.37066,9.05466 3.516,2.57067 7.076,5.04934 10.66933,7.472 4.62134,9.72267 8.65734,19.73734 12.252,29.88267 3.92,11.02 7.476,22.17733 10.632,33.44133 -4.704,0.0987 -9.484,0.20933 -14.29466,0.32667 m 10.49333,-55.13867 -5.48,-3.79066 c -3.33333,-1.99467 -6.65467,-4.024 -9.94667,-6.104 l -6.35333,-4.11334 c -6.532,-4.34933 -12.32007,-8.08529 -18.01719,-13.47171 -3.05302,-2.88652 -5.99754,-6.7429 -7.53667,-9.01161 -2.83738,-4.1824 -4.43786,-6.81722 -6.61577,-10.67519 -2.05024,-3.63182 -3.64237,-6.96549 -5.1077,-10.80682 -1.10133,-3.75467 -2.32133,-8.72942 -0.404,-10.99608 l -1.744,0.17466 c 0,0 -3.31867,-0.12791 -0.87467,6.95742 -2.98266,-1.41467 -6.11333,-2.484 -9.40533,-3.08133 l -1.16133,0.65066 c 2.064,0.54267 4.1,1.176 6.05866,2.00934 1.8,0.75866 3.508,1.68533 5.156,2.70933 1.31734,4.324 3.512,9.52533 5.00134,13.428 0.24666,0.61467 0.464,1.212 0.676,1.80667 -3.08934,-3.29734 -6.4,-6.384 -10.05067,-9.01334 -3.15867,-2.468 -6.844,-4.476 -10.56267,-5.97733 -1.044,-0.40267 -2.13333,-0.76 -3.24533,-1.05733 l -1.48533,0.83333 c 0.864,0.32667 2.25333,0.82667 3.01733,1.124 0.58267,0.232 2.576,1.364 3.108,1.604 13.408,7.70933 24.832,23.076 34.20533,40.05867 9.372,16.98133 16.69333,35.57733 21.89467,49.744 1.88533,4.83733 5.12266,15.03466 7.432,22.16133 -4.388,0.108 -8.796,0.22266 -13.204,0.34266 -0.8,-3.98399 -1.69734,-7.95066 -2.61867,-11.91599 -0.12,-0.51334 -0.244,-1.02667 -0.36533,-1.54 -1.368,-5.79067 -3.31334,-11.85467 -5.128,-17.516 -2.27467,-7.06934 -4.896,-14.04934 -7.888,-20.86267 -3.77867,-8.60667 -8.35067,-16.824 -13.15867,-24.87733 -1.712,-2.868 -5.94133,-8.59867 -8.048,-11.29867 -4.564,-5.852 -10.00533,-11.20667 -16.06666,-15.588 -3.024,-2.18533 -6.41334,-4.08533 -9.89867,-5.41867 -0.816,-0.31333 -1.66,-0.59466 -2.52,-0.83866 l -1.50533,0.844 c 0.83466,0.29866 1.932,0.72533 2.612,1 0.616,0.248 2.41466,1.236 2.972,1.52533 1.336,0.692 2.59466,1.56267 3.85866,2.44667 7.86134,5.488 14.90667,13.47466 21.15867,22.63733 2.79867,4.096 5.436,8.42533 7.916,12.87333 2.62933,4.716 5.08133,9.564 7.35867,14.404 1.11733,2.37867 2.668,5.78 3.692,8.13067 1.05866,2.42933 2.476,5.888 3.43466,8.23867 2.37067,5.79866 4.49067,11.65733 6.344,16.704 0.776,2.112 1.86267,5.256 2.924,8.508 1.18267,3.61733 2.72667,8.65466 3.952,12.56933 -4.40933,0.12 -8.80666,0.244 -13.17066,0.368 -0.70267,-3.84267 -1.504,-7.668 -2.348,-11.492 -0.10934,-0.49733 -0.22534,-0.99333 -0.34,-1.48933 -1.28667,-5.61467 -3.076,-11.448 -4.812,-16.94667 -2.16934,-6.84 -4.69067,-13.588 -7.60134,-20.15467 -3.67733,-8.3 -8.10133,-16.23066 -12.964,-23.864 -1.84266,-2.892 -5.77733,-8.028 -8.02,-10.72133 -4.38133,-5.26533 -9.46533,-10.15333 -15.15733,-14.088 -2.84133,-1.96533 -5.99333,-3.66533 -9.23467,-4.86133 -0.59466,-0.22 -1.20666,-0.41734 -1.82533,-0.60134 l -1.50533,0.844 c 0.748,0.27467 1.62133,0.62 2.21866,0.868 0.648,0.268 2.24,1.13334 2.836,1.44534 1.27334,0.66666 2.48267,1.47866 3.68934,2.312 7.62266,5.24266 14.38933,12.75333 20.35466,21.34266 2.704,3.884 5.24,7.988 7.616,12.20267 2.52667,4.47867 4.872,9.084 7.044,13.68533 0.89334,1.904 2.71067,5.85334 3.52934,7.73334 0.84666,1.944 2.472,5.97733 3.23866,7.85733 2.20267,5.36267 4.24667,11.132 5.95334,15.93333 0.732,2.06267 1.77733,5.14134 2.728,8.10934 0.91466,2.86133 2.43333,8.02133 3.60666,11.91466 -4.436,0.12667 -8.828,0.256 -13.14666,0.38267 -0.608,-3.70667 -1.31467,-7.39867 -2.08134,-11.088 -0.0987,-0.48 -0.20933,-0.95867 -0.316,-1.43733 -1.204,-5.43734 -2.83866,-11.04267 -4.49733,-16.37867 -2.06267,-6.60933 -4.48533,-13.12533 -7.31333,-19.44667 -3.576,-7.99333 -7.872,-15.628 -12.768,-22.84933 -1.97867,-2.916 -5.60667,-7.45867 -7.99334,-10.144 -4.17333,-4.69467 -8.928,-9.1 -14.248,-12.58933 -2.65866,-1.744 -5.57333,-3.244 -8.56933,-4.30267 -0.36933,-0.13067 -0.74267,-0.25467 -1.12133,-0.372 l -1.524,0.85467 c 0.63733,0.24266 1.31466,0.51333 1.83333,0.73333 0.68133,0.288 2.06667,1.032 2.7,1.36667 1.21067,0.63866 2.36933,1.39466 3.51867,2.17466 7.38666,5 13.87333,12.03467 19.55333,20.05067 2.608,3.672 5.04267,7.548 7.316,11.53067 2.42267,4.24266 4.66,8.604 6.72667,12.96666 0.66933,1.428 2.75466,5.92534 3.36933,7.336 0.63467,1.45867 2.464,6.06667 3.04267,7.476 2.02266,4.932 3.99866,10.60667 5.56133,15.164 0.68933,2.01334 1.69333,5.02534 2.53067,7.70934 0.66266,2.12533 2.15066,7.392 3.27333,11.27599 -4.476,0.132 -8.85867,0.26134 -13.132,0.388 -0.51333,-3.57333 -1.12667,-7.13466 -1.816,-10.68933 -0.0893,-0.464 -0.19333,-0.924 -0.292,-1.38666 -1.12133,-5.26134 -2.60133,-10.636 -4.18267,-15.81067 -1.956,-6.37867 -4.27866,-12.66267 -7.02533,-18.73733 -3.47467,-7.68667 -7.66,-15.01867 -12.57333,-21.83467 -2.11734,-2.93867 -5.42534,-6.89867 -7.96534,-9.56667 -3.94133,-4.14266 -8.39066,-8.048 -13.33866,-11.092 -2.47734,-1.52266 -5.15334,-2.82266 -7.90534,-3.744 -0.14266,-0.048 -0.29333,-0.0827 -0.43733,-0.128 l -1.524,0.85334 c 0.50667,0.19866 1.01733,0.408 1.45067,0.596 0.71333,0.308 1.892,0.92933 2.56533,1.288 1.148,0.60933 2.256,1.30933 3.348,2.03866 7.14933,4.75467 13.356,11.31334 18.74933,18.756 2.51334,3.46 4.848,7.11067 7.01734,10.86 2.31866,4.00534 4.45866,8.12 6.40933,12.248 0.44933,0.95067 2.79867,5.99867 3.208,6.93867 0.424,0.97333 2.46,6.156 2.84667,7.09467 1.84933,4.49733 3.752,10.08266 5.16933,14.39466 0.64667,1.96267 1.60933,4.908 2.33467,7.30934 0.424,1.40533 1.87466,6.76 2.94666,10.64133 -1.168,0.0347 -2.34533,0.0693 -3.49466,0.10266 -3.21067,0.0893 -6.41734,0.19467 -9.624,0.312 -0.42134,-3.44799 -0.94134,-6.88533 -1.556,-10.31733 -0.08,-0.44666 -0.17734,-0.88933 -0.26934,-1.33466 -1.03733,-5.084 -2.36266,-10.22934 -3.86666,-15.24134 -1.848,-6.14933 -4.072,-12.20133 -6.73734,-18.03066 -3.37333,-7.38 -7.45466,-14.404 -12.37733,-20.82 -2.26,-2.96134 -5.23467,-6.34534 -7.93867,-8.98934 -3.68933,-3.60666 -7.85466,-6.996 -12.42933,-9.592 -2.21067,-1.25466 -4.55467,-2.31333 -6.96267,-3.09066 l -1.565329,0.87733 c 0.369333,0.15067 0.738667,0.304 1.078667,0.45333 0.742662,0.33067 1.716002,0.828 2.428002,1.208 1.088,0.58 2.144,1.22667 3.17866,1.904 6.912,4.51067 12.83867,10.592 17.94534,17.46267 2.41866,3.248 4.652,6.67067 6.71866,10.188 2.21467,3.768 4.25067,7.63867 6.092,11.53067 0.22534,0.47466 2.84267,6.07066 3.04667,6.54133 0.212,0.48533 2.45733,6.244 2.652,6.71333 1.676,4.06134 3.49333,9.56 4.77733,13.62267 0.59867,1.916 1.524,4.792 2.13734,6.91067 0.20266,0.69866 1.61733,6.15466 2.63866,10.04399 -4.37066,0.16267 -8.74266,0.352 -13.12266,0.576 -0.35467,-3.37466 -0.828,-6.73999 -1.29734,-10.11599 -2.11733,-11.31867 -5.36133,-22.72 -10.24666,-33.27867 -4.884,-10.55867 -11.41067,-20.27333 -20.09334,-28.21733 -4.916,-4.38534 -10.733329,-8.36534 -17.094662,-10.40667 l -1.618667,0.90667 c 2.092,0.88933 4.104,1.98533 6.009333,3.20533 6.675996,4.268 12.321336,9.872 17.142666,16.16933 4.82133,6.29867 8.81867,13.28934 12.196,20.32934 l 2.88533,6.144 2.45467,6.332 c 1.52667,3.61733 3.23467,9.03866 4.38667,12.85333 0.55066,1.868 1.53866,4.64933 1.94133,6.512 0,0 1.43733,5.808 2.37867,9.612 -2.128,0.11066 -4.26134,0.236 -6.39467,0.36266 -6.34,-19.56533 -13.0406,-40.03598 -25.43927,-56.58931 -6.228,-8.41334 -13.608741,-17.34608 -23.666074,-20.87408 l -1.602655,1.43006 c 5.982667,2.284 11.109333,6.552 15.268,11.44934 11.041329,12.776 19.043999,27.868 25.099999,43.56666 3.104,7.916 5.848,15.98534 8.18133,24.156 l 132.752,-3.064 0.60133,-0.012 -0.268,-0.53733 z"
       style="opacity:0.199997;fill:#000000;fill-opacity:1;fill-rule:nonzero;stroke:none;stroke-width:1.33333"
       id="path172076"
       sodipodi:nodetypes="cccccccccccccccccccccccccssscccccccccccccccccccccccccccccccccccccccccccccccccccccccccccccccccccscccccccccccccccccccccccccccccccccccccccccscccccccccccccccccccccccccccccccccccccccccccc" /><path
       d="m 297.87946,330.05214 -0.34933,3.65866 c -2.392,-0.248 -4.78267,-0.49866 -7.17467,-0.73066 3.95482,-16.36089 2.71986,-34.38653 -1.34133,-50.58934 0.59183,-3.57819 0.1299,-3.79962 0.843,-5.18739 1.51334,-2.26 2.64749,-7.18113 3.04349,-10.60513 1.43733,4.612 2.72288,11.30719 3.53621,16.05919 2.432,15.63067 2.576,31.64267 1.44267,47.39467 m -9.02267,2.78266 c -1.39333,-0.13333 -2.78666,-0.26933 -4.18,-0.404 0.82534,-14.64666 1.47734,-29.432 3.43067,-43.96933 0.11733,1.61333 0.23733,3.22667 0.344,4.84133 0.772,13.16134 1.04267,26.36267 0.40533,39.532 m 71.844,11.2 c 0,0 0.29733,0.0293 0.296,0.0293 0.001,0 0.0387,-0.29333 0.0387,-0.29333 3.08,-12.02 4.632,-25.336 5.308,-37.70533 0.32,-6.184 0.0413,-12.65733 -0.14934,-18.85467 -0.328,-4.63866 -1.668,-8.60933 -3.14266,-13.07066 -0.12267,-0.0733 -0.23334,-0.14267 -0.36,-0.21867 -0.14934,-0.0893 -0.31867,-0.188 -0.48,-0.284 1.40533,4.624 1.928,10.288 2.05333,15.05733 -0.28533,12.29734 -0.804,22.668 -2.228,34.88934 -0.63733,5.156 -1.92933,10.98666 -3.77333,16.90266 -1.57067,-0.19333 -3.13467,-0.38667 -4.728,-0.57867 1.28933,-5.192 2.43333,-10.41733 3.16266,-15.70799 1.09467,-6.67334 1.736,-13.40667 2.06534,-20.168 0.352,-10.144 0.26,-20.69734 -3.028,-30.476 -0.624,-1.73334 -1.444,-3.416 -2.49867,-4.94267 -0.50267,-0.272 -1.01733,-0.548 -1.54,-0.828 0.11067,0.13867 0.21867,0.27467 0.31733,0.40267 3.58934,6.17333 3.83467,13.67733 4.23734,20.65466 0.184,2.87067 0.0587,7.136 0.0693,10.052 -0.39733,13.68534 -1.792,27.34534 -3.54667,40.92267 -2.796,-0.33734 -5.624,-0.672 -8.47066,-1.00534 0.46133,-2.104 1.19733,-5.52266 1.48933,-6.83199 3.19733,-17.11334 4.45733,-34.956 1.51867,-52.19467 -1,-4.544 -2.248,-9.24133 -4.42934,-13.37733 -1.03733,-1.7 -2.01154,-2.75682 -3.50487,-4.21682 -1.10267,-0.54267 -2.20533,-1.076 -3.30267,-1.59867 1.12534,0.61334 2.08534,1.6 2.90534,2.59334 3.224,4.336 4.4542,9.03948 5.40354,14.28881 1.62933,8.87467 1.696,18.124 1.66533,27.14134 -0.188,4.85733 -0.38,11.492 -0.83733,16.336 -0.368,5.94 -1.05467,11.852 -1.71467,17.76666 -2.804,-0.32667 -5.61867,-0.65067 -8.44533,-0.972 0.588,-2.748 1.18133,-5.82133 1.63066,-7.97733 2.048,-11.62533 2.892,-23.79733 2.34934,-35.608 -0.14667,-3.89333 -0.70134,-8.112 -1.18,-11.96133 l -1.20667,-5.936 c -1.456,-6.36134 -3.85912,-13.86481 -9.48712,-18.89148 -1.11067,-0.46133 -2.18267,-0.888 -3.2,-1.272 4.45066,3.416 6.00979,6.98081 7.75912,12.18081 0.29467,0.75333 0.68,2.04667 0.844,2.80933 0.38934,1.69334 1.09333,4.01334 1.33333,5.71867 l 0.96934,5.8 0.58266,5.85333 c 0.18134,1.46 0.37734,4.39467 0.392,5.86667 0.35867,5.484 0.292,12.164 0.21334,17.656 -0.25467,8.57867 -0.98,17.128 -1.80267,25.67066 -2.808,-0.31733 -5.61733,-0.632 -8.42533,-0.94266 0.66267,-3.51733 1.72933,-8.884 2.248,-12.336 2.41467,-20.14267 2.652,-41.45067 -4.95467,-60.60667 -1.916,-4.16266 -4.14133,-8.388 -7.26,-11.80266 -0.98133,-0.264 -1.99333,-0.57334 -3.052,-0.94934 0.368,0.40267 0.732,0.80934 1.07734,1.22267 13.77333,18.00667 13.212,53.16267 11.85733,75.16933 0,0 -0.44667,5.57067 -0.73867,9.212 -2.81333,-0.31067 -5.61866,-0.616 -8.408,-0.916 1.88,-9.05733 2.91067,-18.28933 3.40667,-27.52666 -0.0173,-5.336 0.15333,-11.95467 -0.47467,-17.25734 l -0.65466,-6.91066 c -0.544,-3.316 -1.31334,-6.96134 -1.93334,-10.28667 -0.716,-2.636 -1.66133,-5.804 -2.48933,-8.416 -0.73467,-1.82933 -1.88267,-4.732 -2.672,-6.53733 -0.55067,-1.124 -1.91733,-3.532 -2.53867,-4.684 -1.26133,-2.28934 -2.96,-4.548 -4.744,-6.60534 -1.58666,-0.756 -3.19333,-1.55333 -4.80666,-2.376 2.116,2.2 3.95466,4.72134 5.46666,7.30134 6.88,11.652 9.39334,25.52533 10.75467,38.86266 0.544,3.87334 0.63867,9.58534 0.83733,13.544 0.252,3.916 -0.0187,9.58934 -0.0293,13.58 0.0347,3.848 -0.57733,11.79867 -0.95467,17.22267 -2.836,-0.304 -5.64533,-0.60134 -8.432,-0.89334 1.21467,-6.27599 2.27467,-12.61599 2.676,-19.00133 0.24667,-3.66533 0.46667,-7.344 0.60534,-11.01866 -0.0493,-2.29734 -0.25067,-8.71734 -0.316,-11.07067 -0.256,-4.86 -1.04,-9.92133 -1.70667,-14.74 -1.54667,-7.26267 -3.27333,-14.716 -6.49067,-21.48933 l -1.55333,-3.43734 c -0.988,-1.99066 -2.736,-4.54933 -3.85733,-6.524 -1.696,-2.37466 -3.59467,-4.724 -5.696,-6.868 -2.28934,-1.19866 -4.49867,-2.34133 -6.56667,-3.35466 4.80667,4.06133 8.59733,9.34133 11.43333,14.93333 6.39334,12.36533 8.964,26.27867 10.57334,39.99867 0.212,3.27466 0.61866,9.40933 0.82933,12.66 0.0773,2.548 0.032,8.216 0.0533,10.88 0.13867,4.29333 -0.44533,13.14533 -0.77466,18.95066 -1.768,-0.18533 -3.53867,-0.37067 -5.27734,-0.54933 -0.74133,-0.0813 -1.484,-0.14934 -2.22666,-0.228 5.43733,-21.09733 3.79865,-51.32689 -5.86483,-70.54054 -1.80639,-11.82979 -5.21957,-17.18368 -6.81578,-19.88907 -1.4065,-2.38386 -4.08473,-6.55039 -6.29006,-8.21972 l -4.65119,-1.76206 c 0.57866,0.496 1.95261,2.16359 1.95261,2.16359 3.29927,3.79724 4.98304,5.89028 6.94171,9.93828 1.91733,3.96267 3.4728,7.59621 4.55211,12.34646 1.37421,6.04815 1.69839,12.32808 -1.35361,17.07875 -1.11866,1.65067 -0.98563,4.20298 -1.45096,6.10298 -3.51734,17.948 -4.3,36.30533 -5.47734,54.51866 l -0.02,0.36 0.36,0.0373 z"
       style="opacity:0.199997;fill:#000000;fill-opacity:1;fill-rule:nonzero;stroke:none;stroke-width:1.33333"
       id="path172096"
       sodipodi:nodetypes="cccccccccccccccccccccccccccccccccccccccccccccccccccccccccccccccccccccccccccccccccccccccccccccccccccccscccsscccccc" /><path
       id="path172112"
       style="opacity:0.199997;fill:#000000;fill-opacity:1;fill-rule:nonzero;stroke:none;stroke-width:1.333;stroke-dasharray:none"
       d="m 70.369141,269.35742 c -1.625672,-0.0169 -2.878907,0.1211 -2.878907,0.1211 l -1.65625,0.7207 c 0,0 4.075134,0.57804 6.615235,1.14844 -1.749787,3.04474 -11.483245,20.18136 -15.996094,32.95117 -4.774317,13.50964 -7.465017,33.27501 -9.474609,46.41015 -1.611192,10.53113 -2.189208,24.55943 -2.365235,30.08008 l -6.058593,-5.6289 c 0.172423,-1.77742 2.179732,-22.4536 3.529296,-34.03907 1.408045,-12.08741 5.296875,-41.03711 5.296875,-41.03711 l -2.427734,4.0586 c 0,0 -4.06369,24.5559 -5.476563,36.57812 -1.151711,9.80006 -2.397347,26.5564 -2.835937,32.66211 l -5.78125,-4.99414 c 0,0 -0.711967,3.52027 -0.314453,3.81641 1.836737,1.36834 13.951382,13.59607 15.3125,13.5957 0.61752,-1.7e-4 73.841798,-45.09961 73.841798,-45.09961 l -1.28125,-2.70508 c -1.16766,0.73269 -5.06503,3.112 -9.05469,5.55664 0.24699,-2.41627 0.56988,-5.50609 0.82422,-7.44531 0.32701,-2.49321 0.7219,-5.58495 0.9082,-7.04101 0.20708,0.69493 2.84331,8.03358 2.84331,8.03358 l 0.37709,-0.16732 c 0,0 -4.07176,-18.70992 -7.87665,-27.91705 -2.97921,-7.20912 -4.22234,-10.06182 -6.375,-14.16601 -4.001421,-7.62901 -9.212302,-14.80445 -13.634762,-19.0332 -4.344354,-4.15409 -8.063933,-4.82716 -10.617188,-5.87305 -1.496391,-0.61296 -3.817689,-0.56907 -5.443359,-0.58594 z m 3.916015,2.49805 c 0.147875,0.0507 0.318877,0.0997 0.447266,0.15234 2.195757,0.89945 4.555435,1.60367 7.513672,3.86328 -0.499332,0.93655 -11.362949,21.35269 -15.011719,32.05079 -3.67165,10.76516 -5.713813,20.91631 -7.730469,32.27539 -1.936748,10.90897 -2.657393,32.77882 -2.83789,35.30273 l -10.21875,6.23828 c 0.39029,-4.14608 1.889447,-19.62433 3.611328,-30.8789 2.009259,-13.13301 5.575099,-31.45652 9.720703,-45.46876 3.675801,-12.42427 13.42525,-31.44162 14.505859,-33.53515 z m 9.21875,5.04492 c 0.331005,0.28832 0.659336,0.56709 1.00586,0.89844 1.355125,1.29577 2.771784,3.07051 4.207031,5.11133 -0.604056,1.39171 -11.100725,28.60775 -14.785156,43.00781 -3.145693,12.29448 -4.836002,34.78651 -5.515625,42.72461 l -10.265625,5.9043 c 0.80511,-5.88288 2.748298,-24.17031 4.419921,-33.58594 1.996121,-11.2434 4.37333,-21.34557 7.976563,-31.91016 3.366172,-9.86952 12.080017,-30.11741 12.957031,-32.15039 z m 6.38086,7.72656 c 1.895232,2.8711 4.985587,6.33155 6.825794,9.68922 -2.633792,5.63522 -9.415518,21.97782 -12.439076,38.37524 -2.659222,14.4215 -3.611413,25.09095 -3.589843,27.75195 l -9.707032,6.57812 c 0.437606,-9.13451 3.007388,-28.77997 5.931641,-40.20898 3.473788,-13.57679 12.444544,-40.5151 12.978516,-42.18555 z m 7.696888,11.30055 c 1.934218,3.66877 4.569136,8.36469 6.314826,12.5725 -1.08824,4.67909 -4.388935,15.64916 -5.628902,25.00195 -0.914027,6.89431 -1.915612,13.98117 -1.914062,18.05469 -4.958217,3.07367 -7.11212,4.28561 -13.292969,7.88672 0.413553,-2.82943 1.634279,-12.18666 4.123047,-26.11719 2.347753,-13.1412 6.547919,-27.89906 10.39806,-37.39867 z m 7.689826,15.88891 c 1.87799,4.56544 3.75031,10.47467 5.08204,14.82421 -0.51881,2.18703 -1.61789,6.95161 -1.94727,9.4629 -0.28496,2.17268 -0.38677,5.92163 -0.42383,8.29687 -4.36989,2.67649 -8.899091,5.45878 -9.880858,6.06445 -0.0424,-4.57015 1.604435,-11.14534 2.638668,-17.21875 1.28531,-7.54775 3.89615,-15.8946 4.53125,-21.42968 z"
       sodipodi:nodetypes="scccssccsccsccsscccscccssssscccssccssccscsccsscccsccscccsccscccsccsc" /><path
       d="m 381.61786,356.58493 c -0.90267,-4.332 -3.40667,-15.60533 -6.80934,-24.83866 l -0.044,0.11067 c 0.144,-1.24534 0.356,-2.39734 0.66,-3.39067 0.16534,-0.54267 0.304,-1.244 0.42134,-2.052 1.396,6.02267 4.72933,20.90133 5.828,30.216 z m -5.784,-4.74266 c 0,0 -1.26267,-7.58267 -1.31334,-14.716 1.584,4.00933 4.62667,12.344 4.78934,17.56666 z m 8.17333,-3.29067 c -1.82933,-7.664 -4.608,-18.18 -7.78133,-26.37466 0.0893,-1.728 0.13466,-3.65867 0.14666,-5.708 1.248,2.47466 3.296,6.97066 5.35467,11.448 -0.32,-2.184 -0.656,-4.46 -1.00533,-6.77467 l -4.35867,-8.00533 c -0.0813,-7.884 -0.54267,-16.66134 -0.85333,-21.81734 -0.12934,-0.50933 -0.25467,-0.976 -0.37334,-1.35733 -0.20533,-0.66933 -0.404,-1.29067 -0.59866,-1.888 l -1.36934,0.81467 c 0,0 2.46134,34.24533 0.20534,41.628 -2.256,7.38133 0.40933,23.37599 0.40933,23.37599 l 10.25333,8.408 c 0,0 0.15467,-0.008 0.42,-0.0227 z"
       style="opacity:0.199997;fill:#000000;fill-opacity:1;fill-rule:nonzero;stroke:none;stroke-width:1.33333"
       id="path172160" /><path
       d="m 171.5801,211.27639 -37.96522,18.50135 -38.589327,21.8418 -11.736743,6.16192 -6.978515,5.21468 -9.458667,6.824 -8.589333,6.69866 L 40.594354,313.84335 27.202663,391.62673 26.678065,400 h 29.32244 c 21.624703,-77.54889 34.366618,-92.52242 41.105648,-98.36756 6.739027,-5.84515 15.611687,-9.92638 23.283687,-12.71571 67.72267,-24.62667 95.54706,-23.81363 95.54706,-23.81363 0,0 -36.94051,-26.55233 -35.38898,-54.35724 -2.58856,0.14366 -6.57948,0.0512 -8.96782,0.53053 z"
       style="display:inline;opacity:0.199997;fill:#000000;fill-opacity:1;fill-rule:nonzero;stroke:none;stroke-width:1.33333"
       id="path172176"
       sodipodi:nodetypes="ccccccccccczcccc" /><path
       d="m 163.9916,353.1308 c -14.48934,1.07867 -25.88534,2.11867 -32.53334,2.76133 l -6.20629,2.224 c 0,0 2.16032,18.5477 4.04081,41.88387 h 19.88169 c 1.04,-22.69333 5.88533,-42.47372 6.92667,-46.56572"
       style="opacity:0.199997;fill:#000000;fill-opacity:1;fill-rule:nonzero;stroke:none;stroke-width:1.33333"
       id="path172192"
       sodipodi:nodetypes="cccccc" /><path
       d="m 274.23093,271.50774 -2.432,16.08533 -2.21467,-18.408 0.26533,-7.68 c 1.02667,-1.524 4.72534,-6.69333 6.62667,-5.004 2.21867,1.97333 -2.24533,15.00667 -2.24533,15.00667 m -3.98667,27.788 c -0.29867,2.46 -1.39867,2.476 -1.788,-0.76667 -1.13467,-9.43467 -3.93067,-27.74533 -3.93067,-27.74533 0,0 2.65734,-0.432 3.66,-2.19867 l 2.74934,24.06667 c 0,0 -0.31067,3.52266 -0.69067,6.644 m 6.72533,-53.152 -3.9725,-0.49254 -4.4555,4.4352 c 0,0 -3.37333,1.588 -0.92533,15.82934 -0.25067,0.58933 -0.488,1.06133 -0.69333,1.328 -0.384,0.49866 -2.19334,0.88933 -3.03334,1.19333 -3.256,-9.04667 0.77734,-19.536 1.536,-20.672 l -4.424,2.91733 c -0.60933,-0.11066 -2.86933,10.04934 -1.036,16.716 0.23067,0.83867 -0.24533,2.25867 -1.06666,2.164 -1.23067,-0.14266 -3.11467,0.27067 -3.24667,-0.524 -1.596,-9.62533 0.388,-17.56266 0.388,-17.56266 l -5.74667,-1.94 c 0,0 1.63734,1.93733 1.64134,2.86133 0.016,3.89467 -0.072,13.06533 0.0533,14.036 0.156,1.20267 -0.896,1.88267 -1.428,1.812 -2.976,-0.39733 -5.99867,-1.08933 -9.504,-1.85467 0,0 7.932,3.61867 11.868,4.21334 l 8.75867,47.128 3.11066,3.10266 -7.18666,-49.23466 3.45066,0.44266 c 0,0 4.288,25.796 6.404,44.24934 l -1.4,9.25866 8.19467,10.84933 5.35467,-63.57066 c 0,0 2.78266,-6.71067 2.78266,-10.16267 0,-3.452 -5.59077,-18.02359 -5.59077,-18.02359 z"
       style="opacity:0.199997;fill:#000000;fill-opacity:1;fill-rule:nonzero;stroke:none;stroke-width:1.33333"
       id="path172208"
       sodipodi:nodetypes="ccccccccccccccccscccscccccccccccccccccscc" /><path
       style="opacity:0.2;fill:#000000;fill-opacity:1;stroke:none;stroke-width:0.911631px;stroke-linecap:butt;stroke-linejoin:miter;stroke-opacity:1"
       d="m 368.9541,353.5484 c 0,0 6.16873,24.64853 6.43777,33.1715 0.26904,8.52297 0.42919,13.2801 0.42919,13.2801 H 366.379 Z"
       id="path2"
       sodipodi:nodetypes="czccc" /></g><g
     inkscape:groupmode="layer"
     id="layer2"
     inkscape:label="Bolian Ridge"
     style="display:none"><path
       style="display:inline;fill:none;stroke:#000000;stroke-width:0.8;stroke-linecap:butt;stroke-linejoin:miter;stroke-dasharray:none;stroke-opacity:1"
       d="m 260.11976,248.62275 23.2919,-42.7347"
       id="path1746"
       sodipodi:nodetypes="cc" /><path
       style="color:#000000;display:inline;fill:#000000;fill-opacity:0.2;-inkscape-stroke:none"
       d="m 280.56961,203.94359 -23.46249,43.15852 1.7902,0.83818 23.12351,-42.81954 z"
       id="path1748"
       sodipodi:nodetypes="ccccc" /></g></svg>
