<?xml version="1.0" encoding="UTF-8" standalone="no"?>
<!-- Created with Inkscape (http://www.inkscape.org/) -->

<svg
   version="1.1"
   id="svg282014"
   width="400"
   height="400"
   viewBox="0 0 400 400"
   sodipodi:docname="Body5_revised.svg"
   inkscape:version="1.3.2 (091e20e, 2023-11-25)"
   xml:space="preserve"
   xmlns:inkscape="http://www.inkscape.org/namespaces/inkscape"
   xmlns:sodipodi="http://sodipodi.sourceforge.net/DTD/sodipodi-0.dtd"
   xmlns="http://www.w3.org/2000/svg"
   xmlns:svg="http://www.w3.org/2000/svg"><defs
     id="defs282018" /><sodipodi:namedview
     id="namedview282016"
     pagecolor="#ffffff"
     bordercolor="#666666"
     borderopacity="1.0"
     inkscape:showpageshadow="2"
     inkscape:pageopacity="0.0"
     inkscape:pagecheckerboard="0"
     inkscape:deskcolor="#d1d1d1"
     showgrid="false"
     inkscape:zoom="2.105"
     inkscape:cx="200"
     inkscape:cy="200"
     inkscape:window-width="1776"
     inkscape:window-height="1055"
     inkscape:window-x="2232"
     inkscape:window-y="32"
     inkscape:window-maximized="0"
     inkscape:current-layer="g282022"><inkscape:page
       x="0"
       y="0"
       id="page282020"
       width="400"
       height="400"
       margin="0"
       bleed="0" /></sodipodi:namedview><g
     inkscape:groupmode="layer"
     id="layer4"
     inkscape:label="Neck"
     sodipodi:insensitive="true"
     style="display:none"><path
       d="m 213.63253,151.29441 -5.49067,30.848 -9.21193,18.45217 c 0,0 13.57993,22.69982 22.61726,29.33716 9.03734,6.636 24.148,15.816 35.02134,17.228 l 3.67066,3.67066 2.82534,-2.824 5.224,-2.25866 1.832,-12.39334 13.08133,-27.18533 z"
       style="fill:#cd976d;fill-opacity:1;fill-rule:nonzero;stroke:none;stroke-width:1.33333"
       id="path283414"
       sodipodi:nodetypes="ccccccccccc" /><path
       d="m 199.16985,199.75598 c 0,0 11.14568,18.87824 18.74974,25.74882 16.89748,4.64849 35.91739,5.03279 53.5,5.14934 l 11.78267,-24.48534 -69.56933,-54.87466 -5.69867,31.472 z"
       style="opacity:0.199997;fill:#000000;fill-opacity:1;fill-rule:nonzero;stroke:none;stroke-width:1.33333"
       id="path283424"
       sodipodi:nodetypes="ccccccc" /><path
       d="m 211.64493,149.52841 c -1.01067,4.99733 -2.99139,25.24509 -4.128,30.15333 -1.11614,3.58085 -2.42213,8.10992 -4.32571,11.82632 -1.90358,3.7164 -2.7377,5.49633 -4.27987,8.42311 l 2.35504,3.10823 c 4.22257,-7.93797 7.1452,-15.38433 8.95587,-21.62566 1.29067,-4.45067 3.76533,-24.06133 5.256,-28.47867 l -3.83333,-3.40666"
       style="fill:#000000;fill-opacity:1;fill-rule:nonzero;stroke:none;stroke-width:1.33333"
       id="path283434"
       sodipodi:nodetypes="cczccccc" /><path
       d="m 285.86613,207.63814 c -2.232,2.508 -11.62934,23.48 -13.308,26.58266 -1.36534,2.52267 -2.372,12.41734 -5.128,12.788 -1.86267,0.25067 -2.084,-3.988 -1.828,-5.81866 0.124,-0.87467 14.504,-36.10934 14.504,-36.10934 0,0 5.76,2.55734 5.76,2.55734"
       style="fill:#000000;fill-opacity:1;fill-rule:nonzero;stroke:none;stroke-width:1.33333"
       id="path283438" /></g><g
     id="g282022"
     inkscape:groupmode="layer"
     inkscape:label="Page 1"><path
       d="m 275.46293,349.22293 c 14.22266,0.29467 25.90266,0.71734 35.704,1.21067 3.26666,0.164 6.33333,0.336 9.21066,0.51467 3.62534,-0.048 7.21734,0.0613 10.76934,0.33733 3.55333,0.276 25.23999,5.80933 25.23999,5.80933 0,0 16.34667,6.74934 23.33734,11.584 0.97066,-10.13866 1.22,-17.81066 -1.06134,-25.48933 -1.22133,-4.10533 -1.94181,-13.74622 -3.15915,-17.85289 -6.204,-24.60533 -8.50044,-38.31011 -26.38731,-48.76658 -12.8914,-3.90462 -34.60396,-14.01915 -47.00967,-15.45814 -5.24834,-0.67437 -13.24154,-7.73644 -17.09354,-9.26711 -4.1026,-3.17146 -3.03009,-1.02294 -7.12616,-5.58947 0,0 0.36384,0.81953 1.75184,4.50619 0.85333,2.26934 2.54666,5.052 2.72133,7.436 0.21333,2.88934 -0.85467,6.19734 -1.51333,8.98267 -0.71334,3.00933 -8.50659,10.69647 -10.95418,12.62687 0.21638,3.7679 0.44718,5.4025 1.22345,11.83805 1.67196,21.4335 3.10006,45.91774 3.10006,45.91774 l -36.05867,-64.73333 -4.42286,-2.00216 c 0,0 -13.2996,-4.79126 -35.44493,-23.81392 -2.768,-2.37867 -6.10687,-7.24125 -8.05087,-9.59058 -1.94267,-2.34934 -3.50933,-4.592 -4.76267,-6.70534 -4.14266,-6.31866 -3.66362,1.74521 -3.66362,-6.25479 -14.34654,6.4495 -26.45614,10.66893 -50.14814,24.25293 -16.34721,4.40719 -36.792236,9.01386 -54.478902,19.41653 -3.369333,1.98133 -12.235784,6.10027 -15.737253,8.22656 -9.936686,13.29958 -9.370619,20.97003 -15.103952,36.71669 -0.656343,2.91272 -1.569301,6.39781 -3.567864,12.57231 -4.402769,16.19096 -7.370155,25.5266 -8.899488,40.02126 -0.958667,5.632 -0.927074,10.69138 -1.843138,18.00355 -0.31846,4.11347 -0.340886,11.04639 -0.965118,14.37798 2.922667,0.34 10.975002,-5.10458 13.848335,-5.73258 8.405333,-1.84 16.507145,-7.14177 24.723145,-9.76444 9.216,-2.94133 18.306666,-6.41867 27.011999,-10.76667 4.298666,-2.148 8.507996,-4.50533 12.545336,-7.15733 2.42666,-1.59467 7.98933,-7.792 10.564,-8.08267 0.009,-10e-4 79.85333,-8.89333 155.70133,-7.324"
       style="fill:#7d7d7d;fill-opacity:1;fill-rule:nonzero;stroke:none;stroke-width:1.33333"
       id="path283350"
       sodipodi:nodetypes="ccccccccccccccccccccccccccccccccccccsc" /><path
       d="m 251.45666,332.93947 c -2.968,-8.82133 -6.00133,-17.62 -9.1,-26.39733 l 11.868,26.35466 c -0.91333,0.0133 -1.84267,0.028 -2.768,0.0427 m -17.20133,-15.8067 c -3.716,-14.82533 -9.13734,-29.30133 -16.23734,-42.87333 3.456,2.072 6.99734,4.00933 10.58534,5.868 6.45733,17.764 13.372,35.96933 21.92266,52.82667 -4.25466,0.0667 -8.62933,0.14666 -13.084,0.236 -0.764,-5.41067 -1.872,-10.76 -3.18666,-16.05734 m -11.76934,16.38267 c -2.70133,-11.768 -6.21866,-23.32667 -10.28666,-34.688 -5.30534,-14.32267 -12.13734,-30.39333 -21.20267,-44.75067 0.0853,0.0827 0.168,0.16667 0.25334,0.248 6.20933,5.78534 12.89066,10.96534 19.92266,15.63334 11.448,19.684 19.80933,41.19466 25.524,63.24666 -4.668,0.0947 -9.41867,0.19867 -14.21067,0.31067 m 37.45734,2.64533 c -0.0253,-0.0187 -0.416,-0.84667 -1.07734,-2.28 0.38534,-0.61333 -25,-55.03333 -25.292,-55.04933 -5.592,-2.79067 -12.08,-6.23333 -18.65066,-10.24667 -39.092,-28.32666 -39.24739,-41.32817 -39.24739,-41.32817 l -1.65203,1.244 c 0.288,2.37733 0.34339,1.99351 0.91139,4.34151 0.51467,1.94133 3.46212,7.29838 4.25145,9.12905 -5.856,-6.92134 -5.25837,-5.34576 -12.68237,-9.82176 -0.46267,0.244 -0.924,0.48533 -1.392,0.732 33.29067,23.852 43.34825,64.33537 56.90425,100.6447 -4.58533,0.10667 -9.2,0.21867 -13.81333,0.33334 -2.39734,-11.12 -5.59867,-22.04667 -9.35333,-32.77867 -10.32,-28.264 -17.10774,-45.88798 -42.51304,-63.76343 -0.43867,0.236 -0.87867,0.47466 -1.31733,0.712 2.212,1.52666 4.33733,3.164 6.356,4.936 27.2201,26.26646 33.88237,56.30477 46.30503,90.90743 -4.604,0.11467 -9.19466,0.232 -13.74133,0.348 -2.096,-10.47733 -4.98667,-20.776 -8.43067,-30.88533 -9.64133,-27.296 -13.72951,-45.68477 -38.88671,-61.83898 -0.456,0.24933 -0.912,0.5 -1.368,0.75066 30.15997,23.95945 36.02405,57.37632 48.10271,91.98832 -4.62,0.11866 -9.192,0.23733 -13.664,0.35066 -1.79733,-9.83599 -4.39733,-19.50799 -7.384,-28.99599 -7.94,-24.53867 -12.11272,-38.92043 -32.28759,-56.82206 -1.75467,-1.20134 -3.57334,-2.28534 -5.424,-3.29734 -0.47734,0.264 -0.95067,0.528 -1.42667,0.792 3.04667,2.04 -0.5084,-0.89394 2.2516,1.39673 24.40133,21.472 33.27733,55.75867 43.63066,86.94266 -4.65733,0.11867 -8.948,0.23067 -13.132,0.336 -1.42933,-9.18666 -3.59466,-18.22799 -6.28933,-27.09066 -7.25067,-23.36667 -16.16933,-45.32133 -36.95467,-58.19333 -1.62266,-0.96134 0.41524,0.33969 -1.28209,-0.45631 -0.484,0.3 -0.964,0.59866 -1.44267,0.89466 2.86133,1.70534 1.8941,1.41765 4.48743,3.54165 23.828,20.25733 31.72667,51.37733 40.804,81.32133 -0.796,0.02 -1.608,0.04 -2.39333,0.06 -3.48267,0.0707 -6.96267,0.176 -10.444,0.29066 -1.152,-8.54133 -3.032,-16.95599 -5.44134,-25.19866 -6.556,-22.19467 -16.04773,-41.4971 -35.98639,-53.14643 -1.46667,-0.832 -2.97467,-1.56667 -4.50134,-2.25733 -0.492,0.30666 -0.98,0.612 -1.46133,0.91333 1.71467,0.99467 3.388,2.04 4.992,3.19067 24.93333,18.396 33.17573,46.97443 41.65173,76.52376 -4.24267,0.14266 -8.48533,0.30133 -12.72667,0.46666 -0.87866,-7.93466 -2.48133,-15.76533 -4.61866,-23.42799 -5.87467,-21.01067 -19.14667,-40 -38.228002,-50.38267 -1.284,-0.71333 -1.409062,-0.43647 -2.746395,-1.0218 -0.510667,0.32133 -1.492376,0.33927 -1.983042,0.64727 2.436,1.39733 4.064103,2.3092 6.313437,4.07053 22.041332,16.99733 33.362662,43.32933 40.468002,70.14533 -1.39067,0.0547 -10.70918,0.78547 -12.09984,0.8388 -0.82934,-3.23066 -1.756,-7.11066 -2.66534,-9.84666 -0.72666,-2.08133 -2.28933,-6.81733 -3.05333,-8.82667 -3.18676,-7.92823 -5.31789,-14.30194 -9.07029,-20.39008 -8.456,-13.77066 -17.176082,-24.238 -30.697415,-32.51 -0.848017,0.47928 -3.189039,1.37373 -1.514084,0.65007 5.0947,3.93614 7.204457,4.72871 12.723323,10.98218 5.518865,6.25348 19.263796,24.2825 25.119796,39.37983 1.43067,3.19867 2.87067,8.14667 3.984,11.528 1.07177,4.11895 2.1422,7.95391 3.36982,12.08737 0.0888,-0.1167 135.94599,-3.01284 135.95132,-3.03017 0,0 -0.244,-0.53067 -0.24266,-0.53067"
       style="opacity:0.199997;fill:#000000;fill-opacity:1;fill-rule:nonzero;stroke:none;stroke-width:1.33333"
       id="path283360"
       sodipodi:nodetypes="cccccccccccccccccccccccccccccccccccccccccccccccccccccccccccccccccccccccccczccccc" /><path
       d="m 31.482052,395.28734 c 0.446666,2.49334 1.180614,2.08466 1.540614,4.67933 h 20.166666 c 0.196,-3.43334 -0.168,-7.00134 -0.09067,-10.296 0.142667,-6.028 1.809568,-11.8813 2.717568,-17.83597 1.664043,-10.89316 4.390792,-21.53944 8.717099,-31.40937 5.682623,-10.91971 7.04473,-14.96286 12.227828,-24.25379 8.061621,-9.83474 8.681112,-10.66445 17.276729,-16.04664 9.830784,-5.05831 15.433984,-7.8084 26.708774,-12.5209 12.06134,-4.93733 26.01867,-8.93733 38.75867,-12.128 2.82667,-0.80533 5.532,-1.54666 8.11733,-2.22666 28.43467,-7.48134 48.85975,-10.78844 48.85975,-10.78844 0,0 -11.6028,-5.51607 -20.87346,-16.6534 -3.08933,-3.71334 -5.02725,-4.512 -7.25392,-8.99734 -2.228,-4.484 -3.54315,-5.33167 -8.02103,-10.32829 -6.75333,2.5483 -26.119,9.03784 -47.707,21.33251 -18.69995,5.86575 -35.845712,11.49837 -55.441672,20.31762 -6.939001,2.88838 -12.359196,4.7333 -15.263196,7.33997 -9.815593,11.6216 -13.675677,21.85662 -18.57202,40.35778 -3.949413,17.25627 -7.765364,34.88594 -9.352248,49.71932 -1.108,6.50533 -0.995824,8.39911 -2.471784,17.39312 0.117676,5.33145 -0.859554,8.65545 -0.283552,11.86611"
       style="opacity:0.199997;fill:#000000;fill-opacity:1;fill-rule:nonzero;stroke:none;stroke-width:1.33333"
       id="path283392"
       sodipodi:nodetypes="cccccccccccccccccccccc" /><path
       d="m 381.71966,399.96653 c -0.20025,-12.17983 -0.90286,-24.58738 -1.40185,-31.04593 -0.16001,-2.07108 -7.47333,-5.90132 -13.78529,-8.19407 -2.09118,-0.7596 -4.05333,-2.13333 -6.17866,-2.62 -2.14934,-0.49333 -4.32,-0.69333 -6.46,-1.46933 -1.84134,-0.668 -3.72667,-1.292 -5.668,-1.6 -1.728,-0.276 -3.52134,0.092 -5.164,-0.272 -3.94667,-0.872 -7.34934,-2.36267 -11.50667,-2.51467 -3.77866,-0.14 -7.45733,-1.07333 -11.17733,-1.30266 -2.87733,-0.17734 -5.94533,-0.35067 -9.212,-0.51467 -9.8,-0.49333 -21.48,-0.916 -35.70267,-1.21067 -75.85333,-1.56933 -155.70133,7.324 -155.70133,7.324 -16.63962,9.13585 -30.484657,15.37734 -50.081232,24.02985 -7.902826,3.48935 -14.193365,6.84482 -24.291345,10.71675 -2.838715,-2.41017 -9.49829,-10.40518 -11.84229,-8.89452 -2.472,1.59467 -1.839794,13.74392 -1.659794,16.83459 0.01467,0.24667 0.03333,0.48933 0.052,0.73333 z"
       style="fill:#2d2d2d;fill-opacity:1;fill-rule:nonzero;stroke:none;stroke-width:1.33333"
       id="path283402"
       sodipodi:nodetypes="csscccccscccsccccc" /><path
       d="m 197.15857,245.26934 c 22.14533,19.02267 37.30796,24.15266 37.30796,24.15266 l 3.408,4.54267 37.3747,64.6149 c 0,0 -1.42561,-35.20589 -3.45551,-55.44046 0,0 3.557,-2.27941 5.87615,-5.35779 4.06475,-5.52191 4.99666,-11.11532 5.34199,-16.01798 -0.70533,-1.992 -2.26933,-6.17867 -3.65733,-9.86534 -1.388,-3.688 -3.19155,-6.79377 -3.19155,-6.79377 l -0.55153,-2.79466 -4.69089,-7.3418 -3.65178,9.36901 -4.20492,3.66922 -2.824,2.82534 -3.672,-3.672 c -10.87333,-1.412 -27.00131,-9.31737 -36.03864,-15.9547 -9.03867,-6.63734 -26.72866,-28.30335 -26.72866,-28.30335 -0.90211,-1.04136 -1.07338,-0.96785 -2.27357,-0.50452 l -2.85579,11.05437 c -6.57413,9.12628 -6.37992,11.66542 -2.52126,19.10409 1.25467,2.11333 1.86192,3.63744 3.80592,5.98677 1.94267,2.34934 3.41851,2.14824 6.18651,4.52557"
       style="fill:#d30000;fill-opacity:1;fill-rule:nonzero;stroke:none;stroke-width:1.33333"
       id="path283406"
       sodipodi:nodetypes="cccccccccccccccccccccc" /><path
       d="m 199.85386,247.78521 c -2.956,-2.45467 -5.49586,-4.13921 -8.94786,-7.61521 -9.57334,-13.50887 -10.81672,-11.21418 -2.06274,-27.26703 3.5985,-6.47393 4.92744,-9.91038 4.92744,-9.91038 l 2.05459,4.26669 c 6.96779,12.37677 9.38252,15.82793 17.72652,24.05193 7.41067,7.304 13.41552,12.50013 26.05685,15.66013 4.20667,1.052 3.568,11.54666 3.352,13.924 -0.216,2.37733 -9.13063,10.73787 -23.27996,0.78187"
       style="opacity:0.199997;fill:#000000;fill-opacity:1;fill-rule:nonzero;stroke:none;stroke-width:1.33333"
       id="path283456"
       sodipodi:nodetypes="cccccccsc" /><path
       id="path283442"
       style="fill:#000000;fill-opacity:1;fill-rule:nonzero;stroke:none;stroke-width:1.33333"
       d="m 192.67969,199.00195 c -0.26366,0.0623 -0.51022,0.19709 -0.71289,0.39844 -4.83261,10.71265 -6.07201,13.95254 -10.0586,22.45508 -1.29333,0.0667 -4.56224,2.45161 -5.6289,3.09961 -1.47333,0.896 -4.02844,2.26358 -8.73438,4.4082 -4.70589,2.14462 -12.46308,6.36179 -21.5957,10.50195 -9.13262,4.1402 -17.97778,6.15144 -29.99024,10.17188 -12.01241,4.02044 -39.269549,15.33508 -51.14648,20.48633 -1.801456,1.21501 -3.931006,1.84123 -5.560547,3.04101 -15.771595,29.05003 -24.623222,71.03071 -28.144531,97.73828 -1.286847,11.80771 -1.337818,18.41266 -1.617188,28.14063 -0.03067,0.17466 -0.07629,0.34877 -0.126953,0.52344 h 4.427735 c 0.557379,-0.25223 1.640625,-15.13867 1.640625,-15.13868 2.959465,3.12099 7.401968,6.23046 11.451171,9.82813 5.52571,-2.77694 18.987658,-9.27566 26.984376,-12.67187 14.241468,-6.04842 28.978672,-13.75385 38.552732,-19.00782 4.15245,-2.45845 5.46072,25.28472 5.29492,37.02344 h 5.29297 c -0.18394,-6.26654 -0.3255,-16.81413 -0.43554,-21.16211 -0.11004,-4.34798 -0.86317,-17.0713 -0.94336,-20.73437 11.72365,-0.90831 30.26466,-1.57553 42.90625,-2.23243 42.3186,-2.64306 87.0766,-2.77718 101.68554,-3.50976 3.63333,-0.18133 22.51937,0.39412 42.8086,1.57812 4.05728,0.236 8.20456,0.49725 12.33789,0.78125 5.63995,0.388 11.32551,0.10824 16.9375,0.87891 5.55862,0.76266 10.79147,1.51872 16.21679,3.02539 2.564,0.71066 5.17754,1.21535 7.76954,1.80469 5.37925,1.45132 14.61726,7.94404 16.9604,9.449 C 380.09323,380.79587 380.23437,400 380.23438,400 h 3 c 0,0 -0.16547,-21.31595 -1.09961,-32.27344 -1.59481,-18.7063 -2.63514,-37.8348 -7.72071,-56.16406 -2.25346,-8.12187 -5.2481,-16.33631 -10.0664,-23.45312 -2.94579,-3.43977 -5.42686,-7.29094 -8.83789,-10.28907 -15.43354,-6.77409 -38.76134,-14.09561 -56.10352,-18.07422 -7.13234,-5.81349 -14.90345,-9.96337 -18.94531,-12.5664 -4.04188,-2.60307 -4.17872,-2.70317 -4.24024,-3.10742 -0.59733,-3.92516 -1.06516,-5.53493 -2.49609,-7.41211 l -4.39649,-3.61719 c -0.065,2.19978 -0.33256,3.26082 -1.66406,5.43945 -1.17806,1.92755 -2.00752,3.1176 -3.33203,4.88672 -1.13799,1.51998 -1.92105,1.79697 -2.60351,2.63867 -0.4665,0.57532 -0.94206,1.77279 -1.35352,2.38867 l -1.80469,-2.52734 c -0.27066,-0.37867 -0.68967,-0.62254 -1.15234,-0.67187 -40.28247,-4.27334 -62.54102,-44.07813 -62.54102,-44.07813 l 0.80664,-1.83984 c -0.27333,-0.0907 -1.8506,-0.23361 -2.22656,-0.24805 z m 1.375,7.3125 c 3.29328,4.84227 5.66273,8.76018 9.10156,12.44336 6.05788,6.52703 8.3843,8.97235 14.77148,13.82813 8.63684,6.56597 16.84807,9.49609 25.63868,12.71875 4.12129,1.512 8.41868,2.53149 12.77734,3.04883 l 2.75195,3.85546 c 0.31066,0.43466 0.77824,0.68297 1.35157,0.68164 1.30262,-9.5e-4 1.33806,-1.26579 1.91406,-2.09374 1.88216,-2.70785 3.56409,-4.45025 4.57031,-5.55079 0.94478,-1.03334 2.32047,-2.78152 3.18359,-3.86132 0.45924,-0.57452 1.63944,-3.18375 1.51954,-3.51758 0.47157,1.30009 1.26646,2.41026 1.66796,4.05273 0.30041,1.2289 0.47323,2.84302 -0.35742,4.28125 -0.792,1.37467 -3.271,4.45742 -3.73633,6.08008 -0.65463,2.28 -0.90751,4.53042 -1.10351,6.84375 -0.19333,2.27067 0.13581,3.42978 1.00781,5.64844 1.08334,-5.25687 1.2325,-9.4661 3.67383,-13.93555 0.85566,-1.5665 2.03792,-2.59426 2.58203,-3.41211 1.08177,1.3839 2.39499,3.24036 2.89063,4.53125 1.60928,4.188 4.5163,10.31921 1.82031,18.15235 -2.69599,7.8331 -6.31272,11.12389 -9.17969,12.49218 -0.28434,9.74566 -0.27942,21.34052 0.50391,34.27735 0.53007,8.33603 1.05544,11.08229 1.28515,15.60547 l -34.37109,-62.04102 c -13.54516,-4.82972 -29.87023,-17.00096 -33.99609,-20.56641 -4.1259,-3.5654 -10.26108,-9.84706 -12.70508,-12.90039 -2.444,-3.05195 -6.28742,-8.95629 -7.96875,-11.84961 3.04444,-5.77505 7.21752,-13.89588 10.40625,-18.8125 z m -14.45703,22.45508 c 1.3184,0.0673 2.33087,0.87218 3.21289,2.41992 2.95595,5.78533 8.94973,12.2029 13.29883,16.95899 4.34905,4.75604 11.87997,9.70344 15.9746,12.52344 7.89657,5.5532 21.04794,12.28989 22.92188,12.85351 1.87394,0.56361 37.49414,68.2207 37.49414,68.2207 0.67146,1.10231 1.05496,2.00155 2.32812,2.16211 1.07916,0.002 1.92638,-0.91889 1.92383,-1.96484 -1.13425,-17.48423 -1.19355,-44.85019 -1.57812,-57.29492 10.06155,-6.27779 11.55316,-23.28955 5.20117,-33.67969 -0.0999,-0.20907 -0.55949,-0.93941 -0.73828,-1.27148 0.30905,0.19623 5.14048,3.38531 8.16016,5.55664 3.12134,2.24442 7.50313,7.10959 10.50781,8.13671 16.65057,3.90377 26.95728,7.00348 42.03515,11.86329 4.7694,1.61358 10.45975,3.70915 13.12305,5.21093 3.4767,2.34898 5.9856,5.94634 8.40039,9.32618 4.53973,6.70527 7.45091,14.6117 9.66016,22.57421 4.82327,17.38408 5.95903,35.73341 7.48437,53.95704 -3.43519,-1.7176 -12.23321,-8.67541 -15.67578,-9.83789 -11.77462,-3.97466 -24.14811,-6.00599 -36.52539,-6.83399 -16.56123,-1.10667 -33.012,-3.37645 -50.22656,-3.43359 -52.07676,-0.17286 -107.33822,2.37865 -158.48828,4.36132 -7.78531,6.30131 -12.01761,10.17945 -21.039066,14.29102 -16.861971,7.68489 -32.806884,15.80338 -50.03125,23.38867 -3.537887,-3.44404 -7.409365,-5.37536 -11.728515,-10.30664 5.101936,-33.43345 11.107186,-69.82792 28.355469,-98.84961 2.249765,-0.30739 10.618695,-0.0626 14.988281,3.52149 3.130037,2.811 8.891036,8.71813 11.429687,11.38476 -3.599328,-6.2342 -6.747697,-10.29857 -11.697265,-14.91601 -5.483182,-3.3559 -7.511421,-4.20862 -11.900391,-3.90821 6.410482,-3.26283 36.20188,-15.30402 43.25781,-17.86718 7.05597,-2.5632 20.61948,-5.91788 28.88086,-8.82032 8.26137,-2.9024 12.88737,-5.68053 18.28516,-8.47461 5.39776,-2.79403 13.44505,-6.45282 17.65625,-9.25 2.10559,-1.39855 3.73039,-2.06928 5.04883,-2.00195 z"
       sodipodi:nodetypes="ccccsssccccccccscccscccccccccscsscccssccssscccccccccccccccsscsccccsccsccccscccscscsccccccsccccscccscscccccccsssss" /><path
       d="m 110.03392,327.26704 c -1.62365,-3.12928 -3.32627,-6.20396 -5.05752,-9.06383 -1.73275,-2.86103 -3.48866,-5.50664 -5.21621,-7.76736 0,0 2.00367,4.49536 4.28776,10.87378 3.00901,8.4028 5.84301,14.40899 7.22205,21.94423 1.27659,8.71499 2.18898,17.94187 2.18898,17.94187 l 2.5558,-1.17238 5.77183,-2.99117 c -1.1066,-3.91662 -5.2543,-17.24987 -11.75269,-29.76514 z"
       style="fill:#000000;fill-opacity:1;fill-rule:nonzero;stroke:none;stroke-width:1.33333"
       id="path283446"
       sodipodi:nodetypes="cccsscccc" /><path
       id="path11451"
       style="opacity:0.2;fill:#000000;fill-opacity:1;stroke:none;stroke-width:1px;stroke-linecap:butt;stroke-linejoin:miter;stroke-opacity:1"
       d="m 62.035156,280.24023 -2.154297,2.1543 c 0,0 5.170282,-0.61266 8.34961,-0.39062 -0.105687,0.26704 -16.188825,40.91018 -20.566407,58.35547 -4.003919,15.95617 -5.234536,32.66408 -5.640794,36.51501 -3.58205,-3.54148 -6.447572,-6.00985 -6.447572,-6.00985 l 0.298305,4.01224 c 0,0 4.93609,4.73294 10.59011,8.81024 10.008669,-3.39185 22.720657,-9.4002 30.422608,-13.14796 13.616992,-6.62601 38.083981,-21.07812 38.083981,-21.07812 l -0.71875,-4.07227 c 0,0 -1.58158,0.92849 -3.91406,2.28125 -0.31934,-1.85407 -0.93447,-5.2256 -2.07422,-9.4668 -1.53314,-5.70503 -4.1485,-15.97204 -7.42578,-22.7539 -3.277261,-6.78186 -6.393449,-12.67129 -10.058593,-17.72461 -3.665144,-5.05335 -8.614913,-9.99235 -11.738281,-12.69531 -3.123368,-2.70299 -6.226229,-3.8315 -7.423828,-4.31055 -1.197602,-0.47905 -9.582032,-0.47852 -9.582032,-0.47852 z m 7.646485,1.96289 c 2.108976,0.42549 3.304335,0.72069 5.183593,1.96485 -0.317412,0.99917 -11.373797,35.82516 -15.703125,53.07812 -3.562186,14.19583 -5.831422,32.85681 -6.59375,39.66993 -2.238022,0.93746 -4.369764,1.98605 -6.297162,2.65803 -1.174274,-0.54822 -1.879759,-1.11902 -2.88294,-1.93148 0.689702,-3.86389 3.768611,-21.48276 7.869555,-37.28319 4.384919,-16.89457 17.663064,-55.92304 18.423829,-58.15626 z M 76.25,285.1543 c 0.05486,0.0416 0.100102,0.0722 0.15625,0.11523 1.781561,1.36507 4.117832,3.47196 6.484375,5.99805 -0.621361,2.01131 -7.322846,23.76771 -11.513672,40.46875 -3.638069,14.49821 -5.916326,33.5608 -6.625,39.96484 -3.352761,1.47076 -6.809968,2.95545 -10.263672,4.41016 1.25155,-6.86554 4.648731,-24.92977 8.265625,-38.86524 C 67.214849,320.05864 76.044831,285.94686 76.25,285.1543 Z m 7.972656,7.58203 c 1.18531,1.34509 2.355888,2.77232 3.441406,4.26953 1.005034,1.3862 2.462208,3.62116 3.422402,5.22247 -0.24446,0.94764 -3.754197,11.97599 -7.973183,28.78925 -3.428405,13.66267 -4.831557,28.57678 -5.294922,34.60937 -0.698676,0.35208 -1.479065,0.76275 -2.128906,1.08008 -2.53524,1.23801 -5.700792,2.67019 -9.033203,4.14844 1.187545,-6.53323 4.628884,-24.9191 8.314453,-39.11914 4.082617,-15.72983 8.424301,-35.25503 9.251953,-39 z m 7.5625,10.79297 c 1.984397,3.51297 4.382282,8.12498 6.30912,12.15801 -0.516435,2.50847 -2.396306,8.61439 -4.523964,19.20917 -1.823801,9.08173 -2.656138,18.89041 -3.001953,23.96094 -3.741152,2.05939 -7.399082,4.02602 -10.75,5.75391 0.745969,-4.71509 3.641476,-22.886 5.929688,-33.35352 2.424007,-11.08873 5.578293,-25.61614 6.037109,-27.72851 z m 7.033203,14.45117 c 2.518791,5.56017 4.335301,11.92555 5.765621,17.13867 l -1.94336,17.08008 c -2.931168,1.75972 -6.080806,3.63833 -9.871089,5.73437 0.595018,-4.66286 1.820104,-15.28319 3.0625,-22.38476 1.296255,-7.40942 2.47245,-14.61272 2.986328,-17.56836 z m 7.220701,22.50195 c 1.0373,3.93153 1.67651,7.10732 1.94727,8.53711 -0.90692,0.5235 -1.96614,1.1678 -2.92578,1.74024 z"
       sodipodi:nodetypes="cccsccccscccssssscccscccsccccsccsccscscscscccsccscccccsccccc" /><path
       d="m 166.40786,352.36173 c -13.788,1.07867 -41.09141,2.2892 -47.41674,2.93187 l 0.10802,1.98448 c 0,0 0.60202,20.67247 0.81871,42.72192 h 24.39935 c 0.988,-22.69334 5.00266,-38.22227 22.09066,-47.63827"
       style="opacity:0.199997;fill:#000000;fill-opacity:1;fill-rule:nonzero;stroke:none;stroke-width:1.33333"
       id="path283476"
       sodipodi:nodetypes="cccccc" /><path
       d="m 176.58986,354.74787 c 4.16667,0 9.35734,-0.596 13.644,0.0787 5.37734,0.84667 11.252,3.16667 16.60533,4.57467 4.82,1.268 9.93067,2.93733 14.808,3.392 5.33067,0.49867 9.59734,2.552 14.85067,3.85867 8.92667,2.22133 17.712,4.61733 26.58,6.37466 8.95333,1.77334 15.488,5.63467 23.57333,-0.756 3.796,-3 7.37067,-6.68933 11.23867,-9.76933 4.53067,-3.608 9.28533,-5.48267 14.72,-7.296 2.20133,-0.73467 4.416,-1.43333 6.60533,-2.20267 0.876,-0.308 3.648,-1.972 4.492,-1.81466 -7.468,-1.384 -28.83466,-2.71067 -36.684,-3.816 -9.848,-1.38534 -19.03066,-1.24534 -28.98933,-1.02 -11.48,0.25866 -22.93067,1.90933 -34.412,2.456 -11.78133,0.56266 -23.61333,0.036 -35.392,0.34266 -3.44266,0.0893 -9.14133,-0.50533 -11.648,1.39067 -4.23733,3.20533 1.11067,3.74133 0.008,4.20667"
       style="opacity:0.199997;fill:#000000;fill-opacity:1;fill-rule:nonzero;stroke:none;stroke-width:1.33333"
       id="path283492" /><path
       d="m 275.41649,269.6447 c -2.02327,2.83945 -3.64723,4.51303 -5.17445,6.09208 l -0.65778,-6.55171 0.26533,-7.68 c 1.02667,-1.524 4.72534,-6.69333 6.62667,-5.004 1.90497,5.00222 0.96351,10.30419 -1.05977,13.14363 z m -6.13031,32.64505 c -0.29867,2.46 -0.44059,-0.51801 -0.82992,-3.76068 -1.13467,-9.43467 -3.93067,-27.74533 -3.93067,-27.74533 0,0 2.65734,-0.432 3.66,-2.19867 l 1.07269,22.27026 m 7.71131,-44.71159 -2.8705,-3.72032 -5.5575,7.66298 c 0,0 -3.37333,1.588 -0.92533,15.82934 -0.25067,0.58933 -0.488,1.06133 -0.69333,1.328 -0.384,0.49866 -2.19334,0.88933 -3.03334,1.19333 -3.256,-9.04667 0.6873,-20.07622 1.44596,-21.21222 l -4.33396,3.45755 c -0.60933,-0.11066 -2.86933,10.04934 -1.036,16.716 0.23067,0.83867 -0.24533,2.25867 -1.06666,2.164 -1.23067,-0.14266 -3.11467,0.27067 -3.24667,-0.524 -1.596,-9.62533 0.388,-17.56266 0.388,-17.56266 l -5.74667,-1.94 c 0,0 1.63734,1.93733 1.64134,2.86133 0.016,3.89467 -0.072,13.06533 0.0533,14.036 0.156,1.20267 -0.896,1.88267 -1.428,1.812 -2.976,-0.39733 -5.99867,-1.08933 -9.504,-1.85467 0,0 7.932,3.61867 11.868,4.21334 l 8.75867,47.128 3.11066,3.10266 -7.18666,-49.23466 3.45066,0.44266 c 0,0 4.288,25.796 6.404,44.24934 l -1.4,9.25866 8.19467,10.84933 c 0,0 -3.01788,-31.61068 -3.10522,-50.39904 -0.0106,-2.28181 8.8858,-11.03149 8.8858,-11.03149 4.01409,-5.32435 2.63009,-14.96946 -0.35521,-21.8588 -1.356,-3.69866 -2.712,-6.96666 -2.712,-6.96666"
       style="opacity:0.199997;fill:#000000;fill-opacity:1;fill-rule:nonzero;stroke:none;stroke-width:1.33333"
       id="path283508"
       sodipodi:nodetypes="zcccczcccccccccscccsccccccccccccccccsccc" /><path
       d="m 320.10986,374.954 c -0.007,-0.0453 0.40533,-0.84667 0.40533,-0.84667 l 7.61067,-0.33333 -0.032,3.02533 -0.40533,-0.0307 c 0,0 -6.80667,0.43866 -7.13867,0.136 -0.33067,-0.30267 -0.43333,-1.90534 -0.44,-1.95067 m -1.67867,5.524 c 0.49467,0.76667 9.25334,1.86267 9.25334,1.86267 l 2.1,-13.14667 c 0,0 -8.41467,-0.11067 -9.59334,0.10933 -1.17733,0.21867 -2.14533,1.752 -2.244,4.05334 -0.1,2.30133 -0.012,6.35466 0.484,7.12133"
       style="fill:#d9a14b;fill-opacity:1;fill-rule:nonzero;stroke:none;stroke-width:1.33333"
       id="path283518" /><path
       d="m 348.54706,376.90493 c -0.19867,0.30267 -6.50267,-0.136 -6.50267,-0.136 l -0.356,0.0307 -1.04667,-3.02533 6.99467,0.33333 c 0,0 0.644,0.80133 0.652,0.84667 0.009,0.0453 0.45733,1.648 0.25867,1.95066 m 1.16133,-3.548 c -0.864,-2.30133 -2.256,-3.83466 -3.396,-4.05333 -1.13867,-0.22 -8.712,-0.11067 -8.712,-0.11067 l 6.32267,13.148 c 0,0 7.55333,-1.096 7.744,-1.86266 0.18933,-0.76667 -1.09467,-4.82134 -1.95867,-7.12134"
       style="fill:#d9a14b;fill-opacity:1;fill-rule:nonzero;stroke:none;stroke-width:1.33333"
       id="path283522" /><path
       d="m 327.17639,398.59747 c -0.16933,0 -0.348,-0.048 -0.52,-0.144 -0.40266,-0.228 -0.696,-0.68534 -0.75066,-1.172 -0.056,-0.49467 -1.35334,-12.216 -0.172,-20.72267 1.19866,-8.62533 4.01866,-17.97333 5.156,-20.19067 0.16266,-0.316 0.46533,-0.49066 0.80933,-0.472 0.34667,0.02 0.69467,0.232 0.93333,0.572 0.476,0.67334 11.69733,16.73067 16.464,38.38267 0.12533,0.56933 -0.0893,1.092 -0.52,1.272 -0.432,0.18133 -0.97067,-0.028 -1.31067,-0.508 -2.08133,-2.93733 -5.86933,-7.21067 -7.49733,-7.21067 -0.0213,0 -0.044,0 -0.064,0.003 -1.81467,0.13467 -8.06533,5.89067 -11.924,9.93467 -0.16133,0.16933 -0.376,0.256 -0.604,0.256"
       style="fill:#d9a14b;fill-opacity:1;fill-rule:nonzero;stroke:none;stroke-width:1.33333"
       id="path283526" /><path
       d="m 331.78079,356.72613 c -0.108,0 -0.20266,0.0587 -0.25333,0.15867 -1.11733,2.17733 -3.89467,11.40667 -5.08133,19.94933 -1.16667,8.39734 0.11866,20.00267 0.17333,20.49334 0.0187,0.16133 0.11733,0.31466 0.25067,0.39066 0.13066,0.0733 0.28266,0.0587 0.37466,-0.0373 2.62534,-2.752 9.94933,-9.93067 12.28267,-10.104 l 0.108,-0.004 c 2.27466,0 6.65733,5.48 8.15333,7.592 0.11333,0.16 0.29333,0.228 0.436,0.17067 0.14533,-0.0613 0.216,-0.236 0.17467,-0.42534 -4.72267,-21.44933 -15.82133,-37.32666 -16.29067,-37.992 -0.08,-0.11333 -0.196,-0.18533 -0.31066,-0.19066 -0.005,-0.001 -0.012,-0.001 -0.0173,-0.001 m -4.472,42.70267 c -0.28666,0 -0.58533,-0.0827 -0.86533,-0.24 -0.67067,-0.38 -1.16133,-1.14533 -1.252,-1.95333 -0.056,-0.49867 -1.36667,-12.33334 -0.16933,-20.952 1.20933,-8.70534 4.072,-18.17467 5.22933,-20.42934 0.26933,-0.52666 0.76933,-0.82533 1.34933,-0.78933 0.576,0.0333 1.15734,0.38933 1.556,0.95467 0.48133,0.68 11.82133,16.90533 16.63733,38.77333 0.208,0.94667 -0.148,1.81867 -0.868,2.11867 -0.71866,0.30133 -1.616,-0.0453 -2.184,-0.84534 -2.488,-3.51066 -5.812,-6.83066 -6.84133,-6.83066 -1.46667,0.108 -7.168,5.13733 -11.584,9.76666 -0.264,0.27467 -0.62133,0.42667 -1.008,0.42667"
       style="fill:#000000;fill-opacity:1;fill-rule:nonzero;stroke:none;stroke-width:1.33333"
       id="path283530" /><path
       d="m 332.15853,359.4808 c -1.26667,3.492 -3.332,11.02 -4.288,17.904 -0.80267,5.77467 -0.388,13.32933 -0.072,17.30933 3.032,-3.04666 8.87199,-8.592 11.37599,-8.77733 2.00934,-0.152 4.68267,2.31333 6.732,4.64 -4.06666,-15.004 -11.05733,-26.85467 -13.74799,-31.076"
       style="fill:#999999;fill-opacity:1;fill-rule:nonzero;stroke:none;stroke-width:1.33333"
       id="path283534" /><path
       d="m 346.05372,382.88827 c 0,0 5.57067,-0.876 5.992,-1.75334 0.42267,-0.876 -0.45333,-4.41733 -1.29733,-6.608 -0.84267,-2.192 -1.86133,-5.00533 -3.992,-5.55333 -2.13067,-0.54667 -7.17333,-0.876 -7.17333,-0.876 l 0.90666,2.08133 c 0,0 6.06934,0.0227 6.96134,0.65734 1.04266,0.74133 1.85866,2.07066 2.36133,3.944 0.48267,1.79866 1.53867,4.492 1.412,5.14933 -0.128,0.65733 -6.09867,1.20533 -6.09867,1.20533 z"
       style="fill:#000000;fill-opacity:1;fill-rule:nonzero;stroke:none;stroke-width:1.33333"
       id="path283538" /><path
       d="m 343.18746,376.3148 c 0,0 4.008,0.21867 4.852,0.21867 0.844,0 -0.0413,-1.972 -0.716,-1.972 -0.67467,0 -5.02134,-0.21867 -5.02134,-0.21867 l -0.168,-0.876 c 0,0 4.872,0.31867 5.548,0.328 0.67734,0.009 1.34934,2.19067 1.39067,2.84933 0.0427,0.65734 -1.392,0.65734 -2.152,0.65734 -0.75867,0 -3.48,-0.11067 -3.48,-0.11067 z"
       style="fill:#000000;fill-opacity:1;fill-rule:nonzero;stroke:none;stroke-width:1.33333"
       id="path283542" /><path
       d="m 325.53306,382.88827 c 0,0 -6.484,-0.876 -7.27733,-1.75334 -0.79334,-0.876 -1.028,-4.44933 -0.91067,-6.64 0.116,-2.192 0.5,-4.848 2.652,-5.396 2.152,-0.548 7.18667,-1.00133 7.18667,-1.00133 l -0.228,2.08133 c 0,0 -6.848,-0.15466 -7.452,0.65734 -0.47734,0.64266 -1.09867,2.54 -1.192,4.29333 -0.0933,1.75333 0.02,4.14267 0.404,4.8 0.38533,0.65733 7.19066,1.20533 7.19066,1.20533 z"
       style="fill:#000000;fill-opacity:1;fill-rule:nonzero;stroke:none;stroke-width:1.33333"
       id="path283546" /><path
       d="m 326.25613,376.3148 c 0,0 -4.35067,0.21867 -5.28267,0.21867 -0.93333,0 -0.688,-1.972 0.0573,-1.972 0.74667,0 5.47067,-0.21867 5.47067,-0.21867 l -0.14,-0.876 c 0,0 -5.268,0.31867 -6.012,0.328 -0.74533,0.009 -0.67733,2.19067 -0.47867,2.84933 0.19867,0.65734 1.784,0.65734 2.624,0.65734 0.84,0 3.808,-0.11067 3.808,-0.11067 z"
       style="fill:#000000;fill-opacity:1;fill-rule:nonzero;stroke:none;stroke-width:1.33333"
       id="path283550" /><path
       d="m 281.88171,288.72579 1.14575,-2.14784 c 0.13232,-0.24804 7.80137,34.7135 9.17719,45.6746 -1.94534,-0.232 -5.82104,-0.21164 -7.64385,-0.28097 -0.5152,-15.50814 -1.94419,-28.60481 -2.67909,-43.24579 z m 77.28121,58.79754 c -1.01473,-13.95626 -1.99344,-28.31752 -4.98907,-42.08478 -2.43156,-11.17487 -6.68911,-21.84678 -10.98094,-30.68984 -0.36133,-0.37067 -3.61691,0.0823 -2.22318,-1.03891 4.73336,11.10307 7.71444,19.57842 10.42914,31.58233 2.7147,12.00391 4.32588,24.39441 4.86128,36.43254 -0.052,-0.232 -4.26215,-1.13539 -4.26215,-1.13539 -1.89453,-21.87996 -8.86051,-48.89207 -16.83335,-68.47016 -0.77067,-0.73466 -1.99311,0.22497 -2.55444,-0.77507 1.69067,3.01333 6.48411,17.462 9.41346,28.47531 2.92934,11.01332 5.4691,20.57547 8.35665,40.10059 -2.04,-0.292 -3.76461,-0.68024 -6.03128,-1.02958 -2.95038,-27.1328 -10.95838,-49.80505 -18.48323,-70.3416 -0.67066,-0.53467 -1.71444,0.67609 -2.39578,0.16276 7.46977,21.73371 17.63461,49.26729 19.5492,69.88575 -2.292,-0.304 -4.67867,-0.56376 -7.27467,-0.89843 -2.58897,-26.2803 -12.1892,-48.85618 -21.6226,-72.71778 -1.00595,-0.16448 -8.27651,-1.16595 -1.88264,-0.24859 9.24615,24.69427 19.61935,51.84858 22.3833,72.86771 -2.39734,-0.30934 -4.68992,-0.84376 -7.20726,-1.16376 -5.84445,-33.13134 -11.90086,-49.4338 -25.08462,-74.1846 -0.78133,-0.41067 -2.27453,-0.5586 -3.06386,-0.96393 10.39011,19.05653 21.75466,50.37271 26.56616,74.93543 -4.18106,-0.27318 -8.62584,-1.01186 -9.38834,-1.10968 -2.77463,-9.35747 -4.32405,-17.93758 -6.00174,-25.61517 -1.6777,-7.67759 -10.5036,-30.49129 -19.22524,-52.89524 -1.18667,-0.608 -2.51564,-1.32642 -3.61431,-1.91576 6.59635,15.74789 18.31334,47.25209 20.53035,55.95551 2.217,8.70342 3.22927,15.33768 5.79854,24.14181 -2.64666,-0.328 -6.42453,-1.06943 -8.72319,-1.35209 -1.84281,-8.70346 -4.03578,-19.00668 -5.46912,-25.95155 -1.43335,-6.94487 -7.16631,-22.09446 -11.38716,-32.65015 l -1.73229,3.37209 c 6.39796,15.18022 8.47472,22.47062 10.44964,30.25094 1.97491,7.78031 4.26476,18.21848 5.70106,24.77224 -2.72666,-0.33733 -6.46455,-0.14269 -8.3531,-0.7393 -1.74683,-10.61443 -2.84536,-16.12558 -4.58516,-24.95343 -1.73981,-8.82786 -4.03802,-17.42374 -4.94868,-23.90241 1.45164,-3.10373 5.12271,-11.20994 5.35749,-15.4387 0.23478,-4.22877 -3.94259,-16.75417 -3.94259,-16.75417 -0.14133,-0.12267 -2.72709,-1.28584 -2.86175,-1.38051 3.11617,8.7303 3.97244,13.30689 4.08167,16.65804 0.10923,3.35114 -2.21759,9.73682 -2.94075,11.22871 -0.72316,1.49189 -6.24617,9.81632 -6.24617,9.81632 1.19085,18.34315 1.60904,31.3217 2.05487,47.86989 0,0 32.87186,3.26061 48.43452,4.82995 15.56267,1.56933 30.34133,7.06266 30.34133,7.06266"
       style="opacity:0.199997;fill:#000000;fill-opacity:1;fill-rule:nonzero;stroke:none;stroke-width:1.33333"
       id="path283560"
       sodipodi:nodetypes="csccccscczcccczcccccccccccccczcczcczcczcczczcczzccsc" /><path
       d="m 369.32599,346.07733 c -0.50533,-2.544 -0.888,-5.94 -1.26,-9.48 2.36267,3.49067 5.74667,9.37334 6.92,16.032 -2.396,-1.07066 -3.26633,-1.17162 -5.49063,-3.67276 m 10.3093,4.93676 c 0,0 -0.684,-0.0467 -1.692,-0.25733 -0.404,-3.28533 -2.24134,-13.06 -10.66667,-22.848 -1.12663,-4.7228 -1.83317,-8.83863 -2.50117,-11.21063 2.668,2.87867 8.2905,10.20263 11.74117,17.32263 0,0 -2.54517,-12.93463 -12.10117,-22.85596 -0.30533,-1.804 -0.70269,-3.10921 -1.51083,-5.93737 2.28267,1.84933 8.10912,7.39971 10.92379,12.52238 0,0 -3.21446,-10.95438 -10.98379,-18.34105 -2.128,-4.32133 -6.2134,-19.23741 -5.2854,-19.89608 l -3.739,-2.5638 c 0,0 4.30467,17.52661 8.67267,41.62261 1.5303,11.26408 3.5344,26.52127 4.37573,28.9386 0.82533,2.372 9.67867,8.348 12.79067,8.39467 z"
       style="opacity:0.199997;fill:#000000;fill-opacity:1;fill-rule:nonzero;stroke:none;stroke-width:1.33333"
       id="path283576"
       sodipodi:nodetypes="ccccccccccccccccccc" /><path
       id="path1"
       style="color:#000000;display:inline;fill:#000000;-inkscape-stroke:none"
       d="m 364.85547,325.46289 c 0,0 -0.51194,14.53864 -1.02735,21.63281 -0.20476,2.81845 -0.91809,7.43803 -1.38281,10.29883 -0.85612,-2.40593 -1.68043,-4.81181 -2.36133,-7.24023 -2.23763,-7.98055 -6.85351,-24.30469 -6.85351,-24.30469 0,0 1.9406,16.78278 4.25391,25.0332 2.10991,7.52499 5.30085,14.575 7.36328,21.83203 1.55841,5.48362 3.09887,10.94537 3.83398,16.46875 0.4375,3.28725 0.37695,10.81641 0.37695,10.81641 h 2.69922 c 0,0 0.10748,-7.37057 -0.39843,-11.17188 -1.19843,-7.91545 -3.33427,-15.60729 -5.94923,-23.16017 0.35883,-0.73745 2.12746,-4.40533 2.86914,-6.64844 0.86885,-2.62769 1.11038,-5.31988 1.8164,-7.77734 0.85876,-2.98907 2.37891,-9.24805 2.37891,-9.24805 0,0 -2.91971,5.69929 -3.82031,8.83398 -0.7588,2.64113 -1.00427,5.31175 -1.80078,7.72071 -0.46187,1.39684 -1.45463,3.59515 -2.16211,5.11523 -0.42045,-1.1669 -0.82916,-2.33726 -1.25196,-3.49609 l 0.36328,0.0625 c 0,0 1.49665,-8.55083 1.82032,-13.00586 0.53275,-7.33303 -0.76758,-21.76172 -0.76758,-21.76172 z"
       sodipodi:nodetypes="cscscsssccscsscsscccscc" /><path
       id="path15"
       style="display:inline;fill:#000000;fill-opacity:0.2;stroke:none;stroke-width:1px;stroke-linecap:butt;stroke-linejoin:miter;stroke-opacity:1"
       d="m 364.20898,316.29297 c 0,0 -0.72611,15.99443 -1.9375,23.89258 -0.29449,1.92007 -0.39779,5.55828 -1.29101,5.68359 -0.66356,0.0931 -2.09091,-3.38508 -2.9707,-5.16602 -1.3846,-2.80278 -3.61719,-8.65429 -3.61719,-8.65429 l 2.45508,11.23633 4.00195,14.20703 6.58789,17.04883 0.61523,4.31444 2.17579,10.18556 0.18164,5.6621 V 400 h 5.11523 c 0,0 -0.25866,-7.75494 -0.73047,-11.32422 -0.41721,-3.1562 -1.57937,-8.07662 -2.19531,-11.60937 -0.76039,-4.3613 -1.68875,-7.79882 -2.78506,-11.74022 0,0 0.64214,-7.71008 1.2394,-10.15774 0.89273,-3.65854 1.83083,-7.09062 2.0664,-10.84912 0.2293,-3.65845 -0.25902,-10.46191 -0.25902,-10.46191 0,0 -0.78894,3.45331 -1.54883,5.03711 -0.63015,1.31339 -2.02252,4.69199 -2.32617,4.65039 -0.97262,-0.13322 -0.64076,-2.21571 -0.77344,-2.8418 -0.95761,-4.51891 -0.23329,-9.27082 -1.0332,-13.82031 -0.6349,-3.61099 -2.97071,-10.58984 -2.97071,-10.58984 z"
       sodipodi:nodetypes="cssscccccccccsscsscssssc" /><path
       style="color:#000000;fill:#000000;-inkscape-stroke:none"
       d="m 355.50776,301.23235 c 2.68191,13.35551 4.06488,25.64683 5.25396,39.18367 0.57146,6.50567 0.5039,19.92187 0.5039,19.92187 l 2.4004,0.0137 c 0,0 0.0839,-13.34164 -0.51368,-20.14453 -1.19973,-13.65819 -3.43801,-27.21312 -6.13086,-40.62305 -0.89026,-4.43336 -5.57805,-15.94122 -5.57805,-15.94122 0,0 3.21975,13.3837 4.06433,17.58956 z"
       id="path2"
       sodipodi:nodetypes="ssccsscs" /></g><g
     inkscape:groupmode="layer"
     id="layer1"
     inkscape:label="Bolian Ridge"
     style="display:none"><path
       style="fill:none;stroke:#000000;stroke-width:0.8;stroke-linecap:butt;stroke-linejoin:miter;stroke-dasharray:none;stroke-opacity:1"
       d="m 260.11976,248.62275 16.76647,-47.90419"
       id="path1746" /><path
       style="color:#000000;fill:#000000;fill-opacity:0.2;-inkscape-stroke:none"
       d="m 273.8747,199.19782 -16.76758,47.90429 1.7902,0.83818 16.76758,-47.90429 z"
       id="path1748"
       sodipodi:nodetypes="ccccc" /></g></svg>
