<?xml version="1.0" encoding="UTF-8" standalone="no"?>
<!-- Created with Inkscape (http://www.inkscape.org/) -->

<svg
   version="1.1"
   id="svg224722"
   width="400"
   height="400"
   viewBox="0 0 400 400"
   sodipodi:docname="Body4.svg"
   inkscape:version="1.2.2 (b0a8486, 2022-12-01)"
   xmlns:inkscape="http://www.inkscape.org/namespaces/inkscape"
   xmlns:sodipodi="http://sodipodi.sourceforge.net/DTD/sodipodi-0.dtd"
   xmlns="http://www.w3.org/2000/svg"
   xmlns:svg="http://www.w3.org/2000/svg">
  <defs
     id="defs224726" />
  <sodipodi:namedview
     id="namedview224724"
     pagecolor="#ffffff"
     bordercolor="#666666"
     borderopacity="1.0"
     inkscape:showpageshadow="2"
     inkscape:pageopacity="0.0"
     inkscape:pagecheckerboard="0"
     inkscape:deskcolor="#d1d1d1"
     showgrid="false"
     inkscape:zoom="4.17193"
     inkscape:cx="35.595036"
     inkscape:cy="308.73001"
     inkscape:window-width="1440"
     inkscape:window-height="810"
     inkscape:window-x="2315"
     inkscape:window-y="84"
     inkscape:window-maximized="0"
     inkscape:current-layer="g224730">
    <inkscape:page
       x="0"
       y="0"
       id="page224728"
       width="400"
       height="400" />
  </sodipodi:namedview>
  <g
     id="g224730"
     inkscape:groupmode="layer"
     inkscape:label="Page 1">
    <path
       d="m 387.54159,362.4256 c 0.936,-4.68 4.056,-13.884 4.056,-22.464 0,-8.58 -0.312,-34.476 -4.368,-47.736 -4.056,-13.26 -17.004,-27.924 -23.712,-32.292 -6.708,-4.368 -31.824,-8.58 -39.156,-9.36 -10.45733,-1.112 -33.91333,-13.17466 -44.13733,-17.51733 l -7.65467,0.52933 4.76934,8.012 -0.29867,2.28667 c 0,0 4.84133,12.76133 6.26133,16.736 1.42,3.976 -3.40666,11.07333 -3.40666,11.07333 l -5.67867,65.87067 -36.05867,-64.73467 -3.40666,-4.54266 c 0,0 -15.332,-8.51734 -37.47733,-27.54 -22.14667,-19.024 -23.75734,-42.53067 -23.75734,-42.53067 l -0.0453,-0.64 -0.87333,0.41334 -14.192,1.40533 -20.352,16.76933 -9.63734,5.324 -35.879996,16.056 -11.107999,5.31733 -6.629334,5.76934 c 0,0 -31.849332,0.0333 -45.145332,14.80666 -13.295999,14.77334 -20.3133326,69.064 -19.205333,83.468 1.108,14.404 5.170667,25.11467 5.170667,25.11467 l -1.972,27.94666 H 387.93626 l -1.86267,-32.31333 c 0.576,-1.69467 1.132,-3.55067 1.468,-5.228"
       style="fill:#7d7d7d;fill-opacity:1;fill-rule:nonzero;stroke:none;stroke-width:1.33333"
       id="path224758" />
    <path
       d="m 196.9892,241.882 c 22.14533,19.02267 37.47733,27.54 37.47733,27.54 l 3.408,4.54267 36.05733,64.73466 5.67867,-65.86933 c 0,0 4.82666,-7.09866 3.40666,-11.07333 -1.42,-3.97467 -6.26,-16.73733 -6.26,-16.73733 l 0.29734,-2.28534 -4.768,-8.012 -0.18534,0.152 -3.812,10.87334 -5.22533,2.25866 -2.824,2.82534 -3.672,-3.672 c -10.87333,-1.412 -25.98267,-10.59067 -35.02,-17.228 -9.03867,-6.63734 -29.48666,-40.744 -29.48666,-40.744 l 1.20133,-2.824 -3.34133,-0.88 -12.21334,10.92933 -4.62666,2.188 0.0453,0.64 c 0,0 1.71733,23.61867 23.86267,42.64133"
       style="fill:#d30000;fill-opacity:1;fill-rule:nonzero;stroke:none;stroke-width:1.33333"
       id="path224762" />
    <path
       d="m 196.9892,241.882 c 22.14533,19.02267 37.47733,27.54 37.47733,27.54 l 3.408,4.54267 36.05733,64.73466 5.67867,-65.86933 c 0,0 4.82666,-7.09866 3.40666,-11.07333 -1.42,-3.97467 -6.26,-16.73733 -6.26,-16.73733 l 0.29734,-2.28534 -4.768,-8.012 -0.18534,0.152 -3.812,10.87334 -5.22533,2.25866 -2.824,2.82534 -3.672,-3.672 c -10.87333,-1.412 -25.98267,-10.59067 -35.02,-17.228 -9.03867,-6.63734 -29.48666,-40.744 -29.48666,-40.744 l 1.20133,-2.824 -3.34133,-0.88 -12.21334,10.92933 -4.62666,2.188 0.0453,0.64 c 0,0 1.71733,23.61867 23.86267,42.64133 z"
       style="fill:none;stroke:#000000;stroke-width:1.08533;stroke-linecap:butt;stroke-linejoin:miter;stroke-miterlimit:10;stroke-dasharray:none;stroke-opacity:1"
       id="path224766" />
    <path
       d="m 210.97999,151.91694 -18.91866,37.27067 c 0,0 20.448,34.10666 29.48666,40.74399 9.03734,6.636 24.14667,15.816 35.02,17.228 l 3.672,3.67067 2.824,-2.824 5.22534,-2.25867 3.812,-10.87333 12.20266,-16.26 z"
       style="fill:#cd976d;fill-opacity:1;fill-rule:nonzero;stroke:none;stroke-width:1.33333"
       id="path224770" />
    <path
       d="m 208.97186,150.18854 c -1.45467,4.52667 -7.26667,19.252 -8.88933,23.73333 -1.32933,3.66934 -9.56,14.62 -9.52667,15.18934 0.009,0.15866 2.25067,3.69466 2.61067,3.30933 4.368,-4.66667 6.94,-11.14933 9.64666,-16.692 1.92934,-3.95333 8.10934,-18.13067 10.04,-22.08267 0,0 -3.88133,-3.45733 -3.88133,-3.45733"
       style="fill:#000000;fill-opacity:1;fill-rule:nonzero;stroke:none;stroke-width:1.33333"
       id="path224774" />
    <path
       d="m 289.20239,220.91987 c -2.83733,2.044 -12.20933,12.312 -14.51866,14.93067 -1.87867,2.12933 -4.41734,10.84933 -7.52934,10.94666 -2.104,0.0653 -1.74133,-3.72533 -1.19333,-5.332 0.26267,-0.768 16.34933,-23.884 16.34933,-23.884 0,0 6.892,3.33867 6.892,3.33867"
       style="fill:#000000;fill-opacity:1;fill-rule:nonzero;stroke:none;stroke-width:1.33333"
       id="path224778" />
    <path
       d="m 276.07346,242.23054 c 0.33067,0.75333 0.6,1.59333 0.68267,2.78933 0.224,3.21333 -1.1,3.24933 -2.696,5.944 -2.38667,4.032 -3.48134,9.40133 -4.94667,13.80933 -0.872,-2.21866 -1.20133,-3.37733 -1.008,-5.648 0.196,-2.31333 0.44933,-4.564 1.104,-6.844 0.46533,-1.62266 3.62267,-4.36666 4.41467,-5.74133 1.59866,-2.768 0.99466,-5.07867 0.372,-8.04267 0.23866,0.32 0.43733,0.32667 0.74,0.59334 0.36,1.30533 0.90133,2.14666 1.33733,3.14"
       style="fill:#000000;fill-opacity:1;fill-rule:nonzero;stroke:none;stroke-width:1.33333"
       id="path224782" />
    <path
       d="m 354.58052,257.89334 c 0,0 13.79067,11.908 14.51734,56.87066 0,0 2.42933,-39.63066 -8.77734,-54.91066 z"
       style="fill:#000000;fill-opacity:1;fill-rule:nonzero;stroke:none;stroke-width:1.33333"
       id="path224786" />
    <path
       d="m 123.28346,349.11587 c -0.84533,-6.05867 -8.78533,-35.13333 -17.98,-51.10667 0,0 5.888,19.52267 6.74934,34.39467 -0.0147,8.67066 -1.964,19.82133 -1.964,19.82133 l 5.55733,-2.212 c 0,0 7.32133,5.52133 7.63733,-0.89733"
       style="fill:#000000;fill-opacity:1;fill-rule:nonzero;stroke:none;stroke-width:1.33333"
       id="path224790" />
    <path
       d="m 387.87426,399.9668 -1.53067,-30.86533 -17.24133,-10.46267 -3.488,-5.58 c -12.55467,-3.48667 -93.81333,-2.78933 -159.72667,-6.97467 -65.91333,-4.18533 -88.58133,0.34934 -88.58133,0.34934 -50.917328,22.668 -99.393327,21.62133 -99.393327,21.62133 l -4.516,31.912 z"
       style="fill:#2d2d2d;fill-opacity:1;fill-rule:nonzero;stroke:none;stroke-width:1.33333"
       id="path224794" />
    <path
       d="m 384.30799,364.68413 -13.87333,-9.84 c -0.65067,-14.90666 -1.74934,-31.12933 -1.74934,-31.12933 -1.2,9.78667 -2.176,21.91467 -3.60133,25.65733 l -88.50533,-3.156 -157.44533,-5.78266 c 0,0 -34.051999,21.15733 -90.558664,25.916 l -9.565333,-0.548 c 0,0 -10.3386666,-4.024 -1.706667,-52.15067 8.630667,-48.12666 17.262666,-52.57333 36.879999,-60.15866 19.617333,-7.58534 38.691999,15.01333 38.691999,15.01333 0.313334,-0.97333 -0.156,-2.12 -0.677333,-3.13067 -2.498667,-4.84 -6.449333,-8.81733 -10.912,-12.05733 -1.5,-1.088 -3.674666,-2.084 -4.724,-3.628 -0.312,-0.45867 10.946667,-7.73467 11.932,-8.17467 4.005333,-1.78666 17.130669,-8.23333 34.466669,-14.80533 19.224,-7.28667 28.996,-24.16133 38.688,-26.36667 2.31866,-0.52666 7.31333,-0.47999 8.36533,-0.50399 -0.52,0.74666 -0.936,1.70399 -1.09467,2.96133 -0.428,3.38 3.856,10.89866 6.68667,15.84 3.27067,7.6 17.596,24.70933 32.66933,35.088 18.396,12.66533 24.63733,17.116 26.70667,18.66133 0.0133,0.0267 0.0267,0.052 0.0413,0.0787 l 37.47733,69.27733 c 0.224,0.41333 0.612,0.68 1.04667,0.78666 h 0.80267 c 0.66,-0.17733 1.14933,-0.74 1.20533,-1.428 0,0 4.80667,-66.51199 4.80667,-66.51199 3.02533,-4.2 4.72933,-11.44534 3.33733,-16.404 -0.72133,-2.57467 -2.18133,-4.82934 -3.324,-7.22 -0.50133,-1.04934 -2.34533,-4.01334 -2.02133,-5.224 0.12533,-0.468 0.52,-0.88667 0.73866,-1.30534 1.3,-2.49333 -2.348,-5.728 -3.11866,-7.90533 -0.044,-0.12533 -0.13334,-1.204 0.14933,-1.216 3.54,-0.148 6.85333,1.23467 10.34133,2.78667 10.63467,4.72933 20.59067,11.29466 31.828,13.584 9.488,1.932 42.85333,8.08933 49.59867,14.68 0,0 13.252,10.98933 17.66933,27.66933 4.41733,16.68133 4.37333,43.936 -1.252,70.64666 M 174.60666,200.25747 C 180.02,197.49214 186.26,192.60681 190.18,188.68681 c 2.75733,9.428 29.76533,55.34399 66.16266,59.66666 l 2.75333,3.856 c 0.31067,0.43333 0.77734,0.68267 1.35067,0.68133 1.30267,-0.001 1.33867,-1.26533 1.91467,-2.09333 0.772,-1.11067 2.092,-1.78933 3.34133,-2.21067 1.2,-0.40533 2.52267,-0.66533 3.428,-1.552 1,-0.98 1.46267,-2.60533 2.104,-3.83066 0.33067,-0.63067 0.66933,-1.25734 1.02,-1.87867 0.116,-0.20533 0.956,-1.32933 0.88667,-1.51867 2.79733,7.71067 8.448,16.428 7.22,24.78934 -0.69467,4.732 -2.48267,8.99066 -2.83467,13.83333 -0.312,4.30267 -0.624,8.604 -0.936,12.90667 -0.73067,10.07066 -1.46133,20.14133 -2.192,30.21333 -0.25067,3.44533 -0.5,6.89067 -0.75067,10.336 l -33.532,-56.84533 c -4.14533,-9.572 -26.092,-22.79467 -40.028,-33.54667 -6.40533,-4.94267 -17.69733,-18.07467 -20.91199,-23.504 -3.50667,-7.94133 -5.056,-16.232 -4.56934,-17.732 m -41.596,17.328 c -4.65333,2.708 -56.465329,22.436 -60.649328,26.62133 0,0 -40.411999,5.36134 -50.874666,23.67067 -10.461333,18.30933 -18.5706661,74.02133 -10.985333,103.84 0,0 2.877333,4.30133 2.354667,8.68933 -0.169334,1.41333 -0.542667,19.56 -1.554667,19.56 H 16.432 l 2.876,-27.02933 c 0,0 52.311998,0.69733 91.72,-21.62134 0,0 2.09333,-5.232 6.62666,1.39467 2.948,4.30933 1.95334,33.32267 1.40534,47.256 h 5.45733 c 1.57467,-15.01333 3.79867,-46.24667 0.112,-50.39467 -5.58,-6.27733 134.61733,3.13867 141.592,2.78934 6.97466,-0.348 70.09733,-0.348 97.64933,3.836 0,0 0.28,24.532 -0.17334,43.76933 h 5.544 c 0.5,-13.82133 1.072,-31.264 1.25467,-33.65467 0,0 9.52267,2.90267 14.056,6.39067 0,0 0.32133,14.292 0.44933,27.264 h 4.80134 c 0,0 -1.56934,-24.48933 0.78533,-39.992 2.35467,-15.504 4.79733,-33.60933 -0.0347,-61.22666 -4.832,-27.61867 -24.58266,-39.83734 -24.58266,-39.83734 -7.48934,-5.10266 -38.572,-8.83066 -46.68,-10.44133 -8.264,-1.64267 -13.74267,-7.38267 -21.524,-11.14533 -2.75733,-1.332 -6.128,-3.436 -8.66667,-5.24 -2.356,-1.676 -4.35866,-4.05734 -6.54,-6.03734 -1.276,-1.14666 -5.88,2.732 -7.34133,3.86934 -1.988,1.54666 -3.94133,6.31066 -5.21067,8.47466 -0.716,1.224 -1.59466,2.33734 -2.252,3.58667 -0.66666,1.26533 -1.55066,2.36933 -2.76133,3.156 -0.59467,0.38667 -1.16667,0.688 -1.87067,0.68267 -0.66933,-0.005 -1.108,0.11733 -1.516,0.732 l -1.232,1.848 -1.80533,-2.52667 c -0.27067,-0.37867 -0.69067,-0.62267 -1.15333,-0.672 -40.28134,-4.27333 -64.992,-60.19333 -65.08533,-60.632 -0.11067,-0.51866 -0.52667,-0.956 -1.09867,-1.156 -0.57467,-0.2 -1.21733,-0.12933 -1.70267,0.18134 -0.116,0.0733 -8.93733,9.96933 -16.04933,13.696 -1.22933,-0.54534 -7.42,-1.18934 -12.78,0.0853 -10.32133,2.45333 -21.26933,16.47466 -27.69067,20.21333"
       style="fill:#000000;fill-opacity:1;fill-rule:nonzero;stroke:none;stroke-width:1.33333"
       id="path224798" />
    <path
       d="m 320.33559,374.954 c -0.003,-0.0453 0.48934,-0.84667 0.48934,-0.84667 l 7.64266,-0.33333 -0.33066,3.02533 -0.40134,-0.0307 c 0,0 -6.85066,0.43866 -7.152,0.136 -0.30133,-0.30267 -0.24533,-1.90534 -0.248,-1.95067 m -2.224,5.524 c 0.42134,0.76667 9.07067,1.86267 9.07067,1.86267 l 3.39467,-13.14667 c 0,0 -8.404,-0.11067 -9.60267,0.10933 -1.2,0.21867 -2.31867,1.752 -2.644,4.05334 -0.32667,2.30133 -0.63867,6.35466 -0.21867,7.12133"
       style="fill:#d9a14b;fill-opacity:1;fill-rule:nonzero;stroke:none;stroke-width:1.33333"
       id="path224802" />
    <path
       d="m 348.58052,376.90493 c -0.228,0.30267 -6.48933,-0.136 -6.48933,-0.136 l -0.35867,0.0307 -0.74933,-3.02533 6.96267,0.33333 c 0,0 0.564,0.80133 0.568,0.84667 0.005,0.0453 0.29466,1.648 0.0667,1.95066 m 1.51067,-3.548 c -0.63733,-2.30133 -1.87867,-3.83466 -2.996,-4.05333 -1.11733,-0.22 -8.70267,-0.11067 -8.70267,-0.11067 l 5.02934,13.148 c 0,0 7.66,-1.096 7.92666,-1.86266 0.26534,-0.76667 -0.62,-4.82134 -1.25733,-7.12134"
       style="fill:#d9a14b;fill-opacity:1;fill-rule:nonzero;stroke:none;stroke-width:1.33333"
       id="path224806" />
    <path
       d="m 325.07319,398.59747 c -0.16933,0 -0.344,-0.048 -0.50533,-0.144 -0.38,-0.228 -0.62933,-0.68534 -0.636,-1.172 -0.007,-0.49467 -0.14933,-12.216 1.86933,-20.72267 2.048,-8.62533 5.78934,-17.97333 7.144,-20.19067 0.19467,-0.316 0.51467,-0.49066 0.85733,-0.472 0.344,0.02 0.67067,0.232 0.87734,0.572 0.40933,0.67334 10.048,16.73067 12.68266,38.38267 0.0693,0.56933 -0.19733,1.092 -0.64666,1.272 -0.448,0.18133 -0.96667,-0.028 -1.25867,-0.508 -1.79333,-2.93733 -5.16,-7.21067 -6.788,-7.21067 -0.0213,0 -0.044,0 -0.0653,0.003 -1.82667,0.13467 -8.644,5.89067 -12.90133,9.93467 -0.17867,0.16933 -0.40134,0.256 -0.62934,0.256"
       style="fill:#d9a14b;fill-opacity:1;fill-rule:nonzero;stroke:none;stroke-width:1.33333"
       id="path224810" />
    <path
       d="m 333.80212,356.72613 c -0.108,0 -0.208,0.0587 -0.26933,0.15867 -1.33066,2.17733 -5.01733,11.40667 -7.04533,19.94933 -1.99467,8.39734 -1.852,20.00267 -1.84533,20.49334 0.003,0.16133 0.0853,0.31466 0.212,0.39066 0.12266,0.0733 0.27733,0.0587 0.37866,-0.0373 2.896,-2.752 10.92667,-9.93067 13.27733,-10.104 l 0.108,-0.004 c 2.27467,0 6.11734,5.48 7.40667,7.592 0.0973,0.16 0.26933,0.228 0.41733,0.17067 0.152,-0.0613 0.24134,-0.236 0.21734,-0.42534 -2.60934,-21.44933 -12.144,-37.32666 -12.548,-37.992 -0.0693,-0.11333 -0.17867,-0.18533 -0.292,-0.19066 -0.005,-0.001 -0.012,-0.001 -0.0173,-0.001 m -8.67733,42.70267 c -0.288,0 -0.57866,-0.0827 -0.84266,-0.24 -0.632,-0.38 -1.048,-1.14533 -1.06,-1.95333 -0.007,-0.49867 -0.152,-12.33334 1.89466,-20.952 2.06667,-8.70534 5.86267,-18.17467 7.24134,-20.42934 0.32266,-0.52666 0.85066,-0.82533 1.42666,-0.78933 0.57333,0.0333 1.12,0.38933 1.464,0.95467 0.41333,0.68 10.156,16.90533 12.816,38.77333 0.116,0.94667 -0.32667,1.81867 -1.076,2.11867 -0.748,0.30133 -1.612,-0.0453 -2.1,-0.84534 -2.14267,-3.51066 -5.14,-6.83066 -6.168,-6.83066 -1.47867,0.108 -7.67466,5.13733 -12.548,9.76666 -0.28933,0.27467 -0.66266,0.42667 -1.048,0.42667"
       style="fill:#000000;fill-opacity:1;fill-rule:nonzero;stroke:none;stroke-width:1.33333"
       id="path224814" />
    <path
       d="m 333.90839,359.4808 c -1.61066,3.492 -4.41733,11.02 -6.05066,17.904 -1.372,5.77467 -1.70267,13.32933 -1.77734,17.30933 3.332,-3.04666 9.71733,-8.592 12.24,-8.77733 2.024,-0.152 4.45467,2.31333 6.27467,4.64 -2.58934,-15.004 -8.412,-26.85467 -10.68667,-31.076"
       style="fill:#999999;fill-opacity:1;fill-rule:nonzero;stroke:none;stroke-width:1.33333"
       id="path224818" />
    <path
       d="m 345.49786,382.88827 c 0,0 5.656,-0.876 6.16533,-1.75334 0.508,-0.876 -0.0187,-4.41733 -0.64667,-6.608 -0.62666,-2.192 -1.36933,-5.00533 -3.44533,-5.55333 -2.07733,-0.54667 -7.08667,-0.876 -7.08667,-0.876 l 0.70134,2.08133 c 0,0 6.06666,0.0227 6.89733,0.65734 0.96933,0.74133 1.65333,2.07066 1.972,3.944 0.30533,1.79866 1.096,4.492 0.904,5.14933 -0.192,0.65733 -6.216,1.20533 -6.216,1.20533 z"
       style="fill:#000000;fill-opacity:1;fill-rule:nonzero;stroke:none;stroke-width:1.33333"
       id="path224822" />
    <path
       d="m 343.27919,376.3148 c 0,0 3.98667,0.21867 4.83067,0.21867 0.844,0 0.15333,-1.972 -0.52267,-1.972 -0.67467,0 -4.99867,-0.21867 -4.99867,-0.21867 l -0.0827,-0.876 c 0,0 4.84,0.31867 5.516,0.328 0.676,0.009 1.13333,2.19067 1.11066,2.84933 -0.0227,0.65734 -1.45733,0.65734 -2.21733,0.65734 -0.75867,0 -3.46933,-0.11067 -3.46933,-0.11067 z"
       style="fill:#000000;fill-opacity:1;fill-rule:nonzero;stroke:none;stroke-width:1.33333"
       id="path224826" />
    <path
       d="m 324.97719,382.88827 c 0,0 -6.39733,-0.876 -7.10533,-1.75334 -0.70667,-0.876 -0.588,-4.44933 -0.256,-6.64 0.332,-2.192 0.97867,-4.848 3.184,-5.396 2.20533,-0.548 7.284,-1.00133 7.284,-1.00133 l -0.432,2.08133 c 0,0 -6.832,-0.15466 -7.51733,0.65734 -0.54134,0.64266 -1.34934,2.54 -1.61467,4.29333 -0.26667,1.75333 -0.388,4.14267 -0.068,4.8 0.32,0.65733 7.07067,1.20533 7.07067,1.20533 z"
       style="fill:#000000;fill-opacity:1;fill-rule:nonzero;stroke:none;stroke-width:1.33333"
       id="path224830" />
    <path
       d="m 326.34773,376.3148 c 0,0 -4.372,0.21867 -5.30534,0.21867 -0.932,0 -0.49333,-1.972 0.25334,-1.972 0.74666,0 5.49066,-0.21867 5.49066,-0.21867 l -0.0533,-0.876 c 0,0 -5.29867,0.31867 -6.044,0.328 -0.74533,0.009 -0.892,2.19067 -0.75867,2.84933 0.13334,0.65734 1.72,0.65734 2.55867,0.65734 0.84,0 3.81867,-0.11067 3.81867,-0.11067 z"
       style="fill:#000000;fill-opacity:1;fill-rule:nonzero;stroke:none;stroke-width:1.33333"
       id="path224834" />
    <path
       d="m 291.96413,266.68347 c 1.35066,4.556 2.25066,9.364 3.02133,14.176 2.32,15.94933 2.47333,32.65067 1.40667,49.24533 l -0.33067,3.86533 c -2.27467,-0.0907 -4.53867,-0.184 -6.79467,-0.25733 3.95067,-16.64666 3.33334,-36.91333 -1.24666,-52.228 0.0307,-0.21066 0.0533,-0.42266 0.084,-0.63466 0.32933,-1.72534 0.576,-3.26 1.24666,-4.78667 1.41467,-2.516 2.24267,-5.80533 2.61334,-9.38 m -4.10267,66.984 c -1.30533,-0.0427 -2.60533,-0.0853 -3.90267,-0.12667 0.77734,-15.22266 1.392,-30.53866 3.21467,-45.70933 0.10933,1.64533 0.22133,3.29333 0.31867,4.94267 0.71733,13.50266 0.96933,27.156 0.36933,40.89333 m -1.344,-89.06 c 1.776,3.73867 2.676,8.03733 3.06267,12.43733 0.48,5.47867 0.42533,12.19467 -2.42,17.46267 -1.03867,1.83333 -1.45734,3.99067 -1.88934,5.99333 -3.26533,18.79067 -4.00533,37.728 -5.11333,56.60267 0,0 -0.0187,0.37333 -0.0187,0.37333 l 0.33334,0.0147 79.92799,3.28533 c 0,0 0.32267,0.0133 0.32267,0.0133 0,0 0.0387,-0.332 0.0387,-0.332 3.23466,-13.72399 3.05733,-31.01466 2.06266,-45.63999 -0.51333,-7.29867 -1.32,-13.97734 -2.35466,-21.18667 -0.81867,-4.55733 -3.464,-12.70267 -5.97334,-15.176 -0.096,-0.036 -0.18266,-0.0667 -0.28266,-0.10267 -0.24134,-0.0867 -0.50267,-0.17733 -0.77734,-0.272 1.59734,4.53467 4.29467,13.47467 4.96267,18.28134 1.372,14.39466 2.04,26.512 1.68133,40.74666 -0.19066,6.00934 -0.41466,13.11067 -2.35333,19.86533 -1.69467,-0.10266 -3.37733,-0.20533 -5.08533,-0.30533 1.33466,-5.872 1.676,-12.132 1.948,-18.272 0.52266,-7.76666 0.572,-15.55066 0.29733,-23.32 -0.55867,-11.62 -1.688,-26.004 -5.91867,-36.05466 -0.40933,-0.91334 -0.87333,-1.792 -1.39066,-2.624 -0.56667,-0.168 -1.14534,-0.33867 -1.736,-0.51067 3.23333,5.69333 4.14666,15.16533 5.08666,22.252 0.44534,3.232 0.70267,8.096 0.976,11.40933 0.83067,15.648 1.68,31.85867 -0.0773,47.07467 -2.97867,-0.17334 -5.97333,-0.34 -8.97067,-0.50267 0.46934,-2.352 1.104,-6.22 1.352,-7.70533 2.58267,-19.39067 3.128,-39.384 -0.63866,-58.048 -1.21734,-4.85333 -2.71734,-10.69333 -5.10134,-14.592 -0.52933,-0.73467 -1.096,-1.504 -1.70666,-2.23467 -0.748,-0.18666 -1.496,-0.368 -2.24134,-0.54666 3.17067,3.78 4.812,9.85733 5.952,15.26133 2.03867,9.52933 2.496,19.72933 2.844,29.71067 0.0107,5.40533 0.092,12.79066 -0.176,18.22 -0.12933,6.644 -0.48,13.33333 -1.12933,19.88933 -2.928,-0.15734 -5.852,-0.30934 -8.77066,-0.45734 0.58933,-3.04133 1.18266,-6.43866 1.63199,-8.82533 2.04267,-12.84933 2.83734,-26.176 2.20134,-38.92266 -0.176,-4.19467 -0.77334,-8.68134 -1.28934,-12.772 0,0 -1.272,-6.224 -1.272,-6.224 -1.29466,-5.624 -3.93733,-13.36934 -8.18533,-18.30934 -0.98266,-0.29066 -1.93066,-0.55733 -2.84133,-0.79733 2.78533,3.03067 4.584,7.18933 5.96667,11.25867 0.30266,0.76266 0.69866,2.088 0.86933,2.88 0.40533,1.75466 1.13333,4.14 1.38667,5.93466 l 1.02,6.09334 c 0,0 0.62933,6.22266 0.62933,6.22266 0.19333,1.55067 0.412,4.692 0.436,6.27867 0.4,5.88 0.37066,13.11467 0.32266,19.07467 -0.21066,9.33866 -0.90533,18.69866 -1.70133,28.06666 -2.87866,-0.14533 -5.74,-0.28533 -8.58533,-0.42 0.65333,-3.84933 1.708,-9.72933 2.216,-13.49866 2.34667,-21.94267 2.47733,-44.84 -5.24,-64.15467 -1.52667,-3.26933 -3.248,-6.52667 -5.43333,-9.28267 -1.024,-0.18533 -2.096,-0.44933 -3.2,-0.764 13.176,17.20267 12.78,54.17467 11.532,77.66667 0,0 -0.42534,6.04267 -0.704,9.99333 -2.828,-0.132 -5.63334,-0.26133 -8.404,-0.384 1.83333,-9.83466 2.82533,-19.792 3.28266,-29.69733 -0.036,-5.68267 0.10934,-12.74267 -0.53333,-18.30133 l -0.672,-7.24134 c -0.54933,-3.436 -1.32,-7.18533 -1.94133,-10.60533 -0.712,-2.676 -1.64934,-5.87467 -2.46667,-8.496 -0.72267,-1.80933 -1.848,-4.67867 -2.62133,-6.44667 -0.53734,-1.08933 -1.86667,-3.39066 -2.46934,-4.496 -1.04266,-1.864 -2.39466,-3.64 -3.832,-5.272 -1.724,-0.75466 -3.46933,-1.568 -5.212,-2.40666 1.96667,1.90666 3.688,4.176 5.112,6.56666 6.66534,11.096 9.15734,25.3 10.53334,39.19467 0.548,4.03467 0.66,10.07733 0.868,14.25733 0.26266,4.13467 0.0133,10.196 0.016,14.44667 0.0467,4.1 -0.53334,12.636 -0.888,18.46133 -2.79867,-0.12267 -5.55467,-0.23867 -8.27334,-0.35067 1.16934,-6.74399 2.188,-13.54666 2.56534,-20.33999 0.23066,-3.9 0.436,-7.808 0.56266,-11.70134 -0.0547,-2.41866 -0.26533,-9.16133 -0.33466,-11.62933 -0.26134,-5.08 -1.03334,-10.29467 -1.68934,-15.25733 -1.50933,-7.38 -3.18533,-14.89734 -6.27066,-21.44934 0,0 -1.48267,-3.316 -1.48267,-3.316 -0.93867,-1.90133 -2.59333,-4.264 -3.652,-6.11733 -1.596,-2.164 -3.37333,-4.264 -5.33333,-6.112 -2.12534,-0.84933 -4.16667,-1.65067 -6.06934,-2.33867 4.43467,3.34134 7.96267,8.124 10.62534,13.41334 6.068,11.812 8.55066,25.92266 10.124,40.064 0.21066,3.408 0.61733,9.80533 0.82666,13.2 0.08,2.67466 0.048,8.64933 0.0747,11.456 0.14267,4.52 -0.40533,13.92533 -0.71467,20.09733 -1.71333,-0.0707 -3.424,-0.14 -5.09733,-0.20534 -0.712,-0.0347 -1.424,-0.0533 -2.13467,-0.084 5.19334,-22.62533 4.61334,-51.60133 -5.36133,-69.61733 0.24667,-5.132 -0.31733,-10.232 -1.55467,-14.93066 -1.01333,-3.844 -2.56,-7.50267 -5.09066,-10.184 -1.69334,-1.796 -3.67067,-3.19734 -5.68134,-4.52134 l -2.48,-0.15066 c 0.52267,0.40266 1.844,1.424 1.844,1.424 3.08267,2.35866 5.53867,4.76 7.34267,8.56133"
       style="opacity:0.199997;fill:#000000;fill-opacity:1;fill-rule:nonzero;stroke:none;stroke-width:1.33333"
       id="path224844" />
    <path
       d="m 378.09332,330.80587 c 2.18134,3.468 6.7,11.72133 6.49867,20.12533 l -6.85867,-6.67733 c 0,0 0.36267,-5.124 0.36,-13.448 m 8.85734,-39.388 c -1.11867,-3.37867 -2.78134,-6.824 -4.75867,-10.16133 -2.416,-2.092 -5.52,-4.028 -9.58667,-5.768 -0.688,-3.232 -1.46266,-6.47867 -2.328,-9.716 -0.33333,-0.34134 -0.66666,-0.684 -0.99466,-1.00534 l -2.796,-1.59733 0.784,0.784 c 0,0 9.94,46.03467 5.49333,82.65333 l 13.86267,10.98533 1.04533,-3.66133 -0.87333,-0.85067 c 0.26666,-3.48266 0.016,-13.448 -8.764,-27.99599 -0.0773,-3.908 -0.24534,-8.28134 -0.54534,-12.99334 3.444,3.69334 11.4,13.904 12.01467,30.06933 l 1.83067,-9.93866 c 0,0 -2.17734,-15.672 -14.16,-24.56 -0.264,-3.34933 -0.59867,-6.83333 -1.01867,-10.42 3.20267,1.95733 10.40933,7.69867 13.632,21.12133 l -0.89867,-6.02 c -0.66666,-8.04266 -3.372,-15.35733 -13.54133,-21.312 -0.476,-3.35066 -1.03333,-6.764 -1.67733,-10.21066 2.73466,1.15866 8.30133,4.13333 13.28,10.59733"
       style="opacity:0.199997;fill:#000000;fill-opacity:1;fill-rule:nonzero;stroke:none;stroke-width:1.33333"
       id="path224860" />
    <path
       d="m 47.761065,327.0284 c 0.406667,-10.75466 0.650667,-22.13333 5.494667,-31.23333 4.704,-9.172 11.050666,-17.51467 19.964,-22.972 4.917333,-3.124 10.309333,-5.56133 15.937332,-7.64667 3.262667,6.248 3.382667,10.08667 2.936,12.156 -11.674666,4.22534 -22.521332,10.90534 -27.470666,22.18267 -5.762666,15.89333 -4.357333,34.62666 0.206667,52.48 -0.03333,0.005 -0.06667,0.0133 -0.1,0.02 -5.354666,1.10533 -10.678666,2.15066 -15.994666,3.032 -0.745334,-9.46 -1.12,-18.81867 -0.973334,-28.01867 m 50.895999,-36.824 c -2.812,1.348 -5.476,2.96 -7.953333,4.82134 -15.492,11.232 -21.281333,33.72933 -14.161333,54.11599 -3.482666,1.016 -6.998666,1.89334 -10.549333,2.61334 -2.404,-17.392 -3.278667,-35.20933 2.325333,-50.33467 3.486667,-8.34533 10.932,-14.05066 18.724,-18.41866 3.021333,-1.65867 6.173333,-3.144 9.417333,-4.492 2.609333,5.712 2.538667,9.69866 2.197333,11.69466 m 4.725336,12.62534 c -14.796002,5.83333 -19.792002,25.43466 -13.580002,41.74933 -3.928,1.54933 -7.897333,2.956 -11.917333,4.17333 -0.974667,-5.24267 -1.317334,-10.48933 -1.106667,-15.572 0.549333,-14.00933 6.342667,-26.89733 16.277333,-35.632 2.629333,-2.33466 5.524,-4.39066 8.581329,-6.25066 2.22,5.48 1.96134,9.89866 1.74534,11.532 m 3.02,0.32 c 0.53866,1.17333 0.92133,1.02266 1.62533,3.82666 0.604,2.40134 -0.94533,7.20134 -3.50267,10.008 -4.953329,3.596 -8.286662,14.076 -6.129329,23.94133 -2.270667,1.032 -4.554667,2.02134 -6.856,2.95867 -0.405333,-2.84267 -0.64,-5.67733 -0.689333,-8.46933 -0.202667,-11.608 3.472,-23.072 12.208002,-29.88133 1.03466,-0.88667 2.17333,-1.65467 3.344,-2.384 m 9.88266,33.47866 0.13734,-3.548 -1.66267,-8.176 c -0.748,0.36934 -2.15333,9.23333 -5.38133,10.79467 -2.816,1.36266 -5.88934,2.84266 -8.04134,3.86266 0.28934,-7.85066 1.804,-15.69066 6.49734,-21.43333 0.84933,-1.05866 1.83066,-2.044 2.96,-2.792 l 0.59466,-0.23466 c 0,0 -0.66,-1.96534 -7.004,-19.81334 -6.186662,-17.408 -13.987996,-30.58533 -13.987996,-30.58533 l -2.266666,-4.96667 -2.868,-1.408 c 1.845333,2.424 1.772,4.28934 1.329333,5.484 -5.312,1.576 -10.430666,3.616 -15.225333,6.34134 -9.562666,5.13466 -16.630666,14.09333 -21.530666,23.46133 -0.926667,1.692 -1.902667,3.924 -2.465333,5.90933 -2.541333,8.50667 -2.853333,17.84934 -2.644,27.02667 0.270667,9.46133 1.232,19.02266 2.993333,28.66266 -3.062666,0.49334 -6.118666,0.94534 -9.185333,1.28267 -1.494667,0.14133 -2.996,0.276 -4.501333,0.384 -1.332,-10.97333 -1.841333,-21.83333 -1.417333,-32.41333 0.596,-12.37733 2.409333,-24.85333 8.039999,-35.216 2.729334,-5.31333 7.033333,-9.23733 11.693333,-12.79333 9.289333,-7.31867 19.536,-13.78534 31.006666,-18.39467 0.434667,-0.18267 0.88,-0.34533 1.317334,-0.52133 -0.548,-0.54134 -1.092,-1.05334 -1.621334,-1.528 -6.237333,2.04133 -12.262666,4.41333 -17.805333,7.62 -5.405333,2.896 -10.403999,6.328 -15.223999,9.88533 -5.062667,3.62133 -9.693333,8.024 -12.649333,13.57467 -9.937333,18.94 -9.173333,46.18933 -4.28,69.84533 -3.104,0.19333 -6.221333,0.22933 -9.334667,-0.13067 -0.564,-4.2 -0.985333,-8.38533 -1.262666,-12.53867 -0.291155,-4.77036 -0.646171,-22.35617 1.386877,-36.7166 2.652451,-13.54683 3.052612,-19.17097 10.505476,-31.45604 1.563348,-2.10123 10.488848,-10.30934 15.426912,-13.69002 7.244552,-4.95975 20.2268,-10.08718 20.289086,-10.65146 0,0 -2.35147,-3.05658 -6.278061,-0.22106 -2.184105,1.57721 -18.226529,8.02364 -22.530716,11.71312 -4.651911,3.98753 -10.771615,11.26868 -12.568657,14.65421 -5.335192,10.05124 -7.100001,22.165 -7.693345,26.47229 -1.516385,11.00797 -1.514688,25.5066 -1.392239,29.7049 0.220666,7.56582 1.401333,15.01333 3.013333,22.56933 -1.189333,-0.17467 -2.378666,-0.39067 -3.563999,-0.70267 -1.016,-0.29466 -2.036,-0.67733 -3.004,-1.18133 l -0.144,1.21067 C 47.175732,369.18173 116.28506,336.6284 116.28506,336.6284"
       style="opacity:0.199997;fill:#000000;fill-opacity:1;fill-rule:nonzero;stroke:none;stroke-width:1.33333"
       id="path224876"
       sodipodi:nodetypes="cccccccccccccccccccccccccccccccccccccccccccccccccccccccccccccccccccscsssssccccc" />
    <path
       d="m 216.11973,315.34787 c -1.728,-6.372 -4.096,-13.108 -6.23067,-19.32 -6.04667,-17.524 -13.68533,-34.552 -23.036,-50.38533 -0.11066,-0.21734 -0.24266,-0.45867 -0.384,-0.71067 3.64667,3.50533 7.47067,6.804 11.32667,10.00933 3.5,2.868 7.04,5.64534 10.61466,8.372 4.94267,10.31467 9.36,20.94134 13.38,31.72667 4.404,11.77733 8.484,23.73867 12.20534,35.85467 -4.57867,-0.19867 -9.23467,-0.38934 -13.92134,-0.57334 -1.24133,-5.01466 -2.60266,-9.996 -3.95466,-14.97333 m 7.51066,-41.08667 c 0.33734,0.68267 0.86534,1.752 1.552,3.14 7.276,17.85467 14.03067,36.04134 21.976,54.096 -4.06533,-0.19733 -8.22,-0.38666 -12.44533,-0.57066 -4.696,-21.68 -11.34,-42.984 -20.27867,-63.128 3.02667,2.204 6.084,4.36666 9.196,6.46266 m 28.40667,57.47734 c -1.30267,-0.0667 -2.628,-0.13067 -3.952,-0.196 -1.992,-7.008 -4.16267,-13.94934 -6.44667,-20.83867 -0.003,-0.007 -0.005,-0.0133 -0.007,-0.02 4.10133,8.3 7.956,16.09733 10.40533,21.05467 M 102.4264,267.4892 C 96.310398,258.56787 89.018398,248.98254 79.501065,244.53987 l -0.545334,0.47333 c 5.593334,2.78667 10.454667,7.36 14.453333,12.50134 11.037336,13.968 19.227996,30.23466 25.585336,47.128 3.272,8.57333 6.208,17.31733 8.75466,26.17866 l 129.928,5.29333 0.58533,0.0253 -0.296,-0.588 -30.768,-62.21333 -5.47466,-4.26667 c -3.308,-2.27333 -6.604,-4.58 -9.87334,-6.93467 l -6.30666,-4.63866 c -6.48,-4.888 -12.784,-10.03334 -18.732,-15.61734 -2.89733,-2.804 -5.79467,-5.70666 -8.272,-8.92933 -0.068,-0.0893 -0.13733,-0.17867 -0.20533,-0.26933 -0.80267,-1.05867 -1.56,-2.152 -2.25334,-3.28934 -1.42666,-2.32933 -2.15466,-5.00933 -3.27333,-7.54266 -1.34267,-3.53734 -3.31733,-7.46 -4.868,-11.41334 -1.11733,-3.58133 -5.772,-9.96266 -4.76533,-12.52266 l -0.94267,-0.012 -1.33733,0.79067 c -0.48,1.216 -0.644,3.51999 1.22266,7.66666 -2.71866,-1.44667 -5.51866,-2.60533 -8.388,-3.428 l -1.06533,0.62933 c 1.71333,0.6 3.41467,1.25734 5.07867,2.068 1.824,0.88267 3.58133,1.92667 5.29466,3.06667 1.83067,4.42533 8.024,16.55467 8.25067,17.168 -3.08267,-3.53467 -11.61867,-10.08533 -15.36267,-11.644 -0.65866,-0.26533 -10.02266,-4.41733 -10.70533,-4.64933 l -2.29333,1.72 c 0.67466,0.26133 4.224,1.688 4.69466,1.87866 0.58534,0.24 2.63067,1.368 3.16934,1.61334 13.79066,7.68 26.65866,20.71066 36.39066,38.64266 9.81067,18.07467 17.79333,37.83867 23.55867,52.99067 2.08266,5.20533 5.77466,16.16933 8.41066,23.86933 -4.27733,-0.168 -8.57733,-0.33066 -12.87733,-0.488 -0.984,-4.27866 -2.06,-8.536 -3.15733,-12.78533 -0.14267,-0.54933 -0.288,-1.1 -0.43334,-1.64933 -1.61866,-6.18667 -3.80666,-12.67867 -5.84266,-18.72267 -2.544,-7.52533 -5.408,-14.95333 -8.61333,-22.20933 -4.03334,-9.132 -8.79734,-17.88134 -13.764,-26.44534 -1.764,-3.04 -6.05467,-9.16133 -8.18267,-12.048 -4.60267,-6.244 -10.948,-9.292 -17.29867,-13.57466 -3.164,-2.13334 -6.644,-4.03334 -10.14933,-5.43467 -0.32,-0.128 -0.65733,-0.232 -0.98533,-0.352 l -1.364,0.71067 c 0.40933,0.164 0.80133,0.32533 1.10666,0.452 0.62,0.25866 2.464,1.248 3.03334,1.54 1.36533,0.69866 2.676,1.552 3.996,2.41866 8.20933,5.38267 16.15333,11.264 22.50933,21.00267 2.85333,4.36667 5.56667,8.96933 8.13867,13.692 2.73333,5.01867 5.30666,10.172 7.71866,15.316 1.184,2.53467 2.836,6.15733 3.932,8.66133 1.13467,2.59334 2.66534,6.28134 3.70267,8.792 2.572,6.204 4.908,12.47334 6.952,17.88934 0.85733,2.27066 2.06933,5.65066 3.264,9.148 1.332,3.89866 3.09066,9.33066 4.48533,13.56266 -4.30533,-0.156 -8.6,-0.30933 -12.864,-0.45866 -0.86933,-4.12534 -1.832,-8.232 -2.83466,-12.32934 -0.12934,-0.532 -0.26667,-1.064 -0.40134,-1.59466 -1.512,-6.00134 -3.52133,-12.25067 -5.45866,-18.12534 -2.40934,-7.288 -5.14934,-14.47733 -8.24667,-21.484 -3.90267,-8.82266 -8.49467,-17.28133 -13.48,-25.43333 -1.884,-3.08133 -5.86267,-8.588 -8.11733,-11.484 -4.39734,-5.648 -10.056,-8.668 -16.00134,-12.54133 -2.944,-1.91734 -6.152,-3.61734 -9.38933,-4.88134 l -0.112,0.0587 -1.40267,0.628 c 0.18,0.076 0.34934,0.14667 0.50134,0.212 0.65466,0.27867 2.288,1.14933 2.89733,1.46533 1.30267,0.67334 2.56133,1.47334 3.82,2.292 7.95867,5.16534 15.22933,11.10534 21.27733,20.26534 2.748,4.15466 5.348,8.52933 7.80267,13.01733 2.616,4.77867 5.06667,9.684 7.35467,14.58667 0.94266,2.03066 2.868,6.24666 3.74133,8.25333 0.90267,2.07733 2.65067,6.384 3.476,8.396 2.37333,5.748 4.616,11.92533 6.49333,17.08267 0.80667,2.21733 1.96534,5.53066 3.028,8.72533 1.02667,3.084 2.75067,8.648 4.08,12.85733 -4.33733,-0.152 -8.63466,-0.29866 -12.86133,-0.44266 -0.75733,-3.97734 -1.60933,-7.94 -2.51733,-11.89334 -0.11867,-0.51333 -0.24667,-1.02666 -0.372,-1.54 -1.40667,-5.81466 -3.23734,-11.81866 -5.076,-17.52666 -2.27734,-7.048 -4.89334,-14 -7.88534,-20.75467 -3.772,-8.512 -8.212,-16.672 -13.20133,-24.41867 -2.00933,-3.12133 -5.664,-8.01333 -8.05333,-10.91466 -4.172,-5.068 -9.16934,-8.044 -14.708,-11.504 -2.67867,-1.672 -5.56267,-3.14667 -8.48,-4.26534 l -1.516,0.67867 c 0.20133,0.0853 0.40933,0.172 0.584,0.248 0.68933,0.29867 2.11066,1.05067 2.76133,1.38933 1.24,0.648 2.44533,1.396 3.64267,2.168 7.70933,4.944 14.30533,10.94134 20.04666,19.52134 2.644,3.94 5.132,8.08666 7.472,12.33733 2.49734,4.53867 4.82534,9.19733 6.992,13.85333 0.704,1.52667 2.9,6.33867 3.552,7.84667 0.67334,1.56 2.632,6.488 3.25067,7.99867 2.16667,5.29333 4.32533,11.376 6.03733,16.27333 0.756,2.16533 1.864,5.40933 2.796,8.3 0.73867,2.292 2.42134,7.97067 3.688,12.16933 -4.384,-0.14933 -8.67733,-0.29333 -12.86666,-0.436 -0.648,-3.832 -1.39067,-7.652 -2.20667,-11.46266 -0.10533,-0.49734 -0.22533,-0.99067 -0.34,-1.48667 -1.30267,-5.628 -2.956,-11.38667 -4.69733,-16.92533 -2.14534,-6.80934 -4.63867,-13.52134 -7.528,-20.02534 -3.64267,-8.20133 -7.948,-16.05333 -12.92667,-23.4 -2.14133,-3.16 -5.46,-7.44133 -7.99333,-10.344 -3.92667,-4.49866 -8.328,-7.416 -13.18134,-10.45866 -2.28,-1.43067 -5.21066,-2.68267 -7.80533,-3.656 l -1.00133,0.67866 c 0.22133,0.0973 0.436,0.19467 0.63333,0.28534 0.69467,0.32133 1.84533,0.952 2.504,1.31466 1.124,0.62 2.20933,1.31734 3.28133,2.04 7.024,4.72534 13.20267,10.77867 18.64,18.77467 2.54,3.72533 4.916,7.64133 7.14134,11.656 2.38133,4.29467 4.59733,8.7 6.63333,13.116 0.46933,1.01867 2.932,6.42933 3.364,7.436 0.44667,1.04267 2.61733,6.59333 3.028,7.60133 1.96933,4.83334 4.036,10.82534 5.584,15.46 0.708,2.11467 1.76267,5.288 2.56667,7.876 0.47066,1.51467 2.10266,7.28934 3.308,11.48534 -1.14534,-0.0387 -2.3,-0.0773 -3.428,-0.116 -3.15067,-0.11467 -6.29867,-0.20934 -9.448,-0.292 -0.53867,-3.696 -1.17467,-7.38134 -1.9,-11.06 -0.0947,-0.47867 -0.20667,-0.95467 -0.312,-1.43067 -1.19734,-5.44267 -2.676,-10.95467 -4.32,-16.324 -2.016,-6.56933 -4.38667,-13.04133 -7.172,-19.29333 -3.51734,-7.88934 -7.696,-15.432 -12.66,-22.37867 -2.27334,-3.2 -5.248,-6.876 -7.93734,-9.77067 -3.664,-3.944 -7.776,-6.78266 -12.26,-9.408 -2.032,-1.18933 -4.17466,-2.22133 -6.367996,-3.04533 l -1.585333,0.68267 c 0.242667,0.108 0.489333,0.21733 0.713333,0.32266 0.726667,0.34267 1.677334,0.852 2.373334,1.23867 1.065332,0.59067 2.101332,1.23867 3.117332,1.91333 6.79333,4.50267 12.684,10.61067 17.82,18.02 2.43733,3.50934 4.70267,7.19334 6.81333,10.97067 2.26534,4.052 4.364,8.20667 6.27867,12.37733 0.23467,0.50934 2.96267,6.52 3.17867,7.02534 0.22133,0.52133 2.60133,6.696 2.80666,7.2 1.77334,4.37333 3.73734,10.27733 5.13467,14.64666 0.65333,2.06267 1.66133,5.16534 2.33733,7.44934 0.22267,0.75333 1.80667,6.636 2.94934,10.84 -4.29334,-0.10934 -8.58934,-0.19067 -12.89467,-0.23734 -0.45867,-3.616 -1.03467,-7.224 -1.60533,-10.83866 -2.43867,-12.10267 -5.96667,-24.29867 -11.04934,-35.656 -5.056,-11.3 -11.65866,-21.78267 -20.28,-30.548 -4.723996,-4.69067 -10.257329,-8.30134 -16.249329,-10.56667 l -1.498666,-0.11867 c 1.830666,0.98534 3.603999,2.12267 5.291999,3.36667 6.562667,4.82933 12.169336,10.97333 17.003996,17.792 4.84934,6.83733 8.92667,14.36 12.41467,21.916 l 2.99333,6.612 c 0,0 2.588,6.8 2.588,6.8 1.60267,3.904 3.44267,9.728 4.68934,13.83067 0.59866,2.012 1.65733,5.02133 2.11066,7.02133 0,0 1.6,6.264 2.65067,10.376 -2.09333,-0.02 -4.192,-0.024 -6.29067,-0.028 -6.82,-21.172 -14.84533,-42.06533 -27.35466,-60.12267"
       style="opacity:0.199997;fill:#000000;fill-opacity:1;fill-rule:nonzero;stroke:none;stroke-width:1.33333"
       id="path224892" />
    <path
       d="M 12.681333,399.9668 H 13.648 67.434665 C 63.451998,308.91614 101.612,290.28414 101.612,290.28414 c 0,0 0.43466,-10.748 7.85866,-13.14267 64.81734,-20.91333 96.128,-19.172 96.128,-19.172 0,0 -41.76,-32.34667 -32.08533,-59.8 l -0.0427,-0.59333 -0.872,0.41333 -10.36666,-0.0867 -33.816,23.58533 -35.880002,16.056 -11.106667,5.31733 -6.630666,5.76933 c 0,0 -7.104,-2.18266 -16.706666,0.772 -9.602667,2.95467 -27.7,8.49467 -32.501333,19.944 C 20.789333,280.79614 7.1239998,328.06947 9.7093331,348.75213 12.294666,369.4348 15.988,374.9748 15.988,374.9748"
       style="opacity:0.199997;fill:#000000;fill-opacity:1;fill-rule:nonzero;stroke:none;stroke-width:1.33333"
       id="path224908" />
    <path
       d="m 149.39053,346.43307 c -14.28,0.22933 -19.69333,0.34666 -26.26133,0.612 l -1.196,2.31466 c 0,0 -4.04534,26.76267 0.25466,50.60667 h 34.17734 c -9.416,-24.936 -7.84934,-49.19867 -6.97467,-53.53333"
       style="opacity:0.199997;fill:#000000;fill-opacity:1;fill-rule:nonzero;stroke:none;stroke-width:1.33333"
       id="path224924" />
    <path
       d="m 242.96039,260.89534 c 0.216,-2.37734 0.856,-12.872 -3.352,-13.924 -12.64133,-3.16 -16.632,-10.04534 -24.04266,-17.34934 -8.344,-8.224 -23.82667,-29.51466 -23.88,-42.72133 l -0.66267,-1.12666 -1.10266,-0.29067 -12.212,10.92933 -4.62667,2.188 0.0453,0.64 c 0,0 1.716,23.61867 23.86267,42.64133 3.78,3.248 7.35733,6.18267 10.69866,8.828 5.272,3.936 9.29734,6.48 11.82267,8.25734 14.14933,9.956 23.23333,4.30533 23.44933,1.928"
       style="opacity:0.199997;fill:#000000;fill-opacity:1;fill-rule:nonzero;stroke:none;stroke-width:1.33333"
       id="path224940" />
    <path
       d="m 273.83013,232.57094 10.15733,-13.53467 c -0.16533,-0.37333 -0.32,-0.75333 -0.468,-1.136 l -72.54,-65.98266 -18.91866,37.26933 c 0,0 0.15733,0.26533 0.44133,0.74 0.0467,0.0773 0.10133,0.16933 0.15467,0.25733 0.0347,0.0573 0.0693,0.11467 0.10666,0.176 0.0667,0.11334 0.14134,0.23467 0.21867,0.36267 0.0373,0.0627 0.0787,0.13067 0.11867,0.19733 2.75066,4.548 12.54266,20.10133 19.65199,29.404 0.001,10e-4 0.001,0.003 0.003,0.004 2.496,2.428 4.34533,4.272 5.164,5.176 4.96933,5.49333 32.69467,1.832 40.54267,4.18533 6.248,1.87467 12.908,2.64534 15.368,2.88134"
       style="opacity:0.199997;fill:#000000;fill-opacity:1;fill-rule:nonzero;stroke:none;stroke-width:1.33333"
       id="path224956" />
    <path
       d="m 274.23093,271.50774 -2.432,16.08533 -2.21467,-18.408 0.26533,-7.68 c 1.02667,-1.524 4.72534,-6.69333 6.62667,-5.004 2.21867,1.97333 -2.24533,15.00667 -2.24533,15.00667 m -3.98667,27.788 c -0.29867,2.46 -1.39867,2.476 -1.788,-0.76667 -1.13467,-9.43467 -3.93067,-27.74533 -3.93067,-27.74533 0,0 2.65734,-0.432 3.66,-2.19867 l 2.74934,24.06667 c 0,0 -0.31067,3.52266 -0.69067,6.644 m 6.72533,-53.152 -8.428,3.94266 c 0,0 -3.37333,1.588 -0.92533,15.82934 -0.25067,0.58933 -0.488,1.06133 -0.69333,1.328 -0.384,0.49866 -2.19334,0.88933 -3.03334,1.19333 -3.256,-9.04667 0.77734,-19.536 1.536,-20.672 l -4.424,2.91733 c -0.60933,-0.11066 -2.86933,10.04934 -1.036,16.716 0.23067,0.83867 -0.24533,2.25867 -1.06666,2.164 -1.23067,-0.14266 -3.11467,0.27067 -3.24667,-0.524 -1.596,-9.62533 0.388,-17.56266 0.388,-17.56266 l -5.74667,-1.94 c 0,0 1.63734,1.93733 1.64134,2.86133 0.016,3.89467 -0.072,13.06533 0.0533,14.036 0.156,1.20267 -0.896,1.88267 -1.428,1.812 -2.976,-0.39733 -5.99867,-1.08933 -9.504,-1.85467 0,0 7.932,3.61867 11.868,4.21334 l 8.75867,47.128 3.11066,3.10266 -7.18666,-49.23466 3.45066,0.44266 c 0,0 4.288,25.796 6.404,44.24934 l -1.4,9.25866 8.19467,10.84933 5.35467,-63.57066 c 0,0 2.78266,-6.71067 2.78266,-10.16267 0,-3.452 -5.424,-16.52266 -5.424,-16.52266"
       style="opacity:0.199997;fill:#000000;fill-opacity:1;fill-rule:nonzero;stroke:none;stroke-width:1.33333"
       id="path224972" />
  </g>
</svg>
