<?xml version="1.0" encoding="UTF-8" standalone="no"?>
<!-- Created with Inkscape (http://www.inkscape.org/) -->

<svg
   version="1.1"
   id="svg171226"
   width="400"
   height="400"
   viewBox="0 0 400 400"
   sodipodi:docname="Body1-b.svg"
   inkscape:version="1.3.2 (091e20e, 2023-11-25)"
   xml:space="preserve"
   xmlns:inkscape="http://www.inkscape.org/namespaces/inkscape"
   xmlns:sodipodi="http://sodipodi.sourceforge.net/DTD/sodipodi-0.dtd"
   xmlns="http://www.w3.org/2000/svg"
   xmlns:svg="http://www.w3.org/2000/svg"><defs
     id="defs171230" /><sodipodi:namedview
     id="namedview171228"
     pagecolor="#ffffff"
     bordercolor="#666666"
     borderopacity="1.0"
     inkscape:showpageshadow="2"
     inkscape:pageopacity="0.0"
     inkscape:pagecheckerboard="0"
     inkscape:deskcolor="#d1d1d1"
     showgrid="false"
     inkscape:zoom="2.33"
     inkscape:cx="199.57082"
     inkscape:cy="200"
     inkscape:window-width="1920"
     inkscape:window-height="1145"
     inkscape:window-x="2278"
     inkscape:window-y="25"
     inkscape:window-maximized="0"
     inkscape:current-layer="g171234"><inkscape:page
       x="0"
       y="0"
       id="page171232"
       width="400"
       height="400"
       margin="0"
       bleed="0" /></sodipodi:namedview><g
     id="g171234"
     inkscape:groupmode="layer"
     inkscape:label="Page 1"
     style="display:inline"><path
       d="m 275.46293,349.22293 c 75.85199,1.56934 89.45333,6.8 89.45333,6.8 l 5.232,6.27867 14.532,6.804 -0.87067,-26.57333 c -1.52533,-11.00267 -6.34267,-44.99867 -8.672,-52.57067 -2.78933,-9.06533 -4.21613,-9.71713 -12.36946,-14.59847 -9.06511,-4.88133 -34.58579,-15.74781 -45.78446,-20.4697 -9.87475,-4.16367 -24.69719,-9.82306 -34.92119,-14.16573 l -7.50259,-3.89845 -2.65738,-2.53488 3.9034,6.24191 0.56727,3.76492 c 0,0 3.97539,11.16515 5.39539,15.13982 0.83038,5.15525 -3.17081,13.90352 -3.17081,13.90352 l -4.3815,64.21839 -36.05867,-64.73333 -4.16536,-3.40461 c 0,0 -15.48374,-8.74495 -37.62907,-27.76761 -12.6822,-11.13606 -12.84261,-16.00317 -15.35078,-26.41823 -1.99151,-0.47607 -4.35133,-0.43231 -6.63929,-0.26271 l -40.01846,18.7299 -39.446366,16.9686 -11.855999,6.044 -6.741334,6.27733 -9.459999,6.824 C 55.016154,282.27116 47.655892,295.12361 41.88121,310.7319 l -15.188357,70.92406 c 0,0 12.671477,12.29888 18.199174,12.12071 10.293721,-0.3318 52.029446,-20.01112 72.065573,-37.22974 0,0 82.652,-8.89333 158.50533,-7.324"
       style="fill:#7d7d7d;fill-opacity:1;fill-rule:nonzero;stroke:none;stroke-width:1.33333"
       id="path171958"
       sodipodi:nodetypes="cccccccsccccccccccccccccccccscc" /><path
       d="M 384.67959,369.10547 385.69026,399.9668 25.664768,400 27.657852,382.55863 c 0,0 15.357817,12.57418 17.89775,12.68819 3.543486,0.15905 44.088752,-23.39107 71.401328,-38.70002 0,0 82.65333,-8.89333 158.50533,-7.324 75.85333,1.56933 89.45466,6.80133 89.45466,6.80133 l 5.23067,6.27734 z"
       style="fill:#2d2d2d;fill-opacity:1;fill-rule:nonzero;stroke:none;stroke-width:1.33333"
       id="path171962"
       sodipodi:nodetypes="ccccscsccc" /><path
       d="m 196.9892,241.882 c 22.14533,19.02267 37.47733,27.54 37.47733,27.54 l 3.408,4.54267 36.05733,64.73466 4.0854,-64.4278 c 0,0 6.41993,-8.54019 4.99993,-12.51486 -1.42,-3.97467 -6.26,-16.73733 -6.26,-16.73733 l 0.29734,-2.28534 -4.768,-8.012 -0.18534,0.152 -3.812,10.87334 -5.22533,2.25866 -2.824,2.82534 -3.672,-3.672 c -10.87333,-1.412 -27.15006,-8.75619 -36.18739,-15.39352 -9.03867,-6.63734 -24.84243,-28.03018 -24.84243,-28.03018 -0.94266,-1.79264 -1.78264,-1.75095 -2.24533,-2.64861 -5.78967,6.37103 -10.19889,12.98789 -11.90829,14.55546 0,0 -6.54059,7.21685 15.60475,26.23951"
       style="fill:#d30000;fill-opacity:1;fill-rule:nonzero;stroke:none;stroke-width:1.33333"
       id="path171966"
       sodipodi:nodetypes="cccccsccccccccccccc" /><path
       d="m 367.95412,278.712 c 0,0 3.12934,28.84534 1.144,48.11334 0,0 3.30134,-23.672 0.824,-46.24134 z"
       style="fill:#000000;fill-opacity:1;fill-rule:nonzero;stroke:none;stroke-width:1.33333"
       id="path172006" /><path
       id="path172002"
       style="fill:#000000;fill-opacity:1;fill-rule:nonzero;stroke:none;stroke-width:1.33333"
       d="m 194.00662,199.19356 c -0.74188,-0.11838 -1.40866,0.63751 -1.95821,1.39235 -0.72114,0.99051 -4.49908,6.79021 -9.98049,13.46226 -1.17467,-0.48666 -2.47957,-1.68354 -8.13568,0.61731 -4.65041,1.89174 -25.71054,10.70214 -47.63941,21.09102 -17.52944,8.30463 -33.101079,14.87011 -36.913924,16.80991 -12.487279,6.35297 -16.199091,9.91631 -15.878906,11.40234 -1.721108,0.10085 -5.691476,1.27719 -8.962136,3.51184 -9.533961,6.17096 -21.75724,21.8594 -27.834739,46.83386 C 32.024032,333.5424 24.036083,390.94613 23.314453,400 l 4.236328,-0.21484 1.353516,-13.66602 c 0,0 13.934029,12.70389 15.220703,12.55274 0.619677,-0.0728 51.615286,-26.51361 76.03125,-38.63672 0,0 1.52182,5.1832 1.86133,10.98437 0.33951,5.80118 1.95516,15.70987 1.26953,28.98047 h 6.7168 c 0.49001,-13.11168 -2.19846,-36.6824 -2.48003,-41.79919 -0.30168,-5.48247 142.0568,-6.06142 149.03659,-5.83948 7.84729,0.24952 59.40907,2.09203 86.96101,6.27734 0,0 0.82645,23.99615 -0.46289,41.32813 h 5.57422 c 0.484,-9.21598 1.59261,-30.13893 1.86328,-33.65625 0,0 7.27724,2.90397 11.81055,6.39062 0,0 0.67098,14.69499 0.45898,27.26563 h 4.79102 l -2.30469,-57.4336 c -0.0733,-1.01867 -0.18937,-1.86516 -0.33203,-2.5625 -2.15734,-16.44929 -7.60249,-53.74168 -13.6878,-60.43901 -5.94271,-5.87082 -39.61986,-19.90661 -51.23161,-24.39266 -12.86027,-4.96841 -25.93071,-10.86936 -38.85341,-15.64228 -0.9597,-0.35825 -5.38793,-2.3384 -6.29906,-2.83681 -0.41016,-0.31715 -4.02376,-4.91113 -4.57948,-4.47862 -1.98933,1.54665 -0.85232,2.11183 -1.8145,5.45883 -0.78112,2.71715 -0.72093,4.85995 -3.04104,6.57542 -2.11909,1.37789 -2.90851,0.98714 -3.8056,2.33131 l -1.23242,1.8496 -1.80273,-2.52734 c -0.272,-0.37866 -0.69164,-0.62254 -1.1543,-0.67187 -40.28259,-4.272 -58.12689,-36.11958 -62.01021,-44.69767 -0.14,-0.54934 -0.84142,-1.21673 -1.40114,-1.30604 z m -0.68119,3.9551 c 7.40615,14.4083 26.61909,40.88353 63.01637,45.20486 l 2.75586,3.85546 c 0.31067,0.43467 0.77628,0.68298 1.34961,0.68164 1.30131,-9.8e-4 1.3394,-1.26576 1.91406,-2.09374 1.73817,-2.49636 3.57664,-2.86455 5.43537,-4.18061 1.24396,-0.88078 2.20672,-2.54096 2.84806,-3.76496 0.549,-1.18163 1.13402,-4.10638 1.41381,-5.37946 0.66744,1.02512 1.89701,3.69698 2.14755,4.96833 0.20063,1.01807 -0.35665,2.07108 -0.99805,3.18164 -0.792,1.37467 -3.53376,5.03677 -3.99909,6.65943 -0.65466,2.28 -0.90751,4.53042 -1.10351,6.84375 -0.19333,2.27067 0.13581,3.42978 1.00781,5.64844 1.31359,-4.78735 1.35368,-7.83841 3.91587,-13.33763 0.82239,-1.7651 2.10581,-3.08373 2.58112,-4.10635 3.12849,4.7903 5.42479,11.60078 4.75106,17.26624 -0.77024,6.47705 -3.50259,8.48582 -3.62565,9.61086 -0.312,4.30132 -0.53943,12.23842 -0.85143,16.53976 -0.49615,11.01403 -0.75515,20.73186 -1.48581,30.80251 -0.24934,3.44531 -0.75066,7.97459 -1,11.41992 l -35.69922,-62.59766 c -6.89836,-5.40272 -23.25783,-15.54201 -37.1938,-26.29399 -6.40665,-4.94132 -11.71564,-13.88302 -15.07964,-19.46968 -3.81598,-8.26932 -2.44005,-5.79388 -2.10005,-7.44988 4.61378,-5.44854 7.25799,-9.77881 9.9997,-14.00888 z m -14.49684,13.24865 c 0.58017,3.05168 0.73242,4.33468 3.85336,10.53841 3.90537,7.76299 10.85172,17.91312 25.92503,28.29177 18.39596,12.66664 24.3061,15.61718 26.37544,17.16118 0.012,0.028 0.0244,0.0534 0.0391,0.0801 L 272.5,341.74609 c 0.22267,0.412 0.61088,0.67911 1.04688,0.78711 h 0.80273 c 0.66,-0.17734 1.14775,-0.73973 1.20508,-1.42773 l 3.86324,-66.86744 c 3.024,-4.2 4.61959,-7.81767 3.80959,-15.34298 -0.28605,-2.65754 -2.18155,-6.83344 -3.32422,-9.22542 -0.50133,-1.04934 -3.17933,-4.25623 -2.85533,-5.46689 0.12534,-0.46667 0.0187,-1.79828 -0.0578,-2.26557 -0.22777,-1.39063 -0.79092,-1.66187 -0.44375,-1.59316 3.60966,1.84913 7.65418,3.58184 11.22705,4.92546 11.76059,4.4227 20.44973,8.44462 31.90989,13.19677 10.07118,4.17618 45.32699,19.23836 49.10963,22.80524 5.13198,5.64933 10.78207,42.52176 13.19141,61.26172 0.63864,5.392 1.27734,24.52344 1.27734,24.52344 l -12.82813,-9.07422 c -0.64933,-15.30529 -1.74804,-22.01562 -1.74804,-22.01562 -1.2,9.90531 -2.17624,12.55445 -3.60157,16.39843 0,0 -58.94114,-5.39344 -88.5039,-6.15039 -49.93525,-1.27859 -149.83008,2.72461 -149.83008,2.72461 -3.00167,-11.22287 -11.58651,-30.81966 -18.375,-41.92773 0,0 7.84244,18.71126 9.92969,34.44726 0.7587,4.43661 1.37392,7.45286 1.54883,10.9375 -10.85376,7.39062 -40.471115,22.0252 -75.328129,40.59375 L 29.720703,381.2168 c 1.510664,-11.19865 8.85843,-51.80792 11.955078,-66.44727 4.435183,-20.96725 17.347066,-36.26662 24.098537,-43.9116 6.763431,-7.65853 24.308456,4.0677 28.360448,9.63035 0.306665,-1.03467 -0.155258,-2.13012 -0.669922,-3.07812 -2.467996,-4.544 -6.364394,-7.99576 -10.761719,-10.6211 -1.478665,-0.88133 -3.620252,-1.56847 -4.65625,-2.98047 -0.306667,-0.42 11.426611,-7.80136 12.474609,-8.19336 4.258659,-1.59732 19.137216,-8.2185 37.476116,-17.11624 20.23338,-9.81692 38.96482,-18.03742 43.26209,-19.68449 2.1004,-0.80505 6.51618,-2.51232 7.5689,-2.41719 z"
       sodipodi:nodetypes="sscsssccscccscsccssccccccccccscccsccccccscccccsccsccccscsccccccccccsccccccccsscscssccccccsccccccsscccccssc" /><path
       id="path172022"
       style="fill:#d9a14b;fill-opacity:1;fill-rule:nonzero;stroke:none;stroke-width:1.33333"
       d="m 348.58052,376.90493 c -0.228,0.30267 -6.48933,-0.136 -6.48933,-0.136 l -0.35867,0.0307 -0.74933,-3.02533 6.96267,0.33333 c 0,0 0.564,0.80133 0.568,0.84667 0.005,0.0453 0.29466,1.648 0.0667,1.95066 m 1.51067,-3.548 c -0.63733,-2.30133 -1.87867,-3.83466 -2.996,-4.05333 -1.11733,-0.22 -8.70267,-0.11067 -8.70267,-0.11067 l 5.02934,13.148 c 0,0 7.66,-1.096 7.92666,-1.86266 0.26534,-0.76667 -0.62,-4.82134 -1.25733,-7.12134 m -29.75564,1.59704 c -0.003,-0.0453 0.48934,-0.84667 0.48934,-0.84667 l 7.64266,-0.33333 -0.33066,3.02533 -0.40134,-0.0307 c 0,0 -6.85066,0.43866 -7.152,0.136 -0.30133,-0.30267 -0.24533,-1.90534 -0.248,-1.95067 m -2.224,5.524 c 0.42134,0.76667 9.07067,1.86267 9.07067,1.86267 l 3.39467,-13.14667 c 0,0 -8.404,-0.11067 -9.60267,0.10933 -1.2,0.21867 -2.31867,1.752 -2.644,4.05334 -0.32667,2.30133 -0.63867,6.35466 -0.21867,7.12133" /><path
       d="m 325.07319,398.59747 c -0.16933,0 -0.344,-0.048 -0.50533,-0.144 -0.38,-0.228 -0.62933,-0.68534 -0.636,-1.172 -0.007,-0.49467 -0.14933,-12.216 1.86933,-20.72267 2.048,-8.62533 5.78934,-17.97333 7.144,-20.19067 0.19467,-0.316 0.51467,-0.49066 0.85733,-0.472 0.344,0.02 0.67067,0.232 0.87734,0.572 0.40933,0.67334 10.048,16.73067 12.68266,38.38267 0.0693,0.56933 -0.19733,1.092 -0.64666,1.272 -0.448,0.18133 -0.96667,-0.028 -1.25867,-0.508 -1.79333,-2.93733 -5.16,-7.21067 -6.788,-7.21067 -0.0213,0 -0.044,0 -0.0653,0.003 -1.82667,0.13467 -8.644,5.89067 -12.90133,9.93467 -0.17867,0.16933 -0.40134,0.256 -0.62934,0.256"
       style="fill:#d9a14b;fill-opacity:1;fill-rule:nonzero;stroke:none;stroke-width:1.33333"
       id="path172026" /><path
       id="path172030"
       style="fill:#000000;fill-opacity:1;fill-rule:nonzero;stroke:none;stroke-width:1.33333"
       d="M 333.78516 355.06445 C 333.20916 355.02845 332.68008 355.32881 332.35742 355.85547 C 331.40968 357.40539 329.32481 362.3834 327.43945 368.16016 C 326.0901 368.29131 322.577 368.65824 320.80078 369.09961 C 318.59545 369.64761 317.94723 372.30214 317.61523 374.49414 C 317.28323 376.68481 317.16442 380.25877 317.87109 381.13477 C 318.40894 381.80126 322.20026 382.46266 324.00586 382.74414 C 323.13506 389.86493 323.21731 396.85557 323.22266 397.23633 C 323.23466 398.04433 323.64925 398.80945 324.28125 399.18945 C 324.54525 399.34675 324.837 399.42969 325.125 399.42969 C 325.51034 399.42969 325.88255 399.27662 326.17188 399.00195 C 331.04521 394.37263 337.24203 389.34433 338.7207 389.23633 C 339.7487 389.23633 342.746 392.55575 344.88867 396.06641 C 345.37667 396.86645 346.24028 397.21344 346.98828 396.91211 C 347.73761 396.61211 348.18045 395.73964 348.06445 394.79297 C 347.55079 390.57012 346.77136 386.56078 345.84766 382.83008 C 346.75485 382.68264 351.20471 381.92602 351.66406 381.13477 C 352.17206 380.25877 351.64359 376.71801 351.01562 374.52734 C 350.38897 372.33535 349.64631 369.52066 347.57031 368.97266 C 345.87534 368.52661 342.36909 368.2384 341.08398 368.14258 C 338.15895 360.87948 335.46124 356.37026 335.24805 356.01953 C 334.90405 355.45419 334.35849 355.09775 333.78516 355.06445 z M 333.80273 356.72656 C 333.80803 356.72656 333.81531 356.72556 333.82031 356.72656 C 333.93364 356.73189 334.04203 356.80464 334.11133 356.91797 C 334.51533 357.58331 344.05082 373.46085 346.66016 394.91016 C 346.68416 395.0995 346.59341 395.27464 346.44141 395.33594 C 346.29341 395.39327 346.12269 395.32406 346.02539 395.16406 C 344.73606 393.05206 340.89186 387.57227 338.61719 387.57227 L 338.50977 387.57617 C 336.15911 387.7495 328.12842 394.92964 325.23242 397.68164 C 325.13109 397.77764 324.97618 397.79205 324.85352 397.71875 C 324.72682 397.64275 324.64558 397.48945 324.64258 397.32812 C 324.63591 396.83746 324.49361 385.23132 326.48828 376.83398 C 328.51628 368.29133 332.20254 359.06209 333.5332 356.88477 C 333.59453 356.7848 333.69473 356.72656 333.80273 356.72656 z M 326.57422 370.16797 C 326.70752 370.16834 326.68215 370.16904 326.79492 370.16992 C 326.45587 371.27465 326.13154 372.39556 325.82617 373.51953 C 324.58897 373.59313 321.31162 373.78713 320.68945 373.79492 C 319.94412 373.80392 319.79636 375.98587 319.92969 376.64453 C 320.06303 377.30187 321.64961 377.30078 322.48828 377.30078 C 322.95968 377.30078 323.99415 377.27082 324.9082 377.24023 C 324.64667 378.46196 324.4234 379.72954 324.23633 381.01562 C 322.26559 380.82085 318.68288 380.40566 318.45117 379.92969 C 318.13117 379.27236 318.25286 376.88223 318.51953 375.12891 C 318.78486 373.37558 319.59343 371.4786 320.13477 370.83594 C 320.64876 370.22694 324.6206 370.16253 326.57422 370.16797 z M 341.89258 370.18945 C 343.4018 370.21254 347.40611 370.31803 348.08398 370.83594 C 349.05331 371.57727 349.73602 372.90596 350.05469 374.7793 C 350.36002 376.57796 351.15098 379.27236 350.95898 379.92969 C 350.80018 380.47338 346.82619 380.92248 345.39648 381.06836 C 345.0448 379.74516 344.67453 378.46493 344.29492 377.22266 C 345.13475 377.25507 346.37943 377.30078 346.91602 377.30078 C 347.67601 377.30078 349.11011 377.30187 349.13281 376.64453 C 349.15548 375.98587 348.69748 373.80392 348.02148 373.79492 C 347.42379 373.78667 343.97051 373.56173 343.08594 373.50391 C 342.69059 372.35628 342.2927 371.24279 341.89258 370.18945 z M 343.37695 374.38086 C 344.42635 374.43306 347.03172 374.56055 347.58789 374.56055 C 348.26389 374.56055 348.95337 376.5332 348.10938 376.5332 C 347.49272 376.5332 345.22055 376.41836 344.0293 376.35547 C 343.8156 375.67607 343.59572 375.03312 343.37695 374.38086 z M 325.58984 374.39648 C 325.42485 375.02755 325.26583 375.65707 325.11719 376.2832 C 325.11008 376.31313 325.10471 376.34499 325.09766 376.375 C 323.73233 376.43979 321.66264 376.5332 321.04297 376.5332 C 320.11097 376.5332 320.54825 374.56055 321.29492 374.56055 C 321.86038 374.56055 324.23595 374.45736 325.58984 374.39648 z " /><path
       d="m 333.90839,359.4808 c -1.61066,3.492 -4.41733,11.02 -6.05066,17.904 -1.372,5.77467 -1.70267,13.32933 -1.77734,17.30933 3.332,-3.04666 9.71733,-8.592 12.24,-8.77733 2.024,-0.152 4.45467,2.31333 6.27467,4.64 -2.58934,-15.004 -8.412,-26.85467 -10.68667,-31.076"
       style="fill:#999999;fill-opacity:1;fill-rule:nonzero;stroke:none;stroke-width:1.33333"
       id="path172034" /><path
       d="m 219.51133,258.96734 c -4.76,-3.34934 -14.796,-9.37067 -28.60533,-22.44 -13.80934,-13.07067 -8.65954,-20.90663 -8.65954,-20.90663 l 11.2972,-14.69911 2.07856,0.81279 c 3.13855,12.95651 11.01607,19.95546 19.36007,28.17946 7.41067,7.304 12.34665,12.55791 24.62637,17.05749 4.07149,1.49189 3.568,11.54666 3.352,13.924 -0.216,2.37733 -9.3,8.028 -23.44933,-1.928"
       style="opacity:0.199997;fill:#000000;fill-opacity:1;fill-rule:nonzero;stroke:none;stroke-width:1.33333"
       id="path172060"
       sodipodi:nodetypes="ccccccssc" /><path
       id="path172076"
       style="display:inline;opacity:0.199997;fill:#000000;fill-opacity:1;fill-rule:nonzero;stroke:none;stroke-width:1.33333"
       d="m 173.23711,215.64507 -2.06836,0.78906 c 0.11355,0.4061 0.18868,0.76197 0.34961,1.22852 -0.54679,-0.25934 -1.10333,-0.49317 -1.66015,-0.72852 l -1.94141,0.73829 c 1.46506,0.67431 2.72444,1.05584 4.08906,1.90375 1.31734,4.324 3.51261,9.52507 5.00195,13.42774 0.24666,0.61467 0.46378,1.21197 0.67578,1.80664 -3.08933,-3.29734 -6.40011,-6.38434 -10.05078,-9.01367 -2.59683,-2.02902 -4.80217,-3.0307 -7.83682,-4.41196 l -1.91797,0.94531 c 14.44119,7.7593 25.39417,23.02571 34.7919,40.05258 9.37199,16.98132 16.6932,35.57749 21.89453,49.74414 1.88533,4.83733 5.12231,15.0335 7.43164,22.16016 -4.38799,0.108 -8.79513,0.22375 -13.20312,0.34375 -0.8,-3.98399 -1.69781,-7.95069 -2.61914,-11.91602 -0.12,-0.51334 -0.24391,-1.02768 -0.36524,-1.54101 -1.36799,-5.79067 -3.31424,-11.8543 -5.1289,-17.51563 -2.27467,-7.06933 -4.89472,-14.04995 -7.88672,-20.86328 -3.77867,-8.60666 -8.35021,-16.82363 -13.1582,-24.87695 -1.712,-2.868 -5.94216,-8.59883 -8.04883,-11.29883 -4.564,-5.85199 -10.00508,-11.20656 -16.06641,-15.58789 -2.48624,-1.79671 -4.79505,-3.11191 -7.62551,-4.36653 l -1.88086,0.92774 c 1.92584,0.90602 3.27991,1.78406 5.02395,2.99738 7.86133,5.488 14.90816,13.47406 21.16016,22.63672 2.79866,4.096 5.43601,8.42701 7.91601,12.875 2.62933,4.716 5.08009,9.56235 7.35742,14.40235 1.11733,2.37866 2.66936,5.78019 3.69336,8.13086 1.05866,2.42932 2.47494,5.88956 3.4336,8.24023 2.37066,5.79865 4.49042,11.65646 6.34375,16.70312 0.776,2.112 1.8625,5.25582 2.92382,8.50782 1.18267,3.61732 2.7278,8.65564 3.95313,12.57031 -4.40933,0.12 -8.80788,0.24319 -13.17188,0.36719 -0.70266,-3.84267 -1.50365,-7.66819 -2.34765,-11.49219 -0.10934,-0.49733 -0.22519,-0.99228 -0.33985,-1.48828 -1.28666,-5.61467 -3.0765,-11.4486 -4.8125,-16.94727 -2.16933,-6.83999 -4.68894,-13.58763 -7.5996,-20.15429 -3.67733,-8.3 -8.10218,-16.23191 -12.96485,-23.86524 -1.84266,-2.892 -5.77686,-8.02737 -8.01953,-10.7207 -4.38133,-5.26533 -9.46621,-10.15323 -15.1582,-14.08789 -2.33761,-1.61691 -4.89048,-3.03534 -7.52539,-4.16016 l -1.84375,0.9082 c 1.95175,0.91041 3.7745,2.04291 5.54882,3.25782 7.62266,5.24265 14.3882,12.75443 20.35352,21.34375 2.704,3.88399 5.24119,7.98846 7.61719,12.20312 2.52666,4.47867 4.87097,9.08227 7.04297,13.6836 0.89334,1.90399 2.71062,5.85437 3.52929,7.73437 0.84666,1.944 2.47163,5.97743 3.23828,7.85742 2.20267,5.36267 4.24646,11.13227 5.95313,15.9336 0.732,2.06266 1.77785,5.14137 2.72852,8.10937 0.91465,2.86133 2.43409,8.02074 3.60742,11.91406 -4.436,0.12667 -8.82783,0.25615 -13.14649,0.38282 -0.608,-3.70667 -1.31536,-7.39857 -2.08203,-11.08789 -0.0987,-0.48 -0.20974,-0.95884 -0.3164,-1.4375 -1.204,-5.43734 -2.83743,-11.04292 -4.4961,-16.37891 -2.06267,-6.60932 -4.48645,-13.12593 -7.31445,-19.44727 -3.576,-7.99332 -7.87158,-15.62633 -12.76758,-22.84765 -1.97867,-2.916 -5.60747,-7.45921 -7.99414,-10.14453 -4.17333,-4.69467 -8.92805,-9.10052 -14.24805,-12.58985 -2.18858,-1.43564 -4.55407,-2.69067 -6.99218,-3.68554 l -1.81055,0.89257 c 2.85395,1.38206 3.96098,2.10816 5.64062,3.24805 7.38666,5 13.87274,12.03479 19.55274,20.05078 2.60799,3.672 5.04308,7.54859 7.3164,11.53125 2.42267,4.24266 4.6599,8.60219 6.72657,12.96485 0.66933,1.42799 2.75447,5.92528 3.36914,7.33593 0.63467,1.45867 2.4643,6.06724 3.04297,7.47657 2.02265,4.93199 3.99983,10.60673 5.5625,15.16406 0.68932,2.01334 1.69195,5.02499 2.52929,7.70898 0.66266,2.12533 2.15077,7.39336 3.27344,11.27735 -4.476,0.132 -8.85753,0.26006 -13.13086,0.38672 -0.51333,-3.57333 -1.12708,-7.13479 -1.81641,-10.68946 -0.0893,-0.464 -0.19429,-0.92406 -0.29296,-1.38672 -1.12133,-5.26133 -2.60031,-10.63588 -4.18165,-15.81054 -1.95599,-6.37867 -4.27872,-12.66168 -7.02539,-18.73633 -3.47466,-7.68666 -7.66089,-15.01995 -12.57421,-21.83594 -2.11734,-2.93867 -5.42485,-6.89841 -7.96485,-9.56641 -3.94132,-4.14265 -8.38989,-8.04779 -13.33789,-11.09179 -2.04155,-1.25481 -4.2221,-2.34391 -6.46484,-3.20899 l -1.77539,0.875 c 1.05252,0.47443 3.0564,1.44842 5.73633,3.23828 7.14932,4.75467 13.35667,11.31321 18.75,18.75586 2.51333,3.46 4.84824,7.11005 7.01757,10.85938 2.31866,4.00534 4.45754,8.12005 6.40821,12.24805 0.44933,0.95067 2.79965,5.99945 3.20898,6.93945 0.424,0.97333 2.45903,6.15703 2.8457,7.0957 1.84933,4.49733 3.7526,10.08254 5.16993,14.39453 0.64666,1.96267 1.61059,4.90726 2.33593,7.3086 0.424,1.40533 1.87332,6.7593 2.94532,10.64062 -1.168,0.0347 -2.34482,0.0702 -3.49414,0.10352 -3.21067,0.0893 -6.41835,0.19517 -9.625,0.3125 -0.42134,-3.44799 -0.94003,-6.88636 -1.55469,-10.31836 -0.08,-0.44666 -0.17753,-0.88866 -0.26953,-1.33399 -1.03733,-5.08399 -2.36319,-10.23019 -3.86719,-15.24218 -1.848,-6.14933 -4.07099,-12.19998 -6.73633,-18.0293 -3.37333,-7.37999 -7.45624,-14.40432 -12.37891,-20.82031 -2.25999,-2.96134 -5.2335,-6.34624 -7.9375,-8.99024 -3.68932,-3.60665 -7.85502,-6.9958 -12.42968,-9.59179 -2.21067,-1.25466 -4.5549,-2.31252 -6.96289,-3.08985 l -1.564457,0.87696 c 0.369333,0.15067 0.738125,0.30379 1.078125,0.45312 0.742662,0.33067 1.715732,0.82703 2.427732,1.20703 1.088,0.58 2.14503,1.22697 3.17969,1.9043 6.91199,4.51066 12.83865,10.59223 17.94531,17.46289 2.41866,3.248 4.65209,6.67017 6.71875,10.1875 2.21467,3.768 4.25047,7.63925 6.0918,11.53125 0.22534,0.47466 2.84287,6.07035 3.04687,6.54102 0.212,0.48532 2.45573,6.24551 2.6504,6.71484 1.67599,4.06133 3.49334,9.55843 4.77734,13.62109 0.59867,1.916 1.52533,4.79344 2.13867,6.91211 0.20266,0.69866 1.61734,6.15364 2.63867,10.04297 -4.37065,0.16267 -8.74305,0.35217 -13.12304,0.57617 -0.35467,-3.37465 -0.82754,-6.73924 -1.29688,-10.11523 -2.11733,-11.31866 -5.36272,-22.72064 -10.24805,-33.2793 -4.88399,-10.55866 -11.40913,-20.2728 -20.09179,-28.2168 -4.916,-4.38533 -10.73438,-8.36687 -17.095706,-10.4082 l -1.619141,0.9082 c 2.091998,0.88933 4.104435,1.98508 6.009766,3.20508 6.675991,4.268 12.321251,9.8726 17.142581,16.16992 4.82132,6.29867 8.81994,13.28814 12.19726,20.32813 l 2.88477,6.14453 2.45508,6.33203 c 1.52666,3.61733 3.23472,9.03885 4.38671,12.85352 0.55066,1.868 1.53874,4.64905 1.94141,6.51172 0,0 1.43562,5.80733 2.37695,9.61132 -2.12799,0.11066 -4.2612,0.23663 -6.39453,0.36329 -6.33999,-19.56531 -13.04079,-40.03653 -25.43945,-56.58985 -6.227994,-8.41333 -13.608693,-17.34505 -23.666016,-20.87304 l -1.601562,1.42968 c 5.982661,2.284 11.108915,6.55189 15.267578,11.44922 11.04132,12.77599 19.04362,27.86776 25.09961,43.56641 3.104,7.91599 5.84831,15.9856 8.18164,24.15625 l 132.75195,-3.06446 0.60157,-0.0117 -0.26758,-0.53711 -28.24219,-57.72266 -5.48047,-3.79102 c -3.33333,-1.99466 -6.65331,-4.02351 -9.94531,-6.10351 l -6.35352,-4.11328 c -6.53199,-4.34933 -12.32046,-8.08624 -18.01758,-13.47266 -3.05301,-2.88652 -5.99798,-6.74301 -7.5371,-9.01172 -2.83738,-4.18239 -4.43733,-6.81586 -6.61524,-10.67383 -2.05024,-3.63181 -3.64209,-6.96531 -5.10742,-10.80664 -0.5351,-1.82428 -0.92608,-3.5575 -1.14375,-5.50727 z m 19.07734,38.44087 c 3.652,3.19732 7.4951,6.17336 11.3711,9.05468 3.51599,2.57067 7.07659,5.05 10.66992,7.47266 4.62133,9.72266 8.6573,19.73749 12.25195,29.88281 3.92,11.01999 7.47682,22.17742 10.63281,33.44141 -4.70399,0.0987 -9.48426,0.20883 -14.29492,0.32617 -1.01334,-4.66799 -2.15244,-9.30903 -3.28711,-13.95703 -1.45067,-5.96799 -3.55136,-12.26133 -5.44336,-18.08398 -5.38932,-16.51733 -12.50797,-32.57686 -21.52929,-47.46485 -0.10667,-0.20667 -0.23377,-0.43454 -0.3711,-0.67187 z m 28.09766,20.49804 c 3.04133,1.94534 6.11667,3.84769 9.25,5.67969 0.31467,0.64 0.80665,1.6446 1.44531,2.94727 6.568,16.79465 12.52335,33.80529 19.66602,50.47461 -4.18133,0.068 -8.45288,0.14567 -12.79688,0.23633 -3.62666,-20.32664 -9.3378,-40.37657 -17.56445,-59.3379 z m 25.88672,39.63868 c 3.75466,7.66266 7.26747,14.8381 9.49414,19.38476 -1.33936,0.0187 -2.70244,0.0411 -4.06445,0.0625 -1.63466,-6.52398 -3.4665,-12.99441 -5.42383,-19.42773 -0.003,-0.007 -0.003,-0.0128 -0.006,-0.0195 z"
       sodipodi:nodetypes="ccccccccccccccccccccccccccccccccccccccccccccccccccccccccscccccccccccccccccccccccccccccccccccscccccccccccccccccccccccccccccccccccccccccccccccsssccccccccccccccccccccccc" /><path
       id="path172096"
       style="display:inline;opacity:0.199997;fill:#000000;fill-opacity:1;fill-rule:nonzero;stroke:none;stroke-width:1.33333"
       d="m 281.13867,240.23633 c 1.15919,1.58596 2.13378,3.18294 3.16797,5.32031 1.91733,3.96267 3.47343,7.59546 4.55274,12.3457 1.3742,6.04815 -0.1224,13.01029 -3.1744,17.76096 -1.11866,1.65067 -1.12513,8.36099 -1.29943,10.57983 -1.60006,20.36943 -2.32856,30.76772 -3.80938,49.36039 l -0.0195,0.35937 0.35938,0.0371 79.78515,8.03516 c 0,0 0.29625,0.0293 0.29492,0.0293 10e-4,0 0.0391,-0.29297 0.0391,-0.29297 3.07999,-12.01998 4.63259,-25.33576 5.30859,-37.70507 0.32,-6.184 0.0403,-12.65814 -0.15039,-18.85547 -0.328,-4.63866 -1.44031,-7.16746 -2.91497,-11.62879 -0.12267,-0.0733 -0.23271,-0.14275 -0.35937,-0.21874 -0.14934,-0.0893 -0.31914,-0.18916 -0.48047,-0.28516 1.40533,4.62399 1.70175,8.84774 1.82707,13.61706 -0.28532,12.29733 -0.80451,22.66735 -2.22851,34.88867 -0.63733,5.156 -1.92944,10.98635 -3.77344,16.90235 -1.57067,-0.19333 -3.13519,-0.38613 -4.72851,-0.57813 1.28932,-5.19199 2.43278,-10.41833 3.16211,-15.70898 1.09466,-6.67333 1.73706,-13.40665 2.0664,-20.16797 0.34488,-9.93866 0.12372,-26.70093 -4.69277,-33.67296 -0.50267,-0.272 -1.47161,-0.62399 -1.99428,-0.90399 3.14682,5.98288 3.86712,12.7959 4.17533,19.3875 0.184,2.87066 0.0578,7.13673 0.0684,10.05273 -0.39733,13.68533 -1.7922,27.34651 -3.54687,40.92383 -2.796,-0.33734 -5.62405,-0.67252 -8.47071,-1.00586 0.46133,-2.104 1.19824,-5.5227 1.49024,-6.83203 3.19733,-17.11332 4.45623,-34.95666 1.51758,-52.19531 -1,-4.544 -2.2464,-9.24096 -4.42774,-13.37696 -1.03733,-1.7 -1.63318,-1.2394 -3.12651,-2.69939 -1.10267,-0.54267 -2.20539,-1.07694 -3.30273,-1.59961 1.12534,0.61334 2.08625,1.60041 2.90625,2.59375 3.224,4.33599 4.07365,7.52233 5.02299,12.77166 1.62933,8.87466 1.69669,18.12329 1.66602,27.14062 -0.188,4.85733 -0.38056,11.49195 -0.83789,16.33594 -0.368,5.94 -1.05485,11.85293 -1.71485,17.76758 -2.80399,-0.32667 -5.61865,-0.65133 -8.44531,-0.97266 0.588,-2.74799 1.18153,-5.82056 1.63086,-7.97656 2.048,-11.62532 2.89227,-23.79676 2.34961,-35.60742 -0.14667,-3.89333 -0.70103,-8.11357 -1.17969,-11.96289 l -1.20703,-5.93555 c -1.456,-6.36133 -3.47898,-12.4983 -9.10698,-17.52496 -1.11067,-0.46133 -2.18384,-0.88749 -3.20117,-1.27149 4.45066,3.416 5.63109,5.61404 7.38042,10.81403 0.29467,0.75333 0.67975,2.04593 0.84375,2.80859 0.38934,1.69334 1.09398,4.01343 1.33398,5.71875 l 0.96875,5.80079 0.58203,5.85351 c 0.18134,1.46 0.37792,4.39519 0.39258,5.86719 0.35867,5.48399 0.29155,12.16425 0.21289,17.65625 -0.25467,8.57866 -0.98006,17.12727 -1.80273,25.66992 -2.808,-0.31733 -5.61583,-0.6327 -8.42383,-0.94336 0.66267,-3.51733 1.72938,-8.88394 2.24805,-12.33594 2.41466,-20.14265 2.65158,-41.44948 -4.95508,-60.60547 -1.46178,-3.17582 -2.88062,-5.7023 -4.96185,-8.56326 l -3.26562,-1.19922 c 12.96163,18.30001 12.17877,51.82365 10.85051,73.40116 0,0 -0.44823,5.57156 -0.74023,9.21289 -2.81333,-0.31067 -5.61691,-0.61602 -8.40625,-0.91602 1.88,-9.05732 2.91025,-18.29002 3.40625,-27.52734 -0.0173,-5.336 0.15339,-11.95515 -0.47461,-17.25781 l -0.6543,-6.91016 c -0.544,-3.316 -1.31359,-6.96178 -1.93359,-10.28711 -0.716,-2.636 -1.66224,-5.80402 -2.49023,-8.41602 -0.73467,-1.82932 -1.88255,-4.73178 -2.67188,-6.53711 -0.55067,-1.12399 -1.91772,-3.53159 -2.53906,-4.68359 -0.67499,-1.22511 -1.48004,-2.43775 -2.35156,-3.61914 l -3.95704,-1.45313 c 0.801,1.10524 1.54948,2.24057 2.22461,3.39258 6.88,11.65199 9.39453,25.52597 10.75586,38.86328 0.544,3.87334 0.63728,9.58432 0.83594,13.54297 0.252,3.916 -0.0187,9.58943 -0.0293,13.58008 0.0347,3.848 -0.57578,11.79866 -0.95312,17.22266 -2.836,-0.304 -5.64693,-0.60058 -8.4336,-0.89258 1.21467,-6.27598 2.27446,-12.61662 2.67579,-19.00195 0.24667,-3.66533 0.4668,-7.34293 0.60547,-11.01758 -0.0493,-2.29734 -0.24913,-8.71894 -0.31446,-11.07227 -0.256,-4.85999 -1.04036,-9.92157 -1.70703,-14.74023 -1.54667,-7.26266 -3.2729,-14.71496 -6.49023,-21.48828 l -1.55469,-3.4375 c -0.988,-1.99066 -2.73609,-4.54877 -3.85742,-6.52344 -0.2362,-0.33072 -0.48446,-0.65904 -0.72852,-0.98828 l -3.78906,-1.39063 c 0,0 -0.78921,-0.34499 -0.88477,-0.38672 1.73032,2.36711 3.26002,4.88524 4.57422,7.47657 6.39334,12.36531 8.96293,26.27806 10.57227,39.99804 0.212,3.27466 0.61941,9.40949 0.83008,12.66016 0.0773,2.548 0.0314,8.21491 0.0527,10.87891 0.13867,4.29332 -0.44411,13.14584 -0.77344,18.95117 -1.768,-0.18533 -4.28974,-0.47747 -6.02841,-0.65613 -0.74133,-0.0813 -1.48586,-0.14986 -2.22852,-0.22852 4.57896,-21.74107 2.51263,-48.43038 -5.3268,-68.60968 -1.05532,-12.47355 -5.00561,-19.00732 -6.60181,-21.7127 -0.21365,-0.3621 -0.50333,-0.81869 -0.76954,-1.24805 -2.11898,-0.9266 -2.62204,-1.15125 -4.44531,-1.95117 z m 11.54713,28.18536 c 1.43733,4.61199 1.86541,11.84504 2.67874,16.59703 2.432,15.63066 2.89663,29.17473 1.7633,44.92671 l -0.34961,3.65821 c -2.392,-0.248 -4.03076,-0.39117 -6.42276,-0.62317 2.13078,-17.64842 1.58134,-35.75271 -2.47985,-51.95551 -0.0151,-1.30208 -0.097,-2.20646 0.61614,-3.59423 1.51334,-2.25999 3.79804,-5.58505 4.19404,-9.00904 z m -5.86817,18.1425 c 0.34494,1.99268 0.46469,4.89628 0.57136,6.51093 0.772,13.16133 2.10577,26.58955 1.46843,39.75886 -1.39333,-0.13333 -3.31744,-0.26767 -4.71078,-0.40234 0.82534,-14.64664 1.47636,-30.79905 2.67099,-45.86745 z"
       sodipodi:nodetypes="csscscccccccccccccccccccccccccccccccccccccccccccccccccccccccccccccccccccccccccccccccccccccccccscccccccccccccccc" /><path
       id="path172112"
       style="display:inline;opacity:0.199997;fill:#000000;fill-opacity:1;fill-rule:nonzero;stroke:none;stroke-width:1.333;stroke-dasharray:none"
       d="m 70.369141,269.35742 c -1.625672,-0.0169 -2.878907,0.1211 -2.878907,0.1211 l -1.65625,0.7207 c 0,0 4.075134,0.57804 6.615235,1.14844 -1.749787,3.04474 -11.483245,20.18136 -15.996094,32.95117 -4.774317,13.50964 -7.465017,33.27501 -9.474609,46.41015 -1.611192,10.53113 -2.189208,24.55943 -2.365235,30.08008 l -6.058593,-5.6289 c 0.172423,-1.77742 2.312096,-22.43895 3.529296,-34.03907 0.928505,-8.84881 3.035314,-22.12253 4.788086,-32.52207 1.512884,-8.97624 8.234111,-24.71676 8.234111,-24.71676 l -4.788249,4.91697 c 0,0 -4.164682,12.95772 -5.509681,19.77627 -1.921033,9.73879 -4.437547,23.36993 -5.331689,32.1452 -1.000254,9.81667 -2.397347,26.5564 -2.835937,32.66211 l -5.78125,-4.99414 c 0,0 -0.711967,3.52027 -0.314453,3.81641 1.836737,1.36834 13.951382,13.59607 15.3125,13.5957 0.61752,-1.7e-4 73.841798,-45.09961 73.841798,-45.09961 l -1.28125,-2.70508 c -1.16766,0.73269 -5.06503,3.112 -9.05469,5.55664 0.24699,-2.41627 0.56988,-5.50609 0.82422,-7.44531 0.32701,-2.49321 0.7219,-5.58495 0.9082,-7.04101 0.20708,0.69493 2.84331,8.03358 2.84331,8.03358 l 0.37709,-0.16732 c 0,0 -4.07176,-18.70992 -7.87665,-27.91705 -2.97921,-7.20912 -4.22234,-10.06182 -6.375,-14.16601 -4.001421,-7.62901 -9.212302,-14.80445 -13.634762,-19.0332 -4.344354,-4.15409 -8.063933,-4.82716 -10.617188,-5.87305 -1.496391,-0.61296 -3.817689,-0.56907 -5.443359,-0.58594 z m 3.916015,2.49805 c 0.147875,0.0507 0.318877,0.0997 0.447266,0.15234 2.195757,0.89945 4.555435,1.60367 7.513672,3.86328 -0.499332,0.93655 -11.362949,21.35269 -15.011719,32.05079 -3.67165,10.76516 -5.713813,20.91631 -7.730469,32.27539 -1.936748,10.90897 -2.657393,32.77882 -2.83789,35.30273 l -10.21875,6.23828 c 0.39029,-4.14608 1.889447,-19.62433 3.611328,-30.8789 2.009259,-13.13301 5.575099,-31.45652 9.720703,-45.46876 3.675801,-12.42427 13.42525,-31.44162 14.505859,-33.53515 z m 9.21875,5.04492 c 0.331005,0.28832 0.659336,0.56709 1.00586,0.89844 1.355125,1.29577 2.771784,3.07051 4.207031,5.11133 -0.604056,1.39171 -11.100725,28.60775 -14.785156,43.00781 -3.145693,12.29448 -4.836002,34.78651 -5.515625,42.72461 l -10.265625,5.9043 c 0.80511,-5.88288 2.748298,-24.17031 4.419921,-33.58594 1.996121,-11.2434 4.37333,-21.34557 7.976563,-31.91016 3.366172,-9.86952 12.080017,-30.11741 12.957031,-32.15039 z m 6.38086,7.72656 c 1.895232,2.8711 4.985587,6.33155 6.825794,9.68922 -2.633792,5.63522 -9.415518,21.97782 -12.439076,38.37524 -2.659222,14.4215 -3.611413,25.09095 -3.589843,27.75195 l -9.707032,6.57812 c 0.437606,-9.13451 3.007388,-28.77997 5.931641,-40.20898 3.473788,-13.57679 12.444544,-40.5151 12.978516,-42.18555 z m 7.696888,11.30055 c 1.934218,3.66877 4.569136,8.36469 6.314826,12.5725 -1.08824,4.67909 -4.388935,15.64916 -5.628902,25.00195 -0.914027,6.89431 -1.915612,13.98117 -1.914062,18.05469 -4.958217,3.07367 -7.11212,4.28561 -13.292969,7.88672 0.413553,-2.82943 1.634279,-12.18666 4.123047,-26.11719 2.347753,-13.1412 6.547919,-27.89906 10.39806,-37.39867 z m 7.689826,15.88891 c 1.87799,4.56544 3.75031,10.47467 5.08204,14.82421 -0.51881,2.18703 -1.61789,6.95161 -1.94727,9.4629 -0.28496,2.17268 -0.38677,5.92163 -0.42383,8.29687 -4.36989,2.67649 -8.899091,5.45878 -9.880858,6.06445 -0.0424,-4.57015 1.604435,-11.14534 2.638668,-17.21875 1.28531,-7.54775 3.89615,-15.8946 4.53125,-21.42968 z"
       sodipodi:nodetypes="scccssccssccssccsscccscccssssscccssccssccscsccsscccsccscccsccscccsccsc" /><path
       d="m 381.61786,356.58493 c -0.90267,-4.332 -3.40667,-15.60533 -6.80934,-24.83866 l -0.044,0.11067 c 0.144,-1.24534 0.356,-2.39734 0.66,-3.39067 0.16534,-0.54267 0.304,-1.244 0.42134,-2.052 1.396,6.02267 4.72933,20.90133 5.828,30.216 z m -5.784,-4.74266 c 0,0 -1.26267,-7.58267 -1.31334,-14.716 1.584,4.00933 4.62667,12.344 4.78934,17.56666 z m 8.17333,-3.29067 c -1.82933,-7.664 -4.608,-18.18 -7.78133,-26.37466 0.0893,-1.728 0.13466,-3.65867 0.14666,-5.708 1.248,2.47466 3.296,6.97066 5.35467,11.448 -0.32,-2.184 -0.656,-4.46 -1.00533,-6.77467 l -4.35867,-8.00533 c -0.0813,-7.884 -0.54267,-16.66134 -0.85333,-21.81734 -0.12934,-0.50933 -0.25467,-0.976 -0.37334,-1.35733 -0.20533,-0.66933 -0.404,-1.29067 -0.59866,-1.888 l -1.36934,0.81467 c 0,0 2.46134,34.24533 0.20534,41.628 -2.256,7.38133 0.40933,23.37599 0.40933,23.37599 l 10.25333,8.408 c 0,0 0.15467,-0.008 0.42,-0.0227 z"
       style="display:inline;opacity:0.199997;fill:#000000;fill-opacity:1;fill-rule:nonzero;stroke:none;stroke-width:1.33333"
       id="path172160" /><path
       d="m 172.18706,216.96663 -37.87476,15.60081 -39.286747,19.0521 -11.736743,6.16192 -6.978515,5.21468 -9.458667,6.824 -8.589333,6.69866 L 39.092208,312.87768 27.202663,391.62673 26.678065,400 h 29.32244 c 21.624703,-77.54889 34.366618,-92.52242 41.105648,-98.36756 6.739027,-5.84515 15.611687,-9.92638 23.283687,-12.71571 67.72267,-24.62667 95.54706,-23.81363 95.54706,-23.81363 0,0 -30.11223,-24.20037 -35.38898,-51.17071 -2.58856,0.14366 -5.97252,2.55491 -8.36086,3.03424 z"
       style="display:inline;opacity:0.199997;fill:#000000;fill-opacity:1;fill-rule:nonzero;stroke:none;stroke-width:1.33333"
       id="path172176"
       sodipodi:nodetypes="ccccccccccczcccc" /><path
       d="m 163.9916,353.1308 c -14.48934,1.07867 -25.88534,2.11867 -32.53334,2.76133 l -6.20629,2.224 c 0,0 2.16032,18.5477 4.04081,41.88387 h 19.88169 c 1.04,-22.69333 2.72176,-41.85889 6.49749,-43.99061 2.55538,-1.44273 5.54643,-1.91906 8.31964,-2.87859 z"
       style="display:inline;opacity:0.199997;fill:#000000;fill-opacity:1;fill-rule:nonzero;stroke:none;stroke-width:1.33333"
       id="path172192"
       sodipodi:nodetypes="cccccsc" /><path
       d="m 274.23093,271.50774 -2.432,16.08533 -2.21467,-18.408 0.26533,-7.68 c 1.02667,-1.524 4.72534,-6.69333 6.62667,-5.004 2.21867,1.97333 -2.24533,15.00667 -2.24533,15.00667 m -3.98667,27.788 c -0.29867,2.46 -1.39867,2.476 -1.788,-0.76667 -1.13467,-9.43467 -3.93067,-27.74533 -3.93067,-27.74533 0,0 2.65734,-0.432 3.66,-2.19867 l 2.74934,24.06667 c 0,0 -0.31067,3.52266 -0.69067,6.644 m 6.72533,-53.152 -3.9725,-0.49254 -4.4555,4.4352 c 0,0 -3.37333,1.588 -0.92533,15.82934 -0.25067,0.58933 -0.488,1.06133 -0.69333,1.328 -0.384,0.49866 -2.19334,0.88933 -3.03334,1.19333 -2.42143,-9.50189 -0.43658,-19.30839 0.32208,-20.44439 l -4.424,2.91733 c -0.60933,-0.11066 -1.12432,9.29064 0.17792,16.48839 0.15486,0.85592 -0.24533,2.25867 -1.06666,2.164 -1.23067,-0.14266 -3.11467,0.27067 -3.24667,-0.524 -1.596,-9.62533 0.388,-17.56266 0.388,-17.56266 l -5.74667,-1.94 c 0,0 1.63734,1.93733 1.64134,2.86133 0.016,3.89467 -0.072,13.06533 0.0533,14.036 0.156,1.20267 -0.896,1.88267 -1.428,1.812 -2.976,-0.39733 -5.99867,-1.08933 -9.504,-1.85467 0,0 7.932,3.61867 11.868,4.21334 l 8.75867,47.128 3.11066,3.10266 -7.18666,-49.23466 3.45066,0.44266 c 0,0 4.288,25.796 6.404,44.24934 l -1.4,9.25866 8.19467,10.84933 5.35467,-63.57066 c 0,0 2.78266,-6.71067 2.78266,-10.16267 0,-3.452 -5.59077,-18.02359 -5.59077,-18.02359 z"
       style="display:inline;opacity:0.199997;fill:#000000;fill-opacity:1;fill-rule:nonzero;stroke:none;stroke-width:1.33333"
       id="path172208"
       sodipodi:nodetypes="ccccccccccccccccscccscccccccccccccccccscc" /><path
       style="display:inline;opacity:0.2;fill:#000000;fill-opacity:1;stroke:none;stroke-width:0.911631px;stroke-linecap:butt;stroke-linejoin:miter;stroke-opacity:1"
       d="m 368.9541,353.5484 c 0,0 6.16873,24.64853 6.43777,33.1715 0.26904,8.52297 0.42919,13.2801 0.42919,13.2801 H 366.379 Z"
       id="path2"
       sodipodi:nodetypes="czccc" /></g></svg>
