<?xml version="1.0" encoding="UTF-8" standalone="no"?>
<!-- Created with Inkscape (http://www.inkscape.org/) -->

<svg
   version="1.1"
   id="svg282014"
   width="400"
   height="400"
   viewBox="0 0 400 400"
   sodipodi:docname="Body5.svg"
   inkscape:version="1.2.2 (b0a8486, 2022-12-01)"
   xmlns:inkscape="http://www.inkscape.org/namespaces/inkscape"
   xmlns:sodipodi="http://sodipodi.sourceforge.net/DTD/sodipodi-0.dtd"
   xmlns="http://www.w3.org/2000/svg"
   xmlns:svg="http://www.w3.org/2000/svg">
  <defs
     id="defs282018" />
  <sodipodi:namedview
     id="namedview282016"
     pagecolor="#ffffff"
     bordercolor="#666666"
     borderopacity="1.0"
     inkscape:showpageshadow="2"
     inkscape:pageopacity="0.0"
     inkscape:pagecheckerboard="0"
     inkscape:deskcolor="#d1d1d1"
     showgrid="false"
     inkscape:zoom="1.475"
     inkscape:cx="199.66102"
     inkscape:cy="200"
     inkscape:window-width="1440"
     inkscape:window-height="810"
     inkscape:window-x="2589"
     inkscape:window-y="159"
     inkscape:window-maximized="0"
     inkscape:current-layer="g282022">
    <inkscape:page
       x="0"
       y="0"
       id="page282020"
       width="400"
       height="400" />
  </sodipodi:namedview>
  <g
     id="g282022"
     inkscape:groupmode="layer"
     inkscape:label="Page 1">
    <path
       d="m 275.46293,349.22293 c 14.22266,0.29467 25.90266,0.71734 35.704,1.21067 3.26666,0.164 6.33333,0.336 9.21066,0.51467 3.62534,-0.048 7.21734,0.0613 10.76934,0.33733 3.55333,0.276 25.23999,5.80933 25.23999,5.80933 0,0 16.34667,6.74934 23.33734,11.584 0.97066,-10.13866 1.22,-17.81066 -1.06134,-25.48933 -1.22133,-4.10533 -3.55466,-13.66133 -4.772,-17.768 -6.204,-24.60533 -14.02133,-41.53866 -32.58933,-56.65333 -9.16533,-7.46133 -27.97466,-13.16133 -38.51733,-19.68133 -3.55467,-2.19867 -5.45067,-5.53467 -9.30267,-7.06534 -4.84933,-2.68533 -9.544,-5.168 -13.37866,-6.79733 l -7.53334,-1.63867 4.76934,8.012 -0.29867,2.28667 c 0,0 1.21067,3.19067 2.59867,6.87733 0.85333,2.26934 2.54666,5.052 2.72133,7.436 0.21333,2.88934 -0.85467,6.19734 -1.51333,8.98267 -0.71334,3.00933 -1.8,6.26533 -1.37334,9.39333 -0.26266,3.04934 -0.63066,7.31867 -1.052,12.19734 -1.68133,19.51733 -4.20533,48.79199 -4.20533,48.79199 l -36.05867,-64.73333 -3.40666,-4.54266 c 0,0 -15.332,-8.51734 -37.47733,-27.54 -2.768,-2.37867 -5.09067,-0.97467 -7.03467,-3.324 -1.94267,-2.34934 -3.50933,-4.592 -4.76267,-6.70534 -4.14266,-6.31866 -4.14266,-12.98533 -4.14266,-20.98533 -14.94534,4.53333 -30.528,17.136 -54.22,30.72 -13.952,8 -32.241336,17.27733 -49.928002,27.68 -3.369333,1.98133 -6.128,4.90267 -9.030666,7.508 -11.613333,10.42533 -21.346667,22.64667 -27.08,38.39333 -1.494666,3.272 -2.886666,6.63734 -4.166666,10.05734 -5.121333,13.67599 -8.448,28.16133 -9.977333,42.65599 -0.958667,5.632 0.869333,11.05067 2.588,16.44667 1.118666,3.51467 1.216,7.57333 5.142666,8.03067 2.922667,0.34 7.142667,-1.392 10.016,-2.02 8.405333,-1.84 16.746666,-4.028 24.962666,-6.65067 9.216,-2.94133 18.306666,-6.41867 27.011999,-10.76667 4.298666,-2.148 8.507996,-4.50533 12.545336,-7.15733 2.42666,-1.59467 7.98933,-7.792 10.564,-8.08267 0.009,-10e-4 79.85333,-8.89333 155.70133,-7.324"
       style="fill:#7d7d7d;fill-opacity:1;fill-rule:nonzero;stroke:none;stroke-width:1.33333"
       id="path283350" />
    <path
       d="m 251.45666,332.93947 c -2.968,-8.82133 -6.00133,-17.62 -9.1,-26.39733 l 11.868,26.35466 c -0.91333,0.0133 -1.84267,0.028 -2.768,0.0427 m -17.20133,-15.8067 c -3.716,-14.82533 -9.13734,-29.30133 -16.23734,-42.87333 3.456,2.072 6.99734,4.00933 10.58534,5.868 6.45733,17.764 13.372,35.96933 21.92266,52.82667 -4.25466,0.0667 -8.62933,0.14666 -13.084,0.236 -0.764,-5.41067 -1.872,-10.76 -3.18666,-16.05734 m -11.76934,16.38267 c -2.70133,-11.768 -6.21866,-23.32667 -10.28666,-34.688 -5.30534,-14.32267 -12.13734,-30.39333 -21.20267,-44.75067 0.0853,0.0827 0.168,0.16667 0.25334,0.248 6.20933,5.78534 12.89066,10.96534 19.92266,15.63334 11.448,19.684 19.80933,41.19466 25.524,63.24666 -4.668,0.0947 -9.41867,0.19867 -14.21067,0.31067 m 37.45734,2.64533 c -0.0253,-0.0187 -0.416,-0.84667 -1.07734,-2.28 0.38534,-0.61333 -25,-55.03333 -25.292,-55.04933 -5.592,-2.79067 -12.08,-6.23333 -18.65066,-10.24667 -39.092,-28.32666 -39.60667,-44.08266 -39.60667,-44.08266 -0.556,-4.14534 -0.66133,-8.31067 -0.38266,-12.428 -0.492,0.23466 -0.99467,0.476 -1.508,0.724 -0.26934,3.30666 -0.30267,6.64666 -0.0587,9.984 -2.45733,-2.14267 -4.976,-4.20667 -7.54,-6.20134 -0.35067,0.17867 -0.708,0.36134 -1.06533,0.544 3.04133,2.816 6.01733,5.68134 8.90266,8.62134 0.288,2.37733 0.70267,4.748 1.27067,7.096 0.51467,1.94133 1.18667,3.82533 1.976,5.656 -5.856,-6.92134 -12.444,-12.89067 -19.868,-17.36667 -0.46267,0.244 -0.924,0.48533 -1.392,0.732 33.29067,23.852 52.80933,75.35333 66.36533,111.66266 -4.58533,0.10667 -9.2,0.21867 -13.81333,0.33334 -2.39734,-11.12 -5.59867,-22.04667 -9.35333,-32.77867 -10.32,-28.264 -22.976,-56.54666 -49.69867,-72.14666 -0.43867,0.236 -0.87867,0.47466 -1.31733,0.712 2.212,1.52666 4.33733,3.164 6.356,4.936 27.93866,24.82933 41.068,64.688 53.49066,99.29066 -4.604,0.11467 -9.19466,0.232 -13.74133,0.348 -2.096,-10.47733 -4.98667,-20.776 -8.43067,-30.88533 -9.64133,-27.296 -21.15466,-54.068 -46.91066,-68.66533 -0.456,0.24933 -0.912,0.5 -1.368,0.75066 31.47733,21.684 44.048,64.20267 56.12666,98.81467 -4.62,0.11866 -9.192,0.23733 -13.664,0.35066 -1.79733,-9.83599 -4.39733,-19.50799 -7.384,-28.99599 -7.94,-24.53867 -17.14266,-46.46534 -38.75466,-61.852 -1.75467,-1.20134 -3.57334,-2.28534 -5.424,-3.29734 -0.47734,0.264 -0.95067,0.528 -1.42667,0.792 3.04667,2.04 5.95867,4.136 8.71867,6.42667 24.40133,21.472 33.27733,55.75867 43.63066,86.94266 -4.65733,0.11867 -8.948,0.23067 -13.132,0.336 -1.42933,-9.18666 -3.59466,-18.22799 -6.28933,-27.09066 -7.25067,-23.36667 -16.16933,-45.32133 -36.95467,-58.19333 -1.62266,-0.96134 -3.29733,-1.816 -4.99466,-2.612 -0.484,0.3 -0.964,0.59866 -1.44267,0.89466 2.86133,1.70534 5.60667,3.57334 8.2,5.69734 23.828,20.25733 31.72667,51.37733 40.804,81.32133 -0.796,0.02 -1.608,0.04 -2.39333,0.06 -3.48267,0.0707 -6.96267,0.176 -10.444,0.29066 -1.152,-8.54133 -3.032,-16.95599 -5.44134,-25.19866 -6.556,-22.19467 -15.24,-42.68267 -35.17866,-54.332 -1.46667,-0.832 -2.97467,-1.56667 -4.50134,-2.25733 -0.492,0.30666 -0.98,0.612 -1.46133,0.91333 1.71467,0.99467 3.388,2.04 4.992,3.19067 24.93333,18.396 32.368,48.16 40.844,77.70933 -4.24267,0.14266 -8.48533,0.30133 -12.72667,0.46666 -0.87866,-7.93466 -2.48133,-15.76533 -4.61866,-23.42799 -5.87467,-21.01067 -17.14667,-42 -36.228002,-52.38267 -1.284,-0.71333 -2.606667,-1.33467 -3.944,-1.92 -0.510667,0.32133 -1.013334,0.63867 -1.504,0.94667 2.436,1.39733 4.782666,2.908 7.032,4.66933 22.041332,16.99733 31.362662,45.32933 38.468002,72.14533 -1.39067,0.0547 -2.78134,0.108 -4.172,0.16133 -0.82934,-3.23066 -1.756,-7.11066 -2.66534,-9.84666 -0.72666,-2.08133 -2.28933,-6.81733 -3.05333,-8.82667 -0.776,-1.82533 -2.85467,-6.68266 -3.66533,-8.56266 -1.61867,-3.168 -4.00534,-7.91867 -5.884,-10.86934 -8.456,-13.77066 -19.684002,-26.084 -33.205335,-34.356 -0.189334,0.12 -0.374667,0.236 -0.556,0.35067 4.925333,3.25867 9.491999,7.14 13.735999,11.32267 11.321336,11.15466 20.279996,25.12933 26.135996,40.22666 1.43067,3.19867 2.87067,8.14667 3.984,11.528 0.59734,1.67334 1.08,4.164 1.53734,5.91734 l 1.43733,5.94799 0.0573,0.236 c 0,0 0.22134,-0.004 0.22267,-0.004 0.204,-0.12666 128.13333,-2.34533 128.13866,-2.36266 0,0 -0.244,-0.53067 -0.24266,-0.53067"
       style="opacity:0.199997;fill:#000000;fill-opacity:1;fill-rule:nonzero;stroke:none;stroke-width:1.33333"
       id="path283360" />
    <path
       d="m 102.8552,355.598 c -2.984002,1.72933 -6.061336,3.4 -9.184002,5.01867 -3.714667,-13.31867 0.154666,-28.33067 9.166662,-38.464 2.308,-2.71733 4.89467,-5.16133 7.64,-7.4 1.02267,3.352 1.98667,6.58667 2.84134,9.47733 -4.416,3.428 -8.116,8.116 -10.016,13.576 -1.932,5.372 -2.01067,12.032 0.38933,17.308 -0.28133,0.16267 -0.57733,0.332 -0.83733,0.484 M 81.328531,366.63 c -0.654666,-2.31067 -1.133333,-4.68667 -1.478666,-7.06933 -2.570667,-16.25467 2.682666,-33.488 13.951999,-44.96667 3.944,-4.15066 8.459996,-7.672 13.258666,-10.69066 1.01733,3.112 2.02933,6.32666 2.99467,9.46933 -3.41867,1.69067 -6.6,3.932 -9.43467,6.672 -10.773332,9.8 -15.089332,27.936 -8.171999,41.208 -3.665333,1.876 -7.392,3.672 -11.12,5.37733 m -7.513333,3.32267 c -1.681333,0.67333 -3.376,1.33866 -5.081333,1.99066 -1.974667,-7.204 -2.753333,-14.78 -2.501333,-22.26666 0.505333,-16.10134 7.198666,-31.828 18.525333,-42.70667 5.542666,-5.41466 11.933333,-9.83866 18.722665,-13.38 1.07467,2.86534 2.19867,6.116 3.32,9.51867 -5.46933,2.04667 -10.594666,5.18933 -15.107999,9.25733 -14.828,12.7 -20.030666,36.69333 -11.146666,54.61733 -2.249334,1.02267 -4.497334,2.016 -6.730667,2.96934 m -17.981333,6.41066 c -2.218666,-8.69066 -3.029333,-17.78533 -2.628,-26.76533 0.784,-19.06533 8.742667,-37.70533 22.506666,-50.28666 6.805334,-6.30534 14.648,-11.32267 22.950667,-15.19067 l -0.152,-0.36667 c -8.882667,2.56267 -17.362667,7.03867 -24.78,13.20267 -22.554666,18.23467 -29.346666,52.47733 -18.475999,79.57466 -4.18,1.20667 -8.409334,2.188 -12.674667,2.808 -2.198666,-9.736 -2.94,-19.844 -2.412,-29.82533 1.056,-22.03333 10.301333,-43.62 26.498666,-57.884 7.438667,-6.62266 15.928,-11.868 24.892,-15.92133 3.72,3.34 8,8.18533 10.561332,14.404 0.392,0.952 0.79467,1.98267 1.20533,3.06533 -7.423996,2.292 -14.455996,6.204 -20.602662,11.48934 -18.782666,15.51466 -24.786666,44.96799 -14.592,67.50799 -4.04,1.53334 -8.145333,2.96667 -12.297333,4.188 m 0.552,-89.15199 c 0,0 22.608,-14.508 29.166666,-16.14134 l -7.766666,-2.176 -15.36,8.16134 z m 50.141335,69.73999 c 4.12133,-2.67333 8.15866,-5.48933 12.11466,-8.42133 l 0.772,-2.81067 -2.548,1.62267 c -2.93733,1.93733 -7.45333,4.49733 -11.152,6.61067 -0.27333,-1.34934 -0.44,-2.72267 -0.508,-4.09067 -0.30933,-5.91733 1.67067,-11.784 4.45867,-16.84666 0.47467,-0.736 1.71067,-2.636 2.204,-3.4 0.62667,-0.88134 1.392,-1.84534 2.208,-2.82134 1.05333,3.57334 1.884,6.404 2.368,7.932 1.89867,5.98533 1.72667,0.72667 0.69067,-3.808 0,0 -9.14667,-35.908 -18.121336,-49.51066 -8.974666,-13.60134 -14.669333,-11.06267 -14.669333,-11.06267 0,0 2.961333,1.65867 6.606667,4.82667 -11.905333,3.74666 -23.401333,10.444 -32.383999,19.72533 -21.126667,21.30533 -26.506666,56.112 -16.730667,84.55066 -3.32,0.44934 -6.661333,0.66267 -10.015999,0.60667 -1.308,-5.292 -2.184,-10.71067 -2.82,-16.14 -0.606667,-5.428 -0.946667,-10.884 -1.082667,-16.344 -0.905333,5.03867 -1.657333,10.01467 -2.276,14.66 -0.662667,4.97867 3.328,13.22667 5.262667,17.65467 -2.853334,-0.38934 -2.112,1.11066 -0.410667,2.188 2.237333,1.41733 6.392,0.70933 8.841333,0.56266 1.190667,-0.0547 2.38,-0.14 3.58,-0.22133 l 0.141333,-0.0467 c 8.328,-0.79866 16.597333,-2.93866 24.448,-5.81333 9.258666,-3.29067 18.198666,-7.43467 26.817332,-12.22933 0.126667,0.18 0.246667,0.364 0.377334,0.54133 0,0 0.341333,-0.17733 0.342666,-0.17733 -0.08667,-0.20934 -0.150666,-0.42534 -0.233333,-0.636 3.529333,-1.976 6.997329,-4.072 10.415999,-6.256 z"
       style="opacity:0.199997;fill:#000000;fill-opacity:1;fill-rule:nonzero;stroke:none;stroke-width:1.33333"
       id="path283376" />
    <path
       d="m 31.841333,392.29333 c 0.446666,2.49334 0.821333,5.07867 1.181333,7.67334 h 20.166666 c 0.196,-3.43334 -0.168,-7.00134 -0.09067,-10.296 0.142667,-6.028 0.624,-12.05067 1.532,-18.00534 0.428,-2.80266 0.934667,-5.49466 1.513334,-8.08133 1.446666,-8.30533 4.385333,-16.06533 8.389333,-23.15867 2.002666,-3.548 4.270666,-6.928 6.752,-10.12666 4.559999,-5.876 9.702666,-10.88 15.550666,-15.32267 2.893333,-2.19733 5.872,-4.26533 8.86,-6.316 3.001333,-2.06266 5.933335,-4.42533 9.012005,-6.33333 0.66266,-0.40933 0.86,-0.26267 1.588,-0.4 1.04933,-0.19733 0.89866,-0.65067 1.09066,-1.812 0.28,-1.68267 0.472,-3.464 1.404,-4.91733 2.73067,-4.26267 7.59067,-5.80534 11.956,-7.59334 12.06134,-4.93733 26.01867,-8.93733 38.75867,-12.128 2.82667,-0.80533 5.532,-1.54666 8.11733,-2.22666 28.43467,-7.48134 44.06933,-7.67467 44.06933,-7.67467 0,0 -11.004,-7.552 -20.27466,-18.68933 -3.08933,-3.71334 -5.98533,-4.512 -8.212,-8.99734 -2.228,-4.484 -3.78267,-9.164 -4.21067,-13.9 -0.428,-4.73466 0.268,-9.53333 2.564,-14.21333 -15.64266,5.004 -31.176,17.60133 -52.764,29.896 -15.34666,8.74 -35.366665,18.684 -51.609332,28.46133 -3.106666,2.40934 -6.126666,4.90267 -9.030666,7.50934 -11.612,10.424 -21.345333,22.64533 -27.079999,38.392 -1.493334,3.272 -2.886667,6.63866 -4.166667,10.05733 -5.121333,13.676 -8.446666,28.16133 -9.976,42.656 -1.108,6.50533 1.758667,9.956 3.636,15.956 0.956,3.056 0.697334,6.38 1.273334,9.59066"
       style="opacity:0.199997;fill:#000000;fill-opacity:1;fill-rule:nonzero;stroke:none;stroke-width:1.33333"
       id="path283392" />
    <path
       d="m 383.91919,399.96653 c -0.144,-0.856 -0.384,-1.68666 -0.64133,-2.34666 -0.696,-1.77734 -2.25467,-3.46 -3.18534,-5.13067 -0.88666,-1.59467 -1.816,-3.20667 -2.61466,-4.83067 -1.45734,-2.968 -2.89867,-6.17733 -1.188,-9.324 1.60933,-2.96 4.252,-6.02933 2.29333,-9.588 -1.23333,-2.24 -3.70933,-3.056 -5.82133,-4.18133 -2.21467,-1.17867 -3.82134,-3.104 -6.22934,-3.83867 -2.128,-0.64933 -4.05333,-2.13333 -6.17866,-2.62 -2.14934,-0.49333 -4.32,-0.69333 -6.46,-1.46933 -1.84134,-0.668 -3.72667,-1.292 -5.668,-1.6 -1.728,-0.276 -3.52134,0.092 -5.164,-0.272 -3.94667,-0.872 -7.34934,-2.36267 -11.50667,-2.51467 -3.77866,-0.14 -7.45733,-1.07333 -11.17733,-1.30266 -2.87733,-0.17734 -5.94533,-0.35067 -9.212,-0.51467 -9.8,-0.49333 -21.48,-0.916 -35.70267,-1.21067 -75.85333,-1.56933 -155.70133,7.324 -155.70133,7.324 -14.23866,12.85734 -32.558662,20.41867 -50.321328,26.07067 -8.232,2.62 -16.588,4.804 -25.009333,6.64 -2.718667,0.59333 -7.705333,0.52667 -10.049333,2.03733 -2.472,1.59467 -2.674667,4.848 -2.494667,7.93867 0.01467,0.24667 0.03333,0.48933 0.052,0.73333 z"
       style="fill:#2d2d2d;fill-opacity:1;fill-rule:nonzero;stroke:none;stroke-width:1.33333"
       id="path283402" />
    <path
       d="m 196.9892,241.882 c 22.14533,19.02267 37.47733,27.54 37.47733,27.54 l 3.408,4.54267 36.05733,64.73466 c 0,0 2.524,-29.27599 4.20667,-48.79199 0.42,-4.88 0.788,-9.14934 1.05066,-12.19867 0.81067,-5.70933 3.47734,-11.04267 3.82267,-15.94533 -0.70533,-1.992 -2.26933,-6.17867 -3.65733,-9.86534 -1.388,-3.688 -2.59734,-6.87866 -2.59734,-6.87866 l 0.29734,-2.28534 -4.768,-8.012 -0.18534,0.152 -3.812,10.87334 -5.22533,2.25866 -2.824,2.82534 -3.672,-3.672 c -10.87333,-1.412 -25.98267,-10.59067 -35.02,-17.228 -9.03867,-6.63734 -19.36,-29.62667 -19.36,-29.62667 l 0.76,-3.37733 -3.15333,-0.72 -14.51067,11.48533 c -9.284,4.384 -3.95066,16.70533 -0.092,24.144 1.25467,2.11333 2.82,4.356 4.764,6.70533 1.94267,2.34934 4.26534,0.96267 7.03334,3.34"
       style="fill:#d30000;fill-opacity:1;fill-rule:nonzero;stroke:none;stroke-width:1.33333"
       id="path283406" />
    <path
       d="m 196.9892,241.882 c 22.14533,19.02267 37.47733,27.54 37.47733,27.54 l 3.408,4.54267 36.05733,64.73466 c 0,0 2.524,-29.27599 4.20667,-48.79199 0.42,-4.88 0.788,-9.14934 1.05066,-12.19867 0.81067,-5.70933 3.47734,-11.04267 3.82267,-15.94533 -0.70533,-1.992 -2.26933,-6.17867 -3.65733,-9.86534 -1.388,-3.688 -2.59734,-6.87866 -2.59734,-6.87866 l 0.29734,-2.28534 -4.768,-8.012 -0.18534,0.152 -3.812,10.87334 -5.22533,2.25866 -2.824,2.82534 -3.672,-3.672 c -10.87333,-1.412 -25.98267,-10.59067 -35.02,-17.228 -9.03867,-6.63734 -19.36,-29.62667 -19.36,-29.62667 l 0.76,-3.37733 -3.15333,-0.72 -14.51067,11.48533 c -9.284,4.384 -3.95066,16.70533 -0.092,24.144 1.25467,2.11333 2.82,4.356 4.764,6.70533 1.94267,2.34934 4.26534,0.96267 7.03334,3.34 z"
       style="fill:none;stroke:#000000;stroke-width:1.08533;stroke-linecap:butt;stroke-linejoin:miter;stroke-miterlimit:10;stroke-dasharray:none;stroke-opacity:1"
       id="path283410" />
    <path
       d="m 213.63253,151.29441 -5.49067,30.848 -7.176,16.536 c 0,0 11.544,24.61599 20.58133,31.25333 9.03734,6.636 24.148,15.816 35.02134,17.228 l 3.67066,3.67066 2.82534,-2.824 5.224,-2.25866 1.832,-12.39334 13.08133,-27.18533 z"
       style="fill:#cd976d;fill-opacity:1;fill-rule:nonzero;stroke:none;stroke-width:1.33333"
       id="path283414" />
    <path
       d="m 200.96626,198.67814 c 0,0 11.984,21.33333 16.95333,26.82666 4.96934,5.492 32.69467,1.83067 40.54134,4.18534 6.34,1.90133 10.816,0.91466 12.95866,0.964 l 11.78267,-24.48534 -69.56933,-54.87466 -5.69867,31.472 z"
       style="opacity:0.199997;fill:#000000;fill-opacity:1;fill-rule:nonzero;stroke:none;stroke-width:1.33333"
       id="path283424" />
    <path
       d="m 211.64493,149.52841 c -1.01067,4.99733 -3.35067,25.12533 -4.128,30.15333 -0.51734,3.34133 -1.74934,6.54133 -3.84667,10.988 -1.13333,2.404 -2.55733,3.41333 -3.16,5.17867 -0.20133,0.58933 -1.02533,1.72933 -0.948,2.348 0.0213,0.172 0.85733,2.48266 1.184,2.07999 3.96,-4.87733 7.66533,-12.62133 9.476,-18.86266 1.29067,-4.45067 3.76533,-24.06133 5.256,-28.47867 0,0 -3.83333,-3.40666 -3.83333,-3.40666"
       style="fill:#000000;fill-opacity:1;fill-rule:nonzero;stroke:none;stroke-width:1.33333"
       id="path283434" />
    <path
       d="m 285.86613,207.63814 c -2.232,2.508 -11.62934,23.48 -13.308,26.58266 -1.36534,2.52267 -2.372,12.41734 -5.128,12.788 -1.86267,0.25067 -2.084,-3.988 -1.828,-5.81866 0.124,-0.87467 14.504,-36.10934 14.504,-36.10934 0,0 5.76,2.55734 5.76,2.55734"
       style="fill:#000000;fill-opacity:1;fill-rule:nonzero;stroke:none;stroke-width:1.33333"
       id="path283438" />
    <path
       d="m 276.07346,242.23054 c 0.33067,0.75333 0.6,1.59333 0.68267,2.78933 0.224,3.21333 -1.1,3.24933 -2.696,5.944 -2.38667,4.032 -3.48134,9.40133 -4.94667,13.80933 -0.872,-2.21866 -1.20133,-3.37733 -1.008,-5.648 0.196,-2.31333 0.44933,-4.564 1.104,-6.844 0.46533,-1.62266 3.62267,-4.36666 4.41467,-5.74133 1.59866,-2.768 0.99466,-5.07867 0.372,-8.04267 0.23866,0.32 0.43733,0.32667 0.74,0.59334 0.36,1.30533 0.90133,2.14666 1.33733,3.14"
       style="fill:#000000;fill-opacity:1;fill-rule:nonzero;stroke:none;stroke-width:1.33333"
       id="path283442" />
    <path
       d="m 126.65506,357.8324 c -0.53466,-4.01867 -4.03866,-17.95733 -8.87466,-31.204 -1.208,-3.312 -2.50134,-6.58 -3.85067,-9.63866 -1.35067,-3.06 -2.752,-5.90934 -4.17467,-8.37334 0,0 1.36534,4.72534 2.85467,11.33467 0.74533,3.30533 1.516,7.07867 2.15333,10.96133 0.636,3.88267 1.13867,7.876 1.34667,11.62 0,8.808 -1.80933,20.42533 -1.80933,20.42533 l 5.20133,-3.076 c 0,0 6.86667,4.516 7.15333,-2.04933"
       style="fill:#000000;fill-opacity:1;fill-rule:nonzero;stroke:none;stroke-width:1.33333"
       id="path283446" />
    <path
       d="m 219.51133,258.96734 c -3.56934,-2.512 -10.108,-6.52667 -18.98,-13.892 -2.956,-2.45467 -6.17333,-1.42934 -9.62533,-4.90534 -9.57334,-9.10533 -17.57334,-29.588 -1.96,-34.632 4.44533,-3.42533 10.848,-9.33066 10.848,-9.33066 l 2.39333,4.09733 c 0.61733,14.19333 5.03466,21.09333 13.37866,29.31733 7.41067,7.304 11.40134,14.18934 24.04267,17.34934 4.20667,1.052 3.568,11.54666 3.352,13.924 -0.216,2.37733 -9.3,8.028 -23.44933,-1.928"
       style="opacity:0.199997;fill:#000000;fill-opacity:1;fill-rule:nonzero;stroke:none;stroke-width:1.33333"
       id="path283456" />
    <path
       d="m 376.60586,341.49067 c 0.048,0.25333 0.0907,0.508 0.13066,0.76266 0.62934,4.02 0.70934,8.15467 0.804,12.21467 0.0427,1.83733 0.068,3.676 0.052,5.51333 -0.009,1.17734 0.39067,3.95467 -0.55733,4.74 -0.76267,0.632 -3.03467,-1.196 -3.72,-1.54533 -1.67067,-0.85333 -3.18133,-2.07067 -4.85467,-2.86267 -0.70266,-0.33333 -1.5,-0.38266 -2.09866,-0.94 -0.33867,-0.316 -0.48134,-0.82 -0.716,-1.188 -0.64934,-1.016 -1.19734,-1.32266 -2.31467,-1.7 -11.77467,-3.97466 -24.14667,-6.00666 -36.524,-6.83466 -16.56133,-1.10667 -33.05466,-2.24134 -50.228,-3.43467 l -153.82533,3.41733 c -0.0387,0.032 -0.0773,0.064 -0.116,0.0947 -7.78533,6.30133 -16.42533,11.552 -25.105329,16.34267 -8.886667,4.90266 -18.064,9.22533 -27.443999,12.97866 -5.433334,2.17334 -10.928,4.21067 -16.482667,6.01867 -3.585333,1.168 -16.074666,6.86533 -19.394666,4.18267 -1.477333,-1.20134 -1.437333,-6.00934 -1.809333,-7.86534 -2.224,-11.12666 -2.658667,-24.15866 -0.422667,-35.284 0.832,-4.14 1.74,-8.26266 2.706667,-12.37066 1.682666,-7.152 4.025333,-14.75333 7.357333,-21.22667 0.162667,-0.316 0.328,-0.63066 0.494667,-0.94266 3.290666,-6.168 7.241333,-12.12667 11.067999,-17.932 6.422667,-9.74267 13.225333,-19.04667 24.921333,-21.35067 3.806667,-0.66667 8.285333,1.05467 11.457333,2.72267 3.489333,2.332 6.026667,4.99866 8.565333,7.66533 -0.642666,-0.67467 -0.797333,-4.828 -1.385333,-6.064 -0.932,-1.95867 -2.313333,-3.64 -3.849333,-5.10267 -2.852,-2.716 -6.38,-4.64533 -9.930667,-6.14133 2.378667,1.00267 10.381333,-4.396 12.613333,-5.52267 4.201336,-2.12133 8.478666,-3.96933 12.770666,-5.87333 9.084,-4.02667 17.91467,-8.696 26.00667,-14.29067 5.68666,-3.932 11.08133,-8.284 16.62133,-12.428 5.59467,-4.18533 11.49067,-6.81733 17.40533,-10.40266 1.74,-1.05334 9.33734,-3.316 9.86534,-4.604 -0.36267,0.88266 -0.828,2.00533 -0.728,2.97733 0.096,0.93333 0.44,1.80533 0.63066,2.71867 0.98134,4.69733 2.03734,8.94 4.24134,13.256 2.956,5.78533 7.10133,11.52133 12.62133,15.096 4.16,2.69333 8.74666,4.62266 12.84133,7.44266 18.39733,12.66667 24.63867,17.11734 26.708,18.66134 0.0133,0.0267 0.0253,0.0533 0.04,0.08 l 37.47867,69.27599 c 0.22266,0.41334 0.612,0.68 1.04666,0.78667 h 0.80267 c 0.66,-0.17733 1.148,-0.74 1.20533,-1.42667 0,0 2.136,-29.56133 3.56,-49.26933 0.356,-4.92666 0.668,-9.23733 0.89067,-12.316 1.328,-8.85333 7.99467,-19.52 0.36933,-28.552 -0.50133,-1.04933 -2.34666,-4.01333 -2.02133,-5.224 0.124,-0.468 0.51867,-0.88666 0.73867,-1.30533 1.3,-2.49333 -2.348,-5.728 -3.11867,-7.90533 -0.044,-0.12534 -0.13333,-1.204 0.14933,-1.21467 5.27467,-0.22133 10.72267,4.66 14.79067,7.24133 1.80267,1.14267 3.276,2.724 4.93467,4.04667 1.96933,1.57333 4.27333,2.816 6.468,4.01467 4.53066,2.476 9.26666,4.51333 13.992,6.54533 6.80666,2.92933 13.48533,6.26267 19.69466,10.39867 3.11067,2.07333 6.10267,4.348 8.888,6.87333 2.62667,2.38267 4.50533,5.04133 6.71733,7.70667 5.96934,7.19466 11.04534,15.196 14.924,23.79733 3.29334,7.30533 5.712,15.032 7.13867,22.96 1.14667,4.17067 2.12667,8.37333 2.93467,12.588 m -193.756,-129.488 c 0.20667,-0.52267 0.516,-1.028 0.97734,-1.56933 1.98933,-2.33067 4.65733,-4.29334 7.292,-5.824 1.57466,-0.91467 3.35333,-1.50534 4.824,-2.596 0.90266,-0.66934 2.25733,-3.004 3.492,-2.748 0.69999,0.144 0.81333,0.93333 1.04533,1.54933 0.444,1.17333 0.91066,2.33467 1.39866,3.488 1.26534,2.996 2.66267,3.79067 4.17734,6.472 3.94266,6.97733 8.696,13.53867 14.33733,19.244 6.56133,6.636 14.38267,12.06267 23.17333,15.28533 4.12134,1.512 8.41734,2.532 12.776,3.04934 l 2.75334,3.856 c 0.31066,0.43466 0.77733,0.68266 1.35066,0.68133 1.30267,-0.001 1.33867,-1.26533 1.91467,-2.09333 0.772,-1.11067 2.09067,-1.78934 3.34,-2.21067 1.20133,-0.40533 2.524,-0.66533 3.42933,-1.552 1,-0.98 1.46267,-2.60533 2.10267,-3.83067 0.33067,-0.63066 0.67067,-1.25733 1.02,-1.87866 0.116,-0.20534 0.956,-1.32934 0.888,-1.51867 1.39867,3.856 3.51067,7.96267 5.11867,12.15067 1.60933,4.188 2.71466,8.45866 2.10133,12.63866 -0.69467,4.73334 -2.48267,8.992 -2.83467,13.83334 -0.312,4.30266 -0.624,8.604 -0.936,12.90666 -0.73066,10.07067 -1.46266,20.14134 -2.19333,30.21334 -0.24933,3.44533 -0.5,6.89066 -0.74933,10.336 L 240.11653,275.04 c -4.14534,-9.572 -26.092,-22.79466 -40.028,-33.54666 -3.20267,-2.472 -6.028,-1.46267 -8.472,-4.516 -2.444,-3.052 -4.508,-6.16267 -6.18933,-9.056 -1.868,-4.16 -3.148,-8.75334 -2.99867,-13.348 0.032,-1.00267 0.11733,-1.80534 0.42133,-2.57067 M 27.572533,385.49333 c 1.098666,4.61467 2.826666,8.96134 1.917333,13.94934 -0.03067,0.17466 -0.076,0.34933 -0.126667,0.524 h 4.428 c 2.192,-4.62667 8.444,-5.992 12.822667,-7.75334 6.599999,-2.65333 14.417332,-3.31733 21.251999,-5.42533 17.589333,-5.42133 34.693335,-13.136 49.903995,-23.964 0,0 1.992,-5.23067 6.30534,1.39467 3.05066,4.684 7.25866,24.51733 9.464,35.748 h 5.292 c -0.52267,0 -1.732,-14.82534 -1.452,-16.38667 0.81466,-4.54133 2.25333,-10.51067 4.416,-14.504 1.232,-2.27867 2.912,-4.2 4.384,-6.3 2.32533,-3.31867 2.38,-4.19733 6.03466,-5.244 4.07467,-1.16533 8.10134,-1.39867 12.32134,-1.66133 9.436,-0.58934 19.31066,-1.03067 29.236,-1.41734 18.63066,-0.72533 37.26933,-1.23333 55.90799,-1.67733 5.50934,-0.13067 11.03734,-0.13867 16.54134,-0.41467 3.63333,-0.18133 22.52,0.39467 42.80933,1.57867 4.05733,0.236 8.204,0.49733 12.33733,0.78133 5.64,0.388 11.32534,0.10667 16.93733,0.87734 5.55867,0.76266 10.53734,2.11333 15.96267,3.62 2.564,0.71066 5.17733,1.21466 7.76933,1.804 1.84134,0.41866 4.85867,0.80133 5.86267,2.684 0.15067,0.28266 0.0653,0.592 0.32667,0.852 0.33466,0.332 0.79333,0.352 1.168,0.55333 2.18266,1.16667 4.296,2.63733 6.372,3.98667 0.856,0.556 0.50666,0.96666 0.27466,1.81466 -0.40666,1.48134 -0.97066,3.00534 -1.20133,4.53734 -0.364,2.40533 -1.29467,6.11066 0.3,8.26133 2.54133,3.43067 2.95867,1.10933 2.78933,-0.24267 -0.55333,-4.432 0.9,-8.868 1.54134,-11.08266 1.44266,-4.98267 2.10133,-9.23334 2.36133,-14.49734 0.588,-11.9 -1.70667,-21.89466 -4.20667,-33.46933 -0.57333,-2.65466 -1.24266,-5.28666 -2.012,-7.888 -2.724,-9.22133 -6.71733,-18.024 -11.88266,-26.04666 -6.21867,-9.65867 -13.63067,-17.70134 -23.15334,-23.88 -5.52666,-3.58534 -11.00133,-7.30667 -16.87733,-10.21867 -4.13866,-2.052 -8.552,-3.40667 -12.75066,-5.30667 -1.952,-0.88266 -3.94134,-1.596 -5.81867,-2.68133 -1.904,-1.1 -3.70933,-2.37067 -5.48267,-3.68 -2.572,-1.89867 -4.98266,-3.89333 -7.75733,-5.63733 -2.652,-1.664 -5.448,-3.084 -8.3,-4.372 -2.76667,-1.25067 -5.51467,-2.53067 -8.53733,-3.00134 -0.59867,-0.0933 -1.18934,-0.17333 -1.59334,0.34534 -0.30533,0.392 -0.464,0.86666 -0.68266,1.30666 -1.05734,2.12 -2.216,4.26 -3.46534,6.30267 -1.17733,1.928 -2.37466,4.208 -4.316,5.47067 -0.59466,0.38666 -1.16666,0.688 -1.872,0.68266 -0.668,-0.004 -1.10666,0.11734 -1.51466,0.732 l -1.23334,1.848 -1.804,-2.52666 c -0.27066,-0.37867 -0.69066,-0.62267 -1.15333,-0.672 -40.28267,-4.27334 -55.39467,-49.76933 -55.532,-50.268 -0.16267,-0.59067 -0.59467,-1.06133 -1.14,-1.24 -0.54667,-0.18133 -1.12533,-0.0427 -1.53066,0.36 -0.53467,0.52933 -0.864,1.56267 -1.44934,2.17067 -4.05066,4.21333 -9.652,6.82799 -14.29733,10.43333 -0.83067,0.64533 -0.85467,0.58266 -1.89867,0.636 -1.29333,0.0667 -2.7,1.09733 -3.76666,1.74533 -1.47334,0.896 -2.96667,1.76133 -4.472,2.604 -2.912,1.632 -5.872,3.18 -8.84,4.70933 -5.88534,3.032 -11.816,5.99867 -17.47867,9.43734 -0.73467,0.44533 -1.464,0.9 -2.18667,1.364 -9.85466,6.32133 -19.616,13.244 -30.30533,18.696 -11.18,5.70266 -22.917332,9.92933 -33.955999,16.03866 -0.942666,0.52267 -1.888,1.04267 -2.834666,1.56 -0.876,0.47867 -1.925334,0.87734 -2.726667,1.48134 -3.036,2.288 -5.997333,4.66133 -8.858666,7.13866 -11.450667,9.90667 -21.966666,23.21067 -28.338666,38.12267 -1.532,3.34267 -2.954667,6.79467 -4.253334,10.312 -5.426666,14.68933 -11.155999,33.76933 -9.630666,49.72666 0.532,5.55734 2.425333,10.12 3.650667,15.268"
       style="fill:#000000;fill-opacity:1;fill-rule:nonzero;stroke:none;stroke-width:1.33333"
       id="path283466" />
    <path
       d="m 172.40786,352.36173 c -13.788,1.07867 -40.13333,2.888 -46.45866,3.53067 l -1.20934,2.224 c 0,0 7.90534,20.30933 11.34,41.85067 h 14.23734 c 0.988,-22.69334 5.00266,-38.18934 22.09066,-47.60534"
       style="opacity:0.199997;fill:#000000;fill-opacity:1;fill-rule:nonzero;stroke:none;stroke-width:1.33333"
       id="path283476" />
    <path
       d="m 176.58986,354.74787 c 4.16667,0 9.35734,-0.596 13.644,0.0787 5.37734,0.84667 11.252,3.16667 16.60533,4.57467 4.82,1.268 9.93067,2.93733 14.808,3.392 5.33067,0.49867 9.59734,2.552 14.85067,3.85867 8.92667,2.22133 17.712,4.61733 26.58,6.37466 8.95333,1.77334 15.488,5.63467 23.57333,-0.756 3.796,-3 7.37067,-6.68933 11.23867,-9.76933 4.53067,-3.608 9.28533,-5.48267 14.72,-7.296 2.20133,-0.73467 4.416,-1.43333 6.60533,-2.20267 0.876,-0.308 3.648,-1.972 4.492,-1.81466 -7.468,-1.384 -28.83466,-2.71067 -36.684,-3.816 -9.848,-1.38534 -19.03066,-1.24534 -28.98933,-1.02 -11.48,0.25866 -22.93067,1.90933 -34.412,2.456 -11.78133,0.56266 -23.61333,0.036 -35.392,0.34266 -3.44266,0.0893 -9.14133,-0.50533 -11.648,1.39067 -4.23733,3.20533 1.11067,3.74133 0.008,4.20667"
       style="opacity:0.199997;fill:#000000;fill-opacity:1;fill-rule:nonzero;stroke:none;stroke-width:1.33333"
       id="path283492" />
    <path
       d="m 274.23093,271.50774 -2.432,16.08533 -2.21467,-18.408 0.26533,-7.68 c 1.02667,-1.524 4.72534,-6.69333 6.62667,-5.004 2.21867,1.97333 -2.24533,15.00667 -2.24533,15.00667 m -3.98667,27.788 c -0.29867,2.46 -1.39867,2.476 -1.788,-0.76667 -1.13467,-9.43467 -3.93067,-27.74533 -3.93067,-27.74533 0,0 2.65734,-0.432 3.66,-2.19867 l 2.74934,24.06667 c 0,0 -0.31067,3.52266 -0.69067,6.644 m 6.72533,-53.152 -8.428,3.94266 c 0,0 -3.37333,1.588 -0.92533,15.82934 -0.25067,0.58933 -0.488,1.06133 -0.69333,1.328 -0.384,0.49866 -2.19334,0.88933 -3.03334,1.19333 -3.256,-9.04667 0.77734,-19.536 1.536,-20.672 l -4.424,2.91733 c -0.60933,-0.11066 -2.86933,10.04934 -1.036,16.716 0.23067,0.83867 -0.24533,2.25867 -1.06666,2.164 -1.23067,-0.14266 -3.11467,0.27067 -3.24667,-0.524 -1.596,-9.62533 0.388,-17.56266 0.388,-17.56266 l -5.74667,-1.94 c 0,0 1.63734,1.93733 1.64134,2.86133 0.016,3.89467 -0.072,13.06533 0.0533,14.036 0.156,1.20267 -0.896,1.88267 -1.428,1.812 -2.976,-0.39733 -5.99867,-1.08933 -9.504,-1.85467 0,0 7.932,3.61867 11.868,4.21334 l 8.75867,47.128 3.11066,3.10266 -7.18666,-49.23466 3.45066,0.44266 c 0,0 4.288,25.796 6.404,44.24934 l -1.4,9.25866 8.19467,10.84933 c 0,0 2.38,-28.25333 3.96667,-47.08933 0.79333,-9.41733 1.388,-16.48133 1.388,-16.48133 3.056,-6.16267 3.056,-12.82933 0.0707,-19.71867 -1.356,-3.69866 -2.712,-6.96666 -2.712,-6.96666"
       style="opacity:0.199997;fill:#000000;fill-opacity:1;fill-rule:nonzero;stroke:none;stroke-width:1.33333"
       id="path283508" />
    <path
       d="m 320.10986,374.954 c -0.007,-0.0453 0.40533,-0.84667 0.40533,-0.84667 l 7.61067,-0.33333 -0.032,3.02533 -0.40533,-0.0307 c 0,0 -6.80667,0.43866 -7.13867,0.136 -0.33067,-0.30267 -0.43333,-1.90534 -0.44,-1.95067 m -1.67867,5.524 c 0.49467,0.76667 9.25334,1.86267 9.25334,1.86267 l 2.1,-13.14667 c 0,0 -8.41467,-0.11067 -9.59334,0.10933 -1.17733,0.21867 -2.14533,1.752 -2.244,4.05334 -0.1,2.30133 -0.012,6.35466 0.484,7.12133"
       style="fill:#d9a14b;fill-opacity:1;fill-rule:nonzero;stroke:none;stroke-width:1.33333"
       id="path283518" />
    <path
       d="m 348.54706,376.90493 c -0.19867,0.30267 -6.50267,-0.136 -6.50267,-0.136 l -0.356,0.0307 -1.04667,-3.02533 6.99467,0.33333 c 0,0 0.644,0.80133 0.652,0.84667 0.009,0.0453 0.45733,1.648 0.25867,1.95066 m 1.16133,-3.548 c -0.864,-2.30133 -2.256,-3.83466 -3.396,-4.05333 -1.13867,-0.22 -8.712,-0.11067 -8.712,-0.11067 l 6.32267,13.148 c 0,0 7.55333,-1.096 7.744,-1.86266 0.18933,-0.76667 -1.09467,-4.82134 -1.95867,-7.12134"
       style="fill:#d9a14b;fill-opacity:1;fill-rule:nonzero;stroke:none;stroke-width:1.33333"
       id="path283522" />
    <path
       d="m 327.17639,398.59747 c -0.16933,0 -0.348,-0.048 -0.52,-0.144 -0.40266,-0.228 -0.696,-0.68534 -0.75066,-1.172 -0.056,-0.49467 -1.35334,-12.216 -0.172,-20.72267 1.19866,-8.62533 4.01866,-17.97333 5.156,-20.19067 0.16266,-0.316 0.46533,-0.49066 0.80933,-0.472 0.34667,0.02 0.69467,0.232 0.93333,0.572 0.476,0.67334 11.69733,16.73067 16.464,38.38267 0.12533,0.56933 -0.0893,1.092 -0.52,1.272 -0.432,0.18133 -0.97067,-0.028 -1.31067,-0.508 -2.08133,-2.93733 -5.86933,-7.21067 -7.49733,-7.21067 -0.0213,0 -0.044,0 -0.064,0.003 -1.81467,0.13467 -8.06533,5.89067 -11.924,9.93467 -0.16133,0.16933 -0.376,0.256 -0.604,0.256"
       style="fill:#d9a14b;fill-opacity:1;fill-rule:nonzero;stroke:none;stroke-width:1.33333"
       id="path283526" />
    <path
       d="m 331.78079,356.72613 c -0.108,0 -0.20266,0.0587 -0.25333,0.15867 -1.11733,2.17733 -3.89467,11.40667 -5.08133,19.94933 -1.16667,8.39734 0.11866,20.00267 0.17333,20.49334 0.0187,0.16133 0.11733,0.31466 0.25067,0.39066 0.13066,0.0733 0.28266,0.0587 0.37466,-0.0373 2.62534,-2.752 9.94933,-9.93067 12.28267,-10.104 l 0.108,-0.004 c 2.27466,0 6.65733,5.48 8.15333,7.592 0.11333,0.16 0.29333,0.228 0.436,0.17067 0.14533,-0.0613 0.216,-0.236 0.17467,-0.42534 -4.72267,-21.44933 -15.82133,-37.32666 -16.29067,-37.992 -0.08,-0.11333 -0.196,-0.18533 -0.31066,-0.19066 -0.005,-0.001 -0.012,-0.001 -0.0173,-0.001 m -4.472,42.70267 c -0.28666,0 -0.58533,-0.0827 -0.86533,-0.24 -0.67067,-0.38 -1.16133,-1.14533 -1.252,-1.95333 -0.056,-0.49867 -1.36667,-12.33334 -0.16933,-20.952 1.20933,-8.70534 4.072,-18.17467 5.22933,-20.42934 0.26933,-0.52666 0.76933,-0.82533 1.34933,-0.78933 0.576,0.0333 1.15734,0.38933 1.556,0.95467 0.48133,0.68 11.82133,16.90533 16.63733,38.77333 0.208,0.94667 -0.148,1.81867 -0.868,2.11867 -0.71866,0.30133 -1.616,-0.0453 -2.184,-0.84534 -2.488,-3.51066 -5.812,-6.83066 -6.84133,-6.83066 -1.46667,0.108 -7.168,5.13733 -11.584,9.76666 -0.264,0.27467 -0.62133,0.42667 -1.008,0.42667"
       style="fill:#000000;fill-opacity:1;fill-rule:nonzero;stroke:none;stroke-width:1.33333"
       id="path283530" />
    <path
       d="m 332.15853,359.4808 c -1.26667,3.492 -3.332,11.02 -4.288,17.904 -0.80267,5.77467 -0.388,13.32933 -0.072,17.30933 3.032,-3.04666 8.87199,-8.592 11.37599,-8.77733 2.00934,-0.152 4.68267,2.31333 6.732,4.64 -4.06666,-15.004 -11.05733,-26.85467 -13.74799,-31.076"
       style="fill:#999999;fill-opacity:1;fill-rule:nonzero;stroke:none;stroke-width:1.33333"
       id="path283534" />
    <path
       d="m 346.05372,382.88827 c 0,0 5.57067,-0.876 5.992,-1.75334 0.42267,-0.876 -0.45333,-4.41733 -1.29733,-6.608 -0.84267,-2.192 -1.86133,-5.00533 -3.992,-5.55333 -2.13067,-0.54667 -7.17333,-0.876 -7.17333,-0.876 l 0.90666,2.08133 c 0,0 6.06934,0.0227 6.96134,0.65734 1.04266,0.74133 1.85866,2.07066 2.36133,3.944 0.48267,1.79866 1.53867,4.492 1.412,5.14933 -0.128,0.65733 -6.09867,1.20533 -6.09867,1.20533 z"
       style="fill:#000000;fill-opacity:1;fill-rule:nonzero;stroke:none;stroke-width:1.33333"
       id="path283538" />
    <path
       d="m 343.18746,376.3148 c 0,0 4.008,0.21867 4.852,0.21867 0.844,0 -0.0413,-1.972 -0.716,-1.972 -0.67467,0 -5.02134,-0.21867 -5.02134,-0.21867 l -0.168,-0.876 c 0,0 4.872,0.31867 5.548,0.328 0.67734,0.009 1.34934,2.19067 1.39067,2.84933 0.0427,0.65734 -1.392,0.65734 -2.152,0.65734 -0.75867,0 -3.48,-0.11067 -3.48,-0.11067 z"
       style="fill:#000000;fill-opacity:1;fill-rule:nonzero;stroke:none;stroke-width:1.33333"
       id="path283542" />
    <path
       d="m 325.53306,382.88827 c 0,0 -6.484,-0.876 -7.27733,-1.75334 -0.79334,-0.876 -1.028,-4.44933 -0.91067,-6.64 0.116,-2.192 0.5,-4.848 2.652,-5.396 2.152,-0.548 7.18667,-1.00133 7.18667,-1.00133 l -0.228,2.08133 c 0,0 -6.848,-0.15466 -7.452,0.65734 -0.47734,0.64266 -1.09867,2.54 -1.192,4.29333 -0.0933,1.75333 0.02,4.14267 0.404,4.8 0.38533,0.65733 7.19066,1.20533 7.19066,1.20533 z"
       style="fill:#000000;fill-opacity:1;fill-rule:nonzero;stroke:none;stroke-width:1.33333"
       id="path283546" />
    <path
       d="m 326.25613,376.3148 c 0,0 -4.35067,0.21867 -5.28267,0.21867 -0.93333,0 -0.688,-1.972 0.0573,-1.972 0.74667,0 5.47067,-0.21867 5.47067,-0.21867 l -0.14,-0.876 c 0,0 -5.268,0.31867 -6.012,0.328 -0.74533,0.009 -0.67733,2.19067 -0.47867,2.84933 0.19867,0.65734 1.784,0.65734 2.624,0.65734 0.84,0 3.808,-0.11067 3.808,-0.11067 z"
       style="fill:#000000;fill-opacity:1;fill-rule:nonzero;stroke:none;stroke-width:1.33333"
       id="path283550" />
    <path
       d="m 292.02293,332.30734 c -0.48934,-10.49467 -1.52534,-20.25867 -1.83067,-31.00134 -0.3,-6.43333 -0.71467,-12.96266 -1.62533,-19.44133 0.94266,-4.63067 2.19333,-9.22667 3.44133,-13.792 -0.54667,-3.336 -1.21333,-6.66267 -1.91467,-9.98933 5.38,15.95866 5.736,32.688 7.93467,49.05333 1.16133,9.024 1.34267,17.27067 1.09733,26.04 -2.72666,-0.33733 -5.112,-0.632 -7.10266,-0.86933 m -4.528,-0.216 c -0.80534,-5.18934 -1.23334,-9.84134 -1.67067,-15.088 -0.54267,-6.71867 -0.428,-13.48134 0.37733,-20.24934 0.37734,12.27067 1.924,23.45467 4.86534,35.43867 -1.94534,-0.232 -3.00667,-0.032 -3.572,-0.10133 m 71.66799,15.43199 c 0,0 -3.80266,-20.51333 -4.28266,-24.32133 -2.36667,-17.20133 -5.964,-32.30666 -8.69334,-49.77066 -0.36133,-0.37067 -0.74266,-0.756 -1.14533,-1.15867 0.884,9.14933 3.75733,24.2 4.98533,33.11867 1.92667,13.98266 3.11467,25.736 5.51467,36.33333 -0.052,-0.232 -5.34,-1.49467 -5.34,-1.49467 -2.572,-22.04933 -4.496,-50.928 -9.69733,-70.696 -0.77067,-0.73466 -3.02134,-1.50133 -3.58267,-2.50133 1.69067,3.01333 4.45467,14.87467 4.97733,18.71867 2.49867,18.37466 4.43734,35.72133 5.84667,53.80933 -2.04,-0.292 -3.40533,-0.8 -5.672,-1.14934 0.52267,-23.53999 -1.74533,-53.29866 -10.1,-73.81466 -0.67066,-0.53467 -1.34666,-1.05867 -2.028,-1.572 1.37734,4.988 3.55867,13.55867 4.28133,18.716 2.404,19.47067 5.14,36.80933 6.27734,56.49733 -2.292,-0.304 -4.67867,-0.444 -7.27467,-0.77867 2.92,-23.76533 1.31467,-55.29066 -10.15466,-77.95466 -0.64667,-0.404 -1.30134,-0.80667 -1.97334,-1.20667 2.04134,5.45467 3.55334,11.08134 4.72134,16.74 3.85733,21.03467 5.812,40.97734 6.644,62.32267 -2.39734,-0.30934 -5.648,-0.724 -8.16534,-1.044 3.25734,-25.46667 2.36267,-58.036 -10.70133,-82.188 -0.78133,-0.41067 -1.568,-0.81867 -2.35733,-1.224 2.204,5.09733 3.95333,10.37333 5.328,15.716 5.43066,22.588 6.48533,44.57067 6.98666,67.60266 -2.46666,-0.312 -4.95733,-0.62533 -7.416,-0.93333 1.70667,-11.788 1.04,-23.79866 0.64134,-36.25866 -0.86,-17.692 -3.58534,-33.99867 -12.068,-49.41734 -0.972,-0.48266 -1.93734,-0.96133 -2.892,-1.436 0.25066,0.53734 0.50933,1.06934 0.74933,1.612 8.77867,20.12534 9.07733,40.82 11.81467,62.66667 0.924,7.81333 1.03733,15.096 1.028,22.74133 -2.532,-0.316 -5.02134,-0.62667 -7.41334,-0.92267 1.23734,-8.09999 1.71867,-15.98399 1.124,-24.53733 -1.68266,-22.35733 -2.3,-44.80266 -13.17733,-64.512 -1.18667,-0.608 -2.336,-1.20666 -3.43467,-1.796 1.94534,3.96934 3.65867,8.04134 5.10667,12.196 6.192,17.64934 6.18533,35.43067 8.59733,54.17867 1.036,8.41467 1.19334,16.176 1.068,24.38133 -2.64666,-0.328 -5.16,-0.64 -7.45866,-0.92266 1.36666,-8.64534 1.82933,-17.02267 1.11066,-26.20134 -1.82933,-22.444 -3.516,-46.71066 -15.228,-66.89333 -0.14,-0.50133 -0.27466,-1.00267 -0.41066,-1.50533 -2.14,-1.172 -3.924,-2.312 -5.19734,-3.42267 -0.14133,-0.12267 -0.272,-0.208 -0.40666,-0.30267 1.92533,3.316 3.696,6.71867 5.28133,10.20534 1.71467,7.60666 3.11733,15.232 4.30933,22.8 -0.72,2.18533 -1.37466,4.38266 -1.98266,6.588 l -1.66534,6.64266 c -2.69466,11.844 -4.24,23.85467 -3.412,35.71067 0.40934,6.34667 1.24134,12.73467 2.23334,19.10533 0,0 28.8,2.90133 44.36266,4.47067 15.56267,1.56933 30.34133,7.06266 30.34133,7.06266"
       style="opacity:0.199997;fill:#000000;fill-opacity:1;fill-rule:nonzero;stroke:none;stroke-width:1.33333"
       id="path283560" />
    <path
       d="m 369.32599,346.07733 c -0.50533,-2.544 -0.888,-5.94 -1.26,-9.48 2.36267,3.49067 5.74667,9.37334 6.92,16.032 -2.396,-1.07066 -4.96,-3.03466 -5.66,-6.552 m 10.47867,7.816 c 0,0 -0.684,-0.0467 -1.692,-0.25733 -0.404,-3.28533 -2.24134,-13.06 -10.66667,-22.848 -1.296,-4.04533 -2.68,-9.008 -3.348,-11.38 2.668,2.87867 9.13733,10.372 12.588,17.492 0,0 -3.392,-13.104 -12.948,-23.02533 -0.30533,-1.804 -0.53333,-3.78667 -0.664,-5.768 2.28267,1.84933 7.26933,6.224 10.084,11.34667 0,0 -2.37467,-9.77867 -10.144,-17.16534 -2.128,-4.32133 -5.95467,-13.38266 -5.02667,-14.04133 l -2.04533,-3.58 c 0,0 0.99733,12.34933 5.36533,36.44533 3.39334,10.92534 4.88934,26.86 5.73067,29.27733 0.82533,2.372 9.67867,8.348 12.79067,8.39467 z"
       style="opacity:0.199997;fill:#000000;fill-opacity:1;fill-rule:nonzero;stroke:none;stroke-width:1.33333"
       id="path283576" />
    <path
       d="m 371.32146,366.88627 c -3,-6.6 -6.70267,-16.228 -8.124,-23.31067 -1.616,-8.052 -2.90134,-17.53066 -4.07067,-25.67333 -1.67467,-11.66667 -5.39467,-34.14933 -5.844,-35.172 -0.94533,-2.14667 -1.79867,-3.12533 -3.48533,-4.75467 1.748,11.63467 3.65066,23.25867 5.88533,34.812 1.26267,6.528 1.456,13.372 2.35333,19.99067 1.07867,7.948 2.82267,15.732 4.66134,23.51333 2.072,8.768 13.67066,35.27733 15.94666,43.67467 h 5.984 c -1.748,-8.07734 -7.708,-20.76267 -13.30666,-33.08"
       style="fill:#000000;fill-opacity:1;fill-rule:nonzero;stroke:none;stroke-width:1.33333"
       id="path283586" />
  </g>
</svg>
