<?xml version="1.0" encoding="UTF-8" standalone="no"?>
<svg
   width="100%"
   height="100%"
   viewBox="0 0 400 400"
   version="1.1"
   xml:space="preserve"
   style="fill-rule:evenodd;clip-rule:evenodd;stroke-linejoin:round;stroke-miterlimit:2;"
   id="svg12"
   sodipodi:docname="DominionWarCetaceanUniform.svg"
   inkscape:version="1.3.2 (091e20e, 2023-11-25)"
   xmlns:inkscape="http://www.inkscape.org/namespaces/inkscape"
   xmlns:sodipodi="http://sodipodi.sourceforge.net/DTD/sodipodi-0.dtd"
   xmlns="http://www.w3.org/2000/svg"
   xmlns:svg="http://www.w3.org/2000/svg"><defs
   id="defs12">
        
    
            
            
            
            
            
            
            
            
            
            
        
                
            
                
            
                
            
                
            
                
            
                
            
                
            
                
            
                
            
                
            
                    
                </defs><sodipodi:namedview
   id="namedview12"
   pagecolor="#ffffff"
   bordercolor="#666666"
   borderopacity="1.0"
   inkscape:showpageshadow="2"
   inkscape:pageopacity="0.0"
   inkscape:pagecheckerboard="0"
   inkscape:deskcolor="#d1d1d1"
   inkscape:zoom="2.2825"
   inkscape:cx="200"
   inkscape:cy="200"
   inkscape:window-width="2008"
   inkscape:window-height="1126"
   inkscape:window-x="2354"
   inkscape:window-y="57"
   inkscape:window-maximized="0"
   inkscape:current-layer="layer2"
   showguides="true"
   showgrid="false" />
    
<g
   inkscape:groupmode="layer"
   id="layer2"
   inkscape:label="Uniform"><path
     id="path1"
     style="clip-rule:evenodd;fill:#7d7d7d;fill-opacity:1;fill-rule:nonzero;stroke-width:1.33333;stroke-linejoin:round;stroke-miterlimit:2"
     d="m 30.201277,345.65039 c -1.01993,5.21047 -0.95482,6.84268 -0.95482,6.84268 6.596958,2.47292 24.392833,7.91643 44.952762,12.75107 l 14.080078,31.12891 29.171873,-21.89258 c 37.4012,7.2453 78.46421,13.33008 105.41211,13.33008 55.77315,0 112.27734,-8.78516 112.27734,-8.78516 l 16.91211,18.40625 2.9375,-23.29297 2.95087,-0.52088 c -0.15489,-3.42025 -0.41275,-8.8927 -0.44786,-14.41691 -0.14903,-23.44858 0.52368,-59.47571 0.69035,-69.16768 -3.06118,1.07369 -13.33407,14.87224 -20.88671,19.33985 -17.97295,10.63149 -61.90777,20.14453 -65.36915,20.14453 -33.30855,10e-6 -29.22414,-1.1143 -31.96679,-1.1543 C 209.82237,327.92461 169.79184,309.78308 124,297.3418 87.373464,287.38983 51.094822,259.32437 47.471455,258.45851 46.17155,261.00038 35.055927,313.7105 30.201277,345.65039 Z"
     sodipodi:nodetypes="cccccsccccscsscccc" /><path
     d="m 117.73517,374.26706 c 37.68391,7.37865 78.60647,13.54263 105.12774,13.54263 55.77319,0 115.11171,-7.80531 115.11171,-7.80531 l 14.0773,17.42662 2.30537,-23.24551 4.06128,-1.07709 c 0.396,11.5813 -0.13867,21.06528 0.172,26.90526 H 23.019 l 5.809294,-47.53898 c 7.530647,2.85999 25.279035,7.70575 45.201652,12.39774 l 14.250631,31.50125 z"
     style="clip-rule:evenodd;fill:#2d2d2d;fill-opacity:1;fill-rule:nonzero;stroke-width:1.33333;stroke-linejoin:round;stroke-miterlimit:2"
     id="path2"
     sodipodi:nodetypes="cscccccccccc" /><path
     d="m 214.33101,325.95561 c -29.03879,-5.44058 -45.02995,-9.91658 -90.54905,-26.20275 -32.578269,-11.6561 -73.923115,-39.8897 -75.96475,-42.93887 l 1.347997,0.516 c 1.134664,0.432 114.273043,43.26656 191.254193,44.37589 2.64399,0.0387 5.23598,0.056 7.79064,0.056 13.91223,0 26.46816,-0.5568 37.60617,-1.43055 0.88534,-0.0694 1.70696,1.22821 2.57435,1.15487 0.92061,-0.0778 1.88586,-1.52691 2.78618,-1.60884 16.33974,-1.487 29.33165,-3.62491 38.75443,-5.5528 17.96929,-3.67599 27.1906,-7.39865 27.2826,-7.43598 l 1.92666,-0.78666 -0.108,2.09199 c -0.003,0.0507 -0.74567,1.36699 -0.75772,1.6964 l -0.0333,0.91067 -0.85333,0.3 c -6.26049,4.74143 -19.35644,17.17194 -37.16824,26.85693 -3.55185,1.93128 -16.06274,7.52098 -16.62811,9.31952 -5.45618,17.35688 -12.7909,42.78693 -13.05851,42.22908 l -19.18246,-39.98729 c -33.38861,10e-6 -53.3963,-2.88474 -57.01975,-3.56361 z"
     style="clip-rule:evenodd;fill:#d30000;fill-rule:nonzero;stroke-width:1.33333;stroke-linejoin:round;stroke-miterlimit:2"
     id="path4"
     sodipodi:nodetypes="sscccssssccccsccssscs" /><path
     id="path6"
     style="clip-rule:evenodd;fill:#000000;fill-opacity:1;fill-rule:nonzero;stroke-width:1.33333;stroke-linejoin:round;stroke-miterlimit:2"
     d="m 47.691406,254.84375 c -0.366326,-0.0548 -0.735257,0.005 -1.169922,0.30273 -0.670658,0.46 -0.761225,1.57633 -0.949218,2.32032 -11.470561,45.44754 -18.777097,86.8625 -24.234375,138.27929 -0.122666,1.15599 -0.346913,2.29599 -0.517579,3.44532 -0.06,0.40134 -0.119687,0.41898 -0.179687,0.82031 h 2.675781 c 0,0 2.890642,-20.35458 6.835938,-45.57031 4.698619,1.3786 13.412258,4.33943 41,10.96875 l 16.25,33.1582 30.744136,-21.51953 c 31.14571,6.02151 75.53781,12.23016 103.27735,12.1914 l 14.49609,-0.23437 c 44.72146,-0.92049 77.46929,-2.91238 99.80078,-8.03516 l 17.00586,18.23438 2.78125,-23.40235 1.79883,-0.48242 c 0.232,13.39857 0.0153,20.93142 0.97656,24.69141 h 2.67383 c -4.09459,-16.38782 -0.60751,-114.88128 -0.60351,-114.97461 -0.0773,2.19066 -22.13257,6.53075 -23.8379,6.91601 -15.0352,3.39557 -30.33897,5.59128 -45.71289,6.92579 -0.73248,0.0636 -1.57579,1.49302 -2.30859,1.55273 -1.03685,0.0845 -1.96462,-1.20387 -3.00195,-1.12695 -7.11334,0.52744 -14.2361,0.88 -21.34961,1.08984 -68.706,2.02799 -137.7468,-17.0278 -201.880861,-40.1582 -2.187981,-0.78933 -4.360854,-1.65313 -6.548828,-2.45313 -1.683989,-0.61733 -3.366273,-1.23792 -5.044922,-1.86718 -0.609332,-0.228 -1.21818,-0.45879 -1.826172,-0.68946 -0.421332,-0.15933 -0.784059,-0.32798 -1.150391,-0.38281 z m 0.697266,4.90039 c 3.511002,2.36436 13.881355,9.04043 27.472656,17.14258 14.748608,8.79205 32.191332,18.58311 45.349612,24.16601 31.67924,13.44115 65.44887,22.17515 99.35742,27.70118 16.781,2.73476 48.89749,2.64051 50.54102,2.63476 l 19.67578,42.16602 13.64062,-46.08985 c 1.08012,-0.48856 22.17029,-10.04334 32.44336,-16.9082 7.30606,-4.88219 17.99024,-15.25835 20.67188,-17.88086 -0.19771,4.59109 -0.34208,7.82539 -0.5254,12.64649 -0.40049,10.53378 -1.15685,36.80946 -0.5625,58.75781 0.0743,2.74319 0.44263,5.48677 0.48047,8.24023 -2.13593,0.84133 -3.00586,0.99024 -3.00586,0.99024 l -2.8457,20.57617 -14.79883,-15.93555 c -0.74133,0.16934 -1.47683,0.32699 -2.1875,0.45899 -22.17255,4.83446 -55.0853,6.7516 -97.77734,7.65429 l -15.04297,0.25391 c -31.04956,0.1128 -70.02826,-6.0721 -104.80078,-13.32031 L 88.939453,393.07812 74.154297,363.31055 c -22.28379,-5.53066 -38.73188,-10.2566 -43.5625,-11.66993 0.345647,-2.30294 0.727128,-4.59955 1.09375,-6.89843 4.037534,-25.31704 8.760245,-53.28426 12.787109,-69.67578 0.983871,-4.0049 2.416287,-9.84676 3.916016,-15.32227 z m 8.101562,1.67188 c 26.083916,9.40442 117.495196,40.66424 183.910156,41.62109 3.43684,0.0495 22.40785,0.25209 45.6582,-1.44727 0.79453,-0.0581 1.59437,1.35948 2.39844,1.29688 0.92082,-0.0717 1.84723,-1.62529 2.7793,-1.70313 34.32955,-2.86712 55.10783,-8.35514 66.47461,-12.56836 -6.27816,5.68241 -14.83854,13.92615 -22.50977,19.44727 -9.99163,6.67679 -32.64258,16.9668 -32.64258,16.9668 l -0.625,0.2832 -11.77734,39.79883 -17.13281,-36.71289 -0.95899,0.004 c 0,0 -34.4515,0.0894 -51.01172,-2.60937 -33.72529,-5.49626 -67.26632,-14.17777 -98.66992,-27.50195 -12.8731,-5.46193 -30.2888,-15.22004 -44.984372,-23.98047 -8.671746,-5.16947 -15.577077,-9.49377 -20.908204,-12.89453 z"
     sodipodi:nodetypes="sccscccccccccccccccccssscccccscssscccscsscccccccccccssccsssccsccccccsscc" /><path
     id="path10"
     style="clip-rule:evenodd;display:inline;opacity:0.2;fill:#000000;fill-opacity:1;fill-rule:nonzero;stroke-width:1.33333;stroke-linejoin:round;stroke-miterlimit:2"
     d="m 203.80078,371.56055 c 5.20957,-12.70035 11.5749,-24.00715 13.2832,-27.03907 2.74,-4.86529 7.25272,-12.01183 10.23669,-16.73182 0.3195,-0.50527 -29.90419,-5.60651 -29.6506,-6.01203 0.22477,-0.35942 29.66345,3.24806 30.50495,2.57577 0.88001,-0.70305 3.93995,-2.24879 5.91678,-6.81629 1.60922,-3.71813 0.88023,-11.125 0.8789,-11.125 -11.50661,-1.088 -22.98664,-2.47989 -34.41992,-4.17188 -20.94655,-3.09863 -42.21318,-7.2026 -62.78906,-12.91992 -10.50795,-2.91996 -20.89895,-6.26901 -31.10156,-10.125 -9.882624,-3.73329 -19.089398,-9.30501 -29.138676,-12.48633 -9.38128,-2.9693 -18.763868,-5.93887 -28.146484,-8.9082 -0.476498,-0.15066 -0.889501,-0.1964 -1.25,-0.1543 -2.523485,0.29475 -2.433476,4.84608 -2.931641,7.11524 -0.989328,4.51329 -1.957015,9.03144 -2.902343,13.55273 -2.541321,12.15461 -4.964537,24.33865 -7.00586,36.58789 -3.629312,21.77189 -11.615068,73.50205 -13.40039,85.11133 H 195.50586 c 0.0453,0 0.76108,-4.42982 0.84375,-4.84179 1.23735,-8.30753 4.25713,-15.93248 7.45117,-23.61133 z"
     sodipodi:nodetypes="cccsssccccccscsccscc" /><path
     id="path172022"
     style="fill:#d9a14b;fill-opacity:1;fill-rule:nonzero;stroke:none;stroke-width:1.13958"
     d="M 316.12891 396.63477 C 314.22092 396.63462 312.18578 396.65911 311.67773 396.75391 C 310.70359 396.93437 309.79416 398.15526 309.47656 400 L 318.96875 400 L 319.81641 396.66016 C 319.81641 396.66016 318.03689 396.63492 316.12891 396.63477 z M 329.77539 396.63477 C 328.04951 396.63461 326.44141 396.6582 326.44141 396.6582 L 327.69922 400 L 336.28711 400 C 335.72925 398.1555 334.72533 396.93435 333.81836 396.75391 C 333.34479 396.65912 331.50127 396.63492 329.77539 396.63477 z " /><path
     id="path172026"
     style="fill:#d9a14b;fill-opacity:1;fill-rule:nonzero;stroke:none;stroke-width:1.13958"
     d="M 322.55078 385.20117 C 322.26032 385.18509 321.98924 385.3351 321.82422 385.60742 C 320.82986 387.26203 318.31986 393.52438 316.53711 400 L 329.66211 400 C 326.7174 391.49266 323.50955 386.05229 323.29492 385.69336 C 323.11973 385.40037 322.84238 385.21837 322.55078 385.20117 z " /><path
     id="path172030"
     style="fill:#000000;fill-opacity:1;fill-rule:nonzero;stroke:none;stroke-width:1.13958"
     d="M 322.35547 384.48438 C 321.93878 384.51935 321.56549 384.7689 321.32617 385.16602 C 320.52279 386.50166 318.75638 390.79138 317.1582 395.76953 C 316.01438 395.88255 313.03496 396.19778 311.5293 396.57812 C 310.05395 396.95082 309.40677 398.45425 309.05859 400 L 310.03906 400 C 310.3302 399.14176 310.68755 398.40888 310.96484 398.07422 C 311.40054 397.54941 314.76778 397.49531 316.42383 397.5 C 316.53682 397.50032 316.51575 397.50082 316.61133 397.50195 C 316.36242 398.32641 316.12628 399.16197 315.89844 400 L 317.18945 400 C 318.94602 393.68912 321.35927 387.65461 322.32227 386.05273 C 322.37427 385.96653 322.45923 385.91602 322.55078 385.91602 C 322.55478 385.91602 322.56221 385.91516 322.56641 385.91602 C 322.66251 385.92002 322.75375 385.98243 322.8125 386.08008 C 323.0223 386.43133 326.13698 391.71885 329.02734 400 L 330.29102 400 C 329.99831 399.1445 329.70396 398.30911 329.4082 397.51758 C 330.68753 397.53748 334.08358 397.62791 334.6582 398.07422 C 335.20134 398.4965 335.63344 399.14603 335.94531 400 L 336.77344 400 C 336.2855 398.42117 335.60868 396.84069 334.22266 396.46875 C 332.78587 396.08436 329.81397 395.83649 328.72461 395.75391 C 326.24511 389.49489 323.95806 385.60888 323.77734 385.30664 C 323.48574 384.81946 323.02311 384.51307 322.53711 384.48438 C 322.47608 384.4805 322.415 384.47938 322.35547 384.48438 z " /><path
     id="path172034"
     style="fill:#999999;fill-opacity:1;fill-rule:nonzero;stroke:none;stroke-width:1.13958"
     d="M 322.64062 388.28906 C 321.55801 390.6752 319.84446 395.25092 318.48828 400 L 327.73242 400 C 325.76581 394.47121 323.72635 390.33741 322.64062 388.28906 z " /><path
     id="path9"
     style="color:#000000;clip-rule:nonzero;opacity:0.2;fill:#000000;fill-rule:nonzero;stroke-linejoin:miter;-inkscape-stroke:none"
     d="m 45.382812,264.02148 -1.388671,2.07813 c 0,0 2.505827,1.65771 5.546875,3.64453 -0.200044,0.82626 -6.485694,26.79922 -9.09375,40.30078 -2.353042,12.1814 -5.698553,35.14987 -5.970704,37.02149 -2.150129,-0.60222 -5.289062,-1.47852 -5.289062,-1.47852 l -0.544922,1.92383 c 0,0 16.015595,4.53377 24.125,6.58008 8.015483,2.02257 23.449534,5.44863 24.076172,5.58789 l 13.037109,28.32617 26.035161,-21.09766 c 0.8317,0.19567 32.35611,7.60706 49.55468,9.98633 22.51323,3.11451 46.62177,4.91221 69.34375,5.26563 17.62991,0.27422 52.89844,-1.7461 52.89844,-1.7461 l 2.51758,4.81446 2.30078,-0.16407 2.06445,-5.08593 c 0,0 15.13764,-1.49228 22.4961,-2.51368 6.63596,-0.9211 18.44908,-4.10665 19.46289,-4.38086 l 12.30078,14.42188 1.28711,1.65625 3.00195,-20.35352 4.18359,-1.14062 -0.52734,-1.92969 -2.05123,0.78455 c 0.0492,-2.85324 -0.19531,-17.89996 -0.63853,-25.31354 -0.64763,-10.83242 -3.08001,-33.93247 -3.13055,-34.74054 4.05231,-3.85507 7.41211,-7.23242 7.41211,-7.23242 l -0.23047,-2.9961 c 0,0 -15.49917,15.31818 -23.28516,20.81055 -8.0349,5.668 -26.53515,14.34766 -26.53515,14.34766 l -0.48438,0.22656 -16.74219,49.80664 -23.08398,-45.74805 -0.74219,-0.0215 c 0,0 -34.96812,-1.08233 -48.27029,-2.95897 -13.30217,-1.87664 -15.89456,-2.27 -18.11833,-2.7129 -1.30621,-0.26015 -2.60696,-0.55789 -19.33496,-4.10638 -16.72801,-3.54849 -46.87898,-13.2578 -75.46973,-26.0401 -21.259546,-9.50469 -60.712887,-35.82227 -60.712888,-35.82227 z m 5.521485,6.61133 c 2.193261,1.42456 5.546134,3.52339 8.484375,5.39063 -0.559993,2.38769 -5.779703,24.6815 -7.890625,36.94726 -2.124963,12.34738 -4.784883,36.61319 -4.871094,37.40039 -4.199677,-1.1279 -7.164977,-1.91312 -10.662109,-2.88867 0.218516,-1.18178 4.512925,-24.41074 6.884765,-36.68945 2.545496,-13.17769 7.706322,-38.45468 8.054688,-40.16016 z m 9.878906,6.27735 c 3.926311,2.48464 7.657822,4.83062 12.238281,7.60937 -0.477128,1.96612 -5.382715,22.20424 -7.501953,33.51563 -2.128006,11.35817 -5.211159,35.04116 -5.304687,35.75976 -2.412087,-0.56909 -5.115312,-1.17735 -6.958985,-1.64258 -1.377358,-0.34755 -3.431911,-0.9272 -5.158203,-1.38672 0.06645,-0.47161 3.525645,-25.01595 5.654297,-37.38476 2.056624,-11.95027 6.376904,-33.24946 7.03125,-36.4707 z m 13.671875,8.48632 c 3.461405,2.08794 6.960113,4.15002 10.466797,6.16016 -0.380502,1.37025 -6.072616,21.90317 -8.013672,33.2168 -1.701781,9.91898 -3.180451,30.87045 -3.269531,32.13867 -3.157643,-0.70789 -6.903321,-1.5845 -12.460938,-2.88867 0.273709,-1.26695 4.963043,-22.98757 7.056641,-34.16211 2.108388,-11.25348 5.830142,-32.26195 6.220703,-34.46485 z m 11.871094,6.98243 c 3.00823,1.70958 5.939854,3.30527 8.787109,4.81054 -0.210614,1.09641 -6.102276,24.23665 -8.23122,37.10637 -1.543686,9.33175 -3.375086,32.4794 -3.647686,34.48543 l -4.986328,-10.83203 -0.484375,-0.10742 c 0,0 -2.27895,-0.51618 -3.080078,-0.69532 0.132317,-0.88526 3.094847,-20.69542 4.789062,-30.57031 1.888876,-11.00948 6.398579,-32.07568 6.853516,-34.19726 z m 10.203125,5.5664 c 2.501832,1.30205 4.821923,2.41842 7.056643,3.45313 -0.17996,0.79944 -5.971666,25.45233 -8.187654,40.18945 -1.771101,11.77848 -4.916693,41.81687 -5.011567,42.72852 L 84.271484,371.0332 c 0.317976,-1.77555 3.623491,-26.32875 5.176831,-35.71889 2.114435,-12.78201 6.842053,-35.87617 7.080982,-37.369 z m 8.466793,4.14258 c 0.0246,0.011 0.0555,0.0281 0.0801,0.0391 3.33897,1.49278 5.15774,2.30819 8.53697,3.7183 l -0.95703,-0.1914 c 0,0 -4.48686,24.42447 -6.14033,35.78711 -1.52374,10.47109 -3.58659,32.32733 -3.6232,33.08052 l -10.990236,9.27149 c 0.146304,-1.06075 4.925867,-30.14072 6.683139,-41.82723 2.180217,-14.49925 6.121777,-38.36504 6.410607,-39.87785 z m 9.11119,3.9683 c 2.30776,0.9597 6.18473,2.49164 8.50991,3.41256 -0.16947,0.84822 -4.7692,23.89016 -5.94727,34.36914 -0.76712,6.82359 -1.18113,18.63778 -1.25781,20.90234 l -10.85938,8.43555 c 0.27938,-2.94099 3.74013,-21.04376 5.15159,-30.74338 1.63175,-11.21334 4.36661,-36.18114 4.40296,-36.37621 z m 235.88686,1.34225 c 0.0759,2.4112 1.09931,23.8893 1.72385,34.33564 0.46381,7.75788 1.95265,23.72825 1.98859,25.07391 l -2.36088,0.41857 -2.11328,15.14258 c -0.2712,-5.20835 -1.38328,-26.49198 -2.10547,-37.83398 -0.65896,-10.34913 -3.54065,-29.24443 -3.81836,-31.05274 2.28209,-1.98471 4.57364,-4.09726 6.68555,-6.08398 z m -225.94336,2.63867 c 2.21434,0.86811 4.43117,1.72773 6.66016,2.56055 -0.0273,0.14637 -3.60448,21.65237 -4.52254,32.17142 -0.58643,6.71913 -1.22056,20.33967 -1.20012,22.11959 -2.86799,-0.65245 -7.6621,-1.7107 -8.05469,-1.80273 0.12238,-1.87775 1.70096,-13.81183 2.4659,-20.61599 1.1483,-10.21425 4.41502,-33.11335 4.65129,-34.43284 z m 8.0957,3.08398 c 3.11087,1.15017 6.22833,2.28413 9.36524,3.36524 -0.0178,0.13099 -2.84165,20.8917 -3.50391,29.05078 -0.64506,7.94699 -0.72979,22.43805 -0.73828,24.04687 -5.47385,-1.16043 -6.95497,-1.49457 -10.75781,-2.35351 0.026,-1.27283 1.82584,-15.17035 2.41016,-21.86524 0.89213,-10.22199 3.12795,-31.66661 3.2246,-32.24414 z m 210.1875,1.1836 c 0.18826,2.16501 1.76027,20.28771 2.5586,31.11523 0.86395,11.71742 2.98551,34.63722 3.32031,38.25 l -9.03906,-10.59765 c -0.0529,-0.96672 -1.01938,-18.62297 -1.48047,-26.83399 -0.4937,-8.79168 -2.5085,-24.67057 -2.71289,-26.26953 0.43687,-0.29016 0.93937,-0.59388 1.33789,-0.875 1.80351,-1.27223 3.88604,-2.96798 6.01562,-4.78906 z m -199.36523,2.66797 c 3.1674,1.07949 6.33821,2.14563 9.5293,3.15429 -0.16883,1.33837 -2.21883,17.63805 -2.7168,26.38086 -0.48217,8.4654 -0.27765,24.38167 -0.26172,25.58789 -3.61765,-0.70429 -7.18562,-1.45416 -10.72851,-2.19922 0.0565,-1.10897 0.99672,-16.32165 1.63927,-24.23767 0.64057,-7.89193 2.48617,-28.16032 2.53846,-28.68615 z m 11.0625,3.61718 c 2.8102,0.87731 5.62668,1.73459 8.45313,2.55664 -0.28331,3.00685 -1.55888,16.67036 -1.90626,24.94336 -0.32502,7.74078 -0.26092,24.67278 -0.25585,25.96875 -2.93181,-0.48705 -6.01545,-1.03231 -9.26954,-1.65625 0.0395,-0.57558 1.13335,-16.47181 1.6211,-25.03515 0.49362,-8.66652 1.28923,-25.35042 1.35742,-26.77735 z m 179.95508,0.0293 c 0.12128,1.81009 1.13755,16.99537 1.625,25.67578 0.42666,7.59787 2.01201,22.10346 2.37305,25.38281 l -0.72266,-0.84765 -0.61133,0.16601 c 0,0 -3.62565,0.96938 -8.00781,2.0293 -0.002,-1.13393 -0.0276,-14.2239 -0.43164,-21.24609 -0.50062,-8.70079 -2.26896,-24.37035 -2.4961,-26.37305 2.95024,-1.59984 5.79373,-3.20162 8.27149,-4.78711 z m -169.93555,2.99805 c 3.28659,0.94301 6.58888,1.82743 9.89453,2.69531 -0.21048,1.47149 -2.45947,17.25873 -2.95312,25.89062 -0.44262,7.73947 -0.0528,22.01101 -0.0156,23.34571 -1.73558,-0.22225 -3.51442,-0.39905 -5.23242,-0.63672 -1.13984,-0.15769 -2.49202,-0.39126 -3.75391,-0.5918 0.0162,-0.53815 0.5297,-17.65067 0.86133,-25.54883 0.35194,-8.38149 1.06006,-22.38539 1.19922,-25.15429 z m 160.62891,2.3457 c 0.11071,2.04328 0.95078,17.55482 1.44726,26.18359 0.4057,7.05096 1.42958,20.35302 1.48828,21.11524 -2.40191,0.57217 -4.75223,1.07904 -7.04492,1.52734 -0.093,-1.98889 -0.69386,-14.77285 -1.22461,-21.93554 -0.55583,-7.50118 -2.16512,-21.01195 -2.39062,-22.9004 2.62533,-1.29261 4.40488,-2.21242 7.72461,-3.99023 z m -149.24024,0.75586 c 2.96032,0.76639 5.93298,1.47199 8.90625,2.17773 -0.3609,3.17202 -2.00311,17.75506 -2.40039,26.38086 -0.31347,6.80644 0.0825,20.04509 0.13086,21.625 -3.36195,-0.36049 -6.65816,-0.7976 -9.97265,-1.21484 0.0773,-2.10613 0.58486,-15.88269 1.00586,-23.24414 0.47961,-8.38668 2.14135,-23.96132 2.33007,-25.72461 z m 10.44532,2.55078 c 3.11646,0.72822 6.2409,1.40913 9.36914,2.07031 -0.39111,3.84081 -1.60284,15.9276 -1.91797,23.50391 -0.30238,7.26965 -0.32353,20.65047 -0.32617,23.07227 -3.13886,-0.27615 -6.28621,-0.52604 -9.40235,-0.85157 0.0122,-1.28894 0.14398,-14.80975 0.45508,-21.56445 0.3878,-8.42028 1.54531,-22.81221 1.82227,-26.23047 z m 130.02734,1.19531 c 0.1319,2.45335 0.81073,15.01002 1.35156,22.3086 0.53617,7.23583 2.03317,20.36724 2.24414,22.21289 -0.89862,0.16499 -1.93734,0.39338 -2.6914,0.49805 -1.39776,0.19401 -3.47738,0.40878 -5.26563,0.62304 -0.0157,-0.31939 -0.60681,-12.31468 -1.12305,-18.36328 -0.53834,-6.30781 -1.59046,-15.93029 -2.02734,-19.89258 l 1.49023,-4.42968 c 0.24346,-0.1136 3.64413,-1.7984 6.02149,-2.95704 z m -119.08594,1.21094 c 1.19634,0.2484 2.38816,0.52707 3.58594,0.76563 2.20027,0.43821 4.73555,0.82498 7.30273,1.20312 -0.0946,2.78248 -0.5725,16.76205 -0.79687,25.15235 -0.17977,6.72248 -0.4393,20.14454 -0.43945,20.15234 -4.09332,-0.26593 -8.16296,-0.57287 -12.25,-0.92383 0.1364,-2.29302 0.92573,-15.62387 1.2246,-22.81055 0.30821,-7.40977 1.10427,-19.49834 1.37305,-23.53906 z m 12.41016,2.21875 c 3.53822,0.493 7.31573,0.92908 11.19531,1.32227 -0.11029,2.80568 -0.6753,17.25731 -0.80859,24.72461 -0.12796,7.16767 -0.0136,18.76463 -0.004,19.74609 -4.3114,-0.18356 -8.64155,-0.44753 -12.98437,-0.72852 l 1.34375,0.0254 c 0,0 0.56862,-14.21243 0.74804,-20.92188 0.22155,-8.28501 0.456,-21.25603 0.50977,-24.16797 z m 12.74414,1.46289 c 2.59872,0.25361 5.21319,0.49977 7.82812,0.71289 -0.0811,1.31289 -0.94276,15.36661 -0.98632,24.05664 -0.0309,6.15137 0.47497,18.09377 0.55078,19.86328 -2.73365,-0.0695 -5.46876,-0.14561 -8.23047,-0.25585 0.0341,-0.88663 0.47212,-12.31422 0.59961,-19.45508 0.13517,-7.57252 0.22405,-22.58094 0.23828,-24.92188 z m 9.36914,0.83789 c 2.71332,0.21376 5.36903,0.39889 7.97656,0.57227 -0.0288,1.73476 -0.24277,14.96644 0.0117,22.94922 0.20888,6.55149 1.14822,18.99412 1.25391,20.38672 -1.87469,0.0105 -4.12537,0.0818 -5.7461,0.0566 -1.33792,-0.0208 -2.71737,-0.0961 -4.06445,-0.12696 0.0379,-1.18522 0.43938,-13.81536 0.4707,-20.05273 0.0436,-8.70021 0.0939,-22.74825 0.0977,-23.78516 z m 9.47461,0.67969 c 4.01607,0.259 6.97791,0.3852 10.36133,0.55664 0.0247,0.88441 0.40584,14.51624 0.54687,22.27539 0.10763,5.92194 0.71631,19.39015 0.75391,20.2207 -3.7841,0.10993 -6.99548,0.12908 -10.41016,0.16211 -0.12537,-1.6939 -0.41565,-13.57263 -0.61914,-19.95507 -0.25039,-7.85327 -0.66301,-21.40673 -0.63281,-23.25977 z m 11.88867,0.63867 c 3.9103,0.19147 6.53153,0.33843 8.81055,0.42383 -0.016,1.5509 -0.12823,12.85434 0.1582,19.59766 0.28661,6.74744 1.77393,21.15943 1.86133,22.0039 -3.13731,0.12591 -6.31983,0.23636 -9.54297,0.33594 -0.01,-0.73809 -0.19376,-14.19901 -0.30273,-20.19531 -0.13908,-7.65165 -0.90261,-20.76957 -0.98438,-22.16602 z m 10.35156,0.48242 c 1.04783,0.0365 3.25692,0.12466 3.39844,0.12891 l 4.72266,9.35938 c 0.19538,2.4767 0.99785,12.69872 1.45312,17.5371 0.35807,3.80531 1.61007,12.6203 1.81055,14.02735 -3.60012,0.17989 -4.64831,0.23968 -9.39063,0.43555 -0.0442,-0.67356 -0.97489,-14.88837 -1.25781,-21.54883 -0.28639,-6.74241 -0.6941,-18.70639 -0.73633,-19.93946 z m 44.41602,2.59571 c 0.37318,5.16546 0.89257,12.24148 1.33203,17.39062 0.51847,6.07487 1.70744,17.95347 1.73633,18.24219 -3.52529,0.41488 -6.01478,0.72596 -9.05469,1.04687 -0.0119,-1.30213 -0.0504,-4.50464 -0.25,-6.64257 -0.2049,-2.19471 -0.73277,-5.72017 -1.11133,-8.18164 z m -34.46485,10.51953 13.78711,27.32617 c -0.25718,0.0148 -6.70371,0.32322 -10.84961,0.53516 -0.18231,-1.27853 -1.46451,-10.28985 -1.82226,-14.0918 -0.43026,-4.57247 -0.93095,-11.32446 -1.11524,-13.76953 z m 26.17774,14.13086 c 0.13905,1.89621 0.30088,4.03607 0.43555,5.47851 0.20054,2.14805 0.59938,5.38095 0.75976,6.66602 -2.36844,0.24719 -5.37264,0.56068 -5.46875,0.57031 z m -208.414063,19.46093 -0.15625,0.12696 -0.0332,-0.0723 z"
     sodipodi:nodetypes="cccscccscccssccccscccccccscccsccccccscscccsccscccscscscccsccscccsccccscccsccscccccsccscccsccsccscccscccccccscccsccsccsccscsccccccscccsccsccsccccsccccccscsccscssccccsscscccsccsccscccsccccscsccscccscccscccsccscccscccccccsccccccscccccccscssccsccscccccsccscccccccccccc" /><path
     id="path37"
     style="color:#000000;clip-rule:nonzero;opacity:0.2;fill:#000000;fill-rule:nonzero;stroke-linejoin:miter;-inkscape-stroke:none"
     d="M 287.04492 302.24805 C 287.04492 302.24805 285.86552 320.00829 286.14648 329.65234 C 285.51001 329.70207 284.79517 329.75123 283.99609 329.80273 C 283.97778 329.43977 283.94556 329.00483 283.93164 328.66406 C 283.59042 320.31043 284.91797 303.00977 284.91797 303.00977 L 281.34766 303.01562 C 281.34766 303.01562 283.07032 303.68979 283.02148 304.49023 C 282.77288 308.56433 282.0391 321.55905 282.33203 328.73047 C 282.34641 329.08238 282.37958 329.52644 282.39844 329.90039 C 279.4436 330.07714 276.45117 330.22852 276.45117 330.22852 C 276.45117 330.22852 279.44317 330.71699 282.46289 331.01758 C 283.10412 342.0546 285.29883 360.35742 285.29883 360.35742 L 286.88086 360.12305 C 286.88086 360.12305 284.72529 342.04265 284.07422 331.1543 C 284.84081 331.20963 285.56616 331.24283 286.21094 331.24414 C 286.80106 343.76488 290.11719 366.81641 290.11719 366.81641 L 291.70117 366.58984 C 291.70117 366.58984 288.38793 343.45904 287.80859 331.14844 C 288.67299 331.03581 289.6553 330.82856 290.66602 330.56641 C 291.22348 340.57353 293.29102 357.70703 293.29102 357.70703 L 294.76953 356.5332 C 294.76953 356.5332 292.75217 339.81204 292.24219 330.12695 C 295.09775 329.27922 297.69922 328.25781 297.69922 328.25781 C 297.69922 328.25781 295.04207 328.62328 292.18945 328.98438 C 292.17421 328.62075 292.15617 328.24252 292.14648 327.90625 C 291.9485 321.0351 292.59101 308.38668 292.82812 304.0625 C 292.88002 303.11527 294.22656 302.45703 294.22656 302.45703 L 291.31445 302.4707 C 291.31445 302.4707 290.3001 319.38831 290.54688 327.95312 C 290.5579 328.33583 290.57744 328.76465 290.5957 329.18359 C 289.56288 329.30891 288.5981 329.42047 287.74414 329.50781 C 287.48121 320.04374 288.64062 302.35352 288.64062 302.35352 L 287.04492 302.24805 z " /></g></svg>
