<?xml version="1.0" encoding="UTF-8" standalone="no"?>
<!-- Created with Inkscape (http://www.inkscape.org/) -->

<svg
   width="400"
   height="400"
   viewBox="0 0 400 400"
   version="1.1"
   id="svg272834"
   xml:space="preserve"
   inkscape:version="1.2.2 (b0a8486, 2022-12-01)"
   sodipodi:docname="BaldingHair.svg"
   xmlns:inkscape="http://www.inkscape.org/namespaces/inkscape"
   xmlns:sodipodi="http://sodipodi.sourceforge.net/DTD/sodipodi-0.dtd"
   xmlns:xlink="http://www.w3.org/1999/xlink"
   xmlns="http://www.w3.org/2000/svg"
   xmlns:svg="http://www.w3.org/2000/svg"><sodipodi:namedview
     id="namedview272836"
     pagecolor="#ffffff"
     bordercolor="#666666"
     borderopacity="1.0"
     inkscape:showpageshadow="2"
     inkscape:pageopacity="0.0"
     inkscape:pagecheckerboard="0"
     inkscape:deskcolor="#d1d1d1"
     inkscape:document-units="px"
     showgrid="false"
     inkscape:zoom="1.475"
     inkscape:cx="199.66102"
     inkscape:cy="200"
     inkscape:window-width="1440"
     inkscape:window-height="810"
     inkscape:window-x="2538"
     inkscape:window-y="291"
     inkscape:window-maximized="0"
     inkscape:current-layer="layer1" /><defs
     id="defs272831" /><g
     inkscape:label="Layer 1"
     inkscape:groupmode="layer"
     id="layer1"><image
       width="400"
       height="400"
       preserveAspectRatio="none"
       xlink:href="../Pictures/STA%20Miniature%20Maker/EMH%20Bald.png"
       id="image273386"
       x="0"
       y="0" /><path
       id="path273886"
       style="fill:#383838;fill-opacity:1;fill-rule:evenodd;stroke:none;stroke-width:1.94678;stroke-linejoin:bevel"
       d="m 232.88713,112.78749 -4.59605,15.45052 -2.97566,23.25063 c 0,0 -7.96955,-18.87736 -11.26577,-23.96972 -3.29622,-5.09236 -3.8411,-6.0912 -6.23213,-7.19092 -2.39103,-1.09972 -4.74887,-0.81236 -6.95121,0 -2.20234,0.81236 -5.42454,4.15265 -5.42454,4.15265 -3.33964,-6.49094 -5.43928,-15.89494 -5.43928,-26.357099 0,-13.821483 3.66446,-25.796165 9.01136,-31.647258 l 14.07701,-4.155017 19.65517,-17.497897 c 0,0 -2.25899,2.860486 -3.17738,4.345041 -0.91839,1.484555 -2.33565,4.523756 -2.33565,4.523756 l 6.47182,-6.711522 3.83516,-2.876367 c 0,0 -2.8811,3.677129 -3.72944,5.309306 -0.84834,1.632177 -1.5439,4.278583 -1.5439,4.278583 l 5.51304,-4.793944 5.51303,-4.074853 -7.19091,9.108494 5.03364,-4.31455 3.35576,-3.116063 c 0,0 -3.28144,4.498216 -3.83516,6.232127 -0.55372,1.733911 -0.23969,3.595458 -0.23969,3.595458 0,0 1.96087,-2.841172 3.11606,-4.115978 1.15519,-1.274806 3.59546,-3.554333 3.59546,-3.554333 0,0 -1.99812,3.424675 -2.61847,4.898174 -0.62035,1.473499 -1.21669,3.850775 -1.21669,3.850775 l 4.79395,-4.194701 -7.43062,11.265769 -5.27334,11.026071 -4.31455,10.546678 4.31455,9.587888 4.22703,4.356417 z" /><path
       id="path273870"
       style="color:#000000;fill:#000000;-inkscape-stroke:none"
       d="m 242.48742,60.181409 c -1.78074,2.86166 -3.1615,5.6925 -5.15734,9.832263 -2.0149,4.179278 -6.96289,15.841797 -6.96289,15.841797 l -0.0859,0.205078 4.33789,9.255859 0.90625,-0.423828 -4.14844,-8.847656 c 0.12346,-0.290809 4.90213,-11.548141 6.85352,-15.595703 1.99559,-4.139239 3.77581,-7.09051 5.53029,-9.909958 1.73049,-2.780905 5.92132,-9.106032 5.92132,-9.106032 0,0 -5.38998,5.847977 -7.1947,8.74818 z m 1.84656,-9.351331 c -1.30439,1.300706 -4.58095,6.261735 -4.58095,6.261735 0,0 4.10684,-4.376898 5.28799,-5.554704 1.22872,-1.225258 2.83464,-3.387381 2.83464,-3.387381 0,0 -2.28488,1.427097 -3.54168,2.68035 z m -3.54296,-2.054687 c -1.65454,1.579876 -6.36861,6.691637 -6.0024,7.032458 0,0 5.11525,-4.802398 6.69185,-6.307849 1.59166,-1.519833 4.50718,-4.39574 4.50718,-4.39574 0,0 -3.55716,2.105636 -5.19663,3.671131 z m -3.12729,-0.66787 c -1.74663,1.623497 -6.30255,6.756323 -6.30255,6.756323 0,0 5.29162,-4.450653 6.98419,-6.023901 1.69314,-1.57378 5.78008,-4.919922 5.78008,-4.919922 0,0 -4.71567,2.564535 -6.46172,4.1875 z m -4.51725,-1.031349 c -2.01112,1.671357 -6.0934,6.915833 -6.0934,6.915833 0,0 4.85409,-4.587543 6.73208,-6.148255 1.89872,-1.577944 4.88238,-4.572713 4.88238,-4.572713 0,0 -3.53066,2.15101 -5.52106,3.805135 z m 1.46313,-3.69369 c 0,0 -7.47466,4.809774 -10.87067,7.549159 -3.39601,2.739382 -8.27294,8.170796 -11.13347,10.517578 -2.86053,2.34678 -14.24328,4.391485 -14.24328,4.391486 -3.12543,2.934219 -8.82442,11.678712 -9.33289,32.282342 -0.26133,10.589123 2.10822,20.119343 5.54687,26.802733 l 1.04297,2.04883 0.91211,-1.12891 c 0,0 0.50741,-0.53554 1.55273,-1.4414 1.04535,-0.90585 2.39888,-1.89545 3.23829,-2.20508 2.06064,-0.76009 4.09514,-0.99871 6.20703,-0.0273 1.11938,0.51483 1.65838,0.89716 2.43359,1.83398 0.77521,0.93681 1.61894,1.49102 3.26953,4.04102 1.54444,2.386 4.39963,8.42137 6.79883,13.76562 2.3992,5.34425 4.38672,10.05469 4.38672,10.05469 l 1.57226,3.72461 0.29493,-4.03125 c 0,0 1.26122,-16.90544 2.61718,-23.11524 1.39255,-6.37721 2.1048,-9.18812 4.98047,-15.16797 3.10811,-6.46315 7.95899,-16.52734 7.95899,-16.52734 0,0 -6.25298,8.11965 -9.75196,15.76758 -3.37334,7.37334 -3.66832,9.01271 -5.08789,15.51367 -1.15219,5.27648 -1.96614,14.94905 -2.33007,19.54883 -0.78193,-1.82514 -1.29817,-3.07379 -2.86524,-6.56446 -2.40963,-5.36747 -5.18768,-11.31905 -6.93945,-14.02539 -1.64563,-2.54232 -2.48526,-3.11399 -3.4043,-4.22461 -0.91904,-1.1106 -1.8475,-1.77841 -3.11914,-2.36328 -1.43981,-0.66222 -2.87988,-0.85989 -4.27148,-0.77539 -0.29791,-0.61876 -1.39144,-3.06529 -1.99415,-6.80859 -0.69731,-4.33107 -0.73242,-7.83008 -0.73242,-7.83008 0,0 -0.97547,3.5067 -0.2539,7.98828 0.53719,3.33647 1.49165,5.75995 1.9375,6.76758 -0.82004,0.13358 -1.61996,0.34824 -2.38086,0.62891 -0.0793,0.0292 -0.16045,0.0813 -0.24024,0.11523 -0.28898,-1.0784 -0.92283,-3.62229 -1.44531,-6.94922 -0.68625,-4.36973 -0.49414,-9.99023 -0.49414,-9.99023 0,0 -1.21604,5.54811 -0.49414,10.14453 0.5853,3.72697 1.28877,6.40258 1.52539,7.25781 -0.99022,0.60439 -1.95382,1.45035 -2.68945,2.22071 -0.45329,0.47466 -0.43532,0.4248 -0.77539,0.75195 -2.9234,-6.25283 -5.0586,-16.06932 -5.0586,-25.800783 0,-13.531402 3.65144,-25.22249 8.63477,-30.808594 0,0 9.6914,-1.53012 13.96484,-4.121094 4.27346,-2.590972 8.02639,-8.037925 11.22136,-11.099609 3.19499,-3.061683 9.81208,-8.711268 9.81208,-8.711268 z m 2.45094,48.66244 c 0,0 -1.89364,1.74231 -2.55664,3.019531 -0.663,1.277221 -1.18164,4.525391 -1.18164,4.525391 0,0 1.37174,-2.58356 1.99414,-3.841797 0.6224,-1.258237 1.74414,-3.703125 1.74414,-3.703125 z m 2.36718,2.066406 c 0,0 -1.80234,1.648199 -2.44531,2.757813 -0.64297,1.109613 -1.43359,4.736329 -1.43359,4.736329 0,0 1.48273,-2.733799 2.08008,-3.857423 0.59736,-1.123625 1.79882,-3.636719 1.79882,-3.636719 z"
       sodipodi:nodetypes="sscccccsscsscscsscscsscscsscscscsscscccsscssscccsscsscsssscscscccscccscscsscccscsccscsc" /><path
       id="path273908"
       style="opacity:0.2;fill:#000000;fill-opacity:1;fill-rule:evenodd;stroke:none;stroke-width:1.94678;stroke-linejoin:bevel"
       d="m 237.53906,44.103516 -3.83398,2.876953 -6.47266,6.710937 c 0,0 1.41755,-3.038884 2.33594,-4.523437 0.91839,-1.484554 3.17773,-4.34375 3.17773,-4.34375 L 220.68359,55.5625 c -0.26359,0.35048 -0.56146,0.705775 -0.90234,0.802734 l -6.68945,5.955078 -14.07813,4.15625 c -2.00508,2.194158 -3.77379,5.248572 -5.20117,8.939454 -0.95159,2.460588 -1.75174,5.203372 -2.36914,8.162109 -0.92611,4.438105 -1.44141,9.361871 -1.44141,14.544922 0,1.307766 0.0337,2.598053 0.0977,3.869143 0.0639,1.27174 0.15863,2.52224 0.2832,3.75 0.74707,7.36285 2.55387,13.87008 5.0586,18.73828 0,0 0.20172,-0.21033 0.53711,-0.53516 0.3366,-0.32581 0.80903,-0.76805 1.3496,-1.23633 0.54043,-0.4683 1.14994,-0.96128 1.76172,-1.38867 0.61179,-0.42739 1.22676,-0.7891 1.77735,-0.99219 0.55058,-0.20308 1.10962,-0.37405 1.67773,-0.49804 1.42028,-0.30999 2.88894,-0.33058 4.37696,0.14844 6.1e-4,1.9e-4 0.001,-2e-4 0.002,0 0.29704,0.0957 0.59622,0.2124 0.89453,0.3496 0.59776,0.27493 1.07875,0.54324 1.51758,0.8711 4.3e-4,3.2e-4 0.002,-3.2e-4 0.002,0 0.43836,0.32767 0.83267,0.71516 1.25586,1.22656 0.42356,0.51186 0.87576,1.14963 1.42773,1.97656 0.55198,0.82694 1.20329,1.8441 2.02735,3.11719 1.23608,1.90963 3.12993,5.75803 5.01367,9.82227 0.62791,1.35474 1.25437,2.73329 1.85547,4.07226 2.40441,5.35588 4.39648,10.07422 4.39648,10.07422 l 0.67578,-5.2832 c -0.15838,-8.50913 -0.1155,-18.77315 0.78907,-24.50977 1.66877,-10.58314 5.93962,-18.99888 9.33008,-25.308591 l -0.72657,-0.748047 -4.31445,-9.587891 4.31445,-10.546875 4.95899,-10.36914 c -0.53352,0.346089 -1.06432,0.688536 -1.59375,1.037109 -3.13316,2.06283 -5.21465,4.002351 -5.35872,3.658866 0.57742,-2.087439 1.2446,-4.679676 3.04336,-6.782447 1.78778,-2.089948 2.98006,-4.477396 3.56707,-5.251882 1.17763,-1.553727 -3.0062,1.436894 -5.67803,4.039721 -3.15024,3.068871 -5.29719,6.115396 -4.66154,5.113946 1.22304,-1.926847 5.42379,-8.815313 5.42379,-8.815313 3.53589,-4.436728 6.10085,-7.747359 8.36133,-10.664063 l -2.31054,2.146485 -5.03321,4.314453 7.19141,-9.107422 -5.51367,4.074219 -5.51172,4.792968 c 0,0 0.69463,-2.645168 1.54297,-4.277344 0.84834,-1.632175 3.72851,-5.310546 3.72851,-5.310546 z"
       sodipodi:nodetypes="cccscccccssssscccsssscsscsssssccscccccscsssscccccccscc" /></g></svg>
