<?xml version="1.0" encoding="UTF-8" standalone="no"?>
<!-- Created with Inkscape (http://www.inkscape.org/) -->

<svg
   width="400"
   height="400"
   viewBox="0 0 400 400"
   version="1.1"
   id="svg34589"
   xml:space="preserve"
   inkscape:version="1.2.2 (b0a8486, 2022-12-01)"
   sodipodi:docname="ChinLengthCombBackStraight.svg"
   xmlns:inkscape="http://www.inkscape.org/namespaces/inkscape"
   xmlns:sodipodi="http://sodipodi.sourceforge.net/DTD/sodipodi-0.dtd"
   xmlns="http://www.w3.org/2000/svg"
   xmlns:svg="http://www.w3.org/2000/svg"><sodipodi:namedview
     id="namedview34591"
     pagecolor="#ffffff"
     bordercolor="#666666"
     borderopacity="1.0"
     inkscape:showpageshadow="2"
     inkscape:pageopacity="0.0"
     inkscape:pagecheckerboard="0"
     inkscape:deskcolor="#d1d1d1"
     inkscape:document-units="px"
     showgrid="false"
     inkscape:zoom="2.525"
     inkscape:cx="200"
     inkscape:cy="200"
     inkscape:window-width="2036"
     inkscape:window-height="1230"
     inkscape:window-x="2222"
     inkscape:window-y="82"
     inkscape:window-maximized="0"
     inkscape:current-layer="svg34589" /><defs
     id="defs34586" /><g
     inkscape:groupmode="layer"
     id="layer4"
     inkscape:label="Hair Back"><path
       id="path43347"
       style="fill:#383838;fill-opacity:1;stroke:none;stroke-width:1px;stroke-linecap:butt;stroke-linejoin:miter;stroke-opacity:1"
       d="M 338.72852 76.339844 L 340.73633 96.541016 L 341.07227 110.60352 L 345.08984 107.58984 L 347.65625 102.34375 L 349.66602 95.759766 L 349.44141 93.416016 L 351.89648 87.388672 L 351.5625 82.589844 L 350.55859 79.910156 L 349.88867 77.121094 L 338.72852 76.339844 z M 344.97852 115.73633 L 313.95117 219.53125 L 317.63477 219.41992 L 323.66016 218.86133 L 329.46484 217.52148 L 336.38477 213.72852 L 342.96875 206.91992 L 346.42773 201.33984 L 350.11133 193.63867 L 353.57227 181.80859 L 354.12891 172.09766 L 353.01367 159.82227 L 351.45117 145.75977 L 350.33398 134.15234 L 347.99023 123.88477 L 344.97852 115.73633 z " /><path
       id="path42606"
       style="fill:#000000;fill-opacity:1;stroke:none;stroke-width:1px;stroke-linecap:butt;stroke-linejoin:miter;stroke-opacity:1"
       d="M 349.44141 77.121094 C 349.44141 77.121094 349.47644 78.775812 349.10742 79.910156 C 348.73841 81.0445 347.87379 82.409992 346.98633 83.705078 C 346.09887 85.000164 344.72176 86.498524 343.75 87.611328 C 342.77824 88.724132 341.18359 90.402344 341.18359 90.402344 L 341.74023 92.96875 C 341.74023 92.96875 344.92758 89.591272 346.20508 88.058594 C 347.48258 86.525915 348.67651 84.927082 349.44141 83.816406 C 349.66335 83.494126 349.83034 83.260679 349.97656 83.054688 C 350.06858 83.323793 350.18913 83.567053 350.22266 83.927734 C 350.30156 86.105763 350.17887 88.544523 349.55273 90.291016 C 348.92042 91.994583 347.49749 94.341002 346.09375 96.316406 C 344.69001 98.29181 341.07227 101.33984 341.07227 101.33984 L 342.24414 104.29688 C 342.24414 104.29688 346.16354 100.53647 347.87891 98.103516 C 348.01331 97.912893 348.15341 97.702881 348.29102 97.498047 C 348.27534 97.690747 348.25288 97.890853 348.21484 98.103516 C 347.98872 99.367692 346.99233 101.82705 346.31641 103.23633 C 345.64049 104.64561 344.99467 105.75965 344.30859 106.58398 C 343.62251 107.40832 342.41016 108.25977 342.41016 108.25977 L 342.96875 111.04883 C 342.96875 111.04883 343.884 110.55919 344.75391 109.59766 C 345.62382 108.63613 346.9062 106.79536 347.76758 105.02148 C 348.62896 103.24761 349.32103 100.94122 349.77734 98.996094 C 350.16358 97.349667 350.44283 94.621923 350.52344 93.783203 C 351.3218 92.296611 351.99521 90.836983 352.34375 89.732422 C 353.05073 87.491918 352.90462 86.674383 352.90234 85.15625 C 352.90034 83.638117 352.71634 81.666601 352.34375 80.691406 C 352.11655 80.096755 351.80585 79.711015 351.58789 79.482422 C 351.93388 78.349214 352.23242 77.232422 352.23242 77.232422 L 349.44141 77.121094 z " /><path
       style="fill:#000000;fill-opacity:1;stroke:none;stroke-width:1px;stroke-linecap:butt;stroke-linejoin:miter;stroke-opacity:1"
       d="m 346.20536,116.62946 c 0,0 2.62328,5.59012 3.90625,10.8259 1.28297,5.23578 1.96326,11.75591 2.79018,20.64732 0.82692,8.89141 2.81146,24.22551 1.6741,32.70089 -1.13736,8.47538 -3.47118,12.70568 -5.80357,17.63393 -2.33239,4.92825 -4.70799,8.74383 -7.58928,11.94196 -2.88129,3.19813 -5.4078,5.5928 -9.15179,7.25447 -3.74399,1.66167 -9.84864,1.99342 -12.72321,2.12053 -2.87457,0.12711 -4.35268,-0.33482 -4.35268,-0.33482 0,0 1.69306,-0.002 4.35268,-0.44643 2.65962,-0.44441 8.02539,-0.9649 11.49553,-2.67857 3.47014,-1.71367 6.08459,-4.16138 8.81697,-7.25446 2.73238,-3.09308 4.87099,-6.46378 7.14285,-11.27232 2.27186,-4.80854 4.70162,-9.35997 5.80357,-17.63393 1.10195,-8.27396 -0.86019,-22.74878 -1.6741,-31.47322 -0.81391,-8.72444 -1.67202,-15.65525 -2.79018,-20.87053 -1.11816,-5.21528 -3.125,-10.49107 -3.125,-10.49107 z"
       id="path43339"
       sodipodi:nodetypes="czzzzzzzczzzzzzzcc" /><path
       style="fill:#000000;fill-opacity:1;stroke:none;stroke-width:1px;stroke-linecap:butt;stroke-linejoin:miter;stroke-opacity:1"
       d="m 349.66518,135.15625 c 0,0 0.66338,11.43556 0.66964,17.41071 0.006,5.97515 -0.0487,12.09614 -0.66964,18.41518 -0.62093,6.31904 -1.90524,13.8407 -3.125,19.41965 -1.21976,5.57895 -2.55972,10.53031 -3.90625,14.0625 -1.34653,3.53219 -1.89195,5.31538 -3.57143,7.25446 -1.67948,1.93908 -6.02679,4.12946 -6.02679,4.12946 0,0 3.52247,-2.40945 5.02233,-4.46428 1.49986,-2.05483 2.12708,-4.16365 3.45982,-7.8125 1.33274,-3.64885 2.99339,-8.68046 4.12946,-14.17411 1.13607,-5.49365 1.78926,-12.58897 2.34375,-18.75 0.55449,-6.16103 0.85768,-11.10142 1.00447,-18.19196 0.14679,-7.09054 -0.33483,-24.33036 -0.33483,-24.33036 z"
       id="path43341"
       sodipodi:nodetypes="czzzzzczzzzzcc" /><path
       id="path43350"
       style="fill:#000000;fill-opacity:0.30000001;stroke:none;stroke-width:1px;stroke-linecap:butt;stroke-linejoin:miter;stroke-opacity:1"
       d="M 338.72852 76.339844 L 340.73633 96.541016 L 341.07227 110.60352 L 345.08984 107.58984 L 347.65625 102.34375 L 349.66602 95.759766 L 349.44141 93.416016 L 351.89648 87.388672 L 351.5625 82.589844 L 350.55859 79.910156 L 349.88867 77.121094 L 338.72852 76.339844 z M 344.97852 115.73633 L 313.95117 219.53125 L 317.63477 219.41992 L 323.66016 218.86133 L 329.46484 217.52148 L 336.38477 213.72852 L 342.96875 206.91992 L 346.42773 201.33984 L 350.11133 193.63867 L 353.57227 181.80859 L 354.12891 172.09766 L 353.01367 159.82227 L 351.45117 145.75977 L 350.33398 134.15234 L 347.99023 123.88477 L 344.97852 115.73633 z " /><path
       style="fill:#000000;fill-opacity:1;stroke:none;stroke-width:1px;stroke-linecap:butt;stroke-linejoin:miter;stroke-opacity:1"
       d="m 342.1875,144.08482 c 0,0 2.02759,10.43901 2.45536,16.07143 0.42777,5.63242 0.48659,11.7917 0,17.63393 -0.48659,5.84223 -1.44216,11.86653 -2.90179,17.29911 -1.45963,5.43258 -3.28675,11.79101 -5.69196,15.17857 -2.40521,3.38756 -4.68192,4.42222 -6.69643,5.58035 -2.01451,1.15813 -4.91072,1.78572 -4.91072,1.78572 0,0 2.41967,-0.91007 4.24108,-2.23215 1.82141,-1.32208 4.19194,-2.62686 6.47321,-5.91517 2.28127,-3.28831 3.94507,-9.21104 5.35714,-14.50893 1.41207,-5.29789 2.3952,-11.36533 2.90179,-17.1875 0.50659,-5.82217 0.32766,-12.01118 0.11161,-17.63393 -0.21605,-5.62275 -1.33929,-16.07143 -1.33929,-16.07143 z"
       id="path43343"
       sodipodi:nodetypes="czzzzzczzzzzc" /></g><g
     inkscape:label="Hair Front"
     inkscape:groupmode="layer"
     id="layer1"
     sodipodi:insensitive="true"><path
       style="fill:#383838;fill-opacity:1;stroke:none;stroke-width:1px;stroke-linecap:butt;stroke-linejoin:miter;stroke-opacity:1"
       d="m 313.7342,83.422127 3.45764,-3.887008 2.63166,-1.459396 5.28533,-1.664126 11.84032,0.876539 16.27119,-0.677967 5.42373,-6.101694 -2.0339,-13.559322 -18.98305,-24.40678 -29.83051,-16.271187 -18.98305,-4.067796 -21.01695,1.355932 -21.01695,6.101695 -25.08474,16.271186 -19.18163,16.353438 -8.81356,17.387421 -5.90312,20.49643 -2.43104,17.222918 -0.2397,10.0943 -4.78689,17.42854 -4.07612,23.8321 v 12.77807 l 3.39816,20.33899 6.3985,10.53288 5.80489,5.06034 7.62988,4.30529 9.98114,2.79044 6.79576,1.03986 7.78026,2.05242 7.37174,0.37609 6.57521,0.39459 -14.26959,-15.02647 -7.45762,-15.59322 -3.38983,-16.27119 v -10.84745 c 0,0 -8.83782,-7.99528 -11.12829,-12.95655 -2.29046,-4.96128 -3.81607,-11.61863 -2.43104,-15.51803 1.38503,-3.8994 2.86931,-6.30027 6.77966,-6.1017 3.91035,0.19857 7.77989,5.03487 10.84746,8.1356 3.06757,3.10073 7.45763,10.16949 7.45763,10.16949 l -2.71186,-12.20339 0.67796,-6.77966 5.42373,-8.13559 V 104.4068 l 5.42373,-10.169492 13.55932,-10.169491 10.16949,-4.745763 20.33899,-4.745763 h 13.55932 l 12.20339,0.677966 6.08425,3.289697 z"
       id="path38135"
       sodipodi:nodetypes="ccccccccccccccccccccccccccccccccccczzzzccccccccccccc" /><path
       id="path35116"
       style="fill:#000000;fill-opacity:1;stroke:none;stroke-width:1px;stroke-linecap:butt;stroke-linejoin:miter;stroke-opacity:1"
       d="m 285.41016,10.964844 c -1.24511,-0.01432 -2.55523,0.009 -4.00586,0.06055 -5.80255,0.206217 -12.29683,1.317373 -18.93555,3.117187 -6.63872,1.799814 -13.92032,4.708439 -20.61523,7.910156 -6.69492,3.201718 -13.48951,7.077503 -19.41407,11.265625 -5.92455,4.188123 -11.56275,8.312235 -15.58007,12.22461 -4.01733,3.912375 -5.81467,5.825194 -8.86915,10.785156 -3.05447,4.959962 -6.25593,14.580864 -8.15039,20.853516 -1.89445,6.272651 -2.69074,10.578297 -3.5957,16.539062 -0.90496,5.960765 -1.67773,18.216994 -1.67773,19.175774 0,0.51809 0.26217,2.04322 0.51953,3.43946 -1.14854,3.59531 -3.49179,11.12354 -4.7461,16.54492 -1.69881,7.34266 -4.17127,17.22194 -4.4082,25.42383 -0.2431,8.41526 0.46401,16.24283 1.35742,23.39062 0.87223,6.97837 2.48468,13.14423 5.42188,17.96485 2.93719,4.82061 6.62672,8.09891 10.84765,10.50976 4.22094,2.41085 13.56055,3.72852 13.56055,3.72852 0,0 -9.04698,-3.39838 -12.88281,-6.10156 -3.83584,-2.70319 -7.16354,-5.24393 -9.83008,-9.83008 -2.66654,-4.58616 -3.64068,-10.59979 -4.74609,-17.28907 -1.10541,-6.68927 -1.83962,-14.91148 -1.35547,-22.71093 0.48415,-7.79946 3.17349,-16.43964 4.40625,-23.73047 0.96126,-5.68513 2.05044,-13.11931 2.58398,-16.79883 0.0845,0.43572 0.23047,1.21289 0.23047,1.21289 0,0 -0.027,-1.12135 -0.0156,-2.68359 0.0475,-0.32971 0.2539,-1.73047 0.2539,-1.73047 0,0 -0.16976,0.52479 -0.23242,0.71679 0.0265,-1.49546 0.0829,-3.21389 0.23437,-4.93164 0.36415,-4.12897 1.39538,-10.78343 2.39649,-16.060539 1.00111,-5.27711 1.67151,-9.503194 3.5957,-15.580079 1.92419,-6.076885 5.39502,-15.876088 8.38867,-20.613281 2.99366,-4.737193 5.75046,-7.371012 9.82813,-11.265625 4.07767,-3.894613 9.1236,-7.268538 15.10156,-11.505859 5.97797,-4.237321 12.12979,-7.787905 18.45703,-11.027344 6.32725,-3.239439 13.70985,-5.893253 19.89453,-7.669922 6.18469,-1.776669 12.94677,-2.908961 18.45704,-3.115234 5.51026,-0.206273 9.36817,0.04335 13.90234,0.958984 4.53416,0.915633 8.02794,2.415139 11.50391,3.833984 3.47596,1.418846 5.07773,2.214036 9.3496,4.554688 4.27188,2.340652 11.42829,6.297242 16.0586,9.828125 4.6303,3.530883 9.12082,8.002309 11.74609,11.025391 2.62528,3.023082 2.76122,3.992397 4.55469,6.472656 1.79347,2.480258 4.89663,5.794754 6.23047,8.388672 1.33384,2.593917 2.0759,4.219617 2.1582,6.710937 0.0823,2.491321 -0.79186,5.916982 -1.91797,7.671875 -1.12611,1.754893 -1.87475,2.1989 -3.5957,2.875 -1.72095,0.676101 -3.46785,0.463169 -6.4707,0.480469 -3.00286,0.0173 -7.90954,-0.563609 -11.50586,-0.71875 -3.59633,-0.155137 -7.20993,-0.879197 -10.06836,-0.240234 -0.54187,0.121126 -1.05887,0.293973 -1.57422,0.466797 2.68134,-1.360243 5.94556,-2.510305 8.5918,-3.626954 3.7349,-1.57604 5.50987,-1.287434 8.92968,-3.109375 3.41982,-1.82194 11.64844,-8.697265 11.64844,-8.697265 0,0 -9.57476,6.22588 -13.12109,7.738281 -3.54634,1.512401 -4.96729,1.589555 -8.13477,2.710937 -3.16747,1.121383 -8.27224,2.286053 -10.84765,4.06836 -2.54953,1.764388 -3.94145,4.391247 -4.72071,6.08789 0.0711,-0.322431 0.0816,-0.367067 0.16016,-0.71875 0.54507,-1.813804 1.29295,-3.921733 2.1875,-5.36914 1.87275,-3.03017 5.84156,-5.676801 8.13476,-9.152344 2.29321,-3.475542 4.08026,-5.981994 5.59375,-9.492187 1.5135,-3.510194 2.88679,-8.002151 3.22071,-11.525391 0.33392,-3.52324 -1.69532,-10.847656 -1.69532,-10.847656 0,0 0.80217,6.682316 0,10.847656 -0.80216,4.16534 -2.15738,8.00041 -3.89843,11.357422 -1.74105,3.357012 -3.11876,5.350172 -4.91407,7.794922 -1.50701,2.052172 -4.17484,4.552156 -6.30273,7.349609 1.08776,-3.191872 2.51365,-6.660617 2.91211,-10.230469 0.51162,-4.583644 0.13298,-9.982556 -0.84766,-14.236328 -0.98064,-4.253771 -2.35058,-7.41907 -4.57617,-11.017578 -2.22559,-3.598507 -8.8125,-10.169922 -8.8125,-10.169922 0,0 5.76202,7.375658 7.62695,11.017578 1.86494,3.641921 2.9026,6.468692 3.72852,10.507813 0.82592,4.039121 1.15927,8.574621 0.84766,13.560547 -0.2383,3.812808 -1.51738,8.899053 -2.39453,12.845703 -0.56216,1.122162 -0.94273,2.525097 -1.20313,3.935547 0.007,-0.363985 0.0225,-0.764335 0.0215,-1.089844 -0.009,-2.89806 0.2882,-5.859047 0.0156,-9.421875 -0.27253,-3.562828 -1.17426,-7.302958 -3.72852,-11.015625 -2.55425,-3.712667 -7.43498,-6.37134 -11.86328,-9.830078 -4.42829,-3.458739 -9.50525,-7.612726 -14.74609,-10.847656 -5.24085,-3.234931 -16.61133,-8.47461 -16.61133,-8.47461 0,0 10.66159,5.561066 15.76367,8.982422 5.10209,3.421357 10.64445,7.926961 14.7461,11.525391 4.10164,3.598429 7.801,6.425374 10,9.830078 2.19899,3.404703 3.07787,6.454184 3.55859,9.662109 0.48072,3.207925 0.72039,5.970349 1.16992,8.91211 0.34775,2.275719 0.87061,5.389451 1.13867,6.978515 -0.0253,0.753744 -0.0195,1.226563 -0.0195,1.226563 0,0 0.0804,-0.342067 0.13086,-0.5625 7e-4,0.0041 0.003,0.01748 0.004,0.02148 -0.0742,0.63146 -0.0508,1.050781 -0.0508,1.050781 0,0 0.75322,-1.302785 1.87109,-2.847656 0.15701,-0.06717 6.45316,-2.758245 9.01953,-3.318359 2.59842,-0.567105 2.82828,-0.465019 6.23242,-0.480469 3.40415,-0.01545 10.38207,0.885404 14.14258,0.958984 3.76052,0.07358 6.19409,0.630219 8.38867,-0.240234 2.19459,-0.870453 3.02493,-1.585824 4.31446,-3.833984 1.28953,-2.248161 2.10558,-6.574454 1.91797,-9.587891 -0.18761,-3.013437 -0.79198,-4.15721 -2.63672,-7.910156 -1.84474,-3.752946 -5.62787,-9.469144 -9.34766,-13.902344 -3.71979,-4.4332 -8.01539,-8.666528 -12.94336,-12.464844 C 329.92946,26.64309 324.63581,23.43393 318.31836,20.375 c -6.31745,-3.05893 -15.09344,-6.49131 -21.33398,-7.910156 -4.68041,-1.064131 -7.83891,-1.457052 -11.57422,-1.5 z m 28.48828,73.103515 c 0,0 -2.09829,-5.737189 -6.10156,-8.136718 -1.74985,-1.048843 -3.85832,-1.656686 -6.3086,-2.03711 -4.91821,-2.006116 -11.23041,-4.242005 -16.06445,-4.742187 -9.13927,-0.945648 -14.46412,-1.046136 -24.1875,-1.21875 -4.30645,-0.07645 -9.98346,-0.342596 -15.79297,0.04102 -7.30759,0.482536 -13.676,1.285868 -19.04297,1.699219 -7.89018,0.607686 -23.45508,3.669922 -23.45508,3.669922 0,0 18.2537,-2.112083 23.45508,-2.314453 5.20139,-0.20237 13.16891,-1.260302 18.94531,-1.5 5.77642,-0.239697 7.3465,-0.372048 15.93164,-0.162109 8.58516,0.209938 15.36892,0.177023 24.14649,1.140624 3.69743,0.405904 8.4582,1.675327 12.76758,3.00586 -2.38749,-0.179935 -5.05371,-0.238222 -8.02149,-0.292969 -7.86256,-0.145042 -20.34841,0.76431 -29.15234,3.388672 -8.80393,2.624362 -17.72463,7.041881 -23.05078,11.525391 -5.32616,4.483509 -7.22368,7.69901 -9.49219,12.882809 -2.26851,5.18381 -1.8921,13.00159 -3.39063,17.62695 -1.32335,4.08467 -3.55612,6.04535 -4.45703,8.95899 -0.91667,0.68913 -1.95468,1.41448 -2.62304,1.71289 -1.42989,0.63841 -3.71485,0.83984 -3.71485,0.83984 0,0 2.52384,0.73478 4.07422,0.11914 0.58085,-0.23065 1.31645,-0.87719 2.00781,-1.5957 -0.008,0.0468 -0.0238,0.0874 -0.0312,0.13476 -0.18481,1.17402 -0.21231,2.3826 -0.14257,3.58985 -0.3939,0.30599 -0.79127,0.58709 -1.11329,0.74804 -1.00291,0.5013 -3.11718,0.83789 -3.11718,0.83789 0,0 1.98214,0.71243 3.11718,0.24024 0.36437,-0.15158 0.77699,-0.53946 1.17188,-0.99609 0.21988,2.26092 0.78271,4.48447 1.43945,6.42578 1.08692,3.21286 4.7461,8.13672 4.7461,8.13672 0,-10e-6 -0.7402,-1.48179 -1.35743,-3.39063 -0.61723,-1.90884 -1.68295,-5.28966 -2.0332,-8.13477 -0.35025,-2.8451 -0.62774,-6.1553 0,-8.81445 0.62774,-2.65915 2.43695,-4.06057 3.39063,-6.7793 0.95368,-2.71872 1.24618,-6.10093 2.0332,-9.49218 0.78702,-3.39126 0.75182,-6.95962 2.71094,-10.84571 1.95911,-3.886077 4.47682,-7.582329 9.49218,-11.525382 5.01537,-3.943053 12.91799,-7.774865 21.01758,-10.169922 8.09959,-2.395056 19.59254,-3.497112 27.11914,-3.390625 7.52661,0.106487 13.44499,0.849405 17.62696,2.712891 4.18196,1.863486 7.45703,6.101562 7.45703,6.101562 z M 240.84766,42.710938 c 0,0 12.92416,2.98833 18.30468,4.408203 5.38052,1.419873 6.89502,2.06191 11.01758,3.558593 4.12257,1.496684 8.17564,2.712684 14.23633,4.916016 6.06069,2.203332 9.53909,3.418797 14.91602,6.439453 5.37692,3.020656 6.4119,6.713709 8.8125,10.339844 2.40059,3.626135 5.59375,11.185547 5.59375,11.185547 0,0 -1.0647,-8.156051 -3.22071,-12.203125 -2.15601,-4.047074 -4.57192,-8.019482 -9.83008,-11.185547 -5.25815,-3.166065 -10.06933,-4.761556 -15.76171,-6.611328 -5.69238,-1.849772 -10.29369,-3.54411 -14.23829,-4.744141 -3.94459,-1.200031 -6.54779,-1.80371 -9.66015,-2.542969 -3.11236,-0.739259 -20.16992,-3.560547 -20.16992,-3.560546 z m -9.89844,51.849609 c 0,0 -8.84397,2.726488 -12.94531,3.714844 -4.10135,0.988356 -7.88078,1.787839 -11.625,2.277339 -3.01812,0.39458 -7.99853,0.61285 -9.88672,0.68555 -0.27178,-0.0358 -0.66016,-0.0859 -0.66016,-0.0859 0,0 0.28457,0.0694 0.38867,0.0957 -0.23231,0.008 -0.62695,0.0234 -0.62695,0.0234 0,0 0.44235,0.0444 1.15234,0.10547 1.80452,0.43771 6.07126,1.41428 8.91407,1.57227 3.66181,0.20351 8.80265,-0.22362 11.98437,-0.83789 3.18172,-0.61427 7.07227,-2.277346 7.07227,-2.277346 0,0 -3.95474,1.121416 -7.07227,1.558596 -3.11753,0.43718 -7.97885,0.77725 -11.625,0.71875 -1.98993,-0.0319 -4.76476,-0.31034 -6.94531,-0.56055 2.1856,0.14047 4.94532,0.24905 6.94531,0.0801 3.80544,-0.32151 8.05626,-1.34568 12.22461,-2.515626 4.16835,-1.169939 12.70508,-4.554687 12.70508,-4.554687 z m -3.15234,4.083984 c 0,0 -7.83936,5.079339 -11.5254,6.439449 -3.68603,1.36012 -6.71619,1.58043 -10.16992,2.03516 -3.45372,0.45473 -10.50781,0.67774 -10.50781,0.67774 0,-1e-5 5.91897,1.30737 9.83008,1.01757 3.9111,-0.2898 9.45281,-1.59704 13.2207,-3.39062 3.7679,-1.79358 9.15235,-6.779299 9.15235,-6.779299 z m -1.69532,9.490239 c 0,0 -6.63839,4.97228 -10.16992,6.78125 -3.53153,1.80896 -6.76673,3.0077 -10.84766,4.0664 -4.08092,1.0587 -13.55859,2.03516 -13.55859,2.03516 0,0 9.14301,0.79667 13.2207,0 4.0777,-0.79667 7.22751,-2.27604 10.84766,-4.4082 3.62015,-2.13217 10.50781,-8.47461 10.50781,-8.47461 z m -36.27148,4.74609 c 0,0 -1.38177,7.80013 -2.37305,14.57617 -0.99128,6.77604 -3.04968,23.3897 -3.38867,26.10156 -0.33899,2.71187 -1.36186,14.60331 -1.01758,21.01758 0.34428,6.41428 0.80693,12.12586 2.71289,17.28906 1.90596,5.16321 4.67893,9.90531 8.13477,13.21875 3.45583,3.31345 11.52539,6.44141 11.52539,6.44141 0,0 -7.07045,-4.33691 -10.16992,-7.79687 -3.09948,-3.45997 -6.04001,-7.7633 -7.79688,-12.88086 -1.75687,-5.11757 -1.82187,-10.99732 -2.0332,-17.28907 -0.21133,-6.29174 0.51699,-13.1608 1.01758,-20.33789 0.50059,-7.17708 1.47355,-15.98915 2.0332,-22.71289 0.55965,-6.72373 1.35547,-17.62695 1.35547,-17.62695 z m 35.93359,0.33984 c 0,0 -2.66722,3.16598 -4.74609,4.7461 -2.07887,1.58012 -5.66114,3.51239 -7.79688,4.40625 -2.13573,0.89386 -4.74609,1.35547 -4.74609,1.35547 0,0 2.5999,0.18894 4.74609,-0.3379 2.1462,-0.52683 5.63161,-1.62132 7.79688,-3.39062 2.16527,-1.7693 4.74609,-6.7793 4.74609,-6.7793 z m -3.05273,7.45703 c 0,0 -1.88469,1.95299 -3.72852,3.05079 -1.84383,1.09779 -7.45703,3.05078 -7.45703,3.05078 0,0 5.89064,-0.488 7.79688,-1.69532 1.90623,-1.20731 3.38867,-4.40625 3.38867,-4.40625 z m -28.07617,15.47071 c 0,0 -2.37362,16.58209 -2.39844,24.6875 -0.0248,8.10541 0.62284,16.66429 2.1582,23.73047 1.53536,7.06617 4.1874,13.65056 6.47266,18.45703 2.28526,4.80646 3.95106,7.94592 5.83935,9.83661 1.88829,1.89069 3.11662,2.35701 5.01123,3.10174 1.89461,0.74473 2.89342,0.66449 7.12598,1.20423 4.23256,0.53974 17.01758,0.95898 17.01758,0.95898 0,0 -13.83891,-1.27554 -17.97656,-2.1582 -4.13766,-0.88266 -5.33722,-1.33192 -6.95118,-2.15625 -1.61395,-0.82433 -1.18813,-0.22561 -2.87695,-2.15821 -1.68882,-1.93259 -3.75604,-5.65359 -5.75195,-10.30664 -1.99591,-4.65304 -4.12796,-11.04779 -5.51367,-17.73828 -1.38572,-6.69048 -2.00961,-14.36885 -2.39649,-22.29101 -0.38688,-7.92217 0.24024,-25.16797 0.24024,-25.16797 z m 3.83398,15.82031 c 0,0 0.14392,18.50335 1.43945,26.36523 1.29553,7.86189 3.18632,15.18573 5.75196,20.61524 2.56563,5.4295 5.84821,9.52597 8.38867,11.98437 2.54046,2.45841 5.51367,3.59571 5.51367,3.59571 0,0 -2.58122,-2.25404 -4.79297,-5.03321 -2.21175,-2.77916 -5.50501,-6.55548 -7.91015,-11.98632 -2.40515,-5.43085 -3.83268,-13.01531 -5.27344,-20.61329 -1.44076,-7.59797 -3.11719,-24.92773 -3.11719,-24.92773 z m 5.03516,5.51172 c 0,0 0.78925,19.70003 2.63476,27.56641 1.84551,7.86637 4.36177,14.75007 7.43164,19.41406 3.06988,4.66398 6.04315,6.98543 9.10742,8.86914 3.06428,1.88371 8.39063,2.87695 8.39063,2.87695 0,0 -4.45185,-2.36195 -7.19141,-4.55469 -2.73955,-2.19273 -5.90022,-4.27937 -8.86914,-8.86914 -2.96891,-4.58976 -5.15744,-11.37505 -7.18945,-18.93554 -2.03201,-7.5605 -4.31445,-26.36719 -4.31445,-26.36719 z m 8.69921,2.17969 c 0,0 -0.82846,10.47667 -0.33789,15.25586 0.49057,4.77918 1.39248,8.53897 3.05079,13.21875 1.6583,4.67977 4.6637,10.64248 7.11718,14.57617 2.45349,3.93368 4.48362,6.54806 7.11914,9.15429 2.63553,2.60624 8.47461,6.43946 8.47461,6.43946 0,0 -4.73088,-4.86374 -7.11914,-7.79688 -2.38826,-2.93313 -4.92938,-6.0416 -7.11719,-9.83008 -2.1878,-3.78847 -4.18184,-8.51744 -5.76367,-12.88085 -1.58183,-4.36342 -2.80469,-8.51939 -3.72851,-13.22071 -0.92382,-4.70131 -1.69531,-14.91601 -1.69532,-14.91601 z"
       sodipodi:nodetypes="sssssssssscssssscssssscccccsssssssssssssssssssssscsscsssccsssscssscssscsssccssssscsssssccccccsssssssssssscscsssscsssscssssscscscscscscscsssssssssscccsssscsssssccsscccccsscsscssccsscssccsscssccssssscsssssccsscssccsssccsssssscssssssccssscsssccssscsssccsssscsssscss" /><path
       id="path41753"
       style="fill:#ffffff;fill-opacity:0.3;stroke:none;stroke-width:1px;stroke-linecap:butt;stroke-linejoin:miter;stroke-opacity:1"
       d="m 287.69336,16.378906 c 0,0 3.15272,3.440771 4.63281,5.232422 1.48009,1.791659 4.24414,5.509766 4.24414,5.509766 0,0 -2.2242,-4.655524 -3.74414,-6.458985 -1.51987,-1.803499 -5.13281,-4.283203 -5.13281,-4.283203 z m -9.54297,0.191406 c 0,0 3.96222,3.256768 5.85547,4.984376 1.89328,1.727614 5.49805,5.375 5.49805,5.375 0,0 -3.21499,-4.80396 -5.15235,-6.53711 -1.9373,-1.733209 -6.20117,-3.822266 -6.20117,-3.822266 z m 18.41602,1.197266 c 0,0 2.89696,3.659115 4.24414,5.552734 1.34718,1.893628 3.83593,5.802735 3.83593,5.802735 0,0 -1.88151,-4.804623 -3.26757,-6.712891 -1.386,-1.908301 -4.8125,-4.642578 -4.8125,-4.642578 z m -30.06836,1.078125 c 0,0 4.7863,2.788564 7.10351,4.308594 2.31722,1.520042 6.79102,4.804687 6.79102,4.804687 0,0 -4.25986,-4.633019 -6.625,-6.15039 -2.36506,-1.51745 -7.26953,-2.962891 -7.26953,-2.962891 z m -13.33789,5.701172 c 0,0 5.06186,2.24804 7.53125,3.505859 2.46938,1.257831 7.27734,4.035157 7.27734,4.035157 0,0 -4.74109,-4.140684 -7.25781,-5.390625 -2.51667,-1.250029 -7.55078,-2.150391 -7.55078,-2.150391 z m 62.02222,1.248662 c 0,0 1.66064,4.360843 2.375,6.572265 0.71435,2.211426 1.91015,6.6875 1.91015,6.6875 0,0 -0.34867,-5.147665 -1.0957,-7.384765 -0.74696,-2.237115 -3.18945,-5.875 -3.18945,-5.875 z m -70.47535,2.616572 c 0,0 5.15124,2.039364 7.66992,3.195313 2.51868,1.15596 7.4336,3.734375 7.4336,3.734375 0,0 -4.90503,-3.9437 -7.47071,-5.089844 -2.56558,-1.146234 -7.63281,-1.839844 -7.63281,-1.839844 z m 77.42188,0.25 c 0,0 0.74491,4.607854 0.99804,6.917969 0.25311,2.310116 0.51953,6.935547 0.51953,6.935547 0,0 0.69982,-5.111271 0.41993,-7.453125 -0.27986,-2.34186 -1.9375,-6.400391 -1.9375,-6.400391 z m 6.06054,3.357422 c 0,0 0.0901,4.665534 0.0156,6.988281 -0.0745,2.322748 -0.46094,6.939454 -0.46094,6.939454 0,0 1.41042,-4.962376 1.46289,-7.320313 0.0525,-2.357937 -1.01758,-6.607422 -1.01758,-6.607422 z m -93.48828,3.25 c 0,0 5.37558,1.338995 8.02539,2.150391 2.64985,0.811406 7.86328,2.714844 7.86328,2.714844 0,0 -5.38497,-3.257294 -8.08007,-4.052735 -2.69504,-0.795538 -7.8086,-0.8125 -7.8086,-0.8125 z m 104.84961,6.632813 c 0,0 -1.74978,4.326709 -2.73047,6.433594 -0.98069,2.106884 -3.15039,6.201171 -3.15039,6.201171 0,0 3.24649,-4.010297 4.2207,-6.158203 0.97423,-2.147907 1.66016,-6.476562 1.66016,-6.476562 z m -112.2168,2.759765 c -3.44666,-0.03922 -8.13281,0.873047 -8.13281,0.873047 0,0 6.72066,0.470188 10.06641,0.900391 3.34578,0.430206 9.99805,1.677734 9.99804,1.677734 0,0 -7.15041,-2.972429 -10.54687,-3.371093 -0.42455,-0.04985 -0.89239,-0.07448 -1.38477,-0.08008 z m 117.06055,1.66211 c 0,0 -2.63546,3.85148 -4.04492,5.699219 -1.40946,1.847739 -4.40625,5.380859 -4.40625,5.380859 0,0 4.03142,-3.220183 5.44336,-5.109375 1.41194,-1.889192 3.00781,-5.970703 3.00781,-5.970703 z m 4.26172,4.003906 c 0,0 -3.12612,3.464281 -4.76953,5.107422 -1.64342,1.643141 -5.08399,4.746094 -5.08399,4.746094 0,0 4.42283,-2.653997 6.07422,-4.337891 1.6514,-1.683894 3.7793,-5.515625 3.7793,-5.515625 z m -129.79102,1.958984 c -3.41971,0.0081 -9.35546,1.917969 -9.35546,1.917969 0,0 6.72839,-0.331869 10.10156,-0.302734 3.3732,0.02913 10.12695,0.476562 10.12695,0.476562 0,0 -7.45328,-2.100009 -10.87305,-2.091797 z"
       sodipodi:nodetypes="csccccsccccsccccsccccsccccsccccsccccscsccscsccsccccscscscscsscscsccscscccscc" /><path
       id="path41804"
       style="fill:#000000;fill-opacity:0.3;stroke:none;stroke-width:1px;stroke-linecap:butt;stroke-linejoin:miter;stroke-opacity:1"
       d="m 297.67969,53.349609 c 0,0 7.4292,6.330342 9.62695,9.626953 2.19775,3.296615 2.83146,6.091946 3.86719,9.390626 0.24138,0.768783 0.49387,1.750365 0.74023,2.789062 -0.46255,-0.204199 -0.95084,-0.406588 -1.44922,-0.578125 -0.84197,-0.2898 -1.87303,-0.570161 -3.00781,-0.841797 -1.05722,-1.261418 -2.29414,-2.605305 -3.54297,-3.65625 -3.25804,-2.74182 -8.49099,-6.319959 -13.41601,-8.050781 -6.09173,-2.140835 -20.14257,-2.816406 -20.14258,-2.816406 0,0 13.60205,1.635207 19.27344,3.605468 4.89456,1.700401 10.32116,5.72751 13.73242,8.28711 0.95758,0.718509 1.92319,1.540305 2.82812,2.355469 -0.96289,-0.210986 -1.93105,-0.421127 -2.98633,-0.619141 -2.26533,-0.425077 -4.15572,-0.790106 -7.23242,-1.107422 l -0.21093,-0.08203 -17.1875,-2.679688 -24.77735,-0.669922 -25.89258,2.009766 -18.75,1.785156 c 0,0 12.95267,-0.460359 20.54297,-0.708984 7.59029,-0.248624 16.68709,-0.777466 24.99219,-0.853516 6.64668,-0.06086 12.98422,0.232044 19.58203,0.654297 -5.39723,0.245618 -7.50969,-0.268614 -14.23437,1.652344 -6.82149,1.948602 -13.94968,6.198388 -19.65039,10.576172 -4.94859,3.800183 -8.37788,7.671553 -9.47071,10.808593 -1.09283,3.137042 -2.44531,9.156248 -2.44531,9.156248 l 4.73437,-9.076169 6.23438,-5.917969 10.57617,-6.708984 11.44141,-4.103516 13.89062,-2.761719 18.15039,-0.316406 9.86524,1.183594 5.99805,2.447265 2.84179,3.15625 1.41992,2.289063 1.73633,-2.919922 3.15625,-1.65625 5.20899,-1.736328 9.07617,-0.710938 10.17969,0.552735 3.7871,-0.947266 c 0,0 -9.75236,-2.037338 -13.81054,-2.367188 -4.05822,-0.329846 -7.7129,-0.242853 -10.41602,0.07813 -1.49946,0.178044 -2.64031,0.438287 -3.63086,0.708984 0.39128,-0.401034 0.78268,-0.769322 1.1543,-1.070313 2.04791,-1.6587 5.15721,-2.018241 7.58984,-4.242187 2.43267,-2.223946 6.25,-9.150391 6.25,-9.150391 0,0 -5.06321,6.207442 -7.58984,8.257813 -2.52663,2.050371 -5.29285,2.410583 -7.14258,4.242187 -0.6132,0.607194 -1.23708,1.497429 -1.79687,2.417969 -0.1839,0.05761 -0.4213,0.124356 -0.59571,0.177734 -1.40048,0.428632 -2.68359,1.025391 -2.68359,1.025391 0,0 -0.66737,-0.368314 -1.5625,-0.792969 -0.2241,-1.448948 -0.4698,-2.842642 -0.72461,-3.863281 -0.86328,-3.457915 -1.08913,-6.292624 -3.39453,-9.548828 -2.3054,-3.256204 -10.73242,-8.679688 -10.73242,-8.679688 z m -109.6211,72.990231 -0.66992,7.70118 -2.5664,19.41796 -0.66993,23.10352 0.33399,7.92383 3.90625,10.71484 9.93359,12.38867 6.47266,3.34766 c 0,0 -2.39706,-1.8726 -4.79883,-4.57617 -2.40177,-2.70357 -6.73945,-6.9783 -9.04102,-12.05274 -2.30155,-5.07442 -3.08972,-11.07459 -3.79296,-17.96875 -0.70326,-6.89414 -0.0302,-14.88079 0.11132,-23.21484 0.14155,-8.33405 0.78125,-26.78516 0.78125,-26.78516 z m 10.74414,9.41797 c -0.64764,2.9631 -2.36173,11.2154 -2.70898,17.36719 -0.42605,7.54771 -0.31672,18.01097 1.22852,26.33984 1.54522,8.3289 4.44069,17.38485 7.69921,23.21289 3.25854,5.82806 5.34419,9.03294 10.04493,11.94336 2.21378,1.37066 6.11877,2.35372 9.64257,3.02344 l 6.47657,-0.0176 h 6.10351 l -13.56054,-14.23633 -7.45704,-15.59374 -3.39062,-16.27149 v -10.84766 c 0,0 -8.8365,-7.99576 -11.12695,-12.95703 -1.69109,-3.66298 -2.95755,-8.24339 -2.95118,-11.96289 z" /><path
       id="path41809"
       style="fill:#000000;fill-opacity:0.2;stroke:none;stroke-width:1px;stroke-linecap:butt;stroke-linejoin:miter;stroke-opacity:1"
       d="m 208.38867,47.275391 -5.875,5.009765 -8.81445,17.388672 -5.90234,20.496094 -2.43165,17.222658 -0.24023,10.09375 -4.78516,17.42969 -3.74163,23.49721 -0.1116,13.11216 3.17355,20.33984 6.39843,10.53125 5.80664,5.06055 15.5586,6.62305 8.84765,1.51367 7.7793,2.05273 7.13477,-0.0195 6.57702,0.63135 -14.03405,-14.86768 -7.45704,-15.59374 -3.39062,-16.27149 v -10.84766 c 0,0 -8.83649,-7.99576 -11.12695,-12.95703 -2.29046,-4.96127 -3.81667,-11.61818 -2.43164,-15.51758 1.38502,-3.89939 2.86895,-6.30013 6.77929,-6.10156 3.91035,0.19857 7.78009,5.03599 10.84766,8.13672 3.06757,3.10073 7.45703,10.16797 7.45703,10.16797 l -2.71094,-12.20313 0.67774,-6.77929 5.42383,-8.13477 v -12.88281 l 5.42382,-10.167969 13.5586,-10.169922 10.16992,-4.746093 20.33984,-4.746094 h 13.5586 l 12.20312,0.677734 10.52539,7.457032 6.24805,-4.634766 5.28516,-1.664063 11.83984,0.876953 16.27148,-0.679687 5.13951,-7.010602 c -0.71523,-0.166327 -3.82959,2.736193 -6.12779,2.946428 C 349.02157,72.838924 342.8757,71.91233 337.5,71.875 c -5.3757,-0.03733 -13.17126,0.374875 -17.41016,1.339844 -4.23889,0.964969 -8.03711,3.125 -8.03711,3.125 0,0 -2.22418,-2.273389 -7.58789,-4.017578 -5.3637,-1.74419 -17.5966,-3.218785 -25,-3.572266 -7.40339,-0.35348 -14.33486,1.324025 -19.19726,0.892578 -4.86241,-0.431445 -6.80845,-0.397454 -9.82031,-2.232422 -3.01188,-1.834968 -2.61449,-5.00748 -7.14454,-8.482422 -4.53004,-3.474941 -11.61726,-7.356734 -20.98046,-9.820312 -3.2667,-0.85951 -8.51332,-1.433566 -13.9336,-1.832031 z"
       sodipodi:nodetypes="cccccccccccccccccccccsssscccccccccccccccccssscssssssc" /></g></svg>
