<?xml version="1.0" encoding="UTF-8" standalone="no"?>
<!-- Created with Inkscape (http://www.inkscape.org/) -->

<svg
   width="400"
   height="400"
   viewBox="0 0 400 400"
   version="1.1"
   id="svg1"
   xml:space="preserve"
   inkscape:version="1.3-alpha (95f74fb, 2023-03-31)"
   sodipodi:docname="chinLengthBob.svg"
   xmlns:inkscape="http://www.inkscape.org/namespaces/inkscape"
   xmlns:sodipodi="http://sodipodi.sourceforge.net/DTD/sodipodi-0.dtd"
   xmlns="http://www.w3.org/2000/svg"
   xmlns:svg="http://www.w3.org/2000/svg"><sodipodi:namedview
     id="namedview1"
     pagecolor="#ffffff"
     bordercolor="#666666"
     borderopacity="1.0"
     inkscape:showpageshadow="2"
     inkscape:pageopacity="0.0"
     inkscape:pagecheckerboard="0"
     inkscape:deskcolor="#d1d1d1"
     inkscape:document-units="px"
     inkscape:zoom="2.17"
     inkscape:cx="200"
     inkscape:cy="200"
     inkscape:window-width="1960"
     inkscape:window-height="1081"
     inkscape:window-x="2484"
     inkscape:window-y="155"
     inkscape:window-maximized="0"
     inkscape:current-layer="layer2" /><defs
     id="defs1" /><g
     inkscape:groupmode="layer"
     id="layer3"
     inkscape:label="Back"><path
       style="fill:#383838;fill-opacity:1;stroke:none;stroke-width:1px;stroke-linecap:butt;stroke-linejoin:miter;stroke-opacity:1"
       d="m 267.28111,29.953917 7.37327,-5.529954 7.69955,-1.614067 14.17472,2.118062 18.89963,4.561979 14.33765,8.472247 13.84886,13.360082 6.51712,12.219588 5.8654,18.247917 3.91027,10.590309 4.07319,20.20305 0.97757,24.76503 -2.60685,22.32111 -6.02833,20.85477 -9.44981,23.95039 -5.17296,10.22372 c 0,0 0.81083,-2.09634 1.72801,-4.62555 0.91718,-2.52921 2.18226,-8.08282 2.18226,-8.08282 l -6.23199,12.58617 c 0,0 1.57844,-3.2283 2.37847,-5.50589 0.80003,-2.27758 2.34644,-8.18005 2.34644,-8.18005 l -6.59858,13.76741 c 0,0 0.98374,-2.54734 1.46351,-4.24344 0.47977,-1.6961 1.38773,-5.93955 1.38773,-5.93955 l -4.0732,7.6576 -3.13636,5.74321 c 0,0 3.52238,-7.20476 4.60271,-10.30518 1.08033,-3.10042 1.95514,-8.47225 1.95514,-8.47225 l -2.44045,6.08892 -2.61032,5.1531 -4.27686,8.39078 c 0,0 1.99783,-4.51276 2.72956,-6.56899 0.73173,-2.05623 2.6878,-7.48353 2.6878,-7.48353 0,0 -2.57978,4.4178 -3.44741,5.80361 -0.86763,1.3858 -2.74385,4.25718 -2.74385,4.25718 l -6.51711,9.28689 c 0,0 -5.53955,0.65171 -4.88784,0.16292 0.65171,-0.48878 21.34355,-49.04127 21.34355,-49.04127 l 1.14049,-27.04602 2.9327,-25.90553 L 338.4011,83.419049 326.50737,62.564287 308.58531,43.664658 277.79195,33.726061 Z"
       id="path212"
       sodipodi:nodetypes="cccccccccccccccczcczcczccczcccczczccscccccccc" /><path
       id="path213"
       style="fill:#000000;fill-opacity:0.2;stroke:none;stroke-width:1px;stroke-linecap:butt;stroke-linejoin:miter;stroke-opacity:1"
       d="M 316.02539 51.509766 L 326.50781 62.564453 L 338.40039 83.419922 L 343.61523 122.19531 L 340.68164 148.10156 L 339.54102 175.14648 C 339.54102 175.14648 318.84897 223.70067 318.19727 224.18945 C 317.54556 224.67824 323.08594 224.02539 323.08594 224.02539 L 329.60352 214.73828 C 329.60352 214.73828 331.48003 211.86822 332.34766 210.48242 C 333.21529 209.09661 335.79492 204.67773 335.79492 204.67773 C 335.79492 204.67773 333.83915 210.10588 333.10742 212.16211 C 332.37569 214.21834 330.37695 218.73047 330.37695 218.73047 L 334.6543 210.33984 L 337.26367 205.1875 L 339.70508 199.09766 C 339.70508 199.09766 338.83033 204.4699 337.75 207.57031 C 336.66967 210.67073 333.14648 217.875 333.14648 217.875 L 336.2832 212.13281 L 340.35547 204.47461 C 340.35547 204.47461 339.44852 208.71796 338.96875 210.41406 C 338.48898 212.11016 337.50586 214.6582 337.50586 214.6582 L 344.10352 200.89062 C 344.10352 200.89063 342.55784 206.79273 341.75781 209.07031 C 340.95778 211.3479 339.37891 214.57617 339.37891 214.57617 L 345.61133 201.99023 C 345.61133 201.99023 344.34491 207.54306 343.42773 210.07227 C 342.51056 212.60147 341.70117 214.69727 341.70117 214.69727 L 346.87305 204.47461 L 348.86914 199.41602 C 351.93207 184.67419 355.15026 167.88678 356.2207 157.60352 C 358.45438 136.14554 360.53818 117.27395 357.14258 100.92188 C 353.74697 84.569798 349.50088 70.565555 339.16992 61.291016 C 333.9203 56.578212 324.2696 53.454545 316.02539 51.509766 z " /><path
       style="fill:#ffffff;fill-opacity:0.3;stroke:none;stroke-width:1px;stroke-linecap:butt;stroke-linejoin:miter;stroke-opacity:1"
       d="m 272.69585,26.728111 c 0,0 5.35646,-1.240028 7.60369,-1.382489 2.24723,-0.142461 6.91245,0.345622 6.91245,0.345622 l -5.87558,2.073733 5.87557,-0.921659 6.56682,-0.115208 5.18433,0.92166 -8.52534,1.72811 -4.37788,1.958526 c 0,0 4.20349,-0.771438 6.79723,-1.036867 2.59374,-0.265429 6.35185,-0.471124 8.75576,-0.460829 2.40391,0.01029 5.64516,0.345622 5.64516,0.345622 l 4.37789,0.806451 -7.25807,0.576037 6.79724,0.345622 5.29953,1.612904 -5.76036,-0.576037 -7.7189,0.460829 c 0,0 10.44385,0.900473 14.28572,1.843318 3.84187,0.942845 6.20173,1.780535 8.75576,3.225807 2.55403,1.445272 6.45161,5.184332 6.45161,5.184332 l -5.87558,-2.764977 -8.75576,-2.419355 -5.41474,-0.806452 c 0,0 10.82949,3.456222 14.63133,5.414747 3.80184,1.958525 7.76145,4.474115 10.02304,6.10599 2.41065,1.73943 4.72351,5.414747 4.72351,5.414747 0,0 -3.49348,-3.008761 -5.29954,-3.917051 -1.80606,-0.90829 -5.29954,-1.612903 -5.29954,-1.612903 0,0 8.38512,4.971449 11.29032,8.294931 2.90521,3.323482 5.08598,7.610331 7.48848,12.211982 2.40249,4.601651 7.48848,16.705069 7.48848,16.705069 l -8.41014,-25.115208 -5.87557,-9.562212 -7.48848,-8.986175 -11.17512,-8.75576 -11.52074,-5.414747 -11.29032,-3.110599 -12.32719,-2.073733 -8.52534,-0.230414 L 274.88479,25 Z"
       id="path214"
       sodipodi:nodetypes="czccccccczzccccccczzcccczsczczzccccccccccc" /><path
       id="path188"
       style="color:#000000;fill:#000000;-inkscape-stroke:none"
       d="M 282.73633 22.46875 C 280.7805 22.48552 279.16313 22.696744 277.38477 23.144531 C 273.58488 24.101316 269.21875 27.378906 269.21875 27.378906 L 270.39844 28.994141 C 270.39844 28.994141 274.81976 25.852785 277.87305 25.083984 C 281.16939 24.25398 283.70013 24.296347 289.9082 24.945312 C 290.38209 24.994851 291.05265 25.107416 291.58398 25.173828 C 291.10851 25.1795 290.66717 25.195695 290.29297 25.226562 C 287.25511 25.477156 284.9125 25.972228 282.59375 26.861328 C 280.21153 27.774764 276.52734 30.357422 276.52734 30.357422 L 276.92773 30.931641 C 276.92773 30.931641 280.65415 28.355201 282.84375 27.515625 C 285.09681 26.651713 287.35936 26.172612 290.35156 25.925781 C 292.13512 25.778656 295.46182 25.979029 297.87891 26.160156 C 300.35671 26.608489 302.9072 27.10618 305.45703 27.730469 C 303.64455 27.574754 301.83761 27.466387 300.39648 27.494141 C 300.08489 27.500141 299.78964 27.51217 299.51562 27.53125 C 295.19622 27.832033 291.21377 29.0544 288.13867 30.082031 C 285.01623 31.125484 280.93945 33.332031 280.93945 33.332031 L 281.27148 33.949219 C 281.27148 33.949219 285.3458 31.753169 288.35938 30.746094 C 291.42028 29.723197 295.34671 28.522215 299.56445 28.228516 C 301.64094 28.08392 305.156 28.36899 308.12891 28.693359 C 308.73727 28.759738 309.14589 28.816764 309.69336 28.882812 C 311.32455 29.367705 312.88593 29.875855 314.24219 30.417969 C 315.13525 30.774935 315.90945 31.152626 316.73828 31.519531 C 315.85333 31.27996 315.01239 31.077028 314.33398 30.984375 C 310.51169 30.462346 307.51921 30.926055 303.86719 31.449219 C 300.21514 31.972377 292.54297 34.222656 292.54297 34.222656 L 292.71094 34.902344 C 292.71094 34.902344 300.35857 32.661391 303.9668 32.144531 C 307.575 31.627674 310.46965 31.174382 314.23828 31.689453 C 316.07292 31.940198 318.94039 32.869292 321.40625 33.757812 C 322.91988 34.585132 324.33601 35.507409 325.74219 36.455078 C 322.71838 35.143536 319.26309 33.774696 316.88867 33.296875 C 314.40681 32.79743 311.84058 32.668451 309.4375 32.699219 C 307.03442 32.729989 304.79526 32.920442 302.96875 33.060547 C 299.26303 33.3448 294.8457 34.453125 294.8457 34.453125 L 295.01562 35.132812 C 295.01562 35.132812 299.41241 34.036604 303.02148 33.759766 C 306.6833 33.47888 311.92616 33.013238 316.75195 33.984375 C 319.13249 34.46343 322.87983 35.955257 326.00391 37.326172 C 326.9724 37.751169 327.83849 38.147743 328.63281 38.515625 C 329.55276 39.215668 330.46879 39.902009 331.40625 40.685547 C 335.44851 44.064122 338.98894 47.406696 342.37109 52.013672 C 341.0833 50.627415 339.78408 49.297927 338.71094 48.369141 C 335.2685 45.389778 331.73988 42.580209 327.54492 40.738281 C 323.34624 38.894713 318.02791 37.901315 314.06836 37.613281 C 310.05424 37.32128 304.12305 38.433594 304.12305 38.433594 L 304.25 39.121094 C 304.25 39.121094 310.18419 38.031691 314.01758 38.310547 C 317.90552 38.593373 323.18032 39.585974 327.26367 41.378906 C 331.35078 43.173479 334.82597 45.931623 338.25391 48.898438 C 340.27831 50.650527 343.11038 53.823842 345.14844 56.183594 C 345.32815 56.47616 345.50809 56.744579 345.6875 57.046875 C 350.01256 64.334507 353.70943 78.122757 356.18945 85.529297 C 358.65191 92.883264 359.33675 94.071996 360.72266 100.57227 C 362.109 107.0747 363.48714 115.48589 363.79688 124.51172 C 364.10806 133.58006 363.93021 143.36292 362.01758 154.61328 C 361.62649 156.9137 361.0849 159.43728 360.47656 162.03711 C 361.25685 157.05332 362.05958 151.3914 362.30078 147.73242 C 362.80927 140.01899 362.85922 133.06884 362.53125 126.24023 C 362.20132 119.37078 359.9082 106.91211 359.9082 106.91211 C 359.9082 106.91211 361.10761 119.54633 361.43164 126.29297 C 361.75763 133.08046 361.70908 139.9852 361.20312 147.66016 C 360.85891 152.88171 360.01929 160.7993 359.41016 166.36328 C 357.09399 175.29851 354.01516 184.81586 351.47656 191.57812 C 347.78196 201.41986 341.66016 214.74023 341.66016 214.74023 C 341.66016 214.74023 349.56467 202.36351 353.34961 192.28125 C 357.11056 182.26288 362.03993 166.40967 363.98828 154.94922 C 365.92964 143.52988 366.10872 133.58714 365.79492 124.44336 C 365.47967 115.25707 364.08104 106.73615 362.67773 100.1543 C 361.27399 93.570226 360.53364 92.204449 358.08594 84.894531 C 355.65584 77.637189 352.03561 63.822477 347.4082 56.025391 C 342.86837 48.375823 338.14447 43.711406 332.6875 39.150391 C 327.20981 34.572055 322.11395 31.410324 314.98438 28.560547 C 307.75191 25.669647 296.44163 23.616409 290.11523 22.955078 C 286.98634 22.627994 284.69216 22.451982 282.73633 22.46875 z M 327.49023 48.712891 C 325.47562 48.727721 323.82422 48.84375 323.82422 48.84375 L 323.87305 49.542969 C 323.87305 49.542969 325.50567 49.426766 327.49609 49.412109 C 329.48653 49.397449 331.84615 49.49595 333.19922 49.876953 C 336.00309 50.666484 338.5027 52.314741 340.44141 53.953125 C 342.31387 55.535535 345.04492 59.101562 345.04492 59.101562 C 345.04492 59.101562 342.94864 55.155833 340.89453 53.419922 C 338.90666 51.739985 336.33425 50.032007 333.39062 49.203125 C 331.86996 48.774924 329.50486 48.698056 327.49023 48.712891 z M 332.40625 57.111328 L 332.10938 57.634766 C 332.10938 57.634766 336.00802 59.855564 337.69336 61.503906 C 339.4112 63.184042 340.77242 65.329122 342.25391 67.78125 C 343.70853 70.188922 346.66016 76.037109 346.66016 76.037109 C 346.66016 76.037109 344.27983 69.973746 342.76758 67.470703 C 341.40335 65.212652 340.12444 63.183605 338.54102 61.513672 C 339.11726 61.874873 339.7319 62.281102 340.24609 62.671875 C 340.9424 63.201049 342.01758 64.328022 342.95898 65.470703 C 343.9004 66.613384 345.50586 69.007813 345.50586 69.007812 C 345.50586 69.007812 344.39991 66.442589 343.45117 65.291016 C 342.50243 64.139441 341.38889 62.846533 340.63086 62.212891 C 339.51438 61.279614 337.77232 60.455154 336.97852 60.103516 C 335.0327 58.588925 332.40625 57.111328 332.40625 57.111328 z M 348.82812 72.177734 C 348.82812 72.177734 351.1752 78.219174 352.41016 81.505859 C 353.65435 84.817118 355.11211 88.769982 355.90039 92.134766 C 356.04185 92.738583 356.17408 93.449613 356.30078 94.1875 C 356.02097 93.205067 355.72367 92.221476 355.41406 91.25 C 354.33984 87.879384 351.0293 81.382812 351.0293 81.382812 C 351.0293 81.382812 353.42654 88.309025 354.46094 91.554688 C 355.51045 94.847787 356.43241 98.278473 356.88867 101.25391 C 357.3388 104.18931 357.87109 109.40625 357.87109 109.40625 C 357.87109 109.40625 358.30021 104.7643 357.94727 101.63672 L 357.97461 101.63477 C 357.97461 101.63477 357.39111 95.428189 356.58203 91.974609 C 355.77789 88.54213 354.31173 84.574039 353.06641 81.259766 C 351.81185 77.92092 348.82813 72.177734 348.82812 72.177734 z M 352.70703 94.068359 C 352.70703 94.068359 354.37429 106.10953 355.125 111.74023 C 355.87813 117.38911 356.63592 122.80404 356.9082 127.95703 C 357.17963 133.09369 357.20117 142.68359 357.20117 142.68359 C 357.20117 142.68359 357.88286 133.13174 357.60742 127.91992 C 357.33289 122.72446 356.5711 117.29243 355.81836 111.64648 C 355.06319 105.98238 352.70703 94.068359 352.70703 94.068359 z M 357.70703 111.11719 C 357.70703 111.11719 358.71738 117.65632 359.23438 122.47852 C 359.75045 127.29202 359.7451 135.09154 359.7207 140.2793 C 359.6964 145.45625 359.64675 150.09285 359.47656 152.96875 C 359.30669 155.83859 359.25586 157.55078 359.25586 157.55078 C 359.25586 157.55078 359.76091 156.46437 359.93164 153.58008 C 360.10201 150.70184 360.39546 145.48441 360.41992 140.2832 C 360.44432 135.0928 360.45432 127.29556 359.92969 122.40234 C 359.406 117.51781 357.70703 111.11719 357.70703 111.11719 z M 352.36133 112.03906 C 352.36133 112.03906 352.41635 119.93814 352.64648 124.1543 C 352.87678 128.3741 353.2535 133.5865 353.39453 137.33984 C 353.53582 141.10025 353.7129 142.994 353.73828 146.66211 C 353.75778 149.48128 353.71578 155.5047 353.77539 158.08789 C 353.12205 163.52527 352.26997 168.76028 351.04297 173.53125 C 349.73508 178.61671 347.78091 183.24079 346.21484 187.55273 C 344.657 191.84208 342.05078 199.42383 342.05078 199.42383 C 342.05078 199.42383 345.30782 192.1026 346.87305 187.79297 C 348.43006 183.50593 350.39645 178.85417 351.7207 173.70508 C 353.04266 168.5649 353.9407 162.9233 354.61133 157.06836 C 355.28566 151.18114 355.29883 138.59375 355.29883 138.59375 C 355.29883 138.59375 354.63503 150.12861 353.99414 156.19336 C 354.12069 153.29448 354.28496 149.2212 354.26758 146.71484 C 354.24218 143.04771 354.23538 141.08322 354.09375 137.31445 C 353.95188 133.53865 353.57544 128.32675 353.3457 124.11719 C 353.11576 119.90395 352.36133 112.03906 352.36133 112.03906 z M 358.41016 122.92578 C 358.41016 122.92578 358.65825 131.99518 358.40625 138.23438 C 358.15366 144.4905 357.29677 153.11673 356.10547 160.42773 C 355.24774 165.69155 354.21752 171.06658 352.92188 176.18359 C 351.60289 179.28752 347.97783 187.80982 346.10938 192.02344 C 343.87279 197.06724 341.80159 201.51839 339.55078 205.82812 C 337.30664 210.1251 332.94922 218.08789 332.94922 218.08789 C 332.94922 218.08789 337.90437 210.49408 340.17188 206.15234 C 342.43272 201.82339 344.50845 197.35919 346.74805 192.30859 C 348.29546 188.81897 351.03537 181.57232 352.63867 177.2793 C 352.21313 178.89798 351.76451 180.49146 351.2793 182.03906 C 349.16548 188.78117 345.9968 195.36316 343.57422 200.89648 C 341.16182 206.40656 337.21094 215.32422 337.21094 215.32422 C 337.21094 215.32422 341.7903 206.71557 344.21484 201.17773 C 346.62921 195.66317 349.81265 189.05648 351.94727 182.24805 C 354.07943 175.44739 355.60139 167.8777 356.79688 160.54102 C 357.99367 153.19634 358.85136 144.5575 359.10547 138.26367 C 359.36026 131.95294 358.41016 122.92578 358.41016 122.92578 z M 351.20898 127.70703 C 351.20898 127.70703 351.00769 134.54026 351.0332 138.94141 C 351.0588 143.34967 351.12021 149.50145 350.97461 154.13672 C 350.84284 158.33107 350.55479 164.82502 350.49609 166.13867 C 350.13541 167.79366 349.7726 169.34376 349.43359 170.52539 C 347.78821 176.26049 345.96419 180.50481 343.45508 186.5 C 340.94663 192.49361 336.97939 201.95832 334.48047 206.86914 C 331.98047 211.78209 329.49414 215.89844 329.49414 215.89844 C 329.49414 215.89844 332.57873 212.15102 335.10547 207.18555 C 337.63328 202.21794 341.59298 192.76545 344.10156 186.77148 C 346.60949 180.77913 348.44753 176.49758 350.10547 170.71875 C 351.77811 164.88869 353.22656 151.49805 353.22656 151.49805 C 353.22656 151.49805 352.24553 157.52187 351.10938 163.20312 C 351.32609 160.47986 351.58948 156.84312 351.67383 154.1582 C 351.82023 149.49727 351.75802 143.34291 351.73242 138.9375 C 351.70682 134.52495 351.20898 127.70703 351.20898 127.70703 z M 348.44531 131.39258 C 348.44531 131.39258 348.62933 136.75483 348.78516 140.74023 C 348.94161 144.74153 349.06672 150.88092 348.90234 155.45898 C 348.73738 160.05353 348.37937 164.85416 347.69727 168.48438 C 347.01879 172.09521 345.23438 177.18652 345.56445 177.30273 C 345.56445 177.30273 347.68738 172.32476 348.38477 168.61328 C 349.0785 164.9212 349.49237 159.98767 349.6582 155.36914 C 349.82463 150.73415 349.46837 144.92973 349.3125 140.94336 C 349.15601 136.9411 348.44531 131.39258 348.44531 131.39258 z M 345.62109 169.92969 C 345.62109 169.92969 342.40922 183.93305 340.45117 189.75 C 338.48155 195.60133 335.99794 200.4614 333.78711 205.03125 C 331.5766 209.60046 329.18415 214.75695 327.375 217.06445 C 326.50273 218.24544 324.78516 221.80664 324.78516 221.80664 C 324.78516 221.80664 327.68716 217.80044 327.92578 217.49609 C 329.85911 215.0302 332.20973 209.89639 334.41602 205.33594 C 336.62198 200.77612 339.12623 195.88158 341.11523 189.97266 C 343.11582 184.02934 345.62109 169.92969 345.62109 169.92969 z M 355.87695 174.30859 C 355.87695 174.30859 352.80886 183.89882 350.82422 189.16211 C 348.8361 194.4346 345.50765 201.49457 343.46289 205.8418 C 341.42356 210.17748 339.05469 215.4375 339.05469 215.4375 C 339.05469 215.4375 342.04591 210.49859 344.0957 206.14062 C 346.14008 201.79421 349.47415 194.73091 351.48047 189.41016 C 353.49026 184.08018 355.87695 174.30859 355.87695 174.30859 z M 345.16016 186.05859 C 345.16016 186.05859 341.84164 193.83297 340.3457 197.44727 C 338.84382 201.07592 337.57806 204.15338 335.86133 207.68164 C 334.15201 211.19466 330.29883 218.77734 330.29883 218.77734 C 330.29883 218.77734 334.75526 211.55209 336.49023 207.98633 C 338.2178 204.4358 339.49064 201.3427 340.99219 197.71484 C 342.49969 194.07263 345.16016 186.05859 345.16016 186.05859 z " /><path
       id="path215"
       style="fill:#000000;fill-opacity:0.3;stroke:none;stroke-width:1px;stroke-linecap:butt;stroke-linejoin:miter;stroke-opacity:1"
       d="m 318.32422,53.935547 8.18359,8.628906 11.89258,20.855469 5.21484,38.775388 -2.93359,25.90625 -1.14062,27.04492 c 0,0 -20.69206,48.55419 -21.34375,49.04297 -0.35639,0.2673 1.02277,0.19823 2.45117,0.0762 l 5.95898,-8.49023 c 0,0 1.87651,-2.87006 2.74414,-4.25586 0.86763,-1.38581 3.44727,-5.80469 3.44727,-5.80469 0,0 -1.95577,5.42815 -2.6875,7.48438 -0.17344,0.48737 -0.50504,1.25135 -0.77735,1.92187 l 0.26954,-0.38281 c 0,0 0.90975,-1.41512 1.6289,-2.52734 l 0.42578,-0.83399 2.60938,-5.15234 2.4414,-6.08984 c 0,0 -0.87474,5.37224 -1.95507,8.47265 -0.64431,1.8491 -1.95575,4.71433 -3.07227,7.08399 -0.41143,0.97245 -0.56091,1.32983 -0.81055,1.90039 l 1.28516,-2.35157 2.49805,-4.90039 2.60937,-5.15234 2.44141,-6.08984 c 0,0 -0.87475,5.37225 -1.95508,8.47265 -0.4569,1.31125 -1.3549,3.34368 -2.23438,5.26758 -0.26553,0.79365 -0.43505,1.31858 -0.63867,1.86719 l 0.86719,-1.58399 5.36328,-11.19336 c 0,1e-5 -0.44973,1.68932 -0.99023,3.63086 -0.26598,1.2219 -0.76733,3.49484 -1.13672,4.81055 l 3.63476,-7.3418 c 0,0 -0.2702,1.11666 -0.47265,1.95704 l 1.96094,-4.09376 c 0,10e-6 -1.54568,5.90211 -2.34571,8.17969 -0.37382,1.06423 -0.91529,2.32002 -1.38867,3.37305 l 3.06445,-6.05274 0.48047,-0.97265 1.95899,-4.96485 c 3.06292,-14.74181 4.65184,-31.36632 5.72228,-41.64957 2.23368,-21.45795 2.03648,-36.09346 -1.35912,-52.44552 -3.3956,-16.352064 -6.82706,-30.845107 -16.01751,-41.42306 -3.66153,-4.214309 -9.10603,-9.056985 -15.89448,-10.999423 z"
       sodipodi:nodetypes="ccccccsccscsccccccsccccccscccccccccsccccsssc" /></g><g
     inkscape:groupmode="layer"
     id="layer2"
     inkscape:label="Front"
     style="display:inline;opacity:1"><path
       style="display:inline;opacity:1;fill:#383838;fill-opacity:1;stroke:none;stroke-width:1px;stroke-linecap:butt;stroke-linejoin:miter;stroke-opacity:1"
       d="m 350.21337,119.87415 -0.0815,-15.27448 -2.11807,-13.03423 -7.82053,-22.972824 -9.12396,-14.011793 -7.65761,-7.005897 -13.68594,-7.657608 -15.47814,-6.191257 -16.12985,-5.050763 -19.55134,-3.421484 -20.36598,2.769773 -15.31522,8.798103 -11.89373,10.427381 -11.89373,16.292783 -10.26446,20.365978 -6.68004,25.253818 -2.76977,26.06845 0.32586,21.99526 3.58441,19.71426 3.09563,9.9386 5.8654,9.9386 10.3006,14.83462 c 0,0 4.31752,4.61506 6.46209,6.2824 2.14457,1.66735 6.21013,3.81094 6.21013,3.81094 0,0 -6.15172,-10.31218 -5.33709,-9.33461 0.31069,0.37282 2.24341,2.68058 3.92353,4.29036 3.19024,3.05667 7.47324,5.89024 7.47324,5.89024 l -7.03724,-8.82946 4.31506,4.42305 3.82314,3.75469 8.59564,8.64336 -1.41863,-4.27565 2.55913,1.62108 c 0,0 3.15577,1.62186 2.77676,1.06723 -1.67001,-2.44392 -5.01003,-11.32349 -5.01003,-11.32349 l 1.83293,2.9327 c 0,0 -0.77953,-2.01859 -1.34415,-4.56198 -0.56462,-2.54339 -1.60947,-8.52973 -1.62928,-10.75323 -0.0198,-2.2235 0.32586,-2.44392 0.32586,-2.44392 l 5.37662,12.70837 1.42561,2.81051 c 0,0 -2.07732,-6.72078 -1.26268,-6.06907 0.81463,0.65171 3.46221,6.19126 3.46221,6.19126 0,0 -0.73245,-3.38328 -1.22196,-6.31345 -0.4895,-2.93017 -1.58854,-11.28276 -1.58854,-11.28276 l -3.58442,-21.18061 4.0732,10.42738 4.68418,8.67591 c 0,0 -1.32869,-3.69076 -1.87367,-6.19126 -0.54498,-2.50051 -0.69245,-7.20956 -0.69245,-7.20956 l 2.56611,7.73907 c 0,0 -0.23814,-1.26603 -0.48878,-2.68831 -0.25064,-1.42228 -1.53769,-7.13712 -1.87367,-10.18298 -0.33598,-3.04586 -0.57025,-5.94688 -0.57025,-5.94688 l -1.26269,-17.27034 c 0,0 -0.11443,-1.90974 0.40732,-5.49882 0.52175,-3.58908 3.1771,-15.84473 3.1771,-15.84473 l 3.58441,-18.89963 c 0,0 -0.80955,12.93369 -0.69244,12.66764 0.13229,-0.30056 3.71347,-14.50621 4.11392,-14.45984 0.40045,0.0464 0.77391,13.7674 0.77391,13.7674 0,0 0.64209,-6.62144 1.0183,-9.0425 0.37621,-2.42106 1.95513,-3.58441 1.95513,-3.58441 l 0.32586,3.99173 c 0,0 1.47756,-6.28463 1.95513,-6.27272 0.47757,0.0119 2.40319,7.29103 2.40319,7.29103 0,0 1.02435,-3.66999 1.34415,-3.70661 0.3198,-0.0366 0.36659,3.42148 0.36659,3.42148 0,0 1.11986,-2.08059 2.07733,-3.58441 0.95747,-1.50382 3.74734,-5.37662 3.74734,-5.37662 l -0.28512,5.49881 c 0,0 1.76351,-5.60794 2.24025,-5.66174 0.47674,-0.0538 0.44805,4.11393 0.44805,4.11393 l 2.81051,-5.41735 -0.73318,4.88784 c 0,0 2.85274,-4.7704 3.34003,-4.88784 0.48729,-0.11744 -0.1222,3.58441 -0.1222,3.58441 0,0 3.60101,-5.04321 4.35832,-5.05076 0.75731,-0.008 -0.65171,5.21369 -0.65171,5.21369 2.14522,-1.83294 3.72019,-3.29929 5.21369,-5.8654 l -0.65171,5.53954 2.60684,-5.05076 c -0.21724,1.90082 -0.43447,3.80165 -0.65171,5.70247 1.84651,-1.57497 2.71546,-3.14994 3.58441,-5.70247 l -1.14049,8.47225 c 0,0 0.95503,-1.46518 1.71074,-2.36246 0.7557,-0.89729 2.85124,-2.68831 2.85124,-2.68831 l -0.52951,3.21783 0.20365,1.83294 2.9327,-4.39905 c 1.49351,0.65171 2.09091,1.58854 2.64758,2.8105 1.04545,-2.02302 1.96871,-3.59799 3.38075,-5.09149 l -1.30342,5.37662 c 1.24912,-2.00944 2.2131,-3.28571 3.74734,-4.56198 l -1.05903,7.37248 c 1.20838,-3.01417 2.3353,-5.37662 3.99173,-7.69834 l -1.30342,6.35419 3.25855,-4.88784 -0.69243,4.15466 c 1.09976,0.96399 1.01829,1.84651 0.85536,3.62514 0,0 1.28553,-2.79943 1.75148,-2.72903 0.46595,0.0704 0.69244,1.62927 0.69244,1.62927 l 3.58441,-8.63517 -1.7922,11.07909 c 0.81464,-1.69717 1.95513,-3.4758 3.42148,-4.72491 l -0.69244,5.13223 c 0,0 1.36213,-3.15462 1.95513,-3.17709 0.593,-0.0225 1.26269,2.64758 1.26269,2.64758 0.8418,-2.85124 1.64286,-4.39906 2.76977,-6.27273 l -0.6517,4.88784 c 1.14927,-3.15819 1.92975,-4.77448 3.25855,-6.19126 l -1.18123,6.43565 c 1.33058,-2.64758 2.4575,-4.39905 4.35832,-6.23199 l -0.32585,9.12396 c 0,0 0.12844,-1.02886 0.69244,-2.52539 0.564,-1.49653 3.0549,-6.27272 3.0549,-6.27272 1.12691,1.72432 1.35773,3.97816 1.42561,6.27273 1.46635,-2.24026 2.44392,-3.951 3.29929,-6.59858 l -1.38489,6.27272 c 2.11807,-2.70189 3.42149,-5.40377 4.15467,-8.71664 l -0.32586,9.04249 c 0,0 1.35615,-3.41902 2.48465,-5.66174 1.1285,-2.24272 3.0549,-5.33588 3.0549,-5.33588 l -0.32586,7.49468 c 0,0 1.20993,-3.23332 2.0366,-3.29929 0.82668,-0.066 1.54782,2.36245 1.54782,2.36245 0.99114,-4.14108 1.65643,-5.91971 3.09562,-8.51298 l 0.81465,7.57615 c 0.36659,-2.74262 0.65171,-4.54841 1.46635,-6.51712 l 0.44805,5.33589 c 0.19008,-2.14521 0.50235,-3.59799 1.18122,-5.09149 0.65171,3.32644 1.1405,6.93801 1.22196,10.7125 z"
       id="path131"
       sodipodi:nodetypes="cccccccccccccccccccccczcsscccccccscczzcccsczcccczcczzcczccszczcczczczcczccczczccccccczcccccccccccccczccccczccccccczcccccczcczccccccc" /><path
       id="path1"
       style="color:#000000;fill:#000000;-inkscape-stroke:none"
       d="m 252.86719,24.847656 c -1.5261,0.03791 -2.94097,0.142174 -4.18555,0.332032 -9.55421,1.457466 -16.61232,4.248994 -24.875,9.855468 -8.35227,5.667267 -16.4058,14.876395 -22.86914,24.248047 -6.49378,9.415788 -11.83116,21.122422 -15.34375,31.611328 -3.51622,10.499749 -4.8716,19.372059 -6.04297,30.650389 -1.1757,11.32006 -1.61645,25.92415 -0.46094,37.09375 1.15204,11.13605 4.09705,21.74953 7.21875,28.99024 2.91282,6.75617 7.24024,10.98828 7.24024,10.98828 0,0 -3.27861,-5.08781 -5.89453,-11.47657 -2.62773,-6.41755 -5.24229,-17.77924 -6.375,-28.72851 -1.12925,-10.91572 -0.70039,-25.45701 0.46093,-36.63867 1.16567,-11.22339 2.48746,-19.8717 5.93946,-30.17969 3.45561,-10.318822 8.73926,-21.883559 15.06836,-31.060547 6.35952,-9.221123 14.31685,-18.265706 22.29297,-23.677734 8.0657,-5.472822 14.66748,-8.080525 23.97265,-9.5 4.45136,-0.679042 12.17622,-0.826046 18.68164,-0.07422 6.50544,0.75183 15.25391,3.248047 15.25391,3.248047 0,0 -8.42705,-3.982328 -15.00195,-4.742188 -3.28746,-0.379929 -6.85812,-0.721265 -10.23047,-0.873047 -1.68619,-0.07589 -3.32352,-0.10432 -4.84961,-0.06641 z m -0.49219,3.011719 c 0,0 -3.49881,0.289882 -7.625,1.259766 -4.12619,0.969883 -8.93307,2.26688 -11.75391,3.640625 -5.56964,2.71242 -9.58199,6.491712 -13.60547,10.158203 -2.79103,2.543408 -6.69809,7.076903 -8.82421,9.78125 -0.82963,1.003681 -1.36719,1.71875 -1.36719,1.71875 0,0 0.24031,-0.227286 0.25195,-0.238281 -0.27415,0.394662 -0.45801,0.690833 -0.41406,0.726562 0,0 0.7921,-0.895223 1.83594,-2.0625 1.03256,-0.974199 2.07028,-1.956657 3.9414,-3.708984 2.66997,-2.500446 7.57189,-6.717681 10.89063,-9.265625 3.3105,-2.54164 8.74805,-6.470703 8.74804,-6.470703 0,0 -5.81523,3.337458 -9.17382,5.916015 -2.35375,1.80708 -5.46009,4.415567 -8.04102,6.6875 0.93311,-0.95053 1.84065,-1.851646 2.625,-2.566406 4.02899,-3.671514 7.98098,-7.388595 13.43945,-10.046875 2.69325,-1.311608 7.4994,-2.622275 11.60743,-3.587891 4.10801,-0.965615 7.46484,-1.941406 7.46484,-1.941406 z m -4.5625,1.630859 c 0,0 -9.04865,3.448062 -13.4082,6.177735 -4.36387,2.73236 -12.16993,9.951172 -12.16992,9.951172 0,0 6.41972,-5.083714 10.85156,-8.123047 3.3124,-1.175157 9.59339,-3.359056 13.02344,-4.246094 4.79639,-1.240385 10.12541,-1.78477 13.64648,-2.273438 3.49519,-0.485074 7.3125,-0.811523 7.2832,-1.160156 0,0 -3.85944,-0.02191 -7.38086,0.466797 -3.49553,0.485124 -8.85479,1.02969 -13.72461,2.289063 -3.26864,0.845299 -8.83081,3.088197 -12.20507,4.5 0.37595,-0.25112 0.76858,-0.519296 1.0996,-0.726563 4.22752,-2.646985 12.98438,-6.855469 12.98438,-6.855469 z m 12.54688,1.464844 c 0,0 -5.99671,1.810804 -8.98047,3.611328 -2.99226,1.805642 -8.29102,6.980469 -8.29102,6.980469 0,0 5.81964,-4.670314 8.6543,-6.380859 2.84313,-1.715663 8.61719,-4.210938 8.61719,-4.210938 z m 3.25781,0.490234 c 0,0 -6.94141,2.528227 -10.12891,4.59375 -3.18842,2.066118 -8.44531,7.462891 -8.44531,7.462891 0,0 5.77687,-4.899034 8.82617,-6.875 3.05021,-1.97656 9.74805,-5.181641 9.74805,-5.181641 z m 2.60547,0.814454 c 0,0 -8.80901,3.199109 -12.22266,5.070312 -3.39859,1.86295 -7.97852,5.681641 -7.97852,5.681641 0,0 5.0013,-3.25224 8.31446,-5.06836 3.29809,-1.807865 11.88672,-5.683593 11.88672,-5.683593 z m 28.02539,1.466796 c 0,0 11.84328,5.1814 17.33398,8.125 5.61521,3.010342 11.65892,6.737249 15.77344,10.615235 4.17828,3.938093 5.98774,6.437101 9.28711,12.175781 3.26107,5.6721 7.08359,14.70567 9.20117,22.277344 2.10936,7.542297 3.17418,15.168868 3.55273,20.673828 0.37509,5.45458 0.73438,14.11328 0.73438,14.11328 0,0 1.45009,-8.59989 1.0625,-14.23633 -0.38413,-5.58605 -1.43872,-13.252762 -3.61524,-21.035153 -2.16828,-7.753016 -6.00651,-16.832496 -9.375,-22.691406 -3.33019,-5.792331 -5.34166,-8.563672 -9.61132,-12.587891 -4.33345,-4.084326 -10.47567,-7.845084 -16.16016,-10.892578 -5.80899,-3.114236 -18.18359,-6.53711 -18.18359,-6.53711 z m -9.93946,0.16211 c 0,0 3.1864,5.305027 4.40625,7.966797 1.23654,2.69816 2.05473,5.720194 2.75,8.414062 0.68566,2.656603 1.80469,7.56836 1.80469,7.56836 0,0 -0.42061,-5.007412 -1.12695,-7.744141 -0.69672,-2.699463 -1.52081,-5.757667 -2.79102,-8.529297 -1.28688,-2.808022 -5.04297,-7.675781 -5.04297,-7.675781 z m 1.79102,0.162109 c 0,0 4.27618,5.884992 5.7168,8.791016 1.46263,2.950461 2.12562,6.187266 2.9082,9.060547 0.77048,2.828862 2.12891,7.892578 2.12891,7.892578 0,0 -0.66737,-5.191232 -1.45313,-8.076172 -0.77366,-2.840522 -1.44164,-6.130639 -2.95703,-9.1875 -1.53742,-3.101298 -6.34375,-8.480469 -6.34375,-8.480469 z m -2.74609,0.166016 c 0,0 2.62299,5.919262 3.75976,9.048828 1.14092,3.140989 1.65227,6.344275 2.17188,9.611328 0.51366,3.229631 1.26757,9.162109 1.26757,9.162109 0,0 -0.0506,-5.966978 -0.57617,-9.271484 -0.51961,-3.267085 -1.03499,-6.520908 -2.20508,-9.742187 -1.17422,-3.232704 -4.41796,-8.808594 -4.41796,-8.808594 z m -2.36329,0.691406 c 0,0 -11.99517,12.539798 -17.36328,21.400391 -5.3297,8.797256 -10.19674,18.737283 -14.10351,31.097656 -3.93443,12.447774 -7.01172,43.46875 -7.01172,43.46875 0,0 4.11118,-30.973668 7.96484,-43.166016 3.88132,-12.279745 8.7093,-22.140258 14.00586,-30.882812 5.25822,-8.679218 16.50781,-21.917968 16.50781,-21.917969 z m 9.67383,1.587891 c 0,0 4.83523,6.638891 6.52539,10.25 1.7112,3.656045 2.66258,8.13113 3.39453,11.8125 0.72234,3.63297 1.48438,10.035156 1.48438,10.035156 0,0 -0.0539,-6.435191 -0.79688,-10.171875 -0.73332,-3.688286 -1.68758,-8.208831 -3.44921,-11.972656 -1.78268,-3.808763 -7.15821,-9.953125 -7.15821,-9.953125 z m -14.91601,0.197265 c 0,0 -4.7508,3.733038 -6.64063,5.628907 -1.88571,1.89174 -4.5918,5.544922 -4.5918,5.544922 0,0 3.24137,-3.198354 5.0879,-5.050782 1.8424,-1.8483 6.14453,-6.123047 6.14453,-6.123047 z m 6.74023,0.863282 c 0,0 0.88156,5.355007 1.32617,7.894531 0.44716,2.554071 0.83171,5.502787 1.03321,7.521484 0.20057,2.009476 0.63672,4.574219 0.63672,4.574219 0,0 0.26505,-2.596089 0.0605,-4.644531 -0.20354,-2.039221 -0.58985,-4.993366 -1.04101,-7.570313 -0.45371,-2.591493 -2.01563,-7.77539 -2.01563,-7.77539 z m -43.7793,0.232421 c 0,0 -19.25785,23.140326 -26.48437,38.386719 -7.17746,15.142893 -12.90259,34.064239 -15.73047,51.353519 -2.82578,17.27645 -3.73682,36.09112 -1.38281,51.38672 2.37172,15.41065 14.10547,38.5957 14.10547,38.5957 0,0 -10.32385,-23.88479 -12.62305,-38.82422 -2.31691,-15.05449 -1.42514,-33.76051 1.38086,-50.91602 2.8039,-17.14268 8.50306,-35.968578 15.60547,-50.953121 7.05335,-14.881042 25.1289,-39.029296 25.1289,-39.029297 z m 40.26563,1.957032 c 0,0 -2.25916,6.118201 -2.87891,9.617187 -0.62067,3.504236 -0.69336,11.00586 -0.69336,11.00586 0,0 0.78279,-7.49711 1.38282,-10.884766 0.60095,-3.392904 2.18945,-9.738281 2.18945,-9.738281 z m 23.73242,0.517578 c 0,0 4.62213,3.104562 6.9375,4.777344 2.34816,1.696469 4.99846,3.662783 6.86133,5.658203 1.84004,1.970966 4.75,6.041015 4.75,6.041015 0,0 -2.28365,-4.42387 -4.23828,-6.517578 -1.9318,-2.069254 -4.60974,-4.047972 -6.96289,-5.748047 -2.38594,-1.723762 -7.34766,-4.210937 -7.34766,-4.210937 z M 285.08008,40.4375 c 0,0 1.48662,6.201861 2.19336,9.351562 0.70976,3.163212 1.37845,7.280286 1.72265,9.763672 0.34302,2.474822 0.86524,5.080079 0.86524,5.080078 0,0 0.004,-2.550814 -0.34375,-5.291015 -0.31802,-2.505026 -0.84297,-6.509012 -1.56055,-9.707031 -0.7206,-3.21153 -2.87695,-9.197266 -2.87695,-9.197266 z m 13.89258,0.294922 c 0,0 9.37043,8.069728 12.81836,12.05664 3.50209,4.04956 5.87794,8.255778 8.08593,12.296876 2.17397,3.978794 5.65235,11.490234 5.65235,11.490234 0,0 -2.52671,-7.858727 -4.77344,-11.970703 -2.21269,-4.049672 -4.62731,-8.33138 -8.20703,-12.470703 -3.63391,-4.201972 -13.57617,-11.402344 -13.57617,-11.402344 z m -56.69922,0.488281 c 0,0 -7.40645,7.58757 -10.54883,12.017578 -3.11806,4.395715 -5.84687,8.822354 -8.33984,14.064453 -2.51237,5.28285 -6.03907,17.419922 -6.03907,17.419922 0,0 4.21576,-11.960612 6.66992,-17.121094 2.47355,-5.201229 5.17801,-9.586901 8.2793,-13.958984 3.07697,-4.337787 9.97852,-12.421875 9.97852,-12.421875 z m 55.88281,2.210938 c 0,0 3.7373,4.617694 6.02344,7.507812 2.29891,2.906259 5.54156,7.29872 7.34375,10.269531 1.81296,2.988582 2.86281,5.142569 3.77344,7.429688 0.8944,2.246346 2.21484,6.072266 2.21484,6.072266 0,0 -0.53144,-4.003264 -1.47266,-6.367188 -0.92498,-2.32315 -1.99958,-4.53135 -3.83008,-7.548828 -1.84126,-3.035248 -5.08743,-7.425079 -7.40234,-10.351563 -2.32767,-2.942624 -6.65039,-7.011718 -6.65039,-7.011718 z m -47.41016,0.396484 c 0,0 -12.36868,12.318136 -18.19531,22.728516 -5.80254,10.367372 -11.04678,24.935738 -14.87305,39.216799 -3.83016,14.2957 -6.82031,33.064 -7.51171,46.21289 -0.69116,13.14364 0.55711,23.6797 1.79687,32.0332 1.24127,8.36368 2.31276,11.64247 4.41797,18.16406 2.11426,6.54966 5.84399,16.21125 8.51172,20.94727 2.65926,4.72097 6.13867,7.41211 6.13867,7.41211 0,0 -2.68047,-3.31293 -5.26563,-7.90235 -2.57666,-4.57436 -6.33698,-14.26869 -8.43359,-20.76367 -2.10566,-6.52299 -3.14426,-9.6849 -4.37891,-18.0039 -1.23613,-8.32918 -2.47542,-18.78325 -1.78906,-31.83594 0.6861,-13.04747 3.67135,-31.79412 7.47852,-46.00391 3.81107,-14.224424 9.04848,-28.745589 14.78125,-38.988278 5.70868,-10.199684 17.68554,-22.873047 17.32226,-23.216797 z m 16.13086,0.162109 c 0,0 -3.99185,3.377403 -6.78906,6.783204 -2.7945,3.402512 -6.58361,8.8213 -9.79492,13.548828 -3.20235,4.714342 -5.87816,8.121115 -9.46875,14.859375 -3.58768,6.732793 -8.49864,17.127693 -11.26563,25.800779 -2.77624,8.70213 -5.04297,25.84766 -5.04297,25.84766 0,0 2.97501,-17.06516 5.70899,-25.63477 2.74324,-8.598659 7.64512,-18.982769 11.2168,-25.685544 3.56875,-6.697311 6.21553,-10.058381 9.43164,-14.792969 3.20713,-4.721404 6.99587,-10.137558 9.75586,-13.498047 2.75727,-3.3572 6.24804,-7.228516 6.24804,-7.228516 z m -4.20312,0.708985 c 0,0 -7.10585,6.970535 -14.03711,17.117187 -6.93126,10.146653 -14.20522,23.055951 -17.9082,32.884766 -7.36896,19.559338 -10.79798,47.361028 -10.64063,64.751948 0.1574,17.39557 4.15992,28.18781 6.9375,37.95899 2.81336,9.89703 8.91992,21.02148 8.91992,21.02148 0,0 -4.90729,-11.65836 -7.66992,-21.37695 -2.79841,-9.84444 -6.73303,-20.4136 -6.88867,-37.61523 -0.15569,-17.20627 3.2865,-44.979 10.55859,-64.281254 3.61754,-9.601978 10.85885,-22.498568 17.76563,-32.609375 6.90677,-10.110806 12.96289,-17.851562 12.96289,-17.851562 z m -14.53516,3.201172 c 0,0 -7.51679,8.933041 -11.04883,14.476562 -3.53556,5.549073 -9.80468,18.599609 -9.80468,18.599609 0,0 6.91366,-12.758323 10.39648,-18.224609 3.48636,-5.471835 10.45703,-14.851562 10.45703,-14.851562 z m 5.53906,3.095703 c 0,0 -7.30207,7.70945 -10.59375,12.482422 -3.29519,4.778094 -8.79296,15.867187 -8.79296,15.867187 0,0 6.23012,-10.740664 9.45312,-15.414062 3.22654,-4.678523 9.93359,-12.935547 9.93359,-12.935547 z m 47.25,0 c 0,0 4.64113,8.224159 6.68165,13.167968 2.03571,4.932141 5.375,16.8125 5.375,16.8125 0,0 -2.63178,-12.004817 -4.72657,-17.080078 -2.08996,-5.06359 -7.33008,-12.90039 -7.33008,-12.90039 z m -62.89062,0.488281 c 0,0 -7.18747,7.539368 -9.90234,11.535156 -2.71059,3.98945 -6.22852,11.927735 -6.22852,11.927735 0,0 4.16419,-7.643094 6.80859,-11.535157 2.64011,-3.885723 9.32227,-11.927734 9.32227,-11.927734 z m 0.16211,0 c 0,0 -5.72847,6.842258 -7.95703,10.574219 -2.21571,3.710436 -4.3308,8.428343 -5.56055,11.283203 -1.23669,2.870978 -1.79687,5.839844 -1.79687,5.839844 0,0 1.22124,-2.734444 2.43945,-5.5625 1.22515,-2.844175 3.33732,-7.546842 5.51953,-11.201172 2.16935,-3.632808 7.35547,-10.933594 7.35547,-10.933594 z m 10.58984,2.119141 c 0,0 -9.42072,11.317651 -12.18945,15.78125 -2.73836,4.41464 -3.4314,6.324185 -5.07227,9.980468 -1.6593,3.697379 -4.40625,12.201173 -4.40625,12.201172 0,0 3.41538,-8.283019 5.04493,-11.914062 1.64797,-3.672139 2.31055,-5.515412 5.02929,-9.898438 2.68839,-4.334067 11.59375,-16.15039 11.59375,-16.15039 z m -9.93554,1.138672 c 0,0 -4.61924,5.148649 -6.6543,8.453124 -2.03906,3.310972 -5.55762,10.953126 -5.24024,11.09961 0,0 3.86327,-7.526052 5.8379,-10.732422 1.97863,-3.212865 6.05664,-8.820312 6.05664,-8.820312 z m 31.88281,0.03906 c 0,0 -3.22814,9.839703 -4.47852,15.173828 -1.24746,5.321713 -2.62788,12.251687 -3.3457,16.615234 -0.71883,4.369659 -0.81445,9.511719 -0.81445,9.511719 0,0 0.89136,-5.051772 1.60351,-9.380859 0.71316,-4.335195 2.09377,-11.265337 3.33594,-16.564453 1.23926,-5.286707 3.69922,-15.355469 3.69922,-15.355469 z m 3.6289,2.246094 c 0,0 -1.10831,4.219894 -1.4414,6.986328 -0.33393,2.773314 -0.45899,9.488281 -0.45899,9.488281 0,0 0.82701,-6.686041 1.1543,-9.404297 0.32812,-2.725135 0.74609,-7.070312 0.74609,-7.070312 z m 56.37891,0.648437 c 0,0 5.36423,9.314701 7.7793,14.824219 2.43494,5.554843 4.60627,11.611596 6.16797,18.664062 1.54905,6.995406 3.16015,23.53711 3.16015,23.53711 0,0 -0.79358,-16.542989 -2.38086,-23.710938 -1.57463,-7.110886 -3.76424,-13.219982 -6.21484,-18.810546 -2.47047,-5.635889 -8.51172,-14.503907 -8.51172,-14.503907 z m -5.91602,1.253907 c 0,0 2.95332,4.048465 4.0879,5.724609 1.16152,1.715974 1.75012,2.753665 2.68164,4.679687 0.91071,1.883006 3.08007,6.761719 3.08007,6.761719 0,0 -1.49122,-5.081606 -2.45117,-7.066406 -0.93914,-1.941784 -1.5588,-3.033747 -2.73242,-4.767578 -1.20058,-1.773661 -4.66601,-5.332032 -4.66602,-5.332031 z m -53.16796,0.171874 c 0,0 -1.07741,5.16399 -1.27149,7.808594 -0.19407,2.644409 0.11914,7.859375 0.11914,7.859375 0,0 0.38851,-5.225197 0.57813,-7.808593 0.18957,-2.583199 0.57422,-7.859376 0.57422,-7.859376 z m 11.63476,0.05859 c 0,0 -1.47382,5.577189 -2.00781,8.804688 -0.53121,3.210695 -1.0968,6.227469 -1.55859,10.447265 -0.4638,4.238092 -0.68475,11.088238 -1.03711,14.810547 -0.3556,3.756412 -0.42291,5.101011 -0.91602,7.68164 -0.49103,2.56969 -1.34297,5.45293 -2.0625,7.79101 -0.71217,2.31418 -1.80859,6.33985 -1.80859,6.33985 0,0 1.8433,-3.73478 2.57226,-6.10352 0.72161,-2.34483 1.58168,-5.24823 2.08399,-7.87695 0.50022,-2.617859 0.57293,-4.007813 0.92773,-7.755858 0.27411,-2.895574 0.4675,-7.578129 0.74805,-11.490234 0.0487,1.130687 0.11705,2.109375 0.13867,2.109375 0.10489,3.359712 0.14371,8.473979 0,12.359375 -0.14392,3.891172 -0.42721,7.970942 -0.8125,10.966792 -0.38384,2.98457 -0.95703,7.13086 -0.95703,7.13086 0,0 1.26089,-3.9992 1.65234,-7.04297 0.39001,-3.03248 0.67191,-7.12239 0.81641,-11.029292 0.14471,-3.912659 0.10541,-9.029842 0,-12.40625 -0.051,-1.632585 -0.19088,-3.526004 -0.32227,-5.048828 -0.0533,-0.617978 -0.0402,-1.380438 -0.0117,-2.109375 0.41356,-3.285234 0.8828,-5.903734 1.33594,-8.642578 0.53017,-3.204375 1.21875,-8.935547 1.21875,-8.935547 z m 40.61133,0.63086 c 0,0 2.32129,3.795921 3.38281,5.648437 1.07812,1.881466 1.94209,3.719369 2.80078,5.832031 0.84578,2.080901 2.62891,6.722657 2.62891,6.722657 0,0 -1.10045,-4.821192 -1.98047,-6.986329 -0.86711,-2.133373 -1.74613,-4.00392 -2.8418,-5.916015 -1.11224,-1.941045 -3.99023,-5.30078 -3.99023,-5.300781 z m -2.5918,0.460937 c 0,0 1.54122,3.023569 2.2793,4.480469 0.75182,1.484031 1.22019,2.714503 1.94336,4.630859 0.71267,1.888549 2.63086,6.732422 2.63086,6.732422 0,0 -1.24262,-5.035562 -1.97656,-6.980469 -0.72345,-1.9171 -1.20518,-3.180429 -1.97461,-4.699218 -0.78318,-1.545923 -2.90235,-4.164063 -2.90235,-4.164063 z m -105.18554,1.037109 c 0,0 -6.74507,10.414604 -9.00391,15.269532 -2.23823,4.810645 -3.52799,8.430543 -4.97266,13.1875 -1.45797,4.800816 -3.18945,15.437492 -3.18945,15.437492 0,0 2.52943,-10.510734 3.95508,-15.20507 1.43897,-4.738197 2.71039,-8.303691 4.93359,-13.082032 2.2026,-4.734057 8.27735,-15.607421 8.27735,-15.607422 z m 114.51757,0.634766 c 0,0 2.3223,3.821973 3.32032,5.640625 1.01398,1.847753 1.69476,3.589771 2.51758,5.664063 0.81121,2.045013 2.68554,6.609375 2.68554,6.609375 0,0 -1.2016,-4.765821 -2.03515,-6.867188 -0.82196,-2.072088 -1.51492,-3.847452 -2.55469,-5.742187 -1.05574,-1.923836 -3.9336,-5.304688 -3.9336,-5.304688 z m -116.24609,0.05859 c 0,0 -4.54246,5.90583 -6.30859,8.966797 -1.74528,3.024822 -3.09778,5.465201 -4.63086,8.917969 -0.77259,1.740003 -1.86672,4.542373 -2.69141,7.060546 -0.82256,2.511702 -1.45703,5.353516 -1.45703,5.353516 0,0 0.94815,-2.369094 2.04688,-5.068359 1.00354,-2.465419 2.26394,-5.24849 3.01562,-6.941407 1.51546,-3.413069 2.84316,-5.807088 4.58398,-8.824218 1.71999,-2.980986 5.44141,-9.464844 5.44141,-9.464844 z m 51.38281,2.130859 c 0,0 -2.98203,7.914572 -4.31054,12.517578 -1.32407,4.58751 -3.03033,10.462685 -3.92383,14.949219 -0.89539,4.496012 -1.27149,11.818362 -1.27149,11.818362 0,0 1.07595,-7.257423 1.95704,-11.681643 0.88295,-4.433698 2.58582,-10.304166 3.91015,-14.892578 1.31986,-4.572915 3.63867,-12.710938 3.63867,-12.710938 z m -49.57617,2.035157 c 0,0 -5.60392,8.545666 -7.85547,13.185546 -2.24055,4.617225 -4.17386,9.58382 -5.88086,14.210938 -1.71558,4.650388 -4.02539,13.660158 -4.02539,13.660158 0,0 3.08054,-8.788619 4.77539,-13.382814 1.70344,-4.617466 3.62855,-9.561595 5.84961,-14.138672 2.21008,-4.554422 7.13672,-13.535156 7.13672,-13.535156 z m 94.04688,0.326171 c 0,0 1.55252,4.462609 2.42773,7.470703 0.87008,2.990455 2.64258,10.845704 2.64258,10.845704 0,0 -1.06399,-7.931342 -1.96875,-11.041016 -0.89963,-3.092032 -3.10156,-7.27539 -3.10156,-7.275391 z m -26.95899,5.529297 c 0,0 -1.1643,3.889794 -1.38672,7.236328 -0.22327,3.359503 0.17519,8.529481 0.11524,12.574219 -0.0603,4.068807 -0.17117,7.975649 -0.46094,11.845707 -0.28874,3.85631 -0.91602,11.43164 -0.91602,11.43164 0,0 1.3228,-7.4733 1.61524,-11.37891 0.29141,-3.891881 0.40059,-7.811955 0.46094,-11.886718 0.0607,-4.098832 -0.33162,-9.285163 -0.11524,-12.541016 0.21725,-3.268819 0.6875,-7.28125 0.6875,-7.28125 z m 35.39258,5.386719 c 0,0 1.15562,10.974295 1.45508,15.833984 0.30288,4.915217 0.4024,9.039281 0.002,13.613281 -0.39569,4.51909 -1.94726,13.89063 -1.94726,13.89063 0,0 2.53225,-9.10946 2.94335,-13.80469 0.40631,-4.64032 0.30418,-8.823549 0,-13.759768 -0.30758,-4.991744 -2.45312,-15.773437 -2.45312,-15.773437 z m 16.12891,3.583984 c 0,0 2.61961,11.822242 3.23828,16.179688 0.62579,4.407603 0.64506,6.733473 0.64843,10.214843 0.003,3.4383 -0.30273,10.5918 -0.30273,10.5918 0,0 1.00499,-7.06495 1.00195,-10.5918 -0.003,-3.48378 -0.0239,-5.87269 -0.65429,-10.312499 -0.63749,-4.489956 -3.93164,-16.082032 -3.93164,-16.082032 z m -14.50196,1.140625 c 0,0 1.59554,12.408905 1.94532,19.089846 0.34936,6.67305 0.01,21.3164 0.01,21.3164 0,0 1.34787,-14.53813 0.99024,-21.36914 -0.35723,-6.823107 -2.94532,-19.037106 -2.94532,-19.037106 z m 3.99414,2.042969 c 0,0 0.45186,4.961019 0.6875,8.148438 0.23706,3.206614 0.3578,7.114484 0.23047,11.138669 -0.12652,3.99891 -0.74609,13.0293 -0.74609,13.0293 0,0 1.3163,-8.93016 1.44531,-13.00781 0.12822,-4.052374 0.008,-7.979962 -0.23047,-11.210941 -0.24028,-3.250173 -1.38672,-8.097656 -1.38672,-8.097656 z m -132.05468,1.867188 c 0,0 -3.19512,8.819367 -3.91407,12.949218 -0.70947,4.075501 -0.90317,7.876391 -0.98437,11.152341 -0.0824,3.32043 0.82617,8.48438 0.82617,8.48438 0,0 0.0942,-5.24788 0.17383,-8.45899 0.0807,-3.25556 0.27396,-7.00352 0.9707,-11.005856 0.68728,-3.94796 2.92774,-13.121093 2.92774,-13.121093 z m 110.71093,0.408203 c 0,0 -0.1122,7.373535 -0.26953,11.146484 -0.15816,3.792562 -0.56322,8.121732 -1.05469,11.613282 -0.489,3.4741 -1.44531,9.41797 -1.44531,9.41797 0,0 1.64105,-5.785 2.13867,-9.32031 0.49518,-3.51789 0.90124,-7.86339 1.06055,-11.683598 0.16014,-3.839829 -0.42969,-11.173828 -0.42969,-11.173828 z m -25.19922,0.201172 c 0,0 -0.49701,5.683896 -0.69531,8.152343 -0.20042,2.494905 -0.36101,4.180024 -0.80273,6.767581 -0.43679,2.55867 -1.61328,8.81445 -1.61328,8.81445 0,0 1.85232,-6.0588 2.30273,-8.69726 0.44548,-2.609611 0.60975,-4.328492 0.81055,-6.82813 0.20292,-2.526093 -0.002,-8.208984 -0.002,-8.208984 z m 48.41602,1.183593 c 0,0 0.42602,9.140691 0.41406,13.359371 -0.0121,4.26552 -0.12686,8.454 -0.80664,12.14844 -0.67258,3.6553 -2.70312,10.17383 -2.70312,10.17383 0,0 2.78482,-6.20616 3.48828,-10.0293 0.69625,-3.78397 0.81015,-8.0127 0.82226,-12.29101 0.0123,-4.325124 -1.21484,-13.361331 -1.21484,-13.361331 z m -54.81055,0.142579 c 0,0 -2.29442,6.454989 -3.21679,9.636718 -0.91835,3.167844 -2.14128,6.842484 -2.65625,9.359374 -0.50989,2.49203 -0.61155,3.93217 -0.69727,5.4668 -0.0878,1.57194 0.40625,3.76367 0.40625,3.76367 0,0 0.20969,-2.23549 0.29297,-3.72656 0.0854,-1.52839 0.18056,-2.90476 0.68359,-5.36328 0.49795,-2.43369 1.71837,-6.1166 2.64258,-9.304691 0.92019,-3.174178 2.54492,-9.832031 2.54492,-9.832031 z m 60.83789,1.648437 c 0,0 1.0264,8.293048 1.28125,12.082035 0.25659,3.81465 0.12548,7.67425 0,10.8789 -0.1246,3.18234 -0.30273,8.32227 -0.30273,8.32227 0,0 0.8755,-5.0652 1.00195,-8.29492 0.12559,-3.20742 0.25788,-7.09296 -0.002,-10.95508 -0.2615,-3.887801 -1.97852,-12.033205 -1.97852,-12.033205 z m -93.15429,0.02148 c 0,0 -4.12997,6.796982 -5.61914,10.230469 -1.47681,3.404996 -2.72073,6.885756 -3.58789,9.951176 -0.87413,3.09006 -1.39258,8.39063 -1.39258,8.39062 0,0 1.21617,-5.19355 2.0664,-8.19921 0.85724,-3.03034 2.09014,-6.48852 3.55469,-9.86524 1.45219,-3.348209 4.97852,-10.507815 4.97852,-10.507815 z m 104.39648,0.957032 c 0,0 0.52271,5.647525 0.95508,9.812503 0.43146,4.15614 1.49023,15.2793 1.49023,15.2793 0,0 -0.35638,-11.14607 -0.79296,-15.35157 -0.43567,-4.196678 -1.65235,-9.740233 -1.65235,-9.740233 z m -46.75976,0.732421 c 0,0 -1.01382,7.979193 -1.48633,11.357422 -0.47493,3.39554 -1.14973,6.82798 -1.625,9.01563 -0.47344,2.17922 -0.7168,4.23047 -0.7168,4.23047 0,0 0.92021,-1.86982 1.40039,-4.08008 0.47835,-2.20183 1.15622,-5.64694 1.63477,-9.06836 0.48097,-3.438708 0.79297,-11.455082 0.79297,-11.455082 z m 33.5625,0.408204 c 0,0 0.57065,8.654648 0.6289,12.388678 0.0588,3.76865 -0.10738,7.46609 -0.48633,10.21093 -0.37621,2.72505 -1.11914,6.40235 -1.11914,6.40235 0,0 1.42298,-3.48522 1.8125,-6.30664 0.38679,-2.80163 0.55141,-6.52224 0.49219,-10.31836 -0.0598,-3.83077 -1.32812,-12.376957 -1.32812,-12.376958 z m -37.06641,0.08008 c 0,0 -0.95206,7.971688 -1.32422,10.955078 -0.3751,3.00695 -0.69347,4.90861 -1.13476,7.06055 -0.43728,2.13236 -1.12305,5.9375 -1.12305,5.9375 0,0 1.36033,-3.61096 1.80859,-5.79688 0.44425,-2.16632 0.76787,-4.09377 1.14453,-7.11328 0.37961,-3.043058 0.62891,-11.042968 0.62891,-11.042968 z m 46.35547,0.08203 c 0,0 0.78117,6.62441 0.95312,10.605468 0.17139,3.96797 -0.14062,13.50782 -0.14062,13.50782 0,0 1.01658,-9.44526 0.83984,-13.53711 -0.17617,-4.078766 -1.65234,-10.576178 -1.65234,-10.576178 z m 2.2793,0.326172 c 0,0 0.43314,7.884566 0.46484,11.896486 0.0317,4.01028 -0.30274,12.37891 -0.30273,12.37891 0,0 1.03429,-8.28821 1.00195,-12.38477 -0.0324,-4.09488 -1.16406,-11.890626 -1.16406,-11.890626 z m -6.91407,1.203125 c 0,0 0.3221,4.086221 0.42383,6.443359 0.10173,2.357142 0.10793,5.862312 0.11133,7.832032 0.007,3.94668 0.0254,10.10156 0.0254,10.10157 0,0 0.68282,-6.11446 0.67578,-10.10157 -0.003,-1.99717 -0.12665,-5.2159 -0.24805,-8.041016 -0.078,-1.8816 -0.98828,-6.234375 -0.98828,-6.234375 z m -116.25976,1.078125 c 0,0 -3.69118,10.713786 -5.05078,17.498046 -1.3622,6.7972 -2.76953,22.90821 -2.76954,22.90821 0,0 2.41236,-16.03622 3.75,-22.71094 1.34025,-6.68765 4.07032,-17.695316 4.07032,-17.695316 z m 89.9375,1.628906 c 0,0 -1.17577,7.61884 -1.97266,11.66407 -0.79611,4.04125 -2.91601,12.77539 -2.91601,12.77539 0,0 2.78939,-8.51784 3.60156,-12.64063 0.81139,-4.11881 1.28711,-11.798829 1.28711,-11.79883 z m 21.50586,0.162109 c 0,0 -0.68814,9.229171 -1.16211,13.320321 -0.47461,4.09662 -1.60742,11.44726 -1.60742,11.44726 0,0 1.82,-7.19843 2.30273,-11.36523 0.48337,-4.17231 0.4668,-13.402351 0.4668,-13.402351 z m -92.30274,0.253907 c 0,0 -4.03628,7.629624 -5.17187,11.066414 -1.1228,3.39803 -1.63028,6.43828 -2.08594,8.91796 -0.46132,2.51054 -0.46289,6.05274 -0.46289,6.05274 0,0 0.70069,-3.46981 1.15234,-5.92774 0.45732,-2.4887 0.95707,-5.48463 2.06055,-8.82422 1.09068,-3.30084 4.50781,-11.285154 4.50781,-11.285154 z m 77.96485,0.236328 c 0,0 -0.35461,9.812326 -0.67383,13.984376 -0.3203,4.17991 -1.11719,11.26953 -1.11719,11.26953 0,0 1.48907,-6.96852 1.81445,-11.21484 0.326,-4.25417 -0.0234,-14.039066 -0.0234,-14.039066 z m -30.1543,0.455078 c 0,0 -0.44661,4.041088 -0.69531,6.650398 -0.24866,2.60906 -0.93652,6.75066 -1.26563,9.08398 -0.32756,2.32231 -0.34375,4.88672 -0.34375,4.88672 0,0 0.70931,-2.46507 1.03711,-4.78906 0.32625,-2.31302 1.01599,-6.45484 1.26953,-9.11524 0.25355,-2.66019 -0.002,-6.716798 -0.002,-6.716798 z m 31.94727,0.523437 c 0,0 0.0281,6.611561 -0.1875,10.406251 -0.21507,3.78497 -1.2793,12.56641 -1.2793,12.56641 0,0 1.75715,-8.63157 1.97851,-12.52735 0.22082,-3.88605 -0.51172,-10.44531 -0.51171,-10.445311 z m -42.43165,0.398438 c 0,0 -1.82005,6.938663 -2.41601,9.720703 -0.59608,2.78262 -1.15625,6.98438 -1.15625,6.98438 0,0 1.2432,-4.05265 1.83984,-6.83789 0.59676,-2.78583 1.73242,-9.867193 1.73242,-9.867193 z m -35.48437,0.230469 c 0,0 -4.54727,10.472384 -5.75,14.650394 -1.18974,4.13288 -1.74036,6.99281 -2.08594,9.84766 -0.34979,2.88964 0.11719,7.18359 0.11719,7.18359 0,0 0.24068,-4.31195 0.57812,-7.09961 0.34167,-2.82249 0.88066,-5.63276 2.0625,-9.73828 1.16889,-4.06042 5.07813,-14.843754 5.07813,-14.843754 z m -1.38281,0.691406 c 0,0 -2.05016,3.572558 -3.20703,6.675788 -1.15053,3.08609 -3.05736,8.3805 -3.81641,11.79687 -0.76019,3.42149 -0.69531,8.36914 -0.69531,8.36914 0,0 0.64179,-4.89918 1.3789,-8.2168 0.73825,-3.32271 2.64186,-8.62789 3.78907,-11.70507 1.1408,-3.06011 2.55078,-6.919928 2.55078,-6.919928 z m 16.8789,0 c 0,0 -1.63032,5.131618 -2.01757,7.958988 -0.38765,2.83012 -0.22852,8.68945 -0.22852,8.68945 0,0 0.54781,-5.86278 0.92187,-8.59375 0.37445,-2.73369 1.32422,-8.054688 1.32422,-8.054688 z m 59.38867,0.230469 c 0,0 -0.3456,7.494379 -0.69335,11.025389 -0.34809,3.53343 -1.38086,10.40235 -1.38086,10.40235 0,0 1.72109,-6.70974 2.07812,-10.33399 0.35733,-3.62664 -0.004,-11.093749 -0.004,-11.093749 z m -50.34374,0.115234 c 0,0 -2.49247,4.729535 -3.27344,7.210945 -0.77068,2.44867 -1.38524,5.17429 -1.6836,7.25585 -0.30176,2.10538 0.0606,5.11719 0.0606,5.11719 0,0 0.34461,-3.00868 0.63281,-5.01758 0.29135,-2.03265 0.90029,-4.73832 1.65821,-7.14648 0.74762,-2.37545 2.60546,-7.419925 2.60547,-7.419925 z m -22.35157,0.345703 c 0,0 -3.0102,6.589642 -4.36133,10.248052 -1.34189,3.63344 -3.32944,8.26895 -4.04492,11.5664 -0.71526,3.29625 -0.34961,7.67774 -0.34961,7.67774 0,0 0.34561,-4.36227 1.03321,-7.5293 0.68691,-3.1658 2.6671,-7.81073 4.01953,-11.47265 1.34321,-3.63699 3.70312,-10.490242 3.70312,-10.490242 z m 56.66407,0.02344 c 0,0 -1.0138,5.503332 -1.56446,8.156252 -0.55079,2.65357 -1.77539,7.97461 -1.77539,7.97461 0,0 1.89401,-5.10072 2.46094,-7.83203 0.56706,-2.73198 0.87891,-8.298832 0.87891,-8.298832 z m 6.43554,0.246092 c 0,0 -0.25241,5.59949 -0.5918,8.42969 -0.33889,2.82647 -1.52734,8.83984 -1.52734,8.83984 0,0 1.86824,-5.80198 2.22266,-8.75781 0.35396,-2.95209 -0.10352,-8.51172 -0.10352,-8.51172 z m -31.24609,0.36328 c 0,0 -1.75469,4.50431 -2.29883,6.83399 -0.54391,2.32872 -0.92578,6.93554 -0.92578,6.93555 0,0 1.07813,-4.51123 1.60742,-6.77735 0.52906,-2.26515 1.61719,-6.99219 1.61719,-6.99219 z m 26.52148,0.043 c 0,0 -0.53216,5.34709 -0.91797,8.42774 -0.38481,3.07277 -1.52539,10.22851 -1.52539,10.22851 0,0 1.82297,-6.98032 2.21875,-10.14062 0.3948,-3.15244 0.22461,-8.51563 0.22461,-8.51563 z m -41.09375,0.30274 c 0,0 -2.22409,7.03851 -2.8789,10.53515 -0.65442,3.49453 -1.03907,10.20313 -1.03907,10.20313 0,0 1.08452,-6.64577 1.72657,-10.07422 0.64164,-3.4263 2.1914,-10.66406 2.1914,-10.66406 z m 53.91797,0.0586 c 0,0 -0.54957,7.05826 -0.92578,10.67774 -0.37602,3.61764 -1.37891,11.21289 -1.37891,11.21289 0,0 1.69275,-7.45175 2.07618,-11.14063 0.38323,-3.68705 0.22851,-10.75 0.22851,-10.75 z m -69.58594,0.23047 c 0,0 -4.20274,9.9904 -5.40625,14.30664 -1.1937,4.28109 -1.92781,8.11796 -2.31445,11.10937 -0.38942,3.01297 0.002,6.72657 0.002,6.72657 0,0 0.31221,-3.70306 0.69141,-6.63672 0.38196,-2.9552 1.11035,-6.76338 2.29492,-11.01172 1.17477,-4.21319 4.73242,-14.49414 4.73242,-14.49414 z m 66.94532,0.4668 c 0,0 -1.8817,6.72272 -2.7793,9.67382 -0.89916,2.95622 -2.59961,8.25 -2.59961,8.25 0,0 2.34949,-5.02843 3.26758,-8.04687 0.91963,-3.02354 2.11133,-9.87695 2.11133,-9.87695 z m -59.46875,0.16211 c 0,0 -1.5723,7.10112 -1.97852,10.55078 -0.40601,3.44786 -0.4668,9.97851 -0.4668,9.97851 0,0 0.76169,-6.49611 1.16211,-9.89648 0.40022,-3.39864 1.28321,-10.63281 1.28321,-10.63281 z m 18.96289,0.006 c 0,0 -1.70244,5.11347 -2.13086,7.48242 -0.42719,2.36212 -0.46094,6.45703 -0.46094,6.45703 0,0 0.73528,-4.03672 1.15039,-6.33203 0.41388,-2.28855 1.44141,-7.60743 1.44141,-7.60742 z m -24.59571,0.2871 c 0,0 -3.48573,8.29431 -4.71093,11.98633 -1.22102,3.67943 -2.20294,7.03579 -3,9.92383 -0.79979,2.89788 -1.50782,7.4668 -1.50782,7.4668 0,0 1.38954,-4.40919 2.18164,-7.2793 0.79484,-2.87995 1.77396,-6.22549 2.99024,-9.89062 1.21209,-3.65254 4.04687,-12.20704 4.04687,-12.20704 z m -58.5625,0.0352 c 0,0 -4.55532,17.24313 -5.27343,27.98633 -0.71542,10.70284 -0.0238,25.36992 1.4707,35.14844 1.49078,9.75445 3.37548,16.21699 6.22656,23.25976 2.87795,7.10914 10.61133,19.01758 10.61133,19.01758 0,0 -6.79202,-12.5156 -9.5918,-19.43164 -2.82664,-6.98241 -4.67731,-13.32199 -6.1582,-23.01172 -1.47723,-9.66568 -2.1687,-24.32174 -1.46094,-34.91016 0.70507,-10.54806 4.17578,-28.05859 4.17578,-28.05859 z m 103.21485,0.16211 c 0,0 -0.73101,5.70637 -1.15821,8.16797 -0.42858,2.46959 -1.36718,6.90234 -1.36718,6.90234 0,0 1.61194,-4.2208 2.05664,-6.7832 0.44608,-2.5704 0.46875,-8.28711 0.46875,-8.28711 z m -24.55078,0.0898 c 0,0 -1.79155,5.56224 -2.24024,7.63282 -0.4487,2.07055 -0.55231,3.34043 -0.69922,4.65625 -0.14886,1.33329 0.0605,3.14843 0.0605,3.14843 0,0 0.32321,-1.81926 0.46289,-3.07031 0.14163,-1.26856 0.29801,-2.45889 0.74414,-4.51758 0.44086,-2.03439 1.67188,-7.84961 1.67188,-7.84961 z m -4.32032,0.17188 c 0,0 -1.85038,4.62959 -2.46875,6.93945 -0.61227,2.28712 -1.26401,4.72916 -1.5625,6.7207 -0.30058,2.00551 0,5.06251 0,5.0625 0,0 0.40481,-3.0469 0.69141,-4.95898 0.28867,-1.92604 0.93669,-4.35791 1.54883,-6.64453 0.60605,-2.26388 1.79101,-7.11914 1.79101,-7.11914 z m -73.52929,0.0645 c 0,0 -1.63402,8.04717 -1.97657,11.69727 -0.34002,3.62315 -0.51746,6.64217 -0.49023,9.97461 0.0267,3.27804 0.94192,9.53025 0.98633,9.83203 -0.17403,1.17485 -0.31592,2.32413 -0.38477,3.33398 -0.31012,4.5489 0.39844,15.01758 0.39844,15.01758 0,0 0.0985,-10.53457 0.40039,-14.96289 0.30272,-4.44032 1.22852,-11.91992 1.22852,-11.91992 0,0 -1.02579,4.38588 -1.63477,8.47265 -0.0114,-0.27776 -0.26873,-6.57211 -0.29492,-9.77929 -0.027,-3.30417 0.14952,-6.29456 0.48828,-9.9043 0.33623,-3.5828 1.2793,-11.76172 1.2793,-11.76172 z m 9.77539,0 c 0,0 -3.7626,12.72187 -4.79492,21.13086 -1.03016,8.39126 -1.31893,20.77308 -1.14454,28.89649 0.17486,8.1448 2.03125,19.70507 2.03125,19.70507 0,0 -1.05732,-11.65715 -1.23046,-19.72265 -0.17361,-8.08691 0.116,-20.46683 1.13671,-28.78125 1.01855,-8.29669 4.00196,-21.22852 4.00196,-21.22852 z m 114.375,0 c 0,0 -0.55652,2.93508 -1.11524,5.88477 -0.54487,1.54611 -1.62059,4.6041 -2.14843,6.22656 -0.67877,2.08633 -1.70508,5.81055 -1.70508,5.81055 0,0 1.68107,-3.47478 2.37109,-5.59571 0.24309,-0.74719 0.55583,-1.93344 0.85938,-3.15234 -0.0202,0.10763 -0.0512,0.27085 -0.0703,0.37305 -0.61604,3.29149 -1.9375,10.33008 -1.9375,10.33008 0,0 1.99995,-6.86157 2.625,-10.20118 0.62472,-3.33779 1.1211,-9.67578 1.1211,-9.67578 z m -99.54688,0.48633 c 0,0 -3.701,15.62449 -4.58593,24.40625 -0.88551,8.78753 -0.46485,27.89453 -0.46485,27.89453 0,0 0.28721,-19.14155 1.16211,-27.82422 0.87553,-8.68844 3.88867,-24.47656 3.88867,-24.47656 z m 37.47266,0.16406 c 0,0 -2.08088,7.62889 -2.4668,11.04102 -0.38192,3.37672 -0.37795,6.44426 -0.32617,9.00586 0.0524,2.58896 0.83789,6.34765 0.83789,6.34765 0,0 -0.0876,-3.83809 -0.13867,-6.36132 -0.0516,-2.55066 -0.0523,-5.58468 0.32422,-8.91407 0.37256,-3.29398 1.76953,-11.11914 1.76953,-11.11914 z m 38.5332,2.20117 c 0,0 -0.26219,3.85213 -0.42969,5.50391 -0.16837,1.66026 -0.88866,4.67774 -0.54882,4.75977 0,0 1.06444,-2.91755 1.24414,-4.68946 0.18052,-1.78037 -0.26563,-5.57422 -0.26563,-5.57422 z m -1.84765,0.082 c 0,0 -0.70459,4.26906 -1.03516,6.04101 -0.33246,1.78206 -0.92383,4.90234 -0.92383,4.90235 0,0 1.26236,-2.90484 1.61133,-4.7754 0.35085,-1.88063 0.34766,-6.16796 0.34766,-6.16796 z m -33.81446,0.6914 c 0,0 -1.23352,4.76318 -1.5,7.33594 -0.26666,2.57456 -0.0547,7.87109 -0.0547,7.87109 0,0 0.49293,-5.29816 0.75195,-7.79883 0.2592,-2.50245 0.80273,-7.4082 0.80273,-7.4082 z m -7.08594,1.38086 c 0,0 -3.6978,16.77835 -5.0664,23.66406 -1.36886,6.88704 -3.22852,19.3086 -3.22852,19.3086 0,0 2.54512,-12.27455 3.91602,-19.17188 1.37116,-6.89861 4.37891,-23.80078 4.3789,-23.80078 z m -52.97265,3.62891 c 0,0 -4.71589,23.08764 -4.94922,32.89843 -0.23108,9.71646 0.73662,16.65873 2.125,24.86915 1.39371,8.24195 3.82305,17.02997 6.21094,24.35546 2.40211,7.36915 8.34375,19.38086 8.34375,19.38086 0,0 -4.93546,-12.47836 -7.29688,-19.72265 -2.37564,-7.28794 -4.79179,-16.03588 -6.17187,-24.19727 -1.38542,-8.19294 -2.34039,-15.02892 -2.11133,-24.66015 0.22681,-9.53689 3.84961,-32.92383 3.84961,-32.92383 z m 14.5,4.39843 c 0,0 -2.72921,12.83048 -3.16797,20.9961 -0.43715,8.13558 -0.22646,17.69268 0.65234,27.5918 0.87952,9.90716 3.07381,24.08076 4.89649,31.66601 1.82286,7.58604 4.95117,13.75586 4.95117,13.75586 0,0 -2.37023,-6.43751 -4.17383,-13.94336 -1.80378,-7.50663 -4.00187,-21.69171 -4.87695,-31.54883 -0.87579,-9.86516 -1.085,-19.39025 -0.65039,-27.47851 0.43299,-8.05823 2.36914,-21.03906 2.36914,-21.03907 z m 33.9707,5.54102 c 0,0 -2.17923,4.84859 -3.07617,8.28906 -0.89288,3.42494 -1.862,8.21987 -2.45312,12.09766 -0.58939,3.86605 -0.98809,6.88824 -1.14454,11.12305 -0.15631,4.23123 -0.11865,9.43673 0.41016,14.23437 0.52928,4.80193 1.733,10.14658 2.7793,14.38867 1.05328,4.27046 3.72851,10.98438 3.72851,10.98438 0,0 -1.91515,-6.97538 -2.95117,-11.17578 -1.043,-4.22877 -2.23984,-9.55042 -2.76172,-14.28516 -0.52234,-4.73893 -0.5595,-9.91484 -0.4043,-14.11719 0.15511,-4.19877 0.54664,-7.17534 1.13477,-11.0332 0.58635,-3.84613 1.55307,-8.63063 2.43555,-12.01562 0.87841,-3.36944 2.30273,-8.49024 2.30273,-8.49024 z m 0.082,4.07227 c 0,0 -2.7782,10.49663 -3.60547,16.07812 -0.82234,5.54838 -1.62768,11.34372 -1.63281,17.1582 -0.005,5.84869 1.97852,17.4336 1.97852,17.4336 0,0 -1.28424,-11.71762 -1.2793,-17.4336 0.005,-5.75016 0.80525,-11.51074 1.62695,-17.05468 0.81679,-5.51083 2.91211,-16.18164 2.91211,-16.18164 z m -57.02539,0.97656 c 0,0 -0.84194,14.54635 -0.34961,22.50586 0.49024,7.92572 1.27261,16.74005 3.10352,24.98242 1.8385,8.27651 8.16211,24.03711 8.16211,24.03711 0,0 -5.66896,-16.04322 -7.47852,-24.18945 -1.81714,-8.18039 -2.59851,-16.96125 -3.08789,-24.87305 -0.48729,-7.87802 -0.34961,-22.46289 -0.34961,-22.46289 z m 43.66602,2.60742 c 0,0 -3.67734,11.43237 -4.58399,17.38086 -0.90021,5.90633 -1.34801,11.98592 -1.14453,17.82422 0.20351,5.83879 1.04976,10.75691 2.28907,17 1.24773,6.28551 5.71875,20.29687 5.71874,20.29687 0,0 -3.80415,-14.24223 -5.0332,-20.43359 -1.23747,-6.23379 -2.0718,-11.10354 -2.27344,-16.88867 -0.20165,-5.78566 0.24208,-11.82362 1.13672,-17.69336 0.88822,-5.82759 3.89063,-17.48633 3.89063,-17.48633 z m 4.39844,3.42188 c 0,0 -4.23643,14.99539 -4.91211,22.61523 -0.67208,7.57912 -0.15595,15.60109 0.49023,22.38477 0.64655,6.7875 1.4483,11.36092 3.10352,18.29687 1.66523,6.97811 7.50781,23.05469 7.50781,23.05469 0,0 -5.18527,-16.34084 -6.82617,-23.2168 -1.65096,-6.91812 -2.4437,-11.43642 -3.08789,-18.19922 -0.64456,-6.76663 -1.15568,-14.75342 -0.49024,-22.25781 0.66184,-7.46366 4.21485,-22.67773 4.21485,-22.67773 z m 2.93164,2.76757 c 0,0 -4.36568,12.9708 -5.0586,19.82813 -0.68616,6.79046 -0.13657,13.13834 0.48828,20.29687 0.62747,7.18843 2.02102,15.6245 3.42969,22.70118 1.41467,7.10677 5.37695,19.61718 5.37695,19.61718 0,0 -2.99889,-12.79147 -4.39648,-19.8125 -1.40359,-7.05113 -2.79187,-15.46373 -3.41406,-22.59179 -0.62481,-7.15796 -1.16475,-13.43419 -0.49024,-20.10938 0.66776,-6.60832 4.06446,-19.92969 4.06446,-19.92969 z m -36.16993,0.32813 c 0,0 -0.94305,21.12858 -0.23632,30.17187 0.70303,8.99611 1.84127,15.99217 3.59375,23.6836 1.75374,7.697 4.4714,16.87746 6.86718,22.39062 2.39986,5.52253 6.55664,10.59375 6.55664,10.59375 0,0 -3.47404,-5.50389 -5.82421,-10.91211 -2.35425,-5.41756 -5.07383,-14.59338 -6.81836,-22.25 -1.74582,-7.66217 -2.87585,-14.60692 -3.57618,-23.56836 -0.69662,-8.91424 -0.16308,-30.0996 -0.5625,-30.10937 z m 35.68164,4.07226 c 0,0 -1.98321,14.26384 -1.65234,20.38477 0.0675,1.24798 0.1776,2.5105 0.31055,3.77734 -0.0402,0.88823 -0.23178,5.49682 0.0156,8.29102 0.27023,3.05141 0.67982,5.91725 1.71875,10.23437 1.04956,4.3613 5.22852,15.39649 5.22852,15.39649 0,0 -3.52521,-11.31515 -4.54688,-15.56055 -1.03228,-4.28947 -1.43497,-7.10288 -1.70312,-10.13086 -0.11422,-1.28971 -0.16884,-2.83559 -0.20117,-4.21289 0.52581,3.54904 1.22147,7.0644 1.95507,10.34766 1.28005,5.72844 5.06641,15.89062 5.06641,15.89062 0,0 -3.1225,-10.40277 -4.38281,-16.04297 -1.26805,-5.67474 -2.43759,-12.03102 -2.76172,-18.02734 -0.32085,-5.93562 0.95312,-20.34766 0.95312,-20.34766 z m -7.00585,0.32618 c 0,0 -2.29545,12.18174 -2.46875,18.56445 -0.17248,6.35202 0.43273,12.93324 1.14257,19.27344 0.70991,6.34069 1.55229,12.54643 3.10547,18.7832 1.56091,6.2678 6.5293,18.32617 6.5293,18.32617 0,0 -4.31811,-12.33854 -5.85156,-18.49609 -1.54118,-6.18859 -2.37722,-12.36128 -3.08594,-18.69141 -0.70877,-6.33062 -1.30958,-12.88135 -1.13867,-19.17578 0.17007,-6.26374 1.76758,-18.58398 1.76758,-18.58398 z m -27.53516,8.79882 c 0,0 -0.25346,16.87434 0.92187,25.00586 1.16619,8.06814 3.04788,16.20129 5.4004,23.23243 2.34786,7.01718 5.38212,14.55999 8.3789,18.875 3.00237,4.32305 7.7832,8.1582 7.7832,8.1582 0,0 -4.03623,-4.68923 -6.88086,-8.78516 -2.8502,-4.10397 -5.90613,-11.62743 -8.23828,-18.59765 -2.32747,-6.9563 -4.19632,-15.03316 -5.35351,-23.03907 -1.14803,-7.9425 -2.01172,-24.84961 -2.01172,-24.84961 z m 13.84961,0.32618 c 0,0 -0.38419,17.62086 0.25195,24.96093 0.63321,7.30623 1.77939,13.89245 2.77735,18.78321 1.00224,4.91183 3.16211,10.50976 3.1621,10.50976 0,0 -1.38941,-5.82064 -2.3789,-10.66992 -0.9938,-4.87036 -2.13211,-11.42666 -2.76172,-18.69141 -0.62668,-7.23085 -1.05078,-24.89257 -1.05078,-24.89257 z m 17.75976,2.44336 c 0,0 -0.91585,7.99244 -0.67578,12.72656 0.23868,4.70664 0.95311,10.58238 1.96094,15.36914 1.00718,4.78362 2.52214,9.8239 3.92969,13.25781 1.41545,3.45321 4.23437,7.19922 4.23437,7.19922 0,0 -2.21081,-4.10996 -3.58593,-7.46484 -1.38308,-3.37422 -2.89416,-8.3947 -3.89258,-13.13672 -0.99777,-4.73898 -1.71069,-10.59647 -1.94727,-15.26172 -0.23519,-4.63786 -0.0234,-12.68945 -0.0234,-12.68945 z m -13.19921,0.48828 c 0,0 -0.19505,15.70327 0.58007,23.33984 0.77048,7.59078 1.53346,14.47862 3.59571,22.2207 2.07519,7.79073 9.34765,23.6836 9.34765,23.6836 0,0 -6.54266,-16.26376 -8.57422,-23.89063 -2.04449,-7.6755 -2.80224,-14.50938 -3.57226,-22.0957 -0.76538,-7.54056 -1.37695,-23.25781 -1.37695,-23.25781 z m -32.09571,3.91015 c 0,0 2.00384,16.83914 3.84766,24.3711 1.83567,7.49869 4.47508,15.46101 6.53516,20.58398 2.06615,5.13807 5.42187,10.11524 5.42187,10.11524 0,0 -2.64454,-5.35311 -4.67969,-10.41407 -2.04121,-5.07604 -4.67536,-13.02097 -6.5,-20.47461 -1.8165,-7.42037 -4.625,-24.18164 -4.625,-24.18164 z m 28.83789,1.4668 c 0,0 0.64134,18.25183 2.09961,25.9707 1.45146,7.68284 3.24575,14.55991 5.06055,20.24414 1.81772,5.69336 3.74904,9.67223 5.71875,14.04883 1.98034,4.40024 6.83398,11.58789 6.83398,11.58789 0,0 -4.26028,-7.57544 -6.19531,-11.875 -1.94566,-4.32316 -3.86957,-8.27448 -5.68945,-13.97461 -1.82279,-5.70924 -3.60079,-12.54901 -5.03906,-20.16211 -1.43147,-7.57703 -2.78907,-25.83984 -2.78907,-25.83984 z m -6.65429,5.8418 c 0,0 0.91295,13.83977 1.72851,19.41406 0.86035,5.88042 1.24427,9.11809 2.53906,14.53711 1.29249,5.40931 3.56432,13.50923 5.4336,17.80078 1.86731,4.28703 4.92969,7.80859 4.92969,7.80859 0,0 -2.46216,-3.89807 -4.28711,-8.08789 -1.823,-4.18529 -4.10856,-12.30151 -5.39453,-17.68359 -1.28365,-5.37239 -1.66578,-8.12575 -2.53126,-14.49609 -0.75876,-5.58486 -2.41796,-19.29297 -2.41796,-19.29297 z m -16.96875,6.37695 c 0,0 3.5334,17.16174 6.18359,25.04102 2.64898,7.87567 9.45703,21.88281 9.45703,21.88281 0,0 -6.17344,-14.31931 -8.79297,-22.10742 -2.61831,-7.78453 -6.84765,-24.81641 -6.84765,-24.81641 z m 29.16211,6.84375 c 0,0 2.32001,17.67363 4.38867,25.18359 2.06553,7.49866 7.50586,19.45899 7.50586,19.45899 0,0 -4.79409,-12.24601 -6.83203,-19.64453 -2.03485,-7.38722 -5.0625,-24.99805 -5.0625,-24.99805 z m -7.65821,2.44336 c 0,0 2.02444,13.32442 3.69336,18.69336 1.03071,3.31579 1.90336,5.60844 3.02149,8.14062 0.001,0.003 0.002,0.007 0.004,0.01 0.15219,0.509 2.53688,8.45799 4.37305,12.25 1.89872,3.92119 7.32031,11.25195 7.32031,11.25195 0,0 -4.8561,-7.76832 -6.6914,-11.55859 -0.92608,-1.91251 -1.9872,-4.81824 -2.81446,-7.23438 0.0671,0.14104 0.11458,0.2458 0.1836,0.39063 2.52469,5.29824 10.29882,17.91406 10.29882,17.91406 0,0 -7.09849,-13.0583 -9.57617,-18.25781 -2.50054,-5.2476 -3.71525,-7.86796 -5.35547,-13.14453 -1.62252,-5.21978 -4.45703,-18.45508 -4.45703,-18.45508 z" /><path
       id="path185"
       style="fill:#000000;fill-opacity:0.2;stroke:none;stroke-width:1px;stroke-linecap:butt;stroke-linejoin:miter;stroke-opacity:1"
       d="m 211.0625,47.189453 -0.0703,0.06055 -11.89453,16.291016 -10.26368,20.367187 -6.68164,25.253904 -2.76953,26.06836 0.32617,21.99414 3.58399,19.71484 3.0957,9.93946 5.86524,9.9375 10.30078,14.83593 c 0,0 4.31832,4.61392 6.46289,6.28125 2.14457,1.66735 6.21094,3.81055 6.21094,3.81055 0,0 -6.15252,-10.31155 -5.3379,-9.33398 0.31069,0.37282 2.24371,2.68123 3.92383,4.29101 3.19024,3.05667 7.47266,5.88867 7.47266,5.88867 l -7.03711,-8.82812 4.31445,4.42187 3.82422,3.75586 8.59571,8.64258 -1.41993,-4.27539 2.56055,1.62109 c 0,0 3.1544,1.62104 2.77539,1.06641 -1.67001,-2.44392 -5.00977,-11.32226 -5.00977,-11.32226 l 1.83399,2.93164 c 0,0 -0.77913,-2.01716 -1.34375,-4.56055 -0.56462,-2.54339 -1.61105,-8.53041 -1.63086,-10.75391 -0.0198,-2.2235 0.32617,-2.44336 0.32617,-2.44336 l 5.37695,12.70703 1.42579,2.81055 c 0,0 -2.07831,-6.72007 -1.26368,-6.06836 0.81463,0.65171 3.46289,6.19141 3.46289,6.19141 0,0 -0.73314,-3.38429 -1.22265,-6.31445 -0.4895,-2.93017 -1.58789,-11.28126 -1.58789,-11.28126 l -3.58399,-21.18164 4.07227,10.42774 4.68555,8.67578 c 0,0 -1.33002,-3.69091 -1.875,-6.19141 -0.54498,-2.5005 -0.69141,-7.20898 -0.69141,-7.20898 l 2.56641,7.73828 c 0,0 -0.2396,-1.26522 -0.49024,-2.6875 -0.25064,-1.42228 -1.53707,-7.13774 -1.87305,-10.18359 -0.33597,-3.04586 -0.57031,-5.94727 -0.57031,-5.94727 L 236.2461,157.0625 c 0,0 -0.1155,-1.90897 0.40625,-5.49805 0.0134,-0.0923 0.0756,-0.3732 0.0918,-0.47656 0,0 -4.49735,-22.31098 -4.94726,-32.6543 -0.44991,-10.34332 1.84374,-29.033196 1.84374,-29.033196 l -4.2619,10.714926 -6.2226,28.2262 c -1.6508,-7.21972 -2.26474,-13.40258 -1.8418,-25.80664 l 6.79701,-28.341518 -5.07031,11.521485 -6.91211,25.806633 c 0,0 -2.12981,-11.32673 -2.53489,-16.129331 -0.40509,-4.802606 -0.31398,-9.691808 -1e-4,-13.941163 0.31388,-4.249356 2.99592,-13.247858 2.99592,-13.247858 0,0 -6.45128,13.824653 -6.91211,15.667969 -0.46083,1.843316 -2.72894,-14.95673 -2.41946,-21.082166 0.30949,-6.125436 3.80423,-15.599475 3.80423,-15.599475 z"
       sodipodi:nodetypes="cccccccccccscsscccccccsccsscccscsccccsccssccsczccccccczzcszc" /><path
       id="path132"
       style="color:#000000;fill:#ffffff;fill-opacity:0.3;-inkscape-stroke:none"
       d="m 279.03125,30.992188 c 0,0 -2.71645,0.548014 -4.55078,1.595703 -1.81694,1.037758 -4.39694,2.908454 -6.16406,4.476562 -1.79065,1.588965 -4.14649,4.986328 -4.14649,4.986328 0,0 2.91462,-2.955325 4.61133,-4.460937 1.72022,-1.526469 4.29792,-3.395594 6.04687,-4.394532 1.73159,-0.989005 4.20313,-2.203125 4.20313,-2.203124 z m 1.44141,1.4375 c 0,0 -3.25227,1.021314 -5.25782,2.298828 -2.00013,1.27408 -4.66143,3.533139 -6.54492,5.09375 -1.9007,1.574867 -4.61523,4.53125 -4.61523,4.53125 0,0 3.19042,-2.441038 5.0625,-3.992188 1.88928,-1.565406 4.55465,-3.81997 6.47461,-5.042969 1.91455,-1.219565 4.88086,-2.888671 4.88086,-2.888671 z m 2.88086,3.054687 c 0,0 1.01792,3.732623 1.55859,6.125 0.54222,2.399234 0.90255,6.004678 1.20312,8.546875 0.29826,2.522586 0.98243,6.583984 0.98243,6.583984 0,0 0.0143,-4.11647 -0.28711,-6.666015 -0.29913,-2.529937 -0.65431,-6.138832 -1.21485,-8.619141 -0.56209,-2.487164 -2.24218,-5.970702 -2.24218,-5.970703 z m -2.41993,0.748047 c 0,0 -1.68992,4.550334 -2.13086,6.964844 -0.43593,2.387091 -0.66771,4.821665 -0.81054,7.185546 -0.14449,2.391268 0.29101,6.990235 0.29101,6.990235 0,0 0.26615,-4.629583 0.40625,-6.949219 0.14181,-2.347019 0.37401,-4.751951 0.80274,-7.099609 0.42372,-2.320244 1.4414,-7.091797 1.4414,-7.091797 z m 13.30664,0.634766 c 0,0 4.39857,2.965995 6.8086,4.539062 2.43757,1.591049 5.40221,3.4835 7.5,5.322266 2.07946,1.822692 5.56445,5.404296 5.56445,5.404296 0,0 -2.84533,-4.084715 -5.03711,-6.005859 -2.17344,-1.905073 -5.15822,-3.803461 -7.58984,-5.390625 -2.45917,-1.605143 -7.2461,-3.86914 -7.2461,-3.86914 z m -12.55859,1.324218 c 0,0 -0.91315,4.817985 -0.92578,7.371094 -0.0127,2.55465 0.86719,7.605469 0.86719,7.605469 0,0 -0.18012,-5.150596 -0.16797,-7.601563 0.0121,-2.452506 0.22656,-7.375 0.22656,-7.375 z m 7.19922,1.324219 c 0,0 1.45056,2.709128 2.20508,4.386719 0.76381,1.698248 1.47138,3.98879 1.99804,6.05664 0.51914,2.038292 1.44336,6.261719 1.44336,6.261719 0,0 -0.3216,-4.291006 -0.86132,-6.410156 -0.5322,-2.089591 -1.24374,-4.399009 -2.03321,-6.154297 -0.79876,-1.775948 -2.75195,-4.140625 -2.75195,-4.140625 z m 4.0332,1.441406 c 0,0 1.6224,4.267285 2.25977,6.214844 0.64565,1.972852 1.22497,3.780953 1.66015,5.726563 0.43003,1.922513 1.26368,5.742187 1.26368,5.742187 0,0 -0.26199,-3.898614 -0.69532,-5.835937 -0.42817,-1.914231 -0.89461,-3.810746 -1.5625,-5.851563 -0.67616,-2.066111 -2.92578,-5.996094 -2.92578,-5.996094 z m -16.24218,1.035157 c 0,0 -1.49215,3.523902 -2.17969,5.833984 -0.68821,2.312294 -1.91016,7.992187 -1.91016,7.992187 0,0 1.8973,-5.498917 2.58008,-7.792968 0.68343,-2.296266 1.50977,-6.033204 1.50977,-6.033203 z m 21.08203,3.398437 c 0,0 1.66737,4.866427 2.43164,7.195313 0.77162,2.351277 1.48523,5.059113 1.89062,7.046874 0.40215,1.971858 1.0332,4.824219 1.03321,4.824219 0,0 0.0682,-2.925714 -0.34766,-4.964843 -0.41263,-2.023224 -1.12882,-4.7441 -1.91016,-7.125 -0.78869,-2.403292 -3.09765,-6.976564 -3.09765,-6.976563 z m 3.2832,3.400391 c 0,0 2.95483,3.399405 4.25391,5.484375 0.64456,1.034542 1.64171,2.776637 2.29101,4.414062 0.64929,1.637425 2.03711,4.44336 2.03711,4.443359 0,0 -0.84711,-3.108351 -1.50195,-4.759765 -0.65484,-1.651415 -1.52674,-3.336122 -2.23242,-4.46875 -1.40151,-2.24937 -4.84766,-5.113281 -4.84766,-5.113281 z m -22.81055,26.669922 c 0,0 -0.8468,6.022209 -1.15429,8.890624 -0.30825,2.87547 -0.66255,5.58956 -1.03711,8.34375 -0.37365,2.747505 -0.86328,8.226558 -0.86328,8.226568 0,0 1.18081,-5.369286 1.55664,-8.132818 0.37492,-2.756842 0.72975,-5.477918 1.03906,-8.363281 0.31006,-2.892414 0.45898,-8.964843 0.45898,-8.964843 z m -26.03711,0.517578 c 0,0 -1.82358,2.521931 -2.79883,4.757812 -0.97464,2.234555 -2.17112,5.726935 -3.11914,8.433594 -0.95247,2.719447 -2.26171,7.949219 -2.26171,7.949219 0,0 1.97707,-5.019332 2.92187,-7.716797 0.94928,-2.710255 2.14997,-6.205058 3.10156,-8.386719 0.95102,-2.180334 2.15625,-5.037109 2.15625,-5.037109 z m -1.15429,0.171875 c 0,0 -3.93575,7.398674 -5.16602,10.708984 -1.22139,3.28642 -1.85784,6.106458 -2.59961,8.666016 -0.74753,2.579461 -1.56445,6.894529 -1.56445,6.894529 0,0 1.492,-4.132782 2.23633,-6.70117 0.75009,-2.588293 1.38047,-5.376931 2.58398,-8.615234 1.19463,-3.214416 4.50977,-10.953125 4.50977,-10.953125 z m 74.94336,0.05859 c 0,0 1.10692,6.049465 1.58203,8.617188 0.48307,2.610774 0.69372,4.486445 0.91601,7.15039 0.21883,2.622454 0.84375,8.771491 0.84375,8.771491 0,0 0.37921,-6.134769 0.15235,-8.853522 -0.22341,-2.677257 -0.43845,-4.605609 -0.92774,-7.25 -0.49725,-2.687442 -2.5664,-8.435547 -2.5664,-8.435547 z m -77.99414,0.980469 c 0,0 -2.77185,5.027878 -3.89844,7.998047 -1.12248,2.95933 -2.35433,7.060905 -3.0625,9.53125 -0.71111,2.480573 -0.98828,5.339843 -0.98828,5.339843 0,0 0.95762,-2.695804 1.66015,-5.146484 0.70547,-2.460906 1.93841,-6.559258 3.04492,-9.476562 1.10243,-2.906466 3.24414,-8.246094 3.24415,-8.246094 z m 12.38476,0.748047 c 0,0 -3.79782,6.9193 -5.05273,10.365234 -1.24475,3.417963 -1.93864,6.469087 -2.77539,9.826172 -0.84316,3.382717 -1.90625,10.455077 -1.90625,10.455077 0,0 1.75346,-6.9453 2.58593,-10.285155 0.83887,-3.365454 1.5264,-6.387185 2.75391,-9.757812 1.21732,-3.342656 4.39453,-10.603516 4.39453,-10.603516 z m 79.83789,1.037109 c 0,0 1.8233,5.483683 2.60352,8.050782 0.78872,2.595085 1.4238,5.228942 1.83203,7.61914 0.40391,2.364933 1.03711,6.681642 1.03711,6.681642 0,0 0.0728,-4.350486 -0.34571,-6.800782 -0.41417,-2.425032 -1.05695,-5.08224 -1.85351,-7.703125 -0.80507,-2.648876 -3.27344,-7.847657 -3.27344,-7.847657 z m -94.52734,0.576172 c 0,0 -3.03037,5.086568 -4.07031,7.705078 -1.03835,2.614486 -2.09375,7.675783 -2.09376,7.675782 0,0 1.74115,-4.887602 2.7461,-7.417969 1.00335,-2.526343 3.41797,-7.962891 3.41797,-7.962891 z m 38.59375,0.519531 c 0,0 -0.62365,3.426077 -0.81641,5.558594 -0.19263,2.131067 -0.47434,5.214216 -0.63476,7.205078 -0.16045,1.991108 -0.0449,4.748047 -0.0449,4.748047 0,0 0.48467,-2.717038 0.64454,-4.701172 0.15988,-1.98438 0.44014,-5.065775 0.63281,-7.197265 0.19254,-2.13004 0.21875,-5.613281 0.21875,-5.613282 z m -40.72461,0.689454 c 0,0 -2.09926,3.513576 -2.85742,5.33789 -0.75534,1.81751 -1.20421,3.361227 -1.96289,5.306641 -0.75949,1.947399 -2.32227,6.578125 -2.32227,6.578125 0,0 2.20509,-4.349136 2.97461,-6.322266 0.77029,-1.975114 1.21815,-3.515058 1.95703,-5.292968 0.73605,-1.771106 2.21094,-5.607421 2.21094,-5.607422 z m 94.8164,0.002 c 0,0 2.6651,6.901195 3.54883,10.152343 0.88569,3.258358 1.98047,9.892574 1.98047,9.892574 0,0 -0.0706,-6.677701 -1.01562,-10.154292 -0.94697,-3.483801 -4.51368,-9.890625 -4.51368,-9.890625 z m -27.99609,0.230469 c 0,0 1.06849,5.843455 1.38086,8.394531 0.31673,2.586681 0.26939,4.608228 0.28516,7.216797 0.0155,2.578026 0.11914,8.34961 0.11914,8.3496 0,0 0.59592,-5.725146 0.58008,-8.353507 -0.0157,-2.597818 0.0321,-4.660149 -0.29102,-7.298828 -0.32745,-2.674285 -2.07422,-8.308594 -2.07422,-8.308593 z m -24.30859,0.05664 c 0,0 -0.27061,4.665106 -0.63672,7.675781 -0.36344,2.988473 -1.87384,7.602684 -2.18945,10.546875 -0.3124,2.914182 0.29101,6.546872 0.29101,6.546872 0,0 0.10488,-3.66106 0.40625,-6.472653 0.29819,-2.781587 1.80686,-7.407142 2.1875,-10.537109 0.37792,-3.107765 -0.0586,-7.759766 -0.0586,-7.759766 z m -31.10743,0.460938 c 0,0 -1.63647,4.109916 -2.29687,6.769531 -0.65851,2.652 -1.5079,6.726167 -1.90625,9.011719 -0.39886,2.288507 -0.28906,4.66796 -0.28906,4.66796 0,0 0.58546,-2.293606 0.97851,-4.54882 0.39358,-2.258169 1.24449,-6.335164 1.89649,-8.960937 0.6501,-2.61816 1.61719,-6.939453 1.61718,-6.939453 z m 52.30469,0.05664 c 0,0 0.98509,4.539064 1.38281,6.96875 0.40305,2.462068 0.61585,5.206537 0.62891,7.894532 0.0128,2.652166 -0.22656,8.236328 -0.22656,8.236328 0,0 0.94109,-5.47987 0.92773,-8.238282 -0.0132,-2.722581 -0.22859,-5.50082 -0.63867,-8.005859 -0.41538,-2.537418 -2.07422,-6.855469 -2.07422,-6.855469 z m -44.8164,0.05664 c 0,0 -1.46493,4.277971 -1.95508,6.730469 -0.49163,2.459872 -0.69896,5.176143 -1.26563,7.769531 -0.56548,2.58797 -1.84765,8.02343 -1.84765,8.02343 0,0 1.94939,-5.210158 2.53125,-7.873039 0.58067,-2.657466 0.78811,-5.384165 1.26758,-7.783204 0.48093,-2.406413 1.26953,-6.867186 1.26953,-6.867187 z m 54.49414,0.291015 c 0,0 0.88295,5.221432 1.26562,7.882813 0.38554,2.68134 0.56998,5.670687 0.68945,8.318359 0.11856,2.627033 0.0566,7.526243 0.40626,7.531243 0,0 0.41376,-4.88582 0.29296,-7.562493 -0.11986,-2.656042 -0.30379,-5.663822 -0.69531,-8.386718 -0.39439,-2.742858 -1.95898,-7.783203 -1.95898,-7.783204 z m -42.6836,0.05664 c 0,0 -1.25949,4.963809 -1.89453,7.400391 -0.6374,2.445639 -1.48623,4.590119 -2.30078,7.302734 -0.81281,2.706827 -2.20117,8.97265 -2.20117,8.97265 0,0 2.06418,-6.084292 2.87109,-8.771478 0.80517,-2.681398 1.65824,-4.832755 2.3086,-7.328125 0.65272,-2.504427 1.21679,-7.576172 1.21679,-7.576172 z m -4.09179,0.287109 c 0,0 -2.28126,4.267425 -3.04297,6.871094 -0.76092,2.600927 -1.0184,5.659688 -1.67383,8.310547 -0.65796,2.661085 -1.96484,7.917965 -1.96484,7.917965 0,0 1.97216,-5.03065 2.64453,-7.749996 0.67489,-2.729561 0.93513,-5.782974 1.66601,-8.28125 0.73008,-2.495534 2.3711,-7.06836 2.3711,-7.06836 z m 44.00976,0.115235 c 0,0 0.82366,4.076649 1.21094,6.28125 0.39149,2.228544 0.59248,4.620326 0.74414,7.21875 0.15004,2.570689 0.46484,8.332031 0.46484,8.332031 0,0 0.38831,-5.735973 0.23438,-8.373047 -0.1523,-2.609339 -0.35474,-5.02655 -0.75391,-7.298828 -0.40337,-2.29622 -1.90039,-6.160156 -1.90039,-6.160156 z m -38.65039,0.05859 c 0,0 -0.47298,3.531326 -0.63867,5.558593 -0.16743,2.048452 -0.3755,4.807785 -0.74219,6.640625 -0.36784,1.838623 -0.87965,2.92444 -1.32031,4.527344 -0.43572,1.584939 -0.92774,4.988279 -0.92774,4.988279 0,0 1.17356,-3.23873 1.60352,-4.802732 0.42502,-1.546021 0.9483,-2.665937 1.33008,-4.574219 0.38293,-1.914061 0.58878,-4.678489 0.75586,-6.722656 0.1688,-2.065351 -0.0606,-5.615234 -0.0606,-5.615234 z m -16.5918,0.287109 c 0,0 -2.01154,4.057728 -2.7539,6.523438 -0.73895,2.454355 -1.36511,5.500167 -1.90821,7.974609 -0.54648,2.489948 -1.38281,6.923835 -1.03906,6.988285 0,0 1.18134,-4.371578 1.72266,-6.837894 0.54472,-2.481825 1.17032,-5.518408 1.89453,-7.923829 0.72079,-2.394064 2.08398,-6.724609 2.08398,-6.724609 z m 74.59766,0.05664 c 0,0 1.01697,4.882836 1.4707,6.908203 0.46262,2.065004 0.71913,3.523357 0.97071,5.484375 0.2471,1.926172 0.84179,6.675784 0.84179,6.675784 0,0 0.1775,-4.753559 -0.0781,-6.746097 -0.25114,-1.957693 -0.45591,-3.461281 -0.92969,-5.576172 -0.48267,-2.154497 -2.27539,-6.746093 -2.27539,-6.746093 z m -36.80859,0.115234 c 0,0 0.35319,5.531002 0.45703,7.736328 0.10562,2.243331 0.10539,3.81527 -0.0566,5.714844 -0.159,1.863521 -0.57227,5.732426 -0.57227,5.732426 0,0 1.10159,-3.705482 1.26953,-5.673832 0.16487,-1.932299 0.16495,-3.547785 0.0586,-5.806641 -0.10815,-2.296861 -1.15625,-7.703125 -1.15625,-7.703125 z m -6.16407,0.232422 c 0,0 -0.33871,5.220149 -0.57812,7.683594 -0.24072,2.477505 -0.87795,5.285446 -1.20703,7.292968 -0.32369,1.974594 -0.6557,3.295894 -0.75196,4.640624 -0.0969,1.35347 0.40626,3.19336 0.40626,3.19336 0,0 0.20134,-1.89217 0.29101,-3.14453 0.0903,-1.26106 0.4182,-2.57591 0.74609,-4.576172 0.3225,-1.967332 0.96567,-4.793284 1.2129,-7.337891 0.24863,-2.558671 -0.11915,-7.751953 -0.11915,-7.751953 z m -19.58593,0.34375 c 0,0 -1.58768,4.061012 -2.125,6.314453 -0.53841,2.257994 -0.74105,4.393175 -1.38282,6.964844 -0.63932,2.561978 -2.25,8.669929 -2.25,8.669929 0,0 2.27192,-5.864179 2.92969,-8.500007 0.65536,-2.626142 0.86053,-4.774097 1.38477,-6.972657 0.52532,-2.20311 1.44336,-6.476562 1.44336,-6.476562 z m 58.41211,0.115234 c 0,0 0.9561,5.324009 1.38281,7.554688 0.43132,2.254795 0.7174,4.001845 0.91797,6.017578 0.19823,1.992257 0.63672,6.070316 0.63672,6.070316 0,0 0.26398,-4.073984 0.0586,-6.138675 -0.20311,-2.041217 -0.49262,-3.815664 -0.92578,-6.080079 -0.43777,-2.28853 -2.07031,-7.423828 -2.07031,-7.423828 z M 293.95312,83.8125 c 0,0 0.0296,4.599814 0.0508,6.628906 0.0214,2.056868 -0.0475,3.813309 -0.22852,5.72461 -0.17853,1.884893 -0.51367,5.791014 -0.51367,5.791014 0,0 1.02519,-3.765416 1.21094,-5.726561 0.18323,-1.934737 0.25402,-3.720093 0.23242,-5.796875 -0.0219,-2.104558 -0.75195,-6.621094 -0.75196,-6.621094 z m 5.64454,0.05859 c 0,0 -0.0609,4.988505 -0.006,7.324218 0.0557,2.360127 0.18612,4.893481 0.002,6.753907 -0.1833,1.850681 -0.57227,4.642585 -0.57227,4.642585 0,0 1.07517,-2.611307 1.26954,-4.574226 0.1934,-1.953178 0.0573,-4.494273 0.002,-6.839844 -0.056,-2.369979 -0.69531,-7.30664 -0.69531,-7.30664 z m 37.73046,0 c 0,0 0.5929,3.844822 0.92188,5.65039 0.33219,1.823175 0.52154,3.423064 0.74609,5.390625 0.22259,1.950379 0.92383,6.355475 0.92383,6.355475 0,0 -0.002,-4.447483 -0.22851,-6.4336 -0.22471,-1.968935 -0.41519,-3.589212 -0.75196,-5.4375 -0.33997,-1.865889 -1.61133,-5.52539 -1.61133,-5.52539 z m -62.73046,0.748047 c 0,0 -0.57029,3.3952 -0.97852,5.582031 -0.40759,2.18339 -1.39041,5.025953 -2.01172,7.644531 -0.61916,2.609541 -1.33203,7.972661 -1.33203,7.972661 0,0 1.4005,-5.23449 2.01172,-7.810552 0.60907,-2.567002 1.59506,-5.403887 2.01953,-7.677734 0.42383,-2.270407 0.29102,-5.710937 0.29102,-5.710937 z m -8.78516,0.347656 c 0,0 -1.36312,3.83404 -1.98242,6.306641 -0.61915,2.471997 -1.46954,6.122887 -2.01563,8.416015 -0.54666,2.295531 -0.92773,5.437501 -0.92773,5.437501 0,0 1.06114,-2.98145 1.60742,-5.275392 0.54685,-2.296321 1.39916,-5.944965 2.01563,-8.40625 0.61631,-2.460679 1.30273,-6.478515 1.30273,-6.478515 z m 65.86914,0.171875 c 0,0 0.92363,4.112759 1.38672,6.349609 0.46187,2.230946 1.37891,8.107422 1.37891,8.107422 0,0 -0.21395,-5.924875 -0.69532,-8.25 -0.48014,-2.319221 -2.07031,-6.207031 -2.07031,-6.207031 z m -39.11133,0.05664 c 0,0 -0.21589,4.517402 -0.29297,6.38086 -0.0781,1.888981 -0.24232,3.137802 -0.45898,4.984375 -0.21417,1.825283 -0.51563,6.087897 -0.51563,6.087897 0,0 0.99229,-4.142313 1.21094,-6.005866 0.21616,-1.842263 0.38362,-3.122334 0.46289,-5.039062 0.0804,-1.942253 -0.40625,-6.408203 -0.40625,-6.408204 z m -5.1289,0.117188 c 0,0 -0.62725,5.25052 -0.75196,7.757812 -0.12428,2.498811 -0.32026,4.929536 -0.3457,7.271492 -0.0256,2.34956 0.52344,6.68554 0.52344,6.68554 0,0 0.15075,-4.37742 0.17578,-6.67773 0.0251,-2.30796 0.22073,-4.731421 0.3457,-7.244145 0.12456,-2.504243 0.0527,-7.792969 0.0527,-7.792969 z m 13.25,0.691406 c 0,0 0.0845,4.67982 0.16797,7.267578 0.0833,2.583824 0.29296,8.40039 0.29296,8.4004 0,0 0.49144,-5.779472 0.40625,-8.421884 -0.0851,-2.638475 -0.86718,-7.246094 -0.86718,-7.246094 z m 5.58789,1.38086 c 0,0 -0.0224,4.719934 0.11132,6.990234 0.13466,2.285565 0.38377,4.885203 0.34376,6.654304 -0.04,1.76931 -0.0527,4.15429 -0.0527,4.15429 0,0 0.71211,-2.28959 0.75391,-4.13867 0.0418,-1.849309 -0.21224,-4.445667 -0.34571,-6.71094 -0.13436,-2.280535 -0.81054,-6.949218 -0.81054,-6.949218 z m -74.88672,0.978515 c 0,0 -3.69377,8.677622 -5.04688,13.132813 -1.12665,3.70962 -1.9774,7.36507 -2.87304,11.07813 0.0981,-0.57465 0.19033,-1.13784 0.26172,-1.63867 0.38286,-2.68628 0.63399,-5.81539 1.37695,-9.01367 0.73729,-3.173954 2.88476,-10.33204 2.88476,-10.33204 0,0 -2.80489,6.887222 -3.56836,10.17383 -0.75777,3.26224 -1.00858,6.42128 -1.38671,9.07422 -0.24925,1.74869 -0.40882,4.11418 -0.4961,5.60938 -1.09594,4.79421 -2.49805,12.125 -2.49804,12.125 0,0 2.55724,-9.12651 3.66992,-13.61329 1.11604,-4.5003 2.05774,-8.82902 3.39453,-13.23046 1.33249,-4.387373 4.28125,-13.365243 4.28125,-13.365243 z m 68.03125,1.785157 c 0,0 -0.6588,4.482179 -0.92188,6.40625 -0.26388,1.930023 -0.63476,5.347656 -0.63476,5.347656 0,0 1.05617,-3.264892 1.32812,-5.253906 0.27277,-1.994968 0.22852,-6.500001 0.22852,-6.5 z m -37.5586,0.291015 c 0,0 -0.83426,4.878219 -1.26367,7.132813 -0.43309,2.27397 -1.09401,4.450938 -1.66406,6.541018 -0.56515,2.07214 -1.39062,6.02539 -1.39062,6.02539 0,0 1.49326,-3.74757 2.06445,-5.84179 0.56629,-2.0763 1.23553,-4.27196 1.67773,-6.593759 0.4459,-2.341172 0.57617,-7.263672 0.57617,-7.263672 z m -35.88671,1.552735 c 0,0 -2.05858,5.282125 -3.04297,8.777346 -0.98183,3.4861 -2.34601,8.52149 -3.11719,12.05859 -0.76915,3.52779 -1.29227,6.4538 -1.61719,9.07618 -0.32699,2.63912 -0.11328,6.60937 -0.11328,6.60937 0,0 0.48925,-3.94599 0.80859,-6.52344 0.32143,-2.5942 0.84133,-5.49796 1.60743,-9.01171 0.76405,-3.50446 2.12554,-8.54014 3.10547,-12.01954 0.97735,-3.470243 2.36914,-8.966796 2.36914,-8.966796 z" /><path
       id="path186"
       style="fill:#000000;fill-opacity:0.3;stroke:none;stroke-width:1px;stroke-linecap:butt;stroke-linejoin:miter;stroke-opacity:1"
       d="m 252.63867,26.060547 -8.19336,1.113281 c -3.36291,0.876006 -7.68667,2.085438 -10.29883,3.179688 l -11.26171,6.46875 -6.83399,5.992187 c -0.0287,0.0303 -0.15234,0.158203 -0.15234,0.158203 0,0 7.84225,-4.930972 11.17578,-6.796875 3.33353,-1.865903 5.72366,-3.319243 8.75586,-4.49414 3.0322,-1.174899 9.27047,-2.767862 9.33203,-2.533203 0.0616,0.234657 -8.38543,3.146523 -11.52149,4.83789 -3.13604,1.691367 -9.53981,6.644479 -9.41015,6.705078 0,0 3.37235,-2.388511 6.85547,-4.068359 1.5296,-0.737702 4.07556,-2.248081 5.58984,-2.794922 4.58181,-1.65459 9.93778,-3.560521 15.16797,-4.679687 5.23019,-1.119168 15.7383,-1.680611 15.89844,-1.267579 0.16014,0.413034 -10.76456,1.756652 -15.0586,2.607422 -4.29403,0.85077 -6.98206,2.291878 -6.83203,2.576172 0,0 8.04655,-0.93475 12.78906,-1.382812 4.74253,-0.448064 15.66797,-1.267578 15.66797,-1.267579 0,0 -9.94514,1.815988 -12.21093,2.650391 -2.26581,0.834403 -7.12855,2.976358 -9.5625,4.492188 -2.43397,1.515828 -5.18555,4.148437 -5.18555,4.148437 0,0 14.54376,-6.728787 17.88477,-7.880859 3.34099,-1.152072 11.49414,-2.603516 11.49414,-2.603516 h 6.79687 c -1.93932,0.163211 -3.47517,0.441377 -5.21289,1.007813 2.00653,-0.201613 3.84058,-0.431615 5.58789,-0.316407 -2.96659,0.931257 -4.5508,2.237892 -6.71094,4.033203 0,0 7.04112,-3.542159 9.10157,-3.341796 2.06043,0.200361 4.0032,1.965862 6.2207,3.6875 2.2175,1.721636 6.79687,6.796875 6.79687,6.796875 l -7.48828,-8.871094 c 0,0 5.60319,1.806471 9.5625,3.685547 3.95933,1.879076 13.93946,7.949218 13.93946,7.949218 l -7.22071,-6.583984 -13.85351,-5.541016 -16.13086,-5.050781 -14.55469,-2.546875 c -3.72087,-0.02249 -7.55057,-0.04656 -10.92383,-0.06836 z m -52.45703,35.996094 -1.08398,1.484375 -10.26368,20.367187 -6.68164,25.253907 -2.76953,26.06836 0.32617,21.99414 3.58399,19.71484 3.0957,9.93946 5.86524,9.9375 10.30078,14.83593 c 0,0 4.31832,4.61393 6.46289,6.28125 2.14457,1.66735 6.21094,3.81055 6.21094,3.81055 0,0 -2.09639,-3.15845 -3.8897,-6.65077 -2.21385,-4.31128 -4.17926,-9.08868 -3.72919,-8.54861 0.31069,0.37282 2.83094,4.82052 5.9197,8.56786 2.81017,3.40937 7.75778,7.47722 7.75778,7.47722 l -7.03711,-8.82812 4.31445,4.42187 3.82422,3.75586 c 0,0 -2.01336,-4.726 -2.75423,-7.1745 -0.74088,-2.44851 -1.68073,-7.47727 -1.68073,-7.47727 l 6.0259,12.95305 7.00477,10.3413 -1.41993,-4.27539 2.56055,1.62109 -3.44183,-6.12673 c 0,0 1.96143,2.54092 3.16574,3.94485 1.60818,1.87476 3.18388,3.44203 3.05148,3.24829 -1.67005,-2.44389 -10.67151,-21.09793 -10.67151,-21.09793 l 3.12445,5.28685 4.37128,7.42046 c 0,0 -0.77913,-2.01716 -1.34375,-4.56055 -0.56462,-2.54339 -2.93568,-11.56637 -3.35897,-13.7493 -1.05667,-5.44931 0.32617,-2.44336 0.32617,-2.44336 l 7.10506,15.70242 1.42579,2.81055 c 0,0 -2.0783,-6.72007 -1.26368,-6.06836 0.81463,0.65171 3.46289,6.19141 3.46289,6.19141 0,0 -0.73314,-3.3843 -1.22265,-6.31445 -0.4895,-2.93017 -1.58789,-11.28126 -1.58789,-11.28126 l -3.58399,-21.18164 4.07227,10.42774 4.68555,8.67578 c 0,0 -1.33002,-3.69091 -1.875,-6.19141 -0.54498,-2.50049 -0.69141,-7.20898 -0.69141,-7.20898 l 2.56641,7.73828 c 0,0 -0.2396,-1.26522 -0.49024,-2.6875 -0.25064,-1.42228 -1.53707,-7.13775 -1.87305,-10.18359 -0.29205,-2.64776 -0.44482,-4.55165 -0.49609,-5.16992 l -2.09765,-6.33008 c -10e-6,0 -1.03707,-16.58995 -0.80665,-17.05078 0.23041,-0.46083 -1.03711,17.28125 -1.03711,17.28125 l 1.38282,16.24414 c 0,0 -3.22661,-14.51582 -3.45703,-15.32227 -0.23041,-0.80646 -0.46092,-20.39269 -0.34571,-20.85352 0.11521,-0.46081 -2.76367,20.27759 -2.76367,21.31446 0,1.03686 1.38086,19.69922 1.38086,19.69922 l -1.38086,-8.75586 c 0,0 -1.91043,-11.25918 -2.30469,-16.24414 -0.39426,-4.98498 -0.23047,-13.59375 -0.23046,-13.59375 -10e-6,0 -0.77755,7.49852 -0.80665,11.98047 -0.0291,4.48193 0.80664,14.86328 0.80665,14.86328 -10e-6,0 -2.41238,-6.87038 -3.3418,-11.52149 -0.92942,-4.65109 -1.8418,-16.35937 -1.8418,-16.35937 0,0 -0.40322,8.58204 0,12.78711 0.40322,4.20505 1.38086,15.09375 1.38086,15.09375 l -3.68555,-16.47461 0.34571,-17.05078 -1.38282,10.02148 -0.92187,19.4707 -1.38281,-18.43359 1.03711,-27.07227 c 0,0 -1.66946,5.39753 -2.65039,9.21485 -0.98095,3.8173 -3.10938,13.71094 -3.10938,13.71094 0,0 -0.58017,-8.34886 -0.57617,-13.01954 0.004,-4.67066 0.69141,-14.97656 0.69141,-14.97656 0,0 -1.34016,5.91504 -1.95899,9.79297 -0.61883,3.87793 -1.61328,13.47852 -1.61328,13.47852 0,0 -0.72684,-9.36578 -0.80664,-14.16993 -0.0798,-4.80413 0.3457,-14.63085 0.3457,-14.63086 0,0 -2.11901,12.13795 -3.22461,15.89844 -1.1056,3.76051 -1.49832,8.87061 -1.49832,8.87061 0,0 -1.11411,-11.45857 -0.80636,-16.12842 0.30773,-4.66985 1.49804,-13.94141 1.49804,-13.94141 0,0 -2.04774,9.75713 -3.22656,13.82618 -1.17882,4.06903 -3.68555,10.5996 -3.68555,10.5996 0,0 1.8418,-19.70127 1.8418,-20.1621 0,-0.46083 5.87695,-25.115239 5.87695,-25.115239 l -4.26367,10.484379 -4.72266,21.88867 c 0,0 -0.27172,-4.69993 0.23047,-10.71485 0.50219,-6.0149 3.68555,-25.230464 3.68555,-25.230464 0,0 -3.46331,10.091973 -4.72266,14.978514 -1.25933,4.88655 -2.88086,14.28516 -2.88086,14.28516 0,0 -0.53732,-8.24975 0.11524,-14.05469 0.65256,-5.804948 4.49414,-19.586155 4.49414,-20.507812 0,-0.921659 -1.70809,2.639289 -3.22656,7.603515 -1.51847,4.964226 -4.37891,22.464847 -4.37891,22.464847 0,0 0.15182,-7.63575 0.92188,-13.01758 0.77004,-5.381847 4.14843,-19.125001 4.14843,-19.125001 z"
       sodipodi:nodetypes="ccccccsssscssssscscsscscccccssccsccccccccccccccccscssscccczccccccsscccsscccscsccccsccssccsccsssccssssscscccccccscccscscscscscscccscscssscscc" /></g></svg>
