<?xml version="1.0" encoding="UTF-8" standalone="no"?>
<!-- Created with Inkscape (http://www.inkscape.org/) -->

<svg
   width="400"
   height="400"
   viewBox="0 0 400 400"
   version="1.1"
   id="svg303149"
   xml:space="preserve"
   inkscape:version="1.2.2 (b0a8486, 2022-12-01)"
   sodipodi:docname="HairDeLeve.svg"
   xmlns:inkscape="http://www.inkscape.org/namespaces/inkscape"
   xmlns:sodipodi="http://sodipodi.sourceforge.net/DTD/sodipodi-0.dtd"
   xmlns="http://www.w3.org/2000/svg"
   xmlns:svg="http://www.w3.org/2000/svg"><sodipodi:namedview
     id="namedview303151"
     pagecolor="#ffffff"
     bordercolor="#666666"
     borderopacity="1.0"
     inkscape:showpageshadow="2"
     inkscape:pageopacity="0.0"
     inkscape:pagecheckerboard="0"
     inkscape:deskcolor="#d1d1d1"
     inkscape:document-units="px"
     showgrid="false"
     inkscape:zoom="1.475"
     inkscape:cx="84.745763"
     inkscape:cy="200"
     inkscape:window-width="1799"
     inkscape:window-height="810"
     inkscape:window-x="2671"
     inkscape:window-y="298"
     inkscape:window-maximized="0"
     inkscape:current-layer="layer1" /><defs
     id="defs303146" /><g
     inkscape:label="Layer 1"
     inkscape:groupmode="layer"
     id="layer1"><path
       style="mix-blend-mode:multiply;fill:#383838;fill-opacity:0.4;stroke:none;stroke-width:1px;stroke-linecap:butt;stroke-linejoin:miter;stroke-opacity:1"
       d="m 219.49152,145.42373 c 0,0 3.14625,-12.79604 4.15254,-14.32203 1.0063,-1.52599 21.56044,-17.64548 22.11865,-19.0678 0.5582,-1.42233 -7.0912,-24.984549 -7.11864,-27.288137 -0.0274,-2.303588 18.78003,-12.978505 37.20339,-12.881357 18.42335,0.09715 31.9189,7.533109 35.33898,7.457628 3.42008,-0.07548 10.85923,-8.273958 17.79661,-8.559323 6.93738,-0.285364 8.44549,0.184033 8.44549,0.184033 0.75441,0.06574 -1.61503,-4.833275 -7.92247,-13.389831 -6.30744,-8.556556 -33.99588,-27.648785 -62.58599,-27.883851 -28.59012,-0.235066 -46.85207,15.279716 -58.14764,26.995268 -11.29557,11.715552 -12.34169,22.279808 -13.5182,31.467263 -1.17651,9.187455 0.67796,39.322037 0.67796,39.322037 0,0 12.86714,-2.64198 16.27119,0 3.40405,2.64198 7.28813,17.9661 7.28813,17.9661 z"
       id="path303312"
       sodipodi:nodetypes="czzzzzzszzzzczc" /></g></svg>
