<?xml version="1.0" encoding="UTF-8" standalone="no"?>
<!-- Created with Inkscape (http://www.inkscape.org/) -->

<svg
   version="1.1"
   id="svg37770"
   width="400"
   height="400"
   viewBox="0 0 400 400"
   sodipodi:docname="HairStylish.svg"
   inkscape:version="1.2.2 (b0a8486, 2022-12-01)"
   xmlns:inkscape="http://www.inkscape.org/namespaces/inkscape"
   xmlns:sodipodi="http://sodipodi.sourceforge.net/DTD/sodipodi-0.dtd"
   xmlns="http://www.w3.org/2000/svg"
   xmlns:svg="http://www.w3.org/2000/svg">
  <defs
     id="defs37774">
    <clipPath
       clipPathUnits="userSpaceOnUse"
       id="clipPath37786">
      <path
         d="M 0,300 H 300 V 0 H 0 Z"
         id="path37784" />
    </clipPath>
    <clipPath
       clipPathUnits="userSpaceOnUse"
       id="clipPath37814">
      <path
         d="m 146.006,277.969 h 73.146 v -152.59 h -73.146 z"
         id="path37812" />
    </clipPath>
    <clipPath
       clipPathUnits="userSpaceOnUse"
       id="clipPath37898">
      <path
         d="m 134.842,154.031 h 47.503 v -52.522 h -47.503 z"
         id="path37896" />
    </clipPath>
    <clipPath
       clipPathUnits="userSpaceOnUse"
       id="clipPath37914">
      <path
         d="M 60.0336,143.884 H 196.46 V 44.6548 H 60.0336 Z"
         id="path37912" />
    </clipPath>
    <clipPath
       clipPathUnits="userSpaceOnUse"
       id="clipPath37934">
      <path
         d="m 207.998,124.034 h 66.869 V 41.9517 h -66.869 z"
         id="path37932" />
    </clipPath>
    <clipPath
       clipPathUnits="userSpaceOnUse"
       id="clipPath37950">
      <path
         d="M 12.7352,96.1307 H 87.7785 V 13.8165 H 12.7352 Z"
         id="path37948" />
    </clipPath>
    <clipPath
       clipPathUnits="userSpaceOnUse"
       id="clipPath37966">
      <path
         d="M 39.6054,99.692 H 60.994 V 87.9429 H 39.6054 Z"
         id="path37964" />
    </clipPath>
    <clipPath
       clipPathUnits="userSpaceOnUse"
       id="clipPath37982">
      <path
         d="M 19.9327,73.8295 H 27.238 V 56.2568 h -7.3053 z"
         id="path37980" />
    </clipPath>
    <clipPath
       clipPathUnits="userSpaceOnUse"
       id="clipPath37998">
      <path
         d="m 279.351,83.9444 h 8.991 V 28.2746 h -8.991 z"
         id="path37996" />
    </clipPath>
    <clipPath
       clipPathUnits="userSpaceOnUse"
       id="clipPath38014">
      <path
         d="M 10.2357,145.507 H 158.769 V 0.0249023 H 10.2357 Z"
         id="path38012" />
    </clipPath>
    <clipPath
       clipPathUnits="userSpaceOnUse"
       id="clipPath38030">
      <path
         d="M 91.6411,35.1519 H 116.994 V 0.0249023 H 91.6411 Z"
         id="path38028" />
    </clipPath>
    <clipPath
       clipPathUnits="userSpaceOnUse"
       id="clipPath38046">
      <path
         d="m 180.793,115.392 h 31.003 V 47.7004 h -31.003 z"
         id="path38044" />
    </clipPath>
    <clipPath
       clipPathUnits="userSpaceOnUse"
       id="clipPath38062">
      <path
         d="M 0,300 H 300 V 0 H 0 Z"
         id="path38060" />
    </clipPath>
    <clipPath
       clipPathUnits="userSpaceOnUse"
       id="clipPath38090">
      <path
         d="m 145.568,277.969 h 89.357 V 124.543 h -89.357 z"
         id="path38088" />
    </clipPath>
    <clipPath
       clipPathUnits="userSpaceOnUse"
       id="clipPath38106">
      <path
         d="M 0,300 H 300 V 0 H 0 Z"
         id="path38104" />
    </clipPath>
    <clipPath
       clipPathUnits="userSpaceOnUse"
       id="clipPath38178">
      <path
         d="m 207.998,124.034 h 66.7 V 44.4077 h -66.7 z"
         id="path38176" />
    </clipPath>
    <clipPath
       clipPathUnits="userSpaceOnUse"
       id="clipPath38194">
      <path
         d="m 279.351,83.9444 h 8.991 V 28.2746 h -8.991 z"
         id="path38192" />
    </clipPath>
    <clipPath
       clipPathUnits="userSpaceOnUse"
       id="clipPath38210">
      <path
         d="M 11.9564,107.989 H 87.3171 V 30.6538 H 11.9564 Z"
         id="path38208" />
    </clipPath>
    <clipPath
       clipPathUnits="userSpaceOnUse"
       id="clipPath38226">
      <path
         d="m 59.217,151.573 h 134.48 V 47.8951 H 59.217 Z"
         id="path38224" />
    </clipPath>
    <clipPath
       clipPathUnits="userSpaceOnUse"
       id="clipPath38242">
      <path
         d="M 9.51097,151.818 H 154.199 V 0.0248718 H 9.51097 Z"
         id="path38240" />
    </clipPath>
    <clipPath
       clipPathUnits="userSpaceOnUse"
       id="clipPath38258">
      <path
         d="M 91.4501,40.3777 H 116.418 V 2.48105 H 91.4501 Z"
         id="path38256" />
    </clipPath>
    <clipPath
       clipPathUnits="userSpaceOnUse"
       id="clipPath38274">
      <path
         d="m 129.811,158.672 h 52.534 v -57.163 h -52.534 z"
         id="path38272" />
    </clipPath>
    <clipPath
       clipPathUnits="userSpaceOnUse"
       id="clipPath38290">
      <path
         d="m 180.793,115.392 h 31.003 V 47.7004 h -31.003 z"
         id="path38288" />
    </clipPath>
    <clipPath
       clipPathUnits="userSpaceOnUse"
       id="clipPath38306">
      <path
         d="M 0,300 H 300 V 0 H 0 Z"
         id="path38304" />
    </clipPath>
    <clipPath
       clipPathUnits="userSpaceOnUse"
       id="clipPath38322">
      <path
         d="M 0,300 H 300 V 0 H 0 Z"
         id="path38320" />
    </clipPath>
    <clipPath
       clipPathUnits="userSpaceOnUse"
       id="clipPath38346">
      <path
         d="M 0,300 H 300 V 0 H 0 Z"
         id="path38344" />
    </clipPath>
    <clipPath
       clipPathUnits="userSpaceOnUse"
       id="clipPath38358">
      <path
         d="m 143,265.641 h 99.11 V 192.667 H 143 Z"
         id="path38356" />
    </clipPath>
    <clipPath
       clipPathUnits="userSpaceOnUse"
       id="clipPath38378">
      <path
         d="M 0,300 H 300 V 0 H 0 Z"
         id="path38376" />
    </clipPath>
    <clipPath
       clipPathUnits="userSpaceOnUse"
       id="clipPath38390">
      <path
         d="m 141.195,284.065 h 63.787 v -91.398 h -63.787 z"
         id="path38388" />
    </clipPath>
    <clipPath
       clipPathUnits="userSpaceOnUse"
       id="clipPath38414">
      <path
         d="M 0,300 H 300 V 0 H 0 Z"
         id="path38412" />
    </clipPath>
    <clipPath
       clipPathUnits="userSpaceOnUse"
       id="clipPath38430">
      <path
         d="m 146.5,205.084 h 11.643 v -17.52 H 146.5 Z"
         id="path38428" />
    </clipPath>
    <clipPath
       clipPathUnits="userSpaceOnUse"
       id="clipPath38462">
      <path
         d="M 0,300 H 300 V 0 H 0 Z"
         id="path38460" />
    </clipPath>
    <clipPath
       clipPathUnits="userSpaceOnUse"
       id="clipPath38474">
      <path
         d="m 146.09,214.922 h 12.566 V 183.669 H 146.09 Z"
         id="path38472" />
    </clipPath>
    <clipPath
       clipPathUnits="userSpaceOnUse"
       id="clipPath38490">
      <path
         d="m 152.488,184.652 h 12.163 v -10.1 h -12.163 z"
         id="path38488" />
    </clipPath>
    <clipPath
       clipPathUnits="userSpaceOnUse"
       id="clipPath38530">
      <path
         d="M 0,300 H 300 V 0 H 0 Z"
         id="path38528" />
    </clipPath>
    <clipPath
       clipPathUnits="userSpaceOnUse"
       id="clipPath38538">
      <path
         d="m 222.339,150.153 h 22.222 v -6.115 h -22.222 z"
         id="path38536" />
    </clipPath>
    <clipPath
       clipPathUnits="userSpaceOnUse"
       id="clipPath38554">
      <path
         d="m 215.718,157.202 h 31.66 v -3.736 h -31.66 z"
         id="path38552" />
    </clipPath>
    <clipPath
       clipPathUnits="userSpaceOnUse"
       id="clipPath38582">
      <path
         d="M 0,300 H 300 V 0 H 0 Z"
         id="path38580" />
    </clipPath>
    <clipPath
       clipPathUnits="userSpaceOnUse"
       id="clipPath38590">
      <path
         d="m 226.053,200.386 h 5.424 v -23.865 h -5.424 z"
         id="path38588" />
    </clipPath>
    <clipPath
       clipPathUnits="userSpaceOnUse"
       id="clipPath38606">
      <path
         d="M 226.053,173.927 H 245.28 V 163.448 H 226.053 Z"
         id="path38604" />
    </clipPath>
    <clipPath
       clipPathUnits="userSpaceOnUse"
       id="clipPath38638">
      <path
         d="M 0,300 H 300 V 0 H 0 Z"
         id="path38636" />
    </clipPath>
    <clipPath
       clipPathUnits="userSpaceOnUse"
       id="clipPath38646">
      <path
         d="m 241.123,195.281 h 13.732 v -7.154 h -13.732 z"
         id="path38644" />
    </clipPath>
    <clipPath
       clipPathUnits="userSpaceOnUse"
       id="clipPath38662">
      <path
         d="M 239.614,208.359 H 260.74 V 197.448 H 239.614 Z"
         id="path38660" />
    </clipPath>
    <clipPath
       clipPathUnits="userSpaceOnUse"
       id="clipPath38678">
      <path
         d="m 230.007,205.743 v 0 0 z"
         id="path38676" />
    </clipPath>
    <clipPath
       clipPathUnits="userSpaceOnUse"
       id="clipPath38690">
      <path
         d="m 195.859,210.494 h 36.375 v -22.692 h -36.375 z"
         id="path38688" />
    </clipPath>
    <clipPath
       clipPathUnits="userSpaceOnUse"
       id="clipPath38782">
      <path
         d="M 0,300 H 300 V 0 H 0 Z"
         id="path38780" />
    </clipPath>
    <clipPath
       clipPathUnits="userSpaceOnUse"
       id="clipPath38866">
      <path
         d="m 241.123,195.281 h 13.732 v -7.154 h -13.732 z"
         id="path38864" />
    </clipPath>
    <clipPath
       clipPathUnits="userSpaceOnUse"
       id="clipPath38882">
      <path
         d="M 239.614,212.099 H 260.74 V 197.448 H 239.614 Z"
         id="path38880" />
    </clipPath>
    <clipPath
       clipPathUnits="userSpaceOnUse"
       id="clipPath38898">
      <path
         d="m 207.905,207.836 h 22.102 v -2.093 h -22.102 z"
         id="path38896" />
    </clipPath>
    <clipPath
       clipPathUnits="userSpaceOnUse"
       id="clipPath38914">
      <path
         d="m 198.531,212.167 h 33.086 v -24.365 h -33.086 z"
         id="path38912" />
    </clipPath>
  </defs>
  <sodipodi:namedview
     id="namedview37772"
     pagecolor="#ffffff"
     bordercolor="#666666"
     borderopacity="1.0"
     inkscape:showpageshadow="2"
     inkscape:pageopacity="0.0"
     inkscape:pagecheckerboard="0"
     inkscape:deskcolor="#d1d1d1"
     showgrid="false"
     inkscape:zoom="0.59"
     inkscape:cx="-90.677966"
     inkscape:cy="200"
     inkscape:window-width="1440"
     inkscape:window-height="810"
     inkscape:window-x="2339"
     inkscape:window-y="185"
     inkscape:window-maximized="0"
     inkscape:current-layer="g37778">
    <inkscape:page
       x="0"
       y="0"
       id="page37776"
       width="400"
       height="400" />
  </sodipodi:namedview>
  <g
     id="g37778"
     inkscape:groupmode="layer"
     inkscape:label="Page 1">
    <path
       d="m 199.51693,143.11094 c -1.88267,-7.664 -7.84,-32.50533 -8.55067,-42.68933 -1.21466,-17.405335 1.26,-33.785335 7.35467,-48.682668 7.27066,-17.773333 51.62133,-30.173333 65.34,-30.485333 0.192,-0.004 0.38533,-0.0067 0.58533,-0.0067 12.21067,0 41.98533,8.168 60.11333,16.487999 9.012,4.136 15.712,10.752 18.384,18.152 1.42933,3.958667 1.51867,7.752 0.244,10.408 -2.94,6.125333 -18.764,13.445333 -21.60266,14.717333 -1.78934,-0.806667 -8.64267,-3.916 -13.524,-6.356 -5.93067,-2.966667 -24.26267,-8.444 -34.776,-8.444 -0.52,0 -1.02134,0.01333 -1.504,0.04 -10.47067,0.581333 -30.128,10.356 -30.468,16.46 -0.24534,4.425333 -11.512,22.145339 -17.23067,30.009339 -3.54933,4.87866 -4.004,20.644 -3.99333,28.72 -1.19467,-3.09734 -2.136,-6.29334 -3.024,-9.49067 -0.77467,-2.788 -1,-6.20533 -3.7,-7.89867 -0.22534,-0.14133 -9.29867,12.952 -10.11334,14.09734 -1.17866,1.65333 -2.356,3.308 -3.53466,4.96133"
       style="fill:#c7b799;fill-opacity:1;fill-rule:nonzero;stroke:none;stroke-width:1.33333"
       id="path38350" />
    <path
       d="m 288.54093,56.972275 c -18.13467,-1.744 -46.03467,7.324 -57.544,9.416 -11.508,2.093333 -19.87867,-1.394667 -16.74,-4.882667 3.14,-3.486666 -1.74267,-4.533333 -4.53334,-2.789333 -2.78933,1.744 -0.348,-4.185333 -0.348,-4.185333 l -5.58,3.488 4.88267,-8.021333 -8.37067,6.277333 7.672,-10.462666 c 0,0 -4.94533,2.715999 -9.76533,6.197333 -6.01466,14.825333 -8.45466,31.110666 -7.248,48.412001 0.71067,10.184 6.668,35.02533 8.55067,42.68933 1.17866,-1.65333 2.356,-3.308 3.53466,-4.96133 0.81467,-1.14534 9.888,-14.23867 10.11334,-14.09734 2.7,1.69334 2.92533,5.11067 3.69866,7.89867 0.88934,3.19733 1.83067,6.39333 3.02534,9.49067 -0.0107,-8.076 0.444,-23.84134 3.992,-28.72 5.72,-7.864 16.98666,-25.584002 17.232,-30.009335 0.34,-6.104 19.99733,-15.878667 30.468,-16.46 0.48133,-0.02667 0.984,-0.04 1.504,-0.04 10.51333,0 28.84533,5.477333 34.776,8.444 4.88133,2.44 11.73466,5.548 13.524,6.356 0.32133,-0.144 0.81466,-0.368 1.42933,-0.656 -2.10133,-2.708 -17.43067,-21.764 -34.27333,-23.384"
       style="opacity:0.199997;fill:#000000;fill-opacity:1;fill-rule:nonzero;stroke:none;stroke-width:1.33333"
       id="path38360" />
    <path
       d="m 212.93119,122.23654 c 0.14267,0.12267 0.27067,0.252 0.37067,0.36667 1.68267,1.94133 3.07467,4.13866 3.92667,6.572 0.348,0.99333 0.62266,2.012 0.89066,3.02933 0.216,0.82267 0.80267,2.02667 0.776,2.86533 0.26667,-8.55733 1.212,-19.004 4.108,-22.98666 6.71067,-9.22534 16.816,-25.649335 17.02667,-29.430669 0.39467,-7.102666 21.372,-16.922666 31.49067,-17.483999 0.50266,-0.028 1.024,-0.04133 1.56533,-0.04133 10.66267,0 29.24933,5.552 35.26,8.557333 4.46667,2.234667 10.652,5.056 13.04,6.137334 8.304,-3.768 18.51733,-9.612 20.62266,-13.996 1.14934,-2.396 1.04534,-5.884 -0.28666,-9.570666 -2.57334,-7.126667 -9.06667,-13.517333 -17.81467,-17.533333 -18.02,-8.272 -47.57066,-16.389333 -59.66133,-16.389333 -0.19067,0 -0.376,0.0027 -0.56,0.0053 -6.52,0.149333 -20.904,3.22 -34.71733,8.621333 -16.10134,6.294667 -26.628,13.82 -29.64267,21.189333 -6.032,14.742666 -8.48,30.958666 -7.27733,48.197327 0.64533,9.24 5.70133,30.87334 7.96133,40.20267 -0.044,-0.176 0.70267,-0.98667 0.80133,-1.12667 1.97867,-2.77733 3.95867,-5.556 5.93734,-8.33333 1.12933,-1.58533 2.17066,-3.41867 3.576,-4.75733 0.51066,-0.48667 0.904,-1.26934 1.128,-1.932 0.22266,-0.66267 -0.26267,-1.35467 -0.0973,-2.00667 0.25067,-0.98933 1.02534,-0.62667 1.576,-0.156 m -13.89999,23.42667 c 0,0 -8.29067,-32.87467 -9.148,-45.16667 -0.85734,-12.291998 -0.28534,-30.301331 7.43333,-49.16933 7.71733,-18.866666 53.74266,-30.873333 66.32,-31.158666 12.57866,-0.286667 43.73733,8.576 61.176,16.579999 17.43733,8.004 22.58266,22.869333 19.15333,30.016 -3.43067,7.146666 -22.584,15.437333 -22.584,15.437333 0,0 -8.29067,-3.717334 -14.008,-6.576 -5.71733,-2.858667 -25.44133,-8.861333 -35.73333,-8.289333 -10.29067,0.572 -29.15734,10.290666 -29.444,15.435999 -0.28534,5.146667 -12.864,24.298668 -17.43734,30.587998 -4.57333,6.28933 -3.716,32.87467 -3.716,32.87467 -2.65866,-3.624 -3.1,-8.44 -4.88666,-12.39334 -0.12667,-0.27866 -0.13467,-0.64933 -0.23067,-0.948 -0.21733,-0.672 -0.36267,-1.39733 -0.5,-2.11333 -0.244,-1.28133 -0.748,-2.296 -1.432,-3.37733 -0.42533,-0.67067 -0.88267,-1.516 -1.57867,-0.64667 -0.35333,0.44133 -0.648,1.028 -0.98533,1.50133 -0.80267,1.128 -1.60667,2.256 -2.41067,3.384 -1.816,2.54934 -3.632,5.09867 -5.448,7.64667 -1.51333,2.12533 -3.02666,4.25067 -4.53999,6.37467"
       style="fill:#000000;fill-opacity:1;fill-rule:nonzero;stroke:none;stroke-width:1.33333"
       id="path38370" />
  </g>
</svg>
