<?xml version="1.0" encoding="UTF-8" standalone="no"?>
<!-- Created with Inkscape (http://www.inkscape.org/) -->

<svg
   version="1.1"
   id="svg32043"
   width="400"
   height="400"
   viewBox="0 0 400 400"
   sodipodi:docname="JanewayBob.svg"
   inkscape:version="1.2.2 (b0a8486, 2022-12-01)"
   xmlns:inkscape="http://www.inkscape.org/namespaces/inkscape"
   xmlns:sodipodi="http://sodipodi.sourceforge.net/DTD/sodipodi-0.dtd"
   xmlns="http://www.w3.org/2000/svg"
   xmlns:svg="http://www.w3.org/2000/svg">
  <defs
     id="defs32047" />
  <sodipodi:namedview
     id="namedview32045"
     pagecolor="#ffffff"
     bordercolor="#666666"
     borderopacity="1.0"
     inkscape:showpageshadow="2"
     inkscape:pageopacity="0.0"
     inkscape:pagecheckerboard="0"
     inkscape:deskcolor="#d1d1d1"
     showgrid="false"
     inkscape:zoom="2.18"
     inkscape:cx="193.57798"
     inkscape:cy="200"
     inkscape:window-width="1991"
     inkscape:window-height="1092"
     inkscape:window-x="2108"
     inkscape:window-y="233"
     inkscape:window-maximized="0"
     inkscape:current-layer="g32051">
    <inkscape:page
       x="0"
       y="0"
       id="page32049"
       width="400"
       height="400" />
  </sodipodi:namedview>
  <g
     inkscape:groupmode="layer"
     id="layer5"
     inkscape:label="Hair Back">
    <path
       d="m 366.41959,103.24387 c 0.86667,-10.478662 -1.45867,-21.191995 -6.64133,-30.345328 -6.184,-10.92 -12.80934,-20.172 -24.45734,-25.744 -1.47333,-0.704 -3.04933,-1.348 -4.67866,-1.249333 -5.132,0.306667 -6.80667,6.32 -9.59067,9.652 -6.76533,8.094666 -12.95866,16.039999 -18.832,24.841332 -3.528,5.285334 -6.372,10.896 -9.56,16.397333 -2.42666,4.186666 -3.77733,10.481336 -7.06666,13.990666 -3.18534,3.39867 -9.04,4.27733 -13.068,6.34133 -8.43467,4.32267 -16.51067,7.12 -25.69334,9.78134 -6.20666,1.79866 -12.29466,3.97333 -18.448,5.944 -5.136,1.64533 -10.17866,2.11866 -15.25733,3.468 -18.11333,4.80933 -36.42266,15.13866 -55.384,13.75866 -3.92933,-0.28666 -7.44133,-2.78266 -9.30266,-6.504 -1.76534,1.11067 -3.66934,1.252 -5.504,2.32667 -3.35334,1.96533 -8.86667,7.72133 -8.91867,11.83733 0.009,-0.808 -0.27733,-1.52 -0.372,-2.30666 -3.85467,2.46666 -3.664,12.77733 -3.59733,17.14933 -0.78534,-1.112 -1.556,-2.456 -2.57734,-3.288 -1.61866,4.81867 0.696,12.39067 3.08667,16.696 4.49867,8.10133 12.37333,15.70266 19.956,20.86533 4.54933,3.09867 9.47867,5.50267 14.104,8.30267 5.76133,3.488 11.164,7.436 17.89467,9.22133 6.03866,1.60133 11.18666,3.21067 17.77733,3.13067 6.00666,-0.0747 11.39733,-2.152 17.012,-3.564 11.64666,-2.932 20.92133,-8.60134 28.752,-17.456 0.292,0.036 0.58266,0.0733 0.89066,0.0947 4.92267,0.33867 10.44134,0.968 15.46667,1.72534 7.23467,1.092 13.07333,4.936 18.79733,8.90266 1.17334,1.27467 2.472,2.46934 4.048,3.604 2.308,1.66 4.904,3.08267 7.64134,4.18534 l 10e-4,-0.46667 c 3.472,1.672 7.17867,2.82267 11.35467,2.97467 6.70133,0.24266 13.776,0.58266 19.416,-2.88667 3.76133,-2.312 7.104,-3.84133 10.28799,-6.8 3.508,-3.25867 7.59734,-6.68267 9.67734,-10.89867 1.95466,-3.964 3.692,-9.62799 4.83066,-14.23199 1.21867,-4.92667 0.42267,-10.976 0.40934,-16.1 -0.016,-5.92134 1.39466,-12.22534 2.87866,-17.83867 1.78934,-6.76667 3.35467,-13.60267 5.53867,-20.25867 2.024,-6.168 3.37333,-12.41333 5.472,-18.516 0.848,-2.46666 1.456,-4.95066 2.09467,-7.448 0.772,-3.01866 1.3,-6.136 1.56133,-9.288"
       style="fill:#383838;fill-opacity:1;fill-rule:nonzero;stroke:none;stroke-width:1.33333"
       id="path32939" />
    <path
       d="m 164.61746,215.15867 c 1.47067,0.89067 4.49734,3.79067 6.328,3.032 -0.32666,-0.65733 -0.99066,-1.10933 -1.44,-1.69867 -0.61333,-0.80533 -0.81866,-1.53066 -1.46666,-2.21333 -2.35467,-2.47733 -4.408,-4.688 -5.124,-8.10133 -0.528,-2.512 0.59733,-5.51867 -0.48934,-7.91867 -0.892,1.58534 -1.50933,3.336 -1.7,5.21867 -0.0853,0.848 -0.13466,1.84533 -0.0307,2.70266 0.11733,0.96267 0.73333,1.73467 0.57333,2.73734 -0.75733,-0.42667 -1.61067,-0.91867 -2.244,-1.592 -1.26267,-1.34 -2.62933,-3.20934 -2.90667,-4.96 -0.196,-1.23067 -0.70666,-2.41867 -0.84,-3.62 -0.144,-1.304 0.176,-2.58133 -0.22666,-3.85867 -2.01067,3.24667 -1.37334,6.95467 -1.624,10.77067 -0.58934,-0.53734 -1.09867,-0.87334 -1.532,-1.66934 -0.516,-0.948 -0.68667,-2.01066 -1.224,-2.96 -0.51334,-0.904 -0.86134,-1.62399 -1.08267,-2.63866 -0.37733,-1.724 -0.40267,-3.752 -0.58,-5.52267 -0.16933,-1.68133 -0.26267,-3.73466 0.76667,-5.18533 -1.56134,1.408 -2.40267,4.192 -2.832,6.22133 -0.47334,2.236 -0.104,4.476 -0.23067,6.76667 -0.90533,-0.43867 -2.04933,-1.24267 -2.94133,-1.92 -2.204,-1.67733 -3.46934,-4.17867 -4.272,-6.74667 -0.64,-2.048 -1.89067,-4.95866 -1.62667,-7.21733 -0.344,0.476 -0.70533,2.232 -0.81333,3.01333 -0.28,2.01067 -0.0827,4.536 0.52133,6.40134 0.45867,1.41733 1.70133,2.26 2.46133,3.48 0.76,1.22133 1.616,2.09333 2.70534,3.07333 2.44933,2.20266 5.04266,4.24933 7.76666,6.10266 4.54934,3.09734 9.47867,5.50134 14.104,8.30267"
       style="opacity:0.399994;fill:#000000;fill-opacity:1;fill-rule:nonzero;stroke:none;stroke-width:1.33333"
       id="path32949" />
    <path
       d="m 359.58852,102.81081 c 0.11867,-1.012 0.17467,-2.01067 0.0613,-2.954669 -1.54267,1.410669 -3.84534,2.723999 -6.07067,2.422669 0.79467,-1.41067 2.55067,-2.552002 3.30133,-4.090669 1.28667,-2.638667 1.164,-6.178667 1.06134,-9.129333 -0.0973,-2.793333 -0.81334,-5.5 -1.43334,-8.062667 -0.61333,-2.534666 -1.31066,-5.574666 -3.95066,-6.752 -0.54934,3.277334 -1.30134,6.413334 -3.44,9.130667 1.332,-1.692 1.176,-6.736 1.184,-8.796 0.007,-2.088 -0.15467,-4.206666 0.15333,-6.265333 0.29467,-1.965333 -0.70933,-3.805333 -1.27733,-5.669333 -0.39467,-1.290667 -1.20667,-3.230667 -2.284,-4.18 -0.684,0.493333 -0.29867,2.753333 -0.29867,3.556 0,1.236 -0.016,2.450666 -0.17333,3.626666 -1.36,-2.221333 -1.76534,-4.984 -2.68534,-7.390666 -0.992,-2.592 -2.32,-5.508 -4.14933,-7.624 -1.46933,-1.698667 -5.10533,-3.966666 -7.444,-3.674667 -3.45866,0.433334 -3.79333,7.208 -5.34933,9.925334 -1.75067,3.053333 -4.00533,5.573333 -6.808,7.581333 -3.41867,2.448 -7.87467,3.294666 -11.06533,5.676 -3.17867,2.373333 -4.56267,7.054666 -6.70134,10.257333 -3.528,5.286666 -6.372,10.897333 -9.56,16.398666 -2.42533,4.186669 -3.77733,10.481329 -7.06666,13.990669 -3.18534,3.39866 -9.03867,4.27733 -13.068,6.34133 -8.43467,4.32267 -16.51067,7.12 -25.69334,9.78133 -6.20666,1.79867 -12.29466,3.97334 -18.44666,5.944 -5.136,1.64534 -10.17867,2.11867 -15.25734,3.46667 -6.78933,1.80267 -13.40133,4.18267 -20.06933,6.372 -10.372,3.404 -21.464,4.57733 -32.14933,6.768 -3.628,0.744 -10.80533,3.192 -14.21867,0.68 -0.12666,0.13067 -0.256,0.25867 -0.38533,0.38533 2.52267,4.56267 9.98267,7.016 15.26533,5.552 -2.73866,1.96134 -7.52666,2.152 -10.972,3.12134 -2.59333,0.72933 -4.65866,1.33866 -6.968,2.70533 4.41067,-1.83067 9.31067,-1.33067 14.032,-1.36 -6.984,2.47867 -16.81066,5.148 -21.40133,11.472 4.48,-2.56133 10.06667,-4.12533 15.164,-5.89867 2.376,-0.82666 6.07067,-1.68933 7.66,-3.71066 -1.99067,8.86 -10.70933,8.29733 -16.55467,12.808 5.45734,-0.30934 10.33734,-3.33867 15.39467,-5.08267 2.89333,-0.99733 7.10133,-1.67067 8.832,-3.97467 -0.16933,1.59467 -0.39467,3.12667 -1.724,4.05734 -1.612,1.12666 -3.30533,2.12933 -5.02133,3.08933 -3.376,1.89067 -6.85734,3.61867 -10.02934,5.84933 -3.496,2.45867 -7.32133,4.32934 -8.62533,8.62134 -0.60533,1.99333 0.35467,3.83333 0.60533,5.66133 0.0867,0.0773 0.18534,0.14667 0.26534,0.21733 -0.12934,-2.42533 2.30666,-5.43733 3.99333,-7.01733 1.77467,-1.66267 4.15467,-3.36133 6.5,-4.14 0.18,1.29867 -0.82133,2.948 -1.20533,4.15867 -0.40134,1.27066 -0.70667,2.57466 -1.108,3.85333 -0.66267,2.11467 -0.77467,5.98 0.72666,7.70133 0.58,-2.332 0.32534,-4.17333 1.75734,-6.332 1.092,-1.64666 2.49466,-3.94666 4.40933,-4.72933 0.0813,1.65067 -0.228,3.03733 -0.504,4.656 -0.41333,2.42267 -0.26533,5.43733 -0.092,7.91067 0.0827,1.17866 0.32667,2.65066 1.12533,3.57733 -0.096,-1.83067 0.768,-3.41467 1.1,-5.172 0.10534,-0.55733 0.10667,-1.132 0.23734,-1.696 0.32,-1.38533 1.07066,-2.36667 1.77466,-3.58267 0.79734,-1.37866 1.68667,-3.65333 3.17334,-4.37333 0.432,5.396 -0.38134,10.93333 -0.18267,16.368 0.068,1.872 0.94133,4.08133 1.372,5.90133 0.48,2.02267 1.544,4.11733 2.66133,5.856 2.26667,3.524 5.70934,6.03067 9.86267,6.78667 7.516,1.36533 14.69467,4.22533 22.46133,4.12933 6.00667,-0.0733 11.396,-2.15067 17.01067,-3.56267 11.648,-2.932 20.92133,-8.60133 28.75333,-17.456 0.292,0.036 0.58133,0.0733 0.89067,0.0947 4.92133,0.33867 10.44133,0.96667 15.46666,1.72533 7.23334,1.092 13.072,4.936 18.796,8.90267 1.17334,1.27467 2.47334,2.46933 4.04934,3.60267 2.308,1.66133 4.904,3.084 7.64133,4.18666 0,0 0,-0.46666 0,-0.46666 0,0.72266 6.064,2.32 6.80933,2.4 2.32534,0.25066 3.98934,-1.348 6.16534,-2.04267 3.55066,-1.132 7.26,-2.22933 10.87466,-2.96267 1.40534,-0.28533 2.78534,-0.644 4.09067,-1.18266 5.08,-2.096 9.176,-6.02 12.82266,-10.284 2.23467,-2.612 4.00534,-5.68 6.00667,-8.54934 1.912,-2.74133 3.29867,-6.07199 3.068,-9.61466 -0.608,0.59733 -1.28533,1.044 -1.99067,1.58133 0.69467,-1.024 1.72267,-1.52133 2.41467,-2.676 1.04267,-1.74133 2.25467,-3.27066 3.28,-4.856 3.27867,-5.07333 2.46,-10.37866 2.25733,-16.03066 -0.0653,-1.788 0.94,-3.22 1.35334,-4.9 0.472,-1.916 0.18666,-4.12667 0.46666,-6.07467 0.42134,-2.93467 1.74534,-6.61733 0.97334,-9.55333 -0.156,0.984 -1.484,2.312 -2.232,2.89466 -0.304,-3.02666 1.11733,-4.89866 2.72533,-7.17333 1.088,-1.54133 2.19867,-3.21333 3.39467,-4.752 3.77733,-4.85867 6.42666,-12.84933 6.016,-19.00933 -0.86667,1.652 -3.56667,2.95466 -5.16934,3.732 0.29467,-1.688 1.91867,-3.49067 2.69067,-5.044 0.692,-1.392 1.592,-2.812 2.10933,-4.288 0.744,-2.12134 0.63734,-5.404 0.204,-7.71867 -0.948,0.16133 -2.14533,1.064 -2.94133,1.62267 0.50533,-0.87867 0.624,-1.748 0.70133,-2.776 0.10534,-1.42534 0.42267,-2.96134 0.6,-4.468"
       style="opacity:0.199997;fill:#000000;fill-opacity:1;fill-rule:nonzero;stroke:none;stroke-width:1.33333"
       id="path32965" />
    <path
       d="m 238.74746,127.71067 c -2.58933,1.336 -5.3,2.39067 -8.24133,2.83334 -4.98134,0.75066 -9.25467,-2 -14.38667,-1.13067 -3.112,0.52667 -6.51867,2.18933 -9.568,3.16267 -4.06933,1.29866 -8.104,2.70133 -12.16133,4.03333 -10.372,3.40533 -21.464,4.57733 -32.14933,6.76933 -3.628,0.744 -10.80534,3.192 -14.21867,0.68 -0.12667,0.13067 -0.256,0.25867 -0.38533,0.38534 2.52266,4.56266 9.98266,7.016 15.26533,5.552 -2.73867,1.96 -7.52667,2.152 -10.972,3.12 -2.59333,0.73066 -4.65867,1.34 -6.968,2.70666 4.41067,-1.832 9.31067,-1.332 14.032,-1.36133 -6.984,2.48 -16.81067,5.148 -21.40133,11.47333 4.48,-2.56133 10.06666,-4.12533 15.164,-5.89866 2.376,-0.82667 6.07066,-1.69067 7.66,-3.712 -1.99067,8.86 -10.70934,8.29866 -16.55467,12.80933 5.45733,-0.30933 10.33733,-3.34 15.39467,-5.08267 2.89333,-0.99733 7.10133,-1.67066 8.832,-3.976 -0.16934,1.59467 -0.39467,3.128 -1.724,4.05867 -2.124,1.484 -3.72534,3.25333 -6.12267,4.33467 -2.2,0.99333 -4.808,1.688 -6.256,3.78266 2.17867,-0.33866 5.14533,-0.88133 6.93333,-2.22666 -0.92533,1.76533 -2.268,3.27333 -3.58,4.73866 -1.31466,1.468 -1.58266,3.27334 -2.176,4.94267 3.51067,-0.85467 6.86267,-2.90933 10.42134,-3.784 -1.50534,1.96533 -3.448,3.51067 -4.26667,5.88133 3.152,-1.69866 5.48,-3.79866 8.97467,-4.84266 -0.356,4.18533 -2.18267,7.57066 -1.556,12.02666 0.22,1.56134 0.45333,3.33334 0.872,4.86934 0.388,1.42933 1.04666,4.11333 1.752,4.936 0.003,-4.14 1.04,-10.61067 4.368,-13.424 -0.0907,5.68933 0.14133,11.95333 2.7,16.68266 1.22266,2.26 2.124,4.80667 4.44666,6.06533 3.476,1.88267 5.94534,3.86934 10.06134,4.04934 2.00133,0.0867 4.20266,0.16533 6.09333,-0.30667 5.156,-1.29067 10.27866,-2.91467 15.46133,-4.24267 5.67067,-1.45333 10.352,-4.35333 16.15733,-5.47066 19.09334,-3.67067 36.54267,6.05466 54.932,10.00266 16.25867,3.49067 41.816,6.61867 51.23467,-10.6 5.456,-9.97199 4.76266,-19.41733 5.432,-30.54266 0.61733,-10.23467 6.02933,-21.232 9.05733,-30.684 2.56,-7.99333 6.05733,-16.24133 3.856,-24.58533 -2.376,-9.008 -2.74933,-18.310669 -5.68533,-26.929336 -0.98534,-2.893333 -3.596,-6.698666 -5.832,-8.817333 -3.64,-3.448 -6.528,-4.517333 -11.49067,-2.788 -11.03733,3.844 -20.96666,10.481333 -32.076,14.636 -5.756,2.153333 -12.03733,5.853333 -17.43733,9.059999 -5.992,3.55867 -12.21733,6.76533 -18.16133,10.03333 -7.06667,3.88534 -13.28,9.11334 -20.06534,13.43867 -1.85066,1.17867 -3.724,2.34 -5.66533,3.34133"
       style="opacity:0.199997;fill:#000000;fill-opacity:1;fill-rule:nonzero;stroke:none;stroke-width:1.33333"
       id="path32981" />
    <path
       d="m 304.25266,227.51 c -4.176,-0.15066 -7.88267,-1.30266 -11.35467,-2.97466 v 0.46666 c -2.73733,-1.10133 -5.33333,-2.524 -7.64133,-4.18533 -1.57733,-1.13467 -2.876,-2.32933 -4.04933,-3.60267 -5.724,-3.96666 -11.56267,-7.812 -18.796,-8.90266 -5.02667,-0.75867 -10.54534,-1.388 -15.46667,-1.72667 -0.30933,-0.0213 -0.59867,-0.0587 -0.89067,-0.0933 -7.832,8.85333 -17.10533,14.524 -28.75333,17.45466 -5.61467,1.41334 -11.004,3.49067 -17.01067,3.564 C 193.698,227.59 188.55,225.98067 182.51133,224.37934 175.78066,222.594 170.378,218.646 164.618,215.158 c -4.62667,-2.8 -9.556,-5.204 -14.10534,-8.30133 -7.58266,-5.164 -15.456,-12.76533 -19.956,-20.86666 -2.39066,-4.30534 -4.70533,-11.87734 -3.08666,-16.69467 1.02133,0.83067 1.792,2.17467 2.57733,3.288 -0.0653,-4.37333 -0.25733,-14.68267 3.59867,-17.15067 0.0933,0.788 0.38,1.49867 0.37066,2.30667 0.0533,-4.116 5.56667,-9.872 8.91867,-11.836 1.83467,-1.076 3.73867,-1.216 5.504,-2.328 1.86133,3.72133 5.37333,6.21867 9.30267,6.504 18.96266,1.38133 37.27066,-8.948 55.38399,-13.75867 5.08,-1.34933 10.12134,-1.82266 15.25734,-3.46666 6.15333,-1.972 12.24133,-4.14534 18.448,-5.94534 9.18266,-2.66 17.25866,-5.45733 25.69333,-9.78 4.02933,-2.064 9.88267,-2.944 13.068,-6.34266 3.28933,-3.50934 4.64133,-9.804 7.06667,-13.990669 3.188,-5.501333 6.032,-11.112 9.56,-16.397333 5.87466,-8.8 12.068,-16.745333 18.832,-24.841333 2.784,-3.330666 4.45866,-9.345333 9.59066,-9.651999 1.62934,-0.09733 3.20667,0.545333 4.67867,1.249333 4.168,1.994666 4.86933,3.374666 6.30266,7.56 1.616,4.717333 2.74134,9.607999 4.73067,14.191999 1.21067,2.792 0.53733,0.433334 2.868,1.016 1.936,0.485334 1.95067,2.498667 2.11867,4.008 0.41333,3.72 1.076,7.969333 1.28266,11.888 0.18267,3.448 -1.23866,9.553333 0.576,12.528 1.37734,-0.584 2.804,-3.813334 2.82534,-5.377334 -0.14134,2.350667 1.38133,4.336 1.30666,6.724 -0.0533,1.725336 -0.74933,3.129336 -1.37333,4.702666 -1.15333,2.90667 -1.736,6.112 -2.708,8.924 1.20933,-0.86933 1.71467,-2.37467 2.78667,-3.33867 0.0493,8.736 -2.47334,16.996 -3.73334,25.50267 -1.17466,7.93867 -3.49733,15.67467 -6.54533,23.26667 -2.956,7.36533 -2.812,16.79733 -2.812,24.98133 0,6.30267 1.45333,15.52933 -1.36667,21.052 -4.244,8.312 -10.50399,12.292 -18.09866,17.32666 -2.77333,1.83867 -5.59467,3.99867 -8.77867,5.07734 -3.228,1.09466 -7.068,0.44533 -10.44933,0.32266"
       style="opacity:0.199997;fill:#000000;fill-opacity:1;fill-rule:nonzero;stroke:none;stroke-width:1.33333"
       id="path32997" />
    <path
       d="m 343.90826,200.59734 c -0.0173,0.032 -0.0347,0.064 -0.052,0.096 -2.51067,4.58666 -4.60667,9.68933 -7.58934,14.012 -0.75466,1.09333 -2.98133,2.58933 -3.41733,3.63333 0.51867,-1.24133 1.00933,-2.876 1.23333,-4.15733 -3.81733,3.016 -7.30533,6.18533 -11.46266,8.73866 -4.99867,3.07734 -11.53467,2.83734 -17.85333,2.60667 l -0.44134,-0.016 c -3.48666,-0.12533 -6.94133,-1.03467 -10.55866,-2.77733 l -2.864,-1.37867 v 0.552 c -1.58,-0.79733 -3.07867,-1.70533 -4.47867,-2.71333 -1.34533,-0.968 -2.57067,-2.05867 -3.74667,-3.33467 l -0.33066,-0.28933 c -6.332,-4.38667 -12.18,-8.11067 -19.63734,-9.236 -5.24933,-0.792 -10.8,-1.412 -15.62666,-1.744 -0.24934,-0.016 -0.484,-0.0467 -0.78534,-0.084 l -1.04533,-0.128 -0.69733,0.788 c -7.65067,8.652 -16.46667,14.004 -27.74267,16.84133 -1.424,0.35867 -2.83467,0.75867 -4.244,1.15867 -4.148,1.18 -8.06667,2.29333 -12.30267,2.344 -5.61066,0.0613 -10.11199,-1.14534 -15.32533,-2.54934 -0.62666,-0.16933 -1.26666,-0.37733 -1.908,-0.54666 -0.34666,-0.0907 -0.69466,-0.17067 -1.04133,-0.228 -0.70667,-0.116 -1.29867,-0.0653 -1.956,-0.396 -0.94533,-0.47467 -1.74933,-1.30667 -2.62667,-1.896 -1.27333,-0.85467 -2.59866,-1.776 -3.75066,-2.72 -1.09467,-0.89734 -1.592,-2.16267 -2.372,-3.26934 -0.85867,-1.216 -1.78667,-2.46 -2.52934,-3.76 -0.69733,-1.22266 -1.736,-3.19333 -2.79866,-4.09866 0.51866,1.316 0.35866,3.25066 0.58133,4.66133 0.17867,1.12933 0.40667,1.8 0.972,2.85333 0.38533,0.72 0.82133,1.39334 0.88,2.19734 -3.47733,-1.69734 -5.49733,-5.99467 -7.65733,-8.992 -0.472,-0.65467 -0.89867,-1.31067 -1.14934,-2.032 0.02,1.192 -0.20533,2.53733 0.0253,3.69333 0.21333,1.064 1.53733,1.84 1.55733,2.824 -0.016,-0.78267 -1.91733,-1.44133 -2.46,-1.924 -0.97333,-0.868 -1.72133,-1.97467 -2.27867,-3.14667 -0.76933,-1.62 -1.22,-3.38666 -1.59466,-5.13333 -0.16934,-0.78667 -0.81334,-2.3 -0.52934,-3.06933 -0.476,1.28933 -1.22,2.35733 -1.156,3.75733 0.0707,1.57733 0.70667,3.068 0.8,4.64133 -4.99333,-2.30933 -8.136,-8.10266 -8.80666,-13.46399 0.144,1.15333 -0.368,2.47733 -0.37067,3.68133 -0.003,1.46667 0.60133,2.912 0.85333,4.392 -0.004,-0.024 -1.27466,-0.8 -1.42,-0.95334 -1.14666,-1.21066 -1.95866,-2.68533 -2.832,-4.09333 -0.72,-1.16133 -2.11466,-2.71466 -2.13866,-4.152 0.0173,1.06134 0.27733,2.208 0.264,3.15334 -0.0747,-0.0827 -0.15067,-0.11734 -0.244,-0.19734 -1.152,-0.98133 -1.67067,-2.66133 -2.124,-4.04933 -0.47867,-1.46267 -0.95734,-2.92533 -1.43467,-4.38933 -0.168,-0.51467 -1.30667,-2.89467 -1.02667,-3.32934 -0.86133,1.336 -0.60933,3.94267 -0.584,5.56134 -2.50933,-2.164 -3.068,-5.42267 -3.99866,-8.408 -0.57334,-1.83867 -0.892,-3.64134 -1.072,-5.56134 l 3.12933,4.332 c -0.0213,-1.42666 -0.0227,-2.856 -0.064,-4.28266 -0.0427,-1.468 -0.536,-2.87867 -0.53867,-4.34134 -0.003,-1.92666 0.10934,-3.72 -0.028,-5.656 -0.13333,-1.872 -0.256,-3.96933 0.668,-5.67866 0.12934,0.55333 0.46,1.324 0.77334,1.76533 0.636,-0.51467 1.08533,-4.07467 2.23466,-3.192 -0.11333,-2.396 1.26,-3.72933 2.644,-5.448 1.40667,-1.748 3.15467,-3.212 4.95467,-4.53867 6.33867,-4.668 14.61867,-6.38933 22.272,-7.46266 1.47467,-0.20667 3.09467,-0.056 4.53733,-0.43067 -0.44,0.11467 -1.37733,-0.13733 -1.89733,-0.14133 -0.956,-0.008 -1.908,-0.0427 -2.86267,-0.0787 -1.312,-0.048 -2.62533,-0.072 -3.924,0.084 -0.50666,0.06 -1.01066,0.148 -1.512,0.27333 -5.01466,1.24667 -10.18666,1.89734 -15.04933,3.71734 -2.252,0.84266 -4.38,2.008 -6.21067,3.57733 -0.948,0.81333 -1.808,1.724 -2.57866,2.70533 -1.21067,1.54267 -2.948,3.55467 -2.98267,5.612 -0.19333,-0.12933 -0.38133,-0.752 -0.59067,-1.132 -0.424,0.75467 -1.16666,1.38667 -1.58933,2.15467 -0.484,0.87733 -0.83467,1.72133 -1.19467,2.67467 -0.992,2.624 -1.01733,5.38666 -1.11866,8.136 l -1.59067,-1.296 -0.92,2.73733 c -1.91733,5.70533 0.884,14.072 3.23333,18.304 1.62667,2.92667 3.59467,5.68 5.76534,8.228 0.792,0.93067 1.864,1.51467 2.77466,2.36667 0.69734,0.652 1.72534,1.84 2.812,1.624 1.088,1.78933 2,4.00399 3.61734,5.47333 1.656,1.50666 3.91733,2.34533 5.77733,3.37466 0.87067,0.48134 0.95867,1.376 1.51867,2.084 0.69733,0.88134 1.71066,1.184 2.77333,1.43467 1.032,0.24267 2.16,0.088 3.00133,0.864 0.67467,0.62267 1,1.63867 1.92,2.20667 1.08,0.668 2.19867,1.05733 3.34934,1.62133 1.29333,0.636 2.4,1.66267 3.65466,2.25467 1.66934,0.78666 3.23867,1.77066 4.85467,2.73066 3.584,2.13067 7.32933,4.004 11.372,5.088 0.001,0 1.9,0.51067 1.9,0.51067 5.272,1.42133 10.26267,2.77067 16.416,2.68667 4.768,-0.0587 9.12933,-1.29734 13.34533,-2.496 1.372,-0.38934 2.744,-0.77867 4.12933,-1.128 11.59067,-2.916 21.112,-8.58134 29.072,-17.30134 4.712,0.32667 10.12534,0.93067 15.25067,1.70534 6.54267,0.98666 11.932,4.4 17.77733,8.444 1.31467,1.40666 2.69067,2.62133 4.19867,3.70666 2.44933,1.764 5.16267,3.25067 8.06267,4.41867 l 2.74266,1.104 10e-4,-0.38933 c 3.11866,1.18666 6.18,1.82266 9.28533,1.93466 l 0.44,0.0173 c 1.756,0.0627 3.528,0.128 5.292,0.128 3.96133,0 7.83467,-0.85734 11.50533,-2.31734 3.72134,-1.48 6.864,-3.93066 10.432,-5.572 0.49867,-0.22933 -0.61066,5.188 -0.548,5.52934 3.42667,-2.16534 6.688,-6.744 8.86533,-10.12534 4.04267,-6.28 7.816,-14.03333 9.128,-21.44266 1.26267,-7.13333 1.27067,-14.40667 1.70934,-21.616 0.79866,-13.13733 5.184,-25.70933 9.236,-38.12 2.208,-6.76533 4.068,-13.556 5.784,-20.456 2.24,-9.00267 3.17866,-19.529332 0.89733,-28.594666 -1.132,-4.498666 -3.16533,-8.709333 -5.184,-12.885333 -1.68933,-3.491999 -3.46,-6.774666 -6.11333,-9.633333 -2.848,-3.068 -4.876,-6.819999 -7.56667,-10.050666 -4.772,-5.726667 -11.544,-10.054666 -18.968,-10.724 -8.624,-0.776 -16.94133,3.344 -24.06133,8.272 7.58267,-5.250666 17.644,-5.522666 26.65067,-3.541333 3.52666,0.776 7.07466,1.910666 9.89999,4.16 2.824,2.249333 4.82134,5.801333 4.40667,9.386666 0.19333,-1.68 0.252,-3.265333 -0.18267,-4.921333 0.328,1.249333 3.08,3.178666 4.00134,4.281333 1.43333,1.714667 2.75866,3.516 3.95733,5.402667 3.42533,5.388 5.99067,11.491999 6.88267,17.839999 0.184,1.301334 0.0693,2.774667 0.46533,3.994667 -0.0773,-0.24 1.392,-4.393333 1.58533,-4.970667 2.21467,1.605334 1.556,5.296 1.21734,7.581333 -0.19467,1.317334 -0.77334,9.642666 -1.59067,9.782666 1.064,-0.18267 2.01867,-0.912 2.47467,-1.890666 -0.592,1.271996 0.0573,3.438666 0.0333,4.825336 -0.0427,2.416 -0.34,4.856 -0.73333,7.23733 -1.43334,8.70133 -4.84534,17.07733 -9.99067,24.24533 0.824,-0.16266 1.648,-0.324 2.472,-0.48533 -2.17333,0.42667 -2.78,7.97333 -3.072,9.62933 -1.24133,7.04667 -2.904,14.5 -6.68133,20.79867 -3.74534,6.244 -8.80267,11.768 -10.78134,18.936 3.90534,-5.32 7.812,-10.64133 11.71734,-15.96133 -1.38,5.928 -0.76667,12.108 -0.868,18.192 -0.08,4.81066 -0.664,9.86133 -2.984,14.15733"
       style="fill:#000000;fill-opacity:1;fill-rule:nonzero;stroke:none;stroke-width:1.33333"
       id="path33007" />
  </g>
  <g
     id="g32051"
     inkscape:groupmode="layer"
     inkscape:label="Hair Front">
    <path
       d="m 248.89519,108.15467 c -0.164,0.6 -0.33866,1.196 -0.62666,1.75734 -0.38134,0.74133 -0.85467,1.368 -1.328,2.02666 0.0787,-0.076 0.22266,-0.16266 0.30666,-0.23466 -0.21866,0.66666 -0.44266,1.23066 -1.02133,1.76533 -0.61733,0.57067 -0.61867,0.79067 -0.83067,1.49867 -0.18933,0.628 -0.76933,1.244 -1.18933,1.748 -0.228,0.27466 -3.26667,3.068 -3.39733,2.824 -0.68934,-1.29467 0.25066,-2.592 0.59733,-3.93467 0.57867,-2.24 0.22267,-4.348 0.46933,-6.62667 0.35067,-3.24133 1.276,-6.25466 1.31734,-9.765329 0.0427,-3.449333 0.88933,-6.864 0.428,-10.288 -0.32534,-2.406666 -0.584,-4.524 -0.424,-6.997333 0.252,-3.878667 0.104,-8.2 5.05066,-8.981333 3.93467,-0.621333 7.70934,0.422666 11.40134,1.398666 2.67066,0.705334 5.22533,0.650667 7.972,1.06 1.65866,0.246667 3.336,0.453334 4.94933,0.86 0.656,0.165334 1.08,0.252 1.428,0.713334 0.36,0.476 0.72267,0.865333 1.16267,1.306666 0.632,0.632 1.16,1.326667 1.732,2.001334 0.51066,0.602666 1.34266,1.345333 2.13466,1.721333 -0.72533,-0.112 -1.17866,-0.344 -1.744,-0.666667 -0.76,-0.433333 -1.64666,-0.605333 -2.42533,-1.025333 -0.68133,-0.366667 -1.34667,-0.761333 -1.99467,-1.184 -0.544,-0.354667 -1.15866,-0.885333 -1.83733,-0.914667 0.29467,0.01333 0.83333,0.925334 1.032,1.129334 0.788,0.801333 1.892,1.298666 2.58667,2.185333 -1.43067,-0.252 -2.528,-0.988 -3.75467,-1.584 -0.532,-0.258667 -1.07467,-0.561333 -1.632,-0.869333 -0.57467,-0.318667 -1.528,-0.912 -2.18533,-1.058667 0.27333,0.630667 0.65466,0.986667 1.18,1.488 0.43866,0.418667 1.00533,0.670667 1.448,1.096 -1.09867,-0.405333 -2.10934,-1.108 -3.00667,-1.848 -0.75467,-0.621333 -1.31333,-1.432 -2.268,-1.777333 -0.148,-0.05333 0.464,1.161333 0.51867,1.230666 0.82133,1.041334 1.84666,1.592 3.02266,2.145334 -0.516,-0.244 -1.096,-0.233334 -1.644,-0.354667 -1.10933,-0.246667 -2.12533,-0.769333 -3.064,-1.394667 -0.68533,-0.457333 -1.268,-1.126666 -2.056,-1.410666 0.12134,0.856 0.85467,1.564 1.49334,2.081333 0.356,0.288 0.73733,0.548 1.13866,0.770667 0.30134,0.166666 0.884,0.301333 1.024,0.649333 -0.62933,-0.250667 -1.25333,-0.522667 -1.86533,-0.902667 -0.70533,-0.438666 -1.63333,-0.76 -2.1,-1.4 0.21067,0.566667 0.47733,1.138667 0.612,1.725334 -0.80133,-1.041334 -2.04533,-1.808 -2.868,-2.789334 -0.39467,0.410667 0.37467,1.1 0.56533,1.433334 0.13467,0.234666 0.28934,0.444 0.51867,0.594666 0.104,0.068 0.22133,0.117334 0.32267,0.189334 0.028,0.02 0.19066,0.197333 0.2,0.197333 -0.736,-0.048 -1.50267,-0.528 -2.02,-1.029333 -0.328,-0.318667 -0.71067,-0.602667 -1.02267,-0.92 0.048,0.276 0.104,0.708 0.21467,0.997333 0.0773,0.205333 0.21733,0.398667 0.33466,0.582667 0.0947,0.149333 0.112,0.308 0.18267,0.453333 -0.13333,-0.032 -0.32933,-0.22 -0.456,-0.302667 -0.16667,-0.110666 -0.44267,-0.409333 -0.64133,-0.397333 -0.016,0.192 0.16533,0.381333 0.25733,0.536 0.12667,0.214667 0.236,0.429333 0.39867,0.626667 -0.19467,-0.01067 -0.41867,-0.152 -0.592,-0.225334 -0.20934,-0.088 -0.38934,-0.152 -0.58667,-0.273333 -0.50533,-0.309333 -0.92,-0.693333 -1.46267,-0.925333 -0.21066,-0.08933 -0.368,-0.265334 -0.54266,-0.409334 -0.0453,-0.03867 -0.488,-0.282666 -0.48934,-0.286666 0.17067,0.657333 0.516,1.458666 1.03067,1.933333 -0.388,-0.133333 -0.768,-0.466667 -1.096,-0.712 -0.27867,-0.208 -0.77867,-0.478667 -0.93067,-0.786667 0.0467,0.352 0.016,0.74 0.016,1.102667 0,0.564 -0.0213,1.134667 -0.10933,1.684 -0.0307,0.197333 -0.16667,0.477333 -0.28667,0.633333 -0.104,0.134667 -0.32133,0.3 -0.32933,0.486667 0.25467,0.102667 0.78133,-0.03867 1.012,-0.16 -0.009,0.149333 -0.12267,0.294667 -0.20933,0.416 -0.18667,0.261333 -0.38,0.530667 -0.54267,0.812 -0.13733,0.238667 -0.33467,0.433333 -0.47733,0.666667 -0.12267,0.2 -0.196,0.422666 -0.33734,0.616 -0.67066,0.908 -1.65066,1.669333 -2.60133,2.273333 -0.37867,0.24 -0.93467,0.4 -1.23333,0.725333 0.57866,-0.112 0.94266,-0.08533 1.49066,-0.313333 0.43067,-0.18 0.836,-0.26 1.252,-0.478667 -0.67333,0.622667 -1.60133,1.057333 -2.156,1.776 0.71867,-0.03067 1.68534,-0.421333 2.332,-0.725333 -0.0827,0.476 -0.53466,1.061333 -0.84666,1.433333 -0.35334,0.422667 -0.67467,0.998667 -1.11867,1.328 0.69333,-0.514667 1.57067,-1.166667 2.13333,-1.74 -0.164,0.462667 -0.012,1.032 -0.26266,1.502667 -0.24667,0.46 -0.7,0.753333 -0.83734,1.277333 0.54934,-0.168 1.41067,-0.437333 1.744,-0.826667 -0.27333,0.858667 -1.40933,1.478667 -1.97333,2.202667 0.568,-0.372 1.328,-0.786667 1.97733,-0.981333 -0.092,0.028 -0.45066,0.716 -0.556,0.832 -0.26266,0.289333 -0.58,0.533333 -0.88666,0.778666 -0.60934,0.486667 -1.268,0.942667 -1.68934,1.597334 0.43867,-0.293334 1.056,-0.224 1.53734,-0.482667 0.66933,-0.361333 1.172,-0.968 1.85066,-1.318667 0.18267,0.945334 -0.752,1.92 -1.26533,2.576 -0.54,0.689334 -0.904,1.318667 -1.61867,1.888 0.72267,-0.06667 2.47334,-0.534666 2.884,-1.145333 -0.488,1.817333 -1.992,3.583999 -3.22666,5.022669 -0.20267,0.23466 -0.58267,0.58533 -0.568,0.88266 1.1,-0.64666 2.148,-1.50133 3.15066,-2.29866 -0.46666,1.35333 -0.948,2.70266 -1.71333,3.99066 -0.42133,0.708 -1.07067,1.584 -1.376,2.28 0.60133,-0.164 1.23733,-0.93733 1.74267,-1.32266 -0.008,0.47733 -0.348,0.94133 -0.49334,1.388 -0.71066,2.17466 -1.32,4.404 -2.86266,6.21466 -0.68134,0.79867 -1.332,1.63734 -2.04667,2.42134 -0.31867,0.35066 -1.14933,1.648 -1.52933,1.64266"
       style="fill:#000000;fill-opacity:1;fill-rule:nonzero;stroke:none;stroke-width:1.33333"
       id="path41079" />
    <path
       d="m 153.36173,143.45041 c -0.16133,-0.548 -1.86533,-1.16267 -2.31733,-1.50134 -0.57734,-0.43333 -1.11867,-0.97066 -1.676,-1.456 -0.524,0.48134 -0.348,1.18934 -0.50934,1.824 -0.86533,3.424 -0.21866,6.48 0.91734,9.79734 0.55733,0.344 0.81466,1.21066 1.22666,1.76933 1.744,2.36933 2.82,5.228 4.41334,7.772 0.27333,0.43467 0.55466,0.86267 0.84533,1.284 2.9,4.204 6.66667,7.66267 11.104,9.996 0.444,0.23467 0.89467,0.456 1.352,0.66667 0.91333,0.42133 1.85333,0.796 2.81733,1.12 0.48267,0.16266 0.97067,0.31333 1.464,0.45066 0.49467,0.13734 0.99467,0.26134 1.50667,0.37467 17.524,3.85733 37.29066,-9.25333 52.24933,-26.36667 0.79467,-0.49866 1.57333,-0.99866 2.29867,-1.504 -0.19867,2.04534 -4.05067,2.74534 -4.67867,4.64267 -0.364,1.1 -0.72667,2.05733 -1.54667,2.97333 1.72134,-1.924 4.25867,-2.39333 5.90134,-4.64933 1.77866,-2.44133 5.808,-3.27333 7.21466,-5.94933 2.83334,-5.38934 4.67067,-11.204 5.19734,-17.28267 0.48666,-5.608 2.188,-10.84933 3.108,-16.384 0.91466,-5.50533 1.54666,-11.050666 2.29866,-16.579999 0.54134,-3.981333 -0.79066,-14.873333 2.60534,-18.925333 0.17333,-0.196 0.35066,-0.38 0.54,-0.54 0.0453,-0.03867 0.0907,-0.076 0.136,-0.112 0.23866,-0.185333 0.48933,-0.348 0.75466,-0.476 0.0293,-0.01467 0.0627,-0.02667 0.0933,-0.04133 0.284,-0.128 0.58,-0.230667 0.896,-0.292 0.73466,-0.142667 1.46133,-0.244 2.17866,-0.312 0.0453,-0.0053 0.0893,-0.0053 0.13467,-0.0093 7.512,-0.667999 14.10133,2.501334 20.89467,5.16 0.936,0.416 1.80933,0.793334 2.59866,1.089334 0.428,0.161333 1.00534,0.314666 1.68667,0.461333 1.62933,0.529333 3.27867,0.989333 4.972,1.305333 2.15733,0.402667 3.93333,0.801334 6.044,1.342667 4.43467,1.136 10.104,1.668 14.756,1.237333 2.71333,-0.252 4.644,-1.926666 7.05467,-2.637333 1.14133,-0.06 2.27333,-0.132 3.38666,-0.214667 2.11334,0.276 4.18534,0.921334 6.36,0.829334 2.08534,-0.088 4.064,-1.034667 6.06267,-1.646667 2.672,-0.818667 5.456,-1.485333 7.51866,-3.498667 0.74,-0.722666 1.45867,-1.533333 2.136,-2.398666 4.27467,-4.398667 5.25334,-10.941333 3.58934,-18.721333 -0.448,0.616 -1.304,0.809333 -1.76,1.237333 -2.296,-5.105333 -6.948,-10.552 -10.36533,-15.403999 -6.41467,-9.105333 -17.032,-17.993333 -27.39334,-20.944 -1.22933,3.937333 -6.90933,-1.078666 -8.55333,-1.890666 -2.32933,-1.150667 -5.204,-1.638667 -7.72267,-2.029334 -0.91333,-0.141333 -7.45733,0.088 -7.724,-0.317333 0.26267,0.398667 0.49467,1.304 0.944,1.772 -1.79066,-1.865333 -8.2,-2.618667 -10.656,-3.046667 -3.80666,-0.662666 -7.31066,-0.048 -11.08533,0.08933 -3.612,0.132 -7.632,0.694666 -10.86267,1.896 1.79734,0.76 3.82534,1.053333 5.72534,1.785333 -8.20934,0.502667 -15.37467,1.341333 -23.09867,3.461333 -3.14133,0.862667 -6.87733,1.848 -9.87467,3.110667 -2.07466,0.874666 -5.89333,2.050666 -7.62533,3.72 1.50133,-0.916 3.45333,-0.953334 5.128,-0.808 -5.86,-0.509334 -14.16,7.230666 -18.59333,10.906666 -5.56667,4.614667 -10.49067,10.676 -14.60133,16.364 -7.9,10.930666 -12.70934,24.101332 -14.25734,37.302665 -0.45866,3.909334 -0.0147,7.749333 -1.032,11.627993 -0.32266,1.22934 -3.24,9.56134 -4.87066,9.216 1.72266,0.364 3.51066,0.72534 5.16266,1.176 -1.40933,4.73467 -6.25866,4.76 -8.84533,7.80667 -1.216,1.43333 -1.896,3.09867 -2.52,4.85067 -0.54667,1.536 -0.60133,2.708 -0.72933,4.40533 -0.26267,-0.58133 -1.29467,-1.6 -1.99867,-1.632 -0.80933,1.44 -0.664,2.94133 -0.664,4.63467 0,1.74266 0.008,3.54666 -0.072,5.244 -0.0493,1.06 0.0827,1.92666 0.36,2.868"
       style="fill:#383838;fill-opacity:1;fill-rule:nonzero;stroke:none;stroke-width:1.33333"
       id="path41083" />
    <path
       d="m 270.01013,20.738676 c 2.71733,-0.153333 5.14,0.890667 7.79466,1.142667 1.616,0.152 3.224,-0.12 4.84,-0.0093 2.73067,0.186667 5.43867,1.089334 8.01467,1.962667 1.832,0.62 5.70667,1.336 7.08,2.682667 -1.58267,-1.552 -5.65467,-3.792 -7.51467,-5.045334 4.02934,-0.004 8.11334,2.225334 11.796,3.536 2.71467,0.966667 5.91867,1.637334 8.12267,3.321334 -0.44,-0.268 -0.85733,-0.550667 -1.348,-0.828 3.04667,1.465333 6.10133,1.050666 8.51733,3.56 1.35467,1.409333 2.56667,3.201333 4.01467,4.419999 0.0773,-3.573333 -4.27067,-6.129333 -6.796,-7.934666 -3.984,-2.848 -8.37467,-5.262667 -13.104,-6.609333 -1.228,3.936 -6.90933,-1.078667 -8.55333,-1.890667 -2.32934,-1.150666 -5.204,-1.638666 -7.72267,-2.029333 -0.912,-0.141333 -7.456,0.088 -7.724,-0.317333 0.26267,0.398666 0.496,1.304 0.94533,1.770666 -1.792,-1.864 -8.2,-2.617333 -10.65733,-3.045333 -3.80533,-0.664 -7.30933,-0.048 -11.08533,0.08933 -3.61067,0.132 -7.63067,0.694667 -10.86134,1.896 1.79734,0.76 3.82534,1.053334 5.72534,1.785334 -8.20934,0.501333 -15.37467,1.341333 -23.09867,3.461333 -3.14267,0.862666 -6.87733,1.848 -9.876,3.110666 -2.07333,0.874667 -5.89333,2.050667 -7.62533,3.72 1.50266,-0.917333 3.45466,-0.953333 5.12933,-0.808 -5.86133,-0.509333 -14.16,7.230667 -18.59333,10.906667 -5.568,4.614666 -10.492,10.675999 -14.60133,16.363999 -7.9,10.930667 -12.70934,24.101333 -14.25867,37.301333 -0.34533,2.948 -0.0307,5.934666 -0.41467,8.876001 -0.352,2.696 -1.608,5.316 -1.68266,8.05066 0.54533,-1.24666 1.82933,-1.89466 2.52533,-3.09066 0.66,-1.13334 0.89067,-2.50134 1.14,-3.728 0.42133,-2.06934 0.11333,-5.812001 1.20533,-7.476001 -0.26,1.917333 0.83467,3.684 0.748,5.656001 1.54667,-0.94534 1.84267,-6.012001 2.132,-7.893335 0.40934,-2.658666 1.01734,-4.942666 1.67867,-7.559999 1.40533,-5.565334 2.66933,-10.648 5.80133,-15.653333 1.284,-2.054667 2.56667,-4.117334 4.05734,-5.957334 -1.09467,1.302667 -2.33467,2.010667 -3.824,2.530667 -0.33867,-3.384 3.17866,-7.421333 4.98666,-9.808 1.14267,-1.508 2.63867,-3.656 4.316,-4.862666 1.74267,-1.252 3.39467,-2.52 5.06534,-3.889334 2.65733,-2.177333 5.76399,-4.819999 9.54799,-4.729333 -1.51066,-0.510666 -3.896,-0.134666 -5.65466,-0.222666 3.19066,-5.330667 9.916,-8.394667 15.532,-10.609333 3.84933,-1.518667 7.45733,-3.269334 11.184,-4.633334 2.53866,-0.929333 5.476,-0.234666 7.89466,-1.213333 -1.084,-0.117333 -2.15733,-0.349333 -3.26533,-0.346667 3.13067,-2.012 8.75733,-2.409333 12.49733,-2.578666 1.848,-0.08267 3.68934,-0.342667 5.58667,-0.245334 1.54933,0.08 3.05733,0.674667 4.59733,0.492 -0.988,-0.442666 -1.87333,-1.141333 -2.71866,-1.702666 2.32533,0.03867 4.65466,0.012 6.98133,0.012 5.00267,0 9.19467,0.556 14.028,1.757333 3.496,0.869333 8.93333,1.626667 11.736,3.721333 -4.472,-3.629333 -8.76133,-5.844 -14.24133,-7.409333"
       style="opacity:0.100006;fill:#ffffff;fill-opacity:1;fill-rule:nonzero;stroke:none;stroke-width:1.33333"
       id="path41093" />
    <path
       d="m 338.45826,58.031075 c 5.97066,5.853333 1.696,14.321333 -3.236,19.137333 -2.06267,2.013333 -4.84667,2.68 -7.52,3.498667 -1.99867,0.612 -3.976,1.557333 -6.06133,1.645333 -2.388,0.101333 -4.652,-0.692 -6.98267,-0.902667 -3.92267,-0.354666 -6.15467,2.586667 -9.82,2.926667 -4.652,0.430667 -10.32,-0.101333 -14.75467,-1.238667 -2.11066,-0.54 -3.88666,-0.94 -6.04533,-1.341333 -11.12133,-2.073333 -20.55067,-10.001333 -32.464,-7.696 -10.812,2.093333 -2.132,44.613332 -17.47733,65.886662 -15.344,21.27334 -39.02,40.13334 -59.59733,35.6 -8.092,-1.784 -14.72267,-6.93066 -19.08267,-13.89066 -2.936,-4.68667 -5.088,-11.728 -4.22933,-17.38 -0.33067,2.17866 1.656,2.74533 3.096,3.67333 4.84666,3.124 7.84933,7.98267 13.16933,10.65867 3.75867,1.88933 7.916,3.00133 12.12133,3.19066 3.968,0.17734 8.09867,-1.18133 12.04134,-1.67733 -4.98934,-0.088 -10.044,-0.72267 -14.62934,-2.692 -4.58533,-1.96933 -8.68533,-5.392 -10.72266,-9.94667 2.95466,6.60534 14.836,9.27067 21.22933,9.05734 7.07067,-0.236 18.50266,-3.53734 21.50666,-10.76267 -2.82933,-0.048 -5.96266,1.804 -8.70533,2.508 -3.32666,0.85467 -6.68933,1.604 -10.12266,1.84267 -7.98,0.556 -14.10934,-1.988 -19.052,-8.23067 2.17466,2.74533 9.36,3.47067 12.5,3.68667 5.24933,0.36133 10.564,-0.60534 15.472,-2.45734 7.65999,-2.88933 16.79199,-6.08666 23.01599,-11.404 -4.45066,4.312 -13.21066,4.40267 -19.06933,5.84934 -2.736,0.676 -5.51733,1.42133 -8.3,1.87466 -1.804,0.29467 -3.63866,0.41334 -5.464,0.288 -1.324,-0.0907 -4.16666,-1.32133 -5.296,-1.01066 3.476,-0.95734 7.29334,-1.45067 10.78934,-2.14267 9.33866,-1.85067 20.50933,-4.684 27.35599,-11.30533 3.40534,-3.29467 6.67734,-7.23467 8.76267,-11.52134 1.452,-2.984 0.0293,-7.572 1.74533,-10.068 -3.76133,5.47067 -8.57866,10.15867 -13.82,14.20267 -2.63733,2.03467 -7.79866,2.19333 -10.64,3.93067 -1.96,1.2 -5.964,1.992 -7.48533,3.44266 5.764,-5.49066 13.828,-8.05333 18.28667,-14.81066 3.12133,-4.73067 5.72666,-9.8 7.756,-15.092002 1.96933,-5.136 0.66133,-12.270667 3.74533,-16.926667 2.43467,-3.677333 7.78667,-6.435999 9.53733,-9.898666 -4.41866,3.956 -10.72933,4.816 -15.18133,8.594666 -2.844,2.413334 -8.13333,9.685333 -8.88267,13.54 0.576,-2.965333 0.3,-8.077333 2.14667,-10.68 4.29333,-6.052 9.496,-11.721333 15.932,-15.527999 7.31733,-4.330667 14.312,-3.189334 22.17467,-1.668 2.79866,0.542666 4.62,0.564 7.06133,2.194666 3.37067,2.252 6.668,4.728 10.324,6.528 4.76267,2.345333 9.268,5.430667 14.79467,5.265333 4.68533,-0.141333 7.856,-2.784 5.652,-7.598666 -2.61467,4.14 -8.068,4.056 -12.168,2.502667 -5.048,-1.910667 -6.98,-5.98 -10.49334,-9.688 -1.07466,-1.133334 -2.79866,-4.157333 -4.34533,-4.736 3.89733,1.457333 8.064,1.806667 11.46,4.82 -1.99467,-1.653334 -2.712,-4.34 -5.23333,-4.82 -2.55334,-2.770667 -8.15334,-3.005333 -11.82667,-3.994667 5.14533,-0.584 12.41333,1.501334 17.24,3.033334 -5.17467,-3.148 -10.49867,-5.72 -16.88933,-5.757334 14.324,-3.961333 33.48933,1.685334 44.03733,11.912 3.74533,3.632 7.79333,6.464 12.79333,7.838667 2.27334,0.624 6.736,1.336 8.70134,0.366666 -5.21467,0.08933 -10.76934,-4.888 -14.92267,-7.105333 -0.0293,-0.145333 -0.0573,-0.290667 -0.0867,-0.436 -0.0773,-0.382667 -5.932,-3.5 -6.67733,-4.086666 -2.22667,-1.750667 -4.33867,-3.865334 -6.82667,-5.361334 -4.816,-2.897333 -11.34666,-1.877333 -15.81466,-4.925333 5.99733,-0.468 11.88533,-3.145333 17.936,-0.096 2.84,1.432 5.46533,3.86 8.47866,5.652 3.41467,2.030667 6.09867,4.669333 8.18,8.001333 1.52267,2.438667 3.31467,3.896 5.91334,4.753333 1.908,0.629334 5.29866,1.461334 7.43866,1.002667 1.72134,-0.370667 4.38667,-2.729333 3.91333,-4.624 -1.85999,1.984 -6.49599,2.706667 -9.02666,1.732 -2.232,-0.857333 -3.82667,-4.925333 -5.84133,-5.274666 -1.87067,-2.918667 -5.29467,-4.784 -7.52934,-7.681334 2.94134,0.882667 5.31467,2.232 7.892,3.598667 1.86667,0.989333 3.56934,3.077333 5.576,3.584 -0.1,-2.192 -2.216,-4.002667 -3.27466,-5.938667 1.74,1.574667 3.93466,3.558667 5.88266,4.624 -0.22933,-2.253333 -2.58533,-5.214666 -3.688,-7.457333 -1.17733,-2.397333 -2.85066,-4.466666 -3.836,-6.813333 2.25734,0.698667 4.71467,2.558667 6.62667,3.652 1.24533,0.713333 2.53467,1.689333 3.62667,2.725333 2.61199,2.476 4.76133,5.445333 7.20933,7.845333"
       style="opacity:0.199997;fill:#000000;fill-opacity:1;fill-rule:nonzero;stroke:none;stroke-width:1.33333"
       id="path41109" />
    <path
       d="m 341.55399,64.780408 c -0.20933,-0.256 -0.452,-0.286666 -0.692,-0.198666 -0.23467,-1.498667 -0.54667,-2.892 -0.76667,-2.712 -1.03066,0.841333 -0.996,3.201333 -1.96666,4.529333 -2.824,3.864 -7.75333,8.762666 -12.98667,7.872 -3.49733,-0.594667 -7.94266,-1.7 -11.73466,-3.046667 -4.98,-1.768 -8.24934,-5.886666 -13.79734,-6.757333 1.40534,2.512 2.744,4.72 5.032,6.408 1.73867,1.282667 3.57867,2.812 5.62267,3.772 1.99067,0.936 3.89467,0.784 6.008,1.272 -6.844,3.717333 -15.55067,3.781333 -23.86267,2.932 -5.57866,-0.569334 -10.856,-0.628 -15.21333,-2.868 -3.36667,-1.732 -5.668,-4.041333 -8.748,-5.742667 -3.31467,-1.833333 -6.828,-1.981333 -10.556,-3.072 -2.79333,-0.817333 -9.28667,-2.257333 -11.50533,0.257334 2.07066,0.645333 4.33866,1.178666 6.45733,1.694666 -2.136,0.722667 -4.116,1.274667 -5.96,2.870667 -3.20667,2.777333 -4.63733,7.821333 -6.44667,11.424 -2.10133,4.185333 -2.648,10.206666 -5.68533,13.895999 0.98533,-1.069333 1.89467,-2.06 2.81333,-3.204 2.63467,-3.281333 2.25067,-8.366666 4.62934,-11.851999 1.672,-2.446667 3.05733,-3.942667 5.56266,-5.405334 1.152,-0.672 4.76667,-1.970666 5.21067,-3.013333 8.58267,-1.714666 16.54133,3.201333 24.412,6.153333 0.82533,0.309334 2.164,0.594667 3.87867,0.848 0.84266,0.386667 1.73333,0.722667 2.77866,0.918667 2.15867,0.401333 3.93467,0.801333 6.04534,1.341333 4.43466,1.137334 10.10266,1.669334 14.75466,1.238667 2.71467,-0.252 4.64534,-1.928 7.056,-2.637333 1.14134,-0.06133 2.27334,-0.132 3.38534,-0.216 2.11466,0.276 4.18666,0.921333 6.36133,0.829333 2.08533,-0.088 4.064,-1.033333 6.06267,-1.645333 2.672,-0.818667 5.456,-1.485334 7.51866,-3.498667 0.904,-0.882667 1.756,-1.846667 2.52533,-2.874667 0.22134,-0.244 0.45067,-0.478666 0.656,-0.738666 1.28134,-1.628 2.29867,-3.632 2.76534,-5.66 0.0227,-0.101333 0.0213,-0.333333 0.004,-0.636 0.308,-1.046667 0.59066,-2.221333 0.38133,-2.478667"
       style="opacity:0.199997;fill:#000000;fill-opacity:1;fill-rule:nonzero;stroke:none;stroke-width:1.33333"
       id="path41125" />
    <path
       d="m 234.75306,97.311608 c -0.25733,0.28 -0.516,0.56 -0.78667,0.856 0.28267,-0.266667 0.54,-0.556 0.78667,-0.856"
       style="opacity:0.199997;fill:#000000;fill-opacity:1;fill-rule:nonzero;stroke:none;stroke-width:1.33333"
       id="path41141" />
    <path
       d="m 157.55546,148.56881 c 3.41867,1.16533 7.16934,0.54533 10.648,-0.33734 l -16.01866,-4.09733 c 1.66,1.65867 3.24666,3.71067 5.37066,4.43467"
       style="fill:#383838;fill-opacity:1;fill-rule:nonzero;stroke:none;stroke-width:1.33333"
       id="path41151" />
    <path
       d="m 223.68346,53.886809 c -6.04667,4.569333 -11.61467,9.631999 -15.07333,16.162666 -3.88934,7.341333 -4.25334,15.905333 -7.76267,23.375999 -3.72533,7.931996 -5.832,15.533336 -11.88266,22.258666 -5.93467,6.596 -14.636,12.824 -23.61067,14.164 9.584,-2.19333 23.98133,-12.36133 25.132,-22.94933 -0.152,1.39466 -15.724,1.87733 -17.38133,1.56933 6.096,-0.18533 12.076,-2.912 16.21333,-7.392 4.13733,-4.481332 6.38,-10.657332 6.08,-16.749332 -3.128,5.930666 -8.54533,10.614666 -14.86533,12.852 5.532,-8.218667 10.36666,-16.906667 14.43733,-25.938666 -4.96533,3.173333 -9.93067,6.346666 -14.89467,9.519999 9.73467,-11.910666 24.184,-19.574666 31.71733,-34.061332 -4.54666,10.174666 -9.092,19.626666 -13.63733,29.047999 7.50267,-15.329333 19.924,-28.982666 34.97467,-37.673332 -9.012,2.392 -18.024,4.782666 -27.036,7.174666 10.31333,-9.954666 24.668,-14.837333 38.40133,-13.062666 -2.19733,-0.702667 -4.396,-1.406667 -6.59333,-2.109333 8.72266,-2.52 18.17733,-1.989334 26.612,1.492 -1.608,-1.281334 -3.216,-2.562667 -4.824,-3.845334 12.37466,2.198667 24.524,5.869333 36.156,10.926667 -4.248,-1.844 -10.62,-0.492 -15.272,-1.417334 -6.028,-1.198666 -12.22267,-1.221333 -18.28934,-0.354666 -12.124,1.732 -23.728,6.924 -34.092,13.819999 -1.516,1.008 -3.02666,2.069334 -4.50933,3.189334"
       style="opacity:0.199997;fill:#000000;fill-opacity:1;fill-rule:nonzero;stroke:none;stroke-width:1.33333"
       id="path41161" />
    <path
       d="m 304.35639,41.276409 c -0.06,-0.02533 -0.12133,-0.05067 -0.18266,-0.076 -2.356,-0.952 -4.87467,-1.430667 -7.36,-1.908 -18.368,-3.525333 -36.136,-2.913333 -53.46934,4.754667 -7.51866,3.325333 -14.61866,7.789333 -20.504,13.562666 -3.00533,2.948 -5.38533,6.214666 -7.76933,9.661333 -2.432,3.517333 -5.16267,6.789333 -6.244,11.053333 -1.304,5.144 -2.94533,10.58 -5.11867,15.486666 -0.43333,0.981334 -0.848,1.994667 -1.256,2.918667 1.028,-0.541333 2.07334,-2.510667 2.832,-3.492 1.06134,-1.374667 1.70534,-2.850667 2.55067,-4.370667 1.35867,-2.443999 2.19067,-4.994666 3.368,-7.441333 -2.25733,4.381334 -2.52267,9.422667 -3.85333,14.010667 -1.232,4.252 -4.12534,7.217332 -6.81067,10.682662 -1.06,1.368 -2.61866,2.34534 -3.58,3.67867 1.788,-0.268 3.23733,-1.21733 4.79333,-1.95867 -1.50666,4.012 -7.06933,5.49467 -9.37066,8.768 3.71467,0.25867 9.432,-5.15733 11.87466,-7.47466 2.236,-2.12 4.304,-4.44934 5.58934,-7.06934 -1.55867,0.684 -3.79067,1.45467 -5.19734,2.44667 0.15734,-1.488 1.79867,-3.06667 2.4,-4.45867 0.74267,-1.718662 1.81334,-3.334662 2.28667,-5.171996 1.41867,-5.504 2.972,-11.231999 4.04267,-16.822666 1.26933,-6.62 4.932,-11.201333 10.384,-15.101333 1.42266,-1.018667 2.928,-1.754667 4.35733,-2.734667 1.172,-0.803999 2.56533,-2.259999 3.61867,-2.665333 -1.06934,0.05333 -2.984,0.465334 -3.95734,0.862667 4.63334,-5.2 13.53334,-3.961333 19.63467,-3.997333 2.40533,-0.01333 4.868,0.946666 7.252,1.521333 1.69467,0.408 4.39067,1.346667 5.412,2.769333 -4.076,-6.430666 -15.66533,-7.432 -22.42,-7.962666 2.84,-2.092 8.22267,-2.396 11.63067,-1.450667 1.56933,0.434667 2.90533,1.248 4.32266,1.884 1.32134,0.593333 3.41067,0.438667 4.41467,1.392 -1.08133,-3.309333 -7.24933,-4.973333 -9.70133,-7.046666 2.16266,1.563999 5.56666,2.131999 8.16133,2.263999 3.324,0.169334 6.12267,-1.349333 9.26933,-1.931999 4.68,-0.868 9.62,0.237333 14.03867,1.970666 -3.37333,-1.105333 -6.54533,-2.662666 -9.89867,-3.812 -3.35066,-1.148 -7.292,-2.866666 -10.752,-3.148 5.21867,-0.964 10.44667,-0.164 15.65067,0.01067 6.068,0.204 11.78933,2.785333 17.86533,2.969333 -0.948,-1.410666 -3.95733,-1.709333 -4.55466,-3.457333 2.116,-0.296 4.54133,0.94 6.58133,1.422667 5.128,1.213333 9.41067,2.524 14.11333,4.874666 1.75734,0.878667 3.31734,1.409333 5.176,1.922667 2.87867,0.796 4.86534,2.842666 7.15734,4.633333 -0.14134,-1.413333 -2.64267,-4.326667 -3.70667,-5.44 -1.10667,-1.156 -2.66267,-2.106666 -3.52667,-3.613333 0.076,0.133333 2.56267,0.353333 3.004,0.486667 1.21734,0.368 2.47334,0.856 3.412,1.745333 -0.45866,-2.528 -0.91333,-4.808 -3.09466,-6.253333 -0.24667,-1.246667 -1.772,-2.784 -2.524,-3.714667 3.53066,3.122667 8.16266,4.108 11.60266,7.157333 -1.144,-1.014666 -1.852,-2.822666 -2.94266,-3.973333 -1.28934,-1.361333 -2.78934,-2.376 -4.36134,-3.374667 -4.55333,-2.893333 -9.06133,-4.230666 -14.18,-5.650666 -0.21866,1.886667 3.60534,2.574667 4.72934,3.525333 0.94666,0.801333 1.288,2.209333 2.19066,3.064 -2.98133,-0.769333 -5.26133,-2.144 -7.88533,-3.576 -0.08,0.961333 0.37067,1.897333 0.97333,2.650667 0.60267,0.753333 1.356,1.369333 2.02534,2.064 0.89066,0.925333 1.63333,1.997333 2.184,3.158666 0.224,0.469334 0.74,2.813334 1.184,2.982667 -2.124,-0.809333 -3.78667,-2.321333 -5.86134,-3.208"
       style="opacity:0.100006;fill:#ffffff;fill-opacity:1;fill-rule:nonzero;stroke:none;stroke-width:1.33333"
       id="path41177" />
    <path
       d="m 174.0248,129.91494 c 4.78666,-1.876 9.76,-4.52667 13.352,-8.41467 -0.67867,0.73467 -1.12267,2.01867 -1.83067,2.85734 -2.22533,2.632 -4.49733,4.88666 -7.18267,7.028 0.15867,-0.12534 5.952,1.02133 6.51334,1.056 3.556,0.22666 11.512,1.53066 14.19066,-1.68667 -2.788,3.348 -9.61066,4.54667 -13.752,4.86 -2.05466,0.15467 -4.10533,0.30667 -6.10666,0.34933 -1.95867,0.0413 -3.58534,-1.63466 -5.55067,-0.84266 -1.34,2.59866 3.07733,4.28533 4.67467,5.06133 2.80933,1.368 5.81733,1.384 8.54933,2.368 -3.99733,-0.0267 -7.39867,-0.24267 -11.16,-1.18133 -1.364,-0.34134 -3.10133,-0.82 -4.268,-1.50267 -1.17867,-0.68933 -2.15067,-2.09067 -3.54667,-2.48667 -1.052,-0.29733 -0.92533,2.868 -0.85466,3.39734 1.14933,8.59333 11.204,9.86 17.856,11.39733 -1.48534,-0.34267 -3.24667,0.556 -4.76,0.64133 -4.33867,0.24934 -8.20934,-1.984 -11.65067,-4.38133 -3.97333,-2.768 -5.18667,-5.45733 -6.51867,-10.044 -0.21866,-0.756 -0.55066,-1.88933 -0.38266,-2.68933 0.32666,-1.552 0.35333,-0.90134 1.83066,-0.61067 1.80267,0.35733 4.11867,0.45333 5.78,-0.38267 -0.6,-0.82133 -1.16933,-1.71066 -1.84933,-2.40666 2.24933,-0.77067 4.488,-1.53334 6.66667,-2.38667"
       style="opacity:0.199997;fill:#000000;fill-opacity:1;fill-rule:nonzero;stroke:none;stroke-width:1.33333"
       id="path41193" />
    <path
       d="m 218.52013,25.768276 c -1.82267,0.768 -3.53067,1.481333 -5.45334,1.952 -1.22266,0.3 -1.88666,0.897333 -3.008,1.424 -4.948,2.326667 -8.38,6.92 -12.62933,10.441333 -5.56666,4.616 -10.49066,10.677333 -14.60133,16.364 -7.9,10.931999 -12.70933,24.102666 -14.25733,37.302665 -0.45867,3.909334 -0.0147,7.750666 -1.032,11.629336 -0.32267,1.22933 -3.24,9.56 -4.87067,9.216 1.72267,0.364 3.51067,0.72533 5.16267,1.17466 -1.40934,4.73467 -6.25867,4.76134 -8.844,7.808 -1.21734,1.432 -1.89734,3.09867 -2.52134,4.85067 -0.54666,1.536 -0.6,2.708 -0.72933,4.40533 -0.26267,-0.58133 -1.29467,-1.6 -1.99867,-1.63333 -0.80933,1.44 -0.664,2.94267 -0.664,4.63467 0,1.74266 0.008,3.54666 -0.072,5.24533 -0.0493,1.06 0.0827,1.92533 0.36,2.868 -0.16133,-0.54933 -1.86533,-1.16267 -2.31733,-1.50267 -0.57733,-0.432 -1.11867,-0.97066 -1.67467,-1.45466 -0.52533,0.48133 -0.34933,1.18933 -0.50933,1.82266 -0.86667,3.42534 -0.22,6.48134 0.916,9.79867 0.55733,0.344 0.81467,1.21067 1.22667,1.76933 1.74533,2.36934 2.82,5.228 4.41333,7.772 0.27333,0.43467 0.55467,0.86267 0.84533,1.284 2.9,4.204 6.66667,7.66267 11.104,9.996 0.444,0.23334 0.89467,0.456 1.352,0.66667 0.91334,0.42 1.85334,0.79467 2.81734,1.12 0.48266,0.16267 0.97066,0.31333 1.464,0.45067 0.49466,0.13733 0.99466,0.26133 1.50666,0.37333 17.524,3.85733 37.29067,-9.252 52.24933,-26.36667 0.79467,-0.49866 1.57334,-0.99733 2.29867,-1.50266 -0.19867,2.04533 -4.05067,2.74533 -4.67867,4.64266 -0.364,1.1 -0.72666,2.05734 -1.54666,2.972 1.72133,-1.92266 4.25866,-2.392 5.90133,-4.648 1.77867,-2.44266 5.808,-3.27466 7.21467,-5.94933 2.83333,-5.38933 4.67066,-11.204 5.19733,-17.284 0.48667,-5.60667 2.18933,-10.848 3.108,-16.38267 0.91467,-5.50533 1.54667,-11.050662 2.29867,-16.579996 0.54133,-3.981333 -0.79067,-14.873333 2.60533,-18.925333 0.17333,-0.196 0.35067,-0.381333 0.54,-0.541333 0.0453,-0.03733 0.0907,-0.07467 0.136,-0.110667 0.23867,-0.186666 0.48933,-0.348 0.75467,-0.477333 0.0307,-0.01467 0.0627,-0.02667 0.0933,-0.04 0.284,-0.129333 0.58,-0.232 0.896,-0.292 0.736,-0.142667 1.46133,-0.245333 2.17867,-0.313333 0.0453,-0.004 0.0893,-0.004 0.13466,-0.008 7.512,-0.668 14.10134,2.5 20.89467,5.16 12.224,5.432 24.93333,4.690666 38,4.645333 8.26533,-0.02933 15.73733,-1.581333 22.03466,-7.362667 -1.79466,1.646667 -5.99199,1.582667 -8.26666,1.84 -3.63733,0.410667 -7.3,0.66 -10.96133,0.552 -1.56267,-0.04667 -23.29467,-3.074666 -23.188,-4.636 -0.0813,1.188 1.368,3.484 2.212,4.362667 0.0667,0.06267 0.0707,0.06 0.009,-0.008 -1.988,-0.26 -3.76933,-1.316 -5.82533,-1.64 -8,-1.261333 -14.88,-5.309333 -22.2,-8.462666 -7.55867,-3.257334 -15.88934,-4.72 -24.10534,-4.193334 -5.868,0.376 -9.77466,2.462667 -14.58933,5.557334 -3.70667,2.382666 -7.19733,5.105333 -10.408,8.125333 0.0333,-2.298667 0.74933,-4.584 2.03333,-6.490667 -4.976,3.825333 -5.87466,11.889333 -11.58666,14.489333 0.61333,-5.166666 1.66666,-10.282666 3.14533,-15.271999 -4.116,3.166666 -7.144,7.503999 -10.104,11.769333 0.61067,-0.88 0.708,-2.804 1.068,-3.858667 0.47067,-1.38 1.03067,-2.728 1.67333,-4.036 1.27867,-2.602666 2.908,-4.949333 4.724,-7.198666 -1.17333,1.452 -3.49333,1.442666 -5.12666,2.009333 -1.92534,0.669333 -3.66533,1.826667 -4.988,3.382667 -0.492,-2.106667 0.52267,-4.256 1.66,-6.096 2.396,-3.874667 5.448,-7.282667 8.6,-10.552 2.43066,-2.521333 6.07466,-7.146667 9.45066,-8.277333 -3.98133,1.333333 -7.672,3.528 -10.74533,6.390666 1.90133,-1.770666 2.46267,-4.474666 4.076,-6.473333 1.24933,-1.546666 2.78133,-2.866666 4.49867,-3.872 0.58533,-0.342666 4.26266,-2.512 4.82533,-2.161333 -1.71867,-1.073333 -3.99333,-1.193333 -5.81467,-0.305333 2.69734,-1.256 5.31067,-2.689334 7.81867,-4.289334 -2.01467,-1.053333 -4.45733,-0.206666 -6.564,0.650667 2.368,-1.558667 4.87733,-2.904 7.488,-4.010667 2.23067,-0.946666 4.64133,-1.794666 6.204,-3.647999 -0.66133,-0.348 -1.32133,-0.696 -1.98267,-1.044 1.84667,-1.668 4.372,-2.266667 6.516,-3.442667 2.51467,-1.381333 4.99867,-2.82 7.484,-4.254667 1.06667,-0.614666 2.69334,-1.705333 3.3,-2.303999 -2.54933,-0.353334 -4.5,1.283999 -6.85866,1.798666 -3.29467,0.721333 -6.636,1.178667 -9.89334,2.073333 -3.14133,0.862667 -6.87733,1.848 -9.87466,3.110667"
       style="opacity:0.199997;fill:#000000;fill-opacity:1;fill-rule:nonzero;stroke:none;stroke-width:1.33333"
       id="path41209" />
    <path
       d="m 210.30826,163.18521 c -2.31867,1.02133 -4.176,2.80533 -6.31067,4.14666 -2.40933,1.51467 -4.93866,2.83867 -7.55466,3.96 -9.796,4.19467 -20.884,5.60934 -31.004,1.67467 1.73733,1.68 3.82667,2.99333 6.09067,3.83467 3.58933,1.332 7.52133,1.456 11.336,1.12933 9.82533,-0.84267 19.44799,-4.592 27.31999,-10.52133 6.78134,-5.10934 12.32267,-11.81734 19.536,-16.296 2.94667,-1.83067 6.23734,-3.348 8.34667,-6.10267 1.71333,-2.23733 2.452,-5.05333 3.10533,-7.796 4.41467,-18.532 6.72667,-37.565332 6.87467,-56.615999 0.0133,-1.553333 0.0667,-3.258666 1.104,-4.414666 1.12133,-1.246667 2.99733,-1.410667 4.67333,-1.368 14.02267,0.361333 26.568,9.024 40.46,10.96 8.528,1.187999 17.17867,-0.210667 25.67467,-1.605334 5.092,-0.834666 10.34267,-1.730666 14.68933,-4.510666 8.90933,-5.698667 11.47333,-18.613333 7.01467,-28.202666 -0.64134,0.916 -1.28134,1.832 -1.92267,2.746666 -7.86133,-14.718666 -20.264,-26.970666 -35.07866,-34.651999 -2.088,-1.082666 -5.864,-0.984 -5.488,1.338667 -5.244,-5.221333 -13.34134,-5.941333 -20.72934,-6.36 -9.42,-0.533333 -18.84133,-1.068 -28.26133,-1.601333 -1.512,-0.08533 -3.15333,-0.136 -4.388,0.74 -1.236,0.874666 -1.57467,3.06 -0.25067,3.796 -19.348,1.456 -38.11333,9.725333 -52.24399,23.019999 -14.13067,13.294666 -23.52667,31.522666 -26.15867,50.745332 -1.16133,8.478667 -1.24933,17.685329 -6.364,24.546669 0.94667,-0.78 1.89333,-1.56 2.83867,-2.34 -0.35734,0.95866 -0.71467,1.91866 -1.072,2.87733 1.22666,0.0453 2.45333,0.0907 3.68,0.136 -5.4,2.228 -9.67867,7.01067 -11.296,12.624 -0.828,-0.444 -1.656,-0.88933 -2.48534,-1.33333 -1.168,4.176 -1.52666,8.57733 -1.052,12.88933 -0.984,-0.508 -1.96666,-1.01467 -2.94933,-1.52267 -2.16,8.732 2.37733,18.66 10.392,22.74267 -5.256,-3.72933 -8.98,-9.55467 -10.156,-15.892 1.23733,1.47067 2.47467,2.94 3.712,4.41067 -0.37867,-1.07734 -0.44267,-2.26134 -0.18267,-3.37334 l 5.736,4.61867 c -3.91066,-5.908 -5.42666,-13.35333 -4.14133,-20.32133 0.70533,1.57333 2.36267,2.672 4.08667,2.70666 -1.98934,-3.70266 1.02533,-8.13066 4.30666,-10.75866 3.28,-2.62934 7.316,-5.12134 8.14934,-9.24267 -0.9,-0.35867 -1.8,-0.71733 -2.7,-1.076 0.61866,-18.071999 4.352,-36.351999 13.41333,-51.999998 9.06133,-15.649333 23.88533,-28.447999 41.48666,-32.593333 l -3.31466,-0.318666 c 13.256,-4.864 27.376,-7.364 41.496,-7.349334 -2.43734,-1.035999 -4.87467,-2.070666 -7.31334,-3.106666 16.77467,-0.05333 34.148,0.01467 49.432,6.929333 0.73467,0.332 1.612,0.676 2.30667,0.266667 0.69467,-0.410667 0.36533,-1.854667 -0.392,-1.58 15.75867,8.710666 28.17467,23.302666 34.252,40.251999 0.57466,-1.464 1.14933,-2.926667 1.724,-4.389333 1.80933,5.155999 0.0147,11.365333 -4.26534,14.761332 -4.28133,3.396 -10.73599,3.732 -15.34533,0.798667 1.992,2.144 4.82,3.492 7.74,3.688 -11.008,3.590667 -23.136,3.662667 -34.18666,0.2 2.352,2.314667 5.48133,3.825333 8.756,4.229333 -12.27334,0.38 -23.39334,-6.52 -34.34,-12.085333 -10.94667,-5.565333 -24.13067,-9.970666 -35.208,-4.669333 14.40133,-2.624 29.908,1.701333 40.87333,11.398666 -8.42667,-3.658666 -17.31467,-7.211999 -26.48,-6.577333 -9.16533,0.636 -18.61467,6.764 -19.96133,15.852 3.04533,-6.934667 9.86,-12.070667 17.364,-13.090667 -5.628,8.062667 -9.35067,17.276 -14.148,25.858667 -4.79734,8.582662 -11.04267,16.854662 -19.88134,21.164002 15.648,-5.94934 24.59067,-22.054669 32.22934,-36.950669 0.396,9.918667 0.0613,20.101329 -3.532,29.354669 -3.59334,9.25333 -10.96267,17.516 -20.592,19.92933 8.09333,-2.21733 15.57333,-6.63467 21.42266,-12.65067 -0.85333,5.02534 -3.32533,9.76267 -6.96133,13.336 1.664,-1.216 3.32667,-2.43066 4.99067,-3.64666 -1.85067,7.97333 -7.736,14.55733 -14.67067,18.90666 -6.93333,4.348 -14.896,6.73467 -22.808,8.83467 -7.816,2.07467 -15.74133,3.92533 -23.812,4.432 13.71067,0.52933 27.528,-1.84267 40.27867,-6.91467 -4.50134,4.86534 -10.86934,7.95867 -17.476,8.49067 3.11333,1.00133 6.592,0.82133 9.58533,-0.49733"
       style="fill:#000000;fill-opacity:1;fill-rule:nonzero;stroke:none;stroke-width:1.33333"
       id="path41219" />
  </g>
</svg>
