<?xml version="1.0" encoding="UTF-8" standalone="no"?>
<!-- Created with Inkscape (http://www.inkscape.org/) -->

<svg
   version="1.1"
   id="svg144702"
   width="400"
   height="400"
   viewBox="0 0 400 400"
   sodipodi:docname="klingonHair1.svg"
   inkscape:version="1.2.2 (b0a8486, 2022-12-01)"
   xmlns:inkscape="http://www.inkscape.org/namespaces/inkscape"
   xmlns:sodipodi="http://sodipodi.sourceforge.net/DTD/sodipodi-0.dtd"
   xmlns="http://www.w3.org/2000/svg"
   xmlns:svg="http://www.w3.org/2000/svg">
  <defs
     id="defs144706" />
  <sodipodi:namedview
     id="namedview144704"
     pagecolor="#ffffff"
     bordercolor="#666666"
     borderopacity="1.0"
     inkscape:showpageshadow="2"
     inkscape:pageopacity="0.0"
     inkscape:pagecheckerboard="0"
     inkscape:deskcolor="#d1d1d1"
     showgrid="false"
     inkscape:zoom="2.13"
     inkscape:cx="113.38028"
     inkscape:cy="200"
     inkscape:window-width="1880"
     inkscape:window-height="1072"
     inkscape:window-x="2266"
     inkscape:window-y="46"
     inkscape:window-maximized="0"
     inkscape:current-layer="layer8">
    <inkscape:page
       x="0"
       y="0"
       id="page144708"
       width="400"
       height="400" />
  </sodipodi:namedview>
  <g
     id="g144710"
     inkscape:groupmode="layer"
     inkscape:label="Back">
    <path
       d="m 314.57613,255.38734 c 0.0333,-0.39067 0.076,-0.78667 0.11733,-1.192 0.152,-1.46134 0.30933,-2.97467 0.13733,-4.512 l -0.30533,-2.732 -1.956,1.93066 c -0.77867,0.768 -1.37467,1.6 -1.95067,2.404 -0.93866,1.312 -1.74933,2.444 -3.12133,2.95867 -1.17333,0.44 -2.63333,0.65467 -4.46267,0.65467 -1.85466,0 -3.792,-0.22267 -5.5,-0.42 l -0.56933,-0.064 c -2.84933,-0.32267 -6.488,-1.69867 -9.736,-3.68134 -4.17333,-2.54666 -9.884,-6.53866 -11.29067,-11.764 -0.264,-0.98266 -0.396,-1.91333 -0.53466,-2.89866 -0.20534,-1.46134 -0.41867,-2.97067 -1.08534,-4.628 -1.16266,-2.892 -2.132,-5.66134 -2.96,-8.46267 -2.91066,-9.83467 -3.204,-18.604 -0.98133,-29.324 2.53733,-12.23866 6.57333,-24.18666 10.476,-35.74 4.6,-13.61733 9.356,-27.7 11.73333,-42.43333 0.50134,-3.10267 1.18267,-6.27067 1.84134,-9.33333 1.06533,-4.95867 2.168,-10.088002 2.56533,-15.185336 0.93467,-11.983999 3.55333,-25.178666 15.88133,-32.171999 1.46,-0.828 2.984,-1.248 4.532,-1.248 8.25867,0 16.308,11.858667 18.95333,15.756 0.632,0.930666 1.256,1.809333 1.864,2.664 l 0.97734,1.381333 c 6.728,9.612 9.91866,22.312 12.61066,34.497332 2.73867,12.39467 4.46267,25.26267 6.13067,37.70933 0.64133,4.792 1.284,9.58 1.98133,14.34667 0.128,0.87733 0.28934,1.80667 0.456,2.76267 0.0853,0.49466 0.17334,1.00133 0.25867,1.51333 -0.34533,-0.43467 -0.664,-0.84933 -0.85867,-1.288 l -2.54666,0.66533 c 0.28666,3.02667 0.74266,6.14134 1.18133,9.152 0.984,6.73734 2.00133,13.704 1.26533,20.364 -0.47733,4.316 -1.47866,10.62133 -3.54133,16.14533 -0.47733,1.27734 -1.15733,2.44267 -1.87867,3.676 -0.376,0.64134 -0.74933,1.28134 -1.09333,1.93334 l -0.0947,0.18133 -0.0373,0.204 c -1.21467,6.76667 -4.032,13.656 -7.94933,19.60267 l -1.70267,-0.708 c -1.89067,3.36666 -4.19733,6.152 -6.64,9.10266 -0.10133,0.12267 -0.20267,0.244 -0.30533,0.368 0.36266,-0.92666 0.784,-1.85866 1.21466,-2.81066 0.81067,-1.79067 1.64667,-3.64267 2.08134,-5.536 l -2.40667,-1.04134 c -0.95067,1.41734 -1.788,2.97467 -2.59733,4.48 -1.12667,2.09734 -2.192,4.07734 -3.52667,5.69334 -1.556,1.884 -3.648,3.45066 -5.69333,4.96 0.0333,-0.0933 0.0667,-0.18534 0.0987,-0.28 0.43866,-1.24 0.892,-2.52267 1.148,-3.89467 l -2.49734,-0.852 c -1.81066,3.53733 -4.61066,4.796 -7.852,6.25467 -0.60266,0.27066 -1.21333,0.54533 -1.83066,0.84"
       style="fill:#383838;fill-opacity:1;fill-rule:nonzero;stroke:none;stroke-width:1.33333"
       id="path145862" />
    <path
       d="m 314.57613,255.38734 c 0.0333,-0.39067 0.076,-0.78667 0.11733,-1.192 0.152,-1.46134 0.30933,-2.97467 0.13733,-4.512 l -0.30533,-2.732 -1.956,1.93066 c -0.77867,0.768 -1.37467,1.6 -1.95067,2.404 -0.93866,1.312 -1.74933,2.444 -3.12133,2.95867 -1.17333,0.44 -2.63333,0.65467 -4.46267,0.65467 -1.85466,0 -3.792,-0.22267 -5.5,-0.42 l -0.56933,-0.064 c -2.84933,-0.32267 -6.488,-1.69867 -9.736,-3.68134 -4.17333,-2.54666 -9.884,-6.53866 -11.29067,-11.764 -0.264,-0.98266 -0.396,-1.91333 -0.53466,-2.89866 -0.20534,-1.46134 -0.41867,-2.97067 -1.08534,-4.628 -1.16266,-2.892 -2.132,-5.66134 -2.96,-8.46267 -2.91066,-9.83467 -3.204,-18.604 -0.98133,-29.324 2.53733,-12.23866 6.57333,-24.18666 10.476,-35.74 4.6,-13.61733 9.356,-27.7 11.73333,-42.43333 0.50134,-3.10267 1.18267,-6.27067 1.84134,-9.33333 1.06533,-4.95867 2.168,-10.088002 2.56533,-15.185336 0.93467,-11.983999 3.55333,-25.178666 15.88133,-32.171999 1.46,-0.828 2.984,-1.248 4.532,-1.248 8.25867,0 16.308,11.858667 18.95333,15.756 0.632,0.930666 1.256,1.809333 1.864,2.664 l 0.97734,1.381333 c 6.728,9.612 9.91866,22.312 12.61066,34.497332 1.90934,8.63867 -0.92133,17.55467 -1.372,26.24133 -1.38133,-3.65333 -3.26933,-3.87333 -5.29466,-6.612 1.09733,4.97734 2.54,9.82267 3.35066,15.016 1.28534,8.23467 1.44,16.64267 3.43334,24.53734 1.388,5.50266 0.716,12.79066 -0.50534,18.356 -2.24666,-3.524 -2.58266,-8.43467 -4.504,-12.292 -0.0867,5.89333 0.98534,11.98666 1.50667,17.85733 0.78133,8.79733 1.75333,19.56933 -1.27067,27.89333 0.488,-4.17867 -1.688,-8.784 -2.33866,-12.824 -0.792,-4.91467 -1.96534,-10.07733 -2.12,-15.06266 -0.0347,17.57333 -7.41067,34.50533 -14.244,50.82133 0.71467,-3.26267 1.72533,-9.86134 0.10267,-12.7 -1.108,4.40533 -4.04267,8.06266 -5.56934,12.30266 -0.60533,1.67734 -0.29866,4.54267 -1.05866,5.92534 -0.86534,1.57333 -3.98934,2.55466 -5.52134,3.244 -0.60266,0.27066 -1.21333,0.54533 -1.83066,0.84"
       style="opacity:0.199997;fill:#000000;fill-opacity:1;fill-rule:nonzero;stroke:none;stroke-width:1.33333"
       id="path145872" />
    <path
       d="m 310.06533,252.04827 c -0.732,0.97733 -1.47067,1.784 -2.568,2.196 -1.17334,0.44 -2.63334,0.65467 -4.46267,0.65467 -1.85467,0 -3.79067,-0.22267 -5.5,-0.41867 l -0.56933,-0.0653 c -2.84934,-0.32267 -6.488,-1.69867 -9.736,-3.68134 -4.17334,-2.54666 -9.884,-6.53733 -11.29067,-11.764 -0.264,-0.98133 -0.396,-1.91333 -0.53467,-2.89866 -0.20533,-1.46 -0.41866,-2.97067 -1.08533,-4.628 -1.16267,-2.892 -2.13067,-5.66 -2.96,-8.46267 -2.91067,-9.83333 -3.204,-18.60267 -0.98133,-29.324 1.08933,-5.25466 2.45466,-10.448 3.968,-15.596 0.96,-3.264 1.012,-8.11733 2.90933,-10.884 3.996,-5.82666 13.10133,-7.07333 19.28933,-9.15066 5.176,-1.73734 11.32,-1.95334 16.77734,-1.948 5.36666,0.004 13.85733,-0.76134 17.80933,3.616 5.51733,6.112 2.78,20.91466 1.528,27.96933 -2.48,13.984 -4.31467,28.07333 -8.74533,41.604 -1.492,4.55466 -3.232,8.704 -5.88134,12.704 -2.27333,3.43466 -5.09066,6.07466 -7.41333,9.316 -0.188,0.26133 -0.37067,0.51733 -0.55333,0.76133"
       style="opacity:0.199997;fill:#000000;fill-opacity:1;fill-rule:nonzero;stroke:none;stroke-width:1.33333"
       id="path145888" />
    <path
       d="m 306.56053,251.74734 c 0.584,-0.21867 1.07466,-0.87467 1.89066,-2.01334 0.61067,-0.85333 1.304,-1.82133 2.24534,-2.74933 l 5.868,-5.792 0.916,8.19333 c 0.064,0.56667 0.0907,1.124 0.092,1.668 -10e-4,-0.71066 3.78133,-3.31066 4.416,-3.96133 2.292,0.90533 3.14533,2.33733 4.45733,4.27733 3.91067,-4.16533 6.252,-10.12133 8.52,-15.31333 2.404,-5.50267 4.06133,-12.124 4.81866,-18.068 0.31867,-2.49467 0.328,-5.07867 0.65734,-7.59467 0.20666,-1.576 2.22,-6.41733 1.82533,-7.65333 1.808,5.668 1.67467,12.07467 1.67467,18.07867 0,5.468 -1.252,10.03466 -1.95467,15.44533 1.63867,-3.28 2.81333,-6.75333 4.43867,-10.04667 0.51466,1.868 0.44133,3.96934 0.74933,5.78934 -0.23067,-1.36267 1.70933,-4.47467 2.084,-5.904 0.48933,-1.86667 0.48667,-3.75867 0.92,-5.61067 0.98933,-4.21867 1.04533,-8.10267 0.976,-12.50267 1.17467,1.696 1.76133,3.712 2.31067,5.624 2.53866,-4.50933 3.00533,-11.78133 3.564,-16.83866 0.69866,-6.32 -0.29334,-13.11467 -1.25334,-19.684 -0.62533,-4.28533 -2.42533,-8.256 -3.05866,-12.54267 -0.38,-2.57466 -0.66,-5.41466 -1.176,-7.97333 -0.67867,-3.36667 -1.25734,-6.752 -1.93734,-10.11733 -0.228,-1.132 -0.81466,-2.488 -0.89066,-3.61334 -0.076,-1.11066 1.09333,-3.29866 0.772,-4.18133 2.196,6.016 4.35466,11.908 6.67733,17.824 0.26933,-3.91733 -1.38533,-8.08933 -1.50667,-12.12133 -0.32133,-10.64 -3.15866,-21.58934 -5.448,-31.948 -2.63333,-11.92134 -5.74533,-24.333336 -12.192,-33.542669 l -0.96533,-1.365333 c -0.62,-0.872 -1.25467,-1.764 -1.89733,-2.710667 -6.56933,-9.679999 -12.204,-14.587999 -16.74667,-14.587999 -1.096,0 -2.148,0.294666 -3.216,0.9 -8.94266,5.073333 -13.292,14.063999 -14.53866,30.059999 -0.41067,5.276 -1.53334,10.493329 -2.61867,15.539999 -0.65067,3.02933 -1.324,6.16133 -1.81333,9.19733 -2.41334,14.952 -7.20667,29.14 -11.84134,42.86134 -3.87733,11.47866 -7.88666,23.348 -10.39066,35.428 -2.12667,10.25999 -1.84934,18.64133 0.928,28.02666 0.804,2.72 1.74533,5.41067 2.876,8.22267 0.78933,1.96 1.03466,3.70933 1.252,5.252 0.12666,0.90133 0.24666,1.75333 0.46933,2.576 1.29333,4.804 7.92533,8.852 10.104,10.18266 2.88933,1.76267 6.20267,3.03067 8.648,3.30667 l 0.57333,0.0653 c 1.63734,0.18934 3.49467,0.40267 5.196,0.40267 1.48267,0 2.668,-0.164 3.52534,-0.48533 M 340.29386,76.582008 c 6.96666,9.953333 10.232,23.257333 12.82133,34.973332 3.78933,17.15467 5.58933,34.796 8.128,52.15067 0.52667,3.60533 1.61733,8.07733 1.26667,11.75066 -0.73867,-1.34933 -1.05334,-3.40533 -1.808,-4.872 -0.592,-1.14933 -1.61467,-1.96933 -2.14,-3.15733 0.92266,9.73733 3.53333,19.92667 2.444,29.78667 -0.6,5.42533 -1.73867,11.43466 -3.61734,16.46533 -0.936,2.50933 -2.58266,4.588 -3.61466,6.94933 0.96,-3.26933 0.808,-7.33333 1.20266,-10.63067 0.67867,12.388 -5.044,25.76934 -12.57333,34.61734 0.4,-2.096 1.56533,-3.83067 2.14267,-5.86 -2.968,5.28533 -6.99734,9.26266 -10.51067,13.97066 -0.16,-4.92 3.37067,-9.31066 4.39867,-13.796 -2.19067,3.26267 -3.768,7.32934 -6.20267,10.27734 -2.50666,3.03466 -6.13866,5.16666 -9.07066,7.57866 0.43733,-2.79866 1.784,-5.204 2.28533,-7.88666 -2.78,5.43066 -7.64133,6.05733 -12.27067,8.72133 -0.12133,-2.596 0.61734,-5.22267 0.33067,-7.78933 -1.98267,1.956 -2.83867,4.648 -5.54,5.66133 -3.29867,1.23733 -7.73867,0.63333 -11.15067,0.24667 -3.412,-0.38667 -7.344,-2.076 -10.28,-3.868 -4.65066,-2.83867 -10.38533,-6.99067 -11.884,-12.55467 -2.43733,-9.05067 -3.59066,-13.54533 -12.616,-17.95067 -7.47866,-3.65066 -15.72,-5.10666 -23.46133,-8.01466 -11.17067,-4.19734 -22.67467,-6.99467 -34.18533,-10.19734 -9.80533,-2.72933 -17.12667,-4.27333 -19.54267,-15.35599 -6.13333,-28.14934 -7.728,-64.83467 7.984,-90.345336 7.29067,-11.837333 17.01333,-21.323999 29.592,-27.885332 14.43467,-7.529334 30.75733,-13.852 46.856,-15.397333 7.07867,-0.678667 14.18133,-0.566667 21.28,-0.548 6.144,0.016 12.23067,-2.092 18.33733,-1 12.528,2.24 21.58134,9.634666 28.568,19.929333 0.972,1.431999 1.92667,2.738666 2.83067,4.030666"
       style="fill:#000000;fill-opacity:1;fill-rule:nonzero;stroke:none;stroke-width:1.33333"
       id="path145898" />
  </g>
  <g
     inkscape:groupmode="layer"
     id="layer8"
     inkscape:label="Front">
    <path
       d="m 322.41146,51.957075 c 3.37067,2.404 6.06667,4.886667 8.24267,7.589334 2.80266,3.481333 4.81599,7.247999 6.76399,10.890666 0.24267,0.452 0.48667,0.908 0.732,1.364 -0.652,-7.046667 -2.276,-14.837333 -6.66933,-21.124 C 315.37413,27.631743 296.40346,14.353076 275.09413,11.21041 268.95946,10.305076 261.64346,9.8277431 253.93946,9.8277431 c -16.13867,0 -32.12133,2.0626669 -42.75733,5.5173329 -6.904,2.242667 -19.71733,10.292 -24.97467,15.062667 -7.772,7.055999 -12.536,15.610666 -14.156,25.429332 -0.29866,1.810667 -0.776,3.408 -1.28133,5.098667 0,0 -0.28133,0.952 -0.29333,0.989333 l 0.89866,0.550667 c -0.57333,1.548 -0.92533,3.181333 -1.29733,4.910666 -0.24,1.12 -0.48933,2.277334 -0.804,3.409334 -0.74133,2.662666 -1.436,5.446666 -2.108,8.137333 -0.79733,3.194666 -1.62267,6.498666 -2.54533,9.691999 -1.05467,3.652 -2.844,7.181334 -4.57334,10.593334 -1.184,2.336002 -2.40933,4.752002 -3.39866,7.201332 -0.464,1.15067 -0.95867,2.31067 -1.47467,3.464 1.11333,-1.37333 2.25333,-2.86267 3.41467,-4.46133 l 2.32933,1.24266 c -3.91333,10.65334 -9.25733,20.84534 -14.39733,30.37067 l -0.076,0.14 -0.10667,0.11867 c -0.87867,0.97466 -1.76533,1.948 -2.65333,2.92266 -6.224,6.832 -12.66134,13.896 -16.528,22.14 -0.54134,1.152 -1.048,2.31334 -1.51867,3.48 0.016,-0.0227 0.0307,-0.0467 0.0453,-0.072 1.952,-3.11066 4.31067,-5.88533 6.59067,-8.568 0.508,-0.596 1.01467,-1.192 1.51733,-1.792 l 2.21334,1.45334 -0.23067,0.46 c -0.30667,0.60933 -0.612,1.21866 -0.912,1.83066 -3.55733,7.26134 -6.30667,13.87334 -8.40667,20.21467 l -0.0267,0.08 -0.0373,0.076 c -2.24,4.68133 -4.95866,10.912 -6.10933,17.60533 -0.452,2.63867 -0.744,5.276 -0.87467,7.87733 l 2.024,0.248 c -0.444,13.23467 3.932,21.63867 13.368,25.636 0.19867,-1.69733 0.16,-3.40933 -0.12133,-4.94933 l 2.576,-0.66267 c 2.25467,6.70934 8.35333,13.21067 13.85333,17.17067 -0.196,-1.16533 -0.45733,-2.36 -0.72533,-3.59067 -0.74533,-3.41866 -1.516,-6.95333 -0.99867,-10.48 l 2.65067,0.252 c -0.17467,3.936 9.05867,8.78534 15.16933,11.99467 2.00534,1.05333 3.84,2.016 5.29067,2.89067 0.008,-1.10267 -0.0107,-2.21867 -0.0827,-3.30667 l 2.47067,-0.78 c 1.04,1.712 2.08267,3.03733 3.18933,4.04267 -0.24533,-0.99067 -0.64533,-2.12134 -0.96,-3.01067 -0.50666,-1.43333 -0.98533,-2.78667 -1.11866,-3.91733 -0.50667,-4.28267 0.0707,-9.47867 1.47066,-13.23867 l 2.58134,0.52933 c -0.368,7.776 2.65333,16.89067 6.004,24.436 0.10266,-1.94133 0.324,-3.92 0.72,-5.62933 l 0.744,-3.21067 1.69733,2.824 c 1.04133,1.732 2.97333,4.94667 5.00667,6.28667 -0.0293,-0.43867 -0.0533,-0.87467 -0.076,-1.304 -0.0467,-0.876 -0.092,-1.748 -0.18,-2.60667 l 2.43733,-0.872 c 1.44,2.17334 3.26667,3.976 5.452,5.38534 -0.0787,-1.28267 0.11733,-2.48667 0.29866,-3.60667 0.23867,-1.47467 0.44534,-2.74667 0.04,-3.97733 l 2.532,-0.83467 c 0.63734,1.93467 1.552,4.09067 3.49867,5.40667 0.328,0.22133 0.66133,0.48266 1,0.74933 0.112,0.088 0.22533,0.17733 0.33867,0.26533 0.26266,-1.296 0.332,-2.69066 0.4,-4.052 l 0.0507,-0.93466 c 0.0813,-1.30134 0.192,-3.084 -0.37866,-3.97734 l 2.248,-1.436 c 0.007,0.012 0.0133,0.0227 0.02,0.0333 -1.19067,-5.85334 -3.04267,-11.52267 -4.84267,-17.032 -1.5,-4.596 -3.052,-9.34934 -4.22533,-14.20134 -0.84934,-3.52 -0.79467,-7.13733 -0.74267,-10.63466 0.072,-4.784 0.11333,-9.676 -0.536,-14.45467 -0.43067,-3.16933 0.21733,-4.64933 1.42533,-7.40133 0.548,0.44667 1.028,1.19333 1.58667,1.58533 0.844,-2.28133 0.91333,-5.672 1.15467,-8.116 0.32533,-3.27866 0.504,-6.57066 0.584,-9.864 0.044,-1.80266 0.0987,-3.616 0.152,-5.43466 0.10266,-3.39067 0.20533,-6.78267 0.23866,-10.176 0.0267,-2.56267 0.68534,-6.31734 -0.432,-8.72134 0.59734,1.28267 2.49334,2.22267 3.1,3.77867 0.744,1.91067 0.504,4.24533 0.55067,6.29067 0.12667,5.60666 0.26667,11.83866 2.35467,15.824 0.4,-2.71867 0.0267,-6.11067 -0.312,-9.19467 -0.21067,-1.916 -0.41067,-3.72667 -0.42534,-5.30533 -0.0107,-1.33867 -0.0773,-2.73067 -0.144,-4.14667 -0.12133,-2.60533 -0.33066,-5.284 -0.068,-7.88667 0.20134,-1.996 -0.188,-4.26666 0.244,-6.18533 -0.0667,0.296 2.356,2.964 2.66,3.52267 1.30934,2.41466 1.65734,5.78133 4.15734,7.34266 3.824,-3.04933 2.36933,-9.88266 3.776,-14.136 4.632,2.60934 3.66133,10.312 3.56266,14.63734 0,0 -0.004,0.22933 -0.004,0.22933 1.256,-5.45733 2.044,-11.02 0.98667,-15.81467 -2.53067,-11.472 -2.544,-21.589329 -0.04,-30.070662 l 1.00133,-3.397334 1.41734,3.064 c 0.54533,-3.124 0.996,-6.317333 1.43466,-9.429333 0.66134,-4.688 1.34534,-9.534666 2.35067,-14.121333 1.916,-8.734666 4.82133,-15.247999 13.396,-19.149333 -0.132,-0.274666 -0.26533,-0.478666 -0.46133,-0.641333 l -1.19467,-0.993333 1.16133,-1.029333 c 0.87334,-0.776 1.932,-1.350667 2.85334,-1.810667 0.13466,-0.06667 0.40533,-0.152 0.73866,-0.238667 -0.044,-0.044 -2.01466,-2.224 -2.01466,-2.224 l 3.74666,-0.192 c 0.91334,-0.052 1.844,-0.104 2.756,-0.110666 l 0.0787,-0.414667 c 0.18933,0 0.45067,-0.05733 0.72533,-0.118667 0.32934,-0.07333 0.704,-0.157333 1.108,-0.176 l 0.24934,-0.0067 c 0.78933,0 1.54666,0.18 2.216,0.337333 0.35066,0.08267 0.69866,0.165333 1.03866,0.214667 0.292,0.04267 0.604,0.05467 0.91734,0.05467 0.0253,0 0.0507,0 0.0773,-0.0013 -0.003,-0.0067 -0.35867,-1.150667 -0.35867,-1.150667 l 0.64667,-0.288 -0.37467,-0.344 2.38267,-0.612 c 0.30267,-0.07867 0.63333,-0.116 1.00933,-0.116 0.23067,0 0.46667,0.01467 0.70267,0.03067 0.17733,0.01067 0.356,0.024 0.532,0.024 h 0.0413 l 0.16134,-0.689333 c 0.184,0 0.364,-0.028 0.54666,-0.06 l 0.076,-1.142667 c 0.624,-0.076 1.24934,-0.122667 1.87334,-0.153333 l -1.84534,-1 3.516,-0.76 c 0.57067,-0.122667 1.18667,-0.18 1.93734,-0.18 0.544,0 1.09733,0.03067 1.644,0.06267 0.172,0.0093 0.344,0.02 0.51466,0.028 l 0.116,-0.396 c 1.14667,0.05067 2.24,0.289334 3.35334,0.550667 0.56133,0.132 1.12666,0.213333 1.68933,0.296 0.46667,0.068 0.932,0.137333 1.392,0.226667 0.53067,0.104 1.00267,0.297333 1.41867,0.466666 0.43733,0.178667 0.81466,0.333334 1.144,0.348 0.10133,-0.0013 0.396,-0.09333 0.59066,-0.154666 0.428,-0.134667 0.96267,-0.302667 1.64667,-0.302667 1.66133,0.052 3.24,0.337333 4.42933,0.581333 0.52534,0.108 1.09067,0.134667 1.688,0.162667 0.51734,0.024 1.03467,0.05067 1.552,0.12 0.87734,0.125333 1.51734,0.645333 2.29334,1.068 1.03866,0.565333 2.12933,1.061333 3.30533,1.254667 0.70667,0.116 1.376,0.253333 2.04133,0.514666 0.372,0.146667 0.74134,0.349334 1.12534,0.462667 0.95866,0.282667 2.00133,0.329333 2.94533,0.653333 0.29733,0.102667 0.488,0.272 0.744,0.448 0.69333,0.473334 1.44,0.944 2.20667,1.286667 0.65466,0.292 1.328,0.550667 1.98933,0.826667 0.62267,0.258666 1.29067,0.504 1.86133,0.869333 0.364,0.232 0.62934,0.464 0.93734,0.749333 0.912,0.84 1.976,1.388 3.07466,1.949334 0.72134,0.369333 1.46667,0.626666 2.00667,1.250666 0.57867,0.669333 1.36533,1.194667 2.07733,1.716 0.252,0.184 0.51467,0.389333 0.77867,0.557333 0.964,0.610667 1.81733,1.314667 2.744,1.976"
       style="fill:#383838;fill-opacity:1;fill-rule:nonzero;stroke:none;stroke-width:1.33333"
       id="path170462" />
    <path
       d="m 221.21733,67.537475 c 0.23866,-1.5 0.94533,-2.882667 0.84,-4.416 -8.92,10.196 -20.99734,21.058666 -24.85733,34.539999 0.93733,-5.093333 3.21066,-10.130666 5.21199,-14.874666 3.24667,-7.696 9.33734,-15.478666 11.05334,-23.647999 -7.03067,6.694666 -16.49467,10.422666 -21.248,19.559999 0.67867,-4.592 2.472,-9.072 4.012,-13.445333 1.59067,-4.514667 4.472,-8.986666 5.47733,-13.645333 -5.36666,3.182667 -11.12,5.710667 -16.21866,9.432 1.86933,-2.633333 2.76,-6.730667 4.21733,-9.76 3.13067,-6.504 9.99733,-10.864 13.02666,-17.149333 -2.352,0.730667 -4.65333,2.490667 -6.69599,3.797333 -3.548,2.269334 -8.20934,4.977334 -10.804,8.362667 1.27866,-7.438667 5.46266,-14.273333 8.65466,-21.050666 -2.912,1.486666 -5.21733,2.933333 -7.68,5.168 -7.772,7.055999 -12.53466,15.610666 -14.15466,25.427999 -0.3,1.810667 -0.776,3.409333 -1.28134,5.1 0,0 -0.28266,0.950666 -0.29466,0.989333 l 0.89866,0.550667 c -0.572,1.548 -0.924,3.181333 -1.296,4.910666 -0.24133,1.12 -0.48933,2.277334 -0.804,3.409334 -0.74133,2.662666 -1.43733,5.446666 -2.108,8.137333 -0.79866,3.194666 -1.62266,6.498666 -2.54666,9.691999 -1.05467,3.650667 -2.84267,7.18 -4.57334,10.593334 -1.184,2.336002 -2.408,4.750662 -3.39733,7.201332 -0.46533,1.15067 -0.95867,2.31067 -1.476,3.464 1.11333,-1.37467 2.25333,-2.86267 3.41467,-4.46267 l 2.33066,1.244 c -3.91333,10.65334 -9.25866,20.844 -14.39733,30.36934 l -0.076,0.14 -0.10667,0.12 c -0.87866,0.97466 -1.76666,1.948 -2.65466,2.92266 -6.224,6.832 -12.66,13.89467 -16.528,22.14 -0.54,1.15067 -1.04667,2.31334 -1.51734,3.48 0.0147,-0.024 0.0307,-0.048 0.0453,-0.072 1.952,-3.11066 4.31066,-5.88533 6.59066,-8.568 0.50667,-0.596 1.01467,-1.19333 1.516,-1.792 l 2.21467,1.45334 -0.23067,0.46 c -0.30666,0.60933 -0.612,1.21866 -0.912,1.83066 -3.55733,7.26134 -6.30666,13.87334 -8.408,20.21334 l -0.0267,0.08 -0.036,0.0773 c -2.24,4.68 -4.95867,10.912 -6.10934,17.60533 -0.452,2.63867 -0.74533,5.27467 -0.87466,7.876 l 2.02266,0.248 c -0.44266,13.23467 3.93334,21.64 13.368,25.636 0.2,-1.696 0.16,-3.40933 -0.12,-4.948 l 2.57467,-0.66267 c 2.256,6.70934 8.35467,13.20934 13.85467,17.16934 -0.19734,-1.16534 -0.45734,-2.35867 -0.72534,-3.58934 -0.74533,-3.41866 -1.516,-6.95466 -1,-10.48 l 2.65067,0.252 c -0.17333,3.936 9.06,8.78534 15.17067,11.99467 2.00533,1.052 3.83866,2.016 5.29066,2.89067 0.008,-1.10267 -0.0107,-2.21867 -0.0827,-3.30667 l 2.46933,-0.78 c 1.04,1.71067 2.08267,3.03733 3.18933,4.04267 -0.244,-0.992 -0.644,-2.12134 -0.95866,-3.01067 -0.50667,-1.43333 -0.98534,-2.78667 -1.12,-3.91733 -0.50534,-4.28267 0.072,-9.48 1.472,-13.23867 l 2.58133,0.528 c -0.368,7.77733 2.65333,16.892 6.004,24.43733 0.10133,-1.94133 0.324,-3.92133 0.72,-5.63066 l 0.74267,-3.21067 1.69866,2.82533 c 1.04134,1.73067 2.97334,4.94534 5.00534,6.28667 -0.028,-0.43867 -0.052,-0.87467 -0.0747,-1.30533 -0.0467,-0.87467 -0.0933,-1.74667 -0.18133,-2.60534 l 2.43733,-0.87333 c 1.44,2.17333 3.268,3.97733 5.452,5.38533 -0.0773,-1.28133 0.11733,-2.48533 0.29866,-3.60666 0.24,-1.47334 0.44667,-2.74667 0.0413,-3.97734 l 2.532,-0.83466 c 0.63733,1.936 1.552,4.09066 3.49866,5.408 0.328,0.22133 0.66134,0.48266 1,0.74933 0.112,0.088 0.22534,0.17733 0.33867,0.26533 0.26267,-1.29733 0.332,-2.692 0.39867,-4.05333 l 0.052,-0.93333 c 0.08,-1.30134 0.192,-3.084 -0.37867,-3.97734 l 2.24667,-1.436 c 0.008,0.0107 0.0133,0.0227 0.0213,0.0333 -1.192,-5.85467 -3.04267,-11.52267 -4.84267,-17.032 -1.5,-4.59734 -3.05333,-9.35067 -4.22533,-14.20134 -1.324,-5.48133 -1.67333,-11.57866 -1.93333,-17.21199 -0.156,-3.37867 0.36666,-6.74534 0.888,-10.072 0.48533,-3.09067 3.18933,-5.164 3.676,-8.28134 0.67466,-4.33066 0.73466,-8.94266 0.84133,-13.32 0.0427,-1.80266 0.0973,-3.616 0.152,-5.43466 0.176,-5.87467 0.35867,-11.95067 0.17467,-17.8 l 2.644,-0.28667 c 0.488,2.60933 0.56133,5.83867 0.63733,9.25733 0.12667,5.608 0.26667,11.84 2.356,15.82534 0.4,-2.71867 0.0267,-6.11067 -0.31333,-9.19467 -0.21067,-1.916 -0.40934,-3.72667 -0.424,-5.30533 -0.012,-1.33867 -0.0773,-2.73067 -0.144,-4.14667 -0.18934,-4.016 -0.38267,-8.16933 0.53066,-11.968 l 2.592,0.62267 c -0.23733,0.988 1.20267,4.19466 1.97734,5.91866 0.54133,1.20534 1.008,2.24534 1.24,3.02134 0.92933,3.11066 0.56266,4.77066 0.0547,7.06666 -0.14133,0.64534 -0.3,1.35867 -0.44666,2.2 -0.67334,3.82667 -1.15467,7.77334 -1.43067,11.73067 -0.27733,3.99467 -0.312,7.97733 -0.312,11.00133 10e-4,5.58534 10e-4,14.31467 3.81733,18.97467 -2.812,-13.29333 -3.67466,-24.35467 -2.63866,-33.72133 0.94933,-8.57334 2.67466,-17.50267 4.34533,-26.13867 0.37733,-1.95467 0.43867,-4.23733 1.03867,-6.05067 4.63333,2.60934 3.66266,10.312 3.564,14.63734 0,0 -0.005,0.22933 -0.005,0.22933 1.25734,-5.45867 2.044,-11.02 0.98667,-15.816 -2.52933,-11.47067 -2.544,-21.587999 -0.04,-30.069332 l 1.00267,-3.398667 1.416,3.065333 c 0.54666,-3.125333 0.99733,-6.318666 1.436,-9.430666 0.66133,-4.686667 1.34533,-9.533333 2.35066,-14.121333 0.82534,-3.766667 1.98934,-8.501333 4.48,-11.548 1.98934,-2.433333 6.196,-3.453333 6.99467,-6.798666 -2.31867,0.384 -5.33733,1.316 -7.25867,2.769333 1.85867,-2.245333 4.924,-3.52 6.68134,-5.834666 -3.87867,0.855999 -8.23867,2.771999 -11.44,5.042666 0.94266,-0.950667 1.87733,-1.974667 2.91866,-2.834667 -2.30133,-0.948 -7.97333,3.061334 -9.428,5.544 -2.20666,3.765334 -3.90933,9.562667 -4.59466,13.872"
       style="opacity:0.199997;fill:#000000;fill-opacity:1;fill-rule:nonzero;stroke:none;stroke-width:1.33333"
       id="path170472" />
    <path
       d="m 322.41146,51.957075 c 3.37067,2.404 6.06667,4.886667 8.24267,7.589334 2.80266,3.481333 4.81599,7.247999 6.76399,10.890666 0.24267,0.452 0.48667,0.908 0.732,1.364 -0.652,-7.046667 -2.276,-14.837333 -6.66933,-21.124 -4.74533,-6.790666 -9.95066,-12.569333 -16.612,-17.506666 2.05734,2.676 4.19467,6.316 5.216,9.552 -2.18933,-2.277333 -4.99466,-4.465333 -7.54933,-6.142667 0.34667,0.566667 0.52133,1.266667 0.832,1.836 -3.17467,-2.376 -5.89067,-5.311999 -9.37067,-7.257333 0.31734,0.746667 0.51867,1.98 0.748,2.936 -3.85333,-2.430666 -7.57333,-5.070666 -11.64,-7.396 0.18534,0.770667 0.14667,1.541334 0.43734,2.308 -1.63334,-1.533333 -3.52667,-2.813333 -5.35467,-4.129333 0.27867,0.672 0.15067,1.477333 0.31867,2.114667 -1.21334,-0.748 -2.51067,-1.690667 -3.72134,-2.541334 -0.56533,1.106667 -0.61733,2.556 -0.744,3.864 -4.03466,-3.044 -9.46133,-5.344 -14.14666,-7.289333 -0.17734,1.337333 -0.57334,2.856 -1.15867,4.110667 -1.476,-0.588 -2.85867,-1.384 -4.29867,-2.057334 0.0773,1.070667 0.76667,2.009334 1.472,2.866667 -5.99733,-0.621333 -12.82666,-1.994667 -18.81066,-1.552 3.89733,1.508 7.68933,3.248 10.67733,6.254667 -4.32933,-1.617334 -9.80933,-2.645334 -14.28533,-3.613334 -3.684,-0.797333 -7.008,-0.473333 -10.66134,-0.03467 2.47334,-0.414667 4.68134,1.142666 6.97867,1.84 2.336,0.709333 4.76267,1.450666 7.06133,2.076 -11.652,-2.222667 -21.83333,5.747999 -28.456,14.591999 6.88,-5.697333 12.94134,-6.56 22.38934,-4.192 -3.74,1.062667 -11.14667,2.306667 -12.70267,6.749333 3.508,-1.421333 8.92267,-4.685333 12.756,-3.561333 -6.43333,0.142667 -8.50533,2.096 -11.64133,7.909333 1.47333,-1.237333 3.416,-2.968 5.13866,-3.78 -3.976,3.452 -7.04933,9.186667 -8.292,14.177333 3.51334,-3.354666 6.66934,-9.050666 11.95867,-9.913333 -2.57467,4.596 -5.48533,9.165333 -9.04933,13.106667 -7.848,8.678666 -17.99734,16.017333 -23.42934,26.586666 -3.41066,6.638666 -5.47466,14.002666 -7.37066,21.302666 -1.24133,4.78667 -2.86267,9.516 -4.51733,14.12267 -1.91067,5.32 -3.14134,11.54133 -5.49867,16.44133 -1.244,-18.78 6.488,-38.852 14.76933,-55.382666 3.94533,-7.876 7.792,-15.506667 12.28933,-23.089333 -4.59866,2.569333 -7.632,7.202667 -10.176,11.732 -7.56399,13.474666 -13.86266,27.249339 -20.33599,41.274669 -3.032,6.57067 -7.48934,12.612 -12.07067,18.21067 -5.22533,6.388 -14.83733,14.92133 -14.09867,24.152 1.06267,-3.00934 0.608,-6.796 1.7,-9.99467 1.56,-4.56533 5.20934,-8.58267 8.11734,-12.30533 4.15333,-5.31734 8.08266,-10.44534 10.84666,-16.68134 2.71734,-6.12933 5.20934,-12.64666 6.94934,-19.104 0.792,-2.94266 2.24266,-5.822666 2.696,-8.798666 -4.14,5.218666 -7.412,12.098666 -11.20267,17.785336 -4.61733,6.92667 -10.74133,13.08267 -15.144,20.04667 4.36667,-5.51067 9.17067,-11.192 12.396,-17.416 7.272,-14.03467 12.62267,-28.910673 17.93867,-43.605339 -6.796,7.852 -11.52,15.230666 -15.97334,24.613333 -1.908,4.02 -3.41733,8.070666 -4.98533,12.216006 -1.37467,3.63333 -4.87467,8.292 -4.64933,12.132 2.76133,-4.14667 4.96533,-10.84667 6.044,-15.68 0.94266,-4.22534 1.124,-8.586673 2.288,-12.79734 0.77066,-2.788 2.03866,-5.667999 2.57333,-8.491999 -0.98267,1.314666 -2.084,2.710666 -2.34933,4.373333 1.75466,-9.056 3.92533,-18.068 5.79733,-27.106666 -1.54133,3.194666 -5.94,6.161333 -6.29733,9.809333 0.71466,-8.08 4.87466,-19.148 9.32533,-25.631999 -2.064,3.446666 -5.13333,6.321333 -7.124,9.807999 1.64533,-6.469333 2.952,-14.675999 6.43067,-20.663999 -7.10134,3.153333 -10.70934,15.022666 -11.85734,21.975999 -0.29866,1.810667 -0.776,3.408 -1.28133,5.098667 0,0 -0.28133,0.952 -0.29333,0.989333 l 0.89866,0.550667 c -0.57333,1.548 -0.92533,3.181333 -1.29733,4.910666 -0.24,1.12 -0.48933,2.277334 -0.804,3.409334 -0.74133,2.662666 -1.436,5.446666 -2.108,8.137333 -0.79733,3.194666 -1.62267,6.498666 -2.54533,9.691999 -1.05467,3.652 -2.844,7.181334 -4.57334,10.593334 -1.184,2.336006 -2.40933,4.752006 -3.39866,7.201336 -0.464,1.15067 -0.95867,2.31067 -1.47467,3.464 1.11333,-1.37333 2.25333,-2.86267 3.41467,-4.46133 l 2.32933,1.24266 c -3.91333,10.65334 -9.25733,20.84534 -14.39733,30.37067 l -0.076,0.14 -0.10667,0.11867 c -0.87867,0.97466 -1.76533,1.948 -2.65333,2.92266 -6.224,6.832 -12.66134,13.896 -16.528,22.14 -0.54134,1.152 -1.048,2.31334 -1.51867,3.48 0.016,-0.0227 0.0307,-0.0467 0.0453,-0.072 1.952,-3.11066 4.31067,-5.88533 6.59067,-8.568 0.508,-0.596 1.01467,-1.192 1.51733,-1.792 l 2.21334,1.45334 -0.23067,0.46 c -0.30667,0.60933 -0.612,1.21866 -0.912,1.83066 -3.55733,7.26134 -6.30667,13.87334 -8.40667,20.21467 l -0.0267,0.08 -0.0373,0.076 c -2.24,4.68133 -4.95866,10.912 -6.10933,17.60533 -0.452,2.63867 -0.744,5.276 -0.87467,7.87733 l 2.024,0.248 c -0.444,13.23467 3.932,21.63867 13.368,25.636 0.19867,-1.69733 0.16,-3.40933 -0.12133,-4.94933 l 2.576,-0.66267 c 2.25467,6.70934 8.35333,13.21067 13.85333,17.17067 -0.196,-1.16533 -0.45733,-2.36 -0.72533,-3.59067 -0.74533,-3.41866 -1.516,-6.95333 -0.99867,-10.48 l 2.65067,0.252 c -0.17467,3.936 9.05867,8.78534 15.16933,11.99467 2.00534,1.05333 3.84,2.016 5.29067,2.89067 0.008,-1.10267 -0.0107,-2.21867 -0.0827,-3.30667 l 2.47067,-0.78 c 1.04,1.712 2.08267,3.03733 3.18933,4.04267 -0.24533,-0.99067 -0.64533,-2.12134 -0.96,-3.01067 -0.50666,-1.43333 -0.98533,-2.78667 -1.11866,-3.91733 -0.50667,-4.272 -0.86534,-17.29067 5.42666,-17.77867 1.724,3.17333 3.81067,8 6.17067,10.78667 0.0813,-1.12134 0.0173,-2.29067 0.0933,-3.41334 1.64667,1.85067 5.16667,5.656 7.60134,6.19467 0.69333,-1.63467 0.76666,-3.528 1.38533,-5.16267 1.38,1.21334 2.676,2.836 4.07466,3.99734 -0.41866,-1.83467 -1.77199,-2.764 -3.04399,-4.096 -1.21467,-1.27334 -2.25734,-2.832 -3.37334,-4.31467 -3.30533,-4.39067 -7.63866,-11.172 -7.86533,-16.85467 2.25467,2.05334 3.93067,5.01067 5.89867,7.42667 1.79066,2.2 3.38533,3.55067 3.56933,6.60267 -2.65067,-7.35734 -8.816,-14.79334 -10.42533,-23.036 -2.63334,-13.49733 -3.75334,-26.872 1.23333,-40.09733 -0.40267,1.95466 -1.336,3.96933 -1.86267,6.00133 -1.88133,7.26 -1.94,15.53467 -0.45866,22.892 1.56933,7.79733 6.47066,16.376 12.57866,21.52533 -1.84133,-4.58 -3.30666,-9.21866 -4.85866,-13.94 -3.124,-9.50533 -1.08267,-18.81866 1.968,-28.176 -0.11067,4.58134 -0.007,11.31734 2.24266,15.16934 0.30134,-8.49867 3.23067,-16.82267 3.488,-25.432 0.24267,-8.12667 -0.45466,-17.652 1.46,-25.53067 0.552,0.98267 0.80133,2.27467 1.72267,3.01733 1.90933,-4.55466 2.78,-10.46933 3.27466,-15.36533 0.75867,1.90667 1.24134,4.048 2.19467,5.92667 1.38,2.71866 4.088,4.628 5.84933,7.08933 3.06667,4.28533 3.66,8.416 3.84,13.50267 -0.044,-1.23467 1.78267,-3.91334 2.13067,-5.30667 0.424,-1.69733 0.46667,-3.11333 0.384,-4.824 -0.168,-3.46533 0.36533,-7.796 1.46267,-11.11467 4.632,2.60934 3.66133,10.312 3.56266,14.63734 0,0 -0.004,0.22933 -0.004,0.22933 1.256,-5.45733 2.044,-11.02 0.98667,-15.81467 -2.53067,-11.472 -2.544,-21.589333 -0.04,-30.070666 l 1.00133,-3.397334 1.41734,3.064 c 0.54533,-3.124 0.996,-6.317333 1.43466,-9.429333 0.66134,-4.688 1.34534,-9.534666 2.35067,-14.121333 1.916,-8.734666 4.82133,-15.247999 13.396,-19.149333 -0.132,-0.274666 -0.26533,-0.478666 -0.46133,-0.641333 l -1.19467,-0.993333 1.16133,-1.029333 c 0.87334,-0.776 1.932,-1.350667 2.85334,-1.810667 0.13466,-0.06667 0.40533,-0.152 0.73866,-0.238667 -0.044,-0.044 -2.01466,-2.224 -2.01466,-2.224 l 3.74666,-0.192 c 0.91334,-0.052 1.844,-0.104 2.756,-0.110666 l 0.0787,-0.414667 c 0.18933,0 0.45067,-0.05733 0.72533,-0.118667 0.32934,-0.07333 0.704,-0.157333 1.108,-0.176 l 0.24934,-0.0067 c 0.78933,0 1.54666,0.18 2.216,0.337333 0.35066,0.08267 0.69866,0.165333 1.03866,0.214667 0.292,0.04267 0.604,0.05467 0.91734,0.05467 0.0253,0 0.0507,0 0.0773,-0.0013 -0.003,-0.0067 -0.35867,-1.150667 -0.35867,-1.150667 l 0.64667,-0.288 -0.37467,-0.344 2.38267,-0.612 c 0.30267,-0.07867 0.63333,-0.116 1.00933,-0.116 0.23067,0 0.46667,0.01467 0.70267,0.03067 0.17733,0.01067 0.356,0.024 0.532,0.024 h 0.0413 l 0.16134,-0.689333 c 0.184,0 0.364,-0.028 0.54666,-0.06 l 0.076,-1.142667 c 0.624,-0.076 1.24934,-0.122667 1.87334,-0.153333 l -1.84534,-1 3.516,-0.76 c 0.57067,-0.122667 1.18667,-0.18 1.93734,-0.18 0.544,0 1.09733,0.03067 1.644,0.06267 0.172,0.0093 0.344,0.02 0.51466,0.028 l 0.116,-0.396 c 1.14667,0.05067 2.24,0.289334 3.35334,0.550667 0.56133,0.132 1.12666,0.213333 1.68933,0.296 0.46667,0.068 0.932,0.137333 1.392,0.226667 0.53067,0.104 1.00267,0.297333 1.41867,0.466666 0.43733,0.178667 0.81466,0.333334 1.144,0.348 0.10133,-0.0013 0.396,-0.09333 0.59066,-0.154666 0.428,-0.134667 0.96267,-0.302667 1.64667,-0.302667 1.66133,0.052 3.24,0.337333 4.42933,0.581333 0.52534,0.108 1.09067,0.134667 1.688,0.162667 0.51734,0.024 1.03467,0.05067 1.552,0.12 0.87734,0.125333 1.51734,0.645333 2.29334,1.068 1.03866,0.565333 2.12933,1.061333 3.30533,1.254667 0.70667,0.116 1.376,0.253333 2.04133,0.514666 0.372,0.146667 0.74134,0.349334 1.12534,0.462667 0.95866,0.282667 2.00133,0.329333 2.94533,0.653333 0.29733,0.102667 0.488,0.272 0.744,0.448 0.69333,0.473334 1.44,0.944 2.20667,1.286667 0.65466,0.292 1.328,0.550667 1.98933,0.826667 0.62267,0.258666 1.29067,0.504 1.86133,0.869333 0.364,0.232 0.62934,0.464 0.93734,0.749333 0.912,0.84 1.976,1.388 3.07466,1.949334 0.72134,0.369333 1.46667,0.626666 2.00667,1.250666 0.57867,0.669333 1.36533,1.194667 2.07733,1.716 0.252,0.184 0.51467,0.389333 0.77867,0.557333 0.964,0.610667 1.81733,1.314667 2.744,1.976"
       style="opacity:0.199997;fill:#000000;fill-opacity:1;fill-rule:nonzero;stroke:none;stroke-width:1.33333"
       id="path170488" />
    <path
       d="m 253.93879,12.494143 c -15.87333,0 -31.54933,2.013333 -41.93333,5.386667 -6.616,2.147999 -18.93466,9.899999 -24.00533,14.502666 -3.93867,3.574666 -7.292,7.801333 -9.672,12.569333 -1.15867,2.321333 -1.96933,4.714666 -2.72667,7.185333 -0.55866,1.818667 -2.82266,4.037333 -2.38666,6.065333 0.57866,-0.637333 1.23866,-1.336 1.92266,-1.888 0.0493,2.681334 -1.00666,5.273333 -1.77733,7.794667 -0.72667,2.376 -0.83733,4.958666 -1.51733,7.4 -0.732,2.629333 -1.42134,5.394666 -2.08934,8.069333 -0.804,3.218666 -1.63466,6.546666 -2.57066,9.786666 -1.29867,4.5 -4.348,7.941333 -5.62,12.486669 0.0907,-0.32134 1.07466,-1.03867 1.32533,-1.34534 0.54533,-0.666662 0.97067,-1.425329 1.376,-2.182662 0.816,-1.529334 1.43867,-3.164 2.40267,-4.613334 -0.688,4.218667 -2.64,8.161336 -3.48667,12.319996 -0.87733,4.312 -2.62133,8.63067 -4.35867,12.65867 -1.75733,4.07333 -3.76,8.036 -5.836,11.95467 -1.86533,3.52 -3.91866,6.05733 -6.67866,8.95066 -3.50667,3.67734 -7.72267,7.71467 -10.08534,12.24134 2.39067,-1.46267 5.30934,-2.61467 7.47334,-4.464 3.352,-2.864 6.29866,-6.23467 9.396,-9.368 2.36666,-2.392 5.94133,-5.67734 7.13733,-8.652 -1.79333,3.29333 -3.81467,6.244 -6.09067,9.284 -4.09333,5.46933 -9.30666,9.992 -13.53466,15.37066 -2.11467,2.69067 -3.50534,5.89867 -5.06534,8.94534 -1.38933,2.71466 -1.57866,5.544 -2.74266,8.21733 -1.304,2.996 -2.78134,5.924 -3.808,9.032 0,0 -0.08,0.24 -0.08,0.24 l -0.10934,0.228 c -3.21733,6.72267 -5.032,11.936 -5.88666,16.90667 -0.28934,1.68266 -0.844,3.31466 -1.11334,4.96266 0.18267,-1.12133 1.5,-2.82533 2.044,-3.85866 0.78667,-1.49467 1.89067,-2.79734 2.688,-4.28534 0.68934,-1.28533 1.364,-2.74 2.05334,-3.94933 -1.48134,4.092 -3.34534,8.06133 -4.79334,12.17466 -0.78533,2.23467 -1.91466,4.29067 -1.56,6.67734 0.344,2.30666 0.97067,4.65866 1.92,6.79733 0.964,2.16933 2.53734,4.348 3.96134,6.24533 0.41466,0.552 5.464,5.67867 5.51333,5.60934 1.31333,-1.88 0.216,-4.08667 0.36933,-6.16667 0.18,-2.43067 0.93734,-4.78133 1.55067,-7.12533 0.74267,-2.83867 1.84267,-5.19867 3.14533,-7.844 -1.06,4.24533 -2.65733,8.528 -2.79866,12.936 -0.0453,1.416 0.35733,2.008 0.952,3.276 0.52533,1.124 0.60133,2.476 1.34533,3.5 0.868,1.19466 1.72267,2.39066 2.572,3.68666 1.44133,2.20267 4.10933,4.86667 6.59333,5.98134 0.99867,0.448 0.39867,-8.49067 0.428,-9.20534 0.17334,-4.17066 1.624,-8.19466 1.60667,-12.436 0.9,3.436 -0.46667,7.76667 1.372,10.956 1.61867,2.80934 4.23733,4.032 6.62533,5.92534 2.61867,2.076 4.84667,4.45866 8.17467,5.40933 1.664,0.476 3.968,1.528 5.16533,2.8 1.04134,-1.256 1.212,-3.18 2.188,-4.324 0.75734,0.75333 1.41467,1.69733 2.20534,2.38933 0.0613,-1.23333 -0.20534,-2.436 -0.152,-3.66666 0.13866,-3.21467 1.05333,-6.56134 1.808,-9.684 0.64933,-2.684 1.99333,-4.512 3.724,-6.572 -0.21334,2.352 -0.42534,4.58533 -0.41334,6.95866 0.012,2.48534 0.45334,4.952 0.94134,7.376 0.29866,1.484 0.92533,2.948 1.14933,4.416 0.20133,1.316 0.53867,2.408 1.072,3.64267 0.33867,0.78667 0.80667,1.54533 1.23867,2.27867 0.99466,-3.304 1.24533,-6.876 2.664,-10.05334 0.60666,2.98934 1.87866,5.88267 2.884,8.75734 0.792,2.26 1.876,4.74266 3.62533,6.47466 -0.048,-1.17066 -0.0787,-2.364 -0.0733,-3.55333 0.007,-1.06933 0.0413,-2.136 0.12266,-3.18267 0.128,-1.66133 0.53067,-3.368 0.59734,-5 -0.0253,0.62134 0.88133,1.89334 1.19333,2.43334 0.308,0.53333 0.71467,0.89066 1.07067,1.37333 0.92,1.244 1.156,3.03067 1.86133,4.41467 0.672,1.31733 1.61066,2.46133 2.19066,3.828 -0.37333,-2.00667 0.18,-4.432 0.63734,-6.40934 0.27866,-1.20666 0.65466,-2.39066 0.95733,-3.592 0.29067,-1.15466 0.65733,-2.73333 1.404,-3.67466 0.97467,2.03466 2.096,4.09466 2.94933,6.18666 0.828,2.03067 1.62534,4.78 3.176,6.31734 0.16,-2.336 -0.224,-5.08667 -0.408,-7.504 -0.0613,-0.80267 -0.004,-1.60134 -0.0827,-2.39067 -0.10934,-1.08267 -0.46667,-2.08 -0.32267,-3.18933 0.884,0.492 1.81067,1.03466 2.40267,1.916 -0.0253,-1.07067 -1.176,-2.07067 -1.62534,-3.00134 -0.576,-1.19066 -1.13466,-2.39066 -1.67466,-3.59866 -1.104,-2.47067 -2.13334,-4.97467 -3.084,-7.508 -1.88,-5.00934 -3.456,-10.132 -4.71334,-15.33334 -0.93066,-3.848 -0.87333,-7.63733 -0.81733,-11.30133 0.0133,-0.82133 0.0253,-1.64 0.0253,-2.45333 0,-5.44133 0.53733,-11.04933 0.83999,-16.484 0.184,-3.292 0.76267,-6.74667 0.65067,-10.00267 0.91067,1.01334 1.12,2.568 1.796,3.772 0.58,-1.72266 0.36267,-4.072 0.44667,-5.93866 0.188,-4.21334 0.48266,-8.40267 0.60933,-12.61867 0.14533,-4.86133 0.33067,-9.68933 -0.172,-14.46933 -0.47467,-4.52 -0.79067,-8.88134 0.52667,-13.32267 1.628,3.00267 3.32533,4.796 4.45466,8.152 0.48267,-5.152 -1.172,-11.53067 0.50534,-16.464 0.908,2.044 2.46133,3.676 3.504,5.67733 1.916,3.68 2.74533,8.4 3.95866,12.48 4.172,-2.36666 2.55334,-11.28133 1.93067,-15.15466 2.048,1.20533 4.012,2.64133 5.9,4.016 -1.30267,-0.948 -1.792,-14.048 -1.808,-16.112 -0.0413,-5.308 -0.0133,-10.324002 1.512,-15.489336 l 2.96267,-10.279999 0.716,1.550666 c 0.0307,-0.217333 0.0613,-0.434666 0.092,-0.650666 0.392,-2.778667 1.292,-5.397334 1.81333,-8.132 0.42133,-2.210667 1.41333,-4.66 1.31867,-6.944 -0.964,1.2 -1.95867,2.333333 -2.964,3.498667 -3.788,4.394666 -8.348,8.191999 -12.364,12.382666 -2.704,2.82 -5.63334,5.545333 -7.99334,8.629333 -2.56533,3.352 -4.31066,7.025333 -5.708,10.977329 0.85067,-2.573329 1.40267,-5.575996 2.148,-8.275996 1.568,-5.690666 5.95067,-9.797333 9.932,-13.923999 4.516,-4.68 9.196,-9.285333 13.11734,-14.470667 1.51466,-2.004 2.88,-4.128 4.54933,-6.010666 0.76533,-0.862667 1.84533,-1.536 2.56267,-2.398667 0.67066,-0.808 0.97866,-1.897333 1.684,-2.724 0.556,-0.650666 1.08133,-1.432 1.808,-1.909333 0.368,-0.242667 2.164,-0.432 2.212,-0.489333 0.94,-1.102667 1.71066,-2.794667 2.11866,-4.150667 -2.51733,-0.962666 -7.212,1.397333 -9.272,2.598667 -2.948,1.718666 -6.00666,4.664 -6.956,8.101333 0.764,-3.208 3.76134,-6.501333 5.696,-9.081333 3.81734,-5.090667 10.78667,-3.645333 15.872,-6.445333 -1.9,-0.757334 -4.46133,-0.596 -6.45066,-0.681334 -1.89334,-0.08133 -3.97067,-0.06133 -5.80134,0.406667 3.004,-1.413333 6.45467,-3.292 9.968,-2.710667 3.58267,0.593334 6.136,1.565334 9.58134,0.569334 0.80533,-0.233334 5.47866,-0.516 4.88133,-1.794667 1.328,-1.392 4.85733,-0.442667 3.59333,-3.018667 1.688,-0.342666 3.98,-0.137333 5.53867,-0.905333 -0.092,0.04533 -0.56667,-0.145333 -0.68133,-0.169333 -0.27067,-0.05733 -0.54667,-0.06533 -0.808,-0.141334 -0.33467,-0.09733 -0.65867,-0.264 -0.99067,-0.377333 -0.668,-0.228 -1.352,-0.412 -2.04533,-0.548 -1.76134,-0.346666 -3.56534,-0.356 -5.348,-0.176 0.53466,-0.190666 0.88933,-0.724 1.44,-0.924 0.66133,-0.241333 1.36,-0.26 2.04533,-0.370666 0.79733,-0.129334 1.55867,-0.233334 2.37067,-0.16 1.66133,0.152 3.20266,0.838666 4.78666,1.306666 1.644,0.485334 3.38667,0.832 5.10134,0.916 2.00533,0.09867 3.856,0.654667 5.644,0.353333 0.81333,-0.137333 1.01066,-0.442666 1.72933,-0.689333 1.46667,-0.505333 2.78667,1.045333 4.30533,1.248 1.13867,0.150667 2.14934,0.08533 3.21867,0.272 0.996,0.174667 1.76933,0.08267 2.81733,0.610667 1.256,0.633333 1.49867,0.586666 3.15467,0.546666 1.89467,-0.04667 1.76667,0.289334 2.72133,1.365334 0.876,0.985333 1.752,0.958666 3.136,1.145333 -0.12133,0.338667 -0.052,0.778667 -0.13333,1.130667 1.49067,0.145333 2.968,0.446666 4.456,0.569333 -0.032,0.192 0.044,0.430667 0.016,0.610667 1.01867,0.0027 2.172,0.06133 3.01867,0.677333 -0.0467,0.117333 -0.10667,0.246667 -0.14267,0.356 0.84533,0.418667 1.904,0.698667 2.74667,1.217333 -0.164,0.28 -0.0547,0.492 -0.12934,0.754667 0.0253,-0.092 2.15734,0.525333 2.32934,0.644 0.88,0.609333 0.73066,0.892 1.71866,1.176 2.58934,0.741333 5.05334,2.62 7.33067,4.297333 2.72933,2.009333 6.32933,3.264 8.096,6.325333 -0.0107,-5.488 -4.97067,-9.434666 -8.596,-13.037333 -1.616,-1.606666 -2.96933,-3.401333 -4.24133,-5.285333 -1.04934,-1.556 -2.33467,-2.317333 -3.70134,-3.552 -3.51733,-3.178666 -7.03066,-6.270666 -10.94533,-8.964 -7.17867,-4.936 -15.196,-8.639999 -23.708,-10.563999 -1.576,-0.356 -3.16533,-0.653334 -4.764,-0.888 -6.00933,-0.886667 -13.18933,-1.354667 -20.76667,-1.354667 m 85.90267,64.965332 c -3.568,-5.761333 -5.91867,-11.726667 -10.22533,-17.077333 -2.276,-2.828 -5.02934,-5.237333 -7.97867,-7.338667 -1.40267,-1 -2.83867,-1.905333 -4.172,-2.986666 -1.164,-0.942667 -1.968,-2.214667 -3.30933,-2.922667 -1.26534,-0.666666 -2.672,-0.998666 -3.96267,-1.604 0.272,-0.137333 0.516,-0.301333 0.76533,-0.482666 -1.08133,-0.730667 -3.02133,-1.249334 -4.33333,-1.484 0.224,-0.310667 0.56667,-0.64 0.92933,-0.837334 -0.29333,-0.012 -0.53333,-0.174666 -0.812,-0.226666 -1.096,-0.206667 -2.31466,-0.110667 -3.428,-0.161334 0.16134,-0.156 0.16667,-0.281333 0.42267,-0.365333 -0.69467,-0.330667 -1.39733,-0.734667 -2.096,-1.096 -1.12533,-0.582667 -2.444,-0.72 -3.644,-1.130667 0.0573,-0.72 -1.45733,-0.586666 -1.916,-0.58 0.19467,-0.128 0.28133,-0.356 0.42,-0.501333 -1.13067,-0.048 -2.15733,0.202667 -3.27733,0.338667 0.10133,-0.465334 0.29333,-0.797334 0.59733,-1.137334 -0.57333,0.012 -1.15467,-0.09333 -1.72,-0.169333 -1.112,-0.150667 -2.22933,-0.07467 -3.32667,-0.298667 -1.38933,-0.284 -2.776,-0.510666 -4.196,-0.554666 -0.784,-0.02533 -1.60266,0.486666 -2.26266,0.456 -0.98267,-0.04533 -1.82,-0.653334 -2.76,-0.837334 -1.03334,-0.202666 -2.08934,-0.288 -3.13067,-0.533333 -1.024,-0.241333 -2.05467,-0.470667 -3.108,-0.517333 0.19067,0.110666 0.45467,0.266666 0.65467,0.424 -1.46,-0.02 -3.10667,-0.273334 -4.52534,0.03333 1.664,0.902667 3.50267,1.082667 5.268,1.613333 -2.956,0.26 -5.984,-0.03467 -8.936,0.318667 1.17067,0.3 3.32667,-0.164 4.22534,0.789333 -1.01067,0.390667 -2.17467,0.168 -3.23867,0.209334 -0.62267,0.024 -1.21867,0.228 -1.82667,0.214666 0.27867,0.124 0.62534,0.276 0.69334,0.569334 -0.85734,0.298666 -1.88267,-0.084 -2.748,0.14 0.17066,0.156 0.17733,0.34 0.29733,0.530666 -0.508,0.176 -1.148,-0.07067 -1.65867,0.156 0.28,0.901334 0.91334,1.668 -0.328,1.722667 -0.68933,0.03067 -1.45066,0.05733 -2.124,-0.04 -1.05733,-0.152 -2.168,-0.586667 -3.248,-0.533333 -0.64,0.03067 -1.30266,0.312 -1.952,0.296 0.308,0.108 0.616,0.261333 0.89734,0.428 -1.488,-0.05467 -3.06267,0.072 -4.55334,0.146666 1.19334,1.322667 1.88934,0.01067 1.72667,2.14 0.0307,-0.389333 -2.51333,0.218667 -2.728,0.325334 -0.876,0.437333 -1.82267,0.956 -2.564,1.614666 0.81333,0.676 0.98267,1.633333 1.384,2.372 -3.672,1.393333 -7.008,3.804 -8.60667,7.653333 -0.0533,-0.804 -0.42266,-1.514666 -0.48533,-2.326666 -2.37067,3.278666 -3.876,9.299999 -4.776,13.402666 -1.86,8.485333 -2.57733,17.666666 -4.30133,26.325333 -0.58134,-0.745334 -1.48934,-1.404 -1.92667,-2.349334 -2.79333,9.463999 -2.02667,19.929339 0.064,29.406669 1.93867,8.79333 -1.96,19.70667 -4.07467,28.33333 -0.97866,-3.46266 0.35867,-8.256 0.444,-11.92266 0.10534,-4.432 0.28134,-8.92534 -1.132,-13.112 -1.82666,9.57466 -4.04133,20.30533 -5.144,30.272 -1.328,12.008 0.748,25.36533 3.43467,36.988 -7.19867,-3.66 -7.27067,-15.256 -7.272,-22.388 0,-3.724 0.0587,-7.4 0.316,-11.092 0.424,-6.10534 0.86267,-11.42934 0.10533,-17.55734 -0.27333,-2.21866 0.0173,-4.46666 -0.236,-6.68533 -0.20933,-1.82667 -1.664,-4.116 -1.232,-5.91467 -1.188,4.94134 -0.39333,10.74534 -0.348,15.79067 0.0453,4.98 2.07067,12.9 -0.0693,17.52133 -5.732,-5.84 -3.38133,-20.1 -4.832,-27.84666 0.21333,6.77066 -0.0547,13.54266 -0.24533,20.31066 -0.148,5.19867 -1.16134,10.33467 -1.24534,15.53734 -0.0373,2.268 -0.124,4.496 0.28134,6.74 0.23333,1.29066 0.71333,5.52 1.68533,6.35333 -1.652,-1.416 -3.08267,-3.18267 -4.08667,-5.16133 -1.13333,2.90266 -0.87466,6.196 -1.012,9.268 -0.23466,5.22133 1,10.388 0.80134,15.57333 -0.156,4.06133 1.16133,7.81466 2.38,11.72533 1.332,4.27067 2.796,8.5 4.09333,12.78133 0.33733,1.116 3.15867,13.15334 3.164,13.15334 -1.40267,-0.0227 -2.27333,-1.028 -3.02267,-2.20134 0.91334,1.43067 0.63067,3.784 0.55067,5.38134 -0.108,2.12266 -0.184,4.36 -0.948,6.34933 -1.01467,-0.38267 -1.96933,-1.34 -2.88533,-1.95867 -2.15334,-1.45733 -3.22134,-3.67866 -4.01734,-6.09466 1.13334,3.43733 -1.488,6.752 0.44934,10.632 -3.53334,-1.60134 -6.46933,-4.03867 -8.61733,-7.28 0.20133,1.96933 0.19066,3.99866 0.444,5.98533 -3.25067,-0.20933 -6.05334,-4.86133 -7.664,-7.53867 -0.76534,3.312 -0.88667,7.916 -0.64534,11.31867 -4.39866,-8.692 -9.17466,-20.636 -8.70933,-30.48933 -1.38267,3.71733 -1.85733,8.71733 -1.396,12.61733 0.312,2.636 3.088,7.532 2.08933,9.676 -2.45733,-1.34933 -4.21066,-3.552 -5.664,-5.94133 0.12934,1.944 0.0947,3.93466 0.0333,5.88 -4.45467,-3.712 -23.37867,-10.54 -23.07334,-17.43067 -0.80133,5.47867 1.78134,11.22 2.06134,16.576 -6.64667,-4.03067 -14.20534,-11.80667 -16.772,-19.44533 0.408,2.244 0.33066,4.76 -0.14,7.02666 -12.93467,-4.60266 -16.15067,-15.652 -15.752,-27.52 -0.97867,4.58267 -1.46667,9.73067 -1.056,13.976 -1.43334,-7.18133 -1.332,-14.956 -0.0733,-22.28133 1.07067,-6.23333 3.44534,-12.15733 6.22,-17.95466 2.31334,-6.98534 5.24534,-13.78934 8.476,-20.38267 0.37734,-0.76933 0.76267,-1.53467 1.148,-2.30133 -2.76666,3.30266 -5.67466,6.50933 -8,10.21333 -2.96133,4.72 -5.79733,11.27733 -6.78533,16.744 0.58667,-7.272 2.772,-14.716 5.92133,-21.428 4.504,-9.59867 12.21867,-17.41733 19.39867,-25.388 5.35467,-9.92533 10.51733,-19.84667 14.32,-30.196 -2.83867,3.90533 -6.34,8.24267 -9.92267,11.47333 2.104,-3.68133 4.088,-7.84933 5.668,-11.75866 2.46667,-6.108005 6.19734,-11.684005 7.92667,-17.665339 1.69467,-5.867999 3.02667,-11.987999 4.64933,-17.817332 0.77334,-2.78 1.136,-5.725334 2.13467,-8.425334 -0.90133,0.976 -1.44533,2.390667 -2.42267,3.333334 0.74134,-1.164 1.196,-2.786667 1.6,-4.150667 0.552,-1.862666 1.112,-3.624 1.43467,-5.576 1.74,-10.539999 7.004,-19.325333 14.576,-26.198666 5.39733,-4.9 18.28133,-13.013333 25.45733,-15.343999 17.26933,-5.6093335 45.66533,-6.9666668 64.51867,-4.1853336 24.26666,3.5786666 43.25466,19.9453326 57.28666,40.0226656 5.61067,8.028 6.90667,18.157333 7.26667,27.545333"
       style="fill:#000000;fill-opacity:1;fill-rule:nonzero;stroke:none;stroke-width:1.33333"
       id="path170498" />
  </g>
</svg>
