<?xml version="1.0" encoding="UTF-8" standalone="no"?>
<!-- Created with Inkscape (http://www.inkscape.org/) -->

<svg
   version="1.1"
   id="svg1154"
   width="400"
   height="400"
   viewBox="0 0 400 400"
   sodipodi:docname="MaleCentrePartHair.svg"
   inkscape:version="1.2.2 (b0a8486, 2022-12-01)"
   xmlns:inkscape="http://www.inkscape.org/namespaces/inkscape"
   xmlns:sodipodi="http://sodipodi.sourceforge.net/DTD/sodipodi-0.dtd"
   xmlns="http://www.w3.org/2000/svg"
   xmlns:svg="http://www.w3.org/2000/svg">
  <defs
     id="defs1158" />
  <sodipodi:namedview
     id="namedview1156"
     pagecolor="#ffffff"
     bordercolor="#666666"
     borderopacity="1.0"
     inkscape:showpageshadow="2"
     inkscape:pageopacity="0.0"
     inkscape:pagecheckerboard="0"
     inkscape:deskcolor="#d1d1d1"
     showgrid="false"
     inkscape:zoom="2.1875"
     inkscape:cx="202.74286"
     inkscape:cy="145.82857"
     inkscape:window-width="1920"
     inkscape:window-height="1080"
     inkscape:window-x="2439"
     inkscape:window-y="97"
     inkscape:window-maximized="0"
     inkscape:current-layer="layer1">
    <inkscape:page
       x="0"
       y="0"
       id="page1160"
       width="400"
       height="400" />
  </sodipodi:namedview>
  <g
     id="g1162"
     inkscape:groupmode="layer"
     inkscape:label="Hair Back">
    <path
       d="m 219.27919,113.83227 c -3.78533,-0.28133 -7.75733,-0.616 -11.51333,0.13867 -1.54933,0.312 -2.284,1.16667 -3.628,1.72533 -1.62533,0.676 -3.49867,0.084 -5.12533,0.804 -1.612,0.712 -2.95467,1.51067 -4.592,2.05467 -1.75733,0.58267 -3.424,1.01467 -4.792,2.44533 -3.15467,3.30134 -4.04,8.33067 -5.62,12.56534 -1.864,4.99733 -4.37733,9.716 -7.44933,13.97466 1.80133,-0.46933 3.54533,-1.192 5.17333,-2.14 -2.75333,5.52134 -6.836,10.276 -11.74533,13.67734 3.2,0.0773 6.41333,-1.112 8.88533,-3.288 -4.27867,8.25466 -11.37467,14.792 -19.636,18.09333 5.596,1.55867 11.83333,-0.16933 16.25467,-4.09333 -1.20134,1.06666 -2.072,3.53733 -3.09867,4.892 -1.32667,1.75066 -2.812,3.364 -4.428,4.81066 -1.51067,1.35067 -3.32933,3.012 -5.19067,3.76134 -1.956,0.788 -4.01733,0.79333 -5.81466,2.16133 1.55733,1.73733 5.89733,2.67733 8.09466,2.80133 2.55334,0.14534 5.18534,-0.544 7.576,-1.44933 -2.46,1.80133 -5.27866,3.03733 -8.21066,3.60533 -1.708,0.33067 -3.50134,0.45334 -5.02534,1.34134 0.44267,-0.25867 4.06,0.916 4.816,0.99466 1.316,0.136 2.63067,0.356 3.97467,0.528 2.928,0.376 6.17067,0.168 8.92933,-1.01866 -0.124,6.63866 -6.20266,12.52133 -9.72933,17.43866 1.90933,-0.18533 3.94133,-1.51333 5.82933,-2.024 2.02934,-0.548 4.07467,-1.07733 6.12,-1.73067 3.27467,-1.04533 6.632,-2.52933 9.60934,-4.27333 1.72933,-1.01333 3.812,-1.47067 5.39866,-2.628 1.244,-0.90666 2.216,-2.16666 3.432,-3.04 2.17734,-1.56266 4.52933,-3.15066 6.888,-4.64666 2.724,-1.72934 4.89467,-4.132 7.61467,-5.852 2.972,-1.87734 5.64133,-4.13734 7.95466,-6.89067 4.58534,-5.45867 7.48934,-12.29733 9.16267,-19.36533 2.868,-12.11067 3.56267,-25.79334 -1.872,-37.30534 -1.77467,-3.76 -4.00533,-7.75333 -8.24267,-8.068"
       style="fill:#383838;fill-opacity:1;fill-rule:nonzero;stroke:none;stroke-width:1.33333"
       id="path1866" />
    <path
       d="m 219.27919,113.83227 c -3.78533,-0.28133 -7.75733,-0.616 -11.51333,0.13867 -1.54933,0.312 -2.284,1.16667 -3.628,1.72533 -1.62533,0.676 -3.49867,0.084 -5.12533,0.804 -1.612,0.712 -2.95467,1.51067 -4.592,2.05467 -1.75733,0.58267 -3.424,1.01467 -4.792,2.44533 -3.15467,3.30134 -4.04,8.33067 -5.62,12.56534 -1.864,4.99733 -4.37733,9.716 -7.44933,13.97466 1.80133,-0.46933 3.54533,-1.192 5.17333,-2.14 -2.75333,5.52134 -6.836,10.276 -11.74533,13.67734 3.2,0.0773 6.41333,-1.112 8.88533,-3.288 -4.27867,8.25466 -11.37467,14.792 -19.636,18.09333 5.596,1.55867 11.83333,-0.16933 16.25467,-4.09333 -1.20134,1.06666 -2.072,3.53733 -3.09867,4.892 -1.32667,1.75066 -2.812,3.364 -4.428,4.81066 -1.51067,1.35067 -3.32933,3.012 -5.19067,3.76134 -1.956,0.788 -4.01733,0.79333 -5.81466,2.16133 1.55733,1.73733 5.89733,2.67733 8.09466,2.80133 2.55334,0.14534 5.18534,-0.544 7.576,-1.44933 -2.46,1.80133 -5.27866,3.03733 -8.21066,3.60533 -1.708,0.33067 -3.50134,0.45334 -5.02534,1.34134 0.44267,-0.25867 4.06,0.916 4.816,0.99466 1.316,0.136 2.63067,0.356 3.97467,0.528 2.928,0.376 6.17067,0.168 8.92933,-1.01866 -0.124,6.63866 -6.20266,12.52133 -9.72933,17.43866 1.90933,-0.18533 3.94133,-1.51333 5.82933,-2.024 2.02934,-0.548 4.07467,-1.07733 6.12,-1.73067 3.27467,-1.04533 6.632,-2.52933 9.60934,-4.27333 1.72933,-1.01333 3.812,-1.47067 5.39866,-2.628 1.244,-0.90666 2.216,-2.16666 3.432,-3.04 2.17734,-1.56266 4.52933,-3.15066 6.888,-4.64666 2.724,-1.72934 4.89467,-4.132 7.61467,-5.852 2.972,-1.87734 5.64133,-4.13734 7.95466,-6.89067 4.58534,-5.45867 7.48934,-12.29733 9.16267,-19.36533 2.868,-12.11067 3.56267,-25.79334 -1.872,-37.30534 -1.77467,-3.76 -4.00533,-7.75333 -8.24267,-8.068"
       style="opacity:0.199997;fill:#000000;fill-opacity:1;fill-rule:nonzero;stroke:none;stroke-width:1.33333"
       id="path1876" />
    <path
       d="m 174.16746,167.71947 c 1.976,-1.95733 4.54667,-3.66 6.85334,-5.2 -3.04534,6.73067 -4.69867,14.86 -10.38934,19.95334 l -0.15333,0.13866 c -0.38,0.34 -0.78133,0.69867 -1.20267,1.06267 1.484,-1.28 4.79334,-1.24 6.64,-1.85867 4.88534,-1.636 8.67734,-4.212 12.864,-7.12666 3.5,-2.436 6.732,-4.99734 10.30534,-7.20667 -1.7,3.24 -5.14267,6.072 -7.292,9.04133 -1.31067,1.80934 -3.08,4.23334 -4.752,5.86667 3.98,-3.46267 8.528,-7.07467 13.19466,-9.53067 3.712,-1.95466 7.256,-2.02533 11.22267,-2.84933 0.576,6.35733 -5.25334,13.956 -8.452,18.99333 -2.164,3.40934 -4.41867,8.884 -8.12667,10.96934 -0.264,0.14933 -0.536,0.27999 -0.816,0.39333 -4.76266,1.912 -9.81466,3.96533 -14.72933,5.53466 -2.04667,0.65467 -4.09067,1.18267 -6.12133,1.732 -1.88667,0.51067 -3.91867,1.83867 -5.828,2.02267 3.52666,-4.916 9.60533,-10.8 9.72933,-17.43733 -1.95067,0.83867 -4.14267,1.188 -6.29467,1.188 -0.892,0 -1.77733,-0.06 -2.636,-0.16933 -1.34266,-0.172 -2.65733,-0.392 -3.97333,-0.52934 -0.68133,-0.0707 -3.68533,-1.03066 -4.59733,-1.03066 -0.1,0 -0.176,0.012 -0.21867,0.0373 1.524,-0.88933 3.31733,-1.012 5.02533,-1.34133 2.932,-0.568 5.75067,-1.80534 8.21067,-3.60534 -2.176,0.824 -4.552,1.46934 -6.88533,1.46934 -0.23067,0 -0.46134,-0.007 -0.69067,-0.02 -2.19733,-0.12534 -6.53733,-1.064 -8.09467,-2.80134 1.79734,-1.36933 3.85867,-1.37466 5.81467,-2.16133 1.86133,-0.74933 3.68,-2.41067 5.19067,-3.76133 1.616,-1.44667 3.10133,-3.06 4.428,-4.81067 1.02666,-1.35467 1.89733,-3.82533 3.09866,-4.892 -3.32933,2.95333 -7.68533,4.66267 -12.024,4.66267 -1.424,0 -2.848,-0.184 -4.23066,-0.56934 8.26133,-3.30133 15.35733,-9.84 19.636,-18.09333 -2.396,2.10933 -5.488,3.29067 -8.59067,3.29067 -0.0973,0 -0.196,-0.001 -0.29467,-0.003 4.90934,-3.40133 8.992,-8.156 11.74534,-13.67867 -1.628,0.94934 -3.372,1.67067 -5.17334,2.14134 3.072,-4.25867 5.58534,-8.97734 7.44934,-13.97467 1.58,-4.23467 2.46533,-9.26533 5.62,-12.56533 2.652,-2.77467 8.64266,-3.55867 12.23199,-4.484 2.204,-0.568 4.092,-0.97067 6.40267,-1.18 -0.20667,0.0187 -1.04933,1.408 -1.24267,1.62533 -0.44666,0.50133 -0.928,0.96933 -1.44,1.40267 -2.268,1.92133 -5.57333,2.08133 -8.32799,2.84666 -2.032,0.564 -4.06934,1.46 -5.40534,3.09334 -0.79733,0.97466 -1.29733,2.152 -1.85866,3.28 -1.08667,2.184 -2.55734,4.30266 -3.27734,6.64533 -0.828,2.69467 -0.864,5.68267 -1.488,8.436 -0.64933,2.86 -1.712,5.704 -3.664,7.892 1.85467,-1.24133 3.46,-2.85467 4.69334,-4.716 -1.23734,4.352 -2.72134,8.708 -4.628,12.816 -1.65867,3.57733 -4.69867,6.336 -7.45734,9.06133"
       style="fill:#000000;fill-opacity:1;fill-rule:nonzero;stroke:none;stroke-width:1.33333"
       id="path1886" />
    <path
       d="m 219.27919,113.83227 c -3.78533,-0.28133 -7.75733,-0.616 -11.51333,0.13867 -1.54933,0.312 -2.284,1.16667 -3.628,1.72533 -1.62533,0.676 -3.49867,0.084 -5.12533,0.804 -1.85333,0.81867 -3.596,1.82 -5.56267,2.30267 -1.152,0.28267 -2.596,0.172 -3.56266,1.01467 -2.46267,2.14533 -1.87467,7.84 -2.44534,10.87866 -0.67733,3.60134 -1.23466,6.932 -1.23466,10.74267 0,3.74133 0.74933,7.424 0.58933,11.16533 -0.128,3.01467 -2.29733,5.7 -3.68933,8.21067 -1.90267,3.43467 -3.99334,5.74933 -6.50267,8.40933 0.23467,-2.76 2.48533,-5.18266 2.484,-7.972 -1.24267,0.72267 -2.61467,2.46134 -3.33867,3.74534 -2.21866,0.73333 -4.17066,3.768 -6.264,4.88666 -1.72533,0.92267 -3.74666,0.84534 -5.52533,1.62667 -1.60133,0.70267 -3.07867,1.71467 -4.724,2.372 5.596,1.55867 11.83333,-0.16933 16.25467,-4.09333 -1.20134,1.06666 -2.072,3.53733 -3.09867,4.892 -1.32667,1.75066 -2.812,3.364 -4.428,4.81066 -1.51067,1.35067 -3.32933,3.012 -5.19067,3.76134 -1.956,0.788 -4.01733,0.79333 -5.81466,2.16133 1.55733,1.73733 5.89733,2.67733 8.09466,2.80133 2.55334,0.14534 5.18534,-0.544 7.576,-1.44933 -2.46,1.80133 -5.27866,3.03733 -8.21066,3.60533 -1.708,0.33067 -3.50134,0.45334 -5.02534,1.34134 0.44267,-0.25867 4.06,0.916 4.816,0.99466 1.316,0.136 2.63067,0.356 3.97467,0.528 2.928,0.376 6.17067,0.168 8.92933,-1.01866 -0.124,6.63866 -6.20266,12.52133 -9.72933,17.43866 1.90933,-0.18533 3.94133,-1.51333 5.82933,-2.024 2.02934,-0.548 4.07467,-1.07733 6.12,-1.73067 3.27467,-1.04533 6.632,-2.52933 9.60934,-4.27333 1.72933,-1.01333 3.812,-1.47067 5.39866,-2.628 1.244,-0.90666 2.216,-2.16666 3.432,-3.04 2.17734,-1.56266 4.52933,-3.15066 6.888,-4.64666 2.724,-1.72934 4.89467,-4.132 7.61467,-5.852 2.972,-1.87734 5.64133,-4.13734 7.95466,-6.89067 4.58534,-5.45867 7.48934,-12.29733 9.16267,-19.36533 2.868,-12.11067 3.56267,-25.79334 -1.872,-37.30534 -1.77467,-3.76 -4.00533,-7.75333 -8.24267,-8.068"
       style="opacity:0.199997;fill:#000000;fill-opacity:1;fill-rule:nonzero;stroke:none;stroke-width:1.33333"
       id="path1896" />
    <path
       d="m 219.27919,113.83227 c -3.78533,-0.28133 -7.75733,-0.616 -11.51333,0.13867 -1.54933,0.312 -2.284,1.16667 -3.628,1.72533 -1.62533,0.676 -3.49867,0.084 -5.12666,0.804 -2.72134,1.204 -4.196,5.57067 -4.53867,8.5 -0.38,3.24267 -0.56533,6.12534 -1.38267,9.272 -1.248,4.79734 -3.52266,9.19867 -6.408,12.96 -1.188,1.54934 -2.85333,2.68934 -3.94666,4.544 1.98666,0.08 4.51333,-1.69733 5.98666,-2.96266 1.312,-1.12667 2.28667,-3.27067 3.748,-3.99334 -0.25333,4.00267 -2.44533,8.25734 -4.71066,11.356 -2.25867,3.08934 -6.63334,5.52 -8.228,8.82534 2.98,-0.57334 6.32266,-3.57867 8.71333,-5.52534 1.63867,-1.33333 4.632,-3.06133 5.45467,-5.128 -0.052,1.83067 -1.292,2.66 -2.18134,4.084 -0.868,1.388 -1.50666,2.984 -2.436,4.332 -1.92133,2.784 -3.77866,5.79734 -5.91333,8.344 -1.34933,1.60934 -2.908,3.32667 -4.628,4.56534 -1.79867,1.29466 -3.52,3.08266 -5.45333,4.116 3.452,0.30533 6.29733,-2.46 8.896,-4.348 3.13333,-2.276 6.27466,-4.308 9.08,-7.18534 -2.60534,3.192 -4.90934,6.71867 -7.964,9.464 -1.75867,1.58134 -3.75334,2.852 -5.452,4.544 3.71066,0.256 9.48933,-1.056 12.076,-3.932 -0.97867,0.92267 -1.68667,2.02934 -2.78267,2.91734 -1.22667,0.99333 -2.37333,1.53066 -3.676,2.34266 -1.58667,0.98667 -3.24,2.03334 -4.66267,3.16134 0.93867,-0.276 1.88134,-0.84267 2.85734,-0.83067 0.51066,4.31067 -3.66267,7.85333 -5.52934,11.164 -1.24933,2.216 -2.27866,4.404 -3.82133,6.472 -0.69067,0.924 -3.744,6.00266 -4.724,6.09733 1.90933,-0.18533 3.94133,-1.51333 5.82933,-2.024 2.02934,-0.548 4.07467,-1.07733 6.12,-1.73067 3.27467,-1.04533 6.632,-2.52933 9.60934,-4.27333 1.72933,-1.01333 3.812,-1.47067 5.39866,-2.628 1.244,-0.90666 2.216,-2.16666 3.432,-3.04 2.17734,-1.56266 4.52933,-3.15066 6.888,-4.64666 2.724,-1.72934 4.89467,-4.132 7.61467,-5.852 2.972,-1.87734 5.64133,-4.13734 7.95466,-6.89067 4.58534,-5.45867 7.48934,-12.29733 9.16267,-19.36533 2.868,-12.11067 3.56267,-25.79334 -1.872,-37.30534 -1.77467,-3.76 -4.00533,-7.75333 -8.24267,-8.068"
       style="opacity:0.199997;fill:#000000;fill-opacity:1;fill-rule:nonzero;stroke:none;stroke-width:1.33333"
       id="path1912" />
  </g>
  <g
     inkscape:groupmode="layer"
     id="layer1"
     inkscape:label="Hair Front">
    <path
       d="m 333.00626,65.690942 c 1.07866,1.829333 2.60133,3.776 3.25866,5.802666 0.61334,1.893333 1.10267,3.725333 1.99867,5.549333 0.736,1.497334 1.75467,2.848 2.02667,4.532 0.26,1.614667 0.296,3.336 0.54533,4.977334 0.524,3.457333 1.28267,6.946666 2.992,10.031999 0.96133,1.732 1.44933,3.523996 1.96667,5.475996 0.484,1.828 0.23466,3.64267 0.52,5.484 0.21466,1.38667 0.944,2.336 1.62666,3.524 0.7,1.21867 1.032,2.79467 1.96934,3.776 0.69733,-0.78 0.76533,-2.25866 1.01333,-3.33066 0.32,-1.388 0.77733,-2.70534 0.98133,-4.09867 0.55734,-3.80133 -0.59466,-7.609332 -0.59466,-11.414666 0,-1.862666 0.0867,-3.706666 0.0867,-5.548 0,-3.212 -0.12,-6.406666 -0.51333,-9.515999 -0.41867,-3.309334 -1.26267,-6.733334 -1.9,-10.004 -0.632,-3.237333 -1.60267,-6.477333 -2.48533,-9.758667 -0.26,-0.969333 -0.23867,-1.794666 -0.71067,-2.659999 -0.39467,-0.722667 -0.864,-1.157334 -1.32533,-1.776 -0.99467,-1.333334 -1.90534,-2.704 -2.88134,-4.021334 -1.13333,-1.530666 -1.68533,-3.473333 -2.76,-5.085333 -6.97999,-10.469333 -37.02933,-28.305332 -56.99733,-21.713333 -0.28133,0.09333 -0.54133,0.188 -0.81333,0.282667 -6.636,-2.572 -14.11467,-4.298667 -22.25733,-4.548 -25.396,-0.774667 -35.86534,9.888 -46.33467,14.734666 -10.468,4.846667 -23.45733,34.314666 -23.45733,57.771999 0,23.458669 -4.45867,24.621329 -4.45867,31.987999 0,7.368 7.75467,39.54933 7.75467,39.54933 0,0 2.32533,-6.39733 7.75466,-7.75466 2.732,-0.68267 6.74134,-4.80534 10.62,-8.87867 -2.04533,3.716 -4.956,6.972 -8.42133,9.436 5.15867,-1.932 11.94133,-7.18267 15.70933,-11.20133 3.92267,-4.184 7.69734,-7.53334 10.20134,-9.93867 0.244,-0.236 0.51466,-0.608 0.79866,-1.07733 1.776,-1.02667 3.692,-2.188 5.65334,-3.432 -4.20134,4.25466 -7.06134,6.812 -7.06134,6.812 8.41334,-3.76667 15.98,-11.13067 20.82534,-16.612 0.52133,-0.43067 1.02,-0.85467 1.49733,-1.27334 -3.28533,4.93067 -7.06667,9.828 -7.06667,9.828 8.35734,-8.48933 12.94267,-14.48533 15.436,-18.33866 1.752,-2.012 3.46267,-4.17867 5.07734,-6.604 -5.11467,14.81066 -9.792,20.72266 -9.792,20.72266 11.19333,-11.16133 18.16133,-35.417329 21.112,-47.714662 -0.32267,4.314667 -0.79334,8.558666 -1.688,12.917333 -1.404,6.842667 -3.004,14.586669 -6.60534,20.707999 5.86534,-7.74133 8.656,-17.745332 10.73867,-27.081332 2.02267,-9.062667 0.66933,-24.290666 12.42133,-26.266666 3.05334,-0.513333 5.516,0.09867 7.99467,0.704 0.748,0.182666 1.608,0.901333 2.26933,1.297333 0.82667,0.494667 1.644,1.004 2.45467,1.524 0.82533,0.530667 1.64267,1.074667 2.46133,1.614667 0.668,0.441333 1.35334,0.94 2.05067,1.342666 0.364,0.210667 0.788,0.361334 1.12933,0.602667 -0.19333,-0.268 -0.376,-0.541333 -0.6,-0.790667 0.71467,0.273334 1.47067,0.862667 2.04134,1.346667 -0.17334,-0.405333 -0.50667,-0.648 -0.78934,-0.969333 0.48667,0.452 1.24,0.728 1.73734,1.226666 0.012,-0.26 -0.16934,-0.505333 -0.20667,-0.749333 0.22533,0.128 0.40933,0.373333 0.62533,0.46 0.02,-0.449333 0.0307,-1.261333 0.34134,-1.573333 0.0813,0.270666 0.22266,0.592 0.21866,0.88 0.25334,-0.308 0.48,-0.872 0.6,-1.252 0.0733,0.184 0.0387,0.416 0.0507,0.621333 0.94667,-0.533333 0.82667,-1.966667 1.15333,-2.816 0.23867,-0.618667 0.948,-1.270667 1.36534,-1.78 0.46533,-0.568 1.08933,-1.606667 1.73333,-1.961333 3.92267,-2.162667 11.02133,-3.972 16.908,6.016"
       style="fill:#383838;fill-opacity:1;fill-rule:nonzero;stroke:none;stroke-width:1.33333"
       id="path9882" />
    <path
       d="m 287.90653,28.948276 c 1.05066,-0.118667 2.80933,-1.806667 3.95733,-2.213333 1.672,-0.592 3.40133,-0.810667 5.168,-0.768 3.4,0.08 6.83467,0.642666 10.108,1.550666 6.98267,1.938667 13.54933,5.538667 19.004,10.3 -4.04667,-2.637333 -8.24133,-5.146666 -12.84667,-6.602666 -4.60533,-1.454667 -9.7,-1.789334 -14.22133,-0.092 6.40933,-0.0093 12.92133,1.210666 18.82,3.745333 -3.004,-0.105334 -6.01067,-0.09733 -9.01333,0.02667 0.67466,0.409334 1.34933,0.817334 2.024,1.226667 -1.32,0.589333 -2.83334,0.422667 -4.27867,0.453333 -1.44533,0.032 -3.06,0.382667 -3.84133,1.598667 0.184,-0.286667 6.036,0.646667 6.948,0.629333 2.26266,-0.04133 4.56533,0.225334 6.29466,1.837334 -1.948,0.0027 -4.23466,0.18 -5.28133,1.824 2.328,-0.524 4.67067,-1.049334 7.05467,-1.130667 2.384,-0.08 4.83733,0.310667 6.89733,1.512 -3.41867,-0.182667 -6.95467,-0.349333 -10.15733,0.862667 -3.20134,1.212 -6,4.190666 -5.87467,7.611999 -0.02,-0.469333 8.67867,-1.856 9.37867,-1.964 -4.24267,1.588 -7.93734,3.754667 -10.59467,7.542667 -0.692,-2.262667 -0.856,-4.684 -0.476,-7.018667 -0.52667,0.170667 -1.044,0.5 -1.496,0.786667 -0.20667,-1.389333 -0.0107,-2.932 0.024,-4.350666 0.008,-0.336 -10e-4,-0.716 -0.248,-0.942667 -0.20533,-0.188 -0.508,-0.208 -0.78667,-0.218667 -1.056,-0.03867 -2.11066,-0.07733 -3.16666,-0.116 1.90133,-1.814666 4.09866,-2.492 6.52666,-3.216 -3.38,-1.978666 -8.25866,-2.717333 -12.08666,-3.422666 0.17866,-0.937334 0.69333,-1.808 1.42933,-2.416 -1.456,0.212 -2.94933,0.169333 -4.392,-0.126667 1.41867,-1.892 3.888,-2.68 6.23867,-2.932 2.352,-0.252 4.75066,-0.08267 7.064,-0.572 -4.56,-0.841333 -9.22267,-1.132 -13.852,-0.862666 1.012,-1.689334 2.672,-2.98 4.55866,-3.542667 -2.96133,0.333333 -5.92133,0.666667 -8.88266,1"
       style="opacity:0.100006;fill:#ffffff;fill-opacity:1;fill-rule:nonzero;stroke:none;stroke-width:1.33333"
       id="path9892" />
    <path
       d="m 198.5068,63.656275 c 0.55066,-2.014667 1.11733,-4.024 1.70133,-6.028 1.21866,-4.190666 1.81733,-9.188 3.97866,-13.010666 -6.24399,11.192 -11.65999,23.033333 -13.90666,35.650666 -1.67867,9.433333 -0.892,19.001333 -2.09733,28.411995 -0.68667,5.35867 -3.028,10.39734 -3.59067,15.716 -0.0613,0.58134 -0.0907,1.16667 -0.0907,1.75067 0,7.368 7.75467,39.54933 7.75467,39.54933 0,0 2.32667,-6.39733 7.75466,-7.75466 2.73334,-0.68267 6.74267,-4.80534 10.62,-8.87867 -2.04533,3.716 -4.95466,6.972 -8.42,9.436 8.71467,-3.26533 14.36667,-9.77467 16.55734,-18.78 0.72133,-2.96533 1.24933,-6.768 2.264,-9.32933 -0.88,2.22133 -3.428,3.84266 -5.28934,5.16266 -1.096,0.776 -2.23733,1.70667 -3.44133,2.30534 -1.23467,0.61466 -2.24533,1.46266 -3.464,2.13866 -1.27333,0.708 -2.36667,1.384 -3.80133,2.05067 -0.452,0.20933 -0.89467,0.41067 -1.336,0.608 -1.124,0.50133 -2.23067,0.976 -3.39734,1.49333 -1.03733,0.46 -2.89599,1.1 -3.37199,2.16 0.31866,-1.272 1.73466,-3.44 2.592,-4.52933 5.75333,-7.31467 11.94799,-14.27467 17.63199,-21.64 3.25867,-4.22533 6.13867,-8.89067 7.30667,-14.096 -4.81867,8.56267 -11.088,16.44533 -19.09067,22.14533 5.49467,-6.564 10.508,-13.552 14.91734,-20.89066 -0.74534,1.848 -3.33334,3.26 -4.79334,4.56533 -1.86533,1.66933 -3.676,3.40133 -5.42533,5.192 -5.01333,5.12667 -9.14933,10.72 -13.484,16.40267 -0.20133,0.26533 -0.464,0.55733 -0.79466,0.52533 -0.52267,-0.0507 -0.60667,-0.776 -0.52934,-1.29467 1.192,-7.892 5.29333,-15.076 10.21333,-21.36 5.68667,-7.264 12.26534,-13.698662 18.51867,-20.446662 6.04533,-6.525333 11.408,-13.682667 15.96667,-21.321333 0.596,-0.998667 1.04266,-2.112 1.684,-3.078667 -0.74534,1.122667 -1.96534,1.916 -2.916,2.857334 -1.38534,1.369333 -2.72267,2.789333 -4.09067,4.177333 -2.67333,2.712 -5.36533,5.405333 -8.076,8.081333 -10.78667,10.649333 -22.05333,20.344002 -30.932,32.710662 6.44667,-14.375996 17.05467,-26.377329 28.484,-37.018662 -7.66267,3.48 -14.636,8.216 -20.944,13.768 -5.57333,4.861333 -8.95333,10.328002 -11.69333,17.121332 1.05067,-2.60533 0.50933,-5.84267 0.64267,-8.562666 0.10266,-2.078666 -0.13734,-4.074666 0.18133,-6.133333 1.088,-7.002666 2.128,-13.794666 3.83067,-20.689333 0.75466,-3.056 1.54666,-6.101333 2.376,-9.137333"
       style="opacity:0.199997;fill:#000000;fill-opacity:1;fill-rule:nonzero;stroke:none;stroke-width:1.33333"
       id="path9908" />
    <path
       d="m 339.37212,92.885341 c 0.364,2.290667 0.46267,4.62 0.17467,6.977333 -0.144,1.179996 -0.33333,2.274666 -0.33867,3.497336 -0.005,1.16533 -0.41066,2.16666 -0.51866,3.26133 0.34266,-0.49867 0.536,-1.476 0.73333,-2.06133 0.224,-0.664 0.49867,-1.316 0.70133,-1.98667 0.90134,-2.967999 1.45734,-6.346666 1.55734,-9.441332 0.0653,-1.990667 1.492,0.714666 1.73866,1.264 0.63334,1.404 0.77867,3.042666 0.992,4.557333 0.13467,0.949333 0.25734,1.875999 0.39734,2.807999 0.10133,0.68 0.428,1.31733 0.624,1.968 0.20666,0.68667 0.26666,1.408 0.54533,2.076 0.49067,1.172 1.01467,1.94533 1.21867,3.2 0.244,1.504 0.544,3.032 0.91866,4.50933 0.36534,1.44 1.01067,4.10667 2.22134,5.212 0.296,0.27067 1.85866,-4.16533 1.82666,-4.69066 -0.108,-1.776 -0.51066,-3.50934 -0.83466,-5.24267 -0.31734,-1.70267 -0.552,-3.35467 -0.92934,-5.056 -0.91866,-4.139999 -1.344,-8.535999 -2.14266,-12.739999 -0.516,-2.717333 -1.052,-5.432 -1.608,-8.142666 -0.58534,-2.858667 -1.16934,-5.712 -2.15334,-8.465334 -0.26533,-0.742666 -0.55733,-1.499999 -0.544,-2.287999 1.95067,2.450666 3.448,5.261333 4.39467,8.246666 -0.33867,-4.028 -2.17867,-7.528 -3.07333,-11.396 -0.71067,-3.074666 -1.812,-6.372 -3.60667,-9.165333 -1.904,-2.964 -2.91467,-6.202666 -4.912,-9.101333 -0.11733,-0.170667 -0.228,-0.344 -0.33467,-0.52 -0.81066,-1.334667 -1.36,-2.817333 -2.21466,-4.126666 -2.68267,-4.112 -6.66933,-6.117334 -11.45867,-7.229334 -3.49733,-0.812 -11.64,-1.985333 -14.104,0.462667 6.24267,0.008 13.832,0.177333 18.504,4.997333 -5.216,-2.384 -13.852,0.332 -17.07333,4.904 2.52667,-0.36 8.58,-1.348 10.808,-0.150667 -3.716,0.450667 -7.73333,1.825334 -10.85333,4.113334 -3.30667,2.424 -2.76534,3.912 -1.11867,6.506666 -1.236,-0.488 -2.59333,-1.045333 -3.864,-0.496 1.088,1.524 2.04,2.92 2.58933,4.844 0.264,0.929333 0.75867,2.244 1.91734,2.234667 1.024,-0.0093 1.96533,-1.037334 2.60533,-1.718667 0.88933,-0.944 1.492,-2.297333 2.89067,-2.552 1.43333,-0.26 2.74533,-0.429333 4.22133,-0.349333 1.556,0.08267 3.33067,0.204 4.77733,0.832 1.28134,0.556 2.42667,1.918666 3.316,2.965333 2.02267,2.378667 3.49334,5.170667 4.844,7.968 1.69467,3.513333 3.24933,7.094666 4.65733,10.733333 1.104,2.852 2.032,5.784 2.508,8.781333"
       style="opacity:0.199997;fill:#000000;fill-opacity:1;fill-rule:nonzero;stroke:none;stroke-width:1.33333"
       id="path9924" />
    <path
       d="m 337.08706,73.515741 c 0.684,1.458667 1.672,2.92 2.11333,4.441334 0.49733,1.717333 0.50933,3.542666 1.028,5.258666 1.24133,4.116 2.14133,8.249333 3.08,12.322667 0.50133,2.174666 0.92667,4.552002 1.89333,6.610662 0.62,1.32267 1.816,4.16667 3.364,4.59334 0.98134,-0.78934 0.576,-3.064 0.38934,-4.136 -0.29067,-1.66 -0.53467,-3.422669 -0.808,-5.106669 -0.39334,-2.433333 -1.31334,-4.732 -1.79467,-7.2 -0.27067,-1.393333 -0.54533,-3.076 -0.952,-4.44 -0.36,-1.208 -1.26,-2.257333 -1.80133,-3.376 -0.588,-1.217333 -1.516,-2.152 -2.092,-3.316 -0.796,-1.606666 -1.164,-3.650666 -1.73334,-5.358666 -1.048,-3.148 -2.10133,-6.552 -2.88933,-9.764 -0.83333,-3.390667 -0.68667,-6.818666 -2.892,-9.773333 -0.348,-0.468 -0.73733,-0.902667 -1.15333,-1.310667 -0.656,-0.645333 -1.38,-1.225333 -2.12267,-1.772 -0.59466,-0.437333 -1.35733,-1.108 -2.09466,-1.225333 0.50666,0.753333 1.024,1.553333 1.48,2.38 0.44133,0.798667 1.056,1.917333 1.004,2.844 0.007,-0.108 -0.96,-1.132 -1.08134,-1.276 -0.45466,-0.546667 -0.976,-1.036 -1.54666,-1.46 -1.48534,-1.104 -3.176,-1.601333 -4.99067,-1.814667 -2.256,-0.265333 -3.91733,0.384 -5.97733,1.121334 1.276,-0.456 2.73066,-0.388 3.956,0.188 -1.96134,0.690666 -4.044,1.065333 -5.90534,1.993333 -1.86133,0.929333 -3.54133,2.598667 -3.71333,4.670667 -0.44133,-0.701334 -0.88267,-1.402667 -1.324,-2.105334 -0.13333,1.436 -0.0613,2.889334 0.216,4.304 -1.43467,-1.494666 -3.684,-2.154666 -5.69867,-1.673333 0.11467,-0.03333 1.456,2.266666 1.59334,2.498666 0.43733,0.738667 0.764,1.529334 1,2.357334 1.73866,6.090666 6.18933,-1.944 8.464,-4.317333 3.92266,-2.161334 11.02266,-3.972 16.908,6.015999 0.80933,1.373334 1.61333,2.748 2.41866,4.121334 0.34133,0.581333 0.43467,1.022666 0.62133,1.638666 0.22267,0.730667 0.71867,1.376 1.04134,2.065333"
       style="opacity:0.199997;fill:#000000;fill-opacity:1;fill-rule:nonzero;stroke:none;stroke-width:1.33333"
       id="path9940" />
    <path
       d="m 280.67879,26.853876 c -1.54666,-0.798667 -3.052,-1.708 -4.696,-2.28 -1.71066,-0.594667 -3.44133,-0.793333 -5.204,-1.162667 -5.69866,-1.196 -9.42,-2.425333 -15.208,-0.636 -2.48133,0.768 -4.81733,2.148 -6.436,4.205334 2.596,-3.298667 12.97867,-2.3 16.46,-1.648 5.16534,0.968 10.352,3.232 14.01467,7.082666 -4.86933,-2.112 -10.55467,-2.270666 -15.53467,-0.433333 -4.98,1.836 -9.2,5.649333 -11.53066,10.418666 4.29866,-4.014666 9.58133,-7.124 15.372,-8.162666 5.78933,-1.037333 12.09466,0.158666 16.668,3.858666 -3.37734,-0.790666 -6.82534,-1.586666 -10.28134,-1.289333 -3.45733,0.297333 -6.98933,1.876 -8.76666,4.856 3.49066,-1.098667 7.04266,-2.208 10.70133,-2.270667 3.66,-0.06267 7.51067,1.065334 9.93867,3.805334 -4.88134,0.644 -9.996,-0.716 -14.688,0.774666 -6.11467,1.944 -9.73467,8.069333 -12.79067,13.712 4.524,-3.372 9.132,-6.788 14.432,-8.725333 5.29867,-1.936 11.48533,-2.217334 16.384,0.581333 -3.1,-0.374667 -6.216,0.908 -8.69067,2.812 -2.476,1.905333 -4.42133,4.397333 -6.37866,6.832 -8.72934,10.868 -18.204,21.135999 -28.336,30.709332 6.69066,-6.242666 18.52266,-9.053333 22.71733,-17.543999 -2.75333,10.624 -5.50667,21.249333 -8.26,31.873335 -0.0853,-3.44267 -0.81333,-6.869336 -2.13467,-10.049336 -3.03466,8.689336 -7.68933,16.809336 -13.65066,23.819996 2.27066,-5.132 3.492,-10.72666 3.56533,-16.33733 -1.91333,9.068 -6.44933,17.56667 -12.91867,24.20267 1.17334,-2.98267 2.03867,-6.08667 2.576,-9.24667 -7.04933,10.80667 -11.87333,23.89333 -22.73466,30.856 1.79066,-4.36 6.27333,-11.216 5.476,-16.10533 -2.668,3.25866 -6.15467,5.82533 -9.736,8.12933 -1.304,0.83867 -2.62,1.644 -3.91467,2.43333 -4.95467,3.02667 -8.172,7.11467 -12.184,11.29067 -0.876,0.912 -6.464,-8.112 -6.748,-9.19867 -1.13466,6.70667 2.512,15.10934 4.09467,21.67867 0,0 2.32667,-6.39733 7.75466,-7.75467 2.73334,-0.68266 6.74267,-4.80533 10.62,-8.88 -2.04533,3.71734 -4.95466,6.97334 -8.42,9.43734 5.15734,-1.93334 11.94134,-7.18267 15.70934,-11.20134 3.92266,-4.18533 7.69733,-7.53466 10.2,-9.93866 0.24533,-0.236 0.516,-0.608 0.8,-1.07734 1.77466,-1.02666 3.69066,-2.188 5.65333,-3.432 -4.20133,4.25467 -7.06133,6.812 -7.06133,6.812 8.41333,-3.76666 15.97866,-11.13066 20.82533,-16.612 0.52133,-0.43066 1.02,-0.85466 1.496,-1.27333 -3.284,4.93067 -7.06533,9.828 -7.06533,9.828 8.356,-8.48933 12.94133,-14.48533 15.436,-18.33867 1.752,-2.012 3.46133,-4.17866 5.076,-6.604 -5.11334,14.81067 -9.792,20.72267 -9.792,20.72267 11.19466,-11.16133 18.16266,-35.417332 21.112,-47.714665 -0.32134,4.314666 -0.79334,8.558666 -1.68667,12.917333 -1.404,6.842666 -3.004,14.586662 -6.60533,20.708002 5.864,-7.74134 8.656,-17.745336 10.73866,-27.081335 2.02134,-9.062667 0.66934,-24.290667 12.42,-26.266666 4.79867,-0.808 8.18267,1.007999 12.22134,3.195999 2.76,1.496 5.78,2.217334 8.51733,3.761334 1.33733,-2.677334 -1.83467,-5.596 -3.408,-7.448 -1.79867,-2.12 -3.80267,-5.421333 -5.93067,-7.588 1.42534,1.026667 3.49067,2.149333 5.16534,2.790667 -2.04667,-2.136 -3.444,-4.766667 -5.388,-7.068 -2.31867,-2.745333 -4.98534,-4.192 -7.82,-6.244 2.86533,1.457333 4.952,4.248 7.92,5.522666 -2.59867,-2.941333 -4.82934,-7.318666 -7.94667,-10.009333 -1.616,-1.396 -3.66267,-2.904 -5.04933,-4.177333 -1.448,-1.329333 -4.60134,-2.818666 -4.99867,-4.881333 -0.70933,-0.269333 -1.39333,-0.598667 -2.07067,-0.948"
       style="opacity:0.199997;fill:#000000;fill-opacity:1;fill-rule:nonzero;stroke:none;stroke-width:1.33333"
       id="path9956" />
    <path
       d="m 254.23413,69.012675 c 0.55866,-0.788 1.12666,-1.569333 1.708,-2.34 2.996,-3.976 6.40533,-7.732 10.516,-10.584 4.45066,-3.088 9.72266,-4.754666 14.90666,-6.150666 -5.12133,1.378666 -9.788,4.605333 -13.80666,7.968 -4.03067,3.370666 -7.59334,7.299999 -10.55067,11.642666 -0.77067,1.130667 -1.50667,2.297333 -2.18667,3.484 1.78134,-0.674667 3.64534,-2.557333 5.05334,-3.866667 1.80666,-1.68 3.30933,-3.642666 4.93466,-5.489333 1.72267,-1.957333 3.73867,-3.58 5.708,-5.28 -0.87333,0.908 -1.828,1.490667 -2.55733,2.582667 -0.70267,1.052 -1.23733,2.204 -1.81867,3.322666 -0.96133,1.853334 -2.07066,3.628 -3.312,5.304 -2.83733,3.830667 -6.344,6.68 -10.01466,9.648 -1.432,1.157333 -3.00667,2.204 -4.272,3.537333 -1.39867,1.474667 -2.66,3.077334 -4.01467,4.592 -7.62267,8.52 -12.56667,19.126669 -19.41467,28.269329 -3.144,4.196 -6.26533,9.10267 -9.91466,12.512 3.096,-2.352 4.62266,-6.50133 6.148,-10.02533 1.42666,-3.292 3.352,-6.49333 4.91066,-9.70267 2.52267,-5.192 5.22,-10.301329 8.17867,-15.257329 2.19333,-3.674667 4.50933,-7.273333 6.79067,-10.893333 1.15733,-1.836 2.30533,-3.677333 3.424,-5.537333 0.976,-1.625334 1.76133,-3.522667 3.004,-4.962667 -0.55734,0.645334 -1.496,0.968 -2.17734,1.481334 -0.872,0.655999 -1.708,1.359999 -2.504,2.107999 -4.15866,3.906667 -7.38666,8.684 -10.59866,13.365333 -3.41867,4.981334 -6.57867,10.14 -9.46534,15.447996 -0.34666,0.636 -0.68933,1.276 -1.02666,1.91734 4.20133,-9.184002 8.43466,-18.422669 14.17333,-26.733335 5.73733,-8.310667 13.12133,-15.729333 22.25333,-20.041333 -6.464,6.954666 -11.4,15.323999 -14.356,24.347999 3.72534,-4.666666 6.82667,-9.796 10.28134,-14.666666"
       style="opacity:0.199997;fill:#000000;fill-opacity:1;fill-rule:nonzero;stroke:none;stroke-width:1.33333"
       id="path9972" />
    <path
       d="m 251.63386,96.598141 c 0.116,-0.170667 0.23067,-0.341333 0.34667,-0.512 -0.33467,4.281329 -1.432,8.502669 -3.224,12.405329 4.812,-4.12933 5.72,-10.246662 8.484,-15.594662 2.35866,-4.564 6.28666,-8.630667 6.57333,-13.758667 -0.088,1.561334 -2.61867,4.054667 -3.63467,5.137334 -1.56533,1.666666 -3.424,3.045333 -5.21866,4.450666 -4.88267,3.826667 -9.596,7.449333 -13.55734,12.259999 -4.29333,5.21333 -8.39066,10.588 -12.28,16.10933 -2.636,3.74267 -5.41866,7.75334 -9.656,9.48134 0.99334,0.004 1.576,-0.80934 2.376,-1.25334 1.02534,-0.56933 2.09334,-0.88266 3.144,-1.44 4.19467,-2.22666 7.23467,-5.96533 10.36534,-9.428 3.57733,-3.95733 6.88666,-8.192 10.29333,-12.30533 -1.12667,4.284 -2.836,8.38533 -5.04133,12.22267 1.66266,-2.89334 3.62933,-5.648 5.3,-8.56934 1.796,-3.13733 3.70666,-6.209329 5.72933,-9.205329"
       style="opacity:0.199997;fill:#000000;fill-opacity:1;fill-rule:nonzero;stroke:none;stroke-width:1.33333"
       id="path9988" />
    <path
       d="m 245.48653,40.230542 c -1.30667,1.850667 -2.46267,3.834667 -3.54667,5.881334 1.244,-1.537334 2.616,-2.952 4.17067,-4.18 -4.2,8.033333 -11.61467,13.809333 -18.808,19.326666 5.904,-5.812 10.85066,-12.593333 14.584,-19.990666 -4.152,4.137333 -8.56934,8.009333 -13.21467,11.583999 6.16267,-6.150666 8.992,-15.265333 15.868,-20.605332 4.40933,-3.424 10.02533,-4.901334 15.56,-5.630667 -7.76267,-1.282667 -16.08133,1.465333 -21.55333,7.12 1.85866,-3.62 4.92666,-6.605333 8.596,-8.364 -4.41734,-0.181333 -8.712,1.382667 -12.756,3.169333 -12.65867,5.590667 -24.576,13.994667 -31.46534,25.996 1.93467,-2.418667 4.12,-4.637334 6.51067,-6.609334 -2.67867,7.514667 -5.38,15.126667 -6.104,23.070667 0.63867,-2.506667 1.69733,-4.885334 2.81467,-7.22 2.27466,-4.752 4.81066,-9.38 7.59333,-13.854667 2.54133,-4.087999 5.30267,-8.065333 8.61067,-11.562666 1.452,-1.536 3.08133,-3.02 5.09733,-3.656 -5.84667,9.386667 -11.692,18.773333 -17.53867,28.158666 9.19867,-5.550666 14.88667,-15.309333 22.48,-22.907999 -4.748,7.878666 -9.62133,15.907999 -16.65466,21.835999 -4.45334,3.753333 -8.292,8.172 -12.01734,12.648 3.33334,-2.702667 6.732,-5.325333 10.19067,-7.865333 1.68267,-1.234667 3.38,-2.450667 5.092,-3.646667 1.432,-1.001333 3.18933,-2.734667 4.93067,-3.072 -1.40134,4.056 -5.69867,6.870667 -8.90134,9.476 -5.48533,4.462666 -10.34133,9.698666 -14.38,15.504 0.648,-0.930667 2.33867,-1.410667 3.276,-2.004 1.40934,-0.890667 2.732,-1.98 4.06267,-2.984 2.59733,-1.958667 5.14667,-3.98 7.64667,-6.061334 5,-4.162666 9.8,-8.566666 14.376,-13.190666 -4.44934,7.336 -10.73067,13.352 -16.93867,19.274666 9.11333,-5.232 16.772,-12.611999 24.328,-19.914666 -4.76933,9.854667 -11.36,18.822666 -19.34267,26.314666 2.64534,-0.252 4.824,-2.14 6.624,-4.093333 3.82667,-4.153333 6.828,-8.993333 10.448,-13.326666 4.53734,-5.432 10.05067,-10.046667 16.196,-13.558667 -3.66266,5.86 -7.908,11.353333 -12.65466,16.374667 7.88533,-5.912 13.76533,-14.089333 18.888,-22.510667 3.42933,-5.637333 7.72666,-11.098666 13.72533,-13.847999 -5.284,0.757333 -10.06667,3.882666 -13.42133,8.036 -2.81867,3.489333 -4.84134,7.805333 -8.61734,10.226666 -0.28533,-3.542667 0.904,-7.182666 3.228,-9.872 -2.52666,1.646667 -4.82133,3.648 -6.796,5.928 3.43067,-10.981333 13.85867,-19.415999 25.31467,-20.474666 -5.77867,-0.933333 -11.864,0.162667 -16.95467,3.052 -3.57733,2.030666 -6.288,4.829333 -8.54666,8.026666"
       style="opacity:0.100006;fill:#ffffff;fill-opacity:1;fill-rule:nonzero;stroke:none;stroke-width:1.33333"
       id="path10004" />
    <path
       d="m 208.98679,110.49254 c -1.24666,1.47733 -2.38533,3.028 -3.284,4.74267 4.668,-3.9 9.33734,-7.79867 14.00534,-11.69867 0.36666,1.932 0.53066,3.90267 0.48533,5.86933 0.0173,-0.772 3.88667,-3.73333 4.54267,-4.46933 1.49466,-1.67467 2.87333,-3.45067 4.12533,-5.311999 1.252,-1.862667 2.37733,-3.809333 3.364,-5.824 0.65467,-1.336 1.19333,-3.969333 2.472,-4.778667 -3.29333,5.870667 -8.55867,11.125336 -13.06667,16.077336 1.13334,-1.4 1.43067,-3.272 1.86667,-5.02 0.96933,-3.889336 3.01467,-7.113336 4.90267,-10.586669 1.276,-2.345333 1.96933,-5.022666 3.75066,-7.072 -6.84133,6.552 -11.416,15.082667 -17.71066,22.117329 -1.78934,2 -3.72534,3.90667 -5.45334,5.95467"
       style="opacity:0.100006;fill:#ffffff;fill-opacity:1;fill-rule:nonzero;stroke:none;stroke-width:1.33333"
       id="path10020" />
    <path
       d="m 222.50933,136.28227 c 0.312,-0.64 1.948,-1.34533 2.548,-1.84133 1.076,-0.88933 1.96133,-1.84267 2.72933,-3.016 1.49467,-2.28 2.392,-4.896 3.612,-7.32133 2.10267,-4.17867 5.28133,-7.996 5.90267,-12.63334 -0.872,6.504 -7.884,11.44934 -12.84267,14.87867 -5.69867,3.94 -12.40533,6.312 -18.04533,10.16667 3.52666,-1.54267 7.16933,-2.02 10.82,-3.21067 1.82533,-0.59467 3.868,-1.37867 5.52666,-2.328 1.10534,-0.632 2.136,-2.04 3.148,-2.39467 0.176,2.80134 -2.29066,5.34 -3.39866,7.7"
       style="opacity:0.100006;fill:#ffffff;fill-opacity:1;fill-rule:nonzero;stroke:none;stroke-width:1.33333"
       id="path10036" />
    <path
       d="m 328.67453,54.717075 c 2.71466,1.346667 4.93199,3.564 6.82133,5.893333 0.93066,1.146667 1.79466,2.352 2.60133,3.589334 0.35067,0.538666 0.716,1.050666 0.92267,1.661333 0.10666,0.318667 0.004,2.206667 0.001,2.202667 -0.852,-1.010667 -1.77067,-2.604 -2.88267,-3.148 -0.17866,0.610666 0.176,1.030666 0.29067,1.668 0.124,0.693333 1.02533,1.998666 1.28267,2.842666 0.44133,1.441334 1.02,2.856 1.528,4.277333 0,1.321334 1.164,3.26 1.60266,4.492 0.68934,1.936 1.37867,3.873334 2.06934,5.810667 1.704,4.784 4.74533,10.356 4.74533,15.524 0.58533,2.408002 1.396,5.322662 1.04533,7.882662 -0.108,0.79467 -0.91066,4.892 -1.804,3.23734 -0.28,-0.51867 -0.12933,-1.956 -0.18933,-2.55067 -0.092,-0.91867 -0.288,-1.836 -0.46533,-2.68 -0.33734,-1.616 -0.63467,-2.88267 -1.86267,-4.04133 -0.188,0.32666 -0.34667,1.036 -0.38667,1.212 -0.33733,-0.64667 -0.40933,-1.82534 -0.45333,-2.50134 -0.61733,-1.743996 -0.62533,-4.138662 -1.00133,-5.917329 -0.70134,-3.316 -0.81467,-6.713333 -1.532,-10.032 -0.88534,-4.098666 -2.49867,-7.837333 -4.00534,-11.721333 -0.94133,-2.426666 -2.684,-4.501333 -3.99599,-6.728 -5.88667,-9.987999 -12.98534,-8.177333 -16.908,-6.015999 -0.644,0.354666 -1.26934,1.393333 -1.73334,1.961333 -0.41733,0.509333 -1.12666,1.161333 -1.36533,1.781333 -0.32667,0.848 -0.208,2.281333 -1.15333,2.814667 -0.012,-0.204 0.0227,-0.437334 -0.0507,-0.621334 -0.12,0.381334 -0.34667,0.945334 -0.6,1.253334 0.004,-0.289334 -0.13733,-0.610667 -0.21867,-0.88 -0.31066,0.312 -0.32133,1.124 -0.34133,1.573333 -0.216,-0.08667 -0.4,-0.333333 -0.62533,-0.461333 0.0373,0.244 0.21866,0.489333 0.20666,0.750666 -0.49733,-0.5 -1.25066,-0.776 -1.73733,-1.226666 0.28267,0.32 0.616,0.562666 0.78933,0.969333 -0.57066,-0.484 -1.32666,-1.074667 -2.04133,-1.348 0.224,0.250667 0.40667,0.522667 0.6,0.790667 -0.34133,-0.24 -0.76667,-0.392 -1.12933,-0.601334 -0.69734,-0.404 -1.38267,-0.901333 -2.052,-1.342666 -0.81734,-0.541334 -1.63467,-1.085334 -2.46,-1.614667 -0.81067,-0.52 -1.628,-1.030667 -2.45467,-1.525333 -0.66133,-0.394667 -1.52133,-1.114667 -2.26933,-1.297334 -2.47867,-0.605333 -4.94267,-1.217333 -7.996,-0.703999 -11.75067,1.975999 -10.39867,17.205332 -12.42,26.267999 -2.08267,9.336 -4.87334,19.340002 -10.73867,27.081332 3.60133,-6.12267 5.20133,-13.865332 6.60533,-20.709332 0.89467,-4.358667 1.36534,-8.601333 1.688,-12.917333 -2.95066,12.297333 -9.91866,36.553335 -21.112,47.714665 0,0 4.67734,-5.912 9.79067,-20.72267 -1.61333,2.42534 -3.324,4.592 -5.076,6.60534 -2.49467,3.852 -7.08,9.848 -15.436,18.33733 0,0 3.78133,-4.89733 7.06533,-9.828 -0.476,0.41867 -0.97466,0.844 -1.496,1.27467 -4.84533,5.48133 -12.412,12.844 -20.82533,16.61066 0,0 2.86,-2.55733 7.06133,-6.812 -1.96133,1.24534 -3.87733,2.40667 -5.65333,3.432 -0.284,0.46934 -0.55467,0.84267 -0.8,1.07734 -2.50267,2.40533 -6.27733,5.75466 -10.2,9.94 -3.768,4.01866 -10.55067,9.268 -15.70933,11.20133 3.46533,-2.46533 6.376,-5.72 8.42133,-9.43733 -3.87867,4.07466 -7.888,8.196 -10.62,8.88 -5.42933,1.356 -7.756,7.75466 -7.756,7.75466 0,0 -7.75466,-32.18266 -7.75466,-39.54933 0,-7.36667 4.46,-8.53067 4.46,-31.987999 0,-23.458666 12.73466,-52.131999 23.20399,-56.978665 5.51467,-2.553334 10.88267,-8.049333 16.896,-9.025333 -0.312,2.432 -2.36133,4.664 -3.94266,6.425333 1.09466,-0.152 2.32266,-0.325334 3.37866,-0.726667 0.472,3.930667 -5.94666,7.081333 -6.73733,10.816 1.132,-0.82 1.78,-2.253333 3.32133,-2.418667 -0.36533,3.269334 -3.23466,6.506667 -3.116,9.869333 1.18267,-0.714666 2.72534,-1.669333 4.16,-1.654666 0.124,2.630666 -0.54533,5.145333 -0.34133,7.765333 0.756,-0.717333 1.95467,-1.586667 3.08267,-2.069333 0.0613,1.170666 10e-4,2.384 0.076,3.552 0.65866,-0.497334 1.396,-0.925334 2.24666,-1.010667 0.0373,2.18 0.48134,4.365333 0.44134,6.642666 0.55466,-1.033333 1.34133,-1.942666 2.356,-2.593333 -1.34,4.352 -4.948,7.561333 -6.04934,11.926666 2.28934,-1.369333 5.696,-3.278666 7.08934,-5.069333 -0.432,1.718667 -1.97067,2.904 -2.30267,4.644 1.812,-0.884 4.488,-1.462666 6.66,-1.792 -0.0627,0.484 0.18133,1.248 0.0947,1.786667 1.80266,-0.064 2.82133,-1.325333 4.40266,-1.84 0.52667,0.726667 0.48534,1.582666 0.66,2.477333 1.45734,-0.102667 2.27467,-1.501333 3.36267,-2.224 -0.032,1.018667 -0.0427,2.058667 0.0133,3.068 1.31867,-0.257333 3.472,-2.26 4.54534,-0.833333 4.98533,-6.064 8.64,-17.158666 16.77333,-19.486666 3.348,-0.958667 6.536,-2.996 9.44667,-4.328 3.104,-1.421334 6.77466,-0.968 10.38666,-0.642667 2.07334,0.188 4.29067,0.8 6.284,1.165333 2.012,0.369334 3.99067,1.558667 6.088,1.396 1.04534,-0.08133 -1.124,-5.981333 -1.34933,-6.353333 -0.66,-1.085333 -1.45733,-2.162666 -2.156,-3.222666 -1.52,-2.302667 -3.436,-4.516 -5.38533,-6.638667 -1.196,-1.302667 -2.59734,-2.198667 -2.86667,-4.034666 2.79733,0.698666 5.42533,2.899999 7.92933,4.245333 2.65467,1.426666 5.504,2.872 5.79067,6.254666 1.72667,-1.26 3.756,-1.337333 5.836,-1.208 -0.93067,1.617334 -4.768,2.218667 -4.796,4.577334 1.596,0.473333 2.97733,-0.222667 4.58133,-0.152 0.30934,1.371999 -0.812,2.457333 -0.996,3.733333 0.816,0.04933 1.66267,0.01467 2.48134,0.064 -0.49734,-0.02933 1.42266,2.581333 2.04266,2.814666 1.52134,0.574667 3.148,-0.196 4.65067,-0.249333 3.656,-0.130667 8.16267,0.244 11.47067,1.885333"
       style="opacity:0.199997;fill:#000000;fill-opacity:1;fill-rule:nonzero;stroke:none;stroke-width:1.33333"
       id="path10052" />
    <path
       d="m 346.71026,58.472809 c -2.624,-6.08 -6.132,-11.697334 -10.76667,-16.558667 -6.716,-7.045333 -15.40133,-12.005333 -24.552,-15.325333 -7.60266,-2.758666 -15.86533,-4.445333 -23.78533,-2.805333 -1.86533,0.386667 -3.72267,0.957333 -5.62667,0.896 -1.71066,-0.05467 -3.35733,-0.618667 -4.99333,-1.116 -16.6,-5.054666 -35.06533,-3.686666 -50.74,3.756 -8.00267,3.8 -15.24,9.169333 -21.27733,15.645333 -3.05067,3.272 -5.796,6.828 -8.18267,10.610666 -2.18133,3.458667 -4.93733,7.6 -5.49066,11.682667 -2.256,16.653333 -4.81334,33.261332 -6.972,49.930668 -0.68,5.24533 -1.34267,10.548 -0.79334,15.80933 0.55734,5.332 2.232,11.22933 -0.74266,15.68933 1.024,-2.30266 2.04666,-4.60666 3.07066,-6.90933 1.93067,5.03333 2.30134,10.65467 1.04667,15.89867 4.84533,-8.92534 -2.21733,-19.83067 -1.03867,-29.91867 1.04134,-8.916 8.26534,-15.71867 11.944,-23.90667 -3.532,1.79334 -6.408,4.848 -7.984,8.48134 0.70667,-18.309336 1.59067,-37.312002 10.08534,-53.548001 8.44933,-16.149333 24.36666,-28.190666 42.20666,-31.928 17.83867,-3.737333 37.252,0.902667 51.472,12.302667 -2.93467,-3.962667 -6.54933,-7.422667 -10.63733,-10.181333 23.07866,-2.009334 47.64933,8.965333 58.82533,29.257332 8.688,15.776 8.71333,34.705333 8.51733,52.714665 -3.02667,-5.268 -5.00267,-11.137332 -5.77733,-17.163999 -0.35334,0.698667 -0.70667,1.398667 -1.06,2.097333 -2.01334,-10.799999 -4.19734,-22.003999 -10.69867,-30.859999 -2.66,-3.622666 -6.44533,-6.946666 -10.93866,-7.026666 -5.72134,-0.102667 -10.06534,4.895999 -13.53467,9.447999 -2.24933,-6.634666 -8.31867,-11.818666 -15.224,-13.003999 -6.904,-1.184 -14.35333,1.681333 -18.68533,7.186666 4.916,-2.001333 10.20666,-3.081333 15.51333,-3.168 -13.53467,6.465333 -25.66533,15.854667 -35.31733,27.337333 7.05733,-4.837333 14.11333,-9.673333 21.17066,-14.510666 l -12.12266,19.919999 c 3.968,-4.406666 7.936,-8.812 11.90533,-13.218666 -7.39333,20.455999 -24.17733,35.847995 -40.364,50.378665 11.70533,-7.46133 22.14133,-16.90933 30.72267,-27.819999 -10.00267,21.938669 -32.92,37.374669 -57.00934,38.399999 l 18.508,-1.26667 c -7.52,6.34267 -20.728,2.58 -27.16533,10.01867 6.328,-2.81867 13.25333,-4.28933 20.18133,-4.288 -10.16133,3.212 -19.83466,7.96 -28.59199,14.03067 5.97066,-2.17867 11.94133,-4.356 17.91199,-6.53334 -5.492,5.53334 -10.98399,11.06667 -16.47599,16.6 6.45733,-4.2 12.91333,-8.4 19.37066,-12.6 1.05867,-0.68933 2.996,-1.008 3.11733,0.24934 0.73067,-1.39067 2.22934,-2.34667 3.79867,-2.42134 0.036,1.272 0.0733,2.54267 0.11067,3.81334 5.3,-10.13734 13.65866,-18.64934 23.696,-24.136 -2.24134,3.22266 -4.48267,6.44533 -6.72267,9.668 8.488,-7.85867 16.13733,-16.62534 22.77467,-26.1 -3.17467,6.69066 -6.348,13.38 -9.52267,20.07066 8.76667,-11.888 16.07467,-24.85066 21.708,-38.505329 -2.24667,10.651999 -6.15733,20.951999 -11.54667,30.411999 11.3,-12.92 18.41734,-29.443999 20.04,-46.531999 0.38934,-4.101333 0.5,-8.349333 2.23734,-12.085333 1.73733,-3.734666 5.67866,-6.844 9.72666,-6.081333 -7.26933,5.218667 -10.85066,15.078666 -8.62533,23.745333 0.296,-4.081333 0.608,-8.236 2.10133,-12.046666 1.492,-3.810667 4.37467,-7.294667 8.29067,-8.484 5.604,-1.701334 11.55067,1.676 15.58133,5.924 4.37334,-1.817334 5.49867,-8.088 9.86667,-9.921334 4.78533,-2.009333 9.70933,2.536 12.45867,6.938667 7.76933,12.444 10.98533,27.665333 8.91199,42.187995 1.40667,-3.59866 2.18934,-7.44133 2.30267,-11.303996 2.64133,4.917336 3.92533,10.555996 3.67467,16.131996 0.36533,-1.05733 0.73066,-2.11333 1.09733,-3.17066 2.076,7.58666 1.70933,15.82266 -1.03467,23.19466 2.54667,-4.444 4.372,-9.3 5.38134,-14.32 0.33333,4.18 1.86533,8.24667 4.348,11.62534 -3.16,-10.28934 -2.6,-20.89734 -2.57467,-31.51867 0.0347,-14.134665 -1.57733,-28.974665 -7.10133,-41.769331"
       style="fill:#000000;fill-opacity:1;fill-rule:nonzero;stroke:none;stroke-width:1.33333"
       id="path10062" />
  </g>
</svg>
