<?xml version="1.0" encoding="UTF-8" standalone="no"?>
<!-- Created with Inkscape (http://www.inkscape.org/) -->

<svg
   width="400"
   height="400"
   viewBox="0 0 400 400"
   version="1.1"
   id="svg1"
   xml:space="preserve"
   inkscape:version="1.3-alpha (95f74fb, 2023-03-31)"
   sodipodi:docname="MaleShortStyledCombBackHair.svg"
   xmlns:inkscape="http://www.inkscape.org/namespaces/inkscape"
   xmlns:sodipodi="http://sodipodi.sourceforge.net/DTD/sodipodi-0.dtd"
   xmlns="http://www.w3.org/2000/svg"
   xmlns:svg="http://www.w3.org/2000/svg"><sodipodi:namedview
     id="namedview1"
     pagecolor="#ffffff"
     bordercolor="#666666"
     borderopacity="1.0"
     inkscape:showpageshadow="2"
     inkscape:pageopacity="0.0"
     inkscape:pagecheckerboard="0"
     inkscape:deskcolor="#d1d1d1"
     inkscape:document-units="px"
     inkscape:zoom="6.4912402"
     inkscape:cx="264.58734"
     inkscape:cy="68.70798"
     inkscape:window-width="1894"
     inkscape:window-height="1131"
     inkscape:window-x="2274"
     inkscape:window-y="168"
     inkscape:window-maximized="0"
     inkscape:current-layer="svg1" /><defs
     id="defs1" /><g
     inkscape:groupmode="layer"
     id="layer4"
     inkscape:label="Hair Back"
     style="display:inline"><path
       style="fill:#383838;fill-opacity:1;stroke:none;stroke-width:0.999999px;stroke-linecap:butt;stroke-linejoin:miter;stroke-opacity:1"
       d="m 323.82841,53.002817 7.24052,-1.848646 10.32161,-0.462161 c 0,0 4.96062,1.669194 6.3162,2.772971 1.35559,1.103774 2.85,3.697286 2.85,3.697286 l 2.0027,3.389182 c 0,0 0.6704,3.368731 0.84729,4.775668 0.17689,1.406937 0.46216,3.54324 0.46216,3.54324 0,0 0.12632,3.413299 0.15406,5.314855 0.0276,1.901556 -0.30811,5.622962 -0.30811,5.622962 l -0.69325,9.628363 -0.53919,3.92837 0.61622,5.545936 -0.15405,8.627017 -1.84865,8.78106 V 119.4 l -0.46217,3.69729 -0.92432,6.16215 -2.31081,5.08377 -1.54053,3.54324 -2.46486,8.62701 z"
       id="path8"
       sodipodi:nodetypes="ccczcczczccccccccccccc" /><path
       id="path9"
       style="fill:#000000;fill-opacity:0.2;stroke:none;stroke-width:0.999999px;stroke-linecap:butt;stroke-linejoin:miter;stroke-opacity:1"
       d="m 333.26367,51.056641 -2.19531,0.09766 -7.24024,1.847656 19.56446,93.511717 2.46484,-8.62695 1.54102,-3.54297 2.31054,-5.08398 0.92383,-6.16211 0.46289,-3.69727 v -3.08203 l 1.84961,-8.78125 0.15235,-8.626954 -0.61524,-5.544922 0.53906,-3.927734 0.69336,-9.628906 c 0,0 0.3362,-3.721495 0.3086,-5.623047 -0.007,-0.445872 -0.0226,-0.697517 -0.0371,-1.246094 -1.17949,-2.635975 -1.68047,-4.106751 -3.052,-6.08007 -1.73257,-2.492776 -3.83123,-5.917941 -6.16236,-7.549322 -2.33113,-1.631381 -5.30467,-2.51143 -8.01025,-2.927249 -2.70558,-0.415818 -7.70313,0 -7.70313,0 l 2.59571,-2.595703 c 0.35232,-0.582182 0.86503,-1.444764 1.60937,-2.730468 z"
       sodipodi:nodetypes="cccccccccccccccscsssccc" /><path
       id="path1"
       style="fill:#000000;fill-opacity:1;stroke:none;stroke-width:0.999999px;stroke-linecap:butt;stroke-linejoin:miter;stroke-opacity:1"
       d="m 336.92756,50.072043 c -1.72258,-0.0091 -3.48455,0.121133 -5,0.353499 -3.03091,0.464806 -8.19923,2.693359 -8.19923,2.693359 0,0 3.59513,-0.905155 6.40821,-1.232424 2.81308,-0.32727 7.44835,-0.80507 10.45703,-0.435546 3.00868,0.369525 7.4082,2.177734 7.4082,2.177734 0,0 -3.58504,-2.429023 -6.30664,-3.076173 -1.36079,-0.323565 -3.045,-0.471352 -4.76757,-0.480468 z m 5.54101,3.546875 c 0,0 2.00275,0.354709 3.38867,1.078125 1.38593,0.72341 3.5166,2.505941 4.62305,3.542971 1.10645,1.037027 2.15625,2.464842 2.15625,2.464842 0,0 -0.0816,-1.459177 -0.92383,-2.619141 -0.8422,-1.15996 -3.02369,-2.817702 -4.62305,-3.542967 -1.59934,-0.725257 -4.62109,-0.92383 -4.62109,-0.92383 z m -4.37695,0.468752 c -2.2776,-0.01398 -4.86524,0.300775 -4.86524,0.300775 0,0 4.34094,0.205039 6.46876,0.771485 2.12781,0.566456 4.40504,1.343252 6.1621,2.619141 1.75706,1.275893 2.74026,2.78222 4.16016,4.775392 1.4199,1.993172 4.16016,7.240234 4.16016,7.240234 0,0 -1.6804,-5.381995 -2.92774,-7.548829 -1.24734,-2.16683 -2.40729,-3.996518 -4.3125,-5.392577 -1.9052,-1.39606 -4.44792,-2.209214 -6.77929,-2.617188 -0.58285,-0.102009 -1.30721,-0.143773 -2.06641,-0.148422 z m 5.76367,6.925781 c 0,0 2.87639,4.182917 4.16016,6.316408 1.28376,2.133487 2.68969,4.186738 3.54297,6.470703 0.85327,2.283961 1.2701,4.349908 1.54101,7.085938 0.27092,2.736031 -0.15428,9.24414 -0.15428,9.24414 0,0 1.25283,-6.573419 1.23242,-9.398439 -0.0204,-2.825016 -0.28302,-5.098122 -1.07814,-7.394529 -0.79511,-2.296411 -2.01409,-4.080715 -3.54492,-6.162113 -1.53083,-2.081393 -5.69922,-6.162108 -5.69922,-6.162108 z m 5.85352,15.712893 c 0,0 0.003,6.643903 0.30859,10.01367 0.30603,3.369771 1.2327,6.386707 1.54102,10.16797 0.30833,3.781266 0.57357,8.602626 0.15428,12.478516 -0.41927,3.8759 -1.38883,7.07645 -2.46484,10.62891 -1.07601,3.55246 -2.50734,7.71112 -4.00586,10.63086 -1.49852,2.91974 -4.6211,6.93164 -4.6211,6.93164 0,0 3.62182,-3.35245 5.39063,-6.16211 1.76881,-2.80966 3.35875,-7.04956 4.62304,-10.78321 0.0933,-0.27541 0.18531,-0.55088 0.27735,-0.82617 -0.20693,1.38905 -0.48067,3.07721 -0.74024,4.21485 -0.51088,2.23904 -1.30073,4.72597 -2.00195,6.77929 -0.70122,2.05333 -1.53077,3.51439 -2.15821,5.54493 -0.62743,2.03054 -1.53906,6.625 -1.53906,6.625 0,0 1.55867,-4.56999 2.46485,-6.625 0.90617,-2.05501 2.17368,-3.50257 2.92578,-5.69922 0.7521,-2.19665 1.18039,-5.17452 1.38672,-7.39453 0.13084,-1.40792 0.0959,-3.37899 0.0527,-4.63672 0.99435,-3.06495 1.85748,-6.16322 2.25781,-9.53711 0.48822,-4.11454 0.27133,-9.04834 -0.15428,-12.939457 -0.42561,-3.891115 -1.54406,-7.085772 -2.15625,-10.322265 -0.61219,-3.236493 -1.54102,-9.089844 -1.54102,-9.089844 z" /><path
       style="fill:#000000;fill-opacity:0.3;stroke:none;stroke-width:0.999999px;stroke-linecap:butt;stroke-linejoin:miter;stroke-opacity:1"
       d="m 329.37434,57.932539 c 0,0 5.07322,0.312718 7.39458,1.694589 2.32136,1.381856 4.20111,4.098218 5.69999,6.470261 1.49888,2.372043 2.69042,5.031084 3.23513,7.548635 0.54472,2.517552 1.38253,14.916151 0.92433,17.489246 -0.45821,2.573096 -2.86322,13.52123 -2.86322,13.52123 L 336.1527,77.805474 Z"
       id="path7"
       sodipodi:nodetypes="czzzzccc" /></g><g
     inkscape:groupmode="layer"
     id="layer5"
     inkscape:label="Hair Front"><path
       style="fill:#383838;fill-opacity:1;stroke:none;stroke-width:1px;stroke-linecap:butt;stroke-linejoin:miter;stroke-opacity:1;opacity:1"
       d="m 219.82571,141.83007 -3.26798,-10.23966 -5.66448,-7.4074 c 0,0 -6.53595,-2.17865 -7.62528,-1.96079 -1.08932,0.21787 -4.35729,3.26798 -4.35729,3.26798 l -1.96079,2.83224 -3.48584,-6.97168 -1.96078,-7.62527 0.87146,-5.88235 0.65359,-3.92157 -2.83224,-3.92157 0.65359,-5.882353 1.74292,-3.485839 -0.43573,-2.614379 -1.52505,-2.396514 0.65359,-10.893246 4.13944,-11.764706 5.66448,-11.764706 9.3682,-9.368192 10.23965,-8.714597 19.17211,-10.893246 20.26144,-7.189542 12.4183,-1.525055 7.84314,0.653595 6.75381,1.525055 8.49673,-1.525055 10.89325,1.30719 8.93246,2.614379 5.44662,5.228758 1.96079,1.742919 3.26797,0.87146 1.96079,3.050109 3.7037,2.396514 3.7037,4.139434 0.6536,4.357298 -0.87146,6.318083 -2.39652,6.100218 -3.7037,4.357298 -5.44662,4.357299 -4.5207,3.485839 -3.62864,2.983879 -2.78128,1.707958 -6.00838,-1.968526 -10.07625,-3.594771 -8.93247,-3.267974 c 0,0 -8.061,-3.267974 -12.20043,-3.485839 -4.13943,-0.217865 -15.03268,-0.43573 -15.03268,-0.43573 l -12.73736,2.167701 -6.35546,2.332703 -6.37095,5.292569 -5.90878,8.289816 -5.22876,13.943355 -0.87146,11.982571 1.30719,11.32898 0.21787,4.57516 -1.96079,10.67538 -2.17865,10.02179 z"
       id="path38"
       sodipodi:nodetypes="cccscccccccccccccccccccccccccccccccccccccccccscccccccccccc" /><path
       id="path10"
       style="fill:#000000;fill-opacity:1;stroke:none;stroke-width:1px;stroke-linecap:butt;stroke-linejoin:miter;stroke-opacity:1"
       d="m 273.13672,12.787109 c -5.32334,0.02155 -10.20894,1.038571 -15.86719,2.464844 -5.65824,1.426274 -10.49484,2.756824 -17.86914,6.316406 -7.3743,3.559583 -19.53802,11.21428 -25.57422,16.021485 -6.03619,4.807205 -8.8443,8.297455 -11.40039,11.398437 -2.55609,3.100982 -3.12149,4.232538 -4.4668,6.625 -1.3453,2.392463 -2.33699,4.652297 -3.54296,7.703125 -1.20598,3.050828 -2.76601,6.753147 -3.54297,10.628906 -0.77696,3.87576 -1.51191,9.954292 -0.92383,12.478516 0.58808,2.524222 1.31831,1.808475 1.53906,2.619141 0.22075,0.810666 0.15976,1.056329 0,2.001953 -0.15976,0.945624 -0.95233,2.722487 -1.23242,3.544922 -0.28009,0.822435 -0.31003,0.251073 -0.46094,1.384765 -0.15091,1.133693 -0.14424,3.985977 0.30664,5.392581 0.45088,1.4066 1.45373,1.55957 1.84961,2.92773 0.39588,1.36816 0.19061,3.48202 0,5.08399 -0.19061,1.60196 -1.03752,2.62871 -1.07812,4.46679 -0.0406,1.83808 0.7561,4.67753 1.23242,6.31641 0.47632,1.63888 0.57945,1.92307 1.38672,3.54297 0.80727,1.6199 3.69726,6.00781 3.69726,6.00781 l 0.41993,-1.04883 c -0.054,0.42568 -0.0703,0.69922 -0.0703,0.69922 0,0 3.02023,-4.48094 5.22852,-5.22851 2.20829,-0.74758 5.09158,-0.87685 7.46094,0.71679 2.36935,1.59364 5.47817,5.93081 6.76953,8.68946 1.29136,2.75864 2.66211,8.48437 2.66211,8.48437 0,0 -0.90851,-8.40929 -2.50782,-11.9707 -1.5993,-3.56142 -4.9218,-6.38946 -7.84765,-7.99219 -2.92586,-1.60273 -6.88698,-0.69396 -9.20313,1.02539 -1.20193,0.89223 -1.84382,2.54451 -2.18554,3.93164 -0.3203,-0.60859 -2.52694,-4.81039 -3.34571,-6.85742 -0.27533,-0.68838 -0.50566,-1.26678 -0.75,-1.87305 0.064,-0.0695 3.09776,-3.36381 4.75586,-5.36718 1.67572,-2.02466 5.23633,-6.7793 5.23633,-6.7793 0,0 -4.03509,4.12333 -5.69922,6.16211 -1.64549,2.01595 -4.2367,5.89134 -4.29492,5.97851 -0.53456,-1.32682 -0.99077,-2.58226 -1.09766,-3.97461 -0.15586,-2.03031 0.76769,-4.38757 0.92578,-6.00976 0.1264,-1.29726 0.33748,-2.0673 0.25977,-2.98047 1.10448,-1.64599 3.32696,-4.9451 4.57813,-6.648438 1.59992,-2.178153 2.90374,-4.333404 4.25,-5.917969 1.34625,-1.584564 3.54296,-4.941406 3.54296,-4.941406 0,0 -2.74372,2.511583 -4.22265,3.953125 -1.47893,1.441541 -3.07536,3.831064 -4.6211,6.134766 -1.01652,1.514986 -2.6152,4.824822 -3.59961,6.931642 -0.0155,-0.0787 -0.0147,-0.14603 -0.0351,-0.22852 -0.32033,-1.291 -1.70873,-2.04194 -2.15625,-3.69726 -0.44752,-1.65532 -0.31096,-4.426447 0,-6.007816 0.31096,-1.581368 1.23123,-2.298874 1.38672,-3.388672 0.15549,-1.089797 -0.0546,-1.940021 -0.3086,-2.927734 -0.25399,-0.987713 -0.86305,-0.516135 -1.23242,-2.925781 -0.36937,-2.409647 0.27862,-7.65193 1.07813,-11.400391 0.79951,-3.74846 2.47685,-7.705261 3.69726,-10.9375 1.22041,-3.232239 1.48876,-5.297116 3.54492,-8.472656 1.48642,-2.295613 4.15752,-4.895844 6.57813,-7.240234 1.86125,-0.730511 5.19757,-2.004657 7.12109,-2.50586 2.73839,-0.713529 4.64717,-0.949098 7.84375,-1.30664 3.19659,-0.357543 11.32813,-0.654297 11.32813,-0.654297 0,0 -8.77584,-0.642866 -12.20117,-0.435547 -3.42534,0.207319 -6.13427,0.984391 -8.27735,1.30664 -0.90234,0.135684 -1.80181,0.265411 -2.60351,0.378907 1.94901,-2.110126 2.2959,-2.957725 5.46093,-5.410157 3.47591,-2.693307 11.0744,-6.431871 15.40625,-9.089843 1.93943,-1.190005 3.35086,-2.21738 4.74024,-3.199219 1.5745,-0.27143 4.08237,-0.667305 6.04297,-0.806641 3.08605,-0.219319 10.9375,0 10.9375,0 0,0 -8.12713,-1.050737 -10.9375,-1.078125 -1.20914,-0.01178 -2.4479,0.07244 -3.48243,0.171875 0.97262,-0.61146 2.02502,-1.22626 3.32813,-1.867187 4.531,-2.22855 11.24068,-4.618981 16.63867,-6.007813 5.398,-1.388831 11.07421,-2.360668 15.5586,-2.464843 3.94951,-0.09175 9.2876,0.886798 10.5664,1.132812 -2.64475,0.796952 -5.09654,1.847142 -7.02344,2.25586 -2.38517,0.505925 -5.23632,0.617187 -5.23632,0.617187 0,0 3.73524,0.222817 6.16211,0 2.42686,-0.222817 5.13471,-1.527058 8.31835,-2.003177 3.18365,-0.476118 7.49884,-1.389411 11.09132,-1.386475 3.59247,0.0029 7.41662,0.270436 10.86193,0.924313 3.76219,0.714016 6.0743,1.888559 8.16359,3.69678 2.08928,1.808221 3.95889,3.883793 5.16076,6.008056 1.20187,2.124263 2.3247,4.701287 3.23511,7.702882 0.91041,3.001595 1.52637,7.004179 1.54077,10.784426 0.0144,3.780248 -0.87873,9.470157 -1.92616,12.47803 -1.04743,3.007873 -2.23445,4.126692 -3.77405,6.00757 -1.22709,1.499099 -3.72462,3.308689 -4.80834,4.275876 -1.18435,0.840386 -2.01338,1.405375 -2.33399,1.621094 1.32435,-1.16855 5.37746,-4.823776 6.83399,-7.128906 1.73505,-2.745925 3.15485,-6.497136 3.85156,-9.705078 0.69671,-3.207943 0.88737,-6.079844 0.46289,-9.242188 -0.42448,-3.162344 -1.37603,-6.658236 -3.08203,-9.398437 -1.706,-2.740202 -3.7018,-4.842723 -6.77735,-6.625 -3.07554,-1.782278 -7.34653,-3.604093 -11.18164,-4.541016 -3.8351,-0.936923 -6.97297,-1.040437 -10.66796,-1 -3.695,0.04044 -10.03907,1.537109 -10.03907,1.537109 0,0 5.98899,-0.826387 9.73022,-0.767092 3.74124,0.0593 7.07146,0.247797 10.59095,1.077271 3.5195,0.829474 7.29747,2.726204 10.02624,4.386961 2.72878,1.660758 4.03187,3.706096 5.93079,5.932739 2.06429,2.420557 3.09884,5.981604 3.62073,8.781007 0.52189,2.799403 0.4909,6.112093 0.15479,9.088142 -0.33611,2.976049 -1.85554,6.334939 -3.2356,9.3197 -1.38007,2.984761 -6.8064,8.804319 -6.8064,8.804319 0,0 0.31484,-0.277389 0.50586,-0.445312 0.19478,-0.115785 0.80005,-0.484851 1.67774,-1.025391 -0.009,0.0083 -0.15235,0.138672 -0.15235,0.138672 0,0 1.07116,-0.662108 2.36328,-1.525391 1.35929,-0.876673 2.78053,-1.837061 3.79883,-2.634765 0.3946,-0.309116 0.85888,-0.670446 1.30274,-1.015625 0.98781,-0.632992 6.34748,-4.107238 8.40234,-6.378907 2.25777,-2.495981 3.64344,-4.938806 4.77539,-7.855468 1.13195,-2.916662 2.10093,-6.70778 1.84961,-9.398438 -0.25132,-2.690657 -0.97935,-4.464458 -2.46484,-6.162109 -1.20857,-1.381174 -4.40347,-3.294721 -5.59961,-3.988281 -0.32916,-0.668404 -0.78041,-1.391295 -1.48828,-2.328125 -1.49517,-1.978751 -3.41813,-2.756271 -4.4668,-3.054688 -1.07592,-1.81202 -2.73377,-3.220461 -4.54529,-4.723997 -2.35287,-1.952846 -5.47854,-3.238905 -9.31922,-4.237183 -3.84067,-0.998278 -8.26748,-1.212677 -12.32495,-1.077882 -3.32726,0.110536 -6.4796,0.663367 -9.36914,1.283203 -2.6237,-0.55776 -10.12592,-2.070481 -14.50976,-2.052735 z m 20.91406,11.941407 c -2.17284,-0.123289 -8.91211,0.542968 -8.91211,0.542968 0,0 6.21287,-0.07614 8.75781,0.226563 1.79529,0.213536 3.91954,0.802016 5.59375,1.443359 1.64945,0.631856 3.12072,1.276598 5.31055,2.492188 2.18983,1.21559 4.56745,2.93438 6.77558,4.960541 2.65296,2.434327 4.77664,5.947083 5.34945,9.273057 0.53358,3.098198 0.89898,6.170018 1.01505,9.090395 0.11607,2.920377 -0.2834,5.469403 -0.97565,7.555281 -0.69225,2.085878 -2.37416,3.76689 -3.7738,4.851194 -1.39966,1.084306 -2.18923,1.191961 -3.94141,1.332032 -1.39552,0.111559 -3.00775,-0.567239 -4.30273,-0.886719 -0.0955,-0.02356 -0.39072,-0.127779 -0.51368,-0.162109 0.73637,-0.316683 4.0072,-1.795261 5.3711,-3.791016 1.53241,-2.242326 2.25276,-5.583434 2.17773,-9.150391 -0.075,-3.566956 -1.23265,-8.129627 -3.26758,-11.546875 -2.03492,-3.417247 -3.92496,-5.608619 -7.72582,-7.663081 -3.80086,-2.054463 -10.67677,-3.341647 -14.49683,-3.666997 -3.82007,-0.325349 -5.68697,0.558276 -8.93164,0.435547 -3.24468,-0.122729 -10.45899,-1.30664 -10.45899,-1.306641 0,0 5.72654,1.556724 8.71485,1.960938 2.9883,0.404214 6.50686,-0.337399 10.76796,-0.02661 3.90327,0.284687 10.57585,1.615992 14.09741,3.575686 3.52155,1.959694 5.08385,4.794805 6.81859,7.665898 1.73474,2.871093 2.56764,7.153558 2.89478,10.343876 0.32714,3.190318 -0.63374,5.961856 -2.02649,8.469479 -1.0815,1.947222 -4.66679,3.236883 -6.10694,4.008785 -1.12235,-0.376107 -2.21391,-0.776579 -3.50391,-1.259765 1.36401,-1.218549 3.54425,-3.341203 4.29297,-5.107422 1.11456,-2.629225 1.09341,-5.956112 0.65234,-8.933594 -0.44106,-2.977482 -1.67645,-6.097562 -3.26757,-8.496094 -1.59112,-2.398531 -3.21649,-4.335884 -5.88282,-5.664062 -2.66632,-1.328178 -6.64488,-0.973925 -9.58593,-1.525391 -2.94106,-0.551465 -8.06055,-1.74414 -8.06055,-1.74414 0,0 4.90102,1.663347 7.625,2.396484 2.72398,0.733137 6.37617,0.673101 8.71484,1.960937 2.33868,1.287837 3.56654,2.853738 5.01172,5.011719 1.44518,2.157981 2.79929,5.122163 3.26758,7.84375 0.46829,2.721588 0.64395,5.57864 -0.43555,8.060547 -0.79372,1.824876 -3.47182,4.137059 -4.83984,5.238281 -0.97584,-0.405741 -1.89779,-0.811962 -2.79297,-1.216797 1.12405,-0.758317 3.02912,-2.213771 3.71094,-3.804687 0.98694,-2.302867 0.66137,-5.843551 0,-8.714844 -0.66137,-2.871293 -1.74979,-5.776901 -3.92188,-8.060547 -2.17208,-2.283645 -5.48504,-3.635568 -8.71484,-4.792968 -3.2298,-1.157401 -6.91141,-1.784066 -10.38,-1.806884 -3.46859,-0.02282 -7.62771,0.544009 -10.09852,1.590087 -2.4708,1.046078 -3.23975,1.426763 -5.44726,2.177734 -2.20751,0.750971 -9.15039,0.21875 -9.15039,0.21875 0,0 7.15801,1.021949 9.65064,0.48596 2.49262,-0.53599 4.00933,-1.369982 6.31834,-2.192019 2.30902,-0.822036 5.63003,-1.131784 8.59974,-0.998533 2.96971,0.133251 7.2869,0.728804 10.06043,1.857296 2.77353,1.128492 5.73482,2.572275 7.57459,4.369753 1.83977,1.797478 3.1223,4.848484 3.78211,7.332039 0.65981,2.483556 0.71857,6.147432 -0.44983,8.356324 -0.69905,1.32158 -2.27146,2.225232 -3.92272,2.854003 -0.93113,-0.34225 -3.16173,-1.053685 -4.30276,-1.349979 0.14334,-0.508383 0.88303,-3.229752 0.81641,-5.246094 -0.0734,-2.221757 -0.45882,-5.467688 -1.74414,-7.626953 -1.28532,-2.159265 -2.99488,-3.356868 -5.59936,-4.407835 -2.60448,-1.050967 -6.53043,-0.480522 -9.58594,-0.435547 -3.05551,0.04498 -8.56079,0.269163 -8.56079,0.269163 0,0 6.06286,0.252377 8.93164,0.435547 2.86877,0.18317 6.1275,-0.197092 8.27929,0.654297 2.1518,0.851389 3.13409,1.677471 4.35743,3.484375 1.22334,1.806904 2.15444,4.99483 2.17773,7.189453 0.0194,1.825371 -1.00143,4.273306 -1.36133,5.082031 -1.78305,-0.467169 -3.68207,-0.935536 -5.68359,-1.367187 0.32368,-0.467205 1.30889,-1.973883 1.59961,-3.496094 0.34638,-1.81365 0.99875,-4.753539 -0.43555,-6.972656 -1.4343,-2.219117 -7.84375,-4.138672 -7.84375,-4.138672 0,0 4.54561,2.441943 5.66406,4.357422 1.11845,1.915479 1.15266,4.364542 0.8711,6.099609 -0.24917,1.535466 -1.53202,3.337654 -1.83789,3.751953 -1.61054,-0.29928 -3.24708,-0.559155 -4.91602,-0.701171 -0.32536,-0.02769 -0.63571,-0.03654 -0.95703,-0.06055 0.32016,-0.670617 1.52086,-3.311653 1.39453,-5.167969 -0.14461,-2.124969 -0.4888,-4.672364 -2.83398,-6.53711 -2.34519,-1.864745 -10.67383,-1.958984 -10.67383,-1.958984 0,0 6.3962,1.213667 8.27734,2.832031 1.88114,1.618365 2.5477,3.481528 2.83399,5.445313 0.23905,1.639784 -0.64119,4.367601 -0.95117,5.263672 -2.41713,-0.127667 -4.85012,-0.151907 -7.4375,-0.08984 l 0.76171,-0.380859 c 0,0 0.2727,-2.700262 -1.08789,-4.574219 -1.36059,-1.873957 -5.16939,-4.082755 -7.84375,-4.792969 -2.67435,-0.710214 -4.82375,0.318013 -7.4082,0.216797 -2.58445,-0.101216 -8.06055,-0.871094 -8.06055,-0.871094 0,0 4.55861,1.59168 6.97266,1.960938 2.41405,0.369257 4.94748,-0.54503 7.40625,0.21875 2.45877,0.76378 5.52742,2.624041 6.75391,4.357422 0.85819,1.212871 1.04497,2.949569 1.08203,3.894531 -1.47705,0.05184 -3.03495,0.127391 -4.70703,0.228515 -0.017,-0.02965 -1.71928,-3.004639 -3.69141,-4.15039 -1.98199,-1.151478 -5.12028,-1.586771 -8.01172,-1.69336 -2.89144,-0.106588 -6.13717,0.821341 -9.08984,1.232422 -2.95268,0.411082 -8.62696,1.232422 -8.62696,1.232422 0,0 5.69949,-0.155413 8.62696,-0.308594 2.92746,-0.15318 6.32104,-0.797175 8.93554,-0.617187 2.61451,0.179988 4.98998,0.353363 6.625,1.386719 1.09954,0.694919 2.03254,2.18249 2.53321,3.091797 -5.12618,0.33304 -8.2297,2.088819 -11.44971,3.843515 -3.71816,2.026169 -5.8412,4.397208 -8.74145,8.558836 -2.90027,4.16163 -6.33802,9.701375 -8.12525,15.326164 -1.78723,5.624791 -2.10563,11.000796 -2.17773,16.558598 -0.0721,5.55779 1.99016,9.6551 1.74218,16.55664 -0.24798,6.90154 -4.35742,24.40039 -4.35742,24.40039 0,0 5.05177,-18.36995 5.66406,-23.5293 0.93606,-7.88749 -1.048,-12.594 -0.43554,-20.042968 0.42138,-5.124948 1.70627,-12.470273 3.48633,-17.429688 1.78004,-4.959415 3.93212,-7.480045 6.3811,-10.966789 2.44898,-3.486742 3.8649,-5.199636 7.65357,-7.035399 3.78865,-1.835763 9.0585,-3.55993 13.85204,-3.782968 4.79356,-0.223038 10.6469,-0.858774 15.25,-0.4375 4.60312,0.421272 8.49759,1.81586 12.20118,2.615234 3.70357,0.799374 6.67328,1.715373 9.36914,2.832032 2.69584,1.116657 4.13461,1.418743 6.9707,2.396484 2.83609,0.977741 6.55908,2.232541 9.91211,2.568359 1.87447,-0.04155 2.46791,-0.436148 3.89453,-1.349609 1.42662,-0.913461 3.59563,-3.581234 4.61409,-5.819351 1.01846,-2.238117 1.27437,-4.367035 1.27778,-8.409089 0.003,-3.390319 -0.41574,-6.95746 -1.29598,-10.138564 -0.88024,-3.181106 -2.46967,-6.131915 -5.06802,-8.810654 -2.23166,-2.300702 -5.21572,-4.389771 -7.68217,-5.709061 -2.46644,-1.31929 -3.76527,-1.664472 -5.82617,-2.273437 -2.11354,-0.62452 -3.76134,-1.010721 -5.77539,-1.125001 z m 30.30151,1.142938 c 0,0 2.1788,1.709833 2.62659,2.320195 1.03732,1.413935 1.63696,3.622284 2.31031,6.623785 0.67335,3.001501 1.06672,8.090252 0.92602,11.478633 -0.1407,3.38838 -0.65731,6.10994 -2.08069,9.089114 -0.88178,1.845528 -2.64839,3.275545 -4.3396,4.933225 0.58684,-0.872601 1.12757,-1.891254 1.7207,-3.316406 1.29067,-3.101146 2.22962,-8.615106 2.46485,-12.478516 0.23523,-3.863409 -0.40421,-7.090289 -1.07764,-10.322508 -0.54919,-2.635672 -2.55054,-8.327522 -2.55054,-8.327522 z m 5.7024,5.915655 c 0.86953,0.464685 2.34187,1.313333 3.00976,2.105469 0.96641,1.146178 1.46794,1.991095 1.84766,4.158203 0.37972,2.167108 0.23851,5.675288 -0.61523,8.626953 -0.85375,2.951665 -2.54199,5.855109 -4.6211,8.626954 -0.20132,0.268401 -0.44691,0.560829 -0.70898,0.863281 0.0841,-0.13334 0.17021,-0.266294 0.24609,-0.400391 1.7393,-3.073771 1.86933,-5.663928 2.15625,-9.396484 0.28692,-3.732557 -0.19613,-9.627041 -0.92383,-12.78711 -0.16219,-0.704328 -0.27713,-1.268684 -0.39062,-1.796875 z m -90.85547,0.449219 c -0.22914,-0.0014 -0.44275,0.0012 -0.63672,0.0078 -3.1036,0.105161 -4.80524,0.381807 -7.4082,1.089843 -2.60297,0.708037 -8.06055,3.267579 -8.06055,3.267578 0,0 6.70613,-1.880576 9.36719,-2.396484 2.66105,-0.515907 3.66696,-0.65116 6.53711,-0.871094 2.87014,-0.219933 10.67578,-0.21875 10.67578,-0.21875 0,0 -7.0376,-0.858261 -10.47461,-0.878906 z m 1.43359,16.291016 c 0,0 -9.39036,0.260381 -14.48242,1.232422 -5.09205,0.972041 -11.17655,2.685368 -15.86719,4.77539 -4.69063,2.090022 -12.16992,7.394532 -12.16992,7.394532 0,0 9.03153,-4.458722 13.86524,-6.316407 4.8337,-1.857685 10.30505,-3.614747 15.09765,-4.77539 4.79261,-1.160644 13.55664,-2.310547 13.55664,-2.310547 z m -10.16797,15.867187 c 0,0 -7.10332,1.13749 -11.09179,2.464844 -3.98848,1.327354 -8.61753,3.507505 -12.63282,5.699219 -4.01528,2.191714 -11.40039,7.394531 -11.40039,7.394531 0,0 8.05792,-4.491267 12.16993,-6.46875 4.112,-1.977483 8.64542,-3.890051 12.47851,-5.392578 3.8331,-1.502528 10.47656,-3.697266 10.47656,-3.697266 z m -2.31054,10.322266 c 0,0 -4.84474,3.492548 -7.24024,5.544922 -2.3955,2.052374 -4.88848,4.231851 -7.08789,6.779297 -2.19941,2.547445 -6.00781,8.472656 -6.00781,8.472656 0,0 4.44281,-5.160173 6.7793,-7.703125 2.33648,-2.542953 4.96855,-5.375001 7.24023,-7.548828 2.27168,-2.173827 6.31641,-5.544922 6.31641,-5.544922 z m -15.56055,2.464844 c 0,0 -6.38246,4.195688 -8.78125,6.316406 -2.39879,2.120718 -4.07178,3.910579 -5.69922,6.162109 -1.62744,2.251531 -4.00586,7.240235 -4.00586,7.240235 0,0 3.28505,-4.491458 5.08399,-6.625 1.79893,-2.133543 3.47365,-3.966699 5.69921,-6.16211 2.22557,-2.195411 7.70313,-6.93164 7.70313,-6.93164 z m 8.16602,13.402343 c 0,0 -5.16626,4.652207 -7.24219,7.085938 -2.07593,2.433728 -3.71778,4.585338 -5.23633,7.394528 -1.51855,2.8092 -3.69727,9.39844 -3.69727,9.39844 0,0 2.70726,-6.08161 4.3125,-8.78125 1.60525,-2.69964 3.26586,-4.87025 5.23829,-7.394531 1.97242,-2.524285 6.625,-7.703125 6.625,-7.703125 z m 0.30664,4.775391 c 0,0 -3.30056,1.575827 -5.85352,4.160156 -2.55296,2.584329 -6.64429,8.567859 -8.31836,12.015629 -1.67407,3.44776 -2.46484,8.00976 -2.46484,8.00976 0,0 1.73728,-4.51065 3.69726,-7.85547 1.95999,-3.34481 6.22161,-9.206 8.47266,-11.863278 2.25105,-2.657279 4.4668,-4.466797 4.4668,-4.466797 z m 0.30859,7.548825 c 0,0 -3.22611,2.61001 -4.62109,4.15821 -1.39499,1.54819 -2.60453,3.02504 -3.69727,5.08398 -1.09274,2.05894 -2.61914,7.24219 -2.61914,7.24219 0,0 2.04034,-4.62068 3.23438,-6.625 1.19403,-2.00432 2.56209,-3.75105 3.85156,-5.39258 1.28947,-1.64153 3.85156,-4.4668 3.85156,-4.4668 z m 0.92383,4.15821 c 0,0 -4.53526,5.71221 -6.16211,8.32031 -1.62685,2.6081 -3.69727,7.24023 -3.69727,7.24023 0,0 2.51831,-4.03086 4.16016,-6.625 1.64185,-2.59413 5.69922,-8.93554 5.69922,-8.93554 z"
       sodipodi:nodetypes="ssssssssssssssssssscccssscssscscscscsscsscsscssssssssscsscsscsscscscssscscssssssssssccssssssscssssssscccccscsssscscssscsscsssssssssscsssssscssssssccssssscsssssccssssssscsssssssccsssscssssccsscsscscsscsscccssscsssccssscssscssssscsssssssssscsssssssscccsscssscccssscssscssscsscscsssssccsssssccsssssccsssssccsssssccsssssccsscssccscscscs" /><path
       id="path38360"
       style="opacity:0.199997;fill:#000000;fill-opacity:1;fill-rule:nonzero;stroke:none;stroke-width:1.33333"
       d="m 209.34375,42.943359 -8.25391,8.25586 -5.66406,11.763672 -4.14062,11.765625 -0.6543,10.892578 1.52539,2.396484 0.43555,2.613281 -1.74219,3.486329 -0.6543,5.882812 2.83203,3.92188 -0.65234,3.92187 -0.87109,5.88086 1.96093,7.62695 3.48438,6.97071 1.96094,-2.83204 c 0,0 3.2681,-3.0497 4.35742,-3.26757 1.08933,-0.21786 7.625,1.96093 7.625,1.96093 l 5.66601,7.40625 3.26758,10.24024 0.65235,-4.79297 2.17968,-10.02149 1.96094,-10.67578 -0.21875,-4.57422 -1.30664,-11.33007 0.87109,-11.982425 5.22852,-13.943359 6.21753,-8.442865 6.21754,-5.447266 5.43016,-3.10401 13.50782,-1.087891 c 0,0 10.89377,0.217682 15.0332,0.435547 4.13943,0.217865 12.19922,3.484375 12.19922,3.484375 l 8.93359,3.269532 10.13112,3.648842 5.99104,1.796653 0.96769,-1.226745 c -5.90746,-6.541772 -17.80024,-17.819119 -30.60547,-19.050782 -18.13465,-1.743998 -33.40279,1.007612 -44.91211,3.09961 -11.50799,2.093331 -25.42383,9.696981 -22.28516,6.208984 3.14,-3.486663 -1.74253,-4.533061 -4.5332,-2.789062 -2.78933,1.743998 -0.34766,-4.185547 -0.34766,-4.185547 l -5.58008,3.488281 4.88282,-8.021484 -8.3711,6.277343 z"
       sodipodi:nodetypes="cccccccccccccccsccccccccccccccscccccccccccccc" /><path
       id="path39"
       style="fill:#000000;fill-opacity:0.3;stroke:none;stroke-width:1px;stroke-linecap:butt;stroke-linejoin:miter;stroke-opacity:1"
       d="m 325.9668,26.773438 c -0.0663,-0.0091 -0.11479,2.46e-4 -0.14258,0.03125 -0.44469,0.496057 0.75981,2.458949 1.38672,4.77539 0.62691,2.316441 1.40874,5.559095 1.53906,8.011719 0.13032,2.452623 0.16346,4.979732 0,6.931641 -0.16346,1.951909 -0.64192,4.849261 -1.53906,7.394531 -0.89713,2.54527 -4.62305,7.857422 -4.62305,7.857422 l 7.08789,-5.853516 2.92578,-3.851563 3.08203,-6.007812 0.76953,-7.085938 -1.38671,-4.314453 -3.08008,-3.388671 c 0,0 -5.02497,-4.363421 -6.01953,-4.5 z m -32.18555,3.882812 7.26075,3.124144 3.67627,2.961425 5.31458,8.473142 1.13018,5.363357 -0.12884,4.727593 -1.54005,4.621823 -7.24023,5.544922 4.00586,1.078125 3.69726,0.308594 c 0,0 2.84299,-2.596941 3.85132,-6.162839 1.00833,-3.565898 2.61659,-8.406587 0.61523,-14.634766 -1.27199,-3.958422 -2.52033,-7.942261 -7.54858,-10.93677 -5.02825,-2.994509 -13.09375,-4.46875 -13.09375,-4.46875 z m -0.44141,4.134766 c -0.65174,-0.0054 -1.09961,0.02539 -1.09961,0.02539 l 3.23438,1.232422 5.85547,7.703125 1.84765,7.548828 -1.54101,7.546875 -5.39063,4.314453 3.38868,1.541016 c 0,0 3.15907,-2.200744 4.3125,-4.005859 1.15342,-1.805116 1.91203,-4.394193 2.1582,-6.625 0.24617,-2.230808 0.0351,-4.083256 -0.61719,-6.46875 -0.65226,-2.385495 -2.09121,-5.516692 -3.54297,-7.548828 -1.45176,-2.032137 -3.02966,-3.7869 -4.77539,-4.623047 -1.09108,-0.522592 -2.74383,-0.631569 -3.83008,-0.640625 z m -15.22461,4.623046 c -3.03343,-0.01045 -8.83007,1.564454 -8.83007,1.564454 l 7.39453,0.308593 5.23828,1.386719 2.46484,3.234375 2.00391,4.621094 0.15234,4.621094 -1.53906,4.160156 3.69727,1.386719 c 0,0 1.28631,-3.254471 2.00195,-5.392578 0.71564,-2.138108 1.10431,-5.602193 0.1543,-8.009766 -0.95002,-2.407574 -3.15213,-4.053198 -5.23829,-5.392578 -2.08615,-1.339381 -4.12953,-2.213205 -6.93164,-2.464844 -0.17513,-0.01573 -0.36613,-0.02274 -0.56836,-0.02344 z m -14.68359,3.105469 6.31641,2.771485 0.92383,4.005859 v 3.697266 l -1.38672,3.542968 h 6.00976 c 0,0 1.36312,-2.032766 1.38477,-3.851562 0.0216,-1.818796 -0.94546,-4.869979 -2.15625,-6.46875 -1.21079,-1.598772 -2.43154,-2.231148 -4.3125,-2.927735 -1.88096,-0.696586 -6.7793,-0.769531 -6.7793,-0.769531 z m 12.63281,1.232422 2.92774,3.388672 0.61523,3.542969 -0.46289,3.697265 -1.84765,3.234375 5.08398,1.080078 c 0,0 1.65521,-3.17551 1.69336,-5.083984 0.0382,-1.908474 -0.33563,-4.045949 -1.69336,-5.855469 -1.35773,-1.809519 -6.31641,-4.003906 -6.31641,-4.003906 z m -17.61523,0.414063 c -0.65052,-0.0013 -1.30445,0.01846 -1.94922,0.04687 -2.57909,0.113653 -7.85742,1.695312 -7.85742,1.695312 l 5.39258,0.923828 4.77539,3.236328 1.69531,2.771485 0.30664,3.542968 7.24023,-0.769531 c 0,0 1.17843,-3.913218 0.46289,-5.853515 -0.71553,-1.940297 -2.52681,-3.596815 -4.62109,-4.621094 -1.57071,-0.768209 -3.49375,-0.968739 -5.44531,-0.972656 z m -5.52734,6.748046 c -2.62704,0.05618 -5.81245,0.754754 -8.43946,1.619141 -4.20321,1.38302 -9.16291,4.583311 -12.01562,7.546875 -2.85272,2.963564 -3.63635,5.137976 -5.23828,9.089844 -1.60194,3.951868 -3.36372,10.768634 -3.69727,14.634766 -0.33355,3.866131 0.61719,8.166015 0.61719,8.166015 l 2.61914,-10.630859 5.70044,-11.398924 4.77539,-5.854732 7.3938,-4.312985 2.00341,-2.157969 8.62696,-0.769531 3.69726,-0.923828 c 0,0 0.3343,-2.901184 -2.15625,-4.314453 -0.93395,-0.529976 -2.31049,-0.727066 -3.88671,-0.69336 z"
       sodipodi:nodetypes="sssssscccccccsccccccccccssscscccccccsssssscccccccccsssssccccccsssccsccccsscssccccccssssssssccccccccssss" /><path
       style="fill:#ffffff;fill-opacity:0.2;stroke:none;stroke-width:1px;stroke-linecap:butt;stroke-linejoin:miter;stroke-opacity:1"
       d="m 285.46163,18.794559 c 0,0 6.85863,-1.415743 10.62971,-1.540537 3.77108,-0.124794 8.70822,0.0642 11.86214,0.924322 3.15392,0.860127 4.96901,1.826909 6.93242,3.389183 1.96341,1.562274 5.23783,6.778365 5.23783,6.778365 0,0 -4.61172,-3.957463 -6.62432,-5.083773 -2.0126,-1.12631 -4.10328,-2.137011 -7.24052,-2.927022 -3.13724,-0.790011 -5.87748,-1.411429 -9.55134,-1.694591 -3.67386,-0.283162 -11.24592,0.154053 -11.24592,0.154053 z"
       id="path45"
       sodipodi:nodetypes="czzzczzzc" /><path
       style="fill:#ffffff;fill-opacity:0.2;stroke:none;stroke-width:1px;stroke-linecap:butt;stroke-linejoin:miter;stroke-opacity:1"
       d="m 320.43183,54.380979 c 0,0 0.79626,-2.500876 0.92432,-4.621613 0.12806,-2.120737 -0.0529,-5.523599 -0.61621,-8.010796 -0.56333,-2.487197 -1.13333,-4.588252 -2.61892,-6.778365 -1.48559,-2.190113 -6.3162,-5.854043 -6.3162,-5.854043 0,0 3.13219,3.318924 4.31351,5.391881 1.18132,2.072957 1.9618,4.43136 2.61891,6.93242 0.65711,2.50106 0.96531,5.85119 1.23243,8.010796 0.26712,2.159606 0.46216,4.92972 0.46216,4.92972 z"
       id="path46"
       sodipodi:nodetypes="czzzczzzc" /></g></svg>
