<?xml version="1.0" encoding="UTF-8" standalone="no"?>
<!-- Created with Inkscape (http://www.inkscape.org/) -->

<svg
   width="400"
   height="400"
   viewBox="0 0 400 400"
   version="1.1"
   id="svg1"
   xml:space="preserve"
   inkscape:version="1.3.2 (091e20e, 2023-11-25)"
   sodipodi:docname="centrePartHair.svg"
   xmlns:inkscape="http://www.inkscape.org/namespaces/inkscape"
   xmlns:sodipodi="http://sodipodi.sourceforge.net/DTD/sodipodi-0.dtd"
   xmlns="http://www.w3.org/2000/svg"
   xmlns:svg="http://www.w3.org/2000/svg"><sodipodi:namedview
     id="namedview1"
     pagecolor="#ffffff"
     bordercolor="#666666"
     borderopacity="1.0"
     inkscape:showpageshadow="2"
     inkscape:pageopacity="0.0"
     inkscape:pagecheckerboard="0"
     inkscape:deskcolor="#d1d1d1"
     inkscape:document-units="px"
     inkscape:zoom="2.17"
     inkscape:cx="200"
     inkscape:cy="200"
     inkscape:window-width="1808"
     inkscape:window-height="1081"
     inkscape:window-x="2557"
     inkscape:window-y="137"
     inkscape:window-maximized="0"
     inkscape:current-layer="layer2" /><defs
     id="defs1" /><g
     inkscape:groupmode="layer"
     id="layer3"
     inkscape:label="Hair Back"
     sodipodi:insensitive="true"><path
       style="fill:#383838;fill-opacity:1;stroke:none;stroke-width:1px;stroke-linecap:butt;stroke-linejoin:miter;stroke-opacity:1"
       d="m 345.16129,118.7788 2.41936,-2.64977 2.76497,-6.56682 1.03687,-5.99078 -0.92166,-5.76037 0.57604,-2.073733 -0.34563,-4.37788 -0.36538,-0.927449 -0.0815,-1.274268 -0.59001,-3.789066 -0.8983,-3.253555 -0.60279,-6.377343 -0.80066,-1.087978 -0.75993,-4.32557 -1.54662,-3.158319 -8.64055,-1.152074 -6.10599,1.843318 -3.46561,0.36878 6.80662,3.317856 6.10599,11.751152 2.41936,15.092166 z"
       id="path53"
       sodipodi:nodetypes="cccccccccccccccccccccc" /><path
       id="path41"
       style="color:#000000;fill:#000000;-inkscape-stroke:none"
       d="m 337.51367,69.910156 c -1.53137,-0.0028 -2.72265,0.482422 -2.72265,0.482422 0,0 1.49015,0.05484 3.10937,0.279297 1.71446,0.237668 3.45544,0.539909 4.53516,0.988281 0.98918,0.410774 2.34425,1.234005 3.47656,2.234375 1.15501,1.020427 2.35937,1.91211 2.35937,1.91211 0,0 -0.49511,-1.2734 -1.64257,-2.324219 -1.14747,-1.050819 -2.55638,-2.225279 -3.81055,-2.746094 -1.34471,-0.558414 -3.3162,-0.741566 -4.99414,-0.818359 -0.10487,-0.0048 -0.20846,-0.0076 -0.31055,-0.0078 z m 0.38086,3.230469 c -0.93121,-0.01128 -2.10924,0.277665 -2.02539,0.322266 0,0 1.36855,0.374497 2.27539,0.492187 0.90684,0.11769 1.98849,0.536496 2.53516,0.802734 0.47889,0.23323 1.27144,0.673332 1.85547,1.248047 0.13302,0.1309 0.27649,0.267813 0.41796,0.402344 -0.24999,-0.03315 -0.49788,-0.06127 -0.73437,-0.08398 -0.84729,-0.08138 -2.73242,0.486328 -2.73242,0.486328 0,0 1.82912,0.432196 2.63672,0.509765 0.80759,0.07757 1.77484,0.234731 2.26562,0.44336 0.89419,0.380109 1.71932,1.039865 2.3418,1.8125 0.99575,1.235963 1.58215,2.841825 2.10156,4.449219 0.54815,1.696301 1.51367,5.490234 1.51367,5.490234 0,0 0.0679,-3.854119 -0.56054,-5.798828 -0.52639,-1.628991 -1.13736,-3.355003 -2.27539,-4.767578 -0.71723,-0.890233 -1.65749,-1.650182 -2.72852,-2.105469 -0.30474,-0.129544 -0.65843,-0.2245 -1.02734,-0.300781 -0.10078,-0.355721 -0.26967,-0.764489 -0.55664,-1.046875 -0.61404,-0.604245 -1.36049,-1.286261 -2.08008,-1.636719 -0.78738,-0.383467 -1.89516,-0.570251 -2.84375,-0.693359 -0.11858,-0.01539 -0.24588,-0.02378 -0.37891,-0.02539 z m 2.03906,7.306641 c 0,0 1.78113,0.875803 2.51172,1.36914 0.73059,0.493339 1.58518,1.131181 2.00196,1.585938 0.3591,0.391829 0.97567,1.106185 1.35156,1.783203 0.37589,0.677018 1.17969,2.205078 1.17969,2.205078 0,0 -0.0369,-1.903383 -0.42774,-2.607422 -0.39089,-0.704038 -0.87637,-1.521096 -1.36719,-2.056641 -0.54849,-0.598471 -1.42153,-1.227647 -2.17773,-1.738281 -0.7562,-0.510633 -3.07227,-0.541015 -3.07227,-0.541015 z m 3.31836,5.460937 c -0.37484,-0.0086 -0.625,0.03711 -0.625,0.03711 0,0 0.64037,0.747907 1.5918,1.167969 0.95143,0.420063 2.05457,1.009618 2.55273,1.494141 0.88077,0.856659 1.46008,2.099711 1.82618,3.353516 0.20165,0.690119 0.31729,1.386 0.55468,2.28125 0.58194,-0.846362 0.56124,-1.611654 0.40625,-2.5625 -0.395,-1.352811 -1.02403,-2.752432 -2.08984,-3.789063 -0.70841,-0.689013 -1.85223,-1.252782 -2.8457,-1.691406 -0.49674,-0.219313 -0.99626,-0.282368 -1.3711,-0.291016 z m 4.75586,2.203125 c 0,0 0.79816,0.993912 1.17188,1.496094 0.37371,0.502182 0.58662,1.205324 0.70312,1.595703 0.54138,1.814028 0.67602,2.380055 0.6543,3.603516 -0.008,0.451208 -0.0318,1.355913 -0.1582,2.078125 -0.24027,-0.560826 -0.49865,-1.112095 -0.78321,-1.644532 -0.64094,-1.199281 -1.87676,-2.62305 -2.96289,-3.785156 -1.08612,-1.162106 -3.57617,-2.142578 -3.57617,-2.142578 0,0 1.78292,1.689042 2.8457,2.826172 1.06279,1.13713 2.27146,2.563566 2.81055,3.572266 0.45625,0.853692 0.85325,1.751712 1.18359,2.673828 -0.009,0.02196 -0.0183,0.04491 -0.0273,0.06641 -0.60312,-0.931752 -1.29136,-1.90417 -1.93555,-2.548828 -0.50122,-0.5016 -1.27226,-1.016029 -1.93945,-1.433594 -0.66719,-0.417565 -2.56055,-0.804688 -2.56055,-0.804688 0,0 1.38739,0.963491 2.0293,1.365235 0.64191,0.401743 1.39532,1.211453 1.76367,1.580078 0.64691,0.647392 1.50066,1.891363 2.16406,2.953125 0.46621,0.74613 0.99897,1.5328 1.34571,2.04102 0.048,0.29644 0.0876,0.59345 0.11914,0.89062 -0.10727,-0.17008 -0.22827,-0.33175 -0.36524,-0.47266 -0.71153,-0.73203 -1.70498,-1.43182 -2.51367,-1.83593 -0.67912,-0.339378 -1.62244,-0.687618 -2.45898,-0.750003 -0.9833,-0.07333 -2.31446,0.333984 -2.31446,0.333984 0,0 1.20235,0.189204 1.99024,0.357419 0.7879,0.16823 1.84444,0.58447 2.33594,0.83008 0.62105,0.31035 1.55987,1.04668 2.30468,1.69531 0.35882,0.31249 0.77021,0.71018 1.10157,1.03907 0.0381,1.55794 -0.35401,3.13295 -0.83789,4.71289 -0.0197,-0.32276 -0.0726,-0.64022 -0.1875,-0.85157 -0.32798,-0.60307 -0.7333,-1.29194 -1.26758,-1.7207 -0.5487,-0.44032 -1.3353,-0.69652 -2.01758,-0.89258 -0.68228,-0.19605 -2.26953,-0.21679 -2.26953,-0.21679 0,0 1.36071,0.99571 1.99414,1.17773 0.63343,0.18202 1.37156,0.47463 1.66601,0.71094 0.28006,0.22474 0.88382,0.51383 1.1875,1.07226 0.19257,0.35409 0.47259,1.01202 0.66016,1.46485 -0.12392,0.38842 -0.24751,0.77752 -0.37109,1.16601 -0.72297,2.27268 -2.45703,6.99414 -2.45703,6.99414 0,0 2.62852,-4.23434 3.41015,-6.6914 0.7029,-2.20958 1.56643,-4.54932 1.49024,-7.00977 -0.0602,-1.94445 -0.47841,-3.888599 -1.1543,-5.724608 0.15484,-0.216432 0.27789,-0.433808 0.32813,-0.626953 0.20274,-0.779501 0.41484,-1.704615 0.42773,-2.43164 0.024,-1.352245 -0.21106,-2.738073 -0.72852,-4 -0.23338,-0.569162 -0.67891,-1.201896 -1.07226,-1.730469 -0.39336,-0.528573 -1.72852,-0.982422 -1.72852,-0.982422 z" /></g><g
     inkscape:groupmode="layer"
     id="layer2"
     inkscape:label="Hair Front"><path
       style="fill:#383838;fill-opacity:1;stroke:none;stroke-width:1px;stroke-linecap:butt;stroke-linejoin:miter;stroke-opacity:1"
       d="m 220.30445,152.11128 c 0,0 0.32052,-20.58247 1.81537,-27.68732 0.96271,-4.57562 4.26267,-13.36405 4.26267,-13.36405 l -0.11521,-4.83871 1.72811,-2.88018 3.57143,-12.672817 1.61291,-6.105991 1.61289,-2.304148 9.44701,-7.834101 0.46083,2.534562 2.76498,-3.225806 -1.95853,13.709678 c 0.38403,4.032258 0.99847,5.990783 1.84332,7.949308 l 2.88018,-12.442396 8.29494,-13.364056 c 3.30261,-2.380952 5.91397,-3.725038 9.5622,-4.377879 l 5.64517,0.230414 c 0,0 1.67296,-1.314244 3.80184,-1.152073 2.93166,0.223323 5.41475,0.460829 5.41475,0.460829 l 0.46083,-3.110599 2.76498,1.497696 2.53455,-1.843318 2.9954,1.958525 1.84332,0.345622 0.80645,0.921659 c 2.61137,1.651306 4.6467,3.417819 5.06912,5.645161 l 4.14747,-4.032257 0.57604,-0.691245 2.30414,2.764977 2.30415,-4.608295 5.06912,0.46083 5.99079,1.843318 4.14746,0.921658 4.6083,3.225807 8.29493,-3.225807 12.90323,1.843318 -1.84332,-3.225806 4.60829,0.46083 0.46083,-3.225807 2.76498,2.304148 -5.52996,-11.059908 -4.14746,-8.755761 -3.22581,-5.529954 -5.99078,-4.147465 -1.5553,-2.18894 -9.50461,-2.880184 -1.84332,-1.382489 -6.45161,-0.921659 -4.14746,-0.921659 -2.76498,-1.843318 4.14746,-1.843318 -7.8341,0.46083 -4.60829,1.843318 -4.6083,-2.304148 -7.37327,0.921659 -2.76498,-0.921659 -2.76497,-0.921659 -3.68664,-0.921659 -4.14746,-1.843318 -12.4424,-0.921659 -3.68664,3.686636 -2.88018,4.608295 c 0,0 -5.03804,-4.237787 -8.17973,-4.493087 -5.144,-0.418011 -15.09216,3.456221 -15.09216,3.456221 l -11.63595,8.410138 -17.97235,19.354839 -8.06452,13.018433 -0.69124,3.110599 -2.30414,11.635945 -2.30415,7.488479 -0.46083,5.529954 -1.38249,5.184332 -0.11521,4.377887 1.03687,4.95391 0.69124,10.82949 1.49771,10.02304 c 0,0 2.37978,-5.41217 4.03225,-4.95391 0.99596,0.2762 1.15207,2.76497 1.15207,2.76497 0,0 6.41094,-9.18299 7.71889,-10.02304 1.25879,-0.80848 -2.30414,11.29033 -2.30414,11.29033 0,0 6.78891,-2.64574 7.8341,-2.64978 1.49769,-0.006 1.33383,2.7026 1.72811,4.14747 0.73489,2.69305 0.0691,5.72204 1.15207,8.29493 1.16816,2.77528 6.01874,13.17119 6.01874,13.17119 z"
       id="path124"
       sodipodi:nodetypes="cscccccccccccccccsccccccccccccccccccccccccccccccccccccccccccccscccccccccccccscscsssc" /><path
       id="path125"
       style="fill:#000000;fill-opacity:0.2;stroke:none;stroke-width:1px;stroke-linecap:butt;stroke-linejoin:miter;stroke-opacity:1"
       d="m 231.59706,28.192855 -8.55604,6.369645 -17.97266,19.355469 -8.06445,13.017578 -0.69141,3.111328 -2.30273,11.634766 -2.30469,7.488281 -0.46094,5.53125 -1.38281,5.183594 -0.11524,4.376954 1.03711,4.95508 0.69141,10.83008 1.54582,10.06254 c 0,0 2.33112,-5.45163 3.98358,-4.99337 0.99596,0.2762 1.15224,2.76481 1.15224,2.76481 0,0 6.56677,-9.33832 7.87471,-10.17837 1.25879,-0.80848 -2.45869,11.44595 -2.45869,11.44595 0,0 6.78879,-2.64635 7.83398,-2.65039 1.49769,-0.006 1.33228,2.70161 1.72656,4.14648 0.73489,2.69305 0.0694,5.72204 1.15235,8.29492 1.16816,2.77528 6.01953,13.17188 6.01953,13.17188 0,0 0.3196,-20.58266 1.81445,-27.6875 0.96271,-4.57562 4.26367,-13.36328 4.26367,-13.36328 l -0.11523,-4.83985 1.72851,-2.8789 3.57032,-12.673831 1.61328,-6.105469 1.61328,-2.304688 3.72656,-3.089843 -3.41406,-0.310547 -5.54102,2.607422 5.54102,-4.400391 h -2.44531 l -4.88672,2.119141 6.02734,-4.888672 -6.67969,2.933594 4.5625,-4.236328 -8.14648,5.050781 c 0,0 1.83047,-4.04301 3.02665,-5.902641 1.67744,-2.607798 5.77218,-7.294625 5.77218,-7.294625 l -4.5625,3.257813 c 0,0 -0.44625,-2.372165 0,-3.421875 1.62284,-3.817432 8.96094,-8.634766 8.96094,-8.634766 l -6.64879,3.46803 c -3.99398,-0.519951 -6.08703,-0.579073 -10.54183,0.05305 5.37974,-3.518205 8.72391,-6.65252 15.39765,-8.733971 -4.70364,-0.545018 -8.0248,-0.456395 -12.38282,1.302735 0,0 1.2049,-2.242495 2.11914,-3.095703 3.68386,-3.437949 13.03321,-7.658204 13.03321,-7.658204 l -12.8711,2.771485 8.63477,-4.400391 4.23633,-5.539062 -2.11719,-0.652344 -8.79883,1.304688 c 0.29503,-2.013564 3.64306,-5.236806 4.80214,-6.674333 z"
       sodipodi:nodetypes="cccccccccccccscsccsscsccccccccccccccccsccscccccsccccccc" /><path
       id="path126"
       style="fill:#ffffff;fill-opacity:0.3;stroke:none;stroke-width:1px;stroke-linecap:butt;stroke-linejoin:miter;stroke-opacity:1"
       d="M 264.51562 18.894531 L 263.13281 20.277344 L 268.20312 20.507812 L 270.27734 23.386719 L 274.53906 20.966797 L 275.92188 21.658203 L 272.92578 24.078125 L 278.80273 23.271484 L 278.3418 25.230469 L 285.71484 24.539062 L 284.44727 26.958984 L 288.24805 27.419922 L 294.70117 25.806641 L 300.23047 27.189453 L 295.04688 31.335938 L 304.26172 28.111328 L 300.69141 33.525391 L 306.79688 29.261719 L 307.37305 31.451172 L 310.94531 28.572266 L 314.74609 30.183594 L 308.98633 33.525391 C 308.98633 33.525391 312.69764 32.25558 314.63086 32.027344 C 316.19533 31.842642 319.35547 32.142578 319.35547 32.142578 L 315.4375 34.101562 L 322.69531 33.871094 L 326.49805 34.5625 L 318.20312 40.552734 C 318.20312 40.552734 323.43499 38.003844 326.26758 37.556641 C 328.0518 37.274951 331.68164 37.787109 331.68164 37.787109 L 323.84766 41.013672 L 333.52539 40.207031 L 328.91797 42.166016 C 328.91797 42.166016 332.38136 41.755777 334.10156 41.935547 C 335.32404 42.063302 337.67187 42.857422 337.67188 42.857422 L 330.01172 46.255859 C 334.12073 45.372071 336.44336 46.389974 339.05469 46.888672 L 335.51367 48.707031 C 339.65136 49.042425 342.00343 50.471683 344.125 52.650391 C 344.125 52.650391 346.96389 55.677083 347.92578 57.488281 C 348.92827 59.37594 349.88477 63.59375 349.88477 63.59375 L 350.27734 65.671875 L 352.53516 65.898438 L 352.99609 62.671875 L 355.75977 64.976562 L 350.23047 53.917969 L 346.08203 45.162109 L 342.85742 39.630859 L 336.86719 35.484375 L 335.31055 33.123047 L 325.80664 30.414062 L 323.96289 29.033203 L 317.51172 28.111328 L 313.36328 27.189453 L 310.59961 25.345703 L 314.74609 23.501953 L 306.91211 23.962891 L 302.30469 25.806641 L 297.69531 23.501953 L 290.32227 24.423828 L 287.55664 23.501953 L 284.79297 22.580078 L 281.10547 21.658203 L 276.95898 19.816406 L 264.51562 18.894531 z M 267.20117 33.400391 L 261.33594 34.703125 L 255.14453 38.777344 C 255.14453 38.777344 257.71793 37.790506 259.05469 37.472656 C 261.61757 36.863261 266.875 36.332031 266.875 36.332031 L 273.88086 36.332031 L 281.21289 39.103516 L 277.4668 35.84375 L 272.41602 33.400391 L 267.20117 33.400391 z M 269.98828 37.269531 L 265.4375 39.113281 L 261.23242 42.107422 C 261.23242 42.107422 265.85719 39.862356 268.31836 39.169922 C 270.8254 38.464583 276.03711 37.960938 276.03711 37.960938 L 269.98828 37.269531 z M 280.39844 39.753906 C 280.39844 39.753906 289.13005 41.959773 292.12891 44.316406 C 297.37272 48.437235 300.4668 54.744141 300.4668 54.744141 C 300.32414 52.657326 299.43347 50.744056 298.48438 48.714844 L 296.03906 45.783203 L 293.10742 43.013672 L 287.73047 40.568359 L 280.39844 39.753906 z M 272.25195 40.894531 L 264.5957 41.873047 L 271.76367 42.523438 C 271.76367 42.523438 278.91015 42.919501 282.00977 44.498047 C 284.26971 45.648979 286.64648 47.964844 286.64648 47.964844 L 291.15234 50.34375 L 298.74609 58.650391 C 298.07659 54.750662 294.29698 50.563129 291.72656 47.988281 L 283.33203 42.6875 L 272.25195 40.894531 z M 280.58789 48.560547 L 269.41211 48.617188 L 262.61523 50.978516 C 262.61523 50.978516 272.07613 49.365567 276.78516 49.884766 C 279.9185 50.230236 283.13171 51.020652 285.83008 52.650391 C 288.37533 54.187653 292.10742 58.986328 292.10742 58.986328 L 290.8418 55.011719 L 286.06055 51.037109 L 280.58789 48.560547 z " /><path
       id="path1"
       style="color:#000000;fill:#000000;-inkscape-stroke:none"
       d="m 269.48633,18.289062 c -0.67688,-0.007 -1.3187,0.0252 -1.87695,0.117188 -2.11015,0.347706 -4.26213,1.155874 -5.94141,2.552734 -0.93751,0.779837 -1.823,2.1447 -2.52344,3.335938 -0.70044,1.191238 -0.74219,3.232422 -0.74219,3.232422 0,0 0.92574,-1.571906 1.60352,-2.72461 0.67778,-1.152702 1.58429,-2.476605 2.30273,-3.074218 1.50049,-1.248136 3.49202,-2.011181 5.46289,-2.335938 1.25263,-0.206405 3.32313,-0.05687 5.03907,0.160156 0.83787,0.10597 1.72462,0.301558 2.41601,0.472657 -0.17649,0.04589 -0.35234,0.09479 -0.52734,0.148437 -0.3325,-0.122814 -2.25968,-0.813205 -3.63086,-0.724609 -1.77519,0.1147 -3.50505,0.230503 -5.19727,1.033203 -1.51546,0.718867 -3.09837,1.668701 -4.14648,3.130859 -0.44647,0.622842 -0.70103,1.481109 -0.89649,2.22461 -0.19544,0.743499 0.28907,2.734375 0.28907,2.734375 0,0 0.51812,-1.684161 0.69922,-2.373047 0.1811,-0.688887 0.64652,-1.557092 0.88281,-1.886719 0.85362,-1.190836 2.25376,-2.064046 3.6875,-2.744141 1.48874,-0.706184 3.21239,-1.004314 4.9414,-1.214843 0.81404,-0.09912 2.60938,-0.126331 3.22266,-0.132813 -0.71305,0.228981 -1.40841,0.52516 -2.05664,0.927735 -1.27182,0.789848 -2.32452,1.933189 -3.07812,3.199218 -0.52312,0.878804 -0.91549,2.158268 -1.21094,3.25586 -0.29545,1.097591 -0.002,3.271484 -0.002,3.271484 0,0 0.5302,-1.959577 0.81446,-3.015625 0.28427,-1.056049 1.04583,-2.253574 1.42969,-2.898437 0.66337,-1.114449 1.59811,-2.121275 2.67968,-2.792969 1.23723,-0.768364 2.77958,-1.137955 4.31836,-1.355469 1.28704,-0.181929 4.41016,-0.478515 4.41016,-0.478516 0,0 -2.89828,-0.946439 -4.57813,-0.708984 -0.47076,0.06655 -0.94933,0.14941 -1.42773,0.251953 -0.66818,-0.482814 -1.79275,-1.174588 -2.91406,-1.316406 -1.09587,-0.1386 -2.32109,-0.259781 -3.44922,-0.271485 z m 8.02148,2.769532 c 0,0 -1.75585,-0.0023 -2.36914,0.423828 -0.61329,0.426132 -1.31412,0.949783 -1.73828,1.517578 -0.61085,0.817711 -1.03607,1.825148 -1.11719,2.867188 -0.0479,0.616114 0.12685,1.315576 0.29492,1.912109 0.16809,0.596531 1.38477,1.875 1.38477,1.875 0,0 -0.26614,-1.593783 -0.42187,-2.146485 -0.15574,-0.5527 -0.28517,-1.237963 -0.25977,-1.564453 0.0637,-0.818117 0.41415,-1.668656 0.91992,-2.345703 0.26499,-0.354728 0.92887,-0.890703 1.50781,-1.292968 0.57894,-0.402265 1.79883,-1.246094 1.79883,-1.246094 z m -29.57031,0.771484 c -0.49172,-0.0024 -0.98474,0.01508 -1.47656,0.05078 -1.9673,0.142788 -3.9209,0.564074 -5.7461,1.060547 -5.18199,1.409563 -9.7945,4.41467 -14.05078,7.482422 -3.44318,2.481712 -6.16429,5.721054 -9.06836,8.595703 -2.39083,2.366624 -4.81967,4.731764 -7.0625,7.292969 -3.54533,4.048615 -7.19014,8.13141 -10.08984,12.763672 -2.00438,3.201995 -4.13086,10.164062 -4.13086,10.164062 0,0 3.47688,-6.480118 5.31836,-9.421875 2.81565,-4.498001 6.40411,-8.526988 9.95508,-12.582031 1.13592,-1.297167 2.33076,-2.550074 3.54883,-3.787109 -0.11392,0.145535 -0.2328,0.291908 -0.33985,0.433593 -0.73763,0.97629 -1.66015,3.00586 -1.66015,3.00586 0,0 1.74465,-1.461439 2.45703,-2.404297 0.71237,-0.942858 1.64158,-2.018195 2.31836,-2.482422 1.92604,-1.321163 4.42163,-1.804922 6.85156,-2.34375 1.32214,-0.293181 4.26953,-0.949219 4.26953,-0.949219 0,0 -2.9414,-0.369492 -4.48437,-0.02734 -0.20275,0.04496 -0.41358,0.09188 -0.61915,0.136718 0.52259,-0.249431 1.01899,-0.491552 1.41993,-0.703125 1.91701,-1.011614 3.63662,-2.297188 5.54882,-2.841796 1.49171,-0.424842 4.70508,-0.703126 4.70508,-0.703126 0,0 -1.24075,-0.590614 -2.28906,-0.591796 -0.88626,-9.99e-4 -1.92949,0.117542 -2.68945,0.333984 -2.15117,0.612664 -3.92065,1.957771 -5.74024,2.917969 -1.00927,0.532592 -2.41746,1.42698 -3.63086,2.226562 -1.29552,0.364904 -2.56589,0.847729 -3.71289,1.59375 0.34869,-0.344937 0.692,-0.691632 1.04102,-1.037109 2.96476,-2.93473 5.64643,-6.10834 8.90234,-8.455078 4.21751,-3.03981 8.70239,-5.933525 13.59961,-7.265625 3.54458,-0.964164 7.45296,-1.559159 10.77344,-0.470703 0.70158,0.229979 1.98266,0.573302 2.87305,1.392578 0.89038,0.819275 3.25781,2.443359 3.25781,2.443359 0,0 -1.48716,-2.07251 -2.4336,-2.943359 -0.94642,-0.87085 -2.09401,-1.839879 -3.26171,-2.222656 -1.41186,-0.462808 -2.87837,-0.654881 -4.35352,-0.66211 z m 35.50195,0.07227 c -1.97514,0.05545 -3.9277,0.653618 -5.66601,1.519531 -0.75123,0.374212 -1.62748,1.06783 -2.34961,1.677734 -0.72214,0.609906 -1.5,3.25 -1.5,3.25 0,0 1.44837,-1.896708 2.14648,-2.486328 0.69812,-0.589618 1.57477,-1.261111 2.14844,-1.546875 1.63416,-0.814033 3.45694,-1.363777 5.24805,-1.414062 0.77828,-0.02185 2.07377,0.05693 3.16015,0.271484 0.95489,0.188589 1.891,0.482827 2.24024,0.597656 -0.66165,-0.04974 -1.30772,-0.04933 -1.81055,0.05664 -1.64106,0.345852 -3.31622,0.797254 -4.85156,1.591797 -1.47376,0.762676 -3.03611,1.668863 -4.11719,3.072266 -0.44007,0.571277 -0.75261,1.402029 -0.99609,2.121093 -0.24348,0.719065 0.29297,2.867188 0.29297,2.867188 0,0 0.26243,-1.989449 0.49218,-2.667969 0.22975,-0.67852 0.73007,-1.353497 1.00391,-1.708984 0.92076,-1.195277 2.3456,-2.049946 3.78516,-2.794922 1.40846,-0.728887 2.99531,-1.164263 4.59765,-1.501953 1.50912,-0.318046 4.90625,-0.490235 4.90625,-0.490235 0,0 -1.61726,-0.405327 -3.18554,-0.537109 -0.12985,-0.131439 -1.07573,-1.063906 -2.10743,-1.330078 -1.10777,-0.285799 -2.42706,-0.575244 -3.4375,-0.546875 z m 12.42188,1.484375 c -0.31109,-0.0014 -0.61116,0.02074 -0.89063,0.07227 -2.63063,0.484976 -5.14839,1.855367 -7.12109,3.695313 -0.22016,-0.05415 -0.48583,-0.08854 -0.76953,-0.05273 -0.72552,0.09156 -1.5767,0.227297 -2.18555,0.46875 -1.17392,0.465552 -2.36922,1.132308 -3.21484,2.152344 -0.41677,0.502727 -0.78011,1.43674 -0.91602,2.121094 -0.19512,0.982506 0.2461,2.738281 0.2461,2.738281 0,0 0.24115,-2.047105 0.46484,-2.669922 0.22369,-0.622815 0.54984,-1.351477 0.82031,-1.677734 0.71654,-0.864318 1.79316,-1.483144 2.89453,-1.919922 0.4535,-0.179847 1.29292,-0.491835 1.99219,-0.580078 0.033,-0.0042 0.0635,-0.01069 0.0957,-0.01563 -0.19866,0.206191 -0.39347,0.415354 -0.57812,0.630859 -0.96111,1.121693 -1.6762,2.978978 -2.20313,4.585938 -0.52692,1.606959 -0.10547,4.253906 -0.10547,4.253906 0,0 0.54343,-2.384149 1.05469,-3.943359 0.51127,-1.559212 1.26215,-3.368994 2.01367,-4.246094 1.93884,-2.262761 4.78535,-4.022481 7.69336,-4.558594 0.77873,-0.143562 2.09548,-0.09847 3.27344,0.109375 1.36616,0.241052 2.33984,0.376953 2.33984,0.376953 0,0 -0.80884,-0.811059 -2.02343,-1.105468 -0.91094,-0.220808 -1.9476,-0.431357 -2.88086,-0.435547 z m 20.64062,0.0332 c -0.62815,-0.0085 -1.36056,0.03247 -2.08007,0.18164 0.005,-0.0039 0.0449,-0.03125 0.0449,-0.03125 0,0 -1.84363,-0.181693 -3.83789,0.53711 -1.99428,0.718802 -4.30087,1.676665 -5.70508,2.876953 -2.63296,2.250596 -4.06439,5.53633 -5.38281,8.523437 -1.15135,2.60855 -1.53907,7.958985 -1.53907,7.958985 0,0 1.72939,-5.169924 2.72852,-7.433594 1.31776,-2.985581 2.70934,-6.069155 5.03906,-8.060547 0.80745,-0.690193 2.21994,-1.404463 3.67578,-2.011718 -0.88902,0.553666 -1.6996,1.147618 -2.3125,1.773437 -3.22102,3.288963 -5.08673,7.780453 -6.20508,12.138672 -0.3544,1.381114 -0.45053,3.029172 -0.29492,4.658203 0.18831,1.971321 0.77149,3.621094 0.77149,3.621094 0,0 0.0285,-1.244387 0.10351,-2.574219 1.08853,-0.970845 6.71318,-5.95763 9.92188,-8.166016 2.29889,-1.582215 4.72498,-3.033365 7.25781,-4.173828 -1.80336,1.377659 -4.57074,3.635662 -5.93164,5.494141 -3.35287,4.578721 -5.70317,9.767369 -8.01758,14.826172 -2.451,5.357386 -5.43359,16.558594 -5.43359,16.558594 0,0 4.52588,-10.728004 6.88867,-15.892579 2.31565,-5.061527 4.6312,-10.14643 7.85352,-14.546875 1.39548,-1.905687 4.28217,-5.301944 5.62304,-6.863281 1.03734,-0.428274 2.09116,-0.803502 3.16211,-1.109375 1.66813,-0.47643 3.31438,-0.754952 4.63672,-0.498047 0.51275,0.09962 0.92925,0.311259 1.29297,0.603516 -0.54573,0.07062 -1.08331,0.162617 -1.60547,0.271484 -1.46428,0.305293 -3.33017,1.21026 -4.875,2.03711 -1.54483,0.826849 -2.48437,2.005859 -2.48437,2.005859 0,0 1.30994,-0.578994 2.83593,-1.361328 1.86723,-0.957279 3.49587,-1.446125 4.72852,-1.703125 0.74676,-0.155696 1.50225,-0.261622 2.25781,-0.310547 0.0422,0.05864 0.0854,0.114886 0.12695,0.175781 0,0 0.0391,-0.06882 0.0742,-0.1875 1.47477,-0.07505 2.94722,0.07544 4.35742,0.533203 1.00511,0.326267 1.68319,0.784343 2.79297,1.90625 0,0 -0.11938,-0.714464 -0.5332,-1.365234 -0.50443,-0.79326 -1.18109,-1.181185 -1.88477,-1.466797 -1.17185,-0.475639 -2.42755,-0.665203 -3.6875,-0.673828 -0.36944,-0.0025 -0.73937,0.01127 -1.10742,0.03711 -0.0254,-0.07253 -0.0495,-0.145052 -0.0859,-0.222656 -0.30354,-0.646292 -0.8968,-1.258901 -1.67579,-1.576172 -0.95529,-0.389076 -1.93955,-0.392241 -2.88671,-0.240234 -0.94716,0.152007 -1.85673,0.459425 -2.66211,0.689453 -4.26462,1.218009 -8.21174,3.422152 -11.8125,5.900391 -3.42427,2.356746 -8.0551,7.881744 -9.11915,9.173828 0.0132,-0.224221 0.0248,-0.44657 0.041,-0.667969 0.1472,-2.010122 0.34517,-3.464518 0.62891,-4.570313 1.08479,-4.227437 2.89605,-8.507014 5.87695,-11.550781 1.1495,-1.173744 3.54975,-2.493085 5.62891,-3.455078 2.07914,-0.961993 4.5664,-1.619141 4.5664,-1.619141 0,0 -0.7445,-0.136709 -1.75586,-0.15039 z m -4.75976,0.03125 c 0,0 -3.58585,0.103548 -5.3711,0.710937 -2.16801,0.737623 -4.30042,1.674088 -6.26171,2.892579 -2.28341,1.418604 -4.35303,3.168741 -6.24805,5.042968 -1.74618,1.727023 -4.14844,5.804688 -4.14844,5.804688 0,0 3.24801,-3.507789 4.85156,-5.09375 1.85768,-1.837289 3.87236,-3.537572 6.07227,-4.904297 1.88,-1.167982 3.94341,-2.075945 6.05664,-2.794922 1.58781,-0.540216 5.04883,-1.658203 5.04883,-1.658203 z m -63.74024,1.642578 c -1.48004,0.0011 -2.95961,0.165241 -4.38672,0.53125 -2.73807,0.702232 -5.24782,2.210646 -7.40039,3.966797 -0.64899,0.529472 -1.35925,1.394505 -1.9375,2.144531 -0.35311,0.458016 -0.49552,0.975708 -0.55468,1.310547 -1.00194,0.04622 -2.04456,0.137179 -2.82422,0.320313 -1.16377,0.273354 -2.7189,0.942307 -4.00977,1.544921 -1.29086,0.602616 -2.4043,1.861329 -2.40429,1.861329 0,0 1.47102,-0.543304 2.74218,-1.136719 1.27116,-0.593416 2.82496,-1.250134 3.85547,-1.492188 0.88834,-0.208659 2.35298,-0.300018 3.57227,-0.330078 1.21928,-0.03006 2.82226,-0.119141 2.82226,-0.119141 0,0 -1.60078,-0.710327 -2.84179,-0.679687 -0.20516,0.0051 -0.42194,0.01318 -0.63672,0.02148 0.2414,-0.272994 0.56487,-0.631535 0.94922,-1.017578 0.76344,-0.766823 1.3971,-1.245286 1.89843,-1.654297 2.07413,-1.692159 4.47177,-3.118564 7.01758,-3.771484 2.66974,-0.684704 5.5955,-0.618617 8.33399,-0.07617 1.39409,0.276148 4.49295,1.443645 4.49609,1.423828 0,0 -1.26768,-1.197983 -1.99414,-1.541015 -0.72646,-0.343034 -1.594,-0.721734 -2.3086,-0.863282 -1.42776,-0.282815 -2.90862,-0.444462 -4.38867,-0.443359 z m 67.57617,2.265625 c -1.50777,-0.0069 -3.0613,0.228939 -4.50781,0.791016 -0.86103,0.334577 -1.83813,1.032667 -2.64648,1.654297 -0.80835,0.62163 -1.56641,2.419921 -1.56641,2.419921 0,0 1.42138,-1.159193 2.19727,-1.755859 0.77589,-0.596665 1.77816,-1.100631 2.41406,-1.292969 1.72854,-0.522828 3.23082,-0.888253 4.99023,-0.841797 1.11092,0.02933 3.92969,0.328125 3.92969,0.328125 0,0 -2.19075,-1.137487 -3.77539,-1.259765 -0.34112,-0.02632 -0.68721,-0.04139 -1.03516,-0.04297 z m -69.27343,0.398437 c -0.80116,0.0092 -2.01076,0.06898 -2.76563,0.31836 -2.20184,0.727401 -4.01108,2.185015 -6.02344,3.099609 -0.60024,0.272807 -2.29101,1.169922 -2.29101,1.169922 0,0 1.87716,-0.362346 2.49805,-0.644531 2.08508,-0.947654 3.99463,-2.1808 6.0664,-2.865234 1.02339,-0.338087 3.33008,-1.070313 3.33008,-1.070313 0,0 -0.33376,-0.0133 -0.81445,-0.0078 z m 5.45312,0.08398 c -0.96817,0.01912 -1.93797,0.116171 -2.89453,0.330078 -3.3744,0.754586 -6.47489,2.483629 -9.2539,4.410156 -2.70633,1.876142 -4.36011,4.749529 -6.73243,6.484375 -2.44857,1.790621 -8.07617,5.044922 -8.07617,5.044922 0,0 6.07495,-2.094229 8.78516,-4.076172 2.65023,-1.93809 4.29971,-4.797947 6.70703,-6.466797 2.71103,-1.879398 5.68718,-3.52331 8.83203,-4.226562 2.29877,-0.514053 4.79623,-0.282074 7.24219,0.05078 1.79771,0.244642 5.78515,0.951172 5.78515,0.951172 0,0 -3.51755,-1.854099 -5.62304,-2.140625 -1.23901,-0.16861 -2.51685,-0.318382 -3.80469,-0.355469 -0.32196,-0.0093 -0.64407,-0.01223 -0.9668,-0.0059 z m 42.30078,0.04297 c -0.97102,0.0047 -2.02752,0.0901 -2.8164,0.511718 -1.74247,0.931274 -2.82159,2.77617 -3.48828,4.498047 -0.28711,0.741518 -0.35197,1.730874 -0.375,2.578125 -0.023,0.847252 0.83984,2.164063 0.83984,2.164063 0,0 -0.0648,-1.415797 -0.043,-2.21875 0.0218,-0.802953 0.28793,-1.94394 0.50977,-2.40625 0.9049,-1.885828 1.62749,-2.984259 3.02734,-3.732422 0.53853,-0.287822 1.73183,-0.610003 2.74219,-0.595703 1.01036,0.0143 2.40039,0.398437 2.40039,0.398437 0,0 -1.31321,-1.180121 -2.38672,-1.195312 -0.13419,-0.0019 -0.27144,-0.0026 -0.41016,-0.002 z m 26.78125,0.908203 c -1.41303,-0.0137 -3.07986,0.03055 -4.27929,0.357422 -3.2308,0.880464 -6.17486,2.681319 -8.74414,4.728515 -1.11062,0.884926 -2.51863,2.295183 -3.46875,3.664063 -0.99719,1.436689 -1.36914,2.726562 -1.36914,2.726562 0,0 0.86704,-1.175631 2.00195,-2.349609 1.44976,-1.499665 2.60687,-2.388699 3.58398,-3.101563 2.63555,-1.922796 5.30312,-3.690173 8.31055,-4.509765 0.93508,-0.254829 2.58339,-0.329687 3.95312,-0.316406 1.36975,0.01328 3.23243,-0.144532 3.23243,-0.144532 0,0 -1.80767,-1.040984 -3.22071,-1.054687 z M 293.875,29.910156 c -0.058,0.0013 -0.11545,0.004 -0.17383,0.0078 -0.82249,0.05416 -1.74899,0.354913 -2.33594,0.910156 -0.57377,0.542786 -0.89747,1.427911 -1.01171,2.220703 -0.14174,0.983584 0.1875,2.794922 0.1875,2.794922 0,0 0.26021,-2.051115 0.42968,-2.775391 0.16945,-0.724275 0.64576,-1.37483 0.94532,-1.658203 0.31272,-0.295829 1.16832,-0.816168 1.92382,-0.949218 0.7555,-0.133051 1.71094,-0.320313 1.71094,-0.320313 0,0 -0.80553,-0.249816 -1.67578,-0.230469 z m -34.32812,0.40625 c -0.34438,0.0042 -0.67176,0.02395 -0.97071,0.0625 -2.80717,0.361971 -5.45007,1.532395 -7.88867,2.820313 -2.71418,1.433453 -4.71694,3.768749 -7.16016,5.193359 -2.04644,1.193266 -4.23612,2.165391 -6.48046,2.955078 -2.25552,0.793627 -4.85634,0.870684 -7.28126,1.853516 -2.05508,0.832942 -5.22656,3.572266 -5.22656,3.572266 0,0 3.80039,-1.915668 5.60352,-2.646485 2.20182,-0.892408 4.78256,-0.97256 7.23633,-1.835937 2.29468,-0.807406 4.54202,-1.804649 6.65234,-3.035157 2.63978,-1.539225 4.63429,-3.859427 7.12305,-5.173828 2.3948,-1.264788 4.93674,-2.373871 7.55078,-2.710937 0.98349,-0.126817 2.6182,0.0067 3.9707,0.183594 1.3525,0.176938 4.375,0.357421 4.375,0.357421 0,0 -2.85805,-1.168277 -4.24414,-1.349609 -1.03956,-0.135999 -2.22665,-0.258641 -3.25976,-0.246094 z m 40.35156,0.597656 c 0,0 -1.27282,0.4974 -2.40625,1.269532 -1.15694,0.78814 -2.23491,1.835953 -2.99219,2.736328 -0.60262,0.716497 -1.31796,1.815063 -1.76953,2.816406 -0.51715,1.146768 -0.53125,1.941407 -0.53125,1.941406 0,0 0.46784,-0.902276 1.06055,-1.800781 0.74364,-1.127304 1.25044,-1.919087 1.76367,-2.529297 0.66788,-0.794087 1.48911,-1.65494 2.63476,-2.65039 1.04005,-0.903703 2.24024,-1.783204 2.24024,-1.783204 z m 1.18359,0.591797 c 0,0 -0.88304,0.250684 -1.82226,1.183594 -0.83627,0.83064 -1.69103,1.936608 -2.17188,2.845703 -0.58587,1.107666 -1.18031,2.750174 -1.39453,4.195313 -0.2544,1.716145 -0.0586,2.671875 -0.0586,2.671875 0,0 0.35535,-1.173723 0.82226,-2.523438 0.57243,-1.654715 1.02445,-2.950066 1.51367,-3.875 0.3842,-0.726365 1.02573,-1.973226 1.79492,-2.970703 0.69979,-0.907468 1.31641,-1.527344 1.31641,-1.527344 z m -32.17773,1.089844 c -3.02794,0.0424 -5.25195,0.859233 -7.72657,1.871094 -3.54767,1.450632 -6.29588,4.177946 -9.22461,6.291015 -1.8425,1.32937 -3.81099,3.11075 -5.65624,4.671876 -1.84525,1.561126 -3.63803,2.796745 -4.79102,3.3125 -1.99506,0.892428 -3.18138,1.234006 -4.5625,1.488281 -1.03901,0.191292 -3.55469,0.460937 -3.55469,0.460937 0,0 2.44616,0.264875 3.61133,0.208985 1.16517,-0.05589 2.83714,-0.29686 4.9043,-1.025391 1.55755,-0.54893 3.30093,-1.949746 5.16797,-3.529297 1.86702,-1.57955 3.82435,-3.347079 5.58203,-4.615234 3.03149,-2.187224 5.72331,-4.8213 8.97851,-6.152344 3.02046,-1.235057 5.35805,-2.089222 9.39063,-1.685547 1.72147,0.172326 3.90333,1.275689 5.60742,2.357422 1.70409,1.081733 4.47461,2.804688 4.47461,2.804688 0,0 -2.05522,-2.691701 -3.83008,-3.81836 -1.77486,-1.126658 -4.02818,-2.328381 -6.13281,-2.539062 -0.79724,-0.07981 -1.53953,-0.111348 -2.23828,-0.101563 z m -7.38086,0.236328 c -0.15394,-0.0059 -0.30505,-0.0053 -0.44922,0.0059 -1.15337,0.08886 -2.50972,0.248131 -3.45313,0.634765 -2.15393,0.882812 -3.41903,2.932401 -5.13867,3.892578 -2.86347,1.598854 -6.34813,2.104033 -9.47265,3.65625 -2.61875,1.300955 -7.04883,4.884766 -7.04883,4.884766 0,0 4.97931,-2.85111 7.44922,-4.078125 2.94981,-1.465425 6.45122,-1.968015 9.50976,-3.675781 2.00278,-1.118271 3.25204,-3.113625 5.04297,-3.847656 0.72861,-0.298607 2.06276,-0.769417 3.17969,-0.855469 1.11693,-0.08605 2.67773,-0.171875 2.67773,-0.171875 0,0 -1.21928,-0.403661 -2.29687,-0.445313 z m 66.49414,0.888672 c -0.88527,0.0158 -1.90247,0.249504 -2.69531,0.603516 -2.77535,1.239208 -4.99324,3.405795 -6.94727,5.537109 -4.02739,4.392791 -6.90244,9.656766 -9.8125,14.705078 -2.19365,3.805486 -5.04492,11.931641 -5.04492,11.931641 0,0 4.2495,-7.545197 6.3457,-11.181641 2.92117,-5.067584 5.75394,-10.22765 9.61719,-14.441406 1.91164,-2.085081 4.00524,-4.088643 6.45312,-5.181641 0.44763,-0.199868 1.39604,-0.579233 2.19727,-0.779297 1.0507,-0.262353 2.68945,-0.742187 2.68945,-0.742187 0,0 -1.79755,-0.469109 -2.80273,-0.451172 z m -58.38867,1.910156 c -0.54044,-0.01204 -1.05651,0.01546 -1.50977,0.101563 -5.20411,0.988545 -9.58932,4.387741 -13.87305,7.208984 -3.67318,2.419153 -6.54257,5.789529 -10.03125,8.185547 -1.47002,1.009617 -5.27539,3.25 -5.27539,3.25 0,0 4.19261,-1.414051 5.78516,-2.507812 3.62079,-2.486758 6.4859,-5.851111 10.01562,-8.175782 4.32321,-2.847247 8.62617,-6.141461 13.54688,-7.076171 0.95367,-0.181153 2.58618,-0.02751 3.9375,0.193359 1.35132,0.220872 3.23633,0.515625 3.23633,0.515625 0,0 -1.70031,-1.176859 -3.0918,-1.404297 -0.86968,-0.142149 -1.8395,-0.270944 -2.74023,-0.291016 z m 67.00781,0.08008 c -1.72857,0.02907 -3.39595,0.682177 -5.82227,1.578124 -2.49347,0.920749 -5.30278,1.982858 -7.88281,3.478516 -2.00111,1.160059 -4.8418,4.458984 -4.8418,4.458984 0,0 3.81686,-2.246269 5.54493,-3.248046 2.48161,-1.438616 5.15586,-2.583898 7.90039,-3.455078 2.15997,-0.685633 3.60482,-1.318077 5.82422,-1.417969 0.60222,-0.02711 1.25773,0.0021 1.63867,0.09766 0.77219,0.193751 1.53163,0.209452 1.52929,0.208984 0,0 -0.76319,-0.852554 -1.16992,-1.068359 -0.40673,-0.215805 -0.86397,-0.582463 -2.37304,-0.630859 -0.11603,-0.0037 -0.23242,-0.0039 -0.34766,-0.002 z m -65.57813,1.328124 c -0.60169,-0.0069 -1.17192,0.02773 -1.66797,0.126954 -2.82536,0.565169 -5.41227,2.158254 -7.55468,4.005859 -0.82614,0.712456 -1.71488,1.932585 -2.42578,2.990234 -0.37755,0.561688 -0.5835,1.306562 -0.69727,1.886719 -2.38103,1.482844 -4.52349,3.36771 -6.44141,5.34375 -2.69838,2.780174 -4.87133,6.108502 -6.4707,9.619141 -1.23829,2.718069 -2.07675,5.678114 -2.33203,8.669922 -0.0332,0.389355 -0.0333,0.831276 -0.0215,1.289062 -0.55362,0.600284 -3.38674,3.658671 -5.00586,5.115235 -1.71228,1.540366 -5.60743,4.443359 -5.60743,4.443359 0,0 4.29035,-2.183339 6.14258,-3.849609 1.70675,-1.535382 3.94934,-4.840773 4.47266,-5.625 0.031,1.018898 0.14498,2.136823 0.27344,3.134765 0.19,1.476081 1.03515,3.037109 1.03515,3.037109 0,0 -0.23427,-1.940121 -0.2539,-3.394531 -0.0228,-1.687031 0.0695,-2.986164 0.16015,-4.048828 0.24201,-2.836291 1.04181,-5.668594 2.22852,-8.273437 1.54798,-3.397843 3.64929,-6.6138 6.23828,-9.28125 2.7585,-2.842103 5.95579,-5.440818 9.56641,-6.865235 1.03583,-0.408649 2.77429,-0.912114 4.33203,-1.039062 1.55775,-0.126947 3.91992,-0.333985 3.91992,-0.333985 0,0 -2.29084,-0.749838 -3.89453,-0.61914 -1.6037,0.130692 -3.49108,0.359079 -4.79883,0.875 -0.98452,0.388402 -1.93259,0.856203 -2.84766,1.384765 0.21547,-0.337544 0.44132,-0.689138 0.66602,-1.023437 0.69528,-1.0344 1.59123,-2.233328 2.2832,-2.830078 2.07273,-1.78751 4.55881,-3.301516 7.19141,-3.828125 1.09779,-0.219596 2.87548,-0.349779 4.39844,-0.119141 1.52294,0.230642 2.89453,0.417969 2.89453,0.417969 0,0 -1.15827,-0.685845 -2.7168,-0.921875 -0.97408,-0.147519 -2.06359,-0.275673 -3.06641,-0.28711 z M 337.92773,38.25 c -1.24061,0.166543 -2.45246,0.47604 -3.5957,0.769531 -2.80307,0.719602 -7.19629,3.861328 -7.19629,3.861328 0,0 5.16315,-1.892711 7.54395,-2.503906 2.27687,-0.584514 4.62831,-1.136829 6.70703,-0.666015 0.71365,0.161621 2.14723,0.809939 3.39012,1.751443 -0.134,-1.322579 -2.39198,-2.960501 -3.08153,-3.116678 -1.0379,-0.235077 -2.25219,-0.299132 -3.76758,-0.0957 z m -55.41211,1.505859 c 0,0 4.10531,1.003691 5.9004,1.650391 2.2125,0.797081 4.40077,1.81517 6.11132,3.326172 0.96298,0.850638 2.18986,2.5374 3.14063,3.992187 0.95077,1.454789 2.07812,2.433594 2.07812,2.433594 0,0 -0.27023,-1.496259 -1.24023,-2.980469 -0.97,-1.484209 -2.18681,-3.197494 -3.31641,-4.195312 -1.85951,-1.642574 -4.1646,-2.700151 -6.43359,-3.517578 -2.08289,-0.750385 -6.24024,-0.708984 -6.24024,-0.708985 z m 27.53321,0.109375 c 0,0 -5.47265,6.890431 -7.40821,10.966797 -1.50105,3.161309 -2.80859,9.804688 -2.80859,9.804688 0,0 2.50027,-6.358761 3.89258,-9.291016 1.8268,-3.847314 6.32422,-11.480469 6.32422,-11.480469 z m -36.21289,0.740235 c -2.34064,0.0303 -5.28247,0.556337 -6.21289,0.732422 -1.61878,-0.0387 -4.375,0.654297 -4.375,0.654297 0,0 3.36564,-5.5e-5 4.67383,0.167968 2.0838,0.267716 6.44531,1.271485 6.44531,1.271485 0,0 -3.59722,-1.570981 -5.92578,-2 1.69828,0.01235 4.70336,0.05372 6.41406,0.205078 2.97325,0.263025 5.96003,0.795522 8.69922,1.880859 2.7132,1.075045 5.26707,2.651291 7.52148,4.523438 2.36971,1.967886 6.75586,6.865234 6.75586,6.865234 0,0 -3.51283,-5.473631 -6.11523,-7.634766 -2.32785,-1.933124 -4.96875,-3.564565 -7.79297,-4.683593 -2.86603,-1.135595 -5.94799,-1.678999 -8.98047,-1.947266 -0.33696,-0.02981 -0.71035,-0.0403 -1.10742,-0.03516 z m 66.05078,1.15625 c -1.81459,-0.0133 -3.63003,0.391651 -5.34766,1.023437 -3.37543,1.241566 -6.27686,3.170662 -9.24804,5.197266 -3.96861,2.706935 -11.05469,10.822266 -11.05469,10.822266 0,0 8.26274,-6.586772 12.16211,-9.246094 2.80815,-1.915127 5.78846,-3.660547 8.97851,-4.833985 1.95401,-0.718766 4.03606,-1.0983 6.10743,-1.308593 1.26509,-0.128438 3.81445,0.0332 3.81445,0.0332 0,0 -1.91205,-1.234325 -3.60156,-1.527344 -0.60108,-0.104247 -1.20569,-0.155723 -1.81055,-0.160156 z m -103.02149,1.324219 c 0,0 -3.04647,0.789132 -4.50195,1.457031 -1.52837,0.701348 -4.2539,2.576172 -4.2539,2.576172 0,0 3.03468,-1.357044 4.5039,-2.03125 1.39634,-0.640758 4.25195,-2.001953 4.25195,-2.001953 z m -14.79296,0.0078 c 0,0 -5.44132,3.16243 -7.69532,5.521484 -3.50264,3.665901 -8.35547,12.31836 -8.35547,12.31836 0,0 5.75928,-8.155376 9.07813,-11.628906 2.0702,-2.166685 6.97266,-6.210938 6.97266,-6.210938 z m 21.99414,0.224609 c 0,0 -3.33468,1.657827 -4.80079,2.269532 -1.87776,0.783467 -4.04988,0.972516 -6.05273,1.84375 -2.00615,0.872666 -5.33398,3.490234 -5.33398,3.490234 0,0 3.75379,-2.038786 5.61328,-2.847656 1.86262,-0.810236 4.03043,-1.002103 6.04297,-1.841797 1.59438,-0.665229 4.53125,-2.914063 4.53125,-2.914063 z m 98.07226,0.351563 c -1.57576,0.02206 -2.8645,0.43151 -4.03125,1.472656 1.22842,-0.312753 2.43292,-0.479762 3.69727,-0.46289 1.18383,-0.03033 2.54972,0.177154 3.50586,0.728515 0.52478,0.302621 1.2011,0.829693 1.8125,1.380859 0.83079,0.748942 1.74609,1.494141 1.74609,1.494141 0,0 -0.46058,-1.23522 -1.0293,-1.894531 -0.56871,-0.659312 -1.28446,-1.418142 -2.02929,-1.847656 -1.20698,-0.696013 -2.71805,-0.884451 -3.67188,-0.871094 z m -66.53711,0.621094 c -0.77439,-0.01081 -1.65034,0.06521 -2.41992,0.148437 -1.02611,0.110927 -3.82617,1.412109 -3.82617,1.412109 4.14381,-0.576092 5.51864,-0.473669 6.84375,-0.324218 3.23348,0.364684 6.56673,1.062447 9.18555,2.785156 2.38884,1.571434 4.48008,3.90354 5.5332,6.519531 0.38926,0.966954 0.85717,2.833068 0.85742,4.361328 2.5e-4,1.528261 0.004,4.529297 0.004,4.529297 0,0 0.78786,-2.985225 0.87109,-4.570312 0.0812,-1.546539 -0.0888,-3.450141 -0.61914,-4.767578 -1.16508,-2.894122 -3.41276,-5.381276 -5.98633,-7.074219 -2.88192,-1.895787 -6.40171,-2.603335 -9.71094,-2.976563 -0.22806,-0.02572 -0.47429,-0.03936 -0.73242,-0.04297 z m 64.21289,2.24414 c -0.2619,0.0078 -0.50148,0.03124 -0.70507,0.07617 -2.51184,0.554368 -4.72345,1.233036 -6.91602,2.578125 -2.43647,1.49471 -6.00195,6.242188 -6.00195,6.242188 0,0 4.57275,-2.903372 6.92968,-4.34961 1.96278,-1.204377 4.35295,-2.245469 6.60157,-2.742187 1.45642,-0.321724 4.89257,-1.115235 4.89257,-1.115235 0,0 -2.96742,-0.744144 -4.80078,-0.689453 z m -17.64843,0.841797 c 0,0 -8.40981,5.830047 -11.625,10.183594 -2.65248,3.591585 -4.95704,11.611328 -4.95704,11.611328 0,0 4.62736,-7.126238 6.88672,-10.185547 2.82211,-3.821275 9.69532,-11.609375 9.69532,-11.609375 z m -47.14454,0.208985 c -1.5054,-0.0078 -3.00767,0.105522 -4.47851,0.333984 -3.98237,0.618557 -7.93032,2.102482 -11.2793,4.367187 -2.76549,1.870132 -4.91303,4.203963 -6.83398,7.324219 -0.80847,1.313224 -1.49263,3.036175 -2.00391,5.203125 -0.42765,1.81252 -0.50976,4.710938 -0.50976,4.710938 0,0 0.8096,-2.587058 1.33984,-4.333985 0.53024,-1.746925 1.61453,-3.842682 2.30469,-4.9375 1.75338,-2.781438 3.82872,-5.130431 6.43164,-6.890625 3.17401,-2.146393 6.9512,-3.570112 10.75,-4.160156 3.73863,-0.580701 7.44003,-0.283596 11.17578,0.574219 1.1162,0.256306 3.05325,0.985764 4.41211,1.830078 1.35886,0.844315 3.50195,2.521484 3.50195,2.521484 0,0 -1.53575,-2.3717 -2.93359,-3.240234 -1.39784,-0.868535 -3.08775,-1.834756 -4.46485,-2.240234 -1.90988,-0.562358 -3.9013,-0.895753 -5.90625,-1.013672 -0.50123,-0.02948 -1.00405,-0.04624 -1.50586,-0.04883 z m -48.98437,1.779296 c 0,0 -6.18958,3.761864 -8.95313,6.169922 -2.39357,2.085689 -6.5371,6.765625 -6.3125,6.964844 0,0 4.39118,-4.495711 6.70704,-6.513672 2.68581,-2.340331 8.55859,-6.621094 8.55859,-6.621094 z m 63.85351,0.04102 c 0,0 3.11214,3.089002 4.44141,4.558594 1.38699,1.533402 2.47787,2.819985 3.44141,4.974609 0.87465,1.955864 1.81054,7.25 1.81054,7.25 0,0 0.31731,-5.432176 -0.71484,-7.740234 -1.0299,-2.303026 -2.24434,-3.738895 -3.64648,-5.289063 -1.53957,-1.702089 -5.33204,-3.753906 -5.33204,-3.753906 z m -31.40624,0.287109 c 0,0 -2.15257,0.951517 -4.30274,3.007813 -1.73738,1.661526 -3.33748,3.95085 -4.13281,5.517578 -1.7796,3.505612 -3.34049,7.191599 -4.28516,11.044922 -0.62246,2.539036 -0.23242,7.476563 -0.23242,7.476562 0,0 0.84992,-4.952027 1.39844,-7.189453 0.91403,-3.728341 2.43358,-7.334025 4.1875,-10.789062 0.66401,-1.308039 2.13905,-3.708617 3.76562,-5.433594 1.76185,-1.868446 3.60156,-3.634766 3.60157,-3.634766 z m -46.75977,0.56836 c 0,0 -5.90275,5.719804 -8.38477,9.072265 -2.38038,3.215199 -5.95312,10.236329 -5.95312,10.236328 0,0 4.45686,-6.535373 6.75586,-9.640624 2.40062,-3.242513 7.58203,-9.667969 7.58203,-9.667969 z m 28.71289,0.77539 c 0,0 -4.61476,1.316404 -6.74414,2.578125 -2.6172,1.550764 -6.84961,5.716797 -6.84961,5.716797 0,0 4.73396,-3.64907 7.20508,-5.113281 1.98331,-1.17517 6.38867,-3.181641 6.38867,-3.181641 z m 100.10156,0.777344 c -0.83662,-0.0049 -1.74502,0.06134 -2.6875,0.232422 -1.32693,0.240863 -2.30078,1.015625 -2.30078,1.015625 0,0 1.43905,-0.227986 2.74805,-0.208984 1.63622,0.02375 3.05335,0.117458 3.97656,0.263672 2.69555,0.426909 4.55364,0.963866 6.5918,2.201171 1.91909,1.165029 3.4978,3.016226 4.74609,4.988282 0.48622,0.768136 1.08392,1.861671 1.64258,3.027343 0.6669,1.391492 1.2832,2.88086 1.2832,2.88086 0,0 0.0962,-1.402643 -0.21094,-2.703125 -0.38779,-1.642172 -0.89786,-2.952497 -1.53124,-3.953125 -1.32061,-2.086312 -3.01649,-4.1081 -5.20313,-5.435547 -2.31952,-1.408109 -5.05066,-1.960843 -7.63477,-2.230469 -0.44138,-0.04605 -0.91794,-0.07516 -1.41992,-0.07813 z m -65.19726,0.603516 c -4.67635,0.190279 -9.29172,1.978966 -13.15821,4.490234 -4.62061,3.001074 -8.26818,7.400773 -11.14453,11.986328 -2.67907,4.271084 -4.3989,9.133415 -5.4707,14.003907 -0.64567,2.934038 0.0648,8.487071 0.32812,8.390624 0,0 0.79951,-5.603539 1.33204,-8.023437 1.0407,-4.729245 2.70596,-9.411011 5.25,-13.466797 2.79194,-4.451013 6.30558,-8.655587 10.63086,-11.464844 3.65588,-2.374479 8.01673,-4.044353 12.30273,-4.21875 1.80114,-0.07329 4.76329,0.643101 7.18945,1.40625 2.42617,0.763151 4.66797,0.759766 4.66797,0.759766 0,0 -1.65955,-1.594907 -4.1582,-2.380859 -2.49866,-0.785954 -5.48439,-1.575405 -7.76953,-1.482422 z m -28.28125,0.634765 c 0,0 -8.33875,1.71263 -12.25782,3.640625 -4.35134,2.140662 -8.6186,4.722294 -12.16406,8.09375 -1.82827,1.73855 -3.99937,4.685557 -5.74023,7.214844 -1.74086,2.529288 -2.61328,4.898438 -2.61328,4.898438 0,0 1.50341,-2.179435 3.32226,-4.619141 1.78293,-2.39151 4.01743,-5.149841 5.7207,-6.769531 3.43966,-3.270844 7.61826,-5.805626 11.91602,-7.919922 3.68695,-1.813803 11.81641,-4.539063 11.81641,-4.539063 z m 46.94336,1.365235 c 0,0 0.0117,3.261528 -0.11329,4.732422 -0.13184,1.552256 -0.74414,4.919921 -0.74414,4.919921 0,0 1.38967,-3.071699 1.54102,-4.853515 0.14444,-1.700454 -0.68359,-4.798828 -0.68359,-4.798828 z m -15.13868,1.443359 c -0.77754,-0.01758 -1.31054,0.08594 -1.31054,0.08594 2.86335,0.763541 4.90414,1.403598 6.94922,2.607422 1.03815,0.61111 2.10979,1.444673 3.65039,2.763671 1.25035,1.070494 2.29883,2.332032 2.29882,2.332032 0,0 -0.47735,-1.373813 -1.6289,-2.601563 -1.15156,-1.22775 -2.5708,-2.624543 -3.8125,-3.355469 -1.18254,-0.696096 -2.99637,-1.231202 -4.54492,-1.621093 -0.58071,-0.14621 -1.13504,-0.200388 -1.60157,-0.210938 z m 17.01172,0.34961 c 0,0 0.12617,2.765247 0.0898,3.972656 -0.0635,2.113646 -0.66016,5.517578 -0.66016,5.517578 0,0 1.22077,-2.57441 1.45898,-5.482422 0.12027,-1.468153 -0.88867,-4.007813 -0.88867,-4.007812 z m 28.57813,0.07031 c 0,0 -4.00223,1.590538 -5.7461,3.058594 -1.92217,1.618169 -4.47265,5.652343 -4.47265,5.652344 0,0 3.54184,-3.299675 5.24609,-4.734376 1.52593,-1.284586 4.97266,-3.976562 4.97266,-3.976562 z m 12.57617,0.0078 c -1.02722,-0.01412 -2.05323,0.03176 -3.06641,0.125 -2.27611,0.209477 -6.17382,2.037111 -6.17382,2.03711 0,0 4.28901,-0.859104 6.26562,-1.041016 2.61503,-0.240665 5.30114,-0.141656 7.83203,0.462891 0.95139,0.227256 2.35659,0.558156 3.55078,1.126953 1.19418,0.568797 2.42774,0.931641 2.42774,0.931641 0,0 -0.71831,-0.958354 -1.9375,-1.539063 -1.21919,-0.580708 -2.68759,-1.224416 -3.8086,-1.492187 -1.33114,-0.317969 -2.69378,-0.503246 -4.0625,-0.576172 -0.34217,-0.01823 -0.68493,-0.03045 -1.02734,-0.03516 z m -111.86523,0.164063 c 0,0 -7.9049,3.494913 -11.45704,6.117187 -3.02391,2.232337 -7.76757,7.814454 -7.76757,7.814454 0,0 5.50988,-4.906706 8.36132,-7.011719 3.37967,-2.494952 10.86329,-6.919922 10.86329,-6.919922 z m 20.6875,1.957031 c 0,0 -6.61015,1.669424 -9.68946,3.363282 -2.7556,1.515798 -4.8325,3.884856 -7.375,5.300781 -2.87793,1.60274 -9.20508,4.355469 -9.20508,4.355469 0,0 6.61284,-1.766001 9.69141,-3.480469 2.74616,-1.529347 4.82274,-3.897031 7.37109,-5.298828 2.86901,-1.57818 9.20704,-4.240235 9.20704,-4.240235 z m 30.31054,0.06641 c -3.03453,-0.05161 -6.10019,0.73209 -8.80664,1.982422 -4.83541,2.233886 -8.84596,6.001317 -12.30664,9.896485 -2.63747,2.968605 -4.82446,6.415603 -6.33203,10.097656 -0.7851,1.917512 -1.40387,4.77361 -1.85156,7.191406 -0.4477,2.417798 -0.13281,5.06836 -0.13281,5.06836 0,0 0.91517,-2.710087 1.35546,-5.087891 0.44028,-2.377805 1.20448,-5.174864 1.89258,-6.855469 0.92419,-2.257225 2.13747,-4.444881 3.55664,-6.476562 -1.52522,2.293834 -2.70378,4.816261 -3.69726,7.322265 -1.7357,4.378168 -2.26953,13.359375 -2.26953,13.359375 0,0 2.19909,-8.837783 3.75781,-12.769531 1.41142,-3.560219 3.18171,-7.063058 5.70703,-9.802734 2.39298,-2.596103 5.2911,-4.960023 8.5293,-5.978516 1.20911,-0.380296 2.98781,-0.637117 4.85351,-0.720703 2.19929,-0.09853 3.95117,-0.04102 3.95117,-0.04102 0,0 -1.28969,-0.813983 -3.39648,-1.138671 -0.96003,-0.147955 -2.02354,-0.09528 -3.04492,-0.05273 -1.02138,0.04254 -2.01023,0.165571 -2.84375,0.427735 -3.61838,1.138074 -6.67568,3.666248 -9.16406,6.353515 0.0558,-0.06377 0.1098,-0.130089 0.16601,-0.193359 3.39662,-3.82307 7.36129,-7.142197 11.89844,-9.238282 0.0548,-0.02531 0.11106,-0.04551 0.16601,-0.07031 0.80079,-0.02939 1.25851,-0.04677 2.71094,-0.09766 2.48057,-0.08691 5.06931,-0.02728 6.40234,0.30664 2.95964,0.741387 5.48047,2.529297 5.48047,2.529297 0,0 -1.89352,-2.469701 -5.23828,-3.5 -0.81074,-0.249737 -1.85281,-0.488022 -3.03125,-0.490234 -0.99633,-0.0019 -2.12178,0.03173 -3.1582,0.128906 1.91426,-0.495283 3.91366,-0.697652 5.99414,-0.583984 1.20204,0.06567 2.96916,0.433536 4.58008,1.125 1.83729,0.788634 3.1582,1.101562 3.1582,1.101562 0,0 -0.62172,-1.014497 -2.35156,-1.957031 -1.59765,-0.870509 -3.61943,-1.601956 -5.23828,-1.761719 -0.43113,-0.04255 -0.86337,-0.06685 -1.29688,-0.07422 z m -50.81836,0.279297 c 0,0 -6.32988,3.128613 -9.2207,5.230469 -2.62835,1.911022 -7.08203,6.519531 -7.08203,6.519531 0,0 4.88912,-4.183703 7.43555,-6.035156 2.80888,-2.042288 8.86718,-5.714844 8.86718,-5.714844 z m 101.85352,0.88086 c 0,0 -3.74219,1.17468 -5.43555,2.349609 -1.64935,1.144399 -3.98047,4.164063 -3.98047,4.164063 0,0 3.20864,-2.166536 4.66602,-3.177735 1.50138,-1.041726 4.75,-3.335937 4.75,-3.335937 z m 10.1289,1.005859 c 0,0 -5.45343,1.007685 -8.03906,2.275391 -2.64475,1.296701 -6.88672,5.068359 -6.88672,5.068359 0,0 4.89928,-2.979079 7.32813,-4.169922 2.36971,-1.161846 7.59766,-3.173828 7.59765,-3.173828 z m 5.41407,0.457031 c -0.67003,0.0058 -1.34303,0.03609 -1.97266,0.07422 -1.67901,0.101677 -4.03516,1.363281 -4.03515,1.363281 0,0 2.45283,-0.265746 4.0957,-0.365234 1.64287,-0.09949 3.6188,-0.114761 4.79883,0.144531 1.49207,0.327864 3.71176,1.378351 5.51562,2.347656 1.80387,0.969307 4.18555,2.257813 4.18555,2.257813 0,0 -1.87714,-2.152229 -3.71289,-3.138672 -1.83576,-0.986443 -4.05753,-2.066314 -5.77344,-2.443359 -0.87741,-0.192798 -1.98486,-0.249894 -3.10156,-0.240235 z m -11.10157,0.01758 c 0,0 -3.81801,0.310649 -5.66601,1.207031 -2.13049,1.033408 -5.23047,4.240234 -5.23047,4.240234 0,0 3.81738,-2.442204 5.66797,-3.339844 1.5681,-0.760614 5.22852,-2.107421 5.22851,-2.107421 z M 242.74219,61.75 c 0,0 -5.45549,4.061116 -8.2168,5.798828 -3.28576,2.067757 -10.44727,5.722656 -10.44727,5.722656 0,0 7.52177,-2.698401 10.98047,-4.875 2.93427,-1.846554 7.6836,-6.646484 7.6836,-6.646484 z m 28.87304,0.572266 c -0.91657,0.0076 -1.88867,0.275391 -1.88867,0.27539 2.09966,0.169544 3.51277,0.477522 5.01367,1.027344 1.51922,0.556519 2.73697,1.352796 4.19532,2.228516 0,0 -0.24757,-0.713145 -1.23243,-1.421875 -0.83119,-0.59815 -1.85105,-1.252184 -2.6875,-1.558594 -0.82509,-0.302256 -2.00869,-0.448505 -3.01367,-0.537109 -0.12562,-0.01107 -0.25578,-0.01476 -0.38672,-0.01367 z m -66.73242,0.568359 c 0,0 -4.73702,4.02394 -6.59961,6.632813 -1.4198,1.988683 -3.01367,6.40039 -3.01367,6.40039 0,0 2.53535,-4.00761 3.82813,-5.818359 1.73554,-2.430938 5.78515,-7.214844 5.78515,-7.214844 z m 134.59375,0.664063 c -0.18544,0.0034 -0.36417,0.0116 -0.5332,0.02539 -2.44246,0.199225 -6.70898,2.037109 -6.70898,2.03711 0,0 4.63233,-0.864939 6.79101,-1.041016 2.42073,-0.197451 7.6582,-0.02344 7.6582,-0.02344 0,0 -4.42534,-1.048826 -7.20703,-0.998046 z m -0.9707,2.144531 c -1.89544,0.04877 -4.28894,0.492636 -6.44531,1.412109 -2.00319,0.854153 -3.71094,2.613281 -3.71094,2.613281 0,0 2.09674,-0.907598 4.16016,-1.384765 2.26696,-0.524237 4.52046,-1.001992 6.03711,-1.041016 1.52394,-0.03921 3.99426,0.130541 6.08398,0.527344 2.22283,0.42208 4.7832,1.269531 4.7832,1.269531 0,0 -2.21609,-1.541964 -4.37109,-2.314453 -2.0586,-0.737934 -4.63438,-1.130989 -6.53711,-1.082031 z m -118,0.373047 c 0,0 -5.4509,2.574742 -7.89844,4.425781 -1.95661,1.47976 -5.06055,5.134765 -5.06054,5.134765 0,0 3.56443,-3.251494 5.42187,-4.65625 2.34836,-1.776033 7.53711,-4.904295 7.53711,-4.904296 z m 22.58008,0.402343 c 0,0 -2.40266,0.485609 -5.20313,1.578125 -2.80046,1.092516 -6.08757,2.500521 -8.09375,3.816407 -3.19479,2.095525 -7.66992,7.623046 -7.66992,7.623047 0,0 4.97319,-5.135762 8,-7.121094 1.9177,-1.257847 5.19706,-2.673139 7.98242,-3.759766 2.78538,-1.086626 4.98438,-2.136719 4.98438,-2.136719 z m -37.0625,0.732422 c 0,0 -3.21661,1.379084 -5.07032,3.248047 -1.85369,1.868963 -3.98213,4.168068 -5.13085,6.019531 -1.1076,1.785166 -2.18229,4.603754 -3.00196,7.001953 -0.81966,2.398201 -0.89258,4.503907 -0.89258,4.503907 0,0 1.0298,-1.809637 1.83985,-4.179688 0.81004,-2.370049 1.89557,-5.172998 2.9043,-6.798828 1.04987,-1.692127 3.15747,-3.993956 4.99023,-5.841797 1.83276,-1.847841 4.36133,-3.953125 4.36133,-3.953125 z m 33.49218,2.837891 c 0,0 -3.44274,0.42563 -5.09765,1.179687 -2.64471,1.205058 -7,4.8125 -7,4.8125 0,0 4.8145,-3.048249 7.28906,-4.175781 1.48477,-0.676531 4.80859,-1.816406 4.80859,-1.816406 z m -3.80273,3.457031 c 0,0 -7.036,2.691133 -10.33789,4.609375 -3.71625,2.158965 -6.79323,5.210893 -10.46875,7.132813 -2.86835,1.49985 -6.3025,1.973704 -9.33203,3.572265 -2.76981,1.461523 -7.30274,5.539063 -7.30274,5.539063 0,0 5.0754,-3.459905 7.67579,-4.832031 2.86185,-1.510094 6.29548,-1.983525 9.33007,-3.570313 3.819,-1.996942 6.9035,-5.060988 10.5,-7.150391 3.20267,-1.860598 9.93555,-5.30078 9.93555,-5.300781 z m 7.49023,1.382813 c 0,0 -5.27439,3.783331 -7.65039,6.046875 -2.22319,2.117984 -3.96609,4.638546 -6.20507,6.552734 -1.06973,0.91455 -3.42578,2.837891 -3.42578,2.837891 0,0 2.74999,-1.206879 3.94726,-2.230469 2.34473,-2.004586 4.09324,-4.538421 6.23633,-6.580078 2.31664,-2.207002 7.09765,-6.626953 7.09765,-6.626953 z m -30.74414,0.388672 c 0,0 -3.97843,2.23725 -8.26367,5.8125 -4.28522,3.57525 -9.16936,8.060945 -11.62695,11.878906 -1.05442,1.638084 -1.89968,4.247884 -2.51367,6.480468 -0.61399,2.232588 -0.48828,4.175778 -0.48828,4.175778 0,0 0.42792,-2.09312 1.13671,-4.255856 0.74751,-2.280854 1.78651,-4.432343 2.70508,-5.859375 2.32174,-3.606907 7.17287,-8.102432 11.42774,-11.652343 4.25485,-3.549913 7.62304,-6.580079 7.62304,-6.580078 z m 7.58594,0.1875 c 0,0 -7.57657,3.596416 -11.00586,6.09375 -2.79658,2.036577 -7.42578,7.041015 -7.42578,7.041015 0,0 5.07958,-4.590607 7.7793,-6.556641 3.33241,-2.426787 10.65234,-6.578124 10.65234,-6.578124 z m -15.49023,0.300781 c 0,0 -1.88051,0.911171 -3.73633,2.613281 -1.85582,1.70211 -4.00154,3.797671 -5.2207,5.484375 -1.0773,1.490428 -2.23518,3.859815 -3.14454,5.878906 -0.90934,2.019091 -1.09374,3.863281 -1.09374,3.863281 0,0 1.1075,-1.458423 2.00585,-3.453124 0.89837,-1.994701 2.06429,-4.349127 3.04297,-5.703126 1.12056,-1.550273 3.24984,-3.649956 5.08594,-5.333984 1.8361,-1.684028 3.06055,-3.349609 3.06055,-3.349609 z m 29.19922,0.990234 c -0.18187,0.0031 -0.35615,0.01573 -0.51953,0.04102 -1.52802,0.236447 -3.5174,1.115711 -5.16211,1.93164 -1.64473,0.815931 -3.1875,2.611329 -3.1875,2.611329 0,0 1.9269,-1.092816 3.54296,-1.894532 1.61608,-0.801716 3.31525,-1.448363 4.92774,-1.857422 0.44421,-0.112687 1.24073,-0.24014 1.92187,-0.134765 0.68114,0.105363 1.35743,0.08398 1.35743,0.08398 0,0 -0.48061,-0.520608 -1.19336,-0.630859 -0.53457,-0.08269 -1.14192,-0.159691 -1.6875,-0.150391 z m -2.99414,3.777344 c 0,0 -5.91275,3.071035 -8.82618,4.599609 -4.23242,2.220618 -12.83203,6.576172 -12.83203,6.576172 0,0 8.91773,-3.61878 13.20313,-5.867187 2.96638,-1.556368 8.45508,-5.308594 8.45508,-5.308594 z m 2.43359,4.404297 c 0,0 -0.88914,1.47479 -1.33984,2.177734 -0.45071,0.702945 -1.15288,1.287152 -1.56641,1.710938 -3.42352,3.508388 -8.18396,5.611187 -12.16797,8.830078 -2.36166,1.908103 -4.42943,4.096896 -6.68945,5.998046 -2.59665,2.18432 -6.04239,3.73124 -8.43555,6.41992 -1.2273,1.37886 -2.68811,3.63229 -3.78516,5.5625 -1.09703,1.93021 -1.49414,4.28516 -1.49414,4.28516 0,0 0.98929,-2.19362 2.24024,-3.99414 1.40919,-2.02828 2.676,-3.94114 3.78711,-5.18945 2.22445,-2.49915 5.6119,-4.03376 8.33008,-6.32032 2.31836,-1.95024 4.38368,-4.13247 6.67578,-5.984372 3.84309,-3.10504 8.65169,-5.216639 12.25586,-8.910157 0.0211,-0.0216 0.0433,-0.04975 0.0645,-0.07227 -0.23643,0.347321 -0.47056,0.693713 -0.63672,0.96289 -0.49456,0.80118 -1.29343,1.499969 -1.75976,1.986328 -3.03736,3.167793 -7.76583,4.659735 -11.0586,8.062496 -0.86679,0.89575 -1.84228,2.34295 -2.62695,3.58594 -0.78467,1.243 -1.13477,3.17383 -1.13477,3.17383 0,0 0.92515,-1.5417 1.69532,-2.76172 0.77017,-1.22003 2.03724,-2.52983 2.78515,-3.30273 3.05289,-3.154881 7.78242,-4.647517 11.06055,-8.066409 0.58777,-0.613014 1.21932,-1.571591 1.72851,-2.396485 0.41095,-0.665731 0.7297,-1.91002 0.8418,-2.382812 0.21138,-0.301977 0.42283,-0.611392 0.60938,-0.902344 0.46516,-0.725499 0.62109,-2.472656 0.62109,-2.472656 z m -4.50781,1.240234 -11.40821,8.777344 c 0,0 -10.11949,4.956395 -13.99023,8.902348 -1.93874,1.9764 -4.32422,7.09179 -4.32422,7.09179 0,0 2.90099,-4.66209 4.89258,-6.5039 4.02935,-3.72635 13.89062,-8.839848 13.89062,-8.839848 z m -6.33399,3.6875 c 0,0 -3.69702,1.854352 -5.48047,2.753906 -3.25441,1.641497 -7.0232,2.421514 -10.28125,4.392578 -2.17421,1.31537 -5.4375,4.951168 -5.4375,4.951168 0,0 3.86911,-3.066264 5.85157,-4.265621 3.10133,-1.876265 6.84472,-2.657518 10.22656,-4.363281 1.87427,-0.945364 5.12109,-3.46875 5.12109,-3.46875 z m 8.71485,2.771484 c 0,0 -2.12617,3.274234 -2.73633,5.013672 -0.39465,1.125066 -0.46455,2.297848 -0.58203,3.398436 -0.11748,1.1006 -0.28047,2.11908 -0.76367,2.9707 -0.6768,1.19284 -2.28145,3.04054 -3.7461,4.25 -1.46466,1.20947 -2.50195,2.21876 -2.50195,2.21876 0,0 1.59676,-0.49302 3.09765,-1.73243 1.50091,-1.2394 3.19454,-2.78816 4.01954,-4.24218 0.60214,-1.06127 0.76825,-2.23124 0.88867,-3.35938 0.12042,-1.12814 0.1979,-2.223521 0.53125,-3.173828 0.52678,-1.501748 1.79297,-5.34375 1.79297,-5.34375 z m -34.40625,0.916016 c 0,0 -2.48869,2.066366 -3.44141,3.460938 -1.17987,1.727062 -2.55078,5.525394 -2.55078,5.525394 0,0 2.12253,-3.481043 3.21094,-5.074222 0.86125,-1.260683 2.78125,-3.91211 2.78125,-3.91211 z m 0.22851,3.570313 c 0,0 -0.77214,0.03231 -1.42773,0.521484 -0.6556,0.489183 -1.41136,1.091656 -1.87305,1.642578 -0.73949,0.882417 -1.51436,2.299257 -2.125,3.515627 -0.61063,1.21637 -0.76172,3.28125 -0.76172,3.28125 0,0 0.8769,-1.72735 1.47656,-2.92188 0.59967,-1.19453 1.38295,-2.59704 2.02344,-3.361325 0.36269,-0.432788 1.10228,-1.041059 1.73828,-1.515625 0.63601,-0.474566 1.16993,-0.829102 0.94922,-1.162109 z m 28.80274,2.535156 c 0,0 -4.73093,2.588133 -6.69532,4.605473 -4.14294,4.2546 -7.45101,9.2522 -10.55078,14.25585 -2.13265,3.44253 -4.99023,10.86133 -4.99023,10.86133 0,0 3.79577,-7.03126 5.8418,-10.33398 3.0889,-4.98611 6.36069,-9.92132 10.41601,-14.08594 1.77641,-1.82428 5.97852,-5.302733 5.97852,-5.302733 z m -28.57227,0.632813 c 0,0 -1.03001,0.34468 -1.92578,1.20898 -0.89577,0.8643 -1.91412,1.9283 -2.45117,2.85352 -0.71088,1.22467 -1.27995,3.13304 -1.69336,4.76172 -0.41342,1.62867 -0.26563,3.04297 -0.26563,3.04297 0,0 0.44354,-1.46755 0.92578,-3.04688 0.55028,-1.80215 1.10596,-3.29162 1.72461,-4.35742 0.44484,-0.76635 1.44152,-1.8336 2.31641,-2.67773 0.87489,-0.84415 1.36914,-1.78516 1.36914,-1.78516 z m 26.95898,3.05469 c 0,0 -6.71533,5.56902 -9.38671,9.14648 -1.78501,2.39045 -3.12533,5.0599 -4.42579,7.68164 -1.43468,2.89237 -3.23828,8.97852 -3.23828,8.97852 0,0 2.75509,-5.7537 4.13477,-8.53516 1.29875,-2.61831 2.61535,-5.22906 4.33008,-7.52539 2.52931,-3.38721 8.58594,-9.74609 8.58593,-9.74609 z m -26.84374,1.84179 c 0,0 -1.21,0.96903 -2.16602,2.53711 -0.95602,1.56808 -2.02915,3.46951 -2.52148,4.92383 -0.46184,1.36424 -0.74328,3.3861 -0.92383,5.09375 -0.18056,1.70765 0.19726,3.11328 0.19726,3.11328 0,0 0.51942,-1.33794 0.69727,-3.01953 0.1778,-1.68158 0.47197,-3.69256 0.88086,-4.90039 0.43938,-1.29791 1.49707,-3.19844 2.43945,-4.74414 0.94238,-1.5457 1.39649,-3.00391 1.39649,-3.00391 z m 14.8164,3.16407 c 0,0 -4.21922,2.67778 -6,4.51562 -1.57151,1.62186 -3.77539,5.42188 -3.77539,5.42188 0,0 2.73234,-3.48197 4.20703,-5.00391 1.68396,-1.73792 5.56836,-4.93359 5.56836,-4.93359 z m 13.29492,0.40625 c 0,0 -6.80046,5.21121 -9.49609,8.68164 -1.85404,2.38693 -3.98242,7.79492 -3.98242,7.79492 0,0 3.07815,-5.00159 4.77148,-7.18164 2.53493,-3.26353 8.70703,-9.29492 8.70703,-9.29492 z m -23.84765,1.8457 c 0,0 -3.47195,2.92147 -4.78321,4.87305 -1.74733,2.60061 -3.74218,8.375 -3.74218,8.375 0,0 2.67893,-5.53857 4.32226,-7.98438 1.20724,-1.79676 4.20313,-5.26367 4.20313,-5.26367 z m 24.74218,0.17187 c 0,0 -1.89014,2.18075 -3.56835,3.42774 -1.67821,1.24699 -3.61884,2.79801 -4.73829,4.14453 -1.12315,1.35097 -2.29794,3.54936 -3.2207,5.43359 -0.92276,1.88425 -1.56641,4.6211 -1.56641,4.6211 0,0 1.30978,-2.48763 2.21875,-4.34375 0.90899,-1.85613 2.34104,-3.8732 3.33789,-5.07227 0.99316,-1.19461 2.91138,-2.75215 4.56446,-3.98047 1.65308,-1.22831 2.97265,-4.23047 2.97265,-4.23047 z m -1.02343,4.84766 c 0,0 -1.11081,0.72976 -1.76172,1.02148 -0.65091,0.29172 -1.40768,0.66188 -1.90039,1.0586 -0.65357,0.52624 -1.37108,1.4285 -1.94922,2.21094 -0.57814,0.78243 -1.03711,2.36718 -1.03711,2.36718 0,0 0.91242,-1.31073 1.47656,-2.07422 0.56414,-0.76348 1.41157,-1.52608 1.94922,-1.95898 0.37679,-0.30338 1.11669,-0.68079 1.74609,-0.96289 0.62942,-0.2821 1.47657,-1.66211 1.47657,-1.66211 z m -17.15235,0.2793 c 0,0 -3.45776,2.11653 -4.86914,3.68359 -2.42883,2.69674 -5.73047,8.99024 -5.73047,8.99024 0,0 3.94749,-5.96283 6.25196,-8.52149 1.28702,-1.42898 4.34765,-4.15234 4.34765,-4.15234 z M 224,119.38672 c 0,0 -2.51119,1.65906 -3.60547,2.49023 -1.09428,0.83117 -2.34928,1.86352 -3.05664,2.82813 -0.6357,0.86688 -1.17167,2.20356 -1.58398,3.35351 -0.41232,1.14996 -0.32227,3.17774 -0.32227,3.17774 0,0 0.86212,-1.72535 1.26172,-2.83985 0.3996,-1.11448 0.95663,-2.42717 1.45117,-3.10156 0.56619,-0.7721 1.78923,-1.81271 2.85352,-2.62109 C 222.06233,121.86544 224,119.38672 224,119.38672 Z m -1.88086,7.45508 c 0,0 -2.61198,1.70301 -3.61719,3.01367 -1.53094,1.99613 -2.53343,4.3138 -3.60937,6.51172 -0.52984,1.08234 -1.06836,3.3789 -1.06836,3.3789 0,0 1.1984,-2.05319 1.69726,-3.07226 1.08554,-2.21752 2.07428,-4.4878 3.53516,-6.39258 0.87899,-1.1461 3.0625,-3.43945 3.0625,-3.43945 z m -0.22852,4.26367 c 0,0 -2.3514,1.7417 -3.18945,3.07617 -1.97924,3.15167 -4.07031,10.05859 -4.07031,10.05859 0,0 3.07529,-6.59621 4.91602,-9.52734 0.69954,-1.11393 2.34374,-3.60742 2.34374,-3.60742 z m -0.92382,4.83984 c 0,0 -2.55276,1.9053 -3.51953,3.28321 -0.74131,1.05653 -1.5625,4.375 -1.5625,4.375 0,0 1.35143,-2.91539 1.97265,-3.80079 0.84672,-1.20676 3.46974,-3.50976 3.10938,-3.85742 z m 1.19531,3.0625 c 0,0 -2.00292,0.82637 -3.0332,2.125 -1.03029,1.29863 -2.19448,2.88157 -2.76563,4.17188 -0.46329,1.04664 -0.77198,2.58138 -0.98633,3.88672 -0.21434,1.30532 0.25782,2.91015 0.25782,2.91015 0,0 0.19535,-1.80177 0.40429,-3.07422 0.20895,-1.27245 0.69808,-2.87239 1.07617,-3.72656 0.48595,-1.09783 1.46113,-2.5185 2.47071,-3.79101 1.00958,-1.27253 2.57617,-2.50196 2.57617,-2.50196 z m -0.96484,3.96485 c 0,0 -0.73192,0.20636 -1.29883,0.78711 -0.56692,0.58074 -1.20182,1.26454 -1.53125,1.79296 -0.64023,1.02694 -0.74024,2.83399 -0.74024,2.83399 0,0 0.81098,-1.62593 1.33399,-2.46484 0.25218,-0.4045 0.88449,-1.10337 1.43945,-1.67188 0.55497,-0.56851 0.79688,-1.27734 0.79688,-1.27734 z"
       sodipodi:nodetypes="sssscssssccsssscsssscssscsssscscsscsscscsssscssssssscsscscssscscsscssscccsssscsssssscsssscsssscssssccsssscsssscsssscsscsssscsssccssscsscsssccscsscsscsscsscsscccscssscssssscsssscscssscssscsssscsscssscscsssscsssssscssscssssscsscssssscsssscssssssscsssscsssssscsssscssssscssscssssssscsssssscsscssscsssccssscssscsssssscssssssscssssscsscsssscssssscsssscssssscsssscssssscsssscssssssscssscscscscsssssscsscsssscsssscsscsscssscsssccscscscccccssscssssssscssscsscscsccscsccsscsscsccsscssssscsssscsssssssscsscscscscssssscsssssscsssscscsccsscssccssscsssccscsccscscsscssssscssssssssscssssscsscssscsssccscscscsscsssscccsccscscsscssscsssscscsccsscsscssssscsscscsssscsssccscsscsscsscssscscsccscsccscscsscssscssscscsccscscscscsssscscscsscscssscssscsscscsccsscssccssscsssccscsccssscsssccsscssccssscsssccscsccssscssscssscssscsscscsccsssssscssssscsssscsssscscccscscccsscssccsssscssssccscsccssscsssccsscssccssscsssccsscssccsssccssccscsccscsccscsccssscsssccssscsssccscsccssscsssccsscssccscsccscsccssscsssccsscssc" /><path
       style="fill:#000000;fill-opacity:0.4;stroke:none;stroke-width:1px;stroke-linecap:butt;stroke-linejoin:miter;stroke-opacity:1"
       d="m 258.24061,27.04602 2.76977,-5.376619 -0.16292,5.702474 2.28099,-5.21369 1.30342,-0.162928 -0.48879,3.910268 1.79221,2.769773 4.72491,-5.539546 0.16293,5.050763 1.95513,-1.466351 0.97757,4.399052 c 0,0 2.2625,-3.553462 4.07319,-4.399052 0.98539,-0.460175 3.25856,-0.162928 3.25856,-0.162928 l -3.58441,4.073196 c 0,0 2.46042,-1.809303 3.91026,-2.118062 0.69258,-0.147492 2.11807,0.162928 2.11807,0.162928 l -2.60685,3.910268 2.60685,-1.792206 3.58441,-2.118062 -0.65171,5.376618 2.76977,-3.258556 -1.30342,4.073196 0.48878,1.303422 2.60685,-4.236123 -0.48879,2.606845 3.25856,-1.955134 -1.30342,6.680041 2.60684,-4.399051 c 0,0 -0.39209,2.625999 -0.16293,3.910268 0.12402,0.695043 0.98745,2.819188 0.98745,2.819188 l 1.45647,-5.426034 0.81464,6.02833 1.62928,-6.842969 c 0,0 -0.25237,3.494215 0,5.213691 0.24701,1.682986 1.46635,4.887835 1.46635,4.887835 v 0.651711 l 4.0732,-4.236124 2.76977,-2.769773 c 0,0 -3.02683,4.683378 -3.74734,7.331753 -0.24279,0.892417 -0.16293,2.769773 -0.16293,2.769773 l 2.9327,-4.887835 2.44392,-3.421485 -2.60685,6.842969 v 2.769773 l 5.37662,-9.612742 c 0,0 -2.80831,8.613313 -4.20817,12.96674 -0.88347,2.747518 -2.47187,8.376806 -2.47187,8.376806 l -0.97757,-5.376618 -2.76977,-3.584413 -2.9327,-4.073195 -7.16882,-7.657608 -8.1464,-1.792207 -3.74734,-2.118061 -6.68004,-4.236124 -5.05076,-0.651711 -3.58441,-1.792206 -4.23613,-1.466351 -1.95513,-1.140495 z"
       id="path129"
       sodipodi:nodetypes="cccccccccccsccscccccccccccccsccccsccccsccccccsccccccccccccc" /><path
       id="path130"
       style="fill:#000000;fill-opacity:0.3;stroke:none;stroke-width:1px;stroke-linecap:butt;stroke-linejoin:miter;stroke-opacity:1"
       d="m 210.27344,48.3125 -5.20508,5.605469 -8.06445,13.017578 -0.69141,3.111328 -2.30273,11.634766 -2.30469,7.488281 -0.46094,5.53125 -1.38281,5.183594 -0.11524,4.376954 1.03711,4.95508 0.69141,10.83008 1.54582,10.11027 c 0,0 2.44634,-5.49936 4.09879,-5.0411 0.99596,0.2762 1.03703,2.76481 1.03703,2.76481 0,0 6.36312,-9.37905 7.67105,-10.2191 1.25879,-0.80848 -2.25503,11.48668 -2.25503,11.48668 0,0 6.2914,-2.44874 7.66211,-2.61914 l 1.4375,-3.37305 1.0371,-5.875 3.80274,-7.83398 -4.72461,6.91211 2.99609,-8.06446 -3.80078,5.64453 3.22461,-6.45117 3.91797,-8.179686 -2.99609,3.226566 -1.72852,4.03125 -3.57031,2.65039 1.03711,-3.3418 5.18359,-6.796875 -6.45117,5.874995 -4.49414,2.76563 3.6875,-6.10547 5.64453,-5.30078 -6.56641,3.80273 -6.45117,5.29883 3.68555,-5.644529 6.33789,-5.068359 -5.53125,2.302734 -4.95313,3.802734 5.29883,-6.105468 6.68164,-5.416016 -5.29883,2.419922 -6.10546,3.917969 7.02734,-8.179688 -5.18555,2.302735 -5.18359,4.263672 8.06445,-10.714844 -7.37304,6.335937 9.67773,-12.095703 -3.80273,2.648438 -7.83399,6.914062 1.95899,-4.49414 4.49218,-6.796875 -1.26562,0.921875 -5.53125,5.529296 1.95898,-7.142578 4.37891,-6.451172 -5.76172,5.183594 1.61328,-3.339844 4.49219,-6.914062 -3.68555,3.802734 3.80078,-8.986328 -4.72265,6.796875 5.41406,-9.447265 z"
       sodipodi:nodetypes="ccccccccccccscsccccccccccccccccccccccccccccccccccccccccccccccccccc" /></g></svg>
