<?xml version="1.0" encoding="UTF-8" standalone="no"?>
<!-- Created with Inkscape (http://www.inkscape.org/) -->

<svg
   width="400"
   height="400"
   viewBox="0 0 400 400"
   version="1.1"
   id="svg14036"
   xml:space="preserve"
   inkscape:version="1.2.2 (b0a8486, 2022-12-01)"
   sodipodi:docname="EfrosianHair.svg"
   xmlns:inkscape="http://www.inkscape.org/namespaces/inkscape"
   xmlns:sodipodi="http://sodipodi.sourceforge.net/DTD/sodipodi-0.dtd"
   xmlns="http://www.w3.org/2000/svg"
   xmlns:svg="http://www.w3.org/2000/svg"><sodipodi:namedview
     id="namedview14038"
     pagecolor="#ffffff"
     bordercolor="#666666"
     borderopacity="1.0"
     inkscape:showpageshadow="2"
     inkscape:pageopacity="0.0"
     inkscape:pagecheckerboard="0"
     inkscape:deskcolor="#d1d1d1"
     inkscape:document-units="px"
     showgrid="false"
     inkscape:zoom="2.6125"
     inkscape:cx="200"
     inkscape:cy="200"
     inkscape:window-width="1978"
     inkscape:window-height="1265"
     inkscape:window-x="2381"
     inkscape:window-y="63"
     inkscape:window-maximized="0"
     inkscape:current-layer="svg14036" /><defs
     id="defs14033" /><g
     inkscape:groupmode="layer"
     id="layer8"
     inkscape:label="Efrosian Hair Back"
     style="display:inline"><path
       style="opacity:1;fill:#383838;fill-opacity:1;stroke:none;stroke-width:1px;stroke-linecap:butt;stroke-linejoin:miter;stroke-opacity:1"
       d="m 341.05263,43.253589 0.38278,4.593301 3.0622,5.741627 1.91387,8.229665 -0.38277,9.569378 -1.5311,5.358852 -0.76555,1.722488 2.48804,3.253588 2.67942,4.784689 2.67943,7.464115 2.10526,4.210526 2.10526,4.019142 1.14833,2.48804 2.87081,4.21052 2.10527,6.22009 1.5311,3.73206 2.67942,6.31579 1.72249,9.76077 0.95694,4.78469 3.0622,7.27273 v 7.84689 l -1.91388,7.84689 -0.95693,4.01913 -0.57417,5.16747 -1.91387,9.95215 -1.5311,3.25359 v 7.6555 l -1.91388,4.97608 -2.48804,3.63636 0.57417,4.97608 -0.76555,8.22966 -2.48804,7.84689 -1.91388,2.48804 0.57416,7.46412 -3.44497,10.7177 -1.91388,15.69378 -0.38277,14.73684 0.76555,16.07656 2.87081,12.44019 2.29665,10.7177 0.19139,7.65551 c 0,0 -4.5933,18.56459 -4.5933,19.13875 0,0.57417 -1.33972,5.35885 -1.33972,5.35885 l -2.10526,13.97129 -3.25359,8.22967 -4.40191,21.62679 -4.97608,8.80383 L 334.54545,400 h -10.90909 l 4.21053,-4.97608 4.40191,-14.54545 1.14833,-18.94737 -2.87081,-33.11005 -3.63637,-21.4354 -2.87081,-23.34929 -4.97607,-7.46411 -40.38278,-4.97607 -26.98565,-9.378 57.79904,-209.569376 z"
       id="path91529"
       sodipodi:nodetypes="cccccccccccccccccccccccccccccccccccccccccscccccccccccccccccc" /><path
       id="path91565"
       style="color:#000000;fill:#000000;-inkscape-stroke:none"
       d="M 341.02734 41.982422 L 339.54688 42.228516 C 339.54688 42.228516 339.89456 44.310714 340.06836 46.810547 C 340.24216 49.310374 340.18249 52.262269 339.59375 53.683594 C 338.98934 55.142761 337.24091 57.43285 335.63672 58.792969 C 334.03253 60.153082 332.1543 62.583984 332.1543 62.583984 C 332.1543 62.583984 334.9265 60.882503 336.60547 59.458984 C 338.28444 58.035472 340.17206 56.209467 340.98047 54.257812 C 341.51923 52.957142 341.67734 51.231852 341.67383 49.472656 C 342.38394 50.71943 343.18538 52.356164 343.37305 53.693359 C 343.72671 56.213368 342.3059 60.16375 341.11719 63.273438 C 339.9892 66.224278 337.22656 71.580078 337.22656 71.580078 C 337.22656 71.580078 341.24104 67.153134 342.51953 63.808594 C 343.29211 61.787524 344.20758 59.482755 344.6582 57.238281 C 344.7375 57.689273 344.81697 58.152577 344.90625 58.6875 C 345.35898 61.400115 345.72544 67.005708 345.28516 70.332031 C 344.9183 73.103581 343.35874 77.169398 342.86914 78.404297 C 341.76245 77.98138 340.34383 77.831207 339.09961 77.757812 C 337.62933 77.671083 336.41406 77.722656 336.41406 77.722656 L 336.45508 78.720703 C 336.45508 78.720703 337.62596 78.672379 339.04102 78.755859 C 340.45603 78.839329 342.1254 79.087543 342.96289 79.541016 C 344.76327 80.515847 346.23634 82.916087 347.16797 84.498047 C 348.05394 86.002463 348.1725 86.622103 348.82812 88.222656 C 349.467 89.782252 351.6582 93.988281 351.6582 93.988281 C 351.6582 93.988281 350.16214 89.539306 349.55078 88.046875 C 348.9562 86.595405 349.00867 85.653252 348.0293 83.990234 C 347.20758 82.594929 345.96696 80.446085 344.19336 79.144531 C 344.5803 78.203749 346.33477 73.828713 346.77148 70.529297 C 347.253 66.891501 346.86918 61.343918 346.38477 58.441406 C 346.09513 56.706039 345.42364 55.154236 344.92188 54.166016 C 344.90898 53.935981 344.88892 53.708686 344.85742 53.484375 C 344.47429 50.754405 342.27245 47.582911 341.55664 46.609375 C 341.3751 44.073763 341.02734 41.982422 341.02734 41.982422 z M 338.02539 46.087891 C 338.02539 46.087891 337.91347 47.149026 337.70312 48.408203 C 337.49283 49.66738 337.1667 51.139771 336.81445 51.855469 C 336.45299 52.58988 336.03834 53.383634 335.38281 54.068359 C 334.72728 54.75309 334.06641 55.597656 334.06641 55.597656 C 334.06641 55.597656 334.92543 55.165328 335.60352 54.457031 C 336.28156 53.74874 337.01491 53.034567 337.44336 52.164062 C 337.88102 51.274844 338.17839 49.805597 338.39258 48.523438 C 338.60676 47.241275 338.7207 46.162109 338.7207 46.162109 L 338.02539 46.087891 z M 341.96094 54.785156 C 341.96094 54.785156 341.58344 55.806178 341.26758 56.939453 C 340.95172 58.072728 340.34552 59.251318 340.02148 59.890625 C 339.35281 61.209976 338.03711 63.207031 338.03711 63.207031 C 338.03711 63.207031 339.89445 61.690853 340.64648 60.207031 C 341.03285 59.444756 341.38323 58.227971 341.70312 57.080078 C 342.02305 55.932185 341.96094 54.785156 341.96094 54.785156 z M 344.44922 63.541016 C 344.44922 63.541016 344.30079 64.834757 344.18164 65.804688 C 344.06245 66.774615 343.6141 67.983421 343.31641 68.664062 C 343.02115 69.33913 342.49167 70.550554 341.80469 71.369141 C 341.1177 72.187724 340.52734 72.871094 340.52734 72.871094 C 340.52734 72.871094 341.39847 72.466679 342.10156 71.628906 C 342.80465 70.791133 343.59251 69.776792 343.95703 68.943359 C 344.31911 68.115511 344.5161 66.932981 344.63867 65.935547 C 344.76124 64.938113 344.44922 63.541016 344.44922 63.541016 z M 337.74609 83.421875 L 337.69336 84.119141 C 337.69336 84.119141 338.82985 84.204412 340.17773 84.380859 C 341.52566 84.557312 343.10138 84.839962 343.87305 85.173828 C 345.45834 85.859711 347.87109 87.761719 347.87109 87.761719 C 347.87109 87.761719 345.99855 85.330021 344.15234 84.53125 C 343.20826 84.122785 341.63717 83.864836 340.26758 83.685547 C 338.89799 83.506257 337.74609 83.421875 337.74609 83.421875 z M 337.96484 89.126953 L 337.88086 90.324219 C 337.88086 90.324219 339.52441 90.438289 341.45117 90.679688 C 343.37793 90.921084 345.62419 91.321822 346.60938 91.761719 C 348.82658 92.751728 349.78735 93.757895 351.12695 95.384766 C 351.73643 96.124942 352.34385 96.883762 353.20898 98.460938 C 354.07415 100.03811 354.67716 101.00227 356.32812 103.39453 C 355.69761 101.37467 354.56713 99.3053 353.89453 97.828125 C 353.22193 96.35095 352.79967 95.52583 352.05469 94.621094 C 350.68537 92.958129 349.48471 91.730975 347.09961 90.666016 C 345.78364 90.078425 343.56349 89.734332 341.59961 89.488281 C 339.63573 89.242231 337.96484 89.126953 337.96484 89.126953 z M 338.92383 95.882812 L 338.58789 97.035156 C 338.58789 97.035156 341.10473 97.765681 344.0293 98.75 C 346.95383 99.734319 349.9329 101.00198 351.45312 101.94531 C 354.672 103.9427 356.40236 105.38603 357.78516 107.36328 C 359.08482 109.22166 361.63281 114.27148 361.63281 114.27148 C 361.63281 114.27148 360.67355 109.39191 359.15234 107.2168 C 357.7143 105.1605 355.82866 103.01067 352.46875 100.92578 C 350.69957 99.827983 347.36374 98.606708 344.41211 97.613281 C 341.46047 96.619854 338.92383 95.882812 338.92383 95.882812 z M 341.36523 103.49219 L 340.70508 104.24219 C 340.70508 104.24219 343.8544 107.03248 346.56445 108.375 C 347.96201 109.06732 349.80989 109.43276 351.62695 109.8457 C 353.44402 110.25865 355.03315 111.10385 356.20703 111.8457 C 358.69002 113.41487 360.07161 114.78569 361.5957 117.06836 C 363.07651 119.28619 364.24752 122.20863 365.125 124.80078 C 365.9913 127.3599 366.54065 130.3906 366.86328 132.43164 C 367.18258 134.45162 367.19481 135.83967 367.54688 137.33984 C 367.62417 137.66919 367.73233 138.03047 367.84961 138.39453 C 365.35231 135.95737 361.8409 135.05964 357.88477 132.29102 C 353.63563 129.31732 342.60742 120.45117 342.60742 120.45117 L 341.79297 121.46289 C 341.79297 121.46289 352.76239 130.29277 357.13867 133.35547 C 361.54642 136.44017 365.20178 137.33225 367.36133 139.76172 C 369.62522 142.30858 370.41358 144.47057 371.03711 147.5 C 371.6353 150.40631 371.10031 153.95437 370.64844 157.23242 C 370.36754 159.27003 369.73424 162.36657 369.23438 164.73047 C 369.20538 163.87615 369.15158 163.02044 369.01367 162.16016 C 368.38965 158.26781 367.02876 154.94719 364.74023 150.97656 C 362.41513 146.94243 358.38458 142.45448 354.90234 138.80664 C 351.36015 135.09593 343.88281 129.00781 343.88281 129.00781 L 343.06055 130.01562 C 343.06055 130.01562 350.56363 136.14415 353.96289 139.70508 C 357.42217 143.32882 361.406 147.79533 363.61328 151.625 C 365.85719 155.51823 367.13465 158.64882 367.73047 162.36523 C 368.31815 166.03096 367.89289 170.20061 367.39062 173.95117 C 366.9909 176.93628 365.94022 181.93189 365.51758 183.91602 C 365.51158 183.85092 365.50755 183.78794 365.50195 183.72266 C 365.1607 179.9018 363.97924 175.14507 362.76562 171.40039 C 361.55391 167.66141 360.2701 164.65707 358.19336 161.99805 C 356.13301 159.35997 353.67028 157.21495 350.66406 154.59961 C 347.69816 152.0193 340.53711 145.14844 340.53711 145.14844 L 339.63867 146.08594 C 339.63867 146.08594 346.76497 152.9305 349.81055 155.58008 C 352.81582 158.19464 355.20702 160.28607 357.16797 162.79688 C 359.11253 165.28666 360.33756 168.12361 361.5293 171.80078 C 362.71918 175.47226 363.8811 180.1886 364.20703 183.83789 C 364.53741 187.53702 364.51207 190.76996 363.81641 193.64258 C 363.36737 195.49678 362.00115 198.1176 361.13086 199.68945 C 360.40122 196.21096 359.18958 192.84719 357.73242 189.23047 C 355.9067 184.69898 353.68298 180.30309 349.99609 175.30859 C 348.10994 172.75347 344.37725 169.08162 341.08984 166.00391 C 337.80249 162.92614 334.97266 160.4668 334.97266 160.4668 L 334.11914 161.44727 C 334.11914 161.44727 336.93338 163.89372 340.20117 166.95312 C 343.46902 170.01258 347.20194 173.71046 348.95117 176.08008 C 352.53515 180.93512 354.3164 185.37562 356.14258 189.9082 C 357.962 194.42408 359.37391 198.4545 359.92969 202.76172 C 360.4869 207.08001 360.29763 211.67992 359.55273 215.57227 C 359.12507 217.80695 357.92304 220.8999 356.97852 223.1582 C 356.89812 221.52265 356.75371 219.95226 356.47461 218.47656 C 355.84536 215.14984 354.8925 212.38799 353.32031 208.91797 C 351.80365 205.5705 349.10337 202.47056 345.19336 199.50586 C 343.12235 197.93554 339.47133 196.13266 335.99805 195.04883 C 332.52472 193.96501 327.55664 192.62305 327.55664 192.62305 L 327.25195 193.88672 C 327.25195 193.88672 331.93327 195.28575 335.32812 196.33789 C 335.52479 197.35236 337.18993 206.06514 337.23438 210.77734 C 337.28167 215.79554 336.00643 220.96952 335.3457 226.94727 C 334.68913 232.88741 333.94582 241.04279 333.8125 246.49805 C 333.67902 251.96001 334.54492 259.52148 334.54492 259.52148 C 334.54492 259.52148 334.3797 251.91749 334.51172 246.51562 C 334.6439 241.10705 335.57719 232.75995 336.23242 226.83203 C 336.88349 220.9417 338.17385 215.94863 338.125 210.77148 C 338.0809 206.09127 336.7132 198.28447 336.42969 196.70898 C 339.66723 197.80117 342.98943 199.51153 344.59961 200.73242 C 346.75004 202.36295 348.2462 204.00585 349.42773 205.75781 C 349.35823 207.05649 348.87741 215.43881 347.69336 220.23242 C 346.43003 225.347 343.03037 229.5379 341.18164 238.33594 C 339.33988 247.10077 338.16245 260.6248 338.48828 271.78906 C 338.81482 282.97755 341.37833 295.31601 343.0918 304.80469 C 344.81458 314.34495 347.22123 322.90905 348.45508 328.93359 C 349.0815 331.99227 349.64225 333.83599 350.04492 335.49023 C 350.44759 337.14454 350.70028 338.61326 350.73828 341.0625 C 350.81308 345.88563 349.26114 353.81872 348.21094 358.26367 C 347.36873 361.82834 346.38832 365.25786 345.98047 366.66797 C 346.35486 364.25702 346.63973 361.99953 346.72852 360.22656 C 346.91377 356.52705 347.0669 357.46332 346.33789 352.81055 C 345.58136 347.98207 342.64322 340.76854 340.97266 332.49219 C 339.29509 324.18142 337.42678 310.86301 336.77344 302.71875 C 336.1217 294.59443 335.69336 280.95703 335.69336 280.95703 C 335.69336 280.95703 334.71673 294.57761 335.37891 302.83203 C 336.03948 311.06651 337.90658 324.37248 339.60156 332.76953 C 341.3035 341.201 344.25317 348.54755 344.95508 353.02734 C 345.68451 357.68284 345.51802 356.40295 345.33008 360.15625 C 345.14811 363.79026 344.11453 369.75289 343.04688 374.97852 C 341.97587 380.2203 340.52452 387.32122 338.875 391.31055 C 337.22527 395.30025 333.88867 400 333.88867 400 L 335.10156 400 C 335.10156 400 338.40791 396.10238 340.16797 391.8457 C 341.92821 387.58866 343.34746 380.49906 344.41797 375.25977 C 344.94121 372.6989 345.45491 369.97598 345.86914 367.41016 C 346.40311 366.37759 348.40955 362.36525 349.33984 358.42773 C 350.3958 353.95843 352.49968 346.18332 352.41992 341.04297 C 352.38062 338.51043 352.10705 336.88922 351.69141 335.18164 C 351.27578 333.47407 350.72769 331.68342 350.11133 328.67383 C 348.8596 322.5619 346.46319 314.03998 344.75391 304.57422 C 343.03527 295.05688 340.49337 282.76942 340.17188 271.75195 C 339.84963 260.71026 341.02877 247.97865 342.83789 239.36914 C 344.64003 230.79283 347.99515 226.75472 349.33984 221.31055 C 350.41856 216.9434 350.75362 210.55234 350.8457 208.22461 C 351.08591 208.69525 351.33759 209.1544 351.56055 209.64648 C 353.01553 212.85782 353.97232 215.46979 354.62305 218.91016 C 355.27308 222.34679 355.43022 225.74624 355.33203 229.64844 C 355.23513 233.5012 353.64812 236.51511 352.6582 242.96289 C 351.67811 249.34669 350.17727 260.17551 349.97266 267.92578 C 349.76875 275.64909 350.32456 282.53749 351.125 289.07422 C 351.93042 295.65161 353.79203 303.64386 354.57812 307.11328 C 355.36427 310.5827 355.95529 313.27414 356.09766 316.05078 C 356.24003 318.82742 355.48496 321.60992 354.95703 324.87305 C 354.44043 328.06606 352.87109 336.75781 352.87109 336.75781 C 352.87109 336.75781 355.70335 328.39844 356.24023 325.08008 C 356.76578 321.83171 357.84299 319.43431 357.7793 316.36914 C 357.7156 313.30397 356.88987 310.47934 356.23633 307.24023 C 355.58279 304.00118 353.58973 295.75768 352.79883 289.29883 C 352.00294 282.79924 351.45259 275.59964 351.6543 267.95898 C 351.85531 260.34535 353.34938 249.52245 354.32617 243.16016 C 355.29313 236.86179 356.90846 233.86299 357.01367 229.68164 C 357.04827 228.30502 357.05863 226.98856 357.04883 225.69922 C 357.98666 223.97048 360.56022 219.03542 361.21289 215.625 C 361.98552 211.58771 362.17843 206.87491 361.60156 202.4043 C 361.57086 202.16655 361.52776 201.93322 361.49219 201.69727 C 361.51699 201.65707 364.3081 197.13497 365.08008 193.94727 C 365.78077 191.05388 365.82958 187.89989 365.55469 184.4043 C 366.29053 182.22104 368.06576 176.76973 368.47461 173.7168 C 368.76096 171.57872 369.07647 169.37813 369.19727 167.14844 C 369.77433 165.48652 371.54176 160.2666 371.93555 157.41016 C 372.38499 154.14987 372.97992 150.49042 372.31055 147.23828 C 371.81115 144.81195 371.13534 142.76519 369.73633 140.70312 L 369.7793 140.68359 C 369.7793 140.68359 369.41064 138.549 369.0957 137.20703 C 368.7748 135.8396 368.75514 134.45473 368.42578 132.37109 C 368.09975 130.30853 367.54812 127.2398 366.64648 124.57617 C 365.75599 121.94557 364.57185 118.96064 363.00195 116.60938 C 361.47538 114.32296 360.15606 112.38649 357.50781 110.71289 C 356.11611 109.83335 353.68115 109.28733 351.84961 108.87109 C 350.01807 108.45486 348.2086 108.07336 347.00781 107.47852 C 344.52123 106.24672 341.36523 103.49219 341.36523 103.49219 z M 350.16992 116.58789 C 350.16992 116.58789 353.25798 118.63483 354.98242 119.78906 C 356.72807 120.95748 359.09758 122.70881 360.41797 123.94727 C 361.74791 125.19464 362.36976 125.77203 363.29688 126.89258 C 364.19932 127.98335 366.14063 130.32422 366.14062 130.32422 C 366.14062 130.32422 364.62935 127.76986 363.70312 126.65039 C 362.80158 125.5607 362.27266 124.72644 360.89844 123.4375 C 359.51467 122.1396 357.14165 120.39213 355.37109 119.20703 C 353.57938 118.00774 350.16992 116.58789 350.16992 116.58789 z M 349.42578 143.99219 C 349.42578 143.99219 351.5132 145.98177 353.26758 147.21094 C 355.02196 148.44011 357.07545 150.029 358.22656 151.39062 C 360.56182 154.15305 362.51341 158.5868 363.71484 161.71094 C 364.8964 164.78333 366.07227 169.70508 366.07227 169.70508 C 366.07227 169.70508 365.6015 164.66544 364.36914 161.46094 C 363.15666 158.30808 361.20765 153.83518 358.75977 150.93945 C 357.51928 149.47205 355.44525 147.88056 353.66992 146.63672 C 351.8946 145.39287 349.42578 143.99219 349.42578 143.99219 z M 342.92969 159.01562 C 342.92969 159.01562 349.10004 164.64217 350.85742 166.16016 C 352.62727 167.68885 354.02106 169.09187 355.49023 171.58398 C 356.93291 174.03111 358.12743 177.93751 359.0957 181.21484 C 360.04476 184.42718 361.74023 190.95313 361.74023 190.95312 C 361.74023 190.95312 361.04365 184.27905 360.05469 180.93164 C 359.08494 177.64928 357.90553 173.71208 356.35156 171.07617 C 354.82415 168.48531 353.58699 167.09518 351.7832 165.53711 C 349.96694 163.96828 342.92969 159.01563 342.92969 159.01562 z M 337.25391 178.67578 L 336.8125 179.21875 C 336.8125 179.21875 339.21803 181.16583 341.99609 183.5957 C 344.77421 186.02562 347.93353 188.95432 349.38867 190.83594 C 352.35017 194.66533 353.83958 198.35884 355.08203 201.46875 C 356.30191 204.52217 357.51172 208.99609 357.51172 208.99609 C 357.51172 208.99609 356.99806 204.37692 355.73242 201.20898 C 354.48936 198.09759 353.15818 194.12879 350.13281 190.2168 C 348.59452 188.22768 345.15064 185.22291 342.36133 182.7832 C 339.57202 180.34354 337.25391 178.67578 337.25391 178.67578 z M 335.85156 196.5 C 335.92546 196.5232 336.00009 196.55608 336.07422 196.58008 L 336.0332 196.66211 L 335.85156 196.5 z M 325.19922 215.65039 L 323.98633 216.11914 C 323.98633 216.11914 328.06324 226.72442 328.92969 231.31641 C 329.82323 236.05193 329.73639 237.74157 329.68555 244.20508 C 329.63565 250.54521 327.80011 259.03744 327.77148 269.85547 C 327.74298 280.65459 329.04441 297.01571 330.45508 308.5957 C 331.86772 320.19195 334.22688 330.22027 335.81836 339.25195 C 337.42169 348.3509 339.61071 355.81336 340.02148 362.9082 C 340.43529 370.05544 339.93837 376.82678 338.88477 381.87695 C 337.84582 386.85665 335.3125 393.49219 335.3125 393.49219 C 335.3125 393.49219 339.05918 387.41017 340.1582 382.14258 C 341.24255 376.94547 341.73834 370.08789 341.31836 362.83398 C 340.89535 355.5278 338.68876 348.04386 337.09961 339.02539 C 335.49861 329.93966 333.14859 319.95041 331.74609 308.4375 C 330.34168 296.90833 329.04206 280.54818 329.07031 269.85742 C 329.09851 259.18557 330.93265 250.79228 330.98438 244.21484 C 331.03507 237.76079 331.1162 235.88424 330.20898 231.07617 C 329.27473 226.12456 325.19922 215.65039 325.19922 215.65039 z M 283.94141 222.14062 L 282.94922 222.25977 C 282.94922 222.25977 283.82854 229.59236 284.09375 234.85742 C 284.35943 240.13169 284.44878 249.16358 284.28516 253.95508 C 284.12162 258.74415 283.52344 263.67187 283.52344 263.67188 L 284.51562 263.79297 C 284.51562 263.79297 285.11958 258.83705 285.28516 253.98828 C 285.45065 249.14194 285.35976 240.12672 285.0918 234.80664 C 284.82335 229.47738 283.94141 222.14063 283.94141 222.14062 z M 289.2207 223.89062 C 289.2207 223.89062 288.55503 231.02569 288.45312 234.82227 C 288.35129 238.61673 288.67949 242.76144 288.64453 246.50391 C 288.60953 250.25166 288.26367 257.39844 288.26367 257.39844 L 288.96289 257.43359 C 288.96289 257.43359 289.31034 250.29232 289.3457 246.50977 C 289.3811 242.7219 289.05391 238.58196 289.1543 234.8418 C 289.25463 231.10372 289.91797 223.95508 289.91797 223.95508 L 289.2207 223.89062 z M 320.26367 227.10156 L 318.9707 227.63477 C 318.9707 227.63477 320.8073 232.09941 321.60352 237.42383 C 322.39409 242.71085 322.04598 251.28066 322.36328 259.92969 C 322.67797 268.50749 322.40398 278.64578 323.51367 289.06836 C 324.62647 299.52042 328.16822 313.84441 329.25781 322.00586 C 330.35675 330.23725 330.26661 332.22467 330.78516 338.43164 C 331.3032 344.6326 332.14261 352.59263 332.31445 359.0625 C 332.48797 365.5952 332.88136 371.28716 331.93945 377.30859 C 330.9973 383.33164 328.4136 391.58652 326.64844 395.0918 C 325.75564 396.86472 324.92906 397.95809 324.34375 398.59961 C 323.75844 399.24113 323.37305 400 323.37305 400 L 324.18164 400 C 324.18164 400 324.70111 400.28585 325.37891 399.54297 C 326.0567 398.80009 326.9537 397.59676 327.89844 395.7207 C 329.80833 391.92808 332.3507 383.73643 333.32227 377.52539 C 334.29402 371.3128 333.88741 365.52252 333.71484 359.02539 C 333.54061 352.46543 332.6975 344.48927 332.18164 338.31445 C 331.66629 332.14572 331.75067 330.09104 330.64648 321.82031 C 329.53302 313.47964 326.00007 299.19556 324.90625 288.92188 C 323.80928 278.61867 324.07895 268.52615 323.76172 259.87891 C 323.4471 251.30283 323.81972 242.77678 322.98828 237.2168 C 322.16242 231.69408 320.26367 227.10156 320.26367 227.10156 z M 301.31836 227.74219 C 301.31836 227.74219 301.11666 238.05583 301.89453 245.98242 C 302.28625 249.97406 303.48148 255.57329 304.57812 260.99805 C 305.67478 266.42279 306.6692 271.68679 306.67773 274.83398 C 306.68673 278.0427 306.30719 280.39408 305.93164 281.93555 C 305.5561 283.47702 305.19922 284.17773 305.19922 284.17773 L 306.0918 284.62695 C 306.0918 284.62695 306.50989 283.79076 306.9043 282.17188 C 307.2987 280.553 307.68664 278.12062 307.67773 274.83203 C 307.66873 271.48193 306.65665 266.23242 305.55859 260.80078 C 304.46054 255.36915 303.27183 249.76924 302.89062 245.88477 C 302.12267 238.05913 302.31836 227.76172 302.31836 227.76172 L 301.31836 227.74219 z M 316.28906 229.64258 L 315.28906 229.6875 C 315.28906 229.6875 315.64112 237.24506 315.86523 240.98633 C 316.09125 244.7593 316.71412 247.55033 316.62891 252.04883 C 316.54471 256.49338 314.91211 268.06445 314.91211 268.06445 L 315.90234 268.20508 C 315.90234 268.20508 317.54074 256.71866 317.62891 252.06641 C 317.71601 247.46807 317.08441 244.61913 316.86328 240.92773 C 316.64026 237.20464 316.28906 229.64258 316.28906 229.64258 z M 297.45117 230.39062 C 297.45117 230.39062 296.74195 236.46183 296.68359 239.41797 C 296.62539 242.36949 297.1014 245.13737 297.06641 247.8418 C 297.03131 250.54973 296.49414 255.84961 296.49414 255.84961 L 297.18945 255.91992 C 297.18945 255.91992 297.72952 250.63931 297.76562 247.85156 C 297.80172 245.0603 297.32625 242.30009 297.38281 239.43359 C 297.43931 236.57173 298.14648 230.4707 298.14648 230.4707 L 297.45117 230.39062 z M 309.62305 232.45312 L 308.94141 232.61719 C 308.94141 232.61719 310.72167 240.02463 311.03906 243.28711 C 311.3611 246.59739 311.30836 249.83697 311.03906 252.4043 C 310.77337 254.93726 309.71094 258.66016 309.71094 258.66016 L 310.38477 258.85156 C 310.38477 258.85156 311.45806 255.12944 311.73633 252.47656 C 312.01099 249.85805 312.06333 246.58 311.73633 243.21875 C 311.40468 239.8097 309.62305 232.45313 309.62305 232.45312 z M 343.74219 248.19727 C 343.74219 248.19727 342.6355 255.66723 342.44531 259.82031 C 342.25597 263.9549 342.12651 268.6024 342.30859 272.97852 C 342.49147 277.37362 343.87695 285.95508 343.87695 285.95508 C 343.87695 285.95508 343.18963 277.27199 343.00977 272.94922 C 342.82911 268.60734 342.95567 263.97659 343.14453 259.85156 C 343.33258 255.74515 343.74219 248.19727 343.74219 248.19727 z M 336.29883 364.98828 C 336.29883 364.98828 335.88672 375.20694 335.14062 379.68164 C 334.38645 384.20518 332.97632 388.75411 331.64258 392.05859 C 330.32178 395.33103 327.61328 400 327.61328 400 L 328.20312 400 C 328.20312 400 330.92699 395.70661 332.29297 392.32227 C 333.646 388.96998 335.06711 384.38473 335.83203 379.79688 C 336.60512 375.1602 336.29883 364.98828 336.29883 364.98828 z " /><path
       id="path93814"
       style="fill:#000000;fill-opacity:0.2;stroke:none;stroke-width:1px;stroke-linecap:butt;stroke-linejoin:miter;stroke-opacity:1"
       d="m 343.92383,104.78516 -25.01758,122.71875 -46.08398,-8.65235 c 0,0 -7.36721,15.502 -7.6543,15.88477 -0.28708,0.38278 12.15234,27.27344 12.15234,27.27344 l 20.86133,2.67968 24.88086,3.63672 -0.28711,-9.2832 -0.28711,-22.20117 -2.4414,-8.08008 c 1.74921,-0.0184 4.9058,-0.37382 7.99218,-2.44531 4.57312,-3.06936 8.80591,-11.62799 12.15235,-17.51172 3.34643,-5.88374 5.27855,-9.68467 8.13476,-18.85157 2.8562,-9.1669 4.27535,-27.06333 3.92188,-35.79101 -0.35347,-8.72768 -2.04064,-10.34356 -1.81836,-14.06641 0.22228,-3.72284 1.93436,-3.83832 2.00976,-7.94336 0.0754,-4.10503 -3.44336,-16.07617 -3.44336,-16.07617 z" /><path
       style="fill:#000000;fill-opacity:0.3;stroke:none;stroke-width:1px;stroke-linecap:butt;stroke-linejoin:miter;stroke-opacity:1"
       d="m 306.79426,269.66507 -1.33971,-7.94258 -2.67943,-13.97129 -0.95694,-17.51197 0.38278,-8.61244 -27.94259,-4.30622 -10.81339,16.9378 13.30143,32.15311 z"
       id="path93818" /><path
       style="fill:#ffffff;fill-opacity:0.15;stroke:none;stroke-width:1px;stroke-linecap:butt;stroke-linejoin:miter;stroke-opacity:1"
       d="m 350.14354,100.86124 5.74163,6.88996 c 0,0 2.25567,5.71267 2.96651,8.51674 0.71084,2.80407 0.68902,5.65494 1.33971,8.22967 0.65069,2.57473 1.79297,4.62135 2.48804,7.17703 0.69507,2.55568 1.13554,4.83265 1.62679,8.13397 0.49125,3.30132 0.99648,7.90407 1.14833,11.67464 0.15185,3.77057 0.0483,8.34141 -0.19139,10.90909 -0.23967,2.56768 -0.39152,2.51795 -0.76555,4.49761 -0.37403,1.97966 -1.5311,7.36842 -1.5311,7.36842 0,0 -0.51012,4.89635 -0.76555,7.46412 -0.25543,2.56777 -0.12812,5.8217 -0.76555,7.94258 -0.63743,2.12088 -2.48804,4.689 -2.48804,4.689 l -0.28708,6.60287 c 0,0 -0.32172,6.4212 -0.95694,8.70813 -0.63522,2.28693 -2.29665,4.97608 -2.29665,4.97608 l -0.57416,1.5311 c 0,0 -0.32875,2.61034 -0.86125,5.64593 -0.5325,3.03559 -1.23227,5.11611 -2.48804,12.53589 -1.25577,7.41978 -4.0312,23.51556 -4.4976,32.05741 -0.4664,8.54185 -0.17492,11.75994 0.57416,18.94737 0.74908,7.18743 2.86799,15.72332 3.82775,21.24402 0.95976,5.5207 1.86537,8.54062 2.00957,11.86603 0.1442,3.32541 -0.28962,8.00506 -0.47846,11.48325 -0.18885,3.47819 -0.66987,9.37799 -0.66987,9.37799 l 3.1579,-13.01435 1.5311,-9.85646 -2.39235,-14.83254 -2.77511,-16.45933 -0.86125,-20.09569 2.00957,-18.85167 2.00957,-10.43063 1.62679,-5.55024 -0.38277,-5.45454 3.54067,-6.41148 1.14832,-7.94259 -0.28708,-7.6555 0.0957,-1.62679 2.39234,-3.82776 1.81818,-5.35885 0.28708,-6.88995 2.77512,-9.66507 1.05264,-9.47369 1.72248,-6.1244 1.43541,-10.52631 -2.10526,-6.98565 -1.14833,-2.20096 -0.95694,-6.1244 -1.62679,-8.70813 -2.77512,-6.2201 -1.72249,-3.54067 -1.33971,-4.21052 -2.48804,-4.97608 -4.11483,-3.82775 z"
       id="path93821"
       sodipodi:nodetypes="cczzzzzzzczzcczcczzzzzzzccccccccccccccccccccccccccccccc" /></g><g
     inkscape:groupmode="layer"
     id="layer4"
     inkscape:label="Efrosian Hair Front"
     style="display:inline"><path
       id="path95294"
       style="opacity:1;fill:#383838;fill-opacity:1;stroke:none;stroke-width:1px;stroke-linecap:butt;stroke-linejoin:miter;stroke-opacity:1"
       d="m 321.85938,239.13086 1.58593,10.05664 0.38281,26.41016 v 7.75195 l 0.19141,0.28711 2.87109,23.34961 3.63477,21.43555 2.87109,33.10937 -1.14843,18.94727 -4.40039,14.54492 L 323.63672,400 h 10.9082 l 1.72266,-2.48828 4.97656,-8.80274 4.40234,-21.62695 3.25391,-8.23047 2.10352,-13.9707 c 0,0 1.33984,-4.78521 1.33984,-5.35938 0,-0.57416 4.59375,-19.13867 4.59375,-19.13867 l -0.19141,-7.65625 -2.29687,-10.71679 -2.8711,-12.43946 -0.76562,-16.07812 0.38281,-14.73633 1.91407,-15.69336 1.26367,-3.93164 z M 290.52539,6.125 280,7.4648438 l -7.27344,3.4433592 -6.69726,5.359375 -8.61328,0.382813 -8.99414,1.53125 -7.46485,3.445312 -11.29101,6.890625 -9.57032,9.759766 -12.43945,11.101562 -4.78516,3.826172 -4.59375,7.082031 -2.48828,3.0625 -5.55078,5.742188 -0.95508,2.869141 0.76368,3.828124 1.77831,-0.473633 -5.79589,4.301759 -2.48828,3.55664 -1.19727,2.998047 -2.43945,3.398437 -6.50782,6.50586 -2.82226,4.927738 -0.8125,4.73828 -3.73242,4.64062 -1.81836,4.83203 -3.44532,5.74219 -0.76562,5.74219 -2.20117,8.32422 -0.86133,5.83789 -5.35938,10.33398 -1.40624,5.38672 -0.50586,4.94922 -0.10743,4.26172 0.34571,4.54101 -2.29688,16.84375 -3.34961,22.15235 -0.95703,12.77539 1.77149,9.08984 -0.25977,4.88281 0.92969,6.31446 3.1582,5.26367 2.67773,5.74023 0.62305,1.39454 0.14258,3.58203 1.53125,11.43554 -0.19141,2.48829 -1.42773,2.55273 -1.44336,1.13086 h -4.20898 l -2.63282,-0.62109 2.44141,2.20117 2.91016,1.24023 3.02148,-0.52344 0.38281,-0.76562 -0.60547,3.44922 -0.92578,2.29297 -1.92187,2.13867 -2.28711,1.49804 2.34375,-0.24023 3.1582,-2.39258 3.82813,-10.04687 1.05273,-5.45508 2.10547,8.18164 5.88477,12.82422 -0.19141,14.49609 1.52344,8.25391 2.8789,8.2539 3.34766,4.74415 3.92383,3.67773 3.0625,1.91211 3.44531,6.125 2.29687,11.48437 6.88868,12.63086 7.65625,9.18555 3.0625,2.29688 2.29687,8.42187 5.74024,13.01367 3.44531,5.74219 31.24896,0.0169 -1.00873,-7.67317 -11.48437,-27.17578 -7.27149,-14.54688 -3.44531,-33.30078 3.0625,-29.47265 4.5918,-22.20118 1.14843,-24.11523 -2.67773,-17.22461 -3.44531,-9.95312 -0.38281,-21.05274 2.29687,-3.44336 -1.14844,-7.65625 -0.76562,-10.71875 -0.67619,-1.52986 0.29338,-4.21037 -1.14844,-5.74219 1.91406,-13.7793 2.86138,-9.81779 3.64448,-5.87752 -0.76563,-7.27148 -2.17123,-5.62546 -2.80337,-4.71048 -0.87493,-0.61712 -0.63315,-4.17955 -0.90095,-6.66206 -0.49918,-3.625256 c 0,0 -0.0748,1.08377 -0.43359,0.453125 -0.35881,-0.630644 -0.48633,-1.828125 -0.48633,-1.828125 l 0.9082,-5.646484 0.62305,-9.28125 -0.0527,-7.136719 1.58399,-6.259765 2.67969,-3.828125 c 0,0 1.15787,-0.928713 2.48633,-2.25 1.32846,-1.321288 1.86718,-3.44336 1.86718,-3.44336 l 3.49219,-4.642578 4.59375,-5.548828 4.59375,-4.019531 3.82813,-0.957032 3.82617,-1.339843 3.2539,-1.722657 4.21094,0.765626 5.9336,0.574218 5.16601,0.574219 3.0625,2.871094 5.16797,2.296875 4.01953,0.908203 2.75894,2.40609 c 0,0 1.13466,0.79578 3.98715,1.422035 2.39054,0.524836 6.46378,1.004864 6.45899,1.003906 l 1.33984,0.765625 2.8711,3.636719 2.15234,1.818359 2.82422,1.722657 1.91406,0.861328 c 0,0 -0.80254,-1.642661 0.57422,-1.148438 1.37676,0.494224 1.7207,1.339844 1.7207,1.339844 0,0 -0.37618,-1.669575 0.57422,-0.957031 0.9504,0.712543 1.53125,1.722656 1.53125,1.722656 l -0.0469,-1.818359 4.83203,-1.81836 10.14453,-3.828125 8.22852,-6.697265 4.59375,-6.890626 1.53125,-5.359374 -0.95704,-5.359376 -4.21093,-9.759765 -5.16797,-4.019531 -7.27149,-2.296875 -7.84765,-1.339844 -9.18555,-2.296875 -10.33594,-3.6347658 z" /><path
       id="path42465"
       style="fill:#000000;fill-opacity:0.2;stroke:none;stroke-width:1px;stroke-linecap:butt;stroke-linejoin:miter;stroke-opacity:1"
       d="m 284.60156,6.4960938 -3.38281,0.5410156 -3.6543,1.0820312 -5.27734,2.8417974 c 0,-1e-6 3.31408,-1.496384 4.73633,-1.6230474 1.42225,-0.1266633 2.14747,-0.019651 3.51953,0.5410156 1.37206,0.5606658 3.01526,1.3477448 4.33008,3.1132818 1.31482,1.765536 2.09852,4.910553 2.57031,7.443359 0.47179,2.532805 0.27148,7.578125 0.27148,7.578125 l 0.8125,-4.871094 0.81055,-5.955078 c 0,0 -1.14912,-5.959292 -2.09766,-7.7148438 -0.94853,-1.7555523 -2.63867,-2.9765624 -2.63867,-2.9765624 z m -10.28711,18.1523442 2.02149,10.40625 3.47265,7.050781 6.27735,8.068359 0.69336,0.605469 c 0,0 1.13385,0.795622 3.98632,1.421875 2.39054,0.524834 6.46378,1.004864 6.45899,1.003906 l 1.33984,0.765625 2.8711,3.636719 2.15234,1.818359 2.82422,1.722657 1.91406,0.861328 c 0,0 -0.80254,-1.642659 0.57422,-1.148438 1.37676,0.494224 1.7207,1.339844 1.7207,1.339844 0,0 -0.37618,-1.669575 0.57422,-0.957031 0.9504,0.712541 1.53125,1.722656 1.53125,1.722656 l -0.0469,-1.818359 4.83203,-1.81836 0.33789,-0.126953 c -1.5496,-0.71338 -2.99287,-1.425493 -3.83789,-1.96875 -2.61967,-1.684162 -6.40143,-4.914863 -8.64649,-7.230469 -2.24505,-2.315604 -2.92187,-8.246094 -2.92187,-8.246094 l 3.24023,-4.091796 c 0,0 -7.83259,4.241333 -11.57226,3.271484 -1.92827,-0.500073 -6.16431,-10.026325 -6.70313,-8.511719 -0.21793,0.612596 -0.18906,9.671445 -5.79687,3.853516 -2.7952,-2.899932 -7.29688,-11.630859 -7.29688,-11.630859 z" /><path
       id="path54233"
       style="fill:#ffffff;fill-opacity:0.13;stroke:none;stroke-width:1px;stroke-linecap:butt;stroke-linejoin:miter;stroke-opacity:1"
       d="m 308.70898,18.755859 c 0,0 -1.30565,4.607249 -2.61328,6.712891 -1.30764,2.105643 -3.90691,4.775755 -5.56054,6.132812 -1.65365,1.357059 -3.38672,2.439454 -3.38672,2.439454 l -2.0293,4.61914 c 0,0 2.31131,-1.294226 3.83984,-1.947265 1.52853,-0.653041 4.04414,-1.401024 5.34766,-1.88086 1.30352,-0.479835 1.76564,-1.370055 2.48828,-0.957031 0.72264,0.413024 0.38281,2.296875 0.38281,2.296875 l -4.01953,4.402344 c 0,0 1.59328,-0.44953 2.48828,-0.765625 0.89501,-0.316096 1.53476,-0.761551 2.8711,-1.148438 1.33634,-0.386886 4.01957,-0.723573 5.16601,-0.957031 1.14644,-0.233458 1.72266,-0.382813 1.72266,-0.382813 l -3.44531,3.0625 -3.82617,4.210938 -2.67969,4.59375 c 0,0 2.71425,-1.716792 4.40234,-2.679688 1.68809,-0.962895 4.01622,-2.171953 5.74024,-3.0625 1.72401,-0.890546 4.59375,-2.296874 4.59375,-2.296874 l -4.97657,4.210937 -3.0625,2.679687 -2.67773,3.060547 c 0,0 1.34418,-0.835573 2.48633,-1.33789 1.14215,-0.502318 3.09519,-0.979839 4.40234,-1.53125 1.30715,-0.551412 2.48455,-1.282938 3.44531,-1.722657 0.96076,-0.439718 2.29688,-0.957031 2.29688,-0.957031 l -4.40235,3.636719 c 0,0 -0.89509,0.43797 -1.31445,1.201172 -0.41935,0.763202 -0.59961,3.390625 -0.59961,3.390625 l 2.8711,-2.488281 c 0,0 1.98091,-1.143621 3.44531,-1.609375 1.4644,-0.465755 3.8717,-0.726251 5.90039,-1.339844 2.02868,-0.613594 3.3973,-1.678465 4.81641,-3.365235 1.4191,-1.686769 2.16578,-3.067197 2.72461,-5.248046 0.55882,-2.180849 -0.0449,-7.384766 -0.0449,-7.384766 l -2.87109,5.933594 -2.86914,3.828125 c 0,0 1.61437,-4.603436 1.91211,-6.316407 0.29774,-1.71297 0.12495,-2.233285 0.1914,-3.828124 0.0664,-1.59484 0.19141,-5.740235 0.19141,-5.740235 l -2.29492,4.974609 -4.21094,5.742188 c 0,0 0.0592,-3.667849 0,-5.742188 -0.0592,-2.074338 -0.38281,-6.697265 -0.38281,-6.697265 l -1.53125,4.976562 -2.67969,3.634766 -3.25391,2.679687 c 0,0 0.93485,-3.405528 1.14844,-4.976562 0.21359,-1.571034 0.20322,-3.15474 0.19141,-4.400391 -0.0118,-1.24565 -0.19141,-3.0625 -0.19141,-3.0625 l -2.87109,4.210938 -3.0625,3.443359 -2.48633,2.488282 c 0,0 2.71524,-4.397925 3.44336,-6.314454 0.72812,-1.916529 1.14844,-4.976562 1.14844,-4.976562 0,0 -1.75848,2.711218 -3.25391,4.019531 -1.49543,1.308313 -5.76367,3.511719 -5.76367,3.511719 l 2.35156,-4.728516 z m -89.60742,54.322266 c 0,0 -1.22591,2.503383 -3.11328,4.332031 -1.88737,1.828648 -8.66016,5.81836 -8.66016,5.81836 l 2.30079,0.271484 1.48828,0.134766 c 0,0 -0.47795,2.078821 -1.08203,3.519531 -0.60408,1.440707 -1.24352,4.14064 -2.16602,5.412109 -0.9225,1.271472 -2.46315,2.318527 -3.51953,3.382813 -1.05638,1.064286 -3.92414,2.572265 -3.38281,2.572265 0.54133,0 5.41406,-1.625 5.41406,-1.625 l 3.78906,-1.216796 c 0,0 -0.20561,3.280711 -0.8125,4.736332 -0.60689,1.45558 -1.41938,2.41619 -2.70703,3.78906 -1.28765,1.37287 -5.14258,4.19531 -5.14258,4.19531 l 3.92578,-1.08203 4.0586,-1.48828 2.57226,-1.08399 c 0,0 -1.12501,2.27268 -1.89453,3.11329 -0.76952,0.84058 -0.99385,1.84895 -2.16601,2.70703 -1.17216,0.85808 -3.49683,1.64227 -4.8711,2.43554 -1.37427,0.79327 -3.65429,1.62305 -3.65429,1.62305 l 4.73632,-0.67578 4.4668,-0.40625 2.70703,-0.67578 c 0,0 -1.28574,2.00733 -2.30078,2.84179 -1.01504,0.83449 -2.20323,1.97359 -3.6543,2.97657 -1.45104,1.00298 -5.82031,2.43554 -5.82031,2.43554 l 4.4668,-0.54101 6.22461,-1.2168 2.70703,-1.08398 c 0,0 -1.12553,1.85194 -1.75977,2.97851 -0.63424,1.12657 -0.83006,2.37004 -2.02929,3.78907 -1.19923,1.419 -5.41407,4.19531 -5.41407,4.19531 l 6.36133,-1.89453 4.19531,-2.16602 c 0,0 0.11421,1.88585 -0.67773,3.24805 -0.79194,1.3622 -2.30318,3.28622 -4.05859,4.73633 -1.75544,1.45008 -6.4961,3.92382 -6.4961,3.92382 l 4.60157,-1.48828 8.40039,-3.95703 c 0,0 0.0154,3.34212 -0.12696,5.42969 -0.21815,3.20026 -1.16309,6.75123 -2.42187,8.78906 -1.16569,1.88713 -2.67497,3.41591 -4.40235,4.96875 -1.72737,1.55282 -5.23828,3.7168 -5.23828,3.7168 l 5.41211,-2.03125 5.6836,-2.8418 c 0,0 -1.13058,3.07442 -2.0293,4.60156 -0.89872,1.52717 -1.60444,2.93541 -3.38281,4.4668 -1.7784,1.53139 -7.44336,4.06055 -7.44336,4.06055 l 5.54883,-1.625 4.73632,-1.35352 1.48828,-0.67578 c 0,0 -0.11787,2.43435 -0.67578,3.6543 -0.55791,1.21995 -1.6252,3.99195 -2.97851,5.68359 l -5.14258,4.46484 -4.60156,2.16602 6.76757,-1.35352 5.95508,-2.70703 c 0,0 2.66208,-1.59383 3.78907,-3.24804 1.12696,-1.65421 1.81057,-4.74497 2.30078,-6.63086 0.49021,-1.88589 0.81054,-4.60157 0.81054,-4.60157 l 1.625,-2.43554 -3.24804,2.97656 -2.0293,1.21875 c 0,0 0.90916,-0.99168 1.48047,-1.87891 0.57131,-0.88724 1.47684,-2.35271 2.26758,-3.60742 0.79074,-1.25471 1.17287,-3.15292 1.7207,-4.88867 0.54783,-1.73577 1.43164,-5.05273 1.43164,-5.05273 l -3.92383,4.06054 -2.30078,1.35352 c 0,0 3.40461,-3.93423 4.61719,-5.94531 1.21258,-2.01111 2.38352,-3.94206 3.16992,-5.7168 0.85666,-1.93332 1.27559,-3.96787 1.68555,-5.66211 0.40996,-1.69424 0.4428,-3.64795 0.40625,-4.73633 -0.0366,-1.08838 -0.26953,-1.75781 -0.26953,-1.75781 l -3.92579,3.11133 -3.92382,2.43554 c 0,0 1.95391,-2.20831 2.84179,-3.51757 0.88788,-1.30929 2.12902,-3.04118 2.43555,-4.33008 0.30653,-1.2889 -0.13477,-2.97852 -0.13476,-2.97852 l -2.97852,2.97852 -3.65234,1.75781 c 0,0 2.31739,-2.68622 3.11132,-4.19531 0.79393,-1.50909 1.35813,-3.29432 1.625,-4.73633 0.26687,-1.44201 0.13477,-3.78906 0.13477,-3.78906 l -1.75977,3.51953 -3.65429,2.30078 -2.57032,0.94727 c 0,0 3.83605,-2.57789 4.73633,-4.06055 0.90028,-1.48266 0.72713,-3.04426 0.94727,-4.06055 0.22014,-1.01629 0.40625,-2.0293 0.40625,-2.02929 l -1.48828,1.35351 -2.97852,1.75977 c 0,0 2.73579,-2.40769 3.51953,-3.79102 0.78374,-1.38333 1.00399,-2.87486 1.2168,-4.19531 0.21281,-1.32045 0.13672,-3.652346 0.13672,-3.652346 l -2.70703,2.705076 -4.33008,2.30078 c 0,0 2.2639,-2.25019 3.24805,-3.65234 0.98412,-1.402142 2.11002,-3.530883 2.57031,-4.738281 0.46029,-1.207398 0.48043,-1.295962 0.54101,-2.300781 0.0606,-1.004822 -0.40625,-3.652344 -0.40625,-3.652344 l -2.29882,2.841797 -3.79102,2.029297 c 0,0 2.7734,-2.760049 3.6543,-4.330079 0.8809,-1.570027 1.33495,-3.230247 1.625,-4.873047 0.29005,-1.642797 0.13476,-4.871093 0.13476,-4.871093 l -2.43554,2.435547 -3.6543,1.082031 c 0,0 1.46432,-0.935279 2.30078,-1.757813 0.83646,-0.822531 1.83951,-1.660548 2.57031,-3.248046 0.7308,-1.587501 1.21875,-6.226563 1.21875,-6.226563 z m 5.875,139.648435 c 0,0 0.65222,5.82226 0.95703,8.9961 0.30481,3.17381 0.60159,5.83643 0.86133,10.04687 0.25975,4.21047 0.61622,10.01193 0.57422,15.2168 -0.042,5.20483 -0.37985,10.21928 -0.86133,15.98047 -0.48148,5.76116 -1.28493,13.31858 -2.10547,18.56445 -0.82054,5.24587 -2.11172,8.46628 -2.58398,12.91797 -0.47226,4.45166 -0.60194,10.19472 -0.19141,13.68555 0.41053,3.4908 1.81836,7.17578 1.81836,7.17578 l 0.66992,-12.63086 1.53125,-11.67578 4.21094,-19.61719 2.00781,-22.86914 -1.62695,-16.26953 -1.91211,-10.7168 z m -1.88672,130.52735 c 0,0 0.23163,7.81241 0.5293,10.98047 0.29767,3.16804 0.64299,6.37418 1.45313,10.74218 0.81012,4.36802 2.11442,9.47552 3.2539,13.39649 1.13948,3.92095 2.26079,7.3122 3.44336,10.14453 1.18257,2.83233 2.08798,5.00545 3.44531,6.88867 1.35735,1.88322 4.40235,4.59375 4.40235,4.59375 h 2.48828 l -3.25391,-4.21094 -4.21094,-7.08008 -4.40234,-10.91015 c 0,0 -2.40245,-8.40854 -3.63476,-14.16211 -1.23233,-5.75359 -3.51368,-20.38281 -3.51368,-20.38281 z" /><path
       id="path42460"
       style="fill:#000000;fill-opacity:0.2;stroke:none;stroke-width:1px;stroke-linecap:butt;stroke-linejoin:miter;stroke-opacity:1"
       d="m 265.06445,16.310547 -7.64843,0.339844 -8.99414,1.53125 -7.46485,3.445312 -11.29101,6.890625 -9.57032,9.759766 -12.43945,11.101562 -4.78516,3.826172 -4.59375,7.082031 -2.48828,3.0625 -5.55078,5.742188 -0.95508,2.869141 0.76368,3.828124 1.77734,-0.474609 -5.79492,4.302735 -2.48828,3.55664 -1.19727,2.998047 -2.43945,3.398437 -6.50782,6.50586 -2.82226,4.927738 -0.8125,4.73828 -3.73242,4.64062 -1.81836,4.83203 -3.44532,5.74219 -0.76562,5.74219 -2.20117,8.32422 -0.86133,5.83789 -5.35938,10.33398 -1.40624,5.38672 -0.50586,4.94922 -0.10743,4.26172 0.34571,4.54101 -2.29688,16.84375 -3.34961,22.15235 -0.95703,12.77539 1.77149,9.08984 -0.25977,4.88281 0.92969,6.31446 3.1582,5.26367 2.67773,5.74023 0.62305,1.39454 0.14258,3.58203 1.53125,11.43554 -0.19141,2.48829 -1.42773,2.55273 -1.44336,1.13086 h -4.20898 l -2.63282,-0.62109 2.44141,2.20117 2.91016,1.24023 3.02148,-0.52344 0.38281,-0.76562 -0.60547,3.44922 -0.92578,2.29297 -1.92187,2.13867 -2.28711,1.49804 2.34375,-0.24023 3.1582,-2.39258 3.82813,-10.04687 1.05273,-5.45508 2.10547,8.18164 1.18164,2.57422 c 2.2061,-3.27625 4.2441,-6.71586 6.23437,-9.6543 4.38676,-6.47661 8.48543,-10.92657 11.09961,-19.14062 2.61423,-8.21405 -0.32166,-20.85421 2.67969,-29.47266 3.00135,-8.61845 10.34512,-14.79923 13.7793,-21.05273 3.43418,-6.25351 1.48119,-9.83233 3.89015,-17.0235 0.97286,-2.90416 4.75637,-7.96982 4.66123,-8.87651 -0.56417,-5.37644 -1.46782,-11.93704 1.93743,-19.58687 0.31146,-0.6997 -4.82017,0.25293 -4.97771,-0.0353 -0.5192,-0.94987 -1.67516,-3.30394 -1.58308,-4.45442 0.50694,-6.3338 -1.37743,-14.96682 3.1069,-20.27311 0,0 -1.72485,-5.38468 -0.51146,-8.48091 2.18933,-5.58654 4.14677,-10.57957 6.99124,-15.29127 0.44201,-0.73216 -1.82551,0.82188 -1.87747,0.4938 -0.0876,-0.55316 0.0231,-3.47547 0.0372,-4.02709 0.31613,-12.372759 2.84661,-21.606606 7.31271,-29.568892 0.42784,-0.762768 -2.26702,-0.756887 -2.25697,-1.074084 0.0373,-1.179013 2.53498,-4.337021 3.21676,-5.323983 4.79459,-6.940767 9.35471,-17.983295 16.55616,-24.315673 1.11272,-0.978434 -3.14353,-0.294516 -3.14353,-0.294516 -0.0635,-2.2461 3.7338,-4.67108 4.7593,-5.722772 3.14466,-3.224965 8.80909,-8.221935 14.49321,-11.479094 9.02494,-5.171552 18.20241,-8.015449 18.20241,-8.015449 z"
       sodipodi:nodetypes="ccccccccccccccccccccccccccccccccccccccccccccccccccccccccccccccssssssssssssssssssssscc" /><path
       id="path95302"
       style="fill:#ffffff;fill-opacity:0.15;stroke:none;stroke-width:1px;stroke-linecap:butt;stroke-linejoin:miter;stroke-opacity:1"
       d="m 350.70312,239.13086 c -1.38158,8.21143 -3.32177,20.04657 -3.71679,27.28125 -0.4664,8.54184 -0.17486,11.75984 0.57422,18.94727 0.74908,7.18742 2.86641,15.72344 3.82617,21.24414 0.95976,5.52069 1.86556,8.53982 2.00976,11.86523 0.1442,3.32541 -0.28967,8.00619 -0.47851,11.48437 -0.18885,3.47819 -0.66992,9.37696 -0.66992,9.37696 l 3.1582,-13.01367 1.53125,-9.85743 -2.39258,-14.83203 -2.77539,-16.45898 -0.86133,-20.0957 2.00977,-18.85157 1.36523,-7.08984 z" /><path
       id="path95304"
       style="color:#000000;fill:#000000;stroke-width:1.5;stroke-dasharray:none"
       d="m 321.75781,239.13086 c 0.53633,5.32346 0.31806,12.96439 0.60547,20.79883 0.31469,8.5778 0.0407,18.71609 1.15039,29.13867 1.1128,10.45206 4.65455,24.77605 5.74414,32.9375 1.09894,8.23139 1.0088,10.21881 1.52735,16.42578 0.51804,6.20096 1.35745,14.16099 1.52929,20.63086 0.17352,6.5327 0.56691,12.22466 -0.375,18.24609 -0.94215,6.02305 -3.52585,14.27793 -5.29101,17.78321 -0.8928,1.77292 -1.71938,2.86629 -2.30469,3.50781 -0.58531,0.64152 -0.9707,1.40039 -0.9707,1.40039 h 0.80859 c 0,0 0.51947,0.28585 1.19727,-0.45703 0.67779,-0.74288 1.57479,-1.94621 2.51953,-3.82227 1.90989,-3.79262 4.45226,-11.98427 5.42383,-18.19531 0.97175,-6.21259 0.56514,-12.00287 0.39257,-18.5 -0.17423,-6.55996 -1.01734,-14.53612 -1.5332,-20.71094 -0.51535,-6.16873 -0.43097,-8.22341 -1.53516,-16.49414 -1.11346,-8.34067 -4.64641,-22.62475 -5.74023,-32.89843 -1.09697,-10.30321 -0.8273,-20.39573 -1.14453,-29.04297 -0.28245,-7.69911 -0.0546,-15.23942 -0.59766,-20.74805 z m 7.91016,0 c 0.0191,1.4484 0.0358,2.76188 0.0176,5.07422 -0.0499,6.34013 -1.88544,14.83236 -1.91407,25.65039 -0.0285,10.79912 1.27293,27.16024 2.6836,38.74023 1.41264,11.59625 3.7718,21.62457 5.36328,30.65625 1.60333,9.09895 3.79235,16.56141 4.20312,23.65625 0.41381,7.14724 -0.0831,13.91858 -1.13671,18.96875 -1.03895,4.9797 -3.57227,11.61524 -3.57227,11.61524 0,0 3.74668,-6.08202 4.8457,-11.34961 1.08435,-5.19711 1.58014,-12.05469 1.16016,-19.3086 -0.42301,-7.30618 -2.6296,-14.79012 -4.21875,-23.80859 -1.601,-9.08573 -3.95102,-19.07498 -5.35352,-30.58789 -1.40441,-11.52917 -2.70403,-27.88932 -2.67578,-38.58008 0.0282,-10.67185 1.86234,-19.06514 1.91407,-25.64258 0.0179,-2.28259 -0.002,-3.61433 -0.0215,-5.08398 z m 4.58203,0 c -0.1916,2.61247 -0.38631,5.27261 -0.4375,7.36719 -0.13348,5.46196 0.73242,13.02343 0.73242,13.02343 0,0 -0.16522,-7.60399 -0.0332,-13.00586 0.0506,-2.07022 0.28299,-4.75394 0.50781,-7.38476 z m 6.79688,0 c -1.75647,8.77318 -2.87562,21.7956 -2.5586,32.6582 0.32654,11.18849 2.89005,23.52695 4.60352,33.01563 1.72278,9.54026 4.12943,18.10436 5.36328,24.1289 0.62642,3.05868 1.18717,4.9024 1.58984,6.55664 0.40267,1.65431 0.65536,3.12303 0.69336,5.57227 0.0748,4.82313 -1.47714,12.75622 -2.52734,17.20117 -0.84221,3.56467 -1.82262,6.99419 -2.23047,8.4043 0.37439,-2.41095 0.65926,-4.66844 0.74805,-6.44141 0.18525,-3.69951 0.33838,-2.76324 -0.39063,-7.41601 -0.75653,-4.82848 -3.69467,-12.04201 -5.36523,-20.31836 -1.67757,-8.31077 -3.54588,-21.62918 -4.19922,-29.77344 -0.65174,-8.12432 -1.08008,-21.76172 -1.08008,-21.76172 0,0 -0.97663,13.62058 -0.31445,21.875 0.66057,8.23448 2.52767,21.54045 4.22265,29.9375 1.70194,8.43147 4.65161,15.77802 5.35352,20.25781 0.72943,4.6555 0.56294,3.37561 0.375,7.12891 -0.18197,3.63401 -1.21555,9.59664 -2.2832,14.82227 -1.07101,5.24178 -2.52236,12.3427 -4.17188,16.33203 -1.64973,3.9897 -4.98633,8.68945 -4.98633,8.68945 h 1.21289 c 0,0 3.30635,-3.89762 5.06641,-8.1543 1.76024,-4.25704 3.17949,-11.34664 4.25,-16.58593 0.52324,-2.56087 1.03694,-5.28379 1.45117,-7.84961 0.53397,-1.03257 2.54041,-5.04491 3.4707,-8.98243 1.05596,-4.4693 3.15984,-12.24441 3.08008,-17.38476 -0.0393,-2.53254 -0.31287,-4.15375 -0.72851,-5.86133 -0.41563,-1.70757 -0.96372,-3.49822 -1.58008,-6.50781 -1.25173,-6.11193 -3.64814,-14.63385 -5.35742,-24.09961 -1.71864,-9.51734 -4.26054,-21.8048 -4.58203,-32.82227 -0.32225,-11.04169 0.85689,-23.7733 2.66601,-32.38281 0.0178,-0.0847 0.0405,-0.15446 0.0586,-0.23828 z m 12.35156,0 c -0.25942,1.15175 -0.5175,2.38127 -0.74024,3.83203 -0.98009,6.3838 -2.48093,17.21262 -2.68554,24.96289 -0.20391,7.72331 0.3519,14.61171 1.15234,21.14844 0.80542,6.57739 2.66703,14.56964 3.45312,18.03906 0.78615,3.46942 1.37717,6.16086 1.51954,8.9375 0.14237,2.77664 -0.6127,5.55914 -1.14063,8.82227 -0.5166,3.19301 -2.08594,11.88476 -2.08594,11.88476 0,0 2.83226,-8.35937 3.36914,-11.67773 0.52555,-3.24837 1.60276,-5.64577 1.53907,-8.71094 -0.0637,-3.06517 -0.88943,-5.8898 -1.54297,-9.12891 -0.65354,-3.23905 -2.6466,-11.48255 -3.4375,-17.9414 -0.79589,-6.49959 -1.34624,-13.69919 -1.14453,-21.33985 0.20101,-7.61363 1.69508,-18.43653 2.67187,-24.79882 0.23325,-1.5193 0.5048,-2.83108 0.78321,-4.0293 z m -9.65625,9.06641 c 0,0 -1.10669,7.46996 -1.29688,11.62304 -0.18934,4.13459 -0.3188,8.78209 -0.13672,13.15821 0.18288,4.3951 1.56836,12.97656 1.56836,12.97656 0,0 -0.68732,-8.68309 -0.86718,-13.00586 -0.18066,-4.34188 -0.0541,-8.97263 0.13476,-13.09766 0.18805,-4.10641 0.59766,-11.65429 0.59766,-11.65429 z m -7.44336,116.79101 c 0,0 -0.41211,10.21866 -1.15821,14.69336 -0.75417,4.52354 -2.1643,9.07247 -3.49804,12.37695 -1.3208,3.27244 -4.0293,7.94141 -4.0293,7.94141 h 0.58984 c 0,0 2.72387,-4.29339 4.08985,-7.67773 1.35303,-3.35229 2.77414,-7.93754 3.53906,-12.52539 0.77309,-4.63668 0.4668,-14.8086 0.4668,-14.8086 z M 289.73885,5.1026397 c -3.12337,-0.00206 -7.37118,0.4257241 -10.46485,1.5019531 -4.07454,1.4175105 -7.0047,3.3633063 -9.01007,4.9372442 -0.81922,0.642973 -3.9428,3.377462 -4.80973,4.410156 -0.852,-0.138668 -1.01657,-0.390044 -1.93341,-0.393143 -1.34728,-0.0046 -2.29083,-0.0539 -3.24023,-0.07422 -0.9494,-0.02031 -1.90511,-0.01114 -3.27734,0.101563 -3.97785,0.326702 -7.33319,1.207682 -11.71094,2.816406 -4.17872,1.535508 -8.69605,4.1625 -12.49023,6.919922 -3.80104,2.762274 -7.00931,6.326412 -10.80596,9.798572 -3.82946,3.502311 -8.64327,8.404053 -12.17968,11.513672 -3.52958,3.103451 -6.09499,4.364257 -8.24654,6.873612 -2.14259,2.49909 -3.38408,5.243106 -5.20312,7.714844 -0.88334,1.200273 -2.32888,2.622309 -3.6875,4.027343 -1.35862,1.405051 -2.64467,2.769122 -3.22461,4.101563 -0.77298,1.775948 -0.64258,3.146676 -0.55078,4.435547 0.0602,0.845894 0.0591,1.817692 0.36486,2.320878 -2.39761,1.490816 -3.80092,2.528201 -5.02363,4.021996 -1.32766,1.621981 -1.54858,4.865234 -1.54858,4.865234 0,0 1.3286,-2.338483 2.47732,-3.741877 1.19855,-1.464252 3.36471,-3.432151 5.90039,-4.824218 2.53569,-1.392078 6.13909,-2.816444 8.80664,-3.054688 2.66755,-0.238244 4.80828,-0.874253 6.92187,-0.882812 2.11369,-0.0086 3.64023,0.726275 5.69727,0.830078 2.00524,0.10119 4.76169,-0.198302 6.41797,-0.113282 1.7692,0.09082 2.83367,0.152577 3.56836,0.386719 0.48823,0.155595 0.92562,0.345442 1.41015,0.542969 -0.0665,1.14349 -0.0767,2.403475 -0.11718,3.703125 -0.0103,0.330208 -0.0303,0.66009 -0.0469,0.990234 -0.44114,-0.322497 -1.08414,-0.758024 -1.65039,-1 -0.91756,-0.392101 -2.09069,-0.673292 -3.25586,-0.77539 -1.16517,-0.102098 -3.3789,0.554687 -3.3789,0.554687 0,0 2.26315,-0.110075 3.25195,-0.02344 1.0572,0.09263 2.27885,0.5346 3.10742,0.888671 0.64873,0.277223 1.5749,0.968781 1.87891,1.201172 -0.10598,1.447916 -0.30429,2.833337 -0.70899,3.945313 -1.2131,3.333194 -2.88054,5.997357 -5.55468,8.158203 -1.24318,1.004546 -3.60674,2.553655 -5.82032,3.318359 -2.21358,0.764708 -4.13867,1.359375 -4.13867,1.359375 0,0 2.01616,-0.07424 4.32617,-0.699218 2.35759,-0.637858 5.00551,-1.525778 6.53026,-2.757841 2.8617,-2.312374 4.80686,-5.446692 6.07128,-8.920875 0.66454,-1.826038 0.80923,-4.042843 0.875,-6.154297 0.0658,-2.111454 0.0521,-4.131772 0.29882,-5.421875 0.27215,-1.422843 0.3575,-2.279502 0.50977,-2.966797 0.15227,-0.68729 0.36051,-1.233225 0.94531,-2.191406 0.50631,-0.829573 1.13542,-2.483034 2.50003,-3.657222 1.3646,-1.174189 2.82422,-2.445312 2.82422,-2.445312 0,0 -1.60365,0.470103 -2.99805,1.669921 -1.39439,1.199823 -2.93217,2.602181 -3.63867,3.759766 -0.62801,1.028978 -0.91568,1.761687 -1.0918,2.556641 -0.17612,0.794954 -0.25193,1.623292 -0.51562,3.001953 -0.0855,0.446854 -0.13782,0.94862 -0.17773,1.472656 -0.37618,-0.331246 -0.83727,-0.691587 -1.3086,-0.841797 -1.04225,-0.332136 -2.11563,-0.527069 -3.87109,-0.617187 -1.86838,-0.09591 -4.3907,0.09462 -6.09571,-0.115235 -1.68839,-0.207855 -3.43358,-0.84947 -5.85742,-0.83789 -2.42384,0.01158 -4.64211,0.437551 -7.14258,0.904297 -2.50037,0.466736 -6.67885,1.898055 -9.27929,3.4375 -0.0529,0.03132 -0.10008,0.06597 -0.15235,0.09766 -0.12032,-0.530492 -0.28189,-1.310083 -0.30468,-2.001953 -0.0433,-1.312386 0.006,-1.813161 0.98242,-4.029297 0.43636,-0.990803 1.64603,-2.363845 2.98828,-3.751953 1.34225,-1.388125 2.8086,-2.815456 3.79102,-4.150391 1.91233,-2.598696 3.25947,-5.18756 5.26562,-7.527344 1.99737,-2.329519 4.06295,-3.564672 7.66992,-6.736328 3.60013,-3.165488 8.70471,-7.712012 12.49219,-11.175781 3.32108,-3.037239 5.91356,-5.815848 8.95898,-8.263672 1.91465,-0.486257 5.65471,-1.348696 7.94141,-1.289062 3.22206,0.08403 7.70585,0.905719 10.35742,2.068359 2.61223,1.14539 5.95899,3.740234 5.95899,3.740234 0,0 -2.86613,-3.148047 -5.67774,-4.380859 -2.77226,-1.215562 -7.19957,-2.242684 -10.55078,-2.330078 -1.90561,-0.04969 -4.28951,0.339159 -6.04297,0.693359 2.53696,-1.80718 5.33496,-3.586328 8.12891,-4.998047 1.87251,-0.0917 5.43199,-0.225453 6.99023,-0.0059 2.22203,0.31319 4.09313,0.710526 5.94922,1.402344 1.79944,0.670691 6.68555,2.988281 6.68555,2.988281 0,0 -4.49215,-2.917998 -6.44141,-3.644531 -1.8926,-0.705425 -3.4983,-1.120989 -5.75781,-1.439453 -1.43919,-0.202852 -3.72008,-0.253982 -5.32031,-0.267579 0.44032,-0.192561 0.88977,-0.419899 1.32226,-0.58789 4.03476,-1.567151 7.411,-2.34164 11.28906,-2.859375 0.18836,-0.02514 0.37695,-0.02623 0.56641,-0.04883 0.98152,0.09954 2.16417,0.249633 2.89258,0.455078 1.46362,0.412799 2.68303,0.959094 4.17773,1.857422 0.7167,0.430705 1.55181,1.132572 2.36524,1.830078 0.81343,0.697506 1.60382,1.390469 2.30078,1.822265 1.35382,0.838765 3.63477,1.597657 3.63476,1.597657 0,0 -2.00468,-1.209017 -3.26562,-1.990235 -0.61042,-0.378176 -1.399,-1.261359 -2.21484,-1.960937 -0.81585,-0.699578 -1.66232,-1.41966 -2.45899,-1.898438 -1.53192,-0.920636 -2.8257,-1.502362 -4.34765,-1.93164 -0.0432,-0.01218 -0.0914,-0.02338 -0.13672,-0.03516 4.59894,-0.274755 8.70898,-0.0098 8.70898,-0.0098 0,0 -1.20256,-0.339862 -2.72851,-0.605469 0.26184,-0.188607 0.81692,-0.590819 1.5664,-1.132812 0.10812,0.03472 2.32784,0.749787 3.61328,1.410156 1.37904,0.70845 2.91285,1.790824 3.95508,3.148437 1.0625,1.384032 1.49531,2.636192 2.00391,4.710938 0.48912,1.995295 0.36976,5.170725 0.58203,7.5625 0.20723,2.33502 0.23376,4.570952 0.6543,6.537109 0.0327,0.152903 0.0776,0.32084 0.11914,0.484375 -0.50361,-1.041899 -0.98877,-2.110689 -1.39844,-3.191406 -1.13975,-3.006648 -2.80469,-9.115234 -2.80469,-9.115234 0,0 0.43989,6.265289 1.68164,9.541015 1.22439,3.229932 3.33558,7.191184 4.72266,9.324219 0.76858,1.181907 1.32389,1.886826 1.85547,2.466797 -1.13524,-0.362033 -2.43046,-1.164487 -3.37249,-1.512157 -1.63128,-0.602157 -3.46603,-1.459593 -5.02148,-2.734375 -1.536,-1.258862 -2.98403,-3.074524 -4.38338,-5.194874 -0.65024,-0.985283 -1.24439,-2.041181 -1.86132,-3.34375 -0.61711,-1.302588 -1.06795,-2.563114 -2.23047,-3.423828 -1.90881,-1.413269 -5.08594,-2.347657 -5.08594,-2.347657 0,0 3.13478,1.923593 4.12305,2.904297 0.98808,0.980704 1.5619,2.162163 2.16796,3.441406 0.60607,1.279261 1.14545,2.309435 1.88477,3.429688 0.60066,0.91015 1.19403,1.846539 1.81641,2.738281 -1.76021,-0.38532 -5.11523,-1.404553 -6.82479,-1.602001 -1.23118,-0.142196 -2.61419,0.04728 -3.5332,0.05664 -0.91901,0.0094 -1.78833,-0.388666 -2.92578,-0.744141 -2.18253,-0.682061 -4.3761,-2.692601 -7.25139,-3.952686 -2.76329,-1.211018 -5.89046,-2.03475 -8.76758,-2.341797 -2.9534,-0.31521 -8.67187,1.501953 -8.67187,1.501953 0,0 5.95935,-0.549749 8.5664,-0.271484 2.68354,0.286389 5.80801,1.188249 8.5293,2.380859 1.84777,0.809789 3.64708,2.308146 5.46484,3.412109 -0.86632,0.414845 -2.38558,1.114015 -3.62109,1.513672 -1.87817,0.607556 -4.53847,1.362517 -6.47656,1.458984 -1.96224,0.09768 -3.19438,-0.334311 -5.42969,-0.669921 -2.09202,-0.314104 -4.70019,-1.271491 -7.64844,-1.359375 -1.50897,-0.04498 -3.806,0.232661 -5.76562,0.515625 -1.95962,0.282955 -4.125,1.548828 -4.125,1.548828 0,0 2.44177,-0.756188 4.39258,-0.886719 2.03073,-0.135884 4.15439,-0.150098 5.46093,0.02148 2.79974,0.367691 5.17268,1.193542 7.46094,1.53711 1.72561,0.259083 3.09989,0.565922 4.67188,0.65039 -0.71273,0.687845 -2.81987,2.719048 -3.99219,3.777344 -1.45015,1.309104 -2.36098,2.59365 -3.73242,3.234375 -1.45303,0.678821 -2.16524,0.650671 -4.7168,0.763672 -2.40241,0.106395 -7.06376,-0.642641 -10.29688,-0.642578 -3.17919,6.2e-5 -6.35528,0.436768 -8.51757,0.783203 -2.27302,0.364169 -4.50782,0.96875 -4.50782,0.96875 0,0 2.51491,-0.19566 4.66016,-0.451172 2.17606,-0.259183 5.3007,-0.435487 8.39844,-0.435547 3.04382,-5.9e-5 7.6203,0.8964 10.30859,0.777344 2.17786,-0.09645 3.22515,-0.199423 4.47266,-0.669922 -0.99436,1.191624 -1.86578,2.231255 -2.55664,3.072266 -0.88408,1.076293 -1.75741,2.279135 -2.59766,3.263672 -0.83869,0.982718 -1.86975,1.515524 -2.47266,1.720703 -0.73328,0.235518 -2.05566,0.318166 -3.66406,0.0332 -1.61002,-0.285246 -3.31959,-0.690962 -4.67773,-0.835938 -2.57008,-0.274344 -4.89106,-0.606757 -7.77539,-0.613281 -2.95944,-0.0067 -6.63548,1.054722 -9.06055,1.705078 -2.38123,0.638602 -4.10352,1.466797 -4.10352,1.466797 0,0 1.5882,-0.230688 3.88477,-0.732422 2.34773,-0.512909 6.55682,-1.244409 9.27539,-1.238281 2.79369,0.0063 5.05724,0.328451 7.65234,0.605469 1.22446,0.130706 2.93945,0.530783 4.59571,0.824219 1.65625,0.293436 3.23627,0.522484 4.44922,0.130859 l 0.004,-0.002 h 0.004 c 1.04126,-0.351434 2.10594,-0.959654 2.99217,-1.998075 0.88623,-1.038421 1.66731,-2.097417 2.61328,-3.28125 0.94596,-1.183832 3.0521,-3.797136 3.92578,-4.79496 0.87367,-0.997824 1.62226,-1.829719 2.45018,-2.577115 1.25914,-1.136665 4.43041,-4.204292 5.21387,-4.889616 2.03489,-0.214451 4.02523,-0.751237 5.74221,-1.30665 1.5517,-0.501964 3.76677,-1.588677 4.66113,-2.093759 0.28463,0.127391 0.66259,0.301052 0.9492,0.390625 1.25618,0.39258 2.17756,0.495139 3.13869,0.485346 0.96113,-0.0098 2.10206,-0.171893 3.23533,-0.041 1.96992,0.227518 6.49444,1.490308 7.94533,1.809546 0.45625,0.538403 0.74543,0.656085 1.26759,1.084022 1.76619,1.447512 3.71859,2.050519 5.30664,2.636719 1.13717,0.419694 3.12392,0.630998 4.34571,0.726562 0.29637,0.30089 0.59752,0.587294 0.9375,0.914063 1.19468,1.148252 4.01758,2.166016 4.01758,2.166015 0,0 -2.02893,-2.284358 -2.98255,-3.200915 -1.06215,-1.020867 -1.83012,-2.308258 -3.19349,-4.405119 -0.26078,-0.401003 -0.7438,-1.138088 -1.02331,-1.6066 -0.37577,-0.970206 -1.31911,-2.550013 -1.60925,-3.906506 -0.39884,-1.864719 -0.43245,-4.083469 -0.64258,-6.451172 -0.20509,-2.310948 -0.0649,-5.48664 -0.59961,-7.667969 -0.51506,-2.101878 -0.99653,-3.495654 -2.1289,-4.970703 -1.15264,-1.501432 -2.73955,-2.597887 -4.19141,-3.34375 -1.46847,-0.754397 -3.76834,-0.800199 -3.91015,-0.802734 1.59613,-1.154466 3.45104,-2.502765 4.02734,-2.955078 1.88854,-1.482253 3.6767,-2.4102931 7.5332,-3.7519535 3.80647,-1.3241973 10.07062,-1.6210503 12.58594,-1.3066406 2.56958,0.3211917 3.756,1.1406391 7.70898,2.6367187 1.32998,0.5033354 3.44671,1.1247664 5.40626,1.7226564 0.19745,0.312198 0.67514,1.074255 1.28906,2.175781 0.75898,1.361804 1.57316,3.017709 1.79492,4.039063 0.47244,2.175888 0.40815,4.136187 -0.0937,6.257812 -0.23367,0.987661 -0.89411,2.981288 -1.68555,4.351563 -0.79145,1.370271 -1.41797,2.332032 -1.41797,2.332031 0,0 1.02895,-0.925902 1.83203,-2.316406 0.80314,-1.39051 1.67322,-3.032156 1.95118,-4.207032 0.52131,-2.203444 0.59157,-4.291373 0.0977,-6.566406 -0.26144,-1.204109 -1.0963,-2.849172 -1.86718,-4.232422 -0.32343,-0.580297 -0.6226,-1.086894 -0.87696,-1.507812 2.28206,0.677596 4.13502,1.164212 6.26758,1.699219 0.65923,0.50885 1.61201,1.312617 2.11133,2.060546 0.87298,1.307653 1.13957,1.973012 1.13672,3.154297 -0.003,1.163216 -0.38229,2.249889 -1.2461,3.802735 -0.41176,0.740212 -1.44902,2.62268 -2.50976,4.097656 -1.06074,1.47497 -1.875,2.771484 -1.875,2.771484 0,0 1.23614,-1.074296 2.30078,-2.554687 1.06464,-1.480397 2.23062,-3.139239 2.69531,-3.97461 0.88911,-1.598315 1.333,-2.823135 1.33594,-4.140625 0.003,-1.299415 -0.35472,-2.195096 -1.25586,-3.544922 -0.29814,-0.446589 -0.70157,-0.882278 -1.11523,-1.271484 0.67551,0.159292 1.61482,0.436517 2.17773,0.552734 4.3162,0.891149 5.76013,0.860212 8.64063,1.511719 2.91683,0.659773 5.70118,1.590707 8.04101,3.439453 2.35244,1.858726 3.88841,3.66116 5.24609,6.716797 1.34231,3.020708 2.63096,6.461083 2.77735,8.740235 0.15885,2.473137 0.0316,3.951171 -0.80469,6.039062 -0.77671,1.939309 -2.07603,3.821138 -4.40625,6.324219 -2.32894,2.501698 -6.19493,5.558708 -9.66689,7.598916 -3.37573,1.983564 -10.87413,5.291709 -10.87412,5.291709 0,0 8.54166,-1.550403 12.22586,-3.715227 3.58764,-2.10818 7.09794,-4.609103 9.51229,-7.20256 2.41308,-2.592074 4.08379,-4.119155 5.20299,-7.202303 0.96983,-2.671657 1.11275,-5.134371 0.95439,-7.599792 -0.17081,-2.659404 -1.8256,-6.18399 -3.21919,-9.320056 -1.37806,-3.101153 -2.75517,-5.336313 -5.30078,-7.347657 -2.55823,-2.021309 -5.74715,-3.106604 -8.75586,-3.787109 -3.04519,-0.688756 -4.98625,-0.469266 -9.19336,-1.337891 -4.2068,-0.868544 -12.41736,-3.1910552 -16.27344,-4.6503904 -3.88979,-1.4721656 -5.21099,-2.3584108 -7.98437,-2.7050782 -0.70691,-0.088362 -1.62309,-0.1360323 -2.66406,-0.1367187 z m 1.74553,3.0321259 c 0,0 1.1431,0.8775671 2.31835,1.671875 1.17532,0.7943064 2.21034,1.8332274 2.74805,2.6367184 1.15528,1.726316 1.53398,3.723488 1.56836,5.839844 0.0338,2.078938 -0.61133,4.069073 -1.50781,6.375 -0.86052,2.213431 -3.14205,4.840395 -4.01953,7.181641 -0.84891,2.265008 -1.2221,4.362033 -1.26758,6.044922 -0.0469,1.735041 0.92383,3.742188 0.92383,3.742187 0,0 -0.55147,-2.322167 -0.50977,-3.865234 0.0431,-1.595232 0.68528,-3.483105 1.50781,-5.677735 0.79396,-2.118398 3.07715,-4.752886 4.01758,-7.171875 0.90448,-2.326486 1.59091,-4.410418 1.55469,-6.640625 -0.0356,-2.192781 -0.43064,-4.341612 -1.68555,-6.216796 -0.66738,-0.997262 -2.02372,-2.01522 -3.22656,-2.8281255 -1.20284,-0.8129069 -2.42187,-1.0917969 -2.42187,-1.0917969 z m 2.05664,0 c 0,0 1.5362,0.7550648 2.42187,1.0996094 0.88568,0.3445445 1.73809,1.053137 2.29492,1.474609 1.22766,0.92923 2.00608,1.624181 2.91016,3.509766 0.87962,1.834589 1.54036,5.396086 1.5918,7.798828 0.0514,2.404282 -0.44705,4.740799 -1.03321,6.431641 -0.56721,1.636181 -1.77539,3.894531 -1.77539,3.894531 0,0 1.80748,-1.846683 2.4375,-3.664062 0.61108,-1.762728 1.12599,-4.167675 1.07227,-6.677735 -0.0538,-2.511589 -0.69266,-6.064002 -1.66211,-8.085937 -0.945,-1.970939 -1.86739,-2.816203 -3.11914,-3.763672 -0.68287,-0.5168748 -1.74464,-0.9781546 -2.6543,-1.3320315 -0.90966,-0.3538769 -2.48437,-0.6855469 -2.48437,-0.6855469 z m -6.64063,0.7441406 c 0.054,-0.064868 1.42574,3.5739768 1.76172,6.6757818 0.33598,3.101785 -0.2933,5.610234 -0.71094,9.289062 -0.40203,3.541364 -1.98718,8.828763 -1.89258,12.480469 0.0909,3.506238 0.6165,5.849167 1.70703,8.259765 1.10022,2.431575 2.73086,4.513805 4.53321,6 0.96223,0.793464 2.37243,1.469863 3.5664,1.980469 1.10282,0.47156 1.94018,0.760665 2.07422,0.806641 0.20695,0.49633 0.44703,0.957897 0.70899,1.384765 0.52644,0.857906 1.70981,1.715467 2.83789,2.535157 1.05355,0.765508 3.61988,2.06615 3.61988,2.06615 0,0 -2.16717,-2.015402 -2.90447,-2.739851 -0.57604,-0.565974 -1.64163,-2.196745 -2.0092,-2.796053 -0.86886,-1.415918 -1.45387,-2.75606 -1.125,-5.216797 0.31006,-2.32142 2.28732,-5.679203 4.12973,-8.161106 1.78963,-2.411072 3.96113,-4.108518 6.07812,-6.185547 2.04573,-2.007087 4.38748,-4.005125 6.20313,-6.355468 1.81545,-2.350363 3.88281,-6.234375 3.88281,-6.234375 0,0 -2.84021,3.955909 -4.58789,5.751953 -1.80679,1.856792 -4.21151,3.894026 -6.33789,5.980469 -2.05533,2.016521 -4.29693,3.762654 -6.20117,6.328125 -1.85187,2.49464 -4.44418,5.965207 -4.83594,8.896484 -0.0492,0.367927 -0.0417,0.684037 -0.0547,1.019531 -0.17478,-0.16208 -0.36848,-0.355878 -0.56836,-0.591797 -0.64207,-0.757846 -1.3172,-1.611108 -1.64648,-2.503906 -0.6799,-1.843416 -0.94398,-4.595438 -0.57227,-6.892578 0.1785,-1.103105 0.65219,-2.628715 1.27539,-3.945312 0.6232,-1.316603 1.51563,-3.181641 1.51563,-3.181641 0,0 -1.32253,1.638047 -1.95704,2.978515 -0.63444,1.340475 -1.27457,2.917405 -1.47851,4.177735 -0.39316,2.429725 -0.23434,5.32093 0.51172,7.34375 0.38369,1.040321 1.14814,2.070545 1.8164,2.859375 0.58086,0.685582 1.07813,1.201372 1.2031,1.32091 0.0629,0.06418 -0.21608,0.237732 -1.07161,-0.120805 -0.85553,-0.358537 -2.27426,-1.206338 -3.03856,-1.836568 -1.65071,-1.361172 -3.18288,-3.309233 -4.20508,-5.568359 -1.03168,-2.280104 -1.70975,-4.39407 -1.59961,-7.796875 0.1186,-3.664013 1.19048,-8.159677 1.61606,-11.908459 0.40998,-3.611339 1.00118,-5.924054 0.45508,-9.306641 -0.5461,-3.382587 -2.69922,-6.7929687 -2.69922,-6.7929688 z m 45.0957,12.3730468 c 0,0 0.18504,1.735797 0.0957,2.892578 -0.0893,1.156782 -0.28375,1.920656 -0.68946,3.257813 -0.40571,1.337137 -1.11004,2.628795 -2.87695,5.035156 -1.73733,2.366076 -5.45092,6.077723 -8.15625,8.505859 -2.67946,2.404938 -5.77723,4.079916 -7.97656,6.144532 -2.14687,2.015371 -3.97609,3.706462 -5.08789,5.818359 -1.09985,2.089186 -1.84665,4.626602 -1.57031,6.244141 0.27382,1.603882 2.4121,2.714843 2.4121,2.714843 0,0 -1.50254,-1.557035 -1.7207,-2.833984 -0.21583,-1.263312 0.45279,-3.809626 1.5,-5.798828 1.03526,-1.966491 2.79906,-3.616192 4.94727,-5.632813 2.09554,-1.967376 5.20545,-3.659857 7.96289,-6.134765 2.73136,-2.451709 6.44298,-6.146712 8.2539,-8.613282 1.78155,-2.426264 2.3716,-3.473547 2.94141,-5.351562 0.29994,-0.988539 0.43264,-2.273338 0.43945,-3.496094 0.006,-1.140285 -0.47461,-2.751953 -0.47461,-2.751953 z m -6.73047,2.832031 c 0,0 -0.78805,3.257162 -1.96093,5.294922 -0.91279,1.585908 -2.50694,2.919018 -4.71094,5.015625 -2.17217,2.066321 -4.43783,3.448169 -7.38867,5.980469 -3.10931,2.668297 -5.47306,5.629441 -6.67774,8.380859 -1.24625,2.846376 -1.0971,5.873208 -0.68359,8.072266 0.43992,2.339511 2.65039,4.564454 2.65039,4.564453 0,0 -1.27763,-2.612524 -1.54492,-4.599609 -0.28368,-2.108971 -0.14296,-5.109575 0.93359,-7.56836 1.11812,-2.553703 3.04586,-5.424251 6.05274,-7.898437 2.99081,-2.461146 5.24685,-3.932135 7.48633,-6.0625 2.20746,-2.100078 4.01941,-3.806678 4.92968,-5.761719 0.76929,-1.652228 0.91407,-5.417969 0.91406,-5.417969 z m 11.03907,4.783204 c 0,0 -0.68537,3.007734 -1.73242,5.222656 -1.0577,2.23702 -3.43994,6.261686 -5.60157,8.46289 -2.19038,2.230707 -4.20379,3.48598 -5.86523,4.298828 -1.65469,0.80957 -3.20694,1.224363 -4.54883,1.890626 -1.27276,0.631923 -2.97496,1.292032 -4.57226,2.835937 -1.58997,1.536641 -3.16554,3.873522 -3.8086,5.746094 -0.33594,0.978256 -0.3409,2.158923 -0.27734,3.109375 0.0636,0.950452 0.96484,2.375 0.96484,2.375 0,0 -0.20513,-1.517263 -0.26562,-2.421875 -0.0605,-0.904613 -0.038,-2.025688 0.24023,-2.835938 0.58532,-1.704441 2.13484,-4.021007 3.63281,-5.46875 1.49046,-1.440458 3.07944,-2.058012 4.39844,-2.71289 1.24987,-0.620578 2.81934,-1.045395 4.54297,-1.888672 1.71687,-0.839968 3.80968,-2.147208 6.05859,-4.4375 2.27807,-2.319795 4.60044,-6.416713 5.56836,-8.779297 0.99744,-2.434624 1.26563,-5.396485 1.26563,-5.396484 z M 236.05273,46.318359 c 0,0 -3.21335,0.508432 -4.77929,0.701172 -1.59973,0.1969 -3.02341,0.149378 -4.96289,0.13086 -1.88021,-0.01796 -4.17076,-0.331302 -6.69532,-0.132813 -2.55947,0.201235 -7.95703,1.835938 -7.95703,1.835938 0,0 5.71293,-1.122482 8.08008,-1.308594 2.40208,-0.188859 4.57562,0.287629 6.56641,0.30664 1.93149,0.01844 3.5934,-0.103972 5.25586,-0.308593 1.69625,-0.208778 4.49218,-1.22461 4.49218,-1.22461 z m 87.67774,2.738282 c 0,0 -1.90032,0.32573 -3.00781,0.77539 -1.1075,0.449681 -2.41512,1.036387 -3.27539,1.654297 -1.63377,1.173226 -3.43749,2.702426 -4.36329,4.681641 -0.48617,1.039363 -0.66325,2.600549 -0.74609,3.93164 -0.0828,1.331111 0.41211,2.947266 0.41211,2.947266 0,0 0.20446,-1.60687 0.28516,-2.904297 0.0807,-1.297427 0.28733,-2.834768 0.68164,-3.677734 0.83516,-1.785444 2.54256,-3.263988 4.13867,-4.410156 0.75446,-0.541796 2.04274,-1.133215 3.12891,-1.574219 1.08598,-0.441024 2.74609,-1.423828 2.74609,-1.423828 z M 202.48633,77.554688 c -1.15746,0.02329 -2.37099,0.120044 -3.69141,0.28125 -3.52102,0.429872 -7.98309,1.804801 -10.77784,3.313257 -2.78155,1.501282 -4.86228,3.309931 -6.45357,4.986894 -1.48638,1.566413 -3.17723,4.233092 -3.49477,4.764365 -3.66082,2.71393 -5.28734,5.349542 -6.92018,8.064955 -1.16978,1.945391 -2.13313,5.040611 -2.3845,6.862531 -2.06602,1.83098 -2.93969,3.33736 -3.929,5.09764 -0.7468,1.32892 -1.43864,3.56662 -2.02287,5.34187 -0.55918,0.78631 -0.86057,1.64827 -1.32044,2.4368 -0.98713,1.69262 -1.32034,3.81617 -1.76909,5.80747 -0.27393,1.21553 -0.54136,2.38827 -0.50113,3.0533 -0.92897,1.92802 -1.54368,3.51525 -2.08972,5.37639 -0.82668,2.81748 -1.29246,8.52958 -1.36467,9.20759 -0.50753,0.71087 -0.98772,1.21931 -1.41406,1.92786 -2.98735,4.96468 -4.39666,9.9564 -5.07101,14.38534 -0.5139,3.37536 -0.27133,9.81554 -0.0533,12.56741 -0.7158,3.95197 -1.34737,7.48078 -2.18222,12.43006 -1.31018,7.76752 -4.11731,28.22771 -4.11731,28.22771 -0.10969,0.9594 -0.21131,3.03586 -0.33537,4.84556 -0.29232,4.2578 0.92895,9.71935 1.74792,13.69362 -0.0507,0.58011 -0.0905,1.15123 -0.11133,1.71094 -0.17794,4.78601 0.12916,7.98129 0.83354,10.49067 0.54279,1.93382 2.26902,3.31055 2.96919,4.08941 0.59072,1.98201 1.33135,3.54402 1.84766,4.72656 0.77018,1.76402 1.87555,3.36984 2.11328,3.71094 -0.0386,0.58399 -0.0779,1.16978 -0.0801,1.72265 -0.0157,3.92546 0.97458,6.97196 1.21875,10.52344 0.0945,1.3748 0.0599,2.57892 0.0449,3.81055 -0.10313,0.49347 -0.23641,1.04541 -0.39062,1.48242 -0.35992,1.01999 -0.72483,1.93988 -1.20117,2.53125 -0.47634,0.59137 -1.57119,1.00315 -2.22656,1.10938 -0.6555,0.10623 -2.15279,-0.0758 -3.35547,-0.36719 -1.20268,-0.29143 -2.54493,-0.88086 -2.54493,-0.88086 0,0 1.10146,1.58398 2.23633,2.41601 0.56744,0.41609 1.18635,0.83948 1.77344,1.17579 0.58709,0.33631 1.12964,0.59379 1.625,0.65234 1.50245,0.17759 2.52789,-0.33596 3.26563,-0.90625 -0.55888,2.38076 -1.02861,4.27463 -1.9043,5.43359 -1.12339,1.48679 -2.44675,2.27678 -3.27149,2.65821 -1.24728,0.11303 -2.42578,-0.041 -2.42578,-0.041 0,0 2.71234,1.61593 4.60547,0.75781 1.54385,-0.69979 2.06911,-1.28848 2.88281,-1.98047 l 0.0273,-0.0234 0.0254,-0.0273 c 1.65477,-1.79905 2.5278,-4.96628 3.38281,-7.56445 0.76125,-2.31327 1.10989,-3.6814 1.41167,-6.57404 0.40484,2.13987 0.87327,3.99513 1.37891,5.59067 1.55261,4.89907 6.37424,14.22472 6.37424,14.22473 l 0.003,0.15678 c -0.8461,7.3906 -0.73586,12.95528 0.2879,18.38366 1.02924,5.45763 3.40451,10.42587 5.17886,13.58922 1.76793,3.1519 2.97662,4.32259 4.64838,5.68098 1.67176,1.35838 4.13499,2.96335 4.57998,3.18793 1.37077,2.89222 2.86022,5.46576 3.00872,5.67222 0.047,0.34179 0.0932,0.98882 0.15483,1.44641 0.3497,2.59832 0.46861,4.16186 1.35538,7.06836 0.90347,2.96124 2.97477,7.1987 4.30154,9.80281 1.32505,2.60073 2.09453,4.04957 3.5006,6.00519 1.45974,2.03057 5.56905,6.14993 5.56905,6.14993 0.55346,0.71885 1.6525,2.41086 2.48367,3.42691 1.81479,2.21847 3.23929,3.46695 3.23929,3.46695 0.84944,3.62113 4.52846,13.53945 6.34275,17.54155 2.60011,5.73553 4.94915,7.74222 4.94916,7.74222 h 1.39453 c 0,0 -2.73438,-2.61961 -5.13867,-8.26367 -2.43734,-5.72187 -7.22618,-16.74101 -7.50781,-26.69922 -0.28095,-9.93351 4.56906,-19.22473 7.07226,-31.98242 2.4816,-12.64782 6.89928,-29.20647 8.06641,-43.82031 1.16513,-14.58901 0.88055,-31.41564 -0.47461,-42.75977 -1.35327,-11.32825 -3.76581,-16.81333 -6.1875,-25.1543 -2.28809,-7.88077 -7.08738,-21.77875 -7.74414,-23.67773 1.81429,0.67797 3.62002,1.41923 5.51953,1.72461 2.89934,0.46612 5.53323,0.6043 8.95312,-0.125 2.25285,-0.4804 4.55655,-1.48101 6.20118,-2.9961 -0.13244,2.90731 -0.42246,11.17751 0.30273,17.16797 0.88924,7.34572 4.3925,15.04319 5.19141,23.71289 0.80426,8.72781 0.16959,18.19989 -0.94336,28.68946 -1.10364,10.40183 -5.04195,23.19113 -6.02149,34.1289 -0.97427,10.87884 -0.64024,22.02069 0,31.0293 0.63855,8.98501 1.60547,15.27332 3.91992,22.91797 2.33237,7.70307 7.56216,15.41226 10.41602,21.79492 2.89622,6.4774 5.96906,12.83685 7.05078,16.91016 1.08934,4.10176 0.92578,7.40234 0.92578,7.40234 l 1.3853,-8e-5 c 0,0 0.17308,-3.57819 -0.96484,-7.86311 -1.14553,-4.31336 -4.1447,-10.55275 -7.03066,-17.00721 -2.9281,-6.54943 -7.77434,-14.28223 -10.02595,-21.71879 -2.2693,-7.49476 -3.09785,-13.88246 -3.73699,-22.87565 -0.63746,-8.9696 -0.54548,-19.72034 0.41991,-30.50392 0.96045,-10.72464 5.10919,-23.43516 6.23437,-34.04003 1.11587,-10.51714 1.47505,-20.01393 0.65823,-28.87794 -0.82217,-8.92212 -4.05307,-16.66249 -4.90823,-23.72655 -0.79473,-6.5649 -0.53329,-18.52772 -0.44138,-20.43065 0.98203,-2.9248 0.85867,-5.00459 0.75683,-6.37402 -0.10629,-1.42913 -1.46773,-5.17189 -1.46773,-5.17189 0,0 0.071,3.65165 0.17383,5.03515 0.10268,1.38068 0.21633,2.96448 -0.83789,5.57617 -1.05422,2.61191 -4.33517,4.95423 -8.39454,5.83204 -2.33041,0.48517 -4.71716,0.36644 -7.54296,-0.0879 -2.69366,-0.43283 -5.91899,-2.20623 -9.15039,-2.91601 -3.10181,-0.68127 -5.59211,-1.4338 -9.52539,-1.39258 -3.86718,0.0405 -8.93922,0.16421 -12.21485,1.5957 l -0.006,0.002 -0.008,0.004 c -5.04561,2.35662 -9.37849,6.90359 -11.17578,10.42969 -1.79729,3.5261 -2.4349,6.02677 -3.66211,9.53516 -1.24842,3.5688 -2.30582,8.20924 -3.0293,12.02344 -0.73294,3.86389 -0.81351,7.96876 -1.70312,12.69531 -0.88961,4.72633 -3.69456,11.11854 -4.06641,17.01562 v 0.002 0.004 c -0.10385,1.90867 0.25237,4.11807 0.5957,6.28321 0.34334,2.16493 0.67167,4.28704 0.57227,5.90039 -0.20781,3.37251 -0.94525,5.49766 -1.80664,8.11523 -0.86117,2.61688 -1.82404,5.68638 -3.11328,7.10352 -0.77717,0.65861 -1.14384,1.15333 -2.58203,1.7832 -0.13878,0.0608 -0.30672,0.0756 -0.45704,0.12109 0.78786,-0.36459 1.70155,-0.96234 2.56055,-1.98437 1.16206,-1.38261 1.68662,-3.66549 2.35156,-6.50782 0.1022,-0.55361 0.23957,-1.13068 0.31641,-1.63867 0.48608,-2.60398 0.73952,-5.5011 0.50781,-8.6289 -0.27507,-3.7135 -1.29198,-6.21764 -1.33593,-10.51367 -0.0389,-3.80098 0.75771,-8.64131 1.66015,-12.27149 0.8926,-3.59058 3.33203,-11.43945 3.33203,-11.43945 0,0 -3.08605,7.54594 -4.01172,11.26953 -0.62279,2.50528 -1.24342,5.50018 -1.58593,8.38476 -0.0725,-0.50512 -0.0694,-0.40631 -0.19922,-1.44726 -0.28216,-2.26179 0.0235,-5.21245 0.20312,-6.83594 0.37333,-3.3754 1.59768,-5.59412 3.03711,-9.54101 1.40749,-3.85952 3.87811,-8.96565 5.66602,-13.6875 1.78874,-4.72427 3.04852,-9.55135 4.95508,-14.39649 1.93308,-4.91288 3.78752,-10.58707 6.55273,-14.76562 2.79293,-4.22065 5.76285,-6.94886 9.01758,-9.30274 3.29381,-2.38213 4.47342,-3.29232 9.21875,-4.91797 2.28663,-0.78334 6.16127,-1.47341 9.80469,-2.17382 3.64322,-0.70062 7.64223,-1.16245 10.15234,-2.06641 4.83784,-1.74224 8.05624,-2.67779 10.48633,-5.28125 1.67789,-1.79759 2.389,-3.89602 2.9707,-6.07813 0.0721,1.18849 0.15759,2.77436 0.14258,3.91993 -0.0243,1.85103 -0.33838,4.68006 -0.85742,6.32226 -0.55126,1.74402 -0.95595,2.57899 -2.36914,4.2832 -1.36645,1.64805 -3.8914,3.90928 -5.77344,4.86719 -1.91819,0.9763 -3.70297,1.27796 -5.58398,1.83789 -1.88123,0.55992 -3.01839,1.74597 -4.23829,3.35938 1.54852,-1.13116 3.0182,-2.02838 4.61914,-2.42578 1.60115,-0.3974 3.78373,-0.61288 5.92579,-1.70313 2.178,-1.10865 4.57464,-3.22292 6.09179,-5.05273 1.47041,-1.77343 1.95913,-2.93609 2.53125,-4.7461 0.15492,-0.49015 0.26861,-1.01783 0.35352,-1.5625 0.0911,1.36954 0.18443,2.98094 0.1875,4.03907 0.006,2.13662 -0.0686,4.51152 -0.4043,6.38671 -0.34335,1.91823 -0.98688,4.07815 -1.75976,5.41211 -0.80833,1.39496 -1.37652,1.93953 -2.6211,2.89453 -1.11174,0.85327 -3.26262,1.80456 -4.77148,2.43555 -1.75802,0.73519 -4.01172,3.11719 -4.01172,3.11719 0,0 2.55986,-1.72313 4.2539,-2.37109 1.29753,-0.49639 3.89981,-0.84335 5.32032,-1.9336 1.28766,-0.98828 2.17781,-1.68774 3.04687,-3.1875 0.90426,-1.56055 1.65709,-4.14233 2.01758,-6.15625 0.36814,-2.05673 0.24428,-3.80293 0.23828,-5.90042 -0.005,-1.58579 -0.76609,-4.68506 -1.166,-6.12105 0.10511,-1.2203 0.0156,-2.50267 0.0293,-3.54588 0.0183,-1.40076 -0.40102,-3.59182 -0.75392,-4.82326 0.20744,-0.80924 0.45485,-1.62849 0.68261,-2.44727 0.94809,-3.40798 0.95043,-7.11253 1.77927,-11.01269 0.66318,-3.12067 2.17092,-9.39406 2.93459,-12.18748 1.55617,-2.03346 2.58733,-3.67199 3.08302,-5.91019 0.70494,-3.18306 -0.0102,-6.35759 -0.72951,-8.34376 -0.71928,-1.98617 -1.69249,-3.60322 -2.55661,-5.12986 -0.86412,-1.52664 -2.70506,-2.97072 -2.70506,-2.97072 0,0 0.91062,1.87258 1.75781,3.36914 0.84719,1.49673 1.45375,3.31739 2.11814,5.17869 0.6644,1.86131 1.09408,4.93931 0.4649,7.78029 -0.62251,2.81064 -2.4852,5.16523 -5.00491,8.3711 -2.52184,3.20853 -5.02115,6.70798 -9.81446,9.91992 -4.73841,3.17547 -13.42194,5.98393 -18.17578,7.0918 -4.77745,1.11341 -7.5156,1.29509 -11.55469,2.79688 -4.12408,1.53328 -8.10239,4.91161 -11.90429,8.95507 -3.81853,4.06115 -5.81376,7.56245 -8.99219,13.625 -3.21255,6.12783 -6.44278,15.3064 -9.31445,23.13477 -2.8708,7.82548 -6.58502,17.38242 -7.9668,24.00781 -1.36735,6.55637 -1.76987,10.93913 -1.34961,14.92188 0.0777,0.73597 0.19615,1.41092 0.33008,2.05859 -0.37634,-0.68062 -0.81512,-1.60668 -1.12891,-2.72461 -0.69173,-2.46445 -1.09485,-5.43738 -0.92187,-10.08984 0.17171,-4.6186 1.45884,-10.0378 3.42578,-17.85742 1.96158,-7.7985 5.86458,-21.33963 8.96289,-28.61133 3.12209,-7.32751 5.27066,-10.85902 8.54883,-15.57813 3.21386,-4.62661 10.375,-13.00195 10.375,-13.00195 0,0 -8.07915,7.41852 -11.44336,12.26172 -3.30023,4.7507 -5.5283,8.4211 -8.67578,15.80859 -3.17143,7.44346 -7.05331,20.95684 -9.02735,28.80469 -1.48226,5.89277 -2.59496,10.4526 -3.13086,14.4043 -0.36921,-3.86008 -0.70122,-8.64244 -0.4707,-12 0.44394,-6.46622 2.78863,-13.4769 4.94922,-20.52344 2.15851,-7.03979 4.4499,-14.75961 7.98828,-21.31836 3.57245,-6.62191 7.1778,-12.4447 13.07617,-17.91797 5.86237,-5.43949 14.88231,-10.06157 22.3418,-13.86914 7.36109,-3.75734 15.85225,-5.68883 22.02148,-9 6.14173,-3.2963 14.04493,-10.33398 14.04492,-10.33398 0,0 -8.81618,5.71243 -14.75585,8.90039 -4.77241,2.56119 -11.30764,4.28489 -17.62696,6.87695 -0.2388,0.0666 -9.1203,2.54453 -13.46093,3.88867 -4.34253,1.34469 -9.29665,1.91558 -12.81836,4.25196 -3.47834,2.30733 -5.13188,5.02157 -7.46485,8.51953 -2.39325,3.58817 -5.92969,12.82421 -5.92969,12.82421 0,0 4.23141,-9.01644 6.51172,-12.43554 2.34077,-3.50966 3.91801,-6.09956 7.27149,-8.32422 3.30976,-2.19578 8.2071,-2.79632 12.63672,-4.16797 2.3978,-0.74254 5.93831,-1.75904 8.92773,-2.60742 -0.0462,0.0234 -0.0944,0.0428 -0.14062,0.0664 -7.45971,3.80739 -16.6521,8.33841 -22.73047,13.97851 -6.04237,5.6067 -9.54986,11.59028 -13.14453,18.25391 -3.62893,6.7266 -6.31487,14.5236 -8.47071,21.55468 -0.15642,0.51016 -0.2978,1.0375 -0.45117,1.55274 0.72085,-4.64315 1.49892,-9.66029 2.00195,-12.64258 1.31219,-7.77918 1.72629,-13.53157 3.52149,-19.43945 1.81963,-5.98851 3.58169,-11.32821 6.87695,-15.58203 3.30568,-4.26745 7.73155,-7.28302 12.16016,-9.88477 4.37026,-2.56758 9.14437,-4.40517 13.52343,-5.57812 4.31022,-1.15466 7.53835,-0.87473 12.60352,-1.8125 4.64687,-0.86047 10.68828,-2.97619 15.04102,-4.82032 4.3011,-1.82233 8.80015,-3.62925 11.11914,-5.97851 2.19814,-2.22704 2.51099,-3.67137 2.85547,-5.50391 0.39307,-2.09105 -0.94277,-3.72611 -1.04297,-5.32812 -0.10725,-1.7154 -0.26563,-5.41407 -0.26563,-5.41407 0,0 -0.66713,3.47388 -0.55273,5.30274 0.12146,1.94206 0.88125,3.61782 0.58398,5.19922 -0.34586,1.83991 -0.44209,2.74115 -2.5039,4.83008 -1.94135,1.9665 -6.39183,3.87031 -10.69922,5.69531 -4.25614,1.8032 -10.27497,3.93168 -14.81641,4.74804 -4.91625,0.88398 -7.6954,0.31214 -12.27539,1.53907 -4.51096,1.20843 -10.31822,3.26978 -14.80273,5.90429 -4.42654,2.60053 -8.37042,5.32407 -11.85938,9.82813 -3.49937,4.51731 -5.36699,10.47893 -7.18945,16.47656 -0.55103,1.81346 -0.95523,3.61677 -1.3125,5.43945 0.0688,-2.79261 0.2225,-7.63795 0.70703,-10.82031 0.65807,-4.32207 2.09189,-9.04217 5.00586,-13.88476 2.89857,-4.81716 7.98693,-9.94144 13.14648,-13.33399 5.18323,-3.40788 8.81752,-4.66752 15.94727,-6.82812 3.49877,-1.06037 8.69232,-1.794 13.75,-2.50977 5.05754,-0.71577 9.97236,-1.40879 13.0625,-2.47266 2.99475,-1.0309 4.82617,-1.6321 6.23633,-2.32226 1.41001,-0.69016 2.38269,-1.48315 3.54492,-2.79492 1.25138,-1.4124 2.09664,-3.7441 2.68164,-5.74805 0.58499,-2.00395 0.29297,-5.20508 0.29297,-5.20508 0,0 -0.68554,2.97684 -1.25391,4.92383 -0.56837,1.94699 -1.44557,4.21015 -2.4707,5.36719 -1.11429,1.25766 -1.92953,1.91902 -3.23633,2.55859 -1.3068,0.63958 -3.12159,1.24267 -6.12109,2.27539 -2.90426,0.99988 -7.81847,1.71211 -12.875,2.42774 -5.05668,0.71563 -10.26279,1.44053 -13.90039,2.54297 -7.14344,2.16471 -10.93816,3.48683 -16.20704,6.95117 -3.86852,2.54354 -7.6575,5.99801 -10.59375,9.62109 0.13367,-1.18015 0.53519,-4.55088 1.20508,-6.83398 0.84522,-2.88085 1.25162,-5.10072 3.63867,-8.33008 2.39382,-3.23824 6.72666,-7.5406 11.45704,-9.86524 4.66641,-2.29309 10.5713,-1.96614 16.61914,-3.40039 5.92327,-1.40455 13.81267,-3.02451 18.93945,-5.09961 5.02508,-2.0338 9.20363,-3.64085 11.61914,-6.48242 2.4689,-2.904276 2.79688,-9.861326 2.79687,-9.861326 0,0 -1.65642,6.667132 -3.71093,9.083985 -2.10791,2.479711 -6.12628,4.112451 -11.15625,6.148441 -4.92867,1.9947 -12.81042,3.63305 -18.76367,5.04492 -5.8291,1.38237 -11.81708,1.0055 -16.87305,3.49023 -4.99242,2.45341 -9.3918,6.84558 -11.89258,10.22852 -0.37495,0.50721 -0.69173,0.98983 -0.98437,1.46094 0.0877,-0.30652 0.17328,-0.6264 0.25,-0.9668 0.43862,-1.94636 1.11946,-4.28983 1.99609,-5.79297 1.83922,-3.15368 4.29842,-6.32148 8.4707,-8.60938 4.0507,-2.22093 10.6843,-1.71527 16.41797,-3.48046 2.83955,-0.87427 6.86646,-2.50096 10.30078,-3.96289 3.43453,-1.46214 7.14561,-3.520139 7.54492,-3.835942 -0.58366,0.235141 -4.46602,1.746792 -7.88671,3.203122 -3.42089,1.45633 -7.49427,2.79096 -10.25391,3.64063 -5.46449,1.68246 -12.1121,1.0958 -16.60352,3.55859 -2.35742,1.29276 -4.18759,2.86652 -5.67968,4.54688 0.52923,-0.96291 1.10936,-2.02238 1.45898,-2.64453 1.22647,-2.18248 2.01794,-3.70126 4.82617,-5.86133 2.71025,-2.08455 8.10353,-3.50842 13.10156,-5.32422 2.4276,-0.881923 5.59212,-1.647394 8.63282,-2.466798 3.0405,-0.819404 5.95391,-1.680791 7.97461,-2.855469 3.97714,-2.312121 6.46679,-6.74414 6.46679,-6.744141 0,0 -3.40288,3.573119 -7.07031,5.705079 -1.80169,1.047363 -4.66469,1.922742 -7.68359,2.736328 -3.01911,0.813585 -6.19883,1.576393 -8.73047,2.496093 -4.92026,1.787478 -10.33053,3.124288 -13.42188,5.501958 -0.23208,0.1785 -0.43073,0.34767 -0.63867,0.51953 0.6201,-1.7241 1.53088,-4.06657 2.46094,-5.613284 1.6502,-2.744307 3.58132,-5.053496 7.49023,-7.859375 3.91027,-2.806726 10.26251,-6.420593 16.22266,-7.552735 2.9074,-0.552237 7.48266,-0.689989 11.49219,-0.380859 4.33334,0.334102 7.5332,0.9375 7.5332,0.9375 0,0 -3.16994,-1.170886 -7.21289,-1.605469 -2.02147,-0.217291 -4.23075,-0.402343 -6.33398,-0.457031 -0.52586,-0.01367 -1.04464,-0.01985 -1.55274,-0.01563 -1.5243,0.01272 -2.94879,0.113555 -4.15039,0.341797 -5.80407,1.102494 -11.66335,4.333906 -15.69531,7.095703 0.70475,-1.075996 1.64115,-2.422453 2.47265,-3.298828 1.57591,-1.660766 3.24304,-3.26042 5.94141,-4.716797 2.68506,-1.449203 7.05039,-2.864697 10.32031,-3.408203 3.21982,-0.535171 9.12891,-0.441406 9.12891,-0.441406 -1.84967,-0.405512 -3.62168,-0.570077 -5.55078,-0.53125 z M 223.73242,96.9375 c 0,0 -0.49401,2.941633 -0.68164,4.48633 -0.18767,1.54469 -0.62206,3.41554 -1.51953,4.6914 -1.82775,2.59852 -6.01061,4.82957 -10.07617,6.38086 -1.98389,0.75702 -4.49091,1.04811 -6.98633,1.28321 -2.49542,0.2351 -4.97743,0.41482 -6.96094,1.00586 -3.91901,1.16779 -8.99023,4.35351 -8.99023,4.35351 0,0 5.41027,-2.55747 9.18945,-3.68359 1.86566,-0.55592 4.32367,-0.74452 6.82813,-0.98047 2.50438,-0.23595 5.05805,-0.51909 7.16796,-1.32422 4.12212,-1.57291 8.39675,-3.78423 10.4004,-6.63281 1.01816,-1.44762 1.44792,-3.40572 1.64257,-5.00781 0.19466,-1.602199 -0.0137,-4.57227 -0.0137,-4.57227 z m 4.08789,41.39258 c -0.81549,2.23983 -2.25453,6.29465 -2.90625,9.36133 -0.8656,4.07292 -0.76562,7.91001 -1.64258,11.0625 -0.92575,3.32844 -1.22639,5.92077 -3.40234,8.25195 -2.18642,2.3424 -4.81104,3.04813 -9.68359,4.80273 -2.3452,0.84457 -5.9962,1.56553 -9.63672,2.26563 -3.64073,0.7001 -7.18669,1.21272 -9.63281,2.05078 -4.72057,1.61716 -6.07795,2.05973 -9.44922,4.49805 -3.41056,2.46636 -7.19116,6.4362 -10.06641,10.78125 -2.90296,4.38671 -4.75692,10.12674 -6.66992,14.98828 -1.93975,4.92928 -3.20222,9.7654 -4.96094,14.41015 -1.75955,4.64717 -4.22487,9.74061 -5.66992,13.70313 -1.41311,3.87493 -2.46709,6.3963 -2.86523,9.99805 -0.20628,1.86488 -0.19479,4.40418 0.0918,6.70117 0.0969,0.77697 0.24074,1.17031 0.37305,1.72851 -0.35732,-0.4814 -0.80676,-1.17785 -1.19727,-2.07226 -0.84137,-1.92705 -1.75454,-4.07288 -2.15429,-7.86133 -0.40226,-3.81221 0.0706,-8.43777 1.42578,-14.93555 1.34069,-6.42839 5.04294,-15.99554 7.91992,-23.83789 2.87592,-7.83945 6.11323,-17.00715 9.25,-22.99023 3.17089,-6.04835 5.07809,-9.39796 8.80469,-13.36133 3.74287,-3.98086 7.6307,-7.23341 11.44726,-8.65234 3.90192,-1.45079 6.56312,-1.62432 11.41016,-2.75391 4.87065,-1.13513 13.54701,-3.89535 18.57031,-7.26172 4.96877,-3.32971 7.59263,-6.99835 10.08984,-10.17578 0.19159,-0.24376 0.36649,-0.46417 0.55469,-0.70117 z m -5.26758,15.20508 c 0,0 -2.59373,2.50528 -5.98242,4.29101 -1.67131,0.88073 -4.54456,1.69262 -7.41601,2.51953 -2.87156,0.82691 -6.08511,1.60653 -8.10352,2.33203 -3.97352,1.4285 -5.80732,2.00103 -8.50586,3.47266 -2.73776,1.49302 -7.0039,5.44922 -7.0039,5.44922 0,0 4.67765,-3.42053 7.26953,-4.83399 2.63098,-1.43473 4.75673,-1.99478 8.74804,-3.42968 1.96411,-0.70609 4.90777,-1.4867 7.78907,-2.31641 2.88118,-0.82971 5.69628,-1.70231 7.48046,-2.64258 3.52253,-1.85626 5.72461,-4.84179 5.72461,-4.84179 z m -31.36914,41.75 c 3.81944,-0.04 6.36327,0.63867 9.4668,1.32031 0.38628,0.0848 0.76931,0.18791 1.15039,0.30078 0.39941,1.17778 5.56871,16.43017 7.88672,24.41406 2.43315,8.3804 4.30599,13.39124 5.64844,24.62891 1.34055,11.22179 1.79269,28.69085 0.63476,43.18945 -1.15593,14.47377 -4.39013,31.00008 -6.8789,43.68555 -2.46739,12.57538 -7.38617,21.90674 -7.09375,32.24609 0.0275,0.97365 0.13099,1.9568 0.23437,2.93946 -0.83412,-2.12286 -1.91363,-4.98546 -2.47461,-7.27735 -0.88969,-3.63466 -1.1879,-5.47518 -1.03125,-9.77148 0.25483,-6.98917 2.97425,-20.09147 4.81641,-29.98633 1.83474,-9.85499 4.67575,-19.29126 5.84765,-29.07422 1.17035,-9.76446 1.5104,-20.26926 1.17188,-29.27344 -0.33863,-9.00709 -1.50908,-17.56711 -2.8457,-24.59765 -1.34193,-7.05865 -5.01953,-17.4668 -5.01953,-17.4668 0,0 3.00619,10.62365 4.33203,17.59766 1.33113,7.0017 2.49504,15.52891 2.83203,24.49218 0.33709,8.96618 -8.3e-4,19.44267 -1.16602,29.16407 -1.16251,9.7029 -3.99606,19.1277 -5.83984,29.03125 -1.83636,9.86368 -4.96751,23.43931 -5.18164,30.27929 -0.16905,5.4001 0.2994,6.63911 1.16797,10.1875 0.78626,3.21231 3.23135,8.74169 3.90625,10.25391 0.0477,0.26078 0.0812,0.52315 0.13281,0.7832 -0.49812,-0.45786 -1.14674,-1.11451 -1.90625,-2.04297 -1.72,-2.10239 -5.0731,-6.99442 -6.70703,-10.32421 -1.66924,-3.40194 -2.55783,-5.53408 -3.3711,-9.63868 -0.39031,-1.97028 -1.05476,-4.90312 -1.1582,-8.12109 -0.10344,-3.21796 -0.10156,-8.03125 -0.10156,-8.03125 0,0 -0.80955,4.98565 -0.70508,8.22656 0.10418,3.24105 0.25927,5.99609 0.69141,8.17774 0.81786,4.12764 1.763,6.45311 3.39453,9.79101 -1.31975,-1.84472 -1.95873,-3.17942 -3.27539,-5.76367 -1.3286,-2.6077 -3.55502,-7.05792 -4.38477,-9.77734 -0.84645,-2.77435 -0.79811,-4.35382 -1.1582,-7.0293 -0.35454,-2.63433 -0.46039,-5.78004 -0.54688,-8.53906 -0.088,-2.80751 -0.0911,-3.90596 0.29297,-8.31055 0.38181,-4.37812 0.92443,-10.74181 2.11524,-17.61133 1.18604,-6.84186 3.4684,-15.80234 4.77929,-22.83789 1.3039,-6.9969 2.45274,-12.93117 3.13477,-19.17383 0.67781,-6.20385 1.62658,-12.24055 0.90625,-18.02734 -0.72034,-5.78679 -2.66102,-10.20104 -3.66406,-16.03125 -1.00305,-5.83021 -2.13412,-8.26067 -2.5,-10.94727 -0.37387,-2.74558 -0.58203,-5.94921 -0.58203,-5.94922 0,0 -0.28918,3.23946 0.10351,6.12305 0.40071,2.94241 1.21655,6.02848 2.0293,10.74805 0.85897,4.98792 2.8124,11.4736 3.41992,16.0332 0.60752,4.55968 -0.32514,11.69738 -1.00391,17.91016 -0.67454,6.17397 -1.81625,12.07614 -3.12109,19.07812 -1.29764,6.96354 -3.58191,15.92156 -4.7832,22.85157 -1.19653,6.90234 -2.15933,14.02887 -2.54688,18.47265 -0.38524,4.41753 -0.38506,5.2326 -0.29687,8.04688 0.0375,1.19754 0.15961,2.50806 0.28906,3.80273 -0.56399,-1.1526 -1.24872,-2.60544 -1.88477,-4.11523 -1.33515,-3.16972 -3.03722,-6.99456 -3.71289,-11.69532 -0.67334,-4.68446 -0.47398,-10.33085 0.0879,-16.54492 0.55491,-6.13729 2.08504,-14.9617 2.83594,-20.50781 0.74669,-5.51497 1.10742,-12.52734 1.10742,-12.52734 0,0 -1.40403,7.03389 -2.14648,12.51757 -0.73824,5.45273 -2.52442,14.125 -3.0918,20.4004 -0.56045,6.19864 -1.20803,11.99029 -0.49804,16.92968 0.67599,4.70427 2.39502,8.43917 3.69531,11.48828 -0.95461,-0.55541 -2.08311,-1.26717 -2.81836,-1.92578 -1.55269,-1.39084 -2.5867,-2.29957 -4.30078,-5.35547 -1.70767,-3.04424 -3.77682,-7.96494 -4.77539,-13.25976 -1.00368,-5.32207 -1.32924,-11.06517 -0.49414,-18.35352 0.41027,-3.58053 1.77758,-8.24345 3.17382,-12.77929 1.39645,-4.53605 2.8204,-8.94076 3.33399,-12.15625 1.00235,-6.27601 0.8506,-7.48876 0.75781,-12.29493 -0.0936,-4.85162 -0.64375,-11.94888 -1.68359,-16.72851 -1.04788,-4.81675 -3.26092,-8.3151 -3.92188,-11.51563 -0.69786,-3.37895 -1.0475,-4.48866 -0.6582,-8.24804 0.18315,-1.76875 1.1985,-5.28027 2.16797,-8.27735 0.96947,-2.99688 1.88867,-5.51953 1.88867,-5.51953 l -0.0117,-0.004 c 2.18562,-2.60759 5.03255,-4.93074 8.20899,-6.41602 2.81882,-1.22974 7.8158,-1.24253 11.69921,-1.2832 z m -22.42578,11.36328 c -0.17635,0.52613 -0.31592,0.91511 -0.50195,1.49023 -0.97723,3.02107 -2.00729,6.48127 -2.21875,8.52344 -0.39993,3.86225 -0.0171,5.26042 0.67578,8.61523 0.72975,3.53365 2.92814,6.94153 3.92578,11.52735 1.00567,4.62253 1.56394,11.71368 1.65625,16.49609 0.0932,4.82827 0.25167,5.84723 -0.74414,12.08203 -0.48549,3.03982 -1.89772,7.44668 -3.29687,11.99219 -0.17081,0.55483 -0.33515,1.11274 -0.50391,1.66992 -0.47902,-1.04964 -1.20823,-2.7483 -1.52734,-4.1289 -0.5046,-2.18342 -0.7083,-2.89404 -0.65821,-7.76368 0.0247,-2.39669 0.51366,-6.28648 1.03516,-10.27929 0.5215,-3.99301 1.07487,-8.0953 1.21875,-10.9961 0.28506,-5.74707 0.41433,-9.30207 -0.0859,-13.16992 -0.50574,-3.90814 -2.15194,-6.85323 -2.5039,-9.76367 -0.25885,-2.14044 -0.0492,-6.07065 0.082,-8.05078 1.1286,-3.19254 2.02613,-5.46824 3.23633,-7.87696 0.0631,-0.12277 0.14429,-0.24436 0.21093,-0.36718 z m -4.31054,10.88281 c -0.0766,1.70401 -0.11199,3.85849 0.0859,5.49609 0.37566,3.10636 2.01762,6.01155 2.50391,9.76954 0.49153,3.79829 0.36709,7.30148 0.082,13.04492 -0.14109,2.84435 -0.69116,6.94686 -1.21289,10.9414 -0.52173,3.99475 -1.0174,7.87796 -1.04297,10.36133 -0.0503,4.89089 0.17462,5.75267 0.67774,7.92969 0.45306,1.96042 1.59328,4.35447 1.90234,4.98633 -0.89269,2.99653 -1.68315,5.94538 -2.13867,8.58007 -0.86945,-1.79811 -4.23824,-8.85022 -5.54102,-12.96093 -0.80936,-2.55396 -1.709,-6.62813 -2.37109,-9.85352 -0.11648,-0.96905 -0.27082,-1.96515 -0.42969,-2.96679 -0.34293,-2.16258 -0.67579,-4.32217 -0.58398,-6.0254 v -0.002 c 6e-5,-10e-4 -6e-5,-0.003 0,-0.004 0.3528,-5.5701 3.12563,-11.96128 4.41406,-18.44921 l 0.002,-0.008 0.002,-0.01 c 0.54897,-3.28705 0.6271,-7.36315 1.33398,-11.08985 0.58069,-3.06125 1.38868,-6.63994 2.31641,-9.74023 z m 12.62109,8.375 c 0,0 2.59771,11.68172 3.16016,16.07422 0.56845,4.43918 0.35621,6.92766 0.41406,10.5625 0.0573,3.60181 0.26562,11.09961 0.26562,11.09961 0,0 0.49149,-7.47402 0.4336,-11.10938 -0.0573,-3.60214 0.15532,-6.14871 -0.41992,-10.64258 -0.58143,-4.54054 -3.85352,-15.98437 -3.85352,-15.98437 z m 23.10937,2.42773 c 0,0 0.57258,4.51524 0.89063,7.6504 0.31955,3.14979 0.40678,6.57805 0.35352,11.35546 -0.0537,4.79207 0.01,8.44401 -0.94336,16.60938 -0.9522,8.15386 -3.85641,24.60523 -6.01172,32.12695 -2.17306,7.58294 -3.45316,9.60578 -4.31446,13.76953 -0.85429,4.13013 -0.73102,7.3023 -0.89062,10.6211 -0.16164,3.36095 0.23047,9.46093 0.23047,9.46093 0,0 0.30931,-6.11341 0.46875,-9.42773 0.16142,-3.35667 0.21763,-6.52294 1.05468,-10.57031 0.83022,-4.01374 2.17338,-5.90623 4.42383,-13.6211 2.21344,-7.58711 4.77627,-24.07284 5.73438,-32.27734 0.95672,-8.19299 0.89372,-11.90201 0.94726,-16.68359 0.0537,-4.79624 -0.0925,-8.24456 -0.41601,-11.4336 -0.32502,-3.20367 -1.52735,-7.58008 -1.52735,-7.58008 z m -12.92382,18.10938 c 0,0 0.90212,10.37198 0.90234,13.85937 2.1e-4,3.46561 -1.41503,11.96193 -1.07031,12.01954 0,0 1.76975,-8.36773 1.76953,-12.01954 -2.3e-4,-3.62963 -1.60156,-13.85937 -1.60156,-13.85937 z m -34.19922,27.36719 c -0.0828,0.91765 -0.19966,1.78997 -0.35547,2.61133 -0.19373,0.4021 -0.44207,0.80775 -0.67969,1.01171 -0.7401,0.63527 -1.36487,1.17676 -2.84375,1.00196 -0.29619,-0.035 -0.80844,-0.24886 -1.35937,-0.56446 -0.55094,-0.3156 -1.153,-0.72646 -1.70703,-1.13281 -0.38432,-0.28181 -0.39344,-0.31209 -0.70118,-0.55664 0.29137,0.0778 0.28728,0.0886 0.62305,0.16992 1.22578,0.29703 2.40198,0.55587 3.42187,0.47656 1.02002,-0.0792 2.02269,-0.69383 2.64454,-1.32617 0.40631,-0.41317 0.69911,-1.0253 0.95703,-1.6914 z m 57.85547,71.45312 c 0,0 -0.55267,4.88355 -0.28907,10.72656 0.26358,5.84314 0.73299,12.62814 1.61719,16.58008 1.73846,7.7702 4.59532,14.27017 7.33984,18.92969 2.78663,4.73078 7.76563,8.5 7.76563,8.5 h 0.81445 c 0,0 -4.90517,-4.62609 -7.54492,-9.10742 -2.68173,-4.55272 -5.49672,-10.9482 -7.20508,-18.58399 -0.83921,-3.75087 -1.32733,-10.55356 -1.58984,-16.37304 -0.26251,-5.81961 -0.9082,-10.67188 -0.9082,-10.67188 z m 6.29687,15.39453 c 0,0 1.80787,11.01521 3.45508,16.14453 1.63272,5.08434 3.62298,10.59391 5.92187,14.41797 2.31329,3.84793 7.26954,8.21094 7.26954,8.21094 0,0 -4.44677,-4.87437 -6.66993,-8.57226 -2.2373,-3.72174 -4.22649,-9.20491 -5.85351,-14.27149 -1.61253,-5.02135 -4.12305,-15.92969 -4.12305,-15.92969 z m 9.26953,2.36719 c 0,0 2.42713,11.97248 4.13867,16.69922 1.70132,4.69809 3.35506,8.38024 4.75196,11.19922 1.40461,2.83455 4.16992,5.86719 4.16992,5.86719 0,0 -2.16186,-3.39063 -3.54297,-6.17774 -1.38882,-2.80267 -3.03078,-6.46038 -4.7207,-11.12695 -1.67957,-4.63814 -4.79688,-16.46094 -4.79688,-16.46094 z m -20.0957,8.86523 c 0,0 1.85724,10.28368 3.46289,14.47071 1.58547,4.13429 3.68334,8.11893 5.32031,10.36523 1.64183,2.25296 3.06641,3.27344 3.06641,3.27344 h 0.79492 c 0,0 -1.72795,-1.53531 -3.29492,-3.68555 -1.57182,-2.15677 -3.66925,-6.12188 -5.23438,-10.20312 -1.54482,-4.02874 -4.11523,-14.2207 -4.11523,-14.22071 z" /><path
       id="path95422"
       style="fill:#000000;stroke:none;stroke-width:1px;stroke-linecap:butt;stroke-linejoin:miter;stroke-opacity:1;fill-opacity:0.30000001"
       d="m 331.15604,331.69736 2.02997,11.63851 2.02997,14.48046 1.21798,12.72116 -0.67665,8.39055 -1.75931,7.98455 -3.24796,8.52588 -2.70663,4.46594 -4.19527,-0.13533 3.38329,-4.33061 2.84196,-7.44323 2.43596,-10.14986 0.81199,-11.90916 -1.08265,-20.84104 z m -88.37088,-305.171969 -8.66211,0.40625 -2.97657,0.541015 -6.90234,6.496094 -8.39062,8.119141 -6.36133,5.683593 -6.08985,4.466797 -2.97656,3.923828 -3.6543,5.955079 -4.19531,3.923828 -3.24805,4.601562 v 3.654297 l 0.8125,1.759766 3.78907,-1.625 c 0,0 0.33586,-1.819094 0.94726,-3.248047 0.6114,-1.428954 1.38545,-3.594077 2.97852,-5.142578 1.59307,-1.548502 4.45369,-2.581291 6.49414,-3.517578 2.04045,-0.936288 5.68555,-2.166016 5.68555,-2.166016 l -5.68555,1.083984 -3.24805,0.810547 c 0,0 1.53178,-2.330638 2.57227,-3.382812 1.04049,-1.052174 2.30815,-2.08898 3.65429,-2.841797 1.34615,-0.752817 2.55046,-1.007768 4.33008,-1.625 1.77962,-0.617233 6.36133,-2.029297 6.36133,-2.029297 l -4.73633,0.541015 -3.51953,0.271485 c 0,0 4.86767,-3.750724 6.76758,-5.142578 1.89991,-1.391855 2.68687,-2.196559 4.59961,-3.248047 1.91274,-1.051488 6.90234,-2.841797 6.90234,-2.841797 l -7.17187,1.082031 -5.14258,0.947266 c 0,0 6.96045,-5.893532 10.28516,-8.390625 3.3247,-2.497094 6.74087,-5.190083 9.60742,-6.630859 2.86655,-1.440777 7.17383,-2.435547 7.17383,-2.435547 z m -43.17188,56.568359 -6.49609,1.082031 -5.81836,2.572266 -7.44336,4.058594 -6.63086,5.820312 -3.11328,5.818357 -0.26953,3.24805 3.78906,-2.30078 3.38281,-1.08203 c 0,0 2.75045,-5.4621 5.00781,-7.984378 2.25737,-2.522279 5.56907,-4.896522 8.5254,-6.767578 2.95632,-1.871056 9.0664,-4.464844 9.0664,-4.464844 z m -2.97656,26.79492 -15.69922,2.70703 -10.41992,3.51953 -7.3086,6.35938 -4.05859,7.03711 -2.57227,8.66211 -0.13476,3.24805 4.73633,-5.14258 c 0,0 1.0789,-2.85773 2.30078,-5.14258 1.22188,-2.28485 3.14193,-6.09361 5.27734,-8.39063 2.13541,-2.29698 4.32634,-3.70047 7.17383,-5.27929 2.84749,-1.57882 6.42797,-2.65702 9.87891,-3.92383 3.4509,-1.26681 10.82617,-3.6543 10.82617,-3.6543 z m -18.81055,15.96875 -10.15039,5.2793 -10.01562,9.20117 -3.92383,5.41406 -4.06055,12.72071 v 12.17968 l 1.50391,-4.8125 -3.12696,19.02344 -2.11914,16.00977 -1.26367,3.88281 -1.75976,14.75195 1.89453,10.82617 0.44336,-2.0664 -0.44336,3.14844 -0.13477,5.95507 1.75781,7.3086 1.96485,1.22851 0.20117,1.74805 2.70703,5.95508 c 0,0 -1.65295,-5.18317 -1.75976,-10.01563 -0.10681,-4.83238 1.46501,-11.8738 3.11328,-18.67578 1.64827,-6.8019 4.25617,-13.53394 7.17187,-21.78711 2.9157,-8.25317 11.36719,-30.04297 11.36719,-30.04297 l -8.52539,16.10352 -5.81836,15.96875 -5.14258,13.66797 -2.97851,11.23242 -1.08204,9.33789 0.50977,4.43945 -0.23828,-1.1914 c 0,0 -1.05809,-4.91538 -1.08399,-7.98438 -0.0259,-3.06892 0.50739,-5.11462 1.21875,-10.28515 0.71144,-5.17061 3.24805,-20.70508 3.24805,-20.70508 l -5.27148,19.05859 c 0.0248,-2.52982 0.17294,-7.19738 0.9414,-11.48047 1.10497,-6.15857 4.26111,-15.49045 6.76563,-23.14062 2.50452,-7.65017 8.25586,-22.73633 8.25586,-22.73633 l -6.36133,9.20312 -4.96484,11.96876 c 0.10442,-1.2661 0.7983,-9.35465 1.98828,-14.67579 1.2895,-5.76609 3.00293,-13.58983 6.08984,-19.21679 3.08691,-5.62701 11.77344,-14.07422 11.77344,-14.07422 l -7.84961,5.00586 -6.08985,7.84961 -4.70507,12.18359 1.86328,-5.95898 c 0,0 2.00611,-7.87319 4.06055,-11.63672 2.05438,-3.76359 4.91885,-7.15163 8.2539,-10.55664 3.33505,-3.40507 11.77539,-9.60938 11.77539,-9.60938 z m 18.67578,13.56836 -12.04492,3.21289 c 0,0 -6.29323,1.96359 -6.69922,2.03125 -0.406,0.0677 -6.42773,1.96094 -6.42773,1.96094 l -3.6543,2.36914 -5.21094,7.10547 -4.12695,8.1875 -1.35351,2.97656 c 0,0 4.8134,-8.17986 7.57812,-11.36719 2.76472,-3.1873 4.82293,-5.27329 8.25586,-7.03711 3.43293,-1.76379 10.28516,-2.03125 10.28516,-2.03125 z m 30.17774,53.15039 -2.0293,2.70703 -5.27734,3.24805 -7.71485,0.40625 -8.66015,-2.57227 -13.80469,-2.02929 -9.20313,0.94726 -8.93164,6.08985 -5.41211,10.82617 -4.06054,14.07422 -1.48828,12.17968 -3.24805,11.23243 -0.0996,0.91211 -0.67383,2.32031 -0.28711,7.17773 0.9961,5.75196 0.4707,4.0039 c 0,0 0.11956,-0.428 0.13672,-0.49218 l 0.11914,0.6875 2.77539,10.52734 3.92383,7.36914 1.42578,2.26172 -0.94727,5.00976 1.24414,14.25977 4.97461,13.68359 4.68946,5.07227 c 0,0 -3.57224,-7.43579 -4.88086,-12.82422 -1.30862,-5.38843 -2.31468,-12.68586 -2.19922,-19.42578 0.11546,-6.73992 2.27742,-15.9061 3.06054,-20.66992 0.78314,-4.76384 1.22245,-5.37687 1.43555,-7.94141 C 173.22676,264.8046 172.91797,260 172.91797,260 l -1.33985,7.56055 -4.59179,15.50195 -0.68164,3.60938 c -0.0349,-0.0787 -2.13772,-4.8272 -3.33789,-9.44727 -1.04286,-4.01449 -2.56137,-10.22589 -2.27735,-14.24023 0.28402,-4.01435 2.06634,-7.06074 3.33203,-11.26758 1.33469,-4.43592 1.96046,-12.66349 2.97657,-17.05274 1.01611,-4.38914 1.89742,-6.40479 2.70703,-9.33789 0.80961,-2.9331 0.6176,-5.80767 2.16601,-8.2539 1.54852,-2.44634 3.94688,-4.20189 6.66993,-6.44922 2.72622,-2.25008 6.51335,-4.50731 10.40429,-4.92774 -0.60446,2.30164 -0.82342,6.10218 -0.73242,7.88086 0.13449,2.62795 0.98047,5.66016 0.98047,5.66016 l 3.6543,17.32226 1.62304,6.63282 -0.54101,14.20898 -2.8418,18.81055 -5.41406,25.57812 -2.70508,18.54102 -0.54102,9.8789 2.70704,16.23829 c 0,0 -0.0745,-14.71891 0.67382,-23.41211 0.58452,-6.79028 1.17458,-12.58126 2.57422,-20.02735 1.39964,-7.44601 4.69194,-17.99184 6.35938,-25.30664 1.66743,-7.31482 2.43554,-19.21875 2.43554,-19.21875 0,0 1.46182,-14.00109 0.94727,-20.70508 -0.51456,-6.70391 -3.04649,-13.04904 -3.24805,-18.67578 -0.16345,-4.56275 0.5346,-11.6028 0.81446,-14.20312 2.23957,0.3313 3.3088,0.61814 6.01953,0.19531 1.23681,-0.19291 2.70404,-1.72405 3.50781,-1.56641 l 5.08594,14.89844 5.14258,21.2461 2.57226,28.14843 -0.8125,23.00781 -2.70703,16.7793 c 0,0 4.11056,-8.63382 5.82031,-16.7793 1.70975,-8.14537 2.57578,-20.01343 2.57031,-32.07421 -0.005,-12.06089 -1.62614,-30.58224 -3.24804,-40.0586 -0.68457,-3.99969 -1.58027,-7.58914 -2.39453,-10.45703 5.85552,1.18623 8.41797,-2.26367 8.41797,-2.26367 l -0.0684,-2.70703 z m -66.29688,28.18945 -4.88086,11.96094 -3.73242,9.76172 -0.38281,7.8457 0.95703,4.01954 1.24414,-7.4629 1.81836,-6.4121 c 0,0 1.70738,-4.9105 2.39258,-7.36914 0.6852,-2.45866 1.30382,-5.30647 1.72265,-7.36719 0.41883,-2.06072 0.86133,-4.97656 0.86133,-4.97657 z m 40.85547,13.62891 0.40625,22.87109 -2.8418,20.70508 -3.51953,17.05274 -4.60156,13.39648 -0.94726,14.88672 -0.26954,12.58594 v 7.71484 l 2.16407,11.9082 6.90234,12.45118 c 0,0 -3.38758,-5.77272 -4.60156,-11.91016 -1.21398,-6.13744 -1.03828,-16.23371 -0.54102,-24.76562 0.49726,-8.53201 2.14167,-17.56529 3.6543,-26.25391 1.51263,-8.68862 4.30559,-17.79192 5.41211,-25.84766 1.10652,-8.05564 1.69025,-14.83172 1.49023,-22.33007 -0.20002,-7.49845 -2.70703,-22.46485 -2.70703,-22.46485 z m 10.28516,100.2793 -0.40625,18.94726 1.21875,17.72852 4.87109,14.20898 5.00781,8.39063 5.27735,6.05078 h 4.46679 c 0,0 -5.29608,-4.01127 -7.58007,-7.26758 -2.28407,-3.25623 -3.57862,-7.15816 -5.27735,-12.45117 -1.69873,-5.29301 -3.30498,-13.81519 -4.33008,-19.35156 -1.02502,-5.53645 -1.49555,-9.42697 -2.03125,-13.80469 -0.53569,-4.37771 -1.21679,-12.45117 -1.21679,-12.45117 z" /></g></svg>
