<?xml version="1.0" encoding="UTF-8" standalone="no"?>
<!-- Created with Inkscape (http://www.inkscape.org/) -->

<svg
   width="400"
   height="400"
   viewBox="0 0 400 400"
   version="1.1"
   id="svg1"
   xml:space="preserve"
   inkscape:version="1.3-alpha (95f74fb, 2023-03-31)"
   sodipodi:docname="FemaleShortOverTheEye.svg"
   xmlns:inkscape="http://www.inkscape.org/namespaces/inkscape"
   xmlns:sodipodi="http://sodipodi.sourceforge.net/DTD/sodipodi-0.dtd"
   xmlns="http://www.w3.org/2000/svg"
   xmlns:svg="http://www.w3.org/2000/svg"><sodipodi:namedview
     id="namedview1"
     pagecolor="#ffffff"
     bordercolor="#666666"
     borderopacity="1.0"
     inkscape:showpageshadow="2"
     inkscape:pageopacity="0.0"
     inkscape:pagecheckerboard="0"
     inkscape:deskcolor="#d1d1d1"
     inkscape:document-units="px"
     inkscape:zoom="1.9625"
     inkscape:cx="200"
     inkscape:cy="200"
     inkscape:window-width="1960"
     inkscape:window-height="998"
     inkscape:window-x="2415"
     inkscape:window-y="233"
     inkscape:window-maximized="0"
     inkscape:current-layer="layer3" /><defs
     id="defs1" /><g
     inkscape:groupmode="layer"
     id="layer3"
     inkscape:label="Hair Back"><path
       id="path79"
       style="fill:#383838;stroke:none;stroke-width:1px;stroke-linecap:butt;stroke-linejoin:miter;stroke-opacity:1;fill-opacity:1"
       d="M 348.23828 56.568359 L 336.16797 70.080078 L 337.60938 104.12891 L 336.88867 150.06836 L 339.23047 150.24805 L 343.01367 150.60938 L 345.17578 148.62695 L 346.79688 145.38477 L 347.1582 139.43945 L 346.61719 133.67383 L 348.59961 128.26953 L 352.38281 122.32422 L 355.26562 115.11914 L 357.06641 107.19141 L 358.32812 95.121094 L 358.86719 86.833984 L 358.14648 76.746094 L 356.88672 67.738281 L 354.54492 61.251953 L 351.48242 57.46875 L 348.23828 56.568359 z M 204.20312 158.4707 L 202.03906 162.03906 L 200.76367 165.47852 L 199.74609 170.82812 L 198.98047 175.54102 L 198.98047 178.72656 L 196.56055 181.5293 L 193.63086 186.11523 L 190.70117 190.82812 L 189.42578 197.07031 L 189.42578 201.5293 L 190.19141 206.49609 L 191.84766 211.08203 L 192.99414 215.28711 L 197.32422 218.72656 C 197.32422 218.72656 203.56619 220.76367 204.20312 220.76367 C 204.84006 220.76367 211.84766 212.73828 211.84766 212.73828 L 216.6875 201.7832 L 217.70703 182.92969 L 217.96094 170.19141 L 216.05078 165.73242 L 210.06445 160.89258 L 204.20312 158.4707 z " /><path
       id="path83"
       style="fill:#000000;fill-opacity:0.3;stroke:none;stroke-width:1px;stroke-linecap:butt;stroke-linejoin:miter;stroke-opacity:1"
       d="M 346.07617 59 L 336.16797 70.080078 L 337.60938 104.12891 L 336.88867 150.06836 L 339.23047 150.24805 L 343.01367 150.60938 L 345.17578 148.62695 L 346.79688 145.38477 L 347.1582 139.43945 L 346.61719 133.67383 L 348.59961 128.26953 C 348.59961 128.26953 349.61791 124.93675 350.31055 122.77539 C 351.00319 120.61403 351.6589 117.91039 352.38281 115.38867 C 353.10671 112.86696 353.82215 110.40506 354.45508 107.19141 C 355.08802 103.97774 355.7519 99.963214 355.98633 96.923828 C 356.22078 93.884442 356.34602 91.669161 356.52539 88.996094 C 356.70476 86.323025 356.53239 85.066466 356.3457 82.150391 C 356.15932 79.234316 355.72257 75.069824 355.08398 72.152344 C 354.44541 69.234864 353.62061 67.484385 352.74219 65.755859 C 351.86378 64.027336 350.84123 62.354672 349.76953 61.341797 C 348.69783 60.328921 346.07617 59 346.07617 59 z M 204.20312 158.4707 L 202.03906 162.03906 L 200.76367 165.47852 L 199.74609 170.82812 L 198.98047 175.54102 L 198.98047 178.72656 L 196.56055 181.5293 L 193.63086 186.11523 L 190.70117 190.82812 L 189.42578 197.07031 L 189.42578 201.5293 L 190.19141 206.49609 L 191.84766 211.08203 L 192.99414 215.28711 L 197.32422 218.72656 C 197.32422 218.72656 203.5662 220.76367 204.20312 220.76367 C 204.84006 220.76367 211.84766 212.73828 211.84766 212.73828 L 216.6875 201.7832 L 217.70703 182.92969 L 217.96094 170.19141 L 216.05078 165.73242 L 210.06445 160.89258 L 204.20312 158.4707 z " /><path
       style="fill:#000000;stroke:none;stroke-width:1px;stroke-linecap:butt;stroke-linejoin:miter;stroke-opacity:1;fill-opacity:0.2"
       d="m 204.20382,158.47134 -2.1656,3.56688 -1.27389,3.43949 -1.01911,5.35032 -0.76433,4.71337 v 3.18471 l -2.42038,2.80255 -2.92994,4.58599 -2.92993,4.71338 -1.27389,6.24203 v 4.4586 l 0.76433,4.96816 1.65605,4.58598 1.1465,4.20382 4.33121,3.43949 c 0,0 6.24204,2.03822 6.87898,2.03822 0.63694,0 7.64331,-8.02548 7.64331,-8.02548 l 4.84077,-10.95541 1.01911,-18.8535 0.25477,-12.73886 -1.91082,-4.4586 -5.98727,-4.84076 z"
       id="path80" /><path
       id="path73"
       style="fill:#000000;fill-opacity:1;stroke:none;stroke-width:1px;stroke-linecap:butt;stroke-linejoin:miter;stroke-opacity:1"
       d="M 347.89844 55.287109 L 348.78906 57.324219 C 348.78906 57.324219 350.07267 57.515005 351.33789 58.726562 C 352.60311 59.938121 354.18708 62.130613 355.28711 65.222656 C 356.38714 68.314699 356.56816 72.564226 356.94336 77.197266 C 357.31856 81.830304 357.5846 87.799609 357.32422 92.994141 C 357.06384 98.188671 356.20225 103.99153 355.41406 108.2793 C 354.62587 112.56705 354.13574 115.24017 352.86719 118.72656 C 351.59864 122.21297 348.85699 126.37934 347.77148 129.04492 C 346.68599 131.7105 346.22366 132.51037 345.98633 134.52148 C 345.749 136.53261 346.5295 138.8877 346.49609 140.89258 C 346.46269 142.89746 346.54961 144.98485 345.85938 146.49609 C 345.16911 148.00735 343.98611 148.99794 342.92969 149.68164 C 341.87327 150.36534 339.87305 150.70117 339.87305 150.70117 L 340.25391 150.82812 C 340.25391 150.82812 342.37063 151.19394 343.69336 150.57422 C 345.01609 149.9545 346.5137 148.6175 347.38867 146.75195 C 348.26364 144.8864 348.13815 141.81645 348.15234 139.74609 C 348.16654 137.67575 347.41012 136.20232 347.64258 134.39453 C 347.87504 132.58674 348.36857 131.78022 349.55469 129.17188 C 350.74081 126.56352 353.68775 122.54899 355.16016 118.98047 C 356.63255 115.41195 357.46527 112.2555 358.34375 107.89844 C 359.22223 103.54136 359.89939 98.104062 360.12695 92.867188 C 360.35451 87.630312 360.20305 81.371864 359.61719 76.560547 C 359.03135 71.74923 358.36815 67.356933 356.94336 64.076172 C 355.51857 60.795411 353.6794 58.305611 351.97461 56.943359 C 350.26982 55.581109 347.89844 55.287109 347.89844 55.287109 z M 346.87891 63.056641 L 344.96875 64.203125 C 344.96875 64.203125 346.81012 65.86331 347.89844 67.642578 C 348.98676 69.421846 350.21789 72.574258 350.95508 75.03125 C 351.69227 77.488242 352.05695 79.80944 352.35742 82.292969 C 352.65789 84.776496 352.86719 91.720703 352.86719 91.720703 C 352.86719 91.720703 353.78359 84.492044 353.63086 82.292969 C 353.47813 80.093894 352.97306 77.097573 352.35742 74.521484 C 351.74178 71.945397 351.07703 69.413833 349.93555 66.878906 C 348.79407 64.343981 346.87891 63.056641 346.87891 63.056641 z M 342.80273 66.625 L 340.89258 67.898438 C 340.89258 67.898438 343.12752 71.560601 343.94922 74.267578 C 344.77092 76.974555 345.02027 81.143737 345.34961 84.076172 C 345.67895 87.008607 345.86856 89.574374 345.98633 91.847656 C 346.10372 94.12094 346.13573 95.731485 346.11523 97.707031 C 346.09469 99.682577 345.85938 103.69336 345.85938 103.69336 C 345.85937 103.69336 346.68984 101.10478 347.00586 99.107422 C 347.32188 97.110069 347.52162 94.402672 347.51562 91.720703 C 347.50955 89.038734 347.15329 86.029705 346.87891 83.056641 C 346.60453 80.083577 346.57742 76.644018 345.85938 73.884766 C 345.14132 71.125512 342.80273 66.625 342.80273 66.625 z M 203.56641 158.34375 C 203.56641 158.34375 201.45346 161.88384 200.63672 164.33203 C 199.81998 166.78022 199.34469 170.50502 198.98047 172.99414 C 198.63218 175.37442 198.37404 178.82227 198.35156 179.12695 C 197.00972 180.81174 195.31562 182.70164 194.01367 184.58594 C 192.67484 186.52362 191.26567 188.39606 190.44531 190.57422 C 189.62495 192.75238 189.3812 195.44853 189.17188 197.45312 C 188.96254 199.45773 188.6929 199.98879 189.04492 202.54688 C 189.39694 205.10495 192.10156 212.48437 192.10156 212.48438 C 192.10156 212.48438 190.26098 205.43778 190.19141 201.7832 C 190.12181 198.12864 190.73226 193.77444 191.7207 190.82812 C 192.70914 187.88182 193.57209 186.86583 195.41406 184.20312 C 197.25603 181.54043 201.60077 178.14233 203.05664 175.16016 C 204.51251 172.17797 204.71289 167.26172 204.71289 167.26172 C 204.71289 167.26172 203.25351 172.30855 202.16602 174.26758 C 201.42535 175.60181 200.6043 176.51097 199.73047 177.49609 C 199.70037 176.75911 199.63993 174.60499 199.87305 172.73828 C 200.15639 170.46937 200.81675 166.63452 201.7832 164.33203 C 202.74965 162.02954 205.22266 158.98047 205.22266 158.98047 L 203.56641 158.34375 z M 201.7832 179.61719 C 201.7832 179.61719 199.51775 183.88039 198.59961 186.49609 C 197.68147 189.11181 196.75769 192.84409 196.43359 195.28711 C 196.10949 197.73013 196.30664 201.01953 196.30664 201.01953 C 196.30664 201.01953 196.90677 198.04763 197.45312 195.54102 C 197.99949 193.03439 198.8685 188.63661 199.61719 185.98633 C 200.36588 183.33605 201.7832 179.61719 201.7832 179.61719 z M 196.43359 184.33203 C 196.43359 184.33203 194.40063 186.41257 193.50391 188.2793 C 192.60719 190.14603 191.87412 193.03086 191.5918 195.54102 C 191.30948 198.05116 191.48505 200.9869 191.84766 203.18555 C 192.21027 205.38418 193.03976 207.04751 193.50391 208.66211 C 193.96806 210.27671 194.41808 211.45806 194.65039 212.86719 C 194.8827 214.27632 194.9043 217.07031 194.9043 217.07031 C 194.9043 217.07031 195.30809 213.62382 195.16016 212.10156 C 195.01223 210.5793 194.54474 209.66004 194.14062 208.02539 C 193.73652 206.39074 193.00062 204.47096 192.73828 202.29297 C 192.47594 200.11498 192.44856 197.34077 192.73828 195.03125 C 193.028 192.72173 193.74344 190.31592 194.39453 188.53516 C 195.04562 186.75438 196.43359 184.33203 196.43359 184.33203 z " /></g><g
     inkscape:groupmode="layer"
     id="layer2"
     inkscape:label="Hair Front"
     style="display:inline"
     sodipodi:insensitive="true"><path
       style="opacity:1;fill:#383838;fill-opacity:1;stroke:none;stroke-width:1px;stroke-linecap:butt;stroke-linejoin:miter;stroke-opacity:1"
       d="m 336.52878,70.350369 3.42294,-1.621391 3.78325,-2.522165 3.06262,-3.603092 1.71147,-3.603091 v -4.323711 l -1.44123,-1.441236 -1.17101,-0.720619 0.72062,-3.513014 -8.37719,-11.619972 -5.13441,-4.684019 -4.32371,-2.612242 -7.56649,-2.882473 -6.30541,-0.180155 -1.53131,0.09008 -0.99085,-4.593942 -1.9817,-3.242782 -5.40464,-3.422938 -5.58479,-1.891623 h -4.05348 l -3.06263,0.450387 -1.80155,-2.792397 -4.23363,-3.0626278 -6.7558,-2.6122416 -12.52074,1.0809276 -13.42152,2.7023189 -12.07036,5.1344059 -12.7009,6.215334 -5.9451,3.062628 -8.19703,5.584792 -10.7192,8.557343 -5.31456,5.044329 -4.14356,4.684019 -4.23363,5.855025 -3.33286,5.764947 -2.88247,6.755797 -2.07178,7.026029 -0.8107,3.242783 c 0,0 1.63791,-3.62352 2.34201,-4.954252 0.7041,-1.330732 1.80155,-3.062628 1.80155,-3.062628 l -1.62139,6.215334 -0.8107,5.494715 0.0901,2.071778 2.34201,-6.215334 2.52216,-6.035179 1.9817,-4.413787 c 0,0 -3.17208,9.170151 -4.50386,13.511594 -1.33178,4.341443 -2.85729,8.784646 -3.51301,12.520745 -0.65572,3.736099 -0.72062,9.728341 -0.72062,9.728341 v 5.04433 c 0,0 2.07576,-4.89184 2.66805,-6.12481 1.36296,-2.837258 2.9298,-5.600777 4.46959,-7.829691 1.53979,-2.228914 2.94137,-4.047344 4.13608,-5.31456 1.19471,-1.267216 1.83134,-3.360186 1.69741,-3.250258 0,0 -3.95595,6.448551 -5.31456,9.368039 -1.35861,2.919488 -2.97255,8.01688 -2.97255,8.01688 l -1.26109,3.87332 -0.3603,5.22448 -0.27024,5.49472 1.08093,-5.13441 2.16186,-6.03518 -0.90078,6.03518 0.8107,5.13441 1.171,5.22448 0.63054,6.30541 0.27024,4.86418 -0.0901,6.03518 0.54046,5.85502 1.53132,4.95425 1.71147,2.7924 1.171,0.99085 -0.63054,-2.34201 -0.18016,-2.52217 0.18016,-3.51301 0.0901,-1.80155 1.26108,2.52217 1.89162,4.41379 2.52217,2.97255 2.52216,2.61224 2.70232,1.89162 2.07178,1.53131 c 0,0 -3.10734,-4.44763 -4.7741,-7.56649 -1.66676,-3.11886 -4.02406,-8.48384 -4.98941,-11.21089 -0.96535,-2.72704 -0.56065,-1.71909 -0.69205,-3.78982 -0.1314,-2.07074 -0.009,-5.90272 0.67888,-8.2946 0.68832,-2.39188 2.62389,-4.43651 4.28196,-5.16911 1.65807,-0.7326 2.77012,-0.55383 4.05348,0 1.28336,0.55383 1.90858,2.03659 2.59818,3.52707 0.68959,1.49048 0.57576,2.61226 1.59371,5.06498 1.01796,2.45272 3.80694,6.65152 5.04432,9.09781 1.23738,2.44629 2.83415,5.36992 2.83415,5.36992 l -0.36031,-2.34201 -0.63054,-5.31456 -0.45039,-5.85502 c 0,0 1.63542,2.60148 2.266,4.95425 0.63059,2.35277 1.51725,5.04433 1.51725,5.04433 l -0.54047,2.7924 0.99085,-0.8107 0.99086,-1.53131 2.61224,-2.97255 0.27023,2.25193 0.45039,3.24278 0.72061,2.97255 0.27024,-3.78325 v -3.69316 l 1.62139,-4.23364 2.88247,-3.69317 1.08093,-1.35116 -0.18016,3.06263 -0.18015,6.12526 0.45039,3.1527 -3.78325,6.12526 -3.9634,6.21533 -2.70232,3.78325 c 0,0 3.86953,-4.00733 6.12525,-6.70747 2.25572,-2.70014 5.12828,-5.76912 6.96363,-7.62888 1.83535,-1.85977 3.93573,-3.3188 3.93573,-3.3188 l -4.59394,7.56649 -4.41379,6.93595 -4.68402,6.12526 -3.78325,4.59394 c 0,0 2.62826,-1.83841 4.50387,-3.34692 1.87561,-1.50851 4.44029,-4.08027 6.48556,-6.30541 2.04527,-2.22515 5.76495,-6.65166 5.76495,-6.65166 l -4.41379,6.7558 -5.22448,6.7558 -5.04433,6.39548 c 0,0 3.3951,-3.04485 5.49472,-4.86417 2.09962,-1.81932 7.1161,-6.03518 7.1161,-6.03518 l 5.58479,-6.12525 9.5482,-10.35889 8.19703,-9.45812 6.30541,-8.01688 9.45812,-11.8902 6.30541,-8.46727 5.49471,-6.935948 -4.23363,8.287108 -7.56649,13.78183 -8.01688,12.43066 -7.29626,8.82758 -5.58479,6.84587 -2.34201,2.61225 2.88247,-2.61225 5.22448,-5.1344 5.67487,-5.9451 6.03518,-7.29626 5.22448,-6.39549 1.89163,-2.43209 -3.87333,6.39549 -5.1344,8.37719 -4.95425,6.84587 -3.6031,5.13441 -2.97255,3.87332 5.22449,-4.50386 14.50244,-18.46585 7.65657,-10.89935 12.43067,-17.92538 3.06263,-4.323712 9.63827,-13.511594 6.03518,-9.728348 5.9451,-3.603092 4.14355,-2.161855 4.50387,-0.270232 3.33286,1.171004 2.25193,1.171005 z"
       id="path53"
       sodipodi:nodetypes="cccccccccccccccccccccccccccccccccccccczccccccczzccszzszcccccccccccccccccccccccccczzzzzzzzzcccczccccccccccccccccccczzccccczzcccczcccccccccccccccccccccccccccccccccccccc" /><path
       id="path44"
       style="fill:#000000;fill-opacity:0.3;stroke:none;stroke-width:1px;stroke-linecap:butt;stroke-linejoin:miter;stroke-opacity:1"
       d="m 291.84766,13.757812 c 0,0 -5.64376,2.024891 -8.1543,3.3125 -2.51054,1.287613 -4.03875,2.396978 -6.87891,4.330079 -2.84012,1.933101 -6.65046,4.571874 -10.0625,7.388671 -3.412,2.816801 -7.57279,6.907675 -9.9375,9.681641 -2.36467,2.773966 -4.83984,7.134766 -4.83984,7.134766 l 3.94922,-4.96875 5.47656,-5.222657 5.0957,-4.332031 8.40821,-6.36914 5.0957,-3.3125 6.11523,-3.310547 6.36915,-3.3125 z m -57.4668,4.257813 -6.30469,2.882813 -7.74805,4.683593 -9.9082,7.025391 -9.36719,8.46875 -8.46679,9.005859 -4.86524,7.748047 -4.14258,9.1875 -2.34179,8.466797 0.7207,-1.080078 1.80078,-3.603516 1.6211,-2.703125 -1.98243,8.107422 -0.35937,5.585938 0.54101,-1.261719 1.80079,-4.865235 2.88281,-6.484374 4.32422,-8.648438 6.125,-10.087891 6.125,-8.287109 c 0,0 4.31497,-4.383156 7.5664,-7.207031 3.25146,-2.823875 8.40239,-6.729917 12.07032,-9.546875 3.6679,-2.816958 9.9082,-7.386719 9.9082,-7.386719 z m 0.17969,9.367187 c 0,0 -2.83886,1.410831 -6.66462,3.423744 -3.82579,2.01291 -10.68487,6.606124 -14.95313,10.449218 -4.26823,3.843094 -8.38142,8.593205 -10.6289,12.25 -2.24748,3.656798 -4.14398,8.107507 -4.14398,8.107507 0,0 2.98228,-4.70113 5.58399,-7.927734 2.60168,-3.226604 6.14377,-7.34147 10.26953,-11.169922 4.12573,-3.828452 11.0937,-9.101145 14.59179,-11.529297 3.49812,-2.428149 5.94532,-3.603515 5.94532,-3.603516 z m 11.04492,2.298829 c -0.50956,0.50955 -5.1245,3.415027 -8.66211,6.625 -3.53761,3.209969 -9.20629,9.190158 -12.10352,12.992187 -2.89719,3.802029 -3.58335,5.326535 -5.73242,9.300781 -2.14907,3.974246 -5.3587,10.39695 -6.8789,14.648438 -1.52024,4.251488 -1.74799,6.18285 -2.67383,10.574219 -0.92584,4.391365 -2.67578,15.794921 -2.67578,15.794922 0,0 3.15608,-12.940998 4.45898,-17.324219 1.3029,-4.383225 1.52916,-5.179146 3.05664,-9.044922 1.52748,-3.865776 4.18948,-10.11886 6.36914,-14.011719 2.17966,-3.892859 3.49763,-5.633107 6.36914,-9.427734 2.87155,-3.794627 7.95383,-9.805683 11.08399,-13.121094 3.13012,-3.315411 7.38867,-7.005859 7.38867,-7.005859 z m 49.57812,0.673828 -13.96289,7.748047 -13.51172,9.546875 -15.40234,13.601562 -7.44726,8.246094 c 0.14634,-0.295712 0.51171,-1.039063 0.51171,-1.039063 l -2.40234,3.13086 -2.40039,2.658203 c 0.26392,-0.514187 0.6582,-1.285156 0.6582,-1.285156 l -2.16211,2.521484 c 0,0 -0.32005,0.620143 -0.51953,1.003906 l -1.37109,1.519531 -7.83789,9.81836 -8.19532,11.61914 -4.14453,9.638668 c 0,0 2.47351,-3.86485 4.50391,-6.8457 2.0304,-2.980818 4.88346,-7.258589 7.74609,-10.990233 1.64111,-2.139256 3.40823,-4.310879 5.2461,-6.488281 -1.1621,2.529759 -2.24593,5.083649 -2.8125,6.939453 -1.61367,5.285593 -2.18335,10.606761 -2.52344,15.132811 -0.34009,4.52612 0.0655,8.94822 0.17969,11.89063 0.11418,2.94234 0.36133,5.76367 0.36133,5.76367 0,0 0.13679,-3.30199 0.17968,-6.30469 0.0429,-3.0027 -0.44658,-7.14889 0,-11.71094 0.44658,-4.56198 1.80142,-10.988354 3.0625,-15.492184 0.52442,-1.872927 2.04803,-5.297108 3.64649,-8.666016 0.64312,-0.74035 1.29246,-1.480294 1.94922,-2.21875 -1.59994,3.775826 -3.46287,8.323912 -4.33399,11.064453 -1.66173,5.227788 -2.64976,10.157337 -3.24219,13.871097 -0.59243,3.71369 -0.55594,5.10318 -0.7207,8.28711 -0.16476,3.18386 -0.18164,10.81054 -0.18164,10.81054 0,0 0.25787,-7.6863 0.54102,-10.99023 0.28315,-3.30393 0.35863,-5.02537 1.08203,-8.82813 0.7234,-3.80269 1.44734,-7.824071 3.60156,-13.87109 1.06759,-2.996794 3.55541,-8.41899 5.79297,-13.128906 2.61139,-2.796269 5.31062,-5.511724 8.43945,-8.759766 4.08087,-4.236274 9.22959,-9.87404 13.69141,-14.052734 4.46175,-4.178694 9.01734,-7.990726 12.97265,-11.078125 3.95538,-3.087399 7.45519,-5.397102 10.62891,-7.566407 3.17372,-2.169298 8.37695,-5.496093 8.37695,-5.496093 z m 39.00391,10.179687 c 0,0 -4.28104,1.349342 -7.38672,2.882813 -3.10568,1.533465 -7.91076,4.465649 -10.99023,6.664062 -3.07953,2.198413 -7.56641,6.306641 -7.56641,6.306641 0,0 4.75411,-3.525203 7.92774,-5.585938 3.17357,-2.060735 8.15475,-4.972517 11.16992,-6.664062 3.01511,-1.691545 6.8457,-3.603516 6.8457,-3.603516 z m -31.34766,9.007813 -10.26953,5.49414 -8.82617,4.955079 -8.82812,6.125 -5.4043,4.503906 -7.83789,7.65625 c 0,0 2.41776,-2.051356 5.22461,-4.234375 2.80679,-2.183019 8.02053,-6.210475 11.71094,-8.736328 1.46537,-1.00299 2.85807,-1.891996 4.24414,-2.771485 -1.68785,1.730463 -3.74055,3.874279 -4.89258,5.236328 -2.13324,2.522127 -3.87198,4.780808 -5.34961,7.132813 -1.47763,2.352005 -3.56641,6.878906 -3.56641,6.878906 0,0 2.61529,-4.239841 4.20313,-6.496094 1.58784,-2.256248 2.88012,-4.145777 5.35156,-7.007812 1.61078,-1.865361 5.10704,-5.387852 7.43555,-7.707031 0.98187,-0.589847 1.98283,-1.20592 2.93359,-1.751954 3.25129,-1.867241 7.01126,-3.823961 9.09766,-4.773437 2.08634,-0.949476 3.24218,-1.261719 3.24218,-1.261719 z m 40.66602,6.5625 c -0.83267,-0.01396 -2.23242,0.964844 -2.23242,0.964843 0,0 1.17564,0.188685 1.52929,0.509766 0.35365,0.321081 0.535,0.592977 0.50977,1.146484 -0.0506,1.109971 -1.40768,3.530673 -2.35547,5.03125 -0.97166,1.538383 -2.15359,3.220344 -2.85351,4.236329 -0.45597,0.661864 -0.83609,1.157523 -1.17383,1.691406 0.79496,-1.50428 2.12267,-4.680075 2.43359,-5.736328 0.44206,-1.501756 0.68511,-1.911814 0.25391,-2.771485 -0.4312,-0.85967 -2.54688,-1.560546 -2.54688,-1.560546 l -1.27343,1.019531 c 0,0 1.48979,0.726316 1.90429,1.320312 0.4145,0.593997 0.55011,0.593973 0.50977,1.962891 -0.045,1.527272 -1.58337,6.224944 -1.74219,6.503906 0.36921,-0.387726 4.06579,-4.247714 5.44141,-5.964844 1.44234,-1.800455 3.20269,-4.159733 3.18554,-5.605468 -0.0172,-1.445738 -0.55246,-2.289915 -1.27343,-2.675782 -0.0901,-0.04823 -0.19746,-0.07026 -0.31641,-0.07227 z m -77.77734,1.544922 c 0,0 -6.44399,9.729112 -9.54883,15.132812 -3.10491,5.403707 -6.74186,12.341884 -9.00781,17.294922 -2.26602,4.953038 -3.54271,8.91697 -4.86329,12.249995 -1.32051,3.33308 -3.0625,7.7461 -3.0625,7.7461 0,0 2.81204,-5.52801 4.32227,-8.82813 1.51023,-3.300069 2.3901,-6.127809 4.68555,-10.988278 2.29538,-4.860462 6.44716,-12.584417 9.36718,-18.015624 2.92009,-5.431214 8.10743,-14.591797 8.10743,-14.591797 z m 47.01953,1.800781 c 0,0 -1.13416,0.358426 -3.42188,1.800781 -2.28772,1.442361 -6.87895,4.853452 -9.91015,7.386719 -3.03126,2.533261 -5.7987,5.153032 -8.28711,7.746094 -2.48847,2.593056 -6.66407,7.748046 -6.66407,7.748046 0,0 4.89227,-4.38434 7.38477,-6.666015 2.4925,-2.281675 4.71923,-4.52506 7.56641,-7.025391 2.84712,-2.500325 7.32201,-6.102147 9.54882,-7.927734 2.22687,-1.825587 3.78321,-3.0625 3.78321,-3.0625 z m 9.1875,3.242187 c 0,0 -7.53517,5.314989 -11.16797,7.927735 -3.63286,2.61274 -7.26143,5.440494 -10.63086,7.746094 -3.36942,2.305594 -9.54688,6.125 -9.54688,6.125 0,-10e-7 8.61744,-4.142323 12.25,-6.484376 3.63263,-2.342048 6.36508,-4.834925 9.54883,-7.386718 3.18381,-2.551799 9.54688,-7.927735 9.54688,-7.927735 z m -12.42969,13.332032 -3.24219,2.521484 c 0,0 -5.55815,8.916465 -8.82812,14.052734 -3.27003,5.136275 -8.02201,12.765641 -10.81055,16.753911 -2.78854,3.98821 -5.58398,7.38671 -5.58398,7.38671 0,0 4.07238,-3.69143 7.02539,-7.38671 2.95295,-3.69534 6.50945,-9.581901 10.08984,-15.132817 3.58039,-5.55091 11.34961,-18.195312 11.34961,-18.195312 z m -112.77734,8.828125 -5.04493,8.466796 -3.42187,7.925778 -1.26172,5.76563 -0.35938,5.58398 0.9004,5.22461 1.26171,7.92774 0.17969,6.8457 v 7.02539 l 1.26172,6.8457 1.62109,3.78321 1.98047,2.52343 -1.08008,-3.0625 0.35938,-3.60351 0.18164,-2.88281 c 0,0 -1.14652,-4.01359 -1.44141,-6.84571 -0.29489,-2.8321 0.1832,-6.78015 0,-10.08789 -0.1832,-3.30772 -0.75176,-6.48561 -1.08203,-9.72851 -0.33027,-3.24292 -1.16659,-6.43594 -0.90039,-9.72852 0.2662,-3.29258 1.60222,-6.84712 2.52149,-9.728514 0.91927,-2.881394 2.88281,-7.566407 2.88281,-7.566407 z m 57.83007,22.519534 -5.58398,4.32226 -4.86523,4.14453 -3.9629,4.14258 -5.76562,6.8457 -3.7832,4.68555 -0.35938,2.16016 1.44141,-1.25977 c 0,0 5.1048,-5.52039 7.92578,-8.28711 2.82098,-2.76669 9.00781,-8.28711 9.00781,-8.28711 l 3.42383,-4.5039 z"
       sodipodi:nodetypes="csssscccccccccccccccccccccccccccccssccssscsssccssssscsssssccccccccccccccccsscssscsssccssscsssccsssccsscsscccccccsscsscsscssccscsssscssccsscsssscccccsccccssscsssccsscsscccssccsccccccccccccccccsssssccccccccccsccc" /><path
       id="path54"
       style="fill:#ffffff;fill-opacity:0.2;stroke:none;stroke-width:1px;stroke-linecap:butt;stroke-linejoin:miter;stroke-opacity:1"
       d="m 268.15234,10.701172 c 0,0 -6.75061,0.381718 -9.42578,1.273437 -2.67516,0.891719 -6.16815,2.234967 -9.17187,4.203125 -3.00373,1.968158 -8.53516,7.644532 -8.53516,7.644532 0,0 5.72449,-4.193647 8.91602,-5.988282 3.19152,-1.794634 7.136,-3.552152 10.1914,-4.71289 3.05541,-1.160738 8.02539,-2.419922 8.02539,-2.419922 z m 7.45899,0.09766 c -0.30956,-0.0018 -0.63055,0.007 -0.96094,0.0293 -2.64308,0.178041 -7.3931,1.258517 -10.82812,2.675781 -3.43503,1.417265 -6.18332,3.271785 -9.55469,5.732422 -3.37138,2.460638 -10.44531,9.171875 -10.44531,9.171875 0,0 7.67745,-6.050983 11.33789,-8.28125 3.66043,-2.230267 7.05356,-3.833247 10.44531,-5.222656 3.39175,-1.38941 7.47845,-2.698609 9.80859,-3.183594 2.33014,-0.484984 3.94922,-0.382812 3.94922,-0.382812 0,0 -1.58503,-0.526726 -3.75195,-0.539063 z m 4.00586,2.705078 c 0,0 -5.07661,0.108589 -7.38867,0.636719 -2.31207,0.52813 -4.02797,1.139247 -6.36914,2.419922 -2.34118,1.280675 -7.38868,5.478516 -7.38868,5.478515 0.63694,-0.382165 5.56716,-3.226573 8.02539,-4.332031 2.45824,-1.105458 4.43566,-1.720754 6.625,-2.419922 2.18935,-0.699167 6.4961,-1.783203 6.4961,-1.783203 z m 17.30469,2.289063 c -0.16502,-0.0055 -0.32799,-0.0035 -0.48829,0.0039 -2.56474,0.118607 -5.80026,1.791481 -8.79101,3.183594 -2.99075,1.392112 -6.20136,3.154538 -9.04297,5.222656 -2.84161,2.068118 -5.54424,4.44321 -7.89844,7.134766 -2.3542,2.691555 -6.11523,8.916015 -6.11523,8.916015 0,0 5.86559,-6.189347 8.53515,-8.662109 2.66957,-2.472763 4.63629,-4.417694 7.38868,-6.242188 2.75238,-1.824493 5.87439,-3.262217 9.04492,-4.585937 3.17052,-1.32372 7.75954,-2.90651 9.93554,-3.310547 2.17601,-0.404037 2.80274,-0.128906 2.80274,-0.128906 0,0 -2.8958,-1.448005 -5.37109,-1.53125 z m -20.0625,3.470703 c -0.79724,0.01 -1.65078,0.06764 -2.3379,0.226562 -1.8323,0.423783 -3.35261,1.242187 -5.85937,2.675782 -2.50676,1.433594 -6.34917,3.806622 -8.91602,6.242187 -2.56684,2.435566 -6.37109,8.152344 -6.37109,8.152344 0,0 5.87724,-4.755132 8.91797,-6.878906 3.04073,-2.123774 6.4496,-4.14527 9.29883,-5.859375 2.84922,-1.714106 7.77148,-4.458985 7.77148,-4.458985 0,0 -1.17518,-0.116238 -2.5039,-0.09961 z m 23.65039,0.482422 c 0,0 -4.51106,0.477714 -7.64258,1.527344 -3.13153,1.049629 -7.4593,2.976605 -10.82813,5.222656 -3.36882,2.246051 -6.304,5.324401 -9.17187,8.154297 -2.86788,2.829895 -8.02735,8.789062 -8.02735,8.789062 0,0 6.00235,-5.648623 9.04493,-8.152344 3.04257,-2.50372 5.91923,-4.747919 9.17187,-6.878906 3.25264,-2.130987 7.38081,-4.458931 10.31836,-5.861328 2.93755,-1.402397 7.13477,-2.800781 7.13477,-2.800781 z m 5.98632,2.292968 c 0,0 -6.25258,-0.02934 -10.31836,1.273438 -4.06577,1.302779 -9.80104,4.205819 -13.375,7.261719 -3.57395,3.0559 -7.89843,10.318359 -7.89843,10.318359 0,0 5.67766,-4.638123 8.4082,-6.498047 2.73054,-1.859924 5.18092,-3.099124 7.89844,-4.71289 2.71751,-1.613767 5.83584,-3.719804 8.40625,-4.96875 2.5704,-1.248947 6.8789,-2.673828 6.8789,-2.673829 z m 11.08399,8.535157 c 0,0 -4.40248,0.851662 -6.625,1.654297 -2.22252,0.802634 -4.50332,1.844665 -6.62305,3.185546 -2.11973,1.340882 -3.93903,2.813881 -5.98828,4.839844 -2.04925,2.025963 -6.11523,7.388672 -6.11523,7.388672 0,0 4.83664,-4.185528 7.13476,-5.986328 2.29812,-1.8008 4.48758,-3.491779 6.62305,-4.841797 2.13547,-1.350018 4.18301,-2.270491 6.11523,-3.310547 1.93222,-1.040056 5.47852,-2.929687 5.47852,-2.929687 z m -17.45313,0.253906 c 0,0 -7.13321,2.431293 -9.80859,4.076172 -2.67538,1.644879 -4.50391,3.279824 -6.24219,5.349609 C 282.33789,42.323691 280,47.132813 280,47.132812 c 0,0 3.10246,-3.950551 5.0957,-5.859374 1.99325,-1.908824 4.3732,-3.725717 6.87891,-5.476563 2.50571,-1.750846 8.15234,-4.96875 8.15234,-4.96875 z m 21.65625,2.419922 c 0,0 -6.57981,0.689333 -9.29882,1.65625 -2.71902,0.966917 -4.56617,2.236913 -6.87891,3.822265 -2.31274,1.585353 -4.54171,3.448294 -6.87891,5.732422 -2.3372,2.284129 -7.00586,8.025391 -7.00586,8.025391 0,0 6.27921,-4.844969 9.04297,-6.878906 2.76376,-2.033937 5.19321,-3.831542 7.51563,-5.351563 2.32241,-1.52002 4.11825,-2.647032 6.37109,-3.820312 2.25284,-1.17328 7.13281,-3.185547 7.13281,-3.185547 z m -2.92968,3.566406 c 0,0 -5.8261,1.610503 -7.89844,3.3125 -2.07234,1.701997 -4.20313,6.242188 -4.20313,6.242188 0,0 3.07133,-3.728912 5.09571,-5.34961 2.02437,-1.620697 7.00586,-4.205078 7.00586,-4.205078 z m 6.24218,1.785156 c 0,0 -4.06596,1.23717 -5.85937,2.164063 -1.79341,0.926893 -3.04867,1.962752 -4.8418,3.3125 -1.79313,1.349748 -4.34357,2.984873 -5.85937,4.841797 -1.51581,1.856924 -3.18555,5.986328 -3.18555,5.986328 0,0 2.30382,-3.159834 3.94922,-4.839844 1.6454,-1.68001 4.02945,-3.570333 5.98828,-5.095703 1.95883,-1.52537 4.08418,-3.030673 5.73242,-4.076172 1.64824,-1.045499 4.07617,-2.292969 4.07617,-2.292969 z m 5.98633,0.253907 c 0,0 -1.78717,0.263901 -3.82031,1.019531 -2.03314,0.75563 -5.79605,2.452623 -8.1543,3.949219 -2.35825,1.496595 -4.00699,3.078601 -5.98633,4.839843 -1.97933,1.761243 -5.85937,5.732422 -5.85937,5.732422 0,0 4.4158,-2.971423 6.49609,-4.458984 2.08029,-1.487562 3.84472,-2.987376 5.98828,-4.457031 2.14357,-1.469656 4.97634,-3.246566 6.87891,-4.332032 1.90257,-1.085466 4.45703,-2.292968 4.45703,-2.292968 z m 0.63867,5.349609 c 0,0 -2.42734,0.766346 -4.07812,1.529297 -1.65078,0.762951 -3.73124,1.958887 -5.73242,3.185547 -2.00119,1.22666 -4.39795,2.767958 -6.24219,4.203125 -1.84424,1.435166 -4.83985,4.332031 -4.83985,4.332031 0,0 3.12051,-2.018395 5.09571,-3.3125 1.9752,-1.294105 4.75061,-3.213674 6.75195,-4.458984 2.00134,-1.245311 3.71732,-2.139746 5.22266,-3.056641 1.50534,-0.916895 3.82226,-2.421875 3.82226,-2.421875 z m 5.22266,7.261719 c 0,0 -7.41223,3.706109 -10.70117,5.605468 -3.28895,1.89936 -6.6909,3.871348 -9.04492,5.732422 -2.35403,1.861075 -5.22266,5.095704 -5.22266,5.095704 0,0 3.3401,-2.537755 5.73242,-4.205079 2.39232,-1.667323 5.45876,-3.689142 8.66211,-5.732421 3.20335,-2.04328 10.57422,-6.496094 10.57422,-6.496094 z m 3.31055,0.509765 c 0,0 -2.89851,1.139519 -4.71289,2.039063 -1.81439,0.899544 -3.90058,1.909789 -6.11524,3.439453 -2.21466,1.529664 -7.00586,5.859375 -7.00586,5.859375 0,0 5.13166,-3.597608 7.26172,-4.96875 2.13006,-1.371142 3.71624,-2.25104 5.47852,-3.3125 1.76227,-1.06146 5.09375,-3.056641 5.09375,-3.056641 z" /><path
       id="path69"
       style="fill:#000000;fill-opacity:0.2;stroke:none;stroke-width:1px;stroke-linecap:butt;stroke-linejoin:miter;stroke-opacity:1"
       d="m 225.13086,22.966797 -2.2793,1.173828 -8.19726,5.583984 -10.71875,8.558594 -5.31446,5.044922 -4.14453,4.683594 -4.23242,5.855469 -3.33398,5.763671 -2.88282,6.75586 -2.07031,7.02539 -0.8125,3.244141 c 0,0 1.63965,-3.624348 2.34375,-4.955078 0.7041,-1.33073 1.80078,-3.0625 1.80078,-3.0625 l -1.62109,6.214844 -0.81055,5.496093 0.0899,2.070313 2.34179,-6.214844 2.52149,-6.035156 1.98242,-4.414063 c 0,0 -3.17213,9.170284 -4.50391,13.511719 -1.33178,4.341435 -2.85795,8.785393 -3.51367,12.521484 -0.65572,3.736093 -0.7207,9.728518 -0.7207,9.728518 v 5.04297 c 0,0 2.07568,-4.89008 2.66797,-6.12305 1.36294,-2.837252 2.93091,-5.601168 4.4707,-7.830078 1.22244,-1.769538 2.32403,-3.185508 3.33789,-4.367188 -1.06742,1.83585 -2.20613,3.854314 -2.81836,5.169922 -1.35861,2.919482 -2.97266,8.017574 -2.97266,8.017574 l -1.26171,3.87305 -0.36133,5.22461 -0.26953,5.49414 1.08007,-5.13476 2.16211,-6.03516 -0.90039,6.03516 0.81055,5.13476 1.17188,5.22461 0.63085,6.30469 0.26954,4.86523 -0.0899,6.03516 0.54102,5.85547 1.53125,4.95312 1.71093,2.79297 1.16993,0.99024 -0.62891,-2.3418 -0.18164,-2.52149 0.18164,-3.51367 0.0898,-1.80078 1.25977,2.52149 1.89258,4.41406 2.52148,2.97265 2.52344,2.61133 2.70117,1.89258 2.07227,1.53125 c 0,0 -3.10668,-4.44755 -4.77344,-7.56641 -1.66676,-3.11884 -4.0249,-8.4839 -4.99023,-11.21093 -0.96535,-2.72704 -0.56001,-1.72029 -0.69141,-3.79102 -0.1314,-2.07074 -0.0102,-5.90109 0.67773,-8.29297 0.68832,-2.39188 2.62514,-4.43732 4.28321,-5.16992 1.65807,-0.7326 2.76937,-0.55383 4.05273,0 1.28336,0.55383 1.90806,2.03688 2.59766,3.52734 0.68959,1.49048 0.5758,2.61174 1.59375,5.06446 1.01796,2.45272 3.80754,6.65138 5.04492,9.09765 1.23738,2.44629 2.83398,5.3711 2.83398,5.3711 l -0.35937,-2.34375 -0.63086,-5.31446 -0.45117,-5.85351 c 0,0 1.63504,2.60037 2.26562,4.95312 0.63059,2.35277 1.51758,5.04493 1.51758,5.04493 l -0.49219,2.53711 5.62696,-10.64454 23.96093,-36.390621 c 0,0 -2.78346,-4.669441 -3.7832,-7.566407 -0.99974,-2.896964 -2.2544,-5.357211 -1.98242,-9.728515 0.27198,-4.371304 5.22461,-15.494141 5.22461,-15.494141 l -3.42188,4.144532 c 0,-10e-7 -2.26161,-0.908905 -2.70312,-4.503907 -0.44151,-3.595 3.24219,-9.36914 3.24219,-9.36914 l -5.4043,4.685547 c 0,-10e-7 -4.02656,-4.178988 -4.86328,-9.369141 -0.83672,-5.190152 3.60156,-13.511719 3.60156,-13.511719 l -7.02539,8.107422 c 0,0 -5.97709,-4.269035 -7.38672,-11.169922 -0.66809,-3.270674 0.15686,-7.507649 1.19922,-11.082031 z m 120.47461,29.771484 -0.89258,1.275391 -5.85937,4.839844 -6.75196,4.332031 -6.75195,4.203125 1.40234,0.253906 2.92969,-0.380859 3.69336,1.273437 3.3125,1.783203 2.80273,-1.529297 3.43946,-2.164062 3.18554,-3.058594 2.29297,-3.439453 0.38086,-3.820312 -1.01758,-2.675782 z m -91.4082,55.535159 -3.60157,2.52148 -8.64843,7.20703 -8.82813,10.44922 -2.43164,3.07617 -0.17969,3.04883 -0.17969,6.125 0.44922,3.15235 -2.76953,4.48437 7.63477,-11.96094 11.16992,-16.57422 z m -26.35157,26.8457 -0.85156,1.07813 -3.54102,4.10546 0.20899,1.75 0.45117,3.24219 0.71875,2.97266 0.27149,-3.7832 v -3.69336 l 1.62109,-4.23438 z m -5.04882,21.40234 -2.46876,3.45508 c 0,0 0.59987,-0.63377 0.83985,-0.88476 z" /><path
       id="path5"
       style="fill:#000000;fill-opacity:0.998217;stroke:none;stroke-width:1px;stroke-linecap:butt;stroke-linejoin:miter;stroke-opacity:1"
       d="m 279.32422,5.2949219 c -1.24767,-0.040084 -2.52425,0.021958 -3.91016,0.054687 -2.77178,0.06546 -5.25595,0.4168596 -8.91797,1.0195312 -3.66199,0.6026716 -7.88338,1.1438938 -12.99218,2.8027344 -5.10883,1.65884 -11.7624,4.961816 -17.32618,7.642578 -5.56375,2.680762 -10.52718,4.866196 -16.05078,8.408203 -5.52357,3.54201 -11.93363,8.402064 -16.81445,12.994141 -4.88082,4.592074 -9.24132,9.436946 -12.48438,14.267578 -3.24303,4.830632 -5.60494,10.132096 -7.13476,14.267578 -1.52982,4.135482 -2.54688,10.191406 -2.54688,10.191406 0,0 1.31591,-5.970421 3.05664,-10.191406 1.74076,-4.220985 4.57045,-10.141856 7.89844,-14.777344 3.32802,-4.635485 6.99538,-8.252842 11.97461,-12.738281 4.97926,-4.485436 12.05347,-9.99902 18.08985,-13.757812 6.03635,-3.758795 12.59493,-6.524418 17.83398,-8.917969 5.23905,-2.393554 7.85322,-3.960091 13.50391,-5.605469 5.65066,-1.6453783 15.71132,-3.2418744 20.38086,-3.5664061 4.66951,-0.3245317 4.9153,-0.3371506 7.38867,0.2539062 2.47337,0.5910568 5.40975,1.969359 7.13476,3.3124999 1.70312,1.326099 3.24758,3.969282 3.28711,4.03711 l -0.35742,0.03906 c 0,0 -5.15397,1.996497 -9.17187,4.332031 -4.01793,2.335537 -10.6004,7.087991 -14.52344,10.191407 -3.92307,3.103413 -6.29624,5.195101 -9.17188,8.152343 -2.87561,2.957242 -8.02539,9.554688 -8.02539,9.554688 0,0 5.83904,-6.172982 9.04492,-9.171875 3.20591,-2.998893 6.27282,-5.792652 10.19141,-8.791016 3.91859,-2.998364 8.96981,-6.59899 13.375,-9.044922 2.02971,-1.126966 4.9062,-2.42177 7.43359,-3.501953 l -0.0449,0.0625 c 0,0 0.26377,-0.143021 0.33985,-0.189453 1.26427,-0.5377 2.33336,-0.975942 3.22851,-1.337891 9.5e-4,-3.82e-4 0.003,3.82e-4 0.004,0 1.75649,-0.360232 4.2712,-0.648702 6.875,0 2.60551,0.64913 6.54918,3.001005 8.15234,4.330079 1.60316,1.329071 1.40135,1.404245 2.03711,2.548828 0.63576,1.14458 1.42428,3.2695 1.5293,4.330078 0.005,0.04847 -0.003,0.08579 0,0.132812 -1.2837,0.743284 -7.66274,4.448612 -11.39258,7.060547 -4.11493,2.881603 -8.03717,6.030334 -12.43164,9.728516 -4.3945,3.698179 -10.06891,9.155475 -13.69141,13.330078 -3.62247,4.174603 -5.38583,7.033834 -8.28711,11.349609 -2.40773,3.581647 -6.34522,10.150531 -7.8457,12.66211 -0.27635,0.294449 -0.80078,0.849609 -0.80078,0.849609 0,0 0.48835,-0.466435 0.68555,-0.65625 -0.25291,0.423592 -1.04688,1.738281 -1.04688,1.738281 0,0 1.07699,-1.529254 1.58789,-2.257812 2.63576,-2.522251 9.94313,-9.435473 14.44727,-12.875 5.51545,-4.211827 12.48954,-8.328588 17.29297,-11.169922 4.4451,-2.629392 10.16235,-5.524808 11.02343,-5.958984 -1.82024,3.028688 -3.78045,6.576582 -5.79882,10.46289 -2.76208,5.318222 -8.64649,18.375 -8.64649,18.375 0,0 6.87768,-12.578605 9.72852,-17.833984 2.85081,-5.255382 5.2605,-10.012227 7.38672,-13.69336 2.12619,-3.68113 5.2246,-8.466796 5.22461,-8.466796 0,0 -3.60827,4.44664 -5.94141,8.02539 -0.32638,0.500633 -0.6616,1.02925 -1,1.572266 -0.27352,0.139555 -7.6005,3.881311 -12.51563,6.796875 -5.00805,2.970698 -11.85733,6.83185 -17.29492,11.169922 -4.10152,3.272186 -10.60219,9.988542 -13.56054,13.103515 2.03721,-2.902695 5.46713,-7.776738 7.79492,-10.941406 3.15669,-4.291612 5.56673,-7.985595 9.1875,-12.070312 3.62074,-4.08472 8.01678,-8.302137 12.61132,-12.251954 4.59457,-3.949817 10.57889,-8.490786 14.95313,-11.349609 2.90826,-1.900722 6.66256,-3.900741 8.94922,-5.082031 1.25413,-0.07467 6.09952,-0.335168 8.80859,0.289062 3.07287,0.708055 5.83001,2.146743 8.40625,3.822266 0.32466,0.211146 0.61921,0.439952 0.92774,0.660156 -0.32641,0.140073 -7.55304,3.245854 -11.23828,5.355469 -3.76971,2.157956 -11.16993,7.566406 -11.16993,7.566406 0,0 7.50563,-4.460784 11.71094,-6.486328 3.41747,-1.646059 9.9483,-4.206018 12.3711,-5.144531 1.45586,1.217167 2.81721,2.567919 4.27734,4.162109 2.28654,2.496472 5.36971,6.803082 6.625,8.917969 1.75501,2.469646 1.72269,3.388645 0.2539,5.732422 -1.09115,1.896908 -3.89688,3.737842 -7.89648,6.496094 -3.9996,2.758249 -10.27909,6.281269 -15.0332,9.044921 -4.75415,2.763654 -8.91729,5.135414 -13.50196,7.515625 -4.58464,2.380214 -8.32682,4.714082 -11.46484,6.242188 -2.89974,1.412071 -6.23661,2.808283 -6.77148,3.03125 2.7503,-3.291588 6.6679,-7.884951 9.34179,-10.507813 4.34787,-4.264853 8.66654,-7.881454 13.51172,-11.349609 4.84521,-3.468155 10.98194,-7.013212 15.49219,-9.367188 4.51022,-2.353973 11.34961,-5.044921 11.34961,-5.044921 0,0 -8.81034,2.034605 -13.69141,4.324218 -4.88104,2.289616 -10.50579,6.254144 -15.13281,9.728516 -4.62702,3.474372 -8.5713,6.667695 -12.61133,10.990234 -4.04,4.322542 -11.34961,14.951172 -11.34961,14.951172 0,0 1.34715,-1.641159 3.04492,-3.673828 0.30814,-0.09263 3.05962,-0.942946 6.58789,-2.195312 -0.95675,1.371677 -5.21849,7.442377 -10.6582,14.8125 l -0.23437,0.246093 c 0,0 -0.11606,0.221004 -0.125,0.238282 -0.92354,1.248534 -1.82203,2.484084 -2.75782,3.724604 -7.23794,9.59522 -21.0269,27.41274 -29.18554,37.11133 -8.15864,9.69859 -19.27735,21.43946 -19.27735,21.43946 0,0 12.79389,-12.48834 20.71875,-21.61914 7.92489,-9.13083 18.89657,-23.95343 26.30274,-33.50977 0.44671,-0.57641 0.96342,-1.26096 1.43164,-1.86719 -2.64786,5.02954 -6.44291,12.14536 -8.81836,16.09961 -3.81692,6.3538 -7.14158,11.25677 -10.99023,16.57422 -3.84868,5.31748 -12.07032,15.31445 -12.07032,15.31445 0,0 8.34531,-9.04966 12.61133,-14.59375 4.26602,-5.54406 8.42763,-11.60219 12.79102,-18.73632 3.40162,-5.5617 9.3612,-16.87273 11.88086,-21.699223 5.65132,-7.377635 10.77957,-14.106028 11.09179,-14.517578 1.50852,-0.576327 3.02683,-1.188835 4.39649,-1.814453 2.9134,-1.330769 6.61263,-3.246067 10.31445,-5.242188 -1.41696,2.152899 -6.49203,9.84534 -11.01953,16.25 -5.19525,7.349224 -12.09834,17.777242 -18.55664,26.753902 -6.45833,8.97669 -15.44684,21.41 -20.17774,27.11329 -3.35602,4.04582 -5.60394,6.09383 -6.66406,6.98046 0.49878,-0.61922 5.38501,-6.70192 8.82617,-11.66406 3.62412,-5.2259 12.97071,-20.80859 12.97071,-20.80859 0,0 -12.90666,15.76246 -17.47461,20.80859 -4.56798,5.04616 -11.16992,11.34961 -11.16992,11.34961 0,0 8.65818,-7.63445 12.61132,-11.89062 3.95317,-4.2562 11.89063,-14.23243 11.89063,-14.23243 0,0 -6.74851,10.51366 -9.72852,14.95313 -2.9183,4.34757 -7.78152,11.24658 -7.98633,11.53711 -0.4039,0.33578 -0.6621,0.5332 -0.6621,0.5332 0,0 3.78291,-2.13731 8.2871,-7.20703 4.50421,-5.0697 9.66169,-12.17233 16.21485,-21.34766 6.55313,-9.1753 16.4268,-23.89722 22.8789,-32.697261 5.76846,-7.867594 11.9941,-16.416386 13.5293,-18.523438 2.18816,-1.209643 4.51508,-2.482259 6.29688,-3.49414 0.8547,-0.485387 1.5254,-0.902006 2.33398,-1.369141 1.36316,-0.192472 3.12478,-0.372029 4.32227,-0.214844 2.05708,0.270021 5.86627,2.053043 6.32031,2.267578 -0.45222,0.272787 -0.73438,0.435547 -0.73438,0.435547 0,0 5.07279,-1.614891 7.38672,-3.423828 2.31393,-1.808937 5.13952,-4.781232 5.94336,-7.384765 0.80384,-2.603536 0.48807,-5.508913 -0.53906,-6.845704 -0.32734,-0.426022 -0.75776,-0.68922 -1.19141,-0.851562 1.05101,-1.498318 1.1719,-2.627701 0.36328,-4.90625 -0.8927,-2.515578 -4.41433,-7.291015 -7.13476,-10.191406 -2.72043,-2.900391 -5.93931,-5.327724 -8.91602,-7.132813 -2.97668,-1.805089 -5.69022,-3.061342 -8.66406,-3.822265 -2.97384,-0.760926 -8.60643,-0.402335 -8.66211,-0.574219 0,0 -0.63336,-2.786528 -1.27344,-4.011719 -0.64008,-1.225191 -0.96807,-1.801178 -2.80273,-3.3125 -1.83466,-1.511322 -5.7056,-4.069803 -8.66211,-4.839844 -2.95651,-0.770041 -8.4082,0 -8.4082,0 0,0 -1.39757,-2.197212 -3.05664,-3.5683591 -1.6591,-1.3711463 -4.60133,-3.3122752 -7.13477,-4.0761719 -1.26672,-0.3819484 -2.48475,-0.5243697 -3.73242,-0.5644531 z M 254.37891,23.060547 c 0,0 -13.3626,10.062093 -19.09766,15.853515 -5.73506,5.791425 -11.05997,12.712684 -15.13281,19.816407 -4.07287,7.103723 -6.52245,13.779732 -8.82617,21.257812 -2.30375,7.478083 -4.32469,15.937214 -4.86524,22.339839 -0.12448,1.47449 -0.1629,2.86129 -0.15625,4.18946 -0.66578,1.09465 -2.31025,3.86498 -2.77148,5.31445 -0.57778,1.81568 -0.75351,3.45775 -0.72657,5.23828 0.0269,1.78053 0.89063,5.60547 0.89063,5.60547 0,0 -0.37352,-3.93879 -0.25391,-5.73242 0.11961,-1.79363 0.29953,-3.17395 0.84766,-4.69922 0.41462,-1.15376 1.53313,-3.03771 2.05664,-3.89258 0.14589,3.63654 0.61915,6.77258 0.83398,9.65039 0.32501,4.35368 1.08008,10.44922 1.08008,10.44922 0,0 -0.2347,-6.03596 -0.35937,-10.26953 -0.12467,-4.23357 -1.06415,-8.84065 -0.35938,-15.13281 0.70477,-6.292179 2.55607,-15.136478 5.04297,-22.519533 2.4869,-7.383058 5.34325,-14.386587 9.36914,-21.257813 4.02592,-6.871223 9.62653,-13.826401 14.95117,-19.818359 5.32467,-5.991959 17.47657,-16.392578 17.47657,-16.392578 z m 46.11914,4.683594 c 0,0 -13.57311,6.224639 -20.89844,10.808593 -7.32533,4.583957 -15.90339,10.824414 -22.69922,16.935547 -6.79583,6.111133 -13.03129,13.657571 -18.01562,19.455078 -4.98436,5.79751 -8.69995,10.300005 -12.07032,15.134766 -3.37034,4.834761 -6.60239,9.720696 -8.28711,13.691405 -1.68469,3.97072 -2.52148,9.54688 -2.52148,9.54688 0,0 1.52251,-4.89198 3.42187,-8.64649 1.89939,-3.75448 4.73394,-8.326147 8.46875,-13.511717 0.36821,-0.511231 0.80933,-1.068808 1.20508,-1.597656 -0.94288,2.136993 -2.03231,4.81898 -2.73242,7.253906 -1.45097,5.046397 -2.73654,12.931267 -3.3125,19.109377 -0.57596,6.17807 -0.41784,13.07452 -0.25391,17.83398 0.0345,1.00104 0.0729,1.907 0.11329,2.78516 -0.93927,1.71141 -1.78827,3.29123 -2.40625,4.51758 -2.05742,4.08278 -2.70313,6.125 -2.70313,6.125 0,0 2.96379,-3.35433 5.38672,-6.53907 0.007,0.0737 0.0127,0.14602 0.0195,0.21875 -1.57328,2.13277 -2.83008,3.84766 -2.83008,3.84766 0,0 1.67282,-2.07395 2.85938,-3.54883 0.11854,1.20198 0.25583,2.32477 0.45117,3.29492 0.5295,2.62983 1.65625,5.09571 1.65625,5.09571 0,0 -0.11428,-0.6885 -0.19922,-1.19531 0.004,-1.18782 0.0441,-4.67828 0.40234,-6.62305 0.31033,-1.68467 1.19287,-4.18197 1.66797,-5.4668 1.10523,-1.3491 2.1817,-2.66185 3.19532,-3.86914 -0.13011,1.27563 -0.42267,4.36402 -0.35938,5.95899 0.0582,1.4658 0.44686,3.67511 0.6582,4.79296 -1.60238,2.56573 -3.00326,4.82358 -4.4414,7.27735 -2.1982,3.75055 -6.30469,10.26758 -6.30469,10.26758 0,0 4.7861,-6.0705 7.20703,-9.72852 2.42093,-3.65802 4.24053,-6.42781 7.56641,-11.70898 3.32585,-5.2812 9.38936,-14.58354 12.60937,-19.81641 3.22004,-5.2329 5.7836,-8.37384 7.56641,-11.53125 1.78281,-3.15741 6.5625,-11.138673 6.5625,-11.138672 0,0 -11.64956,9.172102 -16.4707,14.382812 -4.82117,5.21071 -9.43522,9.33704 -13.69141,15.94336 -4.2562,6.60632 -10.80859,15.40234 -10.80859,15.40234 0,0 6.56646,-11.62083 9.9082,-16.93359 3.34174,-5.31279 6.51724,-9.87566 10.08789,-14.95313 3.57065,-5.07744 8.23415,-11.165012 11.34961,-15.494136 3.11546,-4.329127 4.25967,-6.400186 7.38672,-10.449219 3.12702,-4.049033 11.52929,-13.691406 11.52929,-13.691406 -0.72058,0.360306 -8.43088,8.18135 -12.79101,13.332031 -4.36016,5.150681 -8.60318,11.20489 -13.15039,17.6543 -2.40578,3.41213 -5.06141,7.28019 -7.63477,11.13867 -0.01,-1.32445 -0.0251,-7.75615 0.63867,-11.83203 0.73889,-4.536777 2.35479,-9.836617 4.07618,-14.64844 1.72136,-4.811823 3.63501,-9.001591 6.24218,-14.140625 1.77015,-3.489133 5.42928,-9.679641 7.66797,-13.419922 1.23732,-1.215745 2.49364,-2.414884 3.78321,-3.576172 6.43411,-5.794105 14.2262,-11.61399 21.07812,-16.214843 6.85192,-4.600856 19.81641,-11.529297 19.81641,-11.529297 z M 206.87891,40 c 0,0 -7.44969,8.005949 -10.57227,12.611328 -3.12258,4.605382 -5.77538,9.812356 -8.02734,14.904297 -2.16456,4.894245 -5.15791,14.518395 -5.39258,15.275391 0.0312,-0.229106 0.42523,-3.131794 0.67969,-4.765625 0.26457,-1.698777 0.5911,-3.716386 0.89257,-5.28711 0.30147,-1.570721 0.89063,-4.138672 0.89063,-4.138672 0,0 -0.96706,2.756845 -1.33594,4.330079 -0.36888,1.573231 -0.63879,3.426883 -0.82812,5.095703 -0.18133,1.598252 -0.30411,4.560612 -0.31446,4.814453 -0.006,0.02047 -0.0684,0.216797 -0.0684,0.216797 0,0 0.0612,-0.161872 0.0664,-0.175782 -1.3e-4,0.0034 -0.002,0.04883 -0.002,0.04883 0,0 0.009,-0.06428 0.01,-0.06641 0.21047,-0.560138 3.78157,-10.045963 6.16797,-14.964843 2.45825,-5.066969 5.54417,-10.511051 8.53516,-15.160157 C 200.57107,48.089178 206.87891,40 206.87891,40 Z m 139.32812,13.794922 c 0.41833,0.161418 0.85025,0.405267 1.13086,0.791016 0.69764,0.959026 1.14784,2.310793 0.54102,4.503906 -0.60682,2.193113 -3.52918,5.255169 -5.58594,7.207031 -1.5247,1.44694 -4.34385,3.218603 -5.70508,4.041016 -0.58718,-0.494597 -3.89876,-3.21647 -6.00391,-3.5 -0.7599,-0.102351 -1.73986,0.05846 -2.71289,0.318359 3.78048,-2.223412 7.21008,-4.322388 9.96289,-6.263672 3.76418,-2.654479 6.79335,-5.295664 8.37305,-7.097656 z m -124.61719,0.07227 c 0,0 -11.30671,8.878464 -14.95312,12.970703 -3.64641,4.092239 -7.38477,10.808593 -7.38477,10.808593 0,0 4.95603,-6.621465 8.64649,-10.628906 3.69043,-4.007441 13.6914,-13.150391 13.6914,-13.15039 z m 25.40235,0 c 0,0 -6.574,5.093086 -8.82813,7.205078 -2.25413,2.111992 -2.99776,2.931781 -4.86328,5.224609 -1.86552,2.292828 -3.49112,4.252255 -6.125,8.646484 -2.63388,4.394232 -7.13926,12.704518 -9.00781,18.015625 -1.86855,5.31111 -2.88281,13.332036 -2.88281,13.332036 0,0 2.38407,-9.002158 4.5039,-14.232426 2.11983,-5.230268 5.40625,-12.044582 8.4668,-16.933594 3.06055,-4.889012 6.38986,-8.903135 9.54883,-12.431641 3.15894,-3.528503 9.1875,-8.826172 9.1875,-8.826171 z m -13.23438,4.349609 c 0,0 -8.51426,10.637043 -11.46484,16.050781 -2.95058,5.413741 -4.74675,10.507163 -6.36914,16.050781 -1.62239,5.543621 -3.3125,17.070311 -3.3125,17.070311 0,0 2.2734,-11.149452 4.07617,-16.687498 1.80277,-5.538049 3.91291,-10.987999 6.75195,-16.433594 2.83907,-5.445592 10.31836,-16.050781 10.31836,-16.050781 z m 18.86328,4.076172 c -1.80932,2.932272 -4.42808,7.272038 -5.86914,10.191406 -2.27959,4.618178 -4.24904,9.584356 -5.85937,14.394531 -1.61033,4.810175 -3.25784,9.88793 -3.82227,14.394534 -0.51299,4.09591 -0.0101,10.66892 0.0898,11.88476 -2.27802,3.41663 -4.49329,6.82573 -6.38282,9.88672 -2.56618,4.1572 -5.1305,8.58451 -7.23046,12.36524 -0.0446,-0.72581 -0.0857,-1.4706 -0.10743,-2.28907 -0.12506,-4.7226 0.1007,-11.55655 0.76367,-17.70703 0.66301,-6.15044 1.7284,-13.68479 3.3125,-19.107419 0.9125,-3.123546 2.57371,-6.934939 3.86915,-9.734375 3.20489,-4.052018 6.94993,-8.423533 10.74218,-12.708985 3.29214,-3.720277 6.77619,-7.697158 10.49414,-11.570312 z m -36.06054,0.892578 c 0,0 -7.4269,10.580809 -10.06446,15.158203 -2.63753,4.577394 -4.45443,7.593639 -5.98632,12.101562 -1.53192,4.507926 -2.92969,14.777348 -2.92969,14.777348 0,0 2.23977,-10.070372 3.94922,-14.521488 1.70945,-4.451119 3.6246,-7.504204 6.11328,-12.101563 2.48868,-4.597356 8.91797,-15.414062 8.91797,-15.414062 z m -21.01953,1.146484 c 0,0 -6.09024,10.092585 -8.15235,14.521485 -2.06211,4.428897 -3.34387,7.996568 -4.58594,11.847656 -0.7908,2.452003 -1.19455,4.960368 -1.63281,7.367187 -0.59227,3.252531 -0.15039,9.255861 -0.15039,9.255861 0,0 0.0795,-5.79374 0.57813,-8.712892 0.43001,-2.517444 1.41374,-6.146399 2.0957,-8.166016 1.31387,-3.891033 2.6346,-7.350156 4.58594,-11.71875 1.95131,-4.368591 7.26172,-14.394531 7.26172,-14.394531 z m 86.75195,18.214844 c 0,0 -9.94934,16.549337 -15.79688,25.478515 -5.84752,8.92918 -13.46415,19.66313 -19.36328,28.02539 -5.89911,8.36226 -11.73589,16.23329 -15.97461,22.1836 -4.23871,5.95028 -9.50195,13.48632 -9.50195,13.48632 0,0 5.35632,-6.00546 9.74219,-11.57226 4.38585,-5.56682 10.39229,-14.0523 16.24414,-22.0586 5.85183,-8.00628 13.05146,-16.71822 18.85351,-25.98828 5.80207,-9.27006 15.79688,-29.554685 15.79688,-29.554685 z m -87.77149,1.019531 c 0,0 -4.96034,7.117504 -6.62304,10.701172 -1.6627,3.583671 -2.74378,6.848642 -3.43946,10.572262 -0.69565,3.72365 -0.63671,11.59375 -0.63671,11.59375 0,0 0.43635,-7.66388 1.27343,-11.33789 0.83708,-3.67398 2.13106,-6.970897 3.69336,-10.574216 1.5623,-3.603316 5.73242,-10.955078 5.73242,-10.955078 z m 0.0625,5.013672 c -1.77369,2.240371 -5.20609,8.435169 -5.9746,10.603516 -0.76855,2.168356 -2.40104,7.226046 -2.62305,10.751956 -0.22201,3.52588 0.72161,6.73085 1.14648,10.06445 0.42487,3.3336 1.0609,6.15365 1.40235,9.93555 0.34145,3.78187 -0.11273,9.19919 0.50976,12.74023 0.62249,3.54104 1.5804,6.56058 2.67578,8.40625 1.09538,1.84567 2.80078,2.93164 2.80078,2.93164 0,0 -0.70136,-1.75418 -0.89062,-3.3125 -0.18926,-1.55832 0.12695,-5.98828 0.12695,-5.98828 0,0 1.64118,4.29769 3.18555,6.36914 1.54437,2.07145 4.43885,4.49573 6.11328,5.73242 1.67443,1.23669 3.56836,2.03907 3.56836,2.03907 0,0 -2.16006,-1.53239 -3.66602,-2.91407 -1.50593,-1.38167 -3.64625,-3.00887 -5.3789,-5.36523 -1.73265,-2.35636 -4.20508,-9.04492 -4.20508,-9.04492 0,0 -0.73681,6.03993 -0.63672,7.76953 0.10009,1.7296 0.50977,2.54883 0.50977,2.54883 0,0 -0.72621,-0.64824 -1.40039,-2.16602 -0.67418,-1.51778 -1.38798,-3.5205 -1.91211,-7.13476 -0.52413,-3.61429 -0.079,-10.61348 -0.38086,-14.52149 -0.30187,-3.90801 -0.72291,-5.79673 -1.14649,-8.91797 -0.42358,-3.12124 -1.53741,-6.45567 -1.40234,-9.80859 0.13507,-3.35295 1.01609,-6.47853 2.25586,-9.972658 1.23977,-3.49412 5.32226,-10.746094 5.32226,-10.746094 z m 11.02149,6.324219 c 0,0 -4.38608,9.347293 -5.98828,14.650393 -1.6022,5.30307 -2.84591,12.65431 -3.43946,17.07031 -0.59355,4.416 -0.63671,9.29883 -0.63671,9.29883 0,0 0.66437,-5.28121 1.40234,-9.68164 0.73797,-4.40046 1.97217,-11.19706 3.43945,-16.4336 1.46728,-5.23651 5.22266,-14.904293 5.22266,-14.904293 z m 52.52539,6.060543 c 0,0 -1.75337,2.84168 -3.35742,5.38282 -1.64475,1.24438 -9.87554,7.52796 -12.99024,11.10546 -3.45068,3.96347 -5.31479,6.31469 -8.91601,10.69922 -2.14142,2.6072 -6.00016,7.77256 -8.89844,11.69141 -0.008,-0.0637 -0.0157,-0.12709 -0.0234,-0.19141 2.36702,-3.17229 4.81545,-6.47014 8.63477,-12.19336 4.00979,-6.00866 9.33036,-10.99504 13.42187,-15.49218 4.09155,-4.49717 12.12891,-11.00196 12.12891,-11.00196 z m -44.5,5.4043 c 0,0 -0.83918,6.91516 -0.95508,10.63672 -0.1159,3.72156 -0.10833,7.80019 0.31836,11.65625 0.42669,3.85606 1.45187,8.38272 2.22852,11.40234 0.77665,3.01965 2.16601,6.75 2.16601,6.75 0,0 -0.0634,-0.25433 -0.0703,-0.28125 -0.0609,-0.35645 -0.68993,-4.07449 -0.90039,-6.70508 -0.22094,-2.76149 -0.6522,-7.36563 -0.75,-10.13085 -0.0978,-2.76525 -0.12695,-11.73633 -0.12695,-11.73633 0,0 -0.54186,8.50645 -0.38086,12.10351 0.161,3.59709 0.55749,6.72684 0.875,9.38086 0.28913,2.41682 1.09938,6.25149 1.24804,6.94727 -0.15647,-0.60806 -0.97875,-3.81585 -1.55078,-6.64649 -0.62794,-3.10728 -1.58273,-7.72053 -1.97461,-11.59375 -0.39188,-3.87319 -0.36835,-7.95969 -0.38281,-11.59179 -0.0145,-3.63213 0.25586,-10.19141 0.25586,-10.19141 z m 4.83984,2.54883 c 0,0 -0.81008,8.94016 -0.69922,13.75781 0.11086,4.81768 0.44815,11.87315 0.69922,14.58594 0.25107,2.71278 0.55086,3.92111 0.95508,5.98633 0,0 -0.19633,-2.80114 -0.38086,-6.62305 -0.18454,-3.82192 -0.38618,-9.83013 -0.50976,-14.45898 -0.12358,-4.62888 -0.0645,-13.24805 -0.0645,-13.24805 z m -6.17773,0.57226 c 0,0 -1.33282,4.11659 -1.84766,6.56055 -0.51484,2.44396 -0.99217,5.43718 -1.14648,8.08984 -0.15431,2.65269 0.1914,7.76954 0.1914,7.76954 0,0 0.0479,-5.13227 0.31836,-7.83399 0.2705,-2.70172 0.91993,-5.91327 1.33789,-8.34375 0.41796,-2.43048 1.14649,-6.24219 1.14649,-6.24219 z m 40.0332,0.59766 c -1.62011,2.31358 -3.72421,5.1299 -6.23437,9.17383 -2.77016,4.46272 -8.00601,12.2326 -11.41992,17.5918 -0.0285,-0.90707 -0.055,-2.10205 -0.0215,-2.83985 0.0575,-1.26545 0.0847,-1.91282 0.38086,-3.56836 0.18859,-1.05403 0.76325,-3.23723 1.16992,-4.74609 2.28239,-2.64507 4.38393,-5.06219 6.72852,-7.35547 2.50492,-2.45013 7.03241,-6.2803 9.39648,-8.25586 z m -0.28906,7.91406 c 0,0 -10.38852,16.27436 -13.69336,21.4375 -3.30484,5.16315 -4.14129,7.02716 -6.30469,10.44922 -2.1634,3.42207 -4.52065,6.88174 -6.66601,10.08789 -2.14537,3.20616 -5.94532,8.28711 -5.94532,8.28711 0,0 4.08778,-4.18674 6.84571,-7.74609 2.75792,-3.55936 6.18622,-9.09718 9.18945,-13.8711 3.00323,-4.77391 6.24932,-9.81464 9.00781,-14.59375 2.7585,-4.7791 7.56641,-14.05078 7.56641,-14.05078 z m -16.84375,8.85938 c -0.26704,1.22328 -0.69579,3.25546 -0.79883,4.2207 -0.1505,1.40979 -0.10969,2.02606 -0.0625,3.18555 0.0283,0.69472 0.15491,1.85929 0.25586,2.71875 -0.35888,0.5642 -0.79807,1.23384 -1.10742,1.73242 -0.6031,0.972 -0.9716,1.55936 -1.48438,2.38086 0.0889,-1.2226 0.22972,-3.16358 0.29688,-4.28516 0.0928,-1.55013 0.18002,-1.73456 0.38281,-4.13867 0.11267,-1.33568 0.39235,-2.68499 0.6211,-3.63476 0.65081,-0.74305 1.28853,-1.47549 1.89648,-2.17969 z m -2.9043,3.34179 c -0.0926,0.79452 -0.19824,1.77313 -0.25,2.53516 -0.088,1.2958 -0.10441,2.54814 -0.1289,4.14063 -0.0184,1.19657 -0.01,3.21848 -0.004,4.36523 -0.38178,0.61151 -0.7714,1.23859 -1.11523,1.78906 -0.0803,-1.1216 -0.20798,-3.18012 -0.18164,-4.71679 0.0288,-1.68351 0.35834,-5.19875 0.51171,-6.75782 0.42973,-0.50716 0.79757,-0.92945 1.16797,-1.35547 z m -6.34765,7.625 c -0.33284,0.81953 -0.79053,2.10525 -0.97266,3.36719 -0.22094,1.53092 -0.0182,4.98627 0.10352,6.69727 -0.18917,-1.15993 -0.4217,-2.65648 -0.61329,-4.19922 -0.13128,-1.0572 -0.28904,-2.23432 -0.44531,-3.48633 0.76955,-0.95344 1.02581,-1.2715 1.92774,-2.37891 z" /></g></svg>
