<?xml version="1.0" encoding="UTF-8" standalone="no"?>
<!-- Created with Inkscape (http://www.inkscape.org/) -->

<svg
   width="400"
   height="400"
   viewBox="0 0 400 400"
   version="1.1"
   id="svg40474"
   xml:space="preserve"
   inkscape:version="1.3.2 (091e20e, 2023-11-25)"
   sodipodi:docname="FemaleHairMidLengthStraight.svg"
   xmlns:inkscape="http://www.inkscape.org/namespaces/inkscape"
   xmlns:sodipodi="http://sodipodi.sourceforge.net/DTD/sodipodi-0.dtd"
   xmlns="http://www.w3.org/2000/svg"
   xmlns:svg="http://www.w3.org/2000/svg"><sodipodi:namedview
     id="namedview40476"
     pagecolor="#ffffff"
     bordercolor="#666666"
     borderopacity="1.0"
     inkscape:showpageshadow="2"
     inkscape:pageopacity="0.0"
     inkscape:pagecheckerboard="0"
     inkscape:deskcolor="#d1d1d1"
     inkscape:document-units="px"
     showgrid="false"
     inkscape:zoom="7.3114841"
     inkscape:cx="208.9863"
     inkscape:cy="244.61518"
     inkscape:window-width="1984"
     inkscape:window-height="1254"
     inkscape:window-x="2345"
     inkscape:window-y="67"
     inkscape:window-maximized="0"
     inkscape:current-layer="layer5" /><defs
     id="defs40471" /><g
     inkscape:groupmode="layer"
     id="layer5"
     inkscape:label="Hair Back"
     style="display:inline"><path
       id="path44677"
       style="fill:#383838;fill-opacity:1;stroke:none;stroke-width:1px;stroke-linecap:butt;stroke-linejoin:miter;stroke-opacity:1"
       d="m 286.26758,14.219208 -9.67188,3.480468 -5.02929,1.162109 -6.18946,-0.386719 -9.67187,2.320313 -7.34961,6.189453 -6.18945,6.189454 -7.73633,0.773438 -8.125,2.322265 -3.86719,6.576172 -8.125,3.480469 -11.99219,10.832031 -9.2832,14.314452 -3.48242,12.378906 -2.70703,17.408201 -6.18946,14.31251 -8.51172,23.21093 -4.64257,17.40821 -7.34961,22.4375 -6.21913,18.15722 -0.74376,7.76075 -3.48243,8.89843 c 0,0 -1.85748,1.67302 -2.70703,4.64258 -0.84955,2.96956 -0.38672,13.15234 -0.38672,13.15234 l -0.77343,13.92579 2.70703,13.15234 8.89844,11.60547 23.21093,16.63476 18.18164,5.41602 66.15039,3.0957 63.05665,3.48047 3.09374,-9.66992 -1.93359,-11.21875 -1.93359,-6.96289 5.41601,7.34961 1.75782,1.99219 c 1.28234,2.07118 2.60492,4.23895 3.26953,5.45507 1.53862,2.81541 2.27138,3.90536 2.90234,5.9961 0.63096,2.09074 0.76995,4.0202 0.87109,6.38281 0.10114,2.36261 0.12808,5.37263 -0.38867,7.73633 -0.51675,2.3637 -2.51367,6.28711 -2.51367,6.28711 0,0 2.91176,-4.15698 3.77149,-6.28711 0.85972,-2.13013 1.25237,-3.89593 1.45117,-6.28711 0.1988,-2.39118 -0.12814,-5.7824 -0.48438,-7.92969 -0.35624,-2.14729 -0.66707,-2.95245 -1.35351,-4.93164 -0.68644,-1.97919 -1.83657,-4.73953 -2.90039,-6.86719 -0.83981,-1.67961 -1.63473,-3.67382 -2.00196,-4.61132 l -0.90039,-9.31446 3.48242,-10.83203 2.08789,-2.08789 c 0.68966,0.93861 1.36221,1.98113 1.6836,2.86133 0.7992,2.18883 0.65968,4.89063 0.67578,7.34961 0.0161,2.45898 -0.58008,7.34961 -0.58008,7.34961 0,0 2.67408,-2.85236 3.48242,-5.41407 0.80834,-2.56169 1.01191,-6.62251 0.38672,-9.67187 -0.34529,-1.68417 -1.4805,-3.96396 -2.43555,-5.6875 l 2.86946,-2.45914 10.17177,-15.13028 4.48221,-12.69964 2.32032,-13.92774 -2.32032,-17.79492 -1.54883,-14.69922 0.77344,-8.51172 v -32.49414 l -1.93359,-39.845704 -3.09375,-16.248047 -5.41602,-8.123046 -6.96289,-14.701171 -6.1914,-11.216797 -14.3125,-10.445314 -14.69922,-11.992187 -11.21875,-5.029296 z"
       sodipodi:nodetypes="cccccccccccccccccccccczcccccccccccccsssscsssssccccsscsscccccccccccccccccc" /><path
       id="path1820"
       style="opacity:0.3;fill:#000000;fill-opacity:1;stroke:none;stroke-width:1px;stroke-linecap:butt;stroke-linejoin:miter;stroke-opacity:1"
       d="m 188.78125,131.04734 c 0,-1e-5 -1.63662,4.43432 -3.09375,7.73632 -1.45713,3.30201 -3.99206,8.38385 -5.80273,11.99219 -1.81068,3.60834 -2.77856,5.30026 -3.93513,9.80865 -1.15657,4.50838 -0.54028,11.02194 -1.48089,16.88471 -0.94061,5.86277 -3.23093,9.81239 -5.41602,17.79492 -2.18508,7.98253 -5.44309,21.78527 -7.35156,30.17383 -1.90847,8.38856 -3.1152,12.63003 -4.2539,20.11523 -0.954,6.27102 -1.78965,17.55412 -2.08399,21.65235 l 2.08399,2.71875 23.21093,16.63476 18.18164,5.41602 13.15,0.73263 c 1.13479,-4.67112 4.60802,-13.93225 5.16489,-20.216 1.09472,-12.35275 -1.01215,-25.35073 -1.57046,-47.2141 -0.57662,-22.58064 1.43721,-84.94706 1.43721,-84.94706 z m 147.26611,70.75833 c 0.64563,2.98106 0.69183,5.83414 0.66993,8.01724 -0.0402,4.01606 -0.41589,4.24416 -1.04723,8.19419 -0.63133,3.95003 -3.75517,17.86537 -3.75517,17.86537 l 0.38685,15.08704 c 0,0 1.95366,-5.2013 3.48163,-8.12379 1.52797,-2.92249 2.27836,-3.84411 4.02468,-6.54891 1.74631,-2.70479 4.52134,-4.76175 6.28342,-6.55293 1.76208,-1.79119 2.47972,-6.09138 3.61839,-9.10868 1.13867,-3.01731 1.57949,-8.53525 1.93424,-12.21888 0.35475,-3.68363 0.49215,-5.85748 0.38685,-9.28433 -0.1053,-3.42685 -0.21314,-6.33003 0.20717,-10.94503 0.42031,-4.61499 1.22932,-10.30203 2.45382,-14.49303 1.22451,-4.19099 2.26115,-5.06266 3.11825,-11.06235 0.8571,-5.99969 0.41031,-19.01216 0.41031,-26.55568 0,-7.54352 0.33419,-13.53362 0,-18.56867 -0.33419,-5.03505 -0.32111,-6.51659 -1.54739,-11.60542 -1.22628,-5.08883 -4.06784,-11.667461 -6.5764,-18.568664 -2.50856,-6.901202 -8.51064,-22.823984 -8.51064,-22.823984 l -3.48162,14.313346 -3.48163,29.400392 c 0,0 -6.07392,49.79804 -4.77893,64.36882 1.29499,14.57078 2.59468,15.59162 4.01019,21.66744 l -69.33846,26.75497 -12.31054,8.20508 -18.4336,64.39063 31.21875,1.46093 62.93555,3.47461 c 0.0797,-0.11152 0.15833,-0.22207 0.22852,-0.33008 l 2.30078,-7.18945 c 0.10498,-0.72691 0.1853,-1.41636 0.25781,-2.03711 0.0771,-0.66034 0.12656,-1.19601 0.15625,-1.68359 l -1.63281,-9.47266 c -0.46935,-1.5468 -0.96332,-3.09021 -1.25977,-4.16211 -0.6619,-2.39326 -0.80559,-2.46773 -1.36718,-4.92383 -0.5616,-2.45609 -1.55833,-6.03905 -1.77735,-9.84765 -0.21902,-3.80861 0.4674,-8.97987 0.82031,-12.85547 0.35291,-3.87561 2.63426,-12.55553 4.41911,-18.86629 1.62113,-5.73188 5.63357,-15.38787 6.1752,-20.29724 0.54163,-4.90937 -0.97203,-8.68816 -0.97203,-8.68816 z"
       sodipodi:nodetypes="cssssssscccccsscccssccssssssssssssscccsccccccccsccssssszcc" /><path
       id="path11400"
       style="display:inline;fill:#ffffff;fill-opacity:0.2;stroke:none;stroke-width:1px;stroke-linecap:butt;stroke-linejoin:miter;stroke-opacity:1"
       d="m 286.26758,14.219208 -9.67188,3.480468 -2.29882,0.53125 c -0.1399,0.213082 -0.31834,0.453778 -0.40821,0.630859 -1.35969,2.679085 -0.89991,3.040087 -0.96875,4.640625 -0.0688,1.600539 0.10745,3.166711 0.58008,4.835938 0.47263,1.669227 0.31578,5.064742 2.32227,5.029298 2.00648,-0.03545 1.54204,-4.089774 2.51367,-5.996095 0.97163,-1.906321 2.01348,-3.998337 3.28906,-5.416016 1.27558,-1.417678 2.1704,-2.280548 4.0625,-3.09375 1.8921,-0.813202 6.32675,-1.520694 8.55858,-1.452244 2.23183,0.06845 6.49856,1.220481 6.38293,1.403824 0,0 -2.76676,0.88552 -4.20801,2.175438 -1.03398,0.925407 -1.94556,2.576317 -2.70723,4.594223 -0.63245,1.675568 -2.02596,4.79138 -0.28994,5.464306 1.73602,0.672927 1.81929,-3.40919 3.28711,-4.449219 1.46782,-1.040029 2.94124,-1.288917 5.02929,-1.546875 2.08805,-0.257957 5.27959,-0.246255 7.35157,0.386719 2.07198,0.632975 3.05887,2.019892 4.83398,2.900391 1.77511,0.880499 3.8949,1.166777 5.80274,2.322265 1.90783,1.155488 3.28504,2.774401 5.41601,4.640626 2.13097,1.866225 5.33313,4.387946 7.35156,6.578125 2.01844,2.190179 3.44477,4.147112 4.83399,6.382813 1.38922,2.235701 2.1955,4.574508 3.48242,6.96289 1.28692,2.388383 2.83501,4.771207 4.25586,7.34961 1.42085,2.578401 3.29688,5.840789 4.25391,8.124999 0.95702,2.284209 0.88235,2.863471 1.74218,5.414062 0.85983,2.550592 2.24269,5.681645 3.48047,9.865235 1.23778,4.18359 2.97128,10.550314 3.67578,15.281247 0.7045,4.73094 0.5676,6.89791 0.77344,12.95899 0.20584,6.06108 0.0451,16.92436 0.19336,23.4043 0.14824,6.47993 0.54786,10.31413 0.58008,15.47461 0.0322,5.16047 -0.19666,9.95972 -0.38672,15.47265 -0.19006,5.51294 -0.76079,12.98759 -0.77344,17.60157 -0.0127,4.61397 1.63847,7.43819 1.54726,11.99283 -0.0912,4.55463 -0.43178,11.71604 -1.35352,17.21484 -0.92173,5.49881 -2.62052,9.83299 -4.64277,15.27917 -1.70215,4.5841 -3.4508,7.22679 -5.02948,10.83347 -1.27026,2.90202 -3.24868,6.45094 -4.1211,7.99804 l 2.81446,-2.41211 10.17187,-15.13085 4.48242,-12.69922 2.32032,-13.92774 -2.32032,-17.79492 -1.54883,-14.69922 0.77344,-8.51172 V 131.82077 L 359.76758,91.975066 356.67383,75.727019 351.25781,67.603973 344.29492,52.902802 338.10352,41.686005 323.79102,31.240691 309.0918,19.248504 297.87305,14.219208 Z M 344.9668,249.56491 c -0.18998,0.33652 -0.67188,1.21094 -0.67188,1.21094 0,0 0.84815,-0.14767 1.1875,-0.19141 -0.1762,-0.33663 -0.34508,-0.71137 -0.51562,-1.01953 z"
       sodipodi:nodetypes="cccsssssssscssszzzsssssssssssssssssssscccccccccccccccccccccc" /><path
       id="path963"
       style="fill:#000000;fill-opacity:1;stroke:none;stroke-width:1.00157;stroke-linecap:butt;stroke-linejoin:miter;stroke-dasharray:none;stroke-opacity:1"
       d="m 354.93164,140.91062 c 0,0 0.45281,18.42777 -0.19336,25.33984 -0.64617,6.91207 -2.28067,10.56097 -2.90039,16.05273 -0.61972,5.49179 -0.91405,13.24357 -0.77344,16.82813 0.14061,3.58456 0.5771,2.27144 0.58008,4.64258 0.003,2.37114 -0.51501,5.53708 -1.16015,9.47851 -0.64517,3.94146 -2.90235,14.11914 -2.90235,14.11914 0,0 4.17436,-10.1595 5.0293,-14.11914 0.85494,-3.95961 0.83128,-6.72544 0.77344,-9.28515 -0.0578,-2.55974 -0.61867,-2.21623 -0.77344,-5.9961 -0.15477,-3.77984 0.11851,-11.2373 0.77344,-16.63476 0.6549,-5.39749 2.64544,-8.88486 3.0957,-15.66602 0.45026,-6.78113 -1.54883,-24.75976 -1.54883,-24.75976 z m -161.53711,2.82812 c 0,0 -5.91916,14.97581 -6.83789,21.60938 -0.91873,6.63354 -0.28923,8.64856 0.54688,17.50586 0.83608,8.85727 4.51567,25.57794 5.60742,35.42382 1.09175,9.84588 1.87651,15.52038 1.5039,23.52539 -0.37261,8.00504 -2.27166,19.34837 -3.83007,24.20899 -1.55844,4.86059 -2.73438,5.4707 -2.73438,5.4707 0,0 1.68262,-0.75297 3.55469,-5.74414 1.87207,-4.99114 3.73868,-16.51213 4.10351,-24.89258 0.36483,-8.38045 -0.76585,-15.1897 -1.91406,-25.02929 -1.14821,-9.83959 -4.566,-25.42726 -5.33398,-33.91993 -0.76798,-8.49264 -1.18229,-10.38109 -0.41016,-16.82226 0.77213,-6.44117 5.74414,-21.33594 5.74414,-21.33594 z m -9.57422,7.52149 c 0,0 -0.2647,2.17597 -0.31445,2.59961 6.4e-4,-0.0111 0.041,-0.68555 0.041,-0.68555 0,0 -0.0945,1.11984 -0.0977,1.1582 -0.50962,4.33092 -2.4966,21.08663 -4.2793,32.625 -2.02284,13.09264 -4.23783,30.02535 -7.6582,42.80859 -3.42037,12.78326 -12.17383,33.78321 -12.17383,33.78321 0,0 10.10506,-20.20208 13.81445,-33.23438 3.70941,-13.03228 5.52405,-31.53563 7.24805,-44.72461 0.60149,-4.60151 1.17159,-10.04973 1.69531,-15.35156 -0.88995,10.59795 -1.67581,20.10818 -2.51562,29.57617 -1.32435,14.93072 -2.73212,31.02547 -3.9668,42.94532 -1.23468,11.91982 -1.49675,20.1561 -3.28125,28.58593 -1.7845,8.42983 -5.44424,17.56053 -6.83984,21.88282 -1.3956,4.32226 -1.38072,2.56083 -1.36719,4.10351 0.0135,1.54268 1.64258,4.65039 1.64258,4.65039 0,0 -0.85689,-3.30393 -0.68555,-4.92383 0.17134,-1.61987 0.16966,-0.28616 1.64258,-4.51367 1.47292,-4.22748 5.16711,-13.2691 6.97461,-20.92578 1.8075,-7.65668 1.48896,-5.18283 3.55664,-24.89258 1.96268,-18.70887 5.65924,-82.74725 6.05078,-89.55273 0.17495,-2.06393 0.51367,-5.91406 0.51367,-5.91406 z m 16.82227,0.68359 c 0,0 -2.8278,4.47329 -4.10156,9.02734 -1.27379,4.55408 -1.71609,7.91975 -2.18946,18.32813 -0.47337,10.40838 1.11035,33.00394 1.23047,44.03906 0.12012,11.03512 0.50908,14.26815 -0.13672,22.1582 -0.6458,7.89008 -2.68984,19.14297 -3.96484,25.02735 -1.275,5.88435 -2.40303,7.33487 -2.87305,10.39648 -0.47002,3.06161 0.26241,5.5059 -0.27344,7.79492 -0.53585,2.28905 -2.59961,5.74414 -2.5996,5.74414 0,0 3.15374,-3.78713 3.83007,-6.15429 0.67633,-2.36716 -0.52646,-4.31586 0,-7.52344 0.52646,-3.20758 2.44915,-5.46557 3.83008,-11.35156 1.38093,-5.88602 2.35523,-9.01614 3.2832,-24.07031 0.928,-15.0542 -1.64099,-52.17626 -0.82226,-66.19727 0.81873,-14.02101 1.43694,-13.38979 2.32617,-17.91797 0.88923,-4.52815 2.46094,-9.30078 2.46094,-9.30078 z m 161.79297,10.45117 -1.89453,0.084 c 0,0 -0.30251,3.44109 -0.375,7.05859 -0.0725,3.6175 0.0322,9.95426 0.56836,15.28125 0.53612,5.32697 2.36352,11.11279 2.51562,16.63476 0.1521,5.52199 -0.39738,11.05196 -1.54883,16.2461 -1.15145,5.19412 -2.50588,9.48219 -5.2207,14.70117 -2.71482,5.219 -8.30707,12.76817 -11.41211,16.05469 -3.10504,3.2865 -3.95616,2.20417 -5.80274,4.64258 -1.84656,2.43839 -3.69678,7.09555 -4.25585,10.05664 -0.22908,1.21328 -0.2628,2.2826 -0.2168,3.26953 -0.18337,-0.69537 -0.38919,-1.33307 -0.55859,-2.05078 0.47639,-2.11933 1.65589,-7.03663 3.17968,-10.94532 1.99049,-5.10577 6.82229,-14.03711 9.16406,-18.18945 2.3418,-4.15231 2.92757,-4.02216 4.37696,-6.97656 1.44939,-2.9544 3.96679,-10.80469 3.9668,-10.80469 0,0 -2.44514,5.92672 -4.37696,9.57422 -1.93182,3.6475 -4.91484,7.77486 -7.38672,12.17187 -2.47185,4.39704 -5.93882,9.75367 -7.38476,14.22461 -1.03095,3.18778 -1.49005,7.90691 -1.67188,10.37696 -0.66819,-2.92973 -1.196,-5.99322 -1.41211,-8.9668 -0.51692,-7.1126 1.1644,-14.57068 1.9336,-22.4375 0.7692,-7.86682 2.70703,-24.75781 2.70703,-24.75781 0,0 -4.36794,17.82796 -5.41602,25.91797 -1.04808,8.08998 -1.81863,15.47142 -1.16015,22.4375 0.65848,6.96605 2.77304,14.21012 4.64257,18.95507 1.86956,4.74498 4.09204,6.08873 5.41602,9.67188 1.32398,3.58315 2.30786,7.59714 2.32031,11.60547 0.007,2.23442 -0.37796,4.88498 -0.90625,7.25391 0.0516,-0.7572 0.089,-1.57856 0.11133,-2.59766 0.0658,-3.00078 0.22029,-7.86102 -0.95703,-11.48828 -1.17732,-3.62729 -3.56753,-6.23371 -5.88086,-9.71094 -2.31333,-3.47723 -6.46426,-7.19803 -8.07031,-11.07812 -1.60605,-3.88012 -1.51084,-6.47725 -1.77735,-11.35157 -0.26651,-4.87429 0.82032,-17.78125 0.82032,-17.78125 0,0 -2.15831,12.76819 -2.05078,17.78125 0.1075,5.01309 0.22231,7.9015 1.91406,12.03516 0.15019,0.36698 0.32759,0.73669 0.51758,1.10547 0.8162,3.00663 2.01111,7.57587 2.35546,9.97265 0.52789,3.67427 0.70162,5.62005 0.41016,9.02735 -0.29146,3.40727 -2.46289,11.21484 -2.46289,11.21484 0,0 4.05435,-7.43362 4.51367,-11.07812 0.45932,-3.64453 -0.47195,-6.28476 -1.36719,-9.98438 -0.45552,-1.88248 -1.54138,-4.94518 -2.50195,-7.51953 2.07761,3.24268 5.1752,6.45116 7.01563,9.16211 2.35865,3.47434 4.6107,5.52725 5.74414,8.88867 1.13344,3.36142 0.9151,7.75793 0.82031,10.66797 -0.0948,2.91004 -0.48453,4.85525 -0.95703,6.70312 -0.34538,1.35073 -0.93391,2.74747 -1.29492,3.57227 -0.57906,0.70693 -1.02539,1.06641 -1.02539,1.06641 0,0 0.32382,-0.18884 0.76953,-0.47266 -0.011,0.0241 -0.0918,0.21094 -0.0918,0.21094 0,0 0.12782,-0.16678 0.23633,-0.31055 1.16187,-0.75356 3.14507,-2.21234 4.11523,-4.07031 1.40161,-2.68423 1.60286,-7.37078 1.54883,-11.21875 -0.054,-3.848 -0.68484,-7.94861 -1.93555,-11.60547 -1.08163,-3.16256 -2.94189,-4.69412 -4.63671,-8.24219 -0.20927,-1.23192 -0.63525,-2.59002 -0.7793,-4.13672 -0.2372,-2.54664 -1.14278,-5.83348 -0.58008,-8.89843 0.5627,-3.06497 2.15632,-6.40025 4.0625,-8.89649 0.38797,-0.50807 0.7731,-0.88367 1.16406,-1.21679 0.26582,0.26703 0.5499,0.59473 0.77149,1.01367 0.54576,1.03184 0.85222,2.9354 1.09375,4.65039 0.24153,1.71499 0.30054,3.803 0.27343,5.60742 -0.0213,1.42119 -0.25743,3.76453 -0.35937,4.72266 -0.32702,0.49453 -0.59766,0.88476 -0.59766,0.88476 0,0 0.22694,-0.17703 0.55078,-0.44726 -2e-4,0.002 -0.004,0.0371 -0.004,0.0371 0,0 0.0247,-0.0514 0.0273,-0.0566 0.81592,-0.68213 2.28213,-1.98 2.8457,-2.95117 0.79588,-1.37144 0.9509,-2.56837 1.23047,-4.51367 0.27957,-1.9453 0.80247,-4.74862 0.13672,-7.11328 -0.47397,-1.68349 -1.50418,-3.41729 -2.1875,-4.50391 0.61025,-0.49501 1.27059,-1.09575 2.01758,-1.91601 3.28092,-3.60275 8.8195,-11.36834 11.41211,-16.63477 2.59261,-5.26641 3.48922,-8.913 4.64258,-14.31445 1.15336,-5.40147 2.13419,-12.22568 1.93359,-17.98828 -0.2006,-5.76262 -2.3088,-11.14045 -2.90039,-16.2461 -0.59159,-5.10563 -0.67453,-10.76308 -0.67187,-14.31445 0.003,-3.55137 0.24414,-6.75586 0.24414,-6.75586 z m -12.84766,10.47461 c 0,0 -4.17199,12.48884 -5.06055,18.60156 -0.88856,6.11275 -0.0498,12.32751 -0.41211,17.7793 -0.36232,5.45179 -0.82394,10.91924 -1.64062,14.9082 -0.81668,3.98899 -1.48277,5.48125 -2.73438,9.02735 -1.25158,3.54607 -4.92382,12.17382 -4.92382,12.17383 0,0 5.60132,-8.91411 7.11132,-12.58399 1.51003,-3.66988 1.66113,-4.79173 2.46289,-9.02734 0.80179,-4.23564 1.46313,-11.02553 1.77735,-16.41211 0.31422,-5.38661 -0.39339,-10.09716 0.13672,-15.86524 0.53011,-5.76805 3.2832,-18.60156 3.2832,-18.60156 z m -174.24805,0.41016 c 0,0 -8.8834,29.6599 -11.76172,40.48437 -2.87829,10.82447 -4.61955,16.33823 -5.88085,24.34571 -1.26133,8.00745 -1.77735,23.52539 -1.77735,23.52539 0,0 2.36495,-15.26567 4.10156,-23.79883 1.73664,-8.53316 3.87972,-16.59347 6.42969,-27.35352 2.54997,-10.76005 8.88867,-37.20312 8.88867,-37.20312 z m -14.15234,0.68554 c 0,0 -3.57268,12.27063 -5.13086,16.27539 -1.55818,4.00479 -2.7055,5.01288 -3.2832,7.11133 -0.5777,2.09845 0.28194,1.84946 -0.54688,5.19727 -0.82882,3.34778 -4.49555,8.40051 -5.74414,14.36133 -1.24859,5.96079 -0.69446,14.35684 -0.68359,21.0625 0.0109,6.70563 -0.44813,14.94213 0.68359,19.14843 1.13172,4.20633 1.75695,4.30785 3.28125,6.1543 1.5243,1.84645 5.74414,4.65039 5.74414,4.65039 0,0 -2.16262,-3.62485 -3.28125,-5.60742 -1.11863,-1.98257 -1.62234,1.16457 -3.41992,-6.29102 -1.79758,-7.45556 -0.66107,-30.04993 0.95703,-38.84375 1.6181,-8.79382 4.30256,-10.5615 4.92383,-13.95117 0.62127,-3.38964 -0.39058,-3.72006 0.13672,-5.88086 0.5273,-2.1608 1.6471,-2.6386 3.2832,-6.70117 1.6361,-4.06257 5.40625,-16.63672 5.40625,-16.63672 z m -1.0332,18.97657 c 0,0 -6.14448,18.65038 -7.73633,26.69336 -1.59185,8.04297 -2.39788,14.78169 -2.32031,21.27539 0.0776,6.49369 2.32031,17.4082 2.32031,17.4082 0,0 -0.94316,-11.26653 -0.77344,-17.4082 0.16972,-6.14168 0.61551,-11.3141 1.93359,-19.3418 1.31809,-8.0277 6.57618,-28.62695 6.57618,-28.62695 z m 141.58593,34.42968 c 0,0 -8.17417,13.07513 -11.60546,20.11719 -3.43132,7.04206 -7.29661,15.42788 -8.89649,22.04883 -1.59988,6.62095 -1.54687,17.02148 -1.54687,17.02148 0,0 1.46342,-9.10092 3.48047,-15.85937 2.01702,-6.75845 6.15234,-17.15948 9.28515,-24.37305 3.13281,-7.21357 9.2832,-18.95508 9.2832,-18.95508 z m 8.51172,0.77344 c 0,0 -8.80887,10.54399 -11.60547,15.86133 -2.79657,5.31731 -4.84805,10.76833 -5.41601,15.47461 -0.56796,4.70625 1.16016,11.99219 1.16015,11.99219 0,0 -0.5132,-6.87966 0.38672,-11.60547 0.89992,-4.72584 3.22485,-10.92246 5.80274,-16.24805 2.57789,-5.32556 9.67187,-15.47461 9.67187,-15.47461 z m 4.64258,0.38672 c 0,0 -8.03591,8.60672 -11.21875,13.54102 -3.18284,4.93427 -6.35129,10.84148 -7.73828,15.85937 -1.38699,5.01792 -1.16016,13.54102 -1.16016,13.54102 0,0 0.69555,-6.9383 2.32227,-11.60547 1.62672,-4.6672 5.15717,-10.63268 8.12305,-15.86133 2.96585,-5.22868 9.67187,-15.47461 9.67187,-15.47461 z m 2.32031,5.0293 c 0,0 -8.89329,14.96159 -10.83203,20.89062 -1.93874,5.92906 -2.12483,9.72024 -2.12695,13.73242 -0.002,4.01221 1.54687,10.0586 1.54687,10.0586 0,0 -0.44387,-5.93129 0,-9.86524 0.44387,-3.93392 1.2942,-7.68793 3.09571,-13.53906 1.80151,-5.85113 8.3164,-21.27734 8.3164,-21.27734 z m 5.0293,5.80273 c 0,0 -4.23675,12.60809 -5.41602,18.18164 -1.17924,5.57358 -1.98857,9.94529 -1.93359,15.08789 0.055,5.14263 2.32031,15.47266 2.32031,15.47266 0,0 -1.06345,-11.12661 -0.77343,-16.24609 0.29002,-5.11951 1.36246,-8.8964 2.32031,-14.31446 0.95785,-5.41803 3.48242,-18.18164 3.48242,-18.18164 z m 23.17774,11.4707 c 0.31646,1.24404 0.75405,3.02939 1.01953,4.64649 0.39338,2.39621 -0.0149,5.37677 -0.27344,7.24805 -0.25852,1.87125 -0.44751,2.72243 -0.95703,3.96679 -0.19428,0.47446 -0.53885,1.08336 -0.89063,1.65625 0.39363,-0.93586 0.85973,-2.19824 1.02735,-3.29883 0.3092,-2.03024 -0.0207,-5.44493 -0.27344,-7.38476 -0.25272,-1.93983 -0.48293,-3.1951 -0.95899,-4.24024 -0.19863,-0.43608 -0.49937,-0.83144 -0.77539,-1.18359 0.62791,-0.39883 1.30734,-0.81578 2.08204,-1.41016 z" /><path
       id="path8423"
       style="display:inline;fill:#000000;fill-opacity:0.2;stroke:none;stroke-width:1px;stroke-linecap:butt;stroke-linejoin:miter;stroke-opacity:1"
       d="m 230.39062,46.740234 c -3.36145,0.11855 -6.79652,0.551823 -10.27539,1.521485 -6.19509,1.726755 -10.40067,3.579006 -17.79882,8.902343 l -9.2793,14.308594 -3.48242,12.378906 -2.70703,17.408208 -6.18946,14.3125 -8.51172,23.21093 -4.64257,17.40821 -7.34961,22.4375 -6.21875,18.15625 -0.74414,7.76172 -3.48243,8.89843 c 0,0 -1.85748,1.67302 -2.70703,4.64258 -0.84955,2.96956 -0.38672,13.15234 -0.38672,13.15234 l -0.77343,13.92579 2.70703,13.15234 8.89844,11.60547 23.21093,16.63476 18.18164,5.41602 13.57618,0.63477 5.3789,-20.75 -2.70703,-83.94727 15.47266,-41.39258 31.33593,-52.611327 13.15235,-27.078125 c 0,0 -1.547,-3.407817 -4.25586,-6.189453 -2.70886,-2.781636 -7.60661,-6.908133 -12.76563,-9.285156 -5.159,-2.377025 -11.41232,-3.689218 -17.79492,-4.25586 -3.19128,-0.283319 -6.48033,-0.477925 -9.8418,-0.359375 z m 108.22461,29.982422 -0.51171,2.09961 -3.48047,29.400394 c 0,0 -6.07429,49.79838 -4.7793,64.36914 1.29499,14.57074 2.57337,15.59591 4.0957,21.43945 l -8.0563,3.49577 4.59146,28.25228 c 1.7817,-3.84881 3.84288,-11.42167 5.09076,-15.50009 0.38218,-1.24908 0.72439,-5.52128 0.83882,-5.90744 0.0125,0.72404 0.31814,4.90099 0.31264,5.4505 -0.0401,4.01604 -0.41554,4.24528 -1.04688,8.19531 -0.63133,3.95001 -3.75586,17.86523 -3.75586,17.86523 l 0.38672,15.08594 c 0,0 1.95445,-5.20056 3.48242,-8.12305 1.52797,-2.92247 2.27909,-3.84404 4.02539,-6.54882 0.35773,-0.55407 0.77857,-1.06538 1.20508,-1.56836 0.78204,-2.43735 1.48798,-4.84157 1.92578,-6.77735 1.0529,-4.65545 1.74526,-8.62628 2.12891,-13.53906 0.38365,-4.9128 -0.13635,-11.76625 0,-15.86133 0.13635,-4.09506 0.0697,-5.36457 0.58008,-8.70312 0.51041,-3.33857 1.88936,-7.15615 2.70703,-11.21875 0.81767,-4.06262 1.64707,-5.7224 2.12891,-13.15235 0.48182,-7.42993 -0.96876,-31.33593 -0.96876,-31.33594 0,0 -1.99855,-21.91937 -3.48046,-30.94726 -1.48193,-9.027899 -2.65345,-18.8556 -5.0293,-23.210938 -0.89094,-1.633251 -1.71223,-2.639359 -2.39063,-3.259766 z m -16.77731,122.290054 -57.3223,22.00096 -12.31054,8.20508 -18.4336,64.39063 31.21875,1.46093 31.3125,1.72852 c -0.52028,-4.30943 -1.04135,-9.1452 -1.13867,-12.17383 -0.2078,-6.468 -0.41734,-12.34886 -0.0469,-16.86133 0.3705,-4.51244 0.90826,-6.46748 1.98242,-10.21875 1.07416,-3.75125 3.46549,-8.49117 5.80078,-12.3789 2.33529,-3.88775 5.43096,-6.52232 8.125,-10.83204 2.69404,-4.3097 12.93359,-19.32617 12.93359,-19.32617 z"
       sodipodi:nodetypes="sscccccccccccsccccccccccccsssscccscccsccsccsscsssssscssscccccccssssscc" /></g><g
     inkscape:groupmode="layer"
     id="layer4"
     inkscape:label="Hair Front"><path
       id="path9881"
       style="display:inline;fill:#383838;fill-opacity:1;stroke:none;stroke-width:1px;stroke-linecap:butt;stroke-linejoin:miter;stroke-opacity:1"
       d="m 286.26758,14.219208 -9.67188,3.480468 -5.02929,1.162109 -6.18946,-0.386719 -9.67187,2.320313 -7.34961,6.189453 -6.18945,6.189454 -7.73633,0.773438 -8.125,2.322265 -3.86719,6.576172 -8.125,3.480469 -11.99219,10.832031 -9.2832,14.314452 -3.48242,12.378906 -2.70703,17.408201 -6.18946,14.31251 -11.12219,31.79848 10.75427,-5.45777 c 0,0 8.27024,-8.4625 13.42349,-8.81693 5.15325,-0.35444 5.51128,1.54339 9.18838,1.8464 3.67711,0.30301 8.9458,-1.04432 9.36622,-0.64796 0.42043,0.39635 0.9574,-0.81566 0.9574,-0.81566 l -4.64974,3.69341 -3.69362,4.24033 c 0,0 0.65874,1.12391 2.32758,1.10445 3.07835,-0.0359 6.63798,-1.33338 8.20519,-2.19952 2.41683,-1.3357 6.70201,-6.83703 6.70201,-6.83703 l 0.41015,-2.59961 0.6836,-3.00977 3.14453,-5.74414 2.48047,-4.48242 0.17773,-0.13867 4.25586,-3.06732 7.00529,-3.97752 3.2449,-27.384465 c 0,0 13.30924,-8.34525 19.67382,-11.171433 6.3646,-2.826181 12.42788,-4.321707 18.27362,-5.26764 5.84576,-0.945931 10.00091,-1.491923 16.08756,-1.603783 6.02161,-0.110667 14.40944,0.599722 18.88669,1.570025 6.04794,1.3107 12.30461,4.903566 16.08768,7.441588 3.78309,2.538026 4.73072,3.930212 7.12325,6.439401 2.39255,2.50919 5.06546,4.278945 7.73633,7.620754 2.67087,3.341807 4.36718,5.441869 6.89258,12.425783 1.96571,5.43612 1.68644,11.81756 2.00586,19.68359 0.31942,7.86605 1.16016,26.69141 1.16016,26.69141 l 2.32031,13.1543 1.93359,1.73242 v -29.97266 l -1.93359,-39.845704 -3.09375,-16.248047 -5.41602,-8.123046 -6.96289,-14.701171 -6.1914,-11.216797 -14.3125,-10.445314 -14.69922,-11.992187 -11.21875,-5.029296 z"
       sodipodi:nodetypes="cccccccccccccccccczzzcccsscccccccccsssssssssccccccccccccc"
       inkscape:label="localColor" /><path
       id="path10665"
       style="display:inline;fill:#000000;fill-opacity:0.3;stroke:none;stroke-width:1px;stroke-linecap:butt;stroke-linejoin:miter;stroke-opacity:1"
       inkscape:label="lowLights"
       d="m 262.66992,28.725066 c 0,0 -3.21702,3.753555 -5.0293,4.835939 -1.81227,1.082383 -2.86778,1.237901 -5.41601,1.740234 -2.54823,0.502334 -6.17275,-0.03773 -9.86523,0.775391 -3.69249,0.813122 -11.99219,4.447266 -11.99219,4.447266 l 5.02929,-0.386719 7.92969,0.966797 10.25195,3.095703 10.83204,4.449219 7.34961,4.060546 4.83593,3.482422 -2.90039,-5.222656 -5.22265,-7.15625 -4.44922,-8.705078 z m 38.29688,11.025392 c -4.90497,0.186414 -9.87007,0.401822 -12.18555,2.515625 -2.31548,2.113802 -1.35352,6.189453 -1.35352,6.189453 l 6.32618,16.214843 9.53515,-0.935546 1.8086,0.490233 c 3.86042,0.348145 7.77079,0.884832 11.34375,1.832032 5.98169,1.585767 12.85171,4.424873 16.63476,6.96289 2.56285,1.719377 3.30119,3.353189 4.24805,5.007813 0.73253,0.76011 1.41223,1.496482 2.32812,2.457031 2.39255,2.509187 5.06546,4.279288 7.73633,7.621094 1.7791,2.226022 3.13273,4.012708 4.58008,6.947265 0.0404,0.07726 0.0807,0.156688 0.12109,0.236328 0.19291,0.399069 0.38966,0.784908 0.58789,1.234376 l 0.70704,0.867187 c 0,0 -4.23207,-11.806986 -5.9961,-16.248047 -1.76404,-4.441059 -2.58549,-6.470688 -4.44922,-10.443359 -1.86372,-3.972669 -4.17667,-8.808058 -6.96289,-12.574218 -2.78619,-3.76616 -4.31434,-7.158301 -7.34961,-9.669922 -3.03525,-2.51162 -7.41258,-4.474397 -11.99218,-5.802734 -4.57962,-1.328339 -10.76302,-3.088758 -15.66797,-2.902344 z" /><path
       id="path10670"
       style="display:inline;fill:#ffffff;fill-opacity:0.2;stroke:none;stroke-width:1px;stroke-linecap:butt;stroke-linejoin:miter;stroke-opacity:1"
       d="m 286.26758,14.219208 -7.15737,2.610062 -2.29882,0.53125 c -1.09204,1.925102 -2.73899,3.897574 -3.3112,6.722161 -0.57221,2.824587 -0.0821,4.301987 0.28995,5.996479 0.47263,2.152785 2.12884,4.545738 2.12884,4.545738 0.72479,-0.01056 1.44533,-5.347027 2.41696,-7.253347 0.97163,-1.906319 2.01348,-3.998338 3.28906,-5.416016 1.27558,-1.417676 2.1704,-2.280549 4.0625,-3.09375 1.8921,-0.813201 6.32677,-1.521573 8.55859,-1.453125 2.23183,0.06845 6.49845,1.220954 6.38282,1.404297 0,0 -2.76579,0.885865 -4.20703,2.175781 -1.03398,0.925406 -1.94732,2.575847 -2.70899,4.59375 -0.63245,1.675568 -2.02508,4.791918 -0.28906,5.464844 1.73602,0.672926 1.81929,-3.409191 3.28711,-4.449219 1.46782,-1.040028 2.94125,-1.288917 5.02929,-1.546875 2.08805,-0.257957 5.27959,-0.246255 7.35157,0.386719 2.07197,0.632974 3.05887,2.019893 4.83398,2.900391 1.77511,0.880498 3.8949,1.166778 5.80274,2.322265 1.90782,1.155487 3.28504,2.774402 5.41601,4.640626 2.13097,1.866223 5.33314,4.387948 7.35156,6.578125 2.01844,2.190177 3.44477,4.147114 4.83399,6.382813 1.38922,2.235698 2.1955,4.574511 3.48242,6.96289 1.28692,2.388381 2.83501,4.771209 4.25586,7.34961 1.42085,2.578398 3.29688,5.840791 4.25391,8.124999 0.95701,2.284206 0.88235,2.863474 1.74218,5.414062 0.85983,2.55059 2.24269,5.681648 3.48047,9.865235 1.23778,4.183585 2.97128,10.550318 3.67578,15.281247 0.7045,4.73093 0.5676,6.89792 0.77344,12.95899 0.20584,6.06107 0.0451,16.92436 0.19336,23.4043 0.14824,6.47992 0.54786,10.31413 0.58008,15.47461 0.0136,2.18454 -0.0346,4.30087 -0.0918,6.4375 l 0.0918,0.52539 1.93359,1.73242 v -29.97266 l -1.93359,-39.845704 -3.09375,-16.248047 -5.41602,-8.123046 -6.96289,-14.701171 -6.1914,-11.216797 -14.3125,-10.445314 -14.69922,-11.992187 -11.21875,-5.029296 z"
       inkscape:label="highLights"
       sodipodi:nodetypes="ccczsssssscssssssssssssssssssssccccccccccccc" /><path
       id="path44666"
       style="display:inline;fill:#000000;fill-opacity:1;fill-rule:nonzero;stroke:none;stroke-width:1px;stroke-linecap:butt;stroke-linejoin:miter;stroke-opacity:1"
       d="m 291.38086,12.896942 c -3.1404,0.03868 -6.05173,0.454664 -8.53906,0.890625 -4.97468,0.871923 -8.09591,3.325328 -11.02539,3.63086 -2.92949,0.305529 -3.49698,-0.467889 -7.39453,-0.002 -3.89756,0.465946 -10.39026,3.287035 -14.65821,6.130859 -4.26794,2.843825 -5.3935,7.063056 -9.34765,8.970704 -3.95416,1.907647 -9.59948,0.397145 -13.1836,2.361328 -2.61827,1.434878 -5.21583,5.342117 -6.44336,7.363282 -3.67039,1.388187 -7.385,3.271176 -10.53906,5.582031 -4.61323,3.379931 -8.66125,7.895795 -12.22461,13.080078 -3.56336,5.184283 -6.48766,11.123727 -7.94531,15.925781 -1.45765,4.802053 -1.62818,11.476185 -3.35352,18.820312 -1.72534,7.344128 -6.03251,19.470588 -9.11133,26.478518 -2.4059,5.47626 -4.65805,9.99712 -6.60546,17.21289 -2.38493,8.83686 -9.9336,35.04101 -9.9336,35.04101 l 2.39649,-0.23828 c 0,0 7.14083,-24.59925 9.59179,-33.74219 2.30271,-8.58985 3.30418,-10.0108 6.22852,-17.07422 1.878,-4.53611 5.06764,-12.54547 7.61719,-19.76757 2.15717,-2.74773 8.46065,-10.714603 12.51757,-14.509768 4.7958,-4.486366 7.8419,-6.924101 14.38282,-11.02539 6.54091,-4.10129 14.3207,-7.801818 20.75005,-7.80828 7.43376,-0.0075 17.74406,5.346451 17.93987,5.772454 -1.65783,0.980727 -5.072,3.330561 -6.47529,4.283727 -3.02109,0.05602 -12.8957,-3.55283 -17.30844,-2.718283 -4.79796,0.907399 -8.6545,2.084177 -12.99018,5.025069 -4.33567,2.940892 -12.22265,11.744141 -12.22265,11.744141 0,0 7.99344,-7.097583 12.46289,-9.828125 4.46944,-2.730543 9.38484,-4.592034 13.94916,-5.503585 3.81876,-0.762654 11.38008,3.037531 13.69515,3.036643 -0.87631,0.69098 -1.57049,1.318979 -1.98242,1.835937 -3.9358,1.236477 -13.05331,-0.750957 -19.19119,3.080223 -7.77523,4.853191 -20.79305,13.611017 -26.69336,19.730467 -5.90031,6.11946 -7.5575,9.66642 -10.05664,14.69922 -2.49914,5.0328 -3.75142,10.17291 -5.0293,15.08789 -1.27788,4.91499 -1.41845,9.59001 -2.70898,14.3125 -1.29053,4.7225 -5.0293,13.92578 -5.0293,13.92578 0,0 5.85661,-9.64883 7.35156,-14.3125 1.49496,-4.66366 0.74178,-8.47508 1.9336,-13.15234 1.19182,-4.67727 2.89816,-9.94201 5.41601,-14.70117 2.51786,-4.75917 3.8482,-7.50945 9.67188,-13.53907 5.82367,-6.02961 19.2252,-15.21169 26.69141,-20.501948 5.5674,-3.944849 13.44056,-2.584397 17.39822,-4.30288 -1.53127,2.475275 -1.19972,22.256018 -2.10219,24.783618 -0.90364,2.53088 -8.26783,4.22632 -11.38064,8.99782 -0.17409,0.26685 -0.33199,0.54781 -0.50391,0.81836 -1.62402,1.54995 -4.81879,4.60072 -7.00976,6.68164 -2.73574,2.59833 -5.02491,5.81111 -7.66016,7.24805 -2.63525,1.43694 -4.09165,1.379 -7.24805,1.7793 -3.15639,0.4003 -8.68637,-0.47875 -8.68637,-0.47875 0,0 5.78902,1.58312 9.09653,1.29906 3.30751,-0.28406 4.94845,-0.30718 7.6582,-1.7793 2.70976,-1.47211 5.35865,-5.14997 7.66016,-7.38476 1.57398,-1.52835 2.91234,-2.84387 4.20898,-4.11524 -0.77062,1.33623 -1.46684,2.62724 -2.10156,3.86914 -2.16356,2.38502 -5.68026,6.13908 -7.57812,7.49415 -2.85237,2.03657 -4.50099,2.72629 -6.83985,3.2832 -2.33885,0.55691 -5.47018,0.47865 -5.47018,0.47865 0,0 3.52146,0.82049 6.01706,0.34166 2.4956,-0.47883 4.43448,-1.70733 6.97656,-3.55469 1.47425,-1.07135 3.84128,-3.50514 5.58594,-5.375 -0.38727,0.85276 -0.68245,1.59118 -0.92578,2.25586 l -0.01,-0.0273 c 0,0 -3.45542,4.39968 -5.4707,5.88086 -2.01528,1.48118 -3.50089,2.59563 -6.29297,3.00976 -2.79208,0.41413 -5.26583,-0.13815 -5.26583,-0.13815 0,0 2.36118,1.26017 5.26583,0.95847 2.90465,-0.3017 4.64196,-1.71875 6.70312,-3.14649 1.40065,-0.9702 3.40172,-3.0626 4.55469,-4.31836 0.0314,0.70357 0.34578,0.79041 -0.33594,1.9375 -1.04307,1.75514 -3.71061,4.09335 -6.4707,5.27344 -2.76009,1.18009 -3.92221,2.03325 -6.03253,1.74614 -2.11031,-0.2871 -2.80787,-0.58358 -2.80787,-0.58358 0,0 0.9966,1.48005 3.11842,1.98788 2.12182,0.50783 2.55715,0.14427 5.48175,-0.99224 2.92459,-1.13651 7.44095,-4.41247 8.86914,-6.71289 1.42819,-2.30042 -0.0878,-2.08967 0.95898,-5.0332 1.04679,-2.94353 3.41656,-7.36302 6.47071,-11.98438 3.05414,-4.62135 11.42763,-6.10026 11.86111,-8.99782 0.43347,-2.89756 1.58198,-22.558315 2.10804,-24.076587 0.52606,-1.518271 10.82321,-7.891194 16.7793,-10.785156 5.95608,-2.893962 12.54171,-4.918266 18.69531,-6.038877 6.15361,-1.120611 12.54955,-2.079805 18.34201,-2.141222 5.72769,-0.06073 12.5192,0.593905 16.53906,1.199036 4.83912,0.728459 7.68483,1.466423 11.98438,3.493826 4.3271,2.040398 8.58835,5.79521 11.02539,8.388672 2.43704,2.593461 5.83594,6.111328 5.83594,6.111328 l -1.81445,-6.265625 c 0,0 -1.43793,-0.68055 -3.78126,-2.960938 -2.34328,-2.280387 -6.25308,-5.523032 -10.54687,-7.669922 -2.34415,-1.172073 -4.51068,-1.999762 -6.79492,-2.705078 -0.0861,-1.195962 -0.80775,-5.104242 1.20519,-6.830253 2.01294,-1.726011 4.99283,-2.677824 7.75971,-1.867397 2.76689,0.810427 5.39625,3.213451 7.73633,6.189453 2.34008,2.976002 5.41602,11.605469 5.41602,11.605469 0,0 -2.30165,-10.089537 -4.64258,-13.539063 -2.34093,-3.449525 -4.6331,-6.012187 -8.12305,-6.96289 -3.48995,-0.950703 -8.67477,1.008922 -10.42172,2.890991 -1.74695,1.882069 -1.77069,5.849007 -1.78141,7.879422 -0.55464,-2.494546 -2.04835,-8.340484 -1.4631,-10.49306 0.58525,-2.152576 2.64829,-4.979423 5.05262,-5.943831 2.40434,-0.964408 10.35378,-0.202758 10.35378,-0.202758 0.13678,0.136771 -7.80102,-2.254727 -10.53773,-1.732789 -2.73671,0.521939 -5.6244,3.777568 -6.4175,5.943831 -0.7931,2.166263 1.02945,12.430377 1.02945,12.430377 0,0 -1.08468,-0.102924 -1.31445,-0.158203 -0.52145,-0.118753 -1.09862,-0.219504 -1.64258,-0.332031 -0.19851,-0.658918 -2.50291,-12.827346 -1.37109,-15.548428 1.72264,-4.141506 4.7582,-6.764203 7.66992,-7.980129 2.91172,-1.215926 4.26678,-0.437387 7.19141,0.478515 2.92462,0.915903 6.57559,2.758878 9.58789,5.753907 3.01229,2.995029 5.19957,8.385507 7.43164,12.224609 2.23207,3.839102 4.1685,6.786922 5.99219,10.785156 1.82368,3.998234 4.79296,13.183594 4.79296,13.183594 0,0 -1.97211,-9.089586 -3.5957,-13.183594 -1.62359,-4.094008 -3.83492,-7.190777 -5.99219,-11.265625 -2.15726,-4.074848 -3.57898,-9.142763 -6.71093,-12.464843 -3.13196,-3.322081 -7.65719,-5.87736 -11.26563,-6.951172 -3.60844,-1.073812 -6.09353,-1.805731 -9.34766,-0.238282 -3.25412,1.56745 -5.4028,4.048102 -7.43164,8.93716 -1.08835,2.622688 0.48611,13.803207 0.98243,15.851163 -2.01887,-0.366633 -4.14966,-0.660485 -6.32032,-0.90039 -0.19203,-0.42515 -4.31029,-11.525405 -3.46286,-15.97796 0.96415,-5.065881 2.29091,-7.723972 4.96677,-10.30841 2.67586,-2.584438 6.58054,-3.32251 9.58789,-4.074219 3.00735,-0.75171 8.14844,-0.71875 8.14844,-0.71875 0,0 -5.76669,-0.611664 -8.86914,0 -3.10246,0.611665 -6.48717,1.287387 -9.34766,3.833985 -2.86049,2.546597 -5.07129,5.348267 -6.16403,10.788879 -0.90267,4.494234 3.28512,16.12249 3.28512,16.12249 l 0.95704,0.238281 c -3.19249,-0.154369 -5.87066,0.0014 -8.88292,0.125209 -1.3096,-2.014774 -4.29997,-11.233545 -5.01552,-13.610798 -0.89235,-2.964634 -0.66398,-7.164112 0.71875,-11.027344 1.38273,-3.863231 5.03178,-8.925541 7.91015,-11.02539 2.87838,-2.099849 5.24608,-2.407095 7.43165,-2.396485 2.18556,0.01061 3.72187,1.084389 5.0332,1.677735 1.31133,0.593345 1.44533,1.323882 2.87695,1.677734 1.43162,0.353852 5.51172,-0.240234 5.51172,-0.240234 0,0 -2.59608,0.17954 -3.59375,-0.238281 -0.99767,-0.417822 -0.53652,-1.009938 -2.1582,-1.917969 -1.62168,-0.908031 -4.99056,-2.388785 -7.91016,-2.396485 -2.9196,-0.0077 -5.6059,0.315565 -8.86914,2.634766 -3.26324,2.319201 -7.25297,7.870838 -8.62891,11.986328 -1.37593,4.11549 -1.81323,8.628263 -0.37505,11.744324 1.30545,2.828476 4.06746,12.268034 4.39102,13.343089 -1.05759,0.04055 -3.55463,0.498323 -4.62555,0.582188 -1.31606,-2.049715 -7.49981,-17.255115 -8.49784,-21.114913 -1.10197,-4.261775 -1.03416,-7.978853 -0.24023,-11.50586 0.79393,-3.527006 2.55899,-6.907244 4.55469,-9.109375 1.99569,-2.202131 4.14376,-3.188947 6.4707,-4.074219 2.32694,-0.885271 7.1914,-1.199218 7.1914,-1.199218 0,0 -5.06751,-1.11261 -7.66992,-0.478516 -2.6024,0.634094 -4.85893,1.817919 -7.1914,4.314453 -2.33248,2.496535 -4.67979,6.81184 -5.51368,10.785157 -0.83388,3.973316 -0.45042,8.039088 0.72071,12.224609 1.08368,3.872999 7.2689,19.06429 8.285,20.638455 -1.33059,0.141094 -1.38732,0.05849 -2.74953,0.284337 -0.27199,-0.554632 -1.35916,-3.70319 -2.39152,-5.248974 -1.03236,-1.545784 -5.48542,-8.915881 -7.22012,-11.119131 -2.78276,-3.534379 -5.98645,-8.950018 -7.66993,-13.421875 -1.68347,-4.471856 -2.63671,-12.945312 -2.63671,-12.945312 0,0 0.0276,9.213762 1.4375,13.664062 1.09715,3.463178 3.17797,7.002419 5.22851,10.019532 -0.98902,-0.969339 -2.11897,-1.909577 -3.31055,-2.589844 -3.78739,-2.162222 -11.24349,-3.592878 -15.82031,-4.074219 -3.42629,-0.360341 -8.03355,0.08606 -10.13476,0.333984 -5.45542,-0.700182 -9.09632,-0.540404 -13.83399,0.625 -0.5048,0.124175 -1.03813,0.315942 -1.55469,0.464844 1.06342,-1.446888 2.63039,-3.302829 4.43165,-4.300781 3.12121,-1.72925 8.70863,-0.441651 12.70312,-2.396484 3.99449,-1.954833 5.96284,-6.513094 10.30664,-9.109375 4.3438,-2.596282 11.89767,-5.172678 15.58008,-5.751954 3.68241,-0.579275 2.9185,0.668725 5.7539,0.240235 2.83541,-0.428491 6.18855,-3.043074 10.78516,-3.835938 4.59662,-0.792863 11.60515,-0.610671 16.12891,0.546875 4.52375,1.157547 5.97977,1.922154 10.47851,4.966797 4.49875,3.044643 12.59037,10.337438 16.29883,13.421875 3.70846,3.084437 4.17829,3.691617 5.99219,5.035156 1.8139,1.34354 2.92412,1.041054 4.79492,3.115235 1.8708,2.074181 3.14155,5.918618 5.0332,9.828125 1.89166,3.909507 4.82328,10.630924 6.23243,13.662109 1.40914,3.031185 1.13441,2.930057 2.15625,4.554688 1.02183,1.62463 2.70127,2.379159 4.07617,5.033203 1.3749,2.654044 1.98354,4.727848 3.11523,11.02539 1.13169,6.297543 1.71648,17.814748 2.1582,26.847658 0.44173,9.03291 0.44923,18.97392 0.47852,27.32422 0.0293,8.3503 -0.24023,22.77148 -0.24023,22.77148 l 1.91797,-1.4375 c 0,0 0.22667,-12.38525 0.24023,-20.61523 0.0136,-8.22998 0.24207,-20.08732 -0.24023,-28.76367 -0.48231,-8.67636 -1.53341,-17.182195 -2.39649,-23.250004 -0.86308,-6.067809 -1.48582,-10.605917 -2.39648,-13.183594 -0.91066,-2.577678 -0.40474,-0.967975 -1.43946,-2.636719 -1.03472,-1.668744 -3.5935,-4.381002 -5.0332,-7.189453 -1.4397,-2.808451 -2.06952,-6.547708 -3.35547,-9.587891 -1.28595,-3.040183 -2.67214,-5.867116 -4.31445,-8.630859 -1.64231,-2.763743 -2.03787,-4.17489 -5.51367,-7.908203 -3.47581,-3.733313 -10.19578,-8.721362 -16.29883,-13.183594 -6.10306,-4.462231 -13.55955,-11.283702 -20.375,-13.423828 -3.40773,-1.070063 -6.77757,-1.407817 -9.91797,-1.36914 z m -46.47852,27.109375 c 2.01859,0.0214 4.15303,0.121312 5.82032,0.386719 4.4461,0.707752 10.5172,2.428612 14.14257,4.314453 2.21027,1.149733 5.07295,3.81714 6.07618,4.822866 1.00323,1.005727 1.67195,2.298453 2.4084,3.154167 -2.23041,-1.49445 -6.90961,-4.407319 -11.83846,-6.297713 -6.06098,-2.324611 -14.37304,-5.322499 -20.61487,-6.234008 -0.2346,-0.03426 -0.41483,-0.04096 -0.64257,-0.07227 1.19967,-0.04501 2.83028,-0.09349 4.64843,-0.07422 z m -11.06445,1.328125 c 1.87809,-0.03683 4.04145,0.108555 6.81836,0.496094 7.40508,1.033437 21.57109,7.041545 27.80469,9.828125 5.30988,2.553128 9.09285,10.792662 11.3786,14.068143 -2.04026,0.174536 -3.11137,0.390389 -4.80543,0.679952 0,0 -6.36214,-7.319826 -13.76458,-10.193408 -5.86024,-2.274908 -15.98738,-3.49243 -23.49023,-3.595703 -7.50286,-0.103274 -15.52534,0.579669 -21.09375,2.636718 -5.56842,2.057049 -8.20923,4.195228 -11.98438,7.910156 -3.77514,3.714928 -9.82812,14.380859 -9.82812,14.380859 0,0 7.16009,-9.281465 11.02734,-12.703125 3.86725,-3.42166 6.37086,-5.878707 11.74414,-7.910155 5.37329,-2.031448 13.4342,-2.727238 20.13477,-2.636719 6.70056,0.09052 13.9828,2.24197 19.65625,3.117187 5.30665,0.818635 13.9982,9.218133 15.17568,9.737906 -4.70591,1.351051 -9.86149,3.895326 -14.20519,6.004136 -1.71256,0.831423 -3.84893,1.618616 -3.84893,1.618616 -1.05221,-0.395875 -12.82038,-6.956498 -19.75628,-6.71386 -6.92882,0.242392 -16.12154,4.707126 -22.1895,8.288748 -6.06797,3.581625 -9.91679,7.137214 -14.38086,11.50586 -3.29284,3.222448 -7.45412,8.495412 -9.89649,11.644531 0.80794,-2.468593 1.48036,-4.727948 1.88477,-6.513672 1.71625,-7.578253 1.34865,-11.119743 2.70313,-15.880859 1.35447,-4.761116 4.09014,-10.716933 7.46484,-15.617187 3.3747,-4.900255 7.26213,-8.859394 11.50586,-11.984375 4.24372,-3.124981 8.53302,-5.396459 13.42187,-6.712891 3.05554,-0.822769 5.3933,-1.393693 8.52344,-1.455077 z m 4.66797,43.08789 c 0,0 -10.96538,6.084148 -18.00391,11.421875 -7.03852,5.337723 -20.5581,13.831623 -25.53125,19.728523 -4.97314,5.89689 -4.39379,6.66068 -6.57617,12.3789 -2.18238,5.71823 -5.41601,22.05078 -5.41601,22.05078 0,0 4.93795,-16.54664 7.3496,-22.05078 2.41166,-5.50413 2.15669,-6.37287 6.18946,-11.21875 4.03276,-4.84587 12.57407,-10.31439 19.34375,-15.85938 6.76967,-5.544976 22.64453,-16.451168 22.64453,-16.451168 z m 0.95312,6.392578 c 0,0 -8.2631,8.76358 -13.54101,13.53907 -2.97833,2.69481 -11.10677,8.30143 -15.36005,11.24529 -3.28398,2.27297 -9.9101,11.04908 -9.9101,11.04908 0,0 7.38544,-8.40095 10.91181,-10.41207 4.57204,-2.60747 12.52557,-7.9772 15.52045,-10.72215 5.30479,-4.86209 12.3789,-14.69922 12.3789,-14.69922 z"
       sodipodi:nodetypes="ssssssscssssssccsscsssccsscssccssssscssssscsscssscsssccsscsscccsscsscssscsssssssssssssccssczsscsszczscszcccsssssscssssssccssscssscccsssssscssssssccsssscsssscczsscscsscscssssssssssssssssssccsssssssssssssssczsscssssccccsscsssscscssscsssssscssscsssccscsscssc"
       inkscape:label="blackLine" /><path
       id="path12870"
       style="display:inline;fill:#000000;fill-opacity:0.2;stroke:none;stroke-width:1px;stroke-linecap:butt;stroke-linejoin:miter;stroke-opacity:1"
       d="M 238.38477 33.90625 C 237.45493 33.96111 236.90461 34.168767 235.51953 34.320312 C 234.4772 34.434356 233.16407 34.589987 231.50586 34.783203 L 231.50391 34.783203 L 227.5625 35.910156 L 225.39844 37.876953 L 224.90625 38.648438 L 222.50586 42.730469 L 228.13477 41.158203 L 234.97266 40.337891 L 240.58008 40.884766 L 249.19727 43.347656 L 259.45508 46.630859 L 269.98633 51.554688 L 276.41406 57.025391 C 276.41406 57.025391 274.92992 53.341064 273.67969 51.554688 C 272.42946 49.768308 270.54517 47.974528 268.89258 46.494141 C 267.23999 45.013752 265.96436 43.998623 263.83203 42.664062 C 261.6997 41.329502 259.02008 39.953016 256.03516 38.697266 C 253.05022 37.441514 248.68748 36.038102 245.91406 35.277344 C 243.14066 34.516586 241.24378 34.003876 239.48633 33.910156 C 239.04697 33.886726 238.69471 33.88796 238.38477 33.90625 z M 232.89844 46.707031 C 232.06752 46.701031 231.23099 46.710634 230.39062 46.740234 C 227.02918 46.858784 223.5941 47.292058 220.11523 48.261719 C 213.92015 49.988473 209.71455 51.840731 202.31641 57.164062 L 193.03711 71.472656 L 189.55469 83.851562 L 186.84766 101.25977 L 180.6582 115.57227 L 169.53516 147.37109 L 180.29102 141.91211 L 180.29883 141.90625 C 180.3227 141.88183 188.5671 133.44962 193.71289 133.0957 C 198.86614 132.74126 199.22525 134.64035 202.90234 134.94336 C 203.36198 134.98124 203.84695 134.9934 204.34375 134.98633 C 204.83671 134.97931 205.34083 134.95232 205.8457 134.91406 C 205.84969 134.91376 205.85344 134.91436 205.85742 134.91406 C 205.95786 134.90641 206.04812 134.88943 206.14844 134.88086 C 209.02221 134.6352 211.79066 134.04775 212.21289 134.2832 L 208.57617 137.17188 L 204.88281 141.41211 C 204.88281 141.41211 205.5421 142.53704 207.21094 142.51758 C 209.45211 142.49144 211.92978 141.79422 213.72656 141.08398 C 213.79482 141.05675 213.88383 141.02672 213.94922 141 C 215.41989 139.95408 216.62808 139.12491 217.19336 138.8125 C 217.3504 138.72575 217.50697 138.60172 217.66406 138.49414 C 217.66438 138.49383 217.6657 138.49445 217.66602 138.49414 C 218.2636 137.91546 218.85979 137.28331 219.42383 136.6582 C 219.66448 136.3922 219.87211 136.14856 220.09375 135.89453 C 221.12481 134.69596 222.11719 133.48047 222.11719 133.48047 L 222.52734 130.88086 L 223.21094 127.87109 L 226.35547 122.12695 L 228.83594 117.64453 L 229.01367 117.50586 L 233.81641 114.0293 L 240.33398 109.96289 L 243.51953 83.076172 C 243.51953 83.076172 256.69209 73.910161 263.05664 71.083984 C 267.28736 69.20535 271.16843 67.802957 275.01562 66.769531 C 274.97063 66.671121 273.46177 63.381131 270.79297 60.640625 C 268.08411 57.858992 263.18636 53.732489 258.02734 51.355469 C 252.86835 48.978446 246.61502 47.666251 240.23242 47.099609 C 237.83896 46.887121 235.39119 46.725031 232.89844 46.707031 z " /><path
       id="path16533"
       style="fill:#000000;fill-opacity:0.2;stroke:none;stroke-width:1px;stroke-linecap:butt;stroke-linejoin:miter;stroke-opacity:1"
       d="M 306.09375 44.851562 C 306.09375 44.851562 303.55586 47.978523 303.08398 50.185547 C 302.6121 52.39257 303.2635 55.163197 303.76953 57.572266 C 304.27556 59.981334 306.09375 64.546875 306.09375 64.546875 L 310.88086 65.230469 C 310.88086 65.230469 307.60056 60.102918 306.77734 57.708984 C 305.95412 55.315052 305.46474 53.170926 305.27344 51.007812 C 305.08214 48.844699 306.09375 44.851562 306.09375 44.851562 z M 296.32422 45.941406 C 296.32422 45.941406 293.63959 50.680542 293.61719 53.677734 C 293.59482 56.674926 297.12305 64.330078 297.12305 64.330078 L 302.51367 64.123047 C 302.51367 64.123047 297.55187 58.459126 296.52734 55.361328 C 295.50281 52.26353 296.32422 45.941406 296.32422 45.941406 z M 228.68164 53.605469 L 221.84375 54.835938 L 208.16602 61.539062 C 208.16602 61.539062 220.03697 57.29832 225.125 56.888672 C 230.21303 56.479022 237.34983 56.142533 242.76953 56.478516 C 248.18925 56.814497 253.34805 57.806447 257.54102 58.666016 C 261.73397 59.525583 267.93555 61.402344 267.93555 61.402344 L 261.23242 57.162109 L 250.1543 54.835938 L 237.57227 53.742188 L 228.68164 53.605469 z M 323.875 56.888672 C 321.6856 57.045614 319.50377 59.641247 318.81445 61.539062 C 318.12513 63.436878 319.49805 66.736328 319.49805 66.736328 L 328.93555 71.660156 L 329.81445 72.337891 C 330.79251 72.927735 331.74154 73.516423 332.5293 74.044922 C 333.30371 74.564467 333.93814 75.036394 334.51758 75.490234 C 334.83406 75.735562 335.12971 75.979659 335.40234 76.210938 C 335.56218 76.347943 335.71683 76.483255 335.86523 76.617188 C 336.50709 77.191815 337.15414 77.844114 337.70508 78.429688 C 337.70633 78.431021 337.70773 78.432261 337.70898 78.433594 L 339.74023 80.001953 C 339.74023 80.001953 336.39362 71.908039 334.26953 68.650391 C 332.14543 65.392741 330.55997 62.134701 329.07227 60.443359 C 327.58455 58.752021 326.0644 56.731729 323.875 56.888672 z M 232.88281 68.376953 L 223.21094 72.246094 L 212.37891 77.662109 C 212.37891 77.662109 225.64757 72.646446 230.19336 72.179688 C 234.73914 71.712929 237.53071 72.38316 241.14648 72.542969 C 245.91649 72.753792 250.27148 73.769531 250.27148 73.769531 L 239.07227 68.376953 L 232.88281 68.376953 z " /></g></svg>
