<?xml version="1.0" encoding="UTF-8" standalone="no"?>
<!-- Created with Inkscape (http://www.inkscape.org/) -->

<svg
   version="1.1"
   id="svg86386"
   width="400"
   height="400"
   viewBox="0 0 400 400"
   sodipodi:docname="HairSidePart.svg"
   inkscape:version="1.2.2 (b0a8486, 2022-12-01)"
   xmlns:inkscape="http://www.inkscape.org/namespaces/inkscape"
   xmlns:sodipodi="http://sodipodi.sourceforge.net/DTD/sodipodi-0.dtd"
   xmlns="http://www.w3.org/2000/svg"
   xmlns:svg="http://www.w3.org/2000/svg">
  <defs
     id="defs86390" />
  <sodipodi:namedview
     id="namedview86388"
     pagecolor="#ffffff"
     bordercolor="#666666"
     borderopacity="1.0"
     inkscape:showpageshadow="2"
     inkscape:pageopacity="0.0"
     inkscape:pagecheckerboard="0"
     inkscape:deskcolor="#d1d1d1"
     showgrid="false"
     inkscape:zoom="1.475"
     inkscape:cx="182.71186"
     inkscape:cy="200"
     inkscape:window-width="1440"
     inkscape:window-height="810"
     inkscape:window-x="2603"
     inkscape:window-y="186"
     inkscape:window-maximized="0"
     inkscape:current-layer="g86394">
    <inkscape:page
       x="0"
       y="0"
       id="page86392"
       width="400"
       height="400" />
  </sodipodi:namedview>
  <g
     id="g86394"
     inkscape:groupmode="layer"
     inkscape:label="Page 1">
    <path
       d="m 345.10612,86.264941 c -0.204,-0.696 -0.444,-1.389333 -0.71333,-2.058666 -0.77067,-1.928 -1.58533,-4.186667 -2.464,-6.621334 -3.796,-10.530666 -8.996,-24.953332 -17.51066,-30.893332 -11.30134,-7.885333 -35.156,-21.230666 -52.87867,-21.230666 -18.95333,0 -47.856,10.053333 -53.46667,14.802666 -6.27066,5.305333 -10.57066,13.254666 -10.61466,13.338666 l -0.16267,0.306667 -0.236,0.254667 c -0.58133,0.628 -1.26533,1.521333 -1.78533,2.333333 l -0.74134,1.157333 c -0.93066,0.761334 -1.164,2.024 -1.252,3.4 -0.88133,0.870667 -1.8,2.501333 -3.40799,5.522667 -1.012,1.9 -2.27067,4.265333 -3.92267,7.029333 -4.96133,8.313333 -2.73467,26.255999 -1.108,39.371995 0.29067,2.34534 0.56933,4.592 0.79867,6.684 0.30533,2.78 0.86,5.75734 1.69733,9.10267 l 1.14133,4.55467 1.424,-4.47467 c 0.14133,-0.44667 0.31067,-0.85733 0.5,-1.22267 0.99467,-1.9 2.456,-2.67066 3.508,-2.98266 1.98267,-0.58934 3.83867,-0.888 5.516,-0.888 3.65333,0 5.804,2.78533 8.088,7.27733 0.25333,0.50133 1.88133,3.6 2.37733,4.492 l 1.26267,2.27333 1.10933,-2.352 c 2.864,-6.076 8.48,-17.188 13.90934,-23.34 0.45466,-0.51333 0.84666,-0.95733 1.16266,-1.32533 3.15334,-3.656 7.064,-10.352 7.70667,-17.185332 0.61467,-6.526667 5.02667,-15.714667 6.36667,-18.38 0.47333,-0.764 0.91733,-1.570667 1.65733,-2.229333 0.412,-0.368 0.912,-0.76 1.41733,-1.184 1.556,-0.02933 3.12534,-0.477333 4.792,-1.386667 l 0.468,-0.254666 0.52667,-0.056 c 0.10533,-0.01067 1.07733,-0.108 2.64933,-0.108 3.536,0 7.02934,0.122666 10.88134,1.592 l 0.304,0.116 0.32266,-0.03733 c 0.0213,-0.0027 2.11334,-0.238666 4.19734,-0.238666 1.15866,0 2.07866,0.07067 2.73466,0.210666 2.50534,0.533334 4.58267,1.089334 6.57334,2.066667 1.208,0.593333 2.25466,1.201333 3.2,1.858666 0.74133,0.514667 1.42933,1.146667 2.15733,1.813334 0.61733,0.564 1.256,1.149333 1.94933,1.68 1.03067,0.789333 2.176,1.253333 3.284,1.702666 0.66667,0.269334 1.29867,0.525334 1.868,0.837334 1.812,0.993333 3.72134,1.846666 5.67467,2.538666 3.97467,1.406667 8.08,2.138667 12.20267,2.177334 2.624,0.024 5.30533,0.486666 7.89866,0.933333 2.76,0.476 5.61467,0.968 8.50933,0.968 v 0 c 1.27867,0 2.46667,-0.092 3.62934,-0.284 l 0.152,-0.02533 c 0.92266,-0.152 1.79333,-0.297333 2.65333,-0.297333 0.82933,0 1.61733,0.106667 2.344,0.317333 l 2.33733,0.678667 z"
       style="fill:#383838;fill-opacity:1;fill-rule:nonzero;stroke:none;stroke-width:1.33333"
       id="path88930" />
    <path
       d="m 345.49946,86.234808 c -0.10667,-1.181333 -1.98934,-0.909333 -3.09067,-1.005333 -8.12,-0.709334 -16.60933,-2.82 -24.26266,-5.622667 -2.17734,-0.797333 -4.49734,-1.382667 -6.576,-2.433333 -4.33867,-2.194667 -8.864,-3.534667 -13.29734,-5.434667 -4.52666,-1.941333 -9.916,-2.413333 -14.64933,-3.633333 -6.91467,-1.784 -13.49067,-2.854667 -20.65733,-2.750667 1.28,-1.122666 6.54,-1.742666 6.50933,-3.134666 -1.58133,0.177333 -3.66533,-0.845334 -5.17733,-1.232 -2.84134,-0.729334 -5.67467,-1.417333 -8.55867,-1.976 -5.19733,-1.006667 -10.17733,-1.24 -15.46267,-1.168 -4.32266,0.05867 -2.86666,-1.314667 -0.052,-3.012 -1.912,-1.145333 -5.35466,-0.649333 -7.616,-0.649333 -3.272,0 -6.54666,0.58 -9.8,0.313333 1.39867,-1.476 3.10934,-2.973333 4.79467,-4.242667 1.69333,-1.276 5.01867,-2.638666 6.004,-4.419999 -3.62933,-0.164 -6.38267,1.019999 -9.764,2.003999 -3.08,0.896 -6.592,1.469334 -9.38533,2.84 1.55866,-3.506666 5.53733,-5.801333 8.292,-8.505333 -3.76534,1.276 -7.54934,2.901334 -10.744,5.302667 -3.208,2.412 -4.64934,5.772 -6.732,9.021333 -0.37867,0.593333 -1.27334,3.745333 -1.62267,3.902666 1.85733,-0.834666 14.59467,-3.853333 14.46933,-0.178666 2.73334,-0.745333 5.24,-1.184 8.08267,-0.284 1.76133,0.558666 0.97733,0.532 1.752,1.642666 0.584,0.837334 -0.148,0.666667 1.1,1.292 0.66133,0.330667 1.64267,0.376 2.36667,0.501334 0.85066,0.148 8.984,1.716 9.144,1.485333 -0.332,0.476 -0.80134,1.008 -1.00134,1.5 0.44934,-1.101333 6.472,1.306667 7.064,1.782667 -1.51333,0.153333 -2.36133,-0.632 -3.78,-0.712 -2.208,-0.124 -3.86,0.970666 -5.732,1.846666 -1.53333,0.717334 -4.276,0.934667 -5.40266,2.326667 1.12533,-1.389333 3.26666,-3.162667 3.79866,-4.828 -1.36533,0.03867 -2.66,-0.48 -4.012,-0.501333 -1.19733,-0.01733 -1.77333,0.504 -2.80666,0.788 -0.664,0.182666 -6.716,0.710666 -6.74134,0.866666 0.19734,-1.213333 1.096,-2.190666 0.99734,-3.602666 -0.97734,0.09733 -8.08134,1.58 -8.18134,2.884 0.11734,-1.533334 1.488,-3.346667 2.256,-4.642667 -1.996,1.065333 -4.45733,1.006667 -6.436,2.393333 -2.35733,1.652 -4.32533,4.848 -5.98933,7.282667 -0.89067,1.301333 -1.96133,2.230666 -2.90933,3.490666 -0.55734,0.742667 -0.60667,1.753334 -1.52134,2.157334 -0.004,-1.190667 0.388,-2.484 -0.0613,-3.636 -0.29466,-0.754667 -4.93733,4.98 -5.23066,5.573333 -1.48267,3.002667 -1.90934,5.424 -1.96,8.793333 -0.124,8.150667 0.924,16.285329 1.92533,24.357329 0.29067,2.34667 0.56933,4.59334 0.79867,6.68534 0.30533,2.77866 0.86,5.756 1.69733,9.10133 l 1.14133,4.556 1.424,-4.47467 c 0.14133,-0.44666 0.31067,-0.85866 0.5,-1.22266 0.99467,-1.9 2.456,-2.67067 3.508,-2.984 1.98267,-0.58934 3.83867,-0.888 5.516,-0.888 3.65333,0 5.804,2.78666 8.088,7.27866 0.25333,0.50134 1.88133,3.6 2.37733,4.492 l 1.26267,2.27334 1.10933,-2.35334 c 2.864,-6.076 8.48,-17.188 13.90934,-23.33866 0.45466,-0.51334 0.84666,-0.95867 1.16266,-1.32534 3.15334,-3.65733 7.064,-10.352 7.70667,-17.185329 0.61467,-6.526667 5.02667,-15.714666 6.36667,-18.38 0.47466,-0.764 0.91733,-1.572 1.65733,-2.229333 0.412,-0.368 0.912,-0.761333 1.41733,-1.185333 1.556,-0.028 3.12534,-0.476 4.792,-1.385333 l 0.468,-0.254667 0.52667,-0.056 c 0.10533,-0.01067 1.07733,-0.108 2.64933,-0.108 3.536,0 7.02934,0.121333 10.88134,1.590667 l 0.304,0.116 0.32266,-0.036 c 0.0213,-0.0027 2.11334,-0.238667 4.19734,-0.238667 1.15866,0 2.07866,0.07067 2.73466,0.209333 2.50534,0.533334 4.58267,1.089334 6.57334,2.068 1.208,0.593333 2.256,1.201333 3.20133,1.858667 0.74,0.514666 1.428,1.145333 2.156,1.813333 0.61733,0.564 1.256,1.148 1.94933,1.678667 1.03067,0.789333 2.176,1.253333 3.284,1.702666 0.66667,0.270667 1.29867,0.526667 1.868,0.838667 1.812,0.992 3.72134,1.846667 5.67467,2.538667 3.97467,1.406666 8.08,2.138666 12.20267,2.177333 2.624,0.024 5.30533,0.486666 7.89866,0.933333 2.76,0.476 5.61467,0.968 8.50933,0.968 1.27867,0 2.46667,-0.09333 3.62934,-0.284 l 0.152,-0.02533 c 1.584,-0.262667 6.412,0.950666 6.97066,-1.070667 0.064,-0.232 0.084,-0.429333 0.0693,-0.597333"
       style="opacity:0.199997;fill:#000000;fill-opacity:1;fill-rule:nonzero;stroke:none;stroke-width:1.33333"
       id="path88940" />
    <path
       d="m 341.11332,86.272141 c -1.02133,0 -2.02133,0.174667 -3.024,0.34 -6.70266,1.105333 -13.13733,-1.573333 -19.80666,-1.634666 -4.004,-0.03733 -7.996,-0.765334 -11.77067,-2.101334 -1.888,-0.668 -3.72266,-1.488 -5.47866,-2.450666 -1.608,-0.881334 -3.51067,-1.304 -4.98267,-2.430667 -1.44,-1.101333 -2.67733,-2.5 -4.15467,-3.528 -1.06933,-0.742667 -2.20666,-1.386666 -3.37466,-1.961333 -2.20134,-1.081333 -4.50134,-1.666667 -6.88267,-2.173333 -2.552,-0.544 -7.36133,0.0067 -7.36133,0.0067 -4.12667,-1.574666 -7.89067,-1.678666 -11.35734,-1.678666 -1.336,0 -2.29333,0.04533 -3.392,0.581333 -0.13866,0.06667 -0.28,0.142667 -0.424,0.226667 -1.47733,0.86 -3.30933,1.102666 -4.94133,1.533333 -0.80533,0.212 -1.63733,0.193333 -2.41867,-0.03733 -0.73333,-0.217334 -1.58266,-0.313334 -2.23466,-0.74 -0.70134,-0.458667 -0.90534,-0.748 -1.79734,-0.936 -0.036,-0.533334 0.892,-0.897334 0.71467,-1.489334 -0.14933,-0.504 -1.32533,-0.684 -1.708,-0.789333 -1.888,-0.525333 -3.78667,-1.076 -5.64267,-1.610667 -0.14933,-0.817333 1.028,-0.912 1.42134,-1.472 -2.14,-0.438666 -4.192,-1.381333 -6.392,-1.478666 -2.65734,-0.117334 -5.352,0.05067 -8.008,-0.09867 0.23466,-0.745333 1.13866,-1.370667 1.58666,-2.026667 -0.164,-0.122666 -0.38933,-0.169333 -0.56133,-0.124 -0.096,0.024 -0.77333,-0.365333 -0.944,-0.419999 -0.56133,-0.184 -1.14533,-0.318667 -1.72133,-0.448 -1.64934,-0.370667 -3.95734,-0.9 -5.64267,-0.465334 0.236,-0.06133 0.54,-0.194666 0.672,-0.449333 0.0413,-0.08133 -3.252,-0.441333 -3.47333,-0.445333 -1.124,-0.01733 -2.252,-0.0027 -3.37467,0.05733 -0.47867,0.02533 -0.86,0.09467 -1.31867,0.209333 -0.21866,0.05467 -1.28133,0.166667 -1.39066,0.288 0.47066,-0.516 1.348,-1.222666 1.41866,-1.958666 -0.0107,0.112 -3.13333,-0.03333 -3.46533,-0.01333 -1.21333,0.07467 -2.30933,0.525334 -3.42533,0.973334 -0.86267,0.346666 -1.724,1.318666 -2.644,1.482666 0.516,-0.812 1.084,-1.678666 1.75066,-2.422666 1.01867,-1.14 2.172,-2.272 3.33334,-3.262667 1.08,-0.921333 1.60933,-2.208 2.41466,-3.374667 2.18667,-3.165333 4.67867,-6.178666 7.62134,-8.669333 5.492,-4.646666 33.908,-14.485333 52.60666,-14.485333 17.39067,0 40.94134,13.194667 52.11467,20.990666 8.16667,5.697334 13.284,19.889333 17.02,30.252 0.87333,2.418666 1.696,4.704 2.48,6.664 0.26,0.646666 0.48266,1.294666 0.67333,1.94 -0.80667,-0.233334 -1.70933,-0.369334 -2.71467,-0.369334 M 215.66799,58.668142 c -1.112,0.528 -2.836,1.401333 -3.312,2.648 0.85467,0.174666 1.83867,-0.324 2.63734,-0.526667 1.78266,-0.454667 3.65466,-0.438667 5.48,-0.676 1.06533,-0.14 2.00133,-0.328 3.10133,-0.276 0.76267,0.03733 1.41867,0.225333 2.12133,0.412 0.56267,0.149333 1.48934,0.210667 1.81867,0.750667 -0.72533,0.890666 -1.82133,1.218666 -2.32133,2.244 1.68133,0.146666 3.30933,0.696 4.98666,0.889333 1.79067,0.205333 3.532,0.38 5.34,0.378667 0.72934,-0.0013 1.316,0.110666 2.012,0.292 0.68934,0.178666 1.808,0.581333 2.51867,0.493333 -0.65867,0.616 -2.59067,0.989333 -2.80267,1.956 0.71867,-0.02533 1.568,0.170667 2.31867,0.192 1.38267,0.03867 2.59067,-0.457333 4.004,-0.221333 0.56267,0.09333 1.99067,0.165333 2.33333,0.681333 -0.60266,0.861333 -2.288,0.752 -2.73466,1.764 0.68933,0.04133 1.33333,0.012 1.97333,0.148 0.364,0.07733 0.512,-0.148 0.61733,0.277333 0.052,0.210667 -0.22533,0.524 -0.32666,0.68 -0.404,0.614667 -0.788,1.093334 -1.028,1.828 -0.21867,0.666667 -0.33467,1.352 -0.75867,1.924 0.70267,-0.528 1.10933,-1.334666 1.87467,-1.836 0.46,-0.302666 0.94,-0.608 1.456,-0.746666 0.132,0.744 -0.472,1.735999 -0.73867,2.414666 -0.348,0.890667 -0.7,1.797333 -1.232,2.636 -0.76667,1.209333 -1.57733,2.416 -2.38133,3.584 0.44666,-0.918667 1.68,-1.688 2.452,-2.358667 0.76266,-0.662666 1.67733,-1.209333 2.46133,-1.892 0.92667,-0.806666 2.04667,-1.449333 2.87067,-2.249333 -0.20534,1.701333 -1.052,3.572 -2.08134,4.890667 -0.46933,0.601333 -0.78933,1.258666 -1.18666,1.869333 -0.36134,0.554667 -1.028,1.493333 -1.17067,2.098667 0.42533,-0.302667 0.92667,-0.770667 1.35067,-1.013334 -0.176,0.789334 -0.652,1.964 -1.10934,2.66 -1.524,2.32 -2.088,5.521333 -2.42933,8.268 -0.0253,0.205333 -0.048,0.409333 -0.0667,0.614667 -0.61333,6.518666 -4.36266,12.930662 -7.38933,16.440002 -0.312,0.36266 -0.70133,0.804 -1.15067,1.312 -5.492,6.22133 -11.048,17.14133 -14.11733,23.65466 -0.488,-0.87733 -2.10133,-3.948 -2.35467,-4.44666 -2.02933,-3.99334 -4.49466,-8.00934 -9.27733,-8.00934 -1.804,0 -3.788,0.31734 -5.89467,0.944 -1.29733,0.38534 -3.09866,1.33067 -4.30933,3.64267 -0.23066,0.44133 -0.42666,0.92133 -0.59066,1.436 -0.74134,-2.95867 -1.34,-5.95867 -1.66534,-8.924 -0.23066,-2.10133 -0.51066,-4.35867 -0.80266,-6.716 -1.076,-8.672 -2.25467,-17.458666 -1.864,-26.215999 0.16,-3.585333 0.552,-7.332 1.97333,-10.664 0.78,-1.826666 1.624,-4.127999 2.52667,-5.897333 1.064,-2.086666 2.30266,-3.538666 3.62266,-5.484 0.59067,-0.870666 1.38533,-1.472 2.12533,-2.216 -0.23866,0.584 -0.61066,1.062667 -0.96133,1.56 -0.82667,1.170667 -1.336,2.565334 -1.96,3.852 -0.57067,1.173334 -0.90667,2.428 -1.312,3.636 0.392,-1.166666 1.584,-2.494666 2.26,-3.550666 0.748,-1.170667 1.604,-2.272 2.55333,-3.286667 1.07067,-1.146667 2.25867,-2.184 3.53867,-3.089333 1.33867,-0.945334 2.624,-1.493333 4.108,-2.065333 0.91067,-0.352 1.992,-0.282667 2.89333,-0.710667 m 131.20133,24.547999 c -4.18533,-10.462666 -9.67866,-30.865332 -20.92533,-38.711999 -11.24666,-7.846666 -35.572,-21.709333 -54.404,-21.709333 -18.83333,0 -48.38933,9.677334 -55.18933,15.432 -6.80133,5.754667 -11.248,14.124 -11.248,14.124 0,0 -4.58133,4.965333 -3.12267,7.337333 -0.96133,0.952 -1.692,2.26 -2.27866,3.297333 -1.824,3.229333 -3.44267,6.566667 -5.32267,9.768 -6.14666,10.462666 -2.22266,32.563995 -0.65333,47.079995 1.56933,14.51734 9.28533,29.688 8.5,35.44267 -0.784,5.75333 -2.876,6.27733 -2.61467,8.23867 0.26134,1.96133 7.192,-2.48534 7.192,-2.48534 l 0.524,-5.23066 c 0,0 -9.024,-26.68 -2.09333,-28.772 6.932,-2.092 9.94,0.52266 11.248,3.13866 1.308,2.616 6.408,11.50934 6.408,11.50934 -1.7,-9.67867 12.424,-24.84934 16.08533,-29.164 3.66267,-4.316 7.45467,-11.37867 8.10933,-18.440002 0.65334,-7.062667 6.27734,-17.917333 6.27734,-17.917333 0.30133,-0.452 0.55866,-1.092 0.608,-1.704 2.04266,0.06533 4.20133,-0.396 6.584,-1.696 0,0 17.264,-1.830667 27.988,10.724 10.724,12.554666 24.32533,20.662665 36.88,20.139995 0,0 -22.49467,-5.754662 -31.91067,-18.570662 -7.256,-9.876 -11.71333,-11.830666 -13.37733,-12.206666 2.34266,0.337333 9.88533,1.999999 15.99333,9.851999 7.32267,9.416 23.27867,14.386667 23.27867,14.386667 0,0 -17.26267,-9.678667 -20.40134,-14.386667 0,0 18.57067,9.678667 29.81734,7.846667 l -6.016,-2.877334 c 0,0 10.72399,4.185334 16.21733,2.877334 5.492,-1.308 6.53866,2.616 6.53866,2.616 l 1.56934,10.985332 c 0,0 3.924,-10.462666 -0.26134,-20.923999"
       style="fill:#000000;fill-opacity:1;fill-rule:nonzero;stroke:none;stroke-width:1.33333"
       id="path88950" />
  </g>
</svg>
