<?xml version="1.0" encoding="UTF-8" standalone="no"?>
<!-- Created with Inkscape (http://www.inkscape.org/) -->

<svg
   width="400"
   height="400"
   viewBox="0 0 400 400"
   version="1.1"
   id="svg1"
   xml:space="preserve"
   inkscape:version="1.3 (0e150ed, 2023-07-21)"
   sodipodi:docname="PakledBalding.svg"
   xmlns:inkscape="http://www.inkscape.org/namespaces/inkscape"
   xmlns:sodipodi="http://sodipodi.sourceforge.net/DTD/sodipodi-0.dtd"
   xmlns="http://www.w3.org/2000/svg"
   xmlns:svg="http://www.w3.org/2000/svg"><sodipodi:namedview
     id="namedview1"
     pagecolor="#ffffff"
     bordercolor="#666666"
     borderopacity="1.0"
     inkscape:showpageshadow="2"
     inkscape:pageopacity="0.0"
     inkscape:pagecheckerboard="0"
     inkscape:deskcolor="#d1d1d1"
     inkscape:document-units="px"
     inkscape:zoom="6.3215346"
     inkscape:cx="320.25451"
     inkscape:cy="66.597753"
     inkscape:window-width="2096"
     inkscape:window-height="1107"
     inkscape:window-x="2161"
     inkscape:window-y="128"
     inkscape:window-maximized="0"
     inkscape:current-layer="svg1" /><defs
     id="defs1" /><g
     inkscape:groupmode="layer"
     id="layer3"
     inkscape:label="Hair Back"><path
       style="fill:#383838;stroke:none;stroke-width:1px;stroke-linecap:butt;stroke-linejoin:miter;stroke-opacity:1;fill-opacity:1"
       d="m 308.62759,43.185716 10.28231,1.581895 7.43491,2.847409 3.95473,4.112926 3.95474,1.581894 3.16379,5.062062 1.26551,4.112925 3.0056,3.638358 0.94914,3.005599 2.05646,3.321978 0.79095,4.903873 -0.15819,3.321978 2.05646,5.378441 0.94914,6.485766 -1.74008,9.0168 -1.42371,3.95473 -12.49696,-35.43443 -17.24265,-20.881005 z"
       id="path50" /><path
       id="path45"
       style="color:#000000;fill:#000000;-inkscape-stroke:none"
       d="M 316.60156 43.931641 C 315.10971 43.942439 312.30859 44.517578 312.30859 44.517578 C 312.30859 44.517578 315.92828 45.038943 316.67578 45.207031 C 318.33323 45.579736 320.62383 46.206726 322.83008 46.912109 C 324.23033 47.359798 326.93766 48.686137 328.73438 50.574219 C 329.89958 51.798671 330.56681 54.044885 330.58008 55.873047 L 330.61719 60.904297 L 331.9375 55.919922 C 332.03028 54.930336 331.97615 53.876348 331.74414 52.859375 C 331.96658 53.031448 332.19563 53.201825 332.42773 53.357422 C 333.67886 54.196147 335.04716 55.709882 335.62305 56.5 C 336.81416 58.134226 337.43531 60.29775 337.68164 62.423828 C 337.80358 63.47633 337.62564 65.325627 337.39648 66.845703 C 337.16729 68.365781 336.89453 70.431641 336.89453 70.431641 C 336.89453 70.431641 338.84015 68.678048 339.07812 67.099609 C 339.22886 66.099855 339.36964 64.983411 339.41211 63.9375 C 340.3497 65.236783 341.30832 66.885418 341.48633 67.857422 C 341.76238 69.364755 341.33856 71.432364 340.88867 73.498047 C 340.56201 74.997883 340.10742 77.986328 340.10742 77.986328 C 340.10742 77.986328 341.70206 75.154332 342.04492 73.580078 C 342.24121 72.678857 342.65407 71.692733 342.94141 70.626953 C 343.33915 71.488986 343.36479 72.169605 343.5625 72.847656 C 344.25786 75.232373 344.70475 77.752401 344.33008 80.066406 C 344.17132 81.04694 343.45243 82.703202 342.76562 84.033203 C 342.07883 85.363205 342.16211 86.847656 342.16211 86.847656 C 342.16211 86.847656 343.55652 86.206557 344.27539 84.814453 C 344.72009 83.953294 345.18925 82.988337 345.53711 82.041016 C 345.7159 82.685287 345.91808 83.431345 346.13086 84.291016 C 346.67616 86.494136 347.2191 89.172821 347.24805 90.841797 C 347.28335 92.877044 347.29795 95.835223 346.73438 98.505859 C 346.1708 101.1765 345.86133 103.80273 345.86133 103.80273 C 345.86133 103.80273 347.26585 101.8567 347.83984 99.136719 C 348.41384 96.416742 348.99 93.165529 348.94922 90.8125 C 348.91472 88.825762 348.33866 86.13488 347.78125 83.882812 C 347.39477 82.321347 346.56281 80.650936 346.08398 79.761719 C 346.36866 77.239172 345.87293 74.695082 345.19531 72.371094 C 344.88869 71.319514 344.23847 70.052517 343.66016 68.992188 C 343.52326 68.741185 343.38006 68.527519 343.24219 68.34375 C 343.23238 68.083639 343.20724 67.820495 343.1582 67.552734 C 342.86778 65.966891 341.77505 64.303451 340.77734 62.923828 C 340.12064 62.015741 339.51794 61.284249 339.16406 60.867188 C 338.81297 58.982618 338.15872 57.090517 336.99805 55.498047 C 336.13281 54.310934 334.6315 53.219505 333.31641 52.337891 C 332.71451 51.934389 331.9643 51.685817 331.32227 51.529297 C 331.00084 50.748654 330.55589 50.021391 329.9668 49.402344 C 327.82899 47.155834 325.99102 46.277541 323.02539 45.208984 C 321.81319 44.772213 318.65468 44.032196 316.88086 43.9375 C 316.79425 43.932876 316.70102 43.930921 316.60156 43.931641 z " /><path
       style="fill:#000000;fill-opacity:0.2;stroke:none;stroke-width:1px;stroke-linecap:butt;stroke-linejoin:miter;stroke-opacity:1"
       d="m 309.57673,43.502095 c 0,0 9.55479,3.378483 14.71162,6.802146 1.95721,1.299411 3.34385,3.301713 5.06206,4.903872 2.02091,1.884412 4.35405,3.453461 6.16939,5.536631 1.54693,1.775157 2.79847,3.801854 3.95473,5.853009 1.11222,1.973032 2.10584,4.0293 2.84741,6.169388 0.81656,2.356494 1.00081,4.894845 1.74008,7.276714 0.65312,2.104298 1.9003,4.017333 2.37285,6.169388 0.52132,2.374162 0.56545,4.84769 0.47456,7.276714 -0.14137,3.778125 -1.58189,11.231453 -1.58189,11.231453 L 332.67239,69.761542 Z"
       id="path53"
       sodipodi:nodetypes="cssssssssccc" /></g><g
     inkscape:groupmode="layer"
     id="layer2"
     inkscape:label="Hair"><path
       style="fill:#383838;fill-opacity:1;stroke:none;stroke-width:0.999999px;stroke-linecap:butt;stroke-linejoin:miter;stroke-opacity:1"
       d="m 219.91727,143.80826 c 0,0 -1.66006,-4.78899 -2.52143,-9.19419 -0.25618,-1.3102 -0.45142,-2.67621 -1.19205,-3.78695 -1.16901,-1.75322 -3.3697,-2.68536 -5.37844,-3.32198 -3.32364,-1.05335 -6.68535,0.32689 -10.10494,-0.35312 -1.58647,-0.31548 -3.53466,-1.03167 -4.92307,-1.86156 -1.6015,-0.95724 -3.29423,-2.11998 -4.11293,-3.79654 -1.11445,-2.28224 -0.49098,-5.05726 -0.63276,-7.5931 -0.10306,-1.84342 0.15731,-3.71484 0.45704,-5.53664 0.2465,-1.49807 1.10739,-2.75943 0.96668,-4.27111 -0.26109,-2.80496 -1.77845,-5.210209 -1.74008,-7.909478 0.0125,-0.869556 0.64725,-1.661512 0.63276,-2.531034 -0.0257,-1.535302 -1.10688,-2.902006 -1.26552,-4.429307 -0.0765,-0.736139 0.22745,-1.477804 0.15817,-2.214653 -0.17359,-1.846422 -1.42127,-3.523887 -1.4237,-5.378445 -0.003,-2.289349 1.17244,-5.15317 1.74008,-7.371029 0.32346,-1.263731 0.43566,-2.203156 0.78136,-3.46098 0.29178,-1.061662 0.82111,-1.711737 1.11692,-2.772289 0.45355,-1.626112 0.2242,-3.57511 1.26552,-4.903876 0.48022,-0.612794 1.57304,-0.497049 2.05646,-1.107326 0.88159,-1.112932 0.41539,-2.873154 1.10733,-4.11293 0.59992,-1.07491 1.9082,-1.62742 2.53103,-2.689223 0.53158,-0.906233 0.29824,-2.180868 0.94914,-3.005599 0.76192,-0.965417 2.32816,-0.995899 3.16378,-1.898273 0.24034,-0.25954 0.2315,-0.692175 0.47457,-0.949138 0.5843,-0.617662 1.57724,-0.702823 2.21465,-1.265515 0.79061,-0.697936 1.04275,-1.9144 1.89829,-2.531034 0.54108,-0.389991 1.41799,-0.169928 1.89827,-0.632758 0.32439,-0.312605 0.42257,-0.756151 0.81014,-0.985871 0.96223,-0.570354 1.951,0.618146 2.98641,0.19491 1.04457,-0.42697 1.24946,-1.570546 2.11239,-2.297724 0.9559,-0.80552 2.27968,-0.938139 3.26605,-2.131583 1.69468,-2.050437 3.78597,-3.880748 6.16939,-5.062063 3.88475,-1.925428 8.33392,-2.651497 12.65516,-3.005602 2.26531,-0.185632 5.65801,-1.48935 6.80216,0.474569 0.67673,1.161601 -0.90413,2.585529 -1.74009,3.638359 -0.62986,0.793258 -1.78553,1.073019 -2.37284,1.898274 -1.0057,1.413149 -0.4804,3.71155 -1.74008,4.903874 -0.6786,0.642312 -2.03353,0.125292 -2.68923,0.79095 -2.07381,2.10538 -1.53228,5.709071 -2.37284,8.542233 -0.8965,3.021719 -2.22657,5.926651 -2.84741,9.016806 -0.68833,3.426061 -0.94914,6.94599 -0.94914,10.440509 0,3.49452 0.23365,7.02002 0.94914,10.44051 0.68282,3.264278 1.68188,6.503785 3.16379,9.491371 1.16333,2.3453 3.38835,4.083653 4.42931,6.485772 0.3866,0.892124 0.74308,1.8814 0.63276,2.847413 -0.15255,1.33567 -1.07177,2.4719 -1.7401,3.63836 -2.24659,3.92111 -5.2546,7.36444 -7.59309,11.23146 -2.88109,4.76428 -6.04096,9.46684 -7.90948,14.71163 -1.11752,3.13679 -1.29659,6.53263 -1.89827,9.80774 -0.22242,1.21073 -0.24125,3.80616 -0.24125,3.80616 z"
       id="path43"
       sodipodi:nodetypes="csssssssssssssssssssssssssssssssssssssssssssssssssc" /><path
       style="fill:#383838;fill-opacity:0.3;stroke:none;stroke-width:0.999999px;stroke-linecap:butt;stroke-linejoin:miter;stroke-opacity:1"
       d="m 263.11163,31.10059 c 0.97255,-0.974836 7.62771,-0.403195 11.40941,0 5.80299,0.618699 11.61594,1.734793 17.1141,3.691277 4.10034,1.45908 8.56745,2.839172 11.63312,5.928415 0.646,0.650971 1.34497,1.550926 1.23043,2.460852 -0.18486,1.468608 -1.82535,2.346634 -2.90829,3.355708 -1.50033,1.397996 -2.97338,3.051396 -4.9217,3.691275 -4.00307,1.314709 -8.44363,0.269027 -12.63983,-0.111837 -3.46751,-0.314721 -7.20683,-0.173669 -10.29083,-1.789709 -3.01263,-1.578646 -5.36255,-4.382565 -7.15885,-7.270701 -1.85586,-2.983909 -5.94939,-7.467619 -3.46756,-9.95528 z"
       id="path42"
       sodipodi:nodetypes="sssssssssss" /><path
       id="path1"
       style="color:#000000;fill:#000000;stroke-width:3.77953;-inkscape-stroke:none"
       d="m 240.84167,31.023923 c -2.17389,0.0022 -4.66837,0.11166 -6.54883,0.441407 -3.64911,0.639884 -7.27649,1.825597 -10.54689,3.632814 -1.288,0.711756 -2.43731,1.941824 -3.625,3.255861 -1.10487,1.222417 -2.72266,3.4668 -2.72266,3.4668 0,0 2.05571,-1.594666 3.38673,-2.464847 1.49948,-0.980323 3.00741,-1.883289 3.97851,-2.419922 1.03224,-0.570412 2.11898,-1.052723 3.22461,-1.496095 1.25687,0.659867 2.93274,1.590583 3.82618,2.308595 1.37786,1.107323 3.46846,3.585387 4.49609,4.841801 -0.0321,0.03061 -0.0662,0.04804 -0.0977,0.08201 -0.8061,0.871541 -1.34576,1.858955 -1.75391,2.890627 -0.28471,-0.290571 -0.60799,-0.615641 -0.98437,-0.978517 -1.0302,-0.993215 -2.28541,-2.120679 -3.37305,-2.746093 -1.20318,-0.691851 -3.00332,-1.268607 -4.54102,-1.705082 -1.5377,-0.436472 -2.94141,-0.08202 -2.94141,-0.08202 0,0 1.12955,0.586659 2.62696,1.01172 1.49742,0.425057 3.23108,1.336426 4.20508,1.896485 0.85845,0.493629 2.12299,1.598348 3.12305,2.562502 0.662,0.638246 1.11616,1.112932 1.41601,1.431641 -0.32394,1.167523 -0.52989,2.354004 -0.73047,3.498049 -0.0818,-0.06954 -0.15496,-0.13474 -0.24219,-0.207042 -0.76455,-0.633858 -1.69195,-1.348446 -2.52539,-1.726561 -1.22268,-0.554711 -2.99086,-0.909076 -4.50196,-1.152345 -1.5111,-0.243288 -2.81055,0.289058 -2.81055,0.289058 0,0 1.09617,0.404561 2.56251,0.640623 1.46632,0.23607 3.25722,0.968066 4.21874,1.4043 0.5723,0.259653 1.49302,0.943915 2.22266,1.548828 0.31038,0.257311 0.57512,0.491509 0.79297,0.685547 -0.0997,0.470884 -0.20995,0.927802 -0.34374,1.359376 -0.75352,2.430717 -1.76255,4.891637 -2.47852,7.48438 -1.05451,-0.11932 -4.15816,-0.48384 -5.82618,-0.83203 -3.16796,-0.661308 -9.76172,-1.998048 -9.76172,-1.998048 0,0 6.12492,2.671852 9.47462,3.371095 1.66678,0.347943 4.49969,0.685421 5.77344,0.828125 -0.16385,0.728826 -0.30887,1.466008 -0.4004,2.220705 -0.11758,0.969415 -0.1864,1.941151 -0.23437,2.914063 -1.04283,-0.05907 -6.5663,-0.389092 -9.40625,-0.94336 -3.90621,-0.76235 -7.0607,-1.333392 -10.98048,-2.990235 -0.42535,-0.179793 -1.41281,-0.578132 -2.05664,-0.917969 -0.82742,-0.436747 -1.3418,-1.015628 -1.3418,-1.015628 0,0 0.23932,0.974201 0.82227,1.478518 0.58299,0.504318 1.63418,1.157735 2.2832,1.496093 3.64981,1.902771 7.10466,2.560519 11.00782,3.322268 3.08823,0.602721 8.62562,0.92075 9.61915,0.974612 -0.0367,2.027604 0.0582,4.055296 0.24608,6.068364 -1.02918,-0.150198 -6.74808,-0.996238 -9.72461,-1.712894 -2.50384,-0.60285 -3.87513,-0.974106 -6.76953,-1.85547 -0.47761,-0.145436 -1.51179,-0.623758 -2.16993,-1.060547 -1.00413,-0.666411 -2.19336,-1.455078 -2.19336,-1.455078 0,0 0.73309,1.214688 1.33594,1.794922 0.60284,0.580233 1.33011,1.233971 2.02344,1.623047 2.35869,1.323614 5.02259,1.726293 7.44922,2.310548 3.39497,0.817406 10.04366,1.771235 10.19532,1.792971 0.1556,1.358484 0.34719,2.710218 0.56641,4.046879 0.13111,0.799507 0.29737,1.594519 0.46679,2.388671 -0.72811,0.02759 -1.7567,0.05465 -2.37109,0.0098 -2.38222,-0.174009 -4.75596,-0.649255 -7.13086,-1.144532 -1.89802,-0.395823 -3.77916,-0.837929 -5.59571,-1.447265 -1.30036,-0.436177 -4.55079,-1.421875 -4.55079,-1.421875 0,0 2.80055,1.894051 4.23438,2.375 1.8756,0.629141 3.79079,1.07734 5.70508,1.476564 2.3817,0.496699 4.79989,0.97823 7.26368,1.158203 0.77377,0.05654 1.94016,0.01814 2.66211,-0.01361 0.16173,0.69111 0.34122,1.378175 0.53125,2.062501 -0.44189,0.154545 -4.96899,1.734022 -7.35547,2.359375 -3.85544,1.010288 -11.75001,2.917971 -11.75001,2.917971 0,0 8.03986,-0.913448 12.00001,-1.951174 2.44035,-0.639467 6.79925,-2.15787 7.38086,-2.36133 0.15421,0.516564 0.32406,1.027768 0.49414,1.539066 -0.10681,-0.0038 -0.18837,-0.0094 -0.3086,-0.01172 -0.54926,-0.0094 -1.18498,-0.0012 -1.69726,0.117203 -2.21744,0.512648 -4.19433,1.676626 -6.06837,2.775392 -1.97285,1.156703 -3.79934,2.550922 -5.52148,4.023442 -0.3775,0.322772 -1.50782,2.750001 -1.50782,2.750001 0,0 1.89916,-1.946488 2.15821,-2.167972 1.69302,-1.447609 3.47746,-2.62621 5.38086,-3.742188 1.8749,-1.099273 3.76264,-2.197835 5.7793,-2.664066 0.31495,-0.07283 0.94571,-0.09668 1.46289,-0.08787 0.25403,0.0042 0.48144,0.01361 0.65039,0.02154 0.34111,0.95932 0.70956,1.907049 1.10547,2.841798 0.71629,1.691177 1.97058,2.995663 2.95313,4.244144 0.41643,0.529146 0.76019,1.032859 1.03906,1.5293 -0.79999,0.307389 -4.95643,1.888979 -7.29883,2.414067 -4.05238,0.90841 -8.80845,1.71792 -12.9336,2.07422 -3.70606,0.32009 -11.09766,-0.12306 -11.09766,-0.12306 0,0 7.20776,1.46272 11.18555,1.11914 4.18925,-0.36182 8.97555,-1.17867 13.06641,-2.09571 2.55117,-0.57188 6.78542,-2.201 7.49024,-2.474612 0.12287,0.366085 0.20946,0.732507 0.20897,1.107425 -0.001,0.755977 -0.14097,1.486027 -0.37697,2.203127 -0.1886,0.0653 -0.43541,0.14786 -0.71484,0.23437 -0.56484,0.17484 -1.29319,0.38945 -2.08204,0.60547 -1.57769,0.43203 -3.41376,0.88961 -4.75391,1.1582 -5.01011,1.00413 -10.02715,1.72292 -15.16993,2.17774 -1.13704,0.10057 -4.78711,0.21093 -4.78711,0.21093 0,0 3.51547,0.66385 4.83203,0.60742 5.15691,-0.22106 10.27652,-1.00357 15.31642,-2.01367 1.38232,-0.27704 3.23387,-0.74507 4.82813,-1.18164 0.76514,-0.20954 1.46465,-0.40754 2.0332,-0.58203 -0.47303,0.96748 -1.10437,1.92221 -1.83398,2.89258 -0.21449,0.28528 -0.46286,0.58091 -0.68946,0.86718 -0.19079,0.11403 -0.39189,0.23275 -0.60937,0.35743 -0.99491,0.57045 -2.22507,1.19904 -3.01954,1.43164 -2.30226,0.6741 -4.97906,0.336 -7.55078,0.20705 -2.3495,-0.11785 -7.85548,-0.17382 -7.85548,-0.17382 0,0 5.3758,1.05016 7.80275,1.17187 2.51242,0.12601 5.30161,0.51218 7.88476,-0.24415 0.52896,-0.15489 1.13109,-0.41903 1.73438,-0.71876 -0.92812,1.16658 -1.83382,2.37137 -2.5625,3.67774 -2.36065,4.2322 -5.3005,8.34157 -7.44727,12.90235 -0.5726,0.26914 -1.2368,0.58026 -1.69727,0.78516 -0.97171,0.43239 -2.17279,0.8966 -2.91601,1.01758 -2.12193,0.34541 -4.37899,0.28974 -6.4004,-0.33986 -1.79723,-0.55979 -3.32201,-1.99178 -5.08594,-3.13672 -1.38415,-0.89842 -4.42188,-2.42578 -4.42188,-2.42578 0,0 2.44834,2.33374 3.87501,3.25977 1.45953,0.94736 2.86697,2.24669 4.61523,2.98828 0.45009,0.30327 1.02982,0.68759 1.57031,1.02734 1.09204,0.68647 2.33084,1.60482 2.84962,2.31836 0.72172,0.99268 1.60797,2.78915 2.03125,4.4629 0.42327,1.67374 1.29883,5.00977 1.29883,5.00977 0,0 -0.13308,-3.37447 -0.56836,-5.09571 -0.43528,-1.72123 -1.05092,-3.72051 -1.95704,-4.9668 -0.52666,-0.72439 -1.38037,-1.41029 -2.25195,-2.00781 1.53513,0.19427 3.10524,0.14101 4.60743,-0.10352 0.95368,-0.15523 2.15762,-0.64765 3.16015,-1.09375 0.20735,-0.0923 0.44512,-0.2287 0.6875,-0.38281 -0.3307,0.77763 -0.63859,1.56769 -0.91015,2.37695 -0.82088,2.44621 -1.52594,5.7202 -1.70508,9.03516 -0.16403,3.03544 0.0215,6.53712 0.0215,6.53712 0,0 0.75236,-3.61052 1.35742,-6.53126 0.52776,-2.5476 1.61378,-6.27149 2.32032,-8.37696 1.90567,-5.67888 5.71913,-10.71111 8.79883,-16.23243 1.16546,-2.08944 3.05819,-4.13588 4.7168,-6.3418 1.6586,-2.20593 3.11911,-4.64587 3.12305,-7.574226 0.003,-1.960756 -1.04917,-3.507407 -2.10547,-4.849613 -1.05631,-1.342202 -2.15924,-2.553299 -2.67188,-3.763675 -1.53192,-3.616919 -2.64201,-7.450224 -3.27734,-11.324224 -0.83228,-5.074763 -1.27223,-10.267157 -0.66407,-15.281259 0.42916,-3.538238 1.99795,-7.004464 3.14454,-10.703134 1.14058,-3.679339 1.0704,-7.599728 3.11523,-9.810553 -0.0406,0.04392 0.0724,-0.0415 0.44336,-0.119131 0.371,-0.07763 0.9859,-0.147099 1.53516,-0.693362 0.79617,-0.791838 1.06212,-1.769292 1.27734,-2.583985 0.21521,-0.814689 0.39485,-1.495247 0.68555,-1.91211 0.46431,-0.665749 1.69982,-1.190371 2.66602,-2.48633 0.48364,-0.648662 0.88693,-1.497222 1.22461,-2.236329 0.33766,-0.739108 0.58398,-1.351564 0.58398,-1.351564 l 0.75391,-1.070313 -1.375,-0.302736 c -0.29273,-0.10588 -0.48912,-0.126679 -0.78125,-0.162108 -0.29212,-0.03541 -0.64207,-0.06568 -1.04102,-0.08984 -0.79788,-0.04833 -1.79978,-0.07338 -2.88672,-0.07227 z m 0,2.095704 c 1.0495,-0.0011 2.01992,0.0294 2.75976,0.07422 0.0333,0.002 0.0499,0.0057 0.082,0.0078 -0.31298,0.684403 -0.74208,1.500386 -1.00389,1.851552 -0.29703,0.398407 -0.87289,0.767326 -1.48438,1.269532 -0.17616,-0.17424 -0.39392,-0.382645 -0.64843,-0.611328 -0.58988,-0.530002 -1.29926,-1.131781 -2.00782,-1.404298 -0.76209,-0.293106 -1.7771,-0.330006 -2.64258,-0.332032 -0.86548,-0.002 -2.0625,0.617188 -2.0625,0.617188 0,0 1.18353,0.08207 2.00195,0.08398 0.81843,0.0019 1.86028,0.383159 2.3418,0.56836 0.42799,0.16461 1.1424,0.706525 1.69727,1.205079 0.22809,0.204937 0.42333,0.390868 0.58594,0.550781 -0.16642,0.180552 -0.32894,0.371702 -0.48242,0.591798 -0.61094,0.876087 -0.79682,1.814438 -0.99805,2.576172 -0.20122,0.761734 -0.4012,1.318965 -0.72266,1.638672 0.0348,-0.03439 -0.1042,0.04702 -0.48633,0.126954 -0.15341,0.03213 -0.36672,0.08194 -0.58008,0.146495 -0.98768,-1.22662 -3.15892,-3.836586 -4.75,-5.115247 -0.85268,-0.685253 -2.20803,-1.388916 -3.38867,-1.937501 1.82104,-0.653918 3.70342,-1.160953 5.60352,-1.494142 1.63966,-0.287524 4.08655,-0.411912 6.18555,-0.414063 z m -23.72658,8.013678 c 0,0 -1.38611,0.333695 -2.04102,1.058594 -0.41999,0.464889 -0.99044,1.270296 -1.10351,1.896485 -0.0204,0.113801 -0.0348,0.229152 -0.0488,0.343748 -0.43533,-0.27995 -1.15207,-0.715306 -1.58204,-0.822267 -0.63676,-0.1584 -1.41289,-0.371301 -2.16992,0.0957 -0.53645,0.330935 -0.89064,0.822754 -1.125,1.355471 -0.5913,0.195175 -1.37284,0.515978 -1.82813,0.976563 -0.65098,0.65856 -1.36434,1.430748 -1.74609,2.308593 -0.62783,0.363478 -1.78717,1.071871 -1.98047,1.462894 -0.1584,0.320353 -0.32769,0.673044 -0.44336,1.050781 -0.27387,-0.01172 -0.55181,0.0068 -0.79688,0.08009 -0.87029,0.260032 -1.87177,0.57885 -2.54101,1.328127 -0.89584,1.002974 -1.23988,2.317483 -1.31251,3.576176 -0.57591,0.51924 -1.7478,1.646273 -2.18554,2.595702 -0.51768,1.122789 -1.06827,2.43116 -1.21289,3.646487 -0.54194,0.264945 -1.08538,0.561857 -1.28321,0.781251 -0.44617,0.494824 -0.9576,1.067846 -1.22461,1.794922 -0.69571,1.894565 -1.05214,4.289993 -0.13281,6.105475 1.16379,2.298197 2.69108,3.709095 4.23633,5.062503 1.89898,1.663224 4.06346,3.070128 6.28321,4.214845 1.36183,0.702297 3.33915,1.293816 5.02734,1.750002 1.6882,0.456185 4.67969,-0.18361 4.67969,-0.18361 0,0 -2.628,-0.693687 -4.26758,-1.13672 -1.63957,-0.443048 -3.5411,-1.4743 -4.62109,-2.031251 -2.11055,-1.088399 -4.14595,-2.415993 -5.91212,-3.962891 -1.5209,-1.332091 -2.80986,-2.522284 -3.82422,-4.525393 -0.48294,-0.953689 -0.34794,-3.119912 0.22265,-4.673831 0.072,-0.19612 0.36496,-1.195798 0.75196,-1.625002 0.0242,-0.02683 0.0573,-0.07124 0.0859,-0.107414 0.19998,1.549388 0.91587,2.978364 1.66407,4.207033 1.37326,2.255136 3.38524,3.977603 5.33008,5.535159 2.19834,1.760577 7.19336,3.462892 7.19336,3.462892 0,0 -4.3682,-2.907006 -6.25,-4.414064 -1.91264,-1.531775 -3.71108,-3.454025 -4.90821,-5.419925 -0.83303,-1.367986 -1.51239,-2.891514 -1.48437,-4.302738 0.0159,-0.806865 0.13111,-2.541666 0.68554,-3.744142 0.37331,-0.809617 0.81618,-1.815558 1.12891,-2.529299 -7.1e-4,0.207004 0.006,0.411953 0.0174,0.611327 0.10998,1.938011 0.88782,3.865813 2.11719,5.351569 0.72143,0.871881 1.90363,1.586821 2.93164,2.156248 1.02802,0.569439 3.57227,0.746095 3.57227,0.746095 0,0 -2.06247,-1.112017 -3.02735,-1.646484 -0.96487,-0.534464 -1.88925,-1.6908 -2.3164,-2.207034 -1.01874,-1.231186 -1.69729,-2.899663 -1.78711,-4.482425 -0.0743,-1.309059 0.32386,-2.671538 0.93749,-3.601563 0.28128,-0.426282 0.96203,-1.144234 1.73438,-1.375001 0.11093,-0.03326 0.2281,-0.07328 0.34764,-0.117203 -0.01,2.041392 0.87699,4.012421 2.03711,5.574221 0.77153,1.038664 2.11516,2.006326 3.29297,2.783204 1.17783,0.776887 3.47657,0.675784 3.47657,0.675784 0,0 -1.77531,-0.941488 -2.90039,-1.683595 -1.1251,-0.742111 -2.21475,-1.894047 -2.7461,-2.609376 -1.04156,-1.402183 -1.79958,-3.174443 -1.76562,-4.820315 0.002,-0.08236 0.001,-0.294576 0.0136,-0.537112 0.037,-0.01852 0.0996,-0.0508 0.0996,-0.0508 0,0 -0.0674,-0.01814 -0.0977,-0.02721 0.0204,-0.303118 0.0705,-0.648049 0.19139,-0.892578 0.11309,-0.228774 0.44127,-0.726195 0.74805,-1.177735 -0.3908,1.807813 0.35059,3.634925 1.21484,5.046878 0.85682,1.399757 2.51831,2.784391 3.98048,3.898438 1.46216,1.114058 3.42383,1.408204 3.42383,1.408204 0,0 -1.60241,-1.194343 -2.93165,-2.365234 -1.48811,-1.310847 -2.64158,-2.636434 -3.27539,-3.671878 -0.76907,-1.256417 -1.3186,-2.827103 -1.0332,-4.066407 0.11966,-0.519523 0.65107,-1.736328 1.38086,-2.474614 0.22492,-0.227565 0.47859,-0.497064 0.72851,-0.765623 -0.12638,0.608898 -0.1531,1.223676 -0.13281,1.771485 0.0957,2.58126 1.15396,5.336114 3.13867,7.093754 1.32712,1.175268 3.51032,1.778296 5.40235,2.185548 1.89204,0.407252 3.56641,-0.136706 3.56641,-0.136706 0,0 -1.78153,-0.287887 -3.58594,-0.953126 -1.73178,-0.638461 -3.56381,-1.356972 -4.45313,-2.144535 -1.61469,-1.429944 -2.58946,-3.874264 -2.67188,-6.09766 -0.0208,-0.557476 0.025,-1.203893 0.17776,-1.734377 0.15314,-0.530476 0.40123,-0.916959 0.72265,-1.115233 0.0106,-0.0064 0.85553,-0.448045 1.36914,-0.320315 0.35059,0.08719 1.13935,0.100157 1.61915,0.101556 -0.1109,1.340901 0.20194,2.713468 0.74609,3.902349 0.23441,0.512157 0.67068,0.993075 1.05664,1.396484 0.38596,0.403408 2.40039,1.285157 2.40039,1.285157 0,0 -1.59713,-1.520467 -1.95313,-1.892581 -0.35603,-0.372094 -0.67331,-1.058896 -0.79296,-1.320311 -0.55257,-1.207314 -0.62801,-2.518735 -0.4004,-3.779299 0.0557,-0.30875 0.29609,-1.083531 0.60743,-1.568361 0.31132,-0.484835 1.55469,-1.564454 1.55469,-1.564454 z m -25.37697,28.576187 c 0,0 -1.90264,3.128949 -1.48437,6.054694 0.19702,1.378259 0.50266,2.851829 1.2246,4.201174 0.86148,1.610133 2.10291,2.994953 3.48438,4.119144 0.83443,0.679015 2.04736,1.32612 3.09375,1.845703 1.04641,0.519583 4.04688,0.716796 4.04688,0.716796 0,0 -2.36992,-1.24604 -3.36914,-1.742186 -0.99924,-0.496158 -2.23553,-1.627511 -2.8125,-2.156252 -1.1653,-1.067891 -2.13107,-2.278849 -2.85547,-3.632816 -0.55726,-1.041533 -1.39171,-2.841685 -1.5586,-4.150393 -0.22975,-1.801679 0.23048,-5.255864 0.23048,-5.255864 z m -1.77539,6.158208 c 0,0 -1.47231,3.494187 -1.50977,4.843755 -0.0374,1.349557 -0.0386,2.931811 0.27931,4.148438 0.22125,0.84697 0.53619,1.706761 0.96875,2.513675 -0.18713,0.637097 -0.34806,1.480858 -0.22265,2.269532 0.244,1.534656 0.59172,3.328477 1.20703,4.613283 -0.0866,1.813207 -0.14298,4.597991 0.19532,6.259767 0.32353,1.58917 0.6057,3.41758 1.63087,5.00587 0.55524,0.86023 1.46691,1.64213 2.26758,2.29492 0.80066,0.65278 4.3164,2.29297 4.3164,2.29297 0,0 -2.61438,-2.60729 -3.47656,-3.50977 -0.66287,-0.69385 -1.2915,-1.59228 -1.59375,-2.06055 -0.75592,-1.17112 -1.52187,-2.74784 -1.85352,-4.37695 -0.23765,-1.167361 -0.58734,-3.129425 -0.88281,-4.818364 0.80689,1.283842 1.8646,2.402851 3.03125,3.318359 0.93591,0.734442 2.30541,1.373305 3.48438,1.882815 1.17897,0.50951 5.36328,0.72852 5.36328,0.72852 0,0 -3.47259,-1.18529 -4.77344,-1.966801 -1.04886,-0.630123 -2.32516,-1.563172 -2.95898,-2.06055 -1.2963,-1.017238 -2.43033,-2.32392 -3.12305,-3.765625 -0.43038,-0.895696 -1.23573,-2.241367 -1.76563,-4.007818 -0.11369,-0.379007 -0.19835,-0.775805 -0.26366,-1.156249 0.26276,0.370583 0.55519,0.722068 0.88477,1.044923 0.98362,0.963565 2.50298,1.695324 3.82422,2.273437 1.32124,0.578117 4.50391,0.693362 4.50391,0.693362 0,0 -2.59576,-1.20954 -3.83985,-1.75391 -1.24409,-0.544354 -2.63307,-1.908965 -3.23242,-2.496092 -0.94024,-0.921068 -1.58724,-2.292153 -1.94922,-3.67774 -0.21117,-0.808279 -0.7387,-2.414314 -0.70313,-3.697265 0.0355,-1.282953 0.1914,-4.835942 0.1914,-4.835942 z m 4.67774,10.306646 c 0,0 1.05279,1.627284 1.80664,2.265628 0.75385,0.638347 1.66901,1.370257 2.40625,1.771484 2.68451,1.460989 5.6749,2.292089 8.6211,2.937504 2.69384,0.59014 8.06836,0.484373 8.06836,0.484373 0,0 -5.37938,-0.613368 -7.91992,-1.169919 -2.92009,-0.639697 -5.83937,-1.455509 -8.4297,-2.865239 -0.63297,-0.344467 -1.55741,-1.063295 -2.29687,-1.689454 -0.73945,-0.626155 -2.25586,-1.734377 -2.25586,-1.734377 z m 2.54883,10.541022 c 0,0 3.37049,2.05306 5.31836,2.552736 1.37548,0.352857 5.19056,0.774226 7.83203,0.73047 3.1123,-0.05155 8.93946,-1.626952 8.93946,-1.626952 0,0 -6.05956,0.575101 -8.95508,0.623045 -2.51217,0.04161 -6.46521,-0.410869 -7.56641,-0.693359 -1.72514,-0.442538 -5.56836,-1.58594 -5.56836,-1.58594 z m -4.08594,3.431642 c 0,0 1.50236,3.14759 2.92188,4.40039 1.03599,0.91434 2.2282,1.78731 3.61132,2.23633 0.76324,0.24779 1.79381,0.31027 2.67188,0.33204 0.87807,0.0219 3.88086,-0.51368 3.88086,-0.51368 0,0 -2.95263,-0.23312 -3.79297,-0.25391 -0.84033,-0.0212 -1.91547,-0.34367 -2.45117,-0.51758 -1.18032,-0.38318 -2.2692,-1.16022 -3.25391,-2.02929 -1.16937,-1.03204 -3.58789,-3.6543 -3.58789,-3.6543 z m -3.25782,3.85352 c 0,0 0.77665,1.78392 1.83203,3.67383 -0.22673,0.38793 -0.70005,1.28859 -0.88085,2.31836 -0.24144,1.3753 -0.53866,3.11594 -0.50586,4.51172 0.0743,3.16112 -0.18286,7.11944 2.36914,9.83399 0.44672,0.47518 1.053,0.85441 1.77148,1.26954 0.71848,0.41512 1.82228,0.87455 2.64649,1.11914 1.94169,0.57619 3.81445,0.49218 3.81445,0.49218 0,0 -1.95657,-0.91754 -3.45508,-1.63671 -0.74925,-0.35959 -1.58911,-0.98677 -2.24414,-1.36524 -0.65503,-0.37847 -1.18685,-0.86462 -1.36719,-1.0293 -2.50166,-2.28444 -2.01157,-5.48064 -2.16992,-8.75391 -0.0447,-0.92453 0.0911,-2.67774 0.1621,-4.01953 0.0502,-0.94973 0.0234,-1.92524 0.002,-2.48047 0.71963,1.26257 1.55345,2.53838 2.36719,3.33789 1.42952,1.40452 2.95631,2.85682 4.79883,3.92774 3.06352,1.78057 11.11133,3.66406 11.11133,3.66406 0,0 -7.64522,-3.73141 -10.21094,-5.22266 -1.60148,-0.93081 -3.26188,-1.91156 -4.67383,-3.29883 -1.8632,-1.83062 -5.36719,-6.3418 -5.36719,-6.3418 z m 10.81641,7.15821 c -0.0413,0.002 -0.0687,0.0113 -0.0781,0.0314 0,0 4.26965,2.43098 6.58204,3.34375 2.99325,1.18152 6.00549,2.56521 9.24219,3.15234 2.56177,0.4647 7.55079,-0.12109 7.55079,-0.12109 0,0 -5.06934,-0.13697 -7.42579,-0.56446 -3.12103,-0.56614 -6.09243,-1.92436 -9.10938,-3.11523 -2.11063,-0.83312 -6.14134,-2.75159 -6.76172,-2.72657 z" /><path
       id="path40"
       style="color:#000000;fill:#000000;stroke-width:3.77953;-inkscape-stroke:none"
       d="m 258.41358,27.520384 c 0,0 1.74942,0.316615 2.84202,0.533593 1.09259,0.216979 2.2439,0.890336 2.9865,1.204844 1.67955,0.711333 3.32247,1.614174 4.51033,2.886321 1.6676,1.785913 2.83491,4.115856 3.56546,6.496066 0.43961,1.432272 0.67043,3.829325 0.7751,5.831697 0.10465,2.002373 0.64591,3.628289 0.64591,3.628289 0,0 0.56054,-1.641983 0.45399,-3.679788 -0.1065,-2.037802 -0.32145,-4.451058 -0.82677,-6.097444 -0.76773,-2.501564 -1.99165,-4.97805 -3.80904,-6.924392 -1.35324,-1.449252 -3.13785,-2.411337 -4.88682,-3.152069 -0.91467,-0.387388 -2.23704,-0.692594 -3.35876,-0.915355 -1.12172,-0.222762 -2.89792,0.18824 -2.89792,0.188238 z m 11.64598,-0.177687 c 0,0 1.35848,0.6473 2.86313,1.47689 1.50465,0.82959 3.36789,2.203837 4.22297,3.104097 1.64765,1.734701 2.50718,4.206623 3.5876,6.562506 0.50031,1.090924 1.49797,3.688009 2.05587,6.06 0.55791,2.371996 1.23646,4.451822 1.23646,4.451822 0,0 0.19861,-2.390666 -0.36382,-4.781884 -0.56243,-2.391233 -1.32075,-4.854886 -1.93195,-6.187616 -1.04822,-2.285647 -1.91792,-4.890036 -3.78691,-6.85778 -1.04751,-1.102851 -2.82689,-2.183119 -4.37008,-3.033959 -1.5432,-0.85084 -3.51327,-0.794075 -3.51327,-0.794076 z m -3.35141,0.521477 c 0,0 1.99854,0.70233 3.39044,1.455276 1.3919,0.752946 2.94522,1.970953 3.66616,2.810928 1.85896,2.165861 2.56298,5.25866 3.47688,8.193904 0.69076,2.218565 1.97834,6.998034 1.97834,6.998034 0,0 -0.17314,-4.891559 -0.93011,-7.322843 -0.89374,-2.870495 -1.58222,-6.136871 -3.68357,-8.585139 -0.93678,-1.091436 -2.58561,-2.086552 -4.02313,-2.864175 -1.43752,-0.777624 -3.87501,-0.685985 -3.87501,-0.685985 z m 7.25211,-0.901946 c 0,0 3.52537,1.869417 5.06779,3.071692 1.54241,1.202274 3.31313,2.75018 4.13386,3.905022 1.343,1.889724 2.17191,4.221181 2.57628,6.555124 0.1782,1.028534 0.25905,2.78266 0.30633,4.237204 0.0536,1.649285 -10e-4,4.599651 -10e-4,4.599651 0,0 0.91594,-3.018053 1.02351,-4.511074 0.10756,-1.493024 0.17132,-3.260105 -0.0517,-4.547247 -0.43007,-2.482548 -1.30158,-4.991829 -2.79031,-7.086611 -1.00195,-1.409834 -2.81089,-2.945535 -4.39223,-4.178153 -1.58134,-1.232617 -5.87241,-2.045608 -5.87241,-2.045608 z m -0.44414,-2.125773 c 0,0 2.40158,0.287543 4.02079,0.797856 1.6192,0.510311 3.53585,1.219736 4.57677,1.875001 2.32051,1.46076 4.45855,3.404654 5.8317,5.713586 1.59527,2.68243 2.37421,5.934858 2.59104,9.109259 0.0896,1.311451 -0.20311,3.455915 -0.53149,5.226379 -0.32841,1.770468 -0.048,3.340319 -0.048,3.340319 0,0 0.99622,-1.291405 1.33244,-3.104079 0.33622,-1.81267 0.65432,-3.96924 0.54626,-5.551185 -0.22715,-3.325109 -1.04094,-6.768217 -2.77562,-9.685063 -1.51093,-2.54061 -3.79796,-4.604006 -6.25246,-6.149119 -1.27481,-0.802494 -3.21852,-1.491798 -4.87943,-2.015257 -1.66093,-0.523458 -4.41203,0.442303 -4.41203,0.442303 z m 22.0327,4.362488 c 0,0 3.21603,3.763683 4.01566,5.234586 0.69215,1.27319 1.26729,2.611155 1.61663,3.986225 0.52932,2.083481 0.74618,7.78328 0.74618,7.78328 0,0 1.13249,-5.674673 0.51613,-8.100723 -0.38376,-1.510494 -1.00491,-2.946338 -1.73475,-4.288861 -0.93939,-1.727988 -5.15985,-4.614507 -5.15985,-4.614507 z m -12.74997,-3.247211 c 0,0 2.25579,0.950459 3.6037,1.350887 1.34792,0.400426 2.87952,1.055493 3.4695,1.646162 1.57327,1.575123 1.83969,4.34914 2.61319,6.953745 0.811,2.730907 1.55584,5.477042 1.75689,8.230811 0.15371,2.105599 -0.25663,7.323656 -0.25663,7.323656 0,0 1.93877,-4.91927 1.75515,-7.4344 -0.21536,-2.949741 -1.00631,-5.797081 -1.82333,-8.548232 -0.70494,-2.37377 -0.8855,-5.489334 -2.98228,-7.588573 -1.01993,-1.021127 -2.67418,-1.59559 -4.11171,-2.022639 -1.43753,-0.427049 -4.02448,0.08858 -4.02448,0.08858 z m 5.81407,-0.111035 c 0,0 5.0066,2.265094 6.8989,6.636629 1.49157,3.445796 2.4252,7.082183 2.07431,10.297743 -0.0961,0.880921 -0.55623,2.332968 -0.99656,3.513783 -0.44033,1.180812 -1.18448,3.117931 -0.59024,3.379989 0,0 1.35312,-1.709179 1.80825,-2.929695 0.45514,-1.220513 0.94523,-2.676947 1.07038,-3.823819 0.38884,-3.563288 -0.62599,-7.38716 -2.17027,-10.954733 -2.12985,-4.92031 -8.09477,-6.119895 -8.09477,-6.119897 z" /><path
       id="path44"
       style="fill:#000000;fill-opacity:0.3;stroke:none;stroke-width:0.999999px;stroke-linecap:butt;stroke-linejoin:miter;stroke-opacity:1"
       d="m 223.91197,35.484863 c -1.7788,1.132922 -3.36652,2.607402 -4.70313,4.224614 -0.98637,1.193439 -2.30973,1.327291 -3.26563,2.132811 -0.86293,0.727178 -1.06675,1.869908 -2.11132,2.296877 -1.03541,0.423236 -2.02606,-0.765664 -2.98829,-0.195326 -0.38757,0.22972 -0.48419,0.673724 -0.80859,0.986329 -0.48028,0.462826 -1.35736,0.242835 -1.89844,0.632811 -0.85554,0.616634 -1.10783,1.833317 -1.89844,2.531253 -0.63741,0.562692 -1.63055,0.647962 -2.21485,1.265625 -0.24306,0.25697 -0.23425,0.689681 -0.4746,0.949217 -0.83563,0.902374 -2.40215,0.933026 -3.16407,1.898439 -0.65089,0.824731 -0.41764,2.099631 -0.94922,3.005864 -0.62283,1.061799 -1.93133,1.612593 -2.53125,2.687499 -0.69193,1.239777 -0.22582,3.000354 -1.10742,4.113285 -0.48342,0.610277 -1.57642,0.494628 -2.05665,1.107422 -1.04131,1.328765 -0.81207,3.27819 -1.26562,4.904303 -0.29582,1.060547 -0.82345,1.709821 -1.11523,2.771484 -0.34572,1.257823 -0.4578,2.197211 -0.78126,3.460938 -0.56764,2.217858 -1.74323,5.081756 -1.74023,7.3711 0.002,1.854555 1.25023,3.532489 1.42383,5.37891 0.0693,0.73685 -0.23467,1.478707 -0.15821,2.214846 0.15862,1.527297 1.23992,2.894387 1.26562,4.429689 0.0144,0.869522 -0.62034,1.661697 -0.63281,2.531253 -0.0384,2.699265 1.47719,5.103254 1.73828,7.908204 0.14071,1.51168 -0.71834,2.77342 -0.96484,4.27149 -0.29972,1.8218 -0.5601,3.69369 -0.45703,5.53711 0.14177,2.53585 -0.48165,5.31152 0.63281,7.59376 0.81869,1.67655 2.50984,2.83768 4.11133,3.79492 1.38841,0.82988 3.33737,1.5478 4.92383,1.86328 0.7698,0.15307 1.53663,0.19196 2.30078,0.1875 1.16736,-0.13217 2.24512,-0.28996 3.1543,-0.49023 2.57477,-0.56711 7.7754,-3.4668 7.7754,-3.4668 0,0 -5.47743,-1.79471 -7.60743,-2.62891 -1.8965,-0.74275 -3.9478,-2.40262 -5.64844,-3.52344 -1.27756,-0.84199 -3.35547,-3.13281 -3.35547,-3.13281 l 7.15821,2.46094 7.16016,-0.67188 c 0,0 -6.51925,-1.64318 -9.6211,-2.9082 -1.7913,-0.73055 -5.14454,-2.6836 -5.14454,-2.6836 l 0.44727,-1.5664 c 0,0 4.64939,0.5753 6.93555,0.22461 1.56187,-0.23958 4.47461,-1.5664 4.47461,-1.5664 0,0 -5.04322,-0.26994 -7.38281,-1.11915 -1.61992,-0.58797 -3.1784,-1.48639 -4.41798,-2.68359 -0.51326,-0.49572 -1.17578,-1.79102 -1.17578,-1.79102 l 10.06837,-0.22265 -4.92188,-1.45508 7.38282,-1.230465 c 0,0 -5.16804,-2.142128 -7.38282,-3.802741 -1.64588,-1.234054 -4.25196,-4.474612 -4.25196,-4.474612 l -2.46093,-3.802736 c 0,0 2.63599,1.049372 4.02734,1.119142 2.19172,0.109908 6.48829,-1.119142 6.48829,-1.119142 l -3.80274,-1.119141 -5.81641,-4.921878 c 0,0 5.36452,0.500281 8.05274,0.44922 2.39631,-0.04551 7.15821,-0.671876 7.15821,-0.671876 l -5.5918,-1.566407 -7.60743,-4.697268 c 0,0 3.81445,1.440057 5.81836,1.566407 2.17871,0.137348 6.48633,-0.896486 6.48633,-0.896486 l -7.3828,-3.13086 -4.69727,-5.369144 c 0,0 2.50193,0.831527 3.80273,0.894532 2.78096,0.134664 8.27735,-1.119142 8.27735,-1.119142 l -4.69727,-2.236329 c 0,0 -2.16901,-2.210261 -1.50976,-3.35547 0.42158,-0.732345 7.10156,0.894531 7.10156,0.894531 l -0.89453,-1.341797 c 0,0 -3.35498,-2.685228 -4.69727,-3.580081 -1.34228,-0.894856 7.83009,1.789064 7.83009,1.789064 l -3.13282,-3.578127 7.60743,1.341798 c 0,0 -3.59317,-4.13879 -4.08399,-6.710941 -0.26944,-1.411957 0.72852,-4.251956 0.72852,-4.251956 0,0 0.6384,1.55573 1.11719,2.238283 1.18134,1.684113 4.25195,4.474612 4.25195,4.474612 0,0 -0.61145,-2.148093 -0.56054,-3.244145 0.11289,-2.430389 1.90234,-7.046877 1.90234,-7.046877 z" /><path
       id="path51"
       style="fill:#000000;fill-opacity:0.2;stroke:none;stroke-width:1px;stroke-linecap:butt;stroke-linejoin:miter;stroke-opacity:1"
       d="M 234.86523 31.980469 C 231.57967 32.422468 228.31813 33.191646 225.37891 34.648438 C 222.99549 35.829751 220.90366 37.658549 219.20898 39.708984 C 218.22262 40.902427 216.89926 41.036278 215.94336 41.841797 C 215.08043 42.568974 214.87465 43.711702 213.83008 44.138672 C 212.79467 44.561907 211.80598 43.373006 210.84375 43.943359 C 210.45618 44.173079 210.35955 44.617083 210.03516 44.929688 C 209.55488 45.392517 208.6778 45.172509 208.13672 45.5625 C 207.28118 46.179133 207.02889 47.395815 206.23828 48.09375 C 205.60087 48.656441 204.60774 48.741714 204.02344 49.359375 C 203.78037 49.616338 203.78917 50.049054 203.54883 50.308594 C 202.71321 51.210967 201.14668 51.241615 200.38477 52.207031 C 199.73387 53.031761 199.96713 54.306659 199.43555 55.212891 C 198.81272 56.274693 197.50422 56.827435 196.9043 57.902344 C 196.21236 59.142119 196.67846 60.902694 195.79688 62.015625 C 195.31346 62.625901 194.22045 62.5083 193.74023 63.121094 C 192.69892 64.449858 192.92816 66.39928 192.47461 68.025391 C 192.1788 69.085942 191.65115 69.737167 191.35938 70.798828 C 191.01368 72.056651 190.89963 72.996036 190.57617 74.259766 C 190.00853 76.477622 188.83489 79.341513 188.83789 81.630859 C 188.84032 83.485416 190.08618 85.161392 190.25977 87.007812 C 190.32905 87.744661 190.02506 88.486518 190.10156 89.222656 C 190.2602 90.749956 191.34149 92.117043 191.36719 93.652344 C 191.38168 94.521865 190.74687 95.314039 190.73438 96.183594 C 190.69601 98.88286 192.21352 101.28879 192.47461 104.09375 C 192.61532 105.60543 191.75431 106.86521 191.50781 108.36328 C 191.20808 110.18508 190.94772 112.05697 191.05078 113.90039 C 191.19256 116.43623 190.56914 119.2119 191.68359 121.49414 C 192.50229 123.1707 194.19538 124.33378 195.79688 125.29102 C 197.18528 126.1209 199.13423 126.83686 200.7207 127.15234 C 204.14029 127.83235 207.50254 126.45251 210.82617 127.50586 C 211.42049 127.69421 212.02486 127.92208 212.62109 128.17578 C 212.33259 126.54167 212.00968 124.78492 211.81641 123.54688 C 210.65121 116.08292 208.57085 108.63454 208.81055 101.08398 C 209.17051 89.745444 212.15299 78.558702 215.45312 67.705078 C 218.01129 59.291693 220.91174 50.797216 225.57812 43.34375 C 228.19461 39.164512 235.38672 32.271484 235.38672 32.271484 L 234.86523 31.980469 z " /><path
       id="path52"
       style="color:#000000;fill:#000000;stroke-width:3.77953;-inkscape-stroke:none"
       d="m 240.84167,31.023923 c -2.17389,0.0022 -4.66837,0.11166 -6.54883,0.441407 -3.64911,0.639884 -7.27649,1.825597 -10.54689,3.632814 -1.288,0.711756 -2.43731,1.941824 -3.625,3.255861 -1.10487,1.222417 -2.72266,3.4668 -2.72266,3.4668 0,0 2.05571,-1.594666 3.38673,-2.464847 1.49948,-0.980323 3.00741,-1.883289 3.97851,-2.419922 1.03224,-0.570412 2.11898,-1.052723 3.22461,-1.496095 1.25687,0.659867 2.93274,1.590583 3.82618,2.308595 1.37786,1.107323 3.46846,3.585387 4.49609,4.841801 -0.0321,0.03061 -0.0662,0.04804 -0.0977,0.08201 -0.8061,0.871541 -1.34576,1.858955 -1.75391,2.890627 -0.28471,-0.290571 -0.60799,-0.615641 -0.98437,-0.978517 -1.0302,-0.993215 -2.28541,-2.120679 -3.37305,-2.746093 -1.20318,-0.691851 -3.00332,-1.268607 -4.54102,-1.705082 -1.5377,-0.436472 -2.94141,-0.08202 -2.94141,-0.08202 0,0 1.12955,0.586659 2.62696,1.01172 1.49742,0.425057 3.23108,1.336426 4.20508,1.896485 0.85845,0.493629 2.12299,1.598348 3.12305,2.562502 0.662,0.638246 1.11616,1.112932 1.41601,1.431641 -0.32394,1.167523 -0.52989,2.354004 -0.73047,3.498049 -0.0818,-0.06954 -0.15496,-0.13474 -0.24219,-0.207042 -0.76455,-0.633858 -1.69195,-1.348446 -2.52539,-1.726561 -1.22268,-0.554711 -2.99086,-0.909076 -4.50196,-1.152345 -1.5111,-0.243288 -2.81055,0.289058 -2.81055,0.289058 0,0 1.09617,0.404561 2.56251,0.640623 1.46632,0.23607 3.25722,0.968066 4.21874,1.4043 0.5723,0.259653 1.49302,0.943915 2.22266,1.548828 0.31038,0.257311 0.57512,0.491509 0.79297,0.685547 -0.0997,0.470884 -0.20995,0.927802 -0.34374,1.359376 -0.75352,2.430717 -1.76255,4.891637 -2.47852,7.48438 -1.05451,-0.11932 -4.15816,-0.48384 -5.82618,-0.83203 -3.16796,-0.661308 -9.76172,-1.998048 -9.76172,-1.998048 0,0 6.12492,2.671852 9.47462,3.371095 1.66678,0.347943 4.49969,0.685421 5.77344,0.828125 -0.16385,0.728826 -0.30887,1.466008 -0.4004,2.220705 -0.11758,0.969415 -0.1864,1.941151 -0.23437,2.914063 -1.04283,-0.05907 -6.5663,-0.389092 -9.40625,-0.94336 -3.90621,-0.76235 -7.0607,-1.333392 -10.98048,-2.990235 -0.42535,-0.179793 -1.41281,-0.578132 -2.05664,-0.917969 -0.82742,-0.436747 -1.3418,-1.015628 -1.3418,-1.015628 0,0 0.23932,0.974201 0.82227,1.478518 0.58299,0.504318 1.63418,1.157735 2.2832,1.496093 3.64981,1.902771 7.10466,2.560519 11.00782,3.322268 3.08823,0.602721 8.62562,0.92075 9.61915,0.974612 -0.0367,2.027604 0.0582,4.055296 0.24608,6.068364 -1.02918,-0.150198 -6.74808,-0.996238 -9.72461,-1.712894 -2.50384,-0.60285 -3.87513,-0.974106 -6.76953,-1.85547 -0.47761,-0.145436 -1.51179,-0.623758 -2.16993,-1.060547 -1.00413,-0.666411 -2.19336,-1.455078 -2.19336,-1.455078 0,0 0.73309,1.214688 1.33594,1.794922 0.60284,0.580233 1.33011,1.233971 2.02344,1.623047 2.35869,1.323614 5.02259,1.726293 7.44922,2.310548 3.39497,0.817406 10.04366,1.771235 10.19532,1.792971 0.1556,1.358484 0.34719,2.710218 0.56641,4.046879 0.13111,0.799507 0.29737,1.594519 0.46679,2.388671 -0.72811,0.02759 -1.7567,0.05465 -2.37109,0.0098 -2.38222,-0.174009 -4.75596,-0.649255 -7.13086,-1.144532 -1.89802,-0.395823 -3.77916,-0.837929 -5.59571,-1.447265 -1.30036,-0.436177 -4.55079,-1.421875 -4.55079,-1.421875 0,0 2.80055,1.894051 4.23438,2.375 1.8756,0.629141 3.79079,1.07734 5.70508,1.476564 2.3817,0.496699 4.79989,0.97823 7.26368,1.158203 0.77377,0.05654 1.94016,0.01814 2.66211,-0.01361 0.16173,0.69111 0.34122,1.378175 0.53125,2.062501 -0.44189,0.154545 -4.96899,1.734022 -7.35547,2.359375 -3.85544,1.010288 -11.75001,2.917971 -11.75001,2.917971 0,0 8.03986,-0.913448 12.00001,-1.951174 2.44035,-0.639467 6.79925,-2.15787 7.38086,-2.36133 0.15421,0.516564 0.32406,1.027768 0.49414,1.539066 -0.10681,-0.0038 -0.18837,-0.0094 -0.3086,-0.01172 -0.54926,-0.0094 -1.18498,-0.0012 -1.69726,0.117203 -2.21744,0.512648 -4.19433,1.676626 -6.06837,2.775392 -1.97285,1.156703 -3.79934,2.550922 -5.52148,4.023442 -0.3775,0.322772 -1.50782,2.750001 -1.50782,2.750001 0,0 1.89916,-1.946488 2.15821,-2.167972 1.69302,-1.447609 3.47746,-2.62621 5.38086,-3.742188 1.8749,-1.099273 3.76264,-2.197835 5.7793,-2.664066 0.31495,-0.07283 0.94571,-0.09668 1.46289,-0.08787 0.25403,0.0042 0.48144,0.01361 0.65039,0.02154 0.34111,0.95932 0.70956,1.907049 1.10547,2.841798 0.71629,1.691177 1.97058,2.995663 2.95313,4.244144 0.41643,0.529146 0.76019,1.032859 1.03906,1.5293 -0.79999,0.307389 -4.95643,1.888979 -7.29883,2.414067 -4.05238,0.90841 -8.80845,1.71792 -12.9336,2.07422 -3.70606,0.32009 -11.09766,-0.12306 -11.09766,-0.12306 0,0 7.20776,1.46272 11.18555,1.11914 4.18925,-0.36182 8.97555,-1.17867 13.06641,-2.09571 2.55117,-0.57188 6.78542,-2.201 7.49024,-2.474612 0.12287,0.366085 0.20946,0.732507 0.20897,1.107425 -0.001,0.755977 -0.14097,1.486027 -0.37697,2.203127 -0.1886,0.0653 -0.43541,0.14786 -0.71484,0.23437 -0.56484,0.17484 -1.29319,0.38945 -2.08204,0.60547 -1.57769,0.43203 -3.41376,0.88961 -4.75391,1.1582 -5.01011,1.00413 -10.02715,1.72292 -15.16993,2.17774 -1.13704,0.10057 -4.78711,0.21093 -4.78711,0.21093 0,0 3.51547,0.66385 4.83203,0.60742 5.15691,-0.22106 10.27652,-1.00357 15.31642,-2.01367 1.38232,-0.27704 3.23387,-0.74507 4.82813,-1.18164 0.76514,-0.20954 1.46465,-0.40754 2.0332,-0.58203 -0.47303,0.96748 -1.10437,1.92221 -1.83398,2.89258 -0.21449,0.28528 -0.46286,0.58091 -0.68946,0.86718 -0.19079,0.11403 -0.39189,0.23275 -0.60937,0.35743 -0.99491,0.57045 -2.22507,1.19904 -3.01954,1.43164 -2.30226,0.6741 -4.97906,0.336 -7.55078,0.20705 -2.3495,-0.11785 -7.85548,-0.17382 -7.85548,-0.17382 0,0 5.3758,1.05016 7.80275,1.17187 2.51242,0.12601 5.30161,0.51218 7.88476,-0.24415 0.52896,-0.15489 1.13109,-0.41903 1.73438,-0.71876 -0.92812,1.16658 -1.83382,2.37137 -2.5625,3.67774 -2.36065,4.2322 -5.3005,8.34157 -7.44727,12.90235 -0.5726,0.26914 -1.2368,0.58026 -1.69727,0.78516 -0.97171,0.43239 -2.17279,0.8966 -2.91601,1.01758 -2.12193,0.34541 -4.37899,0.28974 -6.4004,-0.33986 -1.79723,-0.55979 -3.32201,-1.99178 -5.08594,-3.13672 -1.38415,-0.89842 -4.42188,-2.42578 -4.42188,-2.42578 0,0 2.44834,2.33374 3.87501,3.25977 1.45953,0.94736 2.86697,2.24669 4.61523,2.98828 0.45009,0.30327 1.02982,0.68759 1.57031,1.02734 1.09204,0.68647 2.33084,1.60482 2.84962,2.31836 0.72172,0.99268 1.60797,2.78915 2.03125,4.4629 0.42327,1.67374 1.29883,5.00977 1.29883,5.00977 0,0 -0.13308,-3.37447 -0.56836,-5.09571 -0.43528,-1.72123 -1.05092,-3.72051 -1.95704,-4.9668 -0.52666,-0.72439 -1.38037,-1.41029 -2.25195,-2.00781 1.53513,0.19427 3.10524,0.14101 4.60743,-0.10352 0.95368,-0.15523 2.15762,-0.64765 3.16015,-1.09375 0.20735,-0.0923 0.44512,-0.2287 0.6875,-0.38281 -0.3307,0.77763 -0.63859,1.56769 -0.91015,2.37695 -0.82088,2.44621 -1.52594,5.7202 -1.70508,9.03516 -0.16403,3.03544 0.0215,6.53712 0.0215,6.53712 0,0 0.75236,-3.61052 1.35742,-6.53126 0.52776,-2.5476 1.61378,-6.27149 2.32032,-8.37696 1.90567,-5.67888 5.71913,-10.71111 8.79883,-16.23243 1.16546,-2.08944 3.05819,-4.13588 4.7168,-6.3418 1.6586,-2.20593 3.11911,-4.64587 3.12305,-7.574226 0.003,-1.960756 -1.04917,-3.507407 -2.10547,-4.849613 -1.05631,-1.342202 -2.15924,-2.553299 -2.67188,-3.763675 -1.53192,-3.616919 -2.64201,-7.450224 -3.27734,-11.324224 -0.83228,-5.074763 -1.27223,-10.267157 -0.66407,-15.281259 0.42916,-3.538238 1.99795,-7.004464 3.14454,-10.703134 1.14058,-3.679339 1.0704,-7.599728 3.11523,-9.810553 -0.0406,0.04392 0.0724,-0.0415 0.44336,-0.119131 0.371,-0.07763 0.9859,-0.147099 1.53516,-0.693362 0.79617,-0.791838 1.06212,-1.769292 1.27734,-2.583985 0.21521,-0.814689 0.39485,-1.495247 0.68555,-1.91211 0.46431,-0.665749 1.69982,-1.190371 2.66602,-2.48633 0.48364,-0.648662 0.88693,-1.497222 1.22461,-2.236329 0.33766,-0.739108 0.58398,-1.351564 0.58398,-1.351564 l 0.75391,-1.070313 -1.375,-0.302736 c -0.29273,-0.10588 -0.48912,-0.126679 -0.78125,-0.162108 -0.29212,-0.03541 -0.64207,-0.06568 -1.04102,-0.08984 -0.79788,-0.04833 -1.79978,-0.07338 -2.88672,-0.07227 z m 0,2.095704 c 1.0495,-0.0011 2.01992,0.0294 2.75976,0.07422 0.0333,0.002 0.0499,0.0057 0.082,0.0078 -0.31298,0.684403 -0.74208,1.500386 -1.00389,1.851552 -0.29703,0.398407 -0.87289,0.767326 -1.48438,1.269532 -0.17616,-0.17424 -0.39392,-0.382645 -0.64843,-0.611328 -0.58988,-0.530002 -1.29926,-1.131781 -2.00782,-1.404298 -0.76209,-0.293106 -1.7771,-0.330006 -2.64258,-0.332032 -0.86548,-0.002 -2.0625,0.617188 -2.0625,0.617188 0,0 1.18353,0.08207 2.00195,0.08398 0.81843,0.0019 1.86028,0.383159 2.3418,0.56836 0.42799,0.16461 1.1424,0.706525 1.69727,1.205079 0.22809,0.204937 0.42333,0.390868 0.58594,0.550781 -0.16642,0.180552 -0.32894,0.371702 -0.48242,0.591798 -0.61094,0.876087 -0.79682,1.814438 -0.99805,2.576172 -0.20122,0.761734 -0.4012,1.318965 -0.72266,1.638672 0.0348,-0.03439 -0.1042,0.04702 -0.48633,0.126954 -0.15341,0.03213 -0.36672,0.08194 -0.58008,0.146495 -0.98768,-1.22662 -3.15892,-3.836586 -4.75,-5.115247 -0.85268,-0.685253 -2.20803,-1.388916 -3.38867,-1.937501 1.82104,-0.653918 3.70342,-1.160953 5.60352,-1.494142 1.63966,-0.287524 4.08655,-0.411912 6.18555,-0.414063 z m -23.72658,8.013678 c 0,0 -1.38611,0.333695 -2.04102,1.058594 -0.41999,0.464889 -0.99044,1.270296 -1.10351,1.896485 -0.0204,0.113801 -0.0348,0.229152 -0.0488,0.343748 -0.43533,-0.27995 -1.15207,-0.715306 -1.58204,-0.822267 -0.63676,-0.1584 -1.41289,-0.371301 -2.16992,0.0957 -0.53645,0.330935 -0.89064,0.822754 -1.125,1.355471 -0.5913,0.195175 -1.37284,0.515978 -1.82813,0.976563 -0.65098,0.65856 -1.36434,1.430748 -1.74609,2.308593 -0.62783,0.363478 -1.78717,1.071871 -1.98047,1.462894 -0.1584,0.320353 -0.32769,0.673044 -0.44336,1.050781 -0.27387,-0.01172 -0.55181,0.0068 -0.79688,0.08009 -0.87029,0.260032 -1.87177,0.57885 -2.54101,1.328127 -0.89584,1.002974 -1.23988,2.317483 -1.31251,3.576176 -0.57591,0.51924 -1.7478,1.646273 -2.18554,2.595702 -0.51768,1.122789 -1.06827,2.43116 -1.21289,3.646487 -0.54194,0.264945 -1.08538,0.561857 -1.28321,0.781251 -0.44617,0.494824 -0.9576,1.067846 -1.22461,1.794922 -0.69571,1.894565 -1.05214,4.289993 -0.13281,6.105475 1.16379,2.298197 2.69108,3.709095 4.23633,5.062503 1.89898,1.663224 4.06346,3.070128 6.28321,4.214845 1.36183,0.702297 3.33915,1.293816 5.02734,1.750002 1.6882,0.456185 4.67969,-0.18361 4.67969,-0.18361 0,0 -2.628,-0.693687 -4.26758,-1.13672 -1.63957,-0.443048 -3.5411,-1.4743 -4.62109,-2.031251 -2.11055,-1.088399 -4.14595,-2.415993 -5.91212,-3.962891 -1.5209,-1.332091 -2.80986,-2.522284 -3.82422,-4.525393 -0.48294,-0.953689 -0.34794,-3.119912 0.22265,-4.673831 0.072,-0.19612 0.36496,-1.195798 0.75196,-1.625002 0.0242,-0.02683 0.0573,-0.07124 0.0859,-0.107414 0.19998,1.549388 0.91587,2.978364 1.66407,4.207033 1.37326,2.255136 3.38524,3.977603 5.33008,5.535159 2.19834,1.760577 7.19336,3.462892 7.19336,3.462892 0,0 -4.3682,-2.907006 -6.25,-4.414064 -1.91264,-1.531775 -3.71108,-3.454025 -4.90821,-5.419925 -0.83303,-1.367986 -1.51239,-2.891514 -1.48437,-4.302738 0.0159,-0.806865 0.13111,-2.541666 0.68554,-3.744142 0.37331,-0.809617 0.81618,-1.815558 1.12891,-2.529299 -7.1e-4,0.207004 0.006,0.411953 0.0174,0.611327 0.10998,1.938011 0.88782,3.865813 2.11719,5.351569 0.72143,0.871881 1.90363,1.586821 2.93164,2.156248 1.02802,0.569439 3.57227,0.746095 3.57227,0.746095 0,0 -2.06247,-1.112017 -3.02735,-1.646484 -0.96487,-0.534464 -1.88925,-1.6908 -2.3164,-2.207034 -1.01874,-1.231186 -1.69729,-2.899663 -1.78711,-4.482425 -0.0743,-1.309059 0.32386,-2.671538 0.93749,-3.601563 0.28128,-0.426282 0.96203,-1.144234 1.73438,-1.375001 0.11093,-0.03326 0.2281,-0.07328 0.34764,-0.117203 -0.01,2.041392 0.87699,4.012421 2.03711,5.574221 0.77153,1.038664 2.11516,2.006326 3.29297,2.783204 1.17783,0.776887 3.47657,0.675784 3.47657,0.675784 0,0 -1.77531,-0.941488 -2.90039,-1.683595 -1.1251,-0.742111 -2.21475,-1.894047 -2.7461,-2.609376 -1.04156,-1.402183 -1.79958,-3.174443 -1.76562,-4.820315 0.002,-0.08236 0.001,-0.294576 0.0136,-0.537112 0.037,-0.01852 0.0996,-0.0508 0.0996,-0.0508 0,0 -0.0674,-0.01814 -0.0977,-0.02721 0.0204,-0.303118 0.0705,-0.648049 0.19139,-0.892578 0.11309,-0.228774 0.44127,-0.726195 0.74805,-1.177735 -0.3908,1.807813 0.35059,3.634925 1.21484,5.046878 0.85682,1.399757 2.51831,2.784391 3.98048,3.898438 1.46216,1.114058 3.42383,1.408204 3.42383,1.408204 0,0 -1.60241,-1.194343 -2.93165,-2.365234 -1.48811,-1.310847 -2.64158,-2.636434 -3.27539,-3.671878 -0.76907,-1.256417 -1.3186,-2.827103 -1.0332,-4.066407 0.11966,-0.519523 0.65107,-1.736328 1.38086,-2.474614 0.22492,-0.227565 0.47859,-0.497064 0.72851,-0.765623 -0.12638,0.608898 -0.1531,1.223676 -0.13281,1.771485 0.0957,2.58126 1.15396,5.336114 3.13867,7.093754 1.32712,1.175268 3.51032,1.778296 5.40235,2.185548 1.89204,0.407252 3.56641,-0.136706 3.56641,-0.136706 0,0 -1.78153,-0.287887 -3.58594,-0.953126 -1.73178,-0.638461 -3.56381,-1.356972 -4.45313,-2.144535 -1.61469,-1.429944 -2.58946,-3.874264 -2.67188,-6.09766 -0.0208,-0.557476 0.025,-1.203893 0.17776,-1.734377 0.15314,-0.530476 0.40123,-0.916959 0.72265,-1.115233 0.0106,-0.0064 0.85553,-0.448045 1.36914,-0.320315 0.35059,0.08719 1.13935,0.100157 1.61915,0.101556 -0.1109,1.340901 0.20194,2.713468 0.74609,3.902349 0.23441,0.512157 0.67068,0.993075 1.05664,1.396484 0.38596,0.403408 2.40039,1.285157 2.40039,1.285157 0,0 -1.59713,-1.520467 -1.95313,-1.892581 -0.35603,-0.372094 -0.67331,-1.058896 -0.79296,-1.320311 -0.55257,-1.207314 -0.62801,-2.518735 -0.4004,-3.779299 0.0557,-0.30875 0.29609,-1.083531 0.60743,-1.568361 0.31132,-0.484835 1.55469,-1.564454 1.55469,-1.564454 z m -25.37697,28.576187 c 0,0 -1.90264,3.128949 -1.48437,6.054694 0.19702,1.378259 0.50266,2.851829 1.2246,4.201174 0.86148,1.610133 2.10291,2.994953 3.48438,4.119144 0.83443,0.679015 2.04736,1.32612 3.09375,1.845703 1.04641,0.519583 4.04688,0.716796 4.04688,0.716796 0,0 -2.36992,-1.24604 -3.36914,-1.742186 -0.99924,-0.496158 -2.23553,-1.627511 -2.8125,-2.156252 -1.1653,-1.067891 -2.13107,-2.278849 -2.85547,-3.632816 -0.55726,-1.041533 -1.39171,-2.841685 -1.5586,-4.150393 -0.22975,-1.801679 0.23048,-5.255864 0.23048,-5.255864 z m -1.77539,6.158208 c 0,0 -1.47231,3.494187 -1.50977,4.843755 -0.0374,1.349557 -0.0386,2.931811 0.27931,4.148438 0.22125,0.84697 0.53619,1.706761 0.96875,2.513675 -0.18713,0.637097 -0.34806,1.480858 -0.22265,2.269532 0.244,1.534656 0.59172,3.328477 1.20703,4.613283 -0.0866,1.813207 -0.14298,4.597991 0.19532,6.259767 0.32353,1.58917 0.6057,3.41758 1.63087,5.00587 0.55524,0.86023 1.46691,1.64213 2.26758,2.29492 0.80066,0.65278 4.3164,2.29297 4.3164,2.29297 0,0 -2.61438,-2.60729 -3.47656,-3.50977 -0.66287,-0.69385 -1.2915,-1.59228 -1.59375,-2.06055 -0.75592,-1.17112 -1.52187,-2.74784 -1.85352,-4.37695 -0.23765,-1.167361 -0.58734,-3.129425 -0.88281,-4.818364 0.80689,1.283842 1.8646,2.402851 3.03125,3.318359 0.93591,0.734442 2.30541,1.373305 3.48438,1.882815 1.17897,0.50951 5.36328,0.72852 5.36328,0.72852 0,0 -3.47259,-1.18529 -4.77344,-1.966801 -1.04886,-0.630123 -2.32516,-1.563172 -2.95898,-2.06055 -1.2963,-1.017238 -2.43033,-2.32392 -3.12305,-3.765625 -0.43038,-0.895696 -1.23573,-2.241367 -1.76563,-4.007818 -0.11369,-0.379007 -0.19835,-0.775805 -0.26366,-1.156249 0.26276,0.370583 0.55519,0.722068 0.88477,1.044923 0.98362,0.963565 2.50298,1.695324 3.82422,2.273437 1.32124,0.578117 4.50391,0.693362 4.50391,0.693362 0,0 -2.59576,-1.20954 -3.83985,-1.75391 -1.24409,-0.544354 -2.63307,-1.908965 -3.23242,-2.496092 -0.94024,-0.921068 -1.58724,-2.292153 -1.94922,-3.67774 -0.21117,-0.808279 -0.7387,-2.414314 -0.70313,-3.697265 0.0355,-1.282953 0.1914,-4.835942 0.1914,-4.835942 z m 4.67774,10.306646 c 0,0 1.05279,1.627284 1.80664,2.265628 0.75385,0.638347 1.66901,1.370257 2.40625,1.771484 2.68451,1.460989 5.6749,2.292089 8.6211,2.937504 2.69384,0.59014 8.06836,0.484373 8.06836,0.484373 0,0 -5.37938,-0.613368 -7.91992,-1.169919 -2.92009,-0.639697 -5.83937,-1.455509 -8.4297,-2.865239 -0.63297,-0.344467 -1.55741,-1.063295 -2.29687,-1.689454 -0.73945,-0.626155 -2.25586,-1.734377 -2.25586,-1.734377 z m 2.54883,10.541022 c 0,0 3.37049,2.05306 5.31836,2.552736 1.37548,0.352857 5.19056,0.774226 7.83203,0.73047 3.1123,-0.05155 8.93946,-1.626952 8.93946,-1.626952 0,0 -6.05956,0.575101 -8.95508,0.623045 -2.51217,0.04161 -6.46521,-0.410869 -7.56641,-0.693359 -1.72514,-0.442538 -5.56836,-1.58594 -5.56836,-1.58594 z m -4.08594,3.431642 c 0,0 1.50236,3.14759 2.92188,4.40039 1.03599,0.91434 2.2282,1.78731 3.61132,2.23633 0.76324,0.24779 1.79381,0.31027 2.67188,0.33204 0.87807,0.0219 3.88086,-0.51368 3.88086,-0.51368 0,0 -2.95263,-0.23312 -3.79297,-0.25391 -0.84033,-0.0212 -1.91547,-0.34367 -2.45117,-0.51758 -1.18032,-0.38318 -2.2692,-1.16022 -3.25391,-2.02929 -1.16937,-1.03204 -3.58789,-3.6543 -3.58789,-3.6543 z m -3.25782,3.85352 c 0,0 0.77665,1.78392 1.83203,3.67383 -0.22673,0.38793 -0.70005,1.28859 -0.88085,2.31836 -0.24144,1.3753 -0.53866,3.11594 -0.50586,4.51172 0.0743,3.16112 -0.18286,7.11944 2.36914,9.83399 0.44672,0.47518 1.053,0.85441 1.77148,1.26954 0.71848,0.41512 1.82228,0.87455 2.64649,1.11914 1.94169,0.57619 3.81445,0.49218 3.81445,0.49218 0,0 -1.95657,-0.91754 -3.45508,-1.63671 -0.74925,-0.35959 -1.58911,-0.98677 -2.24414,-1.36524 -0.65503,-0.37847 -1.18685,-0.86462 -1.36719,-1.0293 -2.50166,-2.28444 -2.01157,-5.48064 -2.16992,-8.75391 -0.0447,-0.92453 0.0911,-2.67774 0.1621,-4.01953 0.0502,-0.94973 0.0234,-1.92524 0.002,-2.48047 0.71963,1.26257 1.55345,2.53838 2.36719,3.33789 1.42952,1.40452 2.95631,2.85682 4.79883,3.92774 3.06352,1.78057 11.11133,3.66406 11.11133,3.66406 0,0 -7.64522,-3.73141 -10.21094,-5.22266 -1.60148,-0.93081 -3.26188,-1.91156 -4.67383,-3.29883 -1.8632,-1.83062 -5.36719,-6.3418 -5.36719,-6.3418 z m 10.81641,7.15821 c -0.0413,0.002 -0.0687,0.0113 -0.0781,0.0314 0,0 4.26965,2.43098 6.58204,3.34375 2.99325,1.18152 6.00549,2.56521 9.24219,3.15234 2.56177,0.4647 7.55079,-0.12109 7.55079,-0.12109 0,0 -5.06934,-0.13697 -7.42579,-0.56446 -3.12103,-0.56614 -6.09243,-1.92436 -9.10938,-3.11523 -2.11063,-0.83312 -6.14134,-2.75159 -6.76172,-2.72657 z" /></g></svg>
