<?xml version="1.0" encoding="UTF-8" standalone="no"?>
<!-- Created with Inkscape (http://www.inkscape.org/) -->

<svg
   version="1.1"
   id="svg15365"
   width="400"
   height="400"
   viewBox="0 0 400 400"
   sodipodi:docname="PulledBackPonyTail.svg"
   inkscape:version="1.2.2 (b0a8486, 2022-12-01)"
   xmlns:inkscape="http://www.inkscape.org/namespaces/inkscape"
   xmlns:sodipodi="http://sodipodi.sourceforge.net/DTD/sodipodi-0.dtd"
   xmlns="http://www.w3.org/2000/svg"
   xmlns:svg="http://www.w3.org/2000/svg">
  <defs
     id="defs15369" />
  <sodipodi:namedview
     id="namedview15367"
     pagecolor="#ffffff"
     bordercolor="#666666"
     borderopacity="1.0"
     inkscape:showpageshadow="2"
     inkscape:pageopacity="0.0"
     inkscape:pagecheckerboard="0"
     inkscape:deskcolor="#d1d1d1"
     showgrid="false"
     inkscape:zoom="2.2275"
     inkscape:cx="194.61279"
     inkscape:cy="208.08081"
     inkscape:window-width="1943"
     inkscape:window-height="1111"
     inkscape:window-x="2284"
     inkscape:window-y="238"
     inkscape:window-maximized="0"
     inkscape:current-layer="layer2">
    <inkscape:page
       x="0"
       y="0"
       id="page15371"
       width="400"
       height="400" />
  </sodipodi:namedview>
  <g
     id="g15373"
     inkscape:groupmode="layer"
     inkscape:label="Hair Back">
    <path
       d="m 216.02439,207.30974 c 0.832,-1.57067 1.61067,-3.14534 2.356,-4.67867 4.63334,-9.52933 8.372,-19.49466 11.144,-29.72133 1.72,-6.34 3.07734,-12.90533 2.43867,-19.44267 -0.664,-6.81333 -3.46933,-13.16 -6.79733,-19.06266 -1.30667,-2.31734 -4.18667,-5.48534 -7.10134,-3.54 -1.59866,1.068 -2.97866,2.42933 -4.30133,3.788 -2.47733,2.548 -5.50267,3.81733 -8.45333,5.72266 -1.85867,1.2 -3.75334,2.9 -5.52133,4.26134 -3.48667,2.684 -7.25467,5.01466 -10.62267,7.82266 -2.65867,2.216 -5.5,4.21734 -8.07467,6.46534 -5.40666,4.71866 -10.84133,9.14933 -16.8,13.144 -6.06,4.06266 -12.19466,8.08 -17.55466,13.06266 -3.132,2.91334 -6.62267,6.71467 -6.78134,11.30134 0.84934,-1.21867 1.612,-2.5 2.824,-3.42534 -2.46266,1.88 -3.044,9.248 -2.70666,11.99467 0.46933,3.81466 1.57466,7.09466 4.01466,10.136 1.98534,2.476 4.77734,3.644 7.20134,5.728 -0.25467,-1.20934 -0.56,-2.516 -0.74,-3.808 2.34,0.35466 3.936,2.20533 5.74266,3.53466 1.92534,1.41867 3.7,2.26667 6.056,2.96534 5.12134,1.52 10.49867,1.92933 15.79734,2.33733 7.668,0.59067 16.12666,1.23333 23.26399,-2.22933 6.73467,-3.268 11.136,-9.78267 14.616,-16.356"
       style="fill:#383838;fill-opacity:1;fill-rule:nonzero;stroke:none;stroke-width:1.33333"
       id="path16141" />
    <path
       d="m 150.3384,185.13134 c -3.132,2.912 -6.62267,6.71333 -6.78134,11.30133 0.84934,-1.21866 1.612,-2.5 2.824,-3.42533 -2.80266,2.14133 -3.07066,8.276 -2.756,11.45333 0.464,4.67467 3.97467,8.54933 7.96934,10.788 -1.212,-1.10667 -1.33467,-3.31867 -1.86934,-4.78667 3.404,1.91067 5.30667,6.72534 9.608,7.152 0.26934,0.35734 0.15067,0.28534 0.49867,0.52667 -2.53467,-3.012 -6.48267,-5.26133 -8.27867,-8.816 -1.79066,-3.54 -2.156,-9.99866 -0.19466,-13.69066 0.31466,1.824 1.028,4.79199 1.14133,7.19999 0.33067,0.40534 0.24667,0.28134 0.50533,0.796 -0.26666,-5.37733 -1.37066,-10.57733 1.124,-15.81466 1.88534,-3.956 7.00934,-8.548 11.11067,-10.31333 -1.832,2.55466 -4.076,4.42666 -5.83067,7.06266 3.61734,-3.408 7.58934,-6.40933 11.41467,-9.576 1.81467,-1.50133 3.90533,-2.91733 5.39067,-4.71333 1.168,-1.412 2.884,-2.192 4.044,-3.592 1.79333,-2.164 3.50266,-4.50533 5.19066,-6.73733 -0.47866,0.568 -1.16266,1.008 -1.77066,1.33066 -0.82267,0.43734 -1.312,0.97867 -2.02267,1.512 -0.74533,0.56 -1.672,1.19467 -2.51467,1.732 -1.87333,1.19334 -3.86,2.088 -5.68133,3.408 -1.96,1.42134 -3.82533,2.97067 -5.83733,4.32134 -5.968,4.008 -12.00267,7.97066 -17.284,12.88133"
       style="opacity:0.100006;fill:#ffffff;fill-opacity:1;fill-rule:nonzero;stroke:none;stroke-width:1.33333"
       id="path16151" />
    <path
       d="m 201.40879,223.6652 c 6.73467,-3.268 11.136,-9.78133 14.616,-16.356 0.83067,-1.57066 1.61067,-3.144 2.356,-4.67866 4.63334,-9.52933 8.37067,-19.49333 11.144,-29.72 1.71867,-6.34 3.07734,-12.90533 2.43867,-19.444 -0.66533,-6.81333 -3.46933,-13.15867 -6.79733,-19.06133 -2.30134,-4.08134 -5.73067,-9.83067 -10.46534,-3.98667 -1.256,1.54933 -1.93333,3.32133 -3.292,4.8 -2.892,3.14667 -4.79333,6.16267 -6.17733,10.252 -0.708,2.09467 -1.67333,3.75333 -2.84,5.65733 -1.37733,2.25067 -1.728,5.32267 -2.26667,7.864 -0.10266,0.49067 -0.18133,0.984 -0.25466,1.48 -0.54533,3.676 -0.564,7.25867 -3.41867,9.976 -2.50266,2.38134 -4.91866,4.65867 -6.82666,7.592 -3.812,5.86267 -5.62,13.816 0.69866,18.692 -7.04666,0.948 -8.216,-6.29733 -8.55466,-11.21466 -2.02534,2.79466 -3.89067,5.064 -4.36267,8.67733 -1.95333,-4.81733 1.64533,-10.27067 4.20267,-14.03333 1.89066,-2.77867 4.05733,-5.35734 6.22666,-7.92134 1.072,-1.26666 2.088,-2.64533 3.28267,-3.79733 0.91733,-0.884 2.02533,-1.328 3.02267,-2.09333 1.232,-0.944 2.47466,-1.82934 3.72266,-2.772 2.568,-1.94134 4.92133,-4.11067 7.23067,-6.29467 1.07733,-1.01867 1.80933,-1.83067 2.10933,-3.33733 0.264,-1.324 0.67733,-3.26934 0.51867,-4.60667 -0.28,-2.38667 -1.60534,-4.48667 -3.14934,-6.26667 -1.35333,-1.56 -2.372,-3.64133 -4.036,-4.90266 -0.92266,-0.7 -1.28266,-1.24267 -2.17733,-0.684 -0.93866,0.58666 -1.652,1.84666 -2.332,2.704 -1.44,1.81466 -2.936,4.08 -3.79066,6.26133 -0.92267,2.35467 -1.96934,4.656 -3.028,6.952 -0.78134,1.692 -2.02267,3.26533 -2.612,5.00933 -1.368,4.04667 -2.74934,7.876 -5.964,10.87334 -4.41334,4.116 -9.63334,7.504 -13.816,11.848 -1.49867,1.556 -2.40267,3.46266 -3.93067,4.98266 -1.83067,1.81867 -4.128,3.024 -5.71867,5.12 -3.252,4.28534 -3.72533,12.60133 0.55734,16.288 2.412,2.07733 5.18533,1.90267 7.924,2.604 -2.512,2.25467 -5.14,1.87733 -8.15067,1.09467 0.184,4.11466 6.17067,7.22533 9.36267,8.84 1.98533,1.00266 3.8,1.67066 5.76666,2.764 9.036,5.02266 19.29867,5.43866 28.78133,0.83866"
       style="opacity:0.199997;fill:#000000;fill-opacity:1;fill-rule:nonzero;stroke:none;stroke-width:1.33333"
       id="path16167" />
    <path
       d="m 194.494,135.60321 c -0.82934,1.236 -2.09734,2.336 -2.244,3.884 -0.13734,1.45066 -0.28934,2.76666 -0.59467,4.21866 -0.75733,3.62134 -1.21867,7.30667 -2.23067,10.872 -0.256,0.90534 -0.78666,1.668 -1.17733,2.51334 -0.36133,0.78266 -0.45467,1.604 -0.83333,2.36133 -0.57334,1.14933 -0.77467,2.39333 -1.20667,3.60667 -0.61733,1.73466 -1.64533,3.464 -2.34133,5.03333 1.996,-1.73733 3.61733,-4.456 5.816,-5.772 1.848,-1.10533 4.97333,-1.892 6.364,-3.496 -1.352,1.31467 -2.65467,3.47067 -3.61867,5.12667 -0.96933,1.66266 -2.28667,3.5 -2.924,5.32533 1.77467,-1.09467 3.16933,-2.96133 5.23467,-3.70133 1.24266,-0.444 2.36133,-0.43867 3.59466,-1.04934 1.23067,-0.60933 2.74667,-1.27866 3.864,-1.716 -1.864,1.39867 -3.08666,4.56534 -4.25466,6.57867 -1.50267,2.58933 -3.80667,5.144 -4.62667,8.104 -0.60667,2.18533 -1.228,4.60667 -1.46667,6.88133 -0.39733,3.812 0.368,10.47067 5.39867,10.76534 0.38133,0.0227 3.74266,-0.32267 3.648,-0.80934 1.54266,7.88267 -10.69467,10.588 -15.96267,11.124 -6.47466,0.65733 -9.62,-1.408 -13.07333,-6.576 -1.81333,-2.712 -2.08,-6.708 -3.95067,-9.268 -2.824,2.96267 -3.26,5.42 -2.98666,9.67067 0.18933,2.95733 1.496,7.136 4.04666,8.58933 0.604,5.268 7.60134,9.29067 11.86934,11.38267 3.104,1.52266 6.52,2.032 9.884,2.88 2.77733,0.7 5.30533,1.12533 8.272,0.97733 0.78,-0.0387 1.52533,-0.13733 2.23866,-0.29067 7.36933,-1.58666 11.33467,-8.97866 14.792,-15.50933 0.83067,-1.57067 1.61067,-3.14533 2.356,-4.67867 4.63333,-9.53066 8.37067,-19.49466 11.144,-29.72133 1.71867,-6.34 3.07733,-12.90533 2.43867,-19.44266 -0.66534,-6.81334 -3.46934,-13.16 -6.79734,-19.06267 -0.98666,-1.75067 -2.03066,-4.084 -3.88533,-5.06 -1.87467,-0.98667 -4.08533,-1.45067 -6.004,-2.40133 -4.67467,-2.31467 -10.23467,-1.66934 -14.38133,1.432 -2.60267,1.94533 -4.60533,4.55066 -6.40133,7.228"
       style="opacity:0.199997;fill:#000000;fill-opacity:1;fill-rule:nonzero;stroke:none;stroke-width:1.33333"
       id="path16183" />
    <path
       d="m 331.69866,50.201875 c 0.19867,-0.190666 0.404,-0.378666 0.61333,-0.562666 3.212,-2.824 7.45333,-3.386667 11.13867,-1.121334 3.736,2.297334 6.04,6.462667 7.14266,10.6 1.25067,4.698667 1.556,9.604 1.10667,14.436 -0.42933,4.625333 -1.36,9.341333 -3.824,13.349333 0.54267,-1.670667 0.652,-3.48 0.31333,-5.202667 -1.24133,3.757334 -2.62266,7.906667 -5.588,10.68 -0.80266,0.750667 -1.68266,1.213333 -2.61066,1.770667 -1.028,0.617333 -1.968,1.433333 -2.98134,2.094666 -0.84,0.549334 -1.68,1.097334 -2.492,1.685334 -0.248,0.18 -1.84933,1.685333 -2.03333,1.630666 -0.48533,-0.144 -0.42666,-0.441333 -0.69866,-0.74 -2.84667,0.184 -3.568,-4.558666 -3.89467,-6.512 -0.72133,-4.312 -0.27867,-8.706666 -1.14133,-12.943999 -0.256,-1.257334 0.13466,-2.601334 -0.25334,-3.808 -0.352,-1.097334 -0.68666,-2.142667 -0.89066,-3.294667 -0.42267,-2.388 -0.572,-4.826666 -0.40934,-7.246666 0.32,-4.736 1.88267,-9.426667 4.92667,-13.117333 0.49067,-0.596 1.01733,-1.162667 1.576,-1.697334"
       style="fill:#383838;fill-opacity:1;fill-rule:nonzero;stroke:none;stroke-width:1.33333"
       id="path16193" />
    <path
       d="m 194.136,146.26441 c -2.08267,1.46533 -4.23734,2.98 -6.25067,4.65866 -1.15467,0.96134 -2.34267,1.88134 -3.528,2.8 -1.52267,1.18 -3.09733,2.39867 -4.58133,3.69467 -6.36667,5.556 -11.48534,9.56133 -16.59867,12.98933 l -1.11333,0.74534 c -5.67467,3.8 -11.54134,7.728 -16.68934,12.51466 -2.39866,2.22934 -4.70933,4.69867 -6.13466,7.68267 -0.608,1.27467 -1.104,2.85333 -1.31867,4.25067 -0.24933,1.61333 0.0413,3.26666 -0.25867,4.87333 -0.29066,1.556 -0.384,3.62 -0.15333,5.19066 0.1,0.68134 0.28,1.892 0.62667,2.48134 0.144,-0.54534 0.396,-1.10667 0.60666,-1.568 0.15067,1.71066 0.732,3.46 1.26267,5.08266 2.75067,8.416 11.82133,12.83067 19.97067,14.26267 3.48666,0.61333 7.048,0.78 10.58,0.58267 -1.76267,-1.628 -5.64534,-2.548 -7.87734,-3.87867 -1.64666,-0.98267 -3.09066,-2.272 -4.56533,-3.48667 -1.13467,-0.93466 -3.17467,-3.072 -4.70933,-3.13733 -0.35334,-0.73067 -2.01867,-0.512 -2.72934,-0.60667 -0.92933,-0.12666 -1.844,-0.32533 -2.67333,-0.73466 -1.26933,-0.62534 -1.89067,-1.44134 -2.54933,-2.66934 -1.11867,-2.08666 -1.74934,-4.84266 -1.76,-7.27466 0.032,0.796 -0.21734,1.696 -0.29734,2.49866 -0.0893,0.90934 -0.012,1.84134 -0.064,2.75467 -0.36133,-0.32133 -0.85066,-1.03467 -1.09866,-1.49333 -0.84934,-1.57067 -0.83334,-3.71467 -0.83334,-5.51067 0,-1.76933 0.064,-3.48666 0.912,-5.05866 -0.78666,0.79466 -1.05333,2.07333 -1.80133,2.82133 -0.0827,-1.25733 0.124,-2.29333 0.488,-3.456 0.71333,-2.27067 1.40133,-4.72933 2.768,-6.66933 0.74667,-1.06134 1.59067,-1.812 2.56667,-2.68667 4.26533,-3.82267 8.884,-7.23067 13.59466,-10.48133 1.07867,-0.744 2.41467,-1.412 3.33334,-2.348 0.70133,-0.716 1.13466,-1.47467 1.97066,-2.11067 2.07067,-1.57867 4.49734,-2.65467 6.412,-4.444 2.484,-2.32133 5.25734,-4.716 7.95867,-6.78933 0.93733,-0.72 2.21067,-1.11467 2.984,-1.98 -0.768,2.94 -3.22667,4.52933 -4.69467,7.10133 3.408,-3.744 8.80267,-6.45333 10.872,-11.288 0.0587,1.616 -1.5,5.648 -2.83466,6.62 1.96266,-2.988 5.16266,-5.076 7.28666,-7.808 -0.26266,1.628 -1.11733,5.05867 -2.596,6.00533 1.292,-0.57733 2.36667,-1.87333 3.50534,-2.696 0.936,-0.67733 2.24533,-1.29066 3.00133,-2.15466 1.35333,1.41466 0.12533,5.99333 -0.30933,7.54533 -0.704,2.512 -1.448,4.38 -3.048,6.32933 2.51466,-1.672 4.08666,-4.404 5.976,-6.67733 1.35333,-1.62933 1.74933,-3.40133 2.38266,-5.35067 -0.18533,0.56934 0.316,2.036 0.34533,2.69334 0.0427,0.95333 -0.005,1.896 -0.0907,2.84266 -0.17734,1.93734 -0.964,3.636 -1.348,5.52667 -0.31067,1.528 -0.768,3.00933 -1.29333,4.50267 -1.17334,3.34666 -2.656,6.66666 -4.10667,9.904 -0.64267,1.43333 -1.928,2.644 -2.016,4.31333 1.66533,-1.46 3.72133,-2.77067 5.46667,-4.29333 2.08533,-1.82 3.76399,-3.18667 5.17333,-5.556 1.50666,-2.536 3.19333,-5.048 4.80533,-7.52534 1.81867,-2.79466 2.944,-5.824 3.75467,-9.024 0.92266,-3.64133 1.97066,-7.06666 1.964,-10.84133 -0.007,-3.13467 -0.33867,-4.83867 -1.972,-7.39333 -1.29867,-2.032 -4.20134,-3.256 -6.54534,-3.812 -1.91333,-0.45467 -5.224,-0.21334 -6.41733,1.548 -0.74266,1.09466 -0.9,1.97066 -1.968,2.944 -1.188,1.08 -2.428,2.12 -3.74266,3.044"
       style="fill:#000000;fill-opacity:1;fill-rule:nonzero;stroke:none;stroke-width:1.33333"
       id="path16197" />
    <path
       d="m 353.69199,73.738941 c -0.22133,2.38 -0.59067,4.622667 -1.13067,6.936 -0.28933,1.24 -0.5,2.5 -0.852,3.724 -0.228,0.796 -1.38266,2.521333 -1.336,3.236 -0.0613,-0.957333 -0.0293,-1.941333 -0.0307,-2.909333 -0.33734,2.065333 -2.484,5.076 -3.788,6.748 -1.79867,2.305333 -3.98,4.302666 -6.492,5.808 -1.59067,0.952 -3.46534,2.965332 -5.41334,2.762662 -1.59733,-0.166662 -3.40266,-1.525329 -4.18933,-2.893329 -1.832,-3.18 -1.41333,-6.42 -1.80266,-9.957333 -0.17467,-1.589333 -0.988,-3.14 -0.0787,-4.585333 0.536,-0.852 1.68933,-1.545334 2.58,-2.074667 4.12933,-2.449333 7.39466,-6.018667 10.212,-9.94 1.992,-2.774666 2.644,-6.601333 2.93466,-9.897333 0.62,0.904 0.26267,2.985333 0.26267,4.12 0,1.706667 -0.004,3.413333 0,5.118667 0.004,1.677333 -0.40133,3.205333 -0.56267,4.823999 -0.16533,1.649334 -0.0653,3.528 -1.34,4.72 1.41467,-1.684 2.18667,-3.356 2.64667,-5.562666 -0.0227,2.716 0.356,6.124 -0.23733,8.676 0.71333,-0.764 0.67733,-1.558667 1.01466,-2.509334 0.33467,-0.942666 0.992,-1.906666 1.328,-3.036 0.352,-1.178666 0.9,-2.318666 1.22267,-3.538666 0.33467,-1.262667 0.028,-2.648 0.40667,-3.926667 0.70533,1.654667 0.71866,5.112 0.32533,6.976 0.76267,-2.141333 1.608,-4.298666 1.972,-6.550666 0.66133,-4.098667 -0.13733,-7.198667 -1.968,-10.644 -0.692,-1.305333 -1.17733,-2.768 -1.98667,-4.065333 -1.32666,-2.125334 -2.844,-3.758667 -4.98533,-5.076 -4.40267,-2.705334 -9.90266,-0.0053 -14.54666,0.236 -0.48267,-2.924 3.664,-3.444 5.61599,-4.053333 3.92534,-1.222667 7.21734,-1.930667 11.02534,0.410666 3.768,2.316 6.61866,6.502667 8.02666,11.788 1.26534,4.754666 1.65867,9.846666 1.16667,15.135999"
       style="fill:#000000;fill-opacity:1;fill-rule:nonzero;stroke:none;stroke-width:1.33333"
       id="path16201" />
    <path
       d="m 335.36292,48.258142 c 3.93867,-2.325333 8.01334,0.737333 9.932,4.22 -1.34133,-0.856 -2.80133,-1.528 -4.324,-1.990667 1.34667,0.409334 2.84,1.958667 3.832,2.912 1.2,1.153334 2.264,2.450667 3.15867,3.854667 1.92,3.013333 3.33067,6.749333 2.32667,10.330666 0.18533,-0.658666 -0.41734,-2.109333 -0.59867,-2.766666 -0.268,-0.968 -0.6,-1.917334 -1.01467,-2.832 -0.75066,-1.652 -1.77733,-3.284 -2.99066,-4.637333 -1.38534,-1.542667 -3.10934,-2.78 -5.00934,-3.609334 -1.00266,-0.437333 -2.05466,-0.762666 -3.13066,-0.957333 -1.10934,-0.201333 -2.03467,0.06 -3.128,-0.01067 -0.60534,-1.042666 -0.83334,-2.336 -0.18134,-3.413333 0.288,-0.477333 0.67734,-0.834667 1.128,-1.1"
       style="opacity:0.100006;fill:#ffffff;fill-opacity:1;fill-rule:nonzero;stroke:none;stroke-width:1.33333"
       id="path16211" />
    <path
       d="m 347.39999,61.895075 c -1.84533,-3.689333 -4.968,-6.694666 -8.92933,-7.986666 -3.29334,-1.074667 -6.88933,-0.833334 -10.05467,0.444 -1.92266,3.214666 -2.96666,6.921333 -3.22,10.663999 -0.16266,2.42 -0.0133,4.858667 0.40934,7.246667 0.204,1.152 0.53866,2.197333 0.89066,3.294666 0.388,1.206667 -0.003,2.550667 0.25334,3.808 0.86266,4.237334 0.42,8.632 1.14133,12.944 0.32667,1.953333 1.04933,6.696 3.89467,6.512 0.272,0.298667 0.21333,0.596 0.69866,0.741333 0.184,0.05467 1.78533,-1.452 2.03333,-1.630666 0.812,-0.589334 1.652,-1.137334 2.492,-1.686667 1.01334,-0.661333 1.95334,-1.476 2.98134,-2.094667 0.928,-0.557333 1.808,-1.018666 2.61066,-1.769333 2.632,-2.464 4.01467,-6.009333 5.16134,-9.402666 0.48133,-1.425334 0.26,-2.938667 0.16533,-4.404 -0.0947,-1.677334 -0.216,-3.354667 -0.32,-5.032 0.50267,0.817333 1.00533,1.634666 1.508,2.453333 0.70133,-4.306666 0.49067,-8.834666 -1.16,-12.874666 -0.16933,-0.416 -0.35467,-0.825334 -0.556,-1.226667"
       style="opacity:0.199997;fill:#000000;fill-opacity:1;fill-rule:nonzero;stroke:none;stroke-width:1.33333"
       id="path16227" />
    <path
       d="m 344.55999,63.707875 c -0.148,-1.493333 -0.508,-3.577333 -1.38267,-4.786666 -0.752,-1.04 -1.86666,-2.325334 -2.96666,-2.984 -0.94267,-0.566667 -2.59734,-0.886667 -3.69067,-0.922667 -0.95733,-0.03067 -1.81067,0.445333 -2.764,0.448 -1.504,0.0053 -2.948,-0.393333 -4.47733,-0.285333 -1.60667,0.112 -3.19333,0.484 -4.68533,1.085333 -1.92267,3.216 -2.96667,6.922666 -3.21867,10.665333 -0.164,2.418667 -0.0133,4.858667 0.408,7.245333 0.204,1.153333 0.53867,2.198667 0.892,3.296 0.388,1.206667 -0.003,2.549333 0.25333,3.806667 0.38267,1.88 0.0733,3.546666 1.07867,5.316 0.88533,1.558666 2.736,1.431999 4.452,1.286666 5.85866,-0.498667 11.024,-3.208 14.18,-8.238666 1.696,-2.705334 2.008,-5.773334 2.008,-8.937333 0,-2.305334 0.14,-4.666667 -0.0827,-6.952 -0.001,-0.01467 -0.003,-0.028 -0.004,-0.04267"
       style="opacity:0.199997;fill:#000000;fill-opacity:1;fill-rule:nonzero;stroke:none;stroke-width:1.33333"
       id="path16243" />
  </g>
  <g
     inkscape:groupmode="layer"
     id="layer2"
     inkscape:label="Hair Front">
    <path
       d="m 338.36546,49.196809 c 0.008,-0.324 0.008,-0.645334 0.003,-0.965334 -0.003,-0.129333 -0.004,-0.258666 -0.009,-0.388 -0.0347,-0.858666 -0.12533,-1.702666 -0.28133,-2.526666 -0.024,-0.122667 -0.0507,-0.242667 -0.0773,-0.362667 -0.0653,-0.302666 -0.14,-0.601333 -0.22533,-0.897333 -0.0333,-0.12 -0.0667,-0.24 -0.104,-0.357333 -0.12533,-0.397334 -0.26267,-0.790667 -0.42667,-1.173334 -0.36266,-0.850666 -0.82266,-1.664 -1.39466,-2.433333 -10e-4,0 -10e-4,-0.0013 -10e-4,-0.0027 -0.24933,-0.334666 -0.47733,-0.670666 -0.69066,-1.006666 -0.008,-0.012 -0.0147,-0.024 -0.0213,-0.036 -0.60933,-0.958667 -1.11066,-1.901334 -1.692,-2.758667 -1.05066,-1.768 -2.13999,-3.490666 -3.69066,-4.782666 -3.972,-3.308 -8.848,-5.62 -12.91333,-8.877334 -4.924,-3.945333 -9.704,-5.883999 -15.704,-7.823999 -9.916,-3.206667 -19.38667,-3.525334 -29.8,-3.942667 -12.56934,-0.505333 -23.964,2.118667 -35.90134,5.324 -12.66133,3.4 -21.548,6.974666 -30.29466,17.182666 -8.04533,9.388 -15.85867,19.224 -20.66267,30.615999 -7.228,17.136 -6.91466,36.176005 -4.00133,54.232005 1.128,6.99466 5.032,41.4 17.89067,38.008 0.06,-0.012 0.11866,-0.009 0.17866,-0.024 0.30934,-0.076 0.60934,-0.176 0.9,-0.296 0.20134,-0.0827 0.392,-0.188 0.58267,-0.28934 0.0787,-0.0427 0.16133,-0.076 0.23866,-0.12133 0.25067,-0.14533 0.48934,-0.30933 0.72134,-0.484 0.0107,-0.008 0.0227,-0.0147 0.0333,-0.0227 0.26667,-0.20133 0.52267,-0.42 0.76667,-0.65466 0.028,-0.0253 0.0573,-0.0493 0.084,-0.076 0,0 0,0 0,0 0.104,-0.10267 0.19733,-0.21467 0.296,-0.32134 0,0 0.001,-10e-4 0.001,-10e-4 0.10933,-0.11867 0.21867,-0.236 0.32267,-0.35867 0.188,-0.224 0.364,-0.46 0.53333,-0.7 0.0227,-0.0307 0.0467,-0.06 0.068,-0.092 0,0 0,0 0,0 0.40933,-0.59333 0.76667,-1.22266 1.064,-1.868 0.0293,-0.064 0.048,-0.132 0.0773,-0.19733 0.092,-0.19867 0.18534,-0.39733 0.27067,-0.60133 1.16133,-2.76534 1.828,-5.97867 2.70667,-8.708 0,-10e-4 0.001,-10e-4 0.001,-0.003 0.29733,-0.76 0.63333,-1.504 0.99333,-2.236 0.0547,-0.10933 0.11067,-0.21867 0.16534,-0.328 0.36266,-0.716 0.74666,-1.42133 1.16266,-2.10667 0.001,-0.001 0.001,-0.003 0.001,-0.003 0.96266,-1.39334 2.32533,-3.26534 3.496,-4.68267 0.52266,-0.57333 1.05866,-1.13467 1.624,-1.66667 0.10666,-0.0987 0.22133,-0.20266 0.364,-0.228 0.35866,-0.0653 0.59333,0.356 0.70933,0.70134 0.53467,1.59066 1.07067,3.18 1.60667,4.77066 0.72933,2.672 1.488,5.34934 2.29066,7.91334 0.148,0.47066 0.69467,1.51066 1.24134,2.58266 0.352,1.044 0.70266,2.08667 1.05466,3.13067 0.052,-0.156 0.10267,-0.31333 0.15467,-0.468 0.0573,0.19733 0.0867,0.35867 0.068,0.46 0.116,-0.63467 0.25333,-1.25867 0.39867,-1.87733 1.01066,-3.072 1.97466,-6.18267 2.668,-9.328 0.66,-2.48134 1.128,-5.00267 1.104,-7.68667 0.164,-1.48933 0.344,-2.976 0.63866,-4.45867 -0.90133,0.18934 -1.74533,0.84267 -2.62533,1.368 2.21333,-3.81066 4.464,-8.06133 6.38,-12.00933 0.36667,-0.756 1.128,-4.832 1.57067,-5.092 -0.77867,0.45733 -1.63734,0.56933 -2.492,0.67067 1.72133,-3.36134 4.592,-8.26134 7.356,-10.708 -1.38667,0.43333 -3.372,1.44533 -4.86134,1.21066 1.50534,-3.295999 4.06534,-6.122665 4.90934,-9.745332 -0.98534,0.878667 -2.284,1.364 -3.53067,1.516 3.25467,-4.862667 7.20933,-9.354666 10.676,-14.065333 0.43067,-0.585333 0.85467,-1.186667 1.276,-1.792 0.11067,-0.158667 0.22267,-0.32 0.33333,-0.48 0.388,-0.56 0.77334,-1.124 1.16,-1.692 0.83067,-1.144 1.68267,-2.284 2.49067,-3.432 0.89333,-1.269333 1.748,-2.445333 2.61867,-3.530666 0.80666,-0.949334 1.65866,-1.848 2.56133,-2.682667 0.116,-0.106667 0.22933,-0.214667 0.34667,-0.32 0.224,-0.198667 0.45333,-0.389333 0.684,-0.578667 0.152,-0.125333 0.304,-0.249333 0.46,-0.370666 0.22266,-0.174667 0.45066,-0.344 0.68133,-0.510667 0.17333,-0.124 0.35067,-0.244 0.52933,-0.364 0.228,-0.153333 0.45734,-0.305333 0.69334,-0.449333 0.196,-0.12 0.39866,-0.229334 0.59866,-0.342667 0.23334,-0.129333 0.46134,-0.265333 0.70134,-0.386667 0.416,-0.209333 0.84133,-0.405333 1.28,-0.585333 0.116,-0.044 0.23333,-0.088 0.34933,-0.132 0.44133,-0.169333 0.88667,-0.333333 1.352,-0.470667 6.04667,-1.785333 12.40267,-2.369333 18.67867,-1.810666 4.54933,0.405333 8.56533,1.62 11.912,4.541333 1.39466,1.216 14.22533,8.376 13.944,9.978666 0.224,-1.279999 0.42133,-2.518666 0.7,-3.805333 1.32133,0.817334 1.824,2.770667 3.46933,2.914667 0.384,-1.461333 0.67333,-2.914667 1.00267,-4.397333 2.82666,1.762666 4.24666,6.315999 4.16666,9.463999 2.52267,-2.522666 4.256,-5.865333 5.96134,-8.861333 0.82,0.666667 1.38133,1.873334 1.796,2.838667 1.404,-2.425333 3.424,-4.44 4.68533,-6.930667 0.13733,0.844 0.57867,1.673334 0.65467,2.544 1.828,-1.697333 3.18666,-4.221333 5.23999,-5.82 0.17334,0.436 0.568,0.885334 0.71334,1.256 2.564,-1.777333 2.61066,-8.910666 2.892,-11.934666 0.0413,-0.441333 0.068,-0.88 0.0853,-1.317333 0.005,-0.128 0.008,-0.256 0.0107,-0.384"
       style="fill:#383838;fill-opacity:1;fill-rule:nonzero;stroke:none;stroke-width:1.33333"
       id="path20437" />
    <path
       d="m 267.88066,49.311342 c 1.25067,0.893333 2.23333,1.924 2.468,2.897333 -0.11333,-0.473333 -7.49067,-2.672 -8.36667,-2.910666 -2.87066,-0.782667 -6.124,-0.705334 -9.08133,-0.669334 -6.81733,0.08667 -15.188,0.853334 -21.12667,4.436 -1.592,0.96 -3.37866,1.765334 -4.57333,3.048 -1.064,1.142667 -1.69333,2.456 -2.816,3.58 1.33333,-0.709333 2.93733,-0.448 4.34533,-0.933333 1.54667,-0.532 3.04,-1.306667 4.63067,-1.768 1.48533,-0.430667 3.092,-0.724 4.628,-0.992 1.37867,-0.241333 3.088,-0.05067 4.47333,-0.448 -1.416,1.592 -4.348,2.550667 -6.164,3.697333 -2.584,1.632 -5.95333,3.264 -7.92266,5.636 -2.37734,2.862667 -4.75734,5.746667 -6.92,8.870666 -1.028,1.484 -2.392,2.006667 -3.512,3.244 2.06266,-0.806666 3.84533,-1.265333 5.688,-2.464 1.64266,-1.069333 3.22,-2.157333 4.75866,-3.353333 2.204,-1.712 4.61734,-3.686666 6.22934,-5.829333 0.39733,2.92 -2.548,5.576 -4.27067,7.617333 -1.92267,2.278667 -4.136,4.521333 -6.572,6.142667 -4.764,3.172 -9.892,5.736 -14.736,8.514666 2.44533,-0.273333 4.94533,-1.422666 7.34267,-2.184 2.93333,-0.932 5.85466,-1.9 8.62133,-3.162666 -0.93067,0.425333 -2.24,2.2 -3.252,2.886666 -1.55467,1.054667 -2.94667,2.328 -4.57467,3.278667 -5.648,3.3 -11.81333,5.565333 -17.67066,8.444 -4.58,2.249333 -10.85467,4.420002 -14.31333,8.297332 -1.84267,2.06533 -4.67067,5.27333 -4.628,7.91867 -0.056,-3.512 7.556,-6.784 10.09466,-8.20534 4.29467,-2.404 8.83467,-4.516 13.52533,-6.025329 2.73334,-0.878667 7.10534,-1.461333 8.82134,-4.048 -1.23734,1.865333 -2.70934,3.574667 -4.36934,5.074667 -6.83066,6.172002 -15.32533,10.301332 -22.39866,16.178662 0.98267,-0.816 2.13733,-1.32 3.39733,-1.444 0.22134,2.94934 -2.46666,6.71334 -3.16933,9.64534 -0.80933,3.38 -2.492,6.852 -2.876,10.20666 -0.31333,2.72134 0.81733,6.328 2.22133,8.62267 0.89467,1.46133 1.53734,2.02133 2.116,3.67333 0.63867,1.82267 0.89734,3.53734 1.97467,5.216 1.844,2.88 5.32,5.01067 8.64133,4.2 2.584,-0.62933 4.50267,-2.868 5.612,-5.28533 1.10933,-2.416 1.58,-5.06933 2.38133,-7.60667 1.548,-4.904 4.372,-9.4 8.11867,-12.92533 0.10533,-0.0987 0.22,-0.20267 0.36267,-0.228 0.35866,-0.0653 0.59333,0.356 0.71066,0.70133 2.064,6.132 4.128,12.26534 6.192,18.39734 2.40134,-7.208 4.832,-14.65334 4.24534,-22.228 l -4.63734,2.07333 c 3.49734,-4.968 6.31334,-10.41333 8.344,-16.13867 -1.49466,0.57334 -3.164,0.68134 -4.72,0.30667 0.97067,-1.95467 1.66534,-4.04533 2.05734,-6.192 -0.82934,-0.0467 -1.65734,-0.0933 -2.48534,-0.14 0.74534,-1.40133 1.20667,-2.95467 1.34534,-4.53733 -1.712,0.85333 -3.556,1.44266 -5.44534,1.74133 0.40534,-0.064 1.144,-0.95467 1.46667,-1.22933 0.57333,-0.488 1.144,-0.98134 1.71067,-1.47867 1.08933,-0.956 2.16266,-1.929332 3.22133,-2.919999 2.11867,-1.978667 4.17467,-4.024 6.16667,-6.130667 3.984,-4.212 7.70933,-8.670666 11.14533,-13.339999 5.07867,-6.9 9.29733,-15.514667 18.11733,-18.12 6.04667,-1.785333 12.40134,-2.369333 18.67734,-1.810666 4.54933,0.405333 8.56533,1.621333 11.91333,4.541333 1.39333,1.217333 14.224,8.377333 13.944,9.978666 0.224,-1.28 0.42,-2.517333 0.69867,-3.805333 1.32133,0.817333 1.824,2.772 3.46933,2.914667 0.38533,-1.461334 0.67467,-2.914667 1.00267,-4.397334 2.82666,1.762667 4.248,6.316 4.168,9.464 2.52266,-2.522667 4.256,-5.865333 5.96,-8.861333 0.82133,0.666667 1.38133,1.873333 1.79733,2.84 1.404,-2.426667 3.42267,-4.441333 4.68533,-6.930667 0.136,0.842667 0.57734,1.672 0.65467,2.542667 1.828,-1.697333 3.18667,-4.221333 5.24,-5.818667 0.172,0.434667 0.56666,0.884 0.71333,1.254667 0.0627,0.158667 1.34133,-1.764 1.42267,-1.916 0.25333,-0.478667 0.41866,-0.806667 0.48133,-1.365333 0.13333,-1.169333 -0.0147,-2.253333 -0.12933,-3.409333 -0.0187,-0.194667 -0.572,-3.144 -0.76534,-2.934667 -0.292,0.316 -0.236,1.216 -0.31733,1.653333 -0.28667,1.52 -0.48533,2.830667 -1.25867,4.165334 -0.0627,-0.572 0.304,-1.298667 0.22134,-1.992 -0.1,-0.852 -0.912,-2.117334 -0.60267,-2.917334 0.0173,0.764 -0.26933,1.32 -0.64533,1.965334 -1.656,2.838666 -3.54933,5.449333 -5.7,7.974666 -0.46933,0.549333 -1.008,1.636 -1.808,1.738667 0.35867,-0.426667 0.48667,-1.314667 0.716,-1.865334 1.16267,-2.793333 0.50133,-5.306666 -0.2,-8.094666 -0.0933,0.404 -0.0693,0.824 -0.12933,1.236 -0.26934,1.833333 -0.776,3.88 -1.54667,5.564 -0.56267,1.229333 -1.416,2.365333 -2.59333,3.030666 0.492,-0.976 0.68666,-1.997333 1.00266,-3.029333 0.516,-1.685333 0.36534,-3.402666 0.39467,-5.165333 -0.0147,0.918667 -0.81333,2.262667 -1.14133,3.133333 -0.40667,1.085333 -0.88134,2.097333 -1.49334,3.084 -0.67466,1.090667 -1.436,2.122667 -2.14666,3.189333 -0.64934,0.972 -1.12667,2.417334 -2.008,3.189334 -0.61467,-1.394667 0.0173,-3.42 0.10133,-4.884 0.10933,-1.926667 0.11467,-3.858667 0.0133,-5.786667 -0.0307,1.702667 -0.484,3.294667 -1.06266,4.881333 -0.25334,0.697334 -0.58267,1.377334 -0.804,2.085334 -0.21334,0.682666 -0.208,1.436 -0.568,2.070666 0.29733,-0.524 -1.79467,-2.502666 -2.10267,-2.846666 -0.43467,-0.485334 -3.064,-3.094667 -2.736,-3.486667 -0.37733,0.449333 -0.11467,2.074667 -0.11467,2.708 0,0.994667 0.001,1.989333 0,2.984 0.001,-0.885333 -1.05466,-1.704 -1.53066,-2.370667 -0.75867,-1.061333 -1.46667,-2.089333 -2.424,-2.992 0.14,1.565334 0.90666,2.986667 1.01466,4.545334 -0.036,-0.530667 -1.316,-1.702667 -1.66,-2.213334 -0.77733,-1.154666 -1.47733,-2.358666 -2.136,-3.584 -1.02533,-1.911999 -1.85466,-3.815999 -3.25466,-5.490666 -2.672,-3.198667 -6.152,-5.642667 -9.48934,-8.089333 -4.26933,-3.126667 -8.90266,-5.753333 -13.77066,-7.826667 -16.81334,-7.162666 -34.56267,-6.766666 -51.48534,-0.233333 -0.9,0.346667 -2.57866,0.561333 -3.20533,1.454667 0.33067,-0.470667 3.26133,-0.638667 3.79867,-0.750667 1.80666,-0.376 3.624,-0.86 5.448,-1.138667 1.45466,-0.221333 3.172,0.084 4.568,-0.265333 -2.164,0.554667 -4.928,1.828 -7.164,3.136 -1.848,1.082667 -4.61734,1.977333 -5.73734,3.812 0.91467,-1.498667 5.952,-2.561333 7.58,-3.048 4.15467,-1.238667 8.47067,-1.882667 12.79334,-2.116 2.03466,-0.110667 4.072,-0.121333 6.10666,-0.072 0.75467,0.01867 6.04934,0.810667 6.34267,0.432 -0.688,0.888 -1.464,0.582667 -2.368,0.928 -1.23867,0.473333 -2.21867,1.341333 -3.36133,2 -0.932,0.537333 -1.924,0.988 -2.47334,1.910667 0.0133,-0.02267 5.01867,-0.904 5.54267,-1.038667 6.196,-1.586667 12.41733,-1.06 17.91467,2.278666 2.256,1.369334 4.67333,2.694667 6.83466,4.156 -2.30266,-1.556 -5.09866,-2.133333 -7.75866,-2.762666 -2.66934,-0.630667 -5.30534,-1.593334 -8.076,-1.596 1.43333,0.0027 4.028,1.064 5.97333,2.453333"
       style="opacity:0.199997;fill:#000000;fill-opacity:1;fill-rule:nonzero;stroke:none;stroke-width:1.33333"
       id="path20447" />
    <path
       d="m 281.49826,51.121342 c 2.52,1.633333 5.768,2.978667 8.02933,5.196 -6.79466,-2.862667 -13.876,-6.328 -21.36933,-6.342667 3.52667,0.596 6.52133,3.313334 9.37467,5.232 -0.99467,-0.669333 -2.212,-0.869333 -3.33734,-1.22 -4.424,-1.376 -9.11733,-1.892 -13.74,-1.704 -2.32533,0.09467 -4.64533,0.372 -6.92266,0.850667 -1.00934,0.212 -1.98934,0.465333 -2.956,0.808 -0.43334,0.153333 -0.88267,0.28 -1.3,0.474667 -0.22534,0.106666 -0.748,0.594666 -0.93334,0.625333 4.70934,-0.764 9.16934,0.837333 13.81467,1.129333 0.82933,0.052 1.60133,0.07467 2.43067,0.076 -1.58667,0.405334 -3.33067,0.465334 -4.93067,0.953334 -1.9,0.577333 -3.768,0.634666 -5.68933,0.988 -2.30934,0.425333 -4.61334,0.878666 -6.93334,1.234666 -0.816,0.124 -1.55466,0.358667 -2.26666,0.657333 -1.03334,0.434667 -2.008,1.006667 -3.07467,1.581334 -0.792,0.426666 -1.44533,0.997333 -2.21867,1.417333 0.604,-0.350667 1.272,-0.348 1.95067,-0.309333 -0.292,0.501333 -1.19067,0.948 -1.65867,1.361333 -0.72533,0.641333 -1.25733,1.393333 -2.05066,1.952 -3.27734,2.309333 -6.25867,4.78 -9.31067,7.381333 0.96667,-0.822666 2.12,-1.109333 3.184,-1.741333 2.37733,-1.414667 4.85733,-2.574667 7.224,-4.001333 2.18533,-1.316 5.084,-3.305334 7.66667,-3.562667 -0.74534,1.105333 -2.23067,1.778667 -3.20134,2.7 -1.11066,1.061333 -1.69866,2.226667 -2.57333,3.448 -0.7,0.978667 -1.53067,1.892 -2.31067,2.808 -3.024,3.553333 -6.324,6.884 -10.07333,9.677333 -1.68,1.252 -3.424,2.414667 -5.168,3.577333 -2.30133,1.533333 -4.64667,2.992 -6.992,4.457333 7.36267,-2.54 14.268,-6.402666 20.284,-11.349333 -4.66667,5.402667 -10.38667,9.782667 -16.14533,14.001333 -7.256,5.317334 -14.648,10.447996 -22.16667,15.385336 7.036,-2.29467 13.61867,-5.96934 19.26533,-10.753336 -4.46533,6.666666 -12.12533,10.325336 -19.41599,13.675996 1.74533,-0.10266 3.49066,-0.20666 5.23599,-0.31066 -2.932,0.69466 -5.70133,2.02266 -8.11199,3.82933 -2.54534,1.908 -4.68934,4.35333 -6.2,7.15467 2.08133,-2.24134 4.72533,-3.956 7.62,-4.94267 -4.604,4.888 -9.44667,10.276 -10.18134,16.94933 1.02534,-0.72666 2.04934,-1.45466 3.07467,-2.18266 -1.65733,6.568 -3.172,14.01466 0.48133,19.71733 1.84534,2.87867 5.32134,5.01067 8.64267,4.2 2.584,-0.63067 4.50266,-2.868 5.612,-5.28533 1.10933,-2.41734 1.58,-5.07067 2.38133,-7.60667 1.548,-4.90533 4.372,-9.40133 8.11867,-12.92533 0.10533,-0.1 0.22,-0.20267 0.36266,-0.228 0.35867,-0.0653 0.59334,0.35466 0.70934,0.7 2.06533,6.13333 4.12933,12.26533 6.19333,18.39733 -0.72667,-2.15733 2.95867,-9.504 3.464,-12.004 0.76667,-3.79067 0.82,-7.58533 1.568,-11.35467 -0.90133,0.18934 -1.74533,0.84267 -2.62533,1.36934 2.21466,-3.81067 4.46533,-8.06134 6.38133,-12.00934 0.36667,-0.756 1.12667,-4.832 1.56933,-5.092 -0.77866,0.45734 -1.636,0.568 -2.492,0.67067 1.72134,-3.36267 4.59334,-8.26267 7.35734,-10.708 -1.388,0.432 -3.37334,1.44533 -4.86267,1.21067 1.50667,-3.296002 4.06667,-6.124002 4.90933,-9.746669 -0.98533,0.88 -2.28266,1.365333 -3.53066,1.517333 3.256,-4.862666 7.20933,-9.354666 10.676,-14.065333 5.07733,-6.899999 9.29733,-15.515999 18.11733,-18.119999 6.04667,-1.785333 12.40133,-2.370667 18.67733,-1.812 4.54934,0.405333 8.56534,1.621333 11.91334,4.542666 1.39333,1.216 14.224,8.376 13.944,9.978667 0.224,-1.28 0.42,-2.518667 0.69866,-3.805333 1.32134,0.817333 1.824,2.770666 3.46934,2.913333 0.384,-1.46 0.67466,-2.913333 1.00266,-4.396 2.82667,1.762667 4.24667,6.314666 4.168,9.464 2.52267,-2.522667 4.256,-5.865333 5.96,-8.862667 0.82134,0.668 1.38134,1.873334 1.796,2.84 1.40534,-2.425333 3.424,-4.44 4.68667,-6.930666 0.136,0.842666 0.57733,1.673333 0.65467,2.544 1.828,-1.697334 3.18666,-4.221334 5.23999,-5.82 0.172,0.436 0.56667,0.885333 0.71334,1.256 2.564,-1.777334 2.60933,-8.912 2.892,-11.936 0.36666,-3.933333 -0.132,-7.729333 -2.42134,-10.804 -2.00133,-2.690666 -2.58933,-5.490666 -6.00666,-6.730666 2.17733,2.889333 4.90266,6.386666 4.49066,10.272 -0.79466,-0.864 -1.34666,-1.981334 -2.05199,-2.784 -0.62667,5.772 4.27066,12.723999 1.30666,18.018666 -0.57466,-4.845333 -2.78666,-9.656 -3.25466,-14.357333 -1.812,6.064 1.232,13.970666 -4.10267,18.726666 1.49067,-1.84 0.492,-7.906666 0.49867,-10.365333 0.008,-3.062667 -0.424,-7.089333 -1.50534,-9.661333 -1.04133,3.122667 -0.41466,6.918666 -1.25066,10.08 -0.712,2.692 -1.252,5.237333 -2.35867,7.741333 0.83733,-4.072 1.86933,-12.209333 -0.0573,-15.985333 -0.38667,4.858666 0.35333,9.488 -1.16934,14.102666 -0.99866,3.024 -1.88933,7.613333 -3.61733,10.128 0.11467,-4.898667 0.53467,-9.685333 0.54267,-14.494666 0.26133,2.314666 -0.87067,6.685333 -1.81867,8.614666 -1.48533,-2.52 -3.59333,-6.217333 -3.92133,-9.141333 -0.78934,2.152 -0.604,6.192 0.22533,8.285333 -3.03467,-3.202666 -5.888,-7.461333 -7.83733,-11.425333 0.272,2.745333 1.38,5.189333 2.48933,7.518667 0.46667,0.978666 1.27467,3.285333 2.00667,3.823999 -1.548,-1.066666 -1.392,-3.389333 -3.20667,-3.999999 0.93067,1.574666 0.81467,3.798666 1.36933,5.567999 -0.14533,-0.462666 -0.96,-0.8 -1.31066,-1.085333 -0.56667,-0.46 -1.07334,-0.941333 -1.532,-1.509333 -1.29734,-1.602667 -2.58134,-3.213333 -3.924,-4.777333 -2.63334,-3.069334 -5.46134,-6 -8.704,-8.433334 -4.55867,-3.419999 -9.84134,-5.769333 -14.99467,-8.137333 -5.32267,-2.446666 -10.82667,-4.628 -16.62,-5.648 -7.01067,-1.234666 -13.904,-0.473333 -20.76267,1.209334 -4.55866,1.118666 -9.26666,2.198666 -13.64933,3.890666 -0.9,0.348 -2.58,0.562667 -3.20667,1.456 0.46667,-0.272 0.96267,-0.254666 1.50667,-0.305333 1.33467,-0.122667 2.59067,-0.406667 3.888,-0.776 4.056,-1.154667 8.36533,-1.473333 12.56267,-1.768 4.44266,-0.310667 8.92533,-0.32 13.34,0.329333 6.61733,0.974667 12.92133,3.513334 18.65333,6.912 3.20667,1.901333 6.49867,3.705333 9.632,5.736"
       style="opacity:0.199997;fill:#000000;fill-opacity:1;fill-rule:nonzero;stroke:none;stroke-width:1.33333"
       id="path20463" />
    <path
       d="m 202.09519,48.831875 c 1.16267,-3.250666 2.83334,-6.318666 4.932,-9.058666 -6.072,5.069333 -10.87199,11.649333 -13.84666,18.978666 0.85467,-6.654666 4.25733,-12.773333 8.60266,-17.885333 2.136,-2.513333 4.50534,-4.817333 6.97467,-7 2.39467,-2.115999 5.38133,-3.938666 7.532,-6.282666 4.01867,-4.38 10.764,-6.714667 16.33733,-8.453333 0.86267,-0.269333 1.72934,-0.524 2.59867,-0.768 4.03467,-1.126667 8.13067,-2.008 12.21733,-2.913333 4.108,-0.912 8.02134,-1.78 12.244,-1.921334 11.008,-0.372 21.95734,1.102667 32.708,3.365334 0.94934,0.2 1.84134,0.501333 2.79067,0.681333 0.736,0.138667 2.26,0.232 2.77733,0.86 -0.88266,-1.069333 -1.79466,-1.525333 -3.01333,-2.161333 -0.808,-0.422667 -1.69467,-0.761334 -2.60933,-0.901334 0.89733,-0.170666 2.07333,0.404 2.93866,0.592 3.38,0.733334 6.75867,1.614667 9.75067,3.389334 3.08,1.826666 5.89333,4.055999 8.69467,6.275999 2.492,1.974667 5.01733,3.985334 7.004,6.490667 2.14533,2.704 3.616,5.846666 5.908,8.473333 -2.308,-1.033333 -4.928,-2.778667 -7.44,-3.653333 -0.59867,2.776 1.21066,5.693333 1.01333,8.530666 -0.988,-1.938666 -2.35867,-4.328 -3.94933,-5.646666 -0.89867,2.708 0.10533,9.565333 -2.55734,11.205333 -0.48533,-3.114667 -1.78133,-7.101333 -3.38,-9.881333 -1.49333,-2.596 -4.33066,-5.357334 -5.32266,-8.262667 1.396,3.924 3.47066,7.518667 4.468,11.858667 0.572,2.486666 1.85333,7.846666 0.324,10.175999 -0.548,-2.985333 -2.12,-6.648 -4.45334,-8.578666 -0.65466,1.313333 -0.37733,2.956 -1.43866,4.190666 -0.88667,-2.865333 -2.94667,-7.063999 -5.7,-8.543999 -0.16534,2.053333 0.82933,3.621333 0.84533,5.594666 -0.004,-0.470667 -1.324,-1.444 -1.66,-1.732 -0.68,-0.584 -1.412,-1.104 -2.156,-1.6 -1.45333,-0.968 -3.04,-1.712 -4.488,-2.676 -0.80133,-0.533333 -1.592,-1.12 -2.396,-1.677333 -2.17333,-1.506667 -4.45467,-2.834667 -6.764,-4.048 -1.31333,-0.690667 -2.50267,-1.669333 -3.78533,-2.450667 -0.79734,-0.485333 -1.50934,-0.938666 -2.356,-1.338666 -0.60667,-0.286667 -1.496,-0.412 -1.984,-0.868 1.06133,0.186667 2.11866,0.381333 3.14933,0.676 2.77333,0.792 5.55867,1.558666 8.28133,2.514666 0.98667,0.345334 1.97334,0.692 2.95867,1.037334 -1.34133,-1.413334 -2.70933,-2.846667 -4.40133,-3.813333 1.072,0.613333 2.312,0.986666 3.408,1.585333 1.10266,0.602666 2.124,1.488 3.24266,2.018666 -0.0427,-1.592 -1.81733,-3.139999 -2.69733,-4.349333 -1.01333,-1.392 -2.332,-2.378666 -3.57467,-3.597333 -0.992,-0.973333 -2.08533,-1.806667 -3.17866,-2.66 0.91333,0.713333 2.312,1.126667 3.34133,1.686667 1.188,0.644 2.35467,1.328 3.49867,2.049333 1.1,0.693333 2.17866,1.42 3.23333,2.18 1.06933,0.772 2.02533,1.629333 3.15333,2.321333 -1.27466,-1.982666 -3.20533,-3.436 -5.09466,-4.844 -2.36534,-1.765333 -4.79334,-3.561333 -7.61467,-4.424 2.86133,0.273334 5.56533,1.458667 8.03733,2.926667 2.472,1.466667 4.76,3.222667 7.17734,4.78 -0.91467,-2.612 -3.23734,-4.441333 -5.51334,-6.014667 l 6.47334,1.822667 c -2.47734,-2.018667 -5.552,-3.161333 -8.63867,-3.993333 -1.352,-0.364 -2.71333,-0.721334 -4.07867,-1.070667 -10.61466,-2.716 -21.28133,-4.154666 -32.20266,-2.414666 -3.448,0.549333 -6.83467,1.153333 -10.32134,1.407999 3.19334,-0.337333 6.464,0.112 9.44534,1.309334 -2.684,0.212 -5.368,0.425333 -8.052,0.638666 7.75866,1.474667 15.36133,3.772 22.64,6.841334 -2.30667,-0.457334 -4.612,-0.913334 -6.91867,-1.369334 0.72933,0.144 1.62667,0.882667 2.29333,1.229334 0.81734,0.425333 1.64,0.841333 2.468,1.245333 1.656,0.809333 3.332,1.576 5.028,2.3 3.36134,1.434666 6.79867,2.582666 10.08134,4.178666 2.696,1.309334 5.284,2.842667 7.72933,4.574667 3.52,2.492 6.42,5.34 8.69867,9.009333 -10.396,-8.342666 -22.836,-13.916 -35.732,-17.289333 -8.41334,-2.2 -17.664,-3.422666 -25.55867,0.222667 3.69467,-1.748 7.70267,-2.832 11.776,-3.181333 -11.08667,-1.649334 -22.84533,2.046666 -30.99467,9.742666 0.97467,-2.052 2.32667,-3.924 3.96667,-5.494667 -6.76133,2.936 -12.67733,7.794667 -16.87067,13.857333"
       style="opacity:0.100006;fill:#ffffff;fill-opacity:1;fill-rule:nonzero;stroke:none;stroke-width:1.33333"
       id="path20479" />
    <path
       d="m 254.58479,46.268676 c -4.78266,-0.318667 -9.604,-0.596 -14.33733,0.129333 2.35467,-1.373333 4.83467,-2.530667 7.39867,-3.454667 -1.288,0.464 -3.348,0.174667 -4.73867,0.330667 -1.71067,0.190667 -3.412,0.46 -5.09867,0.805333 -3.216,0.658667 -6.32266,1.692 -9.46666,2.618667 -4.052,1.193333 -8.044,2.626666 -11.84934,4.468 -3.76533,1.822666 -7.12533,4.369333 -10.33066,7.045333 -2.28667,1.909333 -4.524,3.858666 -6.832,5.728 -2.07067,1.676 -3.508,4.141333 -5.332,6.096 -3.796,4.069333 -8.62267,8.137333 -9.54533,13.946666 1.52133,-0.558667 3.08666,-2.892 4.424,-3.957333 1.56533,-1.248 3.332,-2.641334 4.99066,-3.805334 -1.39866,3.394667 -4.68933,6.418667 -6.84266,9.406667 -1.32534,1.837333 -2.924,3.677333 -3.984,5.609333 -0.35067,0.64 -0.69734,1.628 -1.06667,1.834667 2.544,-0.825334 4.812,-3.989334 6.91867,-5.662667 1.83866,-1.461333 3.66933,-2.933333 5.628,-4.086666 -0.30534,1.732 -3.30934,4.269333 -4.38,5.702666 -2.244,3.006667 -4.10934,6.226667 -6.496,9.110667 -1.48134,1.790666 -3.03467,3.970662 -4.02534,6.109332 1.87467,-0.69867 3.26934,-2.58667 4.80934,-3.836 3.20133,-2.598666 6.57066,-4.754666 9.55333,-7.606666 3,-2.868 4.82933,-6.681333 7.28666,-9.973333 1.54934,-2.074666 3.17067,-4.505333 5.18934,-6.372 1.68133,-1.556 3.86666,-2.777333 5.17066,-4.639999 -1.748,0.573333 -3.492,1.739999 -5.18266,2.402666 -0.24267,-1.712 1.72,-4.878666 2.50933,-6.44 0.88133,-1.738666 2.064,-3.464 3.25467,-5 1.86,-2.401333 3.89466,-4.701333 6.264,-6.617333 2.25866,-1.825333 5.016,-3.078666 7.71066,-4.121333 5.736,-2.22 11.792,-3.192 17.876,-3.713333 3.14534,-0.268 6.15067,-0.792 9.33467,-0.672 1.93867,0.072 4.14,0.09067 5.98533,0.738666 1.32667,0.465334 3.56267,0.582667 4.64667,1.445334 -2.48133,-1.973334 -5.70267,-4.141333 -8.95867,-4.241333 0.152,0.198666 0.20134,0.473333 0.128,0.713333 -0.204,-0.01467 -0.408,-0.028 -0.612,-0.04133"
       style="opacity:0.100006;fill:#ffffff;fill-opacity:1;fill-rule:nonzero;stroke:none;stroke-width:1.33333"
       id="path20495" />
    <path
       d="m 241.17679,35.236142 c -0.83333,-0.629333 -2.09066,-0.609333 -3.06933,-0.801333 -3.20133,-0.632 -6.55867,-0.645333 -9.768,-0.05467 -1.96,0.361334 -3.87867,0.950667 -5.7,1.761334 -0.936,0.417333 -1.848,0.892 -2.72533,1.424 -0.336,0.204 -2.38,1.276 -2.38,1.652 3.24533,-2.653334 6.644,-5.116 10.176,-7.372 -2.57067,0.997333 -5.38534,1.105333 -8.09467,1.612 -2.71067,0.506666 -5.52667,1.557333 -7.08667,3.829333 1.97867,-3.148 4.572,-5.906666 7.592,-8.074666 -0.67333,0.08 -1.34666,0.158666 -2.02,0.238666 0.39734,-0.04667 1.54,-1.742666 1.87067,-2.077333 0.74267,-0.750667 1.524,-1.464 2.34,-2.134667 1.58533,-1.301333 3.29867,-2.445333 5.10933,-3.408 3.83334,-2.038666 8.18267,-2.995999 11.872,-5.326666 0.31867,-0.201333 1.48134,-1.330667 1.79067,-1.312 -6.29733,-0.374667 -14.55867,3.318667 -20.28667,6.042666 -6.07066,2.886667 -11.29066,7.037334 -15.65733,12.134667 -8.04533,9.388 -15.85866,19.223999 -20.66266,30.614666 -7.22667,17.137333 -6.91467,36.177331 -4.00134,54.233331 1.128,6.99467 5.032,41.4 17.892,38.008 0.0587,-0.0133 0.11867,-0.009 0.17734,-0.024 0.31066,-0.076 0.61066,-0.176 0.9,-0.29733 0.20133,-0.0827 0.392,-0.18667 0.58399,-0.28933 0.0787,-0.0413 0.16134,-0.0747 0.23867,-0.12 0.24933,-0.14534 0.488,-0.30934 0.72133,-0.484 0.0107,-0.008 0.0227,-0.0147 0.0333,-0.0227 0.26666,-0.20267 0.52266,-0.42 0.76533,-0.656 0.0293,-0.024 0.0587,-0.0493 0.0853,-0.076 0.10267,-0.10133 0.19734,-0.21333 0.296,-0.32267 0.10934,-0.11733 0.21867,-0.23466 0.324,-0.35733 0.188,-0.22533 0.36267,-0.46 0.53334,-0.70133 0.0213,-0.0307 0.0453,-0.0587 0.0667,-0.0907 0.40934,-0.59333 0.768,-1.22267 1.064,-1.868 0.0293,-0.064 0.0493,-0.13333 0.0773,-0.19733 0.092,-0.2 0.18533,-0.39734 0.272,-0.60267 1.16,-2.76533 1.82666,-5.97867 2.70666,-8.70933 0.29867,-0.76 0.63467,-1.504 0.99467,-2.236 0.0533,-0.11067 0.10933,-0.21867 0.16533,-0.328 0.36267,-0.716 0.74667,-1.42134 1.164,-2.11067 0.96267,-1.392 2.32534,-3.26533 3.496,-4.68133 0.52134,-0.57467 1.05867,-1.13467 1.624,-1.66667 0.10534,-0.1 0.22,-0.20267 0.36267,-0.22933 0.35867,-0.064 0.59333,0.356 0.70933,0.70133 0.536,1.59067 1.072,3.18133 1.60667,4.772 0.72933,2.67067 1.48933,5.34933 2.292,7.91333 0.14667,0.47067 0.69467,1.51067 1.24133,2.58267 0.35067,1.04267 0.70267,2.08667 1.05334,3.12933 0.052,-0.15466 0.10266,-0.312 0.15466,-0.468 0.0587,0.19734 0.088,0.36 0.0693,0.46134 0.116,-0.636 0.25333,-1.25867 0.39866,-1.87867 1.00934,-3.072 1.97334,-6.18267 2.66667,-9.328 0.66,-2.48 1.12933,-5.00267 1.104,-7.68533 0.16533,-1.48934 0.34533,-2.97734 0.63867,-4.46 -0.90134,0.18933 -1.74534,0.84266 -2.624,1.36933 2.21333,-3.81067 4.464,-8.06133 6.38,-12.00933 0.36666,-0.756 1.128,-4.83334 1.56933,-5.09334 -0.77867,0.45867 -1.636,0.56934 -2.492,0.672 1.72133,-3.36266 4.59333,-8.26266 7.35733,-10.708 -1.388,0.432 -3.37333,1.44534 -4.86266,1.21067 1.50666,-3.296002 4.06666,-6.124002 4.91066,-9.746669 -0.98666,0.88 -2.284,1.365334 -3.53066,1.517334 3.25466,-4.864 7.208,-9.354667 10.67466,-14.066667 0.432,-0.585333 0.85467,-1.185333 1.27734,-1.790666 0.11066,-0.16 0.22266,-0.32 0.33333,-0.48 0.38667,-0.561334 0.772,-1.124 1.15867,-1.692 0.832,-1.145334 1.68266,-2.285333 2.492,-3.433333 0.89333,-1.269334 1.74666,-2.445334 2.61733,-3.529334 6.792,-8.462666 18.69333,-9.915999 28.916,-9.005333 4.54933,0.405334 8.56533,1.621333 11.91333,4.542667 1.39334,1.216 14.224,8.376 13.944,9.978666 0.224,-1.28 0.42,-2.518666 0.69867,-3.806666 1.32133,0.818666 1.824,2.772 3.46933,2.914666 0.38534,-1.46 0.67467,-2.913333 1.00267,-4.396 2.82667,1.762667 4.248,6.314667 4.168,9.464 2.52267,-2.522667 4.256,-5.866666 5.96,-8.862666 0.82133,0.668 1.38133,1.873333 1.79733,2.84 1.404,-2.426667 3.42267,-4.44 4.68534,-6.930667 0.13066,0.806667 0.41066,1.633333 0.71733,2.376 2.068,-1.797333 6.108,-6.816 5.032,-9.733333 -1.10934,0.942667 -2.37733,3.469333 -3.82,3.992 -1.068,0.386666 -4.092,-0.982667 -3.37333,-1.357334 -1.04667,0.545334 -2.15067,1.498667 -2.77734,2.404 -0.208,-0.64 -0.68266,-0.909333 -0.86133,-1.632 -0.39067,0.753334 -1.24,1.357334 -1.58,1.964 -0.23333,-0.5 -0.55733,-0.670666 -0.79333,-1.054666 -0.68134,0.789333 -1.508,1.834666 -2.18667,2.814666 -0.23733,-1.081333 -0.91067,-1.954666 -2.008,-2.38 -0.376,0.665334 -1.29333,1.116 -1.648,1.673334 -0.65333,-1.496 -0.88,-2.828 -1.91867,-4.113333 -0.91333,0.591999 -2.01066,1.422666 -2.95333,1.994666 -0.992,-1.229333 -2.13067,-2.524 -2.86933,-3.833333 -1.09734,1.628 -1.848,3.764 -3.49334,4.965333 -1.08,-0.721333 -2.024,-1.930667 -2.792,-2.864 -0.32,0.708 -1.17733,1.766667 -1.39466,2.533333 0.15733,-0.554666 -1.10267,-2.290666 -1.39734,-2.773333 -0.58666,-0.965333 -1.25733,-1.878666 -1.992,-2.734666 -4.26266,-4.969334 -10.23333,-8.282667 -16.088,-11.018667 -6.10933,-2.854666 -12.54533,-5.004 -19.14,-6.406666 -4.68266,-0.997334 -9.44533,-1.617334 -14.22666,-1.848 -4.64134,-0.222667 -9.292,-0.253334 -13.74267,1.246666 -0.69867,0.234667 -1.38533,0.498667 -2.076,0.757334 1.88267,-0.766667 3.78,-1.541334 5.46267,-2.68 0.392,-0.265334 3.99066,-2.162667 4.32666,-1.909334"
       style="opacity:0.199997;fill:#383838;fill-opacity:1;fill-rule:nonzero;stroke:none;stroke-width:1.33333"
       id="path20511" />
    <path
       d="m 182.7708,123.94627 c 2.22933,-3.13466 5.16666,-5.76133 8.52933,-7.62666 -4.54267,4.148 -7.18933,10.296 -7.08,16.448 0.596,-3.68534 2.63733,-7.11867 5.59067,-9.40134 -5.01734,5.55067 -5.95067,14.39867 -2.20134,20.87334 0.304,-1.34934 0.608,-2.7 0.91334,-4.04934 -0.38534,3.89867 0.20133,7.89067 1.692,11.516 0.0253,-1.936 0.052,-3.87066 0.0787,-5.80533 0.53467,2.45733 1.40134,4.84267 2.568,7.06933 0.59867,-0.584 0.96134,-1.40533 0.98934,-2.24133 0.30533,1.26667 0.612,2.53467 0.91733,3.80133 1.83333,-1.816 2.89333,-4.39066 2.868,-6.97066 0.49067,2.012 0.772,4.076 0.836,6.14533 3.88933,-4.572 6.00533,-10.35067 8.044,-15.996 0.68266,4.32 1.17733,8.868 -0.348,12.968 -1.52534,4.1 -5.68667,7.544 -9.99867,6.808 0.7,-0.28267 1.4,-0.564 2.1,-0.84533 -2.33733,1.032 -5.16,0.88666 -7.37866,-0.38 0.364,0.0107 0.728,0.0213 1.092,0.032 -0.708,-0.0213 -1.77334,-1.42934 -2.31334,-1.83734 -2.07066,-1.56533 -4.52933,-3.872 -5.17066,-6.47866 -0.18934,-0.76934 -0.228,-1.584 -0.544,-2.312 -0.384,-0.88534 -1.14934,-1.56667 -1.52,-2.45867 -0.45067,-1.08533 -0.256,-2.32267 -0.46667,-3.47867 -0.24267,-1.33066 -1.01467,-2.52933 -1.18667,-3.86933 -0.18666,-1.45733 0.33734,-3.04133 -0.33066,-4.34933 -0.26934,-0.52667 -0.71334,-0.95334 -0.95067,-1.496 -0.41067,-0.936 -0.136,-2.00934 -0.0293,-3.02667 0.20933,-1.97733 -0.54134,-3.34533 -0.988,-5.17067 -0.41734,-1.70666 -0.132,-3.61733 -0.512,-5.36666 -0.45467,-2.088 -0.51334,-4.36 -0.69334,-6.48667 -0.35733,-4.19467 -0.53333,-8.40533 -0.496,-12.615999 0.056,-6.348 0.608,-12.708 1.97334,-18.914666 1.41066,-6.412 4.06666,-12.294667 6.26933,-18.444 0.85067,-2.372 1.26133,-5.126666 2.35867,-7.352 1.2,-2.430666 2.72,-4.681333 4.16,-6.973333 2.63333,-4.186666 5.672,-7.928 8.87999,-11.673333 2.73067,-3.189333 6.78267,-5.642666 10.316,-7.924 7.60667,-4.909333 15.84534,-8.834666 24.43734,-11.686666 9.62666,-3.196 19.70533,-5.0466666 29.844,-5.4213332 9.60266,-0.356 19.78533,-0.4373333 29.20533,1.7106662 2.44133,0.556 4.844,1.286667 7.15733,2.248 8.832,3.672 17.79067,7.634667 25.25734,13.725333 7.75999,6.330667 13.82799,15.462667 14.12533,25.472 0.156,5.205333 -1.648,10.938666 -6.16934,13.521333 -0.89866,0.513333 -2.59733,0.310666 -2.30266,-0.682667 -2.53467,2.502667 -4.74267,5.336 -6.55067,8.404 0.552,-0.236 0.236,-1.189333 -0.35333,-1.304 -0.58933,-0.116 -1.148,0.272 -1.624,0.637333 l -6.83067,5.248 c -0.003,-1.225333 -1.60666,-2.110667 -2.64533,-1.458667 0.20667,-1.790666 -0.58933,-3.663999 -2.02133,-4.758666 0.56,0.96 -0.009,2.377333 -1.07734,2.684 -1.06666,0.305333 -2.30133,-0.596 -2.33333,-1.706667 -0.36267,1.093333 -0.72533,2.188 -1.088,3.281333 -5.66133,-5.346666 -12.02533,-10.105333 -19.284,-12.925333 -7.25867,-2.82 -15.504,-3.575999 -22.85333,-1.001333 -7.312,2.561333 -13.76267,7.705333 -18.756,13.526666 0.39733,0.02267 0.79066,0.110667 1.16,0.258667 -0.832,1.130667 -1.53067,2.358667 -2.08,3.649333 0.232,-0.112 0.464,-0.222666 0.696,-0.334666 -1.89467,1.636 -3.484,3.622666 -4.66667,5.829333 1.01867,-0.0053 2.036,-0.252 2.94533,-0.714667 -1.04266,1.288 -2.20133,2.48 -3.45866,3.556 0.77333,-0.2 1.548,-0.4 2.32266,-0.6 -1.36,1.569333 -2.58,3.26 -3.644,5.044 0.36534,-0.08 0.73067,-0.16 1.09734,-0.241333 -0.484,0.576 -0.968,1.152 -1.452,1.728 -0.096,0.113333 -0.19734,0.238666 -0.20534,0.388 -0.0107,0.177333 0.112,0.332 0.21867,0.474666 1.024,1.376 0.97867,3.449334 -0.108,4.778667 0.58,0.05333 1.14533,0.256 1.62667,0.582667 0.124,0.084 -3.576,3.758662 -3.80667,4.030662 0.664,0.81734 1.35067,0.652 0.98667,1.84534 -0.27867,0.908 -1.29734,1.72 -1.876,2.42533 -1.052,1.27867 -2.308,2.39067 -3.404,3.62267 -1.20934,1.35866 -1.956,3.08266 -2.78267,4.688 -0.70933,1.37733 -1.50667,2.73866 -1.848,4.24933 -0.34933,1.548 -0.19867,3.15867 -0.144,4.74533 0.296,8.69734 -2.48533,17.46934 -7.74,24.408 l 2.63333,-9.712 c -0.97866,1.64134 -2.66533,2.84534 -4.536,3.23867 2.82667,-3.46267 4.624,-7.75333 5.112,-12.196 -1.292,0.83867 -2.58533,1.676 -3.87733,2.51467 2.044,-2.88667 3.61333,-6.10934 4.62533,-9.5 -2.66533,2.45733 -3.76133,6.484 -2.70933,9.952 0.77733,-1.17467 1.55467,-2.34934 2.332,-3.524 -1.51333,1.44266 -3.36,2.53466 -5.352,3.16666 3.23733,-2.39866 5.636,-5.908 6.696,-9.79466 -2.21467,1.4 -4.43067,2.80133 -6.64667,4.20266 4.55067,-4.84666 8.36,-10.388 11.256,-16.372 -2.78666,1.79734 -5.57466,3.596 -8.36133,5.39467 0.79733,-0.86133 1.596,-1.724 2.39333,-2.58533 -2.92933,2.62 -6.63333,4.36266 -10.52,4.94933 5.968,-2.73867 11.27467,-6.90667 15.34934,-12.05467 -3.736,2.40667 -8.02934,3.944 -12.444,4.456 8.07866,-1.80666 14.91333,-8.34533 17.07466,-16.337329 -3.13066,3.618667 -7.15466,6.459999 -11.612,8.199999 1,-0.90667 2,-1.81333 3,-2.72133 -10.38266,3.33866 -20.39066,7.83866 -29.77866,13.39066 8.18133,-5.92 17.40933,-10.212 26.00266,-15.514662 8.59467,-5.302667 16.80134,-11.914667 21.388,-20.910667 -4.83866,5.604 -11.06533,10.001333 -17.96666,12.684 10.72266,-7.796 20.332,-17.12 28.44933,-27.601333 -2.14533,0.612 -4.29067,1.224 -6.43467,1.836 11.41467,-9.278666 28.25334,-11.295999 41.53734,-4.977333 -1.208,-0.878666 -2.416,-1.757333 -3.624,-2.637333 7.13333,2.501333 13.77733,6.392 19.448,11.390666 0.048,-1.02 0.0973,-2.04 0.14533,-3.061333 1.97733,1.773333 3.95333,3.545333 5.93067,5.317333 0.25733,-1.694666 0.092,-3.452 -0.48,-5.068 3.12933,1.502667 5.89333,3.76 7.99066,6.525334 1.33067,-2.204 2.66,-4.408 3.98934,-6.610667 0.784,0.62 1.568,1.241333 2.35333,1.862667 3.90533,-3.552 6.67333,-8.336 7.80533,-13.492 -0.40133,3.625333 -1.644,7.154666 -3.60133,10.232 2.89333,-2.468 5.28533,-5.52 6.99066,-8.92 0.005,0.913333 0.009,1.825333 0.0133,2.738667 -0.005,-1.224 1.30533,-3.142667 1.56133,-4.462667 0.26933,-1.389333 0.58533,-2.938667 0.668,-4.348 0.32133,-5.438666 -3.08933,-11.68 -6.74533,-15.508 -2.18,-2.281333 -4.808,-4.078666 -7.424,-5.843999 -5.1,-3.441334 -10.28533,-6.830667 -15.90267,-9.377333 -8.79466,-3.986667 -19.012,-5.658667 -28.57333,-6.461334 -9.87467,-0.828 -19.85467,-0.386666 -29.61733,1.308 -6.73467,1.168 -13.368,2.934667 -19.78534,5.290667 0.49867,-0.03867 0.99867,-0.076 1.49867,-0.113333 -9.116,3.839999 -17.68933,8.962666 -25.392,15.167999 0.67467,-0.261333 1.35067,-0.521333 2.02533,-0.782666 -2.08666,0.806666 -3.18933,3.398666 -4.79466,4.850666 -6.296,5.693333 -11.18133,12.418666 -13.83867,20.546666 0.20534,-0.08133 0.412,-0.161333 0.61734,-0.242666 -1.04267,2.802666 -2.13067,5.587999 -3.26134,8.355999 -0.99733,2.444 -2.204,4.838667 -2.84133,7.384 -0.27067,1.037333 -0.48533,2.093333 -0.712,3.141333 -0.15333,0.704 -0.19467,2.637334 -0.65867,3.152 0.69734,-0.774666 1.396,-1.549333 2.09334,-2.324 -2.732,5.510667 -4.228,11.629333 -4.34667,17.778667 1.216,-0.862667 2.43067,-1.725334 3.64667,-2.586667 -0.99067,0.702667 -1.72267,2.902667 -2.16,3.992 -0.588,1.465333 -1.00534,2.997329 -1.24667,4.557329 -0.52667,3.39867 0.008,6.41867 0.84533,9.704 2.568,-3.82133 6.62267,-6.61466 11.10934,-7.65333 -2.07067,2.512 -4.91067,4.268 -7.188,6.59467 -2.27734,2.32666 -4.02667,5.664 -3.068,8.77466 1.68,-1.68 3.36,-3.36 5.04133,-5.04 -2.30133,2.69467 -3.74133,6.112 -4.06533,9.64"
       style="fill:#000000;fill-opacity:1;fill-rule:nonzero;stroke:none;stroke-width:1.33333"
       id="path20521" />
  </g>
</svg>
