<?xml version="1.0" encoding="UTF-8" standalone="no"?>
<!-- Created with Inkscape (http://www.inkscape.org/) -->

<svg
   width="400"
   height="400"
   viewBox="0 0 400 400"
   version="1.1"
   id="svg6359"
   xml:space="preserve"
   inkscape:version="1.2.2 (b0a8486, 2022-12-01)"
   sodipodi:docname="ReceedingHair.svg"
   xmlns:inkscape="http://www.inkscape.org/namespaces/inkscape"
   xmlns:sodipodi="http://sodipodi.sourceforge.net/DTD/sodipodi-0.dtd"
   xmlns="http://www.w3.org/2000/svg"
   xmlns:svg="http://www.w3.org/2000/svg"><sodipodi:namedview
     id="namedview6361"
     pagecolor="#ffffff"
     bordercolor="#666666"
     borderopacity="1.0"
     inkscape:showpageshadow="2"
     inkscape:pageopacity="0.0"
     inkscape:pagecheckerboard="0"
     inkscape:deskcolor="#d1d1d1"
     inkscape:document-units="px"
     showgrid="false"
     inkscape:zoom="2.0475"
     inkscape:cx="200"
     inkscape:cy="200"
     inkscape:window-width="1622"
     inkscape:window-height="1099"
     inkscape:window-x="2436"
     inkscape:window-y="89"
     inkscape:window-maximized="0"
     inkscape:current-layer="svg6359" /><defs
     id="defs6356" /><g
     inkscape:groupmode="layer"
     id="layer3"
     inkscape:label="Hair Back"><path
       style="fill:#383838;fill-opacity:1;stroke:none;stroke-width:1px;stroke-linecap:butt;stroke-linejoin:miter;stroke-opacity:1"
       d="m 345.3513,117.24677 3.62619,-7.25238 1.03605,-7.42505 -2.07211,-12.605327 -2.76281,-10.360539 -4.31689,-6.73435 -10.36054,-9.151809 3.97154,12.777997 6.04365,19.8577 2.59013,17.612918 z"
       id="path16083"
       sodipodi:nodetypes="ccccccccccc" /><path
       style="fill:#ffffff;fill-opacity:0.15;stroke:none;stroke-width:1px;stroke-linecap:butt;stroke-linejoin:miter;stroke-opacity:1"
       d="m 344.31524,119.31887 c 0,0 2.92794,-4.03881 3.97154,-6.56167 1.0436,-2.52286 1.79473,-5.46559 2.07211,-8.46111 0.27738,-2.99552 -0.0961,-6.437499 -0.51803,-9.324483 -0.4219,-2.886984 -1.14777,-5.379178 -1.89943,-7.94308 -0.75166,-2.563902 -2.59013,-7.425053 -2.59013,-7.425053 l -2.59014,-3.453513 c 0,0 1.22672,5.263473 2.07211,8.288431 0.84539,3.024958 1.68304,6.577116 2.07211,9.669836 0.38907,3.09272 0.53557,6.028712 0.34535,8.806452 -0.19022,2.77774 -0.92765,6.09593 -1.38141,9.3245 -0.45375,3.22856 -1.55408,7.07969 -1.55408,7.07969 z"
       id="path16087"
       sodipodi:nodetypes="czzzzcczzzzc" /><path
       style="fill:#000000;fill-opacity:1;stroke:none;stroke-width:1px;stroke-linecap:butt;stroke-linejoin:miter;stroke-opacity:1"
       d="m 341.20708,71.142367 c 0,0 3.77324,5.244624 4.83492,7.770404 1.06168,2.52578 1.32165,4.173273 1.89944,6.388999 0.57779,2.215726 1.15948,3.945609 1.72675,6.73435 0.56727,2.788741 1.21204,7.628794 1.20873,10.70589 -0.003,3.0771 -0.0369,5.03602 -1.03606,7.77041 -0.99915,2.73439 -5.18027,8.11575 -5.18027,8.11575 0,0 2.59869,-6.5383 3.28084,-9.32448 0.68215,-2.78618 0.9798,-4.35382 1.03606,-7.25238 0.0563,-2.898562 -0.35391,-6.170498 -1.03606,-10.015189 -0.68215,-3.844691 -2.09459,-9.477472 -3.28084,-12.950674 -1.18625,-3.473202 -3.45351,-7.94308 -3.45351,-7.94308 z"
       id="path16085"
       sodipodi:nodetypes="czzzzzczzzzc" /></g><g
     inkscape:groupmode="layer"
     id="layer2"
     inkscape:label="Hair Front"><path
       style="fill:#383838;fill-opacity:1;stroke:none;stroke-width:1px;stroke-linecap:butt;stroke-linejoin:miter;stroke-opacity:1"
       d="m 197.8022,140.7753 c 0.0799,-0.50222 0.71742,-7.2326 2.442,-9.88397 1.72458,-2.65137 4.36301,-5.78005 7.32601,-5.8608 2.963,-0.0807 5.34928,2.33047 6.8376,4.884 1.48832,2.55353 0.73047,6.10397 0.97681,9.27961 0.24634,3.17564 -0.34969,7.16254 0.4884,9.76801 0.83809,2.60547 2.38495,4.24763 3.59773,5.58256 1.21278,1.33493 3.01441,2.84473 3.28084,2.59013 0.26643,-0.2546 -0.81753,-1.57393 -1.03606,-2.24478 -0.21853,-0.67085 -0.39783,-1.00734 -0.34535,-1.72676 0.0525,-0.71942 0.88011,-1.52484 0.86338,-2.41746 -0.0167,-0.89262 -0.92964,-1.60575 -1.03605,-2.59013 -0.10641,-0.98438 0.2639,-1.69698 0.51802,-3.10817 0.25412,-1.41119 0.93717,-3.66796 1.03606,-5.35294 0.0989,-1.68498 -0.0849,-3.36287 -0.34535,-4.66224 -0.26048,-1.29937 -0.95047,-2.15896 -1.03606,-3.10816 -0.0856,-0.9492 -0.0154,-1.40136 0.34535,-2.41746 0.36076,-1.0161 1.2961,-2.29943 2.07211,-3.45352 0.77601,-1.15409 1.5116,-2.45475 2.59014,-3.45351 1.07854,-0.99876 2.60666,-1.43574 3.79886,-2.41746 1.1922,-0.98172 2.44149,-1.9257 3.28084,-3.45351 0.83935,-1.52781 1.26297,-3.62336 1.3814,-5.52562 0.11843,-1.90226 -0.52293,-4.08592 -0.6907,-5.6983 -0.16777,-1.61238 -0.37714,-2.6685 -0.34535,-3.97154 0.0318,-1.30304 0.12757,-1.744785 0.51803,-3.798863 0.39046,-2.054078 1.47055,-5.87012 2.0721,-8.461107 0.60155,-2.590987 1.06179,-4.575876 1.55408,-7.079701 0.49229,-2.503825 0.63761,-5.838003 1.38141,-7.94308 0.7438,-2.105077 1.9971,-2.794175 2.59013,-4.662243 0.59303,-1.868068 0.63008,-4.59893 0.69071,-6.388999 0.0606,-1.790069 -0.47648,-3.039873 -0.17268,-4.316891 0.3038,-1.277018 0.97766,-1.223253 1.89944,-2.417458 0.92178,-1.194205 2.33325,-2.758303 3.79886,-4.489568 1.46561,-1.731265 3.3736,-3.123504 4.83492,-3.97154 1.46132,-0.848036 3.05574,-1.495966 3.36717,-1.381405 0,0 -2.80927,3.787903 -2.50379,3.885202 0,0 3.1945,-1.381405 5.00759,-1.98577 1.81309,-0.604365 4.02235,-1.546077 6.21632,-2.072107 2.19397,-0.52603 3.94356,-0.696614 6.90703,-1.036054 2.96347,-0.33944 8.62069,-1.206132 10.87856,-0.863379 2.25787,0.342753 1.56308,0.864745 2.59014,1.036054 1.02706,0.171309 1.87847,-0.315712 3.45351,-0.172675 1.57504,0.143037 6.49824,1.850938 6.77752,1.769925 0.0823,-0.02387 -0.46742,1.152878 -0.46742,1.152878 1.06151,-0.261159 4.18297,0.795549 5.60452,1.566763 2.01533,1.093346 3.39231,1.905416 6.04365,3.453513 2.65134,1.548097 7.59191,4.556866 9.84251,5.870973 2.2506,1.314107 2.22278,2.033154 3.62619,2.072107 1.40341,0.03895 2.35159,-1.672552 3.79886,-1.899432 1.44727,-0.22688 3.13921,-0.18836 4.48957,0.690703 1.35036,0.879063 1.8632,3.053577 2.76281,4.316891 0.89961,1.263314 1.78243,2.492915 2.59013,3.280837 0.8077,0.787922 1.40786,0.724342 2.07211,1.554081 0.66425,0.829739 1.10048,2.070719 1.55408,3.453513 0.4536,1.382794 1.05243,3.389638 1.03606,4.834918 -0.0164,1.44528 -0.86338,3.626189 -0.86338,3.626189 0.0258,-0.24042 1.27839,0.906212 1.72676,1.036054 0.44837,0.129842 5.02475,-0.592005 5.35294,-1.036054 0.32819,-0.444049 1.47887,-2.744414 1.89943,-4.834918 0.42056,-2.090504 0.27891,-5.348377 0.17268,-7.597729 -0.10623,-2.249352 -0.16096,-4.006771 -0.6907,-5.870972 -0.52974,-1.864201 -1.32252,-3.690222 -2.41746,-5.180269 -1.09494,-1.490047 -2.57193,-2.648505 -3.97154,-3.626189 -1.39961,-0.977684 -3.27134,-1.124041 -4.31689,-2.244783 -1.04555,-1.120742 -0.97252,-2.994641 -1.72676,-3.97154 -0.75424,-0.976899 -3.66137,-2.042359 -2.41746,-1.899432 1.24391,0.142927 4.7786,-1.309014 4.66224,-1.726757 -0.11636,-0.417743 -3.65487,-0.152556 -4.83492,-0.518027 -1.18005,-0.365471 -2.60633,-1.176461 -2.24478,-1.208729 0.36155,-0.03227 2.56846,-0.899993 3.45351,-1.726757 0.88505,-0.826764 2.02956,-2.439506 1.72676,-2.935486 -0.3028,-0.49598 -4.35787,-0.768669 -6.389,-1.554081 -2.03113,-0.785412 -3.74362,-1.32556 -4.48957,-2.676472 -0.74595,-1.350912 -0.1812,-1.785032 -0.43169,-2.849149 -0.25049,-1.064117 -1.3641,-2.384104 -2.50379,-3.626188 -1.13969,-1.242084 -3.28862,-2.842644 -5.18027,-3.626189 -1.89165,-0.783545 -3.92928,-1.104339 -5.87097,-1.036054 -1.94169,0.06828 -4.14302,1.303603 -5.52562,1.381406 -1.3826,0.0778 -1.2852,0.0457 -2.59014,-0.345352 -1.30494,-0.391054 -2.71132,-1.843658 -5.00759,-2.417459 -2.29627,-0.573801 -6.2723,-0.335033 -8.63378,-0.345351 -2.36148,-0.01032 -4.12742,0.442429 -5.52563,0.172676 -1.39821,-0.269753 -1.67929,-0.982081 -2.76281,-1.20873 -1.08352,-0.226649 -2.4323,-0.320666 -3.62618,0 -1.19388,0.320666 -2.39186,1.346533 -3.28084,1.899432 -0.88898,0.552899 -0.97523,0.979223 -2.07211,1.381405 -1.09688,0.402182 -3.21253,0.137967 -4.48957,0.518027 -1.27704,0.38006 -2.44883,1.372508 -2.5038,1.295068 0,0 -0.77703,-0.345351 -0.69066,-0.345352 0.0863,0 -3.20636,-0.714915 -4.74858,-0.431689 -1.54222,0.283226 -3.54251,1.254738 -4.83491,2.072108 -1.2924,0.81737 -1.87206,2.084204 -2.93549,2.590135 -1.06343,0.505931 -1.83673,0.43737 -3.10816,0.518027 -1.27143,0.08066 -2.96318,-0.17159 -4.48957,-0.172676 -1.52639,-0.0011 -3.58119,-0.419499 -4.66224,0.172676 -1.08105,0.592175 -0.94359,1.577263 -1.55408,2.244783 -0.61049,0.66752 -0.99313,1.093179 -2.07211,1.726757 -1.07898,0.633578 -3.1494,0.784474 -4.48957,1.726756 -1.34017,0.942282 -2.3047,2.557368 -3.28083,3.798864 -0.97613,1.241496 -3.04719,3.499174 -3.1945,3.712527 -0.14732,0.213353 -1.66148,-0.257471 -3.02183,0.08634 -1.36035,0.343809 -3.39536,1.464158 -4.31689,2.072107 -0.92153,0.607949 -0.69793,1.005914 -1.3814,1.20873 -0.68347,0.202816 -1.50754,-0.49301 -2.41746,-0.345351 -0.90992,0.147659 -1.7888,0.512776 -2.76281,1.381405 -0.97401,0.868629 -2.01875,3.076647 -2.59014,3.97154 -0.57139,0.894893 -0.21466,0.588166 -0.86338,1.381405 -0.64872,0.793239 -2.12713,1.958801 -3.28083,3.108162 -1.1537,1.149361 -2.62166,2.489647 -3.62619,3.798864 -1.00453,1.309217 -1.75803,2.6402 -2.41746,3.97154 -0.65943,1.33134 -1.3597,2.75738 -1.55408,3.97154 -0.19438,1.21416 0.53242,1.113696 0.17267,3.108161 -0.35975,1.994465 -2.3451,5.068923 -3.62619,8.288432 -1.28109,3.219509 -2.82328,6.960619 -3.97154,11.051241 -1.14826,4.090622 -2.37445,9.642759 -2.76281,13.468702 -0.38836,3.82594 -0.21482,6.72893 0,9.32448 0.21482,2.59555 0.46565,4.51232 1.03606,6.21633 0.57041,1.70401 1.86366,2.59712 2.07211,3.97153 0.20845,1.37441 -0.6887,2.01502 -0.69071,3.79887 -0.002,1.78385 0.34367,4.79369 1.20873,6.73435 0.86506,1.94066 2.31317,3.49128 3.62619,4.66224 1.31302,1.17096 2.94449,2.08914 3.97154,2.41746 1.02705,0.32832 1.73539,1.23758 1.81534,0.73535 z"
       id="path15909"
       sodipodi:nodetypes="zzzzzzzzzzzzzzzzzzzzzzzzzzzzzzzzzzsszzzzzzssszzzzzzzzzzszzzzzzzzzzzzzzzzzzzzzzzzzzzzzzzsszzzzzzzzzzszzzzzzzzzzzzzzzzzzzzzzzz" /><path
       id="path16024"
       style="fill:#000000;fill-opacity:0.3;stroke:none;stroke-width:1px;stroke-linecap:butt;stroke-linejoin:miter;stroke-opacity:1"
       d="m 286.50781,26.597656 c -1.8987,-0.05439 -4.31467,1.073168 -6.16601,1.730469 -2.96215,1.051682 -5.4576,4.305967 -7.81446,6.347656 -2.35684,2.041689 -4.04747,5.984085 -6.34961,5.861328 -2.30212,-0.122757 -3.67307,-3.157443 -3.41796,-3.90625 0.25511,-0.748805 7.49844,-6.271552 6.83789,-6.83789 -0.66055,-0.56634 -5.25211,2.194718 -7.32618,3.476562 -2.07405,1.281846 -3.21493,3.75712 -4.88476,3.84961 -1.66983,0.09249 -1.34069,-2.058724 -2.44141,-1.955079 -1.10072,0.103647 -2.47114,-0.447801 -2.92969,-0.488281 10e-6,0 -6.72844,2.446654 -9.28124,4.396485 -2.55282,1.949831 -6.09572,3.26947 -5.85938,6.83789 0.0762,1.150033 -0.88104,2.714085 0.30078,3.111328 0.47513,0.159705 6.70615,2.544307 10.15625,3.900391 0.30048,-0.348675 0.49334,-0.581783 0.80274,-0.947266 1.46559,-1.731261 3.37461,-3.122669 4.83593,-3.970703 1.46132,-0.848034 3.05576,-1.49542 3.36719,-1.380859 0,0 -2.80939,3.787468 -2.50391,3.884765 0,0 3.19279,-1.381963 5.00586,-1.986328 1.81309,-0.604363 4.02283,-1.546237 6.2168,-2.072265 2.19397,-0.52603 3.94475,-0.695717 6.9082,-1.035157 2.96347,-0.339438 8.61909,-1.206032 10.87696,-0.863281 2.25785,0.342753 1.56473,0.863848 2.59179,1.035157 1.02706,0.171307 1.87809,-0.314911 3.45313,-0.171876 1.57504,0.143037 4.59893,0.987011 6.60496,1.726211 0.50716,0.186884 -0.28171,1.112126 -0.28171,1.112126 1.09512,-0.09565 4.08499,0.833019 5.59081,1.649945 2.01533,1.093344 3.39163,1.906983 6.04297,3.455078 2.65134,1.548093 7.59315,4.556989 9.84375,5.871094 2.2506,1.314103 2.22159,2.033312 3.625,2.072265 1.40341,0.03895 2.35156,-1.673512 3.79883,-1.90039 1.44727,-0.22688 3.13987,-0.187655 4.49023,0.691406 1.35036,0.879061 1.86408,3.053094 2.76367,4.316406 0.89961,1.263312 1.78215,2.49333 2.58985,3.28125 0.8077,0.78792 1.40801,0.722996 2.07226,1.552735 0.0677,0.08456 0.12428,0.19038 0.1875,0.283203 0.0593,-1.466376 0.0555,-3.231645 -0.19531,-4.56836 -0.51501,-2.745202 -1.75779,-6.140842 -3.41797,-8.791015 -1.66018,-2.650175 -3.62168,-4.965751 -6.34961,-6.837891 -2.72791,-1.87214 -7.49438,-2.061785 -9.76757,-3.90625 -2.27321,-1.844465 -1.62732,-4.317096 -3.90821,-5.861328 -2.28089,-1.544234 -6.15945,-1.710987 -9.27929,-1.953125 -3.11986,-0.242138 -7.9378,3.041061 -9.2793,0.488281 -1.3415,-2.552778 5.48626,-4.51884 4.88281,-6.349609 -0.60345,-1.830769 -1.5128,-1.074013 -3.41797,-0.976563 -1.90517,0.09745 -4.79818,1.794456 -7.32617,2.929688 -2.52799,1.135232 -7.40499,4.026376 -7.81445,3.908203 0,0 10.21176,-5.976252 8.79101,-9.279297 -0.53278,-1.238642 -1.48578,-1.697831 -2.625,-1.730469 z M 198.7793,101.58789 c 0,0 -2.26637,1.29288 -3.90821,3.41797 -1.64182,2.12509 -3.7933,6.96666 -4.88281,9.76758 -1.08951,2.8009 -1.95312,6.83789 -1.95312,6.83789 l -0.26368,0.52734 c 0.0272,0.0984 0.0839,0.18573 0.0996,0.28906 0.20845,1.37441 -0.68939,2.01498 -0.6914,3.79883 -0.002,1.78385 0.34392,4.79372 1.20898,6.73438 0.86506,1.94066 2.31395,3.49115 3.62695,4.66211 1.31302,1.17096 2.94366,2.08769 3.97071,2.41601 1.02705,0.32832 1.73645,1.23856 1.8164,0.73633 0.0799,-0.50222 0.71683,-7.2334 2.44141,-9.88477 1.72458,-2.65135 4.36319,-5.77862 7.32617,-5.85937 2.963,-0.0807 5.34957,2.3293 6.83789,4.88281 1.48832,2.55353 0.73023,6.10366 0.97657,9.2793 0.0447,0.57682 0.0421,1.19919 0.0449,1.81641 0.73841,-1.85816 2.10315,-5.15575 3.07617,-6.61133 0.76616,-1.14612 1.94094,-2.35958 2.86719,-3.25 0.0208,-0.49587 0.0992,-0.95931 0.34179,-1.64258 0.35483,-0.99939 1.265,-2.25534 2.03321,-3.39453 l 0.42773,-1.56836 1.95313,-5.37305 0.48828,-5.37304 -0.97657,-4.88282 v -4.88476 c 1e-5,0 -2.08199,-0.9388 -3.90624,0 -1.82427,0.9388 -3.23291,4.15787 -4.88477,6.83789 -1.65186,2.68 -4.88477,9.27929 -4.88477,9.27929 l -0.48828,-9.76757 1.95508,-8.30274 c 0,0 -1.84156,-0.0597 -4.39648,0.48828 -2.55494,0.54793 -6.24129,3.60993 -8.91211,6.47071 -2.67084,2.86076 -4.76368,4.27343 -4.76367,4.27343 z"
       sodipodi:nodetypes="ssssssssssssscssccssssssssssssssssscsssssssssscsscssccssssssscsscscsccccccsscccsscc" /><path
       id="path16039"
       style="fill:#ffffff;fill-opacity:0.15;stroke:none;stroke-width:1px;stroke-linecap:butt;stroke-linejoin:miter;stroke-opacity:1"
       d="m 277.44531,19.480469 c -0.62187,-0.01175 -1.25853,0.04474 -1.85547,0.205078 -1.19388,0.320666 -2.39227,1.34554 -3.28125,1.898437 -0.88898,0.552899 -0.97343,0.980631 -2.07031,1.382813 -1.09688,0.40218 -3.21319,0.137518 -4.49023,0.517578 -1.27704,0.38006 -2.44894,1.372362 -2.50391,1.294922 0,0 -0.28295,-0.138571 -0.48242,-0.240235 -1.39582,1.561944 -2.53906,2.916016 -2.53906,2.916016 0,0 2.58875,5.42e-4 5.35156,-1.380859 0.77223,-0.386111 2.46148,-0.655563 3.62695,-0.345703 1.16547,0.309858 2.93555,2.072265 2.93555,2.072265 l 5.00781,-2.589843 c 0,0 3.50729,-0.930851 5.00781,-1.208985 1.50054,-0.278134 2.21154,-0.426558 3.97071,-0.517578 1.75917,-0.09102 4.91584,-0.144213 6.5625,0.171875 1.64666,0.316088 3.28125,1.208984 3.28125,1.208984 l 1.89843,1.38086 6.38282,0.324218 3.1914,1.738282 -4.50586,1.060547 -4.20507,2.576171 c 0,10e-7 2.26348,2.330547 4.48242,2.488282 2.21895,0.157734 2.16488,-0.430175 4.60156,-0.333985 2.43668,0.09618 3.71289,1.095703 3.71289,1.095703 0,10e-7 4.0212,0.207524 4.82031,0.203126 0.79911,-0.0044 2.62959,3.014054 4.03125,4.580078 1.40166,1.566022 3.03812,3.23826 5.03907,5.048828 2.00094,1.810569 5.42968,4.875 5.42968,4.875 l 4.14453,2.935547 4.14454,5.699218 2.93554,5.871094 1.03711,7.769531 -2.07226,7.771485 -1.77735,2.101562 c 0.0653,0.03514 0.17384,0.128441 0.22266,0.142578 0.44837,0.129842 4.33462,0.444947 4.66281,8.98e-4 0.32819,-0.444047 2.16858,-3.781491 2.58914,-5.871991 0.42056,-2.0905 0.28006,-5.348309 0.17383,-7.597657 -0.10623,-2.249346 -0.16167,-4.006896 -0.69141,-5.871093 -0.52974,-1.864199 -1.32304,-3.689643 -2.41796,-5.179688 -1.09494,-1.490043 -2.5711,-2.649271 -3.97071,-3.626953 -1.39961,-0.977682 -3.27087,-1.123401 -4.3164,-2.244141 -1.04555,-1.12074 -0.97428,-2.993806 -1.72852,-3.970703 -0.75424,-0.976897 -3.65991,-2.043317 -2.41602,-1.90039 1.24391,0.142925 4.77847,-1.30882 4.66211,-1.726563 -0.11636,-0.417741 -3.65588,-0.152107 -4.83593,-0.517578 -1.18005,-0.365471 -2.60569,-1.176716 -2.24414,-1.208984 0.36155,-0.03227 2.56807,-0.899801 3.45312,-1.726563 0.88505,-0.826762 2.02936,-2.439567 1.72656,-2.935547 -0.3028,-0.495978 -4.35754,-0.769277 -6.38867,-1.554687 -2.03113,-0.78541 -3.74428,-1.324873 -4.49023,-2.675781 -0.74595,-1.35091 -0.18115,-1.785495 -0.43164,-2.84961 -0.25049,-1.064115 -1.36422,-2.384871 -2.50391,-3.626953 -1.13969,-1.242082 -3.28804,-2.841457 -5.17969,-3.625 -1.89165,-0.783543 -3.9294,-1.105394 -5.87109,-1.037109 -1.94169,0.06828 -4.14279,1.305009 -5.52539,1.382812 -1.3826,0.0778 -1.28491,0.04535 -2.58985,-0.345703 -1.30492,-0.391054 -2.71154,-1.844168 -5.00781,-2.417969 -2.29627,-0.573799 -6.27133,-0.335385 -8.63281,-0.345703 -2.36148,-0.01032 -4.12915,0.443581 -5.52734,0.173828 -1.39821,-0.269751 -1.6782,-0.982335 -2.76172,-1.208984 -0.54176,-0.113325 -1.14962,-0.193326 -1.77149,-0.205078 z m -55.73047,23.34375 -4.3164,1.035156 -4.49024,3.972656 -1.72656,4.316407 c 0,-10e-7 1.75421,-2.141738 2.93555,-3.109376 1.18134,-0.967637 2.55296,-1.877993 4.14453,-2.589843 1.59157,-0.711851 3.25758,-1.306583 5.35351,-1.552735 2.09594,-0.246151 5.09379,0.153843 7.08008,0.34375 1.98629,0.189908 4.83399,0.691407 4.83399,0.691407 l -2.76172,-1.554688 -5.69922,-1.208984 z m 4.83594,5.007812 -8.63476,1.898438 -4.83399,3.798828 -5.87109,6.5625 c 0,0 5.58967,-3.997813 7.94336,-5.353516 2.35367,-1.355701 3.76746,-2.299764 6.04297,-2.935547 2.27549,-0.635781 4.94475,-0.633987 7.42578,-0.691406 2.48101,-0.05742 4.1042,-0.33087 7.42383,0.345703 2.22959,0.454417 6.76964,2.270641 9.60742,3.449219 0.50119,-0.591264 0.98773,-1.181587 1.57422,-1.861328 l -4.61914,-1.933594 -7.59766,-2.416016 z"
       sodipodi:nodetypes="ssssscccssccsssccccccsscssscccccccssssssssssssssssssssssssssssccccssssccccccccssssccccc" /><path
       id="path8038"
       style="fill:#000000;fill-opacity:1;stroke:none;stroke-width:1px;stroke-linecap:butt;stroke-linejoin:miter;stroke-opacity:1"
       d="m 277.62305,19.210938 c -0.76268,-0.0038 -1.61645,0.141009 -2.6543,0.568359 -1.65838,0.682857 -2.75824,1.974962 -3.13867,2.472656 -1.27068,-0.350467 -2.58405,-0.487635 -4.1836,-0.150391 -1.4642,0.308715 -3.07878,1.191005 -4.60937,2.220704 -1.05726,-0.312842 -2.61063,-0.704162 -3.67773,-0.666016 -1.75199,0.06263 -3.80725,0.741522 -5.35352,1.554688 -1.54627,0.813163 -2.89429,2.024939 -3.79883,3.107421 -0.007,0.0083 -0.0146,0.01699 -0.0215,0.02539 -0.27667,0.03707 -1.42892,0.193618 -2.22266,0.320312 -0.89251,0.142462 -1.59183,0.514934 -2.93555,0.517579 -1.34369,0.0026 -3.41456,-1.070789 -5.00781,-0.863282 -1.59325,0.20751 -3.42084,0.91344 -4.14453,1.900391 -0.40279,0.549313 -0.78113,1.494228 -1.04102,2.232422 -1.17366,0.201817 -2.29156,0.482398 -3.15429,0.853516 -2.43997,1.049583 -4.59834,3.139275 -5.8418,4.683593 -0.76714,0.952759 -1.57848,2.713536 -2.08984,3.925781 -0.22895,-0.01299 -0.46363,-0.02695 -0.67188,-0.0332 -2.50394,-0.07515 -4.28946,0.216011 -6.22656,1.097657 -1.19516,0.543962 -2.29161,1.547076 -3.19727,2.570312 -0.6479,-0.206427 -1.67811,-0.427599 -2.54101,-0.126953 -1.37262,0.478239 -2.85393,2.294249 -3.90821,3.90625 -0.44801,0.685046 -0.90926,1.803063 -1.29492,2.861328 -0.21488,0.147514 -3.57162,2.462836 -5.29687,4.34375 -1.78165,1.942398 -3.78204,4.308464 -5.00781,7.324219 -0.62926,1.548124 -1.0921,4.266307 -1.39649,6.552734 -1.01679,2.060783 -1.94736,4.098553 -2.75391,5.902344 -2.04222,4.567389 -3.29761,7.804939 -4.51757,12.455078 -1.21996,4.650139 -2.42313,11.152864 -2.8086,15.50586 -0.38547,4.35298 -0.14898,7.0688 0.36719,10.74414 0.51617,3.67531 2.92969,6.59375 2.92969,6.59375 0,0 -1.34181,-4.29305 -1.58789,-7.20313 -0.24608,-2.91005 -0.002,-5.86538 0.48828,-10.13476 0.23114,-2.01248 0.58897,-4.515295 1.0293,-7.078126 0.59044,-1.246848 1.38453,-2.826918 2.02343,-3.666015 1.11796,-1.468273 2.11091,-1.792027 3.66407,-3.419922 1.55313,-1.627895 3.88022,-4.160296 5.49414,-6.470703 1.61389,-2.310407 2.61973,-4.540339 4.15039,-7.326172 1.53066,-2.785833 5.00586,-9.402344 5.00586,-9.402344 0,0 -4.15625,6.835902 -5.73829,9.525391 -1.58201,2.689489 -2.14579,4.384028 -3.78515,6.591797 -1.63936,2.207769 -4.55423,4.847185 -6.10352,6.472656 -1.54929,1.625471 -2.18483,1.733157 -3.17578,3.296875 -0.40592,0.640552 -0.86475,1.77739 -1.26953,2.900391 0.43972,-2.383964 0.94791,-4.761672 1.51367,-6.808594 1.29654,-4.690894 2.76562,-8.18279 4.76172,-12.697266 1.9961,-4.514473 4.5832,-10.175426 7.32617,-14.287109 2.743,-4.111683 8.79102,-10.378906 8.79102,-10.378906 0,0 -7.54788,5.87631 -10.62305,10.013671 -1.46657,1.97315 -2.87046,4.387694 -4.16406,6.867188 0.43159,-1.557625 0.90789,-3.074944 1.35742,-4.058594 1.28811,-2.818578 2.93649,-4.804225 4.51758,-6.83789 1.51544,-1.949232 4.5384,-5.023201 4.79297,-5.28125 -0.51444,1.416799 -0.88672,2.716796 -0.88672,2.716796 0,0 1.77959,-4.13357 2.92969,-5.617187 1.1501,-1.483617 2.49938,-2.788265 3.66406,-3.296875 0.63165,-0.27584 1.36041,-0.322004 1.90234,-0.308594 -0.49802,0.577543 -0.93665,1.154194 -1.29101,1.652344 -1.0187,1.432052 -1.07733,3.160857 -1.22266,4.150391 -0.14533,0.989534 0.24414,1.832031 0.24414,1.832031 0,0 0.1031,-0.909202 0.48828,-1.832031 0.38518,-0.922829 1.04601,-2.376086 2.07618,-3.541016 1.03014,-1.16493 2.3132,-2.455016 4.15234,-3.173828 1.83914,-0.718812 3.92373,-1.198289 6.4707,-1.099609 2.54697,0.09868 5.59106,0.756733 8.0586,1.466796 2.46751,0.710066 6.83789,3.052735 6.83789,3.052735 0,0 -4.31259,-3.818477 -6.95899,-4.763672 -0.50032,-0.178698 -1.06506,-0.337392 -1.65039,-0.488281 0.035,-0.05137 1.30847,-1.918335 2.4043,-2.917969 1.11104,-1.013507 2.74284,-2.206927 4.31836,-2.935547 1.01699,-0.470325 2.79579,-0.906253 3.9375,-1.158203 -1.19678,1.709185 -2.38477,5.648437 -2.38477,5.648437 0,0 2.47877,-3.851874 3.97266,-5.353515 1.49389,-1.501644 2.98834,-2.740879 4.83398,-3.626953 1.84564,-0.886074 4.43682,-1.389977 6.04492,-1.552735 0.78184,-0.07913 1.61487,-0.03909 2.26954,0.02148 -0.19967,0.29435 -0.40385,0.607225 -0.61329,0.941406 -0.90064,0.09715 -2.68259,0.337642 -3.59765,0.800781 -1.2536,0.634479 -2.42276,1.970637 -3.66211,3.90625 -0.59116,0.923278 -1.25402,2.178144 -1.82813,3.505859 -0.8295,0.318599 -2.42735,0.971448 -3.10156,1.529297 -0.92818,0.767991 -1.40213,1.484226 -1.90039,2.589844 -0.49826,1.105618 -0.86328,3.972656 -0.86328,3.972656 0,0 1.1122,-2.447021 1.72656,-3.453125 0.61436,-1.006104 1.12235,-1.774208 1.90039,-2.591796 0.49227,-0.517289 1.46517,-1.276148 2.11524,-1.765626 -0.57468,1.371389 -1.04263,2.803439 -1.22461,4.027344 -0.37205,2.502124 0.73242,8.302735 0.73242,8.302735 0,0 -0.30265,-5.857323 0.24414,-8.179688 0.54679,-2.322365 1.9225,-5.286263 3.05273,-7.082031 1.13026,-1.795768 2.26169,-2.967744 3.29688,-3.785156 0.70617,-0.557612 2.11227,-1.184712 2.96094,-1.541016 -1.68091,2.724561 -3.57942,6.494847 -4.75977,9.203125 -1.0926,2.506936 -1.97772,7.373501 -2.37305,9.791016 -0.0751,0.0836 -0.15304,0.168236 -0.2246,0.25 -1.05116,1.200562 -2.44141,3.541015 -2.44141,3.541015 0,0 1.31966,-1.320911 2.44726,-2.394531 -2e-4,0.0014 -0.008,0.04883 -0.008,0.04883 0,0 0.0189,-0.05868 0.0195,-0.06055 0.35504,-0.337877 0.69264,-0.652696 0.96094,-0.890625 1.12252,-0.995429 2.16652,-1.955142 3.29688,-2.685547 0.80826,-0.522288 2.18357,-1.158662 2.91601,-1.486328 -0.96153,1.776755 -1.69531,3.195313 -1.69531,3.195313 0,0 5.29452,-6.750107 8.30273,-10.25586 3.00824,-3.50575 7.00995,-7.961195 9.76758,-10.74414 2.75763,-2.782945 4.16986,-4.357989 6.50781,-5.673828 2.33798,-1.315842 4.28759,-2.212011 6.92383,-2.470703 2.63624,-0.258693 5.65161,-0.118217 7.81446,0.08594 2.16282,0.204151 4.04993,0.536223 5.12695,0.976563 0.43852,0.179289 0.73832,0.366694 0.96875,0.535156 -1.6887,0.34053 -3.42829,0.963736 -5.11914,1.785156 -2.6539,1.28927 -5.32505,3.62381 -7.57032,5.738281 -2.24524,2.114471 -4.26656,4.368808 -5.86132,6.837891 -1.59476,2.46908 -3.66211,7.814453 -3.66211,7.814453 0,0 3.44335,-5.417141 5.25,-7.693359 1.80665,-2.276221 3.43088,-4.157829 5.49414,-5.982422 2.06326,-1.824593 4.3955,-3.700734 6.83789,-4.884766 2.44239,-1.184032 5.3098,-2.0724 7.57031,-2.197266 2.26051,-0.124863 3.78771,0.403681 5.61524,0.976563 1.45003,0.454555 2.6306,1.061813 4.07226,1.822266 -2.32081,-0.297834 -5.15144,-0.145757 -7.61133,0.509765 -2.83437,0.755322 -5.16313,1.888603 -7.9414,4.144532 -2.7783,2.255926 -7.59766,12.08789 -7.59766,12.08789 0,0 6.47177,-8.320678 9.32422,-10.361328 2.85245,-2.04065 4.64938,-3.811401 7.25195,-4.488281 2.6026,-0.676883 5.43157,-0.248398 7.59766,0.345703 2.16609,0.594098 3.63667,1.244925 5.17969,2.761719 1.54299,1.516791 2.03244,4.476525 3.45312,6.216797 1.42068,1.740269 3.00681,3.151585 4.83594,4.144531 1.82913,0.992946 4.0538,1.530683 5.87109,1.726562 1.81729,0.195879 4.83399,-0.345703 4.83399,-0.345703 0,0 -2.7396,-0.204373 -4.48828,-0.691406 -1.74871,-0.487036 -4.08468,-1.130792 -5.8711,-2.416016 -1.78642,-1.285221 -3.16591,-3.389309 -4.49023,-5.18164 -0.84785,-1.14748 -1.36383,-2.498369 -2.04883,-3.701172 2.2033,1.331146 4.37139,3.039951 6.43359,3.927734 2.11241,0.909388 4.439,1.362184 5.86133,1.585938 1.42233,0.223751 2.5625,0.123047 2.5625,0.123046 0,0 -1.23556,-0.316968 -2.5625,-0.732421 -1.32694,-0.415456 -3.37022,-0.882459 -5.37305,-1.832032 -2.0028,-0.949573 -4.03078,-2.560022 -6.4707,-4.029297 -2.43992,-1.469272 -6.1638,-3.722293 -8.18164,-4.761718 -2.01784,-1.039425 -2.06204,-1.084737 -3.78516,-1.708985 -0.9361,-0.339134 -2.06449,-0.840227 -3.29882,-1.234375 1.00149,-0.104707 2.0783,-0.20894 2.6875,-0.232422 1.3486,-0.05198 3.00024,-0.143151 4.64062,0.123047 1.64038,0.266196 3.6762,0.861538 5.12891,1.587891 1.45271,0.726353 4.76172,3.90625 4.76172,3.90625 0,0 -2.60557,-3.452361 -4.0293,-4.394531 -1.42373,-0.94217 -3.8679,-1.629542 -5.73828,-1.955078 -1.87038,-0.325539 -3.98525,-0.378598 -5.37305,-0.121094 -0.75671,0.140407 -1.96381,0.517267 -2.93359,0.839844 -0.78572,-0.202146 -1.60313,-0.345233 -2.43946,-0.351563 -0.0972,-7.36e-4 -0.19694,0.008 -0.29492,0.0098 -0.17829,-0.332265 -0.53809,-0.789537 -1.29101,-1.230469 -1.39829,-0.818869 -4.6681,-1.344576 -7.24024,-1.638672 -2.57211,-0.294096 -5.54165,-0.452336 -8.14453,-0.07031 -1.02645,0.150649 -1.9732,0.342874 -2.9043,0.605468 -0.60496,-0.429606 -1.40059,-0.920261 -2.10351,-1.095703 -0.67334,-0.168058 -1.34475,-0.320447 -2.10742,-0.324218 z m 0.31054,1.015624 c 0.30793,-6.62e-4 0.62209,0.01487 0.94336,0.04297 0.61293,0.05361 1.5267,0.305265 2.31836,0.554688 -1.21194,0.388557 -2.42425,0.909808 -3.7832,1.642578 -0.79334,0.427781 -1.56903,0.921671 -2.3457,1.470703 -0.78797,-0.569292 -1.79374,-1.22922 -2.58399,-1.490234 -0.17319,-0.0572 -0.34762,-0.108151 -0.52148,-0.158204 0.61038,-0.374985 2.25782,-1.359255 3.25195,-1.654296 0.91886,-0.272706 1.79691,-0.406209 2.7207,-0.408205 z m 12.67969,3.603516 c 0,0 -3.58029,0.02673 -6.2168,1.035156 -2.63648,1.008422 -6.23237,3.52555 -8.97851,5.699219 -2.74614,2.173669 -5.58714,4.439473 -7.42578,7.251953 -1.5081,2.306869 -2.81063,6.800211 -3.25,8.408203 -0.90667,0.234448 -1.80044,0.488276 -2.6211,0.744141 -2.33536,0.728124 -6.56054,2.589844 -6.56054,2.589844 0,0 3.94179,-1.146832 6.21484,-1.726563 2.27305,-0.579728 5.20748,-1.275186 7.42578,-1.728515 2.2183,-0.453332 5.8711,-1.035157 5.8711,-1.035157 0,0 -3.35196,-0.111983 -5.52539,0.171875 -1.36229,0.17792 -3.01678,0.52578 -4.63672,0.939454 0.77809,-1.643577 2.84655,-5.891025 4.46289,-8.017579 2.01071,-2.645447 4.45135,-4.820503 7.08007,-6.908203 2.62875,-2.0877 6.21977,-4.358211 8.63477,-5.52539 2.415,-1.167182 5.52539,-1.898438 5.52539,-1.898438 z m -20.09766,0.134766 c 0.55971,-0.0071 1.08348,0.0548 1.6211,0.208984 0.46009,0.131952 1.02907,0.468259 1.5332,0.808594 -1.36008,1.080058 -2.76139,2.350057 -4.3164,3.833984 -2.9904,2.853655 -6.89185,7.2916 -9.5254,10.988282 -1.21737,1.708841 -2.65539,4.173738 -3.86132,6.34375 -0.71764,0.258669 -2.89751,1.069622 -4.07422,1.835937 -1.14324,0.744516 -2.30948,1.822012 -3.27149,2.84375 0.98376,-2.861604 2.92044,-8.245926 4.37891,-10.724609 2.03076,-3.451291 4.83109,-7.863686 6.70508,-10.058594 1.87399,-2.194908 2.9427,-3.183485 4.48828,-4.144531 1.54558,-0.961046 3.13612,-1.47513 4.49023,-1.726563 0.67707,-0.125716 1.27235,-0.201866 1.83203,-0.208984 z m -10.41796,0.490234 c 0.84096,-0.0097 1.80336,0.04445 2.59179,0.103516 -0.30879,0.213894 -0.61599,0.432197 -0.91406,0.652344 -0.26347,0.194593 -0.5157,0.38697 -0.76367,0.580078 -0.74067,-0.123668 -2.01546,-0.280448 -2.86133,-0.0625 -1.24639,0.321143 -2.80613,1.368726 -3.62695,2.24414 -0.5927,0.632125 -1.04566,1.694464 -1.25391,2.240235 -1.17308,0.01621 -2.76387,0.216609 -4.27148,0.570312 0.5018,-0.617029 1.2668,-1.527089 1.90039,-2.119141 1.0022,-0.936493 2.25296,-2.05844 3.625,-2.763671 1.37204,-0.705234 2.85795,-1.16316 4.49023,-1.38086 0.30605,-0.04082 0.67925,-0.05981 1.08399,-0.06445 z m 0.61132,1.578125 c -1.38393,1.109419 -2.5978,2.312088 -4.11328,4.357422 -0.0877,0.118402 -0.18465,0.267445 -0.27539,0.396484 -0.62656,-0.253057 -1.50316,-0.522087 -2.48633,-0.568359 -0.12949,-0.0061 -0.26907,-0.0098 -0.41406,-0.0098 0.36593,-0.455381 1.03282,-1.244165 1.6211,-1.716796 0.85775,-0.689156 2.16954,-1.474126 3.28125,-1.900391 0.65108,-0.249656 1.65841,-0.440574 2.38671,-0.558594 z m 29.5586,0.212891 c 0,0 -3.01169,0.797716 -4.66211,1.726562 -1.65042,0.928846 -3.34318,2.338359 -5.00781,3.972656 -1.66466,1.6343 -3.44193,3.729051 -4.83399,5.871094 -1.39206,2.142043 -3.45508,6.90625 -3.45508,6.90625 0,0 3.07398,-4.492547 4.49024,-6.388672 1.41626,-1.896125 2.42155,-3.353974 3.97265,-5.007812 1.55113,-1.653838 3.72863,-3.68633 5.35157,-4.833984 1.62294,-1.147657 4.14453,-2.246094 4.14453,-2.246094 z m 14.28515,0.11914 c -0.47762,-0.0043 -0.93388,0.01128 -1.33398,0.05469 -2.13385,0.231522 -4.66214,0.899839 -6.73437,1.898437 -2.07226,0.998598 -3.74016,2.306076 -5.5254,3.972657 -1.78521,1.666578 -5.00781,6.042968 -5.00781,6.042968 0,0 2.98969,-3.438669 4.83399,-5.007812 1.84427,-1.569146 3.9695,-3.242283 6.21679,-4.316406 2.24732,-1.074123 5.04177,-1.744162 7.08008,-2.072266 2.03831,-0.328104 5.00781,-0.171875 5.00781,-0.171875 0,0 -2.4674,-0.381764 -4.53711,-0.400391 z m -54.80664,2.587891 c -0.42017,0.649967 -0.78193,1.39136 -1.01171,1.894531 -0.991,0.246135 -1.9317,0.555249 -2.67188,0.923828 -0.74883,0.372893 -1.399,0.791084 -1.98242,1.25 -0.8981,-0.364677 -2.21143,-0.819599 -3.41992,-0.923828 -1.12461,-0.09699 -2.9506,-0.04221 -4.77539,0.195313 0.5588,-0.470945 1.15889,-0.956395 1.54492,-1.210938 0.8913,-0.587714 2.1826,-1.192887 3.45312,-1.380859 1.27052,-0.187972 2.63907,0.372361 3.97071,0.34375 1.33161,-0.02861 3.0538,-0.134098 3.97265,-0.517578 0.35778,-0.149318 0.66891,-0.365745 0.91992,-0.574219 z m -6.70898,4.484375 c 0.18727,0.0011 0.3636,0.0047 0.53711,0.0078 -0.78446,0.695527 -1.44389,1.476051 -2.06445,2.326172 -1.22277,0.05021 -3.36979,0.198815 -4.59961,0.66211 -1.77983,0.670492 -3.84062,2.069186 -4.83399,3.28125 -0.97925,1.194832 -1.36603,3.204319 -1.37695,3.261718 -2.07705,-0.534727 -4.53983,-0.892255 -6.48242,-1.033203 0.87173,-1.101171 2.11521,-2.617841 3.02343,-3.4375 1.48475,-1.339936 3.38617,-2.902978 5.69922,-3.798828 2.31308,-0.89585 6.12023,-1.069109 7.94336,-1.207031 0.68368,-0.05172 1.45562,-0.06654 2.1543,-0.0625 z m 33.93555,0.580078 c 0,0 -3.97318,3.450736 -5.18164,5.179688 -1.20849,1.728949 -2.24414,4.835937 -2.24414,4.835937 0,0 1.70871,-2.98113 2.93554,-4.664062 1.22683,-1.682935 4.49024,-5.351563 4.49024,-5.351563 z m 28.97656,0.01367 c -1.12024,0.009 -2.49426,0.07107 -3.50781,0.279297 -2.02711,0.416457 -4.742,1.268407 -6.47071,2.441406 -1.72871,1.172999 -3.04055,2.602758 -3.78515,4.152344 -0.53146,1.106024 -1.34558,3.267555 -1.77735,4.4375 -0.0991,-0.01514 -0.19884,-0.03089 -0.29882,-0.04297 -2.11249,-0.25518 -5.85938,0.611328 -5.85938,0.611328 0,0 3.6078,-0.34386 5.61523,0 0.10509,0.018 0.20882,0.03794 0.3125,0.05859 -0.0149,0.04114 -0.0684,0.185547 -0.0684,0.185547 0,0 0.0989,-0.163635 0.10742,-0.177735 0.62149,0.125958 1.1165,0.244156 1.63672,0.363282 -0.005,0.410895 0.0273,0.730468 0.0273,0.730468 0,0 0.092,-0.295216 0.22461,-0.675781 0.91901,0.220565 1.893,0.510712 3.24805,1.056641 -0.29866,0.745482 -0.48243,1.449219 -0.48243,1.449219 0,0 0.38807,-0.627196 0.85743,-1.291016 1.51088,0.639088 3.86902,1.834462 5.95507,2.917969 -0.009,0.492222 0.0176,0.925781 0.0176,0.925781 0,0 0.0866,-0.410372 0.1875,-0.820313 1.14027,0.593877 2.06011,1.07547 2.34766,1.228516 -0.13379,0.738265 -0.1543,1.322266 -0.1543,1.322266 0,0 0.20309,-0.49779 0.50586,-1.136719 0.007,0.0039 0.17383,0.08984 0.17383,0.08984 0,0 -0.15865,-0.09292 -0.16992,-0.09961 0.3289,-0.693257 0.77508,-1.551007 1.21679,-2.134765 0.8519,-1.125847 3.45313,-3.279297 3.45313,-3.279297 0,0 -3.38532,1.811673 -4.24414,3.068359 -0.4146,0.606668 -0.64808,1.439019 -0.77735,2.140625 -0.37631,-0.222455 -1.08784,-0.630796 -2.32031,-1.335937 0.1673,-0.623306 0.43504,-1.409254 0.89453,-2.140625 0.85683,-1.363802 1.93707,-2.947618 2.82227,-3.804688 1.76237,-1.706357 4.29222,-2.223967 5.69726,-2.763672 1.40507,-0.539702 6.04297,-1.035156 6.04297,-1.035156 0,0 -5.37051,0.02932 -6.90625,0.517578 -1.53574,0.488255 -3.75553,0.70737 -5.52539,2.763672 -0.88573,1.029085 -2.094,2.733616 -2.77539,4.179688 -0.33816,0.717662 -0.45364,1.522359 -0.48633,2.15039 -1.0299,-0.587453 -2.1206,-1.211892 -3.15429,-1.761719 0.64102,-0.841669 2.56653,-3.329274 3.65234,-4.224609 1.30298,-1.074402 2.58482,-1.979637 4.31836,-2.761719 1.73354,-0.782079 6.04297,-1.726562 6.04297,-1.726562 0,0 -4.69996,0.346553 -6.5625,1.035156 -1.86254,0.688603 -3.25223,1.549259 -4.48828,2.763672 -1.03848,1.020296 -2.96101,4.941174 -3.03907,4.873047 -0.57033,-0.497755 -1.69521,-1.281158 -2.26171,-1.576172 0.13303,-0.169632 0.26573,-0.329546 0.39062,-0.464844 0.7326,-0.793649 1.5844,-1.729644 2.50195,-2.564453 0.91757,-0.834809 1.83204,-1.402344 1.83204,-1.402344 0,0 -1.12135,0.411821 -1.95313,0.976563 -0.83178,0.56474 -2.15934,1.725868 -2.86914,2.564453 -0.14887,0.175876 -0.28946,0.401659 -0.41797,0.648438 -1.29802,-0.558958 -2.32223,-0.832542 -3.31836,-1.033204 0.0832,-0.211366 0.17074,-0.418229 0.25586,-0.59375 0.34894,-0.719554 0.9254,-1.680521 1.4043,-2.318359 0.4789,-0.637838 1.40429,-1.527344 1.4043,-1.527344 0,0 -1.36461,0.810143 -1.95508,1.464844 -0.59047,0.654701 -1.22935,1.688525 -1.46485,2.443359 -0.0432,0.138602 -0.0731,0.290307 -0.0957,0.445313 -0.43119,-0.07914 -0.83061,-0.16967 -1.32227,-0.253906 0.57777,-0.958538 1.84981,-3.065512 2.57813,-4.220703 0.91062,-1.444336 2.13449,-2.916248 3.78516,-4.029297 1.65064,-1.113049 4.13281,-1.833011 5.98242,-2.320313 1.84961,-0.487299 5.00586,-0.732422 5.00586,-0.732422 0,0 -0.86609,-0.04415 -1.98633,-0.03516 z m 5.68555,0.970703 c -0.4188,4.57e-4 -0.8127,0.01541 -1.16407,0.05078 -2.81092,0.282963 -6.07608,1.397965 -8.28906,2.417969 -2.21298,1.020004 -3.92119,2.085543 -5.00781,3.28125 -1.08662,1.195707 -1.72656,3.28125 -1.72656,3.28125 0,0 1.65662,-2.022371 3.10937,-3.109375 1.45275,-1.087004 3.6982,-2.297016 5.69727,-3.107422 1.99904,-0.810406 3.78889,-1.343973 6.21679,-1.726562 2.42793,-0.382592 8.28907,-0.345703 8.28907,-0.345703 0,0 -4.19349,-0.745386 -7.125,-0.742187 z m -18.77735,0.396485 c 0,0 -3.5888,2.516823 -4.66211,4.144531 -1.07331,1.627705 -1.72656,5.179687 -1.72656,5.179687 0,0 0.86699,-2.713729 1.90039,-4.316406 1.0334,-1.602677 4.48828,-5.007812 4.48828,-5.007812 z m -9.2793,5.138671 c 0,0 -2.41363,1.728656 -3.05273,2.685547 -0.6391,0.956891 -0.91601,2.6875 -0.91601,2.6875 0,0 0.69505,-1.588929 1.34374,-2.503906 0.64871,-0.914977 2.62501,-2.869141 2.625,-2.869141 z m 44.8711,4.029297 c 0,0 3.16293,1.890232 4.27344,3.296875 1.0619,1.345073 1.67728,3.305546 2.13086,4.683594 -0.99155,-0.966262 -2.10366,-1.87228 -3.35157,-2.486328 -2.11723,-1.041823 -4.8794,-1.651377 -7.08203,-1.464844 -2.20263,0.186533 -5.61719,2.197266 -5.61719,2.197266 0,0 3.95783,-1.267034 6.10547,-1.220703 2.14767,0.04633 4.66887,0.645811 6.47071,1.58789 1.7451,0.912429 2.8076,2.136985 4.03515,3.529297 0.15307,0.759654 0.23828,1.355469 0.23828,1.355469 0,0 0.0471,-0.4115 0.082,-0.982422 1.20101,1.409354 2.30986,3.138679 3.21484,4.765625 0.95617,1.718981 1.81045,3.627086 2.32031,5.251953 0.50986,1.62487 0.73283,2.736089 0.85547,4.394531 0.12264,1.658445 0.048,3.876447 -0.24414,5.494141 -0.29213,1.617694 -0.81609,2.972315 -1.34375,4.152344 -0.52766,1.180029 -1.70899,2.929687 -1.70899,2.929687 0,0 1.6992,-1.544389 2.44141,-2.685547 0.74221,-1.141155 1.46619,-2.416743 1.83203,-4.152343 0.36584,-1.735603 0.18206,-4.264892 0,-6.103516 -0.18206,-1.838624 -0.44872,-3.264346 -0.97656,-4.884766 -0.52784,-1.620417 -1.3076,-3.146527 -2.19922,-4.761718 -0.89162,-1.615194 -1.77516,-3.284639 -3.17383,-4.884766 -0.31097,-0.355767 -0.64555,-0.726837 -0.99023,-1.097656 -0.0115,-0.310389 -0.0345,-0.616444 -0.0762,-0.900391 0.63236,0.322978 1.90948,1.007274 2.89843,1.753906 1.35988,1.026648 3.38085,2.700133 4.63868,4.396485 1.2578,1.696349 2.19537,3.53305 2.80859,5.617187 0.61322,2.084137 0.71419,4.689947 0.73242,6.714844 0.0182,2.024897 -0.59753,4.124026 -1.00631,5.891074 -0.40875,1.767048 -2.29847,5.990331 -2.29847,5.990331 0,0 3.39422,-3.689925 4.01732,-5.573514 0.6231,-1.883592 0.41681,-4.74339 0.38707,-6.919219 -0.0297,-2.175829 -0.311,-4.593691 -0.97656,-6.714844 -0.66556,-2.121153 -1.60654,-4.1212 -2.93164,-5.861328 -1.3251,-1.740128 -3.3518,-3.542777 -4.88281,-4.394531 -1.14828,-0.638817 -2.70639,-0.93744 -3.41211,-1.046875 -0.003,-0.01725 -0.005,-0.03571 -0.008,-0.05273 -0.26669,-1.436275 -0.60363,-3.336658 -1.83007,-4.761718 -1.22647,-1.425063 -5.37305,-3.052735 -5.37305,-3.052735 z m -8.13672,0.15625 c 0,0 -2.74154,0.105564 -4.31641,0.517578 -1.57484,0.412017 -3.77017,0.998294 -5.00781,2.072266 -1.23764,1.073972 -2.24414,3.798828 -2.24414,3.798828 0,0 1.51762,-2.196642 2.76367,-3.107422 1.24605,-0.91078 3.18802,-1.532495 4.66211,-2.072265 1.47409,-0.539773 4.14258,-1.208985 4.14258,-1.208985 z m -91.79297,2.869141 c -0.38658,0.0024 -0.77708,0.01208 -1.16992,0.02734 -3.14274,0.122074 -6.55841,0.146773 -9.76758,1.708984 -3.20917,1.562211 -5.955,4.729687 -8.54687,7.693359 -2.5919,2.963672 -5.56755,7.236293 -6.83789,10.011719 -1.27037,2.775426 -1.58594,5.982422 -1.58594,5.982422 0,0 1.19998,-2.92459 2.80664,-5.617187 1.60666,-2.6926 4.69798,-7.396538 7.20508,-10.25586 2.50707,-2.859322 4.64915,-5.497216 7.57031,-6.958984 2.92116,-1.461771 6.17757,-1.561364 9.15625,-1.708985 2.97868,-0.147618 5.72418,0.201908 8.54687,0.732422 2.82272,0.530517 8.30469,2.441406 8.30469,2.441407 0,0 -5.10275,-2.485967 -7.9375,-3.173829 -2.4804,-0.601876 -5.03806,-0.899888 -7.74414,-0.882812 z m 91.38281,1.126953 c 0,0 -2.50002,-0.01386 -3.66211,0.244141 -1.16206,0.257998 -3.29658,1.23802 -4.15234,2.197265 -0.85576,0.959245 -1.95312,4.394531 -1.95312,4.394532 0,0 1.85872,-3.231132 2.80859,-4.029297 0.94987,-0.798168 2.79578,-1.720364 3.78516,-2.074219 0.98935,-0.353855 3.17382,-0.732422 3.17382,-0.732422 z m 4.76563,2.875 c -0.46035,0.0044 -0.91355,0.02603 -1.34766,0.05469 -1.73644,0.114619 -3.55614,0.488078 -4.88281,1.220703 -1.32667,0.732622 -2.93164,2.808593 -2.93164,2.808593 0,0 2.11242,-1.407942 3.41992,-1.953125 1.3075,-0.54518 2.80971,-1.143223 4.39453,-1.220703 1.58482,-0.07748 3.49863,0.16791 4.88477,0.853516 1.38614,0.685606 2.3351,1.726455 3.17383,2.93164 0.83873,1.205188 1.19056,3.035129 1.71093,4.150391 0.52037,1.115262 1.22071,4.273438 1.22071,4.273438 0,0 0.16043,-3.274633 -0.12305,-4.517579 -0.28348,-1.242943 -0.77587,-3.150574 -1.70898,-4.517578 -0.93314,-1.367001 -2.18889,-2.697693 -3.78516,-3.417968 -1.1972,-0.540208 -2.64434,-0.679247 -4.02539,-0.666016 z m -91.01367,1.488281 c -0.55998,0.0072 -1.17065,0.05654 -1.90821,0.154297 -1.96678,0.260674 -6.95898,2.074219 -6.95898,2.074219 0,0 4.86731,-1.107147 6.71484,-1.220703 1.84753,-0.113556 2.64353,0.08913 4.27344,0.24414 1.62991,0.155007 5.49414,0.732422 5.49414,0.732422 0,0 -3.27369,-1.413692 -4.88281,-1.708984 -1.0057,-0.184557 -1.79914,-0.287449 -2.73242,-0.275391 z m 89.42187,2.779297 c -1.03044,-0.01956 -2.34017,0.176078 -3.41797,0.488281 -1.0778,0.312204 -2.18033,0.832852 -2.99218,1.341797 -0.81186,0.508946 -1.89258,1.587891 -1.89258,1.587891 0,0 1.18268,-0.5964 2.01562,-0.976563 0.83294,-0.380162 1.91709,-0.949961 2.99024,-1.28125 1.07315,-0.331288 2.41662,-0.574265 3.41992,-0.671875 1.0033,-0.09761 2.56445,0 2.56445,0 0,0 -1.65706,-0.468721 -2.6875,-0.488281 z m -90.84375,0.578125 c -2.6079,-0.01 -5.68518,0.47866 -7.68945,0.947266 -2.4668,0.576743 -3.65338,1.055901 -5.37305,2.076172 -1.71967,1.020271 -4.76172,4.029296 -4.76172,4.029297 0,0 3.48853,-2.322886 5.25,-3.173829 1.76147,-0.85094 2.90574,-1.414657 5.25,-1.955078 2.34429,-0.540418 6.03686,-0.983424 8.79102,-0.853515 2.75416,0.129906 7.57031,1.464843 7.57031,1.464843 0,0 -4.48478,-2.111628 -7.32617,-2.441406 -0.53276,-0.06183 -1.10911,-0.09145 -1.71094,-0.09375 z m 93.04297,2.341797 c -1.88649,-0.06414 -4.39648,1.537109 -4.39648,1.537109 0,0 2.80019,-0.848015 4.39648,-0.611328 1.59629,0.236687 3.35793,1.015361 4.37305,1.982422 1.01512,0.967061 1.36495,2.067026 1.85351,3.023438 0.48856,0.956412 1.02186,2.125439 1.68164,2.84375 0.65978,0.718308 1.27976,1.207115 1.98047,1.429687 0.70071,0.222572 2.48047,0.123047 2.48047,0.123047 0,0 -1.84386,-0.470885 -2.39258,-0.839844 -0.54872,-0.368956 -1.05345,-0.797006 -1.55273,-1.359375 -0.49928,-0.562366 -0.75116,-1.618713 -1.16992,-2.75 -0.41876,-1.131288 -0.46343,-1.896831 -1.91992,-3.304687 -1.45653,-1.40786 -3.4475,-2.010083 -5.33399,-2.074219 z m -89.01172,0.314453 c 0,0 -4.34301,0.449636 -6.4707,1.222656 -2.12769,0.773023 -4.19376,1.705369 -6.10547,3.417969 -1.91171,1.7126 -3.5236,3.808866 -4.88477,6.837891 -1.36114,3.029025 -1.39267,7.822917 -2.5625,11.232422 -1.1698,3.409502 -2.3473,5.906445 -4.27539,9.158203 -1.92806,3.251755 -5.06953,7.192733 -7.44726,10.134768 -2.37773,2.94204 -6.71485,7.57031 -6.71485,7.57031 0,0 6.17409,-4.54413 8.30274,-6.7168 2.12865,-2.172653 3.39012,-4.157518 4.63867,-5.982419 1.24855,-1.824901 1.7544,-2.619765 2.93164,-4.884765 1.17724,-2.265003 2.76225,-5.510737 3.90625,-8.791016 1.144,-3.280279 1.49451,-7.995925 2.80859,-10.867188 1.31411,-2.87126 2.77201,-4.706737 4.39649,-6.347656 1.62448,-1.640919 3.08519,-2.520923 5.00586,-3.541016 1.92067,-1.02009 6.4707,-2.443359 6.4707,-2.443359 z m 1.70899,1.099609 c 0,0 -2.88168,0.154093 -4.0293,0.488282 -1.14762,0.334186 -2.02314,0.647729 -2.80859,1.34375 -0.78548,0.696018 -1.70899,2.685547 -1.70899,2.685547 0,0 1.63371,-1.634376 2.44141,-2.197266 0.8077,-0.56289 1.30594,-0.811411 2.32031,-1.220703 1.01437,-0.409295 3.78516,-1.099609 3.78516,-1.09961 z m 4.63672,2.226563 c 0,0 -1.40873,2.242208 -2.76368,3.626953 -1.35495,1.384748 -3.92614,3.152854 -5.52539,4.402344 -1.59925,1.24949 -4.05664,3.109375 -4.05664,3.109375 0,0 3.21853,-2.060821 4.91992,-3.28125 1.70142,-1.220429 4.06297,-2.672622 5.26758,-4.058594 1.20461,-1.385969 2.1582,-3.798828 2.15821,-3.798828 z m 94.02148,0.947266 c 0,0 1.96797,3.788901 2.31836,5.740234 0.35039,1.951333 0.37179,4.637821 0.24414,6.591797 -0.12765,1.953976 -1.70899,5.984375 -1.70898,5.984375 0,0 2.43149,-3.347715 2.80859,-5.25 0.3771,-1.902285 0.41781,-4.836457 -0.12109,-6.960938 -0.53893,-2.124481 -3.54102,-6.105468 -3.54102,-6.105468 z m -98.41406,1.710937 c 0,0 -4.87617,1.281922 -7.20313,2.685547 -2.32696,1.403625 -4.51956,3.775416 -6.10547,5.738281 -1.58591,1.962865 -2.3631,3.826566 -3.05273,5.617188 -0.6896,1.790622 -1.2207,4.761719 -1.2207,4.761718 0,0 1.24438,-2.602584 2.19726,-4.273437 0.95288,-1.670853 2.10257,-3.729471 3.66406,-5.617187 1.56152,-1.887719 3.50432,-4.128618 5.49414,-5.615235 1.98985,-1.486614 6.22657,-3.296875 6.22657,-3.296875 z m 3.9082,4.761719 c 0,0 -4.74532,0.321568 -7.08203,1.341797 -2.33671,1.020229 -4.71221,3.571296 -7.08203,5.984375 -2.36982,2.413076 -4.7176,5.313037 -6.95899,8.546875 -2.24136,3.233838 -4.81417,7.181068 -6.34961,10.867187 -1.53541,3.686131 -2.46689,7.618671 -2.93164,10.988281 -0.46475,3.36964 -0.36422,6.00991 -0.12109,9.03516 0.24313,3.02525 1.58789,9.03516 1.58789,9.03515 0,1e-5 -0.59103,-6.18067 -0.61133,-9.27929 -0.0203,-3.09862 -0.0785,-5.99561 0.48828,-9.2793 0.5668,-3.28369 1.55172,-6.64076 3.05274,-10.25586 1.50102,-3.615094 3.80187,-7.995263 6.10547,-11.234375 2.30357,-3.239112 5.16599,-5.936665 7.44726,-8.179688 2.28127,-2.24302 4.12211,-4.269823 6.10547,-5.373047 1.98336,-1.103221 6.34961,-2.197265 6.34961,-2.197265 z m -26.25195,1.341797 c 0,0 -3.26294,3.093254 -4.27344,4.517578 -1.0105,1.424321 -0.92373,2.054402 -1.95313,3.785156 -1.02937,1.730754 -2.82837,4.374154 -4.39648,6.472656 -1.56811,2.098502 -5.00586,6.105469 -5.00586,6.105469 0,0 4.39181,-3.660188 6.10547,-5.740234 1.71366,-2.080046 3.20976,-4.818145 4.15039,-6.59375 0.94063,-1.775605 0.83844,-2.451853 1.71094,-3.90625 0.8725,-1.4544 3.66211,-4.640625 3.66211,-4.640625 z m 24.05273,3.175781 c 0,0 -7.05098,3.215017 -9.76758,4.882813 -2.71657,1.667793 -4.88968,3.0759 -6.59375,4.884765 -1.70407,1.808865 -3.66211,5.617188 -3.66211,5.617188 0,0 2.054,-3.340479 4.15235,-5.25 2.09835,-1.909521 6.02119,-3.929991 8.66797,-5.617188 2.64675,-1.687197 7.20312,-4.517578 7.20312,-4.517578 z m -24.78516,2.808594 c 0,0 -0.88244,2.979977 -1.83203,4.761719 -0.94959,1.781739 -2.14594,3.387028 -4.02929,5.738281 -1.88338,2.35125 -5.47095,5.476893 -7.44727,8.179687 -1.97632,2.702797 -3.31306,4.927056 -4.51758,7.814456 -1.20452,2.8874 -2.29141,6.25713 -2.56445,9.40234 -0.27304,3.14524 0.0655,6.33146 0.85352,9.15821 0.78797,2.82672 3.66406,7.57031 3.66406,7.57031 0,0 -1.89639,-5.26949 -2.32031,-7.9375 -0.42392,-2.66801 -0.53089,-4.97718 -0.24415,-7.93555 0.28677,-2.95837 1.18762,-6.76795 2.19727,-9.64648 1.00965,-2.87856 1.99215,-4.968554 3.66406,-7.570317 1.67191,-2.601763 4.62521,-5.488686 6.47071,-7.814453 1.84547,-2.325767 3.65883,-4.086053 4.64062,-6.105469 0.98179,-2.019416 1.46484,-5.615234 1.46484,-5.615234 z m 21.73438,5.49414 c 0,0 -5.72881,3.373689 -7.9375,5.494141 -2.20869,2.120452 -3.9768,5.021036 -5.25,6.958984 -1.2732,1.937948 -1.69355,2.730313 -2.56445,4.517578 -0.8709,1.78727 -1.68634,3.70897 -2.56446,6.22852 -0.87812,2.51955 -2.07794,5.61077 -2.5625,8.91211 -0.48456,3.30131 -0.25468,7.71068 -0.12304,10.74609 0.13164,3.03541 0.75532,5.70788 0.73242,7.44727 -0.0229,1.73939 -0.0382,1.97179 -0.36524,2.92968 -0.32708,0.95792 -1.58789,2.6875 -1.58789,2.6875 0,0 1.94586,-1.48975 2.44141,-2.56445 0.49555,-1.0747 0.31189,-1.37938 0.36719,-3.54101 0.0553,-2.16166 -0.43198,-6.40917 -0.48828,-9.40235 -0.0563,-2.99318 -0.40034,-5.36921 0.12109,-8.54687 0.52143,-3.17769 1.9878,-6.97329 3.29687,-10.25586 1.3091,-3.2826 2.87612,-6.826618 4.51758,-9.402348 1.64146,-2.575733 3.01825,-4.048696 5.00586,-6.103516 1.98761,-2.05482 6.96094,-6.105469 6.96094,-6.105469 z m -1.4668,3.052735 c 0,0 -5.02166,4.424393 -6.59179,6.83789 -1.57016,2.4135 -2.46795,4.832621 -2.93164,7.203125 -0.46369,2.370513 -0.83432,4.333833 -0.85352,6.714843 -0.0192,2.38104 0.71716,5.67734 0.73242,7.57032 0.0153,1.89295 0.31251,2.31655 0.1211,3.78515 -0.19141,1.4686 -1.46485,4.88477 -1.46485,4.88477 0,0 1.89164,-3.63991 2.19727,-5.12891 0.30563,-1.489 -0.0618,-1.80949 0,-3.54101 0.0618,-1.73155 -0.40909,-4.49447 -0.36524,-6.8379 0.0438,-2.3434 0.21381,-4.73276 0.60938,-7.203122 0.39557,-2.470357 1.27398,-4.889553 2.6875,-7.326172 1.41352,-2.436616 5.85937,-6.958984 5.85937,-6.958984 z m -35.89648,0.732422 c 0,0 -2.9309,3.133848 -4.39649,4.761718 -1.46556,1.627873 -2.90768,2.285039 -4.39453,5.00586 -1.48685,2.720818 -2.78923,7.441528 -3.29687,11.476568 -0.50764,4.03501 -0.22337,9.35241 0.36523,12.45507 0.11836,0.62388 0.23515,1.14115 0.35352,1.61329 -0.42495,0.88528 -1.23864,2.76425 -1.33008,4.36914 -0.12429,2.18134 0.62264,5.76019 1.58789,7.81445 0.96525,2.05426 1.91548,3.12994 3.54102,4.39648 1.62551,1.26657 6.10547,2.8086 6.10547,2.8086 -10e-6,0 -4.07906,-2.57728 -5.49415,-4.0293 -1.41506,-1.45202 -2.21506,-2.59382 -3.05273,-4.39648 -0.83767,-1.80269 -1.56969,-4.39813 -1.71094,-6.34961 -0.0963,-1.33103 0.22096,-3.21089 0.4336,-4.28516 0.44866,1.66912 0.95013,2.56306 1.76562,4.16406 1.08261,2.12542 4.39453,6.47071 4.39453,6.47071 0,0 -2.63755,-4.64572 -3.54101,-6.83789 -0.90346,-2.1922 -1.47091,-3.18239 -1.95313,-6.22657 -0.48222,-3.04415 -0.71302,-8.11273 -0.12109,-11.96679 0.59193,-3.85409 1.75743,-7.2732 3.54101,-10.86524 1.78361,-3.59203 7.20313,-10.378906 7.20313,-10.378906 z m 34.1875,4.638672 c 0,0 -2.4709,3.607465 -3.17383,6.228515 -0.70293,2.621053 -0.0714,6.053189 -0.48828,9.279299 -0.41686,3.22611 -1.11463,7.24103 -2.07617,10.01172 -0.96154,2.77069 -3.29688,6.59375 -3.29688,6.59375 0,0 3.01174,-4.13706 4.15235,-6.95899 1.14061,-2.8219 1.90564,-6.69729 2.31836,-9.89062 0.41272,-3.19333 -0.26237,-6.592446 0.24414,-9.158206 0.50651,-2.565757 2.32031,-6.105469 2.32031,-6.105468 z m -5.00586,0.24414 c 0,0 -3.17687,3.321449 -4.39453,5.496094 -1.21766,2.174645 -2.30004,4.76935 -2.6875,7.44727 -0.38746,2.67789 0.16417,6.02121 0.48828,8.30273 0.32411,2.28152 1.2207,5.37305 1.2207,5.37305 0,0 -0.46846,-3.33667 -0.60937,-5.61719 -0.1409,-2.28052 -0.52658,-5.58307 -0.12305,-8.05859 0.40353,-2.47552 1.30381,-4.423069 2.32031,-6.593754 1.0165,-2.170688 3.78516,-6.34961 3.78516,-6.34961 z m 7.32617,0.488281 c 0,0 -1.16587,3.538781 -1.58789,5.128907 -0.42202,1.590123 -0.78585,2.105198 -0.97656,4.396486 -0.19071,2.29129 0.75016,6.69245 0.48828,9.2793 -0.26188,2.58682 -0.23895,3.82431 -1.58594,6.10547 -1.34699,2.28113 -5.56864,4.81909 -6.96094,6.59179 -1.39227,1.7727 -1.95312,3.41992 -1.95312,3.41992 0,0 0.68199,-1.23899 2.32031,-2.93164 1.63832,-1.69262 6.33231,-4.18342 7.93555,-6.71484 1.60324,-2.53142 1.53714,-4.20126 1.70898,-6.95898 0.17184,-2.75775 -1.03374,-6.25145 -0.97656,-9.2793 0.0572,-3.027846 1.58789,-9.037113 1.58789,-9.037113 z m -2.68555,9.769533 c 0,0 -0.98672,1.92731 -1.34375,3.66211 -0.3573,1.7348 -0.072,4.79722 -0.36718,6.71484 -0.29521,1.91765 -0.57503,3.30168 -1.22071,4.76368 -0.64568,1.46197 -2.56445,3.90625 -2.56445,3.90625 0,0 2.38742,-2.24907 3.17578,-3.78516 0.78836,-1.53609 1.06131,-3.30822 1.34375,-5.25 0.2824,-1.94178 0.0463,-4.67971 0.24414,-6.34961 0.19783,-1.6699 0.73242,-3.66211 0.73242,-3.66211 z m -28.71289,5.64453 c 0,0 -1.30508,2.52201 -1.72656,4.31641 -0.42143,1.7944 -0.78762,4.41892 -0.51953,6.38867 0.26809,1.96975 1.90039,5.17969 1.90039,5.17969 0,0 -0.74583,-3.3011 -0.86328,-5.00781 -0.11745,-1.70674 -0.0227,-3.36093 0.17187,-5.17969 0.19459,-1.81876 1.03711,-5.69727 1.03711,-5.69727 z m 16.75,0.86328 c 0,0 -1.02632,3.23726 -1.20898,5.00782 -0.18266,1.77053 0.0796,3.91355 0.17187,5.52539 0.0923,1.61181 0.58631,2.89329 0.34571,4.14257 -0.2406,1.24931 -0.9824,2.47999 -1.55469,3.10938 -0.57229,0.62939 -1.38086,0.86328 -1.38086,0.86328 0,0 0.99507,0.0605 1.72656,-0.51758 0.73149,-0.57802 1.57674,-1.87839 1.90039,-3.28125 0.32365,-1.40286 -0.28613,-3.16577 -0.3457,-4.83593 -0.0596,-1.67019 -0.0596,-3.5095 0,-5.17969 0.0596,-1.67019 0.3457,-4.83399 0.3457,-4.83399 z m 0.85157,20.10938 c 0,0 -1.37475,2.25399 -1.46485,3.54101 -0.0901,1.28705 0.78084,2.39412 0.97657,3.78516 0.1957,1.39104 0.21953,2.71947 0.12109,4.51758 -0.0984,1.79811 -0.36627,4.47042 -0.85352,6.22656 -0.48725,1.75614 -1.5342,3.10666 -1.83203,4.27344 -0.29783,1.16678 -0.24414,2.56445 -0.24414,2.56445 0,0 0.40141,-1.35415 0.85352,-2.4414 0.45211,-1.08728 1.40394,-2.33659 1.95508,-4.0293 0.55111,-1.69271 0.99146,-4.17706 1.09765,-6.10547 0.10619,-1.92841 -0.10476,-3.92576 -0.36523,-5.37305 -0.26047,-1.44729 -0.92239,-2.10245 -0.97657,-3.29687 -0.0542,-1.19442 0.73243,-3.66211 0.73243,-3.66211 z m -2.19727,3.9082 c 0,0 -1.85225,2.32152 -2.6875,4.0293 -0.83525,1.70778 -1.80879,4.06744 -2.07617,6.22656 -0.26738,2.15912 -0.0944,4.39543 0.48828,6.4707 0.58269,2.0753 1.58445,4.29022 2.93164,5.73828 1.0855,1.16681 3.35122,2.23985 4.22266,2.62696 0.0206,0.025 0.0508,0.0605 0.0508,0.0605 0,0 -0.0191,-0.0354 -0.0274,-0.0508 0.18916,0.0836 0.39258,0.17188 0.39258,0.17188 0,0 -0.17361,-0.10639 -0.45312,-0.28906 -0.30377,-0.57946 -1.34019,-2.62246 -1.37696,-3.61719 -0.0431,-1.16492 0.94946,-1.90542 0.85352,-2.80859 -0.0959,-0.9032 -1.2207,-2.19727 -1.2207,-2.19727 0,0 0.51013,1.52318 0.48828,2.44141 -0.0219,0.9182 -0.90766,1.77285 -0.73242,2.92968 0.14221,0.93879 1.40596,2.58675 1.88281,3.18164 -0.86434,-0.57031 -2.51931,-1.73457 -3.34766,-2.81445 -1.14827,-1.49695 -2.02586,-3.69749 -2.56445,-5.73828 -0.5386,-2.04079 -0.80863,-4.2982 -0.60938,-6.34961 0.19925,-2.05141 1.06039,-4.07013 1.70899,-5.73828 0.6486,-1.66815 2.07617,-4.27344 2.07617,-4.27344 z m 0.97656,2.92969 c 0,0 -0.75989,3.80214 -0.97656,5.49414 -0.21667,1.692 -0.0969,2.90354 -0.36719,4.64062 -0.27026,1.73711 -1.34375,5.73829 -1.34375,5.73829 0,0 1.86636,-4.1982 2.19922,-6.10547 0.33286,-1.9073 -0.0856,-3.49888 0,-5.12891 0.0855,-1.63003 0.48828,-4.63867 0.48828,-4.63867 z"
       sodipodi:nodetypes="cscscssscsssscsscsscsscssccssscsscsssscsssscssscscssccsscsscssssscscssccsssccsscsscsscscssscsccccccssccsssssscssscssssscsscssssssscssscsscssssscssscssscscssscsccsscscscsscssscscsscscssscsscsscscsssssscscssccssssssscscsssscssscssscsssscssscssccscscsssscsccssccssssscscsccssscccscccccccccccccccccscsccssscsssccsscssscsscssccsscssccssscccsssscssscscscsccscsccscsscsscccssssscssssssccssssscsssssccscccsscsscssssscssssscssscsscsscssscssssscssssssscsscssssscssscsssscssscssscssssscssssscsssssscsssssssccsscssccsscssccsscssccssscsssccsssssssssssssccssscsssccsscssccsssssscssssssccsssssssscsssssssccssssscsssssccsssscssscssscscssssccssscsssccssscsssccssssscsssscccsscssscccscssccsssscssssccssssscsssssccsssscccccsscsscsssscccsscscc" /><path
       id="path16075"
       style="fill:#000000;fill-opacity:0.2;stroke:none;stroke-width:1px;stroke-linecap:butt;stroke-linejoin:miter;stroke-opacity:1"
       d="m 231.01367,57.142578 c -3.85668,-0.144673 -10.95705,0.193645 -16.20642,1.292168 -5.24937,1.098523 -11.56068,4.198154 -15.56942,6.581777 -4.00873,2.383622 -4.19095,1.588946 -4.19095,1.588946 -0.0305,0.130216 -0.0755,0.266582 -0.0957,0.392578 -0.19438,1.214159 0.53163,1.112959 0.17188,3.107422 -0.35975,1.994463 -2.34391,5.069556 -3.625,8.289062 -1.28109,3.219506 -2.8244,6.960164 -3.97266,11.050781 -1.14826,4.090618 -2.37336,9.642811 -2.76172,13.468748 -0.38836,3.82594 -0.21482,6.72867 0,9.32422 0.21482,2.59555 0.46475,4.51279 1.03516,6.2168 0.57041,1.70401 1.86381,2.59825 2.07226,3.97265 0.20845,1.37441 -0.68939,2.01498 -0.6914,3.79883 -0.002,1.78385 0.34392,4.79372 1.20898,6.73438 0.86506,1.94066 2.31394,3.49115 3.62695,4.66211 1.31302,1.17096 2.94366,2.08769 3.97071,2.41601 1.02705,0.32832 1.73645,1.23856 1.8164,0.73633 0.0799,-0.50222 0.71683,-7.2334 2.44141,-9.88477 1.72458,-2.65136 4.36318,-5.77862 7.32617,-5.85937 2.963,-0.0807 5.34957,2.32929 6.83789,4.88281 1.48832,2.55353 0.73023,6.10366 0.97657,9.2793 0.24634,3.17564 -0.34981,7.16406 0.48828,9.76953 0.83809,2.60547 2.38487,4.2471 3.59765,5.58203 1.21278,1.33493 3.01482,2.84445 3.28125,2.58985 0.26643,-0.2546 -0.81858,-1.5733 -1.03711,-2.24415 -0.21853,-0.67084 -0.39623,-1.00714 -0.34375,-1.72656 0.0525,-0.71942 0.88001,-1.52535 0.86329,-2.41797 -0.0167,-0.89262 -0.9307,-1.60546 -1.03711,-2.58984 -0.10641,-0.98438 0.26345,-1.69819 0.51757,-3.10937 0.25412,-1.41119 0.93822,-3.66659 1.03711,-5.35157 0.0989,-1.68498 -0.0853,-3.36274 -0.3457,-4.66211 -0.26048,-1.29937 -0.94957,-2.16017 -1.03516,-3.10937 -0.0856,-0.9492 -0.017,-1.40187 0.34375,-2.41797 0.36076,-1.0161 1.29626,-2.29904 2.07227,-3.45313 0.77601,-1.15408 1.5113,-2.45436 2.58984,-3.45312 1.07854,-0.99876 2.60663,-1.43625 3.79883,-2.41797 1.1922,-0.98172 2.4419,-1.92532 3.28125,-3.45312 0.83935,-1.52781 1.26438,-3.62314 1.38281,-5.5254 0.11843,-1.90225 -0.52363,-4.08684 -0.6914,-5.69921 -0.16777,-1.61238 -0.3775,-2.66767 -0.34571,-3.97071 0.0318,-1.30304 0.12712,-1.744749 0.51758,-3.798825 0.39046,-2.054076 1.47072,-5.869953 2.07227,-8.460937 0.60155,-2.590985 1.0624,-4.576256 1.55469,-7.080079 0.49229,-2.503822 0.63706,-5.838284 1.38085,-7.943359 0.7438,-2.105075 1.99682,-2.794043 2.58985,-4.662109 0.59303,-1.868067 0.63078,-4.598605 0.69141,-6.388672 0.0376,-1.110978 -0.14178,-2.005504 -0.22071,-2.835938 0,0 -1.19618,-1.07757 -3.07226,-1.755859 -1.87608,-0.678289 -4.44606,-1.320171 -8.30274,-1.464844 z"
       sodipodi:nodetypes="zzzcsssssssssssssscsssssssssssssssssssssssssssczz" /></g></svg>
