<?xml version="1.0" encoding="UTF-8" standalone="no"?>
<!-- Created with Inkscape (http://www.inkscape.org/) -->

<svg
   width="400"
   height="400"
   viewBox="0 0 400 400"
   version="1.1"
   id="svg1"
   xml:space="preserve"
   inkscape:version="1.3 (0e150ed, 2023-07-21)"
   sodipodi:docname="RomulanPointed.svg"
   xmlns:inkscape="http://www.inkscape.org/namespaces/inkscape"
   xmlns:sodipodi="http://sodipodi.sourceforge.net/DTD/sodipodi-0.dtd"
   xmlns="http://www.w3.org/2000/svg"
   xmlns:svg="http://www.w3.org/2000/svg"><sodipodi:namedview
     id="namedview1"
     pagecolor="#ffffff"
     bordercolor="#666666"
     borderopacity="1.0"
     inkscape:showpageshadow="2"
     inkscape:pageopacity="0.0"
     inkscape:pagecheckerboard="0"
     inkscape:deskcolor="#d1d1d1"
     inkscape:document-units="px"
     inkscape:zoom="7.28"
     inkscape:cx="296.7033"
     inkscape:cy="70.054945"
     inkscape:window-width="1944"
     inkscape:window-height="941"
     inkscape:window-x="2339"
     inkscape:window-y="139"
     inkscape:window-maximized="0"
     inkscape:current-layer="svg1"
     showguides="false" /><defs
     id="defs1" /><g
     inkscape:groupmode="layer"
     id="layer3"
     inkscape:label="Romulan Hair Back"><path
       style="fill:#383838;fill-opacity:1;stroke:none;stroke-width:0.965261px;stroke-linecap:butt;stroke-linejoin:miter;stroke-opacity:1"
       d="m 292.1672,26.030854 9.48222,1.29782 15.7405,5.376683 8.34436,5.19128 9.10293,9.08474 9.10294,16.87166 5.31005,16.130049 3.98253,23.916974 -1.13787,25.77099 -5.49968,18.16948 -7.58579,12.7928 L 338.06117,99.264987 319.476,52.543463 Z"
       id="path81" /><path
       id="path75"
       style="color:#000000;fill:#000000;stroke-width:0.965261;-inkscape-stroke:none"
       d="m 296.04431,26.310843 -0.13728,1.817471 c 0,0 7.72857,1.318228 13.0553,3.001157 5.32675,1.682928 10.95697,3.635209 14.91054,6.518662 7.56846,5.519878 12.73322,13.456134 16.85921,21.664253 1.43799,2.860689 2.67098,5.788983 3.76196,8.76487 -0.84579,-1.344736 -1.71335,-2.685447 -2.42535,-3.692728 -2.15357,-3.04675 -4.93937,-6.521955 -7.12922,-9.009063 -2.20023,-2.498905 -5.85362,-5.985538 -5.85362,-5.985538 l -0.47859,0.477202 c 0,0 3.65252,3.49011 5.81359,5.944528 2.17144,2.466214 4.95039,5.930861 7.08536,8.951277 1.18474,1.676083 2.784,4.248912 4.01365,6.268877 0.70789,2.142074 1.34186,4.309623 1.92197,6.496293 -1.32781,-1.883088 -3.2159,-4.442075 -4.67147,-5.910974 -1.51149,-1.525346 -4.94602,-3.843718 -4.94602,-3.843718 l -0.38897,0.548037 c 0,0 3.45474,2.35878 4.84307,3.759835 1.86612,1.883232 4.57479,5.765584 5.66105,7.357494 1.16135,4.655132 2.09884,9.391725 2.9268,14.178138 0.36548,2.112744 0.63645,4.292196 0.84469,6.501884 -0.66312,-2.391417 -1.39482,-4.922575 -1.99443,-6.71998 -1.32816,-3.981263 -2.55574,-8.073508 -4.57804,-11.83127 -1.10196,-2.047651 -3.92593,-5.52884 -3.92593,-5.52884 l -0.61397,0.473475 c 0,0 2.83692,3.527663 3.84967,5.409539 1.97388,3.66779 3.19165,7.718039 4.52465,11.713832 0.96275,2.885961 2.2481,7.607354 3.04884,10.619624 0.34133,6.32965 0.15222,12.81549 -0.34894,18.88305 -0.53948,6.53172 -1.49402,12.69745 -3.56937,18.75817 0.8889,-3.87614 1.95542,-8.82608 2.38722,-12.17798 0.72598,-5.63562 1.03488,-11.34241 0.85611,-17.02272 -0.13261,-4.21347 -0.57477,-8.44022 -1.43004,-12.57876 -0.71877,-3.478018 -3.41684,-9.937374 -3.41684,-9.937374 0,0 1.96088,6.742948 2.65224,10.088354 0.84518,4.08968 1.28333,8.27312 1.41479,12.45015 0.17742,5.63755 -0.12915,11.30641 -0.85039,16.90528 -0.69171,5.3695 -3.06284,15.10745 -3.516,16.94814 -3.58511,7.64675 -11.30493,19.25214 -11.30493,19.25214 l 1.71414,1.09794 c 0,0 9.27153,-13.77266 12.43371,-21.68475 2.8593,-7.1542 4.0479,-14.36541 4.67337,-21.93828 0.79828,-9.66513 0.83606,-20.38919 -0.82943,-30.017157 -2.07428,-11.991312 -4.77433,-23.829454 -10.31534,-34.852568 -4.20175,-8.358797 -9.7153,-16.703568 -17.46936,-22.385649 -3.80307,-2.786834 -10.11022,-5.08282 -15.51117,-6.820642 -7.75714,-2.495963 -13.54723,-2.911681 -13.54723,-2.911681 z m 49.12852,66.372173 c 0,0 1.61092,6.492572 1.98299,9.683854 0.39451,3.38377 0.031,6.85106 -0.0972,10.32696 -0.17963,4.86702 -0.78879,9.73533 -0.94764,14.64789 -0.14558,4.50188 0.13393,8.98619 0,13.44182 -0.031,1.02957 0.0114,4.55394 0.0114,4.55394 0,0 0.73611,-3.45718 0.76841,-4.53157 0.13531,-4.50159 -0.14405,-8.98518 0,-13.43996 0.15736,-4.86661 0.76639,-9.73532 0.94764,-14.64602 0.12705,-3.44154 0.50074,-6.94515 0.0934,-10.4388 -0.39368,-3.376583 -2.75902,-9.598114 -2.75902,-9.598114 z" /><path
       style="fill:#000000;fill-opacity:0.3;stroke:none;stroke-width:0.965261px;stroke-linecap:butt;stroke-linejoin:miter;stroke-opacity:1"
       d="m 339.00939,160.26252 7.2065,-10.93877 c 0,0 2.52708,-12.67377 3.03431,-19.09649 0.46228,-5.85368 0.61724,-11.77328 0,-17.61327 -0.74673,-7.06507 -2.22599,-14.09822 -4.45665,-20.857823 -1.816,-5.503056 -7.20649,-15.851944 -7.20649,-15.851944 l -3.7873,13.67108 4.07176,9.782376 0.94822,38.656501 z"
       id="path82"
       sodipodi:nodetypes="ccsssccccc" /></g><g
     inkscape:groupmode="layer"
     id="layer2"
     inkscape:label="Romulan Hair Front"
     sodipodi:insensitive="true"><path
       style="fill:#383838;fill-opacity:1;stroke:none;stroke-width:1px;stroke-linecap:butt;stroke-linejoin:miter;stroke-opacity:1"
       d="m 233.51648,152.06044 -2.33516,-11.81319 -1.37363,-23.35165 3.15934,-16.62087 4.67033,-12.225279 15.38462,-3.846154 14.01099,0.137362 19.64285,3.708792 11.81319,5.357143 10.43956,7.829666 3.84616,3.02198 7.96703,-6.730767 9.89011,-4.120879 9.75275,-1.098902 4.4206,0.598016 -0.73538,-4.872922 -2.86105,-14.681138 -4.53297,-10.164835 -6.86813,-13.04945 -8.79121,-11.263737 -7.96703,-6.043956 -12.5,-5.357142 -10.43956,-0.549451 -7.14286,0.137363 -10.71428,-3.296704 -14.01099,-0.412088 -17.30769,3.846154 -12.77473,6.043956 -14.42308,10.027473 -11.12637,12.087912 -8.37912,13.04945 -3.84615,12.637363 -1.92308,16.071429 1.51099,12.499995 3.6401,16.58655 6.0783,-0.54946 9.64973,5.66621 8.1044,7.82967 7.00549,7.96703 5.63187,3.43407 z"
       id="baseColour"
       sodipodi:nodetypes="ccccccccccccccccccccccccccccccccccccccccc" /><path
       id="blackline"
       style="color:#000000;display:inline;fill:#000000;-inkscape-stroke:none"
       d="m 263.82946,21.863968 c -1.83212,-0.0098 -3.66505,0.06251 -5.49414,0.210938 -10.97461,0.890584 -21.79591,4.548316 -31.3086,9.972656 -12.28655,7.006052 -23.13004,18.063503 -30.54101,30.118454 -5.3149,8.645378 -7.99689,18.935561 -8.91993,28.960937 -0.45641,4.957219 0.3876,12.109477 1.32618,18.087887 0.93858,5.97843 4.99442,18.18894 4.99442,18.18894 0,0 -1.73812,-12.54762 -2.66763,-18.46823 -0.92951,-5.92063 -1.73505,-13.055154 -1.3125,-17.644534 0.90408,-9.819546 3.53994,-19.849765 8.66211,-28.181641 7.24163,-11.779482 17.88243,-21.957654 29.90039,-28.810547 12.40602,-7.074176 27.0771,-11.052827 41.22461,-9.675781 3.21821,0.313244 9.93319,2.169253 13.69922,3.964844 3.76602,1.795589 8.77734,5.615234 8.77734,5.615234 0,0 -3.89368,-5.035844 -7.62695,-7.023437 1.48858,0.208895 3.63593,0.462576 5.44141,0.4375 2.9799,-0.04139 6.49249,0.0453 8.34374,0.451171 5.03989,1.104956 9.81688,3.544458 14.3379,6.230469 4.05147,2.407058 7.90831,5.24934 11.0996,8.658203 2.79207,2.982415 7.82813,10.201172 7.82813,10.201172 0,0 -3.62258,-7.904706 -6.73242,-11.226562 -3.31873,-3.544973 -7.2919,-6.463542 -11.42969,-8.921875 -4.57612,-2.71876 -9.48506,-5.245102 -14.78125,-6.40625 -2.175,-0.476853 -5.66849,-0.528259 -8.6875,-0.486328 -2.17292,0.03018 -4.86701,0.428117 -6.23242,0.652343 -3.89693,-1.77322 -10.83124,-4.277662 -14.41273,-4.626266 -1.82483,-0.177619 -3.65616,-0.269504 -5.48828,-0.279297 z m 25.38734,6.294235 c 0,0 5.49351,2.471035 7.99609,3.943359 3.66329,2.155196 7.2164,4.609275 10.16016,7.634766 2.39576,2.462285 4.32195,5.403958 5.98828,8.439453 1.58782,2.892478 2.71107,6.047952 3.75195,9.212891 0.95259,2.896486 1.64024,5.888063 2.25586,8.890625 0.31931,1.557387 1.09766,4.736328 1.09766,4.736328 0,0 -0.0798,-3.256005 -0.41211,-4.876953 -0.61786,-3.01344 -1.31134,-6.031476 -2.27735,-8.96875 -1.04437,-3.175579 -2.17865,-6.371552 -3.80273,-9.330078 -1.68391,-3.067523 -3.64029,-6.064194 -6.09961,-8.591797 -3.00806,-3.091575 -6.61378,-5.57741 -10.30664,-7.75 -2.63839,-1.552223 -8.35156,-3.339844 -8.35156,-3.339844 z m -36.74414,3.572266 c 0,0 -7.75139,4.074336 -11.23633,6.830078 -3.24695,2.567533 -6.24913,5.462055 -8.98242,8.564453 -3.05462,3.467097 -7.80274,11.253906 -7.80274,11.253906 0,0 5.44136,-7.361565 8.4043,-10.724609 2.70457,-3.069786 5.67151,-5.932075 8.87695,-8.466797 3.36878,-2.663873 10.74024,-7.457031 10.74024,-7.457031 z M 233.50195,35.0625 c 0,0 -12.53882,8.136076 -17.52929,13.919922 -5.0416,5.843089 -8.81016,12.700293 -12.14454,19.578125 -2.58549,5.333151 -4.77301,10.945039 -6.07421,16.761719 -1.18887,5.314458 -0.77539,15.886714 -0.77539,15.886714 0,0 1.02963,-10.615694 2.14062,-15.582027 1.27005,-5.677379 3.41619,-11.191835 5.96875,-16.457031 3.31294,-6.833618 7.03251,-13.579609 11.94531,-19.273438 4.70467,-5.452589 16.46875,-14.833984 16.46875,-14.833984 z m 11.75196,0.09766 c 0,0 -2.71085,0.890039 -5.76758,2.597656 -3.05674,1.707619 -6.6326,3.865921 -8.77539,5.748047 -1.98261,1.741425 -4.38437,4.759279 -6.3125,7.355469 -1.92814,2.596191 -3.03906,4.990234 -3.03906,4.990234 0,0 1.76679,-1.935373 3.68164,-4.513671 1.91483,-2.5783 4.32008,-5.583601 6.19726,-7.232422 2.03737,-1.789524 5.6014,-3.953642 8.63867,-5.650391 3.03728,-1.696748 5.37696,-3.294922 5.37696,-3.294922 z m 67.93359,1.65234 c 0,0 6.43473,6.506456 9.05664,10.097656 2.9335,4.017978 5.06423,8.607555 7.24805,13.132813 2.32188,4.811368 4.34142,9.775993 6.16797,14.802734 1.51226,4.161852 4.3125,12.654297 4.3125,12.654297 0,0 -2.11992,-8.671833 -3.6543,-12.894531 -1.83257,-5.043329 -3.86057,-10.02914 -6.19531,-14.867188 -2.18064,-4.518682 -4.32466,-9.149751 -7.3125,-13.242187 C 320.08474,42.762578 313.1875,36.8125 313.1875,36.8125 Z m -48.2168,0.484375 c 0,0 -3.18832,2.333474 -4.53515,3.847656 -2.41104,2.710604 -4.58189,5.640764 -6.54102,8.6875 -1.64209,2.553701 -3.97851,8.056641 -3.97851,8.056641 0,0 2.98214,-5.210906 4.56836,-7.677734 1.94236,-3.020662 4.09145,-5.922297 6.4746,-8.601563 1.27093,-1.428838 4.01172,-4.3125 4.01172,-4.3125 z m 37.22657,1.576172 c 0,0 3.39902,5.261813 4.8164,7.96875 1.38669,2.648311 2.38868,5.503916 3.41797,8.34375 1.29058,3.560726 2.46439,7.16599 3.42578,10.824219 0.67036,2.550795 1.93945,7.753906 1.93946,7.753906 0,0 -0.67198,-5.298035 -1.35743,-7.90625 -0.96726,-3.680594 -2.14827,-7.303792 -3.44336,-10.876953 -1.02785,-2.835866 -2.03552,-5.716124 -3.44921,-8.416016 -1.46929,-2.806087 -5.34962,-7.691406 -5.34961,-7.691406 z m -20.39844,1.167969 c 0,0 -3.39526,2.835358 -4.7461,4.669922 -1.33911,1.818664 -2.42095,3.810053 -3.39843,5.822265 -1.34334,2.765365 -2.42413,5.652706 -3.38282,8.560547 -0.42423,1.286796 -0.79241,3.572975 -0.95312,4.65625 -0.66142,1.398352 -1.28632,2.814928 -1.85547,4.253906 -1.02411,2.589286 -1.92218,5.237131 -2.62305,7.9375 -0.53257,2.051999 -0.82812,6.201172 -0.82812,6.201172 0,0 0.9962,-4.061681 1.50586,-6.02539 0.69229,-2.667364 1.58017,-5.289838 2.5957,-7.857422 1.01525,-2.566858 2.20362,-5.069481 3.48828,-7.519532 1.24224,-2.369139 3.81055,-7.169921 3.81055,-7.169922 0,0 -3.1577,4.414133 -4.43164,6.84375 -0.43162,0.823168 -0.84837,1.655198 -1.25586,2.492188 0.38824,-1.138808 0.87596,-2.571783 1.21289,-3.59375 0.95282,-2.890047 2.0235,-5.746776 3.34766,-8.472656 0.96811,-1.992936 2.03102,-3.947951 3.33203,-5.714844 1.2625,-1.714595 4.18164,-5.083984 4.18164,-5.083984 z m 2.33594,1.097656 c 0,0 -2.38459,5.305832 -3.1543,8.152344 -0.7627,2.82058 -1.20574,5.701857 -1.72266,8.544922 -0.46291,2.546021 -0.75586,8.166015 -0.75586,8.166015 0,0 0.98523,-5.521288 1.44336,-8.041015 0.51916,-2.855398 0.96178,-5.717776 1.71094,-8.488282 0.74592,-2.758535 2.47852,-8.333984 2.47852,-8.333984 z m 16.68945,2.40625 c 0,0 4.11139,7.123377 5.58008,10.763672 1.44246,3.575302 2.19148,7.442237 2.85547,11.298828 0.82945,4.817667 1.19769,9.724656 1.36718,14.628906 0.12929,3.740622 0.22461,11.384766 0.22461,11.384766 0,0 0.90873,-7.560204 0.77539,-11.417969 -0.17042,-4.93109 -0.54052,-9.884773 -1.38086,-14.765625 -0.66629,-3.869951 -1.42311,-7.80843 -2.91406,-11.503906 -1.56989,-3.891149 -6.50781,-10.388672 -6.50781,-10.388672 z m -39.30664,1.537109 c 0,0 -8.06882,7.943462 -14.47852,18.175781 -3.21053,5.125259 -5.83008,16.41211 -5.83008,16.41211 0,0 2.98753,-7.25252 5.65821,-12.419922 0.1252,-0.164493 3.73706,-4.90813 5.58008,-7.322266 1.74543,-2.286335 3.63701,-4.469819 5.54492,-6.642578 1.59039,-1.811163 4.64453,-5.621093 4.64453,-5.621094 0,0 -3.62754,3.252733 -5.24414,5.09375 -1.91003,2.175164 -3.81632,4.370719 -5.58203,6.683594 -1.64779,2.158396 -4.06551,6.268753 -4.7461,7.4375 0.52393,-0.998978 1.03265,-1.917983 1.5,-2.664062 6.31825,-10.086339 12.91737,-19.209929 12.95313,-19.132813 z m 33.26172,1.140625 c 0,0 1.90506,3.373506 2.70703,5.029297 1.71626,3.543489 2.9606,7.325865 4.03125,11.136719 1.17577,4.18506 1.9661,8.484918 2.59961,12.798828 0.61572,4.192765 1.51367,12.724609 1.51367,12.724609 0,0 -0.19348,-8.557723 -0.82031,-12.826171 -0.63597,-4.330623 -1.43172,-8.660192 -2.61914,-12.886719 -1.07618,-3.830528 -2.33061,-7.651992 -4.07422,-11.251953 -0.86517,-1.786283 -3.33789,-4.72461 -3.33789,-4.72461 z m 3.29882,1.716797 c 0,0 4.28023,9.702957 5.88086,14.521485 1.43188,4.3105 2.89874,10.280113 3.68164,14.863281 0.94624,5.539332 2.11329,18.279297 2.11329,18.279297 0,0 0.33159,-12.876107 -0.63477,-18.533204 -0.77761,-4.55214 -2.24663,-10.597452 -3.73633,-15.082031 -1.70605,-5.135855 -7.30469,-14.048828 -7.30469,-14.048828 z m -13.73828,0.414063 c 0,0 -3.76645,8.813169 -4.70898,13.61914 -0.93257,4.755229 -1.1213,9.59701 -1.38477,14.367188 -0.16086,2.912435 -0.14142,7.896829 -0.13671,8.86914 -1.21754,-0.237552 -2.43569,-0.460726 -3.65235,-0.658203 -3.42954,-0.556649 -6.90824,-0.896435 -10.39453,-1.013672 -0.87157,-0.02931 -1.74341,-0.04553 -2.61523,-0.04687 -2.6155,-0.004 -5.2295,0.118748 -7.82422,0.367188 -1.25195,0.119871 -2.74096,0.37299 -4.28321,0.68164 0.17673,-0.832646 0.40078,-1.85834 0.58789,-2.583984 0.60878,-2.360894 1.1758,-4.726071 2.04688,-6.964844 0.95858,-2.463661 3.24414,-7.40625 3.24414,-7.40625 0,0 -2.89481,4.577903 -3.89648,7.152344 -0.89415,2.298051 -1.46748,4.691875 -2.07422,7.044922 -0.22872,0.886988 -0.49104,2.117726 -0.65821,2.916016 -4.86839,1.023672 -10.08076,2.553567 -10.56445,2.697265 0.68662,-1.92468 1.10599,-3.071255 0.98633,-3.123047 0,0 -8.65753,15.492925 -9.69141,33.810551 -0.44774,7.93285 0.69916,18.84036 2.08594,26.1875 0.93868,4.97309 2.24805,8.20312 2.24805,8.20312 0,0 -3.26846,-21.29892 -2.53516,-34.29101 0.66535,-11.78815 4.78476,-22.278232 6.9053,-28.392208 1.00649,-0.294168 10.95718,-3.384095 15.81905,-3.849609 6.76199,-0.647446 13.66775,-0.408975 20.375,0.679687 5.0897,0.826115 10.17727,1.985264 15.01367,3.710937 0.14668,0.797604 0.26368,1.263672 0.26368,1.263672 0,0 -0.0227,-0.972711 -0.0274,-1.18164 0.60126,0.217261 1.19642,0.447726 1.78906,0.683594 0.26054,1.839895 0.61914,3.605468 0.61914,3.605468 0,0 -0.0591,-1.651426 -0.11132,-3.40039 1.18059,0.482998 2.34937,0.990022 3.48828,1.554687 1.67044,0.828199 3.71155,2.148203 5.79297,3.615235 -0.0152,0.866432 -0.0371,2.171874 -0.0371,2.171874 0,0 0.10256,-0.838856 0.23242,-2.03125 1.70657,1.209392 3.43331,2.504508 4.99805,3.734383 3.53485,2.77836 6.26757,5.15625 6.26757,5.15625 l 0.66993,0.58398 0.64035,-0.61354 c 0,0 1.05704,-1.18423 2.44922,-2.57226 1.39219,-1.38804 3.14641,-2.982705 4.35156,-3.714857 4.26139,-2.588826 9.15801,-4.327521 14.09571,-5.099609 1.66359,-0.260131 4.71174,-0.584756 7.00781,-0.41211 2.29607,0.172648 5.49023,0.210938 5.49023,0.210938 0,0 -0.90341,-0.676284 -1.91939,-1.027455 -0.0219,-0.157801 -0.74148,-5.34414 -1.14844,-7.683594 -0.71937,-4.13541 -1.32904,-8.371425 -2.63281,-12.46289 -1.37482,-4.31443 -3.08946,-8.591494 -5.42774,-12.517579 -2.45102,-4.115415 -10.25976,-11.429686 -10.25976,-11.429687 0,0 6.716,8.411511 8.9707,12.197266 2.25794,3.791186 3.93479,7.963184 5.28711,12.207031 1.25369,3.93431 2.25038,8.100306 2.97461,12.263672 0.36967,2.125132 1.11111,6.511316 1.21289,7.113281 -0.92118,-0.275086 -1.90346,-0.527452 -2.78515,-0.59375 -2.35042,-0.176736 -5.14136,-0.295654 -7.14454,0.01758 -2.62437,0.410363 -5.23206,1.083739 -7.75195,2 -0.0279,-0.912562 -0.14254,-4.218078 -0.40625,-6.125 -0.2795,-2.0211 -1.73047,-5.701172 -1.73047,-5.701172 0,0 0.4809,3.962613 0.74024,5.837891 0.28236,2.041809 0.40373,6.283009 0.40625,6.371093 -1.47955,0.58186 -2.92867,1.240582 -4.32227,1.992188 0.052,-1.092987 0.12475,-2.905723 0.0918,-4.046875 -0.0465,-1.609848 -0.10864,-3.248784 -0.41992,-4.863281 -0.43071,-2.23381 -2.26758,-6.251953 -2.26758,-6.251953 0,0 1.17714,4.294987 1.58008,6.384765 0.29773,1.544199 0.35989,3.146268 0.40625,4.751953 0.0362,1.254452 -0.066,3.491486 -0.11329,4.4375 -0.32258,0.183158 -0.64835,0.360466 -0.96484,0.552735 -1.50881,0.916614 -3.25739,2.548767 -4.68945,3.976569 -1.09273,1.08947 -1.56007,1.6237 -1.92188,2.02148 -0.49932,-0.43207 -2.47318,-2.15381 -5.67187,-4.667971 -1.83979,-1.446055 -3.88624,-2.991039 -5.90039,-4.384766 0.19793,-2.037534 0.38902,-4.382465 0.38867,-5.929687 -4.9e-4,-2.121772 -0.48828,-6.31836 -0.48828,-6.31836 0,0 -0.21338,4.22669 -0.21289,6.31836 3.3e-4,1.476908 -0.0268,3.698844 -0.0566,5.685547 -1.76817,-1.208444 -3.50569,-2.302221 -5.03125,-3.058594 -1.41606,-0.702075 -2.86831,-1.325529 -4.33789,-1.904297 -0.008,-0.360258 -0.0197,-0.759108 -0.0234,-1.050781 -0.0248,-1.953176 0.0246,-3.911893 0.33594,-5.816406 0.37531,-2.296174 1.54882,-7 1.54882,-7 0,0 -1.84142,4.446788 -2.24023,6.886718 -0.32171,1.968218 -0.36873,3.96687 -0.34375,5.9375 0.003,0.233785 0.0174,0.493501 0.0371,0.765625 -0.53105,-0.201711 -1.06903,-0.384861 -1.60547,-0.572265 -0.0724,-3.129119 -0.19043,-8.041345 -0.30469,-11.285157 -0.17086,-4.85129 -0.2931,-9.703237 -0.19336,-14.546875 0.0728,-3.538848 0.18164,-10.693359 0.18164,-10.693359 0,0 -0.90846,7.08465 -0.98242,10.677734 -0.0293,1.421509 -0.0339,2.842582 -0.0293,4.263672 -0.32403,0.870859 -1.45953,3.975564 -1.85547,5.820313 -0.49646,2.312994 -0.97467,4.656184 -1.17188,7.039062 -0.14897,1.800015 -0.10044,3.605685 0,5.390625 0.0323,0.572857 0.12377,1.360253 0.20703,2.017578 -1.95605,-0.550764 -3.93388,-1.020016 -5.91797,-1.43164 -0.002,-0.410998 -0.007,-2.613009 0.0293,-5.150391 0.30895,-1.405783 0.75782,-3.45051 1.12695,-5.142578 0.4077,-1.868808 0.93918,-3.716702 1.49805,-5.558594 0.71305,-2.350015 2.04492,-7.142578 2.04492,-7.142578 0,0 -1.98907,4.54753 -2.71484,6.939453 -0.56079,1.848201 -1.09748,3.714487 -1.51172,5.613281 -0.14233,0.652399 -0.26753,1.492535 -0.37695,2.361329 0.0126,-0.336265 0.0251,-0.67461 0.041,-0.962891 0.26418,-4.782976 0.45456,-9.569489 1.36328,-14.203125 0.89743,-4.576009 3.53125,-13.849609 3.53125,-13.849609 z m 35.02735,0.273437 c 0,0 4.05629,6.206377 5.44922,9.402344 2.03139,4.660934 3.11145,9.760959 3.80859,14.841797 0.57528,4.192677 0.22536,8.511745 0.27148,12.847656 0.0184,1.729192 0.22461,6.451172 0.22461,6.451172 0,0 0.79399,-4.71048 0.77539,-6.460938 -0.0232,-2.182968 0.0591,-4.389063 0.0664,-6.603515 0.60148,1.664173 1.38891,3.921617 1.70313,5.18164 0.53909,2.161814 1.30078,5.822267 1.30078,5.822266 0,0 -0.0574,-3.729827 -0.6211,-5.990234 -0.47422,-1.901676 -1.92226,-5.757055 -2.40625,-7.027344 -0.0361,-1.452517 -0.12317,-2.906422 -0.32226,-4.357422 -0.70378,-5.129238 -1.79864,-10.317013 -3.88477,-15.103516 -1.51989,-3.487283 -6.36523,-9.003906 -6.36523,-9.003906 z M 263.39258,49.3125 c 0,0 -4.59794,5.591906 -6.39258,8.802734 -1.54817,2.769855 -2.80219,5.693847 -3.93945,8.636719 -1.1001,2.846717 -2.375,8.730469 -2.375,8.730469 0,0 2.05503,-5.684739 3.12109,-8.44336 1.13022,-2.92464 2.36973,-5.812145 3.89063,-8.533203 1.73081,-3.096652 5.69531,-9.193359 5.69531,-9.193359 z m -39.02344,0.126953 c 0,0 -5.98281,5.981059 -8.28906,9.640625 -2.31202,3.668715 -4.05396,7.659367 -5.67383,11.636719 -2.23798,5.495051 -5.07227,16.894531 -5.07227,16.894531 0,0 3.81039,-11.146079 5.99805,-16.517578 1.61347,-3.961642 3.33545,-7.896994 5.59375,-11.480469 2.19045,-3.475809 7.44336,-10.173828 7.44336,-10.173828 z m 66.01563,1.933594 c 0,0 2.22038,8.430753 3.08203,12.601562 0.71266,3.44966 1.08862,6.980459 1.36523,10.515625 0.26042,3.328296 0.77149,10.125 0.77149,10.125 0,0 0.493,-6.773057 0.2246,-10.203125 -0.27804,-3.553651 -0.65689,-7.12489 -1.38281,-10.638671 -0.89179,-4.316741 -3.58593,-12.555664 -4.06054,-12.400391 z m 6.52539,0.34375 c 0,0 1.22924,6.98182 1.92187,10.439453 1.02775,5.130558 1.98106,10.277684 2.81445,15.441406 0.7308,4.527975 2.26954,13.611328 2.26954,13.611328 0,0 -0.84282,-9.166724 -1.57813,-13.722656 -0.83511,-5.174321 -1.78927,-10.329517 -2.81836,-15.466797 -0.69743,-3.481599 -2.60937,-10.302734 -2.60937,-10.302734 z m -31.66407,0.34375 c 0,0 -3.8403,6.466579 -5.46679,9.876953 -1.46525,3.072272 -2.92728,6.163412 -4.13086,9.367188 -1.3889,3.697062 -3.17578,11.318359 -3.17578,11.318359 0,0 2.46881,-7.448725 3.83007,-11.072266 1.19,-3.167628 2.64473,-6.2415 4.10938,-9.3125 1.6087,-3.373064 4.83398,-10.177734 4.83398,-10.177734 z m 47.94141,2.609375 c 0,0 2.04541,9.27105 2.70312,13.822266 0.62833,4.34777 0.66528,8.794936 0.67969,13.240234 0.0163,5.029648 -0.0859,15.246094 -0.0859,15.246094 0,0 1.30184,-10.10458 1.28515,-15.25 -0.0144,-4.449216 -0.0475,-8.952865 -0.69141,-13.408204 -0.68926,-4.769489 -3.89062,-13.650391 -3.89062,-13.65039 z m 5.08008,0.96289 c 0,0 1.98051,7.206224 2.82031,10.792969 0.84431,3.606022 1.45568,7.27271 1.91602,10.953125 0.37477,2.996369 0.61115,6.01395 0.68554,9.03125 0.042,1.704352 0.21094,5.210938 0.21094,5.210938 0,0 0.53206,-3.452874 0.48828,-5.228516 -0.075,-3.042122 -0.31197,-6.083531 -0.68945,-9.101562 -0.46271,-3.699411 -1.07848,-7.389931 -1.92969,-11.025391 -0.8579,-3.664061 -3.50195,-10.632812 -3.50195,-10.632813 z m -41.75781,0.548829 c 0,0 -0.46728,1.262435 -1.10547,3.083984 -0.58539,0.982577 -2.23439,3.788592 -2.92188,5.361328 -1.34755,3.082779 -2.80896,6.170002 -3.72656,9.455078 -0.75044,2.686607 -1.03516,8.128907 -1.03516,8.128907 0,0 0.99731,-5.393543 1.70899,-7.941407 0.89633,-3.208922 2.34031,-6.267936 3.69336,-9.363281 0.52493,-1.200881 1.28383,-3.023161 1.86328,-4.423828 -1.06544,3.095752 -2.39335,7.16634 -2.98633,9.90039 -0.94333,4.349437 -1.5332,13.132813 -1.5332,13.132813 0,0 1.39392,-8.718547 2.31445,-12.962891 1.03907,-4.790902 3.72852,-14.371092 3.72852,-14.371093 z m -6.73047,0.136718 c 0,0 -3.07051,4.899793 -4.30078,7.544922 -1.16337,2.50125 -2.24669,5.04868 -3.17188,7.654297 -1.13911,3.208109 -2.55469,9.800781 -2.55469,9.800781 0,0 2.09994,-6.426451 3.21485,-9.566406 0.91567,-2.578811 1.98969,-5.106623 3.14648,-7.59375 1.20521,-2.59122 3.66602,-7.839844 3.66602,-7.839844 z M 237.48242,58.375 c 0,0 -8.50138,13.127349 -11.38086,20.414062 -2.84264,7.193576 -4.92107,14.62732 -5.77929,22.533208 -0.86146,7.93529 -0.14082,17.3092 0.97656,24.19335 1.13254,6.97759 5.59765,16.6836 5.59765,16.6836 0,0 -3.03332,-10.24617 -4.11718,-16.92383 -1.09903,-6.77108 -1.80277,-16.07244 -0.96485,-23.79101 0.6952,-6.403834 2.21572,-12.497668 4.30274,-18.427739 0.60572,-1.043037 2.65586,-4.568334 3.64062,-6.080079 1.58045,-2.426177 3.0885,-4.887488 4.79492,-7.193359 2.02152,-2.731591 6.24414,-8.17578 6.24415,-8.175781 0,0 -4.74426,4.970991 -6.80665,7.757812 -1.73072,2.338709 -3.24501,4.813203 -4.81835,7.228516 -0.7265,1.115273 -1.88796,3.619096 -2.67383,5.369141 0.32027,-0.877605 0.65382,-1.751974 0.99804,-2.623047 2.76788,-7.004289 9.98633,-20.964844 9.98633,-20.964844 z m 60.25196,1.583984 c 0,0 -1.38108,7.290761 -1.44922,11.050782 -0.0666,3.67226 0.26946,7.338073 0.68945,10.966796 0.35126,3.034917 1.85742,8.890626 1.85742,8.890626 0,0 -0.81929,-6.00865 -1.16211,-8.970704 -0.41869,-3.617493 -0.75117,-7.251915 -0.68554,-10.873046 0.0661,-3.646858 0.74999,-11.064454 0.75,-11.064454 z m 30.42578,0.34375 c 0,0 2.16396,6.339128 3.28515,9.708985 1.12588,3.383927 2.42916,7.58123 3.15235,10.6875 0.72105,3.097115 1.66601,7.898437 1.66601,7.898437 0,0 -0.34773,-4.879191 -1.08203,-8.033203 -0.73217,-3.144858 -2.03701,-7.348862 -3.16602,-10.742187 -1.13367,-3.407398 -3.85546,-9.519532 -3.85546,-9.519532 z m -98.76368,0.41211 c 0,0 -3.79159,3.262025 -5.35937,5.279297 -2.38758,3.07208 -4.56544,6.34105 -6.35352,9.80664 -1.45455,2.819184 -3.12304,8.814453 -3.12304,8.814453 0,0 2.35274,-5.797382 3.74414,-8.49414 1.76413,-3.419184 3.9187,-6.652355 6.28515,-9.697266 1.49418,-1.922559 4.80664,-5.708984 4.80664,-5.708984 z m 23.34961,0.273437 c 0,0 -3.45243,4.463029 -4.75195,7.03125 -1.50331,2.970965 -2.87333,6.052615 -3.80469,9.273438 -0.65023,2.248638 -0.78125,6.771484 -0.78125,6.771484 0,0 0.94846,-4.465853 1.55078,-6.548828 0.91099,-3.150383 2.25893,-6.187957 3.75,-9.134766 1.24254,-2.455615 4.03711,-7.392577 4.03711,-7.392578 z m -11.47461,4.476563 c 0,0 -5.82857,9.065218 -8.1914,14.826172 -2.35065,5.731224 -4.43526,12.805686 -5.8457,19.289062 -1.41056,6.483862 -2.40289,13.619212 -2.63086,19.488282 -0.22842,5.8804 0.53528,11.99194 0.875,15.49023 0.34225,3.52445 1.125,5.59961 1.125,5.59961 0,0 -0.0884,-2.17175 -0.42774,-5.66601 -0.34186,-3.52042 -1.09837,-9.59553 -0.87305,-15.39649 0.22577,-5.81226 1.21287,-12.91907 2.61524,-19.365231 1.40247,-6.446662 3.4796,-13.495396 5.80859,-19.173828 2.3168,-5.64871 7.54492,-15.091797 7.54492,-15.091797 z m 46.77735,1.439453 c 0.0156,3.348531 0.10492,6.695479 0.22265,10.037109 0.0874,2.481784 0.18602,6.765557 0.47852,9.929688 0.0377,0.407848 0.0798,0.786672 0.125,1.15039 -0.96481,-0.328371 -1.93555,-0.637593 -2.91406,-0.923828 -0.0874,-0.659814 -0.20668,-1.608285 -0.24414,-2.273437 -0.0997,-1.770863 -0.14477,-3.545644 0,-5.294922 0.19263,-2.32756 0.66275,-4.640919 1.1582,-6.949219 0.38454,-1.791605 0.98891,-4.76579 1.17383,-5.675781 z m -66.13867,3.769531 c 0,0 -2.40987,3.987092 -3.2793,6.189453 -0.7668,1.942375 -1.38543,3.939292 -1.93555,5.94336 -0.56149,2.045477 -1.03515,6.203125 -1.03515,6.203125 0,0 1.1668,-4.037289 1.71093,-6.019532 0.54609,-1.98938 1.15634,-3.959629 1.91016,-5.86914 0.83797,-2.122675 2.62891,-6.447266 2.62891,-6.447266 z m -16.41602,0.892578 c 0,0 -3.91586,8.984705 -5.19336,13.769532 -1.01352,3.796146 -1.8401,7.676729 -2.21094,11.605468 -0.28244,2.992275 0.40039,8.828124 0.40039,8.828124 0,0 0.12822,-5.911322 0.39649,-8.753905 0.36502,-3.867201 1.18111,-7.703219 2.1875,-11.472656 1.24752,-4.672571 4.41992,-13.976563 4.41992,-13.976563 z m 22.17774,1.28125 c 0,0 -3.13742,3.286885 -4.41211,5.21875 -2.29368,3.476118 -4.37887,7.097291 -6.24024,10.822266 -1.75248,3.50707 -4.20898,10.863281 -4.20898,10.863281 0,0 3.21396,-7.084059 4.92383,-10.505859 1.84724,-3.696753 3.91764,-7.28934 6.19335,-10.738282 1.22168,-1.851465 3.74415,-5.660156 3.74415,-5.660156 z m -32.75586,2.013672 c 0,0 -2.58842,5.903202 -3.27344,9.121094 -0.83025,3.900083 -1.32676,7.897384 -1.38281,11.890625 -0.0598,4.263553 1.49804,12.505863 1.49804,12.505863 0,0 -0.75678,-8.393052 -0.69922,-12.494144 0.0552,-3.934484 0.54466,-7.881671 1.36524,-11.736328 0.65376,-3.071026 2.49219,-9.28711 2.49219,-9.28711 z m 20.90625,1.677734 c 0,0 -4.24441,10.449538 -5.16211,16.173829 -1.00551,6.271953 -1.39837,12.670079 -1.17578,19.017579 0.22632,6.45425 1.03819,11.99323 3.15624,18.13476 1.83523,5.32143 5.24867,11.17653 9.13282,15.28321 1.57739,1.66776 4.27131,3.87103 6.62695,5.27148 2.94825,1.75276 5.30664,2.17578 5.30664,2.17578 0,0 -7.43855,-5.31657 -10.625,-8.68554 -3.6554,-3.86481 -6.99818,-9.58157 -8.74023,-14.63282 -2.05606,-5.96169 -2.83625,-11.26869 -3.0586,-17.60937 -0.2185,-6.23091 0.16747,-12.514441 1.1543,-18.669923 0.86241,-5.379374 3.38477,-16.458984 3.38477,-16.458985 z m -8.44922,0.775391 c 0,0 -3.0024,6.659899 -3.88477,10.275391 -1.00144,4.103388 -1.70932,8.295376 -2.05273,12.509766 -0.30727,3.77075 -0.3037,7.5795 0,11.34961 0.29877,3.70903 2.24609,10.74023 2.24609,10.74023 0,0 -0.96412,-7.27331 -1.25,-10.82226 -0.29942,-3.71702 -0.30279,-7.46973 0,-11.18555 0.33875,-4.157081 1.0374,-8.299127 2.02734,-12.355468 0.84601,-3.466497 2.91407,-10.511719 2.91407,-10.511719 z m -10.58789,1.847656 c 0,0 -2.98746,7.442056 -3.50391,11.507813 -0.41555,3.271392 -0.0933,6.563249 0.0937,9.785158 0.0909,1.56603 0.88477,4.54101 0.88477,4.54101 0,0 4.9e-4,-3.09654 -0.0859,-4.58593 -0.18831,-3.242862 -0.50009,-6.487995 -0.0996,-9.640629 0.48905,-3.850013 2.71094,-11.607422 2.71094,-11.607422 z m 15.55273,0.826172 c 0,0 -3.87566,7.775684 -4.63477,11.332031 -0.7591,3.556348 -0.85924,6.754991 -0.88281,9.884768 -0.0222,2.95387 1.23242,9.51367 1.23242,9.51367 0,0 0.0456,-6.74642 0.0664,-9.50391 0.0234,-3.107897 0.12879,-6.219027 0.76367,-9.193356 0.78213,-3.66414 3.45508,-12.033203 3.45508,-12.033203 z m 101.12305,1.742188 c 0,0 0.33927,7.524983 0.32422,10.71289 -0.0139,2.949356 -0.46094,8.792971 -0.46094,8.792971 0,0 1.44606,-5.638613 1.46094,-8.789064 0.007,-1.516474 -0.12337,-3.705151 -0.41993,-5.802735 -0.36167,-2.558076 -0.90429,-4.914061 -0.90429,-4.914062 z m -82.58203,12.195312 c 0,0 -3.04114,12.410029 -3.60743,18.994139 -0.56649,6.58655 0.30469,19.95313 0.30469,19.95313 0,0 0.13814,-13.43446 0.69141,-19.86719 0.55347,-6.43514 2.61133,-19.080079 2.61133,-19.080079 z m -14.11914,7.859379 c 0,0 -1.97422,10.24214 -2.05079,15.51757 -0.079,5.44532 1.63868,16.07618 1.63868,16.07618 0,0 -0.91484,-10.76498 -0.83789,-16.06446 0.0744,-5.12959 1.25,-15.52929 1.25,-15.52929 z m 2.19531,6.18164 c 0,0 -1.42135,8.5278 -1.58594,12.89843 -0.16934,4.49712 0.90039,13.33985 0.90039,13.33985 0,0 -0.36441,-8.92561 -0.19922,-13.3125 0.16155,-4.29 0.88477,-12.92578 0.88477,-12.92578 z m -10.125,1.5957 c 0,0 -0.72324,6.51302 -0.4961,9.83789 0.21385,3.13024 0.75977,6.22222 1.36524,9.27734 0.44884,2.26478 2.04492,6.52735 2.04492,6.52735 0,0 -0.82626,-4.49621 -1.25976,-6.6836 -0.6033,-3.04422 -1.14357,-6.10246 -1.35352,-9.17578 -0.21863,-3.20031 -0.30078,-9.7832 -0.30078,-9.7832 z"
       sodipodi:nodetypes="sssssscssssssccsssscsssscsscsssssccssssccsscssccssscsssccssscsssccssscsssccsscssccssscsssccssscsscssscscsssccsscssccssscsssccsccsscssccccssscsssccsscssccsscsssscsscsscccsscscssccccccscccscccssssccssscssscsscscsccsscsscsscscscscscsscssccsccscssccccsscssccscccssscscscscsscccsscssccsscssccsscssccsscssccsscssccsscsscccssscssscccsscsscscsccsscssccssscsscsscsscsccsscssccsscssccsscssccsscssccsssscssssccssccsssccsscssccssccsccsscssccsccssccssssscssssccssscsssccssccsccsscsscccsccsccscsccsccccscsccsscssc" /><path
       id="shadow"
       style="fill:#000000;fill-opacity:0.3;stroke:none;stroke-width:1px;stroke-linecap:butt;stroke-linejoin:miter;stroke-opacity:1"
       d="m 218.53516,39.933594 -4.79883,3.335937 -11.12695,12.087891 -8.37891,13.048828 -3.8457,12.638672 -1.92383,16.070312 1.51172,12.499996 3.64025,16.58725 6.078,-0.55083 9.64893,5.66671 8.10547,7.83008 7.00586,7.96679 5.63086,3.4336 3.43359,1.51172 -1.85937,-9.40625 c 0,0 -1.77003,-3.5804 -2.23437,-5.50586 -1.90495,-7.89923 -2.13672,-24.28321 -2.13672,-24.28321 l -1.55469,16.31836 c 0,0 -1.35539,-13.32271 -1.55469,-20.00976 -0.10805,-3.62528 0.19531,-10.878908 0.19531,-10.878908 l -3.10937,15.347658 -1.16406,-9.51953 3.49609,-18.648441 6.99219,-15.541015 -8.35156,9.130859 -6.60547,14.375 c 0,0 0.54274,-8.252523 1.55468,-12.238281 1.23096,-4.848455 5.43946,-13.986328 5.43946,-13.986328 l -6.2168,10.294922 -4.08008,12.238281 c 0,0 0.53093,-11.241502 1.74805,-16.707031 1.46002,-6.556244 6.60547,-19.03711 6.60547,-19.03711 0,0 -4.41953,6.049432 -6.2168,9.324219 -2.62253,4.778478 -6.60547,14.958984 -6.60547,14.958984 0,0 2.81118,-15.203214 6.02344,-22.146484 2.30762,-4.98789 9.32422,-13.597656 9.32422,-13.597656 l -6.41016,6.021484 -6.41211,9.908203 -7.57617,13.792969 c 0,0 0.41022,-4.58093 0.97266,-6.800781 1.23773,-4.885089 2.71465,-9.821047 5.24414,-14.179688 2.47787,-4.269691 9.51172,-11.351562 9.51172,-11.351562 z"
       sodipodi:nodetypes="cccccccccccccccsccscccccccscccscscsccccssc"
       inkscape:label="LowLights" /><path
       id="path64"
       style="color:#000000;fill:#ffffff;fill-opacity:0.3;-inkscape-stroke:none"
       d="m 309.54688,40.177734 c 0,0 2.90805,4.17373 4.34374,6.207032 1.8502,2.620332 3.76632,5.200415 5.11524,8.044922 1.3213,2.786273 2.11015,5.832245 2.92969,8.861328 0.8049,2.974947 1.52878,5.976414 1.91211,9.011718 0.19549,1.547971 0.60156,4.826172 0.60156,4.826172 0,0 0.40339,-3.245584 0.1914,-4.925781 -0.39078,-3.09443 -1.12487,-6.132051 -1.93359,-9.121094 -0.81786,-3.022861 -1.61149,-6.117519 -2.97656,-8.996093 -1.39418,-2.939934 -3.3451,-5.552815 -5.1875,-8.16211 -1.48056,-2.096828 -4.9961,-5.746094 -4.99609,-5.746094 z m 10.16406,11.402344 c 0,0 2.49799,4.188601 3.60547,6.275391 1.07739,2.030093 1.99118,4.15767 2.72656,6.335937 0.79718,2.361322 2.18555,7.304688 2.18555,7.304688 0,0 -0.6902,-5.061171 -1.52344,-7.529297 -0.74732,-2.213611 -1.67392,-4.375031 -2.76953,-6.439453 -1.16105,-2.187738 -4.22461,-5.947266 -4.22461,-5.947266 z m -54.8086,3.158203 c 0,0 -2.84236,4.124464 -3.88867,6.451172 -1.10805,2.464043 -1.9808,5.024978 -2.76367,7.595703 -0.64979,2.133711 -1.24414,6.488282 -1.24414,6.488282 0,0 1.28595,-4.220657 1.91406,-6.283204 0.77841,-2.556097 1.64248,-5.089903 2.73242,-7.513672 1.00396,-2.23253 3.25,-6.738281 3.25,-6.738281 z m 64.97266,2.335938 c 0,0 2.55937,4.56192 3.62305,6.832031 1.15507,2.46517 1.90924,5.128301 2.72656,7.777344 0.90619,2.937113 2.78516,8.878906 2.78516,8.878906 0,0 -1.09533,-6.11975 -2.01954,-9.115234 -0.81354,-2.636848 -1.57557,-5.336876 -2.76757,-7.88086 -1.13194,-2.415797 -4.34766,-6.492187 -4.34766,-6.492187 z m -19.70898,4.257812 c 0,0 0.92244,4.345289 1.44531,6.470703 0.60375,2.454195 1.19882,4.907548 1.57226,7.386719 0.41484,2.753901 1.10157,8.394531 1.10157,8.394531 0,0 0.0192,-5.660692 -0.40821,-8.498046 -0.37965,-2.520364 -0.98189,-4.993858 -1.58593,-7.449219 -0.53337,-2.168079 -2.125,-6.304688 -2.125,-6.304688 z m -23.49024,3.572266 c 0,0 -2.11208,4.747456 -2.67773,7.341797 -0.55824,2.560335 -0.70982,5.170872 -0.9668,7.732422 -0.15296,1.524721 0.004,4.568359 0.004,4.568359 0,0 0.54185,-3.007273 0.6914,-4.498047 0.25891,-2.580743 0.41432,-5.163205 0.95703,-7.652344 0.53875,-2.470963 1.99219,-7.492186 1.99219,-7.492187 z m 33.44727,0 c 0,0 0.68494,4.192674 1.02929,6.238281 0.49404,2.934783 0.73927,5.918854 1.02735,8.904297 0.22591,2.341205 0.89844,7.041016 0.89843,7.041016 0,0 0.0253,-4.740185 -0.20312,-7.107422 -0.28743,-2.978718 -0.53258,-5.97918 -1.0332,-8.953125 -0.35641,-2.117219 -1.71875,-6.123047 -1.71875,-6.123047 z m -21.35938,4.326172 c 0,0 0.53567,4.00553 0.82227,5.957031 0.3093,2.106112 0.52391,4.228283 0.61328,6.351562 0.0764,1.814853 0.28125,5.548829 0.28125,5.548829 0,0 0.49753,-3.687191 0.41797,-5.578125 -0.0905,-2.151061 -0.30878,-4.297215 -0.6211,-6.423828 -0.29662,-2.019819 -1.51367,-5.855469 -1.51367,-5.855469 z m 28.22656,5.21875 c 0,0 0.8249,2.646268 1.14844,4.316406 0.15942,0.822904 0.24937,2.354477 0.29297,3.660156 0.0436,1.30568 0.3457,2.394531 0.3457,2.394531 0,0 0.29781,-1.097776 0.25391,-2.414062 -0.044,-1.316286 -0.12558,-2.839422 -0.30273,-3.753906 -0.3496,-1.804639 -1.73829,-4.203125 -1.73829,-4.203125 z m -8.58398,14.15039 c 0,0 0.093,3.845117 0.13086,5.707032 0.0313,1.536199 0.14453,4.732422 0.14453,4.732421 0,0 0.5878,-3.12063 0.55469,-4.746093 -0.0397,-1.951149 -0.83008,-5.69336 -0.83008,-5.69336 z"
       inkscape:label="Highlights" /><path
       id="path74"
       style="fill:#000000;fill-opacity:0.2;stroke:none;stroke-width:1px;stroke-linecap:butt;stroke-linejoin:miter;stroke-opacity:1"
       d="M 262.33008,23.472656 254,24.294922 l -12.98828,2.884766 -1.33789,0.613281 -11.51367,5.449219 -12.94336,8.998046 -2.26368,1.88086 -9.95117,10.808594 -2.70898,4.037109 -6.00781,9.353515 -3.97266,13.335938 -1.55859,13.009766 0.75195,11.093754 0.4668,3.85546 3.64062,16.58594 6.07813,-0.54883 9.64843,5.66602 8.10547,7.83008 7.00586,7.96679 5.63086,3.4336 3.43359,1.51172 -2.33398,-11.8125 -1.37305,-23.35157 3.15821,-16.62109 4.14843,-10.861328 0.79688,-0.265624 7.55469,-3.021485 10.85156,-1.648437 12.91211,0.548828 10.85156,1.785156 12.08789,3.572266 c 0,0 -4.5996,-3.41471 -11.71374,-6.221688 -2.11631,-0.835015 -7.58531,-2.242286 -9.30318,-2.706132 -6.33112,-1.709486 -14.43119,-1.775369 -19.5052,-1.374336 -4.97302,0.393051 -10.14014,1.801066 -12.59307,2.606113 0.58047,-4.0033 2.00403,-9.459458 2.56636,-12.497317 1.05946,-5.723359 2.12231,-11.471646 3.84571,-17.03125 1.79497,-5.790473 5.35354,-13.2038 9.0664,-17.996094 3.5306,-4.557009 10.35866,-10.01251 12.33789,-11.558593 z"
       sodipodi:nodetypes="cccccccccccccccccccccccccccccccssscssscc"
       inkscape:label="Shadow" /></g></svg>
