<?xml version="1.0" encoding="UTF-8" standalone="no"?>
<!-- Created with Inkscape (http://www.inkscape.org/) -->

<svg
   width="400"
   height="400"
   viewBox="0 0 400 400"
   version="1.1"
   id="svg1"
   xml:space="preserve"
   inkscape:version="1.3-beta (cedbd6c, 2023-05-28)"
   sodipodi:docname="shortSidePartNew.svg"
   xmlns:inkscape="http://www.inkscape.org/namespaces/inkscape"
   xmlns:sodipodi="http://sodipodi.sourceforge.net/DTD/sodipodi-0.dtd"
   xmlns="http://www.w3.org/2000/svg"
   xmlns:svg="http://www.w3.org/2000/svg"><sodipodi:namedview
     id="namedview1"
     pagecolor="#ffffff"
     bordercolor="#666666"
     borderopacity="1.0"
     inkscape:showpageshadow="2"
     inkscape:pageopacity="0.0"
     inkscape:pagecheckerboard="0"
     inkscape:deskcolor="#d1d1d1"
     inkscape:document-units="px"
     inkscape:zoom="2.1725"
     inkscape:cx="200"
     inkscape:cy="200"
     inkscape:window-width="1947"
     inkscape:window-height="1082"
     inkscape:window-x="2167"
     inkscape:window-y="213"
     inkscape:window-maximized="0"
     inkscape:current-layer="layer2" /><defs
     id="defs1" /><g
     inkscape:groupmode="layer"
     id="layer3"
     inkscape:label="Side Part Hair Back"><path
       style="fill:#383838;fill-opacity:1;stroke:none;stroke-width:1px;stroke-linecap:butt;stroke-linejoin:miter;stroke-opacity:1"
       d="m 345.33947,61.565017 2.41657,2.531646 1.8412,2.64672 2.87687,4.602992 1.8412,2.991945 2.41657,3.912543 0.80552,5.638665 0.34522,3.567319 0.24172,2.899009 -0.29995,3.227877 -0.68467,4.257768 -0.37315,3.356909 -1.23451,3.51387 -1.51811,2.18642 -2.21434,2.45028 -2.71413,3.22449 -1.45807,1.68844 -3.69516,4.07916 -1.57076,-0.0755 -2.54561,-23.904245 -0.80552,-15.650173 -0.34523,-7.710011 c 0,0 3.10702,-10.126582 3.79747,-10.126582 0.69045,0 2.87687,0.690448 2.87687,0.690448 z"
       id="path107"
       sodipodi:nodetypes="ccccccccccccccccccccccscc" /><path
       style="fill:#000000;stroke:none;stroke-width:1px;stroke-linecap:butt;stroke-linejoin:miter;stroke-opacity:1;fill-opacity:0.30000001"
       d="m 337.97468,67.318757 7.94017,6.904488 4.48791,5.638665 2.3015,6.674339 0.9206,8.055236 -0.4603,6.559265 -0.9206,2.99194 -3.33717,5.75374 -6.55926,6.78942 -3.2221,-24.395861 z"
       id="path108" /><path
       style="fill:#000000;fill-opacity:0.2;stroke:none;stroke-width:1px;stroke-linecap:butt;stroke-linejoin:miter;stroke-opacity:1"
       d="m 340.73648,73.532796 c 0,0 3.83435,2.456344 5.40851,4.602992 1.57416,2.146648 2.48213,4.80808 3.45225,8.170311 0.97012,3.362231 2.16677,8.514652 1.95627,11.967779 -0.2105,3.453122 -0.78691,5.026062 -2.41657,8.285382 -1.62966,3.25932 -6.96372,11.88881 -6.96372,11.88881 l -3.62316,-29.150026 0.34522,-12.197929 z"
       id="path110"
       sodipodi:nodetypes="czzzzcccc" /><path
       style="fill:#ffffff;fill-opacity:0.15;stroke:none;stroke-width:1px;stroke-linecap:butt;stroke-linejoin:miter;stroke-opacity:1"
       d="m 347.98619,66.973533 4.25777,6.098964 4.02762,4.257768 1.49597,6.098964 -0.11508,8.745685 -1.61104,9.321056 -1.95627,4.83314 -1.3809,1.61105 c 0,0 1.84383,-5.6097 2.41657,-8.745683 0.57274,-3.135988 0.9206,-9.551209 0.9206,-10.011508 0,-0.460299 -1.72612,-6.214039 -1.72612,-6.214039 l -2.64673,-3.797468 -2.30149,-5.75374 c 0,0 -1.85724,-1.825771 -2.7618,-3.10702 -0.90456,-1.281249 -1.84673,-3.459367 -2.53164,-4.602992 -0.68491,-1.143625 -1.49597,-2.301496 -1.49597,-2.301496 l 1.84119,-0.460299 2.41657,2.186421 z"
       id="path111"
       sodipodi:nodetypes="cccccccczsccczzcccc" /><path
       id="path101"
       style="color:#000000;fill:#000000;-inkscape-stroke:none"
       d="m 358.61325,87.037109 c 0.0174,-3.283359 -0.21844,-6.228816 -1.4043,-9.03125 -0.93554,-2.210901 -2.52404,-3.88327 -4.06445,-5.421875 -0.70777,-1.060252 -1.38022,-2.389401 -1.84835,-3.180056 -0.95072,-1.605758 -1.62283,-3.131851 -2.54423,-4.429319 -0.9214,-1.297467 -3.00976,-3.255859 -3.00976,-3.255859 l -0.11087,0.332484 c 0,0 1.05705,0.952161 1.92364,2.055168 0.86659,1.103006 3.06738,4.686746 3.06738,4.686746 l 1.89562,3.201388 c -0.4728,-0.460155 -1.3346,-1.343122 -2.07655,-2.285552 -1.95927,-2.488665 -2.63524,-4.690994 -5.61133,-7.408203 -1.55222,-1.417193 -4.55393,-3.263194 -7.21875,-4.814453 -2.66483,-1.551258 -4.9668,-2.773437 -4.9668,-2.773437 l 3e-5,0 -0.65625,1.236328 c 0,0 2.28017,1.210565 4.91797,2.746093 2.6378,1.53553 5.65766,3.430933 6.98047,4.638672 2.77396,2.53266 3.35203,4.568934 5.45508,7.240235 2.13443,2.711174 5.25459,4.848777 6.57812,7.976562 1.35847,3.21035 1.38209,6.722462 1.2461,11.097657 -0.13499,4.342878 -0.80055,10.756902 -2.53516,14.365232 -1.75549,3.65178 -4.9497,6.74003 -7.17118,8.82539 -2.0837,1.956 -4.95451,6.03105 -4.95451,6.03105 l 0.77734,1.16406 c 0,0 2.89313,-4.07001 5.13615,-6.17558 2.10522,-1.97621 5.54877,-5.23475 7.47392,-9.23945 1.94602,-4.04813 2.53602,-10.494113 2.67383,-14.927734 0.0122,-0.393981 0.0104,-0.756846 0.0195,-1.140625 m -14.87693,-19.71289 c 0,0 1.12198,0.824096 2.28321,1.695312 1.16122,0.871216 2.17129,2.09762 2.81054,2.916016 1.31562,1.684264 1.67533,3.656448 2.72852,5.796875 1.04751,2.128874 2.76614,4.663661 3.39844,6.625 0.63212,1.960777 1.14648,5.263672 1.14648,5.263672 0,0 0.20969,-3.337713 -0.48047,-5.478516 -0.68997,-2.140241 -2.42827,-4.66768 -3.4375,-6.71875 -1.00354,-2.039518 -1.36703,-4.079415 -2.80468,-5.919922 -0.73738,-0.94399 -2.08775,-2.036698 -3.26758,-2.921875 -1.17983,-0.885177 -2.37696,-1.257812 -2.37696,-1.257812 z m 0.6504,3.746093 c 0,0 0.99709,1.537151 2.43164,3.216797 1.43453,1.679647 3.05388,3.75641 3.76171,5.232422 1.44641,3.016075 1.83859,6.65101 2.2461,9.660156 0.40416,2.984447 0.5527,5.6911 0.32422,8.056641 -0.22431,2.32228 -1.11524,6.21875 -1.11524,6.21875 0,0 1.57217,-3.66411 1.8125,-6.152344 0.23616,-2.444975 0.0825,-5.1993 -0.32617,-8.216797 -0.40529,-2.992797 -0.79136,-6.701312 -2.31055,-9.86914 -0.77495,-1.61594 -2.40981,-3.68753 -3.85937,-5.384766 -1.44957,-1.697236 -2.96484,-2.761719 -2.96484,-2.761719 z m -6.48047,0.949219 -0.38477,0.701172 c 0,0 1.26008,0.694208 2.77734,1.726563 1.51728,1.032355 3.28552,2.412083 4.25586,3.697265 1.98426,2.62807 3.31833,6.77352 4.16016,10.427735 0.8311,3.607636 0.86314,8.3111 0.80469,11.130862 -0.0577,2.78114 -0.25196,5.70507 -0.25196,5.70508 0,0 0.99105,-2.808 1.05079,-5.68946 0.0589,-2.842849 0.0417,-7.576037 -0.82227,-11.32617 -0.85319,-3.703554 -2.18108,-7.92041 -4.30273,-10.730469 -1.08262,-1.433882 -2.89555,-2.820541 -4.44532,-3.875 -1.54976,-1.054458 -2.84179,-1.767578 -2.84179,-1.767578 z m 4.68945,7.146485 c 0,0 1.29101,4.056191 1.73047,6.330078 0.44256,2.289923 0.61692,5.362528 0.76758,8.130859 0.15207,2.794405 0.59938,5.503375 0.12695,8.345705 -0.23131,1.39163 -1.00926,3.58037 -1.72852,5.39453 -0.71926,1.81415 -1.37695,3.26562 -1.37695,3.26562 l 0.63672,0.28907 c 0,0 0.66454,-1.46548 1.39062,-3.29688 0.7261,-1.83139 1.51481,-4.01636 1.76758,-5.53711 0.49573,-2.98244 0.0321,-5.755039 -0.11719,-8.498044 -0.15069,-2.76908 -0.48334,-5.938477 -0.9414,-8.308594 -0.46116,-2.386154 -2.25586,-6.115234 -2.25586,-6.115234 z"
       sodipodi:nodetypes="cscsscczccssscccsssssssccsssccssscsssscccssscsssscccsssscssssccssssccsssscs" /></g><g
     inkscape:groupmode="layer"
     id="layer2"
     inkscape:label="Side Part Hair Front"><path
       id="path82"
       style="fill:#383838;fill-opacity:1;stroke:none;stroke-width:1px;stroke-linecap:butt;stroke-linejoin:miter;stroke-opacity:1"
       d="m 276.52539,21.173828 -14.73047,1.841797 -16.45508,3.451172 -10.47265,3.683594 -10.01172,6.558593 -14.1543,10.816407 -5.29297,5.179687 -2.64648,4.257813 -5.98438,6.789062 -4.48828,7.365235 -0.68945,7.939453 0.3457,7.134765 -0.6914,4.947266 -1.72657,7.365234 -0.68945,5.638674 2.18555,5.17773 1.49609,1.61133 0.11524,4.83398 0.57617,4.7168 2.53125,4.71875 1.61133,2.41602 c 0,0 2.9989,-2.08812 4.94726,-2.18555 1.94836,-0.0974 4.64422,1.04398 5.98438,1.95703 1.34016,0.91305 2.1875,2.64649 2.1875,2.64649 l 2.30078,4.60156 2.18554,4.94922 0.92188,4.71875 7.01953,-2.53321 2.41602,-8.16992 1.49609,-5.4082 3.56641,-5.0625 1.49609,-1.95703 -1.38086,-12.65821 5.63867,-4.83398 5.29492,-4.947265 -0.11523,-7.25 1.26562,-7.939453 c 0,0 0.41006,-1.029002 1.03584,-1.727559 0.62578,-0.698557 2.87632,-2.186222 2.87632,-2.186222 l -2.07231,4.718468 -0.22852,4.027344 1.26546,5.293965 c 0,0 1.16132,-2.861253 1.84084,-3.911752 0.67953,-1.050499 2.07144,-2.417369 2.07144,-2.417369 l 3.5664,-4.142578 11.62305,-8.861328 8.05469,-4.257813 4.60351,-2.070312 -4.60351,2.761718 -7.01953,5.523438 -6.87305,6.017578 -5.43945,6.640625 c 0,0 -3.6494,6.096593 -4.60188,9.666852 -0.95248,3.570263 -0.80633,6.442523 -0.80633,6.442523 l 7.36524,-12.886719 7.82422,-8.630859 8.51562,-5.294922 6.33008,-3.105469 -8.63086,5.982422 -7.01953,6.099609 -6.33008,8.515626 -5.52344,9.320312 -1.61101,4.25864 5.17937,-7.59458 8.40039,-9.437498 4.37305,-3.796874 -3.45312,4.833984 -3.79688,5.753906 -2.07195,6.559272 4.83367,-7.940131 6.78906,-8.056641 11.62305,-10.011719 14.61328,-9.435547 4.48828,-2.185546 -4.94726,4.832031 -6.9043,7.826172 -4.60352,6.904297 -4.14257,9.205078 -1.03516,3.222656 4.94726,-9.091797 10.70118,-11.966797 5.17968,-4.488281 5.0625,-2.761719 7.59571,-3.566406 -3.91211,4.027344 -5.17969,4.488281 -3.91211,3.105469 2.30078,-0.919922 7.25,-4.603516 8.05469,-4.027344 4.60351,-1.611328 -6.44335,5.523438 -9.4375,9.207031 -4.94727,5.177735 4.83398,-3.222657 4.25782,-3.451172 -2.99219,5.292969 -2.59898,5.923468 -1.19985,3.512079 3.79883,-7.019531 5.86914,-8.515625 1.72588,-1.955838 c 0,0 3.3789,-2.449479 5.52376,-3.567083 2.14487,-1.117604 3.91247,-2.416532 3.91247,-2.416532 l -1.71292,5.550481 -2.65693,6.264213 -3.60542,5.847055 -4.56965,5.238641 -6.44336,1.265625 -7.25,1.265625 4.37304,0.345703 5.17774,-0.115234 1.38086,-0.115234 -1.60938,2.072269 -7.71093,6.21289 -0.46094,0.3457 2.99219,-1.72656 5.4082,-3.56641 4.83398,-4.142577 3.22266,-1.152344 8.74414,-4.257812 6.90625,-5.177735 2.64649,-2.646484 -0.34571,3.796875 -1.49609,4.833985 -4.94727,7.134762 -5.06445,4.25782 -1.61133,1.26562 2.76172,-1.15039 3.45313,-1.95703 4.48828,-4.947267 4.02734,-6.791015 4.25781,-9.320313 1.38086,-5.753906 1.72656,-3.337891 1.15039,-4.832031 0.23047,-4.142578 2.18555,-0.806641 0.57617,-2.646484 -1.03711,-2.646485 -3.33593,-0.345703 -1.15039,0.806641 1.83984,-3.912109 1.72656,-4.833985 -1.26562,-5.177734 -3.22266,-1.841797 -3.45117,0.345703 -1.03711,0.919922 -1.60938,-2.070313 -3.56836,-1.957031 h -1.61132 l -4.7168,-5.0625 -6.21484,-2.876953 -3.79688,-0.806641 -6.21484,-3.912109 -13.57813,-5.523438 z m 53.85352,47.75586 1.26757,1.841796 1.1504,4.716797 0.34374,4.603516 -2.99023,3.337891 -4.14258,4.027343 -5.7539,4.257813 -5.17969,2.300781 5.17969,-7.134766 4.60156,-9.320312 2.64648,-7.595703 1.26758,-0.919922 z"
       sodipodi:nodetypes="ccccccccccccccccccccczzcccccccccccccczcccczccccccccczccccccccccccccccccccccccccccccccccccccccccccccccczccccccccccccccccccccccccccccccccccccccccccccccccccccccccccccccccccc" /><path
       id="path83"
       style="fill:#000000;fill-opacity:0.3;stroke:none;stroke-width:1px;stroke-linecap:butt;stroke-linejoin:miter;stroke-opacity:1"
       d="m 270.88672,23.130859 -7.82617,1.265625 -8.7461,2.53125 -8.40039,4.142578 -11.96679,7.365235 -11.96875,8.285156 9.4375,-5.753906 c 0,0 7.32862,-4.415802 11.62109,-6.673828 4.29247,-2.258029 9.49622,-4.940379 14.1543,-6.791016 4.65805,-1.850637 13.69531,-4.371094 13.69531,-4.371094 z m -41.47852,10.595703 -4.55273,2.982422 -14.1543,10.816407 -5.29297,5.179687 -2.64648,4.257813 -5.98438,6.789062 -4.48828,7.365235 -0.68945,7.939453 0.3457,7.134765 -0.6914,4.947266 -1.72657,7.365234 -0.68945,5.638674 2.18555,5.17773 1.49609,1.61133 0.11524,4.83398 0.57617,4.7168 2.53125,4.71875 1.61133,2.41602 c 0,0 2.9989,-2.08812 4.94726,-2.18555 0.77778,-0.0389 1.67247,0.1495 2.55469,0.41211 l 0.20703,-0.0664 1.24414,0.58594 c 0.39759,0.16993 0.75992,0.33645 1.09961,0.51953 l 1.79883,0.84961 2.41797,4.14258 1.13086,2.72461 0.0195,0.0371 2.18554,4.94922 0.92188,4.71875 1.36328,-0.49219 1.85742,-1.58008 2.87696,-5.7539 -2.64649,2.1875 -3.33594,3.33593 3.10547,-5.0625 4.0293,-5.17968 -4.37305,3.79882 -2.64648,3.45118 1.60937,-4.83204 6.33008,-7.36523 4.37305,-5.98438 -3.79688,2.87696 -4.71875,5.63867 -4.83398,4.83398 c 0,0 3.89703,-6.65185 6.09961,-9.55078 2.20258,-2.89888 7.01953,-7.82617 7.01953,-7.82617 l -3.91211,3.10742 c 0,0 -3.23712,3.2082 -5.17969,4.60352 -1.94257,1.39532 -6.44336,3.68164 -6.44336,3.68164 0,0 0.93647,-1.0001 2.99219,-2.99219 2.05572,-1.99209 9.43555,-8.86133 9.43555,-8.86133 l -2.64649,1.61133 -6.78906,4.94922 5.75391,-5.17969 6.21289,-6.32812 -3.91211,3.10742 -5.86914,5.4082 4.60351,-5.06445 7.82617,-10.24023 -6.79101,7.25 -4.7168,4.71679 -9.32226,8.97657 c 0,0 3.35381,-6.08802 6.90429,-10.24219 3.55053,-4.15422 14.96094,-13.92383 14.96094,-13.92383 0,0 -9.43946,6.43076 -13.69531,10.24219 -4.2559,3.81138 -11.73633,12.54297 -11.73633,12.54297 0,0 1.13438,-3.37933 2.64648,-6.56055 1.51215,-3.18122 2.72419,-6.88851 6.78907,-12.3125 4.06483,-5.42402 18.75781,-18.871095 18.75781,-18.871095 l -8.97656,6.904297 -13.34766,14.384768 -11.62305,15.30468 c 0,0 3.15277,-6.87488 5.17774,-10.47265 2.02497,-3.59777 3.62517,-6.25936 7.01953,-11.04688 3.39436,-4.787476 13.69531,-17.376949 13.69531,-17.376949 l -8.40234,7.480468 -10.58594,13.578121 -8.05469,10.9336 4.02735,-11.04883 8.40039,-12.082031 7.5957,-10.126953 -4.94922,4.257812 -4.60351,5.408203 c 0,0 -5.07985,7.466556 -7.13477,11.392579 -2.05492,3.92604 -5.17773,12.08398 -5.17773,12.08398 l 0.80468,-7.36523 3.10743,-8.746094 c 0,0 3.27167,-6.14623 5.4082,-9.666016 2.13653,-3.519786 7.48047,-11.392578 7.48047,-11.392578 l -8.86133,8.976562 -5.0625,7.824219 -4.02734,7.365237 1.38086,-5.869143 c 0,0 2.65026,-7.263544 5.17773,-11.738281 2.52747,-4.474742 10.35742,-14.728516 10.35742,-14.728516 l -2.87695,3.222656 -8.16992,9.089844 -7.01953,11.162109 c 0,0 6.66093,-13.118683 9.89648,-17.490234 3.23555,-4.371551 3.73784,-5.123991 8.63086,-9.091797 4.89297,-3.967806 21.51758,-13.234375 21.51758,-13.234375 l -8.63086,3.683594 -9.43555,4.947265 -8.51562,6.214844 -9.20508,9.896485 6.09765,-9.207032 9.0918,-8.628906 -10.47265,8.628906 -8.74415,9.896485 c 0,0 6.7592,-9.026758 10.93165,-13.578125 4.1724,-4.551372 14.15429,-13.578125 14.15429,-13.578125 l -11.73828,8.859375 -11.62305,12.542969 c 0,0 6.79616,-9.44229 10.70313,-13.69336 3.90692,-4.25107 12.6582,-11.736328 12.6582,-11.736328 l -12.6582,10.009766 -10.70313,11.392578 c 0,0 4.49502,-6.282952 8.40039,-10.931641 3.90542,-4.648689 15.30469,-16.685547 15.30469,-16.685547 z m 68.98047,0.910157 c 0,0 -16.55074,6.233989 -24.625,9.322265 -8.07426,3.088276 -16.04928,5.537585 -23.82031,9.205078 -7.77103,3.667497 -17.5587,9.525831 -22.66992,12.773438 -5.11126,3.247607 -8.40039,5.984375 -8.40039,5.984375 l 5.0625,-1.841797 22.55468,-11.851562 18.64258,-8.746094 9.43555,-3.337891 12.6582,-6.21289 z m 21.17383,1.496093 -4.48828,0.921876 -6.78906,2.992187 -10.47071,4.027344 -13.81054,5.177734 -21.0586,7.480469 9.89649,-2.646484 c 0,0 9.26163,-2.584663 13.69531,-4.142579 4.43364,-1.557912 8.77881,-3.650811 12.88672,-5.179687 4.10787,-1.52888 8.36872,-3.059607 11.73828,-4.027344 3.36956,-0.967737 6.13621,-1.828924 8.40039,-1.957031 2.26418,-0.128107 4.94922,0.576172 4.94922,0.576172 l -1.15234,-1.611328 z m 10.70312,11.738282 -6.67578,1.15039 -8.40039,1.841797 -13.92383,4.257813 -9.43554,3.451172 -2.30274,0.921875 h 7.25 c 0,0 1.14257,-0.6851 4.48828,-1.726563 3.34575,-1.041463 11.68167,-2.794539 15.76563,-3.796875 4.08396,-1.002336 8.74609,-2.1875 8.74609,-2.1875 z m 7.59376,0.115234 -8.97657,6.558594 -7.13281,3.222656 -3.56836,4.142578 -8.51562,8.285156 -3.10743,2.761719 c 0,0 6.60465,-4.272477 10.58789,-7.134765 3.98328,-2.862292 9.81921,-7.091667 13.23243,-10.126954 3.41318,-3.035283 7.48046,-7.708984 7.48047,-7.708984 z m 5.76757,2.177734 -1.99414,1.873047 -4.3125,3.132813 -9.43945,6.507812 -7.89258,5.453125 c 0,0 -5.73602,3.58074 -5.93945,3.66211 l -1.91211,1.423828 4.02734,-2.117188 4.4336,-1.423828 7.52734,-4.271484 11.88086,-6.306641 1.13867,-2.277344 z m -21.99218,7.71875 -6.9043,1.611329 -5.86914,0.919921 -11.16211,5.869141 -15.53516,9.205078 -8.97656,6.791016 -6.78906,6.443359 -2.1875,3.566406 -4.7168,7.134766 -2.30273,5.984372 3.79882,-5.753903 3.33594,-4.601563 3.91406,-4.488281 6.67383,-6.214844 8.51563,-7.019531 8.97461,-5.753906 12.19922,-5.984375 10.93164,-4.716797 z m -15.9961,2.761719 -8.28515,2.992188 -8.51563,3.335937 -12.19727,6.214844 -11.27734,5.984375 c 0,0 -5.27249,3.933025 -7.71094,6.789063 -2.43841,2.856034 -4.94858,7.293695 -6.55859,10.357421 -1.61001,3.063726 -3.33789,7.824221 -3.33789,7.824221 l 4.71875,-7.708986 1.83984,-2.763672 5.29493,-6.673828 2.07031,-2.300782 6.21484,-4.373046 9.32031,-5.0625 c 0,0 8.26962,-4.802782 13.00391,-7.25 4.73429,-2.447222 15.41992,-7.365235 15.41992,-7.365235 z m -11.85351,0.115235 -11.50586,3.68164 -15.07618,6.214844 -10.70117,6.212891 -6.90429,5.753906 -2.64649,4.488281 -1.38086,5.869141 c 0,0 1.45393,-3.070734 2.30078,-4.257813 0.84685,-1.187079 1.40325,-1.550302 2.64649,-2.876953 1.24324,-1.326651 3.12028,-3.525355 4.83398,-5.0625 1.7137,-1.537141 3.28503,-2.724347 5.40821,-4.142578 2.12314,-1.418231 4.6441,-2.774735 7.36523,-4.257813 2.72113,-1.483074 8.97461,-4.603515 8.97461,-4.603515 l 18.06641,-6.445313 z m 43.55664,2.5 c 0.005,-0.0063 -8.5e-4,-0.0037 -0.0215,0.0059 -8.6288,3.995048 -15.58203,8.707031 -15.58203,8.707031 l -7.93359,5.857422 -4.80078,3.988281 -1.62891,2.847657 3.05273,-1.626954 3.29493,-4.15039 6.79492,-4.800781 c 0,0 7.84512,-5.539121 10.94336,-7.283203 2.90458,-1.635078 5.80206,-3.450454 5.88086,-3.544922 z m 5.92578,0.261718 -5.4082,1.265625 -5.75391,2.416016 -2.87695,1.841797 1.95703,1.035156 1.15039,3.453125 6.09961,-3.337891 0.68945,-3.451171 3.68359,-0.921875 z m -15.53516,6.09961 -4.83203,3.335937 -0.80664,3.798828 3.56836,-2.1875 z m -87.3418,0.228515 -4.25781,0.230469 -4.37304,0.806641 -6.67383,3.566406 -5.63867,4.373047 -4.25782,4.71875 c 0,0 4.35552,-3.323834 7.36524,-5.294922 3.00968,-1.971088 6.84926,-4.2104 10.12695,-5.292969 3.27769,-1.082569 7.70898,-3.107422 7.70898,-3.107422 z" /><path
       id="path96"
       style="fill:#000000;fill-opacity:0.2;stroke:none;stroke-width:1px;stroke-linecap:butt;stroke-linejoin:miter;stroke-opacity:1"
       d="m 253.24609,24.808594 -7.90625,1.658203 -10.47265,3.683594 -10.01172,6.558593 -14.1543,10.816407 -5.29297,5.179687 -2.64648,4.257813 -5.98438,6.789062 -4.48828,7.365235 -0.68945,7.939453 0.3457,7.134765 -0.6914,4.947266 -1.72657,7.365234 -0.68945,5.638674 2.18555,5.17773 1.49609,1.61133 0.11524,4.83398 0.57617,4.7168 2.53125,4.71875 1.61133,2.41602 c 0,0 2.9989,-2.08812 4.94726,-2.18555 1.94836,-0.0974 4.64422,1.04398 5.98438,1.95703 1.34015,0.91305 2.1875,2.64649 2.1875,2.64649 l 2.30078,4.60156 2.18554,4.94922 0.92188,4.71875 7.01953,-2.53321 2.41602,-8.16992 1.49609,-5.4082 3.56641,-5.0625 1.49609,-1.95703 -1.38086,-12.65821 5.63867,-4.83398 5.29492,-4.947265 -0.11523,-7.25 1.26562,-7.939453 c 0,0 0.0871,-0.179952 0.125,-0.265625 l -0.01,-0.541016 2.99219,-3.107422 -5.29493,2.302735 c 0,0 -6.08368,2.310023 -11.50781,6.789062 -5.42413,4.479039 -11.96679,9.091797 -11.96679,9.091797 0,0 2.05374,-4.556671 4.37221,-7.825055 2.31846,-3.268384 5.52139,-8.07689 9.43638,-11.852679 3.91499,-3.775789 10.3567,-8.171716 10.3567,-8.171716 l -5.98365,0.115075 -4.37305,1.265625 -8.86133,5.179688 -6.32812,6.558593 c 0,0 0.0464,-0.833237 2.41601,-4.833984 2.36958,-4.000747 7.48047,-9.78125 7.48047,-9.78125 l 12.54297,-11.392578 -10.70117,5.86914 -10.12696,6.789063 c 0,0 1.26008,-8.418679 2.76153,-12.082191 1.50145,-3.663513 2.47115,-6.547951 4.83398,-9.78125 2.36283,-3.2333 5.63692,-7.019372 5.63692,-7.019372 l -15.18946,8.400391 7.71094,-6.443359 c 0,0 5.7813,-5.314444 11.9668,-8.976563 6.1855,-3.662119 18.3789,-9.023437 18.3789,-9.023437 z"
       sodipodi:nodetypes="ccccccccccccccccccccsscccccccccccccccccczczzccccczcccczzccczc" /><path
       id="path97"
       style="fill:#ffffff;fill-opacity:0.2;stroke:none;stroke-width:1px;stroke-linecap:butt;stroke-linejoin:miter;stroke-opacity:1"
       d="M 289.87305 21.404297 L 279.28711 21.519531 L 265.82227 22.09375 L 253.50977 24.28125 C 253.50977 24.28125 259.97321 24.084638 262.71484 23.820312 C 265.45648 23.555987 268.62172 23.054445 271.11719 23.015625 C 273.61266 22.976804 275.94717 23.310765 279.74609 23.820312 C 283.54502 24.32986 288.26792 25.290126 291.71484 26.121094 C 295.16177 26.952062 297.20674 27.654279 299.19531 28.654297 C 301.18388 29.654315 304.71875 31.759766 304.71875 31.759766 L 296.20312 35.673828 L 287.22656 40.046875 L 292.51953 38.435547 C 292.51953 38.435547 299.03513 36.141187 301.95703 35.328125 C 304.87893 34.515063 307.48616 33.665399 310.01172 33.486328 C 312.53728 33.307257 314.89874 33.516732 316.91602 34.0625 C 318.93329 34.608268 320.53575 35.512615 321.97852 36.478516 C 323.42128 37.444417 325.54688 39.701172 325.54688 39.701172 L 328.19336 39.355469 L 325.54688 36.708984 L 322.09375 33.716797 L 317.7207 31.53125 L 313.00391 30.609375 L 307.5957 27.158203 L 298.38867 22.785156 L 289.87305 21.404297 z M 326.58203 39.816406 L 320.59766 41.3125 L 309.32031 46.375 L 302.07227 50.287109 C 302.07227 50.287109 306.80415 48.57207 309.66602 47.410156 C 312.52788 46.248242 316.6948 44.130333 319.2168 43.267578 C 321.73879 42.404823 322.8724 41.836639 324.62695 41.886719 C 326.3815 41.936797 328.05701 42.730712 329.34375 43.382812 C 330.62226 44.030742 332.30654 45.54505 332.32812 45.564453 L 329.11328 49.251953 L 321.63477 54.429688 L 313.23438 57.537109 L 300.80469 59.033203 C 300.80469 59.033203 310.4135 59.223332 314.1543 58.572266 C 317.89509 57.921199 320.03636 56.859054 323.13086 55.695312 C 326.22536 54.531571 330.22677 52.897423 332.68164 51.552734 C 335.13651 50.208046 337.97461 47.986328 337.97461 47.986328 L 342.34766 44.533203 L 340.04688 42.347656 L 336.82422 42.232422 L 333.7832 44.259766 L 334.75195 43.382812 L 332.79688 41.197266 L 331.07031 39.931641 L 326.58203 39.816406 z " /><path
       style="fill:#ffffff;fill-opacity:0.2;stroke:none;stroke-width:1px;stroke-linecap:butt;stroke-linejoin:miter;stroke-opacity:1"
       d="m 323.82048,66.973533 7.36479,-4.142693 8.74569,-4.142693 3.22209,-1.265822 1.8412,0.920598 v 1.495972 c 0,0 -3.00588,-0.09296 -5.40852,0.575374 -2.40264,0.668329 -5.44555,2.285138 -8.63061,4.027618 -3.18506,1.74248 -6.80572,4.202809 -10.35673,6.559264 -3.55101,2.356455 -10.93211,7.594937 -10.93211,7.594937 l 7.24972,-6.789414 z"
       id="path100"
       sodipodi:nodetypes="cccccczzzccc" /><path
       id="path1"
       style="color:#000000;fill:#000000;-inkscape-stroke:none"
       d="m 265.64651,21.003967 c -9.64465,1.285945 -21.46302,4.506599 -27.81057,7.091736 -3.41971,1.167614 -7.3617,3.318368 -10.34654,5.300781 -4.89957,3.278313 -14.81319,10.825977 -19.22045,15.059651 -4.32976,4.159228 -4.19052,5.048451 -6.94393,8.59074 -2.70043,3.47414 -7.22455,7.943038 -9.21369,13.572266 -2.0102,5.688812 -0.32147,12.84481 -0.95899,17.652343 -0.65248,4.920393 -2.74424,9.295873 -2.76953,12.988286 -0.024,3.49496 0.81114,5.53421 1.43164,7.1914 0.35119,0.93793 0.78844,1.39609 1.0586,1.69531 0.27016,0.29923 0.45633,0.50052 0.76953,1.48829 0.26166,0.82517 0.29483,2.55926 0.32226,4.37695 0.0274,1.81768 0.0648,3.74626 0.60547,5.30859 0.94196,2.72207 4.81704,6.82744 5.14258,6.71094 0,0 -2.75346,-4.69895 -3.63086,-7.23437 -0.40614,-1.17364 -0.49043,-3.01215 -0.51758,-4.81055 -0.0271,-1.7984 0.0179,-3.52895 -0.39648,-4.83594 -0.36288,-1.14446 -0.78311,-1.71697 -1.10742,-2.07617 -0.32432,-0.35921 -0.47085,-0.44327 -0.74805,-1.1836 -0.63628,-1.69927 -1.35232,-3.37359 -1.33008,-6.61914 0.0209,-3.048114 2.06326,-7.566137 2.75586,-12.789058 0.70757,-5.335781 -0.88448,-12.334207 0.88086,-17.330078 1.7864,-5.055462 6.66766,-9.421343 9.54492,-13.123047 2.82435,-3.63355 2.56576,-4.108506 6.82617,-8.201172 4.18298,-4.01822 14.87154,-11.881843 19.6836,-15.101563 2.63057,-2.20516 5.44726,-3.694166 8.60351,-4.986328 6.00864,-2.447085 19.2833,-5.392854 28.80274,-6.662109 9.52806,-1.270405 20.11445,-1.674806 27.8164,-0.142578 0.18045,0.0359 0.38401,0.105345 0.56836,0.146484 -1.69334,-0.04066 -3.68029,-0.06413 -5.22656,-0.0078 -3.17342,0.115571 -6.84322,0.611173 -10.39844,1.269531 -3.58617,0.664095 -10.34179,3.320313 -10.34179,3.320312 0,0 7.04645,-1.897793 10.48828,-2.535156 3.47278,-0.643097 7.11056,-1.198939 10.29687,-1.255859 2.39913,-0.04286 6.49587,0.118434 8.72071,0.216797 5.7575,1.925703 10.43156,4.590192 12.46305,5.686554 -0.593,0.02329 -0.52184,0.05688 -1.27284,0.150577 -1.19215,0.148738 -2.49236,0.54084 -4.17036,1.076564 -3.35852,1.072253 -6.64478,2.758031 -11.68782,5.010134 -5.11615,2.284734 -13.80693,6.891433 -18.45899,8.863281 -4.69559,1.990312 -5.29192,1.846767 -9.66406,3.572266 -4.33498,1.710831 -10.23672,4.018614 -16.31641,6.853515 -6.11127,2.849647 -19.91601,10.611329 -19.91601,10.611328 0,0 -5.00819,3.145063 -7.21094,4.294922 -2.21885,1.158272 -6,2.94336 -6,2.94336 0,0 4.49705,-1.113545 6.85742,-2.345703 2.36828,-1.236273 4.22725,-2.47822 7.02735,-3.921875 2.80007,-1.443658 13.88839,-7.431158 19.875,-10.222657 6.02521,-2.809511 11.89351,-5.104026 16.23242,-6.816406 4.30172,-1.697715 4.93999,-1.569778 9.70117,-3.587891 4.80477,-2.036573 13.47773,-6.639166 18.48438,-8.875 5.07968,-2.268461 8.51133,-4.032248 11.67773,-4.839843 3.28404,-0.8376 4.61052,-1.142537 7.28711,-0.796875 2.57148,0.332084 6.13379,1.562668 8.25586,2.828125 1.71146,1.020599 4.30689,3.631106 5.23702,4.51705 -0.7979,0.07256 -1.50779,0.191685 -2.4421,0.385293 -0.35989,-0.593271 -1.98494,-2.984004 -5.37109,-3.419921 -0.24837,-0.03197 -0.50265,-0.04709 -0.76368,-0.04687 -1.82714,0.0015 -3.95884,0.754053 -6.30664,1.732422 -2.68316,1.118132 -5.64441,2.554105 -8.65625,3.623046 -6.08908,2.16111 -14.20759,5.280547 -20.91601,7.732422 -6.69993,2.448772 -14.16303,4.765244 -19.38672,7.00586 -5.22215,2.23995 -11.72266,6.30664 -11.72266,6.30664 0,0 6.88425,-3.36121 12.03907,-5.572265 5.15323,-2.210396 12.61882,-4.529659 19.3457,-6.988282 6.71838,-2.455514 14.83652,-5.575541 20.9082,-7.730468 3.06858,-1.089079 6.04599,-2.533836 8.69727,-3.638672 2.65128,-1.104837 4.98201,-1.846896 6.66015,-1.63086 2.74255,0.353061 4.16162,2.072898 4.65625,2.808594 -0.82417,0.194235 -1.70315,0.464533 -2.63281,0.794922 -1.64427,0.22974 -11.3766,1.603992 -15.83789,2.941406 -4.81488,1.443422 -10.35333,3.858275 -14.375,5.714844 -4.03315,1.861883 -6.98945,3.806773 -9.87109,5.382813 -2.91985,1.596917 -5.3985,3.23715 -7.5293,4.132812 -2.12809,0.894524 -5.2168,1.996094 -5.2168,1.996094 0,0 3.19501,-0.476784 5.44336,-1.421875 2.24568,-0.943952 4.80344,-2.426543 7.6875,-4.003907 2.92227,-1.598238 5.84472,-3.524076 9.82032,-5.359374 3.98707,-1.840614 9.50697,-4.248053 14.26953,-5.675782 3.84148,-1.151612 9.52397,-1.926251 11.92773,-2.238281 -0.80993,0.349333 -1.65507,0.725949 -2.51172,1.111328 l -0.002,-0.0059 c 0,0 -6.89419,1.445307 -10.38672,2.783203 -3.49636,1.339362 -9.96484,5.451172 -9.96484,5.451172 0,0 6.85835,-3.51305 10.21484,-4.798828 1.95582,-0.749223 4.73555,-1.458795 7.03711,-2.003907 -3.45499,1.624279 -7.50623,3.662595 -10.46484,5.525391 -0.92208,0.580553 -1.88571,1.314526 -2.81446,2.089844 -0.54714,0.14111 -3.78088,0.980125 -7.68945,2.205078 -4.25444,1.333348 -11.788,3.99584 -17.9668,6.21875 -6.17377,2.221108 -13.12172,4.628828 -19.12304,7.142578 -6.01134,2.517941 -16.64453,8.193359 -16.64454,8.193359 0,0 10.99885,-4.960213 16.95508,-7.455078 5.96626,-2.499055 12.90168,-4.905433 19.08203,-7.128906 6.17536,-2.221672 13.71409,-4.884019 17.93555,-6.207031 3.18932,-0.999537 5.08985,-1.480107 6.05469,-1.714844 -2.14885,1.949153 -3.87695,3.792969 -3.87695,3.792969 0,0 5.14424,-3.984745 8.67382,-6.207032 3.56726,-2.245996 8.95267,-4.858293 12.70704,-6.554687 3.76396,-1.70074 7.12047,-3.162606 9.65429,-3.707031 2.61465,-0.561793 4.33015,-0.791331 5.95703,-0.183594 0.7194,0.268739 1.66326,0.686691 2.3711,1.451172 0.39076,0.422027 0.6873,0.755582 1.13281,1.25 -0.51371,0.43514 -1.00806,0.929612 -1.49023,1.447266 -0.91032,0.977283 -1.80658,2.031972 -2.71485,2.957031 -0.92131,0.163145 -13.67092,2.429937 -19.41992,4.021484 -5.96101,1.65024 -17.11523,6.501953 -17.11523,6.501953 0,0 11.54783,-3.923718 17.38281,-5.539062 5.61446,-1.554303 16.85658,-3.52969 17.71484,-3.679688 -0.046,0.03488 -0.0906,0.07585 -0.13672,0.109375 -3.2063,2.32962 -4.98436,4.486264 -9.95703,6.435547 -4.899,1.920414 -14.49461,3.044884 -20.17578,3.541016 -5.61635,0.490469 -13.61719,0.597656 -13.61719,0.597656 0,0 7.94062,1.102643 13.72266,0.597656 5.7172,-0.499277 15.27223,-1.566022 20.50976,-3.61914 5.16391,-2.024249 7.13399,-4.3379 10.22266,-6.582032 1.67876,-1.219737 3.08385,-3.045042 4.46094,-4.523437 0.48363,-0.519213 0.95792,-0.982294 1.42578,-1.369141 0.007,0.0078 0.10742,0.117188 0.10742,0.117188 0,0 -0.0316,-0.101139 -0.0508,-0.166016 0.84457,-0.687391 1.66821,-1.111079 2.48828,-1.105469 2.95887,0.02024 4.83159,1.690298 5.4375,4.56836 0.27958,1.327996 -0.1565,3.216994 -0.70898,4.736328 -0.55249,1.519332 -1.63282,4.904297 -1.63282,4.904297 0,0 2.17503,-2.88073 2.76172,-4.494141 0.5867,-1.613409 1.35739,-3.80113 0.98601,-5.56519 -0.69601,-3.306054 -3.16737,-5.497964 -6.60547,-5.521484 -1.0869,-0.0074 -1.98766,0.503414 -2.878,1.172771 -0.2012,-0.455278 -0.45517,-0.927358 -0.75391,-1.25 -0.7574,-0.818006 -1.72648,-1.741499 -2.79492,-2.140625 -0.9744,-0.363996 -1.69585,-0.355855 -2.76452,-0.300941 -0.0822,0.0042 -0.54263,-0.01339 -0.62595,-0.0073 -0.61852,-0.918624 -2.24933,-4.238162 -4.43505,-5.80777 -2.15565,-1.547995 -6.56156,-3.021486 -8.25666,-3.240394 -1.6951,-0.218908 -2.15853,-0.230838 -2.53918,-0.254418 -1.96333,-1.411799 -10.5477,-7.402458 -17.74638,-8.834563 -4.01325,-0.7984 -8.36311,-1.088194 -13.24022,-1.017561 -4.87711,0.07063 -11.25808,0.502143 -16.07612,1.144546 z m 5.46872,2.009705 c 0,0 -4.77453,0.177385 -7.71289,0.896484 -2.8793,0.704659 -5.58254,1.285887 -9.74023,3.015625 -4.16943,1.734622 -9.69913,4.758031 -14.79688,7.859375 -5.10655,3.106724 -10.1079,6.712229 -15.6875,10.84375 -5.60491,4.150289 -17.42382,14.441407 -17.42382,14.441406 0,0 12.47148,-9.53051 18.01953,-13.638671 5.57336,-4.126929 10.55046,-7.71211 15.61133,-10.791016 5.06967,-3.084286 10.58421,-6.094469 14.66211,-7.791016 4.08961,-1.701424 6.6975,-2.259944 9.59374,-2.96875 2.83727,-0.694359 7.47461,-1.867187 7.47461,-1.867187 z m 25.23633,1.802734 c 0,0 -8.51633,1.609144 -12.71875,2.921875 -4.17857,1.305297 -9.1382,2.897716 -11.84961,4.251953 -2.69447,1.345796 -4.80859,3.648438 -4.80859,3.648438 0,0 2.49847,-1.711579 5.12109,-3.021484 2.60574,-1.301463 7.58655,-2.911595 11.7461,-4.210938 4.1357,-1.291905 12.50976,-3.589844 12.50976,-3.589844 z m -30.64258,3.376953 c 0,0 -7.35682,1.42229 -11.04492,2.660157 -3.65912,1.22815 -7.45376,2.64694 -10.97656,4.390625 -3.55024,1.757265 -9.85547,6.296875 -9.85547,6.296875 0,0 6.71446,-3.961505 10.16602,-5.669922 3.47896,-1.722004 7.24539,-3.130692 10.88867,-4.353516 3.61434,-1.213111 10.82226,-3.324219 10.82226,-3.324219 z m 38.94141,1.667969 c 0,0 -23.52469,5.172313 -31.27734,7.806641 -7.71605,2.621876 -8.21238,3.821643 -15.22657,6.43164 -7.00569,2.606851 -27.05664,9.115235 -27.05664,9.115235 0,0 20.22281,-5.825237 27.30078,-8.458985 7.06955,-2.630595 7.54406,-3.819984 15.20704,-6.423828 7.62631,-2.591392 31.05273,-8.470703 31.05273,-8.470703 z m 10.74023,3.011719 c 0,0 -4.55809,0.716042 -7.57031,1.798828 -3.00812,1.081317 -6.71144,2.985045 -10.27343,4.648437 -3.58297,1.673188 -8.27913,4.293857 -11.13086,5.361329 -2.86457,1.072271 -5.85157,1.861328 -5.85157,1.861328 0,0 3.10636,-0.299188 6.02735,-1.392578 2.9338,-1.09819 7.61312,-3.719761 11.16601,-5.378907 3.57388,-1.668937 7.27731,-3.566645 10.23242,-4.628906 2.95104,-1.060792 7.40039,-2.269531 7.40039,-2.269531 z m -39.78906,1.464844 c 0,0 -10.10811,2.185993 -14.45312,3.691406 -4.33725,1.502709 -11.3418,5.095703 -11.3418,5.095703 0,0 7.34419,-2.864129 11.60352,-4.339844 4.2515,-1.473011 14.1914,-4.447264 14.1914,-4.447265 z m 43.04492,0 c 0,0 -5.98908,0.72144 -8.69921,1.417968 -2.69275,0.692064 -5.31227,1.472875 -8.00391,2.451172 -2.70942,0.984761 -7.87109,3.535157 -7.87109,3.535157 0,0 5.4108,-2.003906 8.07617,-2.972657 2.68315,-0.975215 5.44737,-1.911541 8.10937,-2.595703 2.64464,-0.679696 8.38867,-1.835937 8.38867,-1.835937 z m -85.61914,2.371093 c 0,0 -9.04071,4.797543 -12.4414,7.392578 -3.36986,2.571481 -5.80298,4.855849 -8.19727,7.041016 -2.41651,2.205442 -6.06054,6.509766 -6.06055,6.509766 0,0 4.18291,-3.712324 6.59961,-5.917969 2.43895,-2.225921 4.83935,-4.477384 8.14258,-6.998047 3.27239,-2.497102 11.95703,-8.027344 11.95703,-8.027344 z m 15.76368,0.804688 c 0,0 -3.97336,0.458482 -7.50196,1.980469 -3.51766,1.517283 -7.94531,4.095462 -13.16797,7.390625 -5.22685,3.297829 -13.41563,8.834128 -17.99023,12.685546 -4.57862,3.854776 -9.44141,9.935547 -9.44141,9.935547 0,0 5.38426,-5.602821 9.89258,-9.398437 4.51234,-3.79897 12.70741,-9.345772 17.91406,-12.63086 5.21092,-3.287753 9.6216,-5.852314 13.07032,-7.339843 3.43779,-1.482833 7.22461,-2.623047 7.22461,-2.623047 z m 75.48242,4.25 c -0.19941,0.0046 -0.4058,0.0167 -0.61719,0.03711 -3.4407,0.332212 -8.52093,3.324483 -13.30469,5.732422 -4.83773,2.435129 -15.30469,9.263672 -15.30468,9.263672 0,0 10.86239,-6.244323 15.61914,-8.638672 4.81072,-2.421532 9.9661,-5.361565 13.05859,-5.660156 3.15093,-0.304234 5.17187,0.791016 5.17187,0.791015 0,0 -1.63194,-1.59509 -4.62304,-1.525391 z m -75.71289,0.353516 c 0,0 -21.30915,10.068727 -28.8125,15.001953 -7.45142,4.899045 -12.1754,9.372681 -16.38867,12.923828 -4.24913,3.581325 -8.88282,10.509765 -8.88282,10.509765 0,0 5.31529,-6.194059 9.52735,-9.74414 4.24782,-3.58027 8.91292,-8.001389 16.29297,-12.853516 7.32802,-4.817946 28.26367,-15.837891 28.26367,-15.83789 z m 25.73828,0.27539 c 0,0 -12.28157,3.109454 -17.74414,5.064453 -5.43734,1.945964 -9.97785,3.835897 -15.00391,6.033203 -5.04901,2.20735 -14.85351,8.025391 -14.85351,8.025391 0,0 10.26044,-4.926309 15.2539,-7.109375 5.01645,-2.193107 9.52931,-4.071573 14.93945,-6.007812 5.38493,-1.927204 17.40821,-6.00586 17.40821,-6.00586 z m 21.48047,1.466797 c 0,0 -10.47116,2.450499 -15.56446,4.058594 -5.07594,1.602623 -10.24602,3.289344 -14.99804,5.21875 -4.76778,1.935789 -13.45117,6.274417 -13.29492,6.58789 0,0 8.77261,-4.111608 13.47656,-6.021484 4.71964,-1.916258 9.95562,-3.515897 15.02734,-5.117187 5.05443,-1.595824 15.35352,-4.726563 15.35352,-4.726563 z m 33.92187,0.798828 c -1.25907,0.01076 -3.29325,0.09691 -5.18555,0.484375 -3.01666,0.617694 -7.46368,1.865999 -11.51757,3.267578 -4.0797,1.410498 -12.58008,5.539063 -12.58008,5.539063 0,0 8.80878,-3.494072 12.80859,-4.876953 4.02562,-1.391801 8.46228,-2.63654 11.42969,-3.244141 2.95642,-0.605351 6.27734,-1.15625 6.27734,-1.15625 0,0 -0.47698,-0.02013 -1.23242,-0.01367 z m 7.82227,3.675781 c 0,0 -8.79824,6.46834 -14.30078,8.576172 -5.55733,2.128811 -12.66771,3.029018 -19.25586,3.556641 -6.51721,0.521937 -19.98438,-0.0918 -19.98438,-0.0918 0,0 1.68249,0.161268 3.84766,0.347656 -0.48396,0.15615 -10.92453,3.527502 -16.83203,5.837891 -6.011,2.35086 -14.01089,4.979473 -18.29493,7.845703 -2.76633,1.850816 -4.58487,3.33363 -5.89648,4.888672 -1.68926,0.311145 -4.94812,1.092801 -8.20898,3.023437 -4.63247,2.742692 -11.81446,8.770903 -17.03321,13.751953 -5.23104,4.992871 -10.36283,11.160921 -14.21484,16.009771 -3.87935,4.88321 -8.64453,13.22851 -8.64453,13.22851 0,0 5.77403,-7.68644 9.58398,-12.48242 3.83734,-4.83033 8.94617,-10.96424 14.10352,-15.88672 5.16965,-4.93424 12.38269,-10.962847 16.8164,-13.587891 3.16056,-1.871228 5.69085,-2.967904 7.22852,-3.599609 -0.51859,0.671649 -0.95992,1.362631 -1.33789,2.111328 -0.6997,1.385982 -0.93875,3.168049 -1.01953,4.615235 -0.0808,1.447185 0.35742,2.541015 0.35742,2.541015 0,0 0.2638,-1.102564 0.3418,-2.501953 0.0781,-1.399388 0.3277,-3.114528 0.94531,-4.33789 0.55255,-1.094497 1.23495,-2.061324 2.14844,-3.029297 0.006,-0.0022 0.14257,-0.05859 0.14257,-0.05859 0,0 -0.0909,0.01273 -0.0996,0.01367 1.20662,-1.268095 2.82372,-2.542239 5.17773,-4.117188 4.11118,-2.750578 12.11696,-5.4127 18.1582,-7.77539 6.00566,-2.348773 18.34766,-6.341797 18.34766,-6.341797 l -0.13477,-0.01758 c 0.8137,0.06454 1.45229,0.120015 2.36328,0.18164 -1.78499,0.555487 -11.37355,3.563222 -16.44335,5.691406 -5.54002,2.325566 -10.90951,4.648998 -15.51758,7.679688 -4.58199,3.013523 -9.6645,6.6541 -11.98047,10.189453 -2.32585,3.550431 -2.3125,8.818359 -2.3125,8.818359 0,0 0.73155,-5.125828 2.89844,-8.433593 2.17675,-3.322843 7.21666,-6.989428 11.77929,-9.990235 4.53655,-2.983639 9.86703,-5.295547 15.40235,-7.61914 5.37775,-2.257457 17.73909,-6.065509 18.27539,-6.230469 3.59161,0.204066 7.38396,0.34069 10.10156,0.123047 5.47603,-0.438557 11.34866,-1.128432 16.46094,-2.605469 -1.10179,1.16831 -5.25629,5.562431 -8.72266,9.060547 -1.02504,0.444052 -3.81826,1.668356 -5.71094,2.644531 -1.25226,0.645875 -3.47831,1.95196 -5.31836,3.050781 2.47191,-2.090565 4.93397,-4.034322 6.90235,-5.384765 3.44559,-2.363929 7.91015,-4.886719 7.91015,-4.886719 0,0 -4.82976,1.804277 -8.36328,4.228516 -3.52116,2.41577 -8.5127,6.579706 -12.41601,10.291015 -3.90056,3.70867 -8.30458,8.370413 -10.94922,11.931641 -2.65569,3.576103 -4.88867,9.025391 -4.88867,9.025391 0,0 2.95029,-5.075961 5.52929,-8.548829 2.59007,-3.487741 6.98372,-8.143131 10.85938,-11.828124 1.20965,-1.150142 2.5343,-2.335704 3.88086,-3.509766 1.4961,-0.818098 5.22712,-2.855058 7.1289,-3.835938 1.62257,-0.836862 3.33498,-1.668849 4.44727,-2.205078 -0.77154,0.76756 -1.57161,1.569188 -2.17383,2.134766 -3.84073,3.60709 -9.49023,8.589844 -9.49023,8.589844 0,0 6.14981,-4.357011 10.03711,-8.007813 3.59161,-3.373121 11.45927,-11.816819 12.72461,-13.177734 0.55288,-0.18126 1.09927,-0.369381 1.6289,-0.572266 5.77425,-2.211905 14.01563,-9.324219 14.01563,-9.324219 z m 3.78711,0.917969 c 0,0 -9.55327,7.678796 -14.81641,11.453125 -5.2606,3.77252 -17.63281,12.021484 -17.63281,12.021484 0,0 12.71393,-7.634327 18.03906,-11.453124 5.32263,-3.816989 14.41016,-12.021485 14.41016,-12.021485 z m 0.46093,2.761719 c 0,0 -7.89426,5.342894 -14.87695,10.019531 -3.24765,2.175097 -6.37295,4.256283 -8.55859,5.683594 -6.88852,4.498472 -18.22071,11.683594 -18.22071,11.683594 0,0 11.68997,-6.582824 18.60352,-11.097657 2.12768,-1.389456 5.55549,-3.557862 8.64453,-5.736328 6.95348,-4.903772 14.4082,-10.552734 14.4082,-10.552734 z m -106.61132,2.015625 c 0,0 -9.19688,3.04026 -13.3125,5.335937 -4.05802,2.263519 -7.81119,4.642424 -11.30469,7.375 -3.47668,2.719419 -6.7821,5.555291 -9.69336,9.03711 -2.96815,3.549849 -6.69922,11.939453 -6.69922,11.939453 0,0 5.03407,-7.88434 7.78125,-11.169922 2.80407,-3.353619 6.03143,-5.976972 9.51172,-8.699219 3.46347,-2.709081 7.00284,-5.211392 10.99023,-7.435547 3.92978,-2.191985 12.72657,-6.382812 12.72657,-6.382812 z m 9.76367,0.164062 c 0,0 -9.93815,3.975028 -15.25,6.97461 -5.31857,3.003361 -16.24024,11.005859 -16.24024,11.005859 0,0 11.40821,-7.359144 16.63477,-10.310547 5.23323,-2.955182 14.85547,-7.669922 14.85547,-7.669922 z M 342.5,56.982425 c -0.63519,0.132377 -1.33072,0.394192 -2.10352,0.714844 -1.54556,0.641301 -3.40907,1.596358 -5.57226,2.625 -4.37587,2.080814 -10.96328,5.673781 -16.70117,9.990234 -5.80021,4.363316 -16.72657,16.429688 -16.72657,16.429688 0,0 11.86911,-11.27441 17.44727,-15.470704 5.64046,-4.243154 12.18253,-7.814037 16.49609,-9.865234 2.18154,-1.037364 4.04749,-1.989634 5.51758,-2.599609 1.47009,-0.609977 2.53847,-0.795022 2.96485,-0.634766 0.55334,0.207979 0.7288,0.536595 0.84179,1.035156 0.11299,0.498564 0.0768,1.119812 0.0703,1.650391 -0.007,0.58359 0.0645,0.837694 0.0449,0.919922 -0.0195,0.08223 -0.15036,0.324983 -0.81836,0.917968 -0.4945,0.438964 -1.61647,0.719727 -3.07813,0.992188 -1.46166,0.272461 -3.24111,0.579859 -5.05664,1.34375 -1.81556,0.763905 -4.85298,2.472055 -7.47656,4.001953 -2.62358,1.529901 -7.83398,5.917969 -7.83399,5.917969 0,0 1.25711,-0.820699 2.22461,-1.453125 -0.19746,0.802896 -1.70053,6.744753 -4.17578,11.259765 -2.68151,4.891325 -4.66036,7.190383 -7.08984,9.947266 -0.27155,0.308144 -0.5532,0.612086 -0.83203,0.917969 -5.34613,1.621184 -14.09375,2.765625 -14.09375,2.765625 0,0 10.57913,-0.533288 15.83594,-2.501953 5.17821,-1.939231 10.45494,-5.026437 14.6914,-8.701172 4.2401,-3.677871 8.45195,-8.937801 10.37891,-12.900391 1.81736,-3.737175 2.13276,-8.502666 2.16797,-9.128906 0.50844,-0.105315 1.00728,-0.200859 1.48047,-0.289062 0.53837,-0.100356 1.04042,-0.199918 1.51953,-0.314454 -0.15566,1.216004 -0.85309,6.28734 -2.0918,9.06836 -1.4338,3.219016 -3.65347,6.19014 -6.60937,9.33789 -2.94048,3.131322 -7.32111,6.579722 -11.20899,9.035157 -3.9067,2.467317 -6.27612,4.096607 -11.86523,5.708984 -2.04569,0.590149 -5.22496,0.977418 -7.95899,0.960937 -2.73403,-0.01648 -5.07422,-0.160156 -5.07422,-0.160156 0,0 2.19618,0.499007 4.95313,0.515625 1.52112,0.0092 3.203,-0.0059 4.77734,-0.11914 -1.18894,1.202256 -2.3526,2.321686 -3.4043,3.253906 -2.20296,1.9527 -5.63671,4.86523 -5.63671,4.86523 0,0 3.846,-2.34247 6.10156,-4.3418 1.23615,-1.0957 2.61415,-2.43896 4.00976,-3.874993 0.54145,-0.0592 1.06584,-0.128566 1.54883,-0.222656 -4.09074,3.609679 -12.0039,8.898439 -12.0039,8.898439 0,0 9.50236,-5.47386 13.35937,-9.181642 0.0306,-0.02938 0.0597,-0.05844 0.0899,-0.08789 4.79344,-1.378495 7.94652,-3.017587 11.70703,-5.392578 3.11419,-1.966812 6.51084,-4.473786 9.28515,-7.017578 -0.0305,0.243039 -0.0606,0.486778 -0.0976,0.728516 -0.38525,2.512433 -1.00934,4.702803 -2.41211,7.349609 -1.39529,2.632692 -4.00703,6.132013 -5.94922,8.039063 -1.91725,1.88252 -5.08985,4.10937 -5.08985,4.10937 0,0 3.59196,-1.51784 5.65039,-3.53906 2.03353,-1.99673 4.6436,-5.49814 6.09376,-8.234373 1.44266,-2.722118 2.10355,-5.030795 2.49804,-7.603515 0.0854,-0.557036 0.14791,-1.117546 0.19922,-1.679688 0.33931,-0.329045 0.65794,-0.656967 0.9707,-0.984375 -0.20038,0.917808 -0.46321,2.075243 -0.68164,2.851563 -0.39846,1.416197 -1.22461,4.460937 -1.22461,4.460937 0,0 1.24104,-2.879184 1.70703,-4.326172 0.38331,-1.19019 0.72555,-2.889128 0.88477,-3.730469 1.44417,-1.605155 2.65858,-3.256873 3.6875,-4.921875 -0.41372,1.375846 -1.00915,3.243714 -1.68555,4.9375 -1.21834,3.050919 -3.34986,7.802126 -5.33984,11.003907 -2.00798,3.230743 -4.26776,6.44791 -6.42773,8.28711 -2.13103,1.81449 -5.84375,3.64062 -5.84375,3.64062 0,0 3.95184,-1.21158 6.27929,-3.19336 2.29848,-1.9571 4.64818,-5.056457 6.67188,-8.312495 2.0417,-3.285005 4.17117,-8.045869 5.40234,-11.128907 1.21456,-3.041447 2.45306,-7.826684 2.50586,-8.03125 0.2707,-0.53948 0.53215,-1.077892 0.77149,-1.615234 1.42946,-3.209323 2.11627,-8.951799 2.18554,-9.552734 0.53099,-0.178205 1.00588,-0.411509 1.40039,-0.761719 0.71927,-0.638494 1.0687,-1.037356 1.1875,-1.537109 0.11881,-0.499754 -0.0146,-0.767924 -0.01,-1.181641 0.006,-0.466733 0.066,-1.19251 -0.10157,-1.931641 -0.16751,-0.739128 -0.64921,-1.539035 -1.58984,-1.892578 -0.2669,-0.100316 -0.54407,-0.150133 -0.83389,-0.15822 -0.28982,-0.0081 -0.59248,0.02562 -0.91007,0.09181 z m -72.43359,2.173825 c 0,0 -6.44629,1.158168 -9.88086,2.220703 -3.40185,1.052407 -7.14615,2.148064 -10.77149,3.591797 -3.67137,1.462067 -6.8482,3.878651 -9.54883,4.539062 -1.37477,0.336191 -2.24268,0.292749 -3.21484,0.275391 -0.97216,-0.01736 -2.03902,-0.0032 -3.63672,0.462891 -3.26278,0.951862 -9.03277,4.662611 -12.09179,6.980468 -3.1001,2.348992 -6.10547,6.748047 -6.10547,6.748047 0,0 3.63413,-3.869799 6.58984,-6.109375 2.99679,-2.270707 8.87511,-5.988932 11.83203,-6.851562 1.51216,-0.441147 2.44125,-0.446779 3.39844,-0.429688 0.95718,0.01709 1.94983,0.06019 3.41797,-0.298828 2.98521,-0.730007 6.12378,-3.167471 9.65625,-4.574218 3.5785,-1.425084 7.30054,-2.513307 10.71094,-3.56836 3.37766,-1.044927 9.64453,-2.986328 9.64453,-2.986328 z m 47.4414,1.056641 c 0,0 -12.86833,4.74368 -18.61914,7.693359 -5.69948,2.92336 -10.45112,5.410843 -15.85156,9.316406 -5.41495,3.916043 -12.08985,10.126972 -16.17188,14.208985 -4.16748,4.167489 -7.94531,12.072269 -7.94531,12.072269 0,0 4.68283,-7.395736 8.65235,-11.365238 4.05497,-4.054981 10.72703,-10.255385 16.05078,-14.105469 5.06727,-3.664619 9.57531,-6.071937 14.88867,-8.804687 -1.25861,1.040841 -2.84469,2.429516 -4.24024,3.890625 -2.82603,2.958816 -6.76399,6.880808 -9.48242,11.447265 -2.52564,4.242648 -6.01367,13.402344 -6.01367,13.402344 0,0 4.10279,-8.938927 6.67773,-12.958984 2.66803,-4.165356 6.58845,-8.397935 9.39649,-11.337891 2.04121,-2.137107 4.88801,-4.593123 6.2793,-5.767578 6.12616,-3.030025 16.3789,-7.691406 16.3789,-7.691406 z m -9.60351,0.976562 c 0,0 -3.02179,0.685952 -7.78125,3.384766 -4.73187,2.683151 -14.20236,7.775988 -21.21485,12.892578 -6.99616,5.104698 -15.51602,12.589936 -20.42578,17.814453 -4.92056,5.23602 -8.67578,12.45312 -8.67578,12.45313 0,0 4.75423,-6.52873 9.55078,-11.632818 1.46874,-1.562899 3.35583,-3.373413 5.42969,-5.263671 -1.54258,2.062582 -3.27875,4.446031 -4.09375,5.785156 -1.62158,2.664402 -2.75,7.042973 -2.75,7.042973 0,0 1.86108,-4.043165 3.43359,-6.626958 1.34355,-2.207557 5.38668,-7.498963 6.50391,-8.953124 4.01411,-3.487463 8.42258,-7.037858 12.22266,-9.810547 6.91461,-5.045196 16.3502,-10.453371 21.0996,-13.146485 4.72181,-2.67745 6.70118,-3.939453 6.70118,-3.939453 z m -13.3711,0.375 c 0,0 -7.25784,3.167344 -10.93359,5.277344 -3.66032,2.101143 -7.36453,4.454672 -11.12695,7.035156 -3.77832,2.591383 -11.19532,8.746094 -11.19532,8.746094 0,0 7.85644,-5.607387 11.58985,-8.167969 3.74929,-2.571479 7.44048,-4.91549 11.08203,-7.005859 3.62612,-2.081513 10.58398,-5.884766 10.58398,-5.884766 z m 8.57227,0.002 c 0,0 -6.63084,1.620489 -10.02735,3.011719 -3.37866,1.383924 -6.77777,3.171784 -10.21289,4.962891 -3.45379,1.800847 -10.2539,6.121093 -10.2539,6.121093 0,0 7.15846,-3.719925 10.57617,-5.501953 3.43639,-1.791769 6.82083,-3.567384 10.15625,-4.933594 3.31758,-1.358901 9.76172,-3.660156 9.76172,-3.660156 z m 34.58008,1.414063 c 0,0 -11.52796,5.517298 -17.47657,9.597656 -5.95618,4.085558 -17.67578,14.814453 -17.67578,14.814453 0,0 2.65585,-2.18285 5.95313,-4.830078 -0.60248,0.947068 -1.78104,2.852445 -2.58789,4.511719 -1.12495,2.313417 -3.02149,7.978515 -3.02149,7.978515 0,0 2.5613,-5.746518 3.65235,-7.990234 0.89813,-1.846983 2.58686,-4.54342 3.18945,-5.492188 1.21712,-0.971011 2.48672,-1.970732 3.76367,-2.966796 -1.75211,2.133499 -4.18589,5.179368 -5.37695,7.054687 -1.96656,3.096327 -4.07813,8.81836 -4.07813,8.818359 0,0 2.76632,-5.449226 4.66797,-8.443359 1.89396,-2.982013 7.33594,-9.396484 7.33594,-9.396484 1.7151,-1.306841 3.3415,-2.514024 4.63086,-3.398438 5.852,-4.014101 17.02344,-10.257812 17.02344,-10.257812 z m -64.84375,0.539062 c 0,0 -9.54934,3.627214 -14.23633,5.289063 -4.68739,1.661986 -10.36809,3.184085 -14.04102,4.488281 -3.66501,1.301389 -7.85547,3.34375 -7.85547,3.34375 0,0 4.38038,-1.579454 8.02344,-2.873047 3.63517,-1.290786 9.32249,-2.813992 14.03906,-4.486328 4.71698,-1.672475 14.07032,-5.761719 14.07032,-5.761719 z m 38.09179,0.347657 c 0,0 -7.46537,3.828932 -11.03515,6.628906 -3.54745,2.782448 -7.54756,6.811441 -10.16992,9.707031 -2.63918,2.914139 -5.49414,7.599609 -5.49414,7.599609 0,0 3.42916,-4.277088 6.01367,-7.130859 2.60129,-2.872321 6.59196,-6.887558 10.08203,-9.625 3.46771,-2.719917 10.60351,-7.179687 10.60351,-7.179687 z m 27.88477,1.464843 c -0.0704,0.957899 -0.3945,4.421015 -1.5918,7.488281 0.092,-0.393135 0.16287,-0.777099 0.18946,-1.109374 0.11233,-1.404112 9.9e-4,-3.182324 -0.42969,-4.208985 -0.23885,-0.569368 -0.62076,-0.993493 -0.91602,-1.263672 0.0575,-0.02468 0.16646,-0.07874 0.22071,-0.101562 0.84816,-0.356877 1.70051,-0.607246 2.52734,-0.804688 z m -3.3457,1.183594 c 0.23807,0.190147 0.71025,0.621177 0.96093,1.21875 0.3424,0.816203 0.49078,2.604568 0.38477,3.929687 -0.0588,0.734474 -0.18459,1.826391 -0.28711,2.671876 -0.45113,0.875462 -0.99705,1.807524 -1.64844,2.783203 0.0311,-0.97831 0.0833,-2.825064 0.0586,-3.84375 -0.0355,-1.468218 -0.16491,-2.766497 -0.67969,-4.011719 -0.29038,-0.702416 -0.8536,-1.292197 -1.21875,-1.625 0.96641,-0.467342 1.70765,-0.800123 2.42969,-1.123047 z m -3.1211,1.462891 c 0.22573,0.20656 1.06179,0.997325 1.38867,1.71875 0.37693,0.831873 0.4952,2.267301 0.6211,3.800781 0.0918,1.118607 0.13742,3.404424 0.15039,4.152344 -0.32141,0.464993 -0.6546,0.931215 -1.00977,1.404297 -0.006,-0.07618 -0.0109,-0.152502 -0.0176,-0.228516 -0.11199,-1.285474 -0.25652,-2.854615 -0.47071,-4.308594 -0.21419,-1.453975 -0.4845,-2.7808 -0.9082,-3.65625 -0.38825,-0.802212 -0.6332,-1.206472 -0.9375,-1.472656 -0.26941,-0.235662 -0.44219,-0.368281 -0.69336,-0.478516 0.63554,-0.316767 1.26859,-0.63448 1.87695,-0.93164 z m -55.76953,0.08789 c 0,0 -8.19857,3.640422 -11.74609,5.800782 -3.51796,2.142347 -6.8221,4.383241 -9.53711,6.646484 -2.73673,2.281348 -6.39258,7.634765 -6.39258,7.634766 0,0 4.18845,-4.885822 6.8418,-7.097657 2.67505,-2.229941 5.95227,-4.455197 9.45117,-6.585937 3.46932,-2.112727 11.38281,-6.398438 11.38281,-6.398438 z m 0.72656,0.121094 c 0,0 -7.30311,3.687044 -11.48437,7.179688 -4.15178,3.468002 -10.21941,9.409564 -13.0918,13.58789 -2.87838,4.187047 -4.39062,10.316406 -4.39062,10.316406 0,0 2.28122,-5.83735 5.04882,-9.863281 2.77363,-4.034652 8.84519,-10.002881 12.94532,-13.427734 4.07061,-3.400214 10.97265,-7.792969 10.97265,-7.792969 z m 52.01172,1.470703 c 0.88373,-0.04404 1.30816,0.321392 1.32031,0.332031 0.14762,0.129123 0.37231,0.448378 0.7461,1.220704 0.33834,0.699086 0.62627,2.00057 0.83594,3.423828 0.20966,1.423254 0.35315,2.979732 0.46484,4.261718 0.0325,0.372694 0.0533,0.746938 0.0742,1.121094 -1.85007,2.341297 -4.02119,4.674445 -6.19336,6.558594 -3.11845,2.704958 -6.83085,5.09696 -10.63867,6.927734 1.83043,-2.254259 3.47536,-4.658716 5.08398,-7.363281 2.82556,-4.750574 6.91863,-15.899563 6.92969,-15.929687 0.25789,-0.150274 0.50082,-0.29048 0.66406,-0.373047 0.0787,-0.03979 0.15723,-0.07725 0.23633,-0.117188 0.0268,-0.005 0.0427,-0.01083 0.0703,-0.01563 0.14517,-0.0252 0.28001,-0.04058 0.40625,-0.04687 z m -115.96679,0.646485 c 0,0 -8.58554,7.886716 -11.62891,11.902343 -3.0103,3.971983 -5.94032,9.314603 -6.70899,11.082031 -0.76862,1.767433 -1.26367,3.480469 -1.26367,3.480469 0,0 0.90083,-1.662257 1.8086,-3.25 0.90777,-1.587738 4.01329,-6.819602 6.96093,-10.708984 2.91462,-3.845737 10.83204,-12.505859 10.83204,-12.505859 z m 113.62109,0.488281 c -0.77386,2.064306 -4.14092,10.916901 -6.5625,14.988281 -1.86482,3.135304 -3.77412,5.84947 -5.96484,8.394531 -0.77865,0.342346 -1.55695,0.669936 -2.33399,0.960938 -0.0386,0.01444 -0.0838,0.02859 -0.12305,0.04297 0.003,-0.0038 0.006,-0.0079 0.01,-0.01172 2.43271,-2.760544 4.47262,-5.136328 7.17969,-10.074219 2.56755,-4.683429 4.14117,-11.277898 4.33203,-12.099609 1.22199,-0.793011 2.35169,-1.517842 3.46289,-2.201172 z m -91.00195,4.068359 c 0,0 -5.0059,1.000059 -8.23633,2.990234 -3.19337,1.967319 -6.66973,5.051603 -10.3418,8.697266 -3.68614,3.65964 -8.57456,9.317046 -11.44922,13.41211 -2.89008,4.117145 -5.61328,10.865235 -5.61328,10.865235 0,0 3.63038,-6.30053 6.43164,-10.29101 2.81674,-4.012592 7.70227,-9.669808 11.33594,-13.277351 3.64774,-3.621513 7.09091,-6.662638 10.16211,-8.554687 3.03409,-1.869186 7.71094,-3.841797 7.71094,-3.841797 z m 41.49804,0.488281 c 0,0 -5.44197,1.9476 -8.26758,3.675782 -2.82558,1.728179 -6.08009,3.834617 -7.91601,5.478515 -3.58223,3.207569 -5.95995,6.644778 -8.23633,10.039063 -2.33398,3.480165 -5.03516,10.587894 -5.03516,10.587894 0,0 3.81905,-6.621318 6.03126,-9.919925 2.2698,-3.38449 4.57772,-6.715135 8.03906,-9.814454 1.68587,-1.509543 4.94058,-3.632961 7.74414,-5.347656 2.80356,-1.714695 7.64062,-4.699219 7.64062,-4.699219 z m 0.48828,0 c 0,0 -7.90056,4.335821 -11.32812,7.347657 -3.38296,2.972638 -6.02596,6.052557 -9.00586,9.986328 -3.01699,3.982729 -8.14453,14.562499 -8.14453,14.562499 0,0 5.8545,-10.216474 8.78125,-14.080077 2.96383,-3.912561 5.56407,-6.93894 8.89648,-9.867188 3.28783,-2.88905 10.80078,-7.949219 10.80078,-7.949219 z m 0.73243,0.976563 c 0,0 -7.63938,4.40275 -10.80469,7.138672 -3.13277,2.707791 -5.8635,5.772583 -8.42188,8.828125 -2.58405,3.086216 -6.64843,9.908204 -6.64843,9.908204 0,0 4.65534,-6.437079 7.18554,-9.458985 2.55591,-3.052581 5.25695,-6.081676 8.3418,-8.748047 3.0523,-2.638245 10.34766,-7.667969 10.34766,-7.667969 z m -62.81055,0.77539 c 0,0 -8.88879,8.012337 -12.01953,12.216797 -3.12046,4.190591 -6.62305,12.177734 -6.62305,12.177734 0,0 4.15218,-7.68613 7.18555,-11.759765 3.02304,-4.05976 11.45703,-12.634766 11.45703,-12.634766 z m 22.04492,0.201172 c 0,0 -3.73331,0.746733 -7.54297,3.244141 -3.81584,2.50149 -11.09492,8.639731 -14.39648,12.271484 -3.31081,3.641876 -11.42188,15.404304 -11.42188,15.404304 0,0 8.81492,-11.346583 12.01367,-14.865241 3.208,-3.52878 10.54201,-9.71371 14.24415,-12.140625 3.70832,-2.431007 7.10351,-3.914063 7.10351,-3.914063 z m 1.3418,0.535157 c 0,0 -1.91033,0.124064 -3.01563,0.634765 -1.10529,0.51071 -2.19998,1.134213 -4.26757,2.744141 -2.1171,1.648442 -6.19942,5.946926 -9.80079,9.865234 -3.60131,3.918309 -6.39062,7.701172 -6.39062,7.701172 0,0 3.38447,-3.249756 6.97851,-7.160156 3.5941,-3.9104 7.73051,-8.237924 9.70508,-9.775391 2.02405,-1.575981 3.12275,-2.395955 4.16797,-2.878906 1.04522,-0.48295 2.62305,-1.130859 2.62305,-1.130859 z M 219.375,82.671875 c 0,0 -5.40352,3.971148 -7.59375,6.613281 -2.19075,2.64277 -4.93945,8.521485 -4.93945,8.521485 0,0 3.43319,-5.608844 5.47851,-8.076172 2.04585,-2.467964 7.05469,-7.058594 7.05469,-7.058594 z m 23.375,0.06836 c 0,0 -0.29353,1.032572 -0.54492,1.929688 -0.41124,0.273932 -4.46891,2.986597 -6.91211,5.052734 -2.56528,2.169375 -6.49949,6.051395 -8.55469,8.207032 -2.06257,2.163381 -3.55078,4.832031 -3.55078,4.832031 0,0 2.02356,-2.25289 4.04492,-4.373047 2.02873,-2.127877 6.20673,-5.789824 8.70703,-7.904297 1.96253,-1.65964 4.76303,-3.62841 5.89844,-4.414063 -0.1786,0.713178 -0.34374,1.428952 -0.48828,2.164063 -0.58001,0.589685 -5.23478,5.320845 -7.78906,7.673828 -2.71838,2.504109 -6.26899,5.271776 -9.08008,7.701176 -2.80382,2.42306 -7.44922,7.09179 -7.44922,7.09179 0,0 5.17736,-4.07222 7.9707,-6.48633 2.78613,-2.40777 6.34405,-5.178591 9.10157,-7.718745 2.46106,-2.267113 6.22498,-6.176089 7.05078,-7.03711 -0.0363,0.254678 -0.10407,0.549839 -0.125,0.78125 -0.0791,0.874692 -0.10619,2.041543 -0.11719,3.234375 -0.38588,0.317289 -4.79375,3.941732 -7.52149,6.017579 -2.84757,2.167101 -6.76335,5.172411 -9.83593,7.478511 -3.07108,2.30499 -8.36524,6.60743 -8.36524,6.60742 0,0 5.77707,-3.97907 8.8418,-6.27929 3.06318,-2.29906 6.92228,-5.07275 9.7832,-7.25 2.7098,-2.062206 6.66005,-5.196806 7.09375,-5.541017 2.1e-4,0.173153 -0.003,0.347671 -0.002,0.517579 -0.68615,0.529935 -5.97383,4.626656 -8.52148,7.021488 -2.7182,2.55503 -5.46484,6.10491 -7.66016,8.29296 -2.20905,2.20177 -5.33398,5.36719 -5.33399,5.36719 0,0 3.58616,-2.63649 5.82813,-4.87109 2.2557,-2.24828 4.99126,-5.78524 7.64453,-8.2793 2.42381,-2.27835 7.21483,-5.942017 8.05078,-6.578123 0.0197,1.380225 0.0534,2.710154 0.0566,2.8125 l -3.41601,3.175783 c -1.14032,0.86378 -2.4307,1.87873 -3.77149,3.01758 -4.08162,3.46686 -6.48695,5.56 -9.48242,8.12695 -3.03438,2.6003 -9.30078,9.15429 -9.30078,9.15429 0,0 7.07368,-5.77629 10.0332,-8.3125 1.82478,-1.56368 3.4236,-3.03543 5.32813,-4.66992 l 0.16797,1.97461 c -0.64504,0.53662 -3.75724,3.11501 -6.48242,5.14649 -3.03194,2.26004 -11.75196,8.74414 -11.75196,8.74414 0,0 9.10224,-5.89681 12.16992,-8.1836 2.66242,-1.98459 5.43263,-4.23155 6.14258,-4.81054 l 0.17774,2.07617 c -0.66861,0.49502 -4.55749,3.38555 -6.61914,5.18359 -2.25525,1.96685 -6.33008,6.82422 -6.33008,6.82422 0,0 4.60937,-4.39599 6.78906,-6.29687 1.88193,-1.64127 5.29078,-4.07915 6.24219,-4.75391 l 0.53906,6.31641 c -0.19323,0.21902 -3.40466,3.86873 -4.66602,6.45703 -1.288,2.64304 -1.89753,6.47952 -2.5,8.70117 -0.59185,2.18252 -1.16955,4.55758 -1.21875,4.75977 l -6.72656,2.78515 c -0.12445,-0.73052 -0.79472,-4.57713 -1.82617,-7.24023 -1.14206,-2.94877 -5.32031,-9.00391 -5.32031,-9.00391 0,0 3.51691,6.55801 4.57617,9.29297 1.06927,2.76083 1.87695,7.57422 1.87695,7.57422 l 0.082,0.49609 8.01758,-3.32031 0.0469,-0.19727 c 0,0 0.65141,-2.67974 1.26367,-4.9375 0.62641,-2.30988 1.25127,-6.10631 2.44726,-8.56054 1.18467,-2.43093 4.66016,-6.41211 4.66016,-6.41211 l 0.11133,-0.12891 -1.08985,-12.74805 3.31836,-3.08593 c 0.0347,-0.0269 0.0647,-0.0511 0.0996,-0.0781 2.58819,-2.00363 4.60026,-4.07692 5.75977,-5.36914 l 1.45703,-1.355467 -0.006,-0.18164 c 0,0 -0.18227,-5.997 0.0566,-8.638672 0.23972,-2.650102 1.31437,-7.485352 0.92383,-7.572266 z m -34.93164,6.441407 c 0,0 -5.34931,6.980733 -7.15234,10.919918 -1.80153,3.93581 -3.42383,12.02735 -3.42383,12.02735 0,0 2.3296,-7.95265 4.06054,-11.73438 1.72944,-3.778292 6.51563,-11.212888 6.51563,-11.212888 z m 22.67578,29.689448 c 0,0 -4.77114,3.31884 -6.69336,5.2793 -1.90556,1.94347 -3.48815,4.22161 -4.85351,5.89258 -1.38128,1.69036 -3.18164,4.47851 -3.18165,4.47851 0,0 2.17235,-2.52013 3.55079,-4.20703 1.39423,-1.70629 3.13495,-3.78763 4.98437,-5.67383 1.83276,-1.86916 6.19336,-5.76953 6.19336,-5.76953 z m -2.30078,5.17969 c 0,0 -3.6327,2.01162 -5.57617,3.64453 -1.954,1.64174 -5.70117,6.02149 -5.70117,6.02149 0,0 4.243,-4.04657 6.09375,-5.60157 1.8612,-1.56377 5.18359,-4.06445 5.18359,-4.06445 z m -2.64648,5.63867 c 0,0 -4.09789,2.81534 -5.6504,4.29102 -1.53822,1.46214 -3.4414,4.10937 -3.4414,4.10937 0,0 2.22981,-2.26708 3.69336,-3.6582 1.4493,-1.37758 5.39844,-4.74219 5.39844,-4.74219 z m -1.4961,5.63867 c 0,0 -1.18541,0.42071 -2.16797,1.04297 -0.98256,0.62227 -1.70074,1.18987 -2.32226,1.74414 -1.21992,1.08793 -2.5293,3.19727 -2.5293,3.19727 0,0 1.66671,-1.7522 2.76367,-2.73047 0.53692,-0.47882 1.37398,-1.23417 2.3457,-1.84961 0.97179,-0.61543 1.91016,-1.4043 1.91016,-1.4043 z"
       sodipodi:nodetypes="cccsssscssssccscssssssccccsscsscssccsssssscscsssssssssccsssssscsssssccsssscsssscccscscscssscsssccssssscscscsccsscsssscccssscssscssscszcscsccssscsssscccscsscccscsscccscsscccsscsssccccscccscsscccscssccssscssscscscsscsccscsscccscssccsscsscscscsscssccsccsscscsccsscssccscccsscccssscssscsccscscssscsscscscscscccccscccscsscccsscsssccccscccsscsssssccssssccssccssscscssssscscscscccscsccsscsssccscsccssscssscscsscssccsccsssscssssssccccscsscsscsscccccscscscscsscccccsscccccsscccccscsccscscscccccsscccccsscccsscsccsccccsccscccccssscssccscssccsccsscsccsscscscscsssccccscccccsccsccccccccsssccccscssscccccsscccccssccccscccccssccccscsssccccsccccscssccssccscscsscsscccscsscccsscccccccccscsccssccscsccccssccccccccccccccccccccssccccscccssccsscsscss" /></g></svg>
