<?xml version="1.0" encoding="UTF-8" standalone="no"?>
<!-- Created with Inkscape (http://www.inkscape.org/) -->

<svg
   width="400"
   height="400"
   viewBox="0 0 400 400"
   version="1.1"
   id="svg1"
   xml:space="preserve"
   inkscape:version="1.3.2 (091e20e, 2023-11-25)"
   sodipodi:docname="straightCombBackLong.svg"
   xmlns:inkscape="http://www.inkscape.org/namespaces/inkscape"
   xmlns:sodipodi="http://sodipodi.sourceforge.net/DTD/sodipodi-0.dtd"
   xmlns="http://www.w3.org/2000/svg"
   xmlns:svg="http://www.w3.org/2000/svg"><sodipodi:namedview
     id="namedview1"
     pagecolor="#ffffff"
     bordercolor="#666666"
     borderopacity="1.0"
     inkscape:showpageshadow="2"
     inkscape:pageopacity="0.0"
     inkscape:pagecheckerboard="0"
     inkscape:deskcolor="#d1d1d1"
     inkscape:document-units="px"
     inkscape:zoom="2.5175"
     inkscape:cx="199.80139"
     inkscape:cy="200"
     inkscape:window-width="1944"
     inkscape:window-height="1220"
     inkscape:window-x="2221"
     inkscape:window-y="117"
     inkscape:window-maximized="0"
     inkscape:current-layer="layer2" /><defs
     id="defs1" /><g
     inkscape:groupmode="layer"
     id="layer3"
     inkscape:label="Hair Back"><path
       style="fill:#383838;stroke:none;stroke-width:1px;stroke-linecap:butt;stroke-linejoin:miter;stroke-opacity:1;fill-opacity:1"
       d="m 181.52929,131.47964 -5.56107,16.286 -10.67235,34.94457 -1.68526,13.90339 0.98306,13.62252 7.72411,10.81375 9.69024,7.44323 12.92032,5.33665 13.48208,2.24701 14.60558,-1.26394 8.98805,-5.75797 1.12351,-4.63447 -1.8257,-3.37051 -7.30279,-10.67331 -8.4263,-24.71714 -0.28087,-8.28586 2.24701,-13.90339 -18.39742,-12.35857 -12.63944,-13.90339 z"
       id="path165" /><path
       style="fill:#383838;stroke:none;stroke-width:1px;stroke-linecap:butt;stroke-linejoin:miter;stroke-opacity:1;fill-opacity:1"
       d="m 344.78649,44.48858 3.57498,4.965243 5.75968,9.731877 3.57498,10.923535 2.58192,13.108243 1.19166,17.477652 0.59583,13.70408 0.19861,7.74578 0.79444,2.78053 -0.19861,3.77359 -1.78749,7.74578 -3.37636,9.33465 1.98609,11.71798 2.18471,16.88182 1.19166,19.26515 0.19861,10.72492 -4.96524,14.1013 -7.94439,11.71797 -9.33466,7.74578 -11.71797,5.75968 -17.27905,4.76663 -19.26515,1.9861 -17.47765,0.19861 -11.71798,-0.39722 8.54022,-14.49851 4.76664,-11.91658 12.90963,3.37636 2.38332,0.79444 5.36246,-4.56802 21.64846,-6.1569 16.68322,-38.7289 2.78053,-33.76366 1.58888,-34.95531 -6.95134,-40.119164 4.36941,-5.561073 3.57498,-11.916583 z"
       id="path110" /><path
       style="fill:#ffffff;stroke:none;stroke-width:1px;stroke-linecap:butt;stroke-linejoin:miter;stroke-opacity:1;fill-opacity:0.30000001"
       d="m 345.61863,53.226111 3.23008,3.932272 3.51096,6.6006 4.35358,15.448212 2.38745,12.218131 1.54482,16.431284 0.98307,11.3755 v -14.74602 l -1.26394,-22.329691 -3.37052,-17.133472 -6.17929,-12.920322 -7.44323,-8.285859 z"
       id="path129" /><path
       id="path1"
       style="color:#000000;fill:#000000;-inkscape-stroke:none"
       d="m 344.06836,42.845703 c 0,0 2.12865,4.444929 3.98633,7.783203 0.0325,0.448682 0.1002,1.460896 0.1289,2.919922 0.0362,1.840496 -0.0248,4.054857 -0.32812,5.359375 -0.88735,3.815918 -2.77004,7.456247 -5.00977,10.746094 -1.83228,2.691359 -6.61523,7.966797 -6.61523,7.966797 0,0 5.68694,-4.114923 7.77344,-7.179688 2.30436,-3.384805 4.27331,-7.165961 5.21484,-11.214844 0.36859,-1.585049 0.40039,-3.818976 0.36328,-5.705078 -0.002,-0.124825 -0.009,-0.230262 -0.0117,-0.351562 1.85149,2.776394 3.73762,6.964912 4.73828,9.421875 -0.13812,0.992532 -0.38055,2.891776 -0.41406,4.347656 -0.047,2.041991 -0.19862,4.495484 -0.54883,5.976563 -1.00228,4.238821 -3.01949,8.266121 -5.22656,12.11914 -1.82842,3.191984 -6.20898,9.625 -6.20898,9.625 0,0 5.43788,-5.462674 7.42382,-8.929687 2.23285,-3.898018 4.31987,-8.038115 5.37305,-12.492188 0.40616,-1.717697 0.54,-4.186976 0.58789,-6.267578 0.0173,-0.750875 -0.0951,-1.616628 -0.24414,-2.419922 2.20911,6.104236 3.10495,12.123636 4.06641,18.857422 0.67293,4.713027 1.10937,9.465169 1.41211,14.230469 -0.51771,0.751484 -1.15477,1.736326 -1.77344,2.869138 -1.363,2.49571 -3.11992,5.41933 -4.57031,7.03711 -1.11759,1.24657 -3.23752,2.86052 -5.05664,4.12891 -1.81914,1.26838 -3.05469,2.67578 -3.05469,2.67578 0,0 1.83703,-0.48593 3.68359,-1.77344 1.84656,-1.28751 3.98778,-2.89333 5.2461,-4.29687 1.59112,-1.77476 3.33777,-4.71911 4.71679,-7.24414 0.35703,-0.65374 0.65269,-1.291656 0.89844,-1.882816 0.16115,2.832416 0.29074,5.667156 0.36328,8.503906 0.0791,3.09434 0.49067,6.13269 0.041,8.88281 l -0.0391,0.004 c 0,0 0.008,0.14398 0.01,0.16406 -0.0655,0.36968 -0.14324,0.73538 -0.24414,1.09375 -1.37863,4.89638 -4.77909,9.20348 -7.88672,13.61914 -2.9942,4.25449 -11.49805,15.83594 -11.49805,15.83594 0,0 9.93372,-10.13714 13.13477,-14.68555 2.24919,-3.1959 4.78044,-6.45727 6.57227,-10.11133 -0.0576,1.10417 -0.16064,2.14591 -0.32813,2.86524 -1.20067,5.15734 -2.87068,7.56211 -4.95703,11.0039 -2.6759,4.41434 -5.46336,7.55057 -9.25,11.83985 -1.83333,2.07668 -6.50977,6.31641 -6.50977,6.31641 0,0 5.51422,-2.64652 7.94727,-4.92774 3.97431,-3.72631 6.83203,-7.75147 9.52344,-12.19141 2.05154,-3.38435 4.2489,-6.0346 5.18554,-11.55273 0.29005,-1.70881 0.46753,-3.97025 0.44141,-5.91211 -0.0205,-1.52282 -0.0862,-2.58078 -0.11914,-3.06836 0.52398,-3.14581 0.0492,-6.30854 -0.0254,-9.22656 -0.20888,-8.167716 -0.72404,-16.364747 -1.88281,-24.48047 -1.04002,-7.284023 -1.97931,-13.940338 -4.80274,-20.970703 -1.10315,-2.746864 -3.14077,-7.241865 -5.10547,-10.166016 -1.96468,-2.92415 -7.12109,-9.142578 -7.12109,-9.142578 z m 6.66797,15.802735 c 0,0 -2.49525,10.9666 -3.92969,15.558593 -1.51406,4.846893 -5.17383,14.681641 -5.17383,14.681641 0,0 5.01823,-9.146932 6.60742,-14.234375 1.50958,-4.832546 2.4961,-16.005859 2.4961,-16.005859 z m -2.57813,10.074218 c 0,0 -2.73931,5.145209 -4.21093,7.496094 -1.51827,2.425382 -5.06641,7.271484 -5.06641,7.271484 0,0 4.28409,-4.136396 5.91406,-6.740234 1.58335,-2.529345 3.36328,-8.027344 3.36328,-8.027344 z m 8.51953,7.572266 c 0,0 -1.8041,7.664039 -3.07226,11.136719 -1.22379,3.351207 -3.03006,6.517525 -5.04102,9.515625 -1.84675,2.753282 -6.08593,8.314454 -6.08593,8.314454 0,0 5.16903,-4.61258 7.16601,-7.589845 2.04612,-3.050519 3.90712,-6.304789 5.18164,-9.794922 1.38976,-3.805656 1.85156,-11.582031 1.85156,-11.582031 z m 1.51368,8.140625 c 0,0 -1.74351,5.648001 -2.65039,8.394531 -0.82056,2.485045 -2.88516,7.509982 -3.92188,10.000002 -1.06092,1.105 -2.34978,2.28679 -3.52148,3.30273 -1.82748,1.58453 -2.96875,3.29297 -2.96875,3.29297 0,0 1.96419,-0.70118 3.82031,-2.31055 1.85612,-1.60935 3.99964,-3.59414 5.22266,-5.2539 1.31822,-1.78895 2.68361,-4.640278 3.75195,-7.074221 1.06834,-2.433942 1.21289,-4.671875 1.21289,-4.671875 0,0 -1.34925,1.749212 -2.40234,4.148438 -1.05309,2.399225 -2.43287,5.229551 -3.60938,6.826168 -0.30848,0.41865 -0.70781,0.88101 -1.1543,1.36328 1.29828,-2.511938 3.53287,-6.962652 4.32813,-9.371089 0.93614,-2.83509 1.89258,-8.646484 1.89258,-8.646484 z m 0.56836,23.476563 c 0,0 -3.83152,6.86767 -6.01368,9.83789 -2.29633,3.12565 -9.13281,11.17578 -9.13281,11.17578 0,0 7.66734,-6.98658 10.17969,-10.40625 2.39816,-3.26423 4.9668,-10.60742 4.9668,-10.60742 z m 1.89257,3.78516 c 0,0 -4.5319,8.56773 -6.77734,12.78125 -2.10392,3.94795 -4.17183,7.91494 -6.76953,11.47851 -1.72224,2.3626 -5.57227,7.16797 -5.57227,7.16797 0,0 4.68222,-3.911 6.54102,-6.46094 2.66837,-3.66051 4.76089,-7.67969 6.86133,-11.62109 2.29454,-4.30568 5.71679,-13.3457 5.71679,-13.3457 z m 2.66797,10.6582 c 0,0 -1.0678,6.30768 -1.77343,9.12891 -1.31614,5.26219 -3.371,10.58403 -6.05665,15.27343 -2.0333,3.55036 -4.87835,6.75647 -7.86523,9.69141 -2.30809,2.26796 -7.86523,6.87109 -7.86523,6.87109 0,0 6.52624,-2.75163 9.26757,-5.44531 3.0522,-2.99912 6.02486,-6.3264 8.19922,-10.12305 0.0532,-0.0929 0.10158,-0.18984 0.1543,-0.2832 0.44203,3.23383 1.5472,11.69869 2.60937,21.29297 -0.401,-1.6365 -0.81755,-3.18223 -1.22851,-4.43164 -1.11332,-3.38474 -4.73438,-9.27735 -4.73438,-9.27735 0,0 2.55286,6.48779 3.59375,9.65235 1.43625,4.36648 2.97204,12.43094 3.51368,15.38476 0.15481,1.8535 0.29195,3.64198 0.38281,5.24219 0.0856,1.50732 0.21909,3.01548 0.34765,4.52149 -0.47501,-3.09255 -1.18445,-6.1586 -2.25781,-9.10352 -1.5027,-4.12287 -4.63766,-7.27609 -6.0625,-10.99219 -1.22986,-3.20758 -3.11523,-10.35156 -3.11523,-10.35156 0,0 0.43885,7.28619 1.80664,10.85352 1.56832,4.0903 4.69437,7.23652 6.05469,10.96875 1.64302,4.5079 2.42179,9.36724 2.80078,14.20312 0.26661,3.40197 0.21538,9.37694 0.16601,12.55078 -1.40929,5.09283 -3.61705,10.06383 -6.49219,14.57617 0.24843,-0.49157 0.48643,-0.97875 0.68946,-1.43945 1.27818,-2.9004 2.66433,-6.40416 3.08984,-8.99219 0.88131,-5.36027 -0.0881,-10.81578 -0.7539,-16.0625 -0.62764,-4.94572 -1.56349,-9.89069 -3.05079,-14.66992 -1.57788,-5.07036 -6.58203,-14.22655 -6.58203,-14.22656 0,0 4.01851,9.68544 5.53321,14.55273 1.46213,4.6984 2.38582,9.58117 3.00781,14.48242 0.6704,5.28272 1.60041,10.63118 0.75976,15.74415 -0.38821,2.36117 -1.74625,5.86141 -3.00976,8.72851 -0.77215,1.75212 -1.49712,3.72699 -2.04297,5.26367 -1.09329,1.45154 -2.24026,2.85607 -3.4707,4.16602 -5.6235,5.98688 -13.24982,10.19737 -21.01172,13.2793 1.03977,-0.88816 2.32875,-2.12593 3.18555,-3.45313 1.63545,-2.53336 3.44195,-5.45399 4.20703,-7.26367 2.07378,-4.90526 3.3554,-10.17805 3.93359,-15.45703 0.4816,-4.39707 0.0845,-8.82418 -0.40234,-13.13867 -0.55833,-4.94823 -3.50782,-14.2461 -3.50782,-14.2461 0,0 1.5844,9.68046 2.11719,14.40235 0.48426,4.29186 0.86177,8.61766 0.40039,12.83007 -0.56479,5.15666 -1.81593,10.30028 -3.83008,15.06446 -0.66241,1.56684 -2.47161,4.53805 -4.09375,7.05078 -1.20546,1.86729 -2.39095,3.618 -3.05859,4.59961 -2.55735,0.95941 -5.18966,1.71399 -7.87305,2.32617 0.26626,-0.26465 0.51725,-0.52998 0.71289,-0.78711 2.65133,-3.48459 4.21363,-7.649 5.70118,-11.6543 1.9137,-5.1528 3.07528,-10.54052 4.17187,-15.87695 0.98375,-4.78734 0.80078,-15.10352 0.80078,-15.10352 0,0 -0.9172,10.2123 -1.87695,14.88282 -1.09507,5.32904 -2.24983,10.66053 -4.12695,15.71484 -1.48626,4.00183 -3.02416,8.05812 -5.54493,11.37109 -0.3877,0.50956 -0.84728,1.24109 -1.53711,1.83399 -1.50717,0.30956 -3.02789,0.58135 -4.55859,0.82226 1.64018,-2.2466 4.50557,-6.27287 5.75586,-8.67187 1.9621,-3.76478 3.64265,-7.72463 4.77148,-11.83594 1.01943,-3.71279 1.22071,-11.20703 1.22071,-11.20703 0,0 -1.22706,7.45052 -2.18555,10.94141 -1.10513,4.02495 -2.75595,7.92322 -4.69336,11.64062 -1.37522,2.63872 -4.00431,7.18718 -5.1582,9.17578 -4.42106,0.68499 -8.91497,1.14414 -13.38477,1.62696 1.22487,-0.80839 2.60444,-1.78357 3.4668,-2.60352 2.11252,-2.00861 3.66409,-4.49394 5.29883,-6.82031 2.43321,-3.46267 4.13067,-7.3685 6.70703,-10.58594 1.26278,-1.577 4.17578,-4.66602 4.17578,-4.66601 0,0 -3.36364,2.53132 -4.72266,4.22851 -2.65432,3.31482 -4.35621,7.23482 -6.73437,10.61914 -1.64928,2.34707 -3.18012,4.78958 -5.20703,6.7168 -1.08564,1.03224 -3.15181,2.39196 -4.53516,3.26562 -5.23117,0.52017 -13.31229,0.69554 -18.93945,0.96485 1.5067,-0.86844 4.38894,-2.73777 6.74023,-5.53907 2.3282,-2.77376 3.90066,-6.56749 4.73828,-8.38867 0.6256,-1.36019 1.04,-3.36036 1.32813,-5.0625 0.28813,-1.70214 -0.4043,-5.05468 -0.4043,-5.05468 0,0 -0.59629,3.17999 -0.87695,4.83789 -0.28065,1.65788 -0.7195,3.63191 -1.22656,4.73437 -0.86234,1.8749 -2.41957,5.55391 -4.55469,8.09766 -2.38975,2.84711 -5.01825,5.33499 -6.17578,6.39453 -3.4465,0.17221 -5.85648,0.3887 -5.85938,0.75976 0,0 17.31549,1.14815 26.08008,0.18946 10.00332,-1.09418 20.4071,-1.92559 29.97461,-5.68555 8.03191,-3.15649 16.05253,-7.51454 22.05078,-13.90039 6.24926,-6.65306 10.83887,-15.16284 13.0918,-23.99805 1.88065,-7.37524 0.43915,-15.04095 0.0293,-22.25976 -0.73628,-12.96775 -3.97589,-36.31242 -4.59179,-40.6875 1.95935,-4.00754 3.4964,-8.29806 4.5625,-12.56055 0.85596,-3.42205 -0.16602,-9.61328 -0.16602,-9.61328 z m -18.47461,46.45312 c 0,0 3.78321,9.11818 4.87891,12.13672 2.21642,6.10603 3.70255,12.52896 4.38086,18.98828 0.52964,5.04364 0.87239,10.21794 -0.25391,15.04493 -0.96565,4.1385 -3.29805,7.95234 -5.54883,11.73046 -1.32459,2.22349 -4.26171,6.89258 -4.26171,6.89258 0,0 3.92627,-3.78819 5.3789,-6.22656 2.24431,-3.76728 4.66719,-7.68499 5.69727,-12.09961 1.1859,-5.08241 0.81432,-10.40026 0.28125,-15.47656 -0.68957,-6.56659 -2.20059,-13.09135 -4.45313,-19.29688 -1.19219,-3.28437 -6.09961,-11.69336 -6.09961,-11.69336 z m 4.6875,14.85938 c 0,0 0.49655,12.82512 0.55274,19.14844 0.0534,6.01029 1.03003,12.15741 -0.76953,17.5957 -0.8218,2.48346 -2.98584,5.8347 -5.10743,8.7207 0.6213,-0.98136 1.16006,-1.93665 1.54297,-2.80664 1.65101,-3.75107 2.38809,-7.92412 2.45508,-11.99219 0.0345,-2.09276 -0.47674,-5.04287 -0.99023,-7.50586 -0.51349,-2.46297 -2.10352,-5.89062 -2.10352,-5.89062 0,0 0.51847,3.68374 1.02539,6.11523 0.50693,2.43151 0.99987,5.37159 0.96875,7.26172 -0.065,3.94709 -0.78497,7.98244 -2.36328,11.56836 -0.96359,2.18926 -3.15869,5.23617 -5.10352,7.69336 -1.94481,2.45719 -3.22656,4.71094 -3.22656,4.71094 0,0 2.1222,-1.54327 4.08985,-4.0293 0.25457,-0.32165 0.51728,-0.67204 0.77734,-1.00976 -1.00428,1.52176 -1.65625,2.6289 -1.65625,2.6289 0,0 2.5966,-1.94388 4.94922,-5.05273 2.35262,-3.10885 4.95696,-6.9227 5.97656,-10.00391 1.93314,-5.84191 0.88812,-12.14464 0.83594,-18.01562 -0.0574,-6.46357 -1.85352,-19.13672 -1.85352,-19.13672 z m -6.56054,5.2207 c 0,0 0.65247,12.88398 0.0703,19.08789 -0.65775,7.00929 -2.2083,13.99966 -4.65039,20.59766 -1.13677,3.0713 -4.25586,9.31055 -4.25586,9.31055 0,0 4.13411,-5.52608 5.38086,-8.89454 2.48044,-6.7016 4.05349,-13.79229 4.7207,-20.90234 0.61091,-6.51015 -1.26562,-19.19922 -1.26562,-19.19922 z m 19.38086,12.17774 c -0.0556,1.26075 -0.17277,2.50739 -0.37305,3.73632 0.14303,-1.18426 0.26966,-2.45567 0.37305,-3.73632 z m -27.68164,16.4707 c 0,0 -0.85134,7.31793 -1.68946,10.72266 -0.90769,3.68741 -3.79883,11.09765 -3.79883,11.09765 0,0 3.79954,-6.91689 4.76953,-10.85742 0.90043,-3.65784 0.71876,-10.96289 0.71876,-10.96289 z m -12.31055,3.30273 c 0,0 -1.38473,4.93563 -2.22071,7.26563 -1.19959,3.34348 -2.67966,6.60877 -4.51367,9.64062 -1.20285,1.98849 -4.05468,5.90821 -4.05468,5.90821 0,0 3.37473,-3.43159 4.65429,-5.54688 1.86284,-3.07953 3.35977,-6.38622 4.57227,-9.76562 0.8801,-2.453 1.5625,-7.50196 1.5625,-7.50196 z m 9.49805,0.17774 c 0,0 -2.8176,11.64533 -3.73047,14.88476 -0.78894,2.79964 -2.15821,5.99805 -2.15821,5.99805 0,0 2.09758,-2.83533 2.92774,-5.78125 0.94852,-3.36593 2.96094,-15.10156 2.96094,-15.10156 z m -2.54297,0.53515 c 0,0 -0.39261,5.74324 -0.74805,8.52344 -0.32253,2.52255 -1.25977,7.67578 -1.25977,7.67578 0,0 1.61831,-4.9539 1.95508,-7.58789 0.36974,-2.89162 0.0527,-8.61133 0.0527,-8.61133 z M 297.25,222.47461 c 0,0 -0.53234,3.3796 -1.21875,7.2207 -0.68641,3.84111 -1.77935,8.37185 -3.20313,10.92774 -0.76667,1.3763 -2.61126,3.2584 -4.24804,4.72656 -1.63679,1.46816 -3.3457,3.20508 -3.3457,3.20508 0,0 2.5977,-0.65572 4.27929,-2.16407 1.68159,-1.50833 3.58598,-3.37498 4.53906,-5.08593 1.61019,-2.89053 2.65847,-7.46294 3.35547,-11.36328 0.697,-3.90036 -0.1582,-7.4668 -0.1582,-7.4668 z m 10.67773,2.00977 c 0,0 -3.07452,6.37342 -4.70703,9.29687 -1.9029,3.40769 -3.63269,6.91508 -5.93945,9.99414 -1.07971,1.4412 -3.55078,4.32813 -3.55078,4.32813 0,0 2.9422,-2.34765 4.11133,-3.90821 2.35886,-3.14862 4.09925,-6.68788 5.99023,-10.07422 1.68415,-3.01593 4.0957,-9.63672 4.0957,-9.63671 z m -22.9082,6.39062 c 0,0 -2.13983,4.09394 -3.78711,7.00195 -1.64728,2.90803 -3.78562,6.29674 -5.55078,8.08985 -0.78214,0.79452 -2.04291,2.12732 -3.45312,3.11718 -1.29371,0.90809 -3.01758,1.85743 -3.01758,1.85743 0,0 2.08682,-0.20851 3.49414,-1.03516 1.40732,-0.82665 3.03617,-1.86002 4.04687,-2.88672 1.99372,-2.02528 4.11443,-5.45143 5.78711,-8.4043 1.67268,-2.95285 2.48047,-7.74023 2.48047,-7.74023 z" /><path
       id="path125"
       style="fill:#000000;fill-opacity:0.30000001;stroke:none;stroke-width:1px;stroke-linecap:butt;stroke-linejoin:miter;stroke-opacity:1"
       d="M 358.39844 108.55859 C 358.39844 108.55859 353.6036 114.24193 350.95508 116.84375 C 348.30362 119.44847 345.62009 122.08209 342.5293 124.14648 C 340.96248 125.19299 337.47266 126.67578 337.47266 126.67578 L 338.31641 131.45117 L 343.08984 128.36133 L 349.69141 122.74219 L 355.58984 115.01953 L 358.39844 108.55859 z M 358.39844 116.42383 C 358.39844 116.42383 353.80109 122.29784 351.37695 125.13086 C 349.15769 127.72445 347.10908 130.51845 344.49609 132.71484 C 342.41831 134.46137 337.61328 137.06836 337.61328 137.06836 L 337.61328 146.47656 L 348.00586 136.08398 L 353.3418 126.81641 L 358.39844 116.42383 z M 362.18945 121.61914 C 362.18945 121.61914 357.80725 131.33841 354.74805 135.66406 C 351.99334 139.55916 348.64684 143.05355 345.05664 146.19531 C 342.47653 148.45315 336.63086 152.09375 336.63086 152.09375 L 336.34961 157.29102 L 340.70312 153.91992 L 348.28711 147.32031 L 356.43164 137.62891 L 361.20703 127.93945 L 362.18945 121.61914 z M 362.18945 133.97852 C 362.18945 133.97852 360.41733 138.35599 359.10156 140.29688 C 355.66124 145.37169 351.36352 149.89092 346.74219 153.91992 C 343.49284 156.75279 336.06836 161.22266 336.06836 161.22266 L 335.64844 167.40234 L 336.8125 166.87305 L 335.84961 178.55078 L 319.16602 217.2793 L 297.51758 223.43555 L 292.1543 228.00391 L 289.77148 227.20898 L 276.86133 223.83398 L 272.0957 235.75 L 263.55469 250.24805 L 275.27344 250.64453 L 292.75 250.44727 L 312.01562 248.46094 L 315.89062 247.39258 C 318.79383 245.4464 321.5121 243.41194 323.33594 241.50977 C 327.78112 236.8736 331.08868 231.29187 334.00391 225.48633 L 333.96289 226.51367 L 330.88477 236.04688 L 328.40039 242.30469 L 332.37305 236.54492 L 336.04688 228.59961 L 338.13281 219.26562 L 338.36719 216.2832 C 338.5195 215.95428 338.67572 215.6208 338.82812 215.29297 C 340.80911 211.03206 342.71028 206.69819 344.41602 202.29492 C 344.73654 204.08418 345.05776 206.05572 345.18359 207.44727 C 345.40422 209.88704 345.49636 212.35643 345.2832 214.79688 C 344.99001 218.15346 344.31459 222.01066 343.69336 225.32227 C 343.35819 227.10896 341.60938 231.67773 341.60938 231.67773 L 346.9707 221.64844 L 348.06445 212.81055 C 348.06445 212.81055 346.17742 204.76575 346.07812 204.16992 C 346.03095 203.88678 345.46072 202.47227 344.88281 201.07617 C 346.79 196.02025 348.39421 190.86585 349.50977 185.60547 C 350.07394 187.5035 350.81723 190.06313 351.24219 191.95703 C 352.10241 195.79077 352.98416 199.65264 353.22656 203.57422 C 353.44939 207.17921 353.234 210.8218 352.73047 214.39844 C 352.23264 217.9364 350.24805 224.82617 350.24805 224.82617 L 354.32031 215.29297 L 355.3125 204.66797 L 353.625 192.65234 L 350.1543 182.23828 C 350.57122 179.40966 350.7778 175.90277 350.87695 172.38086 C 351.93004 173.73914 353.14087 174.99087 354.02148 176.46484 C 356.04199 179.84674 357.69754 183.46674 358.98633 187.18945 C 360.29964 190.983 361.76758 198.9082 361.76758 198.9082 L 361.86719 196.02734 L 360.97266 187.28906 L 357.89453 178.74805 L 353.82227 171.99609 L 352.23438 167.32812 L 350.91406 163.55859 C 350.85453 159.64082 350.74414 156.50391 350.74414 156.50391 L 347.47852 158.64258 L 349.55078 156.72852 L 351.6582 153.63867 L 357.41602 146.05664 L 362.18945 133.97852 z " /><path
       id="path148"
       style="fill:#000000;fill-opacity:0.2;stroke:none;stroke-width:1px;stroke-linecap:butt;stroke-linejoin:miter;stroke-opacity:1"
       d="m 343.5957,162.06641 -6.75976,4.50586 -0.98633,11.97851 -16.68359,38.72852 -21.64844,6.15625 -5.36328,4.56836 -2.38282,-0.79493 -12.91015,-3.375 -4.86086,13.06694 c 8.96604,2.72424 20.31808,3.27114 27.71177,2.03234 6.43063,-1.07744 16.05734,-5.20372 20.33036,-10.96974 4.02364,-5.42951 9.60318,-12.54648 12.22172,-19.35192 3.62893,-9.4314 7.90661,-19.60908 10.13802,-29.46512 1.26026,-5.56643 1.19336,-17.08007 1.19336,-17.08007 z"
       sodipodi:nodetypes="cccccccccssssc" /><path
       id="path149"
       style="color:#000000;fill:#000000;-inkscape-stroke:none"
       d="M 181.04297 131.81055 C 181.04297 131.81055 172.82419 154.38426 169.79883 164.54688 C 166.38697 176.00779 161.09109 190.39148 162.61328 202.71094 C 163.70408 211.53906 166.96752 217.79592 173.69141 223.63281 C 181.74992 230.6283 193.77271 236.27593 204.49805 236.99609 C 209.48374 237.33086 215.55532 237.39414 221.01172 236.20898 C 226.4681 235.02384 231.42111 232.53541 233.7207 227.6582 C 234.46208 226.08582 234.39225 224.44214 233.86523 222.97656 C 233.33822 221.51098 232.40336 220.16864 231.36133 218.85938 C 229.27725 216.24086 226.75266 213.69113 225.80078 211.32617 C 221.66378 201.04773 217.14817 190.65064 216.33984 179.86133 C 216.18184 177.75234 216.65382 174.28867 217.1875 171.43164 C 217.72118 168.57461 218.29688 166.29492 218.29688 166.29492 L 216.26172 165.7793 C 216.26172 165.7793 215.66985 168.11767 215.12305 171.04492 C 214.57625 173.97217 214.05436 177.46033 214.24609 180.01953 C 215.09018 191.2862 219.73015 201.86967 223.85156 212.10938 C 225.06653 215.12797 227.75166 217.69888 229.7168 220.16797 C 230.69937 221.40252 231.49867 222.5975 231.89062 223.6875 C 232.28259 224.7775 232.31639 225.70957 231.82031 226.76172 C 229.89992 230.83463 225.68806 233.04575 220.56641 234.1582 C 215.44474 235.27065 209.52585 235.22854 204.63867 234.90039 C 194.55111 234.22305 182.76227 228.72586 175.06836 222.04688 C 169.89675 217.55748 167.03559 213.05453 165.56055 207.07227 C 165.78576 207.69651 166.02731 208.27993 166.29102 208.77539 C 168.66984 213.24479 172.2674 217.09734 176.25977 220.1582 C 179.78832 222.86349 184.00368 224.5244 188.11328 225.99219 C 190.14084 226.71635 194.24023 226.91211 194.24023 226.91211 C 194.24023 226.91211 190.26484 225.69855 188.45117 225.05078 C 184.3633 223.59075 180.24859 221.9562 176.86914 219.36523 C 172.96843 216.37464 169.46801 212.61503 167.17383 208.30469 C 166.40696 206.86389 165.72699 204.34214 165.26562 202.21289 C 164.80427 200.08364 164.54687 198.33789 164.54688 198.33789 L 164.46094 198.35156 C 164.45613 195.97295 164.66011 193.5169 165.02539 191.01758 C 165.16723 192.66265 165.34313 194.36425 165.54492 195.61133 C 165.9164 197.90705 166.3827 200.21993 167.1543 202.44727 C 168.06032 205.06264 171.00391 209.5332 171.00391 209.5332 C 171.00391 209.5332 168.93872 204.54331 168.09961 202.12109 C 167.35735 199.97846 166.89851 197.72082 166.53125 195.45117 C 166.15873 193.14899 165.86966 189.13976 165.73242 187.01562 C 167.24358 179.52903 169.80419 171.88614 171.81055 165.14648 C 174.78275 155.16237 183.01172 132.54102 183.01172 132.54102 L 181.04297 131.81055 z M 182.99805 135.07031 C 182.99805 135.07031 178.86513 146.90861 177.23633 151.6582 C 174.65209 159.19388 171.39805 166.59644 169.57422 174.45312 C 168.20221 180.36344 167.18986 186.44699 167.17578 192.55078 C 167.16878 195.43479 167.26479 198.47946 168.30273 201.2832 C 168.86851 202.81147 170.12593 204.69839 171.24805 206.24805 C 172.37017 207.7977 175.14692 210.77728 175.07422 210.72461 C 175.07422 210.72461 173.23781 207.11948 172.13867 205.60156 C 171.03954 204.08364 169.81368 202.1981 169.33398 200.90234 C 168.37923 198.32327 168.26842 195.40856 168.27539 192.55273 C 168.28919 186.56892 169.28322 180.56738 170.64453 174.70312 C 172.43747 166.9795 175.67115 159.60964 178.27539 152.01562 C 179.89991 147.27851 184.03516 135.4375 184.03516 135.4375 L 182.99805 135.07031 z M 184.58984 140.88086 C 184.58984 140.88086 182.15189 148.40479 181.00977 152.2168 C 179.6849 156.6387 178.40755 161.08028 177.22852 165.54883 C 175.71258 171.29416 173.49884 177.03853 172.9375 183.14844 C 172.55486 187.31326 172.75972 191.58915 173.64648 195.68945 C 174.49843 199.62874 176.0576 203.41625 177.99219 206.91602 C 180.12712 210.77821 186.19727 216.68164 186.19727 216.68164 C 186.19727 216.68164 181.24568 209.69922 179.30664 206.19141 C 177.42869 202.7941 175.92717 199.13637 175.11328 195.37305 C 174.26201 191.43689 174.06204 187.30809 174.43164 183.28516 C 174.96766 177.4509 177.13555 171.78386 178.67969 165.93164 C 179.85314 161.48431 181.12561 157.05961 182.44727 152.64844 C 183.57666 148.87889 186.01563 141.34375 186.01562 141.34375 L 184.58984 140.88086 z M 186.24609 142.86328 C 186.24609 142.86328 185.64266 148.53615 185.06055 151.26758 C 184.39592 154.38614 182.72266 160.67578 182.72266 160.67578 C 182.72266 160.67578 185.05919 154.62802 185.74414 151.41406 C 186.34659 148.58725 186.94141 142.9375 186.94141 142.9375 L 186.24609 142.86328 z M 188.81055 145.39648 C 188.81055 145.39648 185.64299 153.33419 184.61914 157.57812 C 183.23568 163.31271 182.67659 169.20204 182.12305 175.02734 C 181.6636 179.86234 180.97432 184.79104 181.42773 189.71875 C 181.96247 195.53026 183.45823 201.25497 185.42773 206.72266 C 187.00667 211.10603 191.52051 219.01466 191.95508 218.76758 C 191.95508 218.76758 187.87054 210.55288 186.36914 206.38477 C 184.4204 200.97474 182.94846 195.32868 182.42383 189.62695 C 181.98454 184.85277 182.65692 179.98529 183.11914 175.12109 C 183.67269 169.29573 184.22868 163.45469 185.58984 157.8125 C 186.56928 153.75265 189.74023 145.76562 189.74023 145.76562 L 188.81055 145.39648 z M 190.41602 147.13867 C 190.41602 147.13867 189.79762 153.81216 189.13086 157.0293 C 188.33441 160.87213 186.94407 164.59709 185.85938 168.42578 C 184.7532 172.33033 182.91797 180.23828 182.91797 180.23828 C 182.91797 180.23828 185.42831 172.51524 186.5332 168.61523 C 187.60749 164.82326 189.00543 161.08482 189.81641 157.17188 C 190.50448 153.85191 191.11328 147.20117 191.11328 147.20117 L 190.41602 147.13867 z M 193.54102 151.23242 C 193.54102 151.23242 193.37362 160.7088 193.14453 165.41797 C 192.86519 171.16009 192.73256 176.90327 191.95703 182.55273 C 191.2646 187.59682 188.19204 192.63537 188.77734 198.06836 C 189.31742 203.08162 192.09985 207.61399 194.81641 211.69727 C 197.98349 216.45773 206.6543 223.53516 206.6543 223.53516 C 206.6543 223.53516 198.63135 215.62326 195.65039 211.14258 C 192.94954 207.0829 190.27898 202.67179 189.77148 197.96094 C 189.23449 192.97631 192.2147 188.02592 192.94727 182.68945 C 193.73309 176.96493 193.86603 171.19176 194.14453 165.4668 C 194.37562 160.71639 194.54102 151.25 194.54102 151.25 L 193.54102 151.23242 z M 202.53711 160.76367 C 202.53711 160.76367 201.07527 169.18134 200.83984 173.55078 C 200.47471 180.32778 200.07863 187.28697 201.34766 194.0625 C 202.64142 200.97013 205.45031 207.51625 208.45117 213.78516 C 211.11799 219.35623 218.4707 228.99609 218.4707 228.99609 C 218.4707 228.99609 212.17718 218.5603 209.62305 213.22461 C 206.63819 206.98914 203.88337 200.54088 202.625 193.82227 C 201.39483 187.25416 201.77343 180.39814 202.13867 173.61914 C 202.36317 169.45254 203.81836 160.98438 203.81836 160.98438 L 202.53711 160.76367 z M 181.62891 162.75977 C 181.62891 162.75977 178.70533 171.20842 178.24414 175.61523 C 178.20028 176.03433 178.17369 176.45468 178.14453 176.875 C 177.74701 179.26049 176.90247 184.89155 177.20898 188.21484 C 177.52422 191.63264 178.59886 194.93148 179.70898 198.12891 C 180.1875 199.50715 181.20345 201.43708 181.99414 202.86328 C 182.23305 203.52122 182.48583 204.17359 182.75781 204.81836 C 183.98513 207.72787 187.68555 212.91016 187.68555 212.91016 C 187.68555 212.91016 185.06501 207.26245 184.07422 204.31836 C 182.47681 199.5717 181.08691 194.71753 180.33789 189.76562 C 179.63707 185.13239 179.41028 180.40439 179.65039 175.72461 C 179.87437 171.35903 181.62891 162.75977 181.62891 162.75977 z M 208.05078 163.22852 C 208.05078 163.22852 206.10167 173.60518 206.15234 179.05273 C 206.21304 185.58141 206.90794 192.24024 208.86523 198.51953 C 210.73992 204.53377 214.01594 209.99755 217.2793 215.26367 C 219.43698 218.74557 225.02539 224.42773 225.02539 224.42773 C 225.02539 224.42773 220.4977 217.79834 218.4707 214.52734 C 215.21518 209.27384 212.00934 203.90434 210.20117 198.10352 C 208.29962 192.00309 207.61263 185.47898 207.55273 179.04102 C 207.50543 173.95358 209.42773 163.48438 209.42773 163.48438 L 208.05078 163.22852 z M 198.11328 164.05273 C 198.11328 164.05273 197.16681 175.74269 197.41602 181.64453 C 197.66376 187.5117 197.54049 193.58793 199.21875 199.31836 C 200.1047 202.34346 202.19762 206.4649 204.07227 209.85742 C 205.9469 213.24995 207.94336 215.69141 207.94336 215.69141 C 207.94336 215.69141 206.63687 212.84295 204.77344 209.4707 C 202.91 206.09847 200.83124 201.97872 199.98633 199.09375 C 198.35413 193.52059 198.464 187.51205 198.21484 181.61133 C 197.96963 175.80397 198.11328 164.05273 198.11328 164.05273 z M 212.91406 164.82227 C 212.91406 164.82227 211.45559 174.02207 211.61328 179.86328 C 211.76709 185.5607 212.10298 192.32177 214.33398 199.06055 C 215.47667 202.51202 218.19391 207.46651 220.63672 211.62305 C 223.07953 215.77958 225.91797 218.66797 225.91797 218.66797 C 225.91797 218.66797 224.43981 214.93403 222.01758 210.8125 C 219.59535 206.69097 216.89909 201.71481 215.85352 198.55664 C 213.708 192.07612 213.3659 185.48786 213.21289 179.82031 C 213.06377 174.29657 214.49414 165.06836 214.49414 165.06836 L 212.91406 164.82227 z M 189.27539 168.22266 C 189.27539 168.22266 187.82882 180.36317 187.38672 186.45898 C 187.11142 190.25491 186.32537 194.11742 186.5918 198.04688 C 186.91317 202.78668 187.50019 207.7267 189.51562 212.125 C 190.27515 213.78249 191.85281 215.81627 193.25 217.47656 C 194.64719 219.13685 196.22656 220.05859 196.22656 220.05859 C 196.22656 220.05859 195.39006 218.46724 194.01562 216.83398 C 192.6412 215.20074 191.09024 213.16328 190.42383 211.70898 C 188.49626 207.50248 187.90877 202.68417 187.58984 197.98047 C 187.33553 194.22976 188.10129 190.41296 188.38281 186.53125 C 188.82441 180.4425 189.27539 168.22266 189.27539 168.22266 z M 178.04492 179.53125 C 178.03183 183.02189 178.42597 186.5303 178.94727 189.97656 C 179.40864 193.02686 179.98238 196.0896 180.79883 199.07422 C 180.63896 198.64787 180.49024 198.24161 180.37109 197.89844 C 179.26407 194.70995 178.21187 191.46389 177.90625 188.15039 C 177.69748 185.8869 177.86004 182.2933 178.04492 179.53125 z " /><path
       style="fill:#000000;stroke:none;stroke-width:1px;stroke-linecap:butt;stroke-linejoin:miter;stroke-opacity:1;fill-opacity:0.30000001"
       d="m 181.52929,131.47964 -5.56107,16.286 -10.67235,34.94457 -1.68526,13.90339 0.98306,13.62252 7.72411,10.81375 9.69024,7.44323 12.92032,5.33665 13.48208,2.24701 14.60558,-1.26394 8.98805,-5.75797 1.12351,-4.63447 -1.8257,-3.37051 -7.30279,-10.67331 -8.4263,-24.71714 -0.28087,-8.28586 2.24701,-13.90339 -18.39742,-12.35857 -12.63944,-13.90339 z"
       id="path166" /><path
       style="fill:#000000;stroke:none;stroke-width:1px;stroke-linecap:butt;stroke-linejoin:miter;stroke-opacity:1;fill-opacity:0.2"
       d="m 181.52929,131.47964 -5.56107,16.286 -10.67235,34.94457 -1.68526,13.90339 0.98306,13.62252 7.72411,10.81375 9.69024,7.44323 12.92032,5.33665 13.48208,2.24701 14.60558,-1.26394 8.98805,-5.75797 1.12351,-4.63447 -1.8257,-3.37051 -7.30279,-10.67331 -8.4263,-24.71714 -0.28087,-8.28586 2.24701,-13.90339 -18.39742,-12.35857 -12.63944,-13.90339 z"
       id="path167" /></g><g
     inkscape:groupmode="layer"
     id="layer2"
     inkscape:label="Hair Front"
     sodipodi:insensitive="true"><path
       style="fill:#383838;fill-opacity:1;stroke:none;stroke-width:1px;stroke-linecap:butt;stroke-linejoin:miter;stroke-opacity:1"
       d="m 336.53419,70.714207 2.76471,-2.320761 4.21315,-4.91534 2.24702,-7.302791 V 48.310771 L 344.91644,45.642444 334.524,36.09264 319.21623,27.385466 298.99312,21.065743 276.9443,19.240046 l -20.22311,1.685259 -23.03188,6.319723 -18.67829,9.128489 -12.07769,9.549803 -7.16236,11.796817 -6.6006,22.610564 -1.68526,18.397416 -1.1235,8.285863 -2.66833,9.12848 -3.08964,10.67331 1.96613,9.12849 9.69025,13.34164 10.25199,9.83068 7.58367,4.91534 10.25199,1.8257 h 8.00499 c 0,0 -1.7403,-1.99793 -2.10658,-3.23008 -0.6803,-2.28847 0,-4.7749 0,-7.16235 0,-0.60857 0.11669,-1.22843 0,-1.8257 -0.31004,-1.5869 -1.56865,-2.89769 -1.8257,-4.49403 -0.22376,-1.3896 -0.0652,-2.84887 0.28088,-4.21315 0.77263,-3.04556 3.93227,-8.56673 3.93227,-8.56673 0,0 -0.6411,-2.88491 -0.70219,-4.35359 -0.0507,-1.21967 0.45881,-2.4437 0.28088,-3.65139 -0.22682,-1.53951 -1.56227,-2.80233 -1.68526,-4.35359 -0.10595,-1.33632 0.6279,-2.60907 0.84263,-3.93227 0.20371,-1.2553 0.42131,-3.79184 0.42131,-3.79184 0,0 -0.38129,-2.95337 0,-4.35358 0.24259,-0.89086 1.40439,-2.38746 1.40439,-2.38746 0,0 -0.0165,-3.78256 0.70219,-5.47709 0.35111,-0.82786 1.68526,-2.10657 1.68526,-2.10657 0,0 -1.12385,-2.018095 -0.98307,-3.089645 0.18099,-1.377641 2.24701,-3.510957 2.24701,-3.510957 0,0 -0.66788,-4.503184 -0.42131,-6.741038 0.3044,-2.762703 0.94025,-3.365915 0.97097,-3.824109 0.0169,-0.25162 -0.68928,-1.763079 -0.26878,-2.320066 1.75919,-2.33022 4.47114,-6.275489 4.47114,-6.275489 0,0 -1.7314,-2.659526 -0.7774,-3.493919 0.68417,-0.598398 5.05164,0.06523 5.05164,0.06523 0,0 -1.53017,-2.39435 -0.4313,-3.360539 0.63281,-0.5564 3.12372,-1.092353 3.12372,-1.092353 0,0 0.10892,-2.464716 0.86673,-3.024413 0.22905,-0.169171 2.92804,0.85261 2.92804,0.85261 0,0 -1.33975,-2.398343 0.60994,-4.377683 0.23229,-0.235824 1.97612,0.356086 1.97612,0.356086 0,0 0.35181,-3.715568 1.94909,-4.055672 0.29318,-0.06243 1.89385,0.859667 1.89385,0.859667 0,0 1.85686,-3.949309 2.13773,-3.106679 0.28088,0.842629 1.27392,2.901013 1.27392,2.901013 l 1.40438,-0.48241 c 0,0 0.64553,-2.408914 2.07251,-2.278165 0.8967,0.08216 1.36324,2.883975 1.36324,2.883975 0,0 0.57821,-4.686796 2.38745,-5.617532 0.38379,-0.197434 1.26395,0.280877 1.26395,0.280877 0,0 2.33693,-2.586203 3.93227,-2.808766 0.68925,-0.09616 2.76058,1.794546 2.76058,1.794546 0,0 1.34142,-2.692393 2.57608,-2.637176 0.75408,0.03372 1.96613,1.123507 1.96613,1.123507 0,0 2.94022,-1.27536 4.35359,-0.84263 0.31651,0.09691 0.70219,0.702191 0.70219,0.702191 l 2.10658,-0.280876 c 0,0 4.21436,-2.504834 5.68775,-1.334164 1.14563,0.910251 1.53277,3.586167 1.53277,3.586167 0,0 1.76046,-2.111385 3.31234,-2.252004 0.85713,-0.07767 1.96614,2.247013 1.96614,2.247013 0,0 5.07421,-2.451944 6.6006,-0.842629 0.36017,0.379741 -0.28087,1.544821 -0.28087,1.544821 0,0 4.51796,-3.231079 5.61753,-1.825698 0.27366,0.34977 0.70219,1.825698 0.70219,1.825698 0,0 0.50333,0.381563 1.26394,0.84263 1.03852,0.629534 4.63446,0.140438 4.63446,0.140438 0,0 2.03849,-0.862832 3.37052,1.263944 0.28332,0.452349 1.40439,1.544822 1.40439,1.544822 0,0 1.78519,-0.80532 2.9492,-0.140439 0.51417,0.293696 0.58585,1.438459 0.58585,1.438459 0,0 3.17657,-0.02736 4.64857,0.886687 0.56941,0.353577 2.19335,0.477723 2.21587,1.147602 0.0572,1.703048 0.11634,3.47688 0.11634,3.47688 0,0 1.48545,0.568895 2.68537,1.055355 0.66222,0.268469 0.85981,1.376834 1.26395,1.966136 0.72701,1.060097 1.16755,3.584705 1.16755,3.584704 z"
       id="path109"
       sodipodi:nodetypes="ccccccccccccccccccccccccccssssscsssscscscscssscscscscscscsccscscscscsccscscscscscscscsscssc" /><path
       id="path111"
       style="fill:#ffffff;fill-opacity:0.3;stroke:none;stroke-width:1px;stroke-linecap:butt;stroke-linejoin:miter;stroke-opacity:1"
       d="m 290.98828,19.380859 -4.49414,0.140625 c 0,0 9.80169,2.600885 14.60547,4.212891 6.18296,2.074821 12.56241,3.847018 18.33008,6.875 0.0922,0.250909 0.37643,1.035274 0.71875,2.15625 0.40259,1.318349 0.80935,2.928569 0.85547,3.916016 0.0484,1.036763 -0.2193,2.753169 -0.50977,4.164062 -0.29047,1.410895 -0.29492,4.234375 -0.29492,4.234375 0,0 1.1723,-2.544718 1.4707,-3.99414 0.2984,-1.449422 0.59322,-3.174087 0.5332,-4.458985 -0.0577,-1.235579 -0.49216,-2.854969 -0.90624,-4.210937 -0.10096,-0.330603 -0.20103,-0.641984 -0.29493,-0.927735 4.20618,2.453332 7.89362,5.744414 11.55664,8.957031 4.7284,4.146995 13.3418,13.341797 13.3418,13.341797 l -0.5625,-7.443359 -5.89844,-6.599609 -14.60547,-9.550782 -16.43164,-6.880859 z m -14.32617,5.335938 c 0,0 3.04253,4.349739 4.10937,6.609375 0.74325,1.574217 1.85938,5.1875 1.85938,5.1875 0,0 -0.38849,-3.711249 -1.22656,-5.486328 -1.16169,-2.460496 -4.74219,-6.310547 -4.74219,-6.310547 z m -9.26758,0.210937 c 0,0 1.74254,2.129314 3.10156,3.728516 1.35904,1.599202 2.88428,3.601486 3.51172,5.011719 0.47421,1.065819 1.12078,2.843171 1.33594,4.453125 0.21516,1.609952 0.61914,4.572265 0.61914,4.572265 0,0 0.51016,-2.935487 0.28906,-4.589843 -0.22109,-1.654358 -0.55691,-3.598709 -1.14648,-4.923828 -0.74281,-1.669532 -2.30728,-3.667441 -3.69531,-5.300782 -1.38805,-1.633334 -4.01563,-2.951172 -4.01563,-2.951172 z m 19.23828,0.210938 c 0,0 1.19183,3.909593 1.6211,5.732422 0.48871,2.075253 1.33007,8.380859 1.33007,8.380859 0,0 0.19154,-6.288556 -0.35546,-8.611328 -0.48756,-2.070349 -2.59571,-5.501953 -2.59571,-5.501953 z m 5.47852,0.841797 c 0,0 1.80368,4.494832 2.42187,6.615234 0.61715,2.116844 1.50977,6.867188 1.50977,6.867188 0,0 0.25079,-4.75463 -0.45508,-7.175782 -0.70691,-2.424707 -3.47656,-6.30664 -3.47656,-6.30664 z m 12.91992,2.667969 c 0,0 0.30272,3.771968 0.34375,5.490234 0.0396,1.65983 -0.0605,5.324219 -0.0605,5.324219 0,0 1.10634,-3.431088 1.06055,-5.347657 -0.0472,-1.975026 -1.34375,-5.466796 -1.34375,-5.466796 z M 255.59766,29.5625 c 0,0 1.79743,2.122399 2.51562,2.791016 0.71819,0.668615 1.55145,1.513672 1.94727,2.085937 0.55768,0.806285 1.28408,1.889036 1.8789,3.087891 0.78856,1.589359 1.66407,4.042968 1.66407,4.042968 0,0 -0.26754,-2.769871 -0.78711,-4.037109 -0.51958,-1.267238 -1.18168,-2.75025 -1.85157,-3.71875 -0.50802,-0.734482 -1.36045,-1.575672 -2.10156,-2.265625 -0.74111,-0.689953 -3.26562,-1.986328 -3.26562,-1.986328 z m 56.17578,0.490234 c 0,0 0.929,3.928289 1.34179,5.833985 0.33981,1.568747 1.04493,4.839843 1.04493,4.839843 0,0 0.002,-3.321898 -0.35938,-4.988281 -0.43394,-2.003326 -2.02734,-5.685548 -2.02734,-5.685547 z m 3.93164,1.404297 c 0,0 0.3494,4.510881 0.34375,6.59961 -0.004,1.287404 -0.0625,4.214843 -0.0625,4.214843 0,0 1.05819,-2.664736 1.0625,-4.210937 0.006,-2.347357 -1.34375,-6.603516 -1.34375,-6.603516 z m -64.46094,1.544922 c 0,0 3.48916,2.471221 5.05469,3.722656 1.16318,0.929814 3.65234,3.019532 3.65234,3.019532 0,0 -1.77085,-2.668298 -3.08984,-3.722657 -1.72133,-1.375978 -5.61719,-3.019531 -5.61719,-3.019531 z m -6.67187,2.527344 c 0,0 2.97244,2.593318 3.83398,3.416015 1.16984,1.1171 4.03125,4.169922 4.03125,4.169922 0,0 -2.13392,-3.601622 -3.41016,-4.820312 -0.96793,-0.924293 -4.45507,-2.765625 -4.45507,-2.765625 z m -4.70508,1.828125 c 0,0 3.35861,1.950371 4.82422,2.99414 1.5321,1.091126 4.58593,3.746094 4.58593,3.746094 0,0 -2.41586,-3.184021 -4.12109,-4.398437 -1.63873,-1.167063 -5.28906,-2.341797 -5.28906,-2.341797 z m -5.19531,4.914062 c 0,0 4.12385,2.080102 5.99414,3.246094 1.1495,0.716642 3.55664,2.371094 3.55664,2.371094 0,0 -1.90306,-2.165299 -3.18555,-2.964844 -2.00327,-1.248895 -6.36523,-2.652344 -6.36523,-2.652344 z" /><path
       id="path34"
       style="color:#000000;fill:#000000;-inkscape-stroke:none"
       d="m 275.70312,17.677734 c -4.60076,0.01014 -9.19289,0.347767 -13.71874,1.097657 -17.86234,2.959658 -35.75982,9.156565 -50.87696,19.236328 -5.44258,3.62899 -10.15171,8.60901 -13.44726,14.263672 -5.77893,9.91568 -7.97924,21.494092 -10.0625,32.52539 -1.37445,7.277907 -0.40049,14.625062 -1.5918,21.464839 -1.21488,6.97515 -5.95611,13.75639 -5.97461,21.63672 -0.008,3.27938 1.13054,6.43254 2.49609,9.22461 2.70309,5.52686 6.7999,10.2193 10.91407,14.57227 4.49903,4.76018 9.15779,10.11062 15.43945,12.95703 3.07732,1.39443 7.67469,2.05566 11.58789,2.4375 3.9132,0.38184 8.68164,-1.2207 8.68164,-1.2207 0,0 -4.64881,-0.59601 -8.46875,-0.96875 -3.81994,-0.37274 -8.35832,-1.10361 -10.89258,-2.25196 -5.70113,-2.58335 -10.21257,-7.66404 -14.75,-12.46484 -4.07121,-4.30753 -8.0027,-8.84936 -10.53515,-14.02734 -0.58161,-1.18917 -1.08658,-2.42749 -1.48243,-3.67969 1.65722,0.39604 4.85777,1.12468 6.8125,1.33398 2.50057,0.26776 7.38477,-0.25 7.38477,-0.25 0,0 -4.93948,-0.19333 -7.31055,-0.44726 -2.06854,-0.2215 -5.69192,-1.07093 -7.11132,-1.41407 -0.34348,-1.26558 -0.56716,-2.54056 -0.56446,-3.79492 v -0.002 c 0.0172,-6.96023 4.6098,-13.61639 5.94141,-21.26172 0.16068,-0.92253 0.28283,-1.84656 0.38086,-2.76953 0.70027,-0.86459 1.67161,-2.01493 2.34179,-2.60742 1.54547,-1.366313 5.38282,-3.615236 5.38282,-3.615236 l 0.002,-0.002 3.91797,-2.914063 -4.42188,2.050781 c 0,0 -3.80064,2.192078 -5.54296,3.732418 -0.47091,0.41632 -1.02031,1.01294 -1.53711,1.61133 0.42558,-5.779267 0.0416,-11.516163 1.0625,-16.921873 2.08245,-11.027019 4.27631,-22.345143 9.80078,-31.824218 3.11867,-5.35116 7.61159,-10.105073 12.76757,-13.542969 2.77331,-1.849179 5.6724,-3.524093 8.625,-5.113281 2.02123,-0.442567 7.2299,-1.528147 10.1504,-1.597657 4.53208,-0.107866 9.21289,-0.04521 13.3457,1.509766 0.87411,0.328886 2.19227,0.942112 3.24219,1.748047 1.04991,0.805935 2.64062,1.951172 2.64062,1.951172 0,0 -0.88723,-1.709318 -1.9707,-2.541016 -1.08348,-0.831698 -2.39824,-1.764141 -3.52344,-2.1875 -4.37805,-1.647257 -9.20107,-1.688577 -13.75977,-1.580078 -1.8364,0.04371 -4.41027,0.446192 -6.65039,0.863281 3.47518,-1.718399 7.05214,-3.255847 10.69336,-4.642578 1.43656,-0.276541 2.86005,-0.505046 3.92579,-0.556641 3.16315,-0.153134 6.40107,0.0178 9.40234,0.894532 0.97896,0.285974 2.4525,1.032239 3.65039,1.703125 1.19788,0.670885 3.2168,1.65625 3.2168,1.65625 0,0 -1.55607,-1.757418 -2.77735,-2.441407 -1.22128,-0.683987 -2.69669,-1.447883 -3.83789,-1.78125 -3.06959,-0.896688 -6.3269,-1.078097 -9.48633,-0.939453 1.90712,-0.654702 3.82551,-1.268458 5.75977,-1.83789 0.25321,-0.01038 0.50251,-0.02239 0.7793,-0.0293 1.60095,-0.03993 3.52358,0.0068 4.66992,0.283203 2.29517,0.5535 4.48458,1.730469 6.42383,3.148437 0.53058,0.387964 1.30517,1.185849 1.91796,1.873047 0.61281,0.687199 2.3086,2.427735 2.3086,2.427735 0,0 -0.93116,-2.385768 -1.5625,-3.09375 -0.63134,-0.707984 -1.40209,-1.524165 -2.07422,-2.015625 -2.01539,-1.473646 -4.31197,-2.717484 -6.7793,-3.3125 -0.63429,-0.152967 -1.39753,-0.238379 -2.19531,-0.283203 1.16867,-0.311565 2.3431,-0.585567 3.51758,-0.867188 1.67997,0.186777 4.95539,0.59784 6.70117,1.132813 2.08921,0.640213 4.13785,1.508745 5.89844,2.740234 0.71835,0.502463 1.373,0.920887 2.81445,2.398437 -0.53019,-1.227856 -1.27804,-2.544357 -2.24219,-3.21875 -1.87773,-1.313433 -4.02175,-2.216277 -6.17773,-2.876953 -1.13161,-0.346766 -2.72528,-0.626523 -4.19727,-0.83789 1.86028,-0.407627 3.72396,-0.764927 5.58985,-1.09961 1.49458,0.06592 3.06474,0.227159 4.04687,0.550782 1.94026,0.639331 3.69371,1.964281 5.2793,3.396484 1.59696,1.442474 4.72266,5.068359 4.72266,5.068359 0,0 -2.11994,-4.200694 -3.98438,-5.884765 -1.63299,-1.475023 -3.49477,-2.906981 -5.67383,-3.625 -0.15489,-0.05104 -0.31806,-0.09727 -0.48633,-0.140625 3.4151,-0.47467 6.86988,-0.727363 10.34375,-0.775391 0.94711,0.73656 2.34749,1.8698 3.05079,2.654297 0.91485,1.020503 3.35156,4.261719 3.35156,4.261719 0,0 -1.78625,-3.564157 -2.83008,-4.728516 -0.61095,-0.681495 -1.60729,-1.527553 -2.46875,-2.216797 4.17431,-0.0085 8.3652,0.271803 12.53125,0.751953 0.98893,0.547605 2.10226,1.205409 2.7793,1.740235 1.61491,1.275705 3.00553,2.92542 3.9375,4.75 0.95319,1.866141 2.90429,7.005859 2.90429,7.005859 0,0 -0.92163,-5.32297 -2.01367,-7.460937 -1.00381,-1.965239 -2.48454,-3.717845 -4.20898,-5.080078 -0.26194,-0.206919 -0.56949,-0.422364 -0.89844,-0.638672 2.46686,0.334383 4.92408,0.723009 7.35547,1.185546 1.74901,0.332725 3.48714,0.739594 5.21875,1.179688 l -0.0566,0.06445 c 0,0 0.80386,0.713582 1.72265,1.664063 0.91881,0.95048 1.94622,2.167248 2.33399,2.976562 0.84449,1.762555 1.03949,3.89195 1.06055,5.97461 0.0352,3.478821 -0.73349,6.99311 -1.66211,10.427734 -0.75696,2.79969 -2.67383,8.666016 -2.67383,8.666016 0,0 3.09869,-5.259846 3.92773,-8.326172 0.93931,-3.47412 1.74398,-7.101715 1.70703,-10.779297 v -0.002 c -0.0218,-2.149707 -0.20123,-4.469044 -1.18554,-6.523438 -0.53702,-1.12082 -1.6157,-2.326864 -2.57227,-3.316406 -0.065,-0.06721 -0.12187,-0.122702 -0.18555,-0.1875 6.87096,1.946631 13.55841,4.685149 19.86524,8.005859 3.34876,1.763207 9.6142,5.730392 14.64453,10.265625 0.36151,0.325928 0.70149,0.663608 1.04883,0.998047 0.0249,0.109959 0.0552,0.226895 0.0723,0.326172 0.11172,0.651502 0.21383,1.286856 0.23829,1.703125 0.15381,2.617042 -0.44792,5.347598 -1.50586,7.777344 -1.41967,3.260466 -2.74679,5.493202 -5.31082,8.045924 -1.81367,1.805663 -3.43878,3.175738 -3.43878,3.175738 0,0 1.91008,-0.688824 3.94525,-2.715016 2.61164,-2.600118 4.22637,-4.672521 5.72231,-8.108209 1.11183,-2.553476 1.75102,-5.42567 1.58594,-8.234375 -0.0152,-0.258689 -0.0695,-0.535224 -0.13867,-0.814453 0.72897,0.749424 1.34518,1.447039 1.97461,2.164063 0.0885,0.507188 0.18065,1.004628 0.26758,1.408203 0.2977,1.382068 0.58122,3.065178 0.5664,4.076172 -0.0568,3.872694 -0.52538,7.909752 -2.29882,11.197265 -0.79377,1.471433 -1.65557,2.967915 -3.44559,4.818968 -1.62153,1.676815 -3.1875,3.160157 -3.1875,3.160157 0,0 2.03393,-0.867758 3.82124,-2.462802 1.78731,-1.595043 3.05999,-3.027678 4.04427,-4.85226 1.94982,-3.614469 2.40856,-7.871178 2.46679,-11.839844 0.0143,-0.975491 -0.16489,-2.195789 -0.38671,-3.353516 1.44022,1.786997 2.35351,3.09961 2.35351,3.09961 l -4.06445,-8.289063 c 0,0 -2.42004,-2.851026 -5.41602,-5.242187 -3.63053,-2.897618 -8.66112,-6.212169 -12.53515,-8.251953 -8.79351,-4.630016 -18.31979,-8.174408 -28.11133,-10.03711 -5.96417,-1.134598 -12.07948,-1.933841 -18.21289,-2.199218 -1.53336,-0.06634 -3.06798,-0.09908 -4.60157,-0.0957 z m 9.10547,6.125 c 0,0 1.0936,7.251532 1.46875,10.796875 0.32847,3.104214 0.50541,6.234336 0.2793,9.320313 -0.19749,2.695319 -0.97656,8.322266 -0.97656,8.322266 0,0 1.7621,-5.347678 1.97461,-8.248047 0.23248,-3.172937 0.0487,-6.361411 -0.28321,-9.498047 -0.39104,-3.695521 -2.46289,-10.69336 -2.46289,-10.69336 z m 16.92188,1.75586 c 0,0 0.93352,3.440515 1.0957,4.322265 0.54751,2.976627 0.45232,6.101919 0.13477,9.169922 -0.29402,2.840615 -0.76038,5.695035 -1.85156,8.251953 -0.44787,1.049471 -1.05063,2.401381 -1.95369,3.66239 -0.90306,1.26101 -1.35612,2.47173 -1.35612,2.47173 0,0 0.88801,-0.770505 1.90941,-1.983169 1.20403,-1.429486 1.97076,-2.430964 2.50391,-3.680247 1.16887,-2.738949 1.64261,-5.712864 1.94141,-8.59961 0.32352,-3.125696 0.43244,-6.362338 -0.14649,-9.509766 -0.23429,-1.2738 -2.27734,-4.105468 -2.27734,-4.105468 z m -10.46094,0.07031 c 0,0 0.43339,6.19879 0.5332,9.214844 0.095,2.870799 -0.1199,5.761991 -0.34961,8.65625 -0.21726,2.737712 -0.53515,8.320312 -0.53515,8.320312 0,0 1.20883,-5.440558 1.43164,-8.248046 0.17019,-2.144414 0.33282,-4.304589 0.36719,-6.472657 0.12816,1.421762 0.3589,4.016723 0.4707,5.759766 0.1369,2.134247 0.33464,4.27465 -0.0645,6.287109 -0.37184,1.875248 -0.71087,2.489014 -1.5028,4.642586 1.41928,-1.781994 2.26971,-4.396281 2.28795,-4.488289 0.42956,-2.166392 0.21396,-4.37496 0.0781,-6.492187 -0.13133,-2.04739 -0.99233,-5.47827 -1.26563,-6.533203 -10e-5,-0.486868 -0.003,-0.973424 -0.0195,-1.460938 -0.10418,-3.147952 -1.43164,-9.185547 -1.43164,-9.185547 z m 6.95117,0.84375 c 0,0 1.0556,4.56949 1.33789,6.785156 0.34439,2.703094 0.25936,5.470394 0.0684,8.216797 -0.20639,2.967183 -0.98437,9.011719 -0.98437,9.011719 0,0 1.46964,-5.886999 1.68359,-8.96289 0.19229,-2.764376 0.28155,-5.576812 -0.0723,-8.353516 -0.30317,-2.379512 -2.03321,-6.697265 -2.03321,-6.697266 z m -20.29297,2.03711 c 0,0 0.74657,4.696027 1.41993,8.003906 0.46147,2.267005 0.78443,7.493925 0.1383,11.113281 -0.23037,1.290435 -1.1383,4.474609 -1.1383,4.474609 0,0 1.85328,-2.840241 2.16415,-4.581564 0.68675,-3.84683 0.74546,-8.649748 0.20889,-11.285623 -0.70014,-3.439508 -2.79297,-7.724609 -2.79297,-7.724609 z m -34.2207,0.263672 c -1.11132,-0.0038 -2.64453,0.367187 -2.64453,0.367187 0,0 1.7277,0.278201 2.82227,0.337891 1.09455,0.05967 2.40734,0.188687 3.1875,0.419922 2.50328,0.741994 4.83681,2.122633 6.98632,3.669921 1.21017,0.871113 3.64649,3.015625 3.64649,3.015625 0,0 -1.86688,-2.598209 -3.23633,-3.583984 -2.18403,-1.572126 -4.58118,-2.99801 -7.19727,-3.773438 -0.91024,-0.269796 -2.2316,-0.386425 -3.34765,-0.447265 -0.0697,-0.0038 -0.14271,-0.0056 -0.2168,-0.0059 z m 19.61524,0.578124 c 0,0 2.07146,5.0679 2.79492,7.47461 0.96271,3.202651 1.409,6.59088 1.51953,9.958984 0.0847,2.58159 -0.10156,8.126953 -0.10156,8.126953 0,0 1.39483,-5.300127 1.30078,-8.166015 -0.11313,-3.447468 -0.56799,-6.935752 -1.56836,-10.263672 -0.82014,-2.728348 -3.94531,-7.13086 -3.94531,-7.13086 z m 19.73046,0.07031 c 0,0 0.90669,5.183035 1.14649,7.691406 0.25743,2.692905 0.17784,5.429972 -0.0703,8.140625 -0.19114,2.087793 -0.72461,6.427735 -0.72461,6.427735 0,0 1.31829,-4.134023 1.52148,-6.353516 0.2512,-2.74382 0.33413,-5.531494 0.0703,-8.291016 -0.25558,-2.673479 -1.94336,-7.615234 -1.94336,-7.615234 z m 33.92969,0.517578 c 0,0 0.85108,4.96615 0.9375,6.595703 0.1105,2.084501 -0.0776,4.207336 -0.5293,6.251953 -0.53533,2.42333 -1.43152,4.793952 -2.5664,7.021485 -0.96822,1.900417 -2.64333,5.608075 -2.64333,5.608075 0,0 2.84697,-2.703978 3.97927,-4.926435 1.18498,-2.325869 2.1283,-4.812242 2.69531,-7.378906 0.47989,-2.172288 0.6806,-4.428225 0.5625,-6.65625 -0.10818,-2.039716 -2.43555,-6.515625 -2.43555,-6.515625 z m -47.20117,0.675781 c 0,0 1.28863,3.967485 1.8125,5.783204 0.79787,2.765373 1.17209,5.674279 1.38086,8.583984 0.19346,2.69641 0.45898,8.384766 0.45898,8.384766 0,0 0.94689,-5.563218 0.73829,-8.470704 -0.21201,-2.955011 -0.5937,-5.946098 -1.42579,-8.830078 -0.60416,-2.094006 -2.96484,-5.451172 -2.96484,-5.451172 z m 57.03125,2.25586 c 0,0 -0.4589,3.015806 -0.5957,4.001953 -0.36022,2.597062 -1.17137,4.629162 -2.29102,7.058594 -1.26535,2.745583 -2.65147,5.168449 -4.41992,7.613281 -1.77692,2.456539 -3.07252,4.230437 -3.07252,4.230437 0,0 1.94173,-0.960659 3.88307,-3.6445 1.80695,-2.498078 3.22954,-4.986428 4.51757,-7.78125 0.67617,-1.467151 1.25451,-2.828238 1.69336,-4.267578 -0.20897,1.240504 -0.45724,2.56697 -0.69336,3.429688 -0.81468,2.97678 -2.38334,5.758885 -3.92773,8.529297 -1.17145,2.101405 -3.01651,4.974616 -3.01651,4.974616 0,0 2.64456,-2.251456 3.89151,-4.488288 1.54228,-2.766628 3.15886,-5.612367 4.01758,-8.75 0.46357,-1.693836 0.36516,-4.532699 0.27734,-5.957032 0.0482,-0.266201 0.0944,-0.533388 0.13281,-0.810546 0.17409,-1.255197 -0.39648,-4.138672 -0.39648,-4.138672 z m -93.0293,1.595703 c -2.17105,0.04037 -5.64257,0.853515 -5.64258,0.853515 0,0 4.10155,0.08055 6.02344,0.148438 2.00269,0.07074 4.00958,0.160236 5.83203,0.748047 1.01465,0.327261 2.5418,1.144116 3.78125,1.873047 1.23945,0.72893 3.25391,1.654297 3.25391,1.654297 0,0 -1.48366,-1.77398 -2.74805,-2.517579 -1.26439,-0.743597 -2.79234,-1.577722 -3.98047,-1.960937 -1.99608,-0.643814 -4.09644,-0.725978 -6.10351,-0.796875 -0.13177,-0.0047 -0.27128,-0.0046 -0.41602,-0.002 z m 77.07618,1.625 c 0,0 -0.7251,2.933097 -1.01563,3.964844 -0.75966,2.697815 -1.79743,5.328547 -2.99609,7.873047 -1.0639,2.258433 -2.79967,5.858728 -2.79967,5.858728 0,0 2.40622,-3.147684 3.52232,-5.516932 1.21336,-2.575699 2.26856,-5.247848 3.04297,-7.998046 0.32913,-1.168839 0.2461,-4.181641 0.2461,-4.181641 z m 19.57812,0.402344 c 0,0 0.0995,3.002793 0.0469,4.353515 -0.063,1.615313 -0.42413,3.236788 -0.87891,4.822266 -0.50072,1.745623 -1.12715,3.464475 -2,5.029297 -1.31529,2.358025 -4.66602,6.947265 -4.66602,6.947265 0,0 3.94699,-4.019465 5.36328,-6.558593 0.91478,-1.639984 1.56119,-3.415488 2.07227,-5.197266 0.46359,-1.616192 0.84142,-3.298779 0.9082,-5.011719 0.0614,-1.575184 -0.8457,-4.384765 -0.8457,-4.384765 z m -77.64844,0.300781 c 0,0 0.96823,1.483215 2.48633,2.941406 1.5181,1.458193 3.26281,3.286991 4.11328,4.628906 1.6443,2.594436 2.64839,5.635633 3.30469,8.685547 0.46146,2.144306 0.91016,6.916016 0.91016,6.916016 0,0 0.5916,-4.686521 0.0664,-7.126953 -0.67154,-3.12074 -1.7029,-6.272853 -3.4375,-9.009766 -0.9573,-1.510472 -2.72276,-3.334353 -4.26367,-4.814453 -1.54091,-1.4801 -3.17969,-2.220702 -3.17969,-2.220703 z m 59.61524,0.982422 c 0,0 -0.088,4.843539 -0.2268,6.800687 -0.19012,2.681273 -0.29023,4.052002 -1.18977,6.426669 -0.54892,1.449056 -1.14617,2.993261 -1.14617,2.993261 0,0 1.27691,-1.210145 1.94332,-2.657183 1.06636,-2.315477 0.95015,-4.2736 1.30496,-6.670856 0.30472,-2.05878 -0.68554,-6.892577 -0.68554,-6.892578 z m -58.98242,0.07031 c 0,0 2.3311,4.338487 3.18359,6.517578 1.29783,3.317431 2.16232,6.837072 2.57617,10.376954 0.2452,2.097362 0.47791,4.473191 0.47791,4.473191 0,0 0.48316,-2.281714 0.2174,-4.555223 -0.42069,-3.598425 -1.29857,-7.173281 -2.61914,-10.548828 -0.91836,-2.347477 -3.83593,-6.263672 -3.83593,-6.263672 z m -0.2129,0.984375 c 0,0 1.50031,4.077118 2.125,6.072266 0.93912,2.999366 1.62019,6.092306 2.02344,9.208984 0.21178,1.635148 0.55664,5.082031 0.55664,5.082031 0,0 0.36426,-3.415083 0.13672,-5.171874 -0.40855,-3.157667 -1.09754,-6.289876 -2.04883,-9.328126 -0.66111,-2.111464 -2.79297,-5.863281 -2.79297,-5.863281 z m -15.86718,0.982422 c 0,0 2.57124,1.561404 4.65234,2.880859 2.0811,1.319457 4.50865,3.010099 5.79883,4.347657 2.2289,2.310763 3.94491,5.183806 5.2168,8.173828 0.66673,1.567426 1.95507,5.664062 1.95507,5.664062 0,0 -0.0294,-4.202049 -0.85156,-6.134765 -1.31545,-3.092424 -3.09707,-6.090473 -5.45703,-8.53711 -1.45487,-1.508304 -3.90667,-3.187754 -6.01953,-4.527343 -2.11286,-1.339591 -5.29492,-1.867188 -5.29492,-1.867188 z m 95.08203,0.951172 c 0,0 -1.0313,4.049853 -1.51563,5.578125 -0.81973,2.586621 -1.59032,5.184792 -2.92382,7.419922 -1.16467,1.952133 -4.25,5.96875 -4.25,5.96875 0,0 3.91829,-3.069017 5.28124,-5.353516 1.43795,-2.41018 2.22074,-5.103951 3.03516,-7.673828 0.53436,-1.686147 0.37305,-5.939453 0.37305,-5.939453 z m 6.45312,0.652344 c 0,0 0.29313,2.967165 0.26563,4.332031 -0.0276,1.364866 -0.14738,3.005588 -0.41992,3.9375 -0.67166,2.29665 -2.05816,4.420466 -3.55469,6.408203 -1.21328,1.611516 -4.05538,4.648312 -4.05538,4.648312 0,0 3.59957,-2.048437 5.01436,-3.927609 1.52817,-2.029753 3.00815,-4.262969 3.74805,-6.792968 0.3463,-1.184127 0.4384,-2.843583 0.4668,-4.25 0.0284,-1.406417 -1.46485,-4.355469 -1.46485,-4.355469 z m -113.88476,0.310547 c -2.41474,0.03831 -5.28369,0.186895 -7.22852,0.691406 -3.70664,0.961547 -7.1635,2.824434 -10.27148,4.988281 -2.6543,1.847977 -6.38477,6.800781 -6.38477,6.800781 0,0 4.55729,-4.30776 6.95703,-5.978515 3.0433,-2.118805 6.40268,-3.921274 9.95117,-4.841797 1.7538,-0.454956 4.60873,-0.622345 6.99219,-0.660156 2.38346,-0.03781 4.32813,-0.457032 4.32813,-0.457032 0,0 -1.92901,-0.581278 -4.34375,-0.542968 z m 111.94336,2.671875 c 0,0 -0.11663,2.627901 -0.17383,3.375 -0.0572,0.747097 -0.32045,1.700317 -0.46875,2.164062 -0.43129,1.348625 -1.31054,2.604879 -2.17188,3.912109 -0.82495,1.252025 -3.09961,4.746094 -3.09961,4.746094 0,0 3.2485,-2.609099 4.18555,-4.03125 0.84483,-1.282173 1.81095,-2.627442 2.32422,-4.232422 0.22489,-0.703236 0.31871,-1.625258 0.37891,-2.412109 0.0602,-0.786851 -0.97461,-3.521484 -0.97461,-3.521484 z m -104.08789,0.539062 c 0,0 5.34449,3.155414 7.62304,4.957031 2.05993,1.628742 3.77385,3.722008 5.46875,5.820313 1.9722,2.441595 5.86719,7.619141 5.86719,7.619141 0,0 -3.02313,-5.689432 -5.08984,-8.248047 -1.69706,-2.100978 -3.45055,-4.257262 -5.625,-5.976563 -2.50841,-1.983348 -8.24414,-4.171875 -8.24414,-4.171875 z m -12.75,0.173828 c -1.33698,-0.01037 -2.67354,0.100153 -3.97461,0.316407 -1.4122,0.23472 -3.27474,0.967048 -4.82227,1.638671 -1.54752,0.671625 -3.31055,2.576172 -3.31055,2.576172 0,0 2.189,-1.001332 3.70704,-1.660156 1.51802,-0.658824 3.37784,-1.366915 4.58984,-1.568359 2.84927,-0.473578 5.8702,-0.418911 8.63281,0.339843 2.36971,0.650845 4.58278,2.014058 6.56641,3.564453 1.31796,1.03012 4.0293,3.677735 4.02929,3.677735 0,0 -1.83417,-3.231957 -3.41406,-4.466797 -2.04325,-1.596995 -4.35728,-3.03552 -6.91601,-3.738281 -1.46483,-0.402317 -2.98807,-0.616216 -4.51563,-0.667969 -0.19094,-0.0065 -0.38127,-0.01024 -0.57226,-0.01172 z m 124.25586,8.955078 c 0,0 -0.77557,1.299806 -1.4336,2.996094 -0.65803,1.696288 -1.54299,3.689253 -2.35937,4.802735 -0.83769,1.142542 -2.31496,2.768033 -3.77014,3.934113 -1.45518,1.166079 -1.79511,1.52392 -1.79511,1.52392 0,0 0.56002,0.05514 2.034,-1.126002 1.47398,-1.181144 3.16991,-2.652607 4.09765,-3.917969 0.90644,-1.236304 1.77857,-3.246095 2.44532,-4.964844 0.66673,-1.718747 0.78125,-3.248047 0.78125,-3.248047 z m -110.59571,1.685547 c 0,0 5.06796,2.73353 7.27539,4.246094 2.24663,1.539412 3.65223,2.492705 5.38105,4.6336 0.71914,0.890553 0.63942,1.070924 2.37456,2.155389 0,0 -0.52382,-1.718141 -1.54839,-2.881952 -1.86049,-2.113331 -3.24012,-3.207726 -5.58612,-4.81524 -2.45545,-1.682501 -7.89649,-3.337891 -7.89649,-3.337891 z m -15.28711,1.445313 -8.34179,1.191406 -5.36133,2.285156 z m 2.01563,0.523437 c -3.61968,0.01389 -7.26028,0.755959 -10.63477,2.009766 -3.63714,1.351402 -6.99175,3.430919 -10.01758,5.791016 -2.77516,2.164601 -6.51953,7.716796 -6.51953,7.716796 0,0 4.90919,-4.683455 7.38086,-6.611328 2.94449,-2.296659 6.18413,-4.298251 9.64453,-5.583984 3.23519,-1.202051 6.71895,-1.908705 10.15039,-1.921875 3.72191,-0.01429 7.52083,0.643109 10.97852,1.988281 3.19887,1.244482 4.72291,2.385536 7.76335,4.423555 2.2821,1.529702 5.55017,3.241652 5.55017,3.241652 0,0 -2.42222,-2.832712 -4.76892,-4.405714 -2.93624,-1.968171 -4.53009,-3.199942 -8.03679,-4.56418 -3.63643,-1.414711 -7.60013,-2.098918 -11.49023,-2.083985 z m -2.94727,3.017578 c 0,0 -4.35253,0.336791 -6.49414,1 -2.63488,0.815967 -5.21915,1.859975 -7.64648,3.185547 -2.08733,1.1399 -5.51953,4.240235 -5.51953,4.240235 0,0 3.89503,-2.555464 5.85351,-3.625 2.37967,-1.299544 4.92247,-2.328554 7.51953,-3.132813 2.01545,-0.624139 6.28711,-1.667969 6.28711,-1.667969 z m 3.23438,5.789063 c -3.92104,-0.02733 -11.24024,1.933594 -11.24024,1.933594 0,0 7.611,-0.759618 11.23242,-0.734375 3.68371,0.02567 7.39751,0.485913 10.93946,1.455078 3.05618,0.836245 4.67598,1.236732 7.44514,2.819573 1.04052,0.59476 3.92184,1.85315 3.92184,1.85315 0,0 -1.83124,-1.844111 -3.11549,-2.57818 -2.83958,-1.623087 -4.75999,-2.383965 -7.93509,-3.252746 -3.65493,-1.000082 -7.47049,-1.469767 -11.24804,-1.496094 z m -2.09571,4.980469 c -4.65773,-0.02599 -9.28515,1.378906 -9.28515,1.378906 0,0 5.41414,-0.288555 10.15039,-0.05469 3.33413,0.164633 8.61973,0.829658 13.49624,2.358263 2.37656,0.744964 4.71741,1.208918 4.71742,1.208918 0,0 -1.68442,-1.620252 -4.32875,-2.449153 -5.00524,-1.568958 -10.2458,-2.240347 -13.82046,-2.416856 -0.30944,-0.01528 -0.61917,-0.02366 -0.92969,-0.02539 z m -14.19921,1.167968 c 0,0 -4.68703,2.740819 -6.64063,4.740235 -1.65556,1.694383 -3.82226,5.720703 -3.82227,5.720703 0,0 2.79783,-3.672239 4.32227,-5.232422 1.82248,-1.865214 6.14063,-5.228516 6.14063,-5.228516 z m 21.31445,2.091797 c -1.33122,-0.0023 -2.66057,0.03517 -3.98438,0.08594 -2.49784,0.09579 -7.35742,0.980468 -7.35742,0.980469 0,0 4.95289,-0.187996 7.38477,-0.28125 2.63853,-0.101179 5.28087,-0.151523 7.89258,0.06836 1.86103,0.156683 4.80394,0.669781 4.80394,0.669781 0,0 -2.77958,-1.201547 -4.74535,-1.367048 -1.32984,-0.111961 -2.66293,-0.153971 -3.99414,-0.15625 z m -14.71485,0.365235 c 0,0 -6.46918,1.895032 -9.2539,3.648437 -2.15371,1.356083 -4.22763,2.899585 -6.05274,4.703125 -2.06329,2.03892 -4.8457,6.884766 -4.8457,6.884766 0,0 3.65278,-4.302121 5.54688,-6.173828 1.75822,-1.737456 3.77539,-3.23824 5.88476,-4.566407 2.61864,-1.648829 8.92285,-4.530596 8.7207,-4.496093 z m 7.36524,5.658203 c -1.34465,-0.0072 -2.68684,0.04194 -4.01758,0.121093 -2.50039,0.148729 -7.13867,1.59375 -7.13867,1.59375 0,0 4.85372,-0.656221 7.18555,-0.794921 3.51519,-0.209091 7.08394,-0.198618 10.50195,0.484375 2.90982,0.581442 8.78516,2.767578 8.78516,2.767578 0,0 -5.48323,-2.924161 -8.62891,-3.552735 -1.76056,-0.351797 -3.54921,-0.528716 -5.3418,-0.591797 -0.44814,-0.01577 -0.89749,-0.02493 -1.3457,-0.02734 z m -4.34766,5.697265 c -4.39869,0.04609 -9.03559,0.05269 -13.27539,1.621094 -1.00408,0.371434 -2.19521,1.179889 -3.17773,1.902344 -0.98252,0.722455 -1.8125,2.4375 -1.8125,2.4375 0,0 1.45125,-0.93007 2.4043,-1.63086 0.95305,-0.700788 2.14474,-1.480392 2.93164,-1.771484 4.01619,-1.485688 8.53782,-1.512453 12.9414,-1.558594 5.21246,-0.05461 15.88281,1.089844 15.88281,1.089844 0,0 -10.46223,-2.146763 -15.89453,-2.089844 z m -1.28711,5.06836 c 0,0 -4.13611,1.902937 -6.07226,3.138672 -1.82894,1.167305 -3.65645,2.362389 -5.39063,3.695312 -2.21873,1.705369 -4.42963,3.471209 -6.39843,5.499999 -1.44365,1.48762 -3.48829,4.94726 -3.48829,4.94726 0,0 2.7176,-3.00675 4.06055,-4.39062 1.92182,-1.98037 4.10185,-3.72468 6.3125,-5.423826 1.7018,-1.308035 3.5099,-2.490086 5.33399,-3.654297 1.89211,-1.207637 5.64257,-3.8125 5.64257,-3.8125 z m 13.92774,3.214844 c -1.54953,-0.0098 -3.16546,0.02608 -4.3711,0.162109 -2.43336,0.27456 -4.79084,0.918827 -7.07812,1.615234 -2.95433,0.899503 -5.82708,2.044144 -8.625,3.308594 -2.21931,1.002962 -6.96094,4.708982 -6.96094,4.708982 0,0 5.46782,-2.49755 7.53906,-3.43359 2.7592,-1.246953 5.57559,-2.369374 8.45508,-3.246095 2.26034,-0.688205 4.53581,-1.304075 6.82617,-1.5625 2.90306,-0.327555 9.15625,-0.695313 9.15625,-0.695313 0,0 -1.49531,-0.789474 -3.43164,-0.833984 -0.48408,-0.01113 -0.99325,-0.02018 -1.50976,-0.02344 z m 2.85547,3.935546 c 0,0 -8.5035,0.86545 -12.68164,2.105463 -3.65066,1.08348 -7.32081,2.3222 -10.73438,4.11719 -2.96955,1.5615 -7.66406,5.99023 -7.66406,5.99024 0,0 5.50358,-3.4999 8.22266,-4.92969 3.30072,-1.73565 6.89581,-2.95244 10.51757,-4.02735 4.00022,-1.18721 12.33985,-3.255853 12.33985,-3.255853 z m 1.29297,2.781243 c 0,0 -5.43721,1.36941 -8.07813,2.09961 -3.09407,0.8555 -6.36036,1.2513 -9.54102,2.1875 -3.56099,1.04816 -7.09336,2.27018 -10.49218,3.79688 -3.2975,1.48117 -9.12891,5.51953 -9.12891,5.51953 0,0 6.37816,-3.1876 9.53906,-4.60742 3.34466,-1.50236 6.83256,-2.71076 10.36329,-3.75 3.07428,-0.9049 6.335,-1.30147 9.52539,-2.1836 2.72662,-0.75388 7.8125,-3.0625 7.8125,-3.0625 z m -0.19922,1.48829 c 0,0 -2.48356,2.25518 -3.61719,3.30859 -2.09905,1.95053 -4.29923,3.82088 -6.75586,5.19336 -3.8377,2.14406 -8.11916,3.51692 -12.4043,4.7207 -3.56783,1.00228 -7.49709,0.93533 -11.23437,2.08985 -3.6364,1.12334 -9.98047,4.94531 -9.98047,4.94531 0,0 6.86188,-2.93513 10.27734,-3.99024 3.53277,-1.09133 7.45133,-1.02643 11.20899,-2.08203 4.30858,-1.21037 8.66611,-2.60096 12.62109,-4.81054 2.57187,-1.43686 4.8268,-3.36356 6.94727,-5.33399 1.27077,-1.18085 2.9375,-4.04101 2.9375,-4.04101 z m -26.51563,2.48437 c 0,0 -5.94871,1.88306 -8.69922,3.54297 -2.25337,1.35989 -5.79883,4.99609 -5.79882,4.99609 0,0 4.23931,-2.88712 6.3164,-4.14062 2.57421,-1.55351 8.18164,-4.39844 8.18164,-4.39844 z m 11.52149,3.87109 c 0,0 -7.77496,2.10948 -11.51953,3.71094 -3.30013,1.41139 -9.33399,5.12696 -9.33399,5.12696 0,0 6.52239,-2.83585 9.72852,-4.20704 3.65056,-1.56124 11.125,-4.63086 11.125,-4.63086 z m 13.70312,0.4961 c 0,0 -6.49182,5.45717 -9.82617,7.50586 -3.82609,2.35082 -8.26256,3.73734 -12.6543,5.18945 -3.92649,1.29828 -7.94238,2.35432 -12.00586,3.05078 -3.12646,0.53586 -9.70312,1.63281 -9.70312,1.63281 0,0 6.59695,0.42161 9.95703,-0.15429 4.1502,-0.71132 8.23701,-1.78764 12.22266,-3.10547 2.85913,-0.94537 5.79232,-1.87854 8.61132,-3.10156 -1.44755,1.09154 -3.28065,2.42841 -4.55468,3.17968 -2.27506,1.34155 -4.56164,2.75359 -7.05274,3.33789 -0.75065,0.17608 -2.01149,0.20867 -3.06055,0.18555 -1.04904,-0.0231 -3.01562,0.25586 -3.01562,0.25586 0,0 1.92776,0.41976 3,0.44336 1.07224,0.0236 2.34309,0.006 3.23633,-0.20312 2.64097,-0.61945 4.98239,-2.08001 7.24805,-3.41602 1.8299,-1.07906 5.27983,-3.78148 6.90039,-5.07422 0.56014,-0.29761 1.11297,-0.60956 1.65625,-0.94336 3.74441,-2.30065 9.04101,-8.7832 9.04101,-8.7832 z m -1.58984,4.86719 c 0,0 -2.30818,1.86277 -3.32031,2.8125 -1.76748,1.65847 -3.64703,3.20546 -5.61133,4.62695 -1.75679,1.27131 -5.36719,3.98047 -5.36719,3.98047 0,0 4.09416,-1.82467 5.95312,-3.16992 1.99801,-1.44587 3.9098,-3.0188 5.70899,-4.70704 1.10548,-1.0373 2.63672,-3.54296 2.63672,-3.54296 z m -7.84375,0.0996 c 0,0 -5.94246,2.98892 -8.85938,4.41601 -1.94702,0.95258 -6.11718,2.56445 -5.9375,3.03125 0,0 4.32592,-1.12935 6.37696,-2.13281 3.02091,-1.47797 8.41992,-5.31446 8.41992,-5.31445 z m -9.13672,3.07812 c 0,0 -4.53767,0.36872 -6.76953,0.9043 -2.31459,0.55543 -4.73385,0.97807 -7.02344,1.91015 -2.88466,1.17433 -7.65625,4.83203 -7.65625,4.83203 0,0 5.37318,-2.82336 8.0332,-3.90625 2.15791,-0.87846 4.52416,-1.29821 6.87891,-1.86328 2.17445,-0.5218 6.53711,-1.87695 6.53711,-1.87695 z m 16.98047,0.79492 c 0,0 -2.42094,1.6953 -4.00196,3.0293 -1.581,1.334 -3.54312,2.86256 -4.91796,3.58984 -3.87359,2.0491 -8.26848,3.1502 -12.64454,4.01367 -4.36662,0.86164 -8.84117,1.73533 -13.10156,1.08789 -0.86895,-0.13204 -2.28004,-0.68529 -3.42383,-1.20898 -1.14378,-0.52369 -3.41992,-0.87891 -3.41992,-0.87891 0,0 1.7364,1.42686 2.91992,1.96875 1.18353,0.5419 2.6016,1.13106 3.74414,1.30469 4.53965,0.68987 9.1457,-0.23614 13.51172,-1.09765 4.4156,-0.8713 8.929,-1.98777 12.97657,-4.12891 1.56353,-0.8271 3.52394,-2.37657 5.13085,-3.73242 1.60693,-1.35586 3.22657,-3.94727 3.22657,-3.94727 z m 0.19922,0.5957 c 0,0 -3.43373,5.06249 -5.25586,7.33399 -0.10144,0.12645 -0.20494,0.25232 -0.30664,0.37891 -0.35856,0.20596 -5.36703,3.07453 -8.07422,4.17773 -2.60311,1.06079 -5.33592,1.82561 -8.08985,2.46484 -3.18736,0.73985 -9.75195,1.92969 -9.75195,1.92969 0,0 6.63032,-0.48674 9.91016,-1.24805 2.77444,-0.64399 5.54271,-1.41708 8.19531,-2.49804 1.92597,-0.78486 4.79915,-2.3416 6.61133,-3.35157 -1.62334,1.94955 -3.34882,3.79186 -5.41992,5.08594 -3.50385,2.18931 -7.86587,2.84196 -11.99805,4.11524 -2.7972,0.86191 -9.7832,2.66211 -9.7832,2.66211 0,0 7.10443,-0.78878 10.07812,-1.70508 4.03106,-1.24212 8.49211,-1.88754 12.23242,-4.22461 2.91623,-1.82214 5.09661,-4.57016 7.17578,-7.16211 1.95869,-2.44173 4.47657,-7.95898 4.47657,-7.95899 z m 0.78906,9.19922 c -2.23079,2.71875 -4.1208,5.75835 -6.69336,8.15625 -1.58856,1.48072 -5.63128,3.5039 -8.59961,4.82813 -4.01682,1.79197 -8.15888,3.36072 -12.41992,4.33984 -2.68604,0.61721 -8.42969,1.47852 -8.42969,1.47852 0,0 5.75214,0.16252 8.65234,-0.50391 4.35013,-0.99959 8.55328,-2.59263 12.60547,-4.40039 2.78316,-1.24161 5.30639,-2.79308 7.85352,-4.64062 -1.20301,1.33333 -2.59542,2.74688 -3.6875,3.49804 -2.68671,1.84801 -5.96589,2.78367 -9.14649,3.83008 -2.34202,0.77053 -7.24023,2.11914 -7.24023,2.11914 0,0 5.0117,-0.64992 7.45898,-1.45508 3.16136,-1.04008 6.51021,-1.98238 9.32422,-3.91796 1.34159,-0.92279 2.95342,-2.61767 4.25391,-4.09376 0.59506,-0.6754 1.09446,-1.44553 1.46875,-2.08984 2.40834,-2.72591 4.59961,-7.14844 4.59961,-7.14844 z m 0.60351,6.35938 c 0,0 -1.68005,2.00621 -2.58007,3.33203 -0.90002,1.32582 -2.07393,2.848 -2.99024,3.55273 -2.71982,2.09187 -6.32657,2.9364 -9.77148,3.99024 -3.39834,1.03958 -6.90639,1.78077 -10.43555,2.16601 -2.47169,0.26981 -7.69141,0.59571 -7.69141,0.59571 0,0 5.1387,0.68903 7.80079,0.39844 3.5956,-0.39249 7.1639,-1.14809 10.61914,-2.20508 3.39721,-1.03925 7.13606,-1.88204 10.08789,-4.15235 1.12508,-0.86532 2.28569,-2.42309 3.20898,-3.7832 0.9233,-1.36011 1.75195,-3.89453 1.75195,-3.89453 z m -4.86914,10.16016 c 0,0 -4.78112,2.199 -7.0957,2.89843 -1.73534,0.5244 -7.04883,1.48242 -7.04883,1.48242 0,0 5.30003,0.0904 7.33789,-0.52539 2.61712,-0.79086 6.80664,-3.85546 6.80664,-3.85546 z m -25.52148,5.16406 c 0,0 5.56549,2.66671 8.63281,3.41601 3.65497,0.89286 7.41715,1.65118 11.22266,1.70117 3.05871,0.0402 8.74609,-1.54101 8.74609,-1.54101 0,0 -5.92238,0.67956 -8.73437,0.64258 -3.69352,-0.0485 -7.38906,-0.7889 -11.01953,-1.67578 -2.91198,-0.71136 -8.84766,-2.54297 -8.84766,-2.54297 z m -2.18359,0.49804 c 0,0 5.17468,4.11778 8.1914,5.65235 4.26692,2.17052 8.7016,4.0886 13.29492,5.49805 3.23328,0.99212 9.79493,1.46093 9.79493,1.46093 0,0 -6.43565,-1.58042 -9.47071,-2.51172 -4.51566,-1.38561 -8.89545,-3.2782 -13.12109,-5.42773 -0.42652,-0.21697 -1.0003,-0.52215 -1.5293,-0.80078 1.15776,0.50083 2.42439,1.00024 3.38281,1.23437 3.31519,0.80987 10.01368,1.04883 10.01368,1.04883 0,0 -6.66893,-0.95199 -9.84766,-1.72851 -1.54666,-0.37784 -4.21149,-1.20663 -5.60742,-1.64844 -2.55075,-1.37237 -5.10156,-2.77735 -5.10156,-2.77735 z m 30.58593,4.86524 c 0,0 -2.77448,1.27476 -4.09179,1.75586 -1.79111,0.65413 -5.74024,1.61914 -5.74024,1.61914 0,0 4.0146,-0.24299 5.98047,-0.96094 1.49208,-0.54492 3.85156,-2.41406 3.85156,-2.41406 z"
       sodipodi:nodetypes="csscsscsssscsssscscscssscsccccsccsscssscsssccssscssccscsscsssccsscssccsscssccscsccsscsscsccsssscssssscssccssscsssccsssscssscccsssscccsscssccsssscssssccsscscsscsscccccsccscccsscsscscssscssssscsscssccsscssccssscsssccsscssccssscsscsscsscccccssscssscccsscsscccsscssscccsssccssccsscssccssccsccscccsccssscsssccsscsscccsscssscssscssscscssscsssccsscsscssscsssscsssscssscsssccsscsscccccssscssssscssscsscsscscssscsssscsscsssscscscsscsscssscsscsscsscsscssssssscssscscssscssscsssscssscssscsscssccssscsssccsssscssssccscsccscsccssscsscssscscscsccsscssccscsccsscssccssssscsssssccscsscsscsscsssccssscsscsscssscccscsscssssccscsccssccsccsscsscscscccscsc" /><path
       id="path133"
       style="fill:#000000;fill-opacity:0.3;stroke:none;stroke-width:1px;stroke-linecap:butt;stroke-linejoin:miter;stroke-opacity:1"
       d="m 241.70898,24.230469 -15.6914,6.15625 -16.48438,9.732422 -10.72461,11.123047 -6.15625,16.085937 -4.56836,18.470703 -0.39843,16.683592 -3.57422,12.91016 -3.97266,11.32031 2.98047,9.33399 8.14258,13.50585 15.88867,13.10938 8.51953,2.67187 0.043,0.0312 c 0,0 0.0339,-0.006 0.0352,-0.006 l 1.53125,0.48046 -0.55274,-0.64062 c 1.4267,-0.23807 4.0506,-0.69614 5.58789,-1.09766 1.28907,-0.33668 3.79102,-1.26367 3.79102,-1.26367 l -5.40625,-0.8418 -5.05664,-1.76562 c 0.38386,-0.0214 3.46289,-0.20652 4.98633,-0.76367 1.34217,-0.49086 3.65039,-2.2461 3.65039,-2.2461 0,0 -1.88033,0.86997 -2.87891,1.12305 -1.64633,0.41724 -3.35633,0.64081 -5.05469,0.63281 -1.46748,-0.007 -4.00128,-0.44537 -5.15039,-0.6582 L 209.49414,156 c 1.77606,0.37495 3.57181,0.69379 5.37695,0.6582 1.42751,-0.0281 2.83498,-0.39747 4.21289,-0.77148 1.32199,-0.35883 3.86133,-1.4043 3.86133,-1.4043 l -1.54492,0.21094 -6.03906,-0.21094 -3.79102,-0.49219 -4.33593,-1.07031 -0.28321,-0.38672 0.39063,-2.5664 c 1.37117,-0.2176 3.36241,-0.54081 4.79101,-0.82227 2.18951,-0.43137 4.50227,-0.54124 6.5293,-1.47461 1.6711,-0.76948 3.19368,-1.93084 4.42383,-3.29883 0.98239,-1.09246 2.24804,-3.79296 2.24804,-3.79297 l -4.07421,3.30079 -9.33789,3.16015 -4.25,0.75782 0.34179,-2.23829 4.18945,-1.11718 5.125,-2.10743 4.28321,-3.65039 2.24805,-3.4414 -2.94922,2.73828 -5.05664,2.87891 -6.39063,2.8789 -1.22656,0.35547 0.10547,-0.69727 -1.38282,-2.76562 c 1.94396,-0.555 6.03871,-1.80794 8.12305,-3.07227 1.84158,-1.11708 3.42436,-2.67445 4.77344,-4.35351 1.79296,-2.23151 4.2832,-7.44336 4.2832,-7.44336 l -5.40625,6.25 -4.91601,3.16016 -8.32227,2.52734 -0.79297,-1.58399 c 0.64654,-0.13745 1.44611,-0.31056 2.02344,-0.45117 1.31843,-0.3211 2.65767,-0.59279 3.93359,-1.05468 2.57009,-0.93048 5.14336,-1.96258 7.44336,-3.43946 1.81584,-1.16599 4.91406,-4.21289 4.91406,-4.21289 l -6.88085,3.7207 -6.39063,2.38672 -4.9043,1.18164 0.23438,-1.38867 c 1.14724,-0.39204 3.32843,-1.14057 4.81055,-1.6875 2.12045,-0.7825 4.3656,-1.32414 6.32031,-2.45898 2.47536,-1.43711 6.66992,-5.40625 6.66992,-5.40625 l -6.24805,3.72265 -5.26757,2.03516 -5.80665,0.95898 0.47657,-2.82031 4.27734,-2 5.47656,-3.58203 3.51172,-3.16016 -9.48047,4.14454 -3.17773,1.0039 0.31445,-1.85937 0.23633,-5.20703 c 1.45797,-0.36775 2.86891,-0.8555 4.26367,-1.33008 2.17444,-0.73988 4.36016,-1.4913 6.49414,-2.40039 1.62428,-0.69196 5.70313,-3.54883 5.70313,-3.54883 0,0 -4.56105,1.97517 -6.09571,2.6289 -2.0901,0.89042 -4.25157,1.63589 -6.42382,2.375 -1.3003,0.44245 -2.59027,0.88194 -3.89258,1.22657 L 207.46289,110.5 c 0.67185,-0.2947 1.46058,-0.63106 1.97266,-0.81445 2.05735,-0.7368 4.23823,-1.24038 6.41992,-1.88282 2.03755,-0.59998 4.14149,-1.11048 6.21484,-1.83593 1.59596,-0.55842 4.2461,-2.53321 4.2461,-2.53321 0,0 -3.28579,0.60761 -4.74219,1.11719 -1.98118,0.69321 -4.0595,1.20106 -6.14258,1.81445 -2.12393,0.62543 -4.33374,1.13173 -6.50195,1.90821 -0.40025,0.14334 -0.89749,0.34812 -1.39258,0.55859 l 0.01,-0.19336 11.12304,-7.54687 -5.95898,1.58984 -13.30664,4.36914 c 0,0 7.30345,-4.46115 11.02734,-6.77734 2.26126,-1.406484 7.04688,-4.146487 7.04688,-4.146487 0,0 -10.17936,1.461504 -14.89649,3.376953 -0.94063,0.381956 -2.12107,1.072314 -3.26953,1.785154 0.57563,-0.41448 2.91737,-2.082595 4.23438,-2.722654 2.07369,-1.007829 4.34634,-1.66011 6.63476,-2.279297 2.45717,-0.664837 7.99023,-1.912109 7.99024,-1.912109 0,0 -5.69081,0.0472 -8.30274,0.753906 -2.28997,0.619607 -4.62925,1.283493 -6.82226,2.345703 l 5.6914,-3.929687 13.70508,-5.560547 -9.73242,-1.390625 -11.51953,1.589844 c 0,0 2.85321,-2.073361 5.88671,-3.923828 l 0.0195,0.05469 c 0,0 3.08016,-1.046304 4.5625,-1.314453 2.03747,-0.368583 4.13481,-0.481238 6.23046,-0.484375 2.43541,-0.0037 7.51172,0.06055 7.51172,0.06055 0,0 -4.92613,-1.064462 -7.51367,-1.060547 -2.13013,0.0032 -4.28737,0.11635 -6.4082,0.5 -0.11206,0.02027 -0.23082,0.04395 -0.35352,0.07031 0.19451,-0.08184 0.40903,-0.191032 0.5918,-0.257813 3.96655,-1.44926 12.51172,-1.986328 12.51172,-1.986328 0,0 -6.12349,-2.459566 -9.33399,-2.384766 -5.59867,0.130437 -15.3789,3.238281 -15.3789,3.238281 0,0 6.69948,-7.736549 10.72461,-10.029296 3.26877,-1.861968 12.59765,-3.535157 12.59765,-3.535157 0,0 -8.35867,0.131976 -12.09375,0.886719 -3.28961,0.664742 -8.95898,3.283203 -8.95898,3.283203 0,0 5.57014,-5.580913 8.9375,-7.546875 4.26922,-2.492492 13.90234,-5.164062 13.90234,-5.164062 l -3.9707,-0.199219 -7.94531,0.794922 -8.73828,3.376953 c 0,0 1.15605,-2.570557 2.47656,-4.701172 0.88235,-0.649664 1.75437,-1.210285 2.44336,-1.478516 2.69182,-1.047944 5.98259,-2.273059 8.91015,-2.478515 2.67658,-0.187837 8.58204,-0.1875 8.58204,-0.1875 0,0 -5.60819,-1.5247 -8.6875,-1.308594 -2.53863,0.178155 -5.11174,0.592329 -7.57032,1.376953 2.07148,-1.710403 4.43612,-3.102928 6.95313,-3.933594 4.21958,-1.39256 13.30664,-0.794921 13.30664,-0.794921 l -5.36133,-3.177735 -11.00195,0.201172 c 0,0 2.60816,-1.434094 3.99414,-1.96289 2.33018,-0.889052 7.20508,-2.011719 7.20508,-2.011719 l -10.88477,1.300781 c 0,0 1.59903,-1.544997 3.41016,-3.222656 0.92452,-0.331351 1.87982,-0.643622 2.5664,-0.792969 1.94149,-0.422314 3.97411,-0.508766 6.01172,-0.550781 2.24869,-0.04637 6.94141,-0.148438 6.94141,-0.148438 0,0 -4.57025,-0.900856 -6.96094,-0.851562 -2.0514,0.0423 -4.15012,0.125277 -6.20508,0.572265 -0.1663,0.03618 -0.345,0.08173 -0.52929,0.13086 0.89119,-0.796445 1.7643,-1.569725 2.50781,-2.166016 1.36296,-0.04762 3.18925,-0.09994 4.36914,-0.07422 1.72763,0.03766 5.27344,0.002 5.27344,0.002 0,0 -3.46753,-0.664103 -5.25782,-0.703126 -0.9204,-0.02005 -2.22902,0.0064 -3.40625,0.04102 0.0818,-0.05689 0.19175,-0.147599 0.26563,-0.195312 7.42073,-4.792547 18.38476,-11.216797 18.38476,-11.216797 z m -25.15625,47.972656 c -1.85322,-0.01303 -3.72002,0.08247 -5.56054,0.402344 -1.54438,0.268402 -4.05469,1.755859 -4.05469,1.755859 0,0 2.92597,-0.545445 4.22656,-0.771484 2.34812,-0.408095 4.77944,-0.439053 7.19727,-0.34375 3.42574,0.135033 10.48437,0.835937 10.48437,0.835937 0,0 -6.845,-1.692072 -10.44531,-1.833984 -0.61313,-0.02417 -1.2299,-0.04058 -1.84766,-0.04492 z m 9.48243,2.720703 -8.07422,0.421875 c 0,0 -3.06624,0.402258 -4.56446,0.771485 -1.17145,0.288698 -3.4414,1.123046 -3.4414,1.123046 0,0 5.09765,-0.53547 7.6543,-0.701172 1.84655,-0.119676 3.6966,-0.186337 5.54687,-0.210937 2.05971,-0.02739 4.12033,0.02351 6.17969,0.07031 2.06043,0.04682 6.17968,0.210937 6.17968,0.210937 l -4.8457,-1.474609 z m -27.3711,25.974612 0.40039,0.54492 c -1.91144,1.20156 -3.63281,2.42969 -3.63281,2.42969 z m 12.67383,57.61523 3.27149,1.35742 -3.0586,-1.06836 z" /><path
       id="path147"
       style="fill:#000000;fill-opacity:0.2;stroke:none;stroke-width:1px;stroke-linecap:butt;stroke-linejoin:miter;stroke-opacity:1"
       d="m 249.83984,22.814453 -16.15039,4.429688 -18.67773,9.128906 -12.07813,9.550781 -7.16211,11.796875 -6.60156,22.609375 -1.68554,18.398438 -1.12305,8.285154 -2.66797,9.12891 -3.08984,10.67383 1.96679,9.12695 9.68946,13.3418 10.25195,9.83203 7.58398,4.91406 10.25196,1.82617 h 8.00586 c 0,0 -1.74115,-1.99832 -2.10743,-3.23047 -0.6803,-2.28846 0,-4.77466 0,-7.16211 0,-0.60857 0.11669,-1.2289 0,-1.82617 -0.31004,-1.5869 -1.56912,-2.8978 -1.82617,-4.49414 -0.22376,-1.3896 -0.0648,-2.84861 0.28125,-4.21289 0.77263,-3.04556 3.93164,-8.56641 3.93164,-8.56641 0,0 -0.64008,-2.88483 -0.70117,-4.35351 -0.0507,-1.21967 0.45918,-2.4427 0.28125,-3.65039 -0.22682,-1.53951 -1.56256,-2.80226 -1.68555,-4.35352 -0.10595,-1.33632 0.62707,-2.61039 0.8418,-3.93359 0.20371,-1.2553 0.42188,-3.79102 0.42188,-3.79102 0,0 -0.38129,-2.9533 0,-4.35351 0.15539,-0.57067 0.60207,-1.25436 0.96484,-1.76953 -1.71403,-4.1313 -3.79405,-9.28096 -5.03711,-13.117191 -1.62396,-5.011708 -2.98285,-10.126841 -3.93359,-15.308594 -1.13912,-6.208447 -2.93396,-12.560885 -2.10547,-18.818359 0.9904,-7.480286 4.23519,-14.697873 8.28515,-21.064454 3.28805,-5.168844 7.65913,-9.776278 12.64063,-13.341796 2.74105,-1.961913 7.30275,-4.062579 11.23437,-5.695313 z" /></g></svg>
