<?xml version="1.0" encoding="UTF-8" standalone="no"?>
<!-- Created with Inkscape (http://www.inkscape.org/) -->

<svg
   width="400"
   height="400"
   viewBox="0 0 400 400"
   version="1.1"
   id="svg1"
   xml:space="preserve"
   inkscape:version="1.4-rc1 (61ec3f24, 2024-09-26)"
   sodipodi:docname="straightNeatSidePart.svg"
   xmlns:inkscape="http://www.inkscape.org/namespaces/inkscape"
   xmlns:sodipodi="http://sodipodi.sourceforge.net/DTD/sodipodi-0.dtd"
   xmlns="http://www.w3.org/2000/svg"
   xmlns:svg="http://www.w3.org/2000/svg"><sodipodi:namedview
     id="namedview1"
     pagecolor="#ffffff"
     bordercolor="#666666"
     borderopacity="1.0"
     inkscape:showpageshadow="2"
     inkscape:pageopacity="0.0"
     inkscape:pagecheckerboard="0"
     inkscape:deskcolor="#d1d1d1"
     inkscape:document-units="px"
     inkscape:zoom="6.3781032"
     inkscape:cx="247.40898"
     inkscape:cy="80.588223"
     inkscape:window-width="2224"
     inkscape:window-height="1121"
     inkscape:window-x="2192"
     inkscape:window-y="111"
     inkscape:window-maximized="0"
     inkscape:current-layer="svg1"
     showgrid="false" /><defs
     id="defs1" /><g
     inkscape:groupmode="layer"
     id="layer8"
     inkscape:label="Back"
     sodipodi:insensitive="true"><path
       style="fill:#383838;fill-opacity:1;stroke:none;stroke-width:1px;stroke-linecap:butt;stroke-linejoin:miter;stroke-opacity:1"
       d="m 324.61197,42.572062 5.32151,-1.773836 6.92216,1.298929 2.66537,1.959831 3.05733,-0.156787 1.56787,1.175899 1.56786,1.95983 1.33268,0.391966 1.88144,0.783932 1.33269,1.95983 0.62714,2.038224 0.23518,1.254291 0.54875,5.722705 -0.58597,5.252345 -0.45134,2.084145 c 0,0 -1.02009,2.710211 -1.09751,3.989359 -0.0753,1.243549 0.48857,3.490468 0.48857,3.490468 l 1.05013,3.229836 0.12576,1.708937 1.03809,3.695085 -0.13935,1.847872 0.78475,1.59952 -0.15284,2.546625 -0.48381,2.628143 -1.12605,3.842083 -1.88062,2.57665 -2.25044,2.725556 -3.70744,2.05643 -3.37091,-21.636527 -7.05539,-16.697755 -8.88302,-6.185184 1.84212,-6.915593 z"
       id="path77"
       sodipodi:nodetypes="cccccccccccccccsccccccccccccccccc" /><path
       id="path78"
       style="opacity:0.30033;fill:#000000;fill-opacity:1;stroke:none;stroke-width:1px;stroke-linecap:butt;stroke-linejoin:miter;stroke-opacity:1"
       d="m 323.98119,42.882799 1.83522,8.142592 -0.42774,1.605468 v 2.136719 l -1.15039,2.185547 -0.26367,0.988281 8.88281,6.183594 7.05469,16.699219 3.37109,21.634761 3.70899,-2.05468 0.21484,-0.26172 c 0,0 1.01698,-3.831456 1.13086,-5.796877 0.19509,-3.366951 -0.36717,-6.740328 -0.77734,-10.087891 -0.37835,-3.087863 -0.66603,-6.220632 -1.55078,-9.203124 -1.13432,-3.823781 -3.85239,-6.809633 -5.76536,-10.309422 -1.09268,-1.999063 -3.3919,-3.443676 -4.29899,-6.124323 -0.65443,-1.93398 -0.57672,-3.235567 -0.80079,-5.433087 -0.1305,-1.279901 -0.46791,-4.176629 -1.42069,-6.341546 -0.32522,-0.738956 -0.99897,-2.05358 -1.67369,-2.90234 -1.35437,-1.70372 -2.89235,-2.840403 -2.89235,-2.840403 z"
       sodipodi:nodetypes="cccccccccccsssssssscc" /><path
       id="path79"
       style="opacity:0.19967;fill:#ffffff;fill-opacity:1;stroke:none;stroke-width:1px;stroke-linecap:butt;stroke-linejoin:miter;stroke-opacity:1"
       d="m 329.60547,40.908203 -0.5,0.166016 0.60547,1.71875 c 0,0 3.58292,0.253279 5.32226,0.666015 1.71727,0.407499 3.41707,0.969457 4.98828,1.773438 1.67909,0.859186 3.26515,1.94111 4.65625,3.214844 1.45172,1.329243 2.9416,2.761125 3.76954,4.546875 1.42092,3.064717 1.4786,6.611533 1.77539,9.976562 0.10565,1.197926 0.1113,2.942226 0.0898,4.490235 0.13715,-0.396166 0.32227,-0.9375 0.32227,-0.9375 l 0.45117,-2.083985 0.58594,-5.251953 -0.54883,-5.722656 -0.23438,-1.25586 -0.62695,-2.037109 -1.33399,-1.960937 -1.88085,-0.783204 -1.33204,-0.392578 -1.56836,-1.958984 -1.32226,-0.990234 -2.50391,-0.07031 -0.79883,0.04102 -2.5,-1.837891 -0.46679,-0.177734 -6.03907,-1.132813 z" /><path
       id="path60"
       d="m 329.20898,40.566406 c -0.46769,0.0033 -0.75585,0.01172 -0.75586,0.01172 l 0.0293,1 c 0,0 1.12904,-0.03336 2.52735,0.0078 1.3983,0.04118 3.07708,0.166839 4.06445,0.443359 0.78056,0.218601 1.99483,0.834797 2.97656,1.392578 0.18198,0.103395 0.34621,0.200441 0.50977,0.296875 -1.57623,0.356101 -3.07787,1.052757 -4.38672,1.904297 -0.92787,0.60367 -1.82175,1.652211 -2.55274,2.572265 -0.73099,0.920055 -1.26562,1.712891 -1.26562,1.712891 l 1.24219,0.839844 c 0,0 0.50734,-0.750262 1.19922,-1.621094 0.69189,-0.870832 1.60251,-1.860417 2.19531,-2.246094 1.78761,-1.163014 3.8174,-1.81734 5.83008,-2.140625 0.28472,-0.04573 1.43282,-0.10784 2.07421,0.185547 0.64138,0.293388 2.59766,1.677735 2.59766,1.677735 0,0 -1.15283,-1.801362 -2.08594,-2.431641 -0.64824,-0.437859 -1.54313,-0.683287 -2.37695,-0.707031 -0.311,-0.0089 -0.62066,-6.83e-4 -0.92969,0.02148 -0.25654,-0.162987 -0.7803,-0.492511 -1.55664,-0.933594 -1.00955,-0.57359 -2.22609,-1.21325 -3.20117,-1.486328 -1.1819,-0.330997 -2.8744,-0.438347 -4.30469,-0.480468 -0.71514,-0.02106 -1.36238,-0.02285 -1.83008,-0.01953 z m 13.28516,5.634766 c -0.25186,-0.0062 -0.48819,0.0086 -0.69922,0.05078 -2.20067,0.439768 -4.67606,0.955772 -6.61523,2.511719 -1.24057,0.995403 -2.3205,2.720854 -3.17578,4.230469 -0.85529,1.509614 -1.21289,4.798828 -1.21289,4.798828 0,0 1.3453,-2.790698 2.1621,-4.232422 0.81683,-1.441724 2.3755,-2.86595 3.22657,-3.548828 1.54358,-1.238534 3.52706,-2.144835 5.70508,-2.580078 1.18353,-0.236509 4.90039,-0.109375 4.90039,-0.109375 0,0 -2.52799,-1.077645 -4.29102,-1.121093 z m 4.13867,1.148437 c -1.39299,0.04346 -2.75957,0.587165 -3.94336,1.111329 -1.09409,0.484453 -2.38519,1.479324 -3.44531,2.361328 -0.1606,0.133617 -0.3144,0.283822 -0.45898,0.441406 -1.22111,0.779824 -2.35,1.693141 -3.40821,2.613281 -2.22886,1.938081 -4.87109,6.798828 -4.87109,6.798828 0,0 3.43379,-4.07971 5.3457,-5.742187 1.89001,-1.643424 4.37929,-3.178395 6.63672,-3.941406 2.29679,-0.776314 4.60853,-1.569862 6.65234,-0.675782 0.15907,0.06959 0.89694,0.376286 1.28321,1.111328 0.31238,0.594442 0.73242,2.69336 0.73242,2.69336 0,0 0.41503,-2.255475 0.125,-2.986328 -0.29003,-0.730854 -0.63628,-1.59232 -1.46875,-2.046875 -0.0367,-0.02004 -0.0744,-0.03768 -0.11133,-0.05664 -0.13159,-0.302688 -0.28322,-0.599618 -0.42187,-0.730469 -0.33404,-0.315238 -0.72309,-0.67702 -1.25,-0.808593 -0.46417,-0.115903 -0.93216,-0.157067 -1.39649,-0.14258 z m 0.31836,0.876953 c 0.18481,0.0014 0.37029,0.01466 0.5586,0.04102 0.33555,0.04696 0.97637,0.150905 1.27734,0.404297 -0.30348,-0.08604 -0.61105,-0.145264 -0.92188,-0.177734 -1.41335,-0.147647 -2.87928,0.211257 -4.2207,0.636718 1.13043,-0.495726 2.19209,-0.912449 3.30664,-0.904297 z m -1.16992,4.625 c -0.58222,6.8e-4 -1.15651,0.04927 -1.69727,0.117188 -1.71672,0.215624 -3.91483,1.177381 -5.73437,2.078125 -1.81954,0.900744 -3.73242,3.234375 -3.73242,3.234375 0,0 2.20177,-1.483743 3.98242,-2.365234 1.78065,-0.88149 4.16679,-1.773888 5.60937,-1.955078 1.62856,-0.20455 3.4638,-0.15559 4.66602,0.695312 1.07356,0.759839 1.73886,2.237455 2.10938,3.707031 0.16815,0.666958 0.32164,2.151013 0.30078,3.289063 -0.0183,1.000483 -0.25977,2.917968 -0.25977,2.917968 0,0 0.83287,-2.052846 0.98047,-3.203124 0.1476,-1.150279 0.0658,-2.260054 -0.16211,-3.164063 -0.38406,-1.523337 -0.94479,-3.339966 -2.39063,-4.363281 -0.78052,-0.552434 -1.69044,-0.824603 -2.62109,-0.931641 -0.34899,-0.04014 -0.70145,-0.05705 -1.05078,-0.05664 z m -4.35937,6.212891 c -0.79909,0.0085 -1.59299,0.07375 -2.35938,0.175781 -1.3976,0.186073 -3.20278,0.907499 -4.70312,1.578125 -1.50034,0.670626 -2.96875,2.404297 -2.96876,2.404297 0,0 1.74493,-0.975581 3.21094,-1.630859 1.466,-0.655279 3.43238,-1.206706 4.59375,-1.361328 2.3417,-0.311766 4.88388,-0.240031 6.92969,0.740234 1.17751,0.564213 2.24927,1.693838 3.11328,2.892578 0.52131,0.723284 1.48242,3.250001 1.48242,3.25 0,0 -0.10154,-2.351083 -0.83789,-3.75 -0.68877,-1.308527 -1.83756,-2.581638 -3.32617,-3.294922 -1.15789,-0.554812 -2.41779,-0.843852 -3.69531,-0.953125 -0.47908,-0.04098 -0.96,-0.05587 -1.43945,-0.05078 z m 2.13085,1.785156 c -0.13784,0.0033 -0.27621,0.01002 -0.41406,0.01953 -1.10274,0.0761 -2.19991,0.311692 -3.19531,0.628906 -0.83502,0.266105 -1.88576,0.763578 -2.63281,1.394531 -1.00603,0.849691 -1.99219,2.277344 -1.99219,2.277344 0,0 1.62811,-1.143261 2.41016,-1.667969 0.78205,-0.524708 1.84525,-0.957906 2.46679,-1.138672 1.92474,-0.559782 4.12429,-0.936669 5.80469,-0.179687 0.59983,0.270211 1.62876,0.954338 2.24023,1.822265 0.61148,0.867928 1.40235,2.628907 1.40235,2.628907 0,0 -0.2155,-1.979791 -0.86133,-2.896485 -0.64583,-0.916693 -1.45617,-1.944372 -2.41211,-2.375 -0.89143,-0.40157 -1.85146,-0.537076 -2.81641,-0.513672 z m -0.83593,3.06836 c -0.61574,1.99e-4 -1.27815,0.115152 -1.95508,0.3125 -0.95388,0.278085 -2.6582,1.583984 -2.6582,1.583984 0,0 1.89354,-0.605061 2.82226,-0.800781 0.92872,-0.195721 2.05293,-0.326992 2.6582,-0.185547 1.5909,0.371771 2.49988,1.019638 3.88086,2.359375 0.20859,0.202353 0.83395,0.907718 1.17578,1.470703 0.24424,0.402221 1.02149,2.09961 1.02149,2.099609 0,0 -0.27595,-1.827789 -0.49219,-2.279296 -0.21623,-0.451508 -0.73433,-1.330423 -1.05664,-1.6875 -1.2106,-1.341194 -2.4648,-2.225974 -4.3457,-2.742188 -0.32849,-0.09016 -0.68134,-0.130979 -1.05078,-0.130859 z m -0.0371,4.339843 c -0.97692,-3.2e-4 -2.15988,0.254185 -3.17188,0.515626 -1.15656,0.298789 -2.39062,1.441406 -2.39062,1.441406 0,0 1.46923,-0.37601 2.59179,-0.666016 1.12257,-0.290006 2.48686,-0.548997 3.30469,-0.478516 1.66106,0.143153 3.39087,0.738359 4.63867,1.789063 0.36691,0.308953 0.95821,0.90642 1.30274,1.574219 0.34453,0.667799 0.94726,1.644531 0.94726,1.644531 0,0 0.0154,-1.141922 -0.34765,-1.845703 -0.36309,-0.703781 -0.82316,-1.508193 -1.38867,-1.984375 -1.41,-1.187276 -3.28138,-1.819425 -5.08204,-1.974609 -0.13008,-0.01121 -0.26473,-0.01558 -0.40429,-0.01563 z m 1.81445,3.791016 c 0,0 1.46617,0.624124 2.47656,1.185547 1.0104,0.561423 2.1708,1.311911 2.71094,1.9375 0.2701,0.312829 0.76052,0.840332 0.98438,1.433594 0.22386,0.593263 0.53515,1.992187 0.53515,1.992187 0,0 0.18818,-1.451203 -0.0469,-2.074218 -0.23509,-0.623015 -0.53875,-1.342227 -0.94141,-1.808594 -0.6727,-0.779127 -1.86415,-1.516881 -2.90234,-2.09375 -1.03819,-0.576869 -2.81641,-0.572266 -2.81641,-0.572266 z m -0.44141,2.822266 c -0.63021,-0.0032 -1.28296,0.03151 -1.88085,0.07617 -1.19579,0.08932 -2.57422,1.123046 -2.57422,1.123046 0,0 1.46666,-0.239067 2.63281,-0.326171 1.16614,-0.0871 2.57206,-0.115902 3.40039,0.06055 1.35952,0.289593 2.70832,0.896713 3.74023,1.792968 0.2758,0.239542 0.75819,0.648121 1.05274,1.144532 0.11082,0.186767 0.27746,0.449539 0.44531,0.707031 -0.13551,-0.131631 -0.28056,-0.254516 -0.43945,-0.363281 -0.73412,-0.502511 -1.88803,-0.719472 -2.88281,-0.847657 -0.99478,-0.128185 -2.49805,0.238281 -2.49805,0.238281 0,0 1.46253,0.233807 2.42187,0.357422 0.95935,0.12362 2.07807,0.376339 2.6211,0.748047 0.77912,0.533319 1.20809,1.06926 1.55664,2.046875 0.0563,0.157962 0.31389,0.893107 0.36914,1.261719 0.0656,0.437645 0.10951,1.123393 0.11719,1.244141 -1.25933,-0.983575 -3.02851,-1.266892 -4.42579,-1.63086 -0.78931,-0.205606 -1.89114,-0.275971 -2.82421,-0.308594 -0.93307,-0.03262 -2.56641,0.652344 -2.56641,0.652344 0,0 1.62618,0.04837 2.5332,0.08008 0.90702,0.03171 2.00049,0.283061 2.63086,0.447266 1.82029,0.474158 3.87146,0.855508 4.75781,2.167969 0.1345,0.199149 0.34602,0.972863 0.39258,1.544922 0.058,0.711979 -0.11328,2.023437 -0.11328,2.023437 0,0 0.79016,-1.453221 0.81836,-2.095703 0.0282,-0.642482 0.0412,-1.394918 -0.35156,-1.976563 -0.23472,-0.347561 -0.51543,-0.639145 -0.82813,-0.886718 0.0457,-0.162444 0.28342,-1.021221 0.26563,-1.300782 -0.02,-0.307912 -0.0536,-0.665316 -0.15625,-0.953124 -0.2139,-0.599941 -0.47913,-1.24181 -0.85938,-1.802735 -0.0354,-0.365676 -0.13926,-1.191894 -0.3789,-1.595703 -0.31154,-0.525033 -0.69729,-1.127587 -1.13282,-1.505859 -1.15646,-1.004427 -2.62417,-1.656421 -4.0996,-1.970703 -0.50626,-0.107841 -1.11394,-0.149097 -1.74415,-0.152344 z m 2.62891,11.048828 c -0.98319,-0.003 -2.2793,0.71875 -2.2793,0.71875 0,0 1.33567,0.07916 2.27735,0.08203 0.94167,0.0029 2.06393,0.100757 2.63867,0.349609 0.81012,0.350776 1.51475,1.084728 2.01562,1.882813 0.13387,0.213303 0.49405,0.796362 0.59961,1.214844 0.10557,0.418483 0.28125,1.277343 0.28125,1.277343 0,0 0.22022,-0.746504 0.16211,-1.390624 -0.0417,-0.462329 -0.12123,-1.136603 -0.36523,-1.525391 -0.56065,-0.89334 -1.3526,-1.750671 -2.375,-2.193359 -0.8194,-0.354787 -1.97189,-0.413014 -2.95508,-0.416015 z m 2.21875,3.714844 c -1.03543,-0.0043 -2.59766,0.648437 -2.59766,0.648437 0,0 2.06678,-0.113075 2.94532,0.115235 0.87854,0.228307 1.61222,0.915257 1.84765,1.279296 0.0959,0.148367 0.38496,1.066737 0.28907,1.63086 -0.0959,0.564123 -0.41407,2.083984 -0.41407,2.083984 0,0 1.04001,-1.546143 1.15039,-2.195312 0.11039,-0.64917 0.23015,-1.419725 -0.18554,-2.0625 -0.55517,-0.858446 -1.66687,-1.205073 -2.62891,-1.455078 -0.12025,-0.03125 -0.25833,-0.04431 -0.40625,-0.04492 z m -1.71094,1.632812 c 0,0 1.09133,1.346115 1.54688,2.091797 0.45555,0.745683 0.69649,1.73567 0.70508,2.285156 0.009,0.605029 -0.40823,1.663376 -0.75782,2.275391 -0.16705,0.292458 -0.42655,0.750916 -0.77929,1.222656 -0.2671,0.3572 -1.10352,1.404292 -1.10352,1.404302 0,0 1.15071,-0.790776 1.49805,-1.117192 0.34734,-0.326415 0.75133,-0.737037 0.99414,-1.16211 0.39269,-0.687489 0.8616,-1.741464 0.84765,-2.632812 -0.0133,-0.852684 -0.45482,-1.842731 -1,-2.583985 -0.61827,-0.840644 -1.95117,-1.783203 -1.95117,-1.783203 z"
       style="fill:#000000;fill-opacity:1" /></g><g
     inkscape:groupmode="layer"
     id="layer2"
     inkscape:label="Hair"><path
       style="display:inline;fill:#383838;fill-opacity:1;stroke:none;stroke-width:1px;stroke-linecap:butt;stroke-linejoin:miter;stroke-opacity:1"
       d="m 329.09471,60.98992 1.88144,-6.58503 -0.62715,-11.288623 -6.11467,-9.563972 -11.28862,-9.407185 -14.42435,-5.173952 -19.44152,-1.724651 -19.91188,0.783932 -17.08972,4.860379 -18.97116,10.034331 -9.09361,7.996108 -12.38613,15.051497 -8.30968,16.462575 -3.13573,16.619361 -0.31357,16.77615 4.86038,16.77615 5.48753,12.38612 8.93682,2.3518 h 5.01717 l 6.42824,12.54291 3.13573,-1.72464 c 0,0 -1.2645,-5.7396 -1.45027,-8.81924 -0.4817,-7.98505 0.26268,-15.68509 2.2342,-22.69484 1.58239,-5.6262 8.93683,-15.67864 8.93683,-15.67864 l 7.05539,-8.466469 c 0,0 -0.60672,-9.832922 -0.31358,-14.737924 0.35582,-5.953905 -0.0762,-8.070056 3.50637,-12.838817 2.06535,-2.749225 3.21673,-4.720564 7.28173,-6.079891 3.74236,-1.251438 7.51888,-1.893088 11.28863,-2.500705 2.35783,-0.380041 5.05305,-0.725313 7.41814,-0.840995 4.28184,-0.209435 8.22185,-0.504413 12.5239,-0.0033 6.51772,0.759253 13.01327,0.783932 13.01327,0.783932 0,0 9.92961,0.19339 14.89415,0.302431 4.91707,0.107997 7.48102,0.522386 13.01383,1.708892 2.19435,0.470576 5.95789,2.692306 5.95789,2.692306 z"
       id="path80"
       sodipodi:nodetypes="cccccccccccccccccccccssccsssssscssc" /><path
       id="path83"
       style="opacity:0.3;fill:#000000;fill-opacity:1;stroke:none;stroke-width:1px;stroke-linecap:butt;stroke-linejoin:miter;stroke-opacity:1"
       d="M 279.08008 17.246094 L 259.16797 18.03125 L 242.07812 22.890625 L 223.10742 32.925781 L 214.01367 40.921875 L 201.62695 55.972656 L 193.31836 72.435547 L 190.18164 89.054688 L 189.86914 105.83008 L 194.72852 122.60742 L 200.2168 134.99219 L 209.09961 137.33203 C 209.89074 134.67419 210.86135 131.54877 211.64062 129.49023 C 213.36228 124.94229 214.99804 120.2766 217.62695 116.18555 C 220.6283 111.5149 228.60352 103.6582 228.60352 103.6582 C 228.60352 103.6582 220.42106 109.63942 216.96289 113.30469 C 214.35062 116.0734 212.3023 119.33305 210.19922 122.50586 C 208.20333 125.51696 204.65625 131.81836 204.65625 131.81836 C 204.65625 131.81836 205.8683 126.04418 206.87305 123.28125 C 209.11017 117.12947 211.61191 110.95183 215.29883 105.54297 C 218.4943 100.85508 226.93945 93.126953 226.93945 93.126953 C 226.93945 93.126953 219.51881 97.667559 216.29688 100.55469 C 213.66381 102.91413 211.45484 105.72457 209.3125 108.53711 C 206.79096 111.84747 202.43945 118.95703 202.43945 118.95703 C 202.43945 118.95703 206.98483 106.76717 210.31055 101.21875 C 212.9367 96.837455 216.10049 92.724658 219.73438 89.134766 C 222.90499 86.002536 230.37695 81.042969 230.37695 81.042969 L 220.06641 85.919922 L 211.86328 92.683594 L 202.10547 102.77148 C 202.10547 102.77148 206.9377 93.646178 210.19922 89.689453 C 214.42421 84.563891 219.46709 80.077939 224.83398 76.164062 C 228.53752 73.463208 236.80664 69.400391 236.80664 69.400391 L 224.50195 74.167969 L 211.86328 80.931641 L 201.77344 86.917969 L 211.41992 78.271484 L 226.60742 68.957031 L 245.67578 60.753906 L 247.57422 60.550781 C 248.45794 59.900198 249.53006 59.333975 250.98438 58.847656 C 254.72673 57.596218 258.50369 56.95332 262.27344 56.345703 C 264.63127 55.965662 267.32632 55.621541 269.69141 55.505859 C 273.43143 55.322926 276.92384 55.106804 280.61133 55.380859 L 280.48828 55.322266 L 269.95508 53.546875 L 263.96875 53.326172 L 257.20703 54.767578 L 250.55469 55.099609 L 245.12109 57.095703 L 242.57227 59.867188 L 232.92773 60.421875 L 221.39648 64.080078 L 213.30469 67.960938 L 202.2168 75.388672 L 223.06055 58.757812 C 223.06055 58.757812 235.44375 52.06549 242.24023 50.666016 C 247.5249 49.57784 258.42578 50.554688 258.42578 50.554688 C 258.42578 50.554688 247.7307 47.947213 242.34961 48.447266 C 238.55619 48.79978 231.48633 51.996094 231.48633 51.996094 L 221.28516 55.654297 L 207.53906 61.640625 L 222.61719 52.105469 L 234.36719 45.121094 L 245.23242 43.347656 L 260.75391 47.783203 L 272.39453 48.890625 L 264.41211 46.673828 L 252.43945 42.128906 L 243.90234 38.580078 L 233.70312 40.6875 L 223.61328 42.792969 C 223.61328 42.792969 235.41083 35.975485 243.01562 33.148438 C 246.54301 31.837148 256.76367 29.822266 256.76367 29.822266 L 267.07227 28.160156 L 248.44727 29.046875 L 238.69141 30.708984 C 238.69141 30.708984 245.08335 27.542983 248.44727 26.386719 C 252.48192 24.999908 256.66334 24.019979 260.86523 23.28125 C 266.17091 22.348465 276.93945 21.619141 276.93945 21.619141 L 259.75586 21.175781 C 259.75586 21.175781 279.60044 19.180151 280.26562 19.291016 C 280.93081 19.40188 299.55664 19.400391 299.55664 19.400391 L 299.52734 19.332031 L 298.52148 18.970703 L 279.08008 17.246094 z " /><path
       id="path90"
       style="opacity:0.2;fill:#000000;fill-opacity:1;stroke:none;stroke-width:1px;stroke-linecap:butt;stroke-linejoin:miter;stroke-opacity:1"
       d="M 279.08008 17.246094 L 259.16797 18.03125 L 242.07812 22.890625 L 223.10742 32.925781 L 214.01367 40.921875 L 201.62695 55.972656 L 193.31836 72.435547 L 190.18164 89.054688 L 189.86914 105.83008 L 194.72852 122.60742 L 200.2168 134.99219 L 209.15234 137.3457 L 214.16992 137.3457 L 220.59766 149.88867 L 223.73438 148.16406 C 223.73438 148.16406 222.46897 142.42339 222.2832 139.34375 C 222.14622 137.07302 222.1203 134.82859 222.18164 132.61328 C 221.96506 131.72622 221.69465 130.72287 221.53906 129.97656 C 219.5027 120.20874 216.38492 110.27891 217.30664 100.34375 C 219.08067 81.221538 224.50414 61.307349 235.80664 45.78125 C 242.97339 35.936369 253.81823 28.509453 265.125 23.988281 C 275.92909 19.668118 299.77539 19.755859 299.77539 19.755859 L 296.08203 18.753906 L 279.08008 17.246094 z " /><path
       id="path89"
       style="opacity:0.2;fill:#ffffff;fill-opacity:1;stroke:none;stroke-width:1px;stroke-linecap:butt;stroke-linejoin:miter;stroke-opacity:1"
       d="M 279.08008 17.246094 L 259.16797 18.03125 L 252.79688 19.841797 C 253.20649 19.830522 273.58306 19.276218 283.81445 20.289062 C 289.87332 20.888853 296.00354 21.669594 301.77344 23.613281 C 306.83228 25.317435 311.93355 27.453616 316.07617 30.820312 C 320.40272 34.336487 323.80954 39.017166 326.49609 43.902344 C 328.50413 47.553707 330.57708 55.678708 330.59375 55.744141 L 330.60742 55.695312 L 330.9043 53.097656 L 330.34961 43.117188 L 324.23438 33.552734 L 312.94531 24.144531 L 298.52148 18.970703 L 279.08008 17.246094 z " /><path
       id="path82"
       d="M 276.23828 16.111328 C 274.5106 16.107828 272.78251 16.152938 271.05664 16.246094 C 260.70142 16.805006 250.41811 19.06589 240.70117 22.564453 C 230.32424 26.300651 219.4417 33.989945 213.55078 39.880859 C 207.61988 45.811759 197.74536 58.255369 193.53711 70.064453 C 189.60018 81.112167 188.00045 92.589181 188.93164 104.32227 C 189.26919 108.57538 190.75365 114.93319 192.45117 119.70508 C 194.14869 124.47696 198.78516 131.49023 198.78516 131.49023 C 198.78516 131.49023 196.47533 123.55802 194.80664 118.86719 C 194.49148 117.98123 194.19769 117.00031 193.90625 116.02539 C 194.39147 114.41673 195.38542 111.27171 196.13867 109.88672 C 197.5954 107.20829 201.54102 101.55078 201.54102 101.55078 C 201.54102 101.55078 197.17661 106.22593 195.57227 109.17578 C 194.80133 110.59327 193.96288 113.00985 193.46875 114.5293 C 192.4309 110.75661 191.63406 106.77194 191.42383 104.12305 C 190.52475 92.794506 192.06192 81.648389 195.89062 70.904297 C 196.48172 69.245615 197.2314 67.559991 198.04688 65.871094 C 198.28821 65.569996 201.165 61.992736 202.89258 60.5 C 205.5793 58.178495 211.74219 54.123047 211.74219 54.123047 C 211.74219 54.123047 205.20632 57.443019 202.36914 59.894531 C 201.56292 60.591161 200.5707 61.65956 199.67578 62.679688 C 200.69435 60.825725 201.80891 59.008899 202.9668 57.226562 C 203.96609 56.259588 207.94154 52.458258 210.4043 50.859375 C 213.90004 48.589849 221.80469 44.933594 221.80469 44.933594 C 221.80469 44.933594 213.58104 47.605296 209.85938 50.021484 C 208.56736 50.860289 206.93821 52.226096 205.47852 53.525391 C 208.97836 48.616026 212.61583 44.35097 215.31836 41.648438 C 220.88117 36.085625 231.68634 28.466987 241.54883 24.916016 C 254.22977 20.350269 267.86561 17.953887 281.26562 18.765625 C 293.61541 19.51374 305.99648 21.144613 315.80859 28.101562 C 321.68152 32.265566 326.71797 38.111845 328.75977 44.855469 C 329.39947 46.968266 330.07159 49.85796 329.88867 53.041016 C 329.70576 56.224073 329.95508 59.912109 329.95508 59.912109 C 329.95508 59.912109 331.57229 57.415585 331.76172 54.119141 C 331.95115 50.822696 332.00199 46.937032 331.15234 44.130859 C 328.89823 36.686003 323.47429 30.472853 317.25391 26.0625 C 306.78668 18.641069 293.88211 17.026527 281.41797 16.271484 C 279.69321 16.167003 277.96596 16.114843 276.23828 16.111328 z M 265.27539 19.826172 C 264.80755 19.829672 264.34683 19.838319 263.9082 19.849609 C 262.15372 19.894759 260.79297 20.484375 260.79297 20.484375 C 260.79297 20.484375 266.45675 20.644944 269.09961 20.980469 C 271.30659 21.26065 275.99023 22.248047 275.99023 22.248047 C 275.99023 22.248047 271.68342 20.300186 269.22656 19.988281 C 268.14179 19.850566 266.67891 19.815788 265.27539 19.826172 z M 284.56445 20.617188 C 281.63143 20.61619 277.20703 21.054688 277.20703 21.054688 C 277.20703 21.054688 283.10105 21.489836 285.65234 21.644531 C 288.52856 21.818927 294.49414 22.466797 294.49414 22.466797 C 294.49414 22.466797 288.76521 20.831558 285.71289 20.646484 C 285.37197 20.625814 284.98346 20.617337 284.56445 20.617188 z M 296.86133 20.925781 C 296.86133 20.925781 301.23194 23.654724 302.7793 24.845703 C 305.57448 26.997118 308.18793 29.417934 310.4668 32.097656 C 311.64411 33.482052 313.12662 35.220902 314.3125 36.990234 C 315.49838 38.759567 317.53906 41.904297 317.53906 41.904297 C 317.53906 41.904297 316.28991 38.447713 315.08789 36.654297 C 313.88587 34.860881 312.44892 32.884293 311.22852 31.449219 C 308.89767 28.70837 306.17758 26.462115 303.33398 24.273438 C 301.62804 22.9604 296.86133 20.925781 296.86133 20.925781 z M 269.05273 22.796875 C 269.05273 22.796875 278.9489 24.544808 283.68164 25.8125 C 287.56248 26.852008 291.43809 28.050813 294.91406 29.953125 C 297.6128 31.430077 302.86328 35.351563 302.86328 35.351562 C 302.86328 35.351562 298.35078 30.694053 295.39453 29.076172 C 291.79951 27.108708 287.84478 25.893724 283.93945 24.847656 C 279.02976 23.532565 269.05273 22.796875 269.05273 22.796875 z M 253.30469 23.568359 C 253.30469 23.568359 247.10936 24.413333 244.09961 25.521484 C 240.96355 26.676142 235.46289 30.175781 235.46289 30.175781 C 235.46289 30.175781 241.47918 27.553031 244.44531 26.460938 C 247.28514 25.41535 253.30469 23.568359 253.30469 23.568359 z M 290.88477 23.662109 C 289.25099 23.678419 287.92334 23.810547 287.92383 24.060547 C 287.92383 24.060547 293.32416 24.562847 295.50977 24.941406 C 296.50116 25.113129 298.04041 25.6552 299.30078 26.154297 C 300.56116 26.653394 303.31836 27.976563 303.31836 27.976562 C 303.31836 27.976562 300.95551 25.73369 299.66992 25.224609 C 298.38433 24.715529 296.83925 24.157883 295.67969 23.957031 C 294.45748 23.745326 292.51854 23.645804 290.88477 23.662109 z M 311.8125 27.255859 C 311.8125 27.255859 315.18158 31.087621 317.25781 33.761719 C 319.33405 36.435816 321.69413 39.747341 322.76758 42.076172 C 324.20122 45.186448 325.38669 48.571583 325.1875 51.816406 C 325.1306 52.742892 324.9316 54.590184 324.3418 55.900391 C 323.752 57.210599 322.88672 58.792969 322.88672 58.792969 C 322.88672 58.792969 324.79556 57.716192 325.41602 56.337891 C 326.03647 54.959589 326.69711 53.316561 326.7832 51.914062 C 327.00989 48.221305 325.69666 44.608314 324.2207 41.40625 C 323.02039 38.802198 320.6272 35.493317 318.52148 32.78125 C 316.41577 30.069183 311.8125 27.255859 311.8125 27.255859 z M 273.76953 27.939453 C 271.57137 27.940422 269.75977 28.035156 269.75977 28.035156 C 269.75977 28.035156 276.97699 28.840594 279.82812 29.533203 C 285.88378 31.004262 291.88328 32.869666 297.21875 35.683594 C 301.48295 37.932534 305.67215 40.704046 308.43945 44.455078 C 309.41864 45.782352 310.76408 47.780128 311.48438 50.011719 C 312.20466 52.243309 313.21484 55.757813 313.21484 55.757812 C 313.21484 55.757812 313.63023 52.38558 312.88672 50.082031 C 312.14321 47.778483 311.15331 45.100918 309.88867 43.386719 C 306.86024 39.281735 302.4296 36.397064 298.05859 34.091797 C 292.41431 31.114999 286.10244 29.865424 280.0957 28.40625 C 278.55203 28.031256 275.9677 27.938484 273.76953 27.939453 z M 315.58398 28.798828 C 315.58398 28.798828 320.92547 33.634653 322.97266 36.363281 C 324.89411 38.924317 326.45641 41.829169 327.36914 44.882812 C 328.31693 48.053798 328.93159 51.467273 328.4043 54.669922 C 328.27872 55.432629 327.74356 56.629541 327.23633 57.595703 C 326.7291 58.561866 325.99023 59.800781 325.99023 59.800781 C 325.99023 59.800781 327.42261 58.96244 327.94531 57.966797 C 328.46802 56.971154 329.0334 55.772339 329.19336 54.800781 C 329.75146 51.411041 329.10226 47.884622 328.13672 44.654297 C 327.19215 41.494138 325.58397 38.509476 323.61328 35.882812 C 321.40614 32.940984 315.58398 28.798828 315.58398 28.798828 z M 249.49023 28.820312 C 247.68928 28.812712 244.97146 28.873512 243.2832 29.248047 C 237.88423 30.445806 232.50952 32.105479 227.53125 34.574219 C 224.71112 35.972729 220.26563 40.087891 220.26562 40.087891 C 220.26562 40.087891 225.39456 36.750155 227.97461 35.470703 C 232.85596 33.050027 238.15482 31.410434 243.5 30.224609 C 245.99141 29.671891 251.32227 28.853516 251.32227 28.853516 C 251.32227 28.853516 250.5708 28.824863 249.49023 28.820312 z M 298.45898 29.185547 C 298.45898 29.185547 301.93532 32.422534 303.62891 33.960938 C 306.23992 36.332706 309.18838 39.066539 310.93945 41.482422 C 312.79617 44.044071 317.18164 50.109375 317.18164 50.109375 C 317.18164 50.109375 313.66669 43.543576 311.74805 40.896484 C 309.89604 38.341338 306.91669 35.596919 304.30078 33.220703 C 302.51447 31.598064 298.45898 29.185547 298.45898 29.185547 z M 258.09961 30.933594 C 257.70744 30.933185 257.31519 30.937596 256.92383 30.947266 C 253.55491 31.030516 250.16583 31.453244 246.89062 32.287109 C 244.48047 32.900742 240.41797 35.351564 240.41797 35.351562 C 240.41797 35.351562 245.00029 33.901966 247.16211 33.351562 C 250.34723 32.54063 253.65571 32.128307 256.95117 32.046875 C 260.00714 31.971365 263.09206 32.209291 266.08203 32.808594 C 268.41736 33.276681 273.34766 34.580078 273.34766 34.580078 C 273.34766 34.580078 268.87902 32.246075 266.29688 31.728516 C 263.60354 31.188667 260.84477 30.936453 258.09961 30.933594 z M 278.41406 30.947266 C 278.41406 30.947266 284.69102 34.812897 287.68945 36.853516 C 289.90085 38.358513 291.98844 40.055776 294.04883 41.787109 C 296.11703 43.525007 300.33008 47.025391 300.33008 47.025391 C 300.33008 47.025391 296.60802 43.024952 294.49805 41.251953 C 292.432 39.515868 290.32647 37.802874 288.08203 36.275391 C 285.01155 34.185742 278.41406 30.947266 278.41406 30.947266 z M 272.94727 31.433594 C 270.6267 31.379874 268.04688 31.773437 268.04688 31.773438 C 268.04688 31.773438 272.70771 32.636014 274.72266 33.125 C 278.46633 34.033511 282.30178 35.091481 285.18359 37.347656 C 288.04393 39.587011 289.15299 43.878823 292.11719 46.935547 C 296.10392 51.046716 305.73828 56.537109 305.73828 56.537109 C 305.73828 56.537109 296.88412 49.69658 293.19336 45.890625 C 290.61989 43.236826 289.51246 38.83029 286.10938 36.166016 C 282.90312 33.655835 278.84635 32.582914 275.07617 31.667969 C 274.46538 31.519742 273.72079 31.451499 272.94727 31.433594 z M 284.08984 32.242188 C 284.08984 32.242188 289.3155 34.627507 291.61719 36.017578 C 293.99234 37.452027 296.2734 39.128538 298.03711 41.207031 C 299.9105 43.414776 300.74111 46.496273 302.52148 49.109375 C 304.12614 51.464564 308.15234 55.291016 308.15234 55.291016 C 308.15234 55.291016 304.86114 50.768249 303.34766 48.546875 C 301.69801 46.125644 300.86686 42.997669 298.79883 40.560547 C 296.93228 38.36086 294.5625 36.626361 292.13477 35.160156 C 289.59891 33.628662 284.08984 32.242187 284.08984 32.242188 z M 304.4043 32.708984 C 304.4043 32.708984 306.47457 34.58086 308.14648 35.755859 C 309.8184 36.930859 311.76652 38.420714 312.80859 39.583984 C 314.33892 41.292298 315.49474 43.374612 316.36914 45.525391 C 317.34568 47.927384 318.61133 53.302734 318.61133 53.302734 C 318.61133 53.302734 318.18047 47.854367 317.11133 45.224609 C 316.21213 43.012859 315.01619 40.85015 313.4043 39.050781 C 312.26138 37.774932 310.29895 36.290349 308.60742 35.101562 C 306.91589 33.912777 304.4043 32.708984 304.4043 32.708984 z M 260.19141 35.617188 C 258.74356 35.627437 257.30584 35.681103 255.89453 35.689453 C 252.69993 35.708343 246.55273 36.912109 246.55273 36.912109 C 246.55273 36.912109 252.85322 36.908705 255.90234 36.890625 C 259.72995 36.867985 263.57865 36.554952 267.11328 37.492188 C 268.73481 37.922151 271.14892 39.114818 273.11133 40.197266 C 275.07374 41.279713 277.85742 42.363281 277.85742 42.363281 C 277.85742 42.363281 275.68566 40.249527 273.68945 39.148438 C 271.69325 38.04735 269.27891 36.824438 267.42188 36.332031 C 265.52037 35.82783 263.57854 35.66249 261.64258 35.625 C 261.15859 35.6156 260.67402 35.613758 260.19141 35.617188 z M 295.14648 35.744141 C 295.14648 35.744141 297.57201 37.40146 299.40039 38.546875 C 301.22877 39.69229 303.36126 41.154828 304.51758 42.332031 C 306.49381 44.343956 307.98052 46.872237 309.19141 49.464844 C 310.24458 51.719779 311.42188 56.859375 311.8125 56.771484 C 311.8125 56.771484 311.06607 51.587364 309.91602 49.125 C 308.68341 46.485892 307.15989 43.878914 305.08984 41.771484 C 303.82439 40.483174 301.67352 39.027664 299.82422 37.869141 C 297.97491 36.710617 295.14648 35.744141 295.14648 35.744141 z M 316.02344 35.792969 C 316.02344 35.792969 319.25055 41.685887 320.38477 44.689453 C 321.38399 47.335549 322.05206 50.138611 322.28906 52.951172 C 322.43856 54.725269 322.35742 58.589845 322.35742 58.589844 C 322.35742 58.589844 323.25448 54.884902 323.08594 52.884766 C 322.84214 49.991505 322.1584 47.116985 321.13477 44.40625 C 319.92462 41.2016 316.0254 35.792969 316.02539 35.792969 L 316.02344 35.792969 z M 294.52539 36.132812 C 294.52539 36.132812 299.65337 39.943419 301.95312 42.041016 C 303.94635 43.859006 307.68359 47.970703 307.68359 47.970703 C 307.68359 47.970703 304.43846 43.495756 302.35742 41.597656 C 299.96982 39.419951 294.52539 36.132813 294.52539 36.132812 z M 271.70703 36.601562 C 271.70703 36.601562 279.84646 39.619591 283.59375 41.550781 C 285.17809 42.367278 288.44922 44.310547 288.44922 44.310547 C 288.44922 44.310547 285.70444 41.738367 283.96094 40.839844 C 280.05448 38.826626 271.70703 36.601562 271.70703 36.601562 z M 242.27148 37.611328 C 239.7707 37.701578 237.44875 38.667515 235.32617 39.392578 C 231.75877 40.611195 225.99219 44.855469 225.99219 44.855469 C 225.99219 44.855469 232.81455 42.36396 235.97266 41.285156 C 238.48137 40.428187 240.92601 39.459223 243.21094 39.623047 C 246.30597 39.844953 249.25657 42.050021 252.75781 43.304688 C 258.99831 45.540962 265.20732 48.340718 271.89258 49.728516 C 276.36381 50.656701 280.82022 49.684216 284.58398 50.798828 C 286.45091 51.351703 288.82507 52.224317 291.125 53.574219 C 293.42492 54.92412 296.70508 56.537109 296.70508 56.537109 C 296.70508 56.537109 294.95847 53.854857 292.60352 52.472656 C 290.24856 51.090455 287.40543 49.548092 285.15234 48.880859 C 280.72254 47.569008 276.19453 48.580195 272.29883 47.771484 C 265.89916 46.442973 259.77168 43.69382 253.43164 41.421875 C 250.34311 40.315104 247.24066 37.907605 243.35352 37.628906 C 242.98899 37.602766 242.62874 37.598438 242.27148 37.611328 z M 257.14258 39.560547 C 257.14258 39.560547 267.6886 42.174115 272.85547 43.509766 C 277.08598 44.603365 281.35629 45.53917 285.19141 47.357422 C 289.79015 49.53772 299.50781 56.226563 299.50781 56.226562 C 299.50781 56.226562 290.7424 48.439282 285.79102 46.091797 C 281.76234 44.181774 277.40042 43.238805 273.20508 42.154297 C 267.90294 40.783678 257.14258 39.560547 257.14258 39.560547 z M 241.42578 42.259766 C 241.16455 42.262766 240.90152 42.271089 240.63867 42.287109 C 239.58728 42.351209 238.52685 42.525656 237.49414 42.865234 C 235.23684 43.607487 232.5946 45.29989 230.40625 46.816406 C 228.2179 48.332922 225.91016 51.595703 225.91016 51.595703 C 225.91016 51.595703 229.09604 49.867196 231.20703 48.404297 C 233.31801 46.941397 236.58472 45.796167 238.27539 45.240234 C 239.84755 44.723273 241.68338 44.677018 243.49023 44.855469 C 251.81977 45.678118 259.76969 49.815057 268.43359 51.876953 C 275.95513 53.66698 291.18945 56.15625 291.18945 56.15625 C 291.18945 56.15625 276.33865 51.189027 269.01172 49.445312 C 260.76096 47.481741 252.70775 43.255376 243.73438 42.369141 C 242.98296 42.294931 242.20948 42.250631 241.42578 42.259766 z M 317.89648 43.556641 C 317.89648 43.556641 319.34438 49.425332 319.66211 52.208984 C 319.87683 54.09021 319.98828 58.314453 319.98828 58.314453 C 319.98828 58.314453 321.0077 54.292389 320.75586 52.085938 C 320.40101 48.977058 317.89648 43.556641 317.89648 43.556641 z M 311.45312 45.263672 C 311.45312 45.263672 314.2129 49.642362 315.48633 51.875 C 316.42785 53.525738 317.92285 57.222656 318.2832 57.048828 C 318.2832 57.048828 317.15979 53.193473 316.18164 51.478516 C 314.87158 49.181657 311.45312 45.263672 311.45312 45.263672 z M 311.42773 45.412109 C 311.42773 45.412109 313.36953 50.054915 314.16016 52.333984 C 314.64182 53.722439 315.85938 56.498047 315.85938 56.498047 C 315.85938 56.498047 315.41625 53.51425 314.91602 52.072266 C 314.10682 49.739668 311.42773 45.412109 311.42773 45.412109 z M 242.62695 46.345703 C 239.69186 46.304453 234.03125 47.357422 234.03125 47.357422 C 234.03125 47.357422 239.80906 47.007407 242.61719 47.046875 C 246.76143 47.105115 255.17578 48.017578 255.17578 48.017578 C 255.17578 48.017578 246.89816 46.405728 242.62695 46.345703 z M 242.29102 48.238281 C 242.29102 48.238281 235.78382 49.288144 231.98047 51.183594 C 230.0637 52.138841 227.15198 54.177565 224.69141 55.988281 C 222.23083 57.798997 220.48437 59.691406 220.48438 59.691406 C 220.48438 59.691406 222.71796 58.434317 225.16602 56.632812 C 227.61407 54.831311 230.54118 52.795807 232.33789 51.900391 C 235.96151 50.094514 242.29102 48.238281 242.29102 48.238281 z M 246.61523 51.845703 C 245.95409 51.846903 245.33214 51.871181 244.77539 51.925781 C 239.71784 52.421707 234.97625 54.335307 230.17188 55.460938 C 227.10112 56.180391 220.81641 59.580078 220.81641 59.580078 C 220.81641 59.580078 227.31466 57.156558 230.40039 56.433594 C 235.30543 55.284378 240.00585 53.397183 244.87305 52.919922 C 249.04914 52.510429 257.82031 52.972656 257.82031 52.972656 C 257.82031 52.972656 251.24325 51.837279 246.61523 51.845703 z M 265.07812 52.566406 C 262.44401 52.600006 260.02121 53.492606 257.66992 53.818359 C 254.89384 54.202964 251.81185 53.839189 248.83398 54.779297 C 247.62724 55.160267 246.14768 55.994057 244.91797 56.738281 C 243.78976 57.421074 242.2393 59.10415 241.98047 59.388672 C 241.43113 59.308672 240.88406 59.254519 240.48242 59.283203 C 238.54559 59.428618 236.1639 59.529361 234.54102 59.845703 C 230.24646 60.682829 225.98217 61.899824 221.94336 63.636719 C 216.96798 65.776388 208.58398 72.144531 208.58398 72.144531 C 208.58398 72.144531 217.87293 67.018671 222.53516 65.013672 C 226.45559 63.32769 230.61873 62.136931 234.82812 61.316406 C 236.31743 61.026103 238.56785 60.569233 240.47852 60.425781 C 241.78378 60.221332 244.16406 59.816406 244.16406 59.816406 C 244.16406 59.816406 243.1164 59.558002 242.05469 59.398438 C 242.32839 59.245097 244.29467 58.142659 245.4082 57.46875 C 246.60037 56.747245 248.31312 56.412857 249.25586 56.115234 C 251.85465 55.294798 254.84673 55.622999 257.86328 55.205078 C 260.41553 54.851484 262.77987 53.996337 265.0957 53.966797 C 271.06735 53.890617 283.46484 55.914063 283.46484 55.914062 C 283.46484 55.914062 271.48433 52.484679 265.07812 52.566406 z M 222.4668 53.304688 C 222.4668 53.304688 216.63946 54.587426 213.87695 55.9375 C 210.912 57.386518 205.94727 61.453125 205.94727 61.453125 C 205.94727 61.453125 211.53368 58.195898 214.31641 56.835938 C 216.89668 55.574922 222.4668 53.304687 222.4668 53.304688 z M 267.35938 55.011719 C 264.47776 55.012249 260.86816 55.213011 257.95312 56.017578 C 253.91852 57.131154 249.82854 58.498743 245.97461 60.15625 C 241.78493 61.958162 232.92773 67.960938 232.92773 67.960938 C 232.92773 67.960938 242.53348 63.050501 246.48828 61.349609 C 250.25725 59.72864 254.27625 58.410372 258.23242 57.287109 C 263.721 55.728751 272.39453 55.210938 272.39453 55.210938 C 272.39453 55.210938 270.24099 55.011188 267.35938 55.011719 z M 238.69922 57.125 C 237.97112 57.11373 237.27579 57.124076 236.71484 57.173828 C 233.39765 57.468024 230.08754 58.000462 226.85547 58.816406 C 223.69566 59.61411 217.81641 62.222656 217.81641 62.222656 C 217.81641 62.222656 223.9376 60.172043 227.00195 59.398438 C 230.1999 58.591107 233.47895 58.063147 236.76758 57.771484 C 238.91978 57.580609 243.35938 57.392578 243.35938 57.392578 C 243.35938 57.392578 240.88352 57.158813 238.69922 57.125 z M 240.52734 61.453125 C 240.52734 61.453125 231.17046 62.300257 226.6875 64.072266 C 222.97209 65.540876 219.68072 67.853746 216.45703 70.072266 C 213.68683 71.978695 209.03125 76.652345 209.03125 76.652344 C 209.03125 76.652344 214.37173 72.721367 217.02344 70.896484 C 220.25187 68.6747 223.48805 66.412532 227.05664 65.001953 C 231.25366 63.34297 240.52734 61.453125 240.52734 61.453125 z M 239.64844 63.435547 C 239.64844 63.435547 232.50277 65.753544 229.08008 67.390625 C 225.70225 69.006249 222.28188 70.637556 219.10938 72.708984 C 215.35805 75.158346 209.03125 81.277344 209.03125 81.277344 C 209.03125 81.277344 216.05289 75.899621 219.65625 73.546875 C 222.75442 71.523984 226.13359 69.908735 229.51172 68.292969 C 232.85537 66.69369 239.64844 63.435547 239.64844 63.435547 z M 208.15039 64.097656 C 208.15039 64.097656 202.26029 67.895411 199.6582 70.339844 C 197.78729 72.097409 194.93359 76.210937 194.93359 76.210938 C 194.93359 76.210938 198.57701 72.491851 200.3418 70.833984 C 202.83775 68.489249 208.15039 64.097656 208.15039 64.097656 z M 215.48047 64.246094 C 215.48047 64.246094 210.77471 65.754585 208.59961 67.091797 C 206.25364 68.534046 204.01236 70.185389 201.98047 72.056641 C 200.09399 73.793974 196.24609 78.886719 196.24609 78.886719 C 196.24609 78.886719 200.8416 74.23581 202.58008 72.634766 C 204.55807 70.813159 206.43645 69.356066 208.73438 67.943359 C 210.75247 66.702675 215.48047 64.246094 215.48047 64.246094 z M 240.30859 65.197266 C 240.30859 65.197266 228.4838 70.378925 223.06836 74.035156 C 218.17065 77.341843 213.32758 80.934041 209.32227 85.347656 C 205.24255 89.843251 199.7793 100.44141 199.7793 100.44141 C 199.7793 100.44141 206.17765 90.300392 210.0625 86.019531 C 213.97944 81.703296 218.75432 78.153036 223.62695 74.863281 C 228.88597 71.312655 240.30859 65.197266 240.30859 65.197266 z M 240.5293 67.400391 C 240.5293 67.400391 235.20162 69.8981 232.75195 71.617188 C 230.47951 73.2119 226.65234 77.091797 226.65234 77.091797 C 226.65234 77.091797 231.14963 73.962961 233.32617 72.435547 C 235.67994 70.78376 240.5293 67.400391 240.5293 67.400391 z M 241.49023 68.607422 C 241.49023 68.607422 238.72856 69.457573 237.44531 70.220703 C 235.91332 71.131761 233.39258 73.513672 233.39258 73.513672 C 233.39258 73.513672 236.31161 71.59288 237.75195 70.736328 C 238.94355 70.027705 241.49023 68.607422 241.49023 68.607422 z M 239.20703 72.6875 C 239.20703 72.6875 234.23349 74.999075 231.89453 76.447266 C 229.57579 77.882939 225.33008 81.277344 225.33008 81.277344 C 225.33008 81.277344 230.13473 78.71299 232.42188 77.296875 C 234.72924 75.868242 239.20703 72.6875 239.20703 72.6875 z M 208.36914 75.111328 C 208.36914 75.111328 201.31008 79.109685 198.32812 82.021484 C 196.02847 84.267057 192.95117 89.648438 192.95117 89.648438 C 192.95117 89.648438 196.91316 84.800773 199.02734 82.736328 C 201.82381 80.005656 208.36914 75.111328 208.36914 75.111328 z M 240.30859 76.210938 C 240.30859 76.210938 234.58987 78.206495 231.91016 79.742188 C 229.36926 81.198329 226.88078 82.791995 224.57812 84.630859 C 222.92845 85.948297 220.48437 89.207031 220.48438 89.207031 C 220.48438 89.207031 223.68553 86.622498 225.20117 85.412109 C 227.4494 83.61669 229.89415 82.04901 232.40625 80.609375 C 234.96873 79.140866 240.30859 76.210938 240.30859 76.210938 z M 238.76562 81.277344 C 238.76562 81.277344 231.04333 85.343389 227.46094 87.919922 C 224.32611 90.174558 221.11269 92.441686 218.36523 95.244141 C 216.85404 96.785592 214.97656 100.44141 214.97656 100.44141 C 214.97656 100.44141 217.73315 97.319202 219.08008 95.945312 C 221.74304 93.229039 224.90553 90.990343 228.04492 88.732422 C 231.53935 86.219149 238.76564 81.277344 238.76562 81.277344 z M 238.98633 85.242188 C 238.98633 85.242188 232.76242 88.599261 229.98047 90.910156 C 226.23507 94.02136 219.8906 101.25852 220.04492 101.32227 C 220.04492 101.32227 227.20798 94.90434 230.8125 91.910156 C 233.45358 89.71628 238.98633 85.242188 238.98633 85.242188 z M 218.75195 86.673828 C 218.75195 86.673828 215.0208 89.060662 213.61328 90.306641 C 212.25361 91.510261 209.71875 95.474609 209.71875 95.474609 C 209.71875 95.474609 212.8487 91.918422 214.07812 90.830078 C 215.35543 89.699374 218.75195 86.673828 218.75195 86.673828 z M 203.52344 87.005859 C 203.52344 87.005859 198.05399 91.838819 195.85156 94.859375 C 194.08741 97.278842 191.84961 102.64258 191.84961 102.64258 C 191.84961 102.64258 195.01165 97.71009 196.66016 95.449219 C 198.74695 92.587257 203.52344 87.005859 203.52344 87.005859 z M 240.30664 88.105469 C 240.30664 88.105469 233.73338 91.857152 230.84375 94.451172 C 228.26865 96.762833 225.84896 99.281373 223.7168 102.02344 C 221.87886 104.38712 218.12305 112.26172 218.12305 112.26172 C 218.12305 112.26172 223.05435 104.99291 224.74219 102.82227 C 226.81862 100.15187 229.18406 97.686347 231.71094 95.417969 C 234.43795 92.969933 240.30664 88.105469 240.30664 88.105469 z M 240.96875 90.748047 C 240.96875 90.748047 234.59492 96.117927 231.81445 99.285156 C 229.19535 102.26858 226.5626 105.29569 224.27344 108.60352 C 221.40034 112.75511 217.40039 121.80664 217.40039 121.80664 C 217.40039 121.80664 222.76094 113.42341 225.50586 109.45703 C 227.73219 106.23999 230.32752 103.25509 232.94336 100.27539 C 235.64479 97.198188 240.96875 90.748047 240.96875 90.748047 z M 216.07812 91.849609 C 216.07812 91.849609 210.51694 95.212567 208.22461 97.677734 C 205.24682 100.88005 202.79441 104.55813 200.66602 108.3457 C 198.89114 111.50419 196.91602 118.28125 196.91602 118.28125 C 196.91602 118.28125 199.86427 111.81285 201.53711 108.83594 C 203.64018 105.09343 206.05292 101.48051 208.95703 98.357422 C 211.06904 96.086168 216.07812 91.849609 216.07812 91.849609 z M 212.11523 103.96484 C 212.11523 103.96484 207.50716 108.56638 205.74219 111.41016 C 203.92247 114.34214 201.76172 120.70312 201.76172 120.70312 C 201.76172 120.70312 204.87907 114.6971 206.5918 111.9375 C 208.24978 109.2661 212.11523 103.96484 212.11523 103.96484 z M 228.95312 108.16797 C 228.95312 108.16797 223.63332 114.06873 221.375 117.38867 C 219.51999 120.11569 217.76029 122.92354 216.20703 125.8457 C 214.62504 128.82192 212.52148 135.11328 212.52148 135.11328 C 212.52148 135.11328 215.56413 129.18479 217.08984 126.31445 C 218.62079 123.43426 220.36032 120.65739 222.20117 117.95117 C 224.40463 114.71187 228.95312 108.16797 228.95312 108.16797 z M 211.24609 110.95898 C 211.24609 110.95898 207.38102 114.65307 206.17578 116.70703 C 205.11793 118.50981 204.00195 123.01172 204.00195 123.01172 C 204.00195 123.01172 206.12228 118.77526 207.03906 117.21289 C 208.09894 115.40665 211.24609 110.95898 211.24609 110.95898 z M 224.125 118.44727 C 224.125 118.44727 221.14394 121.86305 220.00391 123.88281 C 218.78185 126.04788 217.27148 130.67383 217.27148 130.67383 C 217.27148 130.67383 219.44876 126.28971 220.61328 124.22656 C 221.69579 122.30872 224.125 118.44727 224.125 118.44727 z M 222.94922 125.60938 C 222.94922 125.60938 219.0568 129.09413 217.44336 131.63086 C 215.62556 134.4889 214.30273 139.13672 214.30273 139.13672 C 214.30273 139.13672 216.31876 134.70139 218.0332 132.00586 C 219.54328 129.63163 222.94922 125.60938 222.94922 125.60938 z M 222.50586 132.15234 C 222.50586 132.15234 220.03779 134.44484 218.71289 136.30078 C 216.70462 139.11402 215.96289 142.46094 215.96289 142.46094 C 215.96289 142.46094 217.29131 139.32382 219.20117 136.64844 C 220.42766 134.93036 222.50586 132.15234 222.50586 132.15234 z M 222.12695 137.87695 C 222.12695 137.87695 221.62581 138.16902 220.90039 138.89258 C 220.17496 139.61613 219.7697 139.95367 219.29492 140.67188 C 218.61011 141.70779 218.1235 142.54797 217.8418 143.52734 C 217.58134 144.43285 217.68164 144.98828 217.68164 144.98828 C 217.68164 144.98828 217.81056 144.52982 218.47656 143.20117 C 218.83397 142.48815 219.28337 141.83607 219.79492 141.00195 C 220.19225 140.35407 220.41485 139.95246 221.12891 139.24023 C 221.84298 138.528 222.12695 137.87695 222.12695 137.87695 z M 222.74023 142.38086 C 222.74023 142.38086 221.06926 143.90366 220.3457 145.07227 C 219.61584 146.25105 219.51367 147.56445 219.51367 147.56445 C 219.51367 147.56445 220.13735 146.54851 220.85547 145.38867 C 221.5673 144.23902 222.74023 142.38086 222.74023 142.38086 z M 223.2793 146.40039 L 222.26367 147.16016 L 220.66602 149.76367 L 222.70508 147.57031 L 223.2793 146.40039 z "
       style="fill:#000000;fill-opacity:1" /></g></svg>
