<?xml version="1.0" encoding="UTF-8" standalone="no"?>
<!-- Created with Inkscape (http://www.inkscape.org/) -->

<svg
   width="400"
   height="400"
   viewBox="0 0 400 400"
   version="1.1"
   id="svg1"
   xml:space="preserve"
   inkscape:version="1.3.2 (091e20e, 2023-11-25)"
   sodipodi:docname="straightNeatSidePart.svg"
   xmlns:inkscape="http://www.inkscape.org/namespaces/inkscape"
   xmlns:sodipodi="http://sodipodi.sourceforge.net/DTD/sodipodi-0.dtd"
   xmlns:xlink="http://www.w3.org/1999/xlink"
   xmlns="http://www.w3.org/2000/svg"
   xmlns:svg="http://www.w3.org/2000/svg"><sodipodi:namedview
     id="namedview1"
     pagecolor="#ffffff"
     bordercolor="#666666"
     borderopacity="1.0"
     inkscape:showpageshadow="2"
     inkscape:pageopacity="0.0"
     inkscape:pagecheckerboard="0"
     inkscape:deskcolor="#d1d1d1"
     inkscape:document-units="px"
     inkscape:zoom="2.27"
     inkscape:cx="200"
     inkscape:cy="200"
     inkscape:window-width="2224"
     inkscape:window-height="1121"
     inkscape:window-x="1946"
     inkscape:window-y="136"
     inkscape:window-maximized="0"
     inkscape:current-layer="layer2" /><defs
     id="defs1" /><g
     inkscape:groupmode="layer"
     id="layer2"
     inkscape:label="Hair"><path
       style="color:#000000;fill:#000000;-inkscape-stroke:none"
       d="m 240.63867,42.287109 c -1.05139,0.0641 -2.11182,0.238547 -3.14453,0.578125 -2.2573,0.742253 -4.89954,2.434656 -7.08789,3.951172 -2.18835,1.516516 -4.4955,4.779229 -4.4955,4.779229 0,0 3.18534,-1.728893 5.29633,-3.191792 2.11098,-1.4629 5.37764,-2.607676 7.06831,-3.163609 1.57216,-0.516961 3.40799,-0.563216 5.21484,-0.384765 8.32954,0.822649 16.27946,4.959588 24.94336,7.021484 7.52154,1.790027 22.75586,4.278729 22.75586,4.278729 0,0 -14.8508,-4.966656 -22.17773,-6.71037 -8.25076,-1.963573 -16.30398,-6.189936 -25.27735,-7.076171 -1.00189,-0.09895 -2.0443,-0.146131 -3.0957,-0.08203 z"
       id="path1"
       sodipodi:nodetypes="ssscsssscssss" /><path
       style="color:#000000;fill:#000000;-inkscape-stroke:none"
       d="m 243.35352,37.628906 c -2.91619,-0.209084 -5.60155,0.935028 -8.02735,1.763672 -3.5674,1.218617 -9.33301,5.463867 -9.33301,5.463867 0,0 6.82139,-2.492485 9.9795,-3.571289 2.50871,-0.856969 4.95335,-1.825933 7.23828,-1.662109 3.09503,0.221906 6.04563,2.426974 9.54687,3.68164 6.2405,2.236275 12.44951,5.036031 19.13477,6.423829 4.47123,0.928185 8.92764,-0.0443 12.6914,1.070312 1.86693,0.552875 4.24064,1.425534 6.54057,2.775436 2.29992,1.349901 5.58001,2.963777 5.58001,2.963777 0,0 -1.74609,-2.683184 -4.10104,-4.065385 -2.35496,-1.382201 -5.19809,-2.924564 -7.45118,-3.591797 -4.4298,-1.311851 -8.95781,-0.300664 -12.85351,-1.109375 -6.39967,-1.328511 -12.52715,-4.077664 -18.86719,-6.349609 -3.08853,-1.106771 -6.19098,-3.51427 -10.07812,-3.792969 z"
       id="path2"
       sodipodi:nodetypes="sscsssssscsssss" /><path
       style="color:#000000;fill:#000000;-inkscape-stroke:none"
       d="m 257.14355,39.560547 c 0,0 10.54505,2.613568 15.71192,3.949219 4.23051,1.093599 8.50082,2.029404 12.33594,3.847656 4.59874,2.180298 14.31684,8.868595 14.31684,8.868595 0,0 -8.76585,-7.786735 -13.71723,-10.13422 -4.02868,-1.910023 -8.3906,-2.852992 -12.58594,-3.9375 -5.30214,-1.370619 -16.06153,-2.59375 -16.06153,-2.59375 z"
       id="path3"
       sodipodi:nodetypes="csscssc" /><path
       style="color:#000000;fill:#000000;-inkscape-stroke:none"
       d="m 261.64258,35.625 c -1.93596,-0.03749 -3.86631,0.05332 -5.74805,0.06445 -3.1946,0.01889 -9.34179,1.223633 -9.34179,1.223633 0,0 6.30048,-0.0044 9.3496,-0.02246 3.82761,-0.02264 7.67631,-0.335674 11.21094,0.601562 1.62153,0.429963 4.03564,1.622631 5.99805,2.705079 1.96241,1.082447 4.747,2.166947 4.747,2.166947 0,0 -2.17267,-2.114687 -4.16888,-3.215776 -1.9962,-1.101088 -4.41054,-2.323999 -6.26758,-2.816406 -1.90151,-0.504201 -3.84333,-0.669541 -5.77929,-0.707031 z"
       id="path4"
       sodipodi:nodetypes="sscssscssss" /><path
       style="color:#000000;fill:#000000;-inkscape-stroke:none"
       d="m 274.72271,33.125 c 3.74367,0.908511 7.57912,1.966481 10.46093,4.222656 2.86034,2.239355 3.9694,6.531167 6.9336,9.587891 3.98673,4.111169 13.62109,9.602538 13.62109,9.602538 0,0 -8.85416,-6.841505 -12.54492,-10.64746 -2.57347,-2.653799 -3.6809,-7.060335 -7.08399,-9.724609 -3.20625,-2.510181 -7.26302,-3.583102 -11.0332,-4.498047 -2.44317,-0.592906 -7.0293,0.105468 -7.0293,0.105468 0,0 4.66084,0.862577 6.67579,1.351563 z"
       id="path5"
       sodipodi:nodetypes="ssscssscs" /><path
       style="color:#000000;fill:#000000;-inkscape-stroke:none"
       d="m 269.75936,28.035133 c 0,0 7.21712,0.805506 10.06826,1.498115 6.05566,1.471059 12.05566,3.336418 17.39113,6.150346 4.2642,2.24894 8.4534,5.020452 11.2207,8.771484 0.97919,1.327274 2.32559,3.325095 3.04588,5.556686 0.72028,2.23159 1.72854,5.746934 1.72854,5.746934 0,0 0.41636,-3.373118 -0.32715,-5.676667 -0.74351,-2.303548 -1.73341,-4.981113 -2.99805,-6.695312 -3.02843,-4.104984 -7.45907,-6.989655 -11.83008,-9.294922 -5.64428,-2.976798 -11.95615,-4.226373 -17.96289,-5.685547 -3.08735,-0.749988 -10.33634,-0.371117 -10.33634,-0.371117 z"
       id="path6"
       sodipodi:nodetypes="csssscssssc" /><path
       style="color:#000000;fill:#000000;-inkscape-stroke:none"
       d="m 265.07812,52.566406 c -2.63412,0.0336 -5.05691,0.9262 -7.4082,1.251953 -2.77608,0.384605 -5.85807,0.02083 -8.83594,0.960938 -1.20674,0.38097 -2.6863,1.21476 -3.91601,1.958984 -1.22972,0.744225 -3.03702,2.758244 -3.03702,2.758244 0,0 2.33582,-1.306724 3.528,-2.028229 1.19217,-0.721505 2.90417,-1.055439 3.84691,-1.353062 2.59879,-0.820436 5.59087,-0.492235 8.60742,-0.910156 2.55225,-0.353594 4.91659,-1.208741 7.23242,-1.238281 5.97165,-0.07618 18.37012,1.947265 18.37012,1.947265 0,0 -11.9815,-3.429383 -18.3877,-3.347656 z"
       id="path7"
       sodipodi:nodetypes="sssscsssscs" /><path
       style="color:#000000;fill:#000000;-inkscape-stroke:none"
       d="m 271.70703,36.601562 c 0,0 8.13943,3.018029 11.88672,4.949219 1.58434,0.816497 4.85546,2.759765 4.85546,2.759765 0,0 -2.74477,-2.572179 -4.48827,-3.470702 -3.90646,-2.013218 -12.25391,-4.238282 -12.25391,-4.238282 z"
       id="path8"
       sodipodi:nodetypes="cscsc" /><path
       style="color:#000000;fill:#000000;-inkscape-stroke:none"
       d="m 284.08887,32.241211 c 0,0 5.22663,2.386296 7.52832,3.776367 2.37515,1.434449 4.65621,3.11096 6.41992,5.189453 1.87339,2.207745 2.704,5.289242 4.48437,7.902344 1.60466,2.355189 5.62989,6.18164 5.62989,6.18164 0,0 -3.29023,-4.522766 -4.80371,-6.74414 -1.64965,-2.421231 -2.4808,-5.549206 -4.54883,-7.986328 -1.86655,-2.199687 -4.23633,-3.934186 -6.66406,-5.400391 -2.53586,-1.531494 -8.0459,-2.918945 -8.0459,-2.918945 z"
       id="path9"
       sodipodi:nodetypes="cssscsssc" /><path
       style="color:#000000;fill:#000000;-inkscape-stroke:none"
       d="m 295.14705,35.744663 c 0,0 2.42496,1.656797 4.25334,2.802212 1.82838,1.145415 3.96087,2.607953 5.11719,3.785156 1.97623,2.011925 3.46294,4.540206 4.67383,7.132813 1.05317,2.254935 2.23047,7.394531 2.62109,7.30664 0,0 -0.74643,-5.18412 -1.89648,-7.646484 -1.23261,-2.639108 -2.75613,-5.246086 -4.82618,-7.353516 -1.26545,-1.28831 -3.41632,-2.74382 -5.26562,-3.902343 -1.84931,-1.158524 -4.67717,-2.124478 -4.67717,-2.124478 z"
       id="path10"
       sodipodi:nodetypes="cssscsssc" /><path
       style="color:#000000;fill:#000000;-inkscape-stroke:none"
       d="m 294.52442,36.133789 c 0,0 5.12893,3.80963 7.4287,5.907227 1.99322,1.81799 5.73145,5.929687 5.73145,5.929687 0,0 -3.24611,-4.474947 -5.32715,-6.373047 -2.3876,-2.177705 -7.833,-5.463867 -7.833,-5.463867 z"
       id="path11"
       sodipodi:nodetypes="cscsc" /><path
       style="color:#000000;fill:#000000;-inkscape-stroke:none"
       d="m 242.62695,46.345703 c -2.93509,-0.04125 -8.59572,1.011719 -8.59572,1.011719 0,0 5.77779,-0.350015 8.58592,-0.310547 4.14424,0.05824 12.55859,0.970703 12.55859,0.970703 0,0 -8.27762,-1.61185 -12.54883,-1.671875 z"
       id="path12"
       sodipodi:nodetypes="ccsccc" /><path
       style="color:#000000;fill:#000000;-inkscape-stroke:none"
       d="m 244.77539,51.925781 c -5.05755,0.495926 -9.79914,2.409527 -14.60352,3.535156 -3.07074,0.719455 -9.356,4.119976 -9.356,4.119976 0,0 6.49879,-2.424355 9.58452,-3.147319 4.90504,-1.149216 9.60546,-3.036411 14.47266,-3.513672 4.17609,-0.409493 12.94629,0.05371 12.94629,0.05371 0,0 -8.58993,-1.484597 -13.04395,-1.047851 z"
       id="path13"
       sodipodi:nodetypes="sscsscs" /><path
       style="color:#000000;fill:#000000;-inkscape-stroke:none"
       d="m 231.98047,51.183594 c -1.91677,0.955247 -4.82849,2.993971 -7.28906,4.804687 -2.46058,1.810716 -4.20704,3.704101 -4.20704,3.704101 0,0 2.23359,-1.258066 4.68165,-3.05957 2.44805,-1.801503 5.37516,-3.837005 7.17187,-4.732421 3.62362,-1.805877 9.95313,-3.66211 9.95313,-3.66211 0,0 -6.5072,1.049863 -10.31055,2.945313 z"
       id="path14"
       sodipodi:nodetypes="sscsscs" /><path
       style="color:#000000;fill:#000000;-inkscape-stroke:none"
       d="m 269.05273,22.796875 c 0,0 9.89617,1.747933 14.62891,3.015625 3.88084,1.039508 7.75645,2.238313 11.23242,4.140625 2.69874,1.476952 7.94922,5.399414 7.94922,5.399414 0,0 -4.5125,-4.658486 -7.46875,-6.276367 -3.59502,-1.967464 -7.54975,-3.182448 -11.45508,-4.228516 -4.90969,-1.315091 -14.88672,-2.050781 -14.88672,-2.050781 z"
       id="path15"
       sodipodi:nodetypes="csscssc" /><path
       style="color:#000000;fill:#000000;-inkscape-stroke:none"
       d="m 311.4541,45.264648 c 0,0 2.75818,4.378338 4.03161,6.610976 0.94152,1.650738 2.43617,5.347032 2.79652,5.173204 0,0 -1.12306,-3.854731 -2.10121,-5.569688 -1.31006,-2.296859 -4.72692,-6.214492 -4.72692,-6.214492 z"
       id="path16"
       sodipodi:nodetypes="cscsc" /><path
       style="color:#000000;fill:#000000;-inkscape-stroke:none"
       d="m 311.42728,45.412961 c 0,0 1.94225,4.641954 2.73288,6.921023 0.48166,1.388455 1.69921,4.164063 1.69921,4.164063 0,0 -0.44312,-2.983797 -0.94335,-4.425781 -0.8092,-2.332598 -3.48874,-6.659305 -3.48874,-6.659305 z"
       id="path17"
       sodipodi:nodetypes="cscsc" /><path
       style="color:#000000;fill:#000000;-inkscape-stroke:none"
       d="m 278.41406,30.947265 c 0,0 6.27696,3.865632 9.27539,5.906251 2.2114,1.504997 4.29899,3.20226 6.35938,4.933593 2.0682,1.737898 6.28124,5.239258 6.28124,5.239258 0,0 -3.72205,-4.001415 -5.83202,-5.774414 -2.06605,-1.736085 -4.17158,-3.449079 -6.41602,-4.976562 -3.07048,-2.089649 -9.66797,-5.328126 -9.66797,-5.328126 z"
       id="path18"
       sodipodi:nodetypes="csscssc" /><path
       style="color:#000000;fill:#000000;-inkscape-stroke:none"
       d="m 256.92383,30.947266 c -3.36892,0.08325 -6.75801,0.505978 -10.03321,1.339843 -2.41017,0.613633 -6.47265,3.065431 -6.47265,3.06543 0,0 4.58232,-1.450574 6.74414,-2.000977 3.18512,-0.810932 6.4936,-1.223255 9.78906,-1.304687 3.05597,-0.07551 6.14089,0.162416 9.13086,0.761719 2.33533,0.468087 7.26563,1.77246 7.26563,1.77246 0,0 -4.46864,-2.334979 -7.05079,-2.852538 -3.0781,-0.61697 -6.24213,-0.858615 -9.37304,-0.78125 z"
       id="path19"
       sodipodi:nodetypes="sscssscss" /><path
       style="color:#000000;fill:#000000;-inkscape-stroke:none"
       d="m 271.05664,16.246094 c -10.35522,0.558912 -20.63853,2.819796 -30.35547,6.318359 -10.37693,3.736198 -21.25947,11.425492 -27.15039,17.316406 -5.9309,5.9309 -15.80542,18.37451 -20.01367,30.183594 -3.93693,11.047714 -5.53571,22.524776 -4.60452,34.257857 0.33755,4.25311 1.82106,10.61088 3.51858,15.38277 1.69752,4.77188 6.33385,11.78586 6.33385,11.78586 0,0 -2.30969,-7.93292 -3.97838,-12.62375 -1.66869,-4.69083 -3.08734,-11.03315 -3.38186,-14.7441 -0.89908,-11.328538 0.63712,-22.474701 4.46584,-33.218793 3.97485,-11.154093 13.76193,-23.590047 19.42774,-29.25586 5.56281,-5.562812 16.36798,-13.18145 26.23047,-16.732421 12.68094,-4.565747 26.31676,-6.962129 39.71679,-6.150391 12.34978,0.748115 24.73086,2.378987 34.54297,9.335937 5.87293,4.164004 10.90938,10.010283 12.95118,16.753907 0.6397,2.112797 1.31177,5.001582 1.12885,8.184638 -0.18291,3.183057 0.0674,6.872003 0.0674,6.872003 0,0 1.61624,-2.496525 1.80567,-5.792969 0.18943,-3.296445 0.24027,-7.182109 -0.60938,-9.988282 -2.25411,-7.444856 -7.67805,-13.658006 -13.89843,-18.068359 -10.46723,-7.421431 -23.3718,-9.035973 -35.83594,-9.791016 -3.44951,-0.208962 -6.90959,-0.211694 -10.36133,-0.02539 z"
       id="path20"
       sodipodi:nodetypes="sssssscssssssssscsssss" /><path
       style="color:#000000;fill:#000000;-inkscape-stroke:none"
       d="m 311.81168,27.25595 c 0,0 3.3699,3.831671 5.44613,6.505769 2.07624,2.674097 4.43632,5.985622 5.50977,8.314453 1.43364,3.110276 2.61911,6.495411 2.41992,9.740234 -0.0569,0.926486 -0.25521,2.773338 -0.84501,4.083545 -0.5898,1.310208 -1.45505,2.892738 -1.45505,2.892738 0,0 1.90812,-1.076497 2.52858,-2.454798 0.62045,-1.378302 1.28109,-3.021331 1.36718,-4.423829 0.22669,-3.692757 -1.08654,-7.305748 -2.5625,-10.507812 -1.20031,-2.604052 -3.5935,-5.912933 -5.69922,-8.625 -2.10571,-2.712067 -6.7098,-5.5253 -6.7098,-5.5253 z"
       id="path21"
       sodipodi:nodetypes="csssscssssc" /><path
       style="color:#000000;fill:#000000;-inkscape-stroke:none"
       d="m 315.58398,28.799804 c 0,0 5.34149,4.834849 7.38868,7.563477 1.92145,2.561036 3.48375,5.465888 4.39648,8.519531 0.94779,3.170985 1.56245,6.584461 1.03516,9.78711 -0.12558,0.762707 -0.66074,1.959619 -1.16797,2.925781 -0.50723,0.966163 -1.24538,2.205994 -1.24538,2.205994 0,0 1.43166,-0.839257 1.95436,-1.8349 0.52271,-0.995643 1.08809,-2.194458 1.24805,-3.166016 0.5581,-3.38974 -0.0911,-6.916159 -1.05664,-10.146484 -0.94457,-3.160159 -2.55275,-6.144823 -4.52344,-8.771485 -2.20714,-2.941828 -8.0293,-7.083008 -8.0293,-7.083008 z"
       id="path22"
       sodipodi:nodetypes="csssscssssc" /><path
       style="color:#000000;fill:#000000;-inkscape-stroke:none"
       d="m 317.89648,43.55664 c 0,0 1.4479,5.868692 1.76563,8.652344 0.21472,1.881226 0.32618,6.105469 0.32618,6.105469 0,0 1.01941,-4.022063 0.76757,-6.228516 -0.35485,-3.108879 -2.85938,-8.529297 -2.85938,-8.529297 z"
       id="path23"
       sodipodi:nodetypes="cscsc" /><path
       style="color:#000000;fill:#000000;-inkscape-stroke:none"
       d="m 296.86037,20.925842 c 0,0 4.37157,2.728882 5.91893,3.919861 2.79518,2.151415 5.40863,4.572231 7.6875,7.251953 1.17731,1.384396 2.6602,3.123685 3.84608,4.893017 1.18588,1.769333 3.22549,4.914201 3.22549,4.914201 0,0 -1.24846,-3.457161 -2.45048,-5.250577 -1.20202,-1.793416 -2.63897,-3.770004 -3.85937,-5.205078 -2.33085,-2.740849 -5.05132,-4.987544 -7.89492,-7.176221 -1.70594,-1.313038 -6.47323,-3.347156 -6.47323,-3.347156 z"
       id="path24"
       sodipodi:nodetypes="cssscsssc" /><path
       style="color:#000000;fill:#000000;-inkscape-stroke:none"
       d="m 316.02441,35.792968 c 0,0 3.22614,5.892919 4.36036,8.896485 0.99922,2.646096 1.66729,5.449158 1.90429,8.261719 0.1495,1.774097 0.0684,5.639649 0.0684,5.639648 0,0 0.89705,-3.705918 0.72851,-5.706054 -0.2438,-2.893261 -0.92754,-5.767781 -1.95117,-8.478516 -1.21015,-3.20465 -5.11035,-8.613282 -5.11036,-8.613282 z"
       id="path25"
       sodipodi:nodetypes="csscssc" /><path
       style="color:#000000;fill:#000000;-inkscape-stroke:none"
       d="m 304.40507,32.709324 c 0,0 2.0695,1.871536 3.74141,3.046535 1.67192,1.175 3.62004,2.664855 4.66211,3.828125 1.53033,1.708314 2.68615,3.790628 3.56055,5.941407 0.97654,2.401993 2.24316,7.778319 2.24316,7.778319 0,0 -0.43183,-5.449343 -1.50097,-8.079101 -0.8992,-2.21175 -2.09514,-4.374459 -3.70703,-6.173828 -1.14292,-1.275849 -3.10535,-2.760433 -4.79688,-3.949219 -1.69153,-1.188785 -4.20235,-2.392238 -4.20235,-2.392238 z"
       id="path26"
       sodipodi:nodetypes="cssscsssc" /><path
       style="color:#000000;fill:#000000;-inkscape-stroke:none"
       d="m 298.45801,29.185546 c 0,0 3.47731,3.236988 5.1709,4.775391 2.61101,2.371768 5.55947,5.105602 7.31054,7.521485 1.85672,2.561649 6.24122,8.627929 6.24122,8.627929 0,0 -3.51398,-6.566775 -5.43262,-9.213867 -1.85201,-2.555146 -4.83136,-5.299565 -7.44727,-7.675781 -1.78631,-1.622639 -5.84277,-4.035157 -5.84277,-4.035157 z"
       id="path27"
       sodipodi:nodetypes="csscssc" /><path
       style="color:#000000;fill:#000000;-inkscape-stroke:none"
       d="m 240.48242,59.282287 c -1.93683,0.145415 -4.31815,0.246532 -5.94103,0.562874 -4.29456,0.837126 -8.55884,2.054121 -12.59765,3.791016 -4.97538,2.139669 -13.36036,8.507812 -13.36036,8.507812 0,0 9.28992,-5.12586 13.95215,-7.130859 3.92043,-1.685982 8.08357,-2.876741 12.29297,-3.697266 1.4893,-0.290303 3.73972,-0.746424 5.65039,-0.889876 1.30526,-0.204449 3.68442,-0.610498 3.68442,-0.610498 0,0 -2.4847,-0.618632 -3.68089,-0.533203 z"
       id="path28"
       sodipodi:nodetypes="ssscssscs" /></g><g
     inkscape:label="Image"
     inkscape:groupmode="layer"
     id="layer1"
     sodipodi:insensitive="true"
     style="opacity:0.5"><image
       width="400"
       height="400"
       preserveAspectRatio="none"
       xlink:href="../../../../../../Pictures/STA%20Miniature%20Maker/Trip-like%20Hair.png"
       id="image1"
       x="0"
       y="0" /></g></svg>
