<?xml version="1.0" encoding="UTF-8" standalone="no"?>
<!-- Created with Inkscape (http://www.inkscape.org/) -->

<svg
   width="400"
   height="400"
   viewBox="0 0 400 400"
   version="1.1"
   id="svg1"
   xml:space="preserve"
   inkscape:version="1.3.2 (091e20e, 2023-11-25)"
   sodipodi:docname="straightCombBack.svg"
   xmlns:inkscape="http://www.inkscape.org/namespaces/inkscape"
   xmlns:sodipodi="http://sodipodi.sourceforge.net/DTD/sodipodi-0.dtd"
   xmlns="http://www.w3.org/2000/svg"
   xmlns:svg="http://www.w3.org/2000/svg"><sodipodi:namedview
     id="namedview1"
     pagecolor="#ffffff"
     bordercolor="#666666"
     borderopacity="1.0"
     inkscape:showpageshadow="2"
     inkscape:pageopacity="0.0"
     inkscape:pagecheckerboard="0"
     inkscape:deskcolor="#d1d1d1"
     inkscape:document-units="px"
     inkscape:zoom="2.455"
     inkscape:cx="200"
     inkscape:cy="200"
     inkscape:window-width="2072"
     inkscape:window-height="1195"
     inkscape:window-x="2356"
     inkscape:window-y="138"
     inkscape:window-maximized="0"
     inkscape:current-layer="layer6"
     showguides="false" /><defs
     id="defs1" /><g
     inkscape:groupmode="layer"
     id="layer7"
     inkscape:label="Hair Back"><path
       style="fill:#383838;stroke:none;stroke-width:1px;stroke-linecap:butt;stroke-linejoin:miter;stroke-opacity:1;fill-opacity:1"
       d="m 327.1989,37.011496 6.91265,6.048571 8.78483,9.072857 5.61653,10.80102 2.73626,12.81721 0.43204,15.553469 -1.00809,16.993607 -2.16021,8.78483 -3.74435,11.37707 -0.14401,-23.04217 -3.74436,-24.050275 -7.05666,-17.281632 -4.75245,-5.760545 z"
       id="path90" /><path
       style="fill:#383838;stroke:none;stroke-width:1px;stroke-linecap:butt;stroke-linejoin:miter;stroke-opacity:1;fill-opacity:1"
       d="m 195.42646,142.57347 2.44823,9.50489 3.45632,12.09715 5.18449,13.8253 5.90456,7.05667 5.47252,3.74435 -1.15211,-23.04218 -1.87218,-17.56965 2.01619,-15.26545 -15.26544,3.60034 z"
       id="path79" /><path
       id="path75"
       style="color:#000000;fill:#000000;-inkscape-stroke:none"
       d="M 194.99414 140.26953 C 194.99414 140.26953 196.77859 150.13964 197.32227 153.25781 C 197.41282 153.77717 197.51691 154.2979 197.625 154.81836 C 197.57159 154.99338 197.53711 155.10938 197.53711 155.10938 L 197.69141 155.15234 C 198.64793 159.61343 200.2035 164.09922 201.83594 168.41797 C 203.55447 172.96452 204.77117 177.99806 208.20703 181.9668 C 211.2331 185.46217 218.61133 189.80859 218.61133 189.80859 C 218.61133 189.80859 212.39963 183.75261 209.7207 180.6582 C 209.2356 180.09786 208.80183 179.5016 208.40039 178.88281 C 208.2082 178.28125 207.98156 177.55807 207.74023 176.72656 C 207.16395 174.74088 206.5589 172.33092 206.4375 170.76172 C 206.24316 168.24971 206.31925 165.64412 207.13086 163.33398 C 207.78594 161.46941 209.49784 158.83894 211.04102 156.7207 C 212.58418 154.60247 213.57227 152.6543 213.57227 152.6543 C 213.57227 152.6543 211.79802 153.98379 210.23242 156.13281 C 208.66682 158.28183 206.92259 160.90964 206.1875 163.00195 C 205.30497 165.51393 205.24151 168.25406 205.44141 170.83789 C 205.51071 171.73371 205.70935 172.80898 205.96484 173.91602 C 205.18514 171.91254 204.50037 169.80979 203.70703 167.71094 C 203.43292 166.98576 203.15624 166.25044 202.88086 165.51758 C 202.94277 165.26815 203.10303 164.63658 203.37891 163.75 C 203.71691 162.66375 204.19317 161.37977 204.63086 160.70312 C 205.67141 159.09453 207.50168 157.98584 209.0293 156.46484 C 211.03602 154.46682 214.58203 150.06055 214.58203 150.06055 C 214.58203 150.06055 210.30884 153.77789 208.32227 155.75586 C 206.91486 157.15716 205 158.29115 203.79102 160.16016 C 203.23076 161.02627 202.77243 162.33283 202.42383 163.45312 C 202.37254 163.61795 202.33065 163.76589 202.28516 163.91992 C 201.01895 160.47094 199.85322 156.93309 199.19531 153.29102 C 199.26453 153.1029 199.33636 152.91002 199.41406 152.71094 C 199.97845 151.26499 200.7864 149.5979 201.54297 148.82812 C 203.13032 147.21307 205.90848 146.96244 208.21094 145.5957 C 209.49424 144.83394 211.41211 142.71875 211.41211 142.71875 C 211.41211 142.71875 208.84601 144.05675 207.70117 144.73633 C 205.68364 145.93393 202.76418 146.1591 200.83008 148.12695 C 200.01243 148.95888 199.3441 150.27689 198.80664 151.55273 C 197.72791 147.42787 194.99414 140.26953 194.99414 140.26953 z " /><path
       style="fill:#383838;stroke:none;stroke-width:1px;stroke-linecap:butt;stroke-linejoin:miter;stroke-opacity:1;fill-opacity:0.2"
       d="m 195.42646,142.57347 2.44823,9.50489 3.45632,12.09715 5.18449,13.8253 5.90456,7.05667 5.47252,3.74435 -1.15211,-23.04218 -1.87218,-17.56965 2.01619,-15.26545 -15.26544,3.60034 z"
       id="path80" /><path
       id="path81"
       style="color:#000000;fill:#000000;-inkscape-stroke:none;fill-opacity:0.30000001"
       d="M 199.38867 136.45703 C 198.57401 136.45703 195.92578 141.24219 195.92578 141.24219 L 197.47656 148.60547 C 197.40599 148.80653 197.33578 149.00791 197.27344 149.20117 C 196.95625 150.18439 196.76367 151.00586 196.76367 151.00586 L 197.73828 151.23438 C 197.73828 151.23438 197.79797 150.98438 197.89844 150.61328 L 198.77734 154.78711 L 200.16602 159.52734 C 200.1387 159.62024 200.10811 159.71758 200.08203 159.80859 C 199.72964 161.03856 199.52148 162.06055 199.52148 162.06055 L 200.99609 162.35938 L 203.9707 172.50586 L 206.58984 177.16211 C 206.84377 178.81595 207.20703 180.5957 207.20703 180.5957 L 208.38867 180.35742 L 209.4707 182.28125 L 217.51562 188.69727 C 217.51563 188.69727 212.18576 181.32098 211.50781 176.98633 C 210.89644 173.07733 213.44141 165.27539 213.44141 165.27539 C 213.44141 165.27539 210.5936 166.89245 209.57227 168.12695 C 208.84994 169.00002 208.12543 170.42633 207.52148 171.78711 C 207.3978 170.22226 207.38323 168.70719 207.75195 167.29883 C 208.11375 165.9169 209.3063 163.80263 210.4082 162.10938 C 211.5101 160.41612 211.91406 158.6543 211.91406 158.6543 C 211.91406 158.6543 210.2864 159.54729 209.15039 161.29297 C 208.01438 163.03865 206.76328 165.15143 206.30078 166.91797 C 205.60433 169.57812 206.0455 172.28421 206.30859 174.80273 C 206.22144 175.04582 206.10938 175.35547 206.10938 175.35547 C 206.10937 175.35547 204.76439 169.55615 204.68359 166.59961 C 204.63137 164.68856 204.63962 162.69242 205.29492 160.89648 C 205.94034 159.12766 208.45117 156.21094 208.45117 156.21094 L 202.64844 158.75781 L 204.18164 155.68945 C 205.30261 154.72193 206.70747 153.89213 208.02539 152.87305 C 209.77266 151.52198 213.03516 148.26953 213.03516 148.26953 C 213.03516 148.26953 208.87697 150.1923 207.04688 151.60742 C 206.03689 152.38839 204.83831 153.09536 203.72461 153.96875 L 201.64648 154.12109 C 201.84808 153.69244 202.058 153.29149 202.23828 153.04102 C 202.97987 152.01069 203.97441 151.12606 205.05859 150.41992 C 206.44164 149.51913 208.35483 149.29665 210.0332 148.29102 C 210.89436 147.77503 212.32227 145.82422 212.32227 145.82422 C 212.32227 145.82422 210.14991 147.05393 209.51953 147.43164 C 208.09337 148.28617 206.16328 148.50567 204.51367 149.58008 C 203.34381 150.34202 202.25757 151.3041 201.42773 152.45703 C 201.34391 152.5735 201.26196 152.70268 201.18164 152.83789 C 201.39133 151.89055 201.71037 150.69436 202.13867 150 C 203.21042 148.26249 206.61914 145.82422 206.61914 145.82422 C 206.61914 145.82422 204.32807 145.22969 203.15625 145.21289 C 202.60721 145.20502 201.81341 145.32027 201.12109 145.44141 C 202.01091 144.86155 203.01359 144.34019 203.95117 143.68945 C 206.3901 141.99668 211.09961 138.28906 211.09961 138.28906 C 211.09961 138.28906 205.84538 141.1586 203.38086 142.86914 C 202.28545 143.62942 200.93536 144.23511 199.7832 145.14648 C 199.86475 144.60271 199.99587 143.81483 200.20312 143.2793 C 201.07093 141.03708 203.86914 137.06641 203.86914 137.06641 C 203.86914 137.06641 200.20334 136.45703 199.38867 136.45703 z " /><path
       style="fill:#ffffff;fill-opacity:0.3;stroke:none;stroke-width:1px;stroke-linecap:butt;stroke-linejoin:miter;stroke-opacity:1"
       d="m 347.36081,119.53129 c 0,0 1.1385,-9.39409 1.44013,-14.11333 0.4717,-7.380134 1.23355,-14.812192 0.57606,-22.178099 -0.75835,-8.495913 -2.92212,-19.978352 -5.61653,-24.626325 C 341.04935,53.936742 328.207,42.916053 328.207,42.916053 l -1.58415,-6.480612 12.96122,11.233061 6.48061,9.072857 4.60844,13.393265 1.00809,13.537278 -0.28802,18.289728 -1.15211,12.81721 z"
       id="path91"
       sodipodi:nodetypes="csssccccccccc" /><path
       id="path85"
       style="color:#000000;fill:#000000;-inkscape-stroke:none"
       d="m 327.375,36.896484 -1.75781,1.078125 c 0,0 9.85981,6.953559 13.76758,11.763672 0.71505,0.880172 1.38261,1.760533 2.02734,2.640625 0.1313,1.01797 0.70593,5.531964 0.68945,6.65625 -0.0344,2.34786 -0.26578,4.730781 -1.10547,6.824219 -0.32648,0.813968 -1.17191,2.076171 -1.92773,3.082031 -0.75582,1.005861 -1.79102,3.06836 -1.79102,3.06836 0,0 2.04735,-1.245436 2.83008,-2.28711 0.78274,-1.041674 1.6638,-2.302081 2.0957,-3.378906 0.93484,-2.330671 1.16381,-4.870709 1.19922,-7.289062 0.0195,-1.327017 -1.27519,-4.992325 -1.79296,-6.40625 1.27789,1.764872 2.41087,3.534661 3.38867,5.322265 0.0549,0.582703 0.75383,8.058874 0.65625,10.259766 -0.13378,3.017303 -0.71044,6.06364 -1.82422,8.84375 -0.29086,0.726014 -0.99818,1.879049 -1.62305,2.804687 -0.62487,0.925639 -2.28711,3.490235 -2.28711,3.490235 0,0 2.80043,-1.748848 3.44727,-2.707032 0.64684,-0.958183 1.38085,-2.110857 1.76367,-3.066406 1.18301,-2.952914 1.78209,-6.150108 1.92187,-9.302734 0.11311,-2.551056 -1.73135,-9.278249 -1.98437,-10.189453 1.14442,2.109808 2.0863,4.243583 2.7793,6.429687 2.85647,9.010954 2.72948,18.819919 2.68945,28.496094 -0.0272,6.580398 -0.19277,13.177993 -1.42188,19.542973 -0.61456,3.18255 -3.30668,13.18193 -3.30668,13.18193 0,0 4.56581,-9.15657 5.26957,-12.80108 1.27141,-6.58402 1.43164,-13.308311 1.45899,-19.916011 0.04,-9.661761 0.20392,-19.686275 -2.7832,-29.109375 C 348.03804,58.514951 344.9905,53.469832 340.93555,48.478516 336.60254,43.144957 327.375,36.896484 327.375,36.896484 Z m 8.99609,9.923828 c 0,0 1.21925,2.541404 1.6543,3.552735 0.43505,1.011331 0.41815,2.266198 0.48828,2.980469 0.28542,2.90732 -0.004,6.061471 -1.35547,8.523437 -0.16516,0.300861 -0.77261,0.88946 -1.32226,1.316406 -0.54965,0.426948 -2.23438,2.242188 -2.23438,2.242188 0,0 2.48636,-0.66492 3.09375,-1.136719 0.60739,-0.471798 1.29829,-1.035463 1.68946,-1.748047 1.54995,-2.823512 1.82711,-6.240673 1.52343,-9.333984 -0.105,-1.069464 -0.59938,-2.335469 -1.05664,-3.398438 -0.45726,-1.062968 -2.48047,-2.998046 -2.48047,-2.998047 z m 12.14063,22.16211 c 0,0 0.10456,5.584184 0.0723,8.201172 -0.0422,3.417941 -0.18404,6.864989 -1.12695,10.048828 -0.34875,1.177578 -1.237,2.974817 -2.0332,4.4375 -0.7962,1.462682 -2.26758,4.271484 -2.26758,4.271484 0,0 2.5967,-2.154053 3.41016,-3.648437 0.81346,-1.494386 1.72539,-3.295921 2.13867,-4.691407 1.00501,-3.393545 1.13522,-6.961043 1.17773,-10.402343 0.0355,-2.876114 -1.37109,-8.216797 -1.37109,-8.216797 z"
       sodipodi:nodetypes="ccscssscsssccssscssscssscssssccsssscssssccssscsssc" /></g><g
     inkscape:groupmode="layer"
     id="layer6"
     inkscape:label="Hair Front"
     sodipodi:insensitive="true"><path
       style="fill:#383838;fill-opacity:1;stroke:none;stroke-width:1px;stroke-linecap:butt;stroke-linejoin:miter;stroke-opacity:1"
       d="m 194.29735,139.30754 c -1.40052,-7.10546 -1.99651,-14.36027 -2.44399,-21.5886 -0.67466,-10.89822 -1.58424,-21.905283 -0.35792,-32.755279 0.69852,-6.180198 2.26203,-12.287425 4.36306,-18.14135 2.07425,-5.779305 4.78319,-10.748422 8.35279,-16.129523 2.36695,-3.568135 9.67489,-10.527295 15.55347,-14.401361 5.98851,-3.946513 12.58165,-7.125164 19.44183,-9.21687 7.10432,-2.166146 14.61825,-2.901178 22.03408,-3.312313 7.48275,-0.414845 15.02998,-0.06735 22.46612,0.864082 10.47272,1.311793 20.96096,3.254272 30.96293,6.624625 4.17182,1.405774 8.33473,3.109041 11.95313,5.616531 2.20427,1.527524 4.17872,3.450895 5.76054,5.61653 1.20296,1.646938 2.22467,3.498236 2.73626,5.472517 0.55443,2.139628 0.28803,6.624626 0.28803,6.624626 l -2.59225,5.040476 c 0,0 -5.75509,-2.170315 -11.80911,-3.60034 -6.05402,-1.430025 -16.09846,-3.563749 -24.91435,-4.032381 -8.81589,-0.468632 -20.49853,0.859287 -27.93865,1.728164 -7.44012,0.868877 -11.84691,2.877845 -17.13762,5.904557 -5.29071,3.026712 -8.4706,7.574477 -11.08904,11.953129 -2.61844,4.378651 -4.00132,7.697998 -4.89646,10.080952 -0.89514,2.382954 -0.97154,2.449322 -1.44014,4.032381 -0.4686,1.583059 -0.91162,3.864472 -1.29612,5.472517 -0.3845,1.608045 -0.60177,2.543772 -1.0081,4.176394 -0.40633,1.632622 -1.16691,3.636541 -1.44013,5.616526 -0.27322,1.97998 0.15378,4.20984 -0.14402,6.19259 -0.2978,1.98275 -1.3555,3.96359 -1.58415,5.61653 -0.22865,1.65294 0.26242,1.94126 0,4.17639 -0.26242,2.23513 -1.18064,6.80202 -2.1602,9.07286 -0.97956,2.27084 -1.54583,3.1025 -3.02429,4.60844 -1.47846,1.50594 -4.14544,3.31964 -5.90455,4.03238 -1.75911,0.71274 -4.1764,0.72007 -4.1764,0.72007 l -7.92075,1.58414 -6.48061,3.88837 -2.73626,3.45633 c 0,0 -1.08249,-3.29633 -1.41713,-4.99409 z"
       id="path46"
       sodipodi:nodetypes="ssssssssssssscczzzzzzzzzzzzzzzzccccs" /><path
       id="path59"
       style="color:#000000;fill:#ffffff;fill-opacity:0.3;-inkscape-stroke:none"
       d="m 291.55664,29.306641 c 0,0 4.16359,3.688083 5.93164,5.630859 0.94392,1.0372 1.6842,2.292574 2.47266,3.539062 0.83376,1.318094 2.75586,3.935547 2.75586,3.935547 0,0 -1.1174,-3.028827 -1.9961,-4.417968 -0.77776,-1.229582 -1.54029,-2.53245 -2.56836,-3.66211 -1.92223,-2.112211 -6.5957,-5.025389 -6.5957,-5.02539 z m -8.35352,0.287109 c 0,0 3.46308,2.614259 4.99024,3.972656 1.27347,1.132743 2.42985,2.416712 3.39258,3.816406 0.77125,1.121306 2.3457,3.660157 2.3457,3.660157 0,0 -0.80202,-2.828736 -1.68555,-4.113281 -1.00277,-1.457917 -2.20349,-2.788591 -3.52148,-3.960938 -1.66692,-1.482715 -5.52149,-3.375 -5.52149,-3.375 z m 27.17579,1.121094 c 0,0 8.70118,4.376761 11.23048,6.577058 1.86162,1.619466 5.24482,6.041096 4.92234,5.396139 0,0 -1.97045,-3.29647 -2.53645,-4.458518 -0.31531,-0.647364 -2.16069,-2.797147 -2.16069,-2.797147 0,0 6.09536,4.694308 8.03165,7.025392 1.16799,1.406136 2.44035,3.502629 3.09274,5.210201 0.66532,1.741386 1.05674,3.610953 1.15235,5.472656 0.0941,1.831835 -0.57617,5.472656 -0.57617,5.472656 l 2.44922,-4.607422 -1.15235,-8.208984 -4.75195,-6.480469 -5.30469,-3.591797 -10.53711,-4.185547 z m -37.04102,0.03125 c 0,0 3.14369,2.50834 4.48438,3.751953 1.08342,1.004992 1.9598,2.274276 2.89062,3.53125 0.64014,0.864434 2.41797,3.591797 2.41797,3.591797 0,0 -0.91631,-3.243687 -1.61524,-4.1875 -0.9164,-1.237524 -1.82141,-2.563988 -3.01367,-3.669922 -1.53967,-1.428192 -5.16406,-3.017578 -5.16406,-3.017578 z m 27.00195,0.433594 c 0,0 3.12384,2.318591 4.64454,3.61914 0.71477,0.6113 3.70898,3.148438 3.70898,3.148438 0,0 -2.15525,-2.764133 -2.98828,-3.476563 -1.63895,-1.401677 -5.36524,-3.291016 -5.36524,-3.291015 z m -33.625,0.503906 c 0,0 2.85189,2.23557 4.05664,3.322265 1.48519,1.339628 2.66263,2.754272 3.8086,4.445313 0.31199,0.460386 1.78125,2.457031 1.78125,2.457031 0,0 -0.45781,-2.176501 -0.88086,-2.800781 -1.16767,-1.723062 -2.4618,-3.421059 -4.03906,-4.84375 -1.41516,-1.276462 -4.72657,-2.580078 -4.72657,-2.580078 z m 41.40235,0.07031 c 0,0 3.76335,2.984046 5.33789,4.533203 1.59502,1.569304 5.24609,6.41211 5.24609,6.41211 0,0 -2.74535,-5.354444 -4.54492,-7.125 -1.77909,-1.750411 -6.03906,-3.820313 -6.03906,-3.820313 z m -47.38086,1.65625 c 0,0 2.71885,2.097582 3.84179,3.109375 1.38204,1.245229 4.1504,4.308594 4.1504,4.308594 0,0 -1.87145,-3.602985 -3.48047,-5.052734 -1.34995,-1.216315 -4.51172,-2.365235 -4.51172,-2.365235 z m -6.48047,2.017578 c 0,0 2.48928,2.482802 3.55273,3.681641 0.9437,1.063835 2.92969,3.519531 2.92969,3.519531 0,0 -1.16049,-2.878222 -2.25781,-4.115234 -1.21708,-1.372021 -4.22461,-3.085938 -4.22461,-3.085938 z m -5.47266,1.65625 c 0,0 2.5606,2.043171 3.33594,2.746094 0.94221,0.854203 1.75562,1.880021 2.52344,2.945313 0.68738,0.953695 2.34961,2.949218 2.34961,2.949218 0,0 -0.75345,-2.443214 -1.53907,-3.533203 -0.78485,-1.088942 -1.63699,-2.172187 -2.6621,-3.101562 -0.96114,-0.871364 -4.00782,-2.00586 -4.00782,-2.00586 z m -2.44726,2.015625 c 0,0 2.92676,1.986379 4.1289,3.03711 1.26392,1.104722 3.71875,3.875001 3.71875,3.875 0,0 -1.73612,-3.20287 -3.19336,-4.476563 -1.39544,-1.219701 -4.65428,-2.435547 -4.65429,-2.435547 z m -5.57617,3.451172 c -0.10352,0.0051 -0.16761,0.03076 -0.1836,0.07813 0,0 3.14267,1.504744 4.46289,2.351563 1.27792,0.819684 3.88867,2.976562 3.88867,2.976562 0,0 -1.95979,-2.690032 -3.45703,-3.65039 -1.34708,-0.864056 -3.98632,-1.791555 -4.71093,-1.75586 z"
       sodipodi:nodetypes="csscssccsscssccscscsssccccccccsscssccscsccsscssccscsccscsccscsccsscssccscscscscsss" /><path
       id="path1"
       style="color:#000000;fill:#000000;-inkscape-stroke:none"
       d="m 267.59766,23.025391 c -1.16034,-0.0045 -2.26618,0.01523 -3.31055,0.0625 -8.35497,0.378183 -12.56389,0.819084 -16.80859,1.589843 -15.2626,2.771399 -30.8466,10.547933 -41.27149,22.121094 -9.61311,10.671954 -13.10111,24.654478 -15.3418,38.582031 -1.21785,7.569945 -0.79035,18.782001 -0.084,28.169921 0.29965,3.98237 0.99552,8.3969 1.6875,12.29688 -1e-4,2.6e-4 -0.006,0.0137 -0.006,0.0137 l 0.008,0.004 c 0.93829,5.28556 1.87696,9.52149 1.87696,9.52149 0,0 -0.45857,-6.33837 -0.72852,-10.17774 0.11791,-0.25943 0.24943,-0.54092 0.4043,-0.85351 0.4858,-0.98054 1.14223,-2.11833 1.6875,-2.66992 0.8027,-0.81202 2.40881,-1.75614 3.79492,-2.46289 1.38611,-0.70676 3.55273,-2.13868 3.55273,-2.13868 0,0 -2.5003,0.70393 -3.91601,1.42579 -1.41572,0.72184 -3.04878,1.65102 -4,2.61328 -0.60485,0.61185 -1.17008,1.57594 -1.63672,2.48242 -0.17713,-2.50601 -0.23603,-3.34312 -0.43945,-6.13867 1.66016,-1.32121 5.03403,-3.96116 6.88671,-5.08203 3.7543,-2.27132 7.32298,-4.87171 11.31836,-6.45118 4.33578,-1.714 13.38868,-4.25976 13.38868,-4.25976 0,0 -9.2054,1.7453 -13.6836,3.51562 -4.12221,1.62961 -7.72334,4.26468 -11.4375,6.51172 -1.82013,1.10118 -4.79129,3.41203 -6.54101,4.80078 -0.10279,-1.40347 -0.12366,-1.78588 -0.22266,-3.10156 -0.10858,-1.44303 -0.18827,-2.9778 -0.27734,-4.48828 0.91191,-1.02432 2.23837,-2.47565 3.11914,-3.26563 1.72167,-1.54418 5.42578,-4.6914 5.42578,-4.6914 0,0 -4.24181,2.28623 -6.09375,3.94726 -0.74231,0.6658 -1.71282,1.69557 -2.53906,2.60547 -0.16395,-3.07831 -0.2808,-6.18865 -0.29688,-9.218748 0.7847,-1.059358 2.2967,-3.041248 3.28711,-3.951171 1.37514,-1.263391 6.50586,-4.761719 6.50586,-4.761719 0,0 -5.6931,2.385727 -7.31836,3.878906 -0.77284,0.710032 -1.69811,1.831175 -2.46484,2.81836 0.0115,-1.241794 0.0401,-2.450262 0.0898,-3.625 1.43238,-1.657886 4.91327,-5.580334 7.22461,-7.257813 1.9483,-1.413998 7.94141,-4.886719 7.94141,-4.886719 0,0 -6.53844,2.138918 -8.76368,3.753906 -1.99963,1.451264 -4.54757,4.162215 -6.26953,6.09961 0.0878,-1.24888 0.20389,-2.429312 0.35157,-3.53711 1.38328,-1.370818 4.43199,-4.351741 6.27539,-5.851562 2.13678,-1.738536 4.2846,-3.461666 6.66406,-4.683594 1.66315,-0.854077 5.48633,-2.550781 5.48633,-2.550781 0,0 -4.07692,0.477811 -6.03321,1.482422 -2.52522,1.296788 -4.73299,3.081069 -6.87304,4.822265 -1.53366,1.247816 -3.67809,3.299143 -5.23047,4.816407 0.46787,-2.839699 0.99699,-5.662316 1.61523,-8.447266 1.77847,-1.049651 8.74501,-5.104945 12.83594,-6.572265 6.37772,-2.287535 13.11069,-3.789891 19.85938,-4.28711 2.76078,-0.203404 8.74023,-0.02148 8.74023,-0.02148 0,0 -5.73566,-1.403621 -8.82813,-1.175782 -6.86691,0.50593 -13.70259,2.031742 -20.17578,4.353516 -3.62854,1.301473 -9.25949,4.463 -12.06445,6.091797 0.36851,-1.553994 0.76491,-3.094936 1.20508,-4.615234 1.54146,-0.665154 4.14155,-1.744618 5.71484,-2.15625 4.159,-1.088152 12.97852,-2.355469 12.97852,-2.355469 0,0 -8.85137,0.242932 -13.23047,1.388672 -1.44108,0.377041 -3.51228,1.203353 -5.0586,1.857422 0.62549,-2.039432 1.30018,-4.05513 2.09376,-6.007813 0.32866,-0.351805 0.71188,-0.756416 1.1621,-1.208984 1.14741,-1.153371 2.59043,-2.473042 3.625,-3.087891 1.45671,-0.865713 4.00249,-1.7375 6.15625,-2.367187 2.15378,-0.629689 3.8125,-1.517579 3.8125,-1.517579 0,0 -1.9063,-0.08232 -4.09179,0.556641 -2.1855,0.63896 -4.75257,1.496416 -6.38867,2.46875 -0.99328,0.590293 -2.13423,1.59669 -3.15821,2.587891 1.37302,-2.977299 2.98988,-5.822816 4.91797,-8.490235 1.5484,-0.659422 5.78899,-2.41052 8.22852,-2.824218 2.24891,-0.381378 7.08203,-0.507813 7.08203,-0.507813 0.14883,-0.08162 -4.76709,-0.899577 -7.25,-0.478516 -1.9828,0.336247 -4.85351,1.407403 -6.86133,2.220704 0.57133,-0.721047 1.16242,-1.429764 1.78516,-2.121094 6.1091,-6.782005 14.13305,-12.249426 22.8164,-16.109375 1.32902,-0.255617 2.75322,-0.497494 3.7461,-0.574219 2.75623,-0.212991 5.54703,-0.261076 8.22851,0.199219 1.58147,0.27147 5.07422,1.136719 5.07422,1.136719 0,0 -3.03876,-1.802481 -4.90625,-2.123047 -1.40339,-0.240901 -2.8222,-0.348061 -4.24023,-0.367188 -1.37125,-0.0185 -2.74085,0.0465 -4.09375,0.148438 3.82478,-1.462923 7.73834,-2.607594 11.64257,-3.423828 1.66022,0.144483 4.69066,0.440177 6.41016,0.8125 2.78978,0.604068 8.42578,2.304687 8.42578,2.304687 0,0 -5.35939,-2.358414 -8.27734,-2.990234 -1.10982,-0.240308 -2.68473,-0.442243 -4.12696,-0.597656 16.40012,-2.883788 32.4956,-1.559288 48.4004,1.724609 8.48095,1.751079 15.1622,3.535049 20.2207,5.074219 0.99069,0.719045 2.62731,1.956631 3.39844,2.826172 1.06733,1.203561 3.01172,4.144531 3.01172,4.144531 0,0 -1.26856,-3.23398 -2.48829,-4.609375 -0.47528,-0.535943 -1.18743,-1.15217 -1.89843,-1.71875 2.3946,0.763833 4.35478,1.787805 5.71255,2.635919 1.27201,0.794543 2.57579,1.705168 3.62338,2.690253 1.78746,1.680795 3.7953,3.826119 4.61329,5.40039 1.54289,2.96938 2.44663,6.530366 1.96484,9.75586 -0.11304,0.756788 -0.62952,1.773217 -1.08203,2.970703 -0.43611,1.154067 -1.07617,2.427734 -1.07617,2.427734 0,0 1.10877,-0.495089 1.90625,-1.53125 0.69542,-0.903567 1.4536,-2.434216 1.63671,-3.660156 0.54099,-3.621842 -0.45815,-7.435281 -2.10742,-10.609375 -0.9975,-1.919747 -3.06449,-4.050761 -4.20119,-5.263662 -0.38739,-0.36427 -2.74665,-2.332654 -7.16709,-4.502412 -4.42045,-2.169758 -13.09081,-5.640024 -25.76062,-8.007364 -10.61327,-1.983078 -21.37764,-3.245852 -29.5,-3.277343 z m 7.35937,3.21289 c -1.13359,-0.0085 -1.87109,0.04492 -1.87109,0.04492 0,0 3.23086,0.841498 5.77929,1.533203 2.54845,0.691706 5.55904,1.67647 7.24219,2.695313 3.65179,2.210496 6.83248,5.40921 9.15039,9.011719 1.37749,2.140884 2.23001,4.688318 2.64063,7.240234 0.10249,0.636999 0.27722,1.672306 0.30078,2.617187 0.0263,1.056866 -0.16211,2.931641 -0.16211,2.931641 0,0 0.84919,-1.905068 0.99219,-2.878906 0.17591,-1.197958 0.29396,-1.996578 0.15234,-2.876953 -0.43378,-2.695873 -1.33346,-5.407244 -2.83203,-7.736329 -2.4209,-3.762565 -5.72992,-7.097201 -9.57031,-9.421874 -1.94029,-1.174492 -4.9174,-2.428832 -7.57422,-2.837891 -1.58516,-0.244061 -3.11446,-0.313751 -4.24805,-0.322266 z m 13.11914,0.634766 c -0.73258,-0.0092 -1.20117,0.05664 -1.20117,0.05664 0,0 1.90037,0.384736 3.91406,1.121093 2.20524,0.806402 4.20726,1.899088 5.53125,2.740235 2.68592,1.706387 4.81991,4.338813 6.73047,7.029296 1.9498,2.74574 3.78787,5.679337 4.50391,8.839844 0.18236,0.804948 0.16669,2.269359 0.0781,3.480469 -0.0885,1.21111 -0.16406,3.144531 -0.16406,3.144531 0,0 1.36677,-1.787691 1.45898,-3.048828 0.0922,-1.261136 0.14718,-2.748123 -0.10546,-3.863281 -0.78297,-3.455916 -2.73284,-6.521051 -4.71094,-9.306641 -1.94228,-2.735145 -4.16482,-5.511027 -7.09571,-7.373047 -1.58462,-1.006732 -4.04817,-1.820025 -6.15624,-2.423828 -1.05404,-0.3019 -2.05063,-0.387243 -2.78321,-0.396484 z m -30.01758,0.84375 c 0,0 4.17996,1.477575 6.07813,1.9375 1.89817,0.459923 4.15396,1.120263 5.41992,1.785156 3.68188,1.93376 7.2237,4.505841 9.54297,7.84375 1.5011,2.160398 2.28199,4.908348 2.61719,7.607422 0.086,0.692557 0.17173,2.341027 0.041,3.369141 -0.13107,1.028114 -0.42578,3.226562 -0.42578,3.226562 0,0 1.49787,-2.371559 1.63477,-3.445312 0.13689,-1.073754 0.26049,-2.341363 0.13867,-3.322266 -0.35332,-2.845029 -1.16876,-5.806851 -2.85547,-8.234375 -2.50665,-3.607583 -6.23723,-6.286346 -10.04297,-8.285156 -1.51865,-0.797608 -3.80008,-1.433727 -5.74219,-1.904297 -1.94209,-0.470571 -6.40625,-0.578125 -6.40625,-0.578125 z m 40.19532,1.517578 c 0,0 5.00416,3.009939 7.20898,4.509766 3.15997,2.149564 6.27761,4.477551 8.45703,7.455078 1.57856,2.156626 2.98007,4.616078 3.16992,7.101562 0.051,0.667746 -0.21332,2.19066 -0.52734,3.714844 -0.22734,1.103499 -0.74023,2.998047 -0.74023,2.998047 0,0 1.51567,-1.779574 2.05859,-3.173828 0.4371,-1.12251 0.7942,-2.48554 0.70508,-3.652344 -0.22593,-2.957675 -1.80932,-5.626556 -3.45508,-7.875 -2.36031,-3.224659 -5.62907,-5.635094 -8.82422,-7.808594 -2.51698,-1.712174 -8.05273,-3.269531 -8.05273,-3.269531 z m -25.2168,0.349609 c 0,0 2.69397,1.882443 5.22656,3.490235 2.5326,1.60779 5.43983,3.704447 6.84766,5.457031 1.95621,2.43526 3.47145,5.501637 3.64648,8.546875 0.034,0.591857 -0.26164,1.702879 -0.59375,2.601563 -0.3321,0.898684 -0.58789,2.96875 -0.58789,2.96875 0,0 1.26699,-1.634954 1.61914,-2.587891 0.35216,-0.952937 0.71746,-2.081974 0.66211,-3.044922 -0.19326,-3.362433 -1.82541,-6.603359 -3.88867,-9.171875 -1.59465,-1.98515 -4.54307,-4.064345 -7.11523,-5.697266 -2.57218,-1.632919 -5.81641,-2.5625 -5.81641,-2.5625 z m -25.27734,0.863282 c 0,0 4.59478,1.363623 7.1875,2.792968 2.5927,1.429346 5.63692,3.26787 7.31835,4.757813 2.28897,2.028263 4.49823,4.339156 5.50977,7.052734 0.37792,1.013829 0.50879,2.929878 0.49805,4.529297 -0.0107,1.59942 -0.0449,4.900391 -0.0449,4.900391 0,0 1.43413,-3.227507 1.44531,-4.892578 0.0112,-1.665072 -0.0615,-3.618596 -0.58594,-5.025391 -1.1514,-3.08878 -3.54884,-5.5328 -5.89453,-7.611328 -1.87385,-1.660428 -4.94188,-3.488458 -7.57031,-4.9375 -2.62844,-1.449043 -7.86328,-1.566406 -7.86328,-1.566406 z m 31.03906,0.04297 c 0,0 2.48596,1.400692 4.63086,2.777344 2.1449,1.376653 4.58158,3.197222 5.65625,4.689453 1.92421,2.671881 2.89692,6.175444 3.03515,9.523438 0.0209,0.506714 -0.0777,1.563586 -0.23437,2.46875 -0.14142,0.817154 -0.69336,2.339844 -0.69336,2.339843 0,0 1.52007,-1.310937 1.76367,-2.160156 0.2436,-0.849219 0.49802,-1.850423 0.46289,-2.701172 -0.14696,-3.559428 -1.16339,-7.292418 -3.2793,-10.230468 -1.30988,-1.818867 -3.81191,-3.614753 -6.00976,-5.025391 -2.19785,-1.410638 -5.33203,-1.681641 -5.33203,-1.681641 z m -16.17188,2.910157 c 0,0 2.62883,1.526353 4.01563,2.398437 1.3868,0.872084 3.00451,1.996836 3.83594,2.869141 2.30407,2.417365 4.69962,5.159325 5.14843,8.253906 0.0796,0.548929 -0.18008,1.653901 -0.50195,2.550781 -0.32187,0.896881 -1.0918,3.480469 -1.0918,3.480469 0,0 1.78228,-2.148951 2.12696,-3.109375 0.34467,-0.960424 0.69727,-2.096939 0.55468,-3.080078 -0.51382,-3.542869 -3.11811,-6.415995 -5.4414,-8.853516 -0.98748,-1.03603 -2.62781,-2.151814 -4.04492,-3.042968 -1.41713,-0.891154 -4.60157,-1.466797 -4.60157,-1.466797 z m 31.01563,0.585937 c 0,0 2.98599,3.561852 4.19726,5.324219 1.56834,2.281878 3.01505,4.717988 3.67188,7.328125 0.17295,0.68729 0.52516,1.546692 0.5625,2.861328 0.0286,1.008821 0.0664,1.912109 0.0664,1.912109 0,0 0.4623,-0.549857 0.57813,-1.847656 0.0927,-1.03918 -0.0128,-2.273724 -0.23828,-3.169922 -0.70533,-2.802846 -2.22315,-5.332246 -3.81641,-7.65039 -1.36766,-1.989924 -5.02148,-4.757813 -5.02148,-4.757813 z m -48.83594,0.535156 c 0,0 2.89949,1.31752 4.71484,2.25586 1.81537,0.93834 3.93963,2.166785 5.06641,3.179687 2.1945,1.972728 4.16461,4.384839 5.13281,7.087891 0.31079,0.867657 0.43347,2.483077 0.44336,3.830078 0.01,1.347001 0.1211,3.605469 0.1211,3.605469 0,0 1.08832,-2.215881 1.07812,-3.615235 -0.0103,-1.399352 -0.0905,-3.043083 -0.51367,-4.224609 -1.065,-2.973276 -3.16945,-5.518019 -5.45899,-7.576172 -1.31549,-1.182553 -3.46732,-2.396731 -5.31835,-3.353515 -1.85105,-0.956784 -5.26563,-1.189454 -5.26563,-1.189454 z m 72.09766,1.322266 c 0,0 1.14276,2.450609 2.80664,5.152344 1.66387,2.701733 3.34365,6.057489 3.51953,8.33789 0.0481,0.623932 -0.31079,1.831805 -0.7207,2.806641 -0.40992,0.974836 -1.89454,4.195313 -1.89454,4.195313 0,0 2.56419,-2.689412 3.00196,-3.730469 0.43776,-1.041058 0.89449,-2.276791 0.81054,-3.365235 -0.2117,-2.74491 -1.99376,-6.110144 -3.69531,-8.873046 -1.70154,-2.762902 -3.82812,-4.523438 -3.82812,-4.523438 z m -81.05469,0.002 c 0.0112,0.0071 6.74981,4.319041 9.78516,6.626953 2.98292,2.268071 6.02222,4.577429 7.99804,7.580078 0.54155,0.822984 1.34296,2.096049 1.76758,3.431641 0.42461,1.335593 0.98047,3.162109 0.98047,3.162109 0,0 0.49349,-1.86996 0.0547,-3.25 -0.43875,-1.380038 -1.01301,-2.989052 -1.7168,-4.058593 -2.14201,-3.255213 -5.31664,-5.634374 -8.29687,-7.900391 -3.26054,-2.479145 -10.55508,-5.584485 -10.57227,-5.591797 z m 70.17969,1.021485 c 0,0 2.22422,3.281815 3.29101,4.810546 1.06679,1.528732 2.23029,3.438348 2.61328,4.722657 0.25663,0.860567 0.31412,2.432115 0.27539,3.738281 -0.0387,1.306166 -0.27539,3.722656 -0.27539,3.722656 0,0 1.33835,-2.337796 1.47461,-3.6875 0.14203,-1.406884 0.0229,-2.953122 -0.32422,-4.117187 -0.47349,-1.587811 -1.68399,-3.494861 -2.77929,-5.064453 -1.09531,-1.569592 -4.27539,-4.125001 -4.27539,-4.125 z m -79.75586,1.21875 c 0,0 3.45186,1.63181 6.73437,3.292968 3.28252,1.66116 7.13897,3.80617 9.31641,5.597656 6.0447,4.973283 8.11523,10.605469 8.11523,10.605469 0,0 -0.84529,-6.438917 -7.22461,-11.6875 -2.3748,-1.953879 -6.05378,-4.137063 -9.57617,-5.765625 -3.37609,-1.560926 -7.36523,-2.042969 -7.36523,-2.042968 z m 97.96289,0.609374 c 0,0 0.95852,2.228365 2.44336,4.591797 1.48484,2.363434 2.94735,5.308347 3.01758,7.246094 0.0274,0.756035 -0.51871,2.167045 -1.11915,3.296875 -0.60042,1.12983 -1.97265,3.822266 -1.97265,3.822266 0,0 2.48081,-2.006134 3.12109,-3.210938 0.64028,-1.204804 1.31703,-2.644374 1.26953,-3.955078 -0.0903,-2.492418 -1.68483,-5.455297 -3.21484,-7.890625 -1.53001,-2.435326 -3.54492,-3.90039 -3.54492,-3.900391 z m -101.83399,6.925782 c 0,0 2.38591,1.236653 5.47657,2.222656 3.09064,0.986003 6.74583,2.316634 8.88086,3.587891 4.32527,2.575398 6.52281,5.341014 7.65234,7.443359 1.12953,2.102345 1.78516,3.451172 1.78516,3.451172 0,0 0.21127,-1.596796 -0.72852,-4.019531 -1.02622,-2.645555 -3.59667,-5.228562 -8.09375,-7.90625 -2.33027,-1.387512 -6.00783,-2.704214 -9.13281,-3.701172 -3.12499,-0.996958 -5.83985,-1.078125 -5.83985,-1.078125 z m -2.53125,5.107422 c -1.83156,-0.0067 -3.13086,0.251953 -3.13086,0.251953 0,0 2.20516,0.737355 4.97266,1.05664 2.7675,0.319287 6.07237,0.831859 8.08008,1.527344 3.43993,1.191617 6.80722,2.911586 9.4375,5.345703 0.81295,0.752327 1.86553,2.283311 2.66992,3.601563 0.80439,1.318251 2.05859,3.447265 2.05859,3.447265 0,0 -0.20818,-2.716999 -1.03515,-4.072265 -0.82698,-1.355267 -1.86256,-2.918679 -2.87695,-3.857422 -2.79737,-2.588759 -6.31348,-4.370605 -9.86133,-5.599609 -2.21346,-0.766754 -5.53216,-1.262691 -8.33399,-1.585938 -0.70045,-0.08081 -1.36994,-0.112991 -1.98047,-0.115234 z m -1.35351,7.667968 c -1.07664,0.0067 -2.16072,0.0422 -3.17188,0.08984 -2.69641,0.12704 -6.52539,1.423828 -6.52539,1.423828 0,0 3.92856,2.93e-4 6.58789,-0.125 2.65934,-0.125293 5.85723,-0.15146 7.84766,0.189453 4.61176,0.789889 9.18218,2.38988 13.16406,4.810547 0.89361,0.543241 2.19313,1.718456 3.22461,2.740235 1.03148,1.021778 2.29688,1.457031 2.29688,1.457031 0,0 -0.32286,-1.330871 -1.38282,-2.38086 -1.05995,-1.049987 -2.35325,-2.253163 -3.46289,-2.927734 -4.14161,-2.517768 -8.8625,-4.165431 -13.62109,-4.980469 -1.38807,-0.237744 -3.16264,-0.308028 -4.95703,-0.296875 z m 10.91211,8.251954 c -5.14897,0.09108 -12.03737,1.447042 -14.99414,2.03125 -1.99594,0.394361 -5.28799,1.549153 -8.14453,2.613281 -2.85656,1.064128 -6.11133,3.880859 -6.11133,3.880859 0,0 3.80188,-1.419296 6.63476,-2.474609 2.8329,-1.055314 6.1674,-2.204105 7.91211,-2.548828 3.1464,-0.621675 10.78361,-2.088575 15.68164,-2.001953 1.43474,0.02537 3.88483,0.548692 5.91407,1.076171 2.02922,0.527481 5.33203,0.910157 5.33203,0.910157 0,0 -2.88325,-1.822775 -4.95508,-2.361328 -2.07183,-0.538553 -4.51682,-1.094107 -6.26367,-1.125 -0.32612,-0.0058 -0.6626,-0.0061 -1.00586,0 z m 4.69531,4.349609 c -0.42815,-0.0045 -0.86479,0.005 -1.30664,0.03125 -3.53478,0.209707 -8.86214,1.088296 -13.91602,2.214844 -4.40297,0.981459 -13.68359,4.810546 -13.68359,4.810547 0,0 9.76893,-2.60528 13.9668,-3.541016 5.00468,-1.115585 8.53682,-1.983356 13.72265,-2.291016 1.56407,-0.09279 6.73047,-0.503906 6.73047,-0.503906 0,0 -2.51659,-0.689066 -5.51367,-0.720703 z m 4.65039,3.457031 c 0,0 -3.32481,1.979828 -4.46875,3.074219 -1.14393,1.094391 -2.58829,2.338119 -3.59375,2.878906 -3.80345,2.0457 -8.62714,1.950575 -13.02734,3.564453 -5.01381,1.83893 -14.32617,6.654298 -14.05078,7.1875 0,0 9.6388,-4.290483 14.46484,-6.060547 4.1062,-1.506044 9.00554,-1.388634 13.18164,-3.634765 1.24161,-0.667807 2.67895,-1.944666 3.85352,-3.06836 1.17455,-1.123694 3.64062,-3.941406 3.64062,-3.941406 z m -6.48242,1.439453 c 0,0 -10.18279,0.229895 -15.16406,1.878907 -6.13054,2.029463 -16.51758,9.210937 -16.51758,9.210937 0,0 11.12173,-6.161223 16.89453,-8.072266 4.62355,-1.530591 14.78711,-3.017578 14.78711,-3.017578 z m 3.3125,5.041016 c 0,0 -3.45935,4.119495 -4.40039,5.023437 -0.94105,0.903943 -2.13172,1.930766 -2.94141,2.369141 -4.06958,2.203319 -9.19303,2.185207 -13.88476,3.851563 -3.87738,1.37712 -7.65434,3.046028 -11.30664,4.927734 -2.30841,1.189313 -6.20704,4.421879 -6.20704,4.421879 0,0 4.58536,-2.237204 6.75586,-3.355473 3.60977,-1.859784 7.33943,-3.50628 11.16016,-4.863281 4.41768,-1.569019 9.62332,-1.526594 14.05469,-3.925781 1.04486,-0.565702 2.22963,-1.627316 3.20117,-2.560547 0.97153,-0.933232 3.56836,-5.888672 3.56836,-5.888672 z m -1.15235,3.601562 c 0,0 -1.66769,3.442143 -2.24609,4.845703 -0.5784,1.403562 -1.3864,3.037579 -2.08984,3.826172 -2.09529,2.34892 -5.33104,3.606906 -8.33008,5.199219 -3.95766,2.101278 -8.09595,3.885878 -12.31055,5.439458 -3.69205,1.36096 -11.31445,5.60351 -11.31445,5.60351 0,0 8.18134,-3.17096 11.72851,-4.47851 4.25518,-1.56854 8.44383,-3.37405 12.45899,-5.505864 2.90645,-1.543151 6.30852,-2.818309 8.66406,-5.458985 0.92596,-1.038034 1.70434,-2.715881 2.30274,-4.167968 0.59839,-1.452088 1.13671,-5.302735 1.13671,-5.302735 z m -2.30273,8.638672 c 0,0 -2.02054,3.319671 -2.89258,4.978516 -0.87203,1.658845 -2.03481,3.583734 -3,4.531254 -3.0703,3.0141 -7.38677,4.66733 -11.49023,6.50586 -3.17476,1.42242 -6.85477,1.89683 -10.23242,3.45898 -1.89496,0.87641 -6.51563,4.7207 -6.51563,4.7207 0,0 5.35769,-2.86226 7.01953,-3.63086 3.15323,-1.45834 6.82695,-1.9354 10.21875,-3.45507 4.05807,-1.81819 8.52817,-3.4931 11.83985,-6.74414 1.18506,-1.16338 2.32609,-3.12634 3.2207,-4.82813 0.89461,-1.701792 1.83203,-5.53711 1.83203,-5.53711 z m -1.58398,5.90625 c 0,0 -1.89774,2.92711 -2.57618,4.86328 -0.67842,1.93617 -1.67513,4.16882 -2.65039,5.20313 -2.97036,3.15022 -7.88601,4.0589 -12.18554,6.04883 -3.48142,1.61126 -7.36002,2.61989 -10.85157,4.63476 -2.4217,1.39751 -6.01171,5.31641 -6.01171,5.31641 0,0 4.50827,-2.94766 6.66015,-4.18946 3.28913,-1.89805 7.12675,-2.9051 10.75,-4.58203 4.07806,-1.8874 9.22332,-2.76971 12.58594,-6.33593 1.28201,-1.35964 2.22826,-3.66425 2.92969,-5.66602 0.70142,-2.00177 1.34961,-5.29297 1.34961,-5.29297 z m -0.28907,4.60742 c 0,0 -1.41765,3.84617 -1.8457,5.33008 -0.42804,1.48392 -1.0552,3.22931 -1.67187,4.12109 -1.19505,1.72818 -3.06701,3.04343 -4.98829,4.14063 -4.19029,2.39299 -9.3774,2.92862 -14.06054,5.01367 -3.87007,1.72305 -10.70117,6.45313 -10.70117,6.45313 0,0 7.48553,-3.7064 11.18945,-5.35547 4.44403,-1.97859 9.6824,-2.50676 14.16797,-5.06836 1.98566,-1.13396 4.01503,-2.52765 5.3789,-4.5 0.79942,-1.15605 1.3978,-2.93826 1.83985,-4.4707 0.44204,-1.53246 0.6914,-5.66407 0.6914,-5.66407 z m -2.44922,10.65821 c 0,0 -2.93346,5.07876 -4.51757,7.28125 -2.41563,3.35857 -5.20408,6.53343 -8.50782,8.9375 -3.26199,2.37368 -7.56679,3.26454 -11.32421,5.43945 -1.8424,1.06643 -4.74024,3.97461 -4.74024,3.97461 0,0 3.65787,-1.96084 5.3418,-2.93555 0.22842,-0.13222 0.46035,-0.25754 0.69531,-0.38086 -1.85558,1.04237 -3.87695,2.74024 -3.87695,2.74024 0,0 3.73819,-1.78322 5.49609,-2.40821 3.45737,-1.2292 7.7576,-0.38987 11.42969,-2.18164 2.89045,-1.41038 5.54357,-3.62935 7.26172,-6.37695 1.32966,-2.12635 2.24952,-5.56459 2.87695,-8.50586 0.62744,-2.94127 0.44336,-5.44141 0.44336,-5.44141 0,0 -0.80385,2.33722 -1.42187,5.23438 -0.61802,2.89716 -1.57086,6.29912 -2.74805,8.18164 -1.60037,2.55925 -4.11693,4.67541 -6.85156,6.00977 -3.26623,1.59371 -7.50745,0.78168 -11.32422,2.13867 -0.0855,0.0304 -0.17479,0.0688 -0.26367,0.10547 3.15938,-1.47483 6.72561,-2.44927 9.71289,-4.62305 3.45014,-2.51061 6.31384,-5.78461 8.77539,-9.20703 1.77617,-2.46953 3.54296,-7.98242 3.54296,-7.98242 z m -3.45507,3.45507 c 0,0 -6.40981,4.40414 -9.70313,6.27735 -3.39229,1.9295 -7.1541,3.21527 -10.76953,4.88086 -2.26702,1.04438 -6.60156,3.53125 -6.60156,3.53125 0,0 4.67738,-1.76438 6.93555,-2.80469 3.56524,-1.64247 7.35217,-2.9328 10.83203,-4.91211 3.42043,-1.94551 9.30664,-6.97266 9.30664,-6.97266 z"
       sodipodi:nodetypes="sssssscccccssscssccsscsscscscsccscsccscsccsscssccsscssccscsccssscssccscscscsscssccscscscscscssssscsssccssscssssscscssssscssssccsssssscssssccsssssccsssscssssccsssscssssccsssscscssccsssscssssccsssscssssccssscscsccsssccccssccssscsssccssscsssccssscsssccsscssccssscsssccssscssscscsssscssssssscsssscssssssscsssscsssssscsscscssscsssccscsccsssscssssccsssscssssccsssscssssccsssscssssccsssscssssccssscsccsssscsssscssccsscssc" /><path
       id="path48"
       style="fill:#000000;fill-opacity:0.3;stroke:none;stroke-width:1px;stroke-linecap:butt;stroke-linejoin:miter;stroke-opacity:1"
       d="m 227.68555,32.546875 -6.73243,3.017578 c -0.39169,0.248399 -0.80072,0.471671 -1.1875,0.726563 -5.87853,3.874046 -13.18773,10.834228 -15.55468,14.402343 -3.5696,5.381076 -6.27736,10.349627 -8.35156,16.128907 -2.10103,5.853895 -3.66477,11.960457 -4.36329,18.140625 -1.22632,10.849941 -0.31723,21.857689 0.35743,32.755859 0.44748,7.22828 1.04284,14.48248 2.44336,21.58789 0.33459,1.69776 1.41796,4.99414 1.41796,4.99414 l 2.73633,-3.45508 6.48047,-3.88867 7.91992,-1.58398 c 0,0 2.41863,-0.008 4.17774,-0.72071 1.75911,-0.71274 4.42588,-2.52531 5.90429,-4.03125 1.47846,-1.50589 2.04388,-2.33853 3.02344,-4.60937 0.97956,-2.27084 1.89774,-6.83714 2.16016,-9.07227 0.26242,-2.23508 -0.22865,-2.52479 0,-4.17773 0.22865,-1.65294 1.28618,-3.63249 1.58398,-5.61524 0.2978,-1.9827 -0.12869,-4.21338 0.14453,-6.19336 0.27322,-1.97995 1.03313,-3.982617 1.43946,-5.615229 0.40633,-1.632617 0.62331,-2.569695 1.00781,-4.177735 0.16804,-0.702773 0.35141,-1.554892 0.53906,-2.40039 l -5.00195,0.529296 -19.3711,5.615235 c 0,0 4.5396,-6.29415 7.52344,-7.714844 4.24033,-2.018952 15.73633,-5.964844 15.73633,-5.964844 0,0 -16.77941,4.390625 -17.35547,4.390625 -0.30052,0 4.11106,-3.673377 7.43555,-5.810546 3.04807,-1.959476 9.12695,-3.765626 9.12695,-3.765626 l -15.19336,2.808594 c 0,0 4.57979,-2.517611 6.76953,-3.529297 3.30737,-1.528009 10.36719,-3.455078 10.36719,-3.455078 l -21.60156,3.958985 c 0,0 7.0806,-4.956239 10.08203,-5.976563 4.70333,-1.598892 14.83203,-1.439453 14.83203,-1.439453 0,0 -10.77627,-3.421088 -16.34375,-4.255859 -2.70896,-0.406176 -9.07422,0.294921 -9.07422,0.294921 0,0 10.65764,-3.216493 15.04883,-2.664062 4.75957,0.598776 13.68164,4.464844 13.68164,4.464844 0,0 -2.47703,-4.287528 -4.46484,-5.617188 -3.71409,-2.484313 -8.48055,-2.937384 -12.88282,-3.703125 -3.50894,-0.610356 -10.6621,-0.6875 -10.6621,-0.6875 -10e-6,0 7.03399,-1.976929 11.08789,-1.800781 6.48227,0.281666 20.23437,6.912109 20.23437,6.912109 0,0 -2.06368,-5.80818 -4.03125,-7.201171 -3.98205,-2.819199 -9.28803,-4.379876 -14.08008,-5.296876 -2.66509,-0.509994 -9.46679,-0.607421 -9.46679,-0.607421 0,0 4.52598,-2.522688 6.62304,-2.746094 4.24911,-0.45267 15.48242,1.30664 15.48242,1.306641 0,-10e-7 -7.87171,-3.300561 -11.18945,-3.798829 -2.15311,-0.323355 -7.53125,-0.449218 -7.53125,-0.449218 0,0 4.06059,-1.205965 6.94141,-1.806641 2.63344,-0.549108 3.80307,-0.642061 6.45117,-0.498047 2.50184,0.136059 5.97791,0.08138 8.89844,0.839844 3.16915,0.823039 8.23828,3.193359 8.23828,3.193359 L 235.9668,36.076172 c 0,0 4.61107,0.180838 6.24414,0.644531 2.34769,0.666607 6.78906,2.738281 6.78906,2.738281 0,0 -5.63562,-4.810644 -9.07422,-5.904296 -3.52515,-1.121184 -12.24023,-1.007813 -12.24023,-1.007813 z m 56.1289,6.011719 c 0,0 1.09397,1.676306 1.53711,2.414062 0.68793,1.145282 1.17978,2.101312 1.54688,3.40625 0.18797,0.668191 0.69531,2.533203 0.69531,2.533203 0,0 0.21153,-1.569941 -0.0215,-2.398437 -0.37889,-1.346853 -0.89059,-2.686162 -1.6211,-3.902344 -0.54905,-0.91408 -2.13672,-2.052734 -2.13672,-2.052734 z m -6.83007,0.240234 c 0,0 0.80021,2.712954 1.15039,3.908203 0.47116,1.608239 0.89472,3.244798 0.79687,4.81836 -0.0254,0.40871 -0.20072,1.07306 -0.39648,1.689453 -1.26791,-1.577036 -2.86912,-3.536578 -3.60938,-4.226563 -0.99263,-0.925208 -4.04883,-3.691406 -4.04883,-3.691406 0,0 1.39826,3.514328 1.14258,6.287109 -0.20013,2.170434 -3.48633,5.283203 -3.48633,5.283204 0,0 -0.87444,-5.158831 -1.68554,-6.419922 -1.32765,-2.064237 -4.06055,-4.404297 -4.06055,-4.404297 0,0 2.1805,5.407805 2.09961,7.195312 -0.0417,0.922556 -0.33399,2.75 -0.33399,2.75 0,0 -0.91623,-2.53602 -1.4375,-3.445312 -1.60517,-2.800104 -4.60351,-5.306641 -4.60351,-5.306641 l 1.27344,4.925781 -0.16993,4.554688 c 0,0 -2.11216,-3.552414 -3.60156,-4.132813 -1.48205,-0.577529 -5.46484,-2.039062 -5.46484,-2.039062 0,0 1.93366,3.305111 3.00195,5.59375 0.38736,0.829859 0.74609,3.087891 0.7461,3.08789 l -7.74805,-5.177734 c 0,0 1.12673,5.787674 1.51172,7.740234 0.16471,0.835403 0.0662,2.60627 -0.0569,3.734045 0.87022,-0.733174 1.94257,-1.371563 2.96915,-1.958849 5.29071,-3.026697 9.73935,-4.978589 17.17942,-5.847461 7.44012,-0.868872 18.98052,-2.485053 27.79636,-2.016426 8.81584,0.468632 19.00319,2.891098 25.05716,4.321113 5.63272,1.330515 10.58409,3.155929 11.30469,3.423828 0.0427,-0.288205 0.46025,-3.093832 0.75195,-4.005859 0.59149,-1.849393 0.12695,-6.923828 0.12695,-6.923828 0,0 -0.58754,4.661915 -1.6875,6.066406 -0.39975,0.510425 -1.5664,1.150391 -1.5664,1.150391 0,0 -1.17852,-5.286065 -2.23633,-7.607422 -0.77531,-1.701382 -3.29688,-5.457031 -3.29688,-5.457031 0,0 2.92662,7.018588 2.65235,10.185547 -0.0593,0.684752 -0.86328,1.871093 -0.86328,1.871093 l -4.95313,-11.884765 c 0,0 1.16222,3.758005 0.83984,5.626953 -0.19844,1.150695 -1.0371,4.515625 -1.0371,4.515625 0,0 -2.45907,-5.710671 -3.39844,-7.669922 -0.93936,-1.959252 -4.16797,-5.357422 -4.16797,-5.357422 0,0 1.87034,6.120295 1.98047,7.453125 0.12495,1.512169 -0.64063,4.81836 -0.64063,4.818359 l -3.53906,-8.357421 c 0,0 0.31812,2.452295 0.26172,3.68164 -0.0502,1.095019 -0.5332,3.246094 -0.5332,3.246094 l -4.8711,-8.025391 c 0,0 0.36677,3.439359 0.0137,5.103516 -0.034,0.160253 -0.11128,0.357839 -0.18359,0.550781 -0.0215,-0.231796 -0.0465,-0.452723 -0.0801,-0.646484 -0.27161,-1.566133 -1.72656,-4.179688 -1.72656,-4.179688 0,0 0.70386,2.957966 0.93945,4.316407 0.0898,0.517843 0.12436,1.343481 0.13672,2.070312 -0.0603,0.10868 -0.19336,0.361328 -0.19336,0.361328 l -6.0664,-6.134765 -0.46875,6.443359 c 0,0 -0.36158,-0.730686 -0.73438,-1.439453 -0.022,-0.249641 -0.0471,-0.521363 -0.0801,-0.822266 -0.10974,-1.000203 -0.27645,-2.184001 -0.54492,-2.996093 -0.23742,-0.718163 -0.73822,-1.637044 -1.18359,-2.398438 -0.44537,-0.761394 -1.12891,-1.164063 -1.12891,-1.164062 0,0 0.37496,0.737759 0.81055,1.482421 0.43558,0.744664 0.63878,1.696544 0.83789,2.298829 0.17437,0.527461 0.31643,1.330364 0.42187,2.115234 -0.39201,-0.616017 -0.80127,-1.195806 -1.19922,-1.5625 -0.97684,-0.900182 -4.11132,-3.890625 -4.11132,-3.890625 l 0.61132,6.685547 c 0,0 -0.41966,-2.064217 -1.00585,-2.904297 -0.64656,-0.926594 -3.53907,-5.507813 -3.53907,-5.507813 0,0 0.70808,3.778657 0.57813,5.675782 -0.086,1.255443 -0.89063,3.667968 -0.89063,3.667968 0,0 -0.87538,-2.238833 -1.77148,-3.646484 -0.9262,-1.454932 -4.88867,-4.640624 -4.88867,-4.640625 0,0 0.61613,3.525352 0.60351,6.224609 -0.009,2.029067 -1.23828,3.269532 -1.23828,3.269532 0,0 -0.55093,-0.685389 -0.77148,-0.962891 0.0287,-0.08073 0.0566,-0.154628 0.0859,-0.240234 0.25095,-0.732103 0.52023,-1.601347 0.56446,-2.3125 0.11134,-1.790518 -0.35751,-3.535729 -0.83399,-5.16211 -0.41924,-1.431025 -2.11133,-3.626953 -2.11132,-3.626953 z"
       sodipodi:nodetypes="ccsscsscccccscssssssscccscssccsccscscsccscscsscscscsssccscsccssccsccsscscscscscscccscsccscsssscscscscsccscscsccsccscscscccccssscsscsccscscscccccsscss" /><path
       id="path60"
       style="fill:#000000;fill-opacity:0.2;stroke:none;stroke-width:1px;stroke-linecap:butt;stroke-linejoin:miter;stroke-opacity:1"
       d="m 219.03125,43.830078 c -0.95961,0.01443 -1.83813,0.06462 -2.47266,0.173828 -2.32129,0.39953 -4.60151,1.033628 -6.80664,1.828125 -0.30981,0.111625 -0.65318,0.245927 -1.01367,0.394531 l 0.54688,-1.277343 c -2.23177,2.188252 -4.091,4.261957 -5.07422,5.74414 -3.5696,5.381096 -6.27732,10.349607 -8.35156,16.128907 -2.10103,5.853919 -3.66477,11.960433 -4.36329,18.140625 -1.22632,10.849985 -0.31723,21.857649 0.35743,32.755859 0.44748,7.22832 1.04284,14.48244 2.44336,21.58789 0.33463,1.69776 1.41796,4.99414 1.41796,4.99414 l 2.73633,-3.45508 0.77149,-0.46289 0.30859,-0.83398 2.58008,-0.89844 2.82031,-1.69336 4.77539,-0.95508 2.42578,-0.8457 c 0,0 5.72873,-2.06864 7.56055,-4.32031 1.27418,-1.56622 1.87109,-5.75977 1.87109,-5.75977 0,0 -3.02433,3.74441 -3.8164,3.81641 -0.79208,0.072 -6.26368,4.10351 -6.26367,4.10351 l -6.40821,2.30469 c 0,0 -3.98441,1.0556 -6.2539,1.49414 1.455,-1.17912 3.4922,-2.76376 4.84179,-3.51953 2.30503,-1.29081 5.23109,-1.66219 7.84375,-3.09375 3.15743,-1.73003 8.04102,-6.61914 8.04102,-6.61914 0,0 -5.79399,3.90682 -8.66602,5.48047 -2.32027,1.27133 -5.25079,1.64015 -7.85351,3.09765 -1.75016,0.98009 -4.21495,2.95173 -5.64649,4.14063 0.56654,-1.00522 2.39846,-2.80608 3.37305,-3.86133 1.04946,-1.13632 3.45508,-3.0957 3.45508,-3.0957 l 8.78515,-4.0332 6.04883,-3.74414 c 0,0 -2.16771,1.02785 -3.3125,1.36914 -2.34134,0.69789 -4.84918,0.70596 -7.20117,1.36718 -3.40756,0.95798 -9.93555,3.74414 -9.93555,3.74414 l 4.9668,-2.95117 6.76953,-3.38476 7.05664,-1.65625 4.17578,-2.23243 c 0,0 -3.9004,0.39471 -5.83203,0.72071 -3.60677,0.60873 -7.21601,1.28416 -10.72851,2.30468 -2.26068,0.65687 -6.625,2.44727 -6.625,2.44727 l 3.67187,-2.66406 6.625,-2.95313 10.58399,-4.39062 -4.32032,-0.2168 -8.35156,1.51172 -2.58203,0.76562 c 1.54924,-0.59025 3.50957,-1.32813 4.92383,-1.80078 2.4063,-0.80418 5.05726,-0.99513 7.5664,-1.875 2.60613,-0.91386 7.22852,-3.71484 7.22852,-3.71484 0,0 -4.97951,2.18455 -7.46094,3.05469 -2.39098,0.83841 -5.03603,1.02936 -7.55469,1.87109 -1.83153,0.61212 -4.74583,2.16034 -6.00976,2.85156 l -3.88867,1.15235 6.12109,-3.81641 5.75977,-1.80078 5.97656,-2.44727 -3.24024,0.43165 c 0,0 -4.65215,0.67343 -6.91211,1.29687 -1.87392,0.51698 -3.67916,1.26553 -5.47265,2.01563 -2.0307,0.8492 -5.97656,2.80859 -5.97656,2.80859 l 4.82421,-3.45703 6.625,-4.53711 11.37696,-6.55274 -8.20899,3.3125 -9,4.03321 -6.19336,4.10351 c 0,0 0.90097,-1.27387 1.63477,-2.26367 1.51992,-1.35528 4.31879,-3.77589 6.11328,-4.86914 2.07446,-1.26382 4.50004,-1.99277 6.84961,-2.99023 2.83324,-1.20292 8.37305,-3.988286 8.37305,-3.988286 0,0 -5.91046,1.854966 -8.76367,3.066406 -2.28057,0.96827 -4.75722,1.70541 -6.97852,3.05859 -0.8221,0.50085 -1.79886,1.23175 -2.76953,2.00586 0.46925,-0.56294 0.95954,-1.1064 1.51758,-1.58007 3.32973,-2.82646 11.30468,-6.623051 11.30468,-6.623051 0,0 -4.12074,0.902588 -6.04882,1.726562 -2.40376,1.027209 -4.52143,2.623759 -6.76758,3.960939 -1.71193,1.01915 -5.11328,3.0957 -5.11328,3.0957 l 3.02539,-2.80664 c 0,0 3.8791,-3.31202 5.97656,-4.753905 3.07676,-2.115076 9.64844,-5.6875 9.64844,-5.6875 l -7.05664,2.736328 -7.41602,4.175777 -5.61719,3.96094 c 0,0 1.96668,-4.35759 3.52735,-6.121092 2.40832,-2.721285 5.70349,-4.515823 8.71289,-6.552734 2.83623,-1.919704 8.78515,-5.328125 8.78515,-5.328125 l -7.48828,3.599609 c 0,0 -4.43497,1.978399 -6.625,3.025391 -1.98518,0.949108 -5.90429,2.951172 -5.90429,2.951172 l 2.95312,-3.095703 c 0,0 3.91151,-4.019583 6.04688,-5.832032 2.32757,-1.975671 7.3457,-5.472656 7.3457,-5.472656 l -6.19336,3.095703 c 0,0 -3.86779,1.524618 -5.6875,2.519531 -1.3376,0.73133 -3.81641,2.521485 -3.81641,2.521485 l 4.67969,-4.96875 6.19336,-3.457031 7.99219,-3.023438 c 0,0 -6.09524,1.119695 -9,2.160156 -2.68821,0.962895 -5.14953,2.470251 -7.70508,3.744141 -1.0856,0.541143 -3.24023,1.65625 -3.24023,1.65625 l 4.75195,-4.896485 c 0,10e-7 2.97858,-4.104883 4.96875,-5.617187 3.23077,-2.455037 10.94531,-5.328125 10.94531,-5.328125 l -4.89648,1.007812 -3.88867,1.441407 c 0,0 -2.19103,0.391197 -3.26758,0.667969 -1.62202,0.416997 -4.79688,1.492187 -4.79688,1.492187 l 2.5918,-2.160156 c 0,0 2.99432,-2.757125 4.75195,-3.746094 2.38953,-1.34453 7.70508,-2.878906 7.70508,-2.878906 l -7.41602,0.71875 -6.76953,2.160156 c 0,0 0.53241,-1.348118 1.1836,-2.703125 1.07657,-0.550419 3.84841,-1.936857 5.44726,-2.435547 2.25375,-0.702946 4.63807,-1.041963 7.02735,-1.275391 1.51861,-0.148366 4.77734,-0.570312 4.77734,-0.570312 0,0 -3.19231,-0.590181 -4.875,-0.425781 -2.4182,0.236253 -4.87101,0.581098 -7.22852,1.316406 -1.2579,0.39238 -3.03149,1.218527 -4.35351,1.869141 0.13423,-0.221169 0.26792,-0.426371 0.39844,-0.59961 1.48242,-1.967865 3.49464,-3.499766 5.47265,-4.96875 1.91011,-1.418546 6.1211,-3.671875 6.1211,-3.671875 l -7.34571,1.728516 -2.80859,2.304687 0.57617,-1.945312 c 0,0 0.0996,-0.214849 0.11719,-0.25586 0.20671,-0.149354 0.42499,-0.307369 0.66211,-0.472656 1.05967,-0.738639 2.37299,-1.574989 3.24414,-1.929687 2.13932,-0.871065 4.5238,-1.218633 6.89258,-1.400391 1.85219,-0.142121 5.93359,-0.261719 5.93359,-0.261719 0,0 -3.89248,-0.998998 -6.01758,-0.835937 -2.41856,0.185578 -4.91514,0.538931 -7.22265,1.478516 -0.77084,0.313853 -1.67639,0.853751 -2.53125,1.416015 0.24155,-0.453073 0.48996,-0.884688 0.72265,-1.193359 0.77672,-1.030362 1.76122,-1.910453 2.8086,-2.664063 1.41184,-1.015923 4.60742,-2.449218 4.60742,-2.449219 l -4.32031,1.583985 1.04296,-2.433594 c 0.80842,-0.362186 1.58966,-0.693741 2.20118,-0.914062 2.14401,-0.772512 4.35333,-1.386895 6.58789,-1.771485 2.30218,-0.396233 8.74609,-1.216797 8.74609,-1.216797 0,0 -3.61531,-0.281582 -6.49414,-0.238281 z m 3.03906,35.449219 c 0,0 -2.7948,0.236824 -4.16211,0.701172 -3.03691,1.03136 -6.05617,2.200168 -8.91406,3.697265 -1.9093,1.000181 -5.07227,3.738282 -5.07226,3.738282 0,0 3.66074,-2.095466 5.44335,-3.029297 2.80425,-1.468995 5.78523,-2.624339 8.80079,-3.648438 1.26786,-0.430581 3.90429,-1.458984 3.90429,-1.458984 z m -7.20312,9.865234 c 0,0 -3.34227,0.844055 -4.92969,1.53125 -2.53178,1.096012 -5.14614,2.102213 -7.60156,3.476563 -1.60332,0.897408 -4.17383,3.345703 -4.17383,3.345703 0,0 3.13783,-1.734709 4.61328,-2.560547 2.38073,-1.332539 4.96525,-2.329793 7.51953,-3.435547 1.55401,-0.672731 4.57227,-2.357422 4.57227,-2.357422 z m 12.96289,1.798828 c 0,0 -4.41558,1.289124 -6.57617,1.896485 -2.10627,0.592066 -4.38002,0.746892 -6.56446,1.443359 -2.3465,0.748158 -6.51758,3.140625 -6.51757,3.140625 0,0 4.50691,-1.763697 6.73046,-2.472656 2.07688,-0.662174 4.34149,-0.81922 6.54102,-1.4375 2.23836,-0.629198 6.38672,-2.570313 6.38672,-2.570313 z m -2.01758,20.740231 c 0,0 -3.56582,1.92105 -5.25195,2.71485 -2.27745,1.07218 -4.86242,1.55252 -7.36914,2.42773 -1.39267,0.48624 -3.93946,1.98633 -3.93946,1.98633 0,0 2.90915,-0.56604 4.26953,-1.04102 2.40912,-0.84109 5.03136,-1.32311 7.46485,-2.46875 1.90484,-0.89673 4.82617,-3.61914 4.82617,-3.61914 z" /></g></svg>
