<?xml version="1.0" encoding="UTF-8" standalone="no"?>
<!-- Created with Inkscape (http://www.inkscape.org/) -->

<svg
   width="400"
   height="400"
   viewBox="0 0 400 400"
   version="1.1"
   id="svg1"
   xml:space="preserve"
   inkscape:version="1.3.2 (091e20e, 2023-11-25)"
   sodipodi:docname="upsweptWithProduct.svg"
   xmlns:inkscape="http://www.inkscape.org/namespaces/inkscape"
   xmlns:sodipodi="http://sodipodi.sourceforge.net/DTD/sodipodi-0.dtd"
   xmlns="http://www.w3.org/2000/svg"
   xmlns:svg="http://www.w3.org/2000/svg"><sodipodi:namedview
     id="namedview1"
     pagecolor="#ffffff"
     bordercolor="#666666"
     borderopacity="1.0"
     inkscape:showpageshadow="2"
     inkscape:pageopacity="0.0"
     inkscape:pagecheckerboard="0"
     inkscape:deskcolor="#d1d1d1"
     inkscape:document-units="px"
     inkscape:zoom="2.27"
     inkscape:cx="199.77974"
     inkscape:cy="200"
     inkscape:window-width="2224"
     inkscape:window-height="1121"
     inkscape:window-x="2132"
     inkscape:window-y="138"
     inkscape:window-maximized="0"
     inkscape:current-layer="layer2"
     showgrid="false" /><defs
     id="defs1" /><g
     inkscape:groupmode="layer"
     id="layer3"
     inkscape:label="Hair Back"><path
       style="fill:#383838;fill-opacity:1;stroke:none;stroke-width:1px;stroke-linecap:butt;stroke-linejoin:miter;stroke-opacity:1"
       d="m 194.37649,133.71171 -1.94688,7.2424 -3.27076,11.6034 0.3115,10.6689 1.94688,5.91852 0.3115,3.89376 -0.70087,4.04951 -4.43889,5.99639 -2.64776,1.79113 -1.40175,0.38937 2.18051,1.40176 3.97163,2.02475 2.02476,-0.0779 2.1805,-1.24601 1.71326,2.95926 2.71618,4.72367 12.06635,13.78122 6.10652,-13.38145 -1.57601,-32.69126 z"
       id="path165"
       sodipodi:nodetypes="cccccccccccccccccccc" /><path
       style="fill:#383838;fill-opacity:1;stroke:none;stroke-width:1px;stroke-linecap:butt;stroke-linejoin:miter;stroke-opacity:1"
       d="m 348.91399,66.724587 10.42571,1.042572 5.21286,2.432667 3.21023,4.682841 c -0.9197,-1.012759 -2.39231,-2.332688 -3.55775,-2.423935 l 1.56386,2.432667 0.4195,2.279986 c -0.88578,-1.193548 -1.64868,-1.895622 -3.02593,-2.106224 l 1.04257,2.953953 c 0,0 0.41044,2.196695 0.34752,3.301477 -0.0304,0.533137 -0.40895,2.05533 -0.40895,2.05533 l -0.7863,-2.536263 0.38787,3.712244 0.63362,2.676595 c 0,0 -1.97263,-2.489636 -3.12771,-3.271664 -0.75073,-0.508268 -2.3098,-1.523505 -2.3098,-1.523505 0,0 1.84667,2.020763 2.43267,3.78241 0.47563,1.429836 0.24573,4.468725 0.24573,4.468725 l -2.45375,-3.80349 c 0,0 0.31253,1.745357 0.52129,2.606429 0.3974,1.63919 1.39009,4.865335 1.39009,4.865335 0,0 -0.22888,3.375941 -0.52128,5.039096 -0.24811,1.411237 -0.55724,2.822107 -1.04257,4.170287 -0.50017,1.38941 -1.91138,3.99652 -1.91138,3.99652 l -1.0215,5.83593 c 0,0 -0.32235,2.21225 -0.54236,2.93469 -0.4458,1.46387 -2.25891,3.56648 -2.25891,3.56648 l -0.17376,3.30148 -0.52129,1.91138 1.04258,3.30148 1.73762,1.91138 2.2589,1.91138 c 0,0 -1.03476,0.28259 -1.55332,0.4195 -0.75185,0.19849 -2.2589,0.58272 -2.2589,0.58272 l -4.00707,-1.34974 -2.2589,-2.43267 0.88988,3.16988 -0.19483,2.21674 0.52128,3.82276 1.21634,2.78019 2.08514,1.3901 1.21633,0.34752 c 0,0 -1.78051,0.10199 -2.60643,-0.17376 -1.50859,-0.50367 -3.99652,-2.60643 -3.99652,-2.60643 l 1.21633,2.25891 1.73762,1.56386 1.21634,1.04257 -3.06629,1.24795 -3.36291,-0.72667 -2.77146,-1.3392 -3.13644,-4.39494 -1.04257,-31.79844 V 80.278019 Z"
       id="path151"
       sodipodi:nodetypes="cccccccccsccccscsccscssccsccccccscccccccccsccccccccccc" /><path
       id="path132"
       style="color:#000000;fill:#000000;-inkscape-stroke:none"
       d="m 356.04102,66.951172 c -2.7395,0.0168 -7.64063,1.109375 -7.64063,1.109375 l 0.33789,1.5625 c 0,0 5.01536,-1.058183 7.3125,-1.072266 1.55011,-0.0095 3.08677,0.05598 4.3711,0.566407 1.30539,0.518804 3.41671,1.385921 4.86132,2.74414 1.60635,1.510292 2.94727,4.101563 2.94727,4.101563 0,0 -0.4616,-3.19996 -2.00586,-4.96875 -1.34445,-1.53992 -3.54382,-2.700721 -5.21094,-3.363282 -1.63604,-0.650207 -3.38027,-0.689416 -4.97265,-0.679687 z m 3.98828,4.273437 c 0.005,0.0016 1.56004,0.453809 2.32226,0.822266 0.76355,0.369103 1.74831,1.160289 2.11719,1.576172 0.36165,0.407729 0.93033,1.158158 1.20117,1.947265 0.27083,0.78911 0.59961,2.462891 0.59961,2.462891 0,0 0.27384,-1.729208 -0.01,-2.556641 -0.28399,-0.82743 -0.65931,-1.780703 -1.19336,-2.382812 -0.54129,-0.610259 -1.45778,-1.10545 -2.25782,-1.492188 -0.80003,-0.386735 -2.77929,-0.376953 -2.77929,-0.376953 z m -1.29297,1.958985 c 0,0 1.46258,0.692049 2.15429,1.029297 0.69174,0.337246 1.48283,1.148758 1.78516,1.498047 0.49399,0.570712 1.18552,1.499645 1.5332,2.585937 0.34767,1.086292 0.86915,2.886719 0.86914,2.886719 0,0 0.27947,-1.725819 -0.084,-2.861328 -0.36343,-1.135512 -0.85138,-2.444056 -1.5625,-3.265625 -0.51947,-0.600145 -1.36337,-1.054168 -2.10156,-1.414063 -0.73819,-0.359895 -2.59375,-0.458984 -2.59375,-0.458984 z m -2.17774,2.171875 c -1.33034,-0.03556 -4.0332,1.146484 -4.0332,1.146484 0,0 2.68601,-0.256316 3.94531,-0.222656 1.2593,0.03366 2.80177,0.502082 3.49414,0.876953 1.01922,0.551833 1.73293,1.798484 2.40821,3.03125 0.26406,0.482061 0.66495,1.133406 1.02929,1.853516 0.50316,0.994469 0.74219,2.148437 0.74219,2.148437 0,0 0.42688,-1.351385 0.18945,-2.158203 -0.23742,-0.806818 -0.54323,-1.750082 -0.91015,-2.419922 -0.6725,-1.227691 -1.4389,-2.725871 -2.88672,-3.509766 -1.0975,-0.594218 -2.64815,-0.71053 -3.97852,-0.746093 z m -5.91601,3.207031 c -0.76551,0.0048 -1.68833,0.158411 -2.48242,0.314453 -0.90755,0.178334 -2.56641,1.023438 -2.56641,1.023438 0,0 1.75044,-0.296131 2.62891,-0.46875 0.87847,-0.172621 2.0578,0.0013 2.6875,0.03711 1.09687,0.06237 2.22318,0.769697 3.58984,0.986328 0.8354,0.132421 1.65609,0.03413 2.41797,-0.01172 0.76187,-0.04585 1.45358,-0.03939 2.05273,0.205079 1.3013,0.530951 2.38416,1.708495 3.27539,2.93164 0.49292,0.676483 1.11945,1.617617 1.54102,2.695313 0.42158,1.077696 0.86133,2.601562 0.86133,2.601562 0,0 0.3545,-1.493683 -0.0781,-2.599609 -0.43262,-1.105926 -0.98999,-2.395274 -1.5957,-3.226563 -0.93103,-1.27776 -2.10029,-2.598282 -3.66406,-3.236328 -0.81308,-0.33175 -1.65358,-0.317298 -2.44727,-0.269531 -0.79369,0.04777 -1.5516,0.127858 -2.22266,0.02148 -1.11375,-0.176546 -2.2692,-0.915887 -3.67968,-0.996094 -0.10207,-0.0058 -0.209,-0.0085 -0.31836,-0.0078 z m 1.58203,3.332031 c -1.22603,0.01236 -2.55469,0.263672 -2.55469,0.263672 0,0 2.24487,0.125019 3.53516,0.384766 1.29029,0.259745 2.80124,0.909715 3.5625,1.43164 0.8765,0.600941 1.94552,2.024038 2.74804,3.283203 0.80255,1.259168 2.10352,3.820313 2.10352,3.820313 0,0 -0.60499,-2.956076 -1.42969,-4.25 -0.82469,-1.293924 -1.876,-2.761181 -2.9707,-3.511719 -0.97945,-0.671524 -2.52477,-1.068059 -3.85547,-1.335937 -0.33267,-0.06697 -0.72999,-0.09006 -1.13867,-0.08594 z m -0.62695,1.751953 c 0,0 1.03535,0.826458 2.32031,1.875 1.41579,1.155298 2.76024,2.476477 3.58008,3.410157 1.12785,1.284462 2.11193,2.753156 2.5957,4.332031 0.46891,1.530393 0.51485,3.216975 0.38672,4.884766 -0.0875,-0.324145 -0.2206,-0.726212 -0.42578,-1.146485 -0.15321,-0.313814 -0.32221,-0.644302 -0.4961,-0.972656 -0.002,-0.182238 -0.016,-0.367373 -0.0547,-0.505859 -0.37533,-1.847417 -0.97247,-3.337615 -1.91211,-4.851563 -1.24402,-2.004348 -4.72852,-4.990234 -4.72852,-4.990234 0,0 3.14646,3.39092 4.30274,5.253906 0.81569,1.314283 1.43577,2.704898 1.89257,4.195312 -0.20133,-0.336694 -0.40488,-0.646328 -0.60156,-0.90039 -0.56679,-0.732171 -1.54718,-1.627 -2.39453,-2.351563 -0.84735,-0.72456 -2.15234,-1.40625 -2.15234,-1.40625 0,0 0.98907,1.071319 1.82617,1.78711 0.83709,0.715787 1.81138,1.612349 2.32617,2.277343 0.4892,0.631948 1.08277,1.742912 1.54297,2.685547 0.2953,0.604876 0.63016,1.099097 0.83398,1.376953 -0.0112,0.118439 -0.0205,0.237449 -0.0332,0.355469 -0.11495,1.069472 -0.65039,4.041012 -0.65039,4.041012 0,0 1.49488,-2.54125 1.64453,-3.93359 0.21355,-1.986866 0.25826,-4.107916 -0.34961,-6.091797 -0.54357,-1.774041 -1.61482,-3.348579 -2.80078,-4.699219 -0.93922,-1.069644 -2.51782,-2.305681 -3.87891,-3.302734 -1.36105,-0.997053 -2.77343,-1.322266 -2.77343,-1.322266 z m -4.79102,4.458985 c 0,0 1.84527,1.056606 2.99609,1.679687 1.15085,0.623082 2.28838,1.732748 2.91602,2.40625 1.38067,1.481556 2.21405,3.513536 2.86133,5.53711 0.93962,2.937554 1.2967,6.097384 1.29883,9.210934 0.002,3.30828 -0.93164,10.24024 -0.93164,10.24024 0,0 1.57141,-5.4158 1.87695,-9.10938 0.37628,-0.96399 1.18714,-3.14422 1.33398,-4.39453 0.18749,-1.59658 0.45259,-3.29461 0.10547,-4.958983 -0.18552,-0.889534 -0.71851,-2.020063 -1.20508,-2.957031 -0.48656,-0.936968 -1.73632,-2.03125 -1.73632,-2.03125 0,0 0.83552,1.245411 1.31054,2.160156 0.47502,0.914746 0.79216,2.236283 0.94531,2.970703 0.31262,1.498935 0.0742,3.121645 -0.11523,4.734375 -0.10744,0.9148 -0.3853,2.49826 -0.59375,3.64648 0.003,-0.10047 0.01,-0.20649 0.01,-0.30273 -0.002,-3.18913 -0.36515,-6.44814 -1.34571,-9.513672 -0.66334,-2.073802 -1.5318,-4.24847 -3.08398,-5.914062 -0.81032,-0.869523 -2.17734,-1.686938 -3.36524,-2.330078 -1.18787,-0.643141 -3.27734,-1.074219 -3.27734,-1.074219 z m -3.02734,2.658203 c 0,0 2.08503,2.755074 3.05664,4.140625 0.84743,1.208448 1.60809,2.482653 2.21289,3.814453 0.61069,1.34478 2.08984,5.40039 2.08984,5.40039 0,0 -0.52606,-4.05474 -1.21875,-5.580078 -0.636,-1.400517 -1.42917,-2.726102 -2.30469,-3.974609 -1.0702,-1.526168 -3.83593,-3.800781 -3.83593,-3.800781 z m 9.8125,7.242187 c 0,0 0.91181,2.564411 1.23828,3.802731 0.41582,1.57722 0.9414,4.95899 0.9414,4.95899 0,0 -0.0109,-3.39575 -0.45703,-5.08789 -0.35677,-1.35326 -1.72265,-3.673831 -1.72265,-3.673831 z m -2.72461,8.333981 c 0,0 -0.27045,3.05212 0.006,4.42774 0.3276,1.63171 1.32811,2.95959 1.67773,4.37695 0.47104,1.90959 0.67843,3.89836 0.69141,5.875 0.009,1.38753 -0.72706,2.90638 -0.46289,4.5332 0.25802,1.58901 0.99536,3.11242 1.97851,4.36524 0.40791,0.51978 1.10021,1.0511 1.70313,1.48047 0.60291,0.42937 1.60937,0.87304 1.60937,0.87304 0,0 -0.62155,-1.02918 -1.20312,-1.44336 -0.58157,-0.41415 -1.25318,-0.95457 -1.5586,-1.34374 -0.9174,-1.16903 -1.60247,-2.59518 -1.83789,-4.04493 -0.2169,-1.33577 0.48146,-2.81001 0.47071,-4.42383 -0.0133,-2.02228 -0.22424,-4.06599 -0.71094,-6.03906 -0.39622,-1.60625 -1.38451,-2.9241 -1.66992,-4.3457 -0.24012,-1.19602 -0.69336,-4.29102 -0.69336,-4.29102 z m 0.89453,16.08008 c 0,0 -0.31625,1.47577 -0.34375,2.25391 -0.0275,0.77813 -0.04,1.67964 0.0371,2.26953 0.15904,1.21697 0.4948,2.49464 1.22656,3.54297 0.66555,0.95346 1.63363,1.69849 2.67188,2.17969 0.3361,0.15577 0.76314,0.22552 1.13086,0.27539 0.36771,0.0499 1.70312,-0.32032 1.70312,-0.32032 0,0 -1.22964,-0.13153 -1.57031,-0.17773 -0.34066,-0.0462 -0.907,-0.17293 -1.08594,-0.25586 -0.93702,-0.43428 -1.69482,-1.27178 -2.27539,-2.10352 -0.63558,-0.91051 -0.9569,-2.08065 -1.10742,-3.23242 -0.0629,-0.48109 -0.0582,-1.3896 -0.0312,-2.15429 0.027,-0.76472 -0.35547,-2.27735 -0.35547,-2.27735 z m -6.07422,0.97461 c 0,0 0.42336,3.46674 1.39648,5.10742 0.10371,0.17485 0.21013,0.35197 0.31836,0.5293 -0.13317,-0.10786 -0.23437,-0.1875 -0.23437,-0.1875 0,0 0.54716,0.89218 0.82226,1.32617 0.2751,0.43399 0.45918,1.25206 0.55469,1.57617 0.50419,1.71095 -0.0915,3.72771 0.30469,5.73243 0.27358,1.38427 0.53369,2.94128 1.4668,4.15625 0.3058,0.39817 0.81025,0.72051 1.25195,0.98242 0.4417,0.2619 1.71289,0.36133 1.71289,0.36133 0,0 -0.9823,-0.48409 -1.39453,-0.72852 -0.41223,-0.24442 -0.84341,-0.81679 -1.01563,-1.04102 -0.79206,-1.03129 -1.06038,-2.47095 -1.33593,-3.86523 -0.34978,-1.76972 0.26499,-3.81534 -0.31836,-5.79492 -0.007,-0.0238 -0.0156,-0.0482 -0.0234,-0.0723 0.43198,0.45881 0.91112,0.87641 1.45703,1.22071 0.74758,0.47148 1.80932,0.72434 2.72461,0.90625 0.91529,0.1819 2.16406,-0.35938 2.16406,-0.35938 0,0 -1.12396,-0.27351 -1.98828,-0.44531 -0.86431,-0.17177 -1.84586,-0.73695 -2.3125,-1.03125 -1.34042,-0.84538 -2.32382,-2.33386 -3.20898,-3.82617 -0.78767,-1.32798 -2.3418,-4.54688 -2.3418,-4.54688 z m -151.51758,10.7793 c 0,0 -3.69138,9.03582 -4.30664,12.35742 -0.91461,4.9377 -1.79199,10.07531 -1.33203,15.22266 0.16522,1.84898 0.86342,3.51065 1.47852,5.08789 0.6151,1.57723 1.14451,3.06305 1.16015,4.5332 0.0171,1.60596 -0.5427,3.29799 -1.24609,4.91797 -1.16656,2.68666 -2.57188,5.3436 -4.6211,7.17773 -0.14406,0.12896 -0.54712,0.35092 -0.96289,0.55664 -0.40421,-0.16803 -0.92187,-0.38867 -0.92187,-0.38867 0,0 0.18563,0.35629 0.4707,0.60742 -0.50461,0.21722 -0.92383,0.36719 -0.92383,0.36719 l -1.63867,0.57031 1.40821,1.00977 c 0,0 1.1622,0.83481 2.6582,1.65234 1.496,0.81753 3.27883,1.68957 4.96289,1.59961 0.99477,-0.0531 1.77748,-0.59672 2.45117,-1.06445 0.0429,-0.0298 0.091,-0.0774 0.13672,-0.11719 0.12724,0.26436 0.25643,0.52679 0.38867,0.78516 0.58725,1.14739 1.62256,3.51605 3.21077,5.45467 2.88402,3.52035 6.70566,6.76129 6.70566,6.76129 0,0 -3.40392,-3.40325 -6.00087,-7.01639 -1.49565,-2.0809 -2.46603,-4.56263 -3.02493,-5.65465 -0.19526,-0.38151 -0.38275,-0.76846 -0.5625,-1.1582 0.47188,-0.63357 0.88867,-1.3125 0.88867,-1.3125 0,0 -0.55393,0.31012 -1.17969,0.65429 -0.51163,-1.20358 -0.91269,-2.43915 -1.07812,-3.69336 -0.11667,-0.88439 -0.34778,-2.36542 -0.20704,-3.58984 0.14079,-1.22442 0.15235,-2.29297 0.15235,-2.29297 0,0 -0.67,0.92322 -0.81445,2.17969 -0.1308,1.13759 -0.24058,2.464 -0.1543,3.51172 -0.32261,0.28947 -0.79417,0.69177 -1.08594,0.84961 -0.47668,0.25787 -1.0858,0.51849 -1.45117,0.60937 -0.81316,0.20228 -1.53507,0.21589 -2.40625,0.15235 2.30638,-2.11111 4.07411,-4.78601 5.25,-7.49414 0.15396,-0.3546 0.30087,-0.72253 0.44336,-1.09375 0.044,0.30998 0.0929,0.60238 0.14844,0.85742 0.25112,1.1535 0.85251,2.12683 1.09179,3.12304 0.34449,1.43423 0.96289,4.51172 0.96289,4.51172 0,0 0.0942,-3.10436 -0.2832,-4.67578 -0.27456,-1.14312 -0.87098,-2.11108 -1.08789,-3.10742 -0.12989,-0.59664 -0.226,-1.46041 -0.29688,-2.30273 0.26232,-0.95283 0.42882,-1.94584 0.41797,-2.9668 -0.008,-0.73814 -0.11428,-1.44659 -0.27539,-2.13281 0.0368,-0.20278 0.072,-0.40348 0.11524,-0.625 0.24819,-1.27116 0.60341,-2.78665 0.98633,-3.69727 0.27883,-0.66312 0.89572,-1.63659 1.43945,-2.42578 0.54373,-0.78919 1.16406,-2.51953 1.16406,-2.51953 0,0 -1.10526,1.37712 -1.6582,2.17969 -0.55295,0.80254 -1.17957,1.77582 -1.49805,2.5332 -0.13425,0.31926 -0.26047,0.69415 -0.37891,1.09375 0.0956,-1.20833 0.2179,-2.35914 0.37696,-3.25195 0.5305,-2.97774 1.15535,-5.99768 2.53515,-8.6211 0.62948,-1.19679 1.96398,-2.85329 3.13477,-4.18555 1.17079,-1.33223 1.92773,-2.5957 1.92773,-2.5957 0,0 -1.26795,0.78614 -2.45312,2.13477 -1.18517,1.34862 -2.537,3.00185 -3.23047,4.32031 -1.44197,2.74158 -2.0708,5.8341 -2.60352,8.82422 -0.12562,0.70515 -0.22908,1.55144 -0.31445,2.45117 -0.0501,-1.64273 -0.10494,-3.52417 -0.13086,-4.57812 -0.062,-2.52437 -0.21234,-5.04539 0.0742,-7.51172 0.26603,-2.28941 1.25977,-6.9668 1.25977,-6.9668 0,0 -1.57488,4.48173 -1.85547,6.89648 -0.2947,2.53618 -0.14175,5.08735 -0.0801,7.59766 0.0374,1.52251 0.11888,4.10254 0.17578,5.90039 -0.62147,-1.59337 -1.22493,-3.09941 -1.35742,-4.58203 -0.26946,-3.01547 -0.0471,-6.08534 0.3789,-9.16211 0.65425,-2.3154 1.60282,-5.52667 2.36329,-7.45508 0.70418,-1.78571 2.47656,-5.42383 2.47656,-5.42383 0,0 -2.36576,3.23568 -3.12695,5.16602 -0.3266,0.8282 -0.64068,1.87626 -0.92969,2.98633 0.0513,-0.28161 0.0963,-0.56446 0.14844,-0.8457 0.55296,-2.98531 2.53515,-12.68555 2.53515,-12.68555 z m 151.67383,2.92578 c 0,0 -0.007,1.1768 0.20898,1.81641 0.21619,0.63958 0.49313,1.3873 0.81446,1.90039 0.48864,0.78026 1.10548,1.58195 1.96875,2.08007 0.5677,0.32759 1.36918,0.50049 2.05859,0.6211 0.68942,0.12061 1.88086,-0.34375 1.88086,-0.34375 0,0 -1.08845,-0.0576 -1.74219,-0.17188 -0.65373,-0.11437 -1.42927,-0.58671 -1.79687,-0.79883 -0.67962,-0.39213 -1.23459,-1.08306 -1.69141,-1.8125 -0.23905,-0.38169 -0.76044,-0.95789 -0.96875,-1.57421 -0.20832,-0.61633 -0.73242,-1.7168 -0.73242,-1.7168 z m -4.98437,5.25586 c 0,0 0.4769,1.58182 0.9375,2.125 0.46059,0.54318 1.02034,1.15955 1.61914,1.50195 1.24064,0.70943 2.71651,1.01798 4.12304,0.96094 0.79298,-0.0322 1.7404,-0.35183 2.53906,-0.6543 0.79869,-0.30246 1.49024,-1.55859 1.49024,-1.55859 0,0 -1.04506,0.64591 -1.80469,0.93359 -0.75963,0.28767 -1.73797,0.25984 -2.26562,0.28125 -1.22963,0.0499 -2.53628,-0.22987 -3.58594,-0.83008 -0.34959,-0.1999 -1.23063,-0.69428 -1.66211,-1.20312 -0.43149,-0.50884 -1.39062,-1.55664 -1.39062,-1.55664 z m -142.1211,22.50586 c 0,0 -1.65784,4.29664 -1.90625,6.66211 -0.28753,2.73796 0.0474,5.46955 0.1543,8.14844 0.069,1.72947 0.66015,5.12695 0.66015,5.12695 0,0 0.0269,-0.89528 0.0449,-1.9961 0.18354,-1.57541 0.54305,-4.56507 0.82617,-6.29687 0.32573,-1.99246 1.1543,-6.03711 1.1543,-6.03711 0,0 -1.31181,3.89791 -1.64844,5.95703 -0.15781,0.96532 -0.26024,2.30344 -0.32813,3.58203 -0.003,-0.12193 -0.005,-0.25435 -0.01,-0.36328 -0.10842,-2.71716 -0.43469,-5.41602 -0.15821,-8.04883 0.23035,-2.19342 1.21094,-6.73437 1.21094,-6.73437 z m 7.16406,3.03711 c 0,0 -1.12126,1.01808 -2.01172,2.59375 -0.89043,1.57567 -1.88945,3.48442 -2.34179,4.91797 -0.96361,3.05377 -1.57916,6.35207 -1.26172,9.58203 0.15101,1.53654 0.86262,3.60278 1.5332,5.31836 0.67058,1.71557 1.66602,2.89843 1.66602,2.89843 0,0 -0.26176,-1.50065 -0.92188,-3.18945 -0.66011,-1.6888 -1.3492,-3.74999 -1.48242,-5.10547 -0.30234,-3.07626 0.28728,-6.27455 1.23047,-9.26367 0.41062,-1.30132 1.39577,-3.20718 2.27539,-4.76367 0.87962,-1.5565 1.31445,-2.98828 1.31445,-2.98828 z m -9.8125,3.66015 c 0,0 -0.82099,3.31326 -0.95117,5.04297 -0.15355,2.04026 -0.37225,4.13608 -0.0742,6.20703 0.36306,2.523 2.42774,7.05079 2.42774,7.05079 0,0 -1.59261,-4.75148 -1.9336,-7.1211 -0.28621,-1.98897 -0.0742,-4.04774 0.0801,-6.09766 0.1255,-1.66744 0.45117,-5.08203 0.45117,-5.08203 z m -4.79882,11.57032 c 0.003,0.0279 0.004,0.0585 0.008,0.0859 0.18523,1.40426 0.63114,2.74977 1.18359,4.03321 -0.19666,0.10337 -0.47409,0.2585 -0.59375,0.31445 -1.61827,0.75664 -3.55295,0.62127 -5.79883,-0.52539 -0.62366,-0.31842 -1.71131,-1.06798 -2.13867,-1.3418 0.33284,-0.15697 1.12712,-0.44747 1.69727,-0.73047 1.06266,0.17718 2.08841,0.0957 3.24609,-0.14648 0.49124,-0.10275 1.11841,-0.35711 1.57422,-0.68555 0.28787,-0.20743 0.59627,-0.64372 0.82227,-1.0039 z"
       sodipodi:nodetypes="sccssscssscsssccssccssscssscscsssscsssssscssssssscsssssssscssscsssscssscsccscscsscssscscssssccssscccssscsssccsssccsscssccscscccscssscssscssccssssscsssssccsccssssscsssscsscsssccssssssccccccssscsscsscccsscscsscscsscsscscssscsscssscsssccscsscscscsccccsssscssssccsssscssssccssccscsccsccsssscssssccsscssccccssccssc" /><path
       id="path152"
       style="fill:#000000;fill-opacity:0.3;stroke:none;stroke-width:1px;stroke-linecap:butt;stroke-linejoin:miter;stroke-opacity:1"
       d="m 346.69531,71.365234 -8.72851,9.892578 v 26.996098 l 1.04297,31.79882 3.13671,4.39454 1.15821,0.56054 c 1.77297,-4.38484 4.0263,-10.23483 5.08203,-14.33984 l -0.3418,-1.21485 0.50586,0.54493 c 1.79102,-7.35333 2.57416,-14.95287 2.99024,-22.50977 0.33915,-6.1598 0.38713,-12.388441 -0.43946,-18.501952 -0.81123,-5.999881 -4.40625,-17.621094 -4.40625,-17.621094 z m -152.31836,62.345706 -1.94726,7.24414 -3.27149,11.60156 0.3125,10.66992 1.94727,5.91797 0.31055,3.89453 -0.70118,4.04883 -4.4375,5.99609 -2.64843,1.79102 -1.40235,0.39062 2.18164,1.4004 3.97071,2.02539 2.02539,-0.0781 2.17968,-1.24609 1.7129,2.95898 2.88281,4.28321 11.90022,14.05812 6.10622,-13.21755 -1.5748,-32.69018 z"
       sodipodi:nodetypes="cccccccccssccccccccccccccccccccc" /><path
       style="fill:#000000;fill-opacity:0.2;stroke:none;stroke-width:1px;stroke-linecap:butt;stroke-linejoin:miter;stroke-opacity:1"
       d="m 194.37649,133.71171 -1.94688,7.2424 -3.27076,11.6034 0.3115,10.6689 1.94688,5.91852 0.3115,3.89376 -0.70087,4.04951 -4.43889,5.99639 -2.64776,1.79113 -1.40175,0.38937 2.18051,1.40176 3.97163,2.02475 2.02476,-0.0779 2.1805,-1.24601 1.71326,2.95926 2.88138,4.28314 12.01128,14.16668 5.88626,-13.38145 -1.46588,-32.63619 z"
       id="path167"
       sodipodi:nodetypes="cccccccccccccccccccc" /></g><g
     inkscape:groupmode="layer"
     id="layer2"
     inkscape:label="Hair Front"
     sodipodi:insensitive="true"><path
       style="fill:#383838;fill-opacity:1;stroke:none;stroke-width:1px;stroke-linecap:butt;stroke-linejoin:miter;stroke-opacity:1"
       d="m 334.25924,83.968357 5.43237,-2.510902 9.96802,-6.385766 7.94327,-7.94327 3.42651,-6.230016 0.56793,-2.262293 c -0.84533,-1.503519 -1.85586,-2.291178 -3.52719,-3.18897 l -4.98401,-1.713255 -7.16452,-0.15575 -3.42651,0.467251 2.49201,-3.738009 c 1.82024,-1.62049 3.42042,-1.845878 5.24044,-1.8879 1.06776,-0.02465 1.57641,0.62984 1.92408,1.357756 l 0.68751,-2.153784 -1.93352,-5.570843 -6.38576,-2.180506 -5.91852,0.467252 -0.623,-6.697267 -5.29551,-8.099021 -8.09902,-4.672511 -5.13977,-3.115008 -9.34502,-3.270759 -9.81227,0.311501 -4.04951,1.713255 -6.38577,-1.869005 -7.63177,-0.934502 -3.58226,0.15575 -5.76276,-1.869005 -9.18928,-0.934502 -9.65652,1.869005 -5.60701,4.04951 -6.69727,6.697267 -8.72202,3.270758 -7.63177,4.516761 -3.11501,2.647757 -9.81227,7.631769 -9.18928,8.566272 -5.45126,7.008767 -4.36101,8.877773 -3.73801,11.83703 -1.86901,10.279526 3.11501,-5.607015 3.42651,-4.828262 -3.27076,7.476019 -2.33625,8.566272 0.15575,2.959257 -1.40176,6.074266 -0.77875,8.09902 0.3115,8.25477 0.15575,8.56627 0.623,4.36101 3.11501,5.13977 2.18051,1.869 c 0,0 -1.0223,-3.41252 -1.36397,-5.56922 -0.12185,-0.76916 0.20588,-2.20192 0.77093,-3.10718 0.78248,-1.2536 1.91417,-1.68044 3.39654,-2.84913 1.09549,-0.86368 2.95926,-2.95926 2.95926,-2.95926 l 2.95926,-0.3115 2.64776,1.09026 3.27075,-0.77876 c 0,0 3.33983,1.63619 5.13977,2.02476 1.01622,0.21938 3.115,0.15575 3.115,0.15575 l -3.115,3.58226 -4.04951,2.49201 6.23001,-1.40176 -3.11501,1.71326 8.41053,-2.02476 -4.36102,2.95926 -2.33625,3.58226 -0.623,2.1805 2.64775,1.86901 h 2.95926 l -1.5575,1.71325 -3.73801,5.29552 2.33625,-1.09026 2.80351,-1.5575 2.95926,-1.40176 2.95926,-0.15575 c 0,0 -0.17651,1.29642 -0.46726,1.86901 -0.55076,1.08462 -1.68641,1.77518 -2.33625,2.80351 -0.3971,0.62838 -0.9345,2.02475 -0.9345,2.02475 l 4.20526,-1.246 c 0,0 0.0148,3.53616 -0.623,5.13976 -0.54879,1.37972 -2.64776,3.58226 -2.64776,3.58226 l 3.89376,-2.49201 -0.77875,2.80351 4.04951,-2.02475 c 0,0 -0.55907,1.66071 -1.09026,2.33625 -1.23288,1.56791 -4.67251,3.73801 -4.67251,3.73801 l 3.89376,-0.3115 2.02476,-1.246 -2.49201,2.95925 4.36101,-2.33625 2.95926,-3.11501 1.09025,-4.98401 -0.3115,-11.99278 2.18051,-10.74678 3.89376,-10.59103 5.91851,-8.56627 1.246,-4.67251 c 0,0 -1.38751,-0.49687 -1.71325,-1.09025 -0.44969,-0.81919 0,-2.80351 0,-2.80351 0,0 -1.77378,-0.38674 -2.18051,-1.09025 -0.88503,-1.5308 0.58684,-4.744854 0.58684,-4.744854 0,0 -1.61281,-0.626173 -1.98859,-1.329413 -0.31808,-0.595262 0,-2.024755 0,-2.024755 0,0 -1.70185,-1.818837 -2.04365,-2.812954 -0.57615,-1.67575 -0.78076,-3.364962 -0.74258,-5.07525 0.0163,-0.728505 0.47211,-1.566803 0.76148,-2.235571 0.36474,-0.842975 1.869,-2.024755 1.869,-2.024755 l 3.58226,-3.270759 4.04951,-4.20526 c 0,0 0.65064,1.425091 0.623,2.180505 -0.0607,1.657792 -0.83585,3.264635 -1.71325,4.672512 -0.87396,1.402351 -3.42651,3.582259 -3.42651,3.582259 l 5.91851,-4.984012 2.33626,-2.959258 c 0,0 0.39063,1.762615 0.3115,2.647757 -0.11115,1.243206 -0.39301,3.007561 -1.03518,4.077854 -1.17103,1.951709 -4.33267,4.222535 -4.33267,4.222535 l 3.49885,-2.381874 c 0,0 0.82764,0.387604 0.9345,0.778752 0.16493,0.6037 -0.24611,1.274719 -0.63083,1.76832 -0.26682,0.342321 -1.08243,0.723686 -1.08243,0.723686 l 3.89376,-0.467251 5.13977,-2.803507 5.29551,-5.139763 3.73801,-7.476019 c 0,0 1.03733,-1.712604 1.81171,-1.541812 0.49391,0.108934 0.63467,1.378234 0.63467,1.378234 0,0 1.68293,-3.158853 2.22613,-2.95143 0.51774,0.197702 0.15575,3.426509 0.15575,3.426509 0,0 2.85516,-5.537444 3.42651,-4.984013 0.76877,0.744662 -0.0629,2.839678 -0.0629,2.839678 0,0 2.27271,-4.293519 2.8664,-3.929931 1.02214,0.625977 1.25545,3.756905 1.25545,3.756905 0,0 3.61994,-4.201521 4.16909,-3.26131 0.53094,0.909033 -1.04463,5.185382 -1.04463,5.185382 0,0 4.28717,-4.217521 6.9348,-5.536296 0.73649,-0.36684 1.76507,-1.145599 2.39132,-0.611932 0.81485,0.694393 -0.2926,3.198418 -0.2926,3.198418 0,0 3.41629,-1.662859 3.71911,-1.017912 0.33973,0.723541 -3.58226,2.647756 -3.58226,2.647756 h 6.54152 l -6.38577,2.024755 c 0,0 12.05547,-1.394772 12.32318,-0.493973 0.359,1.208007 -6.56041,2.674479 -6.56041,2.674479 l 5.91851,-0.934502 c 0,0 -2.12771,2.048448 -3.37765,2.812954 -1.45976,0.892849 -4.72137,2.015308 -4.72137,2.015308 l 8.87777,-0.934503 9.96803,-3.270758 6.69726,-5.139763 c 0,0 1.71865,-0.466144 2.59929,-0.473194 0.64784,-0.0052 1.91748,0.317444 1.91748,0.317444 l -3.11501,1.090253 c 0,0 4.73977,0.04297 4.67251,0.623001 -0.0863,0.744026 -3.27076,1.869005 -3.27076,1.869005 l 3.73801,-0.778752 c 0,0 0.0119,1.038698 -0.24046,1.464039 -0.28414,0.47897 -1.31704,1.027967 -1.31704,1.027967 0,0 1.12538,-0.216647 1.67993,-0.127966 0.51138,0.08177 1.43508,0.595217 1.43508,0.595217 l 0.0378,2.786233 1.20822,-0.294226 c 0,0 1.82501,-0.19598 2.02475,0.467251 0.13105,0.435158 -1.40175,2.024755 -1.40175,2.024755 0,0 3.11864,-0.580117 3.11501,0 -0.007,1.138603 -2.16161,2.666652 -2.16161,2.666652 z"
       id="path115"
       sodipodi:nodetypes="cccccccccccscccccccccccccccccccccccccccccccccccccccccsssccccscccccccccccccccccssccsccccsccccccccccccscscscssscccsscccssccsscccccscscscscscsscscccsccsccccsccsccscscccscscc" /><path
       id="path116"
       style="fill:#000000;fill-opacity:0.2;stroke:none;stroke-width:1px;stroke-linecap:butt;stroke-linejoin:miter;stroke-opacity:1"
       d="m 268.35742,15.730469 -10.12304,0.935547 -3.89454,1.55664 12.92774,0.3125 7.00976,2.802735 4.98243,4.361328 8.09961,-0.15625 11.99218,1.71289 7.47656,4.050782 5.60743,5.294921 2.02539,7.007813 -1.2461,9.189453 4.20508,-7.164062 2.17969,-6.230469 -1.24609,-7.007813 -2.95899,-5.140625 -7.78711,-4.671875 -4.82812,-1.86914 3.89258,5.451172 0.3125,2.179687 -2.95899,-0.154297 -3.11523,-3.738281 -5.60743,-4.984375 -8.87695,-3.115234 7.00781,4.671875 3.89453,5.453125 -7.32031,-1.246094 h -2.33593 l -3.73829,-4.830078 -8.09961,-3.269532 z m -13.07031,6.957031 -11.01367,0.220703 -2.41602,0.632813 -0.13281,0.132812 -8.72266,3.271484 -7.63086,4.515626 -3.11523,2.648437 -9.8125,7.630859 -9.18945,8.566407 -5.45118,7.009765 -4.36132,8.876953 -3.73829,11.837891 -1.86718,10.279297 3.11328,-5.607422 3.42773,-4.828125 -3.27148,7.476562 -2.33594,8.566407 0.15625,2.958984 -1.40234,6.074217 -0.7793,8.09961 0.3125,8.25391 0.15625,8.5664 0.62305,4.36133 3.11328,5.13867 2.18164,1.86914 c 0,0 -1.68372,-4.07181 -2.02539,-6.22851 -0.12185,-0.76916 0,-2.33789 0,-2.33789 0,0 3.34577,-1.7903 4.82812,-2.95899 1.09549,-0.86368 2.95899,-2.95898 2.95899,-2.95898 l 2.95898,-0.31055 2.64844,1.08985 3.27148,-0.7793 c 0,0 3.33874,1.63682 5.13868,2.02539 1.01622,0.21938 3.11523,0.15625 3.11523,0.15625 l -3.11523,3.58203 -4.04883,2.49219 6.23047,-1.40234 -3.11524,1.71289 8.41016,-2.02539 -4.36133,2.96093 -2.33594,3.58203 -0.62304,2.17969 2.64843,1.86914 h 2.95899 l -1.5586,1.71289 -3.73632,5.29492 2.33593,-1.08984 2.80274,-1.55664 2.95898,-1.40234 2.95899,-0.15625 c 0,0 -0.17605,1.29655 -0.4668,1.86914 -0.55076,1.08462 -1.6861,1.77637 -2.33594,2.80468 -0.3971,0.62838 -0.93359,2.02344 -0.93359,2.02344 l 4.20508,-1.24609 c 0,0 0.0147,3.53702 -0.62305,5.14062 -0.54879,1.37972 -2.64844,3.58203 -2.64844,3.58203 l 3.89453,-2.49218 -0.77929,2.80468 4.04883,-2.02539 c 0,0 -0.55866,1.6604 -1.08985,2.33594 -1.23288,1.56791 -4.67187,3.73828 -4.67187,3.73828 l 3.89257,-0.3125 2.02539,-1.24609 -2.49218,2.96094 4.36133,-2.33789 2.95898,-3.11329 1.08984,-4.98437 -0.31054,-11.99414 2.17968,-10.7461 3.89454,-10.59179 3.64843,-5.2793 0.21094,-1.04492 c 0,0 0.0937,-3.11374 -0.2207,-4.625 -0.46371,-2.22953 -1.80461,-4.19723 -2.42383,-6.38867 -0.42679,-1.51043 -0.23805,-3.1931 -0.88086,-4.625002 -0.98636,-2.197153 -3.62878,-3.446443 -4.4043,-5.726563 -0.6147,-1.807278 -0.68391,-3.944323 0,-5.726563 0.70777,-1.844426 2.86353,-3.965722 3.96485,-4.40625 1.03645,-0.414575 4.95123,-3.564862 5.4375,-3.957031 l 1.08398,-1.125 4.27149,-4.830078 5.06445,-7.708984 L 250,72.6875 l -9.69141,5.066406 -4.40625,1.320313 8.15039,-4.404297 c 0,0 2.49385,-4.405993 3.74415,-6.607422 2.71195,-4.775014 8.15039,-14.318359 8.15039,-14.318359 l -9.69141,10.353515 -9.91211,7.488282 -8.37109,3.74414 c 0,0 5.37164,-4.773195 8.15039,-7.048828 2.87461,-2.354158 6.34397,-4.049364 8.81054,-6.828125 2.84205,-3.20174 6.60743,-11.011719 6.60743,-11.011719 l -6.60743,5.064453 -7.48828,7.710938 c 0,0 1.33821,-6.125362 2.86328,-8.810547 1.54181,-2.714623 3.74198,-5.083898 6.16797,-7.048828 2.2222,-1.799868 7.48828,-4.185547 7.48828,-4.185547 l -10.57226,1.322266 -19.38281,8.810547 -7.92969,4.625 c 0,0 10.13868,-9.371834 16.07812,-12.775391 4.23519,-2.426944 9.0412,-3.69713 13.65625,-5.287109 2.39364,-0.824654 7.26953,-2.201172 7.26953,-2.201172 0,0 -9.53505,-1.621768 -14.31836,-1.322266 -5.10267,0.319499 -14.97656,3.304687 -14.97656,3.304688 l 18.94141,-7.490235 15.85937,-1.982422 c 0,0 -10.84169,-1.597124 -16.29882,-1.541015 -1.92152,0.01976 -5.72657,0.660156 -5.72657,0.660156 z m 33.47656,13.580078 c -1.96705,0.0015 -4.83008,0.333984 -4.83008,0.333984 l -7.16601,3.271485 c 0,0 4.47496,-1.883609 6.85351,-2.181641 1.75451,-0.21984 3.60866,-0.272689 5.37305,-0.15625 2.12964,0.140543 3.64762,0.45776 5.68555,1.091797 1.66642,0.518459 3.4644,1.700621 4.75,2.880859 1.92062,1.763209 3.66071,3.705621 4.90625,5.996094 0.93494,1.719296 1.86914,7.63086 1.86914,7.63086 l -0.7793,-9.34375 -3.26953,-4.828125 -5.14063,-3.271485 c 0,0 -4.94647,-1.237847 -7.47656,-1.402344 -0.23349,-0.01518 -0.49438,-0.0217 -0.77539,-0.02148 z m 53.26367,6.796875 -3.9707,1.402344 -2.10352,6.775391 -2.33593,4.126953 -1.08985,1.011718 -2.25781,4.751953 -3.34961,6.619141 c 0,0 4.3829,-3.399881 6.46289,-5.451172 2.47948,-2.445262 4.80941,-6.319203 6.07422,-9.8125 1.02985,-2.844354 1.91048,-5.403253 4.20703,-6.697265 1.40234,-0.790162 4.82813,-0.07813 4.82813,-0.07813 l -2.72657,-1.947266 z m -57.4707,10.824219 -5.76367,0.15625 -4.82813,5.607422 -3.11523,9.189453 -0.94531,3.898437 c 0.37149,-0.488178 0.86784,-1.031375 1.35547,-0.923828 0.49391,0.108934 0.63476,1.378906 0.63476,1.378906 0,0 1.68336,-3.158594 2.22656,-2.951171 0.51774,0.197697 0.15625,3.425781 0.15625,3.425781 0,0 2.85448,-5.537806 3.42578,-4.984375 0.76877,0.744657 -0.0625,2.839844 -0.0625,2.839844 0,0 2.27155,-4.293276 2.86524,-3.929688 1.02214,0.625972 1.25586,3.757813 1.25586,3.757813 0,0 3.62077,-4.201925 4.16992,-3.261719 0.53094,0.909028 -1.04492,5.185547 -1.04492,5.185547 0,0 0.39537,-0.360504 0.4668,-0.429688 l 2.78515,-6.498047 0.77735,-8.722656 z" /><path
       id="path120"
       style="fill:#000000;fill-opacity:0.3;stroke:none;stroke-width:1px;stroke-linecap:butt;stroke-linejoin:miter;stroke-opacity:1"
       d="m 239.62109,28.96875 -6.92968,1.791016 -9.65625,3.660156 -6.77149,4.349609 -1.48633,1.15625 -6.46484,5.666016 -0.0254,0.02148 -4.22852,3.94336 -2.25781,2.61914 -3.99805,5.140625 -3.33984,6.798828 -1.55273,3.761719 -3.20704,10.154297 -1.86718,10.279297 3.11328,-5.607422 3.42773,-4.828125 -0.39648,0.90625 c 0.38455,-0.713853 6.31445,-7.369141 6.31445,-7.369141 l 8.87696,-7.320312 c 0,0 8.71155,-5.65966 13.1621,-8.333985 3.86651,-2.323323 11.75977,-6.697265 11.75977,-6.697265 l -12.69531,5.919922 -11.05664,6.541015 -7.86719,5.996094 7.39844,-8.332031 -6.61914,5.060547 -3.88282,4.65039 c 0.57696,-1.272525 1.31312,-2.727777 1.875,-3.490234 2.09217,-2.839026 4.90631,-5.211449 7.83203,-7.390625 3.02444,-2.252665 9.8086,-6.804688 9.8086,-6.804687 0,0 -7.88022,3.110864 -11.2793,5.642578 -2.98897,2.226254 -5.68963,4.267157 -7.97265,7.365234 -0.13418,0.18208 -0.26682,0.382652 -0.39844,0.589844 0.56942,-1.450957 1.21093,-2.877809 1.99414,-4.222656 0.73956,-1.269911 2.56836,-3.582032 2.56836,-3.582032 l 17.08008,-9.193359 c -2.78516,0.821135 -7.79587,2.576319 -12.50782,4.761719 3.41762,-2.251687 6.82394,-4.488056 10.42188,-6.283204 2.91307,-1.453436 9.07031,-4.605468 9.07031,-4.605468 0,0 -6.6984,1.412149 -9.87305,2.996094 -3.90594,1.948831 -7.52645,4.35787 -11.10742,6.716796 -0.65946,0.434414 -1.45941,0.987536 -2.29101,1.574219 l 2.01172,-1.962891 c 1.24358,-1.555161 3.72999,-4.385317 6.92968,-7.552734 1.99933,-1.979104 6.11245,-5.658319 9.65625,-7.789062 3.33888,-2.007492 10.74805,-4.59375 10.74805,-4.59375 z m 17.99024,22.896484 c 0,0 -0.228,0.305416 -0.28516,0.382813 l 0.16797,-0.189453 z m -0.28516,0.382813 -5.90625,6.703125 -9.26758,8.138672 -7.66992,5.333984 -6.30859,3.03711 -6.77539,0.896484 -1.20703,-0.03906 c 0,0 2.54703,1.694723 4.01171,1.945313 2.9485,0.504416 6.1118,0.02962 8.91602,-1.011719 2.67958,-0.995049 4.90688,-2.978279 7.08594,-4.828125 2.88342,-2.447791 5.36122,-5.347829 7.82812,-8.214844 3.15983,-3.672175 8.53106,-10.929196 9.29297,-11.960937 z m -12.72265,2.927734 c 0,0 -4.39304,3.10202 -6.60743,4.626953 -2.26417,1.559233 -4.44556,3.253444 -6.82812,4.625 -1.97795,1.138636 -4.03137,2.17035 -6.16797,2.972657 -2.06777,0.776459 -4.27368,1.118579 -6.38672,1.761718 -1.22165,0.371831 -3.63476,1.212891 -3.63476,1.212891 l 5.28515,-0.330078 5.94727,-1.101563 7.04883,-3.414062 4.625,-3.746094 z m 33.48828,1.050781 -2.49219,0.544922 -2.10156,2.958985 -3.03711,8.175781 -1.46875,6.363281 0.45508,-0.910156 c 0,0 1.03812,-1.713761 1.8125,-1.542969 0.49391,0.108934 0.63476,1.378906 0.63476,1.378906 0,0 1.68336,-3.158594 2.22656,-2.951171 0.51774,0.1977 0.15625,3.425781 0.15625,3.425781 0,0 2.85445,-5.537806 3.42578,-4.984375 0.76877,0.74466 -0.0625,2.839844 -0.0625,2.839844 0,0 2.27155,-4.293276 2.86524,-3.929688 1.02214,0.625975 1.25586,3.757813 1.25586,3.757813 0,0 0.23321,-0.243886 0.26758,-0.283204 l 0.8125,-2.46289 0.23437,-5.917969 -1.79101,-3.970703 z m -22.58594,10.513672 -6.49609,6.167969 -5.61719,3.302735 -7.92969,2.753906 c 0,0 -9.21963,1.773437 -9.66016,1.773437 -0.22825,0 1.53455,0.195009 3.61915,0.351563 l -8.22071,2.224609 -10.51758,5.947266 -8.64648,5.783203 -6.27734,4.183594 -3.66211,2.486324 c 0.77209,-0.87277 2.18425,-2.487424 3.65429,-4.248043 l 9.81055,-8.701172 10.35156,-7.927734 4.40625,-2.919922 -7.43554,3.52539 -8.58985,5.560547 -4.46094,3.689453 -4.23437,4.783203 c -2.50905,1.705244 -5.74024,4.048829 -5.74023,4.048829 l 3.61718,-6.117188 3.93555,-5.027344 7.70898,-7.21289 9.63672,-5.726563 5.1211,-2.203125 1.26562,-1.210937 -2.53125,1.375 -2.97461,0.166015 -3.52344,-0.05469 -4.57031,2.146484 -5.61719,4.570313 -4.8457,4.957031 -1.90039,2.394531 -2.51758,1.97461 3.42578,-7.94336 5.29493,-7.476562 -9.03321,11.214843 -2.60547,4.984376 -0.97656,3.582031 0.15625,2.958984 -1.40234,6.07422 -0.7793,8.09961 0.3125,8.25391 0.15625,8.5664 0.62305,4.36133 3.11328,5.13867 2.18164,1.86914 c 0,0 -1.68372,-4.07181 -2.02539,-6.22851 -0.12185,-0.76916 0.88106,-2.22776 0.88106,-2.22776 0,0 2.46475,-1.90043 3.94706,-3.06912 1.09549,-0.86368 2.95899,-2.95898 2.95899,-2.95898 l 1.64844,-0.17383 1.31054,-1.22851 c 0,0 3.70387,-2.61219 5.45313,-4.04883 3.46517,-2.84595 9.96679,-9.03321 9.96679,-9.03321 l -11.36914,7.94336 -6.23046,2.80274 c 0,0 4.85048,-3.64691 7.16406,-5.60742 0.64477,-0.54639 1.34768,-1.04787 1.86914,-1.71289 1.53391,-1.95642 3.58203,-6.54102 3.58203,-6.54102 l -6.85156,4.82813 -5.45117,4.36132 -5.29688,2.64844 c 0,0 4.84867,-3.86214 7.16406,-5.91992 2.41534,-2.14661 7.00977,-6.69727 7.00977,-6.69727 l -7.32031,4.82813 -4.82813,2.64844 c 0,0 3.28591,-3.28323 5.13867,-4.67188 2.62907,-1.9705 8.41211,-5.14062 8.41211,-5.14062 l 5.29492,-4.984382 -5.91797,3.582032 -5.76367,3.73828 -5.45117,3.11524 -5.45117,1.86914 c 0,0 6.24843,-3.52525 9.0332,-5.76172 3.721,-2.98829 10.125,-10.125004 10.125,-10.125004 l -8.25586,5.451174 -9.18945,4.98438 c 0,0 4.70245,-4.24141 7.16406,-6.230475 2.01907,-1.631476 6.23047,-4.671875 6.23047,-4.671876 l -8.91406,3.242188 9.69726,-6.070312 12.39063,-7.212891 8.55859,-3.849609 c 1.83962,0.130954 3.84039,0.224952 4.93164,0.121093 2.63585,-0.250853 3.60671,-0.484843 6.00196,-1.613281 3.18684,-1.501402 8.81054,-5.835938 8.81054,-5.835938 z m -58.11328,4.365235 0.10156,0.03906 -0.1582,0.189453 c 0,0 0.0518,-0.207676 0.0566,-0.228515 z m 36.1543,42.669921 -11.99219,4.2832 -4.82813,1.01172 -7.70898,2.02539 -7.08789,2.88086 c 0,0 -0.52193,0.3168 -0.91992,0.55664 l 0.84179,-0.0879 2.64844,1.08985 3.27148,-0.7793 c 0,0 3.33874,1.63682 5.13868,2.02539 1.01622,0.21938 3.11523,0.15625 3.11523,0.15625 l -3.11523,3.58203 -4.04883,2.49219 6.23047,-1.40234 -3.11524,1.71289 8.41016,-2.02539 -4.36133,2.96093 -2.33594,3.58203 -0.62304,2.17969 2.64843,1.86914 h 2.95899 l -1.5586,1.71289 -3.73632,5.29492 2.33593,-1.08984 2.80274,-1.55664 2.95898,-1.40234 2.95899,-0.15625 c 0,0 -0.17605,1.29655 -0.4668,1.86914 -0.55076,1.08462 -1.6861,1.77641 -2.33594,2.80468 -0.3971,0.62838 -0.93359,2.02344 -0.93359,2.02344 l 4.20508,-1.24609 c 0,0 0.0147,3.53702 -0.62305,5.14062 -0.54879,1.37972 -2.64844,3.58203 -2.64844,3.58203 l 3.89453,-2.49218 -0.77929,2.80468 4.04883,-2.02539 c 0,0 -0.55866,1.6604 -1.08985,2.33594 -1.23288,1.56791 -4.67187,3.73828 -4.67187,3.73828 l 3.89257,-0.3125 2.02539,-1.24609 -2.49218,2.96094 4.36133,-2.33789 0.9414,-0.99024 2.25195,-4.84961 c 10e-6,0 -1.78403,2.25136 -2.95898,3.03711 -1.16201,0.7771 -3.89453,1.55859 -3.89453,1.5586 l 3.03711,-2.25977 3.27148,-3.50391 0.4668,-2.25781 c 0,0 -2.28466,2.11737 -3.66016,2.80273 -0.86808,0.43257 -2.80468,0.7793 -2.80468,0.7793 l 2.49218,-1.55859 c 0,0 1.75976,-1.67583 2.33594,-2.72461 0.771,-1.40339 1.40234,-4.5957 1.40234,-4.5957 l -1.86914,2.49218 c 0,0 -1.71708,2.2885 -2.95898,2.88282 -0.77836,0.3725 -2.57031,0.31054 -2.57031,0.31054 0,0 1.59446,-1.25608 2.33593,-1.94726 1.31612,-1.22676 2.86785,-2.31795 3.73829,-3.89258 0.72492,-1.31138 1.09179,-4.36133 1.09179,-4.36133 0,0 -0.9701,1.56238 -1.63672,2.17969 -0.99327,0.91986 -3.42578,2.18164 -3.42578,2.18164 l 2.33594,-3.97266 c 0,0 0.66286,-2.63517 1.16797,-3.89258 0.489,-1.21726 1.79102,-3.50586 1.79101,-3.50586 l -10.12304,6.07422 5.06054,-3.89257 5.375,-4.90625 c 0,0 1.79031,-5.52935 2.17969,-6.15235 0.38938,-0.62301 -2.27381,1.81985 -3.34765,2.80274 -0.94779,0.86752 -1.67199,1.99256 -2.72657,2.72656 -1.73502,1.20764 -5.76172,2.64648 -5.76171,2.64648 l 7.63085,-6.46289 2.88086,-2.49218 3.50586,-5.9961 -1.55859,1.48047 c 0,0 -4.58752,3.67966 -7.08594,5.2168 -2.05662,1.26532 -6.46484,3.27148 -6.46484,3.27148 l 5.29687,-6.07422 3.97071,-3.03711 5.60742,-5.68554 c 0,0 -3.91565,2.97238 -6.07422,4.12695 -1.70448,0.91169 -5.37305,2.18164 -5.37305,2.18164 l -6.07422,4.59375 c 0,0 0.95117,-2.25605 1.71289,-3.19336 1.73149,-2.13045 4.22923,-3.5002 6.30664,-5.29492 1.65576,-1.43041 4.90626,-4.36133 4.90626,-4.36133 z"
       sodipodi:nodetypes="cccccccccccccccccccccccccccsscsscscccscssccsscccccccccccccssscccssssccccccccccccscscscsccccccccccsccccccccccccccccccccccccccccccccccccccccccscscccscccscccccscccsccccccccccscccccsscccccccccccccccscccccccccccccccccssccsccccscccccccsccccsccsccsccscsccsccccssscccccsccccscccsc" /><path
       id="path128"
       style="fill:#ffffff;fill-opacity:0.3;stroke:none;stroke-width:1px;stroke-linecap:butt;stroke-linejoin:miter;stroke-opacity:1"
       d="m 310.09961,14.484375 -9.30664,0.296875 c -1.47833,0.437123 -3.85547,1.884766 -3.85547,1.884766 l 1.63672,1.246093 c 0,0 3.50254,-0.919917 5.29492,-0.935547 2.15509,-0.01879 4.31117,0.424398 6.38477,1.011719 1.29872,0.367855 3.73828,1.558594 3.73828,1.558594 l -3.89258,1.011719 c 0,0 2.38262,0.448711 3.58203,0.623047 2.43119,0.353376 4.95989,0.176374 7.32031,0.857421 2.43197,0.701685 4.81585,1.767942 6.85352,3.269532 2.24779,1.656428 5.68359,6.152344 5.68359,6.152344 0,0 2.41866,4.523339 2.80469,7.009765 0.49513,3.189093 -0.007,6.504519 -0.70117,9.65625 -0.53728,2.438925 -2.64844,7.007813 -2.64844,7.007813 0,0 1.77269,-1.694247 2.41406,-2.72461 1.55647,-2.500469 2.7808,-5.287856 3.34961,-8.177734 0.0973,-0.494305 0.16369,-0.994727 0.21289,-1.498047 l 3.44727,-0.916016 c 0,0 2.59733,-0.780267 3.81445,-0.388671 1.71558,0.551969 3.1688,2.010405 4.05078,3.582031 0.49546,0.882864 0.74343,2.385436 0.87305,3.634765 0.46252,0.246304 0.77254,0.6628 0.99609,1.13086 l 0.6875,-2.154297 -1.93359,-5.570313 -6.38672,-2.179687 -5.91797,0.466797 -0.54492,-5.867188 c -0.15236,-0.500104 -0.32115,-0.995215 -0.50586,-1.484375 l -4.80859,-7.353515 c -0.0553,-0.05007 -0.10811,-0.103073 -0.16407,-0.152344 l -7.99414,-4.611328 -5.14062,-3.115235 z m 35.82227,39.09375 -1.76172,0.240234 c -0.48924,0.386469 -0.87891,0.697266 -0.87891,0.697266 0,0 3.33324,0.284835 4.95703,0.660156 2.26215,0.522873 4.8409,0.696434 6.60742,2.203125 1.51164,1.2893 2.70801,3.300853 2.75391,5.28711 0.0383,1.658455 -1.14386,3.15365 -2.09375,4.513672 -0.95128,1.362017 -2.56696,2.167015 -3.52344,3.52539 -0.72451,1.028938 -1.51251,2.763868 -2.08789,4.132813 l 7.70899,-7.708985 3.42578,-6.230468 0.56836,-2.261719 c -0.84533,-1.503517 -1.85602,-2.291663 -3.52735,-3.189453 l -4.98437,-1.712891 z" /><path
       id="path119"
       style="color:#000000;fill:#000000;-inkscape-stroke:none"
       d="m 264.51172,10.773438 c -3.93392,0.05145 -8.00708,0.5181 -11.65039,2.171874 -1.79099,0.812958 -3.83001,2.534515 -5.49414,4.066407 -1.66414,1.531885 -4.24024,5.027344 -4.24024,5.027343 0,0 3.32681,-2.668303 4.94532,-4.158203 1.61845,-1.489892 3.97797,-2.92023 5.41015,-3.570312 3.83349,-1.740069 8.34082,-2.092348 12.68555,-2.035156 3.67363,0.04836 7.3832,0.861346 10.9043,2.0625 2.97242,1.014008 5.85209,2.418054 8.36523,4.255859 2.07342,1.516242 6.90625,6.091797 6.90625,6.091797 0,0 -3.56108,-5.503445 -6.02148,-7.302735 -1.71455,-1.253807 -3.57672,-2.306065 -5.51172,-3.179687 1.79661,0.0627 3.76238,0.151963 4.83398,0.275391 3.45127,0.397513 6.74604,1.319322 9.91602,2.748046 0.79675,0.359103 1.57598,0.75551 2.33789,1.181641 -0.55287,0.317801 -0.98242,0.589844 -0.98242,0.589844 0,0 0.60015,-0.182582 1.32617,-0.396485 1.63181,0.942826 3.16432,2.043707 4.52343,3.324219 1.58642,1.494602 4.8418,5.875 4.8418,5.875 0,0 -1.95626,-5.081325 -3.88086,-6.894531 -1.08117,-1.018603 -2.25818,-1.923671 -3.49804,-2.730469 0.30182,0.0065 0.5894,0.01124 0.9707,0.02344 0.84239,0.02695 1.8562,0.101305 2.44726,0.25 2.47553,0.622764 4.98448,1.523694 6.89063,3.113281 0.78432,0.65406 1.80864,1.700922 2.54687,2.896484 0.73833,1.195574 1.89454,3.074219 1.89454,3.074219 0,0 -0.51166,-1.941935 -1.26758,-3.166015 -0.75593,-1.224088 -1.71413,-2.627422 -2.66211,-3.417969 -2.05583,-1.714417 -4.67968,-2.639566 -7.20703,-3.275391 -0.13729,-0.03454 -0.28827,-0.06332 -0.44336,-0.08984 0.64114,-0.03198 1.28479,-0.03149 1.92383,0.002 1.51158,0.0791 4.7539,0.531249 4.7539,0.53125 0,0 -3.02166,-1.141757 -4.71679,-1.230469 -0.41163,-0.02154 -0.82606,-0.03144 -1.24024,-0.02734 -1.24253,0.01229 -2.48907,0.144704 -3.70117,0.419922 -0.31442,0.07139 -0.67566,0.204874 -1.04102,0.365234 -0.67204,-0.40385 -1.35909,-0.781303 -2.05859,-1.130859 0.73665,-0.262972 1.72209,-0.585288 2.76953,-0.833984 2.03821,-0.483956 4.62079,-0.731707 6.17969,-0.707032 3.44273,0.0545 6.8957,1.101668 10.20898,2.330078 1.13819,0.421983 2.63887,1.121415 4.10742,1.847657 -0.34349,-0.04948 -0.69287,-0.0906 -1.05273,-0.115235 -1.51526,-0.103722 -4.36914,0.347656 -4.36914,0.347656 0,0 2.70609,0.365728 4.1582,0.652344 1.68362,0.332323 3.2161,0.94591 4.22071,1.324219 4.24491,1.598548 8.21318,3.853922 10.79492,7.427734 2.72138,3.767266 4.05786,8.381364 3.73242,13.013672 -0.1783,2.537866 -1.57986,6.386698 -2.95117,9.529297 -0.60419,1.384598 -0.74639,1.714814 -1.25781,2.890625 0.43721,-1.928961 0.77051,-3.927688 1.02539,-5.763672 0.53734,-3.870711 -0.30274,-9.082031 -0.30274,-9.082031 0,0 -0.42526,5.113614 -0.95312,8.916016 -0.52787,3.802393 -1.76308,8.292069 -3.09961,11.064453 -2.94759,6.114236 -8.33577,12.066489 -14.23438,15.378906 -2.82064,1.583954 -7.62451,2.788797 -11.67187,3.546875 -4.04746,0.758078 -7.26563,1.896484 -7.26563,1.896484 0,0 3.44343,0.448861 7.56055,-0.322265 4.11703,-0.771126 8.97958,-1.938471 12.16015,-3.72461 2.82731,-1.587692 5.50793,-3.719923 7.88672,-6.169921 l 0.004,0.0098 c 0,0 1.40609,-0.486224 3.11328,-1.181641 1.70719,-0.695408 3.70528,-1.582565 5.00195,-2.488281 3.02143,-2.110313 5.40897,-4.965675 7.625,-7.771484 0.94715,-1.199172 1.88572,-2.43853 2.75391,-3.732422 0.35858,-0.06314 3.2472,-0.565624 4.70313,-0.630859 2.04139,-0.09147 4.08149,-0.195405 5.95898,0.257812 0.22222,0.05364 0.43797,0.10735 0.64844,0.160156 0.0559,0.54583 0.28399,2.906287 0.13476,4.083985 -0.1907,1.505013 -0.60665,3.005776 -1.2832,4.347656 -0.35583,0.705759 -1.01095,1.933024 -1.68555,2.763672 -0.67461,0.830648 -2.08398,2.283203 -2.08398,2.283203 0,0 1.89899,-1.126355 2.58789,-1.974609 0.6889,-0.848263 1.47634,-1.879577 1.89648,-2.712891 0.72489,-1.437745 1.16275,-3.024204 1.36328,-4.607422 0.14816,-1.16923 -0.008,-3.055912 -0.0996,-3.966797 0.93212,0.255237 1.78012,0.533723 2.65429,0.917969 -3.5e-4,0.08776 -0.004,1.024318 -0.0215,2.226562 -0.0186,1.257097 -0.4582,2.725874 -0.69336,3.626954 -0.53044,2.032517 -1.57826,3.959763 -2.80469,5.708984 -1.53862,2.194503 -5.50976,6.287109 -5.50976,6.287109 0,0 4.48522,-3.430848 6.16601,-5.828125 1.26183,-1.799715 2.35782,-3.803517 2.92188,-5.964843 0.27545,-1.055463 0.35018,-2.575051 0.36914,-3.857422 0.0157,-1.062802 -0.27474,-1.907031 -0.37891,-2.177735 0.17897,0.07938 0.36055,0.162903 0.54297,0.251954 -1.45642,-1.401885 -2.80562,-2.117546 -4.4668,-2.636719 -1.04405,-0.252034 -2.10088,-0.346963 -3.15234,-0.367188 -1.05146,-0.02023 -2.09631,0.03451 -3.11328,0.08008 -1.10957,0.04972 -2.75,0.297725 -3.84961,0.478516 0.70016,-1.148531 1.32962,-2.342998 1.83594,-3.601563 0.38293,-0.95188 0.64609,-2.285498 0.83789,-3.419921 0.12178,-0.720348 0.11865,-1.185194 0.10156,-1.447266 0.62442,0.48109 1.32217,1.123539 1.82617,1.841797 0.73093,1.041641 1.51563,2.310547 1.51563,2.310547 0,0 -0.10261,-1.525335 -0.86329,-2.609375 -0.76059,-1.084041 -1.71375,-2.310645 -2.72656,-2.9375 -1.27142,-0.786926 -2.81237,-1.231004 -4.32812,-1.238282 -0.34979,-0.0017 -0.69742,0.02049 -1.04102,0.06641 -0.74198,0.09915 -1.51465,0.526349 -2.17187,0.925781 0.0976,-0.531469 0.17669,-1.051716 0.21093,-1.539062 0.0222,-0.315474 0.0371,-0.630288 0.0449,-0.945313 0.14351,-0.03646 0.51539,-0.134719 1.16406,-0.265625 0.76065,-0.153505 1.68632,-0.296882 2.23828,-0.28125 1.9587,0.05547 3.9814,0.362692 5.66211,1.248047 1.30532,0.68761 2.54753,1.705561 3.18945,2.964844 0.25938,0.508824 0.46542,1.216096 0.65235,2.283203 0.15112,0.86263 0.22851,1.748047 0.22851,1.748047 0,0 0.31698,-0.603562 0.37695,-1.65625 0.0601,-1.055566 -0.16169,-1.986481 -0.54492,-2.738282 -0.74997,-1.471242 -2.12308,-2.569738 -3.52929,-3.310547 -1.84574,-0.972287 -3.98629,-1.282477 -6.01172,-1.339843 -0.0879,-0.0025 -0.17913,-0.0027 -0.27344,0 -0.66016,0.01917 -1.46037,0.158412 -2.14649,0.296875 -0.55701,0.112423 -0.77226,0.171147 -1.00195,0.228515 -0.0617,-4.357528 -1.47707,-8.612162 -4.04297,-12.164062 -2.72216,-3.768327 -6.77698,-6.102057 -11.00195,-7.744141 -2.1121,-1.31152 -5.35644,-3.222683 -7.57422,-4.044922 -3.35848,-1.245131 -6.93551,-2.348123 -10.60742,-2.40625 -1.80652,-0.02859 -4.28894,0.467921 -6.36523,0.960938 -1.26196,0.29964 -2.33055,1.029702 -3.01758,1.578125 -0.25554,-0.123158 -0.51144,-0.245002 -0.76953,-0.361328 -3.29626,-1.485648 -6.73535,-2.447282 -10.33008,-2.861328 -1.33575,-0.153853 -3.24003,-0.114043 -4.81055,-0.03711 -0.60504,0.02964 -1.3465,0.193112 -2.03125,0.38086 -0.4664,-0.179955 -0.93521,-0.352985 -1.40625,-0.513672 -3.62956,-1.238156 -7.48816,-2.091493 -11.36914,-2.142578 -0.55465,-0.0073 -1.11379,-0.0093 -1.67578,-0.002 z m 2.22266,4.736328 c -2.2272,0.03205 -5.42256,0.642157 -8.08399,1.242187 -2.66143,0.600037 -4.68555,1.529297 -4.68555,1.529297 0,0 2.19709,-0.249885 4.83985,-0.845703 2.64268,-0.595826 5.83478,-1.19625 7.9414,-1.226563 3.67788,-0.05292 7.42879,0.516661 10.89063,1.742188 1.53718,0.544174 3.74023,1.803946 5.53516,2.923828 1.79487,1.119882 3.39257,1.8125 3.39257,1.8125 0,0 -1.21154,-1.275746 -3.02343,-2.40625 -1.81197,-1.130504 -4.01553,-2.403873 -5.67188,-2.990234 -3.54742,-1.255823 -7.37795,-1.835304 -11.13476,-1.78125 z m 19.60937,1.011718 c 0,0 1.69801,0.841674 3.88281,1.587891 2.18481,0.746217 4.76738,1.740834 6.28711,2.673828 0.83117,0.510272 1.98844,1.549982 2.91602,2.453125 0.92757,0.903144 2.74804,2.445313 2.74804,2.445313 0,0 -1.31756,-2.029879 -2.25976,-2.947266 -0.9422,-0.917387 -2.09825,-1.971251 -3.03906,-2.548828 -1.62938,-1.000306 -4.22361,-1.98741 -6.42774,-2.740235 -2.20412,-0.752817 -4.10742,-0.923828 -4.10742,-0.923828 z M 253.4043,22.3125 c -1.18891,-0.01207 -2.37983,4.26e-4 -3.57032,0.04883 -2.38094,0.0968 -4.75832,0.340254 -7.0957,0.828125 -4.57768,0.955488 -9.03918,2.647547 -13.13281,4.896485 -2.25834,1.240668 -5.38132,4.140047 -6.9375,5.648437 -0.19243,0.09159 -0.42927,0.176418 -0.60938,0.269531 -4.01312,2.074776 -7.38537,5.129102 -10.70117,8.017578 -4.48767,3.909354 -8.99896,7.964505 -12.64648,12.761719 -1.71499,2.255529 -3.44727,7.332031 -3.44727,7.332031 0,0 2.97294,-4.559625 4.48242,-6.544922 3.54839,-4.666794 7.98796,-8.66842 12.46485,-12.568359 3.32753,-2.898722 6.63197,-5.87228 10.44531,-7.84375 5.46023,-2.822922 17.87109,-6.414062 17.87109,-6.414062 0,0 -10.77109,1.931287 -17.01172,4.615234 1.86495,-1.355698 4.72007,-3.38001 6.57032,-4.396484 4.01034,-2.20318 8.38377,-3.861152 12.85742,-4.794922 4.53864,-0.947339 9.28563,-0.948647 13.97461,-0.761719 4.01437,0.160035 12.24609,1.152344 12.24609,1.152344 0,0 -8.00216,-1.98284 -12.20508,-2.150391 -1.17886,-0.04699 -2.36578,-0.08363 -3.55468,-0.0957 z m 68.14062,0.427734 c 0,0 4.01447,2.844318 5.67578,4.455078 1.43313,1.389518 2.75716,2.955417 3.58789,4.726563 0.45565,0.971453 1.07194,2.47478 1.39258,3.960937 0.30126,1.396342 0.5586,3.208985 0.5586,3.208985 0,0 0.12338,-1.831537 -0.14649,-3.257813 -0.26986,-1.426266 -0.65424,-3.105375 -1.17187,-4.208984 -0.88448,-1.885724 -2.26565,-3.509495 -3.73243,-4.931641 -1.81361,-1.758512 -6.16406,-3.953124 -6.16406,-3.953125 z m -2.17969,0.777344 c 0,0 3.90184,3.93753 5.52735,6.009766 1.23274,1.571521 2.31051,3.291247 3.05859,5.123047 0.80918,1.98139 1.96803,6.245045 2.07617,6.855468 -0.0187,-0.233897 -0.39594,-4.856486 -1.33593,-7.158203 -0.78356,-1.918648 -1.90233,-3.696529 -3.16993,-5.3125 -1.75043,-2.231616 -6.15625,-5.517578 -6.15625,-5.517578 z m -4.2832,0.466797 c 0,0 1.41392,1.068801 3.00586,2.445313 2.04417,1.767529 3.22504,3.372065 4.03906,4.632812 1.66592,2.580136 2.68189,5.762512 2.69141,8.8125 0.0103,3.429474 -1.47633,6.875119 -3.04492,10.128906 -1.44218,2.991581 -6.22266,9.804688 -6.22266,9.804688 0,0 5.84759,-5.806043 7.48242,-9.197266 1.58415,-3.286065 3.19709,-6.911575 3.18555,-10.742187 -0.0105,-3.354866 -1.10774,-6.765769 -2.91602,-9.566407 -1.02175,-1.582609 -2.95803,-3.248457 -4.66015,-4.585937 -1.70213,-1.33748 -3.56055,-1.732422 -3.56055,-1.732422 z m -26.80078,0.701172 c -2.60741,-0.03142 -5.21643,0.163292 -7.75977,0.394531 -5.33784,0.485321 -15.12304,4.044922 -15.12304,4.044922 0,0 10.26352,-2.197023 15.25,-2.650391 5.0536,-0.459469 10.24339,-0.74198 15.01953,0.523438 4.72851,1.252817 9.41276,3.468419 12.94141,6.765625 2.26929,2.120508 4.09465,4.94745 4.86132,7.917969 0.23229,0.900028 0.5774,2.934213 0.42969,4.574218 -0.14769,1.640013 -0.45312,4.519532 -0.45312,4.519532 0,0 1.30644,-2.776793 1.45898,-4.470703 0.15254,-1.693916 0.26558,-3.633449 -0.0801,-4.972657 -0.84656,-3.280052 -2.81433,-6.302986 -5.26172,-8.589843 -1.88314,-1.75969 -4.05333,-3.215885 -6.36718,-4.392579 0.33912,0.06952 0.69089,0.139575 1.05859,0.199219 1.9156,0.310728 4.06176,1.109061 4.92773,1.546875 2.3579,1.192108 4.59693,2.902425 5.97461,5.064453 0.47582,0.746719 1.3926,2.124664 1.66992,3.425782 0.27738,1.301112 0.51368,3.933593 0.51368,3.933593 0,0 0.5809,-2.689042 0.29101,-4.048828 -0.28989,-1.359785 -0.69732,-2.940151 -1.3789,-4.009765 -1.55162,-2.434983 -3.97766,-4.258036 -6.48438,-5.525391 -1.25241,-0.633193 -3.42806,-1.042294 -5.38281,-1.359375 -1.11451,-0.180784 -2.15121,-0.106185 -2.84766,-0.0098 -1.79457,-0.791575 -3.65136,-1.428977 -5.51172,-1.921875 -2.53314,-0.671161 -5.13868,-0.927567 -7.74609,-0.958984 z m 27.59766,2.964844 c 0,0 1.07996,2.063715 1.82617,4.029297 0.74621,1.965573 1.11473,4.538992 1.19531,6.048828 0.12768,2.392169 -0.51691,4.893933 -1.5,7.160156 -1.31106,3.022235 -3.50798,5.694345 -5.79492,8.21875 -0.085,0.09379 -0.22722,0.231701 -0.32031,0.332031 0.36078,-0.741337 0.70199,-1.577076 0.79882,-2.277344 0.2299,-1.662405 0.4216,-3.635933 0.19336,-5.068359 -0.41848,-2.626339 -1.48752,-5.241268 -3.14843,-7.341797 -2.23947,-2.83209 -5.39269,-4.899661 -8.61133,-6.388672 -4.02917,-1.86393 -8.51098,-2.676713 -12.88281,-3.007812 -3.82842,-0.289945 -11.02149,1.404297 -11.02149,1.404297 0,0 7.44438,-0.571192 10.9375,-0.306641 4.29263,0.325103 8.64867,1.125784 12.50586,2.910156 3.1142,1.440663 6.12054,3.42911 8.20898,6.070313 1.52715,1.931269 2.53547,4.382418 2.92579,6.832031 0.18594,1.166954 0.0268,3.125676 -0.19727,4.746094 -0.15321,1.107903 -0.39109,2.413219 -0.55859,3.310547 -2.49491,2.574444 -6.25391,6.109375 -6.25391,6.109375 0,0 5.99792,-3.664046 8.46094,-6.382813 2.3162,-2.556695 4.62363,-5.335975 6.04101,-8.603516 1.04297,-2.404227 1.7589,-5.099456 1.61524,-7.791015 -0.0997,-1.867498 -0.90369,-4.288333 -1.66992,-6.306641 -0.76623,-2.018308 -2.75,-3.697265 -2.75,-3.697265 z m 2.31836,0.541015 c 0,0 2.08371,4.358326 2.80664,6.533203 0.66587,2.003237 1.12657,4.218977 1.05468,6.220703 -0.10925,3.043115 -0.9415,6.158973 -2.42773,8.806641 -0.79524,1.4167 -2.40471,3.657456 -3.96875,5.171875 -1.56403,1.514428 -3.47656,3.033203 -3.47656,3.033203 0,0 2.41462,-1.103773 4.00586,-2.644531 1.59114,-1.540758 3.3998,-3.446313 4.3125,-5.072266 1.57164,-2.79999 2.4398,-6.059666 2.55468,-9.259765 0.0801,-2.231093 -0.60134,-4.390161 -1.27148,-6.40625 -0.80065,-2.408706 -3.58984,-6.382813 -3.58984,-6.382813 z M 255.875,30.162109 c -0.9566,0.0018 -1.87078,0.03137 -2.60547,0.105469 -3.98676,0.402125 -7.95458,1.106581 -11.83594,2.103516 -4.25652,1.093307 -12.24804,4.521484 -12.24804,4.521484 0,0 8.26787,-2.776776 12.42187,-3.84375 3.84678,-0.988053 7.78053,-1.685379 11.73242,-2.083984 2.8341,-0.28586 8.66407,-0.56836 8.66407,-0.56836 0,0 -3.25911,-0.239803 -6.12891,-0.234375 z m 26.14844,3.289063 c -0.59219,0.01751 -1.39413,0.105202 -2.23047,0.384766 -1.67269,0.55912 -3.63106,1.290431 -4.9043,2.103515 -2.68986,1.717729 -4.99697,4.19994 -6.99023,6.583985 -1.90725,2.281159 -3.40069,4.734926 -4.7461,7.353515 -1.42864,2.780742 -2.47954,5.757864 -3.24218,8.771485 -0.66158,2.614232 -0.50782,7.779296 -0.50782,7.779296 0,0 1.07258,-5.116217 1.67188,-7.484375 0.74449,-2.941898 1.76578,-5.834083 3.14453,-8.517578 1.31971,-2.568561 2.76618,-4.93799 4.59961,-7.130859 1.96295,-2.347786 4.20649,-4.741879 6.71484,-6.34375 1.06719,-0.681498 2.76834,-1.818391 4.4043,-2.365234 1.63597,-0.54685 3.06055,-1.09961 3.06055,-1.09961 0,0 -0.38243,-0.05267 -0.97461,-0.03516 z m 5.17968,0.113281 c 0,0 -4.57297,0.742482 -6.71679,2.009766 -2.73972,1.619526 -5.26878,3.668527 -7.39453,6.044922 -2.45383,2.743034 -4.27067,5.972589 -5.9336,9.166015 -1.99758,3.83625 -4.25195,12.527344 -4.25195,12.527344 0,0 2.08468,-4.920219 3.90625,-8.839844 0.76982,-1.004305 4.67349,-6.036202 7.28125,-8.125 2.14462,-1.717818 4.61678,-3.091118 7.20703,-4.009765 2.47428,-0.877516 8.01563,-1.808594 8.01563,-1.808594 0,0 -5.55839,0.08832 -8.28321,1.054687 -2.67569,0.948973 -5.22317,2.363452 -7.43945,4.138672 -1.59467,1.277322 -3.58499,3.527636 -5.15039,5.417969 1.61286,-3.08249 3.35036,-6.120296 5.61719,-8.654297 0.29273,-0.327244 0.59566,-0.646593 0.90429,-0.960937 0.6318,-0.389321 1.56264,-0.957227 2.64844,-1.580079 1.62049,-0.929558 3.60579,-1.973645 4.96484,-2.417968 1.04495,-0.341616 2.42117,-0.718075 4.02149,-0.996094 1.4321,-0.248793 2.7832,-0.398437 2.7832,-0.398438 0,0 -1.20972,-0.325717 -2.67578,-0.162109 -1.46606,0.163604 -3.20462,0.411022 -4.37891,0.794922 -1.22589,0.400798 -2.78763,1.189117 -4.21679,1.980469 0.97286,-0.745205 1.9881,-1.432632 3.03711,-2.052735 1.80655,-1.067907 6.05469,-3.128906 6.05468,-3.128906 z M 262.00391,36.5625 c 0,0 -8.27733,0.741719 -12.38672,1.46875 -4.54079,0.803344 -9.13692,1.523816 -13.58008,2.871094 -3.83311,1.162283 -10.92774,4.691406 -10.92773,4.691406 0,0 7.36719,-2.984847 11.10156,-4.117188 4.38997,-1.331144 8.96328,-2.050772 13.51172,-2.855468 4.07015,-0.720095 12.28125,-2.058594 12.28125,-2.058594 z m 31.1582,0.01953 c -0.85368,-0.02178 -1.44141,0.09766 -1.44141,0.09766 0,0 1.58351,0.435327 3.23242,0.880859 1.64897,0.445525 3.2538,1.507211 4.33204,2.130859 1.76705,1.022101 3.41613,2.400963 4.46484,4.080078 1.3337,2.135433 1.97136,4.780477 2.16797,7.359375 0.078,1.023735 0.17,2.615228 -0.082,4.021485 -0.25201,1.40625 -1.10938,4.5 -1.10938,4.5 0,0 1.71947,-2.72635 1.97852,-4.171875 0.25905,-1.445533 0.50736,-3.164403 0.41015,-4.439453 -0.20673,-2.711645 -0.87066,-5.539442 -2.34765,-7.904297 -1.18977,-1.904976 -2.99007,-3.390749 -4.88086,-4.484375 -1.30245,-0.753335 -3.28223,-1.366045 -4.9707,-1.822266 -0.63321,-0.171083 -1.2417,-0.234977 -1.75391,-0.248047 z m -67.83203,2.183594 c 0,0 -9.91913,4.065423 -14.23047,7.392578 -4.14658,3.200008 -10.32813,11.439453 -10.32813,11.439453 0,0 6.86352,-7.754152 10.81641,-10.804687 4.11765,-3.177683 13.74219,-8.027344 13.74219,-8.027344 z m 70.26562,0.771484 c 0,0 0.83547,1.218696 2.01368,2.546875 1.17815,1.328186 2.4869,2.996214 2.99414,4.230469 0.99471,2.420576 1.02585,5.23043 0.85937,7.90625 -0.0806,1.295345 -0.54331,3.262549 -0.98828,4.886719 -0.44497,1.624163 -0.58398,3.007812 -0.58399,3.007812 0,0 0.71285,-1.209774 1.16211,-2.849609 0.44927,-1.639835 0.92282,-3.610392 1.00977,-5.007813 0.16834,-2.70558 0.15046,-5.605362 -0.9043,-8.171874 -0.57044,-1.388034 -1.90407,-3.052672 -3.09961,-4.400391 -1.19554,-1.347719 -2.46289,-2.148438 -2.46289,-2.148438 z m 32.18946,1.152344 c 0,0 -0.0537,2.413713 -0.20313,4.664063 -0.1494,2.250342 -0.93411,4.740789 -1.49609,6.316406 -1.36755,3.834108 -3.94517,7.267075 -6.71094,10.376953 -2.78934,3.136386 -9.68359,8.767578 -9.68359,8.767578 0,0 7.54702,-4.560195 10.58007,-7.970703 2.81025,-3.159892 5.49406,-6.700736 6.94532,-10.769531 0.65421,-1.834196 0.94342,-4.544261 1.0957,-6.837891 0.15228,-2.293629 -0.52734,-4.546875 -0.52734,-4.546875 z m 17.00195,0.386719 c 0,0 1.25781,0.337867 2.04297,0.652344 0.78515,0.314472 1.68258,0.86289 2.16015,1.265625 1.00229,0.845207 1.70348,2.063096 2.25977,3.289062 0.21631,0.476711 0.50279,1.285287 0.65039,1.964844 0.14759,0.679557 0.18945,1.746094 0.18945,1.746094 0,0 0.27304,-1.139585 0.12305,-1.830079 -0.14997,-0.690487 -0.3542,-1.506029 -0.59961,-2.046874 -0.56714,-1.249882 -1.28906,-2.520226 -2.36523,-3.427735 -0.55833,-0.470821 -1.48653,-0.894188 -2.28711,-1.214844 -0.80058,-0.320649 -2.17383,-0.398437 -2.17383,-0.398437 z m -53.32227,0.222656 c 0,0 1.13681,0.678517 2.45313,1.619141 1.31633,0.940623 2.60569,2.519622 3.14062,3.52539 1.25296,2.355781 1.40376,5.291916 1.43555,8.087891 -0.12355,-0.959657 -0.31377,-1.831052 -0.57226,-2.525391 -0.75471,-2.026776 -1.79158,-4.131633 -3.48829,-5.55664 -1.51827,-1.275211 -3.54464,-1.737901 -5.38671,-2.199219 -1.42862,-0.357763 -4.2461,-0.197266 -4.2461,-0.197266 0,0 2.83223,0.35985 4.125,0.683594 1.84787,0.462753 3.79297,0.924476 5.1875,2.095703 1.58703,1.332893 2.5982,3.355787 3.33984,5.347657 0.29676,0.796937 0.60554,1.991373 0.77149,3.205078 0.0778,0.569149 0.13988,1.170263 0.18359,1.634765 -0.18486,2.106708 -0.6376,4.243657 -1.21484,6.25 -0.34391,1.195346 -1.07948,3.177521 -1.89063,4.611328 -0.81108,1.433814 -1.85546,2.769532 -1.85546,2.769532 0,0 1.56348,-1.140405 2.38671,-2.595703 0.82331,-1.455304 1.73998,-3.217493 2.12696,-4.5625 0.79167,-2.75164 1.36297,-5.758509 1.33789,-8.650391 -0.0252,-2.903423 -0.11319,-6.103548 -1.53321,-8.773438 -0.67672,-1.272493 -2.19452,-2.50294 -3.54882,-3.470703 -1.35431,-0.967763 -2.75196,-1.298828 -2.75196,-1.298828 z m -36.62109,1.63086 c -2.59809,0.01845 -6.51004,0.159545 -8.89648,0.785156 -5.50537,1.443209 -10.40691,4.493883 -15.47852,6.849609 -4.10598,1.907177 -8.26575,3.747616 -12.24609,5.957031 -3.29244,1.82755 -9.30274,6.253907 -9.30274,6.253907 0,0 6.41616,-3.849722 9.64258,-5.640625 3.94369,-2.189048 8.08761,-4.024828 12.20117,-5.935547 5.12401,-2.380044 9.99033,-5.401115 15.35938,-6.808594 3.60188,-0.944232 11.36523,-1.439453 11.36523,-1.439453 0,0 -1.08568,-0.03256 -2.64453,-0.02148 z m 87.27148,0.523437 c 1.31514,-0.05738 2.71556,0.278318 3.86719,0.914063 l -0.13281,-0.05859 c 0,0 -0.10388,0.88906 -0.28906,1.984375 -0.18518,1.095314 -0.46618,2.410789 -0.75586,3.130859 -1.19236,2.963848 -3.15269,5.650094 -5.19531,8.236328 -2.19835,2.783324 -4.51054,5.524249 -7.32813,7.492188 -1.08448,0.75745 -3.05743,1.661881 -4.72656,2.341797 -0.2217,0.09031 -0.36163,0.138338 -0.57031,0.220703 1.99645,-2.39561 3.70352,-5.003097 4.98632,-7.664063 0.45162,-0.936794 0.83984,-2.016267 1.18555,-3.160156 0.92525,-1.093867 2.35489,-2.962116 3.24414,-5 0.96632,-2.214487 1.95565,-4.741579 2.54688,-7.0625 0.19702,-0.137424 0.47001,-0.320914 0.77929,-0.509766 0.62145,-0.379455 1.41108,-0.760152 1.83203,-0.816406 0.18347,-0.02452 0.36877,-0.04063 0.55664,-0.04883 z m -77.13671,0.599609 c 0,0 -10.2347,2.987371 -17.16993,7.921875 -4.55163,3.238601 -7.79214,7.899618 -12.11718,11.015625 -3.09292,2.228277 -6.33957,4.337018 -9.87696,5.541016 -1.34541,0.457934 -3.59659,0.797773 -5.47851,1.003906 -1.88193,0.206133 -5.68946,1.28125 -5.68946,1.28125 0,0 3.89513,0.02209 5.8086,-0.1875 1.91347,-0.209588 4.17822,-0.532346 5.71289,-1.054687 3.71322,-1.263846 7.04471,-3.442632 10.16601,-5.691407 4.53078,-3.264173 7.77158,-7.922533 12.11329,-11.011718 6.72495,-4.784942 16.53125,-8.81836 16.53125,-8.81836 z m 20.20117,1.228516 c -0.74032,0.0068 -1.57297,0.05493 -2.34375,0.193359 -2.05541,0.369163 -4.47488,0.910617 -6.03321,1.689453 -3.13897,1.568873 -5.90504,3.991591 -8.01367,6.779297 -2.59939,3.436611 -3.88101,7.658666 -5.28906,11.617188 -1.5597,4.384866 -2.31502,8.549873 -4.32617,12.335937 -1.21069,2.279162 -3.01548,4.400865 -4.88281,6.234375 -0.78151,0.767321 -1.91575,1.625286 -3.33399,2.652344 -1.1835,0.857064 -2.77539,1.707031 -2.77539,1.707031 0,0 1.74724,-0.422999 3.02148,-1.1875 1.27432,-0.764493 2.75526,-1.724593 3.64844,-2.601562 1.90339,-1.86884 3.75896,-4.041896 5.02735,-6.429688 2.08539,-3.925943 2.84206,-8.133754 4.375,-12.443359 1.41633,-3.982011 2.6891,-8.117327 5.17382,-11.402344 2.03985,-2.696772 4.72215,-5.041385 7.73438,-6.546875 1.38907,-0.694247 3.74938,-1.429092 5.77539,-1.792968 2.02602,-0.363884 4.45312,-0.710938 4.45312,-0.710938 0,0 -0.97708,-0.105082 -2.21093,-0.09375 z m 0.5039,0.753906 c 0,0 1.28233,0.602873 2.85743,1.207032 1.57502,0.604153 3.37689,1.469497 4.22851,2.378906 1.93529,2.066614 2.83778,5.131584 3.12695,8.007812 0.24862,2.47298 -0.29152,4.687623 -0.81445,7.201172 -0.2194,1.054623 -0.63867,2.425781 -0.63867,2.425781 0,0 0.74808,-1.410965 1.01562,-2.34375 0.69882,-2.436474 1.12121,-4.806107 0.93555,-7.34375 -0.21487,-2.936878 -1.20637,-6.096252 -3.25976,-8.289062 -0.9781,-1.044473 -2.81224,-1.8895 -4.41407,-2.503906 -1.60183,-0.614413 -3.03711,-0.740235 -3.03711,-0.740235 z m 47.57618,0.111328 c 0,0 -2.11601,7.650671 -3.77344,11.056641 -1.75411,3.604625 -3.89509,7.163021 -6.84571,9.789063 -3.51892,3.131891 -8.03913,5.130258 -12.5332,6.75 -3.41054,1.22924 -10.8789,2.578124 -10.8789,2.578124 0,0 7.51514,-0.514695 11.14843,-1.824218 4.53009,-1.632727 9.15041,-3.660901 12.79688,-6.90625 3.07465,-2.736437 5.25596,-6.387002 7.03125,-10.035156 1.76748,-3.63211 3.05469,-11.408204 3.05469,-11.408204 z m -72.90821,2.863282 c 0,0 -9.57361,9.95633 -14.73242,14.257812 -5.23275,4.363191 -10.51883,8.989164 -16.76367,11.230469 -1.41428,0.507583 -3.87892,1.214002 -5.94141,1.320312 -2.06248,0.10631 -4.41211,0.392579 -4.41211,0.392579 0,0 2.36638,0.573713 4.47852,0.464843 2.11214,-0.108869 4.60348,-0.339053 6.31445,-0.953125 6.55824,-2.353752 11.94169,-7.109005 17.15625,-11.457031 5.36914,-4.476859 13.90039,-15.255859 13.90039,-15.255859 z m -16.29883,0.328125 c 0,0 -7.29332,2.498264 -10.82617,4.08789 -3.30558,1.487401 -6.39294,3.369376 -9.68164,4.730469 -3.7157,1.537833 -7.82592,2.225457 -11.57812,3.970703 -3.75429,1.746192 -10.31446,6.595703 -10.31446,6.595703 0,0 6.98821,-4.276662 10.60938,-5.960937 3.6373,-1.691785 7.73622,-2.380254 11.55078,-3.958985 3.35588,-1.388891 6.44898,-3.274908 9.70117,-4.738281 3.49239,-1.571422 10.53906,-4.726562 10.53906,-4.726562 z m 117.29102,3.25 c 0,0 0.18844,1.852304 0.15234,3.412109 -0.0362,1.559804 -0.52364,3.209897 -0.87109,4.238281 -1.18184,3.498013 -3.6357,6.594752 -6.19141,9.449219 -2.99672,3.347118 -6.7099,6.085067 -10.49804,8.642578 -3.0075,2.030422 -10.125,5.865234 -10.125,5.865234 0,0 7.68199,-2.525622 10.91015,-4.705078 3.82005,-2.578995 7.62939,-5.377109 10.75586,-8.86914 2.59255,-2.89561 5.18603,-6.119645 6.47461,-9.933594 0.4596,-1.360322 0.57781,-3.261948 0.61524,-4.876953 0.0374,-1.615014 -1.22266,-3.222655 -1.22266,-3.222656 z m -79.625,0.349609 c -0.38948,0.0074 -0.7787,0.05137 -1.16406,0.136719 -2.47139,0.547366 -4.39493,2.021311 -5.89649,4.001953 -1.50156,1.980641 -2.61887,4.469989 -3.60351,7.189453 -1.83057,5.055809 -2.35977,10.485712 -4.99414,14.716797 -1.86335,2.992636 -4.41556,5.720465 -7.42578,7.4375 -1.03477,0.59021 -2.9082,1.84974 -4.64063,2.304687 -1.86689,0.490267 -3.11328,0.482422 -3.11328,0.482422 0,0 1.38965,0.450558 3.32031,0.259766 1.79227,-0.177116 3.82515,-0.858813 5.22656,-1.658203 3.30321,-1.8841 6.0138,-4.803074 7.99219,-7.980469 2.50166,-4.017811 3.223,-8.711096 4.48633,-13 0.18727,0.937176 0.36453,2.003762 0.36719,2.714844 0.004,1.19288 -0.44922,4.24414 -0.44922,4.24414 0,0 0.95397,-2.887026 0.94922,-4.246093 -0.004,-1.050719 -0.32072,-2.653834 -0.56055,-3.716797 0.11025,-0.341189 0.22471,-0.679494 0.3457,-1.013672 0.57783,-1.595881 1.20067,-3.081745 1.89649,-4.400391 0.27312,0.914474 0.6185,2.149264 0.73047,2.94336 0.24542,1.740584 0.31349,3.52269 0.11718,5.259765 -0.16984,1.502864 -1.0664,5.017578 -1.0664,5.017578 0,0 1.47421,-3.286559 1.66211,-4.949218 0.20313,-1.797551 0.13403,-3.628454 -0.11719,-5.410157 -0.14918,-1.057999 -0.64514,-2.72709 -0.91797,-3.599609 0.33848,-0.583355 0.69323,-1.131519 1.07031,-1.628906 0.50989,-0.672575 1.0525,-1.260291 1.64258,-1.75586 0.17571,0.08822 0.36582,0.18557 0.57227,0.296875 0.24425,0.797011 1.14256,3.810244 1.21289,5.298828 0.0949,2.009238 -0.0812,4.057593 -0.57617,6.001954 -0.35701,1.402465 -1.55078,4.265625 -1.55078,4.265625 0,0 1.64046,-2.592031 2.03515,-4.142579 0.50862,-1.998067 0.68884,-4.094055 0.5918,-6.148437 -0.0682,-1.442555 -0.63641,-3.805685 -0.89063,-4.804687 0.70925,0.436285 1.40063,0.943833 1.73828,1.386718 1.41775,1.85959 2.03707,4.387582 2.14063,6.769532 0.044,1.011786 -0.10815,2.644487 -0.47461,3.957031 -0.36647,1.312536 -0.85156,2.652344 -0.85156,2.652343 0,0 0.86128,-1.193032 1.23437,-2.529296 0.37309,-1.336273 0.7422,-2.93729 0.69141,-4.105469 -0.10724,-2.466473 -0.73908,-5.107692 -2.26367,-7.107422 -0.55214,-0.724209 -1.58828,-1.377242 -2.49805,-1.884766 -0.20475,-0.11422 -0.39936,-0.216898 -0.58398,-0.3125 0.82877,-0.591156 1.74839,-1.013879 2.79687,-1.246093 2.14411,-0.47489 5.12019,1.128986 6.43164,3.080078 1.33183,1.981419 0.87778,5.119083 0.32031,7.875 -0.21932,1.084254 -0.60401,2.459581 -1.26757,4.259765 -0.55775,1.512969 -1.96875,3.71875 -1.96875,3.71875 0,0 1.98699,-1.497881 2.82031,-2.951171 0.96908,-1.690052 1.65548,-3.241016 1.98437,-4.708985 0.67505,-3.01299 1.26557,-6.369037 -0.56054,-9.085937 -1.25635,-1.869125 -3.45482,-3.426534 -5.77539,-3.800782 -0.38678,-0.06237 -0.77654,-0.09142 -1.16602,-0.08398 z m -70.92578,0.144531 c 0,0 -1.90808,0.522888 -3.98828,1.722657 -2.0802,1.199765 -4.51004,2.712442 -5.97266,4.041015 -2.99129,2.717144 -5.3385,6.104306 -7.3457,9.566406 -2.00768,3.462937 -4.16992,10.992188 -4.16992,10.992188 0,0 2.95706,-7.307153 4.86132,-10.591797 1.98492,-3.423676 4.2931,-6.740497 7.19336,-9.375 0.41471,-0.376698 0.93577,-0.780959 1.50782,-1.193359 -1.04861,1.315133 -2.65806,3.440013 -3.3711,4.953125 -0.90965,1.930334 -1.25345,4.03423 -1.88476,5.982422 -0.17453,0.538581 -0.36162,1.377979 -0.50196,2.050781 -1.95764,2.829369 -4.60937,8.173828 -4.60937,8.173828 0,0 3.54895,-5.562145 5.45703,-8.162109 1.88823,-2.572914 3.89849,-5.078602 6.23242,-7.216797 1.97577,-1.81008 6.48047,-5.105469 6.48047,-5.105469 0,0 -4.85713,2.667631 -6.95312,4.58789 -2.19209,2.00825 -4.08692,4.318731 -5.85352,6.6875 0.12749,-0.301573 0.24108,-0.591595 0.31836,-0.830078 0.65003,-2.005948 0.99521,-4.082453 1.85742,-5.912109 0.73322,-1.55592 2.34019,-4.123877 3.21094,-5.484375 1.22213,-0.852018 2.65256,-1.72623 3.94336,-2.470703 2.06063,-1.188481 3.58789,-2.416016 3.58789,-2.416016 z m 104.52344,0.02734 c 0,0 -3.69922,4.116729 -5.58008,6.029297 -1.82432,1.855065 -3.73466,3.641303 -5.85938,5.089844 -2.0527,1.39948 -6.62695,3.912109 -6.62695,3.912109 0,0 4.87147,-1.74752 7.07812,-3.251953 2.19312,-1.495169 4.13864,-3.318562 5.97852,-5.189453 1.96903,-2.002219 5.00977,-6.589844 5.00977,-6.589844 z m 8.17773,1.246094 c 0,0 -6.68305,6.972187 -10.31055,9.849609 -2.79728,2.218936 -5.98729,3.97556 -9.24218,5.542969 -3.25435,1.56711 -10.19532,4.388672 -10.19532,4.388672 0,0 7.23816,-1.74397 10.67383,-3.398438 3.291,-1.584753 6.55257,-3.375724 9.44727,-5.671875 3.85117,-3.054904 9.62695,-10.710937 9.62695,-10.710937 z m 24.64648,1.324219 c 0,0 0.65446,2.006005 0.87696,2.914062 0.27132,1.10747 0.50615,2.253776 0.30859,3.300781 -0.087,0.4612 -0.32805,1.395147 -0.66601,1.988281 -0.33796,0.593142 -0.94727,1.882813 -0.94727,1.882813 0,0 1.00083,-1.165704 1.35156,-1.78125 0.35073,-0.615546 0.73411,-1.35599 0.85157,-1.978516 0.22774,-1.206954 -0.0419,-2.434317 -0.31641,-3.554687 -0.26507,-1.081803 -1.45898,-2.771484 -1.45899,-2.771484 z m -96.5996,0.267578 c 0,0 -7.94639,5.470425 -11.89454,8.089843 -3.34503,2.219326 -6.88967,4.161612 -10.42382,6.144532 -2.69901,1.514307 -7.9668,4.929687 -7.9668,4.929687 0,0 5.80913,-2.343443 8.55273,-3.882812 3.52698,-1.978855 7.10025,-3.934523 10.50196,-6.191407 4.05429,-2.689886 11.23047,-9.089843 11.23047,-9.089843 z m 22.08203,0.439453 c 0,0 -3.42181,3.281846 -5.67383,8.751953 -1.12414,2.730513 -1.39657,5.698342 -2.47852,8.314453 -1.31258,3.173782 -2.75227,6.356635 -4.85742,9.015625 -2.80541,3.543496 -8.63086,6.242187 -8.63086,6.242188 0,0 6.12608,-2.112689 9.10156,-5.871094 2.16681,-2.736884 3.62378,-5.970254 4.94141,-9.15625 1.12863,-2.729007 1.40064,-5.698272 2.47852,-8.316406 2.20998,-5.368174 5.11914,-8.980469 5.11914,-8.980469 z m 69.70507,1.880859 c 0,0 -0.75098,1.532173 -1.29296,2.521484 -0.54198,0.989319 -1.30286,1.875163 -1.86133,2.488282 -2.08274,2.286501 -4.73733,4.099159 -7.51758,5.519531 -2.60506,1.330874 -8.53906,3.158203 -8.53906,3.158203 0,0 6.07046,-0.997529 8.90429,-2.445312 2.84193,-1.451884 5.57557,-3.312522 7.74414,-5.69336 0.66465,-0.729666 1.36203,-1.906747 1.91602,-2.917968 0.55399,-1.011228 0.64649,-2.63086 0.64648,-2.63086 z m -29.02343,0.138672 c 0,0 -4.04816,3.788451 -6.02149,5.417969 -2.18096,1.801028 -4.65448,3.281918 -7.20312,4.595703 -2.48158,1.279216 -7.80274,3.847656 -7.80274,3.847656 0,0 5.70422,-1.304534 8.39844,-2.693359 2.59746,-1.338951 5.15234,-2.862645 7.43555,-4.748047 2.21761,-1.831242 5.19336,-6.419922 5.19336,-6.419922 z m 31.92773,5.761719 c 0,0 -3.1755,3.526658 -4.74414,5.058593 -1.93143,1.886253 -4.09404,3.570459 -6.42969,4.900391 -2.15986,1.229888 -7.54492,3.216797 -7.54492,3.216797 0,0 5.67552,-0.886985 8.08985,-2.261719 2.42861,-1.382907 4.66142,-3.124015 6.65234,-5.068359 1.76095,-1.719747 3.97656,-5.845703 3.97656,-5.845703 z m -88.41211,0.03906 c 0,0 -4.79005,4.946908 -7.30859,6.90625 -2.98355,2.321114 -6.46043,4.047195 -9.9961,5.53711 -0.73679,0.310502 -1.95171,0.729927 -3.25585,1.158203 2.44975,-1.286903 6.3162,-3.392502 8.51171,-4.988282 2.67277,-1.942601 7.20118,-6.630859 7.20118,-6.630859 0,0 -4.96436,4.261843 -7.55469,6.144531 -2.36093,1.71597 -6.6181,4.339205 -8.87305,5.708985 -2.67346,0.861997 -5.48633,1.691406 -5.48633,1.691406 0,0 7.33299,-0.886748 9.92383,-1.978516 3.58145,-1.509201 7.15537,-3.276064 10.26758,-5.697265 2.81096,-2.18684 6.57031,-7.851563 6.57031,-7.851563 z m -41.1914,0.771485 c 0,0 -6.96465,2.555453 -10.10547,4.664062 -2.94154,1.974801 -5.64228,4.350634 -7.9961,6.996094 -2.42696,2.727699 -5.79687,9.042969 -5.79687,9.042969 0,0 4.00919,-5.978706 6.32031,-8.576172 2.31542,-2.602304 4.97291,-4.940388 7.86328,-6.88086 2.99295,-2.009313 9.71485,-5.246093 9.71485,-5.246093 z m 123.82421,0.957031 c 0,0 -1.968,1.563992 -3.38671,2.712891 -1.41879,1.148892 -3.17177,2.467505 -4.41211,3.109374 -1.00458,0.519867 -2.71163,1.068156 -4.14844,1.472657 -1.43681,0.404492 -2.90625,0.953125 -2.90625,0.953125 0,0 1.6656,0.226718 3.12305,-0.183594 1.45737,-0.410312 3.17448,-0.951322 4.29882,-1.533203 1.3602,-0.703893 3.11338,-2.032918 4.54883,-3.195313 1.43546,-1.162386 2.88281,-3.335937 2.88281,-3.335937 z m -81.7539,2.677734 c 0,0 -2.94477,5.71066 -4.78711,8.251953 -1.69767,2.341737 -3.70294,4.485626 -5.91406,6.351563 -1.0372,0.875264 -3.39453,2.464844 -3.39453,2.464844 0,0 2.54184,-1.221086 3.65234,-2.158203 2.23551,-1.886479 4.26306,-4.054862 5.98047,-6.423829 1.89968,-2.620386 4.46289,-8.486328 4.46289,-8.486328 z m -56.60742,0.769531 c 0,0 -6.41011,6.047153 -9.02344,9.677735 -2.30354,3.200206 -5.51367,10.257812 -5.51367,10.257812 0,0 3.94863,-6.713981 6.16211,-9.789062 0.11976,-0.166387 0.25293,-0.345925 0.38672,-0.525391 -0.82322,1.488281 -2.9969,5.515425 -3.83008,8.064453 -0.79233,2.424016 -1.43548,4.924129 -1.78125,7.46875 -0.096,0.706535 0.0818,1.775796 0.22656,2.46875 -0.76633,2.090126 -1.43203,4.209141 -1.7168,5.892581 -0.56202,3.32238 -0.39461,6.722 -0.11523,10.02539 0.11932,1.41083 0.46545,3.24751 0.86523,5.06055 -0.0283,0.0152 -0.0818,0.0429 -0.10742,0.0566 -0.56465,-3.61353 -1.74219,-7.90821 -1.74219,-7.90821 0,0 0.70013,7.15717 0.83204,10.59571 0.0476,1.23953 -0.17975,2.53543 -0.35352,3.875 -0.20374,-0.36141 -0.34766,-0.64063 -0.34766,-0.64063 0,0 0.0827,0.63451 0.26953,1.2793 -0.11194,1.02723 -0.16259,2.07779 -0.002,3.15039 0.16146,1.0781 0.62187,2.40768 1.10938,3.63672 -0.0846,-0.0142 -0.17086,-0.0296 -0.25977,-0.0508 -0.45273,-0.108 -0.86133,-0.3711 -0.86133,-0.3711 0,0 0.23672,0.41933 0.69336,0.61133 0.18712,0.0787 0.38838,0.15657 0.59375,0.2207 0.0555,0.13583 0.11103,0.27866 0.16602,0.41016 0.59583,1.42492 3.24218,4.6582 3.24219,4.6582 0,0 -1.47331,-3.53898 -2.08399,-5 1.30681,-0.2691 2.38418,-1.22023 3.41797,-1.90234 1.5695,-1.03559 3.83581,-3.17382 5.05664,-4.36524 0.1216,-0.0378 0.24376,-0.078 0.36328,-0.11132 4.04796,-1.12872 7.7229,-3.12052 11.57813,-4.29883 4.55596,-1.39249 13.91992,-3.99024 13.91992,-3.99024 0,0 -9.58013,1.40794 -14.27149,2.8418 -4.00945,1.22546 -7.67516,3.21089 -11.54882,4.29102 -1.58553,0.4421 -3.18052,1.20072 -4.69922,1.67578 -1.51871,0.47506 -2.90823,0.66036 -4.15039,0.11523 -0.20687,-0.0908 -0.69698,-0.24731 -1.11524,-0.61133 0.13141,-1.7275 0.55588,-3.55673 0.48242,-5.4707 -0.0275,-0.71764 -0.12364,-1.55942 -0.25781,-2.44726 0.0368,-0.0113 0.0843,-0.0272 0.12305,-0.0391 0.77604,3.47719 1.73828,6.80469 1.73828,6.80469 0,0 -0.60182,-3.47336 -1.11523,-7 1.82549,-0.57319 4.74139,-1.53835 6.44531,-2.37305 2.07907,-1.01847 4.12656,-2.11817 6.10742,-3.33007 3.27324,-2.00264 9.04687,-6.9004 9.04687,-6.9004 0,0 -6.50236,3.93465 -9.67382,5.875 -1.94286,1.18869 -3.95608,2.27226 -6.00782,3.27735 -1.80483,0.88413 -4.35954,2.24305 -5.96679,3.10351 -0.25246,-1.75691 -0.47965,-3.50177 -0.58985,-4.80468 -0.27752,-3.28143 -0.43472,-6.60553 0.10547,-9.79883 0.82276,-4.863769 4.40235,-14.501955 4.40235,-14.501955 0,0 -1.48972,3.125505 -2.91016,6.738281 0.042,-0.229071 0.0785,-0.445503 0.10156,-0.615234 0.33521,-2.466863 0.96319,-4.905826 1.74219,-7.289063 0.88786,-2.716273 2.78107,-7.775416 3.13281,-8.71289 2.75135,-3.627446 7.73438,-9.285157 7.73438,-9.285157 z m 144.33008,0.05469 c 0,0 -1.20139,1.643974 -2.43555,3.136719 -0.74056,0.895713 -1.60723,1.797087 -2.41992,2.582031 -1.12213,0.630232 -3.36642,1.854557 -4.69727,2.330078 -1.81877,0.649861 -5.8125,1.697266 -5.8125,1.697266 0,0 4.07615,-0.226633 6.08203,-0.94336 0.49786,-0.177882 1.0878,-0.439098 1.69336,-0.730468 -0.85468,0.636894 -1.87855,1.334208 -2.92969,1.976562 -1.46902,0.897779 -3.41211,1.957031 -3.41211,1.957031 0,0 2.38523,-0.194417 3.92774,-1.037109 1.54251,-0.842692 3.34101,-1.897397 4.47851,-2.875 1.27305,-1.094002 2.75809,-2.923573 3.95899,-4.5 1.2009,-1.576427 1.5664,-3.59375 1.56641,-3.59375 z m -92.56836,0.275391 c 0,0 -4.3313,5.234132 -6.6543,7.419921 -2.6512,2.494615 -5.65353,4.679822 -8.89844,6.294922 -2.49331,1.241019 -6.30723,2.563345 -9.52734,3.611328 2.68822,-2.184386 6.02734,-4.769531 6.02734,-4.769531 0,0 -4.93216,3.068452 -7.7832,5.326172 -1.16651,0.363608 -3.00781,0.951172 -3.00781,0.951172 0,0 1.04597,-0.201331 2.4414,-0.490234 -0.0442,0.03719 -0.0942,0.07677 -0.13672,0.113281 -2.28836,1.96309 -4.30412,4.196173 -6.4082,6.296875 -2.6155,2.611296 -4.82325,5.599513 -7.67383,7.789063 -2.1014,1.6141 -6.94726,4.35352 -6.94726,4.35352 0,0 5.11948,-2.06784 7.37304,-3.79883 2.95494,-2.26971 5.17918,-5.288737 7.74414,-7.849612 2.1212,-2.117785 4.12391,-4.335375 6.36719,-6.259766 0.33966,-0.291375 0.73314,-0.621316 1.1543,-0.96875 2.46911,-0.542861 5.52054,-1.292009 8.21484,-2.244141 -1.81504,1.177548 -4.05785,2.712775 -5.39453,3.9375 -1.92794,1.766462 -3.20661,4.080752 -5.0625,5.72461 -1.44715,1.281815 -4.75781,3.638672 -4.75781,3.638671 0,0 3.60008,-1.811073 5.15625,-3.189453 1.95986,-1.735951 3.23991,-4.053379 5.07031,-5.730468 1.50101,-1.375302 4.06431,-3.343141 5.86523,-4.697266 0.63817,-0.246167 1.24988,-0.498196 1.7754,-0.759766 0.49063,-0.244209 0.96264,-0.5249 1.4414,-0.792968 -1.41329,1.706236 -3.81428,4.535236 -5.4082,6.03125 -3.25794,3.05781 -10.48438,8.699218 -10.48438,8.699218 0,0 7.71839,-4.869424 11.09961,-8.042968 2.34739,-2.203191 6.8063,-7.613919 7.32227,-8.242188 1.84056,-1.239115 3.58652,-2.620721 5.1914,-4.130859 2.54557,-2.395217 5.9004,-8.220703 5.9004,-8.220703 z m -31.88282,1.984375 c 0,0 -1.67551,0.782597 -2.30078,1.078125 -0.62527,0.295525 -1.22868,0.370734 -1.9043,0.451171 -0.96418,0.1148 -1.9859,0.11187 -3.05664,0.02734 -1.0707,-0.08452 -2.17766,-0.152224 -3.2539,0.203125 -4.03467,1.332158 -7.26109,4.383687 -10.36524,7.117188 -3.20389,2.821358 -8.13671,9.623047 -8.13672,9.623047 0,0 5.52072,-6.386367 8.59961,-9.097657 3.11653,-2.744402 6.28489,-5.711889 10.1211,-6.978515 0.91198,-0.301117 1.92033,-0.251655 2.98047,-0.167969 1.06014,0.08369 2.16796,0.202035 3.26367,-0.04297 0.60848,-0.136058 1.3797,-0.473087 2.02344,-0.777344 0.64373,-0.304253 2.02929,-1.435546 2.02929,-1.435546 z m -12.93945,1.099609 c 0,0 -5.87438,4.00011 -8.40039,6.583984 -3.49928,3.579444 -9.00195,11.808594 -9.00195,11.808594 0,0 6.09972,-7.838197 9.50195,-11.318359 2.42896,-2.4846 7.90039,-7.074219 7.90039,-7.074219 z m 11.7832,4.845703 c 0,0 -7.35658,2.862846 -10.77929,4.945313 -3.15895,1.921967 -6.20351,4.08199 -8.97852,6.541015 -3.36196,2.979155 -8.76562,9.990235 -8.76562,9.990235 0,0 6.04723,-6.514684 9.29492,-9.392579 2.73158,-2.420571 5.73865,-4.552784 8.86523,-6.455078 3.30951,-2.013568 10.36328,-5.628906 10.36328,-5.628906 z m 11.23438,2.863281 c 0,0 -7.79058,1.279701 -11.48242,2.873047 -5.94739,2.566793 -11.165,6.502229 -16.56836,9.9375 -4.12242,2.620882 -11.92774,8.447264 -11.92774,8.447264 0,0 8.2109,-5.254024 12.30274,-7.855467 5.43508,-3.455441 10.62599,-7.364229 16.4707,-9.886719 3.52144,-1.519789 11.20508,-3.515625 11.20508,-3.515625 z m -8.58985,4.736329 c 0,0 -4.63354,3.382674 -6.76757,5.320312 -3.25277,2.953372 -6.13443,6.259814 -9.45703,9.019531 -2.95186,2.451779 -9.2168,7.136719 -9.2168,7.136719 0,0 6.69047,-3.99978 9.72656,-6.52148 3.38877,-2.814671 6.27791,-6.131639 9.48438,-9.042973 2.10514,-1.911402 6.23046,-5.912109 6.23046,-5.912109 z m 16.08008,1.542968 c 0,0 -5.27072,6.795343 -8.14648,9.820313 -3.42663,3.604431 -7.47805,6.615281 -11.41016,9.761721 -3.51962,2.81637 -10.62109,8.5 -10.62109,8.5 0,0 7.61764,-4.9434 11.18359,-7.79688 3.91501,-3.13272 8.00205,-6.16427 11.5,-9.843748 3.00309,-3.158899 7.49414,-10.441406 7.49414,-10.441406 z m 0.54883,4.185547 c 0,0 -2.26712,3.741996 -3.47851,5.308594 -2.14534,2.774343 -4.93879,5.060923 -7.73633,7.294923 -2.35426,1.87999 -7.39649,5.56641 -7.39649,5.5664 0,0 5.53642,-2.80224 8.01953,-4.78515 2.80329,-2.23856 5.66513,-4.567208 7.9043,-7.462892 1.40168,-1.812634 2.6875,-5.921875 2.6875,-5.921875 z m -30.17578,3.632813 c 0,0 -6.66897,2.461487 -9.76172,4.326172 -3.92262,2.365032 -10.72266,8.337892 -10.72266,8.337892 0,0 7.27248,-5.44024 11.08399,-7.738283 2.98164,-1.797692 9.40039,-4.925781 9.40039,-4.925781 z m 32.70898,0.330078 c 0,0 -1.31494,1.058013 -2.51757,2.65625 -1.20266,1.598234 -2.72047,3.461156 -3.86719,4.455076 -3.26003,2.82565 -7.60761,4.30804 -11.40039,6.78711 -2.69431,1.76107 -5.01322,3.96193 -7.6836,5.49219 -4.20502,2.40971 -13.29687,6.49219 -13.29687,6.49219 0,0 9.41686,-3.11617 13.79492,-5.625 2.80956,-1.61002 5.13997,-3.82698 7.73242,-5.52149 3.64841,-2.38468 8.05028,-3.87228 11.50781,-6.86914 1.27945,-1.10896 2.79229,-2.988848 4.01172,-4.609374 1.21944,-1.620523 1.71875,-3.257812 1.71875,-3.257812 z m 2.0918,2.751953 c 0,0 -3.33575,3.040693 -4.99219,4.431643 -2.61868,2.19899 -5.51623,4.07764 -8.43554,5.91406 -3.45815,2.17535 -10.58008,6.39648 -10.58008,6.39648 0,0 7.47991,-3.50074 11.00586,-5.71875 2.92547,-1.84026 5.85416,-3.73903 8.52344,-5.98046 1.76276,-1.48025 4.47851,-5.042973 4.47851,-5.042973 z m -23.23633,1.212891 c 0,0 -6.85241,5.498752 -10.20898,8.193362 -4.43923,3.56368 -13.58203,10.64062 -13.58203,10.64062 0,0 9.85496,-5.98269 14.39453,-9.62695 3.45692,-2.77517 9.39648,-9.207033 9.39648,-9.207032 z m -6.60937,0.771484 c 0,0 -3.96588,1.618358 -5.82227,2.740238 -3.05491,1.84615 -5.74312,4.18766 -8.79297,5.82812 -2.74584,1.47696 -8.62304,4.0957 -8.62304,4.0957 0,0 6.12715,-1.84432 9.00195,-3.39062 3.15524,-1.69715 5.85095,-4.04963 8.82617,-5.84766 1.79957,-1.08753 5.41016,-3.425778 5.41016,-3.425778 z m 28.85547,2.751958 c 0,0 -3.68681,3.24496 -5.51368,4.80078 -1.7139,1.45961 -3.44785,2.89919 -5.3496,4.04101 -2.85131,1.71193 -9.07032,4.59571 -9.07032,4.59571 0,0 6.45331,-2.20789 9.43164,-3.9961 1.96321,-1.17871 3.72323,-2.64415 5.44141,-4.10742 1.88937,-1.60906 5.06055,-5.33398 5.06055,-5.33398 z m 2.42382,1.65234 c 0,0 -4.35449,5.23502 -6.70117,7.49609 -2.41077,2.32283 -5.28614,4.17233 -8.09375,6.1211 -2.22021,1.54102 -6.68359,4.77539 -6.68359,4.77539 0,0 4.91639,-2.45198 7.19726,-4.03516 2.78975,-1.93637 5.70928,-3.80813 8.20508,-6.21289 2.50058,-2.40936 6.07617,-8.14453 6.07617,-8.14453 z M 225,104.625 c 0,0 -6.56306,4.65957 -9.86133,6.91211 -3.58243,2.44663 -7.17722,4.88287 -10.98437,6.91992 -2.97629,1.59248 -9.22071,4.45117 -9.22071,4.45117 0,0 6.45268,-2.28929 9.50391,-3.92187 3.84415,-2.05683 7.45746,-4.50771 11.04102,-6.95508 C 218.81341,109.75367 225,104.625 225,104.625 Z m 23.23633,2.64258 c 0,0 -4.24295,5.66504 -6.53711,8.24804 -2.2696,2.55537 -7.33789,7.39258 -7.33789,7.39258 0,0 5.50909,-4.27931 7.86133,-6.92773 2.37676,-2.67607 6.01367,-8.71289 6.01367,-8.71289 z m -2.64258,0.55078 c 0,0 -4.96884,4.99646 -7.10742,7.09375 -2.88075,2.82513 -5.68962,5.72906 -8.88086,8.11523 -2.91992,2.18332 -6.19949,3.8927 -9.42578,5.69922 -3.18574,1.7838 -9.60742,5.41406 -9.60742,5.41406 0,0 6.76572,-2.90689 9.99804,-4.71679 3.21187,-1.79843 6.52611,-3.5205 9.51563,-5.75586 3.25996,-2.43762 6.0905,-5.3686 8.96094,-8.18359 2.19963,-2.15719 6.54687,-7.66602 6.54687,-7.66602 z m 2.20313,2.64453 c 0,0 -6.92594,9.0818 -9.16211,14.45508 -1.17779,2.83004 -2.08292,5.76766 -2.80274,8.75 -1.29901,1.13624 -2.97998,2.68499 -3.91015,3.86719 -1.81839,2.31099 -2.85392,5.09435 -4.57227,7.32617 -1.26608,1.64439 -2.66504,3.20256 -4.24805,4.52344 -0.80047,0.66789 -2.61719,2.04687 -2.61718,2.04687 0,0 2.08826,-0.82516 3,-1.58594 1.62745,-1.35798 3.05701,-2.95045 4.34179,-4.61914 1.79271,-2.32839 2.8279,-5.10832 4.56836,-7.32031 0.81842,-1.04014 2.18733,-2.54027 3.32617,-3.75781 -0.38677,1.65128 -0.70379,3.3161 -0.99218,4.98242 -0.80208,0.51546 -2.69901,1.79637 -3.54883,2.91797 -1.27944,1.6886 -1.64644,3.79976 -2.75586,5.28906 -0.96294,1.29265 -3.42383,3.87305 -3.42383,3.87305 0,0 2.94917,-1.89738 4.06445,-3.39453 1.26438,-1.6973 1.63168,-3.80467 2.75196,-5.28321 0.68029,-0.89784 2.15038,-2.44818 2.88086,-3.20703 -0.1335,0.78087 -0.27582,1.56091 -0.39063,2.3418 -0.23227,1.57984 -0.20665,3.18161 -0.10937,4.7793 -0.15374,0.23421 -2.01697,3.06522 -3.07618,4.31835 -0.76778,0.90836 -1.67475,1.71892 -2.67382,2.35352 -1.46269,0.92908 -4.87891,2.49609 -4.87891,2.49609 0,0 3.60789,-0.86072 5.25391,-1.90625 1.0648,-0.67634 2.02144,-1.53318 2.83203,-2.49218 1.16832,-1.38224 2.40864,-4.38877 2.54687,-4.72852 0.0801,1.29665 0.2019,2.59156 0.29688,3.86328 0.0863,1.15496 0.11837,2.28143 0.084,3.38672 -0.56593,0.55722 -2.03061,2.00664 -2.90234,2.96484 -1.40037,1.53929 -2.60942,3.24501 -4.23438,4.35157 -0.76524,0.5211 -2.13429,1.10285 -3.29492,1.53711 -1.16063,0.43425 -2.01367,1.06445 -2.01367,1.06445 0,0 1.07652,0.0338 2.25781,-0.4082 1.18129,-0.44199 2.56501,-1.01577 3.44531,-1.61524 1.76536,-1.20216 2.99755,-2.96421 4.35743,-4.45898 0.755,-0.82991 1.7984,-2.3396 2.38085,-3.20508 -0.066,1.54177 -0.29771,3.03083 -0.89648,4.42383 -0.73244,1.70395 -2.49886,2.94375 -4.14062,4.20703 -1.19044,0.91598 -3.99024,2.81836 -3.99024,2.81836 0,0 3.18449,-0.93653 4.59961,-2.02539 1.609,-1.23804 3.56184,-2.54107 4.44922,-4.60547 1.16379,-2.70745 1.11244,-5.61815 0.89648,-8.50977 -0.21595,-2.89158 -0.59403,-5.77932 -0.19921,-8.46484 0.45131,-3.06987 1.03651,-6.13705 1.82031,-9.14062 0.26273,-0.2739 0.49219,-0.51368 0.49219,-0.51368 0,0 -0.24592,0.20531 -0.45704,0.38086 0.64965,-2.46868 1.43168,-4.89456 2.40625,-7.23633 2.12775,-5.11263 8.23829,-14.83984 8.23829,-14.83984 z m -35.90235,0.43945 c 0,0 -4.61349,3.51783 -7.04297,5.00586 -2.53909,1.55518 -5.21534,2.91886 -8.0039,3.94727 -2.34154,0.86355 -7.31055,2.06055 -7.31055,2.06055 0,0 5.02914,-0.79109 7.44922,-1.6836 2.81834,-1.03938 5.51718,-2.41626 8.07422,-3.98242 2.49173,-1.52617 6.83398,-5.34766 6.83398,-5.34766 z m 22.35742,2.53321 c 0,0 -5.39991,3.41504 -8.01953,5.21875 -1.90358,1.31068 -3.73929,2.69435 -5.70312,3.83984 -2.72647,1.59031 -8.41407,4.59961 -8.41407,4.59961 0,0 5.96135,-2.35845 8.76563,-3.99414 2.01149,-1.17327 3.86302,-2.56989 5.75,-3.86914 2.6318,-1.81209 7.62109,-5.79492 7.62109,-5.79492 z m -7.49023,3.19336 c 0,0 -3.55059,2.28951 -5.26367,3.45703 -2.37666,1.61977 -7.18164,4.91406 -7.18164,4.91406 0,0 5.15523,-2.68599 7.57617,-4.33594 1.75737,-1.1977 4.86914,-4.03515 4.86914,-4.03515 z m 12.99609,2.7539 c 0,0 -7.60211,6.78617 -11.54101,9.84766 -2.69708,2.09628 -5.76558,3.7465 -8.67188,5.70703 -2.52508,1.70336 -7.21094,5.58984 -7.21094,5.58984 0,0 5.26322,-3.06906 7.76954,-4.75976 2.85036,-1.92281 5.94286,-3.58293 8.72851,-5.74805 4.06288,-3.15782 10.92578,-10.63672 10.92578,-10.63672 z m -20.59375,0.10938 c 0,0 -6.3495,3.23247 -9.59179,4.4082 -1.87444,0.67971 -7.58985,1.87109 -7.58985,1.87109 0,0 5.80166,-0.47804 7.82813,-1.21289 3.39432,-1.23086 9.52831,-4.76269 9.35351,-5.0664 z m 11.89258,0.33203 c 0,0 -3.91669,1.47567 -5.72266,2.63672 -3.07875,1.97933 -5.56252,4.69062 -8.57812,6.49023 -2.73212,1.63044 -8.7168,4.41992 -8.7168,4.41992 0,0 6.24462,-2.01234 9.12696,-3.73242 3.15052,-1.88015 5.64021,-4.60011 8.60156,-6.5039 1.70347,-1.09516 5.28906,-3.31055 5.28906,-3.31055 z m 0.77148,3.08398 c 0,0 -4.11125,3.57005 -6.14453,5.33399 -1.71608,1.48878 -3.53202,2.87236 -5.33007,4.28711 -2.52543,1.987 -7.46875,6.12695 -7.46875,6.12695 0,0 5.30441,-3.66135 7.83984,-5.65625 1.79302,-1.41077 3.61808,-2.79911 5.35351,-4.30469 2.06711,-1.79328 5.75,-5.78711 5.75,-5.78711 z m -34.73828,3.42188 c -1.35916,1.10865 -3.61749,2.91429 -5.04687,3.85742 -1.10303,0.7278 -2.16435,1.6351 -3.33399,1.84766 -0.53649,-1.31781 -1.07221,-2.82886 -1.2207,-3.82032 -0.0404,-0.2695 -0.0621,-0.54295 -0.0723,-0.81836 0.17836,0.18265 0.39049,0.34308 0.66796,0.46485 1.63235,0.71635 3.35798,0.44226 4.99024,-0.0684 1.39109,-0.43514 2.75295,-1.04365 4.01562,-1.46289 z m 36.72071,0.70703 c 0,0 -5.31279,4.9282 -8.08789,7.18555 -2.08977,1.69983 -4.45273,3.50706 -6.56836,4.65429 -2.36909,1.28466 -4.89258,1.04493 -4.89258,1.04493 0,0 2.58741,0.7737 5.13086,-0.60547 2.17161,-1.17757 4.54831,-3.00036 6.64648,-4.70703 2.82674,-2.29932 7.77149,-7.57227 7.77149,-7.57227 z m -1.43164,3.19336 c 0,0 -3.90658,4.65628 -6.0918,6.60547 -1.91787,1.71071 -3.94711,3.40902 -6.29297,4.29297 -1.37786,0.5192 -2.79626,0.83483 -4.25976,0.63867 -0.27402,-0.0367 -0.73677,-0.21495 -1.23438,-0.54297 -0.39671,-0.2615 -0.73437,-0.64063 -0.73438,-0.64063 0,0 0.0932,0.48924 0.46094,0.8418 0.42636,0.4087 0.84615,0.73335 1.33594,0.82422 1.76624,0.32769 3.21674,-0.0233 4.64258,-0.56055 2.47542,-0.93277 4.55346,-2.68739 6.48047,-4.40625 2.30171,-2.05309 5.69336,-7.05273 5.69336,-7.05273 z m 3.19336,1.04687 c 0,0 -3.32656,3.62258 -4.97657,5.26172 -1.58322,1.57279 -3.35998,2.97178 -5.21679,4.23828 -2.58175,1.76098 -5.63583,2.90801 -8.36524,4.73243 -2.19249,1.46551 -5.77929,5.15039 -5.77929,5.15039 0,0 4.26497,-2.93734 6.33398,-4.32032 2.60072,-1.73839 5.66026,-2.88659 8.375,-4.73828 1.89449,-1.2922 3.71721,-2.72605 5.35547,-4.35351 1.79134,-1.77955 4.27344,-5.97071 4.27344,-5.97071 z m -5.94532,8.58985 c 0,0 -3.54305,2.51405 -5.33398,3.59961 -1.96891,1.19344 -4.34545,1.77443 -6.39258,3.08593 -1.6634,1.06568 -4.24414,3.88868 -4.24414,3.88868 0,0 3.02399,-2.39465 4.56641,-3.38282 1.93451,-1.23936 4.30789,-1.82239 6.38281,-3.08007 1.88844,-1.14467 5.02148,-4.11133 5.02148,-4.11133 z m 4.51367,10.68359 c 0,0 -0.67561,0.5275 -1.24023,1.34766 -0.56461,0.82016 -1.28232,1.77843 -1.82812,2.28711 -1.0812,1.00764 -2.64673,1.50986 -3.94336,2.51562 -1.23354,0.95682 -3.11914,3.32031 -3.11914,3.32031 0,0 2.33914,-1.95586 3.48632,-2.8457 1.18174,-0.91663 2.77297,-1.41996 3.98633,-2.55078 0.62511,-0.58259 1.33774,-1.55238 1.91211,-2.38672 0.57437,-0.83433 0.74609,-1.6875 0.74609,-1.6875 z" /></g></svg>
