<?xml version="1.0" encoding="UTF-8" standalone="no"?>
<!-- Created with Inkscape (http://www.inkscape.org/) -->

<svg
   width="400"
   height="400"
   viewBox="0 0 400 400"
   version="1.1"
   id="svg26782"
   xml:space="preserve"
   inkscape:version="1.2.2 (b0a8486, 2022-12-01)"
   sodipodi:docname="VeryShortAfro.svg"
   xmlns:inkscape="http://www.inkscape.org/namespaces/inkscape"
   xmlns:sodipodi="http://sodipodi.sourceforge.net/DTD/sodipodi-0.dtd"
   xmlns="http://www.w3.org/2000/svg"
   xmlns:svg="http://www.w3.org/2000/svg"><sodipodi:namedview
     id="namedview26784"
     pagecolor="#ffffff"
     bordercolor="#666666"
     borderopacity="1.0"
     inkscape:showpageshadow="2"
     inkscape:pageopacity="0.0"
     inkscape:pagecheckerboard="0"
     inkscape:deskcolor="#d1d1d1"
     inkscape:document-units="px"
     showgrid="false"
     inkscape:zoom="1.5925"
     inkscape:cx="200"
     inkscape:cy="200"
     inkscape:window-width="1440"
     inkscape:window-height="963"
     inkscape:window-x="2355"
     inkscape:window-y="184"
     inkscape:window-maximized="0"
     inkscape:current-layer="svg26782" /><defs
     id="defs26779" /><g
     inkscape:label="Layer 1"
     inkscape:groupmode="layer"
     id="layer1"><path
       style="fill:#383838;stroke:none;stroke-width:1px;stroke-linecap:butt;stroke-linejoin:miter;stroke-opacity:1;fill-opacity:0.60000002;opacity:1"
       d="m 193.67535,96.837675 1.19849,28.044575 c 0,0 2.94745,-1.11162 5.03364,-1.43818 2.08619,-0.32656 5.18159,-1.00187 7.43061,-0.2397 2.24902,0.76217 2.538,0.55165 5.27334,4.31455 2.73534,3.7629 7.67031,19.65517 7.67031,19.65517 0,0 0.19608,-10.52046 0.95879,-14.86122 0.76271,-4.34077 1.57681,-8.47846 4.55425,-12.94366 2.97744,-4.4652 8.28078,-9.02208 13.66274,-12.70395 5.38196,-3.68187 16.7788,-9.348191 16.7788,-9.348191 0,0 -2.92639,-5.266047 -4.07485,-8.868797 -1.14846,-3.60275 -2.39697,-12.703952 -2.39697,-12.703952 0,0 -10.86441,3.720024 -17.2582,5.99243 -6.39379,2.272406 -14.62435,5.140809 -21.09336,7.670311 -6.46901,2.529502 -17.73759,7.430614 -17.73759,7.430614 z"
       id="path27312"
       sodipodi:nodetypes="cczzzczzzczczzc" /><path
       style="fill:#383838;stroke:none;stroke-width:1px;stroke-linecap:butt;stroke-linejoin:miter;stroke-opacity:1;fill-opacity:1"
       d="m 193.98055,97.147725 c 0,0 11.81236,-5.737304 22.29064,-9.690098 10.47828,-3.952794 27.31586,-9.546616 39.32203,-12.881356 12.00617,-3.33474 22.26734,-5.870178 32.06298,-6.978233 9.79564,-1.108055 18.95645,-1.095528 26.24211,0 7.28566,1.095528 12.84433,2.277427 17.62711,4.944335 4.78278,2.666908 10.84746,9.491525 10.84746,9.491525 0,0 -0.94326,-11.376059 -5.70455,-19.339069 -4.76129,-7.963009 -15.74984,-16.632468 -25.52301,-22.372881 -9.77318,-5.740412 -19.27179,-10.057005 -30.90562,-11.765121 -11.63384,-1.708116 -25.34776,-1.72024 -37.32926,2.273595 -11.98151,3.993836 -23.78939,10.806121 -32.06298,20.017036 -8.27359,9.210915 -14.83388,22.365844 -16.27119,31.18644 -1.43731,8.820596 -0.59572,15.113827 -0.59572,15.113827 z"
       id="path27308"
       sodipodi:nodetypes="czzzzzczzzzzzc" /><path
       id="path31398"
       style="fill:#000000;fill-opacity:0.2;stroke:none;stroke-width:1px;stroke-linecap:butt;stroke-linejoin:miter;stroke-opacity:1"
       d="m 264.91992,27.5 c -7.42262,0.05921 -15.00953,0.996665 -22.00976,3.330078 -11.9815,3.993832 -23.78892,10.806672 -32.0625,20.017578 -8.27359,9.210906 -14.83418,22.36496 -16.27149,31.185547 -1.43731,8.820587 -0.5957,15.115234 -0.5957,15.115235 0,0 11.81274,-5.738617 22.29101,-9.691407 8.12927,-3.066659 14.38142,-5.678721 24.94031,-8.899627 l 0.84996,-0.05494 C 241.89876,60.179418 253.18436,40.189214 264.91992,27.5 Z"
       sodipodi:nodetypes="cssscsccc" /><path
       id="path28092"
       style="opacity:1;fill:#000000;fill-opacity:1;stroke-width:2.4;stroke-miterlimit:40"
       d="m 258.4668,25.324219 c -0.055,0.0015 -0.11115,0.0072 -0.16797,0.01563 -0.96182,0.214389 -1.40529,1.502803 -2.51367,1.226562 -0.94742,0.721394 -1.81341,-1.100022 -2.9961,-0.453125 -1.14265,-0.006 -1.43965,1.667835 -2.4707,0.710938 -1.03752,-0.530434 -2.10567,0.361273 -2.63281,0.822265 -1.33418,-0.664563 -2.50991,0.609184 -3.42578,0.917969 -1.52989,-0.2947 -1.89384,1.710262 -3.23243,1.658203 -0.82558,1.342286 -2.04641,-0.517783 -3.18945,0.201172 -0.8685,-0.165393 -1.05119,1.620868 -1.91992,0.50586 -1.45101,-0.675827 -3.7455,0.861584 -2.88867,2.251953 -2.04118,0.770441 -3.54063,2.35231 -5.90625,2.822265 -1.64774,0.643375 -3.43616,0.745483 -3.94336,2.804688 -1.24439,1.365921 -4.26996,0.13043 -4.4336,2.923828 -2.52265,-0.390293 -2.67002,2.247683 -4.74414,2.833984 -0.76697,2.551623 -4.2831,2.760901 -4.70703,5.46875 -1.87534,1.350813 -3.05196,3.633243 -5.08008,4.845703 -0.84062,1.573498 -0.31303,3.986928 -2.71875,4.335938 -1.29331,1.381363 -0.36089,2.96323 -2.32226,3.708984 -0.0947,1.890405 -1.86562,3.130902 -1.83789,5.060547 -1.04822,1.225146 -0.0335,2.7302 -1.87305,3.302734 -0.68949,2.632395 -1.15803,5.257977 -2.06055,8.064454 -1.71014,1.349495 0.0866,3.066713 -0.18945,4.667968 -1.53738,1.015097 -1.16203,3.430018 -0.90625,4.578125 -1.36195,1.784765 0.29173,3.230383 -0.54883,5.138672 0.35246,0.736483 0.35487,2.27236 0.75391,3.257813 -0.54509,0.745384 -0.53652,1.921218 -0.13867,2.742187 0.40483,0.558169 0.57862,0.826219 -0.0371,1.285159 -0.65674,1.00397 -0.70106,2.78656 0.55664,3.33789 1.0301,0.0828 -0.18039,1.43399 -0.11719,2.1289 -0.3205,1.2639 -0.48427,2.80268 0.45313,3.85547 0.41714,0.10382 -0.42041,1.26294 -0.11133,1.77735 0.0289,0.99797 1.07175,1.65756 0.19726,2.50976 -0.40322,0.8741 -0.52574,2.04687 0.19336,2.79688 -0.99265,0.87995 -0.17939,2.43549 0.56446,2.83984 -0.5258,1.29135 -0.76618,2.9853 0.16406,4.15039 0.78104,1.05454 1.7317,-0.16893 1.85351,-1.03906 0.21375,-1.04584 0.0925,-2.18315 -0.33007,-3.1543 -0.88698,-0.70104 0.61169,-1.66643 -0.26368,-2.55859 -0.79066,-0.64292 0.86979,-1.28455 0.82422,-2.19336 0.46176,-0.88719 -0.18229,-1.83427 -0.23047,-2.58789 0.31372,-1.12204 0.14254,-2.65542 -0.96679,-3.27734 -0.34561,-0.2726 -1.24349,0.15421 -0.67578,-0.48633 1.00521,-1.99939 0.94366,-4.33778 0.55859,-6.48828 0.46085,-0.87641 -0.69983,-1.79087 -0.15234,-2.40039 0.50087,-0.842776 0.52667,-2.064143 0.0195,-2.925786 0.0144,-0.01703 0.0311,-1.111795 0.0449,-1.128906 2.08619,1.018252 3.55672,-1.292322 5.46875,-1.527344 2.02034,-0.251399 0.35347,-1.934196 2.34766,-0.851563 1.5108,0.04923 3.15268,-1.413565 4.46289,-1.992187 1.56226,0.113069 2.59186,-0.150471 4.15234,-0.369141 0.0175,-0.0024 0.0352,-0.007 0.0527,-0.0098 0.0528,-0.0066 0.1025,-0.01503 0.15039,-0.02539 0.003,-5.65e-4 -0.23467,-0.960121 0.008,-0.002 0.005,0.0207 0.15973,-1.56891 0.17968,-1.574219 1.15289,-0.279852 2.14546,0.258309 2.01563,-0.6875 2.76805,0.08884 5.53177,-1.754237 7.67187,-3.105469 1.18936,0.839736 2.25859,0.05373 2.59375,-1.197265 1.28519,-0.0234 1.4746,-0.437905 1.49805,-0.427735 2.02811,1.403016 2.80902,-1.403426 4.81836,-1.259765 2.20391,-0.756006 2.50384,-0.871339 3.97461,-2.080079 2.73844,0.330692 4.4347,-0.830473 6.67578,-1.992187 1.04235,0.877433 2.81104,0.616185 3.29883,-0.121094 1.06189,0.302044 2.43397,-0.988718 2.95855,-1.864175 2.94404,1.336486 2.64959,-1.984724 4.27387,-0.967856 3.97433,0.42446 7.06346,-1.875089 10.71094,-1.941406 0.48424,-1.49455 2.46335,0.597556 2.77734,-1.439453 2.20368,1.21242 6.12704,0.63133 7.49414,-1.669922 0.0297,-1.742778 4.88819,0.922305 6.21485,-1.373047 2.15241,-0.814356 4.81289,0.09001 6.43359,-1.759766 1.78242,-0.04605 6.27653,1.410431 6.46094,-1.580078 3.96778,2.188985 8.31331,0.669924 12.24805,1.265625 1.21235,-1.93066 2.62331,2.88183 4.77734,0.994141 2.25214,2.321941 3.78623,-1.921994 4.92578,-0.38086 4.56611,2.602786 10.84449,-0.196949 13.75195,4.533204 1.72321,0.137439 3.53026,3.619745 5.12305,1.251953 2.03672,3.66009 5.68578,5.477526 8.7832,7.609375 -0.0309,1.893506 2.78422,2.650903 3.24219,0.435546 0.86202,-1.806787 -1.07952,-2.714434 -1.02734,-4.27539 -0.92326,-1.116999 -0.26182,-2.584818 -1.1211,-3.736328 -0.40282,-0.965348 0.38822,-2.348477 -0.86133,-2.949219 -1.07214,-0.558636 -1.9766,-1.790731 -1.42382,-2.96875 0.38094,-1.506854 -1.52825,-2.280643 -1.79297,-3.033203 0.63759,-1.47725 0.34953,-3.88786 -1.59766,-4.125 -0.18374,-1.387482 -1.85117,-1.943255 -2.03125,-3.376953 -0.94465,-0.689726 -1.26948,-1.705295 -1.68945,-2.685547 -0.76215,-0.93353 -2.18875,-0.653883 -2.92578,-1.640625 -0.50945,-1.048427 -0.90054,-3.34051 -2.84571,-3.173828 -0.54087,-0.52458 -1.0157,-2.915226 -2.66796,-2.261719 -0.25243,-1.901712 -2.46852,-1.640404 -3.2461,-2.761719 -0.39976,-0.340872 -0.91514,-0.544509 -1.43945,-0.570312 -0.17636,-0.0035 -0.32879,0.01782 -0.4707,0.05078 -8.2e-4,-0.05326 0.007,-0.09962 0.002,-0.15625 0.10335,-2.456471 -2.53716,-2.30053 -3.65625,-3.505859 -1.60161,-1.008433 -3.26249,-2.110847 -4.50586,-3.539063 -1.11801,-0.681827 -2.41889,-0.0855 -3.58594,-0.705078 -0.43925,-1.553766 -2.54346,-2.531208 -3.88476,-2.150391 -0.44515,-1.597316 -2.33108,-1.341098 -3.1836,-1.542968 -1.13722,-1.455934 -3.81801,-0.585924 -4.26758,-0.919922 -0.46862,0.264089 -1.31236,-2.792679 -4.10351,-2.240235 -1.79233,-1.193559 -3.87775,-2.138321 -6.0293,-2.552734 -1.30891,-0.851196 -2.50447,0.618209 -3.83008,0.162109 -1.06023,-0.484428 -2.68226,-2.221337 -4.1914,-0.917968 -0.74576,-0.111604 -2.52684,-1.773192 -3.48828,-0.279297 -0.54146,-0.427222 -1.23562,-0.663774 -1.92578,-0.644532 -0.97992,0.656161 -2.62856,0.101794 -3.66602,0.587891 -0.25696,-0.228514 -0.56087,-0.399084 -0.89844,-0.464844 -1.31482,-0.678821 -2.21444,0.736861 -3.40625,0.119141 -1.3542,0.572025 -2.56171,-0.420665 -3.91406,-0.03906 -0.86096,0.234435 -1.49515,-0.471585 -2.32031,-0.449219 z m 7.89648,3.185547 c 0.6832,-0.01922 1.28127,1.137413 2.20117,0.580078 0.22894,-0.04031 0.41608,-0.111643 0.57617,-0.201172 0.94196,0.620181 2.31021,0.68883 3.13672,-0.113281 1.51687,0.825562 2.70095,-0.844543 3.85352,0.603515 1.44759,0.698976 2.17889,-1.112007 3.44922,0.09766 1.83222,-0.55905 2.89592,2.272547 4.96289,1.087891 1.87663,2.057116 4.80859,1.404297 4.80859,1.404297 0.20903,0.308954 2.25601,1.606792 3.71875,1.240234 1.72326,-0.05507 2.02512,2.437394 3.99414,2.101563 1.11035,-0.323952 2.50991,0.813911 3.51172,0.515625 0.45866,1.527572 2.36158,1.418248 3.18164,1.363281 1.10201,1.100156 2.51976,0.820252 3.05274,2.416016 1.55487,1.108545 3.57215,0.670434 4.82031,2.410156 1.62375,0.47504 2.30242,2.607633 4.25976,2.132813 -0.0444,1.24793 1.4035,1.988562 2.43555,1.765624 -0.0166,0.9595 0.59736,2.113631 1.48633,2.435547 1.52541,-0.05957 2.02934,1.766388 3.64062,1.576172 -0.19014,1.666281 1.70337,2.374532 2.58204,2.544922 0.49458,1.391545 2.17225,1.422503 1.99414,3.025391 0.74281,1.686977 2.71753,1.617641 3.48632,3.304687 -0.70776,2.052361 1.61823,2.79549 2.13868,4.21875 0.65026,0.935871 1.67419,0.977252 1.24414,2.279297 -0.13927,1.678541 2.10552,1.329453 1.76758,2.816406 0.49558,1.080837 1.21158,1.585669 0.70507,2.802735 0.21592,2.018543 2.42062,2.864113 2.1875,5.085937 0.34399,0.408253 0.44621,0.875301 0.50977,1.351563 -0.88896,-2.460079 -4.07535,0.641877 -4.34375,-2.544922 -2.67702,-2.556983 -5.98812,-2.751905 -7.96289,-6.087891 -2.27762,0.523376 -3.82748,-2.541431 -6.09766,-0.921875 -1.64679,-3.367757 -4.12463,1.314741 -5.88476,-1.158203 -3.54792,-1.054301 -6.58233,0.475307 -9.9043,-1.537109 -1.64005,1.724407 -3.32362,-1.795159 -5.15039,0.410156 -0.45489,-0.678268 -1.26144,-1.043097 -2.05469,-1.095703 -2.27254,-0.822623 -1.47726,3.619678 -3.92773,0.666016 -3.65004,-0.613857 -6.47367,1.276623 -10.01758,-0.314454 -1.87112,2.12919 -4.27059,2.076421 -7.00195,2.320313 -0.33413,3.342971 -5.40609,-0.500766 -6.33204,2.611328 -2.31496,-0.42952 -3.40839,1.675019 -5.70117,0.71875 -1.068,1.465675 -3.00771,-1.191308 -3.41601,1.326172 -2.11523,-1.011759 -3.16168,1.876179 -5.07813,0.400391 -2.78996,-0.791606 -1.08901,3.965393 -4.19531,1.677734 -3.68718,0.315918 -5.27363,3.696915 -9.10133,3.038864 -0.61786,0.38817 -1.53436,-0.04161 -1.53539,0.35762 -0.0433,-0.01175 -0.0858,-0.02093 -0.18164,0.0293 -1.00322,0.525617 -1.69127,2.080818 -2.7168,0.947266 -1.91985,0.252566 -1.9245,0.75036 -2.98242,1.84375 -1.76255,-0.121151 -3.86644,0.142247 -5.3457,1.644531 -1.74077,-0.857879 -2.89147,1.998943 -4.3711,1.119141 -1.25206,0.08311 -2.61873,-0.231235 -2.89257,0.658203 l -1.38086,0.755859 c -1.42724,-0.351054 -1.28723,2.180917 -2.52149,1.03125 -1.23617,-0.362346 -2.12848,0.317878 -2.93359,1.373047 -1.60704,0.02705 -4.47694,-0.105235 -5.36133,1.390625 -0.3762,-0.03675 -0.67225,0.139888 -0.93359,0.382813 -0.66044,0.05981 -1.18481,0.548597 -1.70899,0.951171 -0.0636,-0.04165 -0.12844,-0.09215 -0.19726,-0.15625 -0.67863,-0.198917 -1.6144,-0.01055 -2.23633,0.453125 -0.95962,0.0596 -1.81835,0.874062 -1.85742,1.65625 -1.75234,0.04204 -3.88686,0.273159 -4.28516,1.869141 -1.80766,-0.706164 -2.61279,1.990538 -4.16211,1.240234 -0.30098,-0.111537 -0.60814,-0.12498 -0.90234,-0.07617 -0.32054,-1.577197 -1.03334,-3.18424 0,-4.439454 0.3348,-1.606952 -0.93717,-2.253041 -0.0117,-3.816406 -0.50086,-1.643756 2.2941,-2.981383 0.69922,-4.871094 0.78609,-1.748369 0.62725,-3.72776 1.75195,-5.269531 0.25394,-1.369292 -0.82795,-2.417039 0.75195,-3.302734 -0.25585,-2.033126 2.54635,-2.795009 2.09961,-5.050781 0.92435,-1.418095 0.42765,-2.650916 2.16211,-3.423829 0.14983,-1.542242 0.46935,-2.119683 1.48633,-3.390625 0.79648,-1.157713 2.97169,-2.013209 2.89063,-3.96289 1.30816,-1.41754 2.22706,-2.998835 3.83007,-4.03711 -0.12641,-2.123882 1.91087,-1.755248 2.52539,-3.513672 2.8007,-0.397245 3.0591,-4.325913 5.70118,-4.378906 1.44642,-0.775823 1.12384,-2.165327 2.91601,-2.460937 0.93702,-1.440327 3.75897,-0.159344 4.18164,-2.595703 1.84583,-0.520038 3.25701,-1.919253 5.16211,-2.046875 1.20947,-0.873304 1.45344,-2.060064 3.19922,-1.623047 1.12629,-0.526889 1.33834,-1.362764 1.01758,-2.046875 0.54712,-0.123366 1.0486,-0.409088 1.39062,-0.871094 1.05426,0.670293 2.62245,0.579303 3.47657,-0.394531 1.40436,1.106323 3.27525,0.173662 4.13086,-0.908203 1.18811,-0.21347 1.62828,-1.357511 2.90039,-1.185547 0.92243,-0.206675 1.20179,-1.367151 2.12304,-0.523438 1.03689,0.484953 2.1479,-0.378212 2.55664,-0.96289 1.28881,0.734162 2.53012,-0.895833 3.53125,0.240234 1.61247,0.816934 2.6944,-0.933528 4.21289,-0.609375 0.80489,-0.253074 1.62583,0.352557 2.38086,-0.05664 1.20297,-0.152716 2.60125,1.063998 3.60547,-0.236328 0.10228,-0.0592 0.20123,-0.08515 0.29883,-0.08789 z"
       sodipodi:nodetypes="sccccccccccccccccccccccccccccccccccccccccccccccccccccccccccccccccccccccccccccccccccccccccccccccccccccccccccccsscccccccccccccccccccccccccccccccccccccccccccsccccccccccccccccccccccccccccccccccccccccccccs" /><path
       id="path31316"
       style="opacity:1;fill:#000000;fill-opacity:0.3;stroke:none;stroke-width:2.4;stroke-miterlimit:40"
       d="m 227.3125,40.640625 c -2.668,0.985394 -4.7761,2.978111 -6.58168,5.059552 0.40321,1.384208 -2.83993,2.160528 -1.05599,3.800853 1.54566,0.04621 2.14062,-0.387022 1.54279,1.465379 1.27934,4.131328 5.91414,-1.564025 4.02571,-3.949837 -2.41949,-2.26473 4.25291,-3.003444 2.60042,-6.1279 l -0.28125,-0.216797 z m -9.1543,9.408203 c -2.32317,1.401673 -3.02024,4.409772 -4.0625,6.65036 -0.41104,1.474719 0.43506,1.863255 -0.60877,3.220029 0.90993,3.487204 4.44094,-0.84922 4.03126,-2.92041 -0.54339,-2.210411 1.8236,-3.350752 1.57353,-5.461907 -0.17487,-0.496892 -0.25918,-1.397116 -0.93352,-1.488072 z m -5.75781,5.691406 c -2.80366,0.02053 -2.66723,3.436621 -4.23401,4.766644 -2.32403,0.821457 -1.44405,5.400425 0.693,2.495075 1.79368,-1.354253 3.02411,-3.574797 3.82779,-5.136081 0.5366,-0.521036 0.69424,-2.015785 -0.28678,-2.125638 z m 2.27539,6.324219 c -1.68041,1.291922 -1.91457,4.523607 -1.32422,5.884766 0.35458,3.309961 3.80805,-1.095823 1.97615,-2.880868 0.38669,-0.991912 1.00702,-2.576425 -0.65193,-3.003898 z m -3.29101,1.496094 c -2.81919,0.405422 -1.66676,3.863919 -3.43581,5.251835 0.91544,3.358815 3.96761,-1.710461 4.05428,-3.164539 -0.59895,-0.315687 1.29852,-1.795636 -0.61847,-2.087296 z m -5.24805,1.365234 c -2.30862,1.753688 -3.33362,4.722702 -4.22164,7.356496 0.92922,1.103518 -1.72543,3.121004 0.56833,3.903584 1.43322,-0.579786 1.80202,-1.216133 2.00279,0.719654 2.83829,3.26237 4.78074,-3.819432 2.08914,-5.239582 -3.12767,-1.095283 2.6789,-4.464424 -0.0949,-6.656167 l -0.34375,-0.08398 z m -1.79688,12.666016 c -2.7633,0.683329 -1.27729,4.010351 -2.89968,5.567098 1.24362,3.252272 3.78104,-2.092378 3.72071,-3.549617 -0.62532,-0.255858 1.1147,-1.916593 -0.82103,-2.017481 z m -3.78711,0.0059 c -2.14357,1.527798 -1.8794,4.707215 -2.77287,6.845014 -0.27955,1.784203 0.87611,2.121581 0.0511,3.75563 1.57721,3.241256 4.18893,-1.702601 3.38054,-3.653681 -0.96843,-2.060718 1.12576,-3.643508 0.46864,-5.664619 -0.26727,-0.464525 -0.48776,-1.203428 -1.1274,-1.282344 z m 6.15039,3.207032 c -2.2146,1.061026 -0.53731,4.148582 0.48315,4.900407 -0.83377,0.774747 -1.19822,5.013464 0.60387,3.099721 1.22856,-2.118894 1.57874,-4.243361 1.74851,-6.360805 -0.6636,-1.551694 -1.96286,0.959903 -2.11016,-1.275778 l -0.34412,-0.26375 -0.3813,-0.09979 z m -2.96093,5.246093 c -2.59086,0.472978 -0.54643,6.529818 1.03834,3.236789 0.27701,-0.992929 0.28832,-2.96583 -1.03834,-3.236789 z m 0.35742,9.998047 c -2.76538,0.683299 -1.2742,4.011071 -2.89904,5.567101 1.24264,3.25241 3.78068,-2.093541 3.72175,-3.54962 -0.629,-0.254277 1.1141,-1.91689 -0.82271,-2.017481 z m -4.99219,2.345703 c -2.05457,1.664118 -1.27683,4.942228 -1.90283,7.160948 -0.0365,1.8055 1.15627,1.98385 0.55849,3.7147 2.00058,2.99822 3.91882,-2.25552 2.85395,-4.07872 -1.23758,-1.91044 0.6257,-3.76245 -0.30185,-5.675323 -0.3129,-0.41234 -0.61783,-1.054446 -1.20776,-1.121605 z m 1.03906,13.544918 c -3.15308,0.90283 0.469,6.95714 1.16925,2.63663 0.091,-0.95352 -0.0296,-2.39255 -1.16925,-2.63663 z" /><path
       id="path29401"
       style="opacity:1;fill:#000000;fill-opacity:1;stroke-width:2.4;stroke-miterlimit:40"
       d="m 233.09075,35.376331 a 2.2771235,1.6778805 0 0 1 -2.27712,1.677881 2.2771235,1.6778805 0 0 1 -2.27713,-1.677881 2.2771235,1.6778805 0 0 1 2.27713,-1.67788 2.2771235,1.6778805 0 0 1 2.27712,1.67788 z" /><path
       id="path31247"
       style="opacity:1;fill:#ffffff;fill-opacity:0.2;stroke:none;stroke-width:2.4;stroke-miterlimit:40"
       d="m 294.87891,36.228516 c -3.08549,0.336204 -0.16837,3.881116 1.69245,3.846933 1.11268,0.298563 2.27396,0.244929 3.40716,0.422598 0.8483,1.571954 4.70433,2.282463 4.56429,0.01997 -1.1148,-1.621838 -3.38419,-1.832674 -4.59993,-2.973521 -1.12561,-0.697441 -2.86846,-1.148494 -3.80919,-0.595987 -0.26249,-0.450556 -0.71869,-0.757625 -1.25478,-0.719994 z m 12.34375,6.591796 c -3.08272,0.337243 -0.16659,3.880737 1.69291,3.846934 1.11251,0.298605 2.27366,0.244938 3.4067,0.422598 0.8483,1.571953 4.70433,2.282463 4.56429,0.01997 -1.11478,-1.62194 -3.38441,-1.832554 -4.59993,-2.973701 -1.12467,-0.697563 -2.86901,-1.15248 -3.80732,-0.595891 -0.26259,-0.451411 -0.72033,-0.757221 -1.25665,-0.719911 z m 5.18945,5.925782 c -2.49416,0.650556 1.14946,2.198699 1.77094,2.847181 1.14986,0.451422 1.63247,0.107321 2.61251,0.611817 1.56921,-0.985043 -1.01281,-2.690365 -2.18838,-2.450116 -0.96095,0.09805 -1.18552,-1.118295 -2.19507,-1.008882 z m 6.14453,0.392578 c -2.03181,0.01138 -0.62444,2.941863 0.76295,1.636268 0.75327,-0.635705 0.0571,-1.696021 -0.76295,-1.636268 z m 2.80078,2.980469 c -2.05062,0.672772 0.431,3.276775 1.21781,4.304931 0.88755,0.803137 1.17763,2.350198 2.57948,2.92769 0.47095,1.001585 1.63229,-0.42639 1.58533,1.124394 1.24315,1.734822 3.44453,-0.141026 2.19831,-1.809915 -0.7823,-1.895449 -2.73127,-2.690267 -4.33874,-3.732642 -0.37035,-1.491371 -1.58816,-2.901578 -3.24219,-2.814458 z m 9.18555,8.763671 c -2.40722,0.213374 -0.0912,3.031934 0.93377,1.438329 0.45038,-0.648895 -0.20762,-1.490129 -0.93377,-1.438329 z m 1.11914,3.128907 c -0.90391,1.211665 0.68877,2.97387 1.2436,4.122304 0.69043,0.540923 0.83561,0.642869 1.39443,1.39356 1.85449,0.02622 0.60862,-2.809027 -0.50871,-3.245482 -0.98803,-0.620556 -0.44007,-2.358704 -2.12932,-2.270382 z" /><path
       id="path32164"
       style="fill:#000000;fill-opacity:0.30000001;stroke:none;stroke-width:1px;stroke-linecap:butt;stroke-linejoin:miter;stroke-opacity:1"
       d="M 211.72656 89.287109 C 211.62657 89.326044 211.51128 89.367471 211.41211 89.40625 C 204.94315 91.935737 193.67578 96.837891 193.67578 96.837891 L 194.87305 124.88281 C 194.87305 124.88281 197.82206 123.76992 199.9082 123.44336 C 201.99439 123.1168 205.08887 122.44291 207.33789 123.20508 C 209.58691 123.96725 209.87599 123.75668 212.61133 127.51953 C 212.655 127.57961 212.70328 127.66823 212.74805 127.73438 C 212.70898 127.3341 212.6744 126.89373 212.63672 126.47852 A 1.3343799 1.177394 88.161635 0 0 213.10352 126.57812 A 1.3343799 1.177394 88.161635 0 0 214.23828 125.20703 A 1.3343799 1.177394 88.161635 0 0 213.01953 123.91016 A 1.3343799 1.177394 88.161635 0 0 212.43359 124.14062 C 212.41697 123.93289 212.40299 123.71339 212.38672 123.50391 A 0.62794346 1.0989012 0 0 0 212.55859 123.54883 A 0.62794346 1.0989012 0 0 0 213.1875 122.44922 A 0.62794346 1.0989012 0 0 0 212.55859 121.34961 A 0.62794346 1.0989012 0 0 0 212.24023 121.50195 C 212.23607 121.44288 212.23085 121.38478 212.22656 121.32617 A 0.52727741 0.52727741 0 0 0 212.27148 121.33008 A 0.52727741 0.52727741 0 0 0 212.79883 120.80273 A 0.52727741 0.52727741 0 0 0 212.33398 120.2793 A 1.4128728 0.94191521 88.161635 0 0 213.09375 118.88086 A 1.4128728 0.94191521 88.161635 0 0 212.5293 117.63281 A 1.7268445 1.2558869 88.161635 0 0 213.625 115.87891 A 1.7268445 1.2558869 88.161635 0 0 212.31445 114.19336 A 1.7268445 1.2558869 88.161635 0 0 212.1875 114.23633 A 0.30526587 0.30526587 0 0 0 211.88281 113.94727 A 0.30526587 0.30526587 0 0 0 211.79297 113.96094 C 211.79069 113.91212 211.78935 113.86497 211.78711 113.81641 A 0.55502886 0.36076877 0 0 0 211.96484 113.83594 A 0.55502886 0.36076877 0 0 0 212.52148 113.47656 A 0.55502886 0.36076877 0 0 0 211.96484 113.11523 A 0.55502886 0.36076877 0 0 0 211.75586 113.14258 C 211.75383 113.09605 211.752 113.04842 211.75 113.00195 A 0.41627166 0.41627166 0 0 0 211.77148 113.00391 A 0.41627166 0.41627166 0 0 0 212.1875 112.58789 A 0.41627166 0.41627166 0 0 0 211.77148 112.17188 A 0.41627166 0.41627166 0 0 0 211.71289 112.17578 C 211.71273 112.17192 211.71305 112.16792 211.71289 112.16406 A 1.0989012 0.78492934 88.161635 0 0 211.77734 112.16992 A 1.0989012 0.78492934 88.161635 0 0 212.52734 111.04688 A 1.0989012 0.78492934 88.161635 0 0 212.13672 110.13086 A 1.0989012 0.7064364 88.161635 0 0 212.4668 109.16406 A 1.0989012 0.7064364 88.161635 0 0 211.94336 108.13477 A 1.0989012 0.94191521 88.161635 0 0 212.25 107.28711 A 1.0989012 0.94191521 88.161635 0 0 211.5332 106.26758 C 211.531 106.12849 211.52713 105.98234 211.52539 105.84766 A 2.5117738 1.0989012 88.161635 0 0 211.73438 105.88867 A 2.5117738 1.0989012 88.161635 0 0 212.75195 103.3418 A 2.5117738 1.0989012 88.161635 0 0 211.57422 100.86719 A 2.5117738 1.0989012 88.161635 0 0 211.55469 100.875 C 211.55993 100.38233 211.57201 99.866489 211.57422 99.386719 A 0.78492934 0.7064364 88.161635 0 0 211.97461 98.65625 A 0.78492934 0.7064364 88.161635 0 0 211.93945 98.445312 A 1.0204082 1.177394 88.161635 0 0 212.7207 97.453125 A 1.0204082 1.177394 88.161635 0 0 212.04297 96.564453 A 1.9623234 1.0204082 88.161635 0 0 212.33008 95.109375 A 1.9623234 1.0204082 88.161635 0 0 211.60156 93.300781 C 211.60231 93.244077 211.60074 93.185518 211.60156 93.128906 A 1.3343799 1.2558869 88.161635 0 0 211.79688 93.164062 A 1.3343799 1.2558869 88.161635 0 0 213.00977 91.789062 A 1.3343799 1.2558869 88.161635 0 0 211.71094 90.496094 A 1.3343799 1.2558869 88.161635 0 0 211.66992 90.505859 C 211.68642 90.098868 211.70326 89.69244 211.72656 89.287109 z " /><path
       id="path32166"
       style="fill:#000000;fill-opacity:0.30000001;stroke:none;stroke-width:1px;stroke-linecap:butt;stroke-linejoin:miter;stroke-opacity:1"
       d="M 254.58398 28.222656 C 241.86658 29.872146 229.81846 35.378487 219.53711 42.927734 C 208.48627 51.206186 200.61499 63.263094 196.05664 76.191406 C 193.86698 82.914809 193.3906 90.132684 193.98047 97.148438 C 199.82231 94.352947 205.7331 91.69801 211.72852 89.248047 C 212.13039 88.192896 212.50237 85.861183 212.4043 85.960938 C 215.69911 85.773976 211.08735 80.182018 213.80078 81.984375 C 214.89682 80.999136 214.0484 79.945383 213.74805 79.167969 A 0.7456829 0.54945058 0 0 0 214.05078 78.728516 A 0.7456829 0.54945058 0 0 0 213.85547 78.357422 C 214.03958 78.218847 214.35325 78.114224 214.88281 78.060547 C 214.98562 77.36588 213.0232 75.804568 215.23828 76.339844 C 217.58113 76.510123 216.06577 73.480472 216.60742 73.146484 C 218.46643 71.947651 215.34818 69.973915 218.07422 70.775391 C 219.21494 69.539155 217.22751 68.387164 218.60156 67.662109 C 218.4319 65.244935 219.02 70.883965 219.50586 67.912109 C 218.57349 65.711668 221.67203 66.657271 220.70117 64.201172 C 220.6632 64.013706 220.67657 63.863448 220.71289 63.730469 A 0.54945058 0.47095761 0 0 0 220.80078 63.736328 A 0.54945058 0.47095761 0 0 0 221.34961 63.265625 A 0.54945058 0.47095761 0 0 0 221.28906 63.048828 C 221.67027 62.774999 222.04468 62.520217 221.79883 61.867188 C 223.76718 62.659536 221.68644 60.378203 223.20508 60.738281 C 223.39274 59.240152 224.42712 57.998026 225.58789 57.457031 C 224.29638 56.31207 228.10847 57.073969 226.24414 55.585938 C 226.31444 55.770402 229.23474 56.779146 228.36914 54.583984 C 226.79612 53.980066 228.30829 52.64909 228.5293 54.611328 C 231.75735 55.70606 229.32574 48.56911 231.28125 51.414062 C 233.01414 50.137398 231.74246 47.984542 233.99805 47.664062 C 233.21817 46.039268 238.09135 47.207884 236.47852 44.267578 C 238.35581 43.994851 237.96355 42.059404 239.74609 42.117188 C 240.13077 40.898464 240.5734 39.654891 241.11133 40.988281 C 241.88569 40.215538 241.68896 38.165615 243.19531 39.041016 C 244.01147 36.763286 245.68864 35.803568 247.07227 35.414062 C 246.24467 34.204102 248.13567 35.51339 247.9668 33.753906 C 249.18334 34.664011 248.34516 32.102791 249.74023 33.015625 C 249.46514 30.822328 251.16116 32.249944 252.41797 32.085938 C 253.25424 30.552773 250.02177 31.590069 252.05859 30.302734 C 253.57678 32.259278 252.57517 28.76498 254.1875 28.546875 L 254.58398 28.222656 z M 250.44336 31.921875 C 248.57116 33.524946 252.54559 32.985333 250.44336 31.921875 z " /></g></svg>
