<?xml version="1.0" encoding="UTF-8" standalone="no"?>
<!-- Created with Inkscape (http://www.inkscape.org/) -->

<svg
   width="400"
   height="400"
   viewBox="0 0 400 400"
   version="1.1"
   id="svg1"
   xml:space="preserve"
   inkscape:version="1.3-beta (cedbd6c, 2023-05-28)"
   sodipodi:docname="whiteWalls.svg"
   xmlns:inkscape="http://www.inkscape.org/namespaces/inkscape"
   xmlns:sodipodi="http://sodipodi.sourceforge.net/DTD/sodipodi-0.dtd"
   xmlns="http://www.w3.org/2000/svg"
   xmlns:svg="http://www.w3.org/2000/svg"><sodipodi:namedview
     id="namedview1"
     pagecolor="#ffffff"
     bordercolor="#666666"
     borderopacity="1.0"
     inkscape:showpageshadow="2"
     inkscape:pageopacity="0.0"
     inkscape:pagecheckerboard="0"
     inkscape:deskcolor="#d1d1d1"
     inkscape:document-units="px"
     inkscape:zoom="2.1875"
     inkscape:cx="199.77143"
     inkscape:cy="200"
     inkscape:window-width="2244"
     inkscape:window-height="1088"
     inkscape:window-x="2169"
     inkscape:window-y="250"
     inkscape:window-maximized="0"
     inkscape:current-layer="svg1" /><defs
     id="defs1" /><g
     inkscape:groupmode="layer"
     id="layer4"
     inkscape:label="Hair Front"><path
       style="fill:#383838;fill-opacity:0.2;stroke:none;stroke-width:1px;stroke-linecap:butt;stroke-linejoin:miter;stroke-opacity:1"
       d="m 220.45569,143.52248 c 0.88858,-1.24551 1.20043,-11.52642 2.10112,-13.41483 0.90069,-1.88841 20.84955,-22.46579 20.84955,-22.46579 0,0 -3.56356,-12.229834 -4.20224,-18.586812 -0.63868,-6.356978 1.13137,-16.16244 3.07087,-19.718177 1.93949,-3.555737 11.47533,-9.697465 11.47533,-9.697465 L 216.89995,48.487322 c 0,0 -9.20763,9.02764 -12.44507,13.738075 -3.23744,4.710435 -5.3646,8.411183 -7.11148,14.061323 -1.74688,5.65014 -2.58599,19.556554 -2.58599,19.556554 0,0 1.23305,17.597166 2.26274,22.304166 1.02969,4.707 2.10112,6.14173 2.10112,6.14173 0,0 3.74743,-2.68003 6.78822,-1.77787 3.04079,0.90216 5.92465,5.03714 8.08123,8.88934 2.15658,3.8522 4.04061,13.8997 4.04061,13.8997 0,0 1.53578,-0.53236 2.42436,-1.77786 z"
       id="path39"
       sodipodi:nodetypes="zzczzcczzczczzcz" /><path
       style="fill:#383838;fill-opacity:1;stroke:none;stroke-width:1px;stroke-linecap:butt;stroke-linejoin:miter;stroke-opacity:1"
       d="m 316.43117,71.000453 c 0.94633,0.0083 3.98347,-0.759101 3.98347,-0.759101 l 4.61204,-3.490471 2.74762,-2.585991 3.07086,-4.687108 2.10112,-6.303352 -0.48487,-4.202235 -1.77787,-3.717361 -7.2731,-7.596347 -9.85909,-6.626601 -9.21259,-3.555737 -4.84873,-0.161624 -9.37422,1.777868 -4.52548,0.484874 -6.6266,-1.939493 -9.37422,-2.90924 -9.53584,-0.161624 -11.9602,4.363859 c 0,0 -8.72772,3.717361 -10.99046,4.363859 -2.26275,0.646498 -9.53584,3.394112 -9.53584,3.394112 l -6.30336,2.424367 -8.88934,8.566093 -5.89929,9.131779 c 0,0 1.43038,0.639756 2.22234,0.686904 0.79196,0.04715 2.39441,-0.437812 2.39441,-0.437812 l 3.22203,-0.976402 c 2.24155,-1.422035 3.62595,-0.958356 5.01036,-0.323248 l -0.92241,1.312603 0.4832,-0.17955 c 0,0 2.10535,-1.258755 3.59055,-1.537797 0.90146,-0.169369 1.43008,0.419197 1.53577,0.727992 0.27981,0.817546 -3.87899,4.202235 -3.87899,4.202235 L 226.64,55.776665 c 0,0 -0.18187,1.107731 -0.43201,1.613189 -0.25015,0.505457 -1.04726,1.356557 -1.04726,1.356557 l 4.99243,-3.147615 c 0,0 -1.13552,2.087947 -1.79222,2.957125 -0.65671,0.869177 -2.09658,2.254072 -2.09658,2.254072 l 6.15154,-4.24145 c 0,0 -2.67742,3.426789 -3.93228,4.770105 -1.25486,1.343316 -3.52206,3.330723 -3.52206,3.330723 l 8.90896,-5.999711 2.10111,-0.808122 c 0,0 -1.21802,3.409544 -2.06022,4.705034 -0.84219,1.295489 -2.78851,3.052937 -2.78851,3.052937 l 4.52549,-2.58599 2.90924,-1.45462 c 0,0 -1.02421,2.87284 -1.84314,3.754896 -0.81893,0.882056 -2.73949,2.426048 -2.73949,2.426048 l 3.61288,-1.493836 5.17198,-1.939493 4.36386,-2.262742 -0.48487,3.070864 3.71736,-3.070864 4.84873,-1.454619 6.30335,0.969746 8.58906,0.370587 6.60364,-0.532211 c 0,0 5.05742,0.177916 7.16049,0.437535 2.10307,0.259619 5.44621,1.017084 5.44621,1.017084 l 2.10112,-0.161624 3.76638,1.978709 c 0,0 0.446,-1.047977 1.89047,-1.493836 1.44447,-0.445859 3.39411,0.323249 3.39411,0.323249 0,0 3.28266,0.967554 4.84874,1.616244 1.56608,0.64869 3.17876,1.444043 4.52548,2.262742 1.34672,0.818699 3.55574,2.58599 3.55574,2.58599 0,0 2.09512,1.008736 3.04144,1.017085 z"
       id="path40"
       sodipodi:nodetypes="zcccccccccccccccccscccczcccccsscczcczcczccczccczcccccccccczccczczzcz" /><path
       id="path41"
       style="fill:#000000;fill-opacity:0.30000001;stroke:none;stroke-width:1px;stroke-linecap:butt;stroke-linejoin:miter;stroke-opacity:1"
       d="M 268.70117 25.052734 L 257.79102 26.101562 L 247.68945 29.253906 L 236.05273 33.859375 L 224.98047 36.931641 L 220.61719 39.921875 L 211.72852 48.40625 L 207.60742 54.708984 L 206.79883 56.326172 L 210.35352 53.902344 C 210.35352 53.902344 213.64438 50.844713 214.87891 49.376953 C 216.11344 47.909194 216.98092 46.467069 218.43555 44.931641 C 219.89017 43.396211 220.93412 42.242823 223.20312 40.972656 C 226.11233 39.344118 228.37495 38.547382 230.96094 37.416016 C 233.54691 36.284648 236.05724 35.666528 239.68945 34.425781 C 243.32168 33.185035 249.44775 31.129549 252.61914 29.900391 C 255.79054 28.67123 255.89922 28.058765 258.59961 27.152344 C 261.3 26.245922 268.70117 25.052734 268.70117 25.052734 z M 263.125 36.365234 L 256.98242 36.447266 L 249.54883 37.173828 L 243.48633 39.033203 L 238.96094 41.052734 L 235.08203 43.71875 L 231.76953 45.578125 C 231.76953 45.578125 234.4067 44.637906 235.64844 44.042969 C 236.89018 43.44803 237.91236 42.672569 239.20508 42.021484 C 240.4978 41.370401 241.76068 40.698025 243.40625 40.164062 C 245.05182 39.630101 246.3182 39.459834 249.0625 38.951172 C 251.8068 38.442508 256.25244 37.658767 259.89258 37.253906 C 263.5327 36.849047 270.88281 36.527344 270.88281 36.527344 L 267.97266 36.447266 L 263.125 36.365234 z M 264.17578 41.052734 L 258.07422 42.304688 C 258.07422 42.304687 261.50898 42.346435 264.17578 42.265625 C 266.84259 42.184812 274.81645 42.474577 278.96289 42.912109 C 283.10933 43.349642 286.96325 44.098609 290.19727 44.931641 C 293.43127 45.764672 300.45898 48.890625 300.45898 48.890625 L 297.14648 46.224609 L 289.14648 43.072266 L 280.90234 41.779297 L 271.28711 41.214844 L 264.17578 41.052734 z M 253.75 43.154297 L 244.86133 43.476562 L 235.00195 45.740234 L 228.69922 49.134766 L 223.84961 52.367188 C 223.84961 52.367188 226.5759 50.931 228.53711 50.103516 C 230.49832 49.27603 232.53031 48.426779 235.64844 47.517578 C 238.76655 46.608377 243.42851 45.603106 247.28516 44.931641 C 251.14179 44.260174 258.75977 43.476562 258.75977 43.476562 L 253.75 43.154297 z M 305.95508 52.851562 C 305.60489 55.518359 304.60774 58.426979 303.85352 59.800781 L 302.80273 53.09375 C 303.01823 55.868293 301.88715 58.372381 300.62109 59.234375 C 299.35506 60.096369 296.96014 59.00575 293.83398 58.992188 C 290.70785 58.978628 287.02256 59.378762 281.87305 59.316406 C 276.72351 59.254046 260.37695 58.345703 260.37695 58.345703 L 250.67969 60.285156 L 247.08398 62.308594 L 246.63867 65.134766 L 250.35547 62.064453 L 255.20508 60.609375 L 261.50781 61.578125 L 270.09766 61.949219 L 276.70117 61.417969 C 276.70117 61.417969 281.75826 61.59585 283.86133 61.855469 C 285.9644 62.115085 289.30859 62.871094 289.30859 62.871094 L 291.4082 62.710938 L 295.17578 64.689453 C 295.17578 64.689453 295.62194 63.641171 297.06641 63.195312 C 298.51085 62.749456 300.45898 63.517578 300.45898 63.517578 C 300.45898 63.517578 303.74254 64.486076 305.30859 65.134766 C 306.87467 65.783453 308.48729 66.577788 309.83398 67.396484 C 311.1807 68.215183 313.39062 69.982422 313.39062 69.982422 C 313.39062 69.982422 315.48532 70.991651 316.43164 71 C 317.17133 71.006488 318.85359 70.612649 319.69922 70.408203 L 322.44141 68.367188 L 327.69336 61.09375 L 323.08789 64.488281 C 323.08789 64.488281 325.34961 61.255385 325.34961 60.447266 C 325.34961 59.639144 323.49219 61.740234 323.49219 61.740234 L 320.82422 63.195312 L 322.2793 54.791016 C 322.2793 54.791016 320.89952 58.5386 320.09766 59.800781 C 319.2958 61.062966 317.5918 62.386719 317.5918 62.386719 C 316.19105 60.662729 316.08382 58.615121 315.81445 55.759766 C 315.24877 57.699253 314.44118 58.911365 313.39062 59.638672 L 311.12695 53.820312 C 310.50739 55.894486 309.88786 57.646789 308.54102 58.832031 C 308.43327 56.596233 307.35583 54.521678 305.95508 52.851562 z " /><path
       style="fill:#ffffff;fill-opacity:0.2;stroke:none;stroke-width:1px;stroke-linecap:butt;stroke-linejoin:miter;stroke-opacity:1"
       d="m 328.57143,61.371428 c 0,0 -0.97042,-5.425526 -2.17143,-8.342857 -1.20101,-2.917331 -2.44114,-5.109801 -3.77143,-6.971429 -1.33029,-1.861628 -2.38692,-3.638376 -4.68571,-6.171428 -2.2988,-2.533052 -3.84107,-4.624783 -7.08572,-6.4 -3.24465,-1.775217 -5.84547,-2.564308 -11.08571,-2.971429 -5.24025,-0.40712 -14.74286,-0.685714 -14.74286,-0.685714 l 9.48572,-1.257142 8,-1.257143 9.25714,2.514285 7.08571,4.457143 6.97143,5.714286 3.08572,4.8 1.25714,6.171429 z"
       id="path42"
       sodipodi:nodetypes="czzzzzccccccccc" /><path
       id="path1"
       style="color:#000000;fill:#000000;-inkscape-stroke:none"
       d="M 265.87891 23.853516 C 261.49551 23.859098 258.33105 24.797453 254.34766 25.861328 C 249.62477 27.122704 244.04312 30.027409 240.32812 31.416016 C 236.52983 32.835763 234.34651 33.528238 231.45117 34.533203 C 228.68443 35.493532 226.12001 35.653759 222.89844 37.482422 C 219.69195 39.302517 216.15279 42.466352 213.31445 45.582031 C 210.37147 48.81259 206.73047 56.490234 206.73047 56.490234 C 206.73047 56.490234 211.92728 49.627859 214.57031 46.726562 C 217.31801 43.710389 220.80444 40.62516 223.73633 38.960938 C 226.65312 37.305284 229.00701 37.180923 232.00977 36.138672 C 234.88391 35.141057 237.09364 34.438749 240.92188 33.007812 C 244.83343 31.545735 250.37718 28.681698 254.78711 27.503906 C 259.36745 26.280597 262.53847 25.305075 267.73828 25.607422 C 270.2048 25.750839 273.21835 26.823622 276.33594 27.941406 C 279.45351 29.05919 282.68147 30.219919 285.76367 30.416016 C 288.82001 30.610465 291.91038 29.987023 294.7207 29.369141 C 297.53104 28.751257 300.08097 28.151877 301.875 28.251953 C 305.85902 28.474192 305.88813 28.701812 309.29102 30.111328 C 312.55869 31.464846 318.10272 34.616573 321.08008 37.181641 C 324.15558 39.831259 326.20021 41.976531 327.58984 45.060547 C 328.98894 48.165549 329.68497 51.844759 329.20703 55.167969 C 328.74013 58.414457 326.54053 61.928793 324.78711 64.414062 C 323.1543 66.728392 319.95117 70.431641 319.95117 70.431641 C 319.95117 70.431641 320.7612 69.967297 321.76172 69.308594 C 322.31081 69.167496 323.05452 68.911508 323.78711 68.441406 C 325.19507 67.537919 326.83407 66.398482 327.84375 65.3125 C 329.76118 63.250178 331.32626 60.62644 332.29688 57.892578 C 332.80826 56.452204 333.09672 54.340765 333.28125 52.550781 C 333.46578 50.760797 332.76172 48.429688 332.76172 48.429688 C 332.76172 48.429688 332.60842 50.930789 332.42773 52.683594 C 332.24703 54.4364 331.59751 56.276833 331.16602 57.492188 C 330.25087 60.069785 328.84349 62.823769 327.05078 64.751953 C 326.70469 65.124205 326.22654 65.548606 325.69336 65.982422 C 325.85811 65.787091 326.03442 65.594902 326.17578 65.394531 C 327.97044 62.850806 330.34226 59.209472 330.88867 55.410156 C 331.42405 51.687563 330.65801 47.730797 329.14062 44.363281 C 327.6138 40.974781 325.32752 38.598052 322.18945 35.894531 C 318.95325 33.106459 313.43212 29.986918 309.94141 28.541016 C 306.58587 27.151111 306.034 26.781348 301.9707 26.554688 C 299.74109 26.430314 297.14048 27.096671 294.35547 27.708984 C 291.57046 28.321299 288.62123 28.89372 285.87109 28.71875 C 283.14683 28.545426 280.02348 27.458057 276.91016 26.341797 C 273.79682 25.225537 270.6989 24.076511 267.83789 23.910156 C 267.15599 23.870507 266.50511 23.852718 265.87891 23.853516 z M 261.41797 27.644531 C 261.41797 27.644531 257.17635 28.501072 255.19141 29.337891 C 253.19971 30.177551 251.88457 31.490232 249.73438 32.277344 C 247.60326 33.057478 244.33339 33.1171 242.04688 33.898438 C 239.77725 34.67401 236.53906 36.837891 236.53906 36.837891 C 236.53906 36.837891 240.04048 35.11211 242.20898 34.371094 C 244.36063 33.635842 247.63234 33.578494 249.90625 32.746094 C 252.16109 31.920672 253.49541 30.593391 255.38477 29.796875 C 257.28086 28.997516 261.41797 27.644531 261.41797 27.644531 z M 264.11523 29.150391 C 263.27005 29.135147 262.43345 29.180766 261.60547 29.291016 C 259.56453 29.562782 256.48047 31.355469 256.48047 31.355469 C 256.48047 31.355469 259.88552 30.139303 261.65039 29.904297 C 263.74823 29.624952 265.97303 29.961216 268.23633 30.498047 C 269.31699 30.754367 270.52372 31.35738 271.71094 31.966797 C 272.89816 32.576212 274.06237 33.193118 275.15039 33.443359 C 277.1991 33.91456 278.21063 33.825772 280.13672 33.691406 C 282.15491 33.550615 284.09513 32.76418 286.76953 32.427734 C 289.4914 32.085318 293.10583 31.67485 296.43555 31.830078 C 299.80324 31.987077 303.82552 32.288991 306.70312 33.425781 C 309.62244 34.579043 311.66429 36.092842 313.7168 38.199219 C 314.69861 39.2068 316.01116 40.778407 316.99219 42.439453 C 317.97322 44.1005 318.99023 45.671875 318.99023 45.671875 C 318.99023 45.671875 318.61444 44.074469 317.62109 42.392578 C 316.62775 40.710687 315.38572 38.766066 314.28906 37.640625 C 312.18463 35.480956 310.02284 33.876575 306.99805 32.681641 C 303.93155 31.470233 299.85647 31.189001 296.47266 31.03125 C 293.05084 30.871728 289.39781 31.291345 286.66797 31.634766 C 283.89066 31.984156 281.9204 32.766148 280.08008 32.894531 C 278.14765 33.029339 277.30496 33.11633 275.33008 32.662109 C 274.4063 32.449642 273.26599 31.866608 272.07617 31.255859 C 270.88636 30.645112 269.64338 30.008476 268.42188 29.71875 C 267.25137 29.441118 266.09822 29.259882 264.96289 29.185547 C 264.67906 29.166962 264.39696 29.155472 264.11523 29.150391 z M 306.9707 31.009766 C 306.9707 31.009766 309.6098 32.398293 311.57422 33.480469 C 313.53864 34.562645 315.81953 35.922617 316.98242 36.917969 C 319.45255 39.032217 321.31117 40.594275 322.49219 43.574219 C 323.65913 46.518651 323.65877 50.733179 323.18164 54.382812 C 322.70953 57.994057 321.17304 62.321624 319.64258 64.888672 C 318.1465 67.398039 315.14258 70.431641 315.14258 70.431641 C 315.14258 70.431641 318.83723 68.192628 320.50195 65.400391 C 322.13229 62.665832 323.67934 58.2941 324.17383 54.511719 C 324.6633 50.767727 324.70639 46.446154 323.42188 43.205078 C 322.15145 39.999514 320.09964 38.26963 317.63281 36.158203 C 316.32723 35.040717 314.04241 33.697452 312.05664 32.603516 C 310.07088 31.509579 306.9707 31.009766 306.9707 31.009766 z M 265.87695 31.966797 C 265.70682 31.968767 265.53803 31.974163 265.36914 31.982422 C 262.66683 32.114566 257.93233 32.825659 255.0957 33.431641 C 252.24389 34.040866 247.77734 36.117188 247.77734 36.117188 C 247.77734 36.117188 252.46763 34.709908 255.24219 34.117188 C 258.03192 33.521223 262.78548 32.809605 265.40234 32.681641 C 268.01595 32.553835 271.0332 32.572266 271.0332 32.572266 C 271.0332 32.572266 268.42901 31.937242 265.87695 31.966797 z M 297.92969 32.103516 C 297.54196 32.105192 297.11232 32.132661 296.65625 32.205078 C 295.72708 32.352617 294.39644 32.758298 293.0293 33.1875 C 291.66215 33.616702 290.26097 34.070303 289.24414 34.3125 C 287.17469 34.805419 285.76152 35.138713 284.29297 35.267578 C 282.84544 35.394598 280.4082 35.455078 280.4082 35.455078 C 280.4082 35.455078 282.79943 35.90045 284.33594 35.765625 C 285.85142 35.632642 287.29157 35.29182 289.36133 34.798828 C 290.4141 34.54807 291.8138 34.092259 293.17773 33.664062 C 294.54167 33.235867 295.87387 32.835856 296.73438 32.699219 C 298.48946 32.420534 299.87891 32.332031 299.87891 32.332031 C 299.87891 32.332031 299.09286 32.098486 297.92969 32.103516 z M 266.3418 33.341797 C 264.74171 33.373008 261.83203 33.976562 261.83203 33.976562 C 261.83203 33.976562 265.57507 33.887067 266.83984 34.060547 C 267.45322 34.144677 267.91904 34.357197 268.44727 34.607422 C 268.97549 34.857647 269.56093 35.144579 270.35742 35.318359 C 271.93712 35.663026 273.67574 35.532941 275.85742 35.804688 C 278.01136 36.072979 281.08546 37.074888 283.71484 37.068359 C 286.32306 37.061859 288.49534 36.275841 290.98242 35.861328 C 293.55086 35.433257 296.36316 34.477278 298.84961 34.544922 C 301.39648 34.614212 304.3348 35.094346 305.94336 36.113281 C 306.74603 36.621729 307.14566 37.203077 307.51172 37.845703 C 307.87777 38.488329 308.19676 39.198755 308.82227 39.845703 C 310.0226 41.087187 311.33072 41.752722 312.79883 43.162109 C 313.46986 43.806302 314.2589 44.804126 314.72461 45.927734 C 315.19031 47.051342 315.74609 48.798828 315.74609 48.798828 C 315.74609 48.798828 315.73084 47.119026 315.25 45.958984 C 314.76919 44.798944 314.11457 43.454363 313.2832 42.65625 C 311.74652 41.181027 310.43341 40.504563 309.32617 39.359375 C 308.79789 38.812988 308.50787 38.179001 308.12109 37.5 C 307.73432 36.820999 307.23804 36.105291 306.31641 35.521484 C 304.47635 34.355913 301.48258 33.916853 298.86719 33.845703 C 296.19136 33.772903 293.34683 34.758602 290.86719 35.171875 C 288.30619 35.598707 286.17958 36.362981 283.71289 36.369141 C 281.26737 36.375241 278.22499 35.393329 275.94531 35.109375 C 273.69338 34.828877 271.94169 34.947614 270.50781 34.634766 C 269.79751 34.479789 269.2796 34.227338 268.74609 33.974609 C 268.21259 33.721882 267.6598 33.466525 266.93555 33.367188 C 266.77278 33.344863 266.57038 33.337338 266.3418 33.341797 z M 261.32812 35.990234 C 260.76567 35.98525 260.24319 35.990365 259.7832 36.007812 C 256.1438 36.145857 252.60448 36.257845 249.26562 36.978516 C 245.93823 37.696714 242.76704 38.858792 239.99219 40.189453 C 237.18352 41.536322 235.21328 43.383873 232.70312 44.765625 C 230.19403 46.146799 227.2636 46.979753 224.63477 48.621094 C 221.99284 50.270597 217.54688 54.6875 217.54688 54.6875 C 217.54688 54.6875 222.49995 50.779429 225.00586 49.214844 C 227.52485 47.642094 230.43658 46.812558 233.04102 45.378906 C 235.64439 43.945834 237.59797 42.113609 240.29492 40.820312 C 243.02567 39.510809 246.14746 38.366763 249.41211 37.662109 C 252.66531 36.959928 256.16644 36.84518 259.80859 36.707031 C 263.4103 36.570417 271.15234 36.539062 271.15234 36.539062 C 271.15234 36.539062 265.26531 36.025128 261.32812 35.990234 z M 314.24219 36.056641 C 314.24219 36.056641 315.66418 37.318054 316.63086 38.376953 C 317.59754 39.435852 318.58572 40.911218 319.11328 41.769531 C 320.20878 43.551848 321.07915 45.443159 321.53516 47.261719 C 321.97444 49.01342 322.23633 52.523437 322.23633 52.523438 C 322.23633 52.523438 322.52164 48.969148 322.03516 47.029297 C 321.5655 45.156304 320.84771 43.254989 319.70898 41.402344 C 319.11944 40.443176 318.00494 39.154845 317.02734 38.083984 C 316.04974 37.013124 314.24219 36.056641 314.24219 36.056641 z M 292.66992 36.728516 C 291.20551 36.724116 289.48241 37.088448 287.77539 37.455078 C 286.06837 37.821709 284.37705 38.192631 283.04297 38.232422 C 280.32457 38.313502 278.72898 37.655255 276.1543 37.570312 C 273.61558 37.486553 270.78811 37.463778 268.71094 37.691406 C 266.69628 37.912183 264.63047 38.592248 263.3418 38.652344 C 262.05314 38.712444 258.93046 38.705863 256.3125 39.138672 C 253.68058 39.573791 247.29492 41.646484 247.29492 41.646484 C 247.29492 41.646484 253.86654 40.180997 256.36719 39.767578 C 258.8818 39.351852 261.67548 39.413161 263.28125 39.292969 C 264.88702 39.172777 266.68269 38.619499 268.78906 38.388672 C 270.79981 38.168326 273.63258 38.187108 276.13086 38.269531 C 278.59316 38.350761 280.22516 39.016264 283.0625 38.931641 C 284.50629 38.888581 286.21799 38.50463 287.92188 38.138672 C 289.62577 37.772714 291.32316 37.425667 292.66797 37.429688 C 295.45384 37.437987 297.48054 37.719466 299.57031 38.546875 C 301.67523 39.38028 303.21061 40.338749 304.97461 42.189453 C 306.72248 44.023231 308.61963 47.061884 309.52539 49.693359 C 310.43433 52.333978 310.95185 55.488606 310.65039 57.705078 C 310.358 59.85492 308.65234 62.980469 308.65234 62.980469 C 308.65234 62.980469 310.83278 60.176046 311.16406 57.740234 C 311.48629 55.371054 311.13326 52.212361 310.1875 49.464844 C 309.23865 46.708185 307.32057 43.633577 305.48242 41.705078 C 303.66041 39.793506 301.99723 38.755303 299.82812 37.896484 C 297.64389 37.031671 295.50248 36.737001 292.66992 36.728516 z M 233.83398 37.378906 C 233.83398 37.378906 228.98587 38.697728 226.87695 39.835938 C 224.81666 40.947913 223.1375 42.136533 221.4082 43.603516 C 219.63811 45.105112 216.82617 48.857422 216.82617 48.857422 C 216.82617 48.857422 220.20097 45.545224 221.86133 44.136719 C 223.56249 42.693598 225.19198 41.541735 227.20898 40.453125 C 229.17739 39.39075 233.83398 37.378906 233.83398 37.378906 z M 302.52344 37.619141 C 302.52344 37.619141 305.82903 39.49613 307.34766 40.773438 C 308.93476 42.108348 310.44138 43.679096 311.58789 45.894531 C 312.73302 48.107291 313.6833 51.387061 313.77344 53.978516 C 313.86434 56.592579 313.37614 59.051281 312.36523 61.146484 C 311.88287 62.146242 311.08511 63.390619 310.11328 64.417969 C 309.14145 65.445318 307.99219 66.828125 307.99219 66.828125 C 307.99219 66.828125 309.33011 66.007821 310.32227 64.958984 C 311.31441 63.910148 312.44017 62.601426 312.99609 61.449219 C 314.06177 59.240492 314.56713 56.671248 314.47266 53.955078 C 314.37736 51.216299 313.41013 47.893277 312.20898 45.572266 C 311.00923 43.25393 309.42418 41.605045 307.79688 40.236328 C 306.1011 38.810011 302.52344 37.619141 302.52344 37.619141 z M 236.83984 38.582031 C 236.83984 38.582031 230.42367 39.935705 227.42578 41.455078 C 224.4835 42.946266 221.46176 45.006188 219.28906 47.103516 C 217.07816 49.237723 214.72266 53.787109 214.72266 53.787109 C 214.72266 53.787109 217.70798 49.601227 219.77344 47.607422 C 221.8771 45.576736 224.85987 43.538923 227.74219 42.078125 C 230.56888 40.645514 236.83984 38.582031 236.83984 38.582031 z M 223.31836 39.363281 C 223.31836 39.363281 218.79148 42.944414 217.28125 44.966797 C 215.9346 46.770134 214.84594 48.318554 213.4375 49.951172 C 212.03298 51.579252 208.95313 55.107422 208.95312 55.107422 C 208.95312 55.107422 212.50996 52.096918 213.9668 50.408203 C 215.41971 48.724027 216.57021 47.216597 217.81641 45.417969 C 219.2256 43.384087 223.31836 39.363281 223.31836 39.363281 z M 279.02539 39.542969 C 279.02539 39.542969 283.30622 40.85365 286.02734 41.09375 C 288.77012 41.33576 292.38284 40.825194 294.96875 41.152344 C 297.67265 41.494423 299.58466 41.336088 301.78516 42.837891 C 303.96213 44.323645 306.03786 47.64408 307.12695 50.371094 C 308.20998 53.08303 308.59222 56.424814 308.30664 58.609375 C 308.02873 60.73529 305.64844 64.603516 305.64844 64.603516 C 305.64844 64.603516 308.68499 61.108956 309 58.699219 C 309.30734 56.348127 308.9118 52.951959 307.77734 50.111328 C 306.6489 47.285774 304.57964 43.897694 302.17969 42.259766 C 299.80325 40.637884 297.69028 40.792176 295.05664 40.458984 C 292.30502 40.110867 288.68695 40.625814 286.08789 40.396484 C 283.46719 40.165246 279.02539 39.542969 279.02539 39.542969 z M 322.83594 39.783203 C 322.83594 39.783203 323.61116 40.996734 324.51758 42.597656 C 325.42401 44.198578 326.16472 46.395858 326.46094 47.675781 C 327.07926 50.347493 326.88679 52.626127 326.33789 55.585938 C 325.79062 58.53694 324.63334 62.003305 322.85352 64.458984 C 321.98374 65.659052 320.41012 67.430148 318.94141 68.695312 C 317.58452 69.864145 316.3457 70.554688 316.3457 70.554688 C 316.3457 70.554688 317.78525 70.13366 319.28125 69.089844 C 320.77725 68.046027 322.44666 66.211971 323.41992 64.869141 C 325.32617 62.239024 326.47031 58.716517 327.02734 55.712891 C 327.58274 52.718073 327.79002 50.306671 327.14453 47.517578 C 326.80884 46.0671 325.80548 44.11686 324.88672 42.494141 C 323.96795 40.87142 322.83594 39.783203 322.83594 39.783203 z M 267.85938 40.765625 C 266.6734 40.764348 265.58181 40.784491 264.64648 40.826172 C 260.90618 40.992852 258.56317 41.73132 256.66016 41.787109 C 254.74548 41.843239 251.08008 41.767578 251.08008 41.767578 C 251.08008 41.767578 254.53942 42.465553 256.5625 42.40625 C 258.59724 42.3466 261.00582 41.788806 264.68164 41.625 C 268.35646 41.46124 274.59594 41.64735 279.34961 42.105469 C 284.11924 42.565119 287.8776 43.05504 291.2168 44.189453 C 294.58093 45.33234 297.53974 46.767584 299.36914 48.433594 C 301.21158 50.111486 301.93363 51.777088 302.57227 53.392578 C 303.20751 54.999519 303.39761 55.763036 303.32617 57.556641 C 303.29347 58.376402 303.21095 59.876587 302.83203 61.246094 C 302.45311 62.615601 301.86328 64.363281 301.86328 64.363281 C 301.86328 64.363281 302.91863 62.96834 303.30273 61.580078 C 303.68684 60.191817 304.08477 58.597603 304.125 57.587891 C 304.1993 55.722545 303.96557 54.739761 303.31641 53.097656 C 302.67063 51.464104 301.87056 49.628901 299.9082 47.841797 C 297.9328 46.042809 294.89524 44.593717 291.47461 43.431641 C 288.02904 42.26109 284.20922 41.769574 279.42578 41.308594 C 275.82622 40.9617 271.41731 40.769456 267.85938 40.765625 z M 235.77148 41.027344 C 235.77148 41.027344 231.38733 42.220248 229.14648 43.318359 C 226.92609 44.406451 224.35465 45.972744 222.48047 47.341797 C 220.6048 48.711935 219.42814 49.9173 217.88672 51.359375 C 216.30059 52.843273 214.90621 55.083222 213.25 56.009766 C 212.42826 56.469479 211.20635 56.950863 210.12305 57.140625 C 209.03975 57.330387 208.11328 57.484375 208.11328 57.484375 C 208.11328 57.484375 209.02116 57.664747 210.12891 57.470703 C 211.23665 57.276659 212.56581 56.96661 213.49414 56.447266 C 215.33809 55.415691 216.72302 53.133073 218.22852 51.724609 C 219.7787 50.274325 220.93216 49.090583 222.77539 47.744141 C 224.62011 46.396613 227.18015 44.83932 229.36719 43.767578 C 231.53378 42.705856 235.77148 41.027344 235.77148 41.027344 z M 291.93555 41.771484 C 290.74754 41.763895 289.66406 41.826172 289.66406 41.826172 C 289.66406 41.826172 292.38715 42.162302 293.90234 42.384766 C 295.41755 42.607232 297.2146 42.975786 298.26758 43.494141 C 300.44413 44.565595 302.62916 46.345556 303.875 48.330078 C 305.11648 50.307666 305.69944 52.673669 306.00391 54.605469 C 306.30757 56.532073 305.96461 57.867328 305.64453 59.568359 C 305.49095 60.384598 305.01397 61.662848 304.57617 62.71875 C 304.13838 63.774652 303.48633 65.505859 303.48633 65.505859 C 303.48633 65.505859 304.59432 63.978111 305.03711 62.910156 C 305.4799 61.842202 305.96455 60.566772 306.13477 59.662109 C 306.4623 57.921341 306.80847 56.498895 306.49805 54.529297 C 306.18844 52.564894 305.6004 50.137761 304.29883 48.064453 C 303.00161 45.998079 300.75219 44.159382 298.48828 43.044922 C 297.32104 42.470318 295.51011 42.116072 293.97461 41.890625 C 293.3988 41.806082 292.64835 41.776038 291.93555 41.771484 z M 251.88672 42.859375 C 249.81556 42.867474 247.7004 42.928707 246.23242 43.101562 C 242.37443 43.55584 238.85736 44.3595 235.63867 45.523438 C 232.42 46.687373 230.00726 48.030291 227.03906 49.882812 C 224.02152 51.766139 218.14844 57.03125 218.14844 57.03125 C 218.14844 57.03125 224.50493 52.288572 227.4082 50.476562 C 230.36084 48.633749 232.71471 47.32517 235.87695 46.181641 C 239.0392 45.038114 242.50265 44.245715 246.31445 43.796875 C 250.06964 43.354703 259.79688 43.330079 259.79688 43.330078 C 259.79688 43.330078 256.53724 42.894218 253.91797 42.867188 C 253.26315 42.86043 252.5771 42.856675 251.88672 42.859375 z M 266.84766 44.945312 C 263.14865 44.891883 260.55744 45.530319 258.63477 45.552734 C 256.68065 45.575514 253.75195 45.619141 253.75195 45.619141 C 253.75195 45.619141 256.80802 46.113122 258.80469 46.089844 C 260.83281 46.066194 263.2017 45.592039 266.83594 45.644531 C 270.46515 45.696951 276.25067 46.366658 280.70703 46.814453 C 285.20268 47.266196 290.28429 46.956488 293.41406 48.285156 C 296.63759 49.653624 298.60507 51.283827 299.74609 53.458984 C 300.85587 55.574589 300.54442 58.279281 300.43359 60.101562 C 300.32975 61.808939 299.85352 63.880859 299.85352 63.880859 C 299.85352 63.880859 300.73599 62.022777 300.9707 60.185547 C 301.19737 58.4113 301.62529 55.534892 300.36523 53.132812 C 299.13643 50.790288 297.00189 49.047666 293.6875 47.640625 C 290.27936 46.193785 285.18508 46.562049 280.77734 46.119141 C 276.33033 45.672284 270.55168 44.998809 266.84766 44.945312 z M 330.60547 45.042969 C 330.60547 45.042969 331.3269 46.798397 331.44531 47.732422 C 331.56714 48.693431 331.60349 49.586916 331.61719 50.236328 C 331.64479 51.547875 331.37109 54.222656 331.37109 54.222656 C 331.37109 54.222656 332.34873 51.75483 332.31641 50.220703 C 332.30011 49.44728 332.16672 48.556155 331.87109 47.408203 C 331.63195 46.479602 330.60547 45.042969 330.60547 45.042969 z M 317.30664 45.431641 C 317.30664 45.431641 319.18017 49.332731 319.60742 51.919922 C 320.04248 54.554397 319.72567 58.723821 319.01367 61.326172 C 318.31573 63.877162 316.16602 67.667969 316.16602 67.667969 C 316.16602 67.667969 318.92814 64.292396 319.68945 61.509766 C 320.43672 58.778494 320.75941 54.607506 320.29688 51.806641 C 319.82654 48.958489 317.30664 45.431641 317.30664 45.431641 z M 262.50781 46.509766 C 260.34295 46.516566 258.19939 46.620605 256.56055 46.742188 C 253.26638 46.986577 251.63516 47.654234 248.95508 47.955078 C 246.26595 48.256938 243.28636 48.259304 240.31445 48.521484 C 237.37288 48.780991 233.6784 48.817465 231.17383 49.541016 C 228.70115 50.255351 227.72329 51.044081 225.625 52.230469 C 223.48278 53.441698 218.67773 57.054687 218.67773 57.054688 C 218.67773 57.054688 223.63014 53.839463 225.70898 52.664062 C 227.83177 51.463822 228.90176 50.716541 231.31445 50.019531 C 233.69526 49.331736 237.38441 49.28181 240.35742 49.019531 C 243.30011 48.759928 246.28032 48.75951 249.00977 48.453125 C 251.74825 48.145724 253.35869 47.482481 256.59766 47.242188 C 259.85308 47.000672 265.15695 46.831883 268.5 47.361328 C 270.1665 47.625256 272.22082 48.124735 273.83008 48.691406 C 274.80284 49.025449 277.74414 50.160156 277.74414 50.160156 C 277.74414 50.160156 275.14325 48.760189 273.95508 48.341797 C 272.33109 47.769939 270.30266 47.140305 268.57812 46.867188 C 266.85862 46.594866 264.67267 46.502984 262.50781 46.509766 z M 274.72656 46.568359 C 274.48007 46.567864 274.34375 46.570312 274.34375 46.570312 C 274.34375 46.570312 276.65188 46.852398 279.26562 47.185547 C 281.93559 47.525862 284.77894 48.185682 286.55273 48.751953 C 290.16402 49.904826 293.85219 51.472585 295.76953 53.322266 C 297.7168 55.200822 298.27067 56.753969 298.61133 58.560547 C 298.77111 59.407873 298.62543 60.653134 298.42773 61.667969 C 298.23006 62.682804 298.22852 63.542969 298.22852 63.542969 C 298.22852 63.542969 298.71505 62.805402 298.91797 61.763672 C 299.12089 60.721942 299.28898 59.452285 299.10352 58.46875 C 298.7537 56.613605 298.13109 54.905733 296.11719 52.962891 C 294.07335 50.991172 290.34628 49.437818 286.70508 48.275391 C 284.85263 47.684011 281.78166 47.203028 279.1582 46.861328 C 277.19061 46.605053 275.46603 46.569847 274.72656 46.568359 z M 262.04297 48.914062 C 259.00903 48.868007 255.84985 49.302258 252.28711 49.882812 C 248.20786 50.547533 242.89032 51.656224 238.9043 53.158203 C 236.87767 53.921858 233.65734 55.709213 230.91602 57.3125 C 228.17468 58.915787 225.77148 61.142578 225.77148 61.142578 C 225.77148 61.142578 228.48281 59.456081 231.21289 57.859375 C 233.94298 56.262668 237.23612 54.534556 239.15234 53.8125 C 243.05203 52.343057 248.34615 51.234544 252.39844 50.574219 C 256.45825 49.912664 259.95413 49.453029 263.29297 49.664062 C 266.58545 49.872167 272.45703 51.257812 272.45703 51.257812 C 272.45703 51.257812 266.81542 49.184768 263.33594 48.964844 C 262.9068 48.937719 262.47639 48.920642 262.04297 48.914062 z M 241.08594 49.085938 C 241.08594 49.085938 238.17821 49.155775 236.54102 49.65625 C 234.93643 50.146753 232.88597 50.946382 230.875 52.142578 C 228.83301 53.357229 226.63644 55.56823 224.74219 56.896484 C 222.83153 58.236238 219.48438 60.570313 219.48438 60.570312 C 219.48438 60.570312 223.13233 58.758542 225.08594 57.388672 C 227.05594 56.007304 229.25486 53.804322 231.18164 52.658203 C 233.13945 51.49363 235.15005 50.709404 236.7168 50.230469 C 238.25093 49.761503 241.08594 49.085938 241.08594 49.085938 z M 247.71289 49.255859 C 247.71289 49.255859 245.03957 49.285896 243.0293 49.755859 C 241.04178 50.220497 238.03167 50.968047 235.78125 52.001953 C 233.5234 53.039274 231.59884 54.691592 229.75781 55.785156 C 227.89803 56.889859 224.68555 58.914063 224.68555 58.914062 C 224.68555 58.914062 228.13412 57.331291 230.01367 56.214844 C 231.91198 55.087259 233.81858 53.4528 235.99023 52.455078 C 238.16933 51.453942 241.16214 50.707123 243.14258 50.244141 C 245.10025 49.786481 247.71289 49.255859 247.71289 49.255859 z M 317.91016 50.058594 C 317.91016 50.058594 318.32833 53.162696 318.2207 55.392578 C 318.11027 57.680534 317.55579 61.591781 316.4043 63.587891 C 315.83653 64.572111 314.8558 65.837166 313.89844 66.595703 C 312.94109 67.35424 312.19922 67.908203 312.19922 67.908203 C 312.19922 67.908203 313.22235 67.689132 314.21289 66.904297 C 315.20344 66.119462 316.35471 65.073041 317.00977 63.9375 C 318.30391 61.694086 318.80621 57.781691 318.91992 55.425781 C 319.03643 53.011799 317.91016 50.058594 317.91016 50.058594 z M 282.85742 50.513672 C 282.85742 50.513672 285.42757 51.590318 286.86328 52.226562 C 288.29898 52.862808 289.7396 53.85605 290.58594 54.505859 C 292.38262 55.885338 293.90286 57.316054 294.58789 59.097656 C 294.90883 59.932348 295.18206 61.315386 295.12109 62.517578 C 295.06009 63.719769 295.0293 64.800781 295.0293 64.800781 C 295.0293 64.800781 295.52885 63.850559 295.5918 62.609375 C 295.6548 61.368191 295.6436 59.89463 295.24023 58.845703 C 294.47676 56.860069 292.84328 55.355933 291.01367 53.951172 C 290.04686 53.208861 288.37378 52.402106 286.91992 51.757812 C 285.46606 51.11352 282.85742 50.513672 282.85742 50.513672 z M 258.3457 50.722656 C 254.14935 50.828931 250.80921 51.760365 246.78516 53.019531 C 242.73443 54.28704 238.01972 56.49456 234.29492 58.449219 C 230.54434 60.41741 224.58008 64.84375 224.58008 64.84375 C 224.58008 64.84375 230.89523 60.911084 234.57422 58.980469 C 238.27899 57.036321 242.9772 54.83957 246.96484 53.591797 C 250.97915 52.335683 254.24546 51.426502 258.36133 51.322266 C 262.46093 51.218441 267.64017 52.253945 271.37891 53.234375 C 275.12048 54.215552 277.56817 55.113301 280.68555 56.814453 C 283.74827 58.485782 290.02344 63.28125 290.02344 63.28125 C 290.02344 63.28125 284.18315 58.03908 280.97266 56.287109 C 277.8168 54.564963 275.29774 53.642004 271.53125 52.654297 C 267.76191 51.665842 262.55832 50.615969 258.3457 50.722656 z M 279.59961 50.970703 C 279.59961 50.970703 280.53144 51.580948 281.74414 52.087891 C 282.95684 52.594832 284.37157 53.24186 285.11719 53.75 C 286.66929 54.807755 287.66886 55.750666 288.76758 57.289062 C 289.29517 58.027788 289.97209 59.455519 290.50195 60.683594 C 291.03181 61.911668 291.48633 63.142578 291.48633 63.142578 C 291.48633 63.142578 291.4958 61.723964 290.96094 60.484375 C 290.42611 59.244786 289.76083 57.817219 289.17578 56.998047 C 288.04921 55.42065 286.98281 54.415687 285.39844 53.335938 C 284.57582 52.775326 283.1613 52.136581 281.9375 51.625 C 280.7137 51.113419 279.59961 50.970703 279.59961 50.970703 z M 315.26367 51.201172 C 315.26367 51.201172 315.8309 55.071093 315.52148 57.035156 C 315.20495 59.044331 313.99603 62.583986 312.92773 64.232422 C 311.87749 65.853031 309.67578 67.607422 309.67578 67.607422 C 309.67578 67.607422 312.31211 66.194949 313.51562 64.373047 C 314.98557 62.147818 315.75547 59.400476 316.0918 57.265625 C 316.43523 55.085662 315.26367 51.201172 315.26367 51.201172 z M 259.93555 53.791016 C 259.29003 53.789268 258.66502 53.793083 258.07227 53.794922 C 255.67901 53.802322 253.47069 54.090874 251.25977 54.279297 C 249.23736 54.451653 245.22461 55.074219 245.22461 55.074219 C 245.22461 55.074219 249.49107 54.81285 251.47266 54.736328 C 253.97951 54.639518 255.71217 54.506594 258.07422 54.494141 C 260.47385 54.481491 263.33935 54.457036 265.81641 54.853516 C 268.30417 55.251711 270.81556 56.142953 273.02148 56.976562 C 275.18658 57.794739 284.34766 61.933594 284.34766 61.933594 C 284.34766 61.933594 275.52589 57.174929 273.26953 56.322266 C 271.05401 55.485036 268.5035 54.574389 265.92773 54.162109 C 263.98788 53.851614 261.87211 53.796258 259.93555 53.791016 z M 257.84375 56.001953 C 257.47712 56.000683 257.10302 56.007138 256.71875 56.019531 C 253.62751 56.119231 250.23228 56.86708 246.83398 57.898438 C 243.40449 58.939269 238.79798 61.141712 236.44336 62.306641 C 234.07367 63.479024 232.69141 64.84375 232.69141 64.84375 C 232.69141 64.84375 234.1856 64.024838 236.51367 62.873047 C 238.8568 61.7138 243.70444 59.579802 247.03711 58.568359 C 250.40099 57.547444 253.74741 56.817288 256.74219 56.720703 C 259.75405 56.623563 262.10272 56.945405 264.86914 57.728516 C 266.20539 58.106776 267.74406 58.93712 269.20703 59.732422 C 270.67 60.527724 272.04322 61.292214 273.1875 61.521484 C 275.3667 61.958115 278.54688 61.478516 278.54688 61.478516 C 278.54688 61.478516 275.32541 61.234557 273.32617 60.833984 C 272.38123 60.644655 271.00426 59.912643 269.54102 59.117188 C 268.07777 58.321733 266.51477 57.466899 265.05859 57.054688 C 262.59247 56.356582 260.41014 56.010841 257.84375 56.001953 z M 260.7168 58.537109 C 259.16567 58.546575 257.57998 58.615301 256.47656 58.810547 C 253.5719 59.324519 250.0732 60.476446 247.83594 61.417969 C 246.70719 61.892988 246.00451 62.335793 245.3457 62.761719 C 244.6869 63.187643 243.62786 63.715225 242.61523 64.167969 C 240.60628 65.066159 235.48633 67.074219 235.48633 67.074219 C 235.48633 67.074219 240.76607 65.761757 242.90234 64.806641 C 243.96232 64.33273 245.07226 63.772623 245.72656 63.349609 C 246.38087 62.926596 247.0254 62.517854 248.10742 62.0625 C 250.29169 61.143277 253.77757 59.99935 256.59961 59.5 C 259.38387 59.007333 265.79102 58.669922 265.79102 58.669922 C 265.79102 58.669922 263.302 58.521333 260.7168 58.537109 z M 255.91602 60.046875 C 255.78364 60.043584 255.65324 60.044465 255.52539 60.050781 C 253.60628 60.145581 252.92351 60.50183 251.44531 61.228516 C 250.6401 61.624357 249.47861 62.483076 248.48633 63.253906 C 247.49405 64.024736 246.91406 64.970703 246.91406 64.970703 C 246.91406 64.970703 247.70753 64.51126 248.6875 63.75 C 249.66746 62.988739 251.07669 62.190345 251.75391 61.857422 C 253.24056 61.126576 253.71368 60.841236 255.56055 60.75 C 257.28099 60.66501 259.98646 61.831783 262.59766 62.0625 C 265.19207 62.291735 271.31445 62.056641 271.31445 62.056641 C 271.31445 62.056641 265.11498 61.58214 262.66016 61.365234 C 260.37447 61.163278 257.90167 60.096243 255.91602 60.046875 z " /><path
       id="path43"
       style="fill:#000000;fill-opacity:0.2;stroke:none;stroke-width:1px;stroke-linecap:butt;stroke-linejoin:miter;stroke-opacity:1"
       d="m 250.16992,28.173828 -2.07617,0.757813 c 0,0 -8.7275,3.716784 -10.99023,4.363281 -2.26275,0.646497 -9.53711,3.394531 -9.53711,3.394531 l -6.30274,2.423828 -8.88867,8.566407 -5.81982,9.17251 c 0,0 1.19944,0.464644 1.94091,0.524755 0.74147,0.06011 2.44001,-0.250403 2.44001,-0.250403 l 3.37835,-1.042566 c 2.24155,-1.422033 3.62536,-0.959326 5.00977,-0.324218 l -0.92188,1.3125 0.48243,-0.179688 c 0,0 2.10659,-1.258068 3.59179,-1.537109 0.90146,-0.169369 1.42947,0.419721 1.53516,0.728515 0.27981,0.817546 -3.87891,4.201172 -3.87891,4.201172 l 6.50781,-4.507812 c 0,0 -0.18345,1.107824 -0.43359,1.613281 -0.25015,0.505456 -1.04687,1.355469 -1.04687,1.355469 l 4.99218,-3.146485 c 0,0 -1.13431,2.087854 -1.79101,2.957032 -0.65671,0.869176 -2.09766,2.253906 -2.09766,2.253906 l 6.15235,-4.242188 c 0,0 -2.67679,3.426217 -3.93164,4.769532 -1.25486,1.343314 -3.52344,3.332031 -3.52344,3.332031 l 8.91015,-6 2.09961,-0.808594 c 0,0 -1.21639,3.40959 -2.05859,4.705078 -0.84219,1.295488 -2.78906,3.052735 -2.78906,3.052735 l 4.52539,-2.585938 2.91015,-1.455078 c 0,0 -1.02482,2.873804 -1.84375,3.755859 -0.81893,0.882055 -2.74023,2.425782 -2.74023,2.425782 l 3.61328,-1.494141 5.17188,-1.939453 2.80078,-1.453125 c -0.94686,-2.435073 -1.84345,-4.825161 -2.36524,-6.533203 -1.56726,-5.130279 -1.70973,-9.882973 -0.45312,-16.111328 0.6349,-3.146867 4.12556,-8.007815 7.42773,-12.054688 z"
       sodipodi:nodetypes="ccscccczcccccssccsccsccscccscccsccccssc" /></g></svg>
