<?xml version="1.0" encoding="UTF-8" standalone="no"?>
<!-- Created with Inkscape (http://www.inkscape.org/) -->

<svg
   width="400"
   height="400"
   viewBox="0 0 400 400"
   version="1.1"
   id="svg19625"
   xml:space="preserve"
   inkscape:version="1.2.2 (b0a8486, 2022-12-01)"
   sodipodi:docname="LewisNasoLabialFolds.svg"
   xmlns:inkscape="http://www.inkscape.org/namespaces/inkscape"
   xmlns:sodipodi="http://sodipodi.sourceforge.net/DTD/sodipodi-0.dtd"
   xmlns="http://www.w3.org/2000/svg"
   xmlns:svg="http://www.w3.org/2000/svg"><sodipodi:namedview
     id="namedview19627"
     pagecolor="#ffffff"
     bordercolor="#666666"
     borderopacity="1.0"
     inkscape:showpageshadow="2"
     inkscape:pageopacity="0.0"
     inkscape:pagecheckerboard="0"
     inkscape:deskcolor="#d1d1d1"
     inkscape:document-units="px"
     showgrid="false"
     inkscape:zoom="5.9"
     inkscape:cx="290.59322"
     inkscape:cy="200"
     inkscape:window-width="1440"
     inkscape:window-height="810"
     inkscape:window-x="2342"
     inkscape:window-y="201"
     inkscape:window-maximized="0"
     inkscape:current-layer="layer1" /><defs
     id="defs19622" /><g
     inkscape:label="Layer 1"
     inkscape:groupmode="layer"
     id="layer1"><path
       style="fill:#000000;fill-opacity:0.2;stroke:none;stroke-width:1px;stroke-linecap:butt;stroke-linejoin:miter;stroke-opacity:1"
       d="m 297.11864,165.9322 c 0,0 -12.07699,15.63946 -15.08474,21.52543 -3.00775,5.88597 -2.11164,8.55661 -1.10169,11.48304 1.00994,2.92644 6.77114,12.96486 6.77114,12.96486 0,0 -3.91576,-10.10561 -4.35289,-14.13801 -0.43713,-4.0324 -0.21401,-6.35283 1.58411,-10.99991 1.79813,-4.64708 12.18407,-20.83541 12.18407,-20.83541 z"
       id="path19851"
       sodipodi:nodetypes="czzczzc" /><path
       style="fill:#000000;fill-opacity:0.2;stroke:none;stroke-width:1px;stroke-linecap:butt;stroke-linejoin:miter;stroke-opacity:1"
       d="m 328.55002,172.2982 c 0,0 4.71232,9.47172 6.12722,14.8454 1.4149,5.37368 0.83894,8.80887 0.83894,8.80887 0,0 0.96817,-2.32056 1.18354,-3.78269 0.21537,-1.46213 0.33353,-2.89127 -0.42693,-6.00008 -0.76046,-3.10882 -7.72277,-13.8715 -7.72277,-13.8715 z"
       id="path20503"
       sodipodi:nodetypes="czczzc" /><path
       style="fill:#000000;fill-opacity:1;stroke:none;stroke-width:1px;stroke-linecap:butt;stroke-linejoin:miter;stroke-opacity:1"
       d="m 328.27562,171.73727 c 0,0 4.98672,10.03265 6.40162,15.40633 1.4149,5.37368 0.83894,8.80887 0.83894,8.80887 0,0 0.65352,-2.49286 0.56927,-4.04488 -0.0842,-1.55202 -0.0485,-2.01472 -0.92882,-5.18346 -0.88031,-3.16874 -6.88101,-14.98686 -6.88101,-14.98686 z"
       id="path20505"
       sodipodi:nodetypes="czczzc" /><path
       style="fill:#000000;fill-opacity:1;stroke:none;stroke-width:1px;stroke-linecap:butt;stroke-linejoin:miter;stroke-opacity:1"
       d="m 294.31204,169.58873 c -1.00599,1.46979 -4.96383,6.4573 -7.51069,10.28456 -2.1938,3.2967 -4.221,6.4242 -4.80982,7.58434 -3.12058,6.14838 -2.28113,7.49729 -1.82204,9.91525 0.45909,2.41796 7.46968,14.65853 7.46968,14.65853 0,0 -5.73592,-11.69886 -6.07138,-16.27295 -0.18611,-2.53768 1.21721,-6.56722 4.27482,-12.24083 2.77713,-5.15315 6.88643,-11.24913 8.46943,-13.9289 z"
       id="path20507"
       sodipodi:nodetypes="csszcssc" /></g></svg>
