<?xml version="1.0" encoding="UTF-8" standalone="no"?>
<!-- Created with Inkscape (http://www.inkscape.org/) -->

<svg
   width="400"
   height="400"
   viewBox="0 0 400 400"
   version="1.1"
   id="svg19625"
   xml:space="preserve"
   inkscape:version="1.2.2 (b0a8486, 2022-12-01)"
   sodipodi:docname="MeaneyNasoLabialFolds.svg"
   xmlns:inkscape="http://www.inkscape.org/namespaces/inkscape"
   xmlns:sodipodi="http://sodipodi.sourceforge.net/DTD/sodipodi-0.dtd"
   xmlns="http://www.w3.org/2000/svg"
   xmlns:svg="http://www.w3.org/2000/svg"><sodipodi:namedview
     id="namedview19627"
     pagecolor="#ffffff"
     bordercolor="#666666"
     borderopacity="1.0"
     inkscape:showpageshadow="2"
     inkscape:pageopacity="0.0"
     inkscape:pagecheckerboard="0"
     inkscape:deskcolor="#d1d1d1"
     inkscape:document-units="px"
     showgrid="false"
     inkscape:zoom="1.475"
     inkscape:cx="84.40678"
     inkscape:cy="200"
     inkscape:window-width="1440"
     inkscape:window-height="810"
     inkscape:window-x="2215"
     inkscape:window-y="249"
     inkscape:window-maximized="0"
     inkscape:current-layer="layer1" /><defs
     id="defs19622" /><g
     inkscape:label="Layer 1"
     inkscape:groupmode="layer"
     id="layer1"><path
       style="fill:#000000;fill-opacity:0.2;stroke:none;stroke-width:1px;stroke-linecap:butt;stroke-linejoin:miter;stroke-opacity:1"
       d="m 297.98666,168.53275 c 0,0 -0.19422,0.90574 -3.27174,3.9685 -3.07752,3.06276 -13.95713,7.63481 -17.04668,11.40557 -3.08955,3.77076 -2.53433,6.07083 -2.71186,8.19729 -0.17753,2.12646 0.29786,4.84504 0.29786,4.84504 0,0 0.37721,-3.86351 0.55812,-5.92368 0.1809,-2.06017 0.75154,-3.69058 2.79234,-6.56053 2.0408,-2.86995 15.10573,-8.83662 17.50551,-12.40196 2.39978,-3.56534 1.87645,-3.53023 1.87645,-3.53023 z"
       id="path25683"
       sodipodi:nodetypes="czzzczzzc" /><path
       style="fill:#000000;fill-opacity:0.2;stroke:none;stroke-width:1px;stroke-linecap:butt;stroke-linejoin:miter;stroke-opacity:1"
       d="m 328.38984,174.57627 c 0,0 3.21052,2.50615 4.8305,4.83051 1.61998,2.32436 4.49153,10.76272 4.49153,10.76272 0,0 -0.71305,-5.20411 -1.35594,-7.03391 -0.64289,-1.8298 -1.11703,-3.19086 -2.37288,-4.57627 -1.25585,-1.38541 -5.59321,-3.98305 -5.59321,-3.98305 z"
       id="path25685"
       sodipodi:nodetypes="czczzc" /></g></svg>
