<?xml version="1.0" encoding="UTF-8" standalone="no"?>
<!-- Created with Inkscape (http://www.inkscape.org/) -->

<svg
   width="400"
   height="400"
   viewBox="0 0 400 400"
   version="1.1"
   id="svg19625"
   xml:space="preserve"
   inkscape:version="1.2.2 (b0a8486, 2022-12-01)"
   sodipodi:docname="NimoyNasoLabialFolds.svg"
   xmlns:inkscape="http://www.inkscape.org/namespaces/inkscape"
   xmlns:sodipodi="http://sodipodi.sourceforge.net/DTD/sodipodi-0.dtd"
   xmlns="http://www.w3.org/2000/svg"
   xmlns:svg="http://www.w3.org/2000/svg"><sodipodi:namedview
     id="namedview19627"
     pagecolor="#ffffff"
     bordercolor="#666666"
     borderopacity="1.0"
     inkscape:showpageshadow="2"
     inkscape:pageopacity="0.0"
     inkscape:pagecheckerboard="0"
     inkscape:deskcolor="#d1d1d1"
     inkscape:document-units="px"
     showgrid="false"
     inkscape:zoom="1.475"
     inkscape:cx="83.728814"
     inkscape:cy="200"
     inkscape:window-width="1440"
     inkscape:window-height="810"
     inkscape:window-x="2342"
     inkscape:window-y="201"
     inkscape:window-maximized="0"
     inkscape:current-layer="layer1" /><defs
     id="defs19622" /><g
     inkscape:label="Layer 1"
     inkscape:groupmode="layer"
     id="layer1"><path
       style="fill:#000000;fill-opacity:0.2;stroke:none;stroke-width:1px;stroke-linecap:butt;stroke-linejoin:miter;stroke-opacity:1"
       d="m 297.11864,165.9322 c 0,0 -11.65326,14.36827 -15.08474,21.52543 -3.43148,7.15716 -3.72181,7.3278 -3.38983,10.33898 0.33198,3.01118 3.72881,6.27119 3.72881,6.27119 0,0 -1.55137,-4.21703 -1.56479,-6.46977 -0.0134,-2.25274 0.59107,-4.9969 3.66038,-11.1694 3.06931,-6.1725 12.65017,-20.49643 12.65017,-20.49643 z"
       id="path19851"
       sodipodi:nodetypes="czzczzc" /><path
       style="fill:#000000;fill-opacity:0.2;stroke:none;stroke-width:1px;stroke-linecap:butt;stroke-linejoin:miter;stroke-opacity:1"
       d="m 328.44511,170.30487 c 0,0 4.81723,11.46505 6.23213,16.83873 1.4149,5.37368 0.83894,8.80887 0.83894,8.80887 0,0 0.86326,-2.37302 1.07863,-3.83515 0.21537,-1.46213 0.28107,-2.52407 -0.47939,-5.63288 -0.76046,-3.10882 -7.67031,-16.17957 -7.67031,-16.17957 z"
       id="path20503"
       sodipodi:nodetypes="czczzc" /><path
       style="fill:#000000;fill-opacity:1;stroke:none;stroke-width:1px;stroke-linecap:butt;stroke-linejoin:miter;stroke-opacity:1"
       d="m 328.27562,169.7964 c 0,0 4.98672,11.97352 6.40162,17.3472 1.4149,5.37368 0.83894,8.80887 0.83894,8.80887 0,0 0.65352,-2.49286 0.56927,-4.04488 -0.0842,-1.55202 -0.0485,-2.01472 -0.92882,-5.18346 -0.88031,-3.16874 -6.88101,-16.92773 -6.88101,-16.92773 z"
       id="path20505"
       sodipodi:nodetypes="czczzc" /><path
       style="fill:#000000;fill-opacity:1;stroke:none;stroke-width:1px;stroke-linecap:butt;stroke-linejoin:miter;stroke-opacity:1"
       d="m 288.88831,176.79212 c -1.87252,2.73583 -5.62437,8.15852 -6.89678,10.66551 -3.1206,6.14837 -3.80655,7.92102 -3.34746,10.33898 0.45909,2.41796 2.54237,5.00001 2.54237,5.00001 0,0 -1.17326,-2.56213 -1.44369,-5.33899 -0.27044,-2.77687 5.81968,-15.03533 9.14556,-20.66551 z"
       id="path20507"
       sodipodi:nodetypes="cszczc" /></g></svg>
