<?xml version="1.0" encoding="UTF-8" standalone="no"?>
<!-- Created with Inkscape (http://www.inkscape.org/) -->

<svg
   version="1.1"
   id="svg4319"
   width="400"
   height="400"
   viewBox="0 0 400 400"
   sodipodi:docname="tosKlingonAverageFemale.svg"
   inkscape:version="1.2.2 (b0a8486, 2022-12-01)"
   xmlns:inkscape="http://www.inkscape.org/namespaces/inkscape"
   xmlns:sodipodi="http://sodipodi.sourceforge.net/DTD/sodipodi-0.dtd"
   xmlns="http://www.w3.org/2000/svg"
   xmlns:svg="http://www.w3.org/2000/svg">
  <defs
     id="defs4323" />
  <sodipodi:namedview
     id="namedview4321"
     pagecolor="#ffffff"
     bordercolor="#666666"
     borderopacity="1.0"
     inkscape:showpageshadow="2"
     inkscape:pageopacity="0.0"
     inkscape:pagecheckerboard="0"
     inkscape:deskcolor="#d1d1d1"
     showgrid="false"
     inkscape:zoom="2.15"
     inkscape:cx="199.76744"
     inkscape:cy="200"
     inkscape:window-width="1920"
     inkscape:window-height="1080"
     inkscape:window-x="2338"
     inkscape:window-y="160"
     inkscape:window-maximized="0"
     inkscape:current-layer="g4327">
    <inkscape:page
       x="0"
       y="0"
       id="page4325"
       width="400"
       height="400" />
  </sodipodi:namedview>
  <g
     inkscape:groupmode="layer"
     id="layer3"
     inkscape:label="Neck">
    <path
       d="m 270.11986,233.3544 13.08267,-27.18533 -69.57067,-54.87466 -5.48933,30.848 -6.20667,17.47466 c -3.96533,4.80267 -9.04133,15.21467 -18.424,23.548 -5.99733,5.32533 -13.33066,8.95067 -20.41466,12.58267 -7.096,3.63733 -13.98267,8.43866 -21.55334,10.944 -6.48266,2.144 -12.892,4.328 -19.53066,6.244 -6.75334,1.94933 -12.88667,5.264 -19.55867,7.328 -3.943999,1.21866 -7.077332,2.14533 -4.983999,7.148 1.278667,3.05466 4.463999,5.552 6.793329,7.87466 9.23467,9.20667 17.49334,18.89467 27.512,26.852 8.684,6.89867 16.68134,14.628 24.73867,22.332 2.27333,2.17467 75.52933,8.71067 139.36666,3.84934 12.11467,-0.92134 19.27334,-2.02934 20.92667,-13.95467 1.27067,-9.16667 2.11733,-18.18133 3.112,-27.22667 0.63333,-5.756 1.348,-11.88933 2.08267,-17.77733 0.70666,-5.664 -0.836,-7.1 -5.22134,-10.124 -3.38,-2.32933 -7.256,-3.78533 -10.51333,-6.14533 -10.80933,-7.83067 -23.656,-13.02667 -36.148,-19.73734"
       style="fill:#cd976d;fill-opacity:1;fill-rule:nonzero;stroke:none;stroke-width:1.33333"
       id="path5695" />
    <path
       d="m 285.86613,207.63814 c -0.0107,-0.004 -0.12534,0.15066 -0.13334,0.16133 -3.98533,5.21867 -6.39866,12.18267 -9.17866,18.08133 -1.24534,2.64134 -2.552,5.26134 -3.77467,7.91467 -1.97333,4.28533 -5.53067,8.924 -4.212,13.912 0.204,0.77333 1.896,8.104 1.39467,7.94 -4.604,-1.516 -4.92134,-10.64533 -4.35867,-14.45733 0.132,-0.89867 14.50267,-36.10934 14.50267,-36.10934 0,0 5.75866,2.556 5.76,2.55734"
       style="fill:#000000;fill-opacity:1;fill-rule:nonzero;stroke:none;stroke-width:1.33333"
       id="path8811" />
    <path
       id="path8889"
       style="opacity:0.199997;fill:#000000;fill-opacity:1;fill-rule:nonzero;stroke:none;stroke-width:1.33333"
       d="m 175.19786,282.96094 c 6.12534,0.376 12.016,2.636 18.116,3.13733 3.36667,0.27733 6.676,0.476 10.012,1.056 3.884,0.67467 8.028,1.58133 12.06133,2.01467 3.54134,0.38133 18.592,0.0307 19.104,4.25466 0.30134,2.5 -3.01466,3.15867 -4.55066,4.15734 -3.596,2.336 -4.428,1.348 -8.71734,-0.34 -6.4,-2.51734 -13.824,-3.22134 -20.57466,-5.144 -8.98533,-2.56 -18.244,-4.60267 -27.14133,-6.756 -0.168,-0.54267 -0.16667,-1.784 0,-2.32667 0.57333,-0.0587 1.472,-0.19067 1.69066,-0.0533 m 109.7608,2.152 c 3.616,-0.81334 7.20533,-1.71734 10.70933,-2.83334 5.976,-1.90266 12.24134,-4.82933 17.992,-6.25866 4.15867,5.148 -12.89466,12.12 -16.20933,12.62133 -8.37333,1.26667 -16.86,3.40667 -24.33333,7.49333 -4.06,2.22 -10.67867,5.55067 -14.32534,0.18267 -4.10133,-6.04 5.34934,-6.672 8.98267,-7.52533 5.63067,-1.32267 11.44,-2.388 17.184,-3.68" />
    <path
       id="path105821"
       style="opacity:0.199997;fill:#000000;fill-opacity:1;fill-rule:nonzero;stroke:none;stroke-width:1.33333"
       d="M 213.63281 151.29492 L 208.14258 182.14258 L 207.94922 182.6875 C 207.94122 182.7328 207.93359 182.76563 207.93359 182.76562 C 207.342 186.03273 206.25628 188.90797 204.81641 191.50391 C 204.81543 191.50567 204.81543 191.508 204.81445 191.50977 L 201.93555 199.61719 C 200.94455 200.81785 199.88304 202.36868 198.70312 204.15039 C 196.3433 207.7138 193.50551 212.19845 189.79102 216.64453 C 188.86211 217.75639 187.87883 218.8651 186.83398 219.95703 C 185.78978 221.0483 184.68419 222.12467 183.51172 223.16602 C 182.3471 224.20014 181.12095 225.15386 179.86719 226.07227 C 179.82182 226.10518 179.77795 226.13905 179.73242 226.17188 C 178.7157 226.91201 177.65063 227.58391 176.58984 228.26367 C 176.1016 228.57507 175.62223 228.89223 175.12109 229.19727 C 173.93535 229.92 172.74008 230.62307 171.52344 231.29688 C 171.21826 231.46706 170.90785 231.6357 170.59961 231.80469 C 169.28979 232.51675 167.98507 233.2262 166.66406 233.9082 C 166.12576 234.18848 165.56678 234.47626 165.02344 234.75586 C 164.38123 235.08478 163.73697 235.42027 163.09766 235.74805 C 157.84 238.44306 152.69393 241.76832 147.30273 244.33398 C 147.30075 244.33522 147.29886 244.33666 147.29688 244.33789 C 147.05688 244.48722 146.85367 244.64407 146.65234 244.80273 C 146.42707 244.83216 146.20966 244.89598 145.98242 244.93164 C 144.52333 245.5846 143.04917 246.19296 141.54297 246.69141 C 138.86142 247.57827 136.19155 248.465 133.51367 249.34375 C 131.61763 250.25671 129.72233 251.15364 127.76758 251.8457 C 121.42091 254.09237 115.12412 256.49186 108.68945 258.47852 C 107.45338 258.86028 106.13389 259.15846 104.78906 259.4375 C 104.01103 259.71309 103.24633 260.01889 102.45508 260.26367 C 98.511083 261.48233 95.377372 262.40944 97.470703 267.41211 C 98.749369 270.46677 101.93434 272.96445 104.26367 275.28711 C 109.68002 280.68703 114.79101 286.21523 120.08789 291.5 C 122.08862 287.67148 124.62536 284.23407 128.03125 281.09375 C 132.45791 277.01242 137.24612 274.89264 142.93945 273.19531 C 147.43145 271.85664 152.41854 271.0465 157.0332 269.70117 C 159.53587 268.9705 168.26821 268.53946 172.04688 266.07812 C 180.28687 264.47947 187.96662 258.55733 196.47461 258.5 C 205.03593 258.4427 212.76018 265.54121 219.9375 269.5332 C 221.44417 270.37053 235.50547 278.55499 236.24414 274.59766 C 236.53747 273.019 232.241 269.43761 231.34766 268.48828 C 227.41433 264.31495 223.06661 260.32885 219.61328 255.74219 C 216.90261 252.14219 214.94505 247.62874 215.73438 243.19141 C 216.42771 239.29275 219.1727 236.00153 222.44336 233.76953 C 230.79402 228.07221 240.57608 227.19383 250.30273 228.8125 C 252.94943 229.25228 269.82844 233.91948 271.41602 230.6582 L 274.0625 225.16211 L 275.87695 221.38867 L 283.20117 206.16992 L 213.63281 151.29492 z " />
    <path
       id="path8803"
       style="fill:#000000;fill-opacity:1;fill-rule:nonzero;stroke:none;stroke-width:1.33333"
       d="M 211.64453 149.5293 C 210.63386 154.52529 208.29491 174.65365 207.51758 179.68164 C 207.00024 183.02164 205.76725 186.22193 203.66992 190.66992 C 202.66992 192.79392 202.29409 195.10532 201.24609 197.22266 C 199.00877 201.74531 195.59623 205.81413 192.60156 209.85547 C 189.46024 214.09546 186.15103 218.23692 182.3457 221.90625 C 172.49904 231.40224 159.80146 237.32597 147.10547 242.41797 C 141.6668 244.55664 105.88814 258.86185 98.382812 260.58984 C 90.876154 262.31651 99.378906 262.91406 99.378906 262.91406 C 99.378906 262.91406 150.32672 244.51606 152.38672 243.38672 C 152.4231 243.36676 152.44539 243.34632 152.47852 243.32617 C 152.57248 243.28993 152.67035 243.26329 152.76367 243.22656 C 154.53967 242.5279 156.30102 241.78862 158.04102 241.00195 C 173.99567 233.7833 188.33354 222.39876 198.26953 207.91211 C 199.69753 205.82944 201.03238 203.68323 202.26172 201.47656 C 203.70572 198.88457 205.00028 196.21584 206.12695 193.47852 C 207.74428 189.54918 209.03866 185.49272 210.22266 181.41406 C 211.51332 176.96207 213.98652 157.35225 215.47852 152.93359 C 215.47852 152.93359 211.64453 149.52797 211.64453 149.5293 z " />
  </g>
  <g
     id="g4327"
     inkscape:groupmode="layer"
     inkscape:label="Uniform">
    <path
       d="m 297.09533,400.13253 c 0,0 13.86666,-57.26666 16.032,-95.27999 0,0 -37.916,3.97066 -82.97067,3.97066 -45.05466,0 -89.37866,-5.46533 -89.37866,-5.46533 0,0 71.07733,86.648 81.26266,96.77466 z"
       style="fill:#d1bd7f;fill-opacity:1;fill-rule:nonzero;stroke:none;stroke-width:1.33333"
       id="path5699" />
    <path
       d="m 297.09533,400.13253 c 0,0 13.86666,-57.26666 16.032,-95.27999 0,0 -37.916,3.97066 -82.97067,3.97066 -45.05466,0 -89.37866,-5.46533 -89.37866,-5.46533 0,0 71.07733,86.648 81.26266,96.77466 z"
       style="opacity:0.199997;fill:#000000;fill-opacity:1;fill-rule:nonzero;stroke:none;stroke-width:1.33333"
       id="path5709" />
    <path
       id="path7933"
       style="opacity:0.199997;fill:#000000;fill-opacity:1;fill-rule:nonzero;stroke:none;stroke-width:1.33333"
       d="m 295.95813,400.13253 h -5.47467 l -1.61467,-6.49466 h 5.50934 z m -10.95014,0 h -5.47466 l -1.684,-6.49466 h 5.50933 z m -10.95,0 h -5.47466 l -1.752,-6.49466 h 5.50933 z m -10.95,0 h -5.47466 l -1.82134,-6.49466 h 5.50934 z m -10.95,0 h -5.47466 l -1.88934,-6.49466 h 5.50934 z m -10.95,0 h -5.47466 l -1.95867,-6.49466 h 5.50933 z m -10.95,0 h -5.47466 l -2.028,-6.49466 h 5.50933 z m 69.62934,-6.49453 h -5.50934 l -1.6,-6.576 h 5.544 z m -11.0188,0 h -5.50934 l -1.66933,-6.576 h 5.544 z m -11.0188,0 h -5.50934 l -1.74,-6.576 h 5.54534 z m -11.0188,0 h -5.50934 l -1.80933,-6.576 h 5.544 z m -11.01867,0 h -5.50933 l -1.87867,-6.576 h 5.544 z m -11.0188,0 h -5.50933 l -1.948,-6.576 h 5.544 z m -11.0188,0 h -5.50933 l -2.01734,-6.576 h 5.544 z m -11.0188,0 h -5.50933 l -2.088,-6.576 h 5.544 z m 81.1104,-6.57667 h -5.544 l -1.58533,-6.66 h 5.58 z m -11.0884,0 h -5.544 l -1.656,-6.66 h 5.58 z m -11.0884,0 h -5.544 l -1.72667,-6.66 h 5.58 z m -11.0884,0 h -5.544 l -1.79733,-6.66 h 5.58 z m -11.0884,0 h -5.544 l -1.868,-6.66 h 5.58 z m -11.0884,0 h -5.544 l -1.93733,-6.66 h 5.57866 z m -11.08853,0 h -5.544 l -2.008,-6.66 h 5.57866 z m -11.0884,0 h -5.544 l -2.07867,-6.66 h 5.57867 z m -11.0884,0 h -5.544 l -2.14934,-6.66 h 5.57867 z m 81.578,-6.66026 h -5.58 l -1.64,-6.74534 h 5.61466 z m -11.15894,0 h -5.58 l -1.712,-6.74534 h 5.61467 z m -11.15893,0 h -5.58 l -1.784,-6.74534 h 5.616 z m -11.15893,0 h -5.58 l -1.85467,-6.74534 h 5.61467 z m -11.15894,0 h -5.58 l -1.92666,-6.74534 h 5.616 z m -11.15893,0 h -5.58 l -1.99733,-6.74534 h 5.61466 z m -11.15893,0 h -5.58 l -2.06934,-6.74534 h 5.616 z m -11.15894,0 h -5.58 l -2.14,-6.74534 h 5.61467 z m -11.15893,0 h -5.58 l -2.212,-6.74534 h 5.61467 z m 93.2812,-6.74547 h -5.61467 l -1.62666,-6.832 h 5.652 z m -11.2304,0 h -5.61467 l -1.69866,-6.832 h 5.65066 z m -11.2304,0 h -5.61467 l -1.772,-6.832 h 5.652 z m -11.23027,0 h -5.61466 l -1.844,-6.832 h 5.652 z m -11.2304,0 h -5.61466 l -1.916,-6.832 h 5.65066 z m -11.2304,0 h -5.61466 l -1.988,-6.832 h 5.65066 z m -11.23026,0 h -5.61467 l -2.06133,-6.832 h 5.652 z m -11.2304,0 h -5.61467 l -2.13333,-6.832 h 5.652 z m -11.2304,0 h -5.61467 l -2.20533,-6.832 h 5.65066 z m 93.90426,-6.83253 h -5.652 l -1.60933,-6.92134 h 5.688 z m -11.30266,0 h -5.652 l -1.68267,-6.92134 h 5.688 z m -11.30267,0 h -5.652 l -1.756,-6.92134 h 5.688 z m -11.3028,0 h -5.652 l -1.82933,-6.92134 h 5.688 z m -11.30267,0 h -5.652 l -1.90266,-6.92134 h 5.688 z m -11.30266,0 h -5.652 l -1.976,-6.92134 h 5.688 z m -11.30267,0 h -5.652 l -2.04933,-6.92134 h 5.688 z m -11.3028,0 h -5.652 l -2.12267,-6.92134 h 5.688 z m -11.30267,0 h -5.652 l -2.196,-6.92134 h 5.688 z m -11.30266,0 h -5.652 l -2.26933,-6.92134 h 5.68799 z m 105.83826,-6.92094 h -5.688 l -1.59466,-7.012 h 5.72533 z m -11.376,0 h -5.688 l -1.66933,-7.012 h 5.72533 z m -11.37586,0 h -5.688 l -1.74267,-7.012 h 5.72533 z m -11.376,0 h -5.688 l -1.81734,-7.012 h 5.72534 z m -11.376,0 h -5.688 l -1.892,-7.012 h 5.72533 z m -11.376,0 h -5.688 l -1.96534,-7.012 h 5.72534 z m -11.376,0 h -5.688 l -2.04,-7.012 h 5.72533 z m -11.37587,0 h -5.688 l -2.11467,-7.012 h 5.72534 z m -11.376,0 h -5.688 l -2.188,-7.012 h 5.72533 z m -11.376,0 h -5.688 l -2.26266,-7.012 h 5.72533 z m -11.376,0 h -5.688 l -2.33733,-7.012 h 5.72533 z m 106.47733,-7.01146 h -5.72533 l -1.65333,-7.104 h 5.76266 z m -11.45026,0 h -5.72534 l -1.728,-7.104 h 5.76267 z m -11.45014,0 h -5.72533 l -1.80267,-7.104 h 5.76267 z m -11.45026,0 h -5.72534 l -1.87866,-7.104 h 5.76266 z m -11.45027,0 h -5.72533 l -1.95334,-7.104 h 5.76267 z m -11.45013,0 h -5.72534 l -2.02933,-7.104 h 5.76267 z m -11.45027,0 h -5.72533 l -2.104,-7.104 h 5.76266 z m -11.45013,0 h -5.72534 l -2.17866,-7.104 h 5.76266 z m -11.45027,0 h -5.72533 l -2.25467,-7.104 h 5.76267 z m -11.45013,0 h -5.72533 l -2.32934,-7.104 h 5.76267 z m -11.45027,0 h -5.72533 l -2.40533,-7.104 h 5.76266 z m 118.64933,-7.10347 h -5.76266 l -1.63734,-7.19733 h 5.80134 z m -11.52546,0 h -5.76267 l -1.71333,-7.19733 h 5.80133 z m -11.52534,0 h -5.76266 l -1.78934,-7.19733 h 5.80134 z m -11.52546,0 h -5.76267 l -1.86533,-7.19733 h 5.80133 z m -11.52534,0 h -5.76266 l -1.94134,-7.19733 h 5.8 z m -11.52546,0 h -5.76267 l -2.01733,-7.19733 h 5.8 z m -11.52547,0 h -5.76267 l -2.09466,-7.19733 h 5.80133 z m -11.52547,0 h -5.76266 l -2.17067,-7.19733 h 5.80133 z m -11.52533,0 h -5.76267 l -2.24666,-7.19733 h 5.80133 z m -11.52547,0 h -5.76266 l -2.32267,-7.19733 h 5.80134 z m -11.52533,0 H 184.77 l -2.39867,-7.19733 h 5.8 z m -11.52546,0 h -5.76267 l -2.47467,-7.19733 h 5.8 z m 130.98173,-7.19733 h -5.80134 l -1.62,-7.29333 h 5.84 z m -11.6016,0 h -5.80134 l -1.69733,-7.29333 h 5.84 z m -11.60174,0 h -5.80133 l -1.77333,-7.29333 h 5.83866 z m -11.6016,0 h -5.80133 l -1.85067,-7.29333 h 5.83867 z m -11.6016,0 h -5.80133 l -1.928,-7.29333 h 5.83867 z m -11.6016,0 h -5.80133 l -2.00533,-7.29333 h 5.83866 z m -11.6016,0 h -5.80133 l -2.08267,-7.29333 h 5.83867 z m -11.6016,0 h -5.80133 l -2.16,-7.29333 h 5.84 z m -11.60173,0 h -5.80133 l -2.23734,-7.29333 h 5.84 z m -11.6016,0 h -5.80133 l -2.31467,-7.29333 h 5.84 z m -11.6016,0 h -5.80133 l -2.392,-7.29333 h 5.84 z m -11.6016,0 h -5.80133 l -2.46933,-7.29333 h 5.84 z m -11.6016,0 h -5.80133 l -2.54667,-7.29333 h 5.84 z m 143.47747,-7.2932 h -5.84 l -1.60134,-7.39067 h 5.87734 z m -11.6788,0 h -5.84 l -1.68,-7.39067 h 5.87866 z m -11.6788,0 h -5.84 l -1.75867,-7.39067 h 5.87867 z m -11.67894,0 h -5.84 l -1.83733,-7.39067 h 5.87867 z m -11.6788,0 h -5.84 l -1.91466,-7.39067 h 5.87866 z m -11.6788,0 h -5.84 l -1.99333,-7.39067 h 5.87867 z m -11.67893,0 h -5.84 l -2.072,-7.39067 h 5.87867 z m -11.6788,0 h -5.84 l -2.14933,-7.39067 h 5.87866 z m -11.6788,0 h -5.84 l -2.228,-7.39067 h 5.87867 z m -11.67893,0 h -5.84 l -2.30667,-7.39067 h 5.87867 z m -11.6788,0 h -5.84 l -2.384,-7.39067 h 5.87867 z m -11.6788,0 h -5.84 l -2.46267,-7.39067 h 5.87867 z m -11.67893,0 h -5.84 l -2.54134,-7.39067 h 5.87867 z m 132.70413,-7.39107 h -5.87867 l -1.664,-7.49066 h 5.91867 z m -11.75707,0 h -5.87867 l -1.74266,-7.49066 h 5.91733 z m -11.75707,0 h -5.87866 l -1.82267,-7.49066 h 5.91867 z m -11.75706,0 h -5.87867 l -1.90133,-7.49066 h 5.91733 z m -11.7572,0 h -5.87867 l -1.98133,-7.49066 h 5.91866 z m -11.75707,0 h -5.87867 l -2.06,-7.49066 h 5.91734 z m -11.75707,0 h -5.87866 l -2.14,-7.49066 h 5.91866 z m -11.75706,0 h -5.87867 l -2.21867,-7.49066 h 5.91734 z m -11.75707,0 h -5.87867 l -2.29866,-7.49066 h 5.91866 z m -11.7572,0 h -5.87866 l -2.37734,-7.49066 h 5.91867 z m -11.75706,0 h -5.87867 l -2.45733,-7.49066 h 5.91866 z m -11.75707,0 h -5.87867 l -2.536,-7.49066 h 5.91867 z m -11.75707,0 h -5.87866 l -2.616,-7.49066 h 5.91866 z m 145.37907,-7.49066 h -5.91867 l -1.64533,-7.592 h 5.95733 z m -11.8364,0 h -5.91867 l -1.72667,-7.592 h 5.95867 z m -11.8364,0 h -5.91867 l -1.80667,-7.592 h 5.95867 z m -11.8364,0 h -5.91867 l -1.88667,-7.592 h 5.95867 z m -11.8364,0 h -5.91867 l -1.968,-7.592 h 5.95867 z m -11.8364,0 h -5.91867 l -2.048,-7.592 h 5.95867 z m -11.8364,0 h -5.91867 l -2.128,-7.592 h 5.95867 z m -11.8364,0 h -5.91867 l -2.208,-7.592 h 5.95733 z m -11.8364,0 h -5.91867 l -2.28933,-7.592 h 5.95866 z m -11.8364,0 h -5.91867 l -2.36933,-7.592 h 5.95866 z m -11.8364,0 h -5.91867 l -2.44933,-7.592 h 5.95867 z m -11.8364,0 h -5.91867 l -2.53066,-7.592 h 5.95866 z m -11.8364,0 h -5.91867 l -2.61066,-7.592 h 5.95866 z m -11.8364,0 h -5.91867 l -2.69066,-7.592 h 5.95866 z" />
    <path
       d="m 132.49533,298.34267 c 0,0 111.79866,18.872 181.156,4.50133 l -1.61334,5.97867 c 0,0 -95.12933,9.80267 -171.27066,-2.97467 z"
       style="fill:#000000;fill-opacity:1;fill-rule:nonzero;stroke:none;stroke-width:1.33333"
       id="path7943" />
    <path
       d="m 352.53612,334.92427 3.66134,23.36666 12.89066,23.66267 c 0.0533,-3.05067 1.09467,-5.98133 1.912,-8.92133 3.66267,-13.18667 2.868,-27.23734 0.43467,-40.70667 -2.77733,-15.37866 -7.72933,-30.52933 -16.13733,-43.70133 -3.40934,-5.34133 -7.416,-10.34667 -11.944,-14.79333 l 7.43866,42.26133 z"
       style="fill:#d1bd7f;fill-opacity:1;fill-rule:nonzero;stroke:none;stroke-width:1.33333"
       id="path7947" />
    <path
       d="m 352.53612,334.92427 3.66134,23.36666 12.89066,23.66267 c 0.0533,-3.05067 1.09467,-5.98133 1.912,-8.92133 3.66267,-13.18667 2.868,-27.23734 0.43467,-40.70667 -2.77733,-15.37866 -7.72933,-30.52933 -16.13733,-43.70133 -3.40934,-5.34133 -7.416,-10.34667 -11.944,-14.79333 l 7.43866,42.26133 z"
       style="opacity:0.199997;fill:#000000;fill-opacity:1;fill-rule:nonzero;stroke:none;stroke-width:1.33333"
       id="path7957" />
    <path
       id="path8773"
       style="opacity:0.199997;fill:#000000;fill-opacity:1;fill-rule:nonzero;stroke:none;stroke-width:1.33333"
       d="m 346.94946,277.4656 3.004,2.35867 0.53333,3.03333 h -2.79467 z m -2.05067,5.3916 h 2.79333 l 0.744,5.392 h -2.79466 z m 5.58747,0 2.41197,-0.0424 1.12536,5.43437 h -2.79467 z m -2.05067,5.3916 h 2.79333 l 0.744,5.392 h -2.79466 z m 5.58733,0 2.49672,0.0424 1.04062,5.34962 h -2.79467 z m -7.63813,5.3916 h 2.79333 l 0.744,5.392 h -2.79466 z m 5.58747,0 h 2.79333 l 0.744,5.392 h -2.79467 z m 5.58733,0 2.11537,0.0424 1.42196,5.34962 h -2.79466 z m -7.638,5.3916 h 2.79333 l 0.744,5.392 h -2.79466 z m 5.58733,0 h 2.79334 l 0.744,5.392 h -2.79467 z m -7.63813,5.3916 h 2.79333 l 0.744,5.392 h -2.79466 z m 5.58747,0 h 2.79333 l 0.744,5.392 h -2.79467 z m 5.58733,0 h 2.79333 l 0.744,5.392 h -2.79466 z m -7.638,5.3916 h 2.79333 l 0.744,5.392 h -2.79466 z m 5.58733,0 h 2.79334 l 0.744,5.392 h -2.79467 z m 5.58747,0 h 2.79333 l 0.744,5.392 h -2.79466 z m -13.2256,5.3916 h 2.79333 l 0.744,5.392 h -2.79466 z m 5.58747,0 h 2.79333 l 0.744,5.392 h -2.79467 z m 5.58733,0 h 2.79333 l 0.744,5.392 h -2.79466 z m 5.58747,0 2.32722,-0.0424 1.21011,5.43437 h -2.79467 z m -13.22547,5.3916 h 2.79333 l 0.744,5.392 h -2.79466 z m 5.58733,0 h 2.79334 l 0.744,5.392 h -2.79467 z m 5.58747,0 h 2.79333 l 0.744,5.392 h -2.79466 z m -13.2256,5.3916 h 2.79333 l 0.744,5.392 h -2.79466 z m 5.58747,0 h 2.79333 l 0.744,5.392 h -2.79467 z m 5.58733,0 h 2.79333 l 0.744,5.392 h -2.79466 z m 5.58747,0 h 2.79333 l 0.744,5.392 h -2.79467 z m -13.22547,5.3916 h 2.79333 l 0.744,5.392 h -2.79466 z m 5.58733,0 h 2.79334 l 0.744,5.392 h -2.79467 z m 5.58747,0 h 2.79333 l 0.744,5.392 h -2.79466 z m -13.2256,5.39147 h 2.79333 l 0.744,5.392 h -2.79466 z m 5.58747,0 h 2.79333 l 0.744,5.392 h -2.79467 z m 5.58733,0 h 2.79333 l 0.744,5.392 h -2.79466 z m 5.58747,0 h 2.79333 l 0.744,5.392 h -2.79467 z m -13.22547,5.3916 h 2.79333 l 0.744,5.392 h -2.79466 z m 5.58733,0 h 2.79334 l 0.744,5.392 h -2.79467 z m 5.58747,0 h 2.79333 l 0.744,5.392 h -2.79466 z m -13.22547,5.3916 h 2.79334 l 0.744,5.392 h -2.79467 z m 5.58734,0 h 2.79333 l 0.744,5.392 h -2.79467 z m 5.58733,0 h 2.79333 l 0.744,5.392 h -2.79466 z m 5.58747,0 h 2.79333 l 0.744,5.392 h -2.79467 z m -13.22547,5.3916 h 2.79333 l 0.744,5.392 h -2.79466 z m 5.58733,0 h 2.79334 l 0.744,5.392 h -2.79467 z m 5.58747,0 h 2.79333 l 0.744,5.392 h -2.79466 z m -6.15213,16.1748 h 2.79333 l 0.744,5.392 h -2.79467 z m 5.58746,0 h 2.79334 l 0.744,5.392 h -2.79467 z m -2.05066,5.3916 h 2.79333 l 0.744,5.392 h -2.79467 z m -5.0228,-16.1748 h 2.79333 l 0.744,5.392 h -2.79467 z m 5.58746,0 h 2.79334 l 0.744,5.392 h -2.79467 z m -2.05066,5.3916 h 2.79333 l 0.744,5.392 h -2.79467 z m 5.58733,0 h 2.79333 l 0.744,5.392 h -2.79466 z"
       sodipodi:nodetypes="ccccccccccccccccccccccccccccccccccccccccccccccccccccccccccccccccccccccccccccccccccccccccccccccccccccccccccccccccccccccccccccccccccccccccccccccccccccccccccccccccccccccccccccccccccccccccccccccccccccccccccccccccccccccccccccccccccccccccccccccccccccccccccccccc" />
    <path
       d="m 104.402,279.12467 c -9.068002,-10.81067 -13.949336,-11.16 -16.042669,-11.85733 -0.32,-0.10667 -0.701333,-0.16934 -1.110667,-0.204 -8.539999,6.644 -15.897332,14.35866 -21.465332,23.892 -5.890667,10.088 -10.473333,20.932 -13.681333,32.16133 -6.416,22.45733 -7.357333,46.53066 -2.236,69.344 0.564,2.50933 1.2,5.2 1.909333,7.672 53.679998,0.06 107.359998,-0.06 161.039998,0 C 208.19399,394.962 198.00866,383.29 176.59266,357.942 142.41533,317.48734 113.47,289.93534 104.402,279.12467"
       style="fill:#7d7d7d;fill-opacity:1;fill-rule:nonzero;stroke:none;stroke-width:1.33333"
       id="path8783" />
    <path
       d="m 100.20653,302.3084 c -0.374666,-0.31333 -0.749332,-0.62666 -1.123999,-0.93866 -3.825333,-3.18134 -7.729333,-6.3 -12.009333,-8.836 -2.729333,-1.616 -5.598667,-2.98667 -8.290667,-4.66667 -2.505333,-1.56533 -4.445333,-3.652 -7.617333,-3.51067 -1.384,0.0613 -1.882666,1.01467 -2.672,2.06267 -1.14,1.51333 -2.238666,3.05467 -3.292,4.628 -4.070666,6.076 -7.521333,12.65733 -9.614666,19.68533 -1.053333,3.28534 -2.04,6.724 -2.933333,10.21867 -5.262667,20.62533 -7.292,36.70266 -6.201333,49.152 0.311999,3.56533 1.070666,6.81866 1.810666,9.992 0.382667,1.64266 0.778667,3.34266 1.117333,5.09866 0.153334,0.79467 0.321334,1.59867 0.490667,2.416 0.68,3.26667 1.390667,8.84267 1.358667,12.51467 -0.07467,-0.02 -0.465334,-0.12533 -0.425334,0.008 h 0.425334 c 0.004,0.06 0.0093,0.0307 0.01467,-0.004 0.004,-0.028 0.008,-0.052 0.01333,0.004 H 155.69986 c 0.0813,-4.116 -1.28,-8.84133 -1.42666,-11.84933 -0.308,-6.32 0.25466,-12.628 -0.69734,-18.81334 -1.90133,-12.35066 -9.22266,-23.148 -17,-32.464 -5.01866,-6.01466 -9.72666,-10.11199 -15.19333,-15.72666 -0.65467,-0.672 -1.31467,-1.33867 -1.98133,-2 -6.06134,-6.012 -12.676,-11.472 -19.19467,-16.97067"
       style="fill:#d1bd7f;fill-opacity:1;fill-rule:nonzero;stroke:none;stroke-width:1.33333"
       id="path8787" />
    <path
       d="m 218.60786,397.29573 c -37.09333,-46.204 -76.448,-90.59066 -117.87866,-132.94933 -2.333336,-2.38533 -5.336002,-3.51733 -8.148002,-1.22266 -1.830667,1.26666 -3.597334,2.58933 -5.332,3.94 0.409333,0.0347 0.790666,0.0973 1.110666,0.204 2.092,0.69733 6.974667,1.04533 16.042666,11.85733 9.06667,10.81067 38.01333,38.36133 72.19067,78.816 21.41466,25.34933 31.59999,37.02133 36.22266,42.192 2.76267,0.003 5.52667,-0.004 8.28933,0 -0.9,-0.87067 -1.712,-1.86 -2.49733,-2.83734"
       style="fill:#d1bd7f;fill-opacity:1;fill-rule:nonzero;stroke:none;stroke-width:1.33333"
       id="path8791" />
    <path
       d="m 343.35319,273.8304 c -6.63867,-6.52133 -14.39866,-11.844 -23.03466,-15.27066 -4.97867,47.67866 -13.096,94.95333 -24.26134,141.57333 25.652,0.028 51.30267,-0.0293 76.95467,0 0.0493,-6.284 -4.032,-11.89734 -3.92267,-18.17867 l -12.89067,-23.664 -3.66266,-23.36667 -1.744,-18.83199 z"
       style="fill:#7d7d7d;fill-opacity:1;fill-rule:nonzero;stroke:none;stroke-width:1.33333"
       id="path8795" />
    <path
       d="m 315.22013,342.9456 c 3.66133,-26.67866 10.98533,-81.084 10.98533,-81.084 l -0.116,-0.65866 c -1.87733,-0.972 -3.79867,-1.86134 -5.77067,-2.64267 -4.97866,47.67867 -13.096,94.952 -24.26133,141.572 2.46133,0.003 4.924,-0.001 7.38533,0 3.044,-12.204 9.09334,-37.636 11.77734,-57.18667"
       style="fill:#d1bd7f;fill-opacity:1;fill-rule:nonzero;stroke:none;stroke-width:1.33333"
       id="path8799" />
    <path
       d="m 370.64292,383.01133 c -3.184,-8.36933 -7.58266,-16.62133 -11.136,-24.99066 -2.48133,-5.844 -4.372,-11.84134 -5.75733,-17.97867 -1.44,-13.01466 -4.944,-52.844 -8.45067,-65.364 l -4.708,-3.13866 c 0,0 8.548,35.11733 11.31334,61.27466 0,1.32267 0.003,2.632 0.02,3.92267 0.13466,9.94533 1.02533,19.00933 6.07466,28.44666 4.22,7.88534 9.26134,15.09467 10.648,24.13867 0.56134,3.65733 1.564,7.27733 2.64934,10.81067 1.23333,0.0147 2.468,-0.0147 3.70133,0 0.45867,0.005 -3.80933,-15.688 -4.35467,-17.12134"
       style="fill:#000000;fill-opacity:1;fill-rule:nonzero;stroke:none;stroke-width:1.33333"
       id="path8815" />
    <path
       d="m 156.2788,377.99467 c 1.40933,-10.40267 -11.79067,-37.21334 -26.61867,-49.35733 -8.31733,-8.85467 -17.04,-17.356 -26.35467,-25.16134 -6.725329,-5.63733 -13.770662,-10.93866 -21.271995,-15.50533 -2.624,-1.59867 -5.304,-3.11333 -8.058667,-4.476 -0.974666,-0.48267 -3.856,-1.62133 -3.608,0.52667 0.146667,1.25866 3.201333,2.228 4.130667,2.744 2.485333,1.38133 4.912,2.86533 7.297333,4.41066 16.556,10.728 31.134662,24.06934 45.937332,37.016 6.10267,6.21067 28.956,31.31867 24.79333,55.15067 -1.60666,9.196 -0.84266,11.052 0.0107,16.78933 h 5.70133 c -0.83733,-5.28133 -2.96133,-14.73867 -1.95866,-22.13733"
       style="fill:#000000;fill-opacity:1;fill-rule:nonzero;stroke:none;stroke-width:1.33333"
       id="path8819" />
    <path
       d="m 93.905198,263.87574 c 0.914666,-0.51334 1.426666,-0.192 2.238666,0.248 0.4,0.21733 0.792,0.45066 1.177334,0.69466 0.937333,0.592 1.836,1.24267 2.714662,1.91867 2.39467,1.84267 4.64667,3.87067 6.844,5.944 2.98934,2.82267 5.87334,5.75733 8.70534,8.73733 3.584,3.76934 7.084,7.61867 10.536,11.50934 2.01733,2.27333 4.01866,4.56133 6.00666,6.86 21.70934,25.11066 88.66933,100.34533 88.66933,100.34533 h 4.184 c 0,0 -82.12933,-94.068 -88.66933,-101.65333 -1.504,-1.74534 -3.088,-3.424 -4.668,-5.10134 -2.31333,-2.45333 -4.65333,-4.88266 -7.004,-7.30133 -2.68266,-2.76 -5.38266,-5.50667 -8.096,-8.24 -2.63333,-2.65333 -5.28,-5.29467 -7.94533,-7.91867 -2.16533,-2.13066 -4.34133,-4.25333 -6.55467,-6.336 -0.41866,-0.39466 -0.83733,-0.78666 -1.26,-1.176 -0.929329,-0.856 -1.881329,-1.592 -2.975996,-2.24933 -2.282666,-1.37067 -4.317333,0.104 -6.189333,1.33733 -2.086667,1.37334 -4.074667,2.84934 -6.065333,4.356 -0.373333,0.28134 -1.224,0.744 -1.501333,1.29067 -1.876,1.34267 -3.417334,3.468 -4.892,4.924 -10.033333,9.90667 -20.285333,23.21067 -24.726666,38.12133 -1.073334,3.34267 -2.062667,6.79467 -2.96,10.31334 -3.749334,14.68799 -7.646667,33.76799 -6.248,49.72533 0.486667,5.55733 0.892,9.66266 1.882666,14.81066 0.889334,4.616 2.730667,15.09734 2.730667,15.09734 h 3.929333 c 0,0 -1.437333,-8.68934 -2.144,-11.75067 -0.204,-0.88533 -0.410666,-1.77467 -0.597333,-2.676 -0.374667,-1.792 -2.178667,-12.24133 -2.536,-15.704 -1.270667,-12.288 0.493333,-28.212 5.393333,-48.68266 0.830667,-3.46667 1.756,-6.87734 2.750667,-10.13867 3.841333,-13.624 13.866666,-26.82133 24.399999,-37.22 1.754667,-1.732 3.641334,-3.468 5.578667,-5.192 2.665333,0.41733 6.858666,1.63067 10.988,5.124 6.801332,5.75467 95.732002,100.60666 113.517332,126.24 h 4.708 c 0.564,-0.39467 -32.708,-38.18134 -63.576,-72.49467 -24.91733,-27.7 -48.268,-53.24533 -50.98667,-55.31466 -2.811996,-2.13867 -7.291996,-4.91734 -11.163996,-6.00134 0.02933,-0.02 0.05467,-0.044 0.084,-0.064 1.222667,-0.83066 2.433334,-1.65866 3.721334,-2.38266"
       style="fill:#000000;fill-opacity:1;fill-rule:nonzero;stroke:none;stroke-width:1.33333"
       id="path8823" />
    <path
       d="m 369.72026,382.95573 c 0.88133,-0.19066 2.44666,-8.44933 2.708,-9.476 0.66,-2.58666 1.33733,-5.17466 1.74933,-7.816 2.15733,-13.84266 -0.43333,-27.67733 -3.13467,-41.24399 -0.528,-2.65467 -1.14533,-5.28667 -1.85333,-7.88667 -2.512,-9.22267 -6.19333,-18.02533 -10.95467,-26.048 -5.732,-9.65867 -12.564,-17.70133 -21.34266,-23.87867 -1.16667,-0.82266 -2.18,-1.888 -3.25734,-2.82 -0.70933,-0.61333 -1.43199,-1.212 -2.18666,-1.768 -0.53333,-0.392 -1.14933,-0.644 -1.76267,-0.88133 -0.528,-0.20533 -1.16266,-0.60933 -1.74133,-0.58667 -0.17867,-0.73866 -1.29733,-1.24533 -1.94533,-1.476 -1.332,-0.476 -2.632,-1.03466 -3.92534,-1.60533 -1.028,-0.452 -1.58533,-0.844 -2.69733,-0.54933 -0.92933,0.248 -1.94267,0.67866 -2.09733,1.76266 -0.088,0.62534 0.268,0.788 0.496,1.288 0.98266,2.14667 -0.0653,5.02 -0.38,7.256 -0.356,2.53867 -0.688,5.08134 -1.01067,7.62534 -0.36667,2.888 -0.72133,5.77733 -1.07067,8.668 -0.36933,3.04133 -0.732,6.084 -1.09733,9.12533 -0.36,3 -0.72,6 -1.08933,8.99867 -0.33867,2.76266 -0.684,5.52533 -1.04667,8.28533 -0.30533,2.332 -0.62133,4.66133 -0.96933,6.988 -0.256,1.70533 -0.52267,3.412 -0.86,5.104 -1.18534,5.92133 -4.97067,35.216 -16.21734,78.112 h 3.66134 c 0,0 16.21733,-78.32933 18.048,-92.71467 0.388,-3.04266 0.76266,-6.088 1.132,-9.13333 0.42266,-3.484 0.83866,-6.97067 1.248,-10.45733 0.40533,-3.45067 0.804,-6.90134 1.196,-10.35334 0.33333,-2.94 0.66133,-5.88 0.97733,-8.82266 0.208,-1.95067 0.41867,-3.90267 0.58933,-5.85867 0.056,-0.652 -0.25066,-2.76667 0.976,-2.57733 0.616,0.0933 1.15467,0.62933 1.78267,0.772 0.416,0.0947 1.01467,0.13333 1.05733,0.60266 0.0507,0.556 -0.22933,1.21867 -0.30533,1.77334 -0.12667,0.93066 -0.19867,1.86933 -0.25467,2.808 -0.0973,1.64 -0.0893,3.296 -0.252,4.932 -0.007,0.0693 -0.0133,0.13866 -0.0227,0.20933 -2.712,22.26267 -5.74,44.49733 -9.33467,66.636 -2.008,12.37066 -4.17067,24.73066 -6.872,36.972 -1.85067,8.38266 -2.728,14.96666 -5.51867,25.212 h 3.13867 c 0,0 6.47867,-29.42934 12.556,-66.86533 5.668,-34.91734 8.976,-62.74267 9.75733,-69.53734 0.27467,-0.0267 0.48534,-0.0333 0.58267,-0.0133 1.56133,0.32667 3.75333,2.644 5.076,3.58133 l 2.10533,1.48934 c 7.97067,5.60933 14.704,13.15066 20.584,23.05866 4.61067,7.77067 8.20267,16.312 10.67467,25.38667 0.68133,2.5 1.29066,5.092 1.812,7.708 2.47066,12.40933 5.27066,26.47466 3.11466,40.31333 -0.36533,2.344 -0.93066,4.556 -1.712,7.61867 -0.48533,1.9 -0.84,3.83866 -0.96,5.79866 -0.0373,0.628 -0.38133,4.164 0.80534,4.28667 0.0147,10e-4 0.0293,0 0.044,-0.003"
       style="fill:#000000;fill-opacity:1;fill-rule:nonzero;stroke:none;stroke-width:1.33333"
       id="path8827" />
    <path
       d="m 319.75386,259.9436 c 0,0 -11.68267,-6.452 -21.62267,-12.904 -9.93866,-6.452 -27.20266,-13.94933 -27.20266,-13.94933 l -1.56934,3.31333 c 0,0 23.36667,10.11334 26.85467,12.72934 3.48667,2.61466 23.36533,13.07733 23.36533,13.07733 z"
       style="fill:#000000;fill-opacity:1;fill-rule:nonzero;stroke:none;stroke-width:1.33333"
       id="path8831" />
    <path
       style="opacity:0.199997;fill:#000000;fill-opacity:1;fill-rule:nonzero;stroke:none;stroke-width:1.33333"
       d="m 96.143593,261.46687 c -1.272324,0.43665 -2.475693,0.97014 -3.563092,1.6569 -0.829333,0.524 -1.658667,1.04666 -2.490667,1.564 -0.278666,0.17466 -0.576,0.34 -0.88,0.50666 -0.502666,0.27867 -0.978666,0.54134 -1.329333,0.84267 -2.710666,2.33067 -5.297333,4.70933 -7.689333,7.07067 -10.653333,10.516 -20.506666,23.86933 -24.603999,37.62533 -1.053334,3.28533 -2.04,6.72267 -2.933334,10.21867 -5.264,20.62399 -7.291999,36.70266 -6.201333,49.15066 0.312,3.56667 1.070667,6.82 1.810667,9.99333 0.382666,1.64267 0.778666,3.34134 1.117333,5.09734 0.152,0.796 0.32,1.6 0.490667,2.41733 0.68,3.26533 1.389333,8.84133 1.357333,12.51467 -0.07333,-0.0213 -0.464,-0.12667 -0.425333,0.008 h 0.425333 c 0.0053,0.06 0.0093,0.0293 0.01467,0 h 0.01333 c 0,0 -0.01067,-0.004 -0.01333,-0.004 0.0053,-0.028 0.0093,-0.0533 0.01333,0.004 H 155.70053 c 0.0813,-4.116 -1.28133,-8.84267 -1.428,-11.85067 -0.30667,-6.32 0.25467,-12.62667 -0.69733,-18.81333 -1.9,-12.35067 -8.74,-21.36667 -16.51734,-30.684 -2.52266,-3.02267 -5.08533,-6.012 -7.68533,-8.968 -1.98133,-2.25333 -3.98267,-4 -5.76533,-6.30533 -0.736,-0.94934 -2.31067,-1.68667 -2.80134,-2.69067 -2.7,-1.368 -4.42133,-6.18267 -5.024,-8.86933 -0.85466,-3.81067 -0.416,-7.78934 0.708,-11.496 1.48119,-4.88234 3.36603,-9.1836 6.04235,-13.05638 z"
       id="path8857" />
    <path
       d="m 100.20653,302.3084 c -0.374666,-0.31333 -0.749332,-0.62666 -1.123999,-0.93866 -3.825333,-3.18134 -7.729333,-6.3 -12.009333,-8.836 -2.729333,-1.616 -5.598667,-2.98667 -8.290667,-4.66667 -2.505333,-1.56533 -4.445333,-3.652 -7.617333,-3.51067 -1.384,0.0613 -1.882666,1.01467 -2.672,2.06267 -1.14,1.51333 -2.238666,3.05467 -3.292,4.628 -4.070666,6.076 -7.521333,12.65733 -9.614666,19.68533 -1.053333,3.28534 -2.04,6.724 -2.933333,10.21867 -5.262667,20.62533 -7.292,36.70266 -6.201333,49.152 0.311999,3.56533 1.070666,6.81866 1.810666,9.992 0.382667,1.64266 0.778667,3.34266 1.117333,5.09866 0.153334,0.79467 0.321334,1.59867 0.490667,2.416 0.68,3.26667 1.390667,8.84267 1.358667,12.51467 -0.07467,-0.02 -0.465334,-0.12533 -0.425334,0.008 h 0.425334 c 0.004,0.06 0.0093,0.0307 0.01467,-0.004 0.004,-0.028 0.008,-0.052 0.01333,0.004 H 155.69986 c 0.0813,-4.116 -1.28,-8.84133 -1.42666,-11.84933 -0.308,-6.32 0.25466,-12.628 -0.69734,-18.81334 -1.90133,-12.35066 -9.22266,-23.148 -17,-32.464 -5.01866,-6.01466 -9.72666,-10.11199 -15.19333,-15.72666 -0.65467,-0.672 -1.31467,-1.33867 -1.98133,-2 -6.06134,-6.012 -12.676,-11.472 -19.19467,-16.97067"
       style="opacity:0.199997;fill:#000000;fill-opacity:1;fill-rule:nonzero;stroke:none;stroke-width:1.33333"
       id="path8873" />
    <path
       d="m 128.7484,328.59854 c -0.34267,-0.34 -0.68534,-0.67867 -1.03067,-1.01867 l 0.15333,0.908 z"
       style="opacity:0.199997;fill:#000000;fill-opacity:1;fill-rule:nonzero;stroke:none;stroke-width:1.33333"
       id="path11417" />
    <path
       id="path12105"
       style="display:inline;opacity:0.199997;fill:#000000;fill-opacity:1;fill-rule:nonzero;stroke:none;stroke-width:1.33333"
       d="m 78.219865,287.51547 -0.0027,-0.0227 c -1.653333,-1.108 -3.116,-2.352 -4.941333,-2.88133 l 0.216,2.07467 z m -9.043333,3.2136 4.821333,0.81333 -0.506667,-4.856 -4.601333,-0.808 c -0.05333,0.0747 -0.109333,0.14934 -0.165333,0.22534 z m -0.286267,-4.85 -0.190667,-0.0333 0.02533,0.25866 c 0.056,-0.0773 0.110666,-0.15066 0.165333,-0.22533 m 9.863066,6.46533 4.692,0.792 -0.326666,-2.8 c -1.464,-0.792 -2.924,-1.588 -4.336,-2.46933 -0.177334,-0.11067 -0.348,-0.22933 -0.52,-0.344 l -0.04267,-0.008 z m 10.9116,1.8404 c -0.556,-0.36933 -1.12,-0.724 -1.688,-1.07466 l 0.09867,0.80666 z m -20.005066,1.49387 -0.482667,-4.94933 -3.348,-0.56534 c -0.205333,0.29867 -0.428,0.58267 -0.628,0.88267 -0.241333,0.36 -0.472,0.72667 -0.708,1.09067 l 0.249334,2.74533 z m 9.634133,1.55907 -0.541333,-4.89334 -4.754667,-0.80266 0.512,4.92133 z m 9.377066,1.51746 -0.594666,-4.83866 -4.630667,-0.78134 0.568,4.86667 z m 4.200534,-2.3156 0.394666,3.05867 4.401334,0.71333 c -1.572,-1.29066 -3.164,-2.55866 -4.796,-3.772 m -28.128533,-1.55666 -1.794667,-0.29067 c -0.910666,1.50133 -1.777333,3.02933 -2.590666,4.58667 l 4.845333,0.75066 z m 10.286133,6.56853 -0.52,-4.988 -4.849333,-0.78533 0.489333,5.01733 z m 9.560667,1.4808 -0.576,-4.93067 -4.72,-0.764 0.548,4.95867 z m 9.305599,1.44147 -0.629333,-4.87467 -4.594667,-0.744 0.602667,4.90267 z m 8.87614,0.0959 c -0.856,-0.72 -1.712,-1.44133 -2.56534,-2.16133 -0.373333,-0.31333 -0.749333,-0.62667 -1.124,-0.93867 -0.42,-0.34933 -0.845333,-0.692 -1.268,-1.03866 l 0.641334,4.74933 4.500006,0.69733 z m -42.559739,-5.01106 c -0.758666,1.46533 -1.468,2.95333 -2.122666,4.46666 l 2.530666,0.37334 z m 9.937867,1.23706 -4.946667,-0.76666 0.465333,5.116 4.977334,0.736 z m 10.247599,6.5276 -0.556,-5.02666 -4.812,-0.74534 0.526667,5.056 z m 9.487333,1.40267 -0.610666,-4.968 -4.684,-0.72533 0.582667,4.99733 z m 9.234134,1.36533 -0.662667,-4.91066 -4.561333,-0.70667 0.637333,4.93867 z m 4.525336,0.66907 4.46533,0.66 -0.388,-2.64667 c -1.02933,-0.88 -2.056,-1.764 -3.08933,-2.63733 l -1.676,-0.25867 z m -37.975736,-5.6148 -5.048,-0.74667 0.44,5.21867 5.08,0.716 z m 9.887067,1.46187 -4.909333,-0.72534 0.504,5.156 4.938666,0.69467 z m 10.2092,6.48666 -0.592,-5.064 -4.776,-0.70666 0.564,5.09466 z m 9.413999,1.32454 -0.645333,-5.00534 -4.649333,-0.68666 0.62,5.03466 z m 9.16267,1.2892 -0.69733,-4.948 -4.52534,-0.668 0.672,4.976 z m 8.92147,1.25533 -0.588,-3.85733 c -0.45334,-0.404 -0.904,-0.81067 -1.36,-1.21067 l -3.20534,-0.47467 0.72267,4.91867 z m -51.755472,-2.0524 -0.446667,-5.292 -4.858666,-0.684 c -0.08133,0.24 -0.157334,0.48267 -0.234667,0.724 l 0.353333,4.56 z m -5.599333,-6.0176 0.05867,0.76533 c 0.07867,-0.24133 0.154667,-0.484 0.234667,-0.724 z m 15.241866,2.14453 -5.009333,-0.70533 0.478666,5.26 5.041334,0.67333 z m 9.810533,1.3804 -4.870667,-0.68533 0.54,5.196 4.901334,0.65333 z m 10.1708,6.44574 -0.628,-5.10267 -4.738667,-0.66667 0.6,5.13334 z m 9.340536,1.2464 -0.681336,-5.04267 -4.612,-0.64933 0.654666,5.07333 z m 9.09133,1.2132 -0.732,-4.984 -4.48933,-0.632 0.70667,5.01333 z m 4.4552,0.59453 4.396,0.58667 -0.756,-4.784 c -0.0573,-0.0547 -0.11466,-0.108 -0.172,-0.16267 l -4.224,-0.59467 z m 9.096,1.21373 c -0.13866,-0.14 -0.28266,-0.28666 -0.42266,-0.428 l 0.0627,0.38 z m -66.793065,-8.91293 -1.693334,-0.22533 c -0.509333,1.70133 -0.997333,3.424 -1.464,5.176 l 3.576,0.45066 z m 10.784399,6.70853 -0.485333,-5.33466 -5.113333,-0.68134 0.453333,5.36667 z m 9.524667,-3.99853 -4.969333,-0.66267 0.517333,5.3 5,0.63067 z m 9.734,1.29893 -4.833334,-0.64533 0.578667,5.236 4.862666,0.61333 z m 10.132399,6.40494 -0.664,-5.14134 -4.701333,-0.628 0.636,5.17334 z m 9.2672,1.16826 -0.716,-5.08 -4.576,-0.61066 0.68934,5.11066 z m 4.54027,0.57254 4.48,0.56533 -0.76533,-5.02133 -4.456,-0.59334 z m 13.26213,1.67186 -0.812,-4.96133 -4.34,-0.58 0.78934,4.992 z m -67.951865,49.916 -5.761334,-0.26267 0.410667,6.45867 5.804,0.21333 z m 5.671999,0.2584 0.493334,6.36133 5.624,0.20667 -0.533334,-6.31333 z m 11.082267,0.5048 0.570667,6.26667 5.450666,0.2 -0.606667,-6.22 z m 10.746533,0.48947 0.642667,6.17466 5.286666,0.19334 -0.677333,-6.12934 z m 10.426,0.47493 0.710666,6.08533 5.129334,0.188 -0.742667,-6.04133 z m 10.119336,0.46093 0.77467,5.99867 4.97866,0.18267 -0.804,-5.956 z m 9.82627,0.4476 0.83333,5.91334 4.836,0.17866 -0.86267,-5.87333 z m 9.54546,0.4348 0.88934,5.832 4.69733,0.172 -0.916,-5.79066 z m 9.2768,0.42254 0.94134,5.752 4.56666,0.168 -0.96666,-5.71334 z m 9.01907,0.4108 0.99067,5.67466 4.44,0.16267 -1.01467,-5.636 z m -91.064669,2.29173 -1.129333,-0.0413 c 0.08133,0.39333 0.169333,0.77866 0.246667,1.17733 0.152,0.796 0.32,1.6 0.490666,2.41733 0.178667,0.86267 0.36,1.892 0.529334,3 l 0.28,0.008 z m 5.803867,0.21333 0.46,6.51067 5.753333,0.16 -0.501333,-6.46133 z m 11.335866,0.41654 0.541334,6.41066 5.574666,0.156 -0.58,-6.36266 z m 10.987067,0.40373 0.616,6.31467 5.404,0.15066 -0.652,-6.268 z m 10.654266,0.3916 0.688,6.22133 5.24,0.14534 -0.721333,-6.176 z m 10.336533,0.37973 0.75334,6.13067 5.08533,0.14133 -0.78533,-6.08666 z m 10.03267,0.3688 0.816,6.04267 4.936,0.13733 -0.84533,-6 z m 9.742,0.358 0.87467,5.95734 4.79333,0.13333 -0.90267,-5.916 z m 9.4636,0.34774 0.92933,5.87333 4.65734,0.13067 -0.956,-5.83334 z m 9.19733,0.33786 0.98,5.79334 4.52667,0.12533 -1.004,-5.75333 z m 8.94187,0.32867 1.028,5.71467 4.40133,0.12266 -1.05066,-5.676 z m -96.077335,3.0152 0.294666,4.63333 c 0.06533,0.69067 0.118667,1.37067 0.161334,2.03334 l 5.857333,0.10933 -0.466667,-6.61333 z m 0.294933,4.6332 0.129333,2.03333 h 0.03067 c -0.04133,-0.66266 -0.09467,-1.34266 -0.16,-2.03333 m 11.304933,-4.3108 0.509333,6.56267 5.702667,0.10666 -0.549333,-6.512 z m 11.2376,0.3124 0.588,6.46133 5.526666,0.104 -0.626666,-6.41333 z m 10.892,0.30267 0.662666,6.364 5.356,0.1 -0.697333,-6.316 z m 10.562266,0.2936 0.732,6.26933 5.19467,0.096 -0.764,-6.22133 z m 10.24707,0.28493 0.79733,6.17733 5.04,0.0933 -0.828,-6.132 z m 9.94573,0.2764 0.85733,6.08667 4.89334,0.092 -0.88667,-6.044 z m 9.65773,0.26853 0.91467,6 4.752,0.0893 -0.94133,-5.95867 z m 9.382,0.26067 0.968,5.916 4.61734,0.0867 -0.99467,-5.87467 z m 9.11774,0.25347 1.01866,5.83333 4.48667,0.084 -1.04267,-5.79333 z m -92.094269,6.9316 c -0.07333,-0.0213 -0.464,-0.12667 -0.425333,0.008 h 0.425333 c 0.0053,0.06 0.0093,0.0293 0.01467,-0.004 0.004,-0.028 0.0093,-0.0533 0.01333,0.004 h 0.02933 l -0.07467,-1.176 c 0.01067,0.40133 0.02,0.8 0.01733,1.168 m 5.766,-2.73027 0.193333,2.73733 h 5.805333 l -0.204,-2.62933 z m 11.498533,0.21493 0.213333,2.52267 h 5.62 l -0.22,-2.41733 z m 11.139466,0.20827 0.225334,2.31467 h 5.445333 L 85.07292,397.9194 Z m 10.796933,0.20173 0.233334,2.11334 h 5.277333 l -0.236,-2.01467 z m 10.470137,0.19574 0.236,1.91733 h 5.116 l -0.23467,-1.82133 z m 10.15773,0.18986 0.23333,1.72667 h 4.96267 l -0.23067,-1.63333 z m 9.85907,0.18427 0.22666,1.54267 h 4.816 l -0.22133,-1.452 z m 9.57346,0.17893 0.216,1.364 h 4.676 l -0.208,-1.276 z m 9.30027,0.17387 0.20133,1.19067 h 4.54267 l -0.19333,-1.10534 z m 9.03827,0.1688 0.184,1.02133 h 4.41466 l -0.17466,-0.93866 z m -100.938936,-52.344 -0.465333,-0.0413 c -0.28,2.02666 -0.513333,3.992 -0.698667,5.89733 l 1.544,0.12267 z m 11.4964,6.8608 -0.457333,-5.896 -5.477333,-0.47867 0.418666,5.93734 z m 10.254667,-4.95907 -5.316,-0.46533 0.493333,5.856 5.352,0.424 z m 10.399066,0.90934 -5.161333,-0.45067 0.564,5.77467 5.194666,0.412 z m 10.099866,0.88293 -5.013333,-0.43867 0.629334,5.69734 5.045333,0.4 z m 10.533867,6.442 -0.72,-5.584 -4.872,-0.42533 0.690667,5.62 z m 4.0824,-5.16413 0.74933,5.548 4.76267,0.37733 -0.776,-5.51067 z m 9.40587,0.8224 0.804,5.476 4.63066,0.36666 -0.82933,-5.44 z m 10.00293,6.2052 4.50533,0.35733 -0.88,-5.37067 -4.48,-0.392 z m 8.94893,0.70986 4.384,0.348 -0.92666,-5.304 -4.36,-0.38133 z m 8.7088,0.6908 4.26667,0.33867 -0.96933,-5.23733 -4.24534,-0.372 z m 9.53587,0.75654 c -0.57067,-1.58 -1.21333,-3.13334 -1.928,-4.656 l 0.87067,4.572 z m -97.487732,-7.73334 -5.6,-0.444 0.386666,6.07067 5.638667,0.4 z m 11.449466,6.8108 -0.501333,-5.94266 -5.432,-0.43067 0.464,5.984 z m 10.122266,-5.0996 -5.271999,-0.41866 0.537333,5.90133 5.306666,0.37733 z m 10.313467,0.81814 -5.118667,-0.40667 0.605334,5.82 5.152,0.36667 z m 5.044666,0.40013 0.670667,5.74 5.002667,0.356 -0.701334,-5.70133 z m 9.873067,0.7832 0.73067,5.66267 4.86,0.34666 -0.75867,-5.62666 z m 9.59493,0.7612 0.788,5.588 4.724,0.336 -0.81466,-5.552 z m 9.32854,0.74 0.84133,5.51467 4.59333,0.32666 -0.86666,-5.47866 z m 9.964,6.16373 4.468,0.31734 -0.916,-5.40934 -4.44267,-0.352 z m 8.8748,0.63107 4.348,0.30933 -0.96134,-5.34133 -4.32533,-0.34267 z m 12.86853,0.91467 -1.004,-5.27467 -4.21067,-0.33333 0.98267,5.30666 z m -105.118799,-1.31254 2.864,0.18 -0.393333,-6.164 -2.369333,-0.16933 c -0.1,2.132 -0.136,4.18533 -0.101334,6.15333 m 13.6648,-5.1888 -5.553333,-0.39466 0.432,6.11866 5.593333,0.352 z m 11.402533,6.76094 -0.545333,-5.98934 -5.388,-0.38266 0.509333,6.032 z m 9.990133,-5.24014 -5.228,-0.372 0.58,5.94667 5.262667,0.33067 z m 5.151467,0.36614 0.647999,5.864 5.108,0.32 -0.68,-5.82267 z m 10.079066,0.71653 0.710667,5.784 4.961333,0.31067 -0.74133,-5.744 z m 9.7912,0.69613 0.77067,5.70534 4.82,0.30266 -0.79867,-5.668 z m 9.51533,0.6764 0.82667,5.62934 4.684,0.29333 -0.85333,-5.592 z m 9.25107,0.6576 0.87867,5.55467 4.55466,0.28667 -0.904,-5.51867 z m 9.9252,6.12267 4.43067,0.27733 -0.95067,-5.44666 -4.408,-0.31334 z m 13.11187,0.82213 -0.996,-5.37733 -4.28934,-0.30533 0.97467,5.412 z m -92.900002,0.36 -0.438667,-6.21333 -5.68,-0.35733 0.397333,6.26 z m 10.660799,-5.5176 -5.506666,-0.34533 0.477333,6.168 5.546667,0.30133 z m 11.355467,6.71094 -0.589334,-6.036 -5.342666,-0.33467 0.553333,6.07867 z m 4.673333,-5.70574 0.624,5.99334 5.218666,0.28266 -0.658666,-5.95066 z m 10.293066,0.6456 0.689334,5.90934 5.065333,0.27466 -0.721333,-5.868 z m 9.994667,0.6268 0.752,5.82667 4.91867,0.26667 -0.78134,-5.78667 z m 9.70933,0.60894 0.81067,5.748 4.77867,0.25866 -0.83867,-5.708 z m 9.43574,0.59173 0.864,5.67067 4.64533,0.252 -0.89067,-5.63334 z m 9.17373,0.57533 0.916,5.59467 4.516,0.24533 -0.94,-5.55866 z m 9.8864,6.08134 4.39333,0.23866 -0.98666,-5.48666 -4.37067,-0.27334 z m 8.72653,0.47293 4.27467,0.232 -1.03067,-5.416 -4.25333,-0.26667 z m -99.629729,-5.4004 -2.878666,-0.156 c 0.247999,2.232 0.645333,4.35733 1.101333,6.41467 l 2.182666,0.0987 z m 11.838666,6.8788 -0.485333,-6.264 -5.632,-0.30533 0.445334,6.31066 z m 5.059467,-5.9628 0.524,6.21733 5.498667,0.25067 -0.561334,-6.172 z m 10.8388,0.58747 0.598666,6.12666 5.332,0.24267 -0.633333,-6.08267 z m 10.515466,0.57 0.666667,6.03866 5.174666,0.236 -0.7,-5.996 z m 10.206133,0.5532 0.732,5.95333 5.022667,0.22933 -0.76267,-5.912 z m 9.910537,0.5372 0.792,5.87066 4.87733,0.22134 -0.82133,-5.82934 z m 9.62733,0.52186 0.84933,5.78934 4.73867,0.216 -0.87733,-5.74934 z m 9.35627,0.5072 0.90266,5.71067 4.60534,0.21067 -0.928,-5.67334 z m 9.0964,0.49307 0.95333,5.63467 4.47733,0.204 -0.976,-5.59734 z m 9.8476,6.03987 4.356,0.19866 -1.02267,-5.524 -4.33333,-0.23466 z m -93.917191,-57.693 c -0.0067,0.0293 -0.01467,0.0613 -0.02267,0.0907 l 0.02933,0.004 z m 10.133066,-4.0952 -5.22,-0.65867 0.425334,5.48 5.254666,0.62267 z m 10.742533,6.66413 -0.525333,-5.376 -5.072,-0.64 0.493333,5.41067 z m 9.4068,-4.12387 -4.930667,-0.62133 0.556,5.34133 4.961334,0.58934 z m 9.6576,1.21747 -4.794667,-0.604 0.616,5.276 4.824,0.572 z m 10.094002,6.364 -0.7,-5.18 -4.664002,-0.588 0.672,5.212 z m 4.62826,0.5488 4.56534,0.54133 -0.75067,-5.11733 -4.54,-0.572 z m 13.51427,1.60253 -0.8,-5.056 -4.42,-0.55733 0.776,5.08667 z m 8.71293,1.03333 -0.84533,-4.99733 -4.30533,-0.54266 0.82266,5.02666 z m 5.33774,0.63294 c -0.43067,-0.476 -0.86134,-0.95333 -1.29067,-1.41067 l 0.224,1.284 z m -76.889068,-9.11773 -5.332,-0.632 0.396,5.596 5.366667,0.59466 z m 10.432933,1.23706 -5.178667,-0.61466 0.466667,5.524 5.212,0.57866 z m 10.700666,6.6196 -0.564,-5.41733 -5.031999,-0.59733 0.532,5.45333 z m 9.289067,-4.24906 -4.892,-0.58 0.594667,5.38266 4.922666,0.54667 z m 9.581066,1.13613 -4.757333,-0.564 0.653333,5.316 4.785334,0.53066 z m 5.401066,5.80653 4.65467,0.516 -0.736,-5.21733 -4.628,-0.54933 z m 13.77533,1.5288 -0.78533,-5.15466 -4.50533,-0.53467 0.76133,5.18666 z m 8.87734,0.9852 -0.83334,-5.09333 -4.38533,-0.52 0.80933,5.124 z m 8.64346,0.95933 -0.87866,-5.032 -4.27067,-0.50666 0.856,5.06266 z m 4.7876,0.53134 c -0.232,-0.29067 -0.46266,-0.58267 -0.696,-0.87067 l 0.14534,0.80933 z m -86.023195,-3.91307 -0.401333,-5.67866 -1.686667,-0.18667 c -0.42,1.88133 -0.816,3.72933 -1.174666,5.528 z m 10.254933,-4.49573 -5.289333,-0.58667 0.438667,5.64 5.324,0.55067 z m 10.3496,1.14867 -5.137333,-0.57067 0.506667,5.56666 5.170666,0.53467 z m 10.659067,6.57519 -0.602667,-5.45866 -4.992,-0.55467 0.572,5.49467 z m 9.171199,-4.3744 -4.853333,-0.53866 0.633333,5.424 4.882667,0.504 z m 9.504666,1.05467 -4.718666,-0.524 0.690667,5.356 4.746669,0.49067 z m 10.01747,6.2824 -0.772,-5.256 -4.59067,-0.50933 0.74533,5.288 z m 9.0472,0.93427 -0.82134,-5.192 -4.468,-0.496 0.796,5.224 z m 8.806,0.9092 -0.868,-5.12934 -4.35067,-0.48266 0.84533,5.16 z m 3.42546,-4.65254 0.89067,5.09867 4.25867,0.43867 -0.912,-5.06667 z M 58.034265,336.2 l -5.404,-0.55733 0.408,5.76266 5.44,0.51867 z m 10.570533,1.09147 -5.246666,-0.54134 0.48,5.68534 5.281333,0.504 z m 10.266267,1.06 -5.096,-0.52667 0.548,5.61067 5.128,0.48933 z m 10.617333,6.5308 -0.642667,-5.50134 -4.952,-0.51066 0.612,5.536 z m 9.053466,-4.49974 -4.813333,-0.49733 0.672,5.46533 4.842667,0.46267 z m 10.183996,6.33507 -0.756,-5.36133 -4.68133,-0.484 0.72933,5.396 z m 9.22347,0.88 -0.80667,-5.29467 -4.55466,-0.47066 0.78133,5.328 z m 8.97413,0.85613 -0.856,-5.22933 -4.432,-0.45733 0.832,5.26133 z m 4.39667,0.41947 4.33867,0.41333 -0.90267,-5.16533 -4.31467,-0.44533 z m 7.69493,-4.31173 0.924,5.13333 4.224,0.404 -0.77866,-4.20533 c -0.22,-0.31867 -0.44267,-0.63334 -0.66667,-0.94934 z m 4.36934,1.33226 -0.16667,-0.89866 -0.5,-0.0507 c 0.224,0.31467 0.44667,0.63067 0.66667,0.94933 m -89.933201,1.35974 -0.413334,-5.84934 -4.716,-0.44933 c -0.206666,1.20267 -0.4,2.38667 -0.576,3.54933 l 0.144,2.26267 z m -5.936267,-6.37574 0.230667,3.62667 c 0.177333,-1.16267 0.369333,-2.34667 0.576,-3.54933 z m 16.3232,1.55734 -5.36,-0.512 0.450667,5.80933 5.395999,0.472 z m 10.484799,1.00026 -5.203999,-0.496 0.521333,5.72934 5.238666,0.45866 z m 10.183067,0.9716 -5.054667,-0.48266 0.589334,5.65333 5.085333,0.44533 z m 10.5756,6.4864 -0.681334,-5.54266 -4.912,-0.468 0.652,5.57866 z m 8.935862,-4.62493 -4.774662,-0.456 0.710666,5.50667 4.802666,0.42 z m 10.14454,6.29307 -0.792,-5.40134 -4.644,-0.44266 0.76533,5.436 z m 9.14813,0.79986 -0.84267,-5.33333 -4.51866,-0.43067 0.81866,5.36667 z m 4.48067,0.39174 4.42,0.38666 -0.89067,-5.26666 -4.39733,-0.41867 z m 8.78093,0.76773 4.30267,0.376 -0.936,-5.20133 -4.28,-0.408 z m 8.5484,0.74733 3.99067,0.34934 c -0.87867,-1.81334 -1.844,-3.58934 -2.884,-5.32267 l -2.064,-0.196 z m 6.0168,32.49603 3.12267,0.11467 c -0.08,-1.84533 -0.092,-3.688 -0.092,-5.528 l -4.068,-0.18533 z m 3.12253,0.11467 1.196,0.044 -1.05866,-5.56267 -0.228,-0.009 c -0.001,1.84 0.012,3.68267 0.0907,5.528 m -2.07164,5.56074 1.06534,5.75466 2.42933,0.0453 c -0.0507,-1.892 -0.34133,-3.86267 -0.65733,-5.72134 z m 0.13387,-21.98214 1.51467,0.0947 c -0.072,-0.696 -0.15467,-1.39067 -0.26134,-2.08267 -0.168,-1.09333 -0.39333,-2.17066 -0.64266,-3.24 l -1.628,-0.116 z m 1.8464,9.70107 c 0.003,-1.41733 0,-2.832 -0.028,-4.24267 l -0.788,-0.0427 z" />
    <path
       d="m 316.09826,316.13374 c -5.104,7.00933 -10.876,9.228 -12.228,8.244 -1.352,-0.984 -1.01333,-7.15867 4.09067,-14.168 5.104,-7.01067 10.876,-9.22934 12.228,-8.24534 1.352,0.98534 1.01333,7.16 -4.09067,14.16934"
       style="fill:#ffff00;fill-opacity:1;fill-rule:nonzero;stroke:none;stroke-width:1.33333"
       id="path12115" />
    <path
       d="m 314.71639,309.86174 c -1.84533,2.13866 -3.79733,2.80266 -4.21866,2.496 -0.42134,-0.30667 -0.164,-2.20534 1.68,-4.344 1.84533,-2.13867 3.79733,-2.80267 4.21866,-2.496 0.42267,0.30666 0.16534,2.20533 -1.68,4.344"
       style="fill:#ffffff;fill-opacity:1;fill-rule:nonzero;stroke:none;stroke-width:1.33333"
       id="path12119" />
    <path
       d="m 319.65613,302.6896 c -0.7,-0.41466 -5.94534,1.152 -10.968,8.04934 -5.02134,6.89733 -4.90134,12.37066 -4.284,12.91466 0.7,0.41467 5.94533,-1.15333 10.96666,-8.04933 5.02,-6.896 4.90267,-12.37067 4.28534,-12.91467 m -16.316,22.416 c -1.956,-1.424 -1.412,-8.14133 3.89333,-15.42666 5.304,-7.28534 11.53067,-9.86534 13.48533,-8.44134 1.956,1.424 1.412,8.14134 -3.89333,15.42667 -5.304,7.28533 -11.52933,9.86533 -13.48533,8.44133"
       style="fill:#000000;fill-opacity:1;fill-rule:nonzero;stroke:none;stroke-width:1.33333"
       id="path12123" />
    <path
       d="m 320.86519,304.2316 c -0.828,1.97867 -2.05866,4.24267 -3.81066,6.64934 -5.104,7.00933 -10.448,9.53866 -11.588,8.70933 -0.736,-0.536 -0.66667,-3.18667 0.85066,-6.884 -3.51333,5.928 -3.63466,10.80667 -2.44666,11.672 1.352,0.984 7.124,-1.23467 12.228,-8.244 3.52933,-4.848 4.77866,-9.29467 4.76666,-11.90267"
       style="opacity:0.199997;fill:#000000;fill-opacity:1;fill-rule:nonzero;stroke:none;stroke-width:1.33333"
       id="path12133" />
    <path
       d="m 318.34799,305.27027 c -5.04666,3.768 -12.448,5.60267 -13.328,4.42267 -0.88133,-1.18 2.97867,-7.756 8.02534,-11.524 5.04533,-3.768 9.83733,-3.65334 10.71866,-2.47467 0.88134,1.18 -0.36933,5.808 -5.416,9.576"
       style="fill:#c900b1;fill-opacity:1;fill-rule:nonzero;stroke:none;stroke-width:1.33333"
       id="path12143" />
    <path
       d="m 323.92026,297.6452 c -0.95333,1.256 -2.26267,2.60534 -3.99467,3.89867 -5.04666,3.768 -11.57466,5.53067 -12.31733,4.53733 -0.48,-0.64266 0.268,-2.85466 2.50667,-5.57066 -4.49867,4.07333 -5.86934,8.14533 -5.096,9.18266 0.88133,1.17867 8.28266,-0.65466 13.32933,-4.42266 3.48933,-2.60667 5.16267,-5.62267 5.572,-7.62534"
       style="opacity:0.199997;fill:#000000;fill-opacity:1;fill-rule:nonzero;stroke:none;stroke-width:1.33333"
       id="path12153" />
    <path
       d="m 318.29853,300.036 c -1.76134,1.06 -3.368,0.95467 -3.64267,0.58667 -0.27467,-0.368 0.228,-1.74267 1.988,-2.80133 1.76133,-1.06 3.368,-0.95467 3.64267,-0.58667 0.27466,0.368 -0.22667,1.74133 -1.988,2.80133"
       style="fill:#ffffff;fill-opacity:1;fill-rule:nonzero;stroke:none;stroke-width:1.33333"
       id="path12163" />
    <path
       d="m 323.23839,296.08267 c -0.472,-0.53867 -4.75333,-0.98667 -9.72,2.72133 -4.96533,3.708 -8.23866,9.8 -7.86133,10.41734 0.48,0.532 7.252,-0.87867 12.216,-4.58667 4.96533,-3.70667 5.752,-7.94133 5.36533,-8.552 m -18.85466,14.084 c -1.27467,-1.70667 2.94133,-8.71733 8.18666,-12.63333 5.244,-3.916 10.444,-3.93734 11.71867,-2.22934 1.27467,1.70667 -0.22133,6.68534 -5.46667,10.60134 -5.24533,3.91733 -13.164,5.96933 -14.43866,4.26133"
       style="fill:#000000;fill-opacity:1;fill-rule:nonzero;stroke:none;stroke-width:1.33333"
       id="path12167" />
    <path
       d="m 143.8212,316.59574 c 5.92266,6.332 11.924,7.828 13.144,6.68666 1.22133,-1.14266 0.13066,-7.22933 -5.79334,-13.56266 -5.92266,-6.332 -11.92266,-7.828 -13.144,-6.68534 -1.22133,1.14134 -0.12933,7.22934 5.79334,13.56134"
       style="fill:#ffff00;fill-opacity:1;fill-rule:nonzero;stroke:none;stroke-width:1.33333"
       id="path12171" />
    <path
       d="m 144.42546,310.20174 c 2.09334,1.89733 4.112,2.31733 4.492,1.96133 0.38134,-0.356 -0.10666,-2.208 -2.19866,-4.10533 -2.09334,-1.89734 -4.112,-2.31867 -4.492,-1.96134 -0.38134,0.356 0.10533,2.208 2.19866,4.10534"
       style="fill:#ffffff;fill-opacity:1;fill-rule:nonzero;stroke:none;stroke-width:1.33333"
       id="path12175" />
    <path
       d="m 144.47893,315.98094 c 5.82667,6.22933 11.22533,7.144 11.86933,6.648 0.54534,-0.616 -0.005,-6.06267 -5.83333,-12.29334 -5.828,-6.232 -11.22533,-7.14533 -11.86933,-6.648 -0.54534,0.616 0.007,6.06267 5.83333,12.29334 m -1.31467,1.23066 c -6.156,-6.58266 -7.51866,-13.18266 -5.752,-14.836 1.76667,-1.652 8.26267,0.148 14.41867,6.72934 6.15467,6.58133 7.51733,13.18266 5.74933,14.83466 -1.76666,1.65334 -8.26133,-0.14666 -14.416,-6.728"
       style="fill:#000000;fill-opacity:1;fill-rule:nonzero;stroke:none;stroke-width:1.33333"
       id="path12179" />
    <path
       d="m 137.63413,305.36614 c 1.064,1.86266 2.56267,3.95866 4.59467,6.13333 5.924,6.332 11.53733,8.18933 12.56666,7.22667 0.66534,-0.62267 0.272,-3.244 -1.68533,-6.72934 4.212,5.45467 4.92933,10.28134 3.856,11.28534 -1.22133,1.14266 -7.22267,-0.35334 -13.14533,-6.68667 -4.096,-4.38 -5.87867,-8.63867 -6.18667,-11.22933"
       style="opacity:0.199997;fill:#000000;fill-opacity:1;fill-rule:nonzero;stroke:none;stroke-width:1.33333"
       id="path12189" />
    <path
       d="m 140.25946,306.08907 c 5.46934,3.12267 13.04,4.03733 13.76934,2.75867 0.73066,-1.27867 -3.90534,-7.33334 -9.37467,-10.456 -5.46933,-3.12267 -10.212,-2.42267 -10.94133,-1.144 -0.73067,1.27866 1.07733,5.71866 6.54666,8.84133"
       style="fill:#c900b1;fill-opacity:1;fill-rule:nonzero;stroke:none;stroke-width:1.33333"
       id="path12199" />
    <path
       d="m 133.7964,299.20294 c 1.1,1.13066 2.564,2.308 4.44133,3.38 5.46933,3.12266 12.16533,4.07466 12.78,2.99733 0.39733,-0.69733 -0.616,-2.8 -3.16933,-5.22133 4.96266,3.492 6.82266,7.36533 6.18,8.48933 -0.72934,1.27733 -8.3,0.364 -13.76934,-2.75867 -3.78266,-2.16 -5.81066,-4.948 -6.46266,-6.88666"
       style="opacity:0.199997;fill:#000000;fill-opacity:1;fill-rule:nonzero;stroke:none;stroke-width:1.33333"
       id="path12209" />
    <path
       d="m 139.6684,300.888 c 1.87733,0.836 3.45866,0.536 3.68666,0.136 0.228,-0.39866 -0.43866,-1.7 -2.316,-2.53733 -1.87733,-0.836 -3.45866,-0.53467 -3.68666,-0.136 -0.228,0.39867 0.43866,1.70133 2.316,2.53733"
       style="fill:#ffffff;fill-opacity:1;fill-rule:nonzero;stroke:none;stroke-width:1.33333"
       id="path12219" />
    <path
       d="m 140.65266,305.40067 c 5.38,3.072 12.27334,3.644 12.68667,3.05733 0.29867,-0.65866 -3.696,-6.30533 -9.07867,-9.37733 -5.38133,-3.07333 -9.57733,-2.104 -9.97866,-1.512 -0.30934,0.65467 0.98933,4.76 6.37066,7.832 M 139.866,306.778 c -5.684,-3.24533 -7.77734,-8.004 -6.72134,-9.85466 1.056,-1.84934 6.21867,-2.46534 11.90267,0.78 5.684,3.24533 10.72667,9.688 9.67067,11.53733 -1.05734,1.85067 -9.16667,0.78267 -14.852,-2.46267"
       style="fill:#000000;fill-opacity:1;fill-rule:nonzero;stroke:none;stroke-width:1.33333"
       id="path12223" />
  </g>
</svg>
