<?xml version="1.0" encoding="UTF-8" standalone="no"?>
<!-- Created with Inkscape (http://www.inkscape.org/) -->

<svg
   version="1.1"
   id="svg4319"
   width="400"
   height="400"
   viewBox="0 0 400 400"
   sodipodi:docname="tosSash.svg"
   inkscape:version="1.3-alpha (95f74fb, 2023-03-31)"
   xmlns:inkscape="http://www.inkscape.org/namespaces/inkscape"
   xmlns:sodipodi="http://sodipodi.sourceforge.net/DTD/sodipodi-0.dtd"
   xmlns="http://www.w3.org/2000/svg"
   xmlns:svg="http://www.w3.org/2000/svg">
  <defs
     id="defs4323" />
  <sodipodi:namedview
     id="namedview4321"
     pagecolor="#ffffff"
     bordercolor="#666666"
     borderopacity="1.0"
     inkscape:showpageshadow="2"
     inkscape:pageopacity="0.0"
     inkscape:pagecheckerboard="0"
     inkscape:deskcolor="#d1d1d1"
     showgrid="false"
     inkscape:zoom="2.1675"
     inkscape:cx="200"
     inkscape:cy="200"
     inkscape:window-width="1920"
     inkscape:window-height="1080"
     inkscape:window-x="2338"
     inkscape:window-y="160"
     inkscape:window-maximized="0"
     inkscape:current-layer="g4327">
    <inkscape:page
       x="0"
       y="0"
       id="page4325"
       width="400"
       height="400"
       margin="0"
       bleed="0" />
  </sodipodi:namedview>
  <g
     id="g4327"
     inkscape:groupmode="layer"
     inkscape:label="Page 1">
    <path
       d="m 367.95412,268.0388 c 0,0 3.12934,27.73067 1.144,46.72534 0,0 3.30134,-23.436 0.824,-45.13067 z"
       style="fill:#000000;fill-opacity:1;fill-rule:nonzero;stroke:none;stroke-width:1.33333"
       id="path13655" />
    <path
       d="m 308.94266,399.96387 c -0.003,-6.576 -5.532,-12.048 -5.47733,-18.55734 0.06,-7.068 4.608,-15.92666 7.22933,-22.376 5.98267,-14.71733 13.63867,-28.67066 20.13467,-43.15733 3.10799,-6.93333 6.67733,-12.06133 10.95599,-18.39733 4.02,-5.952 5.15467,-10.008 13.08267,-8.09867 6.536,1.57334 17.38133,4.712 22.10533,9.852 4.784,5.20534 6.10134,17.784 4.56534,24.42667 -1.77067,7.66 -4.13467,15.168 -9.264,21.284 -6.02,7.18133 -16.21867,10.38933 -19.26,19.968 -1.66934,5.26 -1.05734,9.47333 -3.808,14.42666 -0.61867,1.116 -9.54,20.632 -5.74667,20.632 -1.00133,0 -34.51733,0 -34.51733,-0.003"
       style="opacity:0.199997;fill:#000000;fill-opacity:1;fill-rule:nonzero;stroke:none;stroke-width:1.33333"
       id="path13665" />
    <path
       d="m 346.79692,307.66507 -0.60666,-0.24533 -1.39067,4.436 23.108,9.32 1.39067,-4.43467 -0.30667,-0.124 1.296,0.46133 0.80267,-4.37866 -23.28134,-8.48 z"
       style="fill:#ffffff;fill-opacity:1;fill-rule:nonzero;stroke:none;stroke-width:1.33333"
       id="path13715" />
    <path
       d="m 349.09879,304.0764 23.73467,8.85334 0.75066,-4.324 -23.024,-8.89067 z"
       style="fill:#ffffff;fill-opacity:1;fill-rule:nonzero;stroke:none;stroke-width:1.33333"
       id="path13719" />
    <path
       d="m 352.22572,299.59494 23.69467,9.264 0.69733,-4.27067 -23.324,-9.44533 z"
       style="fill:#ffffff;fill-opacity:1;fill-rule:nonzero;stroke:none;stroke-width:1.33333"
       id="path13723" />
    <path
       d="m 354.11892,294.69414 24.16934,9.81066 0.644,-4.216 -23.63334,-10.004 z"
       style="fill:#ffffff;fill-opacity:1;fill-rule:nonzero;stroke:none;stroke-width:1.33333"
       id="path13727" />
    <path
       d="m 355.17026,289.27987 24.66666,10.36267 0.59067,-4.16267 -23.964,-10.568 z"
       style="fill:#ffffff;fill-opacity:1;fill-rule:nonzero;stroke:none;stroke-width:1.33333"
       id="path13731" />
    <path
       d="m 356.87532,284.07494 25.16667,10.91466 0.53733,-4.108 -24.29866,-11.13333 z"
       style="fill:#ffffff;fill-opacity:1;fill-rule:nonzero;stroke:none;stroke-width:1.33333"
       id="path13735" />
    <path
       d="m 357.23772,278.72867 25.64667,11.46267 0.48533,-4.05334 -24.61333,-11.69466 z"
       style="fill:#ffffff;fill-opacity:1;fill-rule:nonzero;stroke:none;stroke-width:1.33333"
       id="path13739" />
    <path
       d="m 385.97159,277.32387 -0.56667,-0.288 0.26267,-3.13867 -1.65067,-0.868 0.0947,-1.32933 -26.23733,-15.74667 -1.97067,4.11734 3.71067,2.05466 -1.164,2.60934 1.85733,0.90133 -1.28133,3.08667 0.17733,0.084 -1.34133,3.488 26.2,13.032 0.504,-3.812 -11.28534,-6.05867 12.31067,5.81467 z"
       style="fill:#ffffff;fill-opacity:1;fill-rule:nonzero;stroke:none;stroke-width:1.33333"
       id="path13743" />
    <path
       d="m 367.01972,321.65947 -23.14533,-9.45467 -1.45867,4.40934 0.908,0.37066 -1.44133,3.67067 18.61733,8.52533 -19.092,-8.004 -1.55466,4.24934 0.27733,0.116 -1.58667,4.132 22.64134,9.60666 1.62266,-4.224 -1.70666,-0.724 1.35866,0.56933 1.512,-4.13199 0.69867,0.32 1.69867,-4.324 -7.41067,-3.39467 6.60133,2.69733 z"
       style="fill:#ffffff;fill-opacity:1;fill-rule:nonzero;stroke:none;stroke-width:1.33333"
       id="path13747" />
    <path
       d="m 335.59639,333.92333 22.67733,9.736 1.68934,-4.19866 -22.67867,-9.736 z"
       style="fill:#ffffff;fill-opacity:1;fill-rule:nonzero;stroke:none;stroke-width:1.33333"
       id="path13751" />
    <path
       d="m 333.46812,338.172 22.71334,9.86533 1.756,-4.17333 -22.71334,-9.86667 z"
       style="fill:#ffffff;fill-opacity:1;fill-rule:nonzero;stroke:none;stroke-width:1.33333"
       id="path13755" />
    <path
       d="m 330.52119,342.28813 22.74933,9.996 1.82267,-4.14933 -22.74933,-9.996 z"
       style="fill:#ffffff;fill-opacity:1;fill-rule:nonzero;stroke:none;stroke-width:1.33333"
       id="path13759" />
    <path
       d="m 329.21159,346.6692 22.78533,10.12533 1.888,-4.124 -22.78399,-10.12666 z"
       style="fill:#ffffff;fill-opacity:1;fill-rule:nonzero;stroke:none;stroke-width:1.33333"
       id="path13763" />
    <path
       d="m 351.85986,357.0732 -22.82,-10.256 -1.956,4.1 0.796,0.35867 -2.19333,3.88933 22.05999,11.716 2.23467,-3.964 -20.91333,-11.108 20.836,9.364 z"
       style="fill:#ffffff;fill-opacity:1;fill-rule:nonzero;stroke:none;stroke-width:1.33333"
       id="path13767" />
    <path
       d="m 322.46293,360.67667 22.75866,10.37866 1.98,-4.08933 -22.75866,-10.37867 z"
       style="fill:#ffffff;fill-opacity:1;fill-rule:nonzero;stroke:none;stroke-width:1.33333"
       id="path13771" />
    <path
       d="m 319.74346,365.0264 22.72933,10.44133 1.99067,-4.084 -22.728,-10.44133 z"
       style="fill:#ffffff;fill-opacity:1;fill-rule:nonzero;stroke:none;stroke-width:1.33333"
       id="path13775" />
    <path
       d="m 317.84266,370.4356 22.69866,10.50267 2.00267,-4.07867 -22.69866,-10.50267 z"
       style="fill:#ffffff;fill-opacity:1;fill-rule:nonzero;stroke:none;stroke-width:1.33333"
       id="path13779" />
    <path
       d="m 316.43973,375.258 20.04133,10.836 -21.232,-9.96667 -2.02667,4.06667 22.63733,10.62667 1.98667,-3.98934 0.56,0.30267 2.26533,-3.94667 -21.96666,-11.876 z"
       style="fill:#ffffff;fill-opacity:1;fill-rule:nonzero;stroke:none;stroke-width:1.33333"
       id="path13783" />
    <path
       d="m 312.00359,385.33867 22.60667,10.688 2.03866,-4.06267 -22.60666,-10.68667 z"
       style="fill:#ffffff;fill-opacity:1;fill-rule:nonzero;stroke:none;stroke-width:1.33333"
       id="path13787" />
    <path
       d="m 331.54959,399.9668 1.67867,-3.32133 -22.576,-10.748 -2.05067,4.056 21.03067,10.01333 z"
       style="fill:#ffffff;fill-opacity:1;fill-rule:nonzero;stroke:none;stroke-width:1.33333"
       id="path13791" />
    <path
       d="m 326.83279,399.9668 -19.70666,-9.44933 -2.06267,4.05066 11.25867,5.39867 z"
       style="fill:#ffffff;fill-opacity:1;fill-rule:nonzero;stroke:none;stroke-width:1.33333"
       id="path13795" />
    <path
       d="m 314.95973,399.9668 -8.904,-4.3 -2.07467,4.04533 0.528,0.25467 z"
       style="fill:#ffffff;fill-opacity:1;fill-rule:nonzero;stroke:none;stroke-width:1.33333"
       id="path13799" />
    <path
       d="m 346.79692,307.66507 -0.60666,-0.24533 -1.39067,4.436 23.108,9.32 1.39067,-4.43467 -0.30667,-0.124 1.296,0.46133 0.80267,-4.37866 -23.28134,-8.48 z"
       style="fill:#c7b791;fill-opacity:1;fill-rule:nonzero;stroke:none;stroke-width:1.33333"
       id="path13803" />
    <path
       d="m 349.09879,304.0764 23.73467,8.85334 0.75066,-4.324 -23.024,-8.89067 z"
       style="fill:#c7b791;fill-opacity:1;fill-rule:nonzero;stroke:none;stroke-width:1.33333"
       id="path13807" />
    <path
       d="m 352.22572,299.59494 23.69467,9.264 0.69733,-4.27067 -23.324,-9.44533 z"
       style="fill:#c7b791;fill-opacity:1;fill-rule:nonzero;stroke:none;stroke-width:1.33333"
       id="path13811" />
    <path
       d="m 354.11892,294.69414 24.16934,9.81066 0.644,-4.216 -23.63334,-10.004 z"
       style="fill:#c7b791;fill-opacity:1;fill-rule:nonzero;stroke:none;stroke-width:1.33333"
       id="path13815" />
    <path
       d="m 355.17026,289.27987 24.66666,10.36267 0.59067,-4.16267 -23.964,-10.568 z"
       style="fill:#c7b791;fill-opacity:1;fill-rule:nonzero;stroke:none;stroke-width:1.33333"
       id="path13819" />
    <path
       d="m 356.87532,284.07494 25.16667,10.91466 0.53733,-4.108 -24.29866,-11.13333 z"
       style="fill:#c7b791;fill-opacity:1;fill-rule:nonzero;stroke:none;stroke-width:1.33333"
       id="path13823" />
    <path
       d="m 357.23772,278.72867 25.64667,11.46267 0.48533,-4.05334 -24.61333,-11.69466 z"
       style="fill:#c7b791;fill-opacity:1;fill-rule:nonzero;stroke:none;stroke-width:1.33333"
       id="path13827" />
    <path
       d="m 385.97159,277.32387 -0.56667,-0.288 0.26267,-3.13867 -1.65067,-0.868 0.0947,-1.32933 -26.23733,-15.74667 -1.97067,4.11734 3.71067,2.05466 -1.164,2.60934 1.85733,0.90133 -1.28133,3.08667 0.17733,0.084 -1.34133,3.488 26.2,13.032 0.504,-3.812 -11.28534,-6.05867 12.31067,5.81467 z"
       style="fill:#c7b791;fill-opacity:1;fill-rule:nonzero;stroke:none;stroke-width:1.33333"
       id="path13831" />
    <path
       d="m 367.01972,321.65947 -23.14533,-9.45467 -1.45867,4.40934 0.908,0.37066 -1.44133,3.67067 18.61733,8.52533 -19.092,-8.004 -1.55466,4.24934 0.27733,0.116 -1.58667,4.132 22.64134,9.60666 1.62266,-4.224 -1.70666,-0.724 1.35866,0.56933 1.512,-4.13199 0.69867,0.32 1.69867,-4.324 -7.41067,-3.39467 6.60133,2.69733 z"
       style="fill:#c7b791;fill-opacity:1;fill-rule:nonzero;stroke:none;stroke-width:1.33333"
       id="path13835" />
    <path
       d="m 335.59639,333.92333 22.67733,9.736 1.68934,-4.19866 -22.67867,-9.736 z"
       style="fill:#c7b791;fill-opacity:1;fill-rule:nonzero;stroke:none;stroke-width:1.33333"
       id="path13839" />
    <path
       d="m 333.46812,338.172 22.71334,9.86533 1.756,-4.17333 -22.71334,-9.86667 z"
       style="fill:#c7b791;fill-opacity:1;fill-rule:nonzero;stroke:none;stroke-width:1.33333"
       id="path13843" />
    <path
       d="m 330.52119,342.28813 22.74933,9.996 1.82267,-4.14933 -22.74933,-9.996 z"
       style="fill:#c7b791;fill-opacity:1;fill-rule:nonzero;stroke:none;stroke-width:1.33333"
       id="path13847" />
    <path
       d="m 329.21159,346.6692 22.78533,10.12533 1.888,-4.124 -22.78399,-10.12666 z"
       style="fill:#c7b791;fill-opacity:1;fill-rule:nonzero;stroke:none;stroke-width:1.33333"
       id="path13851" />
    <path
       d="m 351.85986,357.0732 -22.82,-10.256 -1.956,4.1 0.796,0.35867 -2.19333,3.88933 22.05999,11.716 2.23467,-3.964 -20.91333,-11.108 20.836,9.364 z"
       style="fill:#c7b791;fill-opacity:1;fill-rule:nonzero;stroke:none;stroke-width:1.33333"
       id="path13855" />
    <path
       d="m 322.46293,360.67667 22.75866,10.37866 1.98,-4.08933 -22.75866,-10.37867 z"
       style="fill:#c7b791;fill-opacity:1;fill-rule:nonzero;stroke:none;stroke-width:1.33333"
       id="path13859" />
    <path
       d="m 319.74346,365.0264 22.72933,10.44133 1.99067,-4.084 -22.728,-10.44133 z"
       style="fill:#c7b791;fill-opacity:1;fill-rule:nonzero;stroke:none;stroke-width:1.33333"
       id="path13863" />
    <path
       d="m 317.84266,370.4356 22.69866,10.50267 2.00267,-4.07867 -22.69866,-10.50267 z"
       style="fill:#c7b791;fill-opacity:1;fill-rule:nonzero;stroke:none;stroke-width:1.33333"
       id="path13867" />
    <path
       d="m 316.43973,375.258 20.04133,10.836 -21.232,-9.96667 -2.02667,4.06667 22.63733,10.62667 1.98667,-3.98934 0.56,0.30267 2.26533,-3.94667 -21.96666,-11.876 z"
       style="fill:#c7b791;fill-opacity:1;fill-rule:nonzero;stroke:none;stroke-width:1.33333"
       id="path13871" />
    <path
       d="m 312.00359,385.33867 22.60667,10.688 2.03866,-4.06267 -22.60666,-10.68667 z"
       style="fill:#c7b791;fill-opacity:1;fill-rule:nonzero;stroke:none;stroke-width:1.33333"
       id="path13875" />
    <path
       d="m 331.54959,399.9668 1.67867,-3.32133 -22.576,-10.748 -2.05067,4.056 21.03067,10.01333 z"
       style="fill:#c7b791;fill-opacity:1;fill-rule:nonzero;stroke:none;stroke-width:1.33333"
       id="path13879" />
    <path
       d="m 326.83279,399.9668 -19.70666,-9.44933 -2.06267,4.05066 11.25867,5.39867 z"
       style="fill:#c7b791;fill-opacity:1;fill-rule:nonzero;stroke:none;stroke-width:1.33333"
       id="path13883" />
    <path
       d="m 314.95973,399.9668 -8.904,-4.3 -2.07467,4.04533 0.528,0.25467 z"
       style="fill:#c7b791;fill-opacity:1;fill-rule:nonzero;stroke:none;stroke-width:1.33333"
       id="path13887" />
    <path
       d="m 383.95252,281.82947 -0.34933,2.636 -25.02667,-12.448 0.93734,-2.43733 13.51333,6.38266 z m 1.34534,-3.43067 -0.19334,2.01334 -11.56666,-5.46267 -13.47734,-7.23733 0.54134,-1.30267 z m -21.356,-11.62933 -2.904,-1.40933 0.0227,-0.0547 z m -4.74934,-2.30533 0.688,-1.54267 20.54667,10.912 -19.37067,-9.144 -1.04133,0.17333 z m -2.54533,-4.63067 1.46933,-3.072 25.404,15.24667 -0.008,0.116 -23.47733,-12.33334 -0.68667,1.53867 z m 26.688,14.77733 -22.99067,-12.72933 0.23334,-0.52267 22.84666,12 z m 1.736,-0.38666 -0.16133,1.924 -0.52667,-0.268 0.13867,-1.944 z m -25.98933,1.00266 23.676,11.248 -0.34534,2.884 -24.464,-10.93466 z m 22.49466,18.94267 -24.00266,-10.40933 1.05066,-3.23067 23.33734,10.69467 z m -2.19733,4.664 -23.52,-9.88 0.96533,-3.26267 22.98134,10.136 z m -1.54267,4.87467 -23.04,-9.35067 0.88267,-3.296 22.62533,9.57733 z m -2.364,4.36666 -22.57866,-8.828 0.79733,-3.33066 22.292,9.028 z m -3.08133,4.084 -22.58,-8.42266 1.09867,-3.27734 22.036,8.508 z m -2.54133,4.16134 -0.65867,-0.23334 -21.704,-8.756 0.696,-2.37066 22.26267,8.10933 z m -2.3,4.1 -22.052,-8.89467 0.74666,-2.38133 22.352,7.936 z m -2.33734,4.89333 -6.02533,-2.46133 -15.83733,-7.252 0.87333,-2.64 22.09067,9.024 z m -0.80933,4.904 -3.27733,-1.37467 -18.51867,-8.48 1.03467,-2.63333 15.104,6.16933 6.9,3.15867 z m -2.264,3.95066 -0.72267,-0.30266 -20.82933,-8.836 1.14133,-3.11867 18.136,7.60267 3.408,1.56 z m -1.26533,4.38134 -21.62267,-9.176 1.19067,-3.1 20.38533,8.544 1.272,0.54 z m -2.90134,4.37866 -21.66133,-9.3 1.276,-3.17199 21.66133,9.29866 z m -2.084,4.37867 -21.69866,-9.424 1.32666,-3.15467 21.69867,9.42534 z m -2.90266,4.248 -21.736,-9.55067 1.37733,-3.13733 21.73733,9.55067 z m -1.26534,4.51333 -21.77333,-9.67733 1.42934,-3.11867 21.77333,9.676 z m -2.08266,4.37867 -20.328,-9.13467 -1.43733,-0.764 1.43333,-3.004 21.812,9.80134 z m -0.416,2.69333 -1.692,2.99867 -21.08267,-11.19733 1.66667,-2.95334 0.71067,0.31867 z m -4.26267,7.18934 -21.752,-9.92134 1.49734,-3.09333 21.75333,9.92 z m -2.748,4.40933 -21.72266,-9.97867 1.50666,-3.08933 21.72267,9.97867 z m 44.36267,-97.74533 -0.57067,-0.29067 0.26133,-3.13333 -1.65466,-0.86933 0.092,-1.30667 -27.07067,-16.248 -2.47067,5.16267 3.724,2.06133 -1.17733,2.636 1.87067,0.908 -1.284,3.09067 0.19066,0.0907 -1.33733,3.47867 21.39867,10.644 -20.11467,-9.556 -1.904,5.37067 1.21333,0.54266 -1.5,4.61734 -0.13866,-0.06 -1.62134,5.47466 0.37067,0.15467 -1.304,4.87333 -0.652,-0.26533 -1.23733,5.16133 -1.448,-0.55866 -1.648,4.91866 -1.128,-0.41066 -1.00534,3.424 -0.596,-0.24 -1.592,5.07733 -0.71333,-0.292 -1.81733,5.49067 0.88133,0.35866 -1.27333,3.24134 -0.23067,-0.0973 -1.93467,5.28934 0.268,0.11333 -1.38133,3.6 -1.056,-0.45333 -1.76933,4.39866 -0.284,-0.124 -1.91733,4.56267 -0.952,-0.41867 -2.268,5.16133 0.572,0.25067 -1.51334,3.304 -0.0773,-0.0347 -2.43333,5.09867 0.76,0.34133 -2.17467,3.85467 10.82933,5.752 -11.57466,-5.27867 -2.21734,4.57867 -0.488,-0.224 -2.47733,5.07867 23.73466,10.90133 2.26134,-4.636 0.49066,0.224 2.10934,-4.35733 0.36933,0.19733 2.77867,-4.928 -6.588,-3.49867 6.016,2.70267 2.09066,-4.38133 0.0107,0.005 0.31467,-0.68533 0.0173,-0.0373 h -0.001 l 2.01866,-4.408 -0.664,-0.296 1.63067,-3.71333 0.888,0.38533 1.88,-4.472 0.22133,0.0947 1.92934,-4.79733 0.99066,0.42 2.01867,-5.25734 -0.35733,-0.152 1.12266,-3.06799 0.7,0.32 2.11334,-5.38267 -0.92934,-0.42533 1.44934,-4.37734 0.65066,0.26267 1.40267,-4.47333 1.05867,0.376 0.87333,-4.76134 1.67733,0.62534 0.85467,-4.93067 2.236,0.87467 0.812,-4.97734 1.56133,0.63467 0.79067,-5.172 0.764,0.32133 0.74933,-5.27466 1.46267,0.63466 0.63867,-4.88133 0.21066,0.0947 0.612,-5.10934 0.552,0.27467 0.59734,-4.516 0.96266,0.45467 z"
       style="fill:#000000;fill-opacity:1;fill-rule:nonzero;stroke:none;stroke-width:1.33333"
       id="path13891" />
    <path
       d="m 314.29426,382.00787 21.60666,10.21466 -1.54266,3.072 -21.60667,-10.21333 z m 1.208,-5.15067 20.71733,9.724 0.89333,0.48267 -1.508,3.02666 -21.63599,-10.156 z m 1.7,-1.816 1.71333,-2.98667 20.99467,11.34934 -1.66667,2.90533 -1.51333,-0.70933 z m 2.90133,-7.95467 21.69467,10.03734 -1.516,3.08533 -21.69333,-10.03733 z m 10.816,32.88 -21.56933,-10.26933 1.552,-3.068 21.57733,10.272 -1.54933,3.06533 h 1.23867 l 1.80933,-3.576 -15.24267,-7.25733 16.12667,7.624 2.53466,-5.05067 -1.10133,-0.52133 1.79067,-3.59467 0.532,0.28667 2.816,-4.90667 -12.95867,-7.00533 12.324,5.70133 2.49067,-5.072 -23.70267,-10.96533 -2.49066,5.07067 1.044,0.484 -2.464,4.29066 3.4,1.83734 -4.08267,-1.91467 -2.52,5.05733 1.10267,0.51734 -2.312,4.604 -0.86267,-0.41067 -2.55067,5.044 20.49467,9.75733 z"
       style="fill:#000000;fill-opacity:1;fill-rule:nonzero;stroke:none;stroke-width:1.33333"
       id="path13895" />
    <path
       d="m 303.23586,399.9668 h 2.54533 l -1.04933,-0.50667 1.56933,-3.06 7.38667,3.56667 h 3.91467 l -11.78934,-5.65333 1.56,-3.064 18.18,8.71733 h 2.55867 l -21.23467,-10.18267 -2.564,5.03734 1.248,0.59866 -2.33066,4.544 z"
       style="fill:#000000;fill-opacity:1;fill-rule:nonzero;stroke:none;stroke-width:1.33333"
       id="path13899" />
    <path
       d="m 296.21333,275.986 c -5.652,20.744 -24.57734,28.85467 -38.77734,43.24534 -13.72266,13.90533 -23.06,31.04933 -28.84133,49.45599 -3.29733,10.49734 -5.02533,21.34534 -9.02,31.328 9.624,-1.604 24.84267,-16.76666 31.6,-23.20533 7.956,-7.58 14.74667,-15.61467 19.076,-25.66533 4.49067,-10.42534 9.29333,-20.692 14.09733,-30.81333 3.96534,-8.35467 9.71867,-16.24267 12.38934,-24.83467 1.36933,-4.40933 4.732,-12.672 3.36133,-17.20667 -2.37333,1.91067 -4.73867,4.56934 -3.88533,-2.304"
       style="display:inline;opacity:0.199997;fill:#000000;fill-opacity:1;fill-rule:nonzero;stroke:none;stroke-width:1.33333"
       id="path13909" />
    <path
       d="m 305.62959,252.96854 c -1.76933,2.94933 -52.932,100.19066 -86.184,146.99866 h 86.89734 c 20.42,-38.744 65.10266,-126.532 57.52799,-138.97733 -2.17333,-3.56933 -13.44266,-6.23333 -35.22399,-13.60133 -4.58934,-1.552 -9.112,-3.296 -13.616,-5.08 -4.19734,-1.664 -8.32667,-3.848 -12.76134,-4.81067 -2.084,-0.452 -4.64133,-1.61867 -6.73333,-1.61333 -1.45333,0.004 -4.09733,-0.53734 -4.20533,1.39066 l 4.67733,1.74667 c 0,0 11.71333,10.45867 9.62133,13.94667"
       style="display:inline;fill:#c7b791;fill-opacity:1;fill-rule:nonzero;stroke:none;stroke-width:1.33333"
       id="path13919" />
    <path
       id="path17241"
       style="display:inline;opacity:0.0800018;fill:#000000;fill-opacity:1;fill-rule:nonzero;stroke:none;stroke-width:1.33333"
       d="m 230.02373,399.9668 h 6.596 l -5.44667,-2.50267 z m 9.25506,-5.5048 -2.52933,5.50533 h 6.72667 l 1.35733,-2.95333 z m 19.21427,2.10013 -1.564,3.40534 h 6.72667 l 0.392,-0.85334 z m -13.66,0.45134 5.55467,2.552 2.55066,-5.55467 -5.55333,-2.552 z m -5.55427,-2.55147 2.552,-5.55467 -5.55466,-2.55066 -2.552,5.55333 z m 41.2684,5.5048 -2.84,-1.304 -0.59866,1.304 z m -8.39413,-3.856 -5.55467,-2.552 -2.55066,5.55467 1.85733,0.85333 h 4.476 z m -16.6628,-7.6544 -2.552,5.55467 5.55467,2.55066 2.552,-5.55333 z m -5.55427,-2.55147 -5.55466,-2.552 -2.55067,5.55467 5.55333,2.552 z m 33.8984,14.06187 h 6.72667 l 0.80667,-1.756 -5.55467,-2.552 z m -11.68133,-3.856 5.55467,2.552 2.55066,-5.55467 -5.55333,-2.552 z m -8.55707,-10.6572 -2.552,5.55467 5.55467,2.55066 2.552,-5.55333 z m -5.55426,-2.55147 -5.55467,-2.552 -2.55067,5.55467 5.55334,2.552 z m -11.10854,-5.10293 -5.55466,-2.552 -2.55067,5.55467 5.55333,2.552 z m 46.9856,14.85747 -2.552,5.55466 3.82267,1.756 h 2.09733 l 2.18667,-4.75866 z m -13.66,0.45133 5.55467,2.552 2.55067,-5.55467 -5.55334,-2.552 z m -11.10853,-5.10293 5.55467,2.552 2.55066,-5.55467 -5.55333,-2.552 z m -3.0028,-8.10574 -5.55467,-2.552 -2.55066,5.55467 5.55333,2.552 z m -11.10853,-5.10293 -5.55467,-2.552 -2.55067,5.55467 5.55334,2.552 z m 44.43413,20.41173 5.55467,2.552 2.55066,-5.55466 -5.55333,-2.552 z m -8.55707,-10.6572 -2.552,5.55467 5.55467,2.55067 2.552,-5.55334 z m -13.66,0.45134 5.55467,2.552 2.55067,-5.55467 -5.55334,-2.552 z m -3.0028,-8.10574 -5.55466,-2.552 -2.55067,5.55467 5.55333,2.552 z m -11.10853,-5.10293 -5.55467,-2.552 -2.55066,5.55467 5.55333,2.552 z m -11.10853,-5.10293 -5.55467,-2.552 -2.55067,5.55466 5.55334,2.552 z m 55.54266,25.51466 2.28534,1.04934 c 0.91333,-1.74667 1.85333,-3.55334 2.82533,-5.428 l -2.55867,-1.176 z m -11.10853,-5.10293 5.55467,2.552 2.55066,-5.55467 -5.55333,-2.552 z m -8.55707,-10.6572 -2.552,5.55467 5.55467,2.55066 2.552,-5.55333 z m -13.66,0.45133 5.55467,2.552 2.55067,-5.55466 -5.55334,-2.552 z m -3.0028,-8.10573 -5.55466,-2.552 -2.55067,5.55467 5.55333,2.552 z m -11.10853,-5.10293 -5.55467,-2.552 -2.55066,5.55466 5.55333,2.552 z m 44.434,20.41173 5.55467,2.552 2.55066,-5.55467 -5.55333,-2.552 z m -11.1084,-5.10293 5.55467,2.552 2.55066,-5.55467 -5.55333,-2.552 z m -8.55707,-10.6572 -2.552,5.55466 5.55467,2.55067 2.552,-5.55333 z m -5.55426,-2.55147 -5.55467,-2.552 -2.55067,5.55467 5.55334,2.552 z m -11.10854,-5.10293 -5.55466,-2.552 -2.55067,5.55466 5.55333,2.552 z m -11.10853,-5.10294 -5.55467,-2.552 -2.55066,5.55467 5.55333,2.552 z m 55.54267,25.51467 2.81733,1.29467 c 0.91333,-1.776 1.844,-3.59067 2.79067,-5.444 l -3.056,-1.40534 z m -11.10854,-5.10293 5.55467,2.552 2.55067,-5.55467 -5.55334,-2.552 z m -11.10866,-5.10294 5.55466,2.552 2.55067,-5.55466 -5.55333,-2.552 z m -8.55694,-10.6572 -2.552,5.55467 5.55467,2.55067 2.552,-5.55334 z m -5.55426,-2.55146 -5.55467,-2.552 -2.55067,5.55466 5.55334,2.552 z m -11.10854,-5.10294 -5.55466,-2.552 -2.55067,5.55467 5.55333,2.552 z m 44.43414,20.41174 5.55466,2.552 2.55067,-5.55467 -5.55333,-2.552 z m -11.10854,-5.10294 5.55467,2.552 2.55067,-5.55466 -5.55334,-2.552 z m -11.10853,-5.10293 5.55467,2.552 2.55066,-5.55467 -5.55333,-2.552 z m -3.0028,-8.10573 -5.55467,-2.552 -2.55066,5.55466 5.55333,2.552 z m -11.10853,-5.10294 -5.55467,-2.552 -2.55067,5.55467 5.55334,2.552 z m -11.10854,-5.10293 -5.55466,-2.552 -2.55067,5.55467 5.55333,2.552 z m 55.54254,25.51467 3.28,1.50666 c 0.90933,-1.79466 1.828,-3.61733 2.75466,-5.46133 l -3.48266,-1.6 z m -11.1084,-5.10294 5.55466,2.552 2.55067,-5.55466 -5.55333,-2.552 z m -11.10854,-5.10293 5.55467,2.552 2.55067,-5.55467 -5.55334,-2.552 z m -11.10853,-5.10293 5.55467,2.552 2.55066,-5.55467 -5.55333,-2.552 z m -3.0028,-8.10574 -5.55467,-2.552 -2.55066,5.55467 5.55333,2.552 z m 33.3256,15.3088 5.55467,2.552 2.55066,-5.55466 -5.55333,-2.552 z m -11.10867,-5.10293 5.55467,2.552 2.55067,-5.55467 -5.55334,-2.552 z m -11.1084,-5.10293 5.55467,2.552 2.55067,-5.55467 -5.55334,-2.552 z m -3.00293,-8.10574 -5.55467,-2.552 -2.55066,5.55467 5.55333,2.552 z m -11.1084,-5.10293 -5.55467,-2.552 -2.55066,5.55467 5.55333,2.552 z m 44.434,20.41173 3.66667,1.684 c 0.90266,-1.81066 1.808,-3.63866 2.71466,-5.47866 l -3.82933,-1.76 z m -11.10853,-5.10293 5.55466,2.552 2.55067,-5.55467 -5.55333,-2.552 z m -11.1084,-5.10293 5.55466,2.552 2.55067,-5.55467 -5.55333,-2.552 z m -11.10867,-5.10294 5.55467,2.552 2.55066,-5.55466 -5.55333,-2.552 z m -3.00267,-8.10573 -5.55466,-2.552 -2.55067,5.55467 5.55333,2.552 z m -16.6628,-7.65426 -2.552,5.55466 5.55467,2.55067 2.552,-5.55333 z m 49.9884,22.96306 5.55467,2.552 2.55067,-5.55467 -5.55334,-2.552 z m -11.10853,-5.10293 5.55467,2.552 2.55066,-5.55467 -5.55333,-2.552 z m -11.10867,-5.10294 5.55467,2.552 2.55067,-5.55466 -5.55334,-2.552 z m -3.00266,-8.10573 -5.55467,-2.552 -2.55067,5.55467 5.55334,2.552 z m -16.6628,-7.6544 -2.552,5.55467 5.55466,2.55067 2.552,-5.55334 z m 49.9884,22.9632 3.97066,1.824 c 0.89067,-1.828 1.78,-3.66267 2.66667,-5.50133 l -4.08533,-1.87734 z m -11.10867,-5.10293 5.55467,2.552 2.55066,-5.55467 -5.55333,-2.552 z m -11.1084,-5.10294 5.55467,2.552 2.55066,-5.55466 -5.55333,-2.552 z m -11.10853,-5.10293 5.55466,2.552 2.55067,-5.55466 -5.55333,-2.552 z m -8.55707,-10.6572 -2.552,5.55467 5.55467,2.55067 2.552,-5.55334 z m -5.55427,-2.55146 -5.55466,-2.552 -2.55067,5.55466 5.55333,2.552 z m 44.434,20.41173 5.55467,2.552 2.55067,-5.55467 -5.55334,-2.552 z m -11.1084,-5.10294 5.55467,2.552 2.55067,-5.55466 -5.55334,-2.552 z m -19.6656,-15.76013 -2.552,5.55467 5.55467,2.55067 2.552,-5.55334 z m -5.5544,-2.55146 -5.55466,-2.552 -2.55067,5.55466 5.55333,2.552 z m 44.43414,20.41173 4.17466,1.91733 c 0.87733,-1.844 1.74933,-3.68667 2.612,-5.52666 l -4.23467,-1.94534 z m -11.10854,-5.10293 5.55467,2.55199 2.55067,-5.55466 -5.55334,-2.552 z m -25.21986,-18.31147 -5.55467,-2.552 -2.55067,5.55467 5.55334,2.552 z m -11.1084,-5.10307 -5.55467,-2.552 -2.55067,5.55467 5.55334,2.552 z m 44.434,20.41174 5.55466,2.552 2.55067,-5.55467 -5.55333,-2.552 z m -11.10854,-5.10294 5.55467,2.552 2.55067,-5.55466 -5.55334,-2.552 z m -14.11133,-13.20866 -5.55467,-2.552 -2.55066,5.55466 5.55333,2.552 z m -11.1084,-5.10294 -5.55467,-2.552 -2.55066,5.55467 5.55333,2.552 z m 44.434,20.41174 4.26133,1.95733 c 0.86,-1.86267 1.708,-3.716 2.54267,-5.55867 l -4.252,-1.95333 z m -11.1084,-5.10294 5.55467,2.552 2.55066,-5.55466 -5.55333,-2.552 z m -25.22,-18.3116 -5.55467,-2.552 -2.55066,5.55467 5.55333,2.552 z m -11.10853,-5.10293 -5.55467,-2.552 -2.55067,5.55467 5.55334,2.552 z m 44.43413,20.41173 5.55466,2.552 2.55067,-5.55466 -5.55333,-2.552 z m -11.10853,-5.10293 5.55466,2.552 2.55067,-5.55467 -5.55333,-2.552 z m -25.21974,-18.31147 -5.55466,-2.552 -2.55067,5.55467 5.55333,2.552 z m 44.434,20.4116 4.2,1.92934 c 0.83733,-1.88667 1.65467,-3.75467 2.452,-5.6 l -4.1,-1.884 z m -11.10853,-5.10293 5.55466,2.552 2.55067,-5.55467 -5.55333,-2.552 z m -25.21987,-18.3116 -5.55466,-2.552 -2.55067,5.55467 5.55333,2.552 z m -11.10853,-5.1028 -5.55467,-2.552 -2.55066,5.55467 5.55333,2.552 z m 44.43413,20.4116 5.55467,2.552 2.37066,-5.16267 -5.55466,-2.55066 z m -11.10853,-5.10293 5.55466,2.552 2.37067,-5.16267 -5.55466,-2.55067 z m -25.40013,-17.9192 -5.55467,-2.552 -2.37067,5.16266 5.55467,2.55067 z m 44.43413,20.41173 3.95733,1.81867 c 0.748,-1.78 1.47333,-3.53467 2.17067,-5.25467 l -3.75734,-1.72533 z m -11.10854,-5.1028 5.55467,2.552 2.37067,-5.16267 -5.55467,-2.55066 z m -25.40013,-17.9192 -5.55466,-2.552 -2.37067,5.16267 5.55467,2.55066 z m -11.1084,-5.10293 -5.55466,-2.552 -2.37067,5.16266 5.55467,2.55067 z m 44.434,20.4116 5.55467,2.552 2.37066,-5.16267 -5.55466,-2.55067 z m -11.10853,-5.10294 5.55466,2.552 2.37067,-5.16266 -5.55467,-2.55067 z m -14.2916,-12.81613 -5.55467,-2.552 -2.37066,5.16267 5.55466,2.55066 z m -11.10853,-5.10293 -5.55467,-2.552 -2.37067,5.16266 5.55467,2.55067 z m 44.43413,20.41173 3.484,1.6 c 0.66666,-1.71867 1.30133,-3.396 1.90133,-5.03067 l -3.14533,-1.444 z m -11.10854,-5.10293 5.55467,2.552 2.23867,-4.876 -5.55334,-2.55067 z M 330.74719,283.2 l 5.55467,2.552 2.23866,-4.876 -5.55333,-2.55066 z m -14.42333,-12.52946 -5.55467,-2.552 -2.23866,4.876 5.55333,2.55066 z m 33.3256,15.3088 5.55466,2.552 2.23867,-4.876 -5.55333,-2.55067 z m -11.10854,-5.10294 5.55467,2.552 2.23867,-4.876 -5.55334,-2.55066 z m -31.08613,-20.18386 -2.24,4.87466 5.55467,2.552 2.24,-4.87466 z m 38.87987,17.86026 5.55466,2.552 1.93467,-4.212 -5.55467,-2.55066 z m 7.48866,-1.65946 5.55467,2.552 1.93333,-4.212 -5.55333,-2.55067 z m -11.10853,-5.10294 5.55467,2.552 1.93333,-4.212 -5.55333,-2.55066 z m -25.83706,-16.96826 -5.55467,-2.552 -1.93333,4.212 5.55333,2.55066 z m -11.834,-5.43614 c 0.17333,0.32134 0.324,0.636 0.448,0.93867 l 0.27733,-0.60533 z m 45.15959,20.74507 5.55467,2.552 1.508,-3.284 -5.55467,-2.55067 z m -5.55426,-2.5516 1.508,-3.28267 -5.55467,-2.552 -1.508,3.28267 z m -11.1084,-5.1028 1.508,-3.28267 -5.55467,-2.552 -1.508,3.28267 z m -11.10867,-5.10293 1.508,-3.28267 -5.55466,-2.552 -1.508,3.28267 z m -9.6004,-8.38574 -5.55466,-2.552 -1.508,3.284 5.55466,2.55067 z m -12.56146,-5.77053 c 0.388,0.41333 0.78,0.844 1.16933,1.28533 l 0.284,-0.61733 z m 56.99559,26.18213 5.55467,2.552 1.508,-3.284 -5.55467,-2.55066 z m -5.55426,-2.55146 1.508,-3.28267 -5.55467,-2.552 -1.508,3.28267 z m -11.10867,-5.10294 1.508,-3.28266 -5.55467,-2.552 -1.508,3.28266 z m -11.1084,-5.1028 1.508,-3.28266 -5.55466,-2.552 -1.508,3.28266 z m -11.10853,-5.10306 1.508,-3.28267 -5.55467,-2.552 -1.508,3.28267 z m -11.10853,-5.10294 1.508,-3.28266 -5.55467,-2.552 -1.508,3.28266 z m 51.49639,19.6804 1.296,-2.82 -5.55466,-2.552 -1.296,2.82 z m -11.10853,-5.10293 1.296,-2.82 -5.55467,-2.552 -1.296,2.82 z m -11.10853,-5.10293 1.296,-2.82 -5.55467,-2.552 -1.296,2.82 z m -11.10853,-5.10294 1.296,-2.82 -5.55467,-2.552 -1.296,2.82 z m -16.6628,-7.6544 5.55466,2.552 1.296,-2.82133 -5.54133,-2.54533 c -0.005,-0.001 -0.009,-0.004 -0.0133,-0.005 z m 1.30866,-2.81466 -0.0133,-0.005 v 0 c 0.004,10e-4 0.009,0.004 0.0133,0.005 m -6.86293,0.2632 1.15067,-2.504 c -2.16134,-0.82 -4.11067,-1.50667 -5.80667,-2.00267 l -0.89867,1.95467 z m 1.29573,-2.82054 -5.55466,-2.552 -0.39734,0.86534 c 1.696,0.496 3.64534,1.184 5.80667,2.00266 z m 55.54267,25.51467 4.64933,2.136 c 0.0227,-1.47067 -0.13067,-2.69067 -0.476,-3.63467 l -2.87733,-1.32133 z m -4.25854,-5.37213 -5.55466,-2.552 -1.296,2.82133 5.55466,2.55067 z m -12.40426,-2.28227 1.296,-2.82 -1.18934,-0.54667 c -1.452,-0.46933 -2.99066,-0.96666 -4.60133,-1.49066 l -1.06,2.30533 z m -22.21707,-10.20587 0.28534,-0.62133 c -1.95867,-0.73867 -3.86534,-1.48267 -5.71067,-2.212 l -0.12933,0.28133 z m -11.10893,-5.1024 v 0 l -5.55333,-2.552 -0.14534,0.316 c 1.768,0.67067 3.67467,1.42667 5.69867,2.236 m -76.35613,151.57693 -5.55467,-2.552 -2.55067,5.55467 5.55334,2.552 z m -8.10574,3.0028 -2.016,-0.92533 c -1.19866,1.756 -2.37866,3.45733 -3.53866,5.1 l 1.91333,0.87867 h 1.32 z m 5.10294,-11.10853 -0.264,-0.12133 c -1.14267,1.75866 -2.27467,3.48266 -3.39467,5.16666 l 1.10667,0.50934 z m 5.55426,2.55147 2.552,-5.55467 -5.02933,-2.30933 c -0.75067,1.17733 -1.49733,2.34133 -2.24133,3.492 l -0.836,1.82 z m -3.0028,-8.10574 -1.71466,3.73467 c 0.74266,-1.152 1.48933,-2.316 2.24,-3.49333 z m 10.6572,-8.55706 -3.58,-1.644 c -1.08933,1.76266 -2.17466,3.508 -3.256,5.23066 l 4.284,1.968 z m 5.10294,-11.10854 -2.268,-1.04133 c -1.06534,1.76533 -2.12934,3.51867 -3.192,5.26 l 2.908,1.336 z m 5.10293,-11.10853 -1.068,-0.49067 c -1.04533,1.76667 -2.092,3.52934 -3.13867,5.284 l 1.65467,0.76134 z m 4.90413,-10.676 c -0.948,1.63067 -1.90133,3.26133 -2.856,4.89067 l 0.50267,0.23066 z m 3.31694,-5.7264 c -1.02,1.768 -2.04534,3.54 -3.076,5.31333 l 5.512,2.532 2.552,-5.55466 z m 0,0 -0.56667,-0.26 -2.552,5.55333 0.0427,0.02 c 1.03066,-1.77333 2.056,-3.54533 3.076,-5.31333 m 10.09053,-8.81746 -3.98933,-1.832 c -1.00534,1.76666 -2.02,3.54266 -3.04267,5.328 l 4.48,2.05866 z m 5.10293,-11.10854 -3.052,-1.40266 c -0.992,1.764 -1.99733,3.54666 -3.01333,5.34266 l 3.51333,1.61467 z m 5.1028,-11.1084 -2.172,-0.99733 c -0.97733,1.75733 -1.972,3.544 -2.98533,5.35467 l 2.60533,1.19733 z m 5.10294,-11.10866 -1.34134,-0.616 c -0.96133,1.748 -1.94933,3.53733 -2.96,5.36666 l 1.74934,0.804 z m 4.9228,-10.716 -0.58267,-0.268 c -0.87867,1.60933 -1.788,3.276 -2.732,4.99733 l 0.944,0.432 z m 3.97093,-8.6444 c -0.588,1.084 -1.19733,2.208 -1.832,3.376 l 0.232,0.10666 z m 3.43733,-6.3584 -0.42666,-0.196 -2.24,4.87466 0.11066,0.0507 c 0.92134,-1.7 1.77467,-3.28267 2.556,-4.72933 m -4.08,-24.19067 c 0,0 0.32934,0.29467 0.85867,0.792 l 0.81067,-1.76267 -5.368,-2.46533 c -0.12267,0.0653 -0.232,0.144 -0.332,0.23067 l -0.63467,1.38133 c -10e-4,0.0267 -0.009,0.0493 -0.012,0.0773 z m -3.88506,-3.52213 -0.14534,0.31733 c 0.1,-0.0867 0.20934,-0.16533 0.332,-0.232 z m -26.7064,90.25333 -1.07334,-0.49333 -2.552,5.55466 0.56667,0.26 c 1.02667,-1.78 2.04667,-3.55333 3.05867,-5.32133 m -28.79654,74.21413 0.108,0.0493 0.0227,-0.0493 z m 0.47507,-26.6872 -1.26933,-0.58267 -2.552,5.55334 0.52533,0.24133 c 1.092,-1.712 2.19067,-3.44933 3.296,-5.212 m 22.14453,-36.91173 -0.19866,0.432 c 0.08,-0.13734 0.16,-0.27467 0.24,-0.41334 z m 43.39867,-77.88813 -0.73733,-0.33867 -2.24,4.87467 0.42666,0.196 c 0.96534,-1.788 1.81867,-3.37334 2.55067,-4.732 m -5.21627,9.41146 -0.772,1.67867 c 0.30134,-0.55333 0.59467,-1.096 0.88267,-1.628 z m 11.9676,-11.4096 -4.54666,-2.088 c -0.51334,0.94534 -1.25467,2.32134 -2.204,4.08667 l 4.816,2.212 z m 0.5844,42.65534 -5.55466,-2.552 -2.55067,5.55466 5.55333,2.552 z m 4.92267,-10.71614 -5.55467,-2.552 -2.37066,5.16267 5.55466,2.55067 z m -14.80867,-25.20866 c -0.78133,1.44666 -1.63466,3.02933 -2.556,4.72933 l 5.444,2.50133 2.24,-4.87466 z m 12.88894,44.0304 5.55466,2.552 2.55067,-5.55467 -5.55333,-2.552 z m 8.1056,-3.0028 5.55466,2.552 2.55067,-5.55467 -5.55333,-2.552 z m -11.10854,-5.1028 5.55467,2.552 2.55067,-5.55467 -5.55334,-2.552 z m 8.10574,-3.00294 5.55466,2.552 2.37067,-5.16266 -5.55467,-2.55067 z m 7.92546,-2.61026 5.55467,2.552 2.37066,-5.16267 -5.55466,-2.55067 z m -11.10853,-5.10294 5.55467,2.552 2.37066,-5.16266 -5.55466,-2.55067 z m -12.12573,41.0388 5.55466,2.552 2.55067,-5.55466 -5.55333,-2.552 z m -3.00267,-8.10573 5.55467,2.552 2.55066,-5.55467 -5.55333,-2.552 z m 5.1028,-11.10853 5.55467,2.552 2.55066,-5.55467 -5.55333,-2.552 z m 14.768,-32.14827 5.55467,2.552 2.23866,-4.876 -5.55333,-2.55067 z m 4.47893,-9.75013 -5.55466,-2.552 -2.23867,4.876 5.55333,2.55066 z m 11.10853,5.10293 5.55467,2.552 1.93333,-4.212 -5.55333,-2.55067 z m -5.55426,-2.55147 1.93467,-4.21066 -5.55467,-2.552 -1.93467,4.21066 z m 7.48866,-1.65946 1.93467,-4.21067 -5.55467,-2.552 -1.93466,4.21067 z m -11.10853,-5.1028 1.93467,-4.21067 -5.55467,-2.552 -1.93466,4.21067 z m 13.096,-13.8664 -0.236,0.51466 c 1.61067,0.524 3.14933,1.02134 4.60133,1.49067 z m -6.84986,0.2692 0.768,-1.672 c -1.42667,-0.472 -2.89067,-0.96134 -4.41867,-1.47867 -0.472,-0.15867 -0.93867,-0.32133 -1.40667,-0.484 l -0.49733,1.08267 z m -4.86574,25.23453 5.55467,2.552 2.23866,-4.876 -5.55333,-2.55067 z m -16.55613,50.68333 5.55467,2.552 2.55066,-5.55466 -5.55333,-2.552 z m 9.62147,-64.87226 -5.55467,-2.552 -1.93333,4.212 5.55333,2.55066 z m 2.324,24.22586 5.55466,2.552 2.37067,-5.16266 -5.55467,-2.55067 z m -14.94814,32.54067 5.55467,2.552 2.55067,-5.55467 -5.55334,-2.552 z m 8.1056,-3.0028 5.55467,2.552 2.55067,-5.55467 -5.55334,-2.552 z m -65.77643,84.6185 h 1.06 l -0.876,-0.40133 z m 53.81054,0 h 2.32933 c 0.22267,-0.42133 0.452,-0.85733 0.68,-1.29067 l -1.996,-0.916 z m -33.6656,-58.496 -5.55467,-2.552 -2.55067,5.55467 5.55334,2.552 z m 87.09546,-57.81506 2.70667,1.244 c 0.52133,-1.53067 1.00666,-3.012 1.448,-4.43467 l -2.22,-1.02 z m 3.86867,-8.42187 1.58666,0.72933 c 0.33334,-1.252 0.62534,-2.44533 0.872,-3.576 l -0.95066,-0.436 z m 3.01613,-6.5656 0.112,0.052 c 0.02,-0.14 0.0347,-0.27333 0.052,-0.40933 z m -92.8424,46.42 -2.04,-0.93733 -2.552,5.55466 1.56534,0.71867 c 1.01866,-1.79067 2.028,-3.57067 3.02666,-5.336 m 93.0064,-46.7772 1.132,-2.464 -0.90533,-0.41467 c -0.0147,0.872 -0.0933,1.83734 -0.22667,2.87867" />
    <path
       d="m 340.87959,272.93654 -1.79467,-3.41867 c -0.164,-0.312 -0.43333,-0.56533 -0.75333,-0.712 l -0.088,-0.16 0.90133,-0.476 c 0.58,-0.30533 0.76534,-1.02933 0.42934,-1.66933 l -1.79334,-3.41734 c -0.18266,-0.34666 -0.49733,-0.62266 -0.86533,-0.75733 -0.368,-0.13467 -0.75733,-0.11733 -1.072,0.048 l -1.79867,0.948 -11.58933,-3.67467 -0.896,-1.70666 c -0.18266,-0.348 -0.496,-0.62267 -0.86533,-0.75734 -0.368,-0.13466 -0.75733,-0.11866 -1.072,0.048 l -3.376,1.77734 c -0.57867,0.30533 -0.76533,1.03066 -0.42933,1.67066 l 0.352,0.67067 c -0.13734,-0.11333 -0.292,-0.20133 -0.45867,-0.26267 -0.36933,-0.13466 -0.75733,-0.11733 -1.07333,0.048 l -3.37467,1.77867 c -0.58,0.30533 -0.76667,1.03067 -0.42933,1.67067 l 2.37066,4.516 -1.06266,0.55866 c -0.57867,0.30667 -0.76534,1.03067 -0.42934,1.67067 l 1.324,2.52267 -1.55333,0.81733 c -0.58,0.30533 -0.76667,1.03067 -0.42933,1.67067 l 3.26933,6.22933 -0.24267,0.216 -0.98933,-0.21067 c -0.49867,-0.10666 -0.984,0.0653 -1.25467,0.444 l -0.63466,0.89467 -1.056,0.0173 c -0.48134,0.008 -0.88667,0.27334 -1.06134,0.69334 l -0.42533,1.02666 -1.05467,0.26267 c -0.44666,0.11067 -0.768,0.45467 -0.84533,0.90533 l -0.18667,1.092 -0.984,0.5 c -0.40266,0.20534 -0.63466,0.62134 -0.60933,1.09334 l 0.0587,1.084 -0.84667,0.708 c -0.35067,0.292 -0.48267,0.77333 -0.34667,1.25333 l 0.28534,1.00667 -0.656,0.86666 c -0.28534,0.37867 -0.30534,0.91334 -0.0507,1.38 l 0.47467,0.876 -0.43067,0.96 c -0.20533,0.45734 -0.0973,1.028 0.276,1.45334 l 0.62133,0.71066 -0.19733,0.98934 c -0.10533,0.52533 0.14133,1.10133 0.62133,1.45066 l 0.72934,0.52934 0.024,0.96133 c 0.0147,0.568 0.39866,1.11067 0.95333,1.34933 l 0.81333,0.348 0.0333,0.13067 -6.26,3.29867 c -0.57867,0.30533 -0.76534,1.03066 -0.42934,1.67066 l 0.776,1.47734 -2.584,1.36266 c -0.57866,0.30534 -0.76533,1.02934 -0.42933,1.66934 l 0.51467,0.98133 -4.55334,2.39867 c -0.57866,0.30533 -0.76533,1.03066 -0.42933,1.672 l 1.79467,3.41733 c 0.18266,0.34667 0.496,0.62133 0.86533,0.75733 0.04,0.0133 0.0813,0.0267 0.12133,0.0373 l -0.41066,0.21733 c -0.58,0.30533 -0.76667,1.03067 -0.42934,1.67067 l 1.79467,3.41733 c 0.18267,0.34667 0.496,0.62267 0.86533,0.75733 0.36534,0.132 0.756,0.116 1.072,-0.0493 l 1.79734,-0.948 11.58933,3.676 0.896,1.70666 c 0.18267,0.34667 0.49733,0.62267 0.86533,0.75734 0.164,0.06 0.332,0.0893 0.496,0.0893 0.204,0 0.40134,-0.0453 0.576,-0.13733 l 3.37467,-1.77867 c 0.58,-0.30533 0.76667,-1.02933 0.43067,-1.67066 l -0.43067,-0.81867 0.36133,-0.184 c 0.31734,0.0773 0.64134,0.044 0.91067,-0.0973 l 3.376,-1.77734 c 0.57867,-0.30533 0.76533,-1.03066 0.42933,-1.67066 l -2.032,-3.872 1.06134,-0.56 c 0.58,-0.30534 0.76666,-1.02934 0.43066,-1.67067 l -1.324,-2.52267 1.552,-0.81733 c 0.57867,-0.30533 0.76534,-1.02933 0.42934,-1.67067 l -3.15067,-6.00266 0.39867,-0.35334 0.98933,0.20934 c 0.504,0.10533 0.98667,-0.0653 1.256,-0.444 l 0.63467,-0.89467 1.056,-0.0173 c 0.48133,-0.007 0.88533,-0.272 1.06,-0.69334 l 0.42533,-1.02666 1.056,-0.26134 c 0.44667,-0.11066 0.76933,-0.456 0.84533,-0.90666 l 0.18667,-1.092 0.984,-0.5 c 0.40267,-0.20534 0.63467,-0.62134 0.60933,-1.09334 l -0.0587,-1.084 0.84533,-0.70666 c 0.35067,-0.29334 0.484,-0.77467 0.348,-1.25467 l -0.28533,-1.00667 0.65466,-0.86666 c 0.28667,-0.37734 0.30667,-0.912 0.052,-1.38 l -0.47466,-0.87467 0.43066,-0.96133 c 0.20534,-0.45734 0.0973,-1.028 -0.276,-1.45334 l -0.62133,-0.71066 0.19733,-0.98934 c 0.10534,-0.524 -0.14133,-1.10133 -0.62,-1.44933 l -0.73066,-0.53067 -0.024,-0.96 c -0.0147,-0.56933 -0.39867,-1.112 -0.95334,-1.35066 l -0.81333,-0.348 -0.084,-0.336 6.03333,-3.18 c 0.58133,-0.30534 0.76667,-1.03067 0.43067,-1.67067 l -0.776,-1.47733 2.584,-1.36134 c 0.57866,-0.30533 0.76666,-1.03066 0.42933,-1.67066 l -0.51467,-0.98134 3.91734,-2.064 c 0.57866,-0.30533 0.76533,-1.03066 0.42933,-1.67066"
       style="display:inline;opacity:0.199997;fill:#000000;fill-opacity:1;fill-rule:nonzero;stroke:none;stroke-width:1.33333"
       id="path17257" />
    <path
       d="m 343.06572,272.39627 -1.79466,-3.41867 c -0.164,-0.312 -0.43334,-0.56533 -0.75334,-0.712 l -0.088,-0.16 0.90134,-0.476 c 0.58,-0.30533 0.76533,-1.02933 0.42933,-1.66933 l -1.79333,-3.41733 c -0.18267,-0.34667 -0.49734,-0.62267 -0.86534,-0.75734 -0.368,-0.13466 -0.75733,-0.11733 -1.072,0.048 l -1.79866,0.948 -11.58933,-3.67466 -0.896,-1.70667 c -0.18267,-0.348 -0.496,-0.62267 -0.86534,-0.75733 -0.368,-0.13467 -0.75733,-0.11867 -1.072,0.048 l -3.376,1.77733 c -0.57866,0.30533 -0.76533,1.03067 -0.42933,1.67067 l 0.352,0.67066 c -0.13733,-0.11333 -0.292,-0.20133 -0.45867,-0.26266 -0.36933,-0.13467 -0.75733,-0.11734 -1.07333,0.048 l -3.37467,1.77866 c -0.58,0.30534 -0.76666,1.03067 -0.42933,1.67067 l 2.37067,4.516 -1.06267,0.55867 c -0.57867,0.30533 -0.76533,1.03066 -0.42933,1.67066 l 1.324,2.52267 -1.55334,0.81733 c -0.58,0.30534 -0.76666,1.03067 -0.42933,1.67067 l 3.26933,6.22933 -0.24266,0.216 -0.98934,-0.21066 c -0.49866,-0.10667 -0.984,0.0653 -1.25466,0.444 l -0.63467,0.89466 -1.056,0.0173 c -0.48133,0.008 -0.88667,0.27333 -1.06133,0.69333 l -0.42534,1.02667 -1.05466,0.26266 c -0.44667,0.11067 -0.768,0.45467 -0.84534,0.90534 l -0.18666,1.092 -0.984,0.5 c -0.40267,0.20533 -0.63467,0.62133 -0.60934,1.09333 l 0.0587,1.084 -0.84667,0.708 c -0.35066,0.292 -0.48266,0.77333 -0.34666,1.25333 l 0.28533,1.00667 -0.656,0.86667 c -0.28533,0.37866 -0.30533,0.91333 -0.0507,1.38 l 0.476,0.876 -0.432,0.96 c -0.20533,0.45733 -0.0973,1.028 0.276,1.45333 l 0.62134,0.71067 -0.19734,0.98933 c -0.10533,0.52533 0.14134,1.10133 0.62134,1.45067 l 0.72933,0.52933 0.024,0.96133 c 0.0147,0.568 0.39867,1.11067 0.95333,1.34934 l 0.81334,0.348 0.0333,0.13066 -6.26,3.29867 c -0.57867,0.30533 -0.76533,1.03067 -0.42933,1.67067 l 0.776,1.47733 -2.584,1.36267 c -0.57867,0.30533 -0.76534,1.02933 -0.42934,1.66933 l 0.51467,0.98133 -4.55333,2.39867 c -0.57867,0.30533 -0.76534,1.03067 -0.42934,1.672 l 1.79467,3.41733 c 0.18267,0.34667 0.496,0.62134 0.86533,0.75734 0.04,0.0133 0.0813,0.0267 0.12134,0.0373 l -0.41067,0.21733 c -0.58,0.30534 -0.76667,1.03067 -0.42933,1.67067 l 1.79466,3.41733 c 0.18267,0.34667 0.496,0.62267 0.86534,0.75734 0.36533,0.132 0.756,0.116 1.072,-0.0493 l 1.79733,-0.948 11.58933,3.676 0.896,1.70667 c 0.18267,0.34666 0.49734,0.62266 0.86534,0.75733 0.164,0.06 0.332,0.0893 0.496,0.0893 0.204,0 0.40133,-0.0453 0.576,-0.13733 l 3.37466,-1.77866 c 0.58,-0.30534 0.76667,-1.02934 0.43067,-1.67067 l -0.43067,-0.81867 0.36134,-0.184 c 0.31733,0.0773 0.64133,0.044 0.91066,-0.0973 l 3.376,-1.77733 c 0.57867,-0.30534 0.76534,-1.03067 0.42934,-1.67067 l -2.032,-3.872 1.06133,-0.56 c 0.58,-0.30533 0.76667,-1.02933 0.43067,-1.67067 l -1.324,-2.52266 1.552,-0.81734 c 0.57866,-0.30533 0.76533,-1.02933 0.42933,-1.67066 l -3.15067,-6.00267 0.39867,-0.35333 0.98933,0.20933 c 0.504,0.10533 0.98667,-0.0653 1.256,-0.444 l 0.63467,-0.89467 1.056,-0.0173 c 0.48133,-0.007 0.88533,-0.272 1.06,-0.69333 l 0.42533,-1.02667 1.056,-0.26133 c 0.44667,-0.11067 0.76934,-0.456 0.84534,-0.90667 l 0.18666,-1.092 0.984,-0.5 c 0.40267,-0.20533 0.63467,-0.62133 0.60934,-1.09333 l -0.0587,-1.084 0.84533,-0.70667 c 0.35067,-0.29333 0.484,-0.77467 0.348,-1.25467 l -0.28533,-1.00666 0.65466,-0.86667 c 0.28667,-0.37733 0.30667,-0.912 0.052,-1.38 l -0.47466,-0.87467 0.43066,-0.96133 c 0.20534,-0.45733 0.0973,-1.028 -0.276,-1.45333 l -0.62133,-0.71067 0.19733,-0.98933 c 0.10534,-0.524 -0.14133,-1.10134 -0.61999,-1.44934 l -0.73067,-0.53066 -0.024,-0.96 c -0.0147,-0.56934 -0.39867,-1.112 -0.95333,-1.35067 l -0.81334,-0.348 -0.084,-0.336 6.03333,-3.18 c 0.58134,-0.30533 0.76667,-1.03067 0.43067,-1.67067 l -0.776,-1.47733 2.584,-1.36133 c 0.57867,-0.30534 0.76667,-1.03067 0.42933,-1.67067 l -0.51466,-0.98133 3.91733,-2.064 c 0.57867,-0.30534 0.76533,-1.03067 0.42933,-1.67067"
       style="fill:#000000;fill-opacity:1;fill-rule:nonzero;stroke:none;stroke-width:1.33333"
       id="path17267" />
    <path
       d="m 317.69826,327.7768 -1.032,3.39067 -13.69333,-4.34133 1.032,-3.39067 z"
       style="fill:#c7b791;fill-opacity:1;fill-rule:nonzero;stroke:none;stroke-width:1.33333"
       id="path17271" />
    <path
       d="m 317.69826,327.7768 -1.032,3.39067 -13.69333,-4.34133 1.032,-3.39067 z"
       style="opacity:0.199997;fill:#000000;fill-opacity:1;fill-rule:nonzero;stroke:none;stroke-width:1.33333"
       id="path17281" />
    <path
       d="m 316.37453,330.61067 0.77333,-2.544 -12.85067,-4.07467 -0.77333,2.544 z m 1.87333,-3.124 -1.288,4.23733 -14.536,-4.608 1.28933,-4.23733 z"
       style="fill:#000000;fill-opacity:1;fill-rule:nonzero;stroke:none;stroke-width:1.33333"
       id="path17291" />
    <path
       d="m 314.40173,313.9356 -2.78934,1.46934 v 0 l -11.37333,5.996 2.112,3.89466 10.22667,-5.39066 5.436,10.35733 3.916,-1.984 -6.04534,-11.51867 v 0 z"
       style="fill:#c7b791;fill-opacity:1;fill-rule:nonzero;stroke:none;stroke-width:1.33333"
       id="path17295" />
    <path
       d="m 314.40173,313.9356 -2.78934,1.46934 v 0 l -11.37333,5.996 2.112,3.89466 10.22667,-5.39066 5.436,10.35733 3.916,-1.984 -6.04534,-11.51867 v 0 z"
       style="opacity:0.199997;fill:#000000;fill-opacity:1;fill-rule:nonzero;stroke:none;stroke-width:1.33333"
       id="path17305" />
    <path
       d="m 318.21226,329.62574 3.07467,-1.55734 -7.08,-13.48933 -13.32134,7.02133 1.65467,3.056 10.232,-5.39466 z m 4.36133,-1.13867 -4.76,2.41067 -5.432,-10.34934 -10.22133,5.388 -2.56533,-4.736 15.00266,-7.908 z"
       style="fill:#000000;fill-opacity:1;fill-rule:nonzero;stroke:none;stroke-width:1.33333"
       id="path17315" />
    <path
       d="m 313.04119,318.40827 -2.59733,1.368 v 10e-4 l -10.592,5.58267 1.38133,2.62933 10.592,-5.58266 5.62934,10.72666 2.59733,-1.36933 -5.63067,-10.72533 10e-4,-0.001 z"
       style="fill:#c7b791;fill-opacity:1;fill-rule:nonzero;stroke:none;stroke-width:1.33333"
       id="path17319" />
    <path
       d="m 317.63653,332.53414 1.82,-0.95867 -6.59734,-12.568 -12.41066,6.54133 0.96666,1.84267 10.592,-5.58267 z m 3.01066,-0.58 -3.37466,1.77733 -5.62934,-10.72533 -10.592,5.58266 -1.79466,-3.41733 13.96666,-7.36133 z"
       style="fill:#000000;fill-opacity:1;fill-rule:nonzero;stroke:none;stroke-width:1.33333"
       id="path17323" />
    <path
       d="m 316.58546,306.7576 -2.78933,1.46934 v 0 l -11.37334,5.996 1.484,2.824 11.372,-5.99467 6.04534,11.51733 2.78933,-1.46933 -6.04533,-11.51867 v 0 z"
       style="fill:#c7b791;fill-opacity:1;fill-rule:nonzero;stroke:none;stroke-width:1.33333"
       id="path17327" />
    <path
       d="m 316.58546,306.7576 -2.78933,1.46934 v 0 l -11.37334,5.996 1.484,2.824 11.372,-5.99467 6.04534,11.51733 2.78933,-1.46933 -6.04533,-11.51867 v 0 z"
       style="opacity:0.199997;fill:#000000;fill-opacity:1;fill-rule:nonzero;stroke:none;stroke-width:1.33333"
       id="path17337" />
    <path
       d="m 321.52026,321.9264 1.95333,-1.02933 -7.084,-13.496 -13.32666,7.024 1.03866,1.97867 11.37334,-5.99467 z m 3.23333,-0.624 -3.624,1.91067 -6.04666,-11.51867 -11.372,5.99467 -1.92667,-3.66933 14.99733,-7.90534 z"
       style="fill:#000000;fill-opacity:1;fill-rule:nonzero;stroke:none;stroke-width:1.33333"
       id="path17347" />
    <path
       d="m 317.80546,302.74694 -2.59733,1.368 v 0.001 l -10.592,5.58267 1.38133,2.62933 10.592,-5.58267 5.62933,10.72667 2.59734,-1.36933 -5.63067,-10.72534 0.001,-0.001 z"
       style="fill:#c7b791;fill-opacity:1;fill-rule:nonzero;stroke:none;stroke-width:1.33333"
       id="path17351" />
    <path
       d="m 322.40093,316.87294 1.82,-0.95867 -6.59734,-12.568 -12.41066,6.54133 0.96666,1.84267 10.592,-5.58267 z m 3.01066,-0.58 -3.37466,1.77733 -5.62934,-10.72533 -10.592,5.58266 -1.79466,-3.41733 13.96666,-7.36133 z"
       style="fill:#000000;fill-opacity:1;fill-rule:nonzero;stroke:none;stroke-width:1.33333"
       id="path17355" />
    <path
       d="m 315.62186,309.92507 -2.59733,1.368 v 10e-4 l -15.11334,7.96534 1.38134,2.62933 15.11333,-7.96533 7.69467,14.66 2.59733,-1.368 -7.696,-14.66 10e-4,-10e-4 z"
       style="fill:#c7b791;fill-opacity:1;fill-rule:nonzero;stroke:none;stroke-width:1.33333"
       id="path17359" />
    <path
       d="m 322.28319,327.98574 1.82,-0.95867 -8.664,-16.50267 -16.932,8.924 0.968,1.84134 15.112,-7.964 z m 3.01067,-0.58134 -3.37467,1.77867 -7.696,-14.66 -15.11333,7.96533 -1.79333,-3.41866 18.488,-9.74267 z"
       style="fill:#000000;fill-opacity:1;fill-rule:nonzero;stroke:none;stroke-width:1.33333"
       id="path17363" />
    <path
       d="m 335.82946,268.17707 1.032,-3.39067 -13.69467,-4.34133 -1.03066,3.39067 z"
       style="display:inline;fill:#c7b791;fill-opacity:1;fill-rule:nonzero;stroke:none;stroke-width:1.33333"
       id="path17367" />
    <path
       d="m 335.82946,268.17707 1.032,-3.39067 -13.69467,-4.34133 -1.03066,3.39067 z"
       style="display:inline;opacity:0.199997;fill:#000000;fill-opacity:1;fill-rule:nonzero;stroke:none;stroke-width:1.33333"
       id="path17377" />
    <path
       d="m 323.45999,261.00147 -0.77333,2.544 12.85066,4.07467 0.77334,-2.544 z m -1.87333,3.124 1.288,-4.23733 14.536,4.608 -1.28934,4.23733 z"
       style="fill:#000000;fill-opacity:1;fill-rule:nonzero;stroke:none;stroke-width:1.33333"
       id="path17387" />
    <path
       d="m 325.43239,277.6764 -1.48266,-2.824 v 0 l -6.04534,-11.51866 3.90134,-1.988 5.436,10.356 10.22666,-5.39067 2.12667,3.9 -11.37333,5.996 v 0 z"
       style="fill:#c7b791;fill-opacity:1;fill-rule:nonzero;stroke:none;stroke-width:1.33333"
       id="path17391" />
    <path
       d="m 325.43239,277.6764 -1.48266,-2.824 v 0 l -6.04534,-11.51866 3.90134,-1.988 5.436,10.356 10.22666,-5.39067 2.12667,3.9 -11.37333,5.996 v 0 z"
       style="opacity:0.199997;fill:#000000;fill-opacity:1;fill-rule:nonzero;stroke:none;stroke-width:1.33333"
       id="path17401" />
    <path
       d="m 327.04559,272.3452 -5.43866,-10.36266 -3.06,1.56 7.08133,13.49066 13.32,-7.02133 -1.66934,-3.06133 z m -1.80933,5.97467 -7.97467,-15.19467 4.74267,-2.41733 5.432,10.35067 10.22,-5.38667 2.58533,4.73867 z"
       style="fill:#000000;fill-opacity:1;fill-rule:nonzero;stroke:none;stroke-width:1.33333"
       id="path17411" />
    <path
       d="m 326.79293,273.20374 -1.38134,-2.62934 0.001,-0.001 -5.63067,-10.72533 2.59733,-1.36934 5.62934,10.72667 10.59199,-5.58267 1.38134,2.62934 -10.592,5.58266 v 0.001 z"
       style="fill:#c7b791;fill-opacity:1;fill-rule:nonzero;stroke:none;stroke-width:1.33333"
       id="path17415" />
    <path
       d="m 327.82759,269.80347 -5.63066,-10.72533 -1.81867,0.95733 6.59733,12.56933 12.41067,-6.54133 -0.968,-1.84267 z m -1.216,3.99867 -7.42533,-14.144 3.376,-1.77734 5.62933,10.72534 10.59067,-5.58267 1.79466,3.41733 z"
       style="fill:#000000;fill-opacity:1;fill-rule:nonzero;stroke:none;stroke-width:1.33333"
       id="path17419" />
    <path
       d="m 323.24866,284.8544 -1.48267,-2.824 v 0 l -6.04533,-11.51866 2.78933,-1.46934 6.04534,11.51734 11.37199,-5.99467 1.484,2.824 -11.37333,5.996 v 0 z"
       style="fill:#c7b791;fill-opacity:1;fill-rule:nonzero;stroke:none;stroke-width:1.33333"
       id="path17423" />
    <path
       d="m 323.24866,284.8544 -1.48267,-2.824 v 0 l -6.04533,-11.51866 2.78933,-1.46934 6.04534,11.51734 11.37199,-5.99467 1.484,2.824 -11.37333,5.996 v 0 z"
       style="opacity:0.199997;fill:#000000;fill-opacity:1;fill-rule:nonzero;stroke:none;stroke-width:1.33333"
       id="path17433" />
    <path
       d="m 324.35959,281.2032 -6.04533,-11.51733 -1.95333,1.02933 7.084,13.496 13.32666,-7.024 -1.03867,-1.97866 z m -1.30666,4.29467 -7.972,-15.188 3.624,-1.91067 6.04533,11.51867 11.37333,-5.99467 1.92667,3.66934 z"
       style="fill:#000000;fill-opacity:1;fill-rule:nonzero;stroke:none;stroke-width:1.33333"
       id="path17443" />
    <path
       d="m 322.02866,288.86507 -1.38133,-2.62933 10e-4,-0.001 -5.63067,-10.72533 2.59734,-1.36933 5.62933,10.72666 10.592,-5.58266 1.38133,2.62933 -10.592,5.58267 v 10e-4 z"
       style="fill:#c7b791;fill-opacity:1;fill-rule:nonzero;stroke:none;stroke-width:1.33333"
       id="path17447" />
    <path
       d="m 323.06319,285.46467 -5.63066,-10.72533 -1.81867,0.95733 6.59733,12.56933 12.41067,-6.54133 -0.968,-1.84267 z m -1.216,3.99867 -7.42533,-14.144 3.376,-1.77734 5.62933,10.72534 10.59067,-5.58267 1.79466,3.41733 z"
       style="fill:#000000;fill-opacity:1;fill-rule:nonzero;stroke:none;stroke-width:1.33333"
       id="path17451" />
    <path
       d="m 324.21226,281.68694 -1.38133,-2.62934 10e-4,-10e-4 -8.03467,-15.304 2.59734,-1.368 8.03333,15.304 14.47733,-7.63067 1.38133,2.63067 -14.47733,7.62933 v 0.001 z"
       style="fill:#c7b791;fill-opacity:1;fill-rule:nonzero;stroke:none;stroke-width:1.33333"
       id="path17455" />
    <path
       d="m 325.24693,278.28654 -8.03467,-15.304 -1.81867,0.95866 9.00134,17.14667 16.29599,-8.58933 -0.968,-1.84267 z m -1.216,3.99866 -9.82934,-18.72133 3.376,-1.77867 8.03334,15.304 14.47733,-7.63066 1.79466,3.41866 z"
       style="fill:#000000;fill-opacity:1;fill-rule:nonzero;stroke:none;stroke-width:1.33333"
       id="path17459" />
    <path
       d="m 307.90013,291.99587 1.21866,-1.02 -0.0867,-1.60133 1.41466,-0.72 0.26934,-1.57734 1.54133,-0.38266 0.612,-1.47467 1.58933,-0.0267 0.924,-1.29733 1.55867,0.33067 1.188,-1.056 1.45067,0.672 1.39333,-0.76134 1.26933,0.97867 1.52934,-0.42667 1.02266,1.236 1.588,-0.072 0.72667,1.432 1.568,0.28534 0.39333,1.55733 1.468,0.62933 0.0413,1.60267 1.29466,0.94133 -0.31333,1.56934 1.05733,1.20666 -0.65333,1.456 0.76667,1.412 -0.96,1.26934 0.43733,1.54533 -1.21733,1.02 0.0853,1.60133 -1.41467,0.72 -0.26933,1.57734 -1.54133,0.38266 -0.61067,1.47467 -1.59067,0.0267 -0.92266,1.29733 -1.56,-0.33067 -1.188,1.056 -1.45067,-0.672 -1.39333,0.76134 -1.268,-0.97867 -1.52934,0.42667 -1.024,-1.236 -1.588,0.072 -0.72666,-1.432 -1.568,-0.28534 -0.39334,-1.55733 -1.468,-0.62933 -0.04,-1.60267 -1.296,-0.94267 0.31467,-1.568 -1.05867,-1.20666 0.65467,-1.456 -0.768,-1.412 0.96,-1.26934 z"
       style="fill:#c7b791;fill-opacity:1;fill-rule:nonzero;stroke:none;stroke-width:1.33333"
       id="path17463" />
    <path
       d="m 330.47679,300.4944 1.16,-0.972 -0.416,-1.47333 0.91467,-1.20933 -0.73067,-1.34534 0.62267,-1.38666 -1.008,-1.15067 0.29867,-1.49467 -1.23334,-0.89733 -0.0387,-1.528 -1.4,-0.59867 -0.37467,-1.484 -1.49333,-0.272 -0.69334,-1.36533 -1.51333,0.0693 -0.97467,-1.17866 -1.45733,0.408 -1.20933,-0.93334 -1.328,0.72534 -1.38134,-0.64 -1.132,1.00533 -1.48666,-0.31467 -0.87867,1.236 -1.516,0.0253 -0.58267,1.40533 -1.468,0.36533 -0.25733,1.50267 -1.348,0.68533 0.0813,1.52667 -1.16,0.972 0.416,1.472 -0.91333,1.21067 0.73067,1.34533 -0.62267,1.38667 1.008,1.15066 -0.3,1.49467 1.23467,0.89733 0.0387,1.528 1.4,0.59867 0.37467,1.484 1.49333,0.272 0.692,1.36533 1.51334,-0.0693 0.976,1.17733 1.45733,-0.40666 1.208,0.93333 1.328,-0.72533 1.38267,0.64 1.132,-1.00534 1.48533,0.31467 0.88,-1.236 1.51467,-0.0253 0.58266,-1.40534 1.46934,-0.36533 0.256,-1.50267 1.34933,-0.68533 z m 2.30534,-0.60933 -1.276,1.068 0.0907,1.67733 -1.48133,0.75334 -0.28133,1.652 -1.61467,0.40133 -0.64,1.544 -1.66533,0.0267 -0.96667,1.36 -1.632,-0.34667 -1.244,1.10533 -1.51867,-0.704 -1.45866,0.79734 -1.32934,-1.02534 -1.60133,0.448 -1.07067,-1.296 -1.664,0.0773 -0.76,-1.50134 -1.64266,-0.29866 -0.41067,-1.62934 -1.53867,-0.65866 -0.0413,-1.67867 -1.35733,-0.98667 0.32933,-1.64266 -1.108,-1.264 0.684,-1.524 -0.80267,-1.47734 1.00534,-1.33066 -0.45867,-1.61734 1.276,-1.068 -0.0907,-1.67733 1.48134,-0.75333 0.28266,-1.652 1.61467,-0.40134 0.64,-1.544 1.66533,-0.0267 0.96534,-1.36 1.63333,0.34666 1.24267,-1.10533 1.52,0.704 1.45866,-0.79733 1.32934,1.02533 1.60133,-0.448 1.07067,1.296 1.664,-0.0773 0.76,1.50133 1.64133,0.29867 0.412,1.62933 1.53733,0.65867 0.0427,1.68 1.356,0.98533 -0.32933,1.64267 1.108,1.264 -0.684,1.524 0.804,1.47733 -1.00667,1.33067 z"
       style="fill:#000000;fill-opacity:1;fill-rule:nonzero;stroke:none;stroke-width:1.33333"
       id="path17467" />
    <path
       id="path17477"
       style="opacity:0.199997;fill:#000000;fill-opacity:1;fill-rule:nonzero;stroke:none;stroke-width:1.33333"
       d="m 320.97266,283.08203 -1.39259,0.75977 0.47462,12.00781 z m -0.91797,12.76758 3.7168,-12.2168 -1.5293,0.42774 z m 0,0 6.32813,-11.05274 -1.58789,0.0723 z m 0,0 8.62305,-9.33398 -1.56836,-0.28711 z m 0,0 -12.5625,1.82812 1.05664,1.20704 11.5,-3.03125 0.004,-0.002 h 0.001 z m 0,0 -12.67578,-1.03906 0.76562,1.41211 z m 0,0 -12.1543,-3.85352 0.4375,1.54493 z m 0,0 -11.02344,-6.47461 0.0879,1.59961 z m 0,0 -9.3379,-8.77344 -0.26952,1.57813 z m 0,0 -7.18555,-10.63086 -0.61132,1.47461 z m 0,0 -4.67187,-11.95313 -0.92384,1.29688 z m 0,0 -1.92578,-12.67969 -1.1875,1.05664 z m 0,0.002 7.18554,10.62891 0.61134,-1.47461 z m 0,0 4.67382,11.95312 0.92188,-1.29882 z m 0,0 1.92578,12.67773 1.1875,-1.05664 z m 0,0 -0.91796,12.76562 1.39257,-0.75976 z m 0,0 -3.7168,12.21484 1.5293,-0.42773 z m -10e-4,0 -6.32617,11.05078 1.58789,-0.0723 z m 0,0 -8.62109,9.33203 1.56836,0.28711 z m -0.004,0.002 -10.47656,7.14453 1.46679,0.62891 z m 0,0 -11.81445,4.59961 1.29687,0.94141 z m 9.02148,-7.78125 -9.01366,7.77734 10.48241,-7.14843 z m -9.01366,7.77734 11.81836,-4.60351 -1.29494,-0.94141 z m 0,0 12.56249,-1.82812 -1.05859,-1.20703 z m 0,0 12.67577,1.03907 -0.76757,-1.41211 z m 0,0 12.15233,3.85352 -0.43749,-1.54492 z m 0,0 11.02148,6.47657 -0.086,-1.60157 z m 0,0 9.33593,8.77344 0.26953,-1.57812 z" />
    <path
       d="m 303.91466,251.94014 c -0.24533,0.408 -1.08,1.956 -3.112,5.73066 -42.44667,78.81733 -68.19867,120.536 -83.81067,142.296 h 4.87867 c 15.94133,-22.62533 41.50133,-64.35467 82.45333,-140.4 1.63334,-3.03333 2.81334,-5.224 3.02,-5.56933 2.48267,-4.13733 -4.70133,-11.66667 -9.548,-16.05733 3.592,1.06533 8.612,3.076 12.97334,4.824 5.18133,2.07466 11.056,4.428 17.23733,6.51866 5.544,1.876 10.35866,3.43067 14.608,4.80267 10.632,3.43467 18.31333,5.916 19.548,7.944 6.004,9.864 -29.34,83.72933 -58.036,137.93733 h 4.47333 c 7.25867,-13.792 17.37867,-33.39067 27.07867,-53.448 36.56933,-75.612 31.54933,-83.85866 29.9,-86.56933 -2.00667,-3.29733 -8.18934,-5.29467 -21.73467,-9.66933 -4.236,-1.368 -5.976,-1.78134 -11.52,-3.56934 -5.04533,-1.62666 -11.228,-4.628 -18.51866,-6.69466 -13.82,-3.91867 -20.65867,-6.54934 -23.78934,-4.55867 -0.752,0.47867 -0.584,-0.0693 -0.68266,1.70533 l -0.0813,1.47067 5.7,2.12933 c 4.96267,4.48934 9.18667,9.804 8.96267,11.17734"
       style="fill:#000000;fill-opacity:1;fill-rule:nonzero;stroke:none;stroke-width:1.33333"
       id="path17919" />
    <path
       d="m 302.20266,237.93947 c 4.848,4.39067 12.03067,11.92133 9.54933,16.05733 -0.208,0.34667 -1.38666,2.53734 -3.02133,5.57067 -40.952,76.044 -66.512,117.77333 -82.45333,140.4 h -4.40667 c 15.94133,-22.62667 41.50133,-64.356 82.45333,-140.4 1.63334,-3.03333 2.81334,-5.224 3.02,-5.57067 2.48267,-4.136 -4.70133,-11.66666 -9.548,-16.05733 z"
       style="opacity:0.199997;fill:#000000;fill-opacity:1;fill-rule:nonzero;stroke:none;stroke-width:1.33333"
       id="path17929" />
  </g>
</svg>
