<?xml version="1.0" encoding="UTF-8" standalone="no"?>
<!-- Created with Inkscape (http://www.inkscape.org/) -->

<svg
   version="1.1"
   id="svg4265"
   width="400"
   height="400"
   viewBox="0 0 400 400"
   sodipodi:docname="KlingonBeard1.svg"
   inkscape:version="1.2.2 (b0a8486, 2022-12-01)"
   xmlns:inkscape="http://www.inkscape.org/namespaces/inkscape"
   xmlns:sodipodi="http://sodipodi.sourceforge.net/DTD/sodipodi-0.dtd"
   xmlns="http://www.w3.org/2000/svg"
   xmlns:svg="http://www.w3.org/2000/svg">
  <defs
     id="defs4269" />
  <sodipodi:namedview
     id="namedview4267"
     pagecolor="#ffffff"
     bordercolor="#666666"
     borderopacity="1.0"
     inkscape:showpageshadow="2"
     inkscape:pageopacity="0.0"
     inkscape:pagecheckerboard="0"
     inkscape:deskcolor="#d1d1d1"
     showgrid="false"
     inkscape:zoom="6.0811183"
     inkscape:cx="298.21817"
     inkscape:cy="208.34984"
     inkscape:window-width="1920"
     inkscape:window-height="1080"
     inkscape:window-x="2367"
     inkscape:window-y="209"
     inkscape:window-maximized="0"
     inkscape:current-layer="layer1">
    <inkscape:page
       x="0"
       y="0"
       id="page4271"
       width="400"
       height="400" />
  </sodipodi:namedview>
  <g
     id="g4273"
     inkscape:groupmode="layer"
     inkscape:label="Beard">
    <path
       d="m 318.02866,246.18747 c -0.0973,-0.38533 -0.19733,-0.784 -0.37467,-1.17467 l -0.484,-1.06533 -0.976,0.64267 c -0.32933,0.216 -0.65333,0.476 -0.972,0.73466 -0.47333,0.38267 -1.06133,0.85734 -1.37733,0.85734 -0.0267,0 -0.0907,0 -0.208,-0.0893 -0.012,-0.0173 -0.0627,-0.13733 -0.0973,-0.21466 -0.17467,-0.41067 -0.53867,-1.26134 -1.752,-1.32534 -0.68934,0 -1.26267,0.4 -1.86934,0.98534 -0.204,-0.39467 -0.46666,-0.80134 -0.88933,-1.164 l -1.592,-1.36134 -0.0333,1.212 c -0.16667,-0.2 -0.328,-0.39733 -0.47734,-0.59466 -0.196,-0.26 -0.38666,-0.57067 -0.584,-0.888 -0.43866,-0.708 -0.92533,-1.492 -1.58533,-2.03467 -0.012,-0.0573 -0.028,-0.11867 -0.052,-0.18 l -0.14533,0.0293 c -0.088,-0.064 -0.18,-0.12133 -0.27467,-0.17466 l 0.15867,0.19733 -0.42534,0.0867 c -1.108,-1.79467 -2.06666,-3.53734 -2.09066,-5.56267 l -0.84267,-0.0947 c -0.22133,-1.54266 -0.0307,-3.24933 0.15467,-4.908 0.132,-1.17466 0.26666,-2.39066 0.26,-3.55733 -0.004,-0.61867 0.084,-1.21467 0.0507,-1.83333 -0.22533,0.0667 -0.536,0.092 -0.776,-0.0213 0.0213,-0.83866 0.996,-1.79066 1.356,-2.536 0.26667,-0.55466 0.71467,-0.97733 1.07867,-1.46266 0.308,-0.41067 0.48267,-0.90934 0.84667,-1.232 0.932,-0.82534 2.04266,-1.21467 2.84133,-2.25334 0.21733,-0.28266 0.42933,-0.57733 0.63733,-0.86933 0.252,-0.34933 0.49467,-0.68933 0.732,-0.98133 0.26667,0.268 0.51867,0.59333 0.78,0.92933 l 1.82,2.28667 0.24934,-2.43334 c 0.008,-0.0787 0.0493,-0.19333 0.0973,-0.32 0.53867,0.0667 1.05067,0.25067 1.50133,0.53867 l 1.208,0.772 c 0,0 0.31467,-1.43067 0.31734,-1.44533 0.096,0.176 0.18933,0.36266 0.28133,0.55733 l 0.56,1.18267 0.99467,-0.85067 c 0.376,-0.32133 0.68933,-0.60533 0.94666,-0.85733 l 0.916,0.97866 c 0,0 0.67867,-1.292 0.68667,-1.30666 0.51733,0.784 1.24933,1.58533 1.93867,2.34133 0.336,0.368 0.75466,0.82667 0.84266,0.97333 l 0.69467,1.15867 0.90533,-1.00133 c 0.22934,-0.25334 0.44667,-0.532 0.64267,-0.81867 0.36133,0.768 0.616,1.87333 0.764,2.51733 l 0.13067,0.55867 0.33066,1.33733 c 0,0 1.20934,-0.75333 1.228,-0.76533 0.284,1.736 0.88934,3.396 1.48,5.01467 0.712,1.95333 1.38534,3.79866 1.49734,5.69733 l 0.0693,1.06533 c 0.15067,2.172 0.28267,4.06667 -0.45867,5.96934 l -0.66666,0.14533 c -0.0173,0.388 -0.832,2.288 -1.26667,3.044 -0.424,0.73867 -1.21467,1.64133 -1.9,2.02667 -0.0653,-0.007 -0.13067,-0.009 -0.19333,-0.009 -0.816,0 -1.30934,0.48134 -1.592,0.756 -0.0627,-0.0507 -0.17067,-0.13333 -0.316,-0.26933 l -0.84934,-0.78667 -0.65466,0.956 c -0.20934,0.30534 -0.436,0.56134 -0.72,0.808 l -0.27067,-0.932 -1.06933,0.724 c -0.33334,0.192 -0.708,0.40667 -1.056,0.692 -0.0347,-0.12133 -0.0693,-0.256 -0.10667,-0.40133"
       style="fill:#383838;fill-opacity:1;fill-rule:nonzero;stroke:none;stroke-width:1.33333"
       id="path29805" />
    <path
       d="m 318.02866,246.18747 c -0.0973,-0.38533 -0.19733,-0.784 -0.37467,-1.17467 l -0.484,-1.06533 -0.976,0.64267 c -0.32933,0.216 -0.65333,0.476 -0.972,0.73466 -0.47333,0.38267 -1.06133,0.85734 -1.37733,0.85734 -0.0267,0 -0.0907,0 -0.208,-0.0893 -0.012,-0.0173 -0.0627,-0.13733 -0.0973,-0.21466 -0.17467,-0.41067 -0.53867,-1.26134 -1.752,-1.32534 -0.68934,0 -1.26267,0.4 -1.86934,0.98534 -0.204,-0.39467 -0.46666,-0.80134 -0.88933,-1.164 l -1.592,-1.36134 -0.0333,1.212 c -0.16667,-0.2 -0.328,-0.39733 -0.47734,-0.59466 -0.196,-0.26 -0.38666,-0.57067 -0.584,-0.888 -0.43866,-0.708 -0.92533,-1.492 -1.58533,-2.03467 -0.012,-0.0573 -0.028,-0.11867 -0.052,-0.18 l -0.14533,0.0293 c -0.088,-0.064 -0.18,-0.12133 -0.27467,-0.17466 l 0.15867,0.19733 -0.42534,0.0867 c -1.108,-1.79467 -2.06666,-3.53734 -2.09066,-5.56267 l -0.84267,-0.0947 c -0.22133,-1.54266 -0.0307,-3.24933 0.15467,-4.908 0.132,-1.17466 0.26666,-2.39066 0.26,-3.55733 -0.004,-0.61867 0.084,-1.21467 0.0507,-1.83333 -0.22533,0.0667 -0.536,0.092 -0.776,-0.0213 0.0213,-0.83866 0.996,-1.79066 1.356,-2.536 0.26667,-0.55466 0.71467,-0.97733 1.07867,-1.46266 0.308,-0.41067 0.48267,-0.90934 0.84667,-1.232 0.932,-0.82534 2.04266,-1.21467 2.84133,-2.25334 0.21733,-0.28266 0.42933,-0.57733 0.63733,-0.86933 0.252,-0.34933 0.49467,-0.68933 0.732,-0.98133 0.26667,0.268 0.51867,0.59333 0.78,0.92933 l 1.82,2.28667 0.24934,-2.43334 c 0.008,-0.0787 0.0493,-0.192 0.096,-0.31866 0.388,-1.02934 2.372,2.12933 2.44266,2.28266 -0.38533,0.044 -0.72,-0.0187 -1.07733,-0.0653 -0.31067,1.592 1.492,3.76533 0.188,5.208 -0.29867,-0.22667 -0.56133,-0.51867 -0.828,-0.80533 -0.59733,1.07333 -0.22667,2.836 -0.292,4.08266 -0.88,-0.252 -1.16267,-1.34266 -1.69467,-1.95466 0.048,1.83333 0.27734,3.67866 0.19067,5.46 -0.75733,-0.54934 -1.896,-1.48134 -2.46533,-2.368 -0.348,-0.54 -0.44534,-1.104 -0.92934,-1.58934 0.084,2.07467 -0.044,4.508 0.31334,6.54667 0.248,1.42 0.95466,2.892 1.09333,4.30267 0.312,-1.68134 0.77333,-4.06134 1.19867,-5.39467 0.336,0.908 0.20533,1.96133 0.20533,2.92133 0,1.18134 0.212,1.89067 0.59067,3.00134 0.46533,1.36533 0.62,2.448 1.60533,3.56266 0.516,0.58267 0.98533,1.212 1.41467,1.92667 -0.0173,-1.83333 0.10133,-3.80533 0.21333,-5.66267 0.98,1.27067 0.452,3.52267 1.38267,4.69867 1.44133,-1.20667 2.06666,-3.56667 1.89733,-5.40933 0.34533,1.848 0.896,3.46533 0.49333,5.37333 1.26934,-1.66667 2.09867,-3.52133 3.3,-5.08 0.12,1.53467 0.17734,2.908 -0.268,4.28133 1.05334,-0.0493 1.584,-1.38266 2.07067,-2.184 0.49467,-0.81333 1.22,-1.65066 1.41867,-2.592 0.064,0.86667 0.0613,2.008 0.26933,2.796 0.38933,-0.83733 1.076,-1.704 1.56667,-2.50266 0.48266,1.01866 1.92266,-2.76534 2.07333,-3.31334 0.316,-1.156 0.584,-2.26666 0.824,-3.39333 0.672,0.94667 0.66133,2.39733 0.74,3.51733 0.15067,2.172 0.28267,4.06667 -0.45867,5.96934 l -0.66666,0.14533 c -0.0173,0.388 -0.832,2.288 -1.26667,3.044 -0.424,0.73867 -1.21467,1.64133 -1.9,2.02667 -0.0653,-0.007 -0.13067,-0.009 -0.19333,-0.009 -0.816,0 -1.30934,0.48134 -1.592,0.756 -0.0627,-0.0507 -0.17067,-0.13333 -0.316,-0.26933 l -0.84934,-0.78667 -0.65466,0.956 c -0.20934,0.30534 -0.436,0.56134 -0.72,0.808 l -0.27067,-0.932 -1.06933,0.724 c -0.33334,0.192 -0.708,0.40667 -1.056,0.692 -0.0347,-0.12133 -0.0693,-0.256 -0.10667,-0.40133"
       style="opacity:0.199997;fill:#000000;fill-opacity:1;fill-rule:nonzero;stroke:none;stroke-width:1.33333"
       id="path29815" />
    <path
       d="m 329.14839,233.46414 -0.0693,-1.06534 c -0.112,-1.89733 -0.78533,-3.74266 -1.49733,-5.69733 -0.59067,-1.61867 -1.196,-3.27733 -1.48,-5.01467 -0.0187,0.0133 -1.228,0.76667 -1.228,0.76667 l -0.33067,-1.33733 -0.0627,-0.26667 -1.89866,-0.29867 c 0.0707,0.35334 0.19866,0.712 0.228,1.024 0.096,1.03067 0.31466,2.04534 0.55733,3.04534 0.30933,1.27466 0.49867,2.64266 0.9,3.86533 0.16933,-0.76 0.28267,-1.43333 0.28267,-2.23067 0,-0.70666 -0.164,-1.684 0.0933,-2.34266 0.14667,-0.372 0.492,-0.772 0.952,-0.65334 0.30533,0.0787 0.20267,0.14267 0.37867,0.38134 0.236,0.32 0.51066,0.73733 0.708,1.04666 0.39466,0.61867 0.516,1.484 0.65466,2.232 0.124,0.67467 0.35467,1.336 0.47867,1.99734 0.18133,0.968 -0.0933,1.808 -0.276,2.71733 -0.18,0.892 -0.324,1.828 -0.48667,2.73333 -0.22133,1.232 -0.13466,2.46134 -0.39866,3.69467 -0.164,-1.01067 -0.35734,-2.10933 -0.60934,-3.14133 -0.32666,-1.344 -0.88933,-2.54267 -1.172,-3.932 0.0347,1.49333 -0.0507,2.972 -0.0507,4.464 0,1.27733 0.0373,2.47066 -0.25734,3.71466 -0.24,1.01334 -0.46533,2.028 -0.724,3.05734 -0.032,-0.50534 0.17867,-0.984 0.28667,-1.46534 0.132,-0.59466 0.14933,-1.136 0.15067,-1.74533 10e-4,-0.556 0.0227,-1.148 -0.0533,-1.696 -0.084,-0.596 -0.35866,-2.096 -0.99066,-2.36933 -0.38267,0.61733 -0.51734,1.596 -0.74667,2.32133 -0.40267,1.272 -0.70933,3.73867 -1.95733,4.42 0.54133,-1.45067 0.63866,-3.24267 0.52933,-4.784 -0.66933,0.516 -0.756,1.80933 -1.27867,2.47867 -0.38,0.48533 -1.02133,1.088 -1.53866,1.39866 -0.38934,0.23334 -1.09067,0.57867 -1.51334,0.63067 -0.0827,-0.52267 0.10134,-1.17067 0.10134,-1.73467 0,-0.90133 -0.264,-1.772 -0.21334,-2.656 -0.308,0.592 -0.19466,1.372 -0.464,1.97867 -0.256,0.57867 -0.592,1.09467 -1.064,1.508 -0.38533,0.33733 -0.91866,0.896 -1.35066,0.552 -0.28667,-0.22667 -0.48534,-1.05333 -0.59467,-1.384 -0.21733,0.65067 -0.44267,1.24133 -0.78667,1.84933 -0.74,-0.43733 -1.55866,-1.292 -2.37333,-1.51066 0.23333,0.18933 0.32933,0.51733 0.52267,0.76266 -0.36934,-0.072 -0.728,-0.45466 -1.016,-0.66133 -0.396,-0.28133 -0.80267,-0.552 -1.18,-0.856 -0.568,-0.456 -1.78534,-1.84667 -1.80134,-2.62133 0.456,0.116 0.712,0.49466 1.09067,0.76 0.34667,0.24266 0.76,0.42266 1.11067,0.656 0.876,0.584 1.52666,1.304 2.60933,1.30266 -0.77467,-0.72666 -1.328,-1.99066 -1.932,-2.892 -0.344,-0.51333 -0.62667,-0.936 -0.832,-1.53066 -0.312,-0.90134 -0.68133,-1.824 -0.916,-2.74667 -0.196,0.632 -0.052,1.544 -0.052,2.22133 0,0.36267 -0.0227,0.736 0.012,1.09467 0.0493,0.51467 0.35333,1.11733 0.32933,1.60133 -1.03333,-0.604 -1.71333,-1.57733 -2.29333,-2.624 -0.33067,-0.59866 -0.55067,-1.24 -0.82133,-1.88 -0.448,-1.06 -0.32934,-2.328 -0.25867,-3.456 0.796,1.652 0.676,4.27867 2.208,5.524 -0.23467,-0.728 -0.372,-1.42 -0.372,-2.20666 0,-1.35467 0,-2.708 0,-4.06267 -10e-4,-1.70133 -0.28933,-3.78267 0.50133,-5.296 1.06134,1.31333 1.65067,2.996 2.85867,4.32533 -0.192,-1.708 -1.71467,-3.92 -0.79067,-5.632 0.52267,0.216 0.93734,0.62667 1.452,0.89334 0.50267,0.26266 1.19334,0.41466 1.35067,1.09866 -0.0307,-0.508 -0.5,-0.856 -0.74667,-1.26133 -0.332,-0.544 -0.35866,-1.16933 -0.6,-1.74 -0.248,-0.58667 -0.676,-1.05467 -0.88666,-1.66 -0.0827,-0.236 -0.30534,-0.75867 -0.38667,-1.21867 -0.1,-0.26533 -0.16133,-0.53333 -0.003,-0.62666 0.0107,-0.005 0.0347,0.005 0.048,0.003 0.0227,-0.044 0.0453,-0.0893 0.084,-0.12 0.104,0.0667 0.28134,0.164 0.48,0.28 0.28134,0.14267 0.564,0.32134 0.65467,0.368 -0.35467,-0.616 -0.75733,-1.42133 -1.284,-1.90666 -0.46267,-0.424 -1.14267,-0.384 -1.628,-0.02 -0.45467,0.34133 -0.38267,0.708 -0.58,1.17466 -0.47333,1.12267 -1.99333,1.628 -2.86,2.396 -0.364,0.32134 -0.53733,0.82134 -0.84533,1.23067 -0.36534,0.48667 -0.81334,0.908 -1.08,1.46267 -0.36,0.74666 -1.33467,1.69733 -1.356,2.536 0.24,0.11333 0.55066,0.0893 0.776,0.0227 0.0333,0.61734 -0.0547,1.21467 -0.0507,1.832 0.008,1.168 -0.128,2.38267 -0.26,3.55867 -0.18533,1.65733 -0.376,3.36533 -0.15333,4.908 l 0.84133,0.0947 c 0.024,2.024 0.98267,3.768 2.09067,5.56133 l 0.42533,-0.0853 -0.15733,-0.19867 c 0.0933,0.0547 0.18533,0.112 0.27333,0.17467 l 0.14533,-0.0293 c 0.024,0.0627 0.04,0.12267 0.0533,0.18134 0.65866,0.54266 1.14533,1.32666 1.58533,2.03333 0.196,0.31867 0.388,0.628 0.58267,0.88933 0.14933,0.196 0.31066,0.39467 0.47733,0.59467 l 0.0333,-1.212 1.592,1.36133 c 0.42267,0.36134 0.68534,0.76934 0.88934,1.16267 0.60666,-0.584 1.18,-0.98533 1.86933,-0.98533 1.21333,0.064 1.57733,0.916 1.752,1.32533 0.0347,0.0787 0.0853,0.19733 0.0973,0.216 0.11867,0.088 0.18134,0.088 0.208,0.088 0.316,0 0.904,-0.47467 1.37734,-0.856 0.31866,-0.25867 0.644,-0.51867 0.972,-0.73467 l 0.97733,-0.644 0.48267,1.06667 c 0.17733,0.38933 0.27733,0.788 0.37466,1.17333 0.0373,0.14667 0.072,0.28134 0.10667,0.40267 0.348,-0.28533 0.72267,-0.5 1.056,-0.692 l 1.06933,-0.72533 0.27067,0.93333 c 0.284,-0.24667 0.51067,-0.504 0.72,-0.80933 l 0.65467,-0.956 0.84933,0.788 c 0.14533,0.13466 0.25333,0.21866 0.316,0.26933 0.28267,-0.276 0.776,-0.75733 1.592,-0.75733 0.064,0 0.128,0.004 0.19333,0.009 0.68534,-0.38533 1.476,-1.288 1.90134,-2.02667 0.43333,-0.756 1.24933,-2.65466 1.26533,-3.044 l 0.66667,-0.14533 c 0.74133,-1.90133 0.60933,-3.79733 0.45866,-5.96933"
       style="opacity:0.199997;fill:#000000;fill-opacity:1;fill-rule:nonzero;stroke:none;stroke-width:1.33333"
       id="path29831" />
    <path
       d="m 320.90106,243.75974 c 0,0 0.0533,0.184 0.056,0.19466 -0.048,-0.16933 0.66133,-0.964 0.77867,-1.13466 0.12933,0.136 0.372,0.324 0.56933,0.32666 0.048,0.11467 0.15333,0.22934 0.19733,0.316 -0.204,-0.39866 0.596,-1.344 0.75334,-1.72 0.308,-0.72933 0.384,-1.52266 0.592,-2.28133 0.216,-0.792 0.55866,-1.88667 0.256,-2.73867 -10e-4,0.94934 0.46133,1.89734 0.6,2.832 0.12666,0.856 0.16533,1.99867 0.0133,2.84534 0.592,-0.75067 0.616,-2.26934 0.84933,-3.20934 0.336,-1.35866 0.33067,-2.70933 0.33067,-4.14533 0,-0.74533 -0.044,-1.51333 0.0147,-2.25333 0.82533,1.62533 0.64,3.70933 1.312,5.416 -0.0227,-0.61334 0.27733,-1.32934 0.396,-1.90267 0.132,-0.63333 0.232,-1.172 0.20133,-1.85733 -0.0307,-0.66 -0.31867,-1.27467 -0.35867,-1.936 -0.036,-0.58667 0.148,-1.09067 0.21334,-1.65734 0.10533,-0.90666 -0.24534,-1.72666 -0.53467,-2.56266 -0.264,-0.76267 -0.35333,-1.56134 -0.59467,-2.332 -0.188,-0.59867 -0.672,-1.13067 -0.85866,-1.71334 -0.272,-0.14 -0.36267,-0.408 -0.63867,-0.53466 -0.0627,0.68666 -0.26533,2.06666 -0.66,2.57333 -0.29333,-0.97867 -0.35733,-1.99333 -0.404,-3.00667 -0.0307,-0.7 -0.25333,-1.24266 -0.412,-1.92266 -10e-4,-0.005 -0.23333,-1.00134 -0.30267,-1.28267 l -1.31333,1.49467 -1.38667,-2.31867 c -0.0947,-0.13467 -0.47066,-0.54667 -0.74533,-0.848 -0.32133,-0.352 -0.65867,-0.72133 -0.984,-1.10267 l -0.61867,1.34 -1.284,-1.48933 c -0.072,0.0613 -2.20266,1.88533 -2.20266,1.88533 0,0 -0.14134,-0.30133 -0.14267,-0.29333 l -2.416,-1.54267 c -0.052,-0.0333 -0.10267,-0.0627 -0.156,-0.092 l -0.40933,3.99867 -3.3,-4.13733 c -0.204,0.284 -0.41067,0.57066 -0.62267,0.84666 -1.448,1.88667 -4.05867,2.996 -5.04,5.296 0.14267,0.024 0.26267,0.14 0.42667,0.14134 0.17333,1.10666 -0.584,2.17333 -0.576,3.28533 0.008,1.22533 -0.132,2.47067 -0.26667,3.67467 -0.192,1.71866 -0.37467,3.35333 -0.13733,4.788 0,0 0.83066,0.0933 0.832,0.0933 -0.19467,-0.0213 0.58666,2.432 0.69866,2.628 0.47467,0.832 0.81734,1.83067 1.448,2.572 0.028,-0.084 0.168,-0.25867 0.19867,-0.35067 0.0493,0.0747 0.0427,0.096 0.0773,0.19734 0.42667,0.21733 0.51467,0.68933 0.77734,1.04933 0.24,0.328 0.55066,0.608 0.81333,0.91733 0.736,-0.87333 2.14,0.99734 2.73733,1.508 0.17334,0.14934 0.32667,0.304 0.46134,0.46 0.48666,-0.308 1.04266,-0.52 1.704,-0.52 1.26133,0.0667 1.93333,0.74134 2.30933,1.34134 0.152,-0.116 0.31067,-0.244 0.44,-0.348 0.34533,-0.28 0.696,-0.55867 1.05067,-0.792 l 1.95466,-1.288 0.96667,2.132 c 0.0627,0.13733 0.116,0.27466 0.164,0.40933 z m 2.308,2.70133 c -0.26133,0.032 -0.60267,-0.108 -1.13333,-0.6 -0.51067,0.74533 -1.09334,1.22667 -1.88,1.71333 -0.0653,-0.23866 -0.43334,-0.564 -0.50534,-0.81066 -0.64133,0.368 -1.27733,0.74266 -1.596,1.45066 -0.984,-0.47466 -0.916,-1.828 -1.35066,-2.78933 -1.268,0.836 -2.45467,2.40133 -3.70534,1.47067 -0.568,-0.424 -0.336,-1.29334 -1.3,-1.344 -0.616,-0.032 -1.672,1.32933 -2.076,1.66533 -0.46533,-0.68933 -0.608,-1.504 -1.28533,-2.08267 -0.02,0.716 0.007,1.456 -0.17333,2.152 -0.372,-1.15466 -1.36267,-2.10933 -2.07467,-3.05466 -0.7,-0.92667 -1.348,-2.42267 -2.33467,-2.97867 -0.0333,-0.11467 0.0133,-0.272 -0.0253,-0.37467 0.0227,0.55734 0.0787,0.988 0.15467,1.52934 -1.39467,-2.25734 -2.964,-4.512 -2.996,-7.292 -0.0613,0.25733 -0.212,0.54533 -0.28667,0.82133 0.0213,0.003 -0.43867,0.028 -0.396,0 0.0347,-0.024 -0.25467,-2.00533 -0.25867,-2.22 -0.016,-0.81733 0.0453,-1.636 0.12267,-2.44933 0.14267,-1.496 0.52133,-3.076 0.44533,-4.568 -0.376,-0.004 -0.81333,0.0307 -1.12133,0.29733 0.12933,-0.644 0.40933,-1.232 0.58667,-1.89867 0.46266,-1.73866 0.99733,-3.53333 2.07866,-4.99866 1.09467,-1.48534 2.896,-2.06 4.00534,-3.504 0.71066,-0.924 1.35066,-1.97334 2.05466,-2.58667 0.82,0.46 1.37067,1.284 1.96267,2.02667 0.044,-0.432 0.3,-0.81067 0.36533,-1.24134 1.00934,-0.0507 1.96,0.204 2.76667,0.71734 0.15733,-0.71867 0.59467,-1.296 0.64133,-2.03734 0.63734,0.65467 1.14267,1.516 1.53067,2.33734 0.108,-0.092 1.56933,-1.44534 1.49067,-1.54134 0.22133,0.26934 0.61333,0.50667 0.792,0.71334 0.30133,-0.60534 0.924,-1.16534 1.31333,-1.77067 -0.704,1.09467 2.74667,4.144 3.24267,4.97467 0.504,-0.55734 0.952,-1.26534 1.17733,-1.85734 1.312,0.616 1.74667,3.224 2.07333,4.54534 -0.0187,-0.0747 0.54134,-0.31867 0.608,-0.4 0.20134,-0.244 0.2,-0.58134 0.31734,-0.87334 0.028,-0.072 1.14533,1.264 1.224,1.38934 0.33333,0.53733 0.56,1.06266 0.724,1.66666 0.30666,1.136 1.548,2.19467 1.344,3.42534 -0.36267,-0.0973 -0.628,-0.61067 -0.97467,-0.576 -0.172,0.016 0.92267,1.852 0.99333,1.97866 0.424,0.77334 0.58667,1.776 0.724,2.65067 0.13067,0.83867 0.508,1.80267 0.45334,2.64267 -0.35867,-0.004 -0.58667,-0.27867 -0.84134,-0.44534 -0.19333,1.23334 0.20267,2.67467 0.176,3.93734 -0.0147,0.66533 -0.0693,1.32933 -0.19733,1.984 -0.0693,0.35733 -0.72667,1.72533 -0.628,1.98 -0.092,-0.23867 -0.368,-0.54267 -0.436,-0.86267 0.14,0.66 -1.00267,3.096 -1.37733,3.748 -0.53867,0.93733 -1.60667,2.16267 -2.62267,2.56667 -1.024,-0.26934 -1.19467,0.70133 -1.792,0.77333"
       style="fill:#000000;fill-opacity:1;fill-rule:nonzero;stroke:none;stroke-width:1.33333"
       id="path29841" />
  </g>
  <g
     inkscape:groupmode="layer"
     id="layer1"
     inkscape:label="Moustache">
    <path
       d="m 273.80906,204.5564 c -1.452,-0.928 -2.588,-2.01466 -3.64,-3.32266 -0.47467,-0.59067 -0.892,-1.412 -1.64133,-0.68934 -0.28267,0.272 -0.35067,0.99467 -0.34134,1.356 0.016,0.628 0.0307,1.30667 0.028,2 -2.088,-1.68 -3.564,-4.27066 -2.912,-6.64533 0.444,-1.624 2.696,-4.01466 4.18534,-5.596 0.32533,-0.34533 0.62666,-0.66533 0.88666,-0.95066 0.14534,-0.16 0.268,-0.216 0.55334,-0.33867 0.29333,-0.12667 0.69466,-0.3 1.104,-0.656 0.188,-0.16533 0.42133,-0.33067 0.66266,-0.504 0.86667,-0.62267 1.944,-1.39867 2.02,-2.56533 0.0187,-0.28667 -0.0253,-0.56534 -0.12933,-0.83734 0.27733,-0.12133 0.58133,-0.24266 0.844,-0.348 1.62267,-0.652 3.30133,-1.32666 3.45067,-2.68933 0.0267,-0.24533 0,-0.48533 -0.0813,-0.72 2.64,-0.69333 6.16934,-1.85067 6.34267,-4.34133 l 0.0747,-1.068 c 1.56533,-0.42267 3.676,-0.67067 6.028,-0.67067 3.356,0 5.88266,0.47867 6.81066,0.924 l 0.34134,0.164 1.57733,-0.29867 c 0.71467,-0.13866 1.27067,-0.24533 1.61733,-0.28133 l 0.124,0.54267 0.41734,0.11733 c -0.13734,0.808 -0.17067,1.57067 0.024,2.43333 -0.196,0.13467 -0.39067,0.27334 -0.58667,0.412 -0.66933,0.47467 -1.30133,0.924 -1.98667,1.26267 l -2.932,1.456 3.276,0.48933 c 0.30534,0.0453 0.604,0.0827 0.89467,0.11734 0.46267,0.0573 0.88267,0.108 1.27333,0.18933 -0.0893,0.0787 -0.18,0.16 -0.272,0.24133 -0.25733,0.22667 -0.516,0.456 -0.77066,0.69734 l -1.74,1.64533 2.20133,0.11067 c -1.14267,0.29733 -2.204,0.66133 -3.00267,1.09333 -0.64666,-0.284 -1.35466,-0.42667 -2.116,-0.42667 -1.48133,0 -2.89333,0.52667 -4.21466,1.064 -1.364,0.55734 -2.532,0.884 -3.88534,1.26134 -0.48666,0.13466 -0.99066,0.276 -1.528,0.43466 -2.188,0.64267 -4.668,1.37067 -6.48133,3.25734 -0.46667,0.48533 -0.792,1.00133 -1.07867,1.45733 -0.6,0.95067 -0.93333,1.41467 -1.928,1.57467 l -1.148,0.18533 0.25467,1.06667 c 0.28933,1.21066 0.176,1.28533 -0.24933,1.564 -0.42934,0.28133 -1.07867,0.708 -1.568,1.63466 -0.14934,0.28267 -0.70667,2.33333 -0.75867,4.19733"
       style="fill:#383838;fill-opacity:1;fill-rule:nonzero;stroke:none;stroke-width:1.33333"
       id="path29757" />
    <path
       d="m 273.80906,204.5564 c -1.452,-0.928 -2.588,-2.01466 -3.64,-3.32266 -0.47467,-0.59067 -0.892,-1.412 -1.64133,-0.68934 -0.28267,0.272 -0.35067,0.99467 -0.34134,1.356 0.016,0.628 0.0307,1.30667 0.028,2 -2.088,-1.68 -3.564,-4.27066 -2.912,-6.64533 0.59067,-2.16 2.60667,-3.56666 3.82267,-5.28666 -0.0187,1.04 -0.43067,1.96933 -0.348,2.97866 0.41333,-0.45466 1.03333,-0.824 1.476,-1.20533 0.06,0.83867 -0.0347,1.59733 0.236,2.35867 0.652,-0.75334 1.47067,-1.49867 2.14667,-2.23067 -0.0173,0.56933 0,1.492 -0.13734,2.13733 1.05734,-1.35733 1.96934,-2.74666 3.57067,-3.56133 0.616,-0.31333 1.25467,-0.46667 1.828,-0.87733 0.32533,-0.23334 0.588,-0.52667 0.9,-0.77467 0.46,-0.36533 0.944,-0.72533 1.42533,-0.98533 -1.164,-0.31867 -2.82,-0.45467 -3.91333,-1.08934 1.244,-0.736 2.89733,-0.81733 4.27467,-1.21333 1.19066,-0.34133 2.40533,-0.636 3.584,-0.98933 0.87866,-0.264 1.744,-0.57734 2.632,-0.78534 -0.4,-0.23333 -0.82534,-0.59866 -1.03334,-1.012 1.35867,-0.736 3.28534,0.0533 4.65334,0.27334 0.65733,0.10666 1.46133,0.0227 2.12533,-0.012 -0.16,-0.824 -1.35333,-0.8 -1.12667,-1.84134 0.60134,-0.0907 1.15734,-0.304 1.744,-0.40266 0.82,-0.136 1.32267,0.064 1.53467,-0.796 0.17067,-0.68667 0.13867,-0.984 0.77467,-1.30134 1.024,-0.51066 2.116,-0.47466 3.18,-0.78133 0.55466,-0.16133 1.97866,-0.832 2.084,-1.51867 0.272,-0.13733 0.80933,-0.6 1.17066,-0.44266 0.51734,0.22533 0.096,1.856 -0.12,2.20933 -0.0613,0.10133 -0.872,0.348 -1.02933,0.43733 -0.396,0.22667 -0.76267,0.49867 -1.17467,0.70267 l -2.932,1.456 3.276,0.48933 c 0.30534,0.0453 0.604,0.0827 0.89467,0.11734 0.46267,0.0573 0.88267,0.108 1.27333,0.18933 -0.0893,0.0787 -0.18,0.16 -0.272,0.24133 -0.25733,0.22667 -0.516,0.456 -0.77066,0.69734 l -1.74,1.64533 2.20133,0.11067 c -1.14267,0.29733 -2.204,0.66133 -3.00267,1.09333 -0.64666,-0.284 -1.35466,-0.42667 -2.116,-0.42667 -1.48133,0 -2.89333,0.52667 -4.21466,1.064 -1.364,0.55734 -2.532,0.884 -3.88534,1.26134 -0.48666,0.13466 -0.99066,0.276 -1.528,0.43466 -2.188,0.64267 -4.668,1.37067 -6.48133,3.25734 -0.46667,0.48533 -0.792,1.00133 -1.07867,1.45733 -0.6,0.95067 -0.93333,1.41467 -1.928,1.57467 l -1.148,0.18533 0.25467,1.06667 c 0.28933,1.21066 0.176,1.28533 -0.24933,1.564 -0.42934,0.28133 -1.07867,0.708 -1.568,1.63466 -0.14934,0.28267 -0.70667,2.33333 -0.75867,4.19733"
       style="opacity:0.199997;fill:#000000;fill-opacity:1;fill-rule:nonzero;stroke:none;stroke-width:1.33333"
       id="path29767" />
    <path
       d="m 339.48812,199.03907 c -0.54133,-0.91466 -1.64933,-1.44 -2.452,-2.12 -0.99466,-0.84266 -1.81733,-1.856 -2.64666,-2.83733 -1.21467,-1.436 -2.47067,-2.92267 -3.88,-3.78133 -1.236,-0.75334 -2.78533,-1.41467 -4.42533,-2.11467 -1.792,-0.76533 -3.63334,-1.55067 -4.88934,-2.40667 l 0.47734,-0.53333 -1.08534,-0.68133 c -0.10133,-0.064 -0.20133,-0.132 -0.3,-0.20667 l 1.05867,-0.188 -0.99733,-1.38133 c -0.0613,-0.532 -0.3,-0.86934 -0.69867,-1.16667 0.66667,-0.584 2.344,-1.564 4.40133,-2.43333 0.696,-0.29467 1.05067,-0.40667 1.12,-0.42267 0.79067,-0.1 1.73067,-0.152 2.81734,-0.152 0.98933,0 1.98266,0.0413 2.97466,0.0827 0.536,0.0227 1.07334,0.044 1.608,0.0613 -0.0453,0.12133 -0.096,0.24 -0.16533,0.352 l 2.05066,1.108 c -0.0907,0.144 -0.23466,0.20933 -0.288,0.21867 1.88134,0 7.80667,3.82533 8.50934,4.67733 0.24666,0.308 0.51466,0.62933 0.79066,0.96133 0.64,0.76934 1.32534,1.592 1.88,2.42267 l -1.372,-0.65467 0.40134,2.17467 c 0.14266,0.77333 0.47733,1.584 0.832,2.44133 0.49466,1.2 1.04533,2.53467 0.808,3.35867 -0.18134,0.0107 -0.36534,0.0307 -0.552,0.0507 -0.20267,0.0213 -0.408,0.0467 -0.60534,0.0467 -0.108,0 -0.17333,-0.009 -0.20666,-0.016 l -2.87334,-0.64266 1.596,2.308 c 0.36267,0.524 0.34,0.812 0.31467,0.85333 -0.009,0.016 -0.12667,0.0973 -0.432,0.0973 -0.2,0 -0.53067,-0.036 -0.97733,-0.20933 -0.468,-0.18133 -1.028,-0.372 -1.54534,-0.25467 -0.20133,0.0467 -1.35866,0.8 -1.248,0.988"
       style="fill:#383838;fill-opacity:1;fill-rule:nonzero;stroke:none;stroke-width:1.33333"
       id="path29777" />
    <path
       d="m 339.48812,199.03907 c -0.54133,-0.91466 -1.64933,-1.44 -2.452,-2.12 -0.99466,-0.84266 -1.81733,-1.856 -2.64666,-2.83733 -1.21467,-1.436 -2.47067,-2.92267 -3.88,-3.78133 -1.236,-0.75334 -2.78533,-1.41467 -4.42533,-2.11467 -1.792,-0.76533 -3.63334,-1.55067 -4.88934,-2.40667 l 0.47734,-0.53333 -1.08534,-0.68133 c -0.10133,-0.064 -0.20133,-0.132 -0.3,-0.20667 l 1.05867,-0.188 -0.99733,-1.38133 c -0.0613,-0.532 -0.3,-0.86934 -0.69867,-1.16534 0.003,10e-4 1.856,-1.208 2,-1.288 0.89733,-0.5 1.724,-0.45733 2.63733,-0.852 -0.0573,0.72534 -1.10933,1.32 -1.05333,1.98667 0.34,0.084 0.67067,0.044 1.02533,0.0933 0.532,0.072 1.64267,0.20667 2.052,0.42 0.492,0.25734 0.468,0.10667 0.156,0.66534 -0.45466,0.81333 -0.564,0.668 0.30534,1.236 1.312,0.85866 3.15866,2.13333 3.88,3.55066 -0.28934,-0.18133 -0.47734,-0.44266 -0.824,-0.42666 -0.08,0.55066 1.47866,1.41066 1.92266,1.74533 1.07334,0.80933 2.25733,1.53333 3.35867,2.32267 0.16,-1.27734 -0.716,-2.03334 -1.48667,-2.776 0.56,0.0987 1.07733,0.548 1.568,0.85066 1.21733,0.75067 2.344,1.52267 3.68667,2.04267 0.82266,0.31867 1.55466,0.84933 2.33866,1.084 0.0453,-0.53067 -0.176,-1.02 -0.23066,-1.53333 0.85333,0.952 2.356,1.156 3.14933,2.12533 -0.068,-0.084 0.22267,-2.26533 0.24933,-2.53867 0.83867,0.528 0.732,1.27467 0.89334,2.11734 0.208,1.08266 1.07066,2.22266 0.74,3.36933 -0.18134,0.0107 -0.36534,0.0307 -0.552,0.0507 -0.20267,0.0213 -0.408,0.0467 -0.60534,0.0467 -0.108,0 -0.17333,-0.009 -0.20666,-0.016 l -2.87334,-0.64266 1.596,2.308 c 0.36267,0.524 0.34,0.812 0.31467,0.85333 -0.009,0.016 -0.12667,0.0973 -0.432,0.0973 -0.2,0 -0.53067,-0.036 -0.97733,-0.20933 -0.468,-0.18133 -1.028,-0.372 -1.54534,-0.25467 -0.20133,0.0467 -1.35866,0.8 -1.248,0.988"
       style="opacity:0.199997;fill:#000000;fill-opacity:1;fill-rule:nonzero;stroke:none;stroke-width:1.33333"
       id="path29787" />
    <path
       d="m 273.57639,199.89734 c 0.57734,-1.09467 1.33734,-1.636 1.83467,-1.96533 -0.0173,-0.12534 -0.048,-0.30267 -0.10533,-0.54534 l -0.50934,-2.13333 2.296,-0.36933 c 0.484,-0.0773 0.592,-0.17867 1.16134,-1.08 0.29733,-0.47334 0.668,-1.06134 1.20933,-1.624 2.016,-2.096 4.64933,-2.87067 6.972,-3.552 0.54267,-0.16 1.052,-0.30267 1.544,-0.43867 1.31867,-0.368 2.45733,-0.68667 3.76,-1.21867 1.42667,-0.58133 2.96133,-1.15066 4.656,-1.15066 0.508,0 0.99733,0.0533 1.46667,0.15866 l 1.86666,-1.76533 -6.528,-0.97467 5.86534,-2.91066 c 0.60533,-0.30134 1.204,-0.72534 1.836,-1.17467 0.0187,-0.012 0.0373,-0.0253 0.0547,-0.0373 -0.0533,-0.44134 -0.0573,-0.864 -0.0253,-1.28 l -0.17733,-0.0573 -0.024,-0.10533 c -0.172,0.0333 -2.49467,0.47467 -2.49467,0.47467 l -0.68533,-0.32934 c -0.81867,-0.39333 -3.30667,-0.81066 -6.30667,-0.81066 -2.076,0 -3.73467,0.18933 -4.97467,0.44933 l -0.0227,0.31867 c -0.2,2.872 -3.46667,4.228 -6.25867,5.03066 -0.001,0.024 -0.004,0.0467 -0.007,0.0693 -0.216,1.97066 -2.37866,2.84 -4.116,3.53733 -0.0133,0.005 -0.0267,0.0107 -0.04,0.0173 0.003,0.0973 0,0.18934 -0.004,0.276 -0.108,1.64 -1.51866,2.656 -2.452,3.32667 -0.212,0.15333 -0.41866,0.29733 -0.584,0.44133 -0.53866,0.46934 -1.05333,0.692 -1.39466,0.83867 -0.0667,0.0293 -0.136,0.0533 -0.17334,0.0707 -0.26266,0.288 -0.568,0.61333 -0.89866,0.964 -1.94534,2.064 -3.83334,4.516 -3.616,7.45333 0.22933,-0.43333 0.41733,-0.924 0.76933,-1.272 0.236,0.38267 0.58267,0.72667 0.856,1.09867 0.3,-0.152 0.44267,-0.56267 0.58667,-0.82 0.744,0.488 1.56,0.988 2.108,1.68266 0.21466,0.27067 1.89733,1.98933 1.87866,2.09867 0.25867,-1.48934 0.66267,-2.66533 0.676,-2.692 m 29.084,-23.696 c 0.17467,0.0493 0.648,-0.0427 0.77734,0.08 -0.33067,1.42 -0.48934,2.38667 -0.008,3.716 -1.10134,0.696 -2.12267,1.568 -3.32934,2.168 1.43067,0.21333 2.69067,0.22 3.91467,0.93867 -0.66,0.768 -1.43333,1.36133 -2.17733,2.064 1.66,0.084 6.084,-0.76267 6.23066,1.08666 -2.39333,0.0693 -7.73333,0.90267 -9.51066,2.24934 -1.888,-1.20934 -4.15467,-0.35467 -5.936,0.372 -1.928,0.788 -3.48267,1.13333 -5.52534,1.73466 -2.27733,0.668 -4.41733,1.32667 -5.98933,2.96134 -1.244,1.29466 -1.388,2.99866 -3.64133,3.36133 0.71733,3.00667 -0.928,2.032 -1.90534,3.88533 -0.416,0.788 -1.08133,5.38133 -0.216,5.82267 -2.21733,-1.13334 -4.52133,-2.62134 -6.05066,-4.768 0.0333,1.32 0.052,2.66266 -0.0373,3.968 -3.12533,-1.612 -5.99866,-5.296 -5.02666,-8.84533 0.612,-2.23067 3.74133,-5.244 5.30266,-6.96134 0.57334,-0.628 1.13467,-0.54933 1.74534,-1.08266 1.07333,-0.936 3.41466,-1.95334 1.76,-3.47867 1.196,-1.09067 6.93066,-1.98267 3.84266,-4.00933 1.92,-0.51467 6.996,-1.52534 7.156,-3.824 -0.768,0.10266 -1.66533,-0.19467 -2.452,-0.02 1.876,-3.384 13.88267,-3.13467 16.97334,-1.65067 3.40133,-0.632 3.84533,-0.896 4.10266,0.232"
       style="display:inline;fill:#000000;fill-opacity:1;fill-rule:nonzero;stroke:none;stroke-width:1.33333"
       id="path29797" />
    <path
       d="m 341.76572,185.81947 c -2.06666,-2.61066 -5.87866,-3.33866 -8.88933,-4.36533 -0.80533,-0.27467 -1.344,-0.9 -2.33066,-1.00667 0.27333,-0.39733 0.61066,-0.71466 0.76,-1.156 -1.04934,-0.152 -1.784,0.15867 -2.764,0.332 -0.992,0.17467 -2.17067,-0.08 -3.12534,0.22534 -0.19866,0.0627 -0.50533,0.18533 -0.87333,0.34133 -1.368,0.57733 -2.504,1.18133 -3.25333,1.65067 0.0667,0.15066 0.12266,0.316 0.16,0.49466 0,0 1.87866,2.60134 1.85866,2.60534 l 0.116,0.072 -0.46,0.51333 c 1.076,0.57467 2.39334,1.13733 3.616,1.65867 1.608,0.68666 3.26934,1.396 4.58,2.19466 1.57334,0.95734 2.89067,2.516 4.164,4.024 1.00667,1.19067 2.216,2.62134 3.22933,3.23334 l -0.328,-1.09867 3.17067,1.23067 -2.284,-3.23867 5.696,1.272 c -0.164,-0.63067 -0.508,-1.46267 -0.708,-1.94933 -0.35867,-0.86934 -0.73067,-1.76934 -0.89333,-2.64934 l -0.62534,-3.39066 c -0.0173,-0.0213 -0.036,-0.044 -0.0533,-0.0653 -0.28133,-0.336 -0.55333,-0.664 -0.76267,-0.928 m -16.81466,-8.13466 c 3.16533,-0.40667 6.396,0.04 9.57333,-0.008 -0.696,0.592 -0.69867,1.35733 -1.09333,1.98666 1.07066,-1.70666 9.31333,3.684 10.19866,4.79334 1.456,1.82 3.60534,4.036 3.98134,6.29466 0.132,0.092 0.13733,0.088 0.016,-0.0147 -0.592,-0.41067 -1.544,-0.64934 -2.07867,-0.90534 0.39333,2.13734 2.788,5.33067 1.14933,7.108 -0.692,-0.128 -1.59066,0.19334 -2.32266,0.0293 0.648,0.93733 0.80666,2.304 -0.63734,2.604 -0.60133,0.12533 -1.05333,-0.13734 -1.63066,-0.164 -0.828,-0.0373 -1.24934,0.36933 -1.89867,0.72266 -0.348,0.18933 -0.78533,0.28267 -1.15467,0.41867 -0.57866,0.21333 -0.65866,0.32133 -0.97333,-0.20934 -0.18133,-0.30666 -0.48133,-0.60933 -0.58267,-0.93199 -0.344,0.11733 -0.61866,0.516 -0.99066,0.62799 -0.16267,-0.28799 -0.15067,-0.63999 -0.276,-0.92933 -0.0933,-0.21333 -0.20667,-0.33333 -0.31867,-0.54266 -0.164,-0.30934 -0.156,-0.61467 -0.26933,-0.952 -0.416,-1.23867 -1.74667,-2.33734 -2.59467,-3.332 -0.93866,-1.1 -1.91066,-2.28 -3.19066,-3.06 -2.96134,-1.804 -8.372,-3.28 -10.48,-5.472 0.15733,-0.18267 0.468,-0.188 0.544,-0.272 -0.76934,-0.48134 -1.41467,-1.17067 -2.03334,-1.68934 0.604,-0.0627 0.90667,-0.284 1.47334,-0.38533 -0.508,-0.704 0.148,-0.60267 -0.816,-1.15067 -1.556,-0.884 2.66266,-3.072 5.01333,-4.06533 0.688,-0.29067 1.216,-0.48 1.392,-0.50133"
       style="fill:#000000;fill-opacity:1;fill-rule:nonzero;stroke:none;stroke-width:1.33333"
       id="path29801" />
  </g>
</svg>
