<?xml version="1.0" encoding="UTF-8" standalone="no"?>
<!-- Created with Inkscape (http://www.inkscape.org/) -->

<svg
   width="400"
   height="400"
   viewBox="0 0 400 400"
   version="1.1"
   id="svg5"
   xml:space="preserve"
   inkscape:version="1.2.2 (b0a8486, 2022-12-01)"
   sodipodi:docname="pencilMoustache.svg"
   xmlns:inkscape="http://www.inkscape.org/namespaces/inkscape"
   xmlns:sodipodi="http://sodipodi.sourceforge.net/DTD/sodipodi-0.dtd"
   xmlns="http://www.w3.org/2000/svg"
   xmlns:svg="http://www.w3.org/2000/svg"><sodipodi:namedview
     id="namedview7"
     pagecolor="#ffffff"
     bordercolor="#666666"
     borderopacity="1.0"
     inkscape:showpageshadow="2"
     inkscape:pageopacity="0.0"
     inkscape:pagecheckerboard="0"
     inkscape:deskcolor="#d1d1d1"
     inkscape:document-units="px"
     showgrid="false"
     inkscape:zoom="9.53"
     inkscape:cx="292.18258"
     inkscape:cy="166.1595"
     inkscape:window-width="1788"
     inkscape:window-height="1173"
     inkscape:window-x="2473"
     inkscape:window-y="100"
     inkscape:window-maximized="0"
     inkscape:current-layer="svg5" /><defs
     id="defs2" /><g
     inkscape:groupmode="layer"
     id="layer2"
     inkscape:label="Moustache"><path
       id="path1622"
       style="fill:#383838;fill-opacity:1;stroke:none;stroke-width:1px;stroke-linecap:butt;stroke-linejoin:miter;stroke-opacity:1"
       d="M 313.10938 180.35938 C 311.38 180.29622 289.73557 187.51664 286.84766 188.77734 C 283.86658 190.07871 282.16211 191.50781 282.16211 191.50781 C 282.16211 191.50781 303.94388 187.36798 304.44336 187.27148 C 305.60554 187.04693 306.43977 186.76263 306.51367 186.76562 C 307.21188 186.79151 311.45577 185.77454 311.64844 185.59375 C 312.38235 184.90506 313.63024 180.95322 313.21289 180.38867 C 313.19985 180.37103 313.16516 180.36141 313.10938 180.35938 z M 316.20898 180.48828 C 316.17292 180.48647 316.14881 180.49121 316.13477 180.50195 C 315.68522 180.84562 316.40718 184.8682 316.86914 185.42773 C 317.3311 185.98726 333.46289 190.52344 333.46289 190.52344 C 333.46289 190.52344 332.56714 188.66006 330.60547 187.54102 C 328.7051 186.45694 317.32695 180.54434 316.20898 180.48828 z " /><path
       id="path4666"
       style="color:#000000;fill:#000000;-inkscape-stroke:none"
       d="M 315.90234 180.26562 C 315.90234 180.26562 316.05403 181.88211 316.16602 182.54297 C 316.27761 183.20137 316.31058 183.66631 316.44531 184.25195 C 316.57852 184.83097 317.1543 185.82227 317.1543 185.82227 C 317.1543 185.82227 316.98098 184.83182 316.86914 184.3457 C 316.75885 183.8662 316.78288 183.18111 316.66016 182.45703 C 316.53787 181.73542 315.90234 180.26562 315.90234 180.26562 z M 313.22266 180.37695 C 313.22266 180.37695 312.50861 181.81141 312.34766 182.52539 C 312.18615 183.24181 312.17307 183.92752 312.03711 184.40039 C 311.89927 184.87979 311.67383 185.85937 311.67383 185.85938 C 311.67383 185.85938 312.30066 184.9011 312.46484 184.33008 C 312.6309 183.75254 312.68908 183.28816 312.83594 182.63672 C 312.98334 181.98284 313.22266 180.37695 313.22266 180.37695 z M 312.66992 180.45312 C 312.66992 180.45312 312.22297 180.88031 311.80078 181.51172 C 311.54757 181.89039 311.27058 182.4602 311.19727 182.72461 C 311.00104 183.43231 310.95377 184.11635 310.79492 184.58203 C 310.63388 185.05414 310.36133 186.02148 310.36133 186.02148 C 310.36133 186.02148 311.03474 185.09359 311.22656 184.53125 C 311.42057 183.96249 311.50127 183.50286 311.67969 182.85938 C 311.74519 182.6231 311.89442 182.05411 312.05859 181.66016 C 312.34322 180.97715 312.66992 180.45312 312.66992 180.45312 z M 316.48633 180.48633 C 316.48633 180.48633 316.81749 181.18038 317.07617 181.75586 C 317.31875 182.29552 317.74258 182.86417 317.87305 183.20898 C 318.14418 183.92553 317.99647 184.77244 318.17578 185.38086 C 318.34131 185.94251 318.83594 186.35938 318.83594 186.35938 C 318.83594 186.35938 318.80374 185.73873 318.65625 185.23828 C 318.52254 184.7846 318.548 183.90949 318.23047 183.07031 C 318.06661 182.63726 317.70906 182.03831 317.38867 181.52734 C 317.06828 181.01638 316.48633 180.48633 316.48633 180.48633 z M 311.67383 180.74023 C 311.67383 180.74023 310.75034 181.06789 310.21875 181.57227 C 309.96821 181.80999 309.61532 182.48271 309.50586 182.71484 C 309.19263 183.3791 309.20356 184.49667 309.03516 184.95898 C 308.86445 185.42768 308.62891 186.42969 308.62891 186.42969 C 308.62891 186.42969 309.26346 185.43718 309.4668 184.87891 C 309.67247 184.31426 309.58824 183.48403 309.87891 182.88281 C 309.97871 182.67643 310.3018 181.98219 310.51172 181.70898 C 310.92605 181.16973 311.67383 180.74023 311.67383 180.74023 z M 310.57227 180.94727 C 310.57227 180.94727 309.40506 181.35492 308.92188 181.74609 C 308.49141 182.09459 308.09458 182.64492 307.93359 182.98633 C 307.62036 183.65059 307.37152 184.98886 307.20312 185.45117 C 307.03245 185.91987 307.09375 186.79687 307.09375 186.79688 C 307.09375 186.79688 307.39432 185.78288 307.59766 185.22461 C 307.80333 184.65996 308.01597 183.75552 308.30664 183.1543 C 308.43352 182.89185 308.63087 182.37607 309.00977 182.07031 C 309.59086 181.60139 310.57227 180.94727 310.57227 180.94727 z M 318.69336 181.40234 C 318.69336 181.40234 318.80366 181.72327 319.00781 182.01367 C 319.21192 182.30407 319.31285 182.72749 319.4043 182.96289 C 319.59287 183.44828 319.53365 184.07434 319.71094 184.76953 C 319.88493 185.45176 320.63477 186.70117 320.63477 186.70117 C 320.63477 186.70117 320.34836 185.2466 320.19531 184.64648 C 320.04557 184.05931 320.06158 183.71323 319.88867 183.02148 C 319.80407 182.68286 319.46558 182.21605 319.25195 181.91211 C 319.03833 181.60817 318.69336 181.40234 318.69336 181.40234 z M 308.09375 181.72266 C 308.09375 181.72266 307.52514 182.11591 307.08789 182.62305 C 306.70305 183.0694 306.37452 183.67553 306.25 184.0293 C 306.00235 184.73291 305.87348 185.44003 305.70508 185.90234 C 305.53437 186.37104 305.32422 187.15039 305.32422 187.15039 C 305.32422 187.15039 305.93338 186.4196 306.13672 185.86133 C 306.34239 185.29668 306.51797 184.72174 306.625 184.19922 C 306.6883 183.89008 306.86686 183.22961 307.23242 182.78125 C 307.70683 182.19936 308.09375 181.72266 308.09375 181.72266 z M 306.7168 182.07617 C 306.7168 182.07617 305.80551 182.73641 305.44141 183.19336 C 305.12297 183.593 304.78247 184.05841 304.62305 184.39648 C 304.30981 185.06074 304.24652 185.80722 304.07812 186.26953 C 303.90744 186.73823 303.69727 187.51758 303.69727 187.51758 C 303.69727 187.51758 304.25369 186.81218 304.45703 186.25391 C 304.6627 185.68926 304.70738 185.16763 304.99805 184.56641 C 305.13285 184.28759 305.38865 183.76327 305.68945 183.36719 C 306.07146 182.86419 306.7168 182.07617 306.7168 182.07617 z M 320.5 182.37695 C 320.5 182.37695 321.02176 183.04662 321.2207 183.60352 C 321.3407 183.93943 321.58737 184.54093 321.65625 184.77344 C 321.84221 185.40123 322.01991 185.94568 322.1543 186.375 C 322.285 186.79252 322.44922 187.27344 322.44922 187.27344 C 322.44922 187.27344 322.56133 186.73555 322.45898 186.23633 C 322.35331 185.72312 322.22674 185.20754 322.04492 184.59375 C 321.97382 184.35373 321.74356 183.79951 321.5332 183.48242 C 321.19706 182.97574 320.5 182.37695 320.5 182.37695 z M 305.48438 182.49609 C 305.48438 182.49609 304.38456 183.08784 304.03125 183.4375 C 303.65455 183.81031 303.20286 184.2964 302.94531 184.71094 C 302.55775 185.33475 302.3852 186.14902 302.2168 186.61133 C 302.04609 187.08003 301.65039 187.75391 301.65039 187.75391 C 301.65039 187.75391 302.37869 187.12858 302.58203 186.57031 C 302.7877 186.00566 302.97673 185.45465 303.31836 184.88086 C 303.53183 184.52233 303.88603 183.99018 304.23242 183.61914 C 304.67558 183.14444 305.48437 182.49609 305.48438 182.49609 z M 303.5957 183.22461 C 303.5957 183.22461 301.68654 184.1635 301.29297 184.86133 C 300.93218 185.501 300.77585 186.22891 300.57422 186.67773 C 300.36983 187.13275 300.10352 188.22656 300.10352 188.22656 C 300.10352 188.22656 300.58075 187.62987 300.82422 187.08789 C 301.07048 186.53972 301.32061 185.63509 301.6543 185.05664 C 301.99492 184.46616 303.5957 183.22461 303.5957 183.22461 z M 322.35352 183.34375 C 322.35352 183.34375 323.07221 183.97269 323.25781 184.28516 C 323.44338 184.59763 323.58741 185.06959 323.64453 185.27734 C 323.78082 185.77304 323.788 186.07532 323.82227 186.54102 C 323.85327 186.96204 324.03516 187.88867 324.03516 187.88867 C 324.03516 187.88867 324.3194 187.04967 324.2832 186.55859 C 324.2503 186.1122 324.2437 185.62449 324.06055 185.08203 C 323.96047 184.78564 323.74856 184.4091 323.55664 184.08594 C 323.36473 183.76279 322.35352 183.34375 322.35352 183.34375 z M 301.41016 183.87109 C 301.41016 183.87109 300.20443 184.81021 299.58008 185.51758 C 299.09409 186.06819 298.82739 186.88216 298.60352 187.32031 C 298.39169 187.7349 298.24438 188.33207 297.89453 188.74023 C 297.89453 188.74023 298.6802 187.88992 298.95898 187.36523 C 299.24096 186.83454 299.47269 186.15934 299.91406 185.6582 C 300.47848 185.01734 301.41016 183.87109 301.41016 183.87109 z M 300.08203 184.23438 C 300.08203 184.23438 298.33782 185.20805 297.63281 185.92188 C 297.11674 186.44437 296.84321 187.09546 296.58398 187.51367 C 296.32119 187.93765 295.85156 188.86719 295.85156 188.86719 C 295.85156 188.86719 296.51901 188.17103 296.83203 187.66602 C 297.14865 187.15524 297.20874 186.87768 297.67578 186.40039 C 298.27701 185.78596 300.08203 184.23438 300.08203 184.23438 z M 324.44727 184.27539 C 324.44727 184.27539 324.80533 184.83563 325.0293 185.24609 C 325.2533 185.65655 325.40795 186.11389 325.48438 186.34961 C 325.65077 186.86287 325.65992 187.10014 325.76367 187.5293 C 325.85767 187.91812 326.19531 188.42383 326.19531 188.42383 C 326.19531 188.42383 326.25488 187.90523 326.17578 187.57812 C 326.10648 187.29136 326.16078 186.81163 325.96094 186.19531 C 325.85425 185.86624 325.60364 185.38772 325.375 184.96875 C 325.14635 184.54979 324.44727 184.27539 324.44727 184.27539 z M 297.74023 184.98047 C 297.74023 184.98047 296.54568 185.56708 295.91211 186.06836 C 295.5725 186.33706 295.04502 186.87336 294.79492 187.20703 C 294.23351 187.95603 293.78906 189.31445 293.78906 189.31445 C 293.78906 189.31445 294.53455 188.06315 295.07812 187.4082 C 295.23799 187.21558 295.67712 186.71265 295.91602 186.47266 C 296.42902 185.95734 297.74023 184.98047 297.74023 184.98047 z M 325.89844 185.00977 C 325.89844 185.00977 326.65148 185.57754 326.91406 186.10742 C 327.08971 186.46188 327.10559 186.61966 327.34961 187.26367 C 327.59363 187.90767 327.63876 188.14461 327.91992 189 C 327.88572 187.96144 327.86611 187.79938 327.64648 186.98633 C 327.57538 186.74631 327.34513 186.19209 327.13477 185.875 C 326.79863 185.36832 325.89844 185.00977 325.89844 185.00977 z M 296.25 185.45703 C 296.25 185.45703 295.11626 185.89998 294.50391 186.35156 C 294.021 186.70768 293.43261 187.11691 293.08984 187.57422 C 292.52843 188.32322 292.00586 189.62891 292.00586 189.62891 C 292.00586 189.62891 293.03844 188.16862 293.58203 187.51367 C 293.81249 187.236 294.23789 186.84494 294.63086 186.50195 C 295.09586 186.0961 296.25 185.45703 296.25 185.45703 z M 327.41406 185.83398 C 327.41406 185.83398 327.69723 186.33023 328.02344 186.64258 C 328.34966 186.95493 328.55993 187.29027 328.67188 187.46484 C 328.93823 187.88016 329.00572 188.03937 329.16211 188.43164 C 329.30069 188.77921 329.69531 189.375 329.69531 189.375 C 329.69531 189.375 329.66841 188.67216 329.53516 188.33789 C 329.41971 188.04832 329.41677 187.69897 329.09375 187.19531 C 328.91102 186.91039 328.49284 186.61533 328.1582 186.29492 C 327.82356 185.9745 327.41406 185.83398 327.41406 185.83398 z M 293.98633 186.24414 C 293.98633 186.24414 293.26265 186.5052 292.82617 186.78711 C 292.36197 187.08692 291.88499 187.59315 291.51562 188.08594 C 290.95423 188.83494 290.5625 190.07617 290.5625 190.07617 C 290.5625 190.07617 291.36071 188.66667 291.9043 188.01172 C 292.15872 187.70518 292.587 187.29736 292.94922 186.96875 C 293.30334 186.64749 293.98633 186.24414 293.98633 186.24414 z M 328.49023 186.37109 C 328.49023 186.37109 328.72791 186.74031 329.08008 187.00977 C 329.43225 187.27923 329.76038 187.66405 329.91797 187.83789 C 330.27941 188.23661 330.50297 188.52384 330.71484 188.86719 C 330.89205 189.15439 331.17773 189.84766 331.17773 189.84766 C 331.17773 189.84766 331.25214 189.08617 331.04883 188.66406 C 330.8696 188.292 330.60601 187.979 330.20898 187.54102 C 330.15357 187.47989 330.09075 187.41609 330.02148 187.34961 C 330.48292 187.71196 331.04445 188.15878 331.35156 188.42969 C 331.93257 188.94219 332.15872 189.23995 332.47656 189.54102 C 332.81618 189.86273 333.22511 190.36384 333.47266 190.55664 C 333.47266 190.55664 333.16064 189.78443 332.82422 189.35938 C 332.47551 188.91878 332.21635 188.67041 331.64453 188.16602 C 331.05689 187.64766 329.3125 186.79687 329.3125 186.79688 C 329.3125 186.79688 329.3641 186.83774 329.37695 186.84766 C 329.3278 186.81712 329.27843 186.78658 329.22656 186.75781 C 328.83049 186.53814 328.49023 186.37109 328.49023 186.37109 z M 292.28516 186.88281 C 292.28516 186.88281 290.92034 187.42332 290.13086 188.32031 C 289.51242 189.02296 288.95703 190.1543 288.95703 190.1543 C 288.95703 190.1543 289.80514 189.02825 290.39844 188.41797 C 290.9476 187.85309 292.28516 186.88281 292.28516 186.88281 z M 290.45312 187.46484 C 290.45312 187.46484 289.24456 187.91356 288.45508 188.81055 C 287.83664 189.5132 287.46875 190.60937 287.46875 190.60938 C 287.46875 190.60938 288.18209 189.48137 288.77539 188.87109 C 289.32455 188.30621 290.45312 187.46484 290.45312 187.46484 z M 289.03711 187.92969 C 289.03711 187.92969 288.29973 188.21269 287.72461 188.625 C 287.48472 188.79699 287.22257 189.0098 286.96289 189.26562 C 286.29609 189.92255 286.02539 190.85937 286.02539 190.85938 C 286.02539 190.85938 286.64303 189.94426 287.23633 189.33398 C 287.42232 189.14267 287.6764 188.91377 287.90039 188.71484 C 288.37743 188.29117 289.03711 187.92969 289.03711 187.92969 z M 287.60156 188.48633 C 287.60156 188.48633 286.74973 188.83121 286.20703 189.14844 C 285.88129 189.33884 285.54346 189.56883 285.29688 189.82031 C 284.64152 190.48865 284.18555 191.33203 284.18555 191.33203 C 284.18555 191.33203 284.93338 190.53155 285.5293 189.92383 C 285.74517 189.70368 286.0572 189.46148 286.32031 189.25586 C 286.78099 188.89582 287.60156 188.48633 287.60156 188.48633 z M 286.99805 188.68359 C 286.99805 188.68359 284.79358 189.44786 284.00586 189.95898 C 283.22063 190.46848 282.10156 191.61523 282.10156 191.61523 C 282.10156 191.61523 283.55357 190.60978 284.26758 190.14648 C 284.9791 189.6848 286.99805 188.68359 286.99805 188.68359 z " /></g></svg>
