<?xml version="1.0" encoding="UTF-8" standalone="no"?>
<!-- Created with Inkscape (http://www.inkscape.org/) -->

<svg
   width="400"
   height="400"
   viewBox="0 0 400 400"
   version="1.1"
   id="svg124057"
   xml:space="preserve"
   inkscape:version="1.3.2 (091e20e, 2023-11-25)"
   sodipodi:docname="fiveOclockShadow.svg"
   xmlns:inkscape="http://www.inkscape.org/namespaces/inkscape"
   xmlns:sodipodi="http://sodipodi.sourceforge.net/DTD/sodipodi-0.dtd"
   xmlns="http://www.w3.org/2000/svg"
   xmlns:svg="http://www.w3.org/2000/svg"><sodipodi:namedview
     id="namedview124059"
     pagecolor="#ffffff"
     bordercolor="#666666"
     borderopacity="1.0"
     inkscape:showpageshadow="2"
     inkscape:pageopacity="0.0"
     inkscape:pagecheckerboard="0"
     inkscape:deskcolor="#d1d1d1"
     inkscape:document-units="px"
     showgrid="false"
     inkscape:zoom="6.8306515"
     inkscape:cx="240.97262"
     inkscape:cy="199.98092"
     inkscape:window-width="2264"
     inkscape:window-height="1179"
     inkscape:window-x="2115"
     inkscape:window-y="25"
     inkscape:window-maximized="0"
     inkscape:current-layer="g3" /><defs
     id="defs124054" /><g
     inkscape:groupmode="layer"
     id="g6"
     inkscape:label="Facial Hair - Head 6"
     style="display:none"
     sodipodi:insensitive="true"><path
       id="path267172"
       style="fill:#383838;fill-opacity:0.301961;fill-rule:nonzero;stroke:none;stroke-width:1.33333"
       d="m 195.92383,134.10742 c -0.17996,0.64013 -0.2778,1.35346 -0.30274,1.86719 -0.55159,11.36377 1.00246,16.09438 2.66602,30.03906 0.10748,0.90095 0.049,3.53749 0.0195,6.20703 1.26467,4.20038 11.86571,23.45439 14.22461,26 8.77199,9.45865 36.23828,21.91407 36.23828,21.91407 6.46133,2.51599 25.29349,7.47407 28.52149,8.1914 11.18531,2.48667 24.62426,3.46684 27.29492,-3.28515 2.67066,-6.75333 6.45898,-17.03516 6.45898,-17.03516 0.42667,-2.676 1.57633,-4.75238 1.875,-6.12305 0.30513,-1.40402 2.0926,-9.0002 3.91211,-14.37304 -1.18048,-1.34361 -2.22994,-2.5149 -2.85156,-3.16993 -2.92181,-3.07876 -6.03707,-4.4827 -10.12109,-5.63867 -3.21068,-0.90876 -6.46593,-1.44922 -9.80274,-1.44922 -3.61488,0 -7.47372,0.1135 -11.05273,0.6211 -5.44569,0.77234 -10.12277,2.30996 -14.91797,5.0039 -5.91969,3.3257 -11.76199,9.16539 -17.51172,10.13672 -8.01755,1.35446 -20.31659,-3.75114 -28.88477,-10.53125 -9.51103,-7.52614 -15.25563,-18.0566 -19.90234,-29.25976 -1.09174,-2.496 -1.68438,-5.1623 -2.29492,-7.79883 0,0 -1.56104,-6.13761 -3.56836,-11.31641 z" /></g><g
     inkscape:groupmode="layer"
     id="layer5"
     inkscape:label="Facial Hair - Head 5"
     sodipodi:insensitive="true"
     style="display:none"><path
       id="path1"
       style="fill:#383838;fill-opacity:0.301961;stroke:none;stroke-width:1px;stroke-linecap:butt;stroke-linejoin:miter;stroke-opacity:1"
       d="m 195.92383,134.10742 c -0.17996,0.64013 -0.2778,1.35346 -0.30274,1.86719 -0.55159,11.3638 1.0025,16.09431 2.66606,30.03905 0.21416,1.79515 0.95639,4.87658 1.48049,7.10944 0.90361,3.84971 10.37161,22.51762 12.76361,25.0976 8.77198,9.45864 35.5332,23.60742 35.5332,23.60742 6.31866,2.85734 22.00388,9.34722 25.17188,10.19922 3.48131,0.93733 7.43338,1.05718 10.74805,0.97852 11.64663,-0.28 14.70658,-4.25663 15.91992,-5.2793 1.34133,-1.13733 8.58694,-10.03451 9.48828,-15.28515 0.46133,-2.68534 1.62736,-4.72761 1.94336,-6.09961 0.37466,-1.63333 0.94809,-3.09044 3.08008,-8.1211 0.85668,-2.02184 1.82825,-4.34704 2.79296,-6.67968 5.8e-4,-0.39067 -0.0107,-1.14991 -0.004,-1.44727 -0.22096,-1.77155 -0.82624,-3.22654 -3.22465,-5.75381 -2.92181,-3.07879 -6.03701,-4.48266 -10.12106,-5.63863 -3.21068,-0.90876 -6.46592,-1.44928 -9.80273,-1.44928 -3.61488,0 -7.4737,0.11352 -11.05274,0.62112 -5.44569,0.77234 -10.1227,2.30995 -14.91793,5.00392 -5.91969,3.3257 -11.76199,9.16527 -17.51175,10.1366 -8.01758,1.35446 -20.31656,-3.75114 -28.88477,-10.53125 -9.51106,-7.52617 -15.2556,-18.05657 -19.90234,-29.25976 -1.09174,-2.496 -1.68438,-5.1623 -2.29492,-7.79883 0,0 -1.56104,-6.13761 -3.56836,-11.31641 z"
       sodipodi:nodetypes="ccssccccccccccssssssssccc" /></g><g
     inkscape:groupmode="layer"
     id="g5"
     inkscape:label="Facial Hair - Head 4"
     style="display:none"
     sodipodi:insensitive="true"><path
       id="path149948"
       style="display:inline;fill:#383838;fill-opacity:0.301961;fill-rule:nonzero;stroke:none;stroke-width:1.33333"
       d="m 195.92383,134.10742 c -0.17996,0.64013 -0.2778,1.35346 -0.30274,1.86719 -0.55159,11.36378 1.00246,16.09436 2.66602,30.03906 0.12655,1.06079 0.0174,4.46644 0.004,7.58203 1.67375,5.12012 9.9645,27.16203 21.07617,33.51172 12.20666,6.97466 36.44581,16.56655 39.75781,18.31055 3.31333,1.744 20.57467,9.06815 32.08398,8.02148 10.76666,-0.97867 22.46987,-4.90415 26.50586,-33.82812 0.35148,-2.5213 1.59746,-4.97359 3.00196,-7.59766 -2.46359,-2.91439 -5.46244,-6.33149 -6.73633,-7.67383 -2.92181,-3.07877 -6.03706,-4.4827 -10.12109,-5.63867 -3.21068,-0.90876 -6.46593,-1.44922 -9.80274,-1.44922 -3.61488,0 -7.47371,0.1135 -11.05273,0.6211 -5.44569,0.77234 -10.12276,2.30995 -14.91797,5.0039 -5.91969,3.3257 -11.76198,9.16539 -17.51172,10.13672 -8.01756,1.35446 -20.31658,-3.75114 -28.88477,-10.53125 -9.51104,-7.52615 -15.25562,-18.05659 -19.90234,-29.25976 -1.09174,-2.496 -1.68438,-5.1623 -2.29492,-7.79883 0,0 -1.56104,-6.13761 -3.56836,-11.31641 z" /></g><g
     inkscape:groupmode="layer"
     id="g10"
     inkscape:label="Facial Hair - Head 10"
     style="display:inline"><path
       id="path81497-8"
       style="fill:#383838;fill-opacity:0.30000001;fill-rule:nonzero;stroke:none;stroke-width:1.33333"
       d="M 195.92383 134.10742 C 195.74387 134.74755 195.64603 135.46088 195.62109 135.97461 C 195.0695 147.33837 196.62355 152.06901 198.28711 166.01367 C 198.36821 166.69355 198.11795 169.59453 197.91992 172.41406 C 198.27368 173.99672 206.24657 198.84048 216.77734 209.33203 C 226.67168 218.59676 230.16713 222.99757 233.48047 224.74023 C 235.9658 226.04823 255.27252 239.176 272.45117 241 C 278.17784 241.608 290.51916 237.06406 293.39648 236.80273 C 297.56045 236.42429 304.1727 233.49762 307.55469 227.89258 C 308.13378 226.93284 309.18509 224.30053 309.73633 223.57227 C 312.143 220.39227 312.44011 218.0375 313.67969 210.89062 C 314.35746 206.9829 315.55352 204.98468 318.21484 199.94336 C 319.37267 197.74889 320.80845 195.40051 322.18164 192.58008 C 319.24861 189.48912 315.00591 185.42038 313.98047 184.33984 C 311.05866 181.26109 307.94339 179.85714 303.85938 178.70117 C 300.6487 177.79241 297.39345 177.25195 294.05664 177.25195 C 290.44176 177.25195 286.58291 177.36545 283.00391 177.87305 C 277.55822 178.64539 272.88113 180.18302 268.08594 182.87695 C 262.16625 186.20265 256.32394 192.04234 250.57422 193.01367 C 242.55668 194.36813 230.25762 189.26253 221.68945 182.48242 C 212.17843 174.95629 206.43381 164.42581 201.78711 153.22266 C 200.69537 150.72666 200.10273 148.06036 199.49219 145.42383 C 199.49219 145.42383 197.93115 139.28622 195.92383 134.10742 z " /></g><g
     inkscape:groupmode="layer"
     id="g9"
     inkscape:label="Facial Hair - Head 9"
     style="display:none"
     sodipodi:insensitive="true"><path
       id="path61896"
       style="fill:#383838;fill-opacity:0.3;fill-rule:nonzero;stroke:none;stroke-width:1.33333"
       d="m 195.92383,134.10742 c -0.17996,0.64013 -0.2778,1.35346 -0.30274,1.86719 -0.55159,11.36377 1.00246,16.09438 2.66602,30.03906 0.12655,1.06079 0.0173,4.46645 0.004,7.58203 0.12141,0.37142 0.23416,0.90075 0.34375,1.50782 1.64455,6.28043 7.22439,25.67629 15.32812,34.76757 8.36132,9.38265 15.84877,13.3628 19.16211,15.10547 2.48533,1.308 19.45807,6.46311 36.63672,8.28711 5.72666,0.608 18.56994,0.43711 21.44726,0.17578 5.00267,-0.45467 16.41709,-3.50366 19.70508,-7.84765 1.36207,-1.79973 6.2371,-17.08746 10.21094,-33.0918 -2.72873,-3.17581 -6.14706,-7.10909 -7.14453,-8.16016 -2.92181,-3.07876 -6.03707,-4.4827 -10.12109,-5.63867 -3.21068,-0.90876 -6.46593,-1.44922 -9.80274,-1.44922 -3.61488,0 -7.47372,0.1135 -11.05273,0.6211 -5.44569,0.77234 -10.12277,2.30996 -14.91797,5.0039 -5.91969,3.3257 -11.76199,9.16539 -17.51172,10.13672 -8.01755,1.35446 -20.31659,-3.75114 -28.88477,-10.53125 -9.51103,-7.52614 -15.25563,-18.0566 -19.90234,-29.25976 -1.09174,-2.496 -1.68438,-5.1623 -2.29492,-7.79883 0,0 -1.56104,-6.13761 -3.56836,-11.31641 z" /></g><g
     inkscape:groupmode="layer"
     id="g8"
     inkscape:label="Facial Hair - Head 8"
     style="display:none"
     sodipodi:insensitive="true"><path
       id="path32279"
       style="fill:#383838;fill-opacity:0.3;fill-rule:nonzero;stroke:none;stroke-width:1.33333"
       d="m 195.92383,134.10742 c -0.17996,0.64013 -0.2778,1.35346 -0.30274,1.86719 -0.55159,11.36377 1.00246,16.09438 2.66602,30.03906 0.10729,0.89936 0.0491,3.5288 0.0195,6.19336 1.26546,4.12001 11.86582,20.44813 14.22461,23.11328 8.77199,9.90932 26.08789,21.01953 26.08789,21.01953 6.31866,2.916 28.0936,11.26044 30.57227,11.8711 2.72266,0.672 16.98284,2.91084 19.57617,2.85351 9.11066,-0.20134 11.50379,-3.05182 12.45312,-3.78515 1.04933,-0.816 7.21844,-11.04293 8.1211,-16.29492 0.46134,-2.68534 1.62673,-4.72566 1.9414,-6.09766 0.37467,-1.63333 0.74511,-3.09239 3.03711,-8.12305 1.12269,-2.46464 2.39075,-5.15697 3.66602,-7.91797 -1.64197,-1.89037 -3.1879,-3.64395 -4.00586,-4.50586 -2.92181,-3.07876 -6.03707,-4.4827 -10.12109,-5.63867 -3.21068,-0.90876 -6.46593,-1.44922 -9.80274,-1.44922 -3.61488,0 -7.47372,0.1135 -11.05273,0.6211 -5.44569,0.77234 -10.12277,2.30996 -14.91797,5.0039 -5.91969,3.3257 -11.76199,9.16539 -17.51172,10.13672 -8.01755,1.35446 -20.31659,-3.75114 -28.88477,-10.53125 -9.51103,-7.52614 -15.25563,-18.0566 -19.90234,-29.25976 -1.09174,-2.496 -1.68438,-5.1623 -2.29492,-7.79883 0,0 -1.56104,-6.13761 -3.56836,-11.31641 z" /></g><g
     inkscape:groupmode="layer"
     id="g7"
     inkscape:label="Facial Hair - Head 7"
     style="display:none"
     sodipodi:insensitive="true"><path
       id="path101530"
       style="fill:#383838;fill-opacity:0.3;fill-rule:nonzero;stroke:none;stroke-width:1.33333"
       d="m 195.92383,134.10742 c -0.17996,0.64013 -0.2778,1.35346 -0.30274,1.86719 -0.55159,11.36377 1.00246,16.09438 2.66602,30.03906 0.1077,0.90276 0.0489,3.54743 0.0195,6.22266 1.26546,4.28586 11.86582,26.55978 14.22461,28.92383 8.77199,8.78399 14.51562,15.65625 14.51563,15.65625 1.24265,0.35333 16.69589,5.71958 19.94921,6.40625 13.67332,2.89066 23.07188,5.09718 25.17188,5.61718 10.30959,1.57986 22.52284,0.98179 26.61523,-2.03711 3.44159,-6.26489 12.65039,-19.12109 12.65039,-19.12109 0.21734,-2.676 1.85427,-5.40277 2.04493,-6.77344 0.16058,-1.14942 1.7976,-8.01599 3.28515,-13.47461 -1.14505,-1.30206 -2.1765,-2.45445 -2.7832,-3.09375 -2.92181,-3.07876 -6.03707,-4.4827 -10.12109,-5.63867 -3.21068,-0.90876 -6.46593,-1.44922 -9.80274,-1.44922 -3.61488,0 -7.47372,0.1135 -11.05273,0.6211 -5.44569,0.77234 -10.12277,2.30996 -14.91797,5.0039 -5.91969,3.3257 -11.76199,9.16539 -17.51172,10.13672 -8.01755,1.35446 -20.31659,-3.75114 -28.88477,-10.53125 -9.51103,-7.52614 -15.25563,-18.0566 -19.90234,-29.25976 -1.09174,-2.496 -1.68438,-5.1623 -2.29492,-7.79883 0,0 -1.56104,-6.13761 -3.56836,-11.31641 z" /></g><g
     inkscape:groupmode="layer"
     id="g4"
     inkscape:label="Facial Hair - Head 3"
     style="display:none"
     sodipodi:insensitive="true"><path
       id="path143958"
       style="display:none;fill:#383838;fill-opacity:0.3;fill-rule:nonzero;stroke:none;stroke-width:1.33333"
       d="m 195.92383,134.10742 c -0.17996,0.64013 -0.2778,1.35346 -0.30274,1.86719 -0.55159,11.36379 1.00246,16.09434 2.66602,30.03906 0.21416,1.79515 0.95637,4.87652 1.48047,7.10938 0.90361,3.8497 10.37167,22.51768 12.76367,25.09765 8.77065,9.45865 35.16992,24.42188 35.16992,24.42188 6.236,3.04133 21.72419,9.98126 24.85352,10.91992 3.43999,1.032 7.34633,1.25 10.625,1.25 11.52266,0 14.56678,-3.94327 15.77343,-4.94727 1.332,-1.11732 8.54166,-9.93404 9.45899,-15.2207 0.46933,-2.70267 1.63383,-4.73657 1.95117,-6.11523 0.38,-1.64267 1.92075,-5.27794 4.05274,-10.3086 1.06253,-2.50798 2.25916,-5.33768 3.46289,-8.28515 -0.86198,-1.46188 -1.76462,-3.34724 -3.89844,-5.59571 -2.92181,-3.07878 -6.03705,-4.4827 -10.12109,-5.63867 -3.21068,-0.90876 -6.46593,-1.44922 -9.80274,-1.44922 -3.61488,0 -7.4737,0.1135 -11.05273,0.6211 -5.44569,0.77234 -10.12275,2.30994 -14.91797,5.0039 -5.91969,3.3257 -11.76197,9.16539 -17.51172,10.13672 -8.01757,1.35446 -20.31657,-3.75114 -28.88477,-10.53125 -9.51105,-7.52616 -15.25561,-18.05658 -19.90234,-29.25976 -1.09174,-2.496 -1.68438,-5.1623 -2.29492,-7.79883 0,0 -1.56104,-6.13761 -3.56836,-11.31641 z" /></g><g
     inkscape:groupmode="layer"
     id="g2"
     inkscape:label="Facial Hair - Head 1"
     style="display:none"
     sodipodi:insensitive="true"><path
       id="path167025"
       style="fill:#383838;fill-opacity:0.301961;fill-rule:nonzero;stroke:none;stroke-width:1.33333"
       d="m 195.92383,134.10742 c -0.17996,0.64013 -0.2778,1.35346 -0.30274,1.86719 -0.55159,11.36379 1.00246,16.09434 2.66602,30.03906 0.21416,1.79515 0.95637,4.87652 1.48047,7.10938 0.21983,0.93657 0.71796,3.10809 1.35547,5.79883 3.78919,8.24156 10.08168,20.56197 11.96679,22.25781 2.616,2.35467 46.17383,27.79101 46.17383,27.79101 6.236,3.04134 11.608,5.17275 14.86133,5.46875 2.73067,0.248 5.77798,0.37305 9.05664,0.37305 11.52266,0 20.62669,-1.45951 21.83203,-2.46484 1.332,-1.116 3.24088,-12.11569 4.15821,-17.40235 0.46932,-2.70266 0.87407,-5.03735 1.1914,-6.41601 0.38,-1.64267 1.92074,-5.27794 4.05274,-10.3086 0.98214,-2.31823 2.09005,-4.95167 3.20117,-7.6582 -0.93404,-1.73033 -1.19164,-3.4551 -3.63672,-6.22266 -2.81027,-3.18092 -6.03705,-4.4827 -10.12109,-5.63867 -3.21068,-0.90876 -6.46593,-1.44922 -9.80274,-1.44922 -3.61488,0 -7.4737,0.1135 -11.05273,0.6211 -5.44569,0.77234 -10.12275,2.30994 -14.91797,5.0039 -5.91969,3.3257 -11.76197,9.16539 -17.51172,10.13672 -8.01757,1.35446 -20.31657,-3.75114 -28.88477,-10.53125 -9.51105,-7.52616 -15.25561,-18.05658 -19.90234,-29.25976 -1.09174,-2.496 -1.68438,-5.1623 -2.29492,-7.79883 0,0 -1.56104,-6.13761 -3.56836,-11.31641 z"
       sodipodi:nodetypes="ccssccccscccccsssssssccc" /></g><g
     inkscape:groupmode="layer"
     id="g3"
     inkscape:label="Facial Hair - Head 2"
     style="display:none"
     sodipodi:insensitive="true"><path
       id="path160653"
       style="fill:#383838;fill-opacity:0.301961;fill-rule:nonzero;stroke:none;stroke-width:1.33333"
       d="m 195.92383,134.10742 c -0.17996,0.64013 -0.2778,1.35346 -0.30274,1.86719 1.3571,10.04966 2.25878,24.53719 2.49024,36.5957 0.16267,2.75466 6.80619,23.01477 8.10351,24.63477 1.296,1.62133 48.7793,28.52344 48.7793,28.52344 6.23733,3.28799 15.87619,6.93599 19.13086,7.36132 2.72933,0.35734 5.77797,0.60504 9.05664,0.73438 11.52266,0.45733 25.47809,-0.47061 26.60742,-1.47461 1.24667,-1.11733 2.31736,-12.11763 2.83203,-17.4043 0.26267,-2.70399 0.49113,-5.03931 0.70313,-6.41797 0.25466,-1.64266 1.5163,-5.27598 3.26562,-10.30664 0.36193,-1.04171 0.77803,-2.30383 1.16602,-3.4414 -0.45215,-1.69768 -0.57435,-3.15803 -0.13867,-4.2168 -0.93404,-1.73033 -1.19164,-3.4551 -3.63672,-6.22266 -2.81027,-3.18091 -6.03706,-4.4827 -10.12109,-5.63867 -3.21068,-0.90876 -6.46593,-1.44922 -9.80274,-1.44922 -3.61488,0 -7.47371,0.1135 -11.05273,0.6211 -5.44569,0.77234 -10.12276,2.30995 -14.91797,5.0039 -5.91969,3.3257 -11.76198,9.16539 -17.51172,10.13672 -8.01756,1.35446 -20.31658,-3.75114 -28.88477,-10.53125 -9.51104,-7.52615 -15.25562,-18.05659 -19.90234,-29.25976 -1.09174,-2.496 -1.68438,-5.1623 -2.29492,-7.79883 0,0 -1.56104,-6.13761 -3.56836,-11.31641 z"
       sodipodi:nodetypes="cccccccccccccsssssssccc" /></g></svg>
