<?xml version="1.0" encoding="UTF-8" standalone="no"?>
<!-- Created with Inkscape (http://www.inkscape.org/) -->

<svg
   width="400"
   height="400"
   viewBox="0 0 400 400"
   version="1.1"
   id="svg3402"
   xml:space="preserve"
   inkscape:version="1.2.2 (b0a8486, 2022-12-01)"
   sodipodi:docname="generalChangMoustache.svg"
   xmlns:inkscape="http://www.inkscape.org/namespaces/inkscape"
   xmlns:sodipodi="http://sodipodi.sourceforge.net/DTD/sodipodi-0.dtd"
   xmlns="http://www.w3.org/2000/svg"
   xmlns:svg="http://www.w3.org/2000/svg"><sodipodi:namedview
     id="namedview3404"
     pagecolor="#ffffff"
     bordercolor="#666666"
     borderopacity="1.0"
     inkscape:showpageshadow="2"
     inkscape:pageopacity="0.0"
     inkscape:pagecheckerboard="0"
     inkscape:deskcolor="#d1d1d1"
     inkscape:document-units="px"
     showgrid="false"
     inkscape:zoom="1.475"
     inkscape:cx="199.66102"
     inkscape:cy="200"
     inkscape:window-width="1440"
     inkscape:window-height="810"
     inkscape:window-x="2674"
     inkscape:window-y="406"
     inkscape:window-maximized="0"
     inkscape:current-layer="svg3402" /><defs
     id="defs3399" /><g
     inkscape:groupmode="layer"
     id="layer3"
     inkscape:label="Moustache"><path
       style="fill:#383838;fill-opacity:1;stroke:none;stroke-width:1px;stroke-linecap:butt;stroke-linejoin:miter;stroke-opacity:1"
       d="m 289.61115,181.38786 -5.56995,1.02172 -5.15349,3.955 -2.87637,4.9138 -0.35954,6.35197 1.55803,4.79395 3.01076,2.8207 c 0,0 2.60318,0.90838 3.55307,1.06409 0.9499,0.15572 2.06527,0.0702 2.06527,0.0702 l -2.03743,-3.11606 -0.83894,-5.63289 1.31834,-3.83515 4.1947,-3.95501 5.415,-0.94424 c 0,0 -2.31736,-0.77298 -2.41879,-1.57258 -0.10143,-0.7996 1.74207,-1.35343 1.74207,-1.35343 0,0 -1.71666,-0.34892 -1.98176,-0.80384 -0.2651,-0.45492 0.67069,-1.2687 0.67069,-1.2687 0,0 -1.78075,-0.46399 -2.20816,-0.90312 -0.42742,-0.43912 -0.0835,-1.60642 -0.0835,-1.60642 z"
       id="path4686"
       sodipodi:nodetypes="ccccccczcccccczczczc" /><path
       id="path4663"
       style="color:#000000;fill:#000000;-inkscape-stroke:none"
       d="m 284.71484,184.23047 c -1.45181,0.75501 -3.16142,1.77091 -4.21875,2.88476 -2.07746,2.18852 -2.48248,4.35945 -2.85547,6.34766 -0.38347,2.04412 0.004,3.80756 0.42188,5.57813 0.23257,0.98519 0.97832,2.82985 1.91264,4.31062 0.93433,1.48078 2.74058,2.65466 2.74058,2.65466 0,0 -1.38995,-1.45339 -2.31675,-2.92223 -0.92679,-1.46884 -1.66536,-3.37556 -1.85014,-4.15829 -0.41685,-1.76529 -0.78063,-3.43596 -0.41797,-5.36914 0.37315,-1.98909 0.7412,-4.00215 2.72851,-6.0957 0.97506,-1.02719 2.65602,-2.04349 4.08594,-2.78711 1.42992,-0.74363 4.66899,-1.99343 4.66899,-1.99343 0,0 -3.44765,0.79506 -4.89946,1.55007 z m -0.65625,-2.04688 c -2.23859,1.11753 -5.25042,3.50108 -6.76953,5.90821 -1.50218,2.3803 -2.04029,5.04892 -2.0957,7.49218 -0.0554,2.44439 0.40115,4.64568 2.00195,7.30469 1.668,2.77064 4.74903,2.85547 4.74903,2.85547 0,0 -2.59415,-0.82694 -4.06348,-3.26758 -1.53653,-2.55224 -1.94167,-4.53711 -1.88867,-6.875 0.053,-2.33901 0.56868,-4.85734 1.97265,-7.08203 1.38705,-2.19787 4.3692,-4.57979 6.45118,-5.61914 2.01832,-1.00757 5.41503,-1.54395 5.41503,-1.54395 0,0 -3.4702,-0.32221 -5.77246,0.82715 z m 3.25782,3.41993 c -1.97145,1.2499 -3.88328,2.46586 -4.7271,3.48881 -1.56739,1.90013 -2.23324,2.99763 -2.70072,4.64808 -0.48361,1.70741 -0.30139,3.90182 -0.13664,5.60529 0.0895,0.92574 0.67629,2.33659 1.23828,3.5586 0.56199,1.222 2.22308,3.13297 2.22308,3.13297 0,0 -1.21322,-2.13564 -1.768,-3.34196 -0.55477,-1.20631 -1.12443,-2.64342 -1.19726,-3.39648 -0.15999,-1.65413 -0.32588,-3.84394 0.12101,-5.4217 0.46302,-1.63473 1.04703,-2.57772 2.60501,-4.46644 0.71887,-0.87147 2.65,-2.14271 4.60991,-3.3853 1.95991,-1.24259 4.08193,-2.10627 4.08193,-2.10627 0,0 -2.37805,0.43449 -4.3495,1.6844 z m 2.40625,1.0996 c -1.55962,0.77284 -3.52038,2.09906 -4.47665,2.96307 -1.8452,1.6672 -2.86234,3.14031 -3.61515,5.16193 -0.75515,2.02789 -0.93888,4.19446 -0.5696,5.99859 0.19691,0.96201 0.8815,2.48034 1.63405,3.56196 0.75256,1.08163 1.65332,1.78516 1.65332,1.78516 0,0 -0.50334,-1.00698 -1.24316,-2.07031 -0.73983,-1.06334 -1.39605,-2.60485 -1.55398,-3.37642 -0.3404,-1.66304 -0.17645,-3.77925 0.54812,-5.72515 0.72695,-1.95216 1.69229,-3.3473 3.48234,-4.96467 0.86136,-0.77826 2.81807,-2.12115 4.36336,-2.88689 1.5453,-0.76574 3.12615,-1.19709 3.12615,-1.19709 0,0 -1.78919,-0.023 -3.3488,0.74982 z m -0.20907,2.52514 c -1.8757,0.61165 -3.8813,2.12803 -5.08976,3.75416 -2.29983,3.0947 -1.79024,5.51913 -1.6836,7.42774 0.11668,2.08821 1.20251,3.63123 1.64844,4.51562 0.51759,1.02649 2.02236,1.88405 2.02236,1.88405 0,0 -0.99455,-1.20528 -1.42736,-2.06365 -0.50447,-1.00048 -1.34215,-2.54522 -1.44461,-4.37899 -0.11249,-2.01339 -0.62509,-4.01183 1.52735,-6.90821 1.01767,-1.3694 2.89018,-2.88234 4.69523,-3.47096 1.80505,-0.58861 4.65755,-1.0253 4.65755,-1.0253 0,0 -3.0299,-0.34612 -4.9056,0.26554 z" /><path
       style="fill:#383838;fill-opacity:1;stroke:none;stroke-width:0.865336px;stroke-linecap:butt;stroke-linejoin:miter;stroke-opacity:1"
       d="m 329.21299,180.70989 4.17081,1.02172 3.85897,3.955 2.15384,4.9138 0.26923,6.35197 -1.16666,4.79395 -2.25448,2.8207 c 0,0 -1.94928,0.90838 -2.66056,1.06409 -0.71129,0.15572 -1.54649,0.0702 -1.54649,0.0702 l 1.52564,-3.11606 0.6282,-5.63289 -0.98718,-3.83515 -3.14102,-3.95501 -4.05478,-0.94424 c 0,0 1.73525,-0.77298 1.8112,-1.57258 0.076,-0.7996 -1.30447,-1.35343 -1.30447,-1.35343 0,0 1.28544,-0.34892 1.48395,-0.80384 0.19852,-0.45492 -0.50221,-1.2687 -0.50221,-1.2687 0,0 1.33343,-0.46399 1.65348,-0.90312 0.32005,-0.43912 0.0625,-1.60642 0.0625,-1.60642 z"
       id="path6164"
       sodipodi:nodetypes="ccccccczcccccczczczc" /><path
       id="path6166"
       style="color:#000000;fill:#000000;stroke-width:0.865336;-inkscape-stroke:none"
       d="m 332.87937,183.5525 c 1.08713,0.75501 2.36729,1.77091 3.15903,2.88476 1.55562,2.18852 1.8589,4.35945 2.13819,6.34766 0.28716,2.04412 -0.003,3.80756 -0.3159,5.57813 -0.17414,0.98519 -0.73257,2.82985 -1.4322,4.31062 -0.69962,1.48078 -2.05216,2.65466 -2.05216,2.65466 0,0 1.04081,-1.45339 1.7348,-2.92223 0.69399,-1.46884 1.24703,-3.37556 1.3854,-4.15829 0.31213,-1.76529 0.58454,-3.43596 0.31297,-5.36914 -0.27941,-1.98909 -0.55501,-4.00215 -2.04313,-6.0957 -0.73012,-1.02719 -1.98883,-2.04349 -3.05957,-2.78711 -1.07074,-0.74363 -3.49617,-1.99343 -3.49617,-1.99343 0,0 2.58162,0.79506 3.66874,1.55007 z m 0.49141,-2.04688 c 1.67628,1.11753 3.93155,3.50108 5.06906,5.90821 1.12485,2.3803 1.52779,5.04892 1.56928,7.49218 0.0415,2.44439 -0.30038,4.64568 -1.49907,7.30469 -1.24901,2.77064 -3.55611,2.85547 -3.55611,2.85547 0,0 1.94252,-0.82694 3.04276,-3.26758 1.15056,-2.55224 1.45394,-4.53711 1.41426,-6.875 -0.0397,-2.33901 -0.42584,-4.85734 -1.47714,-7.08203 -1.03863,-2.19787 -3.27168,-4.57979 -4.83069,-5.61914 -1.51133,-1.00757 -4.05481,-1.54395 -4.05481,-1.54395 0,0 2.59851,-0.32221 4.32246,0.82715 z m -2.43947,3.41993 c 1.47623,1.2499 2.90782,2.46586 3.53968,3.48881 1.17367,1.90013 1.67226,2.99763 2.02231,4.64808 0.36213,1.70741 0.22569,3.90182 0.10232,5.60529 -0.067,0.92574 -0.5064,2.33659 -0.92723,3.5586 -0.42083,1.222 -1.66466,3.13297 -1.66466,3.13297 0,0 0.90847,-2.13564 1.32389,-3.34196 0.41542,-1.20631 0.84198,-2.64342 0.89651,-3.39648 0.11981,-1.65413 0.24403,-3.84394 -0.0906,-5.4217 -0.34671,-1.63473 -0.78402,-2.57772 -1.95065,-4.46644 -0.53829,-0.87147 -1.98433,-2.14271 -3.45193,-3.3853 -1.46759,-1.24259 -3.05658,-2.10627 -3.05658,-2.10627 0,0 1.78071,0.43449 3.25695,1.6844 z m -1.80182,1.0996 c 1.16785,0.77284 2.63608,2.09906 3.35215,2.96307 1.38169,1.6672 2.14334,3.14031 2.70704,5.16193 0.56546,2.02789 0.70304,4.19446 0.42652,5.99859 -0.14744,0.96201 -0.66007,2.48034 -1.22358,3.56196 -0.56353,1.08163 -1.23802,1.78516 -1.23802,1.78516 0,0 0.3769,-1.00698 0.93088,-2.07031 0.55399,-1.06334 1.04538,-2.60485 1.16364,-3.37642 0.25488,-1.66304 0.13212,-3.77925 -0.41044,-5.72515 -0.54435,-1.95216 -1.2672,-3.3473 -2.60761,-4.96467 -0.64499,-0.77826 -2.11018,-2.12115 -3.2673,-2.88689 -1.15713,-0.76574 -2.34088,-1.19709 -2.34088,-1.19709 0,0 1.33975,-0.023 2.5076,0.74982 z m 0.15655,2.52514 c 1.40454,0.61165 2.90634,2.12803 3.81125,3.75416 1.72212,3.0947 1.34054,5.51913 1.26069,7.42774 -0.0874,2.08821 -0.90045,3.63123 -1.23437,4.51562 -0.38757,1.02649 -1.51435,1.88405 -1.51435,1.88405 0,0 0.74473,-1.20528 1.06882,-2.06365 0.37775,-1.00048 1.005,-2.54522 1.08173,-4.37899 0.0843,-2.01339 0.46807,-4.01183 -1.14369,-6.90821 -0.76204,-1.3694 -2.16418,-2.88234 -3.51582,-3.47096 -1.35163,-0.58861 -3.4876,-1.0253 -3.4876,-1.0253 0,0 2.26881,-0.34612 3.67334,0.26554 z" /></g></svg>
