<?xml version="1.0" encoding="UTF-8" standalone="no"?>
<!-- Created with Inkscape (http://www.inkscape.org/) -->

<svg
   version="1.1"
   id="svg4265"
   width="400"
   height="400"
   viewBox="0 0 400 400"
   sodipodi:docname="KlingonBeard2.svg"
   inkscape:version="1.2.2 (b0a8486, 2022-12-01)"
   xmlns:inkscape="http://www.inkscape.org/namespaces/inkscape"
   xmlns:sodipodi="http://sodipodi.sourceforge.net/DTD/sodipodi-0.dtd"
   xmlns="http://www.w3.org/2000/svg"
   xmlns:svg="http://www.w3.org/2000/svg">
  <defs
     id="defs4269" />
  <sodipodi:namedview
     id="namedview4267"
     pagecolor="#ffffff"
     bordercolor="#666666"
     borderopacity="1.0"
     inkscape:showpageshadow="2"
     inkscape:pageopacity="0.0"
     inkscape:pagecheckerboard="0"
     inkscape:deskcolor="#d1d1d1"
     showgrid="false"
     inkscape:zoom="2.15"
     inkscape:cx="160.23256"
     inkscape:cy="209.30233"
     inkscape:window-width="1920"
     inkscape:window-height="1080"
     inkscape:window-x="2367"
     inkscape:window-y="207"
     inkscape:window-maximized="0"
     inkscape:current-layer="layer1">
    <inkscape:page
       x="0"
       y="0"
       id="page4271"
       width="400"
       height="400" />
  </sodipodi:namedview>
  <g
     id="g4273"
     inkscape:groupmode="layer"
     inkscape:label="Beard">
    <path
       d="m 319.51893,249.28454 c -0.16934,-0.30267 -0.34934,-0.588 -0.52667,-0.86934 -0.22667,-0.35866 -0.456,-0.72 -0.652,-1.11466 l -0.44267,-0.896 -0.896,0.44133 c -0.28533,0.14133 -0.64933,0.384 -1.048,0.65733 -0.54266,0.36934 -1.448,0.988 -1.872,0.988 10e-4,0.001 10e-4,0.003 10e-4,0.003 -10e-4,0 -0.056,-0.0667 -0.116,-0.25733 l -0.33734,-1.104 -1.04533,0.492 c -0.43467,0.20666 -0.93867,0.46 -1.44,0.72666 -0.47067,-0.71333 -1.06667,-1.33333 -1.71467,-1.76933 l -0.58133,-0.392 -0.56667,0.412 c -0.81733,0.596 -1.84133,1.27867 -2.50666,1.27867 h -10e-4 c -0.17333,0 -0.69466,-0.005 -1.23733,-1.51467 l -0.236,-0.656 -0.69733,-0.005 c -1.09734,0 -1.87467,0.51733 -2.49867,0.93333 -0.19333,0.128 -0.388,0.25867 -0.59467,0.37467 -0.164,0.0907 -0.28266,0.108 -0.44133,0.108 -0.104,0 -0.20533,-0.007 -0.31067,-0.0133 -0.156,-0.0107 -0.31733,-0.02 -0.48666,-0.02 -0.12134,0 -0.24667,0.004 -0.37734,0.016 -0.38,0.036 -0.67333,0.18934 -0.86666,0.292 -0.052,0.0267 -0.10134,0.0587 -0.156,0.076 -0.0147,-0.003 -0.0547,-0.0133 -0.10267,-0.028 -0.28533,-0.524 -0.71867,-0.94266 -1.11067,-1.32133 -0.17866,-0.172 -0.35466,-0.33733 -0.49066,-0.504 -0.16934,-0.204 -0.32267,-0.424 -0.47867,-0.644 -0.38667,-0.54667 -0.82533,-1.16533 -1.476,-1.632 l -0.90933,-0.652 -0.41734,0.74533 c -0.888,-1.2 -2.356,-3.26133 -3.1,-4.308 -0.43333,-0.60666 -0.76,-1.06533 -0.87866,-1.228 -0.95067,-1.292 -1.64267,-2.73333 -2.37467,-4.25866 -0.34267,-0.716 -0.69333,-1.44667 -1.076,-2.168 l 0.0267,-0.17334 c 0.30133,-1.98133 -0.44667,-3.592 -1.17067,-5.14933 -0.45067,-0.972 -0.88533,-1.908 -1.05333,-2.91333 l 1.28666,1.05866 0.16134,-1.91333 c 0.108,-1.572 -0.0547,-3.01067 -0.21067,-4.40133 -0.096,-0.84667 -0.188,-1.664 -0.22,-2.492 0.005,0.003 1.59067,1.00933 1.59067,1.00933 l -0.04,-1.86667 c -0.008,-0.34266 -0.18934,-2.51733 -0.34667,-4.25466 -0.0827,-0.896 -0.148,-1.62 -0.208,-2.20267 0.009,0.004 0.0173,0.008 0.0253,0.0107 0.85867,0.38933 1.74534,0.79066 2.52267,0.79066 0.44667,0 0.776,-0.128 1.01467,-0.292 0.0813,0.10534 0.16666,0.21334 0.25466,0.32534 0.28267,0.36133 0.54267,0.68933 0.69067,0.92266 l 0.536,0.848 0.46933,-0.3 c 1.24134,1.82667 2.784,2.664 4.28134,3.476 0.91866,0.49867 1.86933,1.01467 2.792,1.77734 0.288,0.24 0.61333,0.56933 0.968,0.924 1.24,1.24533 2.78266,2.79466 4.572,2.79466 v 0 c 0.144,0 0.28666,-0.0107 0.42933,-0.0307 1.356,-0.19734 2.312,-1.23067 3.068,-2.216 0.21733,-0.28267 0.42933,-0.57734 0.63867,-0.868 0.25066,-0.35067 0.49466,-0.69067 0.732,-0.98267 0.26533,0.268 0.51733,0.59333 0.77866,0.92933 l 1.82134,2.28667 0.24933,-2.432 c 0.008,-0.08 0.048,-0.19467 0.096,-0.32133 0.53867,0.068 1.05067,0.25066 1.50133,0.53866 l 1.20934,0.772 c 0,0 0.31333,-1.43066 0.31733,-1.44533 0.0947,0.176 0.18933,0.36267 0.28,0.55733 l 0.56,1.184 0.99467,-0.852 c 0.376,-0.32133 0.69066,-0.604 0.94666,-0.85733 l 0.916,0.97867 0.66534,-1.264 c 0.036,-0.072 0.0827,-0.14667 0.136,-0.22667 0.432,0.848 0.948,1.58133 1.45466,2.3 0.31867,0.45067 0.644,0.91333 0.96,1.41867 l 0.396,0.63466 0.72,-0.20133 c 0.98667,-0.27467 1.664,-0.87867 2.156,-1.556 l 0.484,1.20933 1.048,-0.816 c 1.19867,-0.93333 1.80534,-2.32 2.392,-3.65866 0.42534,-0.97334 0.828,-1.892 1.41467,-2.54667 0.0813,-0.0907 0.26933,-0.268 0.52,-0.508 1.58933,-1.52267 2.79733,-2.78667 3.47066,-3.84533 0.296,0.4 0.51467,0.816 0.58667,1.23333 l 0.27467,1.63067 1.30266,-0.992 c 0.1,0.15333 0.20267,0.296 0.3,0.432 0.11867,0.16666 0.23867,0.332 0.34534,0.51333 l 0.328,0.56 0.64533,-0.0733 c 0.91333,0.44266 2.04533,5.84266 2.472,7.87466 0.308,1.47067 0.532,2.532 0.75867,3.108 0.99466,2.52534 1.004,2.88534 0.14266,5.50267 -0.63866,1.936 -1.576,4.84667 -2.352,7.744 -0.16133,0.604 -0.308,1.208 -0.45466,1.812 -0.348,1.436 -0.684,2.824 -1.20934,4.13733 l -0.0147,-0.112 -1.09467,0.28134 c -2.31867,0.59466 -4.57333,2.42666 -6.56266,4.04266 -0.12534,0.10267 -0.25067,0.204 -0.37334,0.304 l -0.0493,-0.124 -0.85333,0.21334 c -1.34267,0.33333 -2.63867,1.14533 -3.668,1.952 l -0.36134,-0.79734 -0.96533,0.58934 c -0.496,0.304 -1.03867,0.56666 -1.58,0.832 -0.62533,0.304 -1.26133,0.616 -1.85333,0.988"
       style="fill:#383838;fill-opacity:1;fill-rule:nonzero;stroke:none;stroke-width:1.33333"
       id="path29349" />
    <path
       d="m 327.84253,237.50414 c 0.076,-1.02 0.3,-2.18534 0.51066,-3.232 0.412,-2.04 0.64134,-4.24 0.84267,-6.31067 0.28667,-2.944 0.10533,-5.288 -1.76533,-7.70933 -0.06,1.424 -0.888,2.83066 -1.132,4.19733 -0.372,-1.336 -1.344,-2.31067 -2.02134,-3.476 0.416,1.1 0.49067,2.36933 0.49067,3.624 0,1.95733 0.14267,5.028 -0.99733,6.61333 -0.124,-1.84666 -0.62,-3.52933 -1.05067,-5.336 -0.184,-0.772 -0.31333,-1.492 -0.5,-2.288 -0.332,-1.424 -1.72,-2.64266 -1.956,-3.96666 -0.29333,1.70133 -0.73467,3.16 -1.40533,4.924 -0.22267,-0.80934 -0.248,-1.69467 -0.70267,-2.48 -0.51733,-0.892 -1.31067,-1.80134 -1.936,-2.612 -0.372,0.38266 -0.75467,0.74666 -1.224,0.964 -0.188,-0.27334 -0.42667,-0.50934 -0.61067,-0.78934 -0.70666,0.57734 -1.036,1.61734 -1.91066,2.00934 -0.26,-0.67334 -0.35067,-1.36 -0.75867,-2.00934 -0.32933,0.292 -0.47867,0.7 -0.87867,0.89334 0.272,-1.428 0.12534,-2.94534 0.27867,-4.38534 0.009,-0.08 0.0493,-0.19333 0.096,-0.31733 0.54,0.0667 1.05067,0.24933 1.50267,0.53867 l 1.208,0.77066 c 0,0 0.31333,-1.43066 0.31733,-1.44533 0.096,0.176 0.18933,0.36267 0.28133,0.55733 l 0.56,1.184 0.99467,-0.85066 c 0.37467,-0.32267 0.68933,-0.60534 0.94667,-0.85867 l 0.91466,0.97867 0.66534,-1.26267 c 0.036,-0.0733 0.0827,-0.148 0.136,-0.22667 0.432,0.84667 0.94933,1.58 1.456,2.29867 0.31733,0.45067 0.644,0.91333 0.95866,1.41867 l 0.39734,0.63466 0.72,-0.2 c 0.98533,-0.276 1.66266,-0.88 2.15466,-1.55733 l 0.484,1.20933 1.048,-0.816 c 1.19867,-0.93333 1.80534,-2.31866 2.392,-3.65866 0.42534,-0.97334 0.828,-1.892 1.41467,-2.54667 0.0813,-0.0907 0.26933,-0.268 0.52,-0.508 1.58933,-1.52267 2.79733,-2.78667 3.47066,-3.84533 0.296,0.4 0.516,0.816 0.58667,1.23333 l 0.27467,1.63067 1.304,-0.992 c 0.1,0.15333 0.20133,0.296 0.29866,0.43333 0.11867,0.16533 0.23867,0.33067 0.34534,0.512 l 0.32933,0.56 c -0.072,-0.14267 0.83867,0.128 0.912,0.184 0.52533,0.396 0.528,1.33333 0.57733,1.90533 0.13734,1.60934 0.51067,3.17334 0.73867,4.78534 0.176,1.24666 0.54133,4.28133 -0.30533,5.18 -0.404,-0.52 -0.74534,-1.292 -0.94134,-1.92 -0.43733,0.324 -0.176,1.98933 -0.17866,2.61866 -0.004,0.96134 -0.19867,1.836 -0.308,2.77334 -0.28134,2.39733 -1.00267,4.75066 -1.03734,7.22666 -0.33866,-1.052 -0.08,-2.83866 -0.08,-3.968 v -5.04666 c 0,-1.424 -0.13333,-2.60534 -0.56,-3.952 -0.46666,-1.47734 -0.68,-3.348 -1.59066,-4.62267 0.288,1.24533 0.42,2.24933 0.42,3.55333 0,1.53734 0.168,3.24134 -0.0933,4.76934 -0.23466,1.368 -0.81466,2.69733 -0.948,4.08133 -0.24799,-0.86267 -0.076,-2.168 -0.0787,-3.096 -0.005,-2.08933 -0.52533,-4.076 -1.01333,-6.07067 -0.43467,-1.776 -1.312,-2.77066 -2.12267,-4.37866 -0.19867,3.02 1.00667,5.98266 0.99867,8.964 -0.003,1.52666 -0.144,2.83333 -0.488,4.296 -0.48534,2.052 -0.828,4.448 -1.60667,6.44533 -0.376,0.96667 -0.972,1.80533 -1.34533,2.76667"
       style="opacity:0.100006;fill:#ffffff;fill-opacity:1;fill-rule:nonzero;stroke:none;stroke-width:1.33333"
       id="path29359" />
    <path
       d="m 294.86439,213.48947 c 0.93734,1.008 1.06667,2.13067 2.41334,2.84667 1.99466,1.06133 3.43733,2.67466 5.79466,3.072 1.212,0.204 2.456,-0.504 3.16267,-1.45067 -1.076,1.37867 -2.31467,2.57467 -3.44533,4.00533 -0.67867,0.856 -1.46534,1.67734 -2.004,2.636 -0.332,0.59334 -0.52667,1.432 -1.04934,1.81067 -0.62266,-1.44133 1.11467,-3.56667 0.316,-4.984 -0.62133,0.27333 -1.09866,0.76267 -1.73333,1.052 -0.032,-0.61333 0.23733,-1.69733 -0.404,-1.96133 -0.49067,-0.20134 -1.79067,0.552 -2.16933,0.85333 0.0187,-0.78667 0.24533,-2.04 0.012,-2.79067 -0.22267,-0.72 -1.03867,-1.212 -1.24134,-2.02666 -1.43466,-0.0533 -3.16,1.108 -3.96933,2.252 -0.52933,0.748 -0.78533,1.78666 -1.53467,2.37333 -0.0107,-2.20667 2.75067,-3.6 2.40534,-6.076 -0.21334,0.16 -0.672,0.26533 -0.85734,0.40133 0.108,-0.08 -0.003,-2.74266 0.33734,-3.272 1.48133,-0.11066 2.92266,0.136 3.96666,1.25867"
       style="opacity:0.100006;fill:#ffffff;fill-opacity:1;fill-rule:nonzero;stroke:none;stroke-width:1.33333"
       id="path29375" />
    <path
       d="m 319.51893,249.28454 c -0.16934,-0.30267 -0.34934,-0.588 -0.52667,-0.86934 -0.22667,-0.35866 -0.456,-0.72 -0.652,-1.11466 l -0.44267,-0.896 -0.896,0.44133 c -0.28533,0.14133 -0.64933,0.384 -1.048,0.65733 -0.54266,0.36934 -1.448,0.988 -1.87066,0.99067 -10e-4,0 -0.056,-0.0667 -0.116,-0.25733 l -0.33734,-1.104 -1.04533,0.492 c -0.43467,0.20666 -0.93867,0.46 -1.44,0.72666 -0.47067,-0.71333 -1.06667,-1.33333 -1.71467,-1.76933 l -0.58133,-0.392 -0.56667,0.412 c -0.81733,0.596 -1.84133,1.27867 -2.508,1.27867 -0.17333,0 -0.69466,-0.005 -1.23733,-1.51467 l -0.236,-0.656 -0.69733,-0.005 c -1.09734,0 -1.87467,0.51733 -2.49867,0.93333 -0.19333,0.128 -0.388,0.25867 -0.59467,0.37467 -0.164,0.0907 -0.28266,0.108 -0.44133,0.108 -0.104,0 -0.20533,-0.007 -0.31067,-0.0133 -0.156,-0.0107 -0.31733,-0.02 -0.48666,-0.02 -0.12134,0 -0.24667,0.004 -0.37734,0.016 -0.38,0.036 -0.67333,0.18934 -0.86666,0.292 -0.052,0.0267 -0.10134,0.0587 -0.156,0.076 -0.0147,-0.003 -0.0547,-0.0133 -0.10267,-0.028 -0.28533,-0.524 -0.71867,-0.94266 -1.11067,-1.32133 -0.17866,-0.172 -0.35466,-0.33733 -0.49066,-0.504 -0.16934,-0.204 -0.32267,-0.424 -0.47867,-0.644 -0.38667,-0.54667 -0.82533,-1.16533 -1.476,-1.632 l -0.90933,-0.652 -0.41734,0.74533 c -0.888,-1.2 -2.356,-3.26133 -3.1,-4.308 -0.43333,-0.60666 -0.76,-1.06533 -0.87866,-1.228 -0.95067,-1.292 -1.64267,-2.73333 -2.37467,-4.25866 -0.34267,-0.716 -0.69333,-1.44667 -1.076,-2.168 l 0.0267,-0.17334 c 0.30133,-1.98133 -0.44667,-3.592 -1.17067,-5.14933 -0.45067,-0.972 -0.88533,-1.908 -1.05333,-2.91333 l 1.28666,1.05866 0.16134,-1.91333 c 0.108,-1.572 -0.0547,-3.01067 -0.21067,-4.40133 -0.096,-0.84667 -0.188,-1.664 -0.22,-2.492 0.005,0.003 1.59067,1.00933 1.59067,1.00933 l -0.04,-1.86667 c -0.008,-0.34266 -0.18934,-2.51733 -0.34667,-4.25466 -0.0827,-0.896 -0.148,-1.62 -0.18267,-2.192 0.85867,0.38933 1.74534,0.79066 2.52267,0.79066 0.44667,0 0.776,-0.128 1.01467,-0.292 0.0813,0.10534 0.16666,0.21334 0.25466,0.32534 0.28267,0.36133 0.54267,0.68933 0.69067,0.92266 l 0.536,0.848 c 0,0 0.46933,-0.3 0.46933,-0.29866 0.72667,1.068 1.54667,1.21733 2.51334,1.964 0.73333,0.56666 1.14533,1.22666 1.95066,1.676 0.89867,0.50133 1.79734,0.94 2.60934,1.612 0.288,0.24 0.61333,0.56933 0.968,0.924 1.24,1.24533 2.78266,2.79466 4.572,2.79466 0.144,0 0.28666,-0.0107 0.42933,-0.0307 1.07067,-0.156 1.78,-0.836 2.44267,-1.632 0.59066,-0.71067 1.064,-1.828 1.96133,-2.19467 0.244,0.31733 0.34933,0.484 0.532,0.82 0.10533,0.19333 0.21867,0.38 0.32667,0.55867 0.216,0.36 0.41333,0.688 0.68933,0.97066 1.488,1.524 1.51733,3.01334 1.01733,5.04 -0.55466,2.24667 -0.772,4.54667 -0.96933,6.924 -0.003,-2.452 0.096,-4.76266 -0.69067,-7.10933 -0.28266,0.15333 -0.38,0.49067 -0.49333,0.79333 -0.284,-0.732 -0.83733,-1.53333 -1.088,-2.3 -0.63067,0.684 -0.684,1.608 -0.936,2.53734 -0.50533,1.85466 -0.816,3.75733 -1.264,5.588 -0.42933,-0.872 -0.51467,-1.908 -0.78133,-2.872 -0.16134,-0.584 -0.19467,-1.04934 -0.28134,-1.62534 -0.0787,-0.52133 -0.22533,-1.82133 -0.53866,-2.18266 -0.43467,0.59066 -1.024,1.02133 -1.488,1.58 -0.0933,0.112 -1.18934,1.17733 -1.20534,0.98666 -0.0867,-1.112 -0.192,-2.008 -0.46133,-3.03466 -1.96933,0.66933 -3.27733,3.264 -3.69333,5.04266 -1.47734,-2.21866 0.28266,-5.49466 0.532,-7.67733 -2.18267,-0.12267 -5.59734,-0.08 -6.92934,1.972 0.31467,-0.316 0.592,-0.90133 0.72134,-1.328 -0.052,1.008 -1.00934,2.23333 -1.26,3.292 -0.23067,0.972 -0.252,1.90533 -0.0947,2.88667 0.53467,-0.0773 1.55467,-1.66667 1.672,-2.27467 -0.29467,1.81467 -0.65467,4.56267 0.132,6.27467 0.33733,-1.40267 0.624,-2.73467 0.59867,-4.17334 0.492,1.568 0.86266,3.03467 1.192,4.59867 0.16666,0.79333 0.268,1.988 0.72,2.74667 0.0227,-2.588 1.044,-5.07867 1.6,-7.36534 0.73466,1.56267 0.044,3.972 0.39466,5.7 0.27067,1.33067 0.78934,2.73067 1.08134,4.10534 0.27866,-0.87467 0.23333,-2.288 0.41866,-3.288 0.21067,-1.13467 0.38267,-2.32 0.62267,-3.396 0.328,-1.468 0.848,-2.80534 1.46933,-4.144 0.0333,1.97066 -0.98133,4.176 -1.15733,6.12266 -0.0853,0.93334 -0.0547,1.97334 -0.005,2.91334 0.076,1.42666 0.592,2.79333 0.97466,4.11333 0.26134,0.89867 0.32934,1.744 0.72134,2.56533 0.80533,-1.37066 1.41866,-3.89066 1.764,-5.52 0.24,-1.12933 0.37066,-2.44133 0.42666,-3.588 0.632,2.14534 1.184,4.45867 1.28134,6.69867 0.0253,0.58267 0.024,1.27733 0.204,1.83467 0.49066,-1.264 1.396,-2.27334 1.844,-3.52934 0.34266,-0.96266 0.34666,-2.16933 0.872,-3.012 0.65733,1.86667 0.99066,3.968 1.46533,5.884 0.15333,0.62 0.28267,1.2 0.27067,1.83334 1.22533,-1.05867 2.92533,-2.29867 4.53733,-2.768 -0.0267,0.528 -0.0307,1.06933 -10e-4,1.592 0.72,-0.10134 1.16933,-1.02934 1.78133,-1.36267 0.26,0.548 0.75733,0.91733 0.96533,1.47733 0.808,-0.516 2.528,-2.35066 3.40134,-1.50533 0.35466,0.34133 0.21733,1.30933 0.57866,1.73733 2.99334,-1.576 3.97067,-4.53866 4.796,-7.548 0.71334,-2.60133 1.23467,-5.056 1.1,-7.77333 0.6,3.18667 1.96267,5.78933 1.6,9.14 -0.11333,1.04933 -0.604,2.03067 -0.53333,3.08133 0.76,-2.13333 2.72267,-3.72266 3.82667,-5.668 0.584,0.99867 0.37066,2.288 0.936,3.24 0.38666,-0.27333 0.67466,-0.71333 0.95466,-1.10133 0.232,0.6 0.46934,1.23333 0.63067,1.86667 0.57466,-0.45734 1.05466,-1.12134 1.46133,-1.76267 0.016,0.21867 0.11467,0.41867 0.10933,0.648 1.35467,-2.82133 3.14934,-4.55467 3.812,-7.54267 0.40934,-1.852 0.292,-3.14133 -0.1,-5.05066 -0.62933,-3.07467 -1.00533,-6.19734 -0.85066,-9.37467 1.70266,0.388 2.29333,4.63067 2.56533,5.92933 0.308,1.47067 0.532,2.532 0.75867,3.108 0.99466,2.52534 1.004,2.88534 0.14266,5.50267 -0.63866,1.936 -1.576,4.84667 -2.352,7.744 -0.16133,0.604 -0.308,1.208 -0.45466,1.812 -0.348,1.436 -0.684,2.824 -1.20934,4.13733 l -0.0147,-0.112 -1.09467,0.28134 c -2.31867,0.59466 -4.57333,2.42666 -6.56266,4.04266 -0.12534,0.10267 -0.25067,0.204 -0.37334,0.304 l -0.0493,-0.124 -0.85333,0.21334 c -1.34267,0.33333 -2.63867,1.14533 -3.668,1.952 l -0.36134,-0.79734 -0.96533,0.58934 c -0.496,0.304 -1.03867,0.56666 -1.58,0.832 -0.62533,0.304 -1.26133,0.616 -1.85333,0.988"
       style="opacity:0.199997;fill:#000000;fill-opacity:1;fill-rule:nonzero;stroke:none;stroke-width:1.33333"
       id="path29391" />
    <path
       d="m 319.51893,249.28454 c -0.16934,-0.30267 -0.34934,-0.588 -0.52667,-0.86934 -0.22667,-0.35866 -0.456,-0.72 -0.652,-1.11466 l -0.44267,-0.896 -0.896,0.44133 c -0.28533,0.14133 -0.64933,0.384 -1.048,0.65733 -0.54266,0.36934 -1.448,0.988 -1.87066,0.99067 -10e-4,0 -0.056,-0.0667 -0.116,-0.25733 l -0.33734,-1.104 -1.04533,0.492 c -0.43467,0.20666 -0.93867,0.46 -1.44,0.72666 -0.47067,-0.71333 -1.06667,-1.33333 -1.71467,-1.76933 l -0.58133,-0.392 -0.56667,0.412 c -0.81733,0.596 -1.84133,1.27867 -2.508,1.27867 -0.17333,0 -0.69466,-0.005 -1.23733,-1.51467 l -0.236,-0.656 -0.69733,-0.005 c -1.09734,0 -1.87467,0.51733 -2.49867,0.93333 -0.19333,0.128 -0.388,0.25867 -0.59467,0.37467 -0.164,0.0907 -0.28266,0.108 -0.44133,0.108 -0.104,0 -0.20533,-0.007 -0.31067,-0.0133 -0.156,-0.0107 -0.31733,-0.02 -0.48666,-0.02 -0.12134,0 -0.24667,0.004 -0.37734,0.016 -0.38,0.036 -0.67333,0.18934 -0.86666,0.292 -0.052,0.0267 -0.10134,0.0587 -0.156,0.076 -0.0147,-0.003 -0.0547,-0.0133 -0.10267,-0.028 -0.28533,-0.524 -0.71867,-0.94266 -1.11067,-1.32133 -0.17866,-0.172 -0.35466,-0.33733 -0.49066,-0.504 -0.16934,-0.204 -0.32267,-0.424 -0.47867,-0.644 -0.38667,-0.54667 -0.82533,-1.16533 -1.476,-1.632 l -0.90933,-0.652 -0.41734,0.74533 c -0.888,-1.2 -2.356,-3.26133 -3.1,-4.308 -0.43333,-0.60666 -0.76,-1.06533 -0.87866,-1.228 -0.95067,-1.292 -1.64267,-2.73333 -2.37467,-4.25866 -0.34267,-0.716 -0.69333,-1.44667 -1.076,-2.168 l 0.0267,-0.17334 c 0.30133,-1.98133 -0.44667,-3.592 -1.17067,-5.14933 -0.45067,-0.972 -0.88533,-1.908 -1.05333,-2.91333 l 1.28666,1.05866 0.16134,-1.91333 c 0.108,-1.572 -0.0547,-3.01067 -0.21067,-4.40133 -0.096,-0.84667 -0.188,-1.664 -0.22,-2.492 0.005,0.003 1.59067,1.00933 1.59067,1.00933 l -0.04,-1.86667 c -0.008,-0.34266 -0.18934,-2.51733 -0.34667,-4.25466 -0.0827,-0.896 -0.148,-1.62 -0.18267,-2.192 0.85867,0.38933 1.74534,0.79066 2.52267,0.79066 0.44667,0 0.776,-0.128 1.01467,-0.292 0.0813,0.10534 0.16666,0.21334 0.25466,0.32534 0.28267,0.36133 0.54267,0.68933 0.69067,0.92266 l 0.536,0.848 c 0,0 0.46933,-0.3 0.46933,-0.29866 0.67867,0.99733 1.916,1.59733 2.41067,2.70666 -1.06667,0.356 -2.344,-0.21066 -3.31733,-0.548 -0.0533,-0.056 -0.0653,-0.148 -0.12267,-0.208 -0.19733,0.45067 0.0507,0.89867 0.001,1.38667 -0.056,0.55867 -0.36666,1.172 -0.55333,1.68667 -0.336,0.928 -0.78133,1.832 -1.01467,2.732 1.49467,-0.94134 3.52534,-2.06534 4.708,-3.436 -0.12533,1.23466 -1.67333,2.86 -2.44133,3.82533 -0.53333,0.67067 -1.16933,1.224 -1.63867,1.94533 -0.384,0.59334 -0.46666,1.26667 -0.83466,1.86534 -0.0453,-0.532 0.19066,-1.25067 -0.42134,-1.436 -1.07866,1.724 -1.24933,4.428 -0.12133,6.17333 -0.108,-0.99733 0.716,-1.97467 0.94933,-2.89067 -0.14133,1.08667 0.28267,2.212 0.33467,3.312 0.032,0.692 0.0933,1.43067 0.164,2.12 0.15067,1.47467 0.63733,2.75734 0.86133,4.23334 0.0933,-0.72267 0.472,-1.85067 0.63334,-2.32267 0.6,0.924 0.67866,2.22267 1.03733,3.268 0.27067,0.78933 0.89467,1.724 0.972,2.364 0,-1.14 0.0947,-2.35467 -0.15867,-3.40133 -0.13733,-0.57067 -0.456,-1.13734 -0.48133,-1.75467 0.85867,2.688 1.35733,4.99467 2.93867,7.27867 0.11333,-2.02 0.13066,-4.196 0.22133,-6.14 0.49467,1.37866 1.52133,2.49733 2.02,3.88266 0.45333,1.25734 0.464,2.388 1.052,3.53334 -0.224,-1.09867 1.17333,-2.104 1.612,-3.00134 0.37733,-0.77333 1.044,-2 1.004,-2.836 0.76667,2.51867 1.06267,4.49734 0.95467,7.12667 1.15466,-0.65867 1.56266,-2.416 2.188,-3.49333 0.48266,-0.83067 1.008,-1.68134 1.51333,-2.49067 0.22933,1.87733 0.21467,3.72667 0.21467,5.61733 0,0.62267 -0.32934,2.43867 -0.003,2.932 0.55467,0.83867 5.29067,-3.07733 5.376,-4.516 0.284,1.38267 0.276,2.66 0.33333,4.06667 0.396,-0.56933 1.148,-0.932 1.704,-1.30533 0.04,-0.0267 0.38934,1.18266 0.41067,1.28666 1.244,-0.20533 2.76,-0.0907 3.84,-0.80533 1.28267,-0.84933 2.08133,-2.29067 3.004,-3.48 1.04667,-1.34933 2.39333,-3.116 2.92667,-4.73867 0.328,-0.996 0.38266,-2.21733 0.868,-3.12933 1.79866,3.79733 -1.844,7.864 -1.88,11.53333 0.88533,-1.22533 2.20666,-1.908 2.90266,-3.36666 0.444,-0.932 0.368,-2.044 0.76134,-2.98 0.30666,0.56 0.412,1.61066 0.44266,2.248 0.0227,-0.003 0.26267,-0.004 0.284,0 -0.10533,-0.0187 1.71334,-4.20667 1.808,-4.50134 0.648,1.57867 0.408,3.136 0.0867,4.71067 0.58667,-0.88 1.81733,-1.36 2.33867,-2.14667 0.076,0.49467 0.288,0.93334 0.328,1.428 2.29466,-1.264 4.51199,-4.628 5.29599,-7.25866 0.36,-1.208 0.63334,-2.4 1.15334,-3.492 0.27333,0.31066 0.49466,0.69066 0.73733,1.03466 0.276,0.392 1.37867,-2.78533 1.416,-2.98133 0.21333,-1.124 0.23467,-2.51467 0.992,-3.42933 1.58267,1.04533 0.784,3.30266 0.31333,4.73333 -0.63866,1.936 -1.576,4.84667 -2.352,7.744 -0.16133,0.604 -0.308,1.208 -0.45466,1.812 -0.348,1.436 -0.684,2.824 -1.20934,4.13733 l -0.0147,-0.112 -1.09467,0.28134 c -2.31867,0.59466 -4.57333,2.42666 -6.56266,4.04266 -0.12534,0.10267 -0.25067,0.204 -0.37334,0.304 l -0.0493,-0.124 -0.85333,0.21334 c -1.34267,0.33333 -2.63867,1.14533 -3.668,1.952 l -0.36134,-0.79734 -0.96533,0.58934 c -0.496,0.304 -1.03867,0.56666 -1.58,0.832 -0.62533,0.304 -1.26133,0.616 -1.85333,0.988"
       style="opacity:0.199997;fill:#000000;fill-opacity:1;fill-rule:nonzero;stroke:none;stroke-width:1.33333"
       id="path29407" />
    <path
       d="m 298.93426,246.11307 c 0.56133,0.068 1.52933,-0.42933 1.95467,-0.58133 0.95066,-0.34 1.65466,-0.828 2.72133,-0.828 l 1.396,0.0107 0.472,1.31334 c 0.17333,0.48266 0.324,0.72533 0.40667,0.83466 0.22266,-0.0573 0.72533,-0.28 1.808,-1.068 l 1.13333,-0.82533 1.16133,0.784 c 0.53067,0.356 1.02134,0.804 1.452,1.31867 0.25067,-0.12667 0.49334,-0.24534 0.71734,-0.35067 l 2.10266,-0.94933 0.42134,1.37466 c 0.256,-0.16133 0.52133,-0.34133 0.708,-0.46933 0.40666,-0.27867 0.792,-0.54 1.172,-0.728 l 1.79066,-0.88267 0.88534,1.79067 c 0.18,0.364 0.392,0.69467 0.60133,1.024 0.009,0.0173 0.02,0.0333 0.0307,0.0493 0.35333,-0.18666 0.71066,-0.36133 1.064,-0.532 0.51333,-0.252 1.028,-0.5 1.49733,-0.78666 l 1.89867,-1.24267 0.35333,0.78 c 0.912,-0.60133 1.94667,-1.132 3.024,-1.39867 l 0.924,-0.23066 c 2.06,-1.67334 4.392,-3.56 6.908,-4.20534 l 0.652,-0.17333 c 0.38133,-1.08133 0.65733,-2.22267 0.94266,-3.4 0.148,-0.61067 0.29734,-1.22267 0.46134,-1.83467 0.78133,-2.92133 1.72533,-5.84933 2.36666,-7.79733 0.78534,-2.388 0.78267,-2.524 -0.124,-4.824 -0.24533,-0.624 -0.456,-1.59867 -0.80666,-3.26933 -0.37334,-1.77867 -1.20534,-5.74534 -1.97067,-7.01867 l -0.70133,0.0787 c 0,0 -0.66534,-1.132 -0.66934,-1.14 l -1.78266,1.356 -0.44667,-2.63467 c -0.66266,0.75867 -1.49466,1.59467 -2.48266,2.54267 -0.22,0.21066 -0.38934,0.36933 -0.468,0.45466 -0.48,0.53334 -0.852,1.38134 -1.244,2.27734 -0.60667,1.388 -1.29467,2.96 -2.69334,4.048 l -2.06666,1.56133 -0.41467,-0.97733 c -0.43333,0.32 -0.944,0.584 -1.552,0.75333 l -1.44,0.40133 -0.792,-1.268 c -0.30667,-0.48933 -0.62267,-0.93733 -0.93067,-1.37333 -0.17866,-0.25467 -0.35866,-0.51067 -0.53733,-0.772 l -0.616,1.33333 -1.284,-1.49066 c -0.072,0.0627 -2.20267,1.88666 -2.20267,1.88666 0,0 -0.14133,-0.30133 -0.14266,-0.29333 l -2.416,-1.54267 c -0.052,-0.0333 -0.10267,-0.0627 -0.156,-0.092 l -0.40934,3.99867 -3.3,-4.13733 c -0.204,0.284 -0.40933,0.57066 -0.62266,0.84666 -0.82667,1.07734 -1.99734,2.34534 -3.716,2.59467 -0.19067,0.028 -0.38267,0.0427 -0.57467,0.0427 -2.204,-0.001 -3.98267,-1.78534 -5.28,-3.08934 -0.32933,-0.32933 -0.62933,-0.63733 -0.89733,-0.85866 -0.848,-0.70134 -1.71334,-1.172 -2.63067,-1.66934 -1.32667,-0.72 -2.78533,-1.512 -4.04667,-3.01733 l -0.53733,0.34267 -1.072,-1.69467 c -0.096,-0.152 -0.24667,-0.348 -0.42,-0.568 -0.22133,0.052 -0.45333,0.0787 -0.69467,0.0787 -0.46666,0 -0.93333,-0.1 -1.39466,-0.24934 0.016,0.18 0.0333,0.36667 0.0507,0.56 0.136,1.49467 0.34134,3.90267 0.35067,4.32267 l 0.08,3.73333 -1.468,-0.932 c 0.0173,0.152 0.0347,0.30534 0.0507,0.45867 0.16266,1.43467 0.32933,2.91867 0.216,4.58133 l -0.25867,3.76934 c 0.66267,1.45466 1.304,3.09466 1.04533,5.076 0.332,0.64 0.64,1.28133 0.94267,1.912 0.71067,1.48266 1.38267,2.88266 2.27733,4.09866 0.12134,0.164 0.452,0.628 0.888,1.24134 0.51734,0.72533 1.396,1.96133 2.17467,3.04 l 0.20267,-0.36134 c 0,0 1.81733,1.30267 1.81866,1.30267 1.04,0.74667 1.66534,2.55067 2.90534,2.816 0.196,0.0413 0.44266,-0.0493 0.62533,0.0653 0.24133,0.14934 0.188,0.49867 0.37333,0.62267 0.0653,0.044 0.14534,0.0693 0.23467,0.08 m 7.16933,-29.51733 c 0.71067,-0.924 1.35067,-1.97334 2.05467,-2.588 0.82,0.46133 1.37067,1.28533 1.96267,2.028 0.044,-0.432 0.3,-0.81067 0.36533,-1.24134 1.00933,-0.052 1.96,0.204 2.76667,0.71734 0.15733,-0.71867 0.59466,-1.296 0.64133,-2.03734 0.63733,0.65467 1.14267,1.516 1.53067,2.33734 0.108,-0.092 1.56933,-1.44534 1.49066,-1.54134 0.22134,0.26934 0.61334,0.50667 0.792,0.71334 0.30134,-0.60534 0.924,-1.16534 1.31334,-1.772 0.596,2.09333 1.848,3.36666 2.98133,5.17866 1.37867,-0.384 1.98533,-1.67733 2.49067,-2.84533 0.096,0.69067 0.64133,1.33467 0.85066,1.85733 1.812,-1.41066 2.12934,-4.36 3.676,-6.084 1.136,-1.26666 1.75334,-2.85866 2.868,-4.22933 1.372,-1.68533 3.13733,-0.17467 3.44,1.60933 0.58667,-0.44666 0.552,0.13867 1,-0.66 0.21467,0.79067 0.72267,1.26534 1.09733,1.90534 2.344,-0.264 3.55467,9.784 4.27334,11.608 1.084,2.75333 1.09333,3.35333 0.16266,6.18266 -0.80266,2.436 -1.63866,5.08667 -2.336,7.68934 -0.78666,2.94 -1.212,5.90533 -3,8.532 -0.0173,-0.512 -0.41733,-1.15067 -0.49066,-1.70267 -2.724,0.69867 -5.56933,3.45333 -7.76267,5.10533 -0.0453,-0.216 -10e-4,-0.45466 -0.084,-0.668 -1.456,0.36134 -2.96933,1.42934 -4.14533,2.48534 -0.152,-0.29467 -0.428,-0.54534 -0.56933,-0.85734 -1.41867,0.86667 -3.19467,1.436 -4.34934,2.512 -0.384,-1.15866 -1.14533,-2.00666 -1.68,-3.08666 -1.156,0.568 -3.72,3.108 -4.432,0.78533 -0.668,0.31467 -1.51733,0.75733 -2.25733,1.17467 -0.40667,-0.89467 -1.07733,-1.74934 -1.884,-2.29334 -2.26933,1.652 -4.12133,2.50267 -5.27467,-0.70533 -1.064,-0.008 -1.73733,0.70267 -2.60133,1.18133 -0.73733,0.40934 -1.24267,0.14267 -2.00933,0.21334 -0.34667,0.032 -0.6,0.30266 -0.94,0.35466 -0.30134,0.048 -0.78667,-0.10133 -1.032,-0.24666 -0.24134,-0.756 -1.12934,-1.36 -1.61734,-1.95334 -0.58,-0.70266 -1.012,-1.55866 -1.76666,-2.1 -0.184,0.32934 -0.51867,0.58667 -0.712,0.908 -0.0813,0.13467 -4.31467,-5.88933 -4.816,-6.57066 -1.76534,-2.39867 -2.68534,-5.284 -4.24134,-7.8 0.248,0.15866 0.37867,0.216 0.63334,0.45733 0.52133,-3.42267 -2.76134,-5.796 -2.25467,-9.56 0.30267,0.22667 1.10533,0.39867 1.47067,0.724 0.19466,-2.83733 -0.54934,-5.268 -0.432,-8.04133 0.42933,0.19733 1.08533,0.0853 1.54933,0.38 -0.012,-0.544 -0.648,-7.95867 -0.764,-7.96667 1.38,0.0827 5.21733,3.14667 4.39467,-0.46933 0.17733,0.77866 1.69333,2.43066 2.168,3.18133 0.16266,-0.104 0.33333,-0.19333 0.51066,-0.26933 1.83734,3.43733 4.604,3.55466 7.36,5.83466 1.28134,1.06 3.25467,3.74934 5.18934,3.468 0.95733,-0.14 1.72133,-0.92666 2.41866,-1.83466"
       style="fill:#000000;fill-opacity:1;fill-rule:nonzero;stroke:none;stroke-width:1.33333"
       id="path29425" />
  </g>
  <g
     inkscape:groupmode="layer"
     id="layer1"
     inkscape:label="Moustache">
    <path
       d="m 273.43559,204.34374 c -0.92,-0.62667 -1.78666,-1.34267 -2.51866,-2.184 -0.19467,-0.224 -1.16,-1.88667 -1.324,-1.92934 -1.59067,-0.41866 -1.208,2.60534 -1.212,3.48134 -1.88534,-1.616 -3.21867,-4.10933 -2.63067,-6.396 0.40267,-1.56267 2.436,-3.86267 3.78133,-5.38533 0.29467,-0.33334 0.56667,-0.64134 0.80134,-0.91467 0.13066,-0.15467 0.24133,-0.208 0.5,-0.32667 0.264,-0.12266 0.62666,-0.28933 0.996,-0.632 0.17066,-0.15733 0.38266,-0.31866 0.6,-0.48533 0.78266,-0.59867 1.756,-1.34533 1.824,-2.46933 0.0173,-0.27467 -0.0213,-0.54267 -0.116,-0.80534 0.25066,-0.116 0.52533,-0.23333 0.76266,-0.33466 1.46534,-0.628 2.98134,-1.276 3.11734,-2.58934 0.024,-0.236 0,-0.46666 -0.0733,-0.692 2.384,-0.668 5.572,-1.78133 5.72934,-4.17866 l 0.068,-1.028 c 1.41333,-0.40667 3.32,-0.64534 5.44533,-0.64534 3.03067,0 5.31333,0.46 6.152,0.88934 l 0.30933,0.15733 1.42534,-0.28667 c 0.64533,-0.13333 1.14666,-0.23733 1.46,-0.272 l 0.112,0.52267 0.37733,0.11333 c -0.124,0.77734 -0.15467,1.512 0.0227,2.34134 -0.17734,0.13066 -0.35467,0.264 -0.53067,0.39733 -0.60533,0.45733 -1.176,0.88933 -1.79467,1.216 l -2.64933,1.40133 2.96,0.47067 c 0.276,0.0427 0.544,0.0787 0.808,0.11333 0.41867,0.0547 0.79733,0.104 1.15067,0.18134 -0.0813,0.076 -0.164,0.15466 -0.24667,0.232 -0.232,0.21866 -0.46533,0.44 -0.696,0.672 l -1.572,1.584 1.98933,0.10666 c -1.03333,0.28534 -1.992,0.636 -2.71333,1.052 -0.584,-0.27333 -1.224,-0.41066 -1.91067,-0.41066 -1.33866,0 -2.61466,0.50533 -3.808,1.024 -1.232,0.53733 -2.288,0.85066 -3.51066,1.21333 -0.43867,0.13067 -0.89467,0.26667 -1.38,0.41867 -1.97734,0.61866 -4.21734,1.32 -5.85467,3.13466 -0.42133,0.46667 -0.716,0.964 -0.97467,1.40267 -0.54266,0.916 -0.84266,1.36267 -1.74133,1.516 l -1.03733,0.17867 0.23066,1.02666 c 0.26,1.16534 0.15734,1.23734 -0.22533,1.50534 -0.38933,0.27066 -0.976,0.68133 -1.41733,1.57333 -0.13467,0.272 -0.63734,2.24666 -0.68534,4.04"
       style="fill:#383838;fill-opacity:1;fill-rule:nonzero;stroke:none;stroke-width:1.33333"
       id="path29309" />
    <path
       d="m 273.43559,204.34374 c -0.92,-0.62667 -1.78666,-1.34267 -2.51866,-2.184 -0.19467,-0.224 -1.16,-1.88667 -1.324,-1.92934 -1.59067,-0.41866 -1.208,2.60534 -1.212,3.48134 -1.88534,-1.616 -3.21867,-4.10933 -2.63067,-6.396 0.35733,-1.38933 1.436,-2.62133 2.32667,-3.70267 0.66666,-0.80666 1.31866,-1.97733 2.1,-2.62933 0.072,0.632 -0.27467,1.23733 -0.45867,1.84267 -0.224,0.73866 -0.52267,1.49733 -0.41333,2.31466 0.796,-0.28133 1.84533,-1.69466 2.38933,-2.304 0.0707,0.40534 0.12267,0.77334 0.34267,1.05734 1.532,-1.10534 2.32,-2.70267 3.88266,-3.84267 1.49467,-1.092 3.28934,-1.30133 4.61734,-2.508 -0.21867,0.23733 -0.36,0.59733 -0.47067,0.83733 1.35067,-0.005 3.01067,-0.82133 4.31067,-1.248 0.66533,-0.21866 1.304,-0.43733 1.95066,-0.68 0.62934,-0.236 1.69067,-0.33066 2.152,-0.66933 -0.81466,-0.0533 -1.736,-0.25733 -2.48933,-0.22667 1.24933,-0.57466 4.91733,-1.4 1.58533,-2.21466 1.48,-1.424 4.728,-1.81867 6.66134,-2.32134 1.55333,-0.40533 3.04266,-1.10266 4.568,-1.76 0.41466,0.728 0.36266,0.93734 -0.29067,1.43067 -0.60533,0.45733 -1.176,0.88933 -1.79467,1.216 l -2.64933,1.40133 2.96,0.47067 c 0.276,0.0427 0.544,0.0787 0.808,0.11333 0.41867,0.0547 0.79733,0.104 1.15067,0.18134 -0.0813,0.076 -0.164,0.15466 -0.24667,0.232 -0.232,0.21866 -0.46533,0.44 -0.696,0.672 l -1.572,1.584 1.98933,0.10666 c -1.03333,0.28534 -1.992,0.636 -2.71333,1.052 -0.584,-0.27333 -1.224,-0.41066 -1.91067,-0.41066 -1.33866,0 -2.61466,0.50533 -3.808,1.024 -1.232,0.53733 -2.288,0.85066 -3.51066,1.21333 -0.43867,0.13067 -0.89467,0.26667 -1.38,0.41867 -1.97734,0.61866 -4.21734,1.32 -5.85467,3.13466 -0.42133,0.46667 -0.716,0.964 -0.97467,1.40267 -0.54266,0.916 -0.84266,1.36267 -1.74133,1.516 l -1.03733,0.17867 0.23066,1.02666 c 0.26,1.16534 0.15734,1.23734 -0.22533,1.50534 -0.38933,0.27066 -0.976,0.68133 -1.41733,1.57333 -0.13467,0.272 -0.63734,2.24666 -0.68534,4.04"
       style="opacity:0.199997;fill:#000000;fill-opacity:1;fill-rule:nonzero;stroke:none;stroke-width:1.33333"
       id="path29319" />
    <path
       d="m 339.64079,198.56774 c -0.456,-0.83067 -1.38933,-1.308 -2.06533,-1.92533 -0.83867,-0.76534 -1.53067,-1.68534 -2.22934,-2.576 -1.02266,-1.30534 -2.08133,-2.65467 -3.26799,-3.43467 -1.04134,-0.68267 -2.34667,-1.284 -3.728,-1.92 -1.50934,-0.69467 -3.06,-1.408 -4.11867,-2.184 l 0.40267,-0.48533 -0.91467,-0.61867 c -0.0853,-0.0573 -0.16933,-0.12 -0.252,-0.18667 l 0.89067,-0.17066 -0.83867,-1.25467 c -0.052,-0.48267 -0.25333,-0.78933 -0.58933,-1.05867 0.56133,-0.532 1.97466,-1.42133 3.70666,-2.21066 0.58667,-0.268 0.88534,-0.36934 0.944,-0.384 0.66534,-0.0907 1.45867,-0.13867 2.37334,-0.13867 0.83333,0 1.67066,0.0387 2.50533,0.076 0.452,0.02 0.904,0.04 1.35466,0.0547 -0.0387,0.11066 -0.08,0.21866 -0.14,0.32 l 1.728,1.00666 c -0.076,0.13067 -0.19733,0.19067 -0.24266,0.19867 1.58533,0 6.576,3.47333 7.168,4.24667 0.208,0.28133 0.43333,0.572 0.66533,0.87333 0.54,0.69867 1.11733,1.44533 1.584,2.2 l -1.156,-0.59467 0.33867,1.97467 c 0.12,0.70267 0.40133,1.43867 0.7,2.21733 0.41733,1.08934 0.88133,2.30134 0.68133,3.04934 -0.152,0.009 -0.308,0.028 -0.46533,0.0453 -0.17067,0.02 -0.344,0.044 -0.51067,0.044 -0.0907,0 -0.144,-0.009 -0.17333,-0.016 l -2.42,-0.58267 1.344,2.096 c 0.30533,0.476 0.28666,0.736 0.26533,0.77467 -0.008,0.0133 -0.10667,0.0893 -0.364,0.0893 -0.168,0 -0.44667,-0.0333 -0.82267,-0.192 -0.39466,-0.164 -0.86666,-0.33733 -1.30133,-0.22933 -0.16933,0.0413 -1.14533,0.72533 -1.052,0.896"
       style="fill:#383838;fill-opacity:1;fill-rule:nonzero;stroke:none;stroke-width:1.33333"
       id="path29329" />
    <path
       d="m 339.64079,198.56774 c -0.456,-0.83067 -1.38933,-1.308 -2.06533,-1.92533 -0.83867,-0.76534 -1.53067,-1.68534 -2.22934,-2.576 -1.02266,-1.30534 -2.08133,-2.65467 -3.26799,-3.43467 -1.04134,-0.68267 -2.34667,-1.284 -3.728,-1.92 -1.50934,-0.69467 -3.06,-1.408 -4.11867,-2.184 l 0.40267,-0.48533 -0.91467,-0.61867 c -0.0853,-0.0573 -0.16933,-0.12 -0.252,-0.18667 l 0.89067,-0.17066 c 0,0 -0.836,-1.25067 -0.83867,-1.25467 -0.23067,-0.344 -0.19733,-0.73467 -0.552,-1.05733 1.16133,-1.24534 2.88533,-1.524 4.50533,-1.58667 -0.024,0.58 -0.70666,1.08133 -0.892,1.732 1.15334,0.0293 0.60667,0.54267 0.616,1.09333 0.008,0.46534 -0.32,0.312 0.0613,0.77467 0.272,0.32933 1.004,0.44 1.36666,0.63333 1.136,0.608 2.04134,1.868 3.11334,2.64534 -0.009,-0.57334 -0.003,-1.14667 -0.0107,-1.71867 0.75333,0.976 1.62,1.84667 2.28133,2.81067 0.57333,0.83866 1.11067,2.11733 1.91867,2.73333 0.30133,-1.056 0.296,-2.12933 0.356,-3.22933 0.74133,0.72533 1.48,1.33333 1.992,2.23733 0.29333,0.51867 0.52533,1.37333 1.136,1.51333 0.284,-0.78933 0.0707,-1.69866 -0.18,-2.40133 0.73733,0.46667 1.63466,1.02267 2.22533,1.76933 0.74267,-0.39333 0.71867,-1.304 0.73333,-2.08266 0.001,-0.10134 1.312,0.848 1.416,0.98933 0.40134,0.54267 0.612,1.296 0.85334,1.92533 0.41733,1.08934 0.88133,2.30134 0.68133,3.04934 -0.152,0.009 -0.308,0.028 -0.46533,0.0453 -0.17067,0.02 -0.344,0.044 -0.51067,0.044 -0.0907,0 -0.144,-0.009 -0.17333,-0.016 l -2.42,-0.58267 1.344,2.096 c 0.30533,0.476 0.28666,0.736 0.26533,0.77467 -0.008,0.0133 -0.10667,0.0893 -0.364,0.0893 -0.168,0 -0.44667,-0.0333 -0.82267,-0.192 -0.39466,-0.164 -0.86666,-0.33733 -1.30133,-0.22933 -0.16933,0.0413 -1.14533,0.72533 -1.052,0.896"
       style="opacity:0.199997;fill:#000000;fill-opacity:1;fill-rule:nonzero;stroke:none;stroke-width:1.33333"
       id="path29339" />
    <path
       d="m 273.22519,199.85934 c 0.52134,-1.05467 1.208,-1.57467 1.65734,-1.89067 -0.016,-0.12133 -0.044,-0.29333 -0.096,-0.52533 l -0.45867,-2.05333 2.07333,-0.356 c 0.43734,-0.0747 0.536,-0.172 1.04934,-1.04 0.26933,-0.45467 0.604,-1.02134 1.092,-1.56267 1.82133,-2.01733 4.20133,-2.76267 6.29866,-3.41867 0.49067,-0.15466 0.95067,-0.292 1.39467,-0.42266 1.192,-0.35467 2.22,-0.66 3.39733,-1.172 1.28934,-0.56 2.676,-1.108 4.20534,-1.108 0.46,0 0.90266,0.0507 1.32666,0.152 l 1.68534,-1.69867 -5.89734,-0.93867 5.29867,-2.80133 c 0.548,-0.28933 1.088,-0.69733 1.65867,-1.12933 0.0173,-0.012 0.0333,-0.0253 0.0493,-0.0373 -0.048,-0.424 -0.0507,-0.83066 -0.0227,-1.232 l -0.16,-0.0547 -0.0213,-0.1 c -0.156,0.0307 -2.25467,0.45466 -2.25467,0.45466 l -0.61866,-0.316 c -0.74,-0.37866 -2.988,-0.78 -5.69734,-0.78 -1.876,0 -3.37466,0.18267 -4.49466,0.432 l -0.02,0.30667 c -0.18134,2.764 -3.132,4.06933 -5.65334,4.84267 -0.003,0.0227 -0.004,0.044 -0.007,0.0667 -0.196,1.89734 -2.148,2.73334 -3.71867,3.40534 -0.0107,0.005 -0.024,0.009 -0.036,0.0147 0.003,0.0947 0,0.184 -0.004,0.26667 -0.0973,1.57867 -1.372,2.556 -2.21467,3.20267 -0.19066,0.14666 -0.37733,0.28533 -0.528,0.424 -0.48666,0.452 -0.95066,0.66666 -1.25866,0.808 -0.0613,0.0267 -0.124,0.0507 -0.15734,0.0667 -0.23733,0.27867 -0.51333,0.59067 -0.812,0.928 -1.75733,1.988 -3.46266,4.34667 -3.26666,7.17334 0.20666,-0.416 0.37733,-0.888 0.69466,-1.22267 0.21334,0.36667 0.52667,0.69867 0.77334,1.05733 0.272,-0.148 0.4,-0.54133 0.53066,-0.79066 0.672,0.47066 1.40934,0.952 1.904,1.61999 0.19334,0.26 1.71467,1.91467 1.69734,2.02 0.23333,-1.43333 0.59866,-2.56533 0.61066,-2.59066 m 26.27334,-22.808 c 0.15866,0.048 0.58666,-0.04 0.70266,0.0773 -0.29733,1.36667 -0.44133,2.29734 -0.007,3.57734 -0.99467,0.66933 -1.91867,1.50933 -3.008,2.08533 1.29333,0.20667 2.43066,0.21333 3.536,0.904 -0.59467,0.74 -1.29467,1.31067 -1.96667,1.98667 1.5,0.0813 5.49733,-0.73334 5.62933,1.04666 -2.16266,0.0667 -6.98666,0.868 -8.592,2.164 -1.70533,-1.164 -3.75333,-0.34133 -5.36266,0.35867 -1.74134,0.75867 -3.14534,1.092 -4.992,1.66933 -2.056,0.644 -3.98934,1.27734 -5.41067,2.85067 -1.124,1.24533 -1.25333,2.88533 -3.28933,3.23467 0.64933,2.89466 -0.83734,1.956 -1.72134,3.73999 -0.376,0.75867 -0.97733,5.17867 -0.19466,5.60534 -2.004,-1.09067 -4.08534,-2.524 -5.46667,-4.58934 0.0307,1.26934 0.048,2.56267 -0.0333,3.81734 -2.824,-1.55067 -5.42,-5.096 -4.54,-8.512 0.552,-2.148 3.37866,-5.048 4.78933,-6.7 0.51733,-0.60533 1.02533,-0.52933 1.57733,-1.04267 0.96934,-0.90133 3.084,-1.88 1.58934,-3.348 1.08,-1.05066 6.26133,-1.908 3.47066,-3.85866 1.73467,-0.496 6.32,-1.46934 6.46534,-3.68134 -0.69334,0.0987 -1.504,-0.18666 -2.21467,-0.02 1.69467,-3.256 12.54133,-3.016 15.33333,-1.588 3.072,-0.608 3.47334,-0.86266 3.70534,0.22267"
       style="fill:#000000;fill-opacity:1;fill-rule:nonzero;stroke:none;stroke-width:1.33333"
       id="path29417" />
    <path
       d="m 341.55919,186.56387 c -1.74,-2.37066 -4.952,-3.03066 -7.488,-3.964 -0.67733,-0.24933 -1.13066,-0.81733 -1.96266,-0.91333 0.22933,-0.36133 0.51333,-0.64933 0.64,-1.04933 -0.884,-0.13867 -1.50267,0.14266 -2.328,0.3 -0.83467,0.16 -1.82934,-0.072 -2.63334,0.20533 -0.16666,0.0573 -0.424,0.168 -0.73466,0.31067 -1.152,0.524 -2.10934,1.072 -2.74134,1.49866 0.0573,0.136 0.104,0.28534 0.136,0.448 0,0 1.58267,2.36267 1.564,2.36534 l 0.0987,0.0667 -0.38667,0.46534 c 0.90534,0.52133 2.01467,1.03333 3.04534,1.50666 1.35333,0.62267 2.75333,1.268 3.85733,1.992 1.32533,0.87067 2.43466,2.28534 3.508,3.65467 0.848,1.08133 1.86666,2.38 2.72,2.936 l -0.276,-0.99733 2.67066,1.11733 -1.924,-2.94133 4.79734,1.156 c -0.13867,-0.57334 -0.42667,-1.32934 -0.596,-1.77067 -0.30267,-0.78933 -0.616,-1.60667 -0.752,-2.40667 l -0.52667,-3.07866 c -0.016,-0.0187 -0.0307,-0.0387 -0.0467,-0.0587 -0.236,-0.30533 -0.46533,-0.60267 -0.64133,-0.84267 m -14.164,-7.38666 c 2.66667,-0.36934 5.388,0.036 8.064,-0.008 -0.58533,0.53733 -0.588,1.23333 -0.92133,1.80533 0.90266,-1.55067 7.84533,3.34533 8.592,4.352 1.22533,1.652 3.036,3.66533 3.35333,5.716 0.11067,0.084 0.11467,0.0787 0.0133,-0.0133 -0.49866,-0.372 -1.30133,-0.59067 -1.752,-0.82134 0.332,1.94 2.34934,4.84 0.968,6.45334 -0.58133,-0.116 -1.33866,0.176 -1.956,0.0267 0.54667,0.85067 0.68,2.092 -0.536,2.36534 -0.50666,0.11333 -0.888,-0.12534 -1.37333,-0.14934 -0.69733,-0.0347 -1.05333,0.33467 -1.6,0.656 -0.29333,0.172 -0.66133,0.25734 -0.972,0.38 -0.488,0.19333 -0.556,0.292 -0.82,-0.19066 -0.15333,-0.27734 -0.40533,-0.552 -0.49067,-0.84534 -0.28933,0.10534 -0.52133,0.468 -0.83466,0.56934 -0.13734,-0.26134 -0.12667,-0.58 -0.23334,-0.84267 -0.0773,-0.19333 -0.17333,-0.304 -0.26666,-0.49333 -0.13867,-0.28134 -0.13334,-0.55734 -0.228,-0.86534 -0.35067,-1.124 -1.47067,-2.12133 -2.18534,-3.024 -0.79066,-1 -1.60933,-2.072 -2.68799,-2.78 -2.49334,-1.63733 -7.052,-2.97733 -8.82667,-4.968 0.132,-0.16533 0.39333,-0.17066 0.45733,-0.24666 -0.648,-0.43867 -1.19066,-1.064 -1.71333,-1.53467 0.50933,-0.056 0.76533,-0.25733 1.24133,-0.34933 -0.428,-0.64 0.12534,-0.548 -0.68666,-1.04534 -1.31067,-0.80266 2.24266,-2.78933 4.22266,-3.692 0.58,-0.264 1.02534,-0.43466 1.172,-0.45466"
       style="fill:#000000;fill-opacity:1;fill-rule:nonzero;stroke:none;stroke-width:1.33333"
       id="path29421" />
  </g>
</svg>
