<?xml version="1.0" encoding="UTF-8" standalone="no"?>
<!-- Created with Inkscape (http://www.inkscape.org/) -->

<svg
   width="400"
   height="400"
   viewBox="0 0 400 400"
   version="1.1"
   id="svg124057"
   xml:space="preserve"
   inkscape:version="1.2.2 (b0a8486, 2022-12-01)"
   sodipodi:docname="SoulPatch.svg"
   xmlns:inkscape="http://www.inkscape.org/namespaces/inkscape"
   xmlns:sodipodi="http://sodipodi.sourceforge.net/DTD/sodipodi-0.dtd"
   xmlns="http://www.w3.org/2000/svg"
   xmlns:svg="http://www.w3.org/2000/svg"><sodipodi:namedview
     id="namedview124059"
     pagecolor="#ffffff"
     bordercolor="#666666"
     borderopacity="1.0"
     inkscape:showpageshadow="2"
     inkscape:pageopacity="0.0"
     inkscape:pagecheckerboard="0"
     inkscape:deskcolor="#d1d1d1"
     inkscape:document-units="px"
     showgrid="false"
     inkscape:zoom="2.3975"
     inkscape:cx="199.79145"
     inkscape:cy="200"
     inkscape:window-width="1905"
     inkscape:window-height="1179"
     inkscape:window-x="2571"
     inkscape:window-y="47"
     inkscape:window-maximized="0"
     inkscape:current-layer="svg124057" /><defs
     id="defs124054" /><g
     inkscape:groupmode="layer"
     id="layer5"
     inkscape:label="Facial Hair"><path
       style="fill:#383838;fill-opacity:1;stroke:none;stroke-width:1px;stroke-linecap:butt;stroke-linejoin:miter;stroke-opacity:1"
       d="m 306.75182,203.20646 c 0,0 1.47293,0.34607 2.94578,0.49531 1.47285,0.14924 4.43578,0.31628 5.89156,0.20855 1.45577,-0.10772 1.92705,-0.28338 2.81543,-0.52137 0.88838,-0.23799 2.50261,-0.88634 2.50261,-0.88634 l 0.78206,0.99061 0.88634,2.97185 -0.26069,2.0855 c 0,0 -0.74291,1.87209 -1.22523,2.50261 -0.48232,0.63052 -1.48593,1.30344 -1.48593,1.30344 l -1.51199,1.98123 c 0,0 -0.91804,1.08939 -1.40771,1.45986 -0.48967,0.37047 -1.45986,0.78206 -1.45986,0.78206 l -1.19916,-1.09489 c 0,0 -0.19348,-0.38408 -0.4171,-0.57351 -0.22362,-0.18943 -0.57124,-0.21702 -0.93848,-0.46924 -0.36724,-0.25222 -1.19917,-1.09489 -1.19917,-1.09489 0,0 -0.15399,-0.30177 -0.46924,-0.62565 -0.31525,-0.32388 -1.51199,-1.19917 -1.51199,-1.19917 l -1.19916,-1.40772 -0.10428,-0.57351 -1.12095,-0.70386 -1.17311,-1.85089 0.15642,-1.77268 z"
       id="path124628"
       sodipodi:nodetypes="czzzcccczcczcczzczccccccc" /><path
       id="path124611"
       style="fill:#000000;fill-opacity:1;stroke:none;stroke-width:1px;stroke-linecap:butt;stroke-linejoin:miter;stroke-opacity:1"
       d="M 321.27148 202.81641 C 321.27148 202.81641 322.02834 205.07295 322.1582 205.99609 C 322.28807 206.91924 322.18747 207.80636 322.05469 208.60352 C 321.92191 209.40067 320.95898 211.26172 320.95898 211.26172 C 320.95898 211.26172 322.53154 209.67275 322.88867 208.81055 C 323.24581 207.94835 323.25957 206.91136 322.99219 205.89062 C 322.7248 204.86988 321.27148 202.81641 321.27148 202.81641 z M 306.77734 203.28516 C 306.77734 203.28516 305.79592 204.50491 305.68359 205.31836 C 305.57126 206.13181 305.60505 207.26362 305.99609 207.97656 C 306.38713 208.6895 307.92578 209.38477 307.92578 209.38477 C 307.92578 209.38477 306.72611 208.34185 306.51758 207.66406 C 306.30905 206.98627 306.26829 206.26595 306.30859 205.52734 C 306.34891 204.78873 306.77734 203.28516 306.77734 203.28516 z M 319.61328 204.90234 C 319.61328 204.90234 320.06734 207.66903 320.08594 208.54297 C 320.10464 209.41691 320.14356 210.07433 320.03516 210.73438 C 319.92677 211.39442 319.49219 212.47266 319.49219 212.47266 C 319.49219 212.47266 320.35454 211.38687 320.55469 210.77148 C 320.75484 210.15609 321.068 209.8665 321.0293 208.50586 C 320.99063 207.14522 319.61328 204.90234 319.61328 204.90234 z M 315.01562 205.63086 C 315.01562 205.63086 315.35519 207.67341 315.48438 208.60352 C 315.61356 209.53362 315.73559 210.26672 315.74609 211.1582 C 315.7566 212.04968 315.64137 213.01603 315.53711 213.91992 C 315.43285 214.82381 315.17188 216.63281 315.17188 216.63281 C 315.17188 216.63281 315.84138 214.83567 316.05859 213.91992 C 316.2758 213.00417 316.47061 212.05407 316.47461 211.1582 C 316.47816 210.26233 316.34596 209.5323 316.11133 208.60352 C 315.8767 207.67473 315.01562 205.63086 315.01562 205.63086 z M 307.97656 205.73438 C 307.97656 205.73438 307.70231 207.74145 307.82031 208.56055 C 307.93826 209.37964 308.17573 210.12105 308.60352 210.8457 C 309.03131 211.57035 310.58398 212.4082 310.58398 212.4082 C 310.58398 212.4082 309.52318 211.24077 309.17578 210.54492 C 308.82838 209.84908 308.57373 208.97061 308.39453 208.19922 C 308.21533 207.42783 307.97656 205.73437 307.97656 205.73438 z M 318.30859 206.78906 C 318.30859 206.78906 318.35707 208.04008 318.38867 208.76953 C 318.42023 209.49898 318.60369 210.33556 318.49805 211.16602 C 318.3924 211.99647 318.04963 212.8746 317.72656 213.67383 C 317.4035 214.47307 316.57422 215.94727 316.57422 215.94727 C 316.57422 215.94727 318.00834 214.69335 318.47656 213.9375 C 318.94477 213.18166 319.24846 212.30169 319.35938 211.52539 C 319.47028 210.74909 319.37784 210.19197 319.21484 209.39258 C 319.05183 208.59319 318.30859 206.78906 318.30859 206.78906 z M 311.01172 208.78125 C 311.01172 208.78125 310.60917 210.49576 310.67383 211.21289 C 310.73843 211.93003 310.925 212.58946 311.30469 213.24805 C 311.68439 213.90663 313.17969 214.74609 313.17969 214.74609 C 313.17969 214.74609 312.19787 213.65698 311.89648 213.0293 C 311.59509 212.40162 311.39635 211.62381 311.26758 210.94336 C 311.13881 210.26291 311.01172 208.78125 311.01172 208.78125 z M 312.92383 210.04297 C 312.92383 210.04297 312.74864 211.764 312.85352 212.42578 C 312.95838 213.08756 312.99191 213.72165 313.3125 214.46484 C 313.63313 215.20801 314.9668 216.38086 314.9668 216.38086 C 314.9668 216.38086 314.15434 215.08525 313.94727 214.47656 C 313.74019 213.86787 313.54723 213.06152 313.37695 212.40039 C 313.20668 211.73925 312.92383 210.04297 312.92383 210.04297 z " /></g></svg>
