<?xml version="1.0" encoding="UTF-8" standalone="no"?>
<!-- Created with Inkscape (http://www.inkscape.org/) -->

<svg
   version="1.1"
   id="svg239182"
   width="400"
   height="400"
   viewBox="0 0 400 400"
   sodipodi:docname="Body3.svg"
   inkscape:version="1.2.2 (b0a8486, 2022-12-01)"
   xmlns:inkscape="http://www.inkscape.org/namespaces/inkscape"
   xmlns:sodipodi="http://sodipodi.sourceforge.net/DTD/sodipodi-0.dtd"
   xmlns="http://www.w3.org/2000/svg"
   xmlns:svg="http://www.w3.org/2000/svg">
  <defs
     id="defs239186" />
  <sodipodi:namedview
     id="namedview239184"
     pagecolor="#ffffff"
     bordercolor="#666666"
     borderopacity="1.0"
     inkscape:showpageshadow="2"
     inkscape:pageopacity="0.0"
     inkscape:pagecheckerboard="0"
     inkscape:deskcolor="#d1d1d1"
     showgrid="false"
     inkscape:zoom="1.475"
     inkscape:cx="182.71186"
     inkscape:cy="200"
     inkscape:window-width="1440"
     inkscape:window-height="810"
     inkscape:window-x="2592"
     inkscape:window-y="241"
     inkscape:window-maximized="0"
     inkscape:current-layer="g239190">
    <inkscape:page
       x="0"
       y="0"
       id="page239188"
       width="400"
       height="400" />
  </sodipodi:namedview>
  <g
     id="g239190"
     inkscape:groupmode="layer"
     inkscape:label="Page 1">
    <path
       d="m 275.46293,349.22293 c 14.22266,0.29467 26.256,0.71734 36.42266,1.21067 3.388,0.164 6.56934,0.336 9.55467,0.51467 3.76,-0.048 7.48533,0.0613 11.17067,0.33733 3.68533,0.276 7.32933,0.72 10.92666,1.34133 15.12933,2.04 28.46267,8.70667 40.46267,16.70667 -0.26667,-8.53333 -1.33334,-17.06667 -3.13734,-25.456 -0.90133,-4.19467 -2.652,-14.34933 -3.91466,-18.456 -9.612,-36.75066 -35.61467,-64.088 -71.78,-78.512 -3.93467,-1.72 -7.83467,-3.35733 -11.68667,-4.888 -4.84933,-2.68533 -9.544,-5.168 -13.37866,-6.79733 l -7.53334,-1.63867 4.76934,8.012 -0.29867,2.28667 c 0,0 1.21067,3.19067 2.59867,6.87733 0.85333,2.26934 2.54666,5.052 2.72133,7.436 0.21333,2.88934 -0.85467,6.19734 -1.51333,8.98267 -0.71334,3.00933 -1.8,6.26533 -1.37334,9.39333 -0.26266,3.04934 -0.63066,7.31867 -1.052,12.19734 -1.68133,19.51733 -4.20533,48.79199 -4.20533,48.79199 l -36.05867,-64.73333 -3.40666,-4.54266 c 0,0 -15.332,-8.51734 -37.47733,-27.54 -2.768,-2.37867 -5.09067,-4.69467 -7.03467,-6.92667 -1.94267,-2.232 -3.50933,-4.38 -4.76267,-6.41733 -4.14266,-6.06934 -4.14266,-12.736 -4.14266,-20.736 -23.748,8.63733 -58.97067,33.39733 -109.116002,61.46533 -3.541333,1.98133 -6.44,4.90267 -9.490666,7.508 -12.202667,10.42533 -22.430666,22.64667 -28.456,38.39333 -1.570666,3.272 -3.033333,6.63734 -4.378666,10.05734 -5.382667,13.67599 -8.877333,28.16133 -10.484,42.65466 -0.872,4.87467 -1.66,9.44 -2.334666,13.35333 l -2.249334,13.04534 c 0,0 68.653332,-7.82534 102.133334,-36.59734 0,0 82.652,-8.89333 158.50533,-7.324"
       style="fill:#7d7d7d;fill-opacity:1;fill-rule:nonzero;stroke:none;stroke-width:1.33333"
       id="path239434" />
    <path
       d="m 384.57599,369.074 c 0,0 0.356,7.74667 0.608,15.46267 l 0.50533,15.43066 H 13.648 l 1.176,-6.824 c 0,0 68.653331,-7.82533 102.13333,-36.596 0,0 82.65333,-8.89333 158.50533,-7.324 14.22267,0.29467 26.256,0.71734 36.42267,1.21067 3.388,0.164 6.56933,0.336 9.55466,0.51333 5.29734,1.24 11.052,1.32534 16.828,1.41467 2.888,0.0453 5.78133,0.0907 8.62533,0.28267 7.77334,0.68933 17.10667,2.02266 22.824,9.56 z"
       style="fill:#2d2d2d;fill-opacity:1;fill-rule:nonzero;stroke:none;stroke-width:1.33333"
       id="path239438" />
    <path
       d="m 196.9892,241.882 c 22.14533,19.02267 37.47733,27.54 37.47733,27.54 l 3.408,4.54267 36.05733,64.73466 c 0,0 2.524,-29.27599 4.20667,-48.79199 0.42,-4.88 0.788,-9.14934 1.05066,-12.19867 0.81067,-5.70933 3.47734,-11.04267 3.82267,-15.94533 -0.70533,-1.992 -2.26933,-6.17867 -3.65733,-9.86534 -1.388,-3.688 -2.59734,-6.87866 -2.59734,-6.87866 l 0.29734,-2.28534 -4.768,-8.012 -0.18534,0.152 -3.812,10.87334 -5.22533,2.25866 -2.824,2.82534 -3.672,-3.672 c -10.87333,-1.412 -25.98267,-10.59067 -35.02,-17.228 -9.03867,-6.63734 -19.36,-31.14 -19.36,-31.14 l 0.76,-3.164 -3.15333,-0.676 -14.51067,9.43733 c -9.284,4.944 -3.95066,16.944 -0.092,24.15067 1.25467,2.03733 2.82,4.18533 4.764,6.41733 1.94267,2.232 4.26534,4.548 7.03334,6.92533"
       style="fill:#d30000;fill-opacity:1;fill-rule:nonzero;stroke:none;stroke-width:1.33333"
       id="path239442" />
    <path
       d="m 196.9892,241.882 c 22.14533,19.02267 37.47733,27.54 37.47733,27.54 l 3.408,4.54267 36.05733,64.73466 c 0,0 2.524,-29.27599 4.20667,-48.79199 0.42,-4.88 0.788,-9.14934 1.05066,-12.19867 0.81067,-5.70933 3.47734,-11.04267 3.82267,-15.94533 -0.70533,-1.992 -2.26933,-6.17867 -3.65733,-9.86534 -1.388,-3.688 -2.59734,-6.87866 -2.59734,-6.87866 l 0.29734,-2.28534 -4.768,-8.012 -0.18534,0.152 -3.812,10.87334 -5.22533,2.25866 -2.824,2.82534 -3.672,-3.672 c -10.87333,-1.412 -25.98267,-10.59067 -35.02,-17.228 -9.03867,-6.63734 -19.36,-31.14 -19.36,-31.14 l 0.76,-3.164 -3.15333,-0.676 -14.51067,9.43733 c -9.284,4.944 -3.95066,16.944 -0.092,24.15067 1.25467,2.03733 2.82,4.18533 4.764,6.41733 1.94267,2.232 4.26534,4.548 7.03334,6.92533 z"
       style="fill:none;stroke:#000000;stroke-width:1.08533;stroke-linecap:butt;stroke-linejoin:miter;stroke-miterlimit:10;stroke-dasharray:none;stroke-opacity:1"
       id="path239446" />
    <path
       d="m 213.63253,151.29441 -11.44534,47.49733 c 0,0 10.32267,24.50266 19.36,31.14 9.03734,6.636 24.148,15.816 35.02134,17.228 l 3.67066,3.67066 2.82534,-2.824 5.224,-2.25866 3.81333,-10.87467 18.428,-23.08667 z"
       style="fill:#cd976d;fill-opacity:1;fill-rule:nonzero;stroke:none;stroke-width:1.33333"
       id="path239450" />
    <path
       d="m 202.18733,198.79147 c 0,0 10.76266,21.22 15.732,26.71333 4.96933,5.49334 32.69466,1.83067 40.54266,4.18534 6.33867,1.90133 13.09867,2.66533 15.47067,2.89066 l 16.59733,-20.79333 -76.89733,-60.49333 z"
       style="opacity:0.199997;fill:#000000;fill-opacity:1;fill-rule:nonzero;stroke:none;stroke-width:1.33333"
       id="path239460" />
    <path
       d="m 211.64493,149.52841 c -1.01067,4.99733 -5.20667,23.99066 -6.15467,28.98933 -0.776,4.09467 -1.59733,8.18 -2.532,12.23333 -0.432,1.87334 -0.908,3.73067 -1.38533,5.59067 -0.15867,0.62133 -0.86667,1.87867 -0.768,2.49333 0.028,0.17067 0.90266,2.4 1.18666,1.95067 3.43067,-5.42933 4.39334,-14.29467 6.204,-20.536 1.29067,-4.45067 5.792,-22.89733 7.28267,-27.31467 0,0 -3.83333,-3.40666 -3.83333,-3.40666"
       style="fill:#000000;fill-opacity:1;fill-rule:nonzero;stroke:none;stroke-width:1.33333"
       id="path239470" />
    <path
       d="m 293.27599,213.31907 c -2.83733,2.044 -16.28266,19.912 -18.592,22.53067 -1.87866,2.13066 -4.41733,10.85066 -7.52933,10.948 -2.104,0.0653 -1.74133,-3.72534 -1.19333,-5.332 0.26266,-0.76934 21.288,-30.90934 21.288,-30.90934 0,0 6.02666,2.76267 6.02666,2.76267"
       style="fill:#000000;fill-opacity:1;fill-rule:nonzero;stroke:none;stroke-width:1.33333"
       id="path239474" />
    <path
       d="m 276.07346,242.23054 c 0.33067,0.75333 0.6,1.59333 0.68267,2.78933 0.224,3.21333 -1.1,3.24933 -2.696,5.944 -2.38667,4.032 -3.48134,9.40133 -4.94667,13.80933 -0.872,-2.21866 -1.20133,-3.37733 -1.008,-5.648 0.196,-2.31333 0.44933,-4.564 1.104,-6.844 0.46533,-1.62266 3.62267,-4.36666 4.41467,-5.74133 1.59866,-2.768 0.99466,-5.07867 0.372,-8.04267 0.23866,0.32 0.43733,0.32667 0.74,0.59334 0.36,1.30533 0.90133,2.14666 1.33733,3.14"
       style="fill:#000000;fill-opacity:1;fill-rule:nonzero;stroke:none;stroke-width:1.33333"
       id="path239478" />
    <path
       d="m 358.13319,284.88067 3.24133,4.53733 c 0,0 -0.904,24.82134 1.84267,36.85334 0,0 -3.90267,-11.316 -5.084,-41.39067"
       style="fill:#000000;fill-opacity:1;fill-rule:nonzero;stroke:none;stroke-width:1.33333"
       id="path239482" />
    <path
       d="m 124.20106,357.8324 c -0.56133,-4.01867 -4.244,-17.95733 -9.32533,-31.204 -1.27067,-3.312 -2.628,-6.58 -4.04667,-9.63866 -1.41866,-3.06 -2.892,-5.90934 -4.38666,-8.37334 0,0 1.43466,4.72534 2.99866,11.33467 0.784,3.30533 1.59334,7.07867 2.26267,10.96133 0.66933,3.88267 1.19733,7.876 1.416,11.62 0,8.808 -1.90133,20.42533 -1.90133,20.42533 l 5.46666,-3.076 c 0,0 7.216,4.516 7.516,-2.04933"
       style="fill:#000000;fill-opacity:1;fill-rule:nonzero;stroke:none;stroke-width:1.33333"
       id="path239486" />
    <path
       d="M 35.807866,311.56067 C 39.265199,305.394 43.418532,299.434 47.438532,293.63 c 6.749333,-9.74266 13.897333,-19.04666 26.187999,-21.352 4,-0.66666 8.706667,1.056 12.041334,2.72267 3.665333,2.332 6.331999,4.99867 8.998666,7.66533 0,-9.33333 -9.333333,-14.66666 -16,-17.33333 33.333329,-17.33333 65.333329,-41.33333 99.999999,-56 -2.66667,6.66667 1.33333,10.66667 3.52267,16.28933 1.78,3.94534 4.53333,8.37734 8.72666,13.12134 4.192,4.744 9.82133,9.79466 17.35867,14.984 18.396,12.66666 24.63733,17.11733 26.708,18.66133 0.012,0.028 0.0253,0.0533 0.04,0.08 l 37.47733,69.27733 c 0.224,0.412 0.612,0.67867 1.048,0.78667 h 0.80133 c 0.66,-0.17734 1.14934,-0.74 1.20667,-1.428 0,0 2.136,-29.56133 3.56,-49.268 0.356,-4.92667 0.66667,-9.23867 0.88933,-12.31733 1.328,-8.85334 7.99467,-19.52 0.36934,-28.552 -0.50134,-1.04934 -2.34534,-4.01334 -2.02134,-5.224 0.12534,-0.46667 0.52,-0.88534 0.73867,-1.30534 1.3,-2.49333 -2.348,-5.728 -3.11867,-7.90533 -0.044,-0.124 -0.13333,-1.20267 0.14934,-1.21467 3.54,-0.148 7.58533,2.95734 11.07466,4.508 3.94667,2.15067 7.992,4.28667 12.09467,6.42534 38.04133,12.41466 70.04133,43.08133 77.42933,82.652 1.18933,4.16933 2.20533,8.37199 3.044,12.58666 1.67467,8.42933 2.63467,16.90933 2.90133,25.176 -10e-4,-0.0587 -1.84933,-0.59333 -2.04,-0.66667 -0.65333,-0.25333 -1.29333,-0.54 -1.916,-0.864 -1.16,-0.60533 -2.252,-1.33866 -3.24533,-2.18933 -1.89067,-1.62133 -3.384,-3.64667 -4.53067,-5.84933 -1.32,-2.53867 -2.16266,-5.22667 -2.81866,-7.99734 -0.38534,-1.62666 -0.70667,-3.24 -1.05334,-4.868 -0.52,-2.432 -0.42533,-5.17333 -1.61333,-7.41466 0.16267,0.62533 0.38133,1.268 0.44933,1.97466 0.132,1.36 0.28267,3.02134 0.0133,4.37067 -0.38934,1.96 -0.67467,3.96133 -0.95734,5.93333 -0.31333,2.18534 -0.276,3.75067 -2.65866,4.05867 -1.66,0.21467 -3.29867,-0.0507 -4.93734,-0.29867 -1.47866,-0.22266 -2.98,-0.11733 -4.468,-0.292 -3.23333,-0.37866 -6.41333,-0.94133 -9.66,-1.16133 -2.688,-0.18133 -5.37333,-0.38267 -8.05866,-0.604 -1.31467,-0.108 -2.58667,-0.284 -3.89067,-0.48667 -1.27466,-0.19733 -2.66266,-0.58133 -3.95333,-0.58133 -2.15467,-0.26267 -4.324,-0.43333 -6.49733,-0.43867 -5.53067,-0.38533 -11.06134,-0.76933 -16.248,-1.12933 -15.55734,-1.08133 -28.00267,-1.94533 -28.00267,-1.94533 l -156.47866,3.416 c 0,0 -33.482669,26.564 -89.094667,39.81733 l -13.18,1.23467 c 0.293333,-2.17734 0.865333,-6.38134 1.624,-11.776 0.38,-2.69734 0.805333,-5.69334 1.268,-8.88134 1.162666,-8.02133 2.317333,-15.98933 3.994666,-23.92666 0.874667,-4.14 1.829334,-8.26267 2.844,-12.37067 1.768,-7.152 4.230667,-14.75333 7.730667,-21.22533 0.172,-0.31733 0.344,-0.63067 0.52,-0.944 M 182.71053,208.79934 c 2.39067,-1.724 7.74933,-3.61867 10.34533,-5.86934 2.596,-2.25066 5.008,-4.42933 6.57867,-5.86399 3.63466,9.99999 20.31066,46.96533 56.708,51.28666 l 2.75466,3.856 c 0.30934,0.43467 0.776,0.68267 1.34934,0.68133 1.30266,-10e-4 1.33866,-1.26533 1.91466,-2.09333 0.772,-1.11067 2.092,-1.78933 3.34134,-2.21067 1.2,-0.40533 2.52266,-0.66533 3.428,-1.552 1,-0.97866 1.46266,-2.60533 2.104,-3.82933 0.33066,-0.632 0.66933,-1.25867 1.02,-1.87867 0.116,-0.20533 0.956,-1.32933 0.88666,-1.51866 1.39867,3.85466 3.51067,7.96133 5.12,12.14933 1.608,4.18933 2.71467,8.45867 2.1,12.64 -0.69333,4.732 -2.48266,8.99067 -2.83333,13.83333 -0.312,4.30134 -0.62533,8.604 -0.93733,12.90534 -0.73067,10.07066 -1.46134,20.14266 -2.192,30.21333 -0.25067,3.44533 -0.5,6.89067 -0.75067,10.336 l -33.532,-56.844 c -4.14533,-9.572 -26.09067,-22.796 -40.028,-33.548 -3.20266,-2.47067 -6.02666,-5.296 -8.47066,-8.20133 -2.44534,-2.904 -4.50934,-5.89067 -6.19067,-8.68267 -3.804,-8.24133 -3.05333,-14.148 -2.716,-15.80933 m -37.91867,14.892 c -1.31733,0.704 -2.63333,1.412 -3.94666,2.12266 -7.95334,4.30534 -15.84134,8.72934 -23.71867,13.17334 -7.85467,4.432 -15.69867,8.884 -23.585332,13.26 -3.932,2.18133 -7.873333,4.34266 -11.832,6.47333 -1.976,1.06267 -3.956,2.11733 -5.941333,3.16267 -0.992,0.52266 -1.984,1.04266 -2.978667,1.56 -0.92,0.47866 -2.022666,0.87866 -2.865333,1.48133 -3.190667,2.288 -6.301333,4.66267 -9.309333,7.13867 -12.032,9.90666 -23.082666,23.212 -29.778666,38.12266 -1.609333,3.344 -3.104,6.79467 -4.470667,10.31334 -5.462666,14.07199 -8.851999,29.13599 -10.018666,44.54666 -0.633333,4.13467 -1.214667,8.16133 -1.756,11.924 -1.617333,11.29067 -2.796,20.268 -3.289333,22.99733 h 5.630666 L 17.9132,395.258 c 0,0 53.706665,-3.13867 96.95066,-32.43333 0,0 2.09334,-5.232 6.62667,1.39466 3.20533,4.684 7.62667,24.516 9.94533,35.748 h 5.56 c -1.44133,-12.25333 -4.54,-34.39733 -8.53066,-38.88666 -5.58,-6.27734 130.78133,-8.37067 137.75599,-8.71867 3.632,-0.18133 22.40267,0.39333 43.448,1.57733 4.20934,0.23734 8.50934,0.49867 12.79734,0.78267 4.956,0.87067 11.66666,0.70933 18.25599,0.92933 3.29334,0.10934 6.55734,0.31334 9.556,0.78934 2.99734,0.47466 5.73067,1.22133 7.96267,2.41466 3.956,2.116 5.644,5.98534 5.73467,10.32667 0.11733,5.648 -0.30134,11.35467 -0.30134,17.016 -0.104,4.68667 -0.29466,9.436 -0.616,13.76933 h 5.57334 c 0.12133,-2.304 0.28133,-5.34 0.45866,-8.652 0.14667,-2.76533 0.484,-5.59733 0.28934,-8.34533 -0.19467,-2.756 -0.39734,-5.62933 0.008,-8.376 0.392,-2.65467 1.27866,-5.212 1.27866,-7.928 6.66667,1.33333 14.66667,6.66667 11.94934,14.95467 0.0707,2.62266 0.13466,5.63733 0.16666,8.78266 0.0333,3.14534 0.036,6.42134 -0.0173,9.564 h 4.792 c 0,0 1.12533,-8.07733 0.72,-18.17333 -0.136,-3.36533 -0.28267,-6.956 -0.468,-10.55867 -0.236,-4.324 -0.62533,-8.72266 -1.22,-13.152 -0.64667,-3.808 -0.704,-10.98666 -1.55333,-14.86 -0.85067,-3.87333 -3.136,-14.91599 -4.21334,-18.79866 -9.076,-40.516 -39.35733,-66.99867 -80.93066,-81.84533 -4.2,-2.04667 -8.352,-4.04267 -12.41867,-5.99334 -2.576,-1.20133 -4.928,-1.87333 -7.32666,-3.38533 -1.40267,-0.87467 -3.83334,-1.67733 -5.29467,-0.54 -1.988,1.54667 -3.57467,3.56533 -4.84267,5.73067 -0.71733,1.224 -1.596,2.33733 -2.25333,3.58533 -0.66667,1.26667 -1.55067,2.36933 -2.76,3.156 -0.596,0.38667 -1.16667,0.688 -1.872,0.684 -0.66933,-0.005 -1.10667,0.11733 -1.516,0.73067 l -1.232,1.84933 -1.80533,-2.52667 c -0.27067,-0.37866 -0.69067,-0.624 -1.15334,-0.67333 -40.28133,-4.272 -55.39466,-50.97466 -55.532,-51.44266 -0.16266,-0.55334 -0.59333,-0.99467 -1.14,-1.16267 -0.54666,-0.16933 -1.12533,-0.0387 -1.53066,0.33867 -0.0493,0.0453 -2.34133,2.17866 -5.37867,4.88 -1.62266,1.44266 -3.64,3.03199 -5.50666,4.12533 -0.816,0.47733 -1.60534,0.99866 -2.412,1.492 -1.036,0.632 -1.928,0.84266 -3.01067,1.41866 -0.69467,-1.124 -2.528,-0.42133 -3.324,0.128 -3.72133,2.57334 -7.92933,4.49467 -11.91867,6.61734 l -12.52666,6.664 c -0.26534,0.14133 -0.53067,0.284 -0.79867,0.42133 -3.196,1.64667 -6.37733,3.32 -9.54667,5.01467"
       style="fill:#000000;fill-opacity:1;fill-rule:nonzero;stroke:none;stroke-width:1.33333"
       id="path239490" />
    <path
       d="m 219.51133,258.96734 c -3.56934,-2.512 -10.108,-6.52667 -18.98,-13.892 -2.956,-2.45467 -6.17333,-5.28134 -9.62533,-8.548 -9.57334,-8.52667 -17.57334,-28.52667 -1.96,-34.51467 4.44533,-3.69333 10.848,-7.06133 10.848,-7.06133 l 2.39333,3.84 c 0.61733,13.30133 5.03466,22.60666 13.37866,30.83066 7.41067,7.304 11.40134,14.18934 24.04267,17.34934 4.20667,1.052 3.568,11.54666 3.352,13.924 -0.216,2.37733 -9.3,8.028 -23.44933,-1.928"
       style="opacity:0.199997;fill:#000000;fill-opacity:1;fill-rule:nonzero;stroke:none;stroke-width:1.33333"
       id="path239500" />
    <path
       d="m 78.344665,272.21747 c 0.485333,-0.15733 0.969333,-0.31467 1.448,-0.49333 0.94,-0.352 1.836,-1.05334 2.878666,-1.04934 -4.197333,-0.012 -7.872,0.0293 -11.883999,1.55334 -3.52,1.33733 -6.989334,3.44533 -9.902667,5.824 -0.928,0.75733 -1.564,1.77066 -2.501333,2.62533 -2.205333,2.00933 -4.374667,4.22267 -6.513333,6.304 1.486666,-1.56667 3.382666,-2.796 5.256,-3.756 7.039999,-3.60667 13.658666,-8.55333 21.218666,-11.008"
       style="opacity:0.199997;fill:#000000;fill-opacity:1;fill-rule:nonzero;stroke:none;stroke-width:1.33333"
       id="path239516" />
    <path
       d="m 181.55826,206.69627 c -26.76266,10.17733 -68.26266,37.90267 -109.341328,61.436 -3.264,2.40933 -6.438667,4.90267 -9.489334,7.508 -12.202666,10.42533 -22.431999,22.64667 -28.455999,38.39333 -1.570666,3.272 -3.034666,6.63734 -4.38,10.05734 -5.381333,13.67599 -8.876,28.16133 -10.482666,42.65466 -0.872,4.87467 -1.66,9.44 -2.334667,13.35333 l -2.250666,13.04534 -1.176,6.82266 h 33.339999 c -0.409333,-10.49866 0.181333,-19.89466 1.528,-28.30133 0.449333,-2.80267 0.982666,-5.49467 1.590666,-8.08133 1.52,-8.30534 4.608,-16.06534 8.814667,-23.15867 2.104,-3.548 4.488,-6.928 7.096,-10.128 4.790666,-5.876 10.195999,-10.88 16.341333,-15.32133 3.04,-2.19733 6.170666,-4.26533 9.309333,-6.31733 3.154666,-2.06134 6.236,-4.424 9.472002,-6.332 0.69466,-0.41067 0.90266,-0.26267 1.668,-0.4 1.10266,-0.19734 0.944,-0.65067 1.14533,-1.812 0.29467,-1.68267 0.496,-3.464 1.47467,-4.91734 2.87066,-4.26266 7.97733,-5.80533 12.564,-7.59333 12.67466,-4.93733 27.34133,-8.93733 40.73066,-12.128 2.96934,-0.80533 5.812,-1.54667 8.52934,-2.22667 29.87866,-7.48133 44.43999,-7.67466 44.43999,-7.67466 0,0 -11.004,-7.552 -20.27333,-18.69067 -3.08933,-3.712 -5.98666,-7.824 -8.21333,-12.17333 -2.22667,-4.35067 -3.78267,-8.93734 -4.21067,-13.64667 -0.428,-4.70933 0.26934,-9.55067 2.564,-14.368"
       style="opacity:0.199997;fill:#000000;fill-opacity:1;fill-rule:nonzero;stroke:none;stroke-width:1.33333"
       id="path239532" />
    <path
       d="m 155.9916,353.1308 c -14.48934,1.07867 -25.88534,2.11867 -32.53334,2.76133 l -1.27066,2.224 c 0,0 8.308,20.30934 11.91733,41.85067 h 14.96 c 1.04,-22.69333 5.88533,-42.744 6.92667,-46.836"
       style="opacity:0.199997;fill:#000000;fill-opacity:1;fill-rule:nonzero;stroke:none;stroke-width:1.33333"
       id="path239548" />
    <path
       d="m 274.23093,271.50774 -2.432,16.08533 -2.21467,-18.408 0.26533,-7.68 c 1.02667,-1.524 4.72534,-6.69333 6.62667,-5.004 2.21867,1.97333 -2.24533,15.00667 -2.24533,15.00667 m -3.98667,27.788 c -0.29867,2.46 -1.39867,2.476 -1.788,-0.76667 -1.13467,-9.43467 -3.93067,-27.74533 -3.93067,-27.74533 0,0 2.65734,-0.432 3.66,-2.19867 l 2.74934,24.06667 c 0,0 -0.31067,3.52266 -0.69067,6.644 m 6.72533,-53.152 -8.428,3.94266 c 0,0 -3.37333,1.588 -0.92533,15.82934 -0.25067,0.58933 -0.488,1.06133 -0.69333,1.328 -0.384,0.49866 -2.19334,0.88933 -3.03334,1.19333 -3.256,-9.04667 0.77734,-19.536 1.536,-20.672 l -4.424,2.91733 c -0.60933,-0.11066 -2.86933,10.04934 -1.036,16.716 0.23067,0.83867 -0.24533,2.25867 -1.06666,2.164 -1.23067,-0.14266 -3.11467,0.27067 -3.24667,-0.524 -1.596,-9.62533 0.388,-17.56266 0.388,-17.56266 l -5.74667,-1.94 c 0,0 1.63734,1.93733 1.64134,2.86133 0.016,3.89467 -0.072,13.06533 0.0533,14.036 0.156,1.20267 -0.896,1.88267 -1.428,1.812 -2.976,-0.39733 -5.99867,-1.08933 -9.504,-1.85467 0,0 7.932,3.61867 11.868,4.21334 l 8.75867,47.128 3.11066,3.10266 -7.18666,-49.23466 3.45066,0.44266 c 0,0 4.288,25.796 6.404,44.24934 l -1.4,9.25866 8.19467,10.84933 c 0,0 2.38,-28.25333 3.96667,-47.08933 0.79333,-9.41733 1.388,-16.48133 1.388,-16.48133 3.056,-6.16267 3.056,-12.82933 0.0707,-19.71867 -1.356,-3.69866 -2.712,-6.96666 -2.712,-6.96666"
       style="opacity:0.199997;fill:#000000;fill-opacity:1;fill-rule:nonzero;stroke:none;stroke-width:1.33333"
       id="path239564" />
    <path
       d="m 320.33559,374.954 c -0.003,-0.0453 0.48934,-0.84667 0.48934,-0.84667 l 7.64266,-0.33333 -0.33066,3.02533 -0.40134,-0.0307 c 0,0 -6.85066,0.43866 -7.152,0.136 -0.30133,-0.30267 -0.24533,-1.90534 -0.248,-1.95067 m -2.224,5.524 c 0.42134,0.76667 9.07067,1.86267 9.07067,1.86267 l 3.39467,-13.14667 c 0,0 -8.404,-0.11067 -9.60267,0.10933 -1.2,0.21867 -2.31867,1.752 -2.644,4.05334 -0.32667,2.30133 -0.63867,6.35466 -0.21867,7.12133"
       style="fill:#d9a14b;fill-opacity:1;fill-rule:nonzero;stroke:none;stroke-width:1.33333"
       id="path239574" />
    <path
       d="m 348.58052,376.90493 c -0.228,0.30267 -6.48933,-0.136 -6.48933,-0.136 l -0.35867,0.0307 -0.74933,-3.02533 6.96267,0.33333 c 0,0 0.564,0.80133 0.568,0.84667 0.005,0.0453 0.29466,1.648 0.0667,1.95066 m 1.51067,-3.548 c -0.63733,-2.30133 -1.87867,-3.83466 -2.996,-4.05333 -1.11733,-0.22 -8.70267,-0.11067 -8.70267,-0.11067 l 5.02934,13.148 c 0,0 7.66,-1.096 7.92666,-1.86266 0.26534,-0.76667 -0.62,-4.82134 -1.25733,-7.12134"
       style="fill:#d9a14b;fill-opacity:1;fill-rule:nonzero;stroke:none;stroke-width:1.33333"
       id="path239578" />
    <path
       d="m 325.07319,398.59747 c -0.16933,0 -0.344,-0.048 -0.50533,-0.144 -0.38,-0.228 -0.62933,-0.68534 -0.636,-1.172 -0.007,-0.49467 -0.14933,-12.216 1.86933,-20.72267 2.048,-8.62533 5.78934,-17.97333 7.144,-20.19067 0.19467,-0.316 0.51467,-0.49066 0.85733,-0.472 0.344,0.02 0.67067,0.232 0.87734,0.572 0.40933,0.67334 10.048,16.73067 12.68266,38.38267 0.0693,0.56933 -0.19733,1.092 -0.64666,1.272 -0.448,0.18133 -0.96667,-0.028 -1.25867,-0.508 -1.79333,-2.93733 -5.16,-7.21067 -6.788,-7.21067 -0.0213,0 -0.044,0 -0.0653,0.003 -1.82667,0.13467 -8.644,5.89067 -12.90133,9.93467 -0.17867,0.16933 -0.40134,0.256 -0.62934,0.256"
       style="fill:#d9a14b;fill-opacity:1;fill-rule:nonzero;stroke:none;stroke-width:1.33333"
       id="path239582" />
    <path
       d="m 333.80212,356.72613 c -0.108,0 -0.208,0.0587 -0.26933,0.15867 -1.33066,2.17733 -5.01733,11.40667 -7.04533,19.94933 -1.99467,8.39734 -1.852,20.00267 -1.84533,20.49334 0.003,0.16133 0.0853,0.31466 0.212,0.39066 0.12266,0.0733 0.27733,0.0587 0.37866,-0.0373 2.896,-2.752 10.92667,-9.93067 13.27733,-10.104 l 0.108,-0.004 c 2.27467,0 6.11734,5.48 7.40667,7.592 0.0973,0.16 0.26933,0.228 0.41733,0.17067 0.152,-0.0613 0.24134,-0.236 0.21734,-0.42534 -2.60934,-21.44933 -12.144,-37.32666 -12.548,-37.992 -0.0693,-0.11333 -0.17867,-0.18533 -0.292,-0.19066 -0.005,-0.001 -0.012,-0.001 -0.0173,-0.001 m -8.67733,42.70267 c -0.288,0 -0.57866,-0.0827 -0.84266,-0.24 -0.632,-0.38 -1.048,-1.14533 -1.06,-1.95333 -0.007,-0.49867 -0.152,-12.33334 1.89466,-20.952 2.06667,-8.70534 5.86267,-18.17467 7.24134,-20.42934 0.32266,-0.52666 0.85066,-0.82533 1.42666,-0.78933 0.57333,0.0333 1.12,0.38933 1.464,0.95467 0.41333,0.68 10.156,16.90533 12.816,38.77333 0.116,0.94667 -0.32667,1.81867 -1.076,2.11867 -0.748,0.30133 -1.612,-0.0453 -2.1,-0.84534 -2.14267,-3.51066 -5.14,-6.83066 -6.168,-6.83066 -1.47867,0.108 -7.67466,5.13733 -12.548,9.76666 -0.28933,0.27467 -0.66266,0.42667 -1.048,0.42667"
       style="fill:#000000;fill-opacity:1;fill-rule:nonzero;stroke:none;stroke-width:1.33333"
       id="path239586" />
    <path
       d="m 333.90839,359.4808 c -1.61066,3.492 -4.41733,11.02 -6.05066,17.904 -1.372,5.77467 -1.70267,13.32933 -1.77734,17.30933 3.332,-3.04666 9.71733,-8.592 12.24,-8.77733 2.024,-0.152 4.45467,2.31333 6.27467,4.64 -2.58934,-15.004 -8.412,-26.85467 -10.68667,-31.076"
       style="fill:#999999;fill-opacity:1;fill-rule:nonzero;stroke:none;stroke-width:1.33333"
       id="path239590" />
    <path
       d="m 345.49786,382.88827 c 0,0 5.656,-0.876 6.16533,-1.75334 0.508,-0.876 -0.0187,-4.41733 -0.64667,-6.608 -0.62666,-2.192 -1.36933,-5.00533 -3.44533,-5.55333 -2.07733,-0.54667 -7.08667,-0.876 -7.08667,-0.876 l 0.70134,2.08133 c 0,0 6.06666,0.0227 6.89733,0.65734 0.96933,0.74133 1.65333,2.07066 1.972,3.944 0.30533,1.79866 1.096,4.492 0.904,5.14933 -0.192,0.65733 -6.216,1.20533 -6.216,1.20533 z"
       style="fill:#000000;fill-opacity:1;fill-rule:nonzero;stroke:none;stroke-width:1.33333"
       id="path239594" />
    <path
       d="m 343.27919,376.3148 c 0,0 3.98667,0.21867 4.83067,0.21867 0.844,0 0.15333,-1.972 -0.52267,-1.972 -0.67467,0 -4.99867,-0.21867 -4.99867,-0.21867 l -0.0827,-0.876 c 0,0 4.84,0.31867 5.516,0.328 0.676,0.009 1.13333,2.19067 1.11066,2.84933 -0.0227,0.65734 -1.45733,0.65734 -2.21733,0.65734 -0.75867,0 -3.46933,-0.11067 -3.46933,-0.11067 z"
       style="fill:#000000;fill-opacity:1;fill-rule:nonzero;stroke:none;stroke-width:1.33333"
       id="path239598" />
    <path
       d="m 324.97719,382.88827 c 0,0 -6.39733,-0.876 -7.10533,-1.75334 -0.70667,-0.876 -0.588,-4.44933 -0.256,-6.64 0.332,-2.192 0.97867,-4.848 3.184,-5.396 2.20533,-0.548 7.284,-1.00133 7.284,-1.00133 l -0.432,2.08133 c 0,0 -6.832,-0.15466 -7.51733,0.65734 -0.54134,0.64266 -1.34934,2.54 -1.61467,4.29333 -0.26667,1.75333 -0.388,4.14267 -0.068,4.8 0.32,0.65733 7.07067,1.20533 7.07067,1.20533 z"
       style="fill:#000000;fill-opacity:1;fill-rule:nonzero;stroke:none;stroke-width:1.33333"
       id="path239602" />
    <path
       d="m 326.34773,376.3148 c 0,0 -4.372,0.21867 -5.30534,0.21867 -0.932,0 -0.49333,-1.972 0.25334,-1.972 0.74666,0 5.49066,-0.21867 5.49066,-0.21867 l -0.0533,-0.876 c 0,0 -5.29867,0.31867 -6.044,0.328 -0.74533,0.009 -0.892,2.19067 -0.75867,2.84933 0.13334,0.65734 1.72,0.65734 2.55867,0.65734 0.84,0 3.81867,-0.11067 3.81867,-0.11067 z"
       style="fill:#000000;fill-opacity:1;fill-rule:nonzero;stroke:none;stroke-width:1.33333"
       id="path239606" />
    <path
       d="m 251.45666,332.93947 c -2.968,-8.82133 -6.00133,-17.62 -9.1,-26.39733 l 11.868,26.35466 c -0.91333,0.0133 -1.84267,0.028 -2.768,0.0427 m -17.20133,-15.8067 c -3.716,-14.82533 -9.13734,-29.30133 -16.23734,-42.87333 3.456,2.072 6.99734,4.00933 10.58534,5.868 6.45733,17.764 13.372,35.96933 21.92266,52.82667 -4.25466,0.0667 -8.62933,0.14666 -13.084,0.236 -0.764,-5.41067 -1.872,-10.76 -3.18666,-16.05734 m -11.76934,16.38267 c -2.70133,-11.768 -6.21866,-23.32667 -10.28666,-34.688 -5.30534,-14.32267 -12.13734,-30.39333 -21.20267,-44.75067 0.0853,0.0827 0.168,0.16667 0.25334,0.248 6.20933,5.78534 12.89066,10.96534 19.92266,15.63334 11.448,19.684 19.80933,41.19466 25.524,63.24666 -4.668,0.0947 -9.41867,0.19867 -14.21067,0.31067 m 37.45734,2.64533 c -0.0253,-0.0187 -0.416,-0.84667 -1.07734,-2.28 0.38534,-0.61333 0.66267,-1.05333 0.66267,-1.05333 -0.37333,0.004 -0.764,0.0107 -1.14,0.0147 -5.612,-12.20934 -24.52267,-53.99467 -24.81467,-54.01067 -5.592,-2.79067 -12.08,-6.23333 -18.65066,-10.24667 -39.092,-28.32666 -39.58667,-46.784 -39.58667,-46.784 -0.58533,-4.112 -0.69466,-8.27066 -0.40266,-12.40666 -0.51734,0.26533 -1.04534,0.53733 -1.584,0.816 -0.284,3.32266 -0.31867,6.66533 -0.0613,9.988 -2.58266,-1.99467 -5.22933,-3.90667 -7.924,-5.74534 -0.36933,0.19867 -0.74533,0.404 -1.11866,0.608 3.19466,2.632 6.32266,5.31734 9.35333,8.08267 0.30267,2.36 0.73867,4.70533 1.336,7.02 0.54,1.91067 1.24667,3.75333 2.076,5.53733 -6.152,-6.56933 -13.076,-12.14 -20.87733,-16.168 -0.48667,0.27067 -0.97067,0.54134 -1.46267,0.816 34.98267,21.84267 53.78933,76.868 67.34533,113.17733 -4.58533,0.10667 -9.2,0.21867 -13.81333,0.33334 -2.39734,-11.12 -5.59867,-22.04667 -9.35333,-32.77867 -10.32,-28.264 -25.86267,-61.22533 -53.944,-75.212 -0.46,0.26267 -0.92134,0.52667 -1.384,0.79067 2.32533,1.39333 4.55866,2.90267 6.68,4.55333 29.35866,23.14267 45.056,68.05734 57.47866,102.66 -4.604,0.11467 -9.19466,0.232 -13.74133,0.348 -2.096,-10.47733 -4.98667,-20.776 -8.43067,-30.88533 -9.64133,-27.296 -24.62666,-58.052 -51.69066,-71.09467 -0.48,0.27734 -0.95867,0.55467 -1.43867,0.83334 33.07733,19.784 48.89867,66.54933 60.97733,101.16133 -4.62,0.11866 -9.192,0.23733 -13.664,0.35066 -1.79733,-9.83599 -4.38,-19.50799 -7.51733,-28.99599 -8.344,-24.53867 -20.948,-49.89467 -43.65867,-63.976 -1.844,-1.096 -3.75466,-2.07067 -5.69866,-2.97067 -0.50134,0.29333 -1,0.58533 -1.5,0.87867 3.20133,1.856 6.26133,3.90266 9.16266,6.19333 25.64134,21.47333 38.21867,57.70267 48.572,88.88666 -4.65733,0.11867 -9.19333,0.23067 -13.58933,0.336 -1.50267,-9.18666 -3.77867,-18.22799 -6.61067,-27.09066 -7.61866,-23.36667 -19.92533,-47.26533 -41.76666,-60.136 -1.70534,-0.96133 -3.464,-1.816 -5.248,-2.61333 -0.508,0.3 -1.01334,0.59866 -1.516,0.896 3.008,1.70533 5.892,3.572 8.61733,5.69733 25.03867,20.256 36.272,53.32 45.812,83.264 -0.83733,0.02 -1.69067,0.04 -2.516,0.06 -3.65867,0.0707 -7.316,0.176 -10.97467,0.29066 C 150.05,326.7648 148.074,318.35014 145.54333,310.10747 138.654,287.9128 126.594,265.4808 105.642,253.83147 c -1.54,-0.83067 -3.12667,-1.56667 -4.73067,-2.25733 -0.516,0.308 -1.027999,0.612 -1.534666,0.91333 1.802666,0.996 3.561336,2.04133 5.245336,3.192 26.2,18.39467 36.948,50.10267 45.85466,79.652 -4.45866,0.14266 -8.916,0.30133 -13.37466,0.46666 -0.92267,-7.93466 -2.60667,-15.76533 -4.85334,-23.42799 -6.172,-21.01067 -18.01733,-42 -38.069329,-52.38267 -1.348,-0.71333 -2.738667,-1.33467 -4.144,-1.92 -0.537333,0.32133 -1.065333,0.63867 -1.58,0.94667 2.56,1.39733 5.025333,2.908 7.389333,4.66933 23.161336,16.99733 32.955996,45.32933 40.422666,72.14533 -1.46133,0.0547 -2.92267,0.108 -4.384,0.16133 -0.87067,-3.23066 -1.84533,-7.11066 -2.80133,-9.84666 -0.76267,-2.08133 -2.404,-6.81733 -3.208,-8.82667 -0.816,-1.82533 -2.99867,-6.68266 -3.85067,-8.56266 -1.70133,-3.168 -4.21067,-7.91867 -6.184,-10.86934 -8.88533,-13.77066 -20.683999,-26.084 -34.893332,-34.356 -0.198667,0.12 -0.393333,0.236 -0.584,0.35067 5.176,3.25867 9.974666,7.14 14.433333,11.32267 11.898669,11.15466 21.311999,25.12933 27.465329,40.22666 1.504,3.19867 3.016,8.14667 4.18667,11.528 0.628,1.67334 1.13467,4.164 1.616,5.91734 l 1.50933,5.94799 0.06,0.236 c 0,0 0.23334,-0.004 0.23467,-0.004 0.21467,-0.12666 103.832,-1.756 126.12,-2.24133 l 0.432,0.95867 c 0,0 0.256,-0.408 0.61733,-0.98267 2.02267,-0.0467 3.144,-0.08 3.14933,-0.0973 0,0 -0.244,-0.53067 -0.24266,-0.53067"
       style="opacity:0.199997;fill:#000000;fill-opacity:1;fill-rule:nonzero;stroke:none;stroke-width:1.33333"
       id="path239616" />
    <path
       d="m 99.191464,355.598 c -3.136,1.72933 -6.369333,3.4 -9.650666,5.01867 -3.902667,-13.31867 0.162666,-28.33067 9.633333,-38.464 2.423999,-2.71733 5.142669,-5.16133 8.026669,-7.4 1.076,3.352 2.08933,6.58667 2.98666,9.47733 -4.64,3.428 -8.52933,8.116 -10.525329,13.576 -2.029333,5.372 -2.112,12.032 0.409329,17.308 -0.295996,0.16267 -0.606662,0.332 -0.879996,0.484 M 76.570131,366.63 c -0.688,-2.31067 -1.189333,-4.68667 -1.553333,-7.06933 -2.701333,-16.25467 2.818667,-33.488 14.661333,-44.96667 4.144,-4.15066 8.889333,-7.672 13.931999,-10.69066 1.06933,3.112 2.132,6.32666 3.148,9.46933 -3.59333,1.69067 -6.935999,3.932 -9.914666,6.672 -11.321333,9.8 -15.857333,27.936 -8.586666,41.208 -3.853333,1.876 -7.769333,3.672 -11.686667,5.37733 m -7.894666,3.32267 c -1.766667,0.67333 -3.548,1.33866 -5.34,1.99066 -2.074667,-7.204 -2.893333,-14.78 -2.628,-22.26666 0.530667,-16.10134 7.564,-31.828 19.466666,-42.70667 5.825334,-5.41466 12.54,-9.83866 19.674667,-13.38 1.129332,2.86534 2.310662,6.116 3.488002,9.51867 -5.746669,2.04667 -11.133336,5.18933 -15.874669,9.25733 -15.582666,12.7 -21.050666,36.69333 -11.713333,54.61733 -2.364,1.02267 -4.726666,2.016 -7.073333,2.96934 m -18.896,6.41066 c -2.330666,-8.69066 -3.183999,-17.78533 -2.76,-26.76533 0.822667,-19.06533 9.185334,-37.70533 23.649333,-50.28666 7.152,-6.30534 15.393333,-11.32267 24.118666,-15.19067 L 94.626131,283.754 c -9.334666,2.56267 -18.244,7.03867 -26.038666,13.20267 -23.701333,18.23467 -30.838666,52.47733 -19.414666,79.57466 -4.393333,1.20667 -8.837333,2.188 -13.32,2.808 -2.310667,-9.736 -3.088,-19.844 -2.533333,-29.82533 1.108,-22.03333 10.824,-43.62 27.843999,-57.884 7.817333,-6.62266 16.738666,-11.868 26.158666,-15.92133 3.908,3.34 8.406667,8.18533 11.097333,14.404 0.412,0.952 0.834667,1.98267 1.266667,3.06533 -7.801333,2.292 -15.190666,6.204 -21.650666,11.48934 -19.736,15.51466 -26.045333,44.96799 -15.333333,67.50799 -4.245333,1.53334 -8.558667,2.96667 -12.922667,4.188 m 0.58,-89.15199 c 0,0 23.758666,-14.508 30.649333,-16.14134 l -8.16,-2.176 -16.141333,8.16134 z m 52.690665,69.73999 C 107.3808,354.278 111.62346,351.462 115.7808,348.53 l 0.81066,-2.81067 -2.67733,1.62267 c -3.08667,1.93733 -7.832,4.49733 -11.71867,6.61067 -0.28666,-1.34934 -0.46133,-2.72267 -0.53333,-4.09067 -0.32533,-5.91733 1.75467,-11.784 4.68533,-16.84666 0.49867,-0.736 1.79734,-2.636 2.31467,-3.4 0.66,-0.88134 1.464,-1.84534 2.32133,-2.82134 1.10667,3.57334 1.97867,6.404 2.488,7.932 1.996,5.98533 1.81467,0.72667 0.72534,-3.808 0,0 -9.61067,-35.908 -19.041336,-49.51066 -9.430666,-13.60134 -15.415999,-11.06267 -15.415999,-11.06267 0,0 3.112,1.65867 6.942666,4.82667 -12.509333,3.74666 -24.590666,10.444 -34.029332,19.72533 -22.201333,21.30533 -27.854666,56.112 -17.582667,84.55066 -3.487999,0.44934 -6.998666,0.66267 -10.523999,0.60667 -1.373334,-5.292 -2.294667,-10.71067 -2.962667,-16.14 -0.637333,-5.428 -0.994667,-10.884 -1.137333,-16.344 -0.952,5.04267 -1.742667,10.02133 -2.393333,14.66933 1.197333,6.30267 3.043999,12.33734 5.602666,17.79867 -1.353333,-0.04 -2.709333,-0.10667 -4.066666,-0.23467 -1.165334,-0.11733 -2.350667,-0.284 -3.533334,-0.49333 -0.06,0.632 -0.114666,1.23467 -0.166666,1.80667 5.361333,1.45733 11.042666,1.83333 16.553333,1.51866 1.251999,-0.0547 2.502666,-0.14 3.751999,-0.25066 0.004,0.009 0.0067,0.02 0.01067,0.0293 l 0.148,-0.0467 c 8.752,-0.79866 17.441333,-2.93866 25.690666,-5.81333 9.729333,-3.29067 19.124,-7.43467 28.181333,-12.22933 0.133333,0.18 0.258666,0.364 0.396,0.54133 0,0 0.36,-0.17733 0.36,-0.17733 -0.09067,-0.20934 -0.158667,-0.42534 -0.245334,-0.636 3.709334,-1.976 7.353334,-4.072 10.946663,-6.256 z"
       style="opacity:0.199997;fill:#000000;fill-opacity:1;fill-rule:nonzero;stroke:none;stroke-width:1.33333"
       id="path239632" />
    <path
       d="m 290.04479,332.60854 c 0.66934,-10.904 0.90534,-21.83334 0.528,-32.75467 -0.344,-6.484 -0.80666,-13.02 -1.77466,-19.46533 0.944,-4.58134 2.164,-9.108 3.45733,-13.584 -0.59867,-3.25467 -1.288,-6.49067 -2.01733,-9.716 5.58133,15.56533 8.21866,32.15466 8.76266,48.66 0.248,9.22 -0.1,18.48933 -1.35733,27.62799 -2.944,-0.29733 -5.52667,-0.55866 -7.59867,-0.76799 m -5.00933,-0.51067 c -0.24667,-5.39467 -0.24533,-10.81733 -0.0973,-16.22533 0.204,-6.88267 0.672,-13.764 1.484,-20.60267 0.436,12.42933 0.90133,24.83867 2.628,37.23733 -2.02534,-0.204 -3.42667,-0.34666 -4.01467,-0.40933 m 0.756,-52.388 c -2.744,11.812 -4.08133,23.936 -4.59867,36.05067 -0.316,6.54533 -0.196,13.188 0.0987,19.83066 0,0 3.02267,0.328 3.02267,0.328 16.05066,1.80133 38.03066,3.98 54.10399,5.57867 2.03334,0.15066 19.76267,1.848 21.252,1.936 0.53734,-4.148 0.75867,-8.62134 0.544,-12.592 -1.17466,-17.74667 -3.92133,-35.43467 -7.496,-52.87467 -0.40266,-0.39866 -0.82666,-0.816 -1.27466,-1.252 1.268,9.02667 2.412,18.072 3.396,27.13334 1.10266,11.93466 2.724,24.02133 1.64533,35.99733 -0.212,-0.124 -2.136,-0.40134 -5.236,-0.78134 3.636,-19.11999 3.32267,-45.45599 -2.972,-65.36933 -0.85067,-0.79466 -1.752,-1.62 -2.68533,-2.46 0.744,3.784 1.33733,7.60134 1.84266,11.424 2.23067,18.66667 2.99734,37.50667 2.98134,56.304 -2.20534,-0.26533 -4.912,-0.57467 -7.95467,-0.91067 4.552,-22.13599 3.42,-53.90933 -6.87467,-75.13066 -0.75466,-0.57067 -1.516,-1.13067 -2.28133,-1.67867 1.76533,5.076 3.06933,10.308 4.14667,15.57334 3.76,20.112 4.69733,40.70666 4.16133,61.14133 -2.47733,-0.272 -5.15733,-0.56267 -7.96133,-0.86134 5.37466,-24.67999 3.42666,-59.42266 -10.03333,-81.84399 -0.704,-0.368 -1.41734,-0.73334 -2.14934,-1.09467 2.44267,5.38933 4.34534,11.016 5.892,16.72933 5.308,21.55067 6.576,43.992 5.46534,66.12133 -2.59067,-0.276 -5.276,-0.55866 -7.996,-0.84266 6.00933,-26.40933 3.60533,-62.00133 -11.492,-85.74667 -0.844,-0.364 -1.69334,-0.72533 -2.54534,-1.08533 2.564,4.99467 4.66667,10.224 6.38667,15.56933 6.956,22.94267 8.57733,47.32934 6.84667,71.17867 -2.66534,-0.27867 -5.35467,-0.556 -8.01067,-0.83067 3.072,-12.308 3.692,-25.11466 3.00667,-37.75466 -1.268,-17.67067 -5.60134,-36.03467 -15.26,-51.06134 -1.044,-0.424 -2.08134,-0.844 -3.10667,-1.26 0.28533,0.52134 0.58,1.03867 0.85467,1.56667 10.176,19.80667 13.85466,42.31067 14.556,64.388 0.19466,8.01733 -0.0307,16.06133 -0.836,24.04133 -2.73334,-0.28133 -5.42267,-0.55733 -8.00534,-0.82133 2.22267,-8.468 3.18934,-17.22267 3.45067,-25.98133 0.536,-22.532 -4.02533,-46.61067 -16.32133,-65.78267 -1.272,-0.53467 -2.50267,-1.06133 -3.67867,-1.58133 2.18933,3.84133 4.14667,7.81466 5.83467,11.90133 7.28933,17.55067 10.43466,36.608 11.02266,55.53867 0.21867,8.616 -0.0533,17.26933 -1.08,25.82666 -2.85866,-0.29067 -5.57066,-0.56667 -8.05333,-0.81733 2.46133,-9.03333 3.50933,-18.41067 3.74267,-27.788 0.484,-22.56533 -4.45867,-46.38533 -16.40267,-65.76667 -0.14133,-0.476 -0.27867,-0.952 -0.416,-1.42933 -2.152,-1.112 -3.94267,-2.19333 -5.22,-3.24533 -0.14267,-0.116 -0.27333,-0.196 -0.408,-0.28667 1.93333,3.144 3.71733,6.38 5.32133,9.70533 1.75334,7.29867 3.204,14.668 4.45067,22.03867 -0.72267,2.14 -1.38133,4.296 -1.99467,6.46533 z"
       style="opacity:0.199997;fill:#000000;fill-opacity:1;fill-rule:nonzero;stroke:none;stroke-width:1.33333"
       id="path239648" />
    <path
       d="m 374.30479,348.57147 c -0.53067,-2.656 -0.984,-6.17867 -1.43067,-9.83067 2.17734,3.56133 5.45067,9.816 6.80134,17.06667 -2.26,-1.31467 -4.62934,-3.532 -5.37067,-7.236 m 10.11733,9.01733 c 0,0 -0.68933,-0.112 -1.696,-0.432 -0.52666,-3.668 -2.67733,-14.43733 -10.58666,-24.36533 -0.48267,-3.74533 -1.00134,-7.184 -1.63867,-9.51067 2.34267,2.58934 6.68267,7.936 10.18267,15.39333 0,0 -3.672,-13.85999 -12.18934,-22.54799 -0.30533,-1.744 -0.556,-3.68 -0.728,-5.62534 1.89867,1.35467 6.26267,4.812 8.95867,9.69867 0,0 -2.48133,-9.85867 -9.20667,-15.48133 0.0347,-2.82667 0.348,-5.13867 1.068,-6.07334 l -2.85866,-3.3 c 0,0 -1.98,17.816 1.09866,28.37334 3.08,10.55733 3.74,22.87333 5.05867,27.05333 1.32,4.17866 9.67867,11.876 12.75733,12.316 z"
       style="opacity:0.199997;fill:#000000;fill-opacity:1;fill-rule:nonzero;stroke:none;stroke-width:1.33333"
       id="path239664" />
  </g>
</svg>
