<?xml version="1.0" encoding="UTF-8" standalone="no"?>
<!-- Created with Inkscape (http://www.inkscape.org/) -->

<svg
   version="1.1"
   id="svg282014"
   width="400"
   height="400"
   viewBox="0 0 400 400"
   sodipodi:docname="Body5_revised.svg"
   inkscape:version="1.2.2 (b0a8486, 2022-12-01)"
   xml:space="preserve"
   xmlns:inkscape="http://www.inkscape.org/namespaces/inkscape"
   xmlns:sodipodi="http://sodipodi.sourceforge.net/DTD/sodipodi-0.dtd"
   xmlns="http://www.w3.org/2000/svg"
   xmlns:svg="http://www.w3.org/2000/svg"><defs
     id="defs282018" /><sodipodi:namedview
     id="namedview282016"
     pagecolor="#ffffff"
     bordercolor="#666666"
     borderopacity="1.0"
     inkscape:showpageshadow="2"
     inkscape:pageopacity="0.0"
     inkscape:pagecheckerboard="0"
     inkscape:deskcolor="#d1d1d1"
     showgrid="false"
     inkscape:zoom="2.0875"
     inkscape:cx="199.76048"
     inkscape:cy="200"
     inkscape:window-width="1773"
     inkscape:window-height="1055"
     inkscape:window-x="2589"
     inkscape:window-y="131"
     inkscape:window-maximized="0"
     inkscape:current-layer="g282022"><inkscape:page
       x="0"
       y="0"
       id="page282020"
       width="400"
       height="400" /></sodipodi:namedview><g
     id="g282022"
     inkscape:groupmode="layer"
     inkscape:label="Page 1"><path
       d="m 275.46293,349.22293 c 14.22266,0.29467 25.90266,0.71734 35.704,1.21067 3.26666,0.164 6.33333,0.336 9.21066,0.51467 3.62534,-0.048 7.21734,0.0613 10.76934,0.33733 3.55333,0.276 25.23999,5.80933 25.23999,5.80933 0,0 16.34667,6.74934 23.33734,11.584 0.97066,-10.13866 1.22,-17.81066 -1.06134,-25.48933 -1.22133,-4.10533 -3.55466,-13.66133 -4.772,-17.768 -6.204,-24.60533 -15.37627,-42.72423 -34.7911,-53.43536 -12.8914,-3.90462 -24.58732,-9.43526 -36.99303,-10.87425 -5.24834,-0.67437 -13.24154,-7.73644 -17.09354,-9.26711 -4.1026,-3.17146 -3.03009,-1.02294 -7.12616,-5.58947 0,0 0.36384,0.81953 1.75184,4.50619 0.85333,2.26934 2.54666,5.052 2.72133,7.436 0.21333,2.88934 -0.85467,6.19734 -1.51333,8.98267 -0.71334,3.00933 -8.50659,10.69647 -10.95418,12.62687 0.21638,3.7679 0.44718,5.4025 1.22345,11.83805 1.67196,21.4335 3.10006,45.91774 3.10006,45.91774 l -36.05867,-64.73333 -4.42286,-2.00216 c 0,0 -13.2996,-4.79126 -35.44493,-23.81392 -2.768,-2.37867 -6.10687,-7.24125 -8.05087,-9.59058 -1.94267,-2.34934 -3.50933,-4.592 -4.76267,-6.70534 -4.14266,-6.31866 -3.66362,1.74521 -3.66362,-6.25479 -14.34654,6.4495 -26.45614,10.66893 -50.14814,24.25293 -16.34721,4.40719 -36.792236,9.01386 -54.478902,19.41653 -3.369333,1.98133 -12.235784,6.10027 -15.737253,8.22656 -9.936686,13.29958 -9.370619,20.97003 -15.103952,36.71669 -0.656343,2.91272 -1.569301,6.39781 -3.567864,12.57231 -4.402769,16.19096 -7.370155,25.5266 -8.899488,40.02126 -0.958667,5.632 -0.927074,10.69138 -1.843138,18.00355 -0.31846,4.11347 -0.340886,11.04639 -0.965118,14.37798 2.922667,0.34 10.975002,-5.10458 13.848335,-5.73258 8.405333,-1.84 16.507145,-7.14177 24.723145,-9.76444 9.216,-2.94133 18.306666,-6.41867 27.011999,-10.76667 4.298666,-2.148 8.507996,-4.50533 12.545336,-7.15733 2.42666,-1.59467 7.98933,-7.792 10.564,-8.08267 0.009,-10e-4 79.85333,-8.89333 155.70133,-7.324"
       style="fill:#7d7d7d;fill-opacity:1;fill-rule:nonzero;stroke:none;stroke-width:1.33333"
       id="path283350"
       sodipodi:nodetypes="ccccccccccccccccccccccccccccccccccccsc" /><path
       d="m 251.45666,332.93947 c -2.968,-8.82133 -6.00133,-17.62 -9.1,-26.39733 l 11.868,26.35466 c -0.91333,0.0133 -1.84267,0.028 -2.768,0.0427 m -17.20133,-15.8067 c -3.716,-14.82533 -9.13734,-29.30133 -16.23734,-42.87333 3.456,2.072 6.99734,4.00933 10.58534,5.868 6.45733,17.764 13.372,35.96933 21.92266,52.82667 -4.25466,0.0667 -8.62933,0.14666 -13.084,0.236 -0.764,-5.41067 -1.872,-10.76 -3.18666,-16.05734 m -11.76934,16.38267 c -2.70133,-11.768 -6.21866,-23.32667 -10.28666,-34.688 -5.30534,-14.32267 -12.13734,-30.39333 -21.20267,-44.75067 0.0853,0.0827 0.168,0.16667 0.25334,0.248 6.20933,5.78534 12.89066,10.96534 19.92266,15.63334 11.448,19.684 19.80933,41.19466 25.524,63.24666 -4.668,0.0947 -9.41867,0.19867 -14.21067,0.31067 m 37.45734,2.64533 c -0.0253,-0.0187 -0.416,-0.84667 -1.07734,-2.28 0.38534,-0.61333 -25,-55.03333 -25.292,-55.04933 -5.592,-2.79067 -12.08,-6.23333 -18.65066,-10.24667 -39.092,-28.32666 -39.24739,-41.32817 -39.24739,-41.32817 l -1.65203,1.244 c 0.288,2.37733 0.34339,1.99351 0.91139,4.34151 0.51467,1.94133 3.46212,7.29838 4.25145,9.12905 -5.856,-6.92134 -5.25837,-5.34576 -12.68237,-9.82176 -0.46267,0.244 -0.924,0.48533 -1.392,0.732 33.29067,23.852 43.34825,64.33537 56.90425,100.6447 -4.58533,0.10667 -9.2,0.21867 -13.81333,0.33334 -2.39734,-11.12 -5.59867,-22.04667 -9.35333,-32.77867 -10.32,-28.264 -17.10774,-45.88798 -42.51304,-63.76343 -0.43867,0.236 -0.87867,0.47466 -1.31733,0.712 2.212,1.52666 4.33733,3.164 6.356,4.936 27.2201,26.26646 33.88237,56.30477 46.30503,90.90743 -4.604,0.11467 -9.19466,0.232 -13.74133,0.348 -2.096,-10.47733 -4.98667,-20.776 -8.43067,-30.88533 -9.64133,-27.296 -13.72951,-45.68477 -38.88671,-61.83898 -0.456,0.24933 -0.912,0.5 -1.368,0.75066 30.15997,23.95945 36.02405,57.37632 48.10271,91.98832 -4.62,0.11866 -9.192,0.23733 -13.664,0.35066 -1.79733,-9.83599 -4.39733,-19.50799 -7.384,-28.99599 -7.94,-24.53867 -12.11272,-38.92043 -32.28759,-56.82206 -1.75467,-1.20134 -3.57334,-2.28534 -5.424,-3.29734 -0.47734,0.264 -0.95067,0.528 -1.42667,0.792 3.04667,2.04 -0.5084,-0.89394 2.2516,1.39673 24.40133,21.472 33.27733,55.75867 43.63066,86.94266 -4.65733,0.11867 -8.948,0.23067 -13.132,0.336 -1.42933,-9.18666 -3.59466,-18.22799 -6.28933,-27.09066 -7.25067,-23.36667 -16.16933,-45.32133 -36.95467,-58.19333 -1.62266,-0.96134 0.41524,0.33969 -1.28209,-0.45631 -0.484,0.3 -0.964,0.59866 -1.44267,0.89466 2.86133,1.70534 1.8941,1.41765 4.48743,3.54165 23.828,20.25733 31.72667,51.37733 40.804,81.32133 -0.796,0.02 -1.608,0.04 -2.39333,0.06 -3.48267,0.0707 -6.96267,0.176 -10.444,0.29066 -1.152,-8.54133 -3.032,-16.95599 -5.44134,-25.19866 -6.556,-22.19467 -16.04773,-41.4971 -35.98639,-53.14643 -1.46667,-0.832 -2.97467,-1.56667 -4.50134,-2.25733 -0.492,0.30666 -0.98,0.612 -1.46133,0.91333 1.71467,0.99467 3.388,2.04 4.992,3.19067 24.93333,18.396 33.17573,46.97443 41.65173,76.52376 -4.24267,0.14266 -8.48533,0.30133 -12.72667,0.46666 -0.87866,-7.93466 -2.48133,-15.76533 -4.61866,-23.42799 -5.87467,-21.01067 -19.14667,-40 -38.228002,-50.38267 -1.284,-0.71333 -1.409062,-0.43647 -2.746395,-1.0218 -0.510667,0.32133 -1.492376,0.33927 -1.983042,0.64727 2.436,1.39733 4.064103,2.3092 6.313437,4.07053 22.041332,16.99733 33.362662,43.32933 40.468002,70.14533 -1.39067,0.0547 -10.70918,0.78547 -12.09984,0.8388 -0.82934,-3.23066 -1.756,-7.11066 -2.66534,-9.84666 -0.72666,-2.08133 -2.28933,-6.81733 -3.05333,-8.82667 -3.18676,-7.92823 -5.31789,-14.30194 -9.07029,-20.39008 -8.456,-13.77066 -17.176082,-24.238 -30.697415,-32.51 -0.848017,0.47928 -3.189039,1.37373 -1.514084,0.65007 5.0947,3.93614 7.204457,4.72871 12.723323,10.98218 5.518865,6.25348 19.263796,24.2825 25.119796,39.37983 1.43067,3.19867 2.87067,8.14667 3.984,11.528 1.07177,4.11895 2.1422,7.95391 3.36982,12.08737 0.0888,-0.1167 135.94599,-3.01284 135.95132,-3.03017 0,0 -0.244,-0.53067 -0.24266,-0.53067"
       style="opacity:0.199997;fill:#000000;fill-opacity:1;fill-rule:nonzero;stroke:none;stroke-width:1.33333"
       id="path283360"
       sodipodi:nodetypes="cccccccccccccccccccccccccccccccccccccccccccccccccccccccccccccccccccccccccczccccc" /><path
       d="m 31.482052,395.28734 c 0.446666,2.49334 1.180614,2.08466 1.540614,4.67933 h 20.166666 c 0.196,-3.43334 -0.168,-7.00134 -0.09067,-10.296 0.142667,-6.028 1.809568,-11.8813 2.717568,-17.83597 1.664043,-10.89316 4.390792,-21.53944 8.717099,-31.40937 5.682623,-10.91971 7.04473,-14.96286 12.227828,-24.25379 8.061621,-9.83474 8.681112,-10.66445 17.276729,-16.04664 9.830784,-5.05831 15.433984,-7.8084 26.708774,-12.5209 12.06134,-4.93733 26.01867,-8.93733 38.75867,-12.128 2.82667,-0.80533 5.532,-1.54666 8.11733,-2.22666 28.43467,-7.48134 48.85975,-10.78844 48.85975,-10.78844 0,0 -11.6028,-5.51607 -20.87346,-16.6534 -3.08933,-3.71334 -5.02725,-4.512 -7.25392,-8.99734 -2.228,-4.484 -3.54315,-5.33167 -8.02103,-10.32829 -6.75333,2.5483 -26.119,9.03784 -47.707,21.33251 -18.69995,5.86575 -35.845712,11.49837 -55.441672,20.31762 -6.939001,2.88838 -12.359196,4.7333 -15.263196,7.33997 -9.815593,11.6216 -13.675677,21.85662 -18.57202,40.35778 -3.949413,17.25627 -7.765364,34.88594 -9.352248,49.71932 -1.108,6.50533 -0.995824,8.39911 -2.471784,17.39312 0.117676,5.33145 -0.859554,8.65545 -0.283552,11.86611"
       style="opacity:0.199997;fill:#000000;fill-opacity:1;fill-rule:nonzero;stroke:none;stroke-width:1.33333"
       id="path283392"
       sodipodi:nodetypes="cccccccccccccccccccccc" /><path
       d="m 383.91919,399.96653 c -0.144,-0.856 -0.384,-1.68666 -0.64133,-2.34666 -0.696,-1.77734 -2.25467,-3.46 -3.18534,-5.13067 -0.88666,-1.59467 -1.816,-3.20667 -2.61466,-4.83067 -1.45734,-2.968 -2.89867,-6.17733 -1.188,-9.324 1.60933,-2.96 4.252,-6.02933 2.29333,-9.588 -1.23333,-2.24 -3.70933,-3.056 -5.82133,-4.18133 -2.21467,-1.17867 -3.82134,-3.104 -6.22934,-3.83867 -2.128,-0.64933 -4.05333,-2.13333 -6.17866,-2.62 -2.14934,-0.49333 -4.32,-0.69333 -6.46,-1.46933 -1.84134,-0.668 -3.72667,-1.292 -5.668,-1.6 -1.728,-0.276 -3.52134,0.092 -5.164,-0.272 -3.94667,-0.872 -7.34934,-2.36267 -11.50667,-2.51467 -3.77866,-0.14 -7.45733,-1.07333 -11.17733,-1.30266 -2.87733,-0.17734 -5.94533,-0.35067 -9.212,-0.51467 -9.8,-0.49333 -21.48,-0.916 -35.70267,-1.21067 -75.85333,-1.56933 -155.70133,7.324 -155.70133,7.324 -14.23866,12.85734 -32.558662,20.41867 -50.321328,26.07067 -8.232,2.62 -13.953269,4.804 -24.051249,8.67593 -2.718667,1.55141 -10.938866,3.64044 -13.282866,5.1511 -2.472,1.59467 -0.399218,-0.3017 -0.219218,2.78897 0.01467,0.24667 0.03333,0.48933 0.052,0.73333 z"
       style="fill:#2d2d2d;fill-opacity:1;fill-rule:nonzero;stroke:none;stroke-width:1.33333"
       id="path283402"
       sodipodi:nodetypes="cccccccscccccsccccccccc" /><path
       d="m 197.15857,245.26934 c 22.14533,19.02267 37.30796,24.15266 37.30796,24.15266 l 3.408,4.54267 37.3747,64.6149 c 0,0 -1.42561,-35.20589 -3.45551,-55.44046 0,0 3.557,-2.27941 5.87615,-5.35779 4.06475,-5.52191 4.99666,-11.11532 5.34199,-16.01798 -0.70533,-1.992 -2.26933,-6.17867 -3.65733,-9.86534 -1.388,-3.688 -2.59734,-6.87866 -2.59734,-6.87866 l 0.29734,-2.28534 -4.768,-8.012 -0.18534,0.152 -3.812,10.87334 -5.22533,2.25866 -2.824,2.82534 -3.672,-3.672 c -10.87333,-1.412 -25.98267,-10.59067 -35.02,-17.228 -9.03867,-6.63734 -21.63545,-29.74643 -21.63545,-29.74643 l 3.03545,-3.25757 -5.30902,2.75305 -8.96764,13.77075 c -6.57413,9.12628 -6.37992,11.66542 -2.52126,19.10409 1.25467,2.11333 1.86192,3.63744 3.80592,5.98677 1.94267,2.34934 3.41851,2.14824 6.18651,4.52557"
       style="fill:#d30000;fill-opacity:1;fill-rule:nonzero;stroke:none;stroke-width:1.33333"
       id="path283406"
       sodipodi:nodetypes="cccccccccccccccccccccccc" /><path
       d="m 213.63253,151.29441 -5.49067,30.848 -9.21193,18.45217 c 0,0 13.57993,22.69982 22.61726,29.33716 9.03734,6.636 24.148,15.816 35.02134,17.228 l 3.67066,3.67066 2.82534,-2.824 5.224,-2.25866 1.832,-12.39334 13.08133,-27.18533 z"
       style="fill:#cd976d;fill-opacity:1;fill-rule:nonzero;stroke:none;stroke-width:1.33333"
       id="path283414"
       sodipodi:nodetypes="ccccccccccc" /><path
       d="m 199.16985,199.75598 c 0,0 11.14568,18.87824 18.74974,25.74882 16.89748,4.64849 35.91739,5.03279 53.5,5.14934 l 11.78267,-24.48534 -69.56933,-54.87466 -5.69867,31.472 z"
       style="opacity:0.199997;fill:#000000;fill-opacity:1;fill-rule:nonzero;stroke:none;stroke-width:1.33333"
       id="path283424"
       sodipodi:nodetypes="ccccccc" /><path
       d="m 199.85386,247.78521 c -2.956,-2.45467 -5.49586,-4.13921 -8.94786,-7.61521 -9.57334,-13.50887 -10.81672,-11.21418 -2.06274,-27.26703 3.5985,-6.47393 9.42644,-14.32449 9.42644,-14.32449 l 2.05459,4.26669 c 3.75062,13.68523 6.8977,18.55283 15.2417,26.77683 7.41067,7.304 11.40134,14.18934 24.04267,17.34934 4.20667,1.052 3.568,11.54666 3.352,13.924 -0.216,2.37733 -9.13063,10.73787 -23.27996,0.78187"
       style="opacity:0.199997;fill:#000000;fill-opacity:1;fill-rule:nonzero;stroke:none;stroke-width:1.33333"
       id="path283456"
       sodipodi:nodetypes="cccccccsc" /><path
       d="m 211.64493,149.52841 c -1.01067,4.99733 -2.99139,25.24509 -4.128,30.15333 -1.11614,3.58085 -2.42213,8.10992 -4.32571,11.82632 -1.90358,3.7164 -2.7377,5.49633 -4.27987,8.42311 l 2.35504,3.10823 c 4.22257,-7.93797 7.1452,-15.38433 8.95587,-21.62566 1.29067,-4.45067 3.76533,-24.06133 5.256,-28.47867 l -3.83333,-3.40666"
       style="fill:#000000;fill-opacity:1;fill-rule:nonzero;stroke:none;stroke-width:1.33333"
       id="path283434"
       sodipodi:nodetypes="cczccccc" /><path
       d="m 285.86613,207.63814 c -2.232,2.508 -11.62934,23.48 -13.308,26.58266 -1.36534,2.52267 -2.372,12.41734 -5.128,12.788 -1.86267,0.25067 -2.084,-3.988 -1.828,-5.81866 0.124,-0.87467 14.504,-36.10934 14.504,-36.10934 0,0 5.76,2.55734 5.76,2.55734"
       style="fill:#000000;fill-opacity:1;fill-rule:nonzero;stroke:none;stroke-width:1.33333"
       id="path283438" /><path
       d="m 276.07346,242.23054 c 0.33067,0.75333 0.6,1.59333 0.68267,2.78933 0.224,3.21333 -1.1,3.24933 -2.696,5.944 -2.38667,4.032 -3.48134,9.40133 -4.94667,13.80933 -0.872,-2.21866 -1.20133,-3.37733 -1.008,-5.648 0.196,-2.31333 0.44933,-4.564 1.104,-6.844 0.46533,-1.62266 3.62267,-4.36666 4.41467,-5.74133 1.59866,-2.768 0.99466,-5.07867 0.372,-8.04267 0.23866,0.32 0.43733,0.32667 0.74,0.59334 0.36,1.30533 0.90133,2.14666 1.33733,3.14"
       style="fill:#000000;fill-opacity:1;fill-rule:nonzero;stroke:none;stroke-width:1.33333"
       id="path283442" /><path
       d="m 123.08492,356.35309 c -1.04672,-3.91662 -6.55261,-16.57078 -13.051,-29.08605 -1.62365,-3.12928 -3.32627,-6.20396 -5.05752,-9.06383 -1.73275,-2.86103 -3.48866,-5.50664 -5.21621,-7.76736 0,0 1.96133,4.51068 4.28776,10.87378 1.16395,3.18213 2.41319,6.82512 3.54425,10.59367 1.12973,3.76873 2.14147,7.66434 2.82893,11.35056 1.13202,8.73495 0.83079,20.48847 0.83079,20.48847 l 4.76286,-3.71898 7.1899,-3.67026"
       style="fill:#000000;fill-opacity:1;fill-rule:nonzero;stroke:none;stroke-width:1.33333"
       id="path283446"
       sodipodi:nodetypes="cccccccccc" /><path
       id="path11451"
       style="opacity:0.2;fill:#000000;fill-opacity:1;stroke:none;stroke-width:1px;stroke-linecap:butt;stroke-linejoin:miter;stroke-opacity:1"
       d="m 62.035156,280.24023 -2.154297,2.1543 c 0,0 5.170282,-0.61266 8.34961,-0.39062 -0.105687,0.26704 -16.188825,40.91018 -20.566407,58.35547 -4.003919,15.95617 -6.374992,37.52602 -6.78125,41.37695 -4.422386,1.80066 -7.828124,3.17383 -7.828124,3.17383 l 0.238281,4.07226 c 0,0 29.976749,-11.81735 43.59375,-18.44336 13.616999,-6.62599 38.083981,-21.07812 38.083981,-21.07812 l -0.71875,-4.07227 c 0,0 -1.58158,0.92849 -3.91406,2.28125 -0.31934,-1.85407 -0.93447,-5.2256 -2.07422,-9.4668 -1.53314,-5.70503 -4.1485,-15.97204 -7.42578,-22.7539 -3.277261,-6.78186 -6.393449,-12.67129 -10.058593,-17.72461 -3.665144,-5.05335 -8.614913,-9.99235 -11.738281,-12.69531 -3.123368,-2.70299 -6.226229,-3.8315 -7.423828,-4.31055 -1.197602,-0.47905 -9.582032,-0.47852 -9.582032,-0.47852 z m 7.646485,1.96289 c 2.108976,0.42549 3.304335,0.72069 5.183593,1.96485 -0.317412,0.99917 -11.373797,35.82516 -15.703125,53.07812 -3.562186,14.19583 -5.831422,32.85681 -6.59375,39.66993 -3.772451,1.5802 -6.843747,2.8388 -9.90039,4.08789 0.689702,-3.86389 4.488899,-24.8441 8.589843,-40.64453 4.384919,-16.89457 17.663064,-55.92304 18.423829,-58.15626 z M 76.25,285.1543 c 0.05486,0.0416 0.100102,0.0722 0.15625,0.11523 1.781561,1.36507 4.117832,3.47196 6.484375,5.99805 -0.621361,2.01131 -7.322846,23.76771 -11.513672,40.46875 -3.638069,14.49821 -5.916326,33.5608 -6.625,39.96484 -3.352761,1.47076 -6.809968,2.95545 -10.263672,4.41016 1.25155,-6.86554 4.648731,-24.92977 8.265625,-38.86524 C 67.214849,320.05864 76.044831,285.94686 76.25,285.1543 Z m 7.972656,7.58203 c 1.18531,1.34509 2.355888,2.77232 3.441406,4.26953 1.005034,1.3862 2.462208,3.62116 3.422402,5.22247 -0.24446,0.94764 -3.754197,11.97599 -7.973183,28.78925 -3.428405,13.66267 -4.831557,28.57678 -5.294922,34.60937 -0.698676,0.35208 -1.479065,0.76275 -2.128906,1.08008 -2.53524,1.23801 -5.700792,2.67019 -9.033203,4.14844 1.187545,-6.53323 4.628884,-24.9191 8.314453,-39.11914 4.082617,-15.72983 8.424301,-35.25503 9.251953,-39 z m 7.5625,10.79297 c 1.984397,3.51297 4.382282,8.12498 6.30912,12.15801 -0.516435,2.50847 -2.396306,8.61439 -4.523964,19.20917 -1.823801,9.08173 -2.656138,18.89041 -3.001953,23.96094 -3.741152,2.05939 -7.399082,4.02602 -10.75,5.75391 0.745969,-4.71509 3.641476,-22.886 5.929688,-33.35352 2.424007,-11.08873 5.578293,-25.61614 6.037109,-27.72851 z m 7.033203,14.45117 c 2.518791,5.56017 4.335301,11.92555 5.765621,17.13867 l -1.94336,17.08008 c -2.931168,1.75972 -6.080806,3.63833 -9.871089,5.73437 0.595018,-4.66286 1.820104,-15.28319 3.0625,-22.38476 1.296255,-7.40942 2.47245,-14.61272 2.986328,-17.56836 z m 7.220701,22.50195 c 1.0373,3.93153 1.67651,7.10732 1.94727,8.53711 -0.90692,0.5235 -1.96614,1.1678 -2.92578,1.74024 z"
       sodipodi:nodetypes="cccscccscccssssscccsccsccccsccsccscscscscccsccscccccsccccc" /><path
       id="path283466"
       style="fill:#000000;fill-opacity:1;fill-rule:nonzero;stroke:none;stroke-width:1.33333"
       d="m 197.77204,196.28512 c -0.26366,0.0623 -0.51022,0.19709 -0.71289,0.39844 -6.70012,8.84518 -9.63556,15.05562 -15.15011,25.17105 -1.29333,0.0667 -4.56395,2.45304 -5.63061,3.10104 -1.47333,0.896 -4.028,2.2638 -8.73394,4.40842 -4.70593,2.14462 -12.46319,6.36079 -21.59585,10.50099 -9.13266,4.1402 -17.97754,6.15181 -29.99004,10.17225 -12.01249,4.02044 -39.268289,15.33392 -51.145268,20.48517 -1.801464,1.21501 -3.930998,1.84123 -5.560547,3.04101 -15.771659,29.05015 -24.623956,71.03128 -28.145281,97.73897 -1.286851,11.80775 -1.3379,18.41289 -1.61727,28.1409 -0.03067,0.17466 -0.07629,0.34877 -0.126953,0.52344 h 4.427735 c 12.623436,-5.71243 19.832691,-7.13126 34.074218,-13.17969 14.241527,-6.04843 32.217956,-15.6754 41.792056,-20.92937 7.0336,-3.89903 8.22429,22.4035 8.05849,34.14226 h 5.29297 c -0.18394,-6.26658 -0.32688,-16.81421 -0.43692,-21.16219 -0.11004,-4.34798 -0.86366,-16.05184 -0.94385,-19.71495 11.72373,-0.90831 30.26555,-2.59487 42.90718,-3.25177 9.43599,-0.58934 19.31099,-1.0313 29.23632,-1.41797 18.63065,-0.72532 37.26957,-1.23373 55.90821,-1.67773 5.50933,-0.13067 11.03702,-0.13806 16.54101,-0.41406 3.63333,-0.18133 22.51929,0.39412 42.8086,1.57812 4.05732,0.236 8.20456,0.49725 12.33789,0.78125 5.63999,0.388 11.32551,0.10824 16.9375,0.87891 5.55866,0.76266 10.53756,2.11247 15.96289,3.61914 2.564,0.71066 5.17753,1.21535 7.76953,1.80469 1.84134,0.41866 4.85733,0.80092 5.86133,2.68359 0.15067,0.28266 0.0668,0.59156 0.32812,0.85156 0.33466,0.332 0.7933,0.35141 1.16797,0.55274 2.18266,1.16667 4.2951,2.63894 6.37109,3.98828 0.856,0.556 0.5074,0.96645 0.2754,1.81445 -0.40666,1.48134 -0.97051,3.00511 -1.20118,4.53711 -0.364,2.40533 -1.29584,6.11105 0.29883,8.26172 2.54133,3.43067 2.9584,1.10786 2.78906,-0.24414 -0.55333,-4.432 0.90163,-8.86737 1.54297,-11.08203 1.44266,-4.98267 2.10133,-9.23405 2.36133,-14.49805 0.588,-11.89999 -1.70703,-21.89409 -4.20703,-33.46875 -0.57333,-2.65466 -1.24238,-5.28733 -2.01172,-7.88867 -2.724,-9.22132 -6.71749,-18.02422 -11.88281,-26.04687 -2.75932,-4.28569 -7.75581,-11.5532 -9.57737,-13.17324 -15.4336,-6.77411 -37.40458,-13.58644 -54.74684,-17.56505 -7.14607,-5.82469 -12.73914,-9.59987 -20.99805,-14.09961 0.14985,-0.42649 0.48002,-0.81962 0.6836,-1.20703 1.3,-2.49332 -2.34652,-5.72892 -3.11719,-7.90625 l -2.51563,-4.48047 c -0.30533,0.392 -0.46298,0.86665 -0.68164,1.30665 -1.05734,2.11999 -2.21745,4.26006 -3.46679,6.30273 -1.17733,1.928 -2.37312,4.20803 -4.31446,5.4707 -0.59466,0.38666 -1.1677,0.68894 -1.87304,0.6836 -0.668,-0.004 -1.10568,0.11776 -1.51367,0.73242 l -1.23438,1.84765 -1.80469,-2.52734 c -0.27066,-0.37867 -0.68967,-0.62254 -1.15234,-0.67187 -40.28263,-4.27334 -57.65493,-46.32075 -57.44742,-46.79453 l 0.80548,-1.83904 c -0.27333,-0.0907 -1.84959,-0.23424 -2.22555,-0.24868 z m -0.49218,5.61523 c 0.69999,0.144 0.81292,0.93283 1.04492,1.54883 0.444,1.17333 0.91044,2.33496 1.39844,3.48828 1.86413,2.63672 2.30378,3.79133 4.53701,6.47266 5.26003,6.7378 9.89418,11.26337 15.5355,16.96869 7.5194,6.39647 14.98003,11.70322 23.77068,14.92588 4.12133,1.512 8.41868,2.53149 12.77734,3.04883 l 2.75195,3.85546 c 0.31066,0.43466 0.77824,0.68297 1.35157,0.68164 1.30266,-9.9e-4 1.33806,-1.26575 1.91406,-2.09374 0.772,-1.11067 2.09051,-1.78961 3.33984,-2.21094 1.20133,-0.40533 2.52436,-0.66411 3.42969,-1.55078 1,-0.98 1.46352,-2.6067 2.10352,-3.83204 0.33066,-0.63065 0.6702,-1.25562 1.01953,-1.87695 0.116,-0.20534 0.95667,-1.3302 0.88867,-1.51953 1.39867,3.856 3.50919,7.9624 5.11719,12.15039 1.60932,4.188 4.51694,10.3195 1.82095,18.15264 -2.69599,7.83314 -6.31433,11.1228 -9.1813,12.49109 -0.28434,9.7457 -0.2783,21.34054 0.50503,34.27741 0.53007,8.33607 1.05622,11.08222 1.28593,15.6054 l -34.37207,-62.04046 c -13.5452,-4.82972 -29.87033,-16.99986 -33.99623,-20.56531 -4.1259,-3.56544 -10.26087,-9.84791 -12.70487,-12.90124 -2.444,-3.05199 -6.28648,-8.95591 -7.96781,-11.84923 3.04448,-5.77509 10.44175,-18.31036 13.63048,-23.22698 z m -14.46931,29.2891 c 2.95599,5.78533 8.94946,12.20266 13.29856,16.95875 4.34909,4.75608 11.88041,9.70436 15.97508,12.52436 7.89657,5.55324 21.04717,12.28835 22.92111,12.85197 1.87394,0.56361 37.4947,68.22156 37.4947,68.22156 0.67146,1.10231 1.05545,2.00184 2.32865,2.1624 1.07916,0.002 1.92619,-0.91875 1.92364,-1.9647 -1.13425,-17.48431 -1.19337,-44.85034 -1.57794,-57.29511 12.2262,-7.29643 12.82598,-24.64794 5.20065,-33.67993 -0.0999,-0.20907 -0.3466,-0.68551 -0.52539,-1.01758 0.30905,0.19623 4.92759,3.13141 7.94727,5.30274 3.12138,2.24446 7.50313,7.10955 10.50781,8.13671 16.65065,3.90377 26.9572,7.00348 42.03515,11.86329 7.90376,2.67405 10.66735,4.65903 14.37653,9.1181 3.53981,4.2897 7.93818,12.97003 11.81683,21.57135 3.29334,7.30532 5.71201,15.03099 7.13868,22.95898 1.14666,4.17067 2.12559,8.37323 2.93359,12.58789 0.048,0.25333 0.0909,0.50902 0.13086,0.76368 0.62934,4.01999 0.71003,8.15484 0.80469,12.21484 0.0427,1.83733 0.0668,3.67439 0.0508,5.51172 -0.009,1.17734 0.39136,3.9549 -0.55664,4.74023 -0.76267,0.632 -3.03538,-1.19559 -3.72071,-1.54492 -1.67067,-0.85333 -3.18017,-2.07128 -4.85351,-2.86328 -0.70266,-0.33333 -1.50095,-0.38211 -2.09961,-0.93945 -0.33867,-0.316 -0.48019,-0.8195 -0.71485,-1.1875 -0.64933,-1.016 -1.19712,-1.32384 -2.31445,-1.70117 -11.77466,-3.97466 -24.14807,-6.00599 -36.52539,-6.83399 -16.56131,-1.10667 -33.05324,-2.24026 -50.22656,-3.43359 l -153.82617,3.41601 c -0.0387,0.032 -2.0765,0.065 -2.11524,0.0957 -7.78532,6.30132 -14.42548,11.55113 -23.105467,16.34179 -8.886658,4.90266 -17.825802,10.42279 -27.205791,14.17612 -12.426104,5.41385 -24.024562,9.17748 -37.194318,14.75207 5.101956,-33.4336 11.026043,-89.08288 30.481453,-116.23718 2.249776,-0.30739 10.652644,0.27802 15.022246,3.86214 3.130049,2.81104 8.889958,8.71848 11.428621,11.38515 -3.599344,-6.23424 -6.746755,-10.29868 -11.696343,-14.91616 -5.483202,-3.3559 -7.511461,-4.2102 -11.900447,-3.90979 6.410506,-3.26287 36.201066,-15.30328 43.257036,-17.86648 7.05597,-2.5632 20.62065,-5.91716 28.88207,-8.8196 8.26141,-2.90244 12.8879,-5.6801 18.28569,-8.47418 5.3978,-2.79407 13.44455,-6.45424 17.65575,-9.25142 4.21119,-2.79717 6.49733,-2.677 8.26136,0.41848 z"
       sodipodi:nodetypes="cccczzzcccccczccczcccccccccsscccccccccscsccccccccccccccscsccccccccccccccccczcccczcccczczccsccssccccccccccccccccccccccccccczzzzcz" /><path
       d="m 166.40786,352.36173 c -13.788,1.07867 -41.09141,2.2892 -47.41674,2.93187 l 0.10802,1.98448 c 0,0 0.60202,20.67247 0.81871,42.72192 h 24.39935 c 0.988,-22.69334 5.00266,-38.22227 22.09066,-47.63827"
       style="opacity:0.199997;fill:#000000;fill-opacity:1;fill-rule:nonzero;stroke:none;stroke-width:1.33333"
       id="path283476"
       sodipodi:nodetypes="cccccc" /><path
       d="m 176.58986,354.74787 c 4.16667,0 9.35734,-0.596 13.644,0.0787 5.37734,0.84667 11.252,3.16667 16.60533,4.57467 4.82,1.268 9.93067,2.93733 14.808,3.392 5.33067,0.49867 9.59734,2.552 14.85067,3.85867 8.92667,2.22133 17.712,4.61733 26.58,6.37466 8.95333,1.77334 15.488,5.63467 23.57333,-0.756 3.796,-3 7.37067,-6.68933 11.23867,-9.76933 4.53067,-3.608 9.28533,-5.48267 14.72,-7.296 2.20133,-0.73467 4.416,-1.43333 6.60533,-2.20267 0.876,-0.308 3.648,-1.972 4.492,-1.81466 -7.468,-1.384 -28.83466,-2.71067 -36.684,-3.816 -9.848,-1.38534 -19.03066,-1.24534 -28.98933,-1.02 -11.48,0.25866 -22.93067,1.90933 -34.412,2.456 -11.78133,0.56266 -23.61333,0.036 -35.392,0.34266 -3.44266,0.0893 -9.14133,-0.50533 -11.648,1.39067 -4.23733,3.20533 1.11067,3.74133 0.008,4.20667"
       style="opacity:0.199997;fill:#000000;fill-opacity:1;fill-rule:nonzero;stroke:none;stroke-width:1.33333"
       id="path283492" /><path
       d="m 275.41649,269.6447 c -2.02327,2.83945 -3.64723,4.51303 -5.17445,6.09208 l -0.65778,-6.55171 0.26533,-7.68 c 1.02667,-1.524 4.72534,-6.69333 6.62667,-5.004 1.90497,5.00222 0.96351,10.30419 -1.05977,13.14363 z m -6.13031,32.64505 c -0.29867,2.46 -0.44059,-0.51801 -0.82992,-3.76068 -1.13467,-9.43467 -3.93067,-27.74533 -3.93067,-27.74533 0,0 2.65734,-0.432 3.66,-2.19867 l 1.07269,22.27026 m 7.71131,-44.71159 -8.428,3.94266 c 0,0 -3.37333,1.588 -0.92533,15.82934 -0.25067,0.58933 -0.488,1.06133 -0.69333,1.328 -0.384,0.49866 -2.19334,0.88933 -3.03334,1.19333 -3.256,-9.04667 0.77734,-19.536 1.536,-20.672 l -4.424,2.91733 c -0.60933,-0.11066 -2.86933,10.04934 -1.036,16.716 0.23067,0.83867 -0.24533,2.25867 -1.06666,2.164 -1.23067,-0.14266 -3.11467,0.27067 -3.24667,-0.524 -1.596,-9.62533 0.388,-17.56266 0.388,-17.56266 l -5.74667,-1.94 c 0,0 1.63734,1.93733 1.64134,2.86133 0.016,3.89467 -0.072,13.06533 0.0533,14.036 0.156,1.20267 -0.896,1.88267 -1.428,1.812 -2.976,-0.39733 -5.99867,-1.08933 -9.504,-1.85467 0,0 7.932,3.61867 11.868,4.21334 l 8.75867,47.128 3.11066,3.10266 -7.18666,-49.23466 3.45066,0.44266 c 0,0 4.288,25.796 6.404,44.24934 l -1.4,9.25866 8.19467,10.84933 c 0,0 -3.01788,-31.61068 -3.10522,-50.39904 -0.0106,-2.28181 8.8858,-11.03149 8.8858,-11.03149 4.01409,-5.32435 2.63009,-14.96946 -0.35521,-21.8588 -1.356,-3.69866 -2.712,-6.96666 -2.712,-6.96666"
       style="opacity:0.199997;fill:#000000;fill-opacity:1;fill-rule:nonzero;stroke:none;stroke-width:1.33333"
       id="path283508"
       sodipodi:nodetypes="zcccczccccccccscccsccccccccccccccccsccc" /><path
       d="m 320.10986,374.954 c -0.007,-0.0453 0.40533,-0.84667 0.40533,-0.84667 l 7.61067,-0.33333 -0.032,3.02533 -0.40533,-0.0307 c 0,0 -6.80667,0.43866 -7.13867,0.136 -0.33067,-0.30267 -0.43333,-1.90534 -0.44,-1.95067 m -1.67867,5.524 c 0.49467,0.76667 9.25334,1.86267 9.25334,1.86267 l 2.1,-13.14667 c 0,0 -8.41467,-0.11067 -9.59334,0.10933 -1.17733,0.21867 -2.14533,1.752 -2.244,4.05334 -0.1,2.30133 -0.012,6.35466 0.484,7.12133"
       style="fill:#d9a14b;fill-opacity:1;fill-rule:nonzero;stroke:none;stroke-width:1.33333"
       id="path283518" /><path
       d="m 348.54706,376.90493 c -0.19867,0.30267 -6.50267,-0.136 -6.50267,-0.136 l -0.356,0.0307 -1.04667,-3.02533 6.99467,0.33333 c 0,0 0.644,0.80133 0.652,0.84667 0.009,0.0453 0.45733,1.648 0.25867,1.95066 m 1.16133,-3.548 c -0.864,-2.30133 -2.256,-3.83466 -3.396,-4.05333 -1.13867,-0.22 -8.712,-0.11067 -8.712,-0.11067 l 6.32267,13.148 c 0,0 7.55333,-1.096 7.744,-1.86266 0.18933,-0.76667 -1.09467,-4.82134 -1.95867,-7.12134"
       style="fill:#d9a14b;fill-opacity:1;fill-rule:nonzero;stroke:none;stroke-width:1.33333"
       id="path283522" /><path
       d="m 327.17639,398.59747 c -0.16933,0 -0.348,-0.048 -0.52,-0.144 -0.40266,-0.228 -0.696,-0.68534 -0.75066,-1.172 -0.056,-0.49467 -1.35334,-12.216 -0.172,-20.72267 1.19866,-8.62533 4.01866,-17.97333 5.156,-20.19067 0.16266,-0.316 0.46533,-0.49066 0.80933,-0.472 0.34667,0.02 0.69467,0.232 0.93333,0.572 0.476,0.67334 11.69733,16.73067 16.464,38.38267 0.12533,0.56933 -0.0893,1.092 -0.52,1.272 -0.432,0.18133 -0.97067,-0.028 -1.31067,-0.508 -2.08133,-2.93733 -5.86933,-7.21067 -7.49733,-7.21067 -0.0213,0 -0.044,0 -0.064,0.003 -1.81467,0.13467 -8.06533,5.89067 -11.924,9.93467 -0.16133,0.16933 -0.376,0.256 -0.604,0.256"
       style="fill:#d9a14b;fill-opacity:1;fill-rule:nonzero;stroke:none;stroke-width:1.33333"
       id="path283526" /><path
       d="m 331.78079,356.72613 c -0.108,0 -0.20266,0.0587 -0.25333,0.15867 -1.11733,2.17733 -3.89467,11.40667 -5.08133,19.94933 -1.16667,8.39734 0.11866,20.00267 0.17333,20.49334 0.0187,0.16133 0.11733,0.31466 0.25067,0.39066 0.13066,0.0733 0.28266,0.0587 0.37466,-0.0373 2.62534,-2.752 9.94933,-9.93067 12.28267,-10.104 l 0.108,-0.004 c 2.27466,0 6.65733,5.48 8.15333,7.592 0.11333,0.16 0.29333,0.228 0.436,0.17067 0.14533,-0.0613 0.216,-0.236 0.17467,-0.42534 -4.72267,-21.44933 -15.82133,-37.32666 -16.29067,-37.992 -0.08,-0.11333 -0.196,-0.18533 -0.31066,-0.19066 -0.005,-0.001 -0.012,-0.001 -0.0173,-0.001 m -4.472,42.70267 c -0.28666,0 -0.58533,-0.0827 -0.86533,-0.24 -0.67067,-0.38 -1.16133,-1.14533 -1.252,-1.95333 -0.056,-0.49867 -1.36667,-12.33334 -0.16933,-20.952 1.20933,-8.70534 4.072,-18.17467 5.22933,-20.42934 0.26933,-0.52666 0.76933,-0.82533 1.34933,-0.78933 0.576,0.0333 1.15734,0.38933 1.556,0.95467 0.48133,0.68 11.82133,16.90533 16.63733,38.77333 0.208,0.94667 -0.148,1.81867 -0.868,2.11867 -0.71866,0.30133 -1.616,-0.0453 -2.184,-0.84534 -2.488,-3.51066 -5.812,-6.83066 -6.84133,-6.83066 -1.46667,0.108 -7.168,5.13733 -11.584,9.76666 -0.264,0.27467 -0.62133,0.42667 -1.008,0.42667"
       style="fill:#000000;fill-opacity:1;fill-rule:nonzero;stroke:none;stroke-width:1.33333"
       id="path283530" /><path
       d="m 332.15853,359.4808 c -1.26667,3.492 -3.332,11.02 -4.288,17.904 -0.80267,5.77467 -0.388,13.32933 -0.072,17.30933 3.032,-3.04666 8.87199,-8.592 11.37599,-8.77733 2.00934,-0.152 4.68267,2.31333 6.732,4.64 -4.06666,-15.004 -11.05733,-26.85467 -13.74799,-31.076"
       style="fill:#999999;fill-opacity:1;fill-rule:nonzero;stroke:none;stroke-width:1.33333"
       id="path283534" /><path
       d="m 346.05372,382.88827 c 0,0 5.57067,-0.876 5.992,-1.75334 0.42267,-0.876 -0.45333,-4.41733 -1.29733,-6.608 -0.84267,-2.192 -1.86133,-5.00533 -3.992,-5.55333 -2.13067,-0.54667 -7.17333,-0.876 -7.17333,-0.876 l 0.90666,2.08133 c 0,0 6.06934,0.0227 6.96134,0.65734 1.04266,0.74133 1.85866,2.07066 2.36133,3.944 0.48267,1.79866 1.53867,4.492 1.412,5.14933 -0.128,0.65733 -6.09867,1.20533 -6.09867,1.20533 z"
       style="fill:#000000;fill-opacity:1;fill-rule:nonzero;stroke:none;stroke-width:1.33333"
       id="path283538" /><path
       d="m 343.18746,376.3148 c 0,0 4.008,0.21867 4.852,0.21867 0.844,0 -0.0413,-1.972 -0.716,-1.972 -0.67467,0 -5.02134,-0.21867 -5.02134,-0.21867 l -0.168,-0.876 c 0,0 4.872,0.31867 5.548,0.328 0.67734,0.009 1.34934,2.19067 1.39067,2.84933 0.0427,0.65734 -1.392,0.65734 -2.152,0.65734 -0.75867,0 -3.48,-0.11067 -3.48,-0.11067 z"
       style="fill:#000000;fill-opacity:1;fill-rule:nonzero;stroke:none;stroke-width:1.33333"
       id="path283542" /><path
       d="m 325.53306,382.88827 c 0,0 -6.484,-0.876 -7.27733,-1.75334 -0.79334,-0.876 -1.028,-4.44933 -0.91067,-6.64 0.116,-2.192 0.5,-4.848 2.652,-5.396 2.152,-0.548 7.18667,-1.00133 7.18667,-1.00133 l -0.228,2.08133 c 0,0 -6.848,-0.15466 -7.452,0.65734 -0.47734,0.64266 -1.09867,2.54 -1.192,4.29333 -0.0933,1.75333 0.02,4.14267 0.404,4.8 0.38533,0.65733 7.19066,1.20533 7.19066,1.20533 z"
       style="fill:#000000;fill-opacity:1;fill-rule:nonzero;stroke:none;stroke-width:1.33333"
       id="path283546" /><path
       d="m 326.25613,376.3148 c 0,0 -4.35067,0.21867 -5.28267,0.21867 -0.93333,0 -0.688,-1.972 0.0573,-1.972 0.74667,0 5.47067,-0.21867 5.47067,-0.21867 l -0.14,-0.876 c 0,0 -5.268,0.31867 -6.012,0.328 -0.74533,0.009 -0.67733,2.19067 -0.47867,2.84933 0.19867,0.65734 1.784,0.65734 2.624,0.65734 0.84,0 3.808,-0.11067 3.808,-0.11067 z"
       style="fill:#000000;fill-opacity:1;fill-rule:nonzero;stroke:none;stroke-width:1.33333"
       id="path283550" /><path
       d="m 281.88171,288.72579 1.14575,-2.14784 c 0.13232,-0.24804 7.80137,34.7135 9.17719,45.6746 -1.94534,-0.232 -5.82104,-0.21164 -7.64385,-0.28097 -0.5152,-15.50814 -1.94419,-28.60481 -2.67909,-43.24579 z m 77.28121,58.79754 c -1.01473,-13.95626 -1.99344,-28.31752 -4.98907,-42.08478 -2.43156,-11.17487 -6.68911,-21.84678 -10.98094,-30.68984 -0.36133,-0.37067 -3.61691,0.0823 -2.22318,-1.03891 4.73336,11.10307 7.71444,19.57842 10.42914,31.58233 2.7147,12.00391 4.32588,24.39441 4.86128,36.43254 -0.052,-0.232 -4.26215,-1.13539 -4.26215,-1.13539 -1.89453,-21.87996 -8.86051,-48.89207 -16.83335,-68.47016 -0.77067,-0.73466 -1.99311,0.22497 -2.55444,-0.77507 1.69067,3.01333 6.48411,17.462 9.41346,28.47531 2.92934,11.01332 5.4691,20.57547 8.35665,40.10059 -2.04,-0.292 -3.76461,-0.68024 -6.03128,-1.02958 -2.95038,-27.1328 -10.95838,-49.80505 -18.48323,-70.3416 -0.67066,-0.53467 -1.71444,0.67609 -2.39578,0.16276 7.46977,21.73371 17.63461,49.26729 19.5492,69.88575 -2.292,-0.304 -4.67867,-0.56376 -7.27467,-0.89843 -2.58897,-26.2803 -12.1892,-48.85618 -21.6226,-72.71778 -1.00595,-0.16448 -8.27651,-1.16595 -1.88264,-0.24859 9.24615,24.69427 19.61935,51.84858 22.3833,72.86771 -2.39734,-0.30934 -4.68992,-0.84376 -7.20726,-1.16376 -5.84445,-33.13134 -11.90086,-49.4338 -25.08462,-74.1846 -0.78133,-0.41067 -2.27453,-0.5586 -3.06386,-0.96393 10.39011,19.05653 21.75466,50.37271 26.56616,74.93543 -4.18106,-0.27318 -8.62584,-1.01186 -9.38834,-1.10968 -2.77463,-9.35747 -4.32405,-17.93758 -6.00174,-25.61517 -1.6777,-7.67759 -10.5036,-30.49129 -19.22524,-52.89524 -1.18667,-0.608 -2.51564,-1.32642 -3.61431,-1.91576 6.59635,15.74789 18.31334,47.25209 20.53035,55.95551 2.217,8.70342 3.22927,15.33768 5.79854,24.14181 -2.64666,-0.328 -6.42453,-1.06943 -8.72319,-1.35209 -1.84281,-8.70346 -4.03578,-19.00668 -5.46912,-25.95155 -1.43335,-6.94487 -7.16631,-22.09446 -11.38716,-32.65015 l -1.73229,3.37209 c 6.39796,15.18022 8.47472,22.47062 10.44964,30.25094 1.97491,7.78031 4.26476,18.21848 5.70106,24.77224 -2.72666,-0.33733 -6.46455,-0.14269 -8.3531,-0.7393 -1.74683,-10.61443 -2.84536,-16.12558 -4.58516,-24.95343 -1.73981,-8.82786 -4.03802,-17.42374 -4.94868,-23.90241 1.45164,-3.10373 5.12271,-11.20994 5.35749,-15.4387 0.23478,-4.22877 -3.94259,-16.75417 -3.94259,-16.75417 -0.14133,-0.12267 -2.72709,-1.28584 -2.86175,-1.38051 3.11617,8.7303 3.97244,13.30689 4.08167,16.65804 0.10923,3.35114 -2.21759,9.73682 -2.94075,11.22871 -0.72316,1.49189 -6.24617,9.81632 -6.24617,9.81632 1.19085,18.34315 1.60904,31.3217 2.05487,47.86989 0,0 32.87186,3.26061 48.43452,4.82995 15.56267,1.56933 30.34133,7.06266 30.34133,7.06266"
       style="opacity:0.199997;fill:#000000;fill-opacity:1;fill-rule:nonzero;stroke:none;stroke-width:1.33333"
       id="path283560"
       sodipodi:nodetypes="csccccscczcccczcccccccccccccczcczcczcczcczczcczzccsc" /><path
       d="m 369.32599,346.07733 c -0.50533,-2.544 -0.888,-5.94 -1.26,-9.48 2.36267,3.49067 5.74667,9.37334 6.92,16.032 -2.396,-1.07066 -3.26633,-1.17162 -5.49063,-3.67276 m 10.3093,4.93676 c 0,0 -0.684,-0.0467 -1.692,-0.25733 -0.404,-3.28533 -2.24134,-13.06 -10.66667,-22.848 -1.12663,-4.7228 -1.83317,-8.83863 -2.50117,-11.21063 2.668,2.87867 8.2905,10.20263 11.74117,17.32263 0,0 -2.54517,-12.93463 -12.10117,-22.85596 -0.30533,-1.804 -0.70269,-3.10921 -1.51083,-5.93737 2.28267,1.84933 7.26933,6.224 10.084,11.34667 0,0 -2.37467,-9.77867 -10.144,-17.16534 -2.128,-4.32133 -4.261,-14.39886 -3.333,-15.05753 l -3.739,-2.5638 c 0,0 2.35227,12.68806 6.72027,36.78406 1.5303,11.26408 3.5344,26.52127 4.37573,28.9386 0.82533,2.372 9.67867,8.348 12.79067,8.39467 z"
       style="opacity:0.199997;fill:#000000;fill-opacity:1;fill-rule:nonzero;stroke:none;stroke-width:1.33333"
       id="path283576"
       sodipodi:nodetypes="ccccccccccccccccccc" /><path
       d="m 371.32146,366.88627 c -3,-6.6 -2.29913,-15.55053 -3.72046,-22.6332 -1.616,-8.052 -2.56261,-17.8694 -3.73194,-26.01207 -1.67467,-11.66667 -6.91897,-34.14933 -7.3683,-35.172 -0.94533,-2.14667 -4.50854,-3.80279 -6.1952,-5.43213 3.7804,11.63467 6.86863,23.93613 9.1033,35.48946 1.26267,6.528 2.13347,13.71074 3.0308,20.32941 1.07867,7.948 1.6371,14.54643 1.61274,23.00523 2.072,8.768 12.31572,35.10796 14.59172,43.5053 h 5.984 c -1.748,-8.07734 -9.2323,-23.98064 -14.83096,-36.29797"
       style="fill:#000000;fill-opacity:1;fill-rule:nonzero;stroke:none;stroke-width:1.33333"
       id="path283586"
       sodipodi:nodetypes="cccccsccccc" /></g></svg>
