<?xml version="1.0" encoding="UTF-8" standalone="no"?>
<!-- Created with Inkscape (http://www.inkscape.org/) -->

<svg
   version="1.1"
   id="svg22045"
   width="400"
   height="400"
   viewBox="0 0 400 400"
   sodipodi:docname="LtJGRankPip.svg"
   inkscape:version="1.2.2 (b0a8486, 2022-12-01)"
   xmlns:inkscape="http://www.inkscape.org/namespaces/inkscape"
   xmlns:sodipodi="http://sodipodi.sourceforge.net/DTD/sodipodi-0.dtd"
   xmlns="http://www.w3.org/2000/svg"
   xmlns:svg="http://www.w3.org/2000/svg">
  <defs
     id="defs22049">
    <clipPath
       clipPathUnits="userSpaceOnUse"
       id="clipPath22061">
      <path
         d="M 0,300 H 300 V 0 H 0 Z"
         id="path22059" />
    </clipPath>
    <clipPath
       clipPathUnits="userSpaceOnUse"
       id="clipPath22089">
      <path
         d="m 146.006,277.969 h 73.146 v -152.59 h -73.146 z"
         id="path22087" />
    </clipPath>
    <clipPath
       clipPathUnits="userSpaceOnUse"
       id="clipPath22173">
      <path
         d="m 134.842,154.031 h 47.503 v -52.522 h -47.503 z"
         id="path22171" />
    </clipPath>
    <clipPath
       clipPathUnits="userSpaceOnUse"
       id="clipPath22189">
      <path
         d="M 60.0336,143.884 H 196.46 V 44.6548 H 60.0336 Z"
         id="path22187" />
    </clipPath>
    <clipPath
       clipPathUnits="userSpaceOnUse"
       id="clipPath22209">
      <path
         d="m 207.998,124.034 h 66.869 V 41.9517 h -66.869 z"
         id="path22207" />
    </clipPath>
    <clipPath
       clipPathUnits="userSpaceOnUse"
       id="clipPath22225">
      <path
         d="M 12.7352,96.1307 H 87.7785 V 13.8165 H 12.7352 Z"
         id="path22223" />
    </clipPath>
    <clipPath
       clipPathUnits="userSpaceOnUse"
       id="clipPath22241">
      <path
         d="M 39.6054,99.692 H 60.994 V 87.9429 H 39.6054 Z"
         id="path22239" />
    </clipPath>
    <clipPath
       clipPathUnits="userSpaceOnUse"
       id="clipPath22257">
      <path
         d="M 19.9327,73.8295 H 27.238 V 56.2568 h -7.3053 z"
         id="path22255" />
    </clipPath>
    <clipPath
       clipPathUnits="userSpaceOnUse"
       id="clipPath22273">
      <path
         d="m 279.351,83.9444 h 8.991 V 28.2746 h -8.991 z"
         id="path22271" />
    </clipPath>
    <clipPath
       clipPathUnits="userSpaceOnUse"
       id="clipPath22289">
      <path
         d="M 10.2357,145.507 H 158.769 V 0.0249023 H 10.2357 Z"
         id="path22287" />
    </clipPath>
    <clipPath
       clipPathUnits="userSpaceOnUse"
       id="clipPath22305">
      <path
         d="M 91.6411,35.1519 H 116.994 V 0.0249023 H 91.6411 Z"
         id="path22303" />
    </clipPath>
    <clipPath
       clipPathUnits="userSpaceOnUse"
       id="clipPath22321">
      <path
         d="m 180.793,115.392 h 31.003 V 47.7004 h -31.003 z"
         id="path22319" />
    </clipPath>
    <clipPath
       clipPathUnits="userSpaceOnUse"
       id="clipPath22337">
      <path
         d="M 0,300 H 300 V 0 H 0 Z"
         id="path22335" />
    </clipPath>
    <clipPath
       clipPathUnits="userSpaceOnUse"
       id="clipPath22365">
      <path
         d="m 145.568,277.969 h 89.357 V 124.543 h -89.357 z"
         id="path22363" />
    </clipPath>
    <clipPath
       clipPathUnits="userSpaceOnUse"
       id="clipPath22381">
      <path
         d="M 0,300 H 300 V 0 H 0 Z"
         id="path22379" />
    </clipPath>
    <clipPath
       clipPathUnits="userSpaceOnUse"
       id="clipPath22453">
      <path
         d="m 207.998,124.034 h 66.7 V 44.4077 h -66.7 z"
         id="path22451" />
    </clipPath>
    <clipPath
       clipPathUnits="userSpaceOnUse"
       id="clipPath22469">
      <path
         d="m 279.351,83.9444 h 8.991 V 28.2746 h -8.991 z"
         id="path22467" />
    </clipPath>
    <clipPath
       clipPathUnits="userSpaceOnUse"
       id="clipPath22485">
      <path
         d="M 11.9564,107.989 H 87.3171 V 30.6538 H 11.9564 Z"
         id="path22483" />
    </clipPath>
    <clipPath
       clipPathUnits="userSpaceOnUse"
       id="clipPath22501">
      <path
         d="m 59.217,151.573 h 134.48 V 47.8951 H 59.217 Z"
         id="path22499" />
    </clipPath>
    <clipPath
       clipPathUnits="userSpaceOnUse"
       id="clipPath22517">
      <path
         d="M 9.51097,151.818 H 154.199 V 0.0248718 H 9.51097 Z"
         id="path22515" />
    </clipPath>
    <clipPath
       clipPathUnits="userSpaceOnUse"
       id="clipPath22533">
      <path
         d="M 91.4501,40.3777 H 116.418 V 2.48105 H 91.4501 Z"
         id="path22531" />
    </clipPath>
    <clipPath
       clipPathUnits="userSpaceOnUse"
       id="clipPath22549">
      <path
         d="m 129.811,158.672 h 52.534 v -57.163 h -52.534 z"
         id="path22547" />
    </clipPath>
    <clipPath
       clipPathUnits="userSpaceOnUse"
       id="clipPath22565">
      <path
         d="m 180.793,115.392 h 31.003 V 47.7004 h -31.003 z"
         id="path22563" />
    </clipPath>
    <clipPath
       clipPathUnits="userSpaceOnUse"
       id="clipPath22581">
      <path
         d="M 0,300 H 300 V 0 H 0 Z"
         id="path22579" />
    </clipPath>
    <clipPath
       clipPathUnits="userSpaceOnUse"
       id="clipPath22597">
      <path
         d="M 0,300 H 300 V 0 H 0 Z"
         id="path22595" />
    </clipPath>
    <clipPath
       clipPathUnits="userSpaceOnUse"
       id="clipPath22621">
      <path
         d="M 0,300 H 300 V 0 H 0 Z"
         id="path22619" />
    </clipPath>
    <clipPath
       clipPathUnits="userSpaceOnUse"
       id="clipPath22633">
      <path
         d="m 143,265.641 h 99.11 V 192.667 H 143 Z"
         id="path22631" />
    </clipPath>
    <clipPath
       clipPathUnits="userSpaceOnUse"
       id="clipPath22653">
      <path
         d="M 0,300 H 300 V 0 H 0 Z"
         id="path22651" />
    </clipPath>
    <clipPath
       clipPathUnits="userSpaceOnUse"
       id="clipPath22665">
      <path
         d="m 141.195,284.065 h 63.787 v -91.398 h -63.787 z"
         id="path22663" />
    </clipPath>
    <clipPath
       clipPathUnits="userSpaceOnUse"
       id="clipPath22689">
      <path
         d="M 0,300 H 300 V 0 H 0 Z"
         id="path22687" />
    </clipPath>
    <clipPath
       clipPathUnits="userSpaceOnUse"
       id="clipPath22705">
      <path
         d="m 146.5,205.084 h 11.643 v -17.52 H 146.5 Z"
         id="path22703" />
    </clipPath>
    <clipPath
       clipPathUnits="userSpaceOnUse"
       id="clipPath22737">
      <path
         d="M 0,300 H 300 V 0 H 0 Z"
         id="path22735" />
    </clipPath>
    <clipPath
       clipPathUnits="userSpaceOnUse"
       id="clipPath22749">
      <path
         d="m 146.09,214.922 h 12.566 V 183.669 H 146.09 Z"
         id="path22747" />
    </clipPath>
    <clipPath
       clipPathUnits="userSpaceOnUse"
       id="clipPath22765">
      <path
         d="m 152.488,184.652 h 12.163 v -10.1 h -12.163 z"
         id="path22763" />
    </clipPath>
    <clipPath
       clipPathUnits="userSpaceOnUse"
       id="clipPath22805">
      <path
         d="M 0,300 H 300 V 0 H 0 Z"
         id="path22803" />
    </clipPath>
    <clipPath
       clipPathUnits="userSpaceOnUse"
       id="clipPath22813">
      <path
         d="m 222.339,150.153 h 22.222 v -6.115 h -22.222 z"
         id="path22811" />
    </clipPath>
    <clipPath
       clipPathUnits="userSpaceOnUse"
       id="clipPath22829">
      <path
         d="m 215.718,157.202 h 31.66 v -3.736 h -31.66 z"
         id="path22827" />
    </clipPath>
    <clipPath
       clipPathUnits="userSpaceOnUse"
       id="clipPath22857">
      <path
         d="M 0,300 H 300 V 0 H 0 Z"
         id="path22855" />
    </clipPath>
    <clipPath
       clipPathUnits="userSpaceOnUse"
       id="clipPath22865">
      <path
         d="m 226.053,200.386 h 5.424 v -23.865 h -5.424 z"
         id="path22863" />
    </clipPath>
    <clipPath
       clipPathUnits="userSpaceOnUse"
       id="clipPath22881">
      <path
         d="M 226.053,173.927 H 245.28 V 163.448 H 226.053 Z"
         id="path22879" />
    </clipPath>
    <clipPath
       clipPathUnits="userSpaceOnUse"
       id="clipPath22913">
      <path
         d="M 0,300 H 300 V 0 H 0 Z"
         id="path22911" />
    </clipPath>
    <clipPath
       clipPathUnits="userSpaceOnUse"
       id="clipPath22921">
      <path
         d="m 241.123,195.281 h 13.732 v -7.154 h -13.732 z"
         id="path22919" />
    </clipPath>
    <clipPath
       clipPathUnits="userSpaceOnUse"
       id="clipPath22937">
      <path
         d="M 239.614,208.359 H 260.74 V 197.448 H 239.614 Z"
         id="path22935" />
    </clipPath>
    <clipPath
       clipPathUnits="userSpaceOnUse"
       id="clipPath22953">
      <path
         d="m 230.007,205.743 v 0 0 z"
         id="path22951" />
    </clipPath>
    <clipPath
       clipPathUnits="userSpaceOnUse"
       id="clipPath22965">
      <path
         d="m 195.859,210.494 h 36.375 v -22.692 h -36.375 z"
         id="path22963" />
    </clipPath>
    <clipPath
       clipPathUnits="userSpaceOnUse"
       id="clipPath23057">
      <path
         d="M 0,300 H 300 V 0 H 0 Z"
         id="path23055" />
    </clipPath>
    <clipPath
       clipPathUnits="userSpaceOnUse"
       id="clipPath23141">
      <path
         d="m 241.123,195.281 h 13.732 v -7.154 h -13.732 z"
         id="path23139" />
    </clipPath>
    <clipPath
       clipPathUnits="userSpaceOnUse"
       id="clipPath23157">
      <path
         d="M 239.614,212.099 H 260.74 V 197.448 H 239.614 Z"
         id="path23155" />
    </clipPath>
    <clipPath
       clipPathUnits="userSpaceOnUse"
       id="clipPath23173">
      <path
         d="m 207.905,207.836 h 22.102 v -2.093 h -22.102 z"
         id="path23171" />
    </clipPath>
    <clipPath
       clipPathUnits="userSpaceOnUse"
       id="clipPath23189">
      <path
         d="m 198.531,212.167 h 33.086 v -24.365 h -33.086 z"
         id="path23187" />
    </clipPath>
  </defs>
  <sodipodi:namedview
     id="namedview22047"
     pagecolor="#ffffff"
     bordercolor="#666666"
     borderopacity="1.0"
     inkscape:showpageshadow="2"
     inkscape:pageopacity="0.0"
     inkscape:pagecheckerboard="0"
     inkscape:deskcolor="#d1d1d1"
     showgrid="false"
     inkscape:zoom="1.475"
     inkscape:cx="199.66102"
     inkscape:cy="200"
     inkscape:window-width="1440"
     inkscape:window-height="810"
     inkscape:window-x="2487"
     inkscape:window-y="264"
     inkscape:window-maximized="0"
     inkscape:current-layer="2Pips">
    <inkscape:page
       x="0"
       y="0"
       id="page22051"
       width="400"
       height="400" />
  </sodipodi:namedview>
  <g
     id="2Pips"
     inkscape:groupmode="layer"
     inkscape:label="Page 1">
    <path
       d="m 237.47786,247.46707 c -2.32533,0 -4.20933,1.884 -4.20933,4.20933 0,2.32534 1.884,4.20934 4.20933,4.20934 2.32533,0 4.20933,-1.884 4.20933,-4.20934 0,-2.32533 -1.884,-4.20933 -4.20933,-4.20933"
       style="fill:#fbb03b;fill-opacity:1;fill-rule:nonzero;stroke:none;stroke-width:1.33333"
       id="path22601" />
    <path
       d="m 237.47786,248.00854 c -2.02533,0 -3.668,1.64266 -3.668,3.668 0,2.02533 1.64267,3.668 3.668,3.668 2.02533,0 3.668,-1.64267 3.668,-3.668 0,-2.02534 -1.64267,-3.668 -3.668,-3.668 m 4.88933,3.81066 c 0,2.63867 -2.13866,4.77734 -4.77733,4.77734 -2.63733,0 -4.776,-2.13867 -4.776,-4.77734 0,-2.63733 2.13867,-4.776 4.776,-4.776 2.63867,0 4.77733,2.13867 4.77733,4.776"
       style="fill:#000000;fill-opacity:1;fill-rule:nonzero;stroke:none;stroke-width:1.33333"
       id="path22605" />
    <path
       d="m 226.52693,241.0672 c -2.32534,0 -4.20934,1.884 -4.20934,4.20934 0,2.32533 1.884,4.20933 4.20934,4.20933 2.32533,0 4.20933,-1.884 4.20933,-4.20933 0,-2.32534 -1.884,-4.20934 -4.20933,-4.20934"
       style="fill:#fbb03b;fill-opacity:1;fill-rule:nonzero;stroke:none;stroke-width:1.33333"
       id="path22609" />
    <path
       d="m 226.52693,241.60867 c -2.02534,0 -3.668,1.64267 -3.668,3.668 0,2.02533 1.64266,3.668 3.668,3.668 2.02533,0 3.668,-1.64267 3.668,-3.668 0,-2.02533 -1.64267,-3.668 -3.668,-3.668 m 4.88933,3.81067 c 0,2.63866 -2.13867,4.77733 -4.77733,4.77733 -2.63734,0 -4.776,-2.13867 -4.776,-4.77733 0,-2.63734 2.13866,-4.776 4.776,-4.776 2.63866,0 4.77733,2.13866 4.77733,4.776"
       style="fill:#000000;fill-opacity:1;fill-rule:nonzero;stroke:none;stroke-width:1.33333"
       id="path22613" />
  </g>
</svg>
