<?xml version="1.0" encoding="UTF-8" standalone="no"?>
<!-- Created with Inkscape (http://www.inkscape.org/) -->

<svg
   width="400"
   height="400"
   viewBox="0 0 400 400"
   version="1.1"
   id="svg131556"
   xml:space="preserve"
   inkscape:version="1.3.1 (91b66b0, 2023-11-16)"
   sodipodi:docname="masterChiefPettyOfficer.svg"
   xmlns:inkscape="http://www.inkscape.org/namespaces/inkscape"
   xmlns:sodipodi="http://sodipodi.sourceforge.net/DTD/sodipodi-0.dtd"
   xmlns="http://www.w3.org/2000/svg"
   xmlns:svg="http://www.w3.org/2000/svg"><sodipodi:namedview
     id="namedview131558"
     pagecolor="#ffffff"
     bordercolor="#666666"
     borderopacity="1.0"
     inkscape:showpageshadow="2"
     inkscape:pageopacity="0.0"
     inkscape:pagecheckerboard="0"
     inkscape:deskcolor="#d1d1d1"
     inkscape:document-units="px"
     showgrid="false"
     showguides="true"
     inkscape:zoom="23.6"
     inkscape:cx="231.94915"
     inkscape:cy="251.46186"
     inkscape:window-width="1440"
     inkscape:window-height="810"
     inkscape:window-x="2527"
     inkscape:window-y="363"
     inkscape:window-maximized="0"
     inkscape:current-layer="g144848" /><defs
     id="defs131553" /><g
     inkscape:label="Layer 1"
     inkscape:groupmode="layer"
     id="layer1"
     style="display:inline"><g
       id="g144848"><path
         style="fill:#a1b7cc;fill-opacity:1;stroke:#a1b7cc;stroke-width:0.400393;stroke-linecap:butt;stroke-linejoin:miter;stroke-dasharray:none;stroke-opacity:1"
         d="m 228.24801,242.35683 12.71512,6.86982 1.01368,3.47707 -3.03947,5.62565 -3.37082,0.88569 -12.71512,-6.86983 z"
         id="path132489" /><path
         style="fill:#4d6372;fill-opacity:1;stroke:#000000;stroke-width:0.177902px;stroke-linecap:butt;stroke-linejoin:miter;stroke-opacity:1"
         d="m 228.45618,243.05431 11.94505,6.45377 0.98918,3.19822 -2.76388,5.11557 -3.1326,0.76896 -11.94505,-6.45377 z"
         id="path132497" /><path
         style="fill:#a1b7cc;fill-opacity:1;stroke:#000000;stroke-width:0.19248px;stroke-linecap:butt;stroke-linejoin:miter;stroke-opacity:1"
         d="m 229.80202,244.21616 1.2629,0.68234 -0.97698,1.80823 1.19447,3.76016 -3.86175,1.17664 -0.89945,1.66473 -1.26289,-0.68233 1.07002,-1.98045 3.38633,-0.91439 -1.07572,-3.36225 z"
         id="path132517" /><path
         style="fill:#a1b7cc;fill-opacity:1;stroke:#000000;stroke-width:0.19248px;stroke-linecap:butt;stroke-linejoin:miter;stroke-opacity:1"
         d="m 232.50003,245.67387 1.2629,0.68233 -0.97697,1.80824 1.19447,3.76015 -3.86176,1.17665 -0.89944,1.66473 -1.2629,-0.68233 1.07002,-1.98046 3.38633,-0.91439 -1.07571,-3.36224 z"
         id="path132519" /><path
         style="fill:#a1b7cc;fill-opacity:1;stroke:#000000;stroke-width:0.19248px;stroke-linecap:butt;stroke-linejoin:miter;stroke-opacity:1"
         d="m 235.39896,247.24012 1.2629,0.68234 -0.97697,1.80824 1.19447,3.76014 -3.86176,1.17665 -0.89944,1.66473 -1.2629,-0.68232 1.07002,-1.98046 3.38633,-0.91439 -1.07571,-3.36226 z"
         id="path132521" /><circle
         style="fill:#a1b7cc;fill-opacity:1;stroke:#000000;stroke-width:0.19248;stroke-miterlimit:40;stroke-dasharray:none;stroke-opacity:1"
         id="path132523"
         cx="329.21188"
         cy="107.73019"
         r="0.86615855"
         transform="rotate(28.381823)" /><circle
         style="fill:#a1b7cc;fill-opacity:1;stroke:#000000;stroke-width:0.19248;stroke-miterlimit:40;stroke-dasharray:none;stroke-opacity:1"
         id="circle132525"
         cx="331.18564"
         cy="110.47058"
         r="0.86615855"
         transform="rotate(28.381823)" /><circle
         style="fill:#a1b7cc;fill-opacity:1;stroke:#000000;stroke-width:0.19248;stroke-miterlimit:40;stroke-dasharray:none;stroke-opacity:1"
         id="circle132527"
         cx="329.21188"
         cy="113.37409"
         r="0.86615855"
         transform="rotate(28.381823)" /></g></g><g
     inkscape:label="Border Insignia"
     inkscape:groupmode="layer"
     id="g146367"
     style="display:none"><g
       id="g146487"><path
         style="fill:#a1b7cc;fill-opacity:1;stroke:#000000;stroke-width:1.27689;stroke-linecap:butt;stroke-linejoin:miter;stroke-dasharray:none;stroke-opacity:1"
         d="m 86.671255,327.06801 37.848765,26.30097 1.97385,11.38044 -11.63655,16.74572 -10.99812,1.60609 -37.848761,-26.30101 z"
         id="path146349" /><path
         style="fill:#4d6372;fill-opacity:1;stroke:#000000;stroke-width:0.567347px;stroke-linecap:butt;stroke-linejoin:miter;stroke-opacity:1"
         d="m 87.082511,329.35258 35.556519,24.70813 1.99554,10.48799 -10.58146,15.22738 -10.20158,1.32101 -35.55652,-24.70813 z"
         id="path146351" /><path
         style="fill:#a1b7cc;fill-opacity:1;stroke:#000000;stroke-width:0.613838px;stroke-linecap:butt;stroke-linejoin:miter;stroke-opacity:1"
         d="m 90.93378,333.51408 3.759237,2.61232 -3.740338,5.3825 2.445953,12.34199 -12.657591,2.35326 -3.443515,4.95535 -3.75921,-2.61228 4.096546,-5.89515 11.057496,-1.69151 -2.211367,-11.03865 z"
         id="path146353" /><path
         style="fill:#a1b7cc;fill-opacity:1;stroke:#000000;stroke-width:0.613838px;stroke-linecap:butt;stroke-linejoin:miter;stroke-opacity:1"
         d="m 98.964873,339.09489 3.759237,2.61229 -3.740307,5.38254 2.445957,12.34195 -12.657626,2.35329 -3.443484,4.95536 -3.759241,-2.61229 4.096549,-5.89518 11.057496,-1.69151 -2.211338,-11.03862 z"
         id="path146355" /><path
         style="fill:#a1b7cc;fill-opacity:1;stroke:#000000;stroke-width:0.613838px;stroke-linecap:butt;stroke-linejoin:miter;stroke-opacity:1"
         d="m 107.59404,345.09125 3.75924,2.61232 -3.74031,5.38254 2.44596,12.34193 -12.657625,2.35328 -3.443484,4.95536 -3.759244,-2.61226 4.096549,-5.89518 11.057494,-1.69151 -2.21133,-11.03868 z"
         id="path146357" /><circle
         style="fill:#a1b7cc;fill-opacity:1;stroke:#000000;stroke-width:0.613838;stroke-miterlimit:40;stroke-dasharray:none;stroke-opacity:1"
         id="circle146359"
         cx="299.89856"
         cy="228.69986"
         r="2.7622666"
         transform="rotate(34.795326)" /><circle
         style="fill:#a1b7cc;fill-opacity:1;stroke:#000000;stroke-width:0.613838;stroke-miterlimit:40;stroke-dasharray:none;stroke-opacity:1"
         id="circle146361"
         cx="306.19308"
         cy="237.43925"
         r="2.7622666"
         transform="rotate(34.795326)" /><circle
         style="fill:#a1b7cc;fill-opacity:1;stroke:#000000;stroke-width:0.613838;stroke-miterlimit:40;stroke-dasharray:none;stroke-opacity:1"
         id="circle146363"
         cx="299.89856"
         cy="246.69885"
         r="2.7622666"
         transform="rotate(34.795326)" /></g></g><g
     inkscape:groupmode="layer"
     id="layer10"
     inkscape:label="Original"
     sodipodi:insensitive="true"
     style="display:none"><g
       id="g144778"><path
         style="fill:#a1b7cc;fill-opacity:1;stroke:#000000;stroke-width:1px;stroke-linecap:butt;stroke-linejoin:miter;stroke-opacity:1"
         d="m 158.81356,169.66102 h 75.08475 l 13.22033,13.38983 v 33.22034 l -13.22033,12.37288 h -75.08475 z"
         id="path144762" /><path
         style="fill:#4d6372;fill-opacity:1;stroke:#000000;stroke-width:0.924261px;stroke-linecap:butt;stroke-linejoin:miter;stroke-opacity:1"
         d="m 161.48756,172.33502 h 70.53742 l 12.41967,12.17577 v 30.20825 l -12.41967,11.25103 h -70.53742 z"
         id="path144764" /><path
         style="fill:#a1b7cc;fill-opacity:1;stroke:#000000;stroke-width:1px;stroke-linecap:butt;stroke-linejoin:miter;stroke-opacity:1"
         d="m 170.50847,174.32204 h 7.45763 v 10.67797 l 14.74576,14.23729 -14.74576,14.91524 v 9.83051 h -7.45763 v -11.69491 l 13.22034,-12.54237 -13.22034,-12.71186 z"
         id="path144766" /><path
         style="fill:#a1b7cc;fill-opacity:1;stroke:#000000;stroke-width:1px;stroke-linecap:butt;stroke-linejoin:miter;stroke-opacity:1"
         d="m 186.44067,174.32204 h 7.45763 v 10.67797 l 14.74576,14.23729 -14.74576,14.91524 v 9.83051 h -7.45763 v -11.69491 l 13.22034,-12.54237 -13.22034,-12.71186 z"
         id="path144768" /><path
         style="fill:#a1b7cc;fill-opacity:1;stroke:#000000;stroke-width:1px;stroke-linecap:butt;stroke-linejoin:miter;stroke-opacity:1"
         d="m 203.55931,174.32204 h 7.45763 v 10.67797 l 14.74576,14.23729 -14.74576,14.91524 v 9.83051 h -7.45763 v -11.69492 l 13.22034,-12.54237 -13.22034,-12.71186 z"
         id="path144770" /><circle
         style="opacity:1;fill:#a1b7cc;fill-opacity:1;stroke:#000000;stroke-width:1;stroke-miterlimit:40;stroke-dasharray:none;stroke-opacity:1"
         id="circle144772"
         cx="227.37289"
         cy="185.25423"
         r="4.5" /><circle
         style="opacity:1;fill:#a1b7cc;fill-opacity:1;stroke:#000000;stroke-width:1;stroke-miterlimit:40;stroke-dasharray:none;stroke-opacity:1"
         id="circle144774"
         cx="237.62712"
         cy="199.49152"
         r="4.5" /><circle
         style="opacity:1;fill:#a1b7cc;fill-opacity:1;stroke:#000000;stroke-width:1;stroke-miterlimit:40;stroke-dasharray:none;stroke-opacity:1"
         id="circle144776"
         cx="227.37289"
         cy="214.57626"
         r="4.5" /></g></g></svg>
