<?xml version="1.0" encoding="UTF-8" standalone="no"?>
<!-- Created with Inkscape (http://www.inkscape.org/) -->

<svg
   version="1.1"
   id="svg3467"
   width="400"
   height="400"
   viewBox="0 0 400 400"
   sodipodi:docname="AndorianForehead.svg"
   inkscape:version="1.2.2 (b0a8486, 2022-12-01)"
   xmlns:inkscape="http://www.inkscape.org/namespaces/inkscape"
   xmlns:sodipodi="http://sodipodi.sourceforge.net/DTD/sodipodi-0.dtd"
   xmlns="http://www.w3.org/2000/svg"
   xmlns:svg="http://www.w3.org/2000/svg">
  <defs
     id="defs3471" />
  <sodipodi:namedview
     id="namedview3469"
     pagecolor="#ffffff"
     bordercolor="#666666"
     borderopacity="1.0"
     inkscape:showpageshadow="2"
     inkscape:pageopacity="0.0"
     inkscape:pagecheckerboard="0"
     inkscape:deskcolor="#d1d1d1"
     showgrid="false"
     inkscape:zoom="1.475"
     inkscape:cx="199.66102"
     inkscape:cy="200"
     inkscape:window-width="1440"
     inkscape:window-height="810"
     inkscape:window-x="2702"
     inkscape:window-y="344"
     inkscape:window-maximized="0"
     inkscape:current-layer="g3475">
    <inkscape:page
       x="0"
       y="0"
       id="page3473"
       width="400"
       height="400" />
  </sodipodi:namedview>
  <g
     id="g3475"
     inkscape:groupmode="layer"
     inkscape:label="Page 1">
    <path
       id="path6981"
       style="opacity:0.199997;fill:#000000;fill-opacity:1;fill-rule:nonzero;stroke:none;stroke-width:1.33333"
       d="m 342.63412,95.586141 c -0.57466,0.402667 -0.94533,0.958667 -1.47066,1.4 -0.748,0.625333 -1.592,1.036 -2.44267,1.516 -0.244,0.137333 -0.65067,0.416 -0.91867,0.468 0.988,-0.194667 2.06534,-0.466667 3.024,-0.882667 0.704,-0.305333 1.24267,-0.768 1.60934,-1.36 0.244,-0.394666 0.248,-0.774666 0.19866,-1.141333 m -1.83533,-5.245333 c 0,0 0.048,2.905333 -4.40133,5.642666 0,0 2.91866,-1.004 4.07866,-2.073333 1.16534,-1.073333 1.07467,-3.289333 0.32267,-3.569333 M 269.45706,76.346141 c 0.0133,0.012 9.54133,8.294667 17.384,8.977334 2.82533,0.245333 5.604,0.729333 8.29733,1.313333 3.93734,0.853333 7.132,3.006666 10.336,4.698666 1.86667,0.985334 3.21067,2.392 4.92534,3.405334 1.424,0.841333 3.14666,1.657333 4.732,2.072 2.95333,0.773333 7.18533,0.136 9.46533,-1.356 1.73467,-1.134667 2.68667,-2.72 3.832,-4.188 1.19333,-1.532 4.48267,-4.153334 5.41466,-5.841333 1.51067,-2.734667 2.05067,-6.556 1.656,-9.621334 0.14934,1.162667 -0.6,2.454667 -0.95333,3.545334 -1.432,4.413333 -3.65333,8.751999 -8.44,11.487999 -5.44133,3.113334 -11.90133,1.258667 -16.332,-2.278666 -4.65733,-3.717333 -19.46933,-6.069333 -22.592,-5.628 -2.20666,0.312 -4.04933,-1.136 -5.748,-2.305333 -1.352,-0.932 -2.85866,-1.768 -4.11333,-2.910667 -0.772,-0.704 -1.36,-1.578667 -2.19333,-2.232 -0.65734,-0.514667 -1.04667,-1.049333 -1.63734,-1.616 -0.308,-0.297333 -1.17733,-1.489333 -1.56933,-0.901333 -0.144,0.214667 0.27067,1.329333 0.39867,1.605333 0.26666,0.573333 1.56266,4.014667 2.33466,3.957333 -0.44933,0.03333 -0.85333,-0.372 -1.228,-0.562666 -0.47466,-0.242667 -0.916,-0.346667 -1.43466,-0.402667 -1.02934,-0.109333 -1.74267,-0.529333 -2.53467,-1.218667 m 10.53987,17.293867 c -2.73734,-0.102667 -6.97467,-0.376 -8.54134,-1.130667 0,0 2.13734,2.268 5.07867,2.258667 2.92133,-0.008 7.63733,-0.744 9.70667,-0.554667 2.056,0.189333 -4.36534,-0.502667 -6.244,-0.573333 m 8.0432,-0.7288 c 0,0 -4.96134,-2.170667 -7.24267,-2.425334 -2.29733,-0.256 -9.256,-0.752 -10.93867,-1.962666 0,0 3.72534,2.356 7.95334,2.637333 4.18266,0.277333 10.228,1.750667 10.228,1.750667 m 50.24973,-4.658667 c -0.0933,0.129333 0.008,0.853333 -0.0147,1.073333 -0.0453,0.426667 -0.136,0.846667 -0.28267,1.248 -0.28,0.764 -0.756,1.426667 -1.33333,1.993334 -1.432,1.402666 -3.36533,2.345333 -4.96666,3.544 -1.01734,0.761333 -1.99867,1.570666 -2.91067,2.456 -2.09067,2.034662 -3.976,4.778662 -7.444,5.148002 -9.01067,0.96 -14.15333,-3.12134 -18.824,-6.180002 -4.83067,-3.164 -17.91467,-8.357334 -23.47867,-9.401334 -5.67466,-1.065333 -8.47066,-2.885333 -8.47066,-2.885333 7.99466,2.238667 12.55733,2.737333 17.25333,4.218667 7.47067,2.354666 12.81733,4.757333 16.952,7.637333 2.93733,2.045333 5.052,4.306669 9.864,5.501329 1.82533,0.45334 3.88933,0.75867 5.828,0.536 1.72533,-0.19866 2.97067,-1.116 3.984,-2.06133 1.14133,-1.06533 2.00267,-2.331999 3.36133,-3.485332 1.74134,-1.481334 3.85334,-2.573334 5.75467,-3.881334 0.98,-0.673333 1.92133,-1.410666 2.72533,-2.290666 0.88267,-0.965334 1.256,-2.126667 2.00267,-3.170667 m -61.51864,9.741733 c 0,0 8.792,-0.817333 15.74,2.141336 6.69334,2.85066 17.62134,10.80133 24.32267,10.548 6.604,-0.25067 12.32133,-5.40134 16.94666,-7.03734 4.63334,-1.63733 7.71867,-2.30666 8.76267,-2.27466 1.04267,0.0307 -3.25333,-1.762669 -9.328,1.12266 -6.028,2.864 -9.996,5.13334 -14.57733,6.39467 -4.58933,1.26267 -19.37067,-8.41467 -25.49867,-10.222666 -6.30133,-1.86 -11.35466,-2.606666 -16.368,-0.672 m 12.518,13.053736 c -0.0373,-0.0227 -0.0747,-0.0453 -0.112,-0.068 -0.20933,-0.128 -0.444,-0.29467 -0.45333,-0.54134 -0.0107,-0.26533 0.248,-0.45866 0.34267,-0.70666 0.15733,-0.41467 -0.168,-0.84667 -0.492,-1.14934 -1.47734,-1.37866 -3.50667,-2.15066 -5.188,-3.26533 -0.804,-0.53333 -1.35734,-0.91867 -2.25734,-1.21867 -0.76666,-0.25466 -1.648,-0.66533 -2.28666,-1.176 -0.168,-0.13333 -0.33467,-0.284 -0.36134,-0.45066 -0.0547,-0.34534 0.48667,-0.55734 0.97867,-0.63467 1.852,-0.28533 3.7,0.252 5.51733,0.548 4.56534,0.744 9.14,2.00533 12.73067,3.95867 3.012,1.63866 11.74933,8.568 17.80533,8.63466 3.19867,0.036 6.436,-1.72 9.216,-3.10666 1.06267,-0.52934 2.11734,-1.07734 3.172,-1.62534 0.82667,-0.428 1.82134,-0.78666 2.51067,-1.42933 1.53467,-1.42933 2.86133,-3.34933 5.07733,-3.72533 0.26533,-0.0453 0.58133,-0.0467 0.75467,0.16 0.0867,0.104 0.12,0.24266 0.13733,0.37733 0.10533,0.76533 -0.19733,1.46533 -0.032,2.22133 0.17067,0.78267 0.65467,1.53334 0.50133,2.36267 -0.14533,0.78667 -0.884,1.512 -0.608,2.264 0.112,0.30533 0.38667,0.56133 0.38267,0.88667 -0.007,0.37333 -0.37067,0.62533 -0.69333,0.81333 -1.856,1.07467 -4.02933,2.01067 -5.54,3.56667 -1.02667,1.056 -1.55333,2.496 -2.45067,3.65333 -0.25866,0.33467 -0.448,0.80533 -0.93733,1.084 -0.58667,0.33333 -0.91067,0.356 -1.56533,0.17333 -0.61467,-0.172 -1.184,-0.536 -1.76267,-0.776 -0.55333,-0.228 -1.152,-0.46933 -1.64,-0.74933 -0.47333,-0.272 -1.128,-0.38667 -1.78,-0.408 -1.02267,-0.0333 -2.02667,0.04 -3.02,0.25067 -0.80533,0.172 -1.62133,0.316 -2.44,0.46 -0.73467,0.128 -1.47067,0.16266 -2.208,0.28933 -1.51867,0.26 -2.87733,0.80667 -4.344,1.16267 -1.73867,0.42 -3.63867,0.7 -5.44,0.27466 -3.16,-0.74666 -6.06133,-2.75733 -8.972,-4.14266 -0.74133,-0.352 -1.97733,-0.936 -2.28,-1.71867 -0.40933,-1.056 0.696,-1.44533 1.26133,-2.132 0.74134,-0.9 -0.0387,-1.252 -0.73466,-2.02667 -0.804,-0.896 -1.77467,-1.47466 -2.78934,-2.09066 M 255.86826,80.075475 c -1.02,0.912 -1.48133,2.426666 -2.104,3.598666 -0.124,0.233334 -0.3,0.489334 -0.564,0.506667 -0.372,0.02533 -0.57733,-0.421333 -0.64267,-0.788 -0.24,-1.354667 0.108,-2.548 0.40667,-3.850667 0.08,-0.346666 0.052,-1.204 0.22933,-1.476 -2.528,3.874667 -4.95466,8.596 -3.39866,13.364 0.57866,0.802667 1.58133,2.013333 2.03066,3.042667 0.53734,1.232 -0.184,2.592 -0.0773,3.982666 0.69067,0.466667 1.88667,2.227996 1.90267,3.042666 0.0253,1.29333 -1.44134,1.83333 -1.77334,2.964 -0.30933,1.052 0.55334,2.27467 0.628,3.32 0.15867,2.21867 0.0147,4.728 -0.4,6.916 -0.36666,1.936 -2.15866,6.54533 -0.51733,8.172 0.988,0.98 3.41467,-1.08667 4.29067,-1.58933 -1.12134,0.64266 -1.808,4.05733 -1.50267,5.16933 1.38133,-1.02533 2.49867,-3.05067 3.576,-4.44 1.32133,-1.70267 2.64133,-3.40533 3.96133,-5.10933 -0.16,0.2 -1.96533,-0.32667 -2.016,-0.75067 -0.156,-1.32667 1.684,-2.42933 2.31067,-3.46267 1.35467,-2.22933 2.548,-5.036 4.88133,-6.4 -0.67066,0.392 -1.7,0.368 -2.44666,0.59734 -0.504,0.156 -1.30267,0.96 -1.85867,0.68533 -1.956,-0.96267 2.56933,-4.41733 3.32933,-4.83467 0.0387,-0.0213 -1.32533,-0.66 -1.46666,-0.69466 -0.796,-0.196 -1.59734,0.252 -2.33467,-0.212 -1.43733,-0.90267 -0.54267,-3.173336 -0.94533,-4.524002 -0.75467,-2.524 -1.816,-4.941334 -2.78934,-7.385334 -0.13866,-0.348 -0.28933,-0.713333 -0.584,-0.944 -0.296,-0.230666 -0.784,-0.26 -1.00933,0.04 -0.66933,-1.521333 -0.73867,-3.209333 -0.58267,-4.841333 0.0827,-0.869333 0.26667,-1.717333 0.396,-2.578666 0.0307,-0.204 0.0827,-2.129334 0.012,-2.101334 -0.36266,0.14 -0.67066,0.34 -0.94133,0.581334" />
  </g>
</svg>
