<?xml version="1.0" encoding="UTF-8" standalone="no"?>
<!-- Created with Inkscape (http://www.inkscape.org/) -->

<svg
   width="400"
   height="400"
   viewBox="0 0 400 400"
   version="1.1"
   id="svg131077"
   xml:space="preserve"
   inkscape:version="1.2.2 (b0a8486, 2022-12-01)"
   sodipodi:docname="BolianHeadDecorations.svg"
   xmlns:inkscape="http://www.inkscape.org/namespaces/inkscape"
   xmlns:sodipodi="http://sodipodi.sourceforge.net/DTD/sodipodi-0.dtd"
   xmlns="http://www.w3.org/2000/svg"
   xmlns:svg="http://www.w3.org/2000/svg"><sodipodi:namedview
     id="namedview131079"
     pagecolor="#ffffff"
     bordercolor="#666666"
     borderopacity="1.0"
     inkscape:showpageshadow="2"
     inkscape:pageopacity="0.0"
     inkscape:pagecheckerboard="0"
     inkscape:deskcolor="#d1d1d1"
     inkscape:document-units="px"
     showgrid="false"
     showguides="false"
     inkscape:zoom="7.4529055"
     inkscape:cx="288.14266"
     inkscape:cy="118.07476"
     inkscape:window-width="2072"
     inkscape:window-height="1274"
     inkscape:window-x="2329"
     inkscape:window-y="47"
     inkscape:window-maximized="0"
     inkscape:current-layer="layer7" /><defs
     id="defs131074" /><g
     inkscape:groupmode="layer"
     id="layer6"
     inkscape:label="Bolian Head Stripes"><path
       id="path149516"
       style="fill:#161c7a;fill-opacity:0.4;stroke:none;stroke-width:1px;stroke-linecap:butt;stroke-linejoin:miter;stroke-opacity:1"
       d="m 202.20302,122.90509 c 0,0 -0.97608,-5.46609 -2.14681,-10.86825 -1.17073,-5.40216 -4.69616,-22.809893 -4.69616,-22.809893 l -0.5367,13.149233 c 0,0 1.64919,8.70691 2.95187,11.94165 1.30268,3.23474 4.4278,8.58726 4.4278,8.58726 z m 4.15945,3.22022 c 0,0 0.42269,-10.37054 1.07341,-18.24792 0.65072,-7.87738 0.61302,-19.811769 3.22022,-28.445281 2.6072,-8.633512 5.3155,-15.711583 11.6733,-21.870665 6.3578,-6.159082 16.16883,-9.546837 25.09089,-13.015059 8.92206,-3.468222 23.33902,-5.729818 28.04275,-8.453079 4.70373,-2.723261 2.41517,-2.280989 2.41517,-2.280989 l 3.08604,1.878462 c 0,0 4.08499,0.02936 8.3189,0.134176 4.23391,0.104817 11.40495,1.475934 11.40495,1.475934 l -12.07583,-4.830331 c 0,0 -5.43049,-0.413436 -7.91441,-0.475002 -2.48393,-0.06157 -6.97911,0.07247 -6.97911,0.07247 l -3.62274,-1.207582 c 0,0 1.7846,-0.116074 -2.41517,2.280989 -4.19977,2.397063 -16.28809,3.590147 -24.68836,7.111321 -8.40027,3.521174 -19.14953,7.687782 -25.62759,14.759344 -6.47806,7.071562 -9.95279,15.761802 -11.80748,25.493414 -1.85469,9.731612 -0.68286,19.624968 -0.5367,27.237708 0.14616,7.61274 1.34176,18.38209 1.34176,18.38209 z m 4.83033,2.81769 c 0,0 1.40632,-5.26507 3.48858,-12.61253 2.08226,-7.34746 5.43156,-23.523664 9.79484,-31.799678 4.36328,-8.276014 7.65683,-12.304817 13.82011,-17.308686 6.16328,-5.003869 13.87794,-8.491377 22.72316,-11.917234 8.84522,-3.425857 29.78749,-5.999733 31.5097,-7.235961 1.72221,-1.236228 1.91277,-2.34656 2.54934,-2.415165 0.63657,-0.0686 1.31953,1.494244 2.54934,1.878462 1.22981,0.384218 2.51895,0.174321 4.96451,0.268352 2.44556,0.09403 8.03718,1.204849 11.13659,1.878462 3.09941,0.673613 8.45308,2.817693 8.45308,2.817693 l 4.56198,2.415165 c -3.30967,-3.354397 -5.94846,-5.50121 -9.92901,-8.050551 0,0 -4.37304,-1.46007 -6.84297,-1.878462 -2.46993,-0.418392 -6.41769,-1.208674 -8.98978,-1.341759 -2.57209,-0.133085 -6.02878,-0.248191 -7.91637,-0.670879 -1.88759,-0.422688 -3.27425,-1.707892 -3.75693,-1.610111 -0.48268,0.09778 -0.0716,1.05452 -2.01264,2.146814 -1.94103,1.092294 -5.11597,1.18 -10.19736,2.146814 -5.04153,0.959227 -13.0451,2.844245 -20.42055,5.467257 -7.09087,2.521802 -15.29389,6.457398 -22.00484,11.404948 -6.71095,4.94755 -12.21036,13.331246 -15.16187,21.602313 -2.95151,8.271066 -5.61451,21.022356 -6.70879,29.116166 -1.09428,8.09381 -1.61012,15.69857 -1.61012,15.69857 z m 3.62276,2.81769 c 0,0 9.28261,-21.95014 16.10109,-31.6655 6.81848,-9.715364 13.39523,-19.844758 24.42001,-26.030115 11.02478,-6.185357 22.47402,-7.219266 31.1288,-8.587256 6.77165,-1.070339 12.30466,-0.909894 16.90291,-0.982147 1.84802,-0.02904 3.14974,-0.996379 3.38881,-1.048165 0.21749,-0.04711 1.19225,1.100905 1.70405,1.116701 5.26439,0.162477 12.78102,1.0729 17.45193,2.121194 5.12501,1.150209 11.80748,4.025276 11.80748,4.025276 l 2.01264,6.440441 c 0,0 -6.88494,-3.014924 -11.94166,-4.025275 -4.70788,-0.940651 -12.03734,-1.726533 -17.04163,-1.751514 -0.37081,-0.0019 -1.26556,-1.078503 -1.49905,-0.94154 0,0 -1.569,0.982368 -3.72851,1.001592 -4.77248,0.04248 -10.93947,0.210121 -17.44686,1.154758 -8.61112,1.250023 -19.12577,2.199831 -29.78704,7.648024 -10.66127,5.448193 -17.09775,13.909245 -24.42001,22.541546 -7.32226,8.6323 -19.05296,28.98198 -19.05296,28.98198 z"
       sodipodi:nodetypes="csccsccsssssccsccsccsssssccssssssssscccssssssssssccsssssssccsscssssc" /></g><g
     inkscape:groupmode="layer"
     id="layer7"
     inkscape:label="Seam"><path
       style="fill:#cd976d;fill-opacity:1;stroke:none;stroke-width:1px;stroke-linecap:butt;stroke-linejoin:miter;stroke-opacity:1"
       d="m 260.30117,27.707315 -1.50948,1.94555 -3.2633,2.259366 c 0,0 3.59874,0.909827 6.99027,0.686355 3.39153,-0.223472 7.23417,-2.441165 7.23417,-2.441165 l -5.79537,-1.812771 z"
       id="path137155"
       sodipodi:nodetypes="ccczccc" /><path
       style="color:#000000;fill:#000000;-inkscape-stroke:none"
       d="m 280.44727,36.021484 c 6.78486,3.887826 13.83846,7.880969 19.51171,15.529297 5.65654,7.625789 9.72713,20.347637 11.99805,29.921875 2.27302,9.583015 2.56585,13.119391 2.82422,20.824224 C 315.1775,114.1136 314,125.5 314,125.5 c 0,0 2.11471,-10.94355 1.58008,-23.24412 -0.33467,-7.700029 -0.56427,-11.348269 -2.84571,-20.966798 -2.28351,-9.627304 -6.3331,-22.396035 -12.13281,-30.214843 -5.78299,-7.796268 -12.97565,-11.86177 -19.75781,-15.748047 -6.88599,-3.94577 -21.07227,-7.622079 -21.07227,-7.62208 0,0 13.99475,4.48904 20.67579,8.317372 z"
       id="path136385"
       sodipodi:nodetypes="sssscsssscs" /><path
       id="path136387"
       style="color:#000000;fill:#000000;fill-opacity:0.2;-inkscape-stroke:none"
       d="m 259.48633,28.494141 c -0.15671,-0.01236 -0.2774,-0.0097 -0.35938,0.0078 -1.3116,0.280532 -1.79297,0.964844 -1.79297,0.964844 0,0 0.77406,0.228362 1.2129,0.355469 l -3.01758,2.089843 c 0,0 3.5987,0.909019 6.99023,0.685547 0.98266,-0.06475 2.00038,-0.297027 2.95313,-0.59375 4.28376,1.444315 9.29609,3.324513 12.52343,5.173828 6.78605,3.888499 13.77906,7.851951 19.4043,15.435547 5.5939,7.541336 9.67208,20.24391 11.9375,29.794922 2.26933,9.567468 2.89258,13.251515 3.29102,20.951179 C 313.02331,110.98107 312,125 312,125 h 1.1 c 0,0 1.523,-14.03838 1.1207,-21.81253 -0.39826,-7.696187 -0.66214,-11.490947 -2.94726,-21.125002 -2.28902,-9.65051 -6.42672,-22.344801 -12.28906,-30.248047 -5.831,-7.860984 -13.46317,-12.051904 -20.24415,-15.9375 -6.53965,-3.747322 -16.90324,-7.197413 -19.2539,-7.382812 z"
       sodipodi:nodetypes="sscccscssssccssssss" /><path
       style="color:#000000;fill:#000000;-inkscape-stroke:none"
       d="m 260.64013,27.378453 c -0.58943,0.202199 -1.13142,0.07233 -1.62597,-0.247294 0,0 -0.48664,0.69644 -1.24467,1.34176 -0.41101,0.349897 -1.31013,0.758339 -2.15069,1.066143 -0.84055,0.307805 -3.76614,1.047213 -3.76614,1.047213 l 3.40261,1.875855 c 0,0 1.53134,-0.236785 2.47278,-0.47153 1.33805,-0.333639 2.05488,-0.758454 2.78034,-1.405423 0.71373,-0.636515 1.34751,-1.6216 1.39184,-1.832097 0.24936,0.01825 3.15745,0.799382 4.44727,1.127137 1.76373,0.448182 4.55893,0.763524 4.55893,0.763524 l 1.16556,-1.751088 c 0,0 -6.66799,-0.778245 -8.00197,-1.117225 -1.56742,-0.398295 -2.85037,-0.964017 -2.85037,-0.964017 z"
       id="path137152"
       sodipodi:nodetypes="ccssccsscsccscc" /></g></svg>
