<?xml version="1.0" encoding="UTF-8" standalone="no"?>
<!-- Created with Inkscape (http://www.inkscape.org/) -->

<svg
   version="1.1"
   id="svg204"
   width="400"
   height="400"
   viewBox="0 0 400 400"
   sodipodi:docname="DenobulanRidges2.svg"
   inkscape:version="1.2.2 (b0a8486, 2022-12-01)"
   xmlns:inkscape="http://www.inkscape.org/namespaces/inkscape"
   xmlns:sodipodi="http://sodipodi.sourceforge.net/DTD/sodipodi-0.dtd"
   xmlns="http://www.w3.org/2000/svg"
   xmlns:svg="http://www.w3.org/2000/svg">
  <defs
     id="defs208" />
  <sodipodi:namedview
     id="namedview206"
     pagecolor="#ffffff"
     bordercolor="#666666"
     borderopacity="1.0"
     inkscape:showpageshadow="2"
     inkscape:pageopacity="0.0"
     inkscape:pagecheckerboard="0"
     inkscape:deskcolor="#d1d1d1"
     showgrid="false"
     inkscape:zoom="4.17193"
     inkscape:cx="302.37804"
     inkscape:cy="139.02438"
     inkscape:window-width="1920"
     inkscape:window-height="1080"
     inkscape:window-x="2297"
     inkscape:window-y="187"
     inkscape:window-maximized="0"
     inkscape:current-layer="g212">
    <inkscape:page
       x="0"
       y="0"
       id="page210"
       width="400"
       height="400" />
  </sodipodi:namedview>
  <g
     id="g212"
     inkscape:groupmode="layer"
     inkscape:label="Page 1">
    <path
       d="m 319.36533,112.37267 c 0.60533,0.93334 1.41066,1.76934 2.33466,1.992 0.18134,0.184 0.0227,0.572 0.124,0.79867 0.52934,0.112 0.96534,0.28133 1.49734,0.41067 -1.25067,-0.30267 -5.63867,5.616 -6.21334,4.9 -1.79333,-2.236 -4.816,-3.728 -6.59066,-6.52134 -2.72934,-4.29733 -1.044,-11.33866 -1.59334,-16.198662 -0.23866,-2.118667 -4.50533,-26.609333 -6.32,-26.125333 2.52267,-0.672 3.90134,-2.924 6.236,-3.837333 -0.79066,3.222666 -1.10933,6.493333 -0.93066,9.983999 0.31466,6.125334 2.18666,12.152 3.772,18.049333 1.25733,4.679996 2.01466,12.226666 6.88533,15.017336 0.19733,0.48266 0.468,1.02133 0.79867,1.53066"
       style="opacity:0.199997;fill:#000000;fill-opacity:1;fill-rule:nonzero;stroke:none;stroke-width:1.33333"
       id="path2002" />
    <path
       d="m 269.37013,60.974542 c -0.16534,-1.105333 -0.19867,-3.004 -1.288,-3.732 -0.45467,-0.304 -1.26134,-0.369333 -1.72134,-0.02667 -0.4,0.298667 -0.53733,0.666667 -0.984,0.949334 -0.56666,0.358666 -1.152,0.673333 -1.69333,1.066666 -1.40933,1.024 -2.356,2.349333 -3.59467,3.514667 -2.38266,2.238666 -2.512,5.414666 -3.82666,8.222666 -0.44667,0.956 -1.04,1.881334 -1.38534,2.845333 -0.42133,1.176 0.052,2.242667 -0.164,3.264 -0.24266,1.141334 -1.17333,2.033334 -1.95066,2.888 -0.764,0.84 -1.00667,2.181334 -0.836,3.286667 0.13866,0.904 0.57466,1.714667 -0.32667,2.416 -0.65867,0.512 -1.20267,0.762667 -1.58933,1.56 -0.38534,0.793333 -0.66,1.925333 -0.704,2.826666 -0.0453,0.946667 0.148,1.794667 0.19733,2.694667 0.0187,0.356 0.11467,0.948 -10e-4,1.285333 -0.12134,0.357334 -0.432,0.473334 -0.71867,0.748 -1.312,1.261334 -1.93733,2.826667 -1.63867,4.578667 0.112,0.657332 0.30667,1.336002 0.46134,2.016002 0.18933,0.82933 0.29466,1.54 0.0787,2.368 -0.216,0.82667 -0.86266,1.572 -0.95466,2.42133 -0.11734,1.07734 0.28266,2.11067 0.44533,3.1 0.32,1.95334 -0.35333,3.992 -0.35333,5.97067 0,0.60533 -0.0827,1.27067 0,1.86933 0.0733,0.53467 0.332,1.08134 0.44266,1.60134 0.248,1.164 -0.1,2.17333 -0.72933,3.168 -0.72133,1.13866 -0.76,2.424 -0.76,3.82933 0,0.33333 -0.0627,0.75333 0.0653,1.05867 0.164,0.38933 0.316,0.29733 0.588,0.52266 0.52267,0.43467 0.33334,1.04667 0.11467,1.58134 -0.25067,0.61066 -0.31067,0.99333 -0.31067,1.68933 0,0.224 -0.048,0.49733 0,0.716 0.064,0.28133 0.18534,0.32667 0.26267,0.55733 0.27867,0.836 -0.21733,1.52667 -0.476,2.30934 -0.26267,0.79733 -0.55067,1.53333 -0.50533,2.43333 0.044,0.86667 -0.13867,1.92133 0.0667,2.744 0.164,0.65333 0.65467,0.888 0.628,1.60133 -0.0333,0.89734 -0.40533,1.75067 -0.31333,2.66534 0.128,1.272 -0.19733,2.49466 0.45067,3.684 0.56533,1.036 1.87733,1.852 3.048,1.97066 1.20133,0.12267 2.45866,-0.692 3.49733,0.344 0.68133,0.67734 1.12667,1.80134 1.664,2.6 1.136,1.688 1.26533,-0.43333 1.552,-1.29733 0.70933,-2.144 2.072,-4.30933 3.44667,-5.89333 1.856,-2.14 0.21466,-4.75334 -2.336,-6.828 -0.216,-0.17467 -0.41734,-0.31334 -0.61467,-0.43867 0.116,-0.12 0.232,-0.25867 0.34667,-0.37333 2.38533,-2.38 1.13733,-5.356 -1.18934,-7.748 0.292,-0.23334 0.58534,-0.48 0.87334,-0.69067 2.33733,-1.70933 1.94533,-4.22133 0.408,-6.16667 2.09866,0.82 4.22133,1.912 5.69733,-0.86933 0.65333,-1.232 0.58133,-2.06533 0.196,-2.98133 0.89467,0.376 1.704,0.15866 2.17733,-1.38134 0.77467,-2.51733 -0.50533,-4.576 -1.79333,-6.64133 0.832,0.284 1.576,0.0147 2.02133,-1.43333 0.836,-2.71867 -0.72266,-4.90134 -2.09866,-7.13734 0.85066,0.40934 1.69866,0.21467 2.384,-1.36533 1.20266,-2.770669 -0.088,-4.994669 -1.16,-7.277335 0.684,0.204 1.33066,-0.088 1.81866,-1.388 1.17067,-3.128 -0.90533,-5.506667 -1.976,-8.136 0.74,0.628 1.57867,0.724 2.43334,-0.852 1.27866,-2.354667 0.38,-4.228 -0.252,-6.170667 0.436,0.03733 0.904,-0.288 1.39333,-1.266666 1.22667,-2.448 0.38133,-4.373333 -0.11733,-6.398667 0.58,0.437334 1.23466,0.358667 1.93466,-1.04 1.432,-2.861333 0.0333,-5.008 -0.33066,-7.434666"
       style="fill:#cd976d;fill-opacity:1;fill-rule:nonzero;stroke:none;stroke-width:1.33333"
       id="path2012" />
    <path
       d="m 277.27546,70.035075 c -1.396,0.369333 -2.816,0.698667 -4.13467,1.277333 -0.38133,0.168 -0.75466,0.336 -1.18266,0.361334 -0.34534,0.02133 -0.57467,0.04 -0.88,0.232 -0.51734,0.326666 -0.83467,0.858666 -1.26667,1.266666 -0.408,0.386667 -0.52133,0.944 -0.90933,1.352 -0.38,0.398667 -0.872,0.686667 -1.31467,1.02 -0.21733,0.162667 -0.43067,0.313333 -0.64933,0.456 0.0693,-0.06 0.13866,-0.121333 0.21333,-0.178667 0.38667,-0.297333 0.92667,-0.670666 1.224,-1.044 0.29333,-0.366666 0.44933,-0.882666 0.71067,-1.28 0.26133,-0.394666 0.56533,-0.757333 0.81866,-1.146666 0.34,-0.522667 0.72667,-1.176 1.24,-1.554667 0.50934,-0.376 1.15067,-0.508 1.73734,-0.722666 0.47333,-0.172 0.972,-0.334667 0.77333,-0.884 -1.54533,-0.08 -3.08533,-0.02667 -4.516,0.504 -1.48933,0.552 -3.02267,0.893333 -4.47733,1.486666 -0.27467,0.112 -1.13734,0.428 -1.07067,0.828 0.06,0.357334 0.97733,0.294667 1.29867,0.362667 0.744,0.153333 0.53466,0.424 -0.0453,0.641333 -0.50533,0.189334 -0.924,0.26 -1.484,0.262667 -0.996,0.0027 -2.16133,0.272 -3.04533,0.709333 -0.872,0.429333 -1.404,1.44 -2.18933,2.012 -1.66934,1.218667 -3.53334,2.222667 -4.66534,3.964 -0.45866,0.706667 -1.23466,2.777333 -0.76133,3.556 0.49067,0.806667 1.472,-0.068 2.12667,-0.330667 0.86933,-0.352 1.19733,-0.388 1.35733,-1.274666 0.20267,-1.121334 0.756,-2.005334 1.46133,-2.9 0.92534,-1.173334 2.788,-3.049334 4.616,-2.309334 0.85867,0.348 1.31334,1.501334 1.25734,2.325334 -0.0453,0.669333 -0.34267,1.976 -1.012,2.344 -0.65334,0.36 -1.53867,0.02267 -2.24534,0.03067 -0.8,0.0093 -1.528,0.42 -2.15866,0.825334 -0.76667,0.494666 -1.53734,1.064 -2.23334,1.608 -0.376,0.293333 -0.73733,0.670666 -1.18266,0.873333 -1.04,0.473333 -1.78134,0.677333 -2.564,1.508 -0.77734,0.826666 -1.46267,1.757333 -1.828,2.813333 -0.444,1.282667 -0.40534,2.110667 -0.0813,3.432 0.59734,0.625333 1.04934,1.162667 2.044,0.662667 0.86667,-0.434667 1.27867,-0.970667 1.60934,-1.825334 0.80133,-2.074666 1.67733,-4.021333 3.69333,-5.299999 0.58933,-0.373334 1.17333,-0.689334 1.872,-0.845334 1.48133,-0.328 2.67333,0.666667 2.86,2.009333 0.0707,0.512 0.36267,1.893334 -0.108,2.270667 -0.476,0.38 -1.456,-0.204 -1.98933,-0.269333 -0.952,-0.117334 -1.904,0.528 -2.60667,1.026666 -0.77333,0.549334 -1.35733,1.041334 -2.036,1.690667 -0.472,0.452 -0.816,0.982667 -1.40267,1.322667 -0.54,0.313333 -1.18,0.417333 -1.756,0.68 -0.82666,0.377333 -1.74266,0.570666 -2.48,1.106666 -0.632,0.458667 -1.08933,1.2 -1.45466,1.868 -0.76267,1.394667 -0.74534,3.026667 0.0493,4.418662 0.292,0.51333 0.612,0.44667 1.21733,0.36933 0.728,-0.0933 1.17334,-0.50533 1.84667,-0.71466 0.44933,-0.14 0.972,-0.148 1.348,-0.43067 0.644,-0.48 0.564,-1.619995 0.868,-2.366662 0.34,-0.833333 1.09867,-1.66 1.64667,-2.417333 0.47333,-0.654667 1.12933,-1.232 1.69866,-1.782667 0.76267,-0.736 1.848,-1.228 2.98134,-1.133333 0.724,0.06 1.36533,1.649333 1.66266,2.170667 0.34534,0.608 0.5,1.02 0.42,1.717333 -0.0933,0.812 -0.50533,0.908 -1.08266,1.446667 -0.67334,0.626666 -1.22267,0.730666 -2.21067,0.684 -0.96,-0.04667 -1.67467,-0.08667 -2.448,0.458666 -0.904,0.637334 -1.66133,1.451992 -2.628,2.011992 -1.036,0.6 -2.16133,0.48534 -3.29067,0.83334 -1.78933,0.552 -3.06133,2.45333 -3.36133,4.12 -0.192,1.05866 0.51067,3.03333 1.54267,3.64666 0.59333,0.352 1.94666,-0.14533 2.504,-0.33733 0.56666,-0.19467 1.09066,-0.26 1.46666,-0.72 0.40667,-0.49733 0.424,-1.19733 0.74534,-1.73733 0.4,-0.67067 0.94666,-1.32 1.39733,-1.968 0.56533,-0.81334 1.328,-1.576 1.79467,-2.41734 0.51733,-0.93466 1.248,-2.31733 2.56533,-1.53866 1.496,0.88266 3.444,3.53466 1.56,4.868 -0.99067,0.70133 -1.97333,1.49733 -3.02,2.12933 -0.75067,0.45467 -1.67333,0.964 -2.51867,1.196 -1.092,0.29867 -2.228,0.41333 -3.312,0.776 -1.97066,0.66 -3.336,0.86 -4.35333,2.732 -0.53333,0.98133 -0.58267,2.07733 -0.41467,3.14667 0.0987,0.62933 0.0667,1.66666 0.57067,2.15466 0.85467,0.82934 1.968,-1.02266 2.624,-1.484 0.61733,-0.456 1.39467,-0.68133 2.04533,-1.09466 1.09734,-0.69867 0.63734,-1.5 1.17467,-2.38134 0.456,-0.74933 1.02933,-1.188 1.75467,-1.74 1.22266,-0.928 2.452,-1.83866 4.09466,-1.28533 1.30934,0.44133 2.22934,2.056 2.43334,3.27467 0.36666,2.19733 -2.24267,1.32933 -3.60934,1.08533 -2.25733,-0.404 -4.41333,0.412 -5.97333,1.944 -0.95733,0.94133 -2.104,1.79733 -2.99867,2.752 -1.07866,1.15333 -2.21866,2.268 -2.64,3.748 -0.30666,1.08133 -0.46,2.76667 -0.136,3.944 0.72934,-0.46 1.52667,-1.29467 2.08,-1.96667 1.28534,-1.56133 1.57067,-3.744 2.72134,-5.26933 0.86933,-1.15467 2.092,-1.81333 3.48533,-2.21067 0.96533,-0.276 2.92267,-1.18533 3.86533,-0.684 0.75734,0.40267 0.41334,1.51067 0.0373,2.044 -0.49867,0.70934 -1.47867,1.056 -2.31334,1.28934 -1.23866,0.348 -2.49066,0.684 -3.58266,1.324 -1.76934,1.03733 -2.26,2.51333 -3.37867,4.132 -0.376,0.544 -0.92533,0.95466 -1.312,1.464 -0.68,0.896 -1.212,2.21466 -1.39467,3.29866 -0.316,1.88267 0.99867,-0.0667 1.37867,-0.496 0.68,-0.76666 1.83467,-0.956 2.124,-1.916 0.38667,-1.28 0.59333,-2.45333 1.56533,-3.444 0.73067,-0.74666 2.48134,-1.91733 3.296,-0.63866 0.75467,1.18533 -0.007,2.576 -1.18266,3.09466 -1.09067,0.48134 -2.404,1.05467 -3.376,1.772 -0.84534,0.624 -1.54134,1.156 -2.128,2.02534 -1.76134,2.60933 -3.104,5.584 -2.26267,8.74666 0.0347,0.12934 0.0813,0.26934 0.19733,0.33467 0.148,0.0827 0.33067,0.004 0.48,-0.0747 0.848,-0.448 1.696,-0.952 2.284,-1.70933 1.54134,-1.99067 1.28534,-4.70933 3.07467,-6.65067 1.34933,-1.464 3.41867,0.996 3.016,2.472 -0.184,0.672 -0.692,1.39467 -1.17333,1.908 -1.216,1.29867 -2.92667,2.48667 -4.38667,3.46267 -1.176,0.78667 -2.63467,1.592 -3.31333,2.92533 -0.59867,1.17734 -0.264,3.156 0.452,4.18934 0.424,0.61333 1.624,2.296 2.40133,2.26 0.81867,-0.0387 2.49867,-2.10267 2.64,-2.84267 0.0813,-0.42933 -0.23067,-0.87733 -0.13867,-1.34667 0.08,-0.41066 0.336,-0.792 0.55734,-1.17733 0.51733,-0.89867 1.096,-2.14667 1.99866,-2.68 0.54134,-0.31867 1.73467,-0.84667 2.308,-0.336 0.26267,0.23467 0.544,1.37733 0.64667,1.77467 0.29067,1.14266 -0.29333,2.05733 -0.70267,3.068 -0.70266,1.736 -1.55733,3.62666 -1.44,5.544 0.056,0.93466 0.41734,1.84133 1.176,2.42933 0.748,0.58 1.23334,1.03067 1.77734,1.82933 0.56266,0.82667 1.39333,1.30934 1.728,2.27067 0.14933,0.43067 0.088,1.12667 0.21466,1.57067 1.96667,-1.92134 -2.47866,-5.76534 -3.36133,-7.29867 -0.688,-1.19333 0.0773,-2.568 0.85467,-3.504 0.21733,-0.26 0.416,-0.52933 0.60933,-0.80133 -0.22267,0.47066 -0.34267,0.95066 -0.39467,1.49866 -0.084,0.85867 -0.47733,1.728 -0.0333,2.55867 0.35733,0.668 1.00133,1.432 1.49733,1.96133 0.272,0.28934 0.52934,0.72 0.80667,0.95867 0.212,-1.264 -0.604,-2.428 -0.6,-3.708 10e-4,-0.84533 0.148,-1.55333 0.30933,-2.36267 0.14134,-0.70266 0.44134,-1.256 0.668,-1.89733 0.34267,-0.976 0.41867,-2.02 0.54,-3.04 0.0453,-0.38267 0.0187,-0.72667 0.172,-1.07733 0.16267,-0.376 0.45067,-0.7 0.63867,-1.06534 0.144,-0.28 0.32533,-0.66933 0.26267,-0.99466 -0.0787,-0.39867 -0.53067,-0.552 -0.78267,-0.83734 -0.33467,-0.38133 -0.488,-1.08 -0.15467,-1.45066 0.188,-0.21067 0.40134,-0.14934 0.35867,-0.46934 -0.0227,-0.17466 -0.28,-0.372 -0.37067,-0.456 -0.38266,-0.35066 -0.732,-0.58666 -0.97866,-1.07866 -0.24667,-0.488 -0.356,-0.996 -0.38267,-1.528 -0.028,-0.56934 0,-1.14934 0,-1.72 0,-0.58934 0.19333,-1.09734 0.13067,-1.68 -0.0747,-0.68534 -0.436,-0.49067 -0.928,-0.772 -1.21867,-0.7 -0.31067,-2.64534 0.35466,-3.436 0.84534,-1.00667 2.04667,-1.644 3.056,-2.464 1.92934,-1.568 2.73467,-3.276 4.22,-4.94534 1.58934,-1.788 4.64134,-2.25866 6.91467,-2.83466 2.43333,-0.616 5.17067,-0.868 4.316,-3.99334 -1.77733,-1.51466 -3.26533,-2.124 -5.272,-3.34 -1.72667,-1.044 -3.48133,-2.46 -3.052,-4.596 0.34933,-1.73866 2.672,-3.75066 1.91333,-5.503992 -0.61066,-1.409333 -3.352,-1.645333 -3.56933,-3.426666 -0.27067,-2.22 3.272,-3.1 3.73333,-4.938667 0.488,-1.945333 -1.42266,-4.074666 -1.436,-6.086666 -0.008,-1.373334 0.488,-2.677334 0.91334,-3.973334 0.412,-1.253333 0.52533,-2.496 0.78266,-3.772 0.22667,-1.118666 1.20667,-1.822666 2.03067,-2.549333 0.86267,-0.761333 1.804,-1.304 2.79333,-1.897333 1.24934,-0.750667 2.46667,-1.569333 3.70934,-2.338667 0.352,-0.217333 1.23066,-0.688 1.308,-1.104 -1.41334,0.389334 -2.776,0.9 -4.19467,1.274667"
       style="opacity:0.199997;fill:#000000;fill-opacity:1;fill-rule:nonzero;stroke:none;stroke-width:1.33333"
       id="path2022" />
    <path
       d="m 271.57893,70.040542 c -0.31467,0.118666 -0.62534,0.238666 -0.924,0.358666 -0.55334,0.218667 -1.49067,0.538667 -1.83867,1.025334 -0.436,0.610666 -0.0747,1.170666 -0.27067,1.856 -0.456,1.591999 -1.91866,1.531999 -3.02933,2.238666 -1.72533,1.097333 1.088,4.261333 0.15333,6.038667 -0.21733,0.414666 -0.93066,1.198666 -1.45066,1.289333 -0.49867,0.08667 -1.072,-0.605333 -1.64267,-0.38 -1.38933,0.545333 0.24533,1.786667 0.48533,2.553333 1.136,0.642667 1.81467,3.04 1.944,4.237333 0.28134,2.621334 -0.97866,1.078667 -2.54666,1.628 -1.64,0.574667 -0.20667,2.12 0.544,2.997334 1.29466,1.513333 2.112,2.768 1.28,4.744 -0.35734,0.848 -0.83067,1.450662 -1.76,1.840002 -0.53067,0.22266 -1.04667,-0.464 -1.18667,0.54533 -0.0413,0.29333 0.76667,0.812 0.93333,1.06533 1.43734,2.18267 3.06534,5.548 0.11867,7.31867 -0.37733,0.228 -1.15467,0.36133 -0.94267,0.90667 0.15067,0.384 0.40934,0.696 0.67734,0.99866 0.624,0.70534 1.45866,1.55067 1.732,2.45067 0.25066,0.82667 0.13066,1.98133 -0.328,2.77733 -0.208,0.35867 -0.612,0.68534 -1.028,0.69867 -0.168,0.005 -1.332,-0.44933 -1.368,-0.396 -0.192,0.29333 0.23333,1.01867 0.344,1.32 0.272,0.74533 0.37866,1.43733 0.36533,2.224 -0.0187,1.06133 -1.12267,1.888 -2.18267,1.84133 -1.288,-0.056 -2.54266,-1.10133 -3.74666,-0.63733 -0.104,0.0413 -0.20934,0.0973 -0.26934,0.19333 -0.11333,0.18267 -0.012,0.41734 0.0827,0.61067 0.78933,1.6 1.08267,3.73733 -0.172,5.00667 -0.45067,0.45733 -1.10133,0.82 -1.196,1.45333 -0.0947,0.628 0.412,1.16533 0.84667,1.628 0.88933,0.94667 1.676,2.19467 1.41733,3.468 -0.228,1.12133 -1.236,2.05067 -1.15733,3.192 0.0947,1.392 1.676,2.12267 2.46933,3.27067 1.01067,1.46133 0.63867,3.46266 -0.032,5.108 -0.66933,1.64533 -1.61333,3.25466 -1.64533,5.03066 0.68133,-1.77066 1.624,-3.44 2.78666,-4.94 0.44534,-0.57333 0.932,-1.14 1.156,-1.83066 0.38534,-1.18934 -0.1,-2.508 -0.868,-3.49334 -0.76666,-0.98533 -1.79333,-1.73066 -2.70666,-2.584 1.084,-0.85866 1.69866,-2.27733 1.584,-3.65466 -0.14534,-1.72267 -1.30934,-3.168 -2.452,-4.46534 1.23866,-0.55733 2.17333,-1.744 2.42533,-3.07733 0.252,-1.33467 -0.18667,-2.78 -1.136,-3.74933 1.136,0.536 2.376,1.084 3.60533,0.82666 0.964,-0.20266 1.79067,-0.91333 2.20534,-1.80666 0.41333,-0.89467 0.42933,-1.94934 0.11466,-2.884 0.51467,0.36666 1.28,0.11066 1.67867,-0.38134 0.60667,-0.74933 0.756,-1.98533 0.684,-2.916 -0.08,-1.04533 -0.47867,-2.032 -0.96667,-2.948 -0.16266,-0.30533 -0.336,-0.604 -0.51333,-0.9 -0.10533,-0.17466 -0.392,-0.42666 -0.36,-0.65333 0.0293,-0.216 0.47467,-0.0987 0.65467,-0.14133 0.67866,-0.16267 1.008,-0.9 1.19333,-1.50267 0.836,-2.71733 -0.72133,-4.90133 -2.09867,-7.136 0.85067,0.40933 1.69867,0.21467 2.384,-1.36533 1.20267,-2.770669 -0.088,-4.994669 -1.16,-7.277336 0.684,0.202667 1.332,-0.088 1.81867,-1.389333 1.172,-3.126667 -0.90533,-5.505333 -1.97467,-8.136 0.73867,0.629334 1.57734,0.725334 2.432,-0.848 1.15067,-2.118666 -0.144,-3.554666 -0.068,-5.621333 0.0547,-1.498667 1.86534,-1.508 2.65467,-2.512 0.992,-1.262667 2.04267,-2.973333 2.90667,-4.370666 1.18266,-0.325334 2.34266,-0.630667 3.48266,-1.012 0.68534,-0.228 2.664,-1.390667 3.252,-1.357334 -1.70533,-0.09733 -3.276,0.26 -4.86266,0.749334 -0.82534,0.254666 -1.696,0.561333 -2.528,0.876"
       style="fill:#000000;fill-opacity:1;fill-rule:nonzero;stroke:none;stroke-width:1.33333"
       id="path2032" />
    <path
       d="m 308.21613,92.229208 c 0,0 0.88266,8.538662 0.88266,13.634662 0,5.096 0.29467,7.988 0.736,9.64134 0,0 -2.06,-3.99467 -1.76533,-9.916 0.29333,-5.922669 -1.62,-21.348002 -2.356,-24.929335 -0.73467,-3.581334 1.62,7.162666 2.50267,11.569333"
       style="fill:#000000;fill-opacity:1;fill-rule:nonzero;stroke:none;stroke-width:1.33333"
       id="path2036" />
    <path
       d="m 332.75039,68.793208 c 2.42133,0.892 4.66933,2.342667 6.71733,3.897334 0.74134,0.562666 1.53734,1.007999 2.12267,1.741333 0.35067,0.44 0.67333,0.92 1.08,1.308 0.43333,0.414666 0.89333,0.808 1.308,1.24 0.996,1.037333 1.80667,2.334666 0.864,3.656 -1.88933,2.645333 6.83067,5.174666 3.82933,8.706666 -2.08,2.449333 5.68934,7.328 2.84,9.190667 -2.712,1.774662 3.31334,3.101332 -0.45733,10.372002 -1.80667,3.48266 1.83067,4.65066 1.04533,7.09866 -0.784,2.448 -6.00533,11.72267 -7.18666,15.36134 0,0 3.62,-10.432 3.88133,-14.59334 0.13467,-2.14133 -1.76,-6.00133 -2.54667,-10.53866 -0.74133,-4.28 -0.34933,-9.188002 -1.11066,-12.989336 -0.31067,-1.553333 -0.90134,-3.064 -1.5,-4.537333 -1.46667,-3.602666 -3.22,-7.105333 -5.01467,-10.573333 -0.64267,-1.244 -1.296,-2.481333 -1.95733,-3.716 -0.196,-0.366667 -0.35467,-0.850667 -0.70534,-1.106666 -0.152,-0.110667 -0.35333,-0.148 -0.49466,-0.269334 -0.14,-0.12 -0.29467,-0.265333 -0.432,-0.397333 -0.10267,-0.101333 -0.16534,-0.216 -0.27067,-0.306667 -0.10133,-0.08667 -0.24267,-0.166666 -0.356,-0.248 -0.60933,-0.434666 -1.19333,-0.905333 -1.80266,-1.346666 -0.608,-0.441334 -1.22934,-0.885334 -1.816,-1.354667 -0.204,-0.165333 -0.59467,-0.638667 -0.452,-0.897333 0.77866,-0.169334 1.628,0.01333 2.41466,0.302666"
       style="fill:#000000;fill-opacity:1;fill-rule:nonzero;stroke:none;stroke-width:1.33333"
       id="path2040" />
    <path
       d="m 341.50692,81.002541 c -0.52266,1.101334 3.792,3.06 4.57734,4.284 0.784,1.222667 -2.35467,2.446667 -1.43867,4.282667 0.916,1.836 2.87733,4.528 3.924,5.997333 1.04533,1.468 -1.308,2.202667 -1.832,4.038667 -0.52267,1.834662 2.48533,2.446662 2.87733,4.772002 0.39334,2.32533 -0.784,3.42666 -1.7,4.77333 -0.91466,1.34533 1.43867,2.20267 1.96134,4.03867 0.524,1.836 -2.35334,7.70933 -3.792,7.22 -1.43867,-0.48934 -12.94667,-6.608 -19.87867,-27.046669 -1.66933,-4.921333 -3.31333,-9.854666 -4.8,-14.834666 -0.456,-1.530667 -0.89733,-3.064 -1.31066,-4.606667 -0.20934,-0.781333 -0.40667,-1.554666 -0.628,-2.332 -0.22267,-0.777333 -0.36,-1.614666 -0.1,-2.4 0.30133,-0.913333 1.104,-1.597333 1.99466,-1.958666 0.892,-0.361334 1.87067,-0.44 2.83334,-0.46 0.73066,-0.01467 1.46266,0.0027 2.19066,0.06267 1.00134,0.08133 1.99734,0.530667 2.93067,0.877334 1.01333,0.376 2.01467,0.792 2.97733,1.286666 1.08267,0.557334 2.12,1.214667 3.048,2.005334 0.97733,0.834666 1.828,1.805333 2.72267,2.725333 1.08266,1.113333 2.16266,2.232 3.332,3.256 0.71466,0.626666 1.58133,1.12 1.21333,2.144 -0.31867,0.889333 -0.69867,1.022666 -1.10267,1.874666"
       style="fill:#cd976d;fill-opacity:1;fill-rule:nonzero;stroke:none;stroke-width:1.33333"
       id="path2044" />
    <path
       id="path2134"
       style="opacity:0.199997;fill:#000000;fill-opacity:1;fill-rule:nonzero;stroke:none;stroke-width:1.33333"
       d="m 350.30959,117.95627 c -0.23867,0.744 -0.768,1.68134 -1.26667,2.30134 -0.424,0.52933 -1.56666,1.39333 -2.252,0.716 -0.784,-0.78 -0.24666,-1.97334 -0.57066,-2.868 -0.29334,-0.808 -0.92667,-1.39334 -1.52267,-2.01867 -1.00533,-1.05333 -3.308,-2.58533 -2.98,-4.23467 0.52133,-2.624 5.352,0.468 6.10667,1.67734 0.324,0.51866 1.61866,0.75333 2.088,1.43733 0.58533,0.85333 0.704,2.03067 0.39733,2.98933 m -1.02147,-12.66133 c 0.188,0.23867 0.348,0.52133 0.47067,0.80933 0.28133,0.66134 0.80667,1.70534 0.428,2.40534 -0.34667,0.64 -1.23733,1.11866 -1.66267,1.75066 0.28934,-0.42933 -2.648,-2.22133 -2.944,-2.46933 -1.452,-1.21067 -1.69333,-2.98667 -1.87866,-4.71467 -0.196,-1.84 -0.44534,-3.622662 -0.47867,-5.610662 0.003,0.141333 0.476,0.62 0.56267,0.786666 0.17333,0.336 0.28933,0.696 0.39466,1.054667 0.20134,0.681333 0.45467,1.445329 0.536,2.147999 0.164,1.40933 0.108,2.91867 1.03067,4.128 0.14,0.184 0.34667,0.37333 0.58667,0.33733 0.12666,-0.0187 0.23333,-0.1 0.32533,-0.18533 0.836,-0.78 1.63067,-1.70667 2.62933,-0.44 m 0.6772,-8.262132 c 0.184,1.114666 -0.25466,2.274666 -1.23866,3.036002 -1.10667,0.856 -2.148,0.66933 -2.984,-0.389336 -1.08134,-1.372 -1.43467,-3.224 -2.568,-4.554666 -0.31467,-0.370667 -0.68667,-0.742667 -0.91334,-1.166667 -0.49333,-0.924 -0.98133,-1.845333 -1.41733,-2.786667 -0.26267,-0.568 -0.66133,-1.208 -0.856,-1.718666 -0.22267,-0.58 -0.196,-1.173334 -0.392,-1.762667 0.488,0.68 0.72,1.262667 1.28,1.92 0.59467,0.697333 0.70667,1.658667 1.22667,2.418667 0.572,0.836 1.32666,1.549333 2.072,2.249333 0.18533,0.174667 0.39066,0.358667 0.65066,0.392 0.25734,0.03333 0.50534,-0.08933 0.74667,-0.178667 1.28667,-0.474666 2.864,0.004 3.70267,1.032 0.376,0.461334 0.604,0.98 0.69066,1.509334 M 339.74439,84.591341 c 1.04133,0.997334 2.18933,1.837334 3.336,2.898667 0.872,0.806666 1.28933,2.237333 2.368,2.812 0.608,-0.845334 0.644,-2.206667 0.59467,-3.197334 -0.0573,-1.122666 -0.79067,-2.217333 -1.94534,-2.583999 -0.70533,-0.224 -1.17866,-0.132 -1.848,0.129333 -1.492,0.582667 -2.80266,-1.452 -3.60266,-2.328 -0.352,-0.384 -0.70134,-0.774667 -1.10134,-1.114667 -0.156,-0.133333 -0.944,-0.54 -0.99066,-0.681333 0.268,0.830667 1.12266,1.553333 1.632,2.276 0.47733,0.68 1.00266,1.257333 1.55733,1.789333 m -0.80173,-7.587466 c 0.32666,-0.377334 1.164,-0.01067 1.58266,0.129333 0.78934,0.262667 2.23334,0.949333 2.608,1.658667 0.0413,0.07867 0.076,0.161333 0.104,0.245333 0.332,0.976 -0.15866,2.294667 -0.96133,2.916 -0.74267,-0.421333 -1.22533,-0.958667 -2.06667,-1.294667 -0.976,-0.389333 -1.74133,-0.877333 -2.616,-1.416 -1.04666,-0.646666 -1.912,-1.513333 -2.68933,-2.428 -0.74,-0.872 -1.268,-1.796 -2.23066,-2.481333 -0.53467,-0.381333 -1.24267,-0.792 -1.64,-1.228 0.412,0.182667 0.844,0.238667 1.22,0.470667 0.33733,0.209333 0.68933,0.428 1.02666,0.641333 0.42533,0.269333 0.79067,0.590667 1.18133,0.885333 0.384,0.290667 0.63334,0.570667 0.96934,0.92 0.48133,0.502667 0.89466,0.905334 1.45466,1.326667 0.30667,0.232 0.95467,0.512 1.372,0.437333 0.44934,-0.08 0.43467,-0.493333 0.68534,-0.782666 m -8.6936,-8.149333 c -0.74,-0.03733 -1.472,-0.004 -2.23867,0.04667 -1.05333,0.068 -2.228,0.48 -3.17066,0.536 1.72666,-0.101333 3.27733,0.453334 4.78933,0.898667 2.96133,0.873333 5.28,2.544 8.08666,3.676 0.58134,0.233333 1.19467,0.394666 1.79467,0.556 0.06,0.016 -0.148,-0.558667 -0.17067,-0.598667 -0.12133,-0.210667 -0.29466,-0.414667 -0.45466,-0.6 -0.30934,-0.36 -0.56134,-0.786666 -0.89334,-1.130666 -1.65066,-1.716 -4.05733,-2.810667 -6.45866,-3.24 -0.436,-0.07867 -0.86133,-0.122667 -1.284,-0.144" />
    <path
       d="m 304.29173,225.1332 c 1.50933,-2.20533 3.12533,-4.612 5.35066,-6.37333 0.816,-0.64667 1.80267,-1.19733 2.96,-1.22133 0.42267,-0.009 1.87867,0.14533 1.69067,-0.516 -0.14133,-0.49867 -1.03867,-0.772 -1.544,-0.832 -2.084,-0.244 -4.192,1.83733 -5.35733,2.98 -1.108,1.08533 -2.044,2.148 -2.65067,3.49466 -0.616,1.368 -0.98,2.80667 -1.45867,4.212 0.284,-0.604 0.62534,-1.184 1.00934,-1.744"
       style="fill:#000000;fill-opacity:1;fill-rule:nonzero;stroke:none;stroke-width:1.33333"
       id="path2144" />
    <path
       d="m 320.92986,224.23227 c -1.07067,-1.31867 -1.36933,-2.904 -2.032,-4.36133 -0.31733,-0.696 -0.71333,-1.39334 -1.30533,-1.96134 -0.624,-0.59733 -1.44534,-1.036 -1.97067,-1.70533 -0.63467,-0.81067 -0.33867,-1.71067 -0.54533,-2.59467 -0.18267,-0.788 -0.94134,-0.98933 -1.344,-1.63466 -0.27867,-0.44667 -0.58267,-1.45067 -0.532,-1.92 0.55733,-0.0173 1.40666,0.796 1.76133,1.11733 0.632,0.572 0.884,1.456 1.12667,2.176 0.15066,0.448 0.25333,0.996 0.564,1.396 0.55866,0.72133 1.652,1.152 2.35466,1.77067 0.94667,0.83333 1.45734,1.97066 1.69467,3.07466 0.36133,1.676 -0.12933,3.37067 0.55467,5.03334 -0.116,-0.12667 -0.22,-0.25867 -0.32667,-0.39067"
       style="fill:#000000;fill-opacity:1;fill-rule:nonzero;stroke:none;stroke-width:1.33333"
       id="path2148" />
    <path
       d="m 312.31893,211.706 c 0.0253,0.34534 -0.0227,0.59867 -0.124,0.592 1.69066,0.0987 1.68666,1.82667 0.572,2.47067 -0.65067,0.37733 -1.504,0.55067 -2.28934,0.62133 -1.76933,0.156 -3.52133,1.33467 -4.576,2.47467 -0.43733,0.472 -0.96666,0.83867 -1.35066,1.28533 -0.33334,0.38667 -0.53467,0.77867 -0.948,1.07467 0.82533,-1.92133 2.132,-3.55067 3.6,-5.208 0.26266,-0.296 0.752,-0.75067 0.87333,-1.092 -0.88133,0.0107 -1.944,0.16933 -2.71333,0.49333 -0.56134,0.23734 -1.044,0.53467 -1.65734,0.66267 -0.38,-0.784 1.82934,-2.072 2.41867,-2.41867 0.31333,-0.184 0.63067,-0.37333 0.95467,-0.536 1.22,-0.612 2.35066,-1.86266 3.684,-2.23333 1.052,-0.29333 1.49866,1.00933 1.556,1.81333"
       style="opacity:0.199997;fill:#000000;fill-opacity:1;fill-rule:nonzero;stroke:none;stroke-width:1.33333"
       id="path2158" />
    <path
       d="m 318.38693,222.78414 c 0.24666,0.56666 0.68666,1.52666 0.812,1.56266 -0.488,-0.13866 -0.80667,-0.55333 -1.184,-0.84666 -0.95867,-0.74934 -1.74667,-1.77067 -2.84,-2.37734 -1.18667,-0.65866 -2.64,-0.92 -4.02934,-0.828 -0.852,0.056 -1.29333,0.37734 -1.992,0.70934 0.404,-0.34667 0.75467,-0.66267 1.244,-0.92134 1.26667,-0.668 3.28934,-1.85866 4.872,-1.71466 1.288,0.116 1.97067,1.64266 2.35734,2.48933 0.23333,0.512 0.39066,1.04 0.60266,1.55733 0.0253,0.0613 0.0827,0.19734 0.15734,0.36934"
       style="opacity:0.199997;fill:#000000;fill-opacity:1;fill-rule:nonzero;stroke:none;stroke-width:1.33333"
       id="path2174" />
  </g>
</svg>
