<?xml version="1.0" encoding="UTF-8" standalone="no"?>
<!-- Created with Inkscape (http://www.inkscape.org/) -->

<svg
   width="400"
   height="400"
   viewBox="0 0 400 400"
   version="1.1"
   id="svg5"
   xml:space="preserve"
   inkscape:version="1.2.2 (b0a8486, 2022-12-01)"
   sodipodi:docname="efrosianForehead.svg"
   xmlns:inkscape="http://www.inkscape.org/namespaces/inkscape"
   xmlns:sodipodi="http://sodipodi.sourceforge.net/DTD/sodipodi-0.dtd"
   xmlns:xlink="http://www.w3.org/1999/xlink"
   xmlns="http://www.w3.org/2000/svg"
   xmlns:svg="http://www.w3.org/2000/svg"><sodipodi:namedview
     id="namedview7"
     pagecolor="#ffffff"
     bordercolor="#666666"
     borderopacity="1.0"
     inkscape:showpageshadow="2"
     inkscape:pageopacity="0.0"
     inkscape:pagecheckerboard="0"
     inkscape:deskcolor="#d1d1d1"
     inkscape:document-units="px"
     showgrid="false"
     inkscape:zoom="8.28"
     inkscape:cx="284.843"
     inkscape:cy="92.753623"
     inkscape:window-width="1896"
     inkscape:window-height="1048"
     inkscape:window-x="2180"
     inkscape:window-y="260"
     inkscape:window-maximized="0"
     inkscape:current-layer="layer1" /><defs
     id="defs2" /><g
     inkscape:groupmode="layer"
     id="layer2"
     inkscape:label="Image"
     sodipodi:insensitive="true"><image
       width="400"
       height="400"
       preserveAspectRatio="none"
       xlink:href="../../../../../../../Pictures/STA%20Miniature%20Maker/Efrosian.png"
       id="image804"
       x="0"
       y="0" /></g><g
     inkscape:groupmode="layer"
     id="layer3"
     inkscape:label="Temp"
     style="display:none"><path
       d="m 264.12399,244.5408 c -0.2,-0.003 -19.64133,-15.92533 -22.92533,-18.51333 -8.632,-6.8 -13.34,-27.72533 -13.34,-27.72533 0,0 56.096,36.88533 71.23067,35.50933 0,0 -20.90134,10.88267 -34.96534,10.72933"
       style="fill:#cd976d;fill-opacity:1;fill-rule:nonzero;stroke:none;stroke-width:1.33333"
       id="path81473" /><path
       d="m 274.17679,241.76747 c -18.84,-2.372 -29.69466,-13.152 -32.97866,-15.74 -8.63067,-6.8 -13.34,-27.72533 -13.34,-27.72533 0,0 56.096,36.88533 71.23066,35.50933 0,0 -14.64933,9.248 -24.912,7.956"
       style="opacity:0.199997;fill:#000000;fill-opacity:1;fill-rule:nonzero;stroke:none;stroke-width:1.33333"
       id="path81483" /><path
       d="m 290.76279,233.13094 c 6.30267,0.808 12.37734,1.24266 16.888,0.83333 0,0 -30.532,12.10533 -43.52666,10.576 0,0 19.83066,-3.80267 26.63866,-11.40933"
       style="fill:#000000;fill-opacity:1;fill-rule:nonzero;stroke:none;stroke-width:1.33333"
       id="path81493" /><path
       d="m 311.20946,233.43867 c 5.00267,-0.45467 16.416,-3.50267 19.704,-7.84667 2.40667,-3.18 2.79066,-7.84666 2.26667,-15.868 -0.22934,-3.52 1.87333,-5.072 4.53466,-10.11333 3.312,-6.27733 9.416,-13.25333 9.24133,-30.34133 -0.17466,-17.08933 -4.18533,-31.736 -4.18533,-34.52667 0,-2.78933 6.452,-9.416 6.104,-12.032 -0.34933,-2.61466 -2.96533,-32.781329 -10.11467,-47.777329 -7.14933,-14.997332 -12.55466,-25.110666 -31.38666,-33.654665 -18.832,-8.544 -30.34133,-11.509333 -40.10667,-11.509333 -9.764,0 -36.26933,6.626666 -54.57866,23.541332 -18.30933,16.913333 -17.26267,34.699999 -17.088,50.219995 0.17333,15.51867 0.52267,32.78134 3.48667,39.93067 2.96399,7.14933 6.39733,16.78 10.09866,20.688 3.7,3.908 8.38533,6.68933 8.73333,8.25867 0.34934,1.56933 7.49467,25.96266 16.84934,36.45733 8.36133,9.38266 15.04266,14.36933 18.356,16.112 2.48533,1.308 19.45866,6.46266 36.63733,8.28666 5.72667,0.608 18.57067,0.436 21.448,0.17467"
       style="fill:#cd976d;fill-opacity:1;fill-rule:nonzero;stroke:none;stroke-width:1.33333"
       id="path81497" /><path
       d="m 241.28973,153.56841 c 1.216,-9.40934 1.484,-25.18667 4.35866,-35.21467 3.12934,-10.91867 -2.944,-22.302666 -4.03733,-33.343999 -1.156,-11.662666 0.34,-19.446666 4.79467,-30.291999 2.12666,-5.177333 4.75733,-10.198666 8.20933,-14.624 1.78133,-2.284 6.69867,-8.519999 10.48133,-10.231999 -3.57466,1.617333 -9.21066,1.424 -13.12933,2.493333 -0.032,0.008 -0.0653,0.01733 -0.0973,0.02667 -0.0187,0.0053 -0.036,0.01067 -0.0533,0.016 -1.42666,0.394666 -2.84266,0.824 -4.25066,1.278666 -0.0347,0.01067 -0.068,0.02133 -0.10134,0.032 -0.152,0.05067 -0.30266,0.096 -0.45466,0.146667 -1.36,0.446666 -2.70934,0.925333 -4.04934,1.426666 -0.28533,0.106667 -0.57333,0.22 -0.86,0.329334 -1.22933,0.473333 -2.45066,0.966666 -3.66133,1.484 -0.224,0.096 -0.448,0.190666 -0.67333,0.288 -1.376,0.6 -2.74,1.224 -4.08934,1.88 -0.012,0.0067 -0.024,0.012 -0.036,0.01733 -0.044,0.02133 -0.088,0.04133 -0.132,0.064 -0.12,0.05867 -0.24266,0.121333 -0.368,0.182667 -0.824,0.408 -1.648,0.830666 -2.472,1.266666 -0.124,0.06533 -0.24666,0.130667 -0.37066,0.196 -0.816,0.436 -1.632,0.882667 -2.444,1.346667 -0.016,0.008 -0.0307,0.01733 -0.0467,0.02533 -0.844,0.482667 -1.684,0.981334 -2.52,1.494667 -0.11867,0.07333 -0.236,0.148 -0.35467,0.221333 -0.684,0.425334 -1.36533,0.861334 -2.04266,1.306667 -0.18534,0.122667 -0.372,0.244 -0.556,0.368 -0.74134,0.496 -1.47867,1.002666 -2.20667,1.524 -0.048,0.03333 -0.0947,0.06533 -0.14267,0.1 -0.768,0.552 -1.52666,1.121333 -2.27866,1.704 -0.19334,0.149333 -0.384,0.302666 -0.576,0.453333 -0.56667,0.448 -1.12934,0.904 -1.68534,1.368 -0.20933,0.174667 -0.41866,0.348 -0.62533,0.524 -0.72,0.616 -1.43333,1.24 -2.13067,1.885333 -18.30933,16.913333 -17.26266,34.699999 -17.08933,50.218668 0.17467,15.52 0.524,32.78267 3.488,39.932 2.408,5.80933 5.12667,13.256 8.04533,17.94 0.67467,1.08133 1.35867,2.01467 2.052,2.748 2.544,2.68667 5.55467,4.84133 7.3,6.43467 0.79334,0.724 1.32667,1.33333 1.43467,1.824 0.34933,1.56933 7.49467,25.96266 16.84933,36.45733 8.36134,9.38133 15.04267,14.368 18.356,16.112 3.31334,1.744 37.43734,10.324 48.94534,9.27733 0.55333,-0.0493 10.24933,-0.92667 10.80666,-0.99867 2.276,-0.29333 4.51467,-1.20133 6.77334,-1.38266 1.84266,-0.14667 3.14933,0.0307 4.90666,-0.892 3.26,-1.71334 5.69734,-4.84934 7.79467,-7.788 2.04666,-2.86667 1.52533,-6.23734 0.60533,-9.40667 -0.38533,-1.32933 -0.416,-2.93067 -0.86,-4.15867 -0.48,-1.33066 -1.792,-2.28133 -2.63733,-3.36933 0.86667,2.58267 1.45467,5.43733 1.45467,8.52267 0,4.44933 -2.49334,9.04133 -6.58667,11.024 -6.67467,3.22933 -15.15467,3.73733 -22.372,2.38933 -4.02667,-0.75067 -7.97867,-2.46 -10.79733,-5.432 -4.46934,-4.712 -5.12,-11.56667 -8.99067,-16.612 -3.78933,-4.93867 -10.20933,-7.99333 -15.70533,-10.58533 -2.32,-1.09467 -3.10934,-3.028 -5.12267,-4.55067 -1.25067,-0.94533 -2.49733,-1.83466 -3.66,-2.90133 -3.04667,-2.79467 -5.73867,-6.00133 -8.11067,-9.38267 -5.00933,-7.14 -9.43866,-16.19333 -8.27866,-25.16266"
       style="opacity:0.199997;fill:#000000;fill-opacity:1;fill-rule:nonzero;stroke:none;stroke-width:1.33333"
       id="path81507" /><path
       d="m 246.16799,215.65254 c -16.39066,-7.672 -24.58266,-21.69467 -28.088,-43.984 0,0 6.98134,19.168 13.424,29.85466 2.632,4.364 12.43467,11.868 14.664,14.12934"
       style="fill:#000000;fill-opacity:1;fill-rule:nonzero;stroke:none;stroke-width:1.33333"
       id="path81517" /><path
       d="m 248.60933,222.80187 c 15.51866,5.05733 28.44666,7.624 43.768,9.59067 4.93733,0.63333 16.41866,0.064 21.376,-0.38934 4.95733,-0.452 9.95333,-2.08933 13.60533,-5.47333 3.65067,-3.38267 5.71067,-8.708 4.38133,-13.504 -0.32666,-1.17867 -0.84533,-2.31867 -0.94133,-3.53733 -0.192,-2.42934 1.296,-4.62667 2.62533,-6.668 6.148,-9.45067 10.744,-15.22133 12.296,-26.384 0.80933,-5.81867 -0.13067,-15.65867 -1.14533,-21.35333 -1.12534,-6.30667 -2.57734,-12.612 -2.61867,-19.04934 -0.003,-0.47333 -0.084,-1.00666 0.0693,-1.468 0.75334,-2.26 5.776,-10.79866 5.02267,-15.068 -0.75333,-4.26933 -5.02267,-43.445329 -17.83066,-59.266662 -12.808,-15.821332 -45.456,-29.131999 -62.784,-28.881332 -17.328,0.252 -69.27067,18.439999 -69.27067,62.639998 0,2.976 -0.072,5.96 -0.15733,8.929336 -0.572,19.952 2.66667,40.27333 10.81066,56.75333 0.6,1.212 3.30134,4.94667 3.576,6.25333 0.0547,0.25734 0.0787,0.564 -0.13333,0.74 -0.32267,0.268 -1.25733,0.172 -1.56667,-0.108 -3.03066,-2.75466 -6.44933,-8.38933 -7.96133,-12.45333 -3.51333,-9.44133 -6.22666,-19.47867 -7.304,-29.5 -1.11066,-10.34 -0.89866,-20.752 -0.89866,-31.133332 0,-43.321333 48.43466,-65.182665 71.41333,-65.182665 22.97866,0 51.90666,12.510666 66.22133,29.085332 14.31466,16.574666 18.43733,60.141335 18.43733,64.662665 0,4.52 -3.804,7.33333 -4.93467,12.984 -1.35733,6.79067 2.152,15.06133 3.15334,21.74667 1.39466,9.32266 2.46666,19.21066 -0.91867,28.24933 -1.744,4.65467 -3.93467,9.13867 -6.42,13.43867 -1.94667,3.36933 -5.38267,6.91466 -5.78667,10.91866 -0.26,2.588 0.0667,5.20267 -0.104,7.79867 -0.25866,3.96266 -1.73466,7.88666 -4.39466,10.83466 -3.04267,3.37334 -7.43733,5.29334 -11.90533,6.116 -4.46667,0.824 -13.704,2.01067 -18.24,1.75734 -17.576,-0.98667 -36.792,-4.18534 -51.44,-13.07867"
       style="fill:#000000;fill-opacity:1;fill-rule:nonzero;stroke:none;stroke-width:1.33333"
       id="path81521" /><path
       d="m 240.77413,154.90121 c 0,0 -1.70267,14.29733 3.024,20.99733 7.58933,10.756 19.53733,16.712 19.53733,16.712 0,0 -15.22133,-17.16667 -17.91067,-22.11467 -2.688,-4.948 -3.72666,-8.23066 -4.65066,-15.59466"
       style="fill:#000000;fill-opacity:1;fill-rule:nonzero;stroke:none;stroke-width:1.33333"
       id="path81525" /></g><g
     inkscape:label="Layer 1"
     inkscape:groupmode="layer"
     id="layer1"><path
       id="path1023"
       style="fill:#cd976d;fill-opacity:1;stroke:none;stroke-width:1px;stroke-linecap:butt;stroke-linejoin:miter;stroke-opacity:1"
       d="m 327.78762,95.764364 c 2.41746,-2.353026 5.47669,-5.501665 8.01245,-8.668647 2.53576,-3.166982 5.02244,-6.583903 5.02244,-6.583903 l 0.60261,-7.927273 -0.72464,-8.574879 -3.9855,-6.763285 -6.76329,-4.227053 -14.48565,-6.397411 c 0,0 2.79573,4.374189 3.34021,6.58893 0.54448,2.214741 2.17144,5.699996 2.71561,10.457222 0.54416,4.757225 0.21229,9.345746 -1.71154,16.112827 -1.92383,6.767081 -7.61225,24.083838 -7.61225,24.083838 0,0 6.67745,-1.73571 8.81642,-3.1401 2.13897,-1.404381 4.35567,-2.60724 6.77313,-4.960266 z M 242.3913,66.666667 c 0,0 -0.90192,-1.047423 -1.01621,-5.449435 -0.11429,-4.402012 1.72282,-8.620562 4.51863,-11.317283 2.79581,-2.696722 5.17252,-3.458459 5.17252,-3.458459 l 3.64391,1.626143 -8.33334,20.89372 z"
       sodipodi:nodetypes="ssccccccssscsscsscccc" /><path
       style="fill:#000000;fill-opacity:0.2;stroke:none;stroke-width:1px;stroke-linecap:butt;stroke-linejoin:miter;stroke-opacity:1"
       d="m 285.50725,79.10628 c 0.0177,-0.0486 3.73405,4.074853 5.67633,5.555556 1.94228,1.480703 3.36418,2.323079 5.7971,3.381642 2.43292,1.058563 6.44904,2.5105 8.81642,2.657005 2.36738,0.146505 3.13886,0.105594 4.95169,-0.84541 1.81283,-0.951004 3.8152,-2.518299 5.67633,-4.830918 1.86113,-2.312619 3.68649,-5.30564 5.07247,-8.574879 1.38597,-3.26924 2.29468,-6.038648 2.29468,-6.038648 0.11811,-0.0497 -1.24282,10.280468 -2.41546,14.251208 -1.17264,3.97074 -2.7129,7.063316 -4.10628,9.541063 -1.39338,2.477747 -2.5333,4.380464 -3.86473,5.434782 -1.33143,1.054319 -1.5481,1.277549 -3.26087,1.328499 -1.71277,0.051 -3.83574,-0.65937 -6.40097,-2.173909 -2.56523,-1.514538 -5.73333,-4.838606 -8.21256,-7.487923 -2.47923,-2.649317 -5.10463,-6.206568 -6.79196,-8.226584 -1.68733,-2.020016 -3.27621,-3.850991 -3.23219,-3.971484 z"
       id="path3505"
       sodipodi:nodetypes="szzzzzzszzzzzzzs" /><path
       style="fill:#000000;fill-opacity:0.2;stroke:none;stroke-width:1px;stroke-linecap:butt;stroke-linejoin:miter;stroke-opacity:1"
       d="m 314.85507,105.07247 c 1.47642,-1.70189 3.13201,-3.31947 5.91787,-5.797107 2.78586,-2.477636 6.50911,-6.814528 8.93721,-10.144928 2.4281,-3.3304 4.07001,-6.179799 5.91787,-10.024155 1.84786,-3.844356 4.95169,-13.043478 4.95169,-13.043478 l 0.72464,5.434783 -0.48309,5.193236 0.84541,6.159421 c 0,0 -0.70829,0.521024 -2.05314,1.690821 -1.34485,1.169797 -3.75496,3.839137 -5.40548,5.77638 -1.65052,1.937243 -3.02221,3.598192 -4.6687,6.209446 -1.64649,2.611255 -2.748,4.417021 -4.41857,6.613211 -1.67057,2.19619 -2.89377,3.59657 -4.22706,4.46859 -1.33329,0.87203 -2.90959,1.50356 -4.83092,1.44928 -1.92133,-0.0543 -2.68414,-2.28362 -1.20773,-3.9855 z"
       id="path3507"
       sodipodi:nodetypes="zzzzcccczzzzzzz" /><path
       style="fill:#000000;fill-opacity:0.2;stroke:none;stroke-width:1px;stroke-linecap:butt;stroke-linejoin:miter;stroke-opacity:1"
       d="m 340.56632,77.293429 c 0,0 -1.96998,3.773438 -3.36825,5.798359 -1.39827,2.024921 -3.62745,4.559384 -5.71903,6.841358 -2.09158,2.281974 -4.77985,5.031575 -6.71326,6.891384 -1.93341,1.859809 -4.84557,4.17096 -4.84557,4.17096 0,0 3.37317,-1.547101 5.66167,-3.601212 2.2885,-2.054111 4.56972,-4.176577 6.75293,-6.468678 2.18321,-2.292102 4.10235,-4.531011 5.45677,-6.337546 1.35442,-1.806535 2.9943,-5.182876 2.9943,-5.182876 z"
       id="path3515"
       sodipodi:nodetypes="czzzczzzcc" /><path
       style="color:#000000;fill:#000000;-inkscape-stroke:none"
       d="m 327.68917,54.237285 c 2.39194,0.929168 4.8572,2.480153 6.31179,3.759507 3.14684,2.767727 4.62118,5.27403 5.35611,8.984026 0.35148,1.774303 0.82578,3.806303 0.84874,7.510534 0.023,3.704231 -0.73201,6.326859 -3.54744,11.874198 4.71267,-5.450437 5.96213,-7.632363 6.38164,-11.39735 0.41951,-3.764987 0.0327,-5.776924 -0.58345,-8.887194 -0.61614,-3.11027 -3.14894,-7.987272 -5.78931,-10.309548 -2.64037,-2.322276 -5.19062,-3.259455 -7.64999,-4.214817 -2.45937,-0.955363 -5.70255,-2.270098 -6.76508,-2.777694 -1.06253,-0.507596 -5.66993,-3.288923 -9.24612,-5.106245 -1.56383,-0.794693 -5.67433,-3.213753 -9.0575,-4.73984 -3.6799,-1.659941 -8.12182,-3.206637 -8.12182,-3.206637 0,0 4.42315,2.744602 8.12444,4.866218 2.86078,1.639825 6.78891,4.330546 8.03966,5.208737 3.19048,2.240149 7.73794,5.286685 9.07881,5.994701 1.34087,0.708016 4.22758,1.512236 6.61952,2.441404 z"
       id="path925"
       sodipodi:nodetypes="ssszczzzszsscsszs" /><path
       style="fill:#000000;fill-opacity:0.2;stroke:none;stroke-width:1px;stroke-linecap:butt;stroke-linejoin:miter;stroke-opacity:1"
       d="m 319.44444,116.42512 c 0,0 2.65092,1.60219 3.89278,1.33583 1.24186,-0.26636 2.16532,-1.301 3.13404,-2.38741 0.96872,-1.08641 1.85328,-2.60166 2.63502,-4.3832 0.78174,-1.78154 1.22396,-3.17507 2.11782,-5.18717 0.89386,-2.0121 2.45415,-5.00696 3.43774,-6.769353 0.98359,-1.762398 1.93236,-3.26087 1.93236,-3.26087 0,0 -1.10513,2.426721 -1.70547,3.920826 -0.60034,1.494107 -1.55537,3.365927 -2.13122,4.760177 -0.57585,1.39425 -0.88278,2.73141 -1.2858,4.00016 -0.40302,1.26875 -0.69532,2.24808 -1.30045,3.73663 -0.60513,1.48855 -1.39594,2.87612 -2.51425,4.23438 -1.11831,1.35826 -1.96439,1.89454 -3.1828,2.28003 -1.21841,0.38549 -2.45831,0.25678 -3.36699,-0.28424 -0.90868,-0.54102 -1.66278,-1.99579 -1.66278,-1.99579 z"
       id="path6445"
       sodipodi:nodetypes="czzzzzczzzzzzzc" /><path
       style="fill:#000000;fill-opacity:0.2;stroke:none;stroke-width:1px;stroke-linecap:butt;stroke-linejoin:miter;stroke-opacity:1"
       d="m 226.30833,59.010965 c 0,0 10.69339,3.402034 14.6887,5.636357 3.99531,2.234323 8.65382,4.749488 13.4931,8.027541 4.83928,3.278053 10.84139,8.374523 15.37188,11.785113 4.53049,3.41059 6.74687,5.443141 11.66435,8.408804 4.91748,2.965663 11.69318,7.36159 15.15105,8.92727 3.45787,1.56568 4.37797,1.71943 6.02976,2.40154 1.65179,0.68211 3.28037,1.15811 4.42005,2.18072 1.13968,1.02261 1.91068,2.02937 1.3353,3.10368 -0.57538,1.07431 -1.66311,0.93277 -3.24517,0.88508 -1.58206,-0.0477 -4.33155,-0.66039 -6.14876,-1.08518 -1.81721,-0.42479 -3.15987,-1.13461 -5.29831,-2.14964 -2.13844,-1.01503 -3.35972,-2.22212 -6.36781,-4.24924 -3.00809,-2.02712 -6.99402,-5.231349 -10.78104,-8.048267 -3.78702,-2.816918 -6.33299,-5.46982 -11.15016,-9.58545 -4.81717,-4.11563 -11.33038,-9.913336 -16.44671,-13.343024 -5.11633,-3.429688 -9.506,-6.099754 -13.65354,-8.158674 -4.14754,-2.05892 -9.06269,-4.73663 -9.06269,-4.73663 z"
       id="path6449"
       sodipodi:nodetypes="czzzzzzzzzzzzzzzzc" /><path
       style="color:#000000;fill:#000000;fill-opacity:0.2;-inkscape-stroke:none"
       d="m 244.32324,43.960937 c 0,0 5.02807,2.058019 8.23926,3.591797 3.265,1.559483 7.52584,3.774855 10.89453,6.460938 3.37042,2.687461 6.27328,6.146976 9.22461,9.710937 C 275.58937,67.235924 281.40137,75 281.40137,75 c 0,0 -4.95082,-8.294438 -7.94825,-11.914063 -2.95382,-3.566977 -5.89502,-7.080255 -9.37304,-9.853515 -3.47975,-2.774638 -7.79441,-5.009879 -11.08594,-6.582031 -3.34535,-1.597857 -8.6709,-2.689454 -8.6709,-2.689454 z"
       id="path7192"
       sodipodi:nodetypes="cssscsssc" /><path
       style="color:#000000;fill:#000000;fill-opacity:0.2;-inkscape-stroke:none"
       d="m 252.49215,73.31529 c 0,0 4.95592,4.044834 7.62807,6.157974 2.66984,2.111323 5.55167,5.103644 8.80664,7.84375 3.23759,2.725476 7.25212,6.078061 10.65234,8.472656 3.41068,2.401963 9.91396,5.41834 9.91396,5.41834 0,0 -5.9906,-3.844722 -9.34082,-6.204104 -3.36067,-2.36675 -7.36771,-5.711577 -10.60351,-8.435547 -3.21843,-2.709341 -6.09489,-5.699057 -8.82422,-7.857422 -2.72703,-2.156548 -8.23246,-5.395647 -8.23246,-5.395647 z"
       id="path7198"
       sodipodi:nodetypes="cssscsssc" /><path
       style="color:#000000;fill:#000000;fill-opacity:0.2;-inkscape-stroke:none"
       d="m 273.06836,100.3623 c 0,0 3.33379,3.33738 5.74219,5.11231 2.42189,1.78488 5.49448,4.31716 7.85256,6.25876 2.5192,2.07426 4.80652,4.00011 7.07996,5.58399 2.07398,1.44492 4.03146,2.76623 6.48889,2.81977 2.45743,0.0535 4.06415,-1.59195 5.20684,-3.12618 1.14269,-1.53424 -0.28023,-4.51531 -0.28023,-4.51531 0,0 0.63588,2.11206 -0.42143,3.55404 -1.05731,1.44198 -3.20907,2.42069 -4.91043,2.3208 -1.70136,-0.0999 -3.6956,-1.41681 -5.80469,-2.75283 -2.01367,-1.27557 -3.98043,-2.93434 -6.48943,-4.88684 -2.48946,-1.9373 -5.77317,-4.32378 -8.13025,-6.06089 -2.37058,-1.74706 -6.33398,-4.30762 -6.33398,-4.30762 z"
       id="path12388"
       sodipodi:nodetypes="cssszzczzsssc" /><path
       id="path20657"
       style="fill:#ffffff;fill-opacity:0.25;stroke:none;stroke-width:1px;stroke-linecap:butt;stroke-linejoin:miter;stroke-opacity:1"
       d="m 302.67632,112.16059 c 0.6774,0.62326 0.97064,1.38233 0.26534,1.93047 -0.7053,0.54814 -2.94273,-0.16119 -4.46749,-0.77032 -1.52476,-0.60917 -3.62286,-1.97977 -5.79759,-3.35698 -2.17474,-1.37722 -8.79208,-5.92327 -8.79208,-5.92327 0,0 7.94224,4.0301 10.39273,5.06633 2.45049,1.03623 2.88744,0.90173 4.31351,1.43596 1.42607,0.53423 3.40819,0.99456 4.08558,1.61781 z m 20.63286,-2.13644 c -0.92678,1.20839 -2.59158,2.68363 -2.65701,3.74397 -0.0654,1.06034 -0.27356,1.33765 0.84541,1.57004 1.11897,0.23239 2.41085,-1.69511 3.38165,-3.01932 0.9708,-1.32421 2.02469,-3.59794 3.14009,-5.91787 1.1154,-2.31993 4.58938,-7.850245 4.58938,-7.850245 0,0 -4.8456,6.063135 -6.40097,7.971015 -1.55537,1.90788 -1.97177,2.29402 -2.89855,3.50241 z M 247.99977,50.935912 c 1.08739,-0.714633 2.77096,-1.161128 4.26997,-1.024792 1.62303,0.147616 3.23997,0.697379 4.97388,1.599352 1.64603,0.85626 3.06935,2.310035 4.93245,3.999118 1.8631,1.689083 3.46115,3.851185 5.63635,6.490352 2.1752,2.639167 4.83955,6.233844 7.34435,9.393931 2.5048,3.160087 7.68594,9.56473 7.68594,9.56473 0,0 -3.76527,-2.205233 -6.31955,-4.269969 -2.55428,-2.064736 -6.00718,-5.7494 -8.71074,-8.369138 -2.70356,-2.619738 -5.09546,-5.056013 -7.51514,-6.740481 -2.41968,-1.684468 -4.45973,-3.086925 -6.49035,-3.678242 -2.03062,-0.591317 -4.14068,-1.393842 -5.46556,-2.011697 -1.32488,-0.617856 -2.29174,-1.111654 -2.39119,-2.220384 -0.0994,-1.10873 0.9622,-2.018147 2.04959,-2.73278 z m 76.51714,29.86119 c 0,0 1.99859,-8.887057 2.53623,-12.68116 0.53764,-3.794103 -0.43378,-6.511334 1.20773,-8.937197 1.64151,-2.425864 4.29302,-1.504661 5.43478,0.603864 1.14177,2.108525 0.63875,2.507216 0.12077,4.830918 -0.51798,2.323702 -2.49463,5.718098 -4.22705,8.454106 -1.73242,2.736008 -5.07246,7.729469 -5.07246,7.729469 z"
       sodipodi:nodetypes="sssscsssssssscsssssssscssssssscsssssc" /><path
       style="color:#000000;fill:#000000;fill-opacity:0.2;-inkscape-stroke:none"
       d="m 311.35246,50.845382 c 0,0 -0.18883,1.834769 0.083,3.970703 0.27184,2.135935 0.3781,4.887199 0.29937,6.346311 -0.16377,3.035266 -1.00111,5.392852 -1.82219,7.21605 -0.82108,1.823199 -1.60654,3.218647 -3.61768,3.467604 -2.01113,0.248957 -3.89463,-1.244072 -6.13442,-2.948611 -2.23978,-1.70454 -6.59651,-5.680881 -9.45945,-8.393854 -2.77598,-2.630567 -6.64356,-7.483398 -6.64356,-7.483398 0,0 3.01271,5.420794 5.95606,8.209961 2.85639,2.706761 7.16774,6.871983 9.92383,8.974609 1.35489,1.033645 2.56923,1.930302 3.72656,2.548828 1.15733,0.618527 2.28142,0.965545 3.41016,0.808594 1.11257,-0.154703 1.82714,-0.761384 2.28515,-1.519531 0.45802,-0.758147 0.92818,-1.452286 1.35857,-2.442482 1.01624,-2.338069 1.83802,-5.396643 2.09846,-8.569237 0.13526,-1.647594 -0.11371,-4.179302 -0.38867,-6.339844 -0.27496,-2.160541 -1.07519,-3.845703 -1.07519,-3.845703 z"
       id="path22947"
       sodipodi:nodetypes="csszzzscssssssssc" /></g></svg>
