<?xml version="1.0" encoding="UTF-8" standalone="no"?>
<!-- Created with Inkscape (http://www.inkscape.org/) -->

<svg
   version="1.1"
   id="svg265444"
   width="400"
   height="400"
   viewBox="0 0 400 400"
   sodipodi:docname="Head6.svg"
   inkscape:version="1.2.2 (b0a8486, 2022-12-01)"
   xmlns:inkscape="http://www.inkscape.org/namespaces/inkscape"
   xmlns:sodipodi="http://sodipodi.sourceforge.net/DTD/sodipodi-0.dtd"
   xmlns="http://www.w3.org/2000/svg"
   xmlns:svg="http://www.w3.org/2000/svg">
  <defs
     id="defs265448" />
  <sodipodi:namedview
     id="namedview265446"
     pagecolor="#ffffff"
     bordercolor="#666666"
     borderopacity="1.0"
     inkscape:showpageshadow="2"
     inkscape:pageopacity="0.0"
     inkscape:pagecheckerboard="0"
     inkscape:deskcolor="#d1d1d1"
     showgrid="false"
     inkscape:zoom="1.475"
     inkscape:cx="182.71186"
     inkscape:cy="200"
     inkscape:window-width="1440"
     inkscape:window-height="810"
     inkscape:window-x="2380"
     inkscape:window-y="207"
     inkscape:window-maximized="0"
     inkscape:current-layer="g265452">
    <inkscape:page
       x="0"
       y="0"
       id="page265450"
       width="400"
       height="400" />
  </sodipodi:namedview>
  <g
     id="g265452"
     inkscape:groupmode="layer"
     inkscape:label="Page 1">
    <path
       d="m 331.04519,208.00587 c 0.42667,-2.676 1.576,-4.752 1.87467,-6.12267 0.35467,-1.632 2.712,-11.83999 4.79466,-16.91999 3.97467,-9.69867 7.63734,-18.19467 7.684,-19.59467 0.184,-5.496 -0.52933,-11.57333 -1.16,-16.936 -0.344,-2.94 -0.66133,-5.66533 -0.80666,-8.03733 0.12,0.26533 0.20266,0.532 0.20266,0.79333 0.0173,-1.38267 -0.536,-3.03867 0,-5.20933 0.496,-1.51467 0.728,-3.096 1.27867,-4.61334 0.30133,-0.83333 0.84133,-1.82533 1.11067,-2.65466 0.13333,-0.21334 0.268,-0.42534 0.4,-0.63067 1.12266,-1.756 2.09066,-3.272 2.09066,-5.1 0,-1.69467 0.312,-16.47333 -2.55866,-30.245332 -2.476,-11.877333 -8.244,-28.066666 -15.61467,-36.923999 -13.904,-16.709333 -42.63066,-26.437333 -65.4,-26.437333 -23.86933,0 -70.32799,22.623999 -70.32799,64.097332 0,5.121333 0.47333,10.244002 0.65866,15.346662 0.23067,6.31067 1.13334,12.572 2.01067,18.81867 0.82667,5.89733 1.05467,11.95467 2.50267,17.74267 0.52266,2.09333 7.96533,18.804 10.52399,20.47733 2.56,1.672 6.89467,2.30533 7.90667,6.12933 1.012,3.82267 11.92267,23.65334 14.31467,26.23467 8.772,9.45866 36.23866,21.91333 36.23866,21.91333 6.46134,2.516 25.29467,7.47467 28.52267,8.192 11.18533,2.48667 24.62267,3.468 27.29333,-3.284 2.67067,-6.75333 6.46,-17.036 6.46,-17.036"
       style="fill:#cd976d;fill-opacity:1;fill-rule:nonzero;stroke:none;stroke-width:1.33333"
       id="path267172" />
    <path
       d="m 309.61946,230.726 c -3.376,0.009 -11.564,-0.97066 -15.12,-1.732 -3.23333,-0.692 -19.26933,-6.344 -25.73067,-8.86 0,0 -27.46666,-12.45466 -36.23733,-21.91466 -2.39333,-2.58 -13.304,-22.41067 -14.316,-26.23333 -1.012,-3.824 -5.34667,-4.45734 -7.90533,-6.12934 -2.56,-1.67333 -10.00267,-18.384 -10.52533,-20.47733 -1.27467,-5.09733 -1.736,-10.364 -2.18667,-15.58667 -0.60133,-6.97866 -2.07067,-13.964 -2.32533,-20.97466 -0.18667,-5.10267 -0.66,-10.225336 -0.66,-15.346669 0,-1.233333 0.048,-2.448 0.128,-3.646667 0.04,-0.610666 0.11733,-1.205333 0.17733,-1.806666 0.0587,-0.578667 0.10667,-1.161334 0.18267,-1.730667 0.0827,-0.605333 0.19066,-1.197333 0.292,-1.793333 0.0933,-0.549333 0.18266,-1.101333 0.292,-1.642667 0.12,-0.592 0.26,-1.173333 0.39866,-1.754666 0.12667,-0.529334 0.25334,-1.058667 0.396,-1.58 0.156,-0.574667 0.32667,-1.142667 0.5,-1.708 0.15867,-0.512 0.32267,-1.022667 0.496,-1.526667 0.19067,-0.556 0.388,-1.108 0.596,-1.654667 0.188,-0.497333 0.38667,-0.989333 0.59067,-1.478666 0.22133,-0.537333 0.44667,-1.073333 0.684,-1.6 0.21867,-0.482667 0.45067,-0.956 0.68133,-1.430667 0.252,-0.517333 0.50133,-1.037333 0.76933,-1.545333 0.24534,-0.466667 0.508,-0.924 0.76667,-1.382667 0.28,-0.498666 0.552,-1.001333 0.84667,-1.489333 0.272,-0.452 0.56266,-0.889333 0.84533,-1.333333 0.58667,-0.917334 1.196,-1.817334 1.828,-2.7 0.3,-0.418667 0.59067,-0.844 0.90133,-1.254667 0.35067,-0.466666 0.72134,-0.916 1.08534,-1.372 0.316,-0.396 0.62666,-0.797333 0.95333,-1.186666 0.376,-0.449334 0.76667,-0.886667 1.15467,-1.326667 0.332,-0.376 0.66133,-0.753333 1.00133,-1.122667 0.4,-0.433333 0.80933,-0.857333 1.22,-1.281333 0.34533,-0.356 0.69067,-0.710667 1.04267,-1.058667 0.42266,-0.418666 0.85066,-0.829333 1.28133,-1.236 0.356,-0.334666 0.71333,-0.665333 1.07333,-0.993333 0.44534,-0.402667 0.89334,-0.802667 1.34667,-1.194667 0.35733,-0.309333 0.72,-0.613333 1.084,-0.917333 0.46933,-0.390667 0.94,-0.782667 1.41733,-1.162667 0.35067,-0.278666 0.70534,-0.548 1.05867,-0.82 0.504,-0.387999 1.00667,-0.775999 1.51733,-1.151999 0.30934,-0.226667 0.62267,-0.442667 0.93467,-0.664 0.56533,-0.402667 1.12933,-0.809334 1.70133,-1.196 0.0333,-0.02267 0.0667,-0.04267 0.0987,-0.06533 1.61733,-1.090666 3.26133,-2.121333 4.92267,-3.089333 0.0333,-0.02 0.068,-0.04133 0.10133,-0.06133 0.672,-0.390667 1.348,-0.762667 2.024,-1.133334 0.23333,-0.126666 0.46533,-0.26 0.69733,-0.384 0.64267,-0.345333 1.28667,-0.674666 1.932,-1 0.26534,-0.134666 0.53067,-0.272 0.79734,-0.404 0.63866,-0.314666 1.27866,-0.618666 1.91733,-0.916 0.268,-0.125333 0.536,-0.249333 0.804,-0.372 0.64667,-0.293333 1.29333,-0.576 1.93867,-0.852 0.25066,-0.106666 0.50133,-0.210666 0.75066,-0.314666 0.66667,-0.277334 1.332,-0.546667 1.99467,-0.802667 0.21067,-0.08133 0.42,-0.158667 0.62933,-0.238667 0.704,-0.266666 1.40667,-0.526666 2.10667,-0.770666 0.12133,-0.04267 0.24267,-0.08267 0.36533,-0.124 4.212,-1.450667 8.31067,-2.497333 12.116,-3.121333 2.09867,-0.282667 4.18934,-0.554667 6.24934,-0.657334 0.552,-0.02267 1.108,-0.048 1.63866,-0.048 0.65734,0 1.32,0.01333 1.98667,0.03467 -3.824,-0.118667 -10.224,8.009333 -12.312,10.685333 -3.452,4.424 -6.084,9.446666 -8.20933,14.624 -4.45467,10.843999 -5.952,18.629332 -4.796,30.290666 1.09466,11.042666 5.24,22.050665 4.03733,33.343995 -0.52533,4.93867 -3.39467,5.88667 -4.304,12.18267 -1.36667,9.46933 -0.128,15.20133 4.04,25.656 3.252,8.15867 10.37467,8.108 19.09333,27.98667 2.51734,5.74 12.77734,38.23466 48.104,44.22933 3.57734,0.54266 8.31067,0.22533 9.68,-0.57867 1.37067,-0.80267 -3.776,2.872 -12.64133,2.89733"
       style="opacity:0.199997;fill:#000000;fill-opacity:1;fill-rule:nonzero;stroke:none;stroke-width:1.33333"
       id="path267182" />
    <path
       d="m 331.07319,201.8996 c 2.508,-7.04666 3.28267,-14.33466 6.07733,-20.43866 1.80534,-3.94533 6.81467,-10.09067 6.62534,-20.56267 -0.292,-16.26933 -2.504,-24.072 -1.75067,-26.332 0.75333,-2.26 5.24,-11.688 5.02267,-16.55733 -0.93867,-21.046666 -5.05867,-46.461332 -17.83067,-59.969331 -14.25733,-15.08 -45.456,-26.94 -62.784,-26.689333 -17.328,0.250667 -69.27066,18.439999 -69.27066,62.639998 0,7.113336 1.36267,22.510666 1.46,28.077336 0.516,4.69466 2.588,29.36533 12.24133,42.484 1.17067,1.58933 0.48133,2.33866 0.0893,2.288 -1.39733,-0.18134 -1.904,-0.76 -2.33866,-1.27734 -0.82534,-0.98133 -1.732,-2.004 -2.372,-2.876 -3.05334,-4.15733 -8.48933,-15.30666 -9.90133,-30.68933 -1.00134,-7.464 -2.81334,-23.76533 -2.81334,-38.526666 0,-43.319999 48.43467,-65.181331 71.41333,-65.181331 22.98,0 51.90667,9.581333 66.22134,26.785332 14.31466,17.202667 18.85866,46.281335 18.43733,65.789335 -0.10934,5.08133 -3.804,8.50666 -4.93334,14.15733 -1.13066,5.65067 2.81734,8.312 1.81734,30.38267 -0.42134,9.30933 -4.50534,10.56933 -8.80534,23.42266 -3.09466,9.24934 -9.87199,31.89067 -11.23199,37.02133 -1.77067,6.67467 -14.89467,11.29867 -53.216,-1.944 -3.292,-1.13733 -6.42667,-2.588 -9.572,-3.99466 -7.388,-3.30134 -15.01467,-6.12267 -21.54,-10.66134 -4.01067,-2.79066 -7.072,-5.77866 -9.772,-9.98933 -1.75334,-2.736 -2.92267,-6.31466 -4.12,-9.328 -0.91867,-2.312 -1.31467,-5.51866 -2.748,-7.52133 3.488,4.87467 5.89733,9.95333 9.2,14.93467 3.856,5.81599 9.644,9.43999 15.72,12.80399 6.16266,3.41334 12.53066,6.59867 19.27866,9.072 14.56534,5.336 39.41334,10.66934 45.60934,9.796 6.196,-0.87333 8.08,-3.00933 9.23466,-8.18133 1.15334,-5.17067 4.24667,-12.456 6.552,-18.93467"
       style="fill:#000000;fill-opacity:1;fill-rule:nonzero;stroke:none;stroke-width:1.33333"
       id="path267192" />
  </g>
</svg>
