<?xml version="1.0" encoding="UTF-8" standalone="no"?>
<!-- Created with Inkscape (http://www.inkscape.org/) -->

<svg
   version="1.1"
   id="svg165917"
   width="400"
   height="400"
   viewBox="0 0 400 400"
   sodipodi:docname="Head1.svg"
   inkscape:version="1.2.2 (b0a8486, 2022-12-01)"
   xml:space="preserve"
   xmlns:inkscape="http://www.inkscape.org/namespaces/inkscape"
   xmlns:sodipodi="http://sodipodi.sourceforge.net/DTD/sodipodi-0.dtd"
   xmlns="http://www.w3.org/2000/svg"
   xmlns:svg="http://www.w3.org/2000/svg"><defs
     id="defs165921" /><sodipodi:namedview
     id="namedview165919"
     pagecolor="#ffffff"
     bordercolor="#666666"
     borderopacity="1.0"
     inkscape:showpageshadow="2"
     inkscape:pageopacity="0.0"
     inkscape:pagecheckerboard="0"
     inkscape:deskcolor="#d1d1d1"
     showgrid="false"
     inkscape:zoom="4.17193"
     inkscape:cx="318.43775"
     inkscape:cy="203.74263"
     inkscape:window-width="1440"
     inkscape:window-height="810"
     inkscape:window-x="2852"
     inkscape:window-y="184"
     inkscape:window-maximized="0"
     inkscape:current-layer="svg165917"><inkscape:page
       x="0"
       y="0"
       id="page165923"
       width="400"
       height="400" /></sodipodi:namedview><g
     id="g165925"
     inkscape:groupmode="layer"
     inkscape:label="Page 1"><path
       d="m 279.26346,228.9712 c 6.236,3.04134 11.608,5.172 14.86133,5.468 2.73067,0.248 5.77734,0.37334 9.056,0.37334 11.52267,0 20.628,-1.45867 21.83334,-2.464 1.332,-1.116 3.24,-12.11734 4.15733,-17.404 0.46933,-2.70267 0.87467,-5.03734 1.192,-6.416 0.38,-1.64267 1.92,-5.27734 4.052,-10.308 4.27333,-10.08667 10.732,-25.328 10.98266,-32.852 0.184,-5.496 -0.52933,-11.57333 -1.15866,-16.936 -0.34534,-2.94 -0.66267,-5.66533 -0.808,-8.03733 0.12,0.26533 0.20266,0.532 0.204,0.79333 0.016,-1.38267 -0.53734,-3.03867 0,-5.20933 0.49466,-1.51467 0.72666,-3.096 1.27733,-4.61334 0.30133,-0.83333 0.84133,-1.77466 1.11067,-2.72933 0.13466,-0.24533 0.26933,-0.49067 0.4,-0.72667 1.12266,-2.02133 2.09066,-3.768 2.09066,-5.87333 0,-1.95333 -0.956,-13.81733 -3.828,-27.589332 -2.476,-11.878667 -6.97466,-27.829333 -14.34533,-36.363999 -13.904,-16.098667 -42.63066,-28.708 -65.39866,-28.708 -23.87067,0 -70.32933,22.622666 -70.32933,64.095999 0,5.121333 0.47333,10.244002 0.66,15.346662 0.044,1.21867 0.456,2.32934 0.69866,3.47067 0.25067,1.176 0.468,2.29467 0.648,3.42933 l -0.42533,-1.04133 c 0.196,1.31333 0.39733,2.572 0.59333,3.79867 0.18,1.12 0.352,2.20133 0.51067,3.26 l 0.22533,-0.18 c -0.001,-0.048 -0.004,-0.10667 -0.005,-0.156 0.32667,1.16266 0.70933,2.31733 0.88,3.49333 0.27867,1.916 0.57733,3.70667 0.85867,5.63333 0.47866,3.276 0.592,12.49867 1.39999,15.72534 0.52267,2.09333 7.02,16.848 9.13734,18.976 2.11733,2.128 7.40933,2.936 8.42133,6.75866 1.012,3.82267 12.25867,26.84 14.87467,29.19333 2.616,2.35467 46.17333,27.792 46.17333,27.792"
       style="fill:#cd976d;fill-opacity:1;fill-rule:nonzero;stroke:none;stroke-width:1.33333"
       id="path167025" /><path
       d="m 257.05253,30.079609 c -24.928,4.085333 -62.44,26.121333 -62.44,63.390665 0,5.121334 0.47333,10.245336 0.66,15.346666 0.044,1.22 0.45733,2.32933 0.7,3.47067 0.24933,1.17733 0.46667,2.296 0.64667,3.42933 l -0.42534,-1.04 c 0.19734,1.31333 0.39734,2.572 0.59334,3.79867 0.18,1.11866 0.352,2.2 0.512,3.26 l 0.22533,-0.18 c -0.001,-0.0493 -0.004,-0.10667 -0.007,-0.156 0.328,1.16133 0.70934,2.31733 0.88,3.49333 0.27867,1.916 0.57867,3.70667 0.86,5.63333 0.47734,3.276 0.592,12.49734 1.39867,15.72534 0.52266,2.092 7.02,16.84666 9.13866,18.976 2.11734,2.128 7.40934,2.93466 8.42,6.75733 1.012,3.82267 12.25867,26.84 14.87467,29.19466 2.42133,2.17867 39.89733,24.12134 45.46,27.37467 l 0.288,-0.32 13.36533,4.59467 c 0,0 -24.84933,-26.156 -31.12666,-43.94267 -6.27734,-17.78666 -10.46134,-20.664 -13.86267,-25.63333 -6.56533,-9.59467 -9.94133,-21.37467 -7.16933,-32.828 1.11333,-4.6 5.07733,-7.13333 5.604,-12.072 1.20133,-11.29333 -2.944,-22.302666 -4.03734,-33.343999 -1.15733,-11.662666 0.34,-19.446666 4.79467,-30.290666 2.12667,-5.178666 4.75733,-10.199999 8.20933,-14.625333 2.088,-2.674666 8.488,-10.802666 12.312,-10.683999 -0.66533,-0.02133 -1.32933,-0.03467 -1.98533,-0.03467 -0.532,0 -1.08667,0.02533 -1.64,0.048 -2.06,0.102667 -4.15067,0.373333 -6.24933,0.657333"
       style="opacity:0.199997;fill:#000000;fill-opacity:1;fill-rule:nonzero;stroke:none;stroke-width:1.33333"
       id="path167035" /><path
       d="m 344.66599,135.02067 c 1.13067,-5.65066 4.93467,-8.464 4.93467,-12.984 0,-4.52133 -4.124,-48.087995 -18.43867,-64.662661 -14.31466,-16.574667 -43.24133,-29.085333 -66.22,-29.085333 -22.97866,0 -71.41466,21.861333 -71.41466,65.181332 0,14.761332 1.57067,22.368002 2.572,29.830662 1.708,18.608 5.35466,29.228 7.44266,34.312 2.088,5.08267 5.19334,7.96267 5.476,8.26667 0.53067,0.572 1.61334,0.92267 1.936,0.96 0.38267,0.044 1.07334,-0.70667 -0.0893,-2.288 -9.65333,-13.11867 -11.72666,-37.78933 -12.24266,-42.484 -0.096,-5.56667 -1.45867,-20.96267 -1.45867,-28.077332 0,-44.199999 51.94133,-62.387999 69.27066,-62.639999 17.328,-0.250666 49.97467,13.058667 62.78267,28.881333 12.808,15.821333 17.07733,54.997328 17.83066,59.266668 0.75334,4.26933 -4.26933,12.808 -5.02266,15.068 -0.75334,2.26 1.75866,25.616 1.75866,30.88933 0,5.27467 -15.82266,39.93066 -16.07333,42.69333 -0.25066,2.76267 -3.76666,20.59333 -4.52,21.848 -0.75333,1.256 -21.096,3.01467 -28.62933,2.512 -7.53467,-0.50267 -58.00133,-30.04667 -60.26267,-32.30667 -2.26,-2.25999 -16.21733,-28.53333 -16.21733,-28.53333 0.0547,0.25467 -0.0507,-0.26133 0,0 0,0 8.04533,26.30934 15.58,31.58267 7.53333,5.27466 47.93467,31.13866 60.36667,32.26933 12.43066,1.12933 29.42133,-0.45467 31.68133,-2.33733 2.26,-1.884 4.58267,-19.51467 5.71333,-24.41067 1.13067,-4.89733 14.68533,-32.068 15.06133,-43.368 0.37734,-11.30133 -2.948,-24.73333 -1.81733,-30.384"
       style="fill:#000000;fill-opacity:1;fill-rule:nonzero;stroke:none;stroke-width:1.33333"
       id="path167045" /><path
       d="m 241.28973,153.56841 c 0,0 1.712,7.27466 7.70266,13.05066 5.99067,5.77734 10.056,14.54934 10.056,14.54934 l -6.84666,-15.19067 c 0,0 -5.99067,-5.13467 -10.912,-12.40933"
       style="fill:#000000;fill-opacity:1;fill-rule:nonzero;stroke:none;stroke-width:1.33333"
       id="path167049" /></g><g
     inkscape:groupmode="layer"
     id="layer2"
     inkscape:label="Bolian Crease"><path
       style="fill:#cd976d;fill-opacity:1;stroke:none;stroke-width:1px;stroke-linecap:butt;stroke-linejoin:miter;stroke-opacity:1"
       d="m 308.882,232.22043 7.77957,-4.70288 2.98065,3.60544 c 0,0 -3.54052,4.63972 -4.55747,4.47023 -1.01695,-0.16949 -6.20275,-3.37279 -6.20275,-3.37279 z"
       id="path1898"
       sodipodi:nodetypes="cccsc" /><path
       style="color:#000000;fill:#000000;-inkscape-stroke:none"
       d="m 316.5293,200.91602 -0.80078,0.006 c 0,0 0.0589,9.19637 0.51367,13.0586 0.45004,3.82246 1.33945,7.64401 1.00195,12.54492 -0.33368,4.84538 -2.83922,8.71538 -2.83922,8.71538 l 1.04704,0.11053 c 0,0 2.24111,-3.69039 2.59101,-8.77122 0.34606,-5.02526 -0.56302,-8.93211 -1.00586,-12.69336 -0.43818,-3.72149 -0.50781,-12.9707 -0.50781,-12.9707 z"
       id="path1738"
       sodipodi:nodetypes="ccssccsscc" /><path
       style="color:#000000;fill:#000000;fill-opacity:0.2;-inkscape-stroke:none"
       d="m 313.52513,200.92202 c 0,0 0.0589,9.19637 0.51367,13.0586 0.45004,3.82246 1.33945,7.64401 1.00195,12.54492 -0.33368,4.84538 -2.7793,8.95508 -2.7793,8.95508 l 1.70622,-0.18905 c 0,0 2.18118,-3.75032 2.53108,-8.83115 0.34606,-5.02526 -0.62295,-8.93211 -1.06579,-12.69336 -0.43818,-3.72149 -0.50781,-12.85085 -0.50781,-12.85085 z"
       id="path1894"
       sodipodi:nodetypes="cssccsscc" /><path
       style="color:#000000;fill:#000000;-inkscape-stroke:none"
       d="m 320.48768,230.89602 c -2.19299,0.17735 -3.08578,1.90086 -3.88309,2.55991 -0.22527,0.19294 -0.73817,-0.005 -1.04382,0.002 -0.15274,-0.0227 -0.6213,0.24754 -0.72401,0.337 -1.714,-1.04228 -4.36496,-1.70675 -6.55356,-1.59795 l 0.17383,3.49414 c 1.78502,-0.0887 3.6804,0.59535 4.73828,1.48632 l 1.13086,0.95118 1.03711,-0.87696 1.11719,0.50391 0.84961,-1.05078 c 0.94619,-1.17154 2.65679,-2.02118 3.41601,-2.10892 z"
       id="path1896"
       sodipodi:nodetypes="ccccccccccccc" /></g></svg>
