<?xml version="1.0" encoding="UTF-8" standalone="no"?>
<!-- Created with Inkscape (http://www.inkscape.org/) -->

<svg
   version="1.1"
   id="svg29027"
   width="400"
   height="400"
   viewBox="0 0 400 400"
   sodipodi:docname="Head8.svg"
   inkscape:version="1.2.2 (b0a8486, 2022-12-01)"
   xmlns:inkscape="http://www.inkscape.org/namespaces/inkscape"
   xmlns:sodipodi="http://sodipodi.sourceforge.net/DTD/sodipodi-0.dtd"
   xmlns="http://www.w3.org/2000/svg"
   xmlns:svg="http://www.w3.org/2000/svg">
  <defs
     id="defs29031" />
  <sodipodi:namedview
     id="namedview29029"
     pagecolor="#ffffff"
     bordercolor="#666666"
     borderopacity="1.0"
     inkscape:showpageshadow="2"
     inkscape:pageopacity="0.0"
     inkscape:pagecheckerboard="0"
     inkscape:deskcolor="#d1d1d1"
     showgrid="false"
     inkscape:zoom="2.015"
     inkscape:cx="199.75186"
     inkscape:cy="200"
     inkscape:window-width="1916"
     inkscape:window-height="1026"
     inkscape:window-x="2236"
     inkscape:window-y="320"
     inkscape:window-maximized="0"
     inkscape:current-layer="layer3">
    <inkscape:page
       x="0"
       y="0"
       id="page29033"
       width="400"
       height="400" />
  </sodipodi:namedview>
  <g
     id="g29035"
     inkscape:groupmode="layer"
     inkscape:label="Head">
    <path
       d="m 258.61986,216.34014 c 6.31867,2.916 28.09333,11.26 30.572,11.87066 2.72267,0.672 16.98267,2.91067 19.576,2.85334 9.11067,-0.20134 11.50267,-3.05067 12.452,-3.784 1.04933,-0.816 7.21867,-11.044 8.12133,-16.296 0.46134,-2.68534 1.628,-4.72534 1.94267,-6.09734 0.37467,-1.63333 0.74533,-3.092 3.03733,-8.12266 4.59467,-10.08667 11.544,-23.872 12.03333,-31.396 0.35867,-5.496 -1.48533,-11.57333 -2.116,-16.93467 -0.34533,-2.94133 -0.66133,-5.66666 -0.80666,-8.03866 0.12,0.26666 0.20266,0.532 0.20266,0.79466 0.0173,-1.38266 -0.536,-3.04 0,-5.21066 0.496,-1.51334 0.728,-3.09467 1.27734,-4.61334 0.30266,-0.83333 0.62,-1.77333 0.856,-2.72933 0.11733,-0.244 0.236,-0.48933 0.35066,-0.72533 0.984,-2.02267 1.83334,-3.76934 1.83334,-5.87467 0,-1.95333 0.87466,-15.52933 -1.996,-29.299999 -2.476,-11.878666 -8.244,-26.117333 -15.61467,-34.651999 -13.904,-16.098666 -42.63066,-28.709333 -65.4,-28.709333 -23.86933,0 -70.32799,22.622666 -70.32799,64.095999 0,5.121333 0.47333,10.244002 0.65866,15.346662 0.23067,6.312 1.13334,12.572 2.01067,18.82 0.82667,5.896 1.05467,11.95334 2.50267,17.74267 0.52266,2.092 7.96533,18.804 10.52399,20.476 2.56,1.672 6.89467,2.30667 7.90667,6.12933 1.012,3.82267 11.92267,20.632 14.31467,23.33467 8.772,9.90933 26.08933,21.02 26.08933,21.02"
       style="fill:#cd976d;fill-opacity:1;fill-rule:nonzero;stroke:none;stroke-width:1.33333"
       id="path32279" />
    <path
       d="m 314.23879,230.52374 c -1.48666,0.288 -3.28,0.492 -5.47066,0.54 -2.59334,0.0573 -16.85334,-2.18134 -19.57734,-2.85334 -2.47733,-0.61066 -24.252,-8.95466 -30.57066,-11.87066 0,0 -17.31734,-11.10934 -26.08934,-21.01867 -2.392,-2.70266 -13.304,-19.51333 -14.31466,-23.336 -1.012,-3.82266 -5.34667,-4.456 -7.90667,-6.12933 -2.55867,-1.672 -10.00133,-18.38267 -10.52533,-20.476 -1.27467,-5.09867 -1.736,-10.364 -2.18533,-15.58667 -0.60134,-6.97866 -2.07067,-13.964 -2.32667,-20.976 -0.18667,-5.10133 -0.65867,-10.225329 -0.65867,-15.346662 0,-1.233334 0.0467,-2.446667 0.12667,-3.646667 0.0413,-0.609333 0.11733,-1.204 0.17867,-1.805333 0.0587,-0.578667 0.10533,-1.161334 0.18266,-1.730667 0.0813,-0.605333 0.19067,-1.198666 0.292,-1.794666 0.0933,-0.549334 0.18134,-1.1 0.29067,-1.642667 0.12,-0.590667 0.26133,-1.172 0.4,-1.754667 0.12667,-0.529333 0.25333,-1.057333 0.39467,-1.58 0.15733,-0.573333 0.32666,-1.141333 0.50133,-1.706666 0.15867,-0.513334 0.32133,-1.022667 0.49467,-1.528 0.19066,-0.556 0.38933,-1.108 0.596,-1.654667 0.18933,-0.497333 0.388,-0.988 0.59066,-1.478666 0.22267,-0.536 0.44667,-1.072 0.68534,-1.6 0.21866,-0.481334 0.44933,-0.956 0.68133,-1.429334 0.252,-0.518666 0.50133,-1.037333 0.768,-1.545333 0.24666,-0.468 0.50933,-0.924 0.76666,-1.384 0.28,-0.497333 0.55334,-1 0.84667,-1.489333 0.272,-0.450667 0.56267,-0.888 0.84667,-1.332 0.58533,-0.917334 1.19466,-1.817334 1.828,-2.701334 0.3,-0.418666 0.59066,-0.844 0.9,-1.254666 0.352,-0.465333 0.72266,-0.914667 1.08533,-1.370667 0.31733,-0.397333 0.628,-0.797333 0.95333,-1.186666 0.37734,-0.450667 0.768,-0.888 1.156,-1.326667 0.332,-0.376 0.66134,-0.754667 1,-1.122667 0.4,-0.433333 0.81067,-0.857333 1.22,-1.281333 0.34534,-0.356 0.69067,-0.710667 1.044,-1.06 0.42134,-0.417333 0.84934,-0.828 1.28134,-1.234667 0.35466,-0.334666 0.712,-0.666666 1.07333,-0.993333 0.444,-0.404 0.892,-0.802667 1.34533,-1.194667 0.35867,-0.310666 0.72134,-0.614666 1.084,-0.917333 0.47067,-0.392 0.94134,-0.782667 1.41867,-1.162667 0.34933,-0.278666 0.704,-0.548 1.05733,-0.82 0.504,-0.387999 1.00667,-0.777333 1.51867,-1.151999 0.308,-0.226667 0.62267,-0.442667 0.93333,-0.665334 0.56534,-0.402666 1.12934,-0.808 1.70267,-1.196 0.032,-0.02133 0.0653,-0.04267 0.0987,-0.064 1.616,-1.090666 3.26,-2.121333 4.92133,-3.089333 0.0347,-0.02 0.068,-0.04133 0.10267,-0.06133 0.67066,-0.390667 1.34666,-0.762667 2.024,-1.133334 0.232,-0.128 0.464,-0.26 0.69733,-0.385333 0.64133,-0.344 1.28667,-0.673333 1.93067,-1 0.26666,-0.133333 0.532,-0.272 0.79733,-0.402667 0.63867,-0.316 1.27867,-0.618666 1.91867,-0.917333 0.268,-0.124 0.536,-0.249333 0.80266,-0.370667 0.64667,-0.293333 1.29334,-0.577333 1.94,-0.852 0.24934,-0.106666 0.5,-0.212 0.75067,-0.316 0.66533,-0.276 1.33067,-0.545333 1.99467,-0.802666 0.20933,-0.08133 0.41866,-0.158667 0.628,-0.237334 0.704,-0.266666 1.408,-0.528 2.10666,-0.771999 0.12267,-0.04267 0.244,-0.08133 0.36534,-0.124 4.212,-1.449334 8.312,-2.496 12.116,-3.12 2.09866,-0.284 4.18933,-0.554667 6.24933,-0.658667 0.55333,-0.02133 1.108,-0.04667 1.64,-0.04667 0.65733,0 1.32,0.01333 1.98533,0.03333 -3.824,-0.117334 -10.224,8.009333 -12.312,10.685333 -3.452,4.425333 -6.08266,9.446666 -8.20933,14.625333 -4.45333,10.843999 -5.95067,18.627999 -4.79467,30.290666 1.09334,11.041333 5.60267,22.094669 4.03734,33.343999 -2.16934,15.58667 -5.072,24.548 -2.20934,35.43334 1.85067,7.04 5.37334,15.19333 10.81734,19.89866 10.86,9.38534 23.88933,31.372 28.776,36.86933 4.88666,5.49734 14.16266,16.52534 31.20666,19.96934"
       style="opacity:0.199997;fill:#000000;fill-opacity:1;fill-rule:nonzero;stroke:none;stroke-width:1.33333"
       id="path32289" />
    <path
       d="m 344.66599,135.02067 c 1.13067,-5.65066 4.14133,-9.57066 4.23733,-15.424 0.37067,-22.471996 -3.42666,-45.647995 -17.74133,-62.222661 -14.31466,-16.574667 -43.24133,-29.085333 -66.22,-29.085333 -22.97866,0 -71.41466,21.861333 -71.41466,65.181332 0,14.761332 1.812,31.064002 2.81333,38.526662 1.41334,15.38267 6.84933,26.53334 9.90133,30.68934 0.64,0.872 1.548,1.896 2.372,2.876 0.436,0.51733 0.94267,1.096 2.34,1.27733 0.392,0.0507 1.08,-0.69733 -0.0893,-2.288 -9.65333,-13.11867 -11.72666,-37.78933 -12.24266,-42.484 -0.096,-5.56667 -1.45867,-20.96267 -1.45867,-28.077332 0,-44.199999 51.94133,-62.387999 69.27066,-62.639999 17.328,-0.250666 48.52534,14.352 62.78267,28.881333 12.772,13.013333 16.62666,31.831999 17.44933,56.077328 0.18933,5.60934 -3.888,15.99734 -4.64133,18.25734 -0.75334,2.26 3.07466,10.06266 2.84933,26.33333 -0.144,10.47067 -6.61067,20.46667 -8.59867,24.94933 -3.07599,6.93467 -4.54933,11.85067 -6.81466,18.95867 -2.19467,6.88266 -4.66,16.96 -8.52133,20.912 -1.372,1.404 -2.96934,2.68266 -4.87867,3.41466 -1.852,0.71067 -3.89867,0.87067 -5.89867,0.86667 -10.452,-0.0213 -32.47466,-6.56667 -43.32,-11.896 -7.072,-3.47333 -14.87066,-7.516 -21.39333,-12.172 -6.432,-4.59067 -11.432,-9.03333 -15.612,-15.936 -3.57867,-5.912 -4.512,-8.504 -8.292,-14.10933 1.55333,2.30267 5.85333,18.33733 17.91067,28.63733 6.96,5.94533 13.15333,9.46133 20.98133,13.732 3.332,1.81733 6.70933,3.56933 10.14267,5.22533 9.31333,4.492 29.508,8.67467 38.25066,9.084 3.02934,0.14134 6.168,-0.016 8.952,-1.15466 2.79734,-1.144 5.032,-3.19867 6.83867,-5.436 5.184,-6.42267 7.39333,-19.17467 11.272,-29.46667 4.03066,-10.696 10.65333,-19.532 11.54666,-31.104 1.70267,-22.072 -3.904,-24.73333 -2.77333,-30.384"
       style="fill:#000000;fill-opacity:1;fill-rule:nonzero;stroke:none;stroke-width:1.33333"
       id="path32299" />
  </g>
  <g
     inkscape:groupmode="layer"
     id="layer3"
     inkscape:label="Bolian Seam">
    <path
       style="fill:#cd976d;fill-opacity:1;stroke:none;stroke-width:1px;stroke-linecap:butt;stroke-linejoin:miter;stroke-opacity:1"
       d="m 310.68252,231.19005 6.13463,-7.04967 2.67359,3.95636 c 0,0 -3.23346,4.2888 -4.25041,4.11931 -1.01695,-0.16949 -4.55781,-1.026 -4.55781,-1.026 z"
       id="path1898"
       sodipodi:nodetypes="cccsc" />
    <path
       style="color:#000000;fill:#000000;-inkscape-stroke:none"
       d="m 316.5293,200.91602 -0.80078,0.006 c 0,0 0.0589,9.19637 0.51367,13.0586 0.45004,3.82246 0.7034,7.60014 0.3659,12.50105 -0.33368,4.84538 -2.90432,6.68018 -2.90432,6.68018 l 1.04704,0.11053 c 0,0 2.30621,-1.65519 2.65611,-6.73602 0.34606,-5.02526 0.073,-8.88824 -0.36981,-12.64949 -0.43818,-3.72149 -0.50781,-12.9707 -0.50781,-12.9707 z"
       id="path1738"
       sodipodi:nodetypes="ccssccsscc" />
    <path
       style="color:#000000;fill:#000000;fill-opacity:0.2;-inkscape-stroke:none"
       d="m 313.52513,200.92202 c 0,0 0.0589,9.19637 0.51367,13.0586 0.45004,3.82246 1.01046,7.55628 0.67296,12.45719 -0.33368,4.84538 -2.0329,6.06451 -2.0329,6.06451 l 1.17984,0.66632 c 0,0 1.96116,-1.71512 2.31106,-6.79595 0.34606,-5.02526 -0.29396,-8.84438 -0.7368,-12.60563 -0.43818,-3.72149 -0.50781,-12.85085 -0.50781,-12.85085 z"
       id="path1894"
       sodipodi:nodetypes="cssccsscc" />
    <path
       style="color:#000000;fill:#000000;-inkscape-stroke:none"
       d="m 319.43697,227.16236 c -2.11048,0.80991 -1.87949,2.22985 -2.6768,2.8889 -0.22527,0.19294 -0.73817,-0.005 -1.04382,0.002 -0.15274,-0.0227 -0.6213,0.24754 -0.72401,0.337 -2.06492,-0.69136 -4.45826,-0.29158 -6.63311,-0.38905 l 0.12178,2.50456 c 1.78502,-0.0887 3.812,0.37603 4.86988,1.267 l 1.13086,0.95118 1.03711,-0.87696 1.11719,0.50391 0.71801,-1.13851 c 0.7488,-1.32507 2.31666,-3.00293 3.33907,-3.44159 z"
       id="path1896"
       sodipodi:nodetypes="ccccccccccccc" />
  </g>
</svg>
