<?xml version="1.0" encoding="UTF-8" standalone="no"?>
<!-- Created with Inkscape (http://www.inkscape.org/) -->

<svg
   version="1.1"
   id="svg15241"
   width="400"
   height="400"
   viewBox="0 0 400 400"
   sodipodi:docname="Head7.svg"
   inkscape:version="1.2.2 (b0a8486, 2022-12-01)"
   xmlns:inkscape="http://www.inkscape.org/namespaces/inkscape"
   xmlns:sodipodi="http://sodipodi.sourceforge.net/DTD/sodipodi-0.dtd"
   xmlns="http://www.w3.org/2000/svg"
   xmlns:svg="http://www.w3.org/2000/svg">
  <defs
     id="defs15245" />
  <sodipodi:namedview
     id="namedview15243"
     pagecolor="#ffffff"
     bordercolor="#666666"
     borderopacity="1.0"
     inkscape:showpageshadow="2"
     inkscape:pageopacity="0.0"
     inkscape:pagecheckerboard="0"
     inkscape:deskcolor="#d1d1d1"
     showgrid="false"
     inkscape:zoom="1.6175"
     inkscape:cx="200"
     inkscape:cy="200"
     inkscape:window-width="1440"
     inkscape:window-height="1091"
     inkscape:window-x="2568"
     inkscape:window-y="137"
     inkscape:window-maximized="0"
     inkscape:current-layer="layer2"
     showguides="true">
    <inkscape:page
       x="0"
       y="0"
       id="page15247"
       width="400"
       height="400" />
  </sodipodi:namedview>
  <g
     id="g15249"
     inkscape:groupmode="layer"
     inkscape:label="Page 1">
    <path
       d="m 334.03052,208.00587 c 0.21734,-2.676 1.20534,-4.752 1.396,-6.12267 0.228,-1.632 1.97467,-15.05733 3.49867,-19.25733 2.90933,-8.01733 6.37867,-21.30666 6.38133,-22.464 0.008,-4.54266 -0.43733,-6.36666 -1.068,-11.72933 -0.34533,-2.94 -0.66133,-5.66533 -0.80666,-8.03733 0.12,0.26533 0.20266,0.532 0.20266,0.79333 0.0173,-1.38267 -0.536,-3.03867 0,-5.20933 0.496,-1.51467 0.728,-3.096 1.27734,-4.61334 0.30266,-0.83333 0.84266,-1.82533 1.112,-2.65466 0.13333,-0.21334 0.268,-0.42534 0.39866,-0.63067 1.12267,-1.756 2.092,-3.272 2.092,-5.1 0,-1.69467 0.312,-16.47333 -2.55866,-30.245332 -2.476,-11.877333 -8.244,-28.066666 -15.61467,-36.923999 -13.904,-16.709333 -42.63066,-26.437333 -65.4,-26.437333 -23.86933,0 -70.32799,22.623999 -70.32799,64.097332 0,5.121333 0.47333,10.244002 0.65866,15.346662 0.23067,6.31067 1.13334,12.572 2.01067,18.81867 0.82667,5.89733 1.05467,11.95467 2.50267,17.74267 0.52266,2.09333 7.96533,18.804 10.52399,20.47733 2.56,1.672 6.89467,2.30533 7.90667,6.12933 1.012,3.82267 11.92267,26.77734 14.31467,29.17467 8.772,8.784 14.516,15.656 14.516,15.656 1.24266,0.35333 16.696,5.71866 19.94933,6.40533 13.67333,2.89067 23.072,5.09867 25.172,5.61867 9.01067,2.22933 37.46,2.76666 39.604,-3.98667 2.14266,-6.752 2.25866,-16.848 2.25866,-16.848"
       style="fill:#cd976d;fill-opacity:1;fill-rule:nonzero;stroke:none;stroke-width:1.33333"
       id="path18525" />
    <path
       d="m 313.30973,230.54654 c -2.72,0.009 -24.52,-2.70667 -27.384,-3.38534 -2.60667,-0.61733 -17.284,-4.808 -23.744,-6.82533 0,0 -10.87467,-2.03733 -13.85334,-3.56267 -6.72933,-3.44533 -9.71733,-9.524 -15.79733,-15.61333 -2.39333,-2.396 -13.304,-25.352 -14.316,-29.17466 -1.01067,-3.82267 -5.34667,-4.456 -7.90533,-6.12934 -2.55867,-1.672 -10.00134,-18.384 -10.52533,-20.476 -1.27467,-5.09866 -1.736,-10.36533 -2.18534,-15.58666 -0.60133,-6.97867 -2.07066,-13.964 -2.32666,-20.976 -0.18667,-5.10267 -0.65867,-10.225336 -0.65867,-15.346669 0,-1.233333 0.0467,-2.446667 0.12667,-3.646667 0.0413,-0.609333 0.11733,-1.204 0.17866,-1.805333 0.0587,-0.578667 0.10534,-1.161333 0.18267,-1.732 0.0813,-0.605333 0.19067,-1.197333 0.292,-1.793333 0.0933,-0.549333 0.18133,-1.101333 0.29067,-1.642667 0.12,-0.590666 0.26,-1.172 0.4,-1.754666 0.12666,-0.529334 0.25333,-1.058667 0.39466,-1.58 0.156,-0.574667 0.32667,-1.141334 0.50134,-1.706667 0.15866,-0.513333 0.32133,-1.022667 0.49466,-1.528 0.19067,-0.556 0.388,-1.108 0.596,-1.654667 0.18934,-0.497333 0.388,-0.989333 0.59067,-1.478666 0.22267,-0.536 0.44667,-1.072 0.68533,-1.6 0.21734,-0.481333 0.44934,-0.956 0.68,-1.430667 0.25333,-0.517333 0.50267,-1.036 0.76933,-1.544 0.24667,-0.468 0.508,-0.924 0.76667,-1.384 0.28,-0.497333 0.55333,-1 0.84667,-1.489333 0.272,-0.450667 0.56266,-0.889333 0.84666,-1.332 0.58534,-0.917333 1.19467,-1.818667 1.828,-2.701333 0.3,-0.418667 0.59067,-0.844 0.9,-1.254667 0.352,-0.465333 0.72134,-0.916 1.08534,-1.370666 0.31733,-0.397334 0.628,-0.798667 0.95333,-1.186667 0.37733,-0.450667 0.768,-0.888 1.156,-1.328 0.33067,-0.374667 0.66,-0.753333 1,-1.121333 0.4,-0.433334 0.80933,-0.858667 1.22,-1.281334 0.34533,-0.356 0.69067,-0.710666 1.04267,-1.06 0.42266,-0.417333 0.85066,-0.828 1.28266,-1.234666 0.35467,-0.334667 0.712,-0.666667 1.07334,-0.993334 0.444,-0.404 0.892,-0.802666 1.34533,-1.194666 0.35867,-0.310667 0.72133,-0.614667 1.084,-0.917334 0.47067,-0.392 0.94,-0.782666 1.41867,-1.162666 0.34933,-0.278667 0.704,-0.548 1.05733,-0.82 0.504,-0.388 1.00667,-0.777333 1.51867,-1.152 0.308,-0.226667 0.62266,-0.442667 0.93333,-0.665333 0.56533,-0.402667 1.12933,-0.808 1.70133,-1.196 0.0333,-0.02133 0.0667,-0.04267 0.1,-0.064 1.616,-1.090667 3.26,-2.121334 4.92134,-3.090667 0.0347,-0.01867 0.068,-0.04133 0.10266,-0.06 0.67067,-0.390667 1.34667,-0.762667 2.02267,-1.133333 0.23333,-0.128 0.46533,-0.26 0.69867,-0.385334 0.64133,-0.344 1.28533,-0.673333 1.93066,-1 0.26534,-0.134666 0.532,-0.272 0.79734,-0.402666 0.63866,-0.316 1.27866,-0.618667 1.91866,-0.917334 0.268,-0.124 0.53467,-0.249333 0.80267,-0.370666 0.64667,-0.293334 1.29333,-0.577334 1.93867,-0.852 0.25066,-0.106667 0.50133,-0.212 0.752,-0.316 0.66533,-0.276 1.33066,-0.545334 1.99466,-0.802667 0.20934,-0.08133 0.41867,-0.158667 0.628,-0.237333 0.704,-0.266667 1.408,-0.528 2.10667,-0.772 0.12267,-0.04267 0.24267,-0.08133 0.36533,-0.124 4.212,-1.450667 8.312,-2.497333 12.116,-3.12 2.09867,-0.284 4.18934,-0.554667 6.24934,-0.658667 0.55333,-0.02267 1.108,-0.04667 1.64,-0.04667 0.656,0 1.32,0.01333 1.98533,0.03333 -3.824,-0.117333 -10.224,8.009333 -12.312,10.685333 -3.452,4.425333 -6.08267,9.446666 -8.20933,14.625333 -4.45334,10.844 -5.95067,18.627999 -4.79467,30.290666 1.09333,11.041333 5.23867,22.050659 4.03733,33.343999 -0.52666,4.93733 -3.39466,5.88666 -4.304,12.18133 -1.368,9.47067 -0.91333,11.54 3.25467,21.99467 3.252,8.15866 13.60133,15.17066 16.39067,35.74666 0.916,6.75467 10.37866,31.912 48.66666,38.40933 5.57067,0.952 16.94934,0.136 21.39734,-4.06 -3.16934,6.34 -10.60267,7.896 -17.744,7.92134"
       style="opacity:0.199997;fill:#000000;fill-opacity:1;fill-rule:nonzero;stroke:none;stroke-width:1.33333"
       id="path18535" />
    <path
       d="m 267.61599,220.88387 c 16.56534,5.58 41.41334,8.132 47.67067,8.132 8.82667,0 16.87733,-2.34267 16.49333,-14.1 -0.0947,-2.87733 1.25734,-8.63467 1.80133,-13.016 0.91067,-7.33066 2.272,-17.12133 4.39467,-22.168 1.372,-3.26133 6.08667,-14.608 5.56533,-23.264 -0.80933,-13.45066 -2.26933,-19.64133 -1.516,-21.90133 0.75334,-2.26 5.23867,-11.688 5.02267,-16.55733 -0.93867,-21.046669 -5.05867,-46.462668 -17.83066,-59.969335 -14.25867,-15.079999 -45.456,-26.941332 -62.784,-26.689332 -17.328,0.250666 -69.27067,18.439999 -69.27067,62.639998 0,7.113329 1.36267,22.510669 1.45867,28.075999 0.51733,4.696 2.58933,29.36667 12.24266,42.48533 1.17067,1.58934 0.48134,2.33867 0.0893,2.28667 -1.39734,-0.18 -1.904,-0.75867 -2.34,-1.27733 -0.824,-0.98 -1.73067,-2.004 -2.37067,-2.87467 -3.05333,-4.15733 -8.48933,-15.30667 -9.90266,-30.68933 -1,-7.464 -2.812,-23.76534 -2.812,-38.526669 0,-43.319999 48.43466,-65.181332 71.41333,-65.181332 22.97866,0 51.90666,9.581333 66.22133,26.785333 14.31466,17.202666 18.85866,46.281328 18.43733,65.787998 -0.10933,5.08267 -3.804,8.508 -4.93467,14.15867 -1.12933,5.64933 1.62934,6.912 1.728,25.17066 0.0213,4.168 -3.812,16.488 -5.95333,20.056 -2.14133,3.568 -5.792,27.86667 -5.944,34.27467 -0.15333,6.408 -1.48933,17.26 -18.36,17.26 -20.14266,0 -45.32533,-7.036 -49.49466,-8.02134 -3.32267,-0.784 -8.60934,-2.67466 -11.75467,-3.74933 -7.388,-2.52267 -7.81067,-2.22667 -14.336,-6.07733 -4.01067,-2.368 -5.504,-7.71867 -8.204,-11.72267 -1.75333,-2.6 -2.92267,-9.268 -4.12,-12.28266 -0.91867,-2.31067 -1.31467,-5.51734 -2.748,-7.52 3.488,4.87333 6.312,12.69866 9.19867,17.70933 8.62,14.95866 8.92,12.67466 32.93866,20.76533"
       style="fill:#000000;fill-opacity:1;fill-rule:nonzero;stroke:none;stroke-width:1.33333"
       id="path18545" />
  </g>
  <g
     inkscape:groupmode="layer"
     id="layer2"
     inkscape:label="Bolian Seam">
    <path
       style="fill:#cd976d;fill-opacity:1;stroke:none;stroke-width:1px;stroke-linecap:butt;stroke-linejoin:miter;stroke-opacity:1"
       d="m 312.5969,228.84326 7.77957,-4.70288 3.99936,4.5043 c 0,0 -4.55923,3.74086 -5.57618,3.57137 -1.01695,-0.16949 -6.20275,-3.37279 -6.20275,-3.37279 z"
       id="path1898"
       sodipodi:nodetypes="cccsc" />
    <path
       style="color:#000000;fill:#000000;-inkscape-stroke:none"
       d="m 324.0564,227.83668 c -2.14226,0.46033 -2.22051,1.49561 -3.01782,2.15466 -0.22527,0.19294 -0.73817,-0.005 -1.04382,0.002 -0.15274,-0.0227 -0.6213,0.24754 -0.72401,0.337 -1.714,-1.04228 -4.64244,-1.30567 -6.81729,-1.40314 l 0.0183,2.76001 c 1.80621,0.10198 4.09987,1.13467 5.15775,2.02564 l 1.13086,0.95118 1.03711,-0.87696 1.11719,0.50391 0.84961,-1.05078 c 1.06604,-1.53109 1.94261,-2.71715 3.30108,-2.80489 z"
       id="path1896"
       sodipodi:nodetypes="ccccccccccccc" />
    <path
       style="color:#000000;fill:#000000;-inkscape-stroke:none"
       d="m 317.00977,201.01562 -0.79883,0.002 c 0,0 0.002,1.57198 0.10937,3.48828 0.10786,1.9163 0.31218,4.16446 0.75586,5.61133 0.44213,1.44185 1.26612,2.60529 2.04492,3.71679 0.77881,1.11151 1.50986,2.1713 1.84961,3.39258 0.70204,2.5236 0.64858,5.6996 0.32813,7.97266 -0.30967,2.19659 -1.83008,5.47851 -1.83008,5.47851 l 0.72461,0.33985 c 0,0 1.55487,-3.26997 1.89844,-5.70703 0.33279,-2.3606 0.40087,-5.60112 -0.34961,-8.29883 -0.38651,-1.38937 -1.18738,-2.52433 -1.9668,-3.63672 -0.77942,-1.11239 -1.54025,-2.20305 -1.93555,-3.49219 -0.39377,-1.28413 -0.61419,-3.5294 -0.7207,-5.42187 -0.10651,-1.89248 -0.10937,-3.44531 -0.10937,-3.44532 z"
       id="path49260" />
    <path
       id="path49323"
       style="opacity:0.199997;fill:#000000;fill-opacity:1;fill-rule:nonzero;stroke:none;stroke-width:1.33333"
       d="m 322.28906,226.29492 c -2.2154,0.42468 -4.49743,0.65772 -6.65429,0.71289 l -3.03711,1.83594 c 0,0 1.30942,0.80998 2.74218,1.63672 1.33552,0.12749 3.4465,0.39474 3.93512,0.38103 0.70334,-0.0197 3.49439,-1.54807 5.09027,-2.22869 z"
       sodipodi:nodetypes="ccccscc" />
    <path
       style="color:#000000;fill:#000000;fill-opacity:0.2;-inkscape-stroke:none"
       d="m 315.804,201.04654 -1.23167,-0.0289 c 0,0 0.002,1.57198 0.10937,3.48828 0.10786,1.9163 0.31218,4.16446 0.75586,5.61133 0.44213,1.44185 1.26612,2.82171 2.04492,3.93321 0.77881,1.11151 1.50986,2.1713 1.84961,3.39258 0.70204,2.5236 0.64858,5.48318 0.32813,7.75624 -0.30967,2.19659 -1.83008,5.47851 -1.83008,5.47851 l 1.15745,0.37077 c 0,0 1.55487,-3.26997 1.89844,-5.70703 0.33279,-2.3606 0.40087,-5.3847 -0.34961,-8.08241 -0.38651,-1.38937 -1.18738,-2.52433 -1.9668,-3.63672 -0.77942,-1.11239 -1.54025,-2.41947 -1.93555,-3.70861 -0.39377,-1.28413 -0.61419,-3.5294 -0.7207,-5.42187 -0.10651,-1.89248 -0.10937,-3.44531 -0.10937,-3.44532 z"
       id="path50060"
       sodipodi:nodetypes="cccssssccssssssc" />
  </g>
</svg>
