<?xml version="1.0" encoding="UTF-8" standalone="no"?>
<!-- Created with Inkscape (http://www.inkscape.org/) -->

<svg
   version="1.1"
   id="svg159581"
   width="400"
   height="400"
   viewBox="0 0 400 400"
   sodipodi:docname="Head2-b.svg"
   inkscape:version="1.2.2 (b0a8486, 2022-12-01)"
   xmlns:inkscape="http://www.inkscape.org/namespaces/inkscape"
   xmlns:sodipodi="http://sodipodi.sourceforge.net/DTD/sodipodi-0.dtd"
   xmlns="http://www.w3.org/2000/svg"
   xmlns:svg="http://www.w3.org/2000/svg">
  <defs
     id="defs159585" />
  <sodipodi:namedview
     id="namedview159583"
     pagecolor="#ffffff"
     bordercolor="#666666"
     borderopacity="1.0"
     inkscape:showpageshadow="2"
     inkscape:pageopacity="0.0"
     inkscape:pagecheckerboard="0"
     inkscape:deskcolor="#d1d1d1"
     showgrid="false"
     inkscape:zoom="1.475"
     inkscape:cx="182.71186"
     inkscape:cy="200"
     inkscape:window-width="1440"
     inkscape:window-height="810"
     inkscape:window-x="2270"
     inkscape:window-y="83"
     inkscape:window-maximized="0"
     inkscape:current-layer="g159589">
    <inkscape:page
       x="0"
       y="0"
       id="page159587"
       width="400"
       height="400" />
  </sodipodi:namedview>
  <g
     id="g159589"
     inkscape:groupmode="layer"
     inkscape:label="Page 1">
    <path
       d="m 194.61306,93.470808 c 0,-41.473333 46.45867,-64.095999 70.328,-64.095999 22.76933,0 51.496,12.610667 65.4,28.709333 7.37066,8.534666 11.86933,24.485333 14.34533,36.362666 2.87067,13.772002 3.828,25.636002 3.828,27.589332 0,2.10533 -0.968,3.852 -2.09067,5.87467 -0.132,0.236 -0.26533,0.48133 -0.4,0.72533 -0.26933,0.956 -0.80933,1.896 -1.11066,2.72933 -0.55067,1.51867 -0.78267,3.1 -1.27867,4.61334 -0.536,2.17066 0.0173,3.828 0,5.21066 0,-0.26266 -0.0827,-0.528 -0.20267,-0.79466 0.14534,2.372 0.46267,5.09733 0.80667,8.03866 0.63067,5.36134 1.344,11.43867 1.16,16.93467 -0.25067,7.524 -5.304,22.76667 -8.808,32.852 -1.74933,5.03066 -3.012,8.66533 -3.26666,10.308 -0.212,1.37866 -0.44,3.71333 -0.70267,6.41733 -0.51467,5.28667 -1.58533,16.28667 -2.832,17.404 -1.12933,1.004 -15.08533,1.932 -26.608,1.47467 -3.27867,-0.12934 -6.32667,-0.376 -9.056,-0.73334 -3.25467,-0.42533 -12.89333,-4.07466 -19.13067,-7.36266 0,0 -47.484,-26.90267 -48.78,-28.524 -1.29733,-1.62 -7.94133,-21.87867 -8.104,-24.63333 -0.16133,-2.75467 -6.21333,-4.74134 -7.65066,-6.49467 -1.436,-1.75467 -15.2,-22.656 -15.2,-50.876 0,-17.663999 -0.64667,-21.729332 -0.64667,-21.729332"
       style="fill:#cd976d;fill-opacity:1;fill-rule:nonzero;stroke:none;stroke-width:1.33333"
       id="path160653" />
    <path
       d="m 344.66599,135.02067 c 1.13067,-5.65066 4.93467,-8.464 4.93467,-12.984 0,-4.52133 -4.124,-48.087995 -18.43867,-64.662661 -14.31466,-16.574667 -43.24133,-29.085333 -66.22,-29.085333 -22.97866,0 -71.41466,21.861333 -71.41466,65.181332 0,10.382662 -0.212,20.794662 0.9,31.134662 1.076,10.02134 3.79067,20.05867 7.30266,29.49867 1.51334,4.06533 4.93067,9.7 7.96267,12.45467 0.308,0.28 1.244,0.376 1.56533,0.108 0.212,-0.176 0.18934,-0.48267 0.13467,-0.74 -0.276,-1.30667 -2.97733,-5.04134 -3.576,-6.25334 -8.14533,-16.48 -11.384,-36.80133 -10.812,-56.75333 0.0853,-2.969332 0.15867,-5.953332 0.15867,-8.929332 0,-44.199999 51.94133,-62.387999 69.27066,-62.639999 17.328,-0.250666 49.97467,13.058667 62.78267,28.881333 12.808,15.821333 17.07733,54.997328 17.83066,59.266668 0.75334,4.26933 -4.26933,12.808 -5.02266,15.068 -0.75334,2.26 1.75866,25.616 1.75866,30.88933 0,5.27467 -13.10133,39.93066 -13.14133,42.69333 -0.0413,2.76267 -2.19866,20.59333 -2.856,21.848 -0.65733,1.256 -28.30666,1.95867 -36.564,1.23333 -8.25866,-0.724 -60.92,-32.07066 -63.18,-34.33066 -2.26,-2.26 -9.96133,-25.23067 -9.96133,-25.23067 0.0547,0.25467 -0.0507,-0.26133 0,0 0,0 1.78933,23.00534 9.32267,28.28 7.53466,5.27333 49.608,32.20267 63.23333,33.636 13.624,1.43333 37.79467,1.48133 39.91067,-0.40133 2.11733,-1.884 3.09599,-19.51467 3.85333,-24.41067 0.75733,-4.89733 11.70666,-32.068 12.08266,-43.368 0.37734,-11.30133 -2.948,-24.73333 -1.81733,-30.384"
       style="fill:#000000;fill-opacity:1;fill-rule:nonzero;stroke:none;stroke-width:1.33333"
       id="path160657" />
    <path
       d="m 241.28973,153.56841 c 0,0 0.42133,8.928 6.41333,14.70533 5.99067,5.776 13.99733,17.45867 13.99733,17.45867 l -6.13333,-18.56 c 0,0 -9.356,-6.32934 -14.27733,-13.604"
       style="fill:#000000;fill-opacity:1;fill-rule:nonzero;stroke:none;stroke-width:1.33333"
       id="path160661" />
    <path
       d="m 303.18133,233.8244 c 1.61333,0.064 3.27333,0.0987 4.93733,0.112 0.0627,0 0.12533,0 0.188,0 1.652,0.0107 3.30667,0 4.92667,-0.0307 -3.084,-1.552 -8.268,-1.66534 -10.96934,-2.48134 -3.93733,-1.19066 -8.01466,-2.344 -11.28933,-4.85466 -2.38,-1.824 -4.888,-3.49334 -6.35333,-6.20934 -1.11867,-2.07466 -1.77067,-4.36133 -2.58,-6.57333 -1.91867,-5.248 -4.76934,-10.15333 -8.36667,-14.42666 -3.84267,-4.56534 -8.584,-8.15867 -11.53333,-13.48267 -2.17067,-3.91733 -3.28934,-8.34533 -5.588,-12.196 -2.432,-4.072 -6.65067,-6.5 -9.34,-10.42933 -6.56534,-9.59467 -9.94134,-21.37467 -7.168,-32.828 1.11333,-4.6 5.07733,-7.13334 5.60266,-12.07067 1.20267,-11.29467 -2.944,-22.302666 -4.03733,-33.345332 -1.156,-11.661333 0.34133,-19.445333 4.79467,-30.290666 2.12666,-5.177333 4.75733,-10.198666 8.21066,-14.624 2.08667,-2.676 8.48667,-10.803999 12.312,-10.685333 -0.66666,-0.02133 -1.32933,-0.03333 -1.98666,-0.03333 -0.89467,0 -1.788,0.04533 -2.68134,0.096 -0.644,0.04133 -1.29466,0.09067 -1.96266,0.161333 -0.0507,0.0053 -0.1,0.01067 -0.15067,0.016 -4.82,0.518667 -10.24667,1.788 -15.85867,3.772 -0.45733,0.164 -0.912,0.330667 -1.36533,0.501333 -0.40533,0.150667 -0.812,0.304 -1.22,0.462667 -0.692,0.270667 -1.37867,0.552 -2.06133,0.836 -21.97334,9.188 -45.028,29.034666 -45.028,58.250665 0,0 0.64667,4.065334 0.64667,21.729333 0,28.21866 13.76399,49.12133 15.19999,50.876 1.436,1.75333 7.488,3.74 7.65067,6.49466 0.16267,2.75467 6.80667,23.01334 8.10267,24.63334 1.29733,1.62133 48.78133,28.52266 48.78133,28.52266 1.16,0.612 2.43867,1.236 3.77067,1.85067 l 0.49866,-0.54534 c 4.624,2.43867 8.768,4.35334 11.93067,5.356 0.11733,0.0347 0.23867,0.0733 0.352,0.10534 0.164,0.0493 0.316,0.0867 0.47467,0.132 0.412,0.112 0.79066,0.20666 1.13466,0.28266 0.33467,0.0707 0.66934,0.14267 0.968,0.18267 2.048,0.26667 4.27467,0.47333 6.64267,0.61333 0.78933,0.048 1.59467,0.088 2.41467,0.12 z"
       style="opacity:0.199997;fill:#000000;fill-opacity:1;fill-rule:nonzero;stroke:none;stroke-width:1.33333"
       id="path160671" />
  </g>
</svg>
