<?xml version="1.0" encoding="UTF-8" standalone="no"?>
<!-- Created with Inkscape (http://www.inkscape.org/) -->

<svg
   version="1.1"
   id="svg58844"
   width="400"
   height="400"
   viewBox="0 0 400 400"
   sodipodi:docname="Head9.svg"
   inkscape:version="1.2.2 (b0a8486, 2022-12-01)"
   xml:space="preserve"
   xmlns:inkscape="http://www.inkscape.org/namespaces/inkscape"
   xmlns:sodipodi="http://sodipodi.sourceforge.net/DTD/sodipodi-0.dtd"
   xmlns="http://www.w3.org/2000/svg"
   xmlns:svg="http://www.w3.org/2000/svg"><defs
     id="defs58848" /><sodipodi:namedview
     id="namedview58846"
     pagecolor="#ffffff"
     bordercolor="#666666"
     borderopacity="1.0"
     inkscape:showpageshadow="2"
     inkscape:pageopacity="0.0"
     inkscape:pagecheckerboard="0"
     inkscape:deskcolor="#d1d1d1"
     showgrid="false"
     inkscape:zoom="1.475"
     inkscape:cx="199.66102"
     inkscape:cy="200"
     inkscape:window-width="1440"
     inkscape:window-height="810"
     inkscape:window-x="2320"
     inkscape:window-y="325"
     inkscape:window-maximized="0"
     inkscape:current-layer="svg58844"><inkscape:page
       x="0"
       y="0"
       id="page58850"
       width="400"
       height="400" /></sodipodi:namedview><g
     id="g58852"
     inkscape:groupmode="layer"
     inkscape:label="Head"><path
       d="m 264.12399,244.5408 c -0.17866,0.088 -19.64133,-15.92533 -22.92533,-18.51333 -8.632,-6.8 -13.34,-27.72533 -13.34,-27.72533 0,0 56.096,36.88533 71.23067,35.50933 0,0 -21.448,4.06667 -34.96534,10.72933"
       style="fill:#cd976d;fill-opacity:1;fill-rule:nonzero;stroke:none;stroke-width:1.33333"
       id="path61872" /><path
       d="m 270.91693,241.26174 c -16.83734,-3.112 -26.62934,-12.8 -29.71867,-15.23334 -8.632,-6.80133 -13.34,-27.72666 -13.34,-27.72666 0,0 56.096,36.88533 71.23067,35.50933 0,0 -6.644,-0.23333 -13.14,1.54667 -7.256,1.988 -14.47334,6.00666 -15.032,5.904"
       style="opacity:0.199997;fill:#000000;fill-opacity:1;fill-rule:nonzero;stroke:none;stroke-width:1.33333"
       id="path61882" /><path
       d="m 290.24106,233.48227 c 6.30267,0.808 12.89867,0.892 17.40933,0.48133 0,0 -25.12533,3.57334 -43.52666,10.57734 0,0 16.96266,-11.05867 26.63866,-11.41067"
       style="fill:#000000;fill-opacity:1;fill-rule:nonzero;stroke:none;stroke-width:1.33333"
       id="path61892" /><path
       d="m 311.20946,233.43867 c 5.00267,-0.45467 16.416,-3.50267 19.704,-7.84667 2.40667,-3.18 15.88933,-48.37866 15.71466,-65.46666 -0.17466,-17.08933 -3.85733,-22.592 -3.85733,-25.38267 0,-2.78933 6.452,-9.416 6.104,-12.032 -0.34933,-2.61466 -2.96533,-32.781329 -10.11467,-47.777329 -7.14933,-14.997332 -12.55466,-25.110666 -31.38666,-33.654665 -18.832,-8.544 -30.34133,-11.509333 -40.10667,-11.509333 -9.764,0 -36.26933,6.626666 -54.57866,23.541332 -18.30933,16.913333 -17.26267,34.699999 -17.088,50.219995 0.17333,15.51867 0.52267,32.78134 3.48667,39.93067 2.96399,7.14933 6.39733,16.78 10.09866,20.688 3.7,3.908 8.38533,6.68933 8.73333,8.25867 0.34934,1.56933 7.49467,25.96266 16.84934,36.45733 8.36133,9.38266 15.04266,14.36933 18.356,16.112 2.48533,1.308 19.45866,6.46266 36.63733,8.28666 5.72667,0.608 18.57067,0.436 21.448,0.17467"
       style="fill:#cd976d;fill-opacity:1;fill-rule:nonzero;stroke:none;stroke-width:1.33333"
       id="path61896" /><path
       d="m 344.81466,177.49067 c 0,0 -7.30934,10.964 -9.02934,17.41334 -1.72,6.44933 -2.25733,21.60533 -3.33199,24.18533 0,0 11.07199,-30.42 11.93199,-34.28933 0.85867,-3.86934 0.42934,-7.30934 0.42934,-7.30934"
       style="opacity:0.199997;fill:#000000;fill-opacity:1;fill-rule:nonzero;stroke:none;stroke-width:1.33333"
       id="path61906" /><path
       d="m 241.28973,153.56841 c 1.216,-9.40934 1.484,-25.18667 4.35866,-35.21467 3.12934,-10.91867 -2.944,-22.302666 -4.03733,-33.343999 -1.156,-11.662666 0.34,-19.446666 4.79467,-30.291999 2.12666,-5.177333 4.75733,-10.198666 8.20933,-14.624 1.78133,-2.284 6.69867,-8.519999 10.48133,-10.231999 -3.57466,1.617333 -9.21066,1.424 -13.12933,2.493333 -0.032,0.008 -0.0653,0.01733 -0.0973,0.02667 -0.0187,0.0053 -0.036,0.01067 -0.0533,0.016 -1.42666,0.394666 -2.84266,0.824 -4.25066,1.278666 -0.0347,0.01067 -0.068,0.02133 -0.10134,0.032 -0.152,0.05067 -0.30266,0.096 -0.45466,0.146667 -1.36,0.446666 -2.70934,0.925333 -4.04934,1.426666 -0.28533,0.106667 -0.57333,0.22 -0.86,0.329334 -1.22933,0.473333 -2.45066,0.966666 -3.66133,1.484 -0.224,0.096 -0.448,0.190666 -0.67333,0.288 -1.376,0.6 -2.74,1.224 -4.08934,1.88 -0.012,0.0067 -0.024,0.012 -0.036,0.01733 -0.044,0.02133 -0.088,0.04133 -0.132,0.064 -0.12,0.05867 -0.24266,0.121333 -0.368,0.182667 -0.824,0.408 -1.648,0.830666 -2.472,1.266666 -0.124,0.06533 -0.24666,0.130667 -0.37066,0.196 -0.816,0.436 -1.632,0.882667 -2.444,1.346667 -0.016,0.008 -0.0307,0.01733 -0.0467,0.02533 -0.844,0.482667 -1.684,0.981334 -2.52,1.494667 -0.11867,0.07333 -0.236,0.148 -0.35467,0.221333 -0.684,0.425334 -1.36533,0.861334 -2.04266,1.306667 -0.18534,0.122667 -0.372,0.244 -0.556,0.368 -0.74134,0.496 -1.47867,1.002666 -2.20667,1.524 -0.048,0.03333 -0.0947,0.06533 -0.14267,0.1 -0.768,0.552 -1.52666,1.121333 -2.27866,1.704 -0.19334,0.149333 -0.384,0.302666 -0.576,0.453333 -0.56667,0.448 -1.12934,0.904 -1.68534,1.368 -0.20933,0.174667 -0.41866,0.348 -0.62533,0.524 -0.72,0.616 -1.43333,1.24 -2.13067,1.885333 -18.30933,16.913333 -17.26266,34.699999 -17.08933,50.218668 0.17467,15.52 0.524,32.78267 3.488,39.932 2.408,5.80933 5.12667,13.256 8.04533,17.94 0.67467,1.08133 1.35867,2.01467 2.052,2.748 2.544,2.68667 5.55467,4.84133 7.3,6.43467 0.79334,0.724 1.32667,1.33333 1.43467,1.824 0.34933,1.56933 7.49467,25.96266 16.84933,36.45733 8.36134,9.38133 15.04267,14.368 18.356,16.112 3.31334,1.744 37.43734,10.324 48.94534,9.27733 0.55333,-0.0493 10.24933,-0.92667 10.80666,-0.99867 2.276,-0.29333 4.51467,-1.20133 6.77334,-1.38266 1.84266,-0.14667 3.14933,0.0307 4.90666,-0.892 1.556,-0.81867 3.036,-1.97734 4.20267,-3.296 0.80533,-0.91067 2.464,-2.528 2.65733,-3.71867 -3.396,0.516 -6.416,2.14667 -9.70666,2.97867 -3.45334,0.87333 -6.98934,1.40933 -10.544,1.60533 -6.30534,0.34933 -12.87467,0.0627 -18.91867,-1.908 -6.616,-2.156 -10.64133,-6.50933 -13.35467,-12.816 -1.21066,-2.81333 -2.21466,-5.72 -3.60533,-8.45467 -1.18667,-2.33333 -2.45867,-5.55999 -4.548,-7.21733 -3.824,-3.032 -8.02667,-5.42 -11.67333,-8.71733 -9.52267,-8.60667 -19.532,-22.29067 -17.776,-35.86933"
       style="opacity:0.199997;fill:#000000;fill-opacity:1;fill-rule:nonzero;stroke:none;stroke-width:1.33333"
       id="path61922" /><path
       d="m 269.31613,228.64347 c -6.12267,-2.19067 -14.568,-4.78267 -19.77067,-8.12667 -9.58667,-6.164 -13.47733,-8.364 -18.63067,-16.936 -5.072,-8.43866 -11.46933,-23.22933 -12.83466,-31.91199 0,0 3.53733,19.48266 9.69066,30.33866 4.95467,8.74267 11.95734,15.992 20.83867,20.79467 5.91467,3.19866 13.12533,3.90666 20.70667,5.84133"
       style="fill:#000000;fill-opacity:1;fill-rule:nonzero;stroke:none;stroke-width:1.33333"
       id="path61932" /><path
       d="m 248.60933,222.80187 c 15.51866,5.05733 28.44666,7.624 43.768,9.59067 4.93733,0.63333 16.41866,0.064 21.376,-0.38934 4.95733,-0.452 9.95333,-2.08933 13.60533,-5.47333 3.65067,-3.38267 14.352,-37.616 15.904,-48.78 0.80933,-5.81866 2.45733,-19.62133 1.44266,-25.316 -1.124,-6.30666 -2.708,-9.96266 -2.74933,-16.4 -0.003,-0.47333 -0.084,-1.00666 0.0693,-1.468 0.75334,-2.26 5.776,-10.79866 5.02267,-15.068 -0.75333,-4.26933 -5.02267,-43.445329 -17.83066,-59.266662 -12.808,-15.821332 -45.456,-29.131999 -62.784,-28.881332 -17.328,0.252 -69.27067,18.439999 -69.27067,62.639998 0,2.976 -0.072,5.96 -0.15733,8.929336 -0.572,19.952 2.66667,40.27333 10.81066,56.75333 0.6,1.212 3.30134,4.94667 3.576,6.25333 0.0547,0.25734 0.0787,0.564 -0.13333,0.74 -0.32267,0.268 -1.25733,0.172 -1.56667,-0.108 -3.03066,-2.75466 -6.44933,-8.38933 -7.96133,-12.45333 -3.51333,-9.44133 -6.22666,-19.47867 -7.304,-29.5 -1.11066,-10.34 -0.89866,-20.752 -0.89866,-31.133332 0,-43.321333 48.43466,-65.182665 71.41333,-65.182665 22.97866,0 51.90666,12.510666 66.22133,29.085332 14.31466,16.574666 18.43733,60.141335 18.43733,64.662665 0,4.52 -3.804,7.33333 -4.93467,12.984 -1.35733,6.79067 3.95734,11.78 3.72534,18.536 -0.48134,13.93867 -1.712,23.39467 -4.32667,32.68533 -7.93467,28.192 -11.20933,38.81733 -13.86933,41.76533 -3.04267,3.37334 -7.43733,5.29334 -11.90533,6.116 -4.46667,0.824 -13.704,2.01067 -18.24,1.75734 -17.576,-0.98667 -36.792,-4.18534 -51.44,-13.07867"
       style="fill:#000000;fill-opacity:1;fill-rule:nonzero;stroke:none;stroke-width:1.33333"
       id="path61936" /><path
       d="m 242.57066,145.46267 c 0,0 -4.8,13.57467 -1.66,21.148 5.04133,12.16134 15.38933,20.596 15.38933,20.596 0,0 -11.07866,-20.09066 -12.616,-25.508 -1.53733,-5.41733 -1.828,-8.848 -1.11333,-16.236"
       style="fill:#000000;fill-opacity:1;fill-rule:nonzero;stroke:none;stroke-width:1.33333"
       id="path61940" /></g><g
     inkscape:groupmode="layer"
     id="layer4"
     inkscape:label="Bolian Seam"><path
       style="color:#000000;fill:#000000;-inkscape-stroke:none"
       d="m 284.28906,231.99023 c 0,0 -8.77406,2.67815 -13.4375,5.12305 -4.65268,2.43926 -8.58398,6.16602 -8.58398,6.16602 l 0.54883,0.58007 c 0,0 3.88672,-3.66765 8.40625,-6.0371 4.50877,-2.36382 13.30078,-5.06641 13.30078,-5.06641 z"
       id="path73448" /><path
       style="color:#000000;fill:#000000;fill-opacity:0.2;-inkscape-stroke:none"
       d="m 281.89209,231.03144 c 0,0 -8.77406,2.67815 -13.4375,5.12305 -4.65268,2.43926 -8.02113,5.49081 -8.02113,5.49081 l 1.16926,0.94838 c 0,0 3.18283,-3.18098 7.70236,-5.55043 4.50877,-2.36382 13.30078,-5.06641 13.30078,-5.06641 z"
       id="path73454"
       sodipodi:nodetypes="csccscc" /><path
       style="fill:#cd976d;fill-opacity:1;stroke:none;stroke-width:1px;stroke-linecap:butt;stroke-linejoin:miter;stroke-opacity:1"
       d="m 308.85953,232.35526 7.80204,-4.83771 2.98065,3.60544 c 0,0 -3.54052,4.63972 -4.55747,4.47023 -1.01695,-0.16949 -6.22522,-3.23796 -6.22522,-3.23796 z"
       id="path1898"
       sodipodi:nodetypes="cccsc" /><path
       style="fill:#000000;fill-opacity:0.2;stroke:none;stroke-width:1px;stroke-linecap:butt;stroke-linejoin:miter;stroke-opacity:1"
       d="m 308.85953,232.35526 6.8359,-4.23865 c 0.47702,-0.0717 0.87845,-0.12729 1.32037,-0.17058 l 2.62642,3.17696 c 0,0 -3.54052,4.63972 -4.55747,4.47023 -1.01695,-0.16949 -6.22522,-3.23796 -6.22522,-3.23796 z"
       id="path75876"
       sodipodi:nodetypes="ccccsc" /><path
       style="color:#000000;fill:#000000;-inkscape-stroke:none"
       d="m 316.5293,200.91602 -0.80078,0.006 c 0,0 0.0589,9.19637 0.51367,13.0586 0.45004,3.82246 1.33945,7.64401 1.00195,12.54492 -0.33368,4.84538 -2.83922,8.71538 -2.83922,8.71538 l 1.04704,0.11053 c 0,0 2.24111,-3.69039 2.59101,-8.77122 0.34606,-5.02526 -0.56302,-8.93211 -1.00586,-12.69336 -0.43818,-3.72149 -0.50781,-12.9707 -0.50781,-12.9707 z"
       id="path1738"
       sodipodi:nodetypes="ccssccsscc" /><path
       style="color:#000000;fill:#000000;fill-opacity:0.2;-inkscape-stroke:none"
       d="m 313.52513,200.92202 c 0,0 0.0589,9.19637 0.51367,13.0586 0.45004,3.82246 1.33945,7.64401 1.00195,12.54492 -0.33368,4.84538 -2.7793,8.95508 -2.7793,8.95508 l 1.70622,-0.18905 c 0,0 2.18118,-3.75032 2.53108,-8.83115 0.34606,-5.02526 -0.62295,-8.93211 -1.06579,-12.69336 -0.43818,-3.72149 -0.50781,-12.85085 -0.50781,-12.85085 z"
       id="path1894"
       sodipodi:nodetypes="cssccsscc" /><path
       style="color:#000000;fill:#000000;-inkscape-stroke:none"
       d="m 320.12813,230.8361 c -2.19299,0.17735 -2.72623,1.96078 -3.52354,2.61983 -0.22527,0.19294 -0.73817,-0.005 -1.04382,0.002 -0.15274,-0.0227 -0.6213,0.24754 -0.72401,0.337 -1.714,-1.04228 -3.88556,-1.54196 -6.07416,-1.43316 l -0.24565,3.11961 c 1.78502,-0.0887 3.62048,0.62532 4.67836,1.51629 l 1.13086,0.95118 1.03711,-0.87696 1.11719,0.50391 0.84961,-1.05078 c 0.94619,-1.17154 2.5669,-2.8002 3.32612,-2.88794 z"
       id="path1896"
       sodipodi:nodetypes="ccccccccccccc" /></g></svg>
