<?xml version="1.0" encoding="UTF-8" standalone="no"?>
<!-- Created with Inkscape (http://www.inkscape.org/) -->

<svg
   version="1.1"
   id="svg258757"
   width="400"
   height="400"
   viewBox="0 0 400 400"
   sodipodi:docname="Head5.svg"
   inkscape:version="1.2.2 (b0a8486, 2022-12-01)"
   xmlns:inkscape="http://www.inkscape.org/namespaces/inkscape"
   xmlns:sodipodi="http://sodipodi.sourceforge.net/DTD/sodipodi-0.dtd"
   xmlns="http://www.w3.org/2000/svg"
   xmlns:svg="http://www.w3.org/2000/svg">
  <defs
     id="defs258761" />
  <sodipodi:namedview
     id="namedview258759"
     pagecolor="#ffffff"
     bordercolor="#666666"
     borderopacity="1.0"
     inkscape:showpageshadow="2"
     inkscape:pageopacity="0.0"
     inkscape:pagecheckerboard="0"
     inkscape:deskcolor="#d1d1d1"
     showgrid="false"
     inkscape:zoom="1.475"
     inkscape:cx="199.66102"
     inkscape:cy="200"
     inkscape:window-width="1440"
     inkscape:window-height="810"
     inkscape:window-x="2527"
     inkscape:window-y="45"
     inkscape:window-maximized="0"
     inkscape:current-layer="g258765">
    <inkscape:page
       x="0"
       y="0"
       id="page258763"
       width="400"
       height="400" />
  </sodipodi:namedview>
  <g
     id="g258765"
     inkscape:groupmode="layer"
     inkscape:label="Page 1">
    <path
       d="m 268.06373,221.828 c 6.31866,2.85734 22.00533,9.34667 25.17333,10.19867 3.48133,0.93733 7.43333,1.05733 10.748,0.97867 11.64667,-0.28 14.70533,-4.256 15.91867,-5.27867 1.34133,-1.13733 8.58666,-10.03467 9.488,-15.28533 0.46133,-2.68534 1.628,-4.72667 1.944,-6.09867 0.37466,-1.63333 0.948,-3.092 3.07999,-8.12266 4.27334,-10.08534 10.732,-25.328 10.98267,-32.852 0.184,-5.496 -0.52933,-11.57334 -1.16,-16.93467 -0.344,-2.94133 -0.66133,-5.66533 -0.80667,-8.03867 0.12,0.26667 0.20267,0.532 0.20267,0.79467 0.0173,-1.38267 -0.536,-3.04 0,-5.21067 0.496,-1.51333 0.728,-3.09466 1.27867,-4.61333 0.30133,-0.83333 0.84133,-1.77333 1.11066,-2.72933 0.13467,-0.244 0.268,-0.48934 0.4,-0.72534 1.12267,-2.02266 2.09067,-3.76933 2.09067,-5.87466 0,-1.95334 0.312,-15.52934 -2.55867,-29.300002 -2.476,-11.878667 -8.244,-26.117333 -15.61466,-34.651999 -13.904,-16.098667 -42.63067,-28.709333 -65.4,-28.709333 -23.86933,0 -70.328,22.623999 -70.328,64.095998 0,5.121334 0.47334,10.243996 0.65867,15.346666 0.23067,6.312 1.13333,12.572 2.01067,18.82 0.828,5.89733 1.05466,11.95333 2.50266,17.74267 0.52267,2.092 7.96533,18.804 10.52533,20.476 2.55867,1.67333 6.89334,2.30666 7.90534,6.12933 1.012,3.82267 11.92266,23.65467 14.31466,26.23467 8.772,9.45866 35.53334,23.60799 35.53334,23.60799"
       style="fill:#cd976d;fill-opacity:1;fill-rule:nonzero;stroke:none;stroke-width:1.33333"
       id="path260517" />
    <path
       d="m 257.05253,30.079609 c -3.80534,0.624 -7.904,1.670667 -12.116,3.12 -0.12267,0.04267 -0.244,0.08133 -0.36534,0.124 -0.69866,0.245333 -1.40266,0.505333 -2.10666,0.772 -0.20934,0.07867 -0.41867,0.157333 -0.628,0.237333 -0.664,0.257334 -1.32934,0.526667 -1.996,0.804 -0.24934,0.102667 -0.5,0.208 -0.75067,0.314667 -0.64533,0.274667 -1.292,0.558667 -1.93867,0.852 -0.268,0.121333 -0.536,0.246667 -0.80266,0.372 -0.64,0.297333 -1.28,0.6 -1.91867,0.916 -0.26667,0.132 -0.532,0.269333 -0.79733,0.404 -0.64534,0.325333 -1.28934,0.654667 -1.93067,0.998667 -0.23333,0.125333 -0.46533,0.258666 -0.69867,0.385333 -0.676,0.370667 -1.352,0.742667 -2.024,1.133333 -0.0333,0.02 -0.0667,0.04133 -0.10133,0.06133 -1.66133,0.968 -3.30533,1.998666 -4.92133,3.089333 -0.0333,0.02133 -0.0667,0.04267 -0.1,0.06533 -0.572,0.386667 -1.136,0.792 -1.70134,1.194667 -0.31066,0.222667 -0.62533,0.438667 -0.93333,0.665333 -0.512,0.374667 -1.01467,0.764 -1.51867,1.152 -0.35333,0.272 -0.708,0.541333 -1.05733,0.82 -0.47867,0.38 -0.94933,0.770667 -1.41867,1.162667 -0.364,0.304 -0.72666,0.608 -1.084,0.917333 -0.45333,0.392 -0.90133,0.792 -1.34533,1.194667 -0.36133,0.326666 -0.71867,0.658666 -1.07333,0.993333 -0.432,0.406667 -0.86,0.817333 -1.28267,1.234667 -0.352,0.349333 -0.69733,0.704 -1.04267,1.06 -0.41066,0.424 -0.82,0.848 -1.22,1.281333 -0.34,0.368 -0.66933,0.746667 -1,1.122667 -0.38933,0.44 -0.78,0.877333 -1.156,1.326666 -0.32533,0.389334 -0.63733,0.790667 -0.95333,1.186667 -0.364,0.456 -0.73467,0.905333 -1.08533,1.370666 -0.31067,0.410667 -0.60134,0.837334 -0.9,1.254667 -0.63334,0.884 -1.24267,1.784 -1.82934,2.701333 -0.28266,0.444 -0.57333,0.881334 -0.84533,1.332 -0.29467,0.489334 -0.56667,0.992 -0.84667,1.490667 -0.25866,0.458667 -0.52133,0.914667 -0.76666,1.382667 -0.268,0.508 -0.51734,1.028 -0.76934,1.545333 -0.23066,0.473333 -0.46266,0.948 -0.67999,1.429333 -0.23867,0.528 -0.464,1.064 -0.68534,1.601334 -0.20266,0.489333 -0.40133,0.981333 -0.59066,1.478666 -0.208,0.546667 -0.40534,1.097333 -0.596,1.653333 -0.17334,0.505334 -0.336,1.016 -0.49467,1.528 -0.17467,0.565334 -0.34533,1.133334 -0.50133,1.708 -0.14134,0.521334 -0.26934,1.050667 -0.39467,1.58 -0.14,0.581334 -0.28,1.162667 -0.4,1.753334 -0.10933,0.542666 -0.19733,1.093333 -0.292,1.642666 -0.1,0.596 -0.20933,1.189334 -0.29067,1.794667 -0.0773,0.569333 -0.12533,1.152 -0.184,1.730666 -0.06,0.601334 -0.136,1.196 -0.17733,1.806667 -0.08,1.198667 -0.128,2.413333 -0.128,3.645333 0,5.121334 0.47333,10.245333 0.66,15.346663 0.25467,7.012 1.72533,13.99733 2.32533,20.976 0.45067,5.22267 0.912,10.48933 2.18667,15.58667 0.52266,2.09333 7.96533,18.804 10.52533,20.476 2.55867,1.67333 6.89467,2.30666 7.90533,6.12933 1.012,3.82267 11.92267,23.65467 14.316,26.23467 8.77067,9.45999 35.532,23.60799 35.532,23.60799 6.31867,2.85734 22.00534,9.34667 25.17334,10.19867 3.48133,0.93733 7.43333,1.05867 10.748,0.97867 2.8,-0.068 5.09333,-0.352 6.99466,-0.75334 -34.60933,-7.716 -47.99466,-39.97999 -50.512,-45.71999 -8.71866,-19.87867 -15.49733,-26.92267 -17.028,-32.74534 -2.86266,-10.88533 -3.46266,-13.78133 -2.09466,-23.252 0.908,-6.29466 3.77733,-7.24266 4.304,-12.18133 1.20133,-11.29333 -2.944,-22.302663 -4.03734,-33.343996 -1.15733,-11.662666 0.34,-19.446666 4.79467,-30.290666 2.12667,-5.178666 4.75733,-10.199999 8.20933,-14.625333 2.088,-2.674666 8.488,-10.802666 12.312,-10.683999 -0.66666,-0.02133 -1.32933,-0.03467 -1.98533,-0.03467 -0.532,0 -1.08667,0.02533 -1.64,0.048 -2.06,0.102667 -4.15067,0.373333 -6.24933,0.657333"
       style="opacity:0.199997;fill:#000000;fill-opacity:1;fill-rule:nonzero;stroke:none;stroke-width:1.33333"
       id="path260527" />
    <path
       d="m 344.66599,135.02067 c 1.13067,-5.65066 4.824,-9.57066 4.93467,-15.424 0.42133,-22.471996 -4.124,-45.647995 -18.43867,-62.222661 -14.31466,-16.574667 -43.24133,-29.085333 -66.22,-29.085333 -22.97866,0 -71.41466,21.861333 -71.41466,65.181332 0,14.761332 1.812,31.064002 2.81333,38.526662 1.41334,15.38267 6.84933,26.53334 9.90133,30.68934 0.64,0.872 1.548,1.896 2.372,2.876 0.436,0.51733 0.94267,1.096 2.34,1.27733 0.392,0.0507 1.08,-0.69733 -0.0893,-2.288 -9.65333,-13.11867 -11.72666,-37.78933 -12.24266,-42.484 -0.096,-5.56667 -1.45867,-20.96267 -1.45867,-28.077332 0,-44.199999 51.94133,-62.387999 69.27066,-62.639999 17.328,-0.250666 48.52534,14.352 62.78267,28.881333 12.772,13.013333 16.892,31.831999 17.83066,56.077328 0.21734,5.60934 -4.26933,15.99734 -5.02266,18.25734 -0.75334,2.26 1.45866,10.06266 1.752,26.33333 0.188,10.47067 -5.90934,21.924 -7.75467,26.40533 -2.856,6.93467 -4.244,11.85067 -6.51066,18.95867 -2.19467,6.88266 -5.02934,13.776 -9.96534,19.28666 -1.75466,1.95867 -3.79733,3.74134 -6.23733,4.76267 -2.36933,0.992 -4.98533,1.21467 -7.54267,1.20933 -13.36133,-0.0307 -26.248,-6.06933 -37.09333,-11.32533 -7.07067,-3.428 -13.89733,-7.31733 -20.42133,-11.64 -6.432,-4.26 -12.556,-8.80533 -16.736,-15.49466 -3.58,-5.728 -6.19067,-11.56934 -9.97067,-17.17467 1.55333,2.30267 1.98267,5.99067 2.97867,8.64933 1.29733,3.46534 2.564,7.58134 4.46533,10.728 2.92667,4.84267 6.22667,8.324 10.46667,11.804 6.9,5.66 14.984,9.36533 22.812,13.62133 3.332,1.81334 6.70933,3.55067 10.14266,5.18134 9.31467,4.42266 20.47734,8.65733 31.65467,9.228 3.872,0.19733 7.88533,-0.0227 11.444,-1.61067 3.576,-1.59467 6.43333,-4.46 8.74267,-7.58133 6.62666,-8.956 8.176,-17.65067 11.72666,-27.94133 3.69067,-10.69734 9.98133,-20.98934 10.50533,-32.56134 1.00134,-22.072 -2.948,-24.73333 -1.81733,-30.384"
       style="fill:#000000;fill-opacity:1;fill-rule:nonzero;stroke:none;stroke-width:1.33333"
       id="path260537" />
  </g>
</svg>
