<?xml version="1.0" encoding="UTF-8" standalone="no"?>
<!-- Created with Inkscape (http://www.inkscape.org/) -->

<svg
   width="400"
   height="400"
   viewBox="0 0 400 400"
   version="1.1"
   id="svg1"
   xml:space="preserve"
   inkscape:version="1.3-alpha (95f74fb, 2023-03-31)"
   sodipodi:docname="Saurian.svg"
   xmlns:inkscape="http://www.inkscape.org/namespaces/inkscape"
   xmlns:sodipodi="http://sodipodi.sourceforge.net/DTD/sodipodi-0.dtd"
   xmlns:xlink="http://www.w3.org/1999/xlink"
   xmlns="http://www.w3.org/2000/svg"
   xmlns:svg="http://www.w3.org/2000/svg"><sodipodi:namedview
     id="namedview1"
     pagecolor="#ffffff"
     bordercolor="#666666"
     borderopacity="1.0"
     inkscape:showpageshadow="2"
     inkscape:pageopacity="0.0"
     inkscape:pagecheckerboard="0"
     inkscape:deskcolor="#d1d1d1"
     inkscape:document-units="px"
     inkscape:zoom="2.0475"
     inkscape:cx="199.7558"
     inkscape:cy="200"
     inkscape:window-width="1858"
     inkscape:window-height="1032"
     inkscape:window-x="2515"
     inkscape:window-y="174"
     inkscape:window-maximized="0"
     inkscape:current-layer="layer2" /><defs
     id="defs1"><inkscape:path-effect
       effect="fillet_chamfer"
       id="path-effect41"
       is_visible="true"
       lpeversion="1"
       nodesatellites_param="F,0,0,1,0,0,0,1 @ F,0,0,1,0,3.4980591,0,1 @ F,0,0,1,0,1.9161058,0,1 @ F,0,0,1,0,2.4076038,0,1 @ F,0,0,1,0,3.0292801,0,1"
       radius="0"
       unit="px"
       method="auto"
       mode="F"
       chamfer_steps="1"
       flexible="false"
       use_knot_distance="true"
       apply_no_radius="true"
       apply_with_radius="true"
       only_selected="false"
       hide_knots="false" /><inkscape:path-effect
       effect="fillet_chamfer"
       id="path-effect39"
       is_visible="true"
       lpeversion="1"
       nodesatellites_param="F,0,0,1,0,0,0,1 @ F,0,0,1,0,3.4980591,0,1 @ F,0,0,1,0,1.9161058,0,1 @ F,0,0,1,0,2.4076038,0,1 @ F,0,0,1,0,3.0292801,0,1"
       radius="0"
       unit="px"
       method="auto"
       mode="F"
       chamfer_steps="1"
       flexible="false"
       use_knot_distance="true"
       apply_no_radius="true"
       apply_with_radius="true"
       only_selected="false"
       hide_knots="false" /></defs><g
     inkscape:groupmode="layer"
     id="layer2"
     inkscape:label="Head"><path
       d="m 279.26346,228.9712 c 6.236,3.04134 9.7765,7.614 13.02983,7.91 2.73067,0.248 8.34144,0.12914 11.6201,0.12914 11.52267,0 18.3081,-0.60397 19.87974,-3.1966 1.0878,-2.9475 5.01045,-13.03309 5.92778,-18.31975 0.89668,-2.45847 1.72937,-5.22049 2.0467,-6.59915 0.38,-1.64267 7.10925,-4.05634 9.24125,-9.087 1.04005,-2.45489 -0.51178,-6.60083 0.84397,-9.49911 4.21477,-9.01018 9.39929,-18.90203 9.58894,-24.59484 0.0584,-1.74314 0.0898,-4.04118 0.2029,-6.46017 1.74345,-0.84818 3.85511,-2.80944 3.9768,-4.09275 0.14863,-1.56756 -1.62812,-4.78394 -3.06289,-4.23353 1.59157,-1.3891 1.91701,-2.94884 2.25726,-4.43751 -0.47558,-2.11908 -1.65608,-3.22729 -1.88113,-5.08255 -0.28873,-2.38021 0.33583,-4.91161 0.2609,-6.67167 -0.0902,-1.88004 -3.19887,1.33846 -3.27197,0.32775 0.006,-1.20942 -0.067,-1.81395 -0.18788,-3.75864 -0.065,-1.19963 -0.13547,-1.65256 0.13387,-2.60723 -0.23164,-0.61163 -0.097,-1.28432 -0.2105,-1.82557 0.0238,-2.50973 0.50336,-3.70695 0.50336,-5.81228 0,-1.4181 -0.83634,-10.63064 0.11316,-20.59887 0.35837,-3.762267 1.31144,-7.57983 2.16385,-11.202917 -0.35209,-1.689158 -4.22889,-0.824329 -6.22427,-1.712923 -1.78216,-0.793643 -3.40239,-2.006877 -3.86299,-3.688249 -2.65028,-9.674622 -6.625,-19.536498 -12.01143,-25.773572 -13.904,-16.098667 -32.61547,-37.169107 -55.38347,-37.169107 -23.87067,0 -67.7392,30.565746 -75.16425,72.039079 -0.90253,5.041179 -1.34919,7.617949 -2.78035,13.575309 -4.47009,5.38235 -6.04746,14.53331 -5.57821,17.47234 0.37025,9.3377 1.21491,13.97298 7.92755,21.04165 0.52267,2.09333 7.18914,17.21343 8.62798,19.84806 1.62893,2.9827 2.98664,7.91247 3.99864,11.73513 1.012,3.82267 17.99738,35.87541 20.61338,38.22874 1.40314,1.26297 14.95096,2.81737 24.18592,5.35693 11.54628,3.17515 22.47581,8.75986 22.47581,8.75986"
       style="opacity:1;fill:#cd976d;fill-opacity:1;fill-rule:nonzero;stroke:none;stroke-width:1.33333"
       id="path167025"
       sodipodi:nodetypes="ccsccccscccccscccccsscsscsscccsscsc" /><path
       id="path167035"
       style="opacity:0.199997;fill:#000000;fill-opacity:1;fill-rule:nonzero;stroke:none;stroke-width:1.33333"
       d="m 262.35547,22.523438 c -23.55797,6.423475 -54.09258,33.143651 -61.86719,67.080078 -0.1488,1.113057 -0.2776,2.238546 -0.38086,3.378906 -0.19781,2.184589 -0.93729,4.401513 -1.6875,6.621094 -0.5856,2.862344 -1.05425,3.228444 -0.94922,6.099604 -4.2677,6.86006 -6.70721,13.57925 -5.98437,23.95899 0.23933,1.638 0.74828,6.17475 3.2539,10.29883 2.39875,3.94814 4.87667,4.57376 6.00196,7.58594 0.52267,2.09332 5.4635,13.7599 6.90234,16.39453 1.62893,2.98268 3.33175,8.86093 4.34375,12.68359 1.012,3.82267 17.9973,35.87519 20.61328,38.22852 1.40314,1.26295 14.95061,2.81786 24.18555,5.35742 9.03881,2.48561 17.17514,5.84609 19.77539,7.18945 2.60025,1.34335 16.25,9.33594 16.25,9.33594 0,0 -18.04015,-17.66661 -27.55595,-32.37636 -12.42216,-0.77357 -10.53625,-15.16818 -4.91298,-16.93845 -5.05632,-13.26893 -10.23971,-17.98456 -14.10724,-21.23793 -3.86755,-3.25335 -6.92519,-8.04893 -9.92188,-11.83789 -3.70258,-4.68148 -5.43757,-9.30025 -8.06836,-13.38086 -0.56492,-0.87625 -2.32088,-4.13413 -4.89257,-5.91601 -1.00847,-0.69875 -4.42175,-0.70354 -6.18946,0.99805 -2.03602,1.95985 -3.89116,1.94104 -3.19531,-0.33985 0.6721,-2.20302 1.60226,-2.76321 3.28711,-4.06836 1.6793,-1.30085 3.38246,-2.01973 6.03516,-2.08398 1.25088,-0.0303 4.91158,2.31252 4.7871,2.09179 -1.04388,-1.8512 -2.00379,-2.90917 -1.66193,-4.3631 0.34186,-1.45392 2.50029,-2.3209 5.57404,-1.64276 4.67825,1.03215 3.97461,5.10352 3.97461,5.10352 l 2.86328,-1.68359 1.5879,-9.70703 c 0,0 1.65209,-2.45951 3.90625,-4.33594 2.25415,-1.87643 5.43359,-3.47852 5.43359,-3.47852 l 6.6543,-1.95508 5.67773,-2.31836 13.73633,2.38086 c 0,0 -10.76797,-9.757306 -17.46094,-13.126949 -2.2663,-1.140993 -5.03491,-2.096669 -7.46435,-2.024828 -4.21055,0.124511 -7.95056,2.345371 -9.68995,3.489672 -2.74299,1.804544 -3.7991,2.957445 -5.61718,4.640625 -1.81808,1.68318 -2.48969,2.64172 -3.72461,4.39648 -1.23492,1.75477 -1.97739,2.99221 -2.86914,4.88282 -0.89175,1.8906 -2.15964,4.06978 -2.86826,5.98425 -0.68267,1.84439 -1.28718,5.15082 -1.36026,5.3634 -0.50965,-2.7924 -0.30093,-5.40546 0.48828,-8.31836 3.27703,-11.53749 10.73036,-21.203062 16.47461,-27.238278 -1.15733,-11.662642 -0.44869,-20.813731 2.10938,-29.435546 2.55805,-8.621818 6.04948,-16.571043 8.20898,-20.365235 1.77693,-3.122033 8.99738,-14.110511 10.30469,-15.371093 z"
       sodipodi:nodetypes="ccscccscsscsscccssssssssczscccsccccssssssscccssc" /><path
       id="path167045"
       style="opacity:1;fill:#000000;fill-opacity:1;fill-rule:nonzero;stroke:none;stroke-width:1.33333"
       d="M 270.8125 19.136719 C 247.8339 19.136719 208.03219 46.524163 199.39844 87.253906 C 198.50089 91.488096 197.75928 95.696518 197.18555 99.71875 C 196.42163 105.07426 192.66153 108.55462 190.92969 113.30664 C 189.5263 117.15743 189.29761 122.74636 189.53711 127.27148 C 190.06372 133.00874 191.53988 135.93616 193.18164 139.6875 C 194.36363 142.3883 198.74222 144.98282 199.16602 146.86328 C 200.48058 152.69628 201.46015 155.2897 202.56445 157.97852 C 204.65245 163.06116 207.75836 165.94209 208.04102 166.24609 C 208.57169 166.81809 209.6539 167.16775 209.97656 167.20508 C 210.35923 167.24908 211.05133 166.4993 209.88867 164.91797 C 205.77801 159.33163 203.39093 153.74182 201.76758 146.32422 C 201.59406 145.53138 200.98398 144.79032 200.23633 144.04102 C 200.58651 142.97511 201.64682 139.60865 201.93945 136.93945 C 202.11676 135.32224 202.04849 132.64505 201.94531 130.33008 C 201.84199 128.01511 201.69727 126.08398 201.69727 126.08398 L 200.5 126.17383 C 200.5 126.17383 200.64368 128.09016 200.74609 130.38477 C 200.84851 132.67936 200.90332 135.37451 200.74609 136.80859 C 200.51921 138.87809 199.71678 141.66369 199.26367 143.12695 C 197.5441 141.57686 195.47023 139.84644 194.55078 137.24805 C 192.38071 131.11532 192.27718 128.01002 192.06055 126.03906 C 192.03365 124.47722 191.93373 118.7683 193.50391 114.77734 C 195.57156 109.52189 200.21024 104.98514 200.94141 100.00977 C 201.63399 95.296978 202.38327 90.853833 203.03516 87.773438 C 212.30754 43.957968 254.97539 22.449263 272.30469 22.197266 C 274.1619 22.170396 276.14403 22.453311 278.18945 22.912109 C 279.72631 23.81759 281.38585 24.877933 282.8125 25.988281 C 286.85126 29.131595 292.35915 33.661638 295.81445 39.457031 C 297.49268 42.271803 299.3965 46.605286 300.65625 51.210938 C 301.91601 55.816586 303.29687 60.560547 303.29688 60.560547 C 303.29688 60.560547 303.20408 56.501775 301.93164 51.849609 C 300.65916 47.197447 298.97148 41.820548 297.10352 38.6875 C 293.46642 32.587255 287.79837 27.969161 283.73242 24.804688 C 283.52746 24.645169 283.31405 24.494067 283.09961 24.34375 C 299.34816 30.290795 318.85343 47.427837 329.2168 60.230469 C 333.7659 65.849847 337.23758 74.417006 339.85742 83.318359 L 343.51562 84.769531 C 340.67906 74.148897 336.6763 63.757827 331.16211 57.373047 C 316.84747 40.798433 293.79111 19.136719 270.8125 19.136719 z M 352.94336 158.77539 L 350.12891 160.24609 C 350.12891 160.24609 350.17188 161.85294 350.17188 163.38281 C 350.17188 166.49381 345.5919 178.31173 340.36914 189.76172 L 337.80859 189.44141 C 337.80859 189.44141 338.27329 189.86039 339.53125 190.94922 C 340.78921 192.03805 341.11779 194.19345 341.11914 196.09375 C 341.12014 197.99405 340.91056 199.07951 339.64062 200.86328 C 339.21613 201.45956 337.49295 202.83049 335.9668 203.8418 C 333.94672 205.18041 333.5227 205.60107 332.38086 206.31641 C 332.08952 207.295 329.71082 215.81976 327.84961 220.61133 C 325.39815 226.92248 322.03097 231.97022 320.74805 233.41602 C 319.99472 234.67199 299.31397 236.30132 294.07227 235.31641 C 288.83054 234.3315 278.75807 224.94143 264.80078 220.62305 C 250.17225 216.09696 238.88116 216.74483 233.01953 212.52539 C 227.15792 208.30595 212.46484 178.26172 212.46484 178.26172 C 212.51954 178.51639 224.41653 211.1642 231.95117 216.4375 C 235.73293 219.08541 250.42554 220.30349 263.50586 224.28516 C 276.48174 228.23501 287.22494 238.13224 293.41602 238.69531 C 305.84662 239.82464 320.64039 238.85141 322.90039 236.96875 C 324.21541 235.87251 328.89332 229.32937 331.36914 222.47266 C 333.14827 217.5454 334.97451 210.69561 335.44727 208.64844 C 335.52447 208.31421 335.69225 207.9151 335.78906 207.58984 C 336.20797 207.19037 336.97305 206.62064 337.4082 206.29297 C 338.94699 205.13425 340.83345 203.97594 341.80078 202.61719 C 343.31457 200.49091 343.92596 198.2087 343.92383 196.03125 C 343.92183 194.72905 343.27641 193.0192 342.80859 191.75195 C 347.50713 181.56838 352.65754 169.80879 352.87305 163.33203 C 352.93625 161.44008 352.89776 158.79921 352.94336 158.77539 z " /><path
       style="fill:#000000;fill-opacity:1;stroke:none;stroke-width:1px;stroke-linecap:butt;stroke-linejoin:miter;stroke-opacity:1"
       d="m 242.93877,203.17131 c 0,0 7.05047,-6.53756 9.34035,-7.70248 2.28988,-1.16492 5.28618,-1.24585 8.80646,-1.55408 3.52028,-0.30823 7.50015,-0.25894 11.22392,0.34535 3.72377,0.60429 6.96566,1.91677 10.87856,2.93549 3.9129,1.01872 10.28142,2.22812 13.64138,2.59014 3.35996,0.36202 4.28339,0.49443 6.389,0.17267 2.10561,-0.32176 3.18342,-1.54936 6.04365,-2.07211 2.86023,-0.52275 8.08184,-0.82722 11.05124,-0.34535 2.9694,0.48187 4.75945,2.26105 6.56167,2.41746 1.80222,0.15641 2.19829,-0.23467 3.79887,-0.6907 1.60058,-0.45603 4.02122,-1.80902 5.69829,-2.24478 1.67707,-0.43576 3.64715,0.0502 3.64715,0.0502 l 0.14304,0.5249 c 0,0 -4.49437,0.5961 -8.27975,2.87841 -3.78538,2.28231 -6.00424,1.80468 -7.77041,1.89943 -1.76617,0.0948 -1.35331,-0.51189 -2.59013,-0.34535 -1.23682,0.16654 -2.11798,1.3963 -4.48957,1.89943 -2.37159,0.50313 -7.22769,0.65127 -9.66984,0.17268 -2.44215,-0.47859 -2.90984,-1.65051 -4.83491,-2.07211 -1.92507,-0.4216 -3.41181,0.98033 -6.389,0.6907 -2.97719,-0.28963 -7.76863,-1.14745 -11.3966,-1.89943 -3.62797,-0.75198 -6.95519,-1.98318 -10.53321,-2.59013 -3.57802,-0.60695 -7.32704,-1.84903 -10.87857,-1.89944 -3.55153,-0.0504 -7.72259,-0.0795 -10.36053,0.69071 -2.63794,0.77023 -10.03106,6.14839 -10.03106,6.14839 z"
       id="path2"
       sodipodi:nodetypes="czzzzzzzzzzzcczzzzzzzzzzzc" /><path
       style="color:#000000;fill:#000000;-inkscape-stroke:none"
       d="m 322.46816,107.39103 c 0,0 7.77939,0.3464 8.33848,2.76913 0.7132,3.09051 -0.4764,4.68389 -1.19531,7.04101 -0.2741,0.89869 -0.99233,3.25708 -1.73201,5.68634 -1.01676,3.33924 -2.07405,6.81242 -2.07405,6.81242 0,0 1.2823,-3.37862 2.82036,-6.53848 1.14664,-2.35572 2.00512,-4.36112 2.41929,-5.52278 0.80162,-2.24835 1.68526,-5.10193 1.22461,-7.81054 -0.66692,-3.92148 -9.80137,-2.4371 -9.80137,-2.4371 z"
       id="path3"
       sodipodi:nodetypes="cssscsssc" /><path
       id="path5"
       style="color:#000000;fill:#000000;-inkscape-stroke:none"
       d="m 339.24877,82.609095 c -0.94412,0.610112 -2.11619,2.062595 -2.96585,3.50759 -1.64167,2.791911 -2.46765,5.265213 -3.80831,8.752457 -1.37743,3.582874 -3.93936,12.559448 -3.93936,12.559448 l 1.86637,0.74932 c 0,0 2.57098,-9.207076 3.87021,-12.586556 1.336,-3.47511 2.27061,-5.502042 3.85352,-8.194025 0.7626,-1.296951 1.3624,-1.78528 2.0285,-2.215731 0.6661,-0.430452 1.51225,-0.543528 1.99382,-0.197488 0.80726,0.580074 1.01122,1.141847 1.95859,1.967122 1.22037,1.063094 2.20558,1.510606 3.7746,1.865175 0.87132,0.196903 1.376,0.201498 1.98698,0.183894 0.61097,-0.0176 1.01768,0.04466 1.23057,0.181741 0.24397,0.157097 0.48877,0.479177 0.49289,0.897284 0.004,0.418109 -0.23159,0.996364 -0.66632,1.835539 -0.80141,1.546936 -3.05469,3.470111 -5.47967,6.678886 -2.40196,3.178309 -5.22107,7.595319 -7.875,12.386719 -2.61754,4.72572 -7.35156,13.80469 -7.35156,13.80469 0,0 0.29782,-0.44846 0.45508,-0.68555 -0.97263,1.88377 -1.64063,3.68164 -1.64063,3.68164 0,0 2.56364,-2.71194 4.15625,-5.01367 1.6274,-2.352 4.0114,-6.06603 6.15039,-8.37891 2.16782,-2.34404 4.93098,-4.5935 6.77735,-5.8457 1.80553,-1.2245 3.66992,-2.03711 3.66992,-2.03711 l -0.33203,2.3457 0.47265,0.19922 0.76563,-3.06836 c 0,0 -0.39341,-3.78514 -0.30274,-5.21875 0.0986,-1.558936 0.48459,-2.76152 0.98633,-4.462888 0.2498,-0.847039 0.79481,-2.423104 1.28125,-3.800781 0.17819,-0.259644 0.33607,-0.513003 0.46289,-0.757812 0.5037,-0.972299 0.77737,-1.832005 0.76953,-2.628907 -0.008,-0.796901 -0.38266,-1.554326 -1.02929,-1.970703 -0.67771,-0.436386 -1.40981,-0.4173 -2.06445,-0.398437 -0.65465,0.01886 -1.28333,0.05414 -1.89454,-0.08398 -1.39605,-0.315483 -2.30501,-0.752285 -3.25781,-1.705078 -0.96669,-0.966704 -1.6011,-2.147799 -2.92969,-2.888672 -0.82339,-0.459141 -1.93382,-0.447493 -3.46607,0.542683 z m 5.31764,7.867467 c 0,0 -4.09787,4.576536 -5.91407,7.507813 -1.81987,2.937235 -4.70898,9.830075 -4.70898,9.830075 0,0 3.54446,-6.61999 5.30469,-9.460934 1.76391,-2.846893 5.31836,-7.876953 5.31836,-7.876954 z m 4.26756,10.404298 c -0.10092,1.59556 0.17243,3.89235 0.23438,4.44531 -0.44251,0.17698 -2.02693,0.77689 -3.79297,1.97461 -1.95899,1.32858 -4.76437,3.61283 -7.03711,6.07031 -1.29542,1.40074 -2.60243,3.18713 -3.79492,4.9043 1.42471,-2.25197 2.95741,-4.24343 4.00606,-6.13667 2.62495,-4.73908 5.72467,-9.02767 8.06365,-12.12265 0.97272,-1.287119 3.08939,-3.405313 3.08939,-3.405313 0,0 -0.66364,2.612723 -0.76848,4.270103 z"
       sodipodi:nodetypes="sssccsssssssscssscccsssccccsscscssssssccscccsscssccc" /><path
       style="color:#000000;fill:#000000;-inkscape-stroke:none"
       d="m 327.83398,132.02539 c -0.30307,2.51422 -0.5806,5.10463 -0.26171,9.09766 0.32089,4.01821 1.6269,11.29408 2.2539,14.40429 0.31799,1.57733 0.67313,2.66928 0.95508,3.37696 0.28195,0.70767 0.51562,1.0664 0.51562,1.0664 l 0.0723,0.10742 0.10938,0.0703 c 0,0 0.43673,0.27087 0.94726,0.63672 0.51053,0.36584 1.10073,0.85071 1.31836,1.125 0.56698,0.71458 1.19046,1.51606 1.42953,2.53861 0.188,1.19784 0.13663,4.23522 0.13663,4.23522 0,0 0.9464,-3.61827 0.6955,-4.69177 -0.26619,-1.13854 -0.66009,-1.9916 -1.32227,-2.82617 -0.39695,-0.5003 -1.01599,-0.96525 -1.56054,-1.35547 -0.46659,-0.33436 -0.75779,-0.51609 -0.86524,-0.58399 -0.0247,-0.0378 -0.1322,-0.19053 -0.36133,-0.76562 -0.25301,-0.63505 -0.58758,-1.659 -0.89257,-3.17188 -0.61894,-3.07017 -1.92705,-10.38892 -2.23633,-14.26172 -0.3113,-3.89798 -0.044,-6.35535 0.25781,-8.85937 0.29181,-2.42073 0.69923,-6.11524 0.69923,-6.11524 0,0 -1.57749,3.37515 -1.89061,5.97265 z"
       id="path6"
       sodipodi:nodetypes="sssscccsssccsscsssscs" /><path
       id="path7"
       style="color:#000000;fill:#000000;-inkscape-stroke:none"
       d="m 246.1442,83.541846 c -3.7023,1.403149 -7.63822,4.684477 -11.60909,9.917137 -3.69712,4.871924 -7.02964,11.868247 -8.748,16.794977 -1.75496,5.03162 -1.24414,12.33398 -1.24414,12.33398 0,0 1.04262,-7.20216 2.66015,-11.83984 1.65416,-4.74263 5.07634,-11.506014 8.89258,-15.8711 3.87082,-4.427484 8.17087,-7.980991 13.51758,-9.162109 5.41484,-1.196164 10.27134,0.179581 14.36364,2.673125 3.56818,2.883147 7.2194,5.61779 10.30433,9.051484 2.14759,2.478333 5.7091,6.13715 8.88376,9.84041 3.46228,4.03877 5.92184,7.79823 7.54082,10.10651 2.47138,3.52359 3.70571,5.57457 4.99395,8.89222 1.24216,3.19893 2.33761,6.57417 2.82561,10.21555 0.6673,4.97928 0.77148,11.1543 0.77149,11.1543 0,0 1.11427,-6.78502 0.3457,-11.49219 -0.60748,-3.72058 -1.41978,-8.08558 -2.72946,-11.45848 -1.26362,-3.25421 -2.05929,-5.13754 -4.42232,-8.8331 -1.77044,-2.76881 -4.39555,-6.77995 -7.52163,-10.74192 -3.02961,-3.8397 -5.40449,-6.401527 -8.08474,-9.589262 -2.96565,-3.527172 -6.37913,-7.096041 -10.72486,-9.924873 -2.93351,-1.787461 -6.6386,-3.298036 -10.11065,-3.369482 -3.47204,-0.07144 -6.20243,-0.100485 -9.90472,1.302663 z m 0.54716,9.880916 c -2.2244,1.235777 -7.56874,6.029664 -7.56874,6.029664 0,0 5.60306,-4.002125 7.77426,-5.208345 2.19724,-1.22069 5.05473,-1.907471 6.92143,-1.78119 1.90764,0.12905 4.1817,1.344261 6.7832,2.875 2.55698,1.50453 4.88216,3.47788 8.00586,6.070309 3.0941,2.56787 6.74121,5.95878 9.60742,9.11719 2.83128,3.11988 5.7361,7.67311 7.96485,9.67383 0.47605,0.42734 0.87004,0.72674 1.2207,0.9668 -0.45675,-0.15186 -0.87131,-0.30093 -1.43164,-0.75391 -1.39281,-1.12596 -2.66545,-2.97954 -4.80859,-5.42383 -2.08684,-2.38005 -5.31695,-6.6943 -7.85547,-9.07617 -2.44912,-2.29798 -4.18592,-4.08759 -6.78125,-5.12695 -1.24668,-0.49926 -2.36632,-0.870748 -3.60156,-1.042972 -1.23525,-0.172225 -2.58582,-0.145165 -4.29493,0.154296 -3.50168,0.613556 -8.25915,2.962736 -11.63476,5.746096 -3.43847,2.83516 -5.58861,7.36634 -7.90625,10.35156 -1.21663,1.56706 -2.31931,3.30904 -3.36719,4.79688 -1.04788,1.48781 -2.06095,2.71006 -2.9375,3.23632 -1.94207,1.16599 -2.5243,1.04525 -3.9043,0.85938 -1.38,-0.18588 -2.77756,-0.88952 -4.30468,-1.62695 0,0 2.06116,1.80673 3.17968,2.26562 0.89618,0.36767 2.15064,0.87347 3.98432,0.26541 0.0872,0.0833 0.41349,0.41746 0.60351,0.5625 0.41927,0.3199 1.17824,1.08982 2.2793,2.78516 1.01522,1.56318 2.04631,4.88887 3.30664,8.43359 1.26033,3.54472 2.93249,7.58977 5.19559,10.31061 4.41286,5.30542 10.82128,9.47419 15.02127,11.00145 4.17985,1.51995 7.62352,0.98156 11.68119,2.29564 1.91783,0.62108 4.83604,1.88974 7.36039,3.61293 2.52435,1.7232 3.89006,3.21709 3.89006,3.21709 0,0 -1.34066,-2.08143 -3.64649,-3.85157 -2.30581,-1.77013 -5.10838,-3.72114 -7.38671,-4.45898 -4.33465,-1.40377 -7.57637,-0.90206 -11.45508,-2.3125 -3.8586,-1.40313 -10.13874,-5.57875 -14.375,-10.67188 -2.06147,-2.47842 -3.56744,-6.16264 -4.81446,-9.66992 -1.247,-3.50727 -2.20501,-6.80134 -3.4414,-8.70508 -1.15055,-1.77153 -1.97885,-2.6496 -2.58399,-3.11132 -0.0489,-0.0373 -0.0886,-0.0558 -0.13476,-0.0879 0.055,-0.0312 0.10668,-0.0507 0.16211,-0.084 1.19911,-0.71992 2.22793,-2.05093 3.30078,-3.57422 1.07285,-1.52329 2.16856,-3.2503 3.33594,-4.7539 2.45033,-3.15616 4.58494,-7.57459 7.7207,-10.16016 3.1986,-2.63738 7.91907,-4.93476 11.07812,-5.48828 3.24256,-0.56815 4.81839,-0.15115 7.24414,0.82031 1.52843,0.61209 2.76226,1.56094 4.1211,2.77734 -1.8857,-0.42754 -4.59968,-0.99829 -6.31641,-1.11914 -1.33284,-0.0938 -2.64825,-0.18818 -3.93554,-0.16406 -1.28732,0.0241 -2.54701,0.16633 -3.76368,0.54492 -2.39616,0.74562 -4.63821,1.9958 -6.70312,3.59766 -2.08269,1.61565 -3.74469,3.71543 -5.55664,6.04492 -1.83038,2.35317 -3.79986,5.53984 -4.69531,8.28711 -0.91138,2.79607 -0.52344,7.55664 -0.52344,7.55664 0,0 0.35256,-4.77936 1.1875,-7.33984 0.8505,-2.6093 2.79296,-5.77164 4.58398,-8.07422 1.80945,-2.32627 3.44097,-4.37414 5.4336,-5.91992 2.01038,-1.55958 4.18006,-2.76796 6.48242,-3.48438 2.2652,-0.70486 4.77623,-0.53916 7.4414,-0.35156 2.00977,0.14147 5.81035,1.00169 7.42579,1.38281 0.3945,0.36973 0.78273,0.73566 1.22265,1.14844 2.37768,2.23094 5.62151,6.53568 7.77539,8.99219 2.09755,2.39224 3.35282,4.26953 4.95703,5.5664 0.82679,0.66839 1.53676,0.87571 2.07618,1.05664 0.53942,0.18094 0.9222,0.31836 1.52539,0.96289 1.17372,1.25423 2.04544,3.90198 3.18164,6.65625 1.11132,2.694 2.46594,6.56953 3.27343,9.45704 0.38974,1.39358 0.52661,2.82707 0.64649,4.11328 0.11987,1.2862 0.14562,2.43883 0.60742,3.30273 0.65897,1.23275 2.38672,1.42774 2.38672,1.42774 0,0 -0.98712,-0.77522 -1.42188,-1.71875 -0.44169,-0.9586 -0.25698,-1.83586 -0.37695,-3.12305 -0.11997,-1.28719 -0.26042,-2.79905 -0.6875,-4.32617 -0.8261,-2.95395 -2.18367,-6.83921 -3.31836,-9.58985 -1.10982,-2.69032 -1.89994,-5.40156 -3.41406,-7.01953 -0.12711,-0.13583 -0.25071,-0.23908 -0.375,-0.34765 0.23324,0.13163 0.47132,0.29853 0.76758,0.5664 1.30174,1.17703 2.38744,2.09186 3.57617,4.4043 1.15336,2.24363 1.96996,6.73689 2.65234,9.67383 0.67117,2.88862 1.85352,7.60351 1.85352,7.60351 0,0 -0.39041,-4.84011 -1.07422,-7.7832 -0.67259,-2.8948 -1.44384,-7.37744 -2.7207,-9.86133 -1.24149,-2.41507 -2.45823,-3.46285 -3.75,-4.63086 -0.68845,-0.62249 -1.20947,-0.82213 -1.74219,-1.07031 -0.53272,-0.24818 -1.12616,-0.56067 -2.16602,-1.49414 -2.02892,-1.82136 -4.81845,-6.5364 -7.72505,-9.73929 -2.87164,-3.16437 -6.34733,-6.76005 -9.50346,-9.37941 -3.12656,-2.594797 -5.29399,-4.837763 -7.92818,-6.387723 -2.58965,-1.523756 -5.06877,-2.89315 -7.33928,-3.046741 -2.27052,-0.153591 -5.32913,1.149171 -7.52746,2.370476 z M 220.38767,133.4048 c -1.01494,0.0993 -2.43579,0.90799 -3.35962,1.51447 -1.00064,0.6569 -1.44548,1.94038 -2.1824,3.05138 -0.75499,1.13824 -1.16992,2.07813 -1.16992,2.07813 0,0 0.79529,-1.01737 1.66992,-1.92383 0.94519,-0.97958 1.92657,-1.85693 2.59375,-2.29492 1.48798,-0.97683 3.22538,-1.06941 4.8086,-0.53711 1.38273,0.46489 3.00208,2.59091 5.42187,5.875 2.29132,3.10973 3.23717,7.73324 6.84961,12.3457 3.49377,4.46094 5.57558,8.00254 12.06796,11.72697 3.32098,1.90511 7.96859,3.32931 12.21134,4.27443 4.24274,0.94512 8.20346,1.59464 10.07031,2.29277 3.94973,1.47705 5.95071,2.69109 8.72461,5.00466 1.50629,1.25632 2.96597,1.59067 4.03711,1.57227 1.07113,-0.0184 1.50781,-0.97461 1.50781,-0.97461 0,0 -0.73357,0.14844 -1.52929,0.16211 -0.79572,0.0137 -1.90096,-0.68998 -3.1836,-1.75977 -2.80397,-2.33865 -5.01781,-3.95329 -9.10156,-5.48047 -2.14991,-0.80398 -6.0385,-1.45225 -10.24219,-2.38867 -4.20368,-0.93642 -8.68503,-2.45322 -11.76172,-4.2182 -6.30298,-3.61577 -8.31173,-6.77125 -11.691,-11.40079 -3.37226,-4.61993 -4.19887,-8.39298 -6.69667,-12.23007 -2.21876,-3.40846 -3.94892,-5.62795 -6.05469,-6.33593 -1.02435,-0.34441 -2.00227,-0.45164 -2.99023,-0.35352 z m 22.95798,3.22606 c 0,0 3.15484,6.28369 5.72657,9.0293 2.48949,2.65782 4.83194,5.52166 9.05078,7.05078 2.17547,0.7885 5.31637,0.76708 9,0.82422 3.68362,0.0571 8.67151,-0.82097 12.24414,-1.53711 3.57262,-0.71614 6.61719,-1.25557 8.43945,-1.34375 3.69992,-0.17905 7.79688,0.26172 7.79688,0.26172 0,0 -4.00794,-1.1459 -7.83008,-0.96094 -1.93878,0.0938 -4.99855,0.5495 -8.54492,1.35742 -3.54638,0.80792 -8.48898,1.44525 -12.1211,1.52344 -3.63211,0.0782 -6.79512,-0.0761 -8.74609,-0.78321 -4.03407,-1.46213 -6.26676,-4.19075 -8.77735,-6.87109 -2.42836,-2.59257 -6.23828,-8.55078 -6.23828,-8.55078 z m 25.0293,20.26758 c 0,0 1.70703,0.96106 3.92578,1.69922 2.21875,0.73815 4.83112,1.75346 6.29492,2.74414 1.46322,0.99027 3.39184,3.05296 4.91407,4.85156 1.52221,1.7986 3.05859,3.03711 3.05859,3.03711 0,0 -0.74967,-1.85778 -2.29492,-3.68359 -1.54526,-1.82581 -3.46573,-3.91553 -5.11719,-5.03321 -1.65087,-1.11727 -4.28814,-2.11573 -6.54102,-2.86523 -2.25286,-0.74951 -4.24023,-0.74999 -4.24023,-0.75 z m -8.49805,4.72459 c 0,0 3.10577,0.56844 6.74219,1.83732 3.74142,1.30551 8.42599,3.04338 11.50977,5.41463 3.02528,2.32628 6.40889,7.64441 9.32617,12.64648 1.45864,2.50105 2.8141,4.92514 4,6.87891 1.1859,1.95377 2.13099,3.41572 3.08398,4.13477 3.11196,2.34801 5.97852,0.39257 5.97852,0.39257 0,0 -3.36519,0.0242 -5.19531,-1.43164 -0.5295,-0.42123 -1.58965,-1.84819 -2.75586,-3.76953 -1.16622,-1.92134 -2.52205,-4.34532 -3.98829,-6.85937 -2.93245,-5.02813 -6.25837,-10.41067 -9.65624,-13.02344 -3.33939,-2.56781 -8.05792,-4.25289 -11.95704,-5.33008 -3.7358,-1.03207 -5.95322,-0.93567 -7.08789,-0.89062 z m -15.55468,2.84572 c 0,0 5.61021,3.64791 9.21289,5.2207 0.59851,0.26129 1.23957,0.51704 1.89648,0.77344 0.69955,0.46131 2.69754,1.78385 4.80664,3.28125 2.51229,1.78366 5.40864,3.95404 6.75391,5.28711 2.73161,2.70684 6.00976,7.28516 6.00976,7.28516 0,0 -2.71729,-5.00132 -5.60742,-7.86524 -1.46561,-1.45231 -4.46183,-3.62035 -6.98828,-5.41406 -0.85093,-0.60413 -1.63928,-1.12946 -2.32422,-1.57031 2.5986,0.96542 5.26153,1.95632 7.31055,3.11132 3.29453,1.85709 5.02467,3.96545 7.14258,5.64844 2.1179,1.683 3.53801,2.11659 4.29687,1.11914 0.75886,-0.99745 -0.19839,-2.32749 -2.00781,-3.70508 -1.80941,-1.37758 -5.35888,-2.41741 -8.85352,-4.20312 -3.49565,-1.78624 -8.61992,-2.84681 -12.15625,-4.39062 -3.55428,-1.55167 -9.49218,-4.57813 -9.49218,-4.57813 z"
       sodipodi:nodetypes="zsscsssccsssscsssssczzcsssssscssssssssssscsccsssssszssssssscsscssscssssssccsssscssssssssscssssscssscsssssssssccscsssssssssscssssssssscsssscsssssccssscssscscsssscsssssscssscsscsssssscssss" /><path
       id="path12"
       style="fill:#000000;fill-opacity:1;stroke:none;stroke-width:1px;stroke-linecap:butt;stroke-linejoin:miter;stroke-opacity:1"
       d="m 284.61538,120.39072 c -2.09098,-1.60632 -5.02632,-7.11536 -7.2039,-9.03541 -2.17758,-1.92005 -2.59681,-2.28968 -5.00611,-3.0525 -2.4093,-0.76282 -6.31912,-1.78437 -10.01221,-1.4652 -3.69309,0.31917 -8.74215,1.59192 -12.45421,4.2735 -3.71206,2.68158 -5.26073,7.87135 -6.22711,12.08791 -0.96638,4.21656 -0.44373,7.45223 1.221,11.35531 1.66473,3.90308 4.3771,7.95204 8.54701,10.50062 4.16991,2.54858 9.52448,3.67415 14.77412,3.663 5.24964,-0.0112 10.57563,-0.6843 14.65201,-3.0525 4.07638,-2.36824 6.72421,-6.2552 7.93651,-9.76801 1.2123,-3.51281 0.64442,-6.45522 0.1221,-8.79121 -0.52232,-2.33599 -1.2592,-3.26083 -2.442,-4.39561 -1.1828,-1.13478 -1.81623,-0.71358 -3.90721,-2.3199 z m 45.02243,6.7849 c 0,0 1.53078,-2.97009 3.02183,-5.09393 1.49106,-2.12385 4.05142,-5.63733 5.87097,-7.68407 1.81955,-2.04674 3.54458,-3.32072 4.74858,-4.31689 1.204,-0.99617 1.77142,-1.334 2.41746,-1.72676 0.64604,-0.39276 0.66346,-0.85366 1.72676,-0.77704 1.0633,0.0766 2.53996,0.98203 3.79886,2.41746 1.2589,1.43543 2.48001,3.88363 3.02183,6.12998 0.54182,2.24636 0.64356,5.393 0.60436,7.5114 -0.0392,2.1184 -0.23363,3.77047 -0.60437,5.87097 -0.37073,2.1005 -0.9953,4.54725 -1.89943,6.56167 -0.90412,2.01442 -1.9139,3.53676 -3.1945,5.0076 -1.2806,1.47083 -2.56344,2.71222 -4.31689,3.71252 -1.75344,1.0003 -4.35165,1.86571 -6.21632,2.15844 -1.86467,0.29274 -3.34593,0.11753 -5.0076,-0.34531 -1.66167,-0.46284 -4.92125,-2.84915 -4.92125,-2.84915 0,0 -0.50489,-3.91582 -0.43169,-6.30266 0.0732,-2.38684 0.45235,-6.14544 0.6907,-7.85674 0.23835,-1.71131 0.6907,-2.41749 0.6907,-2.41749 z" /><path
       id="path15-3"
       style="color:#000000;fill:#ffffff;fill-opacity:0.3;stroke-linecap:round;-inkscape-stroke:none"
       d="m 346.36224,114.81515 c 0,0 2.06628,2.84257 2.64197,5.02881 0.80651,3.06279 0.4114,7.24255 -0.21856,9.13696 -0.90012,2.70683 -2.76949,5.414 -2.76949,5.414 -0.89726,0.97986 -1.69328,2.58802 -1.23101,3.31211 0.98039,0.89675 2.50221,0.82853 3.39843,-0.15234 0,0 3.3584,-3.45183 4.35547,-8.08008 0.45718,-2.12209 1.42633,-7.17631 -0.17187,-11.83984 -1.06126,-3.09674 -3.69898,-5.37113 -3.69898,-5.37113 -0.91846,-0.95959 -2.41892,-1.88284 -3.31137,-0.81192 -0.89245,1.07092 0.0881,2.40423 1.00541,3.36343 z m -83.71475,-5.22125 c -1.85988,0.0875 -3.46513,1.74354 -3.62228,3.11497 -0.15672,1.37148 1.25514,3.40407 2.62657,3.56122 0,0 5.63126,0.32662 8.70174,1.08147 1.8148,0.44616 5.11168,2.14595 6.15625,3.09571 2.56247,2.32988 5.2539,7.09375 5.2539,7.09375 0.65613,1.21544 2.17358,1.66848 3.38867,1.01171 1.21472,-0.65681 1.66685,-2.17409 1.00977,-3.38867 0,0 -2.6372,-5.09561 -6.28906,-8.41601 -2.17604,-1.97854 -4.94129,-4.35345 -7.83778,-5.65611 -3.79451,-1.70653 -9.38778,-1.49804 -9.38778,-1.49804 z" /><path
       style="fill:#000000;stroke:none;stroke-width:1px;stroke-linecap:butt;stroke-linejoin:miter;stroke-opacity:1;fill-opacity:1"
       d="m 303.2967,166.30037 c -1.45257,-2.05561 -3.21399,-3.74876 -3.4188,-5.86081 -0.20481,-2.11205 0.25003,-5.12553 1.9536,-5.61661 1.70357,-0.49108 2.79775,1.16917 3.66301,2.93041 0.86526,1.76124 -1.27199,5.06687 0.1221,7.08181 1.39409,2.01494 5.742,1.43309 7.0818,2.8083 1.3398,1.37521 2.07958,2.27283 1.3431,3.663 -0.73648,1.39017 -3.17458,2.05144 -5.3724,1.3431 -2.19782,-0.70834 -3.91984,-4.29359 -5.37241,-6.3492 z"
       id="path17"
       sodipodi:nodetypes="zzzzzzzzz" /><path
       style="fill:#000000;fill-opacity:1;stroke:none;stroke-width:1px;stroke-linecap:butt;stroke-linejoin:miter;stroke-opacity:1"
       d="m 333.60716,161.5027 c 0,0 -0.86875,3.13456 -1.5873,4.39561 -0.71855,1.26105 -1.84531,2.17506 -2.05221,3.40399 -0.2069,1.22893 -0.13373,1.94357 0.9768,2.442 1.11053,0.49843 2.24503,-0.23596 3.27321,-1.32829 1.02818,-1.09233 1.56235,-2.52105 1.55678,-4.57875 -0.006,-2.0577 -2.16728,-4.33456 -2.16728,-4.33456 z"
       id="path18"
       sodipodi:nodetypes="czzzzzc" /><path
       style="color:#000000;fill:#000000;-inkscape-stroke:none"
       d="m 333.8178,172.66351 c -0.62434,0.91531 -1.83691,1.58997 -2.82952,1.97126 -0.9275,0.35627 -2.37896,0.12604 -4.07812,-0.28321 -1.69917,-0.40925 -3.61738,-0.95234 -5.57618,-0.86328 -1.98597,0.0903 -4.09765,0.9138 -6.08789,1.57031 -1.99024,0.65652 -3.83793,1.10434 -5.03515,0.77539 -1.26259,-0.34691 -2.79613,-1.24475 -3.71214,-2.30564 -0.916,-1.06089 -3.19739,-2.80521 -3.19739,-2.80521 0,0 1.30881,2.39682 2.32164,3.56984 1.01283,1.17302 2.42453,2.50086 4.1914,2.98633 1.83225,0.50343 3.86891,-0.12611 5.90235,-0.79688 2.03343,-0.67076 4.08508,-1.42333 5.68554,-1.49609 1.62764,-0.074 3.42278,0.40475 5.15625,0.82226 1.73348,0.41752 3.43304,0.81647 4.96875,0.22657 1.4706,-0.5649 2.51311,-1.78413 3.22657,-2.83008 0.71345,-1.04595 0.62697,-3.08486 0.62697,-3.08486 0,0 -0.93873,1.62798 -1.56308,2.54329 z"
       id="path19"
       sodipodi:nodetypes="ssssssscssssssscs" /><path
       style="color:#000000;fill:#000000;-inkscape-stroke:none"
       d="m 289.61133,134.88086 c -1.36571,7.37445 3.74961,13.73335 3.74961,13.73335 0,0 -3.80399,-8.43267 -2.75352,-13.65523 z"
       id="path22"
       sodipodi:nodetypes="cccc" /><path
       style="color:#000000;fill:#000000;-inkscape-stroke:none"
       d="m 316.72461,179.96289 c -1.09289,0.10025 -2.41723,0.43945 -4.06641,1.00586 -0.9263,0.31814 -2.04234,1.04252 -3.26562,1.95508 -1.22328,0.91255 -2.53322,2.0149 -3.74024,3.08008 -2.41402,2.13035 -4.06543,4.47265 -4.06543,4.47265 0,0 2.33725,-1.61692 4.72559,-3.72461 1.19417,-1.05384 2.48945,-2.14089 3.67773,-3.02734 1.18829,-0.88645 2.29002,-1.56938 2.99219,-1.81055 3.21556,-1.10438 4.9192,-1.19487 5.95117,-0.64258 0.43251,0.23147 1.17388,0.72096 1.58037,1.43035 0.40649,0.70939 1.0068,2.58508 1.0068,2.58508 0,0 0.15247,-2.03571 -0.29029,-2.80839 -0.44276,-0.77268 -1.01393,-1.6562 -1.82422,-2.08985 -0.7268,-0.38897 -1.58875,-0.52603 -2.68164,-0.42578 z"
       id="path25"
       sodipodi:nodetypes="sssscssssscsss" /><path
       style="color:#000000;fill:#000000;-inkscape-stroke:none"
       d="m 324.24023,180.68359 c -0.41217,0.33481 -0.81151,0.73886 -1.16796,1.13086 -0.71291,0.78401 -1.24644,3.381 -1.24644,3.381 0,0 1.13357,-2.03145 1.80352,-2.76822 0.33498,-0.36838 0.89043,-0.68092 1.24174,-0.96629 0.35131,-0.28538 0.9651,-0.53772 1.38807,-0.62992 1.2361,-0.26944 3.25867,-0.24092 4.79162,0.45414 1.4519,0.6583 2.72692,2.55571 3.51808,4.19307 0.75022,1.55265 0.83934,3.1663 0.83934,3.1663 0,0 0.53711,-1.86427 -0.0742,-3.57812 -0.54461,-1.52679 -1.86936,-3.78469 -3.86914,-4.69141 -0.95936,-0.43498 -1.90874,-0.72788 -2.97506,-0.75489 -1.49043,-0.0606 -3.03277,0.20194 -4.24957,1.06348 z"
       id="path26"
       sodipodi:nodetypes="sscssssscsscs" /><path
       id="path27"
       style="color:#000000;fill:#000000;-inkscape-stroke:none"
       d="M 353.79688 130.84375 L 352.05664 132.97852 C 352.05664 132.97852 352.13905 134.08068 352.16602 135.44336 C 352.19292 136.80605 352.15092 138.44737 351.94922 139.36914 C 351.50188 141.4131 351.46101 142.20444 350.08594 144.30469 C 348.7315 146.37342 346.01494 149.55362 344.19336 150.68945 C 342.14905 151.96416 341.11785 152.0352 338.83203 153.54883 C 335.9704 155.44374 334.23744 157.84691 335.21875 160.83203 C 335.51012 161.7184 335.8703 162.55426 336.0625 163.61719 C 336.48357 165.9459 337.18527 168.98149 337.39648 171.8457 C 337.61062 174.74958 337.8755 178.28907 337.53711 181.34375 C 337.1899 184.47807 336.52423 188.6736 335.63477 190.16797 C 334.74529 191.66234 333.9346 192.37745 332.92188 193.23242 C 331.96997 194.03603 329.45313 195.23828 329.45312 195.23828 C 329.45312 195.23828 332.32521 194.54004 333.47656 193.85156 C 334.78296 193.07036 335.80732 191.79111 336.57812 190.49609 C 338.09276 187.95146 338.32654 184.23447 338.66797 181.15234 C 339.01822 177.99058 339.01251 174.72133 338.79297 171.74414 C 338.73317 170.93318 338.63272 170.12264 338.51562 169.32031 C 339.19405 168.30651 340.71589 166.13774 342.00586 165.08203 C 342.85178 164.38973 344.30714 163.73576 345.73438 163.12305 C 347.16161 162.51034 348.90118 161.89013 350.06641 161.20117 C 352.16416 159.96082 354.15177 159.30178 355.35352 157.60547 C 356.43936 156.07274 356.88559 154.50393 356.58594 152.96094 C 356.39412 151.97321 355.72153 151.19814 355.13477 150.55664 C 354.87705 150.27489 354.63405 150.03707 354.43359 149.84766 C 354.50736 149.72052 354.58124 149.59232 354.64844 149.45703 C 355.31542 148.11413 355.45453 146.14137 355.25195 144.70508 C 355.1257 143.80996 354.75571 142.89357 354.26562 142.03516 C 354.07022 141.69288 353.71998 141.20309 353.41602 140.79492 C 353.61252 140.21229 353.78007 139.61557 353.91992 138.97656 C 354.18112 137.78311 354.19768 136.12982 354.16992 134.72461 C 354.14212 133.3194 353.79687 130.84375 353.79688 130.84375 z M 350.19141 143.0625 C 350.19141 143.0625 348.60382 144.94762 347.26562 146.06836 C 346.13929 147.01167 344.54377 147.94801 343.66602 148.35547 C 341.72713 149.25549 339.03259 150.5327 336.87695 150.51562 C 335.83872 150.50764 334.42335 150.31131 333.00195 149.8457 C 331.72057 149.42595 330.64648 148.83984 330.64648 148.83984 C 330.64648 148.83984 331.45688 149.7177 332.74414 150.24219 C 334.0314 150.76667 335.59902 151.30631 336.87109 151.31641 C 339.33612 151.33591 342.075 149.97457 344.00195 149.08008 C 345.05711 148.59028 346.48833 147.58777 347.56445 146.55078 C 348.8788 145.28423 350.19141 143.0625 350.19141 143.0625 z M 352.39844 143.14648 C 352.46277 143.23045 352.52642 143.31 352.59375 143.40234 C 353.02878 143.99899 353.4804 144.76606 353.58203 145.23828 C 353.81894 146.33907 353.54963 147.85786 352.97656 149.01172 C 352.40264 150.16727 352.08497 150.35714 350.75977 151.53906 C 349.54528 152.62222 347.74754 153.22155 345.75391 154.99023 C 343.79627 156.72699 340.93447 159.75311 339.48633 162.0957 C 338.84672 163.13037 338.29413 164.4344 337.86523 165.58789 C 337.71733 164.83113 337.55792 164.01156 337.44141 163.36719 C 337.21801 162.13172 336.81154 161.19371 336.54883 160.39453 C 335.56733 157.40876 339.37391 154.86449 339.64258 154.68945 C 341.3157 153.59939 343.03986 153.10528 344.93945 151.875 C 347.15363 150.44098 349.80353 147.29348 351.25781 145.07227 C 351.70202 144.39379 352.07324 143.76255 352.39844 143.14648 z M 353.46289 151.13477 C 353.613 151.28084 353.77726 151.44444 353.95312 151.63672 C 354.46269 152.19382 354.95097 152.94277 355.01367 153.26562 C 355.22306 154.34383 354.96857 155.3814 354.04883 156.67969 C 353.24495 157.8144 351.3632 158.69697 349.16602 159.99609 C 348.18377 160.57687 346.73005 161.15593 345.27344 161.78125 C 343.81683 162.40657 342.35196 163.07241 341.25195 163.97266 C 339.99027 165.00522 338.92923 166.54086 338.25 167.66016 C 338.24596 167.63711 338.24234 167.61285 338.23828 167.58984 C 338.6486 166.31429 339.43392 164.08342 340.33789 162.62109 C 341.67545 160.45739 344.53285 157.41071 346.41797 155.73828 C 348.26707 154.09781 349.99797 153.67385 351.59766 152.63086 C 352.32926 152.15385 352.9446 151.6743 353.46289 151.13477 z " /><path
       style="color:#000000;fill:#000000;-inkscape-stroke:none"
       d="m 281.16211,192.25 c 1.31561,1.00168 3.26007,1.87786 5.47266,2.05664 2.19848,0.17759 3.65078,-0.50207 5.46369,-0.30383 1.63688,0.17899 2.91792,0.79683 2.91792,0.79683 0,0 -1.60867,-1.06063 -2.9949,-1.25276 -1.43511,-0.19888 -3.25485,0.23014 -5.33007,0.0625 -2.06114,-0.16654 -3.94035,-0.91119 -5.14669,-1.82967 -1.18977,-0.90587 -2.73808,-2.52775 -2.73808,-2.52775 0,0 1.02329,1.98375 2.35547,2.99804 z"
       id="path33"
       sodipodi:nodetypes="ssscssscs" /><path
       style="color:#000000;fill:#000000;-inkscape-stroke:none"
       d="m 296.11545,108.13426 c -0.86444,0.44308 -1.48271,0.95197 -1.88136,1.62427 -0.39865,0.67231 -0.48096,1.55408 -0.37891,2.9153 0.11716,1.56264 1.41955,3.34395 2.77568,5.10351 1.35612,1.75957 2.78177,3.45453 3.937,4.54268 1.24353,1.17132 2.33034,1.83029 3.26838,2.40328 0.93805,0.57299 1.82851,1.23961 2.38279,1.76745 1.6039,1.52738 2.78553,4.64465 2.78553,4.64465 0,0 -1.02526,-3.80341 -2.20378,-5.28579 -0.63429,-0.79783 -1.58102,-1.4582 -2.50564,-2.02299 -0.92463,-0.56479 -1.60942,-1.14041 -2.83,-2.24118 -1.17318,-1.05803 -2.44683,-2.56276 -3.78293,-4.33308 -1.29721,-1.71879 -2.10092,-3.54227 -2.312,-4.65275 -0.39398,-2.07277 1.01917,-3.16742 1.73704,-3.58008 0.91229,-0.52441 1.89442,-0.9541 3.51992,-1.10436 1.66537,-0.15395 4.8984,-0.10099 4.8984,-0.10099 0,0 -3.67417,-0.49386 -4.90022,-0.47721 -2.03168,0.0276 -3.37433,0.21525 -4.5099,0.79729 z"
       id="path34"
       sodipodi:nodetypes="ssssssscsssssssccs" /><path
       style="color:#000000;fill:#000000;-inkscape-stroke:none"
       d="m 223.7793,128.91211 c -2.92482,-0.19416 -6.25416,0.81979 -8.45313,3.45898 -1.0284,1.23428 -1.78183,3.06272 -2.24414,4.70899 -0.4623,1.64627 0.25844,3.82254 0.25844,3.82254 0,0 -0.0945,-2.3439 0.48617,-3.86896 0.56329,-1.4795 1.56686,-3.00387 2.36281,-3.82858 1.77694,-1.84113 5.12033,-3.08094 7.40307,-2.85932 1.36291,0.13232 2.79366,0.9067 4.1148,2.00356 1.40775,1.16878 3.24705,3.37291 3.24705,3.37291 0,0 -1.25503,-2.74231 -2.60281,-4.11871 -1.25942,-1.28616 -2.76556,-2.57148 -4.57226,-2.69141 z"
       id="path35"
       sodipodi:nodetypes="ssscsssscss" /><path
       style="color:#000000;fill:#000000;-inkscape-stroke:none"
       d="m 264.03516,186.17406 c -3.22607,0.11655 -7.05972,0.43643 -9.67579,1.37109 -5.08765,1.8177 -10.68369,6.13557 -13.37935,9.46059 -2.58084,2.9757 -5.1189,7.4069 -3.63086,10.82421 1.48804,3.41731 5.52398,2.43982 9.54297,1.19141 2.55435,-0.79344 5.82083,-2.15261 8.15279,-2.51722 4.8821,-0.76335 10.10915,-1.7292 15.02149,-1.58008 4.83811,0.14686 16.5024,1.91409 16.5024,1.91409 0,0 -11.28025,-3.05754 -16.46334,-3.21487 -5.10888,-0.15509 -10.40633,0.83653 -15.26172,1.5957 -2.53678,0.39664 -5.31671,1.43912 -7.82031,2.2168 -2.36361,0.73419 -6.85814,2.43226 -8.01172,-0.56641 -1.15358,-2.99867 1.31574,-6.65458 3.49609,-9.39062 2.50598,-3.09105 7.51573,-7.00554 12.28906,-8.71094 2.31443,-0.82689 6.1126,-1.17836 9.28516,-1.29297 3.17256,-0.11462 7.34609,0.55976 7.34609,0.55976 0,0 -4.16689,-1.97732 -7.39296,-1.86054 z"
       id="path36"
       sodipodi:nodetypes="csszssscssszssscc" /><path
       style="color:#000000;fill:#000000;fill-opacity:0.30000001;-inkscape-stroke:none"
       d="m 312.52344,91.703125 -1.41407,0.433594 c 0.33267,2.472174 -0.13245,4.267582 -1.05859,5.597656 -0.92614,1.330074 -2.35281,2.223142 -4.06836,2.736325 -0.94083,0.28144 -1.72499,0.81881 -2.1582,1.59766 -0.43321,0.77885 -0.44857,1.77108 -0.0195,2.70312 l 7.74023,16.81836 c 0.73532,1.59742 2.37442,2.59154 4.13086,2.50586 l 2.75977,-0.13476 c 1.46539,-0.0715 2.68067,-1.18695 2.8789,-2.64063 l 2.37696,-17.42773 c 0.15729,-1.15349 -0.2035,-2.20312 -0.89258,-2.93945 -0.68908,-0.73634 -1.65751,-1.179602 -2.72266,-1.378911 -1.41466,-0.26471 -2.61481,-0.913646 -3.83203,-2.160157 -1.21722,-1.24651 -2.42785,-3.104043 -3.7207,-5.710937 z m 0.008,3.076172 c 0.8619,1.461498 1.72581,2.748767 2.63867,3.683594 1.38808,1.421484 2.91847,2.263559 4.63086,2.583989 0.82565,0.15449 1.49369,0.49496 1.90234,0.93164 0.40866,0.43667 0.60569,0.95022 0.50196,1.71093 l -2.37696,17.42774 c -0.10191,0.74741 -0.71141,1.30895 -1.46484,1.3457 l -2.76172,0.13281 c -1.14947,0.0561 -2.21214,-0.5874 -2.69336,-1.63281 l -7.74218,-16.81836 c -0.27053,-0.5877 -0.22898,-0.99023 -0.0312,-1.3457 0.19772,-0.35548 0.61874,-0.69361 1.27734,-0.89063 1.95758,-0.58558 3.70998,-1.65364 4.86914,-3.318356 0.71827,-1.031531 1.08072,-2.353221 1.25,-3.810547 z"
       id="path39" /><path
       id="path40"
       style="fill:none;stroke:#000000;stroke-width:1.00274;stroke-linecap:butt;stroke-linejoin:miter;stroke-dasharray:none;stroke-opacity:0.2"
       d="m 313.46594,99.44727 c -0.99907,2.3033 -3.12187,3.80309 -5.35497,4.49226 -0.51139,0.1266 -0.002,0.63817 0.0524,0.92687 2.07081,4.75762 4.09518,9.54174 6.19505,14.2828 0.50466,1.04403 1.72785,0.67527 2.61229,0.67051 0.41879,-0.0513 1.18105,0.13284 1.13263,-0.56523 0.63594,-5.08744 1.33441,-10.16987 1.93138,-15.26043 -0.19483,-0.87756 -1.25742,-0.81046 -1.9035,-1.05827 -1.8897,-0.56119 -3.44477,-1.9772 -4.61206,-3.615573 l -0.0336,0.08029 z" /><path
       id="path41"
       style="color:#000000;fill:#000000;fill-opacity:0.2;-inkscape-stroke:none"
       d="M 283.91406 33.054688 C 282.6323 33.031088 281.32418 33.157098 280.05273 33.484375 C 277.50987 34.138927 275.10902 35.612015 273.44141 38.238281 C 271.75304 40.897179 271.47948 44.303437 272.12109 47.789062 C 272.66281 50.732016 273.86297 53.743585 275.46289 56.470703 C 275.44952 56.677226 275.4286 56.919098 275.38867 57.068359 C 275.31707 57.336015 275.17989 57.635516 275.0625 57.753906 C 274.67689 58.14281 274.08997 58.50051 273.23438 58.46875 C 272.89858 58.45628 272.32075 58.222537 271.75 57.902344 C 271.17925 57.582148 270.61026 57.196587 270.13477 56.933594 C 269.66707 56.674911 269.29309 56.523671 269.00781 56.373047 C 268.72254 56.222422 268.52252 56.085125 268.29492 55.804688 C 268.11537 55.583449 268.03523 55.265878 267.93555 54.806641 C 267.83585 54.347402 267.70961 53.767356 267.33594 53.175781 C 266.95073 52.56594 266.36513 52.076789 265.78711 51.572266 C 265.20909 51.067741 264.63622 50.554618 264.25977 50.007812 C 263.46326 48.850874 263.02864 47.475886 262.36523 45.910156 C 262.00306 45.055359 261.40487 44.253993 260.9707 43.457031 C 260.53653 42.660069 260.27964 41.915527 260.45117 41.164062 C 260.61994 40.424698 261.30656 39.565686 262.13672 38.869141 C 262.96688 38.172594 263.93435 37.62785 264.49609 37.421875 C 265.60466 37.015397 267.92922 37.013215 269.34375 37.351562 C 269.99489 37.50731 270.92097 37.681781 271.65039 38.121094 C 272.37981 38.560406 273.08594 38.679688 273.08594 38.679688 C 273.08594 38.679688 272.71728 37.943058 271.94922 37.480469 C 271.18115 37.017879 270.44648 36.589031 269.57617 36.380859 C 268.76199 36.186115 267.77624 36.075454 266.80859 36.082031 C 265.84095 36.088631 264.89117 36.210801 264.15039 36.482422 C 263.41708 36.751307 262.41457 37.33123 261.49414 38.103516 C 260.57371 38.875799 259.73051 39.828879 259.47656 40.941406 C 259.22538 42.041835 259.61199 43.054814 260.0918 43.935547 C 260.5716 44.81628 261.15549 45.614809 261.44531 46.298828 C 262.08591 47.810735 262.53053 49.258784 263.4375 50.576172 C 263.91279 51.26653 264.54871 51.817796 265.12891 52.324219 C 265.7091 52.830639 266.23008 53.299083 266.49023 53.710938 C 266.76192 54.141061 266.86016 54.562312 266.95898 55.017578 C 267.05778 55.472847 267.15076 55.983575 267.51758 56.435547 C 267.83635 56.828317 268.19005 57.072505 268.54102 57.257812 C 268.89198 57.443122 269.23787 57.580429 269.65039 57.808594 C 270.05511 58.032446 270.64254 58.42803 271.26172 58.775391 C 271.88089 59.122749 272.52499 59.443793 273.19727 59.46875 C 274.35781 59.51183 275.23522 58.999848 275.77344 58.457031 C 275.99949 58.229042 276.13469 57.965082 276.23047 57.710938 C 276.28223 57.790128 276.33039 57.872613 276.38281 57.951172 C 278.4968 61.119352 282.13159 63.381028 285.69727 65.244141 C 289.26291 67.10725 292.79164 68.590077 294.62695 69.986328 C 296.52358 71.42923 297.18877 72.413154 297.66406 73.166016 C 297.90171 73.542443 298.09302 73.881635 298.38867 74.189453 C 298.68433 74.497271 299.0827 74.741276 299.62109 74.902344 C 300.43509 75.145861 301.19244 75.489414 302.02148 75.548828 C 301.81235 75.80564 301.55136 76.212475 301.46289 76.722656 C 301.30653 77.624349 301.17699 78.699188 301.44531 79.576172 C 301.71901 80.470683 302.49055 81.354046 303.18945 82.09375 C 303.59294 82.520786 304.13714 82.746416 304.52539 82.861328 L 304.52539 82.863281 C 304.56897 83.054636 304.62047 83.240974 304.67188 83.417969 C 304.8775 84.125948 305.9375 85.214844 305.9375 85.214844 C 305.9375 85.214844 305.81294 83.76557 305.63086 83.138672 C 305.44878 82.511774 305.37589 81.76621 305.49414 81.476562 C 305.84635 80.613876 306.73147 79.941782 308.01367 79.707031 C 309.19587 79.490588 311.30073 80.074584 312.51758 80.919922 C 313.05013 81.289881 313.73581 82.218268 314.23438 83.039062 C 314.70616 83.81577 314.99168 84.414087 315.02539 84.484375 L 315.52148 85.820312 L 315.73633 84.355469 C 315.73633 84.355469 315.6173 83.387867 315.08984 82.519531 C 314.56239 81.651196 313.89049 80.657173 313.08789 80.099609 C 312.92236 79.984615 312.74654 79.874701 312.56445 79.769531 C 312.64249 79.575927 312.74531 79.30356 312.84766 78.992188 C 313.04805 78.382479 313.25549 77.634922 313.21484 76.941406 C 313.17224 76.213819 312.81319 75.352558 312.47852 74.599609 C 312.32262 74.248886 312.0736 73.981479 311.85156 73.794922 C 312.32844 73.246369 312.58869 72.533548 312.72852 71.763672 C 312.94558 70.568469 312.96034 69.162805 313.20898 67.59375 C 313.70726 64.449401 315.29895 59.350433 314.94141 54.871094 C 314.59367 50.514636 313.97641 47.338952 312.11133 44.126953 C 310.22491 40.878215 306.94847 37.464305 304.73828 35.902344 C 303.68611 35.158761 302.42881 34.517599 301.53711 34.007812 C 301.09126 33.752922 300.62069 33.565069 300.13867 33.501953 C 299.65665 33.438833 299.16334 33.500054 298.67773 33.742188 C 298.11175 34.02438 297.77803 34.5631 297.56445 35.136719 C 297.35088 35.710335 297.24816 36.347862 297.19531 36.951172 C 297.08961 38.157788 298.06055 40.662109 298.06055 40.662109 C 298.06055 40.662109 297.79072 38.31909 297.88672 37.222656 C 297.93472 36.674441 298.33791 35.926909 298.50195 35.486328 C 298.66599 35.04575 298.88576 34.756001 299.125 34.636719 C 299.76423 34.318004 300.28237 34.441284 301.04102 34.875 C 301.79963 35.308716 303.06364 35.945782 304.16016 36.720703 C 306.24732 38.195745 309.49907 41.616863 311.24805 44.628906 C 313.01836 47.67769 313.59994 50.648742 313.94336 54.951172 C 314.27697 59.130717 312.74498 64.14138 312.22266 67.4375 C 311.961 69.088675 311.9368 70.525129 311.74414 71.585938 C 311.55148 72.646745 311.26904 73.256429 310.44141 73.621094 C 310.15811 73.745916 309.70032 73.673754 309.12109 73.361328 C 308.54186 73.048904 307.8937 72.52654 307.30273 71.970703 C 306.64147 71.348725 306.10985 70.75291 305.71875 70.292969 C 305.7176 70.276125 305.718 70.261039 305.7168 70.244141 C 305.618 68.851749 305.31962 67.270388 304.96875 65.771484 C 304.26702 62.77368 302.87305 60.263672 302.87305 60.263672 C 302.87305 60.263672 303.30859 63.062986 303.99609 66 C 304.33985 67.468509 304.62625 69.011163 304.71875 70.314453 C 304.81125 71.617743 304.66075 72.675304 304.36328 73.099609 C 303.5347 74.281301 302.94637 74.547043 302.31445 74.560547 C 301.68253 74.574047 300.90069 74.240276 299.9082 73.943359 C 299.49244 73.818978 299.29464 73.686951 299.11133 73.496094 C 298.92801 73.305237 298.75713 73.024634 298.50977 72.632812 C 298.01504 71.849173 297.21725 70.699461 295.23242 69.189453 C 293.18628 67.632802 289.67612 66.196523 286.16016 64.359375 C 282.64417 62.522227 279.15458 60.303508 277.21484 57.396484 C 275.2228 54.411024 273.71683 50.928704 273.10547 47.607422 C 272.49411 44.28614 272.7789 41.147498 274.28516 38.775391 C 275.81211 36.370651 277.96006 35.056147 280.30273 34.453125 C 282.64544 33.850103 285.18151 33.978438 287.38867 34.503906 C 289.4453 34.993537 291.57593 37.023473 293.13672 38.966797 C 294.6975 40.91012 296.13867 42.478516 296.13867 42.478516 C 296.13867 42.478516 295.53567 40.356504 293.91602 38.339844 C 292.29633 36.323184 290.11016 34.123831 287.62109 33.53125 C 286.45184 33.252878 285.19583 33.078284 283.91406 33.054688 z M 305.74023 71.775391 C 305.97088 72.046819 306.24465 72.348831 306.61719 72.699219 C 307.24458 73.289309 307.9379 73.859981 308.64648 74.242188 C 309.35509 74.624393 310.13148 74.849843 310.8457 74.535156 C 311.11768 74.415321 311.35043 74.263885 311.55469 74.089844 C 311.63381 74.33614 311.7374 74.627915 311.86719 74.919922 C 312.18524 75.635459 312.19384 76.608177 312.2168 77 C 312.2418 77.425895 312.08138 78.123094 311.89844 78.679688 C 311.81528 78.932697 311.73165 79.150379 311.66406 79.320312 C 310.74668 78.926535 309.73562 78.673539 308.80273 78.652344 C 308.46678 78.644711 308.14135 78.666383 307.83398 78.722656 C 306.29474 79.004471 305.07309 79.861413 304.56836 81.097656 C 304.44772 81.393144 304.4066 81.702145 304.41211 82.011719 C 304.26673 81.811651 304.10205 81.603146 303.91602 81.40625 C 303.25491 80.706557 302.55959 79.799075 302.40234 79.285156 C 302.23973 78.753711 302.04375 77.691451 302.18945 76.851562 C 302.278 76.34092 302.30399 75.859732 302.31055 75.558594 C 302.3191 75.558478 302.32737 75.558777 302.33594 75.558594 C 303.29121 75.538184 304.25213 74.999459 305.18164 73.673828 C 305.53654 73.167692 305.69357 72.519401 305.74023 71.775391 z M 302.51367 85.050781 C 301.70112 85.041856 300.91225 85.085882 300.20117 85.201172 C 299.25306 85.354893 298.43254 85.616886 297.86914 86.146484 C 296.91178 87.046421 296.72502 87.992175 296.9043 88.732422 C 297.08358 89.472669 297.47163 90.026424 297.54688 90.40625 C 297.6796 91.076214 298.04076 91.515876 298.29883 91.867188 C 298.5569 92.218498 298.72467 92.467355 298.74805 92.925781 C 298.76435 93.246041 298.41732 93.854614 298.00586 94.542969 C 297.59439 95.231321 297.12768 96.064717 297.38281 97.001953 C 297.62601 97.895329 298.33505 98.538955 299.06445 99.052734 C 299.79385 99.566517 300.58174 99.959197 301.06836 100.24023 C 302.20556 100.89704 303.73633 100.66992 303.73633 100.66992 C 303.73633 100.66992 302.48044 99.899826 301.56836 99.373047 C 301.03034 99.062308 300.28424 98.689109 299.63867 98.234375 C 298.9931 97.779641 298.48696 97.251965 298.34766 96.740234 C 298.22029 96.272367 298.47537 95.708855 298.86523 95.056641 C 299.25479 94.40494 299.7888 93.729448 299.74609 92.875 C 299.70949 92.157758 299.38088 91.65297 299.10352 91.275391 C 298.82615 90.897808 298.61232 90.631929 298.5293 90.212891 C 298.38878 89.503707 297.99266 88.975808 297.87695 88.498047 C 297.76124 88.020282 297.76904 87.611712 298.55273 86.875 C 298.85988 86.586274 299.51469 86.324768 300.36133 86.1875 C 301.20796 86.050232 302.23502 86.019682 303.2793 86.074219 C 305.36783 86.183293 307.56116 86.655717 308.52148 87.130859 C 310.50129 88.110393 311.33398 89.964844 311.33398 89.964844 C 311.33398 89.964844 311.38129 87.429929 308.96484 86.234375 C 307.72708 85.621977 305.52527 85.190713 303.33203 85.076172 C 303.05788 85.061854 302.78452 85.053756 302.51367 85.050781 z M 314.38672 85.943359 C 314.06133 85.941727 313.75833 85.951929 313.48828 85.970703 C 312.40809 86.045803 311.03125 87.375 311.03125 87.375 C 311.03125 87.375 312.49436 86.812856 313.39844 86.75 C 314.33136 86.68514 316.12301 86.986537 317.32812 87.216797 C 318.59026 87.457938 319.93323 87.73472 320.76562 88.304688 C 321.60452 88.879084 322.32129 89.990657 322.62695 90.615234 C 322.76407 90.89541 322.75273 90.953782 322.75391 91.111328 C 322.75491 91.268875 322.76291 91.583078 322.93359 91.917969 C 323.1485 92.339852 323.49218 92.484836 323.70117 92.636719 C 323.91016 92.788602 324.09555 92.949048 324.29297 93.466797 C 324.48226 93.963229 324.68638 95.055601 324.73633 96.109375 C 324.78623 97.163149 324.64483 98.222857 324.41797 98.599609 C 323.89058 99.475323 322.55859 100.02148 322.55859 100.02148 C 322.55859 100.02148 324.40149 100.56308 325.27344 99.115234 C 325.74621 98.330214 325.79042 97.203618 325.73633 96.0625 C 325.68223 94.921382 325.49338 93.809132 325.22656 93.109375 C 324.96787 92.430932 324.59166 92.048041 324.28906 91.828125 C 323.98646 91.608209 323.86967 91.55211 323.82422 91.462891 C 323.73442 91.286676 323.75531 91.295344 323.75391 91.103516 C 323.75291 90.911685 323.72181 90.577123 323.52539 90.175781 C 323.164 89.43733 322.42514 88.228307 321.33008 87.478516 C 320.22855 86.724291 318.77545 86.475076 317.51562 86.234375 C 316.52804 86.045682 315.3629 85.948258 314.38672 85.943359 z M 308.74414 115.47656 C 308.74414 115.47656 307.81775 115.70357 307.42773 116.11523 C 307.03772 116.5269 306.58572 117.0446 306.3125 117.58203 C 306.02738 118.14288 305.9598 118.76694 305.88086 119.34961 C 305.80196 119.93228 305.71205 120.47262 305.53516 120.81836 C 305.32185 121.23527 305.01614 121.68464 304.70703 122.04688 C 304.39793 122.40908 304.06226 122.68288 303.91602 122.75 C 303.72323 122.8385 303.63359 122.8222 303.58984 122.8125 C 303.54614 122.8025 302.85156 122.91016 302.85156 122.91016 L 302.93555 123.58398 C 302.93555 123.58398 303.12756 123.73427 303.375 123.78906 C 303.62244 123.84386 303.96476 123.82766 304.33398 123.6582 C 304.74975 123.46739 305.10745 123.12067 305.46875 122.69727 C 305.83005 122.27386 306.17021 121.77296 306.42578 121.27344 C 306.71776 120.70275 306.79191 120.06877 306.87109 119.48438 C 306.95029 118.89995 307.03556 118.36482 307.20312 118.03516 C 307.38262 117.68208 307.79411 117.18292 308.1543 116.80273 C 308.51448 116.42255 308.74414 115.47656 308.74414 115.47656 z M 322.25586 116.16797 C 322.25586 116.16797 323.28091 117.94574 323.70703 118.80664 C 323.90774 119.21213 324.01005 119.8251 324.11328 120.48633 C 324.21651 121.14755 324.32291 121.85938 324.66602 122.49219 C 325.00556 123.11845 325.596 123.74697 326.11133 124.25586 C 326.62666 124.76475 327.19922 125.44336 327.19922 125.44336 L 327.71484 124.37695 C 327.71484 124.37695 327.30047 124.02486 326.81445 123.54492 C 326.32844 123.06498 325.7759 122.44164 325.54492 122.01562 C 325.31749 121.59618 325.20367 120.98607 325.10156 120.33203 C 324.99945 119.67799 324.91034 118.98317 324.60352 118.36328 C 324.01457 117.17342 322.25586 116.16797 322.25586 116.16797 z " /><path
       id="path43"
       style="color:#000000;fill:#000000;fill-opacity:0.2;-inkscape-stroke:none"
       d="M 321.36719 186.20312 C 321.36719 186.20312 320.63255 187.42898 320.00781 188.97852 C 319.38307 190.52804 318.45631 192.2886 317.45312 193.0957 C 315.34342 194.79308 311.49037 195.52911 308.82031 195.32812 C 307.5522 195.23273 305.86208 194.52382 304.51953 193.82812 C 303.17698 193.13244 301.83008 192.42969 301.83008 192.42969 C 301.83008 192.42969 302.7659 193.82163 304.15039 194.53906 C 305.53488 195.25649 307.26276 196.01217 308.76172 196.125 C 311.6258 196.34059 315.57386 195.63455 317.95508 193.71875 C 319.19736 192.71927 320.10461 190.87811 320.75 189.27734 C 320.77614 189.21251 320.80024 189.14832 320.82422 189.08398 C 320.88019 189.46665 320.98481 189.96807 321.18359 190.45312 C 321.58369 191.42951 322.16755 192.94484 322.90234 193.61523 C 324.29031 194.88157 326.43301 195.66416 327.93555 195.75977 C 329.50624 195.85967 330.89062 194.62891 330.89062 194.62891 C 330.89062 194.62891 329.20811 195.03864 327.98633 194.96094 C 326.69639 194.87884 324.58686 194.07046 323.44141 193.02539 C 322.90949 192.54008 322.0911 191.20983 321.70898 190.27734 C 321.41286 189.55469 321.21172 188.49736 321.13477 188.04883 C 321.38042 186.99652 321.36719 186.20312 321.36719 186.20312 z " /><path
       style="color:#000000;fill:#000000;fill-opacity:0.2;-inkscape-stroke:none"
       d="m 262.33398,76.304687 c -1.65903,-0.210991 -3.67275,0.02814 -5.0332,0.652344 -1.28566,0.589883 -2.09119,1.311315 -2.67578,2.419922 -0.0519,0.09836 -0.0309,0.243692 -0.0723,0.351563 -0.55933,-0.95325 -1.35325,-1.913986 -2.9375,-2.199219 -0.88419,-0.159194 -1.99123,-0.01378 -3.07812,0.3125 -1.08689,0.326283 -2.14225,0.834198 -2.85547,1.533203 -0.76355,0.748333 -1.11342,1.913494 -1.33398,2.900391 -0.22057,0.986896 0.0461,2.542264 0.0461,2.542264 0,0 0.72752,-1.417519 0.93049,-2.32547 0.20292,-0.90795 0.58374,-1.940821 1.05664,-2.404296 0.52323,-0.512804 1.46729,-0.994097 2.44336,-1.28711 0.97606,-0.293013 1.99677,-0.398107 2.61328,-0.287109 1.34555,0.242257 1.82151,0.91183 2.33984,1.830078 0.17737,0.314208 0.29735,1.075869 0.32032,1.71875 0.0223,0.623567 -0.0153,1.104307 -0.0176,1.134766 -7e-5,9.43e-4 0,0.03516 0,0.03516 3e-5,0.0016 -0.002,0.05078 -0.002,0.05078 l 1,0.02734 c 0,0 -1.2e-4,-0.04718 0,-0.04883 0,0 0.002,-0.05095 0.002,-0.05273 -8.3e-4,-0.04559 -0.0115,-0.614058 0.0391,-1.347656 0.0526,-0.762311 0.20457,-1.666719 0.39063,-2.019531 0.50078,-0.949679 1.04283,-1.442406 2.20703,-1.976563 1.0894,-0.49984 3.03979,-0.752823 4.49023,-0.568359 1.50239,0.19107 3.17873,0.687076 3.96875,1.550781 0.83671,0.914747 0.98746,1.954009 0.9668,3.31836 -0.008,0.539375 -0.3491,1.647485 -0.70508,2.550781 -0.35598,0.903295 -0.70898,1.634765 -0.70898,1.634765 l 0.85937,0.503907 c 0,0 0.60816,-0.870929 1.41797,-1.8125 0.8098,-0.941571 1.87821,-1.936007 2.49219,-2.154297 1.54978,-0.550997 2.9444,-0.393553 4.33593,0.445312 1.25289,0.755279 2.18478,2.969908 2.98633,4.558594 0.80638,1.598264 1.58513,2.521598 1.53321,4.154297 -0.0214,0.672847 -0.46225,2.298966 -1.09881,3.440454 -0.63656,1.141489 -1.0262,2.130837 -1.0262,2.130836 0,0 1.06681,-0.671799 1.72852,-1.858399 0.66172,-1.186601 1.36068,-2.55379 1.39649,-3.679688 0.0625,-1.964789 -0.88597,-3.140977 -1.64063,-4.636719 -0.75949,-1.505319 -1.61584,-3.91143 -3.36328,-4.964843 -1.60878,-0.969827 -3.38992,-1.170348 -5.1875,-0.53125 -0.8965,0.318733 -1.73369,1.153435 -2.49024,1.996093 0.19749,-0.607916 0.46273,-1.233583 0.47071,-1.761718 0.022,-1.454543 -0.16935,-2.84986 -1.22852,-4.007813 -1.10585,-1.208995 -2.97299,-1.664755 -4.58008,-1.869141 z"
       id="path52"
       sodipodi:nodetypes="ssscsssscssssssscccccssssscsccsssssscssssscssss" /><path
       id="path56"
       style="color:#000000;fill:#000000;fill-opacity:0.2;-inkscape-stroke:none"
       d="M 326.06836 145.55273 C 325.89608 145.55069 325.72354 145.55692 325.55273 145.57031 C 324.86953 145.62391 324.21513 145.78739 323.73047 145.95703 C 322.7377 146.30452 321.90416 147.08445 321.52148 148.25977 C 321.44428 148.49685 321.39162 148.73016 321.35742 148.96875 C 321.27793 148.78772 321.18915 148.62724 321.08789 148.50586 C 320.5175 147.82216 319.76714 147.03831 318.87305 146.66797 C 318.037 146.32167 316.94476 146.15325 315.86523 146.14453 C 314.78573 146.13553 313.73196 146.27784 312.95312 146.68945 C 312.65718 146.84587 312.43426 146.93011 312.21875 147.02344 C 312.00324 147.11674 311.76996 147.23031 311.57617 147.44531 C 311.1886 147.87532 311.07672 148.45637 310.86133 149.73438 C 310.61446 151.19918 311.04227 153.55177 311.69727 155.91992 C 312.35225 158.28807 313.23347 160.59085 314.125 161.83008 C 315.80305 164.16258 317.21281 164.17313 318.03125 164.45312 C 319.13118 164.82945 320.16211 164.23242 320.16211 164.23242 C 320.16211 164.23242 319.18447 163.79145 318.35547 163.50781 C 317.24497 163.12787 316.47847 163.39077 314.93555 161.24609 C 314.21658 160.24673 313.29644 157.95474 312.66016 155.6543 C 312.02388 153.35383 311.66811 150.96573 311.84766 149.90039 C 312.05869 148.64825 312.21896 148.22551 312.31836 148.11523 C 312.36806 148.06013 312.43315 148.02023 312.61523 147.94141 C 312.79732 147.86261 313.07153 147.75639 313.41992 147.57227 C 313.92978 147.3028 314.88291 147.13667 315.85742 147.14453 C 316.83194 147.15253 317.84213 147.32334 318.49023 147.5918 C 319.08031 147.83621 319.79459 148.51869 320.31836 149.14648 C 320.60233 149.48687 321.00357 149.99241 321.33984 150.41992 C 321.38672 151.04318 321.48086 151.76704 321.58594 152.70117 C 321.71463 153.84545 322.11533 156.01412 322.48438 157.93359 C 322.66889 158.89334 322.95155 159.72657 323.08203 160.38477 C 323.14963 160.72114 323.67187 161.69727 323.67188 161.69727 C 323.67188 161.69727 323.57545 160.47012 323.3125 157.77734 C 323.1232 155.83858 322.69845 153.64232 322.58008 152.58984 C 322.33191 150.38319 322.17863 149.47325 322.47266 148.57031 C 322.76788 147.66361 323.32851 147.1573 324.0625 146.90039 C 324.81993 146.63527 326.46449 146.45164 327.14648 146.75586 C 327.43877 146.88623 327.9067 147.09115 328.1543 147.43945 C 328.4369 147.837 329.08398 148.86719 329.08398 148.86719 C 329.08398 148.86719 329.06192 147.68863 328.82031 147.20508 C 328.57868 146.72153 328.20627 146.13526 327.55273 145.84375 C 327.09913 145.64142 326.58519 145.55888 326.06836 145.55273 z M 331.14844 158.68359 C 331.14844 158.68359 330.97008 159.43912 330.69141 160.29102 C 330.41273 161.1429 329.97928 162.1067 329.70508 162.37305 C 329.38289 162.686 328.85019 163.07292 328.33984 163.20117 C 327.82949 163.32941 327.27148 163.64063 327.27148 163.64062 C 327.27148 163.64062 327.89741 163.97117 328.47461 163.82617 C 329.05181 163.68113 329.75383 163.4406 330.26172 162.94727 C 330.81759 162.40732 331.16032 161.42819 331.45117 160.53906 C 331.74203 159.64993 331.92578 158.86719 331.92578 158.86719 L 331.14844 158.68359 z M 324.5625 161.81445 C 324.35077 161.81244 324.14001 161.82423 323.92773 161.83008 C 322.97474 161.85618 321.81261 162.18824 320.97461 163.02734 C 320.14749 163.85558 319.86297 164.89726 319.56641 166.40234 C 319.39854 167.25431 319.52915 168.34062 319.62305 169.40039 C 319.71695 170.46017 319.76248 171.49268 319.57812 172.03906 C 319.17157 173.24384 317.91992 174.19336 317.91992 174.19336 L 318.37109 174.8125 C 318.37109 174.8125 319.78832 173.80754 320.30273 172.2832 C 320.57884 171.46502 320.47952 170.401 320.38477 169.33203 C 320.29007 168.26307 320.19032 167.19091 320.31641 166.55078 C 320.60785 165.07168 320.85276 164.23407 321.51758 163.56836 C 322.17154 162.91353 323.16433 162.61527 323.94922 162.59375 C 324.39363 162.58155 324.75017 162.56331 325.0332 162.62891 C 325.31624 162.69441 325.55027 162.82092 325.83789 163.19727 C 326.06221 163.49079 326.1558 164.11358 326.14844 164.85156 C 326.14144 165.58954 326.05714 166.42064 326.08594 167.16016 C 326.14094 168.57152 326.28217 170.13495 326.08984 171.26172 C 325.90172 172.36329 325.06055 174.17187 325.06055 174.17188 L 325.75195 174.5 C 325.75195 174.5 326.61994 172.71259 326.8457 171.39062 C 327.06716 170.09389 326.90321 168.50889 326.84961 167.13086 C 326.82411 166.47568 326.90616 165.64746 326.91406 164.85938 C 326.92206 164.0713 326.88016 163.30145 326.44531 162.73242 C 326.07374 162.24622 325.6414 161.98385 325.20508 161.88281 C 324.98692 161.8323 324.77423 161.81646 324.5625 161.81445 z " /><path
       id="path58"
       style="color:#000000;fill:#000000;fill-opacity:0.2;-inkscape-stroke:none"
       d="M 346.76172 161.86133 L 346.01562 162.14258 C 346.01562 162.14258 346.03456 162.19116 346.03516 162.19336 L 346.0332 162.19336 C 346.0332 162.19336 346.17192 162.49597 346.29883 162.89258 C 346.42574 163.28918 346.52441 163.7844 346.49023 164.05273 C 346.40573 164.7165 345.86546 165.79364 345.43555 166.09375 C 345.15363 166.29055 344.96196 166.38268 344.76562 166.41211 C 344.56931 166.44151 344.33536 166.41311 343.96289 166.28711 C 343.86789 166.25491 343.6356 166.10448 343.39844 165.89062 C 343.16127 165.67679 342.90477 165.4061 342.67188 165.14062 C 342.20949 164.6136 341.84717 164.12446 341.8418 164.11719 C 341.84176 164.11713 341.83594 164.10938 341.83594 164.10938 C 341.83593 164.10937 341.83398 164.10547 341.83398 164.10547 L 341.19141 164.58398 L 341.19531 164.58789 C 341.19533 164.58792 341.20117 164.5957 341.20117 164.5957 C 341.20617 164.6027 341.46992 164.95328 341.7832 165.41406 C 342.09953 165.87932 342.45962 166.45945 342.60938 166.82031 C 342.96269 167.67163 343.26469 168.35257 343.19141 169.32227 C 343.12001 170.26771 342.5138 171.77444 341.92969 172.52734 C 341.33624 173.29227 340.52637 173.75741 339.91211 173.98242 C 339.38928 174.17394 338.51563 174.08398 338.51562 174.08398 L 338.51562 174.08594 C 338.51363 174.08588 338.46875 174.08203 338.46875 174.08203 L 338.4082 174.87695 C 338.4082 174.87695 338.45378 174.87305 338.45508 174.87305 L 338.45508 174.88086 C 338.45508 174.88086 338.7781 174.88689 339.17188 174.93359 C 339.56565 174.97999 340.03513 175.08878 340.21484 175.19336 C 340.71963 175.48706 341.19917 176.02135 341.37891 176.56055 C 341.55206 177.08 341.42611 177.71252 341.24805 178.41211 C 341.06754 179.1211 340.90831 179.75848 340.37305 180.30664 C 340.16841 180.51621 339.50439 180.87698 338.92578 181.12695 C 338.34718 181.37692 337.84375 181.55078 337.84375 181.55078 L 338.04102 182.32422 C 338.04102 182.32422 338.44056 182.25322 338.91602 182.21875 C 339.39147 182.18425 339.96304 182.21969 340.13281 182.29492 C 340.67861 182.53502 340.88822 182.90368 341.28906 183.5957 C 341.4392 183.85491 341.66762 184.53114 341.82812 185.10547 C 341.98865 185.67979 342.10156 186.16992 342.10156 186.16992 L 342.88086 185.99219 C 342.88086 185.99219 342.76605 185.4861 342.59961 184.89062 C 342.43317 184.29517 342.2338 183.62735 341.98242 183.19336 C 341.58022 182.49899 341.22358 181.90056 340.45508 181.5625 C 340.26921 181.4807 340.05165 181.53257 339.8457 181.50977 C 340.24474 181.31269 340.67881 181.13815 340.94531 180.86523 C 341.64368 180.15006 341.84427 179.31309 342.02344 178.60938 C 342.10694 178.28128 342.19234 177.9362 342.23633 177.58203 C 342.38323 177.60853 342.56745 177.63917 342.77734 177.66797 C 343.24679 177.73247 343.71604 177.727 344.17969 177.6582 C 344.64904 177.5886 345.23988 177.43958 345.66211 177.1582 C 346.09141 176.87211 346.38867 176.37695 346.38867 176.37695 C 346.38867 176.37695 345.81202 176.60889 345.29883 176.76562 C 344.83254 176.90803 344.35221 176.96562 344.04102 176.97461 C 343.75352 176.98261 343.32564 176.9356 342.88672 176.875 C 342.58086 176.833 342.3689 176.7928 342.23828 176.76758 C 342.21818 176.61531 342.18967 176.46167 342.13867 176.30859 C 341.88005 175.53273 341.28414 174.89 340.61719 174.50195 C 340.59309 174.48795 340.56191 174.49297 340.53711 174.48047 C 341.20391 174.18291 341.95665 173.7985 342.5625 173.01758 C 343.28285 172.08908 343.89831 170.57386 343.98828 169.38281 C 344.06338 168.38976 343.78951 167.63091 343.49414 166.9043 C 343.56654 166.9425 343.62747 167.01865 343.70508 167.04492 C 344.14223 167.19292 344.5185 167.25773 344.88281 167.20312 C 345.24713 167.14853 345.56566 166.97958 345.89453 166.75 C 346.65391 166.21989 347.10856 165.15726 347.24805 164.26953 C 347.40867 164.45135 347.46708 164.72063 347.68945 164.82812 C 348.31241 165.12931 349.05241 164.9807 349.67969 164.83008 C 350.30696 164.67937 350.82031 164.47461 350.82031 164.47461 L 350.52344 163.73047 C 350.52344 163.73047 350.05794 163.91533 349.49414 164.05078 C 348.93034 164.18624 348.26642 164.22022 348.03711 164.10938 C 347.80889 163.99905 347.41994 163.45343 347.17383 162.92383 C 346.92772 162.39422 346.78125 161.91211 346.78125 161.91211 C 346.78025 161.90911 346.76172 161.86133 346.76172 161.86133 z M 348.96289 165.08008 C 348.96289 165.08008 348.96792 165.53358 348.91992 165.86523 C 348.87182 166.19688 348.70582 166.5755 348.66602 166.6582 C 348.56872 166.86058 348.38538 167.04161 348.19336 167.17188 C 348.01706 167.29146 347.97139 167.36116 347.76367 167.36523 C 347.60779 167.36556 347.36349 167.32493 347.16602 167.16602 C 346.96854 167.00717 346.39258 166.59961 346.39258 166.59961 C 346.39258 166.59961 347.00164 167.92368 346.97461 168.60352 C 346.93891 169.50118 346.18983 171.38635 345.27148 172.23438 C 344.86083 172.61358 344.39234 172.92502 343.56836 173.24023 C 342.76688 173.54684 342.12305 173.53516 342.12305 173.53516 C 342.12305 173.53516 342.80989 173.95218 343.67969 173.69922 C 344.40545 173.48811 344.7951 173.42352 345.47266 173.0918 C 345.55486 173.1133 345.65973 173.14671 345.76953 173.20312 C 346.01355 173.3284 346.27017 173.42688 346.42383 173.55078 C 346.62216 173.71069 347.17383 174.18555 347.17383 174.18555 C 347.17383 174.18555 347.15333 173.66375 346.78125 173.19141 C 346.60826 172.97185 346.3399 172.79064 346.07812 172.65625 C 346.05563 172.64465 346.03557 172.636 346.01367 172.625 C 347.03992 171.5458 347.54577 169.95046 347.61328 169.42383 C 347.68498 168.86418 347.67873 168.30248 347.64453 168.11328 C 348.16357 168.16958 348.37743 167.96007 348.72266 167.77148 C 348.98473 167.53989 349.22894 167.27 349.32227 166.96289 C 349.44327 166.56472 349.37272 166.12917 349.26562 165.7168 C 349.16713 165.33731 348.96289 165.08008 348.96289 165.08008 z " /><path
       id="path62"
       style="fill:#000000;fill-opacity:0.2;stroke:none;stroke-width:1px;stroke-linecap:butt;stroke-linejoin:miter;stroke-opacity:1"
       d="m 303.9072,167.03297 c 0,0 -1.24694,1.21396 -1.221,2.6862 0.026,1.47224 2.56411,4.0293 2.56411,4.0293 l 3.4188,2.68621 c 0,0 2.67432,1.92008 3.5409,2.5641 0.86658,0.64402 1.43029,1.20432 2.442,1.4652 1.01171,0.26088 3.41881,-0.1221 3.41881,-0.1221 l 2.0757,0.8547 1.5873,3.5409 1.3431,-2.442 2.80831,-1.8315 c 0,0 3.32108,0.37506 4.6398,-0.1221 1.31872,-0.49716 1.80042,-1.36697 2.8083,-2.9304 1.00788,-1.56343 2.07571,-6.59341 2.07571,-6.59341 l -0.4884,-2.9304 c 0,0 -2.35612,1.81377 -5.00611,2.5641 -2.64999,0.75033 -7.60176,0.84134 -10.86691,0.8547 -3.26515,0.0134 -8.66911,-0.6105 -8.66911,-0.6105 z m -8.1807,-44.44445 2.60361,-3.32683 c 2.04978,1.95912 4.78982,4.11779 6.58088,5.72698 3.42349,10.00531 4.55418,20.29805 4.12442,32.15418 -2.442,-4.6398 -4.15141,-5.4945 -8.66911,-6.2271 l -1.3431,-16.36142 z" /><path
       style="fill:#5f2153;fill-opacity:0.5;stroke:none;stroke-width:1px;stroke-linecap:butt;stroke-linejoin:miter;stroke-opacity:1"
       d="m 213.51344,117.07409 -0.25901,-1.64042 h -2.76281 l -2.41746,-0.25901 -2.07211,-3.1945 -1.29507,-3.45351 c 0,0 -2.15766,2.55086 -2.67647,4.40322 -0.51881,1.85236 -0.45903,4.4445 0,6.389 0.45903,1.9445 1.72371,3.95554 2.5038,5.0076 0.78009,1.05206 1.64041,1.55408 1.64041,1.55408 l 2.5038,-1.29507 1.72676,-1.64042 0.77704,-2.93548 z"
       id="path68"
       sodipodi:nodetypes="cccccczzzccccc" /><path
       id="path45"
       style="color:#000000;fill:#000000;-inkscape-stroke:none"
       d="M 206.84375 103.98242 C 206.00964 103.98388 205.09075 104.11742 204.24414 104.18555 C 202.88955 104.29456 201.76563 104.55859 201.76562 104.55859 L 201.76562 104.56055 C 201.31997 104.65497 200.88716 104.84975 200.5293 105.23633 C 200.01445 105.7925 199.15328 106.78972 198.66797 107.61914 C 197.69733 109.27798 196.85147 111.29082 196.5332 112.91992 C 195.89766 116.17301 196.87344 120.14379 198.04102 122.55859 C 198.6055 123.72606 199.24592 125.12659 199.89648 125.95703 C 200.54707 126.78747 201.75344 127.49709 202.7207 127.66797 C 203.75964 127.85151 205.10409 127.46969 206.5293 126.9043 C 207.95452 126.3389 209.39698 125.16709 210.10352 124.29688 C 211.35327 122.75754 211.46998 121.30687 211.75195 120.22266 C 211.85303 119.834 212.2479 119.39675 212.71094 118.96289 C 213.17398 118.52904 213.58723 118.02906 213.9082 117.47266 C 214.22917 116.91626 214.19296 116.26496 214.08984 115.86133 C 214.02194 115.59556 213.15749 114.83193 212.42773 114.88672 C 211.69799 114.94152 211.33293 115.01175 210.92383 115.07812 C 210.10564 115.21088 209.55741 115.2632 208.52148 114.58398 C 208.09287 114.30296 207.52997 113.53787 207.00391 112.55078 C 206.47785 111.56369 205.96075 110.36307 205.4668 109.20312 C 204.97284 108.04318 204.50422 106.92522 204.04492 106.07227 C 203.88054 105.76698 203.71751 105.4985 203.54688 105.26562 C 203.7925 105.23412 204.05154 105.20358 204.32422 105.18164 C 205.63181 105.07641 207.17089 104.86632 207.89844 105.11328 C 209.51799 105.66291 210.29663 107.00083 211.44922 108.48633 C 212.53792 109.88949 213.40454 111.65062 213.98047 113.30469 C 214.53838 114.90704 215.10938 117.70508 215.10938 117.70508 C 215.10938 117.70508 215.36808 114.86034 214.72852 113.02344 C 214.10694 111.23826 213.4034 109.37666 212.23828 107.875 C 211.13705 106.45568 210.21028 104.84186 208.21875 104.16602 C 207.8145 104.02883 207.34422 103.98155 206.84375 103.98242 z M 202.17969 105.98242 C 202.74934 105.98708 202.98009 106.20521 203.16406 106.54688 C 203.2901 106.78093 203.42269 107.05071 203.55664 107.33594 C 203.35746 107.59981 201.65529 109.89561 200.88477 112.47656 C 200.07661 115.18354 200.05854 117.84358 200.88477 120.61328 C 201.60984 123.04392 203.48049 125.50195 204.01953 126.18164 C 203.541 126.26518 203.13837 126.29503 202.89453 126.25195 C 202.24529 126.13725 201.68014 125.71522 201.11523 124.99414 C 200.55033 124.27306 200.01374 123.2704 199.45898 122.12305 C 198.38813 119.90823 197.46445 116.01255 198.03125 113.11133 C 198.31415 111.66327 199.13008 109.69516 200.04883 108.125 C 200.67534 107.00044 201.14567 106.0608 201.91406 105.99414 C 202.01011 105.9858 202.09831 105.98176 202.17969 105.98242 z M 203.89062 108.07227 C 204.10332 108.55391 204.32095 109.06516 204.54688 109.5957 C 204.74503 110.06102 204.95062 110.53494 205.1582 111.00391 C 205.00375 111.35052 204.86913 111.87488 204.73828 112.41406 C 204.60312 112.97102 204.48318 113.52624 204.42188 113.77539 C 203.86107 116.05469 203.90614 118.39275 204.54492 120.78711 C 204.94293 122.27899 206.05793 124.04703 206.89453 125.26172 C 206.68115 125.3604 206.46536 125.45598 206.24609 125.54297 C 205.75613 125.73734 205.25214 125.89863 204.78125 126.01953 C 204.75776 125.99058 202.32555 122.98967 201.55664 120.41211 C 200.76597 117.7616 200.78328 115.26622 201.55664 112.67578 C 202.13482 110.73911 203.33686 108.87122 203.89062 108.07227 z M 205.58789 111.94531 C 205.76289 112.31616 205.9392 112.68018 206.12109 113.02148 C 206.66678 114.04541 207.21979 114.90522 207.93164 115.39062 C 207.89159 115.56796 207.77313 116.10268 207.65625 116.86523 C 207.51795 117.76756 207.39819 118.84335 207.5293 119.65234 C 207.66102 120.46512 208.13153 121.48742 208.56641 122.3418 C 208.91336 123.02345 209.18578 123.48839 209.30469 123.68945 C 208.95865 124.10057 208.18634 124.62098 207.28125 125.07617 L 207.50781 124.91992 C 206.68529 123.72984 205.57522 121.92701 205.22266 120.60547 C 204.61084 118.31221 204.56926 116.10481 205.10156 113.94141 C 205.16966 113.66448 205.28568 113.12518 205.41797 112.58008 C 205.47146 112.35965 205.53116 112.14715 205.58789 111.94531 z M 208.57031 115.74805 C 209.33232 116.10358 210.01796 116.15977 210.63281 116.11133 C 210.59767 116.2545 210.55427 116.44227 210.51172 116.65234 C 210.42292 117.0908 210.33395 117.59105 210.38672 117.98828 C 210.43732 118.36896 210.61849 118.76152 210.7832 119.08008 C 210.85957 119.22777 210.93238 119.35138 210.99023 119.44922 C 210.90392 119.61048 210.83385 119.78349 210.78516 119.9707 C 210.51804 120.99778 210.4251 121.98189 209.75195 123.06445 C 209.60171 122.79882 209.40002 122.43524 209.19141 122.02539 C 208.76903 121.19557 208.32298 120.17214 208.2207 119.54102 C 208.11781 118.9061 208.2137 117.8461 208.34766 116.97266 C 208.43089 116.42962 208.51074 116.02955 208.57031 115.74805 z M 212.53711 115.84766 C 212.83488 115.87175 213.13169 116.14011 213.20898 116.33594 C 213.29728 116.55974 213.14632 116.78866 212.94727 117.19336 C 212.86707 117.3563 212.50807 117.78199 212.02734 118.23242 C 211.81113 118.43501 211.58002 118.65445 211.37109 118.90234 C 211.35119 118.86557 211.33703 118.84262 211.31641 118.80273 C 211.16567 118.5112 211.01121 118.14162 210.98047 117.91016 C 210.95197 117.69525 211.01547 117.18732 211.09961 116.77148 C 211.18051 116.37194 211.26655 116.0566 211.27344 116.03125 C 211.71572 115.95992 212.08085 115.91191 212.41016 115.85352 C 212.4521 115.84608 212.49457 115.84421 212.53711 115.84766 z " /><path
       style="fill:#000000;fill-opacity:0.2;stroke:none;stroke-width:1px;stroke-linecap:butt;stroke-linejoin:miter;stroke-opacity:1"
       d="m 190.84249,126.25153 c 0,0 2.99241,4.41433 4.51771,5.0061 1.5253,0.59177 2.9892,0.40154 4.0293,-0.1221 1.0401,-0.52364 1.8315,-2.3199 1.8315,-2.3199 l 0.2442,5.4945 -0.7326,5.49451 -1.5873,4.1514 -4.88401,-4.7619 c 0,0 -2.5641,-6.71551 -2.8083,-8.05861 -0.2442,-1.3431 -0.6105,-4.884 -0.6105,-4.884 z"
       id="path71"
       sodipodi:nodetypes="czzcccccsc" /><path
       id="path72"
       style="color:#000000;fill:#000000;fill-opacity:0.2;-inkscape-stroke:none"
       d="M 316.84961 124.17578 C 316.84961 124.17578 316.78509 125.24885 316.87109 126.39258 C 316.95709 127.53632 316.93201 128.13971 316.94531 128.75781 C 316.95861 129.37592 316.91461 129.9136 316.83594 130.1582 C 316.61938 130.8315 316.48353 131.12684 316.33008 131.30273 C 316.17663 131.47863 315.93984 131.60764 315.4375 131.88281 C 315.02605 132.1082 314.24869 132.31215 313.47266 132.40039 C 312.69663 132.48859 311.90054 132.46289 311.4668 132.33789 C 310.61069 132.09128 309.52344 131.25781 309.52344 131.25781 C 309.52344 131.25781 309.97123 132.74074 311.24414 133.10742 C 311.8749 133.28912 312.71707 133.29143 313.5625 133.19531 C 314.40793 133.09921 315.23508 132.90651 315.82031 132.58594 C 316.31465 132.31515 316.65075 132.15205 316.93164 131.83008 C 317.19829 131.52442 317.35936 131.13206 317.56641 130.49805 C 317.8654 130.84263 318.5235 131.49693 319.42188 131.76367 C 320.02974 131.94416 320.88215 132.01681 321.75 131.98438 C 322.61785 131.95198 323.48332 131.82235 324.11719 131.49023 C 325.24299 130.90037 325.74023 128.98633 325.74023 128.98633 C 325.74023 128.98633 324.45877 130.40785 323.74609 130.78125 C 323.31899 131.00503 322.51885 131.15571 321.7207 131.18555 C 320.92255 131.21535 320.10878 131.13225 319.65039 130.99609 C 318.88777 130.76966 317.98146 129.94416 317.72461 129.70117 C 317.74905 129.40927 317.75161 129.08739 317.74414 128.74023 C 317.73004 128.08525 317.66984 127.3565 317.5957 126.67188 C 317.44752 125.30261 316.94196 124.15255 316.84961 124.17578 z " /></g><g
     inkscape:label="Layer 1"
     inkscape:groupmode="layer"
     id="layer1"
     sodipodi:insensitive="true"
     style="display:inline"><image
       width="400"
       height="400"
       preserveAspectRatio="none"
       xlink:href="../../../../../../../Pictures/STA%20Miniature%20Maker/Saurian.png"
       id="image1"
       x="0"
       y="0"
       style="opacity:0.346639" /></g></svg>
