<?xml version="1.0" encoding="UTF-8" standalone="no"?>
<!-- Created with Inkscape (http://www.inkscape.org/) -->

<svg
   width="400"
   height="400"
   viewBox="0 0 400 400"
   version="1.1"
   id="svg5"
   xml:space="preserve"
   inkscape:version="1.2.2 (b0a8486, 2022-12-01)"
   sodipodi:docname="TellariteForehead.svg"
   xmlns:inkscape="http://www.inkscape.org/namespaces/inkscape"
   xmlns:sodipodi="http://sodipodi.sourceforge.net/DTD/sodipodi-0.dtd"
   xmlns:xlink="http://www.w3.org/1999/xlink"
   xmlns="http://www.w3.org/2000/svg"
   xmlns:svg="http://www.w3.org/2000/svg"><sodipodi:namedview
     id="namedview7"
     pagecolor="#ffffff"
     bordercolor="#666666"
     borderopacity="1.0"
     inkscape:showpageshadow="2"
     inkscape:pageopacity="0.0"
     inkscape:pagecheckerboard="0"
     inkscape:deskcolor="#d1d1d1"
     inkscape:document-units="px"
     showgrid="false"
     inkscape:zoom="6.7599408"
     inkscape:cx="273.9669"
     inkscape:cy="112.05719"
     inkscape:window-width="2119"
     inkscape:window-height="1189"
     inkscape:window-x="2137"
     inkscape:window-y="85"
     inkscape:window-maximized="0"
     inkscape:current-layer="layer1" /><defs
     id="defs2" /><g
     inkscape:label="Layer 1"
     inkscape:groupmode="layer"
     id="layer1"><image
       width="400"
       height="400"
       preserveAspectRatio="none"
       xlink:href="../../../../../../../Pictures/STA%20Miniature%20Maker/Tellarite.png"
       id="image774"
       x="1"
       y="1" /><path
       id="path10952"
       style="fill:#000000;fill-opacity:0.4;stroke:none;stroke-width:1px;stroke-linecap:butt;stroke-linejoin:miter;stroke-opacity:1"
       d="m 287.44727,79.080078 c 0,0 4.21211,5.596136 6.69531,9.623047 2.4832,4.026911 5.53199,10.020618 8.09715,13.904885 2.46916,3.7389 4.88818,7.06307 6.74609,9.62355 1.85791,2.56048 2.62911,4.03723 4.57668,6.00477 0.0859,0.0867 0.13973,0.15303 0.2207,0.23633 -1.57462,1.59667 -1.28319,0.53928 -1.94531,1.35156 -0.48929,0.60025 -0.42839,1.00983 -0.80859,1.95898 -0.25969,-0.17231 -0.5295,-0.36859 -0.82032,-0.6289 -1.65558,-1.48192 -2.64349,-3.16874 -5.62109,-6.95118 -2.9776,-3.78243 -9.38165,-11.84366 -12.86856,-16.273864 -3.4869,-4.430206 -5.88089,-7.919097 -7.98886,-10.355037 -2.10797,-2.435941 -3.69922,-3.994141 -3.69922,-3.994141 0,0 1.7378,2.506304 3.93164,5.605469 1.98392,2.802611 4.93348,6.978918 6.72063,9.336801 3.76339,4.965262 8.87638,11.314312 12.12898,15.383902 3.2526,4.06959 4.86311,6.51037 6.80469,8.13672 0.3603,0.3018 0.67376,0.50885 0.96484,0.68164 -0.10878,0.20087 -0.22642,0.40944 -0.37305,0.64844 -1.3774,2.24505 -7.39648,9.32031 -7.39648,9.32031 0,0 2.30981,-1.61147 3.84766,-3.25391 1.41184,-1.50786 3.59436,-4.61194 4.70703,-6.31836 0.80157,0.31199 1.31638,0.28437 1.80078,0.84375 0.26322,0.30397 0.40304,0.59985 0.49805,0.90039 -0.60606,1.05047 -1.54729,2.10709 -2.86524,3.53907 -1.38492,1.50475 -5.76852,6.80301 -5.76852,6.80301 0,0 4.37356,-4.19927 5.77012,-5.47149 1.39656,-1.27222 2.60906,-2.04219 3.25426,-3.10691 0.0181,-0.0298 0.0314,-0.0633 0.0488,-0.0937 0.031,0.0797 0.0588,0.1572 0.0976,0.24023 0.52577,1.12223 1.08694,2.10211 2.22071,3.84766 1.13377,1.74555 4.73242,6.50781 4.73242,6.50781 0,0 -2.02176,-3.55069 -2.95898,-5.17774 -0.93723,-1.62704 -1.95628,-3.17252 -2.66211,-4.58593 -0.3925,-0.78597 -0.56884,-1.54698 -0.80469,-2.25781 0.26083,-0.6961 0.52009,-1.38353 0.95312,-1.88282 0.36905,-0.42551 0.75368,-0.65725 1.17383,-0.8789 0.30994,0.47334 0.63779,0.9826 1.0332,1.59961 1.74142,2.71729 2.23657,4.19369 3.0293,5.9537 0.79273,1.76002 2.92969,5.24551 2.92969,5.24551 0,0 -1.53863,-3.95354 -2.0918,-5.98046 -0.55317,-2.02693 -1.65836,-3.85808 -2.43844,-5.41313 -0.28528,-0.56871 -0.47372,-1.55146 -1.03812,-2.25484 0.022,-0.0168 0.0423,-0.0295 0.0645,-0.0469 1.07805,-0.84688 1.61493,-1.71559 3.55129,-3.84613 1.93636,-2.13054 5.6311,-6.89007 7.54442,-9.31988 1.91331,-2.42982 2.60557,-3.03723 3.99414,-4.88282 1.38857,-1.84558 3.19917,-4.396273 4.28906,-6.212887 1.08989,-1.816614 1.94923,-3.293098 2.36719,-4.585937 0.418,-1.29284 0.44336,-2.957032 0.44336,-2.957032 0,0 -0.44078,1.192916 -1.03516,2.365235 -0.59438,1.172319 -0.80528,1.897521 -2.66211,4.585937 -1.85683,2.688417 -5.80412,7.684824 -8.43359,11.095704 -2.62948,3.41088 -5.45255,7.21264 -7.39649,9.32031 -1.63573,1.7735 -2.4795,3.19191 -3.45023,3.89446 -0.59016,-0.65882 -1.46402,-1.8525 -1.98531,-2.3593 1.18184,-1.43907 2.24978,-3.98587 4.10546,-6.86133 2.02883,-3.14376 5.34778,-7.59235 7.83985,-11.53906 2.49207,-3.946722 5.86639,-8.88379 7.10156,-12.130862 1.23518,-3.247072 1.33008,-6.65625 1.33008,-6.65625 0,0 -1.16828,4.233314 -2.36719,6.804688 -1.19891,2.571373 -3.04286,5.388583 -5.0293,8.43164 -1.98643,3.043057 -4.82473,6.907394 -7.24898,10.503324 -2.21135,3.28013 -4.77437,7.97506 -6.71195,10.45566 -1.1451,-1.24339 -2.90093,-3.6517 -4.82465,-6.06922 -2.25408,-2.83268 -3.88578,-4.88416 -6.17535,-8.41125 -2.60589,-4.014386 -4.89569,-9.232439 -6.69336,-12.132811 -1.79767,-2.900372 -2.11128,-3.457189 -3.76563,-5.439453 -1.65435,-1.982264 -5.68554,-6.423828 -5.68554,-6.423828 z m 27.23242,40.353512 c 0.50207,0.56797 0.93837,1.12785 1.35742,1.7168 -0.62232,0.33698 -0.97973,0.36631 -1.38867,0.89258 -0.37966,0.48857 -0.37555,1.06734 -0.54492,1.75 -0.0629,-0.0908 -0.12135,-0.18382 -0.19532,-0.27149 -0.56731,-0.67235 -1.21199,-0.85273 -2.00976,-1.23828 0.69445,-1.19119 0.42269,-1.27602 0.97461,-1.86718 0.50782,-0.54394 0.90617,-0.28538 1.80664,-0.98243 z"
       sodipodi:nodetypes="csssscscsssscsssscscscscscssccscsscscsscssccssssscssssccssscssscsssscccscscscc" /><path
       style="fill:#000000;fill-opacity:0.2;stroke:none;stroke-width:1px;stroke-linecap:butt;stroke-linejoin:miter;stroke-opacity:1"
       d="m 333.5828,108.58083 c 0,0 1.98732,-1.97945 3.25447,-3.40239 1.26715,-1.42294 3.11522,-3.64043 4.28998,-5.17756 1.17476,-1.537131 2.81067,-3.994122 2.81067,-3.994122 0,0 -1.30142,2.858083 -2.07102,4.142052 -0.7696,1.28397 -1.55406,2.38561 -2.51482,3.55032 -0.96076,1.16471 -2.25797,2.61346 -3.25446,3.4024 -0.99649,0.78894 -2.51482,1.4793 -2.51482,1.4793 z"
       id="path11686"
       sodipodi:nodetypes="czzczzzc" /><path
       style="fill:#000000;fill-opacity:0.2;stroke:none;stroke-width:1px;stroke-linecap:butt;stroke-linejoin:miter;stroke-opacity:1"
       d="m 286.39304,109.9122 c 0,0 -4.01366,-2.31822 -6.21307,-4.28997 -2.19941,-1.97175 -5.36672,-5.838968 -6.65687,-7.692379 -1.29015,-1.853411 -0.72208,-1.800345 -1.62723,-2.958605 -0.90515,-1.15826 -3.99412,-3.698258 -3.99412,-3.698258 0,0 4.06458,2.342212 5.17756,3.550327 1.11298,1.208115 0.59595,1.361961 1.77517,3.106536 1.17922,1.744575 3.66997,5.109539 5.62135,7.100659 1.95138,1.99112 5.91721,4.88169 5.91721,4.88169 z"
       id="path11688"
       sodipodi:nodetypes="czzzczzzc" /><path
       style="fill:#000000;fill-opacity:0.2;stroke:none;stroke-width:1px;stroke-linecap:butt;stroke-linejoin:miter;stroke-opacity:1"
       d="m 285.65339,111.53944 c -0.0254,-0.0965 1.53891,-1.58625 3.25446,-2.36689 1.71555,-0.78064 5.56413,-1.34193 7.10066,-1.62723 1.53653,-0.2853 1.46123,-0.032 2.07102,-0.29586 0.60979,-0.26382 0.84138,-0.70994 1.47931,-1.18344 0.63793,-0.4735 1.68601,-1.45642 2.36688,-1.62724 0.68087,-0.17082 0.73761,0.34183 1.33137,0.14793 0.59376,-0.1939 0.45121,-0.96641 1.77517,-1.62723 1.32396,-0.66082 4.25722,-1.16783 6.361,-1.18344 2.10378,-0.0156 4.30166,0.4324 6.06514,1.03551 1.76348,0.60311 3.15616,1.88172 4.43791,2.36689 1.28175,0.48517 2.24365,0.42595 3.10654,0.73965 0.86289,0.3137 1.57691,0.57794 2.07102,1.03551 0.49411,0.45757 0.36586,0.76903 0.88758,1.4793 0.52172,0.71027 1.62783,1.79905 2.36689,2.66275 0.73906,0.8637 2.07102,2.51481 2.07102,2.51481 0,0 -1.25616,-2.62085 -1.92309,-3.55032 -0.66693,-0.92947 -1.33094,-1.35438 -1.9231,-2.07103 -0.59216,-0.71665 -0.74024,-1.62311 -1.62723,-2.21895 -0.88699,-0.59584 -2.08569,-0.28836 -3.55033,-0.88759 -1.46464,-0.59923 -2.94645,-2.16362 -5.02963,-2.9586 -2.08318,-0.79498 -4.9923,-1.55531 -7.39651,-1.4793 -2.40421,0.076 -5.42666,1.01688 -6.65687,1.77516 -1.23021,0.75828 -0.71019,1.11885 -1.18344,1.33137 -0.47325,0.21252 -0.50104,-0.24179 -1.33137,0 -0.83033,0.24179 -2.67619,1.42984 -3.25447,2.07103 -0.57828,0.64119 0.25717,0.88395 -0.59172,1.18344 -0.84889,0.29949 -3.56088,0.44831 -5.32549,0.88758 -1.76461,0.43927 -2.50285,0.39377 -3.69826,1.03551 -1.19541,0.64174 -3.22906,2.90716 -3.25446,2.81068 z"
       id="path12416"
       sodipodi:nodetypes="szzzzzzzzzzzzzzczzzzzzzzzzzzzs" /><path
       style="fill:#000000;fill-opacity:0.2;stroke:none;stroke-width:1px;stroke-linecap:butt;stroke-linejoin:miter;stroke-opacity:1"
       d="m 267.52092,89.696653 c 0.1569,-0.209205 3.20501,-3.147944 4.34101,-4.263322 1.136,-1.115378 0.94101,-0.961124 2.50148,-2.09205 1.56047,-1.130926 5.19373,-3.283844 7.26988,-4.384332 2.07615,-1.100488 2.21729,-1.542152 4.97759,-2.310229 2.7603,-0.768077 7.92807,-1.215972 11.45397,-1.246256 3.5259,-0.03029 6.27615,-0.338971 9.67574,-0.348161 3.39959,-0.0092 7.54823,-0.06982 10.72175,0 3.17352,0.06982 6.46365,0.03958 8.3159,0.366109 1.85225,0.326529 1.3911,0.214683 2.82427,0.889122 1.43317,0.674439 4.10787,2.242537 5.49163,3.556485 1.38376,1.313948 2.09641,2.648049 2.87657,3.974895 0.78016,1.326846 1.83055,3.922594 1.83055,3.922594 0,0 -0.82966,-2.768602 -1.51674,-4.131799 -0.68708,-1.363197 -1.30765,-2.615101 -2.61506,-3.974895 -1.30741,-1.359794 -3.74178,-3.030019 -5.33473,-3.817992 -1.59295,-0.787973 -0.92981,-0.737268 -3.9226,-1.202929 -2.99279,-0.465661 -9.32666,-0.164947 -14.06903,-0.156903 -4.74237,0.008 -10.03908,-0.03622 -14.38285,0.209205 -4.34377,0.245425 -8.82285,0.348824 -11.66318,1.150627 -2.84033,0.801803 -3.32186,1.510421 -5.38703,2.615063 -2.06517,1.104642 -5.45026,2.942977 -6.95606,4.079498 -1.5058,1.136521 -1.25752,1.073333 -2.35356,2.248954 -1.09604,1.175621 -4.0795,4.916316 -4.0795,4.916316 z"
       id="path13144"
       sodipodi:nodetypes="czzzzzzzzzzzczzzzzzzzzzc" /><path
       style="fill:#000000;fill-opacity:0.2;stroke:none;stroke-width:1px;stroke-linecap:butt;stroke-linejoin:miter;stroke-opacity:1"
       d="m 277.51722,90.977128 c 0,0 3.27665,-3.171103 5.17756,-4.289979 1.90091,-1.118876 4.3504,-2.01117 6.06514,-2.366884 1.71474,-0.355714 2.70993,-0.175423 3.99412,-0.147931 1.28419,0.02749 2.25599,0.566388 3.69826,0.295861 1.44227,-0.270527 2.67315,-1.670058 4.58584,-2.218954 1.91269,-0.548896 4.03014,-0.715219 6.80479,-0.739652 2.77465,-0.02443 9.7634,0.887582 9.7634,0.887582 0,0 -7.44332,-0.160151 -10.20719,0 -2.76387,0.160151 -4.52095,0.204136 -6.361,0.739651 -1.84005,0.535515 -2.57073,1.80011 -4.58584,2.218955 -2.01511,0.418845 -4.98577,-0.674131 -7.24858,-0.295861 -2.26281,0.37827 -4.10747,1.378126 -6.06515,2.366885 -1.95768,0.988759 -5.62135,3.550327 -5.62135,3.550327 z"
       id="path13146"
       sodipodi:nodetypes="czzzzzzczzzzzc" /><path
       style="fill:#000000;fill-opacity:0.2;stroke:none;stroke-width:1px;stroke-linecap:butt;stroke-linejoin:miter;stroke-opacity:1"
       d="m 281.65927,99.409154 c 0,0 2.36486,-1.956049 3.84619,-2.810675 1.48133,-0.854626 3.52262,-1.608108 5.02963,-2.218955 1.50701,-0.610847 2.79904,-1.17631 3.99412,-1.479302 1.19508,-0.302992 2.0238,-0.08424 3.10653,-0.443791 1.08273,-0.359552 1.54163,-1.299393 3.25447,-1.775164 1.71284,-0.475771 5.11271,-0.718361 6.95272,-0.29586 1.84001,0.422501 2.48663,1.47526 3.84619,2.071024 1.35956,0.595764 5.17756,1.627233 5.17756,1.627233 0,0 -2.8607,-1.476423 -4.14205,-2.218955 -1.28135,-0.742532 -2.48207,-1.825502 -4.43791,-2.366884 -1.95584,-0.541382 -6.11987,-0.469944 -7.98823,0.14793 -1.86836,0.617874 -2.10148,1.896869 -3.10654,2.218955 -1.00506,0.322086 -1.19627,-0.236963 -2.51481,0 -1.31854,0.236963 -3.65031,1.246565 -5.17756,1.923093 -1.52725,0.676528 -2.66621,1.13919 -3.99412,2.071024 -1.32791,0.931834 -3.84619,3.550327 -3.84619,3.550327 z"
       id="path13148"
       sodipodi:nodetypes="czzzzzzzczzzzzzzc" /><path
       style="fill:#000000;fill-opacity:0.2;stroke:none;stroke-width:1px;stroke-linecap:butt;stroke-linejoin:miter;stroke-opacity:1"
       d="m 283.13857,92.01264 c 0,0 4.13976,-2.512081 6.36101,-3.254467 2.22125,-0.742386 4.68228,-0.893139 6.80479,-1.183442 2.12251,-0.290303 4.09211,-0.446848 5.91721,-0.591721 1.8251,-0.144873 3.18861,-0.423685 5.02963,-0.295861 1.84102,0.127824 4.31605,0.677687 5.91721,1.183443 1.60116,0.505756 3.69826,1.627233 3.69826,1.627233 0,0 -2.26924,-0.581521 -3.84619,-0.887582 -1.57695,-0.306061 -3.39374,-0.755822 -5.62135,-0.887582 -2.22761,-0.13176 -4.77813,0.04172 -7.69237,0.295861 -2.91424,0.254137 -6.99519,0.611965 -9.7634,1.331373 -2.76821,0.719408 -6.8048,2.662745 -6.8048,2.662745 z"
       id="path13150"
       sodipodi:nodetypes="czzzzzczzzzc" /><path
       style="fill:#000000;fill-opacity:0.2;stroke:none;stroke-width:1px;stroke-linecap:butt;stroke-linejoin:miter;stroke-opacity:1"
       d="m 314.35186,111.8353 c 0,0 2.85994,0.56369 4.14205,0.88758 1.28211,0.32389 2.75114,0.62712 3.55033,1.03551 0.79919,0.40839 0.36652,0.59754 1.33137,1.03551 0.96485,0.43797 3.32669,0.45993 4.58584,0.88759 1.25915,0.42766 2.95861,1.4793 2.95861,1.4793 0,0 -1.20409,-1.76849 -2.36689,-2.36689 -1.1628,-0.5984 -3.3818,-0.31127 -4.43791,-0.73965 -1.05611,-0.42838 -1.05714,-0.95035 -1.92309,-1.33137 -0.86595,-0.38102 -1.94431,-0.57121 -3.25447,-0.73965 -1.31016,-0.16844 -4.58584,-0.14793 -4.58584,-0.14793 z"
       id="path13152"
       sodipodi:nodetypes="czzzzczzzzc" /><path
       style="fill:#000000;fill-opacity:0.2;stroke:none;stroke-width:1px;stroke-linecap:butt;stroke-linejoin:miter;stroke-opacity:1"
       d="m 323.8194,93.935734 c 0,0 3.45174,0.849217 4.73377,1.479302 1.28203,0.630085 2.1205,1.318946 2.95861,2.071024 0.83811,0.752078 2.07102,2.366885 2.07102,2.366885 0,0 -0.92508,-2.186252 -1.77516,-3.106536 -0.85008,-0.920284 -1.89664,-1.705712 -3.25447,-2.218954 -1.35783,-0.513242 -4.73377,-0.591721 -4.73377,-0.591721 z"
       id="path13154"
       sodipodi:nodetypes="czzczzc" /></g></svg>
