<?xml version="1.0" encoding="UTF-8" standalone="no"?>
<!-- Created with Inkscape (http://www.inkscape.org/) -->

<svg
   width="400"
   height="400"
   viewBox="0 0 400 400"
   version="1.1"
   id="svg21800"
   xml:space="preserve"
   inkscape:version="1.2.2 (b0a8486, 2022-12-01)"
   sodipodi:docname="tempNeck.svg"
   xmlns:inkscape="http://www.inkscape.org/namespaces/inkscape"
   xmlns:sodipodi="http://sodipodi.sourceforge.net/DTD/sodipodi-0.dtd"
   xmlns:xlink="http://www.w3.org/1999/xlink"
   xmlns="http://www.w3.org/2000/svg"
   xmlns:svg="http://www.w3.org/2000/svg"><sodipodi:namedview
     id="namedview21802"
     pagecolor="#ffffff"
     bordercolor="#666666"
     borderopacity="1.0"
     inkscape:showpageshadow="2"
     inkscape:pageopacity="0.0"
     inkscape:pagecheckerboard="0"
     inkscape:deskcolor="#d1d1d1"
     inkscape:document-units="px"
     showgrid="false"
     inkscape:zoom="4.17193"
     inkscape:cx="244.61101"
     inkscape:cy="202.78384"
     inkscape:window-width="1440"
     inkscape:window-height="810"
     inkscape:window-x="2755"
     inkscape:window-y="219"
     inkscape:window-maximized="0"
     inkscape:current-layer="layer1" /><defs
     id="defs21797" /><g
     inkscape:label="Layer 1"
     inkscape:groupmode="layer"
     id="layer1"><image
       width="400"
       height="400"
       preserveAspectRatio="none"
       xlink:href="../Pictures/STA%20Miniature%20Maker/Aubrey%20Plaza%20Hair.png"
       id="image22322"
       x="0"
       y="0" /><g
       id="g24541"><path
         style="fill:#cd976d;fill-opacity:1;stroke:#000000;stroke-width:2.4;stroke-linecap:butt;stroke-linejoin:miter;stroke-dasharray:none;stroke-opacity:1"
         d="m 210.96378,158.60294 -14.75075,50.29287 c 0,0 4.28617,16.512 13.2785,25.68046 3.82172,3.89657 10.27262,9.28153 16.87848,12.9943 8.93744,5.0232 18.35759,7.98079 23.79948,9.37858 9.46412,2.43092 10.76521,0.2397 10.76521,0.2397 0,0 6.00002,-9.93191 10.05316,-16.66833 4.05315,-6.73643 15.95631,-23.53024 15.95631,-23.53024 0,0 -15.87945,-6.70815 -25.92722,-13.60045 -10.04777,-6.8923 -28.15804,-22.17782 -35.9322,-29.83051 -7.77416,-7.65269 -14.12097,-14.95638 -14.12097,-14.95638 z"
         id="path22326"
         sodipodi:nodetypes="ccsssczczzc" /><path
         id="path24534"
         style="fill:#000000;stroke:none;stroke-width:1px;stroke-linecap:butt;stroke-linejoin:miter;stroke-opacity:1;fill-opacity:0.2"
         d="M 210.96289 158.60352 L 196.21289 208.89648 C 196.21289 208.89648 200.49987 225.40772 209.49219 234.57617 C 211.18545 236.30259 213.41157 238.32349 215.92188 240.35938 L 275.79688 233.11133 C 280.77009 225.71263 286.94336 216.99023 286.94336 216.99023 C 286.94336 216.99023 271.06534 210.28292 261.01758 203.39062 C 250.96982 196.49833 232.85814 181.21128 225.08398 173.55859 C 217.30983 165.90591 210.96289 158.60352 210.96289 158.60352 z " /></g></g></svg>
