<?xml version="1.0" encoding="UTF-8" standalone="no"?>
<!-- Created with Inkscape (http://www.inkscape.org/) -->

<svg
   version="1.1"
   id="svg183802"
   width="400"
   height="400"
   viewBox="0 0 400 400"
   sodipodi:docname="Eyes2.svg"
   inkscape:version="1.2.2 (b0a8486, 2022-12-01)"
   xml:space="preserve"
   xmlns:inkscape="http://www.inkscape.org/namespaces/inkscape"
   xmlns:sodipodi="http://sodipodi.sourceforge.net/DTD/sodipodi-0.dtd"
   xmlns="http://www.w3.org/2000/svg"
   xmlns:svg="http://www.w3.org/2000/svg"><defs
     id="defs183806" /><sodipodi:namedview
     id="namedview183804"
     pagecolor="#ffffff"
     bordercolor="#666666"
     borderopacity="1.0"
     inkscape:showpageshadow="2"
     inkscape:pageopacity="0.0"
     inkscape:pagecheckerboard="0"
     inkscape:deskcolor="#d1d1d1"
     showgrid="false"
     inkscape:zoom="6.5902352"
     inkscape:cx="293.99558"
     inkscape:cy="122.30216"
     inkscape:window-width="1778"
     inkscape:window-height="1152"
     inkscape:window-x="2289"
     inkscape:window-y="25"
     inkscape:window-maximized="0"
     inkscape:current-layer="g143735"><inkscape:page
       x="0"
       y="0"
       id="page183808"
       width="400"
       height="400"
       margin="0"
       bleed="0" /></sodipodi:namedview><g
     id="g183810"
     inkscape:groupmode="layer"
     inkscape:label="Eyes Main"
     style="display:inline"><path
       d="m 321.49759,139.62561 c 0,0 3.836,5.92933 9.76534,5.40533 5.92799,-0.52267 6.79999,-0.17467 8.54399,-1.56933 0,0 -0.092,4.484 -2.052,5.29333 -1.95866,0.80933 -8.06133,0.46133 -10.50266,-1.45733 -2.44133,-1.91734 -5.75467,-7.672 -5.75467,-7.672"
       style="opacity:0.199997;fill:#000000;fill-opacity:1;fill-rule:nonzero;stroke:none;stroke-width:1.33333"
       id="path188068" /><path
       d="m 336.80719,143.55774 c 0.612,-0.15067 0.89867,-0.34267 0.89867,-0.34267 l 2.96666,-2.912 -0.0587,-5.84266 -7.29467,-0.92934 c 0,0 -6.65466,1.56934 -8.02133,2.90667 -1.36533,1.336 -2.03467,4.272 -2.064,4.35867 0,0 0.14533,0.90133 0.69867,1.01733 0.552,0.116 3.57466,2.03467 4.64933,1.976 1.076,-0.0573 8.22533,-0.232 8.22533,-0.232"
       style="fill:#ffffff;fill-opacity:1;fill-rule:nonzero;stroke:none;stroke-width:1.33333"
       id="path188122" /><path
       d="m 268.14893,138.39214 4.85866,-2.45733 15.63734,-0.55867 5.75333,2.68133 3.072,3.016 -1.22933,1.56267 -3.63067,0.224 c 0,0 -2.34533,1.84267 -4.85867,1.78667 -2.51333,-0.056 -14.464,-1.284 -14.464,-1.284 l -5.41733,-4.412 z"
       style="fill:#ffffff;fill-opacity:1;fill-rule:nonzero;stroke:none;stroke-width:1.33333"
       id="path188126" /><path
       d="m 277.90026,135.41161 c -0.36667,0.83066 -0.57333,1.748 -0.57333,2.71333 0,2.252 1.13333,4.46 2.82933,5.684 l 6.352,0.59733 c 2.51733,-0.97866 4.304,-3.41866 4.304,-6.28133 0,-0.84267 -0.16133,-1.64667 -0.444,-2.392 -3.116,-0.96667 -8.88667,-0.65067 -12.468,-0.32133"
       style="fill:#754324;fill-opacity:1;fill-rule:nonzero;stroke:none;stroke-width:1.33333"
       id="path188130" /><path
       d="m 286.93853,138.12521 c 0,1.584 -1.284,2.86933 -2.86934,2.86933 -1.584,0 -2.868,-1.28533 -2.868,-2.86933 0,-1.584 1.284,-2.86934 2.868,-2.86934 1.58534,0 2.86934,1.28534 2.86934,2.86934"
       style="fill:#000000;fill-opacity:1;fill-rule:nonzero;stroke:none;stroke-width:1.33333"
       id="path188134" /><path
       d="m 280.32893,143.35934 6.11066,0.57333 c 2.37734,-0.96933 3.908,-3.23733 3.908,-5.808 0,-0.68 -0.11333,-1.356 -0.33733,-2.012 -3.06133,-0.85733 -8.55867,-0.55066 -11.78933,-0.264 -0.28534,0.72934 -0.42934,1.49334 -0.42934,2.276 0,2.02534 0.992,4.06534 2.53734,5.23467 m 6.244,1.52 -6.58534,-0.61867 -0.10266,-0.0747 c -1.836,-1.324 -3.02134,-3.704 -3.02134,-6.06134 0,-1.00266 0.20534,-1.97866 0.612,-2.9 l 0.10934,-0.25066 0.27333,-0.0253 c 4.06533,-0.37333 9.56,-0.61866 12.64667,0.34134 l 0.216,0.0667 0.0813,0.212 c 0.31467,0.828 0.47467,1.688 0.47467,2.556 0,2.99334 -1.80667,5.628 -4.60134,6.71467 z"
       style="fill:#000000;fill-opacity:1;fill-rule:nonzero;stroke:none;stroke-width:1.33333"
       id="path188138" /><path
       d="m 283.14293,137.38521 c 0,0.86933 -0.704,1.57333 -1.57334,1.57333 -0.86933,0 -1.57333,-0.704 -1.57333,-1.57333 0,-0.86934 0.704,-1.57334 1.57333,-1.57334 0.86934,0 1.57334,0.704 1.57334,1.57334"
       style="fill:#ffffff;fill-opacity:1;fill-rule:nonzero;stroke:none;stroke-width:1.33333"
       id="path188142" /><path
       d="m 297.73679,141.40534 c 0,0 -3.644,-6.56 -8.92933,-6.924 -5.284,-0.36533 -12.756,0.54667 -15.85333,0.54667 -3.09867,0 -6.196,3.644 -6.196,3.644 0,0 4.00933,4.556 7.10666,4.92 l -4.556,-4.92 c 0,0 2.36934,-1.82267 5.468,-2.004 3.09734,-0.18267 11.48,-0.18267 14.03067,0.18133 2.552,0.36533 8.92933,4.556 8.92933,4.556"
       style="fill:#000000;fill-opacity:1;fill-rule:nonzero;stroke:none;stroke-width:1.33333"
       id="path188146" /><path
       d="m 332.48479,134.22507 c -1.16,0.44934 -3.236,0.37867 -4.04533,0.812 -1.47733,0.792 -2.084,1 -3.4,3.292 0.27333,2.52667 1.68267,4.336 3.54667,5.112 l 6.40533,-0.23466 c 1.636,-1.26534 2.6,-3.54 2.6,-5.868 0,-0.99867 -0.2,-1.94534 -0.552,-2.804 -1.30267,-0.12934 -2.904,-0.25467 -4.55467,-0.30934"
       style="fill:#754324;fill-opacity:1;fill-rule:nonzero;stroke:none;stroke-width:1.33333"
       id="path188158" /><path
       d="m 334.71679,138.09081 c 0,1.63733 -1.328,2.96533 -2.96533,2.96533 -1.63733,0 -2.96533,-1.328 -2.96533,-2.96533 0,-1.63734 1.328,-2.96534 2.96533,-2.96534 1.63733,0 2.96533,1.328 2.96533,2.96534"
       style="fill:#000000;fill-opacity:1;fill-rule:nonzero;stroke:none;stroke-width:1.33333"
       id="path188162" /><path
       d="m 331.00186,136.04921 c 0,0.89866 -0.728,1.62666 -1.62667,1.62666 -0.89733,0 -1.62666,-0.728 -1.62666,-1.62666 0,-0.89867 0.72933,-1.62667 1.62666,-1.62667 0.89867,0 1.62667,0.728 1.62667,1.62667"
       style="fill:#ffffff;fill-opacity:1;fill-rule:nonzero;stroke:none;stroke-width:1.33333"
       id="path188166" /><path
       d="m 325.51799,138.42707 c 0.27334,2.10667 1.44134,3.792 3.15467,4.54667 l 6.14933,-0.22533 c 1.42533,-1.172 2.30533,-3.22934 2.30533,-5.40934 0,-0.816 -0.14,-1.612 -0.41733,-2.37066 -1.464,-0.14 -2.85867,-0.232 -4.14933,-0.27734 -0.60933,0.21734 -1.38133,0.31067 -2.128,0.40134 -0.70667,0.0853 -1.43867,0.17466 -1.77467,0.35333 l -0.28533,0.15333 c -1.224,0.648 -1.74533,0.92534 -2.85467,2.828 m 2.984,5.48134 -0.0947,-0.0387 c -2.12,-0.884 -3.552,-2.936 -3.82934,-5.492 l -0.016,-0.14933 0.0747,-0.13067 c 1.29467,-2.25467 2.008,-2.63333 3.30133,-3.31867 l 0.28267,-0.15066 c 0.48933,-0.26134 1.272,-0.35734 2.1,-0.45734 0.72933,-0.088 1.48267,-0.17866 1.996,-0.37866 l 0.088,-0.0333 0.096,0.003 c 1.41866,0.0467 2.96133,0.15067 4.584,0.31067 l 0.27733,0.028 0.10533,0.25733 c 0.39067,0.948 0.588,1.95067 0.588,2.98133 0,2.51867 -1.06533,4.908 -2.78,6.23467 l -0.11866,0.0907 z"
       style="fill:#000000;fill-opacity:1;fill-rule:nonzero;stroke:none;stroke-width:1.33333"
       id="path188170" /><path
       d="m 336.83719,134.88894 c 2.968,0.556 2.448,1.69467 2.448,4.144 0,2.448 -2.47733,4.52533 -2.47733,4.52533 3.57866,-0.56533 4.73866,-4.14933 4.73866,-4.14933 l 1.31734,-5.65067 c 0,0 -3.75467,-0.75333 -9.79333,-0.75333 -2.48667,0 -6.48267,1.97467 -7.30534,2.50267 -0.82266,0.52933 -2.292,4.232 -2.292,4.232 0,0 2.40934,-3.11467 3.87867,-3.644 1.46933,-0.52934 5.86533,-1.884 9.48533,-1.20667"
       style="fill:#000000;fill-opacity:1;fill-rule:nonzero;stroke:none;stroke-width:1.33333"
       id="path188174" /><path
       d="m 296.21826,146.14321 c 0,0 -6.07467,2.916 -12.392,2.916 0,0 9.23333,2.18666 12.392,-2.916"
       style="fill:#000000;fill-opacity:1;fill-rule:nonzero;stroke:none;stroke-width:1.33333"
       id="path188190" /><path
       d="m 326.45453,146.87201 c 0,0 7.91066,3.516 11.30133,1.884 0,0 -4.52133,3.38933 -11.30133,-1.884"
       style="fill:#000000;fill-opacity:1;fill-rule:nonzero;stroke:none;stroke-width:1.33333"
       id="path188194" /><path
       id="path2"
       style="opacity:0.199997;fill:#000000;fill-opacity:1;fill-rule:nonzero;stroke:none;stroke-width:1.33333"
       d="m 298.12109,139 c 0.0973,1.5158 0.0189,3.0573 -0.33789,3.41406 -0.69733,0.69867 -2.44141,1.22134 -5.58008,3.13867 -3.13866,1.91866 -10.46353,0.524 -15.51953,0 -5.05732,-0.52267 -10.98723,-4.70681 -10.11523,-3.66015 0.872,1.04667 6.1045,6.27756 10.8125,7.32422 4.70799,1.04667 15.17097,-0.17558 19.18164,-2.26758 3.35218,-1.74965 2.44868,-4.59581 3.58008,-7.94922 z" /></g><g
     inkscape:groupmode="layer"
     id="layer3"
     inkscape:label="Nose Edge"><path
       d="m 305.35226,133.99374 1.488,12.008 c 0,0 -2.48,-10.916 -3.076,-11.71067 -0.59467,-0.79333 -2.67867,2.68 -2.67867,2.68 l 3.77067,-6.352 z"
       style="display:inline;fill:#000000;fill-opacity:1;fill-rule:nonzero;stroke:none;stroke-width:1.33333"
       id="path38242" /></g><g
     inkscape:groupmode="layer"
     id="layer6"
     inkscape:label="Standard Eyebrows"
     style="display:none"
     sodipodi:insensitive="true"><path
       d="m 323.65266,135.83067 c 2.63467,-2.41333 7.436,-4.57466 10.4,-5.44666 2.964,-0.872 10.288,-0.17467 10.288,-0.17467 l 3.31333,-5.05733 -6.80133,-2.964 -16.74,5.92933 c 0,0 -4.01067,4.01067 -4.53333,5.23067 -0.52267,1.22133 1.172,5.14 4.07333,2.48266"
       style="opacity:0.199997;fill:#000000;fill-opacity:1;fill-rule:nonzero;stroke:none;stroke-width:1.33333"
       id="path188084" /><path
       id="path188112"
       style="opacity:0.199997;fill:#000000;fill-opacity:1;fill-rule:nonzero;stroke:none;stroke-width:1.33333"
       d="m 309.64453,119.3418 c 0,0 -4.90065,5.52744 -7.19531,7.30078 -2.29334,1.772 -17.3262,-6.15781 -25.24219,-3.75781 l -14.82226,6.27734 c 2.78932,-0.52267 9.76468,1.91895 12.02734,1.12695 2.26134,-0.792 13.95488,0.61713 16.04687,1.31446 2.09333,0.69733 6.2779,3.4882 6.97657,4.18554 0.34056,0.34057 0.5927,1.76397 0.68554,3.21094 h 2.02149 c 0.22224,-0.65873 0.5156,-1.33579 0.94336,-2.0293 1.316,-2.13466 2.59887,-4.08827 3.76953,-6.34961 4.05866,-7.83732 4.78906,-11.27929 4.78906,-11.27929 z" /><path
       id="path188154"
       style="fill:#000000;fill-opacity:1;fill-rule:nonzero;stroke:none;stroke-width:1.33333"
       d="m 323.65266,135.83067 c 0,0 4.52,-5.27333 10.924,-5.83866 z m -24.64027,1.38347 c 0,0 -4.92,-5.284 -8.56533,-6.196 -3.644,-0.91067 -13.848,-1.64 -16.03467,-0.728 0,0 12.39067,-0.18267 15.124,1.82133 2.73334,2.00534 10.56934,6.92534 9.476,5.10267" /><path
       id="path188182"
       style="fill:#383838;fill-opacity:1;fill-rule:nonzero;stroke:none;stroke-width:1.33333"
       d="m 307.43626,124.16934 c 0,0 -1.78667,3.572 -3.572,4.86267 -1.78667,1.29066 -14.29067,-1.98534 -19.64933,-2.97734 -5.35867,-0.992 -20.44267,1.88534 -24.61067,4.56534 0,0 11.512,-9.328 14.98533,-11.21334 3.47334,-1.88666 8.03734,-0.39733 12.20534,0.892 4.168,1.29067 16.076,3.47334 17.56533,3.47334 1.488,0 3.076,0.39733 3.076,0.39733 m 15.99973,3.8984 c 2.268,-2.268 4.144,-5.27333 9.98267,-6.404 5.83866,-1.13067 9.41733,-3.76667 11.112,-1.69467 1.696,2.072 3.01466,4.52 1.696,6.02667 -1.31867,1.50667 -3.01334,0.94133 -4.332,-0.376 -1.31867,-1.31867 -4.52134,0.188 -9.41733,0.94133 -4.89734,0.75334 -12.432,4.89734 -9.04134,1.50667" /><path
       style="color:#000000;fill:#000000;-inkscape-stroke:none"
       d="m 346.61463,124.55134 c -0.0684,0.48603 -0.30145,0.88965 -0.61463,1.24749 -0.60514,0.69141 -1.22963,0.87503 -1.89258,0.77148 -0.66294,-0.10355 -1.37095,-0.53369 -2,-1.16211 -0.3928,-0.3928 -0.92791,-0.5685 -1.53515,-0.60351 -0.60725,-0.035 -1.30249,0.0598 -2.10157,0.21484 -1.59816,0.31001 -3.61106,0.87055 -6.03906,1.24414 -2.01031,0.30924 -4.40463,1.16362 -6.3418,1.85156 -0.96858,0.34398 -1.82362,0.64699 -2.43945,0.81836 -0.49384,0.0703 -0.9808,0.24493 -1.43217,0.27172 0.067,0.13638 0.3166,0.42091 0.42825,0.45083 0.11166,0.0299 0.21799,0.0315 0.33399,0.0234 0.23199,-0.0162 0.50551,-0.0771 0.83203,-0.16797 0.65304,-0.18173 1.51001,-0.48809 2.47852,-0.83203 1.93702,-0.6879 4.31647,-1.52755 6.23242,-1.82227 2.46798,-0.37974 4.50371,-0.94801 6.06054,-1.25 0.77842,-0.15099 1.43795,-0.23294 1.95508,-0.20312 0.51713,0.0298 0.87605,0.1612 1.14258,0.42773 h 0.002 c 0.68961,0.68891 1.48636,1.20025 2.33008,1.33203 0.84372,0.13179 1.72593,-0.15545 2.43945,-0.9707 0.40674,-0.46472 0.50022,-1.02492 0.51454,-1.60742 z"
       id="path35226"
       sodipodi:nodetypes="csscsscsccsssscssccsscc" /><path
       id="path31558"
       style="color:#000000;fill:#000000;-inkscape-stroke:none"
       d="m 277.34766,118.36719 c -1.00095,0.10955 -1.95934,0.37758 -2.85352,0.86328 -1.77726,0.96471 -5.38138,3.70345 -8.56836,6.21289 -3.18698,2.50944 -5.8125,4.9375 -5.8125,4.9375 0,0 2.87593,-2.11701 6.05859,-4.62305 3.18267,-2.50604 6.74174,-5.02754 8.43781,-5.94817 3.36997,-1.83051 7.76682,-0.4956 12.12665,0.68059 2.10498,0.65184 6.1211,1.51697 9.80859,2.22461 1.84375,0.35382 3.65939,0.61046 5.053,0.83568 1.39361,0.22523 2.38031,0.32313 2.79938,0.36524 1.69898,0.1707 3.17199,0.29112 3.17199,0.29112 0,0 -1.55354,-0.3501 -3.19095,-0.53977 -0.32133,-0.0372 -1.38461,-0.22986 -2.77287,-0.45422 -1.38826,-0.22436 -3.14591,-0.53744 -4.98633,-0.89062 -3.68083,-0.70637 -7.70261,-1.57601 -9.76562,-2.21485 -3.12438,-0.96649 -6.50304,-2.0689 -9.50586,-1.74023 z M 342.9082,119 c -0.70546,-0.0282 -1.50944,0.15082 -2.43554,0.42383 -1.8522,0.54601 -4.19347,1.4817 -7.0918,2.04297 -5.89576,1.14172 -7.87934,4.21446 -10.10491,6.57278 -0.6668,0.70659 -0.88872,1.28489 -0.88872,1.28489 0,0 0.53324,-0.45783 1.19089,-1.11549 2.29148,-2.29147 4.09734,-5.22999 9.87891,-6.3496 2.94032,-0.5694 5.30844,-1.51608 7.12891,-2.05274 0.91023,-0.26833 1.68202,-0.43122 2.30664,-0.40625 0.62462,0.025 1.09375,0.2201 1.48242,0.69531 1.22087,1.49154 2.21931,3.18338 2.1875,4.47852 l 0.40039,0.01 c 0.0368,-1.50015 -1.03216,-3.22094 -2.27734,-4.74218 -0.45867,-0.56079 -1.07188,-0.8136 -1.77735,-0.8418 z" /><path
       style="color:#000000;fill:#000000;-inkscape-stroke:none"
       d="m 305.98242,125.90234 c -0.79229,1.00916 -1.64112,1.84285 -2.44314,2.42265 -0.10102,0.073 -0.55166,0.2549 -1.04154,0.28486 -0.48987,0.0299 -1.01606,0.007 -1.94697,-0.0246 -1.48247,-0.13881 -3.14599,-0.45804 -5.14934,-0.84766 -4.00671,-0.77924 -8.41225,-1.5753 -11.11432,-2.07551 -2.81345,-0.52083 -7.94487,-0.19269 -12.89844,0.9043 -5.93504,1.31434 -11.7378,3.59182 -11.53803,3.96222 0,0 6.74949,-2.24944 11.68647,-3.17511 4.93698,-0.92568 10.06025,-1.37743 12.60547,-0.90625 2.65659,0.49179 7.12854,1.55966 11.16015,2.34375 2.01581,0.39204 3.92114,0.71397 5.45313,0.85742 0.76599,0.0717 1.43925,0.10046 1.99609,0.0664 0.55685,-0.0341 1.00005,-0.10968 1.34571,-0.35937 0.9833,-0.71086 1.90587,-2.13852 2.58736,-3.21121 0.6815,-1.07268 1.45629,-3.01054 1.45629,-3.01054 0,0 -1.40096,1.80322 -2.15889,2.76862 z"
       id="path35228"
       sodipodi:nodetypes="ssscssscssssscscs" /><path
       id="path16709"
       style="fill:#000000;fill-opacity:0.2;stroke:none;stroke-width:1px;stroke-linecap:butt;stroke-linejoin:miter;stroke-opacity:1"
       d="m 345.08594,120.68555 c -0.84899,0.80779 -1.72984,1.54981 -2.45703,1.91992 -2.13372,1.08597 -3.96287,0.60258 -6.52539,1.21484 -2.56253,0.61226 -6.06838,1.31896 -8.80079,2.57813 -1.35426,0.62408 -3.18936,1.82309 -4.69921,2.87304 0.29449,0.69168 5.93414,-2.10503 9.87304,-2.71093 4.89599,-0.75333 8.0993,-2.26008 9.41797,-0.94141 1.31866,1.31733 3.01336,1.88362 4.33203,0.37695 1.16963,-1.33639 0.26244,-3.41226 -1.14062,-5.31054 z m -67.38867,1.25586 c -1.97811,0.0145 -2.24008,0.30558 -5.32422,1.42382 -2.82406,1.02395 -8.97033,4.83748 -12.65039,7.1875 4.31058,-2.66087 19.17765,-5.48187 24.49218,-4.49804 5.35866,0.992 17.86373,4.26722 19.65039,2.97656 1.78533,-1.29067 3.57032,-4.86133 3.57032,-4.86133 0,0 -0.7178,-0.17135 -1.6211,-0.28906 -0.74167,0.70434 -1.41732,1.30442 -1.88086,1.60742 -2.22705,1.4558 -3.85143,0.93767 -7.88867,0 -4.03722,-0.93767 -10.79506,-3.3472 -15.63086,-3.49023 -1.20895,-0.0358 -2.05743,-0.0615 -2.71679,-0.0566 z" /></g><g
     inkscape:groupmode="layer"
     id="g143735"
     inkscape:label="Klingon Brows"
     style="display:inline"><path
       d="m 323.65266,135.83067 c 2.63467,-2.41333 7.436,-4.57466 10.4,-5.44666 2.964,-0.872 10.288,-0.17467 10.288,-0.17467 l 3.31333,-5.05733 -6.80133,-2.964 -9.5341,1.44291 -7.05416,2.96902 c 0,0 -4.16241,5.52807 -4.68507,6.74807 -0.52267,1.22133 1.172,5.14 4.07333,2.48266"
       style="opacity:0.199997;fill:#000000;fill-opacity:1;fill-rule:nonzero;stroke:none;stroke-width:1.33333"
       id="path143719"
       sodipodi:nodetypes="csccccccc" /><path
       id="path143721"
       style="opacity:0.199997;fill:#000000;fill-opacity:1;fill-rule:nonzero;stroke:none;stroke-width:1.33333"
       d="m 309.64453,119.3418 c 0,0 -4.90065,5.52744 -7.19531,7.30078 -2.74856,-0.35236 -17.47794,-7.82695 -26.91133,-5.88217 l -13.15312,8.4017 c 2.78932,-0.52267 9.76468,1.91895 12.02734,1.12695 2.26134,-0.792 13.95488,0.61713 16.04687,1.31446 2.09333,0.69733 6.2779,3.4882 6.97657,4.18554 0.34056,0.34057 0.5927,1.76397 0.68554,3.21094 h 2.02149 c 0.22224,-0.65873 0.5156,-1.33579 0.94336,-2.0293 1.316,-2.13466 2.59887,-4.08827 3.76953,-6.34961 4.05866,-7.83732 4.78906,-11.27929 4.78906,-11.27929 z"
       sodipodi:nodetypes="cccccccccccc" /><path
       id="path143723"
       style="fill:#000000;fill-opacity:1;fill-rule:nonzero;stroke:none;stroke-width:1.33333"
       d="m 323.65266,135.83067 c 0,0 4.52,-5.27333 10.924,-5.83866 z m -24.64027,1.38347 c 0,0 -4.92,-5.284 -8.56533,-6.196 -3.644,-0.91067 -13.848,-1.64 -16.03467,-0.728 0,0 12.39067,-0.18267 15.124,1.82133 2.73334,2.00534 10.56934,6.92534 9.476,5.10267" /><path
       d="m 298.94333,126.59961 c -3.33067,-3.28267 -8.31467,-4.94667 -14.816,-4.94667 -0.648,0 -1.29067,0.016 -1.924,0.0453 -0.19734,0.009 -0.39467,0.0133 -0.59067,0.0133 -0.60267,0 -1.19867,-0.0373 -1.79333,-0.0747 -0.60534,-0.0373 -1.20934,-0.0747 -1.81734,-0.0747 -0.664,0 -1.25333,0.0467 -1.80266,0.14 -1.07067,0.184 -2.13334,0.58934 -3.16267,0.98 -1.13067,0.43067 -2.12267,0.8 -3.132,1.472 -0.44533,0.29467 -0.94933,0.35467 -1.43867,0.52667 -0.81333,0.28533 -1.648,0.51867 -2.48133,0.77067 -0.65067,0.19733 -1.34533,0.48666 -2.00533,0.54666 -0.484,0.044 -0.97867,-0.0227 -1.464,0 -0.22267,0.0107 -0.44134,0.0587 -0.672,0.0267 -0.312,-0.044 -0.536,-0.23867 -0.83467,-0.33067 -0.31733,-0.0973 -0.58933,-0.11466 -0.88667,-0.26666 -0.364,-0.18534 -0.67866,-0.45867 -1.01466,-0.70534 -0.312,-0.22933 -0.632,-0.41733 -0.908,-0.696 -0.396,-0.39733 -0.88534,-0.744 -1.34267,-1.08533 -0.59867,-0.448 -1.02267,-0.98 -1.62667,-1.42533 -0.35866,-0.26534 -0.712,-0.54 -1.05333,-0.828 -0.22533,-0.19067 -0.496,-0.568 -0.756,-0.692 0.256,0.12266 0.48533,0.248 0.62667,0.40533 0.31866,0.18133 0.58933,0.248 0.84933,0.312 0.17733,0.0453 0.35333,0.0867 0.496,0.14267 l 0.612,0.236 -0.17067,-0.63334 c -0.232,-0.86666 -0.84133,-1.88933 -1.48666,-2.972 -0.71334,-1.19866 -1.5,-2.52 -1.72667,-3.62 1.704,1.78534 5.78267,4.66934 7.78267,4.68134 l 0.73333,0.004 -0.47867,-0.55467 c -0.552,-0.64133 -0.86,-1.48667 -1.18533,-2.38267 -0.48133,-1.324 -0.97733,-2.69333 -2.33067,-3.49733 -0.10133,-0.42 -0.272,-0.8 -0.44,-1.16933 0.29867,0.25866 0.624,0.512 0.956,0.772 0.756,0.58933 1.536,1.19866 2.02267,1.89066 2.01867,2.87867 3.18533,3.13734 6.30133,3.82934 l 0.82534,0.184 -0.47734,-0.69734 c -0.21733,-0.316 -0.488,-0.68133 -0.78,-1.07733 -1.072,-1.44533 -2.53866,-3.42533 -2.59466,-4.75467 l -0.008,-0.18133 -0.15734,-0.092 c -0.29733,-0.17333 -0.56133,-0.41333 -0.80266,-0.732 0.612,0.39733 1.35733,0.96667 1.96533,1.43067 0.47733,0.36533 0.92,0.704 1.26133,0.93733 l 0.41734,0.284 c 1.22533,0.83067 2.74933,1.864 3.64666,3.09333 l 0.548,0.74934 0.0547,-0.92667 c 0.0627,-1.08 -0.0773,-1.91733 -0.22533,-2.804 -0.0467,-0.27867 -0.0947,-0.56533 -0.13734,-0.868 l -0.0213,-0.148 -0.124,-0.0827 c -0.624,-0.416 -1.40533,-1.32933 -2.09733,-2.136 1.66266,0.60134 4.048,1.60134 4.39066,2.72667 l 0.056,0.18267 0.18667,0.044 c 0.37733,0.0907 0.70133,0.46533 1.044,0.86133 0.28133,0.32667 0.57333,0.664 0.93467,0.89067 l 0.67466,0.42533 -0.172,-0.77867 c -0.15866,-0.72533 -0.36666,-1.404 -0.57733,-2.088 -0.0933,-0.308 -0.19067,-0.62 -0.28133,-0.93866 0.872,0.73733 1.924,1.29066 2.884,1.79466 0.356,0.188 0.70266,0.37067 1.02933,0.556 0.48667,0.27734 1.01067,0.62934 1.548,0.99067 0.95067,0.63733 1.932,1.29733 2.84667,1.64667 l 0.96533,0.368 -0.568,-0.86267 c -0.13867,-0.21067 -0.25333,-0.47733 -0.35333,-0.776 0.76,0.91067 1.67733,1.58133 2.57066,1.58133 0.58267,0 1.34134,-0.29066 1.92134,-1.53466 0.004,0.0133 0.008,0.0267 0.012,0.04 0.18533,0.64666 0.376,1.316 0.616,1.90933 l 0.10266,0.25333 0.26934,-0.0507 c 0.128,-0.0253 0.232,-0.0667 0.32266,-0.10667 0.13067,0.2 0.272,0.39333 0.412,0.58533 0.376,0.51067 0.72934,0.992 0.88534,1.61734 l 0.14133,0.56533 0.416,-0.40933 c 0.65333,-0.64267 1.24933,-1.35867 1.82667,-2.052 0.252,-0.304 0.508,-0.612 0.77066,-0.91467 -0.124,0.37067 -0.26,0.724 -0.44133,1.05867 -0.12667,0.23333 -0.29733,0.43733 -0.47867,0.65333 -0.33866,0.40533 -0.72266,0.86267 -0.792,1.56 l -0.0333,0.32667 0.32533,0.0373 c 0.19334,0.0227 0.39467,0.0347 0.60267,0.0347 1.79733,0 4.17467,-0.86267 5.824,-2.02534 -0.15867,0.28534 -0.33333,0.56667 -0.50533,0.84534 -0.47067,0.76133 -0.95867,1.54933 -1.11067,2.39733 l -0.068,0.37333 0.37867,0.0187 c 0.20933,0.0107 0.436,0.0173 0.67733,0.0173 1.77467,0 3.79467,-0.29733 5.24667,-1.052 -0.0213,0.0267 -0.0413,0.052 -0.0627,0.0773 -0.384,0.47466 -0.78,0.96533 -1.04667,1.592 l -0.25466,0.604 0.63733,-0.148 c 1.756,-0.412 3.268,-1.19067 4.70667,-2.43334 -0.168,2.08934 -2.14134,4.76267 -4.52134,5.95334 -0.752,0.376 -1.46933,0.56666 -2.13466,0.56666 -0.052,0 -0.104,-10e-4 -0.156,-0.003"
       style="display:inline;fill:#383838;fill-opacity:1;fill-rule:nonzero;stroke:none;stroke-width:1.33333"
       id="path34481" /><path
       d="m 298.94333,126.59961 c -3.33067,-3.28267 -8.31467,-4.94667 -14.816,-4.94667 -0.648,0 -1.29067,0.016 -1.924,0.0453 -0.19734,0.009 -0.39467,0.0133 -0.59067,0.0133 -0.60267,0 -1.19867,-0.0373 -1.79333,-0.0747 -0.60534,-0.0373 -1.20934,-0.0747 -1.81734,-0.0747 -0.664,0 -1.25333,0.0467 -1.80266,0.14 -1.07067,0.184 -2.13334,0.58934 -3.16267,0.98 -0.708,0.26934 -1.37733,0.524 -2.04267,0.70934 -0.664,0.18533 -1.33066,0.4 -2.00266,0.61466 -2.10667,0.67734 -4.30134,1.32667 -6.51067,1.44134 -0.68933,0.0347 -1.43467,-0.19067 -2.092,-0.336 -0.712,-0.15867 -1.16533,-0.332 -1.72267,-0.75734 -0.46933,-0.35733 -0.98666,-0.53733 -1.44,-0.89466 -0.21066,-0.16667 -0.39866,-0.37334 -0.57333,-0.596 -0.12933,-0.16534 -0.46533,-0.50534 -0.428,-0.74534 0.35467,0.196 1.19467,0.26667 1.44533,-0.12 0.19867,-0.30666 0.18667,-1.27333 -0.02,-1.56266 0.32267,0.45066 1.416,1.292 1.972,1.44533 0.0933,-0.588 -0.0267,-1.14 -0.26266,-1.66933 0.436,0.34266 1.128,0.90533 1.66266,0.97066 -0.02,-0.45066 -0.21466,-0.76933 -0.37066,-1.164 0.59066,0.22534 1.25333,0.56267 1.70133,0.968 0.52,-0.33866 0.412,-0.992 0.18667,-1.46533 0.23066,0.2 1.08133,0.952 1.372,0.884 0.544,-0.128 0.55466,-0.816 0.216,-1.18133 0.55466,0.90533 3.024,2.06533 2.18133,0.11333 0.51467,0.46267 1.304,1.056 1.96533,1.14933 0.032,-0.572 0.003,-1.168 0.0307,-1.73866 0.52267,0.19333 1.19067,0.54266 1.54933,0.94933 0.17734,-0.40133 0.12134,-0.836 0.14267,-1.272 1.216,0.49733 2.972,2.64533 2.77467,-0.208 0.61066,0.48267 1.31733,0.876 1.98266,1.30133 0.38534,-0.47866 0.30267,-1.23333 0.284,-1.86533 0.31467,0.23733 0.52934,0.59467 0.80534,0.868 0.32933,-0.32933 0.23066,-0.92667 0.084,-1.37067 0.456,0.51734 2.024,1.43467 2.62,1.444 0.576,0.009 0.93866,-0.63333 1.39066,-0.66133 0.63734,-0.0387 1.04667,0.948 1.67467,1.05333 0.55467,0.0947 0.688,-0.16666 1.192,-0.48933 0.968,0.968 1.00133,1.536 2.45733,1.116 0.412,1.52667 1.176,0.50533 2.01067,0.0787 0.268,0.204 0.40667,0.684 0.67333,0.83733 0.33867,0.196 0.39734,0.004 0.716,0.068 0.45734,0.0907 0.52,0.009 0.91867,0.17333 0.32,0.132 0.496,0.49067 0.876,0.57734 1.27867,0.29333 2.43467,-0.464 3.196,0.82933 0.58267,-0.392 1.236,-0.14533 1.49333,0.49733 1.22534,-0.88 1.484,-0.2 1.98267,0.68934 0.62933,-0.152 1.16533,-0.472 1.92,-0.47867 2.35867,-0.02 4.88267,-1.22667 6.70667,-2.80267 -0.168,2.08934 -2.14134,4.76267 -4.52134,5.95334 -0.752,0.376 -1.46933,0.56666 -2.13466,0.56666 -0.052,0 -0.104,-0.001 -0.156,-0.003"
       style="display:inline;opacity:0.199997;fill:#000000;fill-opacity:1;fill-rule:nonzero;stroke:none;stroke-width:1.33333"
       id="path34491" /><path
       d="m 320.72199,128.00721 c -1.53066,0 -2.89866,-0.528 -4.01866,-1.53867 0.75866,0.14533 1.616,0.21067 2.06,0.21067 0.50933,0 0.70133,-0.0613 0.80133,-0.108 0.54667,-0.25067 0.872,-0.93867 1.18667,-1.604 0.32666,-0.69067 0.66533,-1.40534 1.13866,-1.40534 0.13467,0 0.29067,0.0507 0.46667,0.15067 l 0.20533,0.11733 0.17867,-0.156 c 0.724,-0.632 1.03467,-1.45733 1.31333,-2.26933 0.048,0.0827 0.0893,0.15867 0.112,0.21867 l 0.13867,0.384 0.348,-0.21334 c 1.34933,-0.824 1.716,-2.12133 1.79867,-3.532 0.23733,0.60134 0.61733,1.09734 1.364,1.09734 0.17866,0 0.37333,-0.032 0.57866,-0.092 0.636,-0.188 2.21734,-2.75467 2.96267,-4.32534 0.0533,0.396 0.0667,0.808 0.0827,1.23334 0.0107,0.31333 0.0213,0.62933 0.048,0.944 l 0.0667,0.78666 0.51734,-0.59466 c 0.78,-0.89867 1.31066,-2.024 1.82399,-3.10934 0.16267,-0.34266 0.32,-0.676 0.48267,-0.99733 0.0267,1.12133 0,2.26133 -0.0253,3.37333 l -0.024,1.01734 0.61866,-0.70934 c 0.22534,-0.29333 0.532,-0.44666 0.86934,-0.56933 0.003,0.028 0.005,0.056 0.008,0.0853 0.024,0.23334 0.0493,0.47467 0.008,0.65467 l 0.62533,0.21867 c 0.67467,-1.43067 2.05867,-3.228 3.396,-4.96534 0.408,-0.52933 0.80933,-1.05066 1.18267,-1.55333 0.0547,0.71867 0.06,1.452 0.064,2.168 0.004,0.60533 0.008,1.212 0.0387,1.81333 l 0.02,0.36267 0.35867,-0.0493 c 1.356,-0.188 3.032,-1.80667 3.97467,-3.248 0.003,0.836 0.004,1.67066 -0.0173,2.50533 l -0.0187,0.768 0.57333,-0.51067 c 0.872,-0.776 1.28933,-1.78 1.69333,-2.75066 0.216,-0.51867 0.42267,-1.02 0.69067,-1.45334 0.032,1.12667 0.012,2.27467 -0.007,3.392 l -0.028,1.71734 0.632,-0.97334 c 0.44134,-0.684 1.076,-1.88666 1.608,-3.15066 -0.16533,1.48933 -0.244,2.99466 0.20667,4.388 l 0.13467,0.416 0.36533,-0.23867 c 0.73067,-0.47733 1.004,-1.672 1.22267,-2.63067 0.0413,-0.188 0.0813,-0.36133 0.12133,-0.51066 0.33867,-1.28267 0.69467,-2.10667 1.208,-2.96667 0.0773,2.6 -0.0227,5.372 -0.83067,8.24533 l -0.27866,0.988 0.80533,-0.636 c 1.76667,-1.39466 3.204,-3.28666 4.412,-5.064 -0.10133,0.51467 -0.18667,1.02534 -0.26933,1.52934 -0.38267,2.30933 -0.744,4.49333 -2.64267,6.33733 -2.47733,2.40533 -5.78133,3.676 -9.556,3.676 l -0.41467,-0.005 c -1.404,-0.0347 -2.73333,-0.37734 -4.02,-0.708 -1.116,-0.288 -2.272,-0.584 -3.472,-0.68134 -0.54,-0.0427 -1.07333,-0.064 -1.60133,-0.064 -3.70666,0 -7.34,1.07734 -10.79733,3.204 -1.46933,0.904 -3.02133,1.38134 -4.49067,1.38134"
       style="display:inline;fill:#383838;fill-opacity:1;fill-rule:nonzero;stroke:none;stroke-width:1.33333"
       id="path34501" /><path
       d="m 320.72199,128.00721 c -1.53066,0 -2.89866,-0.528 -4.01866,-1.53867 0.75866,0.14533 1.616,0.21067 2.06,0.21067 1.25866,0 1.76933,-1.28 2.40533,-2.16934 -0.216,1.65334 1.016,0.44 1.56533,-0.0213 0.0347,0.13067 0.10667,0.21333 0.13334,0.36933 0.66133,0.005 1.16,-0.71333 1.65333,-1.06533 0.0773,0.176 0.22267,0.244 0.29867,0.37467 0.19466,-0.336 0.28933,-0.77067 0.23466,-1.168 0.58267,0.072 0.94267,0.75466 1.56134,0.76533 0.0787,-0.59067 -0.26934,-1.17067 -0.44534,-1.68667 0.48134,0.36 0.848,0.764 1.436,0.79467 0.0387,-0.424 0.036,-0.89333 -0.0693,-1.26267 0.70933,-0.0547 1.376,0.568 2.07467,0.38267 0.65066,-0.172 0.888,-0.87067 1.21733,-1.37867 1.068,0.65734 1.188,0.93334 2.13733,-0.104 0.168,0.33734 0.34667,0.64 0.612,0.90267 0.83467,-0.63067 1.46533,-1.78933 2.47333,-2.148 0.38534,0.87733 0.228,1.02267 1.30534,0.75067 0.69466,-0.176 1.16933,-0.45467 1.70133,-0.87467 0.068,0.404 0.13867,0.79733 0.31467,1.14533 1.604,-0.33066 3.448,-0.732 4.98666,-1.312 0.604,-0.228 1,-0.35866 1.36,-0.92666 -0.33066,1.01333 -0.86133,1.45733 -1.49066,2.236 1.37333,0.092 1.768,-0.24534 2.82666,-1.02667 0.54134,-0.39867 1.57334,-0.67867 1.64267,-1.41067 -0.51733,0.90667 -1.008,1.836 -1.808,2.53067 1.03067,-0.608 1.86133,-0.37867 2.78133,-1.37067 0.30667,-0.332 2.24534,-2.53333 2.18134,-2.872 0.264,1.37467 -0.54934,2.89067 -0.58134,4.33067 1.00667,-0.672 1.97867,-1.536 2.94134,-2.288 1.27466,-0.996 1.92,-0.81867 1.56666,1.04533 -0.264,1.392 -1.70133,2.94934 -2.87066,3.67067 -2.19467,1.35467 -4.81734,2.02 -7.39067,1.988 0,0 -0.41467,-0.005 -0.41467,-0.005 -1.404,-0.0347 -2.73333,-0.37734 -4.02,-0.708 -1.116,-0.288 -2.272,-0.584 -3.472,-0.68134 -0.54,-0.0427 -1.07333,-0.064 -1.60133,-0.064 -3.70666,0 -7.34,1.07734 -10.79733,3.204 -1.46933,0.904 -3.02133,1.38134 -4.49067,1.38134"
       style="display:inline;opacity:0.199997;fill:#000000;fill-opacity:1;fill-rule:nonzero;stroke:none;stroke-width:1.33333"
       id="path34511" /><path
       d="m 299.26266,125.10054 c 0.98267,0.0787 1.504,-0.13067 2.328,-0.56533 0.79867,-0.42267 1.63067,-0.30534 2.25467,-0.97734 0.328,-0.35333 0.61866,-0.89866 0.85333,-1.32133 0.152,-0.27467 0.35333,-1.16933 0.56933,-1.332 -1.27066,0.95333 -2.61733,1.57867 -4.14266,1.93467 l -1.27734,0.29866 0.512,-1.208 c 0.116,-0.27466 0.25467,-0.52266 0.404,-0.75466 -1.65866,0.536 -3.46666,0.6 -4.23466,0.6 -0.248,0 -0.48134,-0.005 -0.696,-0.0173 l -0.75467,-0.0387 c 0,0 0.13333,-0.74534 0.13333,-0.74534 0.13467,-0.74933 0.61334,-1.204 0.83734,-1.87733 -1.51334,1.64 -4.38934,2.15733 -6.424,1.27467 0.25066,-0.29467 0.35466,-0.61334 0.34933,-1.008 -0.40267,0.08 -0.69333,0.49066 -1.052,0.65333 -0.164,-0.32667 -0.756,-3.03467 -1.35467,-2.86133 -0.04,0.012 -0.084,0.0227 -0.12933,0.032 0,0 -0.53733,0.10266 -0.53867,0.10266 -0.14933,0.028 -0.43866,-1.46 -0.472,-1.55866 -0.54133,0.29866 -0.61333,1.41866 -1.23733,1.552 -0.604,0.12933 -1.48667,-0.88267 -2.06533,-1.09467 0.112,0.164 0.34933,0.724 0.524,0.79067 0,0 -1.928,-0.736 -1.928,-0.736 -0.95067,-0.364 -1.948,-1.03334 -2.91467,-1.68267 -0.52933,-0.356 -1.04667,-0.704 -1.52667,-0.976 -0.324,-0.184 -0.668,-0.36533 -1.02,-0.55067 -0.69066,-0.36266 -1.428,-0.75066 -2.11866,-1.21466 0.20533,0.66266 0.41466,1.35066 0.57466,2.08 0,0 0.34267,1.556 0.34267,1.556 -0.824,-0.51867 -1.93467,-0.868 -2.67467,-1.456 -0.304,-0.24267 -0.61066,-0.69734 -0.83333,-0.976 -0.36133,-0.452 -0.62267,-0.636 -1.116,-0.96934 -0.41333,-0.27866 -0.57733,-0.60533 -0.992,-0.87066 0.20533,0.84266 0.764,1.58533 0.90133,2.50133 0.20134,1.33733 -0.16266,2.532 -0.23866,3.84667 l -1.096,-1.5 c -0.864,-1.18267 -2.36134,-2.19734 -3.564,-3.01334 0,0 -0.41867,-0.28533 -0.42,-0.28666 -0.412,-0.28 -0.78134,-1.03867 -1.19467,-1.15867 0.212,1.07333 1.28,2.43467 1.92933,3.312 0.67467,0.912 1.332,2.44533 2.25467,3.084 -0.42533,0.37467 -1.60667,-0.092 -2.104,-0.20267 -1.34267,-0.29866 -2.76667,-0.55333 -3.94933,-1.29466 -0.59334,-0.372 -1.09734,-0.85467 -1.55734,-1.37734 -0.48666,-0.55333 -0.73733,-1.38266 -1.304,-1.82933 0.18,0.14133 0.20134,1.29467 0.33067,1.57733 0.19467,0.428 0.58267,0.93734 0.86667,1.32 0.30133,0.404 0.90933,0.756 0.96533,1.23067 0.21867,0.10667 1.656,1.28 1.692,1.26 -0.72,0.41333 -1.752,0.23333 -2.55333,0.228 -1.78,-0.0107 -4.99334,-2.07867 -7.02134,-3.84133 0.47867,0.416 0.672,1.42533 0.95467,1.992 0.36933,0.74133 0.94267,1.33866 1.45467,1.98 0.63333,0.79333 1.48266,1.612 1.924,2.52266 -0.67067,0.356 -1.332,-0.51466 -2.064,-0.37733 -0.0187,0.004 0.45466,0.44933 0.48533,0.484 0.14,0.152 0.21467,0.32133 0.34533,0.484 0.31334,0.388 0.81334,0.608 1.21467,0.88933 0.58933,0.412 1.51467,0.792 2.25067,0.772 -0.17467,-0.368 0.56933,-0.136 0.72666,-0.088 0.56134,0.16934 1.23467,0.34267 1.82534,0.44934 0.35866,0.064 0.85333,0.0653 1.20266,-0.044 0.48134,-0.15067 0.21734,-0.27467 0.14667,-0.61467 0.60133,-0.0253 1.15867,0.30933 1.73467,0.33867 0.18933,0.0107 0.856,0.10133 0.84933,-0.216 -0.004,-0.16534 -0.80267,-0.604 -0.92933,-0.74267 0.28666,0.316 1.01733,-0.072 1.26933,-0.24 -0.26,-0.704 -1.05067,-0.95867 -1.28667,-1.64533 0.73734,0.18266 1.54667,0.75333 2.30667,0.71066 0.37467,-0.0213 0.60533,-0.288 1.09067,-0.22266 0.36,0.0493 0.85333,0.22133 1.17466,0.34533 0.02,-0.50267 -0.94933,-1.55067 -1.304,-1.76933 0.79467,0.20933 1.30667,0.944 2.15067,1.02 0.50667,0.044 1.096,0.0787 1.556,0.056 -0.032,-0.46 -0.364,-0.79334 -0.532,-1.14267 0.604,0.43067 2.20533,0.93733 3.01733,0.91867 0.0627,-0.51734 -0.0453,-0.984 -0.21733,-1.45734 0.85333,-0.0187 1.608,1.19734 2.47333,1.09867 0.51867,-0.0587 0.2,-0.196 0.48267,-0.504 0.26267,-0.288 -0.11333,-0.192 0.36933,-0.372 0.212,-0.0773 0.51467,0.0587 0.72267,0.0787 0.36,0.0347 0.69333,0.096 1.076,0.068 -0.0387,-0.16934 0.04,-0.344 -0.036,-0.524 0.44533,0.036 4.30267,2.032 4.34267,0.85466 0.65066,0.25867 1.18533,0.64534 1.94,0.76667 0.71466,0.116 1.39066,0.14133 2.09733,0.31733 1.796,0.44934 3.40933,1.084 5.28533,1.176 -0.012,0.10934 0.0387,0.25867 0.024,0.36667 0.984,0.19467 2.08,0.31867 3.09334,0.224 0.0267,-0.0293 0.0253,-0.032 -0.005,-0.005 -0.188,0.152 -0.276,0.388 -0.36533,0.55733 0.38533,0.0613 0.84267,0.27067 1.22133,0.1 0.004,0.25867 -0.16133,0.50933 -0.36533,0.676 0.78,0.292 1.97467,0.10667 2.708,-0.0467 -0.1,0.284 -0.33867,0.56667 -0.528,0.82667 m 2.12,1.23333 c -0.86267,0.432 -1.75333,0.66 -2.58533,0.59067 -4.304,-4.32 -10.804,-5.164 -16.57867,-4.89333 -2.01467,0.0947 -3.94267,-0.34667 -5.96267,0 -1.14266,0.196 -2.22666,0.632 -3.30533,1.04133 -0.468,0.176 -1.01333,0.29867 -1.41333,0.58667 -0.45334,0.32533 -0.88,0.68133 -1.35067,0.98933 -0.496,0.32533 -1.056,0.56933 -1.55867,0.88533 -0.492,0.308 -0.956,0.656 -1.45333,0.94667 -0.99333,0.58267 -1.86933,1.21067 -2.93333,1.60133 -0.52534,0.192 -0.988,0.42267 -1.53334,0.54534 0.26134,-0.50267 0.94667,-0.83467 1.23334,-1.38267 -0.244,0.18267 -0.716,0.252 -1.03334,0.33733 -0.56533,0.15334 -1.21466,0.22934 -1.78666,0.32934 -1.04134,0.18266 -2.104,0.17333 -3.16134,0.19066 0.416,-0.23866 0.78934,-0.46133 1.16667,-0.748 0.264,-0.2 0.66933,-0.36533 0.80933,-0.696 -0.65066,-0.132 -0.99333,-0.44266 -1.55466,-0.76666 -0.56934,-0.32934 -1.11067,-0.712 -1.65067,-1.13334 -0.21733,-0.17066 -0.476,-0.364 -0.62933,-0.58666 0.14133,0.001 0.664,0.0773 0.756,-0.0227 0.16266,-0.17867 -0.18134,-0.57067 -0.28534,-0.70133 -0.29733,-0.37467 -0.58266,-0.76934 -0.88133,-1.13867 -0.36933,-0.45733 -0.992,-0.772 -1.44933,-1.144 -0.68534,-0.55733 -1.70667,-1.30933 -1.94667,-2.216 0.51067,0.55467 1.53333,0.71333 2,1.228 0.332,0.16133 0.86533,0.232 1.21733,0.368 -0.56666,-2.11067 -3.64666,-5.46533 -3.25466,-7.66 0.86533,1.50267 6,5.31733 8.148,5.32933 -1.46,-1.69466 -1.296,-4.65066 -3.55734,-5.88 -0.18666,-0.97333 -0.83733,-1.74933 -0.94266,-2.732 0.86266,1.328 3.02133,2.35467 4.048,3.81734 1.932,2.75333 2.94666,2.99333 6.10133,3.696 -1.04667,-1.528 -3.35733,-4.20667 -3.43333,-6.00667 -0.68534,-0.4 -1.132,-1.05733 -1.48667,-1.82133 0.88533,0.19333 3.13867,2.12133 4.268,2.89466 1.32267,0.90667 3.108,2.036 4.14533,3.456 0.08,-1.37733 -0.18133,-2.348 -0.36133,-3.60666 -0.944,-0.63067 -2.172,-2.26534 -3,-3.14534 1.55067,0.53467 5.308,1.74934 5.79867,3.36267 0.83333,0.19867 1.31866,1.31467 2.08,1.79467 -0.32,-1.45867 -0.84267,-2.728 -1.16534,-4.22267 1.16534,1.49467 3.168,2.308 4.70934,3.184 1.33733,0.76 2.956,2.084 4.34933,2.61467 -0.452,-0.68667 -0.656,-1.83867 -0.90267,-2.83467 1.22934,2.45067 4.12267,5.15867 5.352,0.86533 0.28267,0.876 0.54134,1.98534 0.904,2.88134 0.19734,-0.0373 0.32267,-0.13067 0.52134,-0.192 0.49866,0.848 1.22933,1.50533 1.48533,2.536 1.29333,-1.27334 2.34267,-2.82 3.62933,-4.07467 -0.332,0.88267 -0.516,1.76667 -0.94666,2.56267 -0.39467,0.72933 -1.13867,1.15733 -1.232,2.088 2.26,0.26533 5.72266,-1.19734 7.24,-2.82667 -0.41067,1.59733 -1.868,2.95067 -2.14134,4.468 2.092,0.108 6.104,-0.28 7.248,-2.32933 -0.41866,1.428 -1.59466,2.13333 -2.14266,3.42666 2.02,-0.472 3.60533,-1.416 5.09733,-2.844 0.33333,2.43867 -2.048,5.66667 -4.688,6.988"
       style="display:inline;fill:#000000;fill-opacity:1;fill-rule:nonzero;stroke:none;stroke-width:1.33333"
       id="path34521" /><path
       d="m 324.63399,125.86627 c -0.0333,-0.144 -0.0107,-0.056 -0.13333,-0.14 -0.0133,-0.056 0.007,-0.15866 -0.0267,-0.20666 -0.36933,-0.084 -0.728,-0.284 -1.04933,-0.48667 0.46933,0.316 0.98667,0.22533 1.52667,0.0893 0.61466,-0.156 1.66266,-0.0867 2.176,-0.39333 -0.16134,-0.26933 -0.34934,-0.54133 -0.452,-0.84267 0.58133,-0.0427 1.25866,0.0293 1.71733,-0.328 -0.224,-0.30933 -0.60667,-0.72133 -0.70133,-1.08 1.252,0.40134 3.204,0.15734 4.51466,0.0507 -0.14533,-0.0507 -0.34133,-0.21467 -0.47466,-0.27867 1.06666,-0.0773 2.16133,-0.096 3.18266,-0.18533 -0.0827,-0.19333 -0.13467,-0.412 -0.31333,-0.57733 0.20266,0.164 1.224,0.772 1.45066,0.74533 0.47734,-0.0573 1.072,-1.13867 1.368,-1.45467 0.10267,0.36267 0.0627,0.752 0.088,1.13067 0.044,0.004 0.12267,0.0307 0.15867,0.0613 0.35867,-0.25466 0.768,-0.54666 0.97733,-0.89733 -0.036,0.55333 0.21734,1.11067 0.82534,1.24 0.64133,0.13733 0.9,-0.36133 1.356,-0.69067 0.24266,0.3 0.28,0.67334 0.34266,1.052 0.644,-0.32266 1.21867,-1.12266 1.60667,-1.68 0.04,0.6 -0.25733,1.55067 0.484,1.632 0.50267,0.0547 1.548,-0.88533 1.916,-1.21866 -0.348,0.54933 -0.60667,0.98666 -1.03733,1.516 1.15733,0.06 1.92,-0.27067 2.93333,-0.69067 0.70133,-0.29067 1.87733,-0.86133 2.424,-1.37733 -0.288,1.112 -1.84667,1.87066 -2.71333,2.47866 0.64266,-0.27333 1.36,-0.27066 2.00933,-0.55466 0.57867,-0.252 1.224,-0.95867 1.85467,-0.99867 -0.068,0.276 -0.23867,0.54 -0.38667,0.816 0.444,-0.416 1.08667,-0.50667 1.63333,-0.66133 -0.10266,0.28133 -0.324,0.52533 -0.448,0.83466 1.07867,-0.25333 1.912,-1.00533 2.82667,-1.672 1.34133,-0.97866 2.692,-2.62266 2.212,-4.38533 -1.01867,0.20267 -1.92133,1.33333 -2.70133,1.95067 0,0 -1.61067,1.27333 -1.61067,1.27333 0,0 0.556,-1.97733 0.556,-1.97733 0.43733,-1.556 0.672,-3.064 0.56133,-4.67467 -0.75866,0.864 -0.81333,2.276 -1.78,2.90667 -0.001,0.001 -0.73066,0.47733 -0.73066,0.47733 l -0.268,-0.83067 c -0.284,-0.87733 -0.36667,-1.78666 -0.35067,-2.70533 -0.316,0.624 -0.62133,1.164 -0.868,1.54533 l -1.264,1.948 c 0.0107,-0.572 -0.076,-1.11333 -0.084,-1.67333 -10e-4,-0.11733 -0.052,-2.07733 -0.164,-1.96267 -0.564,0.57334 -0.92133,1.28534 -1.52533,1.824 -0.148,0.132 -1.41867,0.90267 -1.43067,0.94 0.19733,-0.57866 0.20533,-1.74133 0.15333,-2.37333 -1.60666,0.892 -2.632,2.132 -4.58933,2.22267 -0.148,-0.89334 0.34133,-1.86267 -0.024,-2.78267 0.064,0.16267 -1.58267,1.50933 -1.77467,1.712 -0.85333,0.892 -1.16933,2.312 -2.16666,3.044 -0.77467,0.568 -0.43734,-0.0147 -1.00934,-0.552 -0.33333,0.484 -1.42133,1.59467 -1.956,1.69467 -0.13466,0.0267 0.19467,-2.78667 0.26667,-3.03734 -0.448,0.77867 -1.072,1.46667 -1.592,2.18667 -0.10933,0.15067 -1.62666,1.62933 -1.63466,1.47467 -0.032,-0.66267 -0.0853,-1.34667 -0.0853,-1.996 -0.236,0.67333 -1.20933,2.02933 -1.92133,2.23866 -0.23733,0.0693 -0.464,0.10534 -0.67333,0.10534 -0.50267,0 -0.86934,-0.18 -1.144,-0.45467 -0.20267,1.11733 -0.696,2.14 -1.84534,2.84133 l -0.69066,0.41467 -0.0667,-0.176 c -0.244,0.57333 -0.57333,1.14 -1.10933,1.608 l -0.356,0.312 -0.412,-0.23467 c -0.164,-0.0933 -0.25867,-0.108 -0.30134,-0.108 -0.37333,0 -0.95466,1.26 -1.07866,1.564 -0.268,0.65734 -0.17867,1.108 0.624,1.46534 0.756,0.336 1.46933,0.17066 2.112,-0.42667 -0.44,-0.21333 -0.82534,-0.46133 -0.91467,-0.98133 0.61067,0.28266 1.37067,0.0613 2.00133,0.35066 m -0.648,-5.28 c 0.0547,0.208 0.40267,0.676 0.492,0.924 1.86934,-1.14133 1.67334,-3.356 1.63734,-5.44266 0.58,1.09466 0.384,3.41066 2.184,2.88 0.64666,-0.19067 3.15333,-4.52534 3.12266,-5.15334 -0.005,-0.12266 -0.012,-0.11866 -0.0187,0.012 0.42933,1.02 0.32,2.15867 0.416,3.28534 1.24666,-1.436 1.84933,-3.50667 2.84133,-5.07734 0.0973,1.53467 0.0587,3.12267 0.0227,4.668 0.38134,-0.496 0.924,-0.65066 1.44534,-0.824 -0.0213,0.39067 0.12,0.88 0.028,1.27467 0.99733,-2.116 3.48933,-4.98533 5.11866,-7.26667 0.23067,1.58 0.112,3.232 0.19734,4.85467 1.61333,-0.224 3.9,-2.84 4.352,-4.31067 -0.005,1.30134 0.0173,2.60534 -0.0147,3.90534 1.54133,-1.37067 1.608,-3.62267 2.89867,-4.85867 0.092,1.6 0.048,3.24667 0.0227,4.85867 0.92267,-1.424 2.576,-4.972 2.56267,-6.63867 0,2.576 -0.952,5.47733 -0.15067,7.956 0.75467,-0.492 0.97867,-2.09467 1.204,-2.948 0.44,-1.664 0.912,-2.604 1.824,-3.95333 0.14534,3.20933 0.076,6.28 -0.804,9.40933 2.23734,-1.768 3.89867,-4.28533 5.41867,-6.62 -1.13867,3.53867 -0.56133,7.08933 -3.48,9.92267 -2.76133,2.68133 -6.40533,3.86 -10.212,3.76533 -2.66933,-0.0667 -4.964,-1.18533 -7.51067,-1.39067 -4.41466,-0.356 -8.45466,0.79067 -12.19599,3.092 -3.19734,1.96667 -7.22934,2.20134 -9.82134,-1.192 0.33334,0.43734 3.34134,0.78934 3.85867,0.55067 1.136,-0.52267 1.296,-3.87333 3.09733,-2.84667 0.85867,-0.74933 1.08934,-1.82666 1.464,-2.836"
       style="display:inline;fill:#000000;fill-opacity:1;fill-rule:nonzero;stroke:none;stroke-width:1.33333"
       id="path34525" /></g><g
     inkscape:groupmode="layer"
     id="g5146"
     inkscape:label="Bolian Brows"
     style="display:none"><path
       id="path5132"
       style="opacity:0.199997;fill:#000000;fill-opacity:1;fill-rule:nonzero;stroke:none;stroke-width:1.33333"
       d="m 309.64453,119.3418 c 0,0 -4.90065,5.52744 -7.19531,7.30078 -2.29334,1.772 -17.3262,-6.15781 -25.24219,-3.75781 l -14.82226,6.27734 c 2.78932,-0.52267 9.76468,1.91895 12.02734,1.12695 2.26134,-0.792 13.95488,0.61713 16.04687,1.31446 2.09333,0.69733 6.2779,3.4882 6.97657,4.18554 0.34056,0.34057 0.5927,1.76397 0.68554,3.21094 h 2.02149 c 0.22224,-0.65873 0.5156,-1.33579 0.94336,-2.0293 1.316,-2.13466 2.59887,-4.08827 3.76953,-6.34961 4.05866,-7.83732 4.78906,-11.27929 4.78906,-11.27929 z m 14.00813,16.48887 c 2.63467,-2.41333 7.436,-4.57466 10.4,-5.44666 2.964,-0.872 10.288,-0.17467 10.288,-0.17467 l 3.31333,-5.05733 -6.80133,-2.964 -16.74,5.92933 c 0,0 -4.01067,4.01067 -4.53333,5.23067 -0.52267,1.22133 1.172,5.14 4.07333,2.48266" /><path
       id="path6819"
       style="fill:#cd976d;fill-opacity:1;stroke:none;stroke-width:1px;stroke-linecap:butt;stroke-linejoin:miter;stroke-opacity:1"
       d="m 264.80686,126.3412 c 0.28013,-1.75987 1.94013,-4.67309 2.897,-6.27682 0.95687,-1.60373 1.81163,-2.7449 2.57511,-3.43348 0.76348,-0.68858 0.82912,-0.73445 1.60944,-0.96566 0.78032,-0.23121 1.32477,-0.14387 3.00429,-0.1073 1.67952,0.0366 18.53541,1.36802 18.53541,1.36802 l 2.46781,0.2146 7.10837,-0.0805 3.64807,0.21459 1.60944,1.71674 0.42919,2.5751 -2.68241,5.90129 -1.82403,1.07296 h -3.54077 l -12.23176,-2.36051 -13.62661,-1.39485 -3.11159,0.53648 -2.46781,1.93133 -2.03863,2.14592 h -1.18026 c 0,0 -1.46038,-1.29807 -1.18026,-3.05794 z m 82.06999,-2.21816 c -1.60182,0.46399 -3.40827,0.12496 -6.411,0.64488 -3.00274,0.51993 -8.62703,1.83412 -11.49428,2.84513 -2.86725,1.01101 -4.15497,2.20079 -5.76611,2.57957 -1.61114,0.37878 -2.86092,-0.34338 -3.98316,-1.06218 -1.12224,-0.71884 -1.49397,-1.37317 -1.97263,-2.84512 -0.47866,-1.47195 -0.76212,-3.55977 -0.0379,-5.12121 0.72419,-1.56144 1.86542,-2.20984 3.83143,-3.2624 1.96601,-1.05256 6.057,-2.20003 9.36993,-3.03479 3.31293,-0.83476 6.88934,-1.6133 9.59752,-2.65545 2.70818,-1.04215 3.94065,-1.65945 5.50057,-1.59326 1.55992,0.0662 1.99285,-0.0823 3.33827,1.21391 1.34542,1.29621 3.00419,5.20431 2.88306,7.09383 -0.12113,1.88952 -0.75759,2.86611 -1.66916,3.60382 -0.91156,0.73771 -1.58472,1.12928 -3.18654,1.59327 z" /><path
       id="path5134"
       style="fill:#000000;fill-opacity:1;fill-rule:nonzero;stroke:none;stroke-width:1.33333"
       d="m 323.65266,135.83067 c 0,0 4.52,-5.27333 10.924,-5.83866 z m -24.64027,1.38347 c 0,0 -4.92,-5.284 -8.56533,-6.196 -3.644,-0.91067 -13.848,-1.64 -16.03467,-0.728 0,0 12.39067,-0.18267 15.124,1.82133 2.73334,2.00534 10.56934,6.92534 9.476,5.10267" /><path
       id="path5286"
       style="color:#000000;fill:#000000;-inkscape-stroke:none"
       d="m 295.89258,117.14257 c 0,0 2.80005,0.0409 5.40288,0.0411 1.51573,1.2e-4 2.31292,0.11455 3.41743,0.27136 1.10451,0.15681 2.13843,0.51512 2.76369,1.12658 0.62526,0.61146 0.86503,1.2003 0.78046,1.92668 -0.0846,0.72637 -0.35201,1.55913 -0.62695,2.43554 -0.47287,1.50736 -1.31325,3.16447 -1.86146,3.87968 -0.54821,0.71521 -0.8937,0.87664 -1.28621,1.02418 -0.39251,0.14754 -0.69826,0.17521 -1.66015,0.17773 -0.96189,0.003 -4.25631,-0.30597 -7.26563,-0.88867 -3.00932,-0.5827 -6.26662,-1.27641 -8.87109,-1.53906 -2.53609,-0.25576 -5.32766,-0.70802 -7.90821,-0.9668 -2.58054,-0.25878 -4.94358,-0.34159 -6.71093,0.23047 -1.72236,0.55749 -2.69277,1.48761 -3.33985,2.28906 -0.64708,0.80145 -1.06098,1.37707 -1.38643,1.61213 -0.32546,0.23506 -0.7536,0.33085 -0.92103,0.30411 -0.16743,-0.0267 -0.35958,-0.13042 -0.45895,-0.21541 -0.0994,-0.085 -0.27952,-0.25532 -0.53842,-0.6196 -0.25889,-0.36428 -0.70346,-1.17128 -0.78692,-1.37714 0.0182,0.18248 0.19632,1.08226 0.34818,1.6671 0.15186,0.58485 0.22757,0.80311 0.47324,1.06907 0.26163,0.26355 0.53398,0.32829 0.90124,0.34879 0.36726,0.0205 0.71873,-0.0795 1.32617,-0.33789 0.85568,-0.36396 1.2362,-1.0988 1.82032,-1.82226 0.58411,-0.72347 1.34629,-1.47325 2.87109,-1.9668 1.4798,-0.47899 3.76645,-0.43989 6.30273,-0.18555 2.53628,0.25435 5.32826,0.70662 7.90821,0.9668 2.51155,0.25328 5.75736,0.94025 8.77929,1.52539 3.02194,0.58514 6.12216,0.88708 7.25012,0.90234 1.12797,0.0153 1.47557,-0.0477 1.99793,-0.18359 0.52236,-0.13585 0.79111,-0.32735 1.47852,-1.00586 0.68741,-0.67851 1.94013,-3.03067 2.52071,-4.70846 0.28169,-0.81404 0.52772,-1.54497 0.63868,-2.49805 0.11095,-0.95307 -0.0742,-1.835 -1.15586,-2.89283 -0.65921,-0.64465 -2.0278,-0.96519 -3.24572,-1.13373 -1.21792,-0.16853 -2.34723,-0.1342 -4.37414,0.0276 -2.02691,0.1618 -4.58294,0.51599 -4.58294,0.51599 z m 45.34507,-5.67927 c -1.45089,0.49868 -2.95646,1.40533 -2.95646,1.40533 0,0 1.4859,-0.34775 2.90515,-0.83556 1.41925,-0.4878 3.01118,-0.63739 3.77161,-0.63709 0.93562,3.6e-4 1.58565,0.008 2.125,0.14062 0.53934,0.13253 1.21009,0.54212 1.94215,1.40053 0.73206,0.8584 1.84915,2.94199 2.05693,4.84412 0.20778,1.90213 -0.18455,2.74312 -0.82539,3.76433 -0.64717,1.03131 -1.05934,1.16637 -2.52031,1.8177 -1.29234,0.57618 -3.49961,0.21311 -6.40821,0.72266 -2.83697,0.497 -5.53833,1.10035 -8.72167,2.12147 -3.21017,1.02972 -10.00782,4.28868 -10.00782,4.28868 0,0 7.29609,-2.45807 10.36616,-3.44285 3.09689,-0.99338 5.73509,-1.49239 8.53521,-1.98293 2.7285,-0.47799 4.90493,-0.0974 6.74988,-0.63398 1.69353,-0.49257 2.72862,-1.36088 3.38895,-2.41315 0.66666,-1.06236 1.23052,-2.2734 0.97773,-4.35808 -0.25279,-2.08468 -0.99766,-4.01513 -2.16136,-5.26217 -1.16371,-1.24704 -1.89437,-1.71791 -2.59749,-1.89068 -0.70312,-0.17277 -2.18244,-0.12548 -3.13622,-0.0119 -0.95377,0.11355 -2.03294,0.4643 -3.48384,0.96298 z" /><path
       id="path5290"
       style="color:#000000;fill:#000000;fill-opacity:0.3;-inkscape-stroke:none"
       d="m 274.75781,115.11328 c -1.10243,-0.008 -1.70588,-0.0204 -2.33398,0.0137 -0.62811,0.0341 -1.23774,0.22351 -2.08985,0.75977 -0.95474,0.60084 -1.71824,1.99891 -2.46197,3.1823 -0.74373,1.18339 -1.01527,1.89234 -1.40871,2.73397 -0.81127,1.73544 -1.60295,3.94799 -1.60295,3.94799 0,0 1.0576,-1.95855 1.93756,-3.50945 0.46558,-0.82057 1.15204,-1.77323 1.86615,-2.9095 0.71412,-1.13627 1.53282,-2.17776 2.20313,-2.59961 0.77294,-0.48643 1.1232,-0.55359 1.61133,-0.60742 0.5852,-0.0645 1.43018,-0.0662 2.60147,-0.0516 2.21844,0.0276 5.73352,0.0858 9.00503,0.25211 3.16868,0.16105 9.79877,0.62762 9.79877,0.62762 0,0 -6.4724,-0.91902 -9.67481,-1.14284 -3.17181,-0.22168 -7.03444,-0.67964 -9.45117,-0.69701 z m 49.71172,0.88115 c -3.52982,1.07707 -7.14521,3.47898 -7.73815,5.52142 -0.59294,2.04244 -0.19285,3.87615 0.17694,4.98403 0.38201,1.14447 1.12651,2.0738 1.90613,2.78528 0.75973,0.61915 2.78979,0.75456 2.78979,0.75456 -0.0413,-0.15181 -1.43012,-0.79712 -2.11401,-1.22461 -0.61773,-0.56374 -1.35633,-1.74443 -1.68828,-2.73894 -0.34418,-1.0311 -0.78934,-2.16397 -0.092,-4.35134 0.69734,-2.18737 3.84125,-3.73057 7.06823,-4.77923 3.16982,-1.02664 12.4541,-3.80176 12.4541,-3.80176 0,0 -9.45862,1.78047 -12.7627,2.85059 z" /><path
       id="path6817"
       style="fill:#ffffff;fill-opacity:0.2;stroke:none;stroke-width:1px;stroke-linecap:butt;stroke-linejoin:miter;stroke-opacity:1"
       d="m 305.04292,125 c 0,0 0.5641,-1.80599 0.53648,-3.00429 -0.0276,-1.1983 -1.0205,-1.70484 -2.81652,-2.38734 -1.79602,-0.6825 -15.53112,-0.61695 -15.10194,-0.50966 0.42919,0.1073 11.19109,1.22666 12.71459,1.68992 1.52351,0.46326 3.15391,1.27767 3.54078,2.03862 0.38687,0.76095 1.12661,2.17275 1.12661,2.17275 z m 25.42918,-7.18884 c 0,0 9.26366,-4.33005 12.12447,-4.72103 2.86081,-0.39098 3.06332,-0.52594 4.29184,0.42918 1.22852,0.95512 1.71674,4.72103 1.71674,4.72103 0,0 -2.2956,-1.77823 -3.54077,-2.14592 -1.24517,-0.36769 -1.19626,-0.27397 -3.64807,-0.1073 -2.45181,0.16667 -10.94421,1.82404 -10.94421,1.82404 z" /></g><g
     inkscape:groupmode="layer"
     id="g38252"
     inkscape:label="Denobulan Eyebrows"
     style="display:none"><path
       id="path38236"
       style="opacity:0.199997;fill:#000000;fill-opacity:1;fill-rule:nonzero;stroke:none;stroke-width:1.33333"
       d="m 273.75391,124.34766 -11.36914,4.81445 c 2.78931,-0.52267 9.76468,1.91895 12.02734,1.12695 2.26134,-0.792 13.95489,0.61713 16.04687,1.31446 2.09333,0.69732 6.2779,3.4882 6.97657,4.18554 0.34056,0.34057 0.5927,1.76397 0.68554,3.21094 h 2.02149 c 0.22224,-0.65873 0.5156,-1.33579 0.94336,-2.0293 0.41221,-0.66863 0.81156,-1.31085 1.21484,-1.95898 -1.22343,-1.52656 -2.64687,-2.83793 -4.43555,-4.06055 -2.47472,-1.69156 -3.68031,-2.24442 -8.95312,-3.79297 -2.97874,-0.87481 -9.69577,-1.97939 -15.1582,-2.81054 z" /><path
       style="fill:#383838;fill-opacity:1;stroke:none;stroke-width:1px;stroke-linecap:butt;stroke-linejoin:miter;stroke-opacity:1"
       d="m 271.89905,108.76972 c 0,0 -1.58224,2.1011 -2.40943,3.66936 -0.82719,1.56826 -1.66313,4.04978 -1.66913,6.22133 -0.006,2.17155 0.64794,4.86497 1.66913,6.37306 1.02119,1.50809 1.77477,1.90475 3.49002,2.57958 1.71525,0.6748 4.22043,0.38795 6.67654,0.7587 2.45611,0.37075 8.0422,1.51739 8.0422,1.51739 0,0 -0.35932,-1.77755 -1.37864,-2.85051 -1.01932,-1.07296 -3.34278,-3.261 -4.93562,-4.56009 -1.59284,-1.29909 -3.16587,-2.02247 -4.56009,-3.27253 -1.39422,-1.25006 -2.9449,-2.90068 -3.75536,-4.18455 -0.81046,-1.28387 -1.15814,-2.14693 -1.3412,-3.21888 -0.18306,-1.07195 0.17158,-3.03286 0.17158,-3.03286 z"
       id="path38262"
       sodipodi:nodetypes="czzzzzczzzzzc" /><path
       d="m 323.65266,135.83067 c 2.63467,-2.41333 7.436,-4.57466 10.4,-5.44666 2.964,-0.872 10.288,-0.17467 10.288,-0.17467 l 3.31333,-5.05733 -6.80133,-2.964 c 0,0 -13.18532,2.54573 -15.98893,6.03663 -2.8036,3.49089 -3.79607,5.78105 -4.31873,7.00105 -0.52267,1.22133 0.20633,3.26232 3.10766,0.60498"
       style="opacity:0.199997;fill:#000000;fill-opacity:1;fill-rule:nonzero;stroke:none;stroke-width:1.33333"
       id="path38234"
       sodipodi:nodetypes="csccczcc" /><path
       style="fill:#383838;fill-opacity:1;stroke:none;stroke-width:1px;stroke-linecap:butt;stroke-linejoin:miter;stroke-opacity:1"
       d="m 334.54936,129.45279 c 0,0 1.68043,-1.18435 3.05794,-1.93133 1.37751,-0.74698 3.71509,-1.97351 5.25751,-2.41416 1.54242,-0.44065 2.55229,0.24052 3.80901,-0.48284 1.25672,-0.72336 2.29813,-2.1597 2.95064,-3.86266 0.65251,-1.70296 1.03338,-4.15552 0.48284,-6.06223 -0.55054,-1.90671 -2.53811,-3.29261 -3.48713,-4.66738 -0.94902,-1.37477 -2.25322,-3.54077 -2.25322,-3.54077 0,0 0.12038,2.86276 -0.59013,5.41845 -0.71051,2.55569 -2.85055,6.57223 -4.39914,9.49571 -1.54859,2.92348 -4.82832,8.04721 -4.82832,8.04721 z"
       id="path38296"
       sodipodi:nodetypes="czzzzzzczzc" /><path
       id="path38238"
       style="fill:#000000;fill-opacity:1;fill-rule:nonzero;stroke:none;stroke-width:1.33333"
       d="m 323.65266,135.83067 c 0,0 4.52,-5.27333 10.924,-5.83866 z m -24.64027,1.38347 c 0,0 -4.92,-5.284 -8.56533,-6.196 -3.644,-0.91067 -13.848,-1.64 -16.03467,-0.728 0,0 12.39067,-0.18267 15.124,1.82133 2.73334,2.00534 10.56934,6.92534 9.476,5.10267" /><path
       id="path38256"
       style="color:#000000;fill:#000000;-inkscape-stroke:none"
       d="m 271.94531,108.66406 c 0,0 -2.03447,1.90304 -2.89843,3.54102 -0.86388,1.63782 -1.72022,4.15432 -1.72657,6.45312 -0.006,2.27307 0.63527,5.00136 1.75586,6.65625 1.0624,1.56895 1.98978,2.08268 3.72071,2.76367 1.91451,0.7532 4.4163,0.42954 6.78515,0.78711 2.4163,0.36474 8.01563,1.51368 8.01563,1.51368 l 0.74023,0.15234 -0.15039,-0.74023 c 0,0 -0.33703,-1.86732 -1.50586,-3.09766 -1.04685,-1.10194 -3.36104,-3.2792 -4.98242,-4.60156 -1.64733,-1.34354 -3.21459,-2.06854 -4.54102,-3.25782 -1.36853,-1.22702 -2.90597,-2.87607 -3.66601,-4.08007 -0.79093,-1.25292 -1.09861,-2.02287 -1.27149,-3.03516 -0.074,-0.43329 -0.20339,-1.18748 -0.23242,-1.79492 -0.0302,-0.63162 -0.043,-1.25977 -0.043,-1.25977 z m -0.73437,2.55274 c -0.0113,0.23101 -0.0127,0.45773 0.0234,0.66992 0.19324,1.1316 0.58212,2.08753 1.4121,3.40234 0.0868,0.13743 0.18501,0.27928 0.28516,0.42188 0.006,0.32037 0.0199,0.91256 0.0684,1.76367 0.0648,1.14586 0.18039,2.50273 0.41602,3.4043 0.45465,1.73961 1.12847,3.51571 2.19336,4.86523 0.5364,0.67978 1.44674,1.38335 2.25,1.94336 -0.85079,-0.0551 -1.66336,-0.0825 -2.41016,-0.13477 -0.19926,-0.0533 -0.41544,-0.11558 -0.65039,-0.1914 -0.84519,-0.27275 -1.84093,-0.70211 -2.41602,-1.25391 -1.18412,-1.13617 -2.07457,-3.4687 -2.5039,-5.34765 -0.42346,-1.85329 -0.31354,-4.22817 -0.0527,-5.58399 0.12484,-0.6491 0.58116,-1.91788 1.00195,-3 0.14387,-0.36993 0.26115,-0.65875 0.38282,-0.95898 z m -0.79492,0.63867 c -0.0206,0.0525 -0.0339,0.0852 -0.0547,0.13867 -0.42413,1.09063 -0.88196,2.34214 -1.02539,3.08789 -0.27578,1.43388 -0.39316,3.82909 0.0547,5.78906 0.44198,1.9343 1.31195,4.31716 2.64649,5.59766 0.17942,0.17216 0.38403,0.32835 0.60351,0.4707 -1.30682,-0.5347 -1.86496,-0.89872 -2.73632,-2.18554 -0.92179,-1.36129 -1.58971,-4.02177 -1.58399,-6.0918 0.006,-2.04429 0.82083,-4.49155 1.61133,-5.99023 0.16919,-0.32077 0.32577,-0.57524 0.48438,-0.81641 z m 3.03515,4.54883 c 0.86444,1.08536 1.98989,2.23313 3.03906,3.17382 0.14738,0.13214 0.29575,0.25564 0.44532,0.37696 8.5e-4,0.0668 0.004,0.14023 0.01,0.22265 0.0268,0.36146 0.11113,0.8799 0.33985,1.52539 0.45657,1.28859 1.73407,3.91874 3.00586,5.24024 0.47242,0.4909 1.12655,0.94643 1.76757,1.33398 -0.84873,-0.15647 -1.66881,-0.30086 -2.32812,-0.40039 -0.28264,-0.0427 -0.56523,-0.0745 -0.8457,-0.10351 -0.20582,-0.13316 -0.42821,-0.28105 -0.67383,-0.45117 -0.80162,-0.55521 -1.72973,-1.27937 -2.20899,-1.88672 -0.99536,-1.2614 -1.65649,-2.98064 -2.10156,-4.6836 -0.21423,-0.81973 -0.33823,-2.17167 -0.40234,-3.30468 -0.022,-0.38927 -0.0361,-0.73271 -0.0469,-1.04297 z m 4.01758,3.96093 c 1.17484,0.86332 2.39904,1.52084 3.59961,2.5 1.5643,1.27581 3.89689,3.47361 4.88867,4.51758 0.5314,0.55937 0.82642,1.28399 1.01758,1.85938 -0.49186,-0.10043 -1.83902,-0.37523 -3.33008,-0.66407 -0.20227,-0.10135 -0.42188,-0.21388 -0.66601,-0.34765 -0.80384,-0.44043 -1.75663,-1.041 -2.32618,-1.63281 -1.15303,-1.1981 -2.46646,-3.85241 -2.89453,-5.06055 -0.16876,-0.4763 -0.24974,-0.86919 -0.28906,-1.17188 z" /><path
       id="path38294"
       style="color:#000000;fill:#000000;-inkscape-stroke:none"
       d="m 344.16016,106.2207 c 0,0 -0.18444,3.10588 -0.86524,5.55469 -0.67732,2.43631 -2.81027,6.47203 -4.35937,9.39649 -1.52502,2.87896 -4.80664,8.01171 -4.80664,8.01171 l 0.70898,0.67774 c 0,0 1.6752,-1.17776 3.00781,-1.90039 1.37076,-0.74332 3.72117,-1.96306 5.15625,-2.37305 0.67807,-0.19371 1.23246,-0.14275 1.85352,-0.11719 0.62105,0.0256 1.331,0.0123 2.06836,-0.41211 1.40123,-0.80654 2.48547,-2.33597 3.16797,-4.11718 0.68663,-1.79203 1.09538,-4.30533 0.49609,-6.38086 -0.6216,-2.15281 -2.57102,-3.65292 -3.55664,-4.8125 -1.06158,-1.24895 -2.55897,-3.26771 -2.87109,-3.52735 z m 0.64648,2.47461 c 0.0676,0.48579 0.15326,1.15054 0.23438,1.99414 0.14156,1.4723 0.22988,3.23917 0.0449,4.34375 -0.37996,2.26928 -1.41891,4.42094 -2.59766,6.40625 -1.06806,1.79893 -3.82771,4.74537 -4.2207,5.16211 -0.31768,0.16787 -0.63692,0.33866 -0.89844,0.48047 -0.59995,0.32534 -0.76326,0.47436 -1.31055,0.82813 0.94575,-1.49623 2.5421,-3.96905 3.76172,-6.27149 1.54807,-2.9225 3.69381,-6.92064 4.4375,-9.5957 0.32936,-1.18471 0.47771,-2.35775 0.54883,-3.34766 z m 0.54492,0.30078 c 0.24931,0.40403 0.50636,0.81175 0.85742,1.32032 0.11665,0.16897 0.24623,0.33452 0.38086,0.5 0.11665,0.31096 0.23875,0.65133 0.36328,1.01757 0.46354,1.36317 0.90684,3.01119 0.86524,4.03516 -0.0862,2.12022 -1.28617,4.38043 -2.16602,5.89258 -0.60342,1.03707 -1.66971,2.15799 -2.24218,2.72656 -0.21757,0.0276 -0.44427,0.0703 -0.6836,0.13867 -0.94182,0.26907 -2.09102,0.7862 -3.17187,1.32032 1.04743,-1.16165 2.59495,-2.95983 3.36328,-4.25391 1.19371,-2.01054 2.2662,-4.21163 2.66211,-6.57617 0.20298,-1.21233 0.10215,-2.98733 -0.041,-4.47657 -0.0608,-0.63211 -0.12739,-1.18664 -0.1875,-1.64453 z m 2.1211,2.81641 c 0.90061,0.96411 1.83679,1.92577 2.15429,3.02539 0.50179,1.73787 0.14963,4.13025 -0.46875,5.74414 -0.62252,1.62469 -1.62216,2.9692 -2.73437,3.60938 -0.51937,0.29894 -0.94368,0.30527 -1.52735,0.28125 -0.2241,-0.009 -0.47513,-0.0215 -0.74023,-0.0234 0.60276,-0.62617 1.40686,-1.53698 1.92969,-2.43555 0.88831,-1.52671 2.13932,-3.83202 2.23242,-6.12305 0.0464,-1.14318 -0.39087,-2.72246 -0.8457,-4.07812 z" /></g><g
     inkscape:groupmode="layer"
     id="g7"
     inkscape:label="Vulcan Eyebrows"
     style="display:none"><path
       d="m 323.65266,135.83067 c 2.63467,-2.41333 7.436,-4.57466 10.4,-5.44666 2.964,-0.872 10.288,-0.17467 10.288,-0.17467 0,0 2.78651,-4.21575 3.22858,-6.15903 0.44207,-1.94328 0.054,-5.22317 0.054,-5.22317 l -6.77053,3.36087 -16.74,5.92933 c 0,0 -4.01067,4.01067 -4.53333,5.23067 -0.52267,1.22133 1.172,5.14 4.07333,2.48266"
       style="opacity:0.199997;fill:#000000;fill-opacity:1;fill-rule:nonzero;stroke:none;stroke-width:1.33333"
       id="path3"
       sodipodi:nodetypes="csczccccc" /><path
       id="path4"
       style="opacity:0.199997;fill:#000000;fill-opacity:1;fill-rule:nonzero;stroke:none;stroke-width:1.33333"
       d="m 309.64453,119.3418 c 0,0 -4.90065,5.52744 -7.19531,7.30078 -2.29334,1.772 -17.3262,-6.15781 -25.24219,-3.75781 l -16.7955,-7.25953 c 3.1283,0.83326 11.73792,15.45582 14.00058,14.66382 2.26134,-0.792 13.95488,0.61713 16.04687,1.31446 2.09333,0.69733 6.2779,3.4882 6.97657,4.18554 0.34056,0.34057 0.5927,1.76397 0.68554,3.21094 h 2.02149 c 0.22224,-0.65873 0.5156,-1.33579 0.94336,-2.0293 1.316,-2.13466 2.59887,-4.08827 3.76953,-6.34961 4.05866,-7.83732 4.78906,-11.27929 4.78906,-11.27929 z"
       sodipodi:nodetypes="cccccccccccc" /><path
       id="path5"
       style="fill:#000000;fill-opacity:1;fill-rule:nonzero;stroke:none;stroke-width:1.33333"
       d="m 323.65266,135.83067 c 0,0 4.52,-5.27333 10.924,-5.83866 z m -24.64027,1.38347 c 0,0 -4.92,-5.284 -8.56533,-6.196 -3.644,-0.91067 -13.848,-1.64 -16.03467,-0.728 0,0 12.39067,-0.18267 15.124,1.82133 2.73334,2.00534 10.56934,6.92534 9.476,5.10267" /><path
       id="path6"
       style="fill:#000000;fill-opacity:1;fill-rule:nonzero;stroke:none;stroke-width:1.33333"
       d="m 307.43626,124.16934 c 0,0 -1.78667,3.572 -3.572,4.86267 -1.78667,1.29066 -14.38449,-1.68331 -19.73408,-2.7231 -2.17287,-0.42234 -3.99979,-0.89911 -8.2926,-1.79314 -8.16729,-1.70094 -12.28677,-7.62219 -15.28159,-9.00873 0,0 7.79744,1.74755 13.86411,3.27982 6.06667,1.53228 7.45953,1.77736 13.09392,2.7103 5.63439,0.93293 15.35691,2.27485 16.84624,2.27485 1.488,0 3.076,0.39733 3.076,0.39733 m 15.99973,3.8984 c 2.268,-2.268 4.144,-5.27333 9.98267,-6.404 5.83866,-1.13067 8.98712,-2.11136 11.67614,-2.75274 2.68903,-0.64138 3.27219,-2.13865 3.20439,-2.01171 -0.82395,1.54272 -2.30739,6.85791 -5.79926,7.59217 -3.49188,0.73426 -5.12661,1.31628 -10.0226,2.06961 -4.89734,0.75334 -12.432,4.89734 -9.04134,1.50667"
       sodipodi:nodetypes="ccssczzsccszszcc" /></g></svg>
