<?xml version="1.0" encoding="UTF-8" standalone="no"?>
<!-- Created with Inkscape (http://www.inkscape.org/) -->

<svg
   version="1.1"
   id="svg13526"
   width="400"
   height="400"
   viewBox="0 0 400 400"
   sodipodi:docname="Eyes1.svg"
   inkscape:version="1.2.2 (b0a8486, 2022-12-01)"
   xmlns:inkscape="http://www.inkscape.org/namespaces/inkscape"
   xmlns:sodipodi="http://sodipodi.sourceforge.net/DTD/sodipodi-0.dtd"
   xmlns="http://www.w3.org/2000/svg"
   xmlns:svg="http://www.w3.org/2000/svg">
  <defs
     id="defs13530" />
  <sodipodi:namedview
     id="namedview13528"
     pagecolor="#ffffff"
     bordercolor="#666666"
     borderopacity="1.0"
     inkscape:showpageshadow="2"
     inkscape:pageopacity="0.0"
     inkscape:pagecheckerboard="0"
     inkscape:deskcolor="#d1d1d1"
     showgrid="false"
     inkscape:zoom="16.36"
     inkscape:cx="292.9401"
     inkscape:cy="121.82152"
     inkscape:window-width="1988"
     inkscape:window-height="1038"
     inkscape:window-x="2435"
     inkscape:window-y="123"
     inkscape:window-maximized="0"
     inkscape:current-layer="g144494">
    <inkscape:page
       x="0"
       y="0"
       id="page13532"
       width="400"
       height="400" />
  </sodipodi:namedview>
  <g
     id="g13534"
     inkscape:groupmode="layer"
     inkscape:label="Page 1">
    <path
       d="m 336.80719,143.55774 c 0.612,-0.15067 0.89867,-0.34267 0.89867,-0.34267 l 2.96666,-2.912 -0.0587,-5.84266 -7.29467,-0.92934 c 0,0 -6.65466,1.56934 -8.02133,2.90667 -1.36533,1.336 -2.03467,4.272 -2.064,4.35867 0,0 0.14533,0.90133 0.69867,1.01733 0.552,0.116 3.57466,2.03467 4.64933,1.976 1.076,-0.0573 8.22533,-0.232 8.22533,-0.232"
       style="fill:#ffffff;fill-opacity:1;fill-rule:nonzero;stroke:none;stroke-width:1.33333"
       id="path14542" />
    <path
       d="m 268.14893,138.39214 4.85866,-2.45733 15.63734,-0.55867 5.75333,2.68133 3.072,3.016 -1.22933,1.56267 -3.63067,0.224 c 0,0 -2.34533,1.84267 -4.85867,1.78667 -2.51333,-0.056 -14.464,-1.284 -14.464,-1.284 l -5.41733,-4.412 z"
       style="fill:#ffffff;fill-opacity:1;fill-rule:nonzero;stroke:none;stroke-width:1.33333"
       id="path14546" />
    <path
       d="m 277.90026,135.41161 c -0.36667,0.83066 -0.57333,1.748 -0.57333,2.71333 0,2.252 1.13333,4.46 2.82933,5.684 l 6.352,0.59733 c 2.51733,-0.97866 4.304,-3.41866 4.304,-6.28133 0,-0.84267 -0.16133,-1.64667 -0.444,-2.392 -3.116,-0.96667 -8.88667,-0.65067 -12.468,-0.32133"
       style="fill:#754324;fill-opacity:1;fill-rule:nonzero;stroke:none;stroke-width:1.33333"
       id="path14550" />
    <path
       d="m 286.93853,138.12521 c 0,1.584 -1.284,2.86933 -2.86934,2.86933 -1.584,0 -2.868,-1.28533 -2.868,-2.86933 0,-1.584 1.284,-2.86934 2.868,-2.86934 1.58534,0 2.86934,1.28534 2.86934,2.86934"
       style="fill:#000000;fill-opacity:1;fill-rule:nonzero;stroke:none;stroke-width:1.33333"
       id="path14554" />
    <path
       d="m 280.32893,143.35934 6.11066,0.57333 c 2.37734,-0.96933 3.908,-3.23733 3.908,-5.808 0,-0.68 -0.11333,-1.356 -0.33733,-2.012 -3.06133,-0.85733 -8.55867,-0.55066 -11.78933,-0.264 -0.28534,0.72934 -0.42934,1.49334 -0.42934,2.276 0,2.02534 0.992,4.06534 2.53734,5.23467 m 6.244,1.52 -6.58534,-0.61867 -0.10266,-0.0747 c -1.836,-1.324 -3.02134,-3.704 -3.02134,-6.06134 0,-1.00266 0.20534,-1.97866 0.612,-2.9 l 0.10934,-0.25066 0.27333,-0.0253 c 4.06533,-0.37333 9.56,-0.61866 12.64667,0.34134 l 0.216,0.0667 0.0813,0.212 c 0.31467,0.828 0.47467,1.688 0.47467,2.556 0,2.99334 -1.80667,5.628 -4.60134,6.71467 z"
       style="fill:#000000;fill-opacity:1;fill-rule:nonzero;stroke:none;stroke-width:1.33333"
       id="path14558" />
    <path
       d="m 283.14293,137.38521 c 0,0.86933 -0.704,1.57333 -1.57334,1.57333 -0.86933,0 -1.57333,-0.704 -1.57333,-1.57333 0,-0.86934 0.704,-1.57334 1.57333,-1.57334 0.86934,0 1.57334,0.704 1.57334,1.57334"
       style="fill:#ffffff;fill-opacity:1;fill-rule:nonzero;stroke:none;stroke-width:1.33333"
       id="path14562" />
    <path
       d="m 297.73679,141.40534 c 0,0 -3.644,-6.56 -8.92933,-6.924 -5.284,-0.36533 -12.756,0.54667 -15.85333,0.54667 -3.09867,0 -6.196,3.644 -6.196,3.644 0,0 4.00933,4.556 7.10666,4.92 l -4.556,-4.92 c 0,0 2.36934,-1.82267 5.468,-2.004 3.09734,-0.18267 11.48,-0.18267 14.03067,0.18133 2.552,0.36533 8.92933,4.556 8.92933,4.556"
       style="fill:#000000;fill-opacity:1;fill-rule:nonzero;stroke:none;stroke-width:1.33333"
       id="path14566" />
    <path
       d="m 332.48479,134.22507 c -1.16,0.44934 -3.236,0.37867 -4.04533,0.812 -1.47733,0.792 -2.084,1 -3.4,3.292 0.27333,2.52667 1.68267,4.336 3.54667,5.112 l 6.40533,-0.23466 c 1.636,-1.26534 2.6,-3.54 2.6,-5.868 0,-0.99867 -0.2,-1.94534 -0.552,-2.804 -1.30267,-0.12934 -2.904,-0.25467 -4.55467,-0.30934"
       style="fill:#754324;fill-opacity:1;fill-rule:nonzero;stroke:none;stroke-width:1.33333"
       id="path14578" />
    <path
       d="m 334.71679,138.09081 c 0,1.63733 -1.328,2.96533 -2.96533,2.96533 -1.63733,0 -2.96533,-1.328 -2.96533,-2.96533 0,-1.63734 1.328,-2.96534 2.96533,-2.96534 1.63733,0 2.96533,1.328 2.96533,2.96534"
       style="fill:#000000;fill-opacity:1;fill-rule:nonzero;stroke:none;stroke-width:1.33333"
       id="path14582" />
    <path
       d="m 331.00186,136.04921 c 0,0.89866 -0.728,1.62666 -1.62667,1.62666 -0.89733,0 -1.62666,-0.728 -1.62666,-1.62666 0,-0.89867 0.72933,-1.62667 1.62666,-1.62667 0.89867,0 1.62667,0.728 1.62667,1.62667"
       style="fill:#ffffff;fill-opacity:1;fill-rule:nonzero;stroke:none;stroke-width:1.33333"
       id="path14586" />
    <path
       d="m 325.51799,138.42707 c 0.27334,2.10667 1.44134,3.792 3.15467,4.54667 l 6.14933,-0.22533 c 1.42533,-1.172 2.30533,-3.22934 2.30533,-5.40934 0,-0.816 -0.14,-1.612 -0.41733,-2.37066 -1.464,-0.14 -2.85867,-0.232 -4.14933,-0.27734 -0.60933,0.21734 -1.38133,0.31067 -2.128,0.40134 -0.70667,0.0853 -1.43867,0.17466 -1.77467,0.35333 l -0.28533,0.15333 c -1.224,0.648 -1.74533,0.92534 -2.85467,2.828 m 2.984,5.48134 -0.0947,-0.0387 c -2.12,-0.884 -3.552,-2.936 -3.82934,-5.492 l -0.016,-0.14933 0.0747,-0.13067 c 1.29467,-2.25467 2.008,-2.63333 3.30133,-3.31867 l 0.28267,-0.15066 c 0.48933,-0.26134 1.272,-0.35734 2.1,-0.45734 0.72933,-0.088 1.48267,-0.17866 1.996,-0.37866 l 0.088,-0.0333 0.096,0.003 c 1.41866,0.0467 2.96133,0.15067 4.584,0.31067 l 0.27733,0.028 0.10533,0.25733 c 0.39067,0.948 0.588,1.95067 0.588,2.98133 0,2.51867 -1.06533,4.908 -2.78,6.23467 l -0.11866,0.0907 z"
       style="fill:#000000;fill-opacity:1;fill-rule:nonzero;stroke:none;stroke-width:1.33333"
       id="path14590" />
    <path
       d="m 336.83719,134.88894 c 2.968,0.556 2.448,1.69467 2.448,4.144 0,2.448 -2.47733,4.52533 -2.47733,4.52533 3.57866,-0.56533 4.73866,-4.14933 4.73866,-4.14933 l 1.31734,-5.65067 c 0,0 -3.75467,-0.75333 -9.79333,-0.75333 -2.48667,0 -6.48267,1.97467 -7.30534,2.50267 -0.82266,0.52933 -2.292,4.232 -2.292,4.232 0,0 2.40934,-3.11467 3.87867,-3.644 1.46933,-0.52934 5.86533,-1.884 9.48533,-1.20667"
       style="fill:#000000;fill-opacity:1;fill-rule:nonzero;stroke:none;stroke-width:1.33333"
       id="path14594" />
    <path
       d="m 296.21826,146.14321 c 0,0 -6.07467,2.916 -12.392,2.916 0,0 9.23333,2.18666 12.392,-2.916"
       style="fill:#000000;fill-opacity:1;fill-rule:nonzero;stroke:none;stroke-width:1.33333"
       id="path14610" />
    <path
       d="m 326.45453,146.87201 c 0,0 7.91066,3.516 11.30133,1.884 0,0 -4.52133,3.38933 -11.30133,-1.884"
       style="fill:#000000;fill-opacity:1;fill-rule:nonzero;stroke:none;stroke-width:1.33333"
       id="path14614" />
    <path
       d="m 321.49759,139.62561 c 0,0 3.836,5.92933 9.76534,5.40533 5.92799,-0.52267 6.79999,-0.17467 8.54399,-1.56933 0,0 -0.092,4.484 -2.052,5.29333 -1.95866,0.80933 -8.06133,0.46133 -10.50266,-1.45733 -2.44133,-1.91734 -5.75467,-7.672 -5.75467,-7.672"
       style="opacity:0.199997;fill:#000000;fill-opacity:1;fill-rule:nonzero;stroke:none;stroke-width:1.33333"
       id="path14624" />
    <path
       d="m 277.20666,122.88561 29.46933,2.78933"
       style="opacity:0.199997;fill:#000000;fill-opacity:1;fill-rule:nonzero;stroke:none;stroke-width:1.33333"
       id="path14656" />
    <path
       id="path1740"
       style="opacity:0.199997;fill:#000000;fill-opacity:1;fill-rule:nonzero;stroke:none;stroke-width:1.33333"
       d="m 298.12109,139 c 0.0973,1.51614 0.0189,3.05925 -0.33789,3.41602 -0.69734,0.69732 -2.44142,1.22001 -5.58008,3.13867 -3.13866,1.91867 -10.46353,0.52267 -15.51953,0 -5.05732,-0.52266 -10.98589,-4.70878 -10.11523,-3.66211 0.872,1.04533 6.1045,6.27692 10.8125,7.32226 4.70799,1.04666 15.17097,-0.17229 19.18164,-2.26562 3.35196,-1.74842 2.44902,-4.59582 3.58008,-7.94922 z" />
  </g>
  <g
     inkscape:groupmode="layer"
     id="layer2"
     inkscape:label="Nose Edge"
     sodipodi:insensitive="true">
    <path
       d="m 305.35226,133.99374 1.488,12.008 c 0,0 -2.48,-10.916 -3.076,-11.71067 -0.59467,-0.79333 -2.67867,2.68 -2.67867,2.68 l 3.77067,-6.352 z"
       style="fill:#000000;fill-opacity:1;fill-rule:nonzero;stroke:none;stroke-width:1.33333"
       id="path14606" />
  </g>
  <g
     inkscape:groupmode="layer"
     id="layer1"
     inkscape:label="Vulcan Brows"
     style="display:none"
     sodipodi:insensitive="true">
    <path
       id="path14574"
       style="fill:#000000;fill-opacity:1;fill-rule:nonzero;stroke:none;stroke-width:1.33333"
       d="m 323.65266,135.83067 c 0,0 4.52,-5.27333 10.924,-5.83866 z m -24.64027,1.38347 c 0,0 -4.92,-5.284 -8.56533,-6.196 -3.644,-0.91067 -13.848,-1.64 -16.03467,-0.728 0,0 12.39067,-0.18267 15.124,1.82133 2.73334,2.00534 10.56934,6.92534 9.476,5.10267" />
    <path
       id="path14602"
       style="fill:#000000;fill-opacity:1;fill-rule:nonzero;stroke:none;stroke-width:1.33333"
       d="m 287.17399,122.25401 c 4.03867,1.552 15.69734,1.51866 17.19334,1.46666 1.496,-0.0533 3.092,0.28534 3.092,0.28534 0,0 -1.792,3.61733 -3.58667,4.964 -1.79467,1.348 -14.52933,-0.80534 -19.75067,-2.264 -13.80533,-3.85734 -16.94,-9.22934 -21.03466,-9.56134 0,0 7.72533,-1.17866 24.08666,5.10934 m 46.24467,-0.59014 c -5.932,0.42267 -7.71467,4.136 -9.98267,6.404 -3.39066,3.39067 4.144,-0.75333 9.04134,-1.50666 4.89733,-0.75334 7.66666,-1.58267 9.41733,-0.94134 1.62266,0.59334 5.04266,-4.24133 4.80666,-7.54266 0,0 -2.39466,2.81066 -13.28266,3.58666" />
    <path
       id="path14640"
       style="opacity:0.199997;fill:#000000;fill-opacity:1;fill-rule:nonzero;stroke:none;stroke-width:1.33333"
       d="m 347.65372,125.15254 -3.31333,5.05733 c 0,0 -7.324,-0.69733 -10.288,0.17334 -2.964,0.872 -7.764,3.03466 -10.4,5.448 -2.90133,2.656 -4.596,-1.26267 -4.07333,-2.48267 0.524,-1.22133 4.53467,-5.232 4.53467,-5.232 l 16.73999,-5.928 c 2.45734,-1.32667 5.66,-3.52267 6.75734,-4.98667 z m -82.94669,-8.04316 c 2.104,2.47066 7.13841,13.81835 9.70508,13.17968 2.32533,-0.57733 13.95488,0.61774 16.04687,1.31641 2.09333,0.69733 6.27727,3.48626 6.97461,4.18359 0.34057,0.34057 0.59466,1.76364 0.6875,3.21094 h 2.02149 c 0.22226,-0.65898 0.51547,-1.33556 0.94336,-2.0293 1.316,-2.13332 2.69353,-4.04356 3.76953,-6.35156 1.05467,-2.26 1.82031,-4.94336 1.82031,-4.94336 1.59343,-2.09131 1.99323,-5.35991 2.09375,-6.60156 -0.34292,1.54428 -2.24427,4.0868 -2.88476,4.80664 -0.732,0.824 -12.44518,2.74452 -16.5625,1.00586 -4.11734,-1.73867 -24.61524,-7.77734 -24.61524,-7.77734 z m 44.10547,1.37304 c 0,0 -0.019,0.29029 -0.043,0.58789 0.0483,-0.21903 0.0657,-0.41726 0.043,-0.58789 z" />
  </g>
  <g
     inkscape:groupmode="layer"
     id="g1762"
     inkscape:label="Standard Brows"
     style="display:none"
     sodipodi:insensitive="true">
    <path
       id="path1756"
       style="fill:#000000;fill-opacity:1;fill-rule:nonzero;stroke:none;stroke-width:1.33333"
       d="m 323.65266,135.83067 c 0,0 4.52,-5.27333 10.924,-5.83866 z m -24.64027,1.38347 c 0,0 -4.92,-5.284 -8.56533,-6.196 -3.644,-0.91067 -13.848,-1.64 -16.03467,-0.728 0,0 12.39067,-0.18267 15.124,1.82133 2.73334,2.00534 10.56934,6.92534 9.476,5.10267" />
    <path
       id="path1760"
       style="opacity:0.199997;fill:#000000;fill-opacity:1;fill-rule:nonzero;stroke:none;stroke-width:1.33333"
       d="m 347.65372,125.15254 -3.31333,5.05733 c 0,0 -7.324,-0.69733 -10.288,0.17334 -2.964,0.872 -7.764,3.03466 -10.4,5.448 -2.90133,2.656 -4.596,-1.26267 -4.07333,-2.48267 0.524,-1.22133 4.53467,-5.232 4.53467,-5.232 l 16.73999,-5.928 c 2.45734,-1.32667 5.66,-3.52267 6.75734,-4.98667 z m -82.94669,-8.04316 c 2.104,2.47066 7.13841,13.81835 9.70508,13.17968 2.32533,-0.57733 13.95488,0.61774 16.04687,1.31641 2.09333,0.69733 6.27727,3.48626 6.97461,4.18359 0.34057,0.34057 0.59466,1.76364 0.6875,3.21094 h 2.02149 c 0.22226,-0.65898 0.51547,-1.33556 0.94336,-2.0293 1.316,-2.13332 2.69353,-4.04356 3.76953,-6.35156 1.05467,-2.26 1.82031,-4.94336 1.82031,-4.94336 1.59343,-2.09131 1.99323,-5.35991 2.09375,-6.60156 -0.34292,1.54428 -2.24427,4.0868 -2.88476,4.80664 -0.732,0.824 -13.13936,1.19673 -17.60162,0.94474 -15.27941,-0.86286 -23.57612,-7.71622 -23.57612,-7.71622 z m 44.10547,1.37304 c 0,0 -0.019,0.29029 -0.043,0.58789 0.0483,-0.21903 0.0657,-0.41726 0.043,-0.58789 z"
       sodipodi:nodetypes="ccccccccccccscccccccscccc" />
    <path
       id="path1758"
       style="fill:#383838;fill-opacity:1;fill-rule:nonzero;stroke:none;stroke-width:1.33333"
       d="m 304.36733,123.72067 c 1.50378,0.10068 3.092,0.28534 3.092,0.28534 0,0 -1.792,3.61733 -3.58667,4.964 -1.79467,1.348 -9.09626,-0.64286 -23.72378,-1.40825 -14.62751,-0.7654 -13.19106,-7.2974 -15.84213,-10.61837 0,0 8.38659,3.98956 22.86724,5.31062 14.48065,1.32106 15.68956,1.36598 17.19334,1.46666 z m 19.06866,4.3472 c -3.39066,3.39067 4.17282,-0.58525 9.04134,-1.50666 3.98046,-0.75334 6.13732,-1.40675 10.15083,-0.81909 4.0135,0.58766 4.30916,-4.36358 4.07316,-7.66491 0,0 -2.39466,2.81066 -13.28266,3.58666 -5.932,0.42267 -7.71467,4.136 -9.98267,6.404 z"
       sodipodi:nodetypes="zcczczzsszccs" />
    <path
       style="color:#000000;fill:#000000;-inkscape-stroke:none"
       d="m 267.54492,123.37109 c 1.85247,2.20542 5.24056,4.0548 12.5918,4.43946 7.30462,0.38221 12.7763,1.07079 16.6582,1.49609 2.44294,0.22412 5.26664,0.69938 6.83952,-0.0935 1.57289,-0.79288 2.3578,-1.85992 2.93795,-2.92502 0.58015,-1.06511 0.86814,-1.70128 1.26941,-2.48929 -1.23628,-0.13252 -2.41282,-0.25625 -3.45703,-0.32811 -1.50775,-0.10094 -2.70761,-0.14385 -17.1875,-1.46484 -14.44399,-1.31772 -23.0816,-5.25814 -23.0816,-5.25814 0.47961,0.98181 1.57679,4.41794 3.42925,6.62335 z m -2.68139,-5.80562 c 0.81764,0.37465 8.51675,3.6822 22.28686,4.93844 14.48138,1.32112 15.70136,1.36638 17.20117,1.46679 1.3111,0.0878 1.66618,0.12542 1.98606,0.16161 -0.11746,0.23061 -0.43368,0.87509 -0.90221,1.78214 -0.57492,1.11297 -1.33859,1.83935 -2.59879,2.44448 -1.2602,0.60512 -3.95135,0.37338 -6.00862,0.14907 -3.87444,-0.42448 -9.34301,-0.81233 -16.66589,-1.1955 -7.27626,-0.38074 -10.48542,-2.17954 -12.23438,-4.26172 -1.57265,-1.87229 -1.99132,-3.80331 -3.0642,-5.48531 z m 82.04272,-0.11629 -0.39453,0.4668 c 0,0 -0.11998,0.14414 -0.49805,0.4082 -0.37807,0.26406 -1.00048,0.62992 -1.96484,1.02344 -1.92872,0.78703 -5.2245,1.67983 -10.64844,2.0664 -6.03199,0.4298 -8.31434,4.39331 -9.57874,5.95791 -1.26439,1.5646 -1.52614,1.92564 -1.77267,2.4493 0.74883,-0.0666 1.12032,-0.20353 1.52911,-0.25286 0.37723,-0.0868 0.83707,-0.22598 1.35938,-0.39844 2.08922,-0.68982 5.19299,-1.91039 7.58594,-2.36328 3.99019,-0.75518 6.09384,-1.39836 10.06836,-0.81641 1.0536,0.15427 1.90396,-0.06 2.54687,-0.5332 0.64291,-0.47322 1.07162,-1.18811 1.35547,-2.00781 0.5677,-1.6394 0.5762,-3.72369 0.45703,-5.39063 z m -1.36021,5.31923 c -0.26225,0.75732 -0.66539,1.20167 -1.19934,1.59469 -0.53395,0.39302 -1.71538,0.63037 -2.67674,0.56912 -4.22538,-0.26921 -5.28921,0.0924 -9.25993,1.0816 -2.44479,0.60905 -5.5668,1.99868 -7.62878,2.6795 -0.51549,0.17021 -0.9653,0.30635 -1.31445,0.38672 -0.31522,0.0726 -0.66915,0.268 -0.66547,0.1744 0.004,-0.0936 0.3961,-0.59437 0.81214,-1.01041 2.31816,-2.31816 3.99027,-5.91453 9.82227,-6.33008 5.46404,-0.38943 8.86254,-1.2118 10.80273,-2.10351 1.94019,-0.89171 2.04181,-0.9278 2.08961,-0.31761 0.0478,0.6102 -0.30819,1.90714 -0.78204,3.27558 z"
       id="path12880"
       sodipodi:nodetypes="ssczzccscscsscszcsscccssczccsssssccsssssscsczzs" />
    <path
       id="path12888"
       style="fill:#000000;fill-opacity:0.2;stroke:none;stroke-width:1px;stroke-linecap:butt;stroke-linejoin:miter;stroke-opacity:1"
       d="m 346.70117,118.07812 c 0,0 -0.6745,0.77361 -2.87305,1.6211 -0.6267,1.17022 -1.29666,2.21845 -1.89648,2.67187 -1.76297,1.33269 -2.13415,0.42481 -4.40039,0.97852 -2.26624,0.55371 -6.20497,1.19743 -9.16992,2.44531 -1.6119,0.67841 -3.90159,2.06788 -5.71289,3.22461 -0.73589,1.48245 5.57428,-1.65391 9.82812,-2.45898 3.98046,-0.75334 6.13884,-1.40602 10.15235,-0.81836 4.01349,0.58766 4.30826,-4.36274 4.07226,-7.66407 z m -80.07812,3.47266 c 1.51068,2.79498 4.37297,5.53281 13.52539,6.01172 14.6275,0.76539 21.92994,2.7562 23.72461,1.4082 1.79467,-1.34667 3.58593,-4.96484 3.58593,-4.96484 -1.72434,-0.16961 -0.95002,-0.13908 -2.20213,-0.22667 -0.30571,0.46404 -1.05998,0.88529 -1.95651,1.55678 -0.89653,0.67148 -1.50077,0.60497 -5.62261,0.70309 -4.0693,0.0969 -13.52567,-0.83523 -18.94921,-1.71094 -4.02483,-0.64986 -9.52381,-2.08 -12.10547,-2.77734 z"
       sodipodi:nodetypes="ccssscssccsccczssc" />
  </g>
  <g
     inkscape:groupmode="layer"
     id="g14185"
     inkscape:label="Wild Brows"
     style="display:none"
     sodipodi:insensitive="true">
    <path
       id="path14175"
       style="fill:#000000;fill-opacity:1;fill-rule:nonzero;stroke:none;stroke-width:1.33333"
       d="m 323.65266,135.83067 c 0,0 4.52,-5.27333 10.924,-5.83866 z m -24.64027,1.38347 c 0,0 -4.92,-5.284 -8.56533,-6.196 -3.644,-0.91067 -13.848,-1.64 -16.03467,-0.728 0,0 12.39067,-0.18267 15.124,1.82133 2.73334,2.00534 10.56934,6.92534 9.476,5.10267" />
    <path
       id="path14177"
       style="opacity:0.199997;fill:#000000;fill-opacity:1;fill-rule:nonzero;stroke:none;stroke-width:1.33333"
       d="m 347.65372,125.15254 -3.31333,5.05733 c 0,0 -7.324,-0.69733 -10.288,0.17334 -2.964,0.872 -7.764,3.03466 -10.4,5.448 -2.90133,2.656 -4.596,-1.26267 -4.07333,-2.48267 0.524,-1.22133 4.53467,-5.232 4.53467,-5.232 l 16.73999,-5.928 c 2.45734,-1.32667 5.66,-3.52267 6.75734,-4.98667 z m -82.94669,-8.04316 c 2.104,2.47066 7.13841,13.81835 9.70508,13.17968 2.32533,-0.57733 13.95488,0.61774 16.04687,1.31641 2.09333,0.69733 6.27727,3.48626 6.97461,4.18359 0.34057,0.34057 0.59466,1.76364 0.6875,3.21094 h 2.02149 c 0.22226,-0.65898 0.51547,-1.33556 0.94336,-2.0293 1.316,-2.13332 2.69353,-4.04356 3.76953,-6.35156 1.05467,-2.26 1.82031,-4.94336 1.82031,-4.94336 1.59343,-2.09131 1.99323,-5.35991 2.09375,-6.60156 -0.34292,1.54428 -2.24427,4.0868 -2.88476,4.80664 -0.732,0.824 -13.13936,1.19673 -17.60162,0.94474 -15.27941,-0.86286 -23.57612,-7.71622 -23.57612,-7.71622 z m 44.10547,1.37304 c 0,0 -0.019,0.29029 -0.043,0.58789 0.0483,-0.21903 0.0657,-0.41726 0.043,-0.58789 z"
       sodipodi:nodetypes="ccccccccccccscccccccscccc" />
    <path
       id="path14179"
       style="fill:#383838;fill-opacity:1;fill-rule:nonzero;stroke:none;stroke-width:1.33333"
       d="m 304.28089,123.48295 c 1.39572,0.29518 3.17844,0.52306 3.17844,0.52306 0,0 -1.792,3.61733 -3.58667,4.964 -1.79467,1.348 -9.09626,-0.64286 -23.72378,-1.40825 -14.62751,-0.7654 -13.19106,-7.57834 -15.84213,-10.89931 0,0 3.25385,2.53432 7.88379,3.76694 0.0985,0.0262 -0.51279,-1.45542 -0.51279,-1.45542 0.9542,0.79955 4.3563,2.09172 6.70152,2.75486 0.21082,0.0596 -0.52944,-1.15932 -0.70988,-1.53109 2.67189,1.05125 7.3755,2.58449 10.03448,2.84578 0.11299,0.0111 -1.50153,-1.32762 -1.00532,-1.28656 3.36974,0.27886 6.2094,1.33317 9.90775,1.72931 0.28961,0.031 -0.78349,-1.08406 -0.49741,-1.05455 3.44749,0.35561 7.46799,1.4179 8.36223,1.42934 0.18692,0.002 -0.35495,-0.41294 -0.19023,-0.37811 z m 19.1551,4.58492 c -3.39067,3.39067 4.17282,-0.58525 9.04134,-1.50666 3.98046,-0.75334 6.13732,-1.40675 10.15083,-0.81909 4.0135,0.58766 4.30916,-4.36358 4.07316,-7.66491 0,0 -0.80447,0.40388 -2.57737,1.17399 -0.11889,0.0517 0.16853,-0.40809 0.0326,-0.38062 -1.56236,0.3157 -2.92729,1.1449 -4.56827,1.82153 -0.17484,0.0721 0.37947,-0.68242 0.18556,-0.64961 -2.76649,0.46807 -4.24979,1.48377 -6.53445,1.95756 -0.19456,0.0139 0.31322,-0.80197 0.12742,-0.78119 -5.479,0.61266 -7.73726,4.65539 -9.93087,6.849 z"
       sodipodi:nodetypes="scczcscscsssssssszcsssscsss" />
    <path
       id="path14183"
       style="fill:#000000;fill-opacity:0.2;stroke:none;stroke-width:1px;stroke-linecap:butt;stroke-linejoin:miter;stroke-opacity:1"
       d="m 346.70117,118.07812 c 0,0 -0.43678,0.31978 -2.63533,1.16727 -0.6267,1.17022 -1.53438,2.67228 -2.1342,3.1257 -1.76297,1.33269 -2.13415,0.42481 -4.40039,0.97852 -2.26624,0.55371 -6.20497,1.19743 -9.16992,2.44531 -1.6119,0.67841 -3.90159,2.06788 -5.71289,3.22461 -0.73589,1.48245 5.57428,-1.65391 9.82812,-2.45898 3.98046,-0.75334 6.13884,-1.40602 10.15235,-0.81836 4.01349,0.58766 4.30826,-4.36274 4.07226,-7.66407 z m -80.07812,3.47266 c 1.51068,2.79498 4.37297,5.53281 13.52539,6.01172 14.6275,0.76539 21.92994,2.7562 23.72461,1.4082 1.79467,-1.34667 3.58593,-4.96484 3.58593,-4.96484 -1.70273,-0.27766 -0.92841,-0.1823 -2.18052,-0.26989 -0.30571,0.46404 -1.08159,0.92851 -1.97812,1.6 -0.89653,0.67148 -1.50077,0.60497 -5.62261,0.70309 -4.0693,0.0969 -13.52567,-0.83523 -18.94921,-1.71094 -4.02483,-0.64986 -9.52381,-2.08 -12.10547,-2.77734 z"
       sodipodi:nodetypes="ccssscssccsccczssc" />
    <path
       style="color:#000000;fill:#000000;-inkscape-stroke:none"
       d="m 267.54297,123.22852 c 1.85093,2.27578 5.24092,4.19728 12.59375,4.58203 7.30462,0.38221 12.7763,1.07079 16.6582,1.49609 1.94095,0.21265 3.48329,0.35995 4.66797,0.36914 1.18468,0.009 2.02317,-0.10222 2.56055,-0.50586 0.95133,-0.71385 1.84797,-1.97079 2.52734,-3.05469 0.67937,-1.08389 1.13281,-1.99804 1.13281,-1.99804 l 0.15625,-0.31446 -0.34961,-0.0449 c 0,0 -3.25951,-0.59526 -4.16179,-1.06232 0.0918,0.17046 0.67851,0.82068 0.68721,0.84738 -0.21412,-0.0294 -0.36362,-0.0415 -0.69726,-0.10547 -2.71715,-0.53843 -5.29613,-0.92257 -8.24864,-1.83611 0.15651,0.25411 1.29644,1.647 1.35263,1.72336 -3.43238,-0.40682 -9.76202,-2.04525 -10.84776,-2.48784 -0.0916,-0.0104 1.40692,1.42362 1.71236,1.90722 -3.40178,-0.94642 -7.03203,-1.98646 -10.42536,-3.40264 l 0.5838,0.96517 c 0.0903,0.18596 0.48025,0.8053 0.61272,1.014 -1.08751,-0.34332 -2.45514,-0.90569 -3.5385,-1.36166 -1.18516,-0.49882 -3.03409,-1.29114 -3.36263,-1.43867 0,0 0.5819,1.35503 0.68396,1.57477 -4.26878,-1.23153 -7.90616,-3.83723 -7.90616,-3.83723 0.46382,0.97171 1.75723,4.69494 3.60816,6.97073 z m 5.10445,-2.40041 c -0.1375,-0.30745 -0.41864,-1.19912 -0.46359,-1.36509 1.93163,1.0557 4.76931,2.12648 6.80341,2.70561 -0.13139,-0.37432 -0.65878,-1.23818 -0.77406,-1.55341 2.72743,0.97894 9.02563,2.72192 10.19362,2.97281 -0.15028,-0.18132 -0.94736,-1.43073 -0.99847,-1.46503 -0.004,-0.003 -0.0111,-0.007 -0.0156,-0.01 3.73865,0.77869 8.81081,1.8487 10.116,1.95049 0.041,-0.0495 -0.93294,-1.16839 -0.99294,-1.31377 1.5847,0.18722 3.27077,0.51478 4.68165,0.77148 1.41088,0.2567 2.58032,0.59498 3.83847,0.81108 -0.10508,-0.16765 -0.3937,-0.59737 -0.36812,-0.65163 1.07629,0.19861 1.9377,0.45463 2.21317,0.49087 -0.1104,0.21724 -0.42802,0.65996 -0.99153,1.559 -0.66529,1.06143 -1.57176,2.24389 -2.41509,2.8767 -0.35996,0.27037 -1.20689,0.40433 -2.35311,0.39544 -1.14623,-0.009 -2.64756,-0.14218 -4.58478,-0.35442 -3.87444,-0.42448 -9.05126,-0.9528 -16.37414,-1.33597 -7.27467,-0.38065 -10.48194,-2.24811 -12.23242,-4.40039 -1.5304,-1.88167 -2.61654,-5.04218 -2.98343,-5.45064 0.63801,0.34792 5.68306,2.97577 7.70096,3.36687 z m 74.26113,-3.37178 c -0.86069,0.68432 -1.84506,1.30423 -2.59483,1.67505 0.0341,-0.10908 0.23138,-0.80323 0.24818,-0.89765 -1.43846,0.81988 -3.42755,1.62415 -4.67021,2.16394 0.0583,-0.17579 0.32572,-0.96216 0.33622,-1.07618 -2.27867,0.96236 -4.87576,1.75096 -6.7824,2.41274 0.0458,-0.20706 0.26717,-1.25309 0.32671,-1.34709 -2.0409,1.07007 -4.09031,1.70782 -5.72224,2.9651 -1.78429,1.37467 -3.30697,3.01499 -4.79021,4.53814 l -0.42774,0.42773 h 0.0762 c -0.17143,0.19839 -0.40241,0.42957 -0.48047,0.58398 -0.0676,0.13373 -0.11327,0.26635 -0.0762,0.42188 0.0371,0.15553 0.18342,0.27105 0.3125,0.30859 0.25818,0.0751 0.53684,0.0224 0.91406,-0.0644 0.37723,-0.0868 0.83707,-0.22598 1.35938,-0.39844 2.08922,-0.68982 5.19299,-1.91039 7.58594,-2.36328 3.99019,-0.75518 6.09384,-1.39836 10.06836,-0.81641 1.0536,0.15427 1.90396,-0.06 2.54687,-0.5332 0.64291,-0.47322 1.07162,-1.18811 1.35547,-2.00781 0.5677,-1.6394 0.5762,-3.72369 0.45703,-5.39063 z m -1.12479,5.72272 c -0.26225,0.75732 -0.74103,1.26651 -1.27498,1.65953 -0.53395,0.39302 -1.25895,0.50337 -2.2121,0.36381 -4.05249,-0.59337 -5.89432,0.36255 -9.86504,1.11402 -2.47557,0.46852 -5.58841,1.69613 -7.65039,2.37695 -0.51549,0.17021 -0.9653,0.30635 -1.31445,0.38672 -0.31522,0.0726 -0.51787,0.0735 -0.59961,0.0644 0.005,-0.0126 -8.6e-4,-4.3e-4 0.008,-0.0176 0.0811,-0.1605 0.32224,-0.46677 0.73828,-0.88281 l 0.42578,-0.42578 h -0.0312 c 2.05389,-2.20376 4.38003,-4.85226 9.1113,-6.32381 -0.0515,0.14834 -0.25503,0.88703 -0.25503,0.88703 2.25214,-0.80334 4.92777,-1.52397 6.72875,-2.30145 -0.11129,0.20919 -0.25596,0.85301 -0.31817,1.01404 1.53055,-0.56622 3.46364,-1.37421 4.70541,-1.98312 -0.0723,0.14828 -0.0427,0.5547 -0.0966,0.68601 0.79012,-0.39177 2.37963,-1.23988 2.37963,-1.23988 -3e-4,0.0503 0.008,3.21317 -0.47958,4.62194 z"
       id="path14226"
       sodipodi:nodetypes="sssccscccccccccccccscccsccccccccczcccsccssscccccccccscccsssssssssccssssssccscccccccccs" />
  </g>
  <g
     inkscape:groupmode="layer"
     id="g144494"
     inkscape:label="Klingon Brows">
    <path
       id="path144484"
       style="fill:#000000;fill-opacity:1;fill-rule:nonzero;stroke:none;stroke-width:1.33333"
       d="m 323.65266,135.83067 c 0,0 4.52,-5.27333 10.924,-5.83866 z m -24.64027,1.38347 c 0,0 -4.92,-5.284 -8.56533,-6.196 -3.644,-0.91067 -13.848,-1.64 -16.03467,-0.728 0,0 12.39067,-0.18267 15.124,1.82133 2.73334,2.00534 10.56934,6.92534 9.476,5.10267" />
    <path
       id="path144486"
       style="opacity:0.199997;fill:#000000;fill-opacity:1;fill-rule:nonzero;stroke:none;stroke-width:1.33333"
       d="m 347.65372,125.15254 -3.31333,5.05733 c 0,0 -7.324,-0.69733 -10.288,0.17334 -2.964,0.872 -7.764,3.03466 -10.4,5.448 -2.90133,2.656 -4.79501,-0.82517 -4.2567,-3.33842 0.53831,-2.51325 3.33495,-5.58646 3.33495,-5.58646 l 18.12308,-4.71779 c 2.45734,-1.32667 5.66,-3.52267 6.75734,-4.98667 z m -89.51639,-0.0904 c 2.104,2.47066 13.70811,5.86556 16.27478,5.22689 2.32533,-0.57733 13.95488,0.61774 16.04687,1.31641 2.09333,0.69733 6.27727,3.48626 6.97461,4.18359 0.34057,0.34057 0.59466,1.76364 0.6875,3.21094 h 2.02149 c 0.22226,-0.65898 0.51547,-1.33556 0.94336,-2.0293 1.316,-2.13332 2.69353,-4.04356 3.76953,-6.35156 1.05467,-2.26 1.82031,-4.94336 1.82031,-4.94336 1.59343,-2.09131 1.99323,-5.35991 2.09375,-6.60156 -0.34292,1.54428 -2.24427,4.0868 -2.88476,4.80664 -0.732,0.824 -13.31225,-1.91523 -17.77451,-2.16722 -15.27941,-0.86286 -29.97293,3.34853 -29.97293,3.34853 z m 50.67517,-6.57975 c 0,0 -0.019,0.29029 -0.043,0.58789 0.0483,-0.21903 0.0657,-0.41726 0.043,-0.58789 z"
       sodipodi:nodetypes="cccczcccccccscccccccscccc" />
    <path
       d="m 299.13586,127.81894 c -3.51467,-4.304 -8.81467,-6.44 -15.74933,-6.17067 -0.70134,0.0267 -1.396,0.0773 -2.08134,0.148 -0.21333,0.0227 -0.428,0.036 -0.64133,0.044 -0.65867,0.0267 -1.31867,-0.003 -1.97867,-0.032 -0.67466,-0.0293 -1.34933,-0.0573 -2.02266,-0.032 -0.73867,0.0293 -1.38534,0.12267 -1.98,0.284 -1.16,0.31867 -2.26667,0.96 -3.336,1.58134 -0.736,0.42666 -1.432,0.83066 -2.13867,1.13333 -0.70533,0.30133 -1.408,0.64667 -2.11467,0.99333 -1.93333,0.94667 -3.93066,1.928 -6.096,2.03334 -0.78133,0.0373 -1.53333,-0.036 -2.30133,-0.228 -2.20533,-0.548 -8.436,-4.32534 -11.436,-7.128 0.36933,0.18133 0.704,0.368 0.94267,0.608 0.468,0.26933 0.82666,0.36266 1.17333,0.45066 0.23733,0.0613 0.46933,0.11867 0.66667,0.19867 l 0.84,0.33733 -0.448,-0.976 c -0.61734,-1.34666 -1.77734,-2.94933 -3.02667,-4.676 -1.408,-1.94533 -2.99467,-4.13733 -3.77867,-6.00933 2.99067,2.98533 9.26134,7.556 11.72534,7.50133 l 0.89733,-0.0213 -0.776,-0.864 c -0.90533,-1.00933 -1.59067,-2.37067 -2.324,-3.832 -1.10533,-2.2 -2.27067,-4.52 -4.34933,-5.89333 -0.30667,-0.73467 -0.68934,-1.40267 -1.06667,-2.05467 0.504,0.456 1.036,0.89867 1.57733,1.352 1.22,1.01867 2.46667,2.05867 3.35334,3.232 3.572,4.73333 5.09466,5.11867 9.10266,6.132 l 1.04534,0.264 -0.78267,-1.096 c -0.356,-0.5 -0.796,-1.08 -1.27467,-1.71333 -1.78,-2.35067 -4.28933,-5.668 -4.832,-7.96934 l -0.0747,-0.31733 -0.236,-0.16 c -0.44534,-0.30267 -0.87334,-0.724 -1.304,-1.288 0.93733,0.7 2.1,1.69467 3.03733,2.49733 0.72933,0.624 1.40133,1.2 1.908,1.59467 l 0.616,0.47733 c 1.784,1.38 3.96,3.06267 5.39467,5.04134 l 0.86,1.188 -0.188,-1.48934 c -0.22,-1.75866 -0.624,-3.136 -1.056,-4.61333 -0.13867,-0.46933 -0.28,-0.952 -0.42,-1.46667 l -0.0693,-0.252 -0.17733,-0.13866 c -0.89733,-0.70667 -2.15467,-2.28 -3.28533,-3.69467 2.28666,1.05067 5.54,2.76 6.268,4.668 l 0.11733,0.30667 0.23733,0.072 c 0.48267,0.14533 0.972,0.76533 1.48667,1.41733 0.42,0.53333 0.852,1.08 1.33867,1.44533 l 0.90133,0.676 -0.38933,-1.264 c -0.36534,-1.19066 -0.78267,-2.316 -1.20667,-3.46133 -0.192,-0.51867 -0.388,-1.048 -0.58133,-1.59067 1.24533,1.244 2.64666,2.16267 3.90933,2.98934 0.464,0.304 0.916,0.6 1.34133,0.9 0.63067,0.444 1.31867,1.00933 2.01734,1.58266 1.224,1.004 2.47466,2.02934 3.57733,2.556 l 1.15333,0.552 -0.78666,-1.34 c -0.19467,-0.32933 -0.372,-0.75066 -0.53867,-1.22266 1.02267,1.42666 2.16667,2.45466 3.16933,2.43066 0.652,-0.0147 1.456,-0.488 1.92934,-2.45066 0.007,0.02 0.0133,0.0413 0.0187,0.064 0.29734,1.012 0.6,2.04933 0.94534,2.96 l 0.14666,0.38666 0.29067,-0.0853 c 0.13733,-0.0413 0.24533,-0.10933 0.34133,-0.172 0.16934,0.30267 0.348,0.59333 0.52534,0.88133 0.47066,0.76267 0.912,1.47734 1.152,2.40534 l 0.216,0.83333 0.40133,-0.61867 c 0.63333,-0.97866 1.20133,-2.07066 1.75467,-3.136 0.24266,-0.468 0.49066,-0.944 0.74666,-1.41333 -0.10133,0.568 -0.21333,1.11067 -0.376,1.624 -0.11333,0.356 -0.27866,0.668 -0.452,0.99867 -0.32266,0.616 -0.68933,1.312 -0.692,2.34666 l -0.001,0.48134 0.35067,0.044 c 0.20666,0.0267 0.42266,0.036 0.64266,0.028 1.90134,-0.064 4.336,-1.40667 5.99334,-3.176 -0.148,0.428 -0.31467,0.85066 -0.47734,1.26533 -0.44533,1.132 -0.90133,2.29333 -1.004,3.51867 l -0.0453,0.53466 0.392,0.012 c 0.216,0.008 0.45067,0.007 0.7,-0.003 1.81733,-0.0693 3.86133,-0.568 5.31067,-1.69334 -0.0213,0.0373 -0.0413,0.0747 -0.0613,0.112 -0.376,0.688 -0.76133,1.39734 -1.00933,2.288 l -0.236,0.85334 0.63467,-0.23467 c 1.748,-0.64267 3.24533,-1.79067 4.67333,-3.596 -0.16133,2.936 -2.07867,6.67067 -4.38533,8.38133 -0.72667,0.53867 -1.42534,0.828 -2.08,0.86267 -0.052,0.003 -0.10267,0.004 -0.15467,0.004"
       style="display:inline;fill:#383838;fill-opacity:1;fill-rule:nonzero;stroke:none;stroke-width:1.33333"
       id="path34537" />
    <path
       d="m 304.83039,119.62054 c -0.108,0.11333 -0.21733,0.22267 -0.32666,0.32933 -1.62267,1.58667 -3.55734,2.716 -5.42,2.816 -0.76267,0.0413 -1.288,0.50934 -1.91734,0.74934 -0.55866,-1.22 -0.864,-2.16667 -2.06533,-0.87734 -0.30933,-0.89466 -1.00267,-1.21733 -1.576,-0.63733 -0.89867,-1.816 -2.04267,-0.68267 -3.416,-1.052 -0.40933,-0.11067 -0.63333,-0.62133 -0.98667,-0.8 -0.44266,-0.224 -0.5,-0.10267 -0.99866,-0.21733 -0.348,-0.08 -0.388,0.20133 -0.77467,-0.072 -0.304,-0.21467 -0.51067,-0.91467 -0.82667,-1.20534 -0.848,0.65867 -1.53733,2.18534 -2.192,-0.0453 0.12667,0.43067 -1.44533,0.036 -1.58,-0.0467 -0.572,-0.356 -0.98666,-1.21733 -1.56,-1.644 -0.47866,-0.356 -1.08666,-0.50666 -1.56666,-0.80266 -0.58267,-0.35734 -1.07334,-0.84534 -1.61467,-1.22534 -0.37333,-0.26 -1.15467,-0.588 -1.32,-0.796 0.032,0.67334 0.416,1.20267 0.17733,1.85734 -1.69866,0.152 -3.24933,-3.48667 -4.30933,-4.35467 -0.23867,0.93067 -0.04,2.1 -0.0893,3.08267 -2.828,-0.196 -4.15734,-4.18534 -6.05467,-5.79734 0.0373,0.38934 0.003,0.75734 -0.10667,1.104 -0.45733,-0.0413 -0.788,-0.292 -1.112,-0.55733 0.308,1.09867 0.57734,2.20667 0.744,3.532 l 0.188,1.48933 -0.86,-1.188 c -0.0387,-0.0547 -0.0907,-0.10266 -0.13066,-0.156 0.0467,0.94 0.0587,1.888 -0.008,2.85334 -2.16134,-2.96267 -3.72534,-5.996 -6.928,-7.95734 -0.51067,-0.312 -1.07334,-0.62266 -1.644,-0.928 0.99733,2.06667 2.81466,4.48 4.20133,6.312 0.48,0.63334 0.91867,1.21334 1.27467,1.71334 l 0.78266,1.096 -1.04533,-0.26534 c -0.676,-0.17066 -1.276,-0.324 -1.832,-0.48266 0.68,0.868 1.41867,1.66266 2.34133,2.28666 -1.1,-0.53066 -2.26266,-1.392 -3.38933,-2.056 -1.352,-0.79866 -2.82533,-1.036 -4.216,-1.76533 -0.556,-0.292 -1.10133,-0.632 -1.64267,-0.98933 0.04,0.08 0.0813,0.16 0.12134,0.24 0.73466,1.46133 1.41866,2.82266 2.324,3.832 l 0.776,0.864 -0.89734,0.02 c -0.776,0.0173 -1.928,-0.424 -3.23733,-1.12934 -1.49733,-0.32666 -3.372,-1.42666 -4.38133,-2.09866 -0.52,-0.348 -1.84934,-1.204 -2.952,-2.112 0.78666,1.288 1.73066,2.616 2.624,3.84933 1.25066,1.72667 2.40933,3.328 3.02666,4.676 l 0.448,0.976 -0.84,-0.33733 c -0.19733,-0.08 -0.42933,-0.13734 -0.66666,-0.19867 -0.34667,-0.088 -0.70534,-0.18133 -1.17334,-0.45067 -0.23866,-0.24 -0.57333,-0.42666 -0.94266,-0.608 3.00133,2.80267 9.23066,6.57867 11.436,7.128 0.768,0.192 1.52,0.26534 2.30133,0.22667 2.16533,-0.10533 4.16267,-1.08533 6.096,-2.032 0.70667,-0.34667 1.40933,-0.692 2.11467,-0.99333 0.70666,-0.30267 1.40266,-0.70667 2.13866,-1.13334 1.06934,-0.62133 2.176,-1.26266 3.336,-1.58133 0.59467,-0.16133 1.24134,-0.25467 1.98,-0.284 0.67334,-0.0253 1.348,0.003 2.02267,0.032 0.66,0.0293 1.32,0.0573 1.97867,0.032 0.21333,-0.008 0.428,-0.0227 0.64133,-0.044 0.68533,-0.0707 1.38133,-0.12133 2.08133,-0.148 6.93467,-0.26933 12.23467,1.86667 15.74934,6.17067 0.052,0 0.10266,-0.001 0.15466,-0.004 0.65467,-0.0347 1.35334,-0.324 2.08,-0.86267 2.30667,-1.71067 4.224,-5.44533 4.38534,-8.38267 -0.29067,0.368 -0.60267,0.71467 -0.92534,1.05067"
       style="display:inline;opacity:0.199997;fill:#000000;fill-opacity:1;fill-rule:nonzero;stroke:none;stroke-width:1.33333"
       id="path34547" />
    <path
       d="m 299.39066,125.79347 c 0.97733,0.0587 1.488,-0.248 2.28933,-0.876 0.77867,-0.60933 1.60267,-0.488 2.208,-1.432 0.31734,-0.496 0.59867,-1.26 0.828,-1.85333 0.14934,-0.38667 0.34134,-1.64667 0.55734,-1.88267 -1.25867,1.384 -2.58934,2.308 -4.104,2.86534 l -1.27067,0.468 0.47067,-1.704 c 0.108,-0.39067 0.24,-0.74667 0.384,-1.07867 -1.66267,0.82 -3.50267,0.984 -4.29067,1.01467 -0.25333,0.009 -0.49467,0.0107 -0.71467,0.004 l -0.78266,-0.0253 c 0,0 0.088,-1.068 0.088,-1.068 0.088,-1.08533 0.556,-1.76 0.74666,-2.74933 -1.46666,2.43467 -4.43333,3.28933 -6.67333,2.09067 0.23467,-0.44134 0.31333,-0.912 0.26533,-1.49334 -0.42266,0.132 -0.68933,0.748 -1.05466,1 -0.21334,-0.476 -1.17734,-4.52133 -1.812,-4.23866 -0.0427,0.0187 -0.0893,0.036 -0.13867,0.0507 0,0 -0.57733,0.172 -0.57733,0.172 -0.16134,0.048 -0.68267,-2.23866 -0.73334,-2.39066 -0.56133,0.47866 -0.484,2.208 -1.15466,2.43066 -0.65334,0.216 -1.792,-1.32133 -2.47734,-1.636 0.15334,0.25334 0.508,1.11467 0.71467,1.21334 0,0 -2.292,-1.09067 -2.292,-1.09067 -1.144,-0.54533 -2.412,-1.58133 -3.656,-2.59867 -0.68933,-0.56266 -1.36667,-1.11866 -1.98933,-1.55466 -0.42134,-0.296 -0.868,-0.58667 -1.328,-0.88667 -0.90534,-0.59067 -1.88134,-1.228 -2.82667,-1.99867 0.41067,1.11067 0.82933,2.24934 1.19467,3.448 0,0 0.76666,2.51334 0.76666,2.51334 -1.09066,-0.816 -2.49333,-1.35867 -3.52666,-2.30534 -0.428,-0.392 -0.91734,-1.14 -1.26134,-1.6 -0.56266,-0.752 -0.93066,-1.05866 -1.628,-1.61466 -0.58933,-0.46934 -0.88533,-1.024 -1.47733,-1.476 0.5,1.43733 1.39733,2.684 1.82133,4.212 0.608,2.192 0.49467,4.13066 0.75467,6.21866 l -1.71333,-2.356 c -1.38,-1.89733 -3.51867,-3.54533 -5.26934,-4.89466 0,0 -0.616,-0.476 -0.61733,-0.47734 -0.61067,-0.472 -1.33467,-1.772 -1.89867,-1.97333 0.636,1.84267 2.42134,4.12 3.50134,5.56133 1.10533,1.47467 2.356,3.91867 3.64,4.89734 -0.4,0.60133 -1.944,-0.092 -2.57334,-0.24934 -1.712,-0.43066 -3.524,-0.792 -5.22533,-1.95333 -0.86133,-0.588 -1.66,-1.36533 -2.424,-2.22 -0.81467,-0.91067 -1.444,-2.30533 -2.33867,-3.056 0.28534,0.24 0.75067,2.18933 1.02,2.66133 0.404,0.70534 1.07734,1.54 1.572,2.15867 0.51867,0.65067 1.39334,1.20267 1.62667,1.968 0.304,0.16267 2.44533,1.97733 2.48267,1.944 -0.73734,0.676 -2.048,0.432 -3.02667,0.45467 -2.18533,0.0507 -6.99067,-3.16934 -10.328,-6.04534 0.796,0.68667 1.47067,2.36267 2.06667,3.28534 0.77066,1.19733 1.72933,2.13733 2.62133,3.144 1.08667,1.22666 2.43333,2.46933 3.29867,3.84933 -0.68534,0.576 -1.80934,-0.72933 -2.65467,-0.48267 0.80267,1.032 1.88,1.188 2.8,1.74667 0.404,0.244 3.05867,1.47733 3.16133,1.69067 -0.22666,-0.47067 -0.496,-1.03067 -0.652,-1.49467 1.28134,1.14933 3.12667,1.292 4.51334,1.75733 0.016,-0.032 0.0293,-0.0653 0.044,-0.0973 -0.36,-0.50267 -0.86534,-1.30267 -1.37734,-1.67733 0.672,0.684 5.10267,2.80533 5.03334,1.57066 -0.0387,-0.704 -1.50267,-1.408 -1.86,-1.69333 0.55066,0.27733 1.63466,0.35067 2.05466,-0.10133 -0.496,-1.03334 -1.48933,-1.38 -1.964,-2.40667 0.91734,0.24533 2.02,1.06667 2.89067,0.968 0.42667,-0.048 0.624,-0.45867 1.20267,-0.38133 0.428,0.0573 1.03866,0.29333 1.43866,0.46266 -0.104,-0.752 -1.49466,-2.292 -1.96666,-2.61066 0.98133,0.28666 1.76266,1.37733 2.752,1.45333 0.592,0.0467 1.27333,0.072 1.79333,0.0187 -0.14533,-0.68667 -0.60267,-1.176 -0.88,-1.69867 0.796,0.628 2.73467,1.32267 3.65067,1.26 -0.0413,-0.77733 -0.264,-1.47333 -0.564,-2.18667 0.96933,-0.06 2.076,1.74134 3.028,1.56 0.56933,-0.10933 0.18666,-0.30133 0.44266,-0.772 0.24,-0.44266 -0.16533,-0.28533 0.34267,-0.57333 0.22267,-0.12667 0.58933,0.0667 0.82533,0.0893 0.40934,0.04 0.79334,0.11867 1.216,0.0613 -0.0747,-0.252 -0.0173,-0.51734 -0.136,-0.784 0.504,0.0387 5.068,2.84533 4.94,1.116 0.74667,0.35733 1.38,0.90266 2.21067,1.05066 0.78267,0.14 1.51067,0.15067 2.288,0.37867 1.952,0.57333 3.70667,1.41067 5.664,1.46267 -0.003,0.15466 0.0613,0.36133 0.0533,0.51466 1.02934,0.23067 2.16134,0.35467 3.188,0.18 0.0253,-0.0427 0.024,-0.0453 -0.005,-0.008 -0.18133,0.22134 -0.25867,0.552 -0.33733,0.792 0.39466,0.0667 0.868,0.33467 1.24133,0.0827 0.0187,0.356 -0.13467,0.708 -0.332,0.94667 0.8,0.36266 1.98667,0.0533 2.71333,-0.18934 -0.0893,0.39067 -0.31466,0.788 -0.49333,1.148 m 2.13333,1.548 c -0.832,0.616 -1.69733,0.964 -2.51866,0.916 -4.58134,-5.688 -11.46,-6.61466 -17.63067,-5.97866 -2.184,0.22533 -4.38667,-0.33467 -6.56267,0.26266 -1.89333,0.51867 -3.65333,1.936 -5.428,2.69467 -2.41733,1.03467 -4.68,2.48933 -6.91333,3.884 -1.21067,0.75467 -2.63333,1.48933 -3.924,2.31467 0.208,-0.59867 1.048,-0.82534 1.21067,-1.47334 -1.00267,-0.0507 -2.09467,0.10667 -3.00934,-0.188 0.316,-0.12266 0.584,-0.29866 0.80667,-0.54266 -0.95467,-0.93867 -3.476,-1.288 -3.904,-2.668 -0.44267,-0.0947 -0.75467,-0.41867 -1.10667,-0.67867 0.352,0.292 0.82134,0.716 1.288,0.49067 -0.33333,-0.57867 -1.29466,-1.00934 -1.79866,-1.42134 -1.20934,-0.98533 -2.36,-1.96666 -3.58,-2.94133 -1.2,-0.96133 -1.992,-2.14933 -3.04134,-3.18533 0.87734,0.86533 2.224,1.07466 3.00934,1.86533 0.476,0.23733 1.164,0.32667 1.64933,0.52133 -1.52667,-3.31333 -6.888,-8.74533 -7.36667,-12.528 1.81334,2.57334 9.884,8.72134 12.53734,8.664 -2.41734,-2.684 -3.32267,-7.61866 -6.73467,-9.69866 -0.65067,-1.704 -1.84133,-3.07734 -2.41067,-4.85067 1.72134,2.38267 4.96267,4.16533 6.84534,6.668 3.41866,4.54533 4.75066,4.908 8.816,5.94133 -1.74534,-2.436 -5.516,-6.85733 -6.25334,-9.96533 -1.02933,-0.69733 -1.85466,-1.85867 -2.60933,-3.22533 1.23067,0.34666 4.82267,3.732 6.50667,5.052 1.94133,1.52 4.476,3.36933 6.13333,5.66666 -0.28667,-2.24933 -0.88133,-3.85466 -1.46667,-5.97333 -1.36133,-1.06933 -3.42,-3.90667 -4.76666,-5.47067 2.15333,0.95067 7.21733,3.056 8.25866,5.80134 1.064,0.324 1.93334,2.172 2.96134,2.94533 -0.74267,-2.404 -1.69867,-4.54 -2.48934,-7.108 1.81467,2.56 4.42667,3.90933 6.452,5.34133 1.728,1.22134 3.85867,3.31734 5.544,4.12667 -0.63466,-1.07733 -1.076,-2.92133 -1.54666,-4.54133 1.85333,3.92666 5.52,8.04533 6.28133,1.32 0.44133,1.38933 0.88,3.12533 1.40133,4.50666 0.212,-0.064 0.33734,-0.212 0.54934,-0.31066 0.652,1.28533 1.52666,2.26133 1.92,3.796 1.25866,-1.94667 2.23866,-4.32934 3.52133,-6.3 -0.28133,1.376 -0.39733,2.73333 -0.78667,3.952 -0.356,1.108 -1.112,1.77066 -1.11733,3.152 2.42267,0.312 5.95867,-1.95467 7.46,-4.428 -0.344,2.392 -1.784,4.424 -1.97067,6.62266 2.15867,0.0733 6.22534,-0.62933 7.34,-3.60666 -0.39733,2.068 -1.568,3.11333 -2.08266,4.95466 2.01466,-0.74 3.58533,-2.12666 5.07333,-4.20933 0.32933,3.42933 -1.99067,7.94 -4.54667,9.83333"
       style="display:inline;fill:#000000;fill-opacity:1;fill-rule:nonzero;stroke:none;stroke-width:1.33333"
       id="path34557" />
    <path
       d="m 319.54453,129.01881 c -1.21067,-0.009 -2.26934,-0.52267 -3.12134,-1.488 0.57867,0.136 1.24134,0.19733 1.58667,0.196 0.39867,-0.001 0.55067,-0.0613 0.63067,-0.10667 0.436,-0.248 0.704,-0.92667 0.96666,-1.588 0.27467,-0.69333 0.56,-1.41733 0.95067,-1.43067 0.11067,-0.003 0.24,0.044 0.38267,0.14134 l 0.16933,0.11466 0.152,-0.16266 c 0.62133,-0.66534 0.90267,-1.524 1.15867,-2.376 0.04,0.0827 0.0733,0.16 0.0907,0.22266 l 0.11067,0.392 0.30533,-0.23466 c 1.204,-0.92534 1.568,-2.328 1.68534,-3.852 0.19466,0.63466 0.52133,1.14533 1.20133,1.09866 0.164,-0.0107 0.344,-0.0573 0.536,-0.136 0.59733,-0.24666 2.21067,-3.236 3.012,-5.10533 0.032,0.45067 0.0253,0.92267 0.02,1.408 -0.005,0.35733 -0.009,0.716 0.001,1.072 l 0.0253,0.88667 0.53733,-0.72 c 0.82267,-1.10134 1.42267,-2.46267 2.012,-3.8 0.188,-0.42534 0.37067,-0.84267 0.56,-1.248 -0.0427,1.33466 -0.14133,2.68666 -0.236,3.99466 l -0.0867,1.18667 0.68134,-0.884 c 0.25333,-0.36533 0.58266,-0.576 0.94399,-0.75467 0.001,0.0333 0.001,0.0667 0.003,0.1 0.0107,0.27334 0.02,0.55734 -0.036,0.77334 l 0.644,0.2 c 0.824,-1.776 2.48,-4.132 4.14,-6.49467 0.51733,-0.73733 1.03333,-1.472 1.52133,-2.184 -0.005,0.91867 -0.072,1.86133 -0.13466,2.776 -0.0547,0.76933 -0.108,1.536 -0.128,2.29067 l -0.012,0.45333 0.42266,-0.108 c 1.62,-0.41333 3.83734,-2.748 5.19334,-4.81867 -0.0987,1.11734 -0.19734,2.22534 -0.32534,3.328 l -0.11466,1.00934 0.784,-0.74934 c 1.212,-1.15866 1.888,-2.57866 2.55066,-3.97333 0.35867,-0.75333 0.70667,-1.48667 1.12934,-2.14533 -0.11734,1.56 -0.308,3.14533 -0.49067,4.67333 l -0.276,2.31867 0.976,-1.404 c 0.69467,-1.00134 1.74267,-2.77334 2.68,-4.652 -0.464,2.12666 -0.80533,4.22933 -0.4,6.07466 l 0.12,0.54934 0.54267,-0.37734 c 1.10133,-0.76266 1.68533,-2.47466 2.16133,-3.86933 0.0933,-0.27333 0.18133,-0.528 0.264,-0.74933 0.71867,-1.91334 1.39333,-3.192 2.32133,-4.58134 -0.36666,3.80534 -1.01866,7.80134 -2.68,11.91334 l -0.556,1.37733 1.24667,-0.952 c 2.83067,-2.16267 5.388,-5.09867 7.668,-7.956 -0.27467,0.792 -0.52,1.57067 -0.76,2.332 -1.08133,3.43467 -2.07467,6.59067 -5.24133,9.316 -3.88534,3.344 -8.432,5.07467 -13.092,5.164 l -0.49334,0.003 c -1.64,-0.0107 -3.12933,-0.384 -4.54133,-0.73734 -1.20667,-0.30266 -2.432,-0.60933 -3.7,-0.68 -0.56133,-0.032 -1.11333,-0.0387 -1.65733,-0.0213 -3.688,0.11867 -7.14133,1.36933 -10.26,3.61067 -1.26533,0.90933 -2.55867,1.37333 -3.74533,1.364"
       style="display:inline;fill:#383838;fill-opacity:1;fill-rule:nonzero;stroke:none;stroke-width:1.33333"
       id="path34561" />
    <path
       d="m 344.84759,125.42227 c 3.14667,-0.20533 6.22533,-1.148 9.064,-2.85066 0.51333,-0.628 0.99467,-1.29467 1.46267,-1.95067 1.04,-1.45867 2.02533,-2.93067 3.08666,-4.36 0.82534,-1.11333 1.90667,-2.50133 1.764,-3.984 -0.52266,0.54 -1.076,1.016 -1.64933,1.45867 -1.03067,1.04133 -2.092,2.03466 -3.208,2.888 l -1.248,0.952 0.55733,-1.376 c 0.0333,-0.084 0.0613,-0.168 0.0947,-0.252 -0.38533,0.16933 -0.764,0.344 -1.164,0.496 -1.376,0.52266 -2.236,1.04666 -2.1,-0.75334 0.0507,-0.65866 0.32,-1.31466 0.528,-1.97466 l -0.088,-0.40267 c -0.0333,-0.148 -0.0333,-0.30667 -0.056,-0.45867 -0.60667,0.988 -1.40667,1.81734 -2.18533,2.68 -0.54934,0.60934 -1.068,1.144 -1.71334,1.628 -0.81066,0.608 -2.096,0.64267 -2.85333,1.316 0.56,-1.03333 1.24933,-2 1.39467,-3.272 -0.484,0.67067 -1.12934,1.12134 -1.792,1.61334 -1.52667,1.136 -3.90934,2.49466 -5.84,2.26133 0.22933,-1.716 2.73466,-3.16533 3.50266,-4.748 -1.93866,1.948 -3.684,3.48933 -6.11733,4.77333 0.264,-0.66 0.89333,-1.15066 1.152,-1.81733 0.23333,-0.60133 0.31733,-1.42 0.36533,-2.07333 -0.61466,0.50533 -1.11066,1.45066 -1.72133,2.04 -1.04533,1.00533 -1.86933,2.17466 -3.096,3.00933 0.11334,-0.46 0.20134,-0.89333 0.21334,-1.35733 -0.71334,0.912 -2.304,1.776 -3.484,2.13466 -0.0213,-0.34 -0.0213,-0.69866 -0.0253,-1.04 -0.44933,0.536 -1.44133,1.13467 -2.12666,1.23334 -0.0213,-0.404 -0.0173,-0.81867 -0.008,-1.22667 -0.964,0.556 -1.80534,1.67733 -2.91467,0.956 -0.23867,0.37733 -0.39733,1.28533 -0.948,1.25733 -0.0653,-0.004 -0.12933,-0.0387 -0.19333,-0.084 -0.168,0.2 -0.352,0.39067 -0.57334,0.56134 l -0.30533,0.23466 -0.11067,-0.39333 c -0.0173,-0.0627 -0.0507,-0.13867 -0.0907,-0.22267 -0.256,0.85334 -0.53734,1.712 -1.15867,2.376 l -0.152,0.16267 -0.16933,-0.11333 c -0.144,-0.0973 -0.272,-0.14534 -0.384,-0.14134 -0.31867,0.009 -0.568,0.50134 -0.79867,1.05867 -0.13333,0.43733 -0.30267,0.86 -0.52,1.216 -0.16667,0.328 -0.35467,0.60533 -0.59867,0.74267 -0.0787,0.0453 -0.23066,0.10533 -0.63066,0.10666 v 0 0 c -0.0213,0 -0.0533,-0.001 -0.076,-0.003 -0.112,-0.001 -0.24534,-0.009 -0.396,-0.0227 -0.336,-0.028 -0.73867,-0.0813 -1.11334,-0.17067 0.852,0.96667 1.90934,1.47867 3.12134,1.488 1.18666,0.0107 2.47866,-0.45466 3.744,-1.364 3.12,-2.24 6.57333,-3.492 10.26133,-3.60933 0.54266,-0.0187 1.096,-0.012 1.65733,0.02 1.26667,0.072 2.49333,0.37867 3.69867,0.68 1.52133,0.38133 2.83866,0.548 4.37066,0.54 0.524,-0.004 1.048,0.06 1.57067,0.13733"
       style="display:inline;opacity:0.199997;fill:#000000;fill-opacity:1;fill-rule:nonzero;stroke:none;stroke-width:1.33333"
       id="path34571" />
    <path
       d="m 322.81319,126.88761 c -0.0253,-0.14534 -0.008,-0.056 -0.11066,-0.14134 -0.009,-0.0573 0.0107,-0.16133 -0.0173,-0.20933 -0.312,-0.08 -0.61066,-0.27867 -0.87733,-0.47867 0.38933,0.312 0.83067,0.21467 1.29467,0.068 0.53466,-0.16933 1.448,-0.11466 1.912,-0.44133 -0.136,-0.27867 -0.29334,-0.55733 -0.37467,-0.86933 0.51733,-0.0587 1.12267,0 1.55067,-0.38934 -0.192,-0.32133 -0.524,-0.74666 -0.59734,-1.124 1.12667,0.384 2.95867,0.052 4.22,-0.116 -0.13866,-0.0493 -0.32,-0.22133 -0.44533,-0.28666 1.03867,-0.128 2.12,-0.196 3.15067,-0.34134 -0.0707,-0.216 -0.11067,-0.45866 -0.28134,-0.63866 0.196,0.176 1.19867,0.81733 1.43333,0.77733 0.49734,-0.0867 1.19467,-1.35867 1.53067,-1.74267 0.0827,0.416 0.012,0.86934 0.0107,1.30534 0.0467,0.003 0.128,0.0293 0.164,0.0627 0.4,-0.31333 0.86133,-0.67333 1.11466,-1.096 -0.0827,0.65067 0.14667,1.288 0.796,1.41067 0.69067,0.13067 1.02,-0.468 1.55467,-0.88267 0.24533,0.34534 0.25467,0.78534 0.29067,1.232 0.75466,-0.41333 1.48533,-1.40266 1.988,-2.09866 -0.012,0.724 -0.44667,1.884 0.4,1.948 0.58,0.044 1.916,-1.156 2.396,-1.58934 -0.47867,0.69867 -0.836,1.24667 -1.4,1.91067 1.368,0.024 2.328,-0.41867 3.62533,-0.992 0.91333,-0.404 2.48667,-1.20133 3.26933,-1.90133 -0.52666,1.448 -2.61066,2.49066 -3.76133,3.28666 0.83067,-0.368 1.728,-0.39466 2.59067,-0.78266 0.77733,-0.35067 1.716,-1.292 2.556,-1.38267 -0.13067,0.36133 -0.39467,0.712 -0.62934,1.07467 0.64667,-0.55867 1.51867,-0.716 2.28,-0.95067 -0.18133,0.37467 -0.51733,0.70533 -0.73066,1.11333 1.50133,-0.38666 2.776,-1.43066 4.18133,-2.39066 2.12,-1.448 4.46133,-3.89067 4.08,-6.34534 -1.57867,0.43067 -3.12133,2.13334 -4.35867,3.07334 0,0 -2.476,1.88266 -2.476,1.88266 0,0 1.09467,-2.72933 1.09467,-2.72933 0.88533,-2.20267 1.484,-4.352 1.60667,-6.62533 -1.24667,1.36 -1.564,3.348 -3.02667,4.35733 -10e-4,0 -1.08133,0.74533 -1.08133,0.74533 l -0.24,-1.092 c -0.25467,-1.15733 -0.23067,-2.39333 -0.0693,-3.66666 -0.52666,0.916 -1.02266,1.70666 -1.41066,2.26266 l -1.94134,2.78267 c 0.088,-0.75867 0.048,-1.468 0.11467,-2.21467 0.0147,-0.156 0.21467,-2.796 0.0493,-2.62 -0.81466,0.86667 -1.36933,1.87467 -2.21066,2.676 -0.204,0.19334 -1.88267,1.36667 -1.90134,1.416 0.31067,-0.77466 0.45734,-2.29466 0.46534,-3.116 -2.076,1.39867 -3.428,3.11334 -5.708,3.46267 -0.0893,-1.09333 0.56133,-2.37467 0.224,-3.48533 0.06,0.196 -1.92667,2.10666 -2.15867,2.38 -1.00933,1.19333 -1.46,2.93866 -2.57867,3.90266 -0.85066,0.73467 -0.45866,0.0227 -1.02,-0.55733 -0.37866,0.59733 -1.55999,1.972 -2.10399,2.128 -0.13734,0.0387 0.35733,-3.23467 0.44533,-3.536 -0.5,0.952 -1.164,1.80267 -1.71733,2.66933 -0.11334,0.17867 -1.65467,1.94667 -1.65467,1.77467 -10e-4,-0.73467 -0.0213,-1.49467 0.008,-2.22267 -0.256,0.77334 -1.23333,2.344 -1.90267,2.61734 -0.22133,0.0907 -0.43066,0.14266 -0.62266,0.156 -0.45867,0.0293 -0.784,-0.144 -1.02267,-0.42134 -0.21733,1.20934 -0.68533,2.31867 -1.70933,3.10267 l -0.60534,0.456 -0.052,-0.18133 c -0.22133,0.6 -0.51333,1.19066 -0.97333,1.68133 l -0.30267,0.32267 -0.33733,-0.228 c -0.13467,-0.0907 -0.212,-0.10267 -0.248,-0.10134 -0.30667,0.008 -0.79867,1.27734 -0.90267,1.58 -0.224,0.65067 -0.15733,1.092 0.48534,1.44134 0.60933,0.332 1.2,0.16933 1.74666,-0.42934 -0.36266,-0.21066 -0.67866,-0.456 -0.74266,-0.976 0.50266,0.27867 1.14533,0.0467 1.67466,0.33334 m -0.432,-5.42 c 0.0427,0.21466 0.332,0.688 0.40267,0.94266 1.67067,-1.29333 1.56267,-3.65866 1.592,-5.92533 0.492,1.148 0.24267,3.67067 1.89867,2.98133 0.608,-0.25333 3.208,-5.372 3.20933,-6.09866 0,-0.14267 -0.005,-0.136 -0.0187,0.0173 0.37334,1.13467 0.20667,2.45867 0.244,3.73867 1.31734,-1.772 2.052,-4.27467 3.18,-6.29334 0.004,1.836 -0.13866,3.73334 -0.27333,5.55734 0.42667,-0.62 1.004,-0.85867 1.56533,-1.12 -0.0493,0.468 0.0667,1.03466 -0.0573,1.51066 1.21733,-2.63733 4.22266,-6.528 6.33866,-9.74133 0.116,2.01467 -0.18533,4.15733 -0.244,6.20533 1.93467,-0.5 5.05467,-4.28266 5.81467,-6.352 -0.172,1.76267 -0.304,3.50534 -0.50533,5.23467 2.15733,-2.07333 2.54933,-5.16133 4.46266,-7.156 -0.10933,2.22533 -0.40666,4.51333 -0.67066,6.71867 1.45333,-2.10267 4.332,-7.472 4.592,-9.90534 -0.432,3.752 -2.23334,8.04667 -1.512,11.34667 1.13466,-0.79067 1.71733,-3.07333 2.18533,-4.324 0.92667,-2.484 1.792,-3.964 3.42,-6.19733 -0.38933,4.73333 -1.06,9.18266 -2.888,13.68 3.59733,-2.764 6.66,-6.704 9.62933,-10.56134 -2.62133,5.57067 -2.464,10.65867 -7.41733,14.89734 -4.33333,3.708 -9.28133,5.30266 -13.92667,5.26 -3.08133,-0.028 -5.53466,-1.27867 -8.24666,-1.43867 -4.45467,-0.264 -8.332,1.076 -11.724,3.49733 -2.716,1.93867 -5.908,2.112 -7.86533,-1.11866 0.25066,0.41333 2.55733,0.736 2.96666,0.50266 0.91067,-0.52133 1.08267,-3.86533 2.55067,-2.88133 0.736,-0.79067 0.95467,-1.90933 1.29733,-2.97733"
       style="display:inline;fill:#000000;fill-opacity:1;fill-rule:nonzero;stroke:none;stroke-width:1.33333"
       id="path34581" />
  </g>
</svg>
