<?xml version="1.0" encoding="UTF-8" standalone="no"?>
<!-- Created with Inkscape (http://www.inkscape.org/) -->

<svg
   version="1.1"
   id="svg156786"
   width="400"
   height="400"
   viewBox="0 0 400 400"
   sodipodi:docname="Eyes12.svg"
   inkscape:version="1.2.2 (b0a8486, 2022-12-01)"
   xmlns:inkscape="http://www.inkscape.org/namespaces/inkscape"
   xmlns:sodipodi="http://sodipodi.sourceforge.net/DTD/sodipodi-0.dtd"
   xmlns="http://www.w3.org/2000/svg"
   xmlns:svg="http://www.w3.org/2000/svg">
  <defs
     id="defs156790" />
  <sodipodi:namedview
     id="namedview156788"
     pagecolor="#ffffff"
     bordercolor="#666666"
     borderopacity="1.0"
     inkscape:showpageshadow="2"
     inkscape:pageopacity="0.0"
     inkscape:pagecheckerboard="0"
     inkscape:deskcolor="#d1d1d1"
     showgrid="false"
     inkscape:zoom="1.8525"
     inkscape:cx="199.73009"
     inkscape:cy="200"
     inkscape:window-width="1905"
     inkscape:window-height="961"
     inkscape:window-x="2059"
     inkscape:window-y="283"
     inkscape:window-maximized="0"
     inkscape:current-layer="g19280">
    <inkscape:page
       x="0"
       y="0"
       id="page156792"
       width="400"
       height="400" />
  </sodipodi:namedview>
  <g
     id="g156794"
     inkscape:groupmode="layer"
     inkscape:label="Eye"
     sodipodi:insensitive="true">
    <path
       d="m 323.20653,141.02521 c 0.48933,0.392 0.76266,0.932 1.26666,1.25333 1.048,0.668 1.38267,1.77067 2.48534,2.33467 1.02133,0.524 2.20266,0.72533 3.32266,0.92133 1.57467,0.27733 3.78667,0.39467 5.14133,-0.38 0.76667,-0.43867 1.56534,-0.82933 2.21334,-1.432 0.49866,0.716 -0.009,2.17867 -0.412,2.792 -0.44934,0.684 -1.388,0.85333 -1.80934,1.42667 -2.49999,0.7 -6.20133,0.228 -8.30133,-1.42267 -0.88666,-0.696 -1.612,-1.60667 -2.29066,-2.49867 -0.71334,-0.936 -1.43734,-1.796 -1.616,-2.99466"
       style="opacity:0.199997;fill:#000000;fill-opacity:1;fill-rule:nonzero;stroke:none;stroke-width:1.33333"
       id="path163688" />
    <path
       d="m 336.11799,140.95601 c 0.29733,-0.1 0.59067,-0.212 0.88,-0.33734 0.31067,-0.13466 0.61467,-0.284 0.91067,-0.45066 0.27066,-0.152 0.50666,-0.37067 0.80666,-0.468 0.416,-0.13334 0.85867,-0.17067 1.09334,-0.596 0.32933,-0.59867 0.24133,-2.59067 0.0813,-3.21734 -0.272,-1.07733 -1.944,-0.94266 -2.83067,-1.07733 -2.46533,-0.37333 -4.95733,0.0147 -7.37199,0.27467 -1.236,0.13333 -2.11467,0.752 -3.03867,1.40533 -0.89467,0.63333 -1.78,1.02133 -2.464,1.91467 -0.47467,0.62133 -0.59867,1.27733 -0.84267,2.012 -0.23466,0.704 0.972,0.95066 1.42667,1.048 1.01867,0.22 2.01467,0.48933 3.06133,0.54666 1.07467,0.0587 2.152,-0.028 3.22134,-0.13066 1.348,-0.12934 2.69999,-0.28667 4.01599,-0.61734 0.35467,-0.0893 0.70534,-0.19066 1.05067,-0.30666"
       style="fill:#ffffff;fill-opacity:1;fill-rule:nonzero;stroke:none;stroke-width:1.33333"
       id="path163742" />
    <path
       d="m 277.85093,133.88881 13.16133,0.63866 c 0,0 4.80133,2.61734 4.80267,2.61734 0.74933,0.40933 2.62133,2.6 2.17466,3.532 -0.31866,0.668 -1.89066,-0.17467 -2.39866,-0.18934 -1.184,-0.0333 -2.6,0.30534 -3.69734,0.74667 -2.44266,0.984 -5.61866,0.536 -8.20266,0.14267 -1.83467,-0.27867 -3.876,-0.528 -5.556,-1.372 -2.512,-1.26267 -4.31467,-3.988 -4.31467,-3.988 z"
       style="fill:#ffffff;fill-opacity:1;fill-rule:nonzero;stroke:none;stroke-width:1.33333"
       id="path163746" />
    <path
       d="m 291.34653,134.88161 c 0.14533,0.74133 0.14533,1.528 -0.0347,2.32533 -0.41867,1.85733 -1.75733,3.66533 -3.37467,4.34933 l -5.31733,-0.69733 c -1.88133,-1.268 -2.89333,-3.33333 -2.36133,-5.69467 0.156,-0.696 0.43866,-1.33466 0.80933,-1.90666 2.732,-0.32534 7.404,0.80933 10.27867,1.624"
       style="fill:#754324;fill-opacity:1;fill-rule:nonzero;stroke:none;stroke-width:1.33333"
       id="path163750" />
    <path
       d="m 289.03053,136.40921 c 0,1.63333 -1.328,2.95733 -2.96667,2.95733 -1.63867,0 -2.96667,-1.324 -2.96667,-2.95733 0,-1.63334 1.328,-2.95734 2.96667,-2.95734 1.63867,0 2.96667,1.324 2.96667,2.95734"
       style="fill:#000000;fill-opacity:1;fill-rule:nonzero;stroke:none;stroke-width:1.33333"
       id="path163754" />
    <path
       d="m 290.93079,137.13654 c 0.14534,-0.64667 0.16934,-1.29867 0.0707,-1.94267 -2.59467,-0.72666 -7.044,-1.812 -9.712,-1.56933 -0.30533,0.508 -0.524,1.048 -0.65067,1.60933 -0.47733,2.12134 0.356,4.016 2.124,5.252 l 5.116,0.66934 c 1.484,-0.66667 2.676,-2.348 3.052,-4.01867 m -8.52933,4.044 c -2.08933,-1.40667 -3.08,-3.61867 -2.524,-6.08667 0.16133,-0.716 0.452,-1.40266 0.864,-2.03733 l 0.10533,-0.16267 0.18934,-0.0227 c 2.70933,-0.32267 7.168,0.712 10.43066,1.63466 l 0.21867,0.0627 0.044,0.22267 c 0.16133,0.82266 0.14933,1.65866 -0.0373,2.48666 -0.43734,1.944 -1.852,3.896 -3.60267,4.636 l -0.0987,0.0413 -5.51333,-0.72267 z"
       style="fill:#000000;fill-opacity:1;fill-rule:nonzero;stroke:none;stroke-width:1.33333"
       id="path163758" />
    <path
       d="m 284.90879,135.47761 c 0,0.768 -0.624,1.39066 -1.39466,1.39066 -0.77067,0 -1.39467,-0.62266 -1.39467,-1.39066 0,-0.768 0.624,-1.39067 1.39467,-1.39067 0.77066,0 1.39466,0.62267 1.39466,1.39067"
       style="fill:#ffffff;fill-opacity:1;fill-rule:nonzero;stroke:none;stroke-width:1.33333"
       id="path163762" />
    <path
       d="m 298.36293,140.22347 c 0.0387,-0.17466 0.012,-0.36533 -0.104,-0.57466 -0.16934,-0.304 -0.43734,-0.532 -0.60134,-0.84134 -0.15733,-0.29333 -0.38666,-0.56933 -0.584,-0.836 -1.524,-2.06133 -2.44266,-3.70666 -4.952,-4.34933 -2.84666,-0.73067 -5.788,-1.42133 -8.74133,-1.248 -2.184,0.12933 -5.44267,0.604 -7.45733,1.472 -1.196,0.51467 -2.31734,1.18267 -3.42534,1.86133 -0.52666,0.32267 -0.99866,0.612 -1.58266,0.80667 -0.60267,0.20133 -1.22934,0.336 -1.86134,0.39867 -0.292,0.0293 -0.57466,0.0467 -0.85733,0.1 -0.22133,0.0413 -0.54267,-0.032 -0.72,0.128 0.036,-0.032 0.54,0.12533 0.61467,0.13733 2.028,0.33467 4.268,0.10667 6.108,-0.83333 2.42933,-1.24134 6.2,-2.052 8.932,-2.15334 1.62266,-0.06 3.18666,0.18134 4.77466,0.48 0.37067,0.0693 0.74,0.14267 1.10934,0.216 3.02,0.59867 4.71733,1.916 7.25066,3.656 0.54934,0.37734 1.19734,0.73867 1.58267,1.3 0.19067,0.27867 0.0573,0.58267 0.0493,0.904 0.23867,-0.18133 0.412,-0.388 0.46534,-0.624"
       style="fill:#000000;fill-opacity:1;fill-rule:nonzero;stroke:none;stroke-width:1.33333"
       id="path163766" />
    <path
       d="m 328.84413,135.04281 c -0.26534,0.10266 -0.52667,0.212 -0.78934,0.32 -0.66266,0.27466 -1.31466,0.56133 -1.87066,1.02266 -0.15067,0.124 -0.34534,0.20667 -0.46667,0.36267 -0.14,0.17867 -0.072,0.376 -0.0147,0.57467 0.13867,0.47866 0.34,0.94 0.58,1.37733 0.676,1.22667 1.768,2.564 3.148,3.01733 l 5.312,-0.60533 c 1.28,-1.15733 1.936,-3.10933 1.788,-5.04533 -0.0307,-0.39334 -0.0987,-0.784 -0.18267,-1.168 -0.0573,-0.26 -0.056,-0.492 -0.33066,-0.58267 -0.31334,-0.10267 -0.64934,-0.056 -0.97067,-0.0293 -0.532,0.044 -1.05867,0.0413 -1.59467,0.0453 -1.27999,0.0107 -2.57466,0.0667 -3.80133,0.43067 -0.27333,0.0813 -0.54133,0.17733 -0.80666,0.28"
       style="fill:#754324;fill-opacity:1;fill-rule:nonzero;stroke:none;stroke-width:1.33333"
       id="path163778" />
    <path
       d="m 334.37399,136.60734 c 0,1.61867 -1.19466,2.93067 -2.66933,2.93067 -1.47333,0 -2.668,-1.312 -2.668,-2.93067 0,-1.61867 1.19467,-2.93067 2.668,-2.93067 1.47467,0 2.66933,1.312 2.66933,2.93067"
       style="fill:#000000;fill-opacity:1;fill-rule:nonzero;stroke:none;stroke-width:1.33333"
       id="path163782" />
    <path
       d="m 330.08466,136.41214 c 0,0.688 -0.55333,1.244 -1.236,1.244 -0.68133,0 -1.23467,-0.556 -1.23467,-1.244 0,-0.688 0.55334,-1.244 1.23467,-1.244 0.68267,0 1.236,0.556 1.236,1.244"
       style="fill:#ffffff;fill-opacity:1;fill-rule:nonzero;stroke:none;stroke-width:1.33333"
       id="path163786" />
    <path
       d="m 326.21333,136.95681 c 0.44,2.11066 1.33466,3.68933 3.26,4.36666 l 5.09866,-0.58133 c 1.112,-1.06533 1.712,-2.832 1.57333,-4.64533 -0.0387,-0.50134 -0.13733,-1 -0.26,-1.48667 -0.0547,-0.22 -0.11866,-0.31733 -0.34666,-0.384 -0.16534,-0.0493 -0.34,-0.056 -0.50934,-0.0813 -0.34533,-0.0533 -0.704,-0.0133 -1.05466,-0.0133 -0.284,-0.001 -0.564,0.016 -0.848,0.024 -0.43333,0.012 -0.86533,0.17867 -1.308,0.18134 -0.19067,0.001 -0.35867,0.068 -0.536,0.136 -0.096,0.0373 -0.18667,0.0973 -0.28,0.132 -0.21333,0.0787 -0.452,0.10533 -0.66933,0.18266 -0.64267,0.228 -1.31467,0.38 -1.96934,0.55734 -0.26266,0.0693 -0.49333,0.20666 -0.74666,0.284 -0.16667,0.0507 -0.33067,0.108 -0.48267,0.196 -0.17867,0.10533 -0.33467,0.244 -0.468,0.40266 -0.0853,0.10267 -0.16267,0.212 -0.23333,0.32534 -0.0453,0.0733 -0.23734,0.32133 -0.22,0.404 m 10.70266,-0.92 c 0.16133,2.096 -0.572,4.15066 -1.91333,5.36266 l -0.092,0.084 -5.52,0.628 -0.0813,-0.0267 c -1.24134,-0.40267 -2.27467,-1.21734 -2.93067,-2.348 -0.30533,-0.52667 -0.52933,-1.09867 -0.69733,-1.68267 -0.0853,-0.296 -0.21867,-0.648 -0.22934,-0.95733 -0.012,-0.316 0.47467,-0.59467 0.7,-0.768 0.22,-0.168 0.47334,-0.416 0.728,-0.51067 0.14134,-0.0533 0.28,-0.12533 0.42667,-0.17067 0.26667,-0.0813 0.58667,-0.104 0.832,-0.23733 0.28,-0.152 0.61067,-0.32533 0.92133,-0.40533 0.71334,-0.18134 1.416,-0.40534 2.132,-0.57334 0.5,-0.11733 0.99867,-0.28 1.49467,-0.43466 0.80533,-0.25067 1.576,-0.32534 2.404,-0.32667 0.284,0 0.564,0.0467 0.84,0.10533 0.26533,0.056 0.35066,0.06 0.50933,0.28934 0.0813,0.11866 0.15467,0.2 0.19067,0.336 0.0507,0.19333 0.0933,0.39066 0.132,0.58666 0.0693,0.34667 0.12666,0.69734 0.15333,1.04934"
       style="fill:#000000;fill-opacity:1;fill-rule:nonzero;stroke:none;stroke-width:1.33333"
       id="path163790" />
    <path
       d="m 339.72279,134.39587 c -0.40133,-0.28133 -0.88667,-0.55866 -1.30267,-0.66666 -1.89066,-0.49334 -3.87066,-0.58134 -5.80399,-0.272 -2.168,0.348 -4.24267,1.18133 -6.10667,2.33333 -0.60267,0.372 -1.32533,1.30267 -1.88267,1.74 -0.53466,0.41733 -0.80266,1.34533 -1.072,1.94533 0.83734,-1.868 4.04934,-3.40133 6.01734,-4.04 1.87333,-0.608 3.90666,-0.82133 5.89066,-0.67333 1.12133,0.0827 2.40667,0.17733 3.36267,0.83067 0.552,0.376 0.79733,1.348 1.04533,1.77466 0.0693,0.49067 -0.352,1.08934 -0.764,1.64 -0.24133,0.32134 -1.04533,0.99334 -1.39333,1.28 0.46,-0.18533 0.95866,-0.37066 1.40266,-0.62933 0.78134,-0.45867 1.32134,-0.892 1.69867,-1.72533 0.252,0.12133 0.584,0.22266 0.88933,0.248 0.26934,0.0213 0.53867,0.0987 0.792,0.12533 0.168,0.0173 0.60534,-0.20267 0.73334,-0.13333 -0.684,-0.368 -1.27334,-0.88667 -1.86134,-1.388 -0.26933,-0.23067 -0.36133,-0.94 -0.54933,-1.23334 -0.19333,-0.3 -0.39067,-0.60266 -0.66933,-0.832 -0.12267,-0.10133 -0.268,-0.21333 -0.42667,-0.324"
       style="fill:#000000;fill-opacity:1;fill-rule:nonzero;stroke:none;stroke-width:1.33333"
       id="path163794" />
    <path
       d="m 297.66493,144.36414 c 0,0 -6.452,3.996 -13.172,4.63867 0,0 9.828,1.596 13.172,-4.63867"
       style="fill:#000000;fill-opacity:1;fill-rule:nonzero;stroke:none;stroke-width:1.33333"
       id="path163810" />
    <path
       d="m 324.01479,137.59601 c 0,0 -1.71466,2.328 -1.55733,3.54266 0.15867,1.21334 0.66533,1.97867 0.60933,1.26 -0.0547,-0.71866 0.46267,-2.96266 1.10534,-4.08266 0.644,-1.12134 0.592,-1.61467 -0.15734,-0.72"
       style="fill:#000000;fill-opacity:1;fill-rule:nonzero;stroke:none;stroke-width:1.33333"
       id="path163814" />
    <path
       d="m 324.95386,144.20801 c 0,0 2.79733,3.40133 8.58266,3.97333 0,0 -3.84666,0.25467 -5.78533,-0.85867 -1.93866,-1.112 -2.79733,-3.11466 -2.79733,-3.11466"
       style="fill:#000000;fill-opacity:1;fill-rule:nonzero;stroke:none;stroke-width:1.33333"
       id="path163818" />
    <path
       d="m 273.02946,135.92707 c 0,0 1.676,3.10134 5.42133,4.172 0,0 -4.28,-3.74533 -2.44533,-5.504 0.73733,-0.70666 -2.976,1.332 -2.976,1.332"
       style="fill:#000000;fill-opacity:1;fill-rule:nonzero;stroke:none;stroke-width:1.33333"
       id="path163822" />
    <path
       d="m 271.09653,137.02841 c -0.208,1.22533 2.71466,2.41466 3.63333,2.824 0.50133,0.22266 1.28133,0.29466 1.70533,0.648 -0.37866,-0.32667 -0.87733,-0.488 -1.284,-0.76667 -1.19333,-0.81867 -2.07733,-2.02933 -2.14933,-3.368 -0.005,-0.112 -1.35067,0.16133 -1.472,0.21867 -0.27733,0.132 -0.40533,0.28266 -0.43333,0.444"
       style="opacity:0.199997;fill:#000000;fill-opacity:1;fill-rule:nonzero;stroke:none;stroke-width:1.33333"
       id="path163832" />
    <path
       d="m 295.24986,137.63307 c 1.056,0.128 2.05333,0.728 2.52267,1.704 0.21466,0.44667 0.57333,1.30534 -0.009,1.57067 -0.48266,0.22 -1.47733,-0.35467 -1.964,-0.444 -0.796,-0.14533 -1.56666,0.328 -2.268,0.56133 0.57867,-0.42266 1.23867,-0.87066 1.632,-1.48533 0.44267,-0.692 0.19467,-1.17867 0.0867,-1.90667"
       style="opacity:0.199997;fill:#000000;fill-opacity:1;fill-rule:nonzero;stroke:none;stroke-width:1.33333"
       id="path163848" />
    <path
       id="rect8009"
       style="fill:#000000;fill-opacity:0.2;stroke:none;stroke-width:0.5;stroke-miterlimit:40"
       d="m 299.5957,139.25 c -0.0323,0.46526 -0.0804,1.06694 -0.32422,1.38672 -0.97333,1.27333 -2.26815,0.99448 -3.66015,1.14648 -1.02267,0.112 -1.5427,1.47197 -2.33203,2.0293 -1.68533,1.18533 -3.9226,1.47788 -5.91992,1.69922 -2.252,0.25066 -4.95554,0.44921 -7.15821,-0.18945 -0.22133,-0.0653 -1.96186,-0.77164 -1.97656,-0.6543 -0.22933,1.80266 3.39436,3.11931 4.67969,3.55664 5.70666,1.94133 12.32361,-0.16522 15.96093,-4.94922 0.62534,-0.82267 1.01375,-1.75276 1.59375,-2.60742 0.39518,-0.58176 0.65927,-0.95303 0.82032,-1.41797 z" />
  </g>
  <g
     inkscape:groupmode="layer"
     id="layer2"
     inkscape:label="NoseEdge"
     sodipodi:insensitive="true"
     style="display:inline">
    <path
       d="m 305.79026,137.52601 c -0.12667,-1.01867 -0.11333,-2.184 -0.41333,-3.16667 -0.248,-0.81333 -0.76934,-2.50267 -1.66667,-1.136 -0.548,0.83333 -1.248,2.368 -1.08133,3.43733 0.15066,0.96267 1.468,1.14267 1.79333,2.07067 0.488,1.39333 1.02133,2.772 1.42667,4.196 0.0467,0.0547 0.144,0.13333 0.19733,0.19733 0.26933,0.31734 0.28133,-0.73333 0.28,-0.74533 -0.004,-0.44 -0.0413,-0.85867 -0.0947,-1.29867 -0.148,-1.184 -0.29466,-2.36933 -0.44133,-3.55466"
       style="fill:#000000;fill-opacity:1;fill-rule:nonzero;stroke:none;stroke-width:1.33333"
       id="path163806" />
  </g>
  <g
     inkscape:groupmode="layer"
     id="layer1"
     inkscape:label="Standard Brow"
     style="display:none"
     sodipodi:insensitive="true">
    <path
       d="m 331.29413,127.83494 c 1.784,-0.52667 3.93333,-0.916 5.66933,-0.188 0.764,0.32 1.12266,1.15733 1.83333,1.524 0.072,0.28 0.30267,0.57333 0.404,0.88533 0.26933,0.836 0.81867,1.29334 1.38667,1.90934 0.0227,0.0253 1.54266,-1.60667 1.69866,-1.716 0.83067,-0.584 1.19467,-0.10934 2.06267,-0.0413 1.05733,-1.70533 2.20267,-3.37333 3.30533,-5.056 l -6.80133,-2.964 -8.49066,-0.112 c -2.76667,1.70667 -5.87334,3.18534 -8.3,5.36934 -1.51334,1.36133 -2.69467,3.03733 -3.82534,4.71866 -1.19333,1.776 -0.80266,3.27734 0.416,4.93334 0.22,0.29866 0.72134,1.496 1.192,1.20266 0.084,-0.052 0.13867,-0.13733 0.18934,-0.22133 0.72933,-1.22533 0.88266,-2.64933 1.524,-3.91333 0.604,-1.18934 1.41333,-2.27334 2.36666,-3.20667 1.404,-1.37467 3.12934,-2.42667 5.00667,-3.01333 0.11867,-0.0373 0.24,-0.0747 0.36267,-0.11067"
       style="opacity:0.199997;fill:#000000;fill-opacity:1;fill-rule:nonzero;stroke:none;stroke-width:1.33333"
       id="path163704" />
    <path
       id="path163732"
       style="opacity:1;fill:#000000;fill-opacity:0.2;fill-rule:nonzero;stroke:none;stroke-width:1.33333"
       d="m 283.64062,119.80273 c -0.93685,0.0137 -1.87106,0.0745 -2.80273,0.20313 -4.172,0.576 -8.06056,2.45367 -12.19922,3.23633 -1.38934,0.26134 -2.89105,0.39476 -4.12305,1.13476 -2.83466,1.704 -1.0436,3.91953 1.03907,5.38086 2.17466,1.52667 4.8749,3.43778 7.60156,2.06446 1.108,-0.55867 1.95916,-1.50752 3.03516,-2.10352 0.84,-0.46533 1.81075,-0.78327 2.71875,-1.08594 2.02399,-0.676 4.13886,-1.11595 6.26953,-1.25195 4.11999,-0.26267 8.55573,0.70006 11.28906,4.02539 0.0214,0.0253 0.0412,0.0509 0.0625,0.0762 1.22533,1.52534 1.51201,3.40941 2.27734,5.16406 0.33333,0.764 0.86804,1.51143 0.80274,2.38477 -0.005,0.0615 -0.0147,0.14908 -0.0195,0.21875 h 1.67187 c 0.10471,-0.29848 0.17938,-0.62309 0.20508,-1.08008 0.0653,-1.16 -0.004,-2.34147 0.33984,-3.4668 0.26267,-0.85599 0.58933,-1.87506 1.22266,-2.53906 0.596,-0.62667 0.84432,-1.02628 0.76563,-1.96094 -0.0707,-0.83599 -0.15777,-1.67432 -0.3711,-2.48632 -0.45734,-1.748 -1.33461,-3.06002 -2.47461,-4.05469 -2.30933,-2.016 -5.70033,-2.73192 -8.875,-3.14258 -2.798,-0.36198 -5.62498,-0.75791 -8.43555,-0.7168 z" />
    <path
       d="m 299.17679,136.74907 c -0.456,-1.35866 -0.55466,-2.77466 -1.06666,-4.124 -0.47734,-1.25866 -1.136,-2.476 -2.128,-3.40533 -1.13067,-1.06 -2.604,-1.67333 -4.08134,-2.13867 -2.92666,-0.92266 -6.23866,-1.43466 -9.12533,-0.124 -1.08933,0.49467 -2.14133,1.068 -3.14533,1.71467 2.696,-0.58533 5.23466,-1.204 8.016,-0.89333 3.00666,0.33466 6.77466,1.4 8.54,4.03866 0.98933,1.47867 1.704,3.224 2.33733,4.88134 0.49867,1.30266 1.38267,3.572 0.16533,4.74666 0.25067,-0.24133 0.63067,-0.54933 0.90934,-0.788 1.06266,-0.90666 -0.044,-2.844 -0.384,-3.8 -0.0133,-0.036 -0.0253,-0.072 -0.0373,-0.108"
       style="fill:#000000;fill-opacity:1;fill-rule:nonzero;stroke:none;stroke-width:1.33333"
       id="path163770" />
    <path
       d="m 323.65533,133.02441 c 0.28266,-0.53734 0.652,-1.032 1.05466,-1.49467 2.088,-2.4 5.14,-4.032 8.39067,-4.48533 1.104,-0.15467 2.252,-0.17467 3.31466,0.14666 0.57467,0.17334 1.12,0.45334 1.572,0.832 0.44534,0.37334 0.65067,0.88934 1.044,1.27734 -0.48933,-0.304 -0.84533,-0.764 -1.348,-1.05067 -0.512,-0.29333 -1.12933,-0.36533 -1.728,-0.392 -5.35599,-0.248 -10.17066,2.66933 -12.83866,6.952 0.25467,-0.40933 0.208,-1.092 0.428,-1.56267 0.0347,-0.0747 0.072,-0.14933 0.11067,-0.22266"
       style="fill:#000000;fill-opacity:1;fill-rule:nonzero;stroke:none;stroke-width:1.33333"
       id="path163774" />
    <path
       id="path163798"
       style="fill:#383838;fill-opacity:1;fill-rule:nonzero;stroke:none;stroke-width:1.33333"
       d="m 284.80664,118.36133 c -0.31297,-10e-4 -0.6229,0.0119 -0.92773,0.0449 -3.84933,0.41733 -10.74554,1.79804 -14.40821,3.7207 -1.36133,0.71466 -2.74423,1.38733 -4.10156,2.11133 -0.728,0.38666 -2.44472,1.25588 -2.27539,2.31055 0.376,0.124 1.108,-0.28058 1.5,-0.39258 0.34933,-0.1 0.70659,-0.26214 1.05859,-0.35547 1.016,-0.268 1.97485,-0.86741 2.99219,-1.1914 1.22933,-0.39067 2.46942,-0.74969 3.71875,-1.06836 4.41867,-1.12933 9.15171,-1.89989 13.73438,-1.31055 2.33199,0.3 4.59309,1.20551 6.75976,2.07617 1.23866,0.49734 2.46536,1.02102 3.69336,1.54102 0.56933,0.24 1.15986,0.57232 1.75586,0.73632 0.61067,0.168 1.08034,-0.0317 1.65234,-0.26367 1.03333,-0.41733 1.41308,-1.16681 0.92774,-2.24414 -0.21333,-0.472 -0.46149,-0.94836 -0.79883,-1.3457 -1,-1.17333 -2.40164,-1.3723 -3.82031,-1.76563 -1.62133,-0.45067 -3.24629,-0.89464 -4.87696,-1.30664 -2.03932,-0.51566 -4.39318,-1.28856 -6.58398,-1.29687 z m 57.48242,1.19531 c -1.09383,0.0228 -2.20068,0.22018 -3.16601,0.35352 -3.43333,0.47333 -6.89062,1.18342 -9.97461,2.74609 -2.38,1.20667 -4.18321,2.91996 -5.92188,4.89063 -0.20666,0.23465 -0.68304,0.75303 -0.62304,1.0957 0.29466,-0.0387 0.58631,-0.35095 0.84765,-0.48828 0.33466,-0.17734 0.64789,-0.37028 0.94922,-0.59961 2.792,-2.128 6.03814,-2.90278 9.49414,-3.41211 1.48133,-0.21867 2.96441,-0.42141 4.45508,-0.58008 1.20533,-0.12933 2.56625,-0.22773 3.54492,0.71094 1.31867,1.26533 3.01336,1.7625 4.33203,0.20117 1.31867,-1.56 1.55342,-1.62429 -0.14258,-3.62695 -0.2,-0.23867 -0.44107,-0.43891 -0.70507,-0.60157 -0.914,-0.56067 -1.99601,-0.71228 -3.08985,-0.68945 z" />
    <path
       id="path8470"
       style="color:#000000;fill:#000000;-inkscape-stroke:none"
       d="m 284.35352,118.16016 c -0.38624,0.006 -0.77988,0.0289 -1.17969,0.0723 -3.19849,0.34657 -10.08496,1.71403 -13.81836,3.67383 -1.35681,0.71228 -2.73987,1.38554 -3.60156,1.84375 -0.86168,0.45822 -1.44982,0.66593 -2.04297,1.23438 -0.59315,0.56844 -0.61529,1.0598 -0.65821,1.30078 0.38751,-0.47899 0.51148,-0.69181 0.90039,-1.03516 0.38893,-0.34335 1.09741,-0.71472 1.95704,-1.17383 0.85964,-0.45912 2.2826,-1.18336 3.64843,-1.90039 3.59194,-1.88554 10.49985,-3.2477 14.32227,-3.66211 2.35657,-0.25511 5.17184,0.61389 7.51758,1.20703 1.62753,0.41121 3.18991,0.97335 4.81054,1.42383 1.43863,0.39886 2.86655,0.57765 3.80079,1.67383 0.31292,0.36857 0.65234,0.76944 0.66406,0.78516 0,0 -0.0855,-0.4743 -0.44727,-0.9004 -1.06575,-1.25046 -2.49356,-1.59338 -4.0039,-2.01171 -1.51036,-0.41832 -3.13573,-0.8626 -4.76954,-1.27539 -2.02611,-0.51233 -4.39593,-1.29913 -7.0996,-1.25586 z m 57.95312,1.27539 c -1.12242,0.0233 -2.25876,0.0942 -3.2168,0.22656 -3.44429,0.47484 -6.93068,1.18659 -10.05468,2.76953 -2.41972,1.22681 -4.93706,3.76671 -5.57422,4.64648 -0.63716,0.87978 -0.71153,0.89021 -0.83399,1.30469 l 0.68555,-0.75586 c 1.72915,-1.95986 3.52373,-3.66312 5.86328,-4.84961 3.04398,-1.54239 6.52687,-2.2645 9.94922,-2.73632 2.75498,-0.3699 5.0771,-0.31802 5.83594,0.21484 0.75883,0.53286 1.69523,1.24583 1.68164,1.24805 0,0 -0.89197,-1.05193 -1.43555,-1.4375 -0.54359,-0.38558 -1.77797,-0.65419 -2.90039,-0.63086 z m -59.66992,2.24218 c -3.51253,0.0202 -7.02953,0.6724 -10.35938,1.52344 -1.2565,0.32051 -2.50313,0.6817 -3.73828,1.07422 -1.07581,0.34262 -2.03068,0.93851 -2.97461,1.1875 l -0.0137,0.002 -0.0117,0.006 c -0.79668,0.27607 -2.74146,1.23197 -2.6289,1.33399 0,0 1.98013,-0.6449 2.89843,-0.91992 0.91829,-0.27503 1.95506,-0.773 2.91211,-1.07813 1.22351,-0.38882 2.35105,-0.70151 5.17188,-1.42187 2.82083,-0.72038 7.63032,-1.53758 12.14453,-0.95704 2.27215,0.2923 4.53882,1.22716 6.70508,2.09766 1.23392,0.49544 2.41391,1.00511 3.64258,1.52539 0.54247,0.22868 1.1899,0.55587 1.8457,0.73633 0.72327,0.19897 1.22295,0.099 1.81445,-0.23242 0.5915,-0.3315 0.86694,-0.55828 1.07813,-1.04102 0.21119,-0.48275 -0.0871,-1.24383 -0.13672,-1.16992 0,0 0.0708,0.57707 -0.19531,1.11133 -0.11521,0.2313 -0.5682,0.47138 -1.01954,0.66992 -0.45135,0.19853 -0.87301,0.26007 -1.37109,0.12305 -0.53568,-0.1474 -1.11712,-0.47208 -2.0293,-0.85743 -0.91218,-0.38533 -2.13997,-0.91113 -3.38281,-1.41015 -2.16707,-0.87082 -4.45581,-1.788 -6.84766,-2.0957 -1.16276,-0.14954 -2.33306,-0.21376 -3.5039,-0.20704 z m 64.57812,0.68165 c 0,0 -0.2037,0.6992 -0.36718,0.94921 -0.16352,0.25002 -0.44346,0.56732 -0.8125,1.00391 -0.61685,0.73036 -1.26862,0.9512 -1.94532,0.87305 -0.6767,-0.0782 -1.38898,-0.48488 -2.02148,-1.0918 -1.06849,-1.02482 -2.53239,-0.90932 -3.74414,-0.7793 -1.49558,0.1592 -2.98368,0.3631 -4.4668,0.58203 -3.46976,0.51136 -6.76436,1.29208 -9.60742,3.45899 l -1.6543,1.32812 c 0,0 0.36725,-0.022 0.51953,-0.1289 1.29851,-0.98729 1.31481,-0.98268 2.53321,-1.75977 1.2184,-0.77709 4.84098,-1.89701 8.2832,-2.4043 1.47954,-0.2184 2.95956,-0.41997 4.44531,-0.57812 1.19891,-0.12864 2.4549,-0.20994 3.34375,0.64258 0.68617,0.65841 1.48059,1.13071 2.31055,1.22656 0.82996,0.0958 1.6849,-0.21592 2.38672,-1.04687 0.365,-0.43181 0.58295,-0.71696 0.73047,-1.1211 0.14751,-0.40414 0.15565,-1.1735 0.0664,-1.15429 z" />
    <path
       id="path8539"
       style="fill:#000000;fill-opacity:0.2;stroke:none;stroke-width:1px;stroke-linecap:butt;stroke-linejoin:miter;stroke-opacity:1"
       d="m 345.02344,120.17578 c 0,0 0.018,0.99425 -1.17969,1.78711 -1.19771,0.79286 -2.39955,-0.4519 -4.33594,-0.4043 -1.93639,0.0476 -5.23672,0.79492 -7.60742,1.50196 -2.3707,0.70704 -5.05102,1.83601 -6.5625,2.86718 -1.51148,1.03118 -2.63172,2.64862 -2.69922,2.69922 l 2.61524,-1.77148 1.46679,-0.81055 5.43164,-1.65234 7.74219,-0.96094 1.51953,0.47266 2.20899,1.55078 1.80468,-0.23633 1.53516,-1.75391 0.25391,-1.0957 -0.72461,-0.99609 z m -60.96289,0.2832 c -0.59743,0.005 -1.22818,0.0365 -2.02344,0.0781 -2.1207,0.1111 -4.68529,0.63309 -7.2832,1.22851 -2.59792,0.59543 -5.50675,1.42598 -7.46094,2.3086 -1.95419,0.88262 -4.31445,2.63476 -4.31445,2.63476 l 3.53515,-1.16796 3.86524,-1.34766 5.48242,-1.52734 7.04101,-0.63086 4.07422,0.26953 4.52539,1.49804 7.31055,2.87696 1.49805,-0.56836 0.81054,-1.08008 -0.21679,-0.88672 c 0,0 -0.45984,0.49697 -0.73438,0.48047 -1.01654,-0.0612 -2.39681,-0.8726 -3.72461,-1.36133 -2.24897,-0.82779 -6.75284,-2.14827 -9.04883,-2.51562 -1.43499,-0.2296 -2.34022,-0.29753 -3.33593,-0.28907 z" />
  </g>
  <g
     inkscape:groupmode="layer"
     id="g19280"
     inkscape:label="Wild Brow"
     style="display:inline">
    <path
       d="m 331.29413,127.83494 c 1.784,-0.52667 3.93333,-0.916 5.66933,-0.188 0.764,0.32 1.12266,1.15733 1.83333,1.524 0.072,0.28 0.30267,0.57333 0.404,0.88533 0.26933,0.836 0.81867,1.29334 1.38667,1.90934 0.0227,0.0253 1.54266,-1.60667 1.69866,-1.716 0.83067,-0.584 1.19467,-0.10934 2.06267,-0.0413 1.05733,-1.70533 2.20267,-3.37333 3.30533,-5.056 l -6.80133,-2.964 -8.49066,-0.112 c -2.76667,1.70667 -5.87334,3.18534 -8.3,5.36934 -1.51334,1.36133 -2.69467,3.03733 -3.82534,4.71866 -1.19333,1.776 -0.80266,3.27734 0.416,4.93334 0.22,0.29866 0.72134,1.496 1.192,1.20266 0.084,-0.052 0.13867,-0.13733 0.18934,-0.22133 0.72933,-1.22533 0.88266,-2.64933 1.524,-3.91333 0.604,-1.18934 1.41333,-2.27334 2.36666,-3.20667 1.404,-1.37467 3.12934,-2.42667 5.00667,-3.01333 0.11867,-0.0373 0.24,-0.0747 0.36267,-0.11067"
       style="opacity:0.199997;fill:#000000;fill-opacity:1;fill-rule:nonzero;stroke:none;stroke-width:1.33333"
       id="path19266" />
    <path
       id="path19268"
       style="opacity:1;fill:#000000;fill-opacity:0.2;fill-rule:nonzero;stroke:none;stroke-width:1.33333"
       d="m 283.64062,119.80273 c -0.93685,0.0137 -1.87106,0.0745 -2.80273,0.20313 -4.172,0.576 -8.06056,2.45367 -12.19922,3.23633 -1.38934,0.26134 -2.89105,0.39476 -4.12305,1.13476 -2.83466,1.704 -1.0436,3.91953 1.03907,5.38086 2.17466,1.52667 4.8749,3.43778 7.60156,2.06446 1.108,-0.55867 1.95916,-1.50752 3.03516,-2.10352 0.84,-0.46533 1.81075,-0.78327 2.71875,-1.08594 2.02399,-0.676 4.13886,-1.11595 6.26953,-1.25195 4.11999,-0.26267 8.55573,0.70006 11.28906,4.02539 0.0214,0.0253 0.0412,0.0509 0.0625,0.0762 1.22533,1.52534 1.51201,3.40941 2.27734,5.16406 0.33333,0.764 0.86804,1.51143 0.80274,2.38477 -0.005,0.0615 -0.0147,0.14908 -0.0195,0.21875 h 1.67187 c 0.10471,-0.29848 0.17938,-0.62309 0.20508,-1.08008 0.0653,-1.16 -0.004,-2.34147 0.33984,-3.4668 0.26267,-0.85599 0.58933,-1.87506 1.22266,-2.53906 0.596,-0.62667 0.84432,-1.02628 0.76563,-1.96094 -0.0707,-0.83599 -0.15777,-1.67432 -0.3711,-2.48632 -0.45734,-1.748 -1.33461,-3.06002 -2.47461,-4.05469 -2.30933,-2.016 -5.70033,-2.73192 -8.875,-3.14258 -2.798,-0.36198 -5.62498,-0.75791 -8.43555,-0.7168 z" />
    <path
       d="m 299.17679,136.74907 c -0.456,-1.35866 -0.55466,-2.77466 -1.06666,-4.124 -0.47734,-1.25866 -1.136,-2.476 -2.128,-3.40533 -1.13067,-1.06 -2.604,-1.67333 -4.08134,-2.13867 -2.92666,-0.92266 -6.23866,-1.43466 -9.12533,-0.124 -1.08933,0.49467 -2.14133,1.068 -3.14533,1.71467 2.696,-0.58533 5.23466,-1.204 8.016,-0.89333 3.00666,0.33466 6.77466,1.4 8.54,4.03866 0.98933,1.47867 1.704,3.224 2.33733,4.88134 0.49867,1.30266 1.38267,3.572 0.16533,4.74666 0.25067,-0.24133 0.63067,-0.54933 0.90934,-0.788 1.06266,-0.90666 -0.044,-2.844 -0.384,-3.8 -0.0133,-0.036 -0.0253,-0.072 -0.0373,-0.108"
       style="fill:#000000;fill-opacity:1;fill-rule:nonzero;stroke:none;stroke-width:1.33333"
       id="path19270" />
    <path
       d="m 323.65533,133.02441 c 0.28266,-0.53734 0.652,-1.032 1.05466,-1.49467 2.088,-2.4 5.14,-4.032 8.39067,-4.48533 1.104,-0.15467 2.252,-0.17467 3.31466,0.14666 0.57467,0.17334 1.12,0.45334 1.572,0.832 0.44534,0.37334 0.65067,0.88934 1.044,1.27734 -0.48933,-0.304 -0.84533,-0.764 -1.348,-1.05067 -0.512,-0.29333 -1.12933,-0.36533 -1.728,-0.392 -5.35599,-0.248 -10.17066,2.66933 -12.83866,6.952 0.25467,-0.40933 0.208,-1.092 0.428,-1.56267 0.0347,-0.0747 0.072,-0.14933 0.11067,-0.22266"
       style="fill:#000000;fill-opacity:1;fill-rule:nonzero;stroke:none;stroke-width:1.33333"
       id="path19272" />
    <path
       id="path19274"
       style="fill:#383838;fill-opacity:1;fill-rule:nonzero;stroke:none;stroke-width:1.33333"
       d="m 259.02331,124.66768 c 1.18052,0.5298 3.1377,0.9696 4.07044,1.88113 0.376,0.124 1.108,-0.28058 1.5,-0.39258 0.34933,-0.1 0.70659,-0.26214 1.05859,-0.35547 1.016,-0.268 1.97485,-0.86741 2.99219,-1.1914 1.22933,-0.39067 2.46942,-0.74969 3.71875,-1.06836 4.41867,-1.12933 9.15171,-1.89989 13.73438,-1.31055 2.33199,0.3 4.59309,1.20551 6.75976,2.07617 1.23866,0.49734 2.46536,1.02102 3.69336,1.54102 0.56933,0.24 1.15986,0.57232 1.75586,0.73632 0.61067,0.168 1.08034,-0.0317 1.65234,-0.26367 1.03333,-0.41733 1.41308,-1.16681 0.92774,-2.24414 -0.21333,-0.472 -0.46149,-0.94836 -0.79883,-1.3457 -1,-1.17333 -1.54589,-0.62813 -4.39287,-2.09962 -2.84697,-1.47149 -8.01715,-3.41245 -12.40888,-3.52616 0.42814,0.22773 1.8278,1.38074 1.51052,1.34169 -3.5846,-0.44116 -10.50701,-0.0238 -14.13469,0.71129 -0.32598,0.0661 2.75287,1.38629 2.4403,1.48915 -2.76166,0.92486 -10.98941,2.9973 -14.07896,4.02088 z m 83.26575,-5.11104 c -0.0889,0.007 1.79569,-1.11566 1.70646,-1.10803 -2.65751,0.22722 -7.46681,1.48541 -9.77515,2.37141 -0.19399,0.0485 0.59099,-1.33514 0.76929,-1.65413 -4.20715,1.01664 -9.1735,5.46618 -11.7631,8.38099 -0.20666,0.23465 -0.68304,0.75303 -0.62304,1.0957 0.29466,-0.0387 0.58631,-0.35095 0.84765,-0.48828 0.33466,-0.17734 0.64789,-0.37028 0.94922,-0.59961 2.792,-2.128 6.03814,-2.90278 9.49414,-3.41211 1.48133,-0.21867 2.96441,-0.42141 4.45508,-0.58008 1.20533,-0.12933 2.56625,-0.22773 3.54492,0.71094 1.31867,1.26533 3.01336,1.7625 4.33203,0.20117 0.7558,-1.41736 2.93213,-3.07723 3.22282,-3.26445 -1.89948,-0.6635 -5.29716,-1.68057 -7.16032,-1.65352 z"
       sodipodi:nodetypes="cccccccccsccczcsscccscccccccccccc" />
    <path
       id="path19278"
       style="fill:#000000;fill-opacity:0.2;stroke:none;stroke-width:1px;stroke-linecap:butt;stroke-linejoin:miter;stroke-opacity:1"
       d="m 345.47671,120.03264 c 0,0 -0.43527,1.13739 -1.63296,1.93025 -1.19771,0.79286 -2.39955,-0.4519 -4.33594,-0.4043 -1.93639,0.0476 -5.23672,0.79492 -7.60742,1.50196 -2.3707,0.70704 -5.05102,1.83601 -6.5625,2.86718 -1.51148,1.03118 -2.63172,2.64862 -2.69922,2.69922 l 2.53174,-1.61641 c 0,0 0.33803,-0.22587 1.63379,-0.91791 1.29576,-0.69204 5.34814,-1.70005 5.34814,-1.70005 0,0 6.1829,-1.10015 7.74219,-0.96094 1.55929,0.13921 1.51953,0.47266 1.51953,0.47266 l 2.20899,1.55078 c 0,0 1.19614,0.0939 1.80468,-0.23633 0.60854,-0.33026 0.82776,-1.002 1.51539,-1.77537 0.68764,-0.77337 2.43044,-2.2452 2.43044,-2.2452 -1.43727,-0.51313 -2.40087,-0.7768 -3.89685,-1.16554 z m -61.41616,0.42634 c -0.59743,0.005 -1.22818,0.0365 -2.02344,0.0781 -2.1207,0.1111 -4.68529,0.63309 -7.2832,1.22851 -2.59792,0.59543 -5.50675,1.42598 -7.46094,2.3086 -1.95419,0.88262 -4.31445,2.63476 -4.31445,2.63476 l 3.53515,-1.16796 c 0,0 2.09036,-0.97024 3.78089,-1.44887 1.69054,-0.47864 3.27607,-0.91278 5.56677,-1.34178 2.2907,-0.42901 5.18124,-0.6825 7.04101,-0.71521 1.85977,-0.0327 4.07422,0.26953 4.07422,0.26953 0,0 2.56401,0.73136 4.52539,1.49804 1.96138,0.76668 7.31055,2.87696 7.31055,2.87696 l 1.49805,-0.56836 0.81054,-1.08008 -0.21679,-0.88672 c 0,0 -0.45984,0.49697 -0.73438,0.48047 -1.01654,-0.0612 -2.39681,-0.8726 -3.72461,-1.36133 -2.24897,-0.82779 -6.75284,-2.14827 -9.04883,-2.51562 -1.43499,-0.2296 -2.34022,-0.29753 -3.33593,-0.28907 z"
       sodipodi:nodetypes="csssscczczcczzccscsscczzzczcccccssss" />
    <path
       style="color:#000000;fill:#000000;-inkscape-stroke:none"
       d="m 284.29102,118.19141 c -4.69254,-0.22128 -9.48999,-0.1938 -14.05059,0.8144 0.89859,0.60839 1.58204,1.10207 2.38143,1.60477 -4.84398,1.2359 -9.59425,2.49139 -14.28795,4.02218 0.96185,0.35054 1.9111,0.77255 2.72852,1.06641 0.74273,0.28599 1.43919,0.62057 1.85742,1.0293 l 0.041,0.0391 0.0547,0.0195 c 0.31063,0.10244 0.61289,-0.007 0.90625,-0.11133 0.29337,-0.10477 0.58117,-0.23385 0.74024,-0.2793 0.37471,-0.10726 0.73151,-0.26782 1.05469,-0.35351 1.06738,-0.28155 2.02824,-0.8846 3.0039,-1.19531 1.22522,-0.38937 2.46094,-0.74711 3.70508,-1.06446 4.4036,-1.12548 9.1069,-1.88773 13.64063,-1.30468 2.28912,0.29448 4.53078,1.18996 6.69726,2.06054 1.23531,0.496 2.46101,1.01888 3.68945,1.53907 0.55024,0.23194 1.14855,0.57038 1.78711,0.74609 0.69114,0.19013 1.24264,-0.0404 1.8125,-0.27149 0.55499,-0.22414 0.97072,-0.55619 1.16797,-1.00781 0.19725,-0.45162 0.15615,-0.99154 -0.10547,-1.57226 -0.21729,-0.48078 -0.47394,-0.97792 -0.91942,-1.50027 -0.44547,-0.52234 -0.91201,-0.72079 -1.53765,-0.9177 -0.62563,-0.19692 -1.44114,-0.41952 -2.84765,-1.14649 -2.87698,-1.487 -10.25033,-4.07828 -13.05394,-3.66366 0.56904,0.49242 1.07317,1.00204 1.53452,1.44691 z m -0.11133,-0.73047 c 4.12422,0.32276 8.77276,2.03446 11.40039,3.39258 1.44046,0.74452 2.32063,0.98604 2.92969,1.17773 0.60843,0.1915 0.9145,0.30776 1.38671,0.86133 0.31269,0.3683 0.55236,0.82389 0.76172,1.28711 0.22373,0.4966 0.23509,0.86923 0.10547,1.16601 -0.12962,0.29678 -0.4201,0.549 -0.89844,0.74219 -0.57414,0.23284 -0.96198,0.40172 -1.49218,0.25586 -0.55344,-0.15229 -1.13618,-0.47851 -1.72461,-0.72656 -1.22755,-0.51981 -2.45526,-1.04429 -3.69727,-1.54297 -2.16686,-0.87074 -4.44742,-1.78628 -6.82226,-2.0918 -4.63161,-0.59563 -9.3944,0.18323 -13.82813,1.31641 -1.25451,0.31999 -2.49898,0.68029 -3.73242,1.07226 -1.05901,0.33727 -2.01585,0.93306 -2.98047,1.1875 -0.38083,0.10098 -0.73855,0.26469 -1.0625,0.35743 -0.23293,0.0665 -0.50685,0.19454 -0.77148,0.28906 -0.26464,0.0945 -0.51667,0.12703 -0.58204,0.10547 l 0.0957,0.0586 c -0.51451,-0.50281 -1.26122,-0.84247 -2.02539,-1.13672 -0.51391,-0.19788 -0.96389,-0.36246 -1.42383,-0.5332 4.43824,-1.47856 9.55287,-2.62317 13.97682,-3.95941 -0.9516,-0.58828 -1.71861,-1.11287 -2.42174,-1.49323 4.40423,-0.68962 9.77197,-0.90909 13.76009,-0.67031 -0.32145,-0.37532 -0.64542,-0.85902 -0.95384,-1.11537 z m 50.41406,2.98633 c 0.25603,-0.54897 0.58492,-1.10936 0.89253,-1.65821 -7.21568,2.3833 -10.78343,5.72823 -13.4759,10.65575 3.6441,-2.37087 8.08908,-4.47522 11.92119,-5.05413 1.47957,-0.21841 2.95958,-0.42194 4.44531,-0.58008 1.19886,-0.12864 2.45494,-0.20991 3.34375,0.64258 0.68614,0.65838 1.48059,1.13234 2.31055,1.22851 0.82996,0.0962 1.68488,-0.21393 2.22549,-0.98014 0.54061,-0.76621 1.26004,-1.52869 1.9249,-2.13507 0.55861,-0.54541 1.19035,-0.99108 1.83398,-1.42383 -2.34789,-0.68722 -4.77271,-1.54389 -7.05664,-1.73047 0.5588,-0.52341 1.04154,-0.82722 1.57192,-1.17794 -2.28107,0.0236 -6.95942,1.15343 -9.93708,2.21303 z m 7.43392,-0.67108 c 2.37054,0.18472 4.2735,0.78895 6.41262,1.50472 -0.28085,0.20902 -0.4624,0.38807 -0.96786,0.84908 -0.68493,0.62469 -1.24662,1.23063 -1.74324,1.95377 -0.49662,0.72313 -1.16526,0.8093 -1.84198,0.73089 -0.67671,-0.0784 -1.10217,-0.41737 -1.7347,-1.02432 -1.06853,-1.02485 -2.53429,-0.90932 -3.74609,-0.7793 -1.49561,0.1592 -2.32526,0.26545 -4.80224,0.66442 -2.47697,0.39897 -6.5133,1.51334 -9.35633,3.68024 -0.28867,0.21969 -0.5465,0.38039 -0.88033,0.63716 1.46355,-2.42508 7.8555,-7.22518 11.06783,-8.33247 -0.28219,0.47407 -0.40346,0.77551 -0.74805,1.46876 1.41091,-0.41693 8.37106,-2.35213 9.54138,-2.32553 -0.28493,0.13992 -1.08679,0.75381 -1.20101,0.97258 z"
       id="path19282"
       sodipodi:nodetypes="ccccccccccccccccscsccssccsssccscscccccccsccscccccsccccccsccccccccscscczcccccc" />
  </g>
  <g
     inkscape:groupmode="layer"
     id="g22490"
     inkscape:label="Bolian Brow"
     style="display:none"
     sodipodi:insensitive="true">
    <path
       d="m 331.29413,127.83494 c 1.784,-0.52667 3.93333,-0.916 5.66933,-0.188 0.764,0.32 1.12266,1.15733 1.83333,1.524 0.072,0.28 0.30267,0.57333 0.404,0.88533 0.26933,0.836 0.81867,1.29334 1.38667,1.90934 0.0227,0.0253 1.54266,-1.60667 1.69866,-1.716 0.83067,-0.584 1.19467,-0.10934 2.06267,-0.0413 1.05733,-1.70533 2.20267,-3.37333 3.30533,-5.056 l -6.80133,-2.964 -8.49066,-0.112 c -2.76667,1.70667 -5.87334,3.18534 -8.3,5.36934 -1.51334,1.36133 -2.69467,3.03733 -3.82534,4.71866 -1.19333,1.776 -0.80266,3.27734 0.416,4.93334 0.22,0.29866 0.72134,1.496 1.192,1.20266 0.084,-0.052 0.13867,-0.13733 0.18934,-0.22133 0.72933,-1.22533 0.88266,-2.64933 1.524,-3.91333 0.604,-1.18934 1.41333,-2.27334 2.36666,-3.20667 1.404,-1.37467 3.12934,-2.42667 5.00667,-3.01333 0.11867,-0.0373 0.24,-0.0747 0.36267,-0.11067"
       style="opacity:0.199997;fill:#000000;fill-opacity:1;fill-rule:nonzero;stroke:none;stroke-width:1.33333"
       id="path22476" />
    <path
       id="path22478"
       style="opacity:1;fill:#000000;fill-opacity:0.2;fill-rule:nonzero;stroke:none;stroke-width:1.33333"
       d="m 283.64062,119.80273 c -0.93685,0.0137 -1.87106,0.0745 -2.80273,0.20313 -4.172,0.576 -8.06056,2.45367 -12.19922,3.23633 -1.38934,0.26134 -2.89105,0.39476 -4.12305,1.13476 -2.83466,1.704 -1.0436,3.91953 1.03907,5.38086 2.17466,1.52667 4.8749,3.43778 7.60156,2.06446 1.108,-0.55867 1.95916,-1.50752 3.03516,-2.10352 0.84,-0.46533 1.81075,-0.78327 2.71875,-1.08594 2.02399,-0.676 4.13886,-1.11595 6.26953,-1.25195 4.11999,-0.26267 8.55573,0.70006 11.28906,4.02539 0.0214,0.0253 0.0412,0.0509 0.0625,0.0762 1.22533,1.52534 1.51201,3.40941 2.27734,5.16406 0.33333,0.764 0.86804,1.51143 0.80274,2.38477 -0.005,0.0615 -0.0147,0.14908 -0.0195,0.21875 h 1.67187 c 0.10471,-0.29848 0.17938,-0.62309 0.20508,-1.08008 0.0653,-1.16 -0.004,-2.34147 0.33984,-3.4668 0.26267,-0.85599 0.58933,-1.87506 1.22266,-2.53906 0.596,-0.62667 0.84432,-1.02628 0.76563,-1.96094 -0.0707,-0.83599 -0.15777,-1.67432 -0.3711,-2.48632 -0.45734,-1.748 -1.33461,-3.06002 -2.47461,-4.05469 -2.30933,-2.016 -5.70033,-2.73192 -8.875,-3.14258 -2.798,-0.36198 -5.62498,-0.75791 -8.43555,-0.7168 z" />
    <path
       id="path22482"
       style="fill:#000000;fill-opacity:1;fill-rule:nonzero;stroke:none;stroke-width:1.33333"
       d="m 323.65533,133.02441 c 0.28266,-0.53734 0.652,-1.032 1.05466,-1.49467 2.088,-2.4 5.14,-4.032 8.39067,-4.48533 1.104,-0.15467 2.252,-0.17467 3.31466,0.14666 0.57467,0.17334 1.12,0.45334 1.572,0.832 0.44534,0.37334 0.65067,0.88934 1.044,1.27734 -0.48933,-0.304 -0.84533,-0.764 -1.348,-1.05067 -0.512,-0.29333 -1.12933,-0.36533 -1.728,-0.392 -5.35599,-0.248 -10.17066,2.66933 -12.83866,6.952 0.25467,-0.40933 0.208,-1.092 0.428,-1.56267 0.0347,-0.0747 0.072,-0.14933 0.11067,-0.22266 m -24.47854,3.72466 c -0.456,-1.35866 -0.55466,-2.77466 -1.06666,-4.124 -0.47734,-1.25866 -1.136,-2.476 -2.128,-3.40533 -1.13067,-1.06 -2.604,-1.67333 -4.08134,-2.13867 -2.92666,-0.92266 -6.23866,-1.43466 -9.12533,-0.124 -1.08933,0.49467 -2.14133,1.068 -3.14533,1.71467 2.696,-0.58533 5.23466,-1.204 8.016,-0.89333 3.00666,0.33466 6.77466,1.4 8.54,4.03866 0.98933,1.47867 1.704,3.224 2.33733,4.88134 0.49867,1.30266 1.38267,3.572 0.16533,4.74666 0.25067,-0.24133 0.63067,-0.54933 0.90934,-0.788 1.06266,-0.90666 -0.044,-2.844 -0.384,-3.8 -0.0133,-0.036 -0.0253,-0.072 -0.0373,-0.108" />
    <path
       id="path22484"
       style="fill:#cd976d;fill-opacity:1;fill-rule:nonzero;stroke:none;stroke-width:1.33333"
       d="m 284.80664,118.36133 c -0.31297,-10e-4 -0.6229,0.0119 -0.92773,0.0449 -3.84933,0.41733 -10.74554,1.79804 -14.40821,3.7207 -1.36133,0.71466 -2.74423,1.38733 -4.10156,2.11133 -0.728,0.38666 -2.44472,1.25588 -2.27539,2.31055 0.376,0.124 1.108,-0.28058 1.5,-0.39258 0.34933,-0.1 0.70659,-0.26214 1.05859,-0.35547 1.016,-0.268 1.97485,-0.86741 2.99219,-1.1914 1.22933,-0.39067 2.46942,-0.74969 3.71875,-1.06836 4.41867,-1.12933 9.15171,-1.89989 13.73438,-1.31055 2.33199,0.3 4.59309,1.20551 6.75976,2.07617 1.23866,0.49734 2.46536,1.02102 3.69336,1.54102 0.56933,0.24 1.15986,0.57232 1.75586,0.73632 0.61067,0.168 1.08034,-0.0317 1.65234,-0.26367 1.03333,-0.41733 1.41308,-1.16681 0.92774,-2.24414 -0.21333,-0.472 -0.46149,-0.94836 -0.79883,-1.3457 -1,-1.17333 -2.40164,-1.3723 -3.82031,-1.76563 -1.62133,-0.45067 -3.24629,-0.89464 -4.87696,-1.30664 -2.03932,-0.51566 -4.39318,-1.28856 -6.58398,-1.29687 z m 57.48242,1.19531 c -1.09383,0.0228 -2.20068,0.22018 -3.16601,0.35352 -3.43333,0.47333 -6.89062,1.18342 -9.97461,2.74609 -2.38,1.20667 -4.18321,2.91996 -5.92188,4.89063 -0.20666,0.23465 -0.68304,0.75303 -0.62304,1.0957 0.29466,-0.0387 0.58631,-0.35095 0.84765,-0.48828 0.33466,-0.17734 0.64789,-0.37028 0.94922,-0.59961 2.792,-2.128 6.03814,-2.90278 9.49414,-3.41211 1.48133,-0.21867 2.96441,-0.42141 4.45508,-0.58008 1.20533,-0.12933 2.56625,-0.22773 3.54492,0.71094 1.31867,1.26533 3.01336,1.7625 4.33203,0.20117 1.31867,-1.56 1.55342,-1.62429 -0.14258,-3.62695 -0.2,-0.23867 -0.44107,-0.43891 -0.70507,-0.60157 -0.914,-0.56067 -1.99601,-0.71228 -3.08985,-0.68945 z" />
    <path
       style="color:#000000;fill:#000000;-inkscape-stroke:none"
       d="m 347.07988,122.20756 c 0,0 0.0473,0.52801 -0.23222,1.10103 -0.18361,0.37646 -0.48728,0.7399 -0.86311,1.13886 -0.37583,0.39896 -1.03245,0.69817 -1.89471,0.65375 -0.6803,-0.035 -1.38898,-0.40053 -2.02148,-1.00745 -1.06849,-1.02482 -2.53239,-0.90932 -3.74414,-0.7793 -1.49558,0.1592 -2.98368,0.3631 -4.4668,0.58203 -3.46976,0.51136 -6.76436,1.29208 -9.60742,3.45899 l -1.6543,1.32812 c 0,0 0.36725,-0.022 0.51953,-0.1289 1.29851,-0.98729 1.31481,-0.98268 2.53321,-1.75977 1.2184,-0.77709 4.84098,-1.89701 8.2832,-2.4043 1.47954,-0.2184 2.95956,-0.41997 4.44531,-0.57812 1.19891,-0.12864 2.4549,-0.20994 3.34375,0.64258 0.68617,0.65841 1.48059,1.13071 2.31055,1.22656 0.82996,0.0958 1.97168,-0.0472 2.6735,-0.87818 0.365,-0.43181 0.598,-0.83369 0.67986,-1.25605 0.13064,-0.67404 -0.21548,-1.35906 -0.30473,-1.33985 z"
       id="path25658"
       sodipodi:nodetypes="cszsccccccscccscsc" />
    <path
       style="color:#000000;fill:#000000;-inkscape-stroke:none"
       d="m 282.63672,121.67773 c -3.51253,0.0202 -7.02953,0.6724 -10.35938,1.52344 -1.2565,0.32051 -2.50313,0.6817 -3.73828,1.07422 -1.07581,0.34262 -2.03068,0.93851 -2.97461,1.1875 l -0.0137,0.002 -0.0117,0.006 c -0.79668,0.27607 -2.74146,1.23197 -2.6289,1.33399 0,0 1.98013,-0.6449 2.89843,-0.91992 0.91829,-0.27503 1.95506,-0.773 2.91211,-1.07813 1.22351,-0.38882 2.35105,-0.70151 5.17188,-1.42187 2.82083,-0.72038 7.63032,-1.53758 12.14453,-0.95704 2.27215,0.2923 4.53882,1.22716 6.70508,2.09766 1.23392,0.49544 2.41391,1.00511 3.64258,1.52539 0.54247,0.22868 1.1899,0.55587 1.8457,0.73633 0.72327,0.19897 1.22295,0.099 1.81445,-0.23242 0.5915,-0.3315 0.86694,-0.55828 1.07813,-1.04102 0.21119,-0.48275 -0.0871,-1.24383 -0.13672,-1.16992 0,0 0.0708,0.57707 -0.19531,1.11133 -0.11521,0.2313 -0.5682,0.47138 -1.01954,0.66992 -0.45135,0.19853 -0.87301,0.26007 -1.37109,0.12305 -0.53568,-0.1474 -1.11712,-0.47208 -2.0293,-0.85743 -0.91218,-0.38533 -2.13997,-0.91113 -3.38281,-1.41015 -2.16707,-0.87082 -4.45581,-1.788 -6.84766,-2.0957 -1.16276,-0.14954 -2.33306,-0.21376 -3.5039,-0.20704 z"
       id="path25656" />
    <path
       style="color:#000000;fill:#000000;fill-opacity:0.5;-inkscape-stroke:none"
       d="m 342.35725,119.3512 c -1.12242,0.0233 -2.25876,0.0942 -3.2168,0.22656 -3.44429,0.47484 -6.98129,1.27094 -10.10529,2.85388 -2.41972,1.22681 -4.93706,3.76671 -5.57422,4.64648 -0.63716,0.87978 -0.71153,0.89021 -0.83399,1.30469 l 0.68555,-0.75586 c 1.72915,-1.95986 3.52373,-3.66312 5.86328,-4.84961 3.04398,-1.54239 6.52687,-2.2645 9.94922,-2.73632 2.75498,-0.3699 5.0771,-0.31802 5.83594,0.21484 0.75883,0.53286 1.69523,1.24583 1.68164,1.24805 0,0 -0.68954,-1.05193 -1.3512,-1.48811 -0.55644,-0.3668 -1.81171,-0.68793 -2.93413,-0.6646 z"
       id="path25654"
       sodipodi:nodetypes="sccsccccscss" />
    <path
       style="color:#000000;fill:#000000;fill-opacity:0.5;-inkscape-stroke:none"
       d="m 284.35352,118.16016 c -0.38624,0.006 -0.77988,0.0289 -1.17969,0.0723 -3.19849,0.34657 -10.08496,1.71403 -13.81836,3.67383 -1.35681,0.71228 -2.73987,1.38554 -3.60156,1.84375 -0.86168,0.45822 -1.44982,0.66593 -2.04297,1.23438 -0.59315,0.56844 -0.61529,1.0598 -0.65821,1.30078 0.38751,-0.47899 0.51148,-0.69181 0.90039,-1.03516 0.38893,-0.34335 1.09741,-0.71472 1.95704,-1.17383 0.85964,-0.45912 2.2826,-1.18336 3.64843,-1.90039 3.59194,-1.88554 10.49985,-3.2477 14.32227,-3.66211 2.35657,-0.25511 5.17184,0.61389 7.51758,1.20703 1.62753,0.41121 3.18991,0.97335 4.81054,1.42383 1.43863,0.39886 2.86655,0.57765 3.80079,1.67383 0.31292,0.36857 0.65234,0.76944 0.66406,0.78516 0,0 -0.0855,-0.4743 -0.44727,-0.9004 -1.06575,-1.25046 -2.49356,-1.59338 -4.0039,-2.01171 -1.51036,-0.41832 -3.13573,-0.8626 -4.76954,-1.27539 -2.02611,-0.51233 -4.39593,-1.29913 -7.0996,-1.25586 z"
       id="path22486" />
    <path
       id="path22488"
       style="fill:#000000;fill-opacity:0.2;stroke:none;stroke-width:1px;stroke-linecap:butt;stroke-linejoin:miter;stroke-opacity:1"
       d="m 345.02344,120.17578 c 0,0 0.018,0.99425 -1.17969,1.78711 -1.19771,0.79286 -2.39955,-0.4519 -4.33594,-0.4043 -1.93639,0.0476 -5.23672,0.79492 -7.60742,1.50196 -2.3707,0.70704 -5.05102,1.83601 -6.5625,2.86718 -1.51148,1.03118 -2.63172,2.64862 -2.69922,2.69922 l 2.61524,-1.77148 1.46679,-0.81055 5.43164,-1.65234 7.74219,-0.96094 1.51953,0.47266 2.20899,1.55078 1.80468,-0.23633 1.53516,-1.75391 0.25391,-1.0957 -0.72461,-0.99609 z m -60.96289,0.2832 c -0.59743,0.005 -1.22818,0.0365 -2.02344,0.0781 -2.1207,0.1111 -4.68529,0.63309 -7.2832,1.22851 -2.59792,0.59543 -5.50675,1.42598 -7.46094,2.3086 -1.95419,0.88262 -4.31445,2.63476 -4.31445,2.63476 l 3.53515,-1.16796 3.86524,-1.34766 5.48242,-1.52734 7.04101,-0.63086 4.07422,0.26953 4.52539,1.49804 7.31055,2.87696 1.49805,-0.56836 0.81054,-1.08008 -0.21679,-0.88672 c 0,0 -0.45984,0.49697 -0.73438,0.48047 -1.01654,-0.0612 -2.39681,-0.8726 -3.72461,-1.36133 -2.24897,-0.82779 -6.75284,-2.14827 -9.04883,-2.51562 -1.43499,-0.2296 -2.34022,-0.29753 -3.33593,-0.28907 z" />
    <path
       style="fill:#ffffff;fill-opacity:0.2;stroke:none;stroke-width:1px;stroke-linecap:butt;stroke-linejoin:miter;stroke-opacity:1"
       d="m 280.17078,119.42566 c 0,0 2.80507,-0.74091 4.58045,-0.7157 1.77538,0.0252 3.57773,0.52944 5.91642,1.0974 2.33869,0.56796 5.99703,1.50135 7.52368,2.12973 1.52665,0.62837 1.84219,0.931 1.76348,1.32248 -0.0787,0.39148 -0.76768,0.40824 -1.55766,0.17398 -0.78998,-0.23426 -1.11974,-0.61742 -2.19289,-1.27717 -1.07316,-0.65974 -4.12024,-1.56235 -6.10917,-2.06274 -1.98893,-0.50039 -3.58152,-0.85521 -5.24843,-0.95426 -1.66691,-0.0991 -4.67588,0.28628 -4.67588,0.28628 z"
       id="path22855"
       sodipodi:nodetypes="czzzzzzzzc" />
    <path
       style="fill:#ffffff;fill-opacity:0.2;stroke:none;stroke-width:1px;stroke-linecap:butt;stroke-linejoin:miter;stroke-opacity:1"
       d="m 334.10931,121.0695 c 0,0 3.10974,-0.63181 4.53779,-0.80972 1.42805,-0.17791 2.97238,-0.36414 4.01484,-0.28677 1.04246,0.0774 1.70922,0.25724 2.19299,0.4892 0.48377,0.23196 0.76999,0.4341 0.75911,0.72537 -0.0109,0.29127 -0.3498,0.30403 -0.64103,0.32052 -0.29123,0.0165 -0.67339,-0.30652 -1.04588,-0.47234 -0.37249,-0.16582 -0.63482,-0.32773 -1.53509,-0.4892 -0.90027,-0.16147 -2.23779,-0.0979 -3.67746,-0.0169 -1.43967,0.081 -4.60527,0.53984 -4.60527,0.53984 z"
       id="path22857"
       sodipodi:nodetypes="czzzzzzzzc" />
  </g>
  <g
     inkscape:groupmode="layer"
     id="g8135"
     inkscape:label="Vulcan Brow"
     style="display:none"
     sodipodi:insensitive="true">
    <path
       id="path8125"
       style="opacity:1;fill:#000000;fill-opacity:0.2;fill-rule:nonzero;stroke:none;stroke-width:1.33333"
       d="m 283.64062,119.80273 c -0.93685,0.0137 -1.87106,0.0745 -2.80273,0.20313 -4.172,0.576 -8.48003,-0.84217 -13.03816,-1.19807 -1.38934,0.26134 -4.32923,-0.38425 -5.80093,0.0561 -1.9358,2.12347 1.47322,9.43257 3.55589,10.8939 2.17466,1.52667 4.8749,3.43778 7.60156,2.06446 1.108,-0.55867 1.95916,-1.50752 3.03516,-2.10352 0.84,-0.46533 1.81075,-0.78327 2.71875,-1.08594 2.02399,-0.676 4.13886,-1.11595 6.26953,-1.25195 4.11999,-0.26267 8.55573,0.70006 11.28906,4.02539 0.0214,0.0253 0.0412,0.0509 0.0625,0.0762 1.22533,1.52534 1.51201,3.40941 2.27734,5.16406 0.33333,0.764 0.86804,1.51143 0.80274,2.38477 -0.005,0.0615 -0.0147,0.14908 -0.0195,0.21875 h 1.67187 c 0.10471,-0.29848 0.17938,-0.62309 0.20508,-1.08008 0.0653,-1.16 -0.004,-2.34147 0.33984,-3.4668 0.26267,-0.85599 0.58933,-1.87506 1.22266,-2.53906 0.596,-0.62667 0.84432,-1.02628 0.76563,-1.96094 -0.0707,-0.83599 -0.15777,-1.67432 -0.3711,-2.48632 -0.45734,-1.748 -1.33461,-3.06002 -2.47461,-4.05469 -2.30933,-2.016 -5.70033,-2.73192 -8.875,-3.14258 -2.798,-0.36198 -5.62498,-0.75791 -8.43555,-0.7168 z m 47.65351,8.03221 c 1.784,-0.52667 3.93333,-0.916 5.66933,-0.188 0.764,0.32 1.12266,1.15733 1.83333,1.524 0.072,0.28 0.30267,0.57333 0.404,0.88533 0.26933,0.836 0.81867,1.29334 1.38667,1.90934 0.0227,0.0253 1.54266,-1.60667 1.69866,-1.716 0.83067,-0.584 1.19467,-0.10934 2.06267,-0.0413 1.05733,-1.70533 2.74171,-4.13055 3.13584,-5.056 0.46658,-1.09558 1.05091,-5.63086 -0.011,-6.07894 -0.64073,-0.27037 -6.62087,3.11494 -6.62087,3.11494 l -8.49066,-0.112 c -2.76667,1.70667 -5.87334,3.18534 -8.3,5.36934 -1.51334,1.36133 -2.69467,3.03733 -3.82534,4.71866 -1.19333,1.776 -0.80266,3.27734 0.416,4.93334 0.22,0.29866 0.72134,1.496 1.192,1.20266 0.084,-0.052 0.13867,-0.13733 0.18934,-0.22133 0.72933,-1.22533 0.88266,-2.64933 1.524,-3.91333 0.604,-1.18934 1.41333,-2.27334 2.36666,-3.20667 1.404,-1.37467 3.12934,-2.42667 5.00667,-3.01333 0.11867,-0.0373 0.24,-0.0747 0.36267,-0.11067"
       sodipodi:nodetypes="ssccccsccccccccscccccssscccccccssccccccccccc" />
    <path
       id="path8129"
       style="fill:#000000;fill-opacity:1;fill-rule:nonzero;stroke:none;stroke-width:1.33333"
       d="m 323.65533,133.02441 c 0.28266,-0.53734 0.652,-1.032 1.05466,-1.49467 2.088,-2.4 5.14,-4.032 8.39067,-4.48533 1.104,-0.15467 2.252,-0.17467 3.31466,0.14666 0.57467,0.17334 1.12,0.45334 1.572,0.832 0.44534,0.37334 0.65067,0.88934 1.044,1.27734 -0.48933,-0.304 -0.84533,-0.764 -1.348,-1.05067 -0.512,-0.29333 -1.12933,-0.36533 -1.728,-0.392 -5.35599,-0.248 -10.17066,2.66933 -12.83866,6.952 0.25467,-0.40933 0.208,-1.092 0.428,-1.56267 0.0347,-0.0747 0.072,-0.14933 0.11067,-0.22266 m -24.47854,3.72466 c -0.456,-1.35866 -0.55466,-2.77466 -1.06666,-4.124 -0.47734,-1.25866 -1.136,-2.476 -2.128,-3.40533 -1.13067,-1.06 -2.604,-1.67333 -4.08134,-2.13867 -2.92666,-0.92266 -6.23866,-1.43466 -9.12533,-0.124 -1.08933,0.49467 -2.14133,1.068 -3.14533,1.71467 2.696,-0.58533 5.23466,-1.204 8.016,-0.89333 3.00666,0.33466 6.77466,1.4 8.54,4.03866 0.98933,1.47867 1.704,3.224 2.33733,4.88134 0.49867,1.30266 1.38267,3.572 0.16533,4.74666 0.25067,-0.24133 0.63067,-0.54933 0.90934,-0.788 1.06266,-0.90666 -0.044,-2.844 -0.384,-3.8 -0.0133,-0.036 -0.0253,-0.072 -0.0373,-0.108" />
    <path
       id="path8133"
       style="fill:#000000;fill-opacity:1;fill-rule:nonzero;stroke:none;stroke-width:1.33333"
       d="m 264.11052,118.24678 c -1.10259,0.13586 -3.22302,0.3558 -2.99376,0.5116 0.87031,-0.0725 0.87853,0.27061 3.27776,0.57034 2.39923,0.29972 5.41809,0.66905 7.96907,0.91598 2.55098,0.24694 9.15067,1.39717 13.73334,1.98651 2.332,0.3 4.59333,1.204 6.76,2.07466 1.23866,0.49734 2.46533,1.02134 3.69333,1.54134 0.56933,0.24 1.16133,0.57333 1.75733,0.73733 0.61067,0.168 1.07867,-0.032 1.65067,-0.264 1.03333,-0.41733 1.41467,-1.168 0.92933,-2.24533 -0.21333,-0.472 -0.46266,-0.948 -0.8,-1.34534 -1,-1.17333 -2.40133,-1.372 -3.82,-1.76533 -1.62133,-0.45067 -3.24533,-0.89467 -4.876,-1.30667 -2.33066,-0.58933 -4.2952,-0.87268 -7.51333,-1.25066 -3.21813,-0.37798 -10.57634,-0.59488 -13.7475,-0.59455 -3.17117,3.3e-4 -4.91765,0.29826 -6.02024,0.43412 z m 69.78387,5.89656 c -3.31519,0.48826 -6.70133,1.28267 -9.49333,3.41067 -0.30133,0.22933 -0.61467,0.42266 -0.94933,0.6 -0.26134,0.13733 -0.55334,0.44933 -0.848,0.488 -0.06,-0.34267 0.416,-0.86134 0.62266,-1.096 1.73867,-1.97067 3.54134,-3.684 5.92134,-4.89067 3.084,-1.56267 6.54266,-2.272 9.97599,-2.74533 1.93067,-0.26667 7.72764,-1.57727 8.51372,-1.83104 0.5477,-0.17681 0.85518,-0.18164 -0.10965,0.77348 -0.83083,0.58564 -1.00177,0.80376 -3.65468,2.2679 -2.65291,1.46413 -6.66353,2.53473 -9.97872,3.02299 z"
       sodipodi:nodetypes="scsscccscccccssszccccccsczz" />
  </g>
</svg>
