<?xml version="1.0" encoding="UTF-8" standalone="no"?>
<!-- Created with Inkscape (http://www.inkscape.org/) -->

<svg
   version="1.1"
   id="svg156786"
   width="400"
   height="400"
   viewBox="0 0 400 400"
   sodipodi:docname="Eyes8.svg"
   inkscape:version="1.2.2 (b0a8486, 2022-12-01)"
   xmlns:inkscape="http://www.inkscape.org/namespaces/inkscape"
   xmlns:sodipodi="http://sodipodi.sourceforge.net/DTD/sodipodi-0.dtd"
   xmlns="http://www.w3.org/2000/svg"
   xmlns:svg="http://www.w3.org/2000/svg">
  <defs
     id="defs156790" />
  <sodipodi:namedview
     id="namedview156788"
     pagecolor="#ffffff"
     bordercolor="#666666"
     borderopacity="1.0"
     inkscape:showpageshadow="2"
     inkscape:pageopacity="0.0"
     inkscape:pagecheckerboard="0"
     inkscape:deskcolor="#d1d1d1"
     showgrid="false"
     inkscape:zoom="17.86"
     inkscape:cx="320.07279"
     inkscape:cy="132.95073"
     inkscape:window-width="2222"
     inkscape:window-height="1113"
     inkscape:window-x="2110"
     inkscape:window-y="25"
     inkscape:window-maximized="0"
     inkscape:current-layer="g3591">
    <inkscape:page
       x="0"
       y="0"
       id="page156792"
       width="400"
       height="400" />
  </sodipodi:namedview>
  <g
     id="g156794"
     inkscape:groupmode="layer"
     inkscape:label="Eyes">
    <path
       id="path81126"
       style="opacity:0.199997;fill:#000000;fill-opacity:1;fill-rule:nonzero;stroke:none;stroke-width:1.33333"
       d="M 299.38672 139 C 299.5272 139.72326 299.37466 140.17172 298.8457 140.70703 C 298.48437 141.07237 298.2081 141.54007 297.77344 141.80273 C 297.43344 142.0094 297.07341 142.18204 296.71875 142.35938 C 295.51608 142.9607 294.32964 143.58454 293.18164 144.2832 C 290.29631 146.04054 283.56339 144.7632 278.91406 144.2832 C 274.26607 143.80454 268.81586 139.96907 269.61719 140.92773 C 270.41853 141.88639 276.18763 147.46516 280.51562 148.42383 C 285.42362 149.51049 290.13513 148.79268 294.8418 147.16602 C 296.85512 146.47136 298.39588 144.39347 299.31055 142.60547 C 299.96408 141.32405 300.8653 140.11731 301.80273 139 L 299.38672 139 z " />
    <path
       d="m 323.20653,141.02521 c 0.48933,0.392 0.76266,0.932 1.26666,1.25333 0.60667,0.38667 1.16934,0.82133 1.81334,1.15333 1.41466,0.73067 2.99866,1.09867 4.592,0.95867 5.56533,-0.49067 6.38399,-0.164 8.02133,-1.47333 0,0 -0.0867,4.20933 -1.92667,4.96933 -1.83867,0.76 -7.568,0.43333 -9.86,-1.368 -0.88666,-0.696 -1.612,-1.60667 -2.29066,-2.49867 -0.71334,-0.936 -1.43734,-1.796 -1.616,-2.99466"
       style="opacity:0.199997;fill:#000000;fill-opacity:1;fill-rule:nonzero;stroke:none;stroke-width:1.33333"
       id="path164312" />
    <path
       d="m 336.57466,142.37027 c 0.58266,-0.172 1,-0.70266 1,-0.70266 l 2.37866,-2.60134 -0.296,-4.59866 -6.84799,-0.87334 c 0,0 -6.248,1.47334 -7.53067,2.728 -1.28267,1.256 -1.90933,4.01067 -1.93733,4.09334 0,0 0.13733,0.84533 0.65466,0.95466 0.51867,0.10934 3.356,1.91067 4.36667,1.856 0.724,-0.04 5.63733,-0.0267 6.46666,-0.21733 0.83067,-0.192 1.74534,-0.63867 1.74534,-0.63867"
       style="fill:#ffffff;fill-opacity:1;fill-rule:nonzero;stroke:none;stroke-width:1.33333"
       id="path164366" />
    <path
       d="m 271.55893,136.25787 4.4,-2.052 14.12,0.25067 5.17733,2.78533 2.756,2.964 -1.11733,1.39867 -3.27867,0.028 c 0,0 -2.12667,1.604 -4.396,1.428 -2.268,-0.17733 -13.05067,-1.91333 -13.05067,-1.91333 l -4.86533,-4.38267 z"
       style="fill:#ffffff;fill-opacity:1;fill-rule:nonzero;stroke:none;stroke-width:1.33333"
       id="path164370" />
    <path
       d="m 280.03306,134.13601 c -0.336,0.76133 -0.52667,1.60133 -0.52667,2.48666 0,2.06267 1.04134,4.08534 2.60134,5.208 l 5.83866,0.54667 c 2.31334,-0.896 3.956,-3.132 3.956,-5.75467 0,-0.77333 -0.148,-1.50933 -0.408,-2.192 -2.864,-0.88666 -8.16933,-0.59733 -11.46133,-0.29466"
       style="fill:#754324;fill-opacity:1;fill-rule:nonzero;stroke:none;stroke-width:1.33333"
       id="path164374" />
    <path
       d="m 288.34186,136.62241 c 0,1.452 -1.18133,2.628 -2.63733,2.628 -1.456,0 -2.63734,-1.176 -2.63734,-2.628 0,-1.452 1.18134,-2.628 2.63734,-2.628 1.456,0 2.63733,1.176 2.63733,2.628"
       style="fill:#000000;fill-opacity:1;fill-rule:nonzero;stroke:none;stroke-width:1.33333"
       id="path164378" />
    <path
       d="m 282.26573,141.41801 5.61733,0.52533 c 2.18533,-0.888 3.592,-2.96533 3.592,-5.32133 0,-0.62267 -0.104,-1.24267 -0.30933,-1.844 -2.81467,-0.78534 -7.868,-0.504 -10.83734,-0.24134 -0.26266,0.668 -0.39466,1.368 -0.39466,2.08534 0,1.856 0.912,3.72533 2.332,4.796 m 5.74,1.392 -6.05334,-0.56667 -0.0947,-0.068 c -1.688,-1.21333 -2.77867,-3.39333 -2.77867,-5.55333 0,-0.91867 0.18933,-1.81334 0.56267,-2.65734 l 0.10266,-0.22933 0.24934,-0.0227 c 3.73866,-0.34266 8.788,-0.56666 11.62666,0.312 l 0.19867,0.0613 0.0747,0.19333 c 0.28933,0.75867 0.436,1.548 0.436,2.34267 0,2.74266 -1.66,5.15733 -4.22934,6.152 z"
       style="fill:#000000;fill-opacity:1;fill-rule:nonzero;stroke:none;stroke-width:1.33333"
       id="path164382" />
    <path
       d="m 284.85266,135.94441 c 0,0.796 -0.648,1.44133 -1.44667,1.44133 -0.79866,0 -1.44666,-0.64533 -1.44666,-1.44133 0,-0.796 0.648,-1.44134 1.44666,-1.44134 0.79867,0 1.44667,0.64534 1.44667,1.44134"
       style="fill:#ffffff;fill-opacity:1;fill-rule:nonzero;stroke:none;stroke-width:1.33333"
       id="path164386" />
    <path
       d="m 290.22999,133.62961 c 1.84934,0.21733 3.468,1.316 4.77867,2.58533 0.60933,0.59067 1.16667,1.23333 1.68,1.908 0.21333,0.28133 0.46133,0.56933 0.63067,0.87867 0.18,0.32533 0.46666,0.564 0.64933,0.884 0.12667,0.22 0.15867,0.42266 0.11867,0.608 -0.052,0.25066 -0.23467,0.472 -0.484,0.668 0.004,-0.34 0.14133,-0.66534 -0.0653,-0.95734 -0.416,-0.58933 -1.108,-0.964 -1.69733,-1.356 -0.65867,-0.44 -1.32533,-0.86933 -2.00267,-1.28 -1.10666,-0.66933 -2.33333,-1.468 -3.62133,-1.72933 -2.30133,-0.46533 -9.868,-0.88 -12.66533,-0.86267 -2.79734,0.0173 -4.19334,1.26534 -4.184,2.18 0.0107,0.91334 3.32266,4.23334 3.32266,4.23334 -2.79466,-0.492 -5.996,-2.46534 -7.39733,-3.97067 -1.40133,-1.50533 -3.03067,-5.18533 -3.03067,-5.18533 0,0 2.044,1.22933 3.264,1.43733 0,0 -0.74666,-1.74667 -0.74666,-2.084 0,0 2.172,1.508 3.10533,1.612 0,0 -0.98267,-1.60533 -0.98267,-2.124 0,0 3.936,1.17067 5.57867,1.4 1.644,0.22933 4.70933,0.0907 13.74933,1.15467"
       style="fill:#000000;fill-opacity:1;fill-rule:nonzero;stroke:none;stroke-width:1.33333"
       id="path164390" />
    <path
       d="m 332.00839,134.14254 c -1.08133,0.468 -3.02133,0.45867 -3.78133,0.86667 -1.38533,0.74266 -1.956,0.93733 -3.19067,3.08933 0.25734,2.372 1.58,4.07067 3.32934,4.8 l 6.01333,-0.22133 c 1.536,-1.188 2.44,-3.32267 2.44,-5.508 0,-0.93734 -0.23334,-2.456 -0.564,-3.23467 -1.21334,0.001 -2.70667,0.19867 -4.24667,0.208"
       style="fill:#754324;fill-opacity:1;fill-rule:nonzero;stroke:none;stroke-width:1.33333"
       id="path164402" />
    <path
       d="m 334.12106,137.87521 c 0,1.53733 -1.24667,2.784 -2.784,2.784 -1.53733,0 -2.78267,-1.24667 -2.78267,-2.784 0,-1.53734 1.24534,-2.784 2.78267,-2.784 1.53733,0 2.784,1.24666 2.784,2.784"
       style="fill:#000000;fill-opacity:1;fill-rule:nonzero;stroke:none;stroke-width:1.33333"
       id="path164406" />
    <path
       d="m 330.63346,135.95867 c 0,0.84267 -0.684,1.52667 -1.52667,1.52667 -0.84266,0 -1.52666,-0.684 -1.52666,-1.52667 0,-0.84266 0.684,-1.52666 1.52666,-1.52666 0.84267,0 1.52667,0.684 1.52667,1.52666"
       style="fill:#ffffff;fill-opacity:1;fill-rule:nonzero;stroke:none;stroke-width:1.33333"
       id="path164410" />
    <path
       d="m 325.48533,138.19081 c 0.256,1.97733 1.35333,3.56 2.96133,4.268 l 5.772,-0.21067 c 1.33866,-1.10133 2.16533,-3.032 2.16533,-5.07867 0,-0.76666 -0.176,-2.10266 -0.43467,-2.79333 -1.36533,0.005 -5.03066,0.192 -5.72666,0.304 -0.65867,0.108 -1.47333,0.544 -1.78933,0.712 l -0.268,0.144 c -1.14934,0.608 -1.63867,0.868 -2.68,2.65467 m 2.80133,5.14533 -0.088,-0.036 c -1.992,-0.82933 -3.33467,-2.756 -3.596,-5.15467 l -0.0147,-0.14133 0.0707,-0.12267 c 1.21467,-2.11733 1.884,-2.472 3.09867,-3.11466 l 0.26533,-0.14134 c 0.46,-0.24666 1.19467,-0.328 1.968,-0.45333 0.67867,-0.11067 1.38133,-0.22533 1.86133,-0.432 l 0.0813,-0.036 h 0.0893 c 1.32266,-0.009 2.76133,-0.208 4.27466,-0.20933 h 0.25867 l 0.1,0.23333 c 0.364,0.85867 0.59867,2.47333 0.59867,3.44133 0,2.36534 -1,4.608 -2.60934,5.852 l -0.11066,0.0853 z"
       style="fill:#000000;fill-opacity:1;fill-rule:nonzero;stroke:none;stroke-width:1.33333"
       id="path164414" />
    <path
       d="m 332.67706,132.72734 c -2.36533,0.196 -6.172,2.16933 -6.95467,2.70267 -0.78133,0.532 -2.168,4.032 -2.168,4.032 0,0 2.95334,-3.62934 4.352,-4.196 1.39734,-0.56667 4.916,-1.432 8.36933,-0.99867 2.832,0.35467 2.34134,1.436 2.35067,3.69867 0.009,2.264 -2.30667,4.468 -2.30667,4.468 3.40934,-0.71334 4.97867,-1.55867 6.528,-3.32267 1.55067,-1.764 4.01867,-7.35733 4.01867,-7.35733 0,0 -2.912,1.91866 -5.09333,2.09466 0,0 0.96133,-1.61333 0.96133,-2.09466 0,0 -2.65067,1.116 -3.292,1.33066 0,0 0.37467,-0.90933 0.32133,-1.28266 0,0 -2.032,0.80133 -3.368,0.80133 -1.336,0 -1.25333,-0.08 -3.71866,0.124"
       style="fill:#000000;fill-opacity:1;fill-rule:nonzero;stroke:none;stroke-width:1.33333"
       id="path164418" />
    <path
       d="m 297.66493,144.36414 c 0,0 -6.452,3.996 -13.172,4.63867 0,0 9.828,1.596 13.172,-4.63867"
       style="fill:#000000;fill-opacity:1;fill-rule:nonzero;stroke:none;stroke-width:1.33333"
       id="path164434" />
    <path
       d="m 323.45933,136.57401 c 0,0 -1.04667,2.26666 -0.69734,3.444 0.348,1.17733 0.91467,1.91733 0.74134,1.22 -0.17467,-0.69734 -0.13067,-2.87734 0.21733,-3.96667 0.34933,-1.08933 0.21867,-1.56933 -0.26133,-0.69733"
       style="fill:#000000;fill-opacity:1;fill-rule:nonzero;stroke:none;stroke-width:1.33333"
       id="path164438" />
    <path
       d="m 324.95386,144.20801 c 0,0 2.79733,3.40133 8.58266,3.97333 0,0 -3.84666,0.25467 -5.78533,-0.85867 -1.93866,-1.112 -2.79733,-3.11466 -2.79733,-3.11466"
       style="fill:#000000;fill-opacity:1;fill-rule:nonzero;stroke:none;stroke-width:1.33333"
       id="path164442" />
  </g>
  <g
     inkscape:groupmode="layer"
     id="layer9"
     inkscape:label="Standard Brow"
     style="display:none">
    <path
       d="m 323.65266,135.83067 c 2.63467,-2.41333 7.436,-4.57466 10.4,-5.44666 2.964,-0.872 10.288,-0.17467 10.288,-0.17467 l 3.31333,-5.05733 -3.83467,-4.98134 -11.45733,1.90667 -8.24933,4.99333 c 0,0 -4.01067,5.05734 -4.53333,6.27734 -0.52267,1.22133 1.172,5.14 4.07333,2.48266"
       style="opacity:0.199997;fill:#000000;fill-opacity:1;fill-rule:nonzero;stroke:none;stroke-width:1.33333"
       id="path164328" />
    <path
       id="path164356"
       style="opacity:0.199997;fill:#000000;fill-opacity:1;fill-rule:nonzero;stroke:none;stroke-width:1.33333"
       d="m 282.46484,119.29688 c -1.75249,-0.007 -3.50501,0.14693 -5.22851,0.46093 -0.30133,0.0547 -0.6043,0.11436 -0.9043,0.17969 -2.62933,0.57334 -5.19803,1.52259 -7.7207,2.41992 -1.648,0.58534 -3.28855,1.02257 -4.83789,1.86524 -0.89866,0.48933 -1.06656,1.21234 -0.72656,2.15234 1.86932,5.15332 9.23075,2.78909 13.08007,2.48242 4.36133,-0.34666 10.01618,0.11488 14.21485,1.4082 2.07332,0.64 7.0071,4.43032 7.64843,5.07032 0.284,0.28266 0.27692,0.7437 0.40625,1.0957 0.16534,0.45066 0.44622,0.85808 0.57422,1.33008 0.104,0.38 0.3092,0.74972 0.39453,1.12305 0.01,0.0423 0.008,0.0747 0.0156,0.11523 h 2.42187 c 0.18332,-0.21849 0.36607,-0.43928 0.55079,-0.65039 0.81733,-0.93333 2.11229,-1.7321 2.40429,-2.99609 0.45066,-1.96 -0.43691,-3.70649 0.23242,-5.64649 0.40666,-1.18 1.36661,-2.06328 1.97461,-3.14062 0.4,-0.71066 0.858,-3.66066 -0.38867,-3.97266 -1.30667,-0.328 -2.29258,1.75178 -3.39258,2.17578 -1.88932,0.72934 -4.2451,-0.54356 -5.89843,-1.35156 -2.04533,-1 -4.02384,-2.06039 -6.20118,-2.76172 -2.77999,-0.89417 -5.69832,-1.34822 -8.61914,-1.35937 z" />
    <path
       d="m 299.48266,136.64734 c -0.39867,-0.61867 -1.05867,-1.07733 -1.58133,-1.61067 -0.59334,-0.60533 -1.20534,-1.192 -1.84134,-1.752 -1.26533,-1.11333 -2.696,-2.29066 -4.33066,-2.804 -3.284,-1.02933 -12.49334,-2.21333 -14.472,-1.47066 0,0 11.188,0.44133 13.644,2.44666 0.27333,0.22267 0.552,0.44134 0.83066,0.656 1.47067,1.13467 2.984,2.22 4.53334,3.244 0.772,0.51067 1.78533,0.788 2.196,1.692 0.144,0.32 0.22266,0.66534 0.3,1.00667 0.13066,0.58533 0.46666,1.37333 0.36666,1.968 -0.064,0.37867 -0.41333,0.54133 -0.64933,0.8 -0.12533,0.136 -0.61333,0.56533 -0.57467,0.72933 0.04,0.168 0.396,0.244 0.556,0.232 0.29467,-0.024 0.87334,-0.348 1.08667,-0.58933 0.85333,-0.964 0.36267,-2.204 0.25333,-3.33467 -0.0453,-0.464 -0.0413,-0.77333 -0.31733,-1.21333"
       style="fill:#000000;fill-opacity:1;fill-rule:nonzero;stroke:none;stroke-width:1.33333"
       id="path164394" />
    <path
       d="m 324.17239,135.31521 c 0,0 2.03067,-4.86934 12.02267,-5.352 0,0 -4.952,1.49066 -6.836,2.32266 -1.88533,0.83334 -5.18667,3.02934 -5.18667,3.02934"
       style="fill:#000000;fill-opacity:1;fill-rule:nonzero;stroke:none;stroke-width:1.33333"
       id="path164398" />
    <path
       id="path164426"
       style="fill:#383838;fill-opacity:1;fill-rule:nonzero;stroke:none;stroke-width:1.33333"
       d="m 268.95386,121.01801 c -0.58,0.212 -1.15733,0.432 -1.732,0.66 -0.40133,0.16 -2.84098,1.54681 -3.10387,2.19689 0.37866,0.172 2.15987,-0.44223 2.58254,-0.54089 0.72666,-0.168 1.452,-0.34534 2.17466,-0.532 4.05467,-1.04534 7.996,-2.33867 12.21867,-2.52134 1.53067,-0.0653 3.068,-0.02 4.588,0.17467 5.81867,0.748 16.456,8.21067 18.38133,6.92 0.888,-0.59467 3.124,-2.59867 2.92534,-3.692 -0.18134,-0.996 -1.904,-1.40133 -2.77467,-1.36667 -1.89467,0.0773 -4.09867,-0.88266 -5.892,-1.38 -3.04533,-0.84533 -6.084,-1.72266 -9.164,-2.43466 -1.892,-0.43734 -3.89467,-0.948 -5.84933,-0.76534 -3.66,0.344 -7.28267,1.068 -10.80667,2.11067 -1.19467,0.35333 -2.37733,0.744 -3.548,1.17067 m 54.48213,6.47853 c 2.268,-2.44267 4.60534,-5.35333 10.444,-6.932 5.83867,-1.57867 10.50933,-2.45333 12.204,-0.512 1.696,1.94133 1.46133,2.01467 0.14267,3.62267 -1.31867,1.608 -1.288,0.236 -2.60667,-0.98134 -1.31867,-1.216 -4.86667,-0.92933 -9.764,0.2 -4.89733,1.12934 -13.81066,8.25334 -10.42,4.60267" />
    <path
       id="path81181"
       style="color:#000000;fill:#000000;-inkscape-stroke:none"
       d="m 333.81445,120.32227 c -5.89716,1.59449 -8.3036,4.57104 -10.5625,7.0039 -0.42862,0.46149 -0.66145,0.72967 -0.76953,0.96094 -0.027,0.0578 -0.0549,0.11569 -0.0469,0.21484 0.008,0.0992 0.11535,0.23294 0.20898,0.26172 0.18726,0.0576 0.26773,-0.005 0.39258,-0.0547 0.49942,-0.19748 1.42319,-0.7753 2.63086,-1.50781 2.41533,-1.46502 5.87527,-3.51818 8.24414,-4.06445 2.44029,-0.56274 4.54141,-0.91284 6.17773,-0.97266 1.63633,-0.0598 2.79134,0.18728 3.36133,0.71289 0.62423,0.57627 0.90717,1.18941 1.30274,1.55078 0.0989,0.0904 0.21404,0.16777 0.35156,0.20508 0.13752,0.0373 0.29173,0.0275 0.43359,-0.0273 0.28373,-0.1096 0.54044,-0.35637 0.88086,-0.77149 0.32795,-0.3999 0.59166,-0.70666 0.78516,-0.98828 0.1935,-0.28162 0.32263,-0.55246 0.33008,-0.85156 0.007,-0.29909 -0.10854,-0.59129 -0.31836,-0.91797 -0.20982,-0.32668 -0.51892,-0.69943 -0.94532,-1.1875 -0.93439,-1.07039 -2.61544,-1.32432 -4.75584,-1.14845 -2.1404,0.17587 -4.77684,0.79133 -7.70116,1.58202 z m 7.74217,-1.08399 c 2.07824,-0.17078 3.57957,0.10758 4.33984,0.97852 0.57284,0.50389 0.88897,1.12857 0.93832,1.57346 0.0493,0.44489 -0.62655,1.11351 -0.92037,1.45018 -0.29383,0.33667 -0.5598,0.63349 -0.93685,0.32625 -0.37704,-0.30725 -0.63175,-0.82396 -1.08954,-1.2549 -0.74868,-0.69039 -2.02708,-0.90755 -3.71875,-0.84571 -1.69167,0.0618 -3.8125,0.41974 -6.26953,0.98633 -2.52846,0.58307 -6.07356,2.85437 -8.49156,4.32101 -0.94738,0.57464 -1.59902,0.99705 -2.14052,1.37009 3.50309,-4.31664 7.04979,-6.30347 10.67763,-7.33689 2.91435,-0.78799 5.53309,-1.39758 7.61133,-1.56836 z m -76.37618,3.22702 c -0.39661,0.25978 -0.72025,0.53747 -0.98464,0.80854 -0.12148,0.12455 -0.41696,0.54598 -0.45174,0.7428 -0.0297,0.16839 0.16405,0.2037 0.5559,0.14416 0.39186,-0.0595 0.54806,-0.1085 0.95958,-0.20153 0.41153,-0.093 0.82061,-0.20259 1.49828,-0.38095 0.67767,-0.17836 1.45493,-0.34601 2.17969,-0.53321 4.06501,-1.048 7.9895,-2.33291 12.16797,-2.51367 1.51863,-0.0648 3.04114,-0.0207 4.54492,0.17188 2.82416,0.36305 6.94253,2.40311 10.57031,4.20117 1.81389,0.89902 3.50844,1.73488 4.88477,2.27148 0.68816,0.2683 1.29708,0.46391 1.8125,0.55078 0.51542,0.0869 0.95399,0.0775 1.35521,-0.19031 0.40122,-0.26781 1.18419,-0.92112 1.84596,-1.65143 0.33088,-0.36516 0.6299,-0.74827 0.83984,-1.125 0.20995,-0.37673 0.34221,-0.75339 0.27539,-1.1211 -0.11458,-0.62937 -0.68217,-1.021 -1.2832,-1.25781 -0.60103,-0.23681 -1.26746,-0.33359 -1.74805,-0.31445 -1.80254,0.0735 -3.99212,-0.86572 -5.81445,-1.3711 -3.04367,-0.84487 -6.08508,-1.72347 -9.17383,-2.4375 -1.8881,-0.43644 -3.9163,-0.95768 -5.92968,-0.76953 l -10e-6,-2.6e-4 c -3.67724,0.34562 -7.31502,1.07218 -10.85352,2.11914 -1.1997,0.35482 -2.31291,0.72619 -3.52642,1.16532 -0.62021,0.2235 -1.19958,0.444 -1.58798,0.59827 -0.3884,0.15428 -1.36371,0.58795 -2.1368,1.09431 z m 7.39183,-2.37741 c 3.50949,-1.03838 7.117,-1.75918 10.75976,-2.10156 1.89593,-0.17717 3.87364,0.32153 5.76953,0.75976 3.07125,0.70998 6.10732,1.58586 9.1543,2.43164 1.76433,0.4893 3.98196,1.46973 5.96875,1.38868 0.39008,-0.0155 1.01967,0.0731 1.54297,0.27929 0.81732,0.42919 0.64631,0.79081 0.41492,1.45807 -0.18117,0.3251 -0.45915,0.68636 -0.77343,1.0332 -0.62857,0.69368 -1.21682,1.04346 -1.63355,1.32253 -0.15017,0.10067 -0.48745,0.2475 -0.94501,0.17043 -0.45756,-0.0771 -0.85146,-0.19641 -1.52221,-0.45792 -1.3415,-0.52303 -2.92438,-1.10283 -4.73782,-2.00163 -3.62688,-1.79761 -7.73596,-3.8631 -10.73047,-4.24805 -1.53622,-0.19675 -3.0862,-0.24159 -4.62891,-0.17578 -4.26685,0.18458 -8.35428,1.57138 -12.3986,2.61405 -0.72056,0.18612 -1.46455,0.36707 -2.18916,0.57166 -0.62651,0.16464 -1.33501,0.37368 -1.7207,0.48633 -0.38569,0.11265 -0.52906,0.13252 -0.62258,0.11718 0.17,-0.2914 0.84539,-0.7511 1.09881,-0.92496 0.75684,-0.42934 1.73424,-0.82014 1.93554,-0.90039 0.57256,-0.22717 1.10967,-0.4311 1.70609,-0.6504 1.18446,-0.433 2.36213,-0.82029 3.55177,-1.17213 z" />
    <path
       id="path81187"
       style="fill:#000000;fill-opacity:0.2;stroke:none;stroke-width:1px;stroke-linecap:butt;stroke-linejoin:miter;stroke-opacity:1"
       d="m 346.14648,120.12695 c -0.27761,0.29784 -0.68838,0.63479 -1.24218,0.81446 -1.13843,0.36934 -2.8882,-0.47538 -4.98242,-0.33594 -2.09423,0.13944 -5.39074,0.78699 -7.44727,1.51172 -2.05653,0.72473 -3.12294,1.38715 -4.87109,2.51953 -1.33517,0.86486 -3.80318,2.93319 -4.90821,3.87305 0.29542,0.36624 7.10456,-4.68 11.16016,-5.61524 4.89732,-1.12933 8.445,-1.41717 9.76367,-0.20117 1.31867,1.21734 1.28875,2.59042 2.60742,0.98242 1.29977,-1.58497 1.53729,-1.68736 -0.0801,-3.54883 z m -62.67382,-1.40234 c -2.01773,-0.0475 -3.33678,0.31438 -5.42188,0.64844 -2.78014,0.44541 -6.19343,1.41628 -8.8457,2.35156 -1.61325,0.56889 -3.55691,1.4549 -5.03711,2.1582 0.44922,0.12019 2.12376,-0.45325 2.5332,-0.54883 0.72666,-0.168 1.45117,-0.34459 2.17383,-0.53125 4.05467,-1.04533 7.99608,-2.33881 12.21875,-2.52148 1.53067,-0.0653 3.06789,-0.0208 4.58789,0.17383 5.81866,0.748 16.45553,8.21059 18.38086,6.91992 0.888,-0.59467 3.12444,-2.59808 2.92578,-3.69141 -0.004,-0.0237 -0.0135,-0.0453 -0.0195,-0.0684 -0.80032,0.45742 -1.77651,0.92186 -2.60156,1.02149 -1.72911,0.2088 -2.58548,-0.35535 -5.71094,-1.23242 -3.12546,-0.87707 -9.35057,-3.987 -12.87891,-4.47852 -0.88208,-0.12288 -1.63211,-0.18533 -2.30468,-0.20117 z" />
  </g>
  <g
     inkscape:groupmode="layer"
     id="g3591"
     inkscape:label="Vulcan Brow">
    <path
       d="m 323.65266,135.83067 c 2.63467,-2.41333 7.436,-4.57466 10.4,-5.44666 2.964,-0.872 10.288,-0.17467 10.288,-0.17467 0,0 3.78342,-6.58684 4.04121,-9.08868 0.25779,-2.50185 -0.33048,-3.88878 -3.49872,-2.57373 -3.16824,1.31505 -12.52116,3.53041 -12.52116,3.53041 l -8.24933,4.99333 c 0,0 -4.01067,5.05734 -4.53333,6.27734 -0.52267,1.22133 1.172,5.14 4.07333,2.48266"
       style="opacity:0.199997;fill:#000000;fill-opacity:1;fill-rule:nonzero;stroke:none;stroke-width:1.33333"
       id="path3577"
       sodipodi:nodetypes="csczzcccc" />
    <path
       id="path3579"
       style="opacity:0.199997;fill:#000000;fill-opacity:1;fill-rule:nonzero;stroke:none;stroke-width:1.33333"
       d="m 282.46484,119.29688 c -2.24266,0.0373 -4.45854,-0.3693 -6.46876,-0.87114 -5.19088,-0.64645 -10.12296,-1.61952 -14.12634,-1.98583 0.55711,1.21721 2.4062,5.96973 4.59259,8.75928 2.18639,2.78954 5.8153,3.9649 9.66462,3.65823 4.36133,-0.34666 10.01618,0.11488 14.21485,1.4082 2.07332,0.64 7.0071,4.43032 7.64843,5.07032 0.284,0.28266 0.27692,0.7437 0.40625,1.0957 0.16534,0.45066 0.44622,0.85808 0.57422,1.33008 0.104,0.38 0.3092,0.74972 0.39453,1.12305 0.01,0.0423 0.008,0.0747 0.0156,0.11523 h 2.42187 c 0.18332,-0.21849 0.36607,-0.43928 0.55079,-0.65039 0.81733,-0.93333 2.11229,-1.7321 2.40429,-2.99609 0.45066,-1.96 -0.43691,-3.70649 0.23242,-5.64649 0.40666,-1.18 1.36661,-2.06328 1.97461,-3.14062 0.4,-0.71066 0.858,-3.66066 -0.38867,-3.97266 -1.30667,-0.328 -2.29258,1.75178 -3.39258,2.17578 -1.88932,0.72934 -4.2451,-0.54356 -5.89843,-1.35156 -2.04533,-1 -4.02384,-2.06039 -6.20118,-2.76172 -2.77999,-0.89417 -5.69832,-1.34822 -8.61914,-1.35937 z"
       sodipodi:nodetypes="ccczcccccscccccccccccc" />
    <path
       d="m 299.48266,136.64734 c -0.39867,-0.61867 -1.05867,-1.07733 -1.58133,-1.61067 -0.59334,-0.60533 -1.20534,-1.192 -1.84134,-1.752 -1.26533,-1.11333 -2.696,-2.29066 -4.33066,-2.804 -3.284,-1.02933 -12.49334,-2.21333 -14.472,-1.47066 0,0 11.188,0.44133 13.644,2.44666 0.27333,0.22267 0.552,0.44134 0.83066,0.656 1.47067,1.13467 2.984,2.22 4.53334,3.244 0.772,0.51067 1.78533,0.788 2.196,1.692 0.144,0.32 0.22266,0.66534 0.3,1.00667 0.13066,0.58533 0.46666,1.37333 0.36666,1.968 -0.064,0.37867 -0.41333,0.54133 -0.64933,0.8 -0.12533,0.136 -0.61333,0.56533 -0.57467,0.72933 0.04,0.168 0.396,0.244 0.556,0.232 0.29467,-0.024 0.87334,-0.348 1.08667,-0.58933 0.85333,-0.964 0.36267,-2.204 0.25333,-3.33467 -0.0453,-0.464 -0.0413,-0.77333 -0.31733,-1.21333"
       style="fill:#000000;fill-opacity:1;fill-rule:nonzero;stroke:none;stroke-width:1.33333"
       id="path3581" />
    <path
       d="m 324.17239,135.31521 c 0,0 2.03067,-4.86934 12.02267,-5.352 0,0 -4.952,1.49066 -6.836,2.32266 -1.88533,0.83334 -5.18667,3.02934 -5.18667,3.02934"
       style="fill:#000000;fill-opacity:1;fill-rule:nonzero;stroke:none;stroke-width:1.33333"
       id="path3583" />
    <path
       id="path3585"
       style="fill:#383838;fill-opacity:1;fill-rule:nonzero;stroke:none;stroke-width:1.33333"
       d="m 267.05389,116.52683 c -1.98,-0.18464 -4.96864,-0.41287 -5.4555,-0.26671 0.37866,0.172 3.38404,0.8193 6.10998,1.3628 2.72594,0.5435 6.08647,1.16754 9.52211,1.7059 3.43563,0.53836 6.93138,0.93185 8.45138,1.12652 5.81867,0.748 16.456,8.21067 18.38133,6.92 0.888,-0.59467 3.124,-2.59867 2.92534,-3.692 -0.18134,-0.996 -1.904,-1.40133 -2.77467,-1.36667 -1.89467,0.0773 -4.09867,-0.88266 -5.892,-1.38 -3.04533,-0.84533 -5.91603,-1.61068 -8.99603,-2.32268 -1.892,-0.43734 -3.76988,-0.97268 -7.2491,-1.15728 -3.47923,-0.18459 -5.81093,-0.29592 -8.34307,-0.46491 -2.51921,-0.29246 -4.69978,-0.28032 -6.67977,-0.46497 z m 56.3821,10.96971 c 2.268,-2.44267 4.60534,-5.35333 10.444,-6.932 5.83867,-1.57867 9.70758,-2.59874 12.03603,-3.36754 2.32845,-0.76881 3.87889,-1.24076 2.15834,-0.0727 -1.65461,1.1233 -2.45584,1.51887 -4.58954,2.43013 -2.1337,0.91125 -4.7315,1.57668 -9.62883,3.33948 -4.72884,1.70215 -13.81066,8.25334 -10.42,4.60267"
       sodipodi:nodetypes="zczzcccccszczcszszsc" />
    <path
       style="color:#000000;fill:#000000;-inkscape-stroke:none"
       d="m 260.91016,115.9623 c 0.50954,0.24166 0.98001,0.49989 1.36927,0.61993 0.38926,0.12003 0.60269,0.21636 1.48881,0.43492 0.88612,0.21855 2.52756,0.57797 3.89192,0.85 2.72859,0.54403 6.09105,1.16991 9.53125,1.70898 3.44284,0.53949 6.94478,0.93303 8.45898,1.12696 2.82416,0.36305 6.94253,2.40311 10.57031,4.20117 1.81389,0.89902 3.50844,1.73488 4.88477,2.27148 0.68816,0.2683 1.29708,0.46391 1.8125,0.55078 0.51542,0.0869 0.95399,0.0775 1.35521,-0.19031 0.40122,-0.26781 1.18419,-0.92112 1.84596,-1.65143 0.33088,-0.36516 0.6299,-0.74827 0.83984,-1.125 0.20995,-0.37673 0.34221,-0.75339 0.27539,-1.1211 -0.11458,-0.62937 -0.68217,-1.021 -1.2832,-1.25781 -0.60103,-0.23681 -1.26746,-0.33359 -1.74805,-0.31445 -1.80254,0.0735 -3.99212,-0.86572 -5.81445,-1.3711 -3.04687,-0.84575 -5.92077,-1.61104 -9.00586,-2.32422 -1.88375,-0.43543 -3.79297,-0.97836 -7.29297,-1.16406 -3.47981,-0.18462 -5.8106,-0.29605 -8.33984,-0.46484 l 0.0117,0.002 c -2.53641,-0.29446 -4.72347,-0.28382 -6.68555,-0.4668 -0.99209,-0.0925 -2.23463,-0.19566 -3.29492,-0.25781 -0.53015,-0.0311 -1.01384,-0.0509 -1.40038,-0.0548 -0.5329,-10e-4 -0.74497,-0.002 -1.47069,-0.002 z m 84.92773,0.99668 c -2.31267,0.7636 -6.1841,1.78444 -12.02344,3.36329 -5.89716,1.59449 -8.3036,4.57104 -10.5625,7.0039 -0.43008,0.46306 -0.66547,0.74339 -0.76758,0.99805 -0.0255,0.0637 -0.0478,0.13058 -0.0371,0.22265 0.0107,0.0921 0.0859,0.20618 0.17187,0.25 0.17201,0.0876 0.2847,0.0379 0.41797,0 0.53308,-0.15141 1.46666,-0.6787 2.6875,-1.37695 2.44169,-1.3965 5.90056,-3.45728 8.2168,-4.29101 4.88968,-1.76005 7.4819,-2.42098 9.64257,-3.34375 2.13695,-0.91265 2.96779,-1.32408 4.63086,-2.45313 0.21905,-0.14871 0.38803,-0.27335 0.51563,-0.3789 0.12759,-0.10556 0.21283,-0.18117 0.27734,-0.29688 0.0323,-0.0579 0.0702,-0.14501 0.0371,-0.25781 -0.0331,-0.1128 -0.13664,-0.18235 -0.20508,-0.20508 -0.13687,-0.0455 -0.23277,-0.025 -0.55903,0.0229 -0.32625,0.0479 -1.27746,0.3579 -2.44291,0.7427 z m -78.80664,-0.18349 c 1.99789,0.18632 4.17182,0.17438 6.67383,0.46484 h 0.006 l 0.006,0.002 c 2.53503,0.16918 4.86902,0.28028 8.34765,0.46484 3.45844,0.1835 5.30483,0.71115 7.20508,1.15039 3.07491,0.71082 5.94255,1.47541 8.98633,2.32031 1.76433,0.4893 3.98196,1.46973 5.96875,1.38868 0.39008,-0.0155 1.01967,0.0731 1.54297,0.27929 0.5233,0.20619 0.6279,0.4322 0.69465,0.79883 0.0325,0.17895 -0.0395,0.462 -0.22071,0.78711 -0.18117,0.3251 -0.5532,0.67834 -0.9134,0.97721 -0.76855,0.63769 -1.40749,1.00413 -1.82422,1.2832 -0.15017,0.10067 -0.46627,0.14157 -0.92383,0.0645 -0.45756,-0.0771 -1.04214,-0.25997 -1.71289,-0.52148 -1.3415,-0.52303 -3.03031,-1.35706 -4.84375,-2.25586 -3.62688,-1.79761 -7.31603,-3.38718 -10.31054,-3.77213 -1.5258,-0.19541 -5.01495,-0.58777 -8.44336,-1.125 -3.43108,-0.53764 -6.78843,-1.16211 -9.51172,-1.70508 -1.36158,-0.27147 -4.13093,-0.81509 -4.0727,-0.85994 -0.0605,-0.0646 2.35796,0.16617 3.34586,0.25829 z m 79.81459,0.66611 c -0.71676,0.49496 -1.48704,0.87378 -3.61749,1.78366 -2.10672,0.89973 -4.71027,1.56843 -9.61524,3.33398 -2.41259,0.86842 -5.70279,3.03514 -8.13655,4.42711 -1.05446,0.60308 -1.77724,0.9678 -2.23242,1.15234 0.11198,-0.14939 0.14114,-0.22087 0.375,-0.47265 2.2771,-2.45248 4.54603,-5.29653 10.32617,-6.85938 5.838,-1.57849 9.70461,-2.59904 12.04883,-3.37305 0.93913,-0.31008 1.56846,-0.48697 0.8517,0.008 z"
       id="path3805"
       sodipodi:nodetypes="czzsscssscsscsccssccsscccscssscssssssssccscccssccscsscssscsscsccssccsscc" />
    <path
       id="path4602"
       style="fill:#000000;fill-opacity:0.2;stroke:none;stroke-width:1px;stroke-linecap:butt;stroke-linejoin:miter;stroke-opacity:1"
       d="M 262.37695 116.21484 C 261.99737 116.21112 261.71937 116.22323 261.59766 116.25977 C 261.97632 116.43177 264.98305 117.07955 267.70898 117.62305 C 270.43492 118.16655 273.79483 118.78977 277.23047 119.32812 C 280.6661 119.86648 284.16164 120.26041 285.68164 120.45508 C 291.5003 121.20308 302.13717 128.66567 304.0625 127.375 C 304.9505 126.78033 307.18694 124.77692 306.98828 123.68359 C 306.88893 123.13792 306.32442 122.77446 305.69336 122.55859 C 305.42084 123.25885 305.08338 123.91526 304.70312 124.1875 C 303.72954 124.88452 303.83877 124.71864 301.79102 124.41211 C 299.74326 124.10558 296.60032 122.04098 292.94531 120.94141 C 289.29031 119.84184 284.67692 119.06498 279.84375 118.14062 C 277.34785 117.66328 274.16061 117.2254 271.1543 116.77734 C 269.68559 116.68883 268.32263 116.64559 267.05469 116.52734 C 265.56969 116.38886 263.51571 116.22603 262.37695 116.21484 z M 348.76172 116.43164 C 348.5229 116.35231 347.3713 116.71676 345.91602 117.19727 C 344.69445 117.6006 342.98505 118.0878 340.85352 118.67383 C 340.40098 119.12122 339.91751 119.51625 339.41797 119.76562 C 337.28579 120.83004 333.89105 121.31787 330.57031 122.95703 C 328.5021 123.97793 325.09142 126.58274 322.70508 128.47656 C 322.57123 129.36012 329.80551 124.35232 333.85547 122.89453 C 338.75279 121.13173 341.35068 120.46594 343.48438 119.55469 C 345.61807 118.64343 346.41961 118.2483 348.07422 117.125 C 348.71942 116.68698 348.90501 116.47924 348.76172 116.43164 z " />
  </g>
  <g
     inkscape:groupmode="layer"
     id="layer8"
     inkscape:label="Nose Edge"
     sodipodi:insensitive="true">
    <path
       d="m 305.79026,137.63214 c -0.12667,-0.71467 -0.11333,-1.532 -0.412,-2.22133 -0.15067,-0.34534 -0.31867,-0.932 -0.78,-1.16534 -0.796,-0.40133 -1.672,0.57734 -1.976,0.944 -0.55067,0.67067 -0.97467,0.83334 -1.53733,1.78134 0,0 1.70933,-0.70267 2.30533,-0.14667 0.59467,0.55733 3.45067,9.17733 3.45067,9.17733 -0.06,-0.488 -0.12134,-0.976 -0.18134,-1.464 -0.28933,-2.33733 -0.58,-5.26533 -0.86933,-6.90533"
       style="fill:#000000;fill-opacity:1;fill-rule:nonzero;stroke:none;stroke-width:1.33333"
       id="path164430" />
  </g>
</svg>
