<?xml version="1.0" encoding="UTF-8" standalone="no"?>
<!-- Created with Inkscape (http://www.inkscape.org/) -->

<svg
   version="1.1"
   id="svg127794"
   width="400"
   height="400"
   viewBox="0 0 400 400"
   sodipodi:docname="TellariteEyes1.svg"
   inkscape:version="1.2.2 (b0a8486, 2022-12-01)"
   xmlns:inkscape="http://www.inkscape.org/namespaces/inkscape"
   xmlns:sodipodi="http://sodipodi.sourceforge.net/DTD/sodipodi-0.dtd"
   xmlns="http://www.w3.org/2000/svg"
   xmlns:svg="http://www.w3.org/2000/svg">
  <defs
     id="defs127798" />
  <sodipodi:namedview
     id="namedview127796"
     pagecolor="#ffffff"
     bordercolor="#666666"
     borderopacity="1.0"
     inkscape:showpageshadow="2"
     inkscape:pageopacity="0.0"
     inkscape:pagecheckerboard="0"
     inkscape:deskcolor="#d1d1d1"
     showgrid="false"
     inkscape:zoom="6.470027"
     inkscape:cx="302.00801"
     inkscape:cy="148.7629"
     inkscape:window-width="1733"
     inkscape:window-height="1135"
     inkscape:window-x="2689"
     inkscape:window-y="25"
     inkscape:window-maximized="0"
     inkscape:current-layer="layer3">
    <inkscape:page
       x="0"
       y="0"
       id="page127800"
       width="400"
       height="400" />
  </sodipodi:namedview>
  <g
     id="g127802"
     inkscape:groupmode="layer"
     inkscape:label="Eyes">
    <path
       d="m 340.59146,121.92654 c -0.0413,-1.16533 -1.11734,-1.79733 -1.91334,-2.5 -1.64933,-1.45867 -3.38666,-3.084 -5.51333,-3.816 2.49733,-0.62 5.62533,1.856 7.40267,3.44133 0.33866,-2.072 -2.572,-4.52266 -4.12134,-5.59333 1.46267,-0.86533 5.2,1.91733 6.11734,2.9 0.003,-1.048 -1.00534,-2.74133 -0.67067,-3.65333 0.804,-2.192 4.45467,-0.25467 5.448,0.79066 2.68533,2.82534 3.41733,8.94 -0.552,10.84 -1.97067,0.94267 -5.25333,-0.41733 -6.19733,-2.40933"
       style="opacity:0.199997;fill:#000000;fill-opacity:1;fill-rule:nonzero;stroke:none;stroke-width:1.33333"
       id="path149956" />
    <path
       d="m 305.18066,121.32454 c -1.58133,1.692 -3.23333,4.192 -5.82667,4.00667 -0.68,-0.0493 -1.26266,-0.37867 -1.792,-0.77867 -0.009,-0.088 -0.012,-0.184 -0.0227,-0.26533 -0.072,-0.53734 -0.31067,-1.064 -0.42134,-1.584 -0.06,-0.284 -0.076,-0.604 -0.11466,-0.896 -0.10534,-0.80267 -0.34267,-1.596 -0.58934,-2.37334 -1.24666,-3.93733 -4.472,-6.71066 -7.94533,-8.708 -1.104,-0.63333 -2.352,-1.22 -3.584,-1.52266 -0.86667,-0.212 -1.70133,-0.17734 -2.57867,-0.23334 -0.956,-0.0613 -1.91066,-0.20933 -2.864,-0.292 -2.18666,-0.18666 -4.19866,-0.0787 -6.25733,0.85334 -1.668,0.75466 -3.01733,1.764 -4.42267,2.912 -1.29866,1.06133 -2.464,2.188 -3.07333,3.77066 -0.424,1.1 -0.704,2.20667 -1.02533,3.32934 -0.24134,0.84133 -0.34134,1.776 -0.62934,2.592 0.27467,-0.23867 1.12534,-0.92667 1.51067,-0.772 0.30133,0.12 0.50133,1.03066 0.588,1.30933 0.284,0.90533 0.528,1.98 0.54933,2.92667 0.0107,0.456 0.10934,1.11066 -0.032,1.54 0.70934,-0.744 1.252,-1.748 1.86534,-2.58534 0.34533,-0.47333 0.77333,-1.36666 1.33733,-1.59333 0.72933,0.528 0.48267,2.38267 0.22267,3.064 0.73733,-0.576 1.47466,-1.172 2.23333,-1.732 0.44,-0.32533 1.228,-1.13867 1.716,-1.288 -0.0133,0.54933 -0.66,1.07067 -0.87467,1.57067 0.38134,-0.67334 1.252,-1.26934 1.83867,-1.75334 0.844,-0.696 1.74933,-1.32933 2.67867,-1.89066 0.85866,-0.52 1.72933,-0.94 2.652,-1.33467 0.51866,-0.22267 1.148,-0.58933 1.688,-0.69467 -0.0333,0.46 -0.55334,0.84134 -0.876,1.11067 -0.57867,0.48533 -1.2,0.916 -1.792,1.37467 -0.90534,0.70133 -1.76,1.42933 -2.55067,2.24933 -1.052,1.09067 -1.864,2.28267 -2.58933,3.58 -0.28134,0.50133 -0.524,1.01067 -0.72667,1.56667 1.44533,-1.26134 3.09467,-2.23067 4.49333,-3.57067 0.83467,-0.8 1.91334,-2.032 3.07734,-2.36933 0.472,0.784 -0.97067,2.068 -1.392,2.556 -0.44667,0.51866 -0.94,0.996 -1.32134,1.556 -0.22533,0.33066 -0.64533,0.888 -0.32133,1.23866 0.2,0.216 0.54533,0.34667 0.90933,0.44134 -1.388,1 -2.60666,2.25066 -3.65466,3.59333 -0.67734,0.86933 -1.704,1.724 -1.68534,2.89867 1.144,-0.308 2.24267,-1.01334 3.28134,-1.57334 1.21466,-0.65466 2.43066,-1.308 3.652,-1.95066 3.69066,-1.94134 8.476,-0.76134 11.772,1.30933 1.63066,1.024 2.99866,2.048 4.06133,3.57867 0.868,1.252 1.17067,2.412 1.06667,3.916 -0.132,1.90266 -0.68534,1.97866 -2.04934,3.112 -1.052,0.87333 -1.98133,1.62933 -3.25333,2.188 -3.636,1.596 -7.99333,1.20933 -11.72,0.15866 -1.96533,-0.55466 -3.88533,-1.34 -5.63467,-2.39866 -1.59733,-0.96667 -2.84933,-2.516 -4.45866,-3.40134 -1.90534,2.31734 -1.38934,6.67734 -0.0187,9.15067 2.652,4.788 9.37067,8.32933 14.56,5.01733 2.55733,-1.632 3.46933,-4.41066 6.50267,-5.328 3.748,-1.132 6.176,-2.78933 7.97066,-6.30133 1.09067,-2.136 1.968,-4.41467 3.388,-6.38667 1.54534,-2.14533 3.808,-3.47733 5.76267,-5.188 1.65333,-1.44666 2.81467,-3.52266 5.47067,-3.01733 1.07333,0.204 1.50533,1.13733 2.39333,1.66267 1.876,1.112 2.256,-2.084 1.99333,-3.22134 -0.404,-1.75333 -0.93866,-1.94133 -2.624,-2.456 -1.44,-0.44133 -2.716,-0.62133 -4.224,-0.548 -1.368,0.0653 -1.27066,0.0867 -1.86133,1.16267 -0.34133,0.62533 -0.72533,1.26933 -1.06933,1.91067 -0.352,0.65333 -3.23334,6.048 -3.75867,3.04133 -0.45067,-2.572 1.61867,-5.34667 2.91067,-7.04667 1.368,-1.79733 2.652,-1.35866 4.70533,-0.19466 -0.14133,-0.08 -1.17333,-1.81734 -1.52133,-2.15467 -0.52267,-0.50267 -1.54934,-1.12133 -1.76667,-1.91333 -0.144,-0.52934 0.29333,-1.90534 0.37067,-2.404 0.20533,-1.32667 0.43466,-2.66534 0.78533,-3.92667 -0.588,0.11733 -1.19067,0.28267 -1.83333,0.0907 1.17733,3.40133 -0.88,7.03866 -2.80667,8.86 -0.148,0.14 -0.296,0.29066 -0.444,0.44933"
       style="opacity:0.199997;fill:#000000;fill-opacity:1;fill-rule:nonzero;stroke:none;stroke-width:1.33333"
       id="path150016" />
    <path
       d="m 336.08346,143.00747 c 0.57466,-0.14133 0.844,-0.32133 0.844,-0.32133 l 2.78533,-2.73467 -0.0547,-5.484 -6.84933,-0.87333 c 0,0 -6.248,1.47333 -7.52933,2.72933 -1.28267,1.25467 -1.91067,4.01067 -1.93733,4.092 0,0 0.136,0.84534 0.65466,0.95467 0.51867,0.10933 3.356,1.91067 4.36534,1.856 1.00933,-0.0547 7.72133,-0.21867 7.72133,-0.21867"
       style="fill:#ffffff;fill-opacity:1;fill-rule:nonzero;stroke:none;stroke-width:1.33333"
       id="path150026" />
    <path
       d="m 271.06893,137.72027 4.46666,-2.252 14.376,-0.51066 5.288,2.456 2.82267,2.76266 -1.12933,1.43334 -3.33734,0.204 c 0,0 -2.156,1.68933 -4.46666,1.63733 -2.30934,-0.0507 -13.296,-1.176 -13.296,-1.176 l -4.98134,-4.04267 z"
       style="fill:#ffffff;fill-opacity:1;fill-rule:nonzero;stroke:none;stroke-width:1.33333"
       id="path150030" />
    <path
       d="m 280.03306,134.98934 c -0.336,0.76133 -0.52667,1.60133 -0.52667,2.48667 0,2.06266 1.04134,4.08533 2.60134,5.208 l 5.83866,0.54666 c 2.31334,-0.896 3.956,-3.132 3.956,-5.75466 0,-0.77334 -0.148,-1.50934 -0.408,-2.192 -2.864,-0.88667 -8.16933,-0.59734 -11.46133,-0.29467"
       style="fill:#754324;fill-opacity:1;fill-rule:nonzero;stroke:none;stroke-width:1.33333"
       id="path150034" />
    <path
       d="m 288.34186,137.47574 c 0,1.452 -1.18133,2.628 -2.63733,2.628 -1.456,0 -2.63734,-1.176 -2.63734,-2.628 0,-1.452 1.18134,-2.628 2.63734,-2.628 1.456,0 2.63733,1.176 2.63733,2.628"
       style="fill:#000000;fill-opacity:1;fill-rule:nonzero;stroke:none;stroke-width:1.33333"
       id="path150038" />
    <path
       d="m 282.26573,142.27134 5.61733,0.52533 c 2.18533,-0.888 3.592,-2.96533 3.592,-5.32133 0,-0.62267 -0.104,-1.24267 -0.30933,-1.844 -2.81467,-0.78533 -7.868,-0.504 -10.83734,-0.24133 -0.26266,0.668 -0.39466,1.368 -0.39466,2.08533 0,1.856 0.912,3.72533 2.332,4.796 m 5.74,1.392 -6.05334,-0.56667 -0.0947,-0.068 c -1.688,-1.21333 -2.77867,-3.39333 -2.77867,-5.55333 0,-0.91867 0.18933,-1.81333 0.56267,-2.65733 l 0.10266,-0.22934 0.24934,-0.0227 c 3.73866,-0.34267 8.788,-0.56667 11.62666,0.312 l 0.19867,0.0613 0.0747,0.19333 c 0.28933,0.75867 0.436,1.548 0.436,2.34267 0,2.74267 -1.66,5.15733 -4.22934,6.152 z"
       style="fill:#000000;fill-opacity:1;fill-rule:nonzero;stroke:none;stroke-width:1.33333"
       id="path150042" />
    <path
       d="m 284.85266,136.79774 c 0,0.796 -0.648,1.44133 -1.44667,1.44133 -0.79866,0 -1.44666,-0.64533 -1.44666,-1.44133 0,-0.796 0.648,-1.44133 1.44666,-1.44133 0.79867,0 1.44667,0.64533 1.44667,1.44133"
       style="fill:#ffffff;fill-opacity:1;fill-rule:nonzero;stroke:none;stroke-width:1.33333"
       id="path150046" />
    <path
       d="m 298.26853,140.48107 c 0,0 -3.35067,-6.01066 -8.208,-6.344 -4.85867,-0.33466 -11.72667,0.5 -14.57467,0.5 -2.848,0 -5.696,3.34 -5.696,3.34 0,0 3.68533,4.17334 6.53333,4.508 l -4.188,-4.508 c 0,0 2.17867,-1.67066 5.02667,-1.83733 2.84667,-0.16667 10.55333,-0.16667 12.89867,0.16667 2.34533,0.33466 8.208,4.17466 8.208,4.17466"
       style="fill:#000000;fill-opacity:1;fill-rule:nonzero;stroke:none;stroke-width:1.33333"
       id="path150050" />
    <path
       d="m 332.02573,134.24614 c -1.08934,0.42267 -3.03867,0.356 -3.79734,0.76267 -1.38666,0.74266 -1.95733,0.93733 -3.192,3.08933 0.25734,2.372 1.58,4.072 3.32934,4.8 l 6.01333,-0.22133 c 1.536,-1.188 2.44133,-3.32267 2.44133,-5.508 0,-0.93734 -0.188,-1.82667 -0.51867,-2.632 -1.22266,-0.12134 -2.72533,-0.24 -4.27599,-0.29067"
       style="fill:#754324;fill-opacity:1;fill-rule:nonzero;stroke:none;stroke-width:1.33333"
       id="path150054" />
    <path
       d="m 334.12106,137.87521 c 0,1.53733 -1.24667,2.784 -2.784,2.784 -1.53733,0 -2.78267,-1.24667 -2.78267,-2.784 0,-1.53734 1.24534,-2.784 2.78267,-2.784 1.53733,0 2.784,1.24666 2.784,2.784"
       style="fill:#000000;fill-opacity:1;fill-rule:nonzero;stroke:none;stroke-width:1.33333"
       id="path150058" />
    <path
       d="m 330.63346,135.95867 c 0,0.84267 -0.684,1.52667 -1.52667,1.52667 -0.84266,0 -1.52666,-0.684 -1.52666,-1.52667 0,-0.84266 0.684,-1.52666 1.52666,-1.52666 0.84267,0 1.52667,0.684 1.52667,1.52666"
       style="fill:#ffffff;fill-opacity:1;fill-rule:nonzero;stroke:none;stroke-width:1.33333"
       id="path150062" />
    <path
       d="m 325.48533,138.19081 c 0.256,1.97733 1.35333,3.56 2.96133,4.268 l 5.772,-0.21067 c 1.33866,-1.10133 2.16533,-3.032 2.16533,-5.07867 0,-0.76666 -0.132,-1.51333 -0.392,-2.22533 -1.37467,-0.132 -2.68266,-0.21867 -3.896,-0.26 -0.572,0.20267 -1.296,0.292 -1.99733,0.376 -0.66267,0.08 -1.34933,0.164 -1.66533,0.332 l -0.268,0.144 c -1.14934,0.608 -1.63867,0.868 -2.68,2.65467 m 2.80133,5.14533 -0.088,-0.036 c -1.992,-0.82933 -3.33467,-2.756 -3.596,-5.15467 l -0.0147,-0.14133 0.0707,-0.12267 c 1.21467,-2.11733 1.884,-2.472 3.09867,-3.11466 l 0.26533,-0.14134 c 0.46,-0.24666 1.19333,-0.336 1.972,-0.42933 0.684,-0.0827 1.39067,-0.16933 1.87333,-0.356 l 0.0827,-0.032 0.0893,0.003 c 1.332,0.044 2.78,0.14266 4.304,0.292 l 0.26,0.0253 0.1,0.24267 c 0.36533,0.88933 0.55067,1.83066 0.55067,2.79866 0,2.36534 -1,4.608 -2.60934,5.852 l -0.11066,0.0853 z"
       style="fill:#000000;fill-opacity:1;fill-rule:nonzero;stroke:none;stroke-width:1.33333"
       id="path150066" />
    <path
       d="m 336.11159,134.86921 c 2.78667,0.52133 2.29867,1.592 2.29867,3.89066 0,2.29867 -2.32667,4.248 -2.32667,4.248 0.72667,-0.11466 1.80133,-0.41066 2.31733,-0.98533 0.23734,-0.26267 0.29734,-0.54267 0.60267,-0.77333 0.31333,-0.23734 0.69333,-0.376 1.032,-0.57067 0.61733,-0.356 1.26533,-0.892 1.664,-1.476 1.104,-1.62 1.28133,-3.49333 1.08667,-5.40267 -0.1,-0.988 -0.22,-2.52666 -1.23067,-3.04 -0.316,0.532 -0.31333,1.176 -0.67733,1.67467 -0.276,0.37867 -0.75734,0.63333 -1.17734,0.82 -0.464,0.20667 -0.78133,0.15733 -1.31333,0.10667 -1.932,-0.18 -3.87333,-0.26 -5.812,-0.26 -2.33466,0 -6.08533,1.852 -6.85866,2.34933 -0.772,0.496 -2.15067,3.972 -2.15067,3.972 0,0 2.26133,-2.924 3.64,-3.42 1.38,-0.49733 5.508,-1.76933 8.90533,-1.13333"
       style="fill:#000000;fill-opacity:1;fill-rule:nonzero;stroke:none;stroke-width:1.33333"
       id="path150070" />
    <path
       d="m 280.03306,134.98934 c 3.212,-1.156 -11.26533,0.104 -10.98933,8.78667 0.04,1.23866 0.68933,3.72 0.68933,3.72 0,0 2.548,-9.71734 10.3,-12.50667"
       style="fill:#000000;fill-opacity:1;fill-rule:nonzero;stroke:none;stroke-width:1.33333"
       id="path150074" />
    <path
       d="m 267.97399,153.21867 c 0,0 3.496,6.548 7.93467,6.43734 4.44,-0.112 12.48667,-4.66134 13.54,-5.54934 1.05467,-0.888 2.88533,-3.052 2.88533,-3.052 0,0 -6.38133,12.81867 -16.536,16.20267 0,0 6.88134,-5.49333 8.10134,-7.15733 0,0 -3.44,2.164 -8.656,2.38533 -5.216,0.22267 -10.15467,-8.76667 -11.376,-13.54 -1.22,-4.772 4.10666,4.27333 4.10666,4.27333"
       style="opacity:0.199997;fill:#000000;fill-opacity:1;fill-rule:nonzero;stroke:none;stroke-width:1.33333"
       id="path150092" />
    <path
       d="m 315.22013,115.74574 c -1.87734,2.12 -4.06534,5.09867 -0.916,6.96933 0.99466,0.59067 2.244,0.696 3.34,1.23467 1.092,0.53733 2.24266,0.896 3.444,1.392 0.13333,-2.592 -0.33334,-5.49333 -1.16667,-7.976 0.0307,0.90667 0.304,2.76533 -0.41333,3.74 -0.816,1.112 -2.04667,1.85867 -3.35067,1.10933 -2.18533,-1.25733 -1.864,-4.356 -0.93733,-6.46933"
       style="opacity:0.199997;fill:#000000;fill-opacity:1;fill-rule:nonzero;stroke:none;stroke-width:1.33333"
       id="path150108" />
    <path
       d="m 329.08279,119.44174 c 3.77067,-0.75733 7.548,0.248 11.06667,1.464 3.68,1.27333 3.62933,3.36133 3.44933,7.03733 -0.072,1.47467 0.48667,6.36667 -1.43333,7.00134 -1.056,0.348 -3.21334,-1.40667 -4.30667,-1.66934 0.58667,-1.02533 0.8,-1.304 0.48,-2.456 -0.40133,-1.44933 -0.64267,-2.472 -2.19333,-2.77466 -1.75467,-0.34134 -3.728,0.38933 -5.30133,1.10133 -0.836,0.37733 -1.50134,0.90667 -2.26267,1.36533 -0.63067,0.38134 -1.72667,0.60667 -2.228,1.13467 1.19867,-1.26133 2.736,-2.75067 4.22267,-3.876 0.936,-0.708 2.86133,-0.90133 3.42533,-2.016 0.80666,-1.59333 -1.56933,-3.00133 -2.59733,-3.788 -0.68134,-0.52 -4.212,-1.98533 -2.32134,-2.524"
       style="opacity:0.199997;fill:#000000;fill-opacity:1;fill-rule:nonzero;stroke:none;stroke-width:1.33333"
       id="path150132" />
    <path
       d="m 260.45399,117.41401 c 0.98267,6.972 -2.424,13.47466 -1.98133,20.43466 2.3,-6.31733 5.744,-14.036 1.98133,-20.43466"
       style="fill:#000000;fill-opacity:1;fill-rule:nonzero;stroke:none;stroke-width:1.33333"
       id="path150142" />
    <path
       d="m 278.46839,158.45294 c -2.59466,0.98933 -5.17333,-0.27467 -7.21333,-2.168 -2.064,-1.88133 -3.76933,-4.24 -5.23333,-6.70933 -1.50934,-2.464 -2.768,-4.60534 -2.272,-7.676 0.61466,-5.716 2.5,-11.39067 4.492,-16.808 1.05333,-2.72667 2.08933,-5.51067 3.8,-7.90934 -3.90134,4.46934 -6.01734,10.26534 -8.052,15.77867 -1.148,3.53733 -2.26267,7.26933 -2.22934,11.08933 -0.0453,2.33734 1.46134,4.59467 2.54534,6.552 1.57333,2.56667 3.35733,5.052 5.704,7.1 2.292,2.08667 5.89866,3.608 8.936,2.224 5.39466,-2.05333 11.55733,-4.82266 14.13466,-10.32266 -3.22266,4.98533 -9.232,7.07866 -14.612,8.84933"
       style="fill:#000000;fill-opacity:1;fill-rule:nonzero;stroke:none;stroke-width:1.33333"
       id="path150146" />
    <path
       d="m 286.64173,118.79174 c -9.5,2.952 -16.59467,13.04267 -21.03867,21.49867 6.30533,-7.764 12.092,-16.57467 21.03867,-21.49867"
       style="fill:#000000;fill-opacity:1;fill-rule:nonzero;stroke:none;stroke-width:1.33333"
       id="path150150" />
    <path
       d="m 269.16733,127.52934 c 2.948,-4.012 5.66933,-7.968 7.70266,-12.53067 -3.50933,3.48134 -6.42933,7.72534 -7.70266,12.53067"
       style="fill:#000000;fill-opacity:1;fill-rule:nonzero;stroke:none;stroke-width:1.33333"
       id="path150154" />
    <path
       d="m 295.05626,123.53294 c 1.55067,1.89733 2.77333,4.068 3.54267,6.52533 -0.0987,-6.172 -4.75334,-11.21333 -9.66134,-14.49866 -5.39066,-3.14267 -12.03866,-2.60934 -17.58666,-0.44667 3.81733,-0.42667 7.132,-0.49733 10.16133,0.0107 -3.97733,1.19466 -7.544,6.744 -8.78133,9.992 2.76,-2.96 5.052,-6.14934 8.18666,-8.61867 0.60534,-0.452 1.256,-0.844 1.968,-1.09867 0.6,0.14134 1.188,0.31334 1.768,0.508 -1.53466,0.6 -2.93333,2.00534 -3.52933,3.34534 1.968,-0.752 3.42933,-2.06267 5.268,-2.668 2.73333,1.23066 5.3,3.15733 7.89733,6.02666 -2.06533,-0.60533 -4.544,-0.06 -6.90133,0.92534 0.92533,-0.676 1.864,-1.33734 2.81733,-1.984 -8.21333,2.47066 -15.252,8.50133 -19.748,15.77733 -2.01466,1.88667 -3.65066,4.116 -4.72133,6.72267 0.936,-1.20134 1.95867,-2.288 3.04267,-3.29334 -0.67467,1.43067 -0.97067,2.99734 -0.63467,4.684 0.58667,2.53467 1.304,5.06267 2.91867,7.20134 2.71066,3.91466 8.308,4.34266 12.31333,2.84533 -2.84133,0.11867 -5.73867,-0.044 -8.02267,-1.328 -3.25733,-1.748 -4.45333,-5.72533 -5.316,-9.18267 -0.50533,-2.58133 0.752,-4.96 2.40134,-7.132 3.31066,-2.27066 7.008,-3.98933 10.82666,-5.44533 3.008,-0.432 6.088,-0.73067 8.71734,0.456 3.87733,2.26133 4.99066,5.52133 4.12933,10.06267 -0.45333,2.76 -1.31467,5.508 -2.12533,8.29733 1.544,-2.46133 2.83333,-5.1 3.62,-7.976 1.52666,-5.03067 0.096,-9.47067 -4.67334,-12.05333 -1.31733,-0.55467 -2.66266,-0.77867 -4.00933,-0.78 1.55867,-0.51467 3.11467,-1.01467 4.64933,-1.516 -6.16266,0.21066 -13.284,1.872 -18.96133,5.32933 2.93733,-2.71333 5.932,-5.33867 9.05333,-7.82667 3.60134,-1.38933 8.27867,-3.664 11.39067,-2.86133"
       style="fill:#000000;fill-opacity:1;fill-rule:nonzero;stroke:none;stroke-width:1.33333"
       id="path150158" />
    <path
       d="m 279.99666,150.08787 c -3.86533,-1.23333 -6.19333,-4.09333 -8.02133,-7.672 -0.148,4.15867 3.692,8.46267 8.02133,7.672"
       style="fill:#000000;fill-opacity:1;fill-rule:nonzero;stroke:none;stroke-width:1.33333"
       id="path150162" />
    <path
       d="m 326.73386,147.43587 c 3.624,0.40667 7.38133,0.572 10.83466,-0.816 0.55734,-0.312 0.88,-0.74666 1.15334,-1.12266 1.17866,-1.83467 1.96133,-3.90667 2.32933,-6.05467 0.36933,-2.14667 -1.224,-0.22 -1.516,0.69733 -0.57867,1.82134 -0.94133,4.032 -2.66533,5.19067 -3.29867,1.132 -6.984,1.19467 -10.47867,1.81467 -0.89733,-0.74267 -1.756,-1.65467 -2.59333,-2.76267 0.332,-2.42267 0.696,-5.00533 1.37067,-7.45733 3.42666,-3.40267 7.07066,-6.27067 11.63066,-8.068 -4.22666,-0.0573 -8.20133,2.30533 -10.82,5.632 0.96934,-2.452 2.388,-4.644 4.59334,-6.22267 1.73733,-0.932 3.87999,-1.432 5.96533,-1.89333 -10.39867,-1.40534 -13.992,9.204 -12.91867,17.75733 -0.86666,-1.17733 -1.72,-2.536 -2.58666,-4.09467 1.28666,6.22934 6.74666,12.788 13.70399,10.19734 2.04134,-0.636 3.88934,-1.708 5.46267,-3.06667 -6.07067,2.85067 -10.092,2.84533 -13.46533,0.26933"
       style="fill:#000000;fill-opacity:1;fill-rule:nonzero;stroke:none;stroke-width:1.33333"
       id="path150166" />
    <path
       d="m 337.94266,143.49054 c 1.016,-0.872 1.89466,-2.13067 1.76933,-3.53867 -1.40133,1.33334 -2.66667,2.34267 -4.08533,3.46667 -0.46934,0.37867 -0.95734,0.75467 -1.444,1.264 1.38,0.15867 2.692,-0.36533 3.76,-1.192"
       style="fill:#000000;fill-opacity:1;fill-rule:nonzero;stroke:none;stroke-width:1.33333"
       id="path150170" />
    <path
       d="m 345.01319,130.97014 c 1.86933,-4.79867 2.86133,-11.43067 -0.49867,-15.58267 0.69067,2.34 0.796,4.71734 0.708,7.108 -0.91866,-3.636 -3.25066,-6.88266 -6.98533,-7.892 3.028,2.18 4.73333,5.24267 5.652,8.596 -0.18533,-0.32 -0.40133,-0.62533 -0.68267,-0.89733 -3.176,-2.77067 -7.52666,-3.424 -11.50799,-3.12133 2.66133,0.52533 5.19866,1.43066 7.53733,2.71733 1.04933,0.62 2.07066,1.228 2.64,2.25467 0.396,1.224 0.53733,2.496 0.572,3.788 -0.35867,-1.17334 -0.884,-2.29067 -1.64267,-3.31067 -1.36667,-1.77467 -3.616,-2.61067 -5.69467,-3.08667 7.124,3.35334 6.604,8.776 6.26,15.68667 -0.012,2.148 -0.616,4.096 -0.968,6.19867 0.444,-0.97467 0.90934,-1.91067 1.34267,-2.912 0.20133,-0.712 0.39067,-1.45334 0.564,-2.21067 0.18133,3.54 0.33333,7.088 -1.64667,10.09733 -0.85466,1.332 -2.89466,2.06134 -3.82533,3.73067 1.356,-1.26667 3.244,-1.39733 4.80533,-2.86267 1.40134,-1.43733 2.28134,-3.288 2.692,-5.20266 0.632,-2.752 0.444,-5.616 0.48267,-8.348 0.052,-1.57734 0.15867,-3.15867 0.196,-4.75067"
       style="fill:#000000;fill-opacity:1;fill-rule:nonzero;stroke:none;stroke-width:1.33333"
       id="path150174" />
    <path
       d="m 303.84959,133.57467 c -1.69066,2.34667 -3.44933,4.90667 -3.93066,7.83734 3.29466,-4.43467 6.65733,-9.78934 10.71466,-13.40667 -2.88133,0.82667 -5.09466,3.22667 -6.784,5.56933"
       style="fill:#000000;fill-opacity:1;fill-rule:nonzero;stroke:none;stroke-width:1.33333"
       id="path150178" />
    <path
       d="m 331.69826,116.04121 c -7.80933,2.172 -11.64667,11.008 -12.38667,18.50266 -0.772,-3.00133 -2.81066,-5.724 -5.268,-7.51733 1.87734,3.896 4.08534,7.39067 5.492,11.50933 0.20267,-1.29733 0.11334,-2.592 -0.18933,-3.84266 2.75867,-6.988 5.636,-14.576 12.352,-18.652"
       style="fill:#000000;fill-opacity:1;fill-rule:nonzero;stroke:none;stroke-width:1.33333"
       id="path150182" />
    <path
       d="m 318.48293,132.66041 c -0.156,2.00266 0.34933,3.80133 0.52533,5.67866 0.33467,3.58267 1.66133,8.192 3.40133,11.30934 0.99067,1.77466 2.788,4.09466 4.56,5.09333 -0.50266,-1.92 3.50134,-2.17733 4.856,-3.14667 -0.70533,-1.232 -2.73066,-2.164 -3.86933,-3.06666 -1.108,-0.87867 -2.37067,-1.73334 -3.384,-2.668 -4.64133,-4.276 -0.936,-11.96267 1.09733,-16.59334 -1.71866,1.024 -3.36266,3.56267 -4.408,5.27467 -0.21333,-1.80667 1.34934,-4.46267 2.26267,-5.94533 0.87333,-1.416 2.02933,-2.616 3.57867,-3.27334 0.7,-0.29733 3.92533,-1.45733 4.58133,-1.04266 -1.56667,-0.988 -3.34933,-1.87734 -5.28267,-1.7 -1.832,0.168 -3.86266,1.31466 -5.16133,2.60666 -1.68267,1.67467 -2.57867,5.17467 -2.75733,7.47334"
       style="opacity:0.199997;fill:#000000;fill-opacity:1;fill-rule:nonzero;stroke:none;stroke-width:1.33333"
       id="path150192" />
  </g>
  <g
     inkscape:groupmode="layer"
     id="layer3"
     inkscape:label="Brows"
     style="display:inline">
    <path
       d="m 345.56079,108.43667 c -0.88267,0.63734 -2.236,0.528 -3.26133,0.664 -1.18934,0.15734 -2.14934,0.56134 -3.268,0.92267 -3.63867,1.17333 -8.85867,0.82 -11.58,3.97733 -1.2,1.39334 -1.904,3.31067 -3.52267,4.32934 -1.52266,0.95733 -1.632,-0.67334 -1.49066,-1.80667 0.23733,-1.9 1.21866,-3.112 2.39866,-4.568 0.88934,-1.09733 1.81467,-2.044 2.62134,-3.196 0.84533,-1.20667 1.76666,-2.42667 2.69733,-3.56 1.52533,-1.85867 3.44133,-3.26667 5.296,-4.71467 -1.01067,0.86 -1.57334,1.924 -2.43867,2.88934 -0.65066,0.72533 -1.564,1.424 -2.00666,2.276 2.70933,-1.67067 5.04666,-3.92 7.14133,-6.313336 1.168,-1.333333 2.17333,-2.302666 4.00666,-2.185333 -0.45066,0.492 -1.148,0.797333 -1.67866,1.198667 -0.828,0.626666 -1.62267,1.217333 -2.3,2.026662 -0.47067,0.564 -0.78267,1.25067 -1.25467,1.804 0.832,-0.604 1.98533,-1.156 2.92267,-1.54666 0.41733,-0.17467 0.86533,-0.25334 1.31333,-0.272 1.36533,-0.056 2.53867,0.31866 3.78933,0.81066 0.916,0.36 1.292,0.96534 1.584,1.924 0.488,1.60934 0.568,4.22934 -0.96933,5.34"
       style="opacity:0.199997;fill:#000000;fill-opacity:1;fill-rule:nonzero;stroke:none;stroke-width:1.33333"
       id="path149972" />
    <path
       d="m 260.94626,118.39547 c -1.352,-0.032 -3.41867,-1.77066 -4.49733,-2.48 -2.49867,-1.64666 -2.42667,-3.05866 -2.43467,-5.85333 -0.005,-2.09067 0.344,-4.15733 0.576,-6.22933 0.0973,-0.85867 0.009,-1.85734 0.34267,-2.66 0.316,-0.764 0.904,-1.452002 1.52,-1.993336 0.86,-0.754666 1.58266,-0.830666 2.66266,-1.134666 -1.012,-0.310667 -2.088,-0.449334 -3.14666,-0.498667 -0.41467,-0.01867 -0.96,-0.084 -1.32267,0.101333 -0.72667,0.369334 -1.26,1.592 -1.64933,2.266667 0.22533,-1.365333 0.84266,-2.852 2.21866,-3.397333 1.57734,-0.625334 3.516,-0.01733 5.092,0.309333 1.584,0.329333 3.144,0.794667 4.688,1.273333 1.33734,0.414667 2.532,0.941334 3.96,1.114667 -0.50133,-0.744 -1.78666,-1.164 -2.57333,-1.62 -0.63067,-0.365333 -1.27733,-0.649333 -1.90133,-1.070667 -0.61467,-0.416 -0.972,-1.125333 -1.576,-1.532 -0.62667,-0.424 -1.44667,-0.553333 -2.08534,-0.912 1.57067,0.317334 3.34534,0.801334 4.69067,1.708 0.864,0.584 1.64133,1.241334 2.45867,1.889334 2.00266,1.588 4.39866,1.861333 6.752,2.709332 0.77733,0.28 1.428,0.80533 2.136,1.112 -0.35867,-0.82667 -0.956,-1.546666 -1.70934,-2.038666 0.692,0.185334 1.60267,0.614666 2.232,0.987996 0.564,0.33334 0.84667,0.90534 1.27867,1.368 0.45333,0.48667 0.90133,0.9 1.30267,1.43734 0.42666,0.57066 0.68,0.908 1.32,1.17333 0.61333,0.25333 1.14666,0.636 1.67066,1.04667 0.75734,0.59066 2.04134,1.61066 1.80267,2.728 -0.22667,1.056 -1.22,0.52933 -2.156,0.65333 -2.308,0.30267 -4.77867,0.388 -7.088,0.776 -3.24133,0.54533 -6.57067,1.744 -8.644,4.292 -1.58667,1.94933 -2.772,4.24533 -4.51067,6.164 -0.15066,-0.332 -0.45866,-0.33067 -1.40933,-1.69067"
       style="opacity:0.199997;fill:#000000;fill-opacity:1;fill-rule:nonzero;stroke:none;stroke-width:1.33333"
       id="path149988" />
    <path
       d="m 299.92906,132.53841 c -0.196,-0.0133 -0.37733,-0.112 -0.49467,-0.27067 -0.0467,-0.064 -0.10133,-0.14533 -0.16266,-0.24667 -0.81467,-1.34666 -1.13734,-2.98933 -1.48,-4.728 -0.30667,-1.568 -0.79467,-3.63866 -1.232,-4.536 -0.87467,-1.79333 -3.904,-6.22933 -7.40267,-8.05733 -0.69733,-0.36533 -1.34267,-0.69067 -1.98533,-0.98533 -1.33334,-0.608 -2.564,-1.63467 -3.98934,-1.984 -2.01733,-0.496 -4.716,-0.66534 -6.31066,-0.66534 -3.18934,0 -7.204,0.88134 -9.868,3.30534 -1.856,1.69066 -2.20534,3.06533 -2.688,4.968 -0.104,0.408 -0.192,0.75866 -0.29734,1.13733 -0.0413,0.15067 -0.136,0.284 -0.26533,0.372 -0.21733,0.14933 -0.89067,0.38533 -1.768,0.38533 -0.55733,0 -1.08667,-0.10133 -1.34933,-0.25866 -0.0547,-0.0333 -0.104,-0.0747 -0.14667,-0.12134 -0.376,-0.41066 -0.732,-1.228 -1.108,-2.09333 -0.148,-0.34133 -0.29333,-0.67867 -0.452,-1.00667 -0.0587,-0.12533 -0.0773,-0.26266 -0.056,-0.39333 l -0.63867,-2.06933 c -0.08,-0.25867 0.004,-0.54134 0.21467,-0.71334 0.12133,-0.0987 0.272,-0.14933 0.42267,-0.14933 0.10933,0 0.22,0.0267 0.32,0.0813 l 0.36666,0.2 -0.12933,-1.26133 c -0.06,-0.588 -0.22133,-1.14267 -0.376,-1.67867 l -0.068,-0.232 c -0.0573,-0.20133 -0.0173,-0.41733 0.10933,-0.584 0.12534,-0.16666 0.32267,-0.26533 0.532,-0.26533 h 0.53867 l 0.0413,-0.63333 c 0.0173,-0.27067 0.0147,-0.57067 0.005,-0.88 -0.007,-0.24934 0.12666,-0.484 0.34533,-0.604 0.1,-0.0547 0.21067,-0.0827 0.32133,-0.0827 0.132,0 0.26134,0.0387 0.37467,0.116 0.22933,0.156 0.49333,0.29467 0.78533,0.41333 l 0.852,0.34934 0.0667,-0.91734 0.0333,-0.59333 c 0.0147,-0.284 0.0293,-0.55733 0.0533,-0.812 0.024,-0.248 0.184,-0.46267 0.41333,-0.556 0.0813,-0.032 0.16667,-0.048 0.25067,-0.048 0.156,0 0.31066,0.0547 0.43333,0.16 l 0.79333,0.67867 c 0.032,-0.264 0.21734,-0.48534 0.47467,-0.56134 0.0627,-0.0173 0.12533,-0.0267 0.188,-0.0267 0.208,0 0.40933,0.0987 0.536,0.27066 0.40133,0.544 0.88267,0.9 1.47333,1.08667 l 0.908,0.28667 -0.0413,-0.952 c -0.048,-1.11067 0.32533,-2.08267 0.67867,-2.90667 0.0853,-0.19867 0.26133,-0.344 0.47333,-0.388 0.0467,-0.0107 0.0933,-0.016 0.13867,-0.016 0.16666,0 0.328,0.0627 0.452,0.17733 0.132,0.12267 0.27066,0.224 0.42266,0.312 l 0.496,0.28934 0.35867,-0.44934 c 0.11333,-0.14 0.22,-0.31333 0.32,-0.51733 0.10133,-0.21067 0.30667,-0.352 0.54,-0.37333 0.02,-0.001 0.04,-0.003 0.0587,-0.003 0.212,0 0.41333,0.10133 0.54,0.27467 0.27066,0.37333 0.54533,0.73466 0.81733,1.092 0.27467,0.36 0.55333,0.728 0.83333,1.112 l 1.032,1.416 c 0.088,-0.89467 0.176,-1.808 0.18134,-1.85467 0.024,-0.27067 0.21066,-0.5 0.47066,-0.57867 0.064,-0.0187 0.12934,-0.028 0.19334,-0.028 0.19866,0 0.39066,0.088 0.51866,0.24667 0.29334,0.36533 0.59867,0.65733 0.93067,0.89333 l 0.72933,0.51467 0.288,-0.844 c 0.0253,-0.0747 0.0467,-0.148 0.0653,-0.22133 0.044,-0.17734 0.15866,-0.328 0.31733,-0.41867 0.10133,-0.0573 0.21467,-0.0867 0.32933,-0.0867 0.064,0 0.12934,0.009 0.192,0.028 l 0.65467,0.19734 c 0.0173,0.003 0.072,0.009 0.128,0.009 0.15867,0 0.30533,-0.048 0.464,-0.152 0.11067,-0.0707 0.23733,-0.108 0.364,-0.108 0.112,0 0.22267,0.028 0.324,0.084 0.216,0.12 0.348,0.34933 0.34267,0.596 -0.007,0.36267 0.0893,0.65467 0.17466,0.912 l 0.328,0.992 0.79467,-0.62267 c 0.0627,-0.0493 0.13467,-0.0907 0.20667,-0.13066 0.12133,-0.068 0.20533,-0.116 0.28666,-0.168 0.11867,-0.0773 0.23734,-0.20134 0.364,-0.33067 l 0.12134,-0.12533 c 0.128,-0.12667 0.29866,-0.19467 0.472,-0.19467 0.0827,0 0.16533,0.0147 0.24533,0.0467 0.24667,0.0973 0.412,0.33333 0.42,0.59866 0.008,0.224 0.016,0.45467 0.016,0.68667 0.38,-0.24667 0.74933,-0.52 1.02,-0.78267 0.12533,-0.12133 0.29333,-0.188 0.46267,-0.188 0.0613,0 0.12133,0.009 0.18133,0.0253 0.22933,0.064 0.40533,0.24533 0.46533,0.476 0.192,0.74933 0.24934,1.65866 0.272,2.49866 0.49334,-0.18933 0.892,-0.43466 1.12,-0.83466 0.12,-0.212 0.344,-0.336 0.57867,-0.336 0.06,0 0.12,0.007 0.17867,0.024 0.29466,0.0813 0.496,0.352 0.488,0.65733 0,0 -0.0147,0.37867 -0.0173,0.41333 0.37867,-0.0813 0.74934,-0.34133 1.156,-0.648 0.11734,-0.088 0.25867,-0.13333 0.40134,-0.13333 0.072,0 0.14666,0.012 0.21733,0.036 0.20933,0.072 0.36933,0.244 0.42667,0.45867 l 0.216,0.776 c 0.24533,0.85866 0.496,1.73866 0.60933,2.64533 0.14267,-0.0813 0.26667,-0.15333 0.33333,-0.19467 0.24,-0.144 0.456,-0.29866 0.652,-0.46133 0.12134,-0.10133 0.27334,-0.15467 0.42534,-0.15467 0.0893,0 0.17866,0.0187 0.264,0.056 0.22933,0.0987 0.38533,0.31734 0.40133,0.568 0.005,0.0853 0.06,1.272 0.10267,2.18267 0.0573,0.0133 0.11466,0.0333 0.16933,0.0613 0.22933,0.12 0.368,0.36 0.35867,0.616 l 0.0827,-0.0867 c 0.12667,-0.13334 0.30134,-0.20667 0.48134,-0.20667 0.0507,0 0.10266,0.005 0.15333,0.0173 0.22933,0.0547 0.41467,0.22667 0.484,0.45334 0.016,0.0493 0.13867,0.408 0.25333,0.73733 l 0.58934,-0.14533 c 0.54933,-0.13467 1.11333,-0.5 1.67733,-1.08267 0.128,-0.132 0.30267,-0.20267 0.47867,-0.20267 0.08,0 0.16,0.0147 0.23733,0.044 0.24933,0.0947 0.41867,0.328 0.42933,0.59467 l 0.0187,0.44 c 0.0547,1.08533 0.32933,1.58 0.57333,2.01733 l 0.34267,0.63334 c 0.252,0.45333 0.45333,0.81466 0.54,1.45333 0.0293,0.216 0.044,0.44667 0.056,0.676 0.024,0.392 0.0453,0.724 0.096,1.00933 0.0347,0.19467 0.124,0.35734 0.228,0.53467 0.124,0.21333 0.12,0.48 -0.0107,0.69067 -0.156,0.248 -0.34933,0.556 -0.42266,0.94666 -0.12934,0.692 -0.0453,1.43867 0.028,2.1 0.0507,0.45867 0.0973,0.89334 0.088,1.27067 -0.0387,1.50267 -0.312,2.65867 -0.86267,3.64133 -0.46667,0.83334 -0.83467,1.38667 -1.12667,1.692 -0.12666,0.132 -0.30133,0.20667 -0.48266,0.20667 -0.0147,0 -0.028,-0.001 -0.0427,-0.001"
       style="fill:#383838;fill-opacity:1;fill-rule:nonzero;stroke:none;stroke-width:1.33333"
       id="path150078" />
    <path
       d="m 299.97226,131.87334 c 0.20267,-0.212 0.52267,-0.65733 1.028,-1.55867 0.496,-0.884 0.74267,-1.94266 0.77733,-3.33066 0.008,-0.352 -0.036,-0.75467 -0.084,-1.18134 -0.08,-0.70666 -0.16933,-1.50666 -0.0213,-2.296 0.0973,-0.51333 0.33733,-0.89733 0.51333,-1.17866 -0.12,-0.204 -0.252,-0.44267 -0.308,-0.75334 -0.056,-0.30933 -0.08,-0.668 -0.10133,-1.03466 -0.0147,-0.228 -0.0267,-0.46134 -0.056,-0.67734 -0.0693,-0.51466 -0.21867,-0.78133 -0.46533,-1.22533 l -0.33867,-0.62667 c -0.26533,-0.47733 -0.59467,-1.07066 -0.65733,-2.31333 l -0.0187,-0.44133 c -0.57467,0.59466 -1.24667,1.08133 -1.996,1.26666 l -1.18267,0.292 c 0,0 -0.43866,-1.27466 -0.45733,-1.336 l -1.45867,1.532 0.228,-1.92933 -0.47866,0.42667 c 0,0 -0.14267,-3.07867 -0.15067,-3.21867 -0.22133,0.18267 -0.464,0.356 -0.732,0.51867 -0.1,0.06 -1.28533,0.75733 -1.284,0.676 0.0227,-1.464 -0.49733,-2.928 -0.86533,-4.30267 -0.46534,0.35067 -0.976,0.71867 -1.572,0.79467 -0.79867,0.10266 -0.652,-0.33467 -0.63334,-1.108 -0.48666,0.85733 -1.452,1.16 -2.35066,1.412 -0.0133,-1.00267 -0.0227,-2.28934 -0.26667,-3.24 -0.58267,0.564 -1.564,1.176 -2.284,1.524 0.16533,-0.60134 0.14,-1.268 0.11867,-1.88534 -0.18534,0.18534 -0.36534,0.39334 -0.59334,0.54134 -0.092,0.0613 -0.18933,0.11733 -0.28533,0.172 -0.0547,0.0307 -0.11333,0.0587 -0.16,0.0947 l -1.54,1.20667 -0.62667,-1.892 c -0.0933,-0.284 -0.21733,-0.65867 -0.208,-1.13467 -0.224,0.14667 -0.496,0.26 -0.828,0.26 -0.10666,0 -0.21333,-0.012 -0.32,-0.0373 l -0.65466,-0.19733 c -0.0227,0.0907 -0.0493,0.18133 -0.0813,0.27466 l -0.57466,1.68934 -1.45734,-1.03067 c -0.41866,-0.296 -0.76666,-0.64533 -1.06666,-1.01867 -0.003,0.04 -0.34934,3.60534 -0.34934,3.60534 l -2.06533,-2.832 c -0.27733,-0.38 -0.55333,-0.744 -0.82533,-1.10134 -0.27467,-0.36133 -0.552,-0.72666 -0.82667,-1.104 -0.11333,0.23467 -0.24533,0.45334 -0.39867,0.644 l -0.71866,0.89734 -0.992,-0.57867 c -0.20267,-0.11733 -0.38,-0.252 -0.53867,-0.39867 -0.38,0.88667 -0.664,1.704 -0.62533,2.61467 l 0.084,1.904 -1.81734,-0.57467 c -0.79733,-0.252 -1.37466,-0.736 -1.808,-1.32533 l -0.0867,1.292 -1.80267,-1.54267 c -0.024,0.248 -0.0373,0.51334 -0.052,0.78934 l -0.0347,0.60133 -0.132,1.836 -1.704,-0.69867 c -0.35066,-0.14266 -0.64933,-0.304 -0.90666,-0.48 0.009,0.33067 0.0107,0.64934 -0.007,0.944 l -0.084,1.256 h -1.16133 c 0.02,0.0707 0.04,0.144 0.0627,0.21734 0.16534,0.568 0.336,1.156 0.40267,1.808 l 0.25867,2.524 -1.48,-0.80934 0.744,2.40667 -0.084,-0.036 c 0.16133,0.336 0.31066,0.68133 0.45866,1.02 0.33867,0.78133 0.68934,1.588 0.99067,1.91733 0.0893,0.0533 0.45067,0.16534 1.004,0.16534 0.8,0 1.32267,-0.22267 1.392,-0.26934 0.11067,-0.40266 0.20533,-0.77466 0.29333,-1.12266 0.492,-1.94134 0.88134,-3.47334 2.88667,-5.29867 2.788,-2.53733 6.98933,-3.348 10.316,-3.348 1.64667,0 5.11867,0.73467 7.20133,1.24533 1.48134,0.364 2.75867,1.40267 4.13867,2.03334 0.652,0.29866 0.616,0.10933 1.32667,0.48 3.59333,1.87866 6.484,6.43066 7.39066,8.28933 0.46134,0.94533 1.20134,2.97733 1.516,4.58267 0.33067,1.68133 0.64267,3.26933 1.396,4.51733 0.0493,0.08 0.0933,0.144 0.13067,0.196 m -12.62267,-17.33733 c -1.17866,-0.53734 -2.348,-1.52134 -3.84133,-1.888 -4.89067,-1.20134 -11.556,-0.88 -15.532,2.73866 -2.032,1.84934 -2.07733,3.19467 -2.79067,5.788 -0.40933,1.484 -3.81066,1.536 -4.57866,0.73067 -0.992,-1.04133 -1.48934,-3.25733 -2.42934,-4.50133 -0.50533,-0.66934 -1.164,-1.276 -1.236,-2.144 0.332,0.23866 0.73734,0.24933 1.07067,0.39733 -0.376,-1.19867 -1.58267,-2.58267 -1.48133,-3.81467 0.84533,1.85067 1.196,1.34134 2.75866,2.196 -0.16,-1.552 -1.13733,-2.98533 -0.55466,-4.67333 0.25866,0.57467 0.62266,1.18533 1.33066,1.17867 0.08,-1.36267 -0.32666,-3.264 0.396,-4.38 0.75067,1.27866 0.92667,2.176 2.35334,2.76133 0.0907,-1.26667 0.0147,-2.60667 0.88933,-3.57733 0.388,0.32533 0.77867,0.74266 1.17733,1.08266 0.084,-1.25333 0.172,-2.49333 0.60534,-3.62266 0.844,1.45866 0.89333,4.51066 2.844,5.12666 -0.0907,-2.052 1.03733,-3.58666 1.67466,-5.45733 0.46534,0.63733 0.75467,1.60133 1.49067,2.03067 0.55067,-0.68534 0.76133,-2.248 0.95467,-3.13867 0.876,1.81733 2.03866,3.13467 3.21466,4.748 0.14267,-1.47467 -0.372,-2.80933 -0.009,-4.224 1.296,1.11333 1.748,3.15067 3.18267,4.16667 0.31333,-0.92267 -0.0907,-2.00934 0.29333,-2.924 0.009,-0.0227 1.308,0.81866 1.404,0.91466 0.28,0.27734 0.28533,0.67734 0.544,0.952 0.0307,0.0333 0.009,0.0987 0.0667,0.112 0.096,0.0227 0.404,-0.30533 0.452,-0.34666 0.80533,-0.69734 1.664,-1.3 2.59866,-1.77867 -0.0147,0.20667 -0.14266,0.42933 -0.20933,0.62667 -0.10267,0.30666 -0.21733,0.612 -0.31867,0.91866 -0.16266,0.496 -0.29066,1.06 -0.34533,1.58 -0.0347,0.328 0.0707,0.59334 0.16533,0.884 0.17734,-0.152 0.392,-0.24533 0.58667,-0.372 0.31733,-0.20666 0.60533,-0.51466 0.86933,-0.78533 0.22267,-0.22933 0.45067,-0.47867 0.61067,-0.756 -0.0107,0.724 0.0493,1.52667 -0.17467,2.21733 0.0213,-0.0653 0.35067,-0.196 0.41867,-0.23866 0.164,-0.10267 0.31733,-0.21467 0.468,-0.336 0.25867,-0.20934 0.48,-0.37734 0.69467,-0.64267 0.204,-0.25333 0.94133,-1.08267 0.57466,-1.43733 0.876,0.84666 1.29734,2.62133 1.23334,3.86666 0.92533,-1.028 1.248,-1.98666 1.66,-3.312 0.86666,0.58534 0.712,2.824 0.948,3.816 0.62133,-0.528 1.18133,-1.18933 1.54266,-1.924 0.25334,1.76134 0.87067,3.324 0.924,5.09467 1.31067,-0.79333 1.84134,-1.92533 2.49067,-3.268 0.008,1.4 0.22267,2.84667 0.28667,4.25067 0.17866,-0.16134 0.58266,-0.29067 0.78533,-0.5 -0.048,0.31733 0.0893,0.728 0.052,1.04666 0.11867,-0.12266 0.352,-0.24533 0.492,-0.38933 0.212,0.80267 0.23467,1.66667 0.496,2.42133 1.388,-0.34266 2.796,-2.74266 3.26267,-3.91466 0.32933,1.44533 0.33066,2.83866 0.404,4.31866 0.0547,1.11067 0.33733,1.42667 0.62666,1.984 0.352,0.676 0.69467,1.12134 0.82267,2.068 0.0733,0.54134 0.0613,1.172 0.14933,1.65734 0.048,0.272 0.47334,0.38 0.47734,0.75866 0.007,0.65734 -0.572,1.05334 -0.68534,1.65334 -0.18933,1.008 0.156,2.188 0.128,3.26533 -0.036,1.39467 -0.26266,2.72667 -0.94666,3.948 -0.90534,1.616 -2.14,3.59067 -3.46267,1.4 -1.644,-2.72267 -1.828,-7.81333 -2.712,-9.628 -0.964,-1.97733 -4.328,-6.24933 -7.21067,-7.75733 -0.688,-0.35867 -1.32133,-0.68 -1.952,-0.968"
       style="fill:#000000;fill-opacity:1;fill-rule:nonzero;stroke:none;stroke-width:1.33333"
       id="path150082" />
    <path
       d="m 318.63946,132.53841 c 0.15333,-0.0133 0.31067,-0.112 0.432,-0.27067 0.0493,-0.064 0.10667,-0.14533 0.17467,-0.24667 0.892,-1.34666 1.46933,-2.98933 2.08,-4.728 0.55066,-1.568 1.34,-3.63866 1.85466,-4.536 1.028,-1.79333 4.23334,-6.22933 7.272,-8.05733 0.60667,-0.36533 1.16534,-0.69067 1.71467,-0.98533 1.14133,-0.608 2.28666,-1.63467 3.44666,-1.984 1.64,-0.496 3.73467,-0.66534 4.952,-0.66534 2.436,0 5.324,0.88134 6.86934,3.30534 1.07866,1.69066 1.068,3.06533 1.05333,4.968 -0.003,0.408 -0.005,0.75866 -10e-4,1.13733 10e-4,0.15067 0.0467,0.284 0.128,0.372 0.136,0.14933 0.60133,0.38533 1.272,0.38533 0.42533,0 0.85066,-0.10133 1.08266,-0.25866 0.048,-0.0333 0.0933,-0.0747 0.136,-0.12134 0.36934,-0.41066 0.80534,-1.228 1.268,-2.09333 0.18134,-0.34133 0.36,-0.67867 0.54667,-1.00667 0.0707,-0.12533 0.112,-0.26266 0.12267,-0.39333 l 0.904,-2.06933 c 0.11333,-0.25867 0.10533,-0.54134 -0.0213,-0.71334 -0.0733,-0.0987 -0.17733,-0.14933 -0.292,-0.14933 -0.084,0 -0.17333,0.0267 -0.26133,0.0813 l -0.32,0.2 0.35333,-1.26133 c 0.164,-0.588 0.39867,-1.14267 0.624,-1.67867 l 0.0987,-0.232 c 0.084,-0.20133 0.0973,-0.41733 0.0347,-0.584 -0.0627,-0.16666 -0.19334,-0.26533 -0.35334,-0.26533 h -0.41066 l 0.0947,-0.63333 c 0.0427,-0.27067 0.104,-0.57067 0.17334,-0.88 0.056,-0.24934 10e-4,-0.484 -0.14267,-0.604 -0.0653,-0.0547 -0.144,-0.0827 -0.228,-0.0827 -0.1,0 -0.208,0.0387 -0.30933,0.116 -0.20667,0.156 -0.436,0.29467 -0.68267,0.41333 l -0.72133,0.34934 0.13466,-0.91734 0.092,-0.59333 c 0.0467,-0.284 0.0907,-0.55733 0.12267,-0.812 0.032,-0.248 -0.0467,-0.46267 -0.204,-0.556 -0.0547,-0.032 -0.116,-0.048 -0.18,-0.048 -0.12,0 -0.248,0.0547 -0.364,0.16 l -0.74267,0.67867 c 0.0293,-0.264 -0.068,-0.48534 -0.24933,-0.56134 -0.044,-0.0173 -0.0893,-0.0267 -0.13733,-0.0267 -0.16,0 -0.332,0.0987 -0.464,0.27066 -0.416,0.544 -0.856,0.9 -1.344,1.08667 l -0.75067,0.28667 0.22267,-0.952 c 0.26,-1.11067 0.17066,-2.08267 0.0667,-2.90667 -0.0253,-0.19867 -0.13066,-0.344 -0.28266,-0.388 -0.0333,-0.0107 -0.068,-0.016 -0.104,-0.016 -0.12667,0 -0.26267,0.0627 -0.38,0.17733 -0.12534,0.12267 -0.252,0.224 -0.38534,0.312 l -0.43733,0.28934 -0.184,-0.44934 c -0.0573,-0.14 -0.104,-0.31333 -0.13867,-0.51733 -0.036,-0.21067 -0.164,-0.352 -0.33733,-0.37333 -0.016,-0.001 -0.0307,-0.003 -0.0453,-0.003 -0.16134,0 -0.336,0.10133 -0.46667,0.27467 -0.28267,0.37333 -0.56533,0.73466 -0.844,1.092 -0.28267,0.36 -0.56933,0.728 -0.86133,1.112 l -1.072,1.416 c 0.11333,-0.89467 0.22933,-1.808 0.236,-1.85467 0.0347,-0.27067 -0.0613,-0.5 -0.244,-0.57867 -0.0453,-0.0187 -0.0933,-0.028 -0.14267,-0.028 -0.15067,0 -0.31467,0.088 -0.44533,0.24667 -0.29734,0.36533 -0.58934,0.65733 -0.89067,0.89333 l -0.66,0.51467 -0.0507,-0.844 c -0.004,-0.0747 -0.005,-0.148 -0.004,-0.22133 0.001,-0.17734 -0.056,-0.328 -0.15866,-0.41867 -0.0653,-0.0573 -0.14667,-0.0867 -0.23334,-0.0867 -0.0493,0 -0.10133,0.009 -0.15333,0.028 l -0.54,0.19734 c -0.0133,0.003 -0.056,0.009 -0.0987,0.009 -0.12133,0 -0.224,-0.048 -0.324,-0.152 -0.0707,-0.0707 -0.16,-0.108 -0.25733,-0.108 -0.084,0 -0.17467,0.028 -0.264,0.084 -0.188,0.12 -0.336,0.34933 -0.38133,0.596 -0.0667,0.36267 -0.19867,0.65467 -0.316,0.912 l -0.45067,0.992 -0.48133,-0.62267 c -0.0387,-0.0493 -0.084,-0.0907 -0.132,-0.13066 -0.0787,-0.068 -0.132,-0.116 -0.184,-0.168 -0.0747,-0.0773 -0.14134,-0.20134 -0.212,-0.33067 l -0.068,-0.12533 c -0.072,-0.12667 -0.188,-0.19467 -0.32,-0.19467 -0.064,0 -0.12934,0.0147 -0.19734,0.0467 -0.208,0.0973 -0.38133,0.33333 -0.44133,0.59866 -0.052,0.224 -0.10267,0.45467 -0.14933,0.68667 -0.24134,-0.24667 -0.468,-0.52 -0.62267,-0.78267 -0.0707,-0.12133 -0.18533,-0.188 -0.316,-0.188 -0.0453,0 -0.0933,0.009 -0.14267,0.0253 -0.188,0.064 -0.35866,0.24533 -0.45066,0.476 -0.29867,0.74933 -0.524,1.65866 -0.71067,2.49866 -0.33866,-0.18933 -0.59466,-0.43466 -0.68666,-0.83466 -0.0493,-0.212 -0.196,-0.336 -0.37467,-0.336 -0.0453,0 -0.0933,0.007 -0.14133,0.024 -0.24134,0.0813 -0.44934,0.352 -0.50534,0.65733 0,0 -0.064,0.37867 -0.0693,0.41333 -0.27333,-0.0813 -0.504,-0.34133 -0.75333,-0.648 -0.072,-0.088 -0.16934,-0.13333 -0.27867,-0.13333 -0.056,0 -0.11467,0.012 -0.17333,0.036 -0.17467,0.072 -0.33067,0.244 -0.41734,0.45867 l -0.32133,0.776 c -0.36,0.85866 -0.72933,1.73866 -0.99867,2.64533 -0.092,-0.0813 -0.172,-0.15333 -0.21466,-0.19467 -0.15467,-0.144 -0.288,-0.29866 -0.40534,-0.46133 -0.072,-0.10133 -0.17733,-0.15467 -0.29333,-0.15467 -0.068,0 -0.14,0.0187 -0.212,0.056 -0.196,0.0987 -0.35867,0.31734 -0.42133,0.568 -0.0213,0.0853 -0.30267,1.272 -0.51867,2.18267 -0.0467,0.0133 -0.0933,0.0333 -0.14133,0.0613 -0.19867,0.12 -0.35334,0.36 -0.39734,0.616 l -0.0453,-0.0867 c -0.0693,-0.13334 -0.18933,-0.20667 -0.32667,-0.20667 -0.0387,0 -0.0787,0.005 -0.12,0.0173 -0.18666,0.0547 -0.36266,0.22667 -0.46133,0.45334 -0.0213,0.0493 -0.188,0.408 -0.34133,0.73733 l -0.42134,-0.14533 c -0.392,-0.13467 -0.74933,-0.5 -1.06266,-1.08267 -0.0707,-0.132 -0.18934,-0.20267 -0.32534,-0.20267 -0.06,0 -0.124,0.0147 -0.18933,0.044 -0.20933,0.0947 -0.38533,0.328 -0.44667,0.59467 l -0.104,0.44 c -0.25866,1.08533 -0.56933,1.58 -0.84266,2.01733 l -0.38934,0.63334 c -0.284,0.45333 -0.51066,0.81466 -0.70533,1.45333 -0.0653,0.216 -0.12267,0.44667 -0.17867,0.676 -0.0973,0.392 -0.18,0.724 -0.276,1.00933 -0.0667,0.19467 -0.16666,0.35734 -0.28133,0.53467 -0.13867,0.21333 -0.18933,0.48 -0.13067,0.69067 0.068,0.248 0.15467,0.556 0.132,0.94666 -0.04,0.692 -0.25466,1.43867 -0.444,2.1 -0.132,0.45867 -0.25466,0.89334 -0.324,1.27067 -0.272,1.50267 -0.296,2.65867 -0.0733,3.64133 0.18933,0.83334 0.35867,1.38667 0.52,1.692 0.0693,0.132 0.188,0.20667 0.32667,0.20667 0.0107,0 0.0227,-0.001 0.0333,-0.001"
       style="fill:#383838;fill-opacity:1;fill-rule:nonzero;stroke:none;stroke-width:1.33333"
       id="path150118" />
    <path
       d="m 318.87933,131.67681 c 0.82666,-1.248 1.384,-2.836 1.97466,-4.51734 0.564,-1.60533 1.53867,-3.63733 2.08,-4.58266 1.06534,-1.85867 4.18934,-6.41067 7.31067,-8.288 0.61733,-0.372 0.552,-0.18267 1.11067,-0.48 1.18,-0.63067 2.36399,-1.67067 3.56933,-2.03334 1.692,-0.512 4.49066,-1.24533 5.74933,-1.24533 2.53867,0 5.58533,0.80933 7.204,3.34667 1.16267,1.82666 1.152,3.35866 1.13733,5.29866 -0.003,0.348 -0.005,0.72 -10e-4,1.12267 0.0427,0.0467 0.39733,0.26933 1.008,0.26933 0.42267,0 0.72133,-0.11066 0.79867,-0.164 0.29733,-0.32933 0.728,-1.13733 1.144,-1.91733 0.18,-0.34 0.364,-0.684 0.55466,-1.02 l -0.072,0.036 1.05334,-2.408 -1.29334,0.80933 0.70534,-2.524 c 0.18266,-0.652 0.43066,-1.23866 0.67066,-1.80666 0.032,-0.0747 0.0627,-0.14667 0.092,-0.21867 h -0.88666 l 0.188,-1.25467 c 0.0467,-0.29466 0.112,-0.61333 0.18533,-0.944 -0.232,0.17467 -0.492,0.336 -0.78933,0.48 l -1.44134,0.69734 0.26934,-1.836 0.0933,-0.60134 c 0.0453,-0.276 0.088,-0.54133 0.12,-0.78933 l -1.688,1.54267 0.19467,-1.29067 c -0.44934,0.588 -0.988,1.072 -1.648,1.32533 l -1.50267,0.57467 0.44667,-1.90533 c 0.21333,-0.90934 0.16133,-1.728 0.0493,-2.61334 -0.15067,0.14534 -0.31333,0.28 -0.492,0.39867 l -0.87333,0.57733 -0.36934,-0.896 c -0.0787,-0.192 -0.13466,-0.40933 -0.17466,-0.644 -0.284,0.376 -0.56934,0.74134 -0.852,1.10267 -0.28,0.35733 -0.564,0.72133 -0.85334,1.10133 l -2.14533,2.83334 c 0,0 0.452,-3.56667 0.45733,-3.60534 -0.304,0.372 -0.63866,0.72134 -1.01866,1.01734 l -1.32,1.032 -0.0987,-1.69067 c -0.005,-0.092 -0.008,-0.18267 -0.007,-0.27467 l -0.54,0.19734 c -0.0867,0.0253 -0.17066,0.0387 -0.252,0.0387 -0.25333,0 -0.43866,-0.11333 -0.58,-0.26 -0.088,0.476 -0.25866,0.85067 -0.38666,1.13334 l -0.85867,1.892 -0.93467,-1.20667 c -0.028,-0.036 -0.0667,-0.0627 -0.10133,-0.0947 -0.064,-0.0547 -0.12667,-0.10933 -0.18533,-0.17066 -0.144,-0.14934 -0.23867,-0.356 -0.344,-0.54267 -0.13867,0.61733 -0.29334,1.284 -0.288,1.88533 -0.48,-0.34666 -1.10667,-0.95866 -1.43734,-1.52266 -0.37866,0.95066 -0.64399,2.236 -0.85599,3.24 -0.63467,-0.25334 -1.31067,-0.556 -1.51067,-1.412 -0.14133,0.772 -0.11733,1.21066 -0.70533,1.108 -0.44,-0.0773 -0.756,-0.444 -1.04134,-0.79467 -0.55733,1.37467 -1.24933,2.83733 -1.52666,4.30133 -0.016,0.0827 -0.78,-0.61466 -0.844,-0.676 -0.172,-0.16133 -0.32267,-0.336 -0.45467,-0.51866 -0.0347,0.14 -0.76267,3.22 -0.76267,3.22 l -0.28,-0.428 -0.21333,1.92933 -0.80667,-1.53067 c -0.0267,0.06 -0.61733,1.33467 -0.61733,1.33467 l -0.844,-0.292 c -0.536,-0.184 -0.95067,-0.672 -1.26933,-1.26533 l -0.104,0.44 c -0.29734,1.244 -0.668,1.83733 -0.96667,2.31333 l -0.38533,0.62667 c -0.27734,0.444 -0.444,0.712 -0.60134,1.22533 -0.0653,0.21733 -0.12266,0.44933 -0.17866,0.67867 -0.0893,0.36533 -0.18134,0.724 -0.28534,1.03466 -0.10533,0.31067 -0.25466,0.54934 -0.38666,0.75334 0.0773,0.28 0.184,0.664 0.15333,1.17733 -0.0453,0.78933 -0.27467,1.59067 -0.47733,2.29733 -0.12267,0.42667 -0.23734,0.82934 -0.30134,1.18 -0.25333,1.388 -0.27733,2.44667 -0.0773,3.332 0.204,0.90134 0.36,1.34534 0.472,1.55734 0.0387,-0.0507 0.0853,-0.11467 0.13867,-0.196 m 11.30266,-16.172 c -2.50533,1.50666 -5.93333,5.78 -7.06666,7.756 -1.04134,1.816 -2.20534,6.90666 -4.008,9.628 -1.45067,2.192 -1.996,0.21733 -2.36267,-1.4 -0.276,-1.22134 -0.18267,-2.55334 0.072,-3.948 0.19467,-1.076 0.696,-2.25734 0.75333,-3.26534 0.0347,-0.6 -0.32666,-0.996 -0.18933,-1.65333 0.0787,-0.37867 0.42533,-0.48667 0.51733,-0.75733 0.164,-0.48667 0.28134,-1.116 0.44667,-1.65867 0.288,-0.94667 0.64,-1.39067 1.044,-2.068 0.33333,-0.556 0.61333,-0.87333 0.87867,-1.984 0.35333,-1.48 0.63466,-2.87333 1.17733,-4.31867 0.12,1.172 0.712,3.57334 1.704,3.916 0.35067,-0.75466 0.54133,-1.62 0.864,-2.42133 0.0787,0.144 0.232,0.26667 0.29867,0.38933 0.0347,-0.32 0.22266,-0.73066 0.25066,-1.048 0.112,0.20934 0.39467,0.34 0.49867,0.5 0.332,-1.404 0.78667,-2.85066 1.07333,-4.25066 0.22534,1.34266 0.40267,2.476 1.24534,3.26933 0.396,-1.77067 1.18266,-3.33333 1.72933,-5.096 0.128,0.736 0.42267,1.396 0.79067,1.92533 0.38133,-0.99333 0.71333,-3.232 1.492,-3.816 0.048,1.324 0.10266,2.284 0.60133,3.31067 0.20133,-1.24533 0.88133,-3.01867 1.72,-3.86533 -0.352,0.35466 0.0453,1.18266 0.15066,1.436 0.10934,0.26666 0.244,0.43466 0.4,0.644 0.0907,0.12133 0.18534,0.23333 0.28934,0.336 0.044,0.0413 0.26933,0.172 0.272,0.23866 -0.032,-0.69066 0.176,-1.49333 0.31333,-2.21866 0.0653,0.27866 0.18933,0.52666 0.31333,0.756 0.148,0.272 0.30534,0.58 0.50534,0.78666 0.124,0.12667 0.26933,0.21867 0.37466,0.372 0.13067,-0.292 0.264,-0.55733 0.304,-0.884 0.0627,-0.52 0.0773,-1.08533 0.0533,-1.58133 -0.0147,-0.30667 -0.0413,-0.61067 -0.0587,-0.91733 -0.0107,-0.19867 -0.064,-0.42 -0.0333,-0.628 0.61733,0.47866 1.152,1.08133 1.62666,1.77866 0.028,0.0413 0.19734,0.37067 0.276,0.348 0.0467,-0.0147 0.0427,-0.0787 0.0733,-0.11333 0.252,-0.27333 0.336,-0.67467 0.60666,-0.952 0.0933,-0.096 1.25334,-0.93733 1.256,-0.91333 0.10934,0.91333 -0.41866,2.00133 -0.364,2.92266 1.29867,-1.01466 2.05467,-3.05333 3.268,-4.16666 -0.008,1.416 -0.66933,2.74933 -0.856,4.22533 1.22134,-1.61333 2.37467,-2.932 3.408,-4.74933 -0.0307,0.892 -0.184,2.45333 0.0973,3.14 0.64933,-0.42934 1.064,-1.39334 1.548,-2.03067 0.10933,1.87067 0.66266,3.40533 0.18133,5.45733 1.61333,-0.61733 2.264,-3.66933 3.20133,-5.12666 0.10534,1.12933 -0.0773,2.368 -0.26533,3.62266 0.372,-0.34133 0.75467,-0.75733 1.11733,-1.084 0.472,0.972 0.144,2.31067 -0.0413,3.57734 1.20667,-0.584 1.52133,-1.48267 2.352,-2.76 0.328,1.11466 -0.36533,3.01733 -0.57867,4.38 0.54,0.005 0.94134,-0.604 1.25334,-1.18 0.10533,1.688 -0.92934,3.12266 -1.36267,4.67466 1.364,-0.85466 1.52933,-0.34533 2.54667,-2.196 -0.16934,1.23067 -1.36934,2.616 -1.89734,3.81467 0.28267,-0.148 0.59467,-0.16 0.89734,-0.39867 -0.22934,0.86934 -0.85467,1.47467 -1.376,2.144 -0.968,1.244 -1.79334,3.46134 -2.76,4.50267 -0.748,0.804 -3.336,0.752 -3.34934,-0.73067 -0.0227,-2.59466 0.21334,-3.94 -0.96666,-5.788 -2.308,-3.61866 -7.332,-3.94 -11.308,-2.74 -1.21467,0.36667 -2.30533,1.35067 -3.31333,1.88934 -0.54,0.288 -1.088,0.608 -1.68534,0.968"
       style="fill:#000000;fill-opacity:1;fill-rule:nonzero;stroke:none;stroke-width:1.33333"
       id="path150122" />
  </g>
</svg>
