<?xml version="1.0" encoding="UTF-8" standalone="no"?>
<!-- Created with Inkscape (http://www.inkscape.org/) -->

<svg
   version="1.1"
   id="svg282014"
   width="400"
   height="400"
   viewBox="0 0 400 400"
   sodipodi:docname="voyagerAverageFemale.svg"
   inkscape:version="1.3 (0e150ed, 2023-07-21)"
   xml:space="preserve"
   xmlns:inkscape="http://www.inkscape.org/namespaces/inkscape"
   xmlns:sodipodi="http://sodipodi.sourceforge.net/DTD/sodipodi-0.dtd"
   xmlns="http://www.w3.org/2000/svg"
   xmlns:svg="http://www.w3.org/2000/svg"><defs
     id="defs282018" /><sodipodi:namedview
     id="namedview282016"
     pagecolor="#ffffff"
     bordercolor="#666666"
     borderopacity="1.0"
     inkscape:showpageshadow="2"
     inkscape:pageopacity="0.0"
     inkscape:pagecheckerboard="0"
     inkscape:deskcolor="#d1d1d1"
     showgrid="false"
     inkscape:zoom="1.7575"
     inkscape:cx="200"
     inkscape:cy="199.7155"
     inkscape:window-width="1776"
     inkscape:window-height="1055"
     inkscape:window-x="2589"
     inkscape:window-y="25"
     inkscape:window-maximized="0"
     inkscape:current-layer="g282022"><inkscape:page
       x="0"
       y="0"
       id="page282020"
       width="400"
       height="400"
       margin="0"
       bleed="0" /></sodipodi:namedview><g
     inkscape:groupmode="layer"
     id="layer2"
     inkscape:label="Neck"><path
       d="m 213.63253,151.29441 -5.49067,30.848 -9.21193,18.45217 c 0,0 13.57993,22.69982 22.61726,29.33716 9.03734,6.636 24.148,15.816 35.02134,17.228 l 3.67066,3.67066 2.82534,-2.824 5.224,-2.25866 1.832,-12.39334 13.08133,-27.18533 z"
       style="fill:#cd976d;fill-opacity:1;fill-rule:nonzero;stroke:none;stroke-width:1.33333"
       id="path283414"
       sodipodi:nodetypes="ccccccccccc" /><path
       d="m 199.16985,199.75598 c 0,0 11.14568,18.87824 18.74974,25.74882 16.89748,4.64849 35.91739,5.03279 53.5,5.14934 l 11.78267,-24.48534 -69.56933,-54.87466 -5.69867,31.472 z"
       style="opacity:0.199997;fill:#000000;fill-opacity:1;fill-rule:nonzero;stroke:none;stroke-width:1.33333"
       id="path283424"
       sodipodi:nodetypes="ccccccc" /><path
       d="m 211.64493,149.52841 c -1.01067,4.99733 -2.99139,25.24509 -4.128,30.15333 -1.11614,3.58085 -2.42213,8.10992 -4.32571,11.82632 -1.90358,3.7164 -2.7377,5.49633 -4.27987,8.42311 l 2.35504,3.10823 c 4.22257,-7.93797 7.1452,-15.38433 8.95587,-21.62566 1.29067,-4.45067 3.76533,-24.06133 5.256,-28.47867 l -3.83333,-3.40666"
       style="fill:#000000;fill-opacity:1;fill-rule:nonzero;stroke:none;stroke-width:1.33333"
       id="path283434"
       sodipodi:nodetypes="cczccccc" /><path
       d="m 285.86613,207.63814 c -2.232,2.508 -11.62934,23.48 -13.308,26.58266 -1.36534,2.52267 -2.372,12.41734 -5.128,12.788 -1.86267,0.25067 -2.084,-3.988 -1.828,-5.81866 0.124,-0.87467 14.504,-36.10934 14.504,-36.10934 0,0 5.76,2.55734 5.76,2.55734"
       style="fill:#000000;fill-opacity:1;fill-rule:nonzero;stroke:none;stroke-width:1.33333"
       id="path283438" /></g><g
     id="g282022"
     inkscape:groupmode="layer"
     inkscape:label="Page 1"><path
       d="m 277.37403,342.78554 c 14.22266,0.29467 24.3939,2.42727 34.19524,2.9206 6.65093,0.55874 13.32763,-0.13617 19.98,0.34908 3.55333,0.276 26.74875,3.99882 26.74875,3.99882 0,0 11.77009,5.34116 20.26952,9.27056 0.97066,-10.13866 0.31474,-12.73116 0.0954,-16.135 -1.22133,-4.10533 -3.55466,-13.66133 -4.772,-17.768 -6.204,-24.60533 -15.37627,-42.72423 -34.7911,-53.43536 -12.8914,-3.90462 -24.58732,-9.43526 -36.99303,-10.87425 -5.24834,-0.67437 -13.24154,-7.73644 -17.09354,-9.26711 -4.1026,-3.17146 -3.03009,-1.02294 -7.12616,-5.58947 0,0 0.36384,0.81953 1.75184,4.50619 0.85333,2.26934 2.54666,5.052 2.72133,7.436 0.21333,2.88934 -0.85467,6.19734 -1.51333,8.98267 -0.71334,3.00933 -8.50659,10.69647 -10.95418,12.62687 0.21638,3.7679 0.44718,5.4025 1.22345,11.83805 1.67196,21.4335 3.10006,45.91774 3.10006,45.91774 l -36.05867,-64.73333 -4.42286,-2.00216 c 0,0 -13.2996,-4.79126 -35.44493,-23.81392 -2.768,-2.37867 -6.10687,-7.24125 -8.05087,-9.59058 -1.94267,-2.34934 -3.50933,-4.592 -4.76267,-6.70534 -4.14266,-6.31866 -3.66362,1.74521 -3.66362,-6.25479 -14.34654,6.4495 -26.45614,10.66893 -50.14814,24.25293 -16.34721,4.40719 -36.792236,9.01386 -54.478902,19.41653 -3.369333,1.98133 -12.235784,6.10027 -15.737253,8.22656 -9.936686,13.29958 -9.370619,20.97003 -15.103952,36.71669 -0.656343,2.91272 -1.569301,6.39781 -3.567864,12.57231 -4.402769,16.19096 -7.370155,25.5266 -8.899488,40.02126 -0.958667,5.632 -0.927074,10.69138 -1.843138,18.00355 -0.31846,4.11347 -0.340886,11.04639 -0.965118,14.37798 2.922667,0.34 10.975002,-5.10458 13.848335,-5.73258 8.405333,-1.84 16.507145,-7.14177 24.723145,-9.76444 9.216,-2.94133 18.306666,-6.41867 27.011999,-10.76667 4.298666,-2.148 8.507996,-4.50533 12.545336,-7.15733 2.42666,-1.59467 7.98933,-7.792 10.564,-8.08267"
       style="fill:#d30000;fill-opacity:1;fill-rule:nonzero;stroke:none;stroke-width:1.33333"
       id="path283350"
       sodipodi:nodetypes="cccccccccccccccccccccccccccccccccccc" /><path
       d="m 31.482052,395.28734 c 0.446666,2.49334 1.180614,2.08466 1.540614,4.67933 h 20.166666 c 0.196,-3.43334 -0.168,-7.00134 -0.09067,-10.296 0.142667,-6.028 1.809568,-11.8813 2.717568,-17.83597 1.664043,-10.89316 4.390792,-21.53944 8.717099,-31.40937 5.682623,-10.91971 7.04473,-14.96286 12.227828,-24.25379 8.061621,-9.83474 8.681112,-10.66445 17.276729,-16.04664 9.830784,-5.05831 15.433984,-7.8084 26.708774,-12.5209 12.06134,-4.93733 26.01867,-8.93733 38.75867,-12.128 2.82667,-0.80533 5.532,-1.54666 8.11733,-2.22666 28.43467,-7.48134 48.85975,-10.78844 48.85975,-10.78844 0,0 -11.6028,-5.51607 -20.87346,-16.6534 -3.08933,-3.71334 -5.02725,-4.512 -7.25392,-8.99734 -2.228,-4.484 -3.54315,-5.33167 -8.02103,-10.32829 -6.75333,2.5483 -26.119,9.03784 -47.707,21.33251 -18.69995,5.86575 -35.845712,11.49837 -55.441672,20.31762 -6.939001,2.88838 -12.359196,4.7333 -15.263196,7.33997 -9.815593,11.6216 -13.675677,21.85662 -18.57202,40.35778 -3.949413,17.25627 -7.765364,34.88594 -9.352248,49.71932 -1.108,6.50533 -0.995824,8.39911 -2.471784,17.39312 0.117676,5.33145 -0.859554,8.65545 -0.283552,11.86611"
       style="opacity:0.199997;fill:#000000;fill-opacity:1;fill-rule:nonzero;stroke:none;stroke-width:1.33333"
       id="path283392"
       sodipodi:nodetypes="cccccccccccccccccccccc" /><path
       d="m 383.91919,399.96653 c -0.144,-0.856 -0.384,-1.68666 -0.64133,-2.34666 -0.696,-1.77734 -2.25467,-3.46 -3.18534,-5.13067 -0.88666,-1.59467 -1.816,-3.20667 -2.61466,-4.83067 -1.45734,-2.968 -1.60862,-5.76717 -1.188,-9.324 0.67403,-5.69974 3.85306,-16.2327 1.65209,-18.24532 -2.21467,-1.17867 -8.80026,-5.6689 -11.20826,-6.40357 -5.82996,-2.46016 -12.45137,-3.69306 -18.709,-4.88466 -12.27936,-1.91114 -24.11856,-3.76594 -36.65766,-4.40283 -9.8,-0.49333 -21.88234,-1.11717 -36.10501,-1.41184 -75.85333,-1.56933 -158.11535,6.31812 -158.11535,6.31812 -16.51462,8.44767 -31.124903,17.03323 -48.913148,27.07651 -8.295313,4.68355 -11.789229,6.55141 -21.033724,12.6993 -3.287657,-1.72028 -11.684619,-10.11223 -14.028619,-8.60157 -2.472,1.59467 -1.46398,15.66382 -1.28398,18.75449 0.01467,0.24667 0.03333,0.48933 0.052,0.73333 z"
       style="fill:#2d2d2d;fill-opacity:1;fill-rule:nonzero;stroke:none;stroke-width:1.33333"
       id="path283402"
       sodipodi:nodetypes="ccccscsccccsccccc" /><path
       d="m 197.15857,245.26934 c 22.14533,19.02267 37.30796,24.15266 37.30796,24.15266 l 3.408,4.54267 40.81305,83.77543 c 0,0 -4.86396,-54.36642 -6.89386,-74.60099 0,0 3.557,-2.27941 5.87615,-5.35779 4.06475,-5.52191 4.99666,-11.11532 5.34199,-16.01798 -0.70533,-1.992 -2.26933,-6.17867 -3.65733,-9.86534 -1.388,-3.688 -2.59734,-6.87866 -2.59734,-6.87866 l 0.29734,-2.28534 -4.768,-8.012 -0.18534,0.152 -3.812,10.87334 -5.22533,2.25866 -2.70145,-0.11584 -3.79455,-0.73082 c -10.87333,-1.412 -25.98267,-10.59067 -35.02,-17.228 -7.43376,-5.45881 -21.07862,-24.45122 -23.37941,-31.04322 -3.18655,4.84055 -6.33474,9.70665 -9.49725,14.56302 -6.57413,9.12628 -6.37992,11.66542 -2.52126,19.10409 1.25467,2.11333 1.86192,3.63744 3.80592,5.98677 1.94267,2.34934 3.41851,2.14824 6.18651,4.52557"
       style="fill:#7d7d7d;fill-opacity:1;fill-rule:nonzero;stroke:none;stroke-width:1.33333"
       id="path283406"
       sodipodi:nodetypes="cccccccccccccccccccccc" /><path
       d="m 199.85386,247.78521 c -2.956,-2.45467 -5.49586,-4.13921 -8.94786,-7.61521 -9.57334,-13.50887 -10.81672,-11.21418 -2.06274,-27.26703 3.5985,-6.47393 9.42644,-14.32449 9.42644,-14.32449 l 2.05459,4.26669 c 3.75062,13.68523 6.8977,18.55283 15.2417,26.77683 7.41067,7.304 11.40134,14.18934 24.04267,17.34934 4.20667,1.052 3.568,11.54666 3.352,13.924 -0.216,2.37733 -9.13063,10.73787 -23.27996,0.78187"
       style="opacity:0.199997;fill:#000000;fill-opacity:1;fill-rule:nonzero;stroke:none;stroke-width:1.33333"
       id="path283456"
       sodipodi:nodetypes="cccccccsc" /><path
       d="m 276.07346,242.23054 c 0.33067,0.75333 0.6,1.59333 0.68267,2.78933 0.224,3.21333 -1.1,3.24933 -2.696,5.944 -2.38667,4.032 -3.48134,9.40133 -4.94667,13.80933 -0.872,-2.21866 -1.20133,-3.37733 -1.008,-5.648 0.196,-2.31333 0.44933,-4.564 1.104,-6.844 0.46533,-1.62266 3.62267,-4.36666 4.41467,-5.74133 1.59866,-2.768 0.99466,-5.07867 0.372,-8.04267 0.23866,0.32 0.43733,0.32667 0.74,0.59334 0.36,1.30533 0.90133,2.14666 1.33733,3.14"
       style="fill:#000000;fill-opacity:1;fill-rule:nonzero;stroke:none;stroke-width:1.33333"
       id="path283442" /><path
       id="path283446"
       style="fill:#000000;fill-opacity:1;fill-rule:nonzero;stroke:none;stroke-width:1.33333"
       d="m 197.77148,196.28516 c -0.26366,0.0623 -0.51022,0.19708 -0.71289,0.39843 -6.70009,8.84515 -9.63584,15.05648 -15.15039,25.17188 -1.29333,0.0667 -4.56224,2.45161 -5.6289,3.09961 -1.47333,0.896 -4.02844,2.26358 -8.73438,4.4082 -4.7059,2.14462 -12.46307,6.36178 -21.5957,10.50195 -9.13263,4.1402 -17.97777,6.15144 -29.99024,10.17188 -12.01243,4.02044 -39.269537,15.33508 -51.14648,20.48633 -1.801458,1.21501 -3.931004,1.84123 -5.560547,3.04101 -15.771611,29.05006 -24.623218,71.03068 -28.144531,97.73828 -1.286848,11.80772 -1.337818,18.41265 -1.617188,28.14063 -0.03067,0.17466 -0.07629,0.34877 -0.126953,0.52344 h 4.427735 c 0.532665,-0.24105 0.96289,-16.03321 0.96289,-16.03321 3.26668,1.54466 7.112264,3.4753 12.207032,7.50977 4.670429,-3.63729 13.916802,-9.14308 20.099609,-12.9043 14.241484,-8.66359 32.076642,-17.09821 41.650723,-22.35216 7.03358,-3.89902 9.16937,32.07437 9.00357,43.8131 h 5.29297 c -0.18394,-6.26655 -0.3255,-16.81413 -0.43554,-21.16211 -0.11004,-4.34798 -2.47255,-23.29393 -2.55274,-26.95703 11.72369,-0.90831 31.4717,-2.39388 44.11328,-3.05078 9.43596,-0.58934 15.89111,-1.43364 25.81641,-1.82031 18.6306,-0.72531 37.26962,-1.23374 55.9082,-1.67774 5.50932,-0.13067 11.03704,-0.13806 16.54102,-0.41406 1.19238,-0.0595 3.29878,-0.0592 7.28711,0.0391 0,0 4.85172,12.12854 6.82332,18.34916 3.82181,12.05827 9.67668,36.69381 9.67668,36.69381 h 3.0332 c 0,0 -5.4686,-24.50223 -7.36464,-36.901 -0.8778,-5.74016 -1.85183,-17.32196 -1.85183,-17.32196 8.17829,0.23867 16.3795,0.35802 28.62467,1.07259 15.34008,0.61144 29.38498,0.46979 45.09603,3.43009 3.67474,0.6924 7.13442,1.55045 10.7212,2.58888 1.1729,9.50044 11.76533,38.11429 14.20032,47.0982 h 5.98438 l -6.70508,-16.66992 c -0.49479,-4.37382 0.2669,-9.05353 0.54103,-11.3125 0.78408,-6.46124 0.845,-9.18278 1.105,-14.44678 0.588,-11.89995 -0.24953,-21.64363 -2.74953,-33.21826 -0.57333,-2.65466 -1.24238,-5.28733 -2.01172,-7.88867 -2.724,-9.22129 -5.91285,-17.92367 -11.07814,-25.94629 -2.75932,-4.28569 -7.75657,-11.55379 -9.57813,-13.17383 -15.43354,-6.77411 -37.40389,-13.58585 -54.74609,-17.56446 -7.14604,-5.82466 -12.73917,-9.59987 -20.99805,-14.09961 0.14985,-0.42649 0.48002,-0.81962 0.6836,-1.20703 1.3,-2.49329 -2.34652,-5.72892 -3.11719,-7.90625 l -2.51563,-4.48047 c -0.30533,0.392 -0.46298,0.86665 -0.68164,1.30665 -1.05734,2.11996 -2.21745,4.26006 -3.46679,6.30273 -1.17733,1.928 -2.25686,4.40795 -4.31446,5.4707 -1.77044,0.91445 -5.12063,0.65798 -7.57812,0.3086 -38.55553,-5.48147 -57.65478,-46.56529 -57.44727,-47.03907 l 0.80469,-1.83789 c -0.27333,-0.0907 -1.84865,-0.23556 -2.22461,-0.25 z m -0.49218,5.61523 c 0.64613,1.09161 1.16518,2.97755 2.44336,5.03711 1.70273,2.7437 2.30388,3.79133 4.53711,6.47266 5.26,6.73777 9.89386,11.26343 15.53515,16.96875 7.51937,6.39644 14.98087,11.70312 23.77149,14.92578 4.1213,1.512 8.38766,2.53981 12.71679,3.26367 3.03486,0.50745 6.18092,0.74604 9.41797,0.0176 1.23693,-0.27837 2.6764,-0.53178 3.42969,-1.55078 1.62232,-2.19459 2.71008,-4.80186 4.01172,-7.22852 1.39867,3.856 3.50919,7.96243 5.11719,12.15039 1.60929,4.188 4.5163,10.31921 1.82031,18.15235 -2.69599,7.83311 -6.31272,11.12389 -9.17969,12.49218 0.62092,9.84625 2.67777,34.88689 4.2363,52.31162 0.54637,6.10861 1.38653,12.39018 1.793,18.31143 l -6.32103,-15.68687 -32.2903,-67.09438 c -13.54517,-4.82972 -29.87022,-17.00096 -33.99609,-20.56641 -4.1259,-3.56541 -10.26108,-9.84706 -12.70508,-12.90039 -2.444,-3.05196 -6.28742,-8.95629 -7.96875,-11.84961 3.04445,-5.77506 10.44213,-18.30994 13.63086,-23.22656 z m -17.68164,26.86914 c 1.31841,0.0673 2.33087,0.87218 3.21289,2.41992 2.95596,5.78533 8.94973,12.2029 13.29883,16.95899 4.34906,4.75605 11.87996,9.70344 15.9746,12.52344 7.89657,5.55321 21.04794,12.28989 22.92188,12.85351 3.61832,1.22847 17.79783,37.42347 32.08008,66.26951 -50.44939,1.13783 -99.09432,2.92657 -149.52377,5.46318 -1.29123,-2.88268 -1.06185,-5.5355 -7.52897,-17.9905 -1.62365,-3.12928 -3.32539,-6.20459 -5.05664,-9.06446 -1.73275,-2.86101 -3.48925,-5.50687 -5.216794,-7.76757 0,0 1.962634,4.5119 4.289064,10.875 1.16395,3.18211 2.41191,6.82326 3.54297,10.59179 1.12973,3.76873 2.14262,7.66535 2.83008,11.35157 0.21852,1.68628 0.88085,4.82813 0.88085,4.82813 -13.828027,7.75933 -22.571119,12.81133 -41.779292,23.91601 -7.507466,4.34024 -16.070664,10.38375 -22.736329,15.28125 -5.3935,-3.8294 -6.479393,-5.78681 -12.447265,-9.98438 5.101941,-33.43349 9.82004,-71.37899 29.27539,-98.5332 2.24977,-0.30739 10.651895,0.27721 15.021485,3.86133 3.13004,2.81101 8.891033,8.71812 11.429687,11.38476 -3.599332,-6.23421 -6.747692,-10.29856 -11.697265,-14.91601 -5.483187,-3.3559 -7.511417,-4.20862 -11.900391,-3.90821 6.410488,-3.26284 36.20187,-15.30401 43.25781,-17.86718 7.05597,-2.5632 20.61947,-5.91788 28.88086,-8.82032 8.26138,-2.90241 12.88737,-5.68053 18.28516,-8.47461 5.39777,-2.79404 13.44505,-6.45282 17.65625,-9.25 2.10559,-1.39856 3.73039,-2.06928 5.04883,-2.00195 z m 100.25195,21.18164 c 0.30905,0.19623 4.92759,3.13141 7.94727,5.30274 3.12135,2.24443 7.50313,7.10958 10.50781,8.13671 16.65059,3.90377 26.95726,7.00348 42.03515,11.86329 5.46601,1.84928 8.43383,3.41424 10.9961,5.65039 3.31086,10.6542 6.04538,21.7436 8.07226,32.22265 1.26267,6.528 2.13392,13.70946 3.03125,20.32813 0.83653,6.16383 0.9764,8.75329 1.52182,14.72503 -1.14284,-0.71025 -14.67844,-4.08904 -37.55697,-5.61954 -16.47177,-1.10069 -29.26049,-1.76136 -46.33366,-2.94759 -2.11178,-20.69044 -3.91795,-38.70589 -4.89681,-54.96454 12.22617,-7.29643 12.82647,-24.64773 5.20117,-33.67969 -0.0999,-0.20907 -0.3466,-0.68551 -0.52539,-1.01758 z m 78.18945,39.3086 c 2.77082,4.57841 5.75638,10.61229 8.49414,16.68359 3.29334,7.30529 5.37814,15.09842 7.13868,22.95898 1.55228,6.93071 2.32563,12.28812 2.46094,13.1504 0.65702,4.19676 1.07283,14.06703 0.70215,16.12986 -3.05658,-2.55978 -5.2635,-4.61448 -8.84408,-8.44553 0,0 -0.13063,-2.81997 -0.38933,-5.48316 -0.79401,-8.17409 -2.56309,-17.87101 -3.73242,-26.01368 -1.17035,-8.15331 -4.02793,-21.27857 -5.83008,-28.98046 z m 17.9943,72.75862 c 0.25249,1.46126 0.18403,7.04131 0.008,8.89567 -0.25016,2.63527 -1.32255,6.37468 -1.44764,7.20807 -2.93585,-7.79017 -6.09567,-19.88744 -6.66064,-23.47798 2.79599,2.77067 5.93187,5.38733 8.10028,7.37424 z"
       sodipodi:nodetypes="ccccsssccccccccscccsccccccsccsccsccccscscsccccccccssccccsscccsssccscscccscccscscccccccccccssccccccssssscccccscccccccccscccsccccsccc" /><path
       d="m 118.56438,349.6037 0.53476,7.67438 c 0,0 0.60202,20.67247 0.81871,42.72192 h 24.39935 c 0.988,-22.69334 4.57592,-43.91217 21.66392,-53.32817 -13.788,1.07867 -41.09141,2.2892 -47.41674,2.93187 z"
       style="opacity:0.199997;fill:#000000;fill-opacity:1;fill-rule:nonzero;stroke:none;stroke-width:1.33333"
       id="path283476"
       sodipodi:nodetypes="cccccc" /><path
       id="path283492"
       style="opacity:0.199997;fill:#000000;fill-opacity:1;fill-rule:nonzero;stroke:none;stroke-width:1.33333"
       d="m 276.96875,246.14453 -8.42773,3.94141 c 0,0 -3.37183,1.58875 -0.92383,15.83008 -0.54211,1.79554 -3.25246,3.55144 -4.8665,4.0862 -1.263,0.52083 -4.85536,1.61924 -8.66307,1.45505 -4.94713,-0.21333 -9.04893,-1.02067 -14.73795,-1.9372 0,0 7.47989,2.80314 12.00944,3.50166 2.9253,0.45112 6.67275,0.39434 8.80564,0.0957 3.69007,-0.51663 8.32241,-2.75094 9.29619,-6.68972 0.65923,-2.66645 0.38867,-4.92187 0.38867,-4.92187 1.02667,-1.524 4.72562,-6.69324 6.62695,-5.00391 1.90497,5.00222 0.96273,10.30314 -1.06054,13.14258 -2.02327,2.83945 -3.64661,4.51275 -5.17383,6.0918 l -3.46091,2.08982 c 1.23008,15.33611 0.8441,28.51299 2.19916,59.17176 l 0.53602,5.52761 c -3.47779,-0.29274 -7.41643,0.26409 -13.69611,0.40618 -11.47999,0.25866 -20.71794,1.0051 -32.19926,1.55177 -2.13611,0.10202 -8.81837,0.64922 -49.25191,2.63769 -9.8599,0.4849 -3.45999,7.12409 2.22085,7.62689 4.15044,0.36735 9.35788,-0.59658 13.64454,0.0781 5.37733,0.84667 11.25214,3.16622 16.60546,4.57422 4.82,1.268 9.92932,2.93791 14.80664,3.39258 5.33067,0.49867 9.59824,2.55271 14.85157,3.85937 8.92666,2.22133 19.13456,6.1824 28.00255,7.93972 8.95333,1.77334 15.20245,3.92784 23.28777,-2.46283 3.796,-2.99999 6.23426,-6.54728 10.10225,-9.62728 4.53067,-3.60799 9.28409,-5.48354 14.71876,-7.29687 2.20132,-0.73467 4.41614,-1.43379 6.60546,-2.20313 0.876,-0.308 10.96766,-6.7981 12.214,-7.44543 -8.47383,-0.17699 -36.12933,-2.91225 -43.97866,-4.01758 -3.11264,-0.43786 -6.15643,-0.7101 -9.18164,-0.88867 -1.29497,-9.51142 -6.33159,-38.52271 -6.40721,-54.79089 -0.0106,-2.28181 8.17578,-10.89063 8.17578,-10.89063 4.01409,-5.32434 2.62983,-14.96809 -0.35547,-21.85742 -1.356,-3.69866 -2.71289,-6.9668 -2.71289,-6.9668 z"
       sodipodi:nodetypes="ccccscsssccsccccccssccccccccccccscccc" /><path
       style="color:#000000;fill:#000000;fill-opacity:0.2;-inkscape-stroke:none"
       d="m 328.13904,346.88684 -1.44727,0.39453 L 341.16594,400 h 1.55396 z m -153.01011,-0.10186 -1.4668,0.31445 L 185.00674,400 h 1.4668 z"
       id="path3"
       sodipodi:nodetypes="cccccccccc" /><g
       id="g4"
       transform="translate(-1.1379801,-3.9829303)"><path
         d="m 320.10986,374.954 c -0.007,-0.0453 0.40533,-0.84667 0.40533,-0.84667 l 7.61067,-0.33333 -0.032,3.02533 -0.40533,-0.0307 c 0,0 -6.80667,0.43866 -7.13867,0.136 -0.33067,-0.30267 -0.43333,-1.90534 -0.44,-1.95067 m -1.67867,5.524 c 0.49467,0.76667 9.25334,1.86267 9.25334,1.86267 l 2.1,-13.14667 c 0,0 -8.41467,-0.11067 -9.59334,0.10933 -1.17733,0.21867 -2.14533,1.752 -2.244,4.05334 -0.1,2.30133 -0.012,6.35466 0.484,7.12133"
         style="fill:#d9a14b;fill-opacity:1;fill-rule:nonzero;stroke:none;stroke-width:1.33333"
         id="path283518" /><path
         d="m 348.54706,376.90493 c -0.19867,0.30267 -6.50267,-0.136 -6.50267,-0.136 l -0.356,0.0307 -1.04667,-3.02533 6.99467,0.33333 c 0,0 0.644,0.80133 0.652,0.84667 0.009,0.0453 0.45733,1.648 0.25867,1.95066 m 1.16133,-3.548 c -0.864,-2.30133 -2.256,-3.83466 -3.396,-4.05333 -1.13867,-0.22 -8.712,-0.11067 -8.712,-0.11067 l 6.32267,13.148 c 0,0 7.55333,-1.096 7.744,-1.86266 0.18933,-0.76667 -1.09467,-4.82134 -1.95867,-7.12134"
         style="fill:#d9a14b;fill-opacity:1;fill-rule:nonzero;stroke:none;stroke-width:1.33333"
         id="path283522" /><path
         d="m 327.17639,398.59747 c -0.16933,0 -0.348,-0.048 -0.52,-0.144 -0.40266,-0.228 -0.696,-0.68534 -0.75066,-1.172 -0.056,-0.49467 -1.35334,-12.216 -0.172,-20.72267 1.19866,-8.62533 4.01866,-17.97333 5.156,-20.19067 0.16266,-0.316 0.46533,-0.49066 0.80933,-0.472 0.34667,0.02 0.69467,0.232 0.93333,0.572 0.476,0.67334 11.69733,16.73067 16.464,38.38267 0.12533,0.56933 -0.0893,1.092 -0.52,1.272 -0.432,0.18133 -0.97067,-0.028 -1.31067,-0.508 -2.08133,-2.93733 -5.86933,-7.21067 -7.49733,-7.21067 -0.0213,0 -0.044,0 -0.064,0.003 -1.81467,0.13467 -8.06533,5.89067 -11.924,9.93467 -0.16133,0.16933 -0.376,0.256 -0.604,0.256"
         style="fill:#d9a14b;fill-opacity:1;fill-rule:nonzero;stroke:none;stroke-width:1.33333"
         id="path283526" /><path
         d="m 331.78079,356.72613 c -0.108,0 -0.20266,0.0587 -0.25333,0.15867 -1.11733,2.17733 -3.89467,11.40667 -5.08133,19.94933 -1.16667,8.39734 0.11866,20.00267 0.17333,20.49334 0.0187,0.16133 0.11733,0.31466 0.25067,0.39066 0.13066,0.0733 0.28266,0.0587 0.37466,-0.0373 2.62534,-2.752 9.94933,-9.93067 12.28267,-10.104 l 0.108,-0.004 c 2.27466,0 6.65733,5.48 8.15333,7.592 0.11333,0.16 0.29333,0.228 0.436,0.17067 0.14533,-0.0613 0.216,-0.236 0.17467,-0.42534 -4.72267,-21.44933 -15.82133,-37.32666 -16.29067,-37.992 -0.08,-0.11333 -0.196,-0.18533 -0.31066,-0.19066 -0.005,-0.001 -0.012,-0.001 -0.0173,-0.001 m -4.472,42.70267 c -0.28666,0 -0.58533,-0.0827 -0.86533,-0.24 -0.67067,-0.38 -1.16133,-1.14533 -1.252,-1.95333 -0.056,-0.49867 -1.36667,-12.33334 -0.16933,-20.952 1.20933,-8.70534 4.072,-18.17467 5.22933,-20.42934 0.26933,-0.52666 0.76933,-0.82533 1.34933,-0.78933 0.576,0.0333 1.15734,0.38933 1.556,0.95467 0.48133,0.68 11.82133,16.90533 16.63733,38.77333 0.208,0.94667 -0.148,1.81867 -0.868,2.11867 -0.71866,0.30133 -1.616,-0.0453 -2.184,-0.84534 -2.488,-3.51066 -5.812,-6.83066 -6.84133,-6.83066 -1.46667,0.108 -7.168,5.13733 -11.584,9.76666 -0.264,0.27467 -0.62133,0.42667 -1.008,0.42667"
         style="fill:#000000;fill-opacity:1;fill-rule:nonzero;stroke:none;stroke-width:1.33333"
         id="path283530" /><path
         d="m 332.15853,359.4808 c -1.26667,3.492 -3.332,11.02 -4.288,17.904 -0.80267,5.77467 -0.388,13.32933 -0.072,17.30933 3.032,-3.04666 8.87199,-8.592 11.37599,-8.77733 2.00934,-0.152 4.68267,2.31333 6.732,4.64 -4.06666,-15.004 -11.05733,-26.85467 -13.74799,-31.076"
         style="fill:#999999;fill-opacity:1;fill-rule:nonzero;stroke:none;stroke-width:1.33333"
         id="path283534" /><path
         d="m 346.05372,382.88827 c 0,0 5.57067,-0.876 5.992,-1.75334 0.42267,-0.876 -0.45333,-4.41733 -1.29733,-6.608 -0.84267,-2.192 -1.86133,-5.00533 -3.992,-5.55333 -2.13067,-0.54667 -7.17333,-0.876 -7.17333,-0.876 l 0.90666,2.08133 c 0,0 6.06934,0.0227 6.96134,0.65734 1.04266,0.74133 1.85866,2.07066 2.36133,3.944 0.48267,1.79866 1.53867,4.492 1.412,5.14933 -0.128,0.65733 -6.09867,1.20533 -6.09867,1.20533 z"
         style="fill:#000000;fill-opacity:1;fill-rule:nonzero;stroke:none;stroke-width:1.33333"
         id="path283538" /><path
         d="m 343.18746,376.3148 c 0,0 4.008,0.21867 4.852,0.21867 0.844,0 -0.0413,-1.972 -0.716,-1.972 -0.67467,0 -5.02134,-0.21867 -5.02134,-0.21867 l -0.168,-0.876 c 0,0 4.872,0.31867 5.548,0.328 0.67734,0.009 1.34934,2.19067 1.39067,2.84933 0.0427,0.65734 -1.392,0.65734 -2.152,0.65734 -0.75867,0 -3.48,-0.11067 -3.48,-0.11067 z"
         style="fill:#000000;fill-opacity:1;fill-rule:nonzero;stroke:none;stroke-width:1.33333"
         id="path283542" /><path
         d="m 325.53306,382.88827 c 0,0 -6.484,-0.876 -7.27733,-1.75334 -0.79334,-0.876 -1.028,-4.44933 -0.91067,-6.64 0.116,-2.192 0.5,-4.848 2.652,-5.396 2.152,-0.548 7.18667,-1.00133 7.18667,-1.00133 l -0.228,2.08133 c 0,0 -6.848,-0.15466 -7.452,0.65734 -0.47734,0.64266 -1.09867,2.54 -1.192,4.29333 -0.0933,1.75333 0.02,4.14267 0.404,4.8 0.38533,0.65733 7.19066,1.20533 7.19066,1.20533 z"
         style="fill:#000000;fill-opacity:1;fill-rule:nonzero;stroke:none;stroke-width:1.33333"
         id="path283546" /><path
         d="m 326.25613,376.3148 c 0,0 -4.35067,0.21867 -5.28267,0.21867 -0.93333,0 -0.688,-1.972 0.0573,-1.972 0.74667,0 5.47067,-0.21867 5.47067,-0.21867 l -0.14,-0.876 c 0,0 -5.268,0.31867 -6.012,0.328 -0.74533,0.009 -0.67733,2.19067 -0.47867,2.84933 0.19867,0.65734 1.784,0.65734 2.624,0.65734 0.84,0 3.808,-0.11067 3.808,-0.11067 z"
         style="fill:#000000;fill-opacity:1;fill-rule:nonzero;stroke:none;stroke-width:1.33333"
         id="path283550" /></g></g><g
     inkscape:groupmode="layer"
     id="layer1"
     inkscape:label="Bolian Ridge"
     style="display:none"><path
       style="fill:none;stroke:#000000;stroke-width:0.8;stroke-linecap:butt;stroke-linejoin:miter;stroke-dasharray:none;stroke-opacity:1"
       d="m 260.11976,248.62275 16.76647,-47.90419"
       id="path1746" /><path
       style="color:#000000;fill:#000000;fill-opacity:0.2;-inkscape-stroke:none"
       d="m 273.8747,199.19782 -16.76758,47.90429 1.7902,0.83818 16.76758,-47.90429 z"
       id="path1748"
       sodipodi:nodetypes="ccccc" /></g></svg>
