<?xml version="1.0" encoding="UTF-8" standalone="no"?>
<!-- Created with Inkscape (http://www.inkscape.org/) -->

<svg
   version="1.1"
   id="svg171226"
   width="400"
   height="400"
   viewBox="0 0 400 400"
   sodipodi:docname="voyagerAverageMale.svg"
   inkscape:version="1.3 (0e150ed, 2023-07-21)"
   xml:space="preserve"
   xmlns:inkscape="http://www.inkscape.org/namespaces/inkscape"
   xmlns:sodipodi="http://sodipodi.sourceforge.net/DTD/sodipodi-0.dtd"
   xmlns="http://www.w3.org/2000/svg"
   xmlns:svg="http://www.w3.org/2000/svg"><defs
     id="defs171230" /><sodipodi:namedview
     id="namedview171228"
     pagecolor="#ffffff"
     bordercolor="#666666"
     borderopacity="1.0"
     inkscape:showpageshadow="2"
     inkscape:pageopacity="0.0"
     inkscape:pagecheckerboard="0"
     inkscape:deskcolor="#d1d1d1"
     showgrid="false"
     inkscape:zoom="8.35"
     inkscape:cx="263.05389"
     inkscape:cy="280.83832"
     inkscape:window-width="1920"
     inkscape:window-height="1145"
     inkscape:window-x="2081"
     inkscape:window-y="26"
     inkscape:window-maximized="0"
     inkscape:current-layer="g171234"><inkscape:page
       x="0"
       y="0"
       id="page171232"
       width="400"
       height="400"
       margin="0"
       bleed="0" /></sodipodi:namedview><g
     inkscape:groupmode="layer"
     id="layer1"
     inkscape:label="Neck"><path
       d="m 213.63253,151.29441 -13.54934,47.14666 c 0,0 12.42667,24.85333 21.464,31.49067 9.03734,6.636 24.148,15.816 35.02134,17.228 l 3.67066,3.67066 2.82534,-2.824 5.224,-2.25866 3.81333,-10.87467 18.428,-23.08667 z"
       style="display:inline;fill:#cd976d;fill-opacity:1;fill-rule:nonzero;stroke:none;stroke-width:1.33333"
       id="path171974" /><path
       d="m 200.08306,198.44081 c 0,0 12.86667,21.57066 17.836,27.06399 4.96933,5.49334 32.696,1.83067 40.54267,4.18534 6.33866,1.90133 13.09866,2.66533 15.47066,2.89066 l 16.59734,-20.79333 -76.89734,-60.49333 z"
       style="display:inline;opacity:0.199997;fill:#000000;fill-opacity:1;fill-rule:nonzero;stroke:none;stroke-width:1.33333"
       id="path171984" /><path
       d="m 211.64493,149.52841 c -1.01067,4.99733 -6.2,23.82533 -7.36934,28.788 -0.956,4.064 -1.95733,8.11866 -3.072,12.14266 -0.516,1.85867 -1.07466,3.70267 -1.63333,5.54934 -0.18666,0.616 -0.95466,1.86266 -0.88133,2.47466 0.02,0.16934 0.80667,2.38267 1.11067,1.93733 3.68799,-5.38666 5.03733,-14.18666 7.12666,-20.38133 1.49067,-4.41866 7.06133,-22.68666 8.552,-27.104 0,0 -3.83333,-3.40666 -3.83333,-3.40666"
       style="display:inline;fill:#000000;fill-opacity:1;fill-rule:nonzero;stroke:none;stroke-width:1.33333"
       id="path171994" /><path
       d="m 293.27599,213.31907 c -2.83733,2.044 -16.28266,19.912 -18.592,22.53067 -1.87866,2.13066 -4.41733,10.85066 -7.52933,10.948 -2.104,0.0653 -1.74133,-3.72534 -1.19333,-5.332 0.26266,-0.76934 21.288,-30.90934 21.288,-30.90934 0,0 6.02666,2.76267 6.02666,2.76267"
       style="display:inline;fill:#000000;fill-opacity:1;fill-rule:nonzero;stroke:none;stroke-width:1.33333"
       id="path171998" /></g><g
     id="g171234"
     inkscape:groupmode="layer"
     inkscape:label="Page 1"
     style="display:inline"><path
       d="m 275.46293,349.22293 c 75.85199,1.56934 89.45333,6.8 89.45333,6.8 l 5.232,6.27867 14.532,6.804 -0.87067,-26.57333 c -1.52533,-11.00267 -6.34267,-44.99867 -8.672,-52.57067 -2.78933,-9.06533 -4.292,-11.15866 -12.44533,-16.04 -8.15467,-4.88133 -35.08933,-19.29466 -45.54933,-21.61866 -10.46134,-2.32534 -26.816,-12.736 -37.04,-17.07867 l -6.47116,-0.42475 3.70716,6.79808 -0.29867,2.28667 c 0,0 4.84133,12.76133 6.26133,16.736 1.42,3.976 -3.40666,11.07333 -3.40666,11.07333 l -5.67867,65.86933 -36.05867,-64.73333 -3.40666,-4.54266 c 0,0 -15.332,-8.51734 -37.47733,-27.54 -22.14667,-19.024 -15.724,-34.06934 -15.724,-34.06934 l -0.088,-0.68666 -0.77467,0.516 -6.27733,0.46533 -40.91334,21.15467 -38.587996,22.548 -11.855999,6.044 -6.741334,6.27733 -9.459999,6.824 C 55.016154,282.27116 47.655892,295.12361 41.88121,310.7319 l -15.188357,70.92406 c 0,0 12.671477,12.29888 18.199174,12.12071 10.293721,-0.3318 52.029446,-20.01112 72.065573,-37.22974 0,0 82.652,-8.89333 158.50533,-7.324"
       style="fill:#d30000;fill-opacity:1;fill-rule:nonzero;stroke:none;stroke-width:1.33333"
       id="path171958"
       sodipodi:nodetypes="cccccccccccccccccccccccccccccscc" /><path
       d="M 384.67959,369.10547 385.69026,399.9668 25.664768,400 27.657852,382.55863 c 0,0 15.357817,12.57418 17.89775,12.68819 3.543486,0.15905 44.088752,-23.39107 71.401328,-38.70002 0,0 82.65333,-8.89333 158.50533,-7.324 75.85333,1.56933 89.45466,6.80133 89.45466,6.80133 l 5.23067,6.27734 z"
       style="fill:#2d2d2d;fill-opacity:1;fill-rule:nonzero;stroke:none;stroke-width:1.33333"
       id="path171962"
       sodipodi:nodetypes="ccccscsccc" /><path
       d="m 196.9892,241.882 c 22.14533,19.02267 37.47733,27.54 37.47733,27.54 l 3.408,4.54267 38.2591,85.39742 3.4769,-86.53209 c 0,0 4.82666,-7.09866 3.40666,-11.07333 -1.42,-3.97467 -6.26,-16.73733 -6.26,-16.73733 l 0.29734,-2.28534 -4.08517,-7.17743 -0.56469,0.152 -4.11548,10.03877 -5.22533,2.25866 -2.824,-0.13358 -3.672,-0.71308 c -10.87333,-1.412 -25.98267,-10.59067 -35.02,-17.228 -9.03867,-6.63734 -21.46533,-31.49067 -21.46533,-31.49067 -0.49631,-1.4612 -1.31557,-2.62079 -2.24533,-3.816 l -12.55334,9.764 -4.10666,2.73733 0.0893,0.68667 c 0,0 -6.42267,15.04667 15.72267,34.06933"
       style="fill:#7d7d7d;fill-opacity:1;fill-rule:nonzero;stroke:none;stroke-width:1.33333"
       id="path171966"
       sodipodi:nodetypes="cccccsccccccccccccccc" /><path
       d="m 276.07346,242.23054 c 0.33067,0.75333 0.6,1.59333 0.68267,2.78933 0.224,3.21333 -1.1,3.24933 -2.696,5.944 -2.38667,4.032 -3.48134,9.40133 -4.94667,13.80933 -0.872,-2.21866 -1.20133,-3.37733 -1.008,-5.648 0.196,-2.31333 0.44933,-4.564 1.104,-6.844 0.46533,-1.62266 3.62267,-4.36666 4.41467,-5.74133 1.59866,-2.768 0.99466,-5.07867 0.372,-8.04267 0.23866,0.32 0.43733,0.32667 0.74,0.59334 0.36,1.30533 0.90133,2.14666 1.33733,3.14"
       style="fill:#000000;fill-opacity:1;fill-rule:nonzero;stroke:none;stroke-width:1.33333"
       id="path172002" /><path
       d="m 367.95412,278.712 c 0,0 3.12934,28.84534 1.144,48.11334 0,0 3.30134,-23.672 0.824,-46.24134 z"
       style="fill:#000000;fill-opacity:1;fill-rule:nonzero;stroke:none;stroke-width:1.33333"
       id="path172006" /><path
       id="path172010"
       style="fill:#000000;fill-opacity:1;fill-rule:nonzero;stroke:none;stroke-width:1.33333"
       d="m 198.07227,192.24805 c -0.26817,0.0578 -0.52043,0.1818 -0.73243,0.36914 -0.10133,0.0893 -9.60397,8.46056 -15.89062,13.06054 -1.17467,-0.48666 -3.41066,-0.49889 -8.44531,0.84375 -4.85066,1.29467 -26.26345,13.67896 -46.96875,25.65625 -16.79064,9.71198 -32.650928,18.88602 -36.656254,20.38868 -8.445315,3.16665 -14.804241,9.80901 -15.878906,11.40234 -1.077331,0.63733 -5.047699,1.38449 -8.318359,3.61914 -9.85585,5.31259 -22.830202,27.76068 -28.478516,46.72656 C 31.054811,333.28033 24.036083,390.94613 23.314453,400 l 4.236328,-0.21484 1.353516,-13.66602 c 0,0 13.934029,12.70389 15.220703,12.55274 0.619677,-0.0728 51.615286,-26.51361 76.03125,-38.63672 0,0 1.52182,5.1832 1.86133,10.98437 0.33951,5.80118 1.95516,15.70987 1.26953,28.98047 h 6.7168 c 0.49001,-13.11168 -1.86492,-34.01407 -2.14649,-39.13086 -0.30168,-5.48247 131.38864,-8.15981 138.36328,-8.50781 0.87577,-0.0439 1.66427,-0.0884 4.11936,-0.0463 l 1.9821,9.30404 L 278.42578,400 h 3.09375 l -1.09731,-37.83718 0.29953,-8.94824 c 19.7729,0.50954 60.2071,1.99213 82.79973,5.42409 0,0 0.82645,23.99615 -0.46289,41.32813 h 5.57422 c 0.484,-9.21598 1.59261,-30.13893 1.86328,-33.65625 0,0 7.27724,2.90397 11.81055,6.39062 0,0 0.67098,14.69499 0.45898,27.26563 h 4.79102 l -2.30469,-57.4336 c -0.0733,-1.01867 -0.18937,-1.86516 -0.33203,-2.5625 -2.15734,-16.44929 -7.67836,-54.12103 -13.76367,-60.81836 -7.53598,-8.29865 -41.54925,-23.28334 -51.86523,-26.61132 -8.256,-2.66267 -15.86906,-7.01273 -23.6504,-10.7754 -2.75731,-1.33198 -5.52418,-2.64478 -8.29882,-3.93945 -2.576,-1.20133 -4.79666,-3.113 -7.19532,-4.625 -1.40265,-0.87467 -3.83164,-1.67834 -5.29296,-0.54101 -1.98933,1.54665 -3.57577,3.56514 -4.84375,5.73046 -1.60051,2.33054 -2.62542,5.12295 -5.01368,6.74219 -2.15457,1.46081 -5.13299,0.32719 -7.57812,0.0645 -14.74079,-1.58415 -26.36796,-8.87891 -35.19141,-17.51563 -15.28505,-14.96157 -22.15719,-33.94912 -22.23242,-34.24414 -0.14,-0.54934 -0.55633,-0.9863 -1.09766,-1.1543 -0.27267,-0.084 -0.55605,-0.0931 -0.82421,-0.0351 z m -0.48633,4.47656 c 1.8784,5.76998 9.13098,20.71798 22.00976,33.12891 9.2897,8.95222 21.50662,16.58445 36.7461,18.5 5.14839,0.64712 6.74433,0.88574 9.35937,0.23242 1.22883,-0.307 2.52436,-0.66607 3.42969,-1.55274 1,-0.97866 1.46218,-2.60412 2.10352,-3.82812 0.33064,-0.632 0.67019,-1.25891 1.01953,-1.87891 0.116,-0.20533 0.95667,-1.3302 0.88867,-1.51953 2.79733,7.71064 8.44541,16.42641 7.21875,24.78906 -0.69467,4.732 -2.83399,9.76918 -2.83399,9.76918 0,0 -0.60557,12.67106 -0.93554,16.97106 -1.71753,22.38202 -0.65718,44.68206 -0.26669,57.3878 0.12176,3.9615 -0.16034,9.27678 -0.27332,11.0846 -0.0173,0.2774 -1.17186,-5.84386 -3.03433,-10.63883 -2.01589,-5.18994 -4.46433,-11.50476 -5.942,-14.94755 -3.73222,-8.69562 -24.57191,-55.86596 -29.34715,-65.00885 -9.1522,-6.61417 -26.05626,-17.97252 -37.76018,-27.00241 -6.40664,-4.94133 -11.17835,-12.01667 -14.54235,-17.60333 -3.81598,-8.26932 -3.05875,-14.16431 -2.71875,-15.82031 4.79067,-3.42534 11.59224,-9.21716 14.87891,-12.0625 z m -18.6694,12.10804 c -0.42533,0.848 -0.37903,2.75095 -0.43369,4.11762 -0.14667,3.67865 0.72545,7.55931 3.69879,12.65129 3.57333,7.92132 11.01849,17.74635 26.0918,28.125 18.39596,12.66664 24.63964,17.11811 26.70898,18.66211 0.012,0.028 0.0244,0.0534 0.0391,0.0801 11.63279,25.05201 20.60173,48.45814 32.3816,73.64118 L 126.75,348.93945 c -3.00167,-11.22287 -11.58651,-30.81966 -18.375,-41.92773 0,0 7.84244,18.71126 9.92969,34.44726 0.7587,4.43661 1.37392,7.45286 1.54883,10.9375 -10.85376,7.39062 -40.471115,22.0252 -75.328129,40.59375 L 29.720703,381.2168 c 1.510664,-11.19865 8.378265,-51.91778 11.955078,-66.44727 3.576814,-14.52948 17.764291,-36.14577 24.84961,-43.48242 7.085319,-7.33664 23.557383,3.63852 27.609375,9.20117 0.306665,-1.03467 -0.155258,-2.13012 -0.669922,-3.07812 -2.467996,-4.544 -6.364394,-7.99576 -10.761719,-10.6211 -1.478665,-0.88133 -3.620252,-1.56847 -4.65625,-2.98047 -0.306667,-0.42 11.426611,-7.80136 12.474609,-8.19336 4.258659,-1.59732 19.498616,-10.41249 37.142576,-20.61914 19.56662,-11.31729 41.74503,-24.14545 46.17969,-25.32812 2.17334,-0.58 4.10346,-0.72199 5.07279,-0.83532 z m 97.20651,26.48571 c 3.54131,-0.148 7.58622,2.95715 11.07422,4.50781 10.63463,4.73067 19.85777,12.18914 31.09375,15.81445 9.48798,3.06 43.60864,18.04288 50.50195,25.63086 5.13198,5.64933 10.78207,42.52176 13.19141,61.26172 0.63864,5.392 1.27734,24.52344 1.27734,24.52344 l -12.82813,-9.07422 c -0.64933,-15.30529 -1.74804,-22.01562 -1.74804,-22.01562 -1.2,9.90531 -2.17624,12.55445 -3.60157,16.39843 -29.67647,-1.7945 -54.38328,-4.73305 -84.06656,-6.35959 -0.32623,-24.62005 -0.0217,-46.6458 0.0625,-71.29408 2.17519,-4.9934 3.53096,-11.32588 2.61933,-16.52406 -0.46171,-2.63271 -1.58275,-5.06824 -2.72542,-7.46022 -0.50133,-1.04934 -2.94428,-3.77248 -2.62028,-4.98314 0.12534,-0.46667 0.51961,-0.88664 0.73828,-1.30664 1.3,-2.49333 -2.34786,-5.72697 -3.11719,-7.9043 -0.044,-0.124 -0.1329,-1.20284 0.14844,-1.21484 z"
       sodipodi:nodetypes="ccccccccscccscsccscccccccccccccccccccccccscscccccsscccccccssssscccccccccccccccccsscccccccccccccccccccccccccccc" /><path
       d="m 219.51133,258.96734 c -4.76,-3.34934 -14.796,-9.37067 -28.60533,-22.44 -13.80934,-13.07067 -10.85067,-27.12667 -10.85067,-27.12667 l 17.78267,-14.77466 2.24533,3.81466 c 0.0533,13.20667 7.13866,22.95733 15.48266,31.18133 7.41067,7.304 11.40134,14.18934 24.04267,17.34934 4.20667,1.052 3.568,11.54666 3.352,13.924 -0.216,2.37733 -9.3,8.028 -23.44933,-1.928"
       style="opacity:0.199997;fill:#000000;fill-opacity:1;fill-rule:nonzero;stroke:none;stroke-width:1.33333"
       id="path172060" /><path
       d="m 181.55026,206.67747 -0.0893,-0.68667 -7.05067,0.98134 -40.91333,21.15466 -38.589332,22.54934 -11.854667,6.044 -6.742666,6.276 -9.458667,6.824 -8.589333,6.69866 L 40.594354,313.84335 27.202663,391.62673 26.678065,400 h 29.32244 c 21.624703,-77.54889 34.366618,-92.52242 41.105648,-98.36756 6.739027,-5.84515 15.611687,-9.92638 23.283687,-12.71571 67.72267,-24.62667 91.30178,-23.34193 91.30178,-23.34193 0,0 -44.01599,-30.208 -30.14133,-58.89733"
       style="display:inline;opacity:0.199997;fill:#000000;fill-opacity:1;fill-rule:nonzero;stroke:none;stroke-width:1.33333"
       id="path172176"
       sodipodi:nodetypes="ccccccccccccczccc" /><path
       d="m 163.9916,353.1308 c -14.48934,1.07867 -25.88534,2.11867 -32.53334,2.76133 l -6.20629,2.224 c 0,0 2.16032,18.5477 4.04081,41.88387 h 19.88169 c 1.04,-22.69333 5.88533,-42.47372 6.92667,-46.56572"
       style="opacity:0.199997;fill:#000000;fill-opacity:1;fill-rule:nonzero;stroke:none;stroke-width:1.33333"
       id="path172192"
       sodipodi:nodetypes="cccccc" /><path
       d="m 269.84959,261.50507 c 1.02667,-1.524 4.72534,-6.69333 6.62667,-5.004 2.21867,1.97333 -2.24533,15.00667 -2.24533,15.00667 -2.31905,18.07636 -7.44937,41.61162 -9.42232,61.2359 l 11.6494,27.19809 3.15289,-87.11266 c 0,0 2.78266,-6.71067 2.78266,-10.16267 0,-3.452 -5.424,-16.52266 -5.424,-16.52266 m 3e-5,0 -8.428,3.94266 c 0,0 -3.37333,1.588 -0.92533,15.82934 -0.53834,1.8039 -1.82403,1.49921 -3.72667,2.52133 -4.32106,2.32132 -8.59648,1.15028 -13.32936,0.18735 -2.94213,-0.5986 -5.99867,-1.46868 -9.504,-2.23402 0,0 8.04343,3.10953 11.868,4.21334 2.70679,0.78121 6.14253,1.55271 8.13333,1.43866 2.40499,-0.13778 5.4617,-1.48327 7.12803,-3.45733"
       style="opacity:0.199997;fill:#000000;fill-opacity:1;fill-rule:nonzero;stroke:none;stroke-width:1.33333"
       id="path172208"
       sodipodi:nodetypes="ccccccsccccsscssc" /><path
       style="opacity:0.2;fill:#000000;fill-opacity:1;stroke:none;stroke-width:0.911631px;stroke-linecap:butt;stroke-linejoin:miter;stroke-opacity:1"
       d="m 368.9541,353.5484 c 0,0 6.16873,24.64853 6.43777,33.1715 0.26904,8.52297 0.42919,13.2801 0.42919,13.2801 H 366.379 Z"
       id="path2"
       sodipodi:nodetypes="czccc" /><path
       style="color:#000000;fill:#000000;fill-opacity:0.2;-inkscape-stroke:none"
       d="M 174.69141,352.2832 173.0957,352.39648 176.43359,400 h 1.59571 z m 158.71679,0.57032 -1.58984,0.18554 L 337.28125,400 h 1.58984 z"
       id="path4"
       sodipodi:nodetypes="cccccccccc" /><g
       id="g5"><path
         d="m 320.33559,374.954 c -0.003,-0.0453 0.48934,-0.84667 0.48934,-0.84667 l 7.64266,-0.33333 -0.33066,3.02533 -0.40134,-0.0307 c 0,0 -6.85066,0.43866 -7.152,0.136 -0.30133,-0.30267 -0.24533,-1.90534 -0.248,-1.95067 m -2.224,5.524 c 0.42134,0.76667 9.07067,1.86267 9.07067,1.86267 l 3.39467,-13.14667 c 0,0 -8.404,-0.11067 -9.60267,0.10933 -1.2,0.21867 -2.31867,1.752 -2.644,4.05334 -0.32667,2.30133 -0.63867,6.35466 -0.21867,7.12133"
         style="fill:#d9a14b;fill-opacity:1;fill-rule:nonzero;stroke:none;stroke-width:1.33333"
         id="path172018" /><path
         d="m 348.58052,376.90493 c -0.228,0.30267 -6.48933,-0.136 -6.48933,-0.136 l -0.35867,0.0307 -0.74933,-3.02533 6.96267,0.33333 c 0,0 0.564,0.80133 0.568,0.84667 0.005,0.0453 0.29466,1.648 0.0667,1.95066 m 1.51067,-3.548 c -0.63733,-2.30133 -1.87867,-3.83466 -2.996,-4.05333 -1.11733,-0.22 -8.70267,-0.11067 -8.70267,-0.11067 l 5.02934,13.148 c 0,0 7.66,-1.096 7.92666,-1.86266 0.26534,-0.76667 -0.62,-4.82134 -1.25733,-7.12134"
         style="fill:#d9a14b;fill-opacity:1;fill-rule:nonzero;stroke:none;stroke-width:1.33333"
         id="path172022" /><path
         d="m 325.07319,398.59747 c -0.16933,0 -0.344,-0.048 -0.50533,-0.144 -0.38,-0.228 -0.62933,-0.68534 -0.636,-1.172 -0.007,-0.49467 -0.14933,-12.216 1.86933,-20.72267 2.048,-8.62533 5.78934,-17.97333 7.144,-20.19067 0.19467,-0.316 0.51467,-0.49066 0.85733,-0.472 0.344,0.02 0.67067,0.232 0.87734,0.572 0.40933,0.67334 10.048,16.73067 12.68266,38.38267 0.0693,0.56933 -0.19733,1.092 -0.64666,1.272 -0.448,0.18133 -0.96667,-0.028 -1.25867,-0.508 -1.79333,-2.93733 -5.16,-7.21067 -6.788,-7.21067 -0.0213,0 -0.044,0 -0.0653,0.003 -1.82667,0.13467 -8.644,5.89067 -12.90133,9.93467 -0.17867,0.16933 -0.40134,0.256 -0.62934,0.256"
         style="fill:#d9a14b;fill-opacity:1;fill-rule:nonzero;stroke:none;stroke-width:1.33333"
         id="path172026" /><path
         d="m 333.80212,356.72613 c -0.108,0 -0.208,0.0587 -0.26933,0.15867 -1.33066,2.17733 -5.01733,11.40667 -7.04533,19.94933 -1.99467,8.39734 -1.852,20.00267 -1.84533,20.49334 0.003,0.16133 0.0853,0.31466 0.212,0.39066 0.12266,0.0733 0.27733,0.0587 0.37866,-0.0373 2.896,-2.752 10.92667,-9.93067 13.27733,-10.104 l 0.108,-0.004 c 2.27467,0 6.11734,5.48 7.40667,7.592 0.0973,0.16 0.26933,0.228 0.41733,0.17067 0.152,-0.0613 0.24134,-0.236 0.21734,-0.42534 -2.60934,-21.44933 -12.144,-37.32666 -12.548,-37.992 -0.0693,-0.11333 -0.17867,-0.18533 -0.292,-0.19066 -0.005,-0.001 -0.012,-0.001 -0.0173,-0.001 m -8.67733,42.70267 c -0.288,0 -0.57866,-0.0827 -0.84266,-0.24 -0.632,-0.38 -1.048,-1.14533 -1.06,-1.95333 -0.007,-0.49867 -0.152,-12.33334 1.89466,-20.952 2.06667,-8.70534 5.86267,-18.17467 7.24134,-20.42934 0.32266,-0.52666 0.85066,-0.82533 1.42666,-0.78933 0.57333,0.0333 1.12,0.38933 1.464,0.95467 0.41333,0.68 10.156,16.90533 12.816,38.77333 0.116,0.94667 -0.32667,1.81867 -1.076,2.11867 -0.748,0.30133 -1.612,-0.0453 -2.1,-0.84534 -2.14267,-3.51066 -5.14,-6.83066 -6.168,-6.83066 -1.47867,0.108 -7.67466,5.13733 -12.548,9.76666 -0.28933,0.27467 -0.66266,0.42667 -1.048,0.42667"
         style="fill:#000000;fill-opacity:1;fill-rule:nonzero;stroke:none;stroke-width:1.33333"
         id="path172030" /><path
         d="m 333.90839,359.4808 c -1.61066,3.492 -4.41733,11.02 -6.05066,17.904 -1.372,5.77467 -1.70267,13.32933 -1.77734,17.30933 3.332,-3.04666 9.71733,-8.592 12.24,-8.77733 2.024,-0.152 4.45467,2.31333 6.27467,4.64 -2.58934,-15.004 -8.412,-26.85467 -10.68667,-31.076"
         style="fill:#999999;fill-opacity:1;fill-rule:nonzero;stroke:none;stroke-width:1.33333"
         id="path172034" /><path
         d="m 345.49786,382.88827 c 0,0 5.656,-0.876 6.16533,-1.75334 0.508,-0.876 -0.0187,-4.41733 -0.64667,-6.608 -0.62666,-2.192 -1.36933,-5.00533 -3.44533,-5.55333 -2.07733,-0.54667 -7.08667,-0.876 -7.08667,-0.876 l 0.70134,2.08133 c 0,0 6.06666,0.0227 6.89733,0.65734 0.96933,0.74133 1.65333,2.07066 1.972,3.944 0.30533,1.79866 1.096,4.492 0.904,5.14933 -0.192,0.65733 -6.216,1.20533 -6.216,1.20533 z"
         style="fill:#000000;fill-opacity:1;fill-rule:nonzero;stroke:none;stroke-width:1.33333"
         id="path172038" /><path
         d="m 343.27919,376.3148 c 0,0 3.98667,0.21867 4.83067,0.21867 0.844,0 0.15333,-1.972 -0.52267,-1.972 -0.67467,0 -4.99867,-0.21867 -4.99867,-0.21867 l -0.0827,-0.876 c 0,0 4.84,0.31867 5.516,0.328 0.676,0.009 1.13333,2.19067 1.11066,2.84933 -0.0227,0.65734 -1.45733,0.65734 -2.21733,0.65734 -0.75867,0 -3.46933,-0.11067 -3.46933,-0.11067 z"
         style="fill:#000000;fill-opacity:1;fill-rule:nonzero;stroke:none;stroke-width:1.33333"
         id="path172042" /><path
         d="m 324.97719,382.88827 c 0,0 -6.39733,-0.876 -7.10533,-1.75334 -0.70667,-0.876 -0.588,-4.44933 -0.256,-6.64 0.332,-2.192 0.97867,-4.848 3.184,-5.396 2.20533,-0.548 7.284,-1.00133 7.284,-1.00133 l -0.432,2.08133 c 0,0 -6.832,-0.15466 -7.51733,0.65734 -0.54134,0.64266 -1.34934,2.54 -1.61467,4.29333 -0.26667,1.75333 -0.388,4.14267 -0.068,4.8 0.32,0.65733 7.07067,1.20533 7.07067,1.20533 z"
         style="fill:#000000;fill-opacity:1;fill-rule:nonzero;stroke:none;stroke-width:1.33333"
         id="path172046" /><path
         d="m 326.34773,376.3148 c 0,0 -4.372,0.21867 -5.30534,0.21867 -0.932,0 -0.49333,-1.972 0.25334,-1.972 0.74666,0 5.49066,-0.21867 5.49066,-0.21867 l -0.0533,-0.876 c 0,0 -5.29867,0.31867 -6.044,0.328 -0.74533,0.009 -0.892,2.19067 -0.75867,2.84933 0.13334,0.65734 1.72,0.65734 2.55867,0.65734 0.84,0 3.81867,-0.11067 3.81867,-0.11067 z"
         style="fill:#000000;fill-opacity:1;fill-rule:nonzero;stroke:none;stroke-width:1.33333"
         id="path172050" /></g></g><g
     inkscape:groupmode="layer"
     id="layer2"
     inkscape:label="Bolian Ridge"
     style="display:none"><path
       style="display:inline;fill:none;stroke:#000000;stroke-width:0.8;stroke-linecap:butt;stroke-linejoin:miter;stroke-dasharray:none;stroke-opacity:1"
       d="m 260.11976,248.62275 23.2919,-42.7347"
       id="path1746"
       sodipodi:nodetypes="cc" /><path
       style="color:#000000;display:inline;fill:#000000;fill-opacity:0.2;-inkscape-stroke:none"
       d="m 280.56961,203.94359 -23.46249,43.15852 1.7902,0.83818 23.12351,-42.81954 z"
       id="path1748"
       sodipodi:nodetypes="ccccc" /></g></svg>
