<?xml version="1.0" encoding="UTF-8" standalone="no"?>
<!-- Created with Inkscape (http://www.inkscape.org/) -->

<svg
   version="1.1"
   id="svg171226"
   width="400"
   height="400"
   viewBox="0 0 400 400"
   sodipodi:docname="voyagerAverageMale.svg"
   inkscape:version="1.3.1 (91b66b0, 2023-11-16)"
   xml:space="preserve"
   xmlns:inkscape="http://www.inkscape.org/namespaces/inkscape"
   xmlns:sodipodi="http://sodipodi.sourceforge.net/DTD/sodipodi-0.dtd"
   xmlns="http://www.w3.org/2000/svg"
   xmlns:svg="http://www.w3.org/2000/svg"><defs
     id="defs171230" /><sodipodi:namedview
     id="namedview171228"
     pagecolor="#ffffff"
     bordercolor="#666666"
     borderopacity="1.0"
     inkscape:showpageshadow="2"
     inkscape:pageopacity="0.0"
     inkscape:pagecheckerboard="0"
     inkscape:deskcolor="#d1d1d1"
     showgrid="false"
     inkscape:zoom="9.32"
     inkscape:cx="200"
     inkscape:cy="199.14163"
     inkscape:window-width="1920"
     inkscape:window-height="1145"
     inkscape:window-x="2059"
     inkscape:window-y="74"
     inkscape:window-maximized="0"
     inkscape:current-layer="layer2"><inkscape:page
       x="0"
       y="0"
       id="page171232"
       width="400"
       height="400"
       margin="0"
       bleed="0" /></sodipodi:namedview><g
     inkscape:groupmode="layer"
     id="layer1"
     inkscape:label="Neck"
     style="display:none"><path
       d="m 213.63253,151.29441 -13.54934,47.14666 c 0,0 12.42667,24.85333 21.464,31.49067 9.03734,6.636 24.148,15.816 35.02134,17.228 l 3.67066,3.67066 2.82534,-2.824 5.224,-2.25866 3.81333,-10.87467 18.428,-23.08667 z"
       style="display:inline;fill:#cd976d;fill-opacity:1;fill-rule:nonzero;stroke:none;stroke-width:1.33333"
       id="path171974" /><path
       d="m 200.08306,198.44081 c 0,0 12.86667,21.57066 17.836,27.06399 4.96933,5.49334 32.696,1.83067 40.54267,4.18534 6.33866,1.90133 13.09866,2.66533 15.47066,2.89066 l 16.59734,-20.79333 -76.89734,-60.49333 z"
       style="display:inline;opacity:0.199997;fill:#000000;fill-opacity:1;fill-rule:nonzero;stroke:none;stroke-width:1.33333"
       id="path171984" /><path
       d="m 211.64493,149.52841 c -1.01067,4.99733 -6.2,23.82533 -7.36934,28.788 -0.956,4.064 -1.95733,8.11866 -3.072,12.14266 -0.516,1.85867 -1.07466,3.70267 -1.63333,5.54934 -0.18666,0.616 -0.95466,1.86266 -0.88133,2.47466 0.02,0.16934 0.80667,2.38267 1.11067,1.93733 3.68799,-5.38666 5.03733,-14.18666 7.12666,-20.38133 1.49067,-4.41866 7.06133,-22.68666 8.552,-27.104 0,0 -3.83333,-3.40666 -3.83333,-3.40666"
       style="display:inline;fill:#000000;fill-opacity:1;fill-rule:nonzero;stroke:none;stroke-width:1.33333"
       id="path171994" /><path
       d="m 293.27599,213.31907 c -2.83733,2.044 -16.28266,19.912 -18.592,22.53067 -1.87866,2.13066 -4.41733,10.85066 -7.52933,10.948 -2.104,0.0653 -1.74133,-3.72534 -1.19333,-5.332 0.26266,-0.76934 21.288,-30.90934 21.288,-30.90934 0,0 6.02666,2.76267 6.02666,2.76267"
       style="display:inline;fill:#000000;fill-opacity:1;fill-rule:nonzero;stroke:none;stroke-width:1.33333"
       id="path171998" /></g><g
     id="g171234"
     inkscape:groupmode="layer"
     inkscape:label="Page 1"
     style="display:inline"><path
       d="m 365.87434,352.66964 4.27392,9.63196 14.532,6.804 -0.87067,-26.57333 c -1.52533,-11.00267 -6.34267,-44.99867 -8.672,-52.57067 -2.78933,-9.06533 -4.292,-11.15866 -12.44533,-16.04 -8.15467,-4.88133 -35.12696,-17.13294 -45.54933,-21.61866 -9.84366,-4.23665 -26.816,-12.736 -37.04,-17.07867 l -6.6229,-1.6766 3.8589,8.04993 -0.29867,2.28667 c 0,0 4.84133,12.76133 6.26133,16.736 1.42,3.976 -3.40666,11.07333 -3.40666,11.07333 0,0 -6.92729,7.8901 -17.17567,7.90526 -9.22088,0.0136 -24.56167,-6.76926 -24.56167,-6.76926 l -3.40666,-4.54266 c 0,0 -15.332,-8.51734 -37.47733,-27.54 -22.14667,-19.024 -19.15963,-32.33064 -19.15963,-32.33064 l -3.70437,-1.44403 -40.91334,21.15467 -38.587996,22.548 -11.855999,6.044 -6.741334,6.27733 -9.459999,6.824 C 55.016154,282.27116 47.655892,295.12361 41.88121,310.7319 l -15.188357,70.92406 c 0,0 13.150519,7.02942 18.678216,6.85125 10.293721,-0.3318 56.340821,-19.53208 76.376951,-36.7507"
       style="fill:#d30000;fill-opacity:1;fill-rule:nonzero;stroke:none;stroke-width:1.33333"
       id="path171958"
       sodipodi:nodetypes="ccccccsccccccsccccccccccccsc" /><path
       d="M 384.67959,369.10547 385.69026,399.9668 25.664768,400 28.615936,377.28917 c 0,0 14.160212,9.93945 16.700145,10.05346 3.543486,0.15905 49.717495,-21.35514 77.030069,-36.66409 0,0 76.78507,-8.29453 152.63707,-6.7252 75.85333,1.56933 91.1313,6.68157 91.1313,6.68157 l 4.51211,5.43902 z"
       style="fill:#2d2d2d;fill-opacity:1;fill-rule:nonzero;stroke:none;stroke-width:1.33333"
       id="path171962"
       sodipodi:nodetypes="ccccscsccc" /><path
       d="m 196.9892,241.882 c 22.14533,19.02267 37.47733,27.54 37.47733,27.54 l 3.408,4.54267 38.00505,87.09109 3.73095,-88.22576 c 0,0 4.82666,-7.09866 3.40666,-11.07333 -1.42,-3.97467 -6.26,-16.73733 -6.26,-16.73733 l 0.29734,-2.28534 -4.08517,-7.17743 -0.56469,0.152 -5.72492,8.00014 -3.40129,1.93677 c -2.41514,0.68458 -5.01712,0.36506 -7.46167,0.11901 -10.87333,-1.412 -25.2316,-9.19582 -34.26893,-15.83315 -9.03867,-6.63734 -26.53474,-28.71611 -26.53474,-28.71611 -0.49631,-1.4612 -1.31557,-3.67235 -2.24533,-4.86756 -5.09909,4.58971 -9.6614,8.17182 -14.80947,12.70966 l 0.0893,0.68667 c 0,0 -3.20379,13.11534 18.94155,32.138"
       style="fill:#7d7d7d;fill-opacity:1;fill-rule:nonzero;stroke:none;stroke-width:1.33333"
       id="path171966"
       sodipodi:nodetypes="cccccsccccccccccccc" /><path
       d="m 276.07346,242.23054 c 0.33067,0.75333 0.6,1.59333 0.68267,2.78933 0.224,3.21333 -1.1,3.24933 -2.696,5.944 -2.38667,4.032 -3.48134,9.40133 -4.94667,13.80933 -0.872,-2.21866 -1.20133,-3.37733 -1.008,-5.648 0.196,-2.31333 0.44933,-4.564 1.104,-6.844 0.46533,-1.62266 3.62267,-4.36666 4.41467,-5.74133 1.59866,-2.768 0.99466,-5.07867 0.372,-8.04267 0.23866,0.32 0.43733,0.32667 0.74,0.59334 0.36,1.30533 0.90133,2.14666 1.33733,3.14"
       style="fill:#000000;fill-opacity:1;fill-rule:nonzero;stroke:none;stroke-width:1.33333"
       id="path172002" /><path
       d="m 367.95412,278.712 c 0,0 3.12934,28.84534 1.144,48.11334 0,0 3.30134,-23.672 0.824,-46.24134 z"
       style="fill:#000000;fill-opacity:1;fill-rule:nonzero;stroke:none;stroke-width:1.33333"
       id="path172006" /><path
       id="path172010"
       style="fill:#000000;fill-opacity:1;fill-rule:nonzero;stroke:none;stroke-width:1.33333"
       d="m 178.01574,207.07258 c -1.17467,-0.48666 -3.41066,-0.49889 -8.44531,0.84375 -4.85066,1.29467 -22.82997,12.28411 -43.53527,24.2614 -16.79064,9.71198 -32.650928,18.88602 -36.656254,20.38868 -8.445315,3.16665 -14.804241,9.80901 -15.878906,11.40234 -1.077331,0.63733 -5.047699,1.38449 -8.318359,3.61914 -9.85585,5.31259 -21.475267,23.52651 -28.478516,46.72656 C 30.984392,333.25922 24.036083,390.94613 23.314453,400 l 4.236328,-0.21484 1.593037,-21.09117 c 0,0 13.425928,9.46185 14.981182,10.51681 1.966903,-0.89456 51.256005,-22.20223 75.67197,-34.32534 0,0 1.8811,10.3329 2.22061,16.13407 0.33951,5.80118 1.95516,15.70987 1.26953,28.98047 h 3.12399 c 0.49001,-13.11168 -1.26612,-40.96018 -1.54769,-46.07697 -0.30168,-5.48247 129.75059,-6.32832 136.72523,-6.67632 0.87577,-0.0439 3.10389,-0.004 5.55898,0.0384 0,0 4.54647,12.01185 5.8931,18.16631 2.49001,11.37995 5.2653,34.5486 5.2653,34.5486 h 3.09375 c 0,0 -1.98506,-22.81146 -1.93563,-34.24437 0.0252,-5.82937 1.13785,-17.87465 1.13785,-17.87465 19.7729,0.50954 60.32686,1.93651 82.91949,5.36847 0,0 0.82645,29.41857 -0.46289,46.75055 h 5.57422 c 0.484,-9.21598 0.39501,-39.27392 0.66568,-42.79124 0,0 8.5946,9.25127 13.12791,12.73792 0,0 0.55122,17.44948 0.33922,30.02012 h 4.79102 l -2.30469,-57.4336 c -0.0733,-1.01867 -0.18937,-1.86516 -0.33203,-2.5625 -2.15734,-16.44929 -7.67836,-54.12103 -13.76367,-60.81836 -7.53598,-8.29865 -41.69837,-22.24903 -51.86523,-26.61132 -8.09012,-3.47122 -15.92271,-7.33462 -23.70405,-11.09729 -5.24504,-2.73058 -10.54692,-5.45888 -15.44049,-8.24256 -1.43682,-0.81733 -7.59147,-2.47497 -9.05279,-1.33764 -1.98933,1.54665 -2.06896,3.56001 -2.75733,6.41329 -0.72128,2.9897 -2.27368,4.14143 -4.96218,5.18911 -1.50968,0.5883 -5.13299,0.32719 -7.57812,0.0645 -14.74079,-1.58415 -23.93042,-8.1329 -33.5695,-15.84875 -17.21638,-13.78131 -28.13707,-30.81125 -28.29682,-31.11631 -0.68746,-1.54227 -3.45744,-2.24758 -4.61108,-0.48081 -1.35812,2.07992 -4.78215,6.01248 -11.30292,10.988 z m 41.57996,22.78094 c 10.3267,8.39776 19.88471,14.91757 35.12419,16.83312 4.05854,0.49292 9.00031,1.39128 12.37178,-1.54791 3.27511,-3.20608 4.13563,-7.62692 4.95191,-6.95564 1.97944,1.29036 2.91341,6.51052 4.39074,10.04606 2.31049,5.52941 4.55548,11.74459 3.80725,16.84561 -0.69467,4.732 -2.83399,9.76918 -2.83399,9.76918 0,0 -0.83592,12.65957 -0.93554,16.97106 -0.51993,22.50178 -0.65718,44.68206 -0.26669,57.3878 0.12176,3.9615 -0.16034,9.27678 -0.27332,11.0846 -0.0173,0.2774 -1.53114,-6.20314 -3.39361,-10.99811 -2.01589,-5.18994 -4.10505,-11.14548 -5.58272,-14.58827 -3.73222,-8.69562 -23.71354,-55.97326 -28.48878,-65.11615 -9.47409,-5.97039 -23.2541,-14.91078 -34.95802,-23.94067 -6.40664,-4.94133 -15.22678,-14.54704 -18.84182,-19.97463 -5.92295,-8.89268 -6.53667,-13.23231 -6.19667,-14.88831 4.48395,-3.67951 8.30115,-7.00182 11.39122,-10.33682 0.73694,-0.79535 1.85664,-0.52843 2.55521,0.5014 7.43799,10.96511 15.71354,19.58398 27.17886,28.90768 z m -45.25069,-19.47428 c -0.42533,0.848 0.6694,4.35981 1.03703,5.67723 1.06421,3.81308 3.37448,7.29156 6.43866,12.3294 4.65644,7.6557 11.91591,15.60581 26.98922,25.98446 8.7305,6.12433 16.86823,12.76624 26.09184,18.57748 11.37874,25.47543 19.22272,42.35638 29.98639,68.1322 l -140.05432,4.14687 c -3.00167,-11.22287 -9.67034,-27.10709 -16.45883,-38.21516 0,0 5.92627,14.39988 9.69017,31.21373 0.7587,3.47852 1.25416,6.73429 1.42907,9.02133 -11.81185,6.5523 -39.033991,19.98927 -74.968849,36.28237 -4.835683,-3.59425 -9.320596,-6.85828 -14.465954,-10.90252 1.510664,-11.19865 7.816425,-43.38436 11.616344,-57.8571 5.386878,-20.51699 17.764291,-36.14577 24.84961,-43.48242 7.085319,-7.33664 23.557383,3.63852 27.609375,9.20117 0.306665,-1.03467 -0.155258,-2.13012 -0.669922,-3.07812 -2.467996,-4.544 -6.364394,-7.99576 -10.761719,-10.6211 -1.478665,-0.88133 -3.620252,-1.56847 -4.65625,-2.98047 -0.306667,-0.42 11.426611,-7.80136 12.474609,-8.19336 4.258659,-1.59732 19.498616,-10.41249 37.142576,-20.61914 19.56662,-11.31729 38.31155,-22.7506 42.74621,-23.93327 2.17334,-0.58 2.96541,-0.57025 3.93474,-0.68358 z m 112.85226,29.44693 c 10.85858,5.69379 20.37294,10.86609 31.30834,15.70715 9.56556,4.23464 43.39405,18.15018 50.28736,25.73816 5.13198,5.64933 10.78207,42.52176 13.19141,61.26172 0.63864,5.392 1.3971,21.76895 1.3971,21.76895 l -13.66645,-14.94248 c -0.64933,-7.88014 -0.6702,-16.14736 -0.6702,-16.14736 -1.2,9.90531 -1.33792,10.03948 -2.76325,13.88346 -29.67647,-1.7945 -55.70064,-4.37377 -85.38392,-6.00031 -0.32623,-24.62005 -0.0217,-41.25658 0.0625,-65.90486 2.17519,-4.9934 3.65072,-10.60732 2.73909,-15.8055 -0.46171,-2.63271 -1.70251,-5.90656 -2.84518,-8.29854 -0.50133,-1.04934 -1.74668,-3.4132 -2.62028,-4.86338 0.12534,-0.46667 0.46596,-1.10123 0.68463,-1.52123 1.3,-2.49333 -3.40026,-6.7371 -4.16959,-8.91443 -0.044,-0.124 -0.58812,-1.22506 1.32319,-1.30506 1.91131,-0.08 7.74466,3.57107 11.12525,5.34371 z"
       sodipodi:nodetypes="ccccccscccccsccsccsccscccccccccccscscsscssscscscscssssscccscssscssccccccccsccccccccccssccccccccccccccs" /><path
       d="m 219.51133,258.96734 c -4.76,-3.34934 -14.796,-9.37067 -28.60533,-22.44 -13.80934,-13.07067 -13.34451,-26.61623 -13.34451,-26.61623 l 14.74399,-13.60228 2.24533,3.81466 c 1.44407,13.03706 11.95042,21.57799 20.29442,29.80199 7.41067,7.304 15.80179,14.11347 24.76343,17.04586 4.20667,1.052 3.568,11.54666 3.352,13.924 -0.216,2.37733 -9.3,8.028 -23.44933,-1.928"
       style="opacity:0.199997;fill:#000000;fill-opacity:1;fill-rule:nonzero;stroke:none;stroke-width:1.33333"
       id="path172060"
       sodipodi:nodetypes="cccccccsc" /><path
       d="m 177.38371,209.31698 -3.04929,-1.73788 -40.83746,20.5477 -38.589332,22.54934 -11.854667,6.044 -6.742666,6.276 -9.458667,6.824 -8.589333,6.69866 -18.386504,37.68383 C 33.495726,340.01066 28.912069,364.86061 26.4841,391.98601 L 26.678065,400 h 29.32244 c 21.624703,-77.54889 34.366618,-92.52242 41.105648,-98.36756 6.739027,-5.84515 15.611687,-9.92638 23.283687,-12.71571 67.72267,-24.62667 100.16406,-28.37187 100.16406,-28.37187 -23.41857,-16.92422 -34.6221,-28.38581 -43.17019,-51.22788 z"
       style="display:inline;opacity:0.199997;fill:#000000;fill-opacity:1;fill-rule:nonzero;stroke:none;stroke-width:1.33333"
       id="path172176"
       sodipodi:nodetypes="cccccccccccczccc" /><path
       d="m 163.9916,347.50206 c -14.48934,1.07867 -27.20271,1.63963 -33.85071,2.28229 l -6.20629,2.224 c 0,0 -0.35465,24.65548 1.52584,47.99165 l 23.71403,0 c 1.04,-22.69333 2.81197,-39.96681 5.0105,-43.57171 2.30154,-3.7738 6.05871,-6.78914 9.80663,-8.92623 z"
       style="opacity:0.199997;fill:#000000;fill-opacity:1;fill-rule:nonzero;stroke:none;stroke-width:1.33333"
       id="path172192"
       sodipodi:nodetypes="cccccsc" /><path
       d="m 269.84959,261.50507 c 1.02667,-1.524 4.72534,-6.69333 6.62667,-5.004 2.21867,1.97333 -2.24533,15.00667 -2.24533,15.00667 -2.31905,18.07636 -7.44937,41.61162 -9.42232,61.2359 l 11.22598,28.38366 3.57631,-88.29823 c 0,0 2.78266,-6.71067 2.78266,-10.16267 0,-3.452 -7.08708,-20.49262 -7.08708,-20.49262 -2.46955,3.56744 -5.81775,7.67504 -9.08747,8.53799 -1.07968,0.28495 -1.98543,4.70584 0.0913,13.83404 0.43049,1.89222 -1.80562,3.40562 -3.70826,4.42774 -4.32106,2.32132 -7.30893,2.11595 -12.3637,1.4749 -2.97855,-0.37773 -5.24759,-0.9322 -8.75292,-1.69754 0,0 6.64857,2.57305 11.00963,3.24768 2.78415,0.43069 6.57171,0.15786 8.56251,0.0438 2.40499,-0.13778 5.5207,-1.051 7.12803,-3.45733 1.34657,-2.01594 1.10933,-4.72 1.664,-7.08 z"
       style="opacity:0.199997;fill:#000000;fill-opacity:1;fill-rule:nonzero;stroke:none;stroke-width:1.33333"
       id="path172208"
       sodipodi:nodetypes="ccccccscsssscssscc" /><path
       style="opacity:0.2;fill:#000000;fill-opacity:1;stroke:none;stroke-width:0.911631px;stroke-linecap:butt;stroke-linejoin:miter;stroke-opacity:1"
       d="m 368.9541,353.5484 c 0,0 6.16873,24.64853 6.43777,33.1715 0.26904,8.52297 0.42919,13.2801 0.42919,13.2801 H 366.379 Z"
       id="path2"
       sodipodi:nodetypes="czccc" /><path
       style="color:#000000;fill:#000000;fill-opacity:0.2;-inkscape-stroke:none"
       d="m 174.57165,348.45086 -1.59571,0.11328 L 176.43359,400 h 1.59571 z m 158.47727,0.45056 -1.58984,0.18554 L 337.28125,400 h 1.58984 z"
       id="path4"
       sodipodi:nodetypes="cccccccccc" /><g
       id="g5"
       transform="translate(0,-2)"><path
         id="path172022"
         style="fill:#d9a14b;fill-opacity:1;fill-rule:nonzero;stroke:none;stroke-width:1.33333"
         d="m 348.58052,376.90493 c -0.228,0.30267 -6.48933,-0.136 -6.48933,-0.136 l -0.35867,0.0307 -0.74933,-3.02533 6.96267,0.33333 c 0,0 0.564,0.80133 0.568,0.84667 0.005,0.0453 0.29466,1.648 0.0667,1.95066 m 1.51067,-3.548 c -0.63733,-2.30133 -1.87867,-3.83466 -2.996,-4.05333 -1.11733,-0.22 -8.70267,-0.11067 -8.70267,-0.11067 l 5.02934,13.148 c 0,0 7.66,-1.096 7.92666,-1.86266 0.26534,-0.76667 -0.62,-4.82134 -1.25733,-7.12134 m -29.2663,0.75037 7.64266,-0.33333 -0.33066,3.02533 -0.40134,-0.0307 c 0,0 -6.85066,0.43866 -7.152,0.136 -0.30133,-0.30267 -0.24533,-1.90534 -0.248,-1.95065 -0.003,-0.0453 0.48934,-0.84665 0.48934,-0.84665 z m -2.71334,6.37063 c 0.42134,0.76667 9.07067,1.86267 9.07067,1.86267 l 3.39467,-13.14667 c 0,0 -8.404,-0.11067 -9.60267,0.10933 -1.2,0.21867 -2.31867,1.752 -2.644,4.05334 -0.32667,2.30133 -0.63867,6.35466 -0.21867,7.12133" /><path
         d="m 325.07319,398.59747 c -0.16933,0 -0.344,-0.048 -0.50533,-0.144 -0.38,-0.228 -0.62933,-0.68534 -0.636,-1.172 -0.007,-0.49467 -0.14933,-12.216 1.86933,-20.72267 2.048,-8.62533 5.78934,-17.97333 7.144,-20.19067 0.19467,-0.316 0.51467,-0.49066 0.85733,-0.472 0.344,0.02 0.67067,0.232 0.87734,0.572 0.40933,0.67334 10.048,16.73067 12.68266,38.38267 0.0693,0.56933 -0.19733,1.092 -0.64666,1.272 -0.448,0.18133 -0.96667,-0.028 -1.25867,-0.508 -1.79333,-2.93733 -5.16,-7.21067 -6.788,-7.21067 -0.0213,0 -0.044,0 -0.0653,0.003 -1.82667,0.13467 -8.644,5.89067 -12.90133,9.93467 -0.17867,0.16933 -0.40134,0.256 -0.62934,0.256"
         style="fill:#d9a14b;fill-opacity:1;fill-rule:nonzero;stroke:none;stroke-width:1.33333"
         id="path172026" /><path
         d="m 333.80212,356.72613 c -0.108,0 -0.208,0.0587 -0.26933,0.15867 -1.33066,2.17733 -5.01733,11.40667 -7.04533,19.94933 -1.99467,8.39734 -1.852,20.00267 -1.84533,20.49334 0.003,0.16133 0.0853,0.31466 0.212,0.39066 0.12266,0.0733 0.27733,0.0587 0.37866,-0.0373 2.896,-2.752 10.92667,-9.93067 13.27733,-10.104 l 0.108,-0.004 c 2.27467,0 6.11734,5.48 7.40667,7.592 0.0973,0.16 0.26933,0.228 0.41733,0.17067 0.152,-0.0613 0.24134,-0.236 0.21734,-0.42534 -2.60934,-21.44933 -12.144,-37.32666 -12.548,-37.992 -0.0693,-0.11333 -0.17867,-0.18533 -0.292,-0.19066 -0.005,-0.001 -0.012,-0.001 -0.0173,-0.001 m -8.67733,42.70267 c -0.288,0 -0.57866,-0.0827 -0.84266,-0.24 -0.632,-0.38 -1.048,-1.14533 -1.06,-1.95333 -0.007,-0.49867 -0.152,-12.33334 1.89466,-20.952 2.06667,-8.70534 5.86267,-18.17467 7.24134,-20.42934 0.32266,-0.52666 0.85066,-0.82533 1.42666,-0.78933 0.57333,0.0333 1.12,0.38933 1.464,0.95467 0.41333,0.68 10.156,16.90533 12.816,38.77333 0.116,0.94667 -0.32667,1.81867 -1.076,2.11867 -0.748,0.30133 -1.612,-0.0453 -2.1,-0.84534 -2.14267,-3.51066 -5.14,-6.83066 -6.168,-6.83066 -1.47867,0.108 -7.67466,5.13733 -12.548,9.76666 -0.28933,0.27467 -0.66266,0.42667 -1.048,0.42667"
         style="fill:#000000;fill-opacity:1;fill-rule:nonzero;stroke:none;stroke-width:1.33333"
         id="path172030" /><path
         d="m 333.90839,359.4808 c -1.61066,3.492 -4.41733,11.02 -6.05066,17.904 -1.372,5.77467 -1.70267,13.32933 -1.77734,17.30933 3.332,-3.04666 9.71733,-8.592 12.24,-8.77733 2.024,-0.152 4.45467,2.31333 6.27467,4.64 -2.58934,-15.004 -8.412,-26.85467 -10.68667,-31.076"
         style="fill:#999999;fill-opacity:1;fill-rule:nonzero;stroke:none;stroke-width:1.33333"
         id="path172034" /><path
         id="path172046"
         style="fill:#000000;fill-opacity:1;fill-rule:nonzero;stroke:none;stroke-width:1.33333"
         d="m 324.97719,382.88827 c 0,0 -6.39733,-0.876 -7.10533,-1.75334 -0.70667,-0.876 -0.588,-4.44933 -0.256,-6.64 0.332,-2.192 0.97867,-4.848 3.184,-5.396 2.20533,-0.548 7.284,-1.00133 7.284,-1.00133 l -0.432,2.08133 c 0,0 -6.832,-0.15466 -7.51733,0.65734 -0.54134,0.64266 -1.34934,2.54 -1.61467,4.29333 -0.26667,1.75333 -0.388,4.14267 -0.068,4.8 0.32,0.65733 7.07067,1.20533 7.07067,1.20533 z m 20.52067,0 c 0,0 5.656,-0.876 6.16533,-1.75334 0.508,-0.876 -0.0187,-4.41733 -0.64667,-6.608 -0.62666,-2.192 -1.36933,-5.00533 -3.44533,-5.55333 -2.07733,-0.54667 -7.08667,-0.876 -7.08667,-0.876 l 0.70134,2.08133 c 0,0 6.06666,0.0227 6.89733,0.65734 0.96933,0.74133 1.65333,2.07066 1.972,3.944 0.30533,1.79866 1.096,4.492 0.904,5.14933 -0.192,0.65733 -6.216,1.20533 -6.216,1.20533 z" /><path
         id="path172050"
         style="fill:#000000;fill-opacity:1;fill-rule:nonzero;stroke:none;stroke-width:1.33333"
         d="m 326.34773,376.3148 c 0,0 -4.372,0.21867 -5.30534,0.21867 -0.932,0 -0.49333,-1.972 0.25334,-1.972 0.74666,0 5.49066,-0.21867 5.49066,-0.21867 l -0.0533,-0.876 c 0,0 -5.29867,0.31867 -6.044,0.328 -0.74533,0.009 -0.892,2.19067 -0.75867,2.84933 0.13334,0.65734 1.72,0.65734 2.55867,0.65734 0.84,0 3.81867,-0.11067 3.81867,-0.11067 z m 16.93146,0 c 0,0 3.98667,0.21867 4.83067,0.21867 0.844,0 0.15333,-1.972 -0.52267,-1.972 -0.67467,0 -4.99867,-0.21867 -4.99867,-0.21867 l -0.0827,-0.876 c 0,0 4.84,0.31867 5.516,0.328 0.676,0.009 1.13333,2.19067 1.11066,2.84933 -0.0227,0.65734 -1.45733,0.65734 -2.21733,0.65734 -0.75867,0 -3.46933,-0.11067 -3.46933,-0.11067 z" /></g></g><g
     inkscape:groupmode="layer"
     id="layer2"
     inkscape:label="Bolian Ridge"
     style="display:none"><path
       style="display:inline;fill:none;stroke:#000000;stroke-width:0.8;stroke-linecap:butt;stroke-linejoin:miter;stroke-dasharray:none;stroke-opacity:1"
       d="m 260.11976,248.62275 23.2919,-42.7347"
       id="path1746"
       sodipodi:nodetypes="cc" /><path
       style="color:#000000;display:inline;fill:#000000;fill-opacity:0.2;-inkscape-stroke:none"
       d="m 280.56961,203.94359 -23.46249,43.15852 1.7902,0.83818 23.12351,-42.81954 z"
       id="path1748"
       sodipodi:nodetypes="ccccc" /></g></svg>
