<?xml version="1.0" encoding="UTF-8" standalone="no"?>
<!-- Created with Inkscape (http://www.inkscape.org/) -->

<svg
   width="400"
   height="400"
   viewBox="0 0 400 400"
   version="1.1"
   id="svg1"
   xml:space="preserve"
   inkscape:version="1.3.2 (091e20e, 2023-11-25)"
   sodipodi:docname="MedicalSymbol.svg"
   xmlns:inkscape="http://www.inkscape.org/namespaces/inkscape"
   xmlns:sodipodi="http://sodipodi.sourceforge.net/DTD/sodipodi-0.dtd"
   xmlns="http://www.w3.org/2000/svg"
   xmlns:svg="http://www.w3.org/2000/svg"><sodipodi:namedview
     id="namedview1"
     pagecolor="#ffffff"
     bordercolor="#666666"
     borderopacity="1.0"
     inkscape:showpageshadow="2"
     inkscape:pageopacity="0.0"
     inkscape:pagecheckerboard="0"
     inkscape:deskcolor="#d1d1d1"
     inkscape:document-units="px"
     showguides="true"
     inkscape:zoom="1.71"
     inkscape:cx="200"
     inkscape:cy="199.7076"
     inkscape:window-width="1440"
     inkscape:window-height="1064"
     inkscape:window-x="2782"
     inkscape:window-y="53"
     inkscape:window-maximized="0"
     inkscape:current-layer="layer1"><sodipodi:guide
       position="242.5,282.41206"
       orientation="-1,0"
       id="guide1"
       inkscape:locked="false"
       inkscape:label=""
       inkscape:color="rgb(0,134,229)" /></sodipodi:namedview><defs
     id="defs1" /><g
     inkscape:label="Layer 1"
     inkscape:groupmode="layer"
     id="layer1"><g
       id="g11"><path
         id="path5"
         style="fill:#026106;stroke:#000000;stroke-width:0.8;stroke-linecap:butt;stroke-linejoin:miter;stroke-opacity:1;stroke-dasharray:none;fill-opacity:1"
         d="M 242.40039 107.95508 L 242.40039 107.97266 C 239.85144 108.17085 235.44844 115.59176 235.43164 119.56055 C 235.41614 123.23536 237.08006 127.67153 239.64648 135.71484 C 236.41914 136.81264 234.05974 137.69107 225.79492 139.0293 C 220.59025 139.87204 210.80696 140.8653 210.05078 140.53516 C 210.44851 139.29164 213.40853 135.2394 215.93945 132.87695 C 217.44699 131.46977 221.54349 131.42595 222.2832 130.37695 C 224.88739 126.68391 226.19861 122.66743 224.36719 120.96875 C 223.14357 119.83382 217.34197 122.00174 214.80078 124.72656 C 213.49821 126.12326 213.45867 128.19429 212.5625 129.81641 C 210.44319 133.65248 205.35373 140.03956 205.19336 141.10547 C 205.13626 141.48503 200.92591 141.67313 201.01367 142.48828 C 201.13942 143.65644 205.03306 143.43501 205.24414 143.94336 C 205.71393 145.07479 208.41801 149.09244 210.39453 151.45117 C 214.0587 155.82389 219.47888 158.4821 222.94727 162.98242 C 227.28677 168.61306 231.45952 173.63265 233.86133 179.81055 C 237.15171 188.27409 237.79563 198.15291 238.02344 206.36523 C 238.11744 209.75471 233.65499 214.20527 233.82031 216.13281 C 234.05357 218.85249 238.97148 220.51483 238.97852 223.51758 C 238.98452 226.1385 235.14458 227.94653 234.86719 230.55273 C 234.60491 233.01702 237.35352 236.85156 237.35352 236.85156 L 242.40039 236.85156 L 242.5 236.85156 L 247.54688 236.85156 C 247.54688 236.85156 250.29548 233.01702 250.0332 230.55273 C 249.75581 227.94653 245.91588 226.1385 245.92188 223.51758 C 245.92891 220.51483 250.84682 218.85249 251.08008 216.13281 C 251.2454 214.20527 246.78295 209.75471 246.87695 206.36523 C 247.10476 198.15291 247.74868 188.27409 251.03906 179.81055 C 253.44087 173.63265 257.61167 168.61306 261.95117 162.98242 C 265.41956 158.4821 270.84169 155.82389 274.50586 151.45117 C 276.48238 149.09244 279.18646 145.07479 279.65625 143.94336 C 279.86733 143.43501 283.76097 143.65644 283.88672 142.48828 C 283.97448 141.67313 279.76413 141.48503 279.70703 141.10547 C 279.54666 140.03956 274.4572 133.65248 272.33789 129.81641 C 271.44172 128.19429 271.40218 126.12326 270.09961 124.72656 C 267.55842 122.00174 261.75682 119.83382 260.5332 120.96875 C 258.70178 122.66743 260.01105 126.68391 262.61523 130.37695 C 263.35494 131.42595 267.45145 131.46977 268.95898 132.87695 C 271.48991 135.2394 274.45188 139.29164 274.84961 140.53516 C 274.09343 140.8653 264.30819 139.87204 259.10352 139.0293 C 250.83869 137.69107 248.48125 136.81264 245.25391 135.71484 C 247.82033 127.67153 249.48425 123.23536 249.46875 119.56055 C 249.45195 115.59176 245.04895 108.17085 242.5 107.97266 L 242.5 107.95508 C 242.48376 107.95516 242.46562 107.96414 242.44922 107.96484 C 242.43343 107.96419 242.41603 107.95516 242.40039 107.95508 z M 210.61523 144.29492 C 213.76606 144.11628 237.41574 146.63633 238.44141 148.96875 C 238.78248 149.74436 235.41074 161.74711 230.5332 162.7168 C 227.36511 163.34664 223.32572 157.81446 220.0918 154.91211 C 216.5171 151.70392 209.92467 145.21318 210.27148 144.36719 C 210.28655 144.33044 210.40518 144.30683 210.61523 144.29492 z M 273.39453 144.29492 C 274.15352 144.27249 274.59878 144.2937 274.62891 144.36719 C 274.97572 145.21318 268.38329 151.70392 264.80859 154.91211 C 261.57467 157.81446 257.53528 163.34664 254.36719 162.7168 C 249.48965 161.74711 246.11791 149.74436 246.45898 148.96875 C 247.41628 146.79182 268.08164 144.45195 273.39453 144.29492 z " /><path
         style="fill:#ffbd08;stroke:#000000;stroke-width:0.8;stroke-linecap:butt;stroke-linejoin:miter;stroke-opacity:1;stroke-dasharray:none;fill-opacity:1"
         d="m 236.91647,236.74112 10.77683,0.0921 c 0.75654,-0.008 0.62395,0.30734 0.54803,0.50775 -1.3078,3.77222 -2.38907,7.59833 -2.29833,12.15902 l -2.643,1e-5 v 18.146 h -2 V 249.5 h -2.21211 c -0.23902,-4.21891 -0.57266,-8.36684 -2.49468,-12.24012 -0.27055,-0.30657 0.1605,-0.52143 0.32326,-0.51876 z"
         id="path6"
         sodipodi:nodetypes="ccccccccccc" /><path
         id="rect6"
         style="fill-opacity:0.30000001;fill-rule:evenodd;stroke-width:0.8;stroke-linecap:round;stroke-linejoin:round;stroke-miterlimit:20;stroke-opacity:0.5;fill:#000000"
         d="M 242.40039 107.95508 L 242.40039 107.97266 C 239.85144 108.17085 235.44844 115.59176 235.43164 119.56055 C 235.41614 123.23534 237.08008 127.67155 239.64648 135.71484 C 237.15415 136.56263 235.10596 137.28466 230.5293 138.18359 L 241.19336 137.00781 C 241.49562 127.80399 242.4707 113.52344 242.4707 113.52344 C 242.4707 113.52344 243.33453 127.69874 243.60938 136.95508 L 255.9375 138.46484 C 250.3233 137.43577 247.98975 136.64546 245.25391 135.71484 C 247.82031 127.67155 249.48425 123.23534 249.46875 119.56055 C 249.45195 115.59176 245.04895 108.17085 242.5 107.97266 L 242.5 107.95508 C 242.48376 107.95516 242.46562 107.96414 242.44922 107.96484 C 242.43343 107.96419 242.41603 107.95516 242.40039 107.95508 z M 223.24805 120.66016 C 223.08143 120.66055 222.90181 120.6718 222.71289 120.69336 C 220.44586 120.95201 216.70667 122.68295 214.80078 124.72656 C 213.49821 126.12326 213.45867 128.19429 212.5625 129.81641 C 210.49793 133.55339 205.64912 139.67359 205.25 140.97461 L 210.09375 140.43945 C 210.5841 139.11129 213.45991 135.19145 215.93945 132.87695 C 217.44699 131.46977 221.54349 131.42595 222.2832 130.37695 C 224.88739 126.68393 226.19861 122.66743 224.36719 120.96875 C 224.13776 120.75595 223.74789 120.65899 223.24805 120.66016 z M 261.5918 120.66211 C 261.44875 120.66412 261.31421 120.6741 261.19141 120.69336 C 260.9107 120.73737 260.68616 120.82688 260.5332 120.96875 C 258.70178 122.66743 260.01107 126.68393 262.61523 130.37695 C 263.35494 131.42595 267.45147 131.46977 268.95898 132.87695 C 271.48991 135.2394 274.45188 139.29164 274.84961 140.53516 C 274.68231 140.6082 274.02106 140.60892 273.11719 140.56836 L 281.89062 141.64258 C 280.82822 141.44199 279.73597 141.29785 279.70703 141.10547 C 279.54666 140.03956 274.4572 133.65246 272.33789 129.81641 C 271.44172 128.19429 271.40218 126.12326 270.09961 124.72656 C 268.01504 122.49137 263.73752 120.63198 261.5918 120.66211 z " /><path
         id="rect9"
         style="fill-opacity:0.3;fill-rule:evenodd;stroke-width:0.8;stroke-linecap:round;stroke-linejoin:round;stroke-miterlimit:20;stroke-opacity:0.5"
         d="m 279.34375,144.51172 -4.90625,0.4414 c -1.10206,1.86871 -6.51081,7.16058 -9.62891,9.95899 -3.23391,2.90235 -7.27332,8.43453 -10.4414,7.80469 -4.87754,-0.96969 -8.24928,-12.97244 -7.90821,-13.74805 0.29976,-0.68165 2.63467,-1.37209 5.72266,-2.01367 l -9.5,0.85351 -9.80469,-0.82421 c 3.01062,0.63305 5.26955,1.31373 5.56446,1.98437 0.34107,0.77561 -3.03067,12.77836 -7.90821,13.74805 -3.16808,0.62984 -7.20749,-4.90234 -10.4414,-7.80469 -3.04604,-2.73373 -8.24777,-7.82164 -9.51563,-9.79883 l -4.91601,-0.41406 c 0.89911,1.59814 3.04124,4.73142 4.73437,6.75195 3.66417,4.37272 9.08435,7.03094 12.55274,11.53125 2.74737,3.56481 5.42425,6.88619 7.63085,10.41016 l 12.11194,-1.75439 11.63025,1.75439 c 2.20604,-3.52399 4.88347,-6.84533 7.63086,-10.41016 3.46839,-4.50031 8.89052,-7.15853 12.55469,-11.53125 1.76347,-2.10449 4.0197,-5.42196 4.83789,-6.93945 z m -42.59961,46.42383 c 0.85484,5.30274 1.14667,10.64852 1.2793,15.42968 0.094,3.38948 -4.36845,7.84004 -4.20313,9.76758 0.23326,2.71968 5.15117,4.38202 5.15821,7.38477 0.006,2.62092 -3.83394,4.42896 -4.11133,7.03515 -0.26228,2.46429 2.48633,6.29883 2.48633,6.29883 h 5.04687 0.0996 5.04688 c 0,0 2.7486,-3.83454 2.48632,-6.29883 -0.27739,-2.60619 -4.11732,-4.41423 -4.11132,-7.03515 0.007,-3.00275 4.92494,-4.66509 5.1582,-7.38477 0.16532,-1.92754 -4.29713,-6.3781 -4.20313,-9.76758 0.13263,-4.78116 0.42446,-10.12694 1.2793,-15.42968 z"
         sodipodi:nodetypes="ccssscccsssccsscccssccsscsccccscsscc" /><g
         id="g2"><path
           id="path1"
           style="fill:#d8d8d8;fill-opacity:1;fill-rule:evenodd;stroke:#000000;stroke-width:1;stroke-linecap:round;stroke-linejoin:round;stroke-miterlimit:20;stroke-dasharray:none;stroke-opacity:1"
           d="M 242.96484 162.40234 A 18 18 0 0 0 224.96484 180.40234 A 18 18 0 0 0 242.96484 198.40234 A 18 18 0 0 0 260.96484 180.40234 A 18 18 0 0 0 242.96484 162.40234 z M 242.96484 168.43164 A 11.969851 11.969851 0 0 1 254.93555 180.40234 A 11.969851 11.969851 0 0 1 242.96484 192.37109 A 11.969851 11.969851 0 0 1 230.99414 180.40234 A 11.969851 11.969851 0 0 1 242.96484 168.43164 z " /><circle
           style="fill:none;fill-opacity:1;fill-rule:evenodd;stroke:#ffffff;stroke-width:2.568;stroke-linecap:round;stroke-linejoin:round;stroke-miterlimit:20;stroke-dasharray:none;stroke-opacity:0.30000001"
           id="circle2"
           cx="242.96484"
           cy="180.40234"
           r="15.17084" /><circle
           style="fill:none;fill-opacity:1;fill-rule:evenodd;stroke:#ffffff;stroke-width:1.06837;stroke-linecap:round;stroke-linejoin:round;stroke-miterlimit:20;stroke-dasharray:none;stroke-opacity:0.5"
           id="path2"
           cx="242.96484"
           cy="180.40234"
           r="15.17084" /></g><g
         id="g4"
         transform="matrix(0.70120875,0,0,0.70120875,72.595769,96.616209)"><path
           id="path3"
           style="fill:#d8d8d8;fill-opacity:1;fill-rule:evenodd;stroke:#000000;stroke-width:1;stroke-linecap:round;stroke-linejoin:round;stroke-miterlimit:20;stroke-dasharray:none;stroke-opacity:1"
           d="m 242.96484,162.40234 a 18,18 0 0 0 -18,18 18,18 0 0 0 18,18 18,18 0 0 0 18,-18 18,18 0 0 0 -18,-18 z m 0,6.0293 a 11.969851,11.969851 0 0 1 11.97071,11.9707 11.969851,11.969851 0 0 1 -11.97071,11.96875 11.969851,11.969851 0 0 1 -11.9707,-11.96875 11.969851,11.969851 0 0 1 11.9707,-11.9707 z" /><circle
           style="fill:none;fill-opacity:1;fill-rule:evenodd;stroke:#ffffff;stroke-width:2.35307959;stroke-linecap:round;stroke-linejoin:round;stroke-miterlimit:20;stroke-dasharray:none;stroke-opacity:0.3"
           id="circle3"
           cx="242.96484"
           cy="180.40234"
           r="15.17084" /><circle
           style="fill:none;fill-opacity:1;fill-rule:evenodd;stroke:#ffffff;stroke-width:1.06837;stroke-linecap:round;stroke-linejoin:round;stroke-miterlimit:20;stroke-dasharray:none;stroke-opacity:0.5"
           id="circle4"
           cx="242.96484"
           cy="180.40234"
           r="15.17084" /></g><path
         id="path9"
         style="color:#000000;fill:#ffffff;fill-opacity:0.2;-inkscape-stroke:none"
         d="M 242.4707 113.52344 C 242.4707 113.52344 241.14557 132.86637 241.10156 141.03906 C 232.53496 141.13444 214.18164 142.25195 214.18164 142.25195 C 214.18164 142.25195 232.67763 143.51677 241.125 143.61133 C 241.27886 152.84322 242.32422 170.83398 242.32422 170.83398 C 242.32422 170.83398 243.5037 152.74215 243.66797 143.60742 C 252.68627 143.49255 271.49023 142.39844 271.49023 142.39844 C 271.49023 142.39844 252.61481 141.16681 243.69336 141.04492 C 243.64429 132.75398 242.4707 113.52344 242.4707 113.52344 z " /><path
         id="rect10"
         style="fill:#ffffff;fill-opacity:0.30000001;fill-rule:evenodd;stroke:none;stroke-width:0.740697;stroke-linecap:round;stroke-linejoin:round;stroke-miterlimit:20;stroke-dasharray:none;stroke-opacity:0.3"
         d="M 291.77444 185.37744 C 292.60854 186.38262 293.32004 187.43641 293.94135 188.52907 L 302.83605 188.52948 C 302.78683 187.46631 302.79064 186.41899 302.82265 185.37841 L 291.77444 185.37744 z "
         transform="matrix(0.9795721,0.20109326,-0.26511387,0.96421711,0,0)" /><path
         id="path11"
         style="fill:#ffffff;fill-opacity:0.5;fill-rule:evenodd;stroke:none;stroke-width:0.435036;stroke-linecap:round;stroke-linejoin:round;stroke-miterlimit:20;stroke-dasharray:none;stroke-opacity:0.3"
         d="m 236.89893,238.40245 c 0.46862,0.46175 0.80412,0.9129 1.04067,1.35715 l 8.50376,1.79781 c 0.30074,-0.32005 0.647,-0.62473 1.01802,-0.92175 z" /><path
         style="fill:none;stroke:#000000;stroke-width:0.8;stroke-linecap:butt;stroke-linejoin:miter;stroke-opacity:1;stroke-dasharray:none;fill-opacity:1"
         d="m 236.91647,236.74112 10.77683,0.0921 c 0.75654,-0.008 0.62395,0.30734 0.54803,0.50775 -1.3078,3.77222 -2.38907,7.59833 -2.29833,12.15902 l -2.643,1e-5 v 18.146 h -2 V 249.5 h -2.21211 c -0.23902,-4.21891 -0.57266,-8.36684 -2.49468,-12.24012 -0.27055,-0.30657 0.1605,-0.52143 0.32326,-0.51876 z"
         id="path10"
         sodipodi:nodetypes="ccccccccccc" /></g></g></svg>
