<?xml version="1.0" encoding="UTF-8" standalone="no"?>
<!-- Created with Inkscape (http://www.inkscape.org/) -->

<svg
   width="400"
   height="400"
   viewBox="0 0 400 400"
   version="1.1"
   id="svg15392"
   xml:space="preserve"
   inkscape:version="1.3.2 (091e20e, 2023-11-25)"
   sodipodi:docname="TwokAverageFemale.svg"
   xmlns:inkscape="http://www.inkscape.org/namespaces/inkscape"
   xmlns:sodipodi="http://sodipodi.sourceforge.net/DTD/sodipodi-0.dtd"
   xmlns="http://www.w3.org/2000/svg"
   xmlns:svg="http://www.w3.org/2000/svg"><sodipodi:namedview
     id="namedview15394"
     pagecolor="#ffffff"
     bordercolor="#666666"
     borderopacity="1.0"
     inkscape:showpageshadow="2"
     inkscape:pageopacity="0.0"
     inkscape:pagecheckerboard="0"
     inkscape:deskcolor="#d1d1d1"
     inkscape:document-units="px"
     showgrid="false"
     inkscape:zoom="1.9975"
     inkscape:cx="200"
     inkscape:cy="200"
     inkscape:window-width="1872"
     inkscape:window-height="1066"
     inkscape:window-x="2238"
     inkscape:window-y="44"
     inkscape:window-maximized="0"
     inkscape:current-layer="layer2"
     showguides="false"><sodipodi:guide
       position="0,382.97872"
       orientation="0.70710678,-0.70710678"
       id="guide1"
       inkscape:locked="false" /></sodipodi:namedview><defs
     id="defs15389"><inkscape:path-effect
       effect="perspective-envelope"
       up_left_point="293.53755,309.08275"
       up_right_point="354.06539,311.38"
       down_left_point="293.53755,350.55401"
       down_right_point="354.06539,347.55"
       id="path-effect34728"
       is_visible="true"
       lpeversion="1"
       deform_type="perspective"
       horizontal_mirror="false"
       vertical_mirror="false"
       overflow_perspective="false" /></defs><g
     inkscape:groupmode="layer"
     id="layer2"
     inkscape:label="Uniform"><path
       d="m 197.15857,245.26934 c 12.44419,11.15185 26.06064,20.75421 40.71596,28.69533 l 16.57092,6.81348 c 0,0 5.66658,2.14636 16.40264,-0.12131 0,0 4.02982,-0.97917 6.34897,-4.05755 4.06475,-5.52191 5.46947,-9.93329 5.8148,-14.83595 -0.70533,-1.992 -2.26933,-6.17867 -3.65733,-9.86534 -1.388,-3.688 -3.5092,-7.37604 -3.5092,-7.37604 l 0.54603,-2.20244 -6.6015,-7.936 -1.50067,11.36382 -5.22533,2.25866 -3.29681,-0.30705 -3.19919,-0.53961 c -10.87333,-1.412 -25.98267,-10.59067 -35.02,-17.228 -10.01145,-8.5184 -21.15817,-19.29598 -28.11233,-30.25999 -3.90769,4.21318 -4.58286,6.949 -6.33936,12.86793 -4.58462,11.28159 -4.80489,12.57728 -0.94623,20.01595 1.25467,2.11333 1.86192,3.63744 3.80592,5.98677"
       style="fill:#d30000;fill-opacity:1;fill-rule:nonzero;stroke:none;stroke-width:1.33333"
       id="path283406"
       sodipodi:nodetypes="ccccccccccccccccccc" /><path
       d="m 166.40786,352.36173 c -13.788,1.07867 -41.09141,2.2892 -47.41674,2.93187 l 0.10802,1.98448 c 0,0 0.60202,20.67247 0.81871,42.72192 h 24.39935 c 0.988,-22.69334 5.00266,-38.22227 22.09066,-47.63827"
       style="opacity:0.199997;fill:#000000;fill-opacity:1;fill-rule:nonzero;stroke:none;stroke-width:1.33333"
       id="path283476"
       sodipodi:nodetypes="cccccc" /><path
       d="m 176.58986,354.74787 c 4.16667,0 9.35734,-0.596 13.644,0.0787 5.37734,0.84667 11.252,3.16667 16.60533,4.57467 4.82,1.268 9.93067,2.93733 14.808,3.392 5.33067,0.49867 9.59734,2.552 14.85067,3.85867 8.92667,2.22133 17.712,4.61733 26.58,6.37466 8.95333,1.77334 15.488,5.63467 23.57333,-0.756 3.796,-3 7.37067,-6.68933 11.23867,-9.76933 4.53067,-3.608 9.28533,-5.48267 14.72,-7.296 2.20133,-0.73467 4.416,-1.43333 6.60533,-2.20267 0.876,-0.308 3.648,-1.972 4.492,-1.81466 -7.468,-1.384 -28.83466,-2.71067 -36.684,-3.816 -9.848,-1.38534 -19.03066,-1.24534 -28.98933,-1.02 -11.48,0.25866 -22.93067,1.90933 -34.412,2.456 -11.78133,0.56266 -23.61333,0.036 -35.392,0.34266 -3.44266,0.0893 -9.14133,-0.50533 -11.648,1.39067 -4.23733,3.20533 1.11067,3.74133 0.008,4.20667"
       style="opacity:0.199997;fill:#000000;fill-opacity:1;fill-rule:nonzero;stroke:none;stroke-width:1.33333"
       id="path283492" /><path
       id="path283350"
       style="fill:#700000;fill-opacity:1;fill-rule:nonzero;stroke:none;stroke-width:1.33333"
       d="m 181.8125,224.46289 c -14.34653,6.44949 -26.45646,10.66797 -50.14844,24.25195 -16.34719,4.40719 -44.527641,13.60251 -56.769857,17.48963 -12.242216,3.88712 -16.062852,6.10028 -19.564317,8.22657 -13.770242,16.45254 -14.430791,36.59407 -17.400319,53.39054 -2.121333,11.89197 -2.523282,23.3537 -4.052614,37.84834 -1.99309,13.07597 -2.627226,24.69107 -1.937511,34.29686 H 380.42 c 0.0779,-6.59663 -0.22775,-9.31156 -0.1637,-12.3086 0.0641,-2.99704 0.0829,-4.2709 -0.30294,-7.96488 -0.38578,-3.69398 -0.28572,-5.48083 -0.22875,-11.01363 0.057,-5.5328 1.21884,-17.81157 -1.0625,-25.49024 -1.22133,-4.10532 -3.55415,-13.66091 -4.77149,-17.76757 -4.57179,-18.13193 -5.00405,-34.08241 -13.38704,-48.80626 -0.46375,-0.81451 -3.38589,-3.83976 -5.80235,-3.40344 -2.3941,0.43229 -5.46297,3.61522 -6.2916,3.19369 -3.16137,-1.60826 -6.22937,-1.87321 -12.15182,-4.08521 -9.04161,-3.37698 -21.74469,-9.77034 -34.15039,-11.20933 -5.24833,-0.67437 -13.24175,-7.73496 -17.09375,-9.26563 -4.10259,-3.17145 -3.03089,-1.02332 -7.12695,-5.58984 0,0 0.36395,0.8192 1.75195,4.50586 0.85333,2.26934 2.54604,5.05155 2.72071,7.43555 0.21332,2.88933 0.32897,6.6699 -0.32969,9.45523 -0.71334,3.00932 -5.03431,11.59799 -11.19148,14.1636 -6.15718,2.5656 -11.22536,1.24199 -16.47957,-0.51838 -5.25421,-1.76036 -16.20044,-8.46764 -16.20044,-8.46764 -18.12575,-9.08076 -28.3466,-16.04352 -39.86914,-25.81641 -2.76799,-2.37867 -6.10678,-7.24051 -8.05078,-9.58984 -1.94267,-2.34934 -3.50838,-4.5937 -4.76172,-6.70703 -4.14265,-6.31866 -3.66406,1.74608 -3.66406,-6.25391 z"
       sodipodi:nodetypes="cczccccczzzccsssscccccczzcccccc" /><path
       id="path1"
       style="fill:#000000;fill-opacity:1;fill-rule:nonzero;stroke:none;stroke-width:1.33333"
       d="m 192.82617,196.69141 c -0.26366,0.0623 -0.51022,0.19708 -0.71289,0.39843 -2.06358,2.76767 -4.20259,7.25253 -6.6289,13.58985 0,0 -2.09103,5.9403 -4.13672,11.58398 l -0.27539,-0.24219 c -0.67852,0.0786 -3.75782,2.30474 -4.79297,2.9336 -1.47333,0.896 -4.02844,2.26358 -8.73438,4.4082 -4.70589,2.14462 -12.46308,6.36179 -21.5957,10.50195 -9.13262,4.1402 -17.97778,6.15144 -29.99024,10.17188 -12.35614,3.70052 -36.800654,13.25458 -46.025386,14.99609 -3.575644,1.58051 -6.535598,4.89496 -10.011719,5.52149 -5.151137,0.85743 -9.431938,5.06607 -11.296875,8.34179 -3.672421,6.4506 -11.524307,31.12882 -13.017578,41.9375 -2.479493,17.94726 -4.574462,35.57507 -5.503906,49.9668 C 29.03723,381.01993 29.709274,391.80105 29.363281,400 h 4.427735 c 0.05892,-25.9227 4.05309,-55.48188 7.054687,-78.10156 2.220851,-17.52975 7.717336,-30.27948 10.921875,-37.08008 3.160678,-6.70751 5.847975,-9.35464 8.875,-9.37305 6.302803,-0.0383 15.053307,3.62585 18.16211,6.17578 3.130033,2.81104 10.560954,8.55013 13.099609,11.2168 -3.599332,-6.2342 -7.081682,-10.63252 -12.03125,-15.25 -5.483182,-3.3559 -9.016336,-4.98036 -9.894531,-5.41406 -1.581192,-0.78087 -0.770301,-2.82739 2.193359,-4.12891 0.376941,-0.16554 3.401601,-0.54866 5.236328,-1.07617 8.538951,-2.45508 27.934297,-8.05978 32.318357,-9.65234 7.05597,-2.5632 20.61948,-5.91788 28.88086,-8.82032 8.26137,-2.9024 12.88737,-5.68053 18.28516,-8.47461 5.39776,-2.79403 13.44505,-6.45282 17.65625,-9.25 4.21115,-2.79713 6.49769,-2.67747 8.26172,0.41797 2.95595,5.78533 8.94973,12.2029 13.29883,16.95899 4.34905,4.75604 11.87997,9.70344 15.9746,12.52344 7.89657,5.5532 12.95911,8.52546 21.91797,13.68945 8.95886,5.16395 16.76082,8.39219 23.56836,9.62695 6.80758,1.23477 12.14143,0.92301 18.9043,-4.18555 6.76287,-5.10852 9.98904,-19.44742 3.90039,-28.83398 -0.1261,-0.1944 -0.3466,-0.68551 -0.52539,-1.01758 0.30905,0.19623 4.92759,3.13141 7.94727,5.30274 3.12134,2.24442 7.50313,7.10959 10.50781,8.13671 16.65057,3.90377 26.95728,7.00348 42.03515,11.86329 2.16921,0.8464 7.4464,2.38988 8.28516,2.59179 0.35506,0.0855 4.80273,1.42969 4.80273,1.42969 0.13692,-0.15464 -1.9948,-1.90582 -2.8789,-2.76758 2.81596,-2.89464 6.55106,-1.71654 8.01953,-0.85351 1.46847,0.86299 3.70467,4.62843 5.64844,10.63086 1.94375,6.0024 8.53381,31.61556 9.98632,42.20312 1.45255,10.58755 2.91255,20.88873 2.88672,31.49219 0.29671,8.5237 1.59325,31.49583 1.88996,40.01953 h 3.12544 c -0.55333,-4.43196 -0.38447,-22.15459 -0.46071,-26.94531 -0.0762,-4.79076 -0.15008,-5.17315 -0.49219,-15.28516 -0.34212,-10.11201 -1.37516,-20.84045 -3.52734,-33.34961 -2.15218,-12.50916 -5.41666,-24.24095 -9.19336,-36.39453 -2.18992,-6.86146 -3.70132,-11.1786 -5.85156,-13.70898 -2.15024,-2.53042 -3.45393,-2.65542 -5.51563,-3.00782 -2.06166,-0.3524 -4.39984,0.28217 -6.18554,1.00196 -1.05251,0.42424 -2.3206,1.35941 -3.22852,2.08398 -14.68742,-5.90935 -32.70542,-11.08358 -48.24414,-14.64844 -6.84207,-5.57689 -15.36109,-11.15722 -23.20703,-15.50195 0.22717,-0.28158 0.47069,-0.58949 0.72266,-0.96484 0.63179,-1.21179 -0.17094,-2.96149 -0.93165,-4.34375 -1.30197,-2.36581 -2.63183,-4.48147 -4.73437,-5.84961 L 267.66602,230.75 c -0.10096,0.80073 -0.0244,1.68807 -0.084,2.17578 -0.34596,2.83105 -0.28485,3.97463 -0.76758,6.80469 -0.37984,2.22689 -0.81587,4.06087 -2.88281,5.08203 -2.06694,1.02115 -3.10957,0.91736 -6.80859,0.50391 -3.6991,-0.41344 -9.70985,-1.84826 -14.15235,-3.48438 -30.02223,-11.05686 -48.12607,-42.61073 -47.94531,-43.02344 l 0.80469,-1.83789 c -0.27333,-0.0907 -1.84865,-0.23556 -2.22461,-0.25 z m -0.34765,4.78515 c 0,0 2.30403,3.09859 2.69921,3.625 3.4593,4.608 5.25707,6.89551 8.28321,10.23633 5.83938,6.44661 9.05283,9.8215 15.59375,15.14649 7.65569,6.23253 15.72115,11.59765 24.51172,14.82031 4.12125,1.512 8.53782,2.82641 12.89648,3.34375 4.81653,0.49541 6.09057,0.49153 8.69336,-0.0625 2.60279,-0.55403 4.25051,-3.16029 4.60742,-4.77344 0.40189,-1.81645 0.73252,-3.37725 0.65625,-5.22266 l -0.0879,-2.10546 2.44727,2.86328 c 0.7399,2.12465 1.15784,4.01712 0.20703,6.40234 -0.58591,1.47435 -3.04259,5.19055 -3.26953,6.86328 -0.31974,2.35049 -0.17802,4.40911 -0.0391,6.72656 0.13549,2.27485 0.28652,3.03345 1.46875,5.10352 0.81565,-4.57301 1.12669,-10.04344 2.90821,-14.37695 0.31184,-0.758 0.63022,-1.32981 0.91992,-1.82227 0.75775,1.08385 2.16613,2.06434 3.28516,3.71289 1.60928,4.188 2.62552,10.67351 0.40234,16.14258 -2.22318,5.46904 -3.91494,8.24979 -9.77149,9.89062 -5.85651,1.64087 -13.74607,1.27699 -16.53124,0.11719 -2.78521,-1.15979 -9.27352,-3.74545 -15.87891,-6.99609 -6.6054,-3.25068 -28.03234,-17.66893 -32.1582,-21.23438 -4.1259,-3.5654 -10.26108,-9.84706 -12.70508,-12.90039 -2.40055,-2.99769 -6.11205,-8.69541 -7.83789,-11.64062 0.0448,-0.21539 0.0829,-0.38835 0.16406,-0.72852 0.008,-0.0143 0.0207,-0.0364 0.0273,-0.0488 l -0.0137,-0.0117 c 0.22576,-0.93529 0.56288,-2.18907 1.16602,-3.98047 1.17179,-3.48046 6.03429,-16.27532 7.35547,-19.08985 z"
       sodipodi:nodetypes="ccccccsscccssccccsscccssssssscscsssscsccsccssscccssscsssccccsscssssscccccsssccssccccccccccssssscccccsc" /><path
       style="color:#000000;fill:#000000;fill-opacity:0.3;-inkscape-stroke:none"
       d="m 185.89844,234.82031 c 0,0 -6.37323,3.88784 -21.1875,10.35547 -14.7654,6.4463 -62.13167,24.11967 -66.996096,25.78711 -4.892056,1.67691 -9.556638,2.07666 -12.279297,4.11523 -2.715104,2.03293 -3.88086,6.01954 -3.88086,6.01954 l 1.429688,0.45117 c 0,0 1.262095,-3.70652 3.349609,-5.26953 2.07996,-1.55736 7.205199,-1.90639 12.2851,-3.64769 5.107516,-1.75077 51.688986,-19.23233 66.609836,-25.7465 14.87198,-6.49283 21.45077,-10.78355 21.45077,-10.78355 z"
       id="path21830"
       sodipodi:nodetypes="csssccssscc" /><path
       style="fill:#000000;fill-opacity:1;stroke:none;stroke-width:1px;stroke-linecap:butt;stroke-linejoin:miter;stroke-opacity:1"
       d="m 258.62884,278.01418 6.14657,15.13003 c 0,0 -107.82841,35.12682 -110.19908,36.67866 -2.37067,1.55184 -2.14404,1.81548 -1.89125,4.25532 C 152.93787,336.51803 176.83215,400 176.83215,400 h -15.13002 c 0,0 -26.96588,-67.36839 -27.45677,-70.17713 -0.49089,-2.80874 -0.48881,-5.00688 1.89126,-7.56501 2.38007,-2.55813 122.49222,-44.24368 122.49222,-44.24368 z"
       id="path21855"
       sodipodi:nodetypes="cczzcczzc" /><path
       style="color:#000000;fill:#000000;fill-opacity:0.3;-inkscape-stroke:none"
       d="m 264.83008,292.29687 -1.41992,0.48243 c 0,0 7.66908,22.59836 15.49414,46.07812 3.91253,11.73988 7.8636,23.70111 10.91406,33.16406 1.52523,4.73148 1.98904,8.3367 2.94543,11.47703 0.95639,3.14033 1.91102,5.87051 2.04527,6.62844 0.6174,3.48574 0.40248,5.90265 0.3727,7.43164 -0.0298,1.529 -0.52574,2.44141 -0.52574,2.44141 h 2.61937 c 0,0 0.21028,-0.77369 0.24219,-2.41211 0.0319,-1.63842 -0.0981,-4.15265 -0.73047,-7.72266 -0.17819,-1.006 -0.7914,-3.14873 -1.75195,-6.30273 -0.96056,-3.154 -2.26242,-7.2661 -3.78907,-12.00195 -3.05328,-9.4717 -7.0046,-21.43535 -10.91797,-33.17774 -7.82672,-23.48477 -15.49804,-46.08594 -15.49804,-46.08594 z"
       id="path21857"
       sodipodi:nodetypes="ccsssssccsssssc" /><path
       style="fill:#000000;fill-opacity:1;stroke:none;stroke-width:1px;stroke-linecap:butt;stroke-linejoin:miter;stroke-opacity:1"
       d="m 353.13761,281.38153 c 0,0 3.23919,8.06364 4.31234,12.8997 2.24733,10.12739 4.7177,27.18439 7.36584,43.47136 2.53139,15.56896 2.38489,30.60621 3.13541,38.90328 C 369.69776,395.96445 369.5787,400 369.5787,400 h 1.59984 c 0,0 -3.16434,-18.76597 -6.18834,-30.80554 -0.82318,-3.27738 -0.96757,-20.0212 -2.68821,-30.76223 -2.49755,-15.59087 -4.73894,-37.63654 -6.86154,-47.46781 -0.65273,-3.02326 -2.30284,-9.58289 -2.30284,-9.58289 z"
       id="path21859-9"
       sodipodi:nodetypes="csssccsssc" /><path
       style="fill:#000000;fill-opacity:1;stroke:none;stroke-width:1px;stroke-linecap:butt;stroke-linejoin:miter;stroke-opacity:1"
       d="m 102.60047,316.31206 c 0,0 9.46636,34.29124 11.82033,48.22695 C 116.77477,378.47472 117.7305,400 117.7305,400 h 8.03782 c 0,0 -2.18323,-23.23364 -5.20094,-37.35225 -3.01771,-14.11861 -17.96691,-46.33569 -17.96691,-46.33569 z"
       id="path24240"
       sodipodi:nodetypes="czcczc" /><path
       style="fill:#000000;fill-opacity:0.3;stroke:none;stroke-width:1px;stroke-linecap:butt;stroke-linejoin:miter;stroke-opacity:1"
       d="m 49.352415,298.6744 c -0.688484,-1.07825 -0.513741,-3.03237 0.04056,-5.08418 0.554302,-2.05181 1.72176,-4.20024 4.434065,-6.0669 2.712305,-1.86666 6.669729,-3.8752 11.367201,-3.51045 4.697472,0.36475 10.943366,4.1646 14.710496,7.18808 3.76713,3.02348 6.240433,6.35629 7.856742,9.86272 1.616309,3.50643 2.129148,7.8232 2.005977,10.36421 -0.123171,2.54101 -0.432545,3.61049 -1.337318,4.51345 -0.904773,0.90296 -1.20656,1.42397 -2.8418,0.83582 -1.63524,-0.58815 -3.677624,-5.51643 -4.179119,-6.18509 -0.501495,-0.66866 -4.427,-6.18115 -7.522412,-8.69257 -3.095412,-2.51142 -9.528389,-5.85076 -10.865707,-6.01793 -1.337318,-0.16717 -4.290868,-0.0496 -6.132654,0.87464 -1.841786,0.92425 -3.734014,3.17918 -4.900218,3.30448 -1.166204,0.1253 -1.94733,-0.30803 -2.635814,-1.38628 z"
       id="path26498"
       sodipodi:nodetypes="zzzzzzzzzzzzzzz" /><path
       style="fill:#d30000;fill-opacity:1;stroke:none;stroke-width:2.5;stroke-linecap:butt;stroke-linejoin:miter;stroke-dasharray:none;stroke-opacity:1"
       d="m 128.42639,243.87868 c 3.31159,0.30575 13.52085,7.60872 19.60492,15.37786 6.08407,7.76913 10.49421,13.56691 17.02616,23.50208 6.53195,9.93517 10.77681,20.19577 14.71264,28.96552 3.93583,8.76975 10.25924,25.57593 10.25924,25.57593 l -28.38755,10.11495 c 0,0 -5.92354,-17.31296 -9.91766,-26.03571 -3.99412,-8.72275 -8.66645,-18.10084 -15.63219,-28.04598 -6.96574,-9.94514 -20.64642,-26.34932 -26.54846,-29.74076 -5.90203,-3.39144 -8.16404,-3.2584 -10.917909,-4.68738 -2.753871,-1.42898 -3.540098,-4.09729 -1.034483,-5.28736 2.505612,-1.19007 6.923592,-1.69745 10.323832,-3.20816 3.40024,-1.51071 10.4532,-3.36444 13.27008,-4.57696 2.81688,-1.21252 3.92979,-2.25977 7.24138,-1.95403 z"
       id="path25547"
       sodipodi:nodetypes="zzzzcczzzzzzzz" /><path
       style="color:#000000;fill:#000000;-inkscape-stroke:none"
       d="m 128.57557,242.52738 c -1.79866,-0.16606 -3.15846,0.0507 -4.34375,0.47656 -1.1853,0.42582 -2.16451,0.996 -3.50781,1.57422 -3.19353,1.37465 -8.87764,3.31221 -11.97888,4.69008 -1.62827,0.72343 -3.60367,1.67245 -5.51562,2.21484 -1.93357,0.54853 -4.956634,0.50591 -6.197738,1.88095 -0.948094,1.05041 -1.412068,2.16108 -1.181641,3.48039 0.230428,1.31932 0.724762,2.13557 2.051132,3.07949 1.649352,1.17378 4.215567,1.68565 7.615237,3.00977 3.39967,1.32412 7.68527,4.66188 11.80302,8.07896 8.30103,6.88855 10.83245,13.16346 17.74884,23.03814 6.90458,9.85782 11.53785,19.15402 15.51953,27.84961 3.92139,8.56392 10.01505,25.93291 10.01505,25.93291 l 0.38868,1.24023 30.91015,-10.96875 -0.42187,-1.18164 c 0,0 -6.59091,-16.84468 -10.56974,-25.71025 -3.92417,-8.74376 -8.31439,-19.55589 -14.8086,-29.14062 -6.72721,-9.92862 -9.78112,-13.90628 -17.63768,-23.32051 -3.82259,-4.58046 -8.66609,-9.09131 -13.41808,-12.53878 -2.40166,-1.63968 -5.299,-3.58361 -6.47023,-3.6856 z m -0.23047,2.49023 c 1.31426,0.22427 4.22051,2.48784 5.23195,3.2188 4.66276,3.38274 9.56965,7.76662 13.19347,12.35324 7.26664,9.19731 9.88561,13.52461 16.77034,23.09207 6.80609,9.45817 11.14056,19.75889 15.08805,28.55461 3.62118,8.06866 9.40834,22.54223 10.06193,24.35478 l -26.10743,9.26367 c -0.59697,-1.89752 -5.94334,-16.74302 -9.72208,-24.99541 -4.00655,-8.74989 -8.71921,-18.20974 -15.7461,-28.24218 -7.01507,-10.01558 -9.49603,-16.30545 -18.2,-23.52837 -4.38475,-3.63865 -6.94167,-5.43291 -12.49248,-8.48522 -3.33347,-1.83303 -6.02686,-2.28428 -6.717658,-2.7759 -1.909522,-1.38515 -1.257499,-2.06882 -0.373398,-3.12782 0.438827,-0.54282 3.077376,-0.28098 4.866566,-0.91211 1.74902,-0.61696 3.78858,-1.44905 5.56055,-2.23633 3.69923,-1.64355 9.51325,-3.62601 11.95348,-4.6764 1.47357,-0.6343 2.46196,-1.19503 3.36523,-1.51954 0.90327,-0.3245 1.95332,-0.56216 3.26758,-0.33789 z"
       id="path25549"
       sodipodi:nodetypes="csssssssssssccccssscczcsssccssssccssssz" /><path
       id="path38359"
       style="fill:#aaaaaa;fill-opacity:1;stroke:#000000;stroke-width:1px;stroke-linecap:butt;stroke-linejoin:miter;stroke-opacity:1"
       d="m 179.68095,324.08342 c -1.06024,-0.52429 -17.93108,6.55897 -18.20508,7.3164 -0.274,0.75743 2.73997,7.75028 3.57618,8.28907 0.83621,0.53879 18.3895,-5.52506 18.69336,-6.66407 0.30386,-1.13901 -3.00422,-8.41711 -4.06446,-8.9414 z m -1.13672,4.71484 0.97461,2.27539 c -4.30739,2.11331 -8.77734,3.90151 -13.16601,4.87695 l -0.89453,-1.95117 c 4.0867,-2.28605 7.7308,-3.7985 13.08593,-5.20117 z"
       sodipodi:nodetypes="zzzzzccccc" /><path
       style="fill:#aaaaaa;fill-opacity:1;stroke:#000000;stroke-width:1px;stroke-linecap:butt;stroke-linejoin:miter;stroke-opacity:1"
       d="m 167.9496,326.25296 5.44554,12.43532 c 1.43588,0 2.70922,-0.48766 4.06383,-1.46298 l -5.44554,-12.67915 c -1.67971,0 -2.95305,0.48766 -4.06383,1.70681 z"
       id="path38364"
       sodipodi:nodetypes="ccccc" /><path
       style="color:#000000;fill:#000000;fill-opacity:0.3;-inkscape-stroke:none"
       d="m 119.84214,364.55343 -0.71875,1.3164 c 0,0 3.83424,2.09541 8.10742,4.61524 4.27319,2.51982 9.04427,5.54036 10.64454,7.08789 0.62144,0.60097 1.58709,2.68663 2.40625,5.33594 0.81915,2.64931 1.59138,5.89535 2.2539,9.03711 1.32504,6.28352 1.87661,8.05399 1.87661,8.05399 h 1.48242 c 0,0 -0.55616,-2.02677 -1.89223,-8.36259 -0.66803,-3.16791 -1.44657,-6.44511 -2.28906,-9.16992 -0.8425,-2.72481 -1.64835,-4.86393 -2.79688,-5.97461 -1.93968,-1.87576 -6.62574,-4.76627 -10.92383,-7.30078 -4.29808,-2.53451 -8.15039,-4.63867 -8.15039,-4.63867 z"
       id="path29505"
       sodipodi:nodetypes="ccssssccssssc" /><path
       style="fill:#000000;fill-opacity:0.2;stroke:none;stroke-width:1px;stroke-linecap:butt;stroke-linejoin:miter;stroke-opacity:1"
       d="m 111.34752,337.58865 c 0,0 13.12777,17.95298 18.20331,28.3688 5.07554,10.41582 9.21986,33.56974 9.21986,33.56974 L 121.98582,400 c 0,0 -6.14658,-41.37116 -6.14658,-43.26241 0,-1.89125 -4.49172,-19.14894 -4.49172,-19.14894 z"
       id="path29511"
       sodipodi:nodetypes="czccsc" /><g
       id="g35941"
       transform="matrix(0.96443489,-0.06440659,0.06430254,0.96599543,-15.049213,28.449844)"><path
         style="color:#000000;fill:#d9a14b;stroke:#000000;stroke-width:1.47163;stroke-miterlimit:9;stroke-dasharray:none;stroke-opacity:1"
         d="m 301.35832,325.04555 c -4.07339,0.47152 -6.59818,3.97812 -5.57291,7.80332 l 1.31466,4.90489 c 1.01436,3.78456 5.11991,6.32195 9.10385,5.69119 l 43.03941,-6.81427 c 3.19673,-0.50611 5.12876,-3.60397 4.3553,-6.93542 l -1.00175,-4.31477 c -0.78072,-3.36277 -4.02477,-5.80012 -7.28551,-5.42269 z m 0.4066,1.5439 43.87605,-5.23401 c 2.5471,-0.30385 5.04508,1.56196 5.65866,4.19557 l 1.00843,4.32833 c 0.60839,2.61136 -0.88294,4.99179 -3.38823,5.37958 l -43.11418,6.67373 c -3.11131,0.4816 -6.24743,-1.47023 -7.03418,-4.41728 l -1.30479,-4.88752 c -0.79436,-2.97556 1.12885,-5.66032 4.29824,-6.0384 z"
         id="path34684" /><path
         id="rect18996"
         style="fill:#fbeacf;stroke-width:0.195371;stroke-miterlimit:9"
         d="m 301.56156,325.81809 43.91495,-5.16102 c 2.90394,-0.34127 5.77507,1.80959 6.47249,4.80827 l 1.0051,4.32163 c 0.69122,2.97205 -1.02062,5.71171 -3.87222,6.15816 l -43.07718,6.74412 c -3.54761,0.55542 -7.16693,-1.69004 -8.06709,-5.05521 l -1.30973,-4.89627 c -0.90934,-3.39952 1.31314,-6.49419 4.93368,-6.91968 z" /><path
         style="color:#000000;fill:#d9a14b;stroke:#000000;stroke-width:0.440392;stroke-miterlimit:9;stroke-opacity:1;-inkscape-stroke:none"
         d="m 301.35832,325.04555 c -4.07339,0.47152 -6.59818,3.97812 -5.57291,7.80332 l 1.31466,4.90489 c 1.01436,3.78456 5.11991,6.32195 9.10385,5.69119 l 43.03941,-6.81427 c 3.19673,-0.50611 5.12876,-3.60397 4.3553,-6.93542 l -1.00175,-4.31477 c -0.78072,-3.36277 -4.02477,-5.80012 -7.28551,-5.42269 z m 0.4066,1.5439 43.87605,-5.23401 c 2.5471,-0.30385 5.04508,1.56196 5.65866,4.19557 l 1.00843,4.32833 c 0.60839,2.61136 -0.88294,4.99179 -3.38823,5.37958 l -43.11418,6.67373 c -3.11131,0.4816 -6.24743,-1.47023 -7.03418,-4.41728 l -1.30479,-4.88752 c -0.79436,-2.97556 1.12885,-5.66032 4.29824,-6.0384 z"
         id="rect18998" /><path
         id="rect21363"
         style="fill:#d5def1;fill-opacity:1;stroke:#000000;stroke-width:0.348751;stroke-miterlimit:9;stroke-dasharray:none;stroke-opacity:1"
         d="m 304.27734,329.92843 c 2.11999,0.28342 3.91537,1.80672 4.41848,3.73375 0.49823,1.92844 -0.41334,3.81313 -2.24473,4.62632 l 39.60651,-5.8154 c -1.76261,-0.24128 -3.28347,-1.63881 -3.7134,-3.42505 -0.42449,-1.79051 0.35522,-3.51313 1.90112,-4.21257 z" /><path
         id="path21425"
         style="fill:#d9a14b;stroke:#000000;stroke-width:0.308275;stroke-miterlimit:9"
         d="m 347.96248,323.58415 c 0.12836,0.54677 -0.19081,1.04393 -0.71401,1.1109 -0.52456,0.0671 -1.05579,-0.32327 -1.18537,-0.87253 -0.12967,-0.54963 0.19239,-1.04799 0.71819,-1.11265 0.52444,-0.0645 1.05277,0.32715 1.18119,0.87428 z" /><path
         style="fill:#d9a14b;fill-opacity:1;stroke:#000000;stroke-width:0.352314;stroke-linecap:butt;stroke-linejoin:miter;stroke-dasharray:none;stroke-opacity:1"
         d="m 300.62931,334.01946 7.74311,-1.49067 33.72924,-4.53558 6.8702,-0.52256 0.35247,1.15498 -6.75081,1.34232 -33.6464,4.69211 -7.95284,0.65998 z"
         id="path21495" /><path
         id="path21497"
         style="fill:#d9a14b;fill-opacity:1;stroke:#000000;stroke-width:0.784871;stroke-miterlimit:9;stroke-dasharray:none;stroke-opacity:1"
         d="m 322.77553,316.71454 c -8.73229,0.8916 -14.23996,8.73165 -11.99596,17.39413 2.22036,8.57145 11.07974,14.21264 19.49929,12.73549 8.09597,-1.42035 12.89265,-8.9624 10.97409,-16.96486 -1.93747,-8.08156 -10.08688,-14.02151 -18.47742,-13.16476 z m 0.66654,2.67648 c 6.92654,-0.75144 13.70022,4.1312 15.31797,10.83427 1.60473,6.64885 -2.40038,12.89475 -9.12546,14.03178 -6.94683,1.17458 -14.20475,-3.50522 -16.01477,-10.5426 -1.82574,-7.09826 2.66375,-13.5469 9.82226,-14.32345 z" /><path
         style="fill:#d9a14b;fill-opacity:1;stroke:#000000;stroke-width:0.880786;stroke-linecap:butt;stroke-linejoin:miter;stroke-dasharray:none;stroke-opacity:1"
         d="m 319.19614,352.8968 c -2.11073,-13.57764 -1.62198,-27.54217 2.92681,-39.20336 8.57676,9.86592 14.63978,20.13923 19.50008,31.38182 0,0 -6.33051,-8.66554 -9.30923,-8.24538 -5.45056,0.65516 -13.11766,16.06692 -13.11766,16.06692 z"
         id="path21563"
         sodipodi:nodetypes="ccccc" /><path
         style="fill:#000000;fill-opacity:1;stroke:none;stroke-width:0.440392px;stroke-linecap:butt;stroke-linejoin:miter;stroke-opacity:1"
         d="m 325.231,329.62437 -1.3902,-10.76101 3.99321,10.34449 3.12506,0.70293 -2.31205,1.43726 1.01175,2.66339 -2.55368,-2.30939 -1.13056,3.19616 -0.43875,-3.19118 -2.96011,-0.87435 z"
         id="path21565" /></g><path
       style="color:#000000;fill:#000000;fill-opacity:0.3;-inkscape-stroke:none"
       d="m 259.13134,273.10547 c -2.65673,0.36824 -6.05685,0.1329 -9.7815,0.0165 -3.77934,-0.11808 -8.09233,-0.74246 -8.09233,-0.74246 0,0 5.42216,2.63348 9.18431,2.9788 3.85148,0.35353 7.70241,0.31087 10.24237,-0.37966 5.11865,-1.39158 8.79183,-6.40474 8.79183,-6.40474 0,0 -5.97057,3.92528 -10.34468,4.53154 z"
       id="path25489"
       sodipodi:nodetypes="sscsscs" /><path
       id="path21908"
       style="color:#000000;fill:#000000;fill-opacity:0.3;-inkscape-stroke:none"
       d="m 266.9707,251.30469 c 0,0 -0.7086,5.86103 -0.95919,8.88371 -0.25059,3.02268 -0.50257,9.21059 -0.50257,9.21059 l 0.6908,0.0156 c 0,0 1.13836,-6.03672 1.23483,-9.06312 0.10133,-3.17917 0.22889,-8.99134 0.22889,-8.99134 z m -7.14076,0.66851 c 0,0 -1.5412,7.21199 -2.01483,10.27677 -0.47363,3.06478 -0.91055,9.95071 -0.91055,9.95071 l 0.51387,0.17937 c 0,0 1.42456,-6.70245 1.89819,-9.7669 0.47363,-3.06445 1.23615,-10.54222 1.23615,-10.54222 z m -9.97694,-1.10326 c 0,0 -1.9772,6.5995 -2.67381,9.83159 -0.69662,3.2321 -1.54767,9.97891 -1.54767,9.97891 l 0.74313,0.16917 c 0,0 1.72643,-6.45831 2.42305,-9.69008 0.69662,-3.23177 1.71485,-10.16025 1.71485,-10.16025 z m -9.67612,-3.24885 c 0,0 -2.52645,6.74217 -3.50171,10.02961 -0.97526,3.28743 -2.43345,9.98754 -2.43345,9.98754 l 0.70603,0.15241 c 0,0 2.41364,-6.4172 3.38858,-9.70496 0.97493,-3.28776 2.46103,-10.27236 2.46103,-10.27236 z m -8.07739,-3.76528 c 0,0 -2.80786,5.32712 -4.03377,8.3919 -1.22591,3.06478 -3.53065,9.99678 -3.53065,9.99678 l 0.64547,0.28248 c 0,0 3.13921,-6.907 4.36512,-9.97145 1.22592,-3.06446 3.19931,-8.45706 3.19931,-8.45706 z m -8.51516,-5.45778 c 0,0 -2.86463,5.76482 -4.11821,8.66228 -1.25358,2.89746 -3.11073,8.97324 -3.11073,8.97324 l 0.62203,0.33522 c 0,0 2.68347,-5.56724 3.93738,-8.46503 1.25391,-2.89779 3.25173,-9.08886 3.25173,-9.08886 z m -8.25991,-7.63476 c 0,0 -3.55665,6.0624 -4.85552,9.44419 -1.2465,3.24544 -3.9284,10.12887 -3.9284,10.12887 l 0.60915,0.4524 c 0,0 3.59961,-6.22258 4.96982,-9.41745 1.49155,-3.47781 3.89768,-10.19543 3.89768,-10.19543 z m -6.74762,-7.07484 c 0,0 -3.21481,5.81155 -4.55741,9.39233 -1.19978,3.19988 -4.0781,10.10124 -4.0781,10.10124 l 0.85208,0.42624 c 0,0 3.51443,-6.08583 4.73988,-9.27273 1.41715,-3.68543 3.85579,-10.26263 3.85579,-10.26263 z m -6.71016,-6.71606 c 0,0 -2.98431,5.32032 -4.32649,8.2051 -1.45345,3.12393 -4.07299,10.31543 -4.07299,10.31543 l 0.64389,0.54421 c 0,0 3.79534,-7.36984 4.83299,-9.83137 0.78731,-1.86766 3.60829,-8.77274 3.60829,-8.77274 z m -6.20943,-7.10919 c 0,0 -2.70387,4.79339 -4.05992,7.6351 -1.51947,3.18417 -3.70037,9.88973 -3.70037,9.88973 l 0.69351,0.40126 c 0,0 2.51169,-5.69696 4.04424,-8.78478 1.3812,-2.78289 3.50904,-8.65648 3.50904,-8.65648 z"
       sodipodi:nodetypes="csccscccsccscccsccscccsccscccsccscccsccscccsccscccsccscccsccscccsccscc" /><path
       id="path1-0"
       style="color:#000000;display:inline;fill:#000000;-inkscape-stroke:none"
       d="m 353.23047,325.84961 c 0,0 1.9406,16.78278 4.25391,25.0332 2.10991,7.52499 5.30085,14.575 7.36328,21.83203 1.55841,5.48362 3.09887,10.94537 3.83398,16.46875 0.4375,3.28725 0.37695,10.81641 0.37695,10.81641 h 2.79941 c 0,0 -0.13319,-7.42499 -0.684,-11.22005 -0.99069,-6.82542 -2.19309,-11.0595 -4.016,-16.85158 -3.20653,-10.18839 -6.0053,-17.4931 -7.72843,-22.96142 -2.0832,-6.61105 -6.1991,-23.11734 -6.1991,-23.11734 z"
       sodipodi:nodetypes="csssccsssc" /><path
       style="fill:#000000;fill-opacity:0.3;stroke:none;stroke-width:1px;stroke-linecap:butt;stroke-linejoin:miter;stroke-opacity:1"
       d="m 358.86525,305.91017 c 6.9678,22.40896 11.38726,43.03479 15.0412,69.14244 1.16385,8.3158 2.3277,16.63159 3.49155,24.94739 h -6.55257 l -5.42296,-44.30881 z"
       id="path30301"
       sodipodi:nodetypes="cscccc" /><path
       d="m 274.79048,241.13357 c 0.43565,0.6979 0.82307,1.49038 1.07702,2.66204 0.68415,3.14763 -0.62089,3.37382 -1.81243,6.27014 -1.78152,4.33352 -2.092,9.8045 -2.90765,14.37751 -1.18224,-2.07007 -1.3343,-2.82866 -1.46979,-5.10351 -0.13895,-2.31746 -0.28034,-4.37679 0.0394,-6.72728 0.22694,-1.67273 2.68398,-5.38756 3.26989,-6.86191 1.18363,-2.96928 0.25335,-5.16895 -0.78942,-8.01247 0.28222,0.28232 0.47978,0.26032 0.81768,0.48065 0.54413,1.23993 1.20091,1.99459 1.77534,2.91483"
       style="fill:#000000;fill-opacity:1;fill-rule:nonzero;stroke:none;stroke-width:1.33333"
       id="path283442"
       sodipodi:nodetypes="cccccccccc" /><path
       id="path283456"
       style="opacity:0.199997;fill:#000000;fill-opacity:1;fill-rule:nonzero;stroke:none;stroke-width:1.33333"
       d="M 192.79883 199.1582 C 192.79883 199.15821 190.53644 204.52159 187.26953 211.99023 C 185.14275 217.31361 182.2804 220.93979 182.71289 225.32031 C 182.92484 227.46703 184.02971 229.81856 185.70898 232.54297 C 184.4428 230.91332 182.93678 229.38674 180.33398 226.48242 C 173.58068 229.03072 159.88912 236.46476 134.16406 246.98633 C 133.2942 245.3841 128.31148 243.05628 126.96289 243.55859 C 116.99704 247.27062 105.48977 252.23378 97.806641 255.01758 C 96.627133 255.44494 101.11905 258.36107 99.933594 258.80273 C 92.574204 261.54459 85.078294 264.58065 77.185547 268.13281 C 70.246567 271.02119 58.325866 272.51052 55.421875 275.11719 C 45.606312 286.73876 45.527187 296.61999 40.630859 315.12109 C 36.681458 332.37733 35.584925 350.71548 33.998047 365.54883 C 32.89005 372.05413 33.001345 373.94743 31.525391 382.94141 C 31.643067 388.27283 30.666186 391.59796 31.242188 394.80859 L 31.482422 395.28711 C 31.929085 397.78045 32.663438 397.37213 33.023438 399.9668 L 53.189453 399.9668 C 53.385453 396.53346 53.022275 392.96458 53.099609 389.66992 C 53.141599 387.89588 53.334205 386.13949 53.582031 384.38867 C 53.985582 383.92484 54.404532 383.45497 54.845703 382.97852 C 62.100364 375.14372 78.099962 355.28728 81.796875 346.57227 C 85.493788 337.85723 86.360729 337.57986 83.6875 335.22461 C 81.014271 332.86936 80.104932 334.46763 74.232422 338.06055 C 70.604076 340.28042 65.395081 345.59172 60.560547 351.07422 C 61.707247 347.44578 63.016405 343.88618 64.533203 340.42578 C 70.215808 329.5061 71.578636 325.46278 76.761719 316.17188 C 84.823316 306.33714 85.441519 305.50716 94.037109 300.125 C 103.86786 295.06672 109.47136 292.31599 120.74609 287.60352 C 123.59963 286.43542 126.55933 285.32064 129.58398 284.25586 C 130.12287 284.06615 129.36347 282.57711 129.90625 282.39062 C 139.19384 279.19954 149.7252 276.12357 158.91406 273.82227 C 159.33917 273.70116 160.35381 275.23542 160.77344 275.11719 C 163.14398 274.4493 165.42654 273.82773 167.62305 273.25 C 196.05763 265.76869 216.48242 262.46094 216.48242 262.46094 C 216.48242 262.46094 204.88001 256.94394 195.60938 245.80664 C 192.52005 242.0933 190.58214 241.29586 188.35547 236.81055 C 188.07796 236.25204 187.83325 235.87478 187.57617 235.41406 C 188.57931 236.88591 189.69337 238.45844 190.90625 240.16992 C 194.35825 243.64592 196.89752 245.33049 199.85352 247.78516 C 203.59454 249.88609 210.75157 257.50731 212.85352 257.63281 C 214.95545 257.75832 222.51944 238.18574 222.2168 236.43555 C 221.91416 234.68536 217.57436 231.60016 215.56641 229.62109 C 207.22241 221.39714 203.74307 216.6965 196.59375 204.17188 L 192.79883 199.1582 z M 223.92383 237.57422 L 215.0332 258.94531 C 217.4955 260.70419 219.46808 261.84695 220.32422 261.5293 C 222.97197 260.53788 230.56008 244.15938 228.10547 240.91016 C 227.20598 239.71947 225.54702 238.97286 223.92383 237.57422 z M 232.29297 243.14453 L 223.83008 264.19922 C 226.09806 265.29143 228.1614 265.68271 230.04688 264.9668 C 233.02335 263.83663 237.3768 250.58843 235.33203 245.38086 C 235.03998 244.63707 233.74478 244.2798 232.29297 243.14453 z M 274.91797 245.32422 L 272.95898 249.94531 L 272.52344 252.30078 C 272.52344 252.30078 276.43913 257.3761 277.11328 261.56055 C 277.73085 265.3938 276.50509 270.14294 274.78906 273.28516 C 273.19962 276.19556 266.77148 280.95508 266.77148 280.95508 L 277.49414 276.49023 L 282.00781 263.78516 L 279.66602 253.92383 L 274.91797 245.32422 z M 240.31836 247.26367 L 234.99414 266.25391 C 239.6865 266.07135 241.58085 263.35001 242.54297 260.56055 C 243.35878 258.19524 243.73867 249.26413 240.31836 247.26367 z M 93.066406 354.63672 C 90.252407 354.55902 86.455582 359.78393 81.515625 366.6875 C 76.246337 374.05131 66.666016 400 66.666016 400 L 87.943359 400 C 87.943359 400 94.238944 379.23292 94.869141 371.38281 C 95.499336 363.5327 96.479511 355.57878 93.617188 354.72461 C 93.438292 354.67121 93.254006 354.64192 93.066406 354.63672 z " /></g></svg>
