<?xml version="1.0" encoding="UTF-8" standalone="no"?>
<!-- Created with Inkscape (http://www.inkscape.org/) -->

<svg
   width="400"
   height="400"
   viewBox="0 0 400 400"
   version="1.1"
   id="svg15392"
   xml:space="preserve"
   inkscape:version="1.3.2 (091e20e, 2023-11-25)"
   sodipodi:docname="TwokAverageFemale.svg"
   xmlns:inkscape="http://www.inkscape.org/namespaces/inkscape"
   xmlns:sodipodi="http://sodipodi.sourceforge.net/DTD/sodipodi-0.dtd"
   xmlns="http://www.w3.org/2000/svg"
   xmlns:svg="http://www.w3.org/2000/svg"><sodipodi:namedview
     id="namedview15394"
     pagecolor="#ffffff"
     bordercolor="#666666"
     borderopacity="1.0"
     inkscape:showpageshadow="2"
     inkscape:pageopacity="0.0"
     inkscape:pagecheckerboard="0"
     inkscape:deskcolor="#d1d1d1"
     inkscape:document-units="px"
     showgrid="false"
     inkscape:zoom="2.1325"
     inkscape:cx="195.0762"
     inkscape:cy="200"
     inkscape:window-width="1872"
     inkscape:window-height="1066"
     inkscape:window-x="2238"
     inkscape:window-y="72"
     inkscape:window-maximized="0"
     inkscape:current-layer="layer2" /><defs
     id="defs15389"><inkscape:path-effect
       effect="perspective-envelope"
       up_left_point="293.53755,309.08275"
       up_right_point="354.06539,311.38"
       down_left_point="293.53755,350.55401"
       down_right_point="354.06539,347.55"
       id="path-effect34728"
       is_visible="true"
       lpeversion="1"
       deform_type="perspective"
       horizontal_mirror="false"
       vertical_mirror="false"
       overflow_perspective="false" /></defs><g
     inkscape:groupmode="layer"
     id="layer2"
     inkscape:label="Uniform"><path
       d="m 197.15857,245.26934 c 12.44419,11.15185 26.06064,20.75421 40.71596,28.69533 l 16.57092,6.81348 c 0,0 5.66658,2.14636 16.40264,-0.12131 0,0 4.02982,-0.97917 6.34897,-4.05755 4.06475,-5.52191 5.46947,-9.93329 5.8148,-14.83595 -0.70533,-1.992 -2.26933,-6.17867 -3.65733,-9.86534 -1.388,-3.688 -3.5092,-7.37604 -3.5092,-7.37604 l 0.54603,-2.20244 -6.6015,-7.936 -1.50067,11.36382 -5.22533,2.25866 -3.29681,-0.30705 -3.19919,-0.53961 c -10.87333,-1.412 -25.98267,-10.59067 -35.02,-17.228 -10.01145,-8.5184 -21.15817,-19.29598 -28.11233,-30.25999 -3.90769,4.21318 -4.58286,6.949 -6.33936,12.86793 -4.58462,11.28159 -4.80489,12.57728 -0.94623,20.01595 1.25467,2.11333 1.86192,3.63744 3.80592,5.98677"
       style="fill:#d30000;fill-opacity:1;fill-rule:nonzero;stroke:none;stroke-width:1.33333"
       id="path283406"
       sodipodi:nodetypes="ccccccccccccccccccc" /><path
       id="path283456"
       style="opacity:0.199997;fill:#000000;fill-opacity:1;fill-rule:nonzero;stroke:none;stroke-width:1.33333"
       d="m 192.79836,199.1584 c 0,1e-5 -2.26273,5.36343 -5.52964,12.83208 -2.12678,5.32338 -4.9886,8.94888 -4.55611,13.32941 0.3868,3.91765 3.67399,8.47239 8.19364,14.85003 3.452,3.476 5.99127,5.16057 8.94727,7.61524 3.74103,2.10094 10.89805,9.72215 13,9.84765 2.10194,0.12551 9.66592,-19.44707 9.36328,-21.19726 -0.30264,-1.75019 -4.64243,-4.83539 -6.65039,-6.81446 -8.344,-8.22396 -11.8232,-12.92441 -18.97253,-25.44905 z m 31.12547,38.41582 -8.89063,21.37109 c 2.4623,1.75888 4.43488,2.90164 5.29102,2.58399 2.64775,-0.99142 10.23586,-17.36991 7.78125,-20.61914 -0.89949,-1.19069 -2.55845,-1.9373 -4.18164,-3.33594 z m 8.36914,5.57031 -8.46289,21.05469 c 2.26798,1.09221 4.33132,1.48349 6.2168,0.76758 2.97648,-1.13017 7.32992,-14.37836 5.28515,-19.58594 -0.29205,-0.74379 -1.58725,-1.10106 -3.03906,-2.23633 z m 42.6244,2.18061 -1.95907,4.62108 -0.43493,2.35486 c 0,0 3.91647,5.07439 4.59062,9.25884 0.61757,3.83326 -0.60874,8.58317 -2.32477,11.72539 -1.58944,2.91041 -8.01852,7.66883 -8.01852,7.66883 l 10.72344,-4.46391 4.51367,-12.70507 -2.34179,-9.86133 z m -34.59901,1.93853 -5.32422,18.99024 c 4.69236,-0.18256 6.58671,-2.90389 7.54883,-5.69336 0.81581,-2.36531 1.1957,-11.29642 -2.22461,-13.29688 z"
       sodipodi:nodetypes="ccsccssscccccscccssccccsscccccccsc" /><path
       d="m 166.40786,352.36173 c -13.788,1.07867 -41.09141,2.2892 -47.41674,2.93187 l 0.10802,1.98448 c 0,0 0.60202,20.67247 0.81871,42.72192 h 24.39935 c 0.988,-22.69334 5.00266,-38.22227 22.09066,-47.63827"
       style="opacity:0.199997;fill:#000000;fill-opacity:1;fill-rule:nonzero;stroke:none;stroke-width:1.33333"
       id="path283476"
       sodipodi:nodetypes="cccccc" /><path
       d="m 176.58986,354.74787 c 4.16667,0 9.35734,-0.596 13.644,0.0787 5.37734,0.84667 11.252,3.16667 16.60533,4.57467 4.82,1.268 9.93067,2.93733 14.808,3.392 5.33067,0.49867 9.59734,2.552 14.85067,3.85867 8.92667,2.22133 17.712,4.61733 26.58,6.37466 8.95333,1.77334 15.488,5.63467 23.57333,-0.756 3.796,-3 7.37067,-6.68933 11.23867,-9.76933 4.53067,-3.608 9.28533,-5.48267 14.72,-7.296 2.20133,-0.73467 4.416,-1.43333 6.60533,-2.20267 0.876,-0.308 3.648,-1.972 4.492,-1.81466 -7.468,-1.384 -28.83466,-2.71067 -36.684,-3.816 -9.848,-1.38534 -19.03066,-1.24534 -28.98933,-1.02 -11.48,0.25866 -22.93067,1.90933 -34.412,2.456 -11.78133,0.56266 -23.61333,0.036 -35.392,0.34266 -3.44266,0.0893 -9.14133,-0.50533 -11.648,1.39067 -4.23733,3.20533 1.11067,3.74133 0.008,4.20667"
       style="opacity:0.199997;fill:#000000;fill-opacity:1;fill-rule:nonzero;stroke:none;stroke-width:1.33333"
       id="path283492" /><path
       id="path283350"
       style="fill:#700000;fill-opacity:1;fill-rule:nonzero;stroke:none;stroke-width:1.33333"
       d="m 181.8125,224.46289 c -14.34653,6.44949 -26.45646,10.66797 -50.14844,24.25195 -16.34719,4.40719 -44.527641,13.60251 -56.769857,17.48963 -12.242216,3.88712 -16.062852,6.10028 -19.564317,8.22657 -13.770242,16.45254 -14.430791,36.59407 -17.400319,53.39054 -2.121333,11.89197 -2.523282,23.3537 -4.052614,37.84834 -1.99309,13.07597 -2.627226,24.69107 -1.937511,34.29686 H 383.91992 c -1.24839,-5.10449 -3.23029,-10.14052 -3.66362,-12.3086 -0.43333,-2.16808 0.0829,-4.2709 -0.30294,-7.96488 -0.38578,-3.69398 -0.28572,-5.48083 -0.22875,-11.01363 0.057,-5.5328 1.21884,-17.81157 -1.0625,-25.49024 -1.22133,-4.10532 -3.55415,-13.66091 -4.77149,-17.76757 -4.57179,-18.13193 -5.00405,-34.08241 -13.38704,-48.80626 -0.46375,-0.81451 -3.38589,-3.83976 -5.80235,-3.40344 -2.3941,0.43229 -5.46297,3.61522 -6.2916,3.19369 -3.16137,-1.60826 -6.22937,-1.87321 -12.15182,-4.08521 -9.04161,-3.37698 -21.74469,-9.77034 -34.15039,-11.20933 -5.24833,-0.67437 -13.24175,-7.73496 -17.09375,-9.26563 -4.10259,-3.17145 -3.03089,-1.02332 -7.12695,-5.58984 0,0 0.36395,0.8192 1.75195,4.50586 0.85333,2.26934 2.54604,5.05155 2.72071,7.43555 0.21332,2.88933 0.32897,6.6699 -0.32969,9.45523 -0.71334,3.00932 -5.03431,11.59799 -11.19148,14.1636 -6.15718,2.5656 -11.22536,1.24199 -16.47957,-0.51838 -5.25421,-1.76036 -16.20044,-8.46764 -16.20044,-8.46764 -18.12575,-9.08076 -28.3466,-16.04352 -39.86914,-25.81641 -2.76799,-2.37867 -6.10678,-7.24051 -8.05078,-9.58984 -1.94267,-2.34934 -3.50838,-4.5937 -4.76172,-6.70703 -4.14265,-6.31866 -3.66406,1.74608 -3.66406,-6.25391 z"
       sodipodi:nodetypes="cczccccczzzccsssscccccczzcccccc" /><path
       id="path1"
       style="fill:#000000;fill-opacity:1;fill-rule:nonzero;stroke:none;stroke-width:1.33333"
       d="M 192.82617 196.69141 C 192.56251 196.75371 192.31595 196.88849 192.11328 197.08984 C 190.0497 199.85751 187.91069 204.34237 185.48438 210.67969 C 185.48438 210.67969 183.39335 216.61999 181.34766 222.26367 L 181.07227 222.02148 C 180.39375 222.10008 177.31445 224.32622 176.2793 224.95508 C 174.80597 225.85108 172.25086 227.21866 167.54492 229.36328 C 162.83903 231.5079 155.08184 235.72507 145.94922 239.86523 C 136.8166 244.00543 127.97144 246.01667 115.95898 250.03711 C 103.60284 253.73763 79.158326 263.29169 69.933594 265.0332 C 66.35795 266.61371 63.397996 269.92816 59.921875 270.55469 C 54.770738 271.41212 50.489937 275.62076 48.625 278.89648 C 44.952579 285.34708 37.100693 310.0253 35.607422 320.83398 C 33.127929 338.78124 31.03296 356.40905 30.103516 370.80078 C 29.03723 381.01993 29.709274 391.80105 29.363281 400 L 33.791016 400 C 33.849936 374.0773 37.844106 344.51812 40.845703 321.89844 C 43.066554 304.36869 48.563039 291.61896 51.767578 284.81836 C 54.928256 278.11085 57.615553 275.46372 60.642578 275.44531 C 66.945381 275.40701 75.695885 279.07116 78.804688 281.62109 C 81.934721 284.43213 89.365642 290.17122 91.904297 292.83789 C 88.304965 286.60369 84.822615 282.20537 79.873047 277.58789 C 74.389865 274.23199 70.856711 272.60753 69.978516 272.17383 C 68.397324 271.39296 69.208215 269.34644 72.171875 268.04492 C 72.548816 267.87938 75.573476 267.49626 77.408203 266.96875 C 85.947154 264.51367 105.3425 258.90897 109.72656 257.31641 C 116.78253 254.75321 130.34604 251.39853 138.60742 248.49609 C 146.86879 245.59369 151.49479 242.81556 156.89258 240.02148 C 162.29034 237.22745 170.33763 233.56866 174.54883 230.77148 C 178.75998 227.97435 181.04652 228.09401 182.81055 231.18945 C 185.7665 236.97478 191.76028 243.39235 196.10938 248.14844 C 200.45843 252.90448 207.98935 257.85188 212.08398 260.67188 C 219.98055 266.22508 225.04309 269.19734 234.00195 274.36133 C 242.96081 279.52528 250.76277 282.75352 257.57031 283.98828 C 264.37789 285.22305 269.71174 284.91129 276.47461 279.80273 C 283.23748 274.69421 286.46365 260.35531 280.375 250.96875 C 280.2489 250.77435 280.0284 250.28324 279.84961 249.95117 C 280.15866 250.1474 284.7772 253.08258 287.79688 255.25391 C 290.91822 257.49833 295.30001 262.3635 298.30469 263.39062 C 314.95526 267.29439 325.26197 270.3941 340.33984 275.25391 C 342.50905 276.10031 347.78624 277.64379 348.625 277.8457 C 348.98006 277.9312 353.42773 279.27539 353.42773 279.27539 C 353.56465 279.12075 351.43293 277.36957 350.54883 276.50781 C 353.36479 273.61317 357.09989 274.79127 358.56836 275.6543 C 360.03683 276.51729 362.27303 280.28273 364.2168 286.28516 C 366.16055 292.28756 372.75061 317.90072 374.20312 328.48828 C 375.65567 339.07583 377.11567 349.37701 377.08984 359.98047 C 377.38655 368.50417 378.18571 377.02708 378.48242 385.55078 C 379.8536 391.15459 381.93945 395.83984 381.93945 395.83984 C 381.38612 391.40788 381.72077 377.84541 381.64453 373.05469 C 381.56833 368.26393 381.49445 367.88154 381.15234 357.76953 C 380.81022 347.65752 379.77718 336.92908 377.625 324.41992 C 375.47282 311.91076 372.20834 300.17897 368.43164 288.02539 C 366.24172 281.16393 364.73032 276.84679 362.58008 274.31641 C 360.42984 271.78599 359.12615 271.66099 357.06445 271.30859 C 355.00279 270.95619 352.66461 271.59076 350.87891 272.31055 C 349.8264 272.73479 348.55831 273.66996 347.65039 274.39453 C 332.96297 268.48518 314.94497 263.31095 299.40625 259.74609 C 292.56418 254.1692 284.04516 248.58887 276.19922 244.24414 C 276.42639 243.96256 276.66991 243.65465 276.92188 243.2793 C 277.55367 242.06751 276.75094 240.31781 275.99023 238.93555 C 274.68826 236.56974 273.3584 234.45408 271.25586 233.08594 L 267.66602 230.75 C 267.56506 231.55073 267.64163 232.43807 267.58203 232.92578 C 267.23607 235.75683 267.29718 236.90041 266.81445 239.73047 C 266.43461 241.95736 265.99858 243.79134 263.93164 244.8125 C 261.8647 245.83365 260.82207 245.72986 257.12305 245.31641 C 253.42395 244.90297 247.4132 243.46815 242.9707 241.83203 C 212.94847 230.77517 194.84463 199.2213 195.02539 198.80859 L 195.83008 196.9707 C 195.55675 196.88 193.98143 196.73514 193.60547 196.7207 L 192.82617 196.69141 z M 192.47852 201.47656 C 192.47852 201.47656 194.78255 204.57515 195.17773 205.10156 C 198.63703 209.70956 200.4348 211.99707 203.46094 215.33789 C 209.30032 221.7845 212.51377 225.15939 219.05469 230.48438 C 226.71038 236.71691 234.77584 242.08203 243.56641 245.30469 C 247.68766 246.81669 252.10423 248.1311 256.46289 248.64844 C 261.27942 249.14385 262.55346 249.13997 265.15625 248.58594 C 267.75904 248.03191 269.40676 245.42565 269.76367 243.8125 C 270.16556 241.99605 270.49619 240.43525 270.41992 238.58984 L 270.33203 236.48438 L 272.7793 239.34766 C 273.5192 241.47231 273.93714 243.36478 272.98633 245.75 C 272.40042 247.22435 269.94374 250.94055 269.7168 252.61328 C 269.39706 254.96377 269.53878 257.02239 269.67773 259.33984 C 269.81322 261.61469 269.96425 262.37329 271.14648 264.44336 C 271.96213 259.87035 272.27317 254.39992 274.05469 250.06641 C 274.36653 249.30841 274.68491 248.7366 274.97461 248.24414 C 275.73236 249.32799 277.14074 250.30848 278.25977 251.95703 C 279.86905 256.14503 280.88529 262.63054 278.66211 268.09961 C 276.43893 273.56865 274.74717 276.3494 268.89062 277.99023 C 263.03411 279.6311 255.14455 279.26722 252.35938 278.10742 C 249.57417 276.94763 243.08586 274.36197 236.48047 271.11133 C 229.87507 267.86065 208.44813 253.4424 204.32227 249.87695 C 200.19637 246.31155 194.06119 240.02989 191.61719 236.97656 C 189.21664 233.97887 185.50514 228.28115 183.7793 225.33594 C 183.82415 225.12055 183.86218 224.94759 183.94336 224.60742 C 183.95126 224.59312 183.96408 224.57101 183.9707 224.55859 L 183.95703 224.54688 C 184.18279 223.61159 184.51991 222.35781 185.12305 220.56641 C 186.29484 217.08595 191.15734 204.29109 192.47852 201.47656 z " /><path
       style="color:#000000;fill:#000000;fill-opacity:0.3;-inkscape-stroke:none"
       d="m 185.89844,234.82031 c 0,0 -6.37323,3.88784 -21.1875,10.35547 -14.7654,6.4463 -62.13167,24.11967 -66.996096,25.78711 -4.892056,1.67691 -9.556638,2.07666 -12.279297,4.11523 -2.715104,2.03293 -3.88086,6.01954 -3.88086,6.01954 l 1.429688,0.45117 c 0,0 1.262095,-3.70652 3.349609,-5.26953 2.07996,-1.55736 7.205199,-1.90639 12.2851,-3.64769 5.107516,-1.75077 51.688986,-19.23233 66.609836,-25.7465 14.87198,-6.49283 21.45077,-10.78355 21.45077,-10.78355 z"
       id="path21830"
       sodipodi:nodetypes="csssccssscc" /><path
       style="fill:#000000;fill-opacity:1;stroke:none;stroke-width:1px;stroke-linecap:butt;stroke-linejoin:miter;stroke-opacity:1"
       d="m 258.62884,278.01418 6.14657,15.13003 c 0,0 -107.82841,35.12682 -110.19908,36.67866 -2.37067,1.55184 -2.14404,1.81548 -1.89125,4.25532 C 152.93787,336.51803 176.83215,400 176.83215,400 h -15.13002 c 0,0 -26.96588,-67.36839 -27.45677,-70.17713 -0.49089,-2.80874 -0.48881,-5.00688 1.89126,-7.56501 2.38007,-2.55813 122.49222,-44.24368 122.49222,-44.24368 z"
       id="path21855"
       sodipodi:nodetypes="cczzcczzc" /><path
       style="color:#000000;fill:#000000;fill-opacity:0.3;-inkscape-stroke:none"
       d="m 264.83008,292.29687 -1.41992,0.48243 c 0,0 7.66908,22.59836 15.49414,46.07812 3.91253,11.73988 7.8636,23.70111 10.91406,33.16406 1.52523,4.73148 1.98904,8.3367 2.94543,11.47703 0.95639,3.14033 1.91102,5.87051 2.04527,6.62844 0.6174,3.48574 0.40248,5.90265 0.3727,7.43164 -0.0298,1.529 -0.52574,2.44141 -0.52574,2.44141 h 2.61937 c 0,0 0.21028,-0.77369 0.24219,-2.41211 0.0319,-1.63842 -0.0981,-4.15265 -0.73047,-7.72266 -0.17819,-1.006 -0.7914,-3.14873 -1.75195,-6.30273 -0.96056,-3.154 -2.26242,-7.2661 -3.78907,-12.00195 -3.05328,-9.4717 -7.0046,-21.43535 -10.91797,-33.17774 -7.82672,-23.48477 -15.49804,-46.08594 -15.49804,-46.08594 z"
       id="path21857"
       sodipodi:nodetypes="ccsssssccsssssc" /><path
       style="fill:#000000;fill-opacity:1;stroke:none;stroke-width:1px;stroke-linecap:butt;stroke-linejoin:miter;stroke-opacity:1"
       d="m 353.13761,281.38153 c 0,0 3.2392,8.06364 4.31234,12.8997 4.39558,19.80831 16.28738,71.75622 20.32783,86.80624 5.0269,18.72437 5.67376,18.91253 5.67376,18.91253 h -5.67376 c 0,0 -10.26416,-42.33581 -14.12704,-60.79706 -2.98889,-14.28431 -6.08769,-38.40725 -8.21029,-48.23852 -0.65273,-3.02326 -2.30284,-9.58289 -2.30284,-9.58289 z"
       id="path21859"
       sodipodi:nodetypes="cssccssc" /><path
       style="fill:#000000;fill-opacity:1;stroke:none;stroke-width:1px;stroke-linecap:butt;stroke-linejoin:miter;stroke-opacity:1"
       d="m 102.60047,316.31206 c 0,0 9.46636,34.29124 11.82033,48.22695 C 116.77477,378.47472 117.7305,400 117.7305,400 h 8.03782 c 0,0 -2.18323,-23.23364 -5.20094,-37.35225 -3.01771,-14.11861 -17.96691,-46.33569 -17.96691,-46.33569 z"
       id="path24240"
       sodipodi:nodetypes="czcczc" /><path
       style="fill:#000000;fill-opacity:0.3;stroke:none;stroke-width:1px;stroke-linecap:butt;stroke-linejoin:miter;stroke-opacity:1"
       d="m 49.352415,298.6744 c -0.688484,-1.07825 -0.513741,-3.03237 0.04056,-5.08418 0.554302,-2.05181 1.72176,-4.20024 4.434065,-6.0669 2.712305,-1.86666 6.669729,-3.8752 11.367201,-3.51045 4.697472,0.36475 10.943366,4.1646 14.710496,7.18808 3.76713,3.02348 6.240433,6.35629 7.856742,9.86272 1.616309,3.50643 2.129148,7.8232 2.005977,10.36421 -0.123171,2.54101 -0.432545,3.61049 -1.337318,4.51345 -0.904773,0.90296 -1.20656,1.42397 -2.8418,0.83582 -1.63524,-0.58815 -3.677624,-5.51643 -4.179119,-6.18509 -0.501495,-0.66866 -4.427,-6.18115 -7.522412,-8.69257 -3.095412,-2.51142 -9.528389,-5.85076 -10.865707,-6.01793 -1.337318,-0.16717 -4.290868,-0.0496 -6.132654,0.87464 -1.841786,0.92425 -3.734014,3.17918 -4.900218,3.30448 -1.166204,0.1253 -1.94733,-0.30803 -2.635814,-1.38628 z"
       id="path26498"
       sodipodi:nodetypes="zzzzzzzzzzzzzzz" /><path
       style="fill:#d30000;fill-opacity:1;stroke:none;stroke-width:2.5;stroke-linecap:butt;stroke-linejoin:miter;stroke-dasharray:none;stroke-opacity:1"
       d="m 128.42639,243.87868 c 3.31159,0.30575 13.52085,7.60872 19.60492,15.37786 6.08407,7.76913 10.49421,13.56691 17.02616,23.50208 6.53195,9.93517 10.77681,20.19577 14.71264,28.96552 3.93583,8.76975 10.25924,25.57593 10.25924,25.57593 l -28.38755,10.11495 c 0,0 -5.92354,-17.31296 -9.91766,-26.03571 -3.99412,-8.72275 -8.66645,-18.10084 -15.63219,-28.04598 -6.96574,-9.94514 -20.64642,-26.34932 -26.54846,-29.74076 -5.90203,-3.39144 -8.16404,-3.2584 -10.917909,-4.68738 -2.753871,-1.42898 -3.540098,-4.09729 -1.034483,-5.28736 2.505612,-1.19007 6.923592,-1.69745 10.323832,-3.20816 3.40024,-1.51071 10.4532,-3.36444 13.27008,-4.57696 2.81688,-1.21252 3.92979,-2.25977 7.24138,-1.95403 z"
       id="path25547"
       sodipodi:nodetypes="zzzzcczzzzzzzz" /><path
       style="color:#000000;fill:#000000;-inkscape-stroke:none"
       d="m 128.57557,242.52738 c -1.79866,-0.16606 -3.15846,0.0507 -4.34375,0.47656 -1.1853,0.42582 -2.16451,0.996 -3.50781,1.57422 -3.19353,1.37465 -8.87764,3.31221 -11.97888,4.69008 -1.62827,0.72343 -3.60367,1.67245 -5.51562,2.21484 -1.93357,0.54853 -4.956634,0.50591 -6.197738,1.88095 -0.948094,1.05041 -1.412068,2.16108 -1.181641,3.48039 0.230428,1.31932 0.724762,2.13557 2.051132,3.07949 1.649352,1.17378 4.215567,1.68565 7.615237,3.00977 3.39967,1.32412 7.68527,4.66188 11.80302,8.07896 8.30103,6.88855 10.83245,13.16346 17.74884,23.03814 6.90458,9.85782 11.53785,19.15402 15.51953,27.84961 3.92139,8.56392 10.01505,25.93291 10.01505,25.93291 l 0.38868,1.24023 30.91015,-10.96875 -0.42187,-1.18164 c 0,0 -6.59091,-16.84468 -10.56974,-25.71025 -3.92417,-8.74376 -8.31439,-19.55589 -14.8086,-29.14062 -6.72721,-9.92862 -9.78112,-13.90628 -17.63768,-23.32051 -3.82259,-4.58046 -8.66609,-9.09131 -13.41808,-12.53878 -2.40166,-1.63968 -5.299,-3.58361 -6.47023,-3.6856 z m -0.23047,2.49023 c 1.31426,0.22427 4.22051,2.48784 5.23195,3.2188 4.66276,3.38274 9.56965,7.76662 13.19347,12.35324 7.26664,9.19731 9.88561,13.52461 16.77034,23.09207 6.80609,9.45817 11.14056,19.75889 15.08805,28.55461 3.62118,8.06866 9.40834,22.54223 10.06193,24.35478 l -26.10743,9.26367 c -0.59697,-1.89752 -5.94334,-16.74302 -9.72208,-24.99541 -4.00655,-8.74989 -8.71921,-18.20974 -15.7461,-28.24218 -7.01507,-10.01558 -9.49603,-16.30545 -18.2,-23.52837 -4.38475,-3.63865 -6.94167,-5.43291 -12.49248,-8.48522 -3.33347,-1.83303 -6.02686,-2.28428 -6.717658,-2.7759 -1.909522,-1.38515 -1.257499,-2.06882 -0.373398,-3.12782 0.438827,-0.54282 3.077376,-0.28098 4.866566,-0.91211 1.74902,-0.61696 3.78858,-1.44905 5.56055,-2.23633 3.69923,-1.64355 9.51325,-3.62601 11.95348,-4.6764 1.47357,-0.6343 2.46196,-1.19503 3.36523,-1.51954 0.90327,-0.3245 1.95332,-0.56216 3.26758,-0.33789 z"
       id="path25549"
       sodipodi:nodetypes="csssssssssssccccssscczcsssccssssccssssz" /><path
       id="path38359"
       style="fill:#aaaaaa;fill-opacity:1;stroke:#000000;stroke-width:1px;stroke-linecap:butt;stroke-linejoin:miter;stroke-opacity:1"
       d="m 179.68095,324.08342 c -1.06024,-0.52429 -17.93108,6.55897 -18.20508,7.3164 -0.274,0.75743 2.73997,7.75028 3.57618,8.28907 0.83621,0.53879 18.3895,-5.52506 18.69336,-6.66407 0.30386,-1.13901 -3.00422,-8.41711 -4.06446,-8.9414 z m -1.13672,4.71484 0.97461,2.27539 c -4.30739,2.11331 -8.77734,3.90151 -13.16601,4.87695 l -0.89453,-1.95117 c 4.0867,-2.28605 7.7308,-3.7985 13.08593,-5.20117 z"
       sodipodi:nodetypes="zzzzzccccc" /><path
       style="fill:#aaaaaa;fill-opacity:1;stroke:#000000;stroke-width:1px;stroke-linecap:butt;stroke-linejoin:miter;stroke-opacity:1"
       d="m 167.9496,326.25296 5.44554,12.43532 c 1.43588,0 2.70922,-0.48766 4.06383,-1.46298 l -5.44554,-12.67915 c -1.67971,0 -2.95305,0.48766 -4.06383,1.70681 z"
       id="path38364"
       sodipodi:nodetypes="ccccc" /><path
       style="color:#000000;fill:#000000;fill-opacity:0.3;-inkscape-stroke:none"
       d="m 119.84214,364.55343 -0.71875,1.3164 c 0,0 3.83424,2.09541 8.10742,4.61524 4.27319,2.51982 9.04427,5.54036 10.64454,7.08789 0.62144,0.60097 1.58709,2.68663 2.40625,5.33594 0.81915,2.64931 1.59138,5.89535 2.2539,9.03711 1.32504,6.28352 1.87661,8.05399 1.87661,8.05399 h 1.48242 c 0,0 -0.55616,-2.02677 -1.89223,-8.36259 -0.66803,-3.16791 -1.44657,-6.44511 -2.28906,-9.16992 -0.8425,-2.72481 -1.64835,-4.86393 -2.79688,-5.97461 -1.93968,-1.87576 -6.62574,-4.76627 -10.92383,-7.30078 -4.29808,-2.53451 -8.15039,-4.63867 -8.15039,-4.63867 z"
       id="path29505"
       sodipodi:nodetypes="ccssssccssssc" /><path
       style="fill:#000000;fill-opacity:0.2;stroke:none;stroke-width:1px;stroke-linecap:butt;stroke-linejoin:miter;stroke-opacity:1"
       d="m 111.34752,337.58865 c 0,0 13.12777,17.95298 18.20331,28.3688 5.07554,10.41582 9.21986,33.56974 9.21986,33.56974 L 121.98582,400 c 0,0 -6.14658,-41.37116 -6.14658,-43.26241 0,-1.89125 -4.49172,-19.14894 -4.49172,-19.14894 z"
       id="path29511"
       sodipodi:nodetypes="czccsc" /><path
       style="fill:#000000;fill-opacity:0.3;stroke:none;stroke-width:1px;stroke-linecap:butt;stroke-linejoin:miter;stroke-opacity:1"
       d="m 358.86525,305.91017 c 8.12387,20.67486 13.40593,38.17359 19.85815,60.52009 v 26.00473 l -9.92907,-36.40662 z"
       id="path30301"
       sodipodi:nodetypes="ccccc" /><path
       id="path283392"
       style="opacity:0.199997;fill:#000000;fill-opacity:1;fill-rule:nonzero;stroke:none;stroke-width:1.33333"
       d="m 180.33398,226.48242 c -6.75331,2.5483 -20.44531,9.98303 -46.17039,20.50461 -0.86986,-1.60223 -5.85286,-3.93094 -7.20145,-3.42863 -9.96586,3.71203 -21.47291,8.67591 -29.156046,11.45971 -1.179509,0.42736 3.312306,3.34368 2.126845,3.78534 -7.359397,2.74186 -14.854637,5.77719 -22.747392,9.32936 -6.938987,2.88838 -18.859678,4.37771 -21.763672,6.98438 -9.815573,11.62158 -9.894683,21.50278 -14.791016,40.0039 -3.949405,17.25625 -5.045932,35.59438 -6.632812,50.42774 -1.107998,6.50531 -0.9967,8.39859 -2.472656,17.39258 0.117676,5.33143 -0.859205,8.65654 -0.283203,11.86718 l 0.240234,0.47852 c 0.446664,2.49334 1.181016,2.08502 1.541016,4.67969 h 20.166015 c 0.196,-3.43334 -0.167174,-7.00222 -0.08984,-10.29688 0.04199,-1.77404 0.234596,-3.53043 0.482422,-5.28125 0.403551,-0.46383 0.8225,-0.9337 1.263672,-1.41015 7.254668,-7.8348 23.254255,-27.69123 26.951172,-36.40625 3.696917,-8.71504 4.563857,-8.99241 1.890625,-11.34766 -2.673232,-2.35525 -3.582562,-0.75698 -9.455078,2.83594 -3.62835,2.21988 -8.837336,7.53117 -13.671875,13.01367 1.146701,-3.62844 2.455856,-7.18804 3.972656,-10.64844 5.682611,-10.91969 7.045428,-14.96299 12.228516,-24.2539 8.061605,-9.83474 8.679791,-10.66471 17.27539,-16.04688 9.830757,-5.05829 15.434227,-7.809 26.708977,-12.52148 2.85354,-1.1681 5.81327,-2.28368 8.83793,-3.34846 0.53889,-0.18971 -0.22039,-1.67805 0.32239,-1.86454 9.2876,-3.19109 19.81957,-6.2675 29.00844,-8.56881 0.42511,-0.12111 1.43849,1.41407 1.85812,1.29584 2.37054,-0.66789 4.65357,-1.28982 6.85008,-1.86755 28.43461,-7.48132 48.85937,-10.78906 48.85937,-10.78906 0,0 -11.6024,-5.51699 -20.87304,-16.6543 -3.08933,-3.71334 -5.02724,-4.51077 -7.25391,-8.99609 -2.228,-4.484 -3.54361,-5.33151 -8.02149,-10.32813 z m -87.267574,128.1543 c -2.814002,-0.0777 -6.610819,5.1472 -11.550781,12.05078 C 76.246332,374.05132 66.666016,400 66.666016,400 h 21.277343 c 0,0 6.295585,-20.76707 6.925782,-28.61719 0.630196,-7.85012 1.610373,-15.80403 -1.251953,-16.6582 -0.178896,-0.0534 -0.363182,-0.0827 -0.550782,-0.0879 z"
       sodipodi:nodetypes="scssscccccccccccsssscccccsscscccccssccsssss" /><g
       id="g35941"
       transform="rotate(-3.8144818,324.66385,333.59373)"><path
         style="color:#000000;fill:#d9a14b;stroke:#000000;stroke-width:1.47163;stroke-miterlimit:9;stroke-dasharray:none;stroke-opacity:1"
         d="m 301.35832,325.04555 c -4.07339,0.47152 -6.59818,3.97812 -5.57291,7.80332 l 1.31466,4.90489 c 1.01436,3.78456 5.11991,6.32195 9.10385,5.69119 l 43.03941,-6.81427 c 3.19673,-0.50611 5.12876,-3.60397 4.3553,-6.93542 l -1.00175,-4.31477 c -0.78072,-3.36277 -4.02477,-5.80012 -7.28551,-5.42269 z m 0.4066,1.5439 43.87605,-5.23401 c 2.5471,-0.30385 5.04508,1.56196 5.65866,4.19557 l 1.00843,4.32833 c 0.60839,2.61136 -0.88294,4.99179 -3.38823,5.37958 l -43.11418,6.67373 c -3.11131,0.4816 -6.24743,-1.47023 -7.03418,-4.41728 l -1.30479,-4.88752 c -0.79436,-2.97556 1.12885,-5.66032 4.29824,-6.0384 z"
         id="path34684" /><path
         id="rect18996"
         style="fill:#fbeacf;stroke-width:0.195371;stroke-miterlimit:9"
         d="m 301.56156,325.81809 43.91495,-5.16102 c 2.90394,-0.34127 5.77507,1.80959 6.47249,4.80827 l 1.0051,4.32163 c 0.69122,2.97205 -1.02062,5.71171 -3.87222,6.15816 l -43.07718,6.74412 c -3.54761,0.55542 -7.16693,-1.69004 -8.06709,-5.05521 l -1.30973,-4.89627 c -0.90934,-3.39952 1.31314,-6.49419 4.93368,-6.91968 z" /><path
         style="color:#000000;fill:#d9a14b;stroke:#000000;stroke-width:0.440392;stroke-miterlimit:9;stroke-opacity:1;-inkscape-stroke:none"
         d="m 301.35832,325.04555 c -4.07339,0.47152 -6.59818,3.97812 -5.57291,7.80332 l 1.31466,4.90489 c 1.01436,3.78456 5.11991,6.32195 9.10385,5.69119 l 43.03941,-6.81427 c 3.19673,-0.50611 5.12876,-3.60397 4.3553,-6.93542 l -1.00175,-4.31477 c -0.78072,-3.36277 -4.02477,-5.80012 -7.28551,-5.42269 z m 0.4066,1.5439 43.87605,-5.23401 c 2.5471,-0.30385 5.04508,1.56196 5.65866,4.19557 l 1.00843,4.32833 c 0.60839,2.61136 -0.88294,4.99179 -3.38823,5.37958 l -43.11418,6.67373 c -3.11131,0.4816 -6.24743,-1.47023 -7.03418,-4.41728 l -1.30479,-4.88752 c -0.79436,-2.97556 1.12885,-5.66032 4.29824,-6.0384 z"
         id="rect18998" /><path
         id="rect21363"
         style="fill:#d5def1;fill-opacity:1;stroke:#000000;stroke-width:0.348751;stroke-miterlimit:9;stroke-dasharray:none;stroke-opacity:1"
         d="m 304.27734,329.92843 c 2.11999,0.28342 3.91537,1.80672 4.41848,3.73375 0.49823,1.92844 -0.41334,3.81313 -2.24473,4.62632 l 39.60651,-5.8154 c -1.76261,-0.24128 -3.28347,-1.63881 -3.7134,-3.42505 -0.42449,-1.79051 0.35522,-3.51313 1.90112,-4.21257 z" /><path
         id="path21425"
         style="fill:#d9a14b;stroke:#000000;stroke-width:0.308275;stroke-miterlimit:9"
         d="m 347.96248,323.58415 c 0.12836,0.54677 -0.19081,1.04393 -0.71401,1.1109 -0.52456,0.0671 -1.05579,-0.32327 -1.18537,-0.87253 -0.12967,-0.54963 0.19239,-1.04799 0.71819,-1.11265 0.52444,-0.0645 1.05277,0.32715 1.18119,0.87428 z" /><path
         style="fill:#d9a14b;fill-opacity:1;stroke:#000000;stroke-width:0.352314;stroke-linecap:butt;stroke-linejoin:miter;stroke-dasharray:none;stroke-opacity:1"
         d="m 300.62931,334.01946 7.74311,-1.49067 33.72924,-4.53558 6.8702,-0.52256 0.35247,1.15498 -6.75081,1.34232 -33.6464,4.69211 -7.95284,0.65998 z"
         id="path21495" /><path
         id="path21497"
         style="fill:#d9a14b;fill-opacity:1;stroke:#000000;stroke-width:0.784871;stroke-miterlimit:9;stroke-dasharray:none;stroke-opacity:1"
         d="m 322.77553,316.71454 c -8.73229,0.8916 -14.23996,8.73165 -11.99596,17.39413 2.22036,8.57145 11.07974,14.21264 19.49929,12.73549 8.09597,-1.42035 12.89265,-8.9624 10.97409,-16.96486 -1.93747,-8.08156 -10.08688,-14.02151 -18.47742,-13.16476 z m 0.66654,2.67648 c 6.92654,-0.75144 13.70022,4.1312 15.31797,10.83427 1.60473,6.64885 -2.40038,12.89475 -9.12546,14.03178 -6.94683,1.17458 -14.20475,-3.50522 -16.01477,-10.5426 -1.82574,-7.09826 2.66375,-13.5469 9.82226,-14.32345 z" /><path
         style="fill:#d9a14b;fill-opacity:1;stroke:#000000;stroke-width:0.880786;stroke-linecap:butt;stroke-linejoin:miter;stroke-dasharray:none;stroke-opacity:1"
         d="m 319.19614,352.8968 c -2.11073,-13.57764 -1.62198,-27.54217 2.92681,-39.20336 8.57676,9.86592 14.63978,20.13923 19.50008,31.38182 0,0 -6.33051,-8.66554 -9.30923,-8.24538 -5.45056,0.65516 -13.11766,16.06692 -13.11766,16.06692 z"
         id="path21563"
         sodipodi:nodetypes="ccccc" /><path
         style="fill:#000000;fill-opacity:1;stroke:none;stroke-width:0.440392px;stroke-linecap:butt;stroke-linejoin:miter;stroke-opacity:1"
         d="m 325.231,329.62437 -1.3902,-10.76101 3.99321,10.34449 3.12506,0.70293 -2.31205,1.43726 1.01175,2.66339 -2.55368,-2.30939 -1.13056,3.19616 -0.43875,-3.19118 -2.96011,-0.87435 z"
         id="path21565" /></g><path
       style="color:#000000;fill:#000000;fill-opacity:0.3;-inkscape-stroke:none"
       d="m 259.13134,273.10547 c -2.65673,0.36824 -6.05685,0.1329 -9.7815,0.0165 -3.77934,-0.11808 -8.09233,-0.74246 -8.09233,-0.74246 0,0 5.42216,2.63348 9.18431,2.9788 3.85148,0.35353 7.70241,0.31087 10.24237,-0.37966 5.11865,-1.39158 8.79183,-6.40474 8.79183,-6.40474 0,0 -5.97057,3.92528 -10.34468,4.53154 z"
       id="path25489"
       sodipodi:nodetypes="sscsscs" /><path
       id="path21908"
       style="color:#000000;fill:#000000;fill-opacity:0.3;-inkscape-stroke:none"
       d="m 266.9707,251.30469 c 0,0 -0.7086,5.86103 -0.95919,8.88371 -0.25059,3.02268 -0.50257,9.21059 -0.50257,9.21059 l 0.6908,0.0156 c 0,0 1.13836,-6.03672 1.23483,-9.06312 0.10133,-3.17917 0.22889,-8.99134 0.22889,-8.99134 z m -7.14076,0.66851 c 0,0 -1.5412,7.21199 -2.01483,10.27677 -0.47363,3.06478 -0.91055,9.95071 -0.91055,9.95071 l 0.51387,0.17937 c 0,0 1.42456,-6.70245 1.89819,-9.7669 0.47363,-3.06445 1.23615,-10.54222 1.23615,-10.54222 z m -9.97694,-1.10326 c 0,0 -1.9772,6.5995 -2.67381,9.83159 -0.69662,3.2321 -1.54767,9.97891 -1.54767,9.97891 l 0.74313,0.16917 c 0,0 1.72643,-6.45831 2.42305,-9.69008 0.69662,-3.23177 1.71485,-10.16025 1.71485,-10.16025 z m -9.67612,-3.24885 c 0,0 -2.52645,6.74217 -3.50171,10.02961 -0.97526,3.28743 -2.43345,9.98754 -2.43345,9.98754 l 0.70603,0.15241 c 0,0 2.41364,-6.4172 3.38858,-9.70496 0.97493,-3.28776 2.46103,-10.27236 2.46103,-10.27236 z m -8.07739,-3.76528 c 0,0 -2.80786,5.32712 -4.03377,8.3919 -1.22591,3.06478 -3.53065,9.99678 -3.53065,9.99678 l 0.64547,0.28248 c 0,0 3.13921,-6.907 4.36512,-9.97145 1.22592,-3.06446 3.19931,-8.45706 3.19931,-8.45706 z m -8.51516,-5.45778 c 0,0 -2.86463,5.76482 -4.11821,8.66228 -1.25358,2.89746 -3.11073,8.97324 -3.11073,8.97324 l 0.62203,0.33522 c 0,0 2.68347,-5.56724 3.93738,-8.46503 1.25391,-2.89779 3.25173,-9.08886 3.25173,-9.08886 z m -8.25991,-7.63476 c 0,0 -3.55665,6.0624 -4.85552,9.44419 -1.2465,3.24544 -3.9284,10.12887 -3.9284,10.12887 l 0.60915,0.4524 c 0,0 3.59961,-6.22258 4.96982,-9.41745 1.49155,-3.47781 3.89768,-10.19543 3.89768,-10.19543 z m -6.74762,-7.07484 c 0,0 -3.21481,5.81155 -4.55741,9.39233 -1.19978,3.19988 -4.0781,10.10124 -4.0781,10.10124 l 0.85208,0.42624 c 0,0 3.51443,-6.08583 4.73988,-9.27273 1.41715,-3.68543 3.85579,-10.26263 3.85579,-10.26263 z m -6.71016,-6.71606 c 0,0 -2.98431,5.32032 -4.32649,8.2051 -1.45345,3.12393 -4.07299,10.31543 -4.07299,10.31543 l 0.64389,0.54421 c 0,0 3.79534,-7.36984 4.83299,-9.83137 0.78731,-1.86766 3.60829,-8.77274 3.60829,-8.77274 z m -6.20943,-7.10919 c 0,0 -2.70387,4.79339 -4.05992,7.6351 -1.51947,3.18417 -3.70037,9.88973 -3.70037,9.88973 l 0.69351,0.40126 c 0,0 2.51169,-5.69696 4.04424,-8.78478 1.3812,-2.78289 3.50904,-8.65648 3.50904,-8.65648 z"
       sodipodi:nodetypes="csccscccsccscccsccscccsccscccsccscccsccscccsccscccsccscccsccscccsccscc" /></g></svg>
