<?xml version="1.0" encoding="UTF-8" standalone="no"?>
<!-- Created with Inkscape (http://www.inkscape.org/) -->

<svg
   width="400"
   height="400"
   viewBox="0 0 400 400"
   version="1.1"
   id="svg11557"
   xml:space="preserve"
   inkscape:version="1.3 (0e150ed, 2023-07-21)"
   sodipodi:docname="TwokAverageMaleEnlisted.svg"
   xmlns:inkscape="http://www.inkscape.org/namespaces/inkscape"
   xmlns:sodipodi="http://sodipodi.sourceforge.net/DTD/sodipodi-0.dtd"
   xmlns="http://www.w3.org/2000/svg"
   xmlns:svg="http://www.w3.org/2000/svg"><sodipodi:namedview
     id="namedview11559"
     pagecolor="#ffffff"
     bordercolor="#666666"
     borderopacity="1.0"
     inkscape:showpageshadow="2"
     inkscape:pageopacity="0.0"
     inkscape:pagecheckerboard="0"
     inkscape:deskcolor="#d1d1d1"
     inkscape:document-units="px"
     showgrid="false"
     inkscape:zoom="2.1925"
     inkscape:cx="200"
     inkscape:cy="200"
     inkscape:window-width="1952"
     inkscape:window-height="1090"
     inkscape:window-x="2020"
     inkscape:window-y="61"
     inkscape:window-maximized="0"
     inkscape:current-layer="layer5" /><defs
     id="defs11554"><inkscape:path-effect
       effect="perspective-envelope"
       up_left_point="277.3381,311.4347"
       up_right_point="392.78333,306.33"
       down_left_point="277.3381,383.64976"
       down_right_point="392.78333,383.64976"
       id="path-effect41439"
       is_visible="true"
       lpeversion="1"
       deform_type="perspective"
       horizontal_mirror="false"
       vertical_mirror="false"
       overflow_perspective="false" /></defs><g
     inkscape:groupmode="layer"
     id="layer1"
     inkscape:label="Neck"><path
       d="m 213.63253,151.29441 -13.54934,47.14666 c 0,0 12.42667,24.85333 21.464,31.49067 9.03734,6.636 24.148,15.816 35.02134,17.228 l 3.8804,0.52463 2.6156,0.32203 5.224,-2.25866 3.81333,-10.87467 18.428,-23.08667 z"
       style="fill:#cd976d;fill-opacity:1;fill-rule:nonzero;stroke:none;stroke-width:1.33333"
       id="path171974"
       sodipodi:nodetypes="cccccccccc" /><path
       d="m 200.08306,198.44081 c 0,0 12.86667,21.57066 17.836,27.06399 4.96933,5.49334 32.696,1.83067 40.54267,4.18534 6.33866,1.90133 13.09866,2.66533 15.47066,2.89066 l 16.59734,-20.79333 -76.89734,-60.49333 z"
       style="opacity:0.199997;fill:#000000;fill-opacity:1;fill-rule:nonzero;stroke:none;stroke-width:1.33333"
       id="path171984" /><path
       d="m 211.64493,149.52841 c -1.01067,4.99733 -6.2,23.82533 -7.36934,28.788 -0.956,4.064 -1.95733,8.11866 -3.072,12.14266 -0.516,1.85867 -1.07466,3.70267 -1.63333,5.54934 -0.18666,0.616 -0.95466,1.86266 -0.88133,2.47466 0.02,0.16934 0.80667,2.38267 1.11067,1.93733 3.68799,-5.38666 5.03733,-14.18666 7.12666,-20.38133 1.49067,-4.41866 7.06133,-22.68666 8.552,-27.104 0,0 -3.83333,-3.40666 -3.83333,-3.40666"
       style="fill:#000000;fill-opacity:1;fill-rule:nonzero;stroke:none;stroke-width:1.33333"
       id="path171994" /><path
       d="m 293.27599,213.31907 c -2.83733,2.044 -16.28266,19.912 -18.592,22.53067 -1.87866,2.13066 -4.41733,10.85066 -7.52933,10.948 -2.104,0.0653 -1.74133,-3.72534 -1.19333,-5.332 0.26266,-0.76934 21.288,-30.90934 21.288,-30.90934 0,0 6.02666,2.76267 6.02666,2.76267"
       style="fill:#000000;fill-opacity:1;fill-rule:nonzero;stroke:none;stroke-width:1.33333"
       id="path171998" /></g><g
     inkscape:groupmode="layer"
     id="layer5"
     inkscape:label="Uniform"><path
       d="m 196.9892,241.882 c 22.14533,19.02267 37.47733,27.54 37.47733,27.54 l 12.78848,7.04831 19.31434,0.0925 13.15612,-5.39951 c 0,0 4.71172,-5.43199 3.29172,-9.40666 -1.42,-3.97467 -6.26,-16.73733 -6.26,-16.73733 l 0.29734,-2.28534 -4.04235,-6.88321 -0.18534,0.152 -4.53765,9.74455 -5.22533,2.25866 -2.46445,-0.20084 -4.03155,-0.64582 c -10.87333,-1.412 -25.98267,-10.59067 -35.02,-17.228 -9.03867,-6.63734 -21.46533,-31.49067 -21.46533,-31.49067 l 0.17568,-2.85913 -2.42101,-0.95687 -12.55334,9.764 -4.10666,2.73733 0.0893,0.68667 c 0,0 -6.42267,15.04667 15.72267,34.06933"
       style="fill:#2d2d2d;fill-opacity:1;fill-rule:nonzero;stroke:none;stroke-width:1.33333"
       id="path171966"
       sodipodi:nodetypes="cccccscccccccccccccccc" /><path
       id="path171958"
       style="fill:#700000;fill-opacity:1;fill-rule:nonzero;stroke:none;stroke-width:1.33333"
       d="m 181.13583,206.19342 -0.44833,0.31439 -5.62713,3.39081 -41.23917,19.0411 -38.912997,21.73606 -11.855469,6.04297 -9.730693,5.01297 -4.171628,3.95066 -11.118579,2.44635 C 49.577549,274.23242 45.03131,281.3706 41.979324,296.78464 36.789734,326.88771 29.181408,369.89668 23.993266,400 l 361.696184,-0.0332 -1.00976,-30.86133 -0.86914,-26.57227 c -1.52533,-11.00266 -3.12611,-48.21866 -5.45544,-55.79065 -1.69696,-5.51514 -4.91167,-11.18188 -8.37646,-12.80045 -2.23035,-1.04191 -4.32868,-0.0745 -7.28724,-0.0202 -8.15467,-4.88133 -35.08884,-19.29515 -45.54883,-21.61915 -10.46133,-2.32533 -26.81507,-12.73545 -37.03906,-17.07812 l -5.7594,-0.10674 2.99572,6.47979 -0.29882,2.28711 c 0,0 -4.02931,7.84336 -6.23757,11.97927 -0.83758,3.73412 -0.6649,7.04088 -0.6649,7.04088 l -7.84273,7.41328 -22.94236,0.47378 -6.06635,-1.85448 c 0,0 -13.86836,-9.16877 -36.01367,-28.19141 -22.14665,-19.02398 -15.72461,-34.06836 -15.72461,-34.06836 z"
       sodipodi:nodetypes="cccccccccccccccscccccccccccccc" /><path
       id="path2"
       style="fill:#b79180;fill-opacity:1;stroke:none;stroke-width:1px;stroke-linecap:butt;stroke-linejoin:miter;stroke-opacity:1"
       d="m 181.13672,206.19336 -0.44922,0.31445 -5.62695,3.39063 -41.24024,19.04101 -38.912107,21.73633 -11.855469,6.04297 -9.730468,5.01367 -4.171875,3.94922 -11.119141,2.44727 c -2.002919,1.44603 -5.383425,3.60571 -6.979746,5.26416 4.576228,0.082 10.812394,1.8376 18.152144,6.36807 14.824231,9.15029 19.68877,13.69005 28.668907,25.85851 8.980135,12.16845 14.007885,26.82441 17.520025,39.19285 3.51214,12.36844 5.47461,31.01367 5.47461,31.01367 l 107.18359,1.36914 70.69531,-1.36914 54.27539,-7.7539 17.33204,-2.2793 7.29687,-39.22461 1.93555,-32.58398 c -0.38979,-3.13543 -0.79377,-5.82259 -1.23047,-7.24219 -1.69696,-5.51514 -4.91217,-11.18222 -8.37695,-12.80078 -2.23035,-1.04191 -4.32856,-0.0738 -7.28711,-0.0195 -8.15467,-4.88133 -35.08885,-19.29515 -45.54883,-21.61915 -10.46132,-2.32532 -26.81508,-12.73545 -37.03906,-17.07812 l -5.75977,-0.10742 2.99609,6.48047 -0.29882,2.28711 c 0,0 -4.03003,7.84261 -6.23829,11.97851 -0.83757,3.73412 -0.66406,7.04102 -0.66406,7.04102 l -7.84375,7.41406 -22.9414,0.47461 -6.06641,-1.85547 c 0,0 -13.86838,-9.16879 -36.01367,-28.19141 -22.14663,-19.02396 -15.72461,-34.06836 -15.72461,-34.06836 z"
       sodipodi:nodetypes="ccccccccccszzccccccccscccccccccccccc" /><path
       d="m 277.32052,244.05234 c -0.3409,2.89085 -1.66439,4.21686 -3.26039,6.91153 -2.38667,4.032 -3.48134,9.40133 -4.94667,13.80933 -0.872,-2.21866 -1.20133,-3.37733 -1.008,-5.648 0.196,-2.31333 0.44933,-4.564 1.104,-6.844 0.46533,-1.62266 3.86455,-5.49545 4.65655,-6.87012 1.59866,-2.768 0.99466,-5.07867 0.372,-8.04267 0.23866,0.32 0.90094,-1.44714 1.20361,-1.18047 0.36,1.30533 1.12306,3.39639 1.55906,4.38973 0.33067,0.75333 0.46024,2.28406 0.31984,3.47467 z"
       style="fill:#000000;fill-opacity:1;fill-rule:nonzero;stroke:none;stroke-width:1.33333"
       id="path172002"
       sodipodi:nodetypes="sccccccccs" /><path
       id="path172014"
       style="fill:#000000;fill-opacity:1;fill-rule:nonzero;stroke:none;stroke-width:1.33333"
       d="m 274.08028,238.81016 c 0.12534,-0.46667 0.73828,-1.30664 0.73828,-1.30664 0,0 0.0695,-0.32137 1.30453,-2.18514 3.54132,-0.148 7.58622,2.95715 11.07422,4.50781 10.63465,4.73067 19.85776,12.18913 31.09375,15.81445 7.48063,2.4126 30.04492,11.20983 42.73288,18.97768 2.0961,0.26488 3.32411,-0.22189 5.07542,0.25349 3.72835,1.01203 6.92484,4.28823 8.18117,6.79575 1.75094,3.49469 2.27172,5.40151 2.77029,7.39105 0.95001,3.80153 2.60241,9.78674 3.37695,16.78711 0.74701,6.75133 0.96883,27.73662 1.10652,29.40729 0.13768,1.67067 0.12166,4.72541 0.45013,7.28023 0.74285,19.74732 1.03711,39.5079 0.78124,57.4336 h 4.79102 l -2.30469,-57.4336 c -0.19643,-3.48973 -0.55643,-6.01595 -0.81439,-8.77858 -0.18525,-1.91538 -0.2294,-21.02642 -1.02741,-28.23881 -0.80531,-7.27825 -2.51896,-13.46304 -3.44922,-17.18554 -1.83299,-8.20444 -4.11179,-13.03171 -13.93212,-16.50396 -1.57726,-0.55768 -2.9489,-0.32763 -4.65361,-0.42682 -13.12333,-7.96334 -34.37964,-16.3727 -42.08423,-18.85824 -8.256,-2.66267 -15.86906,-7.01273 -23.6504,-10.7754 -2.75732,-1.33199 -5.52417,-2.64478 -8.29882,-3.93945 -2.576,-1.20133 -5.38121,-2.58892 -7.77987,-4.10092 -1.40266,-0.87467 -3.83163,-1.67834 -5.29296,-0.54101 -1.98933,1.54666 -2.99121,3.04105 -4.2592,5.20638 -0.71733,1.224 -1.59658,2.33794 -2.25391,3.58594 -0.66533,1.26667 -1.29921,2.38898 -2.75977,3.15625 -1.46055,0.76727 -5.42654,0.26169 -7.57812,0.0645 -36.99794,-3.92366 -54.37444,-43.91016 -57.05418,-50.76569 -0.23791,-0.60864 0.45279,-1.32188 0.15863,-1.19727 -0.14,-0.54934 -1.08463,-0.78311 -1.62596,-0.95111 -0.27267,-0.084 -0.55605,-0.093 -0.82421,-0.0351 l 3e-5,-3.6e-4 c -0.26817,0.0578 -0.52043,0.1818 -0.73243,0.36914 -0.10133,0.0893 -9.98187,8.81896 -16.82216,13.51262 -1.59834,1.09674 -3.09327,1.53709 -7.80926,3.48744 -4.72021,1.9521 -25.96794,10.58317 -46.67326,22.56048 -16.79065,9.71199 -32.650924,18.88602 -36.656254,20.38868 -9.020037,3.62643 -16.927421,6.28789 -19.726225,11.21455 -1.077332,0.63733 -1.163162,-0.55677 -6.824108,0.54175 -5.660945,1.09852 -14.559748,3.83357 -19.001077,15.79223 C 39.703501,291.2176 23.455493,391.23481 21.875494,399.9668 h 5.63086 c 4.310736,-30.08161 13.620584,-90.18271 20.080908,-119.85186 3.702662,-4.62933 7.307155,-11.6828 17.908531,-12.272 10.601375,-0.58919 23.897322,10.53096 27.949318,16.09362 0.306666,-1.03467 -0.155257,-2.13012 -0.669922,-3.07812 -2.467998,-4.544 -7.398873,-9.03025 -11.796202,-11.65559 -1.478666,-0.88133 -7.183469,-3.17766 -8.219468,-4.58966 1.992183,-2.0292 13.380633,-8.03125 17.761965,-8.99796 4.258663,-1.59733 19.498596,-10.41248 37.142576,-20.61914 19.56664,-11.31731 40.90039,-20.35641 45.08472,-22.2422 1.41022,-0.63555 4.24396,-1.65253 5.23721,-1.91149 0.0365,0.92923 0.13747,1.80001 0.22423,2.49183 0.45576,3.6341 0.99808,7.17534 3.97142,12.26733 3.57333,7.92133 13.25188,18.9684 26.16724,28.69718 12.91536,9.72878 24.31486,15.92392 30.68446,17.1787 6.3696,1.25478 13.15286,1.28606 19.01101,0.48515 4.32145,-0.59081 9.69743,-2.66353 12.10697,-6.48266 0.96966,-1.53692 0.1067,-3.50534 -0.19447,-4.71919 l -0.63876,1.02821 c -0.4931,1.95033 -2.63775,4.37546 -4.21493,5.07041 -7.11402,3.13461 -12.84304,3.2656 -25.1119,1.29888 -3.67278,-0.14684 -7.45225,-1.48581 -10.6668,-3.88614 -3.80919,-1.24004 -7.13417,-3.72688 -10.06006,-6.42386 -5.7946,-3.901 -10.805,-8.63474 -14.67671,-11.91039 -8.47066,-7.16657 -15.79791,-15.74377 -19.16191,-21.33043 -3.81599,-8.26933 -3.54252,-12.98742 -3.64597,-14.52248 4.95322,-4.23811 12.51946,-10.51499 15.80613,-13.36033 3.23332,9.93199 22.35855,47.30758 58.75586,51.62891 2.37925,0.21015 6.03947,0.66342 8.34179,0.32226 2.30233,-0.34116 3.54194,-0.75591 4.44727,-1.64258 1,-0.97866 1.46218,-2.60412 2.10352,-3.82812 0.33065,-0.632 0.67019,-1.25891 1.01953,-1.87891 0.116,-0.20533 0.95667,-1.3302 0.88867,-1.51953"
       sodipodi:nodetypes="ccccccsscsccccccscsccccccccscsccsccssccczcccczccccccscsczzssccscccscccsccccc" /><path
       id="path172060"
       style="opacity:0.199997;fill:#000000;fill-opacity:1;fill-rule:nonzero;stroke:none;stroke-width:1.33333"
       d="m 197.83789,194.62695 -17.7832,14.77344 c 0,0 -2.95775,14.05634 10.85156,27.12695 7.2865,6.89604 12.40855,11.22325 17.06341,14.34934 4.2161,-5.02725 8.49334,-16.21872 8.55556,-18.12027 0.0909,-1.24064 -0.42787,-2.55815 -0.95881,-3.13532 -7.9231,-8.613 -15.42913,-17.97307 -15.48243,-31.17968 z m 21.0455,37.65933 c -4.14878,7.40533 -6.34352,13.02905 -8.76816,20.03208 2.96279,1.92637 5.06798,2.88765 5.94922,2.68555 2.27513,-0.52176 7.99939,-15.48806 7.09571,-18.43164 -0.5411,-1.76252 -2.45763,-3.03895 -4.27677,-4.28599 z m 7.56583,5.95786 -7.57422,20.28906 c 2.55836,1.72065 5.2299,2.62177 6.83398,1.10547 1.84637,-1.81585 5.63062,-13.26112 5.04493,-16.15429 -0.28712,-1.41831 -0.86564,-2.70502 -4.30469,-5.24024 z m 8.55664,6.93359 c -0.90378,-0.18839 -5.10352,18.49805 -5.10352,18.49805 5.35385,1.56747 6.36279,-0.34397 7.25068,-3.81836 0.60846,-2.38094 3.48905,-11.12065 1.76495,-12.48828 -2.80742,-2.22697 -3.16845,-1.90543 -3.91211,-2.19141 z"
       sodipodi:nodetypes="cccccsccccssccccscccssc" /><path
       d="m 107.70777,316.85799 10.45684,42.06274 c 0,0 1.98616,18.96323 4.56101,41.07927 l 10.59218,-0.26309 c -2.63816,-17.98068 -4.89358,-29.60592 -7.49861,-39.4222 -2.60504,-9.81629 -13.41744,-35.13387 -18.11142,-43.45672 z"
       style="opacity:0.199997;fill:#000000;fill-opacity:1;fill-rule:nonzero;stroke:none;stroke-width:1.33333"
       id="path172192"
       sodipodi:nodetypes="cccczc" /><path
       id="path25436"
       style="fill:#000000;fill-opacity:1;stroke:none;stroke-width:1px;stroke-linecap:butt;stroke-linejoin:miter;stroke-opacity:1"
       d="m 372.52344,363.23242 c -1.13141,0.32211 -2.32241,0.70098 -3.45117,0.95901 -2.17641,0.49752 -13.67283,2.6369 -20.20313,3.49023 -28.25293,3.69187 -56.74647,5.81354 -85.25,6.83594 -48.2713,1.73144 -144.14453,-1.21094 -144.14453,-1.21094 l -0.0371,4.88477 c 0,0 95.64882,3.06953 144.36133,1.32226 28.63179,-1.027 57.28155,-3.1571 85.71875,-6.87305 6.5737,-0.85899 16.28129,-2.97924 19.34477,-3.66169 0.0127,0.79719 -0.0149,1.55041 -0.0127,2.17146 C 368.88871,382.28145 368.62109,400 368.62109,400 h 4.70118 c 0,0 -0.83842,-16.73283 -1.13086,-27.74805 -0.0687,-2.58737 0.33203,-9.01953 0.33203,-9.01953 z"
       sodipodi:nodetypes="ssssccssccccss" /><path
       style="fill:#000000;fill-opacity:0.2;stroke:none;stroke-width:1px;stroke-linecap:butt;stroke-linejoin:miter;stroke-opacity:1"
       d="M 376.32184,380.91954 C 376.94451,390.96133 377.01149,400 377.01149,400 l -6.66666,-0.45977 c -0.60554,-12.39758 -0.38535,-33.63242 -0.38535,-33.63242 l 4.74128,-16.0878 c 0,0 1.21931,24.62023 1.62108,31.09953 z"
       id="path25462"
       sodipodi:nodetypes="sccccs" /><path
       id="path26309"
       style="color:#000000;fill:#000000;-inkscape-stroke:none;fill-opacity:0.30000001"
       d="M 195.59375 201.45703 C 195.59375 201.45703 191.06491 206.39478 189.05859 208.79688 C 187.05228 211.19896 183.25586 216.53516 183.25586 216.53516 L 183.71094 217.00195 C 183.71094 217.00195 188.04265 212.18301 190.04883 209.78125 C 192.055 207.37946 196.16016 201.97266 196.16016 201.97266 L 195.59375 201.45703 z M 199.78906 209.82812 C 199.78906 209.82812 195.34027 215.39676 193.38867 218.08789 C 191.43707 220.77901 187.81836 226.69922 187.81836 226.69922 L 188.35352 227.14453 C 188.35352 227.14453 192.60321 221.72006 194.55469 219.0293 C 196.50616 216.3385 200.45313 210.31836 200.45312 210.31836 L 199.78906 209.82812 z M 205.67188 217.28516 C 205.67188 217.28516 201.39828 222.92006 199.53125 225.63867 C 197.66422 228.35726 194.22852 234.32031 194.22852 234.32031 L 194.77148 234.75 C 194.77148 234.75 198.84987 229.26121 200.7168 226.54297 C 202.5837 223.82469 206.34375 217.75391 206.34375 217.75391 L 205.67188 217.28516 z M 211.21484 225.70898 C 211.21484 225.70898 207.84126 231.39382 206.39258 234.11914 C 204.94389 236.84446 202.37305 242.76367 202.37305 242.76367 L 202.91602 243.11719 C 202.91602 243.11719 206.12364 237.58826 207.57227 234.86328 C 209.02087 232.13827 211.87891 226.08984 211.87891 226.08984 L 211.21484 225.70898 z M 218.9043 232.0625 C 218.9043 232.0625 215.88178 237.95295 214.59961 240.76758 C 213.31742 243.58221 211.10352 249.66406 211.10352 249.66406 L 211.66211 249.99023 C 211.66211 249.99023 214.53036 244.26352 215.8125 241.44922 C 217.09462 238.63492 219.58594 232.4082 219.58594 232.4082 L 218.9043 232.0625 z M 226.13867 239.21094 C 226.13867 239.21094 223.58907 245.16957 222.5293 248.00586 C 221.46951 250.84218 219.72266 256.93359 219.72266 256.93359 L 220.29297 257.2168 C 220.29297 257.2168 222.70196 251.42972 223.76172 248.59375 C 224.82148 245.75777 226.83008 239.50391 226.83008 239.50391 L 226.13867 239.21094 z M 235.00586 244.42383 C 235.00586 244.42383 233.04915 250.40496 232.26367 253.24023 C 231.47819 256.07552 230.29297 262.125 230.29297 262.125 L 230.85547 262.35742 C 230.85547 262.35742 232.69303 256.55371 233.47852 253.71875 C 234.26399 250.88378 235.68359 244.6582 235.68359 244.6582 L 235.00586 244.42383 z M 244.77734 248.44727 C 244.77734 248.44727 242.81868 254.42839 242.0332 257.26367 C 241.24772 260.09896 240.06445 266.14844 240.06445 266.14844 L 240.62695 266.37891 C 240.62695 266.37891 242.46451 260.57714 243.25 257.74219 C 244.03548 254.90722 245.45313 248.67969 245.45312 248.67969 L 244.77734 248.44727 z M 264.20117 250.28711 C 264.20117 250.28711 262.24446 256.26824 261.45898 259.10352 C 260.67351 261.9388 259.48828 267.98828 259.48828 267.98828 L 260.05078 268.21875 C 260.05078 268.21875 261.88834 262.41504 262.67383 259.58008 C 263.45931 256.74511 264.87891 250.51953 264.87891 250.51953 L 264.20117 250.28711 z M 254.08789 250.63086 C 254.08789 250.63086 252.12923 256.61199 251.34375 259.44727 C 250.55827 262.28255 249.375 268.33203 249.375 268.33203 L 249.93555 268.56445 C 249.93555 268.56445 251.77506 262.76074 252.56055 259.92578 C 253.34603 257.09081 254.76367 250.86328 254.76367 250.86328 L 254.08789 250.63086 z " /><path
       style="fill:#000000;fill-opacity:1;stroke:none;stroke-width:1px;stroke-linecap:butt;stroke-linejoin:miter;stroke-opacity:1"
       d="m 88.897346,294.62674 c 0,0 10.189986,12.41322 15.993824,23.90469 5.80383,11.49146 8.578,26.52985 11.31573,40.31915 2.73773,13.7893 4.82758,41.14942 4.82758,41.14942 h 3.33334 c 0,0 -2.2017,-27.81982 -4.82759,-41.95402 -2.62589,-14.1342 -6.61043,-29.96622 -12.09633,-40.50273 -5.4859,-10.53651 -18.546554,-22.91651 -18.546554,-22.91651 z"
       id="path35721"
       sodipodi:nodetypes="czzcczzc" /><path
       id="rect7"
       style="fill:#9d9d9d;fill-rule:evenodd;stroke:#000000;stroke-width:1.86907;stroke-linecap:round;stroke-miterlimit:10"
       d="m 160.14447,368.98077 49.75031,-1.60884 c 1.70924,-0.0552 3.16684,1.09746 3.26814,2.58463 l 0.70855,10.40203 c 0.1013,1.48716 -1.19318,2.72889 -2.90243,2.78417 l -49.75031,1.60885 c -1.70924,0.0552 -3.16684,-1.09747 -3.26814,-2.58462 l -0.70855,-10.40204 c -0.1013,-1.48716 1.19318,-2.7289 2.90243,-2.78418 z" /><g
       id="g24"
       transform="rotate(9.9389293,366.34026,353.66612)"><path
         style="fill:#d30000;fill-opacity:1;stroke:none;stroke-width:2.28583;stroke-linecap:butt;stroke-linejoin:miter;stroke-dasharray:none;stroke-opacity:1"
         d="m 340.46904,271.98026 c 0,0 4.28357,-2.43076 6.84586,-2.28456 2.56228,0.14623 4.82926,2.76897 7.44768,3.4627 2.61843,0.69372 5.11018,-0.11123 7.89345,2.25307 2.78327,2.3643 3.3639,7.38636 3.98575,11.81286 0.62185,4.42652 1.28001,10.52155 1.28001,10.52155 l -15.84239,-3.79853 c 0,0 -1.38033,-8.22975 -2.32979,-11.67637 -0.94945,-3.44661 -2.88264,-7.98285 -2.88264,-7.98285 z"
         id="path9"
         sodipodi:nodetypes="czzzzcczcc" /><path
         style="color:#000000;fill:#000000;stroke-width:0.914331;-inkscape-stroke:none"
         d="m 347.37709,268.54596 c -1.66836,-0.0952 -3.42898,0.55799 -4.88485,1.17482 -1.45588,0.61683 -2.57747,1.2549 -2.57747,1.2549 l -2.18319,1.23868 2.35892,0.85139 5.89743,2.12672 c 0.19812,0.47076 1.81045,4.26807 2.66968,7.38714 0.43454,1.57744 0.85803,4.3963 1.2385,6.83783 0.19023,1.22077 0.37305,2.35137 0.5584,3.24243 0.0926,0.44554 0.1824,0.82851 0.29276,1.16481 0.0552,0.16815 0.11325,0.32349 0.20141,0.49308 0.0882,0.1696 0.17726,0.37913 0.52535,0.60281 0.24734,0.15892 0.31914,0.16402 0.48365,0.22758 0.16453,0.0636 0.36286,0.13434 0.6002,0.21551 0.47466,0.16234 1.0996,0.36382 1.83171,0.58955 1.46424,0.45149 3.35308,0.9987 5.25249,1.50683 1.8994,0.50812 3.80392,0.97629 5.32654,1.26566 0.76129,0.14471 1.42271,0.24568 1.98029,0.28234 0.27879,0.0183 0.52919,0.0229 0.79383,-0.009 0.26465,-0.0315 0.58811,-0.0295 0.99196,-0.44887 0.71234,-0.74044 0.60904,-1.47293 0.57365,-2.25752 -0.035,-0.7846 -0.17392,-1.68689 -0.3528,-2.68943 -0.35785,-2.00509 -0.88937,-4.39439 -1.19074,-6.53971 -0.61885,-4.40516 -1.05083,-9.70511 -4.38217,-12.53499 -1.56842,-1.33232 -3.17024,-1.81412 -4.58339,-2.01116 -1.41316,-0.19706 -2.6324,-0.17679 -3.75256,-0.47356 -1.04829,-0.27773 -2.19631,-1.02693 -3.43491,-1.80281 -1.2386,-0.77587 -2.59264,-1.60175 -4.23469,-1.69546 z m -0.12349,2.30004 c 0.92023,0.0526 1.97941,0.6095 3.16947,1.35498 1.19007,0.74548 2.48385,1.65624 4.05398,2.07223 1.49827,0.39695 2.83384,0.36105 4.01699,0.52602 1.18313,0.16498 2.21936,0.46215 3.43422,1.49413 2.23518,1.89872 2.96526,6.64474 3.5901,11.09259 0.32048,2.2812 0.86213,4.7001 1.20548,6.62394 0.17168,0.96191 0.29178,1.80414 0.31798,2.38515 0.007,0.14655 -0.0165,0.20097 -0.031,0.30247 -0.39314,-0.0305 -0.95027,-0.10642 -1.62832,-0.23529 -1.42349,-0.27053 -3.29742,-0.72911 -5.1658,-1.22895 -1.86838,-0.49981 -3.73656,-1.04162 -5.17071,-1.48384 -0.71708,-0.2211 -1.32751,-0.41751 -1.76761,-0.56803 -0.16706,-0.0571 -0.28107,-0.0993 -0.39266,-0.14066 -0.0598,-0.19102 -0.13442,-0.47883 -0.21229,-0.85314 -0.16649,-0.80042 -0.3464,-1.91363 -0.53545,-3.12684 -0.37811,-2.42641 -0.78135,-5.2297 -1.29626,-7.09887 -0.98753,-3.58483 -2.93338,-8.12903 -2.93338,-8.12903 l -0.19673,-0.46201 -4.27698,-1.54193 c 1.31503,-0.55005 2.93987,-1.03309 3.8188,-0.98294 z"
         id="path8" /><path
         style="fill:#000000;fill-opacity:0.2;stroke:none;stroke-width:0.914331px;stroke-linecap:butt;stroke-linejoin:miter;stroke-opacity:1"
         d="m 346.77287,274.36939 -6.04236,-2.36757 2.9555,-1.89302 2.22745,-0.43955 c 0,0 3.49092,2.9476 4.49915,5.26726 1.00821,2.31967 2.0462,5.89234 2.62508,9.02994 0.57886,3.13761 1.13345,10.15335 1.13345,10.15335 l -2.41261,-0.55495 c 0,0 -1.70106,-8.50865 -1.69802,-9.66574 0.003,-1.15709 -3.28763,-9.52968 -3.28763,-9.52968 z"
         id="path10"
         sodipodi:nodetypes="cccczzccscc" /></g><g
       id="g23"
       transform="translate(0.16672302,-6.0637427)"><path
         style="fill:#d30000;fill-opacity:1;stroke:none;stroke-width:3;stroke-linecap:butt;stroke-linejoin:miter;stroke-dasharray:none;stroke-opacity:1"
         d="m 50.74602,277.33696 c 0,0 -1.129881,-4.75939 0.741016,-7.21797 1.870941,-2.45858 7.460036,-2.40158 10.509068,-4.10166 3.049033,-1.70009 3.890337,-5.3561 7.722034,-5.81175 3.831696,-0.45565 8.296843,2.89576 12.377946,5.35709 4.081102,2.46132 8.424929,6.41046 11.776364,9.46367 3.351435,3.05321 8.898382,7.26887 8.419292,8.68261 -0.47909,1.41374 -13.130562,10.6475 -14.874034,10.69448 -1.743472,0.047 -9.103526,-7.12499 -14.009144,-10.51398 C 68.502944,280.50046 57.99012,274.1092 57.99012,274.1092 Z"
         id="path5"
         sodipodi:nodetypes="czzzzzzzzcc" /><path
         style="color:#000000;fill:#000000;-inkscape-stroke:none"
         d="m 69.540376,258.71587 c -2.370194,0.28185 -3.945526,1.65638 -5.090305,2.92207 -1.144781,1.26568 -2.008713,2.41443 -3.185031,3.07033 -1.177797,0.65671 -3.25974,1.09966 -5.331768,1.62025 -2.072032,0.52056 -4.265163,1.07641 -5.639911,2.88299 -1.306035,1.71628 -1.431024,3.82744 -1.377137,5.48722 0.05389,1.65978 0.37114,2.98389 0.37114,2.98389 l 0.417412,1.75978 1.651599,-0.73493 4.962865,-2.39591 c 2.655138,0.62018 11.635458,5.63343 16.237537,8.81273 2.334315,1.61263 6.081245,3.89927 8.769911,6.12452 1.344334,1.11262 2.59623,2.12411 3.672062,2.88829 0.537917,0.38209 1.029449,0.70306 1.505513,0.95293 0.476063,0.24986 0.891467,0.49161 1.63725,0.47151 0.854816,-0.023 1.178798,-0.28538 1.757574,-0.57754 0.578679,-0.29259 1.243758,-0.67886 1.986288,-1.14044 1.485069,-0.92316 2.580916,-1.79876 4.323283,-3.06023 1.74238,-1.26146 3.441175,-2.56296 4.760832,-3.66057 0.65982,-0.54881 1.22362,-1.04379 1.66799,-1.47993 0.44437,-0.43614 0.77188,-0.56022 1.07414,-1.4522 0.23745,-0.70068 0.0612,-1.29431 -0.1329,-1.73753 -0.19416,-0.44321 -0.45051,-0.81501 -0.75036,-1.19602 -0.5997,-0.76205 -1.3926,-1.54616 -2.29244,-2.37719 -1.799653,-1.66204 -4.027716,-3.48191 -5.652942,-4.96251 -3.35242,-3.05411 -7.727068,-7.05462 -12.012705,-9.6393 -1.9899,-1.2001 -4.145917,-2.67085 -6.367325,-3.8194 -2.221407,-1.14855 -4.550664,-2.02963 -6.962567,-1.74282 z m 0.354125,2.97993 c 1.41979,-0.16883 3.240612,0.39811 5.229976,1.42669 1.989361,1.02858 4.105075,2.46459 6.196281,3.7258 3.876556,2.33797 8.190135,6.2341 11.540585,9.28641 1.726206,1.5726 3.947932,3.38709 5.639819,4.94961 0.845946,0.78125 1.559638,1.50721 1.969978,2.02863 0.10787,0.13701 0.12776,0.18913 0.18902,0.28611 -0.0713,0.10436 0.005,-0.0245 -0.12419,0.10202 -0.34602,0.33963 -0.863585,0.79909 -1.484452,1.31549 -1.241726,1.03279 -2.90352,2.30657 -4.601834,3.53614 -1.698307,1.22956 -2.754422,2.07609 -4.146829,2.94165 -0.696202,0.43279 -1.308853,0.78648 -1.757635,1.01338 -0.448783,0.22691 -0.902301,0.26564 -0.483359,0.25432 0.309927,-0.008 0.116196,0.019 -0.163115,-0.12763 -0.279312,-0.14659 -0.687871,-0.40539 -1.161785,-0.74201 -0.94783,-0.67327 -2.170818,-1.65723 -3.497632,-2.75535 -2.653626,-2.19624 -6.40691,-4.50514 -8.97821,-6.28149 -5.004545,-3.45733 -16.919272,-9.76536 -18.295775,-9.24777 -1.376502,0.51759 -3.927835,2.56493 -3.927835,2.56493 -0.02579,-0.26596 -0.114082,-1.06698 -0.124005,-1.3712 -0.04333,-1.33456 0.202062,-2.83146 0.766922,-3.57375 0.496186,-0.65203 2.033192,-1.29938 3.985702,-1.78995 1.952503,-0.49061 4.188223,-0.86763 6.059457,-1.91099 1.872712,-1.04419 2.953894,-2.57401 3.949946,-3.67526 0.996053,-1.10126 1.757468,-1.78199 3.218967,-1.95579 z"
         id="path4"
         sodipodi:nodetypes="ssssssccccssssscssssssssssssssssssscssssscsssszccssssss" /></g><path
       style="color:#000000;fill:#000000;-inkscape-stroke:none"
       d="m 84.001953,255.125 -1.587891,2.54492 c 0,0 10.289658,6.46441 14.316407,10.01172 4.212141,3.71063 6.662221,6.58586 10.935551,12.05273 4.24235,5.42725 9.25461,12.6742 13.91015,20.78711 4.65146,8.10581 9.11323,17.52261 13.62891,28.06446 4.46816,10.43092 7.11542,21.08786 9.4414,29.94336 2.28411,8.69601 3.34766,18.01172 3.34766,18.01172 l 2.98047,-0.33985 c 0,0 -1.06641,-9.45102 -3.42578,-18.43359 -2.31747,-8.82308 -4.99579,-19.64759 -9.58594,-30.36328 -4.54263,-10.60478 -9.04686,-20.11983 -13.78516,-28.37696 -4.73421,-8.25 -9.81454,-15.59626 -14.14843,-21.14062 -4.30293,-5.50474 -6.95731,-8.61695 -11.316409,-12.45703 C 94.168396,261.42628 84.001953,255.125 84.001953,255.125 Z m -33.226562,16.54883 -0.283204,2.98633 c 0,0 5.096236,0.49799 10.207032,2.63281 5.15962,2.15522 14.043907,7.23244 20.126953,12.04687 6.092377,4.82182 11.933505,11.24715 16.363281,16.84766 4.357037,5.50855 7.486337,11.7211 11.732427,21.59375 4.08267,9.49269 7.2418,29.23739 9.43164,38.13281 0.99355,4.03595 2.17956,8.78384 2.18382,8.78238 l 2.68317,-0.92092 c 0,0 -0.75754,-3.55335 -1.94922,-8.55664 -2.04597,-8.59015 -5.15351,-28.29901 -9.59375,-38.62305 -4.2768,-9.94407 -7.53013,-16.44795 -12.134761,-22.26953 C 95.011075,298.59655 89.062778,292.034 82.6875,286.98828 76.302891,281.93518 67.417,276.84849 61.855469,274.52539 56.245113,272.1819 50.775391,271.67383 50.775391,271.67383 Z"
       id="path6"
       sodipodi:nodetypes="ccsssssccssssscccsssssccsscssc" /><path
       style="color:#000000;fill:#000000;-inkscape-stroke:none"
       d="m 357.80934,270.6808 -3.07497,-0.88393 c 0,0 2.24983,13.79469 2.71875,24.45313 0.46956,10.67276 -0.27108,27.76201 -0.9121,39.99219 -0.63744,12.16166 -2.73243,33.22656 -2.73243,33.22656 l 2.98633,0.29687 c 0,0 2.0963,-21.04226 2.74219,-33.36523 0.6423,-12.25446 1.39382,-29.33221 0.91211,-40.28125 -0.48234,-10.96336 -2.63988,-23.43834 -2.63988,-23.43834 z m 21.64964,18.286 -1.79139,0.28682 c 0,0 -0.15696,3.53042 -0.0345,9.63654 0.12332,6.14876 -0.35458,16.27515 -1.58623,27.3989 -1.21618,10.98386 -6.93554,39.08985 -6.93554,39.08985 l 2.93945,0.59961 c 0,0 5.70971,-27.918 6.97656,-39.35938 1.25131,-11.30148 1.38923,-21.75737 1.26368,-28.01758 -0.12642,-6.30284 -0.83204,-9.63476 -0.83204,-9.63476 z"
       id="path11"
       sodipodi:nodetypes="ccssccsscccssccssc" /><path
       style="color:#000000;fill:#000000;fill-opacity:0.2;-inkscape-stroke:none"
       d="m 357.08203,370.22852 c 0,0 -0.20396,9.96888 -0.45508,14.92382 C 356.38304,389.96522 355.60156,400 355.60156,400 h 0.99805 c 0,0 0.77944,-9.94581 1.02539,-14.79886 0.25315,-4.99511 0.45703,-14.95117 0.45703,-14.95117 z m -2.96289,1.47656 c 0,0 -0.42315,12.70492 -0.79883,19.02929 C 353.14504,393.68514 352.63672,400 352.63672,400 h 0.99805 c 0,0 0.50625,-6.22148 0.68359,-9.20707 0.37774,-6.35919 0.79883,-19.05469 0.79883,-19.05469 z"
       id="path13"
       sodipodi:nodetypes="csccscccsccscc" /><path
       style="color:#000000;fill:#000000;-inkscape-stroke:none;fill-opacity:0.2"
       d="m 152.71094,377.99805 -0.97461,0.21875 c 0,0 2.14524,9.64831 2.73047,13.19922 0.58832,3.56966 1.02148,8.58398 1.02148,8.58398 h 0.99609 c 0,0 -0.43279,-5.11691 -1.03125,-8.74806 -0.60154,-3.64991 -2.74218,-13.2539 -2.74218,-13.2539 z m -3.31055,0.21289 -0.96875,0.24804 c 0,0 2.42597,9.45102 3.18555,13.98438 0.76711,4.57836 1.02148,7.55664 1.02148,7.55664 h 0.99414 c 0,0 -0.25759,-3.11688 -1.02929,-7.72261 -0.77925,-4.65073 -3.20313,-14.0664 -3.20313,-14.0664 z"
       id="path15"
       sodipodi:nodetypes="ccsccsccccsccscc" /><g
       id="g16"
       transform="matrix(0.39512223,0.00194144,-0.00230627,0.421131,222.65211,297.49961)"><path
         id="path39671"
         style="fill:#d9a14b;fill-opacity:1;stroke:#000000;stroke-width:2.45143182;stroke-miterlimit:9;stroke-dasharray:none;stroke-opacity:1"
         d="m 291.27512,127.0312 a 44.358515,44.358515 0 0 0 -44.35863,44.35863 44.358515,44.358515 0 0 0 44.35863,44.35865 44.358515,44.358515 0 0 0 44.35863,-44.35865 44.358515,44.358515 0 0 0 -44.35863,-44.35863 z m 0,7.74952 a 36.610185,36.610185 0 0 1 36.60911,36.60911 36.610185,36.610185 0 0 1 -36.60911,36.61152 36.610185,36.610185 0 0 1 -36.61152,-36.61152 36.610185,36.610185 0 0 1 36.61152,-36.60911 z" /><path
         style="fill:#d9a14b;fill-opacity:1;stroke:#000000;stroke-width:2.94171818;stroke-linecap:butt;stroke-linejoin:miter;stroke-dasharray:none;stroke-opacity:1"
         d="m 256.38771,227.25328 c 3.68401,-38.91648 14.60206,-77.63203 35.1655,-108.91258 17.41529,30.67772 27.79751,62.76204 34.16078,98.0615 0,0 -12.53724,-28.43599 -21.5012,-28.53429 -15.99705,-0.50019 -47.82508,39.38537 -47.82508,39.38537 z"
         id="path39673"
         sodipodi:nodetypes="ccccc" /><path
         style="fill:#000000;fill-opacity:1;stroke:none;stroke-width:1.22197px;stroke-linecap:butt;stroke-linejoin:miter;stroke-opacity:1"
         d="m 289.14187,164.35727 3.61701,-30.94564 4.01892,30.74468 8.43973,3.21515 -7.63594,3.21512 1.00472,8.03783 -5.62647,-7.63593 -5.42554,8.64065 1.00473,-9.24349 -7.63593,-3.61703 z"
         id="path39675" /><path
         d="m -123.83311,116.76623 c 0,0 40.910014,52.81153 153.817,40.69684 0,0 -98.901168,-7.82652 -153.817,-40.69684 z m 250.88349,26.67323 c 0,0 -118.5677549,6.0334 -212.240314,-42.00106 -93.672536,-48.031302 -97.347376,-91.395968 -97.347376,-91.395968 0,0 130.663272,110.409808 309.58769,133.397028 z"
         style="opacity:0.199997;fill:#000000;fill-opacity:1;fill-rule:nonzero;stroke:none;stroke-width:3.26857"
         id="path1"
         sodipodi:nodetypes="ccccccc" /></g><path
       id="path172176"
       style="display:inline;opacity:0.199997;fill:#000000;fill-opacity:1;fill-rule:nonzero;stroke:none;stroke-width:1.33333"
       d="m 181.2168,206.23438 -5.59974,3.20954 -42.12097,18.68303 c 0,0 -9.68983,6.52078 -14.58714,9.38998 -9.31511,5.45745 -18.47245,10.60583 -28.041762,15.60416 -2.542008,1.32776 -7.814454,3.59961 -7.814454,3.59961 0,0 -10.022357,-3.08956 -12.353045,-2.96836 -3.175164,0.16511 -5.238234,4.55665 -7.473857,5.95336 -4.019074,2.51094 -9.070452,2.00284 -11.301416,4.26436 -1.862048,1.88755 -0.425621,7.94289 -0.425621,7.94289 -7.458215,8.90106 -8.266982,18.72966 -11.817154,36.36635 C 34.491583,338.38212 28.721961,369.89696 23.533203,400 l 23.455078,-0.0332 c -0.309785,-7.96139 -0.03999,-15.2824 0.69336,-22.02539 0.04557,-0.004 0.08875,-0.005 0.134765,-0.01 3.85021,-0.40551 4.570421,-4.516 8.734375,-9.65625 4.163955,-5.14024 10.915826,-13.70014 15.632813,-21.60937 4.716986,-7.90924 14.551968,-24.12994 12.414062,-25.7461 -2.137905,-1.61616 -7.698953,4.05035 -15.171875,9.19531 -1.949984,1.34253 -4.573556,2.96381 -7.445312,4.75977 15.680793,-24.1033 24.439926,-34.98812 49.396481,-44.24219 6.44679,-2.34431 12.77869,-3.93625 18.38672,-6.39453 2.864,-1.25543 26.72875,-8.15284 30.01172,-9.04687 34.89894,-9.50382 51.91602,-9.61719 51.91602,-9.61719 0,0 -44.01527,-30.20718 -30.14063,-58.89649 z M 86.214844,346.78711 c -0.688093,0.0106 -1.412972,0.29836 -1.970703,0.96094 -1.487286,1.76688 -11.994959,18.6013 -17.578125,27.42383 C 61.082849,383.9944 51.494141,400 51.494141,400 h 25.748047 c -10e-7,0 -0.02848,1.12033 1.83789,-3.67773 1.866371,-4.79807 5.789329,-17.50622 7.357422,-25.74805 1.568093,-8.24183 1.977556,-20.27693 1.972656,-21.98438 -0.0031,-1.06716 -1.048492,-1.82033 -2.195312,-1.80273 z"
       sodipodi:nodetypes="cccsscsssccccccssssccsscccsssccssss" /></g></svg>
