<?xml version="1.0" encoding="UTF-8" standalone="no"?>
<!-- Created with Inkscape (http://www.inkscape.org/) -->

<svg
   width="400"
   height="400"
   viewBox="0 0 400 400"
   version="1.1"
   id="svg11557"
   xml:space="preserve"
   inkscape:version="1.3 (0e150ed, 2023-07-21)"
   sodipodi:docname="TwokAverageMale.svg"
   xmlns:inkscape="http://www.inkscape.org/namespaces/inkscape"
   xmlns:sodipodi="http://sodipodi.sourceforge.net/DTD/sodipodi-0.dtd"
   xmlns="http://www.w3.org/2000/svg"
   xmlns:svg="http://www.w3.org/2000/svg"><sodipodi:namedview
     id="namedview11559"
     pagecolor="#ffffff"
     bordercolor="#666666"
     borderopacity="1.0"
     inkscape:showpageshadow="2"
     inkscape:pageopacity="0.0"
     inkscape:pagecheckerboard="0"
     inkscape:deskcolor="#d1d1d1"
     inkscape:document-units="px"
     showgrid="false"
     inkscape:zoom="2.175"
     inkscape:cx="193.33333"
     inkscape:cy="200.22989"
     inkscape:window-width="1952"
     inkscape:window-height="1090"
     inkscape:window-x="2020"
     inkscape:window-y="117"
     inkscape:window-maximized="0"
     inkscape:current-layer="layer1" /><defs
     id="defs11554"><inkscape:path-effect
       effect="perspective-envelope"
       up_left_point="277.3381,311.4347"
       up_right_point="392.78333,306.33"
       down_left_point="277.3381,383.64976"
       down_right_point="392.78333,383.64976"
       id="path-effect41439"
       is_visible="true"
       lpeversion="1"
       deform_type="perspective"
       horizontal_mirror="false"
       vertical_mirror="false"
       overflow_perspective="false" /></defs><g
     inkscape:groupmode="layer"
     id="layer1"
     inkscape:label="Neck"><path
       d="m 213.63253,151.29441 -13.54934,47.14666 c 0,0 12.42667,24.85333 21.464,31.49067 9.03734,6.636 24.148,15.816 35.02134,17.228 l 3.8804,0.52463 2.6156,0.32203 5.224,-2.25866 3.81333,-10.87467 18.428,-23.08667 z"
       style="fill:#cd976d;fill-opacity:1;fill-rule:nonzero;stroke:none;stroke-width:1.33333"
       id="path171974"
       sodipodi:nodetypes="cccccccccc" /><path
       d="m 200.08306,198.44081 c 0,0 12.86667,21.57066 17.836,27.06399 4.96933,5.49334 32.696,1.83067 40.54267,4.18534 6.33866,1.90133 13.09866,2.66533 15.47066,2.89066 l 16.59734,-20.79333 -76.89734,-60.49333 z"
       style="opacity:0.199997;fill:#000000;fill-opacity:1;fill-rule:nonzero;stroke:none;stroke-width:1.33333"
       id="path171984" /><path
       d="m 211.64493,149.52841 c -1.01067,4.99733 -6.2,23.82533 -7.36934,28.788 -0.956,4.064 -1.95733,8.11866 -3.072,12.14266 -0.516,1.85867 -1.07466,3.70267 -1.63333,5.54934 -0.18666,0.616 -0.95466,1.86266 -0.88133,2.47466 0.02,0.16934 0.80667,2.38267 1.11067,1.93733 3.68799,-5.38666 5.03733,-14.18666 7.12666,-20.38133 1.49067,-4.41866 7.06133,-22.68666 8.552,-27.104 0,0 -3.83333,-3.40666 -3.83333,-3.40666"
       style="fill:#000000;fill-opacity:1;fill-rule:nonzero;stroke:none;stroke-width:1.33333"
       id="path171994" /><path
       d="m 293.27599,213.31907 c -2.83733,2.044 -16.28266,19.912 -18.592,22.53067 -1.87866,2.13066 -4.41733,10.85066 -7.52933,10.948 -2.104,0.0653 -1.74133,-3.72534 -1.19333,-5.332 0.26266,-0.76934 21.288,-30.90934 21.288,-30.90934 0,0 6.02666,2.76267 6.02666,2.76267"
       style="fill:#000000;fill-opacity:1;fill-rule:nonzero;stroke:none;stroke-width:1.33333"
       id="path171998" /></g><g
     inkscape:groupmode="layer"
     id="layer5"
     inkscape:label="Uniform"><path
       id="path171958"
       style="fill:#700000;fill-opacity:1;fill-rule:nonzero;stroke:none;stroke-width:1.33333"
       d="m 181.13583,206.19342 -0.44833,0.31439 -6.27734,0.46485 -40.91407,21.15429 -38.587887,22.54883 -11.855469,6.04297 -9.730693,5.01297 -4.171628,3.95066 -11.118579,2.44635 C 49.577549,274.23242 45.03131,281.3706 41.979324,296.78464 36.789734,326.88771 29.181408,369.89668 23.993266,400 l 361.696184,-0.0332 -1.00976,-30.86133 -0.86914,-26.57227 c -1.52533,-11.00266 -3.12611,-48.21866 -5.45544,-55.79065 -1.69696,-5.51514 -4.68362,-13.12031 -8.14841,-14.73888 -2.23035,-1.04191 -5.12686,0.38157 -7.51529,1.91821 -8.15467,-4.88133 -35.08884,-19.29515 -45.54883,-21.61915 -10.46133,-2.32533 -26.81507,-12.73545 -37.03906,-17.07812 l -7.53321,-1.63867 4.76953,8.01172 -0.29882,2.28711 c 0,0 4.83976,12.76166 6.25976,16.73632 1.42,3.976 -3.40625,11.07227 -3.40625,11.07227 l -14.29297,5.23633 -26.8125,-4.84766 -5.50195,-3.14453 c 0,0 -13.86836,-9.16877 -36.01367,-28.19141 -22.14665,-19.02398 -15.72461,-34.06836 -15.72461,-34.06836 z"
       sodipodi:nodetypes="cccccccccccccccscccccccccccccc" /><path
       d="m 196.9892,241.882 c 22.14533,19.02267 37.47733,27.54 37.47733,27.54 l 12.78848,7.04831 19.31434,0.0925 13.15612,-5.39951 c 0,0 4.71172,-5.43199 3.29172,-9.40666 -1.42,-3.97467 -6.26,-16.73733 -6.26,-16.73733 l 0.29734,-2.28534 -4.768,-8.012 -0.18534,0.152 -3.812,10.87334 -5.22533,2.25866 -2.46445,-0.20084 -4.03155,-0.64582 c -10.87333,-1.412 -25.98267,-10.59067 -35.02,-17.228 -9.03867,-6.63734 -21.46533,-31.49067 -21.46533,-31.49067 l 0.90133,-3.14133 -3.14666,-0.67467 -12.55334,9.764 -4.10666,2.73733 0.0893,0.68667 c 0,0 -6.42267,15.04667 15.72267,34.06933"
       style="fill:#d30000;fill-opacity:1;fill-rule:nonzero;stroke:none;stroke-width:1.33333"
       id="path171966"
       sodipodi:nodetypes="cccccscccccccccccccccc" /><path
       style="fill:#000000;fill-opacity:0.2;stroke:none;stroke-width:1px;stroke-linecap:butt;stroke-linejoin:miter;stroke-opacity:1"
       d="m 270.22988,272.18391 c 2.36211,-1.90985 5.74089,-5.46306 7.0115,-9.1954 1.27061,-3.73235 -0.33707,-8.66557 -0.91954,-10.8046 -0.58248,-2.13903 -1.83908,-2.87356 -1.83908,-2.87356 l 2.41379,-2.4138 3.56322,6.66667 2.18391,7.93103 -0.8046,6.09196 -6.2069,5.28735 -10.45977,3.10345 h -3.21839 c 3.23272,-1.35355 6.61878,-2.48667 8.27586,-3.7931 z"
       id="path38316"
       sodipodi:nodetypes="czzccccccccc" /><path
       d="m 196.9892,241.882 c 22.14533,19.02267 37.47733,27.54 37.47733,27.54 l 4.2126,2.93347 25.99986,4.67719 14.12694,-5.00726 c 0,0 5.63126,-6.29406 4.21126,-10.26873 -1.42,-3.97467 -6.26,-16.73733 -6.26,-16.73733 l 0.29734,-2.28534 -4.768,-8.012 -0.18534,0.152 -3.812,10.87334 -5.22533,2.25866 -2.64423,-0.081 -3.85177,-0.76567 c -10.87333,-1.412 -25.98267,-10.59067 -35.02,-17.228 -9.03867,-6.63734 -21.46533,-31.49067 -21.46533,-31.49067 l 0.90133,-3.14133 -3.14666,-0.67467 -12.55334,9.764 -4.10666,2.73733 0.0893,0.68667 c 0,0 -6.42267,15.04667 15.72267,34.06933 z"
       style="fill:none;stroke:#000000;stroke-width:1.08533;stroke-linecap:butt;stroke-linejoin:miter;stroke-miterlimit:10;stroke-dasharray:none;stroke-opacity:1"
       id="path171970"
       sodipodi:nodetypes="sccccscccccccccccccccss" /><path
       d="m 276.07346,242.23054 c 0.33067,0.75333 0.6,1.59333 0.68267,2.78933 0.224,3.21333 -1.1,3.24933 -2.696,5.944 -2.38667,4.032 -3.48134,9.40133 -4.94667,13.80933 -0.872,-2.21866 -1.20133,-3.37733 -1.008,-5.648 0.196,-2.31333 0.44933,-4.564 1.104,-6.844 0.46533,-1.62266 3.62267,-4.36666 4.41467,-5.74133 1.59866,-2.768 0.99466,-5.07867 0.372,-8.04267 0.23866,0.32 0.43733,0.32667 0.74,0.59334 0.36,1.30533 0.90133,2.14666 1.33733,3.14"
       style="fill:#000000;fill-opacity:1;fill-rule:nonzero;stroke:none;stroke-width:1.33333"
       id="path172002" /><path
       style="fill:#000000;fill-opacity:1;stroke:none;stroke-width:1px;stroke-linecap:butt;stroke-linejoin:miter;stroke-opacity:1"
       d="m 260.22989,272.69946 c 1.19481,1.19685 3.76255,11.09818 4.37937,13.73732 -2.30915,1.98893 -46.39532,14.69036 -65.5288,21.6092 -19.13348,6.91884 -46.80585,16.33251 -48.27586,19.31034 -1.47001,2.97783 6.51279,31.12354 9.65517,43.21839 C 163.60215,382.66956 169.1954,400 169.1954,400 h -16.09195 c 0,0 -7.58942,-29.11777 -11.03448,-42.75862 -7.76464,-25.14327 -10.35141,-37.85236 -8.81931,-40.86376 1.5321,-3.0114 37.70569,-15.0718 56.17563,-21.66498 18.46994,-6.59318 56.09195,-18.85057 56.09195,-18.85057 0,0 12.54252,-3.8718 14.71265,-3.16261 z"
       id="path23919"
       sodipodi:nodetypes="cczzzccczzcc" /><path
       id="path172014"
       style="fill:#000000;fill-opacity:1;fill-rule:nonzero;stroke:none;stroke-width:1.33333"
       d="m 198.07227,192.24805 c -0.26817,0.0578 -0.52043,0.1818 -0.73243,0.36914 -0.10133,0.0893 -9.60396,8.6231 -15.89062,14.03586 -0.0368,-1.29943 -3.41065,-1.47422 -8.44531,-0.13157 -4.85066,1.29467 -26.26343,13.67894 -46.96875,25.65625 -16.79065,9.71199 -32.650924,18.88602 -36.656254,20.38868 -9.020037,3.62643 -16.927421,6.28789 -19.726225,11.21455 -1.077332,0.63733 -1.163162,-0.55677 -6.824108,0.54175 -5.660945,1.09852 -14.559748,3.83357 -19.001077,15.79223 C 39.703501,291.2176 23.455493,391.23481 21.875494,399.9668 h 5.63086 c 4.310736,-30.08161 13.620584,-90.18271 20.080908,-119.85186 3.702662,-4.62933 7.307155,-11.6828 17.908531,-12.272 10.601375,-0.58919 23.897322,10.53096 27.949318,16.09362 0.306666,-1.03467 -0.155257,-2.13012 -0.669922,-3.07812 -2.467998,-4.544 -7.398873,-9.03025 -11.796202,-11.65559 -1.478666,-0.88133 -7.183469,-3.17766 -8.219468,-4.58966 1.992183,-2.0292 13.380633,-8.03125 17.761965,-8.99796 4.258663,-1.59733 19.498596,-10.41248 37.142576,-20.61914 19.56664,-11.31731 41.74503,-24.14545 46.17969,-25.32812 2.17334,-0.58 3.62442,-0.84175 4.59375,-0.95508 -0.42533,0.848 -0.73831,1.91263 -0.79297,3.2793 -0.14667,3.67866 1.56377,8.51738 4.53711,13.60937 3.57333,7.92133 12.44559,20.09719 25.44159,29.10032 12.99599,9.00313 24.8789,16.8718 30.84537,19.45694 5.96646,2.58514 16.81274,6.26369 25.82441,4.29432 9.01167,-1.96936 11.83599,-3.38926 15.89648,-6.16015 4.06049,-2.7709 4.90044,-9.14681 3.50977,-14.10547 -0.72267,-2.57334 -2.18155,-4.82871 -3.32422,-7.2207 -0.50133,-1.04934 -2.34548,-4.012 -2.02148,-5.22266 0.12534,-0.46667 0.51961,-0.88664 0.73828,-1.30664 1.3,-2.49333 -2.34786,-5.72697 -3.11719,-7.9043 -0.044,-0.124 -0.1329,-1.20284 0.14844,-1.21484 3.54132,-0.148 7.58622,2.95715 11.07422,4.50781 10.63465,4.73067 19.85776,12.18913 31.09375,15.81445 7.48063,2.4126 30.27297,12.23606 42.96093,20.00391 1.64,-1.10343 3.16902,-1.56497 4.84737,-2.25507 1.34052,-0.29279 1.69939,-0.50977 2.73242,-0.25391 1.31166,0.32487 2.14678,0.5163 3.50781,2.17774 0.49802,0.60794 1.17728,2.17448 1.71289,3.8457 1.18221,3.98594 2.49977,7.91006 2.99834,9.8996 0.95001,3.80153 2.60241,9.78674 3.37695,16.78711 0.74701,6.75133 0.96883,27.73662 1.10652,29.40729 0.13768,1.67067 0.12166,4.72541 0.45013,7.28023 0.74285,19.74732 1.03711,39.5079 0.78124,57.4336 h 4.79102 l -2.30469,-57.4336 c -0.19643,-3.48973 -0.55643,-6.01595 -0.81439,-8.77858 -0.18525,-1.91538 -0.2294,-21.02642 -1.02741,-28.23881 -0.80531,-7.27825 -2.51896,-13.46304 -3.44922,-17.18554 -1.18505,-4.25883 -1.77449,-6.07019 -3.05303,-10.08711 -0.57206,-1.78495 -1.18331,-3.53228 -2.24805,-4.83203 -1.76448,-2.15394 -3.6699,-2.83145 -5.10742,-3.1875 -1.43227,-0.35566 -2.78011,-0.0692 -4.09375,0.23438 -1.6048,0.47261 -2.4928,1.04067 -4.08348,1.62563 -13.12333,-7.96334 -34.37964,-17.05685 -42.08423,-19.54239 -8.256,-2.66267 -15.86906,-7.01273 -23.6504,-10.7754 -2.75732,-1.33199 -5.52417,-2.64478 -8.29882,-3.93945 -2.576,-1.20133 -4.79666,-3.113 -7.19532,-4.625 -1.40266,-0.87467 -3.83163,-1.67834 -5.29296,-0.54101 -1.98933,1.54666 -3.57576,3.56513 -4.84375,5.73046 -0.71733,1.224 -1.59658,2.33794 -2.25391,3.58594 -0.66533,1.26667 -1.29921,2.38898 -2.75977,3.15625 -1.46055,0.76727 -5.42654,0.26169 -7.57812,0.0645 -36.99794,-3.92366 -54.37444,-43.91016 -57.05418,-50.76569 -0.23791,-0.60864 0.45279,-1.32188 0.15863,-1.19727 -0.14,-0.54934 -1.08463,-0.78311 -1.62596,-0.95111 -0.27267,-0.084 -0.55605,-0.093 -0.82421,-0.0351 z m -0.48633,4.47656 c 3.23332,9.93199 22.35855,47.30758 58.75586,51.62891 2.37925,0.21015 6.03947,0.66342 8.34179,0.32226 2.30233,-0.34116 3.54194,-0.75591 4.44727,-1.64258 1,-0.97866 1.46218,-2.60412 2.10352,-3.82812 0.33065,-0.632 0.67019,-1.25891 1.01953,-1.87891 0.116,-0.20533 0.95667,-1.3302 0.88867,-1.51953 2.79733,7.71065 8.44541,16.4264 7.21875,24.78906 -0.69467,4.732 -3.58548,6.18113 -13.75391,9.4668 -10.16843,3.28567 -22.62235,-1.55828 -31.73633,-6.19637 -9.11398,-4.6381 -23.22403,-14.00566 -31.69469,-21.17223 -8.47066,-7.16657 -14.38662,-16.49982 -17.75062,-22.08648 -3.81599,-8.26933 -3.05875,-13.18899 -2.71875,-14.84499 4.95322,-4.23811 11.59224,-10.19248 14.87891,-13.03782 z"
       sodipodi:nodetypes="ccccccczcccczcccccccccczzsscsccccccccssccsccccccsccsccccccccccscsccsccscccccsszzccc" /><path
       id="path172060"
       style="opacity:0.199997;fill:#000000;fill-opacity:1;fill-rule:nonzero;stroke:none;stroke-width:1.33333"
       d="m 197.83789,194.62695 -17.7832,14.77344 c 0,0 -2.95775,14.05634 10.85156,27.12695 7.2865,6.89604 12.40855,11.22325 17.06341,14.34934 4.2161,-5.02725 8.49334,-16.21872 8.55556,-18.12027 0.0909,-1.24064 -0.42787,-2.55815 -0.95881,-3.13532 -7.9231,-8.613 -15.42913,-17.97307 -15.48243,-31.17968 z m 21.0455,37.65933 c -4.14878,7.40533 -6.34352,13.02905 -8.76816,20.03208 2.96279,1.92637 5.06798,2.88765 5.94922,2.68555 2.27513,-0.52176 7.99939,-15.48806 7.09571,-18.43164 -0.5411,-1.76252 -2.45763,-3.03895 -4.27677,-4.28599 z m 7.56583,5.95786 -7.57422,20.28906 c 2.55836,1.72065 5.2299,2.62177 6.83398,1.10547 1.84637,-1.81585 5.63062,-13.26112 5.04493,-16.15429 -0.28712,-1.41831 -0.86564,-2.70502 -4.30469,-5.24024 z m 8.55664,6.93359 c -0.90378,-0.18839 -5.10352,18.49805 -5.10352,18.49805 5.35385,1.56747 6.36279,-0.34397 7.25068,-3.81836 0.60846,-2.38094 3.48905,-11.12065 1.76495,-12.48828 -2.80742,-2.22697 -3.16845,-1.90543 -3.91211,-2.19141 z"
       sodipodi:nodetypes="cccccsccccssccccscccssc" /><path
       d="m 109.32033,316.69673 8.84428,42.224 c 0,0 1.98616,18.96323 4.56101,41.07927 l 10.59218,-0.26309 c -2.63816,-17.98068 -4.89358,-29.60592 -7.49861,-39.4222 -2.60504,-9.81629 -11.80488,-35.29513 -16.49886,-43.61798 z"
       style="opacity:0.199997;fill:#000000;fill-opacity:1;fill-rule:nonzero;stroke:none;stroke-width:1.33333"
       id="path172192"
       sodipodi:nodetypes="cccczc" /><path
       style="color:#000000;fill:#000000;-inkscape-stroke:none;fill-opacity:0.30000001"
       d="m 264.07617,277.07031 -1.25586,0.3418 c 0,0 7.8243,29.8693 10.69638,46.21636 2.87533,16.36556 4.59294,39.56228 5.80815,52.22744 1.2127,12.63907 2.00044,24.14409 2.00044,24.14409 h 1.62199 c 0,0 -0.6242,-11.75993 -1.83985,-24.42973 -1.21315,-12.64372 -3.09007,-35.53032 -5.98437,-52.0039 -2.89756,-16.49209 -11.04688,-46.4961 -11.04688,-46.4961 z"
       id="path23921"
       sodipodi:nodetypes="ccssccsscc" /><path
       style="fill:#000000;fill-opacity:1;stroke:none;stroke-width:1px;stroke-linecap:butt;stroke-linejoin:miter;stroke-opacity:1"
       d="m 361.43678,274.65518 c 0,0 4.27052,12.76016 5.8046,22.5862 1.53408,9.82604 3.33082,23.85459 4.03116,36.38917 0.70034,12.53458 0.6271,27.60546 0.91954,38.62069 0.29244,11.01523 1.1297,27.74876 1.1297,27.74876 h -4.70109 c 0,0 0.269,-17.7195 0.22989,-28.85057 -0.0391,-11.13107 -0.20042,-28.37161 -0.57472,-38.16092 -0.3743,-9.78931 -0.67674,-14.15538 -1.26437,-20.57472 -0.58763,-6.41934 -1.1806,-11.64118 -2.1839,-17.93103 -1.0033,-6.28985 -3.90805,-19.77012 -3.90805,-19.77012 z"
       id="path25436"
       sodipodi:nodetypes="czzzcczzzzcc" /><path
       style="fill:#000000;fill-opacity:0.2;stroke:none;stroke-width:1px;stroke-linecap:butt;stroke-linejoin:miter;stroke-opacity:1"
       d="m 367.58621,305.05747 c 0,0 4.44718,20.17779 5.51724,34.02299 1.07006,13.84521 2.64394,31.79443 3.21839,41.83908 C 376.89629,390.9642 377.01149,400 377.01149,400 l -6.66666,-0.45977 v -46.2069 l -1.6092,-31.72413 z"
       id="path25462"
       sodipodi:nodetypes="czzccccc" /><path
       style="color:#000000;fill:#000000;fill-opacity:0.3;-inkscape-stroke:none"
       d="m 256.40991,269.08315 c -2.67928,0.12349 -6.04358,-0.42211 -9.74194,-0.87895 -3.75267,-0.46355 -7.99039,-1.48012 -7.99039,-1.48012 0,0 5.15832,3.11877 8.87307,3.80703 3.80295,0.70461 7.64161,1.01464 10.23412,0.55952 5.22454,-0.91718 9.34121,-5.57305 9.34121,-5.57305 0,0 -6.30483,3.36226 -10.71607,3.56557 z"
       id="path25489"
       sodipodi:nodetypes="sscsscs" /><path
       style="color:#000000;fill:#000000;-inkscape-stroke:none;fill-opacity:0.30000001"
       d="m 183.9707,226.37891 c 0,0 -1.77826,-0.18095 -2.9414,0.008 -0.68704,0.11149 0.91885,-0.60505 -2.92188,0.96484 -3.89176,1.59076 -7.32414,3.60575 -20.63113,9.83833 -13.51221,6.32871 -45.84764,22.02923 -57.700633,28.62084 -5.573744,3.09963 -8.317655,4.37202 -9.006126,4.65997 -0.172117,0.072 -0.271056,0.10605 -0.417969,0.19336 -0.146912,0.0873 -0.341092,0.31894 -0.392578,0.41992 -0.05149,0.10099 -0.04878,0.10762 -0.09766,0.1875 -0.04887,0.0799 -0.141638,0.21494 -0.322266,0.43164 -1.790895,2.14858 -1.550781,4.6875 -1.550781,4.6875 l 1.494141,-0.13671 c 0,0 -0.170787,-1.93451 1.208984,-3.58985 0.215706,-0.25878 0.353785,-0.45339 0.449219,-0.60937 0.04708,-0.077 0.04931,-0.0897 0.07617,-0.14258 0.03784,-0.0171 0.03423,-0.0162 0.130859,-0.0566 0.680601,-0.28467 2.633327,-1.09661 8.310547,-4.06445 11.292993,-5.90358 46.099523,-22.92165 59.292963,-29.41602 13.19697,-6.49611 15.92849,-8.0839 19.72266,-9.63477 3.84521,-1.57172 1.4183,-0.68197 2.5957,-0.87304 0.70129,-0.11381 2.57617,0.006 2.57617,0.006 z"
       id="path31051"
       sodipodi:nodetypes="ccssssssssccssccsssscc" /><path
       style="fill:#d30000;stroke:none;stroke-width:2.5;stroke-linecap:butt;stroke-linejoin:miter;stroke-dasharray:none;stroke-opacity:1;fill-opacity:1"
       d="m 115.4023,235.05747 c 3.31159,0.30575 16.14305,9.81055 24.82759,17.81609 8.68454,8.00554 18.29563,19.94989 24.82758,29.88506 6.53195,9.93517 10.77681,20.19577 14.71264,28.96552 3.93583,8.76975 9.19541,23.44827 9.19541,23.44827 l -28.50575,10.11495 c 0,0 -4.74151,-15.1853 -8.73563,-23.90805 -3.99412,-8.72275 -8.66645,-18.10084 -15.63219,-28.04598 -6.96574,-9.94514 -18.16415,-23.74885 -26.66666,-30.80459 -8.50251,-7.05574 -16.970193,-8.10473 -19.310347,-9.77012 -2.340155,-1.6654 -2.53711,-3.42863 -1.034483,-5.28736 1.502627,-1.85873 6.254932,-3.20193 9.655172,-4.71264 3.400238,-1.51071 6.608408,-4.5346 9.425288,-5.74712 2.81688,-1.21252 3.92979,-2.25977 7.24138,-1.95403 z"
       id="path25547"
       sodipodi:nodetypes="zzzzcczzzzzzzz" /><path
       style="color:#000000;fill:#000000;-inkscape-stroke:none"
       d="m 115.51758,233.8125 c -1.79866,-0.16606 -3.15846,0.0507 -4.34375,0.47656 -1.1853,0.42582 -2.16451,0.996 -3.50781,1.57422 -3.19353,1.37465 -6.33627,4.37604 -9.437504,5.75391 -1.628271,0.72343 -3.662778,1.43604 -5.515625,2.21484 -1.852848,0.7788 -3.54167,1.53761 -4.605469,2.85352 -0.889586,1.1004 -1.412068,2.39748 -1.181641,3.71679 0.230428,1.31932 1.138474,2.43108 2.464844,3.375 1.649352,1.17378 4.215563,1.68565 7.615234,3.00977 3.399671,1.32412 7.503341,3.28604 11.621091,6.70312 8.30103,6.88855 19.52502,20.68587 26.44141,30.56055 6.90458,9.85782 11.53785,19.15402 15.51953,27.84961 3.92139,8.56392 8.67773,23.75977 8.67773,23.75977 l 0.38868,1.24023 30.91015,-10.96875 -0.42187,-1.18164 c 0,0 -5.25359,-14.67154 -9.23242,-23.53711 -3.92417,-8.74376 -8.19619,-19.08308 -14.8086,-29.14062 -6.58851,-10.0212 -16.2232,-22.0032 -25.02539,-30.11719 -4.38657,-4.04361 -9.78902,-8.4412 -14.54101,-11.88867 -2.376,-1.72374 -4.58651,-3.20966 -6.44532,-4.30079 -1.8588,-1.09112 -3.22757,-1.82897 -4.57226,-1.95312 z m -0.23047,2.49023 c 0.3111,0.0287 1.78724,0.59196 3.53711,1.61914 1.74987,1.02719 3.91081,2.4766 6.24219,4.16797 4.66276,3.38274 10.01845,7.74121 14.3164,11.70313 8.56688,7.89707 18.15548,19.80322 24.63086,29.65234 6.45148,9.81278 10.66775,19.9953 14.61524,28.79102 3.62118,8.06866 8.07102,20.36909 8.72461,22.18164 l -26.10743,9.26367 c -0.59697,-1.89752 -4.60602,-14.56988 -8.38476,-22.82227 -4.00655,-8.74989 -8.71921,-18.20974 -15.7461,-28.24218 -7.01507,-10.01558 -18.1886,-23.82786 -26.89257,-31.05078 -4.38475,-3.63865 -8.76572,-5.72872 -12.310551,-7.10938 -3.544829,-1.38065 -6.381465,-2.22518 -7.072265,-2.7168 -1.013783,-0.72147 -1.37374,-1.32424 -1.451172,-1.76757 -0.07743,-0.44334 0.05102,-0.95653 0.664062,-1.71485 0.438827,-0.54282 1.879889,-1.38593 3.628907,-2.12109 1.749017,-0.73516 3.788581,-1.44905 5.560546,-2.23633 3.699233,-1.64355 6.971883,-4.68984 9.412113,-5.74023 1.47357,-0.6343 2.46196,-1.19503 3.36523,-1.51954 0.90327,-0.3245 1.75465,-0.47757 3.26758,-0.33789 z"
       id="path25549" /><path
       id="path26309"
       style="color:#000000;fill:#000000;-inkscape-stroke:none;fill-opacity:0.30000001"
       d="M 195.59375 201.45703 C 195.59375 201.45703 191.06491 206.39478 189.05859 208.79688 C 187.05228 211.19896 183.25586 216.53516 183.25586 216.53516 L 183.71094 217.00195 C 183.71094 217.00195 188.04265 212.18301 190.04883 209.78125 C 192.055 207.37946 196.16016 201.97266 196.16016 201.97266 L 195.59375 201.45703 z M 199.78906 209.82812 C 199.78906 209.82812 195.34027 215.39676 193.38867 218.08789 C 191.43707 220.77901 187.81836 226.69922 187.81836 226.69922 L 188.35352 227.14453 C 188.35352 227.14453 192.60321 221.72006 194.55469 219.0293 C 196.50616 216.3385 200.45313 210.31836 200.45312 210.31836 L 199.78906 209.82812 z M 205.67188 217.28516 C 205.67188 217.28516 201.39828 222.92006 199.53125 225.63867 C 197.66422 228.35726 194.22852 234.32031 194.22852 234.32031 L 194.77148 234.75 C 194.77148 234.75 198.84987 229.26121 200.7168 226.54297 C 202.5837 223.82469 206.34375 217.75391 206.34375 217.75391 L 205.67188 217.28516 z M 211.21484 225.70898 C 211.21484 225.70898 207.84126 231.39382 206.39258 234.11914 C 204.94389 236.84446 202.37305 242.76367 202.37305 242.76367 L 202.91602 243.11719 C 202.91602 243.11719 206.12364 237.58826 207.57227 234.86328 C 209.02087 232.13827 211.87891 226.08984 211.87891 226.08984 L 211.21484 225.70898 z M 218.9043 232.0625 C 218.9043 232.0625 215.88178 237.95295 214.59961 240.76758 C 213.31742 243.58221 211.10352 249.66406 211.10352 249.66406 L 211.66211 249.99023 C 211.66211 249.99023 214.53036 244.26352 215.8125 241.44922 C 217.09462 238.63492 219.58594 232.4082 219.58594 232.4082 L 218.9043 232.0625 z M 226.13867 239.21094 C 226.13867 239.21094 223.58907 245.16957 222.5293 248.00586 C 221.46951 250.84218 219.72266 256.93359 219.72266 256.93359 L 220.29297 257.2168 C 220.29297 257.2168 222.70196 251.42972 223.76172 248.59375 C 224.82148 245.75777 226.83008 239.50391 226.83008 239.50391 L 226.13867 239.21094 z M 235.00586 244.42383 C 235.00586 244.42383 233.04915 250.40496 232.26367 253.24023 C 231.47819 256.07552 230.29297 262.125 230.29297 262.125 L 230.85547 262.35742 C 230.85547 262.35742 232.69303 256.55371 233.47852 253.71875 C 234.26399 250.88378 235.68359 244.6582 235.68359 244.6582 L 235.00586 244.42383 z M 244.77734 248.44727 C 244.77734 248.44727 242.81868 254.42839 242.0332 257.26367 C 241.24772 260.09896 240.06445 266.14844 240.06445 266.14844 L 240.62695 266.37891 C 240.62695 266.37891 242.46451 260.57714 243.25 257.74219 C 244.03548 254.90722 245.45313 248.67969 245.45312 248.67969 L 244.77734 248.44727 z M 264.20117 250.28711 C 264.20117 250.28711 262.24446 256.26824 261.45898 259.10352 C 260.67351 261.9388 259.48828 267.98828 259.48828 267.98828 L 260.05078 268.21875 C 260.05078 268.21875 261.88834 262.41504 262.67383 259.58008 C 263.45931 256.74511 264.87891 250.51953 264.87891 250.51953 L 264.20117 250.28711 z M 254.08789 250.63086 C 254.08789 250.63086 252.12923 256.61199 251.34375 259.44727 C 250.55827 262.28255 249.375 268.33203 249.375 268.33203 L 249.93555 268.56445 C 249.93555 268.56445 251.77506 262.76074 252.56055 259.92578 C 253.34603 257.09081 254.76367 250.86328 254.76367 250.86328 L 254.08789 250.63086 z " /><path
       id="path172176"
       style="opacity:0.199997;fill:#000000;fill-opacity:1;fill-rule:nonzero;stroke:none;stroke-width:1.33333"
       d="M 181.2168 206.23438 L 174.41016 206.97266 L 133.49609 228.12695 L 118.79492 236.71875 L 116.2168 235.36328 L 112.63281 235.14258 L 90.138672 246.57617 L 88.585938 249.98633 L 90.867188 253.12109 L 83.052734 256.7207 L 73.322266 262.07617 L 68.001953 265.56641 L 53.779297 270.88672 C 46.321082 279.78778 43.231813 290.64261 39.681641 308.2793 C 34.491583 338.38212 28.721961 369.89696 23.533203 400 L 46.988281 399.9668 C 46.678496 392.00541 46.948291 384.6844 47.681641 377.94141 C 47.72721 377.93723 47.770393 377.93649 47.816406 377.93164 C 51.666616 377.52613 52.386827 373.41564 56.550781 368.27539 C 60.714736 363.13515 67.466607 354.57525 72.183594 346.66602 C 76.90058 338.75678 86.735562 322.53608 84.597656 320.91992 C 82.459751 319.30376 76.898703 324.97027 69.425781 330.11523 C 67.475797 331.45776 64.852225 333.07904 61.980469 334.875 C 79.029253 308.1651 104.40234 302.49023 104.40234 302.49023 C 104.40234 302.49023 103.70496 293.42214 111.37695 290.63281 C 117.82374 288.2885 123.9514 286.16459 129.76367 284.23828 C 130.21415 284.08898 129.51426 283.25045 129.96094 283.10352 C 139.88868 279.83816 150.34186 276.38087 158.53711 274.25977 C 159.11209 274.11096 159.21876 275.34108 159.77539 275.19141 C 194.70468 265.79973 211.69141 265.57422 211.69141 265.57422 C 211.69141 265.57422 167.67614 235.36704 181.55078 206.67773 L 181.2168 206.23438 z M 86.214844 346.78711 C 85.526751 346.79767 84.801872 347.08547 84.244141 347.74805 C 82.756855 349.51493 72.249182 366.34935 66.666016 375.17188 C 61.082849 383.9944 51.494141 400 51.494141 400 L 77.242188 400 C 77.242187 400 77.213707 401.12033 79.080078 396.32227 C 80.946449 391.5242 84.869407 378.81605 86.4375 370.57422 C 88.005593 362.33239 88.415056 350.29729 88.410156 348.58984 C 88.407072 347.52268 87.361664 346.76951 86.214844 346.78711 z " /><g
       id="g36004"
       transform="rotate(0.58684819,326.55529,333.86814)"><path
         style="color:#000000;fill:#d9a14b;stroke:#000000;stroke-width:1.5;stroke-miterlimit:9;stroke-dasharray:none;stroke-opacity:1"
         d="m 305.32852,326.19053 c -3.44808,0.75597 -5.66217,4.53431 -4.92445,8.41343 l 0.94611,4.9749 c 0.73014,3.83924 4.09481,6.2804 7.49339,5.47063 l 39.31537,-9.36749 c 3.12441,-0.74442 5.17344,-4.3155 4.58918,-7.99074 l -0.75689,-4.76115 c -0.59004,-3.7115 -3.6262,-6.17512 -6.79318,-5.48078 z m 0.29488,1.58209 39.82291,-8.79433 c 2.47255,-0.54602 4.80505,1.33987 5.26843,4.24068 l 0.76139,4.76649 c 0.45927,2.87512 -1.11595,5.61833 -3.56072,6.197 l -39.36082,9.31659 c -2.65576,0.62861 -5.23307,-1.24823 -5.80039,-4.24492 l -0.94082,-4.96909 c -0.57245,-3.02483 1.122,-5.91882 3.80995,-6.51241 z"
         id="path32605" /><path
         id="rect18996"
         d="m 305.4759,326.98218 39.84657,-8.76788 c 2.81972,-0.62045 5.50376,1.55357 6.03065,4.85987 l 0.75916,4.7639 c 0.52196,3.27551 -1.28993,6.43315 -4.07482,7.09451 l -39.33846,9.34216 c -3.02727,0.71893 -5.99754,-1.44085 -6.64607,-4.85869 l -0.94326,-4.97213 c -0.655,-3.45158 1.29876,-6.78679 4.36642,-7.46179 z"
         style="fill:#fbeacf;fill-opacity:1;stroke-width:0.185236;stroke-miterlimit:9" /><path
         style="color:#000000;fill:#d9a14b;stroke:#000000;stroke-width:0.6;stroke-miterlimit:9;stroke-dasharray:none;stroke-opacity:1"
         d="m 305.32852,326.19053 c -3.44808,0.75597 -5.66217,4.53431 -4.92445,8.41343 l 0.94611,4.9749 c 0.73014,3.83924 4.09481,6.2804 7.49339,5.47063 l 39.31537,-9.36749 c 3.12441,-0.74442 5.17344,-4.3155 4.58918,-7.99074 l -0.75689,-4.76115 c -0.59004,-3.7115 -3.6262,-6.17512 -6.79318,-5.48078 z m 0.29488,1.58209 39.82291,-8.79433 c 2.47255,-0.54602 4.80505,1.33987 5.26843,4.24068 l 0.76139,4.76649 c 0.45927,2.87512 -1.11595,5.61833 -3.56072,6.197 l -39.36082,9.31659 c -2.65576,0.62861 -5.23307,-1.24823 -5.80039,-4.24492 l -0.94082,-4.96909 c -0.57245,-3.02483 1.122,-5.91882 3.80995,-6.51241 z"
         id="rect18998" /><path
         id="rect21363"
         style="fill:#d5def1;fill-opacity:1;stroke:#000000;stroke-width:0.33066;stroke-miterlimit:9;stroke-dasharray:none;stroke-opacity:1"
         d="m 307.6506,331.09748 c 1.80335,0.16991 3.29434,1.65894 3.66135,3.64796 0.36281,1.99084 -0.48693,4.0055 -2.0844,4.94129 l 36.07466,-8.41103 c -1.6721,-0.15552 -3.05182,-1.59762 -3.37513,-3.53588 -0.31798,-1.94346 0.50441,-3.90037 2.01212,-4.78866 z" /><path
         id="path21425"
         d="m 347.5739,321.27711 c 0.0968,0.59967 -0.23644,1.17798 -0.74466,1.29221 -0.50874,0.11431 -1.00059,-0.27948 -1.0982,-0.88011 -0.0976,-0.60105 0.23658,-1.18058 0.74615,-1.29396 0.50904,-0.11329 0.99987,0.28178 1.09671,0.88186 z"
         style="fill:#d9a14b;fill-opacity:1;stroke:#000000;stroke-width:0.292284;stroke-miterlimit:9;stroke-dasharray:none;stroke-opacity:1" /><path
         style="fill:#d9a14b;fill-opacity:1;stroke:#000000;stroke-width:0.334038;stroke-linecap:butt;stroke-linejoin:miter;stroke-dasharray:none;stroke-opacity:1"
         d="m 304.42513,335.55219 6.64728,-1.97506 30.6745,-6.98276 6.60873,-1.06213 0.28321,1.26093 -6.53775,1.94434 -30.62426,7.03951 -6.80224,1.10253 z"
         id="path21495" /><path
         id="path21497"
         style="fill:#d9a14b;fill-opacity:1;stroke:#000000;stroke-width:1;stroke-miterlimit:9;stroke-dasharray:none;stroke-opacity:1"
         d="m 324.35835,315.76138 c -7.81655,1.6656 -12.90047,10.37227 -11.2613,19.33813 1.62211,8.87295 9.19471,14.45732 16.82408,12.58172 7.51593,-1.84769 12.3717,-10.2873 10.9331,-18.95395 -1.45321,-8.75496 -8.79774,-14.60632 -16.49588,-12.9659 z m 0.49421,2.83594 c 6.34819,-1.37088 12.42568,3.43909 13.63694,10.67283 1.20123,7.17366 -2.82195,14.15797 -9.04597,15.6707 -6.30186,1.53169 -12.53541,-3.09696 -13.8614,-10.41184 -1.3374,-7.37755 2.84158,-14.54343 9.27043,-15.93169 z" /><path
         style="fill:#d9a14b;fill-opacity:1;stroke:#000000;stroke-width:0.835097;stroke-linecap:butt;stroke-linejoin:miter;stroke-dasharray:none;stroke-opacity:1"
         d="m 319.76185,354.45121 c -1.34773,-14.1928 -0.39098,-29.02594 4.12858,-41.89972 7.40412,10.00645 12.56715,20.78079 16.60282,32.76895 0,0 -5.51715,-9.10441 -8.28499,-8.48852 -4.998,0.99147 -12.44641,17.61929 -12.44641,17.61929 z"
         id="path21563"
         sodipodi:nodetypes="ccccc" /><path
         style="fill:#000000;fill-opacity:1;stroke:none;stroke-width:0.417548px;stroke-linecap:butt;stroke-linejoin:miter;stroke-opacity:1"
         d="m 326.055,329.48785 -0.82087,-11.49187 3.19905,10.87684 2.8277,0.5585 -2.1763,1.69792 0.81136,2.81042 -2.22871,-2.33514 -1.15486,3.49624 -0.26657,-3.39593 -2.62923,-0.75658 z"
         id="path21565" /></g><path
       style="fill:#000000;fill-opacity:1;stroke:none;stroke-width:1px;stroke-linecap:butt;stroke-linejoin:miter;stroke-opacity:1"
       d="m 99.54023,291.72414 c 0,0 5.0298,14.34829 7.93103,25.51724 2.90123,11.16895 6.48168,27.8199 8.73564,41.6092 2.25396,13.7893 4.82758,41.14942 4.82758,41.14942 h 3.33334 c 0,0 -2.36296,-27.98108 -4.82759,-41.95402 -2.46463,-13.97294 -6.44917,-30.93375 -10,-41.95403 -3.55083,-11.02028 -10,-24.36781 -10,-24.36781 z"
       id="path35721"
       sodipodi:nodetypes="czzcczzc" /><path
       style="fill:#000000;fill-opacity:0.2;stroke:none;stroke-width:1px;stroke-linecap:butt;stroke-linejoin:miter;stroke-opacity:1"
       d="m 51.839081,296.2069 c -1.400847,-1.66493 0.254573,-6.23707 1.034482,-8.85058 0.779909,-2.61351 1.397296,-5.19275 3.333334,-6.66666 1.936038,-1.47391 6.551724,-1.37931 7.011494,-1.37931 0.45977,0 8.710296,2.63091 13.218391,5.63218 4.508095,3.00127 9.440508,7.93923 12.988505,12.64368 3.547997,4.70445 6.805037,10.8701 8.16092,15.17241 1.355883,4.30231 1.439966,7.09209 1.149425,9.77012 -0.290541,2.67803 -0.320853,4.98047 -2.068965,5.97701 -1.748112,0.99654 -3.378404,0.71556 -5.632184,-1.14943 -2.25378,-1.86499 -2.1084,-5.98648 -4.482759,-10.91954 -2.374359,-4.93306 -6.189933,-14.54069 -10.229885,-18.3908 -4.039952,-3.85011 -7.412437,-5.4095 -11.149425,-5.51724 -3.736988,-0.10774 -6.874693,3.50206 -9.195402,3.90804 -2.320709,0.40598 -2.737084,1.43505 -4.137931,-0.22988 z"
       id="path35762"
       sodipodi:nodetypes="zzzzzzzzzzzzzzz" /><path
       id="path38359"
       style="fill:#aaaaaa;fill-opacity:1;stroke:#000000;stroke-width:1px;stroke-linecap:butt;stroke-linejoin:miter;stroke-opacity:1"
       d="m 177.50781,319.9043 c -1.06024,-0.52429 -17.93108,6.55897 -18.20508,7.3164 -0.274,0.75743 2.73997,7.75028 3.57618,8.28907 0.83621,0.53879 18.3895,-5.52506 18.69336,-6.66407 0.30386,-1.13901 -3.00422,-8.41711 -4.06446,-8.9414 z m -1.13672,4.71484 0.97461,2.27539 c -4.30739,2.11331 -8.77734,3.90151 -13.16601,4.87695 l -0.89453,-1.95117 c 4.0867,-2.28605 7.7308,-3.7985 13.08593,-5.20117 z"
       sodipodi:nodetypes="zzzzzccccc" /><path
       style="fill:#aaaaaa;fill-opacity:1;stroke:#000000;stroke-width:1px;stroke-linecap:butt;stroke-linejoin:miter;stroke-opacity:1"
       d="m 165.77646,322.07384 5.44554,12.43532 c 1.43588,0 2.70922,-0.48766 4.06383,-1.46298 l -5.44554,-12.67915 c -1.67971,0 -2.95305,0.48766 -4.06383,1.70681 z"
       id="path38364"
       sodipodi:nodetypes="ccccc" /></g></svg>
