<?xml version="1.0" encoding="UTF-8" standalone="no"?>
<!-- Generator: Adobe Illustrator 28.3.0, SVG Export Plug-In . SVG Version: 6.00 Build 0)  -->

<svg
   version="1.1"
   id="Body_Excursion_Jacket_Male_1"
   x="0px"
   y="0px"
   viewBox="0 0 400 400"
   enable-background="new 0 0 300 300"
   xml:space="preserve"
   sodipodi:docname="TwokExcursionJacketMale.svg"
   width="400"
   height="400"
   inkscape:version="1.3.2 (091e20e, 2023-11-25)"
   xmlns:inkscape="http://www.inkscape.org/namespaces/inkscape"
   xmlns:sodipodi="http://sodipodi.sourceforge.net/DTD/sodipodi-0.dtd"
   xmlns="http://www.w3.org/2000/svg"
   xmlns:svg="http://www.w3.org/2000/svg"><defs
   id="defs98">
	
</defs><sodipodi:namedview
   id="namedview98"
   pagecolor="#ffffff"
   bordercolor="#666666"
   borderopacity="1.0"
   inkscape:showpageshadow="2"
   inkscape:pageopacity="0.0"
   inkscape:pagecheckerboard="0"
   inkscape:deskcolor="#d1d1d1"
   inkscape:zoom="2.78"
   inkscape:cx="200"
   inkscape:cy="200"
   inkscape:window-width="2104"
   inkscape:window-height="1325"
   inkscape:window-x="2211"
   inkscape:window-y="25"
   inkscape:window-maximized="0"
   inkscape:current-layer="layer1"
   showgrid="false" />


































































<g
   inkscape:groupmode="layer"
   id="layer1"
   inkscape:label="Excursion Jacket"><path
     d="m 67.624558,248.86666 c -3.213333,1.23867 -7.87113,0.9109 -11.11513,2.22824 -1.822667,0.74 -3.189572,1.83161 -4.469572,3.38627 -0.893333,1.08534 -0.235297,2.91482 -1.111297,3.56282 -0.958667,0.70934 -1.549655,0.86134 -2.692321,1.456 -1.394667,0.72667 -2.898667,1.30667 -3.916,2.57334 -1.948,2.42533 -1.872,5.596 0.596,7.50666 2.385333,1.848 4.430987,2.84534 7.249654,3.78 2.754667,0.91467 6.450666,1.28534 8.925333,2.50934 4.04,-2.22 7.66,-5.44534 10.636,-8.97334 2.769333,-3.28533 6.781333,-9.62 4.433333,-14.21866 -1.297333,-2.54134 -5.992,-4.79067 -8.536,-3.81067 z"
     id="path2"
     style="fill:#000000;fill-opacity:1;stroke-width:1.33333"
     sodipodi:nodetypes="cccccccccccc" /><path
     fill="#700000"
     d="m 24.992476,400 c 0,0 7.698666,-65.55201 9.454666,-78.50801 1.757334,-12.956 7.905334,-43.7 12.077333,-47.43333 4.172,-3.73333 21.332857,-21.52 21.332857,-21.52 l 303.921328,20.20267 c 0,0 10.10133,34.696 11.63866,55.55733 1.53734,20.86133 2.384,71.66666 2.384,71.66666 z"
     id="path3"
     style="stroke-width:1.33333"
     sodipodi:nodetypes="ccsccscc" /><rect
     x="368.41602"
     y="385.8493"
     fill="#e6e6e6"
     width="17.385332"
     height="14.117333"
     id="rect3"
     style="stroke-width:1.33333;fill:#d30000;fill-opacity:1" /><path
     id="polygon5"
     style="opacity:0.2;fill:#000000;fill-opacity:1"
     transform="scale(1.3333333)"
     d="M 210.69976,299.975 210.369,262.546 h -1.492 l 0.33176,37.429 z m -8.118,0 -0.33076,-37.429 h -1.492 l 0.33176,37.429 z"
     sodipodi:nodetypes="cccccccccc" /><path
     id="path6"
     style="fill:#000000;fill-opacity:1;stroke-width:1.33333"
     d="m 175.33743,208.04888 c -3.02225,2.82454 -0.80688,-3.06332 -4.16145,-1.30553 -1.22933,-0.54537 0.38538,0.60222 -5.13728,1.42755 -5.32266,0.79467 -22.74977,4.08995 -43.80042,12.79394 -17.06931,7.05734 -31.137632,15.68915 -34.904296,17.36914 -7.938658,3.54133 -12.598693,9.37912 -13.693359,10.78711 -1.094665,0.46666 -5.131702,1.65519 -8.457031,3.36719 -6.779993,3.04 -19.148579,16.64296 -24.253906,28.15095 -2.317331,5.22266 -7.702916,22.91705 -11.896245,50.52902 -4.38533,28.87064 -6.434028,63.1414 -6.905873,68.83175 h 5.13086 c 1.831608,-24.81685 2.94403,-46.50319 6.501576,-69.63058 2.662095,-16.18549 5.2844,-32.35932 11.425262,-47.89146 5.483786,-13.87019 19.99442,-26.96234 19.99442,-26.96234 6.29866,-6.87866 23.591936,6.91158 27.697265,12.99024 0.314667,-0.97333 -0.154449,-2.11824 -0.675781,-3.12891 -2.498665,-4.84132 -6.449447,-8.81992 -10.91211,-12.05859 -1.499998,-1.088 -3.675276,-2.08296 -4.724609,-3.62695 -0.312,-0.45867 10.948262,-7.73579 11.933594,-8.17579 4.003996,-1.78665 17.455883,-10.11783 35.394533,-17.53515 19.89198,-8.22399 37.95852,-12.11026 42.82385,-12.83692 2.38266,-0.356 3.8097,-3.24074 4.86169,-3.26604 -0.51999,0.748 -0.93508,1.70361 -1.09374,2.96093 -0.42667,3.38133 2.29237,2.86281 5.12304,7.80414 3.27066,7.59999 17.59661,24.70923 32.66992,35.08789 18.39732,12.66666 24.6377,17.11811 26.70704,18.66211 0.012,0.028 0.0263,0.0534 0.041,0.0801 L 272.50195,341.75 c 0.22267,0.41334 0.61221,0.67716 1.04688,0.78516 h 0.80273 c 0.66,-0.17733 1.14778,-0.73974 1.20508,-1.42774 l 4.80664,-66.51172 c 3.02534,-4.19999 4.72989,-11.44563 3.33789,-16.40429 -0.72267,-2.57333 -2.18156,-4.82871 -3.32422,-7.22071 -0.50134,-1.04933 -2.34548,-4.01394 -2.02148,-5.22461 0.12534,-0.46667 0.51961,-0.88602 0.73828,-1.30468 1.3,-2.49334 -2.34652,-5.72892 -3.11719,-7.90625 -0.044,-0.124 -0.13423,-1.20089 0.14844,-1.21289 3.54,-0.14934 6.8538,1.23315 10.3418,2.78515 10.63466,4.73067 20.59213,11.29599 31.82812,13.58399 9.48799,1.93199 43.95957,14.02261 50.85156,20.61328 5.132,4.90799 9.6688,38.68427 12.07813,56.65625 1.13333,9.18532 1.63581,18.30102 1.86914,27.54101 0.15867,6.32266 -0.44245,12.65374 -0.43945,19.03907 0.003,8.14266 0.0216,16.28508 0.10156,24.42773 h 4.80078 l -2.30469,-71.77539 c -0.0733,-0.984 -0.18936,-1.79375 -0.33203,-2.45508 -2.15733,-15.76932 -7.32678,-49.95282 -13.41211,-55.77148 -7.53599,-7.20933 -41.9008,-19.39477 -52.21679,-21.4961 -8.256,-1.68133 -15.50188,-5.6846 -23.28321,-9.44726 -2.75732,-1.33333 -5.52417,-2.64674 -8.29883,-3.94141 -2.57733,-1.20267 -4.79665,-3.11495 -7.19531,-4.62695 -1.40267,-0.87466 -3.83359,-1.67639 -5.29492,-0.53906 -0.28137,0.21895 -0.55589,0.61609 -0.83398,0.94726 l -6.97461,20.92188 -43.75,-8.03516 -39.12732,-40.39822 z"
     sodipodi:nodetypes="cccccccccccsscccccccccsccccccccccscccccsccccccccccsscsccccc" /><path
     fill="#700000"
     stroke="#000000"
     stroke-miterlimit="10"
     d="m 368.20399,377.55732 c 2.37467,0.172 4.95467,-0.42533 7.404,-0.42533 2.576,0 5.15067,0 7.72667,0 2.704,0 6.55866,-0.596 8.30133,1.47733 1.624,1.93467 2.632,5.42667 1.07333,7.49334 -2.48266,3.28933 -9.23066,1.81333 -12.87733,2.07733 -3.912,0.284 -7.69067,0.644 -11.628,0.644"
     id="path7"
     style="stroke-width:1.33333" /><path
     d="m 370.23999,399.96666 c -0.008,0 -4.80133,0 -4.80133,0 -0.0667,-6.81334 -0.17734,-13.62667 -0.30934,-20.44 -0.0813,-4.22934 0.424,-8.64134 0.428,-12.948 0.005,-4.988 0.29334,-9.95867 0.29334,-14.92934 0,-2.876 -0.64267,-6.56666 0.636,-9.18266 5.71733,1.252 1.472,57.5 3.75333,57.5 z"
     id="path8"
     style="stroke-width:1.33333;fill:#000000;fill-opacity:1" /><path
     d="m 288.20799,329.30266 c 0.048,-1.46533 -1.11466,-2.608 -2.58533,-2.53867 l -11.02533,0.51734 c -1.47067,0.0693 -2.71334,1.324 -2.76134,2.78933 0.048,-1.46533 -1.11466,-2.608 -2.58533,-2.53867 l -2.052,0.096 c -1.47067,0.0693 -2.71333,1.324 -2.76133,2.78934 l -0.67734,20.51599 c -0.048,1.46534 1.11467,2.608 2.58534,2.53867 l 2.052,-0.096 c 1.47066,-0.0693 2.71333,-1.324 2.76133,-2.78933 -0.048,1.46533 1.11467,2.608 2.58533,2.53866 l 11.02534,-0.51733 c 1.47066,-0.0693 2.71333,-1.324 2.76133,-2.78933 z"
     id="path9"
     style="stroke-width:1.33333" /><rect
     x="131.61465"
     y="329.11334"
     fill="#700000"
     stroke="#000000"
     stroke-miterlimit="10"
     width="236.87067"
     height="20.669333"
     id="rect9"
     style="stroke-width:1.33333" /><path
     fill="#700000"
     stroke="#000000"
     stroke-miterlimit="10"
     d="m 317.88533,325.05733 c 2.29866,0.12133 4.60933,-0.0907 6.93333,0.20133 2.02,0.25333 3.34133,0.216 3.96133,2.7 0.44267,1.77067 0.12934,3.724 -0.0667,5.50933 -0.49467,4.524 -0.50267,9.11333 -0.95334,13.648 -0.16666,1.676 0.332,4.552 -0.852,5.83333 -1.012,1.09467 -3.27733,1.05867 -4.632,1.17067 -2.376,0.19733 -5.51733,0.36933 -7.844,-0.212 -0.48666,-0.12133 -1.488,-0.42133 -0.948,-1.23333 0.24934,-0.37467 1.18667,-0.216 1.584,-0.53067 1.42667,-1.132 0.82934,-4.37467 0.84,-6.05733 0.024,-3.83467 0.16134,-7.74267 0.32667,-11.58 0.096,-2.23333 0.79333,-4.004 -0.0267,-6.2 -0.272,-0.72667 -1.00266,-1.14267 -1.28266,-1.76133 -0.90667,-2.004 1.83333,-1.55334 2.776,-1.496 0.06,10e-4 0.12266,0.005 0.184,0.008 z"
     id="path10"
     style="stroke-width:1.33333" /><path
     fill="#700000"
     stroke="#000000"
     stroke-miterlimit="10"
     d="m 307.06533,354.21199 c 2.31066,-0.12133 4.59866,0.0907 6.95466,-0.20133 2.04667,-0.25334 3.364,-0.216 4.244,-2.7 0.62667,-1.76934 0.51734,-3.724 0.508,-5.50934 -0.024,-4.524 0.448,-9.11333 0.46934,-13.64799 0.008,-1.676 0.80666,-4.552 -0.244,-5.83334 -0.89734,-1.09466 -3.16667,-1.05866 -4.51067,-1.17066 -2.356,-0.19734 -5.47867,-0.36934 -7.86667,0.212 -0.5,0.12133 -1.532,0.42133 -1.076,1.23333 0.21067,0.37467 1.164,0.216 1.528,0.53067 1.30934,1.132 0.37334,4.37466 0.208,6.05733 -0.376,3.83466 -0.64666,7.74266 -0.88133,11.58 -0.136,2.23333 0.376,4.004 -0.67333,6.2 -0.348,0.72666 -1.12134,1.14266 -1.46667,1.76133 -1.116,2.004 1.672,1.55333 2.62,1.496 0.0627,0 0.124,-0.004 0.18667,-0.008 z"
     id="path11"
     style="stroke-width:1.33333" /><path
     fill="#700000"
     stroke="#000000"
     stroke-miterlimit="10"
     d="m 301.26266,325.05733 c 2.29067,0.12133 4.61467,-0.0907 6.92133,0.20133 2.004,0.25333 3.32667,0.216 3.792,2.7 0.332,1.77067 -0.10533,3.724 -0.412,5.50933 -0.77866,4.524 -1.07466,9.11333 -1.81066,13.648 -0.272,1.676 0.0453,4.552 -1.21867,5.83333 -1.08,1.09467 -3.34267,1.05867 -4.70667,1.17067 -2.38933,0.19733 -5.54,0.36933 -7.83066,-0.212 -0.47867,-0.12133 -1.46267,-0.42133 -0.87067,-1.23333 0.27333,-0.37467 1.2,-0.216 1.61733,-0.53067 1.49867,-1.132 1.104,-4.37467 1.22,-6.05733 0.264,-3.83467 0.64667,-7.74267 1.05334,-11.58 0.236,-2.23333 1.044,-4.004 0.36266,-6.2 -0.22533,-0.72667 -0.93066,-1.14267 -1.172,-1.76133 -0.78133,-2.004 1.93067,-1.55334 2.86934,-1.496 0.0613,10e-4 0.12266,0.005 0.18533,0.008 z"
     id="path12"
     style="stroke-width:1.33333" /><path
     fill="#700000"
     stroke="#000000"
     stroke-miterlimit="10"
     d="m 293.17333,325.05733 c 2.29866,0.12133 4.60933,-0.0907 6.93333,0.20133 2.02,0.25333 3.34133,0.216 3.96133,2.7 0.44267,1.77067 0.12934,3.724 -0.0667,5.50933 -0.49467,4.524 -0.50267,9.11333 -0.95334,13.648 -0.16666,1.676 0.332,4.552 -0.852,5.83333 -1.012,1.09467 -3.27733,1.05867 -4.632,1.17067 -2.376,0.19733 -5.51733,0.36933 -7.844,-0.212 -0.48666,-0.12133 -1.488,-0.42133 -0.948,-1.23333 0.24934,-0.37467 1.18667,-0.216 1.584,-0.53067 1.42667,-1.132 0.82934,-4.37467 0.83867,-6.05733 0.024,-3.83467 0.16133,-7.74267 0.32667,-11.58 0.096,-2.23333 0.79333,-4.004 -0.0267,-6.2 -0.272,-0.72667 -1.00267,-1.14267 -1.28267,-1.76133 -0.90666,-2.004 1.83334,-1.55334 2.776,-1.496 0.0613,10e-4 0.12267,0.005 0.18534,0.008 z"
     id="path13"
     style="stroke-width:1.33333" /><path
     fill="#700000"
     stroke="#000000"
     stroke-miterlimit="10"
     d="m 356.47332,353.76132 c -1.96533,0.0907 -3.94266,0.39067 -5.92133,0.21467 -1.02533,-0.0907 -3.94133,-0.41067 -4.54133,-1.28933 -0.61067,-0.89467 0.132,-3.168 0.27466,-4.17067 0.256,-1.79867 0.524,-3.56933 0.668,-5.388 0.292,-3.708 0.35467,-7.436 0.50134,-11.156 0.0613,-1.552 0.14,-2.932 -0.16134,-4.45466 -0.32533,-1.64267 -0.32133,-3.64934 1.36267,-3.93467 0.11867,-0.02 0.24533,-0.032 0.38133,-0.0333 2.64667,-0.044 5.51734,0.22266 8.176,0.41866 1.12134,0.0827 2.39867,-0.0667 3.17867,0.944 0.996,1.28934 0.54,4.12134 0.59467,5.632 0.21866,5.98667 0.0613,11.876 -0.308,17.78533 -0.08,1.27867 0.072,2.83067 -0.336,4.02 -0.58134,1.69467 -2.20534,1.33467 -3.86934,1.412 z"
     id="path14"
     style="stroke-width:1.33333" /><path
     fill="#700000"
     stroke="#000000"
     stroke-miterlimit="10"
     d="m 352.66799,352.88266 c -1.96533,0.0907 -3.94267,0.39066 -5.92133,0.21466 -1.02534,-0.0907 -3.94134,-0.41066 -4.54134,-1.28933 -0.61066,-0.89467 0.132,-3.168 0.27467,-4.17067 0.256,-1.79866 0.524,-3.56933 0.668,-5.388 0.292,-3.708 0.35467,-7.436 0.50133,-11.15599 0.0613,-1.552 0.14,-2.932 -0.16133,-4.45467 -0.32533,-1.64267 -0.32133,-3.64933 1.36267,-3.93467 0.11866,-0.02 0.24533,-0.032 0.38133,-0.0333 2.64667,-0.044 5.51733,0.22267 8.176,0.42 1.12133,0.0827 2.39867,-0.0667 3.17867,0.944 0.996,1.28933 0.54,4.12133 0.59466,5.632 0.21867,5.98666 0.0613,11.876 -0.308,17.78533 -0.08,1.27867 0.072,2.83067 -0.336,4.02 -0.58266,1.69333 -2.20533,1.33333 -3.86933,1.41067 z"
     id="path15"
     style="stroke-width:1.33333" /><path
     fill="#700000"
     stroke="#000000"
     stroke-miterlimit="10"
     d="m 349.59332,353.61466 c -1.96533,0.0907 -3.94266,0.39066 -5.92133,0.21466 -1.02533,-0.0907 -3.94133,-0.41066 -4.54133,-1.28933 -0.61067,-0.89467 0.132,-3.168 0.27466,-4.17067 0.256,-1.79866 0.524,-3.56933 0.668,-5.388 0.292,-3.708 0.35467,-7.436 0.50134,-11.15599 0.0613,-1.552 0.14,-2.932 -0.16134,-4.45467 -0.32533,-1.64267 -0.32133,-3.64933 1.36267,-3.93467 0.11867,-0.02 0.24533,-0.032 0.38133,-0.0333 2.64667,-0.044 5.51734,0.22267 8.176,0.41867 1.12134,0.0827 2.39867,-0.0667 3.17867,0.944 0.996,1.28933 0.54,4.12133 0.59467,5.632 0.21866,5.98666 0.0613,11.87599 -0.308,17.78533 -0.08,1.27866 0.072,2.83066 -0.336,4.02 -0.58134,1.69466 -2.20534,1.33466 -3.86934,1.412 z"
     id="path16"
     style="stroke-width:1.33333" /><path
     fill="#700000"
     stroke="#000000"
     stroke-miterlimit="10"
     d="m 345.05466,353.76132 c -1.96534,0.0907 -3.94267,0.39067 -5.92134,0.21467 -1.02533,-0.0907 -3.94133,-0.41067 -4.54133,-1.28933 -0.61067,-0.89467 0.132,-3.168 0.27467,-4.17067 0.256,-1.79867 0.524,-3.56933 0.668,-5.388 0.292,-3.708 0.35466,-7.436 0.50133,-11.156 0.0613,-1.552 0.14,-2.932 -0.16133,-4.45466 -0.32534,-1.64267 -0.32134,-3.64934 1.36266,-3.93467 0.11867,-0.02 0.24534,-0.032 0.38134,-0.0333 2.64666,-0.044 5.51733,0.22266 8.176,0.41866 1.12133,0.0827 2.39866,-0.0667 3.17866,0.944 0.996,1.28934 0.54,4.12134 0.59467,5.632 0.21867,5.98667 0.0613,11.876 -0.308,17.78533 -0.08,1.27867 0.072,2.83067 -0.336,4.02 -0.58133,1.69467 -2.20533,1.33467 -3.86933,1.412 z"
     id="path17"
     style="stroke-width:1.33333" /><g
     id="g39"
     transform="matrix(1.0001028,0,0,0.9365858,-0.03716185,22.819848)"><path
       d="m 349.32932,256.85199 c 3.136,-1.28933 5.75467,-2.152 9.288,-1.056 1.59734,0.49467 3.14,1.22534 4.65334,1.892 1.38666,0.61067 2.476,1.82 3.76533,2.43867 2.028,0.97333 3.26267,1.25067 4.55467,3.20267 1.24666,1.88266 2.072,3.78266 2.72666,5.94933 0.628,2.08 0.97467,4.352 0.86934,6.52667 -0.0693,1.444 -0.35067,4.70533 -1.32534,5.79333 -2.508,2.8 -10.39466,-2.71733 -12.524,-4.1 -4.092,-2.656 -8.63733,-5.428 -11.248,-9.66667 -1.28933,-2.09066 -4.43333,-8.288 -0.76,-10.98 z"
       id="path1"
       style="fill:#000000;fill-opacity:1;stroke-width:1.33333" /><path
       fill="#700000"
       stroke="#000000"
       stroke-miterlimit="10"
       d="m 359.88266,347.91999 c 1.32266,-6.916 6.71333,-66.24266 -2.00534,-79.04533 -8.71866,-12.80267 8.188,-8.36933 12.952,-5.05067 4.764,3.31867 4.86134,75.50933 0.82,87.452 -4.04133,11.94267 -14.33333,10.06267 -11.76666,-3.356 z"
       id="path18"
       style="stroke-width:1.33333" /><path
       fill="#700000"
       stroke="#000000"
       stroke-miterlimit="10"
       d="m 360.07599,347.72666 c 1.04667,-7.12667 1.836,-68.408 -6.884,-81.60267 -8.72,-13.19466 8.188,-8.62533 12.952,-5.20533 4.764,3.42 3.416,77.216 0.21733,89.52133 -3.19866,12.308 -8.31733,11.116 -6.28533,-2.71333 z"
       id="path19"
       style="stroke-width:1.33333" /></g><path
     fill="#700000"
     stroke="#000000"
     stroke-miterlimit="10"
     d="m 134.17737,353.53811 c 1.956,0.0907 3.90667,0.39067 5.90133,0.21467 1.03467,-0.0907 3.98,-0.41067 4.65867,-1.28933 0.692,-0.89467 0.15733,-3.168 0.10667,-4.17067 -0.092,-1.79867 -0.19867,-3.56933 -0.176,-5.388 0.0467,-3.708 0.32533,-7.436 0.51733,-11.156 0.08,-1.552 0.12667,-2.932 0.568,-4.45466 0.476,-1.64267 0.65467,-3.64934 -1.004,-3.93467 -0.11733,-0.02 -0.24267,-0.032 -0.37867,-0.0333 -2.64266,-0.044 -5.53733,0.22266 -8.21466,0.41866 -1.12934,0.0827 -2.392,-0.0667 -3.264,0.944 -1.11334,1.28934 -0.916,4.12134 -1.10934,5.632 -0.76533,5.98667 -1.14533,11.876 -1.316,17.78533 -0.0373,1.27867 -0.33066,2.83067 -0.032,4.02 0.42934,1.69467 2.08667,1.33467 3.74267,1.412 z"
     id="path23"
     style="stroke-width:1.33333" /><path
     fill="#700000"
     stroke="#000000"
     stroke-miterlimit="10"
     d="m 146.81554,353.64971 c 1.956,0.0907 3.90667,0.39067 5.90133,0.21467 1.03467,-0.0907 3.98,-0.41067 4.65867,-1.28933 0.692,-0.89467 0.15733,-3.168 0.10667,-4.17067 -0.092,-1.79867 -0.19867,-3.56933 -0.176,-5.388 0.0467,-3.708 0.32533,-7.436 0.51733,-11.156 0.08,-1.552 0.12667,-2.932 0.568,-4.45466 0.476,-1.64267 0.65467,-3.64934 -1.004,-3.93467 -0.11733,-0.02 -0.24267,-0.032 -0.37867,-0.0333 -2.64266,-0.044 -5.53733,0.22266 -8.21466,0.41866 -1.12934,0.0827 -2.392,-0.0667 -3.264,0.944 -1.11334,1.28934 -0.916,4.12134 -1.10934,5.632 -0.76533,5.98667 -1.14533,11.876 -1.316,17.78533 -0.0373,1.27867 -0.33066,2.83067 -0.032,4.02 0.42934,1.69467 2.08534,1.33467 3.74267,1.412 z"
     id="path24"
     style="stroke-width:1.33333" /><path
     fill="#700000"
     stroke="#000000"
     stroke-miterlimit="10"
     d="m 159.50832,353.64971 c 1.956,0.0907 3.90666,0.39067 5.90133,0.21467 1.03467,-0.0907 3.98,-0.41067 4.65867,-1.28933 0.692,-0.89467 0.15733,-3.168 0.10666,-4.17067 -0.092,-1.79867 -0.19866,-3.56933 -0.176,-5.388 0.0467,-3.708 0.32534,-7.436 0.51734,-11.156 0.08,-1.552 0.12666,-2.932 0.568,-4.45466 0.476,-1.64267 0.65466,-3.64934 -1.004,-3.93467 -0.11734,-0.02 -0.24267,-0.032 -0.37867,-0.0333 -2.64267,-0.044 -5.53733,0.22266 -8.21467,0.41866 -1.12933,0.0827 -2.392,-0.0667 -3.264,0.944 -1.11333,1.28934 -0.916,4.12134 -1.10933,5.632 -0.76533,5.98667 -1.14533,11.876 -1.316,17.78533 -0.0373,1.27867 -0.33067,2.83067 -0.032,4.02 0.42933,1.69467 2.08533,1.33467 3.74267,1.412 z"
     id="path25"
     style="stroke-width:1.33333" /><path
     fill="#700000"
     stroke="#000000"
     stroke-miterlimit="10"
     d="m 172.672,353.76132 c 1.956,0.0907 3.90666,0.39067 5.90133,0.21467 1.03467,-0.0907 3.98,-0.41067 4.65867,-1.28933 0.692,-0.89467 0.15733,-3.168 0.10666,-4.17067 -0.092,-1.79867 -0.19866,-3.56933 -0.176,-5.388 0.0467,-3.708 0.32534,-7.436 0.51734,-11.156 0.08,-1.552 0.12666,-2.932 0.568,-4.45466 0.476,-1.64267 0.65466,-3.64934 -1.004,-3.93467 -0.11734,-0.02 -0.24267,-0.032 -0.37867,-0.0333 -2.64267,-0.044 -5.53733,0.22266 -8.21467,0.41866 -1.12933,0.0827 -2.392,-0.0667 -3.264,0.944 -1.11333,1.28934 -0.916,4.12134 -1.10933,5.632 -0.76533,5.98667 -1.14533,11.876 -1.316,17.78533 -0.0373,1.27867 -0.33067,2.83067 -0.032,4.02 0.42933,1.69467 2.08533,1.33467 3.74267,1.412 z"
     id="path26"
     style="stroke-width:1.33333" /><path
     fill="#700000"
     stroke="#000000"
     stroke-miterlimit="10"
     d="m 251.67333,325.05733 c 2.532,0.12133 5.07866,-0.0907 7.64,0.20133 2.22533,0.25333 3.68133,0.216 4.36533,2.7 0.488,1.77067 0.14133,3.724 -0.0733,5.50933 -0.54534,4.524 -0.55334,9.11333 -1.05067,13.648 -0.184,1.676 0.36533,4.552 -0.94,5.83333 -1.11467,1.09467 -3.61067,1.05867 -5.104,1.17067 -2.61867,0.19733 -6.07867,0.36933 -8.64267,-0.212 -0.536,-0.12133 -1.64,-0.42133 -1.044,-1.23333 0.27467,-0.37467 1.30667,-0.216 1.74534,-0.53067 1.572,-1.132 0.91333,-4.37467 0.92533,-6.05733 0.0267,-3.83467 0.17733,-7.74267 0.35867,-11.58 0.10666,-2.23333 0.87466,-4.004 -0.0293,-6.2 -0.29866,-0.72667 -1.104,-1.14267 -1.41333,-1.76133 -1,-2.004 2.02,-1.55334 3.05867,-1.496 0.068,10e-4 0.136,0.005 0.204,0.008 z"
     id="path27"
     style="stroke-width:1.33333" /><path
     fill="#700000"
     stroke="#000000"
     stroke-miterlimit="10"
     d="m 237.39733,323.48933 c 2.81866,0.45733 5.69066,0.26666 8.56266,0.47866 1.11867,0.0827 2.4,-0.0667 3.144,0.944 0.94934,1.28934 0.38934,4.12134 0.38934,5.632 0,5.98667 -0.37334,11.876 -0.95867,17.78533 -0.12667,1.27867 -0.0307,2.83067 -0.48267,4.02 -0.64266,1.69467 -2.25333,1.33334 -3.92,1.41067 -3.74533,0.17333 -7.45333,-0.012 -11.14533,-0.23333 -0.84667,-1.15334 0.70133,-2.02 1.02667,-3.11067 0.67866,-2.276 0.71333,-4.936 0.98533,-7.288 0.60133,-5.20933 0.75467,-10.488 1.30933,-15.65733 0.17067,-1.56667 -2.36666,-3.47467 1.08934,-3.98133 z"
     id="path28"
     style="stroke-width:1.33333" /><path
     fill="#700000"
     stroke="#000000"
     stroke-miterlimit="10"
     d="m 229.16266,353.76132 c -1.968,0.0907 -3.95733,0.39067 -5.92933,0.21467 -1.02267,-0.0907 -3.92667,-0.41067 -4.49467,-1.28933 -0.57733,-0.89467 0.248,-3.168 0.42667,-4.17067 0.32133,-1.79867 0.65466,-3.56933 0.864,-5.388 0.428,-3.708 0.62533,-7.436 0.908,-11.156 0.11866,-1.552 0.248,-2.932 0.001,-4.45466 -0.26533,-1.64267 -0.188,-3.64934 1.50667,-3.93467 0.12,-0.02 0.24666,-0.032 0.38266,-0.0333 2.648,-0.044 5.50934,0.22266 8.16,0.41866 1.11867,0.0827 2.4,-0.0667 3.144,0.944 0.94934,1.28934 0.38934,4.12134 0.38934,5.632 0,5.98667 -0.37334,11.876 -0.95867,17.78533 -0.12667,1.27867 -0.0307,2.83067 -0.48267,4.02 -0.64,1.69467 -2.25066,1.33467 -3.91733,1.412 z"
     id="path29"
     style="stroke-width:1.33333" /><path
     fill="#700000"
     stroke="#000000"
     stroke-miterlimit="10"
     d="m 208.25599,353.76132 c 1.956,0.0907 3.90667,0.39067 5.90134,0.21467 1.03466,-0.0907 3.98,-0.41067 4.65866,-1.28933 0.692,-0.89467 0.15734,-3.168 0.10667,-4.17067 -0.092,-1.79867 -0.19867,-3.56933 -0.176,-5.388 0.0467,-3.708 0.32533,-7.436 0.51733,-11.156 0.08,-1.552 0.12667,-2.932 0.568,-4.45466 0.476,-1.64267 0.65467,-3.64934 -1.004,-3.93467 -0.11733,-0.02 -0.24266,-0.032 -0.37866,-0.0333 -2.64267,-0.044 -5.53734,0.22266 -8.21467,0.41866 -1.12933,0.0827 -2.392,-0.0667 -3.264,0.944 -1.11333,1.28934 -0.916,4.12134 -1.10933,5.632 -0.76534,5.98667 -1.14534,11.876 -1.316,17.78533 -0.0373,1.27867 -0.33067,2.83067 -0.032,4.02 0.42933,1.69467 2.08533,1.33467 3.74266,1.412 z"
     id="path30"
     style="stroke-width:1.33333" /><path
     id="polygon33"
     style="fill:#d30000;stroke:#000000;stroke-miterlimit:10;stroke-opacity:1;fill-opacity:1"
     d="m 206.972,238.374 5.01205,-40.3663 -8.49654,-22.96819 c 0,0 -1.08864,6.07367 -3.19975,8.03849 -1.57402,1.46494 -3.99893,1.92278 -6.14901,1.94988 -6.96683,0.0878 -13.94305,-2.51012 -20.07727,-5.81404 -6.39315,-3.44338 -16.57392,-14.1375 -16.57392,-14.1375 l -12.74072,-20.63617 -8.52758,11.59716 -22.9342,1.76656 90.18094,81.94311 z"
     sodipodi:nodetypes="cccssscccccc"
     transform="scale(1.3333333)" /><path
     d="m 276.58567,399.96666 h -2.65334 c -0.0208,-3.79585 -0.88196,-54.31037 -0.0203,-57.5 3.15867,1.252 1.41368,57.5 2.67368,57.5 z"
     id="path34"
     style="fill:#000000;fill-opacity:1;stroke-width:1.33333"
     sodipodi:nodetypes="cccc" /><path
     fill="#fbb03b"
     stroke="#000000"
     stroke-miterlimit="10"
     d="m 276.42133,357.64399 c 0,3.688 -0.5,5.05067 -1.85467,5.05067 -1.35467,0 -1.85467,-1.36267 -1.85467,-5.05067 0,-3.688 0.5,-5.05067 1.85467,-5.05067 1.35467,0 1.85467,1.364 1.85467,5.05067 z"
     id="path35"
     style="stroke-width:1.33333" /><path
     d="m 120.60867,400 c -0.15435,-8.07603 -0.18698,-13.65943 -0.22634,-20.47334 -0.055,-9.51895 -0.21469,-16.51382 -0.45715,-26.232 -0.94667,-4.12 -1.18614,-7.98567 -0.32747,-12.12567 9.40933,11.74934 5.20046,25.41388 5.15796,40.22567 -0.004,1.22522 0.17818,15.76429 0.0217,18.60534 z"
     id="path36"
     style="fill:#000000;fill-opacity:1;stroke-width:1.33333"
     sodipodi:nodetypes="csccscc" /><path
     fill="#700000"
     stroke="#000000"
     stroke-miterlimit="10"
     d="m 108.71415,294.9697 c 1.04647,1.22798 2.02564,2.47863 2.91621,3.74665 7.10545,10.11076 10.03849,20.37502 9.61676,33.31946 -0.1817,5.58994 -0.73691,26.37206 5.94457,22.15024 2.7491,-1.73785 3.22579,-8.5451 3.28074,-12.30643 0.11441,-7.74959 2.28586,-15.51652 1.98303,-23.16732 -0.3107,-7.84836 -2.58646,-15.028 -6.18349,-21.55094 -3.67779,-6.66843 -9.60442,-11.61502 -14.91641,-16.41613 -14.011261,-12.66282 -31.038561,-26.38007 -48.928382,-28.6118 -6.590633,-0.8222 -10.717538,4.53643 -8.658245,8.34715 2.661602,4.92525 8.501218,3.55619 12.586155,6.24973 7.22659,4.76774 15.564704,6.28402 22.78793,11.28401 6.406687,4.43538 13.961912,10.37237 19.571132,16.95538 z"
     id="path37"
     style="stroke-width:1.22355"
     sodipodi:nodetypes="cccccsccssccc" /><path
     fill="#700000"
     stroke="#000000"
     stroke-miterlimit="10"
     d="m 99.427139,299.2022 c 1.031891,1.13588 1.997611,2.29177 2.875841,3.46369 7.00675,9.34595 11.26329,18.9228 11.4192,30.74605 0.0673,5.10544 0.43406,24.08697 6.6512,20.21084 2.55841,-1.59502 2.71992,-7.81365 2.61112,-11.24797 -0.22544,-7.07819 0.15254,-14.15105 -0.1458,-21.22392 -0.3062,-7.25438 -2.54944,-13.89211 -6.09712,-19.92254 -3.6262,-6.16388 -9.46983,-10.73675 -14.7078,-15.17614 -13.814977,-11.70579 -28.930382,-23.71631 -46.570082,-25.77985 -6.498659,-0.7608 -12.217793,3.57447 -10.187663,7.09822 2.624588,4.55285 10.03288,3.90549 14.060613,6.39747 7.125646,4.40737 13.673004,5.13922 20.794162,9.76147 6.316958,4.09769 13.765628,9.5862 19.296329,15.67268 z"
     id="path38"
     style="stroke-width:1.22355"
     sodipodi:nodetypes="ccssccscccccc" /><path
     d="m 273.06266,330.31333 c -2.228,0 -3.85067,-4.98667 -3.86133,-5.03734 -0.34534,-1.62133 -0.048,-3.116 0.16933,-4.208 0.52267,-2.628 0.76533,-5.19466 1.02133,-7.912 0.076,-0.808 0.152,-1.616 0.236,-2.424 -0.0893,-0.86666 -0.10666,-1.82266 -0.0493,-2.848 0.0867,-1.58933 0.476,-3.112 1.156,-4.532 0.27733,-1.46933 0.57067,-2.92266 0.86667,-4.37466 -0.24267,-3.69867 0.836,-7.89067 1.98,-10.71867 0.0747,-0.51333 0.14533,-1.03067 0.212,-1.55067 -0.74934,-2.40266 -0.42134,-5.38933 0.99466,-9.09733 l 0.04,-0.35733 c -1.012,-3.96134 -0.52533,-9.232 1.228,-13.732 -0.65733,-0.82134 -1.11466,-1.95467 -1.38533,-3.41734 -0.452,-2.44933 -0.244,-4.76933 0.61733,-6.91066 -1.26933,-2.52534 -1.2,-6.00667 -1.092,-7.536 0.0453,-0.64934 0.15334,-1.27867 0.324,-1.884 -1.892,-1.63867 -2.504,-4.88267 -2.208,-7.66534 0.14534,-1.36666 0.584,-3.23866 1.84934,-4.39733 1.16,-1.06267 2.868,-1.58 5.22133,-1.58 1.956,0 3.96,0.35733 5.28533,0.59333 4.18667,0.74534 8.076,2.26534 11.65734,4.536 0,0 1.38133,0.548 1.98133,0.78267 1.06533,0.15333 2.06133,0.33733 2.892,0.536 1.932,0.46133 12.456,3.48533 17.412,7.04 5.94667,0.944 11.23867,2.52 16.16266,4.80667 0.50934,0.23733 4.572,2.19466 5.996,5.05333 0.61067,0.256 1.22134,0.52 1.83067,0.788 0.69067,0.212 1.38133,0.44 2.07067,0.684 1.824,0.64533 4.52533,1.92267 6.9,3.264 3.66666,1.74533 7.85066,4.11467 11.24,8.44267 1.05333,0.836 2.13066,1.84666 3.37066,3.15733 2.03467,2.15067 3.124,4.06 3.3,5.8 2.364,2.15333 3.95867,5.032 4.22667,7.70933 0.14933,1.48667 -0.112,2.856 -0.75867,4.02134 0.504,1.53866 0.93467,3.03733 1.284,4.47466 2.02,2.65734 3.01334,5.84534 2.66534,8.61067 -0.232,1.85067 -1.04534,3.43733 -2.364,4.63067 -0.0373,0.128 -0.0787,0.25333 -0.124,0.37333 -1.924,5.04533 -7.91067,5.06267 -9.91067,5.06267 -0.007,0 -0.0133,0 -0.0213,0 -2.184,0 -4.43734,-0.25867 -6.42534,-0.48667 -0.828,-0.0947 -1.61333,-0.18533 -2.33066,-0.24933 -6.87067,-0.60534 -14.96667,-1.224 -22.90267,-1.224 l -0.632,10e-4 c -9.30666,0.0373 -17.04666,0.52133 -24.56933,2.75467 -2.33733,0.69466 -4.652,1.39866 -6.944,2.096 -4.82133,1.46666 -9.37333,2.852 -13.94267,4.09333 -5,1.36 -9.93733,5.85333 -12.88266,11.72533 l -0.55334,1.104 z"
     id="path43"
     style="stroke-width:1.33333" /><g
     id="g52"
     transform="scale(1.3333333)">
	<path
   fill="#e6e6e6"
   stroke="#757575"
   stroke-miterlimit="10"
   d="m 272.872,202.631 c 3.898,6.44 9.763,19.415 7.285,25.909 -1.567,4.107 -8.45,2.642 -12.482,2.287 -6.172,-0.544 -12.023,-0.947 -17.788,-0.923 -6.845,0.028 -12.955,0.378 -18.848,2.128 -5.369,1.595 -10.571,3.257 -15.631,4.633 -4.612,1.254 -8.447,5.258 -10.609,9.57 -0.025,0.05 -1.353,-2.23 -1.43,-2.59 -0.187,-0.874 -0.039,-1.696 0.131,-2.551 0.744,-3.743 0.762,-7.402 1.385,-11.119 0.935,-5.579 2.352,-10.776 2.91,-16.546 1.126,-11.646 3.093,-21.864 1.557,-33.755 -0.313,-2.425 -3.388,-4.186 -0.6,-4.99 3.981,-1.148 9.829,1.615 13.829,3.212 5.347,2.135 11.077,4.15 16.68,7.033 5.579,2.871 12.156,4.565 18.453,7.411 5.764,2.605 11.522,4.284 15.158,10.291 z"
   id="path44" />
	<path
   fill="#fbb03b"
   stroke="#000000"
   stroke-miterlimit="10"
   d="m 275.84,227.637 c 2.331,-0.278 5.688,-0.545 3.754,1.904 -2.37,3 -7.862,1.711 -11.07,1.372 -0.283,-0.03 -0.566,-0.06 -0.85,-0.085 -6.172,-0.544 -12.023,-0.947 -17.788,-0.923 -6.845,0.028 -12.955,0.378 -18.848,2.128 -5.369,1.595 -10.571,3.257 -15.631,4.633 -4.612,1.254 -8.446,5.258 -10.609,9.569 0.057,-0.114 -0.672,-1.007 -0.716,-1.175 -0.161,-0.628 0.116,-1.129 0.448,-1.697 0.68,-1.162 1.143,-2.536 2.132,-3.431 4.094,-3.706 7.184,-5.133 12.354,-6.944 5.767,-2.021 14.34,-3.209 20.27,-4.518 4.403,-0.972 9.117,-0.569 13.629,-0.569 4.359,0 8.727,0.212 13.074,0.161 2.685,-0.031 5.425,-0.225 8.13,-0.242 0.329,-0.003 0.972,-0.094 1.721,-0.183 z"
   id="path45" />
	<path
   fill="#e6e6e6"
   stroke="#757575"
   stroke-miterlimit="10"
   d="m 206.477,177.241 c -0.208,1.954 0.34,4.356 1.755,4.799 1.081,0.338 2.246,-0.896 3.197,-1.276 2.194,-0.877 4.428,-1.226 6.768,-0.948 1.281,0.152 2.628,0.473 3.942,0.312 0.143,-0.018 2.493,-0.659 2.326,-0.794 -3.214,-2.595 -6.741,-4.149 -10.401,-4.8 -1.738,-0.309 -5.246,-0.957 -6.679,0.356 -0.494,0.453 -0.801,1.345 -0.908,2.351 z"
   id="path46" />
	<path
   fill="#e6e6e6"
   stroke="#757575"
   stroke-miterlimit="10"
   d="m 240.414,186.644 c 1.35,-3.313 -12.063,-7.26 -14.112,-7.75 -4.564,-1.091 -17.882,-1.996 -18.408,5.455 -0.157,2.236 0.125,6.159 2.515,6.214 2.262,0.051 4.29,-2.502 6.507,-3.088 3.88,-1.025 9.306,-1.829 13.643,-0.861 2.139,0.477 8.529,3.283 9.855,0.03 z"
   id="path47" />
	<path
   fill="#e6e6e6"
   stroke="#757575"
   stroke-miterlimit="10"
   d="m 210.03,188.153 c -1.465,1.668 -2.316,3.867 -1.801,6.654 0.803,4.346 3.686,1.983 6.324,1.114 3.784,-1.247 7.779,-2.863 11.937,-3.641 4.179,-0.782 9.097,0.847 13.735,1.175 1.781,0.126 14.058,2.476 14.94,-1.536 0.391,-1.779 -2.733,-3.664 -3.967,-4.238 -7.994,-3.715 -16.216,-4.266 -23.734,-4.333 -3.947,-0.035 -7.918,0.138 -11.496,1.203 -2.086,0.621 -4.372,1.819 -5.938,3.602 z"
   id="path48" />
	<path
   fill="#e6e6e6"
   stroke="#757575"
   stroke-miterlimit="10"
   d="m 258.753,192.627 c -8.339,-2.95 -16.757,-2.546 -24.304,-2.541 -7.089,0.005 -15.73,0.038 -21.435,3.072 -3.798,2.02 -5.907,9.648 -4.689,14.411 2.599,0.799 5.553,-1.131 7.701,-2.438 5.328,-3.243 11.557,-7.046 18.548,-6.441 9.082,0.786 18.769,1.228 29.121,1.588 11.363,0.396 -1.057,-6.276 -4.942,-7.651 z"
   id="path49" />
	<path
   fill="#e6e6e6"
   stroke="#757575"
   stroke-miterlimit="10"
   d="m 260.096,197.871 c -9.232,-1.064 -17.787,-0.409 -25.935,-1.158 -8.728,-0.802 -20.802,1.094 -24.724,9.313 -1.118,2.344 -3.42,7.161 -1.217,9.881 1.378,1.701 3.794,0.764 5.211,0.199 6.885,-2.746 13.96,-6.133 22.008,-8.073 8.092,-1.95 18.92,0.741 28.719,1.72 4.254,0.425 17.264,1.169 10.139,-6.361 -2.179,-2.303 -4.237,-3.966 -7.259,-4.508 -2.33,-0.417 -4.647,-0.748 -6.942,-1.013 z"
   id="path50" />
	<path
   fill="#e6e6e6"
   stroke="#757575"
   stroke-miterlimit="10"
   d="m 258.924,204.668 c -1.117,-0.002 -2.162,-0.02 -3.095,-0.081 -14.201,-0.932 -26.153,1.516 -37.279,4.522 -3.503,0.946 -7.242,1.833 -9.629,4.764 -1.821,2.236 -3.55,7.813 -2.837,11.372 0.563,2.802 2.265,1.9 3.859,1.329 7.602,-2.724 15.638,-5.661 24.508,-7.79 4.485,-1.077 9.331,-1.483 14.109,-2.573 4.289,-0.979 8.67,-0.152 13.576,0.324 4.745,0.461 10.921,1.758 15.325,-0.258 4.28,-1.959 1.346,-7.944 -2.598,-9.821 -4.351,-2.071 -10.908,-1.778 -15.939,-1.788 z"
   id="path51" />
	<path
   fill="#e6e6e6"
   stroke="#757575"
   stroke-miterlimit="10"
   d="m 257.684,214.903 c -2.934,-0.284 -5.631,0.059 -8.477,-0.086 -3.715,-0.19 -7.229,-0.095 -10.738,0.066 -10.792,0.497 -20.513,3.752 -28.455,8.535 -2.513,1.513 -5.371,3.726 -5.584,7.579 -0.441,7.992 5.568,5.503 8.805,3.524 10.447,-6.385 25.322,-6.766 40.529,-6.404 7.307,0.174 18.463,3.417 25.552,0.415 4.809,-2.036 2.412,-8.777 -1.575,-10.987 -4.398,-2.437 -11.426,-2.303 -16.779,-2.463 -1.185,-0.034 -2.293,-0.084 -3.278,-0.179 z"
   id="path52" />
</g><path
     id="path172014"
     style="fill:#000000;fill-opacity:1;fill-rule:nonzero;stroke:none;stroke-width:1.33333"
     d="m 192.50195,191.0293 c -0.39179,0.009 -0.66685,0.14041 -1.02343,0.38086 -0.0872,0.0588 -8.77697,13.2814 -9.78125,14.38281 -1.11428,0.66449 -3.64471,1.66508 -6.59375,2.85351 l -1.75147,5.36206 c 0.82403,-0.32444 1.56201,-0.4999 2.5205,0.44768 0.85355,0.84384 3.24268,5.33232 3.24268,5.33232 0,0 -2.19971,-5.80148 -1.50273,-6.51044 5.69965,-5.79768 10.62695,-12.13825 15.01836,-18.25274 3.23332,9.93195 27.31375,49.0068 63.71094,53.32813 3.58929,0.17563 8.24909,1.02584 11.25781,-1.48243 1,-0.97866 1.46221,-2.60412 2.10351,-3.82812 0.549,-1.18163 1.33657,-2.25044 1.90821,-3.39844 2.03137,4.43482 2.33151,9.65672 3.58008,8.32813 0.31992,-0.34043 1.39674,-1.63132 1.87304,-2.63086 0.2463,-0.51686 0.34787,-1.5691 0.25391,-2.03321 -0.92814,-4.58471 -2.50997,-5.80704 -3.2793,-7.98437 -0.044,-0.124 0.34171,-0.68136 0.62305,-0.69336 0.10116,-0.004 0.47551,0.0935 0.80859,0.17773 l -3.80859,-4.43164 c -0.92794,-0.0275 -1.73533,0.0785 -2.14649,0.39844 -1.98929,1.54666 -0.7379,4.6433 -2.00585,6.80859 -1.28267,2.75115 -1.90607,5.82036 -4.60938,7.54883 -1.46055,0.76727 -3.33084,0.26153 -5.48242,0.0645 -36.99778,-3.92366 -60.23628,-45.11717 -62.91602,-51.97266 -0.23791,-0.60864 0.039,-0.85153 0.15821,-1.19727 -0.14,-0.54934 -1.0656,-0.86385 -1.72071,-0.96484 -0.16377,-0.0252 -0.3069,-0.0361 -0.4375,-0.0332 z"
     sodipodi:nodetypes="cscccscscccccsssccccccccscscc" /><path
     d="m 271.19466,341.26799 c -4.22533,-1.90933 -3.75067,-7.45867 -3.404,-11.51066 0.132,-1.54 0.268,-3.13334 0.104,-3.98667 -1.03467,-5.38667 -9.08667,-6.64133 -15.556,-7.64933 -1.388,-0.216 -2.68667,-0.41867 -3.816,-0.648 -10.812,-2.18534 -22.61067,-3.75334 -37.128,-4.93467 -25.92133,-2.11067 -47.36933,-2.888 -68.11066,-3.64 -19.33467,-0.7 -37.59734,-1.36267 -58.940002,-3.01733 -3.026667,-0.23467 -6.14,-1.18667 -8.302667,-3.41867 -2.098666,-2.16667 -2.723999,-5.316 -3.849333,-8.016 -1.192,-2.86267 -1.72,-5.92267 -3.062666,-8.72933 -0.669334,-1.4 -2.161334,-2.32267 -3.306667,-3.304 -1.249333,-1.06934 -2.125333,-2.06134 -3,-3.49067 -0.532,-0.86933 -1.094667,-1.68667 -1.325333,-2.69733 -0.278667,-1.22267 -0.312,-2.536 -0.794667,-3.736 -0.625333,-1.556 -1.869333,-2.824 -2.930666,-4.112 -0.865334,-1.05067 -1.573334,-2.01334 -1.942667,-3.33467 -0.252,-0.90133 -0.592,-1.916 -0.708,-2.84533 -0.08533,-0.67867 0.112,-1.32667 0.0067,-2.02134 -0.206667,-1.35866 -0.28,-2.548 -0.124,-3.96133 0.142666,-1.28667 0.812,-2.17867 1.088,-3.392 0.257333,-1.12933 -0.8,-1.71467 -0.970667,-2.78667 0.07497,-3.74344 3.593406,-6.20957 5.989333,-8.73466 2.257661,-2.37937 5.474429,-3.86079 8.938429,-4.90746 0.222667,-0.84533 1.374922,-2.01096 2.22619,-2.81293 3.657212,-3.44545 6.71177,-4.41251 10.13785,-5.60806 2.719804,-0.9491 5.419804,-1.53659 8.482471,-1.72593 2.285333,-2.62 6.974666,-4.28 11.277332,-5.644 0.584,-0.18533 1.08133,-0.34133 1.45067,-0.47333 1.79733,-0.636 4.77285,-0.99975 6.78351,-1.25975 3.26463,-1.89728 7.23182,-2.52347 11.49049,-2.8482 2.51068,-1.38705 5.0893,-1.56735 7.87757,-1.74212 0.99001,-0.17341 1.66922,-0.42619 2.05989,-0.79686 4.88885,-3.28166 10.12053,-3.80916 15.39347,-4.01285 3.3191,-2.26408 7.14712,-2.70475 12.46953,-3.7235 4.29696,-5.07891 12.30228,-5.06828 18.81867,-5.81494 2.71821,-0.31145 4.04395,0.56031 4.52262,1.60031 1.45067,3.15466 -2.9275,6.37194 -5.0915,8.89594 -0.24134,0.28 -0.51334,0.55067 -0.81334,0.808 -2.02607,1.27079 -2.85525,3.64963 -3.06174,5.42994 1.16983,1.42757 3.36887,5.15063 3.96683,6.91606 1.66666,1.444 2.712,3.808 3.136,4.92133 0.416,1.092 1.18666,3.46667 0.97333,5.608 3.96,2.416 9.27639,5.10371 9.28439,9.98904 0,0.43467 -0.0413,0.85467 -0.12533,1.25467 2.56666,0.79067 4.79733,1.87333 6.76933,3.27867 0.41333,0.29466 1.43333,0.87066 2.51333,1.48133 2.624,1.484 6.15467,3.47867 8.584,5.54267 5.44267,1.88501 8.6546,2.61843 12.0986,5.07043 0.42,0.29866 2.79394,1.99873 3.88861,2.61607 5.85867,3.30666 8.89335,4.98471 11.42212,7.9895 0.74267,0.38933 1.41467,0.78533 2.03334,1.2 0.456,0.304 1.516,0.868 2.744,1.52266 6.60266,3.516 12.10933,6.70534 12.59733,10.13734 1.80533,0.976 3.42,2.12 4.81467,3.41066 0.24,0.22267 0.536,0.484 0.868,0.77867 3.00933,2.66667 5.98933,5.50667 6.46933,8.35333 0.14533,0.86134 0.0573,1.67467 -0.26267,2.41734 -0.12666,0.29466 -0.28133,0.56666 -0.46533,0.81466 2.11333,1.204 3.75067,2.608 4.95733,4.24 2.56934,3.47467 3.47734,6.85067 2.608,9.40267 3.22134,3.652 3.38134,7.88267 3.53734,11.98533 l 0.0507,1.16667 c 0.20267,4.416 0.48,10.464 -3.092,14.08933 l -0.97866,0.992 z"
     id="path53"
     style="fill:#000000;fill-opacity:1;stroke-width:1.33333"
     sodipodi:nodetypes="cccccccsccccscccccccccscsscccccccccscccccccccccccccccccccccccccccc" /><path
     style="color:#000000;fill:#000000;fill-opacity:0.3;-inkscape-stroke:none"
     d="m 183.026,228.316 c 0,0 3.8567,7.31587 8.92615,12.49301 5.06944,5.17717 11.51823,12.18677 16.04818,15.23189 8.83339,5.93796 20.44173,14.50441 29.13517,16.62257 8.63183,2.10313 16.45745,1.93935 21.91715,0.45624 5.5145,-1.498 8.7955,-6.31117 8.7955,-6.31117 0,0 -4.34177,2.8577 -9.23091,4.18584 -4.94395,1.34299 -12.75542,1.28719 -21.12212,-0.75135 -8.30511,-2.02354 -19.69292,-9.6468 -28.3652,-15.47646 -4.22287,-2.83869 -10.57764,-9.15953 -16.10461,-14.57251 C 187.88387,235.15865 183.026,228.316 183.026,228.316 Z"
     id="path6-2"
     sodipodi:nodetypes="csssscssssc" /><g
     id="g67"
     transform="scale(1.3333333)"
     style="display:inline">
	
	
	
	
	
	<g
   id="g41"
   transform="matrix(1.0005722,0,0,0.89710037,-0.05597974,19.189893)"><path
     fill="#e6e6e6"
     stroke="#757575"
     stroke-miterlimit="10"
     d="m 130.64894,153.72531 c 0.83136,-0.24807 1.54137,-0.58583 2.04279,-1.00748 1.68176,-1.41468 5.75328,-5.50898 0.14741,-5.04176 -2.44993,0.20395 -14.89015,1.88044 -11.63493,4.89132 1.91843,1.77268 6.45628,2.04968 9.44473,1.15792 z"
     id="path54"
     style="stroke-width:0.851646" /><path
     fill="#e6e6e6"
     stroke="#757575"
     stroke-miterlimit="10"
     d="m 130.21171,156.04983 c 1.48821,-1.42118 2.37673,-3.56778 0.89854,-4.5203 -2.24937,-1.45011 -6.36903,-0.66683 -8.88515,-0.30232 -4.19488,0.60753 -9.68943,1.81101 -12.25369,4.57165 2.2243,1.63165 8.28646,1.15503 11.31503,1.26207 2.02774,0.0716 4.63512,0.70155 6.63278,0.30882 0.77519,-0.15332 1.59852,-0.65743 2.29249,-1.31992 z"
     id="path55"
     style="stroke-width:0.851646" /><path
     fill="#e6e6e6"
     stroke="#757575"
     stroke-miterlimit="10"
     d="m 129.34425,160.94477 c 0.0161,-3.42241 -0.56259,-4.52609 -5.45544,-5.22908 -4.13069,-0.59307 -8.57929,-1.25411 -12.78519,-0.82667 -3.68544,0.37464 -8.78788,1.63526 -11.533652,3.51787 -1.745943,1.19698 -0.774192,1.62731 1.280622,2.07428 4.84672,1.05304 10.45861,0.95107 15.5771,1.17527 2.54921,0.11138 4.98812,0.40285 7.53934,0.64369 3.79274,0.35801 7.21041,1.51882 5.37722,-1.35536 z"
     id="path56"
     style="stroke-width:0.851646" /><path
     fill="#e6e6e6"
     stroke="#757575"
     stroke-miterlimit="10"
     d="m 92.984325,160.21429 c -2.245356,0.57426 -10.443563,2.04607 -9.692437,4.53476 0.571618,1.89274 8.961368,1.84501 11.24082,1.95205 4.769502,0.22493 9.568082,0.14103 14.373692,0.17068 4.39644,0.0275 8.81395,0.13742 13.19034,0.63429 2.1932,0.2488 8.45393,1.49857 9.71449,-0.43612 0.88852,-1.36332 -1.01487,-5.05188 -2.99848,-5.65796 -2.04178,-0.62344 -5.29599,-0.41009 -7.42803,-0.6531 -4.62409,-0.52797 -9.08672,-0.20757 -13.61153,-0.81148 -4.9109,-0.65454 -10.031398,-0.95035 -14.788865,0.26688 z"
     id="path57"
     style="stroke-width:0.851646" /><path
     fill="#e6e6e6"
     stroke="#757575"
     stroke-miterlimit="10"
     d="m 78.134,164.583 c -2.218,0.785 -10.317,2.792 -9.577,6.219 0.563,2.608 8.85,2.562 11.1,2.715 4.711,0.321 9.449,0.217 14.196,0.27 4.342,0.048 26.89,0.417 31.264,1.116 2.192,0.351 8.45,2.097 9.71,-0.579 0.888,-1.886 -1.015,-7 -2.998,-7.844 -2.041,-0.868 -5.293,-0.581 -7.424,-0.923 -4.622,-0.743 -27.196,-0.462 -31.665,-1.305 -4.849,-0.913 -9.906,-1.334 -14.606,0.331 z"
     id="path58" /><path
     fill="#e6e6e6"
     stroke="#757575"
     stroke-miterlimit="10"
     d="m 135.826,186.222 c 2.401,0.035 6.252,-0.065 6.247,-3.147 -0.005,-3.268 -4.691,-7.585 -7.551,-8.784 -1.753,-0.735 -3.682,-0.939 -5.573,-1.135 -8.025,-0.829 -16.021,-1.654 -24,-1.775 -5.501,-0.083 -10.981,0.168 -16.441,-0.02 -5.431,-0.187 -10.56,-1.643 -15.88,-2.036 -3.613,-0.267 -6.825,-0.186 -10.288,1.239 -2.433,1.001 -6.353,3.161 -7.905,5.392 -3.592,5.162 5.042,4.305 8.249,4.338 11.777,0.122 23.358,3.06 35.385,3.234 8.307,0.121 16.401,0.336 24.706,1.648 4.278,0.677 8.703,0.982 13.051,1.046 z"
     id="path59" /></g>
	<path
   fill="#e6e6e6"
   stroke="#757575"
   stroke-miterlimit="10"
   d="m 157.662,195.265 c -0.318,-2.64 -8.39,-6.44 -9.976,-7.571 -3.017,-2.151 -6.686,-2.979 -10.329,-3.283 -17.567,-1.464 -34.82,-4.051 -51.99,-5.432 -7.184,-0.578 -14.351,-0.834 -21.477,-1.214 -5.888,-0.314 -12.677,-0.351 -16.963,4.235 -1.746,1.86 -5.592,5.153 -2.966,7.141 1.209,0.915 3.657,1.178 5.122,1.383 15.572,2.181 31.617,1.976 47.655,2.703 10.222,0.463 20.512,0.989 30.869,1.577 5.297,0.301 10.612,0.618 15.945,0.953 3.946,0.248 8.632,2.719 12.524,1.261 1.224,-0.457 1.669,-1.065 1.586,-1.753 z"
   id="path60" />
	<path
   fill="#e6e6e6"
   stroke="#757575"
   stroke-miterlimit="10"
   d="m 175.02154,204.082 c -0.324,-2.659 -9.33506,-6.42429 -10.94206,-7.56729 -3.056,-2.174 -6.93841,-3.18542 -10.62641,-3.50142 -17.783,-1.524 -61.09807,-4.54329 -78.15807,-5.96729 -7.138,-0.595 -7.689,-0.87 -14.708,-1.269 -4.561,-0.259 -9.695,-0.746 -14.153,1.727 -3.538,1.962 -4.489,6.826 -2.614,9.709 1.799,2.765 7.583,2.072 10.889,2.301 20.84,1.441 37.964,1.303 59.649,2.342 10.346,0.495 20.761,1.054 31.245,1.677 5.362,0.318 10.742,0.653 16.14,1.005 3.994,0.261 8.741,2.762 12.679,1.306 1.239,-0.46 0.68454,-1.07 0.59954,-1.762 z"
   id="path61"
   sodipodi:nodetypes="ccccccccccccc" />
	<g
   id="g66">
		<path
   fill="#ffffff"
   stroke="#000000"
   stroke-miterlimit="10"
   d="m 201.105,234.148 c -2.72,-1.71 -5.983,-2.66 -9.031,-3.661 -31.915,-10.478 -63.265,-14.201 -93.209,-18.276 -9.47,-1.289 -15.625,-1.628 -24.833,1.184 -3.224,0.985 -6.239,2.037 -9.555,2.523 -1.087,0.159 -2.401,0.261 -3.445,0.74 -2.297,1.054 -3.673,3.913 -3.537,6.237 0.199,3.408 2.834,4.772 5.986,5.019 33.157,2.603 58.019,1.967 95.188,4.994 9.304,0.758 18.735,1.849 28.022,3.726 5.006,1.012 14.537,1.328 15.705,7.411 0.508,2.646 -1.613,9.078 1.62,10.538 2.439,-2.473 1.971,-7.166 1.851,-10.331 -0.17,-4.397 -0.443,-7.388 -4.762,-10.104 z"
   id="path62" />
		<path
   fill="#fbb03b"
   stroke="#000000"
   stroke-miterlimit="10"
   d="m 199.663,235.788 c -11.215,-9.859 -30.143,-11.955 -43.595,-14.692 -18.922,-3.85 -38.083,-6.283 -57.204,-8.885 -9.47,-1.289 -15.624,-1.628 -24.833,1.185 -3.224,0.985 -6.239,2.037 -9.555,2.523 -1.087,0.159 -2.401,0.261 -3.445,0.74 -2.297,1.054 -3.673,3.913 -3.537,6.237 0.199,3.408 2.834,4.772 5.986,5.019 33.157,2.603 58.019,1.967 95.188,4.994 9.304,0.758 18.735,1.849 28.022,3.726 5.006,1.012 14.537,1.328 15.705,7.411 0.508,2.646 -1.613,9.078 1.621,10.537 2.722,-2.763 2.781,-9.603 0.859,-12.696 -1.439,-2.315 -3.202,-4.331 -5.212,-6.099 z"
   id="path63" />
		<path
   fill="#e6e6e6"
   stroke="#757575"
   stroke-miterlimit="10"
   d="m 188.985,213.366 c -0.35,-2.653 -9.138,-6.572 -10.856,-7.721 -3.259,-2.18 -7.209,-3.045 -11.115,-3.387 -18.983,-1.659 -37.574,-2.401 -55.381,-4.224 -17.647,-1.807 -29.591,-3.223 -46.113,-4.292 -3.573,-0.231 -7.126,-0.445 -10.661,-0.643 -2.647,-0.148 -11.104,-1.672 -11.884,2.478 -0.294,1.565 2.206,5.33 3.182,6.51 1.973,2.385 4.128,3.313 7.278,3.722 23.282,3.023 45.011,3.092 70.996,4.581 10.548,0.605 21.279,1.278 32.197,2.022 5.629,0.384 11.309,0.786 17.04,1.208 4.261,0.314 9.347,2.867 13.587,1.477 1.335,-0.438 1.821,-1.04 1.73,-1.731 z"
   id="path64" />
		<path
   fill="#e6e6e6"
   stroke="#757575"
   stroke-miterlimit="10"
   d="m 198.103,222.799 c -0.353,-2.092 -3.749,-4.8 -5.043,-5.997 -4.125,-3.816 -10.083,-4.976 -15.689,-5.495 -19.705,-1.824 -38.985,-2.718 -57.438,-4.696 -18.27,-1.958 -32.09,-3.517 -49.152,-4.722 -3.688,-0.26 -7.355,-0.503 -11.002,-0.73 -2.731,-0.17 -11.457,-1.769 -12.243,2.407 -0.296,1.575 2.299,5.39 3.311,6.587 2.046,2.42 4.272,3.372 7.523,3.809 24.042,3.234 47.92,3.502 74.833,5.212 10.935,0.695 22.064,1.461 33.394,2.301 5.844,0.433 11.742,0.886 17.695,1.358 2.699,0.214 12.386,4.009 13.713,0.934 0.132,-0.298 0.156,-0.625 0.098,-0.968 z"
   id="path65" />
		<path
   fill="#e6e6e6"
   stroke="#757575"
   stroke-miterlimit="10"
   d="m 202.618,235.799 c 1.433,-1.317 1.053,-3.882 -1.07,-6.753 -2.903,-3.926 -9.37,-5.143 -13.93,-6.081 -19.336,-3.978 -38.443,-4.875 -56.917,-6.39 -18.326,-1.502 -36.112,-2.914 -53.381,-4.239 -5.435,-0.417 -8.163,-0.925 -13.481,-1.105 -2.487,-0.164 -5.735,-0.47 -8.128,0.897 -2.288,1.308 -1.395,3.583 -0.717,5.373 1.084,2.863 2.116,5.932 5.115,7.336 3.485,1.632 8.52,1.866 12.512,2.117 9.357,0.589 18.805,1.094 28.579,1.553 20.842,0.98 42.493,0.035 64.827,2.881 6.191,0.789 12.721,2.04 19.105,2.582 4.233,0.36 7.466,1.392 11.584,2.376 2.91,0.697 4.873,0.399 5.902,-0.547 z"
   id="path66" />
	</g>
</g><g
     id="g68"
     transform="scale(1.3333333)">
	<path
   fill="none"
   stroke="#000000"
   stroke-miterlimit="10"
   d="m 216.826,261.418 c -0.036,1.099 -0.968,2.04 -2.071,2.092 l -8.269,0.388 c -1.103,0.052 -1.975,-0.805 -1.939,-1.904 l 0.509,-15.388 c 0.036,-1.099 0.968,-2.04 2.071,-2.092 l 8.269,-0.388 c 1.103,-0.052 1.975,0.805 1.939,1.904 z"
   id="path67" />
</g><g
     id="g69"
     transform="scale(1.3333333)">
	<path
   fill="none"
   stroke="#000000"
   stroke-miterlimit="10"
   d="m 204.547,261.994 c -0.036,1.099 -0.968,2.04 -2.071,2.092 l -1.539,0.072 c -1.103,0.052 -1.975,-0.805 -1.939,-1.904 l 0.509,-15.388 c 0.036,-1.099 0.968,-2.04 2.071,-2.092 l 1.539,-0.072 c 1.103,-0.052 1.975,0.805 1.939,1.904 z"
   id="path68" />
</g><path
     id="path81"
     style="display:inline;opacity:0.2;fill:#000000;fill-opacity:1;stroke-width:1.33333"
     d="m 193.08008,193.01367 -13.02539,16.38672 c 0,0 -0.0198,0.13472 -0.0254,0.16406 l -0.23047,-1.64062 -0.67578,-0.10938 -2.03125,1.94922 -0.53711,0.56055 0.23047,-0.52344 2.56836,-2.37695 2.34375,-2.94727 -0.29297,-2.87109 c -0.51612,-0.49546 -1.1307,-1.14572 -2.11133,-1.26172 -0.49031,-0.058 -0.89966,-0.0864 -1.29297,-0.0918 -0.39331,-0.005 -0.76998,0.0128 -1.19531,0.0488 -0.16,0.0137 -14.73204,1.29575 -17.5,5.36719 -5.40134,1.03743 -9.53216,2.54846 -12.29883,4.5 -5.16133,0.64106 -11.80002,2.40827 -15.58398,5.04883 -0.38933,0.27209 -0.84641,0.62018 -1.20508,1.03711 -2.45733,0.17324 -4.7058,0.53296 -6.8418,1.08984 -6.75782,1.75955 -12.83206,0.0452 -13.86719,3.48828 -2.00934,0.19183 -3.8804,0.51557 -5.67773,0.98242 -4.336121,1.13175 -9.038302,1.77207 -12.728518,4.49024 -3.062653,0.13898 -5.605541,1.53242 -8.269531,2.33593 -3.083988,0.93173 -9.433206,5.09588 -11.894531,7.69141 -4.787562,2.14951 -7.902997,4.05877 -11.195312,7.38867 -3.430545,3.46972 -4.982748,5.96384 -3.320313,7.31446 -2.149325,0.40534 -1.440025,1.71407 -3.054687,3.2207 -0.659997,0.616 -0.265089,2.15806 -0.482422,3.05273 -1.476526,0.549 -1.943812,2.11285 -1.507813,2.10352 -6.771972,2.1852 -8.887831,5.07763 -6.701172,8.26562 1.377326,2.008 3.146259,2.84493 5.90625,3.54493 -2.331991,1.58929 -3.232644,2.09726 -4.05664,2.83593 -4.171983,3.73333 -11.742055,34.79272 -13.498047,47.75 -1.757325,12.95593 -8.035157,78.15821 -8.035156,78.15821 h 23.980468 c 0,0 14.53603,-67.28118 22.861328,-92.6211 0.44,1.92533 0.957958,4.20057 2.501954,5.14453 1.202659,0.736 3.785868,0.81809 5.144531,1.10743 5.335976,1.14 10.998669,1.01622 16.445312,1.32422 8.102629,0.45862 -5.201273,24.19687 -7.197265,27.51953 -4.88798,8.13463 -10.140812,15.97515 -16.439454,23.06445 -1.095992,1.23333 -8.678834,9.87441 -7.076171,11.20508 1.987992,1.65066 10.758296,-3.96791 12.515625,-5.14258 7.029305,-4.69333 14.312135,-12.34175 22.550784,-14.73242 1.63466,2.50796 -2.294559,7.32728 -3.449222,9.58594 -1.970658,3.8533 -4.085263,7.63339 -5.919922,11.55468 -3.391984,7.252 -6.586928,14.59499 -9.65625,21.98828 h 59.185544 c -1.13866,0 -3.9321,-12.62426 -4.27343,-14.07226 -1.05333,-4.472 -1.85468,-9.00254 -2.41602,-13.5625 -0.588,-4.784 -0.24712,-9.49524 -0.56445,-14.25391 0.052,-0.0467 0.10229,-0.0881 0.15429,-0.13476 2.892,-2.572 5.27271,-2.19532 9.11133,-2.19532 8.8373,0 17.67887,-0.45556 26.40821,-0.0488 1.34262,0.0627 2.7374,0.27717 4.08007,0.20117 1.30933,-0.0747 2.60111,-0.40578 3.89844,0.0195 0.80534,-0.62933 1.7761,-0.86465 2.80273,-0.69531 0.70267,0.116 1.22005,0.52853 1.97071,0.50586 1.59867,-0.0467 1.31106,-2.85704 1.53906,-3.95704 0.208,-0.99996 0.81677,-2.288 0.38477,-3.27734 -0.56133,-1.28266 -0.1181,-2.20861 -1.2461,-1.72461 -1.43867,0.61733 -3.84069,2.8622 -5.44336,3.01953 -2.68799,0.26267 -5.88596,-0.31543 -7.37695,-4.41797 -2.65067,4.57189 -11.28328,5.10033 -13.21875,0.73633 -1.28017,1.89368 -4.29675,3.9993 -5.58398,4.12305 -3.61294,0.34733 -6.32949,-2.12596 -7.52149,-3.7793 -3.34534,2.53271 -9.36781,3.38056 -11.14648,-0.16211 -5.1056,0.6755 -1.20153,2.37092 -1.76953,2.34961 -5.31997,-0.19733 -3.48486,-9.13158 -4.24219,-12.6289 -0.412,-1.90133 -0.74166,-3.94799 -1.09766,-5.89063 -0.288,-1.568 -0.26958,-3.64154 -1.32422,-4.9082 -1.10267,1.908 -0.32617,6.3586 -0.32617,8.55859 0,3.07064 0.53014,8.47248 -2.89648,10.25781 -3.236,1.68666 -2.69827,-2.77686 -3.1836,-5.04882 -1.05867,-4.96133 -0.99712,-10.22815 -2.45312,-15.24414 -0.91867,-3.16397 -1.97966,-6.50902 -2.48633,-9.76368 -0.66533,-4.2693 2.47577,-4.89804 6.12109,-3.83008 2.0093,0.58934 2.28254,1.9589 2.89454,3.82422 0.52132,1.58933 1.96587,5.09296 1.92187,6.73828 0.0533,-2.02132 0.22969,-6.16483 1.42969,-7.82617 0.79067,-1.0933 3.35675,-0.39392 4.60742,-0.89257 2.22797,-0.88667 1.38877,0.47065 3.16211,1.72265 1.58666,1.11867 7.67592,0.23641 9.78125,0.31641 4.03863,0.15333 8.11978,0.7308 12.17578,1.10547 6.79596,0.628 13.67213,1.17259 20.49609,1.80859 2.11066,0.19733 4.83113,1.11694 6.92579,0.59961 2.1893,-0.54134 1.12593,-2.00747 2.80859,-3.13281 0.676,-0.452 2.50972,-0.55013 3.29101,-0.60742 4.08267,-0.30267 8.54829,0.30728 12.62696,0.50195 1.62133,0.0773 6.04095,-0.45581 7.37695,0.63086 1.45733,1.18666 0.37622,2.75278 0.18555,4.16211 8.30396,0.168 16.25144,-0.57835 24.52344,0.32031 5.98663,0.65067 12.50234,1.40586 18.29296,3.14453 1.81867,0.54666 1.97129,1.46256 3.53125,2.22656 2.244,1.1 5.3199,-0.044 7.39453,1.5293 1.19866,0.90933 1.23632,2.21583 2.84961,2.42383 2.484,0.32 4.57188,-2.00705 3.67188,-4.40039 -1.69866,-4.52133 -4.87411,-5.79983 -9.16211,-7.28516 -13.44396,-4.65596 -28.68453,-4.41922 -42.92578,-5.22851 -6.41063,-0.364 -12.73891,-1.90341 -19.13086,-2.69141 -2.93067,-0.36133 -6.20389,-0.46172 -9.08789,-1.03906 -0.70667,-0.14133 -0.99905,0.0204 -1.62305,-0.35157 -0.956,-0.56933 -1.49559,-1.81806 -2.32226,-2.55273 -2.87333,-2.55467 -5.99454,-2.93926 -9.5625,-3.66992 -8.71467,-1.78667 -17.21756,-3.66424 -26.13086,-4.24024 -7.832,-0.50667 -15.7455,-0.89908 -23.32813,-3.09375 -3.53729,-1.024 -4.77957,-2.03678 -2.1289,-4.66211 6.12129,-6.06263 15.66003,-3.1037 23.36132,-2.73437 11.52529,0.552 22.95208,1.97937 34.5,2.2207 -7.23463,-3.78396 -16.3061,-5.30503 -24.41406,-6.5957 -7.99596,-1.27066 -16.04914,-3.37417 -24.0918,-4.1875 -3.05996,-0.30934 -6.16824,-0.23449 -9.18554,-0.92383 -7.23466,-1.652 0.43,-5.32575 4.11133,-5.09375 6.50129,0.40933 13.86245,0.27186 20.20507,1.61719 6.35734,1.348 12.99073,0.70497 19.33203,2.1543 4.83333,1.10529 11.52574,2.4184 16.4004,1.20507 -7.82,-0.92133 -15.40167,-3.78673 -23.12696,-5.30273 -7.95596,-1.56133 -16.01435,-2.51161 -24.07031,-3.37695 -1.816,-0.19466 -13.75156,-2.66071 -9.21289,-5.72071 2.03467,-1.372 6.279,-0.66191 8.59766,-0.53125 2.93863,0.16534 5.86181,0.52189 8.7871,0.83789 6.48134,0.69867 13.01751,1.10179 19.4668,2.06446 4.12933,0.616 10.7583,2.21321 14.6543,0.28125 -2.38,1.18 -6.90241,-0.83686 -9.34375,-1.38086 -4.22266,-0.94 -8.4346,-1.95135 -12.69727,-2.69531 -3.71462,-0.648 -7.80847,-0.53946 -11.00976,-2.83008 -4.66667,-3.34 9.46566,-4.04071 10.73633,-4.22071 4.87196,-0.68934 11.59467,1.31006 16.02929,-0.72461 -6.56529,-2.05996 -13.7826,-2.53825 -20.33594,-4.90625 -2.51862,-0.91063 -2.70294,-1.60093 -0.0391,-2.46093 2.364,-0.76266 4.9575,-1.28002 7.4375,-1.41602 1.33333,-0.0733 2.42261,0.1969 3.69727,0.35156 1.68451,0.20386 2.81527,-0.0522 4.40039,-0.91015 0.14631,-0.0581 0.27443,-0.0979 0.42969,-0.16407 -0.79795,-6.6e-4 -1.60918,-0.0461 -2.41797,-0.084 l -1.14844,-0.14453 c -1.61411,-0.13849 -3.21573,-0.3611 -4.82422,-0.60156 l -11.53711,-1.44336 -0.14648,-0.0137 c -1.54246,-0.0851 -3.08275,-0.14973 -4.70899,-0.23047 -0.88166,-0.044 -1.97721,-0.0352 -2.93554,-0.21485 3.12353,-1.49999 8.76267,-1.06561 11.95507,-0.8457 7.776,0.53535 15.67902,0.35778 23.51368,0.63672 3.44396,0.12234 7.70955,0.19156 10.99218,1.01758 0.94933,0.23881 3.02617,0.47244 3.6875,1.00976 0.30803,0.25084 0.33785,0.59209 0.35743,0.9375 l 0.004,-0.0137 c 0.019,0.46626 0.0324,0.93552 0.29688,1.29297 0.73866,0.99466 3.20514,1.12322 4.36914,1.69922 1.032,0.51067 8.07307,5.18177 9.1264,5.66044 -0.18533,-1.484 -13.94217,-12.57709 -13.04354,-13.83176 0.1687,-0.23533 7.00146,5.9499 7.20592,5.73661 l -1.02735,-1.1836 c 3.75913,3.29593 6.67922,5.65652 10.74638,7.41518 4.2161,-5.02724 8.49442,-16.21954 8.55664,-18.12109 0.0909,-1.24064 -0.42804,-2.5576 -0.95898,-3.13477 -7.9231,-8.61299 -20.18694,-19.58637 -20.24024,-32.79297 z m -19.64649,21.19922 -0.0801,1.83594 -0.36329,-1.4961 z m 0.37696,3.54297 1.86133,2.10937 1.26171,3.63086 1.42188,0.94727 2.20898,5.20898 0.94727,4.10352 6.15625,4.41992 1.94698,4.91099 -0.0527,0.31055 -1.26339,-3.92271 -4.10352,-3.24414 -3.63086,-2.69727 -0.94726,-3.03515 -0.63086,-2.27344 -1.89453,-2.0332 -1.10352,-1.96875 -0.78906,-2.66407 c -0.91198,-1.93455 -1.15249,-2.92354 -1.38867,-3.80273 z m 45.07226,14.53125 c -4.14877,7.40532 -6.34294,13.02823 -8.76758,20.03125 2.96279,1.92637 5.06798,2.88765 5.94922,2.68555 2.27513,-0.52176 7.99939,-15.48807 7.09571,-18.43164 -0.5411,-1.76252 -2.45821,-3.03812 -4.27735,-4.28516 z m 7.56641,5.95703 -7.57422,20.28906 c 2.55836,1.72065 5.22991,2.62177 6.83398,1.10547 1.84637,-1.81585 5.63062,-13.26113 5.04493,-16.15429 -0.28712,-1.41831 -0.86564,-2.70502 -4.30469,-5.24024 z m 8.55664,6.93359 c -0.90378,-0.18839 -5.10352,18.49805 -5.10352,18.49805 5.35385,1.56747 6.36211,-0.34397 7.25,-3.81836 0.60846,-2.38094 3.48973,-11.12065 1.76563,-12.48828 -2.80742,-2.22697 -3.16845,-1.90543 -3.91211,-2.19141 z"
     sodipodi:nodetypes="cccccccccccsccccccccccccsccccscccccccccccsccccccccccscccccccscccsccccccscccccccccccccccccccccccccccsccccccccccccccccscccccccccccccccccccccccccccccccsccccccsccccccccccccccccccccccccccssccccscccsscc" /><path
     opacity="0.2"
     d="m 297.60933,237.84399 c -3.82267,-2.704 -7.93867,-4.376 -12.18934,-5.132 -2.98133,-0.53066 -7.55223,-1.56008 -10.42023,-0.41875 -3.36667,1.34267 -1.41639,2.88166 -0.96971,5.10212 0.95843,2.47701 1.14394,1.8945 2.3659,5.17952 -0.104,3.51067 0.1555,3.81524 -2.15383,6.30057 -2.17467,2.34 -4.43946,6.27654 -5.66079,9.24054 -0.74,1.79734 0.276,4.89734 0.36666,6.84534 0.41867,8.92933 0.0947,19.808 -6.70533,26.352 0.61333,1.74666 1.87867,3.41866 2.50267,5.204 0.42533,1.21733 0.0747,3.08 0.75333,4.02266 0.62,0.86 2.17333,1.39867 2.99467,2.22667 2.04133,2.05733 3.11333,4.652 3.892,7.39467 0.48666,1.716 0.756,3.68266 2.44133,4.664 2.88267,1.676 7.02533,-0.62534 9.48933,-2.13067 13.92934,-8.51333 33.76134,-9.02133 54.03733,-8.53733 6.70134,0.16 13.30934,1.66133 19.99334,2.10533 3.74,0.248 15.844,1.26933 15.868,-4.708 -4.52934,-0.66133 -9.292,-0.16267 -13.86667,-0.52933 -3.844,-0.308 -7.456,-1.30267 -11.23733,-1.86667 -5.01334,-0.748 -9.992,-1.04133 -15.056,-1.048 -4.988,-0.007 -9.95733,0.92267 -14.92933,0.46133 -4.27734,-0.39733 -8.54267,-1.53733 -12.93467,-1.55466 -2.94933,-0.012 -5.868,0.22266 -8.736,-0.41867 -2.02133,-0.452 -3.208,-0.39333 -4.07333,-2.364 -0.67467,-1.536 -0.0107,-2.46933 1.45333,-3.04267 2.80133,-1.09733 6.02,-1.732 8.91733,-2.64133 1.832,-0.57467 3.73467,-0.76267 5.608,-1.116 -6.57333,-0.008 -13.35466,0.168 -19.88666,-0.752 -1.79867,-0.25333 -3.9,-1.004 -5.276,-2.24267 -2.91334,-2.62266 0.96,-3.19466 3.22533,-3.78 2.62667,-0.67866 5.17867,-1.83733 7.65733,-2.804 -2.92666,-0.51466 -6.77866,0.0733 -8.03866,-2.996 -0.68667,-1.67333 -1.52934,-4.116 -0.47067,-5.76933 1.62,-2.53067 5.25733,-4.408 7.77067,-5.84133 -3.21467,0.73333 -5.224,0.46 -6.13334,-2.93467 -0.45466,-1.7 -0.74,-2.74267 0.48134,-3.85467 0.72533,-0.66 1.58266,-1.25733 2.464,-1.664 -2.164,-0.788 -4.924,-3.588 -3.63867,-6.05466 0.95467,-1.832 3.58,-2.32934 5.36533,-2.928 3.84667,-1.288 8.412,-1.52934 12.46934,-1.44667 -2.116,-0.74267 -6.08934,0.096 -7.764,-1.92933 -2.048,-2.476 3.64133,-3.252 4.78533,-3.44267 -0.648,-0.288 -1.40667,-0.568 -2.096,-0.74533 -0.67067,-0.172 -2.14,-0.0333 -2.66533,-0.40534 z"
     id="path82"
     style="stroke-width:1.33333;fill:#000000;fill-opacity:1"
     sodipodi:nodetypes="cccccccccccccccscccccccsccccssscccccccscccccc" /><path
     id="path91"
     style="stroke-width:1.33333;fill:#000000;fill-opacity:1;opacity:0.2"
     d="m 366.73866,348.23199 c -0.148,0.62933 -0.32,1.248 -0.50134,1.86933 -0.092,0.31734 -0.14133,1.084 -0.35733,1.33467 -0.56533,0.652 -1.97867,-0.10533 -2.44667,-0.584 -1.468,-1.50267 -1.38266,-3.40933 -1.40133,-5.452 -0.032,-3.70933 0.39867,-7.37867 0.34933,-11.1 -0.0347,-2.62133 -0.516,-5.20533 -0.836,-7.81333 -0.20933,-1.712 -0.74133,-3.652 -0.62133,-5.27067 -0.28133,0.86134 -0.288,2.08267 -0.28133,2.97867 0.008,1.064 0.068,2.15333 0.0693,3.23467 0.004,2.98666 -0.064,6.13866 -0.49067,9.07733 -0.20133,1.388 -0.27466,2.78266 -0.27466,4.208 0,0.82666 0.10933,5.16266 -1.80534,4.432 -0.54133,-0.20667 -0.45066,-2.03467 -0.488,-2.38534 -0.196,-1.84 -0.16266,-3.712 -0.16266,-5.564 0.032,0.94267 -0.11467,1.88534 -0.0653,2.83334 0.0587,1.124 0.18534,2.22666 0.10134,3.36133 -0.0987,1.33733 -0.17067,3.50267 -1.53467,4.176 -1.37067,0.67733 -0.912,-1.54 -0.912,-2.41333 0,-1.728 -0.112,-3.44667 -0.24267,-5.16934 -0.0733,-0.972 -0.46,-2.168 -0.34133,-3.11866 -0.45333,1.64133 -0.21333,3.61466 -0.26267,5.33333 -0.0173,0.62533 -0.11333,2.21067 -0.90933,2.46 -0.592,0.18533 -1.42267,-0.76 -1.828,-1.09733 -0.376,-0.312 -0.452,-0.46934 -0.59733,-0.964 -0.41734,-1.41867 -0.41334,-3.156 -1.03334,-4.48534 0.25067,0.53867 -0.0987,1.75067 -0.072,2.368 0.0187,0.41867 0.128,0.85334 0.096,1.26267 -1.176,-1.80933 -1.22666,-4.49333 -1.768,-6.544 -0.13066,-0.49333 -0.36,-1.60933 -1.088,-1.164 -0.91066,0.55867 -0.25733,3.51733 -0.22266,4.37733 0.0867,2.112 0.06,4.232 0.06,6.348 0,2.424 0.003,4.83467 0,7.25734 -0.001,1.16533 0.52266,1.45866 1.62933,1.236 0.49067,-0.0987 0.956,-0.26134 1.43333,-0.33867 1.54,-0.24667 3.36267,0.336 4.856,0.656 0.76667,0.164 1.54134,0.256 2.32667,0.20933 0.34133,-0.02 0.76133,-0.208 1.08933,-0.184 0.68267,0.048 0.58934,0.35067 0.712,0.968 0.336,1.68667 0.99867,3.67734 2.804,4.31067 0.508,0.17867 1.06267,0.0933 1.59467,0.17733 0.91333,0.14667 1.8,-0.0173 2.68267,-0.252 0.756,-0.20133 0.82,-0.58 1.40533,-1.048 0.47067,1.56134 0.43733,3.356 0.57333,4.97467 0.18,2.14267 0.26667,4.27867 0.184,6.45067 -0.19466,5.084 -0.116,10.18666 -0.116,15.27466 0,3.692 -0.17066,7.344 -0.39066,11.02934 -0.0707,1.18266 0.016,2.39066 -0.0947,3.564 -0.028,0.30266 -0.0653,0.60933 -0.10267,0.91866 h 6.23867 c -0.0893,-0.65866 -0.17333,-1.312 -0.184,-1.93066 -0.0293,-1.548 -0.024,-3.104 -0.12,-4.65067 -0.0307,-0.50267 -0.33867,-1.076 -0.104,-1.56933 0.224,-0.472 0.828,-0.592 1.284,-0.71734 1.43467,-0.39466 2.84267,-0.164 4.30267,-0.28133 0.98,-0.0787 1.95333,-0.13067 2.93333,-0.12933 0.49733,0 1.39867,-0.005 1.772,-0.372 0.41067,-0.40267 0.256,-0.88667 0.44,-1.36267 0.15867,-0.412 0.53067,-0.5 0.93733,-0.584 0.888,-0.18533 1.80134,-0.076 2.68934,-0.228 0.272,-0.0467 0.47733,-0.172 0.732,-0.25867 0.34933,-0.12 0.73733,-0.12266 1.1,-0.18133 1.54133,-0.25067 2.64,-1.4 3.488,-2.62267 -0.92,0.19334 -1.772,0.59467 -2.70667,0.76134 -0.66933,0.12 -1.34533,0.148 -2.02267,0.18933 -1.76933,0.10933 -3.55066,0.112 -5.32266,0.17867 -1.37867,0.052 -2.756,0.12533 -4.136,0.14133 -1.43734,0.016 -2.66134,-0.13333 -4.02934,-0.596 -0.61066,-0.20667 -1.316,-0.48533 -1.73066,-1.004 -0.48667,-0.60933 -0.664,-1.39067 -0.96,-2.10133 -0.25467,-0.616 -0.268,-1.37867 -0.11867,-2.036 0.25733,-1.132 0.88933,-2.15734 1.48533,-3.108 0.236,-0.37734 0.064,-0.39867 -0.15733,-0.84934 -0.83467,-1.70666 -0.568,-3.86266 -0.61067,-5.704 -0.0493,-2.11066 -0.12533,-4.22133 -0.256,-6.32933 -0.22266,-3.596 -0.61333,-7.236 -0.44933,-10.84 0.0373,-0.816 0.13867,-1.64667 0.236,-2.47067 0.044,-0.368 0.0867,-0.73333 0.12267,-1.096 0.14533,-1.45466 0.77066,-3.05466 0.34533,-4.5 -0.532,0.74534 -1.01867,2.42934 -2.06667,2.596 -1.628,0.25734 -1.5,-1.78133 -1.5,-2.79466 0,-1.876 -0.12266,-3.72534 -0.19733,-5.59867 -0.056,-1.43067 10e-4,-2.876 10e-4,-4.308 0,-1.372 0.39467,-3.58133 -0.24533,-4.80666 -0.204,1.45466 -0.68,2.93333 -0.85867,4.42533 -0.212,1.78133 0.0387,3.54933 -0.20533,5.32933 -0.25867,1.89067 -0.60267,3.67867 -0.696,5.55333 -0.036,0.716 0.0173,1.41467 -0.14933,2.12267 z m -41.81333,8.65333 c 0.63066,0.35867 1.472,-4.58 1.50266,-4.88933 0.28267,-2.86533 0.46534,-5.744 0.38,-8.624 -0.13733,-4.636 -0.48133,-9.21733 -0.93866,-13.83333 -0.0173,-0.17467 -0.41334,-4.652 -1.36267,-2.87867 -0.44667,0.836 -0.568,2.17467 -0.568,3.15467 -0.001,4.64533 0.45333,9.404 -0.44,14.01333 -0.0893,0.45867 -0.928,3.592 -1.67467,3.02 -0.51066,-0.39067 -0.44,-2.096 -0.504,-2.53333 -0.18133,-1.26 -0.11733,-2.536 -0.0493,-3.81067 0.14267,-2.668 0.12267,-5.53467 -0.36667,-8.16533 -0.212,-1.136 -0.272,-2.856 -1.12,-3.75467 -0.18666,0.60534 -0.272,1.30134 -0.27733,1.968 -0.0213,2.40134 -0.15467,4.69733 -0.51867,7.09867 -0.11866,0.78266 -0.224,1.58 -0.264,2.376 -0.08,1.60933 0.0133,3.23066 -0.064,4.83466 -0.0613,1.28134 0.0707,2.572 0.001,3.85334 -0.0933,1.73066 -2.096,1.732 -3.45334,1.804 -1.44133,0.076 -2.22133,0.0413 -2.67466,-1.53067 -0.38934,-1.35333 -0.42534,-2.96267 -0.568,-4.36533 -0.17334,-1.70534 -0.35067,-3.44 -0.0733,-5.14534 0.38534,-2.368 0.97067,-4.536 0.97067,-6.95333 0,-0.89466 0.39733,-2.26533 -0.45467,-2.90533 -0.73866,0.48533 -0.764,1.58933 -0.85466,2.39333 -0.192,1.708 -0.58534,3.42533 -0.71334,5.124 -0.052,0.692 -0.007,1.35333 -0.11066,2.04133 -0.31734,2.09734 -0.916,4.08134 -0.99467,6.22667 -0.044,1.20533 0.38267,4.14267 -1.3,4.14 -1.62267,-0.003 -2.068,-0.97733 -2.49467,-2.53867 -0.91733,-3.352 -0.52666,-7.096 -0.76666,-10.52933 -0.116,-1.65333 -0.04,-3.864 -0.852,-5.38 -0.67867,0.644 -0.67867,1.93734 -0.71334,2.804 -0.0627,1.53067 -0.0187,3.05867 -0.14266,4.58933 -0.17734,2.196 0.11866,4.50267 -0.19334,6.66267 -0.144,0.99467 0.14134,2.88933 -0.95866,3.23333 -1.16934,0.36667 -2.87867,0.26134 -4.10667,0.18134 -1.25067,-0.0827 -1.92667,-1.16667 -2.38267,-2.27467 -1.284,-3.12133 -2.32133,-6.332 -2.94666,-9.66133 -0.38667,-2.06 -0.79467,-4.08933 -1.204,-6.14267 -0.14134,-0.712 -0.24534,-1.56133 -1.19067,-1.19733 -0.472,0.18133 -0.452,0.264 -0.548,0.76267 -0.22667,1.18533 -0.13867,2.53733 -0.136,3.73866 0.004,2.16 -0.13067,4.32267 -0.13067,6.48667 0,1.04266 0.003,2.02533 -0.31066,3.01066 -0.35867,1.12934 -0.21067,2.328 -0.21067,3.50267 0,1.19333 0.0413,2.89733 -0.50667,3.97467 -0.36933,0.72533 -1.12133,1.34933 -0.69866,2.30533 0.29866,0.67467 1.408,0.56933 2.04666,0.644 1.04134,0.12133 2.08267,0.34667 3.13067,0.45467 3.40133,0.35066 6.79867,0.13733 10.176,-0.20134 3.62133,-0.36266 7.308,0.27334 10.932,0.264 0.87867,-0.003 1.67467,0.064 2.52933,0.20534 0.93867,0.15466 1.904,-0.0467 2.856,0.0547 0.98534,0.10534 1.88534,0.528 2.83067,0.84 1.004,0.33334 1.6,1.04934 2.48267,1.552 z m -83.188,-6.3 c -1.812,0.007 -3.83067,0.43067 -4.37734,-1.86266 -0.16933,-0.71467 0.18667,-1.68934 0.18667,-2.43067 -0.007,-3.78933 0.87733,-7.52267 0.912,-11.30933 0.0173,-1.956 0.86267,-9.964 -2.932,-9.35067 -0.81467,0.132 -1.10933,0.296 -1.108,1.17334 0.003,1.368 0.0653,2.73066 0.0653,4.10133 0,1.18667 -0.376,2.19867 -0.456,3.32666 -0.136,1.91867 -0.048,3.844 0.43467,5.70934 0.47333,1.828 -0.32933,4.26 -0.51467,6.16666 -0.12266,1.26 0.12934,3.17467 -1.26533,3.62267 -1.072,0.344 -2.49333,0.34 -3.62667,0.336 -1.116,-0.004 -2.22266,-0.16667 -3.32133,-0.34533 -0.93067,-0.152 -2.044,-0.152 -2.92133,-0.35067 -1.17334,-0.26533 -0.984,-1.96533 -0.904,-2.864 0.15333,-1.73733 0.0667,-3.4 0.0667,-5.144 0,-1.05867 -0.0147,-2.12133 0.18267,-3.14533 0.392,-2.02934 0.53333,-4.11467 0.53333,-6.18267 0,-1.59866 -0.16666,-2.97733 -0.524,-4.51466 -0.18133,-0.77734 -0.268,-2.048 -1.23466,-1.172 -1.128,1.02266 -1.48,2.67333 -1.824,4.088 -0.212,0.87066 -0.0827,1.89466 -0.144,2.792 -0.072,1.05199 -0.18667,2.10133 -0.32934,3.14666 -0.144,1.05867 -0.492,2.31733 -0.44266,3.35867 0.088,1.82533 0.35866,3.72533 0.59333,5.54266 0.14133,1.09067 0.39733,2.39067 -0.18933,3.39867 -0.67734,1.16267 -2.132,0.28533 -3.2,0.22533 -1.99067,-0.112 -4.22934,0.26534 -6.124,-0.476 -0.21867,-2.684 0.668,-5.748 -0.604,-8.25866 -1.95734,1.12533 -1.664,4.768 -1.61734,6.7 0.0387,1.624 0.005,3.39333 0.396,4.95733 0.16267,0.65333 0.24,1.07867 0.82667,1.43467 1.26667,0.76933 3.84533,1.072 5.29067,1.108 2.13733,0.0547 3.91866,-1.55734 6.06133,-1.12667 1.936,0.38933 3.80667,0.776 5.78533,0.98267 2.15467,0.22533 3.76134,-0.33867 5.83334,-0.77067 0.38,-0.0787 0.89733,-0.26533 1.28,-0.25467 0.76266,0.0213 1.67866,0.42 2.47333,0.49867 1.66,0.16267 3.36133,0.116 5.02,0.19867 2.09333,0.10533 4.36267,0.3 6.428,-0.112 0.19733,-0.04 0.544,-0.308 0.69333,-0.31734 0.27334,-0.0187 0.676,0.18267 0.968,0.24934 2.41867,0.55066 5.16667,0.812 7.67067,0.6 1.60667,-0.13467 3.23067,-0.34534 4.83333,-0.53734 0.87334,-0.104 1.05734,-0.072 1.484,-0.84533 0.88,-1.59867 -0.004,-2.864 2.18134,-3.308 1.424,-0.28933 1.44533,-1.94533 1.484,-3.20667 0.007,-0.208 0.0667,-0.568 0.0547,-0.772 -0.12266,-0.036 0.0707,-0.53066 -0.0547,-0.53066 -0.91067,0 -2.04134,-0.192 -2.91867,-0.0613 -0.392,0.96134 -0.32133,1.96667 -0.52,2.97467 -0.28533,1.45067 -2.22667,2.31467 -3.51733,2.788 -1.90934,0.69867 -3.872,0.42933 -5.75334,-0.16 -1.17066,-0.36667 -0.91866,-1.51467 -0.908,-2.58533 0.028,-2.66534 0.196,-5.34667 0.196,-8.01734 -0.001,-2.34533 -0.14266,-4.684 -0.13066,-7.02399 0.008,-1.552 0.54266,-6.22 -1.73067,-6.22267 -1.24533,-10e-4 -0.91867,0.83467 -0.87467,1.75867 0.16267,3.44933 -0.18666,6.97199 -0.66,10.36399 -0.28666,2.052 -0.41866,4.088 -0.51466,6.17734 -0.0573,1.256 0.15333,2.54933 -0.17734,3.784 -0.21466,0.804 -0.428,0.86533 -1.15333,1.03066 -0.87867,0.20134 -1.66267,0.6 -2.588,0.58667 -0.91333,-0.0133 -1.848,0.0733 -2.77333,0.0773 z m 97.18933,0.23867 c -1.31734,-0.0773 -2.63734,-0.0947 -3.98267,0.0853 -1.54,0.20534 -2.83466,0.32934 -4.12933,1.10934 -1.82267,1.096 -2.588,1.39066 -4.72267,1.38933 -4.40266,-10e-4 -11.64933,-1.068 -13.10133,4.47733 -0.82667,3.15734 -0.83067,7.17334 -0.70267,10.476 1.20267,0.45734 1.5,0.804 1.85734,1.75734 0.27733,0.73733 -0.14934,1.168 0.64666,1.584 1.18134,0.61866 2.65467,-0.24267 3.884,0.0893 1.74667,0.47067 1.072,1.596 0.93734,3.06667 -0.36267,3.96933 -0.564,7.96133 -0.84534,11.93866 -0.31066,4.39067 -0.62133,8.78 -0.932,13.17067 0,0 17.95733,0 17.96667,0 0.1,0 0.60933,-8.60667 0.644,-9.10933 0.216,-3.056 0.49066,-6.11334 0.64933,-9.17334 0.124,-2.40666 -0.368,-5.13333 1.58133,-7.028 1.728,-1.67866 4.21867,-2.68 6.51734,-3.288 2.19466,-0.58 4.44533,0.044 6.64933,0.18 8.236,0.508 3.19067,-8.44133 5.92933,-12.94666 0.628,-1.03334 2.41734,-2.11734 1.85334,-3.62534 -0.392,-1.04533 -1.02667,-0.71333 -1.99467,-0.832 -1.648,-0.20133 -3.05067,-1.09066 -4.724,-1.57866 -3.016,-0.87867 -5.75733,-1.43334 -8.87867,-1.44267 -1.73066,-0.005 -3.41466,-0.20133 -5.10266,-0.3 z m -144.95333,3.65733 c -2.14667,0.0453 -3.668,-0.348 -5.82667,-0.812 -0.74266,-0.16 -11.12133,-0.45733 -11.12666,-0.26133 -0.0347,1.12933 0.15066,1.87333 -0.756,2.62133 -0.87067,0.71734 -2.224,0.59334 -3.11734,1.34534 -2.40933,2.02533 -1.85733,7.89466 -1.31733,10.696 0.53333,2.764 4.48667,2.10933 4.804,4.82533 0.204,1.74267 -0.33733,4.14133 -0.39333,5.97067 -0.0653,2.144 -0.13067,4.28666 -0.19734,6.43066 -0.14933,4.89067 -0.3,9.78134 -0.44933,14.672 0,0 17.96533,0 17.96667,0 0.0667,0 0.408,-13.33866 0.43333,-14.15066 0.0947,-3.04 0.20933,-5.292 2.668,-7.39467 1.96267,-1.68 4.424,-2.644 6.46533,-4.21467 0.95733,-0.736 1.67733,-1.76 2.788,-2.21733 1.38267,-0.57067 2.964,-0.19333 4.33867,-10e-4 1.23066,0.172 2.23733,0.272 3.27333,-0.32267 0.76933,-0.44267 2.40933,-1.80133 2.828,-2.552 0.752,-1.35067 -0.984,-3.03067 -1.516,-4.13333 -0.544,-1.12534 -0.61067,-2.044 -0.36267,-3.28934 0.55867,-2.81733 2.71067,-4.78933 4.012,-7.248 0.364,-0.688 0.876,-1.308 0.83067,-2.13066 -0.1,-1.77734 -1.51467,-1.47734 -3.03333,-1.65467 -2.584,-0.30267 -5.38,-0.428 -7.84267,0.56133 -1.32533,0.532 -2.15333,1.364 -3.18133,2.296 -1.192,1.08134 -1.41067,0.87334 -3.08534,0.76934 -2.56666,-0.16 -5.13066,0.0467 -7.69333,0.17866 -0.172,0.005 -0.34266,0.012 -0.50933,0.016 z" /><path
     id="path20"
     style="stroke-width:1.33333;fill:#700000;fill-opacity:1"
     d="M 325.47852 308.29297 C 326.95539 338.38508 325.85988 369.43729 322.3125 399.96484 L 343.04492 399.9668 C 347.01932 400.30615 348.78049 325.8008 345.33203 308.66797 L 325.47852 308.29297 z " /><path
     id="path31"
     style="stroke-width:1.33333;fill:#700000;fill-opacity:1"
     d="M 184.64844 310.58984 L 181.57617 399.96484 L 205.73828 399.9668 C 205.73828 399.9668 206.98688 329.647 207.18945 312.2168 L 184.64844 310.58984 z " /><path
     id="path32"
     style="fill:#000000;fill-opacity:1;stroke-width:1.33333"
     d="m 183.10547,310.47852 -2.4727,89.48632 h 2.51563 l 1.96293,-89.34179 z m 23.52734,1.69726 c -0.16511,15.86355 -0.40043,87.78906 -0.40043,87.78906 h 2.21485 c 0,0 0.35188,-67.38599 0.64457,-87.61132 z"
     sodipodi:nodetypes="cccccccccc" /><path
     id="path33"
     style="opacity:0.2;fill:#000000;fill-opacity:1;stroke-width:1.33333"
     d="m 190.33398,311 -2.08217,88.96484 h 1.2168 l 1.83998,-88.89453 z m 11.39844,0.82227 c 0.20587,14.18378 -1.07045,88.14257 -1.07045,88.14257 h 1.07422 c 0,0 1.60288,-70.63209 1.18569,-88.05664 z"
     sodipodi:nodetypes="cccccccccc" /><g
     id="g86"
     transform="scale(1.3333333)">
	<g
   id="g83">
		<rect
   x="130.326"
   y="267.64899"
   fill="#700000"
   width="32.658001"
   height="8.3389997"
   id="rect82" />
		<path
   d="m 162.984,276.487 h -32.658 c -0.276,0 -0.5,-0.224 -0.5,-0.5 v -8.338 c 0,-0.276 0.224,-0.5 0.5,-0.5 h 32.658 c 0.276,0 0.5,0.224 0.5,0.5 v 8.338 c 0,0.277 -0.224,0.5 -0.5,0.5 z m -32.158,-1 h 31.658 v -7.338 h -31.658 z"
   id="path83"
   style="fill:#000000;fill-opacity:1" />
	</g>
	<g
   id="g85">
		<path
   fill="#cfcfcf"
   d="m 160.18,276.643 c -0.553,0 -5.328,-2.04 -5.488,-4.825 0.16,-2.785 4.935,-4.825 5.488,-4.825 0.562,0 0.422,-0.75 0,-0.75 -4.404,0 -7.402,2.759 -7.402,2.759 0,0 -0.414,0 -0.92,0 h -4.795 v -2.057 c 0.279,-0.223 0.468,-0.552 0.468,-0.937 0,-0.673 -0.545,-1.218 -1.218,-1.218 -0.673,0 -1.218,0.545 -1.218,1.218 0,0.385 0.19,0.713 0.468,0.937 v 2.057 h -4.795 c -0.506,0 -0.92,0 -0.92,0 0,0 -2.998,-2.759 -7.402,-2.759 -0.422,0 -0.562,0.75 0,0.75 0.553,0 5.328,2.04 5.488,4.825 -0.16,2.785 -4.935,4.825 -5.488,4.825 -0.562,0 -0.422,0.75 0,0.75 4.404,0 7.402,-2.759 7.402,-2.759 0,0 0.414,0 0.92,0 h 11.09 c 0.506,0 0.92,0 0.92,0 0,0 2.998,2.759 7.402,2.759 0.422,0 0.562,-0.75 0,-0.75 z"
   id="path84" />
		<path
   d="m 160.195,276.184 h -0.001 c -0.641,-0.064 -4.887,-1.997 -5.051,-4.365 0.164,-2.368 4.41,-4.302 5.038,-4.365 0.314,0 0.507,-0.132 0.614,-0.243 0.14,-0.145 0.217,-0.34 0.217,-0.552 0,-0.482 -0.373,-0.874 -0.831,-0.874 -4.531,0 -7.586,2.763 -7.713,2.88 l -0.018,0.017 c -0.18,-0.086 -0.378,-0.138 -0.591,-0.138 h -4.335 v -1.376 c 0.289,-0.302 0.468,-0.708 0.468,-1.157 0,-0.925 -0.753,-1.678 -1.678,-1.678 -0.925,0 -1.678,0.753 -1.678,1.678 0,0.449 0.18,0.856 0.468,1.158 v 1.376 h -4.335 c -0.212,0 -0.411,0.052 -0.591,0.138 l -0.018,-0.017 c -0.128,-0.117 -3.182,-2.88 -7.713,-2.88 -0.458,0 -0.831,0.392 -0.831,0.874 0,0.46 0.349,0.795 0.816,0.795 h 0.001 c 0.641,0.065 4.887,1.998 5.051,4.366 -0.164,2.368 -4.41,4.301 -5.037,4.365 -0.314,0 -0.507,0.132 -0.614,0.243 -0.14,0.145 -0.217,0.341 -0.217,0.552 0,0.482 0.373,0.874 0.831,0.874 4.531,0 7.586,-2.763 7.713,-2.88 l 0.018,-0.017 c 0.18,0.086 0.378,0.138 0.591,0.138 h 11.09 c 0.212,0 0.411,-0.052 0.591,-0.138 l 0.018,0.017 c 0.128,0.117 3.182,2.88 7.713,2.88 0.458,0 0.831,-0.392 0.831,-0.874 -0.001,-0.463 -0.35,-0.797 -0.817,-0.797 z m -13.881,-10.933 c 0.418,0 0.758,0.34 0.758,0.758 0,0.163 -0.063,0.626 -0.151,0.75 h -1.214 c -0.088,-0.124 -0.151,-0.586 -0.151,-0.75 0,-0.418 0.34,-0.758 0.758,-0.758 z m -0.29,2.407 c 0.094,0.017 0.19,0.029 0.289,0.029 0.099,0 0.195,-0.013 0.29,-0.029 v 0.884 h -0.579 z m -6.635,6.764 c -0.598,0.489 -2.944,2.236 -6.183,2.483 1.605,-0.588 4.954,-2.43 5.191,-4.945 l 0.013,-0.281 h -0.013 c -0.236,-2.515 -3.584,-4.358 -5.197,-4.946 3.243,0.244 5.592,1.994 6.19,2.483 v 5.206 z m 12.47,-4.96 c 0.254,0 0.46,0.206 0.46,0.46 v 3.792 c 0,0.254 -0.206,0.46 -0.46,0.46 h -11.09 c -0.254,0 -0.46,-0.206 -0.46,-0.46 v -3.792 c 0,-0.254 0.206,-0.46 0.46,-0.46 z m 1.379,4.96 v -5.207 c 0.597,-0.488 2.943,-2.236 6.181,-2.482 -1.606,0.588 -4.953,2.43 -5.189,4.945 l -0.013,0.281 h 0.013 c 0.237,2.515 3.587,4.358 5.199,4.946 -3.243,-0.244 -5.592,-1.994 -6.191,-2.483 z"
   id="path85" />
	</g>
</g><path
     opacity="0.2"
     d="m 278.40399,315.46533 c 1.37334,-0.384 2.62534,-1.07334 3.984,-1.47734 1.624,-0.48266 3.40134,-1.13866 5.03867,-1.44666 -0.68267,0.58266 -2.41333,1.516 -2.75733,2.36 -0.71334,1.74666 3.34666,0.83733 4.02533,0.69466 2.86267,-0.60133 5.7,-1.28666 8.54267,-2.03066 2.7,-0.70667 5.34666,-1.49467 7.93333,-2.53734 2.86933,-1.156 5.74933,-2.056 8.868,-2.376 4.31867,-0.44266 8.588,-1.39066 12.94267,-1.39066 1.20933,0 2.42533,-0.11067 3.61333,-0.0773 1.412,0.04 2.80133,0.35867 4.216,0.356 2.78666,-0.007 5.564,-0.10666 8.34933,-0.0693 5.28267,0.072 10.68,0.136 15.90533,0.904 2.552,0.37467 5.08667,1.51333 7.68134,1.16667 1.528,-0.204 3.29066,-0.68134 4.57866,-1.58267 1.58934,-1.11067 3.04,-2.50667 4.524,-3.756 0.604,-0.50933 1.21467,-1.22933 1.94667,-1.51867 0.59467,1.272 -1.05733,2.408 -1.78667,3.212 -0.57866,0.63867 -1.02533,1.14934 -1.30666,1.92667 -0.232,0.64 -0.37067,1.38133 -0.66134,2.01333 -0.884,-0.89866 -1.61333,-0.736 -2.2,0.38667 -0.85866,1.64267 -1.53866,3.74267 -2.65466,5.22 -0.0693,-0.98267 -1.21334,-2.12133 -1.984,-2.62667 -0.98934,-0.648 -1.97734,-0.75333 -3.13867,-0.756 -0.81467,-0.001 -1.764,-0.064 -2.188,0.64 -0.51867,0.86 -0.24267,1.97334 -0.344,2.91867 -0.112,1.04267 -0.68,1.99333 -0.76,3.05733 0.04,-0.54133 -0.176,-0.824 -0.42,-1.25866 -0.3,-0.53467 -0.27467,-0.94134 -0.46933,-1.48667 -0.348,-0.97467 -2.30667,-0.56133 -3.264,-0.6 -1.984,-0.0813 -3.93467,-0.42 -5.92134,-0.42 -1.00266,0 -1.99733,-0.024 -2.988,-0.0693 -0.95866,-0.0427 -0.96,-0.076 -1.09333,-1.04267 -0.052,-0.38 -0.0533,-1.30667 -0.304,-1.584 -0.276,-0.304 -1.09467,-0.27333 -1.45067,-0.32533 -1.94266,-0.28267 -3.828,-0.59067 -5.756,-0.948 -2.56666,-0.47467 -4.89733,-0.96 -7.50399,-1.16934 -1.512,-0.12133 -2.98267,-0.12266 -4.32134,0.60667 -0.74933,0.408 -1.50933,0.86133 -1.73866,1.684 -0.36134,1.296 -0.0813,2.476 -0.0627,3.776 0.0213,1.464 0.0627,2.92667 0.13067,4.38933 0.052,1.12934 0.23466,2.248 0.292,3.36267 0.0467,0.896 -0.172,1.612 -1.196,1.608 -0.372,-10e-4 -0.704,-0.009 -1.04267,-0.14 -0.55867,-0.21733 -0.448,-0.27067 -0.48667,-0.91733 -0.0707,-1.18 -0.17066,-2.35334 -0.27466,-3.52934 -0.132,-1.50533 -0.108,-3.30933 -0.78534,-4.71466 -1.19333,-2.47734 -4.91466,-1.71067 -7.10933,-1.71734 -3.13333,-0.009 -6.27867,0.06 -9.38267,0.52534 -3.20933,0.48 -6.50533,0.684 -9.66666,1.45066 -3.58267,0.86934 -7.14134,1.87467 -10.568,3.24534 -1.52267,0.608 -2.77734,1.06933 -3.824,2.38666 -0.44,0.55334 -0.79734,1.16934 -1.052,1.82934 -0.0733,0.18933 -0.432,1.996 -0.444,1.99866 -1.46667,0.39734 -4.59067,0.77067 -5.21867,-0.95733 -0.31733,-0.87333 -0.26133,-1.72933 -0.26133,-2.688 0,-1.30667 -0.25067,-2.59733 -0.29334,-3.90133 -0.0173,-0.53734 0.056,-0.99067 -0.0987,-1.488 -0.17867,-0.57467 -0.54534,-1.03867 -0.64267,-1.65734 -0.0213,-0.14133 1.95467,0.556 2.10667,0.60134 0.928,0.276 1.81066,0.2 2.74266,-0.06 z"
     id="path92"
     style="stroke-width:1.33333;fill:#000000;fill-opacity:1" /><path
     id="path21"
     style="fill:#000000;fill-opacity:1;stroke-width:1.33333"
     d="m 324.36914,308.27148 c 1.60669,30.39452 -0.06,60.47577 -2.74614,91.69336 h 2.1875 c 2.65888,-31.94811 4.12959,-62.27574 2.07622,-91.66406 z m 20.10547,0.38086 c 2.34665,15.5226 0.7629,89.57826 -0.89263,91.31446 h 2.04102 c 1.68922,-2.18713 3.06641,-70.27384 1.502,-91.26368 z"
     sodipodi:nodetypes="cccccccccc" /><g
     id="g96"
     transform="scale(1.3333333)">
	<path
   fill="#cfcfcf"
   stroke="#000000"
   stroke-miterlimit="10"
   d="m 216.826,261.418 c -0.036,1.099 -0.968,2.04 -2.071,2.092 l -8.269,0.388 c -1.103,0.052 -1.975,-0.805 -1.939,-1.904 l 0.509,-15.388 c 0.036,-1.099 0.968,-2.04 2.071,-2.092 l 8.269,-0.388 c 1.103,-0.052 1.975,0.805 1.939,1.904 z"
   id="path93" />
	<path
   fill="#cfcfcf"
   stroke="#000000"
   stroke-miterlimit="10"
   d="m 204.547,261.994 c -0.036,1.099 -0.968,2.04 -2.071,2.092 l -1.539,0.072 c -1.103,0.052 -1.975,-0.805 -1.939,-1.904 l 0.509,-15.388 c 0.036,-1.099 0.968,-2.04 2.071,-2.092 l 1.539,-0.072 c 1.103,-0.052 1.975,0.805 1.939,1.904 z"
   id="path94" />
	<path
   fill="#cfcfcf"
   stroke="#000000"
   stroke-miterlimit="10"
   d="m 214.156,250.205 c -0.048,1.46 -1.265,2.699 -2.718,2.767 -1.453,0.068 -2.592,-1.06 -2.544,-2.52 0.048,-1.46 1.265,-2.699 2.718,-2.767 1.453,-0.068 2.592,1.06 2.544,2.52 z"
   id="path95" />
	<path
   fill="#cfcfcf"
   stroke="#000000"
   stroke-miterlimit="10"
   d="m 213.894,258.135 c -0.048,1.46 -1.265,2.699 -2.718,2.767 -1.453,0.068 -2.592,-1.06 -2.544,-2.52 0.048,-1.46 1.265,-2.699 2.718,-2.767 1.453,-0.068 2.592,1.06 2.544,2.52 z"
   id="path96" />
</g><path
     fill="#ffffff"
     stroke="#000000"
     stroke-miterlimit="10"
     d="m 384.26399,320.54533 c -0.87333,-7.6 -1.84133,-15.18934 -2.90533,-22.76534 -0.20134,-1.43466 -0.40667,-2.86933 -0.616,-4.30266 -0.10934,-0.74934 -0.0693,-1.60134 -0.424,-2.292 -0.14267,-0.27867 -0.376,-0.62 -0.744,-0.488 -0.41734,0.148 -0.56534,1.24666 -0.68934,1.64933 -0.876,2.85333 -1.524,5.776 -2.01066,8.71867 -1.148,6.93733 -1.424,14.01466 -1.092,21.032 0.0253,0.53466 0.0547,1.06933 0.0867,1.604 0.13867,2.26 0.34267,4.516 0.61334,6.76533 0.796,6.59866 2.152,13.16 4.28533,19.46133 0.91067,2.688 1.96533,5.332 3.224,7.87733 0.564,1.14134 1.168,2.26267 1.824,3.35334 0.19467,0.324 0.59733,1.32533 0.916,1.49333 0.52267,0.27467 1.16267,-0.59067 1.27867,-1.016 0.16933,-0.62267 -0.0893,-1.59467 -0.13467,-2.24667 -0.12267,-1.74933 -0.25067,-3.5 -0.384,-5.24933 -0.27467,-3.58533 -0.572,-7.168 -0.892,-10.75067 -0.68,-7.624 -1.46133,-15.23866 -2.336,-22.84399 z"
     id="path97"
     style="stroke-width:1.33333" /><path
     fill="#fbb03b"
     d="m 387.12799,358.87199 c -0.007,0.0267 -0.016,0.0507 -0.0253,0.0733 -0.0133,0.0293 -0.62267,-0.568 -0.66667,-0.64933 -1.27467,-2.384 -2.41333,-4.932 -3.48,-7.79067 -2.16533,-5.80266 -3.776,-12.23866 -4.78533,-19.12799 -0.32134,-2.18267 -0.57867,-4.416 -0.76667,-6.636 -0.0453,-0.52267 -0.0853,-1.048 -0.12267,-1.57334 -0.516,-7.312 -0.28933,-14.26933 0.67334,-20.676 0.216,-1.432 0.67466,-2.812 1.124,-4.18266 0.22266,-0.67867 0.44533,-1.35734 0.636,-2.04534 0.0853,-0.30533 0.136,-0.608 0.19333,-0.91866 0.032,-0.17334 0.0667,-0.34667 0.11733,-0.516 0.0267,-0.0867 0.18934,-0.364 0.17334,-0.43734 0.0747,0.32267 0.1,0.66134 0.16533,0.988 0.092,0.45867 0.0773,0.94134 0.128,1.40534 0.0587,0.53866 0.184,1.068 0.22667,1.608 0.0587,0.748 0.19333,1.49333 0.0987,2.24533 -0.0947,0.75467 -0.16533,1.51067 -0.20666,2.27067 -0.33867,6.22533 -1.15467,13 -0.652,20.13066 0.036,0.51334 0.076,1.02534 0.12,1.536 0.184,2.172 0.436,4.35334 0.74933,6.48534 0.984,6.71333 2.55067,12.97466 4.652,18.60799 0.36667,0.984 0.67867,1.988 0.95733,3 0.26534,0.96534 0.28267,1.95867 0.50667,2.932 0.168,0.728 0.14133,1.55734 0.18,2.30267 0.016,0.25067 0.0747,0.70533 0.004,0.968 z"
     id="path98"
     style="stroke-width:1.33333" /><circle
     fill="#fbb03b"
     stroke="#000000"
     stroke-miterlimit="10"
     cx="274.56665"
     cy="366.16397"
     r="2.3626666"
     id="circle98"
     style="stroke-width:1.33333" /><path
     d="m 274.05565,242.7931 c 0.42856,0.70227 0.80794,1.49865 1.05,2.67281 0.65223,3.1544 -0.65503,3.36735 -1.87586,6.25146 -1.82532,4.31525 -2.19121,9.7828 -3.05314,14.34731 -1.16121,-2.08193 -1.64272,-3.18607 -1.75516,-5.46218 -0.1155,-2.31874 -0.1658,-4.58306 0.17769,-6.93019 0.24388,-1.67035 3.00538,-4.8124 3.60619,-6.28073 1.21365,-2.95713 0.3057,-5.16612 -0.70821,-8.02006 0.27935,0.28516 0.47713,0.26517 0.81278,0.48892 0.53153,1.24537 1.18064,2.00664 1.74571,2.93266"
     style="fill:#000000;fill-opacity:1;fill-rule:nonzero;stroke:none;stroke-width:1.33333"
     id="path172002" /><path
     id="path26309"
     style="color:#000000;fill:#000000;fill-opacity:0.3;-inkscape-stroke:none"
     d="m 194.62622,202.42456 c 0,0 -3.56131,3.97022 -5.56763,6.37232 -2.00631,2.40208 -5.64147,8.3833 -5.64147,8.3833 l 0.45508,0.46679 c 0,0 4.17045,-5.46396 6.17663,-7.86572 2.00617,-2.40179 5.1438,-6.84106 5.1438,-6.84106 z m 4.67907,7.96796 c 0,0 -3.96502,5.00424 -5.91662,7.69537 -1.9516,2.69112 -5.57031,8.61133 -5.57031,8.61133 l 0.53516,0.44531 c 0,0 4.24969,-5.42447 6.20117,-8.11523 1.95147,-2.6908 5.41467,-8.14654 5.41466,-8.14654 z m 5.88282,7.29578 c 0,0 -3.78983,5.23176 -5.65686,7.95037 -1.86703,2.71859 -5.30273,8.68164 -5.30273,8.68164 l 0.54296,0.42969 c 0,0 4.07839,-5.48879 5.94532,-8.20703 1.8669,-2.71828 5.14318,-8.38592 5.14318,-8.38592 z m 6.02673,8.02068 c 0,0 -3.37358,5.68484 -4.82226,8.41016 -1.44869,2.72532 -4.01953,8.64453 -4.01953,8.64453 l 0.54297,0.35352 c 0,0 3.20762,-5.52893 4.65625,-8.25391 1.4486,-2.72501 4.30664,-8.77344 4.30664,-8.77344 z m 7.68946,6.35352 c 0,0 -3.02252,5.89045 -4.30469,8.70508 -1.28219,2.81463 -3.49609,8.89648 -3.49609,8.89648 l 0.55859,0.32617 c 0,0 2.86825,-5.72671 4.15039,-8.54101 1.28212,-2.8143 3.77344,-9.04102 3.77344,-9.04102 z m 7.23437,7.14844 c 0,0 -2.5496,5.95863 -3.60937,8.79492 -1.05979,2.83632 -2.80664,8.92773 -2.80664,8.92773 l 0.57031,0.28321 c 0,0 2.40899,-5.78708 3.46875,-8.62305 1.05976,-2.83598 3.06836,-9.08984 3.06836,-9.08984 z m 8.86719,5.21289 c 0,0 -1.95671,5.98113 -2.74219,8.8164 -0.78548,2.83529 -1.9707,8.88477 -1.9707,8.88477 l 0.5625,0.23242 c 0,0 1.83756,-5.80371 2.62305,-8.63867 0.78547,-2.83497 2.20507,-9.06055 2.20507,-9.06055 z m 9.77148,4.02344 c 0,0 -1.95866,5.98112 -2.74414,8.8164 -0.78548,2.83529 -1.96875,8.88477 -1.96875,8.88477 l 0.5625,0.23047 c 0,0 1.83756,-5.80177 2.62305,-8.63672 0.78548,-2.83497 2.20313,-9.0625 2.20312,-9.0625 z m 19.42383,1.83984 c 0,0 -1.95671,5.98113 -2.74219,8.81641 -0.78547,2.83528 -1.9707,8.88476 -1.9707,8.88476 l 0.5625,0.23047 c 0,0 1.83756,-5.80371 2.62305,-8.63867 0.78548,-2.83497 2.20508,-9.06055 2.20508,-9.06055 z m -10.11328,0.34375 c 0,0 -1.95866,5.98113 -2.74414,8.81641 -0.78548,2.83528 -1.96875,8.88476 -1.96875,8.88476 l 0.56055,0.23242 c 0,0 1.83951,-5.80371 2.625,-8.63867 0.78548,-2.83497 2.20312,-9.0625 2.20312,-9.0625 z"
     sodipodi:nodetypes="csccscccsccscccsccscccsccscccsccscccsccscccsccscccsccscccsccscccsccscc" /><path
     id="path22"
     style="opacity:0.2;fill:#000000;fill-opacity:1;stroke-width:1.33333"
     d="m 329.84766,308.375 c 0.65551,31.11498 0.84196,59.1185 -2.29493,91.58984 h 1.07813 c 3.07101,-33.4591 2.86338,-61.04315 1.96484,-91.57422 z m 9.91992,0.1875 c 1.66309,14.49644 -0.11516,85.24868 -0.60853,91.4043 h 1.0039 c 0.40286,-5.701 2.2845,-71.51352 0.92885,-91.37891 z"
     sodipodi:nodetypes="cccccccccc" /><g
     id="g89"
     transform="scale(1.3333333)">
	<g
   id="g87">
		<rect
   x="235.73199"
   y="267.64899"
   fill="#700000"
   width="32.658001"
   height="8.3389997"
   id="rect86" />
		<path
   d="m 268.39,276.487 h -32.658 c -0.276,0 -0.5,-0.224 -0.5,-0.5 v -8.338 c 0,-0.276 0.224,-0.5 0.5,-0.5 h 32.658 c 0.276,0 0.5,0.224 0.5,0.5 v 8.338 c 0,0.277 -0.223,0.5 -0.5,0.5 z m -32.158,-1 h 31.658 v -7.338 h -31.658 z"
   id="path86"
   style="fill:#000000;fill-opacity:1" />
	</g>
	<g
   id="g88">
		<path
   fill="#cfcfcf"
   d="m 265.586,276.643 c -0.553,0 -5.328,-2.04 -5.488,-4.825 0.16,-2.785 4.935,-4.825 5.488,-4.825 0.562,0 0.422,-0.75 0,-0.75 -4.404,0 -7.402,2.759 -7.402,2.759 0,0 -0.414,0 -0.92,0 h -4.795 v -2.057 c 0.279,-0.223 0.468,-0.552 0.468,-0.937 0,-0.673 -0.545,-1.218 -1.218,-1.218 -0.673,0 -1.218,0.545 -1.218,1.218 0,0.385 0.19,0.713 0.468,0.937 v 2.057 h -4.795 c -0.506,0 -0.92,0 -0.92,0 0,0 -2.998,-2.759 -7.402,-2.759 -0.422,0 -0.562,0.75 0,0.75 0.553,0 5.328,2.04 5.488,4.825 -0.16,2.785 -4.935,4.825 -5.488,4.825 -0.562,0 -0.422,0.75 0,0.75 4.404,0 7.402,-2.759 7.402,-2.759 0,0 0.414,0 0.92,0 h 11.09 c 0.506,0 0.92,0 0.92,0 0,0 2.998,2.759 7.402,2.759 0.422,0 0.563,-0.75 0,-0.75 z"
   id="path87" />
		<path
   d="M 265.601,276.184 H 265.6 c -0.641,-0.064 -4.887,-1.997 -5.051,-4.365 0.164,-2.368 4.41,-4.302 5.038,-4.365 0.314,0 0.507,-0.132 0.614,-0.243 0.14,-0.145 0.217,-0.34 0.217,-0.552 0,-0.482 -0.373,-0.874 -0.831,-0.874 -4.531,0 -7.586,2.763 -7.713,2.88 l -0.018,0.017 c -0.18,-0.086 -0.378,-0.138 -0.591,-0.138 h -4.335 v -1.376 c 0.289,-0.302 0.468,-0.708 0.468,-1.157 0,-0.925 -0.753,-1.678 -1.678,-1.678 -0.925,0 -1.678,0.753 -1.678,1.678 0,0.449 0.18,0.856 0.468,1.158 v 1.376 h -4.335 c -0.212,0 -0.411,0.052 -0.591,0.138 l -0.018,-0.017 c -0.128,-0.117 -3.182,-2.88 -7.713,-2.88 -0.458,0 -0.831,0.392 -0.831,0.874 0,0.46 0.349,0.795 0.816,0.795 h 0.001 c 0.641,0.065 4.887,1.998 5.051,4.366 -0.164,2.368 -4.41,4.301 -5.037,4.365 -0.314,0 -0.507,0.132 -0.614,0.243 -0.14,0.145 -0.217,0.341 -0.217,0.552 0,0.482 0.373,0.874 0.831,0.874 4.531,0 7.586,-2.763 7.713,-2.88 l 0.018,-0.017 c 0.18,0.086 0.378,0.138 0.591,0.138 h 11.09 c 0.212,0 0.411,-0.052 0.591,-0.138 l 0.018,0.017 c 0.128,0.117 3.182,2.88 7.713,2.88 0.458,0 0.831,-0.392 0.831,-0.874 -0.001,-0.463 -0.35,-0.797 -0.817,-0.797 z M 251.72,265.251 c 0.418,0 0.758,0.34 0.758,0.758 0,0.163 -0.063,0.626 -0.151,0.75 h -1.214 c -0.088,-0.124 -0.151,-0.586 -0.151,-0.75 0,-0.418 0.34,-0.758 0.758,-0.758 z m -0.29,2.407 c 0.094,0.017 0.19,0.029 0.289,0.029 0.099,0 0.195,-0.013 0.29,-0.029 v 0.884 h -0.579 z m -6.635,6.764 c -0.598,0.489 -2.944,2.236 -6.183,2.483 1.605,-0.588 4.954,-2.43 5.191,-4.945 l 0.013,-0.281 h -0.013 c -0.236,-2.515 -3.584,-4.358 -5.197,-4.946 3.243,0.244 5.592,1.994 6.19,2.483 v 5.206 z m 12.47,-4.96 c 0.254,0 0.46,0.206 0.46,0.46 v 3.792 c 0,0.254 -0.206,0.46 -0.46,0.46 h -11.09 c -0.254,0 -0.46,-0.206 -0.46,-0.46 v -3.792 c 0,-0.254 0.206,-0.46 0.46,-0.46 z m 1.379,4.96 v -5.207 c 0.597,-0.488 2.943,-2.236 6.181,-2.482 -1.606,0.588 -4.953,2.43 -5.189,4.945 l -0.013,0.281 h 0.013 c 0.237,2.515 3.587,4.358 5.199,4.946 -3.243,-0.244 -5.592,-1.994 -6.191,-2.483 z"
   id="path88" />
	</g>
</g></g></svg>
