<?xml version="1.0" encoding="UTF-8" standalone="no"?>
<!-- Created with Inkscape (http://www.inkscape.org/) -->

<svg
   width="400"
   height="400"
   viewBox="0 0 400 400"
   version="1.1"
   id="svg1"
   xml:space="preserve"
   inkscape:version="1.3.2 (091e20e, 2023-11-25)"
   sodipodi:docname="TwokMedicalSmockFemale.svg"
   xmlns:inkscape="http://www.inkscape.org/namespaces/inkscape"
   xmlns:sodipodi="http://sodipodi.sourceforge.net/DTD/sodipodi-0.dtd"
   xmlns="http://www.w3.org/2000/svg"
   xmlns:svg="http://www.w3.org/2000/svg"><sodipodi:namedview
     id="namedview1"
     pagecolor="#ffffff"
     bordercolor="#666666"
     borderopacity="1.0"
     inkscape:showpageshadow="2"
     inkscape:pageopacity="0.0"
     inkscape:pagecheckerboard="0"
     inkscape:deskcolor="#d1d1d1"
     inkscape:document-units="px"
     inkscape:zoom="5.19"
     inkscape:cx="371.09827"
     inkscape:cy="339.49904"
     inkscape:window-width="2128"
     inkscape:window-height="1251"
     inkscape:window-x="2352"
     inkscape:window-y="25"
     inkscape:window-maximized="0"
     inkscape:current-layer="layer2"
     showgrid="false" /><defs
     id="defs1" /><g
     inkscape:groupmode="layer"
     id="layer2"
     inkscape:label="Uniform Variant"><path
       d="m 189.5289,250.03788 c 7.67565,14.42171 11.34628,18.98304 21.50555,31.42021 l 19.2958,24.11648 c 0,0 46.26731,57.05273 57.00337,54.78506 0,0 3.72385,-37.51793 3.98324,-49.46674 0.2594,-11.94881 -5.35693,-32.49336 -6.28754,-36.01363 -0.93062,-3.52027 -7.59397,-17.35269 -8.98197,-21.03936 -1.388,-3.688 -2.46652,-4.89002 -2.46652,-4.89002 l 3.4737,-6.21588 -7.15227,-8.69322 -0.18534,0.152 -1.42773,11.55456 -5.22533,2.25866 -3.29681,-0.30705 -3.19919,-0.53961 c -10.87333,-1.412 -26.22352,-10.25348 -35.26085,-16.89081 -10.01145,-8.5184 -21.12014,-21.07249 -28.21979,-32.47002 -2.6815,5.33719 -3.70882,9.08872 -5.8975,15.12353 -3.83482,10.57366 -7.21459,12.19452 -4.85461,20.31441 1.25467,2.11333 1.31694,3.22871 3.26094,5.57804"
       style="fill:#d30000;fill-opacity:1;fill-rule:nonzero;stroke:none;stroke-width:1.33333"
       id="path283406"
       sodipodi:nodetypes="cccczzcccccccccccscc" /><path
       id="path283350"
       style="fill:#f3fdf9;fill-opacity:1;fill-rule:nonzero;stroke:none;stroke-width:1.33333"
       d="m 181.8125,224.46289 c 2.30181,-4.14608 6.46577,-14.29901 6.34579,-16.00934 -0.083,-1.18326 -5.32103,2.34785 -6.53666,2.87026 -2.6004,1.11751 -16.88171,21.60705 -18.26931,22.33258 -8.60812,4.50093 -17.41534,6.87496 -31.68826,15.05845 -16.34719,4.40719 -44.527641,13.60251 -56.769857,17.48963 -12.242216,3.88712 -16.062852,6.10028 -19.564317,8.22657 -13.770242,16.45254 -14.430791,36.59407 -17.400319,53.39054 -2.121333,11.89197 -2.523282,23.3537 -4.052614,37.84834 -1.99309,13.07597 -2.627226,24.69107 -1.937511,34.29686 L 380.83707,400 c -0.72492,-10.35962 -1.17465,-20.88483 -1.11246,-31.32033 0.057,-5.5328 1.21884,-17.81157 -1.0625,-25.49024 -1.22133,-4.10532 -2.2054,-14.43162 -3.42274,-18.53828 -4.57179,-18.13193 -6.3528,-33.3117 -14.73579,-48.03555 -0.46375,-0.81451 -3.38589,-3.83976 -5.80235,-3.40344 -2.3941,0.43229 -5.46297,3.61522 -6.2916,3.19369 -3.16137,-1.60826 -6.22937,-1.87321 -12.15182,-4.08521 -9.04161,-3.37698 -21.07032,-6.97651 -33.66869,-10.82397 -1.58745,-1.7341 -9.49941,-10.33093 -13.24019,-13.50455 -3.74078,-3.17362 -6.0174,-5.35859 -11.55855,-8.38368 0,0 -3.97131,7.37026 -2.58331,11.05692 0.85333,2.26934 3.89479,5.14789 4.06946,7.53189 0.21332,2.88933 6.78381,14.10441 10.30986,33.95579 3.52605,19.85139 -0.91745,64.03248 -4.37712,65.82738 -3.45967,1.7949 -45.2496,-41.7817 -50.11845,-48.93706 -4.86886,-7.15535 -21.98079,-26.57939 -21.98079,-26.57939 -12.73076,-16.40253 -15.24448,-19.89708 -21.75739,-33.52354 -5.39048,-9.47349 -7.45137,-12.90057 -8.0286,-15.81801 -0.67523,-2.33263 -1.64889,-6.22709 -1.51154,-8.65953 z"
       sodipodi:nodetypes="csssczccccczccssssczccczzzcczc" /><path
       d="m 274.79048,241.13357 c 0.43565,0.6979 0.82307,1.49038 1.07702,2.66204 0.68415,3.14763 -0.62089,3.37382 -1.81243,6.27014 -1.78152,4.33352 -2.092,9.8045 -2.90765,14.37751 -1.18224,-2.07007 -1.3343,-2.82866 -1.46979,-5.10351 -0.13895,-2.31746 -0.28034,-4.37679 0.0394,-6.72728 0.22694,-1.67273 2.68398,-5.38756 3.26989,-6.86191 1.18363,-2.96928 0.25335,-5.16895 -0.78942,-8.01247 0.28222,0.28232 0.47978,0.26032 0.81768,0.48065 0.54413,1.23993 1.20091,1.99459 1.77534,2.91483"
       style="fill:#000000;fill-opacity:1;fill-rule:nonzero;stroke:none;stroke-width:1.33333"
       id="path283442"
       sodipodi:nodetypes="cccccccccc" /><path
       id="path283466"
       style="fill:#000000;fill-opacity:1;fill-rule:nonzero;stroke:none;stroke-width:1.33333"
       d="m 192.82638,196.69101 c -0.26366,0.0623 -0.51022,0.19708 -0.71289,0.39843 -2.28293,3.06185 -2.74046,5.14765 -4.69114,8.52884 -1.31953,-0.002 -3.72189,1.01647 -9.03173,4.38758 -5.83372,3.70373 -9.03513,9.18368 -15.48242,20.03125 -0.70802,1.19126 -1.30291,2.35587 -1.86914,3.51172 -4.33623,2.58046 -9.09465,4.2756 -15.18554,6.60547 -6.62892,2.53563 -17.88209,5.86237 -29.89454,9.88281 -12.35612,3.70052 -36.800663,13.25458 -46.025386,14.99609 -3.575641,1.58051 -6.535601,4.89496 -10.011719,5.52149 -5.151132,0.85743 -9.43194,5.06608 -11.296875,8.34179 -3.672417,6.4506 -11.524309,31.12884 -13.017578,41.9375 -2.479491,17.94725 -4.423311,35.17652 -5.503906,49.9668 -0.801087,10.9646 -0.394242,21.00028 -0.740235,29.19922 h 4.427735 c 0.05892,-25.92267 4.111432,-55.47425 7.054687,-78.10156 2.27921,-17.52224 7.717339,-30.27949 10.921875,-37.08008 3.160675,-6.7075 5.860715,-9.09505 8.875,-9.37305 7.801482,-0.71952 14.431317,3.01034 18.16211,6.17578 3.207926,2.72181 10.560956,8.55013 13.099609,11.2168 -3.599329,-6.23419 -6.653102,-11.13967 -12.03125,-15.25 -5.107719,-3.90365 -9.016337,-4.98036 -9.894531,-5.41406 -1.581191,-0.78087 -0.770298,-2.82739 2.193359,-4.12891 0.376941,-0.16554 3.401603,-0.54866 5.236328,-1.07617 8.538943,-2.45508 27.934307,-8.05979 32.318357,-9.65234 7.05597,-2.5632 20.61949,-5.91788 28.88086,-8.82032 7.63432,-2.6821 14.39551,-5.25738 19.64844,-7.83789 -1.99336,6.68195 -2.02316,12.30602 -1.9707,15.92188 0.0448,3.08657 0.97436,11.57514 2.51172,20.43164 0.76867,4.42824 1.68979,8.89336 2.74414,12.70703 1.05432,3.81367 3.19121,11.64306 4.89257,14.39453 2.15026,3.47742 4.61767,5.54297 7.15039,7.11719 2.53275,1.57421 5.38528,2.29103 8.94727,2.51758 4.08711,0.25994 7.13505,-0.42836 10.69591,-1.32636 3.56083,-0.89798 8.37481,-1.80651 17.72596,-0.88253 5.88677,0.58166 10.41637,2.79981 17.69378,8.07063 7.29742,5.2853 13.87345,10.20479 21.39802,16.51912 14.96914,12.56146 23.66635,20.00684 27.72656,24.45312 4.06021,4.44628 8.01507,9.2048 10.8379,14.46875 1.12227,2.14355 3.2959,8.59232 5.02148,14.23828 1.72618,5.64795 1.81767,10.71094 1.81767,10.71094 h 4.12695 c 0,0 -0.3765,-6.17298 -2.1204,-11.87891 -0.7179,-2.3489 -4.14889,-14.00393 -4.43946,-23.05078 -0.18089,-5.63309 0.1032,-9.67215 1.47461,-18.0039 0.69341,-4.21257 1.62076,-10.14797 3.1543,-15.81446 1.53355,-5.66646 3.74235,-11.03048 6.53516,-13.9707 2.81559,-2.96424 6.79364,-4.38758 10.57031,-5.22266 1.88833,-0.41753 3.70366,-0.68743 5.28711,-0.96289 1.58344,-0.27546 2.88239,-0.45143 4.13867,-1.18164 1.48926,-0.86563 2.8683,-1.78493 3.74219,-3.35937 0.87389,-1.57444 1.07103,-3.46196 0.92773,-5.97852 -0.17912,-3.14571 -1.93952,-6.80114 -4.05078,-10.83789 -2.11125,-4.03671 -4.64918,-8.26741 -6.57031,-11.57812 -2.36128,-4.06927 -5.02433,-8.07114 -7.80859,-11.72657 10.2481,2.66977 18.9149,5.27198 29.92382,8.82032 2.16921,0.8464 7.4464,2.38988 8.28516,2.59179 0.35506,0.0855 4.80273,1.42969 4.80273,1.42969 0.13692,-0.15464 -1.9948,-1.90582 -2.8789,-2.76758 2.81596,-2.89463 6.55106,-1.71654 8.01953,-0.85351 1.46847,0.86299 3.70467,4.62843 5.64844,10.63086 1.94374,6.00239 8.53382,31.61557 9.98632,42.20312 1.45255,10.58754 2.91255,20.88874 2.88672,31.49219 0.29671,8.52369 1.09587,31.49584 1.39258,40.01953 h 3.45703 c -0.55333,-4.43195 -0.21868,-22.1546 -0.29492,-26.94531 -0.0762,-4.79076 -0.15008,-5.17316 -0.49219,-15.28516 -0.34212,-10.112 -1.37516,-20.84046 -3.52734,-33.34961 -2.15218,-12.50915 -5.41666,-24.24096 -9.19336,-36.39453 -2.18992,-6.86145 -3.70132,-11.17861 -5.85156,-13.70898 -2.15024,-2.53042 -3.45393,-2.65542 -5.51563,-3.00782 -2.06165,-0.3524 -4.39985,0.28217 -6.18554,1.00196 -1.05251,0.42424 -2.3206,1.35941 -3.22852,2.08398 -12.56054,-5.0536 -27.52978,-9.54109 -41.32812,-12.97265 -0.52753,-0.59797 -1.05687,-1.18564 -1.58594,-1.74805 -4.66449,-4.95842 -8.21838,-8.52497 -12.22656,-12.22461 -1.89343,-1.74766 -3.3363,-2.83158 -5.35104,-4.52013 -2.04392,-1.71302 -4.06511,-3.14898 -6.43583,-4.69556 -1.54555,-1.00827 -6.96191,-3.92065 -9.46616,-5.14798 l -3.59012,-2.33589 c -0.10096,0.80073 -0.0245,1.6878 -0.0841,2.17551 -0.34596,2.83105 -0.28525,3.975 -0.76798,6.80506 -0.37984,2.22689 -0.81603,4.06017 -2.88297,5.08133 -2.06694,1.02115 -3.10945,0.9183 -6.8085,0.50485 -3.6991,-0.41344 -9.70985,-1.84826 -14.15235,-3.48438 -30.02232,-11.05689 -48.12586,-42.61113 -47.9451,-43.02384 l 0.80469,-1.83789 c -0.27333,-0.0907 -1.84865,-0.23556 -2.22461,-0.25 z m 2.35168,8.41075 c 3.4593,4.608 5.25619,6.89527 8.28233,10.23609 5.83941,6.44664 9.05287,9.82189 15.59379,15.14688 7.65572,6.23256 15.72163,11.5973 24.51223,14.81996 4.12128,1.512 8.53782,2.82641 12.89648,3.34375 4.81653,0.49541 6.09051,0.49153 8.6933,-0.0625 2.60279,-0.55403 4.25049,-3.15938 4.6074,-4.77253 0.40189,-1.81645 0.7326,-3.37895 0.65633,-5.22436 l -0.087,-2.10511 5.05531,5.91645 0.25781,4.09375 c 0,0 -2.92892,4.64163 -2.49582,5.77089 0.43309,1.12927 6.03544,14.04479 8.42348,21.82018 2.62428,8.54456 4.44925,17.22108 5.61431,25.87501 1.16922,8.68485 1.53945,15.6768 1.36038,23.93431 -0.1783,8.22205 -1.22653,19.27744 -1.8015,24.87298 -0.3259,3.17155 -0.96008,7.62995 -1.06569,7.73444 -0.12265,0.12153 -2.2028,-2.22794 -3.45703,-3.5 -2.25323,-2.28526 -5.16148,-5.18151 -8.05078,-7.79492 -5.69049,-5.14707 -12.87234,-11.36392 -21.29102,-20.33789 -8.50703,-9.06814 -21.49715,-22.30648 -30.84765,-33.83203 -9.42794,-11.621 -19.47612,-24.22945 -25.61914,-34.28516 -6.20978,-10.16491 -11.3114,-19.96459 -12.45899,-25.35547 -0.59651,-2.80211 -0.50419,-4.47909 -0.33203,-5.36523 0.0861,-0.44307 0.43509,-2.30593 1.49853,-5.46453 1.17179,-3.48046 6.03337,-16.27594 7.35455,-19.09047 0,0 2.30524,3.0991 2.70042,3.62551 z m -14.35384,18.6209 c -0.15054,0.41249 -0.39693,0.93865 -0.53711,1.66015 -0.28035,1.443 -0.32286,3.58205 0.3457,6.72266 1.38257,6.49462 6.60561,16.14582 12.88086,26.41797 6.342,10.38135 16.44056,23.01809 25.88086,34.65429 9.51774,11.73169 22.5534,25.00554 31.00781,34.01758 8.54281,9.10624 15.92716,15.33858 21.49024,20.53321 2.49808,2.33263 13.99003,13.40063 14.96983,13.22982 0.85329,-0.14877 1.50605,-4.52305 2.4579,-11.43295 0.83388,-6.05351 2.37679,-17.14052 2.62305,-25.44336 0.25061,-8.44979 -0.30982,-15.50164 -1.36819,-24.4226 -1.0421,-8.78376 -2.88484,-17.41395 -5.7022,-26.40039 -2.78263,-8.87565 -9.69566,-23.93713 -9.69566,-23.93713 0.12909,-0.27867 1.63696,-5.83757 1.74453,-6.04227 0.63182,-1.21179 -0.12477,-2.98859 -0.93179,-4.34433 2.06932,1.06421 6.67559,5.18135 8.32884,6.81018 1.78961,1.80343 3.40094,2.72407 5.47799,4.64123 3.93273,3.62999 7.39935,7.10982 12.02539,12.02734 4.50499,4.7889 9.14614,11.21002 12.94335,17.75391 1.94532,3.35243 4.45186,7.53762 6.48438,11.42383 2.03252,3.88618 3.51512,7.66053 3.60352,9.21289 0.12422,2.18153 -0.10576,3.22143 -0.43164,3.80859 -0.3259,0.58716 -0.91961,1.06509 -2.25586,1.8418 -0.15649,0.091 -1.31141,0.43774 -2.81446,0.69922 -1.50305,0.26147 -3.40701,0.54259 -5.46679,0.99804 -4.11963,0.91091 -8.95064,2.52528 -12.60547,6.37305 -3.67768,3.87179 -5.88357,9.73045 -7.49414,15.68164 -1.61061,5.95122 -2.55409,12.02861 -3.24219,16.20899 -1.39158,8.45406 -1.71285,12.94657 -1.52539,18.7832 0.0331,1.03224 0.17855,2.25232 0.30273,3.43555 -5.73183,-8.21415 -17.94692,-19.83085 -36.70308,-35.57027 -7.57207,-6.35416 -14.1829,-11.35549 -21.63631,-16.70466 -7.45338,-5.34919 -12.94844,-7.97038 -19.48674,-8.72884 -9.85813,-1.14358 -15.02933,-0.15141 -19.2455,0.91184 -4.21615,1.06325 -6.80303,1.38423 -9.46348,1.21502 -3.1856,-0.20261 -5.20987,-0.75534 -7.08985,-1.92383 -1.87997,-1.16848 -4.06898,-2.82942 -6.09765,-6.16796 -1.12829,-1.85679 -3.20176,-9.39866 -4.20118,-13.01368 -0.9994,-3.61499 -1.90418,-7.9804 -2.6582,-12.32422 -1.50804,-8.6876 -2.41979,-17.50803 -2.45312,-19.80664 -0.0777,-5.35876 -0.13044,-14.02502 6.06054,-24.4414 6.44801,-10.84879 9.31145,-15.60031 14.18946,-18.69727 2.67932,-1.70106 4.94884,-2.70279 4.94884,-2.70279 0,0 -2.45061,6.98901 -4.65982,13.04259 z"
       sodipodi:nodetypes="cccsscscccsssccsssscsssssscsssssssssszcsccssssssssssssccsccssscccssscsssccssssccsssssccccsssccsssccccsssscsssssssscsssssssssssscccsssssssssssssscsssssssssssscss" /><path
       style="fill:#000000;fill-opacity:1;stroke:none;stroke-width:1px;stroke-linecap:butt;stroke-linejoin:miter;stroke-opacity:1"
       d="m 353.13761,281.38153 c 0,0 3.23919,8.06364 4.31234,12.8997 2.24733,10.12739 4.7177,27.18439 7.36584,43.47136 2.53139,15.56896 2.38489,30.60621 3.13541,38.90328 C 369.69776,395.96445 369.5787,400 369.5787,400 h 1.59984 c 0,0 -3.16434,-18.76597 -6.18834,-30.80554 -0.82318,-3.27738 -0.96757,-20.0212 -2.68821,-30.76223 -2.49755,-15.59087 -4.73894,-37.63654 -6.86154,-47.46781 -0.65273,-3.02326 -2.30284,-9.58289 -2.30284,-9.58289 z"
       id="path21859"
       sodipodi:nodetypes="csssccsssc" /><path
       id="path21908"
       style="color:#000000;fill:#000000;fill-opacity:0.3;-inkscape-stroke:none"
       d="m 266.9707,251.30469 c 0,0 -0.7086,5.86103 -0.95919,8.88371 -0.25059,3.02268 -0.50257,9.21059 -0.50257,9.21059 l 0.6908,0.0156 c 0,0 1.13836,-6.03672 1.23483,-9.06312 0.10133,-3.17917 0.22889,-8.99134 0.22889,-8.99134 z m -7.14076,0.66851 c 0,0 -1.5412,7.21199 -2.01483,10.27677 -0.47363,3.06478 -0.91055,9.95071 -0.91055,9.95071 l 0.51387,0.17937 c 0,0 1.42456,-6.70245 1.89819,-9.7669 0.47363,-3.06445 1.23615,-10.54222 1.23615,-10.54222 z m -9.97694,-1.10326 c 0,0 -1.9772,6.5995 -2.67381,9.83159 -0.69662,3.2321 -1.54767,9.97891 -1.54767,9.97891 l 0.74313,0.16917 c 0,0 1.72643,-6.45831 2.42305,-9.69008 0.69662,-3.23177 1.71485,-10.16025 1.71485,-10.16025 z m -9.67612,-3.24885 c 0,0 -2.52645,6.74217 -3.50171,10.02961 -0.97526,3.28743 -2.43345,9.98754 -2.43345,9.98754 l 0.70603,0.15241 c 0,0 2.41364,-6.4172 3.38858,-9.70496 0.97493,-3.28776 2.46103,-10.27236 2.46103,-10.27236 z m -8.07739,-3.76528 c 0,0 -2.80786,5.32712 -4.03377,8.3919 -1.22591,3.06478 -3.53065,9.99678 -3.53065,9.99678 l 0.64547,0.28248 c 0,0 3.13921,-6.907 4.36512,-9.97145 1.22592,-3.06446 3.19931,-8.45706 3.19931,-8.45706 z m -8.51516,-5.45778 c 0,0 -2.86463,5.76482 -4.11821,8.66228 -1.25358,2.89746 -3.11073,8.97324 -3.11073,8.97324 l 0.62203,0.33522 c 0,0 2.68347,-5.56724 3.93738,-8.46503 1.25391,-2.89779 3.25173,-9.08886 3.25173,-9.08886 z m -8.25991,-7.63476 c 0,0 -3.55665,6.0624 -4.85552,9.44419 -1.2465,3.24544 -3.9284,10.12887 -3.9284,10.12887 l 0.60915,0.4524 c 0,0 3.59961,-6.22258 4.96982,-9.41745 1.49155,-3.47781 3.89768,-10.19543 3.89768,-10.19543 z m -6.74762,-7.07484 c 0,0 -3.21481,5.81155 -4.55741,9.39233 -1.19978,3.19988 -4.0781,10.10124 -4.0781,10.10124 l 0.85208,0.42624 c 0,0 3.51443,-6.08583 4.73988,-9.27273 1.41715,-3.68543 3.85579,-10.26263 3.85579,-10.26263 z m -6.71016,-6.71606 c 0,0 -2.98431,5.32032 -4.32649,8.2051 -1.45345,3.12393 -4.07299,10.31543 -4.07299,10.31543 l 0.64389,0.54421 c 0,0 3.79534,-7.36984 4.83299,-9.83137 0.78731,-1.86766 3.60829,-8.77274 3.60829,-8.77274 z m -6.20943,-7.10919 c 0,0 -2.70387,4.79339 -4.05992,7.6351 -1.51947,3.18417 -3.70037,9.88973 -3.70037,9.88973 l 0.69351,0.40126 c 0,0 2.51169,-5.69696 4.04424,-8.78478 1.3812,-2.78289 3.50904,-8.65648 3.50904,-8.65648 z"
       sodipodi:nodetypes="csccscccsccscccsccscccsccscccsccscccsccscccsccscccsccscccsccscccsccscc" /><path
       style="fill:#000000;fill-opacity:1;stroke:none;stroke-width:1px;stroke-linecap:butt;stroke-linejoin:miter;stroke-opacity:1"
       d="m 102.60047,316.31206 c 0,0 9.46636,34.29124 11.82033,48.22695 C 116.77477,378.47472 117.7305,400 117.7305,400 h 8.03782 c 0,0 -2.18323,-23.23364 -5.20094,-37.35225 -3.01771,-14.11861 -17.96691,-46.33569 -17.96691,-46.33569 z"
       id="path24240"
       sodipodi:nodetypes="czcczc" /><path
       style="fill:#000000;fill-opacity:0.3;stroke:none;stroke-width:1px;stroke-linecap:butt;stroke-linejoin:miter;stroke-opacity:1"
       d="m 49.352415,298.6744 c -0.688484,-1.07825 -0.513741,-3.03237 0.04056,-5.08418 0.554302,-2.05181 1.72176,-4.20024 4.434065,-6.0669 2.712305,-1.86666 6.669729,-3.8752 11.367201,-3.51045 4.697472,0.36475 10.943366,4.1646 14.710496,7.18808 3.76713,3.02348 6.240433,6.35629 7.856742,9.86272 1.616309,3.50643 2.129148,7.8232 2.005977,10.36421 -0.123171,2.54101 -0.432545,3.61049 -1.337318,4.51345 -0.904773,0.90296 -1.20656,1.42397 -2.8418,0.83582 -1.63524,-0.58815 -3.677624,-5.51643 -4.179119,-6.18509 -0.501495,-0.66866 -4.427,-6.18115 -7.522412,-8.69257 -3.095412,-2.51142 -9.528389,-5.85076 -10.865707,-6.01793 -1.337318,-0.16717 -4.290868,-0.0496 -6.132654,0.87464 -1.841786,0.92425 -3.734014,3.17918 -4.900218,3.30448 -1.166204,0.1253 -1.94733,-0.30803 -2.635814,-1.38628 z"
       id="path26498"
       sodipodi:nodetypes="zzzzzzzzzzzzzzz" /><path
       style="fill:#000000;fill-opacity:0.2;stroke:none;stroke-width:1px;stroke-linecap:butt;stroke-linejoin:miter;stroke-opacity:1"
       d="m 108.26467,329.88152 c 0,0 15.05454,22.57727 22.05687,38.77343 7.00233,16.19616 8.44915,30.87224 8.44915,30.87224 L 121.98582,400 c 0,0 -6.14658,-41.37116 -6.14658,-43.26241 0,-1.89125 -7.57457,-26.85607 -7.57457,-26.85607 z"
       id="path29511"
       sodipodi:nodetypes="czccsc" /><path
       style="fill:#000000;fill-opacity:0.3;stroke:none;stroke-width:1px;stroke-linecap:butt;stroke-linejoin:miter;stroke-opacity:1"
       d="m 358.86525,305.91017 c 6.9678,22.40896 11.38726,43.03479 15.0412,69.14244 1.16385,8.3158 2.3277,16.63159 3.49155,24.94739 h -6.55257 l -5.42296,-44.30881 z"
       id="path30301"
       sodipodi:nodetypes="cscccc" /><path
       style="fill:#d30000;stroke:none;stroke-width:3;stroke-linecap:butt;stroke-linejoin:miter;stroke-dasharray:none;stroke-opacity:1;fill-opacity:1"
       d="m 66.577174,266.96253 c 0,0 0.0096,-4.89166 2.401631,-6.84692 2.392075,-1.95526 7.814212,-0.59818 11.175338,-1.54143 3.361126,-0.94325 5.030744,-4.3028 8.863198,-3.85356 3.832454,0.44924 7.394312,4.74839 10.789981,8.09248 3.395668,3.34409 6.700338,8.19628 9.248558,11.94605 2.54822,3.74977 6.96086,9.14134 6.1657,10.40463 -0.79516,1.26329 -15.249209,7.29675 -16.955684,6.93641 -1.706475,-0.36034 -7.193869,-9.0492 -11.175337,-13.48747 C 83.109091,274.17445 74.373796,265.5106 74.373796,265.5106 Z"
       id="path5"
       sodipodi:nodetypes="czzzzzzzzcc" /><path
       style="color:#000000;fill:#000000;-inkscape-stroke:none"
       d="m 89.191406,253.23047 c -2.370662,-0.27789 -4.222792,0.69197 -5.630859,1.65625 -1.408067,0.96427 -2.515776,1.88023 -3.8125,2.24414 -1.298354,0.36436 -3.426207,0.31026 -5.5625,0.33398 -2.136293,0.0237 -4.39857,0.0535 -6.15625,1.49024 -1.669829,1.36493 -2.283048,3.38893 -2.617188,5.01562 -0.334139,1.62669 -0.333984,2.98828 -0.333984,2.98828 l -0.0039,1.8086 1.777343,-0.33008 7.00586,-1.30664 c 0.690018,0.6857 8.382075,8.32072 12.117187,12.48437 1.894562,2.11193 4.260922,5.38166 6.357422,8.17188 1.04825,1.39511 2.030158,2.67034 2.898438,3.66406 0.43414,0.49686 0.837405,0.92348 1.242187,1.27735 0.404783,0.35386 0.752465,0.6857 1.482422,0.83984 0.836677,0.17667 1.212846,-0.003 1.84375,-0.15234 0.630906,-0.14977 1.367656,-0.37053 2.197266,-0.64649 1.65923,-0.55192 3.67387,-1.32158 5.66211,-2.14258 1.98825,-0.82099 3.94344,-1.69107 5.48243,-2.45117 0.76949,-0.38005 1.43307,-0.73012 1.96679,-1.05078 0.53372,-0.32066 0.88112,-0.36505 1.38281,-1.16211 0.3941,-0.62611 0.36098,-1.24446 0.2754,-1.7207 -0.0856,-0.47624 -0.24831,-0.89752 -0.45118,-1.33789 -0.40574,-0.88076 -0.99423,-1.82797 -1.67578,-2.84571 -1.3631,-2.03546 -3.10607,-4.32418 -4.34179,-6.14257 -2.54897,-3.75087 -5.87165,-8.66019 -9.4375,-12.17188 -1.655693,-1.63053 -3.409904,-3.56295 -5.302743,-5.19727 -1.89284,-1.63431 -3.952856,-3.03362 -6.365235,-3.3164 z m -0.349609,2.98047 c 1.420071,0.16646 3.058789,1.14187 4.753906,2.60547 1.695117,1.46359 3.418221,3.35285 5.158203,5.0664 3.225474,3.17649 6.513074,7.97008 9.060544,11.71875 1.3125,1.93137 3.05056,4.21338 4.33203,6.12696 0.64074,0.95678 1.16574,1.82899 1.44336,2.43164 0.073,0.15836 0.0802,0.21368 0.11719,0.32226 -0.0936,0.0849 0.0103,-0.0227 -0.14453,0.0703 -0.4156,0.2497 -1.02594,0.57599 -1.75,0.9336 -1.44811,0.71521 -3.36086,1.56695 -5.29883,2.36719 -1.93796,0.80023 -3.90719,1.55087 -5.46289,2.06835 -0.77785,0.25875 -1.456025,0.46003 -1.945311,0.57618 -0.489287,0.11615 -0.939356,0.0482 -0.529297,0.13476 0.303339,0.0641 0.108585,0.0455 -0.128906,-0.16211 -0.237492,-0.20761 -0.574546,-0.55444 -0.957032,-0.99218 -0.764971,-0.87549 -1.725176,-2.11722 -2.759765,-3.49415 -2.069178,-2.75385 -4.436535,-6.0467 -6.523438,-8.37304 -4.061759,-4.52777 -11.158215,-12.59935 -13.152979,-13.1052 -1.994764,-0.50586 -6.903187,1.43047 -6.903187,1.43047 0.03686,-0.26466 0.137544,-1.06421 0.198744,-1.36238 0.268668,-1.30795 0.855925,-2.70655 1.578125,-3.29688 0.634393,-0.51854 2.279898,-0.79014 4.292969,-0.8125 2.013072,-0.0224 4.275122,0.13162 6.337891,-0.44726 2.064399,-0.57934 3.472131,-1.8153 4.697265,-2.6543 1.225135,-0.839 2.12415,-1.32369 3.585938,-1.15234 z"
       id="path4"
       sodipodi:nodetypes="ssssssccccssssscssssssssssssssssssscssssscsssszccssssss" /><path
       id="path283456"
       style="opacity:0.199997;fill:#000000;fill-opacity:1;fill-rule:nonzero;stroke:none;stroke-width:1.33333"
       d="m 193.29446,197.88478 c -4.41675,8.6667 -5.08787,9.74388 -5.6596,10.26865 0,0 -3.58945,1.7716 -9.14707,5.53055 -4.65431,3.14802 -8.51114,8.33512 -9.58637,9.86229 -0.93267,1.3247 -3.10366,9.20493 -4.70194,10.14505 -12.34953,7.26406 -55.89531,21.63005 -67.541416,25.11141 -1.568527,0.46888 -4.97311,-3.6023 -7.45415,-4.1513 -2.351342,-0.5203 -6.89357,2.64931 -8.856288,3.87784 -1.484863,0.92942 -9.176617,0.52053 -10.782186,1.32375 -1.450566,0.72568 -1.85292,8.47705 -2.4955,8.76149 -6.93898,2.88838 -8.744074,3.89601 -11.648065,6.50268 -9.815563,11.62157 -9.894688,21.5028 -14.791016,40.0039 -3.949401,17.25624 -5.045934,35.59439 -6.632812,50.42774 -1.107997,6.5053 -0.996702,8.3986 -2.472656,17.39258 0.117676,5.33142 -0.859205,8.65655 -0.283203,11.86718 l 0.240234,0.47852 c 0.446663,2.49334 1.181016,2.08502 1.541016,4.67969 h 20.166015 c 0.196,-3.43334 -0.167178,-7.00222 -0.08984,-10.29688 0.04199,-1.77404 0.234596,-3.53043 0.482422,-5.28125 0.403551,-0.46383 0.822501,-0.9337 1.263672,-1.41015 7.254661,-7.8348 23.254259,-27.69124 26.951172,-36.40625 3.696913,-8.71504 4.563854,-8.99241 1.890625,-11.34766 -2.673229,-2.35525 -3.582568,-0.75698 -9.455078,2.83594 -3.628346,2.21987 -8.837341,7.53117 -13.671875,13.01367 1.1467,-3.62844 2.455858,-7.18804 3.972656,-10.64844 5.682605,-10.91968 7.045433,-14.963 12.228516,-24.2539 8.061597,-9.83474 8.6798,-10.66472 17.27539,-16.04688 9.830747,-5.05828 15.434247,-7.80901 26.708977,-12.52148 16.215,-6.63763 32.07623,-11.1787 40.02735,-12.48633 15.1153,-2.48585 21.94363,-15.40541 29.971,-14.1986 2.85955,0.4299 6.29359,2.4926 10.41148,5.95765 5.16136,4.34309 13.20736,-5.86065 13.20736,-5.86065 0,0 -4.66506,-2.78816 -12.87791,-10.61809 3.89026,3.12843 8.86386,6.72916 10.88645,6.84992 2.10193,0.12551 10.14762,-19.06171 9.84498,-20.8119 -0.30264,-1.75019 -4.64244,-4.83539 -6.65039,-6.81446 -8.344,-8.22395 -14.3298,-14.06155 -19.35021,-26.79435 z m 30.62937,39.68944 -8.89063,21.37109 c 2.4623,1.75888 4.43488,2.90164 5.29102,2.58399 2.64775,-0.99142 10.23586,-17.36992 7.78125,-20.61914 -0.89949,-1.19069 -2.55845,-1.9373 -4.18164,-3.33594 z m 8.36914,5.57031 -8.46289,21.05469 c 2.26798,1.09221 4.33132,1.48349 6.2168,0.76758 2.97647,-1.13017 7.32992,-14.37837 5.28515,-19.58594 -0.29205,-0.74379 -1.58725,-1.10106 -3.03906,-2.23633 z m 8.02539,4.11914 -5.32422,18.99024 c 4.69236,-0.18256 6.58671,-2.9039 7.54883,-5.69336 0.81581,-2.36531 1.1957,-11.29642 -2.22461,-13.29688 z M 93.066406,354.63672 c -2.813999,-0.0777 -6.610824,5.14721 -11.550781,12.05078 C 76.246337,374.05131 66.666016,400 66.666016,400 h 21.277343 c 0,0 6.295585,-20.76708 6.925782,-28.61719 0.630195,-7.85011 1.61037,-15.80403 -1.251953,-16.6582 -0.178896,-0.0534 -0.363182,-0.0827 -0.550782,-0.0879 z"
       sodipodi:nodetypes="csssssssscccccccccccsssscccccsssccssscccccscccsscccsccsccsscc" /><path
       style="color:#000000;fill:#000000;fill-opacity:0.3;-inkscape-stroke:none"
       d="m 187.1875,233.52539 c 0,0 3.03496,5.22156 7.91016,10.58203 4.87519,5.36048 10.78652,11.48726 15.20117,14.69727 8.60853,6.25948 19.16266,12.45669 27.77212,14.89381 8.54845,2.41984 16.37479,2.54459 21.88544,1.26371 5.56597,-1.29374 9.02213,-5.98272 9.02213,-5.98272 0,0 -4.44414,2.69574 -9.37891,3.84278 -4.99008,1.15987 -12.79419,0.81621 -21.08008,-1.5293 -8.22488,-2.32826 -18.59339,-7.57479 -27.04492,-13.72011 -4.11538,-2.9924 -9.95814,-8.42743 -15.28185,-14.04043 -4.95236,-5.22147 -9.00526,-10.00704 -9.00526,-10.00704 z"
       id="path6"
       sodipodi:nodetypes="csssscssssc" /><path
       style="fill:#000000;fill-opacity:0.2;stroke:none;stroke-width:1px;stroke-linecap:butt;stroke-linejoin:miter;stroke-opacity:1"
       d="m 270.52024,257.41811 c 0,0 7.16417,28.20329 8.09248,38.92101 0.92831,10.71772 2.43197,20.5562 0.96339,28.03467 -1.46858,7.47847 -7.9997,12.89231 -18.78613,4.72062 -10.78643,-8.17169 -27.64932,-22.35067 -23.4104,-18.49711 4.23892,3.85357 25.04817,26.97495 25.04817,26.97495 l 24.59669,22.26119 c 0,0 1.94321,-3.69776 3.727,-13.32786 1.78378,-9.6301 5.12411,-30.42901 4.14258,-46.7946 -0.98152,-16.36559 -3.57324,-25.97211 -7.22543,-35.54913 -3.6522,-9.57702 -10.9546,-21.86243 -10.9546,-21.86243 z"
       id="path7"
       sodipodi:nodetypes="czzzscczzzcc" /><path
       style="fill:#d30000;stroke:none;stroke-width:2.5;stroke-linecap:butt;stroke-linejoin:miter;stroke-dasharray:none;stroke-opacity:1;fill-opacity:1"
       d="m 321.00192,267.2447 c 0,0 4.49511,-3.01252 7.32178,-3.08285 2.82667,-0.0703 5.54235,2.56569 8.47784,3.08285 2.93549,0.51716 5.60276,-0.57617 8.8632,1.7341 3.26044,2.31027 4.33073,7.69308 5.39499,12.42775 1.06426,4.73467 2.31213,11.27168 2.31213,11.27168 l -17.72639,-2.6975 c 0,0 -2.2249,-8.78268 -3.56455,-12.42774 -1.33965,-3.64506 -3.85356,-8.38151 -3.85356,-8.38151 z"
       id="path9"
       sodipodi:nodetypes="czzzzcczcc" /><path
       style="color:#000000;fill:#000000;-inkscape-stroke:none"
       d="m 328.29297,262.91211 c -1.84051,0.0458 -3.71787,0.90968 -5.26367,1.70703 -1.54581,0.79736 -2.72266,1.58789 -2.72266,1.58789 l -2.29102,1.53516 2.66407,0.71093 6.66015,1.7754 c 0.25814,0.49176 2.35602,4.4572 3.56836,7.75585 0.61313,1.66827 1.32105,4.6809 1.94922,7.28907 0.31409,1.30408 0.61226,2.51125 0.89258,3.45898 0.14016,0.47387 0.2717,0.88029 0.42187,1.23438 0.0751,0.17704 0.15225,0.33996 0.26368,0.51562 0.11142,0.17567 0.22733,0.39447 0.6289,0.60547 0.28533,0.14992 0.36462,0.14903 0.55078,0.20313 0.18617,0.0541 0.41009,0.11302 0.67774,0.17968 0.53529,0.13334 1.23899,0.29563 2.0625,0.47461 1.64701,0.35797 3.76861,0.78166 5.89844,1.16211 2.12982,0.38045 4.26182,0.7172 5.95898,0.89453 0.84858,0.0887 1.58368,0.13896 2.19922,0.12891 0.30777,-0.005 0.58316,-0.0224 0.87109,-0.0801 0.28794,-0.0577 0.64342,-0.0839 1.05078,-0.57422 0.71855,-0.86482 0.542,-1.64826 0.43555,-2.49414 -0.10645,-0.84588 -0.33627,-1.80997 -0.61914,-2.8789 -0.56574,-2.13788 -1.3553,-4.67605 -1.87109,-6.97071 -1.05913,-4.71183 -1.99011,-10.40863 -5.89258,-13.17383 -1.83731,-1.30187 -3.63803,-1.68038 -5.20703,-1.76757 -1.569,-0.0872 -2.90631,0.0435 -4.16211,-0.17774 -1.17522,-0.20704 -2.50059,-0.91539 -3.92774,-1.64453 -1.42715,-0.72914 -2.98539,-1.50208 -4.79687,-1.45703 z m 0.0625,2.5 c 1.01519,-0.0252 2.22643,0.48302 3.59765,1.18359 1.37123,0.70057 2.8706,1.57075 4.63086,1.88086 1.67969,0.29592 3.14342,0.13794 4.45704,0.21094 1.31361,0.073 2.47726,0.30216 3.90039,1.31055 2.6184,1.85533 3.82904,6.9261 4.89843,11.68359 0.54847,2.44001 1.35172,5.0093 1.89453,7.06055 0.27141,1.02562 0.47586,1.92632 0.55469,2.55273 0.0199,0.15801 -7.3e-4,0.21894 -0.008,0.33008 -0.4344,0.002 -1.05281,-0.0304 -1.80859,-0.10938 -1.58668,-0.16579 -3.68426,-0.4949 -5.7793,-0.86914 -2.09504,-0.37423 -4.19346,-0.79391 -5.80664,-1.14453 -0.80659,-0.17531 -1.49392,-0.3334 -1.99024,-0.45703 -0.1884,-0.0469 -0.31725,-0.0824 -0.44336,-0.11719 -0.0821,-0.20138 -0.18888,-0.50618 -0.30664,-0.90429 -0.2518,-0.85133 -0.54528,-2.03993 -0.85742,-3.33594 -0.62428,-2.59202 -1.30863,-5.58961 -2.03515,-7.56641 -1.39337,-3.79122 -3.92188,-8.53515 -3.92188,-8.53515 l -0.25586,-0.48242 -4.83008,-1.28711 c 1.39687,-0.71253 3.13977,-1.38018 4.10938,-1.4043 z"
       id="path8" /><path
       style="fill:#000000;fill-opacity:0.2;stroke:none;stroke-width:1px;stroke-linecap:butt;stroke-linejoin:miter;stroke-opacity:1"
       d="m 328.13102,269.26782 -6.84008,-2.02312 3.08286,-2.31214 2.40847,-0.67433 c 0,0 4.08788,2.87836 5.395,5.29865 1.30711,2.42029 2.75485,6.19386 3.66089,9.53758 0.90603,3.34371 2.11945,10.88631 2.11945,10.88631 l -2.69749,-0.38535 c 0,0 -2.60116,-9.05588 -2.6975,-10.30829 -0.0963,-1.25241 -4.4316,-10.01927 -4.4316,-10.01927 z"
       id="path10"
       sodipodi:nodetypes="cccczzccscc" /><path
       style="fill:#000000;fill-opacity:0.2;stroke:none;stroke-width:1px;stroke-linecap:butt;stroke-linejoin:miter;stroke-opacity:1"
       d="m 168.78613,256.6474 c 0,0 6.16345,31.41792 9.24855,35.83815 3.0851,4.42023 4.86669,6.47524 8.28517,6.93642 3.41848,0.46118 4.80376,-0.27487 5.97302,-2.2158 1.16926,-1.94094 -2.4009,-4.83517 -5.39498,-8.18882 -2.99409,-3.35366 -6.44031,-9.96669 -10.50097,-16.37766 -4.06066,-6.41097 -7.44343,-15.88505 -7.61079,-15.99229 z"
       id="path11"
       sodipodi:nodetypes="czzzzzc" /><path
       style="fill:#000000;fill-opacity:0.2;stroke:none;stroke-width:1px;stroke-linecap:butt;stroke-linejoin:miter;stroke-opacity:1"
       d="m 181.11754,312.13873 24.27745,-3.08285 14.25819,1.54142 24.66281,18.88247 34.29673,28.90173 c 0,0 -8.80113,-3.94777 -16.18498,-8.8632 -7.38385,-4.91543 -19.55535,-14.72819 -28.51637,-20.42389 -8.96102,-5.6957 -17.69275,-9.05139 -25.43353,-11.56069 -7.74078,-2.5093 -27.3603,-5.39499 -27.3603,-5.39499 z"
       id="path12"
       sodipodi:nodetypes="ccccczzzc" /><g
       id="g11"
       transform="matrix(0.39495251,-0.03499173,0.09049868,0.39003474,226.36965,303.04337)"><path
         id="path5-1"
         style="fill:#026106;fill-opacity:1;stroke:#000000;stroke-width:0.8;stroke-linecap:butt;stroke-linejoin:miter;stroke-dasharray:none;stroke-opacity:1"
         d="m 242.40039,107.95508 v 0.0176 c -2.54895,0.19819 -6.95195,7.6191 -6.96875,11.58789 -0.0155,3.67481 1.64842,8.11098 4.21484,16.15429 -3.22734,1.0978 -5.58674,1.97623 -13.85156,3.31446 -5.20467,0.84274 -14.98796,1.836 -15.74414,1.50586 0.39773,-1.24352 3.35775,-5.29576 5.88867,-7.65821 1.50754,-1.40718 5.60404,-1.451 6.34375,-2.5 2.60419,-3.69304 3.91541,-7.70952 2.08399,-9.4082 -1.22362,-1.13493 -7.02522,1.03299 -9.56641,3.75781 -1.30257,1.3967 -1.34211,3.46773 -2.23828,5.08985 -2.11931,3.83607 -7.20877,10.22315 -7.36914,11.28906 -0.0571,0.37956 -4.26745,0.56766 -4.17969,1.38281 0.12575,1.16816 4.01939,0.94673 4.23047,1.45508 0.46979,1.13143 3.17387,5.14908 5.15039,7.50781 3.66417,4.37272 9.08435,7.03093 12.55274,11.53125 4.3395,5.63064 8.51225,10.65023 10.91406,16.82813 3.29038,8.46354 3.9343,18.34236 4.16211,26.55468 0.094,3.38948 -4.36845,7.84004 -4.20313,9.76758 0.23326,2.71968 5.15117,4.38202 5.15821,7.38477 0.006,2.62092 -3.83394,4.42895 -4.11133,7.03515 -0.26228,2.46429 2.48633,6.29883 2.48633,6.29883 h 5.04687 0.0996 5.04688 c 0,0 2.7486,-3.83454 2.48632,-6.29883 -0.27739,-2.6062 -4.11732,-4.41423 -4.11132,-7.03515 0.007,-3.00275 4.92494,-4.66509 5.1582,-7.38477 0.16532,-1.92754 -4.29713,-6.3781 -4.20313,-9.76758 0.22781,-8.21232 0.87173,-18.09114 4.16211,-26.55468 2.40181,-6.1779 6.57261,-11.19749 10.91211,-16.82813 3.46839,-4.50032 8.89052,-7.15853 12.55469,-11.53125 1.97652,-2.35873 4.6806,-6.37638 5.15039,-7.50781 0.21108,-0.50835 4.10472,-0.28692 4.23047,-1.45508 0.0878,-0.81515 -4.12259,-1.00325 -4.17969,-1.38281 -0.16037,-1.06591 -5.24983,-7.45299 -7.36914,-11.28906 -0.89617,-1.62212 -0.93571,-3.69315 -2.23828,-5.08985 -2.54119,-2.72482 -8.34279,-4.89274 -9.56641,-3.75781 -1.83142,1.69868 -0.52215,5.71516 2.08203,9.4082 0.73971,1.049 4.83622,1.09282 6.34375,2.5 2.53093,2.36245 5.4929,6.41469 5.89063,7.65821 -0.75618,0.33014 -10.54142,-0.66312 -15.74609,-1.50586 -8.26483,-1.33823 -10.62227,-2.21666 -13.84961,-3.31446 2.56642,-8.04331 4.23034,-12.47948 4.21484,-16.15429 -0.0168,-3.96879 -4.4198,-11.3897 -6.96875,-11.58789 v -0.0176 c -0.0162,8e-5 -0.0344,0.009 -0.0508,0.01 -0.0158,-6.5e-4 -0.0332,-0.01 -0.0488,-0.01 z m -31.78516,36.33984 c 3.15083,-0.17864 26.80051,2.34141 27.82618,4.67383 0.34107,0.77561 -3.03067,12.77836 -7.90821,13.74805 -3.16809,0.62984 -7.20748,-4.90234 -10.4414,-7.80469 -3.5747,-3.20819 -10.16713,-9.69893 -9.82032,-10.54492 0.0151,-0.0367 0.1337,-0.0604 0.34375,-0.0723 z m 62.7793,0 c 0.75899,-0.0224 1.20425,-10e-4 1.23438,0.0723 0.34681,0.84599 -6.24562,7.33673 -9.82032,10.54492 -3.23392,2.90235 -7.27331,8.43453 -10.4414,7.80469 -4.87754,-0.96969 -8.24928,-12.97244 -7.90821,-13.74805 0.9573,-2.17693 21.62266,-4.5168 26.93555,-4.67383 z" /><path
         style="fill:#ffbd08;fill-opacity:1;stroke:#000000;stroke-width:0.8;stroke-linecap:butt;stroke-linejoin:miter;stroke-dasharray:none;stroke-opacity:1"
         d="m 236.91647,236.74112 10.77683,0.0921 c 0.75654,-0.008 0.62395,0.30734 0.54803,0.50775 -1.3078,3.77222 -2.38907,7.59833 -2.29833,12.15902 l -2.643,1e-5 v 18.146 h -2 V 249.5 h -2.21211 c -0.23902,-4.21891 -0.57266,-8.36684 -2.49468,-12.24012 -0.27055,-0.30657 0.1605,-0.52143 0.32326,-0.51876 z"
         id="path6-5"
         sodipodi:nodetypes="ccccccccccc" /><path
         id="rect6"
         style="fill:#000000;fill-opacity:0.3;fill-rule:evenodd;stroke-width:0.8;stroke-linecap:round;stroke-linejoin:round;stroke-miterlimit:20;stroke-opacity:0.5"
         d="m 242.40039,107.95508 v 0.0176 c -2.54895,0.19819 -6.95195,7.6191 -6.96875,11.58789 -0.0155,3.67479 1.64844,8.111 4.21484,16.15429 -2.49233,0.84779 -4.54052,1.56982 -9.11718,2.46875 l 10.66406,-1.17578 c 0.30226,-9.20382 1.27734,-23.48437 1.27734,-23.48437 0,0 0.86383,14.1753 1.13868,23.43164 l 12.32812,1.50976 c -5.6142,-1.02907 -7.94775,-1.81938 -10.68359,-2.75 2.5664,-8.04329 4.23034,-12.4795 4.21484,-16.15429 -0.0168,-3.96879 -4.4198,-11.3897 -6.96875,-11.58789 v -0.0176 c -0.0162,8e-5 -0.0344,0.009 -0.0508,0.01 -0.0158,-6.5e-4 -0.0332,-0.01 -0.0488,-0.01 z m -19.15234,12.70508 c -0.16662,3.9e-4 -0.34624,0.0116 -0.53516,0.0332 -2.26703,0.25865 -6.00622,1.98959 -7.91211,4.0332 -1.30257,1.3967 -1.34211,3.46773 -2.23828,5.08985 -2.06457,3.73698 -6.91338,9.85718 -7.3125,11.1582 l 4.84375,-0.53516 c 0.49035,-1.32816 3.36616,-5.248 5.8457,-7.5625 1.50754,-1.40718 5.60404,-1.451 6.34375,-2.5 2.60419,-3.69302 3.91541,-7.70952 2.08399,-9.4082 -0.22943,-0.2128 -0.6193,-0.30976 -1.11914,-0.30859 z m 38.34375,0.002 c -0.14305,0.002 -0.27759,0.012 -0.40039,0.0312 -0.28071,0.044 -0.50525,0.13352 -0.65821,0.27539 -1.83142,1.69868 -0.52213,5.71518 2.08203,9.4082 0.73971,1.049 4.83624,1.09282 6.34375,2.5 2.53093,2.36245 5.4929,6.41469 5.89063,7.65821 -0.1673,0.073 -0.82855,0.0738 -1.73242,0.0332 l 8.77343,1.07422 c -1.0624,-0.20059 -2.15465,-0.34473 -2.18359,-0.53711 -0.16037,-1.06591 -5.24983,-7.45301 -7.36914,-11.28906 -0.89617,-1.62212 -0.93571,-3.69315 -2.23828,-5.08985 -2.08457,-2.23519 -6.36209,-4.09458 -8.50781,-4.06445 z" /><path
         id="rect9"
         style="fill-opacity:0.3;fill-rule:evenodd;stroke-width:0.8;stroke-linecap:round;stroke-linejoin:round;stroke-miterlimit:20;stroke-opacity:0.5"
         d="m 279.34375,144.51172 -4.90625,0.4414 c -1.10206,1.86871 -6.51081,7.16058 -9.62891,9.95899 -3.23391,2.90235 -7.27332,8.43453 -10.4414,7.80469 -4.87754,-0.96969 -8.24928,-12.97244 -7.90821,-13.74805 0.29976,-0.68165 2.63467,-1.37209 5.72266,-2.01367 l -9.5,0.85351 -9.80469,-0.82421 c 3.01062,0.63305 5.26955,1.31373 5.56446,1.98437 0.34107,0.77561 -3.03067,12.77836 -7.90821,13.74805 -3.16808,0.62984 -7.20749,-4.90234 -10.4414,-7.80469 -3.04604,-2.73373 -8.24777,-7.82164 -9.51563,-9.79883 l -4.91601,-0.41406 c 0.89911,1.59814 3.04124,4.73142 4.73437,6.75195 3.66417,4.37272 9.08435,7.03094 12.55274,11.53125 2.74737,3.56481 5.42425,6.88619 7.63085,10.41016 l 12.11194,-1.75439 11.63025,1.75439 c 2.20604,-3.52399 4.88347,-6.84533 7.63086,-10.41016 3.46839,-4.50031 8.89052,-7.15853 12.55469,-11.53125 1.76347,-2.10449 4.0197,-5.42196 4.83789,-6.93945 z m -42.59961,46.42383 c 0.85484,5.30274 1.14667,10.64852 1.2793,15.42968 0.094,3.38948 -4.36845,7.84004 -4.20313,9.76758 0.23326,2.71968 5.15117,4.38202 5.15821,7.38477 0.006,2.62092 -3.83394,4.42896 -4.11133,7.03515 -0.26228,2.46429 2.48633,6.29883 2.48633,6.29883 h 5.04687 0.0996 5.04688 c 0,0 2.7486,-3.83454 2.48632,-6.29883 -0.27739,-2.60619 -4.11732,-4.41423 -4.11132,-7.03515 0.007,-3.00275 4.92494,-4.66509 5.1582,-7.38477 0.16532,-1.92754 -4.29713,-6.3781 -4.20313,-9.76758 0.13263,-4.78116 0.42446,-10.12694 1.2793,-15.42968 z"
         sodipodi:nodetypes="ccssscccsssccsscccssccsscsccccscsscc" /><g
         id="g2"><path
           id="path1"
           style="fill:#d8d8d8;fill-opacity:1;fill-rule:evenodd;stroke:#000000;stroke-width:1;stroke-linecap:round;stroke-linejoin:round;stroke-miterlimit:20;stroke-dasharray:none;stroke-opacity:1"
           d="m 242.96484,162.40234 a 18,18 0 0 0 -18,18 18,18 0 0 0 18,18 18,18 0 0 0 18,-18 18,18 0 0 0 -18,-18 z m 0,6.0293 a 11.969851,11.969851 0 0 1 11.97071,11.9707 11.969851,11.969851 0 0 1 -11.97071,11.96875 11.969851,11.969851 0 0 1 -11.9707,-11.96875 11.969851,11.969851 0 0 1 11.9707,-11.9707 z" /><circle
           style="fill:none;fill-opacity:1;fill-rule:evenodd;stroke:#ffffff;stroke-width:2.568;stroke-linecap:round;stroke-linejoin:round;stroke-miterlimit:20;stroke-dasharray:none;stroke-opacity:0.3"
           id="circle2"
           cx="242.96484"
           cy="180.40234"
           r="15.17084" /><circle
           style="fill:none;fill-opacity:1;fill-rule:evenodd;stroke:#ffffff;stroke-width:1.06837;stroke-linecap:round;stroke-linejoin:round;stroke-miterlimit:20;stroke-dasharray:none;stroke-opacity:0.5"
           id="path2-0"
           cx="242.96484"
           cy="180.40234"
           r="15.17084" /></g><g
         id="g4"
         transform="matrix(0.70120875,0,0,0.70120875,72.595769,96.616209)"><path
           id="path3"
           style="fill:#d8d8d8;fill-opacity:1;fill-rule:evenodd;stroke:#000000;stroke-width:1;stroke-linecap:round;stroke-linejoin:round;stroke-miterlimit:20;stroke-dasharray:none;stroke-opacity:1"
           d="m 242.96484,162.40234 a 18,18 0 0 0 -18,18 18,18 0 0 0 18,18 18,18 0 0 0 18,-18 18,18 0 0 0 -18,-18 z m 0,6.0293 a 11.969851,11.969851 0 0 1 11.97071,11.9707 11.969851,11.969851 0 0 1 -11.97071,11.96875 11.969851,11.969851 0 0 1 -11.9707,-11.96875 11.969851,11.969851 0 0 1 11.9707,-11.9707 z" /><circle
           style="fill:none;fill-opacity:1;fill-rule:evenodd;stroke:#ffffff;stroke-width:2.35308;stroke-linecap:round;stroke-linejoin:round;stroke-miterlimit:20;stroke-dasharray:none;stroke-opacity:0.3"
           id="circle3"
           cx="242.96484"
           cy="180.40234"
           r="15.17084" /><circle
           style="fill:none;fill-opacity:1;fill-rule:evenodd;stroke:#ffffff;stroke-width:1.06837;stroke-linecap:round;stroke-linejoin:round;stroke-miterlimit:20;stroke-dasharray:none;stroke-opacity:0.5"
           id="circle4"
           cx="242.96484"
           cy="180.40234"
           r="15.17084" /></g><path
         id="path9-8"
         style="color:#000000;fill:#ffffff;fill-opacity:0.2;-inkscape-stroke:none"
         d="m 242.4707,113.52344 c 0,0 -1.32513,19.34293 -1.36914,27.51562 -8.5666,0.0954 -26.91992,1.21289 -26.91992,1.21289 0,0 18.49599,1.26482 26.94336,1.35938 0.15386,9.23189 1.19922,27.22265 1.19922,27.22265 0,0 1.17948,-18.09183 1.34375,-27.22656 9.0183,-0.11487 27.82226,-1.20898 27.82226,-1.20898 0,0 -18.87542,-1.23163 -27.79687,-1.35352 -0.0491,-8.29094 -1.22266,-27.52148 -1.22266,-27.52148 z" /><path
         id="rect10"
         style="fill:#ffffff;fill-opacity:0.3;fill-rule:evenodd;stroke:none;stroke-width:0.740697;stroke-linecap:round;stroke-linejoin:round;stroke-miterlimit:20;stroke-dasharray:none;stroke-opacity:0.3"
         d="m 291.77444,185.37744 c 0.8341,1.00518 1.5456,2.05897 2.16691,3.15163 l 8.8947,4.1e-4 c -0.0492,-1.06317 -0.0454,-2.11049 -0.0134,-3.15107 z"
         transform="matrix(0.9795721,0.20109326,-0.26511387,0.96421711,0,0)" /><path
         id="path11-4"
         style="fill:#ffffff;fill-opacity:0.5;fill-rule:evenodd;stroke:none;stroke-width:0.435036;stroke-linecap:round;stroke-linejoin:round;stroke-miterlimit:20;stroke-dasharray:none;stroke-opacity:0.3"
         d="m 236.89893,238.40245 c 0.46862,0.46175 0.80412,0.9129 1.04067,1.35715 l 8.50376,1.79781 c 0.30074,-0.32005 0.647,-0.62473 1.01802,-0.92175 z" /><path
         style="fill:none;fill-opacity:1;stroke:#000000;stroke-width:0.8;stroke-linecap:butt;stroke-linejoin:miter;stroke-dasharray:none;stroke-opacity:1"
         d="m 236.91647,236.74112 10.77683,0.0921 c 0.75654,-0.008 0.62395,0.30734 0.54803,0.50775 -1.3078,3.77222 -2.38907,7.59833 -2.29833,12.15902 l -2.643,1e-5 v 18.146 h -2 V 249.5 h -2.21211 c -0.23902,-4.21891 -0.57266,-8.36684 -2.49468,-12.24012 -0.27055,-0.30657 0.1605,-0.52143 0.32326,-0.51876 z"
         id="path10-9"
         sodipodi:nodetypes="ccccccccccc" /></g><path
       id="path1-0"
       style="color:#000000;display:inline;fill:#000000;-inkscape-stroke:none"
       d="m 353.23047,325.84961 c 0,0 1.9406,16.78278 4.25391,25.0332 2.10991,7.52499 5.30085,14.575 7.36328,21.83203 1.55841,5.48362 3.09887,10.94537 3.83398,16.46875 0.4375,3.28725 0.37695,10.81641 0.37695,10.81641 h 2.79941 c 0,0 -0.13319,-7.42499 -0.684,-11.22005 -0.99069,-6.82542 -2.19309,-11.0595 -4.016,-16.85158 -3.20653,-10.18839 -6.0053,-17.4931 -7.72843,-22.96142 -2.0832,-6.61105 -6.1991,-23.11734 -6.1991,-23.11734 z"
       sodipodi:nodetypes="csssccsssc" /></g></svg>
