<?xml version="1.0" encoding="UTF-8" standalone="no"?>
<!-- Created with Inkscape (http://www.inkscape.org/) -->

<svg
   width="400"
   height="400"
   viewBox="0 0 400 400"
   version="1.1"
   id="svg11557"
   xml:space="preserve"
   inkscape:version="1.3.2 (091e20e, 2023-11-25)"
   sodipodi:docname="TwokAverageMale.svg"
   xmlns:inkscape="http://www.inkscape.org/namespaces/inkscape"
   xmlns:sodipodi="http://sodipodi.sourceforge.net/DTD/sodipodi-0.dtd"
   xmlns:xlink="http://www.w3.org/1999/xlink"
   xmlns="http://www.w3.org/2000/svg"
   xmlns:svg="http://www.w3.org/2000/svg"><sodipodi:namedview
     id="namedview11559"
     pagecolor="#ffffff"
     bordercolor="#666666"
     borderopacity="1.0"
     inkscape:showpageshadow="2"
     inkscape:pageopacity="0.0"
     inkscape:pagecheckerboard="0"
     inkscape:deskcolor="#d1d1d1"
     inkscape:document-units="px"
     showgrid="false"
     inkscape:zoom="2.1925"
     inkscape:cx="199.77195"
     inkscape:cy="200"
     inkscape:window-width="1952"
     inkscape:window-height="1090"
     inkscape:window-x="2020"
     inkscape:window-y="89"
     inkscape:window-maximized="0"
     inkscape:current-layer="layer5" /><defs
     id="defs11554"><inkscape:path-effect
       effect="perspective-envelope"
       up_left_point="277.3381,311.4347"
       up_right_point="392.78333,306.33"
       down_left_point="277.3381,383.64976"
       down_right_point="392.78333,383.64976"
       id="path-effect41439"
       is_visible="true"
       lpeversion="1"
       deform_type="perspective"
       horizontal_mirror="false"
       vertical_mirror="false"
       overflow_perspective="false" /></defs><g
     inkscape:groupmode="layer"
     id="layer5"
     inkscape:label="Uniform"><path
       id="path171958"
       style="fill:#700000;fill-opacity:1;fill-rule:nonzero;stroke:none;stroke-width:1.33333"
       d="m 181.13583,206.19342 -0.44833,0.31439 -6.27734,0.46485 -40.91407,21.15429 -38.587887,22.54883 -11.855469,6.04297 -9.730693,5.01297 -4.171628,3.95066 -11.118579,2.44635 C 49.577549,274.23242 45.03131,281.3706 41.979324,296.78464 36.789734,326.88771 29.181408,369.89668 23.993266,400 l 361.696184,-0.0332 -1.00976,-30.86133 -0.86914,-26.57227 c -1.52533,-11.00266 -3.12611,-48.21866 -5.45544,-55.79065 -1.69696,-5.51514 -4.68362,-13.12031 -8.14841,-14.73888 -2.23035,-1.04191 -5.12686,0.38157 -7.51529,1.91821 -8.15467,-4.88133 -35.08884,-19.29515 -45.54883,-21.61915 -10.46133,-2.32533 -26.81507,-12.73545 -37.03906,-17.07812 l -7.53321,-1.63867 4.76953,8.01172 -1.91138,1.88397 c 0,0 3.14658,11.47162 4.56658,15.44628 1.42,3.976 -2.51934,10.83038 -2.51934,10.83038 l -11.87414,7.1714 -26.8125,-4.84766 -5.50195,-3.14453 c 0,0 -13.86836,-9.16877 -36.01367,-28.19141 -22.14665,-19.02398 -15.72461,-34.06836 -15.72461,-34.06836 z"
       sodipodi:nodetypes="cccccccccccccccscccccccccccccc" /><path
       d="m 196.9892,241.882 c 22.14533,19.02267 37.47733,27.54 37.47733,27.54 l 12.78848,7.04831 19.31434,0.0925 11.78545,-6.20579 c 0,0 3.26041,-6.31889 1.84041,-10.29356 -1.42,-3.97467 -4.08304,-15.12478 -4.08304,-15.12478 l 0.94236,-2.20471 -4.768,-8.012 -0.18534,0.152 -3.812,10.87334 -5.22533,2.25866 -2.46445,-0.20084 -4.03155,-0.64582 c -10.87333,-1.412 -25.98267,-10.59067 -35.02,-17.228 -9.03867,-6.63734 -24.77107,-30.76502 -24.77107,-30.76502 -0.85108,-1.21484 -3.00421,-5.00817 -3.69664,-6.31546 l -7.79629,11.53781 -4.10666,2.73733 0.0893,0.68667 c 0,0 -6.42267,15.04667 15.72267,34.06933"
       style="fill:#d30000;fill-opacity:1;fill-rule:nonzero;stroke:none;stroke-width:1.33333"
       id="path171966"
       sodipodi:nodetypes="cccccsccccccccccccccc" /><path
       style="fill:#000000;fill-opacity:0.2;stroke:none;stroke-width:1px;stroke-linecap:butt;stroke-linejoin:miter;stroke-opacity:1"
       d="m 270.22988,272.18391 c 2.36211,-1.90985 3.88645,-5.70494 5.15706,-9.43728 1.27061,-3.73235 -0.33707,-8.66557 -0.91954,-10.8046 -0.58248,-2.13903 -0.38778,-3.2767 -0.38778,-3.2767 l 1.68814,-3.46197 2.83757,8.11798 2.18391,7.93103 -0.8046,6.09196 -4.35246,5.52923 -10.45977,3.10345 h -3.21839 c 3.23272,-1.35355 6.61878,-2.48667 8.27586,-3.7931 z"
       id="path38316"
       sodipodi:nodetypes="czzccccccccc" /><path
       d="m 274.05565,242.7931 c 0.42856,0.70227 0.80794,1.49865 1.05,2.67281 0.65223,3.1544 -0.65503,3.36735 -1.87586,6.25146 -1.82532,4.31525 -2.19121,9.7828 -3.05314,14.34731 -1.16121,-2.08193 -1.64272,-3.18607 -1.75516,-5.46218 -0.1155,-2.31874 -0.1658,-4.58306 0.17769,-6.93019 0.24388,-1.67035 3.00538,-4.8124 3.60619,-6.28073 1.21365,-2.95713 0.3057,-5.16612 -0.70821,-8.02006 0.27935,0.28516 0.47713,0.26517 0.81278,0.48892 0.53153,1.24537 1.18064,2.00664 1.74571,2.93266"
       style="fill:#000000;fill-opacity:1;fill-rule:nonzero;stroke:none;stroke-width:1.33333"
       id="path172002" /><path
       style="fill:#000000;fill-opacity:1;stroke:none;stroke-width:1px;stroke-linecap:butt;stroke-linejoin:miter;stroke-opacity:1"
       d="m 260.22989,272.69946 c 1.19481,1.19685 3.76255,11.09818 4.37937,13.73732 -2.30915,1.98893 -46.39532,14.69036 -65.5288,21.6092 -19.13348,6.91884 -46.80585,16.33251 -48.27586,19.31034 -1.47001,2.97783 6.51279,31.12354 9.65517,43.21839 C 163.60215,382.66956 169.1954,400 169.1954,400 h -16.09195 c 0,0 -7.58942,-29.11777 -11.03448,-42.75862 -7.76464,-25.14327 -10.35141,-37.85236 -8.81931,-40.86376 1.5321,-3.0114 37.70569,-15.0718 56.17563,-21.66498 18.46994,-6.59318 56.09195,-18.85057 56.09195,-18.85057 0,0 12.54252,-3.8718 14.71265,-3.16261 z"
       id="path23919"
       sodipodi:nodetypes="cczzzccczzcc" /><path
       id="path172014"
       style="fill:#000000;fill-opacity:1;fill-rule:nonzero;stroke:none;stroke-width:1.33333"
       d="m 191.47777,191.41029 c -0.11199,0.0755 -4.66143,7.81851 -10.02855,15.24276 -0.0368,-1.29943 -3.41065,-1.47422 -8.44531,-0.13157 -4.85066,1.29467 -26.26343,13.67894 -46.96875,25.65625 -16.79065,9.71199 -32.650924,18.88602 -36.656254,20.38868 -9.020037,3.62643 -16.927421,6.28789 -19.726225,11.21455 -1.077332,0.63733 -1.163162,-0.55677 -6.824108,0.54175 -5.660945,1.09852 -14.559748,3.83357 -19.001077,15.79223 C 39.703501,291.2176 23.455493,391.23481 21.875494,399.9668 h 5.63086 c 4.310736,-30.08161 13.620584,-90.18271 20.080908,-119.85186 3.702662,-4.62933 7.307155,-11.6828 17.908531,-12.272 10.601375,-0.58919 23.897322,10.53096 27.949318,16.09362 0.306666,-1.03467 -0.155257,-2.13012 -0.669922,-3.07812 -2.467998,-4.544 -7.398873,-9.03025 -11.796202,-11.65559 -1.478666,-0.88133 -7.183469,-3.17766 -8.219468,-4.58966 1.992183,-2.0292 13.380633,-8.03125 17.761965,-8.99796 4.258663,-1.59733 19.498596,-10.41248 37.142576,-20.61914 19.56664,-11.31731 41.74503,-24.14545 46.17969,-25.32812 2.17334,-0.58 3.62442,-0.84175 4.59375,-0.95508 -0.42533,0.848 -0.73831,1.91263 -0.79297,3.2793 -0.14667,3.67866 1.56377,8.51738 4.53711,13.60937 3.57333,7.92133 12.44559,20.09719 25.44159,29.10032 12.99599,9.00313 24.8789,16.8718 30.84537,19.45694 5.96646,2.58514 16.81274,6.26369 25.82441,4.29432 9.01167,-1.96936 11.64555,-3.81261 14.44517,-7.85334 3.09296,-4.46409 3.20726,-8.50179 1.81659,-13.46045 -0.72267,-2.57334 -1.4559,-4.74808 -2.59857,-7.14007 -0.50133,-1.04934 -1.21669,-3.4476 -0.89269,-4.65826 0.12534,-0.46667 0.0358,-1.61229 0.25451,-2.03229 0.65498,-3.54149 -2.50911,-5.8076 -3.27844,-7.98493 -0.044,-0.124 0.51212,-0.39656 0.79346,-0.40856 3.54132,-0.148 8.87627,3.36029 12.36427,4.91095 10.63465,4.73067 19.85776,12.18913 31.09375,15.81445 7.48063,2.4126 30.27297,12.23606 42.96093,20.00391 1.64,-1.10343 3.16902,-1.56497 4.84737,-2.25507 1.34052,-0.29279 1.69939,-0.50977 2.73242,-0.25391 1.31166,0.32487 2.14678,0.5163 3.50781,2.17774 0.49802,0.60794 1.17728,2.17448 1.71289,3.8457 1.18221,3.98594 2.49977,7.91006 2.99834,9.8996 0.95001,3.80153 2.60241,9.78674 3.37695,16.78711 0.74701,6.75133 0.96883,27.73662 1.10652,29.40729 0.13768,1.67067 0.12166,4.72541 0.45013,7.28023 0.74285,19.74732 1.03711,39.5079 0.78124,57.4336 h 4.79102 l -2.30469,-57.4336 c -0.19643,-3.48973 -0.55643,-6.01595 -0.81439,-8.77858 -0.18525,-1.91538 -0.2294,-21.02642 -1.02741,-28.23881 -0.80531,-7.27825 -2.51896,-13.46304 -3.44922,-17.18554 -1.18505,-4.25883 -1.77449,-6.07019 -3.05303,-10.08711 -0.57206,-1.78495 -1.18331,-3.53228 -2.24805,-4.83203 -1.76448,-2.15394 -3.6699,-2.83145 -5.10742,-3.1875 -1.43227,-0.35566 -2.78011,-0.0692 -4.09375,0.23438 -1.6048,0.47261 -2.4928,1.04067 -4.08348,1.62563 -13.12333,-7.96334 -34.37964,-17.05685 -42.08423,-19.54239 -8.256,-2.66267 -15.86906,-7.01273 -23.6504,-10.7754 -2.75732,-1.33199 -5.76605,-3.2898 -8.5407,-4.58447 -2.576,-1.20133 -4.14894,-2.5529 -6.95344,-3.97998 -1.47326,-0.74967 -9.17027,-3.56381 -10.6316,-2.42648 -1.98933,1.54666 -0.73659,4.64432 -2.00458,6.80965 -1.28267,2.75115 -1.90723,5.82 -4.61054,7.54847 -1.46055,0.76727 -3.33021,0.26169 -5.48179,0.0645 -36.99794,-3.92366 -60.23651,-45.11706 -62.91625,-51.97259 -0.23791,-0.60864 0.0394,-0.85153 0.15863,-1.19727 -0.14,-0.54934 -1.06578,-0.86477 -1.62596,-0.95111 -0.75004,-0.1156 -1.08116,0.0131 -1.55661,0.33368 z m 1.15365,3.61418 c 3.23332,9.93199 27.31307,49.00772 63.71038,53.32905 3.58933,0.17563 8.24841,1.02671 11.25713,-1.48156 1,-0.97866 1.46218,-2.60412 2.10352,-3.82812 0.549,-1.18163 1.33656,-2.25044 1.9082,-3.39844 2.79733,7.71065 7.5585,15.62012 6.33184,23.98278 -0.69467,4.732 -1.16664,7.14867 -11.33507,10.43434 -10.16843,3.28567 -22.62235,-1.55828 -31.73633,-6.19637 -9.11398,-4.6381 -23.22403,-14.00566 -31.69469,-21.17223 -8.47066,-7.16657 -14.38662,-16.49982 -17.75062,-22.08648 -3.81599,-8.26933 -3.05875,-13.18899 -2.71875,-14.84499 4.89575,-5.73236 7.32737,-11.14549 9.92439,-14.73796 z"
       sodipodi:nodetypes="sccccczcccczcccccccccczzsscsccccccccssccsccccccsccsccccccsccscscsscscccsszzcccc" /><path
       id="path172060"
       style="opacity:0.199997;fill:#000000;fill-opacity:1;fill-rule:nonzero;stroke:none;stroke-width:1.33333"
       d="m 192.59708,193.57879 -12.54239,15.8216 c 0,0 -2.95775,14.05634 10.85156,27.12695 7.2865,6.89604 12.40855,11.22325 17.06341,14.34934 4.2161,-5.02725 8.49334,-16.21872 8.55556,-18.12027 0.0909,-1.24064 -0.42787,-2.55815 -0.95881,-3.13532 -7.9231,-8.613 -18.97675,-17.00554 -19.03005,-30.21215 z m 26.28631,38.70749 c -4.14878,7.40533 -6.34352,13.02905 -8.76816,20.03208 2.96279,1.92637 5.06798,2.88765 5.94922,2.68555 2.27513,-0.52176 7.99939,-15.48806 7.09571,-18.43164 -0.5411,-1.76252 -2.45763,-3.03895 -4.27677,-4.28599 z m 7.56583,5.95786 -7.57422,20.28906 c 2.55836,1.72065 5.2299,2.62177 6.83398,1.10547 1.84637,-1.81585 5.63062,-13.26112 5.04493,-16.15429 -0.28712,-1.41831 -0.86564,-2.70502 -4.30469,-5.24024 z m 8.55664,6.93359 c -0.90378,-0.18839 -5.10352,18.49805 -5.10352,18.49805 5.35385,1.56747 6.36279,-0.34397 7.25068,-3.81836 0.60846,-2.38094 3.48905,-11.12065 1.76495,-12.48828 -2.80742,-2.22697 -3.16845,-1.90543 -3.91211,-2.19141 z"
       sodipodi:nodetypes="cccccsccccssccccscccssc" /><path
       d="m 109.32033,316.69673 8.84428,42.224 c 0,0 1.98616,18.96323 4.56101,41.07927 l 10.59218,-0.26309 c -2.63816,-17.98068 -4.89358,-29.60592 -7.49861,-39.4222 -2.60504,-9.81629 -11.80488,-35.29513 -16.49886,-43.61798 z"
       style="opacity:0.199997;fill:#000000;fill-opacity:1;fill-rule:nonzero;stroke:none;stroke-width:1.33333"
       id="path172192"
       sodipodi:nodetypes="cccczc" /><path
       style="color:#000000;fill:#000000;-inkscape-stroke:none;fill-opacity:0.30000001"
       d="m 264.07617,277.07031 -1.25586,0.3418 c 0,0 7.8243,29.8693 10.69638,46.21636 2.87533,16.36556 4.59294,39.56228 5.80815,52.22744 1.2127,12.63907 2.00044,24.14409 2.00044,24.14409 h 1.62199 c 0,0 -0.6242,-11.75993 -1.83985,-24.42973 -1.21315,-12.64372 -3.09007,-35.53032 -5.98437,-52.0039 -2.89756,-16.49209 -11.04688,-46.4961 -11.04688,-46.4961 z"
       id="path23921"
       sodipodi:nodetypes="ccssccsscc" /><path
       style="fill:#000000;fill-opacity:1;stroke:none;stroke-width:1px;stroke-linecap:butt;stroke-linejoin:miter;stroke-opacity:1"
       d="m 361.43678,274.65518 c 0,0 4.27052,12.76016 5.8046,22.5862 1.53408,9.82604 3.33082,23.85459 4.03116,36.38917 0.70034,12.53458 0.6271,27.60546 0.91954,38.62069 0.29244,11.01523 1.1297,27.74876 1.1297,27.74876 h -4.70109 c 0,0 0.269,-17.7195 0.22989,-28.85057 -0.0391,-11.13107 -0.20042,-28.37161 -0.57472,-38.16092 -0.3743,-9.78931 -0.67674,-14.15538 -1.26437,-20.57472 -0.58763,-6.41934 -1.1806,-11.64118 -2.1839,-17.93103 -1.0033,-6.28985 -3.90805,-19.77012 -3.90805,-19.77012 z"
       id="path25436"
       sodipodi:nodetypes="czzzcczzzzcc" /><path
       style="fill:#000000;fill-opacity:0.2;stroke:none;stroke-width:1px;stroke-linecap:butt;stroke-linejoin:miter;stroke-opacity:1"
       d="m 367.58621,305.05747 c 0,0 4.44718,20.17779 5.51724,34.02299 1.07006,13.84521 2.64394,31.79443 3.21839,41.83908 C 376.89629,390.9642 377.01149,400 377.01149,400 l -6.66666,-0.45977 v -46.2069 l -1.6092,-31.72413 z"
       id="path25462"
       sodipodi:nodetypes="czzccccc" /><path
       style="color:#000000;fill:#000000;fill-opacity:0.3;-inkscape-stroke:none"
       d="m 256.40991,269.08315 c -2.67928,0.12349 -6.04358,-0.42211 -9.74194,-0.87895 -3.75267,-0.46355 -7.99039,-1.48012 -7.99039,-1.48012 0,0 5.15832,3.11877 8.87307,3.80703 3.80295,0.70461 7.64161,1.01464 10.23412,0.55952 5.22454,-0.91718 9.34121,-5.57305 9.34121,-5.57305 0,0 -6.30483,3.36226 -10.71607,3.56557 z"
       id="path25489"
       sodipodi:nodetypes="sscsscs" /><path
       style="color:#000000;fill:#000000;-inkscape-stroke:none;fill-opacity:0.30000001"
       d="m 183.9707,226.37891 c 0,0 -1.77826,-0.18095 -2.9414,0.008 -0.68704,0.11149 0.91885,-0.60505 -2.92188,0.96484 -3.89176,1.59076 -7.32414,3.60575 -20.63113,9.83833 -13.51221,6.32871 -45.84764,22.02923 -57.700633,28.62084 -5.573744,3.09963 -8.317655,4.37202 -9.006126,4.65997 -0.172117,0.072 -0.271056,0.10605 -0.417969,0.19336 -0.146912,0.0873 -0.341092,0.31894 -0.392578,0.41992 -0.05149,0.10099 -0.04878,0.10762 -0.09766,0.1875 -0.04887,0.0799 -0.141638,0.21494 -0.322266,0.43164 -1.790895,2.14858 -1.550781,4.6875 -1.550781,4.6875 l 1.494141,-0.13671 c 0,0 -0.170787,-1.93451 1.208984,-3.58985 0.215706,-0.25878 0.353785,-0.45339 0.449219,-0.60937 0.04708,-0.077 0.04931,-0.0897 0.07617,-0.14258 0.03784,-0.0171 0.03423,-0.0162 0.130859,-0.0566 0.680601,-0.28467 2.633327,-1.09661 8.310547,-4.06445 11.292993,-5.90358 46.099523,-22.92165 59.292963,-29.41602 13.19697,-6.49611 15.92849,-8.0839 19.72266,-9.63477 3.84521,-1.57172 1.4183,-0.68197 2.5957,-0.87304 0.70129,-0.11381 2.57617,0.006 2.57617,0.006 z"
       id="path31051"
       sodipodi:nodetypes="ccssssssssccssccsssscc" /><path
       style="fill:#d30000;stroke:none;stroke-width:2.5;stroke-linecap:butt;stroke-linejoin:miter;stroke-dasharray:none;stroke-opacity:1;fill-opacity:1"
       d="m 115.4023,235.05747 c 3.31159,0.30575 16.14305,9.81055 24.82759,17.81609 8.68454,8.00554 18.29563,19.94989 24.82758,29.88506 6.53195,9.93517 10.77681,20.19577 14.71264,28.96552 3.93583,8.76975 9.19541,23.44827 9.19541,23.44827 l -28.50575,10.11495 c 0,0 -4.74151,-15.1853 -8.73563,-23.90805 -3.99412,-8.72275 -8.66645,-18.10084 -15.63219,-28.04598 -6.96574,-9.94514 -18.16415,-23.74885 -26.66666,-30.80459 -8.50251,-7.05574 -16.970193,-8.10473 -19.310347,-9.77012 -2.340155,-1.6654 -2.53711,-3.42863 -1.034483,-5.28736 1.502627,-1.85873 6.254932,-3.20193 9.655172,-4.71264 3.400238,-1.51071 6.608408,-4.5346 9.425288,-5.74712 2.81688,-1.21252 3.92979,-2.25977 7.24138,-1.95403 z"
       id="path25547"
       sodipodi:nodetypes="zzzzcczzzzzzzz" /><path
       style="color:#000000;fill:#000000;-inkscape-stroke:none"
       d="m 115.51758,233.8125 c -1.79866,-0.16606 -3.15846,0.0507 -4.34375,0.47656 -1.1853,0.42582 -2.16451,0.996 -3.50781,1.57422 -3.19353,1.37465 -6.33627,4.37604 -9.437504,5.75391 -1.628271,0.72343 -3.662778,1.43604 -5.515625,2.21484 -1.852848,0.7788 -3.54167,1.53761 -4.605469,2.85352 -0.889586,1.1004 -1.412068,2.39748 -1.181641,3.71679 0.230428,1.31932 1.138474,2.43108 2.464844,3.375 1.649352,1.17378 4.215563,1.68565 7.615234,3.00977 3.399671,1.32412 7.503341,3.28604 11.621091,6.70312 8.30103,6.88855 19.52502,20.68587 26.44141,30.56055 6.90458,9.85782 11.53785,19.15402 15.51953,27.84961 3.92139,8.56392 8.67773,23.75977 8.67773,23.75977 l 0.38868,1.24023 30.91015,-10.96875 -0.42187,-1.18164 c 0,0 -5.25359,-14.67154 -9.23242,-23.53711 -3.92417,-8.74376 -8.19619,-19.08308 -14.8086,-29.14062 -6.58851,-10.0212 -16.2232,-22.0032 -25.02539,-30.11719 -4.38657,-4.04361 -9.78902,-8.4412 -14.54101,-11.88867 -2.376,-1.72374 -4.58651,-3.20966 -6.44532,-4.30079 -1.8588,-1.09112 -3.22757,-1.82897 -4.57226,-1.95312 z m -0.23047,2.49023 c 0.3111,0.0287 1.78724,0.59196 3.53711,1.61914 1.74987,1.02719 3.91081,2.4766 6.24219,4.16797 4.66276,3.38274 10.01845,7.74121 14.3164,11.70313 8.56688,7.89707 18.15548,19.80322 24.63086,29.65234 6.45148,9.81278 10.66775,19.9953 14.61524,28.79102 3.62118,8.06866 8.07102,20.36909 8.72461,22.18164 l -26.10743,9.26367 c -0.59697,-1.89752 -4.60602,-14.56988 -8.38476,-22.82227 -4.00655,-8.74989 -8.71921,-18.20974 -15.7461,-28.24218 -7.01507,-10.01558 -18.1886,-23.82786 -26.89257,-31.05078 -4.38475,-3.63865 -8.76572,-5.72872 -12.310551,-7.10938 -3.544829,-1.38065 -6.381465,-2.22518 -7.072265,-2.7168 -1.013783,-0.72147 -1.37374,-1.32424 -1.451172,-1.76757 -0.07743,-0.44334 0.05102,-0.95653 0.664062,-1.71485 0.438827,-0.54282 1.879889,-1.38593 3.628907,-2.12109 1.749017,-0.73516 3.788581,-1.44905 5.560546,-2.23633 3.699233,-1.64355 6.971883,-4.68984 9.412113,-5.74023 1.47357,-0.6343 2.46196,-1.19503 3.36523,-1.51954 0.90327,-0.3245 1.75465,-0.47757 3.26758,-0.33789 z"
       id="path25549" /><path
       id="path26309"
       style="color:#000000;fill:#000000;fill-opacity:0.3;-inkscape-stroke:none"
       d="m 194.62622,202.42456 c 0,0 -3.56131,3.97022 -5.56763,6.37232 -2.00631,2.40208 -5.64147,8.3833 -5.64147,8.3833 l 0.45508,0.46679 c 0,0 4.17045,-5.46396 6.17663,-7.86572 2.00617,-2.40179 5.1438,-6.84106 5.1438,-6.84106 z m 4.67907,7.96796 c 0,0 -3.96502,5.00424 -5.91662,7.69537 -1.9516,2.69112 -5.57031,8.61133 -5.57031,8.61133 l 0.53516,0.44531 c 0,0 4.24969,-5.42447 6.20117,-8.11523 1.95147,-2.6908 5.41467,-8.14654 5.41466,-8.14654 z m 5.88282,7.29578 c 0,0 -3.78983,5.23176 -5.65686,7.95037 -1.86703,2.71859 -5.30273,8.68164 -5.30273,8.68164 l 0.54296,0.42969 c 0,0 4.07839,-5.48879 5.94532,-8.20703 1.8669,-2.71828 5.14318,-8.38592 5.14318,-8.38592 z m 6.02673,8.02068 c 0,0 -3.37358,5.68484 -4.82226,8.41016 -1.44869,2.72532 -4.01953,8.64453 -4.01953,8.64453 l 0.54297,0.35352 c 0,0 3.20762,-5.52893 4.65625,-8.25391 1.4486,-2.72501 4.30664,-8.77344 4.30664,-8.77344 z m 7.68946,6.35352 c 0,0 -3.02252,5.89045 -4.30469,8.70508 -1.28219,2.81463 -3.49609,8.89648 -3.49609,8.89648 l 0.55859,0.32617 c 0,0 2.86825,-5.72671 4.15039,-8.54101 1.28212,-2.8143 3.77344,-9.04102 3.77344,-9.04102 z m 7.23437,7.14844 c 0,0 -2.5496,5.95863 -3.60937,8.79492 -1.05979,2.83632 -2.80664,8.92773 -2.80664,8.92773 l 0.57031,0.28321 c 0,0 2.40899,-5.78708 3.46875,-8.62305 1.05976,-2.83598 3.06836,-9.08984 3.06836,-9.08984 z m 8.86719,5.21289 c 0,0 -1.95671,5.98113 -2.74219,8.8164 -0.78548,2.83529 -1.9707,8.88477 -1.9707,8.88477 l 0.5625,0.23242 c 0,0 1.83756,-5.80371 2.62305,-8.63867 0.78547,-2.83497 2.20507,-9.06055 2.20507,-9.06055 z m 9.77148,4.02344 c 0,0 -1.95866,5.98112 -2.74414,8.8164 -0.78548,2.83529 -1.96875,8.88477 -1.96875,8.88477 l 0.5625,0.23047 c 0,0 1.83756,-5.80177 2.62305,-8.63672 0.78548,-2.83497 2.20313,-9.0625 2.20312,-9.0625 z m 19.42383,1.83984 c 0,0 -1.95671,5.98113 -2.74219,8.81641 -0.78547,2.83528 -1.9707,8.88476 -1.9707,8.88476 l 0.5625,0.23047 c 0,0 1.83756,-5.80371 2.62305,-8.63867 0.78548,-2.83497 2.20508,-9.06055 2.20508,-9.06055 z m -10.11328,0.34375 c 0,0 -1.95866,5.98113 -2.74414,8.81641 -0.78548,2.83528 -1.96875,8.88476 -1.96875,8.88476 l 0.56055,0.23242 c 0,0 1.83951,-5.80371 2.625,-8.63867 0.78548,-2.83497 2.20312,-9.0625 2.20312,-9.0625 z"
       sodipodi:nodetypes="csccscccsccscccsccscccsccscccsccscccsccscccsccscccsccscccsccscccsccscc" /><path
       id="path172176"
       style="opacity:0.199997;fill:#000000;fill-opacity:1;fill-rule:nonzero;stroke:none;stroke-width:1.33333"
       d="M 181.2168 206.23438 L 174.41016 206.97266 L 133.49609 228.12695 L 118.79492 236.71875 L 116.2168 235.36328 L 112.63281 235.14258 L 90.138672 246.57617 L 88.585938 249.98633 L 90.867188 253.12109 L 83.052734 256.7207 L 73.322266 262.07617 L 68.001953 265.56641 L 53.779297 270.88672 C 46.321082 279.78778 43.231813 290.64261 39.681641 308.2793 C 34.491583 338.38212 28.721961 369.89696 23.533203 400 L 46.988281 399.9668 C 46.678496 392.00541 46.948291 384.6844 47.681641 377.94141 C 47.72721 377.93723 47.770393 377.93649 47.816406 377.93164 C 51.666616 377.52613 52.386827 373.41564 56.550781 368.27539 C 60.714736 363.13515 67.466607 354.57525 72.183594 346.66602 C 76.90058 338.75678 86.735562 322.53608 84.597656 320.91992 C 82.459751 319.30376 76.898703 324.97027 69.425781 330.11523 C 67.475797 331.45776 64.852225 333.07904 61.980469 334.875 C 79.029253 308.1651 104.40234 302.49023 104.40234 302.49023 C 104.40234 302.49023 103.70496 293.42214 111.37695 290.63281 C 117.82374 288.2885 123.9514 286.16459 129.76367 284.23828 C 130.21415 284.08898 129.51426 283.25045 129.96094 283.10352 C 139.88868 279.83816 150.34186 276.38087 158.53711 274.25977 C 159.11209 274.11096 159.21876 275.34108 159.77539 275.19141 C 194.70468 265.79973 211.69141 265.57422 211.69141 265.57422 C 211.69141 265.57422 167.67614 235.36704 181.55078 206.67773 L 181.2168 206.23438 z M 86.214844 346.78711 C 85.526751 346.79767 84.801872 347.08547 84.244141 347.74805 C 82.756855 349.51493 72.249182 366.34935 66.666016 375.17188 C 61.082849 383.9944 51.494141 400 51.494141 400 L 77.242188 400 C 77.242187 400 77.213707 401.12033 79.080078 396.32227 C 80.946449 391.5242 84.869407 378.81605 86.4375 370.57422 C 88.005593 362.33239 88.415056 350.29729 88.410156 348.58984 C 88.407072 347.52268 87.361664 346.76951 86.214844 346.78711 z " /><g
       id="g1"><path
         style="color:#000000;fill:#d9a14b;stroke:#000000;stroke-width:1.5;stroke-miterlimit:9;stroke-dasharray:none;stroke-opacity:1"
         d="m 304.74501,327.01269 c -3.48267,0.51519 -5.88989,4.13149 -5.35452,8.05302 l 0.68661,5.02928 c 0.52987,3.88122 3.76329,6.55017 7.19932,5.97788 l 39.74861,-6.62033 c 3.15884,-0.5261 5.39047,-3.94706 4.99776,-7.65452 l -0.50873,-4.8029 c -0.3966,-3.74405 -3.30079,-6.41264 -6.49954,-5.93945 z m 0.21236,1.59897 40.22571,-6.01327 c 2.49756,-0.37335 4.72903,1.67002 5.04121,4.59643 l 0.51296,4.80854 c 0.30941,2.90048 -1.40608,5.52828 -3.87759,5.93613 l -39.79135,6.5664 c -2.68481,0.44304 -5.16122,-1.60827 -5.57223,-4.63754 l -0.68163,-5.02313 c -0.41467,-3.0577 1.42772,-5.82768 4.14285,-6.23355 z"
         id="path32605" /><path
         id="rect18996"
         d="m 304.8511,327.81278 40.24797,-5.98524 c 2.84812,-0.42354 5.4157,1.93169 5.77026,5.26707 l 0.51086,4.8058 c 0.35123,3.30432 -1.62211,6.3292 -4.43758,6.79598 l -39.77035,6.59345 c -3.0605,0.50741 -5.91466,-1.85346 -6.38491,-5.30856 l -0.6839,-5.02633 c -0.47496,-3.48921 1.64928,-6.68144 4.74784,-7.14221 z"
         style="fill:#fbeacf;fill-opacity:1;stroke-width:0.185236;stroke-miterlimit:9" /><path
         style="color:#000000;fill:#d9a14b;stroke:#000000;stroke-width:0.6;stroke-miterlimit:9;stroke-dasharray:none;stroke-opacity:1"
         d="m 304.74501,327.01269 c -3.48267,0.51519 -5.88989,4.13149 -5.35452,8.05302 l 0.68661,5.02928 c 0.52987,3.88122 3.76329,6.55017 7.19932,5.97788 l 39.74861,-6.62033 c 3.15884,-0.5261 5.39047,-3.94706 4.99776,-7.65452 l -0.50873,-4.8029 c -0.3966,-3.74405 -3.30079,-6.41264 -6.49954,-5.93945 z m 0.21236,1.59897 40.22571,-6.01327 c 2.49756,-0.37335 4.72903,1.67002 5.04121,4.59643 l 0.51296,4.80854 c 0.30941,2.90048 -1.40608,5.52828 -3.87759,5.93613 l -39.79135,6.5664 c -2.68481,0.44304 -5.16122,-1.60827 -5.57223,-4.63754 l -0.68163,-5.02313 c -0.41467,-3.0577 1.42772,-5.82768 4.14285,-6.23355 z"
         id="rect18998" /><path
         id="rect21363"
         style="fill:#d5def1;fill-opacity:1;stroke:#000000;stroke-width:0.33066;stroke-miterlimit:9;stroke-dasharray:none;stroke-opacity:1"
         d="m 306.80926,332.06959 c 1.7921,0.29457 3.20379,1.88362 3.46706,3.89361 0.25899,2.01151 -0.69418,3.96271 -2.33807,4.78562 l 36.46261,-5.89073 c -1.66177,-0.27111 -2.96478,-1.80562 -3.18704,-3.76193 -0.21668,-1.96113 0.70618,-3.85661 2.25797,-4.63835 z" /><path
         id="path21425"
         d="m 347.18848,325.03955 c 0.0655,0.60503 -0.29726,1.15893 -0.81073,1.23767 -0.51399,0.0788 -0.98473,-0.34823 -1.05103,-0.95428 -0.0663,-0.60646 0.29754,-1.16151 0.8123,-1.2393 0.51424,-0.0777 0.9839,0.35047 1.04946,0.95591 z"
         style="fill:#d9a14b;fill-opacity:1;stroke:#000000;stroke-width:0.292284;stroke-miterlimit:9;stroke-dasharray:none;stroke-opacity:1" /><path
         style="fill:#d9a14b;fill-opacity:1;stroke:#000000;stroke-width:0.334038;stroke-linecap:butt;stroke-linejoin:miter;stroke-dasharray:none;stroke-opacity:1"
         d="m 303.35691,336.29061 6.74084,-1.5097 30.9956,-4.84011 6.65495,-0.6015 0.21738,1.27772 -6.62986,1.48664 -30.94838,4.90023 -6.85029,0.62839 z"
         id="path21495" /><path
         id="path21497"
         style="fill:#d9a14b;fill-opacity:1;stroke:#000000;stroke-width:1;stroke-miterlimit:9;stroke-dasharray:none;stroke-opacity:1"
         d="m 324.29053,317.92654 c -7.89247,1.11986 -13.42147,9.4544 -12.24989,18.5137 1.15936,8.96543 8.43189,15.06228 16.14833,13.71991 7.6017,-1.32239 12.889,-9.40628 11.90219,-18.15315 -0.99681,-8.83599 -8.02772,-15.18341 -15.80063,-14.08046 z m 0.34634,2.86381 c 6.41079,-0.92762 12.23042,4.29291 13.06457,11.59433 0.82725,7.24078 -3.55304,13.93039 -9.84719,15.00815 -6.37287,1.09128 -12.35776,-3.95916 -13.30227,-11.34949 -0.95266,-7.45365 3.59265,-14.31362 10.08489,-15.25299 z" /><path
         style="fill:#d9a14b;fill-opacity:1;stroke:#000000;stroke-width:0.835097;stroke-linecap:butt;stroke-linejoin:miter;stroke-dasharray:none;stroke-opacity:1"
         d="m 317.69198,356.21045 c -0.60922,-14.25426 1.11617,-28.98763 6.29787,-41.51901 6.87474,10.49728 11.47156,21.60533 14.87952,33.84629 0,0 -5.03713,-9.46643 -7.83321,-9.04385 -5.04272,0.64268 -13.34418,16.71657 -13.34418,16.71657 z"
         id="path21563"
         sodipodi:nodetypes="ccccc" /><path
         style="fill:#000000;fill-opacity:1;stroke:none;stroke-width:0.417548px;stroke-linecap:butt;stroke-linejoin:miter;stroke-opacity:1"
         d="m 325.2724,331.73971 -0.22326,-11.52288 2.63016,11.07413 2.7949,0.75331 -2.2615,1.5432 0.66439,2.86034 -2.1045,-2.48441 -1.33478,3.40828 -0.0899,-3.40676 -2.58642,-0.93718 z"
         id="path21565" /></g><path
       style="fill:#000000;fill-opacity:1;stroke:none;stroke-width:1px;stroke-linecap:butt;stroke-linejoin:miter;stroke-opacity:1"
       d="m 99.54023,291.72414 c 0,0 5.0298,14.34829 7.93103,25.51724 2.90123,11.16895 6.48168,27.8199 8.73564,41.6092 2.25396,13.7893 4.82758,41.14942 4.82758,41.14942 h 3.33334 c 0,0 -2.36296,-27.98108 -4.82759,-41.95402 -2.46463,-13.97294 -6.44917,-30.93375 -10,-41.95403 -3.55083,-11.02028 -10,-24.36781 -10,-24.36781 z"
       id="path35721"
       sodipodi:nodetypes="czzcczzc" /><path
       style="fill:#000000;fill-opacity:0.2;stroke:none;stroke-width:1px;stroke-linecap:butt;stroke-linejoin:miter;stroke-opacity:1"
       d="m 51.839081,296.2069 c -1.400847,-1.66493 0.254573,-6.23707 1.034482,-8.85058 0.779909,-2.61351 1.397296,-5.19275 3.333334,-6.66666 1.936038,-1.47391 6.551724,-1.37931 7.011494,-1.37931 0.45977,0 8.710296,2.63091 13.218391,5.63218 4.508095,3.00127 9.440508,7.93923 12.988505,12.64368 3.547997,4.70445 6.805037,10.8701 8.16092,15.17241 1.355883,4.30231 1.439966,7.09209 1.149425,9.77012 -0.290541,2.67803 -0.320853,4.98047 -2.068965,5.97701 -1.748112,0.99654 -3.378404,0.71556 -5.632184,-1.14943 -2.25378,-1.86499 -2.1084,-5.98648 -4.482759,-10.91954 -2.374359,-4.93306 -6.189933,-14.54069 -10.229885,-18.3908 -4.039952,-3.85011 -7.412437,-5.4095 -11.149425,-5.51724 -3.736988,-0.10774 -6.874693,3.50206 -9.195402,3.90804 -2.320709,0.40598 -2.737084,1.43505 -4.137931,-0.22988 z"
       id="path35762"
       sodipodi:nodetypes="zzzzzzzzzzzzzzz" /><path
       id="path38359"
       style="fill:#aaaaaa;fill-opacity:1;stroke:#000000;stroke-width:1px;stroke-linecap:butt;stroke-linejoin:miter;stroke-opacity:1"
       d="m 177.50781,319.9043 c -1.06024,-0.52429 -17.93108,6.55897 -18.20508,7.3164 -0.274,0.75743 2.73997,7.75028 3.57618,8.28907 0.83621,0.53879 18.3895,-5.52506 18.69336,-6.66407 0.30386,-1.13901 -3.00422,-8.41711 -4.06446,-8.9414 z m -1.13672,4.71484 0.97461,2.27539 c -4.30739,2.11331 -8.77734,3.90151 -13.16601,4.87695 l -0.89453,-1.95117 c 4.0867,-2.28605 7.7308,-3.7985 13.08593,-5.20117 z"
       sodipodi:nodetypes="zzzzzccccc" /><path
       style="fill:#aaaaaa;fill-opacity:1;stroke:#000000;stroke-width:1px;stroke-linecap:butt;stroke-linejoin:miter;stroke-opacity:1"
       d="m 165.77646,322.07384 5.44554,12.43532 c 1.43588,0 2.70922,-0.48766 4.06383,-1.46298 l -5.44554,-12.67915 c -1.67971,0 -2.95305,0.48766 -4.06383,1.70681 z"
       id="path38364"
       sodipodi:nodetypes="ccccc" /></g><g
     inkscape:groupmode="layer"
     id="layer2"
     inkscape:label="Image"
     style="display:none;opacity:0.5"
     sodipodi:insensitive="true"><image
       width="400"
       height="400"
       preserveAspectRatio="none"
       xlink:href="../../../../../../../Downloads/token-Human-Science-Lieutenant(1).png"
       id="image1"
       x="0"
       y="0" /></g></svg>
