<?xml version="1.0" encoding="UTF-8" standalone="no"?>
<!-- Created with Inkscape (http://www.inkscape.org/) -->

<svg
   width="400"
   height="400"
   viewBox="0 0 400 400"
   version="1.1"
   id="svg11557"
   xml:space="preserve"
   inkscape:version="1.3.2 (091e20e, 2023-11-25)"
   sodipodi:docname="TwokAverageMaleEnlisted.svg"
   xmlns:inkscape="http://www.inkscape.org/namespaces/inkscape"
   xmlns:sodipodi="http://sodipodi.sourceforge.net/DTD/sodipodi-0.dtd"
   xmlns="http://www.w3.org/2000/svg"
   xmlns:svg="http://www.w3.org/2000/svg"><sodipodi:namedview
     id="namedview11559"
     pagecolor="#ffffff"
     bordercolor="#666666"
     borderopacity="1.0"
     inkscape:showpageshadow="2"
     inkscape:pageopacity="0.0"
     inkscape:pagecheckerboard="0"
     inkscape:deskcolor="#d1d1d1"
     inkscape:document-units="px"
     showgrid="false"
     inkscape:zoom="2.1925"
     inkscape:cx="199.77195"
     inkscape:cy="200"
     inkscape:window-width="1952"
     inkscape:window-height="1090"
     inkscape:window-x="2020"
     inkscape:window-y="33"
     inkscape:window-maximized="0"
     inkscape:current-layer="layer5" /><defs
     id="defs11554"><inkscape:path-effect
       effect="perspective-envelope"
       up_left_point="277.3381,311.4347"
       up_right_point="392.78333,306.33"
       down_left_point="277.3381,383.64976"
       down_right_point="392.78333,383.64976"
       id="path-effect41439"
       is_visible="true"
       lpeversion="1"
       deform_type="perspective"
       horizontal_mirror="false"
       vertical_mirror="false"
       overflow_perspective="false" /></defs><g
     inkscape:groupmode="layer"
     id="layer5"
     inkscape:label="Uniform"><path
       d="m 196.9892,241.882 c 22.14533,19.02267 37.47733,27.54 37.47733,27.54 l 12.78848,7.04831 19.31434,0.0925 13.15612,-5.39951 c 0,0 4.71172,-5.43199 3.29172,-9.40666 -1.42,-3.97467 -6.26,-16.73733 -6.26,-16.73733 l 0.29734,-2.28534 -4.04235,-6.88321 -0.18534,0.152 -4.53765,9.74455 -5.22533,2.25866 -2.46445,-0.20084 -4.03155,-0.64582 c -10.87333,-1.412 -25.98267,-10.59067 -35.02,-17.228 -9.03867,-6.63734 -26.78677,-33.66762 -26.78677,-33.66762 l -0.79186,-2.53662 -1.45347,-1.27938 -7.2319,11.94095 -4.10666,2.73733 0.0893,0.68667 c 0,0 -6.42267,15.04667 15.72267,34.06933"
       style="fill:#2d2d2d;fill-opacity:1;fill-rule:nonzero;stroke:none;stroke-width:1.33333"
       id="path171966"
       sodipodi:nodetypes="cccccscccccccccccccccc" /><path
       id="path171958"
       style="fill:#700000;fill-opacity:1;fill-rule:nonzero;stroke:none;stroke-width:1.33333"
       d="m 181.13583,206.19342 -0.44833,0.31439 -5.62713,3.39081 -41.23917,19.0411 -38.912997,21.73606 -11.855469,6.04297 -9.730693,5.01297 -4.171628,3.95066 -11.118579,2.44635 C 49.577549,274.23242 45.03131,281.3706 41.979324,296.78464 36.789734,326.88771 29.181408,369.89668 23.993266,400 l 361.696184,-0.0332 -1.00976,-30.86133 -0.86914,-26.57227 c -1.52533,-11.00266 -3.12611,-48.21866 -5.45544,-55.79065 -1.69696,-5.51514 -4.91167,-11.18188 -8.37646,-12.80045 -2.23035,-1.04191 -4.32868,-0.0745 -7.28724,-0.0202 -8.15467,-4.88133 -35.08884,-19.29515 -45.54883,-21.61915 -10.46133,-2.32533 -26.81507,-12.73545 -37.03906,-17.07812 l -5.7594,-0.10674 2.99572,6.47979 -0.29882,2.28711 c 0,0 -4.02931,7.84336 -6.23757,11.97927 -0.83758,3.73412 -0.6649,7.04088 -0.6649,7.04088 l -7.84273,7.41328 -22.94236,0.47378 -6.06635,-1.85448 c 0,0 -13.86836,-9.16877 -36.01367,-28.19141 -22.14665,-19.02398 -15.72461,-34.06836 -15.72461,-34.06836 z"
       sodipodi:nodetypes="cccccccccccccccscccccccccccccc" /><path
       id="path2"
       style="fill:#b79180;fill-opacity:1;stroke:none;stroke-width:1px;stroke-linecap:butt;stroke-linejoin:miter;stroke-opacity:1"
       d="m 181.13672,206.19336 -0.44922,0.31445 -5.62695,3.39063 -41.24024,19.04101 -38.912107,21.73633 -11.855469,6.04297 -9.730468,5.01367 -4.171875,3.94922 -11.119141,2.44727 c -2.002919,1.44603 -5.383425,3.60571 -6.979746,5.26416 4.576228,0.082 10.812394,1.8376 18.152144,6.36807 14.824231,9.15029 19.68877,13.69005 28.668907,25.85851 8.980135,12.16845 14.007885,26.82441 17.520025,39.19285 3.51214,12.36844 5.47461,31.01367 5.47461,31.01367 l 107.18359,1.36914 70.69531,-1.36914 54.27539,-7.7539 17.33204,-2.2793 7.29687,-39.22461 1.93555,-32.58398 c -0.38979,-3.13543 -0.79377,-5.82259 -1.23047,-7.24219 -1.69696,-5.51514 -4.91217,-11.18222 -8.37695,-12.80078 -2.23035,-1.04191 -4.32856,-0.0738 -7.28711,-0.0195 -8.15467,-4.88133 -35.08885,-19.29515 -45.54883,-21.61915 -10.46132,-2.32532 -27.21822,-12.97733 -37.4422,-17.32 l -6.76559,-1.17599 3.29331,7.53436 0.81292,2.54367 c 0,0 -4.03003,7.84261 -6.23829,11.97851 -0.83757,3.73412 -0.66406,7.04102 -0.66406,7.04102 l -7.84375,7.41406 -22.9414,0.47461 -6.06641,-1.85547 c 0,0 -13.86838,-9.16879 -36.01367,-28.19141 -22.14663,-19.02396 -15.72461,-34.06836 -15.72461,-34.06836 z"
       sodipodi:nodetypes="ccccccccccszzccccccccscccccccccccccc" /><path
       id="path172014"
       style="fill:#000000;fill-opacity:1;fill-rule:nonzero;stroke:none;stroke-width:1.33333"
       d="m 192.50195,191.0293 c -0.39179,0.009 -0.66685,0.14041 -1.02343,0.38086 -0.0872,0.0588 -8.77694,13.2814 -9.78124,14.38281 -1.42349,0.84889 -4.85261,2.11386 -8.98829,3.82422 -4.72019,1.9521 -25.96854,10.58327 -46.67382,22.56054 -16.79063,9.71197 -32.650932,18.88602 -36.656254,20.38868 -9.020019,3.62641 -16.927764,6.28818 -19.726562,11.21484 -1.07733,0.63733 -1.163285,-0.5575 -6.824219,0.54102 -5.660933,1.0985 -14.558679,3.83434 -19,15.79296 C 39.704138,291.21787 23.454995,391.23483 21.875,399.9668 h 5.630859 c 4.310728,-30.08155 13.62172,-90.18248 20.082032,-119.85157 3.702654,-4.62931 7.306847,-11.68228 17.908203,-12.27148 10.601353,-0.58919 23.897232,10.53111 27.949218,16.09375 0.306666,-1.03467 -0.155258,-2.13014 -0.669921,-3.07812 -2.467994,-4.544 -7.399556,-9.03092 -11.796875,-11.65626 -1.478664,-0.88131 -7.182753,-3.17784 -8.21875,-4.58984 1.992179,-2.0292 13.380396,-8.03134 17.761718,-8.99805 4.258655,-1.59731 19.498636,-10.4125 37.142576,-20.61914 19.5666,-11.31727 40.89966,-20.35641 45.08399,-22.24218 1.41022,-0.63555 5.37394,-2.17659 6.36718,-2.43555 0.0365,0.92923 0.25895,2.12264 0.34571,2.81445 0.45576,3.6341 1.09253,7.29002 3.64844,12.63086 3.75123,7.83862 12.32489,18.8064 25.24023,28.53516 12.91534,9.72876 24.31401,15.92295 30.68359,17.17773 6.3696,1.25478 13.15359,1.28724 19.01172,0.48633 4.32145,-0.59081 9.69593,-2.66331 12.10547,-6.48242 0.96966,-1.53692 0.10781,-3.50687 -0.19336,-4.7207 l -0.63867,1.02929 c -0.4931,1.95033 -2.63768,4.37537 -4.21484,5.07032 -7.11402,3.13459 -12.84249,3.26554 -25.11133,1.29882 -3.67278,-0.14684 -7.45342,-1.48639 -10.66797,-3.88672 -3.80919,-1.24002 -7.13466,-3.72686 -10.06055,-6.42382 -5.79458,-3.901 -10.80407,-8.63451 -14.67578,-11.91016 -8.47064,-7.16655 -15.39577,-16.2278 -18.75977,-21.81445 -2.53817,-5.50029 -3.484,-9.07143 -3.83007,-11.35938 -0.11432,-1.15465 -0.17971,-2.11892 -0.0977,-2.51758 4.83874,-6.81559 8.13345,-11.62823 10.73047,-15.2207 3.23332,9.93197 27.31369,49.0068 63.71094,53.32813 3.58931,0.17563 8.24909,1.02584 11.25781,-1.48243 1,-0.97866 1.46219,-2.60412 2.10351,-3.82812 0.549,-1.18163 1.33657,-2.25044 1.90821,-3.39844 2.03137,4.43482 2.33188,9.65585 3.58045,8.32724 0.31992,-0.34043 1.39637,-1.63043 1.87267,-2.62997 0.2463,-0.51686 0.34787,-1.5691 0.25391,-2.03321 -0.92814,-4.58473 -2.50997,-5.80704 -3.2793,-7.98437 -0.044,-0.124 0.34171,-0.68136 0.62305,-0.69336 0.28884,-0.012 1.855,0.36885 2.80244,0.95688 2.13864,1.32736 6.85263,4.03575 9.73291,5.6067 11.69138,6.37666 19.87428,9.75465 31.09375,14.44615 7.70416,3.22155 30.04448,11.21069 42.73242,18.97852 2.0961,0.26488 3.32486,-0.22343 5.07617,0.25195 3.72835,1.01203 6.92531,4.28936 8.18164,6.79688 1.75094,3.49469 2.27096,5.4011 2.76953,7.39062 0.95001,3.80153 2.60243,9.78676 3.37695,16.78711 0.74701,6.75133 0.96974,27.73754 1.10743,29.40821 0.13768,1.67065 0.12075,4.72449 0.44922,7.27929 0.74283,19.74728 1.03711,39.50792 0.78124,57.4336 h 4.79102 l -2.30469,-57.4336 c -0.19643,-3.48971 -0.55649,-6.01668 -0.81445,-8.77929 -0.18525,-1.91538 -0.22933,-21.0259 -1.02734,-28.23829 -0.80531,-7.27823 -2.51896,-13.46306 -3.44922,-17.18554 -1.83299,-8.20442 -4.11133,-13.03166 -13.93164,-16.50391 -1.57726,-0.55768 -2.94959,-0.32659 -4.6543,-0.42578 -13.12331,-7.96332 -34.60283,-15.76573 -42.08398,-18.85937 -11.17249,-4.30015 -21.66238,-10.07495 -32.40532,-15.28498 -4.61469,-2.18635 -8.32638,-4.7736 -12.78106,-6.49985 -1.81075,-0.55593 -3.83617,-0.56676 -4.58906,0.0192 -1.98931,1.54666 -0.73788,4.64328 -2.00585,6.80859 -1.28267,2.75115 -1.90607,5.82036 -4.60938,7.54883 -1.46055,0.76727 -3.33084,0.26161 -5.48242,0.0645 -36.99786,-3.92366 -60.23628,-45.11715 -62.91602,-51.97266 -0.23791,-0.60864 0.039,-0.85153 0.15821,-1.19727 -0.14,-0.54934 -1.0656,-0.86385 -1.72071,-0.96484 -0.16377,-0.0252 -0.3069,-0.0361 -0.4375,-0.0332 z"
       sodipodi:nodetypes="sscscccsccccsccccccscssssssccccccsccccccccsssccssscsscsscccccscscsscccccscsss" /><path
       id="path172060"
       style="opacity:0.199997;fill:#000000;fill-opacity:1;fill-rule:nonzero;stroke:none;stroke-width:1.33333"
       d="m 193.08084,193.01439 -13.02615,16.386 c 0,0 -2.95775,14.05634 10.85156,27.12695 7.2865,6.89604 12.40855,11.22325 17.06341,14.34934 4.2161,-5.02725 8.49334,-16.21872 8.55556,-18.12027 0.0909,-1.24064 -0.42787,-2.55815 -0.95881,-3.13532 -7.9231,-8.613 -20.18618,-19.58563 -20.23948,-32.79224 z m 25.80255,39.27189 c -4.14878,7.40533 -6.34352,13.02905 -8.76816,20.03208 2.96279,1.92637 5.06798,2.88765 5.94922,2.68555 2.27513,-0.52176 7.99939,-15.48806 7.09571,-18.43164 -0.5411,-1.76252 -2.45763,-3.03895 -4.27677,-4.28599 z m 7.56583,5.95786 -7.57422,20.28906 c 2.55836,1.72065 5.2299,2.62177 6.83398,1.10547 1.84637,-1.81585 5.63062,-13.26112 5.04493,-16.15429 -0.28712,-1.41831 -0.86564,-2.70502 -4.30469,-5.24024 z m 8.55664,6.93359 c -0.90378,-0.18839 -5.10352,18.49805 -5.10352,18.49805 5.35385,1.56747 6.36279,-0.34397 7.25068,-3.81836 0.60846,-2.38094 3.48905,-11.12065 1.76495,-12.48828 -2.80742,-2.22697 -3.16845,-1.90543 -3.91211,-2.19141 z"
       sodipodi:nodetypes="cccccsccccssccccscccssc" /><path
       d="m 107.70777,316.85799 10.45684,42.06274 c 0,0 1.98616,18.96323 4.56101,41.07927 l 10.59218,-0.26309 c -2.63816,-17.98068 -4.89358,-29.60592 -7.49861,-39.4222 -2.60504,-9.81629 -13.41744,-35.13387 -18.11142,-43.45672 z"
       style="opacity:0.199997;fill:#000000;fill-opacity:1;fill-rule:nonzero;stroke:none;stroke-width:1.33333"
       id="path172192"
       sodipodi:nodetypes="cccczc" /><path
       id="path25436"
       style="fill:#000000;fill-opacity:1;stroke:none;stroke-width:1px;stroke-linecap:butt;stroke-linejoin:miter;stroke-opacity:1"
       d="m 372.52344,363.23242 c -1.13141,0.32211 -2.32241,0.70098 -3.45117,0.95901 -2.17641,0.49752 -13.67283,2.6369 -20.20313,3.49023 -28.25293,3.69187 -56.74647,5.81354 -85.25,6.83594 -48.2713,1.73144 -144.14453,-1.21094 -144.14453,-1.21094 l -0.0371,4.88477 c 0,0 95.64882,3.06953 144.36133,1.32226 28.63179,-1.027 57.28155,-3.1571 85.71875,-6.87305 6.5737,-0.85899 16.28129,-2.97924 19.34477,-3.66169 0.0127,0.79719 -0.0149,1.55041 -0.0127,2.17146 C 368.88871,382.28145 368.62109,400 368.62109,400 h 4.70118 c 0,0 -0.83842,-16.73283 -1.13086,-27.74805 -0.0687,-2.58737 0.33203,-9.01953 0.33203,-9.01953 z"
       sodipodi:nodetypes="ssssccssccccss" /><path
       style="fill:#000000;fill-opacity:0.2;stroke:none;stroke-width:1px;stroke-linecap:butt;stroke-linejoin:miter;stroke-opacity:1"
       d="M 376.32184,380.91954 C 376.94451,390.96133 377.01149,400 377.01149,400 l -6.66666,-0.45977 c -0.60554,-12.39758 -0.38535,-33.63242 -0.38535,-33.63242 l 4.74128,-16.0878 c 0,0 1.21931,24.62023 1.62108,31.09953 z"
       id="path25462"
       sodipodi:nodetypes="sccccs" /><path
       style="fill:#000000;fill-opacity:1;stroke:none;stroke-width:1px;stroke-linecap:butt;stroke-linejoin:miter;stroke-opacity:1"
       d="m 88.897346,294.62674 c 0,0 10.189986,12.41322 15.993824,23.90469 5.80383,11.49146 8.578,26.52985 11.31573,40.31915 2.73773,13.7893 4.82758,41.14942 4.82758,41.14942 h 3.33334 c 0,0 -2.2017,-27.81982 -4.82759,-41.95402 -2.62589,-14.1342 -6.61043,-29.96622 -12.09633,-40.50273 -5.4859,-10.53651 -18.546554,-22.91651 -18.546554,-22.91651 z"
       id="path35721"
       sodipodi:nodetypes="czzcczzc" /><path
       id="rect7"
       style="fill:#9d9d9d;fill-rule:evenodd;stroke:#000000;stroke-width:1.86907;stroke-linecap:round;stroke-miterlimit:10"
       d="m 160.14447,368.98077 49.75031,-1.60884 c 1.70924,-0.0552 3.16684,1.09746 3.26814,2.58463 l 0.70855,10.40203 c 0.1013,1.48716 -1.19318,2.72889 -2.90243,2.78417 l -49.75031,1.60885 c -1.70924,0.0552 -3.16684,-1.09747 -3.26814,-2.58462 l -0.70855,-10.40204 c -0.1013,-1.48716 1.19318,-2.7289 2.90243,-2.78418 z" /><g
       id="g24"
       transform="rotate(9.9389293,366.34026,353.66612)"><path
         style="fill:#d30000;fill-opacity:1;stroke:none;stroke-width:2.28583;stroke-linecap:butt;stroke-linejoin:miter;stroke-dasharray:none;stroke-opacity:1"
         d="m 340.46904,271.98026 c 0,0 4.28357,-2.43076 6.84586,-2.28456 2.56228,0.14623 4.82926,2.76897 7.44768,3.4627 2.61843,0.69372 5.11018,-0.11123 7.89345,2.25307 2.78327,2.3643 3.3639,7.38636 3.98575,11.81286 0.62185,4.42652 1.28001,10.52155 1.28001,10.52155 l -15.84239,-3.79853 c 0,0 -1.38033,-8.22975 -2.32979,-11.67637 -0.94945,-3.44661 -2.88264,-7.98285 -2.88264,-7.98285 z"
         id="path9"
         sodipodi:nodetypes="czzzzcczcc" /><path
         style="color:#000000;fill:#000000;stroke-width:0.914331;-inkscape-stroke:none"
         d="m 347.37709,268.54596 c -1.66836,-0.0952 -3.42898,0.55799 -4.88485,1.17482 -1.45588,0.61683 -2.57747,1.2549 -2.57747,1.2549 l -2.18319,1.23868 2.35892,0.85139 5.89743,2.12672 c 0.19812,0.47076 1.81045,4.26807 2.66968,7.38714 0.43454,1.57744 0.85803,4.3963 1.2385,6.83783 0.19023,1.22077 0.37305,2.35137 0.5584,3.24243 0.0926,0.44554 0.1824,0.82851 0.29276,1.16481 0.0552,0.16815 0.11325,0.32349 0.20141,0.49308 0.0882,0.1696 0.17726,0.37913 0.52535,0.60281 0.24734,0.15892 0.31914,0.16402 0.48365,0.22758 0.16453,0.0636 0.36286,0.13434 0.6002,0.21551 0.47466,0.16234 1.0996,0.36382 1.83171,0.58955 1.46424,0.45149 3.35308,0.9987 5.25249,1.50683 1.8994,0.50812 3.80392,0.97629 5.32654,1.26566 0.76129,0.14471 1.42271,0.24568 1.98029,0.28234 0.27879,0.0183 0.52919,0.0229 0.79383,-0.009 0.26465,-0.0315 0.58811,-0.0295 0.99196,-0.44887 0.71234,-0.74044 0.60904,-1.47293 0.57365,-2.25752 -0.035,-0.7846 -0.17392,-1.68689 -0.3528,-2.68943 -0.35785,-2.00509 -0.88937,-4.39439 -1.19074,-6.53971 -0.61885,-4.40516 -1.05083,-9.70511 -4.38217,-12.53499 -1.56842,-1.33232 -3.17024,-1.81412 -4.58339,-2.01116 -1.41316,-0.19706 -2.6324,-0.17679 -3.75256,-0.47356 -1.04829,-0.27773 -2.19631,-1.02693 -3.43491,-1.80281 -1.2386,-0.77587 -2.59264,-1.60175 -4.23469,-1.69546 z m -0.12349,2.30004 c 0.92023,0.0526 1.97941,0.6095 3.16947,1.35498 1.19007,0.74548 2.48385,1.65624 4.05398,2.07223 1.49827,0.39695 2.83384,0.36105 4.01699,0.52602 1.18313,0.16498 2.21936,0.46215 3.43422,1.49413 2.23518,1.89872 2.96526,6.64474 3.5901,11.09259 0.32048,2.2812 0.86213,4.7001 1.20548,6.62394 0.17168,0.96191 0.29178,1.80414 0.31798,2.38515 0.007,0.14655 -0.0165,0.20097 -0.031,0.30247 -0.39314,-0.0305 -0.95027,-0.10642 -1.62832,-0.23529 -1.42349,-0.27053 -3.29742,-0.72911 -5.1658,-1.22895 -1.86838,-0.49981 -3.73656,-1.04162 -5.17071,-1.48384 -0.71708,-0.2211 -1.32751,-0.41751 -1.76761,-0.56803 -0.16706,-0.0571 -0.28107,-0.0993 -0.39266,-0.14066 -0.0598,-0.19102 -0.13442,-0.47883 -0.21229,-0.85314 -0.16649,-0.80042 -0.3464,-1.91363 -0.53545,-3.12684 -0.37811,-2.42641 -0.78135,-5.2297 -1.29626,-7.09887 -0.98753,-3.58483 -2.93338,-8.12903 -2.93338,-8.12903 l -0.19673,-0.46201 -4.27698,-1.54193 c 1.31503,-0.55005 2.93987,-1.03309 3.8188,-0.98294 z"
         id="path8" /><path
         style="fill:#000000;fill-opacity:0.2;stroke:none;stroke-width:0.914331px;stroke-linecap:butt;stroke-linejoin:miter;stroke-opacity:1"
         d="m 346.77287,274.36939 -6.04236,-2.36757 2.9555,-1.89302 2.22745,-0.43955 c 0,0 3.49092,2.9476 4.49915,5.26726 1.00821,2.31967 2.0462,5.89234 2.62508,9.02994 0.57886,3.13761 1.13345,10.15335 1.13345,10.15335 l -2.41261,-0.55495 c 0,0 -1.70106,-8.50865 -1.69802,-9.66574 0.003,-1.15709 -3.28763,-9.52968 -3.28763,-9.52968 z"
         id="path10"
         sodipodi:nodetypes="cccczzccscc" /></g><g
       id="g23"
       transform="translate(0.16672302,-6.0637427)"><path
         style="fill:#d30000;fill-opacity:1;stroke:none;stroke-width:3;stroke-linecap:butt;stroke-linejoin:miter;stroke-dasharray:none;stroke-opacity:1"
         d="m 50.74602,277.33696 c 0,0 -1.129881,-4.75939 0.741016,-7.21797 1.870941,-2.45858 7.460036,-2.40158 10.509068,-4.10166 3.049033,-1.70009 3.890337,-5.3561 7.722034,-5.81175 3.831696,-0.45565 8.296843,2.89576 12.377946,5.35709 4.081102,2.46132 8.424929,6.41046 11.776364,9.46367 3.351435,3.05321 8.898382,7.26887 8.419292,8.68261 -0.47909,1.41374 -13.130562,10.6475 -14.874034,10.69448 -1.743472,0.047 -9.103526,-7.12499 -14.009144,-10.51398 C 68.502944,280.50046 57.99012,274.1092 57.99012,274.1092 Z"
         id="path5"
         sodipodi:nodetypes="czzzzzzzzcc" /><path
         style="color:#000000;fill:#000000;-inkscape-stroke:none"
         d="m 69.540376,258.71587 c -2.370194,0.28185 -3.945526,1.65638 -5.090305,2.92207 -1.144781,1.26568 -2.008713,2.41443 -3.185031,3.07033 -1.177797,0.65671 -3.25974,1.09966 -5.331768,1.62025 -2.072032,0.52056 -4.265163,1.07641 -5.639911,2.88299 -1.306035,1.71628 -1.431024,3.82744 -1.377137,5.48722 0.05389,1.65978 0.37114,2.98389 0.37114,2.98389 l 0.417412,1.75978 1.651599,-0.73493 4.962865,-2.39591 c 2.655138,0.62018 11.635458,5.63343 16.237537,8.81273 2.334315,1.61263 6.081245,3.89927 8.769911,6.12452 1.344334,1.11262 2.59623,2.12411 3.672062,2.88829 0.537917,0.38209 1.029449,0.70306 1.505513,0.95293 0.476063,0.24986 0.891467,0.49161 1.63725,0.47151 0.854816,-0.023 1.178798,-0.28538 1.757574,-0.57754 0.578679,-0.29259 1.243758,-0.67886 1.986288,-1.14044 1.485069,-0.92316 2.580916,-1.79876 4.323283,-3.06023 1.74238,-1.26146 3.441175,-2.56296 4.760832,-3.66057 0.65982,-0.54881 1.22362,-1.04379 1.66799,-1.47993 0.44437,-0.43614 0.77188,-0.56022 1.07414,-1.4522 0.23745,-0.70068 0.0612,-1.29431 -0.1329,-1.73753 -0.19416,-0.44321 -0.45051,-0.81501 -0.75036,-1.19602 -0.5997,-0.76205 -1.3926,-1.54616 -2.29244,-2.37719 -1.799653,-1.66204 -4.027716,-3.48191 -5.652942,-4.96251 -3.35242,-3.05411 -7.727068,-7.05462 -12.012705,-9.6393 -1.9899,-1.2001 -4.145917,-2.67085 -6.367325,-3.8194 -2.221407,-1.14855 -4.550664,-2.02963 -6.962567,-1.74282 z m 0.354125,2.97993 c 1.41979,-0.16883 3.240612,0.39811 5.229976,1.42669 1.989361,1.02858 4.105075,2.46459 6.196281,3.7258 3.876556,2.33797 8.190135,6.2341 11.540585,9.28641 1.726206,1.5726 3.947932,3.38709 5.639819,4.94961 0.845946,0.78125 1.559638,1.50721 1.969978,2.02863 0.10787,0.13701 0.12776,0.18913 0.18902,0.28611 -0.0713,0.10436 0.005,-0.0245 -0.12419,0.10202 -0.34602,0.33963 -0.863585,0.79909 -1.484452,1.31549 -1.241726,1.03279 -2.90352,2.30657 -4.601834,3.53614 -1.698307,1.22956 -2.754422,2.07609 -4.146829,2.94165 -0.696202,0.43279 -1.308853,0.78648 -1.757635,1.01338 -0.448783,0.22691 -0.902301,0.26564 -0.483359,0.25432 0.309927,-0.008 0.116196,0.019 -0.163115,-0.12763 -0.279312,-0.14659 -0.687871,-0.40539 -1.161785,-0.74201 -0.94783,-0.67327 -2.170818,-1.65723 -3.497632,-2.75535 -2.653626,-2.19624 -6.40691,-4.50514 -8.97821,-6.28149 -5.004545,-3.45733 -16.919272,-9.76536 -18.295775,-9.24777 -1.376502,0.51759 -3.927835,2.56493 -3.927835,2.56493 -0.02579,-0.26596 -0.114082,-1.06698 -0.124005,-1.3712 -0.04333,-1.33456 0.202062,-2.83146 0.766922,-3.57375 0.496186,-0.65203 2.033192,-1.29938 3.985702,-1.78995 1.952503,-0.49061 4.188223,-0.86763 6.059457,-1.91099 1.872712,-1.04419 2.953894,-2.57401 3.949946,-3.67526 0.996053,-1.10126 1.757468,-1.78199 3.218967,-1.95579 z"
         id="path4"
         sodipodi:nodetypes="ssssssccccssssscssssssssssssssssssscssssscsssszccssssss" /></g><path
       style="color:#000000;fill:#000000;-inkscape-stroke:none"
       d="m 84.001953,255.125 -1.587891,2.54492 c 0,0 10.289658,6.46441 14.316407,10.01172 4.212141,3.71063 6.662221,6.58586 10.935551,12.05273 4.24235,5.42725 9.25461,12.6742 13.91015,20.78711 4.65146,8.10581 9.11323,17.52261 13.62891,28.06446 4.46816,10.43092 7.11542,21.08786 9.4414,29.94336 2.28411,8.69601 3.34766,18.01172 3.34766,18.01172 l 2.98047,-0.33985 c 0,0 -1.06641,-9.45102 -3.42578,-18.43359 -2.31747,-8.82308 -4.99579,-19.64759 -9.58594,-30.36328 -4.54263,-10.60478 -9.04686,-20.11983 -13.78516,-28.37696 -4.73421,-8.25 -9.81454,-15.59626 -14.14843,-21.14062 -4.30293,-5.50474 -6.95731,-8.61695 -11.316409,-12.45703 C 94.168396,261.42628 84.001953,255.125 84.001953,255.125 Z m -33.226562,16.54883 -0.283204,2.98633 c 0,0 5.096236,0.49799 10.207032,2.63281 5.15962,2.15522 14.043907,7.23244 20.126953,12.04687 6.092377,4.82182 11.933505,11.24715 16.363281,16.84766 4.357037,5.50855 7.486337,11.7211 11.732427,21.59375 4.08267,9.49269 7.2418,29.23739 9.43164,38.13281 0.99355,4.03595 2.17956,8.78384 2.18382,8.78238 l 2.68317,-0.92092 c 0,0 -0.75754,-3.55335 -1.94922,-8.55664 -2.04597,-8.59015 -5.15351,-28.29901 -9.59375,-38.62305 -4.2768,-9.94407 -7.53013,-16.44795 -12.134761,-22.26953 C 95.011075,298.59655 89.062778,292.034 82.6875,286.98828 76.302891,281.93518 67.417,276.84849 61.855469,274.52539 56.245113,272.1819 50.775391,271.67383 50.775391,271.67383 Z"
       id="path6"
       sodipodi:nodetypes="ccsssssccssssscccsssssccsscssc" /><path
       style="color:#000000;fill:#000000;-inkscape-stroke:none"
       d="m 357.80934,270.6808 -3.07497,-0.88393 c 0,0 2.24983,13.79469 2.71875,24.45313 0.46956,10.67276 -0.27108,27.76201 -0.9121,39.99219 -0.63744,12.16166 -2.73243,33.22656 -2.73243,33.22656 l 2.98633,0.29687 c 0,0 2.0963,-21.04226 2.74219,-33.36523 0.6423,-12.25446 1.39382,-29.33221 0.91211,-40.28125 -0.48234,-10.96336 -2.63988,-23.43834 -2.63988,-23.43834 z m 21.64964,18.286 -1.79139,0.28682 c 0,0 -0.15696,3.53042 -0.0345,9.63654 0.12332,6.14876 -0.35458,16.27515 -1.58623,27.3989 -1.21618,10.98386 -6.93554,39.08985 -6.93554,39.08985 l 2.93945,0.59961 c 0,0 5.70971,-27.918 6.97656,-39.35938 1.25131,-11.30148 1.38923,-21.75737 1.26368,-28.01758 -0.12642,-6.30284 -0.83204,-9.63476 -0.83204,-9.63476 z"
       id="path11"
       sodipodi:nodetypes="ccssccsscccssccssc" /><path
       style="color:#000000;fill:#000000;fill-opacity:0.2;-inkscape-stroke:none"
       d="m 357.08203,370.22852 c 0,0 -0.20396,9.96888 -0.45508,14.92382 C 356.38304,389.96522 355.60156,400 355.60156,400 h 0.99805 c 0,0 0.77944,-9.94581 1.02539,-14.79886 0.25315,-4.99511 0.45703,-14.95117 0.45703,-14.95117 z m -2.96289,1.47656 c 0,0 -0.42315,12.70492 -0.79883,19.02929 C 353.14504,393.68514 352.63672,400 352.63672,400 h 0.99805 c 0,0 0.50625,-6.22148 0.68359,-9.20707 0.37774,-6.35919 0.79883,-19.05469 0.79883,-19.05469 z"
       id="path13"
       sodipodi:nodetypes="csccscccsccscc" /><path
       style="color:#000000;fill:#000000;-inkscape-stroke:none;fill-opacity:0.2"
       d="m 152.71094,377.99805 -0.97461,0.21875 c 0,0 2.14524,9.64831 2.73047,13.19922 0.58832,3.56966 1.02148,8.58398 1.02148,8.58398 h 0.99609 c 0,0 -0.43279,-5.11691 -1.03125,-8.74806 -0.60154,-3.64991 -2.74218,-13.2539 -2.74218,-13.2539 z m -3.31055,0.21289 -0.96875,0.24804 c 0,0 2.42597,9.45102 3.18555,13.98438 0.76711,4.57836 1.02148,7.55664 1.02148,7.55664 h 0.99414 c 0,0 -0.25759,-3.11688 -1.02929,-7.72261 -0.77925,-4.65073 -3.20313,-14.0664 -3.20313,-14.0664 z"
       id="path15"
       sodipodi:nodetypes="ccsccsccccsccscc" /><g
       id="g16"
       transform="matrix(0.39512223,0.00194144,-0.00230627,0.421131,222.65211,297.49961)"><path
         id="path39671"
         style="fill:#d9a14b;fill-opacity:1;stroke:#000000;stroke-width:2.45143182;stroke-miterlimit:9;stroke-dasharray:none;stroke-opacity:1"
         d="m 291.27512,127.0312 a 44.358515,44.358515 0 0 0 -44.35863,44.35863 44.358515,44.358515 0 0 0 44.35863,44.35865 44.358515,44.358515 0 0 0 44.35863,-44.35865 44.358515,44.358515 0 0 0 -44.35863,-44.35863 z m 0,7.74952 a 36.610185,36.610185 0 0 1 36.60911,36.60911 36.610185,36.610185 0 0 1 -36.60911,36.61152 36.610185,36.610185 0 0 1 -36.61152,-36.61152 36.610185,36.610185 0 0 1 36.61152,-36.60911 z" /><path
         style="fill:#d9a14b;fill-opacity:1;stroke:#000000;stroke-width:2.94171818;stroke-linecap:butt;stroke-linejoin:miter;stroke-dasharray:none;stroke-opacity:1"
         d="m 256.38771,227.25328 c 3.68401,-38.91648 14.60206,-77.63203 35.1655,-108.91258 17.41529,30.67772 27.79751,62.76204 34.16078,98.0615 0,0 -12.53724,-28.43599 -21.5012,-28.53429 -15.99705,-0.50019 -47.82508,39.38537 -47.82508,39.38537 z"
         id="path39673"
         sodipodi:nodetypes="ccccc" /><path
         style="fill:#000000;fill-opacity:1;stroke:none;stroke-width:1.22197px;stroke-linecap:butt;stroke-linejoin:miter;stroke-opacity:1"
         d="m 289.14187,164.35727 3.61701,-30.94564 4.01892,30.74468 8.43973,3.21515 -7.63594,3.21512 1.00472,8.03783 -5.62647,-7.63593 -5.42554,8.64065 1.00473,-9.24349 -7.63593,-3.61703 z"
         id="path39675" /><path
         d="m -123.83311,116.76623 c 0,0 40.910014,52.81153 153.817,40.69684 0,0 -98.901168,-7.82652 -153.817,-40.69684 z m 250.88349,26.67323 c 0,0 -118.5677549,6.0334 -212.240314,-42.00106 -93.672536,-48.031302 -97.347376,-91.395968 -97.347376,-91.395968 0,0 130.663272,110.409808 309.58769,133.397028 z"
         style="opacity:0.199997;fill:#000000;fill-opacity:1;fill-rule:nonzero;stroke:none;stroke-width:3.26857"
         id="path1"
         sodipodi:nodetypes="ccccccc" /></g><path
       id="path172176"
       style="display:inline;opacity:0.199997;fill:#000000;fill-opacity:1;fill-rule:nonzero;stroke:none;stroke-width:1.33333"
       d="m 181.2168,206.23438 -5.59974,3.20954 -42.12097,18.68303 c 0,0 -9.68983,6.52078 -14.58714,9.38998 -9.31511,5.45745 -18.47245,10.60583 -28.041762,15.60416 -2.542008,1.32776 -7.814454,3.59961 -7.814454,3.59961 0,0 -10.022357,-3.08956 -12.353045,-2.96836 -3.175164,0.16511 -5.238234,4.55665 -7.473857,5.95336 -4.019074,2.51094 -9.070452,2.00284 -11.301416,4.26436 -1.862048,1.88755 -0.425621,7.94289 -0.425621,7.94289 -7.458215,8.90106 -8.266982,18.72966 -11.817154,36.36635 C 34.491583,338.38212 28.721961,369.89696 23.533203,400 l 23.455078,-0.0332 c -0.309785,-7.96139 -0.03999,-15.2824 0.69336,-22.02539 0.04557,-0.004 0.08875,-0.005 0.134765,-0.01 3.85021,-0.40551 4.570421,-4.516 8.734375,-9.65625 4.163955,-5.14024 10.915826,-13.70014 15.632813,-21.60937 4.716986,-7.90924 14.551968,-24.12994 12.414062,-25.7461 -2.137905,-1.61616 -7.698953,4.05035 -15.171875,9.19531 -1.949984,1.34253 -4.573556,2.96381 -7.445312,4.75977 15.680793,-24.1033 24.439926,-34.98812 49.396481,-44.24219 6.44679,-2.34431 12.77869,-3.93625 18.38672,-6.39453 2.864,-1.25543 26.72875,-8.15284 30.01172,-9.04687 34.89894,-9.50382 51.91602,-9.61719 51.91602,-9.61719 0,0 -44.01527,-30.20718 -30.14063,-58.89649 z M 86.214844,346.78711 c -0.688093,0.0106 -1.412972,0.29836 -1.970703,0.96094 -1.487286,1.76688 -11.994959,18.6013 -17.578125,27.42383 C 61.082849,383.9944 51.494141,400 51.494141,400 h 25.748047 c -10e-7,0 -0.02848,1.12033 1.83789,-3.67773 1.866371,-4.79807 5.789329,-17.50622 7.357422,-25.74805 1.568093,-8.24183 1.977556,-20.27693 1.972656,-21.98438 -0.0031,-1.06716 -1.048492,-1.82033 -2.195312,-1.80273 z"
       sodipodi:nodetypes="cccsscsssccccccssssccsscccsssccssss" /><path
       id="path26309"
       style="color:#000000;fill:#000000;fill-opacity:0.3;-inkscape-stroke:none"
       d="m 194.62622,202.42456 c 0,0 -3.56131,3.97022 -5.56763,6.37232 -2.00631,2.40208 -5.64147,8.3833 -5.64147,8.3833 l 0.45508,0.46679 c 0,0 4.17045,-5.46396 6.17663,-7.86572 2.00617,-2.40179 5.1438,-6.84106 5.1438,-6.84106 z m 4.67907,7.96796 c 0,0 -3.96502,5.00424 -5.91662,7.69537 -1.9516,2.69112 -5.57031,8.61133 -5.57031,8.61133 l 0.53516,0.44531 c 0,0 4.24969,-5.42447 6.20117,-8.11523 1.95147,-2.6908 5.41467,-8.14654 5.41466,-8.14654 z m 5.88282,7.29578 c 0,0 -3.78983,5.23176 -5.65686,7.95037 -1.86703,2.71859 -5.30273,8.68164 -5.30273,8.68164 l 0.54296,0.42969 c 0,0 4.07839,-5.48879 5.94532,-8.20703 1.8669,-2.71828 5.14318,-8.38592 5.14318,-8.38592 z m 6.02673,8.02068 c 0,0 -3.37358,5.68484 -4.82226,8.41016 -1.44869,2.72532 -4.01953,8.64453 -4.01953,8.64453 l 0.54297,0.35352 c 0,0 3.20762,-5.52893 4.65625,-8.25391 1.4486,-2.72501 4.30664,-8.77344 4.30664,-8.77344 z m 7.68946,6.35352 c 0,0 -3.02252,5.89045 -4.30469,8.70508 -1.28219,2.81463 -3.49609,8.89648 -3.49609,8.89648 l 0.55859,0.32617 c 0,0 2.86825,-5.72671 4.15039,-8.54101 1.28212,-2.8143 3.77344,-9.04102 3.77344,-9.04102 z m 7.23437,7.14844 c 0,0 -2.5496,5.95863 -3.60937,8.79492 -1.05979,2.83632 -2.80664,8.92773 -2.80664,8.92773 l 0.57031,0.28321 c 0,0 2.40899,-5.78708 3.46875,-8.62305 1.05976,-2.83598 3.06836,-9.08984 3.06836,-9.08984 z m 8.86719,5.21289 c 0,0 -1.95671,5.98113 -2.74219,8.8164 -0.78548,2.83529 -1.9707,8.88477 -1.9707,8.88477 l 0.5625,0.23242 c 0,0 1.83756,-5.80371 2.62305,-8.63867 0.78547,-2.83497 2.20507,-9.06055 2.20507,-9.06055 z m 9.77148,4.02344 c 0,0 -1.95866,5.98112 -2.74414,8.8164 -0.78548,2.83529 -1.96875,8.88477 -1.96875,8.88477 l 0.5625,0.23047 c 0,0 1.83756,-5.80177 2.62305,-8.63672 0.78548,-2.83497 2.20313,-9.0625 2.20312,-9.0625 z m 19.42383,1.83984 c 0,0 -1.95671,5.98113 -2.74219,8.81641 -0.78547,2.83528 -1.9707,8.88476 -1.9707,8.88476 l 0.5625,0.23047 c 0,0 1.83756,-5.80371 2.62305,-8.63867 0.78548,-2.83497 2.20508,-9.06055 2.20508,-9.06055 z m -10.11328,0.34375 c 0,0 -1.95866,5.98113 -2.74414,8.81641 -0.78548,2.83528 -1.96875,8.88476 -1.96875,8.88476 l 0.56055,0.23242 c 0,0 1.83951,-5.80371 2.625,-8.63867 0.78548,-2.83497 2.20312,-9.0625 2.20312,-9.0625 z"
       sodipodi:nodetypes="csccscccsccscccsccscccsccscccsccscccsccscccsccscccsccscccsccscccsccscc" /><path
       d="m 274.05565,242.7931 c 0.42856,0.70227 0.80794,1.49865 1.05,2.67281 0.65223,3.1544 -0.65503,3.36735 -1.87586,6.25146 -1.82532,4.31525 -2.19121,9.7828 -3.05314,14.34731 -1.16121,-2.08193 -1.64272,-3.18607 -1.75516,-5.46218 -0.1155,-2.31874 -0.1658,-4.58306 0.17769,-6.93019 0.24388,-1.67035 3.00538,-4.8124 3.60619,-6.28073 1.21365,-2.95713 0.3057,-5.16612 -0.70821,-8.02006 0.27935,0.28516 0.47713,0.26517 0.81278,0.48892 0.53153,1.24537 1.18064,2.00664 1.74571,2.93266"
       style="fill:#000000;fill-opacity:1;fill-rule:nonzero;stroke:none;stroke-width:1.33333"
       id="path172002" /></g></svg>
