<?xml version="1.0" encoding="UTF-8" standalone="no"?>
<!-- Created with Inkscape (http://www.inkscape.org/) -->

<svg
   width="24"
   height="24"
   viewBox="0 0 24 24"
   version="1.1"
   id="svg1"
   xml:space="preserve"
   inkscape:version="1.3 (0e150ed, 2023-07-21)"
   sodipodi:docname="d20.svg"
   xmlns:inkscape="http://www.inkscape.org/namespaces/inkscape"
   xmlns:sodipodi="http://sodipodi.sourceforge.net/DTD/sodipodi-0.dtd"
   xmlns="http://www.w3.org/2000/svg"
   xmlns:svg="http://www.w3.org/2000/svg"><sodipodi:namedview
     id="namedview1"
     pagecolor="#ffffff"
     bordercolor="#666666"
     borderopacity="1.0"
     inkscape:showpageshadow="2"
     inkscape:pageopacity="0.0"
     inkscape:pagecheckerboard="0"
     inkscape:deskcolor="#d1d1d1"
     inkscape:document-units="px"
     showguides="true"
     inkscape:zoom="31.791667"
     inkscape:cx="12.015727"
     inkscape:cy="12.031455"
     inkscape:window-width="1848"
     inkscape:window-height="1004"
     inkscape:window-x="2257"
     inkscape:window-y="167"
     inkscape:window-maximized="0"
     inkscape:current-layer="layer1"
     showgrid="false"><sodipodi:guide
       position="0.47078668,5.3495783"
       orientation="1,0"
       id="guide1"
       inkscape:locked="false" /><sodipodi:guide
       position="1.4241297,6.561854"
       orientation="1,0"
       id="guide2"
       inkscape:locked="false" /><sodipodi:guide
       position="2.4833998,6.2676123"
       orientation="1,0"
       id="guide3"
       inkscape:locked="false" /><sodipodi:guide
       position="5.0256478,4.3491566"
       orientation="1,0"
       id="guide4"
       inkscape:locked="false" /><sodipodi:guide
       position="3.8839901,3.4193529"
       orientation="1,0"
       id="guide5"
       inkscape:locked="false" /><sodipodi:guide
       position="5.9319122,3.4664315"
       orientation="1,0"
       id="guide6"
       inkscape:locked="false" /><sodipodi:guide
       position="3.9075295,5.8085953"
       orientation="0,-1"
       id="guide7"
       inkscape:locked="false" /><sodipodi:guide
       position="3.9781475,5.1024153"
       orientation="0,-1"
       id="guide8"
       inkscape:locked="false" /><sodipodi:guide
       position="3.6721361,2.3130041"
       orientation="0,-1"
       id="guide9"
       inkscape:locked="false" /><sodipodi:guide
       position="2.7541021,3.7724429"
       orientation="0,-1"
       id="guide10"
       inkscape:locked="false" /><sodipodi:guide
       position="1.1416577,0.83002606"
       orientation="0,-1"
       id="guide11"
       inkscape:locked="false" /><sodipodi:guide
       position="3.5191305,0.50047537"
       orientation="0,-1"
       id="guide12"
       inkscape:locked="false" /></sodipodi:namedview><defs
     id="defs1" /><g
     inkscape:label="Layer 1"
     inkscape:groupmode="layer"
     id="layer1"><path
       style="color:#000000;fill:#000000;stroke-width:3.77953;stroke-linejoin:round;-inkscape-stroke:none"
       d="M 9.6110029,1.3811546 A 0.50005004,0.50005004 0 0 0 9.1090343,1.5066468 L 1.2694665,9.4052697 A 0.50005004,0.50005004 0 0 0 1.1513562,9.9220023 L 4.9087387,21.105566 a 0.50005004,0.50005004 0 0 0 0.4133858,0.332187 l 9.1683085,1.203248 a 0.50005004,0.50005004 0 0 0 0.39124,-0.11811 l 7.846949,-6.806105 A 0.50005004,0.50005004 0 0 0 22.87626,15.177908 L 19.340335,4.5406037 A 0.50005004,0.50005004 0 0 0 19.015533,4.2231838 Z m 0,1.0408466 8.8656501,2.6796262 3.351379,10.0762806 -7.433564,6.437009 L 5.7576558,20.485487 2.1995847,9.8924747 Z"
       id="path12" /><path
       style="color:#000000;fill:#000000;stroke-width:3.77953;-inkscape-stroke:none"
       d="m 9.2492903,1.8314499 -0.073819,0.3174213 -1.8602365,8.3193908 -0.00738,-0.0074 -0.044291,0.221457 L 1.5130712,9.4864526 1.6533272,9.8998385 5.2335441,20.529761 5.1892521,20.7586 h 0.1254916 l 0.2676738,0.544006 0.1161864,-0.551388 10.7701781,-0.110729 0.19931,0.206691 0.05167,-0.206691 0.211819,-0.101733 -0.13062,-0.208294 3.211122,-12.4384853 0.362351,-0.1176265 -0.281148,-0.2145562 0.05905,-0.2214577 -0.317419,0.081199 z M 9.5888571,2.5770209 19.118878,7.6114702 7.7876758,10.630664 Z M 19.458445,8.0470019 16.402342,19.858027 8.7325578,11.94464 7.9353136,11.110487 Z m -17.1924233,2.1112211 4.8868117,1.0187 -0.029528,0.147638 h 0.00737 l -1.6978233,8.230808 z m 5.3371069,1.336122 8.3267724,8.651576 -10.1279537,0.103346 z"
       id="path16"
       sodipodi:nodetypes="cccccccccccccccccccccccccccccccccccccccccc" /><path
       style="font-size:3.52777px;line-height:1.25;font-family:TrekArrowheads;-inkscape-font-specification:TrekArrowheads;text-align:end;text-anchor:end;stroke-width:0.438781"
       d="M 15.163413,7.9233096 C 14.104412,6.9334063 13.366762,6.7716825 12.812464,6.7716825 c -0.03943,0 -0.07722,0.00234 -0.113363,0.00703 -0.54672,0.067248 -1.085005,0.9180009 -1.525835,1.9860766 -0.769797,-1.6685713 -1.029694,-3.5201541 -0.868709,-4.9885627 1.974267,1.2682422 3.442613,2.5457548 4.85886,4.1470863 z"
       id="text16"
       aria-label="A"
       sodipodi:nodetypes="ssccccs" /></g></svg>
