<?xml version="1.0" encoding="UTF-8" standalone="no"?>
<!-- Created with Inkscape (http://www.inkscape.org/) -->

<svg
   width="24"
   height="24"
   viewBox="0 0 6.3499999 6.35"
   version="1.1"
   id="svg1"
   xml:space="preserve"
   inkscape:version="1.3 (0e150ed, 2023-07-21)"
   sodipodi:docname="d20.svg"
   xmlns:inkscape="http://www.inkscape.org/namespaces/inkscape"
   xmlns:sodipodi="http://sodipodi.sourceforge.net/DTD/sodipodi-0.dtd"
   xmlns="http://www.w3.org/2000/svg"
   xmlns:svg="http://www.w3.org/2000/svg"><sodipodi:namedview
     id="namedview1"
     pagecolor="#ffffff"
     bordercolor="#666666"
     borderopacity="1.0"
     inkscape:showpageshadow="2"
     inkscape:pageopacity="0.0"
     inkscape:pagecheckerboard="0"
     inkscape:deskcolor="#d1d1d1"
     inkscape:document-units="px"
     showguides="true"
     inkscape:zoom="31.791667"
     inkscape:cx="12"
     inkscape:cy="12"
     inkscape:window-width="1848"
     inkscape:window-height="1004"
     inkscape:window-x="2257"
     inkscape:window-y="195"
     inkscape:window-maximized="0"
     inkscape:current-layer="layer1"><sodipodi:guide
       position="0.47078668,5.3495783"
       orientation="1,0"
       id="guide1"
       inkscape:locked="false" /><sodipodi:guide
       position="1.4241297,6.561854"
       orientation="1,0"
       id="guide2"
       inkscape:locked="false" /><sodipodi:guide
       position="2.4833998,6.2676123"
       orientation="1,0"
       id="guide3"
       inkscape:locked="false" /><sodipodi:guide
       position="5.0256478,4.3491566"
       orientation="1,0"
       id="guide4"
       inkscape:locked="false" /><sodipodi:guide
       position="3.8839901,3.4193529"
       orientation="1,0"
       id="guide5"
       inkscape:locked="false" /><sodipodi:guide
       position="5.9319122,3.4664315"
       orientation="1,0"
       id="guide6"
       inkscape:locked="false" /><sodipodi:guide
       position="3.9075295,5.8085953"
       orientation="0,-1"
       id="guide7"
       inkscape:locked="false" /><sodipodi:guide
       position="3.9781475,5.1024153"
       orientation="0,-1"
       id="guide8"
       inkscape:locked="false" /><sodipodi:guide
       position="3.6721361,2.3130041"
       orientation="0,-1"
       id="guide9"
       inkscape:locked="false" /><sodipodi:guide
       position="2.7541021,3.7724429"
       orientation="0,-1"
       id="guide10"
       inkscape:locked="false" /><sodipodi:guide
       position="1.1416577,0.83002606"
       orientation="0,-1"
       id="guide11"
       inkscape:locked="false" /><sodipodi:guide
       position="3.5191305,0.50047537"
       orientation="0,-1"
       id="guide12"
       inkscape:locked="false" /></sodipodi:namedview><defs
     id="defs1" /><g
     inkscape:label="Layer 1"
     inkscape:groupmode="layer"
     id="layer1"><path
       style="color:#000000;fill:#000000;stroke-linejoin:round;-inkscape-stroke:none"
       d="M 2.546875,0.36914063 A 0.13230489,0.13230489 0 0 0 2.4140625,0.40234375 L 0.33984375,2.4921875 a 0.13230489,0.13230489 0 0 0 -0.03125,0.1367188 L 1.3027344,5.5878906 a 0.13230489,0.13230489 0 0 0 0.109375,0.087891 l 2.4257812,0.3183594 a 0.13230489,0.13230489 0 0 0 0.1035157,-0.03125 L 6.0175781,4.1621094 A 0.13230489,0.13230489 0 0 0 6.0566406,4.0195312 L 5.1210937,1.2050781 a 0.13230489,0.13230489 0 0 0 -0.085937,-0.083984 z m 0,0.27539062 L 4.8925781,1.3535156 5.7792969,4.0195312 3.8125,5.7226562 1.5273437,5.4238281 0.5859375,2.6210938 Z"
       id="path12" /><path
       style="color:#000000;fill:#000000;-inkscape-stroke:none"
       d="M 2.4511719,0.48828125 2.4316406,0.57226562 1.9394531,2.7734375 1.9375,2.7714844 1.9257812,2.8300781 0.40429688,2.5136719 l 0.0371094,0.109375 0.94726562,2.8125 -0.011719,0.060547 h 0.033203 l 0.070822,0.1439348 0.030741,-0.1458879 2.8496094,-0.029297 0.052734,0.054687 0.013672,-0.054687 0.056044,-0.026917 -0.03456,-0.055111 0.8496094,-3.2910156 0.095872,-0.031122 -0.074387,-0.056768 0.015625,-0.058594 -0.083984,0.021484 z M 2.5410156,0.68554687 5.0625,2.0175781 2.0644531,2.8164063 Z M 5.1523437,2.1328125 4.34375,5.2578125 2.3144531,3.1640625 2.1035156,2.9433594 Z M 0.60351562,2.6914063 1.8964844,2.9609375 1.8886719,3 h 0.00195 L 1.4414062,5.1777344 Z M 2.015625,3.0449219 4.21875,5.3339844 1.5390625,5.3613281 Z"
       id="path16"
       sodipodi:nodetypes="cccccccccccccccccccccccccccccccccccccccccc" /><path
       style="font-size:3.52777px;line-height:1.25;font-family:TrekArrowheads;-inkscape-font-specification:TrekArrowheads;text-align:end;text-anchor:end;stroke-width:0.116094"
       d="M 4.0159501,2.1000856 C 3.735756,1.8381737 3.5405862,1.7953843 3.3939281,1.7953843 c -0.010432,0 -0.02043,6.204e-4 -0.029994,0.00186 C 3.2192812,1.8150371 3.0768601,2.040132 2.9602236,2.322727 2.7565483,1.8812509 2.6877839,1.391353 2.7303778,1.0028366 3.252736,1.3383923 3.6412357,1.6764008 4.015951,2.1000864 Z"
       id="text16"
       aria-label="A"
       sodipodi:nodetypes="ssccccs" /></g></svg>
