<?xml version="1.0" encoding="UTF-8" standalone="no"?>
<!-- Created with Inkscape (http://www.inkscape.org/) -->

<svg
   width="120"
   height="450"
   viewBox="0 0 120 450"
   version="1.1"
   id="svg5"
   inkscape:version="1.1.2 (b8e25be8, 2022-02-05)"
   sodipodi:docname="lcars_scale_left.svg"
   xmlns:inkscape="http://www.inkscape.org/namespaces/inkscape"
   xmlns:sodipodi="http://sodipodi.sourceforge.net/DTD/sodipodi-0.dtd"
   xmlns="http://www.w3.org/2000/svg"
   xmlns:svg="http://www.w3.org/2000/svg">
  <sodipodi:namedview
     id="namedview7"
     pagecolor="#000000"
     bordercolor="#666666"
     borderopacity="1.0"
     inkscape:pageshadow="2"
     inkscape:pageopacity="0"
     inkscape:pagecheckerboard="0"
     inkscape:document-units="px"
     showgrid="false"
     units="px"
     scale-x="1"
     showguides="true"
     inkscape:guide-bbox="true"
     inkscape:zoom="1.6511111"
     inkscape:cx="95.39031"
     inkscape:cy="246.8035"
     inkscape:window-width="1440"
     inkscape:window-height="969"
     inkscape:window-x="2390"
     inkscape:window-y="208"
     inkscape:window-maximized="0"
     inkscape:current-layer="layer1">
    <sodipodi:guide
       position="222.27456,425"
       orientation="0,1"
       id="guide824"
       inkscape:label=""
       inkscape:locked="false"
       inkscape:color="rgb(0,0,255)" />
    <sodipodi:guide
       position="123.55316,25"
       orientation="0,1"
       id="guide826"
       inkscape:label=""
       inkscape:locked="false"
       inkscape:color="rgb(0,0,255)" />
  </sodipodi:namedview>
  <defs
     id="defs2" />
  <g
     inkscape:label="Layer 1"
     inkscape:groupmode="layer"
     id="layer1">
    <rect
       style="opacity:0.626959;fill:#774466;fill-opacity:1;fill-rule:evenodd;stroke:none;stroke-width:1.94841;stroke-linecap:round;stroke-miterlimit:4;stroke-dasharray:none;stroke-opacity:1"
       id="rect5334"
       width="5.4200778"
       height="0.49273437"
       x="97.168266"
       y="261.41177" />
    <path
       style="fill:none;stroke:#6688cc;stroke-width:2.43551;stroke-linecap:butt;stroke-linejoin:miter;stroke-miterlimit:4;stroke-dasharray:none;stroke-opacity:1"
       d="M 32.71035,246.72023 V 227.9058"
       id="path5477"
       inkscape:connector-curvature="0" />
    <path
       style="fill:#f89b24;fill-opacity:1;stroke:none;stroke-width:0.487102px;stroke-linecap:butt;stroke-linejoin:miter;stroke-opacity:1"
       d="M 94.837756,24.999995 C 76.430736,24.812947 57.93341,43.792845 57.398426,58.44833 V 83.361911 H 72.529045 V 105.6478 H 85.969076 V 70.292913 C 85.301306,56.445472 99.124056,45.958737 110.35752,46.205128 V 24.999995 Z"
       id="path5530" />
    <path
       style="fill:#f89b24;fill-opacity:1;stroke:none;stroke-width:0.487102px;stroke-linecap:butt;stroke-linejoin:miter;stroke-opacity:1"
       d="m 57.398426,85.827867 v 97.907593 h 12.662763 v -26.57658 h 0.09323 V 85.827867 Z"
       id="path5528" />
    <path
       style="fill:#dd6644;fill-opacity:1;stroke:none;stroke-width:0.487102px;stroke-linecap:butt;stroke-linejoin:miter;stroke-opacity:1"
       d="m 72.529045,108.11375 v 49.04513 h 13.440031 v -49.04513 z"
       id="path5526" />
    <path
       style="fill:#fffefe;fill-opacity:1;stroke:none;stroke-width:0.487102px;stroke-linecap:butt;stroke-linejoin:miter;stroke-opacity:1"
       d="m 72.529045,159.62484 v 24.11062 h 0.09323 v 83.20318 h -0.09323 v 23.4732 h 13.440031 v -130.787 z"
       id="path5524" />
    <path
       style="fill:#f9ac76;fill-opacity:1;stroke:none;stroke-width:0.487102px;stroke-linecap:butt;stroke-linejoin:miter;stroke-opacity:1"
       d="m 57.398426,186.20046 v 78.27127 h 12.662763 v -78.27127 z"
       id="path5522" />
    <path
       style="fill:#f89b24;fill-opacity:1;stroke:none;stroke-width:0.487102px;stroke-linecap:butt;stroke-linejoin:miter;stroke-opacity:1"
       d="m 57.398426,266.93769 v 97.99987 H 70.154421 V 342.28825 292.8778 h -0.09323 v -25.94011 z"
       id="path5520" />
    <path
       style="fill:#f9ac76;fill-opacity:1;stroke:none;stroke-width:0.487102px;stroke-linecap:butt;stroke-linejoin:miter;stroke-opacity:1"
       d="m 72.529045,292.8778 v 46.9445 h 13.440031 v -46.9445 z"
       id="path5518" />
    <path
       style="fill:#f89b24;fill-opacity:1;stroke:none;stroke-width:0.487102px;stroke-linecap:butt;stroke-linejoin:miter;stroke-opacity:1"
       d="m 72.529045,342.28825 v 25.02394 H 57.398426 v 24.22098 c -0.140286,17.3643 19.120183,33.94108 37.15013,33.69474 l 15.808964,-0.24736 v -19.07976 c -16.438934,0.48258 -24.388444,-6.96326 -24.388444,-23.42754 v -40.185 z"
       id="path5487" />
    <g
       aria-label="010"
       id="text1341"
       style="font-weight:500;font-size:10.3915px;line-height:97.4205px;font-family:'Swiss 911 Ultra Compressed';-inkscape-font-specification:'Swiss 911 Ultra Compressed, Medium';text-align:center;letter-spacing:0px;word-spacing:0px;text-anchor:middle;fill:#9179b7;stroke-width:0.487102px">
      <path
         d="m 15.246138,83.772379 v 16.04189 c 0,3.073291 1.621075,4.660591 4.694364,4.660591 3.073288,0 4.694363,-1.5873 4.694363,-4.660591 v -16.04189 c 0,-3.073288 -1.621075,-4.660591 -4.694363,-4.660591 -3.073289,0 -4.694364,1.587303 -4.694364,4.660591 z m 3.647419,-0.303952 c 0,-0.945627 0.202635,-1.452213 1.046945,-1.452213 0.84431,0 1.080717,0.506586 1.080717,1.452213 v 16.480931 c 0,0.945632 -0.236407,1.485982 -1.080717,1.485982 -0.84431,0 -1.046945,-0.54035 -1.046945,-1.485982 z"
         style="font-size:33.7724px"
         id="path2019" />
      <path
         d="M 29.333451,103.9345 H 32.98087 V 79.618374 h -2.971971 v 0.06754 c 0,1.925026 -1.148262,2.971971 -3.309696,3.10706 v 2.66802 h 2.634248 z"
         style="font-size:33.7724px"
         id="path2021" />
      <path
         d="m 37.409276,83.772379 v 16.04189 c 0,3.073291 1.621075,4.660591 4.694363,4.660591 3.073289,0 4.694364,-1.5873 4.694364,-4.660591 v -16.04189 c 0,-3.073288 -1.621075,-4.660591 -4.694364,-4.660591 -3.073288,0 -4.694363,1.587303 -4.694363,4.660591 z m 3.647419,-0.303952 c 0,-0.945627 0.202634,-1.452213 1.046944,-1.452213 0.84431,0 1.080717,0.506586 1.080717,1.452213 v 16.480931 c 0,0.945632 -0.236407,1.485982 -1.080717,1.485982 -0.84431,0 -1.046944,-0.54035 -1.046944,-1.485982 z"
         style="font-size:33.7724px"
         id="path2023" />
    </g>
    <g
       aria-label="020"
       id="text5550"
       style="font-weight:500;font-size:10.3915px;line-height:97.4205px;font-family:'Swiss 911 Ultra Compressed';-inkscape-font-specification:'Swiss 911 Ultra Compressed, Medium';text-align:center;letter-spacing:0px;word-spacing:0px;text-anchor:middle;fill:#9179b7;stroke-width:0.487102px">
      <path
         d="m 15.246138,114.43299 v 16.04189 c 0,3.07328 1.621075,4.66059 4.694364,4.66059 3.073288,0 4.694363,-1.58731 4.694363,-4.66059 v -16.04189 c 0,-3.07329 -1.621075,-4.6606 -4.694363,-4.6606 -3.073289,0 -4.694364,1.58731 -4.694364,4.6606 z m 3.647419,-0.30396 c 0,-0.94562 0.202635,-1.45221 1.046945,-1.45221 0.84431,0 1.080717,0.50659 1.080717,1.45221 v 16.48093 c 0,0.94563 -0.236407,1.48599 -1.080717,1.48599 -0.84431,0 -1.046945,-0.54036 -1.046945,-1.48599 z"
         style="font-size:33.7724px"
         id="path2026" />
      <path
         d="m 30.346623,131.65691 c 0.06754,-2.29652 1.182034,-4.5255 2.634247,-7.22729 1.249579,-2.29653 2.769337,-4.49173 2.769337,-7.59879 v -2.9382 c 0,-2.73557 -1.553531,-4.12024 -4.559274,-4.12024 -3.107061,0 -4.829454,1.58731 -4.829454,4.6606 v 4.28909 h 3.64742 v -4.62682 c 0,-0.84431 0.371496,-1.31712 1.013172,-1.31712 0.810537,0 1.080716,0.40527 1.080716,1.31712 v 2.06012 c 0,3.37724 -1.958799,5.60622 -3.546102,8.6795 -1.350896,2.63425 -2.364068,5.06586 -2.364068,8.4431 0,0.43905 0,0.84431 0.03377,1.31713 h 9.422499 v -2.9382 z"
         style="font-size:33.7724px"
         id="path2028" />
      <path
         d="m 37.409276,114.43299 v 16.04189 c 0,3.07328 1.621075,4.66059 4.694363,4.66059 3.073289,0 4.694364,-1.58731 4.694364,-4.66059 v -16.04189 c 0,-3.07329 -1.621075,-4.6606 -4.694364,-4.6606 -3.073288,0 -4.694363,1.58731 -4.694363,4.6606 z m 3.647419,-0.30396 c 0,-0.94562 0.202634,-1.45221 1.046944,-1.45221 0.84431,0 1.080717,0.50659 1.080717,1.45221 v 16.48093 c 0,0.94563 -0.236407,1.48599 -1.080717,1.48599 -0.84431,0 -1.046944,-0.54036 -1.046944,-1.48599 z"
         style="font-size:33.7724px"
         id="path2030" />
    </g>
    <g
       aria-label="030"
       id="text5554"
       style="font-weight:500;font-size:10.3915px;line-height:97.4205px;font-family:'Swiss 911 Ultra Compressed';-inkscape-font-specification:'Swiss 911 Ultra Compressed, Medium';text-align:center;letter-spacing:0px;word-spacing:0px;text-anchor:middle;fill:#9179b7;stroke-width:0.487102px">
      <path
         d="m 15.246138,145.09351 v 16.04189 c 0,3.07329 1.621075,4.66059 4.694364,4.66059 3.073288,0 4.694363,-1.5873 4.694363,-4.66059 v -16.04189 c 0,-3.07329 -1.621075,-4.66059 -4.694363,-4.66059 -3.073289,0 -4.694364,1.5873 -4.694364,4.66059 z m 3.647419,-0.30395 c 0,-0.94563 0.202635,-1.45222 1.046945,-1.45222 0.84431,0 1.080717,0.50659 1.080717,1.45222 v 16.48093 c 0,0.94562 -0.236407,1.48598 -1.080717,1.48598 -0.84431,0 -1.046945,-0.54036 -1.046945,-1.48598 z"
         style="font-size:33.7724px"
         id="path2033" />
      <path
         d="m 26.327707,156.40726 v 4.72814 c 0,3.10706 1.587303,4.66059 4.694364,4.66059 3.140833,0 4.626818,-1.55353 4.626818,-4.66059 v -4.72814 c 0,-2.16143 -0.540358,-2.9382 -2.769336,-3.27592 1.958799,-0.27018 2.769336,-1.45221 2.769336,-3.81628 v -4.22155 c 0,-3.10706 -1.485985,-4.66059 -4.626818,-4.66059 -3.107061,0 -4.694364,1.55353 -4.694364,4.66059 v 4.69436 h 3.647419 v -4.99831 c 0,-0.87809 0.13509,-1.45222 1.046945,-1.45222 0.641675,0 0.979399,0.43904 0.979399,0.81054 0,0.0676 0.03377,0.27018 0.03377,0.64168 v 4.86322 c 0,1.45221 -0.574131,2.16144 -1.756165,2.16144 h -0.303952 v 2.76933 h 0.236407 c 1.55353,0 1.82371,0.60791 1.82371,2.02635 v 4.66059 c 0,1.01317 -0.202635,1.48598 -1.013172,1.48598 -0.911855,0 -1.046945,-0.6079 -1.046945,-1.48598 v -4.86323 z"
         style="font-size:33.7724px"
         id="path2035" />
      <path
         d="m 37.409276,145.09351 v 16.04189 c 0,3.07329 1.621075,4.66059 4.694363,4.66059 3.073289,0 4.694364,-1.5873 4.694364,-4.66059 v -16.04189 c 0,-3.07329 -1.621075,-4.66059 -4.694364,-4.66059 -3.073288,0 -4.694363,1.5873 -4.694363,4.66059 z m 3.647419,-0.30395 c 0,-0.94563 0.202634,-1.45222 1.046944,-1.45222 0.84431,0 1.080717,0.50659 1.080717,1.45222 v 16.48093 c 0,0.94562 -0.236407,1.48598 -1.080717,1.48598 -0.84431,0 -1.046944,-0.54036 -1.046944,-1.48598 z"
         style="font-size:33.7724px"
         id="path2037" />
    </g>
    <g
       aria-label="040"
       id="text5558"
       style="font-weight:500;font-size:10.3915px;line-height:97.4205px;font-family:'Swiss 911 Ultra Compressed';-inkscape-font-specification:'Swiss 911 Ultra Compressed, Medium';text-align:center;letter-spacing:0px;word-spacing:0px;text-anchor:middle;fill:#9179b7;stroke-width:0.487102px">
      <path
         d="M 15.246138,175.75411 V 191.796 c 0,3.07328 1.621075,4.66059 4.694364,4.66059 3.073288,0 4.694363,-1.58731 4.694363,-4.66059 v -16.04189 c 0,-3.07329 -1.621075,-4.66059 -4.694363,-4.66059 -3.073289,0 -4.694364,1.5873 -4.694364,4.66059 z m 3.647419,-0.30396 c 0,-0.94562 0.202635,-1.45221 1.046945,-1.45221 0.84431,0 1.080717,0.50659 1.080717,1.45221 v 16.48094 c 0,0.94562 -0.236407,1.48598 -1.080717,1.48598 -0.84431,0 -1.046945,-0.54036 -1.046945,-1.48598 z"
         style="font-size:33.7724px"
         id="path2040" />
      <path
         d="m 28.62423,186.899 2.431613,-9.01723 c 0.236407,-0.94563 0.439041,-1.99257 0.641676,-3.14084 h 0.337724 c -0.168862,1.92503 -0.27018,3.03952 -0.27018,3.34347 l -0.202634,8.8146 z m 2.803109,9.01723 h 3.613647 v -6.04526 h 1.519758 V 186.899 h -1.519758 v -15.2989 h -4.964543 l -4.559274,15.53531 v 2.73556 h 5.91017 z"
         style="font-size:33.7724px"
         id="path2042" />
      <path
         d="M 37.409276,175.75411 V 191.796 c 0,3.07328 1.621075,4.66059 4.694363,4.66059 3.073289,0 4.694364,-1.58731 4.694364,-4.66059 v -16.04189 c 0,-3.07329 -1.621075,-4.66059 -4.694364,-4.66059 -3.073288,0 -4.694363,1.5873 -4.694363,4.66059 z m 3.647419,-0.30396 c 0,-0.94562 0.202634,-1.45221 1.046944,-1.45221 0.84431,0 1.080717,0.50659 1.080717,1.45221 v 16.48094 c 0,0.94562 -0.236407,1.48598 -1.080717,1.48598 -0.84431,0 -1.046944,-0.54036 -1.046944,-1.48598 z"
         style="font-size:33.7724px"
         id="path2044" />
    </g>
    <g
       aria-label="050"
       id="text5562"
       style="font-weight:500;font-size:10.3915px;line-height:97.4205px;font-family:'Swiss 911 Ultra Compressed';-inkscape-font-specification:'Swiss 911 Ultra Compressed, Medium';text-align:center;letter-spacing:0px;word-spacing:0px;text-anchor:middle;fill:#de84b7;stroke-width:0.487102px">
      <path
         d="m 15.246138,206.41472 v 16.04189 c 0,3.07329 1.621075,4.66059 4.694364,4.66059 3.073288,0 4.694363,-1.5873 4.694363,-4.66059 v -16.04189 c 0,-3.07329 -1.621075,-4.66059 -4.694363,-4.66059 -3.073289,0 -4.694364,1.5873 -4.694364,4.66059 z m 3.647419,-0.30395 c 0,-0.94563 0.202635,-1.45221 1.046945,-1.45221 0.84431,0 1.080717,0.50658 1.080717,1.45221 v 16.48093 c 0,0.94563 -0.236407,1.48599 -1.080717,1.48599 -0.84431,0 -1.046945,-0.54036 -1.046945,-1.48599 z"
         style="font-size:33.7724px"
         id="path2047" />
      <path
         d="m 35.783979,222.45661 v -7.02466 c 0,-2.49916 -0.236407,-4.154 -2.769337,-4.154 -1.114489,0 -1.891254,0.40526 -2.735564,1.31712 v -7.36238 h 5.639991 v -2.97197 h -9.28741 v 12.93482 h 3.681191 c 0.236407,-0.47281 0.540359,-0.70922 0.945627,-0.70922 0.574131,0 0.911855,0.47282 0.911855,1.31713 v 6.78825 c 0,0.94563 -0.236407,1.48599 -1.080717,1.48599 -0.84431,0 -1.046944,-0.54036 -1.046944,-1.48599 v -4.93077 h -3.546102 v 4.79568 c 0,3.10706 1.418441,4.66059 4.593046,4.66059 3.073289,0 4.694364,-1.5873 4.694364,-4.66059 z"
         style="font-size:33.7724px"
         id="path2049" />
      <path
         d="m 37.409276,206.41472 v 16.04189 c 0,3.07329 1.621075,4.66059 4.694363,4.66059 3.073289,0 4.694364,-1.5873 4.694364,-4.66059 v -16.04189 c 0,-3.07329 -1.621075,-4.66059 -4.694364,-4.66059 -3.073288,0 -4.694363,1.5873 -4.694363,4.66059 z m 3.647419,-0.30395 c 0,-0.94563 0.202634,-1.45221 1.046944,-1.45221 0.84431,0 1.080717,0.50658 1.080717,1.45221 v 16.48093 c 0,0.94563 -0.236407,1.48599 -1.080717,1.48599 -0.84431,0 -1.046944,-0.54036 -1.046944,-1.48599 z"
         style="font-size:33.7724px"
         id="path2051" />
    </g>
    <g
       aria-label="060"
       id="text5566"
       style="font-weight:500;font-size:10.3915px;line-height:97.4205px;font-family:'Swiss 911 Ultra Compressed';-inkscape-font-specification:'Swiss 911 Ultra Compressed, Medium';text-align:center;letter-spacing:0px;word-spacing:0px;text-anchor:middle;fill:#de84b7;stroke-width:0.487102px">
      <path
         d="m 15.246138,237.07533 v 16.04189 c 0,3.07329 1.621075,4.6606 4.694364,4.6606 3.073288,0 4.694363,-1.58731 4.694363,-4.6606 v -16.04189 c 0,-3.07328 -1.621075,-4.66059 -4.694363,-4.66059 -3.073289,0 -4.694364,1.58731 -4.694364,4.66059 z m 3.647419,-0.30395 c 0,-0.94562 0.202635,-1.45221 1.046945,-1.45221 0.84431,0 1.080717,0.50659 1.080717,1.45221 v 16.48093 c 0,0.94563 -0.236407,1.48599 -1.080717,1.48599 -0.84431,0 -1.046945,-0.54036 -1.046945,-1.48599 z"
         style="font-size:33.7724px"
         id="path2054" />
      <path
         d="m 30.042671,247.13951 c 0,-0.94563 0.236407,-1.48599 1.080717,-1.48599 0.84431,0 1.046944,0.54036 1.046944,1.48599 v 6.1128 c 0,0.94563 -0.202634,1.48599 -1.046944,1.48599 -0.84431,0 -1.080717,-0.54036 -1.080717,-1.48599 z m -3.613647,5.97771 c 0,3.07329 1.621075,4.6606 4.694364,4.6606 3.073288,0 4.694363,-1.58731 4.694363,-4.6606 v -7.05843 c 0,-2.22898 -1.283351,-3.57987 -3.073288,-3.57987 -1.046944,0 -1.857482,0.37149 -2.701792,1.2158 v -6.92334 c 0,-0.94562 0.236407,-1.45221 1.080717,-1.45221 0.84431,0 1.046944,0.50659 1.046944,1.45221 v 4.96455 h 3.647419 v -4.6606 c 0,-3.07328 -1.621075,-4.66059 -4.694363,-4.66059 -3.073289,0 -4.694364,1.58731 -4.694364,4.66059 z"
         style="font-size:33.7724px"
         id="path2056" />
      <path
         d="m 37.409276,237.07533 v 16.04189 c 0,3.07329 1.621075,4.6606 4.694363,4.6606 3.073289,0 4.694364,-1.58731 4.694364,-4.6606 v -16.04189 c 0,-3.07328 -1.621075,-4.66059 -4.694364,-4.66059 -3.073288,0 -4.694363,1.58731 -4.694363,4.66059 z m 3.647419,-0.30395 c 0,-0.94562 0.202634,-1.45221 1.046944,-1.45221 0.84431,0 1.080717,0.50659 1.080717,1.45221 v 16.48093 c 0,0.94563 -0.236407,1.48599 -1.080717,1.48599 -0.84431,0 -1.046944,-0.54036 -1.046944,-1.48599 z"
         style="font-size:33.7724px"
         id="path2058" />
    </g>
    <g
       aria-label="070"
       id="text5570"
       style="font-weight:500;font-size:10.3915px;line-height:97.4205px;font-family:'Swiss 911 Ultra Compressed';-inkscape-font-specification:'Swiss 911 Ultra Compressed, Medium';text-align:center;letter-spacing:0px;word-spacing:0px;text-anchor:middle;fill:#9179b7;stroke-width:0.487102px">
      <path
         d="m 15.246138,267.73586 v 16.04189 c 0,3.07329 1.621075,4.66059 4.694364,4.66059 3.073288,0 4.694363,-1.5873 4.694363,-4.66059 v -16.04189 c 0,-3.07329 -1.621075,-4.66059 -4.694363,-4.66059 -3.073289,0 -4.694364,1.5873 -4.694364,4.66059 z m 3.647419,-0.30395 c 0,-0.94563 0.202635,-1.45222 1.046945,-1.45222 0.84431,0 1.080717,0.50659 1.080717,1.45222 v 16.48093 c 0,0.94562 -0.236407,1.48598 -1.080717,1.48598 -0.84431,0 -1.046945,-0.54036 -1.046945,-1.48598 z"
         style="font-size:33.7724px"
         id="path2061" />
      <path
         d="m 26.631659,287.89798 h 3.917598 l 5.167177,-21.27661 v -3.03952 h -9.929085 v 2.97197 h 6.315438 z"
         style="font-size:33.7724px"
         id="path2063" />
      <path
         d="m 37.409276,267.73586 v 16.04189 c 0,3.07329 1.621075,4.66059 4.694363,4.66059 3.073289,0 4.694364,-1.5873 4.694364,-4.66059 v -16.04189 c 0,-3.07329 -1.621075,-4.66059 -4.694364,-4.66059 -3.073288,0 -4.694363,1.5873 -4.694363,4.66059 z m 3.647419,-0.30395 c 0,-0.94563 0.202634,-1.45222 1.046944,-1.45222 0.84431,0 1.080717,0.50659 1.080717,1.45222 v 16.48093 c 0,0.94562 -0.236407,1.48598 -1.080717,1.48598 -0.84431,0 -1.046944,-0.54036 -1.046944,-1.48598 z"
         style="font-size:33.7724px"
         id="path2065" />
    </g>
    <g
       aria-label="080"
       id="text5574"
       style="font-weight:500;font-size:10.3915px;line-height:97.4205px;font-family:'Swiss 911 Ultra Compressed';-inkscape-font-specification:'Swiss 911 Ultra Compressed, Medium';text-align:center;letter-spacing:0px;word-spacing:0px;text-anchor:middle;fill:#9179b7;stroke-width:0.487102px">
      <path
         d="m 15.246138,298.39647 v 16.04189 c 0,3.07329 1.621075,4.66059 4.694364,4.66059 3.073288,0 4.694363,-1.5873 4.694363,-4.66059 v -16.04189 c 0,-3.07329 -1.621075,-4.66059 -4.694363,-4.66059 -3.073289,0 -4.694364,1.5873 -4.694364,4.66059 z m 3.647419,-0.30395 c 0,-0.94563 0.202635,-1.45221 1.046945,-1.45221 0.84431,0 1.080717,0.50658 1.080717,1.45221 v 16.48093 c 0,0.94563 -0.236407,1.48599 -1.080717,1.48599 -0.84431,0 -1.046945,-0.54036 -1.046945,-1.48599 z"
         style="font-size:33.7724px"
         id="path2068" />
      <path
         d="m 29.975126,309.06855 c 0,-0.94563 0.202635,-1.48599 1.046945,-1.48599 0.84431,0 1.080716,0.54036 1.080716,1.48599 v 5.5049 c 0,0.94563 -0.236406,1.48599 -1.080716,1.48599 -0.84431,0 -1.046945,-0.54036 -1.046945,-1.48599 z m -3.647419,-10.67208 v 3.71496 c 0,2.29653 0.472814,3.24216 2.701792,3.81629 -2.093889,0.67544 -2.701792,1.72239 -2.701792,3.81628 v 4.69436 c 0,3.07329 1.621075,4.66059 4.694364,4.66059 3.073288,0 4.694363,-1.5873 4.694363,-4.66059 v -4.76191 c 0,-2.26275 -0.878082,-3.37724 -2.938199,-3.74873 1.9588,-0.54036 2.938199,-1.85749 2.938199,-3.9176 v -3.61365 c 0,-3.07329 -1.621075,-4.66059 -4.694363,-4.66059 -3.073289,0 -4.694364,1.5873 -4.694364,4.66059 z m 5.77508,4.35664 c 0,0.94563 -0.236406,1.48599 -1.080716,1.48599 -0.84431,0 -1.046945,-0.54036 -1.046945,-1.48599 v -4.66059 c 0,-0.94563 0.202635,-1.45221 1.046945,-1.45221 0.84431,0 1.080716,0.50658 1.080716,1.45221 z"
         style="font-size:33.7724px"
         id="path2070" />
      <path
         d="m 37.409276,298.39647 v 16.04189 c 0,3.07329 1.621075,4.66059 4.694363,4.66059 3.073289,0 4.694364,-1.5873 4.694364,-4.66059 v -16.04189 c 0,-3.07329 -1.621075,-4.66059 -4.694364,-4.66059 -3.073288,0 -4.694363,1.5873 -4.694363,4.66059 z m 3.647419,-0.30395 c 0,-0.94563 0.202634,-1.45221 1.046944,-1.45221 0.84431,0 1.080717,0.50658 1.080717,1.45221 v 16.48093 c 0,0.94563 -0.236407,1.48599 -1.080717,1.48599 -0.84431,0 -1.046944,-0.54036 -1.046944,-1.48599 z"
         style="font-size:33.7724px"
         id="path2072" />
    </g>
    <g
       aria-label="090"
       id="text5578"
       style="font-weight:500;font-size:10.3915px;line-height:97.4205px;font-family:'Swiss 911 Ultra Compressed';-inkscape-font-specification:'Swiss 911 Ultra Compressed, Medium';text-align:center;letter-spacing:0px;word-spacing:0px;text-anchor:middle;fill:#9179b7;stroke-width:0.487102px">
      <path
         d="m 15.246138,329.05705 v 16.04189 c 0,3.07329 1.621075,4.6606 4.694364,4.6606 3.073288,0 4.694363,-1.58731 4.694363,-4.6606 v -16.04189 c 0,-3.07328 -1.621075,-4.66059 -4.694363,-4.66059 -3.073289,0 -4.694364,1.58731 -4.694364,4.66059 z m 3.647419,-0.30395 c 0,-0.94562 0.202635,-1.45221 1.046945,-1.45221 0.84431,0 1.080717,0.50659 1.080717,1.45221 v 16.48093 c 0,0.94563 -0.236407,1.48599 -1.080717,1.48599 -0.84431,0 -1.046945,-0.54036 -1.046945,-1.48599 z"
         style="font-size:33.7724px"
         id="path2075" />
      <path
         d="m 32.102787,336.25058 c 0,0.94562 -0.236406,1.45221 -1.080716,1.45221 -0.84431,0 -1.046945,-0.50659 -1.046945,-1.45221 v -7.32862 c 0,-0.94562 0.202635,-1.45221 1.046945,-1.45221 0.84431,0 1.080716,0.50659 1.080716,1.45221 z m -5.77508,5.57244 v 3.27592 c 0,3.07329 1.621075,4.6606 4.694364,4.6606 3.073288,0 4.694363,-1.58731 4.694363,-4.6606 v -16.04189 c 0,-3.07328 -1.621075,-4.66059 -4.694363,-4.66059 -3.073289,0 -4.694364,1.58731 -4.694364,4.66059 v 8.4431 c 0,2.22898 1.283351,3.54611 3.073288,3.54611 1.046945,0 1.857482,-0.3715 2.701792,-1.21581 v 5.40358 c 0,0.94563 -0.236406,1.48599 -1.080716,1.48599 -0.84431,0 -1.046945,-0.54036 -1.046945,-1.48599 v -3.41101 z"
         style="font-size:33.7724px"
         id="path2077" />
      <path
         d="m 37.409276,329.05705 v 16.04189 c 0,3.07329 1.621075,4.6606 4.694363,4.6606 3.073289,0 4.694364,-1.58731 4.694364,-4.6606 v -16.04189 c 0,-3.07328 -1.621075,-4.66059 -4.694364,-4.66059 -3.073288,0 -4.694363,1.58731 -4.694363,4.66059 z m 3.647419,-0.30395 c 0,-0.94562 0.202634,-1.45221 1.046944,-1.45221 0.84431,0 1.080717,0.50659 1.080717,1.45221 v 16.48093 c 0,0.94563 -0.236407,1.48599 -1.080717,1.48599 -0.84431,0 -1.046944,-0.54036 -1.046944,-1.48599 z"
         style="font-size:33.7724px"
         id="path2079" />
    </g>
  </g>
</svg>
