<?xml version="1.0" encoding="UTF-8" standalone="no"?>
<!-- Created with Inkscape (http://www.inkscape.org/) -->

<svg
   version="1.1"
   id="svg1115"
   width="400"
   height="400"
   viewBox="0 0 400 400"
   sodipodi:docname="AurelianWings.svg"
   inkscape:version="1.3 (0e150ed, 2023-07-21)"
   xmlns:inkscape="http://www.inkscape.org/namespaces/inkscape"
   xmlns:sodipodi="http://sodipodi.sourceforge.net/DTD/sodipodi-0.dtd"
   xmlns="http://www.w3.org/2000/svg"
   xmlns:svg="http://www.w3.org/2000/svg">
  <defs
     id="defs1119" />
  <sodipodi:namedview
     id="namedview1117"
     pagecolor="#ffffff"
     bordercolor="#666666"
     borderopacity="1.0"
     inkscape:showpageshadow="2"
     inkscape:pageopacity="0.0"
     inkscape:pagecheckerboard="0"
     inkscape:deskcolor="#d1d1d1"
     showgrid="false"
     inkscape:zoom="2.1675"
     inkscape:cx="200"
     inkscape:cy="200"
     inkscape:window-width="1920"
     inkscape:window-height="1080"
     inkscape:window-x="2147"
     inkscape:window-y="100"
     inkscape:window-maximized="0"
     inkscape:current-layer="layer1">
    <inkscape:page
       x="0"
       y="0"
       id="page1121"
       width="400"
       height="400"
       margin="0"
       bleed="0" />
  </sodipodi:namedview>
  <g
     inkscape:groupmode="layer"
     id="layer1"
     inkscape:label="Wings">
    <path
       d="m 201.88519,193.97974 c 0,0 -18.73866,-41.284 -21.37466,-57.97333 -2.63467,-16.68934 -8.49067,-42.162669 -11.12533,-52.117335 -2.636,-9.954667 -17.27467,-32.5 -22.252,-37.770666 l -1.464,4.977333 c 0,0 -18.15334,-20.787999 -28.10934,-27.815999 C 107.6052,16.253076 91.794531,7.4690765 85.059865,10.397076 l 5.855999,7.028 c 0,0 -12.003999,-1.172 -16.981333,-0.586666 -4.978666,0.586666 -22.838666,8.198666 -28.109332,14.347999 l 6.149333,1.170667 c 0,0 -11.126666,6.441333 -16.982666,16.103999 -5.856,9.661334 -17.274666,35.72 -24.594666,72.613335 l 4.685333,-1.464 c 0,0 -5.2706666,30.15733 -7.0279999,43.91866 -1.7559999,13.76134 6.0258309,91.05736 24.4711639,145.51736 l 13.69541,50.29694 c 0,0 61.037513,-25.24293 90.446273,-51.34141 29.40876,-26.09848 65.21781,-114.02222 65.21781,-114.02222 z"
       style="fill:#cd976d;fill-opacity:1;fill-rule:nonzero;stroke:none;stroke-width:1.33333"
       id="path1135"
       sodipodi:nodetypes="ccccccccccccccccczc" />
    <path
       d="m 196.24466,178.94081 c -5.568,-15.048 -10.25733,-31.02267 -14.14266,-46.62667 -5.60534,-22.52 -7.392,-44.765332 -18.32534,-65.341332 -4.168,-7.842666 -8.50933,-15.719999 -14.77333,-22.117332 -0.47733,-0.486667 -3.34533,-4.082667 -3.82933,-2.457334 -0.21734,0.734667 -0.25867,1.472 -0.348,2.225334 -0.12534,1.050666 0.084,2.043999 -0.009,3.061333 -0.688,-0.681334 -1.22,-1.508 -1.89733,-2.208 -0.86267,-0.890667 -1.56667,-1.974667 -2.39067,-2.908 -1.68666,-1.908 -3.5,-3.697333 -5.27333,-5.524 -3.112,-3.205333 -6.376,-6.26 -9.78,-9.154666 C 118.40367,21.876809 110.625,16.08081 102.24767,12.06881 97.195331,9.6474764 91.604664,7.8568098 85.937998,8.2434765 c -2.009333,0.1386666 -4.66,0.6266666 -6.434667,1.5066666 -0.312,0.1546667 1.668,1.6839999 1.802667,1.7759999 1.061333,0.721333 2.064,1.570667 3.18,2.198667 0.776,0.388 1.708,0.722666 2.244,1.464 -1.881333,-0.474667 -3.978667,-0.318667 -5.913333,-0.417334 -2.098667,-0.108 -4.201334,-0.188 -6.302667,-0.12 -5.56,0.177334 -10.576,1.829334 -15.437333,4.470667 -2.434666,1.322666 -4.817333,2.746666 -7.101333,4.314666 -2.657333,1.825334 -5.185333,3.848 -7.470666,6.125334 -1.138667,1.136 -2.217334,2.334666 -3.214667,3.596 -0.225333,0.285333 -1.357333,1.438666 -1.044,1.755999 0.206667,0.210667 0.918667,-0.06533 1.165333,-0.110666 0.517334,-0.09733 1.037334,-0.184 1.558667,-0.256 0.529333,-0.07333 1.06,-0.132 1.592,-0.176 0.354667,-0.03067 1.330667,0.09067 1.609333,-0.09733 -7.710666,5.244 -13.045333,12.098667 -17.498666,19.974667 -1.76,3.113333 -2.822667,6.306666 -4.006667,9.691999 C 21.183333,73.906141 17.546,84.266141 14.680666,94.398141 12.726,101.30747 10.635333,108.18614 9.1486664,115.21681 c -0.4919999,2.32266 -0.9173333,4.66133 -1.2399999,7.01333 -0.1586667,1.15733 -0.2933334,2.31733 -0.3973334,3.48 -0.053333,0.592 -0.097333,1.18533 -0.136,1.78 -0.037333,0.58667 0.2266667,1.07467 0.7986667,0.704 0.6186666,-0.40267 1.1733333,-1.11467 1.7213333,-1.61733 1.1466669,-1.05334 2.3026669,-2.10134 3.3653329,-3.24134 -1.82,10.53867 -4.8573329,20.964 -5.8759995,31.89067 -1.3986666,15.00667 -1.184,29.57467 -0.069333,44.536 2.2226666,29.852 9.6986665,58.93333 17.5639995,87.68133 1.82,6.65467 4.024,13.204 5.685333,19.90267 0.242568,0.97864 9.899347,33.47595 11.705425,41.10549 1.554813,6.56811 1.560936,12.37664 2.586015,12.40401 3.634667,0.0893 2.574667,-6.33867 2.264,-8.176 -1.128,-6.66534 -14.126107,-51.8215 -16.018107,-58.15217 -0.8,-2.67733 -1.628,-5.44667 -2.364,-8.13867 -7.936,-29.008 -15.241333,-57.48266 -17.434666,-86.92266 -1.218667,-16.38 -1.198667,-30.32 0.064,-43.868 0.622667,-6.664 2.064,-13.336 3.458667,-19.788 0.832,-3.84933 1.692,-7.82933 2.376,-11.79333 0.02267,-0.12934 0.04533,-0.25734 0.06667,-0.38667 l 1.06,-6.132 c 0.214667,-1.23733 0.428,-2.47467 0.641334,-3.712 0.08667,-0.50267 0.316,-1.32933 -0.357334,-1.54533 -0.666666,-0.21334 -1.197333,0.772 -1.568,1.17066 -0.672,0.72 -1.345333,1.44134 -2.017333,2.16267 -0.797333,0.856 -1.596,1.712 -2.393333,2.568 1.202666,-6.28533 3.037333,-12.67467 4.832,-18.929332 0.36,-1.256 0.717333,-2.498667 1.064,-3.725334 2.769333,-9.791999 6.281333,-19.841333 9.679999,-29.561332 l 0.478667,-1.370667 c 1.030667,-2.958667 2.004,-5.754666 3.465333,-8.337333 4.746667,-8.394667 9.914667,-14.317333 16.266666,-18.637333 0.322667,-0.22 0.645334,-0.44 0.969334,-0.658667 1.798666,-1.224 3.598666,-2.448 5.398666,-3.671999 0.953334,-0.649334 1.906667,-1.297334 2.86,-1.946667 0.350667,-0.238667 1.150667,-0.564 0.912,-1.062667 -0.3,-0.626666 -1.510666,-0.388 -2.029333,-0.368 -1.021333,0.03867 -2.042667,0.07733 -3.064,0.117334 -1.232,0.04667 -2.464,0.09467 -3.696,0.142666 0.186667,-0.008 0.669333,-0.561333 0.825333,-0.688 0.334667,-0.273333 0.673334,-0.541333 1.014667,-0.805333 0.68,-0.525333 1.372,-1.033333 2.074667,-1.526667 1.356,-0.950666 2.884,-1.689333 4.204,-2.644 5.443999,-3.937333 12.354666,-5.985333 19.041332,-6.066666 2.052,-0.02533 4.102667,0.125333 6.141334,0.36 2.338666,0.269333 4.663999,0.646667 6.994666,0.985333 1.201333,0.174667 2.405333,0.34 3.612,0.474667 0.602667,0.068 1.214667,0.09333 1.813333,0.178666 0.413334,0.05867 0.906667,0.26 1.305334,0.032 -0.926667,-1.717333 -2.532,-3.234666 -3.934667,-4.566666 -0.741333,-0.704 -1.506667,-1.382667 -2.281333,-2.049333 -0.384,-0.332 -0.801334,-0.641334 -1.166667,-0.994667 -0.221333,-0.214667 -0.593333,-0.822667 -0.908,-0.873333 0.934667,0.150666 1.854667,0.176 2.762667,0.422666 1.010666,0.276 1.964,0.562667 2.972,0.854667 2.16,0.626667 4.250666,1.478667 6.277328,2.449333 6.90133,3.306667 14.008,8.156 22.36533,15.262667 3.29334,2.799999 6.49067,5.791999 9.50134,8.893333 l 1.29333,1.322666 c 1.35733,1.384 2.63867,2.690667 3.852,4.062667 0.30133,0.342667 0.58133,0.709333 0.864,1.076 0.47333,0.610666 1.008,1.304 1.65067,1.966666 0.23333,0.242667 0.44,0.509334 0.64933,0.772 0.36667,0.457334 0.78133,0.976 1.30667,1.496 0.836,0.826667 1.66666,1.654667 2.50933,2.469334 0.84267,0.817333 1.39467,2.006666 2.43733,2.604 0.0173,-1.362667 0.0107,-2.8 0.28667,-4.138667 0.0827,-0.405333 0.22267,-0.797333 0.64933,-0.856 0.46667,-0.06533 1.24,0.608 1.55467,0.869333 0.76267,0.634667 1.19333,1.405334 1.75333,2.2 0.46534,0.658667 0.936,1.312 1.38667,1.98 0.91867,1.36 1.79333,2.749334 2.63733,4.157334 1.772,2.957333 3.41067,5.993333 5.02934,9.038666 7.552,14.212 10.58,29.242666 13.784,45.154665 1.26666,6.288 2.576,12.788 4.19066,19.27467 4.28,17.19333 9.08267,33.02266 14.272,47.048 2.11067,5.70133 5.86267,10.39066 10.28533,14.47866 3.55067,3.28134 7.86534,7.95733 13.16934,7.54933 -3.44534,-3.44933 -6.62934,-6.96933 -10.30934,-10.35066 -4.02133,-3.69733 -7.47733,-7.888 -9.39333,-13.06533"
       style="fill:#000000;fill-opacity:1;fill-rule:nonzero;stroke:none;stroke-width:1.33333"
       id="path1139"
       sodipodi:nodetypes="ccccccccccccccccccccccccccccccccccccccccccsccccccccccscccccccccccccccccccccccccccscccccccccccccccccccccccccccccc" />
    <path
       d="m 223.31293,279.12267 c 0,0 43.872,-115.40666 45.888,-132.42 2.016,-17.01333 6.348,-42.944 8.27866,-53.070662 1.92934,-10.126667 12.23734,-32.884 15.712,-38.171999 l 0.93867,5.119999 c 0,0 12.69067,-20.887999 19.59467,-27.870665 6.904,-6.982667 17.83866,-15.642667 22.41199,-12.510667 l -4.09733,7.066667 c 0,0 8.232,-0.953334 11.632,-0.252 3.4,0.7 15.53067,8.849333 19.06,15.245333 l -4.224,1.072 c 0,0 7.53467,6.814666 11.42133,16.814666 3.88534,10.001333 11.372,36.882666 15.91467,74.759998 l -3.188,-1.592 c 0,0 3.22533,30.948 4.25333,45.056 1.028,14.10933 -4.86266,84.87733 -16.38,135.852 z"
       style="fill:#cd976d;fill-opacity:1;fill-rule:nonzero;stroke:none;stroke-width:1.33333"
       id="path1143" />
    <path
       d="m 371.55052,218.788 c -0.26,-6.412 -1.904,-12.77333 -2.63466,-19.15466 -0.42534,-3.71333 -1.31334,-6.876 -2.912,-10.428 5.29333,1.47733 8.27733,7.12933 10.95866,10.69467 0.30534,-3.04 0.84534,-6.26534 0.34267,-9.292 -0.60267,-3.644 -1.56133,-7.25067 -2.24,-10.888 -2.16667,-11.608 -4.90933,-23.12534 -7.32267,-34.71467 -2.22533,-10.69333 -4.50133,-21.86267 -8.236,-32.25867 -0.94,-2.616 -1.01333,-5.912 -2.52666,-8.25466 4.276,2.064 9.37333,6.48533 12.312,9.54666 0.16533,-4.72933 -1.62267,-8.96933 -3.02667,-13.512 -1.764,-5.707996 -3.44933,-11.430662 -4.95333,-17.181329 -2.34267,-8.964 -6.79067,-18.035999 -14.05467,-25.202666 -1.988,-1.962666 -5.26267,-4.434666 -8.304,-5.316 -2.972,-0.861333 -6.53466,0.548 -9.54666,0.781334 -7.50934,0.582666 -11.34534,-2.266667 -16.02267,-7.068 -3.11067,-3.193333 -4.21733,-7.285333 -2.28267,-10.870667 -7.06933,8.616 -16.97066,24.910666 -16.97066,24.910666 l -0.93867,-5.119999 c -3.47467,5.287999 -13.78267,28.045332 -15.71333,38.171999 -1.92934,10.126662 -6.26134,36.057332 -8.27734,53.070662 -1.40933,11.89867 -23.29333,71.924 -36.32266,106.93867 1.56266,0.624 3.41866,1.156 5.94933,1.87466 13.74267,3.90534 27.64933,5.812 41.868,7.70934 21.072,2.81333 41.072,10.38266 62.288,12.61866 5.128,0.54 8.83333,1.836 11.32666,-2.28933 2.172,-3.59333 2.77867,-7.62533 3.84934,-11.50533 0.95866,-3.47734 2.09066,-6.848 2.46933,-10.41067 0.22933,-2.156 0.15467,-5.47733 1.80667,-7.236 0.29466,3.652 3.804,7.112 4.464,10.716 1.14266,-2.14533 1.46133,-4.592 2.028,-6.98133 2.312,-9.74934 3.03466,-19.204 2.62266,-29.34934"
       style="opacity:0.199997;fill:#000000;fill-opacity:1;fill-rule:nonzero;stroke:none;stroke-width:1.33333"
       id="path1153" />
    <path
       d="m 220.12999,278.566 c -2.77866,3.90534 -5.14533,7.78267 -7.728,11.676 4.344,-1.20666 7.55734,-6.38266 10.23734,-10.16666 3.33733,-4.71334 6.09066,-9.73334 7.44266,-15.12267 3.324,-13.256 37.57334,-103.496 40.72134,-120.99066 1.188,-6.6 2.16666,-13.22134 3.11333,-19.62534 2.396,-16.208 4.66,-31.515996 10.00933,-45.895995 1.14667,-3.081334 2.30667,-6.152 3.55734,-9.141333 0.596,-1.421334 1.212,-2.825334 1.85866,-4.197334 0.31734,-0.674666 0.64667,-1.333333 0.97334,-1.997333 0.39466,-0.8 0.69866,-1.58 1.228,-2.213333 0.21866,-0.261334 0.75733,-0.933333 1.076,-0.857334 0.292,0.06933 0.38266,0.472 0.43466,0.889334 0.17067,1.373333 0.148,2.844 0.14267,4.238666 0.72133,-0.590666 1.11467,-1.796 1.70133,-2.613333 0.588,-0.817333 1.16667,-1.646667 1.74934,-2.474667 0.36533,-0.519999 0.656,-1.042666 0.91333,-1.502666 0.14667,-0.264 0.29067,-0.533333 0.45467,-0.776 0.448,-0.665333 0.82266,-1.362667 1.15466,-1.978667 0.19734,-0.368 0.39467,-0.737333 0.60534,-1.081333 0.848,-1.38 1.74133,-2.689333 2.688,-4.076 l 0.90266,-1.326667 c 2.1,-3.110666 4.32667,-6.105333 6.61734,-8.901333 5.81066,-7.096 10.73733,-11.910666 15.504,-15.150666 1.4,-0.952 2.84133,-1.78 4.328,-2.377333 0.69466,-0.277334 1.34933,-0.552 2.04533,-0.812 0.62533,-0.234667 1.25467,-0.242667 1.896,-0.377334 -0.216,0.04533 -0.47733,0.66 -0.632,0.874667 -0.25467,0.353333 -0.544,0.662667 -0.812,0.993333 -0.53867,0.666667 -1.07067,1.344 -1.588,2.049334 -0.976,1.333333 -2.09467,2.853333 -2.75067,4.589333 0.26934,0.242667 0.61067,0.04533 0.89334,-0.0053 0.412,-0.07467 0.83066,-0.08933 1.244,-0.145334 0.828,-0.113333 1.65466,-0.258666 2.48,-0.412 1.59866,-0.3 3.19466,-0.637333 4.79999,-0.865333 1.39867,-0.197333 2.804,-0.310667 4.208,-0.242667 4.57734,0.22 9.28134,2.456 12.95867,6.592 0.892,1.004 1.928,1.790667 2.844,2.790667 0.47467,0.518666 0.94267,1.053333 1.40133,1.604 0.23067,0.276 0.45867,0.557333 0.684,0.844 0.10534,0.133333 0.428,0.708 0.556,0.72 -0.84266,-0.07333 -1.68533,-0.148 -2.528,-0.221334 -0.69866,-0.06133 -1.39733,-0.121333 -2.096,-0.182666 -0.35466,-0.03067 -1.18,-0.3 -1.39466,0.336 -0.16934,0.504 0.37466,0.854666 0.612,1.105333 l 1.93333,2.048 c 1.216,1.288 2.432,2.577333 3.64933,3.865333 l 0.65467,0.693333 c 4.29333,4.548 7.756,10.709334 10.89867,19.392 0.968,2.672 1.59866,5.549333 2.26666,8.597333 l 0.31067,1.410667 c 2.20267,10.009333 4.48,20.358666 6.252,30.427992 0.22133,1.26267 0.44933,2.54134 0.68,3.832 1.14933,6.43334 2.324,13.00534 3.068,19.45734 -0.53467,-0.892 -1.07067,-1.784 -1.60533,-2.67467 l -1.35334,-2.25467 c -0.24933,-0.41466 -0.6,-1.432 -1.05866,-1.228 -0.464,0.20667 -0.31867,1.05734 -0.26534,1.57334 0.13067,1.26933 0.26134,2.53866 0.392,3.80933 0.216,2.09733 0.432,4.19467 0.648,6.292 0.0133,0.132 0.0267,0.264 0.0413,0.396 0.41866,4.068 0.956,8.156 1.47733,12.11067 0.872,6.62533 1.77467,13.47866 2.116,20.30533 0.692,13.88133 0.52933,28.13733 -0.51333,44.86266 -1.87467,30.06134 -9.408,64.26667 -14.004,90.86667 -0.42667,2.46933 -0.92267,5.02933 -1.40267,7.504 -1.13333,5.852 -2.30533,11.90267 -2.79333,17.812 -0.136,1.62933 -0.58534,7.32 2.368,6.18266 1.744,-0.67466 1.43066,-11.71866 1.688,-13.42133 0.92133,-6.09333 5.728,-8.17066 6.78266,-14.27333 4.55467,-26.36133 11.62134,-59.756 13.52134,-90.23867 0.95333,-15.27733 1.28533,-30.17066 0.51733,-45.54533 -0.55867,-11.196 -2.50533,-21.91866 -3.61733,-32.73333 0.71333,1.188 1.49066,2.28267 2.26266,3.384 0.36934,0.52533 0.73867,1.264 1.15867,1.688 0.38667,0.392 0.57333,-0.10267 0.55467,-0.70267 -0.0187,-0.608 -0.0413,-1.216 -0.0707,-1.824 -0.056,-1.19066 -0.13333,-2.38 -0.22667,-3.56666 -0.192,-2.412 -0.45333,-4.812 -0.76,-7.19734 -0.92933,-7.22 -2.27333,-14.29733 -3.524,-21.40266 -1.83333,-10.42 -4.19066,-21.089333 -6.44933,-31.350666 -0.76667,-3.486666 -2.696,-10.254666 -3.86133,-13.473333 -1.264,-3.493333 -2.684,-6.979999 -4.76667,-10.234666 -0.912,-1.422667 -2.14133,-2.696 -3.08667,-4.104 -0.74133,-1.102667 -1.44666,-2.105333 -2.416,-3.094667 -0.98266,-1.002666 -1.86,-2.082666 -2.51866,-3.242666 0.10666,0.189333 1.208,0.481333 1.47733,0.596 0.54133,0.230666 1.07333,0.478666 1.576,0.764 0.87467,0.494666 1.968,1.190666 2.55467,1.92 -0.0973,-0.22 -0.036,-0.450667 -0.1,-0.674667 -0.50534,-1.764 -1.93467,-3.285333 -3.07734,-4.818666 -1.252,-1.68 -2.452,-3.382667 -3.62266,-5.098667 -0.54267,-0.794667 -1.11734,-1.577333 -1.73334,-2.337333 -0.316,-0.390667 -0.64266,-0.774667 -0.984,-1.149334 -0.308,-0.337333 -0.64666,-0.817333 -1.056,-1.078666 -1.544,-1.650667 -3.156,-3.154667 -4.80533,-4.557333 -3.29467,-2.801334 -6.708,-4.592 -10.512,-4.888 -1.43733,-0.112 -2.87733,-0.072 -4.316,-0.0053 -0.724,0.03333 -1.50133,0.08133 -2.224,0.01733 0.14133,-0.282667 0.19467,-0.64 0.34667,-0.957334 0.43066,-0.902666 0.816,-1.641333 1.584,-2.389333 0.0933,-0.09067 1.468,-1.614666 1.256,-1.778666 -1.20267,-0.936 -3.012,-1.490667 -4.38534,-1.672 -3.87466,-0.512 -8.33866,1.088 -11.82799,3.459999 -5.78534,3.933334 -11.70667,8.662667 -16.624,14.668 -2.36667,2.890667 -4.64134,5.948 -6.812,9.162667 -1.23734,1.830666 -2.50134,3.623999 -3.68,5.541333 -0.576,0.937333 -1.07067,2.032 -1.67334,2.925333 -0.472,0.701333 -0.84666,1.536 -1.32666,2.218667 -0.0507,-1.042667 0.104,-2.053334 0.0333,-3.130667 -0.052,-0.772 -0.0707,-1.528 -0.21067,-2.282667 -0.31066,-1.673333 -2.32,1.945334 -2.652,2.434667 -4.37066,6.414667 -7.44133,14.381333 -10.39466,22.317333 -7.74534,20.817333 -8.11334,44.686662 -12.23734,67.601332 -2.856,15.87733 -37.65333,107.76933 -41.22,121.99199 -1.22666,4.89467 -3.772,9.412 -6.808,13.68"
       style="fill:#000000;fill-opacity:1;fill-rule:nonzero;stroke:none;stroke-width:1.33333"
       id="path1163" />
    <path
       d="m 16.8036,219.02187 c 0.0067,0.0933 0.01333,0.18533 0.02,0.27867 0.673333,9.54 2.173333,20.124 5.661333,29.064 0.641333,-4.068 0.26,-8.58 1.293333,-12.496 -1.034667,3.92533 1.045333,9.008 1.784,12.91333 3.038667,16.056 8.422666,30.544 16.205333,44.91333 4.445333,8.208 8.053333,16.72 12.906666,24.64267 2.541334,4.148 6.449837,14.50933 9.81113,18.78242 2.775354,3.5282 4.655986,3.76492 8.025319,3.91825 2.590667,0.11867 7.097347,0.0737 9.52268,-0.73159 5.749333,-1.91466 14.164519,-5.97913 19.921856,-8.29247 12.14933,-4.884 21.58435,-15.43261 33.28435,-21.33128 9.18133,-4.62933 18.44933,-11.42666 26.26666,-18.06266 9.05734,-7.68667 17.872,-16.38667 22.70134,-27.416 2.63733,-6.02534 4.70133,-12.08267 6.37466,-18.42667 1.60134,-6.068 4.44667,-11.86267 5.60534,-18.064 2.58266,-13.83067 7.05866,-30.56 0.95733,-44.13466 -1.192,-2.65334 -3.332,-7.17734 -5.80133,-8.892 -2.08667,-1.44934 -7.12667,-1.04 -10.09334,-0.90267 -5.45733,0.25467 -11.48666,1.69867 -16.888,0.704 -0.848,-3.93067 -2.65333,-7.44667 -3.65066,-11.39867 -2.73734,-10.84533 -4.88134,-22.00266 -7.92667,-32.69066 -1.99733,-7.01067 -3.81467,-14.076 -4.91333,-21.26667 -1.48,-9.692 -4.404,-19.142666 -7.94,-28.267999 -3.312,-8.549333 -8.12,-14.111999 -13.32667,-21.498666 -3.276,-4.648 -7.116,-8.833333 -12.2,-11.514666 -5.79867,-3.058667 -13.16667,-3.570667 -19.626666,-3.830667 -4.772,-0.193333 -9.225333,-0.274666 -13.979999,0.213334 -8.72,0.896 -16.601333,2.273333 -24.709333,5.490666 -6.017333,2.386667 -11.881333,5.716 -17.14,9.458666 1.16,-0.825333 5.662667,-0.241333 7.178667,-0.385333 2.302666,-0.217333 4.598666,-0.545333 6.894666,-0.826666 -3.298666,0.405333 -5.593333,3.243999 -7.887999,5.274666 -2.704,2.393333 -5.626667,4.532 -8.304,6.965333 -6.773333,6.153333 -12.042667,13.358667 -15.572,21.802666 -1.341333,3.208 -3.050666,6.670667 -3.842666,10.022666 3.181333,-3.142666 6.898666,-6.227999 10.593333,-8.757332 1.282666,-0.877334 2.690666,-1.790667 4.062666,-2.442667 -1.808,4.194667 -4.278666,8.206669 -6.262666,12.354669 -3,6.272 -5.276,13.092 -6.944,19.83733 -1.793333,7.24533 -3.36,14.42133 -4.86,21.72533 -0.665333,3.24 -0.68,6.912 -1.570667,10.05867 1.364,-1.53067 2.698667,-3.188 3.998667,-4.75867 1.441333,-1.74266 3.329333,-3.368 4.58,-5.22266 -0.34,2.55466 -1.394667,4.83466 -1.990667,7.30933 -0.588,2.44 -1.073333,4.95733 -1.674666,7.41733 -1.26,5.14667 -2.414667,10.36534 -2.550667,15.68267 -0.213333,8.34533 -0.450667,16.66933 0.165333,24.96666 0.804,-1.31599 0.917334,-2.99333 1.614667,-4.37333 -1.014667,7.088 -0.282667,15.04267 0.226667,22.188"
       style="opacity:0.199997;fill:#000000;fill-opacity:1;fill-rule:nonzero;stroke:none;stroke-width:1.33333"
       id="path1173"
       sodipodi:nodetypes="cccccccscccccccccccccccccccccccccccccccccccccccccc" />
    <path
       d="m 134.32453,174.53601 c -0.90533,-0.0507 -2.316,-1.648 -3.03333,-2.088 -1.668,-1.02267 -3.53734,-1.636 -5.232,-2.63067 -7.07867,-4.156 -12.24667,-11.156 -15.876,-18.384 -1.62667,-3.23867 -2.58667,-6.796 -4.328,-9.94533 -0.39334,-0.712 -1.05867,-1.684 -1.652,-2.73867 1.91466,1.15733 3.93066,2.14933 6.076,2.88933 3.66,1.26134 7.49733,1.94667 10.85866,1.72267 1.25467,3.43067 2.936,6.596 4.74934,9.096 2.264,3.12 4.81066,6.02667 7.62533,8.608 0.164,4.72533 0.444,9.20667 0.812,13.47067 m -37.390666,-54.292 c -1.626666,-3.24 -2.585333,-6.79734 -4.328,-9.94667 -0.362666,-0.65467 -0.956,-1.532 -1.509333,-2.49067 3.008,2.436 6.369333,4.4 10.074669,5.67734 3.36266,1.16 6.87333,1.824 10.028,1.752 0.94133,1.91866 1.99466,3.684 3.096,5.20266 1.63333,2.252 3.41866,4.38934 5.34,6.37867 -1.33867,5.196 -0.456,11.188 1.5,16.53733 -0.90267,0.016 -2.36,-1.648 -3.09334,-2.09733 -1.668,-1.02133 -3.53733,-1.636 -5.232,-2.63067 -7.07866,-4.15466 -12.24666,-11.156 -15.875996,-18.38266 m 65.678666,52.28 c -1.148,0.0773 -3.048,-2.104 -3.99467,-2.684 -2.13066,-1.30534 -4.51733,-2.08934 -6.68133,-3.36 -9.03867,-5.30534 -15.63733,-14.244 -20.27067,-23.472 -1.52133,-3.03067 -2.58933,-6.28 -3.92533,-9.38134 2.904,1.93067 6.02667,3.52667 9.372,4.68 4.68933,1.61734 9.60667,2.49467 13.908,2.19867 -1.148,0.0787 -3.048,-2.104 -3.996,-2.684 -2.13067,-1.30533 -4.51733,-2.08933 -6.68133,-3.35867 -9.03734,-5.30533 -15.636,-14.24533 -20.27067,-23.47333 -2,-3.984 -3.22,-8.34267 -5.29467,-12.251999 2.17867,1.246667 4.47067,2.305329 6.87734,3.134669 4.68933,1.61733 9.60666,2.49466 13.908,2.19866 -1.148,0.0787 -3.048,-2.10266 -3.996,-2.684 -2.13067,-1.30533 -4.51734,-2.089329 -6.68134,-3.358662 -9.03733,-5.305334 -15.636,-14.245333 -20.26933,-23.473333 -2.07733,-4.134667 -3.30267,-8.677333 -5.526666,-12.698667 -1.394666,-2.521333 -5.474666,-7.586666 -2.753333,-10.439999 -8.212,8.611999 -3.541333,24.261332 2.501333,32.587999 2.727996,3.758666 5.865336,7.208 9.387996,10.150666 -1.92666,6.465336 -0.23866,14.303996 2.744,20.595996 -0.74933,-0.524 -1.552,-1.34933 -2.036,-1.64666 -1.668,-1.02267 -3.53733,-1.636 -5.23333,-2.63067 -7.078666,-4.156 -12.245332,-11.155999 -15.874666,-18.383999 -1.405333,-2.798667 -2.341333,-5.82 -3.685333,-8.625333 2.206667,1.442667 4.565333,2.650667 7.093333,3.522666 3.672,1.265334 7.524,1.953334 10.891996,1.721334 -0.89866,0.06133 -2.386662,-1.646667 -3.129329,-2.101333 -1.668,-1.022667 -3.537333,-1.636 -5.232,-2.632 -7.078667,-4.154667 -12.246666,-11.156 -15.876,-18.382667 -1.625333,-3.238666 -2.585333,-6.797333 -4.328,-9.946666 -1.091999,-1.973333 -4.286666,-5.941333 -2.155999,-8.176 -6.432,6.745333 -2.773334,19.001333 1.958666,25.522666 1.553333,2.14 3.285333,4.138667 5.169333,5.965333 -1.984,6.749334 1.049334,15.408 4.768,20.533333 0.750667,1.034666 1.556,2.026666 2.384,2.995996 -0.906666,-0.11466 -2.270666,-1.64933 -2.973333,-2.08 -1.668,-1.021329 -3.537333,-1.635996 -5.232,-2.630662 -7.078666,-4.154667 -12.246666,-11.156 -15.874666,-18.382667 -1.626667,-3.24 -2.586667,-6.797333 -4.328,-9.946666 -1.093333,-1.974667 -4.288,-5.941333 -2.157333,-8.176 -6.430667,6.745333 -2.773334,19.001333 1.958666,25.522666 1.302667,1.794667 2.736,3.485333 4.270667,5.066667 -3.368,6.945333 -0.088,16.888002 4.010666,22.534662 0.356,0.49067 0.736,0.96134 1.109334,1.43867 -3.625334,6.956 -0.301334,17.11867 3.858666,22.852 2.402667,3.31067 5.218667,6.30667 8.409333,8.78267 C 85.633865,224.50534 109.6992,255.53467 109.6992,255.53467 92.015198,206.912 89.432531,156.60401 89.269864,153.02534 c 3.341334,1.03867 6.777334,1.584 9.82,1.376 -0.898666,0.06 -2.386666,-1.648 -3.129333,-2.10267 -1.668,-1.02266 -3.537333,-1.636 -5.232,-2.63066 -7.078666,-4.156 -12.246666,-11.156 -15.876,-18.384 -1.626666,-3.23867 -2.585333,-6.796 -4.327999,-9.94534 -0.364,-0.65866 -0.961334,-1.54133 -1.517334,-2.50533 3.954667,4.244 8.709333,7.65467 14.222667,9.556 3.671999,1.26667 7.523999,1.95333 10.891999,1.72133 -0.9,0.0613 -2.388,-1.64666 -3.129333,-2.10133 -1.668,-1.02267 -3.537333,-1.636 -5.232,-2.63067 -7.078666,-4.156 -12.246666,-11.15733 -15.875999,-18.384 -1.626667,-3.23866 -2.586667,-6.79733 -4.328,-9.945329 -0.404,-0.730667 -1.094667,-1.734667 -1.698667,-2.821333 3.265333,2.838666 6.957333,5.133333 11.092,6.558662 3.624,1.25067 7.422666,1.932 10.76,1.72667 0.829333,0.96933 1.698666,1.9 2.606666,2.788 -3.218666,6.936 0.032,16.74667 4.092,22.34267 2.549333,3.512 5.564,6.66266 8.997329,9.22 -2.937329,6.912 0.26267,16.472 4.252,21.97066 1.24934,1.72134 2.61867,3.35067 4.08267,4.87734 1.708,56.13999 19.228,79.80399 19.228,79.80399 -9.99467,-31.34533 -11.01467,-63.04533 -11.064,-73.29466 1.77867,1.03733 3.64933,1.92533 5.624,2.60667 3.63867,1.25466 7.452,1.93866 10.79733,1.72533 3.94267,45.592 18.38,65.09866 18.38,65.09866 -9.768,-30.636 -10.964,-61.61199 -11.05866,-72.56933 2.23333,1.292 4.584,2.38934 7.05866,3.24267 4.688,1.616 9.60667,2.49333 13.90667,2.19867"
       style="opacity:0.199997;fill:#000000;fill-opacity:1;fill-rule:nonzero;stroke:none;stroke-width:1.33333"
       id="path1189" />
    <path
       d="m 63.908398,150.47067 c 3.672,1.26667 7.524,1.95334 10.892,1.72267 -0.898667,0.06 -2.386666,-1.648 -3.129333,-2.10267 -1.668,-1.02266 -3.537333,-1.636 -5.232,-2.63066 -7.078666,-4.156 -12.246666,-11.15734 -15.876,-18.384 -1.626666,-3.23867 -2.586666,-6.796 -4.327999,-9.94534 -1.092,-1.97466 -4.288,-5.94266 -2.156,-8.17733 -6.432,6.74533 -2.773334,19.00133 1.958666,25.52267 1.228,1.69333 2.570667,3.29866 4.006667,4.80266 6.916,76.92 37.408386,123.59427 37.408386,123.59427 -15.901333,-43.72 -26.051053,-104.4876 -26.752387,-115.73827 1.041334,0.496 2.104,0.956 3.208,1.336"
       style="opacity:0.199997;fill:#000000;fill-opacity:1;fill-rule:nonzero;stroke:none;stroke-width:1.33333"
       id="path1205"
       sodipodi:nodetypes="cccccccccccc" />
    <path
       d="m 35.950399,125.65654 c 0,0 -8.28,20.70133 -6.9,44.99067 4.492,79.07599 44.199247,119.4969 44.199247,119.4969 -19.355999,-25.04133 -35.835247,-92.19957 -38.219247,-125.56224 -1.288,-18.036 0.92,-38.92533 0.92,-38.92533"
       style="opacity:0.199997;fill:#000000;fill-opacity:1;fill-rule:nonzero;stroke:none;stroke-width:1.33333"
       id="path1221"
       sodipodi:nodetypes="ccccc" />
  </g>
</svg>
