<?xml version="1.0" encoding="UTF-8" standalone="no"?>
<!-- Created with Inkscape (http://www.inkscape.org/) -->

<svg
   width="400"
   height="400"
   viewBox="0 0 400 400"
   version="1.1"
   id="svg1"
   xml:space="preserve"
   inkscape:version="1.3.2 (091e20e, 2023-11-25)"
   sodipodi:docname="macoRanks.svg"
   xmlns:inkscape="http://www.inkscape.org/namespaces/inkscape"
   xmlns:sodipodi="http://sodipodi.sourceforge.net/DTD/sodipodi-0.dtd"
   xmlns="http://www.w3.org/2000/svg"
   xmlns:svg="http://www.w3.org/2000/svg"><sodipodi:namedview
     id="namedview1"
     pagecolor="#ffffff"
     bordercolor="#666666"
     borderopacity="1.0"
     inkscape:showpageshadow="2"
     inkscape:pageopacity="0.0"
     inkscape:pagecheckerboard="0"
     inkscape:deskcolor="#d1d1d1"
     inkscape:document-units="px"
     showguides="true"
     inkscape:zoom="2.28"
     inkscape:cx="195.61404"
     inkscape:cy="251.75439"
     inkscape:window-width="1840"
     inkscape:window-height="1125"
     inkscape:window-x="2273"
     inkscape:window-y="212"
     inkscape:window-maximized="0"
     inkscape:current-layer="g105" /><defs
     id="defs1"><inkscape:path-effect
       effect="fillet_chamfer"
       id="path-effect3"
       is_visible="true"
       lpeversion="1"
       nodesatellites_param="F,0,0,1,0,34.885845,0,1 @ F,0,0,1,0,34.567211,0,1 @ F,0,0,1,0,38.478807,0,1"
       radius="0"
       unit="px"
       method="auto"
       mode="F"
       chamfer_steps="1"
       flexible="false"
       use_knot_distance="true"
       apply_no_radius="true"
       apply_with_radius="true"
       only_selected="false"
       hide_knots="false" /></defs><g
     inkscape:groupmode="layer"
     id="layer2"
     inkscape:label="Sergeant"
     style="display:none"><path
       style="fill:#7c868f;fill-opacity:1;stroke:none;stroke-width:0.536;stroke-linecap:butt;stroke-linejoin:miter;stroke-dasharray:none;stroke-opacity:1"
       d="m 24.321193,391.46388 h 73.91833 A 11.788384,11.788384 0 0 0 108.91579,374.67717 L 69.698493,290.91038 a 9.6173031,9.6173031 0 0 0 -17.43372,0.0294 l -38.77546,83.556 a 11.941414,11.941414 0 0 0 10.83188,16.96811 z"
       id="path52"
       sodipodi:nodetypes="cccc" /><path
       id="path3"
       style="fill:#a1bed7;fill-opacity:1;stroke:none;stroke-width:0.536212px;stroke-linecap:butt;stroke-linejoin:miter;stroke-opacity:1"
       d="m 62.525391,285.49414 a 9.6173031,9.6173031 0 0 0 -10.259766,5.44531 l -38.775391,83.55664 a 11.941414,11.941414 0 0 0 10.830078,16.96875 H 98.240234 A 11.788384,11.788384 0 0 0 108.91602,374.67773 L 69.699219,290.91016 a 9.6173031,9.6173031 0 0 0 -7.173828,-5.41602 z m -0.203125,8.51758 a 8.1455204,8.235465 0 0 1 6.076172,4.63867 l 33.214842,71.73047 a 9.9843506,10.0946 0 0 1 -9.041014,14.375 H 29.964844 a 10.11396,10.225641 0 0 1 -9.173828,-14.53125 l 32.841796,-71.55078 a 8.1455204,8.235465 0 0 1 8.689454,-4.66211 z" /><path
       id="path59"
       style="opacity:1;fill:#ffffff;fill-opacity:1;stroke:#000000;stroke-width:1.1;stroke-linecap:butt;stroke-linejoin:miter;stroke-dasharray:none;stroke-opacity:1"
       d="m 37.776938,369.88028 22.924466,-16.144 22.924467,16.144 v 9.52495 L 60.701404,363.26124 37.776938,379.40523 Z m 0,-11.95728 22.924466,-16.144 22.924467,16.144 v 9.52495 L 60.701404,351.30396 37.776938,367.44795 Z m 0,-11.95728 22.924466,-16.144 22.924467,16.144 v 9.52495 L 60.701404,339.34668 37.776938,355.49067 Z" /><path
       style="fill:#ffffff;fill-opacity:1;stroke:none;stroke-width:1px;stroke-linecap:butt;stroke-linejoin:miter;stroke-opacity:1"
       d="m 60.635965,303.347 -1.973684,13.70614 -5.482456,-0.32895 3.947368,4.60527 -0.877193,6.24999 4.824561,-3.07017 4.385965,3.17982 -0.986842,-6.57894 4.057018,-4.16667 -5.482456,-0.10965 z"
       id="path60"
       sodipodi:nodetypes="ccccccccccc" /></g><g
     inkscape:groupmode="layer"
     id="g64"
     inkscape:label="Corporal"
     style="display:none"><path
       style="fill:#7c868f;fill-opacity:1;stroke:none;stroke-width:0.536;stroke-linecap:butt;stroke-linejoin:miter;stroke-dasharray:none;stroke-opacity:1"
       d="m 24.321193,391.46388 h 73.91833 A 11.788384,11.788384 0 0 0 108.91579,374.67717 L 69.698493,290.91038 a 9.6173031,9.6173031 0 0 0 -17.43372,0.0294 l -38.77546,83.556 a 11.941414,11.941414 0 0 0 10.83188,16.96811 z"
       id="path61"
       sodipodi:nodetypes="cccc" /><path
       id="path62"
       style="fill:#a1bed7;fill-opacity:1;stroke:none;stroke-width:0.536212px;stroke-linecap:butt;stroke-linejoin:miter;stroke-opacity:1"
       d="m 62.525391,285.49414 a 9.6173031,9.6173031 0 0 0 -10.259766,5.44531 l -38.775391,83.55664 a 11.941414,11.941414 0 0 0 10.830078,16.96875 H 98.240234 A 11.788384,11.788384 0 0 0 108.91602,374.67773 L 69.699219,290.91016 a 9.6173031,9.6173031 0 0 0 -7.173828,-5.41602 z m -0.203125,8.51758 a 8.1455204,8.235465 0 0 1 6.076172,4.63867 l 33.214842,71.73047 a 9.9843506,10.0946 0 0 1 -9.041014,14.375 H 29.964844 a 10.11396,10.225641 0 0 1 -9.173828,-14.53125 l 32.841796,-71.55078 a 8.1455204,8.235465 0 0 1 8.689454,-4.66211 z" /><path
       id="path65"
       style="opacity:1;fill:#ffffff;fill-opacity:1;stroke:#000000;stroke-width:1.1;stroke-linecap:butt;stroke-linejoin:miter;stroke-dasharray:none;stroke-opacity:1"
       d="m 37.776938,357.923 22.924466,-16.144 22.924467,16.144 v 9.52495 L 60.701404,351.30396 37.776938,367.44795 Z m 0,-11.95728 22.924466,-16.144 22.924467,16.144 v 9.52495 L 60.701404,339.34668 37.776938,355.49067 Z" /><path
       style="fill:#ffffff;fill-opacity:1;stroke:none;stroke-width:1px;stroke-linecap:butt;stroke-linejoin:miter;stroke-opacity:1"
       d="m 60.635965,303.347 -1.973684,13.70614 -5.482456,-0.32895 3.947368,4.60527 -0.877193,6.24999 4.824561,-3.07017 4.385965,3.17982 -0.986842,-6.57894 4.057018,-4.16667 -5.482456,-0.10965 z"
       id="path64"
       sodipodi:nodetypes="ccccccccccc" /></g><g
     inkscape:groupmode="layer"
     id="g69"
     inkscape:label="Private"
     sodipodi:insensitive="true"
     style="display:none"><path
       style="fill:#7c868f;fill-opacity:1;stroke:none;stroke-width:0.536;stroke-linecap:butt;stroke-linejoin:miter;stroke-dasharray:none;stroke-opacity:1"
       d="m 24.321193,391.46388 h 73.91833 A 11.788384,11.788384 0 0 0 108.91579,374.67717 L 69.698493,290.91038 a 9.6173031,9.6173031 0 0 0 -17.43372,0.0294 l -38.77546,83.556 a 11.941414,11.941414 0 0 0 10.83188,16.96811 z"
       id="path66"
       sodipodi:nodetypes="cccc" /><path
       id="path67"
       style="fill:#a1bed7;fill-opacity:1;stroke:none;stroke-width:0.536212px;stroke-linecap:butt;stroke-linejoin:miter;stroke-opacity:1"
       d="m 62.525391,285.49414 a 9.6173031,9.6173031 0 0 0 -10.259766,5.44531 l -38.775391,83.55664 a 11.941414,11.941414 0 0 0 10.830078,16.96875 H 98.240234 A 11.788384,11.788384 0 0 0 108.91602,374.67773 L 69.699219,290.91016 a 9.6173031,9.6173031 0 0 0 -7.173828,-5.41602 z m -0.203125,8.51758 a 8.1455204,8.235465 0 0 1 6.076172,4.63867 l 33.214842,71.73047 a 9.9843506,10.0946 0 0 1 -9.041014,14.375 H 29.964844 a 10.11396,10.225641 0 0 1 -9.173828,-14.53125 l 32.841796,-71.55078 a 8.1455204,8.235465 0 0 1 8.689454,-4.66211 z" /><path
       style="opacity:1;fill:#ffffff;fill-opacity:1;stroke:#000000;stroke-width:1.1;stroke-linecap:butt;stroke-linejoin:miter;stroke-dasharray:none;stroke-opacity:1"
       d="m 37.776938,345.96572 22.924466,-16.144 22.924467,16.144 v 9.52495 L 60.701404,339.34668 37.776938,355.49067 Z"
       id="path70" /><path
       style="fill:#ffffff;fill-opacity:1;stroke:none;stroke-width:1px;stroke-linecap:butt;stroke-linejoin:miter;stroke-opacity:1"
       d="m 60.635965,303.347 -1.973684,13.70614 -5.482456,-0.32895 3.947368,4.60527 -0.877193,6.24999 4.824561,-3.07017 4.385965,3.17982 -0.986842,-6.57894 4.057018,-4.16667 -5.482456,-0.10965 z"
       id="path69"
       sodipodi:nodetypes="ccccccccccc" /></g><g
     inkscape:groupmode="layer"
     id="g74"
     inkscape:label="Second Lieutenant"
     sodipodi:insensitive="true"
     style="display:none"><path
       style="fill:#7c868f;fill-opacity:1;stroke:none;stroke-width:0.536;stroke-linecap:butt;stroke-linejoin:miter;stroke-dasharray:none;stroke-opacity:1"
       d="m 24.321193,391.46388 h 73.91833 A 11.788384,11.788384 0 0 0 108.91579,374.67717 L 69.698493,290.91038 a 9.6173031,9.6173031 0 0 0 -17.43372,0.0294 l -38.77546,83.556 a 11.941414,11.941414 0 0 0 10.83188,16.96811 z"
       id="path71"
       sodipodi:nodetypes="cccc"
       inkscape:label="path71" /><path
       style="color:#000000;fill:#e0d928;fill-opacity:1;-inkscape-stroke:none"
       d="m 62.525391,285.49414 a 9.6173031,9.6173031 0 0 0 -10.259766,5.44531 l -38.775391,83.55664 a 11.941414,11.941414 0 0 0 10.830078,16.96875 H 98.240234 A 11.788384,11.788384 0 0 0 108.91602,374.67773 L 69.699219,290.91016 a 9.6173031,9.6173031 0 0 0 -7.173828,-5.41602 z m -0.203125,8.51758 a 8.1455204,8.235465 0 0 1 6.076172,4.63867 l 33.214842,71.73047 a 9.9843506,10.0946 0 0 1 -9.041014,14.375 H 29.964844 a 10.11396,10.225641 0 0 1 -9.173828,-14.53125 l 32.841796,-71.55078 a 8.1455204,8.235465 0 0 1 8.689454,-4.66211 z"
       id="path75" /><path
       id="path76"
       style="color:#000000;fill:#000000;-inkscape-stroke:none"
       d="m 62.525391,285.49414 c -4.253616,-0.68824 -8.445866,1.53677 -10.259766,5.44531 l -38.775391,83.55664 c -3.6732894,7.91424 2.104926,16.96765 10.830078,16.96875 h 73.919922 c 8.630996,-2.2e-4 14.335656,-8.9705 10.675786,-16.78711 L 69.699219,290.91016 c -1.348585,-2.88051 -4.034091,-4.90799 -7.173828,-5.41602 z m -1.576172,2.5332 c 0.433724,-0.002 0.872971,0.0324 1.3125,0.10352 2.592121,0.41942 4.804596,2.09064 5.917969,4.46875 l 38.335932,81.88672 c 3.14687,6.72096 -1.68625,14.32012 -9.107417,14.32031 H 25.148438 c -7.514941,-9.5e-4 -12.419651,-7.68738 -9.25586,-14.50391 l 37.904297,-81.67968 c 1.312017,-2.82709 4.116268,-4.58232 7.152344,-4.59571 z"
       sodipodi:nodetypes="sccccccscsccccccc" /><path
       style="fill:#ffffff;fill-opacity:1;stroke:none;stroke-width:1px;stroke-linecap:butt;stroke-linejoin:miter;stroke-opacity:1"
       d="m 60.635965,303.347 -1.973684,13.70614 -5.482456,-0.32895 3.947368,4.60527 -0.877193,6.24999 4.824561,-3.07017 4.385965,3.17982 -0.986842,-6.57894 4.057018,-4.16667 -5.482456,-0.10965 z"
       id="path74"
       sodipodi:nodetypes="ccccccccccc" /><rect
       style="opacity:1;fill:#e0d928;fill-opacity:1;fill-rule:evenodd;stroke:#000000;stroke-width:1.2;stroke-linecap:round;stroke-linejoin:round;stroke-miterlimit:20;stroke-dasharray:none;stroke-opacity:1"
       id="rect81"
       width="13.853417"
       height="42.052017"
       x="54.277134"
       y="337.77249" /></g><g
     inkscape:groupmode="layer"
     id="g84"
     inkscape:label="First Lieutenant"
     style="display:none"
     sodipodi:insensitive="true"><path
       style="fill:#7c868f;fill-opacity:1;stroke:none;stroke-width:0.536;stroke-linecap:butt;stroke-linejoin:miter;stroke-dasharray:none;stroke-opacity:1"
       d="m 24.321193,391.46388 h 73.91833 A 11.788384,11.788384 0 0 0 108.91579,374.67717 L 69.698493,290.91038 a 9.6173031,9.6173031 0 0 0 -17.43372,0.0294 l -38.77546,83.556 a 11.941414,11.941414 0 0 0 10.83188,16.96811 z"
       id="path81"
       sodipodi:nodetypes="cccc"
       inkscape:label="path71" /><path
       style="color:#000000;fill:#e0d928;fill-opacity:1;-inkscape-stroke:none"
       d="m 62.525391,285.49414 a 9.6173031,9.6173031 0 0 0 -10.259766,5.44531 l -38.775391,83.55664 a 11.941414,11.941414 0 0 0 10.830078,16.96875 H 98.240234 A 11.788384,11.788384 0 0 0 108.91602,374.67773 L 69.699219,290.91016 a 9.6173031,9.6173031 0 0 0 -7.173828,-5.41602 z m -0.203125,8.51758 a 8.1455204,8.235465 0 0 1 6.076172,4.63867 l 33.214842,71.73047 a 9.9843506,10.0946 0 0 1 -9.041014,14.375 H 29.964844 a 10.11396,10.225641 0 0 1 -9.173828,-14.53125 l 32.841796,-71.55078 a 8.1455204,8.235465 0 0 1 8.689454,-4.66211 z"
       id="path82" /><path
       id="path83"
       style="color:#000000;fill:#000000;-inkscape-stroke:none"
       d="m 62.525391,285.49414 c -4.253616,-0.68824 -8.445866,1.53677 -10.259766,5.44531 l -38.775391,83.55664 c -3.6732894,7.91424 2.104926,16.96765 10.830078,16.96875 h 73.919922 c 8.630996,-2.2e-4 14.335656,-8.9705 10.675786,-16.78711 L 69.699219,290.91016 c -1.348585,-2.88051 -4.034091,-4.90799 -7.173828,-5.41602 z m -1.576172,2.5332 c 0.433724,-0.002 0.872971,0.0324 1.3125,0.10352 2.592121,0.41942 4.804596,2.09064 5.917969,4.46875 l 38.335932,81.88672 c 3.14687,6.72096 -1.68625,14.32012 -9.107417,14.32031 H 25.148438 c -7.514941,-9.5e-4 -12.419651,-7.68738 -9.25586,-14.50391 l 37.904297,-81.67968 c 1.312017,-2.82709 4.116268,-4.58232 7.152344,-4.59571 z"
       sodipodi:nodetypes="sccccccscsccccccc" /><path
       style="fill:#ffffff;fill-opacity:1;stroke:none;stroke-width:1px;stroke-linecap:butt;stroke-linejoin:miter;stroke-opacity:1"
       d="m 60.635965,303.347 -1.973684,13.70614 -5.482456,-0.32895 3.947368,4.60527 -0.877193,6.24999 4.824561,-3.07017 4.385965,3.17982 -0.986842,-6.57894 4.057018,-4.16667 -5.482456,-0.10965 z"
       id="path84"
       sodipodi:nodetypes="ccccccccccc" /><rect
       style="opacity:1;fill:#ffffff;fill-opacity:1;fill-rule:evenodd;stroke:#000000;stroke-width:1.2;stroke-linecap:round;stroke-linejoin:round;stroke-miterlimit:20;stroke-dasharray:none;stroke-opacity:1"
       id="rect84"
       width="13.853417"
       height="42.052017"
       x="54.277134"
       y="337.77249" /></g><g
     inkscape:groupmode="layer"
     id="g88"
     inkscape:label="Captain"
     style="display:none"
     sodipodi:insensitive="true"><path
       style="fill:#7c868f;fill-opacity:1;stroke:none;stroke-width:0.536;stroke-linecap:butt;stroke-linejoin:miter;stroke-dasharray:none;stroke-opacity:1"
       d="m 24.321193,391.46388 h 73.91833 A 11.788384,11.788384 0 0 0 108.91579,374.67717 L 69.698493,290.91038 a 9.6173031,9.6173031 0 0 0 -17.43372,0.0294 l -38.77546,83.556 a 11.941414,11.941414 0 0 0 10.83188,16.96811 z"
       id="path85"
       sodipodi:nodetypes="cccc"
       inkscape:label="path71" /><path
       style="color:#000000;fill:#e0d928;fill-opacity:1;-inkscape-stroke:none"
       d="m 62.525391,285.49414 a 9.6173031,9.6173031 0 0 0 -10.259766,5.44531 l -38.775391,83.55664 a 11.941414,11.941414 0 0 0 10.830078,16.96875 H 98.240234 A 11.788384,11.788384 0 0 0 108.91602,374.67773 L 69.699219,290.91016 a 9.6173031,9.6173031 0 0 0 -7.173828,-5.41602 z m -0.203125,8.51758 a 8.1455204,8.235465 0 0 1 6.076172,4.63867 l 33.214842,71.73047 a 9.9843506,10.0946 0 0 1 -9.041014,14.375 H 29.964844 a 10.11396,10.225641 0 0 1 -9.173828,-14.53125 l 32.841796,-71.55078 a 8.1455204,8.235465 0 0 1 8.689454,-4.66211 z"
       id="path86" /><path
       id="path87"
       style="color:#000000;fill:#000000;-inkscape-stroke:none"
       d="m 62.525391,285.49414 c -4.253616,-0.68824 -8.445866,1.53677 -10.259766,5.44531 l -38.775391,83.55664 c -3.6732894,7.91424 2.104926,16.96765 10.830078,16.96875 h 73.919922 c 8.630996,-2.2e-4 14.335656,-8.9705 10.675786,-16.78711 L 69.699219,290.91016 c -1.348585,-2.88051 -4.034091,-4.90799 -7.173828,-5.41602 z m -1.576172,2.5332 c 0.433724,-0.002 0.872971,0.0324 1.3125,0.10352 2.592121,0.41942 4.804596,2.09064 5.917969,4.46875 l 38.335932,81.88672 c 3.14687,6.72096 -1.68625,14.32012 -9.107417,14.32031 H 25.148438 c -7.514941,-9.5e-4 -12.419651,-7.68738 -9.25586,-14.50391 l 37.904297,-81.67968 c 1.312017,-2.82709 4.116268,-4.58232 7.152344,-4.59571 z"
       sodipodi:nodetypes="sccccccscsccccccc" /><path
       style="fill:#ffffff;fill-opacity:1;stroke:none;stroke-width:1px;stroke-linecap:butt;stroke-linejoin:miter;stroke-opacity:1"
       d="m 60.635965,303.347 -1.973684,13.70614 -5.482456,-0.32895 3.947368,4.60527 -0.877193,6.24999 4.824561,-3.07017 4.385965,3.17982 -0.986842,-6.57894 4.057018,-4.16667 -5.482456,-0.10965 z"
       id="path88"
       sodipodi:nodetypes="ccccccccccc" /><path
       id="rect89"
       style="opacity:1;fill:#ffffff;fill-rule:evenodd;stroke:#000000;stroke-width:1.2;stroke-linecap:round;stroke-linejoin:round;stroke-miterlimit:20"
       d="m 45.277136,337.77249 h 13.853417 v 42.05202 H 45.277136 Z m 17.999996,0 H 77.13055 v 42.05202 H 63.277132 Z" /></g><g
     inkscape:groupmode="layer"
     id="g93"
     inkscape:label="Major"
     style="display:none"
     sodipodi:insensitive="true"><path
       style="fill:#7c868f;fill-opacity:1;stroke:none;stroke-width:0.536;stroke-linecap:butt;stroke-linejoin:miter;stroke-dasharray:none;stroke-opacity:1"
       d="m 24.321193,391.46388 h 73.91833 A 11.788384,11.788384 0 0 0 108.91579,374.67717 L 69.698493,290.91038 a 9.6173031,9.6173031 0 0 0 -17.43372,0.0294 l -38.77546,83.556 a 11.941414,11.941414 0 0 0 10.83188,16.96811 z"
       id="path89"
       sodipodi:nodetypes="cccc"
       inkscape:label="path71" /><path
       style="color:#000000;fill:#e0d928;fill-opacity:1;-inkscape-stroke:none"
       d="m 62.525391,285.49414 a 9.6173031,9.6173031 0 0 0 -10.259766,5.44531 l -38.775391,83.55664 a 11.941414,11.941414 0 0 0 10.830078,16.96875 H 98.240234 A 11.788384,11.788384 0 0 0 108.91602,374.67773 L 69.699219,290.91016 a 9.6173031,9.6173031 0 0 0 -7.173828,-5.41602 z m -0.203125,8.51758 a 8.1455204,8.235465 0 0 1 6.076172,4.63867 l 33.214842,71.73047 a 9.9843506,10.0946 0 0 1 -9.041014,14.375 H 29.964844 a 10.11396,10.225641 0 0 1 -9.173828,-14.53125 l 32.841796,-71.55078 a 8.1455204,8.235465 0 0 1 8.689454,-4.66211 z"
       id="path90" /><path
       id="path91"
       style="color:#000000;fill:#000000;-inkscape-stroke:none"
       d="m 62.525391,285.49414 c -4.253616,-0.68824 -8.445866,1.53677 -10.259766,5.44531 l -38.775391,83.55664 c -3.6732894,7.91424 2.104926,16.96765 10.830078,16.96875 h 73.919922 c 8.630996,-2.2e-4 14.335656,-8.9705 10.675786,-16.78711 L 69.699219,290.91016 c -1.348585,-2.88051 -4.034091,-4.90799 -7.173828,-5.41602 z m -1.576172,2.5332 c 0.433724,-0.002 0.872971,0.0324 1.3125,0.10352 2.592121,0.41942 4.804596,2.09064 5.917969,4.46875 l 38.335932,81.88672 c 3.14687,6.72096 -1.68625,14.32012 -9.107417,14.32031 H 25.148438 c -7.514941,-9.5e-4 -12.419651,-7.68738 -9.25586,-14.50391 l 37.904297,-81.67968 c 1.312017,-2.82709 4.116268,-4.58232 7.152344,-4.59571 z"
       sodipodi:nodetypes="sccccccscsccccccc" /><path
       style="fill:#ffffff;fill-opacity:1;stroke:none;stroke-width:1px;stroke-linecap:butt;stroke-linejoin:miter;stroke-opacity:1"
       d="m 60.635965,303.347 -1.973684,13.70614 -5.482456,-0.32895 3.947368,4.60527 -0.877193,6.24999 4.824561,-3.07017 4.385965,3.17982 -0.986842,-6.57894 4.057018,-4.16667 -5.482456,-0.10965 z"
       id="path92"
       sodipodi:nodetypes="ccccccccccc" /><path
       id="path4152-9"
       style="fill:#e0d928;fill-opacity:1;fill-rule:evenodd;stroke:#000000;stroke-width:1;stroke-dasharray:none;stroke-opacity:1"
       d="m 58.025854,379.84631 c 1.682287,1.45424 3.951115,1.62599 6.13365,0.26178 0.380429,-2.62202 0.523385,-6.47876 0.329233,-9.36625 4.335406,2.22435 6.401827,3.45604 11.73788,2.70737 0.905661,-2.66317 0.885339,-5.88776 0.446455,-8.90986 3.579882,-0.55806 6.898883,-2.03119 8.86516,-5.01224 -1.582311,-4.61198 -2.860088,-5.75895 -5.770159,-9.07366 1.114146,-3.71457 1.542312,-5.52096 1.214358,-9.35449 -4.781959,-1.86771 -6.365599,-1.85926 -11.90914,-1.50857 -2.2794,-5.08413 -3.34448,-6.01179 -7.110501,-8.77427 -5.39446,4.37488 -6.042025,4.39399 -9.389006,9.84283 -5.413819,-0.21694 -6.971718,-0.84283 -11.894951,1.47896 0.935766,4.38379 0.879718,5.27191 3.015479,9.98093 -3.08865,3.36597 -4.532494,3.96915 -5.791058,8.59548 2.929044,2.07404 4.367581,2.93411 8.684054,4.03577 -0.323434,2.20439 -0.911187,5.27271 1.553591,8.51188 4.704076,-0.0968 6.072258,-0.0548 12.131367,-1.9903 -0.598105,2.61754 -1.559301,6.09076 -2.246412,8.57464 z"
       inkscape:connector-curvature="0" /><path
       id="path13110-5"
       style="fill:none;fill-opacity:1;fill-rule:evenodd;stroke:#000000;stroke-width:0.627;stroke-dasharray:none;stroke-opacity:1"
       d="m 64.933736,370.10791 -2.227999,-11.39906 c 6.132344,5.48574 9.04986,9.34112 12.970753,14.38699 m 0.794479,-8.86018 c -4.248445,-2.72188 -5.029598,-3.05375 -13.506162,-6.39038 10.734374,-1.88169 9.591585,-0.3383 21.969103,1.65805 m -4.187553,-18.05981 c -6.163967,5.31094 -12.633383,10.52006 -18.074735,16.07186 5.408265,-2.67358 8.025496,-3.67146 16.853469,-7.46193 M 68.750695,339.77086 c -1.683525,5.85209 -3.783608,11.70419 -6.105407,17.55628 -0.989985,-8.73987 -0.438892,-17.32563 -0.608724,-25.98348 m -9.122856,9.69685 c 3.865978,5.06429 5.930546,9.06491 9.442285,16.01461 M 41.030246,342.37019 c 9.175341,4.48588 10.572855,3.88329 21.209166,14.92241 -10.372713,-4.16267 -9.259162,-3.52716 -18.255772,-5.26775 m -5.763052,8.49916 c 8.220299,-3.35549 11.146856,-4.78404 23.911105,-2.65644 -7.78785,2.38752 -8.065465,2.2243 -15.121029,6.60627 m 1.557009,8.36559 C 49.75725,367.95552 60.337621,359.622 62.297844,358.58831 l -1.935706,12.10885" /></g><g
     inkscape:groupmode="layer"
     id="g99"
     inkscape:label="Lieutenant Colonel"
     style="display:none"
     sodipodi:insensitive="true"><path
       style="fill:#7c868f;fill-opacity:1;stroke:none;stroke-width:0.536;stroke-linecap:butt;stroke-linejoin:miter;stroke-dasharray:none;stroke-opacity:1"
       d="m 24.321193,391.46388 h 73.91833 A 11.788384,11.788384 0 0 0 108.91579,374.67717 L 69.698493,290.91038 a 9.6173031,9.6173031 0 0 0 -17.43372,0.0294 l -38.77546,83.556 a 11.941414,11.941414 0 0 0 10.83188,16.96811 z"
       id="path94"
       sodipodi:nodetypes="cccc"
       inkscape:label="path71" /><path
       style="color:#000000;fill:#e0d928;fill-opacity:1;-inkscape-stroke:none"
       d="m 62.525391,285.49414 a 9.6173031,9.6173031 0 0 0 -10.259766,5.44531 l -38.775391,83.55664 a 11.941414,11.941414 0 0 0 10.830078,16.96875 H 98.240234 A 11.788384,11.788384 0 0 0 108.91602,374.67773 L 69.699219,290.91016 a 9.6173031,9.6173031 0 0 0 -7.173828,-5.41602 z m -0.203125,8.51758 a 8.1455204,8.235465 0 0 1 6.076172,4.63867 l 33.214842,71.73047 a 9.9843506,10.0946 0 0 1 -9.041014,14.375 H 29.964844 a 10.11396,10.225641 0 0 1 -9.173828,-14.53125 l 32.841796,-71.55078 a 8.1455204,8.235465 0 0 1 8.689454,-4.66211 z"
       id="path95" /><path
       id="path96"
       style="color:#000000;fill:#000000;-inkscape-stroke:none"
       d="m 62.525391,285.49414 c -4.253616,-0.68824 -8.445866,1.53677 -10.259766,5.44531 l -38.775391,83.55664 c -3.6732894,7.91424 2.104926,16.96765 10.830078,16.96875 h 73.919922 c 8.630996,-2.2e-4 14.335656,-8.9705 10.675786,-16.78711 L 69.699219,290.91016 c -1.348585,-2.88051 -4.034091,-4.90799 -7.173828,-5.41602 z m -1.576172,2.5332 c 0.433724,-0.002 0.872971,0.0324 1.3125,0.10352 2.592121,0.41942 4.804596,2.09064 5.917969,4.46875 l 38.335932,81.88672 c 3.14687,6.72096 -1.68625,14.32012 -9.107417,14.32031 H 25.148438 c -7.514941,-9.5e-4 -12.419651,-7.68738 -9.25586,-14.50391 l 37.904297,-81.67968 c 1.312017,-2.82709 4.116268,-4.58232 7.152344,-4.59571 z"
       sodipodi:nodetypes="sccccccscsccccccc" /><path
       style="fill:#ffffff;fill-opacity:1;stroke:none;stroke-width:1px;stroke-linecap:butt;stroke-linejoin:miter;stroke-opacity:1"
       d="m 60.635965,303.347 -1.973684,13.70614 -5.482456,-0.32895 3.947368,4.60527 -0.877193,6.24999 4.824561,-3.07017 4.385965,3.17982 -0.986842,-6.57894 4.057018,-4.16667 -5.482456,-0.10965 z"
       id="path97"
       sodipodi:nodetypes="ccccccccccc" /><path
       id="path98"
       style="fill:#ffffff;fill-opacity:1;fill-rule:evenodd;stroke:#000000;stroke-width:1;stroke-dasharray:none;stroke-opacity:1"
       d="m 58.025854,379.84631 c 1.682287,1.45424 3.951115,1.62599 6.13365,0.26178 0.380429,-2.62202 0.523385,-6.47876 0.329233,-9.36625 4.335406,2.22435 6.401827,3.45604 11.73788,2.70737 0.905661,-2.66317 0.885339,-5.88776 0.446455,-8.90986 3.579882,-0.55806 6.898883,-2.03119 8.86516,-5.01224 -1.582311,-4.61198 -2.860088,-5.75895 -5.770159,-9.07366 1.114146,-3.71457 1.542312,-5.52096 1.214358,-9.35449 -4.781959,-1.86771 -6.365599,-1.85926 -11.90914,-1.50857 -2.2794,-5.08413 -3.34448,-6.01179 -7.110501,-8.77427 -5.39446,4.37488 -6.042025,4.39399 -9.389006,9.84283 -5.413819,-0.21694 -6.971718,-0.84283 -11.894951,1.47896 0.935766,4.38379 0.879718,5.27191 3.015479,9.98093 -3.08865,3.36597 -4.532494,3.96915 -5.791058,8.59548 2.929044,2.07404 4.367581,2.93411 8.684054,4.03577 -0.323434,2.20439 -0.911187,5.27271 1.553591,8.51188 4.704076,-0.0968 6.072258,-0.0548 12.131367,-1.9903 -0.598105,2.61754 -1.559301,6.09076 -2.246412,8.57464 z"
       inkscape:connector-curvature="0" /><path
       id="path99"
       style="fill:none;fill-opacity:1;fill-rule:evenodd;stroke:#000000;stroke-width:0.627;stroke-dasharray:none;stroke-opacity:1"
       d="m 64.49514,369.23072 -2.227999,-11.39906 c 6.132344,5.48574 9.04986,9.34112 12.970753,14.38699 m 0.794479,-8.86018 c -4.248445,-2.72188 -5.029598,-3.05375 -13.506162,-6.39038 10.734374,-1.88169 9.591585,-0.3383 21.969103,1.65805 m -4.187553,-18.05981 c -6.163967,5.31094 -12.633383,10.52006 -18.074735,16.07186 5.408265,-2.67358 8.025496,-3.67146 16.853469,-7.46193 M 68.312099,338.89367 c -1.683525,5.85209 -3.783608,11.70419 -6.105407,17.55628 -0.989985,-8.73987 -0.438892,-17.32563 -0.608724,-25.98348 m -9.122856,9.69685 c 3.865978,5.06429 5.930546,9.06491 9.442285,16.01461 M 40.59165,341.493 c 9.175341,4.48588 10.572855,3.88329 21.209166,14.92241 -10.372713,-4.16267 -9.259162,-3.52716 -18.255772,-5.26775 m -5.763052,8.49916 c 8.220299,-3.35549 11.146856,-4.78404 23.911105,-2.65644 -7.78785,2.38752 -8.065465,2.2243 -15.121029,6.60627 m 1.557009,8.36559 c 1.189577,-4.88391 11.769948,-13.21743 13.730171,-14.25112 l -1.935706,12.10885" /></g><g
     inkscape:groupmode="layer"
     id="g105"
     inkscape:label="Colonel"><path
       style="fill:#7c868f;fill-opacity:1;stroke:none;stroke-width:0.536;stroke-linecap:butt;stroke-linejoin:miter;stroke-opacity:1;stroke-dasharray:none"
       d="m 24.321193,391.46388 h 73.91833 A 11.788384,11.788384 0 0 0 108.91579,374.67717 L 69.698493,290.91038 a 9.6173031,9.6173031 0 0 0 -17.43372,0.0294 l -38.77546,83.556 a 11.941414,11.941414 0 0 0 10.83188,16.96811 z"
       id="path100"
       sodipodi:nodetypes="cccc"
       inkscape:label="path71" /><path
       style="color:#000000;fill:#e0d928;-inkscape-stroke:none;fill-opacity:1"
       d="m 62.525391,285.49414 a 9.6173031,9.6173031 0 0 0 -10.259766,5.44531 l -38.775391,83.55664 a 11.941414,11.941414 0 0 0 10.830078,16.96875 H 98.240234 A 11.788384,11.788384 0 0 0 108.91602,374.67773 L 69.699219,290.91016 a 9.6173031,9.6173031 0 0 0 -7.173828,-5.41602 z m -0.203125,8.51758 a 8.1455204,8.235465 0 0 1 6.076172,4.63867 l 33.214842,71.73047 a 9.9843506,10.0946 0 0 1 -9.041014,14.375 H 29.964844 a 10.11396,10.225641 0 0 1 -9.173828,-14.53125 l 32.841796,-71.55078 a 8.1455204,8.235465 0 0 1 8.689454,-4.66211 z"
       id="path101" /><path
       id="path102"
       style="color:#000000;fill:#000000;-inkscape-stroke:none"
       d="m 62.525391,285.49414 c -4.253616,-0.68824 -8.445866,1.53677 -10.259766,5.44531 l -38.775391,83.55664 c -3.6732894,7.91424 2.104926,16.96765 10.830078,16.96875 h 73.919922 c 8.630996,-2.2e-4 14.335656,-8.9705 10.675786,-16.78711 L 69.699219,290.91016 c -1.348585,-2.88051 -4.034091,-4.90799 -7.173828,-5.41602 z m -1.576172,2.5332 c 0.433724,-0.002 0.872971,0.0324 1.3125,0.10352 2.592121,0.41942 4.804596,2.09064 5.917969,4.46875 l 38.335932,81.88672 c 3.14687,6.72096 -1.68625,14.32012 -9.107417,14.32031 H 25.148438 c -7.514941,-9.5e-4 -12.419651,-7.68738 -9.25586,-14.50391 l 37.904297,-81.67968 c 1.312017,-2.82709 4.116268,-4.58232 7.152344,-4.59571 z"
       sodipodi:nodetypes="sccccccscsccccccc" /><path
       id="path11"
       style="fill:#ffffff;fill-opacity:1;fill-rule:nonzero;stroke:#000000;stroke-width:0.8;stroke-linecap:butt;stroke-linejoin:miter;stroke-dasharray:none;stroke-opacity:1"
       d="m 46.225633,335.5304 c 0,0 -1.850295,2.44259 -2.267692,3.83822 -0.48219,1.61226 -0.430169,3.25632 -0.164649,4.91807 0.210395,1.31676 1.359298,3.92054 1.359298,3.92054 0,0 -2.029461,-2.30267 -2.636036,-3.61664 -0.548266,-1.18767 -0.708736,-2.53062 -0.851472,-3.83092 -0.09953,-0.90667 0.02164,-2.52126 0.02164,-2.52126 0,0 -0.804639,1.92681 -0.94791,3.10435 -0.186311,1.5313 -0.158061,3.0947 0.264851,4.57819 0.380519,1.33479 1.899112,3.92807 1.899112,3.92807 0,0 -1.474252,-0.89053 -2.042357,-1.49196 -0.628799,-0.66569 -1.052385,-1.51452 -1.384466,-2.3679 -0.258528,-0.66436 -0.482658,-1.8309 -0.482658,-1.8309 0,0 -0.327359,2.17475 -0.178762,3.26218 0.145834,1.06721 0.383416,1.91911 0.965551,2.82538 0.704927,1.09744 2.797157,2.73624 2.797157,2.73624 0,0 -1.693677,-0.11492 -2.432341,-0.48642 -0.756429,-0.38044 -1.885,-1.70271 -1.885,-1.70271 0,0 1.309022,3.5553 2.432341,5.04721 1.226128,1.62845 4.560552,4.07412 4.560552,4.07412 0,0 1.22207,3.58879 2.310736,5.10766 1.244803,1.73671 2.877752,3.2338 4.682157,4.37826 1.149746,0.72924 3.795167,1.50984 3.795167,1.50984 0,0 -1.868568,1.69194 -2.94393,2.38177 -1.023781,0.65674 -2.181694,1.10191 -3.344264,1.4595 -0.630753,0.19401 -1.94592,0.36481 -1.94592,0.36481 0,0 1.249304,1.67606 2.128211,2.18914 1.375655,0.80307 3.013057,1.27 4.599832,1.40963 1.235792,0.10874 2.648916,0.10932 3.730954,-0.49748 0.809769,-0.45411 1.61521,-2.23194 1.61521,-2.23194 0,0 0.808975,0.5946 1.284973,0.74916 0.512694,0.16647 1.598023,0.19312 1.607213,0.19334 0.741378,-0.0122 3.288002,1.10651 4.073336,1.83623 0.190464,0.17698 1.010964,-0.47027 1.141045,-1.07291 0.113746,-0.52697 -0.40568,-1.01168 -0.59176,-1.44702 -0.573468,-1.3416 -1.317204,-3.01697 -1.584842,-3.41583 -0.425707,-0.60659 -0.861118,-1.1676 -0.861118,-1.1676 l 4.200441,-3.35508 c 0,0 1.842051,-1.23514 2.553948,-2.06753 0.8677,-1.01455 1.318291,-2.32223 2.006607,-3.4661 0.690131,-1.14691 1.255314,-2.39043 2.128208,-3.40519 0.853053,-0.99168 1.931259,-1.77166 2.979683,-2.55394 0.92826,-0.69262 2.918763,-1.885 2.918763,-1.885 l -2.614867,-0.12161 c 0,0 1.597918,-0.58223 2.310734,-1.03376 0.631465,-0.4 1.230654,-0.87969 1.702711,-1.45927 0.555753,-0.68232 1.276972,-2.31073 1.276972,-2.31073 0,0 -0.896326,0.99367 -1.459498,1.33766 -0.498042,0.3042 -1.641791,0.60803 -1.641791,0.60803 0,0 0.729289,-0.73783 1.033763,-1.15537 0.401451,-0.55053 0.794236,-1.12553 1.033763,-1.7634 0.304651,-0.81129 0.486422,-2.55394 0.486422,-2.55394 0,0 -0.896649,1.51913 -1.520185,2.12844 -0.438279,0.42828 -1.520181,1.03376 -1.520181,1.03376 0,0 1.385424,-1.94322 1.824313,-3.0406 0.447392,-1.11863 0.778547,-2.32207 0.790318,-3.52679 0.01092,-1.11696 -0.668711,-3.28358 -0.668711,-3.28358 0,0 -0.385976,3.52869 -1.216289,5.04698 -0.983613,1.79861 -2.680784,3.12751 -4.256422,4.43894 -3.54315,2.94904 -8.371797,4.26531 -11.553446,7.60116 -1.235593,1.29548 -2.736469,4.62124 -2.736469,4.62124 0,0 -1.480859,-2.11361 -2.371422,-3.04037 -1.674154,-1.7422 -3.714147,-3.09234 -5.53363,-4.68216 -1.891245,-1.65252 -3.950354,-3.14829 -5.594315,-5.04697 -1.501358,-1.734 -2.387465,-3.18247 -3.250413,-5.30759 -0.570952,-1.40605 -0.747125,-3.08806 -0.641191,-4.42178 0.09287,-1.1693 0.608026,-3.46587 0.608025,-3.46587 z"
       sodipodi:nodetypes="csscsscsscsscsscscscsscsscssscscssscccssssccsscscsscscsscssscssssscc" /><path
       id="path8"
       style="fill:none;fill-opacity:1;fill-rule:nonzero;stroke:#000000;stroke-width:0.8;stroke-linecap:butt;stroke-linejoin:miter;stroke-dasharray:none;stroke-opacity:1"
       d="m 56.178203,378.75553 c 0,0 0.679618,-0.30756 0.945945,-0.55897 0.439372,-0.41477 0.695692,-0.98915 1.010442,-1.50491 0.285717,-0.4682 0.795453,-1.44042 0.795453,-1.44042 m -6.707611,3.00983 c 0,0 1.186286,-0.23865 1.698402,-0.47298 0.979666,-0.44825 1.887024,-1.083 2.665845,-1.82739 0.395793,-0.3783 0.988943,-1.31142 0.988943,-1.31142 m -8.29852,2.23587 c 0,0 2.192353,-0.0763 3.203314,-0.45148 1.181572,-0.43846 2.175166,-1.28408 3.181816,-2.04238 0.312309,-0.23526 0.881449,-0.77395 0.881449,-0.77395" /><path
       id="path12"
       style="display:inline;fill:#ffffff;fill-opacity:1;fill-rule:nonzero;stroke:#000000;stroke-width:0.8;stroke-linecap:butt;stroke-linejoin:miter;stroke-dasharray:none;stroke-opacity:1"
       d="m 71.829299,371.72543 c 0,0 -0.478843,0.13116 -0.68796,0.17199 -0.492785,0.0963 -1.004568,0.10642 -1.504914,0.0645 -0.445398,-0.0373 -1.311428,-0.27949 -1.311428,-0.27949 0,0 0.328298,1.24161 0.623468,1.8059 0.275708,0.52709 1.05344,1.44042 1.05344,1.44042 l 0.68796,-1.54791 -0.150491,-0.25799 -0.580469,1.24693 c -0.351146,-0.58763 -0.616294,-1.17526 -0.795452,-1.95639 0,0 0.955448,0.24419 1.311424,0.55897 0.3103,0.2744 0.558597,0.66583 0.623463,1.07494 0.06427,0.40536 -0.257984,1.20393 -0.257984,1.20393 0,0 0.656477,-0.42677 0.945944,-0.68796 0.278807,-0.25158 0.628329,-0.48403 0.752457,-0.83845 0.123382,-0.35229 0.05961,-0.76591 -0.0645,-1.11794 -0.122981,-0.34883 -0.644961,-0.90294 -0.644961,-0.90294 0,0 -0.254779,-1.06466 -0.55897,-1.50492 -0.464847,-0.67276 -1.169589,-1.15717 -1.848892,-1.6124 -0.652262,-0.43712 -1.376284,-0.76578 -2.10688,-1.05344 -0.778561,-0.30655 -2.461608,-0.74171 -2.461608,-0.74171 0,0 0.377591,0.54004 0.591219,0.8277 0.180309,0.2428 0.537468,0.73096 0.537468,0.73096 0,0 -0.923845,-0.0158 -1.37592,0.0645 -0.517737,0.0919 -1.504914,0.47297 -1.504914,0.47297 0,0 0.987528,0.18188 1.440417,0.38698 0.376595,0.17054 1.031938,0.68796 1.031938,0.68796 l -2.192869,1.22543 c 0,0 1.112725,0.26688 1.676903,0.47297 0.726376,0.26534 1.398992,0.52712 2.106879,0.83845 0.566204,0.24902 1.741396,0.94595 1.741396,0.94595 l -0.606577,-1.79527 1.428979,0.34964 1.474586,-0.0912 z"
       sodipodi:nodetypes="cssccscscscssscssscsscccccscscc" /><path
       id="path14"
       style="fill:#ffffff;fill-opacity:1;fill-rule:nonzero;stroke:#000000;stroke-width:0.8;stroke-linecap:butt;stroke-linejoin:miter;stroke-dasharray:none;stroke-opacity:1"
       d="m 63.573792,377.5515 c 0,0 -0.692839,0.36115 -0.85994,0.688 -0.199226,0.38969 -0.06445,1.31155 -0.06445,1.31155 0,0 0.228489,-0.83245 0.558866,-1.05352 0.370988,-0.24824 0.909526,-0.2702 1.332953,-0.1289 0.322376,0.10758 0.592512,0.38791 0.752448,0.68777 0.180764,0.33892 0.171943,1.13961 0.171943,1.13961 0,0 0.39929,-0.32925 0.494419,-0.55911 0.0906,-0.21891 0.09047,-0.47727 0.04306,-0.7094 -0.05453,-0.2669 -0.365525,-0.73104 -0.365525,-0.73104 0,0 0.746417,0.31235 1.010476,0.60214 0.224529,0.24642 0.329936,0.58499 0.429973,0.90299 0.03923,0.12474 0.06468,0.38692 0.06468,0.38692 0,0 0.180592,-0.6513 0.107492,-0.96743 -0.07838,-0.33897 -0.31385,-0.6348 -0.559103,-0.88158 -0.420377,-0.42298 -0.975975,-0.69197 -1.504895,-0.96743 -0.419012,-0.21822 -0.823764,-0.35318 -1.289908,-0.42997 -0.340068,-0.056 -1.107149,0.0753 -1.107149,0.0753 0.474637,0.12758 0.784669,0.63413 0.784669,0.63413 z m 3.697793,-0.77385 c -0.336295,-0.0236 -0.523268,0.0787 -0.881583,0.34388 l 1.419042,0.47302 c 0,0 -0.305575,0.22365 -0.386927,0.38693 -0.16137,0.32383 -0.150532,1.07492 -0.150532,1.07492 0,0 0.15995,-0.45083 0.343878,-0.58027 0.340209,-0.23922 0.826143,-0.35328 1.225465,-0.23663 0.36979,0.10803 0.628483,0.47254 0.838533,0.79549 0.186609,0.28692 0.343882,0.96743 0.343882,0.96743 0,0 0.165071,-0.69086 0.107492,-1.03187 -0.04215,-0.24973 -0.322476,-0.68801 -0.322476,-0.68801 0,0 0.676017,0.40675 0.946026,0.68801 0.196836,0.20503 0.473017,0.7094 0.473017,0.7094 0,0 -0.01716,-0.77428 -0.172176,-1.11797 -0.115056,-0.25511 -0.308629,-0.48386 -0.537464,-0.64496 -0.511656,-0.36019 -1.182206,-0.41134 -1.762688,-0.64495 -0.500773,-0.21311 -0.878123,-0.45199 -1.483489,-0.49442 z"
       sodipodi:nodetypes="cscssscsscsscsssscccscsccsscscscssscs" /><path
       style="fill:#ffffff;fill-opacity:1;stroke:none;stroke-width:1px;stroke-linecap:butt;stroke-linejoin:miter;stroke-opacity:1"
       d="m 60.635965,303.347 -1.973684,13.70614 -5.482456,-0.32895 3.947368,4.60527 -0.877193,6.24999 4.824561,-3.07017 4.385965,3.17982 -0.986842,-6.57894 4.057018,-4.16667 -5.482456,-0.10965 z"
       id="path103"
       sodipodi:nodetypes="ccccccccccc" /></g></svg>
