<?xml version="1.0" encoding="UTF-8" standalone="no"?>
<!-- Created with Inkscape (http://www.inkscape.org/) -->

<svg
   width="400"
   height="400"
   viewBox="0 0 400 400"
   version="1.1"
   id="svg1"
   xml:space="preserve"
   inkscape:version="1.3.2 (091e20e, 2023-11-25)"
   sodipodi:docname="macoRanks.svg"
   xmlns:inkscape="http://www.inkscape.org/namespaces/inkscape"
   xmlns:sodipodi="http://sodipodi.sourceforge.net/DTD/sodipodi-0.dtd"
   xmlns:xlink="http://www.w3.org/1999/xlink"
   xmlns="http://www.w3.org/2000/svg"
   xmlns:svg="http://www.w3.org/2000/svg"><sodipodi:namedview
     id="namedview1"
     pagecolor="#ffffff"
     bordercolor="#666666"
     borderopacity="1.0"
     inkscape:showpageshadow="2"
     inkscape:pageopacity="0.0"
     inkscape:pagecheckerboard="0"
     inkscape:deskcolor="#d1d1d1"
     inkscape:document-units="px"
     showguides="true"
     inkscape:zoom="2.28"
     inkscape:cx="201.75439"
     inkscape:cy="198.24561"
     inkscape:window-width="1840"
     inkscape:window-height="1125"
     inkscape:window-x="2273"
     inkscape:window-y="212"
     inkscape:window-maximized="0"
     inkscape:current-layer="g99" /><defs
     id="defs1"><inkscape:path-effect
       effect="fillet_chamfer"
       id="path-effect3"
       is_visible="true"
       lpeversion="1"
       nodesatellites_param="F,0,0,1,0,34.885845,0,1 @ F,0,0,1,0,34.567211,0,1 @ F,0,0,1,0,38.478807,0,1"
       radius="0"
       unit="px"
       method="auto"
       mode="F"
       chamfer_steps="1"
       flexible="false"
       use_knot_distance="true"
       apply_no_radius="true"
       apply_with_radius="true"
       only_selected="false"
       hide_knots="false" /></defs><g
     inkscape:groupmode="layer"
     id="layer2"
     inkscape:label="Sergeant"
     style="display:none"><path
       style="fill:#7c868f;fill-opacity:1;stroke:none;stroke-width:0.536;stroke-linecap:butt;stroke-linejoin:miter;stroke-dasharray:none;stroke-opacity:1"
       d="m 24.321193,391.46388 h 73.91833 A 11.788384,11.788384 0 0 0 108.91579,374.67717 L 69.698493,290.91038 a 9.6173031,9.6173031 0 0 0 -17.43372,0.0294 l -38.77546,83.556 a 11.941414,11.941414 0 0 0 10.83188,16.96811 z"
       id="path52"
       sodipodi:nodetypes="cccc" /><path
       id="path3"
       style="fill:#a1bed7;fill-opacity:1;stroke:none;stroke-width:0.536212px;stroke-linecap:butt;stroke-linejoin:miter;stroke-opacity:1"
       d="m 62.525391,285.49414 a 9.6173031,9.6173031 0 0 0 -10.259766,5.44531 l -38.775391,83.55664 a 11.941414,11.941414 0 0 0 10.830078,16.96875 H 98.240234 A 11.788384,11.788384 0 0 0 108.91602,374.67773 L 69.699219,290.91016 a 9.6173031,9.6173031 0 0 0 -7.173828,-5.41602 z m -0.203125,8.51758 a 8.1455204,8.235465 0 0 1 6.076172,4.63867 l 33.214842,71.73047 a 9.9843506,10.0946 0 0 1 -9.041014,14.375 H 29.964844 a 10.11396,10.225641 0 0 1 -9.173828,-14.53125 l 32.841796,-71.55078 a 8.1455204,8.235465 0 0 1 8.689454,-4.66211 z" /><path
       id="path59"
       style="opacity:1;fill:#ffffff;fill-opacity:1;stroke:#000000;stroke-width:1.1;stroke-linecap:butt;stroke-linejoin:miter;stroke-dasharray:none;stroke-opacity:1"
       d="m 37.776938,369.88028 22.924466,-16.144 22.924467,16.144 v 9.52495 L 60.701404,363.26124 37.776938,379.40523 Z m 0,-11.95728 22.924466,-16.144 22.924467,16.144 v 9.52495 L 60.701404,351.30396 37.776938,367.44795 Z m 0,-11.95728 22.924466,-16.144 22.924467,16.144 v 9.52495 L 60.701404,339.34668 37.776938,355.49067 Z" /><path
       style="fill:#ffffff;fill-opacity:1;stroke:none;stroke-width:1px;stroke-linecap:butt;stroke-linejoin:miter;stroke-opacity:1"
       d="m 60.635965,303.347 -1.973684,13.70614 -5.482456,-0.32895 3.947368,4.60527 -0.877193,6.24999 4.824561,-3.07017 4.385965,3.17982 -0.986842,-6.57894 4.057018,-4.16667 -5.482456,-0.10965 z"
       id="path60"
       sodipodi:nodetypes="ccccccccccc" /></g><g
     inkscape:groupmode="layer"
     id="g64"
     inkscape:label="Corporal"
     style="display:none"><path
       style="fill:#7c868f;fill-opacity:1;stroke:none;stroke-width:0.536;stroke-linecap:butt;stroke-linejoin:miter;stroke-dasharray:none;stroke-opacity:1"
       d="m 24.321193,391.46388 h 73.91833 A 11.788384,11.788384 0 0 0 108.91579,374.67717 L 69.698493,290.91038 a 9.6173031,9.6173031 0 0 0 -17.43372,0.0294 l -38.77546,83.556 a 11.941414,11.941414 0 0 0 10.83188,16.96811 z"
       id="path61"
       sodipodi:nodetypes="cccc" /><path
       id="path62"
       style="fill:#a1bed7;fill-opacity:1;stroke:none;stroke-width:0.536212px;stroke-linecap:butt;stroke-linejoin:miter;stroke-opacity:1"
       d="m 62.525391,285.49414 a 9.6173031,9.6173031 0 0 0 -10.259766,5.44531 l -38.775391,83.55664 a 11.941414,11.941414 0 0 0 10.830078,16.96875 H 98.240234 A 11.788384,11.788384 0 0 0 108.91602,374.67773 L 69.699219,290.91016 a 9.6173031,9.6173031 0 0 0 -7.173828,-5.41602 z m -0.203125,8.51758 a 8.1455204,8.235465 0 0 1 6.076172,4.63867 l 33.214842,71.73047 a 9.9843506,10.0946 0 0 1 -9.041014,14.375 H 29.964844 a 10.11396,10.225641 0 0 1 -9.173828,-14.53125 l 32.841796,-71.55078 a 8.1455204,8.235465 0 0 1 8.689454,-4.66211 z" /><path
       id="path65"
       style="opacity:1;fill:#ffffff;fill-opacity:1;stroke:#000000;stroke-width:1.1;stroke-linecap:butt;stroke-linejoin:miter;stroke-dasharray:none;stroke-opacity:1"
       d="m 37.776938,357.923 22.924466,-16.144 22.924467,16.144 v 9.52495 L 60.701404,351.30396 37.776938,367.44795 Z m 0,-11.95728 22.924466,-16.144 22.924467,16.144 v 9.52495 L 60.701404,339.34668 37.776938,355.49067 Z" /><path
       style="fill:#ffffff;fill-opacity:1;stroke:none;stroke-width:1px;stroke-linecap:butt;stroke-linejoin:miter;stroke-opacity:1"
       d="m 60.635965,303.347 -1.973684,13.70614 -5.482456,-0.32895 3.947368,4.60527 -0.877193,6.24999 4.824561,-3.07017 4.385965,3.17982 -0.986842,-6.57894 4.057018,-4.16667 -5.482456,-0.10965 z"
       id="path64"
       sodipodi:nodetypes="ccccccccccc" /></g><g
     inkscape:groupmode="layer"
     id="g69"
     inkscape:label="Private"
     sodipodi:insensitive="true"
     style="display:none"><path
       style="fill:#7c868f;fill-opacity:1;stroke:none;stroke-width:0.536;stroke-linecap:butt;stroke-linejoin:miter;stroke-dasharray:none;stroke-opacity:1"
       d="m 24.321193,391.46388 h 73.91833 A 11.788384,11.788384 0 0 0 108.91579,374.67717 L 69.698493,290.91038 a 9.6173031,9.6173031 0 0 0 -17.43372,0.0294 l -38.77546,83.556 a 11.941414,11.941414 0 0 0 10.83188,16.96811 z"
       id="path66"
       sodipodi:nodetypes="cccc" /><path
       id="path67"
       style="fill:#a1bed7;fill-opacity:1;stroke:none;stroke-width:0.536212px;stroke-linecap:butt;stroke-linejoin:miter;stroke-opacity:1"
       d="m 62.525391,285.49414 a 9.6173031,9.6173031 0 0 0 -10.259766,5.44531 l -38.775391,83.55664 a 11.941414,11.941414 0 0 0 10.830078,16.96875 H 98.240234 A 11.788384,11.788384 0 0 0 108.91602,374.67773 L 69.699219,290.91016 a 9.6173031,9.6173031 0 0 0 -7.173828,-5.41602 z m -0.203125,8.51758 a 8.1455204,8.235465 0 0 1 6.076172,4.63867 l 33.214842,71.73047 a 9.9843506,10.0946 0 0 1 -9.041014,14.375 H 29.964844 a 10.11396,10.225641 0 0 1 -9.173828,-14.53125 l 32.841796,-71.55078 a 8.1455204,8.235465 0 0 1 8.689454,-4.66211 z" /><path
       style="opacity:1;fill:#ffffff;fill-opacity:1;stroke:#000000;stroke-width:1.1;stroke-linecap:butt;stroke-linejoin:miter;stroke-dasharray:none;stroke-opacity:1"
       d="m 37.776938,345.96572 22.924466,-16.144 22.924467,16.144 v 9.52495 L 60.701404,339.34668 37.776938,355.49067 Z"
       id="path70" /><path
       style="fill:#ffffff;fill-opacity:1;stroke:none;stroke-width:1px;stroke-linecap:butt;stroke-linejoin:miter;stroke-opacity:1"
       d="m 60.635965,303.347 -1.973684,13.70614 -5.482456,-0.32895 3.947368,4.60527 -0.877193,6.24999 4.824561,-3.07017 4.385965,3.17982 -0.986842,-6.57894 4.057018,-4.16667 -5.482456,-0.10965 z"
       id="path69"
       sodipodi:nodetypes="ccccccccccc" /></g><g
     inkscape:groupmode="layer"
     id="g74"
     inkscape:label="Second Lieutenant"
     sodipodi:insensitive="true"
     style="display:none"><path
       style="fill:#7c868f;fill-opacity:1;stroke:none;stroke-width:0.536;stroke-linecap:butt;stroke-linejoin:miter;stroke-dasharray:none;stroke-opacity:1"
       d="m 24.321193,391.46388 h 73.91833 A 11.788384,11.788384 0 0 0 108.91579,374.67717 L 69.698493,290.91038 a 9.6173031,9.6173031 0 0 0 -17.43372,0.0294 l -38.77546,83.556 a 11.941414,11.941414 0 0 0 10.83188,16.96811 z"
       id="path71"
       sodipodi:nodetypes="cccc"
       inkscape:label="path71" /><path
       style="color:#000000;fill:#e0d928;fill-opacity:1;-inkscape-stroke:none"
       d="m 62.525391,285.49414 a 9.6173031,9.6173031 0 0 0 -10.259766,5.44531 l -38.775391,83.55664 a 11.941414,11.941414 0 0 0 10.830078,16.96875 H 98.240234 A 11.788384,11.788384 0 0 0 108.91602,374.67773 L 69.699219,290.91016 a 9.6173031,9.6173031 0 0 0 -7.173828,-5.41602 z m -0.203125,8.51758 a 8.1455204,8.235465 0 0 1 6.076172,4.63867 l 33.214842,71.73047 a 9.9843506,10.0946 0 0 1 -9.041014,14.375 H 29.964844 a 10.11396,10.225641 0 0 1 -9.173828,-14.53125 l 32.841796,-71.55078 a 8.1455204,8.235465 0 0 1 8.689454,-4.66211 z"
       id="path75" /><path
       id="path76"
       style="color:#000000;fill:#000000;-inkscape-stroke:none"
       d="m 62.525391,285.49414 c -4.253616,-0.68824 -8.445866,1.53677 -10.259766,5.44531 l -38.775391,83.55664 c -3.6732894,7.91424 2.104926,16.96765 10.830078,16.96875 h 73.919922 c 8.630996,-2.2e-4 14.335656,-8.9705 10.675786,-16.78711 L 69.699219,290.91016 c -1.348585,-2.88051 -4.034091,-4.90799 -7.173828,-5.41602 z m -1.576172,2.5332 c 0.433724,-0.002 0.872971,0.0324 1.3125,0.10352 2.592121,0.41942 4.804596,2.09064 5.917969,4.46875 l 38.335932,81.88672 c 3.14687,6.72096 -1.68625,14.32012 -9.107417,14.32031 H 25.148438 c -7.514941,-9.5e-4 -12.419651,-7.68738 -9.25586,-14.50391 l 37.904297,-81.67968 c 1.312017,-2.82709 4.116268,-4.58232 7.152344,-4.59571 z"
       sodipodi:nodetypes="sccccccscsccccccc" /><path
       style="fill:#ffffff;fill-opacity:1;stroke:none;stroke-width:1px;stroke-linecap:butt;stroke-linejoin:miter;stroke-opacity:1"
       d="m 60.635965,303.347 -1.973684,13.70614 -5.482456,-0.32895 3.947368,4.60527 -0.877193,6.24999 4.824561,-3.07017 4.385965,3.17982 -0.986842,-6.57894 4.057018,-4.16667 -5.482456,-0.10965 z"
       id="path74"
       sodipodi:nodetypes="ccccccccccc" /><rect
       style="opacity:1;fill:#e0d928;fill-opacity:1;fill-rule:evenodd;stroke:#000000;stroke-width:1.2;stroke-linecap:round;stroke-linejoin:round;stroke-miterlimit:20;stroke-dasharray:none;stroke-opacity:1"
       id="rect81"
       width="13.853417"
       height="42.052017"
       x="54.277134"
       y="337.77249" /></g><g
     inkscape:groupmode="layer"
     id="g84"
     inkscape:label="First Lieutenant"
     style="display:none"
     sodipodi:insensitive="true"><path
       style="fill:#7c868f;fill-opacity:1;stroke:none;stroke-width:0.536;stroke-linecap:butt;stroke-linejoin:miter;stroke-dasharray:none;stroke-opacity:1"
       d="m 24.321193,391.46388 h 73.91833 A 11.788384,11.788384 0 0 0 108.91579,374.67717 L 69.698493,290.91038 a 9.6173031,9.6173031 0 0 0 -17.43372,0.0294 l -38.77546,83.556 a 11.941414,11.941414 0 0 0 10.83188,16.96811 z"
       id="path81"
       sodipodi:nodetypes="cccc"
       inkscape:label="path71" /><path
       style="color:#000000;fill:#e0d928;fill-opacity:1;-inkscape-stroke:none"
       d="m 62.525391,285.49414 a 9.6173031,9.6173031 0 0 0 -10.259766,5.44531 l -38.775391,83.55664 a 11.941414,11.941414 0 0 0 10.830078,16.96875 H 98.240234 A 11.788384,11.788384 0 0 0 108.91602,374.67773 L 69.699219,290.91016 a 9.6173031,9.6173031 0 0 0 -7.173828,-5.41602 z m -0.203125,8.51758 a 8.1455204,8.235465 0 0 1 6.076172,4.63867 l 33.214842,71.73047 a 9.9843506,10.0946 0 0 1 -9.041014,14.375 H 29.964844 a 10.11396,10.225641 0 0 1 -9.173828,-14.53125 l 32.841796,-71.55078 a 8.1455204,8.235465 0 0 1 8.689454,-4.66211 z"
       id="path82" /><path
       id="path83"
       style="color:#000000;fill:#000000;-inkscape-stroke:none"
       d="m 62.525391,285.49414 c -4.253616,-0.68824 -8.445866,1.53677 -10.259766,5.44531 l -38.775391,83.55664 c -3.6732894,7.91424 2.104926,16.96765 10.830078,16.96875 h 73.919922 c 8.630996,-2.2e-4 14.335656,-8.9705 10.675786,-16.78711 L 69.699219,290.91016 c -1.348585,-2.88051 -4.034091,-4.90799 -7.173828,-5.41602 z m -1.576172,2.5332 c 0.433724,-0.002 0.872971,0.0324 1.3125,0.10352 2.592121,0.41942 4.804596,2.09064 5.917969,4.46875 l 38.335932,81.88672 c 3.14687,6.72096 -1.68625,14.32012 -9.107417,14.32031 H 25.148438 c -7.514941,-9.5e-4 -12.419651,-7.68738 -9.25586,-14.50391 l 37.904297,-81.67968 c 1.312017,-2.82709 4.116268,-4.58232 7.152344,-4.59571 z"
       sodipodi:nodetypes="sccccccscsccccccc" /><path
       style="fill:#ffffff;fill-opacity:1;stroke:none;stroke-width:1px;stroke-linecap:butt;stroke-linejoin:miter;stroke-opacity:1"
       d="m 60.635965,303.347 -1.973684,13.70614 -5.482456,-0.32895 3.947368,4.60527 -0.877193,6.24999 4.824561,-3.07017 4.385965,3.17982 -0.986842,-6.57894 4.057018,-4.16667 -5.482456,-0.10965 z"
       id="path84"
       sodipodi:nodetypes="ccccccccccc" /><rect
       style="opacity:1;fill:#ffffff;fill-opacity:1;fill-rule:evenodd;stroke:#000000;stroke-width:1.2;stroke-linecap:round;stroke-linejoin:round;stroke-miterlimit:20;stroke-dasharray:none;stroke-opacity:1"
       id="rect84"
       width="13.853417"
       height="42.052017"
       x="54.277134"
       y="337.77249" /></g><g
     inkscape:groupmode="layer"
     id="g88"
     inkscape:label="Captain"
     style="display:none"
     sodipodi:insensitive="true"><path
       style="fill:#7c868f;fill-opacity:1;stroke:none;stroke-width:0.536;stroke-linecap:butt;stroke-linejoin:miter;stroke-dasharray:none;stroke-opacity:1"
       d="m 24.321193,391.46388 h 73.91833 A 11.788384,11.788384 0 0 0 108.91579,374.67717 L 69.698493,290.91038 a 9.6173031,9.6173031 0 0 0 -17.43372,0.0294 l -38.77546,83.556 a 11.941414,11.941414 0 0 0 10.83188,16.96811 z"
       id="path85"
       sodipodi:nodetypes="cccc"
       inkscape:label="path71" /><path
       style="color:#000000;fill:#e0d928;fill-opacity:1;-inkscape-stroke:none"
       d="m 62.525391,285.49414 a 9.6173031,9.6173031 0 0 0 -10.259766,5.44531 l -38.775391,83.55664 a 11.941414,11.941414 0 0 0 10.830078,16.96875 H 98.240234 A 11.788384,11.788384 0 0 0 108.91602,374.67773 L 69.699219,290.91016 a 9.6173031,9.6173031 0 0 0 -7.173828,-5.41602 z m -0.203125,8.51758 a 8.1455204,8.235465 0 0 1 6.076172,4.63867 l 33.214842,71.73047 a 9.9843506,10.0946 0 0 1 -9.041014,14.375 H 29.964844 a 10.11396,10.225641 0 0 1 -9.173828,-14.53125 l 32.841796,-71.55078 a 8.1455204,8.235465 0 0 1 8.689454,-4.66211 z"
       id="path86" /><path
       id="path87"
       style="color:#000000;fill:#000000;-inkscape-stroke:none"
       d="m 62.525391,285.49414 c -4.253616,-0.68824 -8.445866,1.53677 -10.259766,5.44531 l -38.775391,83.55664 c -3.6732894,7.91424 2.104926,16.96765 10.830078,16.96875 h 73.919922 c 8.630996,-2.2e-4 14.335656,-8.9705 10.675786,-16.78711 L 69.699219,290.91016 c -1.348585,-2.88051 -4.034091,-4.90799 -7.173828,-5.41602 z m -1.576172,2.5332 c 0.433724,-0.002 0.872971,0.0324 1.3125,0.10352 2.592121,0.41942 4.804596,2.09064 5.917969,4.46875 l 38.335932,81.88672 c 3.14687,6.72096 -1.68625,14.32012 -9.107417,14.32031 H 25.148438 c -7.514941,-9.5e-4 -12.419651,-7.68738 -9.25586,-14.50391 l 37.904297,-81.67968 c 1.312017,-2.82709 4.116268,-4.58232 7.152344,-4.59571 z"
       sodipodi:nodetypes="sccccccscsccccccc" /><path
       style="fill:#ffffff;fill-opacity:1;stroke:none;stroke-width:1px;stroke-linecap:butt;stroke-linejoin:miter;stroke-opacity:1"
       d="m 60.635965,303.347 -1.973684,13.70614 -5.482456,-0.32895 3.947368,4.60527 -0.877193,6.24999 4.824561,-3.07017 4.385965,3.17982 -0.986842,-6.57894 4.057018,-4.16667 -5.482456,-0.10965 z"
       id="path88"
       sodipodi:nodetypes="ccccccccccc" /><path
       id="rect89"
       style="opacity:1;fill:#ffffff;fill-rule:evenodd;stroke:#000000;stroke-width:1.2;stroke-linecap:round;stroke-linejoin:round;stroke-miterlimit:20"
       d="m 45.277136,337.77249 h 13.853417 v 42.05202 H 45.277136 Z m 17.999996,0 H 77.13055 v 42.05202 H 63.277132 Z" /></g><g
     inkscape:groupmode="layer"
     id="g93"
     inkscape:label="Major"
     style="display:none"
     sodipodi:insensitive="true"><path
       style="fill:#7c868f;fill-opacity:1;stroke:none;stroke-width:0.536;stroke-linecap:butt;stroke-linejoin:miter;stroke-dasharray:none;stroke-opacity:1"
       d="m 24.321193,391.46388 h 73.91833 A 11.788384,11.788384 0 0 0 108.91579,374.67717 L 69.698493,290.91038 a 9.6173031,9.6173031 0 0 0 -17.43372,0.0294 l -38.77546,83.556 a 11.941414,11.941414 0 0 0 10.83188,16.96811 z"
       id="path89"
       sodipodi:nodetypes="cccc"
       inkscape:label="path71" /><path
       style="color:#000000;fill:#e0d928;fill-opacity:1;-inkscape-stroke:none"
       d="m 62.525391,285.49414 a 9.6173031,9.6173031 0 0 0 -10.259766,5.44531 l -38.775391,83.55664 a 11.941414,11.941414 0 0 0 10.830078,16.96875 H 98.240234 A 11.788384,11.788384 0 0 0 108.91602,374.67773 L 69.699219,290.91016 a 9.6173031,9.6173031 0 0 0 -7.173828,-5.41602 z m -0.203125,8.51758 a 8.1455204,8.235465 0 0 1 6.076172,4.63867 l 33.214842,71.73047 a 9.9843506,10.0946 0 0 1 -9.041014,14.375 H 29.964844 a 10.11396,10.225641 0 0 1 -9.173828,-14.53125 l 32.841796,-71.55078 a 8.1455204,8.235465 0 0 1 8.689454,-4.66211 z"
       id="path90" /><path
       id="path91"
       style="color:#000000;fill:#000000;-inkscape-stroke:none"
       d="m 62.525391,285.49414 c -4.253616,-0.68824 -8.445866,1.53677 -10.259766,5.44531 l -38.775391,83.55664 c -3.6732894,7.91424 2.104926,16.96765 10.830078,16.96875 h 73.919922 c 8.630996,-2.2e-4 14.335656,-8.9705 10.675786,-16.78711 L 69.699219,290.91016 c -1.348585,-2.88051 -4.034091,-4.90799 -7.173828,-5.41602 z m -1.576172,2.5332 c 0.433724,-0.002 0.872971,0.0324 1.3125,0.10352 2.592121,0.41942 4.804596,2.09064 5.917969,4.46875 l 38.335932,81.88672 c 3.14687,6.72096 -1.68625,14.32012 -9.107417,14.32031 H 25.148438 c -7.514941,-9.5e-4 -12.419651,-7.68738 -9.25586,-14.50391 l 37.904297,-81.67968 c 1.312017,-2.82709 4.116268,-4.58232 7.152344,-4.59571 z"
       sodipodi:nodetypes="sccccccscsccccccc" /><path
       style="fill:#ffffff;fill-opacity:1;stroke:none;stroke-width:1px;stroke-linecap:butt;stroke-linejoin:miter;stroke-opacity:1"
       d="m 60.635965,303.347 -1.973684,13.70614 -5.482456,-0.32895 3.947368,4.60527 -0.877193,6.24999 4.824561,-3.07017 4.385965,3.17982 -0.986842,-6.57894 4.057018,-4.16667 -5.482456,-0.10965 z"
       id="path92"
       sodipodi:nodetypes="ccccccccccc" /><path
       id="path4152-9"
       style="fill:#e0d928;fill-opacity:1;fill-rule:evenodd;stroke:#000000;stroke-width:1;stroke-dasharray:none;stroke-opacity:1"
       d="m 58.025854,379.84631 c 1.682287,1.45424 3.951115,1.62599 6.13365,0.26178 0.380429,-2.62202 0.523385,-6.47876 0.329233,-9.36625 4.335406,2.22435 6.401827,3.45604 11.73788,2.70737 0.905661,-2.66317 0.885339,-5.88776 0.446455,-8.90986 3.579882,-0.55806 6.898883,-2.03119 8.86516,-5.01224 -1.582311,-4.61198 -2.860088,-5.75895 -5.770159,-9.07366 1.114146,-3.71457 1.542312,-5.52096 1.214358,-9.35449 -4.781959,-1.86771 -6.365599,-1.85926 -11.90914,-1.50857 -2.2794,-5.08413 -3.34448,-6.01179 -7.110501,-8.77427 -5.39446,4.37488 -6.042025,4.39399 -9.389006,9.84283 -5.413819,-0.21694 -6.971718,-0.84283 -11.894951,1.47896 0.935766,4.38379 0.879718,5.27191 3.015479,9.98093 -3.08865,3.36597 -4.532494,3.96915 -5.791058,8.59548 2.929044,2.07404 4.367581,2.93411 8.684054,4.03577 -0.323434,2.20439 -0.911187,5.27271 1.553591,8.51188 4.704076,-0.0968 6.072258,-0.0548 12.131367,-1.9903 -0.598105,2.61754 -1.559301,6.09076 -2.246412,8.57464 z"
       inkscape:connector-curvature="0" /><path
       id="path13110-5"
       style="fill:none;fill-opacity:1;fill-rule:evenodd;stroke:#000000;stroke-width:0.627;stroke-dasharray:none;stroke-opacity:1"
       d="m 64.933736,370.10791 -2.227999,-11.39906 c 6.132344,5.48574 9.04986,9.34112 12.970753,14.38699 m 0.794479,-8.86018 c -4.248445,-2.72188 -5.029598,-3.05375 -13.506162,-6.39038 10.734374,-1.88169 9.591585,-0.3383 21.969103,1.65805 m -4.187553,-18.05981 c -6.163967,5.31094 -12.633383,10.52006 -18.074735,16.07186 5.408265,-2.67358 8.025496,-3.67146 16.853469,-7.46193 M 68.750695,339.77086 c -1.683525,5.85209 -3.783608,11.70419 -6.105407,17.55628 -0.989985,-8.73987 -0.438892,-17.32563 -0.608724,-25.98348 m -9.122856,9.69685 c 3.865978,5.06429 5.930546,9.06491 9.442285,16.01461 M 41.030246,342.37019 c 9.175341,4.48588 10.572855,3.88329 21.209166,14.92241 -10.372713,-4.16267 -9.259162,-3.52716 -18.255772,-5.26775 m -5.763052,8.49916 c 8.220299,-3.35549 11.146856,-4.78404 23.911105,-2.65644 -7.78785,2.38752 -8.065465,2.2243 -15.121029,6.60627 m 1.557009,8.36559 C 49.75725,367.95552 60.337621,359.622 62.297844,358.58831 l -1.935706,12.10885" /></g><g
     inkscape:groupmode="layer"
     id="g99"
     inkscape:label="Lieutenant Colonel"><path
       style="fill:#7c868f;fill-opacity:1;stroke:none;stroke-width:0.536;stroke-linecap:butt;stroke-linejoin:miter;stroke-opacity:1;stroke-dasharray:none"
       d="m 24.321193,391.46388 h 73.91833 A 11.788384,11.788384 0 0 0 108.91579,374.67717 L 69.698493,290.91038 a 9.6173031,9.6173031 0 0 0 -17.43372,0.0294 l -38.77546,83.556 a 11.941414,11.941414 0 0 0 10.83188,16.96811 z"
       id="path94"
       sodipodi:nodetypes="cccc"
       inkscape:label="path71" /><path
       style="color:#000000;fill:#e0d928;-inkscape-stroke:none;fill-opacity:1"
       d="m 62.525391,285.49414 a 9.6173031,9.6173031 0 0 0 -10.259766,5.44531 l -38.775391,83.55664 a 11.941414,11.941414 0 0 0 10.830078,16.96875 H 98.240234 A 11.788384,11.788384 0 0 0 108.91602,374.67773 L 69.699219,290.91016 a 9.6173031,9.6173031 0 0 0 -7.173828,-5.41602 z m -0.203125,8.51758 a 8.1455204,8.235465 0 0 1 6.076172,4.63867 l 33.214842,71.73047 a 9.9843506,10.0946 0 0 1 -9.041014,14.375 H 29.964844 a 10.11396,10.225641 0 0 1 -9.173828,-14.53125 l 32.841796,-71.55078 a 8.1455204,8.235465 0 0 1 8.689454,-4.66211 z"
       id="path95" /><path
       id="path96"
       style="color:#000000;fill:#000000;-inkscape-stroke:none"
       d="m 62.525391,285.49414 c -4.253616,-0.68824 -8.445866,1.53677 -10.259766,5.44531 l -38.775391,83.55664 c -3.6732894,7.91424 2.104926,16.96765 10.830078,16.96875 h 73.919922 c 8.630996,-2.2e-4 14.335656,-8.9705 10.675786,-16.78711 L 69.699219,290.91016 c -1.348585,-2.88051 -4.034091,-4.90799 -7.173828,-5.41602 z m -1.576172,2.5332 c 0.433724,-0.002 0.872971,0.0324 1.3125,0.10352 2.592121,0.41942 4.804596,2.09064 5.917969,4.46875 l 38.335932,81.88672 c 3.14687,6.72096 -1.68625,14.32012 -9.107417,14.32031 H 25.148438 c -7.514941,-9.5e-4 -12.419651,-7.68738 -9.25586,-14.50391 l 37.904297,-81.67968 c 1.312017,-2.82709 4.116268,-4.58232 7.152344,-4.59571 z"
       sodipodi:nodetypes="sccccccscsccccccc" /><path
       style="fill:#ffffff;fill-opacity:1;stroke:none;stroke-width:1px;stroke-linecap:butt;stroke-linejoin:miter;stroke-opacity:1"
       d="m 60.635965,303.347 -1.973684,13.70614 -5.482456,-0.32895 3.947368,4.60527 -0.877193,6.24999 4.824561,-3.07017 4.385965,3.17982 -0.986842,-6.57894 4.057018,-4.16667 -5.482456,-0.10965 z"
       id="path97"
       sodipodi:nodetypes="ccccccccccc" /><path
       id="path98"
       style="fill:#ffffff;fill-opacity:1;fill-rule:evenodd;stroke:#000000;stroke-width:1;stroke-opacity:1;stroke-dasharray:none"
       d="m 58.025854,379.84631 c 1.682287,1.45424 3.951115,1.62599 6.13365,0.26178 0.380429,-2.62202 0.523385,-6.47876 0.329233,-9.36625 4.335406,2.22435 6.401827,3.45604 11.73788,2.70737 0.905661,-2.66317 0.885339,-5.88776 0.446455,-8.90986 3.579882,-0.55806 6.898883,-2.03119 8.86516,-5.01224 -1.582311,-4.61198 -2.860088,-5.75895 -5.770159,-9.07366 1.114146,-3.71457 1.542312,-5.52096 1.214358,-9.35449 -4.781959,-1.86771 -6.365599,-1.85926 -11.90914,-1.50857 -2.2794,-5.08413 -3.34448,-6.01179 -7.110501,-8.77427 -5.39446,4.37488 -6.042025,4.39399 -9.389006,9.84283 -5.413819,-0.21694 -6.971718,-0.84283 -11.894951,1.47896 0.935766,4.38379 0.879718,5.27191 3.015479,9.98093 -3.08865,3.36597 -4.532494,3.96915 -5.791058,8.59548 2.929044,2.07404 4.367581,2.93411 8.684054,4.03577 -0.323434,2.20439 -0.911187,5.27271 1.553591,8.51188 4.704076,-0.0968 6.072258,-0.0548 12.131367,-1.9903 -0.598105,2.61754 -1.559301,6.09076 -2.246412,8.57464 z"
       inkscape:connector-curvature="0" /><path
       id="path99"
       style="fill:none;fill-opacity:1;fill-rule:evenodd;stroke:#000000;stroke-width:0.627;stroke-dasharray:none;stroke-opacity:1"
       d="m 64.933736,370.10791 -2.227999,-11.39906 c 6.132344,5.48574 9.04986,9.34112 12.970753,14.38699 m 0.794479,-8.86018 c -4.248445,-2.72188 -5.029598,-3.05375 -13.506162,-6.39038 10.734374,-1.88169 9.591585,-0.3383 21.969103,1.65805 m -4.187553,-18.05981 c -6.163967,5.31094 -12.633383,10.52006 -18.074735,16.07186 5.408265,-2.67358 8.025496,-3.67146 16.853469,-7.46193 M 68.750695,339.77086 c -1.683525,5.85209 -3.783608,11.70419 -6.105407,17.55628 -0.989985,-8.73987 -0.438892,-17.32563 -0.608724,-25.98348 m -9.122856,9.69685 c 3.865978,5.06429 5.930546,9.06491 9.442285,16.01461 M 41.030246,342.37019 c 9.175341,4.48588 10.572855,3.88329 21.209166,14.92241 -10.372713,-4.16267 -9.259162,-3.52716 -18.255772,-5.26775 m -5.763052,8.49916 c 8.220299,-3.35549 11.146856,-4.78404 23.911105,-2.65644 -7.78785,2.38752 -8.065465,2.2243 -15.121029,6.60627 m 1.557009,8.36559 C 49.75725,367.95552 60.337621,359.622 62.297844,358.58831 l -1.935706,12.10885" /></g><g
     inkscape:groupmode="layer"
     id="layer3"
     inkscape:label="Image"
     style="display:none;opacity:0.5"
     sodipodi:insensitive="true"><image
       width="274.2291"
       height="269.47369"
       preserveAspectRatio="none"
       xlink:href="../../../../../../../Pictures/STA%20Miniature%20Maker/$_57-3772549546.JPG"
       id="image1"
       x="-77.444046"
       y="205.48076" /></g></svg>
