<?xml version="1.0" encoding="UTF-8" standalone="no"?>
<!-- Created with Inkscape (http://www.inkscape.org/) -->

<svg
   width="400"
   height="400"
   viewBox="0 0 400 400"
   version="1.1"
   id="svg5"
   xml:space="preserve"
   inkscape:version="1.2.2 (b0a8486, 2022-12-01)"
   sodipodi:docname="hoopEarring.svg"
   xmlns:inkscape="http://www.inkscape.org/namespaces/inkscape"
   xmlns:sodipodi="http://sodipodi.sourceforge.net/DTD/sodipodi-0.dtd"
   xmlns="http://www.w3.org/2000/svg"
   xmlns:svg="http://www.w3.org/2000/svg"><sodipodi:namedview
     id="namedview7"
     pagecolor="#ffffff"
     bordercolor="#666666"
     borderopacity="1.0"
     inkscape:showpageshadow="2"
     inkscape:pageopacity="0.0"
     inkscape:pagecheckerboard="0"
     inkscape:deskcolor="#d1d1d1"
     inkscape:document-units="px"
     showgrid="false"
     inkscape:zoom="1.475"
     inkscape:cx="199.66102"
     inkscape:cy="200"
     inkscape:window-width="1440"
     inkscape:window-height="810"
     inkscape:window-x="2393"
     inkscape:window-y="358"
     inkscape:window-maximized="0"
     inkscape:current-layer="svg5" /><defs
     id="defs2" /><g
     inkscape:groupmode="layer"
     id="layer2"
     inkscape:label="Hoop Earring"><path
       id="ellipse939"
       style="fill:#878787;fill-opacity:1;stroke:#000000;stroke-width:0.660782;stroke-miterlimit:40"
       d="m 213.54539,160.62286 c 3.88503,0.17977 6.33276,5.56324 6.33276,13.15763 0,7.59439 -2.4229,13.07288 -6.24801,13.07288 -3.82511,0 -6.84123,-5.47849 -6.84123,-13.07288 0,-2.86312 0.7549,-5.1632 1.50901,-7.36473 -0.28844,-0.53337 -1.11486,-0.82329 -1.59156,-0.69176 -0.90568,2.34523 -1.61536,5.10406 -1.61536,8.05649 0,8.52532 4.05713,15.43646 8.53914,15.43646 4.48202,1e-5 8.11542,-6.91113 8.11542,-15.43646 0,-8.52533 -3.6334,-15.43646 -8.11542,-15.43646 -0.37652,0.53191 -0.34254,1.65704 -0.0848,2.27883 z"
       sodipodi:nodetypes="csssccsssccc" /><path
       style="color:#000000;fill:#ffffff;-inkscape-stroke:none;fill-opacity:0.30000001"
       d="m 218.84375,163.41309 c 0,0 1.67685,4.19303 1.80664,9.74707 0.12925,5.53131 -1.86719,11.19628 -1.86719,11.19628 0,0 2.70241,-5.47737 2.56836,-11.21386 -0.13352,-5.71375 -2.50781,-9.72949 -2.50781,-9.72949 z"
       id="path2653"
       sodipodi:nodetypes="cscsc" /></g></svg>
