<?xml version="1.0" encoding="UTF-8" standalone="no"?>
<!-- Created with Inkscape (http://www.inkscape.org/) -->

<svg
   version="1.1"
   id="svg183802"
   width="400"
   height="400"
   viewBox="0 0 400 400"
   sodipodi:docname="DenobulanNoseAppliance.svg"
   inkscape:version="1.2.2 (b0a8486, 2022-12-01)"
   xml:space="preserve"
   xmlns:inkscape="http://www.inkscape.org/namespaces/inkscape"
   xmlns:sodipodi="http://sodipodi.sourceforge.net/DTD/sodipodi-0.dtd"
   xmlns="http://www.w3.org/2000/svg"
   xmlns:svg="http://www.w3.org/2000/svg"><defs
     id="defs183806" /><sodipodi:namedview
     id="namedview183804"
     pagecolor="#ffffff"
     bordercolor="#666666"
     borderopacity="1.0"
     inkscape:showpageshadow="2"
     inkscape:pageopacity="0.0"
     inkscape:pagecheckerboard="0"
     inkscape:deskcolor="#d1d1d1"
     showgrid="false"
     inkscape:zoom="2.39"
     inkscape:cx="199.79079"
     inkscape:cy="200"
     inkscape:window-width="2029"
     inkscape:window-height="1176"
     inkscape:window-x="2296"
     inkscape:window-y="96"
     inkscape:window-maximized="0"
     inkscape:current-layer="svg183802"><inkscape:page
       x="0"
       y="0"
       id="page183808"
       width="400"
       height="400"
       margin="0"
       bleed="0" /></sodipodi:namedview><g
     inkscape:groupmode="layer"
     id="layer2"
     inkscape:label="Denobulan Nose Piece"><path
       style="display:inline;fill:#cd976d;fill-opacity:1;stroke:none;stroke-width:1px;stroke-linecap:butt;stroke-linejoin:miter;stroke-opacity:1"
       d="m 320.03742,138.84465 c 0.60006,-2.64687 1.78955,-5.76828 3.31975,-8.04507 1.63554,-2.34221 4.56099,-4.70736 6.52481,-6.06959 1.96382,-1.36223 4.85566,-2.42783 4.85566,-2.42783 l -8.79105,-6.20325 c 0,0 -1.51017,0.74376 -4.5517,1.65556 -3.04153,0.9118 -4.46874,1.68577 -9.25612,2.12436 -4.78738,0.43859 -7.30314,0.20342 -10.92526,0 -3.62212,-0.20342 -7.89246,-0.75116 -10.77351,-1.21392 -2.88105,-0.46276 -4.30586,-0.77393 -4.30586,-0.77393 l -3.74668,6.3838 c 0,0 6.31726,2.44622 9.25612,3.94523 2.93886,1.49901 6.13821,3.00903 8.34568,5.00741 2.3453,2.20046 3.42519,4.18466 4.99183,6.83765 0,0 3.79393,-5.09303 7.50151,-5.18717 3.10022,0.35403 7.55482,3.96675 7.55482,3.96675 z"
       id="path42774"
       sodipodi:nodetypes="cczcczzzzcczcccc" /><path
       style="color:#000000;fill:#000000;-inkscape-stroke:none"
       d="m 301.45074,119.86145 c -3.59391,-0.20184 -10.1847,-1.09242 -10.1847,-1.09242 0,0 6.51567,1.21491 10.16599,1.41992 3.62583,0.20363 8.69905,0.0871 12.28377,-0.33919 3.58472,-0.42633 11.90659,-3.55684 11.90659,-3.55684 0,0 -8.57296,2.91764 -11.97441,3.33154 -3.40145,0.4139 -8.57883,0.4403 -12.19724,0.23739 z m 33.16736,2.13152 c 0,0 -3.12364,1.22498 -5.176,2.64863 -1.99545,1.38417 -4.78414,3.64588 -6.48945,6.08801 -1.60588,2.63685 -2.87739,4.84001 -3.27287,7.90875 0,0 0.81276,0.4381 0.78698,0.4381 0.27302,-1.75651 1.89562,-5.91831 3.30082,-7.99051 1.56576,-2.24229 4.46624,-4.60502 6.39844,-5.94531 1.87527,-1.30081 4.74414,-2.74469 4.74414,-2.74469 z m -52.04974,1.81562 -0.36133,0.93164 c 0,0 6.00665,1.96269 9.29962,3.49295 3.29298,1.53027 6.36633,3.02591 8.50835,5.02227 2.14202,1.99636 3.73691,4.9086 4.6634,6.52996 0.89804,1.57158 1.54249,3.31173 1.54249,3.31173 0,0 -0.32458,-1.63083 -1.26998,-3.41332 -0.8839,-1.66654 -2.31496,-4.66323 -4.58788,-6.79307 -2.27292,-2.12984 -5.06458,-3.60297 -8.45496,-5.22631 -3.39038,-1.62333 -9.33971,-3.85585 -9.33971,-3.85585 z"
       id="path42770"
       sodipodi:nodetypes="ccszczcccscccccccsszzcsszzs" /><path
       style="color:#000000;fill:#000000;-inkscape-stroke:none"
       d="m 312.7047,126.56031 c 0.16528,1.46907 0.27971,2.75409 0.15494,4.21859 -0.11892,1.39749 -0.52104,4.36116 -0.52104,4.36116 0,0 0.79571,-2.65379 0.92701,-4.1967 0.12559,-1.47589 0.11793,-2.75562 -0.14012,-4.4725 -0.25804,-1.71687 -1.16201,-4.76951 -1.16201,-4.76951 0,0 0.55996,3.24786 0.74122,4.85896 z"
       id="path43506"
       sodipodi:nodetypes="sccszcs" /><path
       id="path44484"
       style="color:#000000;fill:#000000;fill-opacity:0.40000001;-inkscape-stroke:none"
       d="m 325.38031,124.07173 c -2.17168,1.93274 -4.13839,4.78533 -5.2514,5.98398 -1.11301,1.19865 -1.93913,2.32821 -2.71,2.7582 -0.77087,0.42999 -1.44771,0.5096 -2.129,-0.0783 -0.68129,-0.58788 -0.45648,-2.1027 -0.0955,-2.91803 0.36098,-0.81533 0.50014,-1.03719 0.9595,-1.68324 0.45936,-0.64604 1.06454,-1.45956 1.61644,-2.10395 1.2537,-1.4638 3.56183,-3.98185 3.56183,-3.98185 0.0231,-0.0286 -2.09748,2.73445 -3.334,4.21807 -0.53903,0.64675 -1.06802,1.46797 -1.51755,2.10019 -0.44953,0.63223 -0.79258,1.20963 -0.90446,1.56923 -0.48649,1.11064 -0.47058,2.04939 0.003,2.47445 0.47402,0.42508 1.0992,0.27736 1.70159,0.0297 0.60238,-0.24769 1.53468,-1.61172 2.56266,-2.664 1.02797,-1.05229 3.03635,-4.01551 5.27094,-6.00424 2.24547,-1.99841 9.53205,-5.01354 9.53205,-5.01354 0,0 -7.10531,3.39028 -9.2661,5.31333 z m -37.65668,-0.9936 c 0,0 6.25665,2.30744 8.77832,3.7246 2.53437,1.4243 5.15471,3.94173 6.49805,4.875 1.34334,0.93327 2.34258,1.54927 3.1875,1.80469 0.84492,0.25542 1.52315,0.18863 2.06315,-0.5312 0.54001,-0.71982 -0.14709,-2.29056 -0.52995,-2.87109 -0.38286,-0.58053 -0.71013,-0.90643 -1.29687,-1.43946 -0.58675,-0.53302 -1.26073,-1.13158 -1.95508,-1.61914 -1.45281,-1.02013 -3.3571,-1.98348 -3.3571,-1.98348 -0.0287,-0.023 1.66011,1.07763 3.18498,2.26291 0.66473,0.5167 1.28348,1.11497 1.85767,1.63659 0.57419,0.52162 1.03265,1.01243 1.21875,1.33984 0.71248,0.9811 0.89744,1.90159 0.52513,2.41809 -0.3723,0.51651 -1.0146,0.50573 -1.65599,0.39241 -0.64139,-0.11332 -1.79443,-0.9357 -3.02344,-1.74414 -1.22901,-0.80844 -3.91369,-3.42506 -6.52148,-4.89062 -2.62048,-1.4727 -8.97364,-3.375 -8.97364,-3.375 z m 24.58692,10.86328 c -0.53831,-0.0322 -0.96654,0.22328 -1.52539,0.5332 -0.55885,0.30991 -1.18094,0.71718 -1.76758,1.125 -1.17328,0.81564 -1.89649,2.02832 -1.89649,2.02832 0,0 1.13573,-0.90573 2.27713,-1.69921 0.5707,-0.39673 1.37882,-0.74198 1.92821,-0.93001 0.54577,-0.18678 0.95059,-0.25159 1.06108,-0.25645 0.11049,-0.005 0.48362,0.0442 1.04577,0.2662 0.52677,0.20807 1.12377,0.37673 1.69614,0.69175 1.14476,0.63004 2.31003,1.32127 2.31003,1.32127 0,0 -0.77148,-1.06118 -1.9414,-1.70507 -0.58496,-0.32195 -1.20392,-0.64705 -1.75586,-0.90039 -0.55194,-0.25335 -0.9891,-0.44813 -1.43164,-0.47461 z" /></g></svg>
