<?xml version="1.0" encoding="UTF-8" standalone="no"?>
<!-- Created with Inkscape (http://www.inkscape.org/) -->

<svg
   version="1.1"
   id="svg10381"
   width="400"
   height="400"
   viewBox="0 0 400 400"
   sodipodi:docname="Nose1.svg"
   inkscape:version="1.2.2 (b0a8486, 2022-12-01)"
   xmlns:inkscape="http://www.inkscape.org/namespaces/inkscape"
   xmlns:sodipodi="http://sodipodi.sourceforge.net/DTD/sodipodi-0.dtd"
   xmlns="http://www.w3.org/2000/svg"
   xmlns:svg="http://www.w3.org/2000/svg">
  <defs
     id="defs10385" />
  <sodipodi:namedview
     id="namedview10383"
     pagecolor="#ffffff"
     bordercolor="#666666"
     borderopacity="1.0"
     inkscape:showpageshadow="2"
     inkscape:pageopacity="0.0"
     inkscape:pagecheckerboard="0"
     inkscape:deskcolor="#d1d1d1"
     showgrid="false"
     inkscape:zoom="7.4175501"
     inkscape:cx="287.02199"
     inkscape:cy="128.00722"
     inkscape:window-width="1897"
     inkscape:window-height="1269"
     inkscape:window-x="2571"
     inkscape:window-y="80"
     inkscape:window-maximized="0"
     inkscape:current-layer="layer1">
    <inkscape:page
       x="0"
       y="0"
       id="page10387"
       width="400"
       height="400" />
  </sodipodi:namedview>
  <g
     id="Nose1"
     inkscape:groupmode="layer"
     inkscape:label="Page 1">
    <path
       d="m 301.40426,164.63894 c 1.996,-1.62267 4.11733,-2.12133 6.61333,-2.12133 2.496,0 -3.36933,-29.69867 -3.36933,-29.69867 l -2.49467,2.74533 c 0,0 0.99734,16.09734 0.62267,19.34134 -0.37333,3.244 -1.372,9.73333 -1.372,9.73333"
       style="opacity:0.199997;fill:#000000;fill-opacity:1;fill-rule:nonzero;stroke:none;stroke-width:1.33333"
       id="path11203" />
    <path
       d="m 226.0532,170.6246 c 0,0 7.955,3.65 14.226,3.276 6.27,-0.375 4.866,-1.311 4.866,-1.311 l -0.842,-2.994 c 0,0 -5.054,-3.089 -5.99,-4.399 -0.936,-1.31 -2.059,-2.714 -3.088,-0.842 -1.03,1.871 -4.617,3.718 -6.177,4.492 -1.561,0.774 -2.995,1.778 -2.995,1.778"
       style="opacity:0.199997;fill:#000000;fill-opacity:1;fill-rule:nonzero;stroke:none"
       id="path11219"
       transform="matrix(1.3333333,0,0,-1.3333333,0,400)" />
    <path
       d="m 312.07493,174.62107 c 0,0 4.37866,-1.72 4.692,-3.128 0.31333,-1.408 -4.692,-1.408 -8.28934,-0.46933 -3.59733,0.93867 -2.65866,2.65867 0,2.50267 2.65867,-0.156 6.256,-0.156 3.59734,1.09466"
       style="fill:#000000;fill-opacity:1;fill-rule:nonzero;stroke:none;stroke-width:1.33333"
       id="path11229" />
    <path
       d="m 315.51573,175.55947 c 0,0 3.284,1.25067 8.91466,-2.65866 5.63067,-3.90934 4.06667,-6.56934 4.06667,-7.664 0,-1.09467 -3.59733,-8.288 -4.84933,-11.104 -1.25067,-2.81467 -4.22267,-17.516 -3.596,-20.17467 0.62533,-2.65867 6.724,-9.228 6.724,-9.228 0,0 -8.132,7.97733 -8.44534,9.384 -0.312,1.408 2.03334,18.14267 3.75334,20.644 1.72133,2.50267 4.84933,10.00933 4.536,11.10533 -0.312,1.09467 -1.408,5.16 -4.37867,6.412 -2.972,1.25067 -6.72533,3.284 -6.72533,3.284"
       style="fill:#000000;fill-opacity:1;fill-rule:nonzero;stroke:none;stroke-width:1.33333"
       id="path11233" />
    <path
       d="m 303.31679,173.83907 c 0,0 -4.22266,-2.81466 -3.128,-7.50666 0,0 -4.848,6.88133 3.128,7.50666"
       style="fill:#000000;fill-opacity:1;fill-rule:nonzero;stroke:none;stroke-width:1.33333"
       id="path11237" />
    <path
       d="m 321.59559,174.14801 c 0,0 2.16,-0.284 2.50134,0.17066 0.34133,0.45467 1.42133,-0.228 1.98933,-1.08 0.568,-0.85333 0.73867,-2.89866 -0.228,-2.27333 -0.96533,0.62533 -4.26267,3.18267 -4.26267,3.18267"
       style="fill:#000000;fill-opacity:1;fill-rule:nonzero;stroke:none;stroke-width:1.33333"
       id="path11241" />
  </g>
  <g
     inkscape:groupmode="layer"
     id="layer1"
     inkscape:label="Bolian Seam">
    <path
       style="color:#000000;fill:#000000;-inkscape-stroke:none"
       d="m 313.60742,133.92383 c 0.72732,4.82521 2.24545,14.95467 4.00977,19.83594 1.75063,4.8434 3.76677,6.82962 4.20508,8.76953 0.47197,2.08893 0.53002,3.63246 0.13867,5.08007 -0.0737,0.27261 -0.34965,0.73344 -0.73047,1.21485 -0.38083,0.48141 -0.87618,1.08741 -1.29638,1.60162 -0.90525,1.10778 -1.69526,1.76076 -1.60499,1.86323 0,0 0.83415,-0.56593 1.96918,-1.49906 0.52801,-0.43408 1.148,-0.94997 1.55914,-1.4697 0.41114,-0.51972 0.74227,-1.01097 0.875,-1.50195 0.43437,-1.6067 0.35685,-3.30826 -0.13086,-5.4668 -0.52137,-2.30757 -2.52405,-4.1422 -4.23047,-8.86328 -1.69273,-4.68322 -3.24541,-14.85883 -3.97265,-19.68359 C 313.67602,129.01177 314,125 314,125 c 0,0 -1.12468,4.06677 -0.39258,8.92383 z"
       id="path6062"
       sodipodi:nodetypes="sssssscsssssscs" />
    <path
       style="color:#000000;fill:#000000;fill-opacity:0.2;-inkscape-stroke:none"
       d="m 312,125 c 0,0 -1.04525,3.89825 -0.31315,8.75531 0.72731,4.82521 2.24545,14.95467 4.00977,19.83594 1.75063,4.8434 3.76482,6.82962 4.20312,8.76953 0.47198,2.08893 0.53003,3.63246 0.13867,5.08007 -0.0737,0.27261 -0.34769,0.73344 -0.72851,1.21485 -0.38083,0.48141 -0.72991,1.17045 -1.13942,1.69321 -0.8198,1.04651 -1.30683,1.98069 -1.38002,1.92145 l 0.1939,0.1804 c 0,0 1.03155,-0.62651 1.99806,-1.59334 0.48326,-0.48341 0.98144,-1.01738 1.39258,-1.53711 0.41114,-0.51972 0.74227,-1.01097 0.875,-1.50195 0.43436,-1.6067 0.35684,-3.30826 -0.13086,-5.4668 -0.52137,-2.30757 -2.526,-4.1422 -4.23242,-8.86328 -1.69274,-4.68322 -3.24346,-14.85883 -3.9707,-19.68359 C 312.1936,129.01177 313.1,125 313.1,125 Z"
       id="path6064"
       sodipodi:nodetypes="cssssssccsssssscc" />
  </g>
</svg>
