<?xml version="1.0" encoding="UTF-8" standalone="no"?>
<!-- Created with Inkscape (http://www.inkscape.org/) -->

<svg
   version="1.1"
   id="svg63667"
   width="400"
   height="400"
   viewBox="0 0 400 400"
   sodipodi:docname="Nose3.svg"
   inkscape:version="1.2.2 (b0a8486, 2022-12-01)"
   xmlns:inkscape="http://www.inkscape.org/namespaces/inkscape"
   xmlns:sodipodi="http://sodipodi.sourceforge.net/DTD/sodipodi-0.dtd"
   xmlns="http://www.w3.org/2000/svg"
   xmlns:svg="http://www.w3.org/2000/svg">
  <defs
     id="defs63671" />
  <sodipodi:namedview
     id="namedview63669"
     pagecolor="#ffffff"
     bordercolor="#666666"
     borderopacity="1.0"
     inkscape:showpageshadow="2"
     inkscape:pageopacity="0.0"
     inkscape:pagecheckerboard="0"
     inkscape:deskcolor="#d1d1d1"
     showgrid="false"
     inkscape:zoom="1.475"
     inkscape:cx="199.66102"
     inkscape:cy="200"
     inkscape:window-width="1440"
     inkscape:window-height="810"
     inkscape:window-x="2796"
     inkscape:window-y="237"
     inkscape:window-maximized="0"
     inkscape:current-layer="g63675">
    <inkscape:page
       x="0"
       y="0"
       id="page63673"
       width="400"
       height="400" />
  </sodipodi:namedview>
  <g
     id="g63675"
     inkscape:groupmode="layer"
     inkscape:label="Page 1">
    <path
       d="m 309.24199,155.59254 c 0.032,-0.23867 -0.15866,-0.42133 -0.244,-0.628 -0.6,-1.448 -0.84133,-3.02933 -1.07333,-4.56933 -0.264,-1.75867 -0.55867,-3.512 -0.868,-5.26134 -0.54533,-3.084 -1.13867,-6.15866 -1.764,-9.22666 -0.21067,-1.03067 -0.42267,-2.06 -0.644,-3.08934 l -2.496,2.74534 c 0,0 0.99867,16.09733 0.624,19.34266 -0.37467,3.244 -1.372,9.73334 -1.372,9.73334 1.18267,-3.27867 4.23467,-4.08534 6.73067,-4.08534 0.5,0 0.54133,-0.95066 0.57333,-1.27466 0.0627,-0.63467 0.036,-1.27334 0.096,-1.908 0.0587,-0.62534 0.35467,-1.172 0.43733,-1.77867"
       style="opacity:0.199997;fill:#000000;fill-opacity:1;fill-rule:nonzero;stroke:none;stroke-width:1.33333"
       id="path66925" />
    <path
       d="m 301.40439,172.50054 c 0.52667,0.368 2.10134,-0.76933 2.62134,-0.996 1.54933,-0.676 3.19866,-1.076 4.72133,-1.84267 1.54,-0.776 1.95067,-1.69466 3.72133,-1.23733 3.888,1.00267 10.59867,1.88267 14.24,-0.32533 0.28,-0.16934 0.06,2.58666 0.009,2.78533 -0.25867,1.01867 -0.696,1.97867 -0.98,2.988 0,0 -6.73867,4.11867 -7.98667,5.86533 -1.248,1.74667 -2.74533,3.61867 -4.11733,1.12267 -1.37334,-2.49467 -6.156,-4.95733 -8.236,-5.98933 -2.08,-1.032 -3.99334,-2.37067 -3.99334,-2.37067"
       style="opacity:0.199997;fill:#000000;fill-opacity:1;fill-rule:nonzero;stroke:none;stroke-width:1.33333"
       id="path66941" />
    <path
       d="m 312.07493,174.62107 c 0,0 4.37866,-1.72 4.692,-3.128 0.31333,-1.408 -4.692,-1.408 -8.28934,-0.46933 -3.59733,0.93867 -2.65866,2.65867 0,2.50267 2.65867,-0.156 6.256,-0.156 3.59734,1.09466"
       style="fill:#000000;fill-opacity:1;fill-rule:nonzero;stroke:none;stroke-width:1.33333"
       id="path66951" />
    <path
       d="m 318.33079,134.11441 c 0.28,-1.41467 8.44534,-9.384 8.44534,-9.384 0,0 -6.31734,6.52666 -6.72534,9.228 -1.48266,9.816 1.388,18.73333 3.56267,20.90666 2.17467,2.17467 5.1,5.484 5.1,9.52134 0,1.09466 1.34667,4.604 -4.28267,8.51466 -2.91466,2.02267 -5.19333,2.66 -6.72,2.808 -1.78533,0.99467 -3.72533,2.19467 -3.72533,2.19467 0,0 0.70667,-1.51333 1.53067,-2.344 0.364,-0.368 0.58266,-0.42267 0.832,-0.44267 1.272,-0.668 3.77733,-1.95066 5.892,-2.84133 2.972,-1.252 4.38,-5.27467 4.38,-6.41333 0,-3.71734 -1.872,-9.29467 -6.88267,-10.524 l 0.756,-0.756 c 0,0 -4.13733,-10.49467 -2.16267,-20.468"
       style="fill:#000000;fill-opacity:1;fill-rule:nonzero;stroke:none;stroke-width:1.33333"
       id="path66955" />
    <path
       d="m 303.31679,173.83907 c 0,0 -4.22266,-2.81466 -3.128,-7.50666 0,0 -4.848,6.88133 3.128,7.50666"
       style="fill:#000000;fill-opacity:1;fill-rule:nonzero;stroke:none;stroke-width:1.33333"
       id="path66959" />
    <path
       d="m 321.59559,174.14801 c 0,0 2.16,-0.284 2.50134,0.17066 0.34133,0.45467 1.42133,-0.228 1.98933,-1.08 0.568,-0.85333 0.73867,-2.89866 -0.228,-2.27333 -0.96533,0.62533 -4.26267,3.18267 -4.26267,3.18267"
       style="fill:#000000;fill-opacity:1;fill-rule:nonzero;stroke:none;stroke-width:1.33333"
       id="path66963" />
  </g>
</svg>
