<?xml version="1.0" encoding="UTF-8" standalone="no"?>
<!-- Created with Inkscape (http://www.inkscape.org/) -->

<svg
   version="1.1"
   id="svg56824"
   width="400"
   height="400"
   viewBox="0 0 400 400"
   sodipodi:docname="Nose2.svg"
   inkscape:version="1.2.2 (b0a8486, 2022-12-01)"
   xmlns:inkscape="http://www.inkscape.org/namespaces/inkscape"
   xmlns:sodipodi="http://sodipodi.sourceforge.net/DTD/sodipodi-0.dtd"
   xmlns="http://www.w3.org/2000/svg"
   xmlns:svg="http://www.w3.org/2000/svg">
  <defs
     id="defs56828" />
  <sodipodi:namedview
     id="namedview56826"
     pagecolor="#ffffff"
     bordercolor="#666666"
     borderopacity="1.0"
     inkscape:showpageshadow="2"
     inkscape:pageopacity="0.0"
     inkscape:pagecheckerboard="0"
     inkscape:deskcolor="#d1d1d1"
     showgrid="false"
     inkscape:zoom="1.475"
     inkscape:cx="182.71186"
     inkscape:cy="200"
     inkscape:window-width="1440"
     inkscape:window-height="810"
     inkscape:window-x="2244"
     inkscape:window-y="331"
     inkscape:window-maximized="0"
     inkscape:current-layer="g56832">
    <inkscape:page
       x="0"
       y="0"
       id="page56830"
       width="400"
       height="400" />
  </sodipodi:namedview>
  <g
     id="g56832"
     inkscape:groupmode="layer"
     inkscape:label="Page 1">
    <path
       d="m 301.40426,164.63894 c 1.18267,-3.27867 4.23467,-4.08533 6.73067,-4.08533 2.496,0 -3.48667,-27.73467 -3.48667,-27.73467 l -2.49467,2.74533 c 0,0 0.99734,16.09734 0.62267,19.34134 -0.37333,3.244 -1.372,9.73333 -1.372,9.73333"
       style="opacity:0.199997;fill:#000000;fill-opacity:1;fill-rule:nonzero;stroke:none;stroke-width:1.33333"
       id="path60138" />
    <path
       d="m 301.40426,172.50054 c 0,0 10.60667,-4.86667 18.968,-4.368 8.36,0.5 6.488,1.748 6.488,1.748 l -1.12267,3.992 c 0,0 -6.73866,4.11867 -7.98666,5.86533 -1.248,1.74667 -2.74534,3.61867 -4.11734,1.12267 -1.37333,-2.49467 -6.156,-4.95733 -8.236,-5.98933 -2.08133,-1.032 -3.99333,-2.37067 -3.99333,-2.37067"
       style="opacity:0.199997;fill:#000000;fill-opacity:1;fill-rule:nonzero;stroke:none;stroke-width:1.33333"
       id="path60154" />
    <path
       d="m 312.07493,174.62107 c 0,0 4.37866,-1.72 4.692,-3.128 0.31333,-1.408 -4.692,-1.408 -8.28934,-0.46933 -3.59733,0.93867 -2.65866,2.65867 0,2.50267 2.65867,-0.156 6.256,-0.156 3.59734,1.09466"
       style="fill:#000000;fill-opacity:1;fill-rule:nonzero;stroke:none;stroke-width:1.33333"
       id="path60164" />
    <path
       d="m 328.71373,164.38681 c -0.20534,-14.27467 -9.484,-28.15867 -8.66267,-30.42934 0.92933,-2.568 6.72533,-9.22666 6.72533,-9.22666 0,0 -9.084,8.09066 -8.44533,9.384 3.17867,6.43733 8.26667,25.92533 8.28933,31.748 0.004,1.13866 -1.408,5.16133 -4.38,6.412 -2.116,0.89066 -4.62,2.17466 -5.892,2.84266 -0.25066,0.0187 -0.468,0.0747 -0.83333,0.44134 -0.82267,0.832 -1.52933,2.34533 -1.52933,2.34533 0,0 1.93866,-1.2 3.72533,-2.19467 1.52667,-0.148 3.80533,-0.78533 6.71867,-2.80933 5.63066,-3.90933 4.3,-7.41867 4.284,-8.51333"
       style="fill:#000000;fill-opacity:1;fill-rule:nonzero;stroke:none;stroke-width:1.33333"
       id="path60168" />
    <path
       d="m 303.31679,173.83907 c 0,0 -4.22266,-2.81466 -3.128,-7.50666 0,0 -4.848,6.88133 3.128,7.50666"
       style="fill:#000000;fill-opacity:1;fill-rule:nonzero;stroke:none;stroke-width:1.33333"
       id="path60172" />
    <path
       d="m 321.59559,174.14801 c 0,0 2.16,-0.284 2.50134,0.17066 0.34133,0.45467 1.42133,-0.228 1.98933,-1.08 0.568,-0.85333 0.73867,-2.89866 -0.228,-2.27333 -0.96533,0.62533 -4.26267,3.18267 -4.26267,3.18267"
       style="fill:#000000;fill-opacity:1;fill-rule:nonzero;stroke:none;stroke-width:1.33333"
       id="path60176" />
  </g>
</svg>
