<?xml version="1.0" encoding="UTF-8" standalone="no"?>
<!-- Created with Inkscape (http://www.inkscape.org/) -->

<svg
   version="1.1"
   id="svg63667"
   width="400"
   height="400"
   viewBox="0 0 400 400"
   sodipodi:docname="Nose3.svg"
   inkscape:version="1.2.2 (b0a8486, 2022-12-01)"
   xmlns:inkscape="http://www.inkscape.org/namespaces/inkscape"
   xmlns:sodipodi="http://sodipodi.sourceforge.net/DTD/sodipodi-0.dtd"
   xmlns="http://www.w3.org/2000/svg"
   xmlns:svg="http://www.w3.org/2000/svg">
  <defs
     id="defs63671" />
  <sodipodi:namedview
     id="namedview63669"
     pagecolor="#ffffff"
     bordercolor="#666666"
     borderopacity="1.0"
     inkscape:showpageshadow="2"
     inkscape:pageopacity="0.0"
     inkscape:pagecheckerboard="0"
     inkscape:deskcolor="#d1d1d1"
     showgrid="false"
     inkscape:zoom="2.1925"
     inkscape:cx="193.6146"
     inkscape:cy="200"
     inkscape:window-width="1942"
     inkscape:window-height="1097"
     inkscape:window-x="2294"
     inkscape:window-y="209"
     inkscape:window-maximized="0"
     inkscape:current-layer="layer3">
    <inkscape:page
       x="0"
       y="0"
       id="page63673"
       width="400"
       height="400" />
  </sodipodi:namedview>
  <g
     id="g63675"
     inkscape:groupmode="layer"
     inkscape:label="Page 1">
    <path
       d="m 309.24199,155.59254 c 0.032,-0.23867 -0.15866,-0.42133 -0.244,-0.628 -0.6,-1.448 -0.84133,-3.02933 -1.07333,-4.56933 -0.264,-1.75867 -0.55867,-3.512 -0.868,-5.26134 -0.54533,-3.084 -1.13867,-6.15866 -1.764,-9.22666 -0.21067,-1.03067 -0.42267,-2.06 -0.644,-3.08934 l -2.496,2.74534 c 0,0 0.99867,16.09733 0.624,19.34266 -0.37467,3.244 -1.372,9.73334 -1.372,9.73334 1.18267,-3.27867 4.23467,-4.08534 6.73067,-4.08534 0.5,0 0.54133,-0.95066 0.57333,-1.27466 0.0627,-0.63467 0.036,-1.27334 0.096,-1.908 0.0587,-0.62534 0.35467,-1.172 0.43733,-1.77867"
       style="opacity:0.199997;fill:#000000;fill-opacity:1;fill-rule:nonzero;stroke:none;stroke-width:1.33333"
       id="path66925" />
    <path
       d="m 301.40439,172.50054 c 0.52667,0.368 2.10134,-0.76933 2.62134,-0.996 1.54933,-0.676 3.19866,-1.076 4.72133,-1.84267 1.54,-0.776 1.95067,-1.69466 3.72133,-1.23733 3.888,1.00267 10.59867,1.88267 14.24,-0.32533 0.28,-0.16934 0.06,2.58666 0.009,2.78533 -0.25867,1.01867 -0.696,1.97867 -0.98,2.988 0,0 -6.73867,4.11867 -7.98667,5.86533 -1.248,1.74667 -2.74533,3.61867 -4.11733,1.12267 -1.37334,-2.49467 -6.156,-4.95733 -8.236,-5.98933 -2.08,-1.032 -3.99334,-2.37067 -3.99334,-2.37067"
       style="opacity:0.199997;fill:#000000;fill-opacity:1;fill-rule:nonzero;stroke:none;stroke-width:1.33333"
       id="path66941" />
    <path
       d="m 312.07493,174.62107 c 0,0 4.37866,-1.72 4.692,-3.128 0.31333,-1.408 -4.692,-1.408 -8.28934,-0.46933 -3.59733,0.93867 -2.65866,2.65867 0,2.50267 2.65867,-0.156 6.256,-0.156 3.59734,1.09466"
       style="fill:#000000;fill-opacity:1;fill-rule:nonzero;stroke:none;stroke-width:1.33333"
       id="path66951" />
    <path
       d="m 318.33079,134.11441 c 0.28,-1.41467 8.44534,-9.384 8.44534,-9.384 0,0 -6.31734,6.52666 -6.72534,9.228 -1.48266,9.816 1.388,18.73333 3.56267,20.90666 2.17467,2.17467 5.1,5.484 5.1,9.52134 0,1.09466 1.34667,4.604 -4.28267,8.51466 -2.91466,2.02267 -5.19333,2.66 -6.72,2.808 -1.78533,0.99467 -3.72533,2.19467 -3.72533,2.19467 0,0 0.70667,-1.51333 1.53067,-2.344 0.364,-0.368 0.58266,-0.42267 0.832,-0.44267 1.272,-0.668 3.77733,-1.95066 5.892,-2.84133 2.972,-1.252 4.38,-5.27467 4.38,-6.41333 0,-3.71734 -1.872,-9.29467 -6.88267,-10.524 l 0.756,-0.756 c 0,0 -4.13733,-10.49467 -2.16267,-20.468"
       style="fill:#000000;fill-opacity:1;fill-rule:nonzero;stroke:none;stroke-width:1.33333"
       id="path66955" />
    <path
       d="m 303.31679,173.83907 c 0,0 -4.22266,-2.81466 -3.128,-7.50666 0,0 -4.848,6.88133 3.128,7.50666"
       style="fill:#000000;fill-opacity:1;fill-rule:nonzero;stroke:none;stroke-width:1.33333"
       id="path66959" />
    <path
       d="m 321.59559,174.14801 c 0,0 2.16,-0.284 2.50134,0.17066 0.34133,0.45467 1.42133,-0.228 1.98933,-1.08 0.568,-0.85333 0.73867,-2.89866 -0.228,-2.27333 -0.96533,0.62533 -4.26267,3.18267 -4.26267,3.18267"
       style="fill:#000000;fill-opacity:1;fill-rule:nonzero;stroke:none;stroke-width:1.33333"
       id="path66963" />
  </g>
  <g
     inkscape:groupmode="layer"
     id="layer3"
     inkscape:label="Bolian Seam">
    <path
       style="color:#000000;fill:#000000;-inkscape-stroke:none"
       d="m 313.60742,133.92383 c 0.72732,4.82521 2.13605,16.24835 3.15458,19.06627 1.01853,2.81793 1.33308,2.64971 2.31291,3.86221 0.97983,1.2125 2.6624,4.0108 3.03242,5.64848 0.47198,2.08893 0.24496,3.66097 -0.14639,5.10858 -0.0737,0.27261 -0.34965,0.73344 -0.73047,1.21485 -0.38083,0.48141 -0.87618,1.08741 -1.29638,1.60162 -0.90525,1.10778 -1.69526,1.76076 -1.60499,1.86323 0,0 0.83415,-0.56593 1.96918,-1.49906 0.52801,-0.43408 1.148,-0.94997 1.55914,-1.4697 0.41114,-0.51972 0.74227,-1.01097 0.875,-1.50195 0.43437,-1.6067 0.6419,-3.33676 0.1542,-5.49531 -0.44033,-1.94889 -2.05756,-4.47833 -3.07787,-5.80366 -1.02032,-1.32532 -1.31386,-1.09226 -2.29285,-3.80078 -0.97899,-2.70852 -2.39022,-14.08916 -3.11746,-18.91392 C 313.67602,129.01177 314,125 314,125 c 0,0 -1.12468,4.06677 -0.39258,8.92383 z"
       id="path6062"
       sodipodi:nodetypes="szzsssscsssszzscs" />
    <path
       style="color:#000000;fill:#000000;fill-opacity:0.2;-inkscape-stroke:none"
       d="m 312,125 c 0,0 -1.04525,3.89825 -0.31315,8.75531 0.72731,4.82521 1.78935,15.01168 3.55367,19.89295 0.50691,1.40245 1.55807,2.78792 2.26787,3.69987 1.72631,2.21797 2.56457,3.77699 2.87596,5.15518 0.47197,2.08893 0.0454,3.48993 -0.34594,4.93754 -0.0737,0.27261 -0.34769,0.73344 -0.72851,1.21485 -0.38083,0.48141 -0.72991,1.17045 -1.13942,1.69321 -0.8198,1.04651 -1.30683,1.98069 -1.38002,1.92145 l 0.1939,0.1804 c 0,0 1.03155,-0.62651 1.99806,-1.59334 0.48326,-0.48341 0.98144,-1.01738 1.39258,-1.53711 0.41114,-0.51972 0.74227,-1.01097 0.875,-1.50195 0.43436,-1.6067 0.84145,-3.16573 0.35375,-5.32427 -0.3863,-1.70975 -1.42532,-3.29512 -3.10995,-5.66453 -0.60057,-0.8447 -1.6211,-2.06118 -2.06318,-3.28427 -1.69274,-4.68322 -2.78736,-14.91584 -3.5146,-19.7406 C 312.1936,129.01177 313.1,125 313.1,125 Z"
       id="path6064"
       sodipodi:nodetypes="csssssssccssssssscc" />
  </g>
</svg>
