<?xml version="1.0" encoding="UTF-8" standalone="no"?>
<!-- Created with Inkscape (http://www.inkscape.org/) -->

<svg
   version="1.1"
   id="svg75029"
   width="400"
   height="400"
   viewBox="0 0 400 400"
   sodipodi:docname="Nose5.svg"
   inkscape:version="1.2.2 (b0a8486, 2022-12-01)"
   xmlns:inkscape="http://www.inkscape.org/namespaces/inkscape"
   xmlns:sodipodi="http://sodipodi.sourceforge.net/DTD/sodipodi-0.dtd"
   xmlns="http://www.w3.org/2000/svg"
   xmlns:svg="http://www.w3.org/2000/svg">
  <defs
     id="defs75033" />
  <sodipodi:namedview
     id="namedview75031"
     pagecolor="#ffffff"
     bordercolor="#666666"
     borderopacity="1.0"
     inkscape:showpageshadow="2"
     inkscape:pageopacity="0.0"
     inkscape:pagecheckerboard="0"
     inkscape:deskcolor="#d1d1d1"
     showgrid="false"
     inkscape:zoom="13.944146"
     inkscape:cx="303.20968"
     inkscape:cy="149.30997"
     inkscape:window-width="1991"
     inkscape:window-height="1206"
     inkscape:window-x="2101"
     inkscape:window-y="138"
     inkscape:window-maximized="0"
     inkscape:current-layer="layer5">
    <inkscape:page
       x="0"
       y="0"
       id="page75035"
       width="400"
       height="400" />
  </sodipodi:namedview>
  <g
     id="g75037"
     inkscape:groupmode="layer"
     inkscape:label="Page 1">
    <path
       d="m 302.91333,165.93547 c 1.77333,-1.62266 3.65733,-2.12133 5.87466,-2.12133 2.216,0 -4.14,-30.996 -4.14,-30.996 l -2.49466,2.74533 c 0,0 2.312,16.09734 1.97866,19.34267 -0.332,3.244 -1.21866,11.02933 -1.21866,11.02933"
       style="opacity:0.199997;fill:#000000;fill-opacity:1;fill-rule:nonzero;stroke:none;stroke-width:1.33333"
       id="path78171" />
    <path
       d="m 302.91333,173.79694 c 0,0 9.42133,-4.86667 16.848,-4.368 1.54,0.104 3.20133,0.17733 4.68666,0.644 0.31734,0.0987 0.64534,0.19467 0.92667,0.38 0.61733,0.408 0.796,1.272 1.44933,1.59067 1.62667,2.91466 -3.04933,4.71866 -5.064,5.56666 -1.53466,0.64534 -3.42933,2.00934 -4.32666,3.424 -1.108,1.74667 -2.43867,3.61867 -3.65734,1.12267 -1.22,-2.49467 -5.468,-4.95733 -7.316,-5.98933 -1.848,-1.032 -3.54666,-2.37067 -3.54666,-2.37067"
       style="opacity:0.199997;fill:#000000;fill-opacity:1;fill-rule:nonzero;stroke:none;stroke-width:1.33333"
       id="path78187" />
    <path
       d="m 312.39146,175.91761 c 0,0 3.88933,-1.72 4.168,-3.128 0.27733,-1.408 -4.168,-1.408 -7.36267,-0.46934 -3.196,0.93867 -2.36133,2.65867 0,2.50267 2.36134,-0.156 5.556,-0.156 3.19467,1.09467"
       style="fill:#000000;fill-opacity:1;fill-rule:nonzero;stroke:none;stroke-width:1.33333"
       id="path78197" />
    <path
       d="m 315.44759,176.85601 c 0,0 2.91734,1.25066 7.91867,-2.65867 5,-3.90933 3.612,-6.56933 3.612,-7.664 0,-1.09467 -6.744,-19.56533 -7.79067,-22.40533 -1.048,-2.84 0.23734,-7.51067 0.864,-10.16934 0.62534,-2.66 6.724,-9.228 6.724,-9.228 0,0 -8.132,7.976 -8.44533,9.384 -0.312,1.40667 -2.01733,8.07067 -0.54533,10.60667 1.47066,2.53733 7.804,21.34267 7.52533,22.43867 -0.27733,1.09466 -1.24933,5.16 -3.88933,6.412 -2.63867,1.25066 -5.97334,3.284 -5.97334,3.284"
       style="fill:#000000;fill-opacity:1;fill-rule:nonzero;stroke:none;stroke-width:1.33333"
       id="path78201" />
    <path
       d="m 304.61213,175.13561 c 0,0 -3.75067,-2.81467 -2.77867,-7.50667 0,0 -4.30667,6.88133 2.77867,7.50667"
       style="fill:#000000;fill-opacity:1;fill-rule:nonzero;stroke:none;stroke-width:1.33333"
       id="path78205" />
    <path
       d="m 320.84799,175.44454 c 0,0 1.91867,-0.284 2.22134,0.17067 0.30266,0.45466 1.26266,-0.228 1.768,-1.08 0.504,-0.85334 0.656,-2.89867 -0.20267,-2.27334 -0.85867,0.62534 -3.78667,3.18267 -3.78667,3.18267"
       style="fill:#000000;fill-opacity:1;fill-rule:nonzero;stroke:none;stroke-width:1.33333"
       id="path78209" />
  </g>
  <g
     inkscape:groupmode="layer"
     id="layer5"
     inkscape:label="Bolian Seam">
    <path
       style="color:#000000;fill:#000000;-inkscape-stroke:none"
       d="m 314.03771,133.85212 c 0.39769,2.6384 0.82335,6.73404 1.81128,10.70247 0.81883,3.28918 2.13617,6.49096 3.13078,8.70318 2.11183,4.69716 2.40419,7.33162 2.8425,9.27153 0.47197,2.08893 0.53002,3.63246 0.13867,5.08007 -0.0737,0.27261 -0.34965,0.73344 -0.73047,1.21485 -0.38083,0.48141 -0.87618,1.08741 -1.29638,1.60162 -0.90525,1.10778 -1.69526,1.76076 -1.60499,1.86323 0,0 0.83415,-0.56593 1.96918,-1.49906 0.52801,-0.43408 1.148,-0.94997 1.55914,-1.4697 0.41114,-0.51972 0.74227,-1.01097 0.875,-1.50195 0.43437,-1.6067 0.35685,-3.30826 -0.13086,-5.4668 -0.52137,-2.30757 -0.76859,-4.8053 -2.86789,-9.36528 -0.94361,-2.04965 -2.23229,-5.12765 -3.03834,-8.33859 -1.00748,-4.01335 -1.46259,-8.23439 -1.8666,-10.91471 C 314.10629,128.94006 314,125 314,125 c 0,0 -0.69441,3.99506 0.0377,8.85212 z"
       id="path6062"
       sodipodi:nodetypes="ssssssscssssssscs" />
    <path
       style="color:#000000;fill:#000000;fill-opacity:0.2;-inkscape-stroke:none"
       d="m 312,125 c 0,0 -0.32811,3.75482 0.18885,8.75531 0.27031,2.61459 0.67043,6.65416 1.70988,10.67706 0.87941,3.40348 2.27481,6.62011 3.08875,8.87202 1.75064,4.8434 2.47396,7.11648 2.91226,9.05639 0.47198,2.08893 0.53003,3.63246 0.13867,5.08007 -0.0737,0.27261 -0.34769,0.73344 -0.72851,1.21485 -0.38083,0.48141 -0.72991,1.17045 -1.13942,1.69321 -0.8198,1.04651 -1.30683,1.98069 -1.38002,1.92145 l 0.1939,0.1804 c 0,0 1.03155,-0.62651 1.99806,-1.59334 0.48326,-0.48341 0.98144,-1.01738 1.39258,-1.53711 0.41114,-0.51972 0.74227,-1.01097 0.875,-1.50195 0.43436,-1.6067 0.35684,-3.30826 -0.13086,-5.4668 -0.52137,-2.30757 -1.23513,-4.42906 -2.94156,-9.15014 -0.8078,-2.23492 -2.27113,-5.55542 -3.14053,-9.07342 -0.99795,-4.03815 -1.40411,-7.78159 -1.61903,-10.32331 C 312.98244,128.6532 313.1,125 313.1,125 Z"
       id="path6064"
       sodipodi:nodetypes="csssssssccssssssscc" />
  </g>
</svg>
