<?xml version="1.0" encoding="UTF-8" standalone="no"?>
<!-- Created with Inkscape (http://www.inkscape.org/) -->

<svg
   version="1.1"
   id="svg68969"
   width="400"
   height="400"
   viewBox="0 0 400 400"
   sodipodi:docname="Nose4.svg"
   inkscape:version="1.2.2 (b0a8486, 2022-12-01)"
   xmlns:inkscape="http://www.inkscape.org/namespaces/inkscape"
   xmlns:sodipodi="http://sodipodi.sourceforge.net/DTD/sodipodi-0.dtd"
   xmlns="http://www.w3.org/2000/svg"
   xmlns:svg="http://www.w3.org/2000/svg">
  <defs
     id="defs68973" />
  <sodipodi:namedview
     id="namedview68971"
     pagecolor="#ffffff"
     bordercolor="#666666"
     borderopacity="1.0"
     inkscape:showpageshadow="2"
     inkscape:pageopacity="0.0"
     inkscape:pagecheckerboard="0"
     inkscape:deskcolor="#d1d1d1"
     showgrid="false"
     inkscape:zoom="23.6"
     inkscape:cx="308.47458"
     inkscape:cy="168.64407"
     inkscape:window-width="2005"
     inkscape:window-height="1136"
     inkscape:window-x="2317"
     inkscape:window-y="108"
     inkscape:window-maximized="0"
     inkscape:current-layer="layer4">
    <inkscape:page
       x="0"
       y="0"
       id="page68975"
       width="400"
       height="400" />
  </sodipodi:namedview>
  <g
     id="g68977"
     inkscape:groupmode="layer"
     inkscape:label="Page 1">
    <path
       d="m 307.75439,154.15467 c -0.10533,-1.28 -0.47333,-2.584 -0.59333,-3.8 -0.172,-1.75333 -0.37333,-3.50133 -0.59067,-5.24666 -0.38266,-3.07467 -0.65333,-6.132 -1.27866,-9.2 -0.20934,-1.03067 -0.448,-2.49467 -0.67067,-3.52267 l -2.468,3.17867 c 0,0 0.99867,16.09733 0.624,19.34133 -0.37467,3.24533 -3.13467,6.92667 -3.13467,6.92667 1.09734,-0.732 2.23334,-1.492 3.464,-1.984 1.81734,-0.72667 3.72667,-1.32134 4.42934,-3.408 0.248,-0.736 0.28266,-1.50534 0.21866,-2.28534"
       style="opacity:0.199997;fill:#000000;fill-opacity:1;fill-rule:nonzero;stroke:none;stroke-width:1.33333"
       id="path72167" />
    <path
       d="m 301.12013,171.40401 c 0.38933,-0.18667 0.77466,-0.40934 1.17866,-0.552 1.428,-0.50267 2.86134,-0.992 4.264,-1.58267 1.74667,-0.736 3.92667,-0.88533 5.82534,-0.49733 1.37733,0.28266 2.64266,0.64533 3.98933,1.076 1.716,0.548 3.544,0.78933 5.34,0.616 0.86133,-0.084 1.72,-0.264 2.53867,-0.54667 0.81866,-0.28133 1.472,-0.81467 2.20133,-1.26 -0.0347,0.0213 0.68667,1.04267 0.78,1.124 0.364,0.32 0.91067,0.17733 1.37067,0.12267 0.844,-0.1 1.43466,-0.436 1.83866,-0.99734 -0.20933,0.292 -0.0493,0.84534 -0.0787,1.17867 -0.0787,0.86933 -0.48,1.4 -1.00267,2.07333 -0.71467,0.91867 -2.11333,2.18 -3.164,2.696 -1.23333,0.604 -2.58933,0.91467 -3.84933,1.45734 -1.756,0.756 -3.47467,1.84933 -4.60134,3.42666 -1.248,1.74667 -2.74533,3.61867 -4.11733,1.12267 -0.968,-1.76133 -2.91733,-2.98533 -4.58267,-4.00267 -1.66533,-1.01866 -3.336,-2.04133 -5.29733,-2.27733 -0.89467,-0.108 -1.66933,-0.296 -2.55067,-0.528 -0.80933,-0.21333 -1.80533,-0.37467 -2.536,-0.77067 -0.872,-0.47333 -3.04,-1.76266 -2.212,-3.112 -0.0613,0.1 2.856,1.49734 3.16267,1.54934 0.536,0.092 1.02267,-0.0853 1.50267,-0.316"
       style="opacity:0.199997;fill:#000000;fill-opacity:1;fill-rule:nonzero;stroke:none;stroke-width:1.33333"
       id="path72183" />
    <path
       d="m 310.74013,174.70787 c 0,0 3.91466,-1.72 3.848,-3.128 -0.0667,-1.408 -5.07067,-1.408 -8.41467,-0.46933 -3.344,0.93867 -1.94267,2.65867 0.67467,2.50267 2.616,-0.156 6.21333,-0.156 3.892,1.09466"
       style="fill:#000000;fill-opacity:1;fill-rule:nonzero;stroke:none;stroke-width:1.33333"
       id="path72193" />
    <path
       d="m 318.33079,134.11441 c 0.28,-1.41467 8.44534,-9.384 8.44534,-9.384 0,0 -6.31734,6.52666 -6.72534,9.228 -1.48266,9.816 1.388,18.73333 3.56267,20.90666 2.17467,2.17467 5.1,5.484 5.1,9.52134 0,1.09466 1.34667,4.604 -4.28267,8.51466 -2.91466,2.02267 -5.19333,2.66 -6.72,2.808 -1.78533,0.99467 -3.72533,2.19467 -3.72533,2.19467 0,0 0.70667,-1.51333 1.53067,-2.344 0.364,-0.368 0.58266,-0.42267 0.832,-0.44267 1.272,-0.668 3.77733,-1.95066 5.892,-2.84133 2.972,-1.252 4.38,-5.27467 4.38,-6.41333 0,-2.41734 -0.688,-4.932 -2.01867,-6.95867 -0.69867,-1.064 -1.69467,-1.77333 -2.64,-2.59067 -1.352,-1.17066 -1.85467,-2.724 -2.34267,-4.38 -0.54133,-1.836 -0.98133,-3.70266 -1.29733,-5.59066 -0.63067,-3.77334 -0.77067,-7.65867 -0.13467,-11.44134 0.044,-0.26266 0.092,-0.52533 0.144,-0.78666"
       style="fill:#000000;fill-opacity:1;fill-rule:nonzero;stroke:none;stroke-width:1.33333"
       id="path72197" />
    <path
       d="m 299.62359,173.26867 c 0,0 -4.93466,-3.63733 -2.99466,-9.69866 0,0 -6.89867,8.89066 2.99466,9.69866"
       style="fill:#000000;fill-opacity:1;fill-rule:nonzero;stroke:none;stroke-width:1.33333"
       id="path72201" />
    <path
       d="m 322.11599,174.32147 c 0,0 2.16,-0.284 2.50134,0.17067 0.34133,0.45467 1.42133,-0.228 1.98933,-1.08 0.568,-0.85333 0.73867,-2.89867 -0.228,-2.27333 -0.96533,0.62533 -4.26267,3.18266 -4.26267,3.18266"
       style="fill:#000000;fill-opacity:1;fill-rule:nonzero;stroke:none;stroke-width:1.33333"
       id="path72205" />
    <path
       d="m 329.00453,165.99174 c 0,0 1.77466,5.26267 -0.97867,7.52667 0,0 3.18133,-1.408 2.75333,-4.16134 -0.428,-2.75333 -1.224,-2.56933 -1.77466,-3.36533"
       style="fill:#000000;fill-opacity:1;fill-rule:nonzero;stroke:none;stroke-width:1.33333"
       id="path72209" />
  </g>
  <g
     inkscape:groupmode="layer"
     id="layer4"
     inkscape:label="Bolian Seam">
    <path
       style="color:#000000;fill:#000000;-inkscape-stroke:none"
       d="m 313.60742,133.92383 c 0.72732,4.82521 2.39029,16.92631 3.15458,19.06627 0.76429,2.13996 2.01104,2.98869 2.99087,4.20119 0.97983,1.2125 2.74715,3.84131 3.11717,5.47899 0.47198,2.08893 0.48804,3.74982 -0.14639,5.10858 -0.28556,0.61159 -1.02761,1.03005 -1.36606,1.34197 -0.45137,0.41599 -1.0033,0.7908 -1.4235,1.30501 -0.90525,1.10778 -1.69526,1.76076 -1.60499,1.86323 0,0 0.83415,-0.56593 1.96918,-1.49906 0.52801,-0.43408 0.85139,-0.56861 1.4744,-1.08834 0.50886,-0.42451 1.4626,-0.9686 1.72245,-1.71382 0.54799,-1.57158 0.6419,-3.33676 0.1542,-5.49531 -0.44033,-1.94889 -2.14231,-4.30884 -3.16262,-5.63417 -1.02032,-1.32532 -2.37318,-2.36344 -2.97081,-4.13976 -0.59763,-1.77632 -2.39022,-14.08916 -3.11746,-18.91392 C 313.67602,129.01177 314,125 314,125 c 0,0 -1.12468,4.06677 -0.39258,8.92383 z"
       id="path6062"
       sodipodi:nodetypes="szzsssscsssszzscs" />
    <path
       style="color:#000000;fill:#000000;fill-opacity:0.2;-inkscape-stroke:none"
       d="m 312,125 c 0,0 -1.04525,3.89825 -0.31315,8.75531 0.72731,4.82521 1.78935,15.01168 3.55367,19.89295 0.50691,1.40245 1.45566,2.87781 2.26787,3.69987 2.10767,2.13322 3.11542,3.73462 3.42681,5.11281 0.47197,2.08893 0.3268,3.59734 -0.34594,4.93754 -0.24319,0.48447 -0.77142,0.9453 -1.15224,1.42671 -0.38083,0.48141 -0.85703,1.00096 -1.26654,1.52372 -0.8198,1.04651 -1.30683,1.98069 -1.38002,1.92145 l 0.1939,0.1804 c 0,0 0.86206,-0.62651 1.82857,-1.59334 0.48326,-0.48341 1.0969,-1.06513 1.56207,-1.53711 0.39292,-0.39867 0.9448,-0.80143 1.51059,-1.75619 0.56579,-0.95476 0.75671,-2.95386 0.26901,-5.1124 -0.3863,-1.70975 -1.63719,-3.42224 -3.6608,-5.62216 -0.70167,-0.7628 -1.6211,-2.06118 -2.06318,-3.28427 -1.69274,-4.68322 -2.78736,-14.91584 -3.5146,-19.7406 C 312.1936,129.01177 313.1,125 313.1,125 Z"
       id="path6064"
       sodipodi:nodetypes="csssssssccsszsssscc" />
  </g>
</svg>
