<?xml version="1.0" encoding="UTF-8" standalone="no"?>
<!-- Created with Inkscape (http://www.inkscape.org/) -->

<svg
   version="1.1"
   id="svg68862"
   width="400"
   height="400"
   viewBox="0 0 400 400"
   sodipodi:docname="TellariteNose1.svg"
   inkscape:version="1.2.2 (b0a8486, 2022-12-01)"
   xmlns:inkscape="http://www.inkscape.org/namespaces/inkscape"
   xmlns:sodipodi="http://sodipodi.sourceforge.net/DTD/sodipodi-0.dtd"
   xmlns="http://www.w3.org/2000/svg"
   xmlns:svg="http://www.w3.org/2000/svg">
  <defs
     id="defs68866" />
  <sodipodi:namedview
     id="namedview68864"
     pagecolor="#ffffff"
     bordercolor="#666666"
     borderopacity="1.0"
     inkscape:showpageshadow="2"
     inkscape:pageopacity="0.0"
     inkscape:pagecheckerboard="0"
     inkscape:deskcolor="#d1d1d1"
     showgrid="false"
     inkscape:zoom="2.0575"
     inkscape:cx="200"
     inkscape:cy="200"
     inkscape:window-width="1842"
     inkscape:window-height="1043"
     inkscape:window-x="2345"
     inkscape:window-y="159"
     inkscape:window-maximized="0"
     inkscape:current-layer="g68870">
    <inkscape:page
       x="0"
       y="0"
       id="page68868"
       width="400"
       height="400" />
  </sodipodi:namedview>
  <g
     id="g68870"
     inkscape:groupmode="layer"
     inkscape:label="Page 1">
    <path
       d="m 325.45933,153.42627 c -0.13334,-0.16533 -0.26667,-0.324 -0.40134,-0.468 -2.05066,-2.188 -2.78933,-4.93733 -3.59066,-7.784 -0.98134,-3.488 -2.264,-7.61333 -1.416,-11.216 0.62533,-2.65866 6.72533,-9.228 6.72533,-9.228 -1.408,1.38134 -2.792,2.78667 -4.15333,4.21467 -1.49867,1.57067 -2.63334,3.85733 -4.984,4.096 -0.60534,0.0613 -0.972,-0.0453 -1.56,-0.168 -1.14134,-0.236 -2.76,-0.44 -3.47467,0.696 1.812,0.336 3.30533,0.34667 4.72667,1.728 0.83866,0.81467 1.328,2.30267 1.60266,3.408 0.344,1.39067 0.77734,2.96133 0.89334,4.42 0.0933,1.184 -0.46534,3.02 0.176,3.97067 0.36,0.53333 1.04533,0.84933 1.19066,1.576 0.12934,0.64133 -0.18533,0.91866 0.132,1.448 1.21867,2.03066 3.57467,3.22133 5.34934,4.67733 -0.43467,-0.35733 -0.82667,-0.88933 -1.216,-1.37067"
       style="fill:#000000;fill-opacity:1;fill-rule:nonzero;stroke:none;stroke-width:1.33333"
       id="path90906" />
    <path
       d="m 322.32439,162.25161 c -0.78933,1.83466 -2.46533,4.864 -1.228,5.384 1.236,0.52133 9.81067,-1.188 9.232,1.22933 -0.57866,2.41867 -2.08933,3.19333 -2.08933,3.19333 0,0 4.21333,-2.27466 4.24,-4.06933 0.0267,-1.79333 -1.12933,-7.69733 -2.10533,-8.61733 -0.97467,-0.92 -7.22267,0.96 -8.04934,2.88"
       style="fill:#000000;fill-opacity:1;fill-rule:nonzero;stroke:none;stroke-width:1.33333"
       id="path90910" />
    <path
       d="m 314.91319,162.98854 c 0.55734,1.916 1.90134,5.10133 0.39467,5.56533 -1.50667,0.46267 -10.96,-1.75733 -10.75333,0.74267 0.208,2.50133 1.78533,3.376 1.78533,3.376 0,0 -4.376,-2.556 -4.072,-4.38933 0.30533,-1.832 2.72533,-7.79467 4.00933,-8.68 1.28267,-0.88534 8.05334,1.38 8.636,3.38533"
       style="fill:#000000;fill-opacity:1;fill-rule:nonzero;stroke:none;stroke-width:1.33333"
       id="path90914" />
    <path
       d="m 334.11452,154.23467 c -0.25066,-0.38266 -0.56266,-0.80666 -0.97333,-1.052 -0.50266,-0.33466 -1.02933,-0.37466 -1.47866,-0.38666 -2.468,0.11066 -4.59734,1.30666 -6.70934,2.34266 l -2.01333,1.05334 c -2.32,0.80933 -3.18933,3.57066 -3.808,5.684 1.07467,-1.912 1.928,-4.20134 4.208,-4.78934 2.70533,-1.02533 5.41867,-2.62933 8.29733,-2.82533 0.66134,0.0293 0.78667,0.144 1.22134,0.79467 2.23333,4.22133 5.12266,12.67466 1.46666,16.71733 4.776,-3.692 2.284,-12.992 -0.21067,-17.53867"
       style="fill:#000000;fill-opacity:1;fill-rule:nonzero;stroke:none;stroke-width:1.33333"
       id="path90918" />
    <path
       d="m 331.11653,156.48814 c -2.66934,-0.14 -5.12267,1.32933 -7.352,2.61867 2.32133,-0.26534 4.80266,-1.27467 7.024,-1.17867 1.116,1.104 1.62,2.848 2.164,4.412 0.41333,1.37067 0.73599,2.77333 0.92533,4.26533 0.432,-1.452 0.432,-3.016 0.21066,-4.52 -0.40933,-1.948 -0.87199,-4.636 -2.97199,-5.59733"
       style="fill:#000000;fill-opacity:1;fill-rule:nonzero;stroke:none;stroke-width:1.33333"
       id="path90922" />
    <path
       d="m 325.23399,174.58161 c -2.20666,2.03866 -5.296,4.424 -5.48,7.76533 1.43867,-3.02933 4.116,-4.47733 6.528,-6.692 0.95734,-0.95867 2.46534,-1.592 3.844,-2.34933 1.37467,-0.784 3.02134,-1.44534 3.92667,-2.816 -1.13333,0.79866 -3.10667,1.244 -4.39867,1.74133 -1.49333,0.568 -3.05866,1.08133 -4.42,2.35067"
       style="fill:#000000;fill-opacity:1;fill-rule:nonzero;stroke:none;stroke-width:1.33333"
       id="path90926" />
    <path
       d="m 313.74239,155.22947 c -3.00266,-0.62133 -5.79733,-1.904 -8.85333,-2.42266 -1.188,-0.144 -2.316,-0.39334 -3.48533,0.368 -1.644,1.54933 -2.30134,3.60533 -3.15467,5.59866 -1.028,2.95334 -2.07867,5.948 -1.96933,9.148 0.52666,5.75867 6.94,8.04934 11.87866,8.40934 -10.70933,-2.696 -12.60133,-6.968 -8.50933,-17.024 0.65733,-1.63334 1.45733,-3.80934 2.62133,-4.99734 0.55467,-0.40533 1.68,-0.28533 2.42534,-0.196 2.97066,0.40667 5.884,1.41734 8.876,1.83867 2.00266,0.31733 2.88266,2.58133 3.08666,4.424 0.11334,-2.044 -0.692,-4.52533 -2.916,-5.14667"
       style="fill:#000000;fill-opacity:1;fill-rule:nonzero;stroke:none;stroke-width:1.33333"
       id="path90930" />
    <path
       d="m 299.62333,165.10641 c -0.67467,2.80133 0.27066,6.7 3.11733,8.11333 0.90133,0.452 1.84,0.756 2.80133,0.888 -1.73466,-0.82667 -3.344,-1.94533 -4.028,-3.53333 -0.63333,-1.59734 -0.87866,-3.35334 -0.42266,-5.18267 0.656,-2.83867 1.56266,-6.628 4.36133,-7.88133 2.69067,0.57866 4.99733,0.89733 7.80533,1.296 -2.048,-1.92 -5.056,-2.504 -7.73466,-2.47734 -0.85867,-0.0773 -1.724,-0.076 -2.596,-0.4 0.38933,0.64 1.04,1.02934 1.712,1.30667 -2.912,0.988 -4.46267,5.02267 -5.016,7.87067"
       style="fill:#000000;fill-opacity:1;fill-rule:nonzero;stroke:none;stroke-width:1.33333"
       id="path90934" />
    <path
       d="m 311.10346,173.65041 c -3.33067,-1.232 -6.82533,-2.288 -6.86933,-6.47334 -1.30534,2.444 0.47466,5.584 2.91333,6.53334 1.89067,0.88133 4.18133,0.93466 6.02933,1.868 0.216,0.12666 0.452,0.34933 0.212,0.62266 0.14534,-0.0467 0.29334,-0.204 0.288,-0.412 -0.304,-1.14666 -1.636,-1.63066 -2.57333,-2.13866"
       style="fill:#000000;fill-opacity:1;fill-rule:nonzero;stroke:none;stroke-width:1.33333"
       id="path90938" />
    <path
       d="m 324.24426,161.61614 c 1.236,-0.30533 2.50933,-0.58533 3.792,-0.97867 -1.85333,-0.33866 -3.732,-0.41066 -5.57333,0.0347 -0.99067,0.40133 -1.484,1.472 -1.87334,2.248 -1.068,2.49333 -1.572,5.09467 -1.57733,7.788 1.404,-2.772 2.04133,-6.08667 3.79333,-8.584 0.0507,-0.20267 0.87334,-0.34533 1.43867,-0.508"
       style="fill:#000000;fill-opacity:1;fill-rule:nonzero;stroke:none;stroke-width:1.33333"
       id="path90942" />
    <path
       d="m 313.74973,159.76801 c 2.33466,2.46266 2.26933,5.89866 2.124,9.116 -0.0707,1.556 -0.66934,5.78266 -2.096,6.62933 -1.28534,0.764 -3.692,-0.54267 -5.036,-0.87067 -2.18134,-0.53333 -4.50934,-0.13333 -6.45734,-1.34533 -5.22666,-3.25333 -2.13333,-13.024 1.69467,-16.184 2.90267,-2.396 7.708,0.47867 9.77067,2.65467"
       style="opacity:0.199997;fill:#000000;fill-opacity:1;fill-rule:nonzero;stroke:none;stroke-width:1.33333"
       id="path90952" />
    <path
       d="m 302.08693,153.97294 c 0.75733,-0.104 1.57733,-0.10933 2.31733,-0.26667 2.15467,0.74667 5.64933,0.77067 6.97733,0.79067 -0.404,-0.61867 -1.36533,-1.028 -1.236,-1.808 0.12667,-0.75467 1.556,-1.48533 2.204,-1.48667 -0.756,-0.432 -2.42133,-1.016 -2.76,-1.80533 -0.54666,-1.27733 0.63334,-1.86133 1.57467,-2.12133 -0.56533,-0.56267 -1.10133,-0.732 -1.62933,-1.37334 -0.42,-0.508 -0.78934,-1.15733 -1.148,-1.71466 -0.61334,-0.95467 -1.376,-2.08934 -1.67467,-3.18934 -0.53867,-1.98533 1.40267,-4.70533 2.63733,-6.13333 0.33334,-0.38533 1.21867,-0.87333 1.26534,-1.32133 0.0827,-0.78667 -4.06934,0.88533 -4.43067,1.09333 -1.46533,0.84133 -2.53867,2.27333 -3.344,3.728 -1.04,1.876 -1.87867,3.82 -3.01067,5.64533 -1.176,1.89734 -2.492,3.712 -3.70933,5.588 -1.116,1.72134 -2.036,3.53867 -3.22533,5.19867 -1.70667,2.38 -3.58134,5.21867 -4.40667,8.1 2.87067,-3.90533 7.788,-6.10933 10.06,-10.47067 -0.37867,3.02267 -2.72133,6.812 -3.97867,9.708 -2.54933,5.87067 -7.732,10.97067 -9.13066,17.31867 0.104,-0.468 1.12133,-1.26 1.452,-1.63067 0.57733,-0.648 1.156,-1.29466 1.76,-1.91866 1.03066,-1.06534 1.87466,-2.13467 3.16533,-2.86534 0.0187,1.12534 -0.49467,1.88 0.50933,2.74134 1.00267,0.86 2.32934,1.29466 3.6,1.56933 1.21067,0.26267 2.344,-0.0933 3.312,0.872 0.284,0.28267 0.46667,0.38933 0.63467,0.784 0.10933,0.25867 0.0427,0.72667 0.26267,0.924 0.692,0.61733 4.30133,-1.03467 5.08933,-1.32667 1.232,-0.45866 2.52133,-1.19066 3.09067,-2.42533 -1.19467,0.156 -3.06134,-0.33333 -4.19334,-0.76533 -1.24266,-0.47467 -2.39333,-1.4 -3.552,-2.088 -1.59066,-0.94534 -2.55466,-2.496 -3.14666,-4.25067 -1.24934,-3.7 0.56,-6.792 1.588,-10.128 0.48666,-1.58133 1.09466,-3.11333 3.076,-4.972"
       style="opacity:0.199997;fill:#000000;fill-opacity:1;fill-rule:nonzero;stroke:none;stroke-width:1.33333"
       id="path90968" />
    <path
       d="m 322.02066,162.86094 c -1.036,1.35733 -2.38,2.19067 -2.74533,3.924 -0.18667,0.88133 -0.772,3.884 0.028,4.28533 1.16,0.58 2.812,-1.50933 3.37466,0.94134 0.36934,1.608 -1.53066,2.93733 -2.216,4.272 2.604,-1.64134 5.29734,-3.11867 7.99867,-4.49734 2.436,-1.24266 4.10133,-5.28133 1.77067,-7.61733 -2.33334,-2.33733 -5.80534,-1.42 -8.21067,-1.308"
       style="opacity:0.199997;fill:#000000;fill-opacity:1;fill-rule:nonzero;stroke:none;stroke-width:1.33333"
       id="path90984" />
    <path
       d="m 323.35426,177.96201 c -0.18533,0.003 -0.364,0.0373 -0.528,0.12133 -0.464,0.23467 -0.85333,0.92533 -1.28,1.25467 0.39733,-2.676 3.69733,-3.468 5.792,-4.316 1.344,-0.544 2.82,-0.988 4.16267,-1.66 2.24399,-1.11867 4.27866,-2.232 4.69999,-4.88 0.26,-1.63867 0.12134,-3.496 0.092,-5.188 0.46,0.87333 0.44,1.95066 0.52667,2.924 0.17467,1.94533 0.20533,3.824 -0.14267,5.74666 -0.484,2.67334 -0.94533,5.38 -1.536,7.964 -0.61066,-1.54133 -1.58533,-2.76533 -3.27599,-2.908 -1.55467,-0.13066 -2.98,0.36934 -4.35867,1.04 -1.00667,0.49067 -1.332,0.60667 -2.43333,0.324 -0.50534,-0.12933 -1.14534,-0.43066 -1.71867,-0.42266"
       style="opacity:0.199997;fill:#000000;fill-opacity:1;fill-rule:nonzero;stroke:none;stroke-width:1.33333"
       id="path91000" />
  </g>
</svg>
