<?xml version="1.0" encoding="UTF-8" standalone="no"?>
<!-- Created with Inkscape (http://www.inkscape.org/) -->

<svg
   width="400"
   height="400"
   viewBox="0 0 400 400"
   version="1.1"
   id="svg5"
   xml:space="preserve"
   sodipodi:docname="TellariteNose1.svg"
   inkscape:version="1.2.2 (b0a8486, 2022-12-01)"
   xmlns:inkscape="http://www.inkscape.org/namespaces/inkscape"
   xmlns:sodipodi="http://sodipodi.sourceforge.net/DTD/sodipodi-0.dtd"
   xmlns="http://www.w3.org/2000/svg"
   xmlns:svg="http://www.w3.org/2000/svg"><sodipodi:namedview
     id="namedview7"
     pagecolor="#ffffff"
     bordercolor="#666666"
     borderopacity="1.0"
     inkscape:showpageshadow="2"
     inkscape:pageopacity="0.0"
     inkscape:pagecheckerboard="0"
     inkscape:deskcolor="#d1d1d1"
     inkscape:document-units="px"
     showgrid="false"
     inkscape:zoom="2.4225"
     inkscape:cx="199.7936"
     inkscape:cy="200"
     inkscape:window-width="2119"
     inkscape:window-height="1189"
     inkscape:window-x="1920"
     inkscape:window-y="126"
     inkscape:window-maximized="0"
     inkscape:current-layer="layer1" /><defs
     id="defs2" /><g
     inkscape:label="Tellarite Nose"
     inkscape:groupmode="layer"
     id="layer1"><path
       id="path97218"
       style="fill:#000000;fill-opacity:0.2;stroke:none;stroke-width:1.10341px;stroke-linecap:butt;stroke-linejoin:miter;stroke-opacity:1"
       d="m 308.44532,134.36523 c 0,0 -2.09303,1.23242 -3.14127,2.47657 -1.04824,1.24415 -2.51138,3.31921 -3.16979,4.91015 -0.65842,1.59094 -1.33661,2.97494 -1.38397,4.43946 -0.0472,1.46451 0.11883,4.12695 0.11883,4.12695 l 7.94947,2.05273 c 0,0 -1.06523,-3.2912 -1.25555,-4.74609 -0.19032,-1.45489 -0.36676,-1.82021 0,-3.92188 0.36676,-2.10166 0.88222,-9.33789 0.88222,-9.33789 z m 20.35521,19.91797 -1.50761,0.61914 -2.00937,2.37305 -1.75967,2.37305 c 0,0 1.92091,-0.64657 2.88919,-0.51563 0.96829,0.13094 1.78223,0.67846 2.5135,1.23828 0.73127,0.55982 1.75968,2.06446 1.75968,2.06446 v -3.09571 l -0.62779,-3.40625 z m -25.63187,0.92774 -2.63714,1.65234 -1.63366,3.50781 -1.38158,4.33399 c 0,0 2.46605,-2.00614 3.89508,-2.68164 1.42903,-0.6755 2.83664,-1.21585 4.52285,-1.3418 1.68621,-0.12595 5.27665,0.72266 5.27665,0.72266 l -5.65475,-4.95508 z m 30.78488,6.60547 -2.63952,3.40625 -3.58018,2.73424 -5.27867,3.09571 -3.45415,2.01184 c -1.99232,0.8927 -4.34287,1.24122 -8.92205,0.31055 l -5.40269,-2.47656 -7.16,-1.75586 c 0,0 -1.97227,-0.36582 -2.83201,-0.87666 -0.85974,-0.51085 -2.24802,-2.77454 -2.24802,-2.77454 l -0.13357,3.39389 2.31258,2.82137 3.21462,1.10055 5.77802,1.23797 4.08394,2.11632 1.40579,3.26752 c 0,0 1.18732,2.4003 1.86117,3.02803 0.67385,0.62773 1.30405,0.90772 2.1354,1.03125 0.83135,0.12353 1.55382,0.30993 2.63952,-0.41211 1.0857,-0.72204 2.70119,-4.3868 2.70119,-4.3868 l 2.19943,-2.57976 5.15032,-2.42464 4.77445,-3.40689 3.64572,-2.94048 z"
       sodipodi:nodetypes="csscccsscccccssccccccccsscccccccccccczccccccczzzcccccc" /><path
       id="path95707"
       style="fill:#000000;fill-opacity:1;stroke:none;stroke-width:1.10341px;stroke-linecap:butt;stroke-linejoin:miter;stroke-opacity:1"
       d="m 318.12118,138.39062 c 0.85031,1.23851 1.13193,2.66425 1.75968,4.02344 0.17935,0.38833 0.42022,0.89111 0.67296,1.41211 -1.13712,-0.44503 -3.81423,-0.3789 -3.81423,-0.3789 0,0 2.46235,1.20934 3.2673,1.85742 0.80494,0.64808 1.17208,1.23469 1.63127,1.85742 0.4592,0.62273 0.82798,1.14915 1.13191,1.85742 0.26902,0.62704 0.53984,2.55953 0.60162,3.01563 -0.25579,0.23863 -0.50264,0.47538 -0.72766,0.69922 -0.29097,0.28941 -0.54746,0.5823 -0.78472,0.8789 -0.2183,-1.08666 -0.70761,-2.7644 -1.72876,-3.35547 -0.77541,-0.44882 -1.81324,-0.62124 -2.86067,-0.5957 -1.04745,0.0255 -2.1032,0.24904 -2.91775,0.5957 -1.18256,0.50329 -2.22874,2.11542 -2.71799,2.9668 -0.86683,-0.63171 -1.78102,-1.17997 -2.6847,-1.625 -1.62904,-0.80225 -3.2497,-1.33372 -4.90095,-1.54883 -0.42397,-0.009 -0.84058,-0.11773 -1.25555,-0.20507 0,0 0.97609,-1.31733 1.63365,-1.85742 0.65757,-0.54009 1.41735,-0.97456 2.26143,-1.3418 0.84407,-0.36724 2.76317,-0.82617 2.76317,-0.82617 0,0 -0.76597,-0.0705 -1.63127,-0.0742 -0.67301,-0.003 -1.40475,0.035 -1.88571,0.17774 -1.09935,0.32633 -1.98901,1.0019 -2.76555,1.7539 -0.55645,0.53886 -1.2036,1.66401 -1.53378,2.26954 -0.95989,0.0385 -1.84175,0.17954 -2.36129,0.45703 -0.95443,0.50974 -2.20142,2.47618 -3.12438,3.7757 -0.9878,1.39083 -1.47567,2.26983 -2.34001,4.19753 -0.74225,1.65542 -1.39486,3.7843 -1.95361,5.76032 -0.5348,1.8913 -0.81185,3.62624 -0.37178,4.80007 0.44007,1.17383 2.12629,2.90404 3.76905,3.81836 1.64276,0.91432 4.0015,0.99268 5.65476,1.44336 1.65325,0.45068 3.10948,0.65328 4.27078,1.23828 1.16131,0.585 1.9001,1.19429 2.63952,2.06446 0.73943,0.87017 1.88495,3.0957 1.88495,3.0957 0,0 -0.11651,-1.83523 -0.62939,-2.88867 -0.51288,-1.05344 -1.04539,-2.33493 -2.52435,-3.24165 -1.47895,-0.90675 -4.1836,-1.21924 -5.90444,-1.71148 -1.7208,-0.49224 -3.34009,-0.62105 -4.61811,-1.35563 -1.27801,-0.73461 -1.96981,-1.32557 -2.6925,-2.72199 -0.55882,-1.0798 0.0492,-2.90193 0.41078,-3.94785 0.44026,-1.27332 0.56716,-2.28249 0.92968,-3.412 0.30197,-0.94086 0.40343,-1.41443 0.77663,-2.52949 0.3732,-1.11506 1.31859,-2.74034 2.22557,-3.86257 0.8431,-1.04319 1.52603,-1.6654 2.2312,-2.15843 1.12591,-1.20812 2.63322,-1.26327 4.01453,-0.96168 1.01639,0.22056 2.3637,0.47129 3.76904,1.13477 1.40535,0.66348 3.09883,1.91749 4.3992,2.99218 1.30037,1.07469 3.10086,2.89983 3.83072,4.18024 0.86085,1.51022 1.38273,4.12796 1.38273,4.12796 0,0 0.14978,-2.5254 -0.43853,-4.12864 -0.58831,-1.60324 -1.91339,-3.8399 -3.26731,-5.21081 -0.55494,-0.56191 -1.16433,-1.07986 -1.80009,-1.55468 0.75958,-0.67323 2.30952,-1.95567 3.43375,-2.26368 1.53982,-0.42186 3.35532,-0.47329 4.64888,0.20508 0.8361,0.43847 1.4777,1.68339 1.83101,2.51367 -0.69815,0.9155 -1.19682,1.87922 -1.70498,2.95704 -0.70911,1.504 -2.20105,7.7911 -2.20105,7.7911 0,0 2.16918,-5.44445 3.15149,-6.88007 0.98231,-1.43565 2.31668,-3.39849 3.51935,-4.44939 1.20267,-1.0509 2.16735,-1.96185 3.31799,-2.24094 1.15063,-0.27909 1.27871,-0.52923 2.52672,0.35298 1.248,0.88221 1.58344,3.35905 1.9985,5.42632 0.41509,2.06724 0.83656,5.28758 0.75382,6.81054 -0.0828,1.52296 0.52613,3.0621 -0.1272,4.02588 -0.65332,0.96378 -2.51329,1.87356 -3.89507,2.88867 -1.38175,1.01511 -3.33606,2.03523 -4.90762,3.05327 -1.5716,1.01804 -3.31714,1.87113 -4.5138,3.03657 -1.19667,1.16544 -2.50264,4.37161 -2.50264,4.37161 0,0 1.93492,-2.05901 3.30713,-3.12626 1.3722,-1.06725 3.03648,-2.23818 5.35201,-3.72386 2.31557,-1.48568 7.08909,-3.93274 8.49091,-5.72303 1.40181,-1.79032 0.63406,-3.77537 0.80564,-5.5255 0.17158,-1.75016 -0.60945,-4.83071 -1.12953,-6.91407 -0.52008,-2.08333 -0.38259,-4.8287 -1.81274,-5.93712 -1.43016,-1.10842 -2.29572,-1.32111 -4.0651,-0.97212 -0.96378,0.1901 -2.21411,1.12532 -3.09073,1.8004 -0.15085,-0.69642 -0.37885,-1.69868 -0.5945,-2.25976 -0.31107,-0.80951 -0.5545,-1.86052 -1.12952,-2.6836 -0.39834,-0.57019 -0.81058,-1.15866 -1.38634,-1.62695 -0.18089,-0.92838 -0.40387,-1.9472 -0.62539,-2.60547 -0.49363,-1.46677 -0.84197,-2.86338 -1.88334,-4.02344 -1.04137,-1.16002 -4.57482,-3.07945 -4.57482,-3.07945 0,0 2.47977,2.60604 3.33012,3.84451 z m -8.10465,-0.97996 c -1.36047,0.46867 -4.64824,2.42433 -4.64824,2.42433 0,0 3.36742,-1.22235 4.58702,-1.54788 1.87614,-0.50077 2.68144,-0.57862 4.52324,0.0522 1.84179,0.63085 4.08168,1.70104 4.08168,1.70104 0,0 -2.60908,-2.07081 -4.2081,-2.68296 -1.59901,-0.61215 -2.97512,-0.41543 -4.3356,0.0532 z m -1.69486,4.2827 c 0,0 -1.94715,0.17051 -3.01762,0.61914 -1.07047,0.44863 -2.07205,0.92793 -3.39018,2.52722 -0.62706,0.87685 -1.19555,2.83839 -1.19555,2.83839 0,0 2.15624,-2.21552 2.95446,-2.99256 0.79823,-0.77704 1.82873,-1.68939 2.63714,-2.16797 0.80841,-0.47858 2.01175,-0.82422 2.01175,-0.82422 z m 20.61678,11.79492 c -0.0823,0.008 -0.18954,0.10989 -0.63966,0.2793 -0.90025,0.33882 -2.14483,1.73857 -3.14127,2.99219 -0.99645,1.25361 -1.90449,2.81624 -2.63952,4.54101 -0.73504,1.72477 -1.63364,5.7793 -1.63364,5.7793 0,0 1.68072,-3.85716 2.26142,-5.05664 0.20464,-0.4227 0.34067,-0.68985 0.45894,-0.91992 0.21818,-0.0719 1.49273,-0.48727 2.24478,-0.5254 0.81776,-0.0415 1.69331,0.20661 2.51111,0.56836 0.77224,0.3416 1.89886,1.60951 2.02601,1.75391 -0.0444,0.68843 0.28453,2.86783 -0.0144,3.40459 -0.61093,1.09699 -1.643,1.4099 -2.82876,2.42654 -1.18575,1.01665 -3.8477,1.84661 -4.963,2.83777 -1.1153,0.99116 -4.67093,2.83181 -3.64154,3.55914 1.02939,0.72733 2.83693,-2.10271 4.14566,-3.04352 1.30874,-0.94081 4.04365,-1.71763 5.27667,-2.78711 1.23301,-1.06948 2.36208,-1.6186 2.8908,-2.68227 0.52876,-1.06367 -0.27576,-4.01919 -0.19005,-5.31475 0.0857,-1.29556 0.0607,-3.17297 -0.24969,-4.4375 -0.31042,-1.26453 -0.68087,-2.69237 -1.38396,-3.0957 -0.35153,-0.20167 -0.40756,-0.28736 -0.48985,-0.2793 z m -26.64963,0.89844 c -0.9459,0.0541 -1.04044,0.1891 -1.7573,0.92773 -0.71687,0.73863 -1.02642,2.10144 -1.63366,3.71485 -0.60723,1.61341 -1.43535,4.43602 -1.88571,5.98632 -0.45034,1.55031 -0.98526,2.58625 -0.98929,3.46693 -0.004,0.80364 0.32088,1.41639 1.11609,1.84708 0.79522,0.43069 1.89744,0.22362 3.39096,0.51758 1.49352,0.29396 4.04122,0.74931 5.52872,1.33985 1.48749,0.59054 2.37106,1.14634 3.39332,1.96093 1.02227,0.81459 1.91679,2.41923 2.88845,2.42623 0.97165,0.007 0.79996,-0.21347 0.87983,-0.92969 0.0799,-0.71622 -1.31777,-1.28883 -2.3201,-2.17622 -1.00232,-0.88739 -2.31023,-1.88758 -4.10986,-2.55815 -1.79963,-0.67057 -5.40443,-0.76394 -6.74071,-1.2231 -0.31717,-0.0794 -0.34652,-0.6294 -0.60001,-0.72026 0.0175,-0.27575 0.0816,-1.13457 0.33767,-1.83399 0.057,-0.1556 0.10811,-0.32266 0.16169,-0.49414 -0.013,0.50793 0.052,1.17928 0.42328,1.63672 0.66222,0.81586 2.06793,1.81152 3.4797,2.21635 1.41178,0.40483 3.37412,0.46786 4.87165,0.11959 1.4975,-0.34827 3.55264,-2.48242 3.55264,-2.48242 0,0 -1.60836,0.80444 -3.16558,1.17628 -1.20109,0.2868 -2.30461,0.3328 -3.92959,0.12179 -1.18522,-0.31423 -2.56222,-1.0915 -3.50232,-1.81187 -0.5752,-0.44076 -1.28743,-1.30948 -1.53715,-1.55066 0.21646,-0.5763 0.5438,-1.1803 1.24366,-1.70507 1.15866,-0.86884 3.5285,-1.44614 5.33135,-1.60547 1.29895,-0.1148 3.36835,0.23662 4.44201,0.44336 0.0592,0.12445 0.11664,0.24871 0.17834,0.37304 0.61041,1.23096 1.25556,3.81836 1.25556,3.81836 0,0 0.72316,-2.6956 0.37809,-4.02344 -0.34506,-1.32783 -1.17976,-2.28481 -2.38746,-3.61328 -1.20769,-1.32847 -3.56339,-3.28873 -5.02698,-4.12695 -1.46359,-0.83822 -2.3214,-1.29233 -3.26729,-1.23828 z m 25.68419,0.60742 c 0.0637,-7.8e-4 0.13038,0.003 0.19975,0.0117 0.79644,0.096 1.15331,0.92261 1.43627,1.75 -0.4248,-0.44559 -0.94018,-0.90701 -1.31024,-0.97656 -0.0464,-0.009 -0.099,-0.0135 -0.15457,-0.0137 -0.45096,-0.002 -1.16112,0.25442 -1.73352,0.49415 0.43834,-0.6333 0.80967,-1.25641 1.56231,-1.26563 z m -25.44877,0.83203 c 0.58041,0.0154 1.40621,0.235 2.41837,0.81836 0.23007,0.13261 0.49904,0.30319 0.77996,0.49219 -0.53634,-0.192 -1.39833,-0.45474 -2.18533,-0.44336 -0.17351,0.003 -0.34201,0.019 -0.49937,0.0527 -0.73596,0.15797 -1.72572,0.95453 -2.45404,1.60938 0.0599,-0.15509 0.13844,-0.34569 0.1831,-0.47266 0.32732,-0.9245 1.10604,-1.71063 1.52189,-2.05273 0.0727,-0.006 0.1525,-0.006 0.23542,-0.004 z m 25.15628,0.58789 c 0.11445,0.005 0.21772,0.0163 0.30438,0.0352 0.47893,0.10401 1.26388,0.53953 1.80962,0.85547 0.0452,0.13358 0.0907,0.26213 0.13792,0.38281 0.38972,0.99532 0.55666,2.08229 0.50175,3.19922 -0.004,0.0692 -0.002,0.15699 -0.005,0.23047 -0.20224,-0.60874 -0.47858,-1.34018 -0.81088,-1.72657 -0.5454,-0.63415 -1.08611,-1.22309 -1.88571,-1.49609 -0.1999,-0.0683 -0.49556,-0.0886 -0.82753,-0.082 -0.58562,0.0116 -1.19447,0.0971 -1.66931,0.17578 0.25033,-0.45929 0.51782,-0.89601 0.80136,-1.22851 0.0589,-0.0692 0.11189,-0.14254 0.16646,-0.21485 0.46481,-0.076 0.99363,-0.15041 1.4767,-0.13086 z m -22.52628,0.87891 c 0.36496,5e-5 0.63532,0.013 0.82991,0.0234 1.08294,0.75353 2.36914,1.79036 3.18644,2.63671 0.0609,0.063 0.11177,0.12782 0.16883,0.19141 -0.70172,-0.46416 -1.52434,-0.92744 -2.21624,-1.06445 -0.3822,-0.0757 -0.78021,-0.11037 -1.1866,-0.11133 -1.21915,-0.003 -2.50518,0.29692 -3.60971,0.69531 -1.05004,0.37875 -2.15084,1.0623 -2.9439,1.72071 0.34359,-0.90387 0.72136,-1.82223 1.02727,-2.58399 0.76211,-0.43981 1.97879,-1.11691 2.8036,-1.32617 0.57091,-0.14485 1.32754,-0.18172 1.9404,-0.18164 z m 21.90802,0.94531 c 0.14057,0.006 0.26299,0.0281 0.35668,0.0684 0.74954,0.3221 1.41258,1.20962 2.00937,1.91016 0.46904,0.55055 0.82146,1.53802 0.98447,2.01953 -0.004,0.21165 -0.011,0.42542 -0.0237,0.64062 -0.12114,-0.20647 -1.1116,-1.8696 -1.90236,-2.29883 -0.78915,-0.42833 -1.69992,-0.63729 -2.53488,-0.625 -0.0556,8.3e-4 -0.11153,0.003 -0.16646,0.006 -0.58559,0.0297 -1.3219,0.30809 -1.85243,0.52735 0.10154,-0.18508 0.18811,-0.34324 0.34481,-0.63086 0.18705,-0.34333 0.39734,-0.77261 0.61827,-1.21094 0.65092,-0.19397 1.56408,-0.434 2.16631,-0.40625 z m -20.28151,1.77539 c 0.37653,0.0112 0.73389,0.0401 1.05344,0.0879 0.6482,0.0969 1.41209,0.39481 2.01174,0.66602 0.50738,0.7119 0.85022,1.44909 1.19849,2.18945 -1.12626,-0.5086 -3.19132,-1.35416 -4.66316,-1.37305 -0.0676,-8.6e-4 -0.13272,-8.3e-4 -0.19737,0.002 -2.06881,0.0892 -4.48654,1.2739 -5.68566,2.33594 -1.19913,1.06201 -1.50053,2.28811 -1.60037,3.21093 -0.071,0.65616 -0.40285,1.85967 -0.22398,2.24175 -2.99915,-0.4619 -0.67148,-3.7486 0.0362,-5.99175 0.52623,-0.41489 1.16565,-0.90551 1.66218,-1.23633 0.91799,-0.61162 1.74212,-1.37209 3.01999,-1.75195 0.9584,-0.28489 2.25901,-0.41435 3.38857,-0.38086 z m 19.06638,2.21485 c -0.33744,0.002 -0.67544,0.0297 -0.94167,0.10351 -0.53247,0.14762 -1.36636,0.74002 -1.75968,1.23828 -0.39332,0.49826 -0.75569,1.61181 -0.75204,2.16702 0.004,0.55521 0.42543,1.06723 0.94128,1.3934 0.51584,0.3262 1.14522,0.44895 1.94754,0.31055 0.80231,-0.1384 2.05629,-0.86449 2.70134,-1.23828 0.64505,-0.37379 1.23964,-1.09181 1.44441,-1.49792 0.20479,-0.40611 0.19287,-0.69301 0,-1.03125 -0.19285,-0.33824 -0.55935,-0.72179 -1.0677,-0.92969 -0.50834,-0.2079 -1.03195,-0.40139 -1.56944,-0.46289 -0.26875,-0.0308 -0.60662,-0.0549 -0.94404,-0.0527 z m -19.22094,1.33593 c -0.91496,-7.6e-4 -1.85738,0.0922 -2.43502,0.24219 -1.15526,0.30002 -2.73541,1.17634 -2.57531,2.11524 0.16007,0.93887 2.58569,1.95596 3.95452,2.04296 1.36884,0.087 2.8667,-0.0208 3.59783,-0.47265 0.73117,-0.45189 0.82482,-1.28308 0.84418,-1.89844 0.0194,-0.61536 -0.16784,-1.27493 -1.11051,-1.71484 -0.47133,-0.21997 -1.36073,-0.3137 -2.27569,-0.31446 z m 23.18021,1.86415 c 0,0 -2.5483,1.76453 -3.64439,2.26936 -1.09609,0.5048 -1.86363,0.66961 -2.57531,0.51757 -0.71168,-0.15204 -1.57045,-1.1875 -1.57045,-1.1875 0,0 0.41008,1.94192 1.25555,2.21893 0.84552,0.27701 2.06791,-0.1077 3.2051,-0.72215 1.13718,-0.61445 3.3295,-3.09621 3.3295,-3.09621 z"
       sodipodi:nodetypes="ssccssscscssscsccsscssscsssszsssscsssssssssccsssczscsscscsssssssssscssssssscsscsscsssszszzsscsscsssscscsscsssssssssssssscsssssssssccscssscssscsscscssssssccscsssccccccsssccccssscscsscscccsccssssscccsscscsssccscssccsssssscssssccssssssssssccscsscccsscsscss" /><path
       style="fill:#000000;fill-opacity:0.2;stroke:none;stroke-width:1px;stroke-linecap:butt;stroke-linejoin:miter;stroke-opacity:1"
       d="m 312.98049,166.52401 c 0,0 1.38801,1.80068 2.48108,2.18919 1.09307,0.38851 2.59635,0.36376 3.64864,-0.14595 1.05229,-0.50971 2.18919,-2.55405 2.18919,-2.55405 0,0 -0.92427,2.81638 -2.11621,3.5027 -1.19194,0.68632 -3.00151,0.67971 -4.15946,0.073 -1.15795,-0.60671 -2.04324,-3.06489 -2.04324,-3.06489 z"
       id="path104553"
       sodipodi:nodetypes="czzczzc" /></g></svg>
