<?xml version="1.0" encoding="UTF-8" standalone="no"?>
<!-- Created with Inkscape (http://www.inkscape.org/) -->

<svg
   version="1.1"
   id="svg115799"
   width="400"
   height="400"
   viewBox="0 0 400 400"
   sodipodi:docname="BajoranNoseWrinkles.svg"
   inkscape:version="1.2.2 (b0a8486, 2022-12-01)"
   xmlns:inkscape="http://www.inkscape.org/namespaces/inkscape"
   xmlns:sodipodi="http://sodipodi.sourceforge.net/DTD/sodipodi-0.dtd"
   xmlns="http://www.w3.org/2000/svg"
   xmlns:svg="http://www.w3.org/2000/svg">
  <defs
     id="defs115803" />
  <sodipodi:namedview
     id="namedview115801"
     pagecolor="#ffffff"
     bordercolor="#666666"
     borderopacity="1.0"
     inkscape:showpageshadow="2"
     inkscape:pageopacity="0.0"
     inkscape:pagecheckerboard="0"
     inkscape:deskcolor="#d1d1d1"
     showgrid="false"
     inkscape:zoom="1.475"
     inkscape:cx="399.66102"
     inkscape:cy="201.35593"
     inkscape:window-width="1440"
     inkscape:window-height="810"
     inkscape:window-x="2611"
     inkscape:window-y="89"
     inkscape:window-maximized="0"
     inkscape:current-layer="g115807">
    <inkscape:page
       x="0"
       y="0"
       id="page115805"
       width="400"
       height="400" />
  </sodipodi:namedview>
  <g
     id="g115807"
     inkscape:groupmode="layer"
     inkscape:label="Page 1">
    <path
       d="m 312.18666,125.99427 c -1.69467,0.836 -3.516,2.332 -4.352,3.24667 -0.83467,0.91333 -2.70267,2.86 -1.46933,4.06533 0.316,-0.068 0.62933,-0.44133 0.95466,-0.39466 0.41334,1.13333 -0.75733,3.38266 0.184,4.31066 0.192,-0.11333 0.38267,-0.3 0.57734,-0.368 0.36133,0.52667 0.11066,1.49467 0.068,2.132 -0.0347,0.49867 -0.12,1.66 0.26666,2.00667 0.25067,-0.15467 0.48934,-0.40667 0.66267,-0.64 0.0587,-0.003 0.12933,0.003 0.18533,0 0.26267,0.68133 0.0747,1.46267 0.0613,2.21867 -0.0133,0.68533 0.12133,1.28 0.33466,1.90533 0.028,0.005 0.056,0.0107 0.084,0.0147 0.0813,0.47733 0.55734,0.81066 1.036,0.584 0.412,-0.19467 0.744,-0.744 1.01867,-1.064 0.46267,-0.53867 0.936,-1.06934 1.49867,-1.52667 0.46,-0.37467 2.10133,-1.304 2.76133,-1.272 0,0 -3.54133,-0.0533 -4.89733,0.85467 -1.35467,0.908 0.34533,-4.02534 5,-3.896 0,0 -3.23467,-0.92 -6.20534,0.50666 -2.97066,1.42534 1.028,-5.04933 5.00534,-4.38933 0,0 -3.76134,-1.20933 -6.032,0.47867 -2.27067,1.688 2.14666,-4.82534 6.71866,-3.81467 1.164,0.256 2.36267,1.13467 2.36267,1.13467 0,0 0.56533,-2.316 -3.03733,-2.60667 -0.95067,-0.0773 -2.83867,0.85333 -3.54934,0.28933 -0.49333,-2.70666 5.41334,-2.972 6.98,-2.692 1.01334,0.18 1.29734,0.648 1.58534,1.95867 0,0 1.27466,-3.35733 -1.076,-3.95067 -1.45467,-0.36666 -3.00934,-0.92533 -6.72667,0.908"
       style="opacity:0.199997;fill:#000000;fill-opacity:1;fill-rule:nonzero;stroke:none;stroke-width:1.33333"
       id="path119225" />
    <path
       d="m 314.76253,136.72401 c -0.14134,0.0547 3.13333,0 4.05733,1.45333 0,0 0.15467,-3.088 -4.05733,-1.45333"
       style="opacity:0.199997;fill:#000000;fill-opacity:1;fill-rule:nonzero;stroke:none;stroke-width:1.33333"
       id="path119241" />
    <path
       d="m 314.24733,133.22254 c -0.14267,0.0547 3.18,0 4.11866,1.45333 0,0 0.15734,-3.088 -4.11866,-1.45333"
       style="opacity:0.199997;fill:#000000;fill-opacity:1;fill-rule:nonzero;stroke:none;stroke-width:1.33333"
       id="path119257" />
    <path
       d="m 319.83999,132.86561 c 0,0 2.03734,-3.056 3.47334,-4.21334 1.43466,-1.15733 -1.18667,-4.09733 -3.27067,-4.74533 0,0 1.92667,1.87467 1.372,3.81867 -0.556,1.94533 -1.31733,2.64266 -1.76267,2.32666 -0.532,-0.46933 -1.312,-0.82933 -2.312,-0.752 0,0 2.73067,1.89467 1.748,3.68667 z"
       style="opacity:0.199997;fill:#000000;fill-opacity:1;fill-rule:nonzero;stroke:none;stroke-width:1.33333"
       id="path119273" />
  </g>
</svg>
