<?xml version="1.0" encoding="UTF-8" standalone="no"?>
<!-- Generator: Adobe Illustrator 28.2.0, SVG Export Plug-In . SVG Version: 6.00 Build 0)  -->

<svg
   version="1.1"
   id="Cardassian_Nose_1"
   x="0px"
   y="0px"
   viewBox="0 0 400 400"
   enable-background="new 0 0 300 300"
   xml:space="preserve"
   sodipodi:docname="CardassianNose.svg"
   width="400"
   height="400"
   inkscape:version="1.3.2 (091e20e, 2023-11-25)"
   xmlns:inkscape="http://www.inkscape.org/namespaces/inkscape"
   xmlns:sodipodi="http://sodipodi.sourceforge.net/DTD/sodipodi-0.dtd"
   xmlns="http://www.w3.org/2000/svg"
   xmlns:svg="http://www.w3.org/2000/svg"><defs
   id="defs5" /><sodipodi:namedview
   id="namedview5"
   pagecolor="#ffffff"
   bordercolor="#666666"
   borderopacity="1.0"
   inkscape:showpageshadow="2"
   inkscape:pageopacity="0.0"
   inkscape:pagecheckerboard="0"
   inkscape:deskcolor="#d1d1d1"
   showgrid="false"
   inkscape:zoom="8.67"
   inkscape:cx="295.79008"
   inkscape:cy="165.68627"
   inkscape:window-width="1920"
   inkscape:window-height="1080"
   inkscape:window-x="2430"
   inkscape:window-y="25"
   inkscape:window-maximized="0"
   inkscape:current-layer="layer1" />





<g
   inkscape:groupmode="layer"
   id="layer1"
   inkscape:label="Nose"><path
     opacity="0.2"
     d="m 301.01733,164.232 c 0.82133,-0.82667 1.868,-1.15467 2.968,-1.42267 1.608,-0.39067 3.3,-0.36267 4.91466,-0.0267 0.82,0.17067 1.624,0.42134 2.39734,0.74534 0.37733,0.15866 0.73466,0.35733 1.10666,0.52266 0.144,0.064 1.09067,0.29467 1.124,0.39867 -0.10533,-0.32667 -0.46133,-0.55867 -0.724,-0.744 -2.02666,-1.43067 -4.04266,-2.66 -6.532,-3.092 -1.068,-0.18533 -2.51733,-0.27333 -3.28533,0.65867 1.168,-1.41734 3.384,-1.74267 5.08267,-2.02534 2.252,-0.37466 3.64,-0.464 5.82,0.31734 0.21333,0.076 1,0.64266 1.148,0.63066 1.13333,-0.0933 -0.12667,-1.26 -0.47067,-1.55333 -0.744,-0.63467 -1.29467,-0.89067 -1.25867,-1.93467 0.0413,-1.21066 0.952,-2.05733 1.04267,-3.24533 0.104,-1.37067 -0.25867,-2.76 -0.79067,-4.012 -0.42,-0.99067 -0.83066,-1.98667 -1.23866,-2.98133 -0.34,-0.828 -0.34534,-1.60934 -0.57734,-2.47334 -0.42133,-1.568 -1.24266,-3.02666 -1.312,-4.70933 -0.0667,-1.61067 0.69867,-7.268 -1.36666,-7.76933 -0.736,-0.17867 -0.79467,0.0933 -1.10267,0.76533 -2.31067,5.04933 -1.32667,10.81333 -0.79333,16.16667 0.168,1.68 0.54133,3.42266 0.0347,5.10933 -0.73066,2.436 -2.44,3.772 -4.276,5.34667 -3.59466,3.084 -4.17333,8.16266 -7.46933,11.5 -0.896,0.908 -1.92267,1.68133 -2.776,2.632 -0.75867,0.844 -1.53067,1.91466 -2.01733,2.91466 0.38133,-0.784 1.72,-1.51333 2.39066,-2.048 0.74267,-0.592 1.468,-1.22133 2.44667,-1.35066 0.97067,-0.128 1.956,0.0187 2.91067,0.19466 0.268,0.0493 3.11733,0.392 3.11466,0.38534 -0.26933,-0.69734 -0.752,-1.28667 -0.99733,-1.99467 -0.71733,-2.072 -1.30267,-4.93733 0.36267,-6.77333 0.04,-0.0467 0.0813,-0.0893 0.124,-0.132 z"
     id="path1"
     style="stroke-width:1.33333;fill:#000000;fill-opacity:1" /><path
     opacity="0.2"
     d="m 301.71466,172.372 c 0.028,-0.15334 0.08,-0.31467 0.15733,-0.48534 0.64134,-1.404 3.06134,-1.66 4.41067,-1.916 2.94,-0.556 5.68,-0.36 8.616,0.0147 0.40667,0.052 0.916,0.0547 1.11067,-0.308 0.408,-0.76133 -0.59867,-1.20267 -1.17067,-1.37467 -2.24133,-0.67733 -4.604,-0.82266 -6.91733,-1.08533 -0.90134,-0.10267 -2.188,-0.272 -3.00534,0.27733 0.924,-0.62133 2.23334,-0.788 3.34267,-0.81466 2.15333,-0.0533 4.336,0.308 6.46933,-0.13467 0.29734,-0.0613 0.60534,-0.21733 0.71867,-0.5 0.056,-0.13867 0.0573,-0.29467 0.036,-0.44267 -0.14667,-0.98133 -1.12133,-1.748 -1.888,-2.26533 0.672,0.45333 1.536,0.71867 2.24,1.16667 1.048,0.66533 1.89333,1.62 2.416,2.74666 0.448,0.96667 0.90133,2.52267 0.612,3.592 0.38267,-0.076 2.34667,-0.812 2.54,-1.10133 0.4,-0.59733 0.884,-1.248 1.028,-1.996 0.16133,-0.83867 -0.24,-1.63867 -0.65333,-2.404 -0.376,-0.69733 -0.984,-1.34933 -1.01334,-2.14933 -0.007,-0.18667 1.28134,0.116 1.42,0.0467 0.45467,-0.228 0.424,-0.78666 0.408,-1.27066 -0.0667,-2.084 -0.804,-4.304 -1.136,-6.388 -0.25866,-1.63067 -0.53733,-3.24667 -0.784,-4.872 -0.31466,-2.07467 -0.97066,-4.104 -1.16533,-6.156 -0.22,-2.308 -1.89867,-4.176 -1.89733,-6.50534 0.53733,0.89067 1.20533,1.83334 1.56133,2.78934 0.216,0.58133 0.216,0.968 0.56267,1.39333 0.156,0.192 0.312,0.0893 0.44133,0.364 0.11867,0.25333 -0.0107,0.73867 0,1.02267 0.024,0.652 0.016,1.42133 0.256,2.01333 0.21067,0.51867 0.596,0.68 0.69467,1.208 0.20933,1.12 -0.52267,2.76667 0.348,3.73733 0.41333,0.46 0.73066,0.14667 0.88,0.80134 0.136,0.596 -0.244,1.46666 -0.20534,2.048 0.0747,1.11466 1.47467,1.16133 1.33734,2.488 -0.11467,1.104 -0.38667,1.80533 0.084,2.924 0.2,0.476 0.508,0.77733 0.83733,1.21066 0.66533,0.872 0.0427,2.00534 0.156,2.97467 0.092,0.79067 0.008,2.07867 0.636,2.74133 0.964,1.01867 1.78933,-0.34 2.108,-1.19333 0.26,-0.69867 0.16933,-1.71333 0.77067,-2.204 1.57866,2.03467 1.32,5.14667 0.988,7.49733 -0.19067,1.35734 -0.18934,4.01334 -0.95467,5.16 -0.74267,1.112 -2.396,1.62 -3.46133,2.38267 -0.97067,0.696 -2.04934,1.392 -2.90934,2.21867 -0.4,0.38533 -2.00666,2.04266 -1.948,2.588 -0.16933,-1.56267 0.416,-3.352 1.12,-4.74267 -1.04266,0.27333 -2.06533,0.87867 -2.85066,1.608 -0.64,0.59333 -1.312,1.71067 -2.25467,1.86133 0.85733,-2.27333 2.36133,-4.328 2.81733,-6.80666 -1.31466,1.424 -2.564,2.92 -4.02933,4.19466 -0.65867,0.57334 -1.38,1.06534 -2.00133,1.656 -0.1,0.0947 -2.184,1.49067 -2.15067,1.056 0.056,-0.716 1.068,-1.432 1.424,-2.05333 0.408,-0.712 0.62133,-1.536 0.7,-2.32667 -1.05467,0.89467 -1.81067,2.10934 -2.99867,2.92 -1.39333,0.95067 -4.74266,3.328 -6.42,2.10534 -0.32933,-0.24 -0.96933,-1.412 -0.896,-1.88934 0.10934,-0.71066 0.43334,-0.56533 1.12,-0.62933 1.73867,-0.16267 3.33467,-0.652 4.98934,-1.28 1.64,-0.62267 3.30133,-1.50267 4.86266,-2.296 0.216,-0.10933 0.43067,-0.22133 0.64267,-0.33867 0.976,-0.54266 2.04267,-1.27333 2.444,-2.36533 0.068,-0.184 0.12267,-0.384 0.13333,-0.58 0.009,-0.18133 0.04,-0.43067 -0.0307,-0.59867 -0.11734,0.12667 -0.24,0.27067 -0.38267,0.372 -0.236,0.16934 -0.484,0.30667 -0.708,0.488 -0.208,0.16934 -0.40667,0.356 -0.59867,0.54534 -0.35066,0.348 -0.78933,0.636 -1.228,0.86 -0.35466,0.18 -0.70666,0.368 -1.06266,0.54933 -0.28667,0.14667 -0.59467,0.26667 -0.86134,0.43867 -0.27866,0.18 -0.57066,0.34133 -0.88133,0.45733 -1.12667,0.42 -2.56,1.07867 -3.76667,0.78 -0.816,-0.20267 -1.66266,-0.70533 -2.432,-1.09733 -1.14533,-0.58534 -3.05066,-1.25067 -2.77733,-2.728 z"
     id="path2"
     style="stroke-width:1.33333;fill:#000000;fill-opacity:1" /><path
     d="m 312.07466,174.62133 c 0,0 4.37867,-1.72 4.692,-3.128 0.31333,-1.408 -4.692,-1.408 -8.28933,-0.46933 -3.59734,0.93866 -2.65867,2.65866 0,2.50266 2.65866,-0.15733 6.256,-0.15733 3.59733,1.09467 z"
     id="path3"
     style="stroke-width:1.33333;fill:#000000;fill-opacity:1" /><path
     d="m 329.95333,164.16133 c -0.076,-0.82933 -0.21467,-1.68133 -0.40667,-2.556 -1.832,-8.336 -5.37067,-16.212 -8.56267,-24.056 -0.33466,-0.82267 -0.83333,-1.58133 -1.03733,-2.444 -0.256,-1.08267 -0.192,-2.20933 -0.39867,-3.29867 -0.32666,-1.72266 -0.46,-3.592 -0.96266,-5.22533 0.064,0.208 -0.28,0.95867 -0.324,1.21067 -0.0773,0.44666 -0.17067,0.96533 -0.124,1.41866 0.0853,0.82134 0.29333,1.66 0.39733,2.492 0.332,2.64134 0.844,5.29067 1.916,7.74934 0.496,1.13733 0.90533,1.61066 0.96933,2.92 0.0573,1.14533 0.712,1.92266 0.87467,3.08 0.0733,0.524 0.0467,1.10266 0.15067,1.62533 0.0987,0.49333 0.27333,0.704 0.51466,1.15867 0.41867,0.79066 0.31467,1.65333 0.58267,2.48666 0.29067,0.90667 0.95067,1.724 1.18933,2.69067 0.11734,0.47333 0.236,0.944 0.38134,1.44 0.144,0.48933 0.45333,0.86133 0.688,1.336 0.592,1.196 0.88533,2.54933 1.012,3.85067 0.116,1.19333 0.96133,1.94933 1.216,3.13866 0.82266,3.84534 -1.768,7.40934 -4.88,9.32134 -0.992,0.60933 -1.97734,1.05333 -2.87334,1.75466 0.69734,0.528 0.0773,0.76934 -0.224,1.21067 -1.04133,1.51333 -3.41866,2.588 -5.02133,3.64 0.108,-0.0707 1.13467,0.076 1.344,0.056 0.644,-0.0613 1.28267,-0.26933 1.89333,-0.472 0.996,-0.32933 2.09734,-0.588 3.03467,-1.05333 2.38,-1.18267 5.20267,-3.24267 6.712,-5.45734 1.696,-2.49866 2.20133,-5.128 1.93867,-8.01733 z"
     id="path4"
     style="stroke-width:1.33333;fill:#000000;fill-opacity:1" /><path
     d="m 303.31733,173.83866 c 0,0 -4.22267,-2.81466 -3.128,-7.50666 0,0 -4.84934,6.88133 3.128,7.50666 z"
     id="path5"
     style="stroke-width:1.33333;fill:#000000;fill-opacity:1" /></g></svg>
