<?xml version="1.0" encoding="UTF-8" standalone="no"?>
<!-- Created with Inkscape (http://www.inkscape.org/) -->

<svg
   version="1.1"
   id="svg147711"
   width="400"
   height="400"
   viewBox="0 0 400 400"
   sodipodi:docname="FerengiNose.svg"
   inkscape:version="1.2.2 (b0a8486, 2022-12-01)"
   xmlns:inkscape="http://www.inkscape.org/namespaces/inkscape"
   xmlns:sodipodi="http://sodipodi.sourceforge.net/DTD/sodipodi-0.dtd"
   xmlns="http://www.w3.org/2000/svg"
   xmlns:svg="http://www.w3.org/2000/svg">
  <defs
     id="defs147715" />
  <sodipodi:namedview
     id="namedview147713"
     pagecolor="#ffffff"
     bordercolor="#666666"
     borderopacity="1.0"
     inkscape:showpageshadow="2"
     inkscape:pageopacity="0.0"
     inkscape:pagecheckerboard="0"
     inkscape:deskcolor="#d1d1d1"
     showgrid="false"
     inkscape:zoom="2.0825"
     inkscape:cx="192.79712"
     inkscape:cy="200"
     inkscape:window-width="1980"
     inkscape:window-height="1053"
     inkscape:window-x="2409"
     inkscape:window-y="150"
     inkscape:window-maximized="0"
     inkscape:current-layer="g147719">
    <inkscape:page
       x="0"
       y="0"
       id="page147717"
       width="400"
       height="400" />
  </sodipodi:namedview>
  <g
     id="g147719"
     inkscape:groupmode="layer"
     inkscape:label="Page 1">
    <path
       d="m 312.55519,155.48961 c -4.46666,0.036 -8.31866,0.95066 -12.096,3.33866 2.12267,-2.25866 4.83734,-4.884 7.524,-6.408 1.23734,-0.70133 2.67334,-1.23066 3.88934,-1.05333 -1.044,-0.15333 -2.02934,-0.508 -2.92934,-1.05733 -0.35466,-0.216 -1.07866,-0.62267 -0.80133,-1.132 0.20133,-0.37067 0.77867,-0.30134 1.11867,-0.22934 0.95733,0.20134 1.83333,0.56534 2.86266,0.57734 -0.408,-0.268 -0.92,-0.312 -1.36266,-0.48667 -0.564,-0.22267 -1.144,-0.516 -1.62267,-0.88267 -0.41467,-0.316 -1.73867,-1.284 -1.396,-1.90533 0.60667,0.27067 1.19733,0.53867 1.836,0.712 0.464,0.12533 1.028,0.44667 1.50667,0.40533 -0.86934,-0.61333 -1.98,-0.98933 -2.76134,-1.82133 -0.38933,-0.41467 -1.20133,-1.276 -0.936,-1.83333 0.92,0.18666 1.94934,1.13866 2.88267,1.05066 -0.52133,-0.19333 -1.01067,-0.70133 -1.47733,-1.01466 -0.40667,-0.272 -0.72934,-0.46934 -1.09467,-0.83467 -0.51733,-0.51733 -1.27867,-1.25467 -1.26533,-2.052 0.304,0.1 0.55466,0.56933 0.89466,0.51067 -0.288,-0.728 -0.58666,-1.51734 -0.96133,-2.21734 -0.184,-0.34266 -0.43333,-0.664 -0.604,-1.01866 -0.336,-0.696 -0.31867,-1.48934 -0.46933,-2.23067 -0.21067,-1.03067 -0.44934,-2.49333 -0.67067,-3.52267 0,0 -2.468,3.17867 -2.46933,3.18 -0.46934,0.60534 -0.0253,4.03467 -0.10267,4.93734 -0.12267,1.42933 -0.10133,2.50133 0.068,3.88666 0.40267,3.28534 1.04133,7.10267 0.0413,10.32934 -1.22666,3.95466 -6.09733,5.14 -7.7,8.96666 -0.928,2.21467 -1.15866,5.36667 -0.51733,7.68134 0.91067,3.28 4.73067,2.716 7.25067,3.312 3.136,0.74 6.684,2.752 9.03066,4.956 0.772,0.72533 1.68,1.55466 2.61734,1.98133 1.40933,0.64 2.84533,-0.007 4.25466,-0.26933 3.52534,-0.65467 6.75734,-2.05334 9.22934,-4.72134 0.876,-0.94666 1.484,-2.13866 2.33066,-3.052 0.844,-0.91066 1.82667,-1.37466 1.896,-2.77333 0.0867,-1.732 -0.0147,-3.35067 -0.392,-4.96667 -0.264,-1.12666 -0.456,-2.30933 -0.856,-3.404 0.25467,0.69867 -0.68266,2.48134 -0.98,3.11467 -0.74133,1.57867 -1.56933,3.016 -3.168,3.78267 -1.484,0.71066 -3.2,0.92933 -4.82933,0.84666 -0.576,-0.0293 -0.972,-0.112 -1.516,-0.31466 -0.436,-0.164 -0.92533,-0.57067 -1.37733,-0.55867 0.13733,1.28533 1.77466,1.14933 2.61733,1.64933 -0.63867,0.64667 -1.62933,0.42267 -2.384,0.18667 -0.30533,-0.096 -2.49733,-0.78533 -2.44267,-1.19467 -0.15866,1.19067 -1.27333,1.16534 -2.21866,1.07734 -1.42267,-0.132 -2.63734,0.0173 -4.05467,0.32533 -0.48133,0.104 -5.34267,0.17333 -5.39467,0.33067 0.636,-1.904 3.85467,-2.83334 5.56134,-3.67334 2.37733,-1.16933 4.17866,-0.812 6.252,0.728 -0.30267,-0.224 -0.0387,-2.076 -0.63734,-2.64666 -0.61866,-0.59067 -1.44133,-0.56534 -2.236,-0.50934 -1.64133,0.11734 -2.992,0.92934 -4.45733,1.588 -1.08933,0.49067 -2.19867,0.936 -3.32533,1.33467 -0.97734,0.34533 -2.216,0.41067 -3.07334,1.00933 -0.51866,0.36267 -0.27333,0.80934 -0.32666,1.35867 -0.608,-0.808 -1.38667,-1.52667 -1.048,-2.6 0.636,-2.016 2.96266,-2.472 4.41733,-3.62133 -0.436,0.001 -0.87333,0.27733 -1.27867,0.43466 -1.696,0.65467 -3.40933,0.65334 -4.59466,2.19867 -0.42667,0.556 0.007,1.48 0.388,1.972 -0.82934,-0.744 -2.036,-1.93467 -2.17467,-3.11467 -0.148,-1.25066 1.69867,-2.344 2.59467,-2.92533 0.832,-0.54 1.73466,-0.95733 2.65333,-1.32533 0.50533,-0.20267 1.88267,-1.012 2.428,-0.808 -2.356,-0.87734 -7.44133,0.448 -8.81467,2.724 1.632,-2.70534 4.28667,-3.948 7.10934,-5.07334 3.204,-1.276 6.1,-2.704 9.56266,-3.23466"
       style="opacity:0.199997;fill:#000000;fill-opacity:1;fill-rule:nonzero;stroke:none;stroke-width:1.33333"
       id="path168893" />
    <path
       d="m 307.97453,158.59961 c 1.97066,-1.48 4.59866,-2.69467 7.124,-2.336 2.236,0.316 4.12,1.944 6.32266,2.26666 3.372,0.49467 3.76134,-3.03466 2.83067,-5.56533 0.748,1.43067 1.416,3.78133 0.968,5.42933 -0.54,1.984 -2.48133,1.96534 -4.37733,1.91867 -2.088,-0.0507 -2.684,-1.252 -4.34134,-2.05333 -1.25733,-0.608 -3.48666,0.228 -4.74,0.604 -0.992,0.29866 -2.108,0.584 -2.99466,1.09866 1.184,-0.59866 2.344,-1.18266 3.46933,-1.86533 0.85733,-0.52133 1.89467,-0.57733 2.84267,-0.848 -0.784,-0.47467 -2.30134,-0.172 -3.14534,0.024 -0.71866,0.168 -1.42266,0.38933 -2.11866,0.632 -0.54267,0.18933 -1.38,0.34933 -1.84,0.69467"
       style="opacity:0.199997;fill:#000000;fill-opacity:1;fill-rule:nonzero;stroke:none;stroke-width:1.33333"
       id="path168909" />
    <path
       d="m 328.52239,171.11601 c -0.8,1.52133 -2.24666,2.54933 -3.84933,3.096 -1.58,0.53866 -3.256,0.524 -4.84,0.94 -0.83067,0.21866 -1.57333,0.53066 -2.38,0.87733 -0.592,0.25333 -1.176,0.54267 -1.74667,0.84133 -0.35733,0.188 -1.228,0.616 -1.32666,1.04534 0.0347,-0.91467 0.848,-1.36534 1.28933,-2.10934 0.52133,-0.876 0.344,-2.16 -0.54667,-2.74 -0.82933,-0.53866 -1.69866,-0.34266 -2.37066,0.23067 -0.30534,0.26 -1.01467,2.424 -0.872,2.39733 -1.79334,0.33734 -5.472,-0.87466 -6.816,-2.02266 -1.95734,-1.67334 2.104,-3.02534 3.25066,-3.336 0.868,-0.236 3.968,-1.95467 4.55734,-1.68267 0.90666,0.416 0.28933,1.796 0.88666,2.52267 1.06934,1.30133 5.16267,1.616 6.752,1.616 3.66267,0 8.48267,-3.10134 8.48267,-9.152 0,-1.708 -0.48667,-3.408 -1.26667,-4.91867 -0.33866,-0.65333 -0.68,-1.336 -1.04533,-1.964 -0.43867,-0.75733 -1.10533,-1.37333 -1.58133,-2.10933 -0.22934,-0.35334 -1.79867,-2.77467 -1.19334,-3.07734 0.364,-0.18133 1.25467,0.84134 1.452,1.03467 0.96534,0.944 2.09867,2.02267 2.796,3.19333 1.42,2.38534 2.35867,4.776 2.35867,7.59467 0,5.41333 -1.19467,6.20933 -1.99067,7.72267"
       style="fill:#000000;fill-opacity:1;fill-rule:nonzero;stroke:none;stroke-width:1.33333"
       id="path168919" />
    <path
       d="m 297.17119,174.54067 c 0,0 -2.78133,-1.84266 -3.132,-5.78266 -0.16266,-1.82934 1.31734,-5.228 1.82267,-7.08667 0,0 -9.24667,10.35067 1.30933,12.86933"
       style="fill:#000000;fill-opacity:1;fill-rule:nonzero;stroke:none;stroke-width:1.33333"
       id="path168923" />
    <path
       d="m 329.07266,162.82881 c 0,0 2.9,8.26533 -1.6,11.82 0,0 5.2,-2.20934 4.5,-6.53467 -0.7,-4.324 -2,-4.036 -2.9,-5.28533"
       style="fill:#000000;fill-opacity:1;fill-rule:nonzero;stroke:none;stroke-width:1.33333"
       id="path168927" />
    <path
       d="m 325.42119,153.26347 c -0.90933,-1.32933 -1.44666,-2.9 -2.57733,-4.04 -0.512,-0.51466 -0.4,-0.932 -0.62267,-1.53466 -0.152,-0.408 -0.48,-0.70534 -0.652,-1.08134 -0.19733,-0.43066 -10e-4,-0.97066 -0.164,-1.40666 -0.16266,-0.43334 -0.628,-0.69334 -0.65866,-1.20267 -0.0387,-0.65867 0.25733,-0.912 -0.116,-1.56933 -0.26,-0.45867 -0.332,-0.66667 -0.35734,-1.21467 -0.028,-0.616 -0.34266,-1.108 -0.41733,-1.67733 -0.0493,-0.376 0.032,-0.86934 -0.10933,-1.268 -0.088,-0.24534 -0.296,-0.45067 -0.34134,-0.73067 -0.10533,-0.64133 0.2,-1.16267 0.404,-1.73067 0.208,-0.58133 0.17334,-1.228 0.24134,-1.84933 0.30266,-2.71467 6.72533,-9.228 6.72533,-9.228 0,0 -8.55333,9.904 -8.58933,10.17067 -0.0707,0.53466 -0.0773,1.04 -0.10267,1.58 -0.0227,0.49733 -0.38267,1.20933 -0.288,1.66533 0.056,0.27733 0.37733,0.48533 0.46933,0.77333 0.0627,0.2 -0.012,0.42667 0.0693,0.62134 0.0773,0.18533 0.284,0.316 0.392,0.48533 0.14266,0.22267 0.16533,0.504 0.21866,0.75733 0.0493,0.22934 0.104,0.43334 0.092,0.69467 -0.009,0.19467 -0.18,0.55867 -0.136,0.724 0.096,0.35333 0.55734,0.75067 0.69467,1.18 0.18933,0.59067 0.0813,1.26533 0.11333,1.896 0.58667,-0.0307 0.45867,0.85867 0.528,1.23333 0.0907,0.49734 0.28534,1 0.37867,1.52934 0.424,-0.0787 0.60933,0.78533 0.61733,1.096 0.49067,-0.17867 1.09867,1.26 1.17734,1.64533 0.028,0.136 -0.0147,0.43467 0.0507,0.548 0.10134,0.17467 0.348,0.19067 0.516,0.34 0.264,0.23867 0.412,0.58133 0.66267,0.83467 0.112,0.11333 0.60533,0.68 0.712,0.68666 z"
       style="fill:#000000;fill-opacity:1;fill-rule:nonzero;stroke:none;stroke-width:1.33333"
       id="path168931" />
    <path
       d="m 322.81493,167.37481 c -5.03334,0.748 -4.72267,-2.85867 -8.73467,-4.05467 -2.27733,-0.67867 -4.77333,0.268 -7.03067,0.54133 2.64934,-1.95866 6.668,-2.156 9.65067,-0.73466 3.252,1.54933 5.52933,2.56133 9.268,0.852 2.108,-0.964 2.08,-2.62 2.42667,-4.61067 -0.26534,1.80267 0.7,3.53467 -0.32934,5.22133 -1.008,1.648 -3.344,2.50134 -5.25066,2.78534"
       style="opacity:0.199997;fill:#000000;fill-opacity:1;fill-rule:nonzero;stroke:none;stroke-width:1.33333"
       id="path168941" />
    <path
       d="m 310.53986,160.29721 c 1.908,-0.7 3.94267,-1.268 5.90133,-1.012 1.692,0.22133 2.268,1.684 3.87734,2.088 4.07066,1.01866 6.72,-1.87467 6.22,-5.688 1.41466,3.12533 0.48133,5.816 -2.97867,6.69066 -3.66,0.92534 -5.32533,-1.65866 -8.74533,-1.87066 -2.39067,-0.14667 -4.292,0.55866 -6.62934,0.70666 0.75067,-0.29333 1.54134,-0.616 2.35467,-0.91466"
       style="opacity:0.199997;fill:#000000;fill-opacity:1;fill-rule:nonzero;stroke:none;stroke-width:1.33333"
       id="path168957" />
    <path
       d="m 321.36799,146.76054 c 1.44,2.46267 2.93467,5.23067 1.90534,8.14133 -0.42934,1.21734 -1.06534,1.576 -2.28534,1.31734 -0.64666,-0.13734 -1.33733,-0.27067 -1.94266,-0.51334 -0.51467,-0.20666 -0.96667,-0.51333 -1.50134,-0.68133 -1.23333,-0.388 -2.59333,-0.77867 -3.884,-0.84 -0.664,-0.032 -1.33866,0.0387 -1.98533,0.0413 0.612,-0.97333 2.672,-0.828 3.572,-0.72133 1.376,0.16133 2.72667,0.47467 4.05333,0.82667 0.94934,0.252 1.60267,0.408 2.34267,-0.29067 0.53867,-0.508 0.78267,-1.22267 0.82,-1.94933 0.028,-0.536 0.0413,-0.65734 -0.0813,-1.19467 -0.18,-0.792 -0.41867,-1.59067 -0.60934,-2.396 -0.156,-0.66 -0.33333,-1.068 -0.404,-1.74"
       style="opacity:0.199997;fill:#000000;fill-opacity:1;fill-rule:nonzero;stroke:none;stroke-width:1.33333"
       id="path168973" />
    <path
       d="m 312.78653,151.12801 c 0.564,-0.13867 1.11866,0.0413 1.71333,0.16133 1.05467,0.21067 2.11067,0.34133 3.15733,0.61067 1.12,0.28933 1.708,-0.016 2.628,-0.73734 0.72534,-0.57066 0.976,-1.156 0.94134,-2.06933 -0.0333,-0.864 -0.408,-1.63867 -0.48,-2.46133 0.61333,1.232 1.26266,2.92533 0.90266,4.292 -0.264,1.00133 -0.58266,1.61866 -1.65866,1.932 -0.91734,0.26533 -1.496,0.11466 -2.34267,-0.28267 -0.87733,-0.412 -1.828,-0.628 -2.78,-0.79067 -0.50267,-0.0867 -2.204,-0.692 -2.62667,-0.41333 0.184,-0.12133 0.36534,-0.19733 0.54534,-0.24133"
       style="opacity:0.199997;fill:#000000;fill-opacity:1;fill-rule:nonzero;stroke:none;stroke-width:1.33333"
       id="path168989" />
    <path
       d="m 320.27359,143.39601 c 0.22667,1.04266 0.44667,2.19733 0.524,3.26933 0.0707,0.952 -0.21333,1.71467 -0.48666,2.60667 -0.17867,0.58266 -0.33867,1.30933 -0.91067,1.63733 -0.72267,0.416 -1.79333,0.196 -2.54,-0.0147 -0.764,-0.216 -1.50667,-0.44 -2.28,-0.616 -0.66933,-0.152 -1.11867,-0.752 -1.77467,-0.892 1.60534,0.34267 3.20934,0.936 4.87467,0.848 1.196,-0.064 1.83867,-1.21466 2.072,-2.27333 0.304,-1.37867 0.82933,-3.144 0.52133,-4.56533"
       style="opacity:0.199997;fill:#000000;fill-opacity:1;fill-rule:nonzero;stroke:none;stroke-width:1.33333"
       id="path169005" />
    <path
       d="m 319.52266,145.04734 c 0.21867,-0.52667 0.28667,-1.33067 0.64267,-1.70933 0.468,1.10533 0.188,1.94 -0.368,2.92133 -0.26,0.46 -0.552,0.90267 -0.89067,1.32133 -0.32667,0.404 -0.92933,0.82134 -1.42933,0.97734 -0.61867,0.192 -1.27067,-0.096 -1.89467,-0.18 -0.89333,-0.11867 -1.83867,-0.10667 -2.652,-0.54667 -0.21333,-0.116 -0.49333,-0.264 -0.65067,-0.39867 1.28934,-0.12533 2.592,0.256 3.876,0.33334 0.76267,0.0453 1.55067,-0.196 2.15334,-0.66934 0.52666,-0.41466 0.95066,-1.41866 1.21333,-2.04933"
       style="opacity:0.199997;fill:#000000;fill-opacity:1;fill-rule:nonzero;stroke:none;stroke-width:1.33333"
       id="path169021" />
    <path
       d="m 315.65613,145.57081 c 0.73066,-0.0347 1.252,-0.22934 1.856,-0.61867 0.592,-0.38 0.74133,-0.904 1.03333,-1.52667 0.33067,-0.70666 0.508,-1.35466 0.73067,-2.06666 -0.028,0.588 0.21333,1.15466 0.13066,1.744 -0.10933,0.78666 -0.47333,1.93466 -0.992,2.54133 -0.408,0.47867 -1.28533,0.496 -1.89866,0.54533 -0.94667,0.0747 -1.80267,-0.024 -2.68134,-0.348 -0.85733,-0.31733 -1.784,-0.84 -2.68533,-0.98533 0.756,-0.0267 1.48267,0.104 2.15467,0.43067 0.72933,0.35333 1.536,0.32266 2.352,0.284"
       style="opacity:0.199997;fill:#000000;fill-opacity:1;fill-rule:nonzero;stroke:none;stroke-width:1.33333"
       id="path169037" />
    <path
       d="m 309.76493,142.23947 c -1.31467,-0.39333 -2.86534,-1.864 -3.09467,-3.27866 0.81333,0.70533 1.68533,1.43866 2.468,2.15866 1.25067,1.152 2.93333,0.992 4.47867,1.50134 -1.184,-0.39067 -2.624,-0.0147 -3.852,-0.38134"
       style="opacity:0.199997;fill:#000000;fill-opacity:1;fill-rule:nonzero;stroke:none;stroke-width:1.33333"
       id="path169053" />
    <path
       d="m 313.99106,143.17161 c 0.144,-0.005 0.28,-0.0133 0.40533,-0.0267 1.284,-0.12667 2.36667,-0.63467 3.07867,-1.732 0.41467,-0.64 0.676,-1.36267 0.888,-2.09067 0.172,-0.59333 0.52267,-1.396 0.53333,-2.00933 -0.016,0.99867 0.13867,2.08133 -0.15333,3.03333 -0.50667,1.65467 -1.07867,3.57334 -3.132,3.74934 -0.55467,0.0467 -1.14,-0.204 -1.652,-0.392 -0.70133,-0.256 -1.53733,-0.51334 -2.19333,-0.85334 0.55733,0.26534 1.48666,0.34667 2.22533,0.32134"
       style="opacity:0.199997;fill:#000000;fill-opacity:1;fill-rule:nonzero;stroke:none;stroke-width:1.33333"
       id="path169069" />
    <path
       d="m 317.42653,139.77747 c -1.352,1.304 -3.06934,1.62934 -4.72667,0.73467 -0.36933,-0.2 -0.708,-0.41067 -1.08933,-0.59333 -0.65867,-0.316 -1.512,-0.49467 -2.088,-0.92534 1.452,0.0933 2.43066,0.56667 3.756,1.05867 1.12,0.41467 1.656,0.39733 2.648,-0.25467 0.77333,-0.508 1.672,-0.95333 2.052,-1.856 0.30266,-0.72133 0.28666,-1.55466 0.53466,-2.25733 -0.0307,0.084 0.208,0.79467 0.22,0.94933 0.032,0.388 0.004,0.77467 -0.0907,1.15067 -0.19334,0.76933 -0.64934,1.448 -1.216,1.99333"
       style="opacity:0.199997;fill:#000000;fill-opacity:1;fill-rule:nonzero;stroke:none;stroke-width:1.33333"
       id="path169085" />
    <path
       d="m 310.95013,152.51681 c -0.46267,0.048 -0.94,0.25466 -1.29467,0.432 -0.39867,0.2 -0.80533,0.39333 -1.19467,0.61333 -0.28533,0.16 -0.76,0.612 -1.04266,0.66667 0.77466,-0.14934 1.45333,-0.556 2.208,-0.75734 0.69066,-0.18533 1.536,-0.33733 2.07333,-0.84533 -0.22667,-0.112 -0.48533,-0.136 -0.74933,-0.10933"
       style="opacity:0.199997;fill:#000000;fill-opacity:1;fill-rule:nonzero;stroke:none;stroke-width:1.33333"
       id="path169101" />
    <path
       d="m 318.84573,134.05401 c -1.20534,1.292 -3.196,1.41866 -4.712,2.08266 1.09866,0.30534 2.84,0.12534 3.92666,-0.22666 0.56934,-0.184 1.236,-1.08534 0.78534,-1.856"
       style="opacity:0.199997;fill:#000000;fill-opacity:1;fill-rule:nonzero;stroke:none;stroke-width:1.33333"
       id="path169117" />
    <path
       d="m 304.75919,133.34014 c 0.5,0.10667 1.02267,0.53867 1.49467,0.76 0.65467,0.308 1.3,0.66667 1.992,0.88267 1.06667,0.332 2.25333,0.712 3.324,0.928 -0.79867,0.432 -2.71333,-0.20667 -3.60133,-0.33734 -0.64134,-0.0947 -1.30534,-0.128 -1.924,-0.27066 -0.392,-0.0907 -0.82667,-0.25334 -1.084,-0.58267 -0.364,-0.46533 -0.16134,-1.06533 -0.20134,-1.38"
       style="opacity:0.199997;fill:#000000;fill-opacity:1;fill-rule:nonzero;stroke:none;stroke-width:1.33333"
       id="path169133" />
    <path
       d="m 305.59653,136.25041 c 0.47733,0.164 0.77466,0.448 1.19333,0.78133 0.40267,0.32133 1.448,0.54133 1.62933,1.05867 -0.708,0.204 -1.40133,-0.0133 -2.03333,-0.31467 -0.648,-0.30933 -1.24533,-0.81333 -1.088,-1.60667 0.108,0.0227 0.20667,0.0493 0.29867,0.0813"
       style="opacity:0.199997;fill:#000000;fill-opacity:1;fill-rule:nonzero;stroke:none;stroke-width:1.33333"
       id="path169149" />
    <path
       d="m 313.25759,131.12454 c 0.576,-0.0307 1.15067,0.007 1.716,0.11067 0.67067,0.124 1.34667,0.26133 2.02,0.4 0.48534,0.1 0.96934,0.21333 1.45467,0.30266 0.17333,0.032 0.83733,0.24934 0.96533,0.0787 -0.136,0.18267 -0.36533,0.39333 -0.55466,0.544 -0.56934,0.45467 -1.53867,0.56 -1.98934,1.15333 0.676,0.02 1.348,-0.0867 1.988,-0.28933 0.90134,-0.28667 1.76934,-1.04533 2.30267,-1.804 0.30267,-0.42933 0.552,-0.82933 0.67333,-1.34133 0.316,-1.33734 -0.10933,-2.596 -0.932,-3.672 -0.94266,-1.23467 -2.152,-2.13734 -3.65333,-2.60667 -0.83467,-0.26 -1.60667,-0.37067 -2.476,-0.45867 -0.54267,-0.0547 -1.15067,-0.14 -1.69467,-0.036 -0.66266,0.12667 -1.344,0.404 -1.96133,0.66267 -0.84667,0.356 -1.73067,0.79867 -2.49733,1.304 -1.144,0.75467 -2.328,1.49733 -3.42934,2.31067 -0.62666,0.46266 -1.14,1.00266 -1.60933,1.62133 -0.13067,0.172 -0.10933,0.40133 -0.152,0.60133 -0.0493,0.224 -0.10267,0.42934 -0.076,0.66267 0.0373,0.33733 0.21333,0.888 0.48267,1.1 0.41733,0.328 1.05333,0.576 1.552,0.75733 0.36,0.13067 0.72266,0.27334 1.08133,0.408 0.53867,0.204 1.10667,0.19067 1.65333,0.33467 0.48667,0.128 0.95334,0.31333 1.46534,0.35733 0.56266,0.0493 1.09733,0.24934 1.676,0.20267 0.12533,-0.009 0.61733,-0.036 0.508,-0.24267 -0.45334,-0.0667 -0.96934,-0.28133 -1.40267,-0.44 -0.38667,-0.14 -0.784,-0.25733 -1.17067,-0.40133 -0.34133,-0.12667 -0.67866,-0.236 -1.012,-0.38267 -0.21866,-0.096 -0.572,-0.17733 -0.71066,-0.36266 0.352,-0.0267 0.70933,-0.0213 1.06266,-0.0467 0.49867,-0.0347 0.98,-0.156 1.47067,-0.244 0.91733,-0.164 1.83067,-0.42667 2.75733,-0.54 0.164,-0.02 0.328,-0.0347 0.492,-0.044"
       style="opacity:0.199997;fill:#000000;fill-opacity:1;fill-rule:nonzero;stroke:none;stroke-width:1.33333"
       id="path169165" />
  </g>
</svg>
