<?xml version="1.0" encoding="UTF-8" standalone="no"?>
<!-- Generator: Adobe Illustrator 28.3.0, SVG Export Plug-In . SVG Version: 6.00 Build 0)  -->

<svg
   version="1.1"
   id="Nose_11"
   x="0px"
   y="0px"
   viewBox="0 0 400 400"
   enable-background="new 0 0 300 300"
   xml:space="preserve"
   sodipodi:docname="Nose12.svg"
   width="400"
   height="400"
   inkscape:version="1.3.2 (091e20e, 2023-11-25)"
   xmlns:inkscape="http://www.inkscape.org/namespaces/inkscape"
   xmlns:sodipodi="http://sodipodi.sourceforge.net/DTD/sodipodi-0.dtd"
   xmlns="http://www.w3.org/2000/svg"
   xmlns:svg="http://www.w3.org/2000/svg"><defs
   id="defs6" /><sodipodi:namedview
   id="namedview6"
   pagecolor="#ffffff"
   bordercolor="#666666"
   borderopacity="1.0"
   inkscape:showpageshadow="2"
   inkscape:pageopacity="0.0"
   inkscape:pagecheckerboard="0"
   inkscape:deskcolor="#d1d1d1"
   showgrid="false"
   inkscape:zoom="2.1675"
   inkscape:cx="199.76932"
   inkscape:cy="200"
   inkscape:window-width="1920"
   inkscape:window-height="1080"
   inkscape:window-x="2494"
   inkscape:window-y="236"
   inkscape:window-maximized="0"
   inkscape:current-layer="layer2" />






<g
   inkscape:groupmode="layer"
   id="layer1"
   inkscape:label="Nose"><path
     id="path2"
     style="stroke-width:1.33333;fill:#000000;fill-opacity:1;opacity:0.2"
     d="m 301.40399,172.5 c 0,0 9.20134,-5.22534 17.56267,-4.72534 1.792,0.10667 3.64,0.39334 4.612,0.54934 3.55867,0.572 7.24667,-2.08667 7.24667,-2.08667 l -4.21334,4.288 -0.87333,3.348 c 0,0 -6.73867,4.11733 -7.98667,5.86533 -1.248,1.74667 -2.74533,3.61867 -4.11733,1.12267 -1.372,-2.496 -6.15467,-4.95733 -8.236,-5.98933 -2.08133,-1.03334 -3.99467,-2.372 -3.99467,-2.372 z m 0,-7.86134 c 2.06667,-2.19866 3.23467,-3.28266 5.85867,-4.28133 1.85067,-0.70533 3.89333,-1.184 3.71067,-3.612 -0.11467,-1.51333 -0.67867,-2.85333 -0.93867,-4.35867 -0.27867,-1.612 -0.45733,-3.448 -0.78,-5.052 -0.328,-1.62533 -0.72267,-3.24133 -1.25867,-4.81066 -0.53866,-1.576 -1.364,-3.01067 -1.96933,-4.544 -0.38667,-0.976 -0.49733,-1.948 -0.68667,-2.968 -0.0507,-0.27467 -0.83733,-2.04667 -0.68933,-2.19334 0,0 -2.496,2.74534 -2.496,2.74534 0,0 0.99867,16.09733 0.624,19.34133 -0.376,3.24533 -1.37467,9.73333 -1.37467,9.73333 z" /><path
     id="path3"
     style="stroke-width:1.33333;fill:#000000;fill-opacity:1"
     d="M 326.75 124.70703 C 324.63 126.91237 322.51258 129.11694 320.39258 131.32227 C 319.72992 132.01159 318.12957 133.28438 317.74023 134.12305 C 317.00158 135.71105 317.02627 138.03385 317.46094 139.72852 C 318.08627 142.16451 319.69863 144.23963 320.5293 146.79297 C 320.88263 147.87963 321.16727 149.05248 321.58594 150.11914 C 322.21394 151.71914 323.88891 155.30891 325.12891 156.62891 C 327.0329 158.6569 328.32072 158.72363 329.63672 161.01562 C 331.15406 163.65829 329.34694 166.32572 327.34961 168.40039 C 326.01494 169.78705 324.53912 170.53111 322.70312 171.28711 C 321.73646 171.68577 319.88088 174.13536 318.93555 174.58203 C 318.50222 174.78603 315.88096 175.69921 315.51562 175.56055 C 315.51562 175.56055 317.27115 176.43208 321.83984 173.63281 C 321.84032 173.63252 321.84132 173.63311 321.8418 173.63281 C 322.74381 173.60314 323.83442 173.62511 324.10742 173.88086 C 324.59142 174.33552 326.12888 173.65278 326.93555 172.80078 C 327.58458 172.11641 327.86722 170.66147 327.24219 170.43945 C 328.18458 169.90923 329.07387 169.36143 329.72266 168.78906 C 331.21332 167.47306 332.72234 164.87196 332.40234 162.89062 C 332.01034 160.4613 329.66051 157.8004 327.72852 156.31641 C 325.81118 154.84307 324.5743 151.96029 323.6543 149.76562 C 321.93563 145.66696 320.94339 143.2499 319.13672 139.39258 C 318.55539 138.15125 318.48769 137.11764 318.67969 135.82031 C 319.01036 133.59231 321.18474 131.28776 322.55273 129.62109 C 323.92073 127.95443 325.538 126.4897 326.75 124.70703 z M 301.30859 164.92969 C 301.30959 164.92869 293.27103 172.6512 303.56836 173.7832 C 303.56836 173.7832 296.92194 171.28168 301.30859 164.92969 z M 315.48047 169.67773 C 313.02203 169.69489 309.80162 170.18571 307.6582 170.85156 C 304.48221 171.83823 305.24354 173.39265 307.6582 173.33398 C 310.53953 173.26198 315.45469 173.40316 311.69336 174.70312 C 311.69336 174.70312 318.3686 172.85678 318.94727 170.93945 C 319.22664 170.01508 317.64968 169.6626 315.48047 169.67773 z " /></g><g
   inkscape:groupmode="layer"
   id="layer2"
   inkscape:label="Bolian Seam"><path
     style="color:#000000;fill:#000000;-inkscape-stroke:none"
     d="m 313.60742,133.92383 c 0.72732,4.82521 4.63972,14.87494 6.61962,19.67282 1.8083,4.38204 5.04371,7.05041 5.48202,8.99032 0.47197,2.08893 -0.52264,3.57479 -1.13827,4.85928 -0.12205,0.25466 -0.34965,0.73344 -0.73047,1.21485 -0.38083,0.48141 -0.87618,1.08741 -1.29638,1.60162 -0.90525,1.10778 -1.69526,1.76076 -1.60499,1.86323 0,0 0.83415,-0.56593 1.96918,-1.49906 0.52801,-0.43408 1.148,-0.94997 1.55914,-1.4697 0.41114,-0.51972 0.66688,-1.03788 0.875,-1.50195 0.63826,-1.42319 1.63379,-3.08747 1.14608,-5.24601 -0.52137,-2.30757 -3.80099,-4.93969 -5.50741,-9.08407 -1.89595,-4.6047 -5.85526,-14.69571 -6.5825,-19.52047 C 313.67602,129.01177 314,125 314,125 c 0,0 -1.12468,4.06677 -0.39258,8.92383 z"
     id="path6062"
     sodipodi:nodetypes="sssssscsssssscs" /><path
     style="color:#000000;fill:#000000;fill-opacity:0.2;-inkscape-stroke:none"
     d="m 312,125 c 0,0 -1.04525,3.89825 -0.31315,8.75531 0.72731,4.82521 4.35336,15.00338 6.61962,19.67282 2.15432,4.4388 5.04176,7.02546 5.48006,8.99032 0.46626,2.09021 -0.24477,3.60157 -0.99554,4.98162 -0.13496,0.24806 -0.40886,0.75383 -0.78968,1.23524 -0.38083,0.48141 -0.81147,1.02772 -1.22098,1.55048 -0.8198,1.04651 -1.30683,1.98069 -1.38002,1.92145 l 0.1939,0.1804 c 0,0 1.03155,-0.62651 1.99806,-1.59334 0.48326,-0.48341 0.89988,-1.03777 1.31102,-1.5575 0.41114,-0.51972 0.72423,-1.02912 0.95656,-1.48156 0.69942,-1.36203 1.63378,-3.08747 1.14608,-5.24601 -0.52137,-2.30757 -3.45692,-4.65134 -5.50936,-9.08407 -2.09232,-4.51886 -5.85331,-14.69571 -6.58055,-19.52047 C 312.1936,129.01177 313.1,125 313.1,125 Z"
     id="path6064"
     sodipodi:nodetypes="cssssssccsssssscc" /></g></svg>
