<?xml version="1.0" encoding="UTF-8" standalone="no"?>
<!-- Created with Inkscape (http://www.inkscape.org/) -->

<svg
   version="1.1"
   id="svg24601"
   width="400"
   height="400"
   viewBox="0 0 400 400"
   sodipodi:docname="Nose8.svg"
   inkscape:version="1.2.2 (b0a8486, 2022-12-01)"
   xmlns:inkscape="http://www.inkscape.org/namespaces/inkscape"
   xmlns:sodipodi="http://sodipodi.sourceforge.net/DTD/sodipodi-0.dtd"
   xmlns="http://www.w3.org/2000/svg"
   xmlns:svg="http://www.w3.org/2000/svg">
  <defs
     id="defs24605" />
  <sodipodi:namedview
     id="namedview24603"
     pagecolor="#ffffff"
     bordercolor="#666666"
     borderopacity="1.0"
     inkscape:showpageshadow="2"
     inkscape:pageopacity="0.0"
     inkscape:pagecheckerboard="0"
     inkscape:deskcolor="#d1d1d1"
     showgrid="false"
     inkscape:zoom="2.28"
     inkscape:cx="200"
     inkscape:cy="200"
     inkscape:window-width="1871"
     inkscape:window-height="1132"
     inkscape:window-x="2087"
     inkscape:window-y="103"
     inkscape:window-maximized="0"
     inkscape:current-layer="layer6">
    <inkscape:page
       x="0"
       y="0"
       id="page24607"
       width="400"
       height="400" />
  </sodipodi:namedview>
  <g
     id="g24609"
     inkscape:groupmode="layer"
     inkscape:label="Nose">
    <path
       d="m 325.72386,166.61187 c -1.44267,3.12934 -4.58933,4.448 -7.89067,4.276 -1.58533,-0.0827 -3.204,-0.48 -4.82133,-0.76133 -1.536,-0.268 -3.11067,-0.43867 -4.616,-0.076 -1.29733,0.31067 -2.82533,1.13867 -3.93333,-0.124 -0.504,-0.57467 -0.60534,-1.41067 -0.48,-2.16533 0.26266,-1.57734 1.33466,-2.76667 2.21466,-4.02934 1.068,-1.53066 1.75334,-3.17466 2.05067,-5.02266 0.66533,-4.128 -0.27867,-8.27867 -1.00133,-12.328 -0.62267,-3.492 -1.244,-6.992 -1.95467,-10.47334 -0.20933,-1.03066 -0.42133,-2.06133 -0.64267,-3.08933 l -2.496,2.74533 c 0.31467,2.248 0.612,4.49867 0.9,6.75067 0.3,2.35067 0.632,4.696 0.90134,7.05067 0.59866,5.236 0.90266,10.46666 -1.048,15.476 -0.436,1.12133 -0.964,2.216 -1.21867,3.392 -0.82133,3.80133 2.15867,5.30666 5.01067,6.79066 1.76933,0.92134 5.564,3.344 6.93466,5.83734 1.372,2.49466 2.86934,0.624 4.11734,-1.12267 2.37466,-3.324 7.45866,-4.95333 8.35333,-9.236 0.304,-1.45067 0.0427,-2.54933 -0.38,-3.89067"
       style="opacity:0.199997;fill:#000000;fill-opacity:1;fill-rule:nonzero;stroke:none;stroke-width:1.33333"
       id="path30915" />
    <path
       d="m 301.84773,168.76027 c 0.0253,-0.0387 0.0347,-0.0893 0.0667,-0.12133 -0.036,0.036 -0.0573,0.076 -0.0667,0.12133"
       style="opacity:0.199997;fill:#000000;fill-opacity:1;fill-rule:nonzero;stroke:none;stroke-width:1.33333"
       id="path30931" />
    <path
       d="m 319.60826,155.41414 c 0.53067,0.456 1.23733,1.676 2.21467,2.65733 2.34533,2.352 4.36933,3.96134 4.84,7.828 0.11733,0.968 0.43733,4.47334 -3.808,7.368 -2.528,1.724 -4.40934,2.368 -5.70534,2.5 -1.51733,0.88534 -3.164,1.95334 -3.164,1.95334 0.264,-0.59067 0.58267,-1.292 1.028,-1.76534 0.16667,-0.17733 1.83067,-1.42266 1.832,-1.42266 -1.596,-1.11334 -5.168,1.26533 -6.672,1.176 -1.484,-0.0893 -2.55466,-2.21467 -4.02933,-2.508 -0.18667,-0.0373 0.77067,-0.76667 0.82933,-0.808 1.00134,-0.684 2.46667,-1.27467 3.692,-1.03734 0.804,0.156 1.47734,0.67867 2.18134,1.09734 2.56266,1.52133 5.31066,1.30933 7.92266,0.0707 2.24267,-1.06266 3.94534,-2.92933 3.94534,-5.52266 -10e-4,-4.68134 -3.63067,-7.436 -5.10667,-11.58667"
       style="fill:#000000;fill-opacity:1;fill-rule:nonzero;stroke:none;stroke-width:1.33333"
       id="path30941" />
    <path
       d="m 318.33079,134.11441 c 1.47734,-3.48267 8.444,-9.38267 8.44534,-9.384 -2.024,1.976 -3.96934,4.272 -5.50267,6.64666 -1.096,1.69867 -3.464,6.45734 -4.00933,12.17334 -0.388,-2.80134 -1.54534,-3.27867 1.06666,-9.436"
       style="fill:#000000;fill-opacity:1;fill-rule:nonzero;stroke:none;stroke-width:1.33333"
       id="path30945" />
    <path
       d="m 304.11986,173.43094 c 0,0 -3.09467,-2.99333 -0.95333,-9.744 0,0 -5.66534,7.38533 0.95333,9.744"
       style="fill:#000000;fill-opacity:1;fill-rule:nonzero;stroke:none;stroke-width:1.33333"
       id="path30949" />
    <path
       d="m 318.69866,175.00227 c 0,0 1.83467,-0.25333 2.124,0.152 0.464,0.648 2.016,-1.10266 2.34267,-1.428 0.308,-0.30666 0.496,-0.69466 0.79866,-1.036 0.19734,-0.22133 0.77734,-0.70533 0.50667,-1.06666 -0.23867,-0.32 -0.96667,0.0627 -1.18667,0.192 -0.50266,0.29333 -1.05333,0.50666 -1.556,0.79733 -0.47333,0.27333 -0.90266,0.68533 -1.33066,1.02533 -0.4,0.31734 -0.79867,0.63734 -1.196,0.95734 -0.10534,0.0853 -0.364,0.388 -0.50267,0.40666"
       style="fill:#000000;fill-opacity:1;fill-rule:nonzero;stroke:none;stroke-width:1.33333"
       id="path30953" />
  </g>
  <g
     inkscape:groupmode="layer"
     id="layer6"
     inkscape:label="Bolian Seam">
    <path
       style="color:#000000;fill:#000000;-inkscape-stroke:none"
       d="m 313.60742,133.92383 c 0.72732,4.82521 1.53273,15.11914 3.29705,20.00041 1.75063,4.8434 3.76677,6.82962 4.20508,8.76953 0.47197,2.08893 0.4752,3.52281 0.0838,4.97042 -0.36301,1.04802 -0.85906,1.83171 -1.58826,2.76165 -0.7292,0.92994 -1.36631,1.76076 -1.27604,1.86323 0,0 0.66362,-0.47616 1.64023,-1.49906 0.97661,-1.0229 1.46301,-1.87262 1.99555,-2.91683 0.43437,-1.6067 0.41167,-3.19861 -0.076,-5.35715 -0.52137,-2.30757 -2.52405,-4.1422 -4.23047,-8.86328 -1.69273,-4.68322 -2.53269,-15.0233 -3.25993,-19.84806 C 313.67602,129.01177 314,125 314,125 c 0,0 -1.12468,4.06677 -0.39258,8.92383 z"
       id="path6062"
       sodipodi:nodetypes="sssczczcssscs" />
    <path
       style="color:#000000;fill:#000000;fill-opacity:0.2;-inkscape-stroke:none"
       d="m 312,125 c 0,0 -1.04525,3.89825 -0.31315,8.75531 0.72731,4.82521 1.53273,15.11914 3.29705,20.00041 1.75063,4.8434 3.76482,6.82962 4.20312,8.76953 0.47198,2.08893 0.47521,3.52281 0.0838,4.97042 -0.40717,0.99956 -0.799,1.97199 -1.37452,2.9903 -0.57551,1.01832 -1.0327,1.84363 -1.10589,1.78439 l 0.1939,0.1804 c 0,0 0.78831,-0.82961 1.66911,-1.75781 0.8808,-0.9282 1.32975,-1.91167 1.82899,-2.81977 0.4961,-1.58872 0.41166,-3.19861 -0.076,-5.35715 -0.52137,-2.30757 -2.526,-4.1422 -4.23242,-8.86328 -1.69274,-4.68322 -2.53074,-15.0233 -3.25798,-19.84806 C 312.1936,129.01177 313.1,125 313.1,125 Z"
       id="path6064"
       sodipodi:nodetypes="csssczcczcssscc" />
  </g>
</svg>
