<?xml version="1.0" encoding="UTF-8" standalone="no"?>
<!-- Created with Inkscape (http://www.inkscape.org/) -->

<svg
   version="1.1"
   id="svg56824"
   width="400"
   height="400"
   viewBox="0 0 400 400"
   sodipodi:docname="Nose2.svg"
   inkscape:version="1.2.2 (b0a8486, 2022-12-01)"
   xmlns:inkscape="http://www.inkscape.org/namespaces/inkscape"
   xmlns:sodipodi="http://sodipodi.sourceforge.net/DTD/sodipodi-0.dtd"
   xmlns="http://www.w3.org/2000/svg"
   xmlns:svg="http://www.w3.org/2000/svg">
  <defs
     id="defs56828" />
  <sodipodi:namedview
     id="namedview56826"
     pagecolor="#ffffff"
     bordercolor="#666666"
     borderopacity="1.0"
     inkscape:showpageshadow="2"
     inkscape:pageopacity="0.0"
     inkscape:pagecheckerboard="0"
     inkscape:deskcolor="#d1d1d1"
     showgrid="false"
     inkscape:zoom="4.17193"
     inkscape:cx="282.96256"
     inkscape:cy="147.65348"
     inkscape:window-width="1440"
     inkscape:window-height="810"
     inkscape:window-x="2687"
     inkscape:window-y="365"
     inkscape:window-maximized="0"
     inkscape:current-layer="layer2">
    <inkscape:page
       x="0"
       y="0"
       id="page56830"
       width="400"
       height="400" />
  </sodipodi:namedview>
  <g
     id="g56832"
     inkscape:groupmode="layer"
     inkscape:label="Page 1">
    <path
       d="m 301.40426,164.63894 c 1.18267,-3.27867 4.23467,-4.08533 6.73067,-4.08533 2.496,0 -3.48667,-27.73467 -3.48667,-27.73467 l -2.49467,2.74533 c 0,0 0.99734,16.09734 0.62267,19.34134 -0.37333,3.244 -1.372,9.73333 -1.372,9.73333"
       style="opacity:0.199997;fill:#000000;fill-opacity:1;fill-rule:nonzero;stroke:none;stroke-width:1.33333"
       id="path60138" />
    <path
       d="m 301.40426,172.50054 c 0,0 10.60667,-4.86667 18.968,-4.368 8.36,0.5 6.488,1.748 6.488,1.748 l -1.12267,3.992 c 0,0 -6.73866,4.11867 -7.98666,5.86533 -1.248,1.74667 -2.74534,3.61867 -4.11734,1.12267 -1.37333,-2.49467 -6.156,-4.95733 -8.236,-5.98933 -2.08133,-1.032 -3.99333,-2.37067 -3.99333,-2.37067"
       style="opacity:0.199997;fill:#000000;fill-opacity:1;fill-rule:nonzero;stroke:none;stroke-width:1.33333"
       id="path60154" />
    <path
       d="m 312.07493,174.62107 c 0,0 4.37866,-1.72 4.692,-3.128 0.31333,-1.408 -4.692,-1.408 -8.28934,-0.46933 -3.59733,0.93867 -2.65866,2.65867 0,2.50267 2.65867,-0.156 6.256,-0.156 3.59734,1.09466"
       style="fill:#000000;fill-opacity:1;fill-rule:nonzero;stroke:none;stroke-width:1.33333"
       id="path60164" />
    <path
       d="m 328.71373,164.38681 c -0.20534,-14.27467 -9.484,-28.15867 -8.66267,-30.42934 0.92933,-2.568 6.72533,-9.22666 6.72533,-9.22666 0,0 -9.084,8.09066 -8.44533,9.384 3.17867,6.43733 8.26667,25.92533 8.28933,31.748 0.004,1.13866 -1.408,5.16133 -4.38,6.412 -2.116,0.89066 -4.62,2.17466 -5.892,2.84266 -0.25066,0.0187 -0.468,0.0747 -0.83333,0.44134 -0.82267,0.832 -1.52933,2.34533 -1.52933,2.34533 0,0 1.93866,-1.2 3.72533,-2.19467 1.52667,-0.148 3.80533,-0.78533 6.71867,-2.80933 5.63066,-3.90933 4.3,-7.41867 4.284,-8.51333"
       style="fill:#000000;fill-opacity:1;fill-rule:nonzero;stroke:none;stroke-width:1.33333"
       id="path60168" />
    <path
       d="m 303.31679,173.83907 c 0,0 -4.22266,-2.81466 -3.128,-7.50666 0,0 -4.848,6.88133 3.128,7.50666"
       style="fill:#000000;fill-opacity:1;fill-rule:nonzero;stroke:none;stroke-width:1.33333"
       id="path60172" />
    <path
       d="m 321.59559,174.14801 c 0,0 2.16,-0.284 2.50134,0.17066 0.34133,0.45467 1.42133,-0.228 1.98933,-1.08 0.568,-0.85333 0.73867,-2.89866 -0.228,-2.27333 -0.96533,0.62533 -4.26267,3.18267 -4.26267,3.18267"
       style="fill:#000000;fill-opacity:1;fill-rule:nonzero;stroke:none;stroke-width:1.33333"
       id="path60176" />
  </g>
  <g
     inkscape:groupmode="layer"
     id="layer2"
     inkscape:label="Bolian Seam">
    <path
       style="color:#000000;fill:#000000;-inkscape-stroke:none"
       d="m 315.40515,133.68413 c 0.72732,4.82521 4.89255,14.83683 6.4782,19.77903 1.58114,4.92815 1.11857,7.5457 1.19733,9.54553 0.0843,2.13993 -0.60854,3.27292 -1.11974,4.60068 -0.10146,0.26354 -0.34965,0.73344 -0.73047,1.21485 -0.38083,0.48141 -0.87618,1.08741 -1.29638,1.60162 -0.90525,1.10778 -1.69526,1.76076 -1.60499,1.86323 0,0 0.83415,-0.56593 1.96918,-1.49906 0.52801,-0.43408 1.148,-0.94997 1.55914,-1.4697 0.41114,-0.51972 0.67181,-1.0357 0.875,-1.50195 0.67407,-1.54678 1.16401,-2.77475 1.12755,-4.98741 -0.042,-2.54726 0.27188,-4.87583 -1.22272,-9.63928 -1.49081,-4.75135 -5.71384,-14.80192 -6.44108,-19.62668 C 315.47375,128.77207 314,125 314,125 c 0,0 0.67305,3.82707 1.40515,8.68413 z"
       id="path6062"
       sodipodi:nodetypes="sssssscsssssscs" />
    <path
       style="color:#000000;fill:#000000;fill-opacity:0.2;-inkscape-stroke:none"
       d="m 312,125 c 0,0 0.8124,3.65855 1.5445,8.51561 0.72731,4.82521 4.43417,14.25548 6.08355,19.17678 1.66589,4.97052 1.39142,7.60863 1.47018,9.66839 0.0818,2.14002 -0.66846,3.63246 -1.05982,5.08007 -0.0737,0.27261 -0.34769,0.73344 -0.72851,1.21485 -0.38083,0.48141 -0.72991,1.17045 -1.13942,1.69321 -0.8198,1.04651 -1.30683,1.98069 -1.38002,1.92145 l 0.1939,0.1804 c 0,0 1.03155,-0.62651 1.99806,-1.59334 0.48326,-0.48341 0.98144,-1.01738 1.39258,-1.53711 0.41114,-0.51972 0.74227,-1.01097 0.875,-1.50195 0.43436,-1.6067 1.10787,-3.25422 1.06763,-5.4668 -0.042,-2.30757 0.1222,-4.95631 -1.49948,-9.76214 -1.59216,-4.71836 -5.31724,-14.19967 -6.04448,-19.02443 C 314.05125,128.77207 313.1,125 313.1,125 Z"
       id="path6064"
       sodipodi:nodetypes="cssssssccsssssscc" />
  </g>
</svg>
