<?xml version="1.0" encoding="UTF-8" standalone="no"?>
<!-- Created with Inkscape (http://www.inkscape.org/) -->

<svg
   version="1.1"
   id="svg80331"
   width="400"
   height="400"
   viewBox="0 0 400 400"
   sodipodi:docname="Nose6.svg"
   inkscape:version="1.2.2 (b0a8486, 2022-12-01)"
   xmlns:inkscape="http://www.inkscape.org/namespaces/inkscape"
   xmlns:sodipodi="http://sodipodi.sourceforge.net/DTD/sodipodi-0.dtd"
   xmlns="http://www.w3.org/2000/svg"
   xmlns:svg="http://www.w3.org/2000/svg">
  <defs
     id="defs80335" />
  <sodipodi:namedview
     id="namedview80333"
     pagecolor="#ffffff"
     bordercolor="#666666"
     borderopacity="1.0"
     inkscape:showpageshadow="2"
     inkscape:pageopacity="0.0"
     inkscape:pagecheckerboard="0"
     inkscape:deskcolor="#d1d1d1"
     showgrid="false"
     inkscape:zoom="66.75088"
     inkscape:cx="318.20554"
     inkscape:cy="173.99022"
     inkscape:window-width="1440"
     inkscape:window-height="810"
     inkscape:window-x="2489"
     inkscape:window-y="32"
     inkscape:window-maximized="0"
     inkscape:current-layer="layer6">
    <inkscape:page
       x="0"
       y="0"
       id="page80337"
       width="400"
       height="400" />
  </sodipodi:namedview>
  <g
     id="g80339"
     inkscape:groupmode="layer"
     inkscape:label="Page 1">
    <path
       d="m 300.44053,163.28467 c 0.70533,-1.84666 2.64133,-2.932 4.45466,-3.39466 1.98667,-0.508 6.47334,-1.91067 4.83734,-4.832 -0.46,-0.82134 -1.216,-1.44934 -1.66667,-2.276 -0.53733,-0.98534 -0.592,-2.16267 -0.47867,-3.27867 0.11467,-1.12533 0.48667,-2.292 0.436,-3.42533 -0.0507,-1.148 -0.62266,-2.23467 -1.16133,-3.22134 -0.672,-1.23066 -0.59867,-2.25466 -0.76933,-3.552 -0.192,-1.46666 -0.63467,-2.94533 -0.96134,-4.38933 -0.048,-0.21333 -0.63333,-1.93067 -0.48266,-2.09733 0,0.001 -2.496,2.74533 -2.496,2.74533 0,0 0.99866,16.09733 0.624,19.34267 -0.37334,3.244 -2.336,8.37733 -2.336,8.37866"
       style="opacity:0.199997;fill:#000000;fill-opacity:1;fill-rule:nonzero;stroke:none;stroke-width:1.33333"
       id="path83417" />
    <path
       d="m 301.40426,172.50054 c 0.0787,0.0667 1.30667,-0.55867 1.41733,-0.60267 1.00267,-0.408 2.13734,-0.56 2.99067,-1.236 0.74667,-0.59066 1.58533,-1.05733 2.352,-1.62933 1.392,-1.03733 3.09733,-0.872 4.72,-0.87067 2.75067,0.004 5.41867,0.80534 8.16533,0.79067 2.08667,-0.012 3.92134,-0.52933 5.53334,-1.84667 0.488,-0.39866 0.64933,0.084 0.784,0.484 0.15333,0.45467 0.50266,0.74267 0.604,1.224 0.42933,2.04667 -0.988,4.73334 -2.644,5.87467 -2.41734,1.66667 -5.772,2.524 -7.576,5.04933 -1.248,1.74667 -2.74534,3.61867 -4.11734,1.12267 -1.37333,-2.49467 -6.424,-4.88267 -8.504,-5.91467 -2.08133,-1.03333 -3.72533,-2.44533 -3.72533,-2.44533"
       style="opacity:0.199997;fill:#000000;fill-opacity:1;fill-rule:nonzero;stroke:none;stroke-width:1.33333"
       id="path83433" />
    <path
       d="m 312.07493,174.62107 c 0,0 4.37866,-1.72 4.692,-3.128 0.31333,-1.408 -4.692,-1.408 -8.28934,-0.46933 -3.59733,0.93867 -2.65866,2.65867 0,2.50267 2.65867,-0.156 6.256,-0.156 3.59734,1.09466"
       style="fill:#000000;fill-opacity:1;fill-rule:nonzero;stroke:none;stroke-width:1.33333"
       id="path83443" />
    <path
       d="m 318.33079,134.11441 c 0.44534,-1.37067 8.44534,-9.384 8.44534,-9.384 0,0 -5.708,6.69333 -6.72534,9.228 -1.02533,2.55333 -1.64266,8.22533 0.17467,9.89866 1.81733,1.67334 3.38267,6.956 3.936,9.64267 0.55333,2.68533 4.184,5.78667 4.552,10.88667 0.124,1.72133 1.34667,4.604 -4.28267,8.51466 -2.91466,2.02267 -5.19333,2.66 -6.72,2.808 -1.78533,0.99467 -3.72533,2.19467 -3.72533,2.19467 0,0 0.70667,-1.51333 1.53067,-2.344 0.364,-0.368 0.58266,-0.42267 0.832,-0.44267 1.272,-0.668 3.77733,-1.95066 5.892,-2.84133 2.972,-1.252 4.488,-5.28 4.38,-6.41333 -0.24667,-2.56534 -0.53334,-6.53734 -3.18267,-8.68 -1.352,-1.09467 -1.64667,-8.17867 -3.78,-11.43734 -2.132,-3.25866 -2.65333,-7.54933 -1.32667,-11.63066"
       style="fill:#000000;fill-opacity:1;fill-rule:nonzero;stroke:none;stroke-width:1.33333"
       id="path83447" />
    <path
       d="m 303.35933,173.90014 c 0,0 -4.84,-3.60267 -3.58534,-9.60667 0,0 -5.55866,8.80667 3.58534,9.60667"
       style="fill:#000000;fill-opacity:1;fill-rule:nonzero;stroke:none;stroke-width:1.33333"
       id="path83451" />
    <path
       d="m 321.59559,174.14801 c 0,0 2.16,-0.284 2.50134,0.17066 0.34133,0.45467 1.42133,-0.228 1.98933,-1.08 0.568,-0.85333 0.73867,-2.89866 -0.228,-2.27333 -0.96533,0.62533 -4.26267,3.18267 -4.26267,3.18267"
       style="fill:#000000;fill-opacity:1;fill-rule:nonzero;stroke:none;stroke-width:1.33333"
       id="path83455" />
  </g>
  <g
     inkscape:groupmode="layer"
     id="layer6"
     inkscape:label="Bolian Seam">
    <path
       style="color:#000000;fill:#000000;-inkscape-stroke:none"
       d="m 313.78294,133.64176 c 0.14774,1.63337 0.51764,4.54837 1.19051,6.95243 0.49905,1.78302 1.09965,3.3242 2.12917,4.90136 1.49127,2.28452 2.37751,5.92623 2.74382,8.50092 0.23538,1.65441 1.11523,3.66442 1.68688,4.45739 1.39177,1.93066 1.70288,3.26791 1.75621,4.62204 0.0843,2.13993 -0.90515,3.40003 -1.67059,4.43118 -0.16832,0.22675 -0.68562,0.87811 -1.06644,1.35952 -0.38083,0.48141 -0.87618,1.08741 -1.29638,1.60162 -0.90525,1.10778 -1.57115,1.77317 -1.48088,1.87564 0,0 0.71004,-0.57834 1.84507,-1.51147 0.52801,-0.43408 1.148,-0.94997 1.55914,-1.4697 0.41114,-0.51972 0.91186,-1.23527 1.21097,-1.64662 0.97068,-1.33491 1.71488,-2.60525 1.6784,-4.81791 -0.0272,-1.65147 -0.34618,-2.95691 -1.66669,-4.62081 -0.77103,-0.97152 -1.54599,-2.81542 -1.80179,-4.55237 -0.37776,-2.56511 -1.3229,-6.08862 -2.74478,-8.48555 -0.94571,-1.59422 -1.62859,-3.06034 -2.10061,-4.82521 -0.66806,-2.49789 -1.01322,-5.27486 -1.18099,-6.8916 -0.51058,-4.92004 -0.99769,-8.56499 -0.99769,-8.56499 0,0 -0.22883,3.86944 0.20667,8.68413 z"
       id="path6062"
       sodipodi:nodetypes="ssssssssscssssssssscs" />
    <path
       style="color:#000000;fill:#000000;fill-opacity:0.2;-inkscape-stroke:none"
       d="m 311.57627,124.95763 c 0,0 0.1823,3.80322 0.40594,8.57553 0.0865,1.84569 0.61844,4.97358 1.41485,7.86607 0.48434,1.75904 0.79304,3.19209 1.83863,4.69529 1.37357,1.97472 2.02206,5.02224 2.45473,6.91203 0.54639,2.38647 1.15267,4.22545 1.88421,5.5162 0.81204,1.43278 1.82104,2.64096 1.90194,4.23694 0.117,2.308 -0.32947,2.91212 -1.31405,4.52922 -0.14686,0.24121 -0.72604,1.22436 -1.10686,1.70577 -0.38083,0.48141 -0.83584,1.12808 -1.24535,1.65084 -0.8198,1.04651 -1.18636,1.72902 -1.25955,1.66978 l 0.10915,0.13803 c 0,0 0.67803,-0.5867 1.64454,-1.55353 0.48326,-0.48341 0.98144,-1.01738 1.39258,-1.53711 0.41114,-0.51972 1.17435,-1.40616 1.46521,-1.82339 0.94284,-1.35246 1.48087,-2.61849 1.44899,-4.8312 -0.0235,-1.62726 -1.00122,-3.22879 -1.91637,-4.62693 -0.78225,-1.19511 -1.32262,-2.96119 -1.81434,-5.17759 -0.41298,-1.86146 -1.33614,-5.28842 -2.47224,-6.97849 -1.08895,-1.61992 -1.40064,-3.18661 -1.95986,-5.03497 -0.77418,-2.55888 -1.13123,-5.59483 -1.23704,-7.30758 -0.29871,-4.83529 -0.53511,-8.62491 -0.53511,-8.62491 z"
       id="path6064"
       sodipodi:nodetypes="csssssssssccssssssssscc" />
  </g>
</svg>
