<?xml version="1.0" encoding="UTF-8" standalone="no"?>
<!-- Created with Inkscape (http://www.inkscape.org/) -->

<svg
   version="1.1"
   id="svg24601"
   width="400"
   height="400"
   viewBox="0 0 400 400"
   sodipodi:docname="Nose10.svg"
   inkscape:version="1.3 (0e150ed, 2023-07-21)"
   xml:space="preserve"
   xmlns:inkscape="http://www.inkscape.org/namespaces/inkscape"
   xmlns:sodipodi="http://sodipodi.sourceforge.net/DTD/sodipodi-0.dtd"
   xmlns="http://www.w3.org/2000/svg"
   xmlns:svg="http://www.w3.org/2000/svg"><defs
     id="defs24605" /><sodipodi:namedview
     id="namedview24603"
     pagecolor="#ffffff"
     bordercolor="#666666"
     borderopacity="1.0"
     inkscape:showpageshadow="2"
     inkscape:pageopacity="0.0"
     inkscape:pagecheckerboard="0"
     inkscape:deskcolor="#d1d1d1"
     showgrid="false"
     inkscape:zoom="18.24"
     inkscape:cx="319.10636"
     inkscape:cy="170.3125"
     inkscape:window-width="1872"
     inkscape:window-height="1132"
     inkscape:window-x="2092"
     inkscape:window-y="50"
     inkscape:window-maximized="0"
     inkscape:current-layer="g54054"><inkscape:page
       x="0"
       y="0"
       id="page24607"
       width="400"
       height="400"
       margin="0"
       bleed="0" /></sodipodi:namedview><g
     id="g24609"
     inkscape:groupmode="layer"
     inkscape:label="Original Nose"
     style="display:none"><path
       d="m 301.40426,164.63894 c 1.18267,-3.27867 4.24267,-4.27733 6.73067,-4.08533 9.33466,0.71866 -1.496,-28.088 -3.48667,-27.73467 l -2.49467,2.74533 c 0,0 0.99734,16.09734 0.62267,19.34134 -0.37333,3.244 -1.372,9.73333 -1.372,9.73333"
       style="opacity:0.199997;fill:#000000;fill-opacity:1;fill-rule:nonzero;stroke:none;stroke-width:1.33333"
       id="path31031" /><path
       d="m 301.40426,172.50054 c 2.64933,-1.216 5.45733,-2.164 8.26533,-2.93333 2.40267,-0.66 4.86,-1.176 7.34667,-1.37867 2.70533,-0.22133 5.34933,0.488 8.06667,0.75067 2.09333,0.20133 2.92533,-0.39334 4.11733,-2.076 0.96,1.01333 0.624,3.184 -0.33067,4.04933 -1.028,0.93067 -2.09866,1.272 -2.97333,2.35867 -0.788,0.97733 -1.64267,1.52533 -2.69733,2.22 -1.79867,1.18533 -4.17067,2.46 -5.448,4.24666 -1.248,1.74667 -2.74534,3.61867 -4.11734,1.12267 -1.37333,-2.49467 -6.156,-4.95733 -8.236,-5.98933 -2.08133,-1.032 -3.99333,-2.37067 -3.99333,-2.37067"
       style="opacity:0.199997;fill:#000000;fill-opacity:1;fill-rule:nonzero;stroke:none;stroke-width:1.33333"
       id="path31047" /><path
       d="m 311.20306,175.31854 c 0,0 4.37867,-1.72 4.692,-3.128 0.31333,-1.408 -4.692,-1.408 -8.28933,-0.46933 -3.59734,0.93866 -2.65867,2.65866 0,2.50266 2.65866,-0.156 6.256,-0.156 3.59733,1.09467"
       style="fill:#000000;fill-opacity:1;fill-rule:nonzero;stroke:none;stroke-width:1.33333"
       id="path31057" /><path
       d="m 330.95733,165.82521 c -0.12,-8.32667 -4.09067,-17.00934 -7.21467,-23.25067 -2.232,-4.45867 -4.03333,-7.67067 -3.692,-8.616 0.92933,-2.56933 6.72533,-9.228 6.72533,-9.228 0,0 -9.084,8.09067 -8.44533,9.384 3.18,6.43733 10.688,23.11067 10.272,32.888 -0.268,6.34267 -4.19067,3.42133 -7.16267,4.672 -2.11466,0.89067 -5.56,3.51733 -5.924,3.88533 -0.824,0.83067 -1.53066,2.344 -1.53066,2.344 l 3.72533,-2.19466 c 0,0 3.568,-2.03467 7.112,-1.876 7.508,0.33333 6.15067,-6.91334 6.13467,-8.008"
       style="fill:#000000;fill-opacity:1;fill-rule:nonzero;stroke:none;stroke-width:1.33333"
       id="path31061" /><path
       d="m 303.31679,173.83907 c 0,0 -4.22266,-2.81466 -3.128,-7.50666 0,0 -4.848,6.88133 3.128,7.50666"
       style="fill:#000000;fill-opacity:1;fill-rule:nonzero;stroke:none;stroke-width:1.33333"
       id="path31065" /><path
       d="m 323.52466,171.29627 c 0,0 -3.748,0.43334 -7.13333,-0.77066 0,0 5.44533,3.11066 7.8,2.82533 2.35466,-0.28667 4.69466,-2.18533 -0.66667,-2.05467"
       style="fill:#000000;fill-opacity:1;fill-rule:nonzero;stroke:none;stroke-width:1.33333"
       id="path31069" /><path
       d="m 320.63973,173.68854 c -0.224,0.044 -0.69867,0.28533 -0.808,0.50933 -0.17334,0.35334 0.19466,0.55067 0.49333,0.71334 1.34667,0.73066 2.808,0.13333 4.152,-0.25334 0.53467,-0.15333 1.09467,-0.28533 1.572,-0.56 0.268,-0.15466 0.63333,-0.308 0.784,-0.59333 0.33467,-0.636 -1.024,-0.73867 -1.43867,-0.79067 -0.80266,-0.1 -1.66133,0.0387 -2.44,0.19067 -0.43733,0.0853 -0.94533,0.0827 -1.35333,0.252 -0.30267,0.12667 -0.65067,0.472 -0.96133,0.532"
       style="fill:#000000;fill-opacity:1;fill-rule:nonzero;stroke:none;stroke-width:1.33333"
       id="path31073" /></g><g
     id="g54054"
     inkscape:groupmode="layer"
     inkscape:label="Revised Nose"><path
       d="m 306.76593,158.07709 c 2.39777,-0.16513 5.49686,2.63316 5.71628,2.11487 2.12568,-5.02108 -7.05565,-27.6763 -7.83395,-27.37302 l -2.49467,2.74533 c 0,0 0.55874,13.62082 0.18407,16.86482 -0.37333,3.244 -1.372,9.73333 -1.372,9.73333 1.18267,-3.27867 3.40249,-3.9202 5.80027,-4.08533 z"
       style="opacity:0.199997;fill:#000000;fill-opacity:1;fill-rule:nonzero;stroke:none;stroke-width:1.33333"
       id="path54040"
       sodipodi:nodetypes="zsccccz" /><path
       d="m 310.25774,170.9917 c 2.63527,0.7356 4.32225,2.01167 7.03655,2.7306 2.71429,0.71893 6.31993,0.20876 8.84199,-1.11013 2.52207,-1.3189 3.93328,-4.58016 4.89267,-6.80555 0.21253,1.70508 0.1921,4.45279 -1.18354,6.68547 -1.91842,2.08584 -3.37017,5.03149 -5.43805,6.43948 -1.79867,1.18533 -2.7732,2.77319 -5.29294,4.32419 -2.51973,1.551 -4.14094,1.13759 -5.82308,-1.04827 -1.37333,-2.49467 -6.33871,-6.88911 -8.23599,-8.08275 -1.89728,-1.19364 -4.76867,-4.38653 -4.76867,-4.38653 2.64933,-1.216 6.62033,0.0845 9.97106,1.25349 z"
       style="opacity:0.199997;fill:#000000;fill-opacity:1;fill-rule:nonzero;stroke:none;stroke-width:1.33333"
       id="path54042"
       sodipodi:nodetypes="czzccczczcc" /><path
       d="m 299.42286,163.31249 c 0,0 -4.848,6.88133 3.128,7.50666 0,0 -5.4632,-1.65166 -3.128,-7.50666 z"
       style="fill:#000000;fill-opacity:1;fill-rule:nonzero;stroke:none;stroke-width:1.33333"
       id="path54048"
       sodipodi:nodetypes="ccc" /><path
       id="path54168"
       style="fill:#000000;fill-opacity:1;stroke:none;stroke-width:1px;stroke-linecap:butt;stroke-linejoin:miter;stroke-opacity:1"
       d="m 323.79702,142.46457 c -1.99299,-4.54831 -4.08757,-7.56026 -3.74624,-8.50559 0.92933,-2.56932 6.72461,-9.22851 6.72461,-9.22851 0,0 -9.08398,8.09144 -8.44531,9.38476 4.42393,9.78944 6.62944,14.41904 9.97785,25.76303 0.6456,2.10397 1.21091,6.11234 0.66568,7.94444 -0.54427,1.82886 -1.09725,3.1944 -2.34871,4.70294 -1.25146,1.50854 -1.87833,3.05659 -3.69729,4.09598 -1.58273,0.9044 -3.01213,0.36735 -4.65202,0.21379 -1.63989,-0.15356 -4.96215,-1.55067 -4.96215,-1.55067 0,0 1.85236,1.36825 3.25641,2.07459 1.4903,0.74973 3.08494,1.82325 5.38194,1.30477 2.297,-0.51848 4.06257,-3.39362 5.77188,-5.26838 1.70931,-1.87476 2.94528,-3.74004 2.97288,-6.38209 0.0276,-2.64205 -1.02196,-7.54767 -2.10313,-11.15634 -1.3156,-4.39115 -2.80341,-8.84441 -4.7964,-13.39272 z"
       sodipodi:nodetypes="zccccsssscssszsz" /><path
       style="fill:#000000;fill-opacity:1;stroke:none;stroke-width:1px;stroke-linecap:butt;stroke-linejoin:miter;stroke-opacity:1"
       d="m 303.00146,170.3414 c 0.0716,-0.85829 2.57766,-0.17151 3.95422,0.0775 1.37656,0.24901 2.82604,0.87747 4.18681,1.47313 1.36077,0.59566 2.88718,1.44711 3.95422,2.09341 1.06704,0.6463 2.7109,1.38855 2.48107,1.70574 -0.22983,0.31719 -1.9914,-0.82362 -3.10134,-1.31806 -1.10994,-0.49444 -2.15672,-1.09797 -3.48902,-1.70575 -1.3323,-0.60778 -3.16077,-1.17315 -4.49695,-1.55067 -1.33618,-0.37752 -3.56061,0.083 -3.48901,-0.7753 z"
       id="path55718"
       sodipodi:nodetypes="zzzzzzzzz" /><path
       style="fill:#000000;fill-opacity:1;stroke:none;stroke-width:1px;stroke-linecap:butt;stroke-linejoin:miter;stroke-opacity:1"
       d="m 328.61842,172.4106 c 0,0 2.74475,-2.59861 3.17983,-4.05701 0.43508,-1.4584 -0.52727,-3.48559 -0.98685,-4.93421 -0.45958,-1.44862 -1.8092,-4.92157 -1.8092,-4.92157 0,0 0.97346,3.58489 1.31579,4.97639 0.34233,1.3915 0.86086,3.08523 0.54825,4.66009 -0.31261,1.57486 -2.24782,4.27631 -2.24782,4.27631 z"
       id="path57998"
       sodipodi:nodetypes="czzczzc" /></g><g
     inkscape:groupmode="layer"
     id="layer4"
     inkscape:label="Bolian Seam"><path
       style="color:#000000;fill:#000000;-inkscape-stroke:none"
       d="m 315.40515,133.68413 c 0.72732,4.82521 6.86623,17.59364 8.45188,22.53584 1.58114,4.92815 1.65264,7.54802 1.52822,9.54553 -0.135,2.16734 -0.66806,3.35045 -1.17926,4.67821 -0.10146,0.26354 -0.34965,0.73344 -0.73047,1.21485 -0.38083,0.48141 -0.87618,1.08741 -1.29638,1.60162 -0.90525,1.10778 -1.69526,1.76076 -1.60499,1.86323 0,0 0.83415,-0.56593 1.96918,-1.49906 0.52801,-0.43408 1.148,-0.94997 1.55914,-1.4697 0.41114,-0.51972 0.67181,-1.0357 0.875,-1.50195 0.67407,-1.54678 1.14129,-2.79746 1.18707,-5.06494 0.0514,-2.54709 -0.059,-4.87583 -1.55361,-9.63928 -1.49081,-4.75135 -7.68752,-17.55873 -8.41476,-22.38349 C 315.47375,128.77207 314,125 314,125 c 0,0 0.67305,3.82707 1.40515,8.68413 z"
       id="path6062"
       sodipodi:nodetypes="sssssscsssssscs" /><path
       style="color:#000000;fill:#000000;fill-opacity:0.2;-inkscape-stroke:none"
       d="m 312,125 c 0,0 0.8124,3.65855 1.5445,8.51561 0.72731,4.82521 6.18856,16.24475 7.83794,21.16605 1.66589,4.97052 2.05449,7.74094 1.9769,9.80074 -0.0827,2.19485 -0.53046,3.84284 -0.87264,4.64813 -0.34218,0.80528 -0.58304,1.3318 -0.97993,1.91151 -0.34676,0.5065 -0.74596,1.19981 -1.15547,1.72257 -0.8198,1.04651 -1.42313,1.74809 -1.49632,1.68885 l 0.1939,0.1804 c 0,0 1.03155,-0.62651 1.99806,-1.59334 0.48326,-0.48341 0.93965,-1.03474 1.33776,-1.56452 0.41114,-0.54713 0.81094,-1.24323 1.14912,-1.96796 0.67354,-1.44342 0.9481,-2.74004 1.04492,-5.03486 0.0973,-2.3059 -0.38452,-5.08866 -2.0062,-9.89449 -1.59216,-4.71836 -7.07163,-16.18894 -7.79887,-21.0137 C 314.05125,128.77207 313.1,125 313.1,125 Z"
       id="path6064"
       sodipodi:nodetypes="cssszssccsssssscc" /></g></svg>
