<?xml version="1.0" encoding="UTF-8" standalone="no"?>
<!-- Created with Inkscape (http://www.inkscape.org/) -->

<svg
   version="1.1"
   id="svg24601"
   width="400"
   height="400"
   viewBox="0 0 400 400"
   sodipodi:docname="Nose11.svg"
   inkscape:version="1.3 (0e150ed, 2023-07-21)"
   xml:space="preserve"
   xmlns:inkscape="http://www.inkscape.org/namespaces/inkscape"
   xmlns:sodipodi="http://sodipodi.sourceforge.net/DTD/sodipodi-0.dtd"
   xmlns="http://www.w3.org/2000/svg"
   xmlns:svg="http://www.w3.org/2000/svg"><defs
     id="defs24605" /><sodipodi:namedview
     id="namedview24603"
     pagecolor="#ffffff"
     bordercolor="#666666"
     borderopacity="1.0"
     inkscape:showpageshadow="2"
     inkscape:pageopacity="0.0"
     inkscape:pagecheckerboard="0"
     inkscape:deskcolor="#d1d1d1"
     showgrid="false"
     inkscape:zoom="5.6497832"
     inkscape:cx="284.1702"
     inkscape:cy="155.66969"
     inkscape:window-width="1872"
     inkscape:window-height="1132"
     inkscape:window-x="2092"
     inkscape:window-y="25"
     inkscape:window-maximized="0"
     inkscape:current-layer="g54054"><inkscape:page
       x="0"
       y="0"
       id="page24607"
       width="400"
       height="400"
       margin="0"
       bleed="0" /></sodipodi:namedview><g
     id="g54054"
     inkscape:groupmode="layer"
     inkscape:label="Revised Nose"><path
       style="color:#000000;fill:#000000;-inkscape-stroke:none"
       d="m 296.76691,170.42873 c 0,0 0.89917,0.49473 1.92871,0.73828 0.90905,0.2067 2.36945,0.41075 3.03046,0.60419 0.661,0.19344 1.12136,0.56117 2.42254,1.12952 1.36759,0.59735 2.6267,1.22723 3.53724,1.58465 1.80561,0.70878 4.21289,1.25293 4.21289,1.25293 0,0 -2.22794,-1.05314 -4.01563,-1.75488 -0.88611,-0.34784 -2.14849,-1.06728 -3.5177,-1.66534 -1.40885,-0.61537 -2.16595,-1.04623 -2.53839,-1.18549 -0.91118,-0.27902 -2.07942,-0.27317 -3.00836,-0.49097 -1.02805,-0.24319 -2.05176,-0.21289 -2.05176,-0.21289 z"
       id="path2"
       sodipodi:nodetypes="cszsscssssc" /><path
       d="m 307.29692,157.2806 c 1.68978,1.42785 5.27928,4.43977 5.18529,3.88485 -1.06028,-6.26007 -4.93167,-28.91529 -7.65695,-29.497 l -3.55666,4.33831 c 0,0 1.53223,7.33739 1.15756,10.58139 -0.37333,3.244 -2.78798,7.87486 -2.78798,7.87486 1.18267,-3.27867 5.96897,1.38974 7.65874,2.81759 z"
       style="opacity:0.199997;fill:#000000;fill-opacity:1;fill-rule:nonzero;stroke:none;stroke-width:1.33333"
       id="path54040"
       sodipodi:nodetypes="zsccccz" /><path
       d="m 309.38034,172.40325 c 3.00911,1.31802 6.99296,1.8941 9.70725,1.63953 2.7143,-0.25456 4.54366,-0.12506 6.97722,-2.06345 1.08799,-0.86661 2.63095,-1.73615 3.81997,-2.03278 1.35263,-0.33746 3.12902,-1.46098 4.12016,-2.16075 -0.35067,1.70508 -1.6241,2.77411 -4.34542,4.71888 -2.30567,1.64772 -2.94952,2.42041 -4.77431,3.71379 -1.75744,1.24565 -3.3749,5.57479 -6.33714,6.68329 -2.96223,1.10851 -5.1002,0.33753 -7.20371,-1.44651 -2.95557,-2.5067 -4.39173,-5.16338 -6.28901,-6.35702 -1.15229,-0.72494 -6.51478,-2.95321 -10.49928,-4.88623 -2.57612,-1.24976 -4.97786,-3.59588 -4.97786,-3.59588 1.71664,0.70961 4.71083,2.94185 9.70603,3.32039 4.77584,0.36191 7.88306,1.49741 10.0961,2.46674 z"
       style="opacity:0.199997;fill:#000000;fill-opacity:1;fill-rule:nonzero;stroke:none;stroke-width:1.33333"
       id="path54042"
       sodipodi:nodetypes="szsscsszssscss" /><path
       d="m 295.09924,155.28293 c 0,0 -3.93019,1.64719 -5.8892,4.74732 -2.6002,4.11482 -2.77931,9.24525 6.28997,10.63575 0,0 -8.81674,-3.23469 -5.27828,-9.84884 0.73795,-1.37939 2.00375,-3.85571 4.87751,-5.53423 z"
       style="fill:#000000;fill-opacity:1;fill-rule:nonzero;stroke:none;stroke-width:2.16313"
       id="path54048"
       sodipodi:nodetypes="cscsc" /><path
       id="path54168"
       style="fill:#000000;fill-opacity:1;stroke:none;stroke-width:1px;stroke-linecap:butt;stroke-linejoin:miter;stroke-opacity:1"
       d="m 321.76155,142.86282 c -0.88077,-5.47474 -1.38836,-8.3125 -1.04703,-9.25783 0.92933,-2.56932 2.34391,-4.22832 2.34391,-4.22832 0,0 -4.31288,3.22568 -3.97611,4.78282 1.48527,6.86743 2.30937,15.68407 3.76391,20.40893 0.46125,1.49832 3.8164,5.407 4.47302,8.07717 0.66381,2.6994 -0.62015,6.18782 -0.62015,6.18782 0,0 3.26559,-3.01591 1.69769,-7.70869 -0.48284,-1.44516 -3.38364,-5.82306 -3.83261,-6.73144 -0.98107,-1.98496 -2.20209,-7.79766 -2.80263,-11.53046 z"
       sodipodi:nodetypes="sccssscsss" /><path
       style="fill:#000000;fill-opacity:1;stroke:none;stroke-width:1px;stroke-linecap:butt;stroke-linejoin:miter;stroke-opacity:1"
       d="m 306.7665,170.47288 c -1.51385,-0.60664 -3.75292,-0.0201 -5.35419,-0.48675 -1.60127,-0.46664 -3.54362,-1.06673 -4.1152,-2.12397 -0.57158,-1.05724 -0.22128,-2.30092 0.70798,-2.87622 0.92927,-0.57529 2.78066,-0.65718 4.51346,-0.30974 1.7328,0.34744 3.42469,1.49381 4.86744,2.78771 1.44275,1.2939 2.35693,3.59717 3.53996,4.86745 1.18303,1.27028 3.36296,2.83196 3.36296,2.83196 0,0 -2.81024,-1.15858 -4.07095,-1.94697 -1.26071,-0.78839 -1.93761,-2.13683 -3.45146,-2.74347 z"
       id="path1"
       sodipodi:nodetypes="zzzzzzzczz" /><path
       style="color:#000000;fill:#000000;-inkscape-stroke:none"
       d="m 325.08558,153.74653 c 0,0 0.72643,1.36293 1.60809,2.18067 0.93391,0.8662 2.21536,1.47487 3.36956,2.38259 2.19667,1.72756 3.01017,3.06881 3.77963,5.51168 0.45576,1.44694 0.30883,3.18693 -0.62208,4.4957 -1.29887,1.82609 -2.34224,2.24222 -3.61695,2.42797 -0.58978,0.0859 -1.26541,0.19467 -1.9336,0.57617 -0.69146,0.39479 -1.01156,1.03964 -1.5307,1.64844 -0.51914,0.6088 -1.28464,1.31682 -1.72058,1.59368 -0.93835,0.59596 -3.09393,1.48474 -3.09393,1.48474 0,0 2.44525,0.009 3.67529,-0.77178 0.64826,-0.41172 1.16352,-1.05518 1.67773,-1.65821 0.51422,-0.60302 1.02545,-1.16347 1.48829,-1.42773 0.4861,-0.27754 1.00839,-0.37149 1.58203,-0.45508 0.57364,-0.0836 1.19944,-0.15035 1.80664,-0.46484 0.97948,-0.50731 1.99154,-1.06657 2.90747,-2.3255 0.93213,-1.2812 1.04596,-3.69486 0.47406,-5.63477 -0.64692,-2.19438 -1.8498,-4.27307 -4.24213,-5.76014 -1.66906,-1.03749 -2.89805,-1.44806 -3.63079,-2.00134 -0.73273,-0.55328 -1.97803,-1.80225 -1.97803,-1.80225 z"
       id="path3"
       sodipodi:nodetypes="csssssssscsssssssszc" /><path
       style="fill:#000000;fill-opacity:1;stroke:none;stroke-width:1px;stroke-linecap:butt;stroke-linejoin:miter;stroke-opacity:1"
       d="m 325.04153,171.93312 c 0.5972,-0.58606 1.05607,-1.46047 1.85847,-2.18971 0.8024,-0.72924 1.46793,-2.14413 2.47798,-2.67774 1.01005,-0.53361 1.92633,-0.51642 2.34523,0.0885 0.41891,0.60491 0.0427,1.38696 -0.66379,1.76997 -0.70647,0.38301 -1.6178,0.15314 -2.38947,0.39825 -0.77167,0.24511 -0.90967,1.07731 -1.46023,1.54874 -0.55056,0.47143 -1.22607,1.06023 -1.85089,1.77849 -0.42656,0.49036 -1.23589,0.86852 -2.34334,1.50457 -1.19819,0.68817 -2.64275,1.29534 -2.64275,1.29534 0,0 1.59101,-1.22304 2.38999,-1.64951 1.07347,-0.57299 2.00552,-1.59871 2.2788,-1.8669 z"
       id="path4"
       sodipodi:nodetypes="szzzzzzsscss" /></g><g
     inkscape:groupmode="layer"
     id="layer4"
     inkscape:label="Bolian Seam"
     style="display:inline"><path
       style="color:#000000;fill:#000000;-inkscape-stroke:none"
       d="m 315.05115,134.12662 c 0.36081,2.39371 1.37825,5.49252 2.41711,9.67728 0.93583,3.76969 2.23089,8.12555 3.39498,10.84457 2.32118,5.4217 2.54393,9.38242 2.41951,11.37993 -0.135,2.16734 -0.5429,3.194 -1.0541,4.52176 -0.10146,0.26354 -0.47481,0.82731 -0.82434,1.43388 -0.30647,0.53184 -0.8411,1.21256 -1.32767,1.72677 -0.98329,1.03913 -2.26513,1.46555 -2.17486,1.56802 0,0 1.40402,-0.27072 2.53905,-1.20385 0.52801,-0.43408 1.11671,-1.10641 1.52785,-1.62614 0.41114,-0.51972 0.7031,-1.06699 0.90629,-1.53324 0.67407,-1.54678 1.14129,-2.79746 1.18707,-5.06494 0.0514,-2.54709 0.009,-6.25341 -2.4449,-11.47368 -1.23266,-2.6223 -2.31144,-7.03902 -3.3726,-10.79871 -1.11768,-3.95993 -2.04497,-7.19967 -2.40237,-9.57079 C 315.11973,129.21456 314,125 314,125 c 0,0 0.31903,4.26956 1.05115,9.12662 z"
       id="path6062"
       sodipodi:nodetypes="ssssssscssssssscs" /><path
       style="color:#000000;fill:#000000;fill-opacity:0.2;-inkscape-stroke:none"
       d="m 312,125 c 0,0 0.63539,3.83555 1.3675,8.69261 0.36832,2.44357 1.25716,5.92503 2.15232,9.35078 0.94193,3.60475 2.10657,8.71671 3.29615,11.20836 2.25859,4.73075 2.87246,9.14174 2.79487,11.20154 -0.0827,2.19485 -0.53046,3.74897 -0.87264,4.64813 -0.853,2.24147 -1.27119,2.93071 -1.8813,3.70425 -0.59855,0.75889 -1.66964,1.21488 -1.74283,1.15564 l 0.31906,0.024 c 0,0 1.0758,-0.20614 1.86531,-0.97385 1.29869,-1.26283 2.08738,-2.67635 2.48688,-3.53248 0.67354,-1.44342 0.9481,-2.74004 1.04492,-5.03486 0.0973,-2.3059 -0.56085,-6.75621 -2.82417,-11.29529 -1.20996,-2.42657 -2.39113,-7.86111 -3.39659,-11.52924 -0.93947,-3.42738 -1.66138,-6.54606 -2.01281,-8.87755 C 313.87423,128.94907 313.1,125 313.1,125 Z"
       id="path6064"
       sodipodi:nodetypes="cssssssccsssssscc" /></g></svg>
