<?xml version="1.0" encoding="UTF-8" standalone="no"?>
<!-- Created with Inkscape (http://www.inkscape.org/) -->

<svg
   version="1.1"
   id="svg132270"
   width="400"
   height="400"
   viewBox="0 0 400 400"
   sodipodi:docname="Mouth5.svg"
   inkscape:version="1.2.2 (b0a8486, 2022-12-01)"
   xmlns:inkscape="http://www.inkscape.org/namespaces/inkscape"
   xmlns:sodipodi="http://sodipodi.sourceforge.net/DTD/sodipodi-0.dtd"
   xmlns="http://www.w3.org/2000/svg"
   xmlns:svg="http://www.w3.org/2000/svg">
  <defs
     id="defs132274" />
  <sodipodi:namedview
     id="namedview132272"
     pagecolor="#ffffff"
     bordercolor="#666666"
     borderopacity="1.0"
     inkscape:showpageshadow="2"
     inkscape:pageopacity="0.0"
     inkscape:pagecheckerboard="0"
     inkscape:deskcolor="#d1d1d1"
     showgrid="false"
     inkscape:zoom="26.643783"
     inkscape:cx="308.96513"
     inkscape:cy="199.9716"
     inkscape:window-width="2039"
     inkscape:window-height="1162"
     inkscape:window-x="2243"
     inkscape:window-y="86"
     inkscape:window-maximized="0"
     inkscape:current-layer="g132278">
    <inkscape:page
       x="0"
       y="0"
       id="page132276"
       width="400"
       height="400" />
  </sodipodi:namedview>
  <g
     id="g132278"
     inkscape:groupmode="layer"
     inkscape:label="Page 1">
    <path
       id="path172160"
       style="opacity:1;fill:#cd976d;fill-opacity:1;fill-rule:nonzero;stroke:none;stroke-width:1.33333"
       d="M 312.72656 188.66602 C 311.98839 188.66139 311.43302 188.71197 311.04102 188.85547 C 309.99436 189.23947 290.83026 195.34831 287.18359 195.95898 C 287.18359 195.95898 289.0711 196.03601 291.33398 196.12109 L 288.09766 196.81836 C 288.09766 196.81836 290.43585 199.76624 293.05078 200.68555 C 295.6657 201.60485 299.13968 202.44427 302.32227 203.125 C 305.50484 203.80573 309.01973 204.54387 312.11719 204.77539 C 315.21464 205.00691 319.00588 205.27706 321.57617 204.625 C 324.14646 203.97294 325.44508 203.09098 326.75586 202.18555 C 328.06664 201.28012 329.27693 200.49759 329.87109 199.44531 C 330.46525 198.39303 330.2832 196.06836 330.2832 196.06836 L 329.05078 195.60156 C 329.65374 195.63744 330.16064 195.6294 330.48828 195.55078 C 330.48828 195.55078 325.39497 189.9082 324.04297 189.04688 C 322.69097 188.18554 321.72434 189.14317 318.01367 188.95117 C 315.69367 188.832 313.95685 188.67372 312.72656 188.66602 z " />
    <path
       d="m 310.35666,204.82454 c 4.14533,0.528 13.21067,-0.98 16.69067,-3.008 3.48,-2.02667 0.25066,-0.536 0,0 -0.24934,0.53733 -0.112,8.94133 -12.26934,8.54533 -12.15866,-0.39467 -21.82933,-9.71733 -21.82933,-9.71733 0,0 13.26267,3.652 17.408,4.18"
       style="opacity:0.199997;fill:#000000;fill-opacity:1;fill-rule:nonzero;stroke:none;stroke-width:1.33333"
       id="path135096" />
    <path
       d="m 330.48879,195.55081 c 0,0 -5.09333,-5.64267 -6.44533,-6.504 -1.352,-0.86134 -2.32,0.096 -6.03067,-0.096 -3.712,-0.19067 -5.92666,-0.47867 -6.972,-0.096 -1.04666,0.384 -20.21066,6.49333 -23.85733,7.104 0,0 14.34933,0.61066 15.056,0.36666 0.70533,-0.244 6.23333,-1.588 8.11467,-1.344 1.88266,0.24534 5.52933,0.73334 7.05733,0.36667 1.52933,-0.36667 3.764,-1.09867 3.764,-1.09867 0,0 7.452,1.748 9.31333,1.30134"
       style="opacity:0.199997;fill:#000000;fill-opacity:1;fill-rule:nonzero;stroke:none;stroke-width:1.33333"
       id="path135112" />
    <path
       d="m 300.89959,202.6168 c 1.412,0.69067 3.54134,0.752 5.064,0.964 1.54667,0.21334 3.12134,0.356 4.684,0.36534 1.712,0.012 3.41067,-0.29734 5.12267,-0.27467 2.43467,0.032 5.22267,0.528 7.52133,-0.51733 1.256,-0.57067 2.64667,-0.67467 3.88534,-1.30534 -0.21067,0.108 -0.56,0.97867 -0.82934,1.212 -1.76266,1.52934 -3.37066,2.608 -5.71733,2.98534 -1.48133,0.23866 -2.81467,-0.0493 -4.3,0.11333 -1.64133,0.17867 -3.28267,0.57467 -4.94133,0.37867 -2.43334,-0.288 -4.744,-1.11467 -6.892,-2.276 -1.13734,-0.61467 -2.42534,-1.072 -3.59734,-1.64534"
       style="fill:#000000;fill-opacity:1;fill-rule:nonzero;stroke:none;stroke-width:1.33333"
       id="path135122" />
    <path
       d="m 323.41466,194.18667 c -0.72533,-0.14 -1.448,-0.23066 -2.14,-0.192 -0.63733,0.0347 -1.21067,0.25067 -1.79733,0.33867 -2.568,0.38267 -5.24534,0.13867 -7.79467,-0.22533 -1.34133,-0.19067 -6.75333,0.62266 -8.59067,1.29333 -1.128,0.41067 -2.52933,0.34 -3.704,0.396 -1.644,0.08 -3.28933,0.11867 -4.93333,0.14933 -1.53733,0.0293 -3.12133,0.168 -4.65467,0.0293 -0.92266,-0.0827 -2.06,-0.276 -2.816,-0.79067 -0.84266,-0.572 -0.37733,-1.30267 -0.41066,-2.10133 0.003,0.0693 -1.15067,1.24933 -1.292,1.40533 -0.61467,0.67733 -1.23067,1.644 -1.312,2.52933 -0.064,0.71067 1.14933,0.51467 1.604,0.40534 2.58,-0.62534 5.34533,-0.904 8.052,-0.82667 2.792,0.0787 5.508,0.55467 8.30933,0.19467 0.60533,-0.0773 1.20933,-0.18667 1.80267,-0.33734 2.40933,-0.612 4.852,-0.42933 7.29733,-0.18533 1.196,0.12 2.4,0.14267 3.51867,0.51067 0.996,0.32666 2.24533,0.40933 3.24,0.0227 1.18666,-0.46266 2.252,-0.94533 3.50933,-1.22666 2.03733,-0.45734 4.02667,0.132 6.11867,0.11066 0.56533,-0.007 1.224,-0.23733 1.748,-0.0467 0.24933,0.0893 1.33333,0.99466 1.09866,1.28533 0.30534,-0.37733 0.216,-0.76667 0.188,-1.192 -0.0133,-0.20667 -0.19866,-0.90533 -0.12666,-1.05733 -0.032,0.068 -0.0573,0.092 -0.0693,0.17866 -0.37466,0.14267 -0.49333,0.28667 -0.896,0.33734 -0.36666,0.0453 -0.76933,0.032 -1.13333,-0.0293 -0.64,-0.108 -1.27867,-0.224 -1.91733,-0.34 -0.92267,-0.16533 -1.912,-0.44533 -2.89867,-0.636"
       style="fill:#000000;fill-opacity:1;fill-rule:nonzero;stroke:none;stroke-width:1.33333"
       id="path135126" />
  </g>
  <g
     inkscape:groupmode="layer"
     id="layer12"
     inkscape:label="Philtrum">
    <path
       d="m 313.49186,179.92254 c 0,0 -1.336,5.27867 -0.116,6.64933 1.21867,1.37067 3.192,1.44 3.192,1.44 0,0 -2.616,-1.57733 -2.508,-3.428 0.108,-1.85066 -0.568,-4.66133 -0.568,-4.66133"
       style="fill:#000000;fill-opacity:1;fill-rule:nonzero;stroke:none;stroke-width:1.33333"
       id="path135130" />
  </g>
</svg>
