<?xml version="1.0" encoding="UTF-8" standalone="no"?>
<!-- Created with Inkscape (http://www.inkscape.org/) -->

<svg
   version="1.1"
   id="svg154257"
   width="400"
   height="400"
   viewBox="0 0 400 400"
   sodipodi:docname="Mouth4-b.svg"
   inkscape:version="1.2.2 (b0a8486, 2022-12-01)"
   xmlns:inkscape="http://www.inkscape.org/namespaces/inkscape"
   xmlns:sodipodi="http://sodipodi.sourceforge.net/DTD/sodipodi-0.dtd"
   xmlns="http://www.w3.org/2000/svg"
   xmlns:svg="http://www.w3.org/2000/svg">
  <defs
     id="defs154261" />
  <sodipodi:namedview
     id="namedview154259"
     pagecolor="#ffffff"
     bordercolor="#666666"
     borderopacity="1.0"
     inkscape:showpageshadow="2"
     inkscape:pageopacity="0.0"
     inkscape:pagecheckerboard="0"
     inkscape:deskcolor="#d1d1d1"
     showgrid="false"
     inkscape:zoom="1.475"
     inkscape:cx="182.71186"
     inkscape:cy="200"
     inkscape:window-width="1440"
     inkscape:window-height="810"
     inkscape:window-x="2576"
     inkscape:window-y="142"
     inkscape:window-maximized="0"
     inkscape:current-layer="g154265">
    <inkscape:page
       x="0"
       y="0"
       id="page154263"
       width="400"
       height="400" />
  </sodipodi:namedview>
  <g
     id="g154265"
     inkscape:groupmode="layer"
     inkscape:label="Page 1">
    <path
       d="m 310.87226,202.80627 c 3.46267,0.49467 11.03867,-0.92 13.94667,-2.824 2.90666,-1.904 0.208,-0.504 0,0 -0.20934,0.504 -0.0947,8.396 -10.25334,8.024 -10.15733,-0.372 -18.23866,-9.12533 -18.23866,-9.12533 0,0 11.08266,3.43066 14.54533,3.92533"
       style="opacity:0.199997;fill:#000000;fill-opacity:1;fill-rule:nonzero;stroke:none;stroke-width:1.33333"
       id="path157135" />
    <path
       d="m 327.69359,194.59774 c 0,0 -5.096,-4.62133 -6.15333,-5.488 -1.05733,-0.868 -1.94533,0.096 -5.03067,-0.096 -3.08533,-0.19333 -4.912,-0.48267 -5.81733,-0.0973 -0.90667,0.38533 -16.136,5.49066 -19.18267,6.064 0,0 11.99067,0.57333 12.58,0.344 0.58934,-0.22934 5.208,-1.49067 6.78134,-1.26134 1.572,0.22934 4.61866,0.688 5.896,0.344 1.27733,-0.344 3.14533,-1.03066 3.14533,-1.03066 0,0 6.22667,1.64133 7.78133,1.22133"
       style="opacity:0.199997;fill:#000000;fill-opacity:1;fill-rule:nonzero;stroke:none;stroke-width:1.33333"
       id="path157151" />
    <path
       d="m 302.97039,200.7332 c 0,0 5.76134,1.74534 12.37734,1.32 6.616,-0.42533 9.38933,-1.91066 9.38933,-1.91066 0,0 -4.05467,4.46133 -9.38933,4.46133 -5.33467,0 -12.37734,-3.87067 -12.37734,-3.87067"
       style="fill:#000000;fill-opacity:1;fill-rule:nonzero;stroke:none;stroke-width:1.33333"
       id="path157161" />
    <path
       d="m 321.77226,193.37801 c -0.91333,-0.26934 -1.49333,-0.764 -2.48933,-0.54 -0.996,0.22533 -6.18267,0.58533 -7.30267,0.40533 -1.12,-0.18 -5.64267,0.584 -7.17867,1.21333 -0.94133,0.38667 -2.112,0.32 -3.09466,0.37334 -1.37334,0.0733 -2.748,0.11066 -4.12267,0.14 -1.284,0.0267 -2.608,0.15733 -3.888,0.028 -0.77067,-0.0787 -1.72133,-0.26 -2.35333,-0.74267 -0.704,-0.53733 -0.31467,-1.224 -0.34267,-1.97333 0.003,0.0653 -0.96133,1.172 -1.07867,1.31866 -0.51466,0.63734 -1.02933,1.544 -1.09733,2.37467 -0.0533,0.668 0.96,0.484 1.34,0.38133 2.156,-0.58666 4.46667,-0.848 6.728,-0.776 2.33333,0.0733 4.60267,0.52134 6.94267,0.18267 0.50666,-0.0733 1.01066,-0.176 1.50666,-0.31733 3.452,-0.984 6.18267,0.136 10.36134,0.136 2.72533,0 3.63333,-1.772 5.81333,-1.18134 1.16267,0.31467 2.41733,0.33867 3.61467,0.324 0.472,-0.005 1.02266,-0.22133 1.46,-0.044 0.208,0.0853 1.11466,0.936 0.91866,1.20667 0.25467,-0.35333 0.18,-0.71867 0.156,-1.11733 -0.0107,-0.19467 -0.16533,-0.85067 -0.10533,-0.99467 -0.0267,0.0653 -0.048,0.088 -0.0587,0.168 -0.312,0.13467 -0.412,0.27067 -0.748,0.31733 -0.30666,0.0427 -0.64266,0.0307 -0.94666,-0.028 -0.53467,-0.1 -1.068,-0.20933 -1.60267,-0.31866 -0.80933,-0.164 -1.63867,-0.30134 -2.432,-0.536"
       style="fill:#000000;fill-opacity:1;fill-rule:nonzero;stroke:none;stroke-width:1.33333"
       id="path157165" />
    <path
       d="m 313.49186,179.92254 c 0,0 -1.56,5.31467 -0.65733,6.696 0.904,1.38 2.54666,1.44933 2.54666,1.44933 0,0 -2.05333,-1.588 -1.80666,-3.452 0.24533,-1.864 -0.0827,-4.69333 -0.0827,-4.69333"
       style="fill:#000000;fill-opacity:1;fill-rule:nonzero;stroke:none;stroke-width:1.33333"
       id="path157169" />
  </g>
</svg>
