<?xml version="1.0" encoding="UTF-8" standalone="no"?>
<!-- Created with Inkscape (http://www.inkscape.org/) -->

<svg
   version="1.1"
   id="svg20300"
   width="400"
   height="400"
   viewBox="0 0 400 400"
   sodipodi:docname="Mouth3Lipstick.svg"
   inkscape:version="1.2.2 (b0a8486, 2022-12-01)"
   xmlns:inkscape="http://www.inkscape.org/namespaces/inkscape"
   xmlns:sodipodi="http://sodipodi.sourceforge.net/DTD/sodipodi-0.dtd"
   xmlns="http://www.w3.org/2000/svg"
   xmlns:svg="http://www.w3.org/2000/svg">
  <defs
     id="defs20304" />
  <sodipodi:namedview
     id="namedview20302"
     pagecolor="#ffffff"
     bordercolor="#666666"
     borderopacity="1.0"
     inkscape:showpageshadow="2"
     inkscape:pageopacity="0.0"
     inkscape:pagecheckerboard="0"
     inkscape:deskcolor="#d1d1d1"
     showgrid="false"
     inkscape:zoom="2.0175"
     inkscape:cx="199.75217"
     inkscape:cy="200"
     inkscape:window-width="1765"
     inkscape:window-height="1027"
     inkscape:window-x="2275"
     inkscape:window-y="122"
     inkscape:window-maximized="0"
     inkscape:current-layer="g20308">
    <inkscape:page
       x="0"
       y="0"
       id="page20306"
       width="400"
       height="400" />
  </sodipodi:namedview>
  <g
     id="g20308"
     inkscape:groupmode="layer"
     inkscape:label="Page 1">
    <path
       d="m 307.60279,205.11187 c -1.17866,-0.23867 -2.34266,-0.55733 -3.49733,-0.87733 -1.856,-0.51467 -3.948,-0.756 -5.66,-1.684 -1.22133,-0.66267 -2.42667,-1.572 -3.91067,-1.576 -1.588,-0.004 -0.79333,1.24666 -0.0933,1.93333 2.89067,2.832 6.25467,5.60667 10.104,6.992 2.204,0.79467 4.53867,1.18133 6.876,1.35333 4.10933,0.30267 8.50267,-0.30133 11.34533,-3.58933 0.42267,-0.48933 0.58534,-1.008 0.91334,-1.54533 0.744,-1.21867 1.548,-1.91467 1.62266,-3.388 0.028,-0.52534 -2.436,1.38133 -2.572,1.45466 -1.05866,0.57734 -2.58933,0.464 -3.75866,0.63867 -2.824,0.42 -5.676,0.804 -8.53734,0.66267 -0.95466,-0.048 -1.89733,-0.18534 -2.832,-0.37467"
       style="opacity:0.199997;fill:#000000;fill-opacity:1;fill-rule:nonzero;stroke:none;stroke-width:1.33333"
       id="path26546" />
    <path
       d="m 311.68386,202.41654 c -0.808,0.0213 -1.584,0.13733 -2.38667,0.17066 -0.34933,0.0147 -0.79333,0.0173 -1.10666,-0.092 -0.404,-0.14133 -0.36934,-0.26 -0.64534,-0.57333 -0.49466,-0.56 -1.43333,-0.74667 -2.05066,-1.12933 -0.64534,-0.4 -1.26,-0.848 -2.092,-1.008 -0.66667,-0.128 -0.692,-0.23333 -1.01067,-0.732 -0.208,-0.32667 -0.452,-0.28133 -0.7,-0.576 0.444,-0.51867 1.22267,-0.868 1.91467,-0.83733 0.17733,0.37066 0.44933,0.624 0.87733,0.71066 0.63067,0.128 0.64,-0.228 1.112,-0.48266 0.288,-0.15467 0.92267,-0.364 1.26,-0.26 0.42533,0.12933 0.23867,0.472 0.58667,0.7 0.356,0.23466 0.672,-0.11734 1.05466,-0.20134 0.50267,-0.112 0.88667,0.0253 1.36134,0.14534 0.756,0.192 1.42933,0.65733 2.084,1.064 1.024,0.63733 1.81066,0.49066 2.98133,0.428 0.444,-0.024 1.06667,0.12266 1.48533,-0.016 1.07467,-0.35334 1.32134,-1.752 2.47467,-2.068 0.49067,-0.13467 0.76933,0.48266 1.2,0.51466 0.492,0.036 0.61733,-0.464 0.95467,-0.66933 0.72266,-0.43867 0.96,0.73467 1.55733,0.93067 0.19733,0.0653 0.44933,-0.0347 0.64667,0.036 0.21066,0.0747 0.572,0.328 0.72533,0.48133 0.27867,0.276 0.332,0.74933 0.76133,0.94 0.14667,0.76666 -0.41333,0.72533 -0.93866,1.06133 -0.40934,0.26267 -0.59467,0.66667 -0.98667,0.97733 -0.46933,0.37334 -0.92267,-0.0493 -1.45733,-0.088 -0.68,-0.0507 -1.16267,0.248 -1.79867,0.40667 -0.456,0.11333 -0.99067,0.19333 -1.464,0.17333 -0.464,-0.0187 -1.02267,-0.116 -1.46667,-0.24533 -0.34933,-0.10133 -0.58,-0.36 -0.96666,-0.34933 -0.50934,0.0133 -0.69334,0.37866 -1.05467,0.62666 -0.828,0.568 -1.98,-0.0627 -2.912,-0.0387"
       style="opacity:0.5;fill:#ffffff;fill-opacity:1;fill-rule:nonzero;stroke:none;stroke-width:1.33333"
       id="path26562" />
    <path
       d="m 313.82253,180.15054 c -0.612,1.36933 -1.19867,2.764 -1.676,4.188 -0.37867,1.13067 -0.38534,2.212 0.22533,3.24933 0.22133,0.37467 0.488,0.75867 0.84,1.01067 0.14133,0.1 1.216,0.37467 1.21867,0.384 -0.236,-0.64533 -0.948,-0.87733 -1.20534,-1.50133 -0.91333,-2.21867 0.17467,-5.096 0.59734,-7.33067"
       style="fill:#000000;fill-opacity:1;fill-rule:nonzero;stroke:none;stroke-width:1.33333"
       id="path26572" />
    <path
       d="m 289.59039,197.26561 c -0.67866,1.19866 0.88934,2.58266 1.88534,3.14399 1.312,0.74 2.44133,1.36934 3.696,2.28267 2.968,2.16 6.40133,4.03733 10.10933,4.416 8.544,0.872 14.29867,0 16.39067,-0.872 1.612,-0.672 2.42266,-2.29333 3.59733,-3.45733 0.884,-0.87467 2.69333,-1.58267 2.50533,-3.10267 -0.264,-2.14 -3.51866,-3.42133 -5.24266,-3.976 -3.18934,-1.024 -6.58134,-1.496 -9.92667,-1.496 -5.59733,0 -11.26533,-0.67733 -16.74,0.66934 -1.18933,0.292 -2.192,0.60666 -3.32267,0.956 -0.79333,0.24533 -2.04533,0.468 -2.66133,1.06666 -0.124,0.12 -0.22,0.244 -0.29067,0.36934"
       style="fill:#c14242;fill-opacity:1;fill-rule:nonzero;stroke:none;stroke-width:1.33333"
       id="path26576" />
    <path
       d="m 291.18133,200.30614 c 1.31333,0.74 3.02933,2.78133 4.284,3.69466 2.96666,2.16 6.4,4.03734 10.108,4.416 8.54533,0.872 14.29866,0 16.392,-0.872 1.612,-0.67066 2.67066,-3.232 3.304,-4.76533 -1.17467,1.16267 -1.98534,2.78533 -3.59734,3.45733 -2.092,0.872 -7.84666,1.744 -16.39066,0.872 -3.70934,-0.37866 -7.14267,-2.25733 -10.10934,-4.41733 -1.25466,-0.91333 -2.67733,-1.64533 -3.99066,-2.38533"
       style="fill:#000000;fill-opacity:1;fill-rule:nonzero;stroke:none;stroke-width:1.33333"
       id="path26580" />
    <path
       d="m 288.14493,196.47921 c 0,0 12.17066,-7.81067 18.96666,-7.90667 4.25734,-0.0587 7.42134,1.73733 7.42134,1.73733 0,0 6.00133,-2.716 9.40133,0.38667 3.39733,3.1 4.83867,6.576 4.84133,6.58133 0.892,2.352 -8.612,1.45334 -9.50666,1.412 -2.04667,-0.0933 -2.99067,0.17334 -4.88534,0.752 -1.65333,0.504 -3.07333,0.132 -4.70533,-0.26133 -3.37333,-0.81467 -6.95067,0.40133 -10.38667,0.02 -3.83333,-0.42533 -7.59733,-1.328 -11.14666,-2.72133"
       style="fill:#c14242;fill-opacity:1;fill-rule:nonzero;stroke:none;stroke-width:1.33333"
       id="path26584" />
    <path
       d="m 288.14493,196.47921 c 0,0 12.17066,-7.81067 18.96666,-7.90667 4.25734,-0.0587 7.42134,1.73733 7.42134,1.73733 0,0 6.00133,-2.716 9.40133,0.38667 3.39733,3.1 4.83867,6.576 4.84133,6.58133 0.892,2.352 -8.612,1.45334 -9.50666,1.412 -2.04667,-0.0933 -2.99067,0.17334 -4.88534,0.752 -1.65333,0.504 -3.07333,0.132 -4.70533,-0.26133 -3.37333,-0.81467 -6.95067,0.40133 -10.38667,0.02 -3.83333,-0.42533 -7.59733,-1.328 -11.14666,-2.72133"
       style="opacity:0.199997;fill:#000000;fill-opacity:1;fill-rule:nonzero;stroke:none;stroke-width:1.33333"
       id="path26594" />
    <path
       d="m 327.40359,199.09187 c 0.84934,-0.14266 1.636,-0.0733 1.82667,0.80934 0.51867,-0.43067 0.28533,-1.768 0.18133,-2.35334 -0.072,-0.4 -0.916,-1.00533 -0.92266,-1.18933 0.0973,2.636 -3.58134,2.15467 -5.308,2.208 -1.39734,0.0427 -2.70267,-0.336 -4.064,-0.536 -2.40134,-0.35333 -4.48934,1.46 -6.97067,1.22533 -2.48133,-0.236 -4.732,-2.032 -7.208,-1.752 -1.00933,0.11467 -1.928,0.27334 -2.89733,0.576 -3.952,1.23334 -8.768,-0.276 -12.59334,-1.40533 -0.95866,-0.284 -0.436,-1.804 -1.44266,-1.8 -0.87067,0.004 -1.38134,0.86133 -1.684,1.51733 -0.172,0.37467 -0.424,0.744 -0.57467,1.12934 -0.0213,0.052 -0.17467,1.052 -0.0293,0.95333 0.75866,-0.51467 1.16133,-1.148 2.136,-1.2 1.128,-0.0613 2.20266,0.34267 3.25066,0.704 2.84267,0.98 5.78267,1.53467 8.776,1.768 1.912,0.14933 3.81867,-0.172 5.72667,-0.252 1.06267,-0.0453 2.132,-0.028 3.184,0.14133 1.03867,0.16534 2.06267,0.4 3.116,0.49067 1.45067,0.12533 2.91733,-0.26533 4.35333,-0.44 1.556,-0.188 3.128,-0.19467 4.69334,-0.15333 1.46933,0.0373 2.94533,0.14933 4.41466,0.0227 0.476,-0.0413 1.28,-0.33733 2.036,-0.464"
       style="fill:#000000;fill-opacity:1;fill-rule:nonzero;stroke:none;stroke-width:1.33333"
       id="path26604" />
  </g>
</svg>
