<?xml version="1.0" encoding="UTF-8" standalone="no"?>
<!-- Created with Inkscape (http://www.inkscape.org/) -->

<svg
   version="1.1"
   id="svg100624"
   width="400"
   height="400"
   viewBox="0 0 400 400"
   sodipodi:docname="Mouth2.svg"
   inkscape:version="1.2.2 (b0a8486, 2022-12-01)"
   xmlns:inkscape="http://www.inkscape.org/namespaces/inkscape"
   xmlns:sodipodi="http://sodipodi.sourceforge.net/DTD/sodipodi-0.dtd"
   xmlns="http://www.w3.org/2000/svg"
   xmlns:svg="http://www.w3.org/2000/svg">
  <defs
     id="defs100628" />
  <sodipodi:namedview
     id="namedview100626"
     pagecolor="#ffffff"
     bordercolor="#666666"
     borderopacity="1.0"
     inkscape:showpageshadow="2"
     inkscape:pageopacity="0.0"
     inkscape:pagecheckerboard="0"
     inkscape:deskcolor="#d1d1d1"
     showgrid="false"
     inkscape:zoom="1.475"
     inkscape:cx="182.71186"
     inkscape:cy="200"
     inkscape:window-width="1440"
     inkscape:window-height="810"
     inkscape:window-x="2741"
     inkscape:window-y="256"
     inkscape:window-maximized="0"
     inkscape:current-layer="g100632">
    <inkscape:page
       x="0"
       y="0"
       id="page100630"
       width="400"
       height="400" />
  </sodipodi:namedview>
  <g
     id="g100632"
     inkscape:groupmode="layer"
     inkscape:label="Page 1">
    <path
       d="m 310.89893,203.72174 c 3.44,0.49466 10.964,-0.92 13.852,-2.824 2.888,-1.904 0.208,-0.504 0,0 -0.208,0.504 -0.0933,8.396 -10.18267,8.024 -10.09067,-0.372 -18.116,-9.12533 -18.116,-9.12533 0,0 11.00667,3.43066 14.44667,3.92533"
       style="opacity:0.199997;fill:#000000;fill-opacity:1;fill-rule:nonzero;stroke:none;stroke-width:1.33333"
       id="path103606" />
    <path
       d="m 329.83786,194.59774 c 0,0 -5.94533,-3.76933 -7.17867,-4.70933 -1.23333,-0.94134 -2.27066,0.104 -5.86933,-0.10534 -3.6,-0.20933 -5.73067,-0.52266 -6.788,-0.104 -1.056,0.41734 -18.824,4.728 -22.37867,5.30134 0,0 13.988,0.57333 14.676,0.344 0.688,-0.22934 6.07734,-1.49067 7.912,-1.26134 1.83467,0.22934 5.38934,0.688 6.87867,0.344 1.49067,-0.344 3.66933,-1.03066 3.66933,-1.03066 0,0 7.264,1.64133 9.07867,1.22133"
       style="opacity:0.199997;fill:#000000;fill-opacity:1;fill-rule:nonzero;stroke:none;stroke-width:1.33333"
       id="path103622" />
    <path
       d="m 303.05053,201.64867 c 0,0 5.72266,1.74533 12.29333,1.32 6.57067,-0.42533 9.32667,-1.91067 9.32667,-1.91067 0,0 -4.02667,4.46134 -9.32667,4.46134 -5.29867,0 -12.29333,-3.87067 -12.29333,-3.87067"
       style="fill:#000000;fill-opacity:1;fill-rule:nonzero;stroke:none;stroke-width:1.33333"
       id="path103632" />
    <path
       d="m 322.92973,193.37801 c -1.06534,-0.26934 -1.74267,-0.764 -2.904,-0.54 -1.16267,0.22533 -7.21334,0.58533 -8.52,0.40533 -1.30667,-0.18 -6.584,0.584 -8.37467,1.21333 -1.09867,0.38667 -2.46533,0.32 -3.61067,0.37334 -2.89733,0.13333 -5.8,0.148 -8.7,0.20533 -0.65866,0.0133 -1.372,0.0107 -1.9,-0.38267 -0.50933,-0.37733 -0.676,-1.00266 -1.04533,-1.49066 -0.13333,-0.176 -0.32,-0.34534 -0.54133,-0.34 -0.15867,0.003 -0.29867,0.0947 -0.42534,0.188 -0.92533,0.67733 -1.66933,1.6 -2.136,2.648 0.048,-0.10934 1.40534,-0.064 1.576,-0.072 2.668,-0.108 5.33867,-0.076 8.00534,0.048 2.55333,0.12 5.096,0.44533 7.64933,0.12933 0.59067,-0.0733 1.17867,-0.176 1.75733,-0.31733 4.028,-0.984 7.21334,0.136 12.088,0.136 3.18,0 4.23867,-1.772 6.78267,-1.18134 2.544,0.59067 7.20667,0.19734 7.20667,0.19734 0,0 -5.84267,-0.95067 -6.908,-1.22"
       style="fill:#000000;fill-opacity:1;fill-rule:nonzero;stroke:none;stroke-width:1.33333"
       id="path103636" />
    <path
       d="m 313.49186,179.92254 c 0,0 -1.56,5.76533 -0.65733,7.26267 0.904,1.49733 2.54666,1.572 2.54666,1.572 0,0 -2.05333,-1.72134 -1.80666,-3.744 0.24533,-2.02134 -0.0827,-5.09067 -0.0827,-5.09067"
       style="fill:#000000;fill-opacity:1;fill-rule:nonzero;stroke:none;stroke-width:1.33333"
       id="path103640" />
  </g>
</svg>
