<?xml version="1.0" encoding="UTF-8" standalone="no"?>
<!-- Created with Inkscape (http://www.inkscape.org/) -->

<svg
   version="1.1"
   id="svg1129"
   width="400"
   height="400"
   viewBox="0 0 400 400"
   sodipodi:docname="Mouth6Lipstick.svg"
   inkscape:version="1.2.2 (b0a8486, 2022-12-01)"
   xmlns:inkscape="http://www.inkscape.org/namespaces/inkscape"
   xmlns:sodipodi="http://sodipodi.sourceforge.net/DTD/sodipodi-0.dtd"
   xmlns="http://www.w3.org/2000/svg"
   xmlns:svg="http://www.w3.org/2000/svg">
  <defs
     id="defs1133" />
  <sodipodi:namedview
     id="namedview1131"
     pagecolor="#ffffff"
     bordercolor="#666666"
     borderopacity="1.0"
     inkscape:showpageshadow="2"
     inkscape:pageopacity="0.0"
     inkscape:pagecheckerboard="0"
     inkscape:deskcolor="#d1d1d1"
     showgrid="false"
     inkscape:zoom="20.88"
     inkscape:cx="308.33333"
     inkscape:cy="200.76628"
     inkscape:window-width="2149"
     inkscape:window-height="1264"
     inkscape:window-x="2227"
     inkscape:window-y="54"
     inkscape:window-maximized="0"
     inkscape:current-layer="g1137">
    <inkscape:page
       x="0"
       y="0"
       id="page1135"
       width="400"
       height="400" />
  </sodipodi:namedview>
  <g
     id="g1137"
     inkscape:groupmode="layer"
     inkscape:label="Mouth">
    <path
       d="m 299.91959,201.90134 c 0,0 4.816,7.51733 13.45734,7.74266 8.64266,0.22534 9.98533,-3.39333 11.30666,-5.51466 1.32134,-2.12 -11.616,-0.11467 -11.616,-0.11467 0,0 -15.25733,-4.97866 -13.148,-2.11333"
       style="opacity:0.199997;fill:#000000;fill-opacity:1;fill-rule:nonzero;stroke:none;stroke-width:1.33333"
       id="path6627" />
    <path
       d="m 316.54373,207.9676 c 7.41066,-0.424 7.79066,-3.176 9.58933,-6.34933 1.74,-3.072 2.352,-6.32533 2.352,-6.32533 l -18.32133,-3.91333 -18.98607,4.31967 c 0,0 1.52933,1.60615 3.96,4.11148 4.97467,5.13066 9.32873,8.84751 21.40607,8.15684"
       style="fill:#c14242;fill-opacity:1;fill-rule:nonzero;stroke:none;stroke-width:1.33333"
       id="path6637"
       sodipodi:nodetypes="ccccccc" />
    <path
       d="m 312.61279,201.80294 c -0.13466,-0.0173 -0.29333,-0.084 -0.65066,-0.24667 -0.584,-0.26667 -1.072,-0.336 -1.66134,-0.29733 -0.19866,0.0133 -0.26,0.232 -0.45866,0.21733 -0.21067,-0.0173 -0.50934,-0.356 -0.72667,-0.44667 -0.75067,-0.312 -0.596,0.052 -1.31467,0.128 -0.564,0.06 -0.992,-0.47333 -1.57733,-0.59866 -0.51467,-0.11067 -1.212,0.22266 -1.60533,-0.0253 -0.12534,-0.0773 -0.236,-0.57866 -0.35734,-0.69333 -0.29333,-0.27733 -0.26666,-0.15466 -0.64133,-0.29733 -0.43067,-0.164 -1.052,-0.14267 -1.43333,-0.39867 -0.0973,-0.0653 -0.716,-0.86533 -0.556,-0.892 0.83066,-0.14266 1.564,0.49067 2.38533,0.544 0.17333,0.0107 0.23333,-0.25333 0.452,-0.232 0.14,0.0133 0.29733,0.13467 0.46667,0.15467 0.404,0.048 0.892,-0.016 1.27733,0.0453 0.44533,0.0707 0.456,0.27467 0.86667,0.424 0.372,0.13467 0.788,-0.0333 1.164,0.072 0.33066,0.092 0.54933,0.36934 0.91066,0.44267 0.476,0.096 0.78934,0.0347 1.24,0.192 0.84267,0.296 1.35067,0.13066 2.18667,0.28533 0.89733,0.168 1.948,0.088 2.84933,-0.028 0.35867,-0.0467 0.57867,-0.28933 0.92267,-0.37066 0.42667,-0.10134 0.97333,-0.0267 1.416,-0.032 0.97733,-0.012 1.82533,-0.016 2.736,-0.256 0.17733,-0.0467 0.42,-0.14667 0.61467,-0.14 0.296,0.008 0.508,0.236 0.76,0.23733 0.47066,0.005 0.65866,-0.152 1.044,-0.34933 0.57866,-0.29467 1.22,-0.44 1.692,-0.984 0.12933,0.0493 0.51066,0.27066 0.56,0.428 0.16266,0.532 -1.004,1.39599 -1.40134,1.58399 -0.0387,-0.172 -0.13066,-0.18133 -0.188,-0.29599 -0.49466,0.31866 -0.928,0.61999 -1.444,0.84533 -0.244,0.10533 -0.79466,0.468 -1.064,0.48266 -0.272,0.016 -0.45866,-0.252 -0.66533,-0.268 -0.51733,-0.0373 -0.81733,0.51734 -1.26267,0.49867 -0.73733,-0.032 -0.71866,-0.7 -1.36133,0.17333 -0.85867,-0.57733 -1.55733,-0.28 -2.32533,0.30667 -0.11867,-0.128 -0.372,-0.6 -0.52,-0.62533 -0.37867,-0.064 -0.256,0.30533 -0.496,0.34933 -0.35334,0.0667 -0.8,-0.032 -1.17734,0.005 -0.37333,0.036 -0.49866,0.0827 -0.656,0.0613"
       style="opacity:0.5;fill:#ffffff;fill-opacity:1;fill-rule:nonzero;stroke:none;stroke-width:1.33333"
       id="path6647" />
    <path
       d="m 297.77256,200.71956 c -0.23067,-0.61333 -0.168,-1.59066 -0.004,-2.00266 0.3,-0.75067 1.14133,-1.008 1.916,-0.77867 -0.316,-0.0933 -1.08133,-1.088 -1.15467,-1.41867 -0.08,-0.36266 0.108,-0.65866 0.096,-1.02133 -0.016,-0.48267 -0.22533,-0.97467 -0.456,-1.396 l -6.96931,1.93596 c 0.80266,0.604 1.92398,0.38937 2.69598,1.03071 1.496,1.24266 2.632,2.84933 4.14933,4.06533 -0.11866,-0.0947 -0.208,-0.24 -0.27333,-0.41467"
       style="opacity:0.199997;fill:#000000;fill-opacity:1;fill-rule:nonzero;stroke:none;stroke-width:1.33333"
       id="path6663"
       sodipodi:nodetypes="ccccsccccc" />
    <path
       d="m 324.14533,195.90534 c -0.576,0.30533 -1.04534,0.75867 -1.55334,1.44 0.87467,0.0373 1.736,-0.244 2.60667,-0.128 1.91733,0.25733 1.18267,2.712 0.47733,3.724 0.764,-0.46 1.15734,-1.312 1.548,-2.084 0.48267,-0.95333 0.97121,-2.03456 1.03921,-3.14922 0.0133,-0.23067 0.15816,-0.45078 -0.0592,-0.53611 -0.10666,-0.0427 -0.22533,-0.0307 -0.33866,-0.0187 -0.65334,0.0693 -1.30534,0.15733 -1.956,0.244 -0.72134,0.0973 -1.28,0.25067 -1.764,0.508"
       style="opacity:0.199997;fill:#000000;fill-opacity:1;fill-rule:nonzero;stroke:none;stroke-width:1.33333"
       id="path6679"
       sodipodi:nodetypes="cccccccccc" />
    <path
       d="m 315.62226,189.56827 c -0.65467,0.49467 -1.00667,1.4576 -1.73733,1.27493 -0.82934,-0.20666 -1.35067,-1.31093 -2.70667,-1.99493 -2.57467,-1.29866 -7.43067,1.392 -10.236,2.50534 -3.364,1.33466 -11.53252,4.42394 -11.22319,4.63061 1.63467,-0.684 7.36215,1.23733 16.92852,1.57605 1.66,0.31334 6.88934,0.41334 8.068,0.4 6.484,-0.076 13.568,-3.004 16.20134,-2.22266 0,0 -4.47334,-2.3967 -6.768,-4.07936 -4.25067,-3.116 -6.61067,-3.53664 -8.52667,-2.08998 z"
       style="fill:#c14242;fill-opacity:1;fill-rule:nonzero;stroke:none;stroke-width:1.33333"
       id="path6693"
       sodipodi:nodetypes="ccsccccccc" />
    <path
       d="m 315.62226,189.56827 c -0.65467,0.49467 -1.00667,1.4576 -1.73733,1.27493 -0.82934,-0.20666 -1.35067,-1.31093 -2.70667,-1.99493 -2.57467,-1.29866 -7.43067,1.392 -10.236,2.50534 -3.364,1.33466 -11.83731,4.52554 -11.52798,4.73221 1.63467,-0.684 8.20878,1.13573 17.23331,1.67764 1.66,0.31334 6.88934,0.21015 8.068,0.19681 6.484,-0.076 13.568,-3.004 16.20134,-2.22266 0,0 -4.42545,-2.3488 -6.72011,-4.03146 -4.25067,-3.116 -6.65856,-3.58454 -8.57456,-2.13788 z"
       style="opacity:0.199997;fill:#000000;fill-opacity:1;fill-rule:nonzero;stroke:none;stroke-width:1.33333"
       id="path6703"
       sodipodi:nodetypes="ccsccccccc" />
    <path
       d="m 314.52786,198.38561 c -1.48667,0.032 -3.01067,0.384 -4.496,0.23333 -4.59867,-0.46667 -9.45838,-0.50033 -13.97971,-1.47633 -1.42934,-0.30933 -4.02667,-1.32 -5.36667,-0.75066 -0.50667,0.21466 -0.788,1.15733 -1.43733,0.94266 -0.624,-0.20666 -0.38134,-1.17866 -0.188,-1.60266 0.27866,-0.612 1.01866,-1.06267 1.67333,-1.148 0.72533,0.67066 1.32267,1.064 2.26133,1.23066 6.668,1.19334 11.30238,2.75233 20.42638,0.75366 0.86667,-0.18933 2.97067,-0.18266 3.772,0.124 0.94667,0.36267 1.85467,0.54667 2.85867,0.48267 2.34667,-0.14667 4.43867,-1.316 6.76,-1.572 0.52,-0.0573 1.05333,-0.0693 1.54667,-0.22933 0.49466,-0.16134 0.96,-0.50667 1.09866,-1.012 0.88267,0.34266 1.42934,1.42533 1.172,2.32266 -0.0267,0.0893 -0.0667,0.18534 -0.15066,0.22534 -0.13467,0.0613 -0.284,-0.0533 -0.40267,-0.14934 -0.992,-0.79733 -2.4,-0.728 -3.57733,-0.368 -2.47334,0.756 -4.87334,1.53334 -7.36534,2.01467 -1.38133,0.26667 -3.13733,-0.0533 -4.60533,-0.0213"
       style="fill:#000000;fill-opacity:1;fill-rule:nonzero;stroke:none;stroke-width:1.33333"
       id="path6713"
       sodipodi:nodetypes="cccccccccccscccccccc" />
  </g>
  <g
     inkscape:groupmode="layer"
     id="layer1"
     inkscape:label="Philtrum">
    <path
       d="m 312.89666,180.34467 c -0.56667,1.35734 -1.86667,2.544 -2.27867,3.94267 -0.42533,1.44533 0.37867,3.01867 2.93734,4.288 -0.032,-0.0133 -1.25734,-1.73333 -1.30534,-1.82 -0.65466,-1.172 -0.80666,-1.52933 -0.62533,-2.796 0.13067,-0.91733 0.91067,-2.74933 1.272,-3.61467"
       style="fill:#000000;fill-opacity:1;fill-rule:nonzero;stroke:none;stroke-width:1.33333"
       id="path6689" />
  </g>
</svg>
