<?xml version="1.0" encoding="UTF-8" standalone="no"?>
<!-- Created with Inkscape (http://www.inkscape.org/) -->

<svg
   version="1.1"
   id="svg1129"
   width="400"
   height="400"
   viewBox="0 0 400 400"
   sodipodi:docname="Mouth1Lipstick.svg"
   inkscape:version="1.2.2 (b0a8486, 2022-12-01)"
   xmlns:inkscape="http://www.inkscape.org/namespaces/inkscape"
   xmlns:sodipodi="http://sodipodi.sourceforge.net/DTD/sodipodi-0.dtd"
   xmlns="http://www.w3.org/2000/svg"
   xmlns:svg="http://www.w3.org/2000/svg">
  <defs
     id="defs1133" />
  <sodipodi:namedview
     id="namedview1131"
     pagecolor="#ffffff"
     bordercolor="#666666"
     borderopacity="1.0"
     inkscape:showpageshadow="2"
     inkscape:pageopacity="0.0"
     inkscape:pagecheckerboard="0"
     inkscape:deskcolor="#d1d1d1"
     showgrid="false"
     inkscape:zoom="4.17193"
     inkscape:cx="271.93649"
     inkscape:cy="199.90748"
     inkscape:window-width="1920"
     inkscape:window-height="1080"
     inkscape:window-x="2430"
     inkscape:window-y="211"
     inkscape:window-maximized="0"
     inkscape:current-layer="g1137">
    <inkscape:page
       x="0"
       y="0"
       id="page1135"
       width="400"
       height="400" />
  </sodipodi:namedview>
  <g
     id="g1137"
     inkscape:groupmode="layer"
     inkscape:label="Page 1">
    <path
       d="m 310.43893,205.9308 c -1.91467,-0.244 -5.31334,-0.752 -9.264,-2.39066 -3.832,-1.59067 -7.788,-1.704 -7.788,-1.704 0,0 9.47333,9.132 21.38266,9.51866 11.90934,0.388 11.77467,-7.844 12.01867,-8.36933 -3.408,1.98533 -12.28933,3.46133 -16.34933,2.94533"
       style="opacity:0.199997;fill:#000000;fill-opacity:1;fill-rule:nonzero;stroke:none;stroke-width:1.33333"
       id="path7523" />
    <path
       d="m 290.40386,197.77681 c 0,0 -3.27467,0.072 -1.796,0.93733 1.47867,0.86667 10.03467,6.42133 15,7.648 4.964,1.22533 7.816,1.65866 11.30133,1.65866 3.48667,0 8.66134,-1.29866 9.50667,-2.52533 0.84533,-1.22533 3.16933,-3.39067 1.37333,-7.50266 -1.796,-4.112 -13.83733,-3.17334 -13.83733,-3.17334 l -19.964,2.02 z"
       style="fill:#c14242;fill-opacity:1;fill-rule:nonzero;stroke:none;stroke-width:1.33333"
       id="path7533" />
    <path
       d="m 314.27586,207.22734 c 10.352,0 12.14667,-4.184 12.14667,-6.348 0,0 0.95066,7.93466 -12.04134,7.93466 -12.992,0 -25.13866,-9.52266 -25.13866,-9.52266 0,0 14.68133,7.936 25.03333,7.936"
       style="fill:#000000;fill-opacity:1;fill-rule:nonzero;stroke:none;stroke-width:1.33333"
       id="path7537" />
    <path
       d="m 301.65959,199.56601 c 1.10134,0.028 1.23334,-1.148 2.25067,0.0213 0.50133,0.57733 0.628,0.78933 1.35467,0.716 0.44266,-0.044 1.21333,-0.52133 1.61333,-0.436 0.464,0.0987 0.68133,0.79333 1.12933,0.98533 0.552,0.23733 1.15467,-0.156 1.672,-0.0613 0.46267,0.084 0.60267,0.536 1.05334,0.59066 0.44533,0.0533 0.904,-0.28533 1.112,-0.65333 0.10266,1.52133 2.30133,0.87733 2.94533,0.20133 0.39733,0.35867 0.83333,0.84667 1.30933,1.12267 0.28,-0.34133 0.31334,-0.80533 0.46667,-1.19333 0.46933,0.292 1.21867,0.67066 1.212,-0.30267 0.95067,0.62 1.29867,-0.85066 1.432,-1.496 0.54667,0.22667 1.55867,0.924 1.51467,-0.32 0.184,0.19334 0.54533,0.26934 0.80133,0.28667 0.048,-0.068 0.032,-0.096 0.0853,-0.156 0.62,0.54 1.288,1.27066 1.91867,1.724 0.16267,-0.46267 -0.31733,-1.38 0.46933,-1.02933 0.40534,0.18133 0.67334,0.94933 0.636,1.33199 -0.0973,1.03334 -0.824,0.90267 -1.58,0.936 -0.78933,0.0347 -1.33066,0.42267 -2.03866,0.77067 -0.612,0.29867 -1.07734,0.692 -1.81867,0.50133 -0.27067,-0.0693 -0.36933,-0.376 -0.68133,-0.368 -0.25334,0.005 -0.60534,0.34934 -0.82534,0.472 -0.36133,0.19867 -0.412,0.28667 -0.768,0.28534 -0.52,-0.003 -0.89066,-0.336 -1.436,-0.20934 -0.68933,0.16 -0.93333,0.756 -1.716,0.74 -0.73466,-0.0147 -1.41466,-0.33733 -2.21333,-0.37733 -0.61733,-0.032 -1.59067,0.168 -1.82133,-0.592 -1.22534,-0.084 -2.33467,-0.41467 -3.388,-0.93467 -1.568,-0.77466 -3.31334,-1.03866 -5.01467,-1.36266 -1.49467,-0.284 -2.86,-0.892 -4.43867,-1.04267 -1.13466,-0.108 -1.59333,-0.13066 -2.33466,-0.84533 0.51333,-0.58133 1.972,-0.21867 2.71866,-0.288 0.69467,-0.0653 1.38,-0.42667 2.01867,-0.66933 0.428,0.652 1.53467,1.63066 2.36133,1.652"
       style="opacity:0.5;fill:#ffffff;fill-opacity:1;fill-rule:nonzero;stroke:none;stroke-width:1.33333"
       id="path7547" />
    <path
       d="m 313.57333,180.06107 c 0,0 -0.35867,5.44 1.04133,6.69867 1.4,1.25867 3.22933,0.74667 3.22933,0.74667 0,0 -2.476,-1.08667 -3.44266,-3.288 -0.72267,-1.644 -0.828,-4.15734 -0.828,-4.15734"
       style="fill:#000000;fill-opacity:1;fill-rule:nonzero;stroke:none;stroke-width:1.33333"
       id="path7557" />
    <path
       d="m 286.60133,199.04294 c -0.61334,-0.156 0.10533,-1.896 5.49333,-3.70667 5.38667,-1.81066 14.68133,-7.06933 16.688,-7.328 2.008,-0.25866 4.86,-0.604 6.76133,0.68934 1.90134,1.29333 2.42934,0.776 4.01334,-0.172 1.584,-0.948 4.81733,-0.472 6.40133,1.684 0.32,0.43333 0.748,1.228 1.11067,2.16 1.01466,2.60133 0.96133,6.66533 -2.79467,6.628 -0.792,-0.008 -1.03067,-0.62934 -1.636,-0.836 -1.272,-0.43467 -2.28133,-1.04534 -3.68533,-1.24 -1.40934,-0.19467 -2.868,-0.12 -4.29734,-0.16534 -2.548,-0.0813 -3.732,-0.66266 -6.28933,-0.584 -2.73333,0.0853 -6.56533,0.284 -9.068,1.09067 -2.26933,0.73067 -5.21067,1.86667 -7.73333,1.78 -1.864,-0.064 -3.14134,0.46533 -4.964,0"
       style="fill:#c14242;fill-opacity:1;fill-rule:nonzero;stroke:none;stroke-width:1.33333"
       id="path7561" />
    <path
       d="m 286.60133,199.04294 c -0.61334,-0.156 0.10533,-1.896 5.49333,-3.70667 5.38667,-1.81066 14.68133,-7.06933 16.688,-7.328 2.008,-0.25866 4.86,-0.604 6.76133,0.68934 1.90134,1.29333 2.42934,0.776 4.01334,-0.172 1.584,-0.948 4.81733,-0.472 6.40133,1.684 0.32,0.43333 0.748,1.228 1.11067,2.16 1.01466,2.60133 0.96133,6.66533 -2.79467,6.628 -0.792,-0.008 -1.03067,-0.62934 -1.636,-0.836 -1.272,-0.43467 -2.28133,-1.04534 -3.68533,-1.24 -1.40934,-0.19467 -2.868,-0.12 -4.29734,-0.16534 -2.548,-0.0813 -3.732,-0.66266 -6.28933,-0.584 -2.73333,0.0853 -6.56533,0.284 -9.068,1.09067 -2.26933,0.73067 -5.21067,1.86667 -7.73333,1.78 -1.864,-0.064 -3.14134,0.46533 -4.964,0"
       style="opacity:0.199997;fill:#000000;fill-opacity:1;fill-rule:nonzero;stroke:none;stroke-width:1.33333"
       id="path7571" />
    <path
       d="m 324.82626,199.38201 c 0.88133,0.044 1.69867,-0.19334 2.224,-0.904 1.28,-1.73334 0.68,-4.27734 0.112,-6.10667 0.39733,1.27867 0.0173,3.58533 -0.63067,4.76 -1.39333,2.52533 -3.56266,0.63867 -5.36,-0.46667 -1.41866,-0.872 -3.09733,-0.39466 -4.71066,-0.252 -1.74267,0.15467 -3.64,-0.10266 -5.25067,-0.62666 -1.448,-0.47067 -3.01467,-0.692 -4.548,-0.12134 -2.12933,0.792 -9.28667,1.68134 -11.4,2.58667 -2.112,0.904 -8.66133,0.904 -8.66133,0.904 0,0 6.444,0.996 8.87333,-0.18 2.42933,-1.176 9.06133,-1.62133 11.296,-2.148 1.78667,-0.42 3.71067,0.012 5.436,0.328 0.992,0.18 2.064,0.50267 3.08667,0.536 1.08,0.0333 2.21333,-0.25067 3.3,-0.288 1.38666,-0.0493 1.87466,-0.028 2.79466,0.61733 0.852,0.6 2.19734,1.3 3.43867,1.36134"
       style="fill:#000000;fill-opacity:1;fill-rule:nonzero;stroke:none;stroke-width:1.33333"
       id="path7581" />
  </g>
</svg>
