<?xml version="1.0" encoding="UTF-8" standalone="no"?>
<!-- Created with Inkscape (http://www.inkscape.org/) -->

<svg
   version="1.1"
   id="svg10700"
   width="400"
   height="400"
   viewBox="0 0 400 400"
   sodipodi:docname="Mouth2Lipstick.svg"
   inkscape:version="1.2.2 (b0a8486, 2022-12-01)"
   xmlns:inkscape="http://www.inkscape.org/namespaces/inkscape"
   xmlns:sodipodi="http://sodipodi.sourceforge.net/DTD/sodipodi-0.dtd"
   xmlns="http://www.w3.org/2000/svg"
   xmlns:svg="http://www.w3.org/2000/svg">
  <defs
     id="defs10704" />
  <sodipodi:namedview
     id="namedview10702"
     pagecolor="#ffffff"
     bordercolor="#666666"
     borderopacity="1.0"
     inkscape:showpageshadow="2"
     inkscape:pageopacity="0.0"
     inkscape:pagecheckerboard="0"
     inkscape:deskcolor="#d1d1d1"
     showgrid="false"
     inkscape:zoom="1.475"
     inkscape:cx="193.55932"
     inkscape:cy="201.01695"
     inkscape:window-width="1440"
     inkscape:window-height="957"
     inkscape:window-x="2383"
     inkscape:window-y="240"
     inkscape:window-maximized="0"
     inkscape:current-layer="g10708">
    <inkscape:page
       x="0"
       y="0"
       id="page10706"
       width="400"
       height="400" />
  </sodipodi:namedview>
  <g
     id="g10708"
     inkscape:groupmode="layer"
     inkscape:label="Page 1">
    <path
       d="m 311.11613,205.9552 c -1.99467,-0.23066 -5.37067,-0.716 -9.932,-2.324 -4.424,-1.56 -8.99334,-1.64133 -8.99334,-1.64133 0,0 11.03067,9.056 23.436,9.35867 12.40667,0.304 12.26534,-7.928 12.52,-8.45467 -3.55066,2.00933 -12.80133,3.54933 -17.03066,3.06133"
       style="opacity:0.199997;fill:#000000;fill-opacity:1;fill-rule:nonzero;stroke:none;stroke-width:1.33333"
       id="path17022" />
    <path
       d="m 303.99986,206.4344 c 5.172,1.19067 8.14267,1.604 11.77333,1.57867 3.63067,-0.024 9.02267,-1.36 9.90267,-2.592 0.67733,-0.948 1.44933,-1.79467 1.832,-2.90933 0.20267,-0.59067 0.364,-1.24534 0.34133,-1.86934 -0.0147,-0.42533 -0.22666,-0.75866 -0.37466,-1.09999 -0.104,-0.10534 -0.196,-0.22 -0.25467,-0.36 -0.27333,-0.65867 0.15867,-1.09067 0.32933,-1.72267 0.29334,-1.088 0.10934,-2.32667 -0.25466,-3.372 -1.21067,-3.48667 -4.78667,-5.328 -8.428,-5.22933 -2.452,0.0667 -4.67734,1.47866 -4.67734,1.47866 0,0 -3.048,-2.71733 -6.86266,-2.61333 -3.81467,0.10267 -7.22934,0.87333 -10.44,3.61333 -1.45067,1.23867 -3.12267,2.01734 -4.768,3.01734 -0.82134,0.49866 -1.64267,1.04533 -2.512,1.48 -0.33867,0.16933 -0.72934,0.28533 -1.08534,0.44133 0.092,0.84267 0.296,1.67867 0.632,2.49067 0.816,1.97466 2.40534,2.84133 4.444,3.86133 3.17867,1.58933 7.16,3.06 10.40267,3.80666"
       style="fill:#c14242;fill-opacity:1;fill-rule:nonzero;stroke:none;stroke-width:1.33333"
       id="path17032" />
    <path
       d="m 315.11293,207.22454 c 10.78266,-0.0733 12.65333,-4.26934 12.65333,-6.43467 -10e-4,9.47867 -11.53867,9.59467 -18.02667,8.096 -3.124,-0.72133 -9.10266,-2.288 -12.256,-3.70267 -2.508,-1.12533 -6.71866,-2.58266 -7.56133,-5.18399 0.14267,0.43999 2.396,1.20933 2.884,1.43599 1.04267,0.48534 2.10133,0.94267 3.176,1.372 2.14933,0.85867 4.36,1.604 6.61467,2.23334 4.376,1.22 8.34666,2.212 12.516,2.184"
       style="fill:#000000;fill-opacity:1;fill-rule:nonzero;stroke:none;stroke-width:1.33333"
       id="path17036" />
    <path
       d="m 311.68386,202.6116 c -0.808,0.02 -1.584,0.132 -2.38667,0.164 -0.34933,0.0133 -0.79333,0.016 -1.10666,-0.0893 -0.404,-0.13467 -0.36934,-0.24933 -0.64534,-0.54933 -0.49466,-0.536 -1.43333,-0.71467 -2.05066,-1.08134 -0.64534,-0.384 -1.26,-0.81333 -2.092,-0.96666 -0.66667,-0.12133 -0.692,-0.22267 -1.01067,-0.70133 -0.208,-0.312 -0.452,-0.616 -0.7,-0.91067 0.444,-0.52 1.22267,-0.47333 1.91467,-0.444 0.17733,0.356 0.44933,0.59867 0.87733,0.68133 0.63067,0.12267 0.64,-0.21866 1.112,-0.46266 0.288,-0.148 0.92267,-0.348 1.26,-0.24934 0.42533,0.124 0.23867,0.45334 0.58667,0.672 0.356,0.224 0.672,-0.11333 1.05466,-0.19466 0.50267,-0.10534 0.88667,0.0253 1.36134,0.14 0.756,0.18533 1.42933,0.63066 2.084,1.02 1.024,0.61066 1.81066,0.46933 2.98133,0.40933 0.444,-0.0227 1.06667,0.11733 1.48533,-0.0147 1.07467,-0.33866 1.32134,-1.67866 2.47467,-1.98133 0.49067,-0.12933 0.76933,0.46133 1.2,0.492 0.492,0.0347 0.61733,-0.444 0.95467,-0.64 0.72266,-0.42133 0.96,0.33467 1.55733,0.53067 0.19733,0.064 0.44933,-0.0347 0.64667,0.0347 0.21066,0.076 0.572,0.32934 0.72533,0.48267 0.27867,0.276 0.332,0.74933 0.76133,0.94 0.14667,0.76533 -0.41333,0.72533 -0.93866,1.06133 -0.40934,0.26267 -0.59467,0.66667 -0.98667,0.97733 -0.46933,0.37334 -0.92267,0.168 -1.45733,0.13067 -0.68,-0.048 -1.16267,0.23733 -1.79867,0.38933 -0.456,0.10934 -0.99067,0.18534 -1.464,0.16667 -0.464,-0.0187 -1.02267,-0.112 -1.46667,-0.23467 -0.34933,-0.0973 -0.58,-0.34533 -0.96666,-0.336 -0.50934,0.0133 -0.69334,0.36267 -1.05467,0.60134 -0.828,0.544 -1.98,-0.06 -2.912,-0.0373"
       style="opacity:0.5;fill:#ffffff;fill-opacity:1;fill-rule:nonzero;stroke:none;stroke-width:1.33333"
       id="path17046" />
    <path
       d="m 287.20013,197.18161 c 5.73866,-0.3 18.27066,-4.57067 23.72,-2.25334 5.44933,2.316 4.73333,-0.92266 8.99066,-0.32266 4.72267,0.66533 5.268,2.31733 6.26667,4.14133 2.452,0.768 3.04267,-10.17067 -7.31067,-9.888 -2.452,0.0667 -4.67733,1.47867 -4.67733,1.47867 0,0 -3.048,-2.71867 -6.86267,-2.61467 -3.81466,0.104 -7.22933,0.87333 -10.44,3.61467 -2.79466,2.38533 -9.68666,5.844 -9.68666,5.844"
       style="opacity:0.199997;fill:#000000;fill-opacity:1;fill-rule:nonzero;stroke:none;stroke-width:1.33333"
       id="path17062" />
    <path
       d="m 313.82253,180.15054 c 0,0 -2.32667,5.20267 -2.1,6.14 0.22533,0.93733 2.81066,2.55333 2.81066,2.55333 0,0 -2.036,-2.068 -1.712,-3.58666 0.32267,-1.52 1.00134,-5.10667 1.00134,-5.10667"
       style="fill:#000000;fill-opacity:1;fill-rule:nonzero;stroke:none;stroke-width:1.33333"
       id="path17072" />
    <path
       d="m 287.60413,197.75281 c 0.34133,0.004 0.708,-0.0947 1.00666,-0.15867 0.412,-0.0893 0.83067,-0.15867 1.24534,-0.23733 1.124,-0.212 2.25066,-0.42 3.37733,-0.62 2.17333,-0.388 4.35333,-0.77734 6.55067,-1.036 3.92666,-0.46267 9.31866,-1.632 11.68,-0.16667 2.36133,1.46667 2.90666,1.02667 4.088,0.496 1.18,-0.532 5.176,-2.47733 7.53733,-0.31333 0.76267,0.69866 1.46933,1.444 2.12,2.24133 0.40667,0.49733 0.78533,1.03067 1.548,0.83333 0.35867,-0.092 0.58533,-0.32533 0.68933,-0.656 0.048,-0.148 0.324,-0.68933 0.0627,-0.79466 -0.0707,-0.028 -0.25467,0.0973 -0.368,0.12666 -0.16133,0.0413 -0.31867,0.0893 -0.472,0.10934 -0.256,0.032 -0.57067,-0.0853 -0.75467,-0.25067 -0.208,-0.188 -0.41466,-0.36933 -0.64666,-0.544 -0.496,-0.37067 -0.988,-0.74933 -1.452,-1.15733 -1.18,-1.03867 -1.99734,-1.556 -4.54134,-1.53867 -2.54266,0.0173 -4.35866,1.68667 -5.26666,1.692 -0.908,0.007 -3.63334,-2.15467 -6.08534,-2.13733 -2.452,0.016 -9.74933,1.37333 -12.568,1.916 -0.93066,0.17866 -1.88266,0.276 -2.82533,0.38666 -0.78,0.092 -1.55067,0.252 -2.336,0.31867 -0.68133,0.0587 -1.35733,-0.024 -2.048,-0.0173 -0.49467,0.004 -0.86133,-0.256 -1.32533,-0.28534 -0.52667,-0.0333 -0.53067,0.47867 -0.43734,0.80267 0.088,0.30533 0.32667,0.576 0.56667,0.77733 0.184,0.156 0.41333,0.21067 0.65467,0.21334"
       style="fill:#000000;fill-opacity:1;fill-rule:nonzero;stroke:none;stroke-width:1.33333"
       id="path17076" />
  </g>
</svg>
