<?xml version="1.0" encoding="UTF-8" standalone="no"?>
<!-- Created with Inkscape (http://www.inkscape.org/) -->

<svg
   version="1.1"
   id="svg1129"
   width="400"
   height="400"
   viewBox="0 0 400 400"
   sodipodi:docname="Mouth1Lipstick.svg"
   inkscape:version="1.2.2 (b0a8486, 2022-12-01)"
   xmlns:inkscape="http://www.inkscape.org/namespaces/inkscape"
   xmlns:sodipodi="http://sodipodi.sourceforge.net/DTD/sodipodi-0.dtd"
   xmlns="http://www.w3.org/2000/svg"
   xmlns:svg="http://www.w3.org/2000/svg">
  <defs
     id="defs1133" />
  <sodipodi:namedview
     id="namedview1131"
     pagecolor="#ffffff"
     bordercolor="#666666"
     borderopacity="1.0"
     inkscape:showpageshadow="2"
     inkscape:pageopacity="0.0"
     inkscape:pagecheckerboard="0"
     inkscape:deskcolor="#d1d1d1"
     showgrid="false"
     inkscape:zoom="2.15"
     inkscape:cx="199.76744"
     inkscape:cy="200"
     inkscape:window-width="1920"
     inkscape:window-height="1080"
     inkscape:window-x="2501"
     inkscape:window-y="235"
     inkscape:window-maximized="0"
     inkscape:current-layer="layer5">
    <inkscape:page
       x="0"
       y="0"
       id="page1135"
       width="400"
       height="400" />
  </sodipodi:namedview>
  <g
     id="g1137"
     inkscape:groupmode="layer"
     inkscape:label="Original Mouth"
     style="display:none"
     sodipodi:insensitive="true">
    <path
       d="m 313.57333,180.06108 c 0,0 -0.35867,6.47647 1.04133,7.97496 1.4,1.49848 3.22933,0.88893 3.22933,0.88893 0,0 -2.476,-1.29371 -3.44266,-3.91446 -0.72267,-1.95723 -0.828,-4.94943 -0.828,-4.94943"
       style="fill:#000000;fill-opacity:1;fill-rule:nonzero;stroke:none;stroke-width:1.45481"
       id="path7557" />
    <path
       d="m 310.43893,204.91549 c -1.91467,-0.21427 -5.31334,-0.66037 -9.264,-2.09935 -3.832,-1.39684 -7.788,-1.49636 -7.788,-1.49636 0,0 9.47333,8.01921 21.38266,8.35876 11.90934,0.34072 11.77467,-6.88816 12.01867,-7.34948 -3.408,1.74341 -12.28933,3.03955 -16.34933,2.58643"
       style="opacity:0.199997;fill:#000000;fill-opacity:1;fill-rule:nonzero;stroke:none;stroke-width:1.24945"
       id="path7523" />
    <path
       d="m 290.40386,197.75511 c 0,0 -3.27467,0.0632 -1.796,0.82311 1.47867,0.76106 10.03467,5.63885 15,6.71604 4.964,1.07602 7.816,1.45655 11.30133,1.45655 3.48667,0 8.66134,-1.14041 9.50667,-2.21761 0.84533,-1.07601 3.16933,-2.97749 1.37333,-6.58841 -1.796,-3.61093 -13.83733,-2.78665 -13.83733,-2.78665 l -19.964,1.77385 z"
       style="fill:#c14242;fill-opacity:1;fill-rule:nonzero;stroke:none;stroke-width:1.24945"
       id="path7533" />
    <path
       d="m 314.27586,206.05403 c 10.352,0 12.14667,-3.67415 12.14667,-5.57445 0,0 0.95066,6.96777 -12.04134,6.96777 -12.992,0 -25.13866,-8.36227 -25.13866,-8.36227 0,0 14.68133,6.96895 25.03333,6.96895"
       style="fill:#000000;fill-opacity:1;fill-rule:nonzero;stroke:none;stroke-width:1.24945"
       id="path7537" />
    <path
       d="m 301.65959,199.32628 c 1.10134,0.0246 1.23334,-1.00811 2.25067,0.0187 0.50133,0.50698 0.628,0.69314 1.35467,0.62875 0.44266,-0.0386 1.21333,-0.4578 1.61333,-0.38287 0.464,0.0867 0.68133,0.69666 1.12933,0.86526 0.552,0.20841 1.15467,-0.13699 1.672,-0.0538 0.46267,0.0738 0.60267,0.47068 1.05334,0.51868 0.44533,0.0468 0.904,-0.25056 1.112,-0.57371 0.10266,1.33594 2.30133,0.77042 2.94533,0.17679 0.39733,0.31497 0.83333,0.7435 1.30933,0.98587 0.28,-0.29974 0.31334,-0.7072 0.46667,-1.04792 0.46933,0.25642 1.21867,0.58894 1.212,-0.26578 0.95067,0.54444 1.29867,-0.74701 1.432,-1.31371 0.54667,0.19905 1.55867,0.81141 1.51467,-0.281 0.184,0.16978 0.54533,0.23652 0.80133,0.25173 0.048,-0.0597 0.032,-0.0843 0.0853,-0.13699 0.62,0.4742 1.288,1.11583 1.91867,1.51392 0.16267,-0.40629 -0.31733,-1.21184 0.46933,-0.9039 0.40534,0.15924 0.67334,0.83365 0.636,1.16968 -0.0973,0.90742 -0.824,0.79268 -1.58,0.82194 -0.78933,0.0305 -1.33066,0.37117 -2.03866,0.67676 -0.612,0.26228 -1.07734,0.60768 -1.81867,0.44024 -0.27067,-0.0608 -0.36933,-0.33018 -0.68133,-0.32315 -0.25334,0.004 -0.60534,0.30677 -0.82534,0.41448 -0.36133,0.17446 -0.412,0.25174 -0.768,0.25057 -0.52,-0.003 -0.89066,-0.29506 -1.436,-0.18383 -0.68933,0.1405 -0.93333,0.66388 -1.716,0.64983 -0.73466,-0.0129 -1.41466,-0.29623 -2.21333,-0.33135 -0.61733,-0.0281 -1.59067,0.14752 -1.82133,-0.51986 -1.22534,-0.0738 -2.33467,-0.36414 -3.388,-0.82078 -1.568,-0.68026 -3.31334,-0.91209 -5.01467,-1.19661 -1.49467,-0.24939 -2.86,-0.78331 -4.43867,-0.91562 -1.13466,-0.0948 -1.59333,-0.11473 -2.33466,-0.74232 0.51333,-0.51049 1.972,-0.19202 2.71866,-0.2529 0.69467,-0.0573 1.38,-0.37468 2.01867,-0.58777 0.428,0.57255 1.53467,1.43195 2.36133,1.45069"
       style="opacity:0.5;fill:#ffffff;fill-opacity:1;fill-rule:nonzero;stroke:none;stroke-width:1.24945"
       id="path7547" />
    <path
       d="m 286.60133,198.86695 c -0.61334,-0.13699 0.10533,-1.66496 5.49333,-3.25499 5.38667,-1.59002 14.68133,-6.20789 16.688,-6.43504 2.008,-0.22714 4.86,-0.53039 6.76133,0.60534 1.90134,1.13573 2.42934,0.68144 4.01334,-0.15104 1.584,-0.83248 4.81733,-0.41448 6.40133,1.4788 0.32,0.38052 0.748,1.07836 1.11067,1.89679 1.01466,2.28434 0.96133,5.85312 -2.79467,5.82034 -0.792,-0.007 -1.03067,-0.55265 -1.636,-0.73413 -1.272,-0.3817 -2.28133,-0.91796 -3.68533,-1.0889 -1.40934,-0.17095 -2.868,-0.10538 -4.29734,-0.14519 -2.548,-0.0714 -3.732,-0.58191 -6.28933,-0.51284 -2.73333,0.0749 -6.56533,0.24939 -9.068,0.95777 -2.26933,0.64163 -5.21067,1.6392 -7.73333,1.56309 -1.864,-0.0562 -3.14134,0.40863 -4.964,0"
       style="fill:#c14242;fill-opacity:1;fill-rule:nonzero;stroke:none;stroke-width:1.24945"
       id="path7561" />
    <path
       d="m 286.60133,198.86695 c -0.61334,-0.13699 0.10533,-1.66496 5.49333,-3.25499 5.38667,-1.59002 14.68133,-6.20789 16.688,-6.43504 2.008,-0.22714 4.86,-0.53039 6.76133,0.60534 1.90134,1.13573 2.42934,0.68144 4.01334,-0.15104 1.584,-0.83248 4.81733,-0.41448 6.40133,1.4788 0.32,0.38052 0.748,1.07836 1.11067,1.89679 1.01466,2.28434 0.96133,5.85312 -2.79467,5.82034 -0.792,-0.007 -1.03067,-0.55265 -1.636,-0.73413 -1.272,-0.3817 -2.28133,-0.91796 -3.68533,-1.0889 -1.40934,-0.17095 -2.868,-0.10538 -4.29734,-0.14519 -2.548,-0.0714 -3.732,-0.58191 -6.28933,-0.51284 -2.73333,0.0749 -6.56533,0.24939 -9.068,0.95777 -2.26933,0.64163 -5.21067,1.6392 -7.73333,1.56309 -1.864,-0.0562 -3.14134,0.40863 -4.964,0"
       style="opacity:0.199997;fill:#000000;fill-opacity:1;fill-rule:nonzero;stroke:none;stroke-width:1.24945"
       id="path7571" />
    <path
       d="m 324.82626,199.1647 c 0.88133,0.0386 1.69867,-0.16978 2.224,-0.79384 1.28,-1.52212 0.68,-3.75612 0.112,-5.36253 0.39733,1.12285 0.0173,3.14843 -0.63067,4.17996 -1.39333,2.21761 -3.56266,0.56085 -5.36,-0.4098 -1.41866,-0.76574 -3.09733,-0.34657 -4.71066,-0.22129 -1.74267,0.13582 -3.64,-0.0901 -5.25067,-0.5503 -1.448,-0.41332 -3.01467,-0.60768 -4.548,-0.10655 -2.12933,0.69549 -9.28667,1.47645 -11.4,2.27146 -2.112,0.79385 -8.66133,0.79385 -8.66133,0.79385 0,0 6.444,0.87463 8.87333,-0.15807 2.42933,-1.0327 9.06133,-1.42376 11.296,-1.88625 1.78667,-0.36882 3.71067,0.0105 5.436,0.28803 0.992,0.15806 2.064,0.44141 3.08667,0.47068 1.08,0.0293 2.21333,-0.22012 3.3,-0.2529 1.38666,-0.0433 1.87466,-0.0246 2.79466,0.5421 0.852,0.52689 2.19734,1.14159 3.43867,1.19545"
       style="fill:#000000;fill-opacity:1;fill-rule:nonzero;stroke:none;stroke-width:1.24945"
       id="path7581" />
  </g>
  <g
     inkscape:groupmode="layer"
     id="layer5"
     inkscape:label="Revised Mouth"
     style="opacity:1">
    <path
       id="path172160"
       style="fill:#c14242;fill-opacity:1;fill-rule:nonzero;stroke:none;stroke-width:1.33333"
       d="m 309.81257,188.82551 c -1.04666,0.384 -18.98231,6.5228 -22.62898,7.13347 0,0 1.88751,0.077 4.15039,0.16211 l -3.23632,0.69727 c 0,0 2.43634,2.70583 4.95312,3.86719 2.71666,1.2536 5.89727,2.66294 9.1816,3.51809 3.14955,0.82005 6.69746,1.41887 9.79492,1.65039 3.09745,0.23152 6.88869,0.50167 9.45898,-0.15039 2.57029,-0.65206 3.86891,-1.53402 5.17969,-2.43945 1.31078,-0.90543 2.61096,-2.7666 3.20512,-3.81888 0.59416,-1.05228 0.41211,-3.37695 0.41211,-3.37695 l -0.79797,-0.54171 c 0.36326,0.0209 0.67541,0.10271 1.00305,0.0241 0,0 -5.01458,-5.71769 -6.59512,-6.2642 -0.65929,-0.22797 -1.27729,-0.41728 -2.60932,-0.31732 -1.33202,0.1 -2.4565,1.12823 -3.83945,1.15044 -1.38295,0.0222 -3.48754,-1.44597 -4.47177,-1.45231 -0.98423,-0.006 -2.76805,0.0146 -3.16005,0.15814 z"
       sodipodi:nodetypes="ccccsssssscccszzccc" />
    <path
       d="m 326.94559,202.97933 c 0.34046,-0.25341 0.27973,-0.52146 0.0291,0.0145 -0.24934,0.53733 -0.0393,7.764 -12.19667,7.368 -12.15866,-0.39467 -21.82933,-9.71733 -21.82933,-9.71733 0,0 3.28923,1.57006 7.96001,3.18932 3.29698,1.14299 7.14603,1.63081 9.05555,1.80463 2.04465,0.26044 5.38607,0.45924 8.63571,-0.003 3.3387,-0.47497 6.58214,-1.62839 8.34566,-2.6561 z"
       style="opacity:0.199997;fill:#000000;fill-opacity:1;fill-rule:nonzero;stroke:none;stroke-width:1.33333"
       id="path135096"
       sodipodi:nodetypes="ccccscscc" />
    <path
       id="path135112"
       style="opacity:0.199997;fill:#000000;fill-opacity:1;fill-rule:nonzero;stroke:none;stroke-width:1.33333"
       d="M 312.97266 188.66797 C 311.98843 188.66197 310.2045 188.68263 309.8125 188.82617 C 308.76584 189.21017 290.83026 195.34831 287.18359 195.95898 C 287.18359 195.95898 289.07111 196.03598 291.33398 196.12109 L 291.06055 196.17969 C 294.07082 196.35078 297.62752 196.54643 298.79883 196.56641 C 300.63444 196.59771 302.03391 196.39741 302.24023 196.32617 C 302.94556 196.08217 308.47218 194.73842 310.35352 194.98242 C 312.23617 195.22776 315.89778 196.17917 317.42578 195.8125 C 318.95511 195.44583 321.17578 194.84961 321.17578 194.84961 C 321.17578 194.84961 326.80686 195.64445 329.56055 195.58008 L 329.48438 195.52734 C 329.62613 195.5355 329.75657 195.55285 329.88672 195.56641 C 330.10093 195.55445 330.28812 195.53451 330.44922 195.50781 C 330.33169 195.37398 325.45418 189.82707 323.89258 189.28711 C 323.23329 189.05914 322.61523 188.86879 321.2832 188.96875 C 319.95118 189.06875 318.82826 190.09693 317.44531 190.11914 C 316.06236 190.14134 313.95689 188.67431 312.97266 188.66797 z " />
    <path
       d="m 305.57408,204.86828 c 1.53702,0.30302 2.8622,0.62815 4.53241,0.74389 1.67021,0.11574 3.39524,0.43077 5.55846,0.30826 2.16321,-0.12251 5.77379,-0.65467 7.62664,-1.41798 1.85286,-0.76331 2.4669,-0.91437 3.70557,-1.54504 -0.21067,0.108 -0.10112,0.61844 -1.11712,1.49978 -1.016,0.88133 -3.02222,2.01956 -4.89511,2.49201 -1.87289,0.47244 -3.24115,0.59766 -4.80448,0.76831 -1.56333,0.17065 -3.31263,0.12524 -4.97129,-0.0708 -2.43334,-0.288 -4.9609,-0.99713 -6.72756,-1.86489 -1.76665,-0.86777 -2.57525,-1.42497 -3.76178,-2.05644 1.67363,0.58895 3.31725,0.83988 4.85426,1.1429 z"
       style="fill:#000000;fill-opacity:1;fill-rule:nonzero;stroke:none;stroke-width:1.33333"
       id="path135122"
       sodipodi:nodetypes="zzzzczzzczcz" />
    <path
       d="m 321.51436,194.65384 c -0.63733,0.0347 -1.57022,0.49036 -2.15688,0.57836 -2.568,0.38267 -4.9178,0.45701 -7.79467,-0.22533 -2.87687,-0.68234 -6.54359,0.0234 -8.38093,0.69409 -1.128,0.41067 -2.46941,0.66959 -3.64408,0.72559 -1.644,0.08 -2.42686,0.0507 -3.62965,-0.0684 -1.2028,-0.11917 -2.1978,-0.24343 -3.73114,-0.38214 -0.92266,-0.0827 -2.06,-0.276 -2.816,-0.79067 -0.84266,-0.572 -0.37733,-1.30267 -0.41066,-2.10133 0.003,0.0693 -1.15067,1.24933 -1.292,1.40533 -0.61467,0.67733 -1.23067,1.644 -1.312,2.52933 -0.064,0.71067 1.14933,0.51467 1.604,0.40534 2.58,-0.62534 3.4625,-0.87493 6.16917,-0.7976 2.792,0.0787 4.68423,0.73534 7.48556,0.37534 0.60533,-0.0773 1.53891,-0.39641 2.13225,-0.54708 2.40933,-0.612 4.852,-0.42933 7.29733,-0.18533 1.196,0.12 2.4,0.14267 3.51867,0.51067 0.996,0.32666 2.24533,0.40933 3.24,0.0227 1.18666,-0.46266 2.252,-0.94533 3.50933,-1.22666 2.03733,-0.45734 4.05663,0.55147 6.14863,0.53013 0.56533,-0.007 1.22546,-0.42502 1.71804,-0.46617 0.49258,-0.0412 1.33333,0.99466 1.09866,1.28533 0.30534,-0.37733 0.216,-0.76667 0.188,-1.192 -0.0133,-0.20667 -0.19866,-0.90533 -0.12666,-1.05733 -0.032,0.068 -0.0573,0.092 -0.0693,0.17866 -0.37466,0.14267 -0.49319,0.16866 -0.896,0.33734 -0.40281,0.16868 -0.56583,0.32524 -1.10337,0.39017 -0.53753,0.0649 -1.27867,-0.224 -1.91733,-0.34 -0.92267,-0.16533 -1.64234,-0.50525 -2.62903,-0.69592 -0.72535,-0.14 -1.50794,0.069 -2.19994,0.10762 z"
       style="fill:#000000;fill-opacity:1;fill-rule:nonzero;stroke:none;stroke-width:1.33333"
       id="path135126"
       sodipodi:nodetypes="cczcczcccccccccccccczcccczzccc" />
    <path
       d="m 303.58026,199.09644 c 1.19682,-0.0229 1.29961,-1.05995 2.44457,-0.0774 0.56427,0.4852 0.70911,0.66582 1.49563,0.57047 0.47914,-0.0575 1.29948,-0.50922 1.73676,-0.45141 0.50723,0.0668 0.76717,0.66705 1.26024,0.81641 0.60755,0.18469 1.24838,-0.18615 1.81338,-0.1251 0.50528,0.054 0.67288,0.4446 1.16411,0.47333 0.4854,0.0278 0.97176,-0.28894 1.18492,-0.62071 0.16393,1.33053 2.52909,0.67163 3.20505,0.0509 0.44379,0.29778 0.93405,0.70737 1.46042,0.92925 0.29226,-0.31146 0.31247,-0.72003 0.46557,-1.06703 0.51969,0.2362 1.3464,0.53649 1.30559,-0.31728 1.05364,0.50345 1.3808,-0.80185 1.50333,-1.3738 0.6014,0.17557 1.7243,0.74427 1.63362,-0.34542 0.20647,0.1618 0.60143,0.21307 0.87999,0.21735 0.0498,-0.0617 0.0315,-0.0856 0.0873,-0.14052 0.69184,0.44738 1.44236,1.06 2.14278,1.43089 0.16068,-0.41292 -0.39214,-1.19738 0.47412,-0.92323 0.44639,0.14182 0.76386,0.80427 0.73652,1.14163 -0.07,0.91087 -0.86359,0.82723 -1.68333,0.88872 -0.85588,0.0641 -1.43029,0.42767 -2.18706,0.76323 -0.65423,0.28819 -1.14594,0.65318 -1.95748,0.5175 -0.29628,-0.0492 -0.41398,-0.31417 -0.75249,-0.29383 -0.27493,0.0148 -0.64526,0.33236 -0.87991,0.44937 -0.38549,0.18975 -0.43747,0.26912 -0.82407,0.28315 -0.56475,0.0191 -0.97869,-0.25683 -1.56646,-0.12241 -0.74298,0.16979 -0.98737,0.70318 -1.83777,0.72254 -0.79822,0.0183 -1.5477,-0.23564 -2.41629,-0.23666 -0.67142,-0.002 -1.72141,0.21528 -1.99807,-0.44174 -1.3334,-0.0214 -2.54935,-0.26425 -3.71102,-0.67559 -1.72928,-0.61283 -3.63352,-0.77002 -5.49203,-0.98173 -1.63275,-0.18542 -3.13622,-0.66067 -4.85558,-0.72552 -1.23577,-0.0464 -1.73459,-0.0467 -2.56419,-0.64214 0.53735,-0.53199 2.13371,-0.27601 2.94206,-0.3687 0.75205,-0.0869 1.48374,-0.43328 2.16886,-0.67345 0.4872,0.55385 1.72261,1.36537 2.62095,1.34882"
       style="opacity:0.5;fill:#ffffff;fill-opacity:1;fill-rule:nonzero;stroke:none;stroke-width:1.30247"
       id="path7547-3" />
  </g>
  <g
     inkscape:groupmode="layer"
     id="layer6"
     inkscape:label="Philtrum">
    <path
       d="m 313.49186,179.92254 c 0,0 -1.336,5.27867 -0.116,6.64933 1.21867,1.37067 3.192,1.44 3.192,1.44 0,0 -2.616,-1.57733 -2.508,-3.428 0.108,-1.85066 -0.568,-4.66133 -0.568,-4.66133"
       style="opacity:1;fill:#000000;fill-opacity:1;fill-rule:nonzero;stroke:none;stroke-width:1.33333"
       id="path135130" />
  </g>
</svg>
