<?xml version="1.0" encoding="UTF-8" standalone="no"?>
<!-- Created with Inkscape (http://www.inkscape.org/) -->

<svg
   version="1.1"
   id="svg1129"
   width="400"
   height="400"
   viewBox="0 0 400 400"
   sodipodi:docname="Mouth1Lipstick.svg"
   inkscape:version="1.2.2 (b0a8486, 2022-12-01)"
   xmlns:inkscape="http://www.inkscape.org/namespaces/inkscape"
   xmlns:sodipodi="http://sodipodi.sourceforge.net/DTD/sodipodi-0.dtd"
   xmlns="http://www.w3.org/2000/svg"
   xmlns:svg="http://www.w3.org/2000/svg">
  <defs
     id="defs1133" />
  <sodipodi:namedview
     id="namedview1131"
     pagecolor="#ffffff"
     bordercolor="#666666"
     borderopacity="1.0"
     inkscape:showpageshadow="2"
     inkscape:pageopacity="0.0"
     inkscape:pagecheckerboard="0"
     inkscape:deskcolor="#d1d1d1"
     showgrid="false"
     inkscape:zoom="4.17193"
     inkscape:cx="272.05634"
     inkscape:cy="199.90748"
     inkscape:window-width="1920"
     inkscape:window-height="1080"
     inkscape:window-x="2430"
     inkscape:window-y="183"
     inkscape:window-maximized="0"
     inkscape:current-layer="g1137">
    <inkscape:page
       x="0"
       y="0"
       id="page1135"
       width="400"
       height="400" />
  </sodipodi:namedview>
  <g
     id="g1137"
     inkscape:groupmode="layer"
     inkscape:label="Page 1">
    <path
       d="m 313.57333,180.06108 c 0,0 -0.35867,6.47647 1.04133,7.97496 1.4,1.49848 3.22933,0.88893 3.22933,0.88893 0,0 -2.476,-1.29371 -3.44266,-3.91446 -0.72267,-1.95723 -0.828,-4.94943 -0.828,-4.94943"
       style="fill:#000000;fill-opacity:1;fill-rule:nonzero;stroke:none;stroke-width:1.45481"
       id="path7557" />
    <path
       d="m 310.43893,204.91549 c -1.91467,-0.21427 -5.31334,-0.66037 -9.264,-2.09935 -3.832,-1.39684 -7.788,-1.49636 -7.788,-1.49636 0,0 9.47333,8.01921 21.38266,8.35876 11.90934,0.34072 11.77467,-6.88816 12.01867,-7.34948 -3.408,1.74341 -12.28933,3.03955 -16.34933,2.58643"
       style="opacity:0.199997;fill:#000000;fill-opacity:1;fill-rule:nonzero;stroke:none;stroke-width:1.24945"
       id="path7523" />
    <path
       d="m 290.40386,197.75511 c 0,0 -3.27467,0.0632 -1.796,0.82311 1.47867,0.76106 10.03467,5.63885 15,6.71604 4.964,1.07602 7.816,1.45655 11.30133,1.45655 3.48667,0 8.66134,-1.14041 9.50667,-2.21761 0.84533,-1.07601 3.16933,-2.97749 1.37333,-6.58841 -1.796,-3.61093 -13.83733,-2.78665 -13.83733,-2.78665 l -19.964,1.77385 z"
       style="fill:#c14242;fill-opacity:1;fill-rule:nonzero;stroke:none;stroke-width:1.24945"
       id="path7533" />
    <path
       d="m 314.27586,206.05403 c 10.352,0 12.14667,-3.67415 12.14667,-5.57445 0,0 0.95066,6.96777 -12.04134,6.96777 -12.992,0 -25.13866,-8.36227 -25.13866,-8.36227 0,0 14.68133,6.96895 25.03333,6.96895"
       style="fill:#000000;fill-opacity:1;fill-rule:nonzero;stroke:none;stroke-width:1.24945"
       id="path7537" />
    <path
       d="m 301.65959,199.32628 c 1.10134,0.0246 1.23334,-1.00811 2.25067,0.0187 0.50133,0.50698 0.628,0.69314 1.35467,0.62875 0.44266,-0.0386 1.21333,-0.4578 1.61333,-0.38287 0.464,0.0867 0.68133,0.69666 1.12933,0.86526 0.552,0.20841 1.15467,-0.13699 1.672,-0.0538 0.46267,0.0738 0.60267,0.47068 1.05334,0.51868 0.44533,0.0468 0.904,-0.25056 1.112,-0.57371 0.10266,1.33594 2.30133,0.77042 2.94533,0.17679 0.39733,0.31497 0.83333,0.7435 1.30933,0.98587 0.28,-0.29974 0.31334,-0.7072 0.46667,-1.04792 0.46933,0.25642 1.21867,0.58894 1.212,-0.26578 0.95067,0.54444 1.29867,-0.74701 1.432,-1.31371 0.54667,0.19905 1.55867,0.81141 1.51467,-0.281 0.184,0.16978 0.54533,0.23652 0.80133,0.25173 0.048,-0.0597 0.032,-0.0843 0.0853,-0.13699 0.62,0.4742 1.288,1.11583 1.91867,1.51392 0.16267,-0.40629 -0.31733,-1.21184 0.46933,-0.9039 0.40534,0.15924 0.67334,0.83365 0.636,1.16968 -0.0973,0.90742 -0.824,0.79268 -1.58,0.82194 -0.78933,0.0305 -1.33066,0.37117 -2.03866,0.67676 -0.612,0.26228 -1.07734,0.60768 -1.81867,0.44024 -0.27067,-0.0608 -0.36933,-0.33018 -0.68133,-0.32315 -0.25334,0.004 -0.60534,0.30677 -0.82534,0.41448 -0.36133,0.17446 -0.412,0.25174 -0.768,0.25057 -0.52,-0.003 -0.89066,-0.29506 -1.436,-0.18383 -0.68933,0.1405 -0.93333,0.66388 -1.716,0.64983 -0.73466,-0.0129 -1.41466,-0.29623 -2.21333,-0.33135 -0.61733,-0.0281 -1.59067,0.14752 -1.82133,-0.51986 -1.22534,-0.0738 -2.33467,-0.36414 -3.388,-0.82078 -1.568,-0.68026 -3.31334,-0.91209 -5.01467,-1.19661 -1.49467,-0.24939 -2.86,-0.78331 -4.43867,-0.91562 -1.13466,-0.0948 -1.59333,-0.11473 -2.33466,-0.74232 0.51333,-0.51049 1.972,-0.19202 2.71866,-0.2529 0.69467,-0.0573 1.38,-0.37468 2.01867,-0.58777 0.428,0.57255 1.53467,1.43195 2.36133,1.45069"
       style="opacity:0.5;fill:#ffffff;fill-opacity:1;fill-rule:nonzero;stroke:none;stroke-width:1.24945"
       id="path7547" />
    <path
       d="m 286.60133,198.86695 c -0.61334,-0.13699 0.10533,-1.66496 5.49333,-3.25499 5.38667,-1.59002 14.68133,-6.20789 16.688,-6.43504 2.008,-0.22714 4.86,-0.53039 6.76133,0.60534 1.90134,1.13573 2.42934,0.68144 4.01334,-0.15104 1.584,-0.83248 4.81733,-0.41448 6.40133,1.4788 0.32,0.38052 0.748,1.07836 1.11067,1.89679 1.01466,2.28434 0.96133,5.85312 -2.79467,5.82034 -0.792,-0.007 -1.03067,-0.55265 -1.636,-0.73413 -1.272,-0.3817 -2.28133,-0.91796 -3.68533,-1.0889 -1.40934,-0.17095 -2.868,-0.10538 -4.29734,-0.14519 -2.548,-0.0714 -3.732,-0.58191 -6.28933,-0.51284 -2.73333,0.0749 -6.56533,0.24939 -9.068,0.95777 -2.26933,0.64163 -5.21067,1.6392 -7.73333,1.56309 -1.864,-0.0562 -3.14134,0.40863 -4.964,0"
       style="fill:#c14242;fill-opacity:1;fill-rule:nonzero;stroke:none;stroke-width:1.24945"
       id="path7561" />
    <path
       d="m 286.60133,198.86695 c -0.61334,-0.13699 0.10533,-1.66496 5.49333,-3.25499 5.38667,-1.59002 14.68133,-6.20789 16.688,-6.43504 2.008,-0.22714 4.86,-0.53039 6.76133,0.60534 1.90134,1.13573 2.42934,0.68144 4.01334,-0.15104 1.584,-0.83248 4.81733,-0.41448 6.40133,1.4788 0.32,0.38052 0.748,1.07836 1.11067,1.89679 1.01466,2.28434 0.96133,5.85312 -2.79467,5.82034 -0.792,-0.007 -1.03067,-0.55265 -1.636,-0.73413 -1.272,-0.3817 -2.28133,-0.91796 -3.68533,-1.0889 -1.40934,-0.17095 -2.868,-0.10538 -4.29734,-0.14519 -2.548,-0.0714 -3.732,-0.58191 -6.28933,-0.51284 -2.73333,0.0749 -6.56533,0.24939 -9.068,0.95777 -2.26933,0.64163 -5.21067,1.6392 -7.73333,1.56309 -1.864,-0.0562 -3.14134,0.40863 -4.964,0"
       style="opacity:0.199997;fill:#000000;fill-opacity:1;fill-rule:nonzero;stroke:none;stroke-width:1.24945"
       id="path7571" />
    <path
       d="m 324.82626,199.1647 c 0.88133,0.0386 1.69867,-0.16978 2.224,-0.79384 1.28,-1.52212 0.68,-3.75612 0.112,-5.36253 0.39733,1.12285 0.0173,3.14843 -0.63067,4.17996 -1.39333,2.21761 -3.56266,0.56085 -5.36,-0.4098 -1.41866,-0.76574 -3.09733,-0.34657 -4.71066,-0.22129 -1.74267,0.13582 -3.64,-0.0901 -5.25067,-0.5503 -1.448,-0.41332 -3.01467,-0.60768 -4.548,-0.10655 -2.12933,0.69549 -9.28667,1.47645 -11.4,2.27146 -2.112,0.79385 -8.66133,0.79385 -8.66133,0.79385 0,0 6.444,0.87463 8.87333,-0.15807 2.42933,-1.0327 9.06133,-1.42376 11.296,-1.88625 1.78667,-0.36882 3.71067,0.0105 5.436,0.28803 0.992,0.15806 2.064,0.44141 3.08667,0.47068 1.08,0.0293 2.21333,-0.22012 3.3,-0.2529 1.38666,-0.0433 1.87466,-0.0246 2.79466,0.5421 0.852,0.52689 2.19734,1.14159 3.43867,1.19545"
       style="fill:#000000;fill-opacity:1;fill-rule:nonzero;stroke:none;stroke-width:1.24945"
       id="path7581" />
  </g>
</svg>
