<?xml version="1.0" encoding="UTF-8" standalone="no"?>
<!-- Created with Inkscape (http://www.inkscape.org/) -->

<svg
   version="1.1"
   id="svg10700"
   width="400"
   height="400"
   viewBox="0 0 400 400"
   sodipodi:docname="Mouth2Lipstick.svg"
   inkscape:version="1.3-beta (cedbd6c, 2023-05-28)"
   xmlns:inkscape="http://www.inkscape.org/namespaces/inkscape"
   xmlns:sodipodi="http://sodipodi.sourceforge.net/DTD/sodipodi-0.dtd"
   xmlns="http://www.w3.org/2000/svg"
   xmlns:svg="http://www.w3.org/2000/svg">
  <defs
     id="defs10704" />
  <sodipodi:namedview
     id="namedview10702"
     pagecolor="#ffffff"
     bordercolor="#666666"
     borderopacity="1.0"
     inkscape:showpageshadow="2"
     inkscape:pageopacity="0.0"
     inkscape:pagecheckerboard="0"
     inkscape:deskcolor="#d1d1d1"
     showgrid="false"
     inkscape:zoom="2.17"
     inkscape:cx="199.76959"
     inkscape:cy="200"
     inkscape:window-width="1956"
     inkscape:window-height="1081"
     inkscape:window-x="2078"
     inkscape:window-y="184"
     inkscape:window-maximized="0"
     inkscape:current-layer="svg10700"
     showguides="true">
    <inkscape:page
       x="0"
       y="0"
       id="page10706"
       width="400"
       height="400"
       margin="0"
       bleed="0" />
  </sodipodi:namedview>
  <g
     id="g10708"
     inkscape:groupmode="layer"
     inkscape:label="Original Artwork"
     sodipodi:insensitive="true"
     style="display:none">
    <path
       d="m 311.11613,205.9552 c -1.99467,-0.23066 -5.37067,-0.716 -9.932,-2.324 -4.424,-1.56 -8.99334,-1.64133 -8.99334,-1.64133 0,0 11.03067,9.056 23.436,9.35867 12.40667,0.304 12.26534,-7.928 12.52,-8.45467 -3.55066,2.00933 -12.80133,3.54933 -17.03066,3.06133"
       style="opacity:0.199997;fill:#000000;fill-opacity:1;fill-rule:nonzero;stroke:none;stroke-width:1.33333"
       id="path17022" />
    <path
       d="m 303.99986,206.4344 c 5.172,1.19067 8.14267,1.604 11.77333,1.57867 3.63067,-0.024 9.02267,-1.36 9.90267,-2.592 0.67733,-0.948 1.44933,-1.79467 1.832,-2.90933 0.20267,-0.59067 0.364,-1.24534 0.34133,-1.86934 -0.0147,-0.42533 -0.22666,-0.75866 -0.37466,-1.09999 -0.104,-0.10534 -0.196,-0.22 -0.25467,-0.36 -0.27333,-0.65867 0.15867,-1.09067 0.32933,-1.72267 0.29334,-1.088 0.10934,-2.32667 -0.25466,-3.372 -1.21067,-3.48667 -4.78667,-5.328 -8.428,-5.22933 -2.452,0.0667 -4.67734,1.47866 -4.67734,1.47866 0,0 -3.048,-2.71733 -6.86266,-2.61333 -3.81467,0.10267 -7.22934,0.87333 -10.44,3.61333 -1.45067,1.23867 -3.12267,2.01734 -4.768,3.01734 -0.82134,0.49866 -1.64267,1.04533 -2.512,1.48 -0.33867,0.16933 -0.72934,0.28533 -1.08534,0.44133 0.092,0.84267 0.296,1.67867 0.632,2.49067 0.816,1.97466 2.40534,2.84133 4.444,3.86133 3.17867,1.58933 7.16,3.06 10.40267,3.80666"
       style="fill:#c14242;fill-opacity:1;fill-rule:nonzero;stroke:none;stroke-width:1.33333"
       id="path17032" />
    <path
       d="m 315.11293,207.22454 c 10.78266,-0.0733 12.65333,-4.26934 12.65333,-6.43467 -10e-4,9.47867 -11.53867,9.59467 -18.02667,8.096 -3.124,-0.72133 -9.10266,-2.288 -12.256,-3.70267 -2.508,-1.12533 -6.71866,-2.58266 -7.56133,-5.18399 0.14267,0.43999 2.396,1.20933 2.884,1.43599 1.04267,0.48534 2.10133,0.94267 3.176,1.372 2.14933,0.85867 4.36,1.604 6.61467,2.23334 4.376,1.22 8.34666,2.212 12.516,2.184"
       style="fill:#000000;fill-opacity:1;fill-rule:nonzero;stroke:none;stroke-width:1.33333"
       id="path17036" />
    <path
       d="m 311.68386,202.6116 c -0.808,0.02 -1.584,0.132 -2.38667,0.164 -0.34933,0.0133 -0.79333,0.016 -1.10666,-0.0893 -0.404,-0.13467 -0.36934,-0.24933 -0.64534,-0.54933 -0.49466,-0.536 -1.43333,-0.71467 -2.05066,-1.08134 -0.64534,-0.384 -1.26,-0.81333 -2.092,-0.96666 -0.66667,-0.12133 -0.692,-0.22267 -1.01067,-0.70133 -0.208,-0.312 -0.452,-0.616 -0.7,-0.91067 0.444,-0.52 1.22267,-0.47333 1.91467,-0.444 0.17733,0.356 0.44933,0.59867 0.87733,0.68133 0.63067,0.12267 0.64,-0.21866 1.112,-0.46266 0.288,-0.148 0.92267,-0.348 1.26,-0.24934 0.42533,0.124 0.23867,0.45334 0.58667,0.672 0.356,0.224 0.672,-0.11333 1.05466,-0.19466 0.50267,-0.10534 0.88667,0.0253 1.36134,0.14 0.756,0.18533 1.42933,0.63066 2.084,1.02 1.024,0.61066 1.81066,0.46933 2.98133,0.40933 0.444,-0.0227 1.06667,0.11733 1.48533,-0.0147 1.07467,-0.33866 1.32134,-1.67866 2.47467,-1.98133 0.49067,-0.12933 0.76933,0.46133 1.2,0.492 0.492,0.0347 0.61733,-0.444 0.95467,-0.64 0.72266,-0.42133 0.96,0.33467 1.55733,0.53067 0.19733,0.064 0.44933,-0.0347 0.64667,0.0347 0.21066,0.076 0.572,0.32934 0.72533,0.48267 0.27867,0.276 0.332,0.74933 0.76133,0.94 0.14667,0.76533 -0.41333,0.72533 -0.93866,1.06133 -0.40934,0.26267 -0.59467,0.66667 -0.98667,0.97733 -0.46933,0.37334 -0.92267,0.168 -1.45733,0.13067 -0.68,-0.048 -1.16267,0.23733 -1.79867,0.38933 -0.456,0.10934 -0.99067,0.18534 -1.464,0.16667 -0.464,-0.0187 -1.02267,-0.112 -1.46667,-0.23467 -0.34933,-0.0973 -0.58,-0.34533 -0.96666,-0.336 -0.50934,0.0133 -0.69334,0.36267 -1.05467,0.60134 -0.828,0.544 -1.98,-0.06 -2.912,-0.0373"
       style="opacity:0.5;fill:#ffffff;fill-opacity:1;fill-rule:nonzero;stroke:none;stroke-width:1.33333"
       id="path17046" />
    <path
       d="m 287.20013,197.18161 c 5.73866,-0.3 18.27066,-4.57067 23.72,-2.25334 5.44933,2.316 4.73333,-0.92266 8.99066,-0.32266 4.72267,0.66533 5.268,2.31733 6.26667,4.14133 2.452,0.768 3.04267,-10.17067 -7.31067,-9.888 -2.452,0.0667 -4.67733,1.47867 -4.67733,1.47867 0,0 -3.048,-2.71867 -6.86267,-2.61467 -3.81466,0.104 -7.22933,0.87333 -10.44,3.61467 -2.79466,2.38533 -9.68666,5.844 -9.68666,5.844"
       style="opacity:0.199997;fill:#000000;fill-opacity:1;fill-rule:nonzero;stroke:none;stroke-width:1.33333"
       id="path17062" />
    <path
       d="m 313.82253,180.15054 c 0,0 -2.32667,5.20267 -2.1,6.14 0.22533,0.93733 2.81066,2.55333 2.81066,2.55333 0,0 -2.036,-2.068 -1.712,-3.58666 0.32267,-1.52 1.00134,-5.10667 1.00134,-5.10667"
       style="fill:#000000;fill-opacity:1;fill-rule:nonzero;stroke:none;stroke-width:1.33333"
       id="path17072" />
    <path
       d="m 287.60413,197.75281 c 0.34133,0.004 0.708,-0.0947 1.00666,-0.15867 0.412,-0.0893 0.83067,-0.15867 1.24534,-0.23733 1.124,-0.212 2.25066,-0.42 3.37733,-0.62 2.17333,-0.388 4.35333,-0.77734 6.55067,-1.036 3.92666,-0.46267 9.31866,-1.632 11.68,-0.16667 2.36133,1.46667 2.90666,1.02667 4.088,0.496 1.18,-0.532 5.176,-2.47733 7.53733,-0.31333 0.76267,0.69866 1.46933,1.444 2.12,2.24133 0.40667,0.49733 0.78533,1.03067 1.548,0.83333 0.35867,-0.092 0.58533,-0.32533 0.68933,-0.656 0.048,-0.148 0.324,-0.68933 0.0627,-0.79466 -0.0707,-0.028 -0.25467,0.0973 -0.368,0.12666 -0.16133,0.0413 -0.31867,0.0893 -0.472,0.10934 -0.256,0.032 -0.57067,-0.0853 -0.75467,-0.25067 -0.208,-0.188 -0.41466,-0.36933 -0.64666,-0.544 -0.496,-0.37067 -0.988,-0.74933 -1.452,-1.15733 -1.18,-1.03867 -1.99734,-1.556 -4.54134,-1.53867 -2.54266,0.0173 -4.35866,1.68667 -5.26666,1.692 -0.908,0.007 -3.63334,-2.15467 -6.08534,-2.13733 -2.452,0.016 -9.74933,1.37333 -12.568,1.916 -0.93066,0.17866 -1.88266,0.276 -2.82533,0.38666 -0.78,0.092 -1.55067,0.252 -2.336,0.31867 -0.68133,0.0587 -1.35733,-0.024 -2.048,-0.0173 -0.49467,0.004 -0.86133,-0.256 -1.32533,-0.28534 -0.52667,-0.0333 -0.53067,0.47867 -0.43734,0.80267 0.088,0.30533 0.32667,0.576 0.56667,0.77733 0.184,0.156 0.41333,0.21067 0.65467,0.21334"
       style="fill:#000000;fill-opacity:1;fill-rule:nonzero;stroke:none;stroke-width:1.33333"
       id="path17076" />
  </g>
  <g
     id="g7"
     inkscape:groupmode="layer"
     inkscape:label="Revised Artwork">
    <path
       d="m 311.11613,205.9552 c -1.99467,-0.23066 -5.37067,-0.716 -9.932,-2.324 -4.424,-1.56 -8.99334,-1.64133 -8.99334,-1.64133 0,0 11.03067,9.056 23.436,9.35867 12.40667,0.304 12.26534,-7.928 12.52,-8.45467 -3.55066,2.00933 -12.80133,3.54933 -17.03066,3.06133"
       style="opacity:0.199997;fill:#000000;fill-opacity:1;fill-rule:nonzero;stroke:none;stroke-width:1.33333"
       id="path1" />
    <path
       d="m 303.99986,206.4344 c 5.172,1.19067 8.14267,1.604 11.77333,1.57867 3.63067,-0.024 8.72947,-1.43796 9.90267,-2.592 1.1732,-1.15404 1.59334,-1.76587 1.97601,-2.88053 0.20267,-0.59067 0.4216,-1.27414 0.39893,-1.89814 -0.0147,-0.42533 -0.25546,-0.75866 -0.40346,-1.09999 -0.104,-0.10534 -0.1672,-0.22 -0.22587,-0.36 -0.27333,-0.65867 0.36438,-1.09067 0.53504,-1.72267 0.29334,-1.088 0.41231,-2.11219 0.0854,-3.97684 -0.3269,-1.86465 -2.3116,-5.42637 -6.02107,-5.40129 -3.70947,0.0251 -5.95776,2.33692 -5.95776,2.33692 0,0 -3.048,-2.71733 -6.86266,-2.61333 -3.81467,0.10267 -9.73295,1.74227 -12.31367,3.53187 -2.58072,1.7896 -3.12267,2.01734 -4.768,3.01734 -0.82134,0.49866 -1.64267,1.04533 -2.512,1.48 -0.33867,0.16933 -0.72934,0.28533 -1.08534,0.44133 0.092,0.84267 0.296,1.67867 0.632,2.49067 0.816,1.97466 2.40534,2.84133 4.444,3.86133 3.17867,1.58933 7.16,3.06 10.40267,3.80666"
       style="fill:#c14242;fill-opacity:1;fill-rule:nonzero;stroke:none;stroke-width:1.33333"
       id="path2"
       sodipodi:nodetypes="cczccccczzcczcscccc" />
    <path
       d="m 327.91027,200.76107 c -0.001,9.16185 -12.43153,9.56587 -18.91953,8.0672 -3.124,-0.72133 -8.35381,-2.2304 -11.50715,-3.64507 -2.508,-1.12533 -6.22988,-2.90852 -7.56133,-5.18399 0.14267,0.43999 2.396,1.20933 2.884,1.43599 1.04267,0.48534 2.10133,0.94267 3.176,1.372 2.14933,0.85867 4.36,1.604 6.61467,2.23334 4.376,1.22 7.59781,2.1544 11.76715,2.1264 10.78266,-0.0733 13.54619,-4.24054 13.54619,-6.40587 z"
       style="fill:#000000;fill-opacity:1;fill-rule:nonzero;stroke:none;stroke-width:1.33333"
       id="path3"
       sodipodi:nodetypes="cccccsccc" />
    <path
       d="m 312.20229,202.5828 c -0.808,0.02 -1.584,0.132 -2.38667,0.164 -0.34933,0.0133 -0.79333,0.016 -1.10666,-0.0893 -0.404,-0.13467 -0.36934,-0.24933 -0.64534,-0.54933 -0.49466,-0.536 -1.43333,-0.71467 -2.05066,-1.08134 -0.64534,-0.384 -1.26,-0.81333 -2.092,-0.96666 -0.66667,-0.12133 -0.692,-0.22267 -1.01067,-0.70133 -0.208,-0.312 -0.452,-0.616 -0.7,-0.91067 0.444,-0.52 1.22267,-0.47333 1.91467,-0.444 0.17733,0.356 0.44933,0.59867 0.87733,0.68133 0.63067,0.12267 0.64,-0.21866 1.112,-0.46266 0.288,-0.148 0.92267,-0.348 1.26,-0.24934 0.42533,0.124 0.23867,0.45334 0.58667,0.672 0.356,0.224 0.672,-0.11333 1.05466,-0.19466 0.50267,-0.10534 0.88667,0.0253 1.36134,0.14 0.756,0.18533 1.42933,0.63066 2.084,1.02 1.024,0.61066 1.81066,0.46933 2.98133,0.40933 0.444,-0.0227 1.06667,0.11733 1.48533,-0.0147 1.07467,-0.33866 1.32134,-1.67866 2.47467,-1.98133 0.49067,-0.12933 0.76933,0.46133 1.2,0.492 0.492,0.0347 0.61733,-0.444 0.95467,-0.64 0.72266,-0.42133 0.96,0.33467 1.55733,0.53067 0.19733,0.064 0.44933,-0.0347 0.64667,0.0347 0.21066,0.076 0.572,0.32934 0.72533,0.48267 0.27867,0.276 0.332,0.74933 0.76133,0.94 0.14667,0.76533 -0.41333,0.72533 -0.93866,1.06133 -0.40934,0.26267 -0.59467,0.66667 -0.98667,0.97733 -0.46933,0.37334 -0.92267,0.168 -1.45733,0.13067 -0.68,-0.048 -1.16267,0.23733 -1.79867,0.38933 -0.456,0.10934 -0.99067,0.18534 -1.464,0.16667 -0.464,-0.0187 -1.02267,-0.112 -1.46667,-0.23467 -0.34933,-0.0973 -0.58,-0.34533 -0.96666,-0.336 -0.50934,0.0133 -0.69334,0.36267 -1.05467,0.60134 -0.828,0.544 -1.98,-0.06 -2.912,-0.0373"
       style="opacity:0.5;fill:#ffffff;fill-opacity:1;fill-rule:nonzero;stroke:none;stroke-width:1.33333"
       id="path4" />
    <path
       id="path5"
       style="opacity:0.199997;fill:#000000;fill-opacity:1;fill-rule:nonzero;stroke:none;stroke-width:1.33333"
       d="M 309.11328 187.80859 C 309.03209 187.81124 308.94626 187.81827 308.86328 187.82227 C 308.66459 187.83088 308.45338 187.84439 308.23047 187.86328 C 308.11369 187.87299 307.99629 187.88256 307.87695 187.89453 C 307.55197 187.92786 307.21749 187.96583 306.86914 188.01562 C 306.61452 188.052 306.35454 188.09406 306.09375 188.13867 C 305.89414 188.17283 305.68202 188.21213 305.46484 188.25391 C 305.41212 188.26405 305.36428 188.27258 305.31055 188.2832 C 305.05546 188.33362 304.78485 188.39127 304.50781 188.45312 C 304.47328 188.46083 304.44111 188.46671 304.40625 188.47461 C 304.09679 188.54471 303.77598 188.62127 303.44141 188.70703 C 302.86467 188.85478 302.29183 189.0173 301.73438 189.19141 C 301.4557 189.27848 301.18004 189.3683 300.91016 189.46094 C 299.29136 190.01658 297.85414 190.66703 296.88672 191.33789 C 294.306 193.12749 293.76447 193.35352 292.11914 194.35352 C 291.57954 194.68113 291.03759 195.02788 290.48438 195.35156 C 290.19554 195.52056 289.90562 195.68488 289.60742 195.83398 C 289.49962 195.88788 289.38117 195.93238 289.26562 195.97852 C 289.03299 196.11554 288.74065 196.29212 288.54102 196.4082 C 288.56702 196.61961 288.60003 196.83085 288.64062 197.04102 C 288.64075 197.04164 288.6405 197.04235 288.64062 197.04297 C 294.8251 196.262 305.88742 192.78768 310.91992 194.92773 C 316.36925 197.24373 318.04338 195.15754 319.91016 194.60547 C 322.58787 194.06112 325.61071 196.46116 326.60938 198.28516 C 327.023 198.41472 327.45784 198.19626 327.83984 197.75195 L 327.83984 197.75 C 327.88604 197.6566 327.92954 197.56106 327.95703 197.45898 C 328.25037 196.37099 328.36793 195.34707 328.04102 193.48242 C 327.71412 191.61777 325.73095 188.05695 322.02148 188.08203 C 318.31202 188.10713 316.0625 190.41797 316.0625 190.41797 C 316.0625 190.41797 315.92179 190.30119 315.7168 190.14258 C 315.57021 190.12191 315.40065 190.00156 315.15234 189.74023 C 315.14826 189.73594 315.14281 189.73452 315.13867 189.73047 C 315.05492 189.67375 314.99248 189.62471 314.89844 189.56445 C 314.35494 189.22319 313.84808 188.95346 313.38477 188.73828 C 313.188 188.6469 313.00271 188.5706 312.82227 188.49805 C 312.74601 188.46772 312.67004 188.4373 312.5918 188.4082 C 312.52299 188.38233 312.45861 188.35925 312.39258 188.33594 C 312.22572 188.27762 312.05756 188.22096 311.88281 188.16992 C 311.47172 188.04986 311.03826 187.95107 310.58984 187.88672 C 310.36563 187.85454 310.13812 187.83255 309.90625 187.81836 C 309.84716 187.81474 309.78611 187.81679 309.72656 187.81445 C 309.53498 187.80732 309.33848 187.80346 309.11328 187.80859 z " />
    <path
       d="m 287.60413,197.75281 c 0.34133,0.004 0.708,-0.0947 1.00666,-0.15867 0.412,-0.0893 0.83067,-0.15867 1.24534,-0.23733 1.124,-0.212 2.25066,-0.42 3.37733,-0.62 2.17333,-0.388 4.35333,-0.77734 6.55067,-1.036 3.92666,-0.46267 10.49954,-1.48799 12.86088,-0.0227 2.36133,1.46667 2.90666,1.02667 4.088,0.496 1.18,-0.532 4.77277,-2.67894 7.1341,-0.51494 0.76267,0.69866 1.46933,1.444 2.12,2.24133 0.40667,0.49733 0.78533,1.03067 1.548,0.83333 0.35867,-0.092 0.58533,-0.32533 0.68933,-0.656 0.048,-0.148 0.324,-0.68933 0.0627,-0.79466 -0.0707,-0.028 -0.25467,0.0973 -0.368,0.12666 -0.16133,0.0413 -0.31867,0.0893 -0.472,0.10934 -0.256,0.032 -0.57067,-0.0853 -0.75467,-0.25067 -0.208,-0.188 -0.41466,-0.36933 -0.64666,-0.544 -0.496,-0.37067 -0.988,-0.74933 -1.452,-1.15733 -1.18,-1.03867 -1.99734,-1.556 -4.54134,-1.53867 -2.54266,0.0173 -3.95543,1.88828 -4.86343,1.89361 -0.908,0.007 -3.75519,-2.38014 -7.26622,-2.28134 -2.452,0.016 -9.74933,1.37333 -12.568,1.916 -0.93066,0.17866 -1.88266,0.276 -2.82533,0.38666 -0.78,0.092 -1.55067,0.252 -2.336,0.31867 -0.68133,0.0587 -1.35733,-0.024 -2.048,-0.0173 -0.49467,0.004 -0.86133,-0.256 -1.32533,-0.28534 -0.52667,-0.0333 -0.53067,0.47867 -0.43734,0.80267 0.088,0.30533 0.32667,0.576 0.56667,0.77733 0.184,0.156 0.41333,0.21067 0.65467,0.21334"
       style="fill:#000000;fill-opacity:1;fill-rule:nonzero;stroke:none;stroke-width:1.33333"
       id="path7"
       sodipodi:nodetypes="cccccccccccccccccsccccccsscc" />
  </g>
  <g
     inkscape:groupmode="layer"
     id="layer4"
     inkscape:label="Philtrum">
    <path
       d="m 313.82253,180.15054 c 0,0 -2.32667,5.20267 -2.1,6.14 0.22533,0.93733 2.81066,2.55333 2.81066,2.55333 0,0 -2.036,-2.068 -1.712,-3.58666 0.32267,-1.52 1.00134,-5.10667 1.00134,-5.10667"
       style="fill:#000000;fill-opacity:1;fill-rule:nonzero;stroke:none;stroke-width:1.33333"
       id="path6" />
  </g>
</svg>
