<?xml version="1.0" encoding="UTF-8" standalone="no"?>
<!-- Created with Inkscape (http://www.inkscape.org/) -->

<svg
   version="1.1"
   id="svg8999"
   width="400"
   height="400"
   viewBox="0 0 400 400"
   sodipodi:docname="Mouth1.svg"
   inkscape:version="1.2.2 (b0a8486, 2022-12-01)"
   xmlns:inkscape="http://www.inkscape.org/namespaces/inkscape"
   xmlns:sodipodi="http://sodipodi.sourceforge.net/DTD/sodipodi-0.dtd"
   xmlns="http://www.w3.org/2000/svg"
   xmlns:svg="http://www.w3.org/2000/svg">
  <defs
     id="defs9003" />
  <sodipodi:namedview
     id="namedview9001"
     pagecolor="#ffffff"
     bordercolor="#666666"
     borderopacity="1.0"
     inkscape:showpageshadow="2"
     inkscape:pageopacity="0.0"
     inkscape:pagecheckerboard="0"
     inkscape:deskcolor="#d1d1d1"
     showgrid="false"
     inkscape:zoom="1.475"
     inkscape:cx="199.66102"
     inkscape:cy="200"
     inkscape:window-width="1440"
     inkscape:window-height="810"
     inkscape:window-x="2713"
     inkscape:window-y="423"
     inkscape:window-maximized="0"
     inkscape:current-layer="layer9">
    <inkscape:page
       x="0"
       y="0"
       id="page9005"
       width="400"
       height="400" />
  </sodipodi:namedview>
  <g
     id="g9007"
     inkscape:groupmode="layer">
    <path
       id="path154442"
       style="opacity:1;fill:#cd976d;fill-opacity:1;fill-rule:nonzero;stroke:none;stroke-width:1.33333"
       d="m 309.625,190.39844 c -0.71823,-0.005 -1.27703,0.0546 -1.70703,0.22656 -1.08358,0.43342 -14.94725,3.39723 -19.48242,4.20898 l -1.75782,-0.43945 1.11133,0.55664 c -0.0429,0.007 -0.12608,0.0229 -0.16601,0.0293 0,0 0.22476,0.009 0.24609,0.01 0,0 5.18091,3.36647 8.25378,4.59299 3.07286,1.22653 11.79837,2.96028 11.79837,2.96028 l 9.43809,0.47994 6.231,-1.40808 c 0,0 4.68604,-2.80914 5.58388,-4.16038 0.89784,-1.35124 0.88824,-3.06045 0.88824,-3.06045 l -1.11328,-0.0957 c -1.9618,-0.65948 -7.56316,-2.58855 -8.41992,-3.44531 -1.032,-1.032 -2.29237,0.1141 -5.84571,-0.11524 -2.22166,-0.14333 -3.86153,-0.33089 -5.05859,-0.33984 z m 11.13477,2.97851 c 0,0 0.74564,0.16566 1.77539,0.37305 l -0.86133,-0.0742 -2.57813,0.19727 c 0.90975,-0.26199 1.66407,-0.4961 1.66407,-0.4961 z m -31.47657,1.66797 c 2.66874,0.1037 8.28091,0.30872 11.2461,0.32617 l -0.66797,0.22266 -10.30664,-0.48047 z"
       sodipodi:nodetypes="csccccczccczccssscccccccccccc" />
    <path
       d="m 310.89893,203.1216 c 3.44,0.45867 10.964,-0.32 13.852,-2.224 2.888,-1.90399 0.208,-0.504 0,0 -0.208,0.504 -0.0933,7.384 -10.18267,7.04 -10.09067,-0.344 -18.116,-8.14133 -18.116,-8.14133 0,0 11.00667,2.86667 14.44667,3.32533"
       style="opacity:0.199997;fill:#000000;fill-opacity:1;fill-rule:nonzero;stroke:none;stroke-width:1.33333"
       id="path9769" />
    <path
       d="m 329.83786,194.59774 c 0,0 -8.276,-2.712 -9.308,-3.744 -1.032,-1.032 -2.29333,0.11467 -5.84667,-0.11467 -3.55466,-0.22933 -5.61866,-0.57333 -6.76533,-0.11466 -1.14667,0.45866 -16.74,3.78266 -20.29467,4.356 0,0 13.988,0.57333 14.676,0.344 0.688,-0.22934 6.07734,-1.49067 7.912,-1.26134 1.83467,0.22934 5.38934,0.688 6.87867,0.344 1.49067,-0.344 3.66933,-1.03066 3.66933,-1.03066 0,0 7.264,1.64133 9.07867,1.22133"
       style="opacity:0.199997;fill:#000000;fill-opacity:1;fill-rule:nonzero;stroke:none;stroke-width:1.33333"
       id="path9785" />
    <path
       d="m 303.13066,201.4884 c 0,0 5.72267,1.18134 12.29333,0.788 6.57067,-0.39466 9.32667,-1.37866 9.32667,-1.37866 0,0 -4.02667,3.74133 -9.32667,3.74133 -5.29866,0 -12.29333,-3.15067 -12.29333,-3.15067"
       style="fill:#000000;fill-opacity:1;fill-rule:nonzero;stroke:none;stroke-width:1.33333"
       id="path9795" />
    <path
       d="m 322.92973,193.37801 c -1.06534,-0.26934 -1.74267,-0.764 -2.904,-0.54 -1.16267,0.22533 -7.21334,0.58533 -8.52,0.40533 -1.30667,-0.18 -6.584,0.584 -8.37467,1.21333 -1.09867,0.38667 -2.46533,0.32 -3.61067,0.37334 -2.89733,0.13333 -5.8,0.148 -8.7,0.20533 -0.65866,0.0133 -1.372,0.0107 -1.9,-0.38267 -0.50933,-0.37733 -0.676,-1.00266 -1.04533,-1.49066 -0.13333,-0.176 -0.32,-0.34534 -0.54133,-0.34 -0.15867,0.003 -0.29867,0.0947 -0.42534,0.188 -0.92533,0.67733 -1.66933,1.6 -2.136,2.648 0.048,-0.10934 1.40534,-0.064 1.576,-0.072 2.668,-0.108 5.33867,-0.076 8.00534,0.048 2.55333,0.12 5.096,0.44533 7.64933,0.12933 0.59067,-0.0733 1.17867,-0.176 1.75733,-0.31733 4.028,-0.984 7.21334,0.136 12.088,0.136 3.18,0 4.23867,-1.772 6.78267,-1.18134 2.544,0.59067 7.20667,0.19734 7.20667,0.19734 0,0 -5.84267,-0.95067 -6.908,-1.22"
       style="fill:#000000;fill-opacity:1;fill-rule:nonzero;stroke:none;stroke-width:1.33333"
       id="path9799" />
  </g>
  <g
     inkscape:groupmode="layer"
     id="layer9"
     inkscape:label="Philtrum">
    <path
       d="m 313.49186,179.92254 c 0,0 -1.56,6.324 -0.65733,7.96667 0.904,1.64133 2.54666,1.724 2.54666,1.724 0,0 -2.05333,-1.88934 -1.80666,-4.10667 0.24533,-2.21733 -0.0827,-5.584 -0.0827,-5.584"
       style="fill:#000000;fill-opacity:1;fill-rule:nonzero;stroke:none;stroke-width:1.33333"
       id="path9803" />
  </g>
</svg>
