<?xml version="1.0" encoding="UTF-8" standalone="no"?>
<!-- Created with Inkscape (http://www.inkscape.org/) -->

<svg
   version="1.1"
   id="svg1129"
   width="400"
   height="400"
   viewBox="0 0 400 400"
   sodipodi:docname="TellariteMouth1Lipstick.svg"
   inkscape:version="1.3-beta (cedbd6c, 2023-05-28)"
   xmlns:inkscape="http://www.inkscape.org/namespaces/inkscape"
   xmlns:sodipodi="http://sodipodi.sourceforge.net/DTD/sodipodi-0.dtd"
   xmlns="http://www.w3.org/2000/svg"
   xmlns:svg="http://www.w3.org/2000/svg">
  <defs
     id="defs1133" />
  <sodipodi:namedview
     id="namedview1131"
     pagecolor="#ffffff"
     bordercolor="#666666"
     borderopacity="1.0"
     inkscape:showpageshadow="2"
     inkscape:pageopacity="0.0"
     inkscape:pagecheckerboard="0"
     inkscape:deskcolor="#d1d1d1"
     showgrid="false"
     inkscape:zoom="2.1675"
     inkscape:cx="200"
     inkscape:cy="200"
     inkscape:window-width="1920"
     inkscape:window-height="1080"
     inkscape:window-x="2501"
     inkscape:window-y="179"
     inkscape:window-maximized="0"
     inkscape:current-layer="layer5">
    <inkscape:page
       x="0"
       y="0"
       id="page1135"
       width="400"
       height="400"
       margin="0"
       bleed="0" />
  </sodipodi:namedview>
  <g
     id="g1137"
     inkscape:groupmode="layer"
     inkscape:label="Original Mouth"
     style="display:none"
     sodipodi:insensitive="true">
    <path
       d="m 313.57333,180.06108 c 0,0 -0.35867,6.47647 1.04133,7.97496 1.4,1.49848 3.22933,0.88893 3.22933,0.88893 0,0 -2.476,-1.29371 -3.44266,-3.91446 -0.72267,-1.95723 -0.828,-4.94943 -0.828,-4.94943"
       style="fill:#000000;fill-opacity:1;fill-rule:nonzero;stroke:none;stroke-width:1.45481"
       id="path7557" />
    <path
       d="m 310.43893,204.91549 c -1.91467,-0.21427 -5.31334,-0.66037 -9.264,-2.09935 -3.832,-1.39684 -7.788,-1.49636 -7.788,-1.49636 0,0 9.47333,8.01921 21.38266,8.35876 11.90934,0.34072 11.77467,-6.88816 12.01867,-7.34948 -3.408,1.74341 -12.28933,3.03955 -16.34933,2.58643"
       style="opacity:0.199997;fill:#000000;fill-opacity:1;fill-rule:nonzero;stroke:none;stroke-width:1.24945"
       id="path7523" />
    <path
       d="m 290.40386,197.75511 c 0,0 -3.27467,0.0632 -1.796,0.82311 1.47867,0.76106 10.03467,5.63885 15,6.71604 4.964,1.07602 7.816,1.45655 11.30133,1.45655 3.48667,0 8.66134,-1.14041 9.50667,-2.21761 0.84533,-1.07601 3.16933,-2.97749 1.37333,-6.58841 -1.796,-3.61093 -13.83733,-2.78665 -13.83733,-2.78665 l -19.964,1.77385 z"
       style="fill:#c14242;fill-opacity:1;fill-rule:nonzero;stroke:none;stroke-width:1.24945"
       id="path7533" />
    <path
       d="m 314.27586,206.05403 c 10.352,0 12.14667,-3.67415 12.14667,-5.57445 0,0 0.95066,6.96777 -12.04134,6.96777 -12.992,0 -25.13866,-8.36227 -25.13866,-8.36227 0,0 14.68133,6.96895 25.03333,6.96895"
       style="fill:#000000;fill-opacity:1;fill-rule:nonzero;stroke:none;stroke-width:1.24945"
       id="path7537" />
    <path
       d="m 301.65959,199.32628 c 1.10134,0.0246 1.23334,-1.00811 2.25067,0.0187 0.50133,0.50698 0.628,0.69314 1.35467,0.62875 0.44266,-0.0386 1.21333,-0.4578 1.61333,-0.38287 0.464,0.0867 0.68133,0.69666 1.12933,0.86526 0.552,0.20841 1.15467,-0.13699 1.672,-0.0538 0.46267,0.0738 0.60267,0.47068 1.05334,0.51868 0.44533,0.0468 0.904,-0.25056 1.112,-0.57371 0.10266,1.33594 2.30133,0.77042 2.94533,0.17679 0.39733,0.31497 0.83333,0.7435 1.30933,0.98587 0.28,-0.29974 0.31334,-0.7072 0.46667,-1.04792 0.46933,0.25642 1.21867,0.58894 1.212,-0.26578 0.95067,0.54444 1.29867,-0.74701 1.432,-1.31371 0.54667,0.19905 1.55867,0.81141 1.51467,-0.281 0.184,0.16978 0.54533,0.23652 0.80133,0.25173 0.048,-0.0597 0.032,-0.0843 0.0853,-0.13699 0.62,0.4742 1.288,1.11583 1.91867,1.51392 0.16267,-0.40629 -0.31733,-1.21184 0.46933,-0.9039 0.40534,0.15924 0.67334,0.83365 0.636,1.16968 -0.0973,0.90742 -0.824,0.79268 -1.58,0.82194 -0.78933,0.0305 -1.33066,0.37117 -2.03866,0.67676 -0.612,0.26228 -1.07734,0.60768 -1.81867,0.44024 -0.27067,-0.0608 -0.36933,-0.33018 -0.68133,-0.32315 -0.25334,0.004 -0.60534,0.30677 -0.82534,0.41448 -0.36133,0.17446 -0.412,0.25174 -0.768,0.25057 -0.52,-0.003 -0.89066,-0.29506 -1.436,-0.18383 -0.68933,0.1405 -0.93333,0.66388 -1.716,0.64983 -0.73466,-0.0129 -1.41466,-0.29623 -2.21333,-0.33135 -0.61733,-0.0281 -1.59067,0.14752 -1.82133,-0.51986 -1.22534,-0.0738 -2.33467,-0.36414 -3.388,-0.82078 -1.568,-0.68026 -3.31334,-0.91209 -5.01467,-1.19661 -1.49467,-0.24939 -2.86,-0.78331 -4.43867,-0.91562 -1.13466,-0.0948 -1.59333,-0.11473 -2.33466,-0.74232 0.51333,-0.51049 1.972,-0.19202 2.71866,-0.2529 0.69467,-0.0573 1.38,-0.37468 2.01867,-0.58777 0.428,0.57255 1.53467,1.43195 2.36133,1.45069"
       style="opacity:0.5;fill:#ffffff;fill-opacity:1;fill-rule:nonzero;stroke:none;stroke-width:1.24945"
       id="path7547" />
    <path
       d="m 286.60133,198.86695 c -0.61334,-0.13699 0.10533,-1.66496 5.49333,-3.25499 5.38667,-1.59002 14.68133,-6.20789 16.688,-6.43504 2.008,-0.22714 4.86,-0.53039 6.76133,0.60534 1.90134,1.13573 2.42934,0.68144 4.01334,-0.15104 1.584,-0.83248 4.81733,-0.41448 6.40133,1.4788 0.32,0.38052 0.748,1.07836 1.11067,1.89679 1.01466,2.28434 0.96133,5.85312 -2.79467,5.82034 -0.792,-0.007 -1.03067,-0.55265 -1.636,-0.73413 -1.272,-0.3817 -2.28133,-0.91796 -3.68533,-1.0889 -1.40934,-0.17095 -2.868,-0.10538 -4.29734,-0.14519 -2.548,-0.0714 -3.732,-0.58191 -6.28933,-0.51284 -2.73333,0.0749 -6.56533,0.24939 -9.068,0.95777 -2.26933,0.64163 -5.21067,1.6392 -7.73333,1.56309 -1.864,-0.0562 -3.14134,0.40863 -4.964,0"
       style="fill:#c14242;fill-opacity:1;fill-rule:nonzero;stroke:none;stroke-width:1.24945"
       id="path7561" />
    <path
       d="m 286.60133,198.86695 c -0.61334,-0.13699 0.10533,-1.66496 5.49333,-3.25499 5.38667,-1.59002 14.68133,-6.20789 16.688,-6.43504 2.008,-0.22714 4.86,-0.53039 6.76133,0.60534 1.90134,1.13573 2.42934,0.68144 4.01334,-0.15104 1.584,-0.83248 4.81733,-0.41448 6.40133,1.4788 0.32,0.38052 0.748,1.07836 1.11067,1.89679 1.01466,2.28434 0.96133,5.85312 -2.79467,5.82034 -0.792,-0.007 -1.03067,-0.55265 -1.636,-0.73413 -1.272,-0.3817 -2.28133,-0.91796 -3.68533,-1.0889 -1.40934,-0.17095 -2.868,-0.10538 -4.29734,-0.14519 -2.548,-0.0714 -3.732,-0.58191 -6.28933,-0.51284 -2.73333,0.0749 -6.56533,0.24939 -9.068,0.95777 -2.26933,0.64163 -5.21067,1.6392 -7.73333,1.56309 -1.864,-0.0562 -3.14134,0.40863 -4.964,0"
       style="opacity:0.199997;fill:#000000;fill-opacity:1;fill-rule:nonzero;stroke:none;stroke-width:1.24945"
       id="path7571" />
    <path
       d="m 324.82626,199.1647 c 0.88133,0.0386 1.69867,-0.16978 2.224,-0.79384 1.28,-1.52212 0.68,-3.75612 0.112,-5.36253 0.39733,1.12285 0.0173,3.14843 -0.63067,4.17996 -1.39333,2.21761 -3.56266,0.56085 -5.36,-0.4098 -1.41866,-0.76574 -3.09733,-0.34657 -4.71066,-0.22129 -1.74267,0.13582 -3.64,-0.0901 -5.25067,-0.5503 -1.448,-0.41332 -3.01467,-0.60768 -4.548,-0.10655 -2.12933,0.69549 -9.28667,1.47645 -11.4,2.27146 -2.112,0.79385 -8.66133,0.79385 -8.66133,0.79385 0,0 6.444,0.87463 8.87333,-0.15807 2.42933,-1.0327 9.06133,-1.42376 11.296,-1.88625 1.78667,-0.36882 3.71067,0.0105 5.436,0.28803 0.992,0.15806 2.064,0.44141 3.08667,0.47068 1.08,0.0293 2.21333,-0.22012 3.3,-0.2529 1.38666,-0.0433 1.87466,-0.0246 2.79466,0.5421 0.852,0.52689 2.19734,1.14159 3.43867,1.19545"
       style="fill:#000000;fill-opacity:1;fill-rule:nonzero;stroke:none;stroke-width:1.24945"
       id="path7581" />
  </g>
  <g
     inkscape:groupmode="layer"
     id="layer5"
     inkscape:label="Revised Mouth"
     style="opacity:1">
    <path
       id="path172160"
       style="fill:#c14242;fill-opacity:1;fill-rule:nonzero;stroke:none;stroke-width:1.23107"
       d="m 309.60671,188.82551 c -0.89228,0.384 -16.18238,6.5228 -19.29116,7.13347 0,0 1.6091,0.077 3.5382,0.16211 l -2.75896,0.69727 c 0,0 2.07698,2.70583 4.22253,3.86719 2.31594,1.2536 5.02741,2.66295 7.82729,3.51809 2.04768,0.6254 4.29287,1.12213 6.41461,1.4254 0.66036,0.0944 4.10154,6.49178 4.72624,6.41685 2.26266,-1.64348 3.96853,-4.54193 5.27306,-6.34225 2.19117,-0.65206 3.29824,-1.53402 4.41568,-2.43945 1.11744,-0.90543 2.22584,-2.7666 2.73236,-3.81888 0.50652,-1.05228 0.35132,-3.37695 0.35132,-3.37695 l -0.68027,-0.54171 c 0.30968,0.0209 0.57579,0.10271 0.8551,0.0241 0,0 -4.27492,-5.71769 -5.62233,-6.2642 -0.56204,-0.22797 -1.08888,-0.41728 -2.22444,-0.31732 -1.13554,0.1 -2.09416,1.12823 -3.27312,1.15044 -1.17896,0.0222 -2.97312,-1.44597 -3.81217,-1.45231 -0.83906,-0.006 -2.35976,0.0146 -2.69394,0.15814 z"
       sodipodi:nodetypes="ccccsssccsscccszzccc" />
    <path
       id="path135096"
       style="opacity:0.199997;fill:#000000;fill-opacity:1;fill-rule:nonzero;stroke:none;stroke-width:1.23107"
       d="M 295.23047 200.64453 C 295.23047 200.64453 303.14193 209.58277 313.20703 210.32031 L 311.23633 207.51367 L 309.47266 205.60742 C 307.77621 205.41241 304.69076 204.92186 302.01562 203.83398 C 298.0338 202.21473 295.23047 200.64453 295.23047 200.64453 z M 324.40039 202.6875 C 324.38039 202.70187 324.33353 202.78904 324.27734 202.91406 C 324.40283 202.77936 324.43646 202.66158 324.40039 202.6875 z M 324.27734 202.91406 C 324.25734 202.93554 324.23783 202.95674 324.21289 202.97852 C 323.21553 203.6603 321.65775 204.39352 319.89453 204.95117 L 318.19727 207.73242 L 316.16602 210.30859 C 324.17087 209.61722 324.04307 203.48762 324.23828 202.99414 C 324.25454 202.95335 324.26304 202.9459 324.27734 202.91406 z " />
    <path
       style="fill:#000000;fill-opacity:0.3;stroke:none;stroke-width:1px;stroke-linecap:butt;stroke-linejoin:miter;stroke-opacity:1"
       d="m 316.28073,206.43324 c 0,0 0.45356,-0.78482 0.65917,-1.61796 0.20561,-0.83314 0.41493,-2.362 0.32958,-3.38572 -0.0854,-1.02372 -0.37658,-1.81681 -0.71909,-2.66663 -0.34251,-0.84982 -0.98094,-1.9477 -1.31834,-2.39698 -0.3374,-0.44928 -0.44943,-0.44943 -0.44943,-0.44943 l -4.28459,-0.47939 c 0,0 1.16585,0.92845 1.8277,1.58799 0.66185,0.65954 1.61487,1.59913 2.09735,2.39697 0.48248,0.79784 0.60689,1.38798 0.8689,2.24716 0.26201,0.85918 0.49857,2.11125 0.65917,2.90633 0.1606,0.79508 0.32958,1.85766 0.32958,1.85766 z"
       id="path83082"
       sodipodi:nodetypes="czzzzcczzzzc" />
    <path
       id="path135112"
       style="opacity:0.199997;fill:#000000;fill-opacity:1;fill-rule:nonzero;stroke:none;stroke-width:1.23107"
       d="m 312.30068,188.66797 c -0.83905,-0.006 -2.35985,0.0147 -2.69403,0.1582 -0.89228,0.384 -16.18232,6.52214 -19.2911,7.13281 0,0 1.60911,0.077 3.5382,0.16211 l -0.2331,0.0586 c 2.56625,0.17109 5.59833,0.36674 6.59687,0.38672 1.56485,0.0313 2.7579,-0.169 2.93378,-0.24024 0.6013,-0.244 5.31273,-1.58775 6.91657,-1.34375 1.60495,0.24534 4.72647,1.19675 6.02909,0.83008 1.30375,-0.36667 3.19686,-0.96289 3.19686,-0.96289 0,0 4.80049,0.79484 7.148,0.73047 l -0.065,-0.0527 c 0.12084,0.008 0.23204,0.0255 0.343,0.0391 0.18261,-0.012 0.34219,-0.0319 0.47953,-0.0586 -0.1002,-0.13383 -4.25826,-5.68074 -5.58953,-6.2207 -0.56204,-0.22797 -1.08893,-0.41832 -2.22449,-0.31836 -1.13554,0.1 -2.09283,1.12818 -3.27179,1.15039 -1.17896,0.0222 -2.97387,-1.44483 -3.81293,-1.45117 z" />
    <path
       id="path135122"
       style="fill:#000000;fill-opacity:1;fill-rule:nonzero;stroke:none;stroke-width:1.23107"
       d="m 324.25586,202.95703 c -1.05597,0.63067 -1.57866,0.78161 -3.1582,1.54492 -0.5131,0.24795 -1.19206,0.46906 -1.92774,0.66211 -0.44282,1.06534 -1.01133,1.95573 -1.67578,2.86133 -0.80243,1.09049 -1.28327,1.67319 -1.71512,2.23251 -0.43185,0.55932 -1.04714,1.0804 -1.35238,1.24027 -0.0843,-0.14641 -0.38809,-1.02053 -0.86219,-1.92786 -0.8494,-1.49698 -1.96186,-2.66657 -3.13462,-3.85515 -1.41021,-0.22845 -3.0108,-0.53132 -4.43569,-0.84602 -1.31323,-0.29004 -2.71191,-0.55558 -4.13867,-1.14453 1.01151,0.63147 1.70096,1.18887 3.20703,2.05664 1.40134,0.80741 3.36361,1.47359 5.30078,1.79492 0.47458,0.45054 1.00546,1.00117 1.33789,1.48633 0.71538,1.04402 2.27344,3.73828 2.27344,3.73828 0,0 1.46115,-0.91751 2.16406,-1.72461 1.30754,-1.50136 2.87521,-3.55888 3.4436,-4.38377 0.11032,0.0165 2.81315,-1.32644 3.72242,-2.23537 0.87393,-0.87361 0.77157,-1.392 0.95117,-1.5 z"
       sodipodi:nodetypes="cscsscscscscscscsc" />
    <path
       d="m 319.58246,194.65384 c -0.54332,0.0347 -1.33861,0.49036 -1.83873,0.57836 -2.18922,0.38267 -4.19242,0.45701 -6.64494,-0.22533 -2.45253,-0.68234 -5.5784,0.0234 -7.14473,0.69409 -0.96162,0.41067 -2.10517,0.66959 -3.10657,0.72559 -1.40151,0.08 -2.06889,0.0507 -3.09427,-0.0684 -1.02539,-0.11917 -1.87362,-0.24343 -3.18079,-0.38214 -0.78657,-0.0827 -1.75615,-0.276 -2.40063,-0.79067 -0.71837,-0.572 -0.32168,-1.30267 -0.35009,-2.10133 0.003,0.0693 -0.98095,1.24933 -1.10143,1.40533 -0.524,0.67733 -1.04914,1.644 -1.11848,2.52933 -0.0546,0.71067 0.9798,0.51467 1.36741,0.40534 2.19945,-0.62534 2.95177,-0.87493 5.25921,-0.7976 2.38017,0.0787 3.99329,0.73534 6.38142,0.37534 0.51604,-0.0773 1.31192,-0.39641 1.81774,-0.54708 2.05395,-0.612 4.13632,-0.42933 6.22096,-0.18533 1.01959,0.12 2.04599,0.14267 2.99966,0.51067 0.84909,0.32666 1.91414,0.40933 2.76209,0.0227 1.01163,-0.46266 1.91983,-0.94533 2.9917,-1.22666 1.73682,-0.45734 3.45827,0.55147 5.24169,0.53013 0.48195,-0.007 1.04471,-0.42502 1.46463,-0.46617 0.41992,-0.0412 1.13666,0.99466 0.9366,1.28533 0.26031,-0.37733 0.18414,-0.76667 0.16027,-1.192 -0.0113,-0.20667 -0.16935,-0.90533 -0.10797,-1.05733 -0.0273,0.068 -0.0489,0.092 -0.0591,0.17866 -0.3194,0.14267 -0.42044,0.16866 -0.76384,0.33734 -0.34339,0.16868 -0.48237,0.32524 -0.94062,0.39017 -0.45824,0.0649 -1.09006,-0.224 -1.63452,-0.34 -0.78657,-0.16533 -1.40009,-0.50525 -2.24124,-0.69592 -0.61836,-0.14 -1.28552,0.069 -1.87545,0.10762 z"
       style="fill:#000000;fill-opacity:1;fill-rule:nonzero;stroke:none;stroke-width:1.23107"
       id="path135126"
       sodipodi:nodetypes="cczcczcccccccccccccczcccczzccc" />
    <path
       id="path7547-3"
       style="opacity:0.5;fill:#ffffff;fill-opacity:1;fill-rule:nonzero;stroke:none;stroke-width:1.20258"
       d="M 321.91797 197.55859 C 321.99528 198.64828 321.03809 198.07987 320.52539 197.9043 C 320.42094 198.47625 320.14236 199.78079 319.24414 199.27734 C 319.27893 200.13111 318.5739 199.8319 318.13086 199.5957 C 318.00035 199.9427 317.98157 200.35065 317.73242 200.66211 C 317.49602 200.54522 317.27075 200.37651 317.05273 200.19922 C 317.15538 200.58164 317.2323 200.98342 317.26953 201.42969 C 317.27819 201.5335 317.28225 201.64291 317.28516 201.75586 C 317.74302 201.67058 318.08478 201.9106 318.53906 201.89258 C 318.86864 201.87855 318.9116 201.79912 319.24023 201.60938 C 319.44027 201.49237 319.75586 201.17496 319.99023 201.16016 C 320.27881 201.13982 320.38023 201.40588 320.63281 201.45508 C 321.32465 201.59076 321.74305 201.22569 322.30078 200.9375 C 322.94592 200.60194 323.43639 200.23793 324.16602 200.17383 C 324.86484 200.11234 325.54186 200.19603 325.60156 199.28516 C 325.62487 198.9478 325.3532 198.2844 324.97266 198.14258 C 324.23417 197.86843 324.70534 198.65349 324.56836 199.06641 C 323.97125 198.69552 323.33199 198.08215 322.74219 197.63477 C 322.69469 197.68969 322.71047 197.71369 322.66797 197.77539 C 322.4305 197.77111 322.09399 197.72039 321.91797 197.55859 z M 302.05859 197.74805 C 301.47453 197.98822 300.85206 198.33498 300.21094 198.42188 C 299.52182 198.51456 298.16121 198.25707 297.70312 198.78906 C 298.41035 199.3845 298.83518 199.38524 299.88867 199.43164 C 301.35442 199.49649 302.63543 199.97278 304.02734 200.1582 C 305.61172 200.36991 307.23479 200.52584 308.70898 201.13867 C 309.69931 201.55001 310.73633 201.79305 311.87305 201.81445 C 312.1089 202.47147 313.00379 202.25386 313.57617 202.25586 C 314.27036 202.25682 314.87615 202.47741 315.50977 202.49023 C 315.43976 202.19802 315.36645 201.91729 315.29102 201.66992 C 315.15014 201.20797 315.04851 200.82386 314.91016 200.44336 C 314.33643 200.50381 313.82378 200.32833 313.75586 199.68164 C 313.57414 200.01341 313.15989 200.33053 312.74609 200.30273 C 312.32732 200.274 312.18466 199.88408 311.75391 199.83008 C 311.27225 199.76903 310.72496 200.13977 310.20703 199.95508 C 309.78669 199.80572 309.56523 199.20547 309.13281 199.13867 C 308.76003 199.08086 308.06081 199.53234 307.65234 199.58984 C 306.98183 199.68519 306.85799 199.50473 306.37695 199.01953 C 305.40087 198.03698 305.31325 199.0728 304.29297 199.0957 C 303.52714 199.11225 302.47393 198.3019 302.05859 197.74805 z " />
  </g>
  <g
     inkscape:groupmode="layer"
     id="layer6"
     inkscape:label="Philtrum">
    <path
       d="m 313.49186,179.92254 c 0,0 -1.336,5.27867 -0.116,6.64933 1.21867,1.37067 3.192,1.44 3.192,1.44 0,0 -2.616,-1.57733 -2.508,-3.428 0.108,-1.85066 -0.568,-4.66133 -0.568,-4.66133"
       style="opacity:1;fill:#000000;fill-opacity:1;fill-rule:nonzero;stroke:none;stroke-width:1.33333"
       id="path135130" />
  </g>
</svg>
