<?xml version="1.0" encoding="UTF-8" standalone="no"?>
<!-- Created with Inkscape (http://www.inkscape.org/) -->

<svg
   version="1.1"
   id="svg31622"
   width="400"
   height="400"
   viewBox="0 0 400 400"
   sodipodi:docname="TellariteMouth4Lipstick.svg"
   inkscape:version="1.2.2 (b0a8486, 2022-12-01)"
   xmlns:inkscape="http://www.inkscape.org/namespaces/inkscape"
   xmlns:sodipodi="http://sodipodi.sourceforge.net/DTD/sodipodi-0.dtd"
   xmlns="http://www.w3.org/2000/svg"
   xmlns:svg="http://www.w3.org/2000/svg">
  <defs
     id="defs31626" />
  <sodipodi:namedview
     id="namedview31624"
     pagecolor="#ffffff"
     bordercolor="#666666"
     borderopacity="1.0"
     inkscape:showpageshadow="2"
     inkscape:pageopacity="0.0"
     inkscape:pagecheckerboard="0"
     inkscape:deskcolor="#d1d1d1"
     showgrid="false"
     inkscape:zoom="12.148094"
     inkscape:cx="291.11562"
     inkscape:cy="203.28291"
     inkscape:window-width="1894"
     inkscape:window-height="1079"
     inkscape:window-x="2472"
     inkscape:window-y="89"
     inkscape:window-maximized="0"
     inkscape:current-layer="layer1">
    <inkscape:page
       x="0"
       y="0"
       id="page31628"
       width="400"
       height="400" />
  </sodipodi:namedview>
  <g
     id="g31630"
     inkscape:groupmode="layer"
     inkscape:label="Original Mouth"
     sodipodi:insensitive="true"
     style="display:none">
    <path
       d="m 307.53759,200.19267 c -1.26,-0.02 -2.508,-0.11733 -3.768,-0.42533 -2.88133,-0.708 -5.77466,-1.01067 -8.41466,-2.43467 -0.71734,-0.388 -2.10934,-1.452 -2.976,-1.23733 0.89733,0.84 1.41333,1.94933 2.176,2.89733 1.04666,1.30133 2.424,1.87333 3.74533,2.772 2.28,1.55333 4.924,3.024 7.672,3.51733 2.94667,0.52934 7.78267,-0.0813 10.42533,0.0547 3.636,0.188 6.77734,0.18133 8.376,-4.15733 0.29734,-0.80934 0.39734,-2.91467 1.104,-3.35733 -2.108,1.32133 -4.384,1.91066 -6.83733,1.996 -1.99867,0.0693 -5.64267,0.34666 -7.896,0.34666 -1.228,0 -2.42267,0.048 -3.60667,0.028"
       style="opacity:0.199997;fill:#000000;fill-opacity:1;fill-rule:nonzero;stroke:none;stroke-width:1.33333"
       id="path37816" />
    <path
       d="m 290.42213,193.41561 c 0,0 7.46,0.352 11.96266,-0.51067 4.42534,-0.848 7.60934,-1.192 10.11334,-0.152 2.10266,0.87467 5.648,-1.02 8.6,-0.0867 2.952,0.93334 6.73333,3.004 6.73333,3.004 l -1.04667,0.976 c 0,0 -0.932,6.452 -10.564,6.452 -9.63333,0 -17.56666,-2.79067 -21.05333,-4.88266 -3.488,-2.09334 -7.92133,-5.06534 -4.74533,-4.8"
       style="fill:#c14242;fill-opacity:1;fill-rule:nonzero;stroke:none;stroke-width:1.33333"
       id="path37826" />
    <path
       d="m 327.02893,196.55094 c 0.21866,-0.108 0.18,-0.21467 0.30266,-0.384 0.13734,-0.188 0.32934,-0.33867 0.5,-0.49733 0,0 -3.78133,-2.06934 -6.73333,-3.00267 -2.952,-0.93333 -6.49733,0.96 -8.6,0.0867 -2.504,-1.04134 -5.688,-0.696 -10.11333,0.15066 -4.50267,0.86267 -11.96267,0.512 -11.96267,0.512 -0.508,-0.0427 -0.32267,0.31467 -0.0293,0.55467 0.35466,0.28933 0.81866,0.40133 1.18266,0.688 0.34267,0.272 0.61867,0.37733 1.05467,0.508 1.084,0.324 2.17733,0.62267 3.27067,0.91867 1.264,0.34266 2.536,0.68133 3.84,0.82933 1.284,0.148 2.56133,-0.005 3.84666,-0.024 0.75334,-0.012 1.50534,-0.0467 2.25734,-0.10667 0.64533,-0.052 1.31866,-0.204 1.96666,-0.17466 0.384,0.0173 0.73467,0.176 1.12134,0.192 0.56266,0.024 1.10533,0.032 1.65466,0.16666 0.576,0.14 1.13334,0.34267 1.73334,0.332 0.896,-0.0133 3.51333,0.10134 4.29333,-0.0707 0.97333,-0.21467 1.98267,-0.54667 2.99467,-0.632 1.164,-0.0973 2.3,0.29866 3.45866,0.34133 0.7,0.0253 1.4,-0.016 2.09734,-0.0867 0.59066,-0.0587 1.31466,-0.0293 1.864,-0.30133"
       style="opacity:0.199997;fill:#000000;fill-opacity:1;fill-rule:nonzero;stroke:none;stroke-width:1.33333"
       id="path37836" />
    <path
       d="m 313.03786,181.19681 c -0.612,1.36933 -1.19867,2.764 -1.676,4.188 -0.49333,1.47066 -0.32533,3.27733 1.13867,4.088 -0.0293,-0.0173 -0.208,-0.74667 -0.24667,-0.84134 -0.52267,-1.264 -0.16667,-3.064 0.0947,-4.368 0.18933,-0.94266 0.29866,-2.19333 0.68933,-3.06666"
       style="fill:#000000;fill-opacity:1;fill-rule:nonzero;stroke:none;stroke-width:1.33333"
       id="path37846" />
    <path
       d="m 326.24039,196.99921 c 0.39334,-0.0573 0.744,-0.0493 1.13734,-0.009 0.212,0.0213 0.46266,-0.0373 0.556,-0.252 0.0467,-0.11066 0.0413,-0.24 0.0267,-0.36266 -0.052,-0.412 -0.20533,-0.80667 -0.43733,-1.13067 -0.0493,-0.068 -0.10667,-0.136 -0.18267,-0.152 -0.12133,-0.0253 -0.22533,0.0907 -0.31066,0.192 -0.696,0.82533 -1.616,1.12533 -2.608,1.13067 -0.50667,0.003 -1.012,-0.0493 -1.51867,-0.0307 -1.108,0.0427 -2.14267,-0.33467 -3.224,-0.53467 -1.904,-0.35333 -3.87333,1.46 -6.08267,1.224 -1.27333,-0.136 -3.596,-0.94533 -4.84133,-1.12266 -1.164,-0.16534 -2.172,-0.216 -3.328,0.056 -1.56667,0.36933 -3.05867,0.3 -4.63333,0.356 -1.528,0.0547 -3.044,-0.22534 -4.51867,-0.60534 -0.804,-0.20666 -1.61333,-0.31733 -2.40133,-0.59466 -0.864,-0.304 -1.69067,-0.71067 -2.45734,-1.212 -0.42533,-0.27867 -0.83066,-0.58534 -1.25466,-0.868 -0.056,-0.0373 -0.116,-0.0747 -0.184,-0.0773 -0.076,-0.003 -0.14534,0.0413 -0.208,0.0853 -0.396,0.27333 -0.756,0.59866 -1.06934,0.964 -0.04,0.0467 -0.0813,0.0987 -0.0827,0.15866 -0.003,0.10134 0.10533,0.17334 0.20533,0.176 0.1,0.003 0.19467,-0.0413 0.28933,-0.0733 0.828,-0.28267 1.84134,0.34133 2.532,0.74933 0.63867,0.37734 1.32267,0.47067 1.99734,0.732 2.53066,0.98 5.14666,1.53334 7.812,1.76667 1.70266,0.14933 3.4,-0.17067 5.09866,-0.252 0.94534,-0.044 1.89867,-0.0267 2.83467,0.14133 0.92533,0.16667 3.05733,0.4 3.996,0.49067 1.29067,0.12533 2.89067,-0.26533 4.03067,-0.43867 1.23466,-0.18933 2.48133,-0.196 3.72266,-0.15466 0.88667,0.0293 1.77334,0.104 2.66134,0.0773 0.82533,-0.024 1.63066,-0.30933 2.44266,-0.42933"
       style="fill:#000000;fill-opacity:1;fill-rule:nonzero;stroke:none;stroke-width:1.33333"
       id="path37850" />
  </g>
  <g
     inkscape:groupmode="layer"
     id="layer1"
     inkscape:label="Revised Mouth"
     style="opacity:1">
    <path
       id="path154442"
       style="fill:#c14242;fill-opacity:1;fill-rule:nonzero;stroke:none;stroke-width:1.33333"
       d="m 308.29933,190.625 c -2.00131,-0.0312 -15.32861,3.39723 -19.86378,4.20898 2.04452,1.95896 5.22942,3.36822 7.65737,4.30004 3.22268,1.19656 12.00811,2.8704 12.00811,2.8704 l 1.73288,0.0674 4.72665,6.30186 2.53743,-2.32408 2.72479,-4.19523 3.46795,-0.71816 c 0,0 2.64862,-1.19119 3.75619,-2.78213 1.10758,-1.59093 1.66725,-3.70463 1.66725,-3.70463 l 0.71441,-0.0807 c -1.9618,-0.65948 -7.91256,-3.84019 -9.28067,-3.80999 -1.3681,0.0302 -4.29521,0.62703 -5.52791,0.63656 -1.2327,0.01 -4.3194,-0.73906 -6.3207,-0.7703 z"
       sodipodi:nodetypes="ccccccccczcczzzc" />
    <path
       d="m 320.12368,190.75872 c -2.40912,0.0485 -4.13141,0.61225 -5.44049,0.61594 -1.30908,0.004 -4.11394,-0.74544 -6.38397,-0.75025 -1.59494,-0.003 -17.12136,3.78266 -20.67603,4.356 0,0 13.988,0.57333 14.676,0.344 0.688,-0.22934 6.07734,-1.49067 7.912,-1.26134 1.83467,0.22934 5.38934,0.688 6.87867,0.344 1.49067,-0.344 3.66933,-1.03066 3.66933,-1.03066 0,0 6.69472,1.7462 8.98878,1.20635 0,0 -0.35103,-0.13932 -0.99301,-0.35767 -0.79594,-0.27071 -7.49805,-3.48919 -8.63128,-3.46637 z"
       style="opacity:0.199997;fill:#000000;fill-opacity:1;fill-rule:nonzero;stroke:none;stroke-width:1.33333"
       id="path9785"
       sodipodi:nodetypes="szscsscccss" />
    <path
       d="m 322.92973,193.37801 c -1.06534,-0.26934 -1.74267,-0.764 -2.904,-0.54 -2.18138,1.06427 -5.65531,0.85499 -8.52,0.40533 -1.30305,-0.20454 -6.584,0.584 -8.37467,1.21333 -1.09867,0.38667 -2.46533,0.32 -3.61067,0.37334 -2.89733,0.13333 -5.8,0.148 -8.7,0.20533 -0.65866,0.0133 -1.372,0.0107 -1.9,-0.38267 -0.50933,-0.37733 -0.676,-1.00266 -1.04533,-1.49066 -0.13333,-0.176 -0.32,-0.34534 -0.54133,-0.34 -0.15867,0.003 -0.29867,0.0947 -0.42534,0.188 -0.92533,0.67733 -1.66933,1.6 -2.136,2.648 0.048,-0.10934 1.40534,-0.064 1.576,-0.072 2.668,-0.108 5.33867,-0.076 8.00534,0.048 2.55333,0.12 5.096,0.44533 7.64933,0.12933 0.59067,-0.0733 1.17867,-0.176 1.75733,-0.31733 4.028,-0.984 7.21334,0.136 12.088,0.136 3.18,0 4.23867,-1.772 6.78267,-1.18134 2.544,0.59067 7.20667,0.19734 7.20667,0.19734 0,0 -5.84267,-0.95067 -6.908,-1.22"
       style="fill:#000000;fill-opacity:1;fill-rule:nonzero;stroke:none;stroke-width:1.33333"
       id="path9799"
       sodipodi:nodetypes="ccsccccccccccccsscc" />
    <path
       id="path9795"
       style="fill:#000000;fill-opacity:1;fill-rule:nonzero;stroke:none;stroke-width:1.33333"
       d="m 324.83232,200.2399 c 0,0 -4.4331,0.74789 -5.02464,1.28138 -0.59154,0.53349 -1.26447,1.79552 -2.0669,2.88601 -0.80243,1.09049 -1.44323,1.93357 -1.87508,2.49289 -0.43185,0.55932 -1.20721,0.74597 -1.20721,0.74597 -0.11341,0.028 -0.37355,-0.78798 -0.84765,-1.69531 -0.4741,-0.90734 -2.58032,-3.49089 -3.23286,-3.84878 -0.45597,-0.25008 -2.36695,-0.73506 -4.03472,-0.77232 -2.03798,-0.23678 -3.33008,-0.5 -3.33008,-0.5 0,0 2.91112,1.30809 6.39844,2.23828 0.21036,0.17536 1.67106,1.40468 2.33593,2.375 0.71538,1.04402 2.27344,3.73828 2.27344,3.73828 0,0 1.46141,-0.91613 2.16432,-1.72323 0.70291,-0.8071 1.42125,-1.80921 1.87355,-2.44169 0.45229,-0.63249 0.66147,-1.12435 0.89074,-1.632 3.66334,-1.60598 5.68272,-3.14448 5.68272,-3.14448 z"
       sodipodi:nodetypes="czzscsscccscszcc" />
    <path
       style="fill:#000000;fill-opacity:0.3;stroke:none;stroke-width:1px;stroke-linecap:butt;stroke-linejoin:miter;stroke-opacity:1"
       d="m 315.80108,205.7501 c 0,0 0.45356,-0.78482 0.65917,-1.61796 0.20561,-0.83314 0.41493,-2.362 0.32958,-3.38572 -0.0854,-1.02372 -0.37658,-1.81681 -0.71909,-2.66663 -0.34251,-0.84982 -0.98094,-1.9477 -1.31834,-2.39698 -0.3374,-0.44928 -0.44943,-0.44943 -0.44943,-0.44943 l -4.28459,-0.47939 c 0,0 1.16585,0.92845 1.8277,1.58799 0.66185,0.65954 1.61487,1.59913 2.09735,2.39697 0.48248,0.79784 0.60689,1.38798 0.8689,2.24716 0.26201,0.85918 0.49857,2.11125 0.65917,2.90633 0.1606,0.79508 0.32958,1.85766 0.32958,1.85766 z"
       id="path83082"
       sodipodi:nodetypes="czzzzcczzzzc" />
    <path
       id="path83845"
       style="opacity:0.199997;fill:#000000;fill-opacity:1;fill-rule:nonzero;stroke:none;stroke-width:1.33333"
       d="m 313.55469,206.70112 -1.97852,-2.57617 c 0,0 -1.06958,-1.00014 -1.92383,-1.78711 -4.28694,-0.797 -13.19922,-3.11719 -13.19922,-3.11718 0,0 7.70927,5.84984 12.91582,7.32165 1.57463,0.44512 3.4578,2.89742 4.92219,3.6564 l 0.67636,-1.07077 c 1.46032,-0.98131 3.5984,-2.02439 4.63737,-2.36303 5.01446,-1.63441 4.98015,-6.0429 5.14514,-6.44269 -1.16208,0.76613 -3.07667,1.12108 -5.17188,1.74023 l -0.7207,1.34375 -1.49804,2.09766 -2.94921,2.74122 z"
       sodipodi:nodetypes="ccccsccscccccc" />
  </g>
  <g
     inkscape:groupmode="layer"
     id="layer2"
     inkscape:label="Philtrum">
    <path
       d="m 313.49186,179.92254 c 0,0 -1.56,6.324 -0.65733,7.96667 0.904,1.64133 2.54666,1.724 2.54666,1.724 0,0 -2.05333,-1.88934 -1.80666,-4.10667 0.24533,-2.21733 -0.0827,-5.584 -0.0827,-5.584"
       style="opacity:1;fill:#000000;fill-opacity:1;fill-rule:nonzero;stroke:none;stroke-width:1.33333"
       id="path9803" />
  </g>
</svg>
