<?xml version="1.0" encoding="UTF-8" standalone="no"?>
<!-- Created with Inkscape (http://www.inkscape.org/) -->

<svg
   version="1.1"
   id="svg10700"
   width="400"
   height="400"
   viewBox="0 0 400 400"
   sodipodi:docname="TellariteMouth2Lipstick.svg"
   inkscape:version="1.3-beta (cedbd6c, 2023-05-28)"
   xmlns:inkscape="http://www.inkscape.org/namespaces/inkscape"
   xmlns:sodipodi="http://sodipodi.sourceforge.net/DTD/sodipodi-0.dtd"
   xmlns="http://www.w3.org/2000/svg"
   xmlns:svg="http://www.w3.org/2000/svg">
  <defs
     id="defs10704" />
  <sodipodi:namedview
     id="namedview10702"
     pagecolor="#ffffff"
     bordercolor="#666666"
     borderopacity="1.0"
     inkscape:showpageshadow="2"
     inkscape:pageopacity="0.0"
     inkscape:pagecheckerboard="0"
     inkscape:deskcolor="#d1d1d1"
     showgrid="false"
     inkscape:zoom="2.17"
     inkscape:cx="199.76959"
     inkscape:cy="200"
     inkscape:window-width="1956"
     inkscape:window-height="1081"
     inkscape:window-x="2104"
     inkscape:window-y="235"
     inkscape:window-maximized="0"
     inkscape:current-layer="g7"
     showguides="true">
    <inkscape:page
       x="0"
       y="0"
       id="page10706"
       width="400"
       height="400"
       margin="0"
       bleed="0" />
  </sodipodi:namedview>
  <g
     id="g10708"
     inkscape:groupmode="layer"
     inkscape:label="Original Artwork"
     sodipodi:insensitive="true"
     style="display:none">
    <path
       d="m 311.11613,205.9552 c -1.99467,-0.23066 -5.37067,-0.716 -9.932,-2.324 -4.424,-1.56 -8.99334,-1.64133 -8.99334,-1.64133 0,0 11.03067,9.056 23.436,9.35867 12.40667,0.304 12.26534,-7.928 12.52,-8.45467 -3.55066,2.00933 -12.80133,3.54933 -17.03066,3.06133"
       style="opacity:0.199997;fill:#000000;fill-opacity:1;fill-rule:nonzero;stroke:none;stroke-width:1.33333"
       id="path17022" />
    <path
       d="m 303.99986,206.4344 c 5.172,1.19067 8.14267,1.604 11.77333,1.57867 3.63067,-0.024 9.02267,-1.36 9.90267,-2.592 0.67733,-0.948 1.44933,-1.79467 1.832,-2.90933 0.20267,-0.59067 0.364,-1.24534 0.34133,-1.86934 -0.0147,-0.42533 -0.22666,-0.75866 -0.37466,-1.09999 -0.104,-0.10534 -0.196,-0.22 -0.25467,-0.36 -0.27333,-0.65867 0.15867,-1.09067 0.32933,-1.72267 0.29334,-1.088 0.10934,-2.32667 -0.25466,-3.372 -1.21067,-3.48667 -4.78667,-5.328 -8.428,-5.22933 -2.452,0.0667 -4.67734,1.47866 -4.67734,1.47866 0,0 -3.048,-2.71733 -6.86266,-2.61333 -3.81467,0.10267 -7.22934,0.87333 -10.44,3.61333 -1.45067,1.23867 -3.12267,2.01734 -4.768,3.01734 -0.82134,0.49866 -1.64267,1.04533 -2.512,1.48 -0.33867,0.16933 -0.72934,0.28533 -1.08534,0.44133 0.092,0.84267 0.296,1.67867 0.632,2.49067 0.816,1.97466 2.40534,2.84133 4.444,3.86133 3.17867,1.58933 7.16,3.06 10.40267,3.80666"
       style="fill:#c14242;fill-opacity:1;fill-rule:nonzero;stroke:none;stroke-width:1.33333"
       id="path17032" />
    <path
       d="m 315.11293,207.22454 c 10.78266,-0.0733 12.65333,-4.26934 12.65333,-6.43467 -10e-4,9.47867 -11.53867,9.59467 -18.02667,8.096 -3.124,-0.72133 -9.10266,-2.288 -12.256,-3.70267 -2.508,-1.12533 -6.71866,-2.58266 -7.56133,-5.18399 0.14267,0.43999 2.396,1.20933 2.884,1.43599 1.04267,0.48534 2.10133,0.94267 3.176,1.372 2.14933,0.85867 4.36,1.604 6.61467,2.23334 4.376,1.22 8.34666,2.212 12.516,2.184"
       style="fill:#000000;fill-opacity:1;fill-rule:nonzero;stroke:none;stroke-width:1.33333"
       id="path17036" />
    <path
       d="m 311.68386,202.6116 c -0.808,0.02 -1.584,0.132 -2.38667,0.164 -0.34933,0.0133 -0.79333,0.016 -1.10666,-0.0893 -0.404,-0.13467 -0.36934,-0.24933 -0.64534,-0.54933 -0.49466,-0.536 -1.43333,-0.71467 -2.05066,-1.08134 -0.64534,-0.384 -1.26,-0.81333 -2.092,-0.96666 -0.66667,-0.12133 -0.692,-0.22267 -1.01067,-0.70133 -0.208,-0.312 -0.452,-0.616 -0.7,-0.91067 0.444,-0.52 1.22267,-0.47333 1.91467,-0.444 0.17733,0.356 0.44933,0.59867 0.87733,0.68133 0.63067,0.12267 0.64,-0.21866 1.112,-0.46266 0.288,-0.148 0.92267,-0.348 1.26,-0.24934 0.42533,0.124 0.23867,0.45334 0.58667,0.672 0.356,0.224 0.672,-0.11333 1.05466,-0.19466 0.50267,-0.10534 0.88667,0.0253 1.36134,0.14 0.756,0.18533 1.42933,0.63066 2.084,1.02 1.024,0.61066 1.81066,0.46933 2.98133,0.40933 0.444,-0.0227 1.06667,0.11733 1.48533,-0.0147 1.07467,-0.33866 1.32134,-1.67866 2.47467,-1.98133 0.49067,-0.12933 0.76933,0.46133 1.2,0.492 0.492,0.0347 0.61733,-0.444 0.95467,-0.64 0.72266,-0.42133 0.96,0.33467 1.55733,0.53067 0.19733,0.064 0.44933,-0.0347 0.64667,0.0347 0.21066,0.076 0.572,0.32934 0.72533,0.48267 0.27867,0.276 0.332,0.74933 0.76133,0.94 0.14667,0.76533 -0.41333,0.72533 -0.93866,1.06133 -0.40934,0.26267 -0.59467,0.66667 -0.98667,0.97733 -0.46933,0.37334 -0.92267,0.168 -1.45733,0.13067 -0.68,-0.048 -1.16267,0.23733 -1.79867,0.38933 -0.456,0.10934 -0.99067,0.18534 -1.464,0.16667 -0.464,-0.0187 -1.02267,-0.112 -1.46667,-0.23467 -0.34933,-0.0973 -0.58,-0.34533 -0.96666,-0.336 -0.50934,0.0133 -0.69334,0.36267 -1.05467,0.60134 -0.828,0.544 -1.98,-0.06 -2.912,-0.0373"
       style="opacity:0.5;fill:#ffffff;fill-opacity:1;fill-rule:nonzero;stroke:none;stroke-width:1.33333"
       id="path17046" />
    <path
       d="m 287.20013,197.18161 c 5.73866,-0.3 18.27066,-4.57067 23.72,-2.25334 5.44933,2.316 4.73333,-0.92266 8.99066,-0.32266 4.72267,0.66533 5.268,2.31733 6.26667,4.14133 2.452,0.768 3.04267,-10.17067 -7.31067,-9.888 -2.452,0.0667 -4.67733,1.47867 -4.67733,1.47867 0,0 -3.048,-2.71867 -6.86267,-2.61467 -3.81466,0.104 -7.22933,0.87333 -10.44,3.61467 -2.79466,2.38533 -9.68666,5.844 -9.68666,5.844"
       style="opacity:0.199997;fill:#000000;fill-opacity:1;fill-rule:nonzero;stroke:none;stroke-width:1.33333"
       id="path17062" />
    <path
       d="m 313.82253,180.15054 c 0,0 -2.32667,5.20267 -2.1,6.14 0.22533,0.93733 2.81066,2.55333 2.81066,2.55333 0,0 -2.036,-2.068 -1.712,-3.58666 0.32267,-1.52 1.00134,-5.10667 1.00134,-5.10667"
       style="fill:#000000;fill-opacity:1;fill-rule:nonzero;stroke:none;stroke-width:1.33333"
       id="path17072" />
    <path
       d="m 287.60413,197.75281 c 0.34133,0.004 0.708,-0.0947 1.00666,-0.15867 0.412,-0.0893 0.83067,-0.15867 1.24534,-0.23733 1.124,-0.212 2.25066,-0.42 3.37733,-0.62 2.17333,-0.388 4.35333,-0.77734 6.55067,-1.036 3.92666,-0.46267 9.31866,-1.632 11.68,-0.16667 2.36133,1.46667 2.90666,1.02667 4.088,0.496 1.18,-0.532 5.176,-2.47733 7.53733,-0.31333 0.76267,0.69866 1.46933,1.444 2.12,2.24133 0.40667,0.49733 0.78533,1.03067 1.548,0.83333 0.35867,-0.092 0.58533,-0.32533 0.68933,-0.656 0.048,-0.148 0.324,-0.68933 0.0627,-0.79466 -0.0707,-0.028 -0.25467,0.0973 -0.368,0.12666 -0.16133,0.0413 -0.31867,0.0893 -0.472,0.10934 -0.256,0.032 -0.57067,-0.0853 -0.75467,-0.25067 -0.208,-0.188 -0.41466,-0.36933 -0.64666,-0.544 -0.496,-0.37067 -0.988,-0.74933 -1.452,-1.15733 -1.18,-1.03867 -1.99734,-1.556 -4.54134,-1.53867 -2.54266,0.0173 -4.35866,1.68667 -5.26666,1.692 -0.908,0.007 -3.63334,-2.15467 -6.08534,-2.13733 -2.452,0.016 -9.74933,1.37333 -12.568,1.916 -0.93066,0.17866 -1.88266,0.276 -2.82533,0.38666 -0.78,0.092 -1.55067,0.252 -2.336,0.31867 -0.68133,0.0587 -1.35733,-0.024 -2.048,-0.0173 -0.49467,0.004 -0.86133,-0.256 -1.32533,-0.28534 -0.52667,-0.0333 -0.53067,0.47867 -0.43734,0.80267 0.088,0.30533 0.32667,0.576 0.56667,0.77733 0.184,0.156 0.41333,0.21067 0.65467,0.21334"
       style="fill:#000000;fill-opacity:1;fill-rule:nonzero;stroke:none;stroke-width:1.33333"
       id="path17076" />
  </g>
  <g
     id="g7"
     inkscape:groupmode="layer"
     inkscape:label="Revised Artwork">
    <path
       d="m 311.11613,205.9552 c -1.99467,-0.23066 -5.37067,-0.716 -9.932,-2.324 -4.424,-1.56 -8.99334,-1.64133 -8.99334,-1.64133 0,0 11.03067,9.056 23.436,9.35867 12.40667,0.304 12.26534,-7.928 12.52,-8.45467 -3.55066,2.00933 -12.80133,3.54933 -17.03066,3.06133"
       style="opacity:0.199997;fill:#000000;fill-opacity:1;fill-rule:nonzero;stroke:none;stroke-width:1.33333"
       id="path1" />
    <path
       d="m 312.73686,207.91806 c 1.00289,0.0733 2.7866,5.31598 3.8306,5.3087 1.59847,-1.07027 3.76177,-4.47019 4.71858,-5.99248 0.43399,-0.69047 3.76605,-1.19962 4.38982,-1.81321 1.1732,-1.15404 1.59334,-1.76587 1.97601,-2.88053 0.20267,-0.59067 0.4216,-1.27414 0.39893,-1.89814 -0.0147,-0.42533 -0.25546,-0.75866 -0.40346,-1.09999 -0.104,-0.10534 -0.1672,-0.22 -0.22587,-0.36 -0.27333,-0.65867 0.36438,-1.09067 0.53504,-1.72267 0.29334,-1.088 0.41231,-2.11219 0.0854,-3.97684 -0.3269,-1.86465 -2.3116,-5.42637 -6.02107,-5.40129 -3.70947,0.0251 -5.95776,2.33692 -5.95776,2.33692 0,0 -3.048,-2.71733 -6.86266,-2.61333 -3.81467,0.10267 -9.73295,1.74227 -12.31367,3.53187 -2.58072,1.7896 -3.12267,2.01734 -4.768,3.01734 -0.82134,0.49866 -1.64267,1.04533 -2.512,1.48 -0.33867,0.16933 -0.72934,0.28533 -1.08534,0.44133 0.092,0.84267 0.296,1.67867 0.632,2.49067 0.816,1.97466 2.40534,2.84133 4.444,3.86133 3.17867,1.58933 7.16,3.06 10.40256,3.80666 3.68467,0.84829 6.2521,1.30202 8.73689,1.48366 z"
       style="fill:#c14242;fill-opacity:1;fill-rule:nonzero;stroke:none;stroke-width:1.33333"
       id="path2"
       sodipodi:nodetypes="scssccccczzcczcsccccs" />
    <path
       id="path3"
       style="fill:#000000;fill-opacity:1;fill-rule:nonzero;stroke:none;stroke-width:1.33333"
       d="m 289.99023,200.10156 c 1.38197,2.22609 5.02428,3.97381 7.49415,5.08203 3.15332,1.41467 8.38187,2.92322 11.50585,3.64453 1.17789,0.27209 2.55347,0.4772 4.01368,0.58204 1.41405,1.22944 2.4621,3.15238 3.39673,4.74915 0,0 1.21676,-1.03971 1.91967,-1.84681 0.70291,-0.8071 1.42075,-1.80893 1.87305,-2.44141 0.28484,-0.39833 0.46921,-0.7386 0.62695,-1.06445 2.39477,-0.63707 4.4913,-1.7674 5.77149,-3.58594 0.0554,-0.0403 0.17578,-0.125 0.17578,-0.125 0,0 -0.095,0.0226 -0.10742,0.0254 0.78833,-1.1622 1.2498,-2.59833 1.25,-4.35937 0,1.56203 -1.43982,4.16429 -6.28907,5.52148 -0.65764,1.06621 -1.24278,2.0199 -1.94531,2.97852 -1.32364,1.80613 -2.23653,3.01913 -3.08203,3.44389 0,0 -0.61795,-1.1953 -1.09205,-2.10263 -0.73282,-1.40248 -2.62692,-3.12409 -3.05834,-3.49556 -3.29858,-0.21923 -6.16471,-1.04018 -9.8457,-2.0664 -2.25467,-0.62934 -4.46591,-1.37571 -6.61524,-2.23438 -1.07467,-0.42933 -2.13311,-0.88575 -3.17578,-1.37109 -0.45204,-0.20996 -2.4156,-0.88584 -2.81641,-1.33399 z"
       sodipodi:nodetypes="cccccssccccccscsccsccc" />
    <path
       id="path4"
       style="opacity:0.5;fill:#ffffff;fill-opacity:1;fill-rule:nonzero;stroke:none;stroke-width:1.33333"
       d="M 321.91797 197.75195 C 321.81102 197.75962 321.69214 197.79795 321.55664 197.87695 C 321.2193 198.07295 321.09356 198.55032 320.60156 198.51562 C 320.17089 198.48496 319.89301 197.89411 319.40234 198.02344 C 318.87272 198.16243 318.53592 198.52328 318.2207 198.90234 C 318.23716 198.94381 318.25611 198.9868 318.27148 199.02734 C 318.63248 199.97939 318.94125 200.86876 319.03125 202.01562 C 319.045 202.19097 319.04847 202.38113 319.04883 202.57812 C 319.39473 202.55493 319.7495 202.49786 320.06641 202.42188 C 320.70241 202.26988 321.18524 201.9852 321.86523 202.0332 C 322.39989 202.07053 322.85294 202.27568 323.32227 201.90234 C 323.71427 201.59168 323.89925 201.18845 324.30859 200.92578 C 324.83392 200.58978 325.39472 200.62861 325.24805 199.86328 C 324.81872 199.67261 324.765 199.19983 324.48633 198.92383 C 324.333 198.7705 323.97238 198.51741 323.76172 198.44141 C 323.56438 198.37201 323.31256 198.47025 323.11523 198.40625 C 322.6299 198.247 322.3814 197.71871 321.91797 197.75195 z M 307.07617 197.94922 C 306.74186 197.97078 306.33123 198.11166 306.11523 198.22266 C 305.64323 198.46666 305.63262 198.80822 305.00195 198.68555 C 304.57395 198.60289 304.30233 198.35991 304.125 198.00391 C 303.433 197.97458 302.65494 197.92727 302.21094 198.44727 C 302.45894 198.74194 302.70216 199.04738 302.91016 199.35938 C 303.22883 199.83803 303.25521 199.93922 303.92188 200.06055 C 304.75387 200.21388 305.36833 200.64334 306.01367 201.02734 C 306.631 201.39401 307.56979 201.57142 308.06445 202.10742 C 308.34045 202.40742 308.30498 202.52353 308.70898 202.6582 C 309.02231 202.7635 309.46708 202.75939 309.81641 202.74609 C 310.61908 202.71409 311.39513 202.60203 312.20312 202.58203 C 313.13512 202.55933 314.28724 203.16509 315.11523 202.62109 C 315.47656 202.38242 315.66058 202.03283 316.16992 202.01953 C 316.48199 202.012 316.69208 202.16999 316.94531 202.2832 C 316.69977 201.42737 316.56901 200.80939 316.18555 200.05469 C 315.92524 200.03889 315.66066 200.00832 315.44141 200.01953 C 314.27074 200.07953 313.48494 200.22199 312.46094 199.61133 C 311.80627 199.22199 311.13295 198.77713 310.37695 198.5918 C 309.90228 198.4771 309.51829 198.34583 309.01562 198.45117 C 308.63297 198.5325 308.31694 198.86853 307.96094 198.64453 C 307.61294 198.42587 307.80033 198.09666 307.375 197.97266 C 307.29067 197.94799 307.18761 197.94203 307.07617 197.94922 z " />
    <path
       id="path5"
       style="opacity:0.199997;fill:#000000;fill-opacity:1;fill-rule:nonzero;stroke:none;stroke-width:1.33333"
       d="m 309.11328,187.80859 c -0.0812,0.003 -0.16702,0.01 -0.25,0.0137 -0.19869,0.009 -0.4099,0.0221 -0.63281,0.041 -0.11678,0.01 -0.23418,0.0193 -0.35352,0.0312 -0.32498,0.0333 -0.65946,0.0713 -1.00781,0.12109 -0.25462,0.0364 -0.5146,0.0784 -0.77539,0.12305 -0.19961,0.0342 -0.41173,0.0735 -0.62891,0.11524 -0.0527,0.0101 -0.10056,0.0187 -0.15429,0.0293 -0.25509,0.0504 -0.5257,0.10807 -0.80274,0.16992 -0.0345,0.008 -0.0667,0.0136 -0.10156,0.0215 -0.30946,0.0701 -0.63027,0.14666 -0.96484,0.23242 -0.57674,0.14775 -1.14958,0.31027 -1.70703,0.48438 -0.27868,0.0871 -0.55434,0.17689 -0.82422,0.26953 -1.6188,0.55564 -3.05602,1.20609 -4.02344,1.87695 -2.58072,1.7896 -3.12225,2.01563 -4.76758,3.01563 -0.5396,0.32761 -1.08155,0.67436 -1.63476,0.99804 -0.28884,0.169 -0.57876,0.33332 -0.87696,0.48242 -0.1078,0.0539 -0.22625,0.0984 -0.3418,0.14454 -0.23263,0.13702 -0.52497,0.3136 -0.7246,0.42968 0.026,0.21141 0.059,0.42265 0.0996,0.63282 1.3e-4,6.2e-4 -1.2e-4,0.001 0,0.002 6.18448,-0.78097 17.2468,-4.25529 22.2793,-2.11524 5.44933,2.316 7.12346,0.22981 8.99024,-0.32226 3.12576,-0.78874 5.84311,1.71313 6.84178,3.53713 0.41362,0.12956 0.7059,0.0537 1.0879,-0.39065 v -0.002 c 0.0462,-0.0934 0.0897,-0.18894 0.11719,-0.29102 0.29334,-1.08799 0.4109,-2.11191 0.084,-3.97656 -0.3269,-1.86465 -2.31007,-5.42547 -6.01954,-5.40039 -3.70946,0.0251 -5.95898,2.33594 -5.95898,2.33594 0,0 -0.14071,-0.11678 -0.3457,-0.27539 -0.14659,-0.0207 -0.31615,-0.14102 -0.56446,-0.40235 -0.004,-0.004 -0.01,-0.006 -0.0137,-0.01 -0.0838,-0.0567 -0.14619,-0.10576 -0.24023,-0.16602 -0.5435,-0.34126 -1.05036,-0.61099 -1.51367,-0.82617 -0.19677,-0.0914 -0.38206,-0.16768 -0.5625,-0.24023 -0.0763,-0.0303 -0.15223,-0.0608 -0.23047,-0.0899 -0.0688,-0.0259 -0.13319,-0.0489 -0.19922,-0.0723 -0.16686,-0.0583 -0.33502,-0.11498 -0.50977,-0.16602 -0.41109,-0.12006 -0.84455,-0.21885 -1.29297,-0.2832 -0.22421,-0.0322 -0.45172,-0.0542 -0.68359,-0.0684 -0.0591,-0.004 -0.12014,-0.002 -0.17969,-0.004 -0.19158,-0.007 -0.38808,-0.011 -0.61328,-0.006 z"
       sodipodi:nodetypes="ccccsssssscssscssccscccccccssccsccscccsssccc" />
    <path
       d="m 287.60413,197.75281 c 0.34133,0.004 0.708,-0.0947 1.00666,-0.15867 0.412,-0.0893 0.83067,-0.15867 1.24534,-0.23733 1.124,-0.212 2.25066,-0.42 3.37733,-0.62 2.17333,-0.388 4.35333,-0.77734 6.55067,-1.036 3.92666,-0.46267 10.49954,-1.48799 12.86088,-0.0227 2.36133,1.46667 2.90666,1.02667 4.088,0.496 1.18,-0.532 5.05789,-2.7604 7.41922,-0.5964 0.76267,0.69866 1.32678,1.21997 1.97745,2.0173 0.40667,0.49733 0.78533,1.03067 1.548,0.83333 0.35867,-0.092 0.58533,-0.32533 0.68933,-0.656 0.048,-0.148 0.324,-0.68933 0.0627,-0.79466 -0.0707,-0.028 -0.25467,0.0973 -0.368,0.12666 -0.16133,0.0413 -0.31867,0.0893 -0.472,0.10934 -0.256,0.032 -0.50217,0.0444 -1.10089,-0.49506 -0.59872,-0.53951 -1.38119,-1.1008 -2.2616,-1.86426 -0.88041,-0.76346 -1.63075,-0.98575 -4.17475,-0.82586 -2.53771,0.1595 -3.95543,1.88828 -4.86343,1.89361 -0.908,0.007 -3.75519,-2.38014 -7.26622,-2.28134 -2.452,0.016 -9.74933,1.37333 -12.568,1.916 -0.93066,0.17866 -1.88266,0.276 -2.82533,0.38666 -0.78,0.092 -1.55067,0.252 -2.336,0.31867 -0.68133,0.0587 -1.35733,-0.024 -2.048,-0.0173 -0.49467,0.004 -0.86133,-0.256 -1.32533,-0.28534 -0.52667,-0.0333 -0.53067,0.47867 -0.43734,0.80267 0.088,0.30533 0.32667,0.576 0.56667,0.77733 0.184,0.156 0.41333,0.21067 0.65467,0.21334"
       style="fill:#000000;fill-opacity:1;fill-rule:nonzero;stroke:none;stroke-width:1.33333"
       id="path7"
       sodipodi:nodetypes="cccccccccccccczzsccccccsscc" />
  </g>
  <g
     inkscape:groupmode="layer"
     id="layer4"
     inkscape:label="Philtrum">
    <path
       d="m 313.82253,180.15054 c 0,0 -2.32667,5.20267 -2.1,6.14 0.22533,0.93733 2.81066,2.55333 2.81066,2.55333 0,0 -2.036,-2.068 -1.712,-3.58666 0.32267,-1.52 1.00134,-5.10667 1.00134,-5.10667"
       style="fill:#000000;fill-opacity:1;fill-rule:nonzero;stroke:none;stroke-width:1.33333"
       id="path6" />
  </g>
  <path
     style="fill:#000000;fill-opacity:0.3;stroke:none;stroke-width:1.08663px;stroke-linecap:butt;stroke-linejoin:miter;stroke-opacity:1"
     d="m 317.92379,208.57851 c 0,0 0.54243,-1.83749 0.75915,-2.77085 0.2167,-0.93336 0.43733,-2.64612 0.34737,-3.79299 -0.09,-1.14687 -0.39691,-2.03535 -0.75791,-2.9874 -0.36099,-0.95204 -1.03389,-2.18199 -1.3895,-2.68532 -0.35561,-0.50332 -0.47369,-0.50349 -0.47369,-0.50349 l -1.51278,0.27131 -3.0031,-0.80836 c 0,0 1.22878,1.04013 1.92636,1.77901 0.69758,0.73888 1.70204,1.79149 2.21057,2.6853 0.50852,0.89382 0.63965,1.55495 0.9158,2.51748 0.27616,0.96252 0.52549,2.36521 0.69476,3.25592 0.16927,0.89073 0.28297,3.03939 0.28297,3.03939 z"
     id="path83082"
     sodipodi:nodetypes="czzzzccczzzzc" />
</svg>
