<?xml version="1.0" encoding="UTF-8" standalone="no"?>
<!-- Created with Inkscape (http://www.inkscape.org/) -->

<svg
   version="1.1"
   id="svg154257"
   width="400"
   height="400"
   viewBox="0 0 400 400"
   sodipodi:docname="TellariteMouth4.svg"
   inkscape:version="1.2.2 (b0a8486, 2022-12-01)"
   xmlns:inkscape="http://www.inkscape.org/namespaces/inkscape"
   xmlns:sodipodi="http://sodipodi.sourceforge.net/DTD/sodipodi-0.dtd"
   xmlns="http://www.w3.org/2000/svg"
   xmlns:svg="http://www.w3.org/2000/svg">
  <defs
     id="defs154261" />
  <sodipodi:namedview
     id="namedview154259"
     pagecolor="#ffffff"
     bordercolor="#666666"
     borderopacity="1.0"
     inkscape:showpageshadow="2"
     inkscape:pageopacity="0.0"
     inkscape:pagecheckerboard="0"
     inkscape:deskcolor="#d1d1d1"
     showgrid="false"
     inkscape:zoom="26.841773"
     inkscape:cx="316.14901"
     inkscape:cy="195.53477"
     inkscape:window-width="1715"
     inkscape:window-height="1235"
     inkscape:window-x="2569"
     inkscape:window-y="55"
     inkscape:window-maximized="0"
     inkscape:current-layer="layer8">
    <inkscape:page
       x="0"
       y="0"
       id="page154263"
       width="400"
       height="400" />
  </sodipodi:namedview>
  <g
     id="g154265"
     inkscape:groupmode="layer"
     inkscape:label="Page 1">
    <path
       id="path144019"
       style="opacity:1;fill:#cd976d;fill-opacity:1;fill-rule:nonzero;stroke:none;stroke-width:1.33333"
       d="m 312.11719,188.72656 c -0.61642,-0.005 -1.08629,0.0449 -1.42578,0.18946 -0.90667,0.38533 -16.13498,5.49111 -19.18164,6.06445 0,0 -0.95011,0.12107 -1.625,0.17192 0,0 5.12319,3.11666 6.95312,3.89844 1.82993,0.78178 2.02097,0.61622 3.79492,1.16016 1.77395,0.54394 4.23233,1.47357 6.84961,2.10742 2.61728,0.63385 5.21137,1.56196 7.84371,1.31929 0.34597,-0.0319 1.6936,3.41774 2.02945,3.3491 0.42414,-0.0867 1.36045,-3.55226 1.76244,-3.68228 1.70161,-0.55037 2.65319,-1.30101 3.6437,-1.82986 1.4098,-0.75271 1.47245,-0.98395 2.21289,-1.58008 0.74044,-0.59613 1.5518,-1.11806 2.00195,-2.00195 0.45015,-0.88389 0.52539,-2.95117 0.52539,-2.95117 l -0.91797,-0.29102 c 0.46166,0.0263 0.85298,0.0165 1.10938,-0.0527 0,0 -5.09502,-4.62162 -6.15234,-5.48828 -1.05733,-0.868 -1.94592,0.0963 -5.03125,-0.0957 -1.92833,-0.12083 -3.36523,-0.27943 -4.39258,-0.28711 z"
       sodipodi:nodetypes="ccccssssssssscccccsc" />
    <path
       d="m 314.88303,202.78847 c 0.43218,-0.0405 2.25035,4.02088 2.38442,3.98449 0.57261,-0.15544 2.23001,-4.71948 2.23001,-4.71948 2.29492,-0.46673 4.04169,-1.23325 5.32147,-2.07118 2.90666,-1.904 0.208,-0.504 0,0 -0.20934,0.504 -0.0947,8.396 -10.25334,8.024 -10.15733,-0.372 -18.23866,-9.12533 -18.23866,-9.12533 0,0 11.08266,3.43066 14.54533,3.92531 1.00673,0.14381 2.47462,0.12624 4.01077,-0.0178 z"
       style="opacity:0.199997;fill:#000000;fill-opacity:1;fill-rule:nonzero;stroke:none;stroke-width:1.33333"
       id="path157135"
       sodipodi:nodetypes="sssccsccs" />
    <path
       d="m 327.69359,194.59774 c 0,0 -5.096,-4.62133 -6.15333,-5.488 -1.05733,-0.868 -1.94533,0.096 -5.03067,-0.096 -3.08533,-0.19333 -4.912,-0.48267 -5.81733,-0.0973 -0.90667,0.38533 -16.136,5.49066 -19.18267,6.064 0,0 11.99067,0.57333 12.58,0.344 0.58934,-0.22934 5.208,-1.49067 6.78134,-1.26134 1.572,0.22934 4.61866,0.688 5.896,0.344 1.27733,-0.344 3.14533,-1.03066 3.14533,-1.03066 0,0 6.22667,1.64133 7.78133,1.22133"
       style="opacity:0.199997;fill:#000000;fill-opacity:1;fill-rule:nonzero;stroke:none;stroke-width:1.33333"
       id="path157151" />
    <path
       d="m 314.75165,201.97868 c 0.32412,-0.0207 1.73513,3.33218 2.69605,4.40507 0.98578,-1.64853 1.89225,-4.23063 2.03961,-4.74472 4.06953,-0.6563 5.24975,-1.49649 5.24975,-1.49649 0,0 -1.8789,2.39901 -5.1876,3.67086 -0.30809,0.81477 -2.1333,3.77568 -2.1333,3.77568 0,0 -1.91259,-2.50089 -2.44098,-3.02247 -5.33467,0 -12.00479,-3.83341 -12.00479,-3.83341 0,0 5.08021,1.67232 11.78126,1.24548 z"
       style="fill:#000000;fill-opacity:1;fill-rule:nonzero;stroke:none;stroke-width:1.33333"
       id="path157161"
       sodipodi:nodetypes="scccccccs" />
    <path
       d="m 321.77226,193.37801 c -0.91333,-0.26934 -1.49333,-0.764 -2.48933,-0.54 -0.996,0.22533 -6.18267,0.58533 -7.30267,0.40533 -1.12,-0.18 -5.64267,0.584 -7.17867,1.21333 -0.94133,0.38667 -2.112,0.32 -3.09466,0.37334 -1.37334,0.0733 -2.748,0.11066 -4.12267,0.14 -1.284,0.0267 -2.608,0.15733 -3.888,0.028 -0.77067,-0.0787 -1.72133,-0.26 -2.35333,-0.74267 -0.704,-0.53733 -0.31467,-1.224 -0.34267,-1.97333 0.003,0.0653 -0.96133,1.172 -1.07867,1.31866 -0.51466,0.63734 -1.02933,1.544 -1.09733,2.37467 -0.0533,0.668 0.96,0.484 1.34,0.38133 2.156,-0.58666 4.46667,-0.848 6.728,-0.776 2.33333,0.0733 4.60267,0.52134 6.94267,0.18267 0.50666,-0.0733 1.01066,-0.176 1.50666,-0.31733 3.452,-0.984 6.18267,0.136 10.36134,0.136 2.72533,0 3.63333,-1.772 5.81333,-1.18134 1.16267,0.31467 2.41733,0.33867 3.61467,0.324 0.472,-0.005 1.02266,-0.22133 1.46,-0.044 0.208,0.0853 1.11466,0.936 0.91866,1.20667 0.25467,-0.35333 0.18,-0.71867 0.156,-1.11733 -0.0107,-0.19467 -0.16533,-0.85067 -0.10533,-0.99467 -0.0267,0.0653 -0.048,0.088 -0.0587,0.168 -0.312,0.13467 -0.412,0.27067 -0.748,0.31733 -0.30666,0.0427 -0.64266,0.0307 -0.94666,-0.028 -0.53467,-0.1 -1.068,-0.20933 -1.60267,-0.31866 -0.80933,-0.164 -1.63867,-0.30134 -2.432,-0.536"
       style="fill:#000000;fill-opacity:1;fill-rule:nonzero;stroke:none;stroke-width:1.33333"
       id="path157165" />
    <path
       style="fill:#000000;fill-opacity:0.3;stroke:none;stroke-width:1px;stroke-linecap:butt;stroke-linejoin:miter;stroke-opacity:1"
       d="m 317.35083,205.30943 c 0,0 0.45356,-0.78482 0.65917,-1.61796 0.20561,-0.83314 0.34042,-2.28749 0.25507,-3.31121 -0.0854,-1.02372 -0.37658,-1.7423 -0.71909,-2.59212 -0.34251,-0.84982 -0.98094,-1.76142 -1.31834,-2.2107 -0.3374,-0.44928 -0.44943,-0.44943 -0.44943,-0.44943 l -4.28459,-0.47939 c 0,0 1.16585,0.92845 1.8277,1.58799 0.66185,0.65954 1.61487,1.41285 2.09735,2.21069 0.48248,0.79784 0.79317,1.42524 1.05518,2.28442 0.26201,0.85918 0.3868,1.73869 0.5474,2.72005 0.1606,0.98136 0.32958,1.85766 0.32958,1.85766 z"
       id="path83082"
       sodipodi:nodetypes="czzzzcczzzzc" />
  </g>
  <g
     inkscape:groupmode="layer"
     id="layer8"
     inkscape:label="Philtrum">
    <path
       style="fill:#000000;fill-opacity:1;stroke:none;stroke-width:1px;stroke-linecap:butt;stroke-linejoin:miter;stroke-opacity:1"
       d="m 310.62612,176.70588 c 0,0 0.83974,1.37584 1.11765,2.2353 0.27791,0.85946 0.21573,1.7699 0.47059,2.88235 0.25486,1.11245 0.54168,2.9572 1.11764,3.76471 0.57596,0.80751 1.11244,1.0315 1.64706,1.17647 0.53462,0.14497 0.84364,0.18982 1.29412,-0.11765 0.45048,-0.30747 0.65505,-1.02493 0.88235,-1.76471 0.2273,-0.73978 0.23518,-1.7353 0.35295,-2.64706 0.11777,-0.91176 0.35294,-2.82353 0.35294,-2.82353 0,0 -0.97284,1.50587 -1.23529,2.29413 -0.26246,0.78825 -0.14973,1.69319 -0.35295,2.35294 -0.20322,0.65974 -0.44124,1.38497 -0.7647,1.58823 -0.32346,0.20326 -0.306,0.11001 -0.52941,0 -0.22342,-0.11002 -0.23751,-0.0842 -0.58824,-0.76471 -0.35073,-0.68048 -0.77836,-2.45936 -1.05882,-3.47059 -0.28047,-1.01123 -0.19121,-1.76971 -0.64707,-2.58823 -0.45586,-0.81852 -2.05882,-2.11765 -2.05882,-2.11765 z"
       id="path109669"
       sodipodi:nodetypes="czzzzzzzczzzzzzzc" />
  </g>
</svg>
