<?xml version="1.0" encoding="UTF-8" standalone="no"?>
<!-- Created with Inkscape (http://www.inkscape.org/) -->

<svg
   version="1.1"
   id="svg137594"
   width="400"
   height="400"
   viewBox="0 0 400 400"
   sodipodi:docname="TellariteMouth6.svg"
   inkscape:version="1.3-beta (cedbd6c, 2023-05-28)"
   xmlns:inkscape="http://www.inkscape.org/namespaces/inkscape"
   xmlns:sodipodi="http://sodipodi.sourceforge.net/DTD/sodipodi-0.dtd"
   xmlns="http://www.w3.org/2000/svg"
   xmlns:svg="http://www.w3.org/2000/svg">
  <defs
     id="defs137598" />
  <sodipodi:namedview
     id="namedview137596"
     pagecolor="#ffffff"
     bordercolor="#666666"
     borderopacity="1.0"
     inkscape:showpageshadow="2"
     inkscape:pageopacity="0.0"
     inkscape:pagecheckerboard="0"
     inkscape:deskcolor="#d1d1d1"
     showgrid="false"
     inkscape:zoom="2.5175"
     inkscape:cx="199.80139"
     inkscape:cy="200"
     inkscape:window-width="2207"
     inkscape:window-height="1220"
     inkscape:window-x="2011"
     inkscape:window-y="25"
     inkscape:window-maximized="0"
     inkscape:current-layer="g137602">
    <inkscape:page
       x="0"
       y="0"
       id="page137600"
       width="400"
       height="400"
       margin="0"
       bleed="0" />
  </sodipodi:namedview>
  <g
     id="g137602"
     inkscape:groupmode="layer"
     inkscape:label="Page 1">
    <path
       id="path175972"
       style="opacity:1;fill:#cd976d;fill-opacity:1;fill-rule:nonzero;stroke:none;stroke-width:1.33333"
       d="m 311.33203,187.89844 c -0.17941,0.003 -0.33654,0.012 -0.4707,0.0273 -9.18666,1.04666 -17.26021,4.45636 -21.54688,6.56836 -2.07199,1.02133 -3.25976,1.74024 -3.25976,1.74024 0,0 0.981,0.0265 2.23828,0.0586 l -0.66797,0.082 c 0,0 2.85881,3.68957 6.05664,4.86523 3.19783,1.17567 4.62592,1.58102 8.56641,2.81446 3.26948,1.0234 7.61608,1.95826 11.27582,2.25837 0.7511,0.0616 3.74088,5.65311 4.0755,5.632 0.35819,-0.0226 2.52862,-5.63866 2.97425,-5.68656 0.93765,-0.10079 0.89524,-0.14622 1.86779,-0.49047 1.74364,-0.6172 3.45087,-1.86797 4.5961,-2.95107 1.14523,-1.0831 1.55873,-2.02423 1.89164,-3.27159 0.33435,-1.32077 0.5421,-2.05604 0.46733,-3.97851 -0.492,-2.408 -2.58658,-5.94827 -6.14257,-7.4336 -1.47067,-0.61334 -1.69448,0.37402 -5.23047,0.16602 -3.09516,-0.18317 -5.43553,-0.42484 -6.69141,-0.40039 z"
       sodipodi:nodetypes="scccccsssssssccccss" />
    <path
       id="path140356"
       style="opacity:0.199997;fill:#000000;fill-opacity:1;fill-rule:nonzero;stroke:none;stroke-width:1.33333"
       d="m 292.92439,200.97145 c 0,0 9.69431,10.04209 21.85295,10.43675 0.66503,0.0217 1.28734,0.0127 1.88086,-0.0156 l -2.85937,-5.48633 c -1.34208,0.0191 -2.46508,0.0896 -3.44141,-0.0352 -1.95467,-0.248 -5.42566,-0.61911 -9.45898,-2.29244 -4.18376,-1.22545 -7.97405,-2.6072 -7.97405,-2.6072 z m 34.12249,1.89183 c -1.34853,0.78536 -3.5256,1.55708 -5.95118,2.04297 l -2.77148,6.33398 c 8.57734,-1.18038 8.5005,-7.89939 8.72266,-8.37695 z"
       sodipodi:nodetypes="csccccccccc" />
    <path
       d="m 329.14706,195.40027 c -1.77333,0.48667 -5.976,-0.91733 -5.976,-0.91733 0,0 -4.11467,0.46533 -5.96533,0.864 -1.84934,0.39867 -6.26,-0.13333 -8.53734,-0.39867 -2.276,-0.26666 -5.52266,1.19734 -6.19466,1.46267 -0.67334,0.26667 -16.41867,-0.17733 -16.41867,-0.17733 0,0 1.188,-0.71734 3.26,-1.73867 4.28667,-2.112 12.36,-5.52267 21.54667,-6.56933 1.07333,-0.12267 3.62533,0.164 7.16266,0.37333 3.536,0.208 3.75867,-0.77867 5.22934,-0.16533 3.556,1.48533 5.65066,5.02533 6.14266,7.43333"
       style="opacity:0.199997;fill:#000000;fill-opacity:1;fill-rule:nonzero;stroke:none;stroke-width:1.33333"
       id="path140384" />
    <path
       id="path140394"
       style="fill:#000000;fill-opacity:1;fill-rule:nonzero;stroke:none;stroke-width:1.33333"
       d="m 323.29102,204.08594 c -1.21729,0.39063 -2.19495,0.67973 -2.73006,1.15911 -0.4358,1.42276 -1.75164,4.76977 -2.9633,6.26857 -1.22637,-1.66462 -3.39021,-5.39987 -3.98287,-5.88247 -0.59266,-0.4826 -1.66277,-0.56825 -2.96635,-0.57835 -1.56266,-0.012 -3.13888,-0.18459 -4.68555,-0.44726 -1.52266,-0.25733 -3.62567,-0.38143 -5.21146,-1.12613 1.14718,0.72483 1.87713,1.34626 3.69501,2.2332 1.81788,0.88693 3.98754,2.03008 6.42088,2.38208 1.41661,0.20497 1.84635,0.22694 3.17848,0.6096 1.25135,1.44442 3.47248,3.95747 3.65732,3.94025 0.20933,-0.0195 2.1578,-3.03682 2.94311,-4.78346 0.38486,-0.28589 0.94506,-0.51794 1.87142,-0.93896 0.92636,-0.42102 1.97379,-1.06177 3.83001,-2.95136 0.26934,-0.284 0.96265,-1.48534 0.96265,-1.48534 0,0 -2.802,1.20989 -4.01929,1.60052 z"
       sodipodi:nodetypes="ccccccczscsczccc" />
    <path
       d="m 322.65413,194.08161 c -0.69067,-0.152 0.0627,-0.252 -0.77467,-0.20934 -0.772,0.0387 -1.656,0.716 -2.36533,0.812 -3.108,0.41734 -5.60267,-0.432 -8.688,-0.828 -1.62267,-0.20933 -5.78934,0.81867 -7.54,1.548 -1.07467,0.448 -2.40934,0.37067 -3.53067,0.432 -1.56533,0.0867 -3.13333,0.12934 -4.70133,0.16267 -1.464,0.032 -2.97467,0.18267 -4.43467,0.032 -0.88,-0.0893 -1.964,-0.3 -2.68533,-0.86133 -0.80267,-0.62267 -0.35867,-1.42 -0.39067,-2.288 0.003,0.0747 -1.096,1.35866 -1.23067,1.52933 -0.58533,0.73867 -1.17333,1.792 -1.25066,2.75467 -0.0613,0.77466 1.096,0.56133 1.528,0.44133 2.46,-0.68 5.09466,-0.98267 7.67466,-0.9 2.66,0.0867 5.24934,0.60533 7.91867,0.21333 0.57733,-0.0853 1.152,-0.204 1.71733,-0.368 2.29734,-0.66666 2.744,-0.88933 5.70134,-0.62266 1.44666,0.13066 4.08666,0.38533 5.44133,0.78666 1.20533,0.356 2.716,0.44667 3.91867,0.024 1.436,-0.50266 1.43066,-0.83866 2.95066,-1.14533 2.464,-0.49733 2.56534,0.144 4.56,0.12 0.53867,-0.007 1.16667,-0.25733 1.66534,-0.0507 0.23733,0.0987 1.27066,1.084 1.048,1.4 0.29066,-0.41066 0.20533,-0.83466 0.17866,-1.29733 -0.0133,-0.22533 -0.18933,-0.98667 -0.12133,-1.15333 -0.0307,0.0747 -0.0547,0.10133 -0.0653,0.19466 -0.35734,0.156 -0.47067,0.31334 -0.85334,0.368 -0.35066,0.0493 -0.73466,0.0347 -1.08,-0.032 -0.61066,-0.11733 -1.22,-0.244 -1.828,-0.36933 -0.87866,-0.18133 -1.82266,-0.48667 -2.76266,-0.69333"
       style="fill:#000000;fill-opacity:1;fill-rule:nonzero;stroke:none;stroke-width:1.33333"
       id="path140398" />
    <path
       style="fill:#000000;fill-opacity:0.3;stroke:none;stroke-width:1px;stroke-linecap:butt;stroke-linejoin:miter;stroke-opacity:1"
       d="m 317.95864,206.66915 c 0,0 0.50723,-0.75125 0.77049,-1.568 0.26326,-0.81676 0.57878,-2.32728 0.56509,-3.35446 -0.0137,-1.02719 -0.24885,-1.83867 -0.53121,-2.71032 -0.28236,-0.87165 -0.8426,-2.01142 -1.14782,-2.48315 -0.30522,-0.47174 -0.41697,-0.4797 -0.41697,-0.4797 l -4.24068,-0.77728 c 0,0 1.09821,1.00756 1.71241,1.71169 0.6142,0.70412 1.49931,1.70794 1.92493,2.53751 0.42561,0.82957 0.50853,1.42696 0.70993,2.30233 0.20141,0.87537 0.35,2.1409 0.45471,2.94525 0.10471,0.80435 0.19912,1.87613 0.19912,1.87613 z"
       id="path83082"
       sodipodi:nodetypes="czzzzcczzzzc" />
  </g>
  <g
     inkscape:groupmode="layer"
     id="layer13"
     inkscape:label="Philtrum">
    <path
       d="m 313.49186,179.79227 c 0,0 -2.62933,4.99067 -1.41067,6.21734 1.22,1.22666 4.48667,1.02 4.48667,1.02 0,0 -2.616,-1.41067 -2.508,-3.06667 0.108,-1.656 -0.568,-4.17067 -0.568,-4.17067"
       style="fill:#000000;fill-opacity:1;fill-rule:nonzero;stroke:none;stroke-width:1.33333"
       id="path140402" />
  </g>
</svg>
