<?xml version="1.0" encoding="UTF-8" standalone="no"?>
<!-- Created with Inkscape (http://www.inkscape.org/) -->

<svg
   version="1.1"
   id="svg100624"
   width="400"
   height="400"
   viewBox="0 0 400 400"
   sodipodi:docname="TellariteMouth2.svg"
   inkscape:version="1.2.2 (b0a8486, 2022-12-01)"
   xmlns:inkscape="http://www.inkscape.org/namespaces/inkscape"
   xmlns:sodipodi="http://sodipodi.sourceforge.net/DTD/sodipodi-0.dtd"
   xmlns="http://www.w3.org/2000/svg"
   xmlns:svg="http://www.w3.org/2000/svg">
  <defs
     id="defs100628" />
  <sodipodi:namedview
     id="namedview100626"
     pagecolor="#ffffff"
     bordercolor="#666666"
     borderopacity="1.0"
     inkscape:showpageshadow="2"
     inkscape:pageopacity="0.0"
     inkscape:pagecheckerboard="0"
     inkscape:deskcolor="#d1d1d1"
     showgrid="false"
     inkscape:zoom="39.28"
     inkscape:cx="307.73931"
     inkscape:cy="200.40733"
     inkscape:window-width="1878"
     inkscape:window-height="1202"
     inkscape:window-x="2440"
     inkscape:window-y="62"
     inkscape:window-maximized="0"
     inkscape:current-layer="g100632">
    <inkscape:page
       x="0"
       y="0"
       id="page100630"
       width="400"
       height="400" />
  </sodipodi:namedview>
  <g
     id="g100632"
     inkscape:groupmode="layer"
     inkscape:label="Page 1">
    <path
       id="path155035"
       style="fill:#cd976d;fill-opacity:1;stroke:none;stroke-width:1px;stroke-linecap:butt;stroke-linejoin:miter;stroke-opacity:1"
       d="m 311.66602,189.47266 c -0.71926,-0.005 -1.26757,0.05 -1.66407,0.20703 -0.9938,0.39276 -16.64478,4.19601 -21.46484,5.125 l -0.74023,-0.22852 0.47656,0.2793 c -0.19663,0.0366 -0.50142,0.10097 -0.65039,0.125 0,0 0.6481,0.0259 0.92773,0.0371 0,0 5.25396,3.94057 7.95886,4.8125 2.70491,0.87193 6.15109,1.60245 9.29021,2.34016 1.69324,0.39792 2.52127,0.56591 4.66231,1.04495 1.78714,0.39986 3.90959,5.60362 3.90959,5.60362 l 2.65186,-2.09201 2.68418,-3.77927 c 1.76255,-0.12945 3.28375,-1.04908 4.86838,-1.76198 0,0 3.14649,-2.72902 3.89844,-3.89649 0.75195,-1.16747 0.99023,-2.64062 0.99023,-2.64062 0.14011,-0.0112 0.26739,-0.0263 0.37305,-0.0508 0,0 -5.94439,-3.76899 -7.17773,-4.70899 -1.23333,-0.94134 -2.27243,0.10387 -5.8711,-0.10547 -2.25,-0.13083 -3.92428,-0.30256 -5.12304,-0.31054 z m -22.3379,5.57422 c 0.59625,0.0231 1.19731,0.0433 2.04493,0.0742 L 290,195.25391 Z"
       sodipodi:nodetypes="ccccccczsscccczcccssccccc" />
    <path
       d="m 329.83786,194.59774 c 0,0 -5.94533,-3.76933 -7.17867,-4.70933 -1.23333,-0.94134 -2.27066,0.104 -5.86933,-0.10534 -3.6,-0.20933 -5.73067,-0.52266 -6.788,-0.104 -1.056,0.41734 -18.824,4.728 -22.37867,5.30134 0,0 13.988,0.57333 14.676,0.344 0.688,-0.22934 6.07734,-1.49067 7.912,-1.26134 1.83467,0.22934 5.38934,0.688 6.87867,0.344 1.49067,-0.344 3.66933,-1.03066 3.66933,-1.03066 0,0 7.264,1.64133 9.07867,1.22133"
       style="opacity:0.199997;fill:#000000;fill-opacity:1;fill-rule:nonzero;stroke:none;stroke-width:1.33333"
       id="path103622" />
    <path
       d="m 322.92973,193.37801 c -1.06534,-0.26934 -1.74267,-0.764 -2.904,-0.54 -1.16267,0.22533 -7.21334,0.58533 -8.52,0.40533 -1.30667,-0.18 -6.584,0.584 -8.37467,1.21333 -1.09867,0.38667 -2.46533,0.32 -3.61067,0.37334 -2.89733,0.13333 -5.8,0.148 -8.7,0.20533 -0.65866,0.0133 -1.372,0.0107 -1.9,-0.38267 -0.50933,-0.37733 -0.676,-1.00266 -1.04533,-1.49066 -0.13333,-0.176 -0.32,-0.34534 -0.54133,-0.34 -0.15867,0.003 -0.29867,0.0947 -0.42534,0.188 -0.92533,0.67733 -1.66933,1.6 -2.136,2.648 0.048,-0.10934 1.40534,-0.064 1.576,-0.072 2.668,-0.108 5.33867,-0.076 8.00534,0.048 2.55333,0.12 5.096,0.44533 7.64933,0.12933 0.59067,-0.0733 1.17867,-0.176 1.75733,-0.31733 4.028,-0.984 7.21334,0.136 12.088,0.136 3.18,0 4.23867,-1.772 6.78267,-1.18134 2.544,0.59067 7.20667,0.19734 7.20667,0.19734 0,0 -5.84267,-0.95067 -6.908,-1.22"
       style="fill:#000000;fill-opacity:1;fill-rule:nonzero;stroke:none;stroke-width:1.33333"
       id="path103636" />
    <path
       id="path9795"
       style="fill:#000000;fill-opacity:1;fill-rule:nonzero;stroke:none;stroke-width:1.33333"
       d="m 324.75,200.89844 c 0,0 -4.4331,0.74789 -5.02464,1.28138 -0.59154,0.53349 -1.26447,1.79552 -2.0669,2.88601 -0.80243,1.09049 -1.44323,1.93357 -1.87508,2.49289 -0.43185,0.55932 -1.20721,0.74597 -1.20721,0.74597 -0.11341,0.028 -0.37355,-0.78798 -0.84765,-1.69531 -0.4741,-0.90734 -2.58032,-3.49089 -3.23286,-3.84878 -0.45597,-0.25008 -2.36695,-0.73506 -4.03472,-0.77232 -2.03798,-0.23678 -3.33008,-0.5 -3.33008,-0.5 0,0 2.91112,1.30809 6.39844,2.23828 0.21036,0.17536 1.67106,1.40468 2.33593,2.375 0.71538,1.04402 2.27344,3.73828 2.27344,3.73828 0,0 1.46141,-0.91613 2.16432,-1.72323 0.70291,-0.8071 1.42125,-1.80921 1.87355,-2.44169 0.45229,-0.63249 0.66147,-1.12435 0.89074,-1.632 3.66334,-1.60598 5.68272,-3.14448 5.68272,-3.14448 z"
       sodipodi:nodetypes="czzscsscccscszcc" />
    <path
       id="path83845"
       style="opacity:0.199997;fill:#000000;fill-opacity:1;fill-rule:nonzero;stroke:none;stroke-width:1.33333"
       d="m 313.55469,207.27734 -1.97852,-2.57617 c 0,0 -1.06958,-1.00014 -1.92383,-1.78711 -4.28694,-0.797 -13.19922,-3.11719 -13.19922,-3.11718 0,0 7.70927,5.84984 12.91582,7.32165 1.57463,0.44512 3.4578,2.89742 4.92219,3.6564 l 0.67636,-1.07077 c 1.46032,-0.98131 3.5984,-2.02439 4.63737,-2.36303 5.01446,-1.63441 4.98015,-6.0429 5.14514,-6.44269 -1.16208,0.76613 -3.07667,1.12108 -5.17188,1.74023 l -0.7207,1.34375 -1.49804,2.09766 -2.94921,2.74122 z"
       sodipodi:nodetypes="ccccsccscccccc" />
    <path
       style="fill:#000000;fill-opacity:0.3;stroke:none;stroke-width:1px;stroke-linecap:butt;stroke-linejoin:miter;stroke-opacity:1"
       d="m 315.80108,205.7501 c 0,0 0.45356,-0.78482 0.65917,-1.61796 0.20561,-0.83314 0.41493,-2.362 0.32958,-3.38572 -0.0854,-1.02372 -0.37658,-1.81681 -0.71909,-2.66663 -0.34251,-0.84982 -0.98094,-1.9477 -1.31834,-2.39698 -0.3374,-0.44928 -0.44943,-0.44943 -0.44943,-0.44943 l -4.28459,-0.47939 c 0,0 1.16585,0.92845 1.8277,1.58799 0.66185,0.65954 1.61487,1.59913 2.09735,2.39697 0.48248,0.79784 0.60689,1.38798 0.8689,2.24716 0.26201,0.85918 0.49857,2.11125 0.65917,2.90633 0.1606,0.79508 0.32958,1.85766 0.32958,1.85766 z"
       id="path83082"
       sodipodi:nodetypes="czzzzcczzzzc" />
  </g>
  <g
     inkscape:groupmode="layer"
     id="layer10"
     inkscape:label="Philtrum"
     sodipodi:insensitive="true">
    <path
       d="m 313.49186,179.92254 c 0,0 -1.56,5.76533 -0.65733,7.26267 0.904,1.49733 2.54666,1.572 2.54666,1.572 0,0 -2.05333,-1.72134 -1.80666,-3.744 0.24533,-2.02134 -0.0827,-5.09067 -0.0827,-5.09067"
       style="fill:#000000;fill-opacity:1;fill-rule:nonzero;stroke:none;stroke-width:1.33333"
       id="path103640" />
  </g>
</svg>
