<?xml version="1.0" encoding="UTF-8" standalone="no"?>
<!-- Created with Inkscape (http://www.inkscape.org/) -->

<svg
   version="1.1"
   id="svg41471"
   width="400"
   height="400"
   viewBox="0 0 400 400"
   sodipodi:docname="TellariteMouth5Lipstick.svg"
   inkscape:version="1.3-beta (cedbd6c, 2023-05-28)"
   xmlns:inkscape="http://www.inkscape.org/namespaces/inkscape"
   xmlns:sodipodi="http://sodipodi.sourceforge.net/DTD/sodipodi-0.dtd"
   xmlns="http://www.w3.org/2000/svg"
   xmlns:svg="http://www.w3.org/2000/svg">
  <defs
     id="defs41475" />
  <sodipodi:namedview
     id="namedview41473"
     pagecolor="#ffffff"
     bordercolor="#666666"
     borderopacity="1.0"
     inkscape:showpageshadow="2"
     inkscape:pageopacity="0.0"
     inkscape:pagecheckerboard="0"
     inkscape:deskcolor="#d1d1d1"
     showgrid="false"
     inkscape:zoom="33.37544"
     inkscape:cx="309.64386"
     inkscape:cy="196.37194"
     inkscape:window-width="1988"
     inkscape:window-height="1129"
     inkscape:window-x="2206"
     inkscape:window-y="57"
     inkscape:window-maximized="0"
     inkscape:current-layer="g41479">
    <inkscape:page
       x="0"
       y="0"
       id="page41477"
       width="400"
       height="400"
       margin="0"
       bleed="0" />
  </sodipodi:namedview>
  <g
     id="g41479"
     inkscape:groupmode="layer"
     inkscape:label="Page 1">
    <path
       d="m 306.27839,205.91694 c -0.66266,0.0467 -1.32666,0.108 -1.98933,0.18533 -1.42667,0.16533 -2.86667,0.43867 -4.30267,0.848 -0.724,0.20667 -1.85333,0.256 -2.072,-0.48933 -0.17333,-0.59467 0.94667,-0.99067 1.41334,-1.21734 1.66933,-0.80666 3.10933,-2.48533 4.86133,-2.944 0.668,-0.176 1.332,-0.20666 1.98,-0.20666 2.11333,-0.001 4.144,0.30933 6.27867,0.21066 1.49333,-0.0693 3.02533,-0.33733 4.49866,-0.31866 0.81467,0.012 1.62267,0.12266 2.308,0.432 0.71467,0.32266 1.184,0.932 1.77067,1.40666 0.75733,0.61334 1.50267,1.272 2.48267,1.57334 0.304,0.0933 0.908,0.15333 1.01733,0.47333 0.136,0.39733 -0.384,0.81733 -0.752,0.996 -1.15867,0.56533 -2.22267,0.072 -3.2,-0.16133 -2.55733,-0.61067 -5.27733,-0.85334 -8.036,-0.90667 -2.05067,-0.04 -4.15067,-0.0307 -6.25867,0.11867"
       style="opacity:0.199997;fill:#000000;fill-opacity:1;fill-rule:nonzero;stroke:none;stroke-width:1.33333"
       id="path47609" />
    <path
       id="path47623"
       style="fill:#c14242;fill-opacity:1;fill-rule:nonzero;stroke:none;stroke-width:1.33333"
       d="M 309.90234 188.94531 C 309.33678 188.9609 308.69573 189.06779 307.92773 189.32812 C 304.78108 190.39612 301.7597 191.83584 298.73438 193.20117 C 297.20638 193.89184 295.67948 194.58505 294.13281 195.23438 C 293.14481 195.6477 291.83925 196.01317 290.89258 196.70117 C 290.61525 196.90383 290.36858 197.13239 290.16992 197.40039 C 289.77392 197.93372 291.86906 197.99603 292.01172 197.9707 C 292.58441 197.86844 293.14474 197.78524 293.70117 197.71094 C 295.16481 199.159 300.94276 204.12306 312.11328 204.93359 C 314.00371 205.26698 315.52265 207.34984 315.86328 207.62109 C 316.55411 207.18787 317.67134 205.37484 318.29883 204.50391 C 323.62522 203.22537 326.66406 199.7413 326.69531 198.29297 C 327.28364 198.3301 327.64844 198.27148 327.64844 198.27148 C 327.64844 198.27148 325.38157 193.12979 321.37891 190.8418 C 320.56291 190.37513 318.94261 189.51878 318.11328 189.32812 C 316.38261 188.93079 315.82266 189.55338 314.36133 189.60938 C 312.61833 189.67635 311.59903 188.89855 309.90234 188.94531 z " />
    <path
       d="m 290.89199,196.70081 c -0.27733,0.20266 -0.524,0.432 -0.72266,0.7 -0.396,0.53333 1.7,0.59466 1.84266,0.56933 1.904,-0.34 3.67467,-0.504 5.60134,-0.63467 1.66133,-0.112 3.312,-0.432 4.95333,-0.70266 3.67467,-0.60267 7.376,-1.232 11.112,-1.19867 7.408,0.068 8.91333,1.72 11.30533,2.52133 1.54267,0.516 2.66534,0.316 2.66534,0.316 0,0 -2.268,-5.14133 -6.27067,-7.42933 -0.816,-0.46667 -2.436,-1.32267 -3.26533,-1.51333 -1.73067,-0.39734 -2.29067,0.224 -3.752,0.28 -2.324,0.0893 -3.36134,-1.32134 -6.43334,-0.28 -3.14666,1.068 -6.168,2.508 -9.19333,3.87333 -1.528,0.69067 -3.056,1.38267 -4.60267,2.032 -0.988,0.41333 -2.29333,0.77867 -3.24,1.46667"
       style="opacity:0.199997;fill:#000000;fill-opacity:1;fill-rule:nonzero;stroke:none;stroke-width:1.33333"
       id="path47637" />
    <path
       d="m 289.85066,197.97134 c 1.30533,1.224 1.85867,0.0467 4.404,-0.0813 8.46667,-0.424 11.99067,-2.03867 19.57467,-2.03867 9.472,0 10.84533,2.16267 12.31333,2.73333 1.468,0.57067 2.368,0.284 1.472,-0.69466 -0.89733,-0.97867 -5.648,-2.85467 -13.54,-2.85467 -9.416,0 -12.08533,1.74133 -19.98267,1.876 -0.90133,0.0147 -5.18266,0.17733 -4.24133,1.06"
       style="fill:#000000;fill-opacity:1;fill-rule:nonzero;stroke:none;stroke-width:1.33333"
       id="path47647" />
    <path
       style="fill:#000000;fill-opacity:0.3;stroke:none;stroke-width:1px;stroke-linecap:butt;stroke-linejoin:miter;stroke-opacity:1"
       d="m 315.77112,205.60029 c 0,0 0.45356,-0.78482 0.65917,-1.61796 0.20561,-0.83314 0.41493,-2.362 0.32958,-3.38572 -0.0854,-1.02372 -0.37658,-1.81681 -0.71909,-2.66663 -0.34251,-0.84982 -1.07083,-2.09751 -1.31834,-2.39698 -0.24751,-0.29947 -0.35954,-0.32958 -0.35954,-0.32958 l -3.8052,0.11985 c 0,0 0.59657,0.20936 1.25842,0.8689 0.66185,0.65954 1.61487,1.59913 2.09735,2.39697 0.48248,0.79784 0.60689,1.38798 0.8689,2.24716 0.26201,0.85918 0.49857,2.11125 0.65917,2.90633 0.1606,0.79508 0.32958,1.85766 0.32958,1.85766 z"
       id="path83082"
       sodipodi:nodetypes="czzzzcczzzzc" />
  </g>
  <g
     inkscape:groupmode="layer"
     id="layer7"
     inkscape:label="Philtrum">
    <path
       d="m 312.76986,181.44561 c -0.54667,1.308 -1.06133,2.63733 -1.45867,3.98533 -0.40933,1.39333 -0.08,3.04933 1.564,3.69333 -0.0333,-0.012 -0.28666,-0.67333 -0.336,-0.75866 -0.66666,-1.12934 -0.432,-2.81734 -0.25733,-4.04 0.12533,-0.88267 0.14,-2.04667 0.488,-2.88"
       style="fill:#000000;fill-opacity:1;fill-rule:nonzero;stroke:none;stroke-width:1.33333"
       id="path47619" />
  </g>
</svg>
