<?xml version="1.0" encoding="UTF-8" standalone="no"?>
<!-- Created with Inkscape (http://www.inkscape.org/) -->

<svg
   version="1.1"
   id="svg4319"
   width="400"
   height="400"
   viewBox="0 0 400 400"
   sodipodi:docname="enterpriseAverageFemale.svg"
   inkscape:version="1.3.2 (091e20e, 2023-11-25)"
   xml:space="preserve"
   xmlns:inkscape="http://www.inkscape.org/namespaces/inkscape"
   xmlns:sodipodi="http://sodipodi.sourceforge.net/DTD/sodipodi-0.dtd"
   xmlns="http://www.w3.org/2000/svg"
   xmlns:svg="http://www.w3.org/2000/svg"><defs
     id="defs4323" /><sodipodi:namedview
     id="namedview4321"
     pagecolor="#ffffff"
     bordercolor="#666666"
     borderopacity="1.0"
     inkscape:showpageshadow="2"
     inkscape:pageopacity="0.0"
     inkscape:pagecheckerboard="0"
     inkscape:deskcolor="#d1d1d1"
     showgrid="false"
     inkscape:zoom="2.1675"
     inkscape:cx="199.76932"
     inkscape:cy="200"
     inkscape:window-width="1920"
     inkscape:window-height="1080"
     inkscape:window-x="2338"
     inkscape:window-y="104"
     inkscape:window-maximized="0"
     inkscape:current-layer="g4327"><inkscape:page
       x="0"
       y="0"
       id="page4325"
       width="400"
       height="400"
       margin="0"
       bleed="0" /></sodipodi:namedview><g
     id="g4327"
     inkscape:groupmode="layer"
     inkscape:label="Page 1"><path
       d="M 274.87986,337.10187 C 268.25853,326.4552 249.83853,297.1832 241.12119,283.33654 l -0.52666,-40.17334 c 2.12133,0.43334 4.416,0.83467 7.09733,1.24 3.084,0.468 5.83867,0.792 8.41333,0.988 0.43067,0.0333 0.86534,0.052 1.296,0.0693 2.23467,0.0947 3.55334,0.21466 4.48134,1.58533 0,0 1.56666,2.31467 1.596,2.35867 -1.14,-1.68534 5.65866,-5.88667 6.384,-6.588 1.564,-1.51067 2.69333,-0.644 3.204,1.3 0.39866,1.51733 0.39066,3.09333 0.90666,4.55066 0.648,1.828 0.53959,4.20772 1.27559,5.99839 0.89466,2.18133 2.67241,3.68028 3.31641,5.78561 1.11734,3.65734 1.00667,8.03067 1.19867,11.936 0.144,2.944 0.75467,5.64667 0.47467,8.592 -0.26667,2.82 -0.512,5.64134 -0.77067,8.46267 -0.54,5.88533 -1.084,11.76933 -1.63733,17.65333 -0.88667,9.45067 -1.756,18.90534 -2.76934,28.344 -0.06,0.55467 -0.12,1.10933 -0.18133,1.66267"
       style="fill:#1f1f1f;fill-opacity:1;fill-rule:nonzero;stroke:none;stroke-width:1.33333"
       id="path21535"
       sodipodi:nodetypes="cccccccccsccccccccc" /><path
       d="m 261.86173,257.1536 c 0,2.528 -2.04934,4.57734 -4.57734,4.57734 -2.528,0 -4.57733,-2.04934 -4.57733,-4.57734 0,-2.528 2.04933,-4.57733 4.57733,-4.57733 2.528,0 4.57734,2.04933 4.57734,4.57733"
       style="fill:#000000;fill-opacity:1;fill-rule:nonzero;stroke:none;stroke-width:1.33333"
       id="path21539" /><path
       d="m 260.13653,257.1536 c 0,1.57467 -1.27734,2.852 -2.852,2.852 -1.576,0 -2.852,-1.27733 -2.852,-2.852 0,-1.57466 1.276,-2.852 2.852,-2.852 1.57466,0 2.852,1.27734 2.852,2.852"
       style="fill:#382e53;fill-opacity:1;fill-rule:nonzero;stroke:none;stroke-width:1.33333"
       id="path21543" /><path
       d="m 267.15506,292.90027 c 0,2.528 -2.04933,4.57733 -4.57733,4.57733 -2.528,0 -4.57734,-2.04933 -4.57734,-4.57733 0,-2.528 2.04934,-4.57733 4.57734,-4.57733 2.528,0 4.57733,2.04933 4.57733,4.57733"
       style="fill:#000000;fill-opacity:1;fill-rule:nonzero;stroke:none;stroke-width:1.33333"
       id="path21547" /><path
       d="m 265.42999,292.90027 c 0,1.57467 -1.27733,2.852 -2.852,2.852 -1.576,0 -2.852,-1.27733 -2.852,-2.852 0,-1.57467 1.276,-2.852 2.852,-2.852 1.57467,0 2.852,1.27733 2.852,2.852"
       style="fill:#382e53;fill-opacity:1;fill-rule:nonzero;stroke:none;stroke-width:1.33333"
       id="path21551" /><path
       d="m 274.31546,335.17947 c -0.36,-0.80134 -32.23067,-51.15467 -32.23067,-51.15467 l -0.76266,-39.58666 c 0.007,0.40133 8.68933,1.69733 9.288,1.788 4.27733,0.65466 9.45733,-0.0267 11.416,5.00266 0.928,2.38667 1.81066,5.632 2.36533,7.95334 -0.548,-2.292 -0.484,-5.136 -0.36667,-7.43334 0.084,-1.632 0.316,-3.31066 1.748,-4.312 5.0645,-3.42164 7.61079,-1.59469 7.99467,3.97067 0.21733,4.34667 0.488,8.404 1.45867,12.38133 1.352,5.53467 2.45466,10.83867 4.22266,16.27867 0,0 -4.77333,55.91466 -5.13333,55.112 m -8.20198,-92.24026 c -0.64439,1.08979 -3.58869,2.43893 -2.97935,3.33626 -1.70534,-2.51333 -4.40534,-2.152 -6.99067,-2.34133 -2.80667,-0.20667 -5.58,-0.548 -8.31467,-0.95334 -2.92,-0.43466 -5.812,-0.928 -8.64266,-1.548 l 0.58133,42.144 c 0,0 35.69467,56.796 36.09467,57.65467 0.40133,0.86 6.152,-61.93333 6.152,-61.93333 0.16666,-1.83467 -1.71867,-5.10134 -2.29467,-6.80667 -1.432,-4.24533 -1.10533,-8.25333 -1.15867,-12.74533 -0.0693,-5.79867 -5.4365,-12.38806 -6.86584,-17.78939 -0.284,-1.07867 -0.78767,-7.18412 -2.637,-6.41346 -0.55858,3.00356 -1.70836,5.30542 -2.94447,7.39592 z"
       style="fill:#000000;fill-opacity:1;fill-rule:nonzero;stroke:none;stroke-width:1.33333"
       id="path21555"
       sodipodi:nodetypes="ccccccccccccscccccccccccs" /><path
       d="m 37.470561,400 c 0.722691,-10.52802 0.807019,-14.10138 0.802294,-30.8313 -0.0047,-16.72993 2.042044,-34.96672 8.186604,-53.31082 6.144561,-18.3441 8.804504,-29.13594 22.53355,-40.34375 13.729046,-11.20781 31.425051,-18.53289 46.016311,-23.48053 12.69619,-3.07197 24.84764,-8.0004 34.83861,-12.48359 6.67882,-2.98708 21.51792,-8.03993 28.43733,-11.16567 6.91941,-3.12574 6.45187,-5.19719 10.28044,-6.89481 1.02631,-6.46459 1.75104,-9.2513 2.81656,-14.0196 1.06552,-4.7683 1.8712,-5.00723 3.14974,-8.07774 4.54108,9.29669 14.25285,13.63613 19.25893,20.40531 5.18133,6.944 10.23333,11.02134 16.70533,15.34667 2.01733,1.34667 4.51333,2.004 6.92667,2.63867 3.90933,1.02933 7.28533,1.91733 8.13333,5.31733 0.704,2.82 0.456,4.99733 0.14133,7.752 -0.0773,0.68667 -0.15866,1.39467 -0.22666,2.14133 -0.212,2.30534 -0.452,4.604 -0.69067,6.9 -0.336,3.23067 -0.684,6.572 -0.94667,9.88 -0.52933,6.66 2.76134,13.308 5.66534,19.172 0.66666,1.34667 1.32,2.66534 1.91066,3.95067 1.89867,4.12933 4.06667,8.21733 6.16134,12.17067 2.57466,4.856 5.23733,9.87733 7.388,14.95866 1.288,2.99734 2.86533,5.62934 4.39066,8.17467 0.676,1.12667 1.356,2.26133 2.01867,3.43867 l 2.32267,-1.30934 c -0.308,-0.80666 0.28933,-4.76266 0.51333,-6.252 0.108,-0.712 0.196,-1.30266 0.232,-1.66266 0.74,-7.40134 0.72,-14.92134 0.70133,-22.192 -0.0293,-11.07067 -0.0587,-22.51867 2.63334,-33.56 l 0.43333,-1.77867 c -0.73979,0.11391 -1.51698,0.0998 -2.22667,0.0493 -0.496,-0.50266 -0.47066,-2.46933 -0.45733,-3.52533 0.0222,-1.618 -0.50812,-3.66222 -1.178,-7.80954 -1.05584,-5.43023 -2.08847,-7.28467 -2.95072,-14.51448 -0.29067,-2.44933 -1.07667,-6.19375 0.14333,-7.32975 0.48533,-0.452 0.96667,-0.68 1.43067,-0.68 2.67285,0.93774 5.081,4.32581 6.35634,6.72348 1.37466,2.59333 3.66238,4.52629 6.48905,6.36362 2.68133,1.74267 5.84133,2.54667 8.848,3.22 3.052,0.68534 6.12266,1.47334 9.124,2.34267 1.50666,0.436 3.00933,0.89067 4.49866,1.37733 0.53067,0.17467 1.056,0.49467 1.61334,0.83334 0.484,0.296 0.984,0.60133 1.552,0.85466 0.80533,0.36 1.63066,0.67334 2.456,0.98667 l 2.20533,0.852 c 2.33333,0.90267 4.74533,1.836 7,2.95333 4.996,2.476 9.808,5.61867 14.46133,8.65734 l 2.28,1.48533 c 8.828,5.72667 16.272,13.408 22.75867,23.484 5.06666,7.86667 9.012,16.51467 11.72666,25.70133 0.748,2.53334 1.416,5.15467 1.98534,7.792 l 0.3,1.38267 c 2.38,10.99466 4.43466,20.49066 3.88,31.73866 -0.264,5.32 -0.932,9.432 -2.31067,14.192 l -0.132,0.452 c -0.57867,1.96934 -1.54667,5.26534 -1.57067,8.82667 l -10e-4,0.28267 0.11333,0.26 c 3.288,7.52133 5.288,14.16666 6.33734,18.152 z"
       style="fill:#382e53;fill-opacity:1;fill-rule:nonzero;stroke:none;stroke-width:1.33333"
       id="path21559"
       sodipodi:nodetypes="czzzcczczcccccccccccccccccccccccccsscccccccccccccccccccccccc" /><path
       d="m 343.10092,400.02293 c 0,0 -12.08533,-54.46133 -14.92399,-64.14 l 4.39066,-0.26133 c 0,0 10.11733,39.02933 15.24133,64.40133 z"
       style="fill:#000000;fill-opacity:1;fill-rule:nonzero;stroke:none;stroke-width:1.33333"
       id="path21563" /><path
       d="m 330.64106,347.4116 -2.48533,-10.75467 5.03066,-0.096 2.48533,10.756 z"
       style="fill:#dfdfdf;fill-opacity:1;fill-rule:nonzero;stroke:none;stroke-width:1.33333"
       id="path21567" /><path
       d="m 334.58279,346.18027 -1.95333,-8.452 -3.38533,0.064 1.95333,8.452 z m -4.33333,1.736 -2.71467,-11.74534 6.04267,-0.11466 2.71466,11.74666 z"
       style="fill:#000000;fill-opacity:1;fill-rule:nonzero;stroke:none;stroke-width:1.33333"
       id="path21571" /><path
       d="m 325.06106,399.96653 h 3.29867 c -1.61867,-8.96 -7.10267,-38.684 -8.828,-45.21733 -1.93867,-7.34267 -4.64934,-28.85333 -4.64934,-28.85333 0,0 16.76534,2.08 21.66,2.692 4.89467,0.612 19.94667,5.01733 19.94667,5.01733 l -0.73334,-2.56933 c 0,0 -4.528,-1.59067 -5.26266,-1.71333 -0.73467,-0.12267 -22.884,-5.01734 -22.884,-5.01734 0,0 -15.73467,-3.064 -16.25067,-0.79733 -0.516,2.268 3.93067,27.59733 5.04134,31.88 0.944,3.63866 6.89066,35.16133 8.66133,44.57866"
       style="opacity:0.199997;fill:#000000;fill-opacity:1;fill-rule:nonzero;stroke:none;stroke-width:1.33333"
       id="path21581" /><path
       d="m 246.69119,288.5408 c 4.708,12.816 14.648,33.74134 17.524,38.44934 2.87734,4.708 5.49334,12.03199 0.524,9.15466 -4.96933,-2.87733 -19.87866,-15.432 -22.756,-16.47866 -2.87733,-1.04534 22.87734,22.27733 25.63334,25.63333 2.75466,3.356 2.35333,7.06266 2.35333,7.06266 h 2.87733 c 0,0 4.63867,31.84267 2.40667,47.604 h 23.372 c -4.588,-7.792 -13.29867,-23.416 -14.25867,-34.00266 -1.28133,-14.12534 -4.71866,-18.30934 -0.0107,-25.11067 4.708,-6.8 13.6,-28.772 5.75333,-19.87866 -7.84667,8.89333 -12.032,6.80133 -8.892,1.56933 3.13867,-5.23067 -1.56933,-48.65067 0,-54.404 1.56933,-5.75467 4.44533,-17.00133 4.44533,-17.00133 0,0 -2.61466,4.96933 -5.23066,4.96933 -2.616,0 -1.308,-11.50933 -2.092,-15.432 -0.78534,-3.924 -7.16915,-7.59648 -7.16915,-7.59648 l 1.41448,9.94981 2.616,11.77067 0.31867,6.60933 1.77333,3.592 -0.78533,10.2 -2.144,62.28133 -18.78,-34.55599 -14.648,-34.00267 3.844,-9.03067 0.776,-16.792 c 0,0 -1.74267,0.18934 -3.312,5.42134 -1.56934,5.23066 -1.56934,14.90933 -6.016,14.124 -4.44667,-0.784 -9.36469,-1.53602 -9.36469,-1.53602 l 5.96469,7.81335 c 0,0 9.15466,6.80133 13.86266,19.61733"
       style="opacity:0.199997;fill:#000000;fill-opacity:1;fill-rule:nonzero;stroke:none;stroke-width:1.33333"
       id="path21597"
       sodipodi:nodetypes="ccsccccccccscccsccccccccccccccccc" /><path
       d="m 268.18853,267.422 c 2.268,0.65734 0.82666,4.18534 0.78133,5.68934 -0.38,12.74133 0.46133,25.60533 1.996,38.24933 0.82133,6.76933 1.88933,13.508 3.204,20.19867 -1.48267,0.296 -2.964,0.592 -4.44533,0.888 -0.0853,-6.52667 0.092,-13.05867 -0.36934,-19.576 -0.46133,-6.51734 -1.34933,-13 -1.63866,-19.52934 -0.0147,-0.32533 -0.028,-0.652 -0.0387,-0.97866 -0.20267,-5.80667 0.0933,-11.7 -1.33733,-17.384 -0.30534,-1.21467 -0.64534,-3.588 -1.876,-4.272 -1.97067,-1.09467 -10.184,-2.73734 -10.184,-2.73734 0,0 10.51333,0.656 10.07466,-1.53333 -0.43733,-2.19067 -0.43733,-8.54267 -0.43733,-8.54267 0,0 2.736,9.08534 4.27067,9.528"
       style="opacity:0.199997;fill:#000000;fill-opacity:1;fill-rule:nonzero;stroke:none;stroke-width:1.33333"
       id="path21613" /><path
       d="m 270.78559,332.43974 c 0,0 10.03334,49.72666 10.868,67.54799 h 3.82534 c 0,0 -8.96267,-60.64933 -10.664,-68.69866 l -1.94267,1.15067 z"
       style="fill:#000000;fill-opacity:1;fill-rule:nonzero;stroke:none;stroke-width:1.33333"
       id="path21623" /><path
       d="m 35.279563,400 h 4.674667 c 0.410584,-6.26958 0.694674,-12.57359 0.999092,-23.87739 0.304417,-11.3038 1.064726,-19.22408 2.517365,-30.96857 1.452638,-11.74449 3.170962,-18.99482 5.972866,-30.30437 2.801904,-11.30955 3.952294,-14.20571 9.793686,-22.70779 5.841392,-8.50208 10.741285,-15.63873 20.898356,-22.89841 10.157071,-7.25968 19.136144,-10.32369 33.865905,-15.62884 14.72976,-5.30515 41.07931,-14.57519 53.61317,-19.92983 12.53386,-5.35464 17.60133,-9.42809 21.95333,-11.91876 1.44983,-6.70083 2.14196,-16.32693 4.83888,-18.78102 1.22,0.36533 1.98726,3.0415 2.808,4.008 3.42721,4.03587 8.82896,10.20932 14.55476,15.26568 4.4666,3.94438 7.98462,8.0901 14.54595,11.5301 6.56134,3.44134 9.69045,5.01007 15.602,7.17843 2.33581,0.85679 1.446,7.39357 1.29134,10.04557 -0.292,4.95867 -1.34134,11.06134 -3.524,15.55867 -1.16267,-0.46 -9.29759,-2.80912 -9.56959,-3.94379 0.784,3.27867 6.07892,6.77846 8.09359,8.82246 5.12666,5.204 7.576,12.56666 10.49333,19.10133 3.24267,7.264 6.99867,14.484 9.79067,21.93067 4.25466,9.52666 9.684,18.52666 13.58133,28.20666 0.13867,0.344 0.24933,0.72933 0.42533,1.056 0.224,0.41333 0.612,0.68 1.048,0.788 h 0.80267 c 0.66,-0.17733 1.148,-0.74 1.20533,-1.428 0.56534,-7.824 1.13067,-15.64666 1.696,-23.46933 0.46934,-6.492 0.93734,-12.98267 1.40667,-19.47333 0.48933,-6.776 -0.31867,-13.62134 -0.31867,-20.476 0,-2.256 -0.06,-4.52267 0.20534,-6.76934 0.12933,-1.09066 0.352,-2.14266 0.66533,-3.192 0.236,-0.792 0.35333,-1.628 0.68533,-2.404 1.08934,-2.56 3.76379,-5.85491 3.54779,-8.94425 -1.24799,1.44516 -3.28978,3.5879 -4.81045,4.73492 -0.372,0.292 -1.04534,0.93067 -1.472,0.556 -0.34667,-0.30667 -0.54791,-1.16102 -0.61734,-1.64821 -0.15103,-1.0598 -0.15977,-2.22579 -0.41245,-3.55804 -0.77969,-4.11101 -1.7514,-6.37127 -2.68131,-10.94373 -0.68418,-3.36416 -2.80902,-6.99284 -2.01169,-9.68884 1.30267,-4.40934 7.53517,7.71619 8.32317,8.67219 3.924,4.75866 13.13695,3.91996 18.72495,5.90396 2.36667,0.84 4.832,0.992 7.18,1.98134 3.57867,1.50666 7.072,3.24533 10.64133,4.78133 6.808,2.92933 13.48667,6.26267 19.69467,10.39867 3.112,2.072 6.104,4.34666 8.888,6.872 2.628,2.384 4.50666,5.04133 6.71733,7.708 5.96933,7.19333 11.04667,15.19466 14.92533,23.79733 3.29334,7.30533 5.712,15.03067 7.13867,22.96 2.252,8.188 3.91067,16.392 3.99067,24.92133 0.036,3.77733 -0.19067,7.556 -0.68267,11.30133 -0.46133,3.524 -1.616,6.85467 -2.14133,10.32267 -0.364,2.408 -1.29334,6.112 0.3,8.264 2.54266,3.42933 2.96,1.108 2.79066,-0.244 -0.55333,-4.432 0.89867,-8.868 1.54134,-11.08267 1.44266,-4.98266 2.10133,-9.23333 2.36133,-14.496 0.588,-11.90133 -1.70667,-21.89466 -4.20667,-33.47066 -0.57333,-2.65467 -1.24266,-5.28667 -2.012,-7.88667 -2.72533,-9.22266 -6.71733,-18.024 -11.884,-26.04666 -6.21866,-9.66 -13.62933,-17.70267 -23.152,-23.88 -5.528,-3.58534 -11.00133,-7.308 -16.87733,-10.22 -2.70666,-1.34134 -5.544,-2.38934 -8.356,-3.48534 -1.12,-0.43733 -2.25466,-0.83733 -3.352,-1.328 -1.148,-0.51333 -2.11066,-1.35066 -3.296,-1.73733 -1.504,-0.492 -3.02133,-0.952 -4.54266,-1.392 -3.04134,-0.88133 -6.11067,-1.66933 -9.20134,-2.36267 -2.87066,-0.64266 -8.34139,-2.13268 -10.86139,-3.77135 -3.19316,-1.73301 -4.38423,-3.74895 -6.27869,-7.33263 -0.74439,-1.40813 -1.71361,-2.97973 -3.01401,-4.1699 -1.99234,-1.82345 -3.84714,-2.34301 -5.63114,-0.68168 -2.23733,2.08533 -1.25585,7.25124 -0.80867,10.84686 0.7328,5.8923 4.15655,12.35113 4.81921,18.22579 0.21734,1.92934 0.27736,7.36958 3.29869,7.14958 -4.50133,18.46133 -1.50133,37.29467 -3.36533,55.93467 -0.15467,1.536 -1.30933,7.408 -0.58,8.70266 -2.18,-3.87066 -4.54,-7.284 -6.344,-11.47866 -3.924,-9.276 -9.34667,-17.99334 -13.56533,-27.16667 -3.15467,-6.86267 -8.07467,-14.70133 -7.45734,-22.46 0.44534,-5.60133 1.11867,-11.15733 1.63467,-16.764 0.344,-3.74533 1,-6.536 0.052,-10.33867 -1.63733,-6.56266 -7.31664,-5.8006 -14.06373,-9.23068 -7.30993,-3.71622 -13.10467,-8.50112 -18.97478,-14.19648 -6.7382,-6.53762 -10.52862,-11.49104 -16.11287,-19.88729 -0.39284,-0.59065 -1.90422,-2.13583 -2.94267,-1.94533 -6.09766,1.11864 -7.07859,12.31718 -8.60249,21.05368 -4.36333,2.64877 -10.86771,7.5723 -18.31426,11.10202 -6.23525,2.95557 -12.73435,5.00235 -22.31191,8.44479 -9.15972,3.29226 -15.4683,6.11174 -28.68237,10.63561 -13.21407,4.52387 -27.153395,9.94077 -40.16143,18.17872 -13.008035,8.23796 -29.463065,30.17658 -33.944184,46.54317 -5.222916,19.58663 -7.363544,36.59081 -7.964036,53.78981 -0.600492,17.19899 -0.253652,22.98227 0.504033,32.73518 z"
       style="fill:#000000;fill-opacity:1;fill-rule:nonzero;stroke:none;stroke-width:1.33333"
       id="path21627"
       sodipodi:nodetypes="cczzzzzzzccsscscccccccccccccsccccccsssccccccccccccccccsscccscsccccsscscccccccccsssscssszczc" /><path
       d="m 370.35346,361.35093 c 0.13866,14.248 4.58133,26.12134 10.40666,29.09467 0.20534,-8.976 0.272,-18.84267 0.17067,-29.19733 -0.1,-10.35467 -0.35867,-20.21734 -0.73867,-29.188 -5.76533,3.08533 -9.97733,15.04266 -9.83866,29.29066"
       style="fill:#cfc6c1;fill-opacity:1;fill-rule:nonzero;stroke:none;stroke-width:1.33333"
       id="path21631" /><path
       d="m 371.93959,358.58707 0.0867,-1.54267 -0.48267,-0.16267 -0.096,1.72267 -0.376,-0.12667 0.14933,-2.676 2.02934,0.68534 -0.144,2.58933 -0.37734,-0.128 0.092,-1.636 -0.42133,-0.14267 -0.0867,1.544 z"
       style="fill:#000000;fill-opacity:1;fill-rule:nonzero;stroke:none;stroke-width:1.33333"
       id="path21635" /><path
       d="m 371.03239,359.72947 2.04667,-0.0453 0.0147,1.12 -0.74,0.89734 c -0.212,0.256 -0.464,0.51333 -0.69333,0.70666 v 0.0187 c 0.26933,-0.0693 0.54667,-0.0933 0.85333,-0.1 l 0.59734,-0.0133 0.0107,0.88 -2.04666,0.0453 -0.012,-1.00667 0.77866,-0.92266 c 0.216,-0.256 0.476,-0.53867 0.71334,-0.752 l -0.003,-0.0187 c -0.27067,0.032 -0.55867,0.0507 -0.89333,0.0573 l -0.616,0.0133 z"
       style="fill:#000000;fill-opacity:1;fill-rule:nonzero;stroke:none;stroke-width:1.33333"
       id="path21639" /><path
       d="m 372.85172,364.83813 -0.092,-1.12133 0.38267,-0.14933 0.26133,3.20933 -0.38133,0.14933 -0.0933,-1.14 -1.62934,0.63734 -0.0773,-0.948 z"
       style="fill:#000000;fill-opacity:1;fill-rule:nonzero;stroke:none;stroke-width:1.33333"
       id="path21643" /><path
       d="m 372.69532,370.41773 -0.21733,-1.484 -0.46,0.33867 0.24267,1.65867 -0.36,0.26533 -0.376,-2.57333 1.93866,-1.42934 0.364,2.48934 -0.36,0.264 -0.22933,-1.57334 -0.40267,0.29734 0.216,1.484 z"
       style="fill:#000000;fill-opacity:1;fill-rule:nonzero;stroke:none;stroke-width:1.33333"
       id="path21647" /><path
       d="m 373.31252,372.06013 0.0747,0.33867 c 0.0933,0.43067 0.252,0.568 0.412,0.388 0.168,-0.18933 0.19867,-0.52133 0.11467,-0.92 -0.0453,-0.20933 -0.08,-0.31867 -0.0987,-0.37467 z m 0.59734,-1.73866 c 0.0827,0.252 0.188,0.64666 0.28933,1.10533 0.124,0.56533 0.16933,1.00667 0.12667,1.39333 -0.0373,0.324 -0.13734,0.592 -0.304,0.78134 -0.23334,0.26266 -0.468,0.0973 -0.596,-0.16667 l -0.009,0.009 c 0.008,0.324 -0.0827,0.608 -0.228,0.89334 -0.18,0.35066 -0.392,0.73733 -0.44533,0.89066 l -0.19467,-0.88133 c 0.0387,-0.12133 0.16667,-0.37867 0.36667,-0.74533 0.20533,-0.35867 0.23067,-0.592 0.15733,-0.94534 l -0.0573,-0.26 -0.716,0.808 -0.188,-0.85333 z"
       style="fill:#000000;fill-opacity:1;fill-rule:nonzero;stroke:none;stroke-width:1.33333"
       id="path21651" /><path
       d="m 374.13412,375.55147 c 0.0133,0.08 0.036,0.16666 0.0707,0.28 0.12933,0.42 0.30933,0.51733 0.48,0.244 0.15333,-0.24534 0.17733,-0.61467 0.056,-1.008 -0.0493,-0.16134 -0.0893,-0.25867 -0.11467,-0.304 z m 0.51734,-1.99334 c 0.0933,0.212 0.21333,0.53067 0.36133,1.012 0.14933,0.48667 0.21067,0.90534 0.19333,1.28134 -0.016,0.35733 -0.108,0.72933 -0.272,0.99066 -0.16266,0.26134 -0.336,0.368 -0.49333,0.312 -0.204,-0.076 -0.38,-0.388 -0.524,-0.85466 -0.0307,-0.10267 -0.0573,-0.2 -0.0747,-0.28134 l -0.596,0.95334 -0.23866,-0.78267 z"
       style="fill:#000000;fill-opacity:1;fill-rule:nonzero;stroke:none;stroke-width:1.33333"
       id="path21655" /><path
       d="m 375.22226,378.53987 0.11466,0.27466 c 0.144,0.34934 0.312,0.37467 0.44134,0.0947 0.13466,-0.296 0.12266,-0.636 -0.008,-0.96267 -0.0707,-0.16933 -0.11734,-0.252 -0.14267,-0.292 z m 0.34533,-2.07334 c 0.11067,0.18667 0.26267,0.49334 0.416,0.864 0.19067,0.46 0.29067,0.852 0.3,1.25334 0.007,0.336 -0.0547,0.66 -0.18933,0.956 -0.188,0.40933 -0.43334,0.41066 -0.58934,0.244 l -0.007,0.0147 c 0.048,0.30534 0,0.63867 -0.10267,1.012 -0.12533,0.45867 -0.27733,0.97467 -0.30933,1.15734 l -0.29734,-0.716 c 0.02,-0.14 0.10934,-0.476 0.25334,-0.96267 0.148,-0.48267 0.144,-0.72533 0.028,-1.01467 l -0.088,-0.21066 -0.57734,1.26133 -0.288,-0.692 z"
       style="fill:#000000;fill-opacity:1;fill-rule:nonzero;stroke:none;stroke-width:1.33333"
       id="path21659" /><path
       d="m 377.06732,379.68907 -1.29733,3.58666 -0.324,-0.624 1.29867,-3.58533 z"
       style="fill:#000000;fill-opacity:1;fill-rule:nonzero;stroke:none;stroke-width:1.33333"
       id="path21663" /><path
       d="m 376.51426,383.25213 c 0.0587,0.26667 0.16933,0.60934 0.31733,0.83734 0.16133,0.24666 0.29333,0.20933 0.36667,-0.0453 0.0693,-0.244 0.036,-0.49466 -0.10267,-0.948 -0.192,-0.62 -0.25733,-1.236 -0.0947,-1.804 0.18934,-0.66533 0.55467,-0.83733 0.92,-0.27733 0.17334,0.268 0.276,0.55733 0.33734,0.80267 l -0.28,0.592 c -0.0413,-0.17067 -0.12,-0.44934 -0.27067,-0.68134 -0.152,-0.232 -0.27467,-0.17066 -0.332,0.032 -0.072,0.248 -0.016,0.492 0.12933,0.98934 0.2,0.67333 0.22534,1.22933 0.0693,1.78 -0.18667,0.65466 -0.54534,0.904 -0.96934,0.25333 -0.176,-0.27067 -0.31733,-0.65467 -0.36933,-0.91067 z"
       style="fill:#000000;fill-opacity:1;fill-rule:nonzero;stroke:none;stroke-width:1.33333"
       id="path21667" /><path
       d="m 379.06959,385.5972 -0.61333,-0.68533 -0.20534,1.004 0.68534,0.76533 -0.16,0.784 -1.064,-1.18667 0.864,-4.23066 1.02933,1.14933 -0.16,0.784 -0.652,-0.72667 -0.17867,0.87867 0.61334,0.68533 z"
       style="fill:#000000;fill-opacity:1;fill-rule:nonzero;stroke:none;stroke-width:1.33333"
       id="path21671" /><path
       d="m 373.31892,361.32213 c 0.10267,10.61867 3.30267,19.52934 7.56934,22.20267 0.1,-7.04 0.11866,-14.52133 0.0427,-22.276 -0.0747,-7.756 -0.23866,-15.236 -0.476,-22.272 -4.21333,2.756 -7.23866,11.72667 -7.136,22.34533"
       style="fill:#000086;fill-opacity:1;fill-rule:nonzero;stroke:none;stroke-width:1.33333"
       id="path21675" /><path
       d="m 380.77426,389.77147 c -5.67334,-2.944 -9.996,-14.52934 -10.13067,-28.424 -0.13467,-13.89467 3.96133,-25.56 9.57733,-28.61467 -0.0213,-0.512 -0.044,-1.02266 -0.0653,-1.52933 -5.95733,3.128 -10.31467,15.45466 -10.172,30.15066 0.14267,14.696 4.73867,26.936 10.756,29.948 0.012,-0.508 0.024,-1.01733 0.0347,-1.53066"
       style="fill:#d30000;fill-opacity:1;fill-rule:nonzero;stroke:none;stroke-width:1.33333"
       id="path21679" /><path
       d="m 379.82266,331.92747 c -5.84267,3.416 -9.95067,15.73333 -9.816,29.59333 0.13333,13.85867 4.48133,26.09467 10.38933,29.39733 l 0.016,-0.72266 0.005,10e-4 c -0.044,-0.78 -0.0307,-2.48133 10e-4,-6.30933 l 0.304,0.0253 -0.304,-0.0253 c 0.0267,-3.14134 0.0667,-6.996 0.10266,-10.452 0.0453,-4.38667 0.084,-8.176 0.0787,-8.96 -0.0347,-5.49734 -0.12,-11.068 -0.25067,-16.56 -0.13733,-5.724 -0.272,-10.87334 -0.524,-15.924 z m 1.084,60.68933 c -0.14934,0.0387 -0.30534,0.052 -0.45867,0.0427 -0.992,-0.0653 -2.03333,-1.30934 -2.68133,-1.98267 -0.81334,-0.84667 -1.54,-1.77467 -2.19734,-2.74667 -1.51466,-2.23866 -2.66933,-4.712 -3.596,-7.24666 -2.24933,-6.15067 -3.23066,-12.768 -3.37466,-19.29734 -0.052,-2.352 0.012,-4.70666 0.20266,-7.052 0.48534,-5.98533 1.71867,-12.14533 4.528,-17.504 1.08134,-2.06133 2.42934,-4.03333 4.17734,-5.58799 0.57066,-0.50667 1.75733,-1.73867 2.58,-1.42134 0.88666,0.34267 0.984,1.72934 1.036,2.52667 0.10266,1.612 0.192,3.22533 0.27466,4.83866 0.172,3.412 0.308,6.82667 0.44,10.24 0.22134,5.716 0.38667,11.51467 0.49067,17.23334 0.016,0.84266 0.0107,4.784 0.004,9.348 -0.005,3.58133 -0.0107,7.57466 -0.007,10.82933 10e-4,1.40533 0.004,2.81067 0.0133,4.216 0.007,1.12 -0.012,1.852 -0.70134,2.82667 -0.216,0.30533 -0.51466,0.44933 -0.73066,0.73733"
       style="fill:#000000;fill-opacity:1;fill-rule:nonzero;stroke:none;stroke-width:1.33333"
       id="path21683" /><path
       d="m 378.61386,375.338 c 0.005,0.56133 -0.188,1.01867 -0.432,1.02 -0.244,0.003 -0.44667,-0.45067 -0.452,-1.012 -0.005,-0.56 0.188,-1.01733 0.432,-1.02 0.244,-0.003 0.44666,0.45067 0.452,1.012"
       style="fill:#ffffff;fill-opacity:1;fill-rule:nonzero;stroke:none;stroke-width:1.33333"
       id="path21687" /><path
       d="m 376.00212,367.99547 c 0.005,0.56133 -0.188,1.01866 -0.432,1.02 -0.244,0.003 -0.44666,-0.45067 -0.452,-1.012 -0.005,-0.56 0.188,-1.01734 0.432,-1.02 0.244,-0.003 0.44667,0.45066 0.452,1.012"
       style="fill:#ffffff;fill-opacity:1;fill-rule:nonzero;stroke:none;stroke-width:1.33333"
       id="path21691" /><path
       d="m 375.48146,359.8704 c 0.005,0.56133 -0.188,1.01867 -0.432,1.02 -0.244,0.003 -0.44667,-0.45067 -0.452,-1.012 -0.005,-0.56 0.188,-1.01733 0.432,-1.02 0.244,-0.003 0.44666,0.45067 0.452,1.012"
       style="fill:#ffffff;fill-opacity:1;fill-rule:nonzero;stroke:none;stroke-width:1.33333"
       id="path21695" /><path
       d="m 376.71492,361.764 c 0.005,0.56133 -0.188,1.01867 -0.432,1.02 -0.244,0.003 -0.44666,-0.45067 -0.452,-1.012 -0.005,-0.56 0.188,-1.01733 0.432,-1.02 0.244,-0.003 0.44667,0.45067 0.452,1.012"
       style="fill:#ffffff;fill-opacity:1;fill-rule:nonzero;stroke:none;stroke-width:1.33333"
       id="path21699" /><path
       d="m 379.47559,356.02067 c 0.005,0.56133 -0.188,1.01866 -0.432,1.02 -0.244,0.003 -0.44667,-0.45067 -0.452,-1.012 -0.005,-0.56 0.188,-1.01734 0.432,-1.02 0.244,-0.003 0.44667,0.45066 0.452,1.012"
       style="fill:#ffffff;fill-opacity:1;fill-rule:nonzero;stroke:none;stroke-width:1.33333"
       id="path21703" /><path
       d="m 376.50692,351.7304 c 0.005,0.56133 -0.188,1.01867 -0.432,1.02 -0.244,0.003 -0.44666,-0.45067 -0.452,-1.012 -0.005,-0.56 0.188,-1.01733 0.432,-1.02 0.244,-0.003 0.44667,0.45067 0.452,1.012"
       style="fill:#ffffff;fill-opacity:1;fill-rule:nonzero;stroke:none;stroke-width:1.33333"
       id="path21707" /><path
       d="m 373.22572,347.42573 0.16534,1.77467 0.728,0.72 -0.68,0.88 -0.06,1.80133 -0.58667,-1.232 -0.764,0.39467 0.31733,-1.64133 -0.412,-1.55734 0.78267,0.21734 z"
       style="fill:#ffffff;fill-opacity:1;fill-rule:nonzero;stroke:none;stroke-width:1.33333"
       id="path21711" /><path
       d="m 374.89012,342.28533 -0.0253,1.80667 0.63467,1.09867 -0.756,0.47333 -0.248,1.70667 -0.44134,-1.51467 -0.78666,-0.044 0.48133,-1.40933 -0.23867,-1.73334 0.74134,0.644 z"
       style="fill:#ffffff;fill-opacity:1;fill-rule:nonzero;stroke:none;stroke-width:1.33333"
       id="path21715" /><path
       d="m 377.05226,338.24373 -0.21467,1.732 0.50267,1.41334 -0.78534,0.0373 -0.42133,1.51067 -0.272,-1.70934 -0.76133,-0.47866 0.61733,-1.09334 -0.0507,-1.808 0.65467,1.03334 z"
       style="fill:#ffffff;fill-opacity:1;fill-rule:nonzero;stroke:none;stroke-width:1.33333"
       id="path21719" /><path
       d="m 379.58426,335.54 -0.39067,1.55467 0.34133,1.644 -0.77066,-0.40134 -0.568,1.22667 -0.0853,-1.80267 -0.69333,-0.88533 0.71733,-0.71333 0.14134,-1.77334 0.528,1.36134 z"
       style="fill:#ffffff;fill-opacity:1;fill-rule:nonzero;stroke:none;stroke-width:1.33333"
       id="path21723" /><path
       d="m 371.32146,366.88627 c -2.49467,-5.48934 -5.49467,-10.24534 -8.28667,-15.52667 -2.124,-4.01733 -1.78,-8.176 -1.78,-12.468 0,-3.39333 0.26533,-6.628 0.26,-9.992 -0.85733,3.25467 -2.544,7.71333 -2.07733,11.33733 -1.91334,-5.37866 -1.792,-11.37866 -4.19867,-16.68533 -1.03733,5.32534 0.57067,10.47733 1.584,15.46933 0.964,4.74667 1.63067,9.83734 3.832,13.66934 4.304,7.488 6.46533,16.71333 9.632,24.79333 0.69733,1.77733 7.528,22.50533 8.35733,22.50533 h 5.984 c -1.748,-8.07733 -7.708,-20.78533 -13.30666,-33.10266"
       style="fill:#000000;fill-opacity:1;fill-rule:nonzero;stroke:none;stroke-width:1.33333"
       id="path21727" /><path
       d="m 129.20146,375.85933 c 0.84934,6.57067 1.51867,13.328 1.796,19.66534 0,1.44266 -0.0227,2.932 -0.064,4.44133 h 10.16267 c -2.04267,-9.36667 -4.74667,-20.496 -7.87067,-31.356 -1.612,-5.604 -3.33466,-11.136 -5.13466,-16.31333 -1.8,-5.17734 -3.66934,-9.99867 -5.56534,-14.168 0,0 1.82,7.99466 3.80534,19.18133 0.99333,5.59333 2.02133,11.97867 2.87066,18.54933"
       style="fill:#000000;fill-opacity:1;fill-rule:nonzero;stroke:none;stroke-width:1.33333"
       id="path21731" /><path
       d="m 76.597065,341.71813 c -4.229333,0 -8.282667,-0.34133 -12.213333,-1.128 -7.406667,-1.48133 -9.171074,-1.47869 -14.960043,-3.25734 -5.788969,-1.77866 -9.357084,-2.78686 -12.524892,-4.82978 -0.06917,-1.80526 0.608147,-6.03019 1.752005,-7.65155 3.898339,1.46779 7.683588,3.31301 13.163554,4.856 5.479965,1.54298 7.010709,1.61201 14.138709,3.03868 13.43422,2.21022 28.810666,-0.49734 48.695995,-4.44267 10.116,-2.008 21.5,-3.832 34.19067,-6.09867 14.81733,-2.64666 29.79467,-4.20933 44.75733,-4.84 3.76667,-0.15866 7.53333,-0.256 11.29733,-0.288 1.53867,-0.012 3.07734,-0.0147 4.616,-0.003 1.03467,0.007 3.59734,0.564 4.04,-0.716 0.25067,-0.72667 -0.404,-2.492 -0.528,-3.25334 -0.392,-2.4 -0.78933,-4.8 -1.192,-7.19866 -0.91066,-5.428 -2.10001,-9.75813 -3.39473,-15.10521 -2.40111,-9.91644 -1.89964,-8.97652 -4.52043,-17.58813 -2.6208,-8.61161 -9.08333,-20.96863 -13.20237,-28.48939 -4.11904,-7.52076 -20.88638,-14.21272 -20.17171,-16.34747 0.71467,-2.13475 3.76278,-3.53194 6.49312,-3.46145 2.73034,0.0705 12.49167,5.25728 16.36231,9.42551 3.87064,4.16823 5.93107,7.47272 9.12557,13.10251 4.76884,8.40433 7.09354,15.24568 9.71779,23.30767 2.95488,9.0777 8.19589,35.75429 10.75134,52.46017 0.17866,1.14666 0.15511,-0.0136 0.0165,1.13445 -0.23334,1.928 -3.53334,0.99734 -4.96934,0.91334 -0.312,-0.0187 -31.61599,-1.74534 -68.06399,4.76533 -12.46667,2.228 -23.75467,4.13866 -33.768,6.12666 -15.196,3.016 -28.054669,5.568 -39.609335,5.568"
       style="fill:#000000;fill-opacity:1;fill-rule:nonzero;stroke:none;stroke-width:1.33333"
       id="path21735"
       sodipodi:nodetypes="cczcczcccccccccszzzzzsscccccc" /><path
       d="m 76.783865,340.3848 c -9.225129,-0.24329 -17.98932,-1.8825 -26.809376,-4.33467 -4.332091,-1.56986 -7.924992,-1.97817 -11.664892,-4.07645 0.400388,-1.85785 0.413904,-4.02029 1.007559,-5.77288 3.924558,2.28246 8.620246,3.74274 12.322666,4.79066 9.397582,2.15193 16.168137,4.0266 25.126709,4.05467 10.938667,0 23.622669,-2.51733 38.309329,-5.43066 10.12934,-2.01067 21.492,-3.848 34.14,-6.108 15.88412,-2.45425 31.63604,-4.27649 45.40134,-4.85337 5.33771,-0.19215 10.11471,-0.28865 15.01733,-0.256 0.80066,0.0634 1.66606,0.10397 2.40133,0.1214 1.97467,-0.0787 2.70533,-1.01067 2.97067,-1.77867 0.28666,-0.83066 0.0627,-1.82266 -0.28667,-3.13333 -0.58052,-2.69963 -0.98129,-5.60481 -1.37733,-7.96667 -0.912,-5.432 -1.63701,-7.33565 -3.51234,-15.23615 -1.87533,-7.9005 -1.95407,-10.07847 -4.46577,-17.67753 -2.5117,-7.59905 -7.92528,-19.74927 -11.30546,-25.90557 -3.38018,-6.1563 -8.12615,-10.53585 -14.79282,-14.22918 -2.24645,-1.24226 -6.48739,-3.32309 -6.65276,-4.27593 -0.16538,-0.95284 3.21493,-2.45203 4.21897,-2.37817 5.84688,0.98988 14.5775,6.9995 17.81109,11.39006 3.23359,4.39056 5.4841,7.33878 7.70072,11.84412 2.21661,4.50535 5.33687,11.03032 8.70375,21.95543 3.36688,10.92511 6.96131,30.06249 10.49992,50.95555 0.17067,0.72133 0.36267,1.53467 0.32133,2.08133 -0.0827,0.024 -0.22933,0.0533 -0.47066,0.0627 -1.07303,-0.0175 -2.02337,-0.18058 -3.04267,-0.292 -0.088,-0.005 -9.452,-0.52533 -23.77466,0.044 -15.42667,0.61467 -30.43467,2.20933 -44.60934,4.74133 -12.50933,2.23467 -23.81066,4.132 -33.83866,6.12133 -14.988,2.97467 -27.926669,5.54267 -39.349335,5.54267"
       style="fill:#d30000;fill-opacity:1;fill-rule:nonzero;stroke:none;stroke-width:1.33333"
       id="path21739"
       sodipodi:nodetypes="cccccccccccccczzzczczzzcccccccc" /><path
       d="m 360.67452,332.2184 c -2.692,0 -4.99333,-0.344 -6.59333,-1.12266 -5.43067,-2.63867 -27.22266,-6.124 -39.49333,-7.12267 -0.916,-0.0733 -2.44533,0.0667 -3.22933,-0.46533 -0.97734,-0.66134 -0.792,-2.088 -0.89734,-2.94 -1.38933,-11.22934 -9.88133,-47.664 -19.81066,-69.61334 -1.012,-2.236 -2.95735,-4.18644 -4.47735,-6.10244 -0.34667,-0.43733 -5.31454,-3.84881 -2.3111,-3.48217 1.09062,0.13314 3.76993,0.47589 4.80445,0.73795 2.37045,0.60048 4.04973,1.24197 5.94,2.376 2.65866,1.50533 3.65866,3.82133 4.804,6.552 1.34533,3.20533 2.57066,6.46133 3.70933,9.74533 2.27733,6.572 4.20267,13.25867 6.04267,19.96533 3.14133,11.44934 4.88533,17.16 7.136,27.26934 0.38133,1.70933 0.844,3.41333 1.252,5.12133 0.19466,0.81867 0.38133,1.63867 0.53733,2.46 0.0813,0.428 -0.003,1.612 0.38,1.90667 0.428,0.33066 2.49733,0.26133 3.07067,0.32133 1.20533,0.12533 2.40933,0.256 3.61333,0.392 5.74667,0.65333 11.5,1.428 17.21066,2.48 5.31067,0.97867 10.896,2.25867 15.604,4.28 2.70934,1.16267 7.52,-0.124 10.23067,-0.656 2.43867,-0.48 4.85067,-1.08667 7.19867,-1.83867 0.89466,-0.288 2.40933,-1.16266 3.092,-0.788 0.85333,0.46667 1.112,2.37734 1.29866,3.15067 0.228,0.944 0.816,2.5 0.12534,3.37867 -0.936,1.18933 -4.28934,1.62933 -5.77734,2.02 -4.34266,1.13866 -8.90933,1.97466 -13.46,1.97466"
       style="fill:#000000;fill-opacity:1;fill-rule:nonzero;stroke:none;stroke-width:1.33333"
       id="path21743"
       sodipodi:nodetypes="cccccccssccccccscccccccccccc" /><path
       d="m 360.67452,331.05174 c -2.57733,0 -4.63333,-0.33734 -5.94666,-0.97467 -6.772,-3.292 -33.98267,-6.68267 -37.03467,-6.96533 -1.08933,-0.10134 -2.13066,-0.192 -3.11466,-0.272 -0.25734,-0.0213 -0.55734,-0.028 -0.876,-0.0347 -0.31067,-0.005 -0.64534,-0.0107 -0.96667,-0.04 -0.44933,-0.0427 -0.58133,-0.112 -0.58667,-0.11467 -0.21733,-0.14666 -0.25866,-1.064 -0.27466,-1.40933 -0.0107,-0.24267 -0.0227,-0.472 -0.0467,-0.672 -1.396,-11.28267 -9.98,-48.09733 -19.96267,-70.164 -1.13333,-2.504 -2.38689,-4.68384 -4.15733,-6.464 -0.24159,-0.24291 -0.62519,-0.67683 -0.86,-0.93467 0.888,0.25302 1.79976,0.39921 2.688,0.64934 1.88903,0.53196 2.99151,1.18551 4.41467,1.988 2.25495,1.27152 3.032,3.052 4.23066,5.908 1.27067,3.02666 2.47334,6.18933 3.67867,9.66533 2.38133,6.87333 4.37733,13.90667 6.01733,19.88133 3.16267,11.53067 4.86667,17.10667 7.072,27.00934 0.228,1.02533 0.48534,2.04933 0.744,3.072 0.17334,0.688 0.34667,1.37466 0.51067,2.064 0.192,0.804 0.37467,1.60933 0.528,2.41466 0.0173,0.0947 0.0213,0.232 0.028,0.38667 0.0427,0.788 0.0893,1.68267 0.82933,2.25467 0.512,0.39333 1.20667,0.50533 1.81867,0.56266 0.47733,0.044 1.02933,0.0587 1.48933,0.0707 0.25467,0.007 0.47334,0.009 0.608,0.0227 1.204,0.124 2.40267,0.25466 3.60267,0.38933 6.63867,0.75467 12.07066,1.53733 17.09333,2.46267 5.43733,1.00266 10.76667,2.32266 15.17733,4.21733 0.928,0.39733 2.044,0.59067 3.41334,0.59067 2.21066,0 4.60533,-0.508 6.53066,-0.916 0.42,-0.088 0.812,-0.17067 1.16667,-0.24134 2.57067,-0.50533 5.048,-1.13733 7.36533,-1.88133 0.272,-0.088 0.596,-0.22 0.93867,-0.364 0.28667,-0.12 0.76667,-0.32 1.076,-0.40533 0.21867,0.40533 0.43467,1.44133 0.51067,1.812 0.0373,0.17733 0.0707,0.33733 0.10133,0.46666 0.0373,0.15067 0.0827,0.31467 0.12933,0.488 0.148,0.54134 0.45334,1.668 0.20267,1.988 -0.44533,0.56667 -2.72267,1.05067 -3.81867,1.28267 -0.47466,0.1 -0.904,0.192 -1.24266,0.28133 -4.93867,1.29467 -9.216,1.92534 -13.07734,1.92534"
       style="fill:#d30000;fill-opacity:1;fill-rule:nonzero;stroke:none;stroke-width:1.33333"
       id="path21747"
       sodipodi:nodetypes="ccccccccccscsscccccccccccccccscccccccccccc" /><path
       d="m 210.15359,362.84387 9.14134,-0.31867 c 0.13733,1.724 0.26,3.10533 0.35466,3.96133 0.10134,0.91734 0.22667,2.52134 0.364,4.56534 -2.37466,-0.0573 -5.67066,-0.0213 -9.32666,0.0693 -0.23334,-3.70531 -0.42534,-6.64798 -0.53334,-8.27731 z m -14.14266,0.4933 12.02266,-0.41867 0.376,8.264 c -3.93066,0.11467 -8.108,0.27734 -11.87999,0.44 z m -11.43067,0.39867 8.7,-0.30267 0.51467,8.31067 c -4.02267,0.18266 -7.284,0.348 -8.836,0.42933 -0.224,-5.00933 -0.37867,-8.43733 -0.37867,-8.43733 z m 35.26533,-40.376 c -8.30666,-1.20133 -30.67733,0.30133 -42.07199,1.35067 -11.39467,1.04933 -56.52534,9.29599 -56.52534,9.29599 0,0 0.0267,0.24267 0.0787,0.61067 -0.72933,-0.21867 -1.528,-0.29467 -2.512,-0.0333 -1.42267,0.37866 -3.028,1.74266 -2.868,3.356 0.19067,1.92266 2.19067,2.99866 3.33733,4.32533 2.47334,2.86 3.22667,6.64133 4.13867,10.19867 1.14533,4.46666 2.09333,9.076 1.66133,13.70933 -0.14933,1.59867 -0.47066,3.54133 -1.56133,4.8 -1.364,1.576 -3.14933,1.18533 -5.03467,1.04133 -3.97733,-0.30533 -7.91466,-1.13066 -11.68533,-2.436 -2.33867,-0.80933 -4.612,-1.80266 -6.79333,-2.972 -1.862669,-0.99866 -3.757336,-2.728 -5.830669,-3.23866 -1.042667,-0.256 -2.453333,-0.036 -1.252,1.348 1.529333,1.76133 3.446667,2.81066 5.230667,4.19866 7.034662,5.476 14.038662,11.07734 21.096002,16.56 0.99733,0.77467 3.988,4.59067 0.892,4.62267 -2.65334,0.028 -5.02667,-1.99867 -7.71067,-1.37867 -1.16,0.268 -2.23867,1.21867 -2.29467,2.40934 -0.036,0.78666 0.36,1.52266 0.77334,2.19333 1.424,2.31733 3.18266,4.63067 5.22266,6.64533 h 37.544 c -0.76933,-1.22 -1.54,-2.44 -2.30933,-3.66 -2.07333,-3.28533 -4.03733,-6.27066 -5.29333,-9.82133 -1.27334,-3.596 -2.15334,-7.24533 -2.76934,-10.88 -0.52266,-3.08533 -0.52533,-6.096 -0.936,-9.15733 -0.536,-3.98534 -1.40133,-7.94134 -1.39466,-11.912 0.007,-3.82134 1.07733,-7.852 1.84133,-11.59067 0.11867,-0.58267 0.5,-1.384 0.27467,-2.048 -0.37867,-1.116 -0.364,-0.34933 -1.16134,-0.92933 -1.50533,-1.09734 -1.548,-2.156 -0.06,-3.93734 1.79734,-2.15066 4.42534,-1.44533 6.968,-1.90133 3.196,-0.572 6.392,-1.14266 9.588,-1.71333 4.55067,-0.812 9.104,-1.61067 13.648,-2.45733 8.84667,-1.64934 44.98,-2.09867 44.98,-2.09867 0,0 1.09067,19.332 1.98267,31.33733 l -37.36,2.052 1.888,38.71733 h 2.61467 c -0.328,-7.65066 -0.76534,-17.51733 -1.1,-25.02666 3.23466,-0.20534 6.188,-0.384 8.87866,-0.536 l 1.58667,25.56266 h 2.76133 l -1.61333,-25.71466 c 4.79066,-0.25867 8.68666,-0.432 11.82933,-0.54134 l 1.19333,26.256 h 2.57867 c -0.38133,-8.468 -0.972,-18.58 -1.452,-26.33066 5.11333,-0.14534 7.868,-0.10134 9.336,-0.0213 0.45867,7.36 1.01467,18.30667 1.40933,26.352 h 3.34934 c -0.35067,-11.06266 -1.30081,-24.7018 -2.15069,-33.48003 -0.84987,-8.77824 -2.94268,-43.1267 -2.94268,-43.1267 z"
       style="opacity:0.199997;fill:#000000;fill-opacity:1;fill-rule:nonzero;stroke:none;stroke-width:1.33333"
       id="path21757"
       sodipodi:nodetypes="cccccccccccccccccscccsccccccccccccsccccccccccscccccccccccccccccccccczc" /><path
       d="m 77.618798,399.96653 c -0.756,-3.14 -1.593333,-5.79733 -2.512,-7.58533 -1.110667,-2.164 -1.510667,-4.9 -2.376,-7.16667 -0.968,-2.53466 -2.029333,-3.66533 -0.06267,-6.28 2.187999,-2.908 6.786666,-1.50533 6.971999,-5.996 0.12,-2.92666 -3.073333,-5.864 -4.704,-8.02133 -2.414666,-3.19333 -4.495999,-6.976 -4.589333,-11.07467 -0.088,-3.82533 2.262667,-6.644 2.650667,-10.25733 0.064,-0.592 0.333333,-1.45067 0.173333,-2.032 -0.110666,-0.39867 -0.446666,-0.656 -0.668,-0.99467 -0.585333,-0.89066 -0.685333,-1.88533 -0.618666,-2.928 0.04667,-0.74133 0.4,-1.404 0.856,-2.02533 0.378666,-0.51467 1.066666,-0.736 1.405333,-1.28267 0.32,-0.51466 0.326666,-1.21866 0.433333,-1.80533 0.258667,-1.42666 0.54,-2.848 0.845333,-4.26533 1.830667,-8.48133 4.492,-17.01333 9.058667,-24.44933 3.857333,-6.28 9.333333,-11.74267 16.518666,-13.95334 6.80134,-2.09333 68.268,-31.64933 82.65334,-34.26533 6.23953,-1.25054 7.28176,-1.039 14.32068,-2.8711 0.25333,-0.39334 1.22728,-1.2419 1.60061,-1.54323 1.41532,-0.44372 2.94837,-0.74152 4.39953,-1.02755 0.98378,0.85972 1.5138,1.78599 2.58847,1.60466 0.296,-0.0493 5.08804,-1.32945 5.34004,-1.13211 0,0 7.32266,5.75466 14.38533,9.67733 0,0 -4.708,-5.75333 -1.56933,-12.55467 3.13866,-6.8 0,-6.27733 -4.18534,-12.032 -4.184,-5.75333 -14.124,-12.29333 -17.26266,-20.40133 -3.13867,-8.108 -7.3604,-15.4668 -10.69507,-13.19347 -0.70375,2.26251 -2.83696,17.26204 -3.47175,19.42969 -2.46402,1.38124 -7.06421,5.61028 -8.36458,5.58096 -1.32732,-0.0299 -3.80736,-1.70948 -4.64798,-1.45732 -1.81671,0.54495 -2.9882,1.74953 -4.42282,2.38222 -0.4627,0.20406 2.72903,1.96315 2.26896,2.16104 -4.47745,1.92596 -6.39824,2.52459 -10.84009,4.10477 -13.20014,5.17871 -27.18706,9.62762 -45.53148,16.4428 -14.01607,5.48499 -27.422817,10.1815 -35.658852,14.27315 -14.734181,7.38043 -32.587926,36.49191 -36.91018,55.93392 -0.502676,2.25136 -0.979464,4.46012 -1.430705,6.62477 -0.116761,0.56011 -3.862543,-1.75192 -4.133445,-1.5764 -0.834024,0.54039 -1.534116,5.34503 -1.131376,6.64063 0.171374,0.5513 3.961373,1.42992 3.887819,1.81364 -2.755374,14.3742 -4.293568,26.53856 -4.729167,35.99303 -0.566118,12.28732 -0.788429,25.97589 -1.239095,29.83855 z"
       style="opacity:0.199997;fill:#000000;fill-opacity:1;fill-rule:nonzero;stroke:none;stroke-width:1.33333"
       id="path21773"
       sodipodi:nodetypes="ccccccccccccccccccccccccccsccssssccccssssscc" /><path
       d="m 138.56546,346.78173 c 0,0 40.45467,-8.02133 70.09867,-8.02133 l -0.34934,5.58 c 0,0 -25.45866,0 -69.74933,7.324 z"
       style="fill:#000000;fill-opacity:1;fill-rule:nonzero;stroke:none;stroke-width:1.33333"
       id="path21783" /><path
       d="m 206.06773,344.06187 -10.75467,0.20266 -0.096,-5.05066 10.756,-0.20267 z"
       style="fill:#dfdfdf;fill-opacity:1;fill-rule:nonzero;stroke:none;stroke-width:1.33333"
       id="path21787" /><path
       d="m 204.83626,339.8588 -8.452,0.15867 0.064,3.39866 8.452,-0.15866 z m 1.736,4.70267 -11.74533,0.22133 -0.11467,-6.068 11.74667,-0.22133 z"
       style="fill:#000000;fill-opacity:1;fill-rule:nonzero;stroke:none;stroke-width:1.33333"
       id="path21791" /><path
       d="m 274.69986,335.23187 -0.55067,-3.63333 -3.608,0.308 0.54934,3.63333 -2.00534,0.17066 1.952,12.888 7.62134,-0.65066 -1.952,-12.88667 z"
       style="fill:#dfdfdf;fill-opacity:1;fill-rule:nonzero;stroke:none;stroke-width:1.33333"
       id="path21795" /><path
       d="m 277.89186,347.34707 -6.28667,0.536 -1.75333,-11.57067 0.672,-0.0587 0.33333,2.19467 c 0.048,0.31467 0.31334,0.54667 0.62267,0.58533 -0.28933,0.0907 -0.48,0.36 -0.432,0.676 l 0.98267,6.484 c 0.0547,0.364 0.39733,0.632 0.76666,0.60134 l 3.608,-0.308 c 0.368,-0.032 0.62134,-0.35067 0.56667,-0.71467 l -0.98267,-6.48533 c -0.048,-0.31467 -0.31333,-0.54534 -0.62266,-0.58534 0.28933,-0.0893 0.48,-0.36 0.432,-0.67466 l -0.332,-2.19467 0.672,-0.0573 z m -6.584,-14.83867 2.27467,-0.19466 0.78266,5.16933 -2.27466,0.19333 z m 3.448,7.55067 0.78267,5.16933 -2.27467,0.19333 -0.78267,-5.168 z m 1.85067,-5.656 -1.34,0.11333 -0.45067,-2.97466 c -0.0547,-0.364 -0.39733,-0.632 -0.76667,-0.60134 l -3.608,0.308 c -0.368,0.032 -0.62133,0.352 -0.56666,0.71467 l 0.45066,2.97466 -1.34,0.11467 c -0.368,0.032 -0.62133,0.352 -0.56666,0.71467 l 1.952,12.888 c 0.056,0.364 0.39866,0.63333 0.76666,0.60133 l 7.62134,-0.65067 c 0.368,-0.0307 0.62133,-0.35066 0.56666,-0.71466 l -1.952,-12.888 c -0.056,-0.36267 -0.39866,-0.632 -0.76666,-0.6"
       style="fill:#000000;fill-opacity:1;fill-rule:nonzero;stroke:none;stroke-width:1.33333"
       id="path21799" /></g></svg>
