<?xml version="1.0" encoding="UTF-8" standalone="no"?>
<!-- Created with Inkscape (http://www.inkscape.org/) -->

<svg
   version="1.1"
   id="svg4319"
   width="400"
   height="400"
   viewBox="0 0 400 400"
   sodipodi:docname="enterpriseAverageMale.svg"
   inkscape:version="1.2.2 (b0a8486, 2022-12-01)"
   xmlns:inkscape="http://www.inkscape.org/namespaces/inkscape"
   xmlns:sodipodi="http://sodipodi.sourceforge.net/DTD/sodipodi-0.dtd"
   xmlns="http://www.w3.org/2000/svg"
   xmlns:svg="http://www.w3.org/2000/svg">
  <defs
     id="defs4323" />
  <sodipodi:namedview
     id="namedview4321"
     pagecolor="#ffffff"
     bordercolor="#666666"
     borderopacity="1.0"
     inkscape:showpageshadow="2"
     inkscape:pageopacity="0.0"
     inkscape:pagecheckerboard="0"
     inkscape:deskcolor="#d1d1d1"
     showgrid="false"
     inkscape:zoom="6.0811183"
     inkscape:cx="200.20989"
     inkscape:cy="199.96322"
     inkscape:window-width="1920"
     inkscape:window-height="1080"
     inkscape:window-x="2321"
     inkscape:window-y="142"
     inkscape:window-maximized="0"
     inkscape:current-layer="layer2">
    <inkscape:page
       x="0"
       y="0"
       id="page4325"
       width="400"
       height="400" />
  </sodipodi:namedview>
  <g
     inkscape:groupmode="layer"
     id="layer2"
     inkscape:label="Neck">
    <path
       d="m 213.63253,151.29441 -13.54934,47.14666 c 0,0 -9.09866,12.312 -5.11733,20.18133 3.30934,6.54134 11.664,13.756 15.768,16.768 9.03733,6.63734 27.30133,15.592 38.17467,17.004 l 11.33066,-1.564 2.82534,-2.824 5.224,-2.25866 3.81333,-10.87467 18.428,-23.08667 z"
       style="fill:#cd976d;fill-opacity:1;fill-rule:nonzero;stroke:none;stroke-width:1.33333"
       id="path12419" />
    <path
       d="m 200.08306,198.44081 c 0,0 -8.332,14.43066 -4.03466,22.58666 1.244,2.35867 7.89599,7.77733 9.01066,9.00933 1.99467,2.20534 15.87467,-2.31466 23.512,-1.91333 11.39067,0.59733 25.19333,0.15733 29.89067,1.56667 6.33866,1.90133 13.09866,2.66533 15.47066,2.89066 l 16.59734,-20.79333 -76.89734,-60.49333 z"
       style="opacity:0.199997;fill:#000000;fill-opacity:1;fill-rule:nonzero;stroke:none;stroke-width:1.33333"
       id="path12429" />
    <path
       d="m 211.64493,149.52841 c -1.01067,4.99733 -6.2,23.82533 -7.36934,28.788 -0.956,4.064 -1.95733,8.11866 -3.072,12.14266 -0.516,1.85867 -1.07466,3.70267 -1.63333,5.54934 -0.18666,0.616 -0.95466,1.86266 -0.88133,2.47466 0.02,0.16934 0.80667,2.38267 1.11067,1.93733 3.68799,-5.38666 5.03733,-14.18666 7.12666,-20.38133 1.49067,-4.41866 7.06133,-22.68666 8.552,-27.104 0,0 -3.83333,-3.40666 -3.83333,-3.40666"
       style="fill:#000000;fill-opacity:1;fill-rule:nonzero;stroke:none;stroke-width:1.33333"
       id="path12439" />
    <path
       d="m 293.27599,213.31907 c -2.83733,2.044 -16.052,19.912 -18.06133,22.53067 -1.636,2.13066 -3.84533,10.85066 -6.55467,10.948 -1.83066,0.0653 -1.51466,-3.72534 -1.03733,-5.332 0.228,-0.76934 19.62667,-30.90934 19.62667,-30.90934 0,0 6.02666,2.76267 6.02666,2.76267"
       style="fill:#000000;fill-opacity:1;fill-rule:nonzero;stroke:none;stroke-width:1.33333"
       id="path12443" />
  </g>
  <g
     id="g4327"
     inkscape:groupmode="layer"
     inkscape:label="Uniform">
    <path
       d="m 111.68226,386.34427 c 0.096,0.27733 0.20934,0.552 0.27334,0.83333 -0.0667,-0.28933 -0.15867,-0.56667 -0.27334,-0.83333"
       style="opacity:0.199997;fill:#000000;fill-opacity:1;fill-rule:nonzero;stroke:none;stroke-width:1.33333"
       id="path12393" />
    <path
       d="m 114.24306,312.59707 c 0.0453,0.35067 0.0987,0.53067 0.0987,0.53067 -0.0413,-0.17467 -0.064,-0.35467 -0.0987,-0.53067"
       style="opacity:0.199997;fill:#000000;fill-opacity:1;fill-rule:nonzero;stroke:none;stroke-width:1.33333"
       id="path12409" />
    <path
       d="m 263.54359,323.63867 c -4.764,-9.63733 -18.45866,-36.91333 -25.15733,-50.244 l 4.72667,-38.316 c 1.96666,0.56533 4.08533,1.11067 6.544,1.68267 2.79733,0.652 5.27733,1.14266 7.58533,1.5 0.384,0.0587 0.77067,0.10533 1.156,0.152 1.98133,0.236 3.13467,0.432 3.8,1.72533 l 1.13867,2.216 1.152,-2.07067 c 0.532,-0.45733 2.58933,-1.428 3.88666,-1.91733 l 6.25067,31.34133 c -3.70667,18.44534 -9.03867,44.64534 -11.08267,53.93067"
       style="fill:#1f1f1f;fill-opacity:1;fill-rule:nonzero;stroke:none;stroke-width:1.33333"
       id="path12447" />
    <path
       d="m 263.25666,321.84627 c -0.232,-0.73467 -24.012,-47.78533 -24.012,-47.78533 0,0 4.40133,-37.73734 4.40133,-37.73734 -0.044,0.37334 7.952,2.19467 8.49334,2.32134 3.828,0.88666 8.54933,0.61333 9.71333,5.26533 0.55067,2.20267 0.96267,5.176 1.19067,7.3 -0.22534,-2.096 0.14933,-4.66 0.51066,-6.72 0.61067,-3.49067 1.504,-3.56 4.39067,-4.92667 l 5.80933,30.82134 c 0,0 -10.26533,52.196 -10.49733,51.46133 m 6.168,-85.036 c -0.0973,-0.488 -5.592,1.912 -6.04133,2.71867 -1.216,-2.36534 -3.64667,-2.23067 -5.93734,-2.58534 -2.51466,-0.38933 -5.00933,-0.904 -7.48666,-1.48 -2.676,-0.624 -5.348,-1.30666 -7.976,-2.112 l -4.96934,40.28 c 0,0 26.67867,53.09734 26.94,53.88134 0.26134,0.78533 12.032,-57.804 12.032,-57.804 0,0 -6.56133,-32.89867 -6.56133,-32.89867"
       style="fill:#000000;fill-opacity:1;fill-rule:nonzero;stroke:none;stroke-width:1.33333"
       id="path12451" />
    <path
       d="m 12.9876,400.02293 c 3.613333,-23.08266 7.353333,-48.13333 12.262666,-71.20666 1.657333,-7.79067 3.422667,-15.36133 6.770667,-22.336 6.341333,-13.20667 17.814666,-23.12533 29.267999,-31.87733 16.937333,-12.94134 36.517332,-25.57334 59.857328,-38.62 9.984,-5.58 17.76667,-9.62 25.232,-13.09867 7.20667,-3.356 14.768,-6.26 22.08134,-9.06933 1.58666,-0.60934 3.17333,-1.21867 4.75866,-1.832 l 5.70667,-2.21334 c 0.732,-0.28266 1.412,-0.48933 2.05867,-0.68533 1.62533,-0.49333 3.16266,-0.96 4.80933,-2.33067 1.80267,-1.49866 3.85733,-4.444 4.444,-5.31066 0.724,-1.068 1.47733,-2.1 2.23467,-3.13733 l 1.03066,-1.42 c 0.24,-0.33467 0.48934,-0.73467 0.752,-1.15867 0.64934,-1.052 1.53867,-2.492 2.396,-2.628 0.108,-0.0173 0.23734,-0.0267 0.376,-0.0267 0.38267,0 0.596,0.072 0.64,0.0973 0.512,0.57333 0.64134,1.89466 0.756,3.05866 0.04,0.41067 0.08,0.80667 0.13334,1.16934 0.348,2.31866 0.936,4.36666 1.80133,6.26133 2.11466,4.628 5.98266,8.87866 11.82533,12.996 15.304,10.78933 21.48267,12.108 25.99333,13.072 l 0.756,0.16266 c 3.99867,0.87734 4.15867,5.856 3.68534,8.36667 -0.72267,3.824 0.52533,21.14933 0.67066,23.112 l 0.0173,0.14 c 0.0587,0.32667 6.072,33.01067 18.62266,58.44667 l 1.93867,3.928 0.57867,-4.34134 c 0.16933,-1.26666 4.12,-31.11466 3.12933,-41.688 -0.96267,-10.284 -0.10267,-17.85733 -0.0933,-17.932 l 0.20266,-1.73733 -1.11066,0.16933 c -0.16134,-0.48 -0.39334,-1.66666 -0.23734,-4.35466 0.34667,-6.02534 1.964,-15.02134 3.08934,-17.188 1.08933,-2.09734 2.24533,-3.42 6.22133,-5.704 1.47067,-0.84534 3.93333,-2.25867 5.096,-2.25867 0.18133,0 0.38533,0 0.452,0.936 0.2,2.77733 1.116,5.084 2.08533,7.52667 0.43334,1.092 1.144,2.576 2.552,3.49466 1.20667,0.788 2.64267,1.12667 4.03067,1.452 0.73733,0.17467 1.43333,0.33867 2.03467,0.55734 0.684,0.24933 1.36133,0.512 2.03866,0.77733 1.35867,0.52933 2.764,1.076 4.216,1.50133 3.46,1.01334 6.812,2.61734 10.05467,4.168 l 1.76533,0.84134 c 3.78134,1.784 8.06667,3.808 12.368,5.55466 1.70134,0.692 3.41867,1.37467 5.14134,2.06 13.77066,5.47867 28.00933,11.144 37.32533,22.32267 8.14,9.768 11.56933,22.692 14.06,35.20267 5.45466,27.37599 7.57466,56.77866 6.30666,84.77999 z"
       style="fill:#382e53;fill-opacity:1;fill-rule:nonzero;stroke:none;stroke-width:1.33333"
       id="path12455" />
    <path
       d="m 239.51199,259.102 c 0.49334,1.69867 1.94934,2.70267 2.292,4.67334 0.34534,1.99466 0.84934,3.77333 1.04134,5.768 0.31866,3.30266 1.35466,6.46666 2.076,9.69066 0.332,1.48267 0.384,3.07067 0.804,4.52134 0.38533,1.33066 0.896,2.66533 1.33333,3.984 0.4,1.204 0.66,2.38666 0.93733,3.68133 0.56267,2.61733 1.58134,5.2 2.26534,7.752 0.72266,2.69467 1.15466,5.30133 2.51866,7.67733 0.25334,0.44267 1.69467,2.71467 0.988,3.15867 -0.48133,0.30267 -1.44666,-0.836 -1.77866,-1.08933 -1.51867,-1.16 -3.36267,-2.29067 -4.97067,-3.12134 -0.88933,-0.46 -1.756,-0.852 -2.68133,-1.368 -0.95867,-0.536 -1.94134,-1.336 -3.128,-1.148 0.19466,1.60667 1.488,2.98267 2.43333,4.248 2.11733,2.836 4.40267,5.876 6.812,8.49867 0.672,0.73067 1.55067,1.25467 2.19067,2.02133 0.75466,0.90267 1.49466,1.85067 2.25333,2.78134 1.72133,2.10533 3.81333,4.21866 3.564,7.06 -0.18933,2.15066 -0.0293,4.42666 -0.032,6.60399 0,0.56 0.116,0.764 0.57733,1.03467 0.22267,0.13067 0.41467,0.23467 0.668,0.29333 0.35867,0.084 0.84134,0.0547 1.176,0.19467 -0.0867,0.43867 -0.088,1.03333 -0.064,1.476 0.0333,0.63467 0.076,1.268 0.12667,1.90133 0.0987,1.252 0.22533,2.50267 0.36667,3.752 0.28,2.476 0.61333,4.94667 0.892,7.424 0.808,7.18267 0.29733,14.43334 0.29733,21.64134 0,5.36666 -0.144,10.64533 0.16667,15.93733 0.23733,4.02267 -0.916,7.92267 -1.024,11.87333 h 7.51066 c -0.0307,-2.464 -0.65466,-5.12266 -0.65466,-7.26266 0,-3.568 -0.184,-7.132 -0.22267,-10.68267 -0.092,-8.50667 0,-17.01867 0,-25.52533 0,-6.12667 -0.24,-12.24934 -0.41333,-18.37334 -0.0853,-3.06666 -0.156,-6.13333 -0.17067,-9.20133 -0.007,-1.288 -0.164,-2.66533 0.22,-3.89466 0.39067,-1.24934 1.14933,-2.316 1.83867,-3.40934 0.95466,-1.51066 2.25733,-2.87066 3.252,-4.4 0.51333,-0.788 2.17333,-2.596 0.52533,-2.53466 -1.468,0.056 -2.08533,0.16666 -3.37067,-0.69467 -2.82,-1.89067 -1.13733,-6.10267 -0.66933,-8.756 0.66533,-3.76533 1.372,-7.53333 1.656,-11.352 0.552,-7.40933 0.89067,-14.676 0.576,-22.09867 -0.16533,-3.90666 -0.06,-7.94266 1.48933,-11.532 0.676,-1.56533 1.61334,-3.00266 2.25734,-4.58133 0.65733,-1.612 0.95333,-3.26933 1.98933,-4.72133 1.26533,-1.77467 3.05867,-3.14534 4.188,-5.00934 -1.084,1.192 -2.38,2.19067 -3.808,2.93734 -1.536,0.80133 -2.24933,0.0787 -2.256,-1.50134 -0.0147,-3.316 0.248,-6.95066 -0.544,-10.05866 -1.67733,0.61066 -3.63733,0.47466 -5.12,1.664 -1.48,1.18933 -1.632,2.6 -2.00533,4.38666 -0.34534,1.652 -0.71467,3.29067 -0.88267,4.96934 -0.23733,2.37066 -0.37467,4.77866 -0.132,7.156 0.11867,1.16933 0.47733,2.23733 0.7,3.376 0.22,1.13066 0.136,2.38666 0.136,3.55466 v 13.05334 c 0,8.672 -0.67333,17.396 -1.29333,26.08 -0.34134,4.78533 -0.77467,9.548 -1.40934,14.30666 -0.116,0.876 -0.76666,4.052 -1.77733,4.32267 -1.736,0.46667 -3.936,-5.772 -4.368,-7.10533 -0.624,-1.92267 -1.008,-3.708 -1.70133,-5.456 -0.55467,-1.4 -1.48267,-2.11334 -2.13467,-3.44534 -1.192,-2.42933 -1.72933,-5.43333 -2.52533,-8.09866 -1.90134,-6.36934 -3.1,-13.172 -6.01067,-19.06934 -2.816,-5.70666 -2.796,-12.124 -3.096,-18.86666 -0.17467,-3.932 -0.30533,-7.94134 -0.536,-11.92667 -0.17867,-3.104 0.15333,-7.19467 -1.77467,-9.66933 -2.9,0.66933 -2.44266,6.604 -2.76,8.86266 -0.328,2.33867 -0.88666,7.82 -3.42133,8.71467 1.028,1.57467 3.09333,3.86667 4.61733,4.92133"
       style="opacity:0.199997;fill:#000000;fill-opacity:1;fill-rule:nonzero;stroke:none;stroke-width:1.33333"
       id="path12465" />
    <path
       d="m 129.8192,400.02293 h 26.704 c -1.192,-5.56266 -3.244,-11.20933 -3.296,-17.14533 -0.0747,-8.53733 -3.33334,-16.6 -4.184,-24.936 -0.508,-4.972 0.60133,-9.06 4.428,-12.20667 -1.55334,-1.85466 -3.49067,-1.32 -4.51334,-3.75866 -0.70933,-1.69067 -0.59866,-4.82934 -0.98133,-6.684 -0.80533,-3.89333 -2.45067,-8 -0.37467,-11.46667 -4.532,-0.42933 -9.23733,-1.19066 -14.076,-0.75866 -4.64666,0.41466 -9.172,3.27066 -13.77866,3.13866 -3.38134,1.9 -8.53467,0.59734 -10.87067,3.77867 -2.76933,0.70533 -8.899999,2.33067 -10.950666,4.23466 1.149334,2.99734 5.317336,1.71467 3.966666,6.21734 -0.46667,1.556 -2.129332,1.736 -1.76133,3.64133 0.29466,1.52667 2.57466,2.79733 3.86133,3.112 0.808,1.06533 1.552,1.76267 2.11733,3.02667 -3.95333,-0.0147 -8.302662,-2.53334 -12.110662,-3.464 -3.729334,-0.912 -7.094667,-1.93734 -11.185333,-1.644 0.678666,4.23066 5.435999,5.86 8.070666,8.90666 2.748,3.17867 5.334667,5.648 8.906667,8.12134 4.802662,3.32666 9.352002,7.34933 13.756002,11.05466 2.28266,1.92134 8.39066,5.552 8.67333,8.248 -10.98267,-3.95066 -22.566666,-13.336 -34.783999,-12.28266 1.334667,3.43066 8.666667,7.27866 11.717333,9.36266 3.991996,2.72667 8.074666,5.824 12.145336,8.73734 5.88266,4.20933 13.264,7.05866 18.24933,12.43866 0.092,0.1 0.18133,0.21467 0.27067,0.328"
       style="opacity:0.199997;fill:#000000;fill-opacity:1;fill-rule:nonzero;stroke:none;stroke-width:1.33333"
       id="path12481" />
    <path
       d="m 214.60639,361.77787 c 0.10267,0.91866 0.22667,2.52133 0.36534,4.56666 -2.376,-0.0587 -5.672,-0.0213 -9.328,0.068 -0.23334,-3.704 -0.42534,-6.64666 -0.53334,-8.276 l 9.14134,-0.31866 c 0.13733,1.724 0.26,3.104 0.35466,3.96 m -23.11866,5.136 -0.52,-8.284 12.02266,-0.42 0.376,8.26533 c -3.93066,0.11467 -8.10799,0.276 -11.87866,0.43867 m -11.572,0.552 c -0.224,-5.01067 -0.37867,-8.43734 -0.37867,-8.43734 l 8.7,-0.304 0.516,8.31067 c -4.024,0.18267 -7.28533,0.34933 -8.83733,0.43067 m 34.08,-12.97734 -37.36,2.052 2.12133,43.48267 h 2.584 c -0.32933,-7.86667 -0.892,-20.59867 -1.30133,-29.79067 3.23333,-0.20666 6.18667,-0.38533 8.87733,-0.53733 l 1.88267,30.328 h 2.764 l -1.912,-30.48 c 4.79067,-0.25867 8.68666,-0.432 11.82933,-0.54133 l 1.41067,31.02133 h 2.55866 c -0.34133,-9.17067 -1.07466,-21.82533 -1.64933,-31.09467 5.11333,-0.14666 7.86933,-0.10266 9.336,-0.0227 0.55733,8.956 1.26267,23.23333 1.64133,31.11733 h 3.25867 c -0.28533,-10.40933 -1.00267,-31.28267 -2.292,-38.24533 -1.744,-9.416 -2.94267,-43.12667 -2.94267,-43.12667 l -39.25599,2.32267 -55.42134,4.70133 1.01734,3.66934 c 19.52933,-4.88267 90.67333,-7.672 90.67333,-7.672 0,0 1.288,20.81199 2.18,32.81599"
       style="opacity:0.199997;fill:#000000;fill-opacity:1;fill-rule:nonzero;stroke:none;stroke-width:1.33333"
       id="path12497" />
    <path
       d="m 378.94986,323.30854 -32.168,-5.82134 -21.97067,-1.39466 -11.81466,1.28533 c 0,0 5.076,54.24133 4.40133,82.64533 h 2.484 c -0.16267,-15.78133 -0.85467,-62.15333 -3.44133,-79.39733 0,0 20.92533,-3.13867 29.99199,-0.34933 9.068,2.79066 27.9,6.62666 33.48,6.62666 z"
       style="opacity:0.199997;fill:#000000;fill-opacity:1;fill-rule:nonzero;stroke:none;stroke-width:1.33333"
       id="path12513" />
    <path
       d="m 131.4356,400.02293 h 5.56 c 0,0 1.06533,-39.53066 -15.55867,-69.21466 0,0 8.91467,33.48933 9.99867,69.21466"
       style="fill:#000000;fill-opacity:1;fill-rule:nonzero;stroke:none;stroke-width:1.33333"
       id="path12523" />
    <path
       d="m 212.94973,215.56547 c 15.95466,11.24667 21.69333,12.01867 26.268,13.02133 4.57333,1.004 5.41866,6.15467 4.708,9.91734 -0.71067,3.76266 0.69066,22.76533 0.69066,22.76533 0,0 5.89467,32.53333 18.50667,58.09467 0,0 4.112,-30.84267 3.124,-41.38534 -0.98667,-10.544 -0.0907,-18.212 -0.0907,-18.212 0,0 -1.504,0.23067 -1.152,-5.84533 0.35067,-6.076 1.97467,-15.29333 3.23734,-17.72533 1.26133,-2.43067 2.64266,-3.89067 6.74,-6.24534 4.09733,-2.35333 7.28133,-3.92266 7.54266,-0.26133 0.18534,2.59067 1.068,4.79467 2.01734,7.184 0.432,1.09067 1.036,2.17467 2.01866,2.816 1.608,1.04933 3.97734,1.21067 5.79334,1.872 2.05733,0.75067 4.06666,1.636 6.172,2.252 4.18933,1.22667 8.084,3.22667 12.016,5.08267 4.064,1.92 8.13466,3.83466 12.3,5.52666 15.49333,6.29334 32.28266,11.916 42.98799,24.76267 8.31867,9.98267 11.80667,23.05333 14.34534,35.79733 5.54666,27.848 7.65733,56.67867 6.26933,85.04 -2.12,-0.0427 -4.24,0.0427 -6.36,0 1.49333,-27.068 0.14,-54.71733 -4.03333,-81.504 -2.248,-14.43066 -5.72667,-29.55466 -15.832,-40.09733 -6.34267,-6.61733 -14.74667,-10.816 -23.08667,-14.61467 -6.784,-3.09066 -13.66266,-5.968 -20.51733,-8.9 -5.73333,-2.452 -11.344,-5.264 -17.18533,-7.45333 -3.476,-1.304 -7.04934,-2.34667 -10.68134,-3.11867 -1.55866,-0.33066 -3.504,-0.608 -4.70133,-1.76266 -1.11733,-1.07734 -1.65067,-2.82134 -2.35333,-4.168 -0.25334,-0.48667 -2.71867,-5.98934 -2.48134,-6.04934 -2.332,0.58 -4.16266,1.96934 -6.33733,2.89334 -1.08,0.45866 -1.80533,0.75866 -2.192,1.72533 -0.376,0.93733 -0.38667,2.19333 -0.59333,3.204 -0.19734,0.964 -0.39334,1.94 -0.59734,2.904 -0.724,3.42133 -1.468,6.74133 -1.61733,10.27067 -0.088,2.08533 1.52533,4.772 3.97733,2.98133 -1.04,0.76 -2.12,3.548 -2.34533,4.76 -0.30267,1.62133 -0.268,3.46533 -0.288,5.11733 -0.0507,4.264 0.29067,8.52667 0.51467,12.78267 0.58533,11.07067 -2.87467,31.67067 -5.32534,47.488 -3.31733,0.992 -14.08533,-27.02933 -23.084,-65.10133 0,0 -4.40533,-3.63467 -7.55866,-6.43867 -3.15467,-2.804 5.664,1.84667 5.59466,-1.64133 -0.0693,-3.48934 1.912,-16.724 1.23334,-18.428 -0.67734,-1.70534 -9.92,-5.428 -19.444,-9.15067 -9.52534,-3.72267 -21.54,-15.12533 -22.58533,-20.88 -0.252,-1.38133 -0.30534,-2.78933 -0.50134,-4.17867 -0.0987,-0.70399 -0.27733,-1.37466 -0.42533,-2.06666 -0.11067,-0.51867 -0.0573,-1.196 -0.32667,-1.65733 -0.21733,-0.37067 -0.648,-0.58267 -0.94133,-0.924 -1.38533,1.18666 -2.224,2.70666 -3.528,3.98266 -1.568,1.53067 -2.748,3.46 -3.97333,5.21067 -0.616,0.88 -1.27734,2.26933 -2.16267,2.86 -1.80533,1.20133 -3.98667,1.85733 -5.992,2.65066 -2.21067,0.87334 -4.43467,1.71067 -6.66,2.54134 -4.452,1.66133 -8.916,3.29333 -13.29733,5.12933 -8.82267,3.69733 -17.416,7.98933 -25.83867,12.516 -2.93333,1.57733 -5.84667,3.18933 -8.74267,4.832 -11.628,6.592 -23.43733,12.82533 -34.703996,20.10267 -9.878666,6.38 -19.445332,13.26666 -28.421332,20.872 -8.946667,7.58133 -17.297333,15.88266 -24.709333,24.97866 -2.593333,3.18134 -5.090666,6.492 -6.812,10.21867 -1.986666,4.30533 -2.874666,9.02267 -3.716,13.68933 -4.445333,24.66 -8.067999,49.52267 -10.862666,74.424 -1.84,0.0133 -3.68,-0.0133 -5.52,0 3.74,-23.89733 7.482667,-47.82533 12.516,-71.484 1.645333,-7.732 3.453333,-15.50933 6.874666,-22.636 6.393333,-13.31733 17.92,-23.38933 29.658666,-32.35866 18.934666,-14.468 39.217333,-27.09867 60.017335,-38.72534 8.30133,-4.64 16.696,-9.12533 25.31866,-13.14266 8.78934,-4.09467 17.88534,-7.43467 26.92134,-10.93734 1.90133,-0.73733 3.804,-1.47466 5.70666,-2.212 2.51067,-0.97333 4.42667,-1.07466 6.49734,-2.79733 1.40533,-1.16933 3.17333,-3.528 4.19333,-5.03467 1.05867,-1.56266 2.18,-3.05066 3.28533,-4.58666 1.00267,-1.39333 2.14134,-4.02667 4.02134,-4.32667 0.612,-0.0973 1.69466,-0.06 2.14133,0.428 1.12667,1.23334 1.06,3.43067 1.29333,4.99067 0.30533,2.03867 0.83733,4.02666 1.69467,5.904 2.376,5.19866 6.784,9.22133 11.38,12.46133"
       style="fill:#000000;fill-opacity:1;fill-rule:nonzero;stroke:none;stroke-width:1.33333"
       id="path12527" />
    <path
       d="m 365.63772,324.8716 c -1.2,9.90533 -1.29066,57.82 -2.58,75.15067 h 5.57467 c 0.484,-9.21467 0.568,-29.24 0.172,-41.904 -0.308,-9.85334 -3.16667,-33.24667 -3.16667,-33.24667"
       style="fill:#000000;fill-opacity:1;fill-rule:nonzero;stroke:none;stroke-width:1.33333"
       id="path12531" />
    <path
       d="m 261.33853,320.48627 c 0,0 3.836,58.552 2.44133,79.536 h 3.836 c 0,0 -1.39467,-71.41333 -2.092,-80.88933 l -2.09333,1.35333 z"
       style="fill:#000000;fill-opacity:1;fill-rule:nonzero;stroke:none;stroke-width:1.33333"
       id="path12535" />
    <path
       d="m 265.74266,321.42587 v -3.68 h -3.608 v 3.68 h -2.00533 v 13.056 h 7.61866 v -13.056 z"
       style="fill:#dfdfdf;fill-opacity:1;fill-rule:nonzero;stroke:none;stroke-width:1.33333"
       id="path12539" />
    <path
       d="m 267.08159,333.8156 h -6.28533 v -11.72266 h 0.672 v 2.22266 c 0,0.31867 0.228,0.572 0.528,0.63867 -0.3,0.0653 -0.528,0.31867 -0.528,0.63867 v 6.56933 c 0,0.368 0.29867,0.66667 0.66667,0.66667 h 3.608 c 0.368,0 0.66666,-0.29867 0.66666,-0.66667 v -6.56933 c 0,-0.32 -0.22933,-0.57334 -0.528,-0.63867 0.29867,-0.0667 0.528,-0.32 0.528,-0.63867 v -2.22266 h 0.672 z m -4.28,-15.404 h 2.27467 v 5.236 h -2.27467 z m 2.27467,13.084 h -2.27467 v -5.236 h 2.27467 z m 2.672,-10.736 h -1.33867 v -3.01466 c 0,-0.368 -0.29866,-0.66667 -0.66666,-0.66667 h -3.608 c -0.368,0 -0.66667,0.29867 -0.66667,0.66667 v 3.01466 h -1.33867 c -0.36933,0 -0.66666,0.29734 -0.66666,0.66667 v 13.056 c 0,0.368 0.29733,0.66666 0.66666,0.66666 h 7.61867 c 0.368,0 0.66667,-0.29866 0.66667,-0.66666 v -13.056 c 0,-0.36933 -0.29867,-0.66667 -0.66667,-0.66667"
       style="fill:#000000;fill-opacity:1;fill-rule:nonzero;stroke:none;stroke-width:1.33333"
       id="path12543" />
    <path
       d="m 74.436131,332.03974 c -8.797333,0 -17.622666,-0.63467 -26.273332,-2.27867 -4.294667,-0.816 -8.546667,-1.88533 -12.693333,-3.27733 -2.041334,-0.68534 -4.057333,-1.448 -6.036,-2.29867 -0.982667,-0.42267 -1.954667,-0.86533 -2.916,-1.33067 -0.681333,-0.32933 -1.529333,-0.62266 -1.806667,-1.4 -0.09867,-0.27733 -0.076,-0.61466 -0.076,-0.90266 0,-0.71334 0.07067,-1.34267 0.245334,-2.008 0.296,-1.136 0.506666,-2.56934 1.014666,-3.58 0.8,-1.59067 2.252,-0.232 3.397334,0.34133 28.925332,14.46267 72.191997,7.51067 89.450667,3.84933 6.12,-1.29866 12.424,-1.868 18.63866,-2.50266 8.90934,-0.91067 17.836,-1.644 26.76534,-2.32667 8.80133,-0.672 17.60666,-1.28267 26.416,-1.85467 3.07733,-0.19866 6.15466,-0.39466 9.23333,-0.584 1.868,-0.11466 3.77733,0.15467 5.62266,-0.264 0.96134,-0.21733 1.532,-0.47333 1.704,-1.45733 0.27867,-1.58933 -0.0467,-3.53467 -0.0907,-5.14933 -0.168,-6.11867 -0.552,-12.23467 -1.22534,-18.31867 -1.008,-9.10133 -2.64933,-18.172 -5.37466,-26.924 -1.74533,-5.60533 -3.948,-11.08133 -6.78533,-16.22667 -1.35467,-2.45866 -2.87334,-4.812 -4.45867,-7.128 -0.27867,-0.408 -0.53067,-0.77733 -0.752,-1.10933 -1.268,-1.9 -2.90267,-3.58 -4.47067,-5.22933 -2.21733,-2.32934 -4.516,-4.58134 -6.836,-6.808 -2.092,-2.00667 -4.208,-3.988 -6.34133,-5.95067 -1.03467,-0.952 -2.03067,-1.94667 -3.076,-2.888 -0.50533,-0.456 -2.34667,-1.21867 -1.66267,-2.14 0.708,-0.952 2.40534,-1.16 3.45067,-1.504 0.924,-0.30267 1.56,-0.61067 2.372,-1.064 0.424,-0.23733 0.96267,-0.65067 1.47333,-0.572 0.91867,0.14133 1.41867,0.91867 2.02134,1.508 0.524,0.512 1.084,0.992 1.62266,1.48933 1.232,1.13734 2.45867,2.28134 3.67734,3.432 2.65066,2.50534 5.272,5.04267 7.81466,7.65867 2.32534,2.39333 4.75334,4.84133 6.61067,7.63067 0.20533,0.30666 0.43867,0.64933 0.69867,1.028 19.83599,28.97866 19.46666,68.48533 19.32799,83.35733 -0.009,0.95733 0.32534,2.644 -0.316,3.39467 -0.75866,0.88666 -2.476,0.50666 -3.45866,0.56133 -0.748,0.0427 -74.17467,4.20933 -90.94133,7.76667 -9.64667,2.04666 -27.072002,5.06 -45.966669,5.06"
       style="fill:#000000;fill-opacity:1;fill-rule:nonzero;stroke:none;stroke-width:1.33333"
       id="path12547" />
    <path
       d="m 74.436131,330.7064 c -9.527999,0 -18.041332,-0.73733 -26.023999,-2.25466 -4.42,-0.84 -8.630666,-1.928 -12.517333,-3.232 -2.042667,-0.68534 -4.04,-1.44534 -5.936,-2.26 -0.962666,-0.41467 -1.917333,-0.84934 -2.861333,-1.30534 l -0.296,-0.13866 c -0.292,-0.136 -0.782667,-0.36267 -0.836,-0.51067 -0.0013,-0.0267 0.0027,-0.45333 0.0027,-0.45333 0,-0.62267 0.06267,-1.13734 0.201333,-1.67067 0.088,-0.33467 0.168,-0.692 0.249333,-1.05733 0.181334,-0.812 0.368,-1.64934 0.650667,-2.22934 0.237333,0.0947 0.612,0.32 0.854667,0.46667 0.264,0.15867 0.525333,0.312 0.772,0.436 11.823999,5.912 27.177332,8.91067 45.631998,8.91067 18.584,0 35.977326,-3.10134 44.690666,-4.94934 5.496,-1.16533 11.248,-1.74666 16.81066,-2.30933 l 1.688,-0.17067 c 9.64934,-0.98666 19.35467,-1.76 26.73067,-2.324 8.224,-0.628 16.86,-1.23333 26.40133,-1.85333 3.07467,-0.2 6.152,-0.39467 9.22934,-0.584 0.37066,-0.0227 0.74399,-0.0293 1.11866,-0.0293 l 1.64133,0.0147 c 0.912,0 1.99067,-0.0333 3.07467,-0.27866 0.77067,-0.17467 2.37333,-0.53734 2.72267,-2.528 0.22266,-1.26667 0.11866,-2.61467 0.02,-3.91867 -0.04,-0.516 -0.0787,-1.02133 -0.092,-1.49733 -0.17867,-6.528 -0.58134,-12.556 -1.232,-18.42934 -1.128,-10.17866 -2.90267,-19.06666 -5.42667,-27.17466 -1.888,-6.06134 -4.20666,-11.60534 -6.89066,-16.47334 -1.208,-2.192 -2.64667,-4.49066 -4.52534,-7.23733 -0.276,-0.40267 -0.52533,-0.768 -0.744,-1.096 -1.256,-1.884 -2.82,-3.52533 -4.33333,-5.11333 l -0.28,-0.29467 c -2.45067,-2.57333 -4.964,-5.01333 -6.88,-6.85067 -1.98933,-1.90933 -4.07067,-3.86266 -6.36133,-5.97066 -0.45067,-0.41467 -0.89334,-0.83734 -1.33734,-1.26 -0.57733,-0.552 -1.15466,-1.10267 -1.748,-1.63734 -0.16,-0.144 -0.41333,-0.31733 -0.70266,-0.50266 -0.0787,-0.0507 -0.18134,-0.11734 -0.28667,-0.188 0.416,-0.18534 0.98,-0.332 1.404,-0.44267 0.32267,-0.084 0.628,-0.164 0.896,-0.252 1.036,-0.34 1.76533,-0.69867 2.60533,-1.16667 l 0.28667,-0.16933 c 0.14,-0.0853 0.37467,-0.22667 0.46667,-0.24933 0.11466,0.0373 0.356,0.288 0.73066,0.69333 0.14134,0.15333 0.28267,0.30667 0.42934,0.44933 0.35066,0.34134 0.716,0.67067 1.08133,1 l 0.56933,0.516 c 1.228,1.13334 2.45067,2.27334 3.66534,3.42134 3.08133,2.91066 5.552,5.332 7.77466,7.61866 l 0.348,0.35734 c 2.16934,2.23066 4.412,4.536 6.10934,7.08266 0.2,0.3 0.42666,0.63334 0.67866,1 19.628,28.67334 19.26133,67.87467 19.124,82.632 -0.003,0.26534 0.016,0.57734 0.0387,0.91067 0.0293,0.45333 0.092,1.39733 -0.0507,1.65333 0,-10e-4 0,-10e-4 0,-10e-4 -0.0107,0 -0.18133,0.11067 -0.86133,0.11067 -0.22534,0 -0.45334,-0.012 -0.66934,-0.0213 -0.236,-0.0107 -0.46266,-0.02 -0.668,-0.02 -0.10666,0 -0.20933,0.003 -0.30533,0.008 -3.02933,0.172 -74.388,4.23867 -91.144,7.79334 -8.856,1.87866 -26.570659,5.03066 -45.689326,5.03066"
       style="fill:#d30000;fill-opacity:1;fill-rule:nonzero;stroke:none;stroke-width:1.33333"
       id="path12551" />
    <path
       d="m 381.06692,324.69614 c -0.72133,-0.008 -1.444,-0.0293 -2.164,-0.0547 -2.03466,-0.0707 -4.06533,-0.232 -6.08666,-0.46667 -3.848,-0.44533 -7.67334,-1.14 -11.428,-2.09333 -1.72134,-0.43733 -3.43067,-0.93067 -5.10934,-1.51333 -2.35733,-0.82134 -4.84666,-1.26134 -7.31333,-1.60534 -10.45733,-1.45733 -21.028,-1.25733 -31.54666,-0.78133 -0.91067,0.0413 -1.82,0.0893 -2.73067,0.028 -0.75867,-0.0507 -1.60933,0.0787 -1.692,-0.832 -0.0933,-1.03733 -0.17867,-2.06133 -0.20533,-3.104 -0.53734,-21.46133 -8.164,-48.344 -10.732,-55.19333 -0.67467,-1.79734 -1.97734,-3.36934 -3.22667,-4.796 -1.71867,-1.95867 -3.616,-3.76267 -5.56267,-5.492 -1.104,-0.98134 -2.23066,-1.93734 -3.37466,-2.87334 -0.532,-0.43466 -1.19867,-0.83733 -1.664,-1.34133 -0.17734,-0.192 -0.276,-0.4 -0.47734,-0.57733 -0.25466,-0.22667 -0.54533,-0.37867 -0.708,-0.69467 -0.22133,-0.432 -0.35866,-1.11867 -0.45733,-1.59733 -0.11333,-0.55334 -0.24533,-1.064 -0.36133,-1.60534 -0.044,-0.19866 -0.128,-0.628 0.0627,-0.79466 0.32667,-0.28534 1.136,0.02 1.49734,0.0853 2.75333,0.49867 5.53066,1.21467 8.14,2.29333 2.56933,1.064 4.604,2.73734 6.51466,4.73334 0.524,0.548 1.036,1.108 1.54667,1.668 1.788,1.95333 3.49333,4.04933 4.744,6.39466 0.308,0.57867 0.58667,1.17467 0.81733,1.78934 2.26134,6.03066 3.87334,12.33733 5.37467,18.59066 2.09467,8.72134 3.8,17.55734 4.87867,26.464 0.184,1.52534 0.34933,3.05334 0.48933,4.584 0.0893,0.956 -0.26667,3.768 0.72533,4.092 0.51067,0.16667 1.42134,-0.04 1.96267,-0.052 0.74267,-0.0173 1.48533,-0.0307 2.228,-0.0413 3.58533,-0.0507 7.172,-0.0347 10.75733,0.076 7.308,0.22533 14.98533,0.552 22.02,2.724 0.308,0.096 0.616,0.196 0.92133,0.30267 3.77734,1.31333 7.7,2.20266 11.65067,2.80133 1.78,0.26933 3.57067,0.47733 5.36533,0.62 0.85467,0.068 1.712,0.12133 2.568,0.15867 0.808,0.0347 1.68,-0.0587 2.448,0.17733 0.34534,0.36 0.40534,0.72667 0.43867,1.25733 0.0507,0.816 0.296,1.62534 0.47067,2.42134 0.23733,0.95066 0.496,1.94666 0.62933,2.916 0.08,0.57066 0.012,1.332 -0.72667,1.33466 -0.228,10e-4 -0.456,0 -0.684,-0.003"
       style="fill:#000000;fill-opacity:1;fill-rule:nonzero;stroke:none;stroke-width:1.33333"
       id="path12555" />
    <path
       d="m 381.08199,323.36267 c -0.712,-0.007 -1.424,-0.028 -2.132,-0.0547 -1.90267,-0.064 -3.91467,-0.21866 -5.98133,-0.45733 -3.82267,-0.44267 -7.60934,-1.136 -11.252,-2.06133 -1.85734,-0.472 -3.49334,-0.956 -4.99867,-1.48134 -2.57867,-0.896 -5.27333,-1.34533 -7.568,-1.66533 -5.52667,-0.77067 -11.56,-1.14533 -18.44533,-1.14533 -4.90933,0 -9.71067,0.188 -13.34533,0.352 l -0.15867,0.008 c -0.52533,0.024 -1.052,0.048 -1.57867,0.048 -0.28133,0 -0.564,-0.008 -0.84533,-0.0253 -0.12667,-0.009 -0.45067,-0.02 -0.488,-0.0213 -0.0747,-0.852 -0.14267,-1.74133 -0.16533,-2.61733 -0.54134,-21.63334 -8.228,-48.72667 -10.816,-55.62934 -0.75467,-2.00933 -2.12934,-3.67333 -3.47334,-5.20533 -1.52666,-1.74133 -3.33066,-3.524 -5.67866,-5.61067 -1.07734,-0.95733 -2.22667,-1.93466 -3.416,-2.908 -0.20134,-0.16533 -0.42134,-0.328 -0.644,-0.49066 -0.344,-0.252 -0.668,-0.48934 -0.884,-0.724 -0.0387,-0.0413 -0.0667,-0.0853 -0.0973,-0.12667 -0.10533,-0.14533 -0.25066,-0.34533 -0.476,-0.54533 -0.092,-0.0813 -0.18933,-0.15734 -0.28533,-0.232 -0.0547,-0.0427 -0.112,-0.08 -0.15867,-0.12934 -0.0973,-0.20533 -0.22533,-0.83733 -0.29466,-1.17733 -0.052,-0.256 -0.10534,-0.49067 -0.15867,-0.72133 2.92933,0.54 5.44267,1.25333 7.676,2.17733 2.096,0.868 3.96533,2.232 6.06133,4.424 0.51734,0.54 1.02134,1.092 1.52667,1.64533 2.13333,2.33334 3.53733,4.22134 4.55067,6.12267 0.30533,0.572 0.54933,1.10533 0.74533,1.62933 2.31067,6.164 3.96133,12.748 5.32667,18.43467 2.26133,9.416 3.848,18.024 4.852,26.31333 0.18266,1.51334 0.34533,3.028 0.48666,4.54534 0.0173,0.196 0.009,0.48533 0.005,0.81466 -0.0227,1.63467 -0.0533,3.872 1.632,4.42267 0.26933,0.088 0.57333,0.13067 0.92933,0.13067 0.316,0 0.66667,-0.0373 0.99333,-0.0733 0.17867,-0.02 0.34667,-0.0413 0.484,-0.0453 0.73867,-0.0147 1.47867,-0.0293 2.21867,-0.04 1.25333,-0.0187 2.508,-0.0267 3.76267,-0.0267 2.36933,0 4.70266,0.0347 6.93199,0.10267 7.92267,0.24267 15.02134,0.612 21.668,2.66533 0.296,0.0907 0.588,0.18667 0.87867,0.28667 3.632,1.264 7.52133,2.2 11.888,2.86133 1.816,0.27467 3.65333,0.48667 5.46,0.63067 0.87067,0.0693 1.74267,0.124 2.616,0.16133 0.2,0.009 0.40267,0.0107 0.608,0.0107 h 0.27867 c 0.24933,0 0.492,0.003 0.71466,0.02 0.004,0.044 0.008,0.096 0.012,0.156 0.044,0.72267 0.20534,1.39067 0.36134,2.036 l 0.196,0.82533 c 0.2,0.79467 0.40533,1.61334 0.52533,2.39067 z"
       style="fill:#d30000;fill-opacity:1;fill-rule:nonzero;stroke:none;stroke-width:1.33333"
       id="path12559" />
    <path
       d="m 260.42306,250.61454 c 0,2.528 -2.04933,4.57733 -4.57733,4.57733 -2.528,0 -4.57734,-2.04933 -4.57734,-4.57733 0,-2.528 2.04934,-4.57734 4.57734,-4.57734 2.528,0 4.57733,2.04934 4.57733,4.57734"
       style="fill:#000000;fill-opacity:1;fill-rule:nonzero;stroke:none;stroke-width:1.33333"
       id="path12563" />
    <path
       d="m 258.69799,250.61454 c 0,1.57466 -1.27733,2.852 -2.852,2.852 -1.576,0 -2.852,-1.27734 -2.852,-2.852 0,-1.57467 1.276,-2.852 2.852,-2.852 1.57467,0 2.852,1.27733 2.852,2.852"
       style="fill:#382e53;fill-opacity:1;fill-rule:nonzero;stroke:none;stroke-width:1.33333"
       id="path12567" />
    <path
       d="m 262.86439,286.3612 c 0,2.528 -2.04933,4.57734 -4.57733,4.57734 -2.528,0 -4.57733,-2.04934 -4.57733,-4.57734 0,-2.528 2.04933,-4.57733 4.57733,-4.57733 2.528,0 4.57733,2.04933 4.57733,4.57733"
       style="fill:#000000;fill-opacity:1;fill-rule:nonzero;stroke:none;stroke-width:1.33333"
       id="path12571" />
    <path
       d="m 261.13919,286.3612 c 0,1.57467 -1.27733,2.852 -2.852,2.852 -1.576,0 -2.852,-1.27733 -2.852,-2.852 0,-1.57466 1.276,-2.852 2.852,-2.852 1.57467,0 2.852,1.27734 2.852,2.852"
       style="fill:#382e53;fill-opacity:1;fill-rule:nonzero;stroke:none;stroke-width:1.33333"
       id="path12575" />
    <path
       d="m 136.8356,346.08427 c 0,0 40.45466,-8.02134 70.09866,-8.02134 l -0.34933,5.58 c 0,0 -25.45867,0 -69.74933,7.324 z"
       style="fill:#000000;fill-opacity:1;fill-rule:nonzero;stroke:none;stroke-width:1.33333"
       id="path12579" />
    <path
       d="m 204.33786,343.3644 -10.75466,0.20267 -0.096,-5.05067 10.75599,-0.20267 z"
       style="fill:#dfdfdf;fill-opacity:1;fill-rule:nonzero;stroke:none;stroke-width:1.33333"
       id="path12583" />
    <path
       d="m 203.10639,339.16133 -8.45199,0.15867 0.064,3.39867 8.45199,-0.15867 z m 1.736,4.70267 -11.74533,0.22133 -0.11466,-6.068 11.74666,-0.22133 z"
       style="fill:#000000;fill-opacity:1;fill-rule:nonzero;stroke:none;stroke-width:1.33333"
       id="path12587" />
    <path
       d="m 331.69839,400.02293 c 0,0 -0.52266,-54.46133 -1.308,-64.14 l 4.44667,-0.26133 c 0,0 1.83066,39.02933 1.56933,64.40133 z"
       style="fill:#000000;fill-opacity:1;fill-rule:nonzero;stroke:none;stroke-width:1.33333"
       id="path12591" />
    <path
       d="m 330.40773,347.4116 -0.20267,-10.75467 5.05066,-0.096 0.20267,10.756 z"
       style="fill:#dfdfdf;fill-opacity:1;fill-rule:nonzero;stroke:none;stroke-width:1.33333"
       id="path12595" />
    <path
       d="m 334.61079,346.18027 -0.15867,-8.452 -3.39866,0.064 0.15867,8.452 z m -4.70266,1.736 -0.22134,-11.74534 6.068,-0.11466 0.22133,11.74666 z"
       style="fill:#000000;fill-opacity:1;fill-rule:nonzero;stroke:none;stroke-width:1.33333"
       id="path12599" />
    <path
       d="m 25.249999,328.81574 c -4.909333,23.07466 -8.649333,48.12399 -12.262666,71.20666 h 49.182665 c -0.28,-4.46267 -1.922666,-9.072 -3.723999,-12.43733 -2.470667,-4.61467 -8.250667,-13.62667 -3.362667,-18.26667 3.08,-2.92267 6.52,-2.60933 9.890666,-3.80133 3.737334,-1.32134 3.468,-5.62934 2.130667,-8.97867 -1.096,-2.74133 -3.441333,-5.50267 -5.289333,-8.14533 -1.845333,-2.63734 -2.708,-5.87734 -3.08,-9.03867 -0.206667,-1.76667 -0.256,-3.54933 -0.178667,-5.32533 0.03467,-0.78133 0.08267,-1.56933 0.142667,-2.348 0.068,-0.87867 -0.08533,-0.90667 -0.694667,-1.56267 -0.952,-1.02266 -0.161333,-2.62133 0.250667,-3.81066 0.241333,-0.69734 0.408,-0.98134 0.964,-1.54134 0.441333,-0.44533 1,-0.912 1.404,-1.356 0.377333,-0.41733 0.552,-1.14666 0.806666,-1.66266 3.898667,-7.89467 10.765334,-13.23067 17.606667,-18.416 8.617333,-6.532 17.669333,-12.49867 26.775995,-18.31867 10.61867,-6.78533 21.40134,-13.31467 32.28134,-19.67067 9.68533,-5.65866 18.62266,-13.53733 28.69733,-18.43066 0.41067,-0.19867 0.82533,-0.388 1.244,-0.56934 4.70533,-2.04266 9.65467,-3.42666 14.524,-5.008 2.29467,-0.74533 5.396,-1.29333 7.404,-2.66 1.52933,-1.04133 2.05467,-2.888 4.06667,-3.41466 2.54266,-0.66534 2.38666,0.44533 4.53466,1.46266 3.77067,1.78534 7.96267,2.73734 11.35333,5.256 4.452,3.30934 8.60134,7.14134 13.40667,9.944 4.18533,2.44134 8.71867,0.69734 8.71867,0.69734 l -1.04534,-1.04667 c -5.46,-2.13467 -0.77066,-10.71867 -1.396,-14.64667 -0.70133,-4.408 -8.34666,-5.22533 -12.02266,-7.664 -7.612,-5.04933 -16.17867,-8.84266 -20.06,-17.44666 -2.012,-4.45867 -2.42133,-9.60534 -4.74133,-13.932 l -0.30667,0.42267 c -0.75733,1.03733 -1.51067,2.06799 -2.23333,3.13599 -0.588,0.868 -2.64267,3.812 -4.44534,5.312 -1.64666,1.36934 -3.18266,1.836 -4.80933,2.33067 -0.64667,0.196 -1.32667,0.40133 -2.05867,0.684 l -5.70666,2.21333 c -1.584,0.61334 -3.172,1.22267 -4.75867,1.83334 -7.31333,2.808 -14.87467,5.712 -22.08133,9.06933 -7.46534,3.47733 -15.24667,7.51733 -25.232,13.09733 -23.340002,13.04667 -42.920002,25.68 -59.857335,38.62134 -11.453333,8.75066 -22.926666,18.66933 -29.266666,31.876 -3.349333,6.97466 -5.114666,14.54533 -6.772,22.336"
       style="opacity:0.199997;fill:#000000;fill-opacity:1;fill-rule:nonzero;stroke:none;stroke-width:1.33333"
       id="path12609" />
    <path
       d="m 374.75826,357.97307 c 1.04266,14.21066 6.23066,25.77733 12.23333,28.37466 -0.36533,-8.97066 -0.92533,-18.82133 -1.684,-29.14933 -0.75733,-10.32667 -1.64133,-20.15467 -2.59067,-29.08266 -5.55866,3.44666 -9.00133,15.64666 -7.95866,29.85733"
       style="fill:#cfc6c1;fill-opacity:1;fill-rule:nonzero;stroke:none;stroke-width:1.33333"
       id="path12619" />
    <path
       d="m 376.16546,355.114 -0.012,-1.54533 -0.49067,-0.132 0.0133,1.72666 -0.384,-0.104 -0.0213,-2.67866 2.06933,0.55466 0.02,2.592 -0.384,-0.10266 -0.012,-1.63867 -0.42933,-0.116 0.0107,1.54667 z"
       style="fill:#000000;fill-opacity:1;fill-rule:nonzero;stroke:none;stroke-width:1.33333"
       id="path12623" />
    <path
       d="m 375.33266,356.31173 2.04,-0.17466 0.0853,1.116 -0.68133,0.94266 c -0.196,0.26934 -0.43067,0.54134 -0.64667,0.74934 l 0.001,0.0187 c 0.264,-0.0853 0.53867,-0.128 0.844,-0.15466 l 0.596,-0.0507 0.0667,0.87733 -2.04,0.176 -0.076,-1.004 0.71867,-0.97066 c 0.19866,-0.26934 0.44133,-0.568 0.664,-0.79467 l -0.004,-0.0187 c -0.268,0.048 -0.55334,0.0853 -0.88667,0.11334 l -0.61467,0.052 z"
       style="fill:#000000;fill-opacity:1;fill-rule:nonzero;stroke:none;stroke-width:1.33333"
       id="path12627" />
    <path
       d="m 377.47292,361.29453 -0.16266,-1.11333 0.372,-0.17333 0.46533,3.18666 -0.372,0.17334 -0.16533,-1.132 -1.58534,0.74 -0.13733,-0.94134 z"
       style="fill:#000000;fill-opacity:1;fill-rule:nonzero;stroke:none;stroke-width:1.33333"
       id="path12631" />
    <path
       d="m 377.67132,366.8728 -0.31066,-1.468 -0.43734,0.368 0.34667,1.64 -0.34133,0.28667 -0.54,-2.544 1.844,-1.54934 0.52133,2.46134 -0.34133,0.28666 -0.33067,-1.556 -0.38267,0.32267 0.31067,1.46667 z"
       style="fill:#000000;fill-opacity:1;fill-rule:nonzero;stroke:none;stroke-width:1.33333"
       id="path12635" />
    <path
       d="m 378.39159,368.47267 0.096,0.33333 c 0.12133,0.42267 0.288,0.55067 0.436,0.36133 0.15467,-0.2 0.16533,-0.53333 0.056,-0.92533 -0.0587,-0.20533 -0.1,-0.31333 -0.12267,-0.368 z m 0.48533,-1.77334 c 0.0987,0.24667 0.22934,0.63334 0.35867,1.084 0.16,0.55734 0.23467,0.99467 0.216,1.384 -0.0173,0.32534 -0.1,0.59867 -0.25467,0.79867 -0.21466,0.276 -0.46,0.12667 -0.60533,-0.128 l -0.008,0.009 c 0.028,0.32267 -0.044,0.612 -0.172,0.90534 -0.156,0.36133 -0.34267,0.76133 -0.388,0.91733 l -0.248,-0.86667 c 0.0293,-0.12266 0.14133,-0.38933 0.31733,-0.768 0.18134,-0.36933 0.19334,-0.60533 0.0973,-0.95333 l -0.0733,-0.256 -0.664,0.85333 -0.24133,-0.84 z"
       style="fill:#000000;fill-opacity:1;fill-rule:nonzero;stroke:none;stroke-width:1.33333"
       id="path12639" />
    <path
       d="m 379.43319,371.9048 c 0.0187,0.0787 0.0467,0.164 0.0893,0.27467 0.15467,0.41066 0.34134,0.496 0.49334,0.21333 0.13733,-0.25467 0.13733,-0.62533 -0.008,-1.01067 -0.0587,-0.156 -0.10534,-0.25066 -0.13334,-0.29466 z m 0.38933,-2.02267 c 0.108,0.20667 0.24667,0.516 0.42534,0.988 0.18,0.476 0.268,0.88934 0.27466,1.26667 0.007,0.35733 -0.0627,0.73467 -0.208,1.00533 -0.14666,0.27067 -0.31333,0.38934 -0.47333,0.34267 -0.208,-0.0627 -0.404,-0.36267 -0.57733,-0.82 -0.0373,-0.10133 -0.0693,-0.196 -0.092,-0.276 l -0.53467,0.98933 -0.288,-0.76533 z"
       style="fill:#000000;fill-opacity:1;fill-rule:nonzero;stroke:none;stroke-width:1.33333"
       id="path12643" />
    <path
       d="m 380.70906,374.818 0.132,0.268 c 0.16533,0.33867 0.336,0.35333 0.44666,0.0653 0.116,-0.304 0.0813,-0.64266 -0.0693,-0.96 -0.0813,-0.16533 -0.13333,-0.244 -0.16133,-0.28266 z m 0.212,-2.09067 c 0.12266,0.17867 0.29466,0.47467 0.472,0.836 0.21866,0.44534 0.344,0.83067 0.37733,1.23067 0.028,0.33467 -0.012,0.66267 -0.128,0.96667 -0.16133,0.42 -0.40533,0.43733 -0.572,0.28133 l -0.005,0.0147 c 0.068,0.30133 0.04,0.63733 -0.0387,1.01733 -0.0973,0.46533 -0.216,0.98933 -0.236,1.17333 l -0.34133,-0.69466 c 0.0107,-0.14267 0.0787,-0.48267 0.19066,-0.97734 0.11867,-0.49066 0.0973,-0.73333 -0.036,-1.01466 l -0.10133,-0.20534 -0.496,1.296 -0.33067,-0.672 z"
       style="fill:#000000;fill-opacity:1;fill-rule:nonzero;stroke:none;stroke-width:1.33333"
       id="path12647" />
    <path
       d="m 382.62346,375.84773 -1.06667,3.66134 -0.36267,-0.60134 1.06667,-3.66133 z"
       style="fill:#000000;fill-opacity:1;fill-rule:nonzero;stroke:none;stroke-width:1.33333"
       id="path12651" />
    <path
       d="m 382.29786,379.43867 c 0.076,0.26133 0.20666,0.59733 0.37066,0.816 0.176,0.236 0.30534,0.18933 0.36267,-0.0693 0.0533,-0.24666 0.004,-0.496 -0.16267,-0.93866 -0.23066,-0.60667 -0.33466,-1.21734 -0.20933,-1.79467 0.14667,-0.676 0.50133,-0.87067 0.9,-0.336 0.19067,0.256 0.31067,0.53867 0.388,0.78 l -0.24267,0.60933 c -0.0507,-0.168 -0.14666,-0.44133 -0.31333,-0.66266 -0.16533,-0.22267 -0.284,-0.15467 -0.32933,0.052 -0.0547,0.25333 0.016,0.492 0.192,0.98 0.24266,0.65866 0.304,1.212 0.18266,1.772 -0.14533,0.664 -0.48666,0.936 -0.95066,0.31333 -0.19334,-0.25867 -0.35867,-0.632 -0.428,-0.884 z"
       style="fill:#000000;fill-opacity:1;fill-rule:nonzero;stroke:none;stroke-width:1.33333"
       id="path12655" />
    <path
       d="m 384.99692,381.61667 -0.656,-0.64534 -0.14133,1.016 0.73333,0.72 -0.11066,0.792 -1.13734,-1.11733 0.59334,-4.276 1.10133,1.08133 -0.11067,0.79334 -0.696,-0.684 -0.12266,0.888 0.656,0.64533 z"
       style="fill:#000000;fill-opacity:1;fill-rule:nonzero;stroke:none;stroke-width:1.33333"
       id="path12659" />
    <path
       d="m 377.71586,357.75587 c 0.77733,10.59066 4.536,19.28 8.964,21.676 -0.34667,-7.03067 -0.804,-14.49867 -1.372,-22.23334 -0.568,-7.73466 -1.20667,-15.18933 -1.88934,-22.196 -4.03066,3.01867 -6.48,12.16267 -5.70266,22.75334"
       style="fill:#000086;fill-opacity:1;fill-rule:nonzero;stroke:none;stroke-width:1.33333"
       id="path12663" />
    <path
       d="m 386.96332,385.67427 c -5.84933,-2.57734 -10.89866,-13.864 -11.916,-27.72267 -1.01733,-13.85733 2.33067,-25.76133 7.74,-29.16533 -0.0533,-0.51067 -0.108,-1.01733 -0.16266,-1.52267 -5.74534,3.50134 -9.31067,16.08 -8.23467,30.736 1.076,14.65733 6.44,26.58 12.636,29.204 -0.0213,-0.50667 -0.0413,-1.016 -0.0627,-1.52933"
       style="fill:#d30000;fill-opacity:1;fill-rule:nonzero;stroke:none;stroke-width:1.33333"
       id="path12667" />
    <path
       d="m 382.33919,328.00747 c -5.61333,3.78 -8.932,16.33333 -7.91733,30.15733 1.01466,13.82267 6.13066,25.75733 12.23733,28.67733 l -0.0307,-0.72133 h 0.007 c -0.0947,-0.776 -0.18933,-2.47333 -0.4,-6.29733 l 0.304,0.007 -0.304,-0.007 c -0.17333,-3.136 -0.37867,-6.984 -0.56267,-10.436 -0.23333,-4.38134 -0.43466,-8.16534 -0.48933,-8.948 -0.38533,-5.48267 -0.82267,-11.03734 -1.30267,-16.50934 -0.50133,-5.704 -0.96133,-10.83466 -1.53466,-15.85866 z m 4.93733,60.49733 c -0.14666,0.048 -0.30133,0.072 -0.456,0.072 -0.99333,-10e-4 -2.11066,-1.17733 -2.80133,-1.808 -0.86533,-0.79333 -1.64933,-1.67333 -2.36667,-2.60133 -1.65333,-2.13867 -2.964,-4.53334 -4.05066,-7.004 -2.63467,-5.996 -4.03334,-12.53734 -4.592,-19.044 -0.20134,-2.344 -0.288,-4.69734 -0.24667,-7.05067 0.104,-6.004 0.944,-12.22933 3.408,-17.756 0.94667,-2.12666 2.16667,-4.17866 3.81333,-5.84133 0.53734,-0.54267 1.64267,-1.84667 2.484,-1.58267 0.90667,0.28534 1.092,1.66267 1.19467,2.45467 0.204,1.60267 0.39733,3.20667 0.58133,4.812 0.38934,3.39466 0.74,6.79333 1.08934,10.192 0.584,5.69066 1.11733,11.46533 1.58533,17.16666 0.0693,0.84 0.31333,4.77334 0.59733,9.328 0.22267,3.57467 0.47067,7.56134 0.68134,10.80934 0.0907,1.40266 0.18266,2.804 0.28133,4.20666 0.0773,1.116 0.10533,1.848 -0.52,2.864 -0.196,0.32 -0.48533,0.48267 -0.68267,0.78267"
       style="fill:#000000;fill-opacity:1;fill-rule:nonzero;stroke:none;stroke-width:1.33333"
       id="path12671" />
    <path
       d="m 383.89039,371.4072 c 0.0413,0.56 -0.12267,1.028 -0.36667,1.04533 -0.24266,0.0187 -0.47333,-0.42133 -0.51466,-0.98 -0.0413,-0.56 0.12266,-1.028 0.36666,-1.04666 0.24267,-0.0173 0.47334,0.42133 0.51467,0.98133"
       style="fill:#ffffff;fill-opacity:1;fill-rule:nonzero;stroke:none;stroke-width:1.33333"
       id="path12675" />
    <path
       d="m 380.81759,364.24547 c 0.0413,0.56 -0.12267,1.028 -0.36667,1.04533 -0.24266,0.0187 -0.47333,-0.42133 -0.51466,-0.98 -0.0413,-0.56 0.12266,-1.028 0.36666,-1.04667 0.24267,-0.0173 0.47334,0.42134 0.51467,0.98134"
       style="fill:#ffffff;fill-opacity:1;fill-rule:nonzero;stroke:none;stroke-width:1.33333"
       id="path12679" />
    <path
       d="m 379.78186,356.16987 c 0.0413,0.56 -0.12267,1.028 -0.36667,1.04533 -0.24267,0.0187 -0.47333,-0.42133 -0.51467,-0.98 -0.0413,-0.56 0.12267,-1.028 0.36667,-1.04667 0.24267,-0.0173 0.47333,0.42134 0.51467,0.98134"
       style="fill:#ffffff;fill-opacity:1;fill-rule:nonzero;stroke:none;stroke-width:1.33333"
       id="path12683" />
    <path
       d="m 381.13292,357.9812 c 0.0413,0.56 -0.12266,1.028 -0.36666,1.04533 -0.24267,0.0187 -0.47334,-0.42133 -0.51467,-0.98 -0.0413,-0.56 0.12267,-1.028 0.36667,-1.04666 0.24266,-0.0173 0.47333,0.42133 0.51466,0.98133"
       style="fill:#ffffff;fill-opacity:1;fill-rule:nonzero;stroke:none;stroke-width:1.33333"
       id="path12687" />
    <path
       d="m 383.52332,352.07413 c 0.0413,0.56 -0.12266,1.028 -0.36666,1.04534 -0.24267,0.0187 -0.47334,-0.42134 -0.51467,-0.98 -0.0413,-0.56 0.12267,-1.028 0.36667,-1.04667 0.24266,-0.0173 0.47333,0.42133 0.51466,0.98133"
       style="fill:#ffffff;fill-opacity:1;fill-rule:nonzero;stroke:none;stroke-width:1.33333"
       id="path12691" />
    <path
       d="m 380.28812,347.98107 c 0.0413,0.56 -0.12266,1.028 -0.36666,1.04533 -0.24267,0.0187 -0.47334,-0.42133 -0.51467,-0.98 -0.0413,-0.56 0.12267,-1.028 0.36667,-1.04667 0.24266,-0.0173 0.47333,0.42134 0.51466,0.98134"
       style="fill:#ffffff;fill-opacity:1;fill-rule:nonzero;stroke:none;stroke-width:1.33333"
       id="path12695" />
    <path
       d="m 376.74012,343.8936 0.27867,1.76133 0.77067,0.67067 -0.62267,0.92267 0.0547,1.80133 -0.66267,-1.192 -0.73867,0.44267 0.21334,-1.65867 -0.51067,-1.528 0.79467,0.16667 z"
       style="fill:#ffffff;fill-opacity:1;fill-rule:nonzero;stroke:none;stroke-width:1.33333"
       id="path12699" />
    <path
       d="m 378.07452,338.65787 0.0893,1.80533 0.70266,1.056 -0.724,0.52 -0.13866,1.71867 -0.53734,-1.484 -0.788,0.007 0.392,-1.43733 -0.348,-1.71467 0.77867,0.596 z"
       style="fill:#ffffff;fill-opacity:1;fill-rule:nonzero;stroke:none;stroke-width:1.33333"
       id="path12703" />
    <path
       d="m 379.97559,334.48693 -0.104,1.74134 0.592,1.37866 -0.78267,0.0867 -0.324,1.53467 -0.38,-1.688 -0.79066,-0.42934 0.54666,-1.13066 -0.164,-1.8 0.71734,0.98933 z"
       style="fill:#ffffff;fill-opacity:1;fill-rule:nonzero;stroke:none;stroke-width:1.33333"
       id="path12707" />
    <path
       d="m 382.33079,331.62787 -0.29067,1.576 0.44534,1.61866 -0.79467,-0.35066 -0.48933,1.26 -0.2,-1.79334 -0.748,-0.83999 0.67066,-0.75734 0.028,-1.77866 0.61334,1.324 z"
       style="fill:#ffffff;fill-opacity:1;fill-rule:nonzero;stroke:none;stroke-width:1.33333"
       id="path12711" />
  </g>
</svg>
