<?xml version="1.0" encoding="UTF-8" standalone="no"?>
<!-- Created with Inkscape (http://www.inkscape.org/) -->

<svg
   version="1.1"
   id="svg171226"
   width="400"
   height="400"
   viewBox="0 0 400 400"
   sodipodi:docname="davidMarcusTShirt.svg"
   inkscape:version="1.3.2 (091e20e, 2023-11-25)"
   xml:space="preserve"
   xmlns:inkscape="http://www.inkscape.org/namespaces/inkscape"
   xmlns:sodipodi="http://sodipodi.sourceforge.net/DTD/sodipodi-0.dtd"
   xmlns="http://www.w3.org/2000/svg"
   xmlns:svg="http://www.w3.org/2000/svg"><defs
     id="defs171230" /><sodipodi:namedview
     id="namedview171228"
     pagecolor="#ffffff"
     bordercolor="#666666"
     borderopacity="1.0"
     inkscape:showpageshadow="2"
     inkscape:pageopacity="0.0"
     inkscape:pagecheckerboard="0"
     inkscape:deskcolor="#d1d1d1"
     showgrid="false"
     inkscape:zoom="2.3825"
     inkscape:cx="199.79014"
     inkscape:cy="200"
     inkscape:window-width="2160"
     inkscape:window-height="1166"
     inkscape:window-x="1920"
     inkscape:window-y="25"
     inkscape:window-maximized="0"
     inkscape:current-layer="g171234"><inkscape:page
       x="0"
       y="0"
       id="page171232"
       width="400"
       height="400"
       margin="0"
       bleed="0" /></sodipodi:namedview><g
     inkscape:groupmode="layer"
     id="layer1"
     inkscape:label="Neck"
     style="display:none"
     sodipodi:insensitive="true"><path
       d="m 213.63253,151.29441 -13.54934,47.14666 c 0,0 12.42667,24.85333 21.464,31.49067 9.03734,6.636 27.26177,81.92378 38.13511,83.33578 l 3.67066,3.67066 2.82534,-2.824 4.63122,-4.79916 5.42363,-65.08347 -1.25704,-9.598 15.55375,-22.84715 z"
       style="display:inline;fill:#cd976d;fill-opacity:1;fill-rule:nonzero;stroke:none;stroke-width:1.33333"
       id="path171974"
       sodipodi:nodetypes="ccccccccccc" /><path
       d="m 200.08306,198.44081 c 0,0 12.86667,21.57066 17.836,27.06399 4.96933,5.49334 32.696,1.83067 40.54267,4.18534 6.33866,1.90133 13.09866,2.66533 15.47066,2.89066 l 16.59734,-20.79333 -76.89734,-60.49333 z"
       style="display:inline;opacity:0.199997;fill:#000000;fill-opacity:1;fill-rule:nonzero;stroke:none;stroke-width:1.33333"
       id="path171984" /><path
       d="m 211.64493,149.52841 c -1.01067,4.99733 -6.2,23.82533 -7.36934,28.788 -0.956,4.064 -1.95733,8.11866 -3.072,12.14266 -0.516,1.85867 -1.07466,3.70267 -1.63333,5.54934 -0.18666,0.616 -0.95466,1.86266 -0.88133,2.47466 0.02,0.16934 0.80667,2.38267 1.11067,1.93733 3.68799,-5.38666 5.03733,-14.18666 7.12666,-20.38133 1.49067,-4.41866 7.06133,-22.68666 8.552,-27.104 0,0 -3.83333,-3.40666 -3.83333,-3.40666"
       style="display:inline;fill:#000000;fill-opacity:1;fill-rule:nonzero;stroke:none;stroke-width:1.33333"
       id="path171994" /><path
       d="m 293.27599,213.31907 c -2.83733,2.044 -16.28266,19.912 -18.592,22.53067 -1.87866,2.13066 -4.41733,10.85066 -7.52933,10.948 -2.104,0.0653 -1.74133,-3.72534 -1.19333,-5.332 0.26266,-0.76934 21.288,-30.90934 21.288,-30.90934 0,0 6.02666,2.76267 6.02666,2.76267"
       style="display:inline;fill:#000000;fill-opacity:1;fill-rule:nonzero;stroke:none;stroke-width:1.33333"
       id="path171998" /></g><g
     id="g171234"
     inkscape:groupmode="layer"
     inkscape:label="Page 1"
     style="display:inline"><path
       id="path171958"
       style="fill:#f0f0f0;fill-opacity:1;fill-rule:nonzero;stroke:none;stroke-width:1.33333"
       d="m 182.28564,204.26587 -7.15683,4.86267 -41.15368,19.71697 -39.066927,21.83027 -11.855469,6.04297 -6.742187,6.27734 -9.458985,6.82422 C 55.01682,282.27117 47.655526,295.12419 41.880859,310.73242 l -14.762598,72.19341 c 0,0 -5.336126,0.55707 -5.911338,4.99899 -0.772721,5.96712 4.786501,8.20805 4.786501,8.20805 L 21.46679,400 l 364.22266,-0.0332 -1.8789,-57.4336 c -1.52533,-11.00264 -7.68024,-42.49578 -10.00957,-50.06775 -2.78933,-9.0653 -6.62955,-13.82923 -14.78285,-18.71054 -8.15467,-4.88133 -31.41558,-19.12818 -41.87555,-21.45218 -10.46131,-2.32531 -25.72141,-11.9757 -36.03006,-17.08052 -0.41414,-0.26595 -2.33345,7.62585 -5.17749,11.29369 -3.34988,4.32021 -10.19218,9.4218 -17.48983,9.50769 -9.27741,0.1092 -13.04301,-0.44395 -15.50715,-1.07564 -6.46745,-1.65796 -13.68612,-4.41202 -21.67748,-8.1688 -2.93873,-1.38151 -10.45017,-5.85181 -14.91501,-9.11488 -5.19823,-3.79908 -9.58628,-9.17007 -14.1779,-14.31589 -4.74053,-5.31273 -8.47589,-15.78383 -9.88202,-19.08251 z"
       sodipodi:nodetypes="cccccccccsccccccccssssssc" /><path
       id="path13"
       style="fill:#888272;fill-opacity:1;stroke:none;stroke-width:1px;stroke-linecap:butt;stroke-linejoin:miter;stroke-opacity:1"
       d="m 281.17383,233.98242 -2.73242,8.95313 -5.31055,9.10351 -5.31055,2.88282 -0.0332,0.29296 -6.32813,1.88477 c 0,0 -28.01437,53.06633 -41.9746,76.80664 C 205.67868,357.38375 179.32512,400 178.56641,400 h 14.99609 c 0,0 25.95297,-42.09194 38.62695,-65.23633 11.66436,-21.30066 30.34676,-55.25393 37.85157,-68.89648 l 5.0625,-1.6875 4.09375,-3.47657 c -1.92205,4.36667 -3.81777,8.59424 -5.37696,11.82813 -12.36792,25.65212 -25.93052,50.72869 -39.91406,75.53711 -9.90967,17.58091 -31.15039,51.91601 -31.15039,51.91602 L 364.90547,400 l 0.49083,-1.73977 20.15689,-2.45861 4.12367,-4.72295 -2.5514,-5.66666 2.75074,-3.64688 -1.36696,-5.84136 -3.63602,-0.90729 -1.06267,-32.4833 c -1.52533,-11.00262 -7.68044,-42.49639 -10.00977,-50.06836 -2.78933,-9.06528 -7.52012,-12.78921 -15.67358,-17.67021 -8.15447,-4.88162 -30.68663,-16.40602 -41.28141,-21.60152 -13.54614,-6.6428 -25.20626,-12.6879 -35.67196,-19.21067 z"
       sodipodi:nodetypes="ccccccsscscccsscccccccccccssc" /><path
       style="fill:#888272;fill-opacity:1;stroke:none;stroke-width:1px;stroke-linecap:butt;stroke-linejoin:miter;stroke-opacity:1"
       d="m 33.583691,337.55365 -4.935622,28.43347 42.060086,7.72533 5.364806,-26.60945 z"
       id="path12" /><path
       style="fill:#cd976d;fill-opacity:1;stroke:none;stroke-width:1px;stroke-linecap:butt;stroke-linejoin:miter;stroke-opacity:1"
       d="m 365.6873,400 -0.31479,-1.88877 12.38195,-0.83946 7.03043,-1.57397 V 400 Z"
       id="path27"
       sodipodi:nodetypes="cccccc" /><path
       id="path172010"
       style="fill:#000000;fill-opacity:1;fill-rule:nonzero;stroke:none;stroke-width:1.33333"
       d="m 382.80288,396.53738 c -0.0124,1.14319 -0.0249,2.28634 -0.0373,3.42942 h 4.79102 c -0.067,-1.66871 -0.13184,-3.33872 -0.19519,-5.00971 z m 3.83844,-21.62616 c -0.38712,-10.84057 -0.80094,-21.66433 -1.38937,-32.37802 -0.45527,-8.28914 -5.53824,-47.47983 -14.42968,-60.04101 -5.52769,-7.80911 -33.45365,-20.41319 -49.30531,-28.46721 -7.73376,-3.92942 -18.68858,-9.23867 -26.46992,-13.00134 -5.24499,-2.73053 -13.93241,-8.77672 -14.78337,-9.35762 0,0 -2.0359,12.58976 -8.74023,19.32031 -4.21022,4.22667 -17.76921,4.94867 -29.36914,1.95508 -11.93732,-3.08067 -18.38228,-5.63297 -28.68164,-12.29688 -11.37895,-7.36243 -14.08018,-11.66411 -19.99032,-18.76357 -4.52604,-5.43683 -8.08568,-13.75511 -10.84982,-20.29307 -1.68314,0.69978 -11.9942,8.18751 -13.18135,8.74609 -4.56573,2.14825 -21.96883,10.75694 -42.67403,22.73413 -16.79059,9.71193 -33.714254,18.21411 -37.398234,20.38868 -8.426017,4.97368 -11.687931,5.20873 -15.878906,10.51196 -1.077326,0.63733 -5.047719,1.38449 -8.318359,3.61914 -9.855805,5.31254 -21.168773,23.62141 -28.478516,46.72656 -7.3466,23.22165 -11.974414,68.60968 -11.974414,68.60968 l 3.786229,0.59609 c 0.365294,-2.42062 6.394079,-42.97811 13.160841,-68.75069 5.386853,-20.51689 17.764326,-36.14582 24.84961,-43.48242 7.085284,-7.33659 23.557403,3.63857 27.609375,9.20117 0.30666,-1.03467 -0.155263,-2.13012 -0.669922,-3.07812 -2.467986,-4.544 -6.364414,-7.99576 -10.761719,-10.6211 -1.47866,-0.88133 -3.620257,-1.56847 -4.65625,-2.98047 -0.158271,-1.60717 9.794541,-5.87146 12.474609,-7.30298 4.011891,-2.1429 20.240696,-10.41254 37.884556,-20.61914 17.94933,-10.38182 36.74123,-20.00255 41.88015,-22.61816 0.57655,0.90922 2.43003,5.82291 6.62201,11.59302 4.64758,6.39721 10.54798,13.8376 15.86524,18.16797 13.49915,10.99368 29.18992,22.04898 46.43164,26 11.05253,2.53273 25.5706,1.5597 35.98242,-3.08008 7.03836,-3.1365 9.64682,-7.28654 13.42188,-13.24092 1.27349,-2.00868 1.9385,-7.47274 2.21679,-10.68682 10.65271,5.21275 18.10223,8.98014 27.46485,13.61914 11.26849,5.58332 42.27275,20.54684 49.16601,28.13477 5.13194,5.64932 12.11801,40.01795 14.52735,58.75781 0.71985,10.97965 0.93841,21.99321 0.95485,33.01763 z M 181.076,206.49426 c 3.07133,6.82061 5.64761,12.7349 9.37118,17.55274 6.35908,8.22787 10.95712,13.31443 20.9454,19.6698 8.57021,5.45308 20.59167,10.68791 29.66601,12.78906 14.78801,3.42415 27.25457,2.34567 33.95508,-3.53516 4.50038,-3.94983 6.85938,-16.15039 6.85938,-16.15039 1.57887,0.78861 3.67263,1.99266 6.56054,3.75391 -0.19307,5.00086 -1.73962,10.19209 -2.25743,11.00882 -3.91729,6.17872 -5.92246,9.37188 -12.00624,12.08298 -9.72718,4.33468 -23.96768,5.31782 -34.40625,2.92578 -16.57002,-3.7971 -32.0143,-14.58886 -45.41211,-25.5 -4.92309,-4.00937 -10.82503,-11.37648 -15.41992,-17.70118 -4.03283,-5.55103 -5.73853,-10.21521 -6.42475,-11.29419 0.83096,-0.54254 7.68847,-5.17221 8.56911,-5.60217 z m -72.701,100.51746 c 0,0 5.94428,14.39497 9.68945,31.21289 0.95212,4.27551 3.29106,21.48236 3.95313,32.79492 0.33951,5.80118 2.16502,12.45703 1.47939,25.72758 l 3.01812,1.04932 c 0.49001,-13.11163 -2.07227,-38.33342 -2.71431,-43.41752 -1.70848,-13.52886 -5.94706,-31.85705 -15.42578,-47.36719 z m 254.83452,54.46265 c 0.0296,9.92135 -0.19715,20.30337 -0.15093,38.52563 h 3.87441 c -0.25798,-13.07423 -0.66754,-39.27233 -0.68156,-42.80002 -0.0165,-4.16547 -0.97153,-29.33555 -1.32262,-30.15109 -0.29863,-0.18595 -1.74079,27.21427 -1.7193,34.42548 z"
       sodipodi:nodetypes="ccccccsssccsssscscsccsccssccccsccssssscscccccssssccssssscccssccscsccscs" /><g
       id="g19"><path
         style="color:#000000;fill:#f0f0f0;fill-opacity:1;fill-rule:evenodd;stroke-width:0.999261;stroke-linecap:round;stroke-linejoin:round;stroke-miterlimit:20;-inkscape-stroke:none"
         d="m 24.503248,372.64599 c 12.387925,2.65773 40.174622,7.10179 40.174622,7.10179 7.718042,1.3585 15.142629,-3.80413 16.579398,-11.50799 l 2.24697,-12.04812 c 1.436777,-7.70385 -3.656212,-15.04369 -11.376076,-16.39181 0,0 -29.460697,-5.12279 -41.881692,-7.557 -1.868906,-0.36631 -3.587193,2.1798 -4.111975,4.01054 -0.548098,1.91208 0.0043,4.90349 1.872462,5.22914 13.369095,2.33036 26.743749,4.4515 40.110818,6.53013 3.922349,0.60993 6.383775,4.17747 5.561612,8.06087 l -1.693761,8.00042 c -0.822153,3.8834 -4.851411,7.05953 -8.773761,6.44959 0,0 -24.169585,-4.1563 -36.59602,-6.39391 -1.782903,-0.321 -4.069293,-0.25899 -4.824268,2.87636 -0.724966,3.0107 0.948218,5.2617 2.711665,5.64002 z"
         id="path11"
         sodipodi:nodetypes="scsscsscssscssss" /><path
         id="path8"
         style="color:#000000;fill:#000000;fill-rule:evenodd;stroke-width:0.999261;stroke-linecap:round;stroke-linejoin:round;stroke-miterlimit:20;-inkscape-stroke:none"
         d="m 26.867094,366.99875 33.946226,5.55462 c 5.408804,0.88505 13.525575,-4.48889 14.577939,-12.03838 1.064916,-7.63953 -2.758471,-14.7123 -9.509677,-15.70285 -38.562664,-5.65796 -36.33186,-5.62621 -36.479478,-5.66089 -1.42238,-0.33614 -0.829387,-4.26648 1.504311,-3.83796 l 37.886178,6.95673 c 6.222481,1.14258 12.326892,7.67137 11.035658,18.99635 -1.190534,10.44177 -8.497332,16.89433 -18.492723,15.12127 l -35.405884,-6.28059 c -1.356664,-0.28999 -1.006268,-3.42507 0.937408,-3.1081 z m -2.363846,5.64724 c 12.387925,2.65773 36.316327,6.50821 36.316327,6.50821 11.427941,1.80368 20.01479,-3.99886 21.895153,-17.36322 1.946541,-13.83471 -5.686225,-20.93979 -13.406089,-22.28791 0,0 -26.641174,-4.826 -39.062169,-7.26021 -1.868906,-0.36631 -3.587193,2.1798 -4.111975,4.01054 -0.548098,1.91208 0.0043,4.90349 1.872462,5.22914 13.369095,2.33036 23.901685,4.15684 37.291295,6.08494 6.296684,0.90672 8.137478,6.9278 7.237462,12.80306 -0.762009,4.97437 -7.216714,10.03743 -11.139064,9.42749 0,0 -22.35437,-3.43078 -34.780805,-5.66839 -1.782903,-0.321 -4.069293,-0.25899 -4.824268,2.87636 -0.724966,3.0107 0.948218,5.2617 2.711665,5.64002 z"
         sodipodi:nodetypes="sssssssssccsssssssssssssss" /></g><path
       id="path172060"
       style="opacity:0.199997;fill:#000000;fill-opacity:1;fill-rule:nonzero;stroke:none;stroke-width:1.33333"
       d="m 182.13505,204.86785 c -3.11877,1.60039 -7.48466,4.62015 -7.48466,4.62015 l -39.37355,20.4197 -40.220241,21.80685 -11.558677,6.04492 -7.187375,5.23662 -9.458985,6.82422 -8.589843,6.69922 L 39.875,314.20312 c -1.983517,8.02354 -4.329782,11.55532 -5.955101,19.4908 -0.197809,0.96578 -5.25127,0.48208 -5.73075,3.14411 -0.566832,3.147 3.41637,3.73079 3.41637,3.73079 -1.57795,8.96907 -2.900189,15.34541 -3.925815,24.66692 0,0 -3.376715,-0.0549 -3.655814,2.74567 -0.262337,2.63237 2.665092,3.35808 2.611554,3.79118 -0.469482,3.79792 3.607221,10.77158 -0.131744,11.54079 -2.171677,0.44677 -4.789703,2.38429 -4.841863,4.94175 -0.05329,2.61277 1.457924,6.48842 4.822538,7.50874 L 22.690326,400 H 55.5 c -1.124626,-1.58068 -1.073763,-3.06307 -0.784201,-4.46926 0.592425,-2.87699 3.593657,-3.51814 3.914536,-4.80973 1.129202,-4.54519 2.24641,-8.85181 3.350196,-12.93322 0.304658,-1.12652 -0.483534,-1.95861 -0.13844,-3.53822 0.295853,-1.35423 1.564068,-1.63917 1.820279,-2.54549 2.479044,-8.76938 4.884852,-16.40848 7.200616,-23.0746 0.391352,-1.12654 -0.857016,-2.42102 -0.197852,-3.87414 0.612173,-1.34954 2.152348,-1.59005 2.542203,-2.63191 10.768389,-28.77784 19.346844,-36.54303 23.898132,-40.49062 6.739021,-5.84514 15.613161,-9.92747 23.285151,-12.71679 67.72261,-24.62665 81.21924,-31.53133 102.59595,-33.89626 1.92704,-0.33827 11.51144,-1.93733 9.50079,-2.81774 -28.75336,-12.5903 -40.51876,-26.62608 -50.35231,-47.33417 z"
       sodipodi:nodetypes="cccccccccsssssssscccsssssssssccsc" /><path
       d="m 146.52393,343.45169 c -4.74512,11.28005 -7.20649,14.46225 -10.6647,19.10963 -0.5971,0.80242 0.29021,-11.64011 -2.41823,-19.85189 -2.51733,-7.63237 -7.31597,-14.71847 -7.89269,-14.24698 0,0 3.66329,26.30921 0.60307,28.11473 -2.84229,1.67694 -5.73539,-20.53705 -7.07034,-18.99494 l 3.33616,13.81915 c 0,0 1.07092,23.2672 2.8194,45.76949 0.0734,0.94498 3.6108,1.88862 3.68659,2.82912 h 6.45081 c 6.04741,-22.38985 7.35223,-25.94484 8.38691,-30.03853 1.90992,-7.55657 2.94344,-15.14874 2.76302,-26.50978 z"
       style="opacity:0.199997;fill:#000000;fill-opacity:1;fill-rule:nonzero;stroke:none;stroke-width:1.33333"
       id="path172192"
       sodipodi:nodetypes="cssssccsccsc" /><path
       id="path2"
       style="opacity:0.2;fill:#000000;fill-opacity:1;stroke:none;stroke-width:0.911631px;stroke-linecap:butt;stroke-linejoin:miter;stroke-opacity:1"
       d="m 370.98633,327.75391 c 0,0 -1.30101,5.6458 -2.20313,8.39453 -0.68053,2.07355 -1.79332,6.26093 -2.41406,6.08594 -0.57543,-0.16222 -1.46875,-10.75391 -1.46875,-10.75391 l 0.83984,38.45703 c 0,0 0.14578,-0.87187 0.35157,-1.95703 L 366.37891,400 h 5.14257 c 0,0 -0.47705,-5.33446 -0.74609,-13.85742 -0.16278,-5.15665 -2.12381,-14.02973 -2.69995,-21.8883 -0.13321,-1.81697 0.90476,-5.1932 1.65112,-6.85584 1.14675,-2.55456 2.97467,-4.84519 3.67383,-7.55664 0.66902,-2.59455 0.41992,-8.02735 0.41992,-8.02735 0,0 -0.92332,2.80548 -1.62695,4.09375 -0.76305,1.39705 -2.24522,4.26436 -2.78125,3.88282 -0.47534,-0.33834 2.00491,-7.63072 2.25586,-11.54297 0.22437,-3.49792 -0.68164,-10.49414 -0.68164,-10.49414 z"
       sodipodi:nodetypes="csscccccsssscsssc" /><path
       style="color:#000000;fill:#000000;fill-opacity:0.2;-inkscape-stroke:none"
       d="m 174.60204,219.4799 c 0,0 -4.44371,2.68288 -15.08033,8.75819 -10.64651,6.08096 -26.50009,13.31476 -40.88431,20.47617 -14.38131,7.15996 -38.393277,17.28258 -38.393277,17.28258 l 0.578125,1.38476 c 0,0 24.010492,-10.11816 38.483122,-17.32359 14.4697,-7.20397 30.31245,-14.43535 40.96048,-20.51718 10.65791,-6.08748 15.14869,-8.80116 15.14869,-8.80116 z"
       id="path17"
       sodipodi:nodetypes="cssccsscc" /><path
       id="path1"
       style="color:#000000;fill:#000000;-inkscape-stroke:none"
       d="M 26.378906 381.00586 C 26.202113 381.00568 26.013696 381.01824 25.802734 381.04883 C 23.834436 381.33418 22.331155 382.66789 21.289062 384.20508 C 20.246973 385.74226 19.607917 387.54416 19.513672 389.2793 C 19.369723 391.9295 20.817866 394.43845 22.798828 396.00586 C 21.757993 396.60153 20.904875 397.49615 20.240234 398.47656 C 19.91259 398.95987 19.641992 399.47466 19.398438 400 L 22.849609 400 C 23.558405 399.02481 24.421517 398.39983 25.185547 398.28906 C 24.876406 398.33386 25.59872 398.32057 26.417969 398.47461 C 27.237218 398.62867 28.351607 398.87507 29.673828 399.19141 C 30.616224 399.41687 31.773049 399.71241 32.90625 400 L 44.845703 400 L 46.59375 400 C 45.065159 399.67961 43.42262 399.32641 41.736328 398.94727 C 38.289137 398.17221 34.687379 397.29694 31.65625 396.42383 C 28.625121 395.55072 26.096362 394.60716 25.148438 394.00977 C 23.8286 393.17799 22.435831 390.80258 22.509766 389.44141 C 22.567686 388.37497 23.042092 386.9646 23.771484 385.88867 C 24.50088 384.81275 25.42601 384.13477 26.234375 384.01758 C 25.925234 384.06238 26.647548 384.04911 27.466797 384.20312 C 28.286046 384.35718 29.400437 384.60358 30.722656 384.91992 C 33.367101 385.5526 36.853031 386.46234 40.673828 387.4668 C 48.315423 389.47568 57.286539 391.86907 63.716797 393.25781 C 77.31115 396.19378 86.353761 397.26719 100.23828 397.8418 C 106.90717 398.11778 114.33164 397.7876 121.17578 397.38672 C 124.17299 397.21118 126.14509 398.5085 127.05469 400 L 130.32617 400 C 130.24904 399.73666 130.15992 399.47403 130.04102 399.21289 C 128.72175 396.31545 125.36206 394.13518 121 394.39062 C 114.18655 394.78968 106.83811 395.11374 100.36133 394.8457 C 86.57606 394.27521 77.826587 393.23636 64.351562 390.32617 C 58.054932 388.96629 49.087235 386.5755 41.4375 384.56445 C 37.612633 383.55893 34.115325 382.64878 31.419922 382.00391 C 30.072219 381.68147 28.927336 381.42424 28.021484 381.25391 C 27.342096 381.12615 26.909285 381.00641 26.378906 381.00586 z " /><path
       id="path3"
       style="fill:#000000;fill-opacity:1;stroke:none;stroke-width:1px;stroke-linecap:butt;stroke-linejoin:miter;stroke-opacity:1"
       d="M 130.19336 343.68945 C 130.19336 343.68945 130.95041 352.69172 130.79883 357.19531 C 130.5557 364.41901 129.56908 371.61437 128.37109 378.74219 C 127.70886 382.68237 126.06848 389.44617 125.37891 392.23047 C 125.36207 392.25811 125.18555 392.55078 125.18555 392.55078 L 125.24219 392.77734 C 125.16793 393.07429 125.0332 393.61328 125.0332 393.61328 L 126.24805 395.88867 C 126.24805 395.88867 126.80269 393.93271 127.45703 391.47656 C 128.44901 389.87571 129.61876 387.95084 130.34375 386.63281 C 133.03652 381.73734 135.78817 376.83168 137.7793 371.61133 C 138.86382 368.76792 140.20703 362.80859 140.20703 362.80859 C 140.20703 362.80859 138.50116 367.51035 137.47656 369.78906 C 135.28728 374.65802 132.76361 379.37368 130.19336 384.05273 C 129.77881 384.80742 129.23666 385.74874 128.66406 386.72852 C 129.04295 385.13914 129.38008 383.60557 129.58594 382.38477 C 130.96258 374.22067 131.97407 365.92897 131.86133 357.65039 C 131.79752 352.96434 130.19336 343.68945 130.19336 343.68945 z " /><rect
       style="fill:#f0f0f0;fill-opacity:1;fill-rule:evenodd;stroke:#000000;stroke-width:3;stroke-linecap:round;stroke-linejoin:round;stroke-miterlimit:20;stroke-dasharray:none;stroke-opacity:1"
       id="rect4"
       width="56.652359"
       height="27.896996"
       x="293.56223"
       y="359.65665"
       ry="13.948498" /><rect
       style="fill:none;fill-opacity:1;fill-rule:evenodd;stroke:#000000;stroke-width:3;stroke-linecap:round;stroke-linejoin:round;stroke-miterlimit:20;stroke-dasharray:none;stroke-opacity:1"
       id="rect5"
       width="69.408028"
       height="40.040836"
       x="287.18439"
       y="353.58472"
       ry="20.020418" /><path
       id="path18"
       style="color:#000000;fill:#000000;-inkscape-stroke:none"
       d="m 277.23253,262.74589 c 0,0 -24.83307,51.63237 -39.06066,76.86544 C 226.6174,360.10355 201.46094,400 201.46094,400 h 1.57506 c 0,0 24.84858,-39.09014 36.44252,-59.65234 14.29136,-25.34619 39.47656,-77.69336 39.47656,-77.69336 z m -7.93566,2.5627 c 0,0 -30.37561,56.38473 -46.34179,84.10157 C 212.71888,367.17991 191.90751,400 191.90751,400 h 1.47697 c 0,0 20.60674,-32.02071 30.87138,-49.83984 15.99462,-27.76621 46.36133,-84.13868 46.36133,-84.13868 z m -8.15625,-9.4375 c 0,0 -25.48727,48.10213 -39.04296,71.65235 C 208.08893,351.86071 177.4707,400 177.4707,400 h 1.4733 c 0,0 30.40762,-47.32847 44.45248,-71.72852 13.59066,-23.61095 39.06836,-71.69726 39.06836,-71.69726 z" /><path
       id="path21"
       style="fill:#000000;fill-opacity:0.2;stroke:none;stroke-width:1px;stroke-linecap:butt;stroke-linejoin:miter;stroke-opacity:1"
       d="m 27.60165,372.91906 -0.296792,3.11632 c 0,0 13.072,2.4291 19.51407,3.56151 6.960201,1.22349 13.302328,2.31585 19.959257,1.48395 2.033859,-0.25417 4.186421,-0.79773 5.787443,-2.07754 2.518876,-2.01352 5.193859,-8.16178 5.193859,-8.16178 0,0 -6.584621,3.7528 -10.239322,4.15509 -5.498226,0.60521 -13.653329,-1.21752 -21.814207,-2.67113 -4.98634,-0.88817 -10.195499,-1.85434 -15.136389,-2.96791 -2.575205,-0.5804 -7.271402,-1.18718 -7.271402,-1.18718 l 0.445188,2.37434 z m 4.451879,-26.41448 c 0,0 13.921322,1.25158 20.923831,1.92915 3.97589,0.38471 8.938774,1.10557 12.613657,2.67113 3.596273,1.53206 8.606966,7.2714 8.606966,7.2714 l -2.374335,-9.64574 -4.303483,-2.22594 -35.244042,-4.89706 z"
       sodipodi:nodetypes="ccssscsssccccssccccc" /><path
       id="path22"
       style="fill:#000000;fill-opacity:1;stroke:none;stroke-width:1px;stroke-linecap:butt;stroke-linejoin:miter;stroke-opacity:1"
       d="M 370.93359 330.95508 C 370.93359 330.95508 369.25269 339.05225 368.10156 342.96875 C 367.50703 344.99149 366.79824 346.99271 365.89648 348.89844 C 365.58472 349.55728 365.00586 350.73438 365.00586 350.73438 L 364.58594 356.61133 C 364.58594 356.61133 366.83263 351.84248 367.73438 349.42383 C 368.91541 346.2561 369.82964 343.27297 370.30469 339.92578 C 370.72291 336.97895 370.93359 330.95508 370.93359 330.95508 z M 373.60938 345.06836 C 373.60937 345.06836 371.68636 350.82543 369.88477 353.20117 C 368.52766 354.99077 364.74219 357.55469 364.74219 357.55469 L 365.05859 359.02344 C 365.05859 359.02344 369.28263 355.38028 370.72461 353.04297 C 372.20891 350.63705 373.60938 345.06836 373.60938 345.06836 z " /><path
       id="path23"
       style="color:#000000;fill:#000000;-inkscape-stroke:none"
       d="m 386.50391,373.42773 c -0.19551,0.001 -0.3885,0.0138 -0.58008,0.0352 -0.76631,0.0853 -1.49806,0.31486 -2.16602,0.56836 -1.33591,0.507 -2.55313,1.12793 -3.54687,1.34961 -5.3212,1.18702 -16.02539,2.39062 -16.02539,2.39062 l 0.27539,2.48438 c 0,0 10.63547,-1.1735 16.29297,-2.43555 1.46798,-0.32747 2.75401,-1.01981 3.89062,-1.45117 1.13661,-0.43136 1.98617,-0.58343 2.71485,-0.28906 0.11014,0.0445 0.49932,0.39966 0.78515,0.95703 0.28583,0.55737 0.48886,1.26669 0.54102,1.70508 0.19636,1.6504 0.0189,2.435 -0.99024,3.68164 -1.05999,1.3095 -3.36209,1.81325 -5.6914,2.53125 -5.49708,1.69443 -17.79688,2.88672 -17.79688,2.88672 l 0.23242,2.49023 c 0,0 11.36911,-1.01759 17.5217,-2.91408 0.74774,-0.23048 1.85905,-0.29743 2.73489,-0.56356 1.03943,0.21889 1.39004,0.66846 2.11841,0.90342 0.607,0.19581 1.42031,1.10668 1.53711,1.38867 0.52439,1.26598 0.45324,2.08881 -0.17773,3.37891 -0.16365,0.3346 -0.65548,0.77973 -1.36328,1.15625 -0.70781,0.37652 -1.57639,0.68512 -2.32227,0.9375 -4.49863,1.52221 -7.28576,1.80099 -11.38281,2.25 -2.77742,0.3044 -8.49024,0.41211 -8.49024,0.41211 l 0.0449,2.5 c 0,0 5.64835,-0.0912 8.71875,-0.42773 4.08838,-0.44807 7.1993,-0.77252 11.91211,-2.36719 0.76515,-0.25891 1.75058,-0.59614 2.69336,-1.09766 0.94278,-0.50152 1.89834,-1.16723 2.43554,-2.26562 0.84429,-1.72628 1.00279,-3.59735 0.24219,-5.4336 -0.45404,-1.09616 -1.37431,-2.14573 -2.75391,-2.69336 0.63171,-0.38852 1.22277,-0.87083 1.73047,-1.49804 1.33973,-1.65509 1.77401,-3.49605 1.5293,-5.55274 -0.0957,-0.80423 -0.36237,-1.69773 -0.79883,-2.54883 -0.43646,-0.85109 -1.02212,-1.71053 -2.07226,-2.13476 -0.60372,-0.24389 -1.20646,-0.33815 -1.79297,-0.33399 z"
       sodipodi:nodetypes="ssssccsssssssccscssssssccssssscsssss" /><path
       id="path26"
       style="fill:#000000;fill-opacity:0.198198;stroke:none;stroke-width:1px;stroke-linecap:butt;stroke-linejoin:miter;stroke-opacity:1"
       d="m 288.66737,365.26758 c 0,0 -3.30896,5.30927 -4.09234,8.28961 -0.64119,2.43939 -0.53686,4.46105 0,6.9255 0.47954,2.20135 1.49622,4.72441 2.72822,6.6107 1.44276,2.20899 2.77447,4.67205 4.9318,6.19098 2.56855,1.80847 5.86356,3.0488 8.9192,3.77754 3.91664,0.93408 12.26568,1.01237 16.05456,1.04932 3.68591,0.0359 14.08742,1.57885 22.87514,-0.3148 2.28092,-0.49151 4.60872,-1.33902 6.40084,-2.83316 2.33973,-1.9507 5.14165,-7.55508 5.14165,-7.55508 0,0 -6.0676,2.20376 -9.23399,2.72822 -6.73455,1.11546 -13.63578,0.91145 -20.4617,0.83946 -6.76327,-0.0713 -13.6579,0.24643 -20.25184,-1.25919 -2.9825,-0.68101 -6.05141,-1.62807 -8.49948,-3.46274 -2.60963,-1.95575 -6.08604,-7.66003 -6.08604,-7.66003 l 0.41973,-7.76495 z m 7.24029,1.15425 c 0,0 8.05491,-2.0789 12.17209,-2.09864 7.91979,-0.038 13.79006,0.0283 21.51102,-0.10493 3.22957,-0.0557 7.42561,0.0772 10.38824,1.36411 1.72645,0.74991 3.23836,2.15783 4.19728,3.77755 1.24477,2.10256 1.65447,4.69208 1.6789,7.13536 -0.0763,3.32723 -1.4233,6.21536 -2.83315,9.12906 l 6.6107,-7.03043 0.41973,-10.07345 -6.71564,-7.97481 -5.87618,-1.25919 h -33.57817 z" /></g></svg>
