<?xml version="1.0" encoding="UTF-8" standalone="no"?>
<!-- Created with Inkscape (http://www.inkscape.org/) -->

<svg
   version="1.1"
   id="svg282014"
   width="400"
   height="400"
   viewBox="0 0 400 400"
   sodipodi:docname="gillianTaylorScienceOutfit.svg"
   inkscape:version="1.3.2 (091e20e, 2023-11-25)"
   xml:space="preserve"
   xmlns:inkscape="http://www.inkscape.org/namespaces/inkscape"
   xmlns:sodipodi="http://sodipodi.sourceforge.net/DTD/sodipodi-0.dtd"
   xmlns="http://www.w3.org/2000/svg"
   xmlns:svg="http://www.w3.org/2000/svg"><defs
     id="defs282018" /><sodipodi:namedview
     id="namedview282016"
     pagecolor="#ffffff"
     bordercolor="#666666"
     borderopacity="1.0"
     inkscape:showpageshadow="2"
     inkscape:pageopacity="0.0"
     inkscape:pagecheckerboard="0"
     inkscape:deskcolor="#d1d1d1"
     showgrid="false"
     inkscape:zoom="2.7375"
     inkscape:cx="199.81735"
     inkscape:cy="200"
     inkscape:window-width="2328"
     inkscape:window-height="1308"
     inkscape:window-x="2040"
     inkscape:window-y="25"
     inkscape:window-maximized="0"
     inkscape:current-layer="g282022"><inkscape:page
       x="0"
       y="0"
       id="page282020"
       width="400"
       height="400"
       margin="0"
       bleed="0" /></sodipodi:namedview><g
     inkscape:groupmode="layer"
     id="layer7"
     inkscape:label="StraightenedNeck"
     style="display:none"
     sodipodi:insensitive="true"><path
       d="m 196.88057,197.0346 c -0.0158,-6.20551 -0.2217,-14.22911 -0.17142,-19.03413 0.0588,-5.61641 -0.0767,-21.64313 -0.29166,-27.19977 0,0 -3.83333,-3.40667 -3.83333,-3.40534 -0.0149,5.84948 1.0573,26.0661 1.27741,31.14907 0.29177,6.73798 0.15199,12.21387 0.27271,19.38922 0.0849,5.04508 -1.08754,7.04418 -2.80181,11.93914 -1.74416,4.9803 -5.18181,8.36428 -8.98714,12.03361 -9.84667,9.496 -22.544,15.42 -35.24,20.512 0.40133,0.984 1.52,1.52134 2.58133,1.55067 1.39923,0.0369 4.17868,-1.07867 8.35467,-2.96667 21.65514,-11.48595 38.89574,-21.76807 38.83924,-43.9678 z"
       style="fill:#000000;fill-opacity:1;fill-rule:nonzero;stroke:none;stroke-width:1.33333"
       id="path19890"
       sodipodi:nodetypes="ssccsssccccs" /><path
       id="path19920"
       style="opacity:0.199997;fill:#000000;fill-opacity:1;fill-rule:nonzero;stroke:none;stroke-width:1.33333"
       d="m 194.00265,149.58795 c 1.47318,32.79428 1.53765,39.12909 1.24719,50.02942 -0.12441,4.66879 0.11284,10.35879 -5.4589,17.02734 -0.92891,1.11177 -1.91219,2.2207 -2.95704,3.3125 -0.51287,0.53601 -1.0878,1.05036 -1.63086,1.57617 -0.56289,0.54503 -1.09446,1.10264 -1.6914,1.63282 -0.0139,0.0124 -0.031,0.0228 -0.0449,0.0351 -1.15045,1.01874 -2.37799,1.99279 -3.67383,2.92969 -9.18408,6.64012 -21.67015,11.48516 -32.49414,18.20703 0,0 -3.00371,3.40811 0.63086,10.08399 4.98031,5.72624 14.4995,11.31479 17.1582,11.79687 11.03733,2 20.53668,-7.64675 31.38867,-7.71875 8.55999,-0.0573 16.28362,7.04121 23.46094,11.0332 1.50667,0.83733 15.56797,9.02374 16.30664,5.06641 0.29333,-1.57867 -4.00315,-5.16199 -4.89648,-6.11133 -3.93334,-4.17465 -8.27971,-8.15943 -11.73438,-12.74609 -2.71066,-3.60133 -4.66824,-8.11346 -3.8789,-12.55078 0.69332,-3.89867 3.43831,-7.18988 6.70898,-9.42188 8.35065,-5.69733 18.13271,-6.5757 27.85937,-4.95703 2.648,0.44 17.83493,4.39988 19.40827,1.13056 0.91886,-9.71758 3.80861,-19.05607 6.23555,-28.46731 z m 73.2161,100.18549 c 3.8015,0.73252 7.83234,0.96178 13.57227,2.90429 5.59498,1.89347 8.48223,3.22335 12.51171,7.4043 3.27912,3.71364 0.74296,7.50414 -0.34961,11.45899 -0.29333,2.16132 1.42994,4.26114 0.94727,6.36914 -0.452,1.96533 -3.195,3.66805 -4.65234,4.88672 -1.188,0.99066 -4.06439,2.74065 -1.40039,3.47265 1.172,0.32267 2.84805,-0.53517 3.88672,-0.17383 0.44932,0.15733 1.30883,1.21852 1.6875,1.61719 1.21466,1.27867 1.26973,5.12333 2.67773,5.83399 2.56,1.29466 5.51481,-4.09938 6.24414,-5.72071 1.75467,-3.90399 3.36939,-7.8906 4.38672,-12.05859 0.19584,-0.80215 0.36268,-1.61429 0.50976,-2.42969 0.2462,-4.01128 0.0353,-7.30242 -0.88671,-9.14648 -6.95614,-7.11445 -22.0212,-15.66027 -39.10938,-19.49219 0.28399,2.60456 0.0311,3.95827 -0.0254,5.07422 z"
       sodipodi:nodetypes="csscsscscccccccccccccccscccccccccsccccc" /><path
       d="m 277.75802,201.80599 c -0.0107,-0.004 -0.12534,0.15066 -0.13334,0.16133 -0.31862,0.41722 -10.83374,39.02027 -9.05722,45.74015 0.204,0.77333 1.896,8.104 1.39467,7.94 -4.604,-1.516 -4.92134,-10.64533 -4.35867,-14.45733 0.132,-0.89867 6.39456,-41.94149 6.39456,-41.94149 0,0 5.75866,2.556 5.76,2.55734"
       style="fill:#000000;fill-opacity:1;fill-rule:nonzero;stroke:none;stroke-width:1.33333"
       id="path19894"
       sodipodi:nodetypes="ccccccc" /></g><g
     id="g282022"
     inkscape:groupmode="layer"
     inkscape:label="Uniform"
     style="display:inline;opacity:1"><path
       id="path283350"
       style="fill:#957ead;fill-opacity:1;fill-rule:nonzero;stroke:none;stroke-width:1.33333"
       d="m 192.36975,194.67959 c -2.13116,5.96341 -2.10984,14.00544 -4.36584,18.10361 -3.00937,4.71927 -4.23154,7.9528 -6.19141,11.67969 -14.34652,6.44948 -26.45648,10.66799 -50.14844,24.25195 -16.34717,4.40719 -36.791883,9.01532 -54.478513,19.41797 -3.369327,1.98133 -12.234867,6.10028 -15.736328,8.22657 -9.936666,13.29954 -9.372148,20.97017 -15.105469,36.71679 -3.995702,13.18249 -5.71498,20.79739 -7.419034,30.55842 -1.704054,9.76103 -7.20525,54.56232 -7.095257,56.36541 0.01467,0.0184 350.390541,-0.0332 350.390541,-0.0332 -3.1e-4,-10.11521 -0.91842,-19.62878 -1.84451,-29.59764 -0.63851,-6.87333 -1.99928,-25.48691 -2.69385,-30.65236 -1.12218,-8.3456 -1.03572,-15.71946 -3.04814,-22.97792 -6.20398,-24.60528 -14.06185,-34.13925 -36.44713,-44.2046 -12.89138,-3.90462 -23.67326,-9.98396 -36.07895,-11.42295 -5.24832,-0.67437 -12.25359,-7.05223 -15.81445,-9.17383 -6.37981,-3.80115 -8.82532,-6.17676 -11.24219,-8.26953 l 1.72616,-9.29905 -5.55136,-4.92245 -3.7373,13.62189 c -1.47478,-0.33911 6.84139,27.61306 11.7585,33.96874 0.54869,0.70922 10.3895,104.48165 9.4299,104.51461 -1.34112,0.0461 -63.19842,-103.31337 -63.19842,-103.31337 11.24165,-8.60484 15.58645,-34.31064 9.60817,-39.55334 -4.87611,-4.27613 -8.21924,-6.87781 -12.64024,-10.52024 -7.30458,-7.52521 -25.9232,-27.95435 -30.07644,-33.48517 z"
       sodipodi:nodetypes="ccccccccccsscccsccccsssscc" /><path
       d="m 199.85386,247.78521 c -2.93665,-2.47779 -7.28168,-7.44446 -10.22639,-11.3595 -5.69208,-7.56772 -7.29436,-11.28257 -0.41891,-24.25333 3.46894,-6.54427 3.12853,-15.98494 3.12853,-15.98494 5.23141,8.64761 24.37497,38.48835 33.68528,43.20047 3.86892,1.95813 5.41714,14.90779 4.57707,17.14223 -0.99091,2.63563 -7.20008,7.32076 -15.3023,2.2247 -7.18497,-4.51915 -8.77617,-5.34428 -15.44328,-10.96963 z"
       style="opacity:0.199997;fill:#000000;fill-opacity:1;fill-rule:nonzero;stroke:none;stroke-width:1.33333"
       id="path283456"
       sodipodi:nodetypes="ssscssss" /><path
       id="path4"
       style="fill:#f0f0f0;fill-opacity:1;stroke:none;stroke-width:1px;stroke-linecap:butt;stroke-linejoin:miter;stroke-opacity:1"
       d="m 96.072266,258.99609 -27.761719,10.95899 16.4375,1.82617 z m -12.054688,13.88086 21.236112,39.59837 10.31323,33.97265 2.78855,35.65164 V 400 H 370.7756 l -7.67132,-40.18208 c 0,0 -0.29702,-33.01075 -2.55539,-49.31571 -1.50766,-10.88497 -7.3067,-32.14674 -7.3067,-32.14674 l -9.49805,-4.01758 -63.19531,1.46094 5.34519,91.60386 -61.96629,-90.50816 z"
       sodipodi:nodetypes="cccccccccccscccccc" /><path
       id="path283392"
       style="opacity:0.199997;fill:#000000;fill-opacity:1;fill-rule:nonzero;stroke:none;stroke-width:1.33333"
       d="m 181.88672,224.74609 c -6.75332,2.5483 -27.67179,10.77371 -49.25977,23.06836 -18.69993,5.86575 -35.845463,11.49912 -55.441403,20.31836 -6.938994,2.88838 -12.359675,4.73318 -15.263672,7.33985 -9.815583,11.62158 -10.637255,21.6708 -16.376683,41.39064 -5.04417,17.33103 -9.161376,34.53084 -11.547145,48.68553 -1.09679,6.50722 -1.839968,8.30026 -2.472656,17.39258 -0.397783,5.71651 -0.713332,11.50552 -0.501953,17.02539 h 22.166015 c 0.196,-3.43334 -0.167174,-7.27619 -0.08984,-10.57085 0.08534,-3.60572 -0.472307,0.0669 0.215129,-3.47289 0.03748,-0.19301 0.06968,-0.38708 0.107422,-0.58008 -5.817054,-4.60157 -16.427167,-23.65022 -16.435252,-35.11525 1.29e-4,-15.96379 6.985959,-23.51705 15.82907,-23.51812 3.371034,8e-4 8.29978,4.11391 11.030555,7.68202 0.07505,-0.15661 0.165645,-0.34255 0.240234,-0.49805 1.761902,-3.67307 9.995568,-12.91879 12.674952,-17.7217 8.061613,-9.83474 8.679782,-10.6647 17.27539,-16.04688 9.830767,-5.0583 15.434207,-7.80899 26.708977,-12.52148 12.06133,-4.93733 26.01978,-8.93629 38.75977,-12.12696 2.82667,-0.80533 5.53186,-1.54656 8.11719,-2.22656 28.43464,-7.48133 48.85937,-10.78906 48.85937,-10.78906 0,0 -11.60239,-5.51698 -20.87304,-16.6543 -3.08933,-3.71334 -4.36477,-4.90608 -7.25391,-8.99609 -2.88884,-4.0896 -4.18265,-5.97195 -6.46875,-12.06446 z"
       sodipodi:nodetypes="ccccssscccsccccscccccccscc" /><path
       id="path166529"
       style="opacity:0.199997;fill:#000000;fill-opacity:1;fill-rule:nonzero;stroke:none;stroke-width:1.27278"
       d="m 114.01662,343.50634 c 3.80949,20.16054 4.74589,37.11497 5.47361,56.48389 l 0.0352,0.01 h 67.14649 c -13.05192,-4.58044 -25.21437,-11.32712 -31.89649,-18.41016 -8.30336,-8.80153 -15.81164,-18.69407 -21.54687,-26.75 -7.42194,-10.42507 -20.58394,-29.69326 -22.60534,-32.03511 1.13113,6.90046 2.26227,13.80092 3.3934,20.70138 z m 249.34666,21.13428 c -0.50364,6.07485 -1.40082,11.16424 -3.61523,16.44727 -2.43399,5.80683 -6.73579,6.92559 -12.53711,9.89258 -6.76132,3.45662 -14.76537,3.91156 -22.5,3.43164 -10.15464,-0.63058 -19.59262,-5.09891 -29.53125,-6.14258 -9.44664,-0.99264 -20.4178,3.21967 -29.50977,5.38477 -6.96108,1.65677 -14.27646,4.09519 -21.70312,6.3457 h 125.95117 l 0.49023,-5.69922 -3.22851,-20.40625 z"
       sodipodi:nodetypes="ccccssccscccccccccs" /><path
       id="path2"
       style="color:#000000;fill:#000000;stroke-miterlimit:20;-inkscape-stroke:none"
       d="m 95.590527,258.19521 -12.002636,12.26963 c -0.767273,-0.0464 -4.036674,-0.24688 -8.285157,-0.45312 -2.359608,-0.11455 -5.445185,-1.74383 -6.740234,-0.26953 l -3.513672,4 c -0.173974,0.0348 0.370444,-0.0305 0.996094,-0.0352 1.485793,-0.0119 5.4556,0.0719 15.160156,0.62305 7.823336,15.02142 20.059992,29.2301 26.604792,45.25609 l 1.73072,-1.23216 C 103.58617,301.47584 94.068995,287.99237 85.68016,274.3549 l 137.47218,5.231 64.43492,94.5481 -5.24351,-95.30982 63.29492,-2.12305 -3.60508,-3.81344 -64.01211,2.07907 5.35113,85.87476 -57.94097,-85.17554 -136.517578,-4.92579 13.337888,-13.63476 z"
       sodipodi:nodetypes="ccssccccccccccccccccc" /><path
       id="path14"
       style="color:#000000;fill:#000000;fill-opacity:0.3;-inkscape-stroke:none"
       d="m 116.58398,359.08594 -0.71875,0.77344 c 0,0 16.42978,12.73628 23.957,19.75656 C 149.12762,388.29464 158.98047,400 158.98047,400 h 1.54687 c 0,0 -10.27035,-12.64566 -19.86121,-21.30739 -7.63842,-6.89844 -24.08215,-19.60667 -24.08215,-19.60667 z m 0.64724,6.94557 -0.71485,0.77734 c 0,0 13.55036,10.62355 20.53359,17.06445 C 142.48209,388.88357 152.3418,400 152.3418,400 h 1.55664 c 0,0 -10.53145,-11.73629 -16.29946,-17.05648 -6.92795,-6.39009 -20.36776,-16.91201 -20.36776,-16.91201 z m 0.3789,7.32227 -0.70312,0.78711 c 0,0 11.2107,8.34473 16.84146,13.37226 C 138.20559,391.49278 145.75,400 145.75,400 h 1.58594 c 0,0 -8.06634,-8.97289 -12.78443,-13.18536 -5.66407,-5.05706 -16.94139,-13.46086 -16.94139,-13.46086 z"
       sodipodi:nodetypes="ccsccscccsccscccsccsc" /><path
       id="path17"
       style="color:#000000;fill:#000000;fill-opacity:0.3;-inkscape-stroke:none"
       d="m 365.8347,370.78707 c 0,0 -3.72279,10.0429 -4.67094,15.79494 C 360.36126,391.45041 359.21289,400 359.21289,400 h 1.01367 l 1.9,-13.10573 c 0.84369,-5.81958 4.69642,-15.94509 4.69642,-15.94509 z m 1.55409,6.66038 c 0,0 -2.50041,6.39008 -3.157,10.13307 C 363.50557,391.72035 362.50977,400 362.50977,400 h 1.01757 l 1.63714,-11.94344 c 0.52995,-3.86618 3.20869,-10.43528 3.20869,-10.43528 z m 2.09961,7.12482 c -0.91474,1.5858 -1.91833,3.81656 -2.28389,5.90749 C 366.67098,393.5314 366.06055,400 366.06055,400 h 1.01562 c 0,0 0.55343,-6.14092 1.05846,-9.02873 0.38429,-2.19748 2.3401,-6.22713 2.3401,-6.22713 0,0 -0.81957,-0.46095 -0.98633,-0.17187 z"
       sodipodi:nodetypes="csccscccsccsccssccscs" /><rect
       style="fill:#ffeeee;fill-opacity:0.3;fill-rule:evenodd;stroke:#000000;stroke-width:0.8;stroke-linecap:round;stroke-linejoin:round;stroke-miterlimit:20;stroke-dasharray:none;stroke-opacity:1"
       id="rect28"
       width="42.409588"
       height="58.129059"
       x="296.49133"
       y="316.66956"
       transform="rotate(0.10240285)"
       ry="4.7468925" /><path
       id="rect18"
       style="fill:#ffeeee;fill-opacity:0.3;fill-rule:evenodd;stroke:#000000;stroke-width:1.58835;stroke-linecap:round;stroke-linejoin:round;stroke-miterlimit:20"
       transform="rotate(0.10240285)"
       d="m 299.41891,319.5867 1.9442,-1.80812 36.54379,0.12569 -0.12499,52.15916 -1.80928,1.45276 h -36.55372 z"
       sodipodi:nodetypes="ccccccc" /><g
       id="g25"
       transform="rotate(0.10240285)"><path
         id="rect19"
         style="fill:#b6b6b6;fill-opacity:1;fill-rule:evenodd;stroke:#000000;stroke-width:1.3249;stroke-linecap:round;stroke-linejoin:round;stroke-miterlimit:20;stroke-dasharray:none;stroke-opacity:1"
         d="m 294.21083,302.08289 c -2.41313,0 -4.35547,1.94235 -4.35547,4.35547 0,2.41312 1.94234,4.35547 4.35547,4.35547 h 3.50781 l 1.75195,-8.71094 z m 14.8496,0 -1.75195,8.71094 h 31.55664 c 2.41312,0 4.35742,-1.94235 4.35742,-4.35547 0,-2.41312 -1.9443,-4.35547 -4.35742,-4.35547 z"
         sodipodi:nodetypes="sssccsccsssc" /><path
         id="rect20"
         style="fill:#b6b6b6;fill-rule:evenodd;stroke:#000000;stroke-width:1;stroke-linecap:round;stroke-linejoin:round;stroke-miterlimit:20;stroke-dasharray:none"
         d="m 298.17392,300.72767 3.06825,0.065 -2.20817,11.35387 -2.97693,-0.15633 z"
         sodipodi:nodetypes="ccccc" /><path
         id="path20"
         style="fill:#b6b6b6;fill-rule:evenodd;stroke:#000000;stroke-width:1;stroke-linecap:round;stroke-linejoin:round;stroke-miterlimit:20;stroke-dasharray:none"
         d="m 306.31105,300.79007 4.41985,-0.0263 -2.20817,11.35387 -4.32853,-0.065 z"
         sodipodi:nodetypes="ccccc" /><path
         id="path21"
         style="fill:#b6b6b6;fill-rule:evenodd;stroke:#000000;stroke-width:1;stroke-linecap:round;stroke-linejoin:round;stroke-miterlimit:20;stroke-dasharray:none"
         d="m 331.91244,300.72893 5.78058,0.065 -2.20817,11.35387 -5.68926,-0.15632 z"
         sodipodi:nodetypes="ccccc" /><rect
         style="fill:#b6b6b6;fill-opacity:1;fill-rule:evenodd;stroke:#000000;stroke-width:1;stroke-linecap:round;stroke-linejoin:round;stroke-miterlimit:20;stroke-dasharray:none;stroke-opacity:1"
         id="rect21"
         width="3.0137014"
         height="0.45661786"
         x="291.96347"
         y="306.21005" /><circle
         style="fill:#b6b6b6;fill-opacity:1;fill-rule:evenodd;stroke:#000000;stroke-width:1;stroke-linecap:round;stroke-linejoin:round;stroke-miterlimit:20;stroke-dasharray:none;stroke-opacity:1"
         id="path22"
         cx="313.90918"
         cy="306.43872"
         r="1" /><circle
         style="fill:#b6b6b6;fill-opacity:1;fill-rule:evenodd;stroke:#000000;stroke-width:1;stroke-linecap:round;stroke-linejoin:round;stroke-miterlimit:20;stroke-dasharray:none;stroke-opacity:1"
         id="circle22"
         cx="318.41452"
         cy="306.43872"
         r="1" /><circle
         style="fill:#b6b6b6;fill-opacity:1;fill-rule:evenodd;stroke:#000000;stroke-width:1;stroke-linecap:round;stroke-linejoin:round;stroke-miterlimit:20;stroke-dasharray:none;stroke-opacity:1"
         id="circle23"
         cx="322.91983"
         cy="306.43872"
         r="1" /><circle
         style="fill:#b6b6b6;fill-opacity:1;fill-rule:evenodd;stroke:#000000;stroke-width:1;stroke-linecap:round;stroke-linejoin:round;stroke-miterlimit:20;stroke-dasharray:none;stroke-opacity:1"
         id="circle24"
         cx="327.42517"
         cy="306.43872"
         r="1" /><circle
         style="fill:#b6b6b6;fill-opacity:1;fill-rule:evenodd;stroke:#000000;stroke-width:1;stroke-linecap:round;stroke-linejoin:round;stroke-miterlimit:20;stroke-dasharray:none;stroke-opacity:1"
         id="circle25"
         cx="333.74429"
         cy="306.43835"
         r="1.56583" /></g><path
       style="fill:#000000;fill-opacity:1;stroke:none;stroke-width:1px;stroke-linecap:butt;stroke-linejoin:miter;stroke-opacity:1"
       d="m 107.32525,356.58846 c 0,0 0.182,9.73791 0.51661,14.59417 0.46408,6.73516 1.7719,13.403 2.06643,20.1477 C 110.03414,394.2123 109.77914,400 109.77914,400 h 3.87455 c 0,0 -0.12724,-6.27885 -0.5166,-9.31543 -0.77636,-6.05467 -2.60174,-11.93278 -3.61626,-17.95212 -0.90261,-5.35534 -2.19558,-16.14399 -2.19558,-16.14399 z"
       id="path26"
       sodipodi:nodetypes="cssccssc" /><path
       style="color:#000000;fill:#000000;fill-opacity:1;-inkscape-stroke:none"
       d="m 89.244141,370.5371 c 0,0 1.843926,8.46843 2.873046,12.64649 C 93.473682,388.69074 95.859375,400 95.859375,400 h 0.976562 c 0,0 -2.381805,-11.50797 -3.748046,-17.05469 -1.038868,-4.21763 -3.843749,-12.40821 -3.84375,-12.40821 z"
       id="path27"
       sodipodi:nodetypes="csccsc" /><path
       style="fill:#000000;fill-opacity:0.2;stroke:none;stroke-width:1px;stroke-linecap:butt;stroke-linejoin:miter;stroke-opacity:1"
       d="m 106.30133,388.58448 c 0,0 -1.86803,-11.30724 -2.10046,-16.71234 -0.31126,-7.23843 0.73057,-21.73516 0.73057,-21.73516 0,0 0.76309,9.29839 1.3242,13.65297 0.30125,2.33792 0.79591,7.21093 1.09589,6.98631 0,0 -0.52973,-5.90102 -0.50228,-8.85845 0.0207,-2.22843 0.22831,-8.40183 0.22831,-8.40183 0,0 1.06148,4.29387 1.27853,5.47945 0.61121,3.3386 1.46695,7.68398 2.10046,11.64384 0.60368,3.77341 1.57582,7.3494 2.32876,11.09589 0.58649,2.91826 1.38656,6.32548 1.73517,9.45205 0.33672,3.01998 0.18265,8.81279 0.18265,8.81279 h -8.49315"
       id="path28"
       sodipodi:nodetypes="cscssscsssscc" /><path
       id="path283442"
       style="fill:#000000;fill-opacity:1;fill-rule:nonzero;stroke:none;stroke-width:1.33333"
       d="m 191.5918,191.50391 c -1.24369,-0.0443 -2.07536,1.61238 -2.49414,6.66406 -0.41879,5.05168 -3.71359,18.41157 -8.14844,24.875 -4.33993,2.2816 -8.90482,4.27845 -13.4043,6.32031 -4.70585,2.14462 -12.46312,6.36183 -21.5957,10.50195 -9.13258,4.1402 -17.97782,6.15144 -29.99024,10.17188 -12.01233,4.02044 -32.683659,12.36442 -44.560542,17.51562 -1.801453,1.21501 -9.586685,5.16196 -10.595704,6.91602 -16.482338,28.65259 -23.463321,69.50691 -29.048828,97.35156 -2.323881,11.58494 -2.115773,16.31154 -3.191406,28.14649 h 3.228516 c 1.122478,-13.03769 2.090901,-18.39543 3.519531,-28.31055 1.857044,-12.88846 2.926189,-16.89076 4.742187,-25.86133 4.710386,-23.26808 14.557005,-51.93488 24.078125,-69.22851 2.24976,-0.30739 10.13629,2.47252 14.50586,6.05664 3.130025,2.81096 8.891048,8.71817 11.429687,11.38476 -3.599312,-6.23416 -6.747717,-10.29861 -11.697265,-14.91601 -5.483162,-3.3559 -7.640348,-6.27698 -12.029297,-5.97657 6.410453,-3.26281 36.330826,-13.2357 43.386716,-15.79882 7.05597,-2.5632 20.71132,-6.46673 28.97266,-9.36914 12.47589,-4.38305 23.87057,-11.42463 35.84961,-17.17579 3.0863,-1.48171 6.10437,-2.82655 9.00781,-4.64062 4.16312,-2.60112 10.14284,-25.74322 9.9082,-28.16602 0,0 10.99243,13.61817 13.76563,16.85352 4.63285,5.40495 9.00753,9.27659 15.07617,14.91211 4.39819,4.08421 7.64227,7.25385 11.32031,9.77539 4.12158,16.32946 -1.33363,29.4553 -11.18359,36.0957 l 2.23633,3.31641 c 11.59133,-7.81436 18.16658,-22.78424 12.30469,-40.74024 -0.41111,-1.25925 -1.32159,-1.75323 -2.61329,-2.76953 -3.42119,-2.69176 -6.85862,-5.49178 -10.40234,-8.58008 -16.29301,-14.19911 -28.32344,-31.98683 -28.49609,-32.26171 -0.59961,-0.95462 -1.21653,-1.9452 -2.13868,-2.57227 -0.75167,-0.51116 -1.36622,-0.47579 -1.74218,-0.49023 z m 78.02734,34.4375 c -0.5344,3.21455 -2.80918,12.21357 -4.37695,15.61718 -2.881,6.25471 5.80823,28.36983 14.25,36.67969 l 2.80664,-2.85156 c -7.03177,-6.9219 -15.49059,-25.08714 -13.6875,-33.69336 0.55831,-2.66482 2.41145,-8.35512 2.96289,-10.31445 1.31797,0.70372 3.32196,2.03412 3.61523,3.73632 0.53839,3.12489 -1.35852,6.40831 -2.02148,9.89844 -0.30857,1.5562 -0.63704,5.76698 -0.55664,7.45313 0.11223,2.36944 0.59504,4.58223 1.15234,6.83593 0.54613,2.21248 1.2312,3.20432 2.76953,5.02539 -0.0279,-4.64507 -2.49664,-10.67878 -1.53125,-15.26367 0.11763,-0.55791 0.32515,-1.36462 0.5586,-2.25195 l 3.71679,2.56641 c 0.30905,0.19623 5.49986,3.70367 8.51954,5.875 3.1213,2.24438 9.63594,7.25216 12.64062,8.27929 16.65049,3.90377 24.82455,6.8609 39.90234,11.72071 12.38672,4.19061 18.5193,10.09988 21.52344,14.53711 4.53973,6.70528 7.45091,14.61169 9.66016,22.57421 4.96951,17.91113 6.0211,36.84806 7.62109,55.61524 C 380.05255,378.63109 380.23437,400 380.23438,400 h 3 c 0,0 -0.16546,-21.31594 -1.09961,-32.27344 -1.59481,-18.70632 -2.63514,-37.83478 -7.72071,-56.16406 -2.25346,-8.12188 -4.92418,-16.5667 -10.0664,-23.45312 -5.27753,-7.06764 -12.86963,-11.22525 -21.29506,-15.08095 -13.08642,-5.9887 -28.36562,-9.97213 -41.51354,-13.13976 -6.96979,-5.68099 -16.90856,-12.07415 -25.05859,-16.5625 0.66841,-2.56956 1.339,-4.75996 1.70703,-6.4375 0.2713,-1.23663 0.33783,-2.89598 -1.03125,-4.67383 -1.33363,-1.73179 -5.96362,-4.75627 -7.53711,-6.27343 z m -167.9043,78.75195 c 1.93448,4.85717 5.55664,15.81836 5.55664,15.81836 3.43088,11.96458 6.34711,24.28239 9.73243,55.9414 1.18652,11.09622 1.34624,19.22158 1.28515,23.54688 h 3.31836 c -0.18394,-6.2665 -0.86552,-17.08357 -1.20117,-21.41992 -1.75759,-22.70712 -3.7065,-43.59553 -11.42969,-62.3125 -1.63152,-2.91992 -7.26172,-11.57422 -7.26172,-11.57422 z"
       sodipodi:nodetypes="cscccscssccsscccccsssscsscccsssssccsccscscccccccsccsssscssssccsscccsccscc" /><ellipse
       style="fill:#957ead;fill-opacity:1;fill-rule:evenodd;stroke:#000000;stroke-width:2.5;stroke-linecap:round;stroke-linejoin:round;stroke-miterlimit:20;stroke-dasharray:none;stroke-opacity:1"
       id="ellipse8"
       cx="52.634075"
       cy="355.61642"
       rx="16.012793"
       ry="28.90667" /><ellipse
       style="fill:#f0f0f0;fill-opacity:1;fill-rule:evenodd;stroke:#000000;stroke-width:2;stroke-linecap:round;stroke-linejoin:round;stroke-miterlimit:20;stroke-dasharray:none;stroke-opacity:1"
       id="path8"
       cx="52.592346"
       cy="355.61642"
       rx="9.8040791"
       ry="19.395025" /><path
       id="ellipse9"
       style="fill:#000000;fill-opacity:0.3;fill-rule:evenodd;stroke:none;stroke-width:2;stroke-linecap:round;stroke-linejoin:round;stroke-miterlimit:20;stroke-dasharray:none;stroke-opacity:1"
       d="m 52.786042,334.09032 c -3.878093,0.008 -7.18956,4.01184 -8.45192,8.16836 1.308081,-1.24004 4.482504,-2.14874 5.933004,-2.16259 5.608511,0.32222 9.287941,8.81183 9.288079,19.52368 -0.0033,5.03561 -0.99649,9.87126 -2.769531,13.48437 4.452361,-2.55424 7.540077,-10.13473 7.548607,-17.61743 0.258166,-12.77829 -4.841936,-21.2679 -11.548239,-21.39639 z"
       sodipodi:nodetypes="ccccccc" /><path
       id="ellipse10"
       style="fill:#000000;fill-opacity:0.3;fill-rule:evenodd;stroke:none;stroke-width:2.5;stroke-linecap:round;stroke-linejoin:round;stroke-miterlimit:20;stroke-dasharray:none;stroke-opacity:1"
       d="m 45.387236,329.90688 c -5.365516,4.916 -9.555085,8.06187 -9.569185,26.41473 -4.68e-4,15.96455 7.196835,30.07408 16.040368,30.07515 7.141301,-0.0223 9.751523,-4.37336 11.896988,-10.10683 -2.242351,2.07997 -6.016589,4.07884 -8.537614,4.09937 -10.393697,0.13003 -16.16787,-8.54816 -15.88452,-28.51879 0.117131,-8.25546 2.627078,-16.49586 6.053963,-21.96363 z"
       sodipodi:nodetypes="cccccsc" /><path
       id="ellipse11"
       style="fill:#ffffff;fill-opacity:0.3;fill-rule:evenodd;stroke:none;stroke-width:2.29948;stroke-linecap:round;stroke-linejoin:round;stroke-miterlimit:20;stroke-dasharray:none;stroke-opacity:1"
       d="m 53.072107,327.84552 c -3.20137,0.003 -6.311057,2.01595 -8.838417,5.72084 1.893676,-1.67219 6.024102,-3.5806 8.115157,-3.59805 7.959991,-8.2e-4 13.121432,13.19907 13.121008,28.20718 -0.0024,8.39308 -2.836739,16.31302 -6.354295,21.45679 5.092732,-4.43464 8.357917,-14.03801 8.369074,-24.61464 -1.15e-4,-15.00739 -6.452917,-27.17294 -14.412527,-27.17212 z"
       sodipodi:nodetypes="ccccccc" /><circle
       style="fill:#930000;fill-opacity:1;fill-rule:evenodd;stroke:#000000;stroke-width:0.5;stroke-linecap:round;stroke-linejoin:round;stroke-miterlimit:20;stroke-dasharray:none;stroke-opacity:1"
       id="path32"
       cx="308.35101"
       cy="354.44489"
       r="4" /><path
       id="rect32"
       style="fill:#ffb6b6;fill-opacity:1;fill-rule:evenodd;stroke:#000000;stroke-width:0.569914;stroke-linecap:round;stroke-linejoin:round;stroke-miterlimit:20;stroke-dasharray:none;stroke-opacity:1"
       d="m 307.44531,343.9668 c -0.87501,0 -1.57813,0.70507 -1.57813,1.58008 0,0.87501 0.70312,1.57812 1.57813,1.57812 h 20.82617 c -1.16095,1.97353 -2.74089,5.05594 -2.67969,7.13867 0.07,2.38304 2.29902,5.91254 3.59961,7.77735 h -20.84179 c -0.87906,0 -1.58594,0.70688 -1.58594,1.58594 0,0.87905 0.70688,1.58789 1.58594,1.58789 h 23.24804 c 0.87905,0 1.58594,-0.70884 1.58594,-1.58789 0,-0.87906 -0.70689,-1.58594 -1.58594,-1.58594 h -0.0879 c -1.2235,-1.93086 -3.22245,-5.44748 -3.20508,-7.77735 0.0162,-2.16852 1.97208,-5.43523 3.09766,-7.13867 h 0.8418 c 0.87501,0 1.57812,-0.70311 1.57812,-1.57812 0,-0.87501 -0.70311,-1.58008 -1.57812,-1.58008 z" /><path
       id="circle32"
       style="fill:#930000;fill-opacity:1;fill-rule:evenodd;stroke:#000000;stroke-width:0.5;stroke-linecap:round;stroke-linejoin:round;stroke-miterlimit:20;stroke-dasharray:none;stroke-opacity:1"
       d="m 321.51948,348.65845 a 6.5,6 0 0 0 -6.5,6 6.5,6 0 0 0 6.5,6 6.5,6 0 0 0 6.5,-6 6.5,6 0 0 0 -6.5,-6 z m 0,1.95117 a 4.385735,4.0483708 0 0 1 4.38672,4.04883 4.385735,4.0483708 0 0 1 -4.38672,4.04883 4.385735,4.0483708 0 0 1 -4.38477,-4.04883 4.385735,4.0483708 0 0 1 4.38477,-4.04883 z" /><path
       style="fill:#000000;fill-opacity:0.2;stroke:none;stroke-width:1px;stroke-linecap:butt;stroke-linejoin:miter;stroke-opacity:1"
       d="m 298.21179,320.03847 2.83485,-2.14993 0.52445,52.53485 34.91533,0.006 -1.72463,1.39852 h -36.16254 z"
       id="path29"
       sodipodi:nodetypes="ccccccc" /><path
       style="fill:none;stroke:#000000;stroke-width:0.5;stroke-linecap:butt;stroke-linejoin:miter;stroke-dasharray:none;stroke-opacity:1"
       d="m 301.05314,319.84474 0.19372,50.43383 34.22526,0.12915"
       id="path30"
       sodipodi:nodetypes="ccc" /><circle
       style="fill:#000000;fill-opacity:0.2;fill-rule:evenodd;stroke:#000000;stroke-width:0.8;stroke-linecap:round;stroke-linejoin:round;stroke-miterlimit:20;stroke-dasharray:none;stroke-opacity:1"
       id="path31"
       cx="318.72147"
       cy="331.68948"
       r="10" /><circle
       style="fill:#000000;fill-opacity:1;fill-rule:evenodd;stroke:#000000;stroke-width:0.5;stroke-linecap:round;stroke-linejoin:round;stroke-miterlimit:20;stroke-dasharray:none;stroke-opacity:1"
       id="circle31"
       cx="318.72147"
       cy="331.68948"
       r="7.1900244" /><g
       id="g1"
       style="display:inline"><path
         id="path15"
         style="display:inline;fill:#000000;fill-opacity:0.2;stroke:none;stroke-width:1px;stroke-linecap:butt;stroke-linejoin:miter;stroke-opacity:1"
         d="m 364.20898,316.29297 c 0,0 -0.72611,15.99443 -1.9375,23.89258 -0.29449,1.92007 -0.39779,5.55828 -1.29101,5.68359 -0.66356,0.0931 -2.09091,-3.38508 -2.9707,-5.16602 -1.3846,-2.80278 -3.61719,-8.65429 -3.61719,-8.65429 l 2.45508,11.23633 4.00195,14.20703 6.58789,17.04883 0.61523,4.31444 2.17579,10.18556 0.18164,5.6621 V 400 h 5.11523 c 0,0 -0.25866,-7.75494 -0.73047,-11.32422 -0.41721,-3.1562 -1.32366,-8.13088 -2.19531,-11.60937 -0.35084,-1.4001 -0.25772,-2.79008 -0.12623,-3.42995 0.59693,-2.9048 1.00462,-5.55955 1.03442,-8.5249 0.0372,-3.69539 -0.51757,-10.0725 -0.51757,-10.0725 0,0 -0.79417,2.90121 -1.41992,4.26172 -0.62936,1.36836 -2.25964,5.94143 -2.25964,5.94143 0,0 1.14602,-7.6261 1.74328,-10.07376 0.89273,-3.65854 1.83083,-7.09062 2.0664,-10.84912 0.2293,-3.65845 -0.25902,-10.46191 -0.25902,-10.46191 0,0 -0.78894,3.45331 -1.54883,5.03711 -0.63015,1.31339 -2.02252,4.69199 -2.32617,4.65039 -0.97262,-0.13322 -0.64076,-2.21571 -0.77344,-2.8418 -0.95761,-4.51891 -0.23329,-9.27082 -1.0332,-13.82031 -0.6349,-3.61099 -2.97071,-10.58984 -2.97071,-10.58984 z"
         sodipodi:nodetypes="cssscccccccccsssscscsscssssc" /><path
         id="path1"
         style="color:#000000;display:inline;fill:#000000;-inkscape-stroke:none"
         d="m 364.85547,325.46289 c 0,0 -0.51194,14.53864 -1.02735,21.63281 -0.20476,2.81845 -0.91809,7.43803 -1.38281,10.29883 -0.85612,-2.40593 -1.68043,-4.81181 -2.36133,-7.24023 -2.23763,-7.98055 -6.85351,-24.30469 -6.85351,-24.30469 0,0 1.9406,16.78278 4.25391,25.0332 2.10991,7.52499 5.30085,14.575 7.36328,21.83203 1.55841,5.48362 3.09887,10.94537 3.83398,16.46875 0.4375,3.28725 0.37695,10.81641 0.37695,10.81641 h 2.69922 c 0,0 0.10748,-7.37057 -0.39843,-11.17188 -0.56332,-4.23258 -1.56746,-8.359 -2.67579,-12.41992 l 0.0957,0.041 c 0,0 1.80034,-4.12643 2.49023,-6.42969 0.86204,-2.87797 0.94531,-8.65234 0.94531,-8.65234 0,0 -1.88928,5.5305 -2.66992,8.13672 -0.33996,1.13499 -1.03348,2.89026 -1.59765,4.26757 -0.16877,-0.59774 -0.33474,-1.19965 -0.50391,-1.79492 -0.60743,-2.13733 -1.30624,-4.23126 -2.0332,-6.30859 0.35883,-0.73745 2.12746,-4.40533 2.86914,-6.64844 0.86885,-2.62769 1.11038,-5.31988 1.8164,-7.77734 0.85876,-2.98907 2.37891,-9.24805 2.37891,-9.24805 0,0 -2.91971,5.69929 -3.82031,8.83398 -0.7588,2.64113 -1.00427,5.31175 -1.80078,7.72071 -0.46187,1.39684 -1.45463,3.59515 -2.16211,5.11523 -0.42045,-1.1669 -0.82916,-2.33726 -0.85892,-2.88542 0,0 1.46689,-9.099 1.79056,-13.55403 0.53275,-7.33303 -0.76758,-21.76172 -0.76758,-21.76172 z"
         sodipodi:nodetypes="cscscsssccsccscscscsscssccscc" /></g><path
       style="color:#000000;fill:#000000;-inkscape-stroke:none"
       d="m 354.95898,280.21094 -2.42382,0.61328 c 0,0 1.4995,5.94047 2.18945,8.89062 1.41384,6.04549 3.06966,11.98161 3.98633,17.98438 1.06023,6.94292 1.64696,14.28318 2.18554,21.3457 0.43725,5.73372 0.63747,11.21275 0.77149,16.98242 0.0944,4.06614 -0.25781,12.44532 -0.25781,12.44532 l 2.49804,0.10546 c 0,0 0.35735,-8.32417 0.25782,-12.60937 -0.13451,-5.79076 -0.33533,-11.31691 -0.77735,-17.11328 -0.53903,-7.0684 -1.12791,-14.46658 -2.20703,-21.5332 -0.94707,-6.2019 -2.62383,-12.20146 -4.02148,-18.17774 -0.70342,-3.00772 -2.20118,-8.93359 -2.20118,-8.93359 z"
       id="path3" /></g></svg>
