<?xml version="1.0" encoding="UTF-8" standalone="no"?>
<!-- Created with Inkscape (http://www.inkscape.org/) -->

<svg
   version="1.1"
   id="svg171226"
   width="400"
   height="400"
   viewBox="0 0 400 400"
   sodipodi:docname="insurrectionMaleLeatherJacket.svg"
   inkscape:version="1.3 (0e150ed, 2023-07-21)"
   xml:space="preserve"
   xmlns:inkscape="http://www.inkscape.org/namespaces/inkscape"
   xmlns:sodipodi="http://sodipodi.sourceforge.net/DTD/sodipodi-0.dtd"
   xmlns="http://www.w3.org/2000/svg"
   xmlns:svg="http://www.w3.org/2000/svg"><defs
     id="defs171230" /><sodipodi:namedview
     id="namedview171228"
     pagecolor="#ffffff"
     bordercolor="#666666"
     borderopacity="1.0"
     inkscape:showpageshadow="2"
     inkscape:pageopacity="0.0"
     inkscape:pagecheckerboard="0"
     inkscape:deskcolor="#d1d1d1"
     showgrid="false"
     inkscape:zoom="5.9891944"
     inkscape:cx="236.67624"
     inkscape:cy="200.0269"
     inkscape:window-width="1920"
     inkscape:window-height="1145"
     inkscape:window-x="2277"
     inkscape:window-y="25"
     inkscape:window-maximized="0"
     inkscape:current-layer="layer1"><inkscape:page
       x="0"
       y="0"
       id="page171232"
       width="400"
       height="400"
       margin="0"
       bleed="0" /></sodipodi:namedview><g
     inkscape:groupmode="layer"
     id="layer1"
     inkscape:label="Caitian Neck"><path
       id="path171974-7"
       style="display:inline;fill:#cd976d;fill-opacity:1;fill-rule:nonzero;stroke:none;stroke-width:1.33333"
       d="M 202.7793 134.83984 L 203.05859 174.49609 L 201.12109 194.83008 L 200.08398 198.44141 C 200.08398 198.44141 192.85403 201.49803 180.69336 207.83789 C 175.64715 210.46869 180.28502 221.23897 180.77539 226.92773 C 185.95007 238.71393 193.76339 279.65245 204.63672 281.06445 L 264.96094 292.03125 L 297.39844 287.49219 L 291.41211 260.08789 L 276.12109 234.05273 L 273.44141 234.59961 C 273.4741 234.54003 273.50431 234.47945 273.53711 234.41992 C 274.36245 232.92192 275.22353 231.40423 276.07812 229.89062 L 290.5293 211.78711 L 283.71875 206.42969 C 283.84354 204.36807 283.86885 202.17909 283.74805 199.81055 L 202.7793 134.83984 z " /><path
       id="path1917"
       style="display:inline;opacity:0.199997;fill:#000000;fill-opacity:1;fill-rule:nonzero;stroke:none;stroke-width:1.33333"
       d="m 202.7793,134.83984 0.27929,39.65625 -1.93554,20.33203 -0.53711,1.86524 -3.58985,3.95117 c 0,0 -15.87953,7.83216 -16.41601,7.93945 l 2.34765,19.05469 7.61799,27.14324 c 0,0 8.68098,-4.50209 12.53957,-5.78149 3.68204,-1.22087 7.06925,-2.00796 13.2194,-1.25628 -0.0267,-1.31867 -0.0476,-2.6397 0.0391,-3.95703 0.0693,-1.04933 0.008,-2.16111 0.24805,-3.17578 0.356,0.188 0.76605,0.22628 1.13672,0.37695 -0.0347,-1.77867 -0.10236,-3.72473 0.45898,-5.41406 1.28133,1.60667 3.08061,2.89752 4.80859,3.99219 0.32266,-0.78 0.2325,-1.67327 0.67383,-2.47461 0.416,-0.75733 1.0023,-1.35941 1.6543,-1.91407 0.928,-0.78932 2.27289,-1.49589 2.85156,-2.44921 -0.616,2.14265 -0.11083,4.82446 0.70117,6.84179 0.66133,1.64933 1.93574,3.67746 3.42774,4.68946 0.0827,-0.83333 -0.0133,-1.82953 0.19336,-2.63086 1.24133,1.54664 3.16548,2.18303 4.52148,3.48437 0.10933,-0.88134 -0.69933,-2.31712 -0.97265,-3.17578 -0.22266,-0.70134 -0.44295,-1.36103 -0.48829,-2.0957 -0.0973,-1.58533 0.46558,-3.08402 1.74024,-4.05469 1.95867,-1.49067 4.4262,-3.5803 4.51953,-6.26563 0.61467,1.98 0.13891,4.06076 0.37891,6.10743 1.10131,0.0107 2.29837,-1.30094 2.81835,-2.1836 0.44266,-0.75334 0.77571,-1.57809 1.09571,-2.38476 0.27334,0.552 0.1846,1.26915 0.44726,1.78515 0.62267,-1.09333 1.56889,-1.70417 2.57422,-2.29882 1.05467,-0.62533 1.84808,-0.77972 3.08008,-0.87305 0.796,-0.0587 1.77112,-0.24207 2.56445,-0.082 2.428,0.48534 4.81697,1.37094 7.29297,1.84961 2.04718,0.39714 8.52209,2.25138 11.51172,1.09961 0.0923,0.009 0.26757,0.0313 0.34961,0.0391 l 0.29883,-0.375 c 0.21757,-0.15233 0.41244,-0.32283 0.55469,-0.53516 0,0 0.48351,-0.72262 0.66406,-0.99219 l 15.08008,-18.89062 -6.8086,-5.35547 c 0.12461,-2.06058 0.14606,-4.25365 0.0254,-6.62109 l -1.875,-1.50586 c -0.10666,-0.0853 -0.21303,-0.16857 -0.31836,-0.25391 l -56.53711,-45.36914 c -2.57598,-2.06666 -5.15117,-4.13317 -7.72851,-6.20117 -1.22533,-0.984 -2.47708,-1.9433 -3.70508,-2.91797 -0.13333,-0.10666 -0.24248,-0.23822 -0.36914,-0.35156 z"
       sodipodi:nodetypes="ccccccccscccccccccccccccccccccccccccccccccccccccc" /><path
       d="m 292.98639,209.7856 c -0.009,-0.004 -0.152,0.14267 -0.16133,0.15334 -4.86533,4.952 -8.33467,11.59866 -12.03867,17.21733 -0.896,1.36133 -1.19733,2.88267 -2.20266,4.20667 -0.14534,-0.29734 -0.29067,-0.59467 -0.436,-0.892 -1.66267,2.33733 -2.88267,4.79466 -3.98667,7.33733 l -1.07867,-0.564 c -0.90933,1.66133 -1.412,3.472 -1.45733,5.24267 -0.52933,0.008 -1.044,-0.11734 -1.47067,-0.36134 -0.48266,1.17467 -0.62,2.43334 -0.392,3.596 0.032,0.164 0.0707,0.33867 -10e-4,0.504 -0.18667,0.42934 -0.848,0.40667 -1.30133,0.29067 0.0693,0.436 0.63066,4.90133 1.67866,4.46133 -0.49866,0.19867 -1.028,0.29467 -1.54133,0.376 -0.04,1.30934 0.57067,2.37734 1.1,3.484 0.005,0.0107 -0.91467,0.0147 -1.01467,-0.007 -0.316,-0.068 -0.59733,-0.204 -0.83866,-0.38934 -0.54134,-0.416 -0.85067,-1.04266 -1.06,-1.664 -0.26534,-0.78933 -0.38,-1.63466 -0.436,-2.47866 -0.032,-0.46534 -0.028,-0.87867 -0.19067,-1.308 -0.16667,-0.43867 -0.388,-0.888 -0.39867,-1.37467 0.20534,0.0133 0.39067,0.164 0.596,0.0787 0.0533,-0.45334 -0.22533,-0.73467 -0.22933,-1.16267 -0.008,-0.772 0.28933,-1.58667 0.408,-2.35733 0.064,-0.41067 0.14533,-0.78 0.284,-1.17734 0.17467,-0.50266 0.24133,-1.07466 0.464,-1.54533 0.204,-0.012 0.27067,0.14533 0.38,0.26133 0.17333,-0.60533 0.47867,-1.46933 0.89733,-1.99866 0.24667,0.0333 0.29734,0.36133 0.444,0.512 -0.0627,-0.064 0.348,-1.18934 0.38267,-1.348 0.1,-0.45334 0.17067,-0.916 0.30667,-1.36534 0.224,-0.736 0.62666,-1.47066 0.99066,-2.168 0.29067,-0.55733 0.688,-1.09333 1.02134,-1.63333 0.328,-0.532 0.69733,-1.03333 1.01733,-1.572 0.19333,-0.32533 0.35467,-0.70667 0.592,-1.00933 0.0813,0.21066 0.24133,0.408 0.316,0.616 0.26267,-0.38134 0.36267,-0.85467 0.584,-1.25467 0.28533,-0.51733 0.50133,-1.06933 0.736,-1.60133 0.44933,-1.024 0.88933,-2.05334 1.46533,-3.036 2.47734,-4.232 4.96134,-8.46 7.448,-12.688 1.15734,-1.96934 2.316,-3.93734 3.476,-5.90534 0,0 5.64667,2.52267 5.648,2.524"
       style="display:inline;fill:#000000;fill-opacity:1;fill-rule:nonzero;stroke:none;stroke-width:1.33333"
       id="path1927" /><path
       id="path2083"
       style="display:inline;fill:#000000;fill-opacity:1;fill-rule:nonzero;stroke:none;stroke-width:1.33333"
       d="m 201.92773,154.77539 c 0,0 0.87874,21.43641 -1.19726,29.67773 0,0 1.00041,-1.99145 1.31641,-3.1621 0,0 -0.94883,7.34575 -1.90821,12.82812 -0.18874,0.62974 -0.37784,1.25892 -0.56836,1.88867 -0.10973,0.36213 -0.40835,0.93756 -0.63086,1.47852 -6.16575,4.61226 -11.83394,7.01315 -18.5332,9.77539 l 1.41797,2.64453 c 6.36606,-2.70101 14.31005,-7.2532 16.67925,-9.04918 2.75203,-2.08618 3.2031,-5.92234 3.36176,-8.05434 0.17467,-2.34399 0.35277,-5.20292 0.88477,-7.29492 0.532,-2.092 0.70859,-0.38347 1.03125,-4.99414 0.33334,-4.75065 0.61499,-6.85788 0.73633,-8.56055 0.12266,-1.70132 0.25268,-3.14695 0.16601,-6.98828 -0.108,-4.68932 -0.20898,-6.65039 -0.20898,-6.65039 z"
       sodipodi:nodetypes="ccccccccscsccccc" /></g><g
     inkscape:groupmode="layer"
     id="layer3"
     inkscape:label="Neck"
     style="display:none"><path
       d="m 213.63253,151.29441 -13.54934,47.14666 c 0,0 -7.22894,3.0567 -19.38962,9.39657 -5.04621,2.6308 -0.40927,13.40104 0.0811,19.08981 5.17468,11.78621 12.9892,52.72587 23.86254,54.13787 l 60.32302,10.9668 32.43907,-4.54074 -5.98731,-27.40389 -15.29083,-26.03502 -4.01929,0.8206 18.428,-23.08667 z"
       style="display:inline;fill:#cd976d;fill-opacity:1;fill-rule:nonzero;stroke:none;stroke-width:1.33333"
       id="path171974"
       sodipodi:nodetypes="ccsccccccccc" /><path
       id="path171984"
       style="display:inline;opacity:0.199997;fill:#000000;fill-opacity:1;fill-rule:nonzero;stroke:none;stroke-width:1.33333"
       d="m 213.63281,151.29492 -13.04687,45.39844 -3.58985,3.95117 c 0,0 -15.87953,7.83216 -16.41601,7.93945 l 2.34765,19.05469 6.44922,21.7168 c 0,0 7.35009,-7.85946 13.51986,-11.26574 8.4658,-4.6739 20.23152,-8.18345 25.20413,-8.40229 12.79353,-0.56305 24.2701,-1.82548 30.36,0.002 6.33865,1.90133 13.0987,2.6653 15.4707,2.89063 L 290.5293,211.7871 Z"
       sodipodi:nodetypes="ccccccsscccc" /><path
       id="path171994"
       style="display:inline;fill:#000000;fill-opacity:1;fill-rule:nonzero;stroke:none;stroke-width:1.33333"
       d="m 211.64453,149.5293 c -1.01067,4.99732 -6.1998,23.82444 -7.36914,28.78711 -0.956,4.06399 -1.9576,8.11858 -3.07227,12.14257 -0.51599,1.85867 -1.07414,3.70216 -1.63281,5.54883 -0.10973,0.36213 -0.40835,0.93756 -0.63086,1.47852 -6.16576,4.61227 -11.83393,7.01315 -18.5332,9.77539 l 1.41797,2.64453 c 7.03224,-2.98366 15.8108,-7.16213 18.68305,-10.10554 3.08684,-3.58719 4.54359,-13.03056 6.41851,-19.76165 1.25132,-4.4923 7.06207,-22.68618 8.55274,-27.10351 z"
       sodipodi:nodetypes="ccccccccscc" /><path
       d="m 293.27599,213.31907 c -2.83733,2.044 -16.28266,19.912 -18.592,22.53067 -1.87866,2.13066 -4.41733,10.85066 -7.52933,10.948 -2.104,0.0653 -1.74133,-3.72534 -1.19333,-5.332 0.26266,-0.76934 21.288,-30.90934 21.288,-30.90934 0,0 6.02666,2.76267 6.02666,2.76267"
       style="display:inline;fill:#000000;fill-opacity:1;fill-rule:nonzero;stroke:none;stroke-width:1.33333"
       id="path171998" /></g><g
     id="g171234"
     inkscape:groupmode="layer"
     inkscape:label="Page 1"
     style="display:inline"><path
       style="fill:#c1ad9c;fill-opacity:1;stroke:none;stroke-width:1px;stroke-linecap:butt;stroke-linejoin:miter;stroke-opacity:1"
       d="m 200.42918,278.54077 37.98284,6.22318 22.74678,1.93133 19.09871,-1.50215 15.66524,-1.93133 1.93133,20.81545 0.21459,22.96138 L 294.63519,377.897 291.6309,400 H 258.58369 L 233.2618,348.92704 208.58369,297.42489 Z"
       id="path5"
       sodipodi:nodetypes="ccccccccccccc" /><path
       id="path171958"
       style="fill:#5a5d49;fill-opacity:1;fill-rule:nonzero;stroke:none;stroke-width:1.33333"
       d="m 183.66116,204.62457 -3.1254,0.13823 -6.1256,2.20986 -40.91407,21.15429 -38.587887,22.54883 -14.108688,4.54082 -6.674728,4.50878 1.756575,3.91449 -9.0298,6.18044 c -11.834754,12.45087 -19.196031,25.30386 -24.970703,40.91211 l -13.466797,45.0293 1.714844,10.13476 -6.826172,16.08985 2.361328,18.01367 233.441408,-0.0215 -0.14844,-4.2793 -0.61914,3.66601 c -14.41012,-22.20875 -8.96342,-19.3091 -22.30078,-43.95312 0,0 -31.36437,-68.11042 -43.91406,-97.92773 -9.42502,-22.39328 -10.57422,-50.80665 -10.57422,-50.80665 z m 93.15777,28.88507 3.78331,5.73606 2.66011,4.71494 c 0,0 5.48538,10.11069 6.90538,14.08534 1.42,3.976 3.75589,9.87675 4.52065,15.06287 3.43098,23.2667 3.33861,46.20891 2.7364,69.32859 C 296.92306,361.69909 292.14116,400 292.14116,400 l 93.54829,-0.0334 -0.67187,-16.16992 2.13086,-9.97071 -4.35156,-14.6289 4.33984,-16.87891 c -1.52533,-11.00265 -8.98679,-43.9584 -12,-51.28516 -2.94798,-7.16817 -3.9092,-10.59968 -8.07351,-14.08448 -1.16742,-0.97693 0.87381,-4.01232 -1.90399,-5.92384 -2.77779,-1.91151 -5.26077,1.26184 -7.15114,0.20529 -11.01081,-6.15408 -31.93819,-16.94397 -40.8655,-18.92744 -10.46132,-2.32532 -26.81508,-12.73545 -37.03906,-17.07812 z"
       sodipodi:nodetypes="ccccccccccccccccccsccccccssccccccsszsccc" /><path
       d="m 367.95412,278.712 c 0,0 3.12934,28.84534 1.144,48.11334 0,0 3.30134,-23.672 0.824,-46.24134 z"
       style="fill:#000000;fill-opacity:1;fill-rule:nonzero;stroke:none;stroke-width:1.33333"
       id="path172006" /><path
       id="path172010"
       style="fill:#000000;fill-opacity:1;fill-rule:nonzero;stroke:none;stroke-width:1.33333"
       d="m 182.90039,201.38281 c -2.7171,0.2622 -7.7572,2.38438 -10.125,3.31836 -2.8671,1.13093 -22.34438,10.12888 -23.46169,13.62905 -7.19198,4.34848 -15.28443,9.22322 -23.27854,13.84751 -16.79056,9.7119 -32.65096,18.88602 -36.656254,20.38868 -0.76302,0.28609 -1.439357,0.67564 -2.158203,1.01757 -0.572625,-0.23467 -1.55171,-0.58592 -3.130859,-0.74804 -2.223903,-0.22831 -5.168133,0.0716 -8.044922,2.17773 -2.890052,2.11581 -3.532137,4.81768 -3.072266,6.7168 0.187394,0.77387 0.511167,1.39009 0.828125,1.89453 -0.07744,0.0958 -0.254662,0.27537 -0.300781,0.34375 -1.077323,0.63733 -5.047731,1.38449 -8.318359,3.61914 -9.855778,5.31259 -22.83025,27.76084 -28.478516,46.72656 -2.604972,8.74696 -8.505624,25.51129 -10.941406,42.15625 -0.428857,2.93061 2.159856,6.06456 1.763672,8.92774 -0.690411,4.98935 -6.021306,12.65811 -6.816407,16.5625 3.047491,7.45814 2.833576,15.17714 2.605469,18.03906 l 4.236328,-0.21484 c 0.008,-5.8318 0.01631,-11.6643 -2.550781,-17.4961 -0.46017,-3.15574 6.000609,-9.7445 7.085938,-16.35547 0.454972,-2.77127 -2.053552,-6.80964 -1.53125,-9.875 2.646368,-15.53138 7.941441,-32.90173 11.121093,-41.28906 5.508101,-14.52932 17.764347,-36.14585 24.84961,-43.48242 7.085263,-7.33656 23.557415,3.6386 27.609375,9.20117 0.306657,-1.03467 -0.155266,-2.13012 -0.669922,-3.07812 -1.057164,-1.94643 -2.417321,-3.6542 -3.925782,-5.22071 7.791251,3.80975 17.209568,8.37555 24.312498,11.68164 14.34744,6.67811 46.85879,20.92388 47.57617,21.23829 l 29.5586,64.27929 c 9.96802,2.90555 19.98377,5.74722 30.37858,9.22653 0,0 -33.24475,-66.35268 -43.96061,-89.37887 -10.75542,-23.11117 -20.28311,-41.4493 -23.32227,-53.57422 -1.66382,-6.63791 -1.33193,-11.14941 -1.2207,-13.50195 0.047,-0.99426 0.0883,-1.61925 0.12109,-2.13868 1.50314,-3.32387 18.27116,-10.93018 20.5586,-12.09765 2.32514,-1.18671 6.35581,-2.89072 8.53906,-2.54883 -1.94272,1.45496 -3.01565,5.25052 -3.07031,6.61719 -0.14667,3.67857 -0.81963,8.58309 0.74414,14.82422 2.11501,8.44146 5.48382,22.23185 13.04297,38.89843 6.58925,14.52837 23.0258,51.45389 24.17578,53.89258 C 232.66115,352.87698 255.875,400 255.875,400 h 5.6582 c -9.21396,-16.89055 -32.03827,-63.92386 -40.23828,-80.9082 -5.44765,-11.28358 -18.87441,-41.80151 -24.54492,-53.92774 -3.42728,-7.32901 -10.90302,-31.58018 -12.68945,-38.1289 -2.39679,-8.7862 -0.93571,-16.43971 -0.59571,-18.09571 3.40502,-2.43455 10.61861,-5.81936 0.44336,-7.54687 -0.27878,-0.0473 -0.61965,-0.0472 -1.00781,-0.01 z m -33.60351,20.82031 c -0.0197,0.13464 -0.0103,0.20495 -0.0371,0.35352 -0.20268,2.6347 0.12931,6.80721 1.3789,13.88477 2.24032,12.68892 12.77979,30.9227 23.44531,53.77734 -6.9741,-2.21166 -31.53001,-10.08604 -44.21093,-15.42187 -12.27474,-5.16492 -32.308981,-15.76281 -39.009769,-19.34571 4.5456,-1.80588 19.451409,-10.41883 36.800779,-20.45508 7.36326,-4.25887 14.62541,-8.61049 21.63282,-12.79297 z m 127.6289,9.1875 c -0.87471,0.85651 -1.23206,1.78936 -1.66797,2.92579 0,0 11.48266,16.50613 15.4375,29.67773 4.03813,13.44879 5.75091,28.00856 6.36719,50.64258 0.60703,22.29462 -6,85.36328 -6,85.36328 h 3.4815 c 0,0 7.05329,-62.0482 6.42429,-85.14964 -0.61977,-22.7621 -2.30724,-37.89926 -6.20238,-51.80544 -2.95615,-10.55386 -9.62099,-20.66031 -13.39514,-26.61974 1.94235,0.1436 4.05189,2.08478 5.8265,3.09826 5.07237,2.8968 8.46568,5.12815 13.35156,7.14453 3.61071,1.49013 6.74914,1.41457 8.7832,5.79297 1.23008,3.44917 5.89764,16.7461 7.46875,24.60742 1.84134,9.21344 2.6197,15.52 3.41211,27.30664 0.78961,11.74512 1.06162,29.95258 0.42773,43.20508 -0.62261,12.5186 -2.42734,24.927 -3.96679,37.35351 8.19164,-11.89902 14.0717,-21.64782 20.64062,-33.55078 l -2.125,-53.57226 c 1.32201,-0.53316 12.8693,-5.20643 18.87891,-8.75196 3.08624,-1.82075 6.11574,-3.69809 8.61133,-5.61523 1.87959,-1.44393 3.17244,-2.52596 4.09375,-3.9043 0.74029,0.59519 1.54148,1.2062 2.01953,1.73242 5.1319,5.64933 14.21566,42.09215 16.625,60.83204 0.28307,2.3898 -4.56823,12.78798 -3.82031,17.6621 0.34887,2.27364 3.21396,9.89022 4.38672,13.8418 0.49973,1.68415 -2.13104,6.55209 -3.19922,12.02735 -0.38265,1.96132 2.23458,4.96556 2.20703,6.96484 -0.0337,2.44165 -0.91976,4.21878 -2.22657,7.36719 h 4.79102 c 0,0 1.28762,-2.29037 1.23047,-7.375 -0.0186,-1.65469 -2.52167,-4.19768 -2.30273,-6.51953 0.35417,-3.75707 2.20825,-8.59361 2.10546,-12.36719 -0.18717,-6.87147 -3.90513,-11.94806 -4.01367,-13.9707 -0.23574,-4.3931 4.09797,-13.95939 3.67969,-17.41602 -2.27088,-18.76639 -7.63299,-44.24515 -17.09961,-63.16602 -0.74777,-0.82344 -1.83258,-1.72054 -3.05859,-2.64648 0.35836,-1.4127 0.32582,-2.69683 -0.12696,-3.77148 -0.61465,-1.45888 -1.82415,-2.43687 -3.11914,-2.9668 -0.65718,-0.26893 -1.37327,-0.43459 -2.14453,-0.48633 -1.60067,-0.10738 -3.24624,-0.0181 -5.20117,0.74414 -13.17569,-7.15513 -31.16578,-14.70578 -38.21484,-17.48437 -3.04169,-1.19898 -5.98533,-2.41601 -8.91211,-3.69727 -1.61546,-3.93148 -9.40373,-5.31717 -14.58594,-7.83594 -7.58862,-3.68836 -15.123,-9.55731 -18.86719,-9.61719 z m 35.51758,22.37891 c 2.00842,0.66706 4.14922,1.32314 5.84766,1.87109 6.27759,2.02463 23.13668,9.25387 35.95117,16.1211 -4.10072,2.62683 -8.85881,5.42783 -14.91992,8.68164 -5.67013,3.0439 -16.19281,7.63867 -18.02735,8.4375 -0.51993,-4.05094 -1.15527,-7.86097 -2.04297,-12.30274 -1.36664,-6.83818 -4.90743,-17.36442 -6.80859,-22.80859 z m -229.951172,1.93555 c 2.30682,-0.12066 3.939453,0.77539 3.939453,0.77539 0.03797,0.0206 27.184769,14.73062 42.279299,21.08203 14.89128,6.2659 46.20068,16.07238 47.13672,16.36523 11.47495,24.2808 37.73325,76.21227 39.22656,79.16407 l -21.93945,-6.21289 -28.49219,-62.41602 c 3.80066,-2.94892 6.84279,-5.28984 9.88476,-8.8457 -4.06847,2.78158 -7.83356,5.10811 -11.82617,6.67578 0,0 -33.17289,-14.43486 -47.58398,-21.14258 -14.30313,-6.65746 -37.999554,-18.41532 -38.386721,-18.60742 -0.08188,-0.088 -0.633419,-0.659 -0.841797,-1.51953 -0.223693,-0.92378 -0.275026,-1.97578 1.929687,-3.58985 1.663483,-1.21783 3.289736,-1.65611 4.673829,-1.72851 z m 279.292972,15.87695 c 0.83842,0.0373 1.52351,0.25431 2.11914,0.49805 0.81353,0.3329 1.4459,0.87539 1.76172,1.625 0.31582,0.7496 0.38024,1.80217 -0.29297,3.38086 -0.60784,1.42541 -1.87235,2.57396 -4.2168,4.375 -2.34445,1.80103 -5.30373,3.64372 -8.35742,5.44531 -5.92244,3.49408 -19.35938,9.25195 -19.35938,9.25195 -3.70623,-0.9987 -5.90998,-1.67625 -10.47461,-3.64062 3.12539,2.35037 5.92811,3.94943 9.69727,5.4414 l 2.12695,52.80274 -14.44726,25.10937 c 0.99964,-7.77148 2.35586,-18.99248 2.79492,-28.17187 0.6407,-13.39504 0.3689,-31.61365 -0.42969,-43.49219 -0.33774,-5.02376 -0.69319,-9.00075 -1.11328,-12.72265 0.8316,-0.36009 12.71082,-5.50883 18.91211,-8.8379 6.32063,-3.3931 11.27753,-6.31735 15.53711,-9.06445 2.52444,-1.62807 4.34481,-2.06223 5.74219,-2 z M 108.375,307.01172 c 0,0 7.84244,18.71142 9.92969,34.44726 0.86272,9.88571 2.93968,19.69645 3.71289,29.56055 0.33951,5.80118 1.95516,15.70995 1.26953,28.98047 h 6.7168 c 0.49001,-13.1116 -1.39165,-34.06223 -2.14649,-39.13086 -3.07024,-20.61605 -9.86591,-37.37539 -19.48242,-53.85742 z m 260.31055,28.95508 c -1.2,9.90523 -1.75553,14.4154 -2.08399,19.20508 -1.30241,18.99165 -1.55271,23.93273 -3.54297,44.79492 h 5.57422 c 0.484,-9.2159 1.59261,-30.13901 1.86328,-33.65625 l -0.0625,-8.32813 c -0.64933,-15.30513 -1.74804,-22.01562 -1.74804,-22.01562 z"
       sodipodi:nodetypes="csccccssscccsssccccsssscccscccssscsccccsccssscssccscsccccccsccsscsscssccccsscccssssccsssssccssscscsccccscscscsccccccscssssscssscccccsscsssccsccsccsccccccc" /><path
       id="path172176"
       style="display:inline;opacity:0.199997;fill:#000000;fill-opacity:1;fill-rule:nonzero;stroke:none;stroke-width:1.33333"
       d="m 183.28182,204.24522 -8.87166,2.72744 -40.69948,22.01266 -38.480589,22.33424 -7.556973,3.12443 -6.337122,-0.0838 -6.358002,4.07171 1.332553,4.5642 -9.888672,5.75196 c 0,0 -8.252547,9.71172 -10.304687,12.70703 -8.390085,12.24619 -15.523438,32.38867 -15.523438,32.38867 l -11.904297,42.31445 0.890625,10.19141 -6.470703,15.00586 4.09375,10.27148 L 26.677734,400 H 56 c 0.358306,-1.28493 0.693433,-2.41325 1.046875,-3.66406 0.911576,-0.95886 1.815487,-1.91163 2.890625,-3.02735 3.052976,-3.16821 9.868066,-8.98988 12.441406,-12.74609 2.573341,-3.75621 5.042528,-6.4718 3.945313,-8.64844 -1.097215,-2.17664 -1.630149,-1.54783 -5.00586,-1.0625 -2.09167,0.30072 -4.85583,1.79174 -7.845703,3.64649 17.147735,-55.50534 27.710753,-67.7287 33.632813,-72.86524 6.739021,-5.84514 18.617451,-11.7515 26.289441,-14.54082 0.26184,-1.04705 2.0337,-3.92901 4.18736,-5.08138 5.33143,-2.85272 10.77214,-0.23558 14.33151,-1.4448 50.34024,-17.10204 55.18583,-12.84511 55.18583,-12.84511 0,0 -17.90914,-32.63335 -14.33491,-62.18102 z"
       sodipodi:nodetypes="cccccccccsccccccccsssscscssccc" /><path
       d="m 114.84997,321.58574 c -3.16742,-0.53363 6.73268,16.92553 9.95593,28.94158 l 0.44607,7.58881 c 0,0 2.16032,18.5477 4.04081,41.88387 h 19.88169 c -4.75399,-23.12251 -11.51245,-40.54976 -15.17633,-48.92624 -3.66388,-8.37647 -15.98075,-28.9544 -19.14817,-29.48802 z"
       style="opacity:0.199997;fill:#000000;fill-opacity:1;fill-rule:nonzero;stroke:none;stroke-width:1.33333"
       id="path172192"
       sodipodi:nodetypes="zcccczz" /><path
       style="opacity:0.2;fill:#000000;fill-opacity:1;stroke:none;stroke-width:0.911631px;stroke-linecap:butt;stroke-linejoin:miter;stroke-opacity:1"
       d="m 368.9541,347.11063 c 0,0 4.95481,30.85869 7.49995,39.15405 0.46918,1.52922 -1.95138,4.4307 -1.90892,5.75791 0.18392,5.74805 1.27593,7.97741 1.27593,7.97741 H 366.379 Z"
       id="path2"
       sodipodi:nodetypes="cssccc" /><path
       style="color:#000000;fill:#000000;-inkscape-stroke:none"
       d="m 380.81076,367.08841 c -0.53095,0.72831 -0.89907,1.60876 -0.91037,2.53464 -0.0121,0.98584 0.49043,1.59583 0.8125,2.2207 0.32207,0.62487 0.592,1.26751 0.58398,2.29102 -0.0168,2.1487 -1.00413,4.20014 -2.91406,8.39062 -0.88094,1.93285 -3.21794,5.73746 -4.87342,8.98973 -1.92517,3.78209 -3.44579,6.9824 -3.44579,6.9824 0,0 2.73272,-3.23914 4.78406,-6.2983 2.05133,-3.05917 4.32929,-6.59655 5.35351,-8.84375 1.90041,-4.16961 3.07431,-6.47541 3.0957,-9.20508 0.0111,-1.41568 -0.42314,-2.4786 -0.80664,-3.22266 -0.38349,-0.74405 -0.98652,-1.32273 -1.00712,-1.43299 -0.31526,-1.68779 0.93479,-3.72048 0.93479,-3.72048 0,0 -0.9693,0.43923 -1.60714,1.31415 z"
       id="path1"
       sodipodi:nodetypes="sssssscssssscs" /><path
       style="fill:none;stroke:#000000;stroke-width:3;stroke-linecap:butt;stroke-linejoin:miter;stroke-dasharray:none;stroke-opacity:1"
       d="m 201.28755,279.39914 c 0,0 43.97381,7.3281 60.49793,7.2701 16.52412,-0.058 34.35186,-2.97825 34.35186,-2.97825"
       id="path4"
       sodipodi:nodetypes="czc" /><path
       style="fill:#000000;fill-opacity:0.2;stroke:none;stroke-width:1px;stroke-linecap:butt;stroke-linejoin:miter;stroke-opacity:1"
       d="m 34.293162,358.10558 c 0,0 8.018827,-9.1669 12.594391,-13.65657 4.575564,-4.48967 9.821349,-9.49504 14.870486,-13.20135 5.049137,-3.70631 11.411945,-7.10208 15.173965,-9.10438 3.76202,-2.0023 4.764477,-2.81164 7.131764,-3.33827 2.367287,-0.52663 5.614366,-0.30348 6.676544,0 1.062178,0.30348 3.60481,2.47406 3.945231,4.24871 0.340421,1.77465 1.507838,1.07588 -1.820876,4.70393 -3.328714,3.62805 -15.577618,5.91955 -23.216166,9.71134 -7.638548,3.79179 -15.178413,7.29615 -22.00225,11.68395 -6.823838,4.38781 -13.353089,8.95264 -13.353089,8.95264 z"
       id="path8"
       sodipodi:nodetypes="czzzzzzzzzc" /><path
       style="fill:#000000;fill-opacity:0.2;stroke:none;stroke-width:1px;stroke-linecap:butt;stroke-linejoin:miter;stroke-opacity:1"
       d="m 225.32189,329.61373 c 0,0 18.56456,-11.33098 31.55138,-16.50835 12.98681,-5.17737 26.70372,-11.17058 30.27276,-10.72961 3.56905,0.44096 4.4381,4.83231 2.09832,8.93477 -2.33978,4.10246 -13.10016,9.79686 -21.00401,16.15727 -7.90385,6.36041 -16.76809,15.52817 -21.23385,21.58493 -4.46576,6.05676 -7.2701,12.8495 -7.2701,12.8495 z"
       id="path9"
       sodipodi:nodetypes="czzzzzcc" /><path
       style="color:#000000;fill:#000000;fill-opacity:0.2;-inkscape-stroke:none"
       d="m 275.27249,233.83323 -2.58531,1.86082 c 0,0 10.45799,13.1473 14.43845,24.37966 4.04269,11.40796 6.46509,23.9034 7.76405,43.01613 1.28741,18.94276 -1.55703,54.8068 -2.89516,70.83959 C 290.66206,389.89422 289.02854,400 289.02853,400 h 2.46094 c 0,0 1.65712,-9.80502 2.99723,-25.86158 1.33445,-15.98855 4.21865,-51.77369 2.89712,-71.2185 -1.30998,-19.27482 -3.77816,-32.04672 -7.90077,-43.68019 -4.18483,-11.80907 -14.21056,-25.4065 -14.21056,-25.4065 z"
       id="path10"
       sodipodi:nodetypes="ccsssccsssc" /><path
       id="path12"
       style="fill:#000000;fill-opacity:0.2;stroke:none;stroke-width:1px;stroke-linecap:butt;stroke-linejoin:miter;stroke-opacity:1"
       d="M 366.52344 276.82422 C 366.52344 276.82422 354.6188 284.22644 347.85352 287.125 C 341.08823 290.02357 326.07227 293.99219 326.07227 293.99219 L 333.47656 297.42578 L 333.62695 297.35156 L 335.94336 346.45898 L 338.41211 295.17188 L 337.49414 295.41602 L 352.36133 287.98242 L 366.52344 276.82422 z " /><path
       style="fill:#000000;fill-opacity:0.2;stroke:none;stroke-width:1px;stroke-linecap:butt;stroke-linejoin:miter;stroke-opacity:1"
       d="m 161.80258,302.57511 -23.45786,-9.02106 c -6.35635,-3.36411 -38.33088,-17.08441 -54.840655,-26.24313 -8.372052,-4.64436 -9.345977,-9.12969 -7.963763,-8.44117 1.624778,0.80935 75.852628,37.08185 93.558408,39.8427 9.4304,25.21503 19.16429,49.0644 34.20906,72.45855 l -11.46228,-3.35984 z"
       id="path16"
       sodipodi:nodetypes="ccsscccc" /><path
       style="fill:#000000;fill-opacity:0.2;stroke:none;stroke-width:1px;stroke-linecap:butt;stroke-linejoin:miter;stroke-opacity:1"
       d="m 60.813477,286.49795 c 2.475732,-5.16333 6.714927,-7.81658 12.598047,-7.83138 0.459769,-10e-4 6.242485,1.55795 10.75058,4.55922 4.508095,3.00127 9.440508,7.93923 12.988505,12.64368 3.548001,4.70445 6.375851,9.79714 7.624441,14.31404 1.24859,4.5169 1.82944,8.58443 1.47131,11.59416 -0.35986,3.0243 -1.74772,6.18178 -2.99721,3.0067 -1.24949,-3.17509 -3.259473,-9.8352 -6.39253,-14.31304 -3.133057,-4.47784 -8.769507,-10.29198 -12.809459,-14.14209 -4.039952,-3.85011 -7.412437,-5.4095 -11.149425,-5.51724 -3.736988,-0.10774 -6.944456,3.21252 -9.195402,3.90804 -6.638716,2.05131 -4.649123,-4.55092 -2.888857,-8.22209 z"
       id="path35762"
       sodipodi:nodetypes="sszzzszzzsss" /><path
       id="path17"
       style="color:#000000;fill:#000000;-inkscape-stroke:none"
       d="m 70.393449,371.06304 c 0,0 4.148673,-0.57276 5.122177,0.75532 0.342682,0.4675 0.209448,1.13627 -0.101563,1.93945 -0.31101,0.80318 -0.759072,1.73668 -1.27539,2.51953 -3.061804,4.64236 -7.038288,8.09809 -10.555887,12.13868 C 60.395465,392.07722 51.931041,400 51.931041,400 h 3.387319 c 0,0 6.78948,-6.86464 10.041016,-10.59961 3.4225,-3.93135 7.629403,-7.55887 10.117187,-12.44141 0.38188,-0.74947 0.952609,-1.66825 1.335938,-2.6582 0.383329,-0.98994 0.59505,-2.14898 0.01953,-3.20117 -0.302345,-0.55277 -0.990215,-0.8912 -1.549874,-0.94006 -2.089323,-0.18242 -4.888708,0.90349 -4.888708,0.90349 z M 82.93723,319.0555 c 0,0 5.757942,0.58814 7.332963,0.92169 1.237593,0.3 2.337642,0.83426 3.104807,1.84508 0.762684,1.03738 0.988839,1.9302 -0.09766,3.98437 -0.374801,0.70861 -0.961233,1.12466 -2.101563,1.73828 -1.14033,0.61363 -2.737348,1.35531 -4.638672,2.67578 -3.580235,2.48649 -8.364531,5.4581 -14.625,10.36133 -6.241072,4.88804 -16.102316,13.07969 -22.416015,19.36914 -6.347355,6.32298 -14.444336,18.4873 -14.444336,18.4873 0,0 10.082549,-10.61388 16.208008,-16.71581 6.159114,-6.13546 16.014218,-14.33235 22.193359,-19.17188 6.159745,-4.82434 10.840517,-7.72904 14.509766,-10.27734 1.723419,-1.19692 3.150619,-1.85588 4.398437,-2.52735 1.842579,-0.99151 4.065451,-2.8545 4.15625,-6.09375 0.03198,-1.14077 -0.369447,-2.27949 -1.128906,-3.3125 -1.217507,-1.42962 -3.081356,-2.09521 -4.869141,-2.27148 -2.290796,-0.22587 -7.582301,0.98714 -7.582301,0.98714 z" /></g><g
     inkscape:groupmode="layer"
     id="layer2"
     inkscape:label="Bolian Ridge"
     style="display:none"><path
       style="display:inline;fill:none;stroke:#000000;stroke-width:0.8;stroke-linecap:butt;stroke-linejoin:miter;stroke-dasharray:none;stroke-opacity:1"
       d="m 260.11976,248.62275 23.2919,-42.7347"
       id="path1746"
       sodipodi:nodetypes="cc" /><path
       style="color:#000000;display:inline;fill:#000000;fill-opacity:0.2;-inkscape-stroke:none"
       d="m 280.56961,203.94359 -23.46249,43.15852 1.7902,0.83818 23.12351,-42.81954 z"
       id="path1748"
       sodipodi:nodetypes="ccccc" /></g></svg>
