<?xml version="1.0" encoding="UTF-8" standalone="no"?>
<!-- Created with Inkscape (http://www.inkscape.org/) -->

<svg
   version="1.1"
   id="svg282014"
   width="400"
   height="400"
   viewBox="0 0 400 400"
   sodipodi:docname="raffiLongSleevesWithTurtleneck.svg"
   inkscape:version="1.3 (0e150ed, 2023-07-21)"
   xml:space="preserve"
   xmlns:inkscape="http://www.inkscape.org/namespaces/inkscape"
   xmlns:sodipodi="http://sodipodi.sourceforge.net/DTD/sodipodi-0.dtd"
   xmlns="http://www.w3.org/2000/svg"
   xmlns:svg="http://www.w3.org/2000/svg"><defs
     id="defs282018" /><sodipodi:namedview
     id="namedview282016"
     pagecolor="#ffffff"
     bordercolor="#666666"
     borderopacity="1.0"
     inkscape:showpageshadow="2"
     inkscape:pageopacity="0.0"
     inkscape:pagecheckerboard="0"
     inkscape:deskcolor="#d1d1d1"
     showgrid="false"
     inkscape:zoom="2.105"
     inkscape:cx="199.76247"
     inkscape:cy="200"
     inkscape:window-width="2088"
     inkscape:window-height="1055"
     inkscape:window-x="2265"
     inkscape:window-y="160"
     inkscape:window-maximized="0"
     inkscape:current-layer="g282022"><inkscape:page
       x="0"
       y="0"
       id="page282020"
       width="400"
       height="400"
       margin="0"
       bleed="0" /></sodipodi:namedview><g
     inkscape:groupmode="layer"
     id="layer2"
     inkscape:label="Neck"><path
       d="m 213.63253,151.29441 -5.49067,30.848 -9.21193,18.45217 c 0,0 13.57993,22.69982 22.61726,29.33716 9.03734,6.636 24.148,15.816 35.02134,17.228 l 3.67066,3.67066 2.82534,-2.824 5.224,-2.25866 1.832,-12.39334 13.08133,-27.18533 z"
       style="fill:#cd976d;fill-opacity:1;fill-rule:nonzero;stroke:none;stroke-width:1.33333"
       id="path283414"
       sodipodi:nodetypes="ccccccccccc" /><path
       d="m 199.16985,199.75598 c 0,0 11.14568,18.87824 18.74974,25.74882 16.89748,4.64849 35.91739,5.03279 53.5,5.14934 l 11.78267,-24.48534 -69.56933,-54.87466 -5.69867,31.472 z"
       style="opacity:0.199997;fill:#000000;fill-opacity:1;fill-rule:nonzero;stroke:none;stroke-width:1.33333"
       id="path283424"
       sodipodi:nodetypes="ccccccc" /><path
       d="m 211.64493,149.52841 c -1.01067,4.99733 -2.99139,25.24509 -4.128,30.15333 -1.11614,3.58085 -2.42213,8.10992 -4.32571,11.82632 -1.90358,3.7164 -2.7377,5.49633 -4.27987,8.42311 l 2.35504,3.10823 c 4.22257,-7.93797 7.1452,-15.38433 8.95587,-21.62566 1.29067,-4.45067 3.76533,-24.06133 5.256,-28.47867 l -3.83333,-3.40666"
       style="fill:#000000;fill-opacity:1;fill-rule:nonzero;stroke:none;stroke-width:1.33333"
       id="path283434"
       sodipodi:nodetypes="cczccccc" /><path
       d="m 285.86613,207.63814 c -2.232,2.508 -11.62934,23.48 -13.308,26.58266 -1.36534,2.52267 -2.372,12.41734 -5.128,12.788 -1.86267,0.25067 -2.084,-3.988 -1.828,-5.81866 0.124,-0.87467 14.504,-36.10934 14.504,-36.10934 0,0 5.76,2.55734 5.76,2.55734"
       style="fill:#000000;fill-opacity:1;fill-rule:nonzero;stroke:none;stroke-width:1.33333"
       id="path283438" /></g><g
     id="g282022"
     inkscape:groupmode="layer"
     inkscape:label="Page 1"><path
       style="fill:#86816b;fill-opacity:1;stroke:#000000;stroke-width:1px;stroke-linecap:butt;stroke-linejoin:miter;stroke-opacity:1"
       d="m 363.31006,327.09975 3.8222,29.97409 8.65023,26.95656 1.40818,-10.05842 1.20701,-25.95072 -3.01752,-22.32969 -8.44907,-26.35305 -11.96952,-14.28296 z"
       id="path1"
       sodipodi:nodetypes="ccccccccc" /><path
       id="path283350"
       style="fill:#50432c;fill-opacity:1;fill-rule:nonzero;stroke:none;stroke-width:1.33333"
       d="m 179.12516,225.13473 c -14.34653,6.44949 -23.76912,9.99613 -47.4611,23.58011 -16.34719,4.40719 -35.841746,11.39061 -55.428632,17.04267 -3.36933,1.98133 -18.305641,4.38345 -21.9121,6.32634 -12.6882,6.83544 -11.095965,14.82933 -16.333871,34.38923 -0.660688,2.46721 -1.611782,12.21952 -1.445519,23.81563 0.249524,17.40318 1.630085,21.46506 -0.250999,35.91827 -1.166937,8.9661 -2.181612,16.1127 -2.31833,22.08208 -0.09855,4.3031 -0.433452,8.42314 -0.929687,11.87891 L 383.91992,399.9668 c -0.144,-0.856 -0.38525,-1.68766 -0.64258,-2.34766 -0.696,-1.77734 -2.25487,-3.46019 -3.18554,-5.13086 -0.88666,-1.59467 -1.81463,-3.20608 -2.61328,-4.83008 -1.45734,-2.96799 -3.34403,-5.0677 -4.46094,-8.4707 -4.6498,-14.167 -5.125,-23.12532 -6.2832,-25.50195 -0.46348,-0.95104 -1.17951,-1.71807 -1.99024,-2.41211 0.61755,0.25624 1.21825,0.49325 1.875,0.79687 -1.57797,-11.73859 -1.55087,-23.84881 -4.39258,-35.39648 -4.82187,-19.12376 -6.1742,-33.26345 -10.17383,-38.21485 -2.8909,-3.57882 -8.6279,-4.08644 -12.95312,-6.47265 -12.89139,-3.90462 -24.58649,-9.43601 -36.99219,-10.875 -5.24833,-0.67437 -13.24175,-7.73496 -17.09375,-9.26563 -4.10259,-3.17145 -3.03089,-1.02332 -7.12695,-5.58984 0,0 0.36395,0.8192 1.75195,4.50586 0.85333,2.26934 2.54604,5.05155 2.72071,7.43555 0.005,2.91902 -0.85306,6.19709 -1.51172,8.98242 -0.71334,3.00932 -11.12268,10.29421 -13.57027,12.22461 0.21638,3.7679 1.65535,10.23039 2.43162,16.66593 1.67196,11.37507 2.49611,22.38128 2.49611,22.38128 l -15.7406,-38.78171 -23.53481,-9.84752 c 0,0 -13.83901,-2.35832 -35.98432,-21.38096 -2.76799,-2.37867 -6.27474,-6.82061 -8.21874,-9.16994 -1.94267,-2.34934 -3.8443,-4.84564 -5.09764,-6.95897 -4.14265,-6.31866 -4.50385,0.82231 -4.50385,-7.17768 z"
       sodipodi:nodetypes="cccssssscccccsscccscccccccccccccccc" /><path
       style="fill:#86816b;fill-opacity:1;stroke:none;stroke-width:1px;stroke-linecap:butt;stroke-linejoin:miter;stroke-opacity:1"
       d="m 121.14014,400 c 0,0 -4.00661,-19.33721 -7.12589,-30.87886 -3.11928,-11.54165 -7.9659,-26.72815 -11.87648,-38.24228 C 98.227195,319.36473 95.958558,309.03217 90.736342,300 85.514126,290.96783 76.140596,278.83613 72.446556,278.85986 c -3.69404,0.0237 -8.598561,5.63904 -13.064133,11.63895 -4.465572,5.99991 -9.92332,13.91796 -13.539193,23.04038 -3.615873,9.12242 -5.478197,20.48076 -7.12589,31.35392 -1.647693,10.87316 -2.05294,24.54142 -2.612827,33.72922 C 35.544626,387.81013 35.154394,400 35.154394,400 Z"
       id="path9"
       sodipodi:nodetypes="czzzzzzzzcc" /><path
       id="path283392"
       style="opacity:0.199997;fill:#000000;fill-opacity:1;fill-rule:nonzero;stroke:none;stroke-width:1.33333"
       d="m 180.33398,226.48242 c -6.75332,2.5483 -26.11905,9.03738 -47.70703,21.33203 -18.69993,5.86575 -37.021244,10.32334 -56.617184,19.14258 -6.938994,2.88838 -20.758113,3.05349 -23.66211,5.66016 -9.815583,11.62159 -11.427789,20.98336 -14.8125,41.66797 -1.597987,19.60767 -0.13968,36.93421 -1.726562,51.76757 -1.107999,6.50533 -0.09045,7.99624 -1.566406,16.99024 l -1.21875,16.92383 h 20.166015 c 0.196,-3.43334 -0.167174,-7.00222 -0.08984,-10.29688 0.142667,-6.02799 1.808798,-11.88127 2.716797,-17.83594 1.664042,-10.89314 4.390494,-21.53828 8.716797,-31.4082 5.682617,-10.9197 8.338546,-18.06224 13.404228,-21.90248 5.035322,-3.81722 11.268696,-6.12278 16.518175,-6.95126 1.099484,-0.17353 -4.507581,-8.88974 -3.105839,-9.76745 9.830769,-5.0583 18.121549,-9.48858 29.396319,-14.20107 12.06133,-4.93733 26.01978,-8.93629 38.75977,-12.12696 2.82667,-0.80533 5.53186,-1.54656 8.11719,-2.22656 28.43464,-7.48133 48.85937,-10.78906 48.85937,-10.78906 0,0 -11.60239,-5.51698 -20.87304,-16.6543 -3.08933,-3.71334 -5.02724,-4.51076 -7.25391,-8.99609 -2.228,-4.484 -3.54361,-5.33151 -8.02149,-10.32813 z m 179.28516,78.50586 6.17578,47.50586 9.97656,29.45313 1.08985,-12.125 c 0,0 -3.16705,-8.90722 -6.35156,-19.45899 -3.18451,-10.55177 -10.89063,-45.375 -10.89063,-45.375 z m -257.7655,24.01048 c 0,0 15.30602,29.33106 18.75503,39.4895 3.184,9.37791 9.62069,31.51174 9.62069,31.51174 h -9.08874 l -6.17578,-28.0293 z"
       sodipodi:nodetypes="ccccccccccccssccccccccccccsccsccccs" /><path
       d="m 230.26756,275.63648 c 7.54651,2.97523 24.10278,3.3574 24.10278,3.3574 l 15.13374,29.31531 c 0,0 -0.5085,-8.75771 -2.5384,-28.99228 0,0 4.36167,-1.47474 6.68082,-4.55312 4.06475,-5.52191 7.86207,-8.72131 8.2074,-13.62397 -0.70533,-1.992 -1.11137,-5.55515 -2.49937,-9.24182 -1.388,-3.688 -2.59734,-6.87866 -2.59734,-6.87866 l 0.29734,-2.28534 -2.56526,-9.65795 -1.18107,0.79211 -4.61667,7.85581 -5.22533,2.25866 -2.70145,-0.11584 -3.79455,-0.73082 c -10.87333,-1.412 -25.98267,-10.993 -35.02,-17.63033 -7.43376,-5.45881 -19.67045,-23.24422 -22.77591,-28.83037 -3.18655,4.84055 -6.53591,11.81892 -9.49725,17.68113 -4.56244,11.23855 -7.82513,14.04623 -5.37465,18.36679 1.25467,2.11333 0.68621,4.22529 2.63021,6.57462 1.94267,2.34934 8.54125,11.302 11.64939,14.06639 11.73611,10.67587 19.67522,17.53716 31.68557,22.27228 z"
       style="fill:#86816b;fill-opacity:1;fill-rule:nonzero;stroke:none;stroke-width:1.33333"
       id="path283406"
       sodipodi:nodetypes="sccccccccccccccccccccs" /><path
       id="path283456"
       style="opacity:0.199997;fill:#000000;fill-opacity:1;fill-rule:nonzero;stroke:none;stroke-width:1.33333"
       d="M 198.67188 197.47266 C 198.67188 197.47266 193.04576 207.43428 189.44727 213.9082 C 183.40906 227.64761 182.25244 231.27477 183.68359 233.70312 C 187.13559 237.17912 192.90924 247.51994 195.86523 249.97461 L 215.59961 266.10938 C 225.43683 270.7331 226.90879 267.5564 226.17383 263.17773 C 233.0861 266.24696 239.7737 267.62499 244.93555 268.42383 C 247.73283 268.85673 249.35224 268.82022 250.64648 268.78125 C 251.94073 268.74205 255.03711 267.90234 255.03711 267.90234 C 255.03711 267.90234 252.04345 267.71606 250.85156 267.75195 C 249.65966 267.78755 247.17387 267.50054 244.45703 267.08008 C 239.103 266.25149 232.81835 264.65523 225.75781 261.33203 C 225.20561 259.26448 224.38573 257.13694 223.83984 255.55078 C 223.7364 255.25021 224.04347 254.91457 224.61133 254.55469 C 225.7806 255.27124 226.90516 255.90709 227.94141 256.4043 C 235.39989 259.983 242.71304 261.50849 248.26172 262.36719 C 251.05901 262.80009 252.67645 262.76358 253.9707 262.72461 C 255.26495 262.68541 258.36133 261.8457 258.36133 261.8457 C 258.36133 261.8457 255.36767 261.65942 254.17578 261.69531 C 252.98388 261.73091 250.49809 261.4439 247.78125 261.02344 C 242.30164 260.17542 235.85542 258.53599 228.5918 255.05078 C 227.85307 254.69633 227.04508 254.24887 226.20703 253.75586 C 227.84514 253.04682 230.11486 252.26749 232.4082 251.4668 C 238.86989 254.65118 245.16158 256.30549 250.07422 257.34375 C 252.84363 257.92904 254.46142 257.98177 255.75586 258.01367 C 257.05032 258.04537 260.1875 257.37695 260.1875 257.37695 C 260.1875 257.37695 257.20964 257.02547 256.01758 256.99609 C 254.82552 256.96639 252.35969 256.54308 249.66992 255.97461 C 245.16613 255.02276 240.01796 253.47342 234.36133 250.76172 C 238.04974 249.42432 241.24863 248.05589 240.95312 246.85156 C 245.98559 248.72386 250.73543 249.79691 254.61719 250.5 C 257.40245 251.00448 259.02159 251.00968 260.31641 251.00391 C 261.61123 250.99791 264.72656 250.23828 264.72656 250.23828 C 264.72656 250.23828 261.73928 249.9732 260.54688 249.97852 C 259.35446 249.98352 256.87704 249.63451 254.17188 249.14453 C 249.2417 248.25155 243.53082 246.67798 237.18555 243.67773 C 229.78772 237.71556 226.39732 233.41889 219.89062 227.00586 C 211.94897 217.87661 208.60211 215.02214 201.0293 202.04102 L 198.67188 197.47266 z " /><path
       d="m 276.07346,242.23054 c 0.33067,0.75333 1.45349,-1.10937 1.53616,0.0866 0.224,3.21333 -1.95349,5.95203 -3.54949,8.6467 -2.38667,4.032 -3.48134,9.40133 -4.94667,13.80933 -0.872,-2.21866 -1.20133,-3.37733 -1.008,-5.648 0.196,-2.31333 0.44933,-4.564 1.104,-6.844 0.46533,-1.62266 3.62267,-4.36666 4.41467,-5.74133 1.59866,-2.768 1.84815,-7.78137 1.22549,-10.74537 0.23866,0.32 0.43733,0.32667 0.74,0.59334 0.36,1.30533 0.90133,2.14666 1.33733,3.14"
       style="fill:#000000;fill-opacity:1;fill-rule:nonzero;stroke:none;stroke-width:1.33333"
       id="path283442"
       sodipodi:nodetypes="cccccccccc" /><path
       id="path283446"
       style="fill:#000000;fill-opacity:1;fill-rule:nonzero;stroke:none;stroke-width:1.33333"
       d="m 199.17969,192.66406 c -0.26366,0.0623 -0.51022,0.19709 -0.71289,0.39844 -5.90593,9.19696 -11.40148,23.70417 -16.69715,33.51552 -0.1551,0.28736 -1.72004,-3.24682 -1.87696,-2.95898 -1.29333,0.0667 -2.54673,0.68804 -3.61339,1.33604 -1.47333,0.896 -4.02844,2.26358 -8.73438,4.4082 -4.70589,2.14462 -12.46308,6.36179 -21.5957,10.50195 -9.13262,4.1402 -17.95412,6.22284 -29.99024,10.17188 -18.295466,6.00272 -40.515353,13.49807 -60.402339,19.08594 -2.573553,0.72312 -5.019452,2.13928 -7.207032,4.75976 -2.187578,2.6205 -4.231894,6.20164 -6.132812,10.70313 -3.80046,8.99971 -5.005046,18.92212 -6.412109,32.56836 -1.431468,13.8829 -0.657296,44.83483 -0.657296,44.83483 -0.11628,1.80945 -0.433139,5.38993 -0.60833,8.36048 -1.1995,20.33886 -1.148364,19.92242 -1.427734,29.65039 h 3.496094 c 0.532664,-0.24105 1.275391,-16.91992 1.27539,-16.91992 0.869717,-8.5931 0.296293,-36.79717 7.894532,-65.40235 3.225797,-12.14419 16.195351,-27.88029 27.027344,-36.86718 4.309497,3.77612 8.099445,8.80389 13.955078,18.92773 7.219894,12.48254 16.287814,39.33786 21.693354,56.17188 5.35685,16.68238 11.35547,44.08983 11.35547,44.08984 h 3.94921 c 0,0 -6.31339,-28.18656 -11.78319,-45.2207 -5.42113,-16.8825 -13.484631,-43.77001 -21.171876,-57.06055 -7.505559,-12.97642 -12.471684,-18.6928 -18.921875,-23.25 -2.080294,-1.46978 -4.075341,-2.56583 -5.970703,-3.39648 7.694949,-2.58196 33.869349,-10.72235 40.792964,-12.91602 17.34071,-4.62853 34.27885,-9.8058 50.18946,-18.13477 5.39776,-2.79403 13.44505,-6.45282 17.65625,-9.25 2.10559,-1.39855 2.13478,-1.22949 3.45322,-1.16216 1.3184,0.0673 2.24689,2.21586 3.12891,3.7636 2.95595,5.78533 6.76627,13.29464 11.11537,18.05073 4.34905,4.75604 12.1319,11.8869 16.22653,14.7069 5.26566,3.5602 16.44386,11.37553 26.55974,14.18412 8.76493,2.43351 17.94967,3.18954 19.17046,2.67148 1.00313,0.62496 12.44743,28.77043 19.72272,55.60174 2.97232,10.96191 5.43948,18.53479 8.81836,30.75391 C 286.11549,381.53367 290.8125,400 290.8125,400 h 4.6415 c -6.50104,-32.52791 -9.58316,-44.44697 -11.62978,-54.22266 -5.37464,-25.67197 -13.61677,-44.66223 -14.88672,-65.75586 12.22616,-7.29642 17.19137,-19.8728 12.23828,-28.28125 -0.0999,-0.20907 -1.14738,-1.45699 -1.32617,-1.78906 0.30905,0.19623 4.83717,3.26303 7.94727,5.30274 3.37235,2.2117 8.34297,5.4299 11.34765,6.45703 17.65833,5.58335 26.11744,8.68316 41.19531,13.54297 5.46601,1.84927 9.17716,2.93882 11.35157,4.22851 2.88411,10.58307 5.68992,23.16549 7.71679,33.64453 1.26267,6.528 2.13392,13.70946 3.03125,20.32813 0.83653,6.16382 0.97607,8.75287 1.52149,14.72461 l 0.48242,4.68945 c 1.1729,9.50043 11.76618,38.11376 14.20117,47.09766 h 5.98438 l -6.70508,-16.66992 c -0.0681,-4.65832 0.50441,-8.34095 0.77854,-10.59991 0.78408,-6.46124 0.60794,-9.89587 0.86794,-15.15986 0.11294,-12.61253 -0.25,-21.64218 -2.75,-33.2168 -0.57333,-2.65465 -1.24238,-5.28733 -2.01172,-7.88867 -2.72399,-9.22128 -5.36819,-14.46361 -10.53349,-22.4862 -2.29627,-3.5665 -5.81924,-6.06179 -8.20509,-7.83955 -0.27229,-0.20288 -2.52325,-10.70433 -2.52325,-10.70433 -15.43352,-6.77411 -34.95072,-12.18084 -53.30067,-17.33515 -8.65766,-4.98486 -13.57902,-7.92019 -21.83789,-12.41993 0.14985,-0.42649 -0.12351,-1.32157 0.0801,-1.70898 0.79708,-3.80089 -0.3348,-8.84806 -1.10547,-11.02539 l -2.51562,-4.48047 c -0.30533,0.392 -0.46298,0.86664 -0.68164,1.30664 -1.05734,2.11996 -2.21746,4.26007 -3.4668,6.30274 -1.17733,1.92799 -2.25686,4.40795 -4.31445,5.4707 -1.77044,0.91445 -5.12064,0.65797 -7.57813,0.30859 -38.55549,-5.48146 -57.15282,-45.8602 -56.94531,-46.33398 l 0.80469,-2.64258 c -0.27333,-0.0907 -2.35061,-0.13595 -2.72657,-0.15039 z m -0.43946,5.38282 c 0.2405,-0.009 1.27222,3.46741 2.39063,5.26953 1.70273,2.74369 2.30388,3.79133 4.53711,6.47265 5.25999,6.73777 9.89387,11.26344 15.53515,16.96875 7.51937,6.39644 14.98088,11.70313 23.77149,14.92578 4.1213,1.512 8.38767,2.53982 12.7168,3.26368 3.03485,0.50745 6.18092,0.74601 9.41797,0.0176 1.23692,-0.27837 2.67639,-0.53178 3.42968,-1.55078 1.62232,-2.19459 2.71008,-4.80186 4.01172,-7.22851 1.21315,3.34453 0.47725,6.5138 1.0942,11.20389 0.0897,0.68224 2.4015,4.0121 2.61479,4.56759 1.60928,4.188 2.90688,8.91098 -1.39844,15.13477 -4.71284,6.81286 -10.33616,9.51452 -13.20313,10.88281 1.19206,8.09741 2.61284,15.67728 5.02344,27.57227 -2.95917,-10.21224 -7.72631,-15.77287 -11.26951,-26.90435 -5.31133,0.30134 -13.02575,-0.30382 -21.81264,-2.65709 -5.52708,-1.48024 -12.37262,-5.8053 -16.90664,-8.6362 -8.63491,-5.39137 -14.5684,-11.53322 -17.47782,-14.02913 -4.13874,-3.55049 -9.52331,-9.78325 -12.03324,-13.23631 -2.29889,-3.1627 -3.92224,-7.06365 -5.60357,-9.95697 3.04445,-5.77505 11.92055,-26.93092 15.10928,-31.84753 0,-0.15857 0.0184,-0.23115 0.0527,-0.23242 z M 68.390625,277.41797 c -9.845474,8.08289 -21.92723,26.30561 -25.238281,39.69336 -1.920924,7.76697 -3.399796,15.32355 -4.669922,22.56055 0.101052,-7.34576 0.359066,-15.90176 1.001953,-22.13672 1.388355,-13.46478 3.37383,-22.96904 6.980469,-31.50977 1.80263,-4.26874 2.879422,-7.56115 4.724609,-9.77148 1.845187,-2.21035 3.574365,-3.2652 4.927735,-3.47266 3.727731,-0.57139 7.828792,1.58817 12.273437,4.63672 z m 299.518555,31.51139 c 2.90178,7.46946 4.00216,12.11243 5.7627,19.97298 1.55227,6.93071 2.33652,12.87437 2.57969,16.35704 0.65362,9.36082 0.39259,15.73023 -0.21056,25.65468 -0.25016,2.63527 -0.8964,7.29943 -1.02149,8.13282 -1.86899,-8.28804 -5.9606,-20.63053 -6.44726,-24.61524 -0.42184,-3.45408 -0.65193,-6.71753 -0.97071,-10.17773 -0.79401,-8.17409 -2.56309,-17.87101 -3.73242,-26.01368 -1.17035,-8.1533 -3.41054,-16.09715 -4.93233,-21.86246 -1.40844,-5.3359 6.448,6.05356 8.97238,12.55159 z"
       sodipodi:nodetypes="ccsccssssssscscccscssccssscccsscscscssccscccscccsccccccscscssccccccccsscccccscccssscscscccssssccscccssssccssscscccss" /><path
       id="path283492"
       style="opacity:0.199997;fill:#000000;fill-opacity:1;fill-rule:nonzero;stroke:none;stroke-width:1.33333"
       d="m 268.54102,250.08594 c 0,0 -3.37183,1.58875 -0.92383,15.83008 -0.54211,1.79554 -3.35145,3.31438 -4.8665,4.0862 -1.98626,1.01187 -5.68671,2.21306 -9.96948,2.2864 -4.951,0.0848 -9.1677,-0.9019 -14.73795,-1.9372 0,0 7.47989,2.80314 12.00944,3.50166 2.9253,0.45112 8.07561,-0.0347 10.11205,-0.73565 3.57131,-1.22922 8.32241,-2.75094 9.29619,-6.68972 0.65923,-2.66645 0.38867,-4.92187 0.38867,-4.92187 1.02667,-1.524 5.36942,-7.21468 6.62695,-5.00391 2.64652,4.65264 -0.63288,8.53958 -2.65615,11.37902 -2.02327,2.83945 -3.95136,4.2658 -5.84567,5.6719 -1.8943,1.4061 -3.84689,2.06504 -6.06427,3.26553 0.17337,1.81621 5.93552,29.48323 6.55017,30.05994 0.87959,0.82532 -2.73038,-26.27092 -0.88207,-27.31744 2.27287,-1.2869 10.35924,-9.46298 10.35924,-9.46298 4.01409,-5.32434 3.38565,-9.08953 1.74402,-16.98661 -1.356,-3.69866 -3.31754,-13.79466 -3.31754,-13.79466 -1.89652,3.77943 -5.07326,7.98561 -7.82327,10.76931 z"
       sodipodi:nodetypes="ccsscssscsszcsscccc" /><path
       id="path3"
       style="color:#000000;fill:#000000;fill-opacity:0.3;-inkscape-stroke:none"
       d="m 189.43945,245.81836 c 0,0 -14.58557,10.49485 -20.97265,14.31055 -26.28877,15.70508 -77.820316,44.23242 -77.820316,44.23242 l 0.966797,1.75 c 0,0 51.519659,-28.51724 77.880859,-44.26563 6.61877,-3.95409 21.11328,-14.40429 21.11328,-14.40429 z m 92.32813,14.69336 -1.06641,1.6914 c 0,0 21.90152,13.80894 33.04102,20.47071 14.69566,8.78845 44.43554,25.63476 44.43554,25.63476 l 0.98438,-1.74023 c 0,0 -29.75081,-16.85512 -44.39258,-25.61133 -11.08558,-6.6295 -33.00195,-20.44531 -33.00195,-20.44531 z m -78.08203,0.64453 c 0,0 -25.98596,33.07327 -42.25782,50.60742 -1.39393,1.50208 -2.47971,2.69343 -4.05468,4.39453 l -0.16993,0.0371 c 0,0 0.0326,0.1112 0.0332,0.11328 -17.66649,19.08251 -45.32617,49.13477 -45.32617,49.13477 l 1.47265,1.35352 c 0,0 26.82693,-29.14391 44.4961,-48.23633 1.62085,5.71574 8.09433,28.14777 13.39453,40.04687 2.42146,5.43626 5.57853,13.34879 8.2207,20.71875 C 183.31241,389.97671 185.00586,400 185.00586,400 h 1.4668 c 0,0 -1.69536,-10.37284 -5.67188,-21.25 -2.717,-7.43195 -5.76305,-15.18484 -8.16016,-20.59766 -5.56383,-12.56346 -12.53178,-37.16268 -13.57421,-40.8789 1.4787,-1.59698 2.51229,-2.73248 3.82812,-4.15039 16.40221,-17.67467 42.36328,-50.73047 42.36328,-50.73047 z m 75.875,7.56445 -1.40235,1.42578 52.72461,51.86914 c 1.17433,3.85251 8.81706,28.93865 12.45703,41.60743 3.92399,13.6572 7.82618,36.37695 7.82618,36.37695 h 1.55468 c 0,0 -3.99639,-23.21159 -7.91015,-36.64062 -3.42135,-11.73941 -9.96943,-33.27741 -11.78125,-39.23243 l 33.01562,32.48047 1.40235,-1.42578 -35.63086,-35.05273 c -6.5e-4,-0.002 -0.0606,-0.19922 -0.0606,-0.19922 l -0.18359,-0.041 z m -7.65039,8.45703 -1.98438,0.24415 c 0,0 1.46826,12.03726 3.03711,19.40234 1.56533,7.34854 3.57935,12.57028 6.56055,24.22461 2.98272,11.66034 7.84797,32.86904 11.08203,46.01172 C 293.83744,380.19474 298.08208,400 298.08208,400 h 2.10547 c 0,0 -4.41261,-20.29768 -7.64067,-33.41602 -3.22597,-13.10984 -8.08839,-34.31292 -11.08594,-46.03125 -2.9991,-11.7243 -5.00851,-16.95205 -6.54102,-24.14648 -1.52898,-7.17789 -3.00976,-19.22851 -3.00976,-19.22852 z m -20.75586,4.21289 -1.79102,0.88868 c 0,0 5.19931,10.51313 8.19336,18.22461 3.00364,7.73614 5.78964,16.87644 9.38281,28.48632 3.58996,11.5995 8.90512,29.30686 11.91016,41.10157 3.0022,11.78353 7.63079,29.9082 7.63079,29.9082 h 1.96289 c 0,0 -4.62529,-18.51387 -7.65423,-30.40234 -3.02608,-11.87732 -8.34444,-29.58146 -11.93945,-41.19727 -3.59179,-11.6054 -6.38481,-20.77678 -9.42969,-28.61914 -3.05446,-7.86704 -8.26562,-18.39063 -8.26562,-18.39063 z"
       sodipodi:nodetypes="csccsccccsccsccsccccccssccsscscccccsccscccccccccsssccssscccsssccsssc" /><path
       style="color:#000000;fill:#000000;-inkscape-stroke:none"
       d="m 189.43945,244.31836 c 0,0 -14.58555,10.49485 -20.97265,14.31055 -26.28881,15.70512 -77.820316,44.23242 -77.820316,44.23242 l 0.966797,1.75 c 0,0 51.519599,-28.51722 77.880859,-44.26563 6.61879,-3.95411 21.11328,-14.40429 21.11328,-14.40429 z m 92.32813,14.69336 -1.06641,1.6914 c 0,0 21.9015,13.80894 33.04102,20.47071 14.6957,8.78847 44.43554,25.63476 44.43554,25.63476 l 0.98438,-1.74023 c 0,0 -29.75079,-16.8551 -44.39258,-25.61133 -11.0856,-6.62952 -33.00195,-20.44531 -33.00195,-20.44531 z m -78.08203,0.64453 c 0,0 -25.98594,33.07323 -42.25782,50.60742 -17.02543,18.34622 -49.51757,53.67969 -49.51757,53.67969 l 1.47265,1.35351 c 0,0 32.49419,-35.33612 49.51172,-53.67382 16.40225,-17.67469 42.36328,-50.73047 42.36328,-50.73047 z m 75.875,7.56445 -1.40235,1.42578 87.88672,86.46094 1.40235,-1.42578 z"
       id="path7" /><path
       style="fill:#000000;stroke:none;stroke-width:1px;stroke-linecap:butt;stroke-linejoin:miter;stroke-opacity:1;fill-opacity:0.5"
       d="m 35.866983,353.68171 6.413302,-25.17815 7.36342,-25.17814 13.301663,-17.33967 9.738718,-8.07601 -9.026129,-5.93824 -9.738717,-0.23753 -7.125891,7.60095 -5.225653,15.91449 -4.750594,28.0285 z"
       id="path8" /><path
       id="path20"
       style="color:#000000;fill:#000000;fill-opacity:0.3;-inkscape-stroke:none"
       d="m 185.6201,225.21512 c -0.25736,-0.39076 -0.98294,0.38311 -0.41235,1.34177 2.25233,3.78415 8.08328,11.45582 10.34949,14.00592 1.66087,1.86892 5.54125,5.5449 9.10066,8.4097 3.78739,3.04828 7.21137,5.2331 7.21137,5.2331 0,0 -11.94957,-10.98997 -15.19205,-14.63863 -3.25118,-3.65846 -8.55783,-10.55716 -11.05712,-14.35186 z m 2.77038,-3.12603 c 0,0 1.55496,2.96995 3.31903,5.47165 2.19973,3.11954 5.53625,6.99398 7.53723,9.03278 1.63655,1.66748 5.52174,5.44591 9.35468,8.40409 4.51218,3.4824 9.84089,5.62804 9.84089,5.62804 0,0 -4.90657,-2.61707 -9.20935,-6.2283 -3.6419,-3.05655 -7.35478,-7.26222 -8.9169,-8.85387 -1.94279,-1.97951 -5.29774,-5.73963 -7.84039,-8.6265 -1.94412,-2.20732 -4.08519,-4.82789 -4.08519,-4.82789 z m 5.05227,-7.6227 c 0,0 4.70669,9.12094 7.9019,13.15682 1.12163,1.41673 4.03375,4.72186 6.18727,6.64411 1.5819,1.41202 5.20586,4.94222 7.8913,6.86602 4.0996,2.93687 10.09639,6.15675 10.09639,6.15675 0,0 -5.97741,-4.27577 -9.92479,-7.65003 -2.59181,-2.21551 -6.01715,-5.4368 -7.47086,-6.96888 -1.9476,-2.0526 -4.55368,-4.65118 -5.60455,-5.97854 -3.038,-3.83731 -9.07666,-12.22625 -9.07666,-12.22625 z m 3.70666,-5.32088 c 0,0 5.48029,9.52576 8.94756,13.33045 1.26013,1.38276 3.71289,3.7745 6.07004,5.6202 3.57507,2.79937 8.49863,5.75202 8.49863,5.75202 0,0 -4.01074,-3.45911 -7.80953,-6.92656 -2.25134,-2.05498 -4.42824,-4.11289 -5.65171,-5.45542 -3.29668,-3.6175 -10.05499,-12.32069 -10.05499,-12.32069 z"
       sodipodi:nodetypes="sssscsscssscsssccssscsssccsscssc" /></g><g
     inkscape:groupmode="layer"
     id="layer1"
     inkscape:label="Bolian Ridge"
     style="display:none"><path
       style="fill:none;stroke:#000000;stroke-width:0.8;stroke-linecap:butt;stroke-linejoin:miter;stroke-dasharray:none;stroke-opacity:1"
       d="m 260.11976,248.62275 16.76647,-47.90419"
       id="path1746" /><path
       style="color:#000000;fill:#000000;fill-opacity:0.2;-inkscape-stroke:none"
       d="m 273.8747,199.19782 -16.76758,47.90429 1.7902,0.83818 16.76758,-47.90429 z"
       id="path1748"
       sodipodi:nodetypes="ccccc" /></g></svg>
