<?xml version="1.0" encoding="UTF-8" standalone="no"?>
<!-- Created with Inkscape (http://www.inkscape.org/) -->

<svg
   version="1.1"
   id="svg171226"
   width="400"
   height="400"
   viewBox="0 0 400 400"
   sodipodi:docname="scientistMale.svg"
   inkscape:version="1.3.2 (091e20e, 2023-11-25)"
   xml:space="preserve"
   xmlns:inkscape="http://www.inkscape.org/namespaces/inkscape"
   xmlns:sodipodi="http://sodipodi.sourceforge.net/DTD/sodipodi-0.dtd"
   xmlns="http://www.w3.org/2000/svg"
   xmlns:svg="http://www.w3.org/2000/svg"><defs
     id="defs171230">
                
            
                
            
                
            
                
            
                
            
                
            
                
            
                
            
                
            
                
            
                
            
                
            
                
            
                
            
                
            
                
            
                
            
                
            
                
            
                
            
                
            
                
            
                
            
                
            
                
            
                
            
                
            
                
            
                
            
                
            
                
            
                
            
                
            
                
            
                
            
                
            
                
            
                
            
                    
                
                
            
                
            
                
            
                
            
                
            
                
            
                
            
                
            
                
            </defs><sodipodi:namedview
     id="namedview171228"
     pagecolor="#ffffff"
     bordercolor="#666666"
     borderopacity="1.0"
     inkscape:showpageshadow="2"
     inkscape:pageopacity="0.0"
     inkscape:pagecheckerboard="0"
     inkscape:deskcolor="#d1d1d1"
     showgrid="false"
     inkscape:zoom="2.33"
     inkscape:cx="200"
     inkscape:cy="200"
     inkscape:window-width="1920"
     inkscape:window-height="1145"
     inkscape:window-x="2003"
     inkscape:window-y="97"
     inkscape:window-maximized="0"
     inkscape:current-layer="g171234"><inkscape:page
       x="0"
       y="0"
       id="page171232"
       width="400"
       height="400"
       margin="0"
       bleed="0" /></sodipodi:namedview><g
     id="g171234"
     inkscape:groupmode="layer"
     inkscape:label="Page 1"
     style="display:inline"><path
       id="path171958"
       style="fill:#61525c;fill-opacity:1;fill-rule:nonzero;stroke:none;stroke-width:1.33333"
       d="m 191.36133,202.91016 c -5.78967,6.37102 -7.4088,12.61335 -8.9479,13.07597 -1.48545,1.05275 -2.46454,1.85712 -3.58943,1.82975 -1.12489,-0.0274 -2.71685,0.88487 -3.86083,0.9697 l -40.6077,14.92145 -39.447267,16.96875 -11.855469,6.04297 -6.742187,6.27734 -9.458985,6.82422 c -11.834754,12.45087 -19.196031,25.30386 -24.970703,40.91211 l -15.1875,70.92383 c 0,0 0.668891,0.61699 1.013672,0.94141 -2.89e-4,-2.4e-4 -0.04883,-0.0391 -0.04883,-0.0391 L 25.664062,400 385.68945,399.9668 384.67969,369.10547 383.81055,342.5332 c -1.52533,-11.00265 -6.3445,-45.00028 -8.67383,-52.57226 -2.78933,-9.06531 -4.21583,-9.71632 -12.36914,-14.59766 -9.06509,-4.88131 -34.58457,-15.74883 -45.7832,-20.4707 -9.87475,-4.16367 -26.09275,-9.07034 -36.31673,-13.41299 l -6.1071,-4.64951 -1.69254,-1.67679 0.30664,0.49024 -0.10742,0.0879 -5.92207,7.6977 -3.22316,2.21598 -3.32426,0.20637 -5.63876,0.34315 c -26.53741,-3.79925 -45.7907,-20.05885 -61.35156,-40.63407 -0.94266,-1.79264 -1.7834,-1.75273 -2.24609,-2.65039 z"
       sodipodi:nodetypes="ccsccccccccccccccccscccccccccccc" /><path
       d="m 367.95412,278.712 c 0,0 3.12934,28.84534 1.144,48.11334 0,0 3.30134,-23.672 0.824,-46.24134 z"
       style="fill:#000000;fill-opacity:1;fill-rule:nonzero;stroke:none;stroke-width:1.33333"
       id="path172006" /><path
       style="display:inline;opacity:0.2;fill:#000000;fill-opacity:1;stroke:none;stroke-width:0.911631px;stroke-linecap:butt;stroke-linejoin:miter;stroke-opacity:1"
       d="m 368.9541,353.5484 c 0,0 6.16873,24.64853 6.43777,33.1715 0.26904,8.52297 0.42919,13.2801 0.42919,13.2801 H 366.379 Z"
       id="path2"
       sodipodi:nodetypes="czccc" /><path
       d="m 114.7669,319.01939 10.48507,39.09674 c 0,0 2.16032,18.5477 4.04081,41.88387 H 147.174 c -2.75349,-17.53418 -5.72765,-29.56983 -7.13122,-33.67231 -4.52949,-13.23918 -11.24175,-30.70782 -25.27588,-47.3083 z"
       style="display:inline;opacity:0.199997;fill:#000000;fill-opacity:1;fill-rule:nonzero;stroke:none;stroke-width:1.33333"
       id="path172192"
       sodipodi:nodetypes="ccccsc" /><path
       id="path6"
       style="fill:#9f8481;fill-opacity:1;stroke:none;stroke-width:1px;stroke-linecap:butt;stroke-linejoin:miter;stroke-opacity:1"
       d="m 191.36133,202.91016 c -5.78967,6.37101 -7.9637,12.68225 -12.10941,14.42013 l -44.89645,16.37674 -39.447267,16.96875 -11.855469,6.04297 -6.742187,6.27734 -9.458985,6.82422 c -9.147255,9.62346 -15.606843,19.50292 -20.742187,30.69336 9.288366,8.41804 23.417969,20.94531 23.417969,20.94531 l 33.906246,-20.17187 c 0,0 110.14908,2.74042 165.23633,3.00391 33.19095,0.15876 99.57031,-0.85743 99.57031,-0.85743 l 10.83204,7.30079 c -1.4632,-9.104 -2.93347,-17.51598 -3.93555,-20.77344 -2.78933,-9.0653 -4.21584,-9.71632 -12.36914,-14.59766 -9.06508,-4.8813 -34.58459,-15.74884 -45.7832,-20.4707 -9.87475,-4.16367 -25.87817,-8.64116 -36.10214,-12.9838 l -6.32169,-5.0787 -2.65821,-2.53516 0.30664,0.49024 -0.10742,0.0879 -4.95703,8.55664 -3.22265,2.21484 -3.32422,0.20703 -5.63868,0.34375 c -26.53738,-3.79924 -45.79071,-20.05956 -61.35156,-40.63476 -0.94266,-1.79264 -1.7834,-1.75273 -2.24609,-2.65039 z"
       sodipodi:nodetypes="ccccccccccsccccscccccccccccc" /><path
       style="fill:#beb7c7;fill-opacity:1;stroke:none;stroke-width:1px;stroke-linecap:butt;stroke-linejoin:miter;stroke-opacity:1"
       d="m 37.982833,321.03004 3.648068,-16.73819 3.862661,-8.5837 22.317597,22.85408 36.266091,-19.84978 165.45065,2.14592 99.14163,-0.96566 10.30043,9.54935 5.5794,36.48069 -17.38198,-18.56224 -94.20601,-1.18025 -157.29613,-4.93562 -50.429188,21.9957 z"
       id="path7"
       sodipodi:nodetypes="cccccccccccccc" /><path
       style="fill:#beb7c7;stroke:none;stroke-width:1px;stroke-linecap:butt;stroke-linejoin:miter;stroke-opacity:1;fill-opacity:1"
       d="m 180.6867,219.3133 24.8927,25.75108 28.32618,16.30901 17.16738,6.43777 10.72962,-1.71674 9.87124,-4.72103 1.71674,-2.14592 0.42918,-22.3176 -9.01287,6.86695 -7.29614,0.85837 -21.45923,-4.29184 -24.46352,-13.30472 -14.16309,-14.16309 -5.5794,-9.87125 z"
       id="path10" /><path
       id="path172002"
       style="fill:#000000;fill-opacity:1;fill-rule:nonzero;stroke:none;stroke-width:1.33333"
       d="m 192.39648,202.08984 c -0.74186,-0.11838 -1.40748,0.63774 -1.95703,1.39258 -0.72114,0.99051 -3.90744,5.08224 -8.90757,12.27999 -1.28197,0.8009 -2.95426,1.01716 -8.71765,2.99612 -4.74831,1.63042 -23.98547,8.58109 -46.52126,17.75603 -17.96524,7.31414 -33.101227,14.11205 -36.914064,16.05185 -12.487253,6.35295 -16.655098,9.00555 -17.548828,10.33984 -2.78328,1.31477 -4.022315,2.33957 -7.292969,4.57422 -9.533941,6.17094 -21.756497,21.85958 -27.833984,46.83398 C 32.024042,333.54236 24.036081,390.94615 23.314453,400 l 4.236328,-0.21484 1.353516,-13.66602 0.816406,-4.90234 c 1.510662,-11.19863 8.858436,-51.80794 11.955078,-66.44727 4.435175,-20.96721 17.346198,-36.26715 24.097657,-43.91211 6.763417,-7.65851 24.309344,4.06823 28.361328,9.63086 0.306663,-1.03467 -0.15526,-2.13012 -0.669922,-3.07812 -2.467992,-4.544 -6.364402,-7.99576 -10.761719,-10.6211 -1.478663,-0.88133 -3.620254,-1.56847 -4.65625,-2.98047 -0.306667,-0.42 11.426613,-7.80136 12.474609,-8.19336 4.258651,-1.5973 18.663676,-8.51257 37.476566,-16.35848 20.99204,-8.75472 38.61702,-14.24195 43.21728,-16.0279 4.24925,-1.64968 10.4942,-2.5596 12.11084,-4.24977 4.61378,-5.44852 5.64892,-8.70409 8.39063,-12.93416 7.40613,14.40828 28.22867,34.98349 62.37267,40.69965 4.92266,0.95886 9.50602,0.17942 13.70741,-2.3806 3.50554,-2.06901 5.3232,-2.10343 6.0407,-5.30777 0.98933,1.6689 -0.13379,-0.11048 0.79213,0.79605 1.49695,1.17715 1.41322,3.21797 2.02447,3.49579 3.60964,1.84913 7.2245,1.97272 10.79737,3.31634 11.76057,4.4227 20.77192,7.05027 32.23204,11.80242 10.07116,4.17616 45.32674,19.23782 49.10938,22.80468 5.13196,5.64933 9.88411,41.83134 11.9043,60.61719 1.081,10.05251 1.58409,19.31406 1.60937,30.8125 0.0221,10.05652 0.67098,14.69501 0.45898,27.26563 h 4.79102 c -0.46782,-16.30456 -0.93648,-32.60951 -1.4043,-48.91407 -0.27496,-9.58308 -8.83461,-64.82417 -14.91992,-71.52148 -5.94269,-5.8708 -39.62069,-19.90653 -51.23242,-24.39258 -12.86025,-4.96839 -27.21839,-9.90399 -40.14107,-14.67691 -0.95968,-0.35825 -4.10014,-3.30319 -5.01127,-3.8016 -0.41016,-0.31715 -1.81363,-3.57792 -2.21761,-3.94204 -0.47193,1.54665 -1.28342,3.72144 -2.88938,5.67357 -1.79614,2.18332 -3.85551,2.66397 -6.25989,3.89182 -2.29839,1.17373 -4.84636,1.5138 -8.52973,0.76833 -36.57765,-6.22487 -57.26892,-31.07727 -61.15222,-39.65536 -0.14,-0.54934 -0.84263,-1.21733 -1.40235,-1.30664 z m -81.01719,105.78025 c 0,0 4.83815,17.85293 6.9254,33.58889 1.43251,8.37679 3.73666,27.34858 3.71289,29.56055 -0.0624,5.81077 1.95516,15.70989 1.26953,28.98047 h 6.7168 c -0.674,-21.02322 -1.35769,-36.00323 -3.91993,-50.62305 -2.54111,-14.49941 -4.83511,-25.11918 -14.70469,-41.50686 z m 257.30626,28.09671 c -0.90552,13.4907 -3.21953,23.61548 -3.66211,32.32812 0,0 -0.67551,14.33992 -1.96485,31.67188 h 5.57422 c 0.484,-9.21596 1.80615,-30.12901 1.86328,-33.65625 0.14604,-9.01569 -0.41958,-21.34644 -1.81054,-30.34375 z"
       sodipodi:nodetypes="sscsssccsccccsscccccsscccscscsscssccscscccssscsccsccscccccsc" /><path
       d="m 172.93813,219.80998 -38.35759,14.15231 -39.554987,17.65725 -11.736743,6.16192 -6.978515,5.21468 -9.458667,6.824 -8.589333,6.69866 L 39.092208,312.87768 27.202663,391.62673 26.678065,400 H 58.201 c 17.332858,-80.55318 32.166123,-92.52242 38.905153,-98.36756 6.739027,-5.84515 15.611687,-9.92638 23.283687,-12.71571 67.72267,-24.62667 105.27773,-27.75662 105.27773,-27.75662 0,0 -31.57374,-21.47037 -45.49519,-43.68695 -2.58856,0.14366 -4.84591,1.85749 -7.23425,2.33682 z"
       style="display:inline;opacity:0.199997;fill:#000000;fill-opacity:1;fill-rule:nonzero;stroke:none;stroke-width:1.33333"
       id="path172176"
       sodipodi:nodetypes="ccccccccccczcccc" /><path
       id="path1"
       style="color:#000000;fill:#000000;-inkscape-stroke:none"
       d="M 44.792969,293.81641 42.759766,295.88477 68,320.67969 105.84224,301.08103 c 0.69688,0.0154 108.73068,1.56787 164.11284,1.65725 32.64581,0.0527 96.78989,-1.66764 98.03906,-1.70117 l 8.99414,11.03711 2.24805,-1.83203 -9.89258,-12.14063 -0.71289,0.0195 c 0,0 -65.81796,1.76979 -98.67188,1.7168 -55.4802,-0.0895 -164.44682,-1.66507 -164.44682,-1.66507 l -0.39649,-0.008 -36.635201,18.92288 z m -3.898438,12.41211 -1.960937,2.13671 26.876953,24.67383 46.498043,-20.42383 c 0.56331,0.0101 106.25195,1.90034 159.35938,2.13868 31.83781,0.14288 94.53234,-0.4156 95.45508,-0.42383 l 12.4375,15.33789 2.25195,-1.82617 -13.31445,-16.42188 -0.69922,0.006 c 0,0 -64.09939,0.57339 -96.11914,0.42969 -53.19709,-0.23874 -159.63672,-2.14649 -159.63672,-2.14649 l -0.31836,-0.006 -45.347657,19.91993 z m 73.841289,14.84444 -49.310039,20.60477 -26.465221,-22.02312 -1.740234,2.32031 27.826549,23.04266 50.261215,-21.02665 c 0.32641,0.01 38.35576,0.10331 77.51418,1.2786 19.66211,0.59013 39.41663,1.18044 54.44531,1.62305 7.51433,0.2213 13.84799,0.40604 18.39648,0.53515 4.5485,0.12912 7.16116,0.20313 7.72656,0.20313 1.36405,0 25.18319,-0.6973 48.19802,-0.48271 22.68006,0.21147 44.34586,0.26598 44.99023,0.27209 l 16.00707,20.29851 2.21094,-1.875 -16.86449,-21.31023 -0.66211,-0.008 c 0,0 -22.63917,-0.0614 -45.6543,-0.27599 -23.01513,-0.2146 -46.58512,0.48075 -48.22536,0.48075 -0.18564,0 -3.09801,-0.0741 -7.64453,-0.20313 -4.5465,-0.12906 -10.87878,-0.31191 -18.39257,-0.5332 -15.02761,-0.44258 -34.78348,-1.03292 -54.44532,-1.62305 -39.32368,-1.18024 -77.8423,-1.28836 -77.8423,-1.28836 z"
       sodipodi:nodetypes="ccccscccccsccccccccscccccsccccccccccssssscccccssssscc" /><path
       style="fill:none;stroke:#000000;stroke-width:2;stroke-linecap:butt;stroke-linejoin:miter;stroke-dasharray:none;stroke-opacity:1"
       d="m 277.6824,399.14163 -1.28755,-42.91845 c 0,0 -3.05836,-38.80387 -6.43777,-57.93992 -1.99735,-11.31007 -8.1545,-33.47639 -8.1545,-33.47639 l 1.71673,-20.17168"
       id="path5"
       sodipodi:nodetypes="ccscc" /><path
       d="m 193.18209,234.09951 c -13.80934,-13.07067 -10.93563,-18.4788 -10.93563,-18.4788 l 9.15128,-12.33859 2.07856,0.81279 c 3.13855,12.95651 13.16199,17.59494 21.50599,25.81894 7.41067,7.304 12.34665,12.55791 24.62637,17.05749 4.07149,1.49189 3.568,11.54666 3.352,13.924 -0.216,2.37733 -8.01021,4.46212 -22.15954,-5.49388 -4.76,-3.34934 -13.8097,-8.23262 -27.61903,-21.30195 z"
       style="opacity:0.199997;fill:#000000;fill-opacity:1;fill-rule:nonzero;stroke:none;stroke-width:1.33333"
       id="path172060"
       sodipodi:nodetypes="cccccsscc" /><path
       id="path8"
       style="color:#000000;fill:#000000;-inkscape-stroke:none"
       d="m 187.9707,211.39844 -2.12304,1.66797 c 0,0 3.73639,4.75593 8.70507,10.41015 4.9687,5.65423 11.13571,12.20137 16.24024,15.91992 8.5395,6.22089 20.11779,10.99328 29.98633,14.2461 6.38066,2.10316 13.48447,3.83088 20.39648,2.62304 4.92933,-0.86136 8.12355,-1.79619 11.87695,-4.90624 l -0.33984,7.24023 c -0.25331,0.24726 -0.9568,0.95157 -2.31055,2.05664 -1.57045,1.28198 -3.61796,2.71462 -5.21289,3.31641 -4.49397,1.69563 -9.5978,2.26129 -14.37109,1.64062 -9.46928,-1.23128 -18.66046,-5.44348 -26.93359,-10.53906 -15.89933,-9.7927 -35.56271,-26.24365 -41.58399,-37.26563 l -2.36914,1.29297 c 6.63965,12.15393 26.34874,28.30076 42.53711,38.27149 8.46591,5.21431 17.97406,9.61431 28,10.91797 5.22204,0.679 10.73728,0.0716 15.67383,-1.79102 2.15526,-0.81321 4.29027,-2.38535 5.9668,-3.75391 1.67653,-1.36855 2.87695,-2.56054 2.87695,-2.56054 l 0.37109,-0.3711 c 0.51838,-7.56652 0.65294,-13.92292 0.99024,-21.125 l -2.69532,-0.12695 -0.38672,8.24414 c -0.006,0.0113 -0.005,0.0102 -0.0117,0.0215 -0.33892,0.65323 -0.75637,1.25388 -1.19141,1.84376 -3.79793,3.39367 -6.17135,4.02838 -11.35156,4.93359 -6.16299,1.07694 -12.86064,-0.47539 -19.08594,-2.52735 -9.71568,-3.20242 -21.1146,-7.94442 -29.24219,-13.86523 -4.71263,-3.43308 -10.88472,-9.92325 -15.80078,-15.51758 -4.91604,-5.59432 -8.61133,-10.29687 -8.61133,-10.29687 z"
       sodipodi:nodetypes="ccssssccssssccsssscccccscssssc" /><path
       id="path11"
       style="color:#000000;fill:#000000;fill-opacity:0.3;-inkscape-stroke:none"
       d="m 42.951172,305.83008 -1.839844,1.97656 24.771484,23.05469 46.216798,-19.80664 159.50781,2.27148 95.75977,-0.45117 10.97461,12.29102 2.01367,-1.79688 -11.78516,-13.20117 -96.94922,0.45898 -160.05664,-2.28125 -45.128903,19.3418 z m 73.279038,17.33858 -51.279038,21.28837 -26.65625,-22.00781 -1.910156,2.3125 28.078125,23.18164 52.355219,-21.75712 155.68384,3.21024 92.87213,0.5206 17.081,19.7255 2.16015,-2.08203 -17.94819,-20.62589 -94.10454,-0.53818 z"
       sodipodi:nodetypes="cccccccccccccccccccccccccc" /><path
       id="path13"
       style="color:#000000;fill:#000000;fill-opacity:0.3;-inkscape-stroke:none"
       d="M 188.85742 210.17188 L 186.85156 211.66406 C 186.85156 211.66406 192.29167 218.98786 195.41406 222.51953 C 199.8724 227.56224 204.2934 232.93702 209.86523 237.10742 C 216.48502 242.06219 224.01886 245.63922 231.52539 248.79102 C 237.84824 251.44581 244.45344 253.99434 251.41406 254.94727 C 255.06023 255.44643 258.83293 255.34833 262.44922 254.63086 C 265.16182 254.09269 268.10505 253.32894 270.53711 251.52734 C 271.55033 250.77677 272.62206 249.55131 273.54492 248.45898 C 274.46779 247.36666 275.1875 246.42578 275.1875 246.42578 L 273.19922 244.9082 C 273.19922 244.9082 272.51573 245.80529 271.63672 246.8457 C 270.75771 247.88612 269.629 249.0878 269.04883 249.51758 C 267.13302 250.93676 264.5577 251.66488 261.96289 252.17969 C 258.63055 252.84082 255.12632 252.93239 251.75391 252.4707 C 245.17825 251.57049 238.76846 249.12076 232.49414 246.48633 C 225.06063 243.36519 217.71579 239.86018 211.36328 235.10547 C 206.11165 231.17473 201.78359 225.94914 197.28711 220.86328 C 194.35052 217.54178 188.85742 210.17188 188.85742 210.17188 z M 184.0332 218.07617 L 182.26562 219.84375 C 182.21983 219.79795 182.42724 220.02811 182.66016 220.31445 C 182.89307 220.6008 183.20461 220.98993 183.57422 221.45312 C 184.31344 222.37954 185.28649 223.60513 186.36914 224.9375 C 188.53444 227.60224 191.11865 230.68609 193.19531 232.74609 C 199.67999 239.17881 206.61992 245.3234 214.33203 250.35547 C 223.20985 256.14814 232.65599 261.76283 243.05859 264.625 C 249.02588 266.26684 255.83794 266.97589 262.03125 266.33203 C 265.14835 266.00797 268.22853 264.13652 270.63477 262.4043 C 273.04099 260.67208 274.75977 259.00781 274.75977 259.00781 L 273.01953 257.21094 C 273.01953 257.21094 271.4222 258.75643 269.17383 260.375 C 266.92546 261.99357 264.01276 263.6129 261.77344 263.8457 C 255.95909 264.45016 249.39519 263.7756 243.72266 262.21484 C 233.75512 259.47239 224.51317 254.014 215.69727 248.26172 C 208.19061 243.36371 201.37144 237.33566 194.95508 230.9707 C 193.03163 229.06268 190.45609 226.00176 188.31055 223.36133 C 187.23777 222.04111 186.26849 220.82336 185.52734 219.89453 C 185.15677 219.43012 184.84402 219.03681 184.59961 218.73633 C 184.3552 218.43584 184.23071 218.27368 184.0332 218.07617 z " /></g></svg>
