<?xml version="1.0" encoding="UTF-8" standalone="no"?>
<!-- Created with Inkscape (http://www.inkscape.org/) -->

<svg
   version="1.1"
   id="svg171226"
   width="400"
   height="400"
   viewBox="0 0 400 400"
   sodipodi:docname="tngVulcanRobesMale.svg"
   inkscape:version="1.3.2 (091e20e, 2023-11-25)"
   xml:space="preserve"
   xmlns:inkscape="http://www.inkscape.org/namespaces/inkscape"
   xmlns:sodipodi="http://sodipodi.sourceforge.net/DTD/sodipodi-0.dtd"
   xmlns="http://www.w3.org/2000/svg"
   xmlns:svg="http://www.w3.org/2000/svg"><defs
     id="defs171230"><pattern
       patternUnits="userSpaceOnUse"
       width="20"
       height="20"
       patternTransform="translate(20,20)"
       preserveAspectRatio="xMidYMid"
       id="pattern28"
       style="fill:#000000"
       inkscape:label="pattern28"><g
         id="g28"
         transform="translate(-20,-20)"><rect
           style="fill:#683658;fill-opacity:1;fill-rule:evenodd;stroke-width:3;stroke-linecap:round;stroke-linejoin:round;stroke-miterlimit:20;stroke-dasharray:none"
           id="rect10"
           width="20"
           height="20"
           x="20"
           y="20" /><path
           id="path20"
           style="color:#000000;fill:#946675;fill-opacity:1;-inkscape-stroke:none"
           d="M 28.230469,20 20,28.230469 v 3.539062 L 31.769531,20 Z M 40,28.230469 28.230469,40 h 3.539062 L 40,31.769531 Z" /><path
           id="path16"
           style="color:#000000;fill:#e6d1e7;fill-opacity:1;-inkscape-stroke:none"
           d="m 20,20 v 1.769531 L 21.769531,20 Z M 38.230469,20 20,38.230469 V 40 h 1.769531 L 40,21.769531 V 20 Z M 40,38.230469 38.230469,40 H 40 Z" /></g></pattern></defs><sodipodi:namedview
     id="namedview171228"
     pagecolor="#ffffff"
     bordercolor="#666666"
     borderopacity="1.0"
     inkscape:showpageshadow="2"
     inkscape:pageopacity="0.0"
     inkscape:pagecheckerboard="0"
     inkscape:deskcolor="#d1d1d1"
     showgrid="false"
     inkscape:zoom="2.7175"
     inkscape:cx="184.54462"
     inkscape:cy="223.36707"
     inkscape:window-width="2160"
     inkscape:window-height="1315"
     inkscape:window-x="2311"
     inkscape:window-y="36"
     inkscape:window-maximized="0"
     inkscape:current-layer="layer4"><inkscape:page
       x="0"
       y="0"
       id="page171232"
       width="400"
       height="400"
       margin="0"
       bleed="0"
       inkscape:export-filename="tngVulcanRobesMale.png"
       inkscape:export-xdpi="96"
       inkscape:export-ydpi="96" /></sodipodi:namedview><g
     inkscape:groupmode="layer"
     id="layer1"
     inkscape:label="Caitian Neck"
     sodipodi:insensitive="true"
     style="display:none"><path
       id="path171974-7"
       style="display:inline;fill:#cd976d;fill-opacity:1;fill-rule:nonzero;stroke:none;stroke-width:1.33333"
       d="m 202.7793,134.83984 0.27929,39.65625 -1.9375,20.33399 -1.03711,3.61133 c 0,0 -7.22995,3.05662 -19.39062,9.39648 -5.04621,2.6308 -0.40834,13.40108 0.082,19.08984 5.17468,11.7862 12.4871,63.74457 23.36043,65.15657 l 63.83053,12.13557 29.43209,-16.72768 -5.98633,-27.4043 -15.29102,-26.03516 -2.67968,0.54688 c 0.0327,-0.0596 0.0629,-0.12016 0.0957,-0.17969 0.82534,-1.498 1.68642,-3.01569 2.54101,-4.5293 l 14.45118,-18.10351 -6.81055,-5.35742 c 0.12479,-2.06162 0.1501,-4.2506 0.0293,-6.61914 z"
       sodipodi:nodetypes="ccccscccccccsccccc" /><path
       id="path1917"
       style="display:inline;opacity:0.199997;fill:#000000;fill-opacity:1;fill-rule:nonzero;stroke:none;stroke-width:1.33333"
       d="m 202.7793,134.83984 0.27929,39.65625 -1.93554,20.33203 -0.53711,1.86524 -3.58985,3.95117 c 0,0 -15.87953,7.83216 -16.41601,7.93945 l 2.34765,19.05469 7.61799,27.14324 c 0,0 8.68098,-4.50209 12.53957,-5.78149 3.68204,-1.22087 7.06925,-2.00796 13.2194,-1.25628 -0.0267,-1.31867 -0.0476,-2.6397 0.0391,-3.95703 0.0693,-1.04933 0.008,-2.16111 0.24805,-3.17578 0.356,0.188 0.76605,0.22628 1.13672,0.37695 -0.0347,-1.77867 -0.10236,-3.72473 0.45898,-5.41406 1.28133,1.60667 3.08061,2.89752 4.80859,3.99219 0.32266,-0.78 0.2325,-1.67327 0.67383,-2.47461 0.416,-0.75733 1.0023,-1.35941 1.6543,-1.91407 0.928,-0.78932 2.27289,-1.49589 2.85156,-2.44921 -0.616,2.14265 -0.11083,4.82446 0.70117,6.84179 0.66133,1.64933 1.93574,3.67746 3.42774,4.68946 0.0827,-0.83333 -0.0133,-1.82953 0.19336,-2.63086 1.24133,1.54664 3.16548,2.18303 4.52148,3.48437 0.10933,-0.88134 -0.69933,-2.31712 -0.97265,-3.17578 -0.22266,-0.70134 -0.44295,-1.36103 -0.48829,-2.0957 -0.0973,-1.58533 0.46558,-3.08402 1.74024,-4.05469 1.95867,-1.49067 4.4262,-3.5803 4.51953,-6.26563 0.61467,1.98 0.13891,4.06076 0.37891,6.10743 1.10131,0.0107 2.29837,-1.30094 2.81835,-2.1836 0.44266,-0.75334 0.77571,-1.57809 1.09571,-2.38476 0.27334,0.552 0.1846,1.26915 0.44726,1.78515 0.62267,-1.09333 1.56889,-1.70417 2.57422,-2.29882 1.05467,-0.62533 1.84808,-0.77972 3.08008,-0.87305 0.796,-0.0587 1.77112,-0.24207 2.56445,-0.082 2.428,0.48534 4.81697,1.37094 7.29297,1.84961 2.04718,0.39714 8.52209,2.25138 11.51172,1.09961 0.0923,0.009 0.26757,0.0313 0.34961,0.0391 l 0.29883,-0.375 c 0.21757,-0.15233 0.41244,-0.32283 0.55469,-0.53516 0,0 0.48351,-0.72262 0.66406,-0.99219 l 15.08008,-18.89062 -6.8086,-5.35547 c 0.12461,-2.06058 0.14606,-4.25365 0.0254,-6.62109 l -1.875,-1.50586 c -0.10666,-0.0853 -0.21303,-0.16857 -0.31836,-0.25391 l -56.53711,-45.36914 c -2.57598,-2.06666 -5.15117,-4.13317 -7.72851,-6.20117 -1.22533,-0.984 -2.47708,-1.9433 -3.70508,-2.91797 -0.13333,-0.10666 -0.24248,-0.23822 -0.36914,-0.35156 z"
       sodipodi:nodetypes="ccccccccscccccccccccccccccccccccccccccccccccccccc" /><path
       d="m 292.98639,209.7856 c -0.009,-0.004 -0.152,0.14267 -0.16133,0.15334 -4.86533,4.952 -8.33467,11.59866 -12.03867,17.21733 -0.896,1.36133 -1.19733,2.88267 -2.20266,4.20667 -0.14534,-0.29734 -0.29067,-0.59467 -0.436,-0.892 -1.66267,2.33733 -2.88267,4.79466 -3.98667,7.33733 l -1.07867,-0.564 c -0.90933,1.66133 -1.412,3.472 -1.45733,5.24267 -0.52933,0.008 -1.044,-0.11734 -1.47067,-0.36134 -0.48266,1.17467 -0.62,2.43334 -0.392,3.596 0.032,0.164 0.0707,0.33867 -10e-4,0.504 -0.18667,0.42934 -0.848,0.40667 -1.30133,0.29067 0.0693,0.436 0.63066,4.90133 1.67866,4.46133 -0.49866,0.19867 -1.028,0.29467 -1.54133,0.376 -0.04,1.30934 0.57067,2.37734 1.1,3.484 0.005,0.0107 -0.91467,0.0147 -1.01467,-0.007 -0.316,-0.068 -0.59733,-0.204 -0.83866,-0.38934 -0.54134,-0.416 -0.85067,-1.04266 -1.06,-1.664 -0.26534,-0.78933 -0.38,-1.63466 -0.436,-2.47866 -0.032,-0.46534 -0.028,-0.87867 -0.19067,-1.308 -0.16667,-0.43867 -0.388,-0.888 -0.39867,-1.37467 0.20534,0.0133 0.39067,0.164 0.596,0.0787 0.0533,-0.45334 -0.22533,-0.73467 -0.22933,-1.16267 -0.008,-0.772 0.28933,-1.58667 0.408,-2.35733 0.064,-0.41067 0.14533,-0.78 0.284,-1.17734 0.17467,-0.50266 0.24133,-1.07466 0.464,-1.54533 0.204,-0.012 0.27067,0.14533 0.38,0.26133 0.17333,-0.60533 0.47867,-1.46933 0.89733,-1.99866 0.24667,0.0333 0.29734,0.36133 0.444,0.512 -0.0627,-0.064 0.348,-1.18934 0.38267,-1.348 0.1,-0.45334 0.17067,-0.916 0.30667,-1.36534 0.224,-0.736 0.62666,-1.47066 0.99066,-2.168 0.29067,-0.55733 0.688,-1.09333 1.02134,-1.63333 0.328,-0.532 0.69733,-1.03333 1.01733,-1.572 0.19333,-0.32533 0.35467,-0.70667 0.592,-1.00933 0.0813,0.21066 0.24133,0.408 0.316,0.616 0.26267,-0.38134 0.36267,-0.85467 0.584,-1.25467 0.28533,-0.51733 0.50133,-1.06933 0.736,-1.60133 0.44933,-1.024 0.88933,-2.05334 1.46533,-3.036 2.47734,-4.232 4.96134,-8.46 7.448,-12.688 1.15734,-1.96934 2.316,-3.93734 3.476,-5.90534 0,0 5.64667,2.52267 5.648,2.524"
       style="display:inline;fill:#000000;fill-opacity:1;fill-rule:nonzero;stroke:none;stroke-width:1.33333"
       id="path1927" /><path
       id="path2083"
       style="display:inline;fill:#000000;fill-opacity:1;fill-rule:nonzero;stroke:none;stroke-width:1.33333"
       d="m 201.92773,154.77539 c 0,0 0.87874,21.43641 -1.19726,29.67773 0,0 1.00041,-1.99145 1.31641,-3.1621 0,0 -0.94883,7.34575 -1.90821,12.82812 -0.18874,0.62974 -0.37784,1.25892 -0.56836,1.88867 -0.10973,0.36213 -0.40835,0.93756 -0.63086,1.47852 -6.16575,4.61226 -11.83394,7.01315 -18.5332,9.77539 l 1.41797,2.64453 c 6.36606,-2.70101 14.31005,-7.2532 16.67925,-9.04918 2.75203,-2.08618 3.2031,-5.92234 3.36176,-8.05434 0.17467,-2.34399 0.35277,-5.20292 0.88477,-7.29492 0.532,-2.092 0.70859,-0.38347 1.03125,-4.99414 0.33334,-4.75065 0.61499,-6.85788 0.73633,-8.56055 0.12266,-1.70132 0.25268,-3.14695 0.16601,-6.98828 -0.108,-4.68932 -0.20898,-6.65039 -0.20898,-6.65039 z"
       sodipodi:nodetypes="ccccccccscsccccc" /></g><g
     inkscape:groupmode="layer"
     id="g11"
     inkscape:label="Caitian Straightened Neck"
     style="display:none"
     sodipodi:insensitive="true"><path
       id="path3"
       style="display:inline;fill:#cd976d;fill-opacity:1;fill-rule:nonzero;stroke:none;stroke-width:1.33333"
       d="m 194.34,134.658 1.09609,36.48056 -1.57453,20.69697 -0.85562,3.79281 c 0,0 -0.15191,5.86969 -12.31258,12.20955 -5.04621,2.6308 -0.40834,13.40108 0.082,19.08984 5.17468,11.7862 12.4871,63.74457 23.36043,65.15657 l 63.83053,12.13557 29.43209,-16.72768 -5.98633,-27.4043 -15.60862,-25.8083 -2.36208,0.32002 c 0.0327,-0.0596 0.0845,-0.11265 0.0957,-0.17969 0.34893,-2.08784 0.7336,-4.42223 1.58819,-5.93584 l 9.57369,-21.21149 -0.98024,-0.8429 c 0.12479,-2.06162 0.1501,-4.2506 0.0293,-6.61914 z"
       sodipodi:nodetypes="ccccscccccccsccccc" /><path
       id="path6"
       style="display:inline;opacity:0.199997;fill:#000000;fill-opacity:1;fill-rule:nonzero;stroke:none;stroke-width:1.33333"
       d="m 194.34,134.658 0.73311,41.10851 -1.93554,20.33203 -0.53711,1.86524 -0.32306,0.68438 c 0,0 -11.16084,9.82853 -11.69732,9.93582 l 2.34765,19.05469 7.61799,27.14324 c 0,0 8.68098,-4.50209 12.53957,-5.78149 3.68204,-1.22087 7.06925,-2.00796 13.2194,-1.25628 -0.0267,-1.31867 -0.0476,-2.6397 0.0391,-3.95703 0.0693,-1.04933 0.008,-2.16111 0.24805,-3.17578 0.356,0.188 0.76605,0.22628 1.13672,0.37695 -0.0347,-1.77867 -0.10236,-3.72473 0.45898,-5.41406 1.28133,1.60667 3.08061,2.89752 4.80859,3.99219 0.32266,-0.78 0.2325,-1.67327 0.67383,-2.47461 0.416,-0.75733 1.0023,-1.35941 1.6543,-1.91407 0.928,-0.78932 2.27289,-1.49589 2.85156,-2.44921 -0.616,2.14265 -0.11083,4.82446 0.70117,6.84179 0.66133,1.64933 1.93574,3.67746 3.42774,4.68946 0.0827,-0.83333 -0.0133,-1.82953 0.19336,-2.63086 1.24133,1.54664 3.16548,2.18303 4.52148,3.48437 0.10933,-0.88134 -0.69933,-2.31712 -0.97265,-3.17578 -0.22266,-0.70134 -0.44295,-1.36103 -0.48829,-2.0957 -0.0973,-1.58533 0.46558,-3.08402 1.74024,-4.05469 1.95867,-1.49067 4.4262,-3.5803 4.51953,-6.26563 0.61467,1.98 0.13891,4.06076 0.37891,6.10743 1.10131,0.0107 2.29837,-1.30094 2.81835,-2.1836 0.44266,-0.75334 0.77571,-1.57809 1.09571,-2.38476 0.27334,0.552 0.1846,1.26915 0.44726,1.78515 0.62267,-1.09333 1.56889,-1.70417 2.57422,-2.29882 1.05467,-0.62533 1.84808,-0.77972 3.08008,-0.87305 0.796,-0.0587 1.77112,-0.24207 2.56445,-0.082 2.428,0.48534 4.81697,1.37094 7.29297,1.84961 2.04718,0.39714 8.31792,2.09258 11.30755,0.94081 0.25716,-0.61453 0.26361,-1.10245 0.65866,-1.48358 3.95191,-7.6748 7.0869,-15.79525 10.59442,-23.7054 l -0.91024,-0.76156 c 0.12461,-2.06058 0.14606,-4.25365 0.0254,-6.62109 C 253.16007,177.44795 224.13397,156.20353 194.34,134.658 Z"
       sodipodi:nodetypes="ccccccccsccccccccccccccccccccccccccccccc" /><path
       d="m 275.04052,229.0515 c -1.32238,2.63225 -1.36348,4.921 -1.92302,8.14425 l -0.67032,-0.38251 c -0.72784,1.82013 -1.00365,4.08452 -1.32121,6.01399 -0.43859,-0.3096 -0.54491,-0.45763 -0.97158,-0.70163 -0.93556,2.27691 -0.67644,4.52406 -0.64255,5.03013 -0.36815,-0.13781 -0.59845,-0.52346 -1.05178,-0.63946 0.0693,0.436 0.53992,3.6536 1.47449,4.5067 -0.49866,0.13061 -0.82383,0.2493 -1.33716,0.33063 -0.04,1.30934 0.57067,2.37734 1.1,3.484 0.005,0.0107 -0.91467,0.0147 -1.01467,-0.007 -0.316,-0.068 -0.59733,-0.204 -0.83866,-0.38934 -0.54134,-0.416 -0.94364,-1.01875 -1.06,-1.664 -0.31389,-1.74065 -0.68266,-3.44513 -1.02534,-5.16133 0.20534,0.0133 0.39067,0.164 0.596,0.0787 0.0533,-0.45334 0.002,-1.52868 -0.002,-1.95668 -0.01,-0.92078 0.58019,-4.10318 0.8384,-4.64897 0.204,-0.012 0.36141,0.50831 0.47074,0.62431 0.17333,-0.60533 0.31987,-1.76424 0.26212,-2.65655 0.22398,0.23747 0.56957,0.58819 0.71623,0.73886 -0.0629,-0.0642 1.17685,-9.15929 1.40764,-10.37932 0.0813,0.21066 0.24133,0.408 0.316,0.616 0.41441,-0.98425 0.89333,-2.11756 1.25422,-3.12207 3.05062,-8.49117 5.3588,-14.23296 8.46237,-22.56564 0,0 5.03415,2.23909 5.19412,2.30864 -3.45549,8.01772 -8.16266,18.95356 -9.93157,22.92756 -0.12719,-0.17315 -0.15714,-0.23194 -0.30247,-0.52927 z"
       style="display:inline;fill:#000000;fill-opacity:1;fill-rule:nonzero;stroke:none;stroke-width:1.33333"
       id="path7"
       sodipodi:nodetypes="ccccccccccccscccccccccscccc" /><path
       id="path11"
       style="display:inline;fill:#000000;fill-opacity:1;fill-rule:nonzero;stroke:none;stroke-width:1.33333"
       d="m 193.30704,152.23456 c 0,0 1.78618,21.79939 -0.28982,30.04071 0,0 1.00041,-1.99145 1.31641,-3.1621 0,0 -0.79426,7.26747 -1.49986,12.96424 -0.90893,7.79645 -10.74188,14.14874 -12.42752,15.18431 l 1.41797,2.64453 c 6.36606,-2.70101 8.60418,-7.59416 10.51966,-10.29758 1.9965,-2.81777 2.12703,-5.72883 2.39794,-7.84949 0.53022,-4.15075 1.14035,-9.76802 1.14469,-14.10394 0.006,-5.67373 0.2689,-10.15114 0.17639,-15.23123 -0.108,-4.68932 -0.20898,-6.65039 -0.20898,-6.65039 z"
       sodipodi:nodetypes="cccsccsssccc" /></g><g
     inkscape:groupmode="layer"
     id="layer3"
     inkscape:label="Neck"
     style="display:inline"
     sodipodi:insensitive="true"><path
       d="m 193.92956,156.83896 1.07804,43.14526 c 0,0 -15.16814,9.26605 -27.62585,15.11087 -5.15196,2.41716 6.3679,8.42082 12.00678,13.11949 6.3628,11.09314 13.20657,59.78711 24.07991,61.19911 l 64.83114,20.65091 31.60423,-20.23568 2.77395,-32.49795 -6.85031,-16.33659 -20.30035,-5.42027 -5.40543,-0.89906 7.63592,-29.91835 z"
       style="display:inline;fill:#cd976d;fill-opacity:1;fill-rule:nonzero;stroke:none;stroke-width:1.33333"
       id="path1-8"
       sodipodi:nodetypes="ccscccccccccc" /><path
       id="path2-0"
       style="display:inline;opacity:0.199997;fill:#000000;fill-opacity:1;fill-rule:nonzero;stroke:none;stroke-width:1.33333"
       d="m 193.92984,156.54244 c 0.18656,14.45431 1.20539,28.23027 1.08605,43.31001 0,0 -28.95,15.84632 -29.48648,15.95361 l 15.31911,13.21875 9.50858,19.9106 c 0,0 6.36994,-7.4394 12.53971,-10.84568 8.4658,-4.6739 20.23152,-8.18345 25.20413,-8.40229 12.79353,-0.56305 24.26999,0.17488 30.36,2.002 6.33854,1.90169 9.1383,2.96233 11.5103,3.18766 l 7.9838,-30.1197 z"
       sodipodi:nodetypes="cccccsssccc" /><path
       id="path3-2"
       style="display:inline;fill:#000000;fill-opacity:1;fill-rule:nonzero;stroke:none;stroke-width:1.33333"
       d="m 192.53562,154.87583 c -0.0206,5.69039 0.60559,18.28119 0.74967,24.52969 0.35289,15.30373 -0.17134,20.32528 -1.90371,21.71518 -6.0059,4.81858 -19.99843,11.0664 -26.6977,13.82864 l 1.48798,2.29448 c 7.03224,-2.98366 25.65804,-11.50282 28.38778,-14.57885 1.85972,-2.09564 2.19108,-13.85859 1.9701,-21.14076 -0.19638,-6.47155 -0.6607,-18.52777 -0.55617,-23.34114 z"
       sodipodi:nodetypes="cssccsscc" /><path
       id="path4-4"
       style="display:inline;fill:#000000;fill-opacity:1;fill-rule:nonzero;stroke:none;stroke-width:1.33333"
       d="m 274.37891,207.58594 c 0,0 -8.5518,35.48652 -8.81446,36.25586 -0.548,1.60666 -0.91064,5.39733 1.19336,5.33203 2.82653,-0.0884 3.95575,-8.01329 4.95313,-12.54883 l 13.79297,4.73828 1.07226,-3.12109 -14.01562,-4.81641 c 1.6756,-6.18349 5.10499,-20.75915 6.65625,-24.0664 z" /></g><g
     id="g171234"
     inkscape:groupmode="layer"
     inkscape:label="Vulcan Robes"
     style="display:inline"><path
       style="display:inline;fill:#e2e2c7;fill-opacity:1;stroke:none;stroke-width:1px;stroke-linecap:butt;stroke-linejoin:miter;stroke-opacity:1"
       d="m 163.33938,215.60799 20.68966,-8.71144 2.90381,-2.54083 2.54083,-11.97822 2.90382,-15.24501 16.33393,22.50453 17.78585,14.88204 8.34846,5.80762 -0.36298,29.76406 15.60798,3.26679 11.61525,-1.08893 7.16878,-3.72051 2.99456,-19.147 1.08893,-4.71869 3.26679,-3.99274 0.36297,-3.62977 1.45191,4.35572 -1.08893,11.61524 v 1.45191 l 18.14882,5.80762 5.80762,34.84574 -10.52631,98.3666 -13.43013,20.32668 -25.77133,-8.34846 -43.55717,-76.58802 z"
       id="path17"
       sodipodi:nodetypes="cccccccccccccccccccccccccc" /><path
       id="path171958"
       style="fill:#7d361c;fill-opacity:1;fill-rule:nonzero;stroke:none;stroke-width:1.33333"
       d="m 161.33242,216.30317 c -0.99082,-1.35983 -1.26585,-2.07687 -2.77576,-2.7632 0,0 -2.1697,-1.77874 -5.53968,-0.19518 -2.33453,1.097 -3.19626,5.11061 -3.19626,5.11061 l -13.88169,6.50027 c 0,0 -5.93005,-2.54653 -8.60043,-1.40349 -3.39083,1.45143 -3.42088,6.91379 -3.42088,6.91379 l -11.12182,5.06309 c 0,0 -6.14497,-2.34259 -8.70958,-0.94591 -3.09905,1.68773 -3.20215,6.36859 -3.20215,6.36859 l -5.612991,2.55526 c -4.9853,2.32567 -8.912547,4.00368 -12.201587,5.33543 -2.539202,1.02813 -4.82339,-2.54651 -8.325583,-0.89192 -4.930229,2.32926 -1.696853,4.78122 -3.287117,5.4409 -3.274916,1.35849 -6.497329,2.90215 -10.847326,5.47812 -0.494282,0.2927 -9.758168,-0.65697 -14.334145,2.2139 -4.301803,2.69886 -6.455737,7.25188 -7.340275,11.00122 -1.540834,6.5312 0.681232,25.40171 4.027111,24.15066 3.819252,-1.42804 8.031517,-17.31934 7.727892,-16.96649 l 5.111266,-9.0424 21.331397,18.33999 28.675778,39.92773 14.51892,28.22168 3.81116,16.06152 1.02149,27.21289 131.94531,-0.0117 c -7.08586,-10.58107 -19.6572,-36.05403 -23.43416,-43.03288 0,0 -32.20688,-63.09907 -46.55319,-92.65969 -10.60796,-21.85772 -21.4824,-41.43845 -21.4824,-41.43845 z m 135.17741,24.37538 c 1.94754,8.86777 3.42123,19.17132 4.34827,33.97348 1.52535,24.3556 -3.35532,43.76749 -5.71013,68.0577 C 293.28874,361.88798 286.14062,400 286.14062,400 l 99.54883,-0.0332 -0.15854,-14.75827 1.61753,-11.38236 -2.81158,-10.39396 2.79986,-21.11385 c -0.37309,-5.81489 -0.67955,-18.46306 -3.07574,-29.09971 -2.45504,-10.89795 3.41602,-21.62168 4.89086,-25.3497 0.70351,-1.77832 3.51635,-7.15993 2.60591,-9.22192 -0.56729,-1.28482 -4.01384,-2.62492 -5.35772,-1.25358 -1.29357,1.32 -3.54703,0.58241 -5.07219,-0.0812 -0.9081,-0.39512 -5.75931,-2.81703 -9.81061,-5.32835 -1.6638,-1.03136 -3.39099,-1.44749 -4.46004,-1.5319 -0.27774,-0.0219 -0.59525,1.07088 -0.79871,0.99052 -3.2315,-1.27631 -8.39568,-3.04665 -10.41001,-3.84177 -0.49088,-0.19376 -1.26681,-3.89207 -5.31822,-5.0789 -2.79882,-0.81989 -3.93966,1.72173 -4.77987,1.36995 -5.98397,-2.50542 -10.05019,-3.85983 -15.12546,-6.00564 -0.99427,-0.42038 -1.39272,-4.63859 -4.49163,-5.69426 -3.78794,-1.2904 -4.83705,1.91098 -5.87292,1.51588 -3.91242,-1.49227 -8.4944,-3.59983 -11.92498,-5.40159 -0.27744,-0.14571 -1.88624,-3.15835 -2.18229,-3.31478 -2.5533,-1.34913 -4.95143,-2.42412 -9.44327,-4.31281 z"
       sodipodi:nodetypes="ccsccsccsccssssssscccccccccscccssccccccsssssssssssssssscc" /><path
       id="path35"
       style="fill:#411213;fill-opacity:1;stroke:none;stroke-width:1px;stroke-linecap:butt;stroke-linejoin:miter;stroke-opacity:1"
       d="m 281.66969,234.11978 1.81488,4.35572 7.25953,8.71143 3.99274,17.05989 -2.54083,17.0599 -7.62251,13.7931 -3.26678,3.99274 L 276.22505,400 h 9.43738 l 10.16334,-63.88385 3.95017,-50.06553 0.0426,-18.89998 -2.90381,-26.49728 -7.98548,-6.1706 z m 101.15648,74.42319 -15.85742,48.98828 1.08008,42.44141 17.64062,-0.006 -0.1582,-14.75782 1.61719,-11.38281 -2.8125,-10.39453 2.80078,-21.11328 c -0.37309,-5.81488 -0.67999,-18.46297 -3.07617,-29.09961 -0.36093,-1.60214 -0.81221,-3.12255 -1.23438,-4.67578 z M 58.027263,269.36362 c -8.392063,13.48065 -12.171966,25.01473 -16.146404,41.3688 l -11.466797,45.0293 -0.285156,10.13476 -3.558594,16.27149 3.09375,17.83203 95.496098,-0.01 -1.02149,-27.21289 -3.81116,-15.33557 -14.51892,-28.94763 -28.675778,-39.92773 z m 101.500867,-54.66308 6.1706,-5.62613 9.07441,-0.18149 3.99274,7.07804 11.07078,32.12341 16.33394,28.13068 16.15245,15.06352 11.97822,6.53357 7.44102,2.17786 6.35208,41.37931 6.89656,30.12704 L 264.42831,400 h -8.34846 L 216.8784,323.41198 178.03993,245.91652 166.42468,222.68603 Z"
       sodipodi:nodetypes="cccccccccccccccccccccccsccccccccccccccccccccccccccccccc" /><path
       d="m 110.40351,319.95235 c -1.897,-0.17066 7.00491,17.65148 10.22816,29.66753 l 2.26095,8.13327 c 0,0 2.81989,18.91068 4.70038,42.24685 h 21.58147 c -4.75399,-23.12251 -12.96436,-41.4572 -16.62824,-49.83368 -3.66388,-8.37647 -20.24572,-30.04332 -22.14272,-30.21397 z"
       style="opacity:0.199997;fill:#000000;fill-opacity:1;fill-rule:nonzero;stroke:none;stroke-width:1.33333"
       id="path172192"
       sodipodi:nodetypes="zcccczz" /><path
       style="opacity:0.2;fill:#000000;fill-opacity:1;stroke:none;stroke-width:0.911631px;stroke-linecap:butt;stroke-linejoin:miter;stroke-opacity:1"
       d="m 367.73495,350.44725 c 0,0 14.4549,-41.49844 14.72252,-40.73546 0.58828,1.67717 1.38649,3.90462 1.56826,7.35601 0.1157,2.19682 -7.30676,23.75883 -11.3595,41.52076 -0.60788,2.66416 0.60571,21.91042 1.86285,26.00781 0.46918,1.52922 -0.0264,6.09901 0.016,7.42622 C 374.729,397.77064 374.221,400 374.221,400 h -7.842 z"
       id="path2"
       sodipodi:nodetypes="csssssccc" /><path
       id="path14"
       style="color:#000000;fill:#000000;-inkscape-stroke:none"
       d="m 192.4803,175.44228 c -1.34397,0.30572 -1.16576,1.39703 -1.2303,2.24913 -0.29421,3.88428 -0.77618,6.85557 -1.42969,10.02734 -1.14298,5.54755 -4.38353,16.27502 -4.57617,16.91211 l -9.74219,3.77148 1.08399,2.79688 10.01367,-3.87695 c 0.45814,0.90927 1.88706,3.7873 4.4668,8.35351 2.95308,5.22709 7.02534,10.96812 10.35126,14.72101 5.02858,5.67413 10.76453,10.92761 17.48077,14.48602 10.06578,5.33309 21.3067,9.98912 32.96289,10.33789 6.21722,0.18603 12.96541,-1.03989 18.30078,-4.60937 3.24631,-2.17187 5.40897,-5.6486 6.41159,-9.1713 0.47574,-1.60781 0.84422,-3.76251 0.99779,-5.54989 2.63762,1.06889 4.15215,1.66909 4.90666,1.96193 l -0.6866,-2.88365 c -1.13918,-0.40934 -1.80801,-0.62434 -3.82278,-1.34733 0.19074,-0.83248 0.43919,-1.96817 0.69922,-3.33398 0.48252,-2.53449 0.96404,-5.54211 0.87109,-7.84375 -0.0541,-1.33979 -0.44624,-2.89264 -0.81054,-4.21484 -0.36431,-1.32222 -1.62619,-3.37124 -1.62619,-3.37124 l -2.00663,1.62514 c 0,0 0.0741,0.75699 0.0703,1.67383 -0.004,0.91684 -0.18581,2.02715 -0.28907,2.23828 -0.15183,0.31046 -1.03911,1.24586 -1.87109,1.89844 -0.83198,0.65258 -1.57227,1.11914 -1.57227,1.11914 l -0.62109,0.39258 -5.76573,25.90984 c -4.60611,3.04493 -7.38157,2.67714 -13.0956,2.50617 -5.74006,-0.17175 -11.45973,-1.49519 -17.03515,-3.45703 l 2.2207,-28.47851 -0.74024,-0.48633 c 0,0 -8.17263,-5.3824 -11.88086,-8.27735 -4.93349,-3.85148 -9.83709,-7.69705 -13.97656,-12.17578 -6.12101,-6.62267 -16.54687,-22.31445 -16.54687,-22.31445 0,0 -0.48914,-1.82162 -1.51189,-1.58897 z m 1.19939,6.43272 c 2.69795,4.01247 9.30138,13.71213 14.65625,19.50586 4.35853,4.71575 9.39857,8.65286 14.33398,12.50586 3.72179,2.90553 10.4512,7.31933 11.33985,7.9043 l -2.01758,25.89257 c -4.00327,-1.57926 -7.91771,-3.45281 -11.68946,-5.45117 -6.37438,-3.3773 -11.84183,-8.4129 -16.63897,-13.82587 -2.97752,-3.35976 -7.07203,-9.05289 -9.98407,-14.20733 -0.56996,-1.00885 -3.0693,-5.45988 -5.22852,-9.80078 0.92638,-3.0998 3.30095,-11.19302 4.30664,-16.07422 0.45568,-2.21161 0.63957,-4.15624 0.92188,-6.44922 z m 82.74683,48.04406 c -0.37116,2.9947 -1.00049,5.20585 -1.29921,8.25804 -0.16315,1.66702 -0.86917,3.37446 -0.95966,3.60314 -0.60862,1.53802 -2.75544,4.30483 -4.41992,5.70876 l 3.91043,-21.98119 c 0.32956,-0.21859 0.56417,-0.3554 1.19922,-0.85351 0.53401,-0.41886 2.43419,-2.33844 2.43419,-2.33844 0,0 -0.54284,5.00347 -0.86505,7.6032 z"
       sodipodi:nodetypes="sssccccssssssccccssscccsscccscccsscscssccssscscsssccscs" /><path
       style="color:#000000;fill:#000000;-inkscape-stroke:none"
       d="m 51.542715,330.30884 c 0,0 5.003848,19.68959 10.223292,30.36547 3.555107,7.27163 6.832709,13.17986 12.054688,19.04953 1.839149,2.06726 5.297846,5.7358 7.89591,7.88429 2.679487,2.21583 8.132866,6.00994 8.132866,6.00994 0,0 -4.76698,-4.49734 -7.550835,-6.82439 -2.564068,-2.14332 -5.502717,-6.76973 -7.218522,-8.69835 C 69.985557,372.36889 66.913211,366.84299 63.370269,359.5932 58.313501,349.24573 51.542715,330.30884 51.542715,330.30884 Z"
       id="path18"
       sodipodi:nodetypes="cssscsssc" /><path
       style="fill:#000000;stroke:none;stroke-width:1px;stroke-linecap:butt;stroke-linejoin:miter;stroke-opacity:1;fill-opacity:0.30000001"
       d="m 46.098004,292.74047 c 0,0 7.130331,-3.10758 10.707804,-2.35934 9.960937,2.08335 17.293862,10.96946 24.682395,17.96733 14.048916,13.30609 36.660617,45.00907 36.660617,45.00907 L 105.08167,327.04174 78.584392,289.83666 59.891107,270.23593 49.001815,268.60254 44.46461,275.49909 v 11.79674 z"
       id="path21"
       sodipodi:nodetypes="csscccccccc" /><path
       style="color:#000000;fill:#000000;-inkscape-stroke:none"
       d="m 47.060866,345.51151 c 0,0 6.035951,19.16024 11.353403,28.07577 7.61217,12.76297 17.447782,22.4198 17.447782,22.4198 0,0 -8.687545,-10.14027 -16.265624,-23.12206 -5.136053,-8.79843 -12.535561,-27.37351 -12.535561,-27.37351 z"
       id="path19"
       sodipodi:nodetypes="cscsc" /><path
       style="color:#000000;fill:#000000;-inkscape-stroke:none"
       d="m 380.45035,335.28389 c 0,0 0.60331,2.09422 0.84171,3.14113 0.32595,1.43139 0.44496,4.49218 0.47972,5.27402 0.19431,4.36984 -0.21168,5.57985 -0.76758,9.62022 -1.13928,8.2805 -3.49685,16.33172 -5.47881,24.4991 -1.76035,7.25413 -5.89844,21.66797 -5.89844,21.66797 l 0.96094,0.27539 c 0,0 4.13675,-14.3991 5.91016,-21.70703 1.97911,-8.15564 4.11938,-16.32996 5.26953,-24.68946 0.55412,-4.02748 0.75951,-5.22661 0.50121,-9.59018 -0.0562,-0.94913 -0.28134,-4.01442 -0.6154,-5.33515 -0.26984,-1.06685 -1.20304,-3.15601 -1.20304,-3.15601 z"
       id="path23"
       sodipodi:nodetypes="cssssccssssc" /><path
       style="fill:#000000;fill-opacity:0.2;stroke:none;stroke-width:1px;stroke-linecap:butt;stroke-linejoin:miter;stroke-opacity:1"
       d="m 369.69147,400 3.62976,-10.88929 4.80944,-20.41742 3.62977,-18.14883 v -8.80217 l -0.72596,-4.7187 -0.99818,-1.72413 c 0,0 0.0351,5.0384 -0.27223,7.53176 -0.92674,7.51895 -2.74927,14.91692 -4.7187,22.2323 -1.00957,3.75002 -2.17741,7.46903 -3.62976,11.07078 -1.09283,2.71015 -3.81125,7.89474 -3.81125,7.89474 L 365.15427,400 Z"
       id="path25"
       sodipodi:nodetypes="cccccccsssccc" /><path
       id="path26"
       style="color:#000000;fill:#000000;-inkscape-stroke:none"
       d="M 121.78516 354.88672 L 120.86523 355.27734 C 120.86523 355.27734 121.22991 356.12996 121.77344 357.35156 L 121.31445 357.53516 C 121.28775 357.46836 121.33038 357.59016 121.36328 357.71875 C 121.39628 357.8473 121.43948 358.02827 121.49414 358.25391 C 121.60347 358.70518 121.75498 359.33657 121.9375 360.10352 C 121.9653 360.22032 122.00587 360.38678 122.03516 360.50977 L 121.73438 360.48438 C 121.73438 360.48438 120.74275 365.28946 119.85156 367.99414 C 117.99518 373.62802 111.97852 388.38477 111.97852 388.38477 C 111.97852 388.38477 118.93868 374.96112 120.89258 369.03125 C 121.54961 367.03722 122.11986 364.06559 122.44531 362.22266 C 122.72238 363.37674 123.02392 364.62654 123.36719 366.00781 C 124.50604 370.59044 125.93492 376.01438 127.20508 379.65625 C 129.00082 384.80509 134.11914 394.2832 134.11914 394.2832 C 134.11914 394.2832 129.98452 383.88192 128.23828 378.875 C 126.99319 375.305 125.56388 369.61081 124.42773 365.03906 C 123.85966 362.75319 123.27506 361.40442 122.91016 359.87109 C 122.90648 359.85566 122.90404 359.84931 122.90039 359.83398 C 124.09788 362.40389 125.62126 365.47664 126.89648 367.42383 C 129.94919 372.08509 137.83984 379.67383 137.83984 379.67383 C 137.83984 379.67383 130.92633 370.70452 128.00391 366.24219 C 125.60852 362.58458 121.78516 354.88672 121.78516 354.88672 z " /><path
       style="fill:#000000;fill-opacity:0.3;stroke:none;stroke-width:1px;stroke-linecap:butt;stroke-linejoin:miter;stroke-opacity:1"
       d="m 116.42468,351.45191 c 0,0 1.49816,6.95477 1.36117,10.07259 -0.18253,4.15397 -0.66586,8.55657 -1.81488,12.61344 -1.48384,5.23898 -7.10301,18.75091 -5.62614,19.32849 1.37146,0.53635 6.34912,-11.42512 8.62069,-13.61162 0.6556,-0.63104 1.95201,-1.84556 2.72232,-1.36116 2.446,1.53815 1.81488,8.52994 1.81488,8.52994 l 1.17967,-1.99637 c 0,0 0.86772,-0.9697 2.4501,1.17968 3.09159,4.19936 7.09,12.03704 7.98548,11.5245 1.65392,-0.94664 -5.45209,-10.45014 -3.81125,-15.51724 0.40329,-1.24541 1.70117,-2.33873 2.99455,-2.54084 3.81843,-0.5967 9.89433,6.27355 10.70781,4.44647 0.78669,-1.76693 -8.6981,-10.08812 -12.79492,-15.33576 -4.26294,-5.46041 -11.79674,-15.78947 -11.79674,-15.78947 l 1.08893,6.62432 z"
       id="path29"
       sodipodi:nodetypes="csssssccssssssccc" /><path
       style="fill:#b4954c;fill-opacity:1;stroke:none;stroke-width:1px;stroke-linecap:butt;stroke-linejoin:miter;stroke-opacity:1"
       d="m 253.62976,367.60435 13.1579,1.54266 11.97822,-1.45191 L 276.58802,400 H 264.6098 l -8.71143,-24.5009 z"
       id="path37"
       sodipodi:nodetypes="ccccccc" /><path
       style="fill:#31221b;fill-opacity:0.30424243;stroke:none;stroke-width:1px;stroke-linecap:butt;stroke-linejoin:miter;stroke-opacity:1"
       d="m 276.40653,369.60073 c 0,0 -4.19397,3.62288 -5.71687,5.89836 -2.23782,3.34369 -6.28608,10.04131 -4.80944,11.07078 1.62189,1.13074 7.25121,-4.21929 8.34846,-3.44827 0.97656,0.68621 -0.16649,2.4069 -0.54447,3.53902 -0.91283,2.73411 -3.21619,4.87361 -4.08348,7.6225 -0.45832,1.45267 -1.27705,3.94468 -0.54447,4.53721 0.67751,0.54798 2.84237,-1.97524 3.62977,-0.99819 0.44996,0.55834 -0.99819,2.17786 -0.99819,2.17786 h 4.99093 l 2.08711,-31.48824 z"
       id="path38"
       sodipodi:nodetypes="cssssssscccc" /><path
       style="fill:none;stroke:#000000;stroke-width:2.8;stroke-linecap:butt;stroke-linejoin:miter;stroke-dasharray:none;stroke-opacity:1"
       d="m 255.17241,368.42105 c 0,0 8.9391,1.14694 13.43013,1.08893 3.40689,-0.044 10.16334,-1.08893 10.16334,-1.08893"
       id="path36"
       sodipodi:nodetypes="csc" /><path
       style="fill:#000000;fill-opacity:0.2;stroke:none;stroke-width:1px;stroke-linecap:butt;stroke-linejoin:miter;stroke-opacity:1"
       d="m 260.98004,367.6951 c 0,0 -3.48962,-15.47877 -4.90019,-24.41016 -0.68314,-4.32546 -1.1265,-13.24871 -1.9757,-18.98202 -1.31972,-8.90991 -3.21211,-16.40285 -2.19852,-16.49893 0.82627,-0.0783 2.95915,7.12782 4.31897,15.96265 0.94491,6.13921 1.3195,14.89218 2.30534,19.5183 1.92663,9.04083 6.07986,25.49909 6.07986,25.49909 z"
       id="path39"
       sodipodi:nodetypes="cssssscc" /><path
       style="fill:#000000;fill-opacity:0.2;stroke:none;stroke-width:1px;stroke-linecap:butt;stroke-linejoin:miter;stroke-opacity:1"
       d="m 267.78584,368.69329 c 0,0 -1.56148,-6.47803 -2.08711,-9.70962 -1.04983,-6.45442 -1.57983,-12.53673 -2.08712,-19.05627 -0.38112,-4.898 -2.60523,-14.03357 -1.63343,-14.33756 0.62361,-0.19507 2.93418,9.84176 3.26679,14.51905 0.45171,6.35223 0.72621,12.54372 1.99637,18.78403 0.66968,3.29007 2.63158,9.80037 2.63158,9.80037 z"
       id="path40"
       sodipodi:nodetypes="cssssscc" /><path
       id="path172176"
       style="display:inline;opacity:0.199997;fill:#000000;fill-opacity:1;fill-rule:nonzero;stroke:none;stroke-width:1.33333"
       d="M 191.99609 182.70508 L 189.78906 196.04492 L 186.75195 204.04688 L 184.36133 206.07227 L 177.36914 208.2793 L 178.8418 215.63867 L 187.67188 242.13477 L 197.97656 261.63672 C 197.97656 261.63672 205.79641 260.70999 209.47656 259.1543 C 213.91392 257.27853 221.17347 253.92062 220.79102 249.12695 C 220.61715 246.9477 216.47194 247.10852 211.95898 243.60547 C 206.81617 239.61351 202.16031 234.77655 198.71289 229.25391 C 195.56277 224.20753 192.45703 216.375 192.45703 216.375 C 192.45703 216.375 198.85596 225.61608 202.75977 229.62305 C 207.07793 234.05533 210.97053 240.63529 217.11133 241.39844 C 219.39834 241.68266 223.26316 241.94871 224.6543 240.11133 C 226.45584 237.73192 225.8668 232.93648 225.39062 229.99023 C 224.59397 225.06109 221.58754 218.76893 218.21484 215.45508 C 208.35184 205.76416 191.99609 182.70508 191.99609 182.70508 z M 173.20703 207.58203 L 165.61914 209.66797 L 153.51562 213.42383 C 147.71473 217.18989 141.91417 220.95659 136.11328 224.72266 C 134.9494 225.47827 127.84487 223.31348 126.63672 223.99609 C 122.85881 226.13061 125.67814 229.92561 124.30859 230.46484 C 120.49275 231.96724 116.63571 233.56906 112.7207 235.26172 C 110.63311 236.16429 106.74143 232.80443 103.54297 234.5332 C 100.37731 236.24425 102.69562 239.72748 100.81641 240.5957 C 95.390704 243.10245 90.052308 245.44473 83.748047 248.36133 C 82.008387 249.16617 77.322799 247.3837 75.173828 248.44531 C 70.000991 251.00068 67.211867 256.91518 61.703125 259.67383 C 61.703125 259.67383 46.971994 259.22163 44.138672 261.49219 C 40.021403 264.79166 37.85473 279.67631 39.179688 284.9375 C 41.354949 293.57512 43.848131 296.27343 44.337891 300.53711 C 44.664736 303.38252 40.59375 313.84375 40.59375 313.84375 L 28.689453 356.1582 L 29.580078 366.34961 L 23.109375 381.35547 L 27.203125 391.62695 L 26.677734 400 L 56 400 C 59.600159 387.156 60.867221 382.8544 63.472656 374.49805 C 80.764734 319.03756 90.288632 305.50392 97.105469 301.63281 C 127.01 284.65081 195.25321 265.07229 199.02539 267.14258 C 184.13929 238.93951 177.1712 214.3307 173.20703 207.58203 z " /><g
       id="g129"
       style="opacity:0.75029172"><path
         id="path120"
         style="color:#000000;fill:#bd9bae;fill-opacity:1;-inkscape-stroke:none"
         d="m 386.29297,276.54102 -1.50781,2.94726 3.73242,-2.51172 z m 3.41601,10.81445 -8.65234,5.82422 -0.80859,3.19726 8.30859,-5.59375 z m -6.00781,17.88086 -6.87695,4.6289 -0.84375,3.21875 6.57031,-4.42187 z m -5.99805,17.87305 -5.27343,3.54882 -0.8418,3.21875 4.98438,-3.35351 z m -5.90234,17.80859 -3.76367,2.53515 -0.78711,3.00586 0.0195,0.16211 3.40039,-2.28906 z m -17.65234,-76.75781 -9.04492,6.06054 -0.18946,2.77539 9.9961,-6.69726 c -0.25187,-0.92952 -0.5758,-1.739 -0.76172,-2.13867 z m 0.20312,13.68164 -10.23437,6.85742 -0.18946,2.77344 10.23829,-6.85938 c 0.0618,-0.92951 0.12645,-1.9052 0.18554,-2.77148 z m -0.93945,14.44336 -10.42188,6.98437 -0.32031,2.86524 10.57031,-7.08399 c 0.0728,-1.1797 0.0902,-1.45485 0.17188,-2.76562 z m -0.91406,14.42968 -11.17969,7.49219 -0.32031,2.86133 11.00781,-7.375 z m -2.56836,15.53711 -10.28321,6.89063 -0.32031,2.86328 10.10938,-6.77344 z m -2.57031,15.53907 -9.38477,6.28906 -0.16406,1.45898 -0.25782,1.46875 9.3125,-6.24023 z m -2.57032,15.53906 -9.44726,6.33008 -0.52539,3 9.4707,-6.34766 0.14648,-0.83789 z m -2.69336,15.62109 -9.49023,6.35938 -0.52539,2.99804 9.49609,-6.36328 z m -2.71289,15.63281 -9.51562,6.375 -0.52344,3 9.51758,-6.37695 z m -9.79687,-128.3125 -10.08008,7.42579 -0.0762,2.78711 10.21289,-7.52149 0.0723,-2.10937 z m -0.34571,14.50977 -10.43164,7.68555 -0.15234,2.84179 10.48828,-7.72461 z m -0.49804,14.62109 -10.72657,7.90039 -0.15234,2.84571 10.7832,-7.94141 z m -0.96875,14.9668 -10.55078,7.77344 -0.15235,2.84375 10.48633,-7.72266 z m -1.13282,15.0918 -10.58789,7.79687 -0.29296,2.94727 10.66211,-7.85156 z m -1.13476,15.08984 -10.97852,8.08399 -0.29101,2.94726 11.05078,-8.14062 z m -1.87305,15.63281 -10.63086,7.83008 -0.29101,2.94727 10.41992,-7.67578 z m -2.625,16.18946 -10.5664,7.78125 -0.61329,3.18164 10.67579,-7.86133 z m -2.625,16.1875 -11.14062,8.20507 -0.61524,3.18555 11.10157,-8.17578 0.57812,-2.75 z M 314.85742,395.41211 308.625,400 h 3.71094 l 1.83984,-1.35547 z m -14.88476,-154.79688 -3,2.30079 0.4082,2.45507 4.6543,-3.5664 z m 8.42773,8.00391 -9.29101,7.11719 0.0625,0.38086 0.0508,2.30273 9.25586,-7.0918 z m 0.41602,14.13867 -9.33789,7.15235 0.0605,2.72461 9.35547,-7.16797 z m 0.11523,14.36914 -9.13672,7 0.0606,2.72461 8.96289,-6.86523 z m -0.5918,14.91016 -9.37304,7.18164 -0.28125,2.98828 9.54101,-7.31055 z m -0.58984,14.91016 -10.25391,7.85546 -0.28125,2.98829 10.42188,-7.98438 z m -1.96875,15.96679 -9.75586,7.47266 -0.28125,2.98633 9.5957,-7.34766 z m -2.30273,16.22266 -8.92188,6.83594 -0.16797,1.77343 -0.1582,1.24414 8.80664,-6.74414 z m -2.30079,16.22266 -8.58789,6.57812 -0.38867,3.06836 8.53516,-6.53906 z m -2.49414,16.36718 -8.125,6.22461 -0.38867,3.06641 7.99024,-6.11914 z m -2.73047,16.55078 -7.42382,5.68555 -0.38868,3.07031 7.28907,-5.58398 z m 75.7129,-114.44726 -6.81836,6.48047 0.10156,2.93945 6.7168,-6.38477 z m -0.004,15.83789 -6.28516,5.97656 0.10157,2.93945 6.01953,-5.7246 z m -0.85352,16.64844 -4.99804,4.75195 0.0254,3.00976 4.80859,-4.57031 z m -0.85351,16.64843 -4.00781,3.81055 0.0254,3.00977 3.81836,-3.62891 z m -2.08789,17.82032 -1.78516,1.69726 0.0274,3.00977 1.02734,-0.97852 z m -325.272804,-56.70052 -4.231831,-0.36799 0.367985,3.12788 4.323828,-1.01196 z m 0.919963,-9.29163 -3.403863,-6.43974 -1.379945,4.59981 4.415823,4.04784 z m 8.808007,-16.91801 -2.314454,0.60156 -1.787109,11.92188 2.193359,-1.76953 0.289063,0.043 z m 9.15625,1.49609 -1.685547,11.25 1.943359,1.87305 1.865234,-12.4375 z m 10.632812,6.49414 -2.201172,14.69336 1.88086,2.29493 2.28125,-15.22852 z m 10.042969,10.42774 -2.433594,16.24414 1.880859,2.29687 2.449219,-16.34375 z m 9.601562,13.38867 -2.300781,15.34375 1.832031,2.62891 2.236329,-14.92383 z m 9.222661,15.90625 -1.970708,13.15234 1.828128,2.62696 1.89648,-12.65039 -0.24804,-0.5293 z m 8.86718,18.26758 -1.50586,10.05273 1.77735,2.97852 1.41406,-9.44531 z m 8.45703,21.01172 -0.73828,4.92578 1.75977,3.11133 0.34766,-2.31446 z m 12.9375,-122.45703 -2.39062,0.11328 -3.41602,9.11914 0.41797,0.55664 1.125,1.59766 z m 7.70704,5.87695 -5.5,14.69336 1.5332,2.17578 5.54687,-14.81445 z m 8.06445,11.19727 -5.5625,14.85546 1.5332,2.17578 5.45508,-14.56445 z m 7.43555,12.86914 -5.12305,13.68359 1.28711,2.83984 5.26172,-14.05664 z m 7.4375,12.87109 -5.85157,15.62891 1.28516,2.83789 5.99219,-16 z m 6.84765,14.44141 -5.99023,16 1.28515,2.83984 5.95704,-15.9082 z m 6.53125,15.29296 -5.8125,15.52344 1.28516,2.83789 5.77929,-15.43164 z m 6.5293,15.28907 -5.62305,15.02148 1.29883,2.80469 5.57617,-14.89453 z m 6.53125,15.29297 -5.37695,14.35937 1.29882,2.80469 5.33008,-14.23438 z m 6.53906,15.26953 -5.13867,13.7207 1.29883,2.80469 5.14648,-13.74024 z m 6.81445,14.52734 -5.17578,13.82422 1.29883,2.80469 5.1836,-13.84375 z m 6.81641,14.5293 -5.26758,14.07031 1.28516,2.84375 5.28906,-14.12891 z m 6.81641,14.52929 -5.38086,14.36914 0.55859,1.23438 h 1.32813 l 4.80078,-12.82031 z m 6.8164,14.52735 L 221.72461,400 h 0.90625 z M 80.052734,247.40039 l -3.666015,10.40234 1.724609,1.72461 3.882813,-11.01757 z m 9.492188,7.59766 -4.701172,13.33984 1.554688,2.20508 4.613281,-13.08594 z m 7.648437,12.82812 -4.234375,12.01172 0.140625,0.19922 1.285157,2.37695 4.27539,-12.12695 z m 7.093751,14.4043 -3.94727,11.19922 1.41211,2.61133 3.86133,-10.95899 z m 6.92187,14.88476 -3.5039,9.94141 0.11523,0.21094 1.10352,2.94531 3.61328,-10.24609 z m 5.49219,18.95118 -2.70508,7.67187 1.20118,3.20703 2.40039,-6.80859 z m 3.33203,25.07226 -0.35937,1.01758 0.6582,2.27734 z m 36.8125,-129.5 -4.12695,11.03906 1.31836,2.75782 4.74805,-12.70508 z m 8.74805,9.37695 -6,16.05274 1.31836,2.75781 6.00391,-16.0664 z m 6.90039,14.32032 -6.02539,16.12304 1.31836,2.75782 6.03125,-16.13282 z m 6.90039,14.32422 -6.05078,16.18945 1.31641,2.75781 6.05664,-16.20117 z m 6.90039,14.32031 -6.07226,16.24609 1.33984,2.69727 6.05469,-16.19727 z m 6.90039,14.32226 -5.97851,15.99415 1.33984,2.69726 5.96094,-15.94531 z m 6.89844,14.32227 -5.88281,15.74219 1.33984,2.69726 5.86719,-15.69336 z m 6.91602,14.28125 -5.80469,15.5332 1.33984,2.69532 5.82422,-15.57813 z m 7.08789,13.82031 -5.90039,15.78321 1.34179,2.69531 5.91602,-15.83008 z m 7.08789,13.82032 -6.1211,16.37304 1.29883,2.81055 6.17969,-16.5332 z m 7.08789,13.82226 -6.4375,17.2207 1.29687,2.81055 6.49805,-17.38281 z m 7.08789,13.82031 -6.75391,18.06836 1.29688,2.8125 6.82031,-18.24414 -0.8457,-1.625 z m 7.125,13.7168 -7.10938,19.01953 1.29883,2.8125 7.17578,-19.20312 z m 7.1289,13.71094 L 245.73242,400 h 2.34961 l 2.89844,-7.75586 z m -137.73242,-154.17578 -5.14843,13.38867 1.5957,1.97461 5.32226,-13.83594 z m -10.00195,0.1582 -1.41992,2.48633 0.24804,0.56054 z m 18.49023,9.74609 -5.30468,13.78907 1.5957,1.97461 5.18359,-13.47071 z m 7.69336,11.96485 -5.3164,13.81836 1.42578,2.42382 5.36523,-13.94726 z m 7.69336,11.96875 -5.57617,14.49609 1.42383,2.42578 5.55469,-14.4375 -0.63672,-1.29492 z m 6.97852,13.82617 -5.12305,13.31641 0.75,1.27734 0.60352,1.33008 5.09179,-13.23438 z m 6.89844,14.0332 -5.28907,13.75195 1.27344,2.81055 5.33789,-13.87305 z m 6.89843,14.0293 -5.53515,14.39258 1.27539,2.8125 5.58398,-14.51367 z m 6.6836,14.59961 -5.69336,14.79687 1.24023,2.89844 5.71875,-14.86133 z m 6.60937,14.78515 -5.82226,15.13477 1.24023,2.89648 5.84961,-15.19921 z m 6.61133,14.78321 -5.95312,15.47265 1.24023,2.89649 5.97851,-15.53711 z m 6.29297,15.60351 -5.94141,15.44336 1.19141,3.02735 L 183.91016,374 Z m 6.1543,15.97071 L 183.84766,400 h 2.35742 l 3.85742,-10.0293 z" /><path
         id="path121"
         style="color:#000000;fill:#e6d1e7;-inkscape-stroke:none"
         d="m 392.03125,278.875 -8.86133,5.9668 -0.81054,3.19726 9.46093,-6.36914 0.82031,-2.18554 z m -5.32617,17.42188 -7.75977,5.22265 -0.80859,3.19727 7.41797,-4.99219 z m -6.00586,17.87695 -6.07227,4.08789 -0.84179,3.21875 5.76172,-3.87891 z m -5.94727,17.83984 -4.51953,3.04102 -0.8418,3.21875 4.23047,-2.84766 z m -5.90039,17.8086 -1.09765,0.73828 0.23047,1.87695 z m -21.10547,-88.18555 -2.20703,2.20898 -0.13086,1.91211 4.83399,-3.24023 z m 7.12305,8.94922 -10.25781,6.875 -0.18945,2.77344 10.23828,-6.86133 c 0.0738,-1.00573 0.14877,-2.05339 0.20898,-2.78711 z m -0.99805,14.48437 -10.24804,6.86719 -0.18946,2.77539 10.25391,-6.86914 c 0.0634,-0.99436 0.11981,-1.78648 0.18359,-2.77344 z m -0.90625,14.42188 -10.81054,7.24609 -0.32032,2.86328 10.95899,-7.34375 c 0.0338,-0.5588 0.12044,-1.92082 0.17187,-2.76562 z m -1.75,14.99219 -10.73242,7.1914 -0.32031,2.86328 10.55859,-7.07617 z m -2.57031,15.5371 -9.83398,6.58985 -0.32032,2.86133 L 348.15039,333 Z m -2.57031,15.53907 -9.36524,6.27343 -0.52343,3 9.39453,-6.29492 z m -2.62305,15.57226 -9.47851,6.35157 -0.52344,3 9.48242,-6.35547 z m -2.71289,15.63477 -9.50195,6.36719 -0.52539,3 9.50781,-6.3711 z M 338.02539,392.40039 328.5,398.78516 328.28711,400 h 2.35156 l 6.86719,-4.60156 z m -12.62109,-140.17578 -5.70313,4.20117 -0.0742,2.78711 8.25196,-6.07617 z m 4.08593,11.24609 -10.28515,7.57618 -0.15235,2.84179 10.3418,-7.61523 z m -0.5,14.6211 -10.57812,7.79297 -0.15234,2.84375 10.63671,-7.83399 z m -0.64843,14.73242 -10.72266,7.89844 -0.15234,2.84375 10.6582,-7.84961 z m -1.13477,15.0918 -10.39062,7.65234 -0.29297,2.94726 10.46679,-7.70703 z m -1.13476,15.08789 -10.78125,7.9414 -0.29297,2.94922 10.85742,-7.99609 z m -1.13477,15.09375 -11.17188,8.22851 -0.29296,2.94531 10.9707,-8.08007 0.48828,-3.01368 z m -2.61719,16.18164 -10.27734,7.56836 -0.61328,3.18359 10.38672,-7.65039 z m -2.625,16.1875 -10.85351,7.99218 -0.61328,3.1836 10.96289,-8.07422 z m -3.0625,16.50781 -10.99219,8.0957 -0.61328,3.18555 10.92383,-8.04688 z m -20.40429,-148.51953 0.084,0.50586 0.3418,-0.26172 z m 9.12695,5.26562 -7.31445,5.60547 0.4082,2.45508 8.33984,-6.38672 -0.99414,-1.41992 z m 3.25195,11.9668 -9.28711,7.11523 0.0605,2.72461 9.30664,-7.1289 z m 0.41602,14.14062 -9.38672,7.18946 0.0605,2.72656 9.40625,-7.20508 z m -0.38867,14.75391 -8.9336,6.84375 -0.28125,2.98828 9.10156,-6.97265 z m -0.58985,14.91016 -9.8125,7.51758 -0.2832,2.98828 9.98242,-7.64649 z m -1.11328,15.3125 -10.16992,7.78906 -0.28125,2.98828 10.00976,-7.66797 z m -2.30273,16.21875 -9.33789,7.15625 -0.28125,2.98633 9.17968,-7.03125 z m -2.30079,16.22265 -8.72265,6.6836 -0.39063,3.06836 8.67188,-6.64258 z m -2.30078,16.22266 -8.45312,6.47461 -0.38867,3.06836 8.33984,-6.38867 0.38281,-2.31836 z m -2.70898,16.5332 -7.77344,5.95508 -0.39062,3.07031 7.64062,-5.85351 z M 294.58789,396.55078 290.08594,400 h 3.61718 l 0.36133,-0.27734 z m 73.66992,-127.40039 -2.15234,2.04883 -1.43164,4.05469 0.0117,0.33007 5.95312,-5.6621 -0.44531,-0.55665 z m 3.40821,12.59766 -6.55274,6.22851 0.0996,2.93946 6.45313,-6.13282 z m -0.42969,16.24414 -5.59571,5.31836 0.10157,2.93945 5.33008,-5.06641 z m -0.85547,16.64843 -4.50195,4.28126 0.0254,3.00976 4.3125,-4.09961 z m -0.85352,16.64844 -3.51172,3.33985 0.0254,3.00976 3,-2.85156 0.41601,-2.12891 z m -325.829088,-43.24858 -3.49586,2.02391 0.827967,3.12788 3.035878,-3.31186 z m -0.827967,-9.47562 -4.691812,-2.5759 0.551978,3.95584 4.047838,2.02392 z m 13.073074,-20.98283 -1.740234,11.61133 2.177734,0.32422 1.685547,-11.25 z m -10.212134,2.41331 -1.480311,0.99788 -1.405252,1.97502 1.14326,11.18204 1.623802,-2.34367 z m 21.264869,1.27614 -2.132813,14.23633 1.945313,1.87305 2.148437,-14.34766 z m 10.214844,9.28711 -2.394532,15.98829 1.878906,2.29687 2.41211,-16.08789 z m 9.888671,11.4668 -2.472656,16.50391 1.880859,2.29492 2.404297,-16.04688 -1.148437,-1.98046 z m 9.267579,15.60938 -2.136719,14.24804 1.830078,2.62696 2.072265,-13.82618 z m 9.080082,16.85742 -1.74415,11.63867 1.7754,2.98047 1.65429,-11.03125 z m 8.79882,18.72656 -1.26953,8.4668 1.75977,3.10937 1.19531,-7.98633 z m 20.58008,-110.28906 -5.38086,14.37109 1.53321,2.17578 5.42578,-14.49414 z m -11.21289,3.48437 -1.07422,1.36914 0.375,0.5 z m 19.45508,7.23047 -5.62109,15.01367 1.53515,2.17774 5.66602,-15.13672 z m 7.66211,12.27344 -5.2793,14.09961 1.53321,2.17773 5.17187,-13.80859 z m 7.43555,12.86914 -5.48829,14.65625 1.28711,2.8418 5.62696,-15.0293 z m 7.30078,13.23242 -6.08008,16.24024 1.28711,2.83984 6.04492,-16.14649 z m 6.53125,15.29297 -5.90235,15.76367 1.28711,2.83789 5.86719,-15.66992 z m 6.52929,15.29102 -5.72265,15.28515 1.28515,2.8418 5.68946,-15.19531 z m 6.53125,15.29101 -5.5,14.69141 1.29883,2.80273 5.45313,-14.5625 z m 6.53125,15.29297 -5.2539,14.0293 1.29883,2.80468 5.20507,-13.90429 z m 6.68164,14.88672 -5.1582,13.77344 1.29883,2.80273 5.16406,-13.79101 z m 6.81446,14.5293 -5.21094,13.91796 1.28516,2.84375 5.23242,-13.97851 z m 6.8164,14.52734 -5.32422,14.2207 1.28516,2.8418 5.3457,-14.27734 z m 6.81641,14.5293 L 215.5957,400 h 2.34766 l 2.08008,-5.55664 z m -141.958984,-145.5586 -2.900391,1.61133 -1.970703,5.5918 1.724609,1.72461 z m 8.359375,4.19336 -4.333985,12.29492 1.554688,2.20313 4.720703,-13.38867 z m 8.25,11.11719 -4.46875,12.67578 1.55664,2.20508 4.378907,-12.42188 z m 7.455079,13.375 -4.16797,11.82812 1.412109,2.61133 4.083981,-11.58789 z m 6.92383,14.88477 -3.72461,10.57226 1.41015,2.60938 3.64063,-10.32813 z m 6.61133,15.77343 -3.5,9.92774 1.20312,3.20703 3.19336,-9.06446 z m 4.42578,21.96875 -1.85352,5.25586 1.05274,3.63867 1.27929,-3.63086 z m 34.16992,-115.47656 -0.24024,0.0215 -3.72265,4.29883 -0.043,0.11328 1.46094,2.37696 z m 8.95312,2.54883 -5.75,15.38672 1.31641,2.75781 5.99219,-16.0332 -0.81641,-1.69336 z m 7.13672,13.68945 -6.01367,16.08594 1.31836,2.75976 6.01758,-16.0996 z m 6.90039,14.32227 -6.03906,16.15625 1.31836,2.75781 6.04297,-16.16797 z m 6.90039,14.32226 -6.06445,16.22461 1.31836,2.75781 6.06836,-16.23632 z m 6.89844,14.32227 -6.02344,16.11914 1.33985,2.69726 6.00781,-16.07031 z m 6.90039,14.32031 -5.93164,15.86914 1.3418,2.69727 5.91211,-15.82032 z m 6.90039,14.32227 -5.83789,15.61718 1.3418,2.69727 5.81836,-15.56836 z m 7.00781,14.03125 -5.85156,15.6582 1.33985,2.69531 5.87109,-15.70312 z m 7.08789,13.82226 -5.96093,15.94727 1.29883,2.81054 L 219,330.28711 Z m 7.0879,13.82031 -6.27735,16.79493 1.29688,2.81054 6.33789,-16.95898 z m 7.08789,13.81836 -6.59571,17.64454 1.29883,2.81445 6.65625,-17.8086 z m 7.10547,13.77539 -6.92969,18.53907 1.29687,2.8125 6.99805,-18.72461 z m 7.1289,13.70899 L 239.60742,400 h 2.34961 l 5.45899,-14.60938 z m 7.12891,13.71094 L 251.86133,400 h 2.34765 l 0.33594,-0.90039 z m -144.625,-163.90625 -1.76172,0.12695 -4.05078,10.52734 0.66211,1.49024 0.75976,0.93945 4.87305,-12.66797 z m 7.94336,6.86132 -5.59766,14.55469 1.5957,1.97461 5.50196,-14.30078 -1.34766,-2.09766 z m 7.71875,11.90039 -5.1836,13.47852 1.42383,2.42383 5.23633,-13.60742 z m 7.69531,11.9668 -5.44727,14.1582 1.42383,2.42383 5.49805,-14.28906 z m 7.375,12.79297 -5.39063,14.01172 1.42579,2.42383 5.28711,-13.74414 z m 6.89844,14.0332 -5.16797,13.4336 1.27539,2.8125 5.21484,-13.55469 z m 6.89843,14.03125 -5.4121,14.07227 1.27343,2.8125 5.46094,-14.19531 z m 6.82618,14.22461 -5.62696,14.62891 1.24219,2.89844 5.65234,-14.69532 z m 6.61132,14.78516 -5.75781,14.96484 1.24219,2.89844 5.7832,-15.03125 z m 6.60938,14.78125 -5.88867,15.30273 1.24219,2.89844 5.91406,-15.36914 z m 6.52344,15.00976 -5.97657,15.53321 1.19336,3.02734 5.96289,-15.49805 z m 6.15234,15.97266 -5.90625,15.35547 1.19141,3.02539 5.89453,-15.32031 z m 6.1543,15.96875 L 189.99609,400 h 2.35743 l 0.7871,-2.04492 z" /></g><g
       id="g134"
       style="display:inline"><path
         id="path132"
         style="color:#000000;opacity:1;fill:#d8c8d1;fill-opacity:1;-inkscape-stroke:none"
         d="M 185.02344 267.38086 L 183.33594 271.89453 C 183.7292 272.86457 184.12137 273.83392 184.57031 274.875 L 186.43164 269.90039 C 185.96557 269.04815 185.49512 268.20966 185.02344 267.38086 z M 327.32812 272.19141 L 325.16602 273.7832 C 324.98068 274.66254 324.82321 275.71037 324.6875 276.86523 L 327.50195 274.79297 C 327.48128 273.72169 327.42396 272.85406 327.32812 272.19141 z M 371.64062 273.85547 L 368.57617 276.76562 C 368.54981 277.82 368.53738 278.55318 368.50586 279.86914 L 371.56055 276.9668 C 371.59086 275.72166 371.62753 274.48963 371.64062 273.85547 z M 307.11133 278.52148 L 304.08203 280.84375 C 304.06153 281.69686 304.03485 282.70396 304.01172 283.66797 L 307.10742 281.29688 C 307.12292 280.28054 307.11679 279.40674 307.11133 278.52148 z M 352.45703 279.11133 L 349.32812 281.20898 C 349.2562 282.11272 349.18333 283.00585 349.10938 284.00195 L 352.36914 281.81641 C 352.40275 280.88467 352.4369 279.95499 352.45703 279.11133 z M 192.17383 281.0332 L 190.04688 286.72656 C 190.48201 287.62936 190.93302 288.5391 191.37695 289.44922 L 193.50781 283.75195 C 193.06214 282.84051 192.62164 281.94009 192.17383 281.0332 z M 167.04297 284.17773 L 165.13867 289.26562 C 165.53504 290.25642 165.93106 291.24485 166.35938 292.27734 L 168.3418 286.98242 C 167.90773 286.0495 167.48292 285.09185 167.04297 284.17773 z M 327.04492 286.65234 L 323.86133 288.99805 C 323.81193 290.04303 323.75339 290.86678 323.70312 291.84766 L 326.84766 289.5332 C 326.91533 288.56156 326.98426 287.60382 327.04492 286.65234 z M 389.34766 287.59961 L 385.95508 289.88281 C 385.71555 290.6702 385.5587 291.1739 385.36328 291.82031 C 385.24414 292.21443 385.078 292.793 384.95312 293.20898 L 387.98242 291.16992 C 388.51614 289.77315 388.94035 288.66588 389.34766 287.59961 z M 371.0918 290.20898 L 368.27148 292.89258 C 368.25976 293.88273 368.24918 294.90339 368.23828 295.95898 L 370.89648 293.43164 C 370.96186 292.34266 371.03501 291.38737 371.0918 290.20898 z M 306.64648 293.33398 L 303.66211 295.62109 C 303.6303 296.58223 303.6039 297.50555 303.56836 298.46484 L 306.46875 296.24414 C 306.52882 295.27216 306.59256 294.30563 306.64648 293.33398 z M 351.75781 293.39453 L 348.22461 295.76172 C 348.15251 296.7087 348.08922 297.61291 348.01367 298.55273 L 351.54297 296.18945 C 351.61297 295.23526 351.69307 294.36318 351.75781 293.39453 z M 199.12891 295.20898 L 197.00781 300.88281 C 197.45674 301.7849 197.91238 302.70532 198.34766 303.58203 L 200.4668 297.91211 C 200.12518 297.22879 199.78895 296.54263 199.44727 295.85938 C 199.34106 295.647 199.23505 295.42209 199.12891 295.20898 z M 173.74609 299.01367 L 171.67383 304.54492 C 172.10785 305.52048 172.51532 306.4525 172.94727 307.41797 L 175.01562 301.89258 C 174.59361 300.93285 174.16845 299.97863 173.74609 299.01367 z M 148.29883 300.60938 L 146.33398 305.7207 C 146.74478 306.64471 147.16607 307.57663 147.60938 308.5293 L 149.66602 303.18359 C 149.22983 302.34867 148.76972 301.48597 148.29883 300.60938 z M 325.95312 301.70898 L 322.80078 304.0332 C 322.71937 305.00475 322.63621 305.97685 322.55273 306.94727 L 325.72852 304.60938 C 325.7919 303.76303 325.87987 302.65097 325.95312 301.70898 z M 382.20508 306.24414 L 380.82227 307.17383 C 380.46343 308.39422 380.17587 309.356 379.8418 310.48633 L 380.82617 309.82227 C 381.38175 308.37687 381.5185 308.03503 382.20508 306.24414 z M 369.45703 307.60156 L 368.11523 308.87695 C 368.10503 310.38074 368.10259 310.81031 368.0957 311.92969 L 368.98828 311.08203 C 369.16602 309.81183 369.26587 309.0408 369.45703 307.60156 z M 350.46875 308.07422 L 346.82617 310.51562 C 346.71052 311.45894 346.57237 312.45289 346.44727 313.41797 L 350.12109 310.95508 C 350.24352 309.98198 350.35898 309.02101 350.46875 308.07422 z M 305.5332 308.64648 L 302.94727 310.62695 C 302.91374 311.08331 302.88701 311.62043 302.85156 312.05078 C 302.81352 312.51269 302.74767 313.10318 302.70508 313.58594 L 305.23242 311.64844 C 305.29655 311.04947 305.37276 310.41294 305.42773 309.84375 C 305.46289 309.47978 305.49798 309.02838 305.5332 308.64648 z M 206.11914 309.28711 L 204.0293 314.88281 C 204.4808 315.76575 204.93399 316.64797 205.38867 317.5293 L 207.46094 311.98633 C 207.01472 311.08607 206.56627 310.18691 206.11914 309.28711 z M 180.39648 313.97852 L 178.35156 319.44336 C 178.77901 320.38867 179.20699 321.3339 179.63867 322.27734 L 181.67578 316.83789 C 181.24841 315.88515 180.82457 314.93092 180.39648 313.97852 z M 155.19141 314.6543 L 153.07812 320.15039 C 153.50803 321.07551 153.9254 321.9551 154.36719 322.93164 L 156.47266 317.45898 C 156.12468 316.69041 155.77489 315.93445 155.42773 315.16406 C 155.33753 314.96377 155.27938 314.84883 155.19141 314.6543 z M 324.61133 316.95508 L 321.41992 319.30469 C 321.32484 320.28768 321.22672 321.26983 321.12891 322.25195 L 324.29688 319.91797 C 324.4077 318.93705 324.50666 317.9416 324.61133 316.95508 z M 348.37891 323.29102 L 344.72852 325.73828 C 344.58218 326.72098 344.44382 327.69327 344.29492 328.67578 L 347.9082 326.25586 C 348.06424 325.26543 348.22741 324.27889 348.37891 323.29102 z M 213.0957 323.4082 L 211.17188 328.55078 C 211.63082 329.41222 212.09538 330.27065 212.55664 331.13086 L 214.42188 326.13867 C 213.97983 325.22852 213.53949 324.31752 213.0957 323.4082 z M 303.50977 324.6543 L 301.375 326.28906 C 301.25529 327.31788 301.15345 328.27715 301.02734 329.32617 L 303.05859 327.77344 C 303.22518 326.69682 303.35252 325.71075 303.50977 324.6543 z M 187.07031 328.89062 L 185.13672 334.05273 C 185.5748 334.97036 186.01593 335.88652 186.45703 336.80273 L 188.33594 331.7832 C 187.91227 330.81972 187.4958 329.85334 187.07031 328.89062 z M 161.86133 329.29102 L 159.79102 334.66992 C 160.22271 335.57724 160.6695 336.47466 161.10547 337.37891 L 163.13867 332.09375 C 162.71327 331.16184 162.28747 330.22328 161.86133 329.29102 z M 322.7207 332.60156 L 319.82812 334.73047 C 319.71595 335.7231 319.60975 336.71693 319.49414 337.70898 L 322.3125 335.63281 C 322.44747 334.63439 322.58886 333.59304 322.7207 332.60156 z M 219.98828 337.75 L 218.41992 341.94531 C 218.88587 342.79478 219.34893 343.64556 219.81641 344.49414 L 221.30078 340.52148 C 220.86603 339.59638 220.42565 338.67388 219.98828 337.75 z M 345.86719 338.79102 L 342.375 341.13281 C 342.22226 342.11204 342.06631 343.12654 341.91797 344.08203 L 345.36914 341.76953 C 345.53263 340.80038 345.70098 339.78067 345.86719 338.79102 z M 300.84961 341.15039 L 299.38477 342.27344 C 299.24801 343.31252 299.11266 344.33711 298.97656 345.35547 L 300.29492 344.3457 C 300.48027 343.28937 300.6639 342.22814 300.84961 341.15039 z M 168.50391 343.98828 L 166.68555 348.71875 C 167.12791 349.60384 167.57341 350.49371 168.01758 351.37891 L 169.77148 346.81836 C 169.35262 345.87249 168.9256 344.9321 168.50391 343.98828 z M 193.65039 344.04883 L 192.06641 348.27539 C 192.51226 349.17496 192.95846 350.07408 193.40625 350.97266 L 194.90039 346.98633 C 194.4852 346.00663 194.06858 345.02728 193.65039 344.04883 z M 320.58203 348.43164 L 317.9043 350.40234 C 317.77013 351.41216 317.63838 352.42208 317.5 353.43164 L 320.19336 351.44922 C 320.32346 350.46568 320.45199 349.39897 320.58203 348.43164 z M 226.85742 352.1582 L 225.6875 355.28711 C 226.17822 356.19615 226.58716 356.94432 227.07812 357.84766 L 228.17578 354.91016 C 227.72853 353.98048 227.30433 353.08284 226.85742 352.1582 z M 343.18555 354.4043 L 339.88672 356.61523 C 339.71009 357.61846 339.541 358.59866 339.35742 359.61719 L 342.63672 357.41797 C 342.82008 356.39713 343.00611 355.41512 343.18555 354.4043 z M 297.82031 357.93164 L 297.17383 358.42773 C 297.03514 359.4094 296.86548 360.65166 296.74023 361.5293 L 297.22461 361.1582 C 297.39801 360.24347 297.62866 358.95476 297.82031 357.93164 z M 175.03125 358.99023 L 173.63477 362.61914 C 174.05472 363.46394 174.50176 364.42835 174.93945 365.34766 L 176.25586 361.92969 C 175.93681 361.1609 175.58592 360.3004 175.28906 359.58984 C 175.20496 359.38844 175.1156 359.19145 175.03125 358.99023 z M 200.18555 359.32422 L 199.03906 362.38477 C 199.50873 363.34557 199.90197 364.13945 200.37305 365.0957 L 201.44141 362.24414 C 200.99263 361.20701 200.6297 360.34632 200.18555 359.32422 z M 318.51953 364.20703 L 315.64648 366.32031 C 315.48972 367.36794 315.35027 368.29724 315.20312 369.37695 L 317.86914 367.41602 C 318.12106 366.29851 318.34972 365.19515 318.51953 364.20703 z M 233.63672 366.80078 L 233.08008 368.29492 C 233.71509 369.23942 234.22241 369.89835 234.40625 369.82617 C 234.6819 369.71795 234.34565 368.57242 233.63672 366.80078 z M 340.25977 370.18164 L 337.07227 372.31641 C 336.88908 373.37697 336.72721 374.36234 336.57812 375.29492 L 339.66016 373.23047 C 339.85281 372.26923 340.05083 371.26141 340.25977 370.18164 z M 181.30469 374.64453 L 180.4082 376.97266 C 180.91909 378.01919 181.3708 378.89257 181.76172 379.58594 L 182.41797 377.87891 C 182.12171 376.94022 181.74853 375.85797 181.30469 374.64453 z M 206.55859 375.03906 L 206.19727 376.00391 C 206.42922 376.3039 206.61337 376.48101 206.71289 376.44727 C 206.88265 376.38967 206.77469 375.81367 206.55859 375.03906 z " /></g><path
       id="path143"
       style="fill:#000000;fill-opacity:0.3;stroke:none;stroke-width:1px;stroke-linecap:butt;stroke-linejoin:miter;stroke-opacity:1"
       d="m 387.96549,277.11821 c 0,0 -2.5167,9.13129 -3.77298,13.92096 -1.2464,4.75199 -11.46592,44.16099 -14.15845,53.34865 -4.48797,15.31413 -1.71404,1.03416 -1.71404,1.03416 l 13.79086,-56.85476 3.25256,-11.18881 z m -19.90568,-7.02554 c 0,0 -0.51543,8.67018 -0.65051,13.01025 -0.21992,7.06601 -0.24199,14.13729 -0.2602,21.2067 -0.0314,12.18653 0.2602,36.55878 0.2602,36.55878 l -2.34184,-37.98991 0.2602,-24.32916 0.39031,-8.19645 z m -19.90567,-7.93625 -2.08164,1.30103 -2.34184,26.8011 -3.51277,38.12002 -4.03318,26.28069 L 328.37857,400 h 2.86225 c 0,0 5.62125,-31.85724 8.06635,-47.68258 1.39724,-9.04334 2.69072,-18.10499 3.77297,-27.19141 1.13913,-9.56398 2.07446,-19.15333 2.86226,-28.75264 0.93485,-11.39116 2.21174,-34.21695 2.21174,-34.21695 z m -28.11473,-9.41367 -0.99617,22.14225 -1.10396,35.69458 -4.41582,40.47838 -5.15179,31.64673 L 304.69181,400 h 4.78381 c 0,0 3.58298,-21.56589 5.15179,-32.3827 2.5747,-17.75226 5.47204,-35.48436 6.99173,-53.35787 1.32078,-15.53406 1.53321,-31.14704 1.83992,-46.73413 0.11342,-5.76399 -0.1301,-16.25449 -0.1301,-16.25449 z m -23.81126,-14.28829 2.20791,14.35143 1.47194,24.28703 -2.20791,42.3183 -7.72769,57.03772 L 287.02852,400 h 2.94388 c 0,0 11.03956,-83.90064 11.40754,-85.74057 0.36799,-1.83993 1.62795,-20.96796 1.93193,-31.27875 0.31812,-10.79024 0.0127,-20.98154 -1.10396,-32.29071 -0.38113,-3.86013 -2.66789,-10.76357 -2.66789,-10.76357 z M 150.50598,214.9034 c 0,0 8.07365,13.73898 11.77553,20.79117 8.36335,15.93243 15.66721,32.39899 23.55106,48.57406 10.44326,21.42614 20.76308,42.91418 31.46274,64.21343 6.25504,12.45158 13.15894,24.57877 19.13523,37.16651 2.23817,4.7142 6.25575,14.35143 6.25575,14.35143 h -4.41582 l -18.58326,-38.82245 -26.86292,-55.38178 -25.75897,-52.6219 -17.29531,-35.87856 z m -26.67894,11.59154 c 0,0 8.59699,8.57914 12.51151,13.61546 5.23071,6.7297 9.75539,14.02415 13.79945,21.52713 6.65667,12.35017 12.3052,24.91029 18.03127,37.7185 6.47587,14.48538 12.95918,28.96755 19.50322,43.42226 C 196.26382,361.75513 213.61546,400 213.61546,400 H 209.9356 L 186.38454,349.03404 159.33763,287.76449 146.45814,260.90156 133.21067,242.5023 122.5391,228.88684 Z m -23.919036,13.43146 8.279666,10.85557 14.90341,19.31923 17.4793,32.75069 26.67893,60.34958 L 183.07268,400 h 3.86384 c 0,0 -8.97578,-20.84314 -13.43146,-31.09476 -7.45701,-17.15706 -14.36639,-34.55877 -22.26311,-51.51794 -5.38366,-11.56206 -11.14789,-22.94865 -17.11132,-34.22263 -4.76291,-9.00437 -9.62797,-17.40401 -15.45538,-25.75897 -4.85213,-6.95666 -17.75529,-20.60717 -17.75529,-20.60717 z m -55.105796,52.06992 -0.827967,6.25575 -5.427783,-16.74333 1.471941,-14.81141 5.151794,-4.32382 c 0,0 7.58245,-0.11554 11.223551,1.28795 4.866378,1.87578 9.355827,4.43116 13.063478,8.46366 5.481358,5.9616 10.980416,12.346 15.915363,18.76724 4.322667,5.62455 7.915874,11.78012 11.591537,17.84729 6.147178,10.14674 12.736368,20.12854 17.479298,31.00276 0.92664,2.12454 2.11592,6.62374 2.11592,6.62374 l -22.171115,-35.0506 -26.586937,-34.40663 -10.763569,-7.72769 -7.819688,-0.36798 -4.967801,6.43974 -0.459982,8.64765 z m 25.482981,-40.29439 1.287948,-2.5759 c 0,0 6.069699,4.6436 8.831647,7.5437 5.31258,5.57831 9.728727,11.67538 13.799448,18.21528 5.217832,8.38282 10.130768,17.3277 13.799448,26.49494 4.19508,10.48261 10.48758,31.27874 10.48758,31.27874 L 105.24379,302.11592 92.364305,278.93284 76.908924,258.32567 Z" /><path
       id="path151"
       style="color:#000000;opacity:1;fill:#f0e4f1;-inkscape-stroke:none;fill-opacity:1"
       d="m 368.06055,270.35352 0.65039,0.51953 c 0,0 -0.0199,0.84162 -0.0215,0.90234 l 1.00391,-0.95508 z m -61.83789,1.61914 -1.74805,1.33984 c -0.0527,0.18008 -0.093,0.25721 -0.15039,0.46875 -0.0317,0.11697 -0.0671,1.57416 -0.0996,2.49414 l 2.72461,-2.08594 c -0.0966,-0.95748 -0.22832,-1.65706 -0.41797,-1.88086 -0.12196,-0.14392 -0.20473,-0.21948 -0.30859,-0.33593 z m 46.11523,0.31054 -2.27344,1.52344 c -0.11807,0.69468 -0.23544,1.72596 -0.35351,2.88281 l 2.77148,-1.85547 c -0.0197,-1.09263 -0.0642,-1.9909 -0.14453,-2.55078 z m -24.89258,6.94532 -3.16992,2.33593 c -0.0645,0.9467 -0.12992,1.88912 -0.18359,2.86914 l 3.22461,-2.375 c 0.0471,-0.96479 0.0991,-1.94744 0.1289,-2.83007 z m 63.98828,0.0488 -2.81836,1.89649 c -0.27078,0.88256 -0.60067,1.97221 -1.01953,3.33984 l 3.94727,-2.65625 c 0.0619,-0.16204 0.7168,-1.87695 0.7168,-1.87695 z m -20.01367,2.70508 -3.02734,2.87696 c -0.0272,1.3108 -0.0536,2.05732 -0.0703,3.10156 l 2.97656,-2.83008 c 0.0395,-1.06063 0.0879,-2.12962 0.12109,-3.14844 z m -64.43554,3.86328 -3.08399,2.36328 c -0.0241,0.91826 -0.0628,1.88842 -0.0898,2.8418 l 3.06054,-2.3457 c 0.0431,-0.97973 0.0803,-1.92129 0.11329,-2.85938 z m 45.17382,0.37305 -3.39453,2.27539 c -0.0647,0.90374 -0.13984,1.85746 -0.20703,2.78711 l 3.45313,-2.3125 c 0.0528,-0.93328 0.10336,-1.84373 0.14843,-2.75 z m -25.6289,7.93945 -3.08789,2.27539 c -0.0765,0.9747 -0.16778,1.94064 -0.2461,2.91407 l 3.11914,-2.29688 c 0.0783,-1.00644 0.13632,-1.85576 0.21485,-2.89258 z m 59.25586,2.75782 -2.40821,1.62109 c -0.33274,1.12661 -0.63815,2.15505 -0.97851,3.3125 l 2.02148,-1.36133 c 0.6702,-1.75161 0.71413,-1.86946 1.36524,-3.57226 z m -15.27344,1.76367 -2.32227,2.20898 c -0.009,1.08984 -0.0248,1.99942 -0.0332,3.06641 l 1.99219,-1.89453 c 0.14164,-1.21173 0.26134,-2.33058 0.36328,-3.38086 z m -19.31445,1.99804 -3.57032,2.39258 c -0.0898,0.98599 -0.18614,1.90149 -0.28125,2.83789 l 3.60938,-2.41992 c 0.0314,-0.32874 0.0743,-0.68021 0.10351,-1.0039 0.0502,-0.55604 0.0895,-1.22755 0.13868,-1.80665 z m -45.04102,0.26172 -2.77148,2.12305 c -0.0445,0.97115 -0.0872,1.94779 -0.13672,2.87695 l 2.6914,-2.0625 c 0.0745,-0.95069 0.14553,-1.94433 0.2168,-2.9375 z m 19.18555,8.34961 -3.1836,2.34571 c -0.0877,0.9768 -0.1794,1.95388 -0.26953,2.92968 l 3.20899,-2.36133 c 0.0897,-0.95895 0.16145,-1.94442 0.24414,-2.91406 z m 53.26758,6.29297 -0.35938,0.24024 c -0.46309,1.52516 -0.82352,2.66735 -1.06445,3.36914 l 0.0449,-0.0293 c -0.0778,0.22131 1.16397,-3.03144 1.37891,-3.58008 z m -29.13086,0.0664 -3.64063,2.43945 c -0.13511,0.97342 -0.27507,1.94209 -0.41601,2.92578 l 3.64257,-2.4414 c 0.14243,-0.98284 0.27981,-1.95445 0.41407,-2.92383 z m -44.82422,0.90039 -2.41016,1.8457 c -0.10256,1.00146 -0.19838,1.96248 -0.3125,3.01172 l 2.30664,-1.76758 c 0.14365,-1.04633 0.28781,-2.08822 0.41602,-3.08984 z m 63.52734,0.18359 -0.11719,0.10938 c -2.3e-4,0.0426 -0.004,0.73828 -0.004,0.73828 0,0 0.10906,-0.76719 0.12109,-0.84766 z m -44.45703,8.00196 -3.06445,2.25585 c -0.10259,0.98227 -0.18735,1.96962 -0.29297,2.95118 l 2.98242,-2.19727 c 0.12754,-1.00181 0.25231,-2.00858 0.375,-3.00976 z m 23.42773,6.2871 -3.58593,2.40235 c -0.15789,1.02117 -0.29992,1.94387 -0.45703,2.95312 l 3.56054,-2.38476 c 0.16403,-0.99232 0.31949,-1.97004 0.48242,-2.97071 z m -44.91992,1.8379 -1.82031,1.39648 c -0.12837,1.02516 -0.25176,2.04153 -0.38281,3.06641 l 1.68945,-1.29493 c 0.1763,-1.05872 0.34163,-2.10885 0.51367,-3.16796 z m 19.41406,7.6621 -2.73632,2.01563 c -0.1225,1.00008 -0.24089,2.00034 -0.36719,3 l 2.69141,-1.98242 c 0.1397,-1.02322 0.27396,-2.02304 0.4121,-3.03321 z m 22.89454,6.06641 -3.35938,2.25 c -0.0179,0.1172 -0.0409,0.26422 -0.0586,0.38086 -0.1238,0.81422 -0.27988,1.72096 -0.42188,2.58984 l 3.32031,-2.22656 c 0.17873,-1.02688 0.35358,-2.02829 0.51954,-2.99414 z m -45.16407,2.91992 -1.07226,0.82227 c -0.1619,1.18391 -0.27856,1.98327 -0.4336,3.10156 l 0.91016,-0.69726 c 0.21351,-1.16542 0.37331,-1.99287 0.5957,-3.22657 z m 20.19336,6.79688 -2.76562,2.03515 c -0.14696,1.01948 -0.29176,2.0392 -0.44336,3.0586 l 2.82226,-2.07813 c 0.128,-1.0338 0.25759,-2.00283 0.38672,-3.01562 z m 22.1836,5.96679 -3.27735,2.19532 c -0.18495,1.01334 -0.3694,2.03412 -0.54687,3.01367 l 3.27539,-2.19336 c 0.18151,-0.97419 0.36447,-2.01076 0.54883,-3.01563 z m -45.51953,4.10352 -0.20899,0.16016 c -0.1784,1.2207 -0.42552,2.9181 -0.45508,3.11718 l 0.0312,-0.0234 c 0.0415,-0.20924 0.38284,-1.97121 0.63282,-3.25391 z m 20.10546,6.5625 -1.64257,1.20898 c -0.0181,0.58959 0.001,1.03076 0.10546,1.11329 0.40475,0.32016 0.96316,-0.71013 1.53711,-2.32227 z m 22.29883,5.23828 -2.68555,1.79883 c -0.0833,0.98392 -0.10666,1.75209 0.0176,1.99414 0.0989,0.19265 0.18656,0.34338 0.26953,0.46094 l 1.41993,-0.95117 c 0.0537,-0.0858 0.0906,-0.15773 0.15039,-0.2461 0.15616,-0.23075 0.46402,-1.45103 0.82812,-3.05664 z M 182.44336,264.18164 c -0.18795,0.0301 -0.39848,0.10785 -0.64258,0.27148 -1.17657,0.78876 -0.53765,1.87034 -0.38476,2.33594 0.007,0.0215 0.0183,0.0487 0.0254,0.0703 z m 6.20117,9.90234 -2.01758,5.40235 c 0.41804,0.91352 0.86193,1.85667 1.30274,2.79687 l 2.07226,-5.54297 c -0.45131,-0.88955 -0.90229,-1.7805 -1.35742,-2.65625 z m -25.14062,3.17969 -1.39453,3.72461 c 0.3306,1.03534 0.69751,2.12332 1.11914,3.28711 l 1.65429,-4.41797 c -0.40919,-0.79184 -0.81811,-1.58873 -1.23437,-2.35547 -0.037,-0.0682 -0.0912,-0.15467 -0.14453,-0.23828 z m 32.14648,10.85742 -2.13281,5.70703 c 0.45464,0.91993 0.88128,1.80515 1.33398,2.7168 l 2.13282,-5.70703 c -0.44296,-0.90593 -0.89062,-1.80608 -1.33399,-2.7168 z m -25.22266,3.38477 -2.0625,5.50781 c 0.41057,0.95288 0.84775,1.9229 1.26954,2.88672 l 2.0664,-5.51953 c -0.42531,-0.96401 -0.84499,-1.91787 -1.27344,-2.875 z m -25.72265,2.46289 -1.47461,3.83398 c 0.35036,1.06051 0.72978,2.11949 1.13672,3.17579 l 1.71875,-4.46875 c -0.45985,-0.84452 -0.85162,-1.56657 -1.38086,-2.54102 z m 57.91797,8.28125 -2.11328,5.6543 c 0.44561,0.89392 0.90035,1.78366 1.34961,2.67578 l 2.10546,-5.63281 c -0.44801,-0.89871 -0.89327,-1.79883 -1.34179,-2.69727 z m -25.5625,4.27344 -2.05664,5.49218 c 0.42491,0.94832 0.87092,1.94413 1.27929,2.85938 l 2.05469,-5.49219 c -0.40212,-0.89281 -0.79694,-1.78892 -1.19922,-2.68164 -0.0262,-0.058 -0.052,-0.11963 -0.0781,-0.17773 z m -25.2461,0.92968 -2.10937,5.48829 c 0.4398,0.91963 0.84036,1.77281 1.30078,2.73828 l 2.11719,-5.50391 c -0.44748,-0.94996 -0.89999,-1.88693 -1.3086,-2.72266 z m 57.80274,8.86915 -2.02735,5.42382 c 0.45706,0.8743 0.90738,1.75213 1.36719,2.625 l 2,-5.34961 c -0.443,-0.9015 -0.89553,-1.79834 -1.33984,-2.69921 z m -25.88477,5.11328 -2.01172,5.37304 c 0.43212,0.92792 0.87485,1.85105 1.31055,2.77735 l 1.98047,-5.29297 c -0.4243,-0.95344 -0.85375,-1.90453 -1.2793,-2.85742 z m -25.20508,0.53515 -2.09375,5.44336 c 0.42462,0.93267 0.85486,1.86123 1.28516,2.78906 l 2.08594,-5.42578 c -0.42703,-0.93488 -0.85058,-1.8702 -1.27735,-2.80664 z m 58.03125,8.5625 -1.77539,4.75196 c 0.46245,0.85423 0.92627,1.70736 1.39063,2.56054 l 1.70312,-4.55273 c -0.44007,-0.91962 -0.8761,-1.84118 -1.31836,-2.75977 z m -26.1875,5.90821 -1.78125,4.75586 c 0.4433,0.90957 0.88039,1.82209 1.32618,2.73046 l 1.7207,-4.59375 c -0.41791,-0.96591 -0.84534,-1.92766 -1.26563,-2.89257 z m -25.17578,0.16797 -1.97656,5.13476 c 0.4399,0.89656 0.87932,1.79825 1.32227,2.69336 l 1.92382,-5.00195 c -0.42479,-0.94015 -0.84295,-1.88686 -1.26953,-2.82617 z m 58.22071,8.36132 -1.35938,3.63477 c 0.42295,0.77731 0.93041,1.70609 1.39063,2.55859 l 1.28711,-3.4414 c -0.45386,-0.94403 -0.91631,-1.9031 -1.31836,-2.75196 z m -51.63086,6.4668 -1.625,4.22461 c 0.44654,0.8874 0.88678,1.77306 1.33398,2.66211 l 1.53516,-3.99219 c -0.41442,-0.96489 -0.82577,-1.933 -1.24414,-2.89453 z m 25.125,0.27344 -1.35157,3.60547 c 0.38682,0.77943 0.90204,1.82732 1.33399,2.70898 l 1.27148,-3.39648 c -0.39157,-0.91185 -0.92259,-2.12707 -1.2539,-2.91797 z m 33.38867,7.62695 -0.97656,2.61328 c 0.48572,0.8721 0.96788,1.73531 1.41211,2.50977 l 0.86523,-2.31446 c -0.41658,-0.90892 -0.83417,-1.81858 -1.30078,-2.80859 z m -52.08399,7.35547 -1.18164,3.07422 c 0.44209,0.95643 0.86317,1.86416 1.28711,2.7793 l 1.08789,-2.82422 c -0.40341,-1.02135 -0.77228,-1.98965 -1.19336,-3.0293 z m 25.2461,0.24805 -0.93164,2.48828 c 0.47969,0.94412 0.93599,1.82831 1.36328,2.63476 l 0.80078,-2.13672 c -0.38509,-0.94955 -0.78609,-1.92747 -1.23242,-2.98632 z" /><path
       style="fill:#000000;fill-opacity:0.2;stroke:none;stroke-width:1px;stroke-linecap:butt;stroke-linejoin:miter;stroke-opacity:1"
       d="m 276.63294,234.59061 c 0,0 6.94026,9.38713 9.29162,17.11132 3.19045,10.48058 3.10191,13.51687 2.4839,19.59522 -0.63767,6.2718 -2.56797,11.22349 -5.15179,15.82336 -2.46956,4.39646 -8.73965,10.76358 -8.73965,10.76358 0,0 0.6133,28.08793 0.73597,42.1343 0.0819,9.38327 0,28.15088 0,28.15088 l 2.94388,-0.55197 1.83993,-68.07728 8.09567,-9.56762 5.1518,-15.45538 0.73597,-18.39926 -8.09568,-14.71942 -6.25575,-5.88776 z"
       id="path152"
       sodipodi:nodetypes="cssscsccccccccc" /><path
       id="path8"
       style="color:#000000;fill:#000000;-inkscape-stroke:none"
       d="M 169.87305 206.45508 C 167.70771 206.5829 165.65142 207.44393 163.51758 208.60742 C 162.184 209.33457 160.92908 210.40063 159.92578 211.36523 C 159.85708 211.43133 159.87268 211.42363 159.80664 211.48828 C 159.76334 211.46828 159.74114 211.44949 159.69727 211.42969 C 158.92515 211.08158 158.04303 210.72331 157.09766 210.5293 C 156.15229 210.33528 155.14391 210.30431 154.11914 210.61523 C 152.70077 211.04567 151.07718 211.98222 149.73242 213.20312 C 149.06004 213.81361 148.4593 214.4896 148.06836 215.33008 C 147.87693 215.74163 147.75186 216.23204 147.73438 216.73828 C 146.59541 217.19223 145.48835 217.63185 144.73438 217.95508 C 142.26779 219.01243 138.7057 220.62669 134.81055 222.4082 C 133.61661 221.69374 132.24429 221.20799 130.83008 221.05664 C 129.10743 220.87228 127.33916 221.1664 125.81445 222.08203 C 124.39755 222.93291 123.17353 224.32628 122.38281 225.93359 C 122.00325 226.70516 121.72861 227.5859 121.66992 228.47461 C 118.60078 229.90389 115.4156 231.39073 112.14453 232.91797 C 110.89617 232.22591 109.44238 231.85411 107.96289 231.74219 C 106.10873 231.60192 104.21709 231.84374 102.6582 232.73828 C 101.24969 233.54653 100.1269 234.85181 99.416016 236.35742 C 99.005601 237.22666 98.756018 238.19127 98.724609 239.17188 C 93.258188 241.71461 87.854713 244.21334 82.714844 246.56641 C 82.565956 246.47212 82.443104 246.37495 82.289062 246.28125 C 80.766719 245.35527 78.95418 245.20427 77.232422 245.41992 C 75.510664 245.63557 73.848393 246.22832 72.537109 247.17188 C 71.601978 247.84477 70.580237 248.46661 69.796875 249.49414 C 69.405193 250.00791 69.077882 250.67922 69.03125 251.44336 C 69.00674 251.84502 69.065021 252.24865 69.183594 252.64258 C 65.479459 254.26542 62.173978 255.67373 59.433594 256.78125 C 58.250362 256.52307 57.035974 256.36435 55.783203 256.35156 C 48.02724 256.27236 42.676779 259.90957 39.925781 264.45508 C 36.838592 269.55605 36.413997 276.25453 36.779297 281.78125 C 37.026034 285.51424 38.751116 290.90937 40.392578 295.58203 C 41.060192 297.48251 41.658966 299.04747 42.205078 300.4707 C 41.139285 305.76876 40.155565 311.84869 38.880859 316.12891 C 36.275909 324.8758 30.375221 340.18916 27.939453 356.83398 C 27.510603 359.76459 29.917821 363.26063 29.703125 367.03125 C 29.416793 372.05993 23.793785 377.81148 24.158203 381.7793 C 24.817356 388.95624 26.264032 395.68602 26.943359 399.81836 L 32.632812 399.9668 C 32.640812 394.135 31.20774 389.59705 29.173828 383.55859 C 28.155846 380.53638 33.359997 375.26715 34.445312 368.65625 C 34.900284 365.88498 32.21012 359.48717 32.732422 356.42188 C 35.378769 340.89057 40.673881 324.97131 43.853516 316.58398 C 45.217706 312.98554 45.594278 301.93144 47.009766 297.54883 C 50.703065 286.11352 54.555438 277.34625 58.515625 271.59375 C 63.777473 274.51526 68.0149 280.53557 72.570312 285.57812 C 88.241037 302.92471 100.73025 323.10558 111.92969 343.72852 C 114.85234 349.11039 120.11087 362.89977 121.56445 366.75391 C 121.72274 368.17535 121.90601 369.59623 122.01758 371.01953 C 122.35709 376.82071 123.28711 400 123.28711 400 L 128.80469 400 C 127.29833 385.61805 126.85414 376.42197 125.86133 371.39453 C 125.75684 370.86541 125.24569 368.94554 125.05078 368.09961 C 124.62626 365.75704 123.78166 361.67037 123.03516 357.97266 C 122.43672 348.92295 120.41743 321.98931 116.61523 309.41016 C 111.19419 291.47513 102.79386 275.46896 93.660156 259.7793 C 91.143863 255.45686 89.370268 252.03525 86.003906 249.02148 C 90.469976 247.01472 95.169786 244.89804 99.941406 242.74609 C 99.9869 242.80834 100.01764 242.855 100.06641 242.92188 C 100.51804 243.54116 101.09998 244.28868 101.78906 245.15039 C 103.16723 246.87381 104.97037 249.04834 106.93164 251.43164 C 110.85418 256.19825 115.4141 261.81381 118.35352 266.1582 C 126.31478 277.92486 132.80858 290.71479 139.22852 303.52344 C 147.01493 319.05842 153.50744 335.27437 160.53906 351.29297 C 167.62071 367.42542 181.50977 400 181.50977 400 L 185.00391 400 C 185.00391 400 170.38322 366.25336 163.28711 350.08789 C 156.28196 334.12963 149.77372 317.8647 141.91211 302.17969 C 135.48771 289.36208 128.93991 276.45126 120.83789 264.47656 C 117.76565 259.93586 113.17937 254.3027 109.24805 249.52539 C 107.28237 247.13673 105.48027 244.96479 104.13086 243.27734 C 103.45615 242.43362 102.89506 241.70942 102.49023 241.1543 C 102.08541 240.59917 101.82318 240.12277 101.84961 240.1875 C 101.59344 239.56007 101.6717 238.60702 102.12891 237.63867 C 102.58612 236.67032 103.40467 235.76776 104.15039 235.33984 C 104.93449 234.8899 106.34128 234.62885 107.73633 234.73438 C 109.13138 234.83989 110.50041 235.30983 111.22852 235.87109 C 111.5924 236.15159 112.69712 237.38027 113.94141 239.04492 C 115.18569 240.70957 116.6696 242.85645 118.23828 245.21289 C 121.37564 249.92577 124.85353 255.48556 127.51562 259.84375 C 135.63638 273.13834 142.90287 286.97746 149.90039 300.94727 C 157.91547 316.94846 165.11187 333.38078 172.31445 349.82031 C 179.44275 366.09024 193.18359 400 193.18359 400 L 197.06641 400 C 197.06641 400 182.2319 364.97905 175.0625 348.61523 C 167.86004 332.176 160.64532 315.69701 152.58398 299.60352 C 145.5693 285.59945 138.26265 271.68469 130.07422 258.2793 C 127.39816 253.89829 123.91018 248.31852 120.73633 243.55078 C 119.14939 241.16691 117.64245 238.98745 116.34375 237.25 C 115.9352 236.70342 115.59561 236.2902 115.23828 235.83984 C 117.96761 234.60548 120.62776 233.40148 123.22266 232.22656 C 124.89648 234.34568 127.7224 237.70698 131.03516 241.83789 C 134.76762 246.49218 138.82662 251.79981 141.49805 256.16406 C 154.18142 276.88466 163.19023 299.78485 173.05273 322.22266 C 182.05643 342.70661 190.67317 360.61753 200.57227 382.54102 C 202.89693 387.68946 208.86914 400 208.86914 400 L 212.25391 400 C 212.25391 400 205.61191 386.41644 203.30469 381.30664 C 193.38911 359.34665 184.778 341.44379 175.79883 321.01562 C 165.96852 298.65107 156.92513 275.61941 144.05859 254.59961 C 141.24811 250.00816 137.14072 244.65424 133.37695 239.96094 C 129.6132 235.26762 126.16304 231.20189 124.83789 229.45312 C 124.5585 229.08443 124.5551 228.31702 125.07617 227.25781 C 125.59724 226.19861 126.60841 225.10332 127.35938 224.65234 C 128.95594 223.69356 132.12211 224.07468 133.79102 225.30859 C 135.84555 226.82764 139.55591 231.65108 143.22656 237.2832 C 146.89723 242.91533 150.6939 249.42157 153.61328 254.64258 C 169.43429 282.93675 181.29203 313.40585 194.57227 343.18359 C 203.01212 362.10794 221.32617 400 221.32617 400 L 224.78125 400 C 224.78125 400 205.69401 360.75447 197.3125 341.96094 C 184.07194 312.27217 172.18728 281.71481 156.23047 253.17773 C 153.28864 247.91658 149.47108 241.37095 145.74023 235.64648 C 143.07384 231.55527 140.5446 227.96345 138.23438 225.42188 C 141.42754 223.97277 144.4548 222.59774 146.58984 221.62695 C 147.09119 221.37108 148.13711 220.79523 149.10938 220.26367 C 153.54403 228.55983 164.44516 251.27716 171.97266 266.71094 C 184.43229 292.25734 197.06684 317.71236 209.50781 343.25195 C 218.75391 362.23303 237.10352 400 237.10352 400 L 240.54102 400 C 240.54102 400 221.45621 360.93273 212.20312 341.9375 C 199.75573 316.38458 187.12356 290.93052 174.66992 265.39648 C 166.66693 248.98772 154.69143 223.91786 150.70898 216.83594 C 150.69618 216.81324 150.66006 216.87314 150.78906 216.5957 C 150.91809 216.3183 151.2656 215.86187 151.74805 215.42383 C 152.71294 214.54775 154.22537 213.71846 154.99023 213.48633 C 155.68841 213.27445 157.19818 213.59387 158.46289 214.16406 C 158.52671 214.19284 158.56085 214.21889 158.62305 214.24805 L 160.05078 215.25 C 161.80849 217.37842 162.72943 219.33631 163.94531 221.70117 C 165.62867 224.97526 166.80823 226.82992 170.31641 233.80273 C 174.22755 241.57666 179.79248 252.22418 187.35156 268.89062 C 193.94081 283.41892 212.46532 319.25662 213.61523 321.69531 C 229.30365 354.96466 254.17578 400 254.17578 400 L 258.35352 400.08984 C 257.30307 398.04279 254.81833 393.39555 253.38086 390.65234 C 251.69821 384.89599 244.92709 361.64471 241.66602 347.72852 C 238.74001 335.24238 234.24414 309.70508 234.24414 309.70508 L 234.07617 308.74805 L 233.15039 308.45703 C 233.15039 308.45703 227.86787 306.74275 225.78516 305.6582 C 220.4541 302.88227 215.42194 299.43288 210.83984 295.51758 C 205.96199 291.34944 198.88613 283.12312 196.58984 280.43164 C 194.28058 275.8205 192.26399 271.72356 190.85156 268.70312 C 187.42435 261.37418 174.95709 235.94259 171.71875 229.84766 C 167.44566 221.80511 166.41564 219.79679 165.49805 218.37695 C 164.18048 216.33825 162.97604 214.925 161.83203 213.99414 C 161.93687 213.88691 161.96353 213.84586 162.14453 213.67188 C 163.04786 212.80333 164.24029 211.82517 164.94922 211.4707 C 166.90326 210.49369 170.05005 209.45016 171.46289 209.72852 C 173.50011 210.1223 174.92072 211.25499 175.72266 213.08008 C 176.00734 213.79673 176.34844 214.75957 176.72461 215.89453 C 177.47695 218.16446 178.38071 221.1288 179.38086 224.36328 C 181.38117 230.83217 183.75494 238.36751 186.19727 243.8457 C 192.23315 257.38459 199.36412 271.02111 209.63672 282.01367 C 216.70091 289.57296 221.5282 293.58029 230.80469 298.29492 C 232.12299 298.96493 234.60217 299.72453 237.02148 300.47266 C 238.91609 301.05851 239.95563 301.35619 240.625 301.55078 C 240.85068 303.32178 245.99576 343.57746 251.44531 364.82617 C 254.49415 376.71406 262.73437 400 262.73438 400 L 265.75977 400 C 265.75977 400 257.50337 375.56662 254.54492 364.03125 C 249.10281 342.81153 243.65234 300.10937 243.65234 300.10938 L 243.51953 299.06641 L 242.50781 298.77344 C 242.50781 298.77344 240.35027 298.15299 237.9668 297.41602 C 235.58325 296.67897 232.79541 295.71857 232.25391 295.44336 C 223.22088 290.85239 218.93362 287.27682 211.97461 279.83008 C 202.10057 269.264 195.10011 255.95415 189.12109 242.54297 C 186.81112 237.36142 184.43308 229.87155 182.4375 223.41797 C 181.43971 220.19114 180.53488 217.22143 179.76172 214.88867 C 179.37514 213.72229 179.02181 212.71544 178.69727 211.89844 C 178.37272 211.08144 178.14217 210.49863 177.69727 209.91797 C 176.30171 208.09658 174.1867 207.00256 172.08203 206.58789 C 171.3293 206.45175 170.59482 206.41247 169.87305 206.45508 z M 282.43555 232.65039 C 282.04886 232.69809 281.62836 232.8301 281.17188 233.14844 C 280.72499 233.46005 280.23455 233.84229 279.84375 234.47656 C 279.45295 235.11083 279.26952 236.13787 279.61133 236.99414 C 279.92797 237.78733 280.34433 238.09676 280.80078 238.51562 C 281.25723 238.93456 281.78144 239.35446 282.31836 239.78125 C 283.39219 240.63484 284.53903 241.56827 284.98438 242.09766 C 287.31428 244.8672 289.16552 247.8718 290.46289 251.21094 C 291.55784 254.02903 292.28886 257.02117 292.54102 260.00586 C 293.04113 265.92545 292.73771 271.99124 291.42188 277.73828 C 290.35343 282.40475 288.38344 286.94161 285.94922 291.1543 C 284.45986 293.73171 279.85352 298.97266 279.85352 298.97266 L 279.45312 299.41992 L 279.44531 300.01953 C 279.44531 300.01953 279.01952 333.66988 278.29297 350.4043 C 277.5839 366.74033 275.15039 400 275.15039 400 L 278.3418 400 C 278.3418 400 280.77536 367.01002 281.49023 350.54297 C 282.21114 333.93879 282.62381 301.65775 282.63672 300.64453 C 283.25643 299.955 286.94359 295.82594 288.71875 292.75391 C 291.27627 288.32784 293.38266 283.51028 294.54102 278.45117 C 295.94197 272.33232 296.25513 265.94646 295.73047 259.73633 C 295.44981 256.4142 294.64256 253.1342 293.44531 250.05273 C 292.01008 246.35885 289.96096 243.04137 287.43359 240.03711 C 286.5672 239.00723 285.36146 238.11427 284.30859 237.27734 C 283.78216 236.85888 283.29966 236.4655 282.96484 236.1582 C 282.79297 236.00045 282.83585 236.062 282.76953 235.97852 C 282.84473 235.90592 282.86033 235.87216 283.00195 235.77344 C 282.68538 235.99418 282.90033 235.82897 283.26758 235.85547 C 283.63483 235.88197 284.09758 235.97032 284.49609 236.03906 C 286.07816 236.31195 288.17588 237.43316 290.03711 238.39062 C 290.55937 238.65931 291.81253 239.53184 292.81445 240.28906 C 293.54765 240.84319 294.57115 241.93369 295.18945 242.60547 C 296.03543 247.67578 297.86463 257.87303 298.65234 269.83398 C 299.01273 275.30629 298.95667 280.15484 298.73438 285.20508 C 296.58601 292.75497 292.54899 300.86127 289.16016 304.79688 L 288.81836 305.19531 L 285.45898 397.2793 C 285.42893 397.47823 285.0625 400 285.0625 400 L 288.54492 400 C 288.54492 400 297.15349 339.80788 299.04297 316.77539 C 300.92088 293.88409 302.21373 286.26635 301.69531 270.10352 C 301.3117 258.14346 299.87882 249.15801 298.54297 242.62109 C 303.2076 244.47615 305.36194 245.9942 305.94922 247.30664 C 307.44492 250.6492 307.53943 267.55126 307.56055 276.29883 C 307.58405 286.02704 307.2357 295.3099 305.96875 307.96875 C 304.8193 319.45352 301.27402 347.10739 299.20898 361.82422 C 297.46736 374.23663 295.75475 387.3169 293.44531 400 L 295.92383 400 C 298.15014 387.62589 299.47878 374.83114 301.70508 362.45703 C 304.64822 346.0987 307.40888 319.65932 308.46289 307.80078 C 309.47281 296.43832 310.09029 290.49842 310.52539 276.19336 C 310.73739 269.22324 310.55869 257.80278 309.8125 251.33203 C 311.67644 251.95111 316.30301 253.46629 318.30469 254.25391 C 317.60584 265.94435 318.22634 278.4163 317.60742 290.30664 C 316.63661 308.95659 315.20776 327.59022 312.89844 346.09961 C 310.71242 363.62069 303.83789 400 303.83789 400 L 306.6875 400 C 306.6875 400 313.5603 364.2292 315.77734 346.45898 C 318.09807 327.85821 319.53062 309.15439 320.50391 290.45703 C 321.14472 278.14665 320.48391 265.44057 321.22852 253.8125 C 321.24652 253.5307 321.27882 253.53594 321.36133 253.4668 C 321.44383 253.3976 321.67571 253.28102 322.06641 253.22852 C 322.84781 253.12351 324.13004 253.31482 325.13672 253.64648 C 326.27962 254.02302 327.27047 254.58072 327.89844 255.22461 C 328.5264 255.8685 328.83514 256.528 328.79297 257.5 C 328.27988 269.3267 327.96979 281.55236 327.32422 293.19531 C 325.92065 318.50926 322.38081 338.52859 319.47461 362.89453 C 318.02061 375.08507 313.27539 400 313.27539 400 L 316.125 400 C 316.125 400 320.86931 375.6984 322.35547 363.23828 C 325.25096 338.96219 328.80691 318.85382 330.2207 293.35547 C 330.83277 282.31667 331.15073 270.824 331.61328 259.6582 C 335.71894 261.29546 340.07852 263.00422 344.26367 264.61719 C 344.18872 265.11688 344.11442 265.60995 344.05469 266.25586 C 343.89178 268.01733 343.76803 270.31065 343.65234 272.8457 C 343.42098 277.91591 343.2225 283.95347 342.84766 288.36133 C 341.24289 307.23188 338.91888 325.87052 336.23242 344.63672 C 333.58895 363.10261 327.27344 400 327.27344 400 L 330.13477 400 C 330.13477 400 336.24779 363.57644 338.9043 345.01953 C 341.59528 326.22135 343.92641 307.53015 345.53711 288.58984 C 345.92265 284.0562 346.11951 278.01128 346.34961 272.96875 C 346.46466 270.44746 346.58766 268.17477 346.74219 266.50391 C 346.81949 265.66845 346.90765 264.98119 346.99414 264.51953 C 347.02854 264.33579 347.05924 264.22524 347.08594 264.13086 C 347.60359 263.62784 347.91488 263.48613 348.35547 263.48242 C 348.83331 263.47842 349.57691 263.68651 350.57227 263.99414 C 351.83894 264.38564 352.42665 264.86595 352.86719 265.53125 C 353.30772 266.19655 353.5878 267.16213 353.81445 268.4707 C 353.81145 268.4553 353.85051 268.9426 353.84961 269.56445 C 353.84871 270.1863 353.83113 271.01218 353.79688 271.98438 C 353.72828 273.92874 353.59623 276.46375 353.42773 279.22266 C 353.09075 284.74041 352.6019 291.16186 352.15039 295.59766 C 350.24242 314.34226 347.29754 332.3869 344.40039 351.06445 C 341.90098 367.17782 335.50586 400 335.50586 400 L 338.35547 400 C 338.35547 400 344.54821 367.72362 347.06836 351.47656 C 349.9634 332.8126 352.91731 314.72031 354.83594 295.87109 C 355.29407 291.37032 355.78413 284.9381 356.12305 279.38867 C 356.2925 276.61396 356.42416 274.06209 356.49414 272.08008 C 356.52914 271.08907 356.54988 270.24044 356.55078 269.56836 C 356.55097 269.43517 356.54714 269.3445 356.54688 269.22852 C 358.35795 269.88281 360.20451 270.5513 361.21289 270.87109 C 361.7524 271.04219 362.9647 271.48722 364.05859 271.88281 C 364.04959 271.93661 364.0362 271.98852 364.0293 272.04297 C 362.96393 280.42827 363.27408 289.92864 363.29102 298.73242 C 363.32722 317.55126 365.46307 363.56896 365.60547 366.62109 C 364.65277 380.46916 364.11693 387.99467 363.05859 399.9668 L 368.63281 399.9668 C 369.09851 386.09701 368.86515 377.05792 368.3418 361.68164 C 368.29534 360.31688 368.21533 359.34145 368.1543 358.125 C 369.25638 354.6908 373.13323 342.59756 377.34961 329.14648 C 379.07704 323.63566 380.68696 318.46301 382.28711 313.33398 C 384.1366 326.08572 384.46744 341.97007 385.41797 349.36328 C 385.72484 351.75014 382.48255 359.97354 383.23047 364.84766 C 383.57934 367.12123 384.81162 369.65591 385.98438 373.60742 C 386.48404 375.29157 385.30451 380.15951 384.23633 385.63477 C 383.85368 387.59602 385.01974 390.60033 384.99219 392.59961 C 384.95849 395.04126 384.07243 396.81839 382.76562 399.9668 L 387.55664 399.9668 C 387.55664 399.9668 388.84426 397.67636 388.78711 392.5918 C 388.76851 390.93711 387.71661 388.39405 387.93555 386.07227 C 388.28972 382.3152 388.69263 377.47859 388.58984 373.70508 C 388.40267 366.83361 386.31752 366.83898 386.20898 364.81641 C 385.97324 360.42331 388.67414 353.03475 388.25586 349.57812 C 387.07852 339.84872 387.23772 320.33193 384.41016 306.54102 C 386.37966 300.28237 387.93617 295.46185 388.58984 293.86914 C 389.99334 290.44943 391.87006 286.73293 393.375 281.04492 C 394.00345 278.66962 392.51305 277.10112 390.3125 276.01172 C 389.68595 275.70155 388.64346 275.37908 387.99023 275.34961 C 386.26378 275.27173 385.13954 275.52107 384.25977 276.82617 L 373.61914 272.87109 C 373.52054 271.92718 373.18023 271.04504 372.56445 270.37109 C 371.73176 269.45973 370.59477 268.9899 369.31055 268.68555 C 368.73442 268.54901 368.14781 268.50994 367.57812 268.57617 C 367.00851 268.64237 366.45699 268.81312 365.95312 269.10156 C 365.66276 269.26782 365.39649 269.48064 365.15625 269.72461 C 362.38994 268.76549 359.28726 267.62072 356.13086 266.4375 C 355.90715 265.58982 355.60952 264.78155 355.11914 264.04102 C 354.33326 262.85417 353.07137 261.94017 351.36914 261.41406 C 350.39594 261.11328 349.44895 260.77187 348.33398 260.78125 C 347.25771 260.78994 346.10167 261.2739 345.14258 262.21875 C 340.35611 260.34044 335.73572 258.48919 331.64062 256.83789 C 331.50787 255.40442 330.88676 254.13451 329.97461 253.19922 C 328.89666 252.09392 327.50032 251.37075 326.04297 250.89062 C 324.72561 250.45667 323.18199 250.15359 321.67969 250.35547 C 320.92854 250.45641 320.15603 250.69249 319.49805 251.24414 C 319.32799 251.38671 319.17369 251.55335 319.03516 251.73633 C 315.46586 250.26956 308.94024 247.31592 308.88477 247.27148 C 308.36155 246.8524 308.38466 245.43697 306.96289 243.83398 C 306.18774 242.9601 304.50837 241.75577 302.66797 240.8418 C 300.2244 239.62829 297.59922 238.57897 296.05664 238.5332 C 295.95886 238.5303 295.92078 238.58056 295.83203 238.58594 C 295.4823 238.30884 295.34281 238.19026 294.74219 237.73633 C 293.69155 236.9423 292.50976 236.0653 291.50195 235.54688 C 289.72976 234.63516 287.48359 233.30642 285.03906 232.88477 C 284.72094 232.82987 284.14288 232.71063 283.49805 232.66406 C 283.17563 232.64076 282.82223 232.60279 282.43555 232.65039 z M 78.525391 248.3418 C 79.420216 248.34847 80.217841 248.53312 80.728516 248.84375 C 86.210687 252.17834 87.705083 255.5117 91.068359 261.28906 C 100.15791 276.90289 108.42848 292.69097 113.74414 310.27734 C 115.39653 315.74412 116.81491 323.75002 118.04688 331.62695 C 117.35552 328.97271 116.72563 326.33418 115.76562 323.60547 C 111.68744 312.01383 106.38033 301.72223 101.05469 291.48828 C 96.294301 282.34056 91.262712 273.30195 85.185547 265.32812 C 83.018689 262.48502 80.05044 259.6884 77.458984 257.30078 C 76.163258 256.10697 74.960507 255.01909 74.019531 254.10938 C 73.078556 253.19966 72.385675 252.40679 72.210938 252.11914 C 72.01859 251.80251 72.022053 251.67969 72.025391 251.625 C 72.028691 251.5703 72.038971 251.49964 72.181641 251.3125 C 72.466985 250.93821 73.301294 250.3182 74.289062 249.60742 C 75.070993 249.04476 76.353514 248.55329 77.605469 248.39648 C 77.918456 248.35728 78.227115 248.33957 78.525391 248.3418 z M 71.283203 255.60742 C 71.501264 255.82578 71.689877 256.02812 71.935547 256.26562 C 72.932871 257.22983 74.141597 258.32464 75.425781 259.50781 C 77.994155 261.87417 80.863467 264.60712 82.798828 267.14648 C 88.696827 274.88522 93.65861 283.77608 98.392578 292.87305 C 103.71456 303.09997 108.94345 313.25463 112.93555 324.60156 C 113.63417 326.5873 114.21935 328.57629 114.75977 330.57031 C 110.36252 320.78227 105.48505 310.96433 100.44336 301.58594 C 93.683803 289.01205 87.331721 277.4828 75.191406 266.4375 C 72.059175 263.58778 68.500483 260.59483 64.498047 258.61133 C 66.492586 257.73361 68.796022 256.71272 71.283203 255.60742 z M 55.386719 259.71289 C 61.998865 259.71387 67.393559 263.94124 72.902344 268.95312 C 84.400367 279.41406 90.45449 290.47058 97.701172 303.66406 C 103.87483 314.90401 109.27264 325.37163 114.31641 337.23438 C 115.74781 340.60103 117.60888 346.59558 119.24414 352.2168 C 117.72395 348.20347 116.16852 344.39645 114.92969 342.11523 C 103.65916 321.36142 90.689339 301.16036 74.796875 283.56836 C 69.401736 277.59629 64.016832 268.9418 55.107422 267.13281 C 54.260457 266.96084 53.391862 266.90652 52.527344 266.96094 C 49.933786 267.12418 47.379281 268.26016 45.574219 270.08984 C 42.645715 273.05836 42.481157 277.44144 42.242188 280.83789 C 42.060611 283.4186 42.596024 286.79318 43.144531 289.63672 C 43.418787 291.05849 43.703818 292.33689 43.919922 293.25977 L 43.919922 293.26172 C 43.813857 293.66105 43.702818 294.05105 43.599609 294.45508 C 41.991967 289.87865 40.358768 284.38422 40.171875 281.55664 C 39.832062 276.41551 40.385589 270.26228 42.833984 266.2168 C 44.705234 263.12491 50.247359 260.09337 54.046875 259.76953 C 54.498895 259.731 54.945908 259.71283 55.386719 259.71289 z M 53.654297 269.96875 C 53.695369 269.97063 53.732695 269.97975 53.773438 269.98242 C 50.762276 273.99251 48.027962 279.96723 45.728516 287.02148 C 45.373453 284.80409 45.130859 282.52008 45.234375 281.04883 C 45.473672 277.64775 45.853789 274.07975 47.710938 272.19727 C 49.108973 270.78013 51.583761 269.87386 53.654297 269.96875 z M 367.93164 271.55664 C 368.13072 271.53417 368.36279 271.5447 368.61914 271.60547 C 369.59094 271.83578 370.12044 272.14371 370.34961 272.39453 C 370.57878 272.64536 370.70223 272.90171 370.64648 273.66602 C 369.57523 288.35471 369.49278 301.03147 368.82812 315.17383 C 368.46148 322.97673 367.85197 337.53476 367.83984 337.82422 L 367.35547 339.17383 C 366.87714 326.74246 366.31399 310.66327 366.29102 298.72656 C 366.27392 289.85906 365.98587 280.45009 367.00586 272.42188 C 367.06006 271.99532 367.19711 271.84604 367.44336 271.70508 C 367.56648 271.63459 367.73257 271.57911 367.93164 271.55664 z M 373.53516 275.41602 C 378.34637 277.24632 381.61246 278.51093 383.15234 279.10547 C 381.41578 283.41362 380.48037 289.04631 380.0957 290.60352 C 378.65861 296.42118 376.61744 304.69919 374.81445 311.73047 C 373.92454 315.20096 372.61224 320.18288 371.41406 324.72852 C 371.59171 320.61615 371.67209 318.55152 371.82422 315.31445 C 372.46849 301.60559 372.5754 289.34364 373.53516 275.41602 z M 387.92969 277.97461 C 388.30451 277.93592 388.6856 278.04086 389.04492 278.21875 C 390.09371 278.73796 391.06283 279.62924 390.37891 281.46484 C 388.45229 286.63591 387.19871 289.72496 385.92383 293.3125 C 384.6329 296.94522 379.34541 312.7549 374.48828 328.25 C 371.88033 336.56983 370.39464 340.72898 368.62109 346.41797 L 371.17773 337.36914 C 371.17773 337.36914 375.67441 320.80698 377.7207 312.47461 C 379.54871 305.03122 380.88816 298.44323 382.93359 291.05664 C 383.90522 287.54787 384.77299 283.36957 386.23242 279.67578 C 386.69665 278.50084 387.30498 278.0391 387.92969 277.97461 z M 201.66211 290.45703 C 204.062 293.28076 206.55924 296.06721 208.76172 297.94922 C 213.5172 302.01274 218.74389 305.60136 224.30664 308.49805 C 226.61337 309.69921 230.05355 310.81605 231.26367 311.20117 C 231.542 312.78035 235.66812 336.1579 238.55078 348.45898 C 240.50809 356.81144 244.04556 368.76879 247.125 378.7832 C 236.35179 358.4158 223.28278 333.83732 217.30273 321.45117 C 214.12837 314.87612 207.68193 302.31522 201.66211 290.45703 z M 298.03711 295.87695 C 297.55246 301.54675 296.95541 307.80228 296.21094 316.1543 C 294.98121 329.95027 292.0001 351.94789 289.32422 370.74219 L 291.77734 306.29492 C 294.27593 303.28723 296.2663 299.73835 298.03711 295.87695 z " /></g><g
     inkscape:groupmode="layer"
     id="layer4"
     inkscape:label="Pattern"
     style="display:none"
     sodipodi:insensitive="true"><g
       id="g82"
       transform="translate(-2.2079118,-8.8316467)"
       style="display:inline"><path
         style="color:#000000;fill:#bd9bae;fill-opacity:1;-inkscape-stroke:none"
         d="m 36.408203,84.765625 -29.8066405,28.333985 1.515625,1.5957 29.8066405,-28.335935 z m 0,15.835935 -29.8066405,28.33594 1.515625,1.59375 29.8066405,-28.33594 z m 0,15.83594 -29.8066405,28.33594 1.515625,1.59375 29.8066405,-28.33399 z m 0,15.83594 -29.8066405,28.33593 1.515625,1.59375 29.8066405,-28.33398 z m 0,15.83593 -29.8066405,28.33594 1.515625,1.59375 29.8066405,-28.33398 z m 0,15.83594 -29.8066405,28.33594 1.515625,1.59375 29.8066405,-28.33398 z m 0,15.83594 -29.8066405,28.33594 1.515625,1.59375 29.8066405,-28.33399 z m 0,15.83594 -29.8066405,28.33593 1.515625,1.59375 29.8066405,-28.33398 z m 0,15.83789 -29.8066405,28.33398 1.515625,1.59375 29.8066405,-28.33398 z m 0,15.83594 -29.8066405,28.33398 1.515625,1.59375 29.8066405,-28.33398 z m 0,15.83593 -29.8066405,28.33399 1.515625,1.59375 29.8066405,-28.33399 z m 0,15.83594 -29.8066405,28.33398 1.515625,1.59571 29.8066405,-28.33594 z m 0,15.83594 -29.8066405,28.33398 1.515625,1.59571 29.8066405,-28.33594 z m 0,15.83594 -29.8066405,28.33398 1.515625,1.5957 29.8066405,-28.33593 z m 0,15.83593 -29.8066405,28.33399 1.515625,1.5957 29.8066405,-28.33594 z"
         id="path76" /><path
         style="color:#000000;fill:#e6d1e7;-inkscape-stroke:none"
         d="m 36.408203,76.847656 -29.8066405,28.333984 1.515625,1.5957 29.8066405,-28.335934 z m 0,15.835938 -29.8066405,28.335936 1.515625,1.59375 29.8066405,-28.335936 z m 0,15.835936 -29.8066405,28.33594 1.515625,1.59375 29.8066405,-28.33399 z m 0,15.83594 -29.8066405,28.33594 1.515625,1.59375 29.8066405,-28.33399 z m 0,15.83594 -29.8066405,28.33593 1.515625,1.59375 29.8066405,-28.33398 z m 0,15.83593 -29.8066405,28.33594 1.515625,1.59375 29.8066405,-28.33398 z m 0,15.83594 -29.8066405,28.33594 1.515625,1.59375 29.8066405,-28.33399 z m 0,15.83594 -29.8066405,28.33594 1.515625,1.59375 29.8066405,-28.33399 z m 0,15.83594 -29.8066405,28.33593 1.515625,1.59375 29.8066405,-28.33398 z m 0,15.83789 -29.8066405,28.33398 1.515625,1.59375 29.8066405,-28.33398 z m 0,15.83593 -29.8066405,28.33399 1.515625,1.59375 29.8066405,-28.33399 z m 0,15.83594 -29.8066405,28.33399 1.515625,1.5957 29.8066405,-28.33594 z m 0,15.83594 -29.8066405,28.33398 1.515625,1.59571 29.8066405,-28.33594 z m 0,15.83594 -29.8066405,28.33398 1.515625,1.5957 29.8066405,-28.33593 z m 0,15.83593 -29.8066405,28.33399 1.515625,1.5957 29.8066405,-28.33594 z"
         id="path66" /></g></g></svg>
