<?xml version="1.0" encoding="UTF-8" standalone="no"?>
<!-- Created with Inkscape (http://www.inkscape.org/) -->

<svg
   version="1.1"
   id="svg171226"
   width="400"
   height="400"
   viewBox="0 0 400 400"
   sodipodi:docname="tosCaptainGarth.svg"
   inkscape:version="1.3.1 (91b66b0, 2023-11-16)"
   xml:space="preserve"
   xmlns:inkscape="http://www.inkscape.org/namespaces/inkscape"
   xmlns:sodipodi="http://sodipodi.sourceforge.net/DTD/sodipodi-0.dtd"
   xmlns="http://www.w3.org/2000/svg"
   xmlns:svg="http://www.w3.org/2000/svg"><defs
     id="defs171230" /><sodipodi:namedview
     id="namedview171228"
     pagecolor="#ffffff"
     bordercolor="#666666"
     borderopacity="1.0"
     inkscape:showpageshadow="2"
     inkscape:pageopacity="0.0"
     inkscape:pagecheckerboard="0"
     inkscape:deskcolor="#d1d1d1"
     showgrid="false"
     inkscape:zoom="2.1175"
     inkscape:cx="200"
     inkscape:cy="200.23613"
     inkscape:window-width="1920"
     inkscape:window-height="1145"
     inkscape:window-x="2081"
     inkscape:window-y="25"
     inkscape:window-maximized="0"
     inkscape:current-layer="g171234"><inkscape:page
       x="0"
       y="0"
       id="page171232"
       width="400"
       height="400"
       margin="0"
       bleed="0" /></sodipodi:namedview><g
     inkscape:groupmode="layer"
     id="layer1"
     inkscape:label="Neck"
     style="display:none"
     sodipodi:insensitive="true"><path
       d="m 213.63253,151.29441 -13.54934,47.14666 c 0,0 12.42667,24.85333 21.464,31.49067 9.03734,6.636 27.26177,81.92378 38.13511,83.33578 l 3.67066,3.67066 2.82534,-2.824 4.63122,-4.79916 5.42363,-65.08347 -1.25704,-9.598 15.55375,-22.84715 z"
       style="display:inline;fill:#cd976d;fill-opacity:1;fill-rule:nonzero;stroke:none;stroke-width:1.33333"
       id="path171974"
       sodipodi:nodetypes="ccccccccccc" /><path
       d="m 200.08306,198.44081 c 0,0 12.86667,21.57066 17.836,27.06399 4.96933,5.49334 32.696,1.83067 40.54267,4.18534 6.33866,1.90133 13.09866,2.66533 15.47066,2.89066 l 16.59734,-20.79333 -76.89734,-60.49333 z"
       style="display:inline;opacity:0.199997;fill:#000000;fill-opacity:1;fill-rule:nonzero;stroke:none;stroke-width:1.33333"
       id="path171984" /><path
       d="m 211.64493,149.52841 c -1.01067,4.99733 -6.2,23.82533 -7.36934,28.788 -0.956,4.064 -1.95733,8.11866 -3.072,12.14266 -0.516,1.85867 -1.07466,3.70267 -1.63333,5.54934 -0.18666,0.616 -0.95466,1.86266 -0.88133,2.47466 0.02,0.16934 0.80667,2.38267 1.11067,1.93733 3.68799,-5.38666 5.03733,-14.18666 7.12666,-20.38133 1.49067,-4.41866 7.06133,-22.68666 8.552,-27.104 0,0 -3.83333,-3.40666 -3.83333,-3.40666"
       style="display:inline;fill:#000000;fill-opacity:1;fill-rule:nonzero;stroke:none;stroke-width:1.33333"
       id="path171994" /><path
       d="m 293.27599,213.31907 c -2.83733,2.044 -16.28266,19.912 -18.592,22.53067 -1.87866,2.13066 -4.41733,10.85066 -7.52933,10.948 -2.104,0.0653 -1.74133,-3.72534 -1.19333,-5.332 0.26266,-0.76934 21.288,-30.90934 21.288,-30.90934 0,0 6.02666,2.76267 6.02666,2.76267"
       style="display:inline;fill:#000000;fill-opacity:1;fill-rule:nonzero;stroke:none;stroke-width:1.33333"
       id="path171998" /></g><g
     id="g171234"
     inkscape:groupmode="layer"
     inkscape:label="Page 1"
     style="display:inline"><path
       id="path171958"
       style="fill:#404d78;fill-opacity:1;fill-rule:nonzero;stroke:none;stroke-width:1.33333"
       d="m 195.0834,195.2238 c -3.44969,2.89809 -14.2224,12.11129 -11.09121,9.93245 l -8.86338,3.97229 -41.15368,19.71697 -39.066927,21.83027 -11.855469,6.04297 -6.742187,6.27734 -9.458985,6.82422 C 55.01682,282.27117 47.655526,295.12419 41.880859,310.73242 l -15.1875,70.92383 c 0,0 0.758893,0.38765 1.269532,0.65039 L 25.664062,400 385.68945,399.9668 384.67969,369.10547 383.81055,342.5332 c -1.52533,-11.00264 -6.3445,-45.00029 -8.67383,-52.57226 -2.78933,-9.0653 -4.29201,-11.15775 -12.44531,-16.03906 -8.15467,-4.88133 -35.08886,-19.29515 -45.54883,-21.61915 -10.46131,-2.32531 -26.22231,-12.14267 -36.53096,-17.24749 -1.76647,-1.13437 -6.45035,-6.32463 -7.44075,-5.09684 -2.17699,2.86764 -1.82234,8.04386 -3.34522,12.04293 l 2.74857,11.77015 -1.91602,15.57032 -3.11328,23.83203 -5.26953,19.40039 c -7.03034,-18.29356 -21.5817,-37.16856 -26.16848,-53.62367 -1.79271,-6.4314 1.40257,-12.7407 1.95995,-18.12942 -2.77081,-1.69332 -12.06084,-7.61598 -16.51803,-10.88949 -9.03864,-6.63731 -23.86201,-30.29263 -23.86201,-30.29263 -0.49631,-1.4612 -1.67366,-3.22 -2.60342,-4.41521 z"
       sodipodi:nodetypes="cccccccccccccccccccccccccscccc" /><path
       d="m 367.95412,278.712 c 0,0 3.18922,29.08486 1.20388,48.35286 0,0 3.24146,-23.91152 0.76412,-46.48086 z"
       style="fill:#000000;fill-opacity:1;fill-rule:nonzero;stroke:none;stroke-width:1.33333"
       id="path172006"
       sodipodi:nodetypes="cccc" /><path
       id="path172010"
       style="fill:#000000;fill-opacity:1;fill-rule:nonzero;stroke:none;stroke-width:1.33333"
       d="m 194.46534,193.12152 c -0.27267,-0.084 -0.55614,-0.0926 -1.30273,0.0684 -0.74659,0.16099 -1.73907,3.43814 -8.22982,10.52281 -1.68314,0.69978 -6.56057,3.04575 -11.68874,4.72453 -4.77131,1.56194 -26.50367,11.7633 -47.20889,23.74051 -16.7906,9.71194 -32.650944,18.88602 -36.656254,20.38868 -8.445279,3.16661 -14.804245,9.80901 -15.878906,11.40234 -1.077327,0.63733 -5.047715,1.38449 -8.318359,3.61914 -9.855814,5.31254 -21.475295,23.52663 -28.478516,46.72656 C 30.984416,333.25914 24.036079,390.94617 23.314453,400 l 4.236328,-0.21484 1.59375,-21.0918 c 0.365294,-2.42062 5.764481,-38.15123 12.53125,-63.92383 5.386858,-20.51691 17.764319,-36.14581 24.84961,-43.48242 7.085291,-7.3366 23.557399,3.63856 27.609375,9.20117 0.306661,-1.03467 -0.155262,-2.13012 -0.669922,-3.07812 -2.467988,-4.544 -6.36441,-7.99576 -10.761719,-10.6211 -1.478661,-0.88133 -3.620256,-1.56847 -4.65625,-2.98047 -0.306667,-0.42 11.426615,-7.80136 12.474609,-8.19336 4.258643,-1.59728 19.498696,-10.41253 37.142576,-20.61914 19.56654,-11.31721 42.15746,-21.71031 46.41983,-23.41239 3.25125,-1.29831 7.74298,-3.1654 8.71231,-3.27873 -0.42533,0.84796 1.20709,1.64096 1.9538,4.13644 1.05537,3.52702 2.92705,6.37485 5.90039,11.46679 3.57333,7.92132 11.96513,18.50705 21.08984,24.7793 6.40026,4.39946 15.92751,8.87674 20.54883,11.3418 -0.6328,0.81116 -1.36699,1.74894 -2.23633,2.83203 -2.02142,2.51848 -5.64273,5.28915 -6.95736,6.52868 -3.49053,3.29109 -6.13053,8.54163 -6.13053,8.54163 l -0.73632,0.97852 c 10.97839,7.89716 44.83218,35.27243 46.74414,37.49804 11.32038,-16.50417 20.33702,-31.76298 30.94159,-48.75232 -1.08924,-1.28762 -2.90656,-3.41298 -4.49804,-4.28711 -2.44837,-1.34475 -4.55675,-2.21622 -6.36152,-3.28088 -1.46844,-0.86625 -3.59868,-3.03877 -5.24024,-4.96094 -1.26821,-1.485 -2.08832,-2.57199 -2.48242,-3.10156 0.58203,-2.73132 3.64981,-7.77549 4.93945,-10.21289 1.3,-2.49333 -4.62076,-10.14145 -4.62076,-10.14145 0,0 8.28746,6.16791 11.54655,8.15512 10.93171,6.66556 19.85781,12.18918 31.09375,15.81445 9.48794,3.06 43.60868,18.04292 50.50195,25.63086 5.13194,5.64933 10.78207,42.52184 13.19141,61.26172 1.25109,19.08247 0.98799,38.2673 0.78124,57.4336 h 4.79102 c -0.76823,-19.14445 -1.26268,-38.46158 -2.30469,-57.4336 -0.45527,-8.28915 -5.56489,-50.57199 -14.0957,-63.38086 -6.21377,-9.32987 -41.54929,-23.28338 -51.86523,-26.61132 -8.256,-2.66267 -15.86906,-7.01273 -23.6504,-10.7754 -5.245,-2.73054 -10.37522,-6.94005 -15.37608,-10.09928 -1.39748,-0.88284 -6.48503,-5.81 -7.94631,-4.67267 -0.99155,1.19616 -1.59083,6.85778 -3.84557,13.91844 1.15651,2.9545 2.01611,5.24513 2.42773,6.5 0.23725,0.7233 0.53292,2.38689 0.72852,3.78125 0.1956,1.39436 0.21679,3.11914 0.21679,3.11914 -0.10043,0.55687 -0.38534,1.74373 -0.58593,3.09766 -1.65731,11.18576 -3.09511,19.96832 -4.60938,31.27148 -0.6842,5.1072 -1.60429,8.78891 -4.33789,21.29688 -1.99355,-4.34719 -21.064,-42.74448 -25.16797,-50.69141 -0.6443,-6.64078 1.33286,-13.00736 2.34766,-19.47852 -6.41459,-3.61638 -12.39305,-8.40321 -17.23685,-13.14453 -17.88666,-17.50809 -25.72425,-32.90144 -27.79,-33.54254 z m -0.49761,5.0001 c 0,0 12.77801,18.30343 25.65675,30.71432 4.73124,4.55937 10.54841,9.15157 16.65091,12.82617 -1.39531,4.8027 -2.2404,10.09332 -2.19727,15.53711 -12.59569,-4.35036 -18.93153,-9.4108 -29.24023,-19.30078 -4.84011,-4.64356 -8.2615,-10.07507 -11.65174,-15.64581 -4.9704,-8.1672 -7.4324,-13.6728 -7.0924,-15.3288 4.31841,-4.72404 7.87398,-8.80221 7.87398,-8.80221 z m 79.11795,35.01344 c 1.11339,1.44198 4.72186,6.9837 4.73463,7.79267 0.0146,0.92664 -3.57654,5.83449 -4.10547,7.49805 -0.42915,-1.84696 -1.56095,-4.92458 -2.42382,-7.13672 z m 1.6858,22.23994 c 0.3482,0.43085 0.72911,0.89314 1.14063,1.375 1.71128,2.0038 3.81614,4.27687 5.87305,5.49023 2.42691,1.4317 4.63429,1.65463 6.30816,2.96066 0.6501,0.50725 1.10132,0.91012 2.71351,2.70694 l -24.9748,39.53748 c 1.65221,-6.29749 3.24088,-13.95094 5.06836,-27.34375 0.84776,-6.21278 2.77455,-18.3085 3.87109,-24.72656 z m -40.2207,5.82617 c 0.0266,0.0161 0.13081,0.0664 0.15625,0.082 6.06226,12.18081 13.01891,27.11672 24.47852,48.14258 l -39.46094,-30.95117 c 0.9528,-1.23409 2.40672,-4.74041 5.0856,-7.26625 1.58714,-1.49644 5.15016,-4.23461 7.1937,-6.78063 0.9906,-1.23417 1.87776,-2.36569 2.54687,-3.22656 z M 108.375,307.01172 c 0,0 5.94427,14.39495 9.68945,31.21289 0.95212,4.27551 3.29106,21.48235 3.95313,32.79492 0.33951,5.80118 1.95516,15.70991 1.26953,28.98047 h 3.12305 c 0.49001,-13.11164 -1.26531,-40.95942 -1.54688,-46.07617 -0.01,-2.89872 -0.61222,-7.04787 -1.2168,-9.88281 -2.42296,-11.36182 -8.48303,-25.92127 -15.27148,-37.0293 z m 260.83929,19.08776 c -1.74468,11.4246 -2.74341,20.79488 -4.07562,27.5099 0,0 -0.79074,29.05872 -2.08008,46.39062 h 5.57422 c 0.484,-9.21594 0.68004,-39.26333 0.66602,-42.79102 -0.0165,-4.16548 -0.10988,-10.89383 -0.0845,-31.1095 z"
       sodipodi:nodetypes="cscsccccscccssccccccscscscssccccssscccscccccssccsccssccsccccccsccsscccsccccsssccscccccsscccscccsccccccscc" /><path
       id="path172060"
       style="opacity:0.199997;fill:#000000;fill-opacity:1;fill-rule:nonzero;stroke:none;stroke-width:1.33333"
       d="m 193.40675,195.10599 c -3.1294,3.49104 -6.2588,6.98207 -9.3882,10.47311 -3.11877,1.60039 -9.36816,3.9089 -9.36816,3.9089 l -41.1543,18.63895 -38.587887,22.54883 -11.855469,6.04492 -6.742187,6.27539 -9.458985,6.82422 -8.589843,6.69922 L 39.875,314.20312 c -6.380059,25.80801 -10.962658,50.65784 -13.390625,77.78321 L 26.677734,400 H 56 c 21.624681,-77.54881 34.366445,-92.52205 41.105469,-98.36719 6.739021,-5.84514 15.613161,-9.92747 23.285151,-12.71679 67.72261,-24.62665 82.20555,-28.04132 103.58226,-30.40625 1.92704,-0.33827 6.09793,0.15648 7.30056,-1.67969 1.30793,-1.99693 2.77878,-10.57594 -0.98047,-14.76953 -3.62443,-4.0432 -10.09053,-9.81278 -16.92969,-18.19727 -7.59822,-9.31508 -13.70857,-13.91739 -15.79427,-24.58355 z"
       sodipodi:nodetypes="cccccccccccccsccssscc" /><path
       d="m 169.7401,324.02901 c -9.71638,-1.34689 -23.8157,-0.32052 -34.32871,3.82648 -6.02933,2.37836 -9.91634,8.95213 -12.6886,12.15458 l 1.21181,11.99828 c 0,0 -0.35465,24.65548 1.52584,47.99165 h 23.71403 c 1.04,-22.69333 2.84211,-40.6951 3.9943,-44.75728 1.4547,-5.12873 5.37127,-25.01181 16.57133,-31.21371 z"
       style="opacity:0.199997;fill:#000000;fill-opacity:1;fill-rule:nonzero;stroke:none;stroke-width:1.33333"
       id="path172192"
       sodipodi:nodetypes="csccccsc" /><path
       style="opacity:0.2;fill:#000000;fill-opacity:1;stroke:none;stroke-width:0.911631px;stroke-linecap:butt;stroke-linejoin:miter;stroke-opacity:1"
       d="m 368.9541,353.5484 c 0,0 6.16873,24.64853 6.43777,33.1715 0.26904,8.52297 0.42919,13.2801 0.42919,13.2801 H 366.379 Z"
       id="path2"
       sodipodi:nodetypes="czccc" /><path
       style="color:#000000;fill:#000000;-inkscape-stroke:none"
       d="m 85.539062,270.76953 c 0,0 -2.289824,0.96639 -4.949218,2.39649 -2.659394,1.43009 -5.697361,3.1416 -7.72461,5.68164 C 60.732227,294.04969 58.841876,310.54784 55.041016,326.98828 49.3786,351.48078 45.871094,400 45.871094,400 h 5.982422 c 0,0 3.643493,-48.34724 9.033203,-71.66016 3.894564,-16.84575 5.669647,-31.96966 16.667968,-45.75 0.777745,-0.97447 3.489099,-2.85654 5.876954,-4.14062 2.387855,-1.28408 5.965708,-2.82982 5.965708,-2.82982 z"
       id="path5"
       sodipodi:nodetypes="csssccssscc" /><path
       style="color:#000000;fill:#c2c2c2;-inkscape-stroke:none"
       d="m 85.0809,272.19951 c 0,0 -1.404263,0.4416 -4.0184,1.84736 -2.614137,1.40577 -5.597018,3.14472 -7.416016,5.42383 C 61.702592,294.43579 59.832103,310.70685 56.015625,327.21484 50.39866,351.51074 46.867187,400 46.867187,400 h 3.990235 c 0,0 3.619527,-48.37525 9.054687,-71.88477 3.878947,-16.77819 5.673892,-32.13115 16.861328,-46.14843 0.985996,-1.23541 3.750483,-3.09003 6.183594,-4.39844 2.433112,-1.30842 5.882279,-2.70146 5.882279,-2.70146 z"
       id="path6"
       sodipodi:nodetypes="csssccssscc" /><path
       style="color:#000000;fill:#000000;-inkscape-stroke:none"
       d="m 308.99609,312.25 -0.98632,5.91797 c 0.78253,0.13042 1.56031,0.16853 2.9414,0.26172 1.38109,0.0932 3.18113,0.20279 5.27539,0.32812 4.18852,0.25066 9.55233,0.56863 15.00977,0.95899 5.45744,0.39036 11.01078,0.85422 15.52929,1.38867 4.51852,0.53445 8.32711,1.37359 8.87305,1.62305 8.48937,3.87899 13.40645,12.38506 13.40645,12.38506 l 0.32882,-8.73274 c 0,0 -0.69632,-4.29118 -11.24113,-9.10936 -2.54937,-1.16486 -5.9775,-1.5709 -10.66211,-2.125 -4.6846,-0.55409 -10.30139,-1.02223 -15.80664,-1.41601 -5.50524,-0.39378 -10.89457,-0.71241 -15.08008,-0.96289 -2.09275,-0.12524 -3.88505,-0.23358 -5.22851,-0.32422 -1.34347,-0.0906 -2.42334,-0.20402 -2.35938,-0.19336 z M 200.16602,317 c 0,0 -13.96981,0.34753 -29.3125,1.43164 -7.67135,0.54206 -15.68899,1.26585 -22.53711,2.23633 -6.84813,0.97047 -12.32947,1.97961 -15.92969,3.9414 -4.53342,2.4703 -7.89246,7.31579 -10.52344,11.55079 -2.63098,4.235 -1.63974,4.24854 -1.63974,4.24854 l 2.7413,6.23388 c 0,0 1.58169,-3.43002 3.9961,-7.31641 2.41441,-3.88639 5.84679,-8.11219 8.29687,-9.44726 1.77819,-0.96895 7.2868,-2.3323 13.90039,-3.26954 6.61359,-0.93723 14.5288,-1.65716 22.11719,-2.19335 C 186.45218,323.34363 200.31445,323 200.31445,323 Z"
       id="path10"
       sodipodi:nodetypes="ccsssscccsssssccssssccsssscc" /><path
       style="color:#000000;fill:#c2c2c2;-inkscape-stroke:none"
       d="m 308.83203,313.23633 -0.6582,3.94531 c 0.64145,0.10691 1.47088,0.15724 2.8457,0.25 1.37482,0.0928 3.17162,0.20281 5.26563,0.32813 4.18801,0.25062 9.55803,0.56805 15.02343,0.95898 5.46541,0.39093 11.02998,0.85486 15.57618,1.39258 4.54619,0.53772 8.29622,1.29181 9.16992,1.70703 8.11338,3.85589 11.8581,10.47302 12.1575,10.89217 l 0.51998,-5.98156 c 0,0 -0.81314,-3.88568 -11.01537,-8.54733 -2.21547,-1.0123 -5.70636,-1.49215 -10.36328,-2.04297 -4.65693,-0.55082 -10.26249,-1.01694 -15.75977,-1.41015 -5.49728,-0.39322 -10.88431,-0.71239 -15.07031,-0.9629 -2.09301,-0.12525 -3.8866,-0.23315 -5.23633,-0.32421 -1.34974,-0.0911 -2.37796,-0.19223 -2.45508,-0.20508 z M 200.18945,318 c 0,0 -13.95057,0.34753 -29.26562,1.42969 -7.65753,0.54108 -15.65776,1.26358 -22.4668,2.22851 -6.80903,0.96494 -12.29524,2.03376 -15.5918,3.83008 -4.18619,2.28109 -7.66614,6.95673 -10.15234,11.19922 -0.79847,1.36253 -0.77364,1.78681 -0.77364,1.78681 l 1.38338,5.93687 c 0,0 0.33819,-1.66786 2.7887,-5.61235 2.4505,-3.94449 5.87066,-8.27456 8.66797,-9.79883 2.08186,-1.13442 7.5856,-2.43808 14.23828,-3.38086 6.65268,-0.94278 14.58528,-1.664 22.1875,-2.20117 C 186.40952,322.34363 200.28906,322 200.28906,322 Z"
       id="path12"
       sodipodi:nodetypes="ccsssssccsssssccssssccsssscc" /><path
       style="color:#000000;fill:#000000;-inkscape-stroke:none"
       d="m 256.00977,310.26758 c -11.61335,-0.0509 -23.32577,8e-5 -32.58985,0.2832 -4.63203,0.14156 -8.64754,0.33838 -11.7793,0.61914 -1.56587,0.14038 -2.90744,0.30065 -4.03906,0.49805 -1.13162,0.1974 -1.97523,0.33064 -3.03125,0.89648 -4.98127,2.66909 -8.56463,7.57277 -10.08594,12.82813 -0.33855,1.16952 -0.1991,1.3716 -0.20507,2.12304 -0.006,0.75145 0.0116,1.69188 0.0488,2.82422 0.0744,2.26468 0.22625,5.28769 0.43165,8.82813 0.4108,7.08088 1.03696,16.21846 1.68945,25.26367 C 197.75417,382.52206 199.166,400 199.166,400 h 5.98046 c 0,0 -1.41002,-17.93874 -2.71289,-36 -0.65143,-9.03063 -1.27592,-18.15281 -1.68359,-25.17969 -0.20383,-3.51344 -0.35251,-6.5063 -0.42383,-8.67773 -0.0357,-1.08572 -0.0517,-1.96917 -0.0469,-2.57813 0.005,-0.60895 0.19903,-1.30421 -0.0332,-0.50195 1.07226,-3.70411 3.91803,-7.47282 7.15821,-9.20898 -0.24524,0.1314 0.35963,-0.12383 1.22851,-0.2754 0.86888,-0.15156 2.08044,-0.30052 3.54297,-0.43164 2.92507,-0.26223 6.86217,-0.46008 11.42774,-0.59961 9.13112,-0.27905 20.80089,-0.33004 32.3789,-0.27929 11.57802,0.0507 23.06989,0.20326 31.88281,0.33008 4.40646,0.0634 8.1413,0.11974 10.89063,0.15429 2.74933,0.0346 4.15598,0.0764 5.14062,0.0156 0.76565,-0.0473 1.92435,0.4496 3.07227,1.63672 1.14792,1.18711 2.11536,2.94973 2.4668,4.27929 -0.0799,-0.30212 0.2142,1.6958 0.36132,4.10743 0.14713,2.41162 0.29295,5.64803 0.4336,9.40429 0.2813,7.51253 0.54337,17.11823 0.76562,26.58008 0.44451,18.9237 0.73438,37.22464 0.73438,37.22464 h 6 c 0,0 -0.29113,-18.41191 -0.73633,-37.36521 -0.2226,-9.47666 -0.48431,-19.09907 -0.76758,-26.66407 -0.14163,-3.7825 -0.2872,-7.0493 -0.43945,-9.54492 -0.15225,-2.49562 -0.16302,-3.80839 -0.55078,-5.27539 -0.65887,-2.49267 -2.0307,-4.92593 -3.95508,-6.91602 -1.92438,-1.99008 -4.57357,-3.65338 -7.75391,-3.45703 0.12669,-0.008 -1.96052,0.009 -4.69531,-0.0254 -2.73478,-0.0344 -6.47152,-0.0908 -10.88086,-0.15429 -8.81867,-0.12691 -20.32806,-0.27918 -31.9414,-0.33008 z"
       id="path8"
       sodipodi:nodetypes="ssssssssssccssscccsssssssscsssccssssscssss" /><path
       style="color:#000000;fill:#c2c2c2;-inkscape-stroke:none"
       d="m 256.00391,311.26758 c -11.60746,-0.0509 -23.31278,-0.001 -32.55469,0.28125 -4.62096,0.14122 -8.62144,0.33951 -11.71875,0.61719 -1.54865,0.13883 -2.8692,0.29656 -3.95703,0.48632 -1.08783,0.18977 -1.89133,0.34529 -2.73047,0.79493 -4.69109,2.5136 -8.15315,7.22779 -9.59961,12.2246 -0.24342,0.84089 -0.15828,1.12387 -0.16406,1.85157 -0.006,0.72769 0.0119,1.65863 0.0488,2.7832 0.0739,2.24914 0.22455,5.26679 0.42969,8.80273 0.41028,7.07189 1.03715,16.20723 1.68946,25.25 C 198.75186,382.44493 200.16209,400 200.16209,400 h 3.98633 c 0,0 -1.40968,-17.86162 -2.71289,-35.92773 -0.65161,-9.03306 -1.27541,-18.15748 -1.6836,-25.19336 -0.20409,-3.51794 -0.35395,-6.51615 -0.42578,-8.70313 -0.0359,-1.09349 -0.0519,-1.98644 -0.0469,-2.61914 0.005,-0.6327 0.14491,-1.24707 0.008,-0.77344 1.14709,-3.96265 4.11417,-7.91889 7.64453,-9.81054 -0.0284,0.0152 0.61663,-0.2197 1.5293,-0.37891 0.91267,-0.15921 2.14719,-0.3107 3.62695,-0.44336 2.95952,-0.26532 6.90773,-0.46365 11.48438,-0.60352 9.15328,-0.27973 20.83015,-0.33006 32.41406,-0.27929 11.5839,0.0508 23.0787,0.20324 31.89258,0.33008 4.40694,0.0634 8.14371,0.11977 10.89062,0.15429 2.74691,0.0345 4.26699,0.0669 5.06641,0.0176 1.16809,-0.0721 2.57423,0.61851 3.85156,1.93945 1.27733,1.32095 2.31217,3.19534 2.71484,4.71875 -0.002,-0.007 0.2446,1.87711 0.39258,4.30274 0.14798,2.42562 0.29474,5.6671 0.43555,9.42773 0.28163,7.52128 0.54331,17.12943 0.76562,26.59375 C 312.44085,381.68061 312.73061,400 312.73061,400 h 4 c 0,0 -0.29125,-18.39341 -0.73633,-37.34178 -0.22254,-9.47418 -0.48269,-19.09413 -0.76562,-26.65039 -0.14147,-3.77813 -0.28806,-7.03791 -0.43946,-9.51953 -0.15139,-2.48162 -0.20971,-3.91184 -0.51953,-5.08398 -0.60763,-2.29882 -1.91206,-4.61836 -3.70703,-6.47461 -1.79497,-1.85626 -4.19476,-3.3258 -6.97266,-3.1543 -0.0585,0.004 -2.03232,0.011 -4.76953,-0.0234 -2.73721,-0.0344 -6.47591,-0.0909 -10.88476,-0.15429 -8.81772,-0.12689 -20.32419,-0.27921 -31.93164,-0.33008 z"
       id="path11"
       sodipodi:nodetypes="scssssccssccssssccsssssssscsssccssssscscss" /><path
       style="fill:#000000;stroke:none;stroke-width:1px;stroke-linecap:butt;stroke-linejoin:miter;stroke-opacity:1;fill-opacity:0.2"
       d="m 218.22924,279.37069 -1.43962,2.20177 37.85351,28.79237 3.38733,0.0847 z"
       id="path15" /><path
       style="fill:#000000;fill-opacity:0.2;stroke:none;stroke-width:1px;stroke-linecap:butt;stroke-linejoin:miter;stroke-opacity:1"
       d="m 202.47812,314.34496 c 0,0 -4.15725,1.39598 -5.42575,2.59011 -2.31243,2.17685 -4.27837,5.42594 -4.57291,8.5881 C 192.09955,329.60189 196.782,400 196.782,400 h 2.7322 l -4.74227,-74.1381 2.96392,-6.85936 1.77835,-1.94771 z"
       id="path16"
       sodipodi:nodetypes="csscccccc" /><path
       id="path14"
       style="display:inline;fill:#000000;fill-opacity:0.2;stroke:none;stroke-width:1px;stroke-linecap:butt;stroke-linejoin:miter;stroke-opacity:1"
       d="m 272.63556,231.61694 -5.38961,12.39464 c 0,0 0.56272,6.72088 0.41811,10.47865 -0.71144,18.48704 -6.58594,55.44922 -6.58594,55.44922 l 3.83291,0.36071 c 2.44389,-4.7287 5.23908,-11.60344 7.684,-19.71859 3.32644,-11.0411 5.6089,-33.575 5.6089,-33.575 l -4.67073,-4.21751 0.35938,-2.00976 5.38867,-9.70118 z m -1.87775,36.69947 -1.53711,13.83984 -3.60113,19.73304 z"
       sodipodi:nodetypes="ccsccsccccccccc" /><path
       style="color:#000000;fill:#000000;fill-opacity:0.2;-inkscape-stroke:none"
       d="m 188.33594,217.33398 c 0,0 -4.6583,3.00477 -15.29492,9.08008 -10.64651,6.08096 -34.44,19.64523 -48.82422,26.80664 -14.38131,7.15996 -37.320316,16.7461 -37.320316,16.7461 l 0.578125,1.38476 c 0,0 22.937531,-9.58168 37.410161,-16.78711 14.4697,-7.20397 38.25236,-20.76582 48.90039,-26.84765 10.65791,-6.08748 15.36328,-9.12305 15.36328,-9.12305 z"
       id="path17" /></g></svg>
