<?xml version="1.0" encoding="UTF-8" standalone="no"?>
<svg
   viewBox="0 0 400 400"
   version="1.1"
   xml:space="preserve"
   style="fill-rule:evenodd;clip-rule:evenodd;stroke-miterlimit:10;"
   id="svg49"
   sodipodi:docname="VulcanPriestessRobes.svg"
   inkscape:version="1.3.2 (091e20e, 2023-11-25)"
   width="400"
   height="400"
   xmlns:inkscape="http://www.inkscape.org/namespaces/inkscape"
   xmlns:sodipodi="http://sodipodi.sourceforge.net/DTD/sodipodi-0.dtd"
   xmlns:xlink="http://www.w3.org/1999/xlink"
   xmlns="http://www.w3.org/2000/svg"
   xmlns:svg="http://www.w3.org/2000/svg"><defs
   id="defs49">
        
    
            
            
            
            
            
            
            
            
            
            
            
            
            
            
            
            
            
            
            
            
            
            
            
            
            
            
            
            
            
            
            
            
            
        
                
            
                
            
                
            
                
            
                
            
                
            
                
            
                
            
                
            
                
            
                
            
                
            
                
            
                
            
                
            
                
            
                
            
                
            
                
            
                
            
                
            
                
            
                
            
                
            
                
            
                
            
                
            
                
            
                
            
                
            
                
            
                
            
                
            
                    
                
                    
                
                    
                
                    
                
                    
                
                    
                
                    
                
                    
                
                    
                
                    
                
                    
                
                    
                
                    
                
                    
                
                    
                </defs><sodipodi:namedview
   id="namedview49"
   pagecolor="#ffffff"
   bordercolor="#666666"
   borderopacity="1.0"
   inkscape:showpageshadow="2"
   inkscape:pageopacity="0.0"
   inkscape:pagecheckerboard="0"
   inkscape:deskcolor="#d1d1d1"
   showgrid="false"
   inkscape:zoom="2.3975"
   inkscape:cx="200"
   inkscape:cy="200"
   inkscape:window-width="2032"
   inkscape:window-height="1172"
   inkscape:window-x="1938"
   inkscape:window-y="138"
   inkscape:window-maximized="0"
   inkscape:current-layer="layer1" />
    
<g
   inkscape:groupmode="layer"
   id="layer2"
   inkscape:label="Neck"
   style="display:none"><path
     d="m 274.20465,225.60077 c 0,0 -3.22133,8.19865 -4.97732,11.71197 -1.58266,3.164 12.63863,7.32132 14.38663,8.00798 4.48932,1.76667 6.57998,2.332 7.84265,7.16665 1.04399,4.00133 1.31999,8.29198 1.19333,12.41464 -0.23734,7.69865 -4.24799,17.12262 -10.30398,21.98928 -4.95865,3.98399 -13.33996,5.26665 -19.58261,6.93865 -7.95865,2.13066 -15.6173,2.91999 -23.85328,2.91999 -4.38532,0 -8.59198,-0.18533 -12.92663,-0.61733 -5.63732,-0.56133 -12.25331,0.376 -17.34929,-2.612 -6.59332,-3.86665 -12.90264,-8.74131 -19.33595,-12.95063 -5.39599,-3.53199 -10.79198,-7.06265 -16.1893,-10.59331 -0.49066,-0.32133 -6.12932,-3.40266 -6.06665,-3.97065 l 4.09866,-37.47724 c 0,0 12.0053,-4.39199 14.93329,-8.19865 2.928,-3.80532 16.6893,-19.03062 21.07995,-32.79192 4.39199,-13.7613 4.68532,-31.62259 4.68532,-31.62259 l 69.09983,26.35194 z"
     style="clip-rule:evenodd;fill:#cd976d;fill-rule:nonzero;stroke-width:1.33333;stroke-miterlimit:10"
     id="path3" /><path
     d="m 207.94748,182.68754 c -0.008,0.0453 -0.0147,0.0787 -0.0147,0.0787 -0.592,3.26933 -1.67733,6.14532 -3.11866,8.74265 l -2.87999,8.10798 c -3.96399,4.80265 -9.03998,15.21462 -18.42262,23.5466 -9.30264,8.26132 -23.84394,13.49064 -36.21458,21.17328 -10.01864,6.22265 13.37864,21.08128 17.79063,21.88128 11.0373,2 20.53595,-7.64665 31.38792,-7.71865 8.55998,-0.0573 16.28396,7.04132 23.46127,11.03331 1.50667,0.83733 15.56796,9.02264 16.30663,5.06532 0.29333,-1.57866 -4.00399,-5.16132 -4.89732,-6.11065 -3.93333,-4.17466 -8.27865,-8.15865 -11.73331,-12.7453 -2.71066,-3.60133 -4.66798,-8.11465 -3.87865,-12.55197 0.69333,-3.89866 3.43732,-7.18932 6.70798,-9.42131 14.5133,-9.90264 33.74658,9.79064 46.88522,0.824 4.30665,-2.93866 5.52798,-10.84797 7.58664,-15.35996 2.00533,-4.39333 4.19333,-8.71198 6.28666,-13.06397 l -69.56916,-54.87453 -5.49066,30.84792 z"
     style="clip-rule:evenodd;opacity:0.2;fill-rule:nonzero;stroke-width:1.33333;stroke-miterlimit:10"
     id="path4" /><path
     d="m 202.26083,201.47683 c 1.444,-2.592 2.73866,-5.26132 3.86532,-7.99865 1.61733,-3.92932 2.912,-7.98531 4.09599,-12.06397 1.29067,-4.45199 3.76399,-24.06127 5.25599,-28.47993 0,0 -3.83332,-3.40666 -3.83332,-3.40532 -1.01067,4.99598 -3.35066,25.12527 -4.12799,30.15325 -0.51734,3.34 -1.75067,6.53999 -3.84799,10.98798 -1,2.12399 -1.37467,4.43465 -2.42266,6.55198 -1.392,2.81599 -3.20533,5.39199 -5.07466,7.90665 -0.768,1.03333 -2.01466,2.50266 -1.48266,3.89332 1.08533,2.83999 2.68799,0.192 3.57999,-1.10933 1.428,-2.08266 2.76266,-4.22932 3.99199,-6.43598"
     style="clip-rule:evenodd;fill-rule:nonzero;stroke-width:1.33333;stroke-miterlimit:10"
     id="path8" /><path
     d="m 285.86595,207.63814 c -0.0107,-0.004 -0.12533,0.15067 -0.13333,0.16134 -3.98533,5.21865 -6.39865,12.18263 -9.17865,18.08129 -1.24533,2.64132 -2.55199,5.26132 -3.77465,7.91464 -1.97333,4.28532 -5.53066,8.92398 -4.21199,13.91197 0.204,0.77333 1.89599,8.10398 1.39466,7.93998 -4.60399,-1.516 -4.92132,-10.64531 -4.35866,-14.4573 0.132,-0.89866 14.50263,-36.10924 14.50263,-36.10924 0,0 5.75866,2.55599 5.75999,2.55732"
     style="clip-rule:evenodd;fill-rule:nonzero;stroke-width:1.33333;stroke-miterlimit:10"
     id="path9" /></g><g
   inkscape:groupmode="layer"
   id="layer1"
   inkscape:label="Vulcan Robes"><path
     d="m 45.825,400 c 0,0 -2.858856,-38.71798 -2.269524,-58.0246 0.589332,-19.30661 8.19598,-53.27746 12.053303,-56.41078 14.953296,-12.1493 34.21593,-21.79728 65.543851,-37.60791 15.5462,-7.84554 34.71856,-12.16205 49.14554,-16.11649 15.65332,-4.29058 24.85161,-18.53542 24.85161,-18.53542 l 37.02397,27.44317 18.97503,11.32649 27.44746,8.95555 25.16127,-10.88797 20.20261,8.49198 c 0,0 26.3266,9.70798 31.15193,17.13196 4.82532,7.42398 16.50262,44.70122 16.79595,71.93048 0.12534,11.65331 2.35711,36.249 2.35711,36.249 L 374.853,400 Z"
     style="clip-rule:evenodd;fill:#c14242;fill-rule:nonzero;stroke-width:1.33333;stroke-miterlimit:10"
     id="path1"
     sodipodi:nodetypes="csccsccccccscccc" /><path
     id="path2"
     style="clip-rule:evenodd;fill:#000000;fill-opacity:1;fill-rule:nonzero;stroke-width:1.33333;stroke-miterlimit:10"
     d="m 367.07422,373.96094 c -5.6744,-16.90056 -8.26739,-20.63039 -10.48242,-27.21485 -0.59294,-1.76255 -1.13621,-3.59511 -1.63477,-5.44336 -0.003,-0.0119 -0.007,-0.0233 -0.01,-0.0351 -0.004,-0.0136 -0.006,-0.0274 -0.01,-0.041 -0.49646,-1.84561 -0.94967,-3.70664 -1.35547,-5.52539 -0.40894,-1.83283 -0.77151,-3.62366 -1.0918,-5.3164 -0.64058,-3.38549 -1.1075,-6.37774 -1.41406,-8.52344 -0.30654,-2.1456 -0.45312,-3.44531 -0.45312,-3.44531 0,0 -0.21925,0.84218 -0.42969,2.41601 -0.10522,0.78692 -0.2092,1.7573 -0.28125,2.89649 -0.0721,1.13918 -0.11204,2.44811 -0.0937,3.9121 0.0183,1.464 0.0959,3.08241 0.26172,4.84376 0.49746,5.28404 1.78809,11.84457 4.64258,19.31054 4.57023,11.95433 10.23139,26.45469 13.24906,36.51197 C 369.27238,392.6432 368.74,400 368.74,400 h 3.60136 c 0.15335,-2.51605 -0.0887,-7.66867 -0.93358,-12.18548 -0.59002,-3.15416 -1.25003,-4.7419 -1.64648,-5.84765 z M 377.27801,400 c 0.84502,-10.72553 -1.50092,-39.91008 -1.8115,-47.47357 -1.39614,-33.99947 -13.21544,-74.51572 -21.97275,-80.66503 -8.7573,-6.14798 -24.0956,-12.39655 -37.71289,-18.00586 -4.89865,-2.01866 -9.71534,-4.27933 -14.83398,-5.61133 -3.46666,-0.90133 -9.39944,-3.22425 -12.60743,-0.93359 0.85066,1.476 2.65499,1.56528 3.82032,2.61328 1.244,1.11867 1.65161,2.75642 2.09961,4.37109 2.21598,7.9773 -4.19153,18.0424 -7.60352,24.73438 -3.48266,6.82931 -5.41812,11.84498 -13.10742,14.93164 -9.25064,3.71465 -17.64814,2.81475 -27.27344,2.85742 -9.39596,0.0413 -17.46051,-5.24322 -25.75781,-9.2832 -9.53997,-4.64665 -18.56707,-9.27222 -26.48438,-16.26954 -6.16798,-5.45198 -12.05993,-11.38973 -17.78125,-17.26171 -4.55598,-4.67732 -8.09195,-10.36383 -11.97461,-15.5918 -1.90132,-2.55866 -3.37522,-3.57256 -6.61121,-4.44856 -0.44467,-0.12017 -1.80645,-0.10834 -1.35547,-0.19141 l 3.8e-4,-7e-5 c 3.15691,-0.58154 -6.69543,2.25872 -9.60742,3.51172 -8.21864,3.53999 -17.71442,4.76326 -25.7384,8.72591 -16.85461,8.32264 -36.865492,15.5052 -51.754774,27.05316 -4.871982,3.77865 -13.810996,6.7059 -17.672957,16.80621 C 41.012588,319.5683 40.866472,398.583 41.370632,400 h 5.125 c -1.046771,-66.23388 8.896001,-107.75328 11.189915,-111.00781 2.695056,-3.82366 7.312538,-6.80839 9.801863,-8.99372 14.350616,-12.59862 34.68804,-20.10572 51.64931,-28.69769 8.23731,-4.17332 16.6091,-8.0785 25.0664,-11.78516 4.00133,-1.75332 7.15189,-3.4158 11.17188,-0.64648 3.21466,2.216 4.7552,6.1802 7.14453,9.13086 4.81732,5.94664 10.61775,12.15457 16.26172,17.44922 6.21998,5.83464 12.47581,12.04667 18.95313,17.58398 8.0413,6.87465 20.84562,9.80591 30.79492,12.83789 8.5173,2.59466 15.34415,6.29907 24.32812,7.03907 4.99732,0.412 9.39214,-0.48408 14.05078,-2.52539 7.25332,-3.176 13.24941,-6.65811 18.66407,-12.2461 1.56665,-1.61733 4.18949,-3.30148 5.29882,-5.24414 1.1,-1.92533 1.32086,-4.90236 1.88086,-7.04101 1.22933,-4.69466 2.34658,-9.42262 3.22657,-14.19727 0.63466,-3.44799 1.35742,-7.05537 1.35742,-10.58203 9.07597,0.87867 45.70235,15.81137 55.84765,24.88867 10.1453,9.07597 17.76844,63.63003 18.6544,75.09862 0.44112,5.71036 2.56415,37.48176 2.34562,49.29229 z"
     sodipodi:nodetypes="cssscssscsssscsccscccsccccscccccccccssccscccsccccccccccccscccscc" /><path
     d="m 171.13262,234.15135 22.84556,-26.41053 c 0,0 25.18127,25.17994 29.27993,28.10793 4.09865,2.92799 29.1631,15.20154 36.64717,14.40351 6.72136,-0.71669 10.53303,-11.34761 10.53303,-11.34761 l 10.20765,2.21475 6.00932,37.91057 -24.74794,21.81862 -68.80649,-18.73862 -36.89191,-37.47724 z"
     style="clip-rule:evenodd;fill:#c14242;fill-rule:nonzero;stroke-width:1.33333;stroke-miterlimit:10"
     id="path5"
     sodipodi:nodetypes="ccssccccccc" /><path
     d="m 193.97818,207.74081 c 0.388,-0.26933 25.53727,26.77993 27.36926,29.3986 2.75733,3.93999 6.21732,5.88798 10.10798,8.67197 3.09332,2.21466 6.10532,4.25466 9.37731,6.14132 1.29333,0.74533 4.90665,2.19466 5.21865,3.80533 0.63067,3.24532 -4.44665,3.33199 -6.36932,3.50532 -7.25864,0.656 -13.59596,-1.35733 -20.51061,-3.65066 -3.79599,-1.25866 -8.34665,-4.19332 -12.2653,-4.20132 -0.42667,2.14266 1.22399,2.97733 2.60932,4.21066 4.15599,3.70399 8.66265,7.25198 13.83997,9.45864 11.2533,4.79732 23.64394,4.55999 35.54924,5.05332 -3.34132,4.10132 -10.75864,4.43465 -15.51996,4.64132 -6.91865,0.3 -15.71996,1.208 -22.44794,-0.34266 -5.38266,-1.24134 -11.07064,-3.94133 -16.04263,-6.51332 -5.87732,-3.04266 -10.67997,-7.26798 -17.71462,-4.90666 -1.56533,0.52534 -2.71199,1.48133 -4.45599,1.82133 -9.54131,1.86533 -10.95597,-4.14399 -16.35196,-9.85731 -1.00666,-1.06666 -10.79064,-9.35064 -10.16264,-10.34397 10e-4,-0.003 14.29803,-10.7942 14.29803,-10.7942 0,0 23.44321,-26.07771 23.47121,-26.09771 z"
     style="clip-rule:evenodd;opacity:0.2;fill:#000000;fill-opacity:1;fill-rule:nonzero;stroke-width:1.33333;stroke-miterlimit:10"
     id="path6"
     sodipodi:nodetypes="cccccccccccccccccccc" /><path
     d="m 350.52179,330.52718 c 0.016,6.84798 3.07199,12.22263 5.42132,18.51328 1.412,3.78399 3.09599,7.45732 4.65865,11.17998 0.396,0.94533 0.83334,1.89332 1.16667,2.86399 0.196,0.568 0.156,1.368 0.388,1.87866 0.45766,1.01146 5.92321,19.03615 7.80404,29.0009 0.51023,2.70325 0.78966,5.89058 0.64446,5.88564 L 375.02715,400 c -0.12507,-3.71788 0.46949,-7.34936 -0.32163,-11.38552 -1.19982,-6.12121 -2.45157,-13.16846 -3.56192,-17.0288 -1.16331,-4.04447 -3.47847,-8.96436 -7.51229,-19.20755 -2.13049,-5.41001 -5.55983,-12.08149 -6.23974,-14.09149 -1.84343,-5.44969 -2.81831,-8.24862 -3.86666,-14.45413 -0.65435,-3.87332 -1.19572,-5.91383 -2.23089,-10.9877 0.21178,2.93254 -1.10697,5.59173 -1.0656,8.17173 0.0414,2.57999 0.2867,6.04931 0.29337,9.51064 z"
     style="clip-rule:evenodd;opacity:0.25;fill-rule:nonzero;stroke-width:1.33333;stroke-miterlimit:10"
     id="path10"
     sodipodi:nodetypes="cccccsccsssssccc" /><path
     d="m 131.28095,400.22833 c 0,0 -0.37154,-20.66137 -1.75733,-32.91459 -1.46047,-12.91353 -6.45485,-35.70992 -16.05342,-57.90083 0,0 17.51327,35.35556 19.56808,57.02217 3.51332,21.66661 2.92799,33.79325 2.92799,33.79325 z"
     style="clip-rule:evenodd;fill:#000000;fill-opacity:1;fill-rule:nonzero;stroke-width:1.33333;stroke-miterlimit:10"
     id="path12"
     sodipodi:nodetypes="cscccc" /><path
     d="m 182.26568,400 c -3.75733,0.0867 -8.20932,-12.43963 -8.70131,-15.25162 -1.68133,-9.62798 -3.124,-19.81729 -3.56933,-29.58393 -0.30133,-6.61465 -0.74533,-13.06397 -2.43199,-19.40795 -1.15733,-4.35732 -2.45733,-9.10265 -4.07733,-13.3693 -1.54399,4.03599 -2.44666,8.41998 -3.81332,12.3893 -0.0627,0.18 -6.7752,-6.02826 -7.0552,-6.73226 -1.096,-2.75332 -3.68774,-8.56186 -4.68374,-11.37119 -2.50266,-7.05465 -4.00025,-10.50874 -6.37891,-17.60739 -1.36666,-4.08132 -3.41279,-9.20077 -5.1544,-13.1317 2.30187,10.79703 6.01223,19.72016 5.95253,32.8612 -3.07866,-3.59411 -5.67206,-6.4095 -10.27039,-11.0738 -5.99067,-6.07662 -10.88117,-9.60987 -13.99983,-15.11252 1.87733,9.42931 18.57933,22.97838 12.58735,32.42502 -5.44266,-3.14399 -12.10264,-6.17732 -15.09463,-12.15197 4.31465,6.43332 8.52664,13.8133 13.0813,20.35995 2.44399,3.51332 4.22132,7.67198 6.10532,11.51997 3.04266,6.20932 6.85465,10.76531 5.00665,18.12662 -3.55199,-1.87199 -6.83198,-6.56532 -9.29331,-9.65864 2.39466,4.26132 1.22399,11.2933 1.84399,16.05996 0.70667,5.43065 0.77332,9.89463 1.11867,15.82663 -4.19199,-4.01599 -6.05865,-9.98665 -8.65865,-15.1093 -7.19464,-14.17196 -14.03329,-28.96926 -19.25861,-43.97056 -0.15334,3.48399 1.09466,7.19598 1.48266,10.64664 0.83866,7.46532 1.148,15.0133 1.77199,22.49995 0.62667,7.52664 0.348,15.22929 -0.97999,22.65594 -0.55467,3.10799 -1.55467,8.16798 -4.51732,9.95331 -3.37733,-3.12266 -4.831993,-7.46398 -6.05599,-11.90131 -2.255994,-8.17464 -3.606657,-16.80129 -5.419986,-25.0786 -1.863995,-8.51731 -3.187992,-17.14262 -4.841321,-25.6946 -0.730665,-3.77599 -0.753332,-8.01731 -2.149328,-11.58664 -0.389333,7.31598 -0.407999,15.03463 -0.05467,22.35994 0.370666,7.68799 0.422666,15.40263 0.589332,23.12261 0.202666,9.41198 -0.249333,19.02396 0.625332,28.29993 0.04667,0.49867 0.711998,8.68631 0.845332,8.68631 z"
     style="clip-rule:evenodd;opacity:0.25;fill:#000000;fill-opacity:1;fill-rule:nonzero;stroke-width:1.33333;stroke-miterlimit:10"
     id="path13"
     sodipodi:nodetypes="cccccccccccscccccccccccccccccccccccc" /><path
     d="m 179.58046,224.12855 c 3.96205,-4.29716 8.47911,-13.44455 9.42174,-15.21574 1.76034,-3.30767 4.62838,-4.91009 7.02665,-2.34266 1.15719,1.23881 11.68986,12.60645 24.78897,22.44216 6.94334,5.21355 14.95957,9.85937 21.82352,12.80995 9.06342,3.89605 12.88436,4.13862 17.0229,3.50094 5.40909,-0.83345 8.58252,-5.62565 9.77798,-9.16886 1.15776,-3.43149 4.90216,1.07399 4.90216,1.07399 l 7.89897,9.35784 -1.75733,4.97732 -6.72084,-10.38264 c 0,0 -1.5642,4.58208 -8.78874,8.71242 -3.53511,2.02106 -14.23721,1.91971 -21.40753,-1.12816 -5.93531,-2.52291 -17.0622,-8.05036 -26.72351,-15.95567 -9.66264,-7.90532 -22.57255,-20.0913 -23.74455,-21.26197 -0.72686,-0.72686 -6.09383,8.86102 -11.15597,14.61833 -3.05872,3.47877 -8.55644,6.99143 -10.22145,8.32334 -4.39198,3.51333 -1.74479,-1.97709 -1.464,-2.928 0,0 5.12613,-2.88287 9.32103,-7.43259 z"
     style="clip-rule:evenodd;fill:#000000;fill-opacity:1;fill-rule:nonzero;stroke-width:1.33333;stroke-miterlimit:10"
     id="path16"
     sodipodi:nodetypes="sssssssccccssccsscs" /><path
     d="m 300.04991,315.70321 c 5.23364,7.42561 10.81459,16.11048 18.88391,20.51447 2.07466,1.13333 5.0307,0.60681 7.20803,-0.0412 2.59732,-0.77333 3.86932,-3.47066 4.69465,-5.96665 2.08266,-6.29998 2.57066,-12.71997 3.16933,-19.33329 0.636,-7.01064 0.96845,-12.60506 1.2646,-19.71898 0.23733,-5.70088 -0.45453,-12.10632 -1.99186,-16.68231 -2.01333,-5.99065 -10.56212,-8.54862 -17.65406,-10.19859 -6.02089,-1.40079 -6.93005,4.56336 -9.01276,10.76693 -1.85968,5.53921 -4.02727,9.25931 -8.43394,14.62661 -2.71496,3.30681 -4.38747,7.20096 -4.17023,11.47399 0.24143,4.74873 2.30505,9.25648 6.04233,14.55901 z M 136.82054,283.40908 c 0,0 -7.12537,-11.03534 -17.18275,-8.47423 -6.08181,1.54873 -5.41616,9.8451 -4.15187,14.82964 -3.95788,-3.92346 -9.01475,-8.81491 -14.02673,-8.64291 -3.235985,0.112 -4.378163,2.29692 -3.711633,6.72298 1.639387,10.88626 13.047313,22.46377 19.809493,30.44005 5.81198,7.20798 11.99997,14.44529 19.99328,19.31461 12.05064,7.33999 26.72366,16.92904 39.68763,6.99306 5.51732,-4.22799 11.12994,-10.8458 14.8549,-16.71436 4.12675,-6.50157 6.15996,-11.19438 5.4613,-17.75969 -0.89467,-8.39598 -5.25361,-10.97868 -14.05328,-15.52556 -5.40492,-2.79277 -10.80424,-5.94614 -16.03756,-9.03546 -4.30399,-2.54133 -11.80373,-6.77694 -20.36371,-11.43122 -3.38041,-1.83801 -6.66942,-1.98336 -8.85844,-0.22581 -2.18901,1.75755 -1.42063,9.5089 -1.42063,9.5089 z m 165.51661,79.94093 c -0.44,-0.724 -0.908,-1.436 -1.38266,-2.13866 -13.0653,-19.34795 -34.68448,-48.31873 -61.50575,-36.81609 -15.23729,6.53465 -29.55859,20.70928 -34.26925,35.34124 -3.33732,10.36664 3.08666,17.76796 14.9373,20.42795 12.1693,2.73199 25.65994,2.72933 37.58924,2.70799 11.1173,-0.02 22.37461,0.104 33.22525,-1.54799 8.37598,-1.27467 15.79253,-1.87582 13.9352,-11.94379 -0.388,-2.10533 -1.36133,-4.10666 -2.52933,-6.03065 m 44.00332,-12.75615 c -0.68399,4.48132 0.0613,9.95997 0.42534,13.13197 0.77599,6.75731 2.35999,13.41463 4.33199,19.91728 2.24132,7.39198 4.92798,9.61464 8.30931,16.57329 L 320.02054,400 c -1.02666,-7.03331 -5.16623,-6.60809 -10.43244,-6.54831 -8.27975,0.094 -25.50811,1.48057 -39.26941,1.48057 -13.76263,0 -29.23429,-0.22509 -48.48011,1.4043 -7.4681,0.63226 -8.65111,-2.63521 -6.68444,3.66344 l -37.86391,0.21637 c 0,0 -17.77239,-28.45844 -39.5306,-51.01367 -10.97915,-11.38132 -24.99401,-20.32687 -34.1543,-25.246 -30.345243,-21.5686 -41.688069,-35.50163 -49.840125,-47.31869 -3.462968,-5.41313 -7.142114,-10.31429 -3.292791,-12.11296 6.799983,-3.17599 19.086556,-5.70606 25.81454,-9.03272 11.454638,-5.66398 26.110846,-8.33168 38.344766,-12.03023 18.20391,-5.50339 54.67548,-10.84988 54.67548,-10.84988 1.75733,54.16654 44.87494,60.62442 83.81617,60.62442 38.94124,0 18.23476,-53.74549 18.23476,-53.74549 0,0 90.97697,27.68689 88.92764,34.42154 -2.55866,8.40664 1.46133,17.72529 3.28533,26.0586 0.528,2.41333 1.47999,4.89332 1.70799,7.31998 0.63334,6.74265 -1.90133,11.54664 -4.05732,17.63862 -1.89333,5.34799 -3.54666,10.95331 -6.72532,15.7293 -1.77599,2.66799 -3.61199,2.33332 -5.57065,4.11865 -1.45066,1.32133 -2.22133,3.42799 -2.58533,5.81599"
     style="clip-rule:evenodd;opacity:0.25;fill:#000000;fill-opacity:1;fill-rule:nonzero;stroke-width:1.33333;stroke-miterlimit:10"
     id="path17"
     sodipodi:nodetypes="cccccscsssssccsccscccscscsccscccccccccccsscsccsccccsscccccccccc" /><path
     d="m 299.18781,312.8114 c 5.48932,7.23865 10.71032,18.30026 18.77964,22.70425 2.07466,1.13333 8.99183,4.56927 11.17049,3.92127 2.59732,-0.77333 7.3104,-6.80746 8.13573,-9.30346 2.08266,-6.29998 3.09204,-16.78671 3.69071,-23.40002 0.636,-7.01065 1.46506,-15.58645 -0.091,-22.53443 -1.052,-4.69332 -0.87164,-10.12507 -2.40897,-14.70106 -2.01333,-5.99065 -10.14548,-7.20845 -17.86261,-10.1986 -7.27695,-2.53809 -12.73476,-1.64315 -14.92808,2.52484 -2.72133,5.17066 -6.06691,12.87733 -9.18482,18.12265 -3.23687,4.75195 -10.3067,12.71951 -9.11535,18.0915 1.19134,5.37199 9.59557,11.84507 11.81423,14.77306 z M 107.14416,269.04187 c -5.66532,14.0293 13.83326,25.46344 23.10657,36.96608 5.81198,7.20798 15.54533,16.94791 22.49589,24.52838 11.63354,12.7623 20.24811,27.63668 33.21208,17.70071 5.51732,-4.22799 11.13277,-17.14175 14.03118,-23.45955 4.15838,-9.06423 6.1896,-12.62893 5.49094,-19.19425 -0.89467,-8.39598 -9.91598,-13.39597 -17.00263,-15.96796 -5.71865,-2.076 -9.16113,-6.72972 -14.39445,-9.81905 -9.57464,-5.65332 -16.93085,-13.54419 -25.75837,-20.3365 -6.28797,-4.83826 -33.29397,-2.69966 -41.18121,9.58214 z M 305.5147,355.7112 c -9.36354,-10.27636 -11.37652,-21.04231 -22.18387,-30.87917 -8.0786,-7.35315 -13.98088,-12.88078 -23.47684,-12.87286 -4.4192,0.004 -11.18365,2.73224 -15.42794,7.9787 -8.56367,11.95829 -17.25411,26.34015 -21.96477,40.97211 -3.33732,10.36664 -9.21782,12.13842 2.63282,14.79842 12.1693,2.73066 25.03429,1.26814 36.96359,1.24681 11.1173,-0.02 22.58316,0.104 33.4338,-1.548 8.37598,-1.27466 16.41818,0.83534 14.56085,-9.23264 m 41.44944,-20.52743 c 0.89595,15.66507 5.40417,30.27865 8.18328,43.31672 1.49105,6.99516 2.69936,11.03614 2.69936,11.03614 h -37.38657 c -1.02666,-7.03198 -6.00399,-12.5743 -11.26664,-12.77697 -7.02131,-0.26933 -24.04826,2.94043 -37.80956,2.94043 -13.76263,0 -31.12553,-0.38585 -48.27156,-0.88976 -7.47998,-0.78 -9.48531,4.42765 -7.51864,10.7263 h -41.86391 c 0,0 -17.92854,-37.61849 -60.50868,-62.35538 -19.653545,-11.41771 -48.905426,-41.47776 -59.41854,-56.38364 -6.991886,-9.91336 -10.0782,-16.3867 -8.310956,-16.87478 29.630593,-13.59329 43.924335,-14.59584 70.413866,-20.89625 15.79878,-3.75766 49.98309,-11.26697 49.98309,-11.26697 13.85327,43.94755 48.73313,50.16165 87.67436,50.16165 38.94124,0 17.81549,-41.19288 17.81549,-41.19288 0,0 26.48187,5.36031 50.82827,12.28019 20.37329,5.79061 39.12619,13.17342 40.8127,14.62919 0.32554,4.13378 -2.9073,18.50161 -5.39785,31.90466 -3.48461,18.75258 -9.88149,37.88505 -10.65751,45.64135"
     style="clip-rule:evenodd;fill:#ffffff;fill-rule:nonzero;stroke:none;stroke-width:1.33333;stroke-miterlimit:10"
     id="path19"
     sodipodi:nodetypes="ccccccccccccccccsccccscssccccccccsccscccsscscsccscsc" /><path
     id="path45"
     style="clip-rule:evenodd;fill:#000000;fill-opacity:1;fill-rule:nonzero;stroke-width:1.33333;stroke-miterlimit:10"
     d="m 184.53416,344.56487 c -9.23976,11.54326 -20.86075,-6.44339 -34.70867,-21.00091 -6.2492,-6.56942 -13.74331,-14.62135 -19.89438,-21.10607 -15.03143,-15.84677 -23.85656,-19.61464 -20.09809,-30.78974 1.79362,-5.33299 8.74374,-7.77289 15.38521,-10.05277 8.07159,-2.77081 14.26064,-5.84716 22.14825,-0.36044 10.01019,6.96321 14.39841,13.60033 25.07428,20.47117 7.9983,5.14759 31.43621,20.2373 30.00798,26.15329 -2.94214,12.18691 -9.54038,26.22354 -17.91458,36.68547 z m -10.06008,-66.28275 c -11.27202,-7.34275 -14.09224,-13.53601 -21.31265,-18.80522 -14.11944,-10.30388 -21.80827,-4.31513 -30.70838,-1.17853 -5.57636,1.96524 -14.75941,4.86749 -17.16322,10.8297 -4.99991,12.40136 5.07682,19.16025 21.52695,35.84048 6.52301,6.61425 14.30139,14.91351 20.92772,22.0114 6.94609,7.44042 24.8115,28.70699 32.29839,28.41205 4.96413,-0.19555 6.70095,-4.48515 10.05318,-9.32088 7.37315,-10.63612 16.47954,-29.22071 17.37441,-39.24004 -1.29725,-12.99408 -20.94745,-20.70011 -32.9964,-28.54896 z m 132.98062,86.51604 c 1.15866,6.27998 -3.64101,7.3587 -11.67222,9.05227 -9.87864,1.50399 -20.94293,1.72053 -31.03757,1.72853 -16.25423,0.0197 -27.44068,1.02377 -39.16414,-1.6089 -5.17058,-1.18637 -6.84875,-4.53366 -2.65667,-12.56243 7.44337,-14.25573 13.00643,-22.82469 22.99294,-39.01924 2.30874,-3.74395 11.15035,-7.81375 15.47034,-7.81375 7.69598,0 13.63698,3.48786 21.11302,13.8615 8.76313,12.1596 16.6362,23.89376 24.9543,36.36202 z m -88.16604,-5.84238 c -6.71731,12.13714 -1.63835,17.89447 5.32011,18.49027 13.31432,2.94124 26.57838,1.73066 40.14014,1.71423 10.25997,-0.008 21.49359,-0.22454 31.70423,-1.77787 6.48665,-0.988 17.24821,-0.68963 14.94821,-13.16693 -0.31792,-1.72425 -16.05615,-28.92637 -26.63391,-40.86014 -7.93961,-8.95742 -14.59827,-13.29153 -24.29193,-13.17777 -4.59153,0.0539 -12.75518,1.80474 -16.91212,8.14596 -9.76575,14.89719 -14.79044,23.4956 -24.27473,40.63225 z m 3.14679,33.70457 c 0.96266,-1.17333 2.64666,-1.64133 5.00798,-1.39866 21.22964,0.16051 30.39265,0.27611 49.52098,-0.14099 14.57868,-0.3179 23.30999,-1.14282 36.69081,-1.89901 4.08132,0.156 8.02669,3.36219 7.07745,10.77831 h 4.29865 c 1.71548,-10.16214 -5.62412,-14.56097 -11.22277,-14.77563 -15.79546,0.83389 -23.59833,0.73757 -37.46979,1.27068 -16.27936,0.62566 -31.23953,-0.0989 -48.48199,0.78798 -4.71599,-0.49733 -7.23199,1.27466 -8.51598,2.84399 -1.62267,1.98266 -0.1041,6.45137 1.11382,9.87298 h 3.62077 c -0.30144,-2.34165 -2.82926,-5.88632 -1.63993,-7.33965 z M 175.30489,400.21633 180.94488,400 c -5.1548,-8.51905 -28.15299,-47.66828 -61.14891,-63.89091 -12.33463,-6.06398 -35.095284,-27.11147 -44.639813,-38.2745 -8.391992,-9.81505 -16.865408,-17.5696 -19.694809,-23.07744 -1.401712,-2.72864 -6.248285,-8.39524 -4.486956,-9.20324 29.060298,-9.57466 50.159028,-15.88457 68.423888,-20.45385 17.19207,-4.3009 39.52537,-9.1537 48.73096,-11.0873 6.43721,21.71844 17.06105,31.44156 34.4613,40.03348 16.74057,8.26619 38.76906,11.68848 55.36268,10.96719 10.17758,-0.44241 17.13143,-3.6488 21.25409,-9.09946 8.02264,-10.60797 2.36454,-23.77802 -0.62612,-32.162 44.50324,8.67393 82.77009,20.57003 86.70608,25.11935 0.80589,6.97044 -1.73581,21.2872 -7.70034,39.06341 -5.14099,15.32179 -7.43492,31.12078 -8.07447,37.5124 -0.81262,8.71613 6.21895,28.9983 9.17061,43.19848 1.02391,4.92592 1.0151,8.4408 1.0356,11.35439 h 4.07866 c -0.13563,-2.24931 -0.28974,-5.9784 -1.30395,-11.78118 -2.53813,-14.52186 -9.9638,-32.15107 -9.00093,-42.37302 0.60437,-6.04057 2.44785,-21.32236 7.84776,-36.10328 3.86647,-10.58352 9.62847,-37.91935 7.62972,-42.56053 -4.43732,-8.03731 -63.04613,-21.88474 -93.1514,-28.33667 -0.74736,-0.16017 -1.53066,0.0373 -2.03466,0.616 -0.504,0.57866 -0.632,1.39466 -0.33066,2.09999 0.11733,0.272 11.31675,20.67136 2.41144,32.43667 -3.33599,4.40799 -9.38571,7.37999 -17.83769,7.37999 -18.35616,0 -36.11398,-2.34531 -54.59143,-11.41516 -13.33529,-6.54578 -26.28327,-15.52092 -31.4263,-38.63937 -0.13384,-0.60162 -0.32134,-1.18667 -0.82,-1.55066 -0.49733,-0.36267 -1.13333,-0.47867 -1.72533,-0.308 -1.436,0.40666 -31.54052,7.09016 -51.72829,11.99662 -23.399438,5.68702 -45.629675,12.28492 -69.166552,20.89892 -4.379165,1.60268 -1.890608,6.07099 2.364847,13.47264 3.730088,6.48786 12.141188,14.35888 21.719669,25.01341 10.531125,11.7142 31.413306,32.72623 45.673336,39.73686 30.96126,15.22396 51.13261,49.40894 56.97798,59.41677 m 164.24202,-93.25316 c -0.68621,7.10771 -1.66305,12.81088 -2.82987,19.77609 -0.61002,3.64145 -2.05767,8.35375 -4.17772,10.05989 -2.61586,2.10514 -8.46683,0.99968 -10.69349,-0.21495 -7.47599,-4.08133 -13.13252,-12.67426 -18.97917,-20.38624 -2.30198,-3.03768 -12.61931,-15.92189 -12.63659,-19.58586 -0.0147,-3.11542 5.76512,-9.4021 11.7928,-20.76129 1.50658,-2.83917 3.45387,-11.70612 4.95386,-14.55411 2.19066,-4.16399 9.79768,-1.18767 13.72647,0.21631 7.62405,2.7245 15.0972,5.56446 16.80376,9.77574 1.45472,3.58982 2.30611,6.84614 2.52573,12.3916 0.35492,8.96163 0.40786,14.02653 -0.48578,23.28282 z m 1.75071,-36.94908 c -1.68699,-6.45171 -10.29219,-8.64517 -20.79842,-12.49574 -6.22805,-2.2826 -13.89893,-4.1807 -16.85391,1.49725 -1.61999,3.08 -3.701,11.46938 -5.37441,15.03011 -6.06464,12.90449 -13.01425,17.36772 -11.97147,23.30772 1.05283,5.99733 10.79775,17.74379 13.38026,21.26219 6.12932,8.08531 12.07652,17.01824 20.2485,21.47823 4.2767,2.33704 9.11674,2.89194 14.41576,0.39148 3.39965,-1.6042 5.2138,-9.56565 5.65398,-12.26987 1.13885,-6.9965 2.73279,-14.08998 3.31145,-20.52596 0.8,-7.7712 0.3872,-15.2129 0.0358,-24.43975 -0.1699,-4.46113 -0.91817,-8.91651 -2.04754,-13.23566 z"
     sodipodi:nodetypes="sssssssssssssssssssccccsssscscccsssssccsccccsccccccccsscscsscccscsccscscssccsssccssssccsssccsscsssssscssccsscss" /><path
     d="m 170.21911,230.55323 c 0,0 -46.10127,11.00982 -56.5092,13.36078 -9.26775,2.09341 -62.010808,18.8831 -64.353468,20.64043 -2.342661,1.75599 4.800167,13.01883 8.775055,21.33843 0,0 -11.571633,26.08102 -12.156965,33.69433 -0.585331,7.61198 -0.315062,31.38031 -0.878664,47.13988 C 44.613504,380.21506 44.696,400 44.696,400 h 33.630467 c 0,0 -3.221326,-75.43548 -1.171998,-81.58346 l -4.97732,-7.61332 c 0,0 -1.170664,-3.51332 2.34266,-5.27065 3.513325,-1.75599 34.842581,-21.66661 34.842581,-21.66661 0,0 -5.29854,-8.81883 -1.19855,-15.26148 4.09865,-6.44132 17.48171,-10.69088 27.23345,-11.78113 6.63633,-0.74195 14.65005,3.59116 23.89458,12.96501 0,0 1.09389,-0.23809 2.61334,-1.15516 6.74798,-2.87199 19.43217,-8.36452 21.90283,-8.77651 3.51332,-0.58534 -12.12494,-4.41552 -12.71027,-24.32614 z"
     style="clip-rule:evenodd;opacity:0.2;fill:#000000;fill-opacity:1;fill-rule:nonzero;stroke-width:1.33333;stroke-miterlimit:10"
     id="path46"
     sodipodi:nodetypes="cscccscccccccsccccc" /><g
     id="g49"
     style="display:inline"
     transform="translate(0.25915343,-1.6657685)"><path
       d="m 248.90071,291.6726 c 3.83599,0.31467 7.52531,0.54267 11.45997,0.31867 4.38799,-0.24933 7.93731,-2.66266 11.80531,-4.39199 2.06666,-0.924 3.43332,-1.07866 4.67998,1.02533 0.98533,1.664 0.12134,4.11732 -0.97599,5.55865 -2.148,2.824 -4.19066,5.95466 -6.14399,9.06798 -2.68799,4.28399 -6.65732,8.38398 -10.9173,11.19731 -1.304,0.85999 -2.47867,1.54666 -4.06666,1.36533 -3.14533,-0.35867 -5.73865,-3.14666 -8.52265,-4.43199 -3.91999,-1.80933 -10.78264,-4.57199 -12.93596,-9.07465 -2.15333,-4.50132 -4.21866,-5.94931 -6.71465,-8.58664 -1.9,-2.00666 -3.49866,-4.57866 -0.17734,-6.31332 1.99866,-1.044 4.52266,-1.188 6.39599,0.21333 1.50933,1.12933 1.81999,2.40533 3.79332,2.964 1.97333,0.55866 4.11866,1.03599 6.17465,1.10399 1.412,0.0467 2.77466,-0.30133 4.18799,-0.18133 0.65733,0.0573 1.30933,0.112 1.95733,0.16533"
       style="clip-rule:evenodd;opacity:0.25;fill:#000000;fill-opacity:1;fill-rule:nonzero;stroke-width:1.33333;stroke-miterlimit:10"
       id="path21" /><path
       d="m 253.6927,291.1166 c 8.95331,0.44533 21.55595,-5.74398 22.87328,-6.66532 1.31599,-0.92133 3.71332,-0.0853 2.38266,2.89866 -1.33067,2.98266 -0.46667,4.37066 -6.05199,6.51465 -5.58398,2.144 -0.79066,3.81733 1.18,3.19866 1.97066,-0.62 2.50933,0.48267 0.19467,3.50666 -2.31467,3.02399 -11.10798,13.43997 -17.12796,13.13997 -2.73066,-0.136 -2.17466,-1.54266 -6.09465,-3.35199 -3.91866,-1.80933 -10.78131,-4.57199 -12.93464,-9.07331 -2.15333,-4.50266 -4.21999,-5.95066 -6.71331,-8.58532 -2.49466,-2.63599 -2.81733,-3.36932 -1.49467,-5.09732 1.32267,-1.72799 1.62,-1.99732 3.39466,-1.26533 2.72266,1.12133 5.65199,4.04666 20.39195,4.77999"
       style="clip-rule:evenodd;fill:#fbb03b;fill-rule:nonzero;stroke-width:1.33333;stroke-miterlimit:10"
       id="path23" /><path
       d="m 232.22209,286.82862 c -0.38267,0 -0.63333,0.32933 -1.32266,1.22799 -0.84133,1.1 -0.97067,1.26933 1.42666,3.80133 0.50133,0.53066 0.98533,1.01199 1.45733,1.48133 1.87333,1.86266 3.64266,3.62265 5.43199,7.35998 1.80399,3.77065 7.53598,6.36798 11.33063,8.08664 l 1.12133,0.51067 c 1.924,0.88933 2.86533,1.70666 3.552,2.30399 0.73333,0.63734 1.03733,0.90133 2.17199,0.95733 4.99332,0.236 12.82664,-8.23064 16.28396,-12.74796 0.80666,-1.05333 1.11866,-1.692 1.24,-2.03467 -0.0907,0.0187 -0.204,0.0467 -0.34,0.088 -1.57867,0.49867 -4.44666,-0.0347 -5.00266,-1.62799 -0.45733,-1.312 0.608,-2.47466 3.16533,-3.45733 3.95332,-1.51733 4.26265,-2.46399 4.82532,-4.18265 0.172,-0.52667 0.36667,-1.124 0.67066,-1.80533 0.36267,-0.812 0.404,-1.46666 0.108,-1.71066 -0.23466,-0.19467 -0.69466,-0.176 -1.00533,0.0387 -1.52266,1.06667 -14.37063,7.30132 -23.4946,6.84532 -12.45597,-0.62 -16.59996,-2.76533 -19.34262,-4.18532 -0.50133,-0.25867 -0.944,-0.48934 -1.38,-0.67067 -0.41466,-0.16933 -0.67733,-0.27866 -0.89733,-0.27866 m 25.25194,28.36392 c -0.10134,0 -0.20267,-0.003 -0.30134,-0.008 -1.82532,-0.0907 -2.54799,-0.71866 -3.38532,-1.44666 -0.62933,-0.54666 -1.412,-1.228 -3.07866,-1.99599 l -1.108,-0.50667 c -4.05865,-1.83733 -10.19064,-4.61599 -12.31063,-9.04398 -1.63867,-3.42665 -3.21333,-4.99332 -5.03732,-6.80531 -0.484,-0.48267 -0.98267,-0.97867 -1.5,-1.524 -2.34399,-2.47733 -3.47866,-3.88666 -1.56133,-6.39198 1.49466,-1.952 2.224,-2.54933 4.56932,-1.58267 0.48667,0.2 0.98133,0.45467 1.53867,0.744 2.58799,1.34 6.49998,3.36399 18.52262,3.96266 8.47331,0.42533 20.86128,-5.51599 22.24927,-6.48665 1.052,-0.736 2.492,-0.712 3.424,0.0573 0.49733,0.41067 1.53466,1.62666 0.44533,4.06799 -0.26134,0.58667 -0.432,1.108 -0.59733,1.612 -0.74534,2.27999 -1.392,3.65732 -6.00932,5.42932 -1.19067,0.45733 -1.68133,0.81733 -1.87466,1.00266 0.45333,0.28533 1.68666,0.532 2.39599,0.308 1.60533,-0.50533 2.36399,-0.0107 2.71733,0.492 0.67599,0.96533 0.22266,2.41999 -1.428,4.57732 -1.07333,1.40267 -10.57064,13.5373 -17.67062,13.53863"
       style="clip-rule:evenodd;fill:#000000;fill-opacity:1;fill-rule:nonzero;stroke-width:1.33333;stroke-miterlimit:10"
       id="path24" /><path
       id="path37"
       style="clip-rule:evenodd;opacity:0.25;fill:#000000;fill-opacity:1;fill-rule:nonzero;stroke-width:1.33333;stroke-miterlimit:10"
       d="m 268.60866,298.13526 c 1.452,0.92666 3.14933,2.57866 1.836,3.13999 -1.31467,0.56266 -3.27866,0.196 -3.18,1.81599 0.0973,1.61867 0.30667,2.97466 -0.90133,3.99066 -1.20799,1.016 -5.81332,3.65733 -5.81332,3.65733 0,0 3.96666,-5.18399 3.65199,-6.99332 -0.31599,-1.80933 -0.41599,-3.15999 1.12133,-4.24932 1.536,-1.08933 2.524,-1.848 3.28533,-1.36133 m 4.43332,-9.55465 c -1.64933,0.78533 -2.20399,2.93999 -0.0187,2.68933 2.18666,-0.24934 1.75067,-0.45067 2.08933,-1.95867 0.33733,-1.50799 -0.536,-1.46133 -2.07066,-0.73066 m -26.69057,6.11732 c 0.39467,1.51866 3.44932,6.71865 5.29199,8.78398 1.84266,2.06399 3.13199,5.26665 3.67199,6.10132 0.54,0.83466 3.58532,2.68932 4.48799,-1.39067 0.90133,-4.08132 0.15333,-6.53998 2.35199,-8.67331 2.19999,-2.13199 4.59999,-1.74399 3.19866,-4.50399 -1.40133,-2.76132 -3.25733,-2.85332 -7.84798,-2.36399 -4.59066,0.48933 -11.57997,0.41067 -11.15464,2.04666 m -7.31245,-0.81241 c 0,0 8.56568,9.21407 9.97551,10.80908 1.40867,1.59568 -1.43572,2.08173 -4.57809,-1.48228 -3.14237,-3.564 -4.01615,-3.69765 -4.32934,-5.68697 -0.31434,-1.98865 -3.13383,-5.08787 -1.06808,-3.63983" /><path
       d="m 273.05197,288.58952 c -0.34402,0.22695 -0.63173,0.48143 -0.77489,0.66125 1.10635,-0.21176 3.25154,-0.0903 2.43848,1.31425 0.55658,-0.28916 0.83479,-1.72445 0.39356,-2.20702 -0.49496,-0.54016 -1.3873,-0.2088 -2.05715,0.23152"
       style="clip-rule:evenodd;opacity:0.25;fill:#ffffff;fill-opacity:1;fill-rule:nonzero;stroke-width:1.33333;stroke-miterlimit:10"
       id="path35" /><path
       id="path39"
       style="clip-rule:evenodd;opacity:0.25;fill:#000000;fill-opacity:1;fill-rule:nonzero;stroke-width:1.33333;stroke-miterlimit:10"
       d="m 268.60866,298.13526 c 1.452,0.92666 3.14933,2.57866 1.836,3.13999 -1.31467,0.56266 -3.27866,0.196 -3.18,1.81599 0.0973,1.61867 0.30667,2.97466 -0.90133,3.99066 -0.58133,0.48933 -1.26133,0.764 -1.93599,1.15067 0.51733,-0.71067 0.91199,-1.476 1.34266,-2.16533 0.51733,-0.82933 0.684,-1.36933 0.616,-2.30266 -0.0733,-0.99067 0.18533,-1.18 1.02533,-1.808 0.584,-0.43466 1.25866,-1.424 0.13333,-1.98399 -0.88,-0.43734 -2.06133,0.412 -2.83999,0.54133 -0.16,-0.452 0.232,-0.744 0.61866,-1.01733 1.536,-1.08933 2.524,-1.848 3.28533,-1.36133 m -22.25728,-3.43733 c 0.396,1.51867 3.44932,6.71865 5.29199,8.78265 1.84266,2.06533 3.13199,5.26799 3.67199,6.10265 0.54,0.83333 3.58532,2.68933 4.48799,-1.392 0.292,-1.32266 0.67599,-2.81332 0.332,-4.17999 -0.55734,0.632 -1.45067,1.18533 -2.388,1.208 -2.70666,0.0653 -4.20665,-2.77866 -4.99065,-4.48532 -1.06133,-2.31066 -3.60933,-5.33199 -1.612,-7.47465 -0.93733,0.0987 -5.17732,-0.0373 -4.79332,1.43866 m -7.31331,-0.812 c 1.588,1.70933 3.17466,3.41866 4.75865,5.13066 1.148,1.24133 2.296,2.48132 3.43866,3.72665 0.50533,0.55067 3.33466,3.02 1.13067,2.988 -0.29467,-1.56933 -3.088,-3.31866 -4.16266,-4.56799 -1.10666,-1.28533 -1.96266,-3.30666 -3.51999,-4.22133 -0.176,0.232 -0.35067,0.47467 -0.38533,0.76534 0.15733,-1.348 -1.932,-2.85333 -1.97733,-4.18799 0.27733,0.0587 0.48666,0.20533 0.71733,0.36666" /></g><path
     style="color:#000000;clip-rule:nonzero;fill:#000000;fill-rule:nonzero;-inkscape-stroke:none;fill-opacity:0.30000001"
     d="m 186.44433,254.63965 c 0,0 17.04617,13.28484 27.38184,17.20215 11.89503,4.50831 24.72495,7.13355 37.45899,7.36523 6.19878,0.11278 13.19017,0.23864 18.87304,-3.05469 1.70105,-0.98578 3.04108,-2.48867 4.2373,-4.20994 1.19622,-1.72127 1.52981,-6.00645 1.52981,-6.00645 0,0 -1.10454,3.26985 -2.60587,5.04712 -1.28078,1.51618 -3.08574,2.81327 -4.16514,3.4388 -5.03608,2.91851 -11.64405,2.89774 -17.83203,2.78516 -12.48365,-0.22712 -25.0974,-2.80388 -36.78711,-7.23437 -9.70977,-3.68009 -28.09083,-15.33301 -28.09083,-15.33301 z"
     id="path49"
     sodipodi:nodetypes="csssscssssc" /></g><g
   inkscape:groupmode="layer"
   id="layer3"
   inkscape:label="Image"
   style="display:none;opacity:0.5"
   sodipodi:insensitive="true"><image
     width="400"
     height="400"
     preserveAspectRatio="none"
     xlink:href="../../../../../../../Pictures/STA%20Miniature%20Maker/VulcanPriestessRobes.png"
     id="image1"
     x="0"
     y="0" /></g></svg>
