<?xml version="1.0" encoding="UTF-8" standalone="no"?>
<!-- Created with Inkscape (http://www.inkscape.org/) -->

<svg
   width="400"
   height="400"
   viewBox="0 0 400 400"
   version="1.1"
   id="svg3715"
   inkscape:version="1.2.2 (b0a8486, 2022-12-01)"
   sodipodi:docname="KlingonEmblem.svg"
   xmlns:inkscape="http://www.inkscape.org/namespaces/inkscape"
   xmlns:sodipodi="http://sodipodi.sourceforge.net/DTD/sodipodi-0.dtd"
   xmlns="http://www.w3.org/2000/svg"
   xmlns:svg="http://www.w3.org/2000/svg">
  <sodipodi:namedview
     id="namedview3717"
     pagecolor="#ffffff"
     bordercolor="#666666"
     borderopacity="1.0"
     inkscape:showpageshadow="2"
     inkscape:pageopacity="0.0"
     inkscape:pagecheckerboard="0"
     inkscape:deskcolor="#d1d1d1"
     inkscape:document-units="px"
     showgrid="false"
     inkscape:zoom="1.5925"
     inkscape:cx="200"
     inkscape:cy="205.02355"
     inkscape:window-width="1440"
     inkscape:window-height="933"
     inkscape:window-x="2642"
     inkscape:window-y="407"
     inkscape:window-maximized="0"
     inkscape:current-layer="g6975" />
  <defs
     id="defs3712" />
  <g
     inkscape:label="Layer 1"
     inkscape:groupmode="layer"
     id="layer1">
    <g
       id="g6975">
      <path
         d="m 373.45807,351.99135 a 41.83528,41.83528 0 1 1 -83.67056,0 41.83528,41.83528 0 1 1 83.67056,0 z"
         id="path3776"
         style="fill:#ffffff;fill-opacity:1;fill-rule:evenodd;stroke:#000000;stroke-width:2.14577;stroke-linecap:butt;stroke-linejoin:miter;stroke-miterlimit:4;stroke-dasharray:none;stroke-opacity:1" />
      <path
         d="m 330.85306,244.55243 c -9.35023,79.77438 -15.10278,90.43185 -19.3116,98.00633 l 19.57981,29.64634 19.15067,-30.39736 c -13.694,-31.63095 -16.46781,-77.06389 -19.41888,-97.25531 z"
         id="path2996"
         style="fill:#000000;fill-opacity:1;stroke:#000000;stroke-width:0.424834;stroke-linecap:butt;stroke-linejoin:miter;stroke-miterlimit:4;stroke-dasharray:none;stroke-opacity:1" />
      <path
         d="m 310.13754,344.31597 c -2.46403,3.5564 -11.39819,6.95986 -14.30232,8.83751 -13.7848,8.91248 -19.84054,21.02468 -18.08635,39.41655 24.30164,-18.93619 32.01041,-19.76316 51.75232,-18.04907 z"
         id="path2998"
         style="fill:#000000;fill-opacity:1;stroke:#000000;stroke-width:0.424834;stroke-linecap:butt;stroke-linejoin:miter;stroke-miterlimit:4;stroke-dasharray:none;stroke-opacity:1" />
      <path
         d="m 352.13104,344.3658 -20.27177,30.43259 c 15.17995,9.33983 34.50863,5.32124 49.54797,-0.51248 5.76549,-2.23641 9.97556,-4.54083 15.64547,-8.13331 -15.52819,-1.56136 -34.83441,-8.46899 -44.92167,-21.7868 z"
         id="path3000"
         style="fill:#000000;fill-opacity:1;stroke:#000000;stroke-width:0.424834;stroke-linecap:butt;stroke-linejoin:miter;stroke-miterlimit:4;stroke-dasharray:none;stroke-opacity:1" />
      <path
         d="m 330.85125,255.20636 c -4.52899,31.01353 -7.72649,69.59959 -17.31901,86.88207 l 17.60024,26.40036 16.99333,-27.159 c -11.97748,-31.38728 -13.11695,-57.94322 -17.27456,-86.12343 z"
         id="path3770"
         style="fill:#ca0001;fill-opacity:1;stroke:none;stroke-width:1.20024" />
      <path
         d="m 279.31799,388.82009 c -1.28172,-17.0609 8.00386,-28.5166 17.77753,-34.06 4.91726,-2.78896 11.24,-6.56837 12.49184,-7.28539 l 16.68987,25.18655 c -20.56795,-3.29948 -33.5328,5.69319 -46.95924,16.15884 z"
         id="path3772"
         style="fill:#ca0001;fill-opacity:1;stroke:none;stroke-width:1.20024" />
      <path
         d="m 352.14656,347.32298 c 0,0 -10.9976,17.25184 -17.22092,27.00726 15.9009,9.55306 43.57768,0.9825 56.82145,-7.13114 -21.50581,-4.21757 -32.53244,-11.89755 -39.60053,-19.87612 z"
         id="path3774"
         style="fill:#ca0001;fill-opacity:1;stroke:none;stroke-width:1.20024" />
    </g>
  </g>
</svg>
