<?xml version="1.0" encoding="UTF-8" standalone="no"?>
<!-- Created with Inkscape (http://www.inkscape.org/) -->

<svg
   width="400"
   height="400"
   viewBox="0 0 400 400"
   version="1.1"
   id="svg1"
   xml:space="preserve"
   inkscape:version="1.3.1 (91b66b0, 2023-11-16)"
   sodipodi:docname="dominionInsignia.svg"
   xmlns:inkscape="http://www.inkscape.org/namespaces/inkscape"
   xmlns:sodipodi="http://sodipodi.sourceforge.net/DTD/sodipodi-0.dtd"
   xmlns="http://www.w3.org/2000/svg"
   xmlns:svg="http://www.w3.org/2000/svg"><sodipodi:namedview
     id="namedview1"
     pagecolor="#ffffff"
     bordercolor="#666666"
     borderopacity="1.0"
     inkscape:showpageshadow="2"
     inkscape:pageopacity="0.0"
     inkscape:pagecheckerboard="0"
     inkscape:deskcolor="#d1d1d1"
     inkscape:document-units="px"
     showguides="true"
     inkscape:zoom="1.42"
     inkscape:cx="245.07042"
     inkscape:cy="232.39437"
     inkscape:window-width="1440"
     inkscape:window-height="1199"
     inkscape:window-x="2570"
     inkscape:window-y="114"
     inkscape:window-maximized="0"
     inkscape:current-layer="layer2" /><defs
     id="defs1" /><g
     inkscape:groupmode="layer"
     id="layer2"
     inkscape:label="Layer 2"><path
       style="fill:#000000;fill-opacity:1;stroke:#000000;stroke-width:2.88936;stroke-linecap:butt;stroke-linejoin:miter;stroke-dasharray:none;stroke-opacity:1"
       d="m 272.40725,330.78824 60.42937,-60.42936 10.7255,10.79095 h 13.01461 v 12.58946 l 37.04896,36.88596 -61.05741,60.23266 z"
       id="path8"
       sodipodi:nodetypes="cccccccc" /><path
       style="fill:none;fill-opacity:1;stroke:#a5cd9f;stroke-width:1.08351;stroke-linecap:butt;stroke-linejoin:miter;stroke-dasharray:none;stroke-opacity:1"
       d="m 272.40725,330.78824 60.42937,-60.42936 10.7255,10.79095 h 13.01461 v 12.58946 l 37.04896,36.88596 -61.05741,60.23266 z"
       id="path9"
       sodipodi:nodetypes="cccccccc" /><path
       style="fill:#008c3a;fill-opacity:1;stroke:#5e5e5e;stroke-width:0.715145px;stroke-linecap:butt;stroke-linejoin:miter;stroke-opacity:1"
       d="m 344.3045,282.91008 h 5.05417 v 89.72939 H 316.66808 V 345.8195 h 3.64374 c 0.10395,17.72493 -0.30092,23.98444 8.85352,23.81952 16.53207,0.022 14.91341,-57.68523 15.13916,-86.72894 z"
       id="path10"
       sodipodi:nodetypes="cccccccc" /><rect
       style="fill:#008c3a;fill-opacity:1;fill-rule:evenodd;stroke:#5e5e5e;stroke-width:0.722341;stroke-linecap:round;stroke-linejoin:miter;stroke-miterlimit:40;stroke-dasharray:none;stroke-opacity:1"
       id="rect10"
       width="12.14499"
       height="2.8613851"
       x="295.94257"
       y="334.26746"
       ry="0" /><path
       id="rect14"
       style="fill:#a89bb4;fill-opacity:1;fill-rule:evenodd;stroke:#5e5e5e;stroke-width:0.722341;stroke-linecap:round;stroke-linejoin:round;stroke-miterlimit:40;stroke-dasharray:none;stroke-opacity:1"
       d="m 316.58806,327.78159 a 6.9344715,6.9344715 0 0 1 -6.84672,6.74655 v 2.95567 a 6.9344715,6.9344715 0 0 1 6.8058,6.38538 h 3.97711 a 6.9344715,6.9344715 0 0 1 6.51235,-6.35152 v -3.02339 a 6.9344715,6.9344715 0 0 1 -6.55326,-6.71269 z" /></g></svg>
