<?xml version="1.0" encoding="UTF-8" standalone="no"?>
<!-- Created with Inkscape (http://www.inkscape.org/) -->

<svg
   version="1.1"
   id="svg282014"
   width="400"
   height="400"
   viewBox="0 0 400 400"
   sodipodi:docname="tngAverageFemale.svg"
   inkscape:version="1.3.2 (091e20e, 2023-11-25)"
   xml:space="preserve"
   xmlns:inkscape="http://www.inkscape.org/namespaces/inkscape"
   xmlns:sodipodi="http://sodipodi.sourceforge.net/DTD/sodipodi-0.dtd"
   xmlns="http://www.w3.org/2000/svg"
   xmlns:svg="http://www.w3.org/2000/svg"><defs
     id="defs282018" /><sodipodi:namedview
     id="namedview282016"
     pagecolor="#ffffff"
     bordercolor="#666666"
     borderopacity="1.0"
     inkscape:showpageshadow="2"
     inkscape:pageopacity="0.0"
     inkscape:pagecheckerboard="0"
     inkscape:deskcolor="#d1d1d1"
     showgrid="false"
     inkscape:zoom="2.7375"
     inkscape:cx="199.81735"
     inkscape:cy="200"
     inkscape:window-width="2328"
     inkscape:window-height="1308"
     inkscape:window-x="2040"
     inkscape:window-y="25"
     inkscape:window-maximized="0"
     inkscape:current-layer="g282022"><inkscape:page
       x="0"
       y="0"
       id="page282020"
       width="400"
       height="400"
       margin="0"
       bleed="0" /></sodipodi:namedview><g
     id="g282022"
     inkscape:groupmode="layer"
     inkscape:label="Uniform"
     style="display:inline;opacity:1"><path
       id="path283350"
       style="fill:#2d2d2d;fill-opacity:1;fill-rule:nonzero;stroke:none;stroke-width:1.33333"
       d="m 193.08008,202.94531 c -2.51861,5.31765 -2.82016,5.73971 -5.07617,9.83789 -3.00937,4.71927 -4.23154,7.9528 -6.19141,11.67969 -14.34653,6.44949 -26.45646,10.66797 -50.14844,24.25195 -16.34719,4.40719 -36.791865,9.01531 -54.478513,19.41797 -3.36933,1.98133 -12.234863,6.10028 -15.736328,8.22657 -9.936676,13.29956 -9.372142,20.97015 -15.105469,36.71679 -4.528166,14.93918 -6.127282,22.48621 -8.525628,33.70263 2.922664,0.34 8.805707,11.51278 11.679037,10.88478 19.406523,-12.5474 33.122769,-21.85347 57.396871,-34.41919 17.87664,-0.78348 160.13869,-2.8764 164.40247,-2.72136 30.162,1.09674 61.42049,2.95395 91.85819,5.13747 0,0 7.2251,6.85673 14.67105,14.89207 -0.74884,-4.7991 -1.47751,-8.20007 -2.12019,-11.54987 -0.80702,-4.20643 -2.24143,-6.7801 -3.45877,-10.88676 -6.20399,-24.60531 -13.73236,-35.41849 -33.14717,-46.12961 -12.89139,-3.90462 -24.58649,-9.43601 -36.99219,-10.875 -5.24833,-0.67437 -12.25435,-7.05271 -15.81521,-9.17431 -6.37982,-3.80115 -8.82454,-6.17628 -11.24141,-8.26905 L 274.9883,240.66602 270.709,235 l -3.2207,8.06836 c -1.53936,0.88783 -2.94755,2.05369 -4.61719,2.66211 -0.8425,0.30701 -1.3636,4.64645 -2.3232,4.67941 -1.34112,0.0461 -3.19049,-4.31495 -4.8975,-4.50949 -10.62185,-1.78919 -26.68533,-8.38611 -35.72266,-15.02344 -7.43374,-5.45879 -23.211,-21.6259 -26.84765,-27.93164 z"
       sodipodi:nodetypes="csccccccccsccscccsccccsscccc" /><path
       d="m 380.04463,399.96653 c -0.3133,-6.08854 -1.45178,-8.00321 -1.81746,-18.53235 -0.19921,-5.736 1.35581,-40.30781 -0.84521,-42.32043 -2.21467,-1.17867 -11.48825,-14.43071 -13.99326,-14.68194 -25.56155,-2.5636 -62.78281,-6.03798 -93.81097,-6.76019 -75.85333,-1.56933 -163.34314,4.08738 -163.34314,4.08738 -24.379393,11.17444 -33.620793,17.31697 -56.474883,28.74093 -4.558918,-3.09473 -11.255697,-7.46904 -11.225268,-7.41956 0,0 -6.82726,53.06212 -6.64726,56.15279 0.01467,0.24667 0.03333,0.48933 0.052,0.73333 z"
       style="fill:#d30000;fill-opacity:1;fill-rule:nonzero;stroke:none;stroke-width:1.33333"
       id="path283402"
       sodipodi:nodetypes="cscsccccccc" /><path
       d="m 199.85386,247.78521 c -2.93665,-2.47779 -7.28168,-7.44446 -10.22639,-11.3595 -5.69208,-7.56772 -7.29436,-11.28257 -0.41891,-24.25333 3.46894,-6.54427 4.74293,-10.62513 4.74293,-10.62513 l 0.67141,4.26669 c 7.96762,12.63941 11.92435,16.15759 20.26837,24.38157 7.41065,7.30402 11.63496,10.0071 24.00893,16.26979 3.86892,1.95813 4.27646,12.0527 4.06046,14.43004 -0.216,2.37733 -8.33269,9.49419 -23.27996,0.78187 -7.33325,-4.27433 -13.15973,-8.26665 -19.82684,-13.892 z"
       style="opacity:0.199997;fill:#000000;fill-opacity:1;fill-rule:nonzero;stroke:none;stroke-width:1.33333"
       id="path283456"
       sodipodi:nodetypes="sssccsssss" /><path
       d="m 275.1368,243.22809 c 0.14856,1.98118 -0.97427,3.90313 -2.57027,6.5978 -2.38667,4.032 -1.98774,10.53931 -3.45307,14.94731 -0.872,-2.21866 -1.20133,-3.37733 -1.008,-5.648 0.196,-2.31333 0.44933,-4.564 1.104,-6.844 0.46533,-1.62266 2.12907,-5.50464 2.92107,-6.87931 1.59866,-2.768 0.99466,-5.07867 0.372,-8.04267 1.12133,0.88537 1.46027,2.4344 2.07733,3.73334 0.33067,0.75333 0.47427,0.93953 0.55694,2.13553 z"
       style="fill:#000000;fill-opacity:1;fill-rule:nonzero;stroke:none;stroke-width:1.33333"
       id="path283442"
       sodipodi:nodetypes="ccccccccc" /><path
       style="fill:#d30000;fill-opacity:1;stroke:none;stroke-width:1px;stroke-linecap:butt;stroke-linejoin:miter;stroke-opacity:1"
       d="m 190.41096,209.86301 2.55708,-5.84474 9.04109,11.59817 14.7032,13.33333 19.72603,11.78082 12.96803,3.10503 7.21461,1.46118 3.92695,5.93608 2.2831,-4.74886 4.38356,-5.11416 2.19178,-4.10959 0.54795,-3.01369 4.01826,5.2968 -0.63927,2.55708 -4.84018,6.39269 -3.28767,5.20548 -0.18265,10.13699 -0.27397,4.10959 -2.83105,0.45662 -1.64384,0.0913 -1.73516,1.09589 -2.46575,-1.00456 -0.45662,-14.42923 -1.64384,-3.74429 -4.84018,-1.09589 -18.44749,-5.11416 -14.06393,-7.48858 -11.78082,-10.50228 -12.78539,-13.42466 z"
       id="path3" /><path
       style="fill:#2d2d2d;fill-opacity:1;stroke:none;stroke-width:1px;stroke-linecap:butt;stroke-linejoin:miter;stroke-opacity:1"
       d="m 111.19981,336.44076 8.65318,23.76395 6.71589,26.66988 L 129.15192,400 h -9.42809 l -2.97049,-32.95023 z"
       id="path5"
       sodipodi:nodetypes="ccccccc" /><path
       id="path283446"
       style="fill:#000000;fill-opacity:1;fill-rule:nonzero;stroke:none;stroke-width:1.33333"
       d="m 193.40039,200.15625 c -1.24369,-0.0443 -1.72405,0.85801 -2.07617,1.95898 -2.904,8.85393 -5.94012,14.46428 -10.375,20.92774 -4.33993,2.2816 -8.90482,4.27845 -13.4043,6.32031 -4.70588,2.14462 -12.46309,6.3618 -21.5957,10.50195 -9.13261,4.1402 -17.97779,6.15144 -29.99024,10.17188 -12.01239,4.02044 -32.683623,12.36439 -44.560542,17.51562 -1.801456,1.21501 -10.516946,4.81194 -12.146485,6.01172 -15.771579,29.05 -24.623226,71.03074 -28.144531,97.73828 -1.286846,11.8077 -1.337818,18.41267 -1.617188,28.14063 -0.03067,0.17466 -0.07629,0.34877 -0.126953,0.52344 h 4.427735 c 0.254901,-0.11535 0.963149,-17.97917 1.976562,-27.94532 1.104297,-10.85989 4.285156,-26.22656 4.285156,-26.22656 3.225904,2.36767 5.213386,3.48319 9.748047,6.64063 10.748171,-5.74294 50.185201,-26.36465 53.037109,-27.92969 4.44196,-2.46237 11.11628,33.04247 13.00391,52.07617 1.10131,11.10503 0.50835,19.09267 0.44726,23.41797 h 5.31836 c -0.18394,-6.26653 -0.70203,-17.09931 -1.20117,-21.41992 -1.38858,-12.01919 -7.60262,-42.3752 -12.76563,-55.71485 46.64073,-2.60154 107.13113,-5.57865 158.70508,-4.74804 35.30069,0.56852 66.59038,3.7559 93.44922,6.5957 0.66829,3.6995 0.59858,15.69818 0.39063,25.06055 -0.006,0.26464 0.0196,0.5301 0.0195,0.79492 -0.91514,-3.1858 0.0999,0.30386 -6.97461,-24.71875 0,0 1.9406,16.78279 4.25391,25.0332 2.1099,7.52498 5.30085,14.57501 7.36328,21.83203 1.5584,5.48362 3.09887,10.94538 3.83398,16.46875 0.4375,3.28725 0.37695,10.81641 0.37695,10.81641 h 2.69922 c 0,0 0.10747,-7.37057 -0.39843,-11.17188 -0.56332,-4.23257 -1.56746,-8.359 -2.67579,-12.41992 l 0.0957,0.041 c 0,0 1.80034,-4.12643 2.49023,-6.42969 0.86204,-2.87797 0.94531,-8.65234 0.94531,-8.65234 0,0 -1.88928,5.5305 -2.66992,8.13672 -0.33996,1.13499 -1.03348,2.89027 -1.59765,4.26757 -0.16877,-0.59774 -0.33474,-1.19965 -0.50391,-1.79492 -0.60743,-2.13733 -1.30624,-4.23126 -2.0332,-6.30859 0.35883,-0.73745 2.12746,-4.40533 2.86914,-6.64844 0.86885,-2.62769 1.11038,-5.31988 1.8164,-7.77734 0.85876,-2.98907 2.37891,-9.24805 2.37891,-9.24805 0,0 -2.91971,5.6993 -3.82031,8.83398 -0.7588,2.64113 -1.00428,5.31175 -1.80078,7.72071 -0.46187,1.39684 -1.45463,3.59515 -2.16211,5.11523 -0.42045,-1.1669 -0.82962,-2.3366 -0.85938,-2.88476 0,0 1.46735,-9.09967 1.79102,-13.55469 0.42624,-5.86702 -0.29555,-15.93971 -0.61133,-19.86719 3.35831,3.58201 8.91121,9.93998 10.79492,11.66602 0.25249,1.46126 1.18531,24.48206 1.26758,27.11133 0.078,2.49298 1.31052,31.90307 1.16797,33.86523 h 2.4414 c 0.66304,-9.29653 -0.76925,-26.79269 -1.11328,-42.46289 -0.27256,-12.41495 -0.37842,-16.21958 -2.10351,-28.18164 -0.38765,-2.68806 -2.53535,-10.45335 -3.30469,-13.05469 -2.724,-9.22127 -5.26637,-17.7938 -10.43164,-25.8164 -2.75932,-4.28569 -7.75657,-11.55379 -9.57813,-13.17383 -15.4335,-6.77411 -35.2711,-13.44327 -52.61328,-17.42188 -7.14602,-5.82464 -17.44034,-12.42995 -25.69922,-16.92969 0.17499,-0.70308 0.2225,-1.22892 0.17578,-1.66406 -0.33031,-3.07661 -0.90817,-3.7064 -2.63867,-5.375 -1.57349,-1.5172 -3.08862,-2.77773 -4.66211,-4.29492 0.10487,2.66663 0.61706,5.41594 -2.78515,8.78711 -3.67781,3.64422 -5.29688,7.61914 -5.29688,7.61914 0,0 -2.69009,-3.9366 -4.82422,-4.16211 -14.31032,-1.51216 -25.67454,-6.804 -35.71484,-13.94141 -17.61482,-12.52193 -25.78708,-27.31261 -25.65625,-27.61132 l 0.70312,-1.66993 c -0.88056,-0.22564 -1.36427,-0.47579 -1.74023,-0.49023 z m 0.45313,7.17383 c 0.16468,-0.24933 2.5455,3.48556 4.22851,5.41015 2.12565,2.4308 2.80545,3.67954 5.27344,6.14649 6.69931,6.69648 9.43181,9.84016 16.30469,14.46094 8.5666,5.75949 14.37293,7.96315 23.57031,10.75195 4.14108,1.25565 7.79157,2.1651 10.91601,2.36133 2.00121,0.12569 4.98826,3.51856 5.50586,7.82226 0.59339,4.93392 0.63086,14.42969 0.63086,14.42969 0,0 1.00505,-9.40789 1.53907,-14.72266 0.44213,-4.40011 2.71644,-7.58565 3.43359,-8.34765 2.39941,-2.54949 4.22601,-4.75917 5.15625,-8.06446 1.51019,0.73857 3.13448,1.94646 3.69336,8.23047 l 5.17187,3.57032 c 0.30905,0.19623 5.49986,3.70367 8.51954,5.875 3.12133,2.24441 9.63594,7.25216 12.64062,8.27929 16.65055,3.90377 24.82449,6.8609 39.90234,11.72071 5.46601,1.84926 8.43383,3.41424 10.9961,5.65039 4.76149,13.1701 6.59014,26.73466 7.97656,40.66992 -4.31074,-0.94094 -74.32658,-6.90302 -93.22266,-7.03125 -50.46096,-0.34243 -110.12143,2.14308 -160.55078,4.67969 -0.94196,-2.13918 -1.15453,-2.3216 -2.11523,-3.98828 -1.67036,-2.89787 -7.261721,-11.57422 -7.261721,-11.57422 1.934482,4.8572 6.392581,16.98046 6.392581,16.98046 -30.670939,16.18396 -34.929227,18.26779 -52.623049,27.78126 -3.553855,-2.3426 -5.55784,-3.38329 -9.556641,-6.32813 5.876841,-26.71753 9.724929,-38.11537 22.722656,-64.23633 2.249766,-0.30739 11.169481,1.18151 15.539063,4.76563 3.130034,2.81099 8.891039,8.71814 11.429687,11.38476 -3.599324,-6.23419 -6.747702,-10.29858 -11.697265,-14.91601 -5.483177,-3.3559 -8.157911,-4.72619 -12.546875,-4.42578 6.410474,-3.26284 36.848374,-14.78646 43.904294,-17.34961 7.05597,-2.5632 20.61949,-5.91788 28.88086,-8.82032 8.26136,-2.90239 12.88737,-5.68053 18.28516,-8.47461 5.39775,-2.79402 13.44505,-6.45282 17.65625,-9.25 l 9.09961,-5.64453 c 3.36994,-2.09037 6.82591,-10.4371 8.36523,-14.73437 0.0686,-0.1915 -0.24755,-1.42658 0.28906,-2.24219 0.51218,-0.77847 1.46091,-0.68423 1.55079,-0.82031 z m 162.63476,78.83008 c 3.67487,5.22415 7.63844,12.20472 10.17383,18.36328 3.23988,7.86978 3.97749,10.0956 5.89258,17.91992 1.45889,5.96048 2.22458,7.84928 3.02148,13.30469 0.0865,0.59238 -8.72606,-9.70411 -12.30664,-13.53516 -0.63349,-12.2342 -5.22305,-31.60126 -6.78125,-36.05273 z m 6.82031,39.3457 c 0.31949,0.3166 1.05429,1.15736 1.48243,1.61133 -0.0886,2.44657 -0.49975,13.60378 -0.9629,19.97851 -0.0909,1.25131 -0.28853,2.86972 -0.51367,4.51953 -0.003,-0.85189 -0.008,-1.88074 -0.0215,-2.46289 -0.21736,-9.1983 0.22961,-22.28682 0.0156,-23.64648 z"
       sodipodi:nodetypes="ccccssccccccscccsccscscsccsssccsccscscscsscssccsccsccsscscccsscscsscccssssssscsscccsccccscscccccccccssscsssscsssccccsccc" /><path
       d="m 31.482052,395.28734 c 0.446666,2.49334 1.180614,2.08466 1.540614,4.67933 h 20.166666 c 0.196,-3.43334 -0.168,-7.00134 -0.09067,-10.296 0.142667,-6.028 1.809568,-11.8813 2.717568,-17.83597 1.664043,-10.89316 4.390792,-21.53944 8.717099,-31.40937 5.682623,-10.91971 7.04473,-14.96286 12.227828,-24.25379 8.061621,-9.83474 8.681112,-10.66445 17.276729,-16.04664 9.830784,-5.05831 15.433984,-7.8084 26.708774,-12.5209 12.06134,-4.93733 26.01867,-8.93733 38.75867,-12.128 2.82667,-0.80533 5.532,-1.54666 8.11733,-2.22666 28.43467,-7.48134 48.85975,-10.78844 48.85975,-10.78844 0,0 -11.6028,-5.51607 -20.87346,-16.6534 -3.08933,-3.71334 -4.36478,-4.90732 -7.25392,-8.99734 -2.88884,-4.0896 -4.18242,-5.97094 -6.46852,-12.06345 -6.75333,2.5483 -27.67151,10.773 -49.25951,23.06767 -18.69995,5.86575 -35.845712,11.49837 -55.441672,20.31762 -6.939001,2.88838 -12.359196,4.7333 -15.263196,7.33997 -9.815593,11.6216 -13.675677,21.85662 -18.57202,40.35778 -3.949413,17.25627 -7.765364,34.88594 -9.352248,49.71932 -1.108,6.50533 -0.995824,8.39911 -2.471784,17.39312 0.117676,5.33145 -0.859554,8.65545 -0.283552,11.86611"
       style="opacity:0.199997;fill:#000000;fill-opacity:1;fill-rule:nonzero;stroke:none;stroke-width:1.33333"
       id="path283392"
       sodipodi:nodetypes="cccccccccccccscccccccc" /><path
       style="fill:#000000;fill-opacity:0.2;stroke:none;stroke-width:1px;stroke-linecap:butt;stroke-linejoin:miter;stroke-opacity:1"
       d="m 227.47291,267.71555 c 0,0 22.27771,5.4179 32.19424,5.06066 7.62637,-0.27474 10.81946,-6.3392 10.81946,-6.3392 0,0 -3.19887,8.67402 -10.86378,8.98111 -10.46769,0.41938 -32.14992,-7.70257 -32.14992,-7.70257 z"
       id="path1"
       sodipodi:nodetypes="cscsc" /><path
       style="color:#000000;fill:#000000;-inkscape-stroke:none"
       d="m 191.73437,210.06445 -1.91601,1.60547 c 0,0 6.37748,7.6205 10.03516,11.22852 6.11946,6.03639 12.19369,12.57281 19.77343,17.16601 7.72111,4.67887 16.42679,7.45525 24.97071,9.81641 1.79016,0.49472 3.50149,0.54685 4.97656,0.75 1.47507,0.20315 2.66488,0.52056 3.6875,1.37695 0.819,0.68589 1.13673,1.54892 1.3164,2.76953 0.17968,1.22061 0.15087,2.71522 0.34571,4.28125 0.36509,2.9345 0.084,9.4668 0.084,9.4668 l -0.0391,0.78711 0.69531,0.37305 c 0,0 0.52123,0.28192 1.16602,0.55078 0.64478,0.26885 1.29255,0.63567 2.32617,0.50195 0.84541,-0.10933 1.22484,-0.49099 1.60156,-0.78125 0.12175,-0.0938 0.11706,-0.10153 0.21289,-0.18359 0.39423,0.0963 0.69389,0.24336 1.47266,0.14258 0.88017,-0.11392 2.18555,-0.37891 2.18555,-0.37891 l 0.86914,-0.17578 0.12304,-0.87696 c 0,0 0.57885,-4.03282 0.65039,-6.25195 0.0885,-2.74364 0.0777,-6.49532 0.76758,-8.70898 0.52431,-1.68249 1.62912,-3.43734 2.85547,-4.84961 2.73013,-3.14405 5.6875,-7.92188 5.6875,-7.92188 0,0 -1.49671,-1.79568 -3.12762,-2.32488 0.50617,1.91504 -0.13452,3.46029 -4.44855,8.60809 -1.37425,1.63985 -2.68676,3.59825 -3.35547,5.74414 -0.90919,2.91755 -0.79221,6.74487 -0.87695,9.37304 -0.0509,1.57997 -0.40909,4.15876 -0.53321,5.08789 -0.43957,0.0817 -0.73683,0.14609 -1.11718,0.19532 -0.19515,0.0253 -1.26368,-0.15235 -1.26368,-0.15235 l -0.67968,-0.17578 -0.50196,0.48828 c 0,0 -0.19521,0.18817 -0.44531,0.38086 -0.2501,0.1927 -0.64416,0.31328 -0.39648,0.28125 0.1948,-0.0252 -0.5276,-0.11518 -1.04297,-0.33008 -0.14362,-0.0599 -0.14086,-0.0661 -0.26367,-0.12304 0.0555,-1.19691 0.25996,-5.96046 -0.125,-9.05469 -0.16416,-1.31947 -0.12808,-2.81771 -0.35157,-4.33594 -0.22348,-1.51822 -0.77528,-3.14123 -2.18554,-4.32226 -1.5327,-1.28356 -3.30397,-1.71038 -4.95313,-1.9375 -1.64915,-0.22712 -3.22796,-0.2905 -4.65039,-0.6836 -8.47782,-2.34289 -16.9598,-5.07154 -24.3418,-9.54492 -7.18349,-4.35308 -13.14249,-10.72038 -19.3125,-16.80664 -3.43338,-3.38677 -9.875,-11.05469 -9.875,-11.05469 z"
       id="path2"
       sodipodi:nodetypes="ccssssssscccssscscccsssccssscscccssscssssssscc" /><path
       id="path166529"
       style="opacity:0.199997;fill:#000000;fill-opacity:1;fill-rule:nonzero;stroke:none;stroke-width:1.27278"
       d="m 364.20898,316.29297 c 0,0 -0.51842,11.30538 -1.40429,19.60351 l -0.10938,-11.30664 -17.22265,-2.74609 c 2.26813,3.14343 7.703,18.54845 9.25195,23.66992 4.4067,14.57037 7.96852,25.91997 3.92187,35.57422 -2.43398,5.80684 -5.63421,6.92559 -11.43554,9.89258 -6.76132,3.45662 -14.76536,3.91156 -22.5,3.43164 -10.15465,-0.63058 -19.59261,-5.09891 -29.53125,-6.14258 -9.44665,-0.99264 -20.41779,3.21967 -29.50977,5.38477 -18.11196,4.31074 -37.14394,4.82095 -55.82812,2.50781 -19.64478,-2.43206 -43.92724,-7.42556 -51.04883,-19.6875 -4.36665,-7.51847 -4.81298,-16.1512 -5.83789,-24.55664 -0.78314,-7.17835 4.18152,-28.68042 5.47656,-31.76172 l -50.99219,2.24414 5.02735,21.88086 c 3.8095,20.16056 6.2957,36.34004 7.02343,55.70898 L 370.15234,400 c 0.087,0 0.17319,-0.13497 0.25782,-0.26172 V 400 h 5.11523 c 0,0 -0.25866,-7.75494 -0.73047,-11.32422 -0.41721,-3.1562 -1.32366,-8.13089 -2.19531,-11.60937 -0.35084,-1.4001 -0.25844,-2.78982 -0.12695,-3.42969 0.59693,-2.9048 1.00535,-5.56004 1.03515,-8.52539 0.0372,-3.69539 -0.51758,-10.07227 -0.51758,-10.07227 0,0 -0.79417,2.90121 -1.41992,4.26172 -0.62936,1.36836 -2.25976,5.94141 -2.25976,5.94141 0,0 1.14688,-7.62656 1.74414,-10.07422 0.89273,-3.65854 1.83083,-7.09111 2.0664,-10.84961 0.2293,-3.65845 -0.25976,-10.46094 -0.25976,-10.46094 0,0 -0.78894,3.45331 -1.54883,5.03711 -0.63015,1.31339 -2.02252,4.69199 -2.32617,4.65039 -0.97262,-0.13322 -0.64076,-2.21571 -0.77344,-2.8418 -0.95761,-4.5189 -0.23329,-9.27082 -1.0332,-13.82031 -0.6349,-3.61098 -2.97071,-10.58984 -2.97071,-10.58984 z"
       sodipodi:nodetypes="ccccssccccsscccccccccsssscscsscssssc" /><g
       id="g6"><ellipse
         style="fill:#fbb03b;fill-opacity:1;fill-rule:evenodd;stroke:#000000;stroke-width:1.32111;stroke-linecap:round;stroke-linejoin:round;stroke-miterlimit:40;stroke-dasharray:none;stroke-opacity:1"
         id="path1-3"
         cx="282.30334"
         cy="380.85043"
         rx="16.071701"
         ry="11.732766"
         transform="matrix(1,0,0.13917311,0.99026807,0,0)" /><path
         id="ellipse2"
         style="fill:#ffffff;fill-opacity:0.3;fill-rule:evenodd;stroke:none;stroke-width:0.424019;stroke-linecap:round;stroke-linejoin:round;stroke-miterlimit:40;stroke-dasharray:none;stroke-opacity:1"
         d="m 333.78656,366.52754 a 15.104786,10.509259 7.9520897 0 0 -13.43381,10.61591 15.104786,10.509259 7.9520897 0 0 14.23477,10.48723 15.104786,10.509259 7.9520897 0 1 -11.88039,-10.09797 15.104786,10.509259 7.9520897 0 1 13.43381,-10.61589 15.104786,10.509259 7.9520897 0 1 2.33272,0.13039 15.104786,10.509259 7.9520897 0 0 -4.6871,-0.51967 z" /><path
         id="ellipse3"
         style="fill:#000000;fill-opacity:0.2;fill-rule:evenodd;stroke:none;stroke-width:0.422913;stroke-linecap:round;stroke-linejoin:round;stroke-miterlimit:40;stroke-dasharray:none;stroke-opacity:1"
         d="m 339.00042,367.20094 a 15.065315,10.481797 7.9520901 0 1 6.56377,8.15207 15.065315,10.481797 7.9520901 0 1 -13.39863,10.58826 15.065315,10.481797 7.9520901 0 1 -5.19499,-0.65978 15.065315,10.481797 7.9520901 0 0 9.85049,2.45023 15.065315,10.481797 7.9520901 0 0 13.39863,-10.58827 15.065315,10.481797 7.9520901 0 0 -11.21927,-9.94251 z" /><path
         id="ellipse4"
         style="fill:#000000;fill-opacity:0.2;fill-rule:evenodd;stroke:none;stroke-width:0.427343;stroke-linecap:round;stroke-linejoin:round;stroke-miterlimit:40;stroke-dasharray:none;stroke-opacity:1"
         d="m 328.56113,367.14977 a 15.223199,10.591646 7.9520886 0 0 -8.32556,9.99368 15.223199,10.591646 7.9520886 0 0 7.24172,8.54652 15.543486,10.814487 7.9520883 0 1 -6.91355,-8.46859 15.543486,10.814487 7.9520883 0 1 7.99739,-10.07161 z" /><path
         style="fill:#999999;fill-opacity:1;stroke:#000000;stroke-width:1.31467;stroke-linecap:butt;stroke-linejoin:miter;stroke-miterlimit:20;stroke-dasharray:none;stroke-opacity:1"
         d="m 325.53607,392.42799 c -0.10533,-16.11218 1.77798,-28.28046 6.65927,-40.02049 8.12794,13.08946 13.5775,25.39268 18.01253,39.85856 -4.05617,-6.58521 -10.24621,-16.23798 -13.23249,-16.21657 -4.34266,0.0312 -8.5066,8.63278 -11.43931,16.3785 z"
         id="path2-8"
         sodipodi:nodetypes="cccsc" /></g><path
       style="color:#000000;fill:#000000;-inkscape-stroke:none"
       d="m 111.18346,334.7213 -1.64648,0.72656 c 8.52247,19.31478 14.81621,41.81974 18.59779,64.55214 h 1.77539 c -3.79534,-22.81513 -10.11505,-45.76183 -18.7267,-65.2787 z"
       id="path4"
       sodipodi:nodetypes="ccccc" /></g></svg>
