<?xml version="1.0" encoding="UTF-8" standalone="no"?>
<!-- Created with Inkscape (http://www.inkscape.org/) -->

<svg
   version="1.1"
   id="svg171226"
   width="400"
   height="400"
   viewBox="0 0 400 400"
   sodipodi:docname="tngAverageMale.svg"
   inkscape:version="1.3.1 (91b66b0, 2023-11-16)"
   xml:space="preserve"
   xmlns:inkscape="http://www.inkscape.org/namespaces/inkscape"
   xmlns:sodipodi="http://sodipodi.sourceforge.net/DTD/sodipodi-0.dtd"
   xmlns="http://www.w3.org/2000/svg"
   xmlns:svg="http://www.w3.org/2000/svg"><defs
     id="defs171230" /><sodipodi:namedview
     id="namedview171228"
     pagecolor="#ffffff"
     bordercolor="#666666"
     borderopacity="1.0"
     inkscape:showpageshadow="2"
     inkscape:pageopacity="0.0"
     inkscape:pagecheckerboard="0"
     inkscape:deskcolor="#d1d1d1"
     showgrid="false"
     inkscape:zoom="2.33"
     inkscape:cx="200"
     inkscape:cy="200"
     inkscape:window-width="1920"
     inkscape:window-height="1145"
     inkscape:window-x="2435"
     inkscape:window-y="59"
     inkscape:window-maximized="0"
     inkscape:current-layer="g171234"><inkscape:page
       x="0"
       y="0"
       id="page171232"
       width="400"
       height="400"
       margin="0"
       bleed="0" /></sodipodi:namedview><g
     inkscape:groupmode="layer"
     id="layer1"
     inkscape:label="Neck"
     style="display:none"><path
       d="m 213.63253,151.29441 -13.54934,47.14666 c 0,0 12.42667,24.85333 21.464,31.49067 9.03734,6.636 24.148,15.816 35.02134,17.228 l 3.67066,3.67066 2.82534,-2.824 5.224,-2.25866 3.81333,-10.87467 18.428,-23.08667 z"
       style="display:inline;fill:#cd976d;fill-opacity:1;fill-rule:nonzero;stroke:none;stroke-width:1.33333"
       id="path171974" /><path
       d="m 200.08306,198.44081 c 0,0 12.86667,21.57066 17.836,27.06399 4.96933,5.49334 32.696,1.83067 40.54267,4.18534 6.33866,1.90133 13.09866,2.66533 15.47066,2.89066 l 16.59734,-20.79333 -76.89734,-60.49333 z"
       style="display:inline;opacity:0.199997;fill:#000000;fill-opacity:1;fill-rule:nonzero;stroke:none;stroke-width:1.33333"
       id="path171984" /><path
       d="m 211.64493,149.52841 c -1.01067,4.99733 -6.2,23.82533 -7.36934,28.788 -0.956,4.064 -1.95733,8.11866 -3.072,12.14266 -0.516,1.85867 -1.07466,3.70267 -1.63333,5.54934 -0.18666,0.616 -0.95466,1.86266 -0.88133,2.47466 0.02,0.16934 0.80667,2.38267 1.11067,1.93733 3.68799,-5.38666 5.03733,-14.18666 7.12666,-20.38133 1.49067,-4.41866 7.06133,-22.68666 8.552,-27.104 0,0 -3.83333,-3.40666 -3.83333,-3.40666"
       style="display:inline;fill:#000000;fill-opacity:1;fill-rule:nonzero;stroke:none;stroke-width:1.33333"
       id="path171994" /><path
       d="m 293.27599,213.31907 c -2.83733,2.044 -16.28266,19.912 -18.592,22.53067 -1.87866,2.13066 -4.41733,10.85066 -7.52933,10.948 -2.104,0.0653 -1.74133,-3.72534 -1.19333,-5.332 0.26266,-0.76934 21.288,-30.90934 21.288,-30.90934 0,0 6.02666,2.76267 6.02666,2.76267"
       style="display:inline;fill:#000000;fill-opacity:1;fill-rule:nonzero;stroke:none;stroke-width:1.33333"
       id="path171998" /></g><g
     id="g171234"
     inkscape:groupmode="layer"
     inkscape:label="Page 1"
     style="display:inline"><path
       d="M 384.67959,369.10547 385.69026,399.9668 25.664768,400 35.482889,333.94153 c 0,0 13.301843,17.23559 15.841776,17.3496 3.543486,0.15905 35.879451,-14.97391 64.102465,-28.15851 0,0 81.61182,-9.82586 157.46382,-8.25653 75.85333,1.56933 96.76434,4.88962 96.76434,4.88962 l 11.82508,8.54139 z"
       style="fill:#d30000;fill-opacity:1;fill-rule:nonzero;stroke:none;stroke-width:1.33333"
       id="path171962"
       sodipodi:nodetypes="ccccscsccc" /><path
       id="path171958"
       style="fill:#2d2d2d;fill-opacity:1;fill-rule:nonzero;stroke:none;stroke-width:1.33333"
       d="m 192.76758,196.34766 c -7.7246,6.31636 -10.02584,10.26814 -18.35742,12.90039 l -40.91407,18.8789 -38.587887,22.54883 -11.855469,6.04297 -6.742187,6.27734 -9.458985,6.82422 c -11.834754,12.45087 -19.196031,25.30386 -24.970703,40.91211 l -7.462178,22.85516 17.819366,19.29791 c 0,0 37.46611,-17.65617 61.569973,-29.92078 L 122.21094,400 h 9.0664 l -4.45312,-22.53125 -3.38086,-15.7207 -2.63867,-9.23633 c 0.30262,-0.25153 -4.71324,-29.26047 -4.42145,-29.51122 53.72766,-5.36401 104.8349,-7.25304 160.40197,-8.7558 l 90.80653,4.94883 3.09318,1.36905 10.99048,6.91199 c -1.21253,-12.5683 -3.41046,-22.47421 -6.53868,-37.51363 -2.78933,-9.06531 -4.292,-11.15774 -12.44531,-16.03906 -8.15467,-4.88133 -35.12648,-17.13343 -45.54883,-21.61915 -9.84364,-4.23663 -26.81508,-12.73545 -37.03906,-17.07812 l -6.62305,-1.67773 c -2.64213,3.06419 -4.412,6.82385 -6.80078,10.1621 l -3.40039,1.93555 c -0.69719,0.19762 -1.30276,2.4575 -2.02296,2.51371 -1.77464,0.1385 -3.70108,-2.21955 -5.43993,-2.39457 -10.87331,-1.412 -25.23027,-9.19472 -34.26758,-15.83203 -9.03865,-6.63732 -26.53516,-28.7168 -26.53516,-28.7168 -0.49631,-1.46118 -1.31633,-3.67197 -2.24609,-4.86718 z"
       sodipodi:nodetypes="cccccccccccccccccccccccsccccscccc" /><path
       d="m 192.73003,234.86425 c -12.10594,-14.48609 -14.63206,-25.65056 -14.63206,-25.65056 l 14.20751,-12.90486 2.24533,3.81466 c 1.44407,13.03706 11.95042,21.57799 20.29442,29.80199 7.41067,7.304 15.80179,14.11347 24.76343,17.04586 4.20667,1.052 3.568,11.54666 3.352,13.924 -0.216,2.37733 -9.3,8.028 -23.44933,-1.928 -4.76,-3.34934 -14.58897,-9.51363 -26.7813,-24.10309 z"
       style="opacity:0.199997;fill:#000000;fill-opacity:1;fill-rule:nonzero;stroke:none;stroke-width:1.33333"
       id="path172060"
       sodipodi:nodetypes="scccccscs" /><path
       d="m 177.38371,209.31698 c -14.59807,5.14857 -29.58061,12.35236 -43.88675,18.80982 l -38.589332,22.54934 -11.854667,6.044 -6.742666,6.276 -9.458667,6.824 -8.589333,6.69866 -18.386504,37.68383 C 33.495726,340.01066 28.912069,364.86061 26.4841,391.98601 L 26.678065,400 h 29.32244 c 21.624703,-77.54889 34.366618,-92.52242 41.105648,-98.36756 6.739027,-5.84515 15.611687,-9.92638 23.283687,-12.71571 67.72267,-24.62667 99.84217,-27.94269 99.84217,-27.94269 -23.41857,-16.92422 -34.30021,-28.81499 -42.8483,-51.65706 z"
       style="display:inline;opacity:0.199997;fill:#000000;fill-opacity:1;fill-rule:nonzero;stroke:none;stroke-width:1.33333"
       id="path172176"
       sodipodi:nodetypes="ccccccccccczccc" /><path
       d="m 166.13752,318.60573 c -16.61171,1.02229 -33.79394,2.24272 -50.32061,4.18441 0,0 4.8626,53.87369 6.74309,77.20986 h 26.61447 c 1.04,-22.69333 1.14319,-35.26003 3.72295,-45.71763 2.13712,-8.66324 9.49218,-33.53955 13.2401,-35.67664 z"
       style="opacity:0.199997;fill:#000000;fill-opacity:1;fill-rule:nonzero;stroke:none;stroke-width:1.33333"
       id="path172192"
       sodipodi:nodetypes="ccccsc" /><path
       style="opacity:0.2;fill:#000000;fill-opacity:1;stroke:none;stroke-width:0.911631px;stroke-linecap:butt;stroke-linejoin:miter;stroke-opacity:1"
       d="m 368.8468,341.20934 c 0,0 4.77388,36.55841 5.6867,45.51056 0.91282,8.95215 1.28756,13.2801 1.28756,13.2801 H 366.379 Z"
       id="path2"
       sodipodi:nodetypes="czccc" /><path
       style="color:#000000;fill:#000000;-inkscape-stroke:none"
       d="m 116.91602,331.40039 -1.36719,0.30273 c 0,0 6.60519,28.32015 9.72002,42.48022 C 127.16184,382.7889 130.57227,400 130.57227,400 h 1.36523 c 0,0 -3.36602,-17.48497 -5.23985,-26.18782 -3.05386,-14.18335 -9.78163,-42.41179 -9.78163,-42.41179 z"
       id="path1"
       sodipodi:nodetypes="ccsccsc" /><path
       style="display:inline;fill:#d30000;fill-opacity:1;stroke:none;stroke-width:1px;stroke-linecap:butt;stroke-linejoin:miter;stroke-opacity:1"
       d="m 188.05524,203.61303 2.55708,-5.84474 9.04109,11.59817 14.7032,13.33333 23.44365,18.68497 12.96803,3.10503 7.21461,1.46118 3.92695,5.93608 1.04919,-5.17804 5.61747,-4.68498 2.19178,-4.10959 0.54795,-3.01369 4.01826,5.2968 -0.63927,2.55708 -4.84018,6.39269 -3.28767,5.20548 -0.18265,10.13699 -0.27397,4.10959 -2.83105,0.45662 -1.64384,0.0913 -1.73516,1.09589 -2.46575,-1.00456 -0.45662,-14.42923 -1.64384,-3.74429 -4.84018,-1.09589 -18.44749,-5.11416 -18.23677,-13.25469 -11.3256,-11.64032 -12.78539,-13.42466 z"
       id="path3"
       sodipodi:nodetypes="cccccccccccccccccccccccccccccc" /><path
       style="color:#000000;display:inline;fill:#000000;-inkscape-stroke:none"
       d="m 186.77981,202.68862 c 0,0 10.55032,14.67639 14.208,18.28441 6.11946,6.03639 12.28437,12.36851 19.63089,17.32617 7.69429,5.19234 16.79694,9.87467 25.34086,12.23583 1.79016,0.49472 3.50149,0.54685 4.97656,0.75 1.47507,0.20315 2.66488,0.52056 3.6875,1.37695 0.819,0.68589 1.13673,1.54892 1.3164,2.76953 0.17968,1.22061 0.15087,2.71522 0.34571,4.28125 0.36509,2.9345 0.084,9.4668 0.084,9.4668 l -0.0391,0.78711 0.69531,0.37305 c 0,0 0.52123,0.28192 1.16602,0.55078 0.64478,0.26885 1.29255,0.63567 2.32617,0.50195 0.84541,-0.10933 1.22484,-0.49099 1.60156,-0.78125 0.12175,-0.0938 0.11706,-0.10153 0.21289,-0.18359 0.39423,0.0963 0.69389,0.24336 1.47266,0.14258 0.88017,-0.11392 2.18555,-0.37891 2.18555,-0.37891 l 0.86914,-0.17578 0.12304,-0.87696 c 0,0 0.57885,-4.03282 0.65039,-6.25195 0.0885,-2.74364 0.0777,-6.49532 0.76758,-8.70898 0.52431,-1.68249 1.62912,-3.43734 2.85547,-4.84961 2.73013,-3.14405 5.6875,-7.92188 5.6875,-7.92188 0,0 -1.49671,-1.79568 -3.12762,-2.32488 0.50617,1.91504 -0.13452,3.46029 -4.44855,8.60809 -1.37425,1.63985 -2.68676,3.59825 -3.35547,5.74414 -0.90919,2.91755 -0.79221,6.74487 -0.87695,9.37304 -0.0509,1.57997 -0.40909,4.15876 -0.53321,5.08789 -0.4206,0.21447 -0.73683,0.29783 -1.11718,0.34706 -0.66429,-0.007 -1.172,-0.1276 -1.79162,-0.47987 -0.334,0.40405 -0.78876,1.10355 -1.49549,1.15039 -0.43975,0.0291 -0.90702,-0.23816 -1.30664,-0.45312 0.0555,-1.19691 0.25996,-5.96046 -0.125,-9.05469 -0.16416,-1.31947 -0.12808,-2.81771 -0.35157,-4.33594 -0.22348,-1.51822 -0.77528,-3.14123 -2.18554,-4.32226 -1.5327,-1.28356 -3.30397,-1.71038 -4.95313,-1.9375 -1.64915,-0.22712 -3.22796,-0.2905 -4.65039,-0.6836 -8.47782,-2.34289 -17.40582,-6.99051 -24.71195,-11.96434 -6.94327,-4.72681 -12.99994,-10.88055 -19.16996,-16.9668 -2.84032,-2.80176 -10.56832,-13.2013 -13.16261,-16.76601 -0.54169,-0.74431 -0.2016,-1.58059 -0.2016,-1.58059 z"
       id="path2-4"
       sodipodi:nodetypes="cssssssscccssscscccsssccssscscscsssssssscc" /><path
       style="display:inline;fill:#000000;fill-opacity:0.2;stroke:none;stroke-width:1px;stroke-linecap:butt;stroke-linejoin:miter;stroke-opacity:1"
       d="m 230.00274,267.69308 c 0,0 22.27771,5.4179 32.19424,5.06066 7.62637,-0.27474 10.81946,-6.3392 10.81946,-6.3392 0,0 -3.19887,8.67402 -10.86378,8.98111 -10.46769,0.41938 -32.14992,-7.70257 -32.14992,-7.70257 z"
       id="path1-6"
       sodipodi:nodetypes="cscsc" /><path
       id="path172002"
       style="fill:#000000;fill-opacity:1;fill-rule:nonzero;stroke:none;stroke-width:1.33333"
       d="m 191.79883,195.08398 c -0.92263,-0.14824 -1.90365,0.11663 -2.48047,1 -1.35812,2.07992 -4.78197,6.01277 -11.30274,10.98829 -4.60037,1.52065 -21.07642,7.22857 -51.98046,25.10546 -16.79062,9.71196 -32.650936,18.88602 -36.656254,20.38868 -8.445297,3.16663 -14.804243,9.80901 -15.878906,11.40234 -1.077329,0.63733 -5.047707,1.38449 -8.318359,3.61914 -9.855832,5.31259 -21.475281,23.52657 -28.478516,46.72656 C 30.984404,333.25918 24.036081,390.94615 23.314453,400 l 4.236328,-0.21484 9.425781,-61.22071 c 0,0 12.24553,15.7927 13.800782,16.84766 1.966899,-0.89456 38.703231,-18.16012 63.119136,-30.2832 2.9365,34.67358 3.72081,44.63773 5.89063,74.87109 h 3.92383 c -1.17913,-16.44993 -6.04753,-70.48162 -6.72461,-75.29492 -0.76485,-5.43722 144.00602,-9.27797 153.88281,-8.94922 35.69468,1.1881 62.56719,2.8879 98.26367,5.23437 -0.10396,1.99614 0.15612,3.9796 -0.0351,5.83594 0,0 0.28552,-2.3125 0.625,-5.77539 l 10.83203,7.47266 c 1.81855,14.56464 1.68284,27.60318 1.85742,39.08203 0.17459,11.47886 0.56551,19.79071 0.35351,32.36133 h 4.39063 c -0.50644,-23.28742 -0.81785,-38.92338 -2.77344,-60.10352 -1.5253,-16.51985 -7.14127,-54.01361 -13.22656,-60.71094 -7.53596,-8.29863 -41.69839,-22.24905 -51.86523,-26.61132 -8.09012,-3.47122 -15.92181,-7.33499 -23.70313,-11.09766 -5.24502,-2.73058 -10.54784,-5.45851 -15.44141,-8.24219 -1.4368,-0.81733 -7.59141,-2.47522 -9.05273,-1.33789 -1.98933,1.54665 -2.06944,3.5608 -2.75781,6.41406 -0.72128,2.9897 -2.34159,3.97922 -4.96094,5.18946 -1.47239,0.6803 -2.32422,3.66406 -2.32422,3.66406 0,0 -1.34728,-3.2045 -2.73828,-3.30859 -0.99492,-0.0745 -1.6659,-0.19971 -2.51562,-0.29102 -14.74077,-1.58415 -23.93126,-8.13378 -33.57032,-15.84961 -17.21634,-13.78129 -28.13712,-30.81213 -28.29687,-31.11719 -0.34373,-0.77113 -1.20823,-1.33223 -2.13086,-1.48047 z m -0.64453,4.92774 c 0.45936,0.096 0.91243,0.41868 1.26172,0.93359 7.43797,10.96509 15.33548,19.66069 26.80078,28.98438 10.32668,8.39774 20.26446,14.84226 35.5039,16.75781 1.12618,0.0669 3.97111,0.62564 4.66211,1.60938 2.5759,3.66718 1.95477,20.29348 2.3125,20.21874 0.27005,-0.0564 -0.61734,-20.01962 1.53321,-21.23046 1.57265,-0.79117 3.78793,-2.19655 5.04296,-3.79493 2.04363,-2.6027 3.26578,-5.72252 3.77149,-5.30664 1.49013,0.97139 2.30369,4.51092 3.24414,7.71094 -0.10337,0.4479 -0.27264,0.89049 -0.52539,1.32813 -0.792,1.37466 -3.94873,4.11953 -4.41406,5.74218 -0.65467,2.28 -0.90752,4.53043 -1.10352,6.84375 -0.19333,2.27067 0.13581,3.42783 1.00781,5.64649 0.8752,-5.05178 1.34785,-9.16402 4.7039,-13.8086 1.05766,-1.46374 2.22513,-3.02591 3.12618,-4.51367 0.25032,-0.41332 0.61727,-2.01164 0.83594,-2.43164 1.3,-2.49333 -3.40059,-6.73673 -4.16992,-8.91406 -0.044,-0.124 -0.58709,-1.22469 1.32422,-1.30469 1.91129,-0.08 7.74441,3.57111 11.125,5.34375 10.85854,5.69379 20.37321,10.86599 31.30859,15.70703 9.32352,4.1275 41.35761,17.48942 49.37305,25.1875 0.5048,5.21499 1.71127,23.39105 1.41992,37.79688 0,0 -63.71409,-6.61273 -98.40235,-6.40625 -49.79724,0.29642 -119.91418,4.20381 -154.77929,7.625 -2.56557,-3.38766 -3.6361,-6.65948 -7.74219,-12.72461 2.74128,7.12543 3.88391,9.08887 5.11133,13.51758 -11.81183,6.55228 -38.701916,19.18099 -62.308596,29.95898 -4.621081,-4.23802 -8.783583,-10.72038 -13.285156,-17.23242 2.378181,-14.18773 6.479928,-29.46113 11.34375,-38.94727 4.886233,-9.52984 10.972276,-16.48063 17.289063,-23.02148 7.085305,-7.33662 23.557391,3.63854 27.609375,9.20117 0.306663,-1.03467 -0.15526,-2.13012 -0.669922,-3.07812 -2.467992,-4.544 -6.364402,-7.99576 -10.761719,-10.6211 -1.478663,-0.88133 -3.620254,-1.56847 -4.65625,-2.98047 -0.306667,-0.42 11.426613,-7.80136 12.474609,-8.19336 4.258651,-1.5973 19.498656,-10.41251 37.142576,-20.61914 19.56658,-11.31725 38.69721,-21.41223 43.04883,-22.87109 4.29381,-1.43948 5.50759,-1.71988 7.97266,-2.4707 5.20005,-3.00809 8.08571,-5.87399 11.17578,-9.20899 0.36847,-0.39767 0.8336,-0.52963 1.29297,-0.43359 z m 179.0664,83.6543 c 3.46633,7.32579 7.69101,26.42255 10.05469,42.83203 l -10.3125,-7.80078 c 0.71017,-8.23175 1.42569,-21.62798 0.25781,-35.03125 z m -1.12304,48.41992 c -0.82447,7.33018 -1.20056,11.63615 -1.55664,16.15234 -1.18566,15.03802 -1.88906,16.90032 -4.48243,51.76172 h 5.375 c 0.78239,-14.89761 0.3287,-27.03836 0.5293,-51.49805 0.0648,-7.90657 0.13477,-16.41601 0.13477,-16.41601 z"
       sodipodi:nodetypes="sscccccscccccccssccccsccscscscsscscscsscscsscsccccccssccsssccscccccssccccccscsscccccsccsc" /><g
       id="g1"><ellipse
         style="fill:#fbb03b;fill-opacity:1;fill-rule:evenodd;stroke:#000000;stroke-width:1.31507;stroke-linecap:round;stroke-linejoin:round;stroke-miterlimit:40;stroke-dasharray:none;stroke-opacity:1"
         id="path1-3"
         cx="347.92233"
         cy="377.3739"
         rx="16.071701"
         ry="11.625666"
         transform="matrix(1,0,-0.03489948,0.99939083,0,0)" /><path
         id="ellipse2"
         style="fill:#ffffff;fill-opacity:0.3;fill-rule:evenodd;stroke:none;stroke-width:0.424019;stroke-linecap:round;stroke-linejoin:round;stroke-miterlimit:40;stroke-dasharray:none;stroke-opacity:1"
         d="m 335.09405,366.52754 a 10.610268,14.960989 88.12092 0 0 -15.2965,10.61591 10.610268,14.960989 88.12092 0 0 12.39467,10.48723 10.610268,14.960989 88.12092 0 1 -10.10859,-10.09797 10.610268,14.960989 88.12092 0 1 15.29649,-10.61589 10.610268,14.960989 88.12092 0 1 2.30985,0.13039 10.610268,14.960989 88.12092 0 0 -4.59592,-0.51967 z" /><path
         id="ellipse3"
         style="fill:#000000;fill-opacity:0.2;fill-rule:evenodd;stroke:none;stroke-width:0.422913;stroke-linecap:round;stroke-linejoin:round;stroke-miterlimit:40;stroke-dasharray:none;stroke-opacity:1"
         d="m 340.18975,367.20094 a 10.582543,14.921894 88.120919 0 1 5.1334,8.15207 10.582543,14.921894 88.120919 0 1 -15.25647,10.58826 10.582543,14.921894 88.120919 0 1 -5.07922,-0.65978 10.582543,14.921894 88.120919 0 0 9.42057,2.45023 10.582543,14.921894 88.120919 0 0 15.25646,-10.58827 10.582543,14.921894 88.120919 0 0 -9.47474,-9.94251 z" /><path
         id="ellipse4"
         style="fill:#000000;fill-opacity:0.2;fill-rule:evenodd;stroke:none;stroke-width:0.427343;stroke-linecap:round;stroke-linejoin:round;stroke-miterlimit:40;stroke-dasharray:none;stroke-opacity:1"
         d="m 329.75944,367.14977 a 10.693447,15.078275 88.120918 0 0 -10.07907,9.99368 10.693447,15.078275 88.120918 0 0 5.74214,8.54652 10.91843,15.395512 88.12092 0 1 -5.42764,-8.46859 10.91843,15.395512 88.12092 0 1 9.76457,-10.07161 z" /><path
         style="fill:#999999;fill-opacity:1;stroke:#000000;stroke-width:1.31467;stroke-linecap:butt;stroke-linejoin:miter;stroke-miterlimit:20;stroke-dasharray:none;stroke-opacity:1"
         d="m 322.29902,392.42799 c 2.72174,-16.11218 6.74012,-28.28046 13.68133,-40.02049 5.83124,13.08946 9.12206,25.39268 11.01889,39.85856 -2.90072,-6.58521 -7.39707,-16.23798 -10.38711,-16.21657 -4.34813,0.0312 -10.02132,8.63278 -14.31311,16.3785 z"
         id="path2-8"
         sodipodi:nodetypes="cccsc" /></g></g><g
     inkscape:groupmode="layer"
     id="layer2"
     inkscape:label="Bolian Ridge"
     style="display:none"><path
       style="display:inline;fill:none;stroke:#000000;stroke-width:0.8;stroke-linecap:butt;stroke-linejoin:miter;stroke-dasharray:none;stroke-opacity:1"
       d="m 260.11976,248.62275 23.2919,-42.7347"
       id="path1746"
       sodipodi:nodetypes="cc" /><path
       style="color:#000000;display:inline;fill:#000000;fill-opacity:0.2;-inkscape-stroke:none"
       d="m 280.56961,203.94359 -23.46249,43.15852 1.7902,0.83818 23.12351,-42.81954 z"
       id="path1748"
       sodipodi:nodetypes="ccccc" /></g></svg>
