<?xml version="1.0" encoding="UTF-8" standalone="no"?>
<!-- Created with Inkscape (http://www.inkscape.org/) -->

<svg
   version="1.1"
   id="svg282014"
   width="400"
   height="400"
   viewBox="0 0 400 400"
   sodipodi:docname="tngAverageFemale.svg"
   inkscape:version="1.3.1 (91b66b0, 2023-11-16)"
   xml:space="preserve"
   xmlns:inkscape="http://www.inkscape.org/namespaces/inkscape"
   xmlns:sodipodi="http://sodipodi.sourceforge.net/DTD/sodipodi-0.dtd"
   xmlns="http://www.w3.org/2000/svg"
   xmlns:svg="http://www.w3.org/2000/svg"><defs
     id="defs282018" /><sodipodi:namedview
     id="namedview282016"
     pagecolor="#ffffff"
     bordercolor="#666666"
     borderopacity="1.0"
     inkscape:showpageshadow="2"
     inkscape:pageopacity="0.0"
     inkscape:pagecheckerboard="0"
     inkscape:deskcolor="#d1d1d1"
     showgrid="false"
     inkscape:zoom="2.7375"
     inkscape:cx="200"
     inkscape:cy="200"
     inkscape:window-width="2328"
     inkscape:window-height="1308"
     inkscape:window-x="2040"
     inkscape:window-y="25"
     inkscape:window-maximized="0"
     inkscape:current-layer="g282022"><inkscape:page
       x="0"
       y="0"
       id="page282020"
       width="400"
       height="400"
       margin="0"
       bleed="0" /></sodipodi:namedview><g
     inkscape:groupmode="layer"
     id="layer7"
     inkscape:label="StraightenedNeck"
     style="display:none"
     sodipodi:insensitive="true"><path
       d="m 276.09015,201.90164 -80.66597,-51.60296 c -0.27062,23.83328 5.58644,54.75352 -11.91232,72.86639 -9.30133,8.26 -23.844,13.48933 -36.21333,21.172 0,0 -14.90933,16.74 61.20533,48.912 76.11333,32.172 84.74533,27.98667 88.93067,20.14 4.184,-7.84667 12.84368,-41.3493 8.91968,-49.1973 -6.95614,-7.11445 -22.02272,-15.66068 -39.11092,-19.49261 z"
       style="fill:#cd976d;fill-opacity:1;fill-rule:nonzero;stroke:none;stroke-width:1.33333"
       id="path19870"
       sodipodi:nodetypes="ccccccccc" /><path
       d="m 196.88057,197.0346 c -0.0158,-6.20551 -0.2217,-14.22911 -0.17142,-19.03413 0.0588,-5.61641 -0.0767,-21.64313 -0.29166,-27.19977 0,0 -3.83333,-3.40667 -3.83333,-3.40534 -0.0149,5.84948 1.0573,26.0661 1.27741,31.14907 0.29177,6.73798 0.15199,12.21387 0.27271,19.38922 0.0849,5.04508 -1.08754,7.04418 -2.80181,11.93914 -1.74416,4.9803 -5.18181,8.36428 -8.98714,12.03361 -9.84667,9.496 -22.544,15.42 -35.24,20.512 0.40133,0.984 1.52,1.52134 2.58133,1.55067 1.39923,0.0369 4.17868,-1.07867 8.35467,-2.96667 21.65514,-11.48595 38.89574,-21.76807 38.83924,-43.9678 z"
       style="fill:#000000;fill-opacity:1;fill-rule:nonzero;stroke:none;stroke-width:1.33333"
       id="path19890"
       sodipodi:nodetypes="ssccsssccccs" /><path
       id="path19920"
       style="opacity:0.199997;fill:#000000;fill-opacity:1;fill-rule:nonzero;stroke:none;stroke-width:1.33333"
       d="m 194.00265,149.58795 c 1.47318,32.79428 1.53765,39.12909 1.24719,50.02942 -0.12441,4.66879 0.11284,10.35879 -5.4589,17.02734 -0.92891,1.11177 -1.91219,2.2207 -2.95704,3.3125 -0.51287,0.53601 -1.0878,1.05036 -1.63086,1.57617 -0.56289,0.54503 -1.09446,1.10264 -1.6914,1.63282 -0.0139,0.0124 -0.031,0.0228 -0.0449,0.0351 -1.15045,1.01874 -2.37799,1.99279 -3.67383,2.92969 -9.18408,6.64012 -21.67015,11.48516 -32.49414,18.20703 0,0 -3.00371,3.40811 0.63086,10.08399 4.98031,5.72624 14.4995,11.31479 17.1582,11.79687 11.03733,2 20.53668,-7.64675 31.38867,-7.71875 8.55999,-0.0573 16.28362,7.04121 23.46094,11.0332 1.50667,0.83733 15.56797,9.02374 16.30664,5.06641 0.29333,-1.57867 -4.00315,-5.16199 -4.89648,-6.11133 -3.93334,-4.17465 -8.27971,-8.15943 -11.73438,-12.74609 -2.71066,-3.60133 -4.66824,-8.11346 -3.8789,-12.55078 0.69332,-3.89867 3.43831,-7.18988 6.70898,-9.42188 8.35065,-5.69733 18.13271,-6.5757 27.85937,-4.95703 2.648,0.44 17.83493,4.39988 19.40827,1.13056 0.91886,-9.71758 3.80861,-19.05607 6.23555,-28.46731 z m 73.2161,100.18549 c 3.8015,0.73252 7.83234,0.96178 13.57227,2.90429 5.59498,1.89347 8.48223,3.22335 12.51171,7.4043 3.27912,3.71364 0.74296,7.50414 -0.34961,11.45899 -0.29333,2.16132 1.42994,4.26114 0.94727,6.36914 -0.452,1.96533 -3.195,3.66805 -4.65234,4.88672 -1.188,0.99066 -4.06439,2.74065 -1.40039,3.47265 1.172,0.32267 2.84805,-0.53517 3.88672,-0.17383 0.44932,0.15733 1.30883,1.21852 1.6875,1.61719 1.21466,1.27867 1.26973,5.12333 2.67773,5.83399 2.56,1.29466 5.51481,-4.09938 6.24414,-5.72071 1.75467,-3.90399 3.36939,-7.8906 4.38672,-12.05859 0.19584,-0.80215 0.36268,-1.61429 0.50976,-2.42969 0.2462,-4.01128 0.0353,-7.30242 -0.88671,-9.14648 -6.95614,-7.11445 -22.0212,-15.66027 -39.10938,-19.49219 0.28399,2.60456 0.0311,3.95827 -0.0254,5.07422 z"
       sodipodi:nodetypes="csscsscscccccccccccccccscccccccccsccccc" /><path
       d="m 277.75802,201.80599 c -0.0107,-0.004 -0.12534,0.15066 -0.13334,0.16133 -0.31862,0.41722 -10.83374,39.02027 -9.05722,45.74015 0.204,0.77333 1.896,8.104 1.39467,7.94 -4.604,-1.516 -4.92134,-10.64533 -4.35867,-14.45733 0.132,-0.89867 6.39456,-41.94149 6.39456,-41.94149 0,0 5.75866,2.556 5.76,2.55734"
       style="fill:#000000;fill-opacity:1;fill-rule:nonzero;stroke:none;stroke-width:1.33333"
       id="path19894"
       sodipodi:nodetypes="ccccccc" /></g><g
     id="g282022"
     inkscape:groupmode="layer"
     inkscape:label="Uniform"
     style="display:inline;opacity:1"><path
       id="path283350"
       style="fill:#2d2d2d;fill-opacity:1;fill-rule:nonzero;stroke:none;stroke-width:1.33333"
       d="m 193.08008,202.94531 c -2.51861,5.31765 -2.82016,5.73971 -5.07617,9.83789 -3.00937,4.71927 -4.23154,7.9528 -6.19141,11.67969 -14.34653,6.44949 -26.45646,10.66797 -50.14844,24.25195 -16.34719,4.40719 -36.791865,9.01531 -54.478513,19.41797 -3.36933,1.98133 -12.234863,6.10028 -15.736328,8.22657 -9.936676,13.29956 -9.372142,20.97015 -15.105469,36.71679 -4.528166,14.93918 -6.127282,22.48621 -8.525628,33.70263 2.922664,0.34 8.805707,11.51278 11.679037,10.88478 19.406523,-12.5474 33.122769,-21.85347 57.396871,-34.41919 17.87664,-0.78348 160.13869,-2.8764 164.40247,-2.72136 30.162,1.09674 61.42049,2.95395 91.85819,5.13747 0,0 7.2251,6.85673 14.67105,14.89207 -0.74884,-4.7991 -1.47751,-8.20007 -2.12019,-11.54987 -0.80702,-4.20643 -2.24143,-6.7801 -3.45877,-10.88676 -6.20399,-24.60531 -13.73236,-35.41849 -33.14717,-46.12961 -12.89139,-3.90462 -24.58649,-9.43601 -36.99219,-10.875 -5.24833,-0.67437 -12.25435,-7.05271 -15.81521,-9.17431 -6.37982,-3.80115 -8.82454,-6.17628 -11.24141,-8.26905 L 274.9883,240.66602 270.709,235 l -3.2207,8.06836 c -1.53936,0.88783 -2.94755,2.05369 -4.61719,2.66211 -0.8425,0.30701 -1.3636,4.64645 -2.3232,4.67941 -1.34112,0.0461 -3.19049,-4.31495 -4.8975,-4.50949 -10.62185,-1.78919 -26.68533,-8.38611 -35.72266,-15.02344 -7.43374,-5.45879 -23.211,-21.6259 -26.84765,-27.93164 z"
       sodipodi:nodetypes="csccccccccsccscccsccccsscccc" /><path
       d="m 383.91919,399.96653 c -0.144,-0.856 -0.384,-1.68666 -0.64133,-2.34666 -0.696,-1.77734 -2.25467,-3.46 -3.18534,-5.13067 -0.88666,-1.59467 -1.816,-3.20667 -2.61466,-4.83067 -1.45734,-2.968 -0.44625,-2.40922 -0.0256,-5.96605 0.67403,-5.69974 2.13072,-40.56611 -0.0703,-42.57873 -2.21467,-1.17867 -11.48825,-14.43071 -13.99326,-14.68194 -25.56155,-2.5636 -62.78281,-6.03798 -93.81097,-6.76019 -75.85333,-1.56933 -163.34314,4.08738 -163.34314,4.08738 -24.379393,11.17444 -33.620793,17.31697 -56.474883,28.74093 -4.558918,-3.09473 -11.255697,-7.46904 -11.225268,-7.41956 0,0 -6.82726,53.06212 -6.64726,56.15279 0.01467,0.24667 0.03333,0.48933 0.052,0.73333 z"
       style="fill:#d30000;fill-opacity:1;fill-rule:nonzero;stroke:none;stroke-width:1.33333"
       id="path283402"
       sodipodi:nodetypes="ccccscsccccccc" /><path
       d="m 199.85386,247.78521 c -2.93665,-2.47779 -7.28168,-7.44446 -10.22639,-11.3595 -5.69208,-7.56772 -7.29436,-11.28257 -0.41891,-24.25333 3.46894,-6.54427 4.74293,-10.62513 4.74293,-10.62513 l 0.67141,4.26669 c 7.96762,12.63941 11.92435,16.15759 20.26837,24.38157 7.41065,7.30402 11.63496,10.0071 24.00893,16.26979 3.86892,1.95813 4.27646,12.0527 4.06046,14.43004 -0.216,2.37733 -8.33269,9.49419 -23.27996,0.78187 -7.33325,-4.27433 -13.15973,-8.26665 -19.82684,-13.892 z"
       style="opacity:0.199997;fill:#000000;fill-opacity:1;fill-rule:nonzero;stroke:none;stroke-width:1.33333"
       id="path283456"
       sodipodi:nodetypes="sssccsssss" /><path
       d="m 275.1368,243.22809 c 0.14856,1.98118 -0.97427,3.90313 -2.57027,6.5978 -2.38667,4.032 -1.98774,10.53931 -3.45307,14.94731 -0.872,-2.21866 -1.20133,-3.37733 -1.008,-5.648 0.196,-2.31333 0.44933,-4.564 1.104,-6.844 0.46533,-1.62266 2.12907,-5.50464 2.92107,-6.87931 1.59866,-2.768 0.99466,-5.07867 0.372,-8.04267 1.12133,0.88537 1.46027,2.4344 2.07733,3.73334 0.33067,0.75333 0.47427,0.93953 0.55694,2.13553 z"
       style="fill:#000000;fill-opacity:1;fill-rule:nonzero;stroke:none;stroke-width:1.33333"
       id="path283442"
       sodipodi:nodetypes="ccccccccc" /><path
       style="fill:#d30000;stroke:none;stroke-width:1px;stroke-linecap:butt;stroke-linejoin:miter;stroke-opacity:1;fill-opacity:1"
       d="m 190.41096,209.86301 2.55708,-5.84474 9.04109,11.59817 14.7032,13.33333 19.72603,11.78082 12.96803,3.10503 7.21461,1.46118 3.92695,5.93608 2.2831,-4.74886 4.38356,-5.11416 2.19178,-4.10959 0.54795,-3.01369 4.01826,5.2968 -0.63927,2.55708 -4.84018,6.39269 -3.28767,5.20548 -0.18265,10.13699 -0.27397,4.10959 -2.83105,0.45662 -1.64384,0.0913 -1.73516,1.09589 -2.46575,-1.00456 -0.45662,-14.42923 -1.64384,-3.74429 -4.84018,-1.09589 -18.44749,-5.11416 -14.06393,-7.48858 -11.78082,-10.50228 -12.78539,-13.42466 z"
       id="path3" /><path
       style="fill:#2d2d2d;fill-opacity:1;stroke:none;stroke-width:1px;stroke-linecap:butt;stroke-linejoin:miter;stroke-opacity:1"
       d="m 111.19981,336.44076 8.65318,23.76395 6.71589,26.66988 L 129.15192,400 h -9.42809 l -2.97049,-32.95023 z"
       id="path5"
       sodipodi:nodetypes="ccccccc" /><path
       id="path283446"
       style="fill:#000000;fill-opacity:1;fill-rule:nonzero;stroke:none;stroke-width:1.33333"
       d="m 191.32346,202.11509 c -2.904,8.85393 -5.93926,14.46411 -10.37416,20.92759 -4.33993,2.2816 -8.9049,4.27874 -13.40438,6.3206 -4.7059,2.14462 -12.46307,6.36178 -21.5957,10.50195 -9.13263,4.1402 -17.97777,6.15144 -29.99024,10.17188 -12.01243,4.02044 -32.682789,12.36459 -44.559732,17.51584 -1.801458,1.21501 -10.517752,4.81172 -12.147295,6.0115 -15.771611,29.05006 -24.623218,71.03068 -28.144531,97.73828 -1.286848,11.80772 -1.337818,18.41265 -1.617188,28.14063 -0.03067,0.17466 -0.07629,0.34877 -0.126953,0.52344 h 4.427735 c 0.254903,-0.11535 0.962586,-17.97981 1.976001,-27.94598 1.104299,-10.85993 4.285528,-26.2268 4.285528,-26.2268 3.22591,2.36767 5.213514,3.48317 9.748185,6.64061 10.748191,-5.74294 50.184846,-26.36359 53.03676,-27.92863 4.44196,-2.46237 11.11712,33.04235 13.00475,52.07609 1.10131,11.10505 0.50737,19.09261 0.44628,23.41791 h 5.31948 c -0.18394,-6.26655 -0.70323,-17.09978 -1.20237,-21.42041 -1.38858,-12.01921 -7.6022,-42.37416 -12.76521,-55.71383 46.64081,-2.60156 107.13119,-5.57844 158.70524,-4.74783 35.30075,0.56852 67.88167,3.88494 94.74057,6.72474 2.20612,12.21263 11.86063,59.9761 17.95777,75.12417 l 4.985,0.0332 -4.7843,-12.69937 c 0.68996,-9.55074 0.67367,-13.88718 0.32513,-29.76299 -0.27256,-12.41497 -0.37868,-16.21925 -2.10377,-28.18133 -0.38765,-2.68806 -2.5339,-10.45341 -3.30324,-13.05475 -2.724,-9.22129 -5.26709,-17.79452 -10.43238,-25.81714 -2.75932,-4.28569 -7.75657,-11.55379 -9.57813,-13.17383 -15.43354,-6.77411 -35.27018,-13.4436 -52.61238,-17.42221 -7.14604,-5.82466 -17.44121,-12.43053 -25.70009,-16.93027 0.17499,-0.7031 0.22308,-1.22735 0.17636,-1.66249 -0.33033,-3.07661 -0.90966,-3.70801 -2.64016,-5.37661 -1.57349,-1.5172 -3.08855,-2.7772 -4.66204,-4.29439 0.10487,2.66663 0.61725,5.41716 -2.78498,8.78833 -3.67781,3.64422 -5.29641,7.61898 -5.29641,7.61898 0,0 -2.69082,-3.937 -4.82495,-4.16251 -14.31036,-1.51216 -25.67388,-6.80461 -35.7142,-13.94202 -17.61486,-12.52197 -25.78633,-27.31293 -25.6555,-27.61164 l 0.70348,-1.66921 c -0.88058,-0.22564 -1.36576,-0.4758 -1.74172,-0.49024 -1.24369,-0.0443 -1.72414,0.85779 -2.07626,1.95878 z m 87.95363,47.26356 c 0.30905,0.19623 5.50011,3.70393 8.51979,5.87526 3.12135,2.24443 9.63684,7.25183 12.64152,8.27896 16.65059,3.90377 24.82355,6.86123 39.90144,11.72104 5.46601,1.84928 8.43383,3.41424 10.9961,5.65039 4.76151,13.17014 7.88096,26.86438 9.26738,40.79966 -4.31074,-0.94094 -75.61664,-7.0335 -94.51276,-7.16173 -50.46106,-0.34243 -110.12194,2.14382 -160.55139,4.68043 -0.94196,-2.13918 -1.15442,-2.32088 -2.11512,-3.98758 -1.67036,-2.89787 -7.261067,-11.5743 -7.261067,-11.5743 1.934486,4.85722 6.391757,16.98051 6.391757,16.98051 -30.670995,16.18398 -34.92959,18.26787 -52.623448,27.78134 -3.553861,-2.3426 -5.556842,-3.3832 -9.555651,-6.32804 5.876853,-26.71759 9.725232,-38.11593 22.722985,-64.23693 2.24977,-0.30739 11.168503,1.18127 15.538093,4.76539 3.13004,2.81101 8.891033,8.71812 11.429687,11.38476 -3.599332,-6.23421 -6.747692,-10.29856 -11.697265,-14.91601 -5.483187,-3.3559 -8.157177,-4.72523 -12.546151,-4.42482 6.410488,-3.26284 36.84763,-14.7874 43.90357,-17.35057 7.05597,-2.5632 20.61947,-5.91788 28.88086,-8.82032 8.26138,-2.90241 12.88737,-5.68053 18.28516,-8.47461 5.39777,-2.79404 13.44505,-6.45282 17.65625,-9.25 l 9.09961,-5.64451 c 3.36996,-2.09039 6.82673,-10.43663 8.36605,-14.73392 0.0686,-0.1915 -0.24893,-1.42634 0.28768,-2.24195 0.51218,-0.77847 1.46138,-0.68515 1.55126,-0.82123 0.16468,-0.24933 2.54643,3.48561 4.22944,5.41022 2.12565,2.4308 2.80383,3.68063 5.27182,6.14758 6.69933,6.6965 9.4324,9.83923 16.30528,14.46001 8.56662,5.75951 14.37342,7.96276 23.57082,10.75156 4.1411,1.25565 7.79176,2.16642 10.91622,2.36265 2.00121,0.12569 4.98789,3.51745 5.50549,7.82117 0.59339,4.93392 0.63029,14.42918 0.63029,14.42918 0,0 1.0059,-9.40807 1.53992,-14.72284 0.44213,-4.40013 2.71551,-7.58471 3.43266,-8.34671 2.39941,-2.54949 4.22696,-4.75923 5.1572,-8.06452 1.51019,0.73857 3.13463,1.94631 3.69351,8.23034 z m 77.21215,36.78147 c 3.67487,5.22417 7.63772,12.20401 10.17311,18.36257 3.23988,7.8698 3.97639,10.09614 5.89148,17.92048 1.45889,5.9605 2.22595,7.85023 3.02285,13.30564 0.0865,0.59238 -7.43501,-9.57479 -11.01559,-13.40584 -0.63349,-12.23422 -6.51365,-31.73136 -8.07185,-36.18285 z m 19.31716,52.86261 c 0.25249,1.46126 1.1859,24.48344 1.26817,27.11271 0.0828,2.64582 -0.28933,14.89871 -0.41442,15.7321 -2.93585,-7.79017 -11.49503,-52.64135 -12.06,-56.23189 2.79599,2.77067 9.03784,11.40017 11.20625,13.38708 z"
       sodipodi:nodetypes="ccsssccccccscccsccscsccccsscscccsscscssccssccccsscccssscccccssssccsssssssssscssccccsssccscccs" /><path
       d="m 31.482052,395.28734 c 0.446666,2.49334 1.180614,2.08466 1.540614,4.67933 h 20.166666 c 0.196,-3.43334 -0.168,-7.00134 -0.09067,-10.296 0.142667,-6.028 1.809568,-11.8813 2.717568,-17.83597 1.664043,-10.89316 4.390792,-21.53944 8.717099,-31.40937 5.682623,-10.91971 7.04473,-14.96286 12.227828,-24.25379 8.061621,-9.83474 8.681112,-10.66445 17.276729,-16.04664 9.830784,-5.05831 15.433984,-7.8084 26.708774,-12.5209 12.06134,-4.93733 26.01867,-8.93733 38.75867,-12.128 2.82667,-0.80533 5.532,-1.54666 8.11733,-2.22666 28.43467,-7.48134 48.85975,-10.78844 48.85975,-10.78844 0,0 -11.6028,-5.51607 -20.87346,-16.6534 -3.08933,-3.71334 -4.36478,-4.90732 -7.25392,-8.99734 -2.88884,-4.0896 -4.18242,-5.97094 -6.46852,-12.06345 -6.75333,2.5483 -27.67151,10.773 -49.25951,23.06767 -18.69995,5.86575 -35.845712,11.49837 -55.441672,20.31762 -6.939001,2.88838 -12.359196,4.7333 -15.263196,7.33997 -9.815593,11.6216 -13.675677,21.85662 -18.57202,40.35778 -3.949413,17.25627 -7.765364,34.88594 -9.352248,49.71932 -1.108,6.50533 -0.995824,8.39911 -2.471784,17.39312 0.117676,5.33145 -0.859554,8.65545 -0.283552,11.86611"
       style="opacity:0.199997;fill:#000000;fill-opacity:1;fill-rule:nonzero;stroke:none;stroke-width:1.33333"
       id="path283392"
       sodipodi:nodetypes="cccccccccccccscccccccc" /><path
       style="fill:#000000;fill-opacity:0.2;stroke:none;stroke-width:1px;stroke-linecap:butt;stroke-linejoin:miter;stroke-opacity:1"
       d="m 227.47291,267.71555 c 0,0 22.27771,5.4179 32.19424,5.06066 7.62637,-0.27474 10.81946,-6.3392 10.81946,-6.3392 0,0 -3.19887,8.67402 -10.86378,8.98111 -10.46769,0.41938 -32.14992,-7.70257 -32.14992,-7.70257 z"
       id="path1"
       sodipodi:nodetypes="cscsc" /><path
       style="color:#000000;fill:#000000;-inkscape-stroke:none"
       d="m 191.73437,210.06445 -1.91601,1.60547 c 0,0 6.37748,7.6205 10.03516,11.22852 6.11946,6.03639 12.19369,12.57281 19.77343,17.16601 7.72111,4.67887 16.42679,7.45525 24.97071,9.81641 1.79016,0.49472 3.50149,0.54685 4.97656,0.75 1.47507,0.20315 2.66488,0.52056 3.6875,1.37695 0.819,0.68589 1.13673,1.54892 1.3164,2.76953 0.17968,1.22061 0.15087,2.71522 0.34571,4.28125 0.36509,2.9345 0.084,9.4668 0.084,9.4668 l -0.0391,0.78711 0.69531,0.37305 c 0,0 0.52123,0.28192 1.16602,0.55078 0.64478,0.26885 1.29255,0.63567 2.32617,0.50195 0.84541,-0.10933 1.22484,-0.49099 1.60156,-0.78125 0.12175,-0.0938 0.11706,-0.10153 0.21289,-0.18359 0.39423,0.0963 0.69389,0.24336 1.47266,0.14258 0.88017,-0.11392 2.18555,-0.37891 2.18555,-0.37891 l 0.86914,-0.17578 0.12304,-0.87696 c 0,0 0.57885,-4.03282 0.65039,-6.25195 0.0885,-2.74364 0.0777,-6.49532 0.76758,-8.70898 0.52431,-1.68249 1.62912,-3.43734 2.85547,-4.84961 2.73013,-3.14405 5.6875,-7.92188 5.6875,-7.92188 0,0 -1.49671,-1.79568 -3.12762,-2.32488 0.50617,1.91504 -0.13452,3.46029 -4.44855,8.60809 -1.37425,1.63985 -2.68676,3.59825 -3.35547,5.74414 -0.90919,2.91755 -0.79221,6.74487 -0.87695,9.37304 -0.0509,1.57997 -0.40909,4.15876 -0.53321,5.08789 -0.43957,0.0817 -0.73683,0.14609 -1.11718,0.19532 -0.19515,0.0253 -1.26368,-0.15235 -1.26368,-0.15235 l -0.67968,-0.17578 -0.50196,0.48828 c 0,0 -0.19521,0.18817 -0.44531,0.38086 -0.2501,0.1927 -0.64416,0.31328 -0.39648,0.28125 0.1948,-0.0252 -0.5276,-0.11518 -1.04297,-0.33008 -0.14362,-0.0599 -0.14086,-0.0661 -0.26367,-0.12304 0.0555,-1.19691 0.25996,-5.96046 -0.125,-9.05469 -0.16416,-1.31947 -0.12808,-2.81771 -0.35157,-4.33594 -0.22348,-1.51822 -0.77528,-3.14123 -2.18554,-4.32226 -1.5327,-1.28356 -3.30397,-1.71038 -4.95313,-1.9375 -1.64915,-0.22712 -3.22796,-0.2905 -4.65039,-0.6836 -8.47782,-2.34289 -16.9598,-5.07154 -24.3418,-9.54492 -7.18349,-4.35308 -13.14249,-10.72038 -19.3125,-16.80664 -3.43338,-3.38677 -9.875,-11.05469 -9.875,-11.05469 z"
       id="path2"
       sodipodi:nodetypes="ccssssssscccssscscccsssccssscscccssscssssssscc" /><path
       id="path166529"
       style="opacity:0.199997;fill:#000000;fill-opacity:1;fill-rule:nonzero;stroke:none;stroke-width:1.27278"
       d="m 107.43884,322.40056 5.02844,21.8803 c 3.80951,20.16058 6.29521,36.34039 7.02295,55.70935 h 261.51172 c -0.95473,0 -2.51616,-9.21028 -3.97535,-13.51421 0,0 -1.2478,-16.93748 -2.09195,-25.38614 -0.6327,-6.33236 -4.87529,-31.03695 -4.87529,-31.03695 l -7.36357,-5.46303 -15.22255,-2.74651 c 2.26814,3.14343 7.35148,19.12609 9.47848,24.03574 6.23319,14.38773 6.84229,25.55378 2.79564,35.20804 -2.43399,5.80685 -6.73484,6.92657 -12.53618,9.89356 -6.76132,3.45662 -14.76559,3.9113 -22.50024,3.43138 -10.15466,-0.63058 -19.5926,-5.09891 -29.53125,-6.14258 -9.44666,-0.99264 -20.41778,3.21967 -29.50977,5.38477 -18.11198,4.31075 -37.14392,4.82095 -55.82812,2.50781 -19.6448,-2.43206 -43.92721,-7.42536 -51.04881,-19.68731 -4.36665,-7.51848 -4.81298,-16.15119 -5.83789,-24.55664 -0.78314,-7.17836 4.18056,-28.68023 5.4756,-31.76153 z"
       sodipodi:nodetypes="cccscscccssccccssccc" /><g
       id="g6"><ellipse
         style="fill:#fbb03b;fill-opacity:1;fill-rule:evenodd;stroke:#000000;stroke-width:1.32111;stroke-linecap:round;stroke-linejoin:round;stroke-miterlimit:40;stroke-dasharray:none;stroke-opacity:1"
         id="path1-3"
         cx="282.30334"
         cy="380.85043"
         rx="16.071701"
         ry="11.732766"
         transform="matrix(1,0,0.13917311,0.99026807,0,0)" /><path
         id="ellipse2"
         style="fill:#ffffff;fill-opacity:0.3;fill-rule:evenodd;stroke:none;stroke-width:0.424019;stroke-linecap:round;stroke-linejoin:round;stroke-miterlimit:40;stroke-dasharray:none;stroke-opacity:1"
         d="m 333.78656,366.52754 a 15.104786,10.509259 7.9520897 0 0 -13.43381,10.61591 15.104786,10.509259 7.9520897 0 0 14.23477,10.48723 15.104786,10.509259 7.9520897 0 1 -11.88039,-10.09797 15.104786,10.509259 7.9520897 0 1 13.43381,-10.61589 15.104786,10.509259 7.9520897 0 1 2.33272,0.13039 15.104786,10.509259 7.9520897 0 0 -4.6871,-0.51967 z" /><path
         id="ellipse3"
         style="fill:#000000;fill-opacity:0.2;fill-rule:evenodd;stroke:none;stroke-width:0.422913;stroke-linecap:round;stroke-linejoin:round;stroke-miterlimit:40;stroke-dasharray:none;stroke-opacity:1"
         d="m 339.00042,367.20094 a 15.065315,10.481797 7.9520901 0 1 6.56377,8.15207 15.065315,10.481797 7.9520901 0 1 -13.39863,10.58826 15.065315,10.481797 7.9520901 0 1 -5.19499,-0.65978 15.065315,10.481797 7.9520901 0 0 9.85049,2.45023 15.065315,10.481797 7.9520901 0 0 13.39863,-10.58827 15.065315,10.481797 7.9520901 0 0 -11.21927,-9.94251 z" /><path
         id="ellipse4"
         style="fill:#000000;fill-opacity:0.2;fill-rule:evenodd;stroke:none;stroke-width:0.427343;stroke-linecap:round;stroke-linejoin:round;stroke-miterlimit:40;stroke-dasharray:none;stroke-opacity:1"
         d="m 328.56113,367.14977 a 15.223199,10.591646 7.9520886 0 0 -8.32556,9.99368 15.223199,10.591646 7.9520886 0 0 7.24172,8.54652 15.543486,10.814487 7.9520883 0 1 -6.91355,-8.46859 15.543486,10.814487 7.9520883 0 1 7.99739,-10.07161 z" /><path
         style="fill:#999999;fill-opacity:1;stroke:#000000;stroke-width:1.31467;stroke-linecap:butt;stroke-linejoin:miter;stroke-miterlimit:20;stroke-dasharray:none;stroke-opacity:1"
         d="m 325.53607,392.42799 c -0.10533,-16.11218 1.77798,-28.28046 6.65927,-40.02049 8.12794,13.08946 13.5775,25.39268 18.01253,39.85856 -4.05617,-6.58521 -10.24621,-16.23798 -13.23249,-16.21657 -4.34266,0.0312 -8.5066,8.63278 -11.43931,16.3785 z"
         id="path2-8"
         sodipodi:nodetypes="cccsc" /></g><path
       style="color:#000000;fill:#000000;-inkscape-stroke:none"
       d="m 111.18346,334.7213 -1.64648,0.72656 c 8.52247,19.31478 14.81621,41.81974 18.59779,64.55214 h 1.77539 c -3.79534,-22.81513 -10.11505,-45.76183 -18.7267,-65.2787 z"
       id="path4"
       sodipodi:nodetypes="ccccc" /></g></svg>
