<?xml version="1.0" encoding="UTF-8" standalone="no"?>
<!-- Created with Inkscape (http://www.inkscape.org/) -->

<svg
   width="400"
   height="400"
   viewBox="0 0 400 400"
   version="1.1"
   id="svg34481"
   xml:space="preserve"
   inkscape:version="1.2.2 (b0a8486, 2022-12-01)"
   sodipodi:docname="borderRankCaptain.svg"
   xmlns:inkscape="http://www.inkscape.org/namespaces/inkscape"
   xmlns:sodipodi="http://sodipodi.sourceforge.net/DTD/sodipodi-0.dtd"
   xmlns="http://www.w3.org/2000/svg"
   xmlns:svg="http://www.w3.org/2000/svg"><sodipodi:namedview
     id="namedview34483"
     pagecolor="#ffffff"
     bordercolor="#666666"
     borderopacity="1.0"
     inkscape:showpageshadow="2"
     inkscape:pageopacity="0.0"
     inkscape:pagecheckerboard="0"
     inkscape:deskcolor="#d1d1d1"
     inkscape:document-units="px"
     showgrid="false"
     inkscape:zoom="1.475"
     inkscape:cx="190.84746"
     inkscape:cy="211.52542"
     inkscape:window-width="1440"
     inkscape:window-height="810"
     inkscape:window-x="2191"
     inkscape:window-y="119"
     inkscape:window-maximized="0"
     inkscape:current-layer="g4800" /><defs
     id="defs34478" /><g
     inkscape:label="Border"
     inkscape:groupmode="layer"
     id="layer1"><g
       id="g41575"><rect
         style="opacity:1;fill:#d30000;fill-opacity:1;fill-rule:evenodd;stroke:#ffd59c;stroke-width:2;stroke-miterlimit:40;stroke-dasharray:none;stroke-opacity:1"
         id="rect34812"
         width="126.25761"
         height="30.247616"
         x="195.43486"
         y="222.39742"
         rx="4"
         ry="4"
         transform="rotate(34.627047)" /><path
         id="rect45766"
         style="opacity:1;fill:#ffd59c;fill-opacity:1;stroke:#000000;stroke-width:0.45;stroke-miterlimit:40;stroke-dasharray:none;stroke-opacity:1"
         d="m 88.610365,368.75659 1.20648,0.831 4.107634,0.18509 c 1.46002,0.0755 2.15153,-0.0982 2.91449,-1.09012 l 2.753569,-3.99771 -6.000349,-0.27072 c -1.380164,-0.15891 -2.037984,0.18426 -2.932764,1.36755 z m 5.556904,-8.0677 5.898631,0.26518 c 1.41516,0.0483 2.18905,-0.25034 2.88193,-1.14051 l 2.72015,-3.9492 -6.330712,-0.28564 c -1.303779,-0.0518 -1.900109,0.47864 -2.643469,1.44211 z m 6.075451,-8.82048 6.15941,0.2769 c 1.20942,0.10771 1.93319,-0.26923 2.72907,-1.30894 l 2.20445,-3.20048 -0.94848,-0.65329 -5.03368,-0.22705 c -1.04005,-0.10919 -1.77994,0.27708 -2.36458,1.12587 z"
         sodipodi:nodetypes="ccccccccccccccccccccccc" /><g
         id="g51917"
         transform="matrix(0.59120647,-0.8382132,0.8382132,0.59120647,-240.46769,291.99762)"><rect
           style="opacity:1;fill:#ffd59c;fill-opacity:1;stroke:#000000;stroke-width:0.487457;stroke-miterlimit:40;stroke-dasharray:none;stroke-opacity:1"
           id="rect50013"
           width="28.059921"
           height="5.1700811"
           x="125.05373"
           y="316.33209"
           rx="0"
           ry="0" /><path
           id="rect51906"
           style="opacity:1;fill:#ffd59c;stroke:#000000;stroke-width:0.487457;stroke-miterlimit:40;stroke-dasharray:none;stroke-opacity:1"
           transform="rotate(46.33222)"
           d="m 325.3487,124.76265 0.95071,-1.04483 0.0422,2.12776 c -0.0669,0.7562 -1.25872,1.5395 -2.27776,1.46427 l -8.20257,-0.0256 -1.11848,1.10723 -0.26503,-2.16058 c -0.008,-0.93982 0.53648,-1.51249 1.22913,-1.52357 z"
           sodipodi:nodetypes="ccccccccc" /><path
           id="path51909"
           style="opacity:1;fill:#ffd59c;stroke:#000000;stroke-width:0.487457;stroke-miterlimit:40;stroke-dasharray:none;stroke-opacity:1"
           d="m 143.71967,321.65786 1.41222,-0.0337 -1.50999,1.4997 c -0.59319,0.47374 -1.98272,0.15248 -2.63192,-0.63659 l -5.65144,-6.03598 -1.54934,-0.0613 1.36228,-1.58176 c 0.67431,-0.65471 1.61954,-0.4618 2.00128,-0.0913 z"
           sodipodi:nodetypes="ccccccccc" /><path
           id="path51911"
           style="opacity:1;fill:#ffd59c;stroke:#000000;stroke-width:0.487457;stroke-miterlimit:40;stroke-dasharray:none;stroke-opacity:1"
           d="m 153.55018,321.48837 0.71733,0.0454 -0.8151,1.42065 c -0.59319,0.47374 -1.98272,0.15248 -2.63192,-0.63659 l -5.64516,-5.95105 -1.57321,-0.0445 1.37987,-1.68353 c 0.67431,-0.65471 1.42379,-0.66331 1.87149,-0.25 z"
           sodipodi:nodetypes="ccccccccc" /></g><g
         id="g2559"
         transform="matrix(0.59120647,-0.8382132,0.8382132,0.59120647,-258.20528,279.77306)"><rect
           style="opacity:1;fill:#ffd59c;fill-opacity:1;stroke:#000000;stroke-width:0.487457;stroke-miterlimit:40;stroke-dasharray:none;stroke-opacity:1"
           id="rect2551"
           width="28.059921"
           height="5.1700811"
           x="125.05373"
           y="316.33209"
           rx="0"
           ry="0" /><path
           id="path2553"
           style="opacity:1;fill:#ffd59c;stroke:#000000;stroke-width:0.487457;stroke-miterlimit:40;stroke-dasharray:none;stroke-opacity:1"
           transform="rotate(46.33222)"
           d="m 325.3487,124.76265 0.95071,-1.04483 0.0422,2.12776 c -0.0669,0.7562 -1.25872,1.5395 -2.27776,1.46427 l -8.20257,-0.0256 -1.11848,1.10723 -0.26503,-2.16058 c -0.008,-0.93982 0.53648,-1.51249 1.22913,-1.52357 z"
           sodipodi:nodetypes="ccccccccc" /><path
           id="path2555"
           style="opacity:1;fill:#ffd59c;stroke:#000000;stroke-width:0.487457;stroke-miterlimit:40;stroke-dasharray:none;stroke-opacity:1"
           d="m 143.71967,321.65786 1.41222,-0.0337 -1.50999,1.4997 c -0.59319,0.47374 -1.98272,0.15248 -2.63192,-0.63659 l -5.65144,-6.03598 -1.54934,-0.0613 1.36228,-1.58176 c 0.67431,-0.65471 1.61954,-0.4618 2.00128,-0.0913 z"
           sodipodi:nodetypes="ccccccccc" /><path
           id="path2557"
           style="opacity:1;fill:#ffd59c;stroke:#000000;stroke-width:0.487457;stroke-miterlimit:40;stroke-dasharray:none;stroke-opacity:1"
           d="m 153.55018,321.48837 0.71733,0.0454 -0.8151,1.42065 c -0.59319,0.47374 -1.98272,0.15248 -2.63192,-0.63659 l -5.64516,-5.95105 -1.57321,-0.0445 1.37987,-1.68353 c 0.67431,-0.65471 1.42379,-0.66331 1.87149,-0.25 z"
           sodipodi:nodetypes="ccccccccc" /></g><rect
         style="opacity:1;fill:none;fill-opacity:1;fill-rule:evenodd;stroke:#ffd59c;stroke-width:2;stroke-miterlimit:40;stroke-dasharray:none;stroke-opacity:1"
         id="rect47378"
         width="126.25761"
         height="30.247616"
         x="195.43486"
         y="222.39742"
         rx="4"
         ry="4"
         transform="rotate(34.627047)" /></g></g><g
     inkscape:groupmode="layer"
     id="layer2"
     inkscape:label="Swatch"><g
       id="g4800"><rect
         style="opacity:1;fill:#d30000;fill-opacity:1;fill-rule:evenodd;stroke:#000000;stroke-width:2;stroke-miterlimit:40;stroke-dasharray:none;stroke-opacity:1"
         id="rect4774"
         width="126.25761"
         height="30.247616"
         x="195.43486"
         y="222.39742"
         transform="rotate(34.627047)" /><path
         id="path4776"
         style="opacity:1;fill:#ffd59c;fill-opacity:1;stroke:#000000;stroke-width:0.45;stroke-miterlimit:40;stroke-dasharray:none;stroke-opacity:1"
         d="m 88.610365,368.75659 1.20648,0.831 4.107634,0.18509 c 1.46002,0.0755 2.15153,-0.0982 2.91449,-1.09012 l 2.753569,-3.99771 -6.000349,-0.27072 c -1.380164,-0.15891 -2.037984,0.18426 -2.932764,1.36755 z m 5.556904,-8.0677 5.898631,0.26518 c 1.41516,0.0483 2.18905,-0.25034 2.88193,-1.14051 l 2.72015,-3.9492 -6.330712,-0.28564 c -1.303779,-0.0518 -1.900109,0.47864 -2.643469,1.44211 z m 6.075451,-8.82048 6.15941,0.2769 c 1.20942,0.10771 1.93319,-0.26923 2.72907,-1.30894 l 2.20445,-3.20048 -0.94848,-0.65329 -5.03368,-0.22705 c -1.04005,-0.10919 -1.77994,0.27708 -2.36458,1.12587 z"
         sodipodi:nodetypes="ccccccccccccccccccccccc" /><g
         id="g4786"
         transform="matrix(0.59120647,-0.8382132,0.8382132,0.59120647,-240.46769,291.99762)"><rect
           style="opacity:1;fill:#ffd59c;fill-opacity:1;stroke:#000000;stroke-width:0.487457;stroke-miterlimit:40;stroke-dasharray:none;stroke-opacity:1"
           id="rect4778"
           width="28.059921"
           height="5.1700811"
           x="125.05373"
           y="316.33209"
           rx="0"
           ry="0" /><path
           id="path4780"
           style="opacity:1;fill:#ffd59c;stroke:#000000;stroke-width:0.487457;stroke-miterlimit:40;stroke-dasharray:none;stroke-opacity:1"
           transform="rotate(46.33222)"
           d="m 325.3487,124.76265 0.95071,-1.04483 0.0422,2.12776 c -0.0669,0.7562 -1.25872,1.5395 -2.27776,1.46427 l -8.20257,-0.0256 -1.11848,1.10723 -0.26503,-2.16058 c -0.008,-0.93982 0.53648,-1.51249 1.22913,-1.52357 z"
           sodipodi:nodetypes="ccccccccc" /><path
           id="path4782"
           style="opacity:1;fill:#ffd59c;stroke:#000000;stroke-width:0.487457;stroke-miterlimit:40;stroke-dasharray:none;stroke-opacity:1"
           d="m 143.71967,321.65786 1.41222,-0.0337 -1.50999,1.4997 c -0.59319,0.47374 -1.98272,0.15248 -2.63192,-0.63659 l -5.65144,-6.03598 -1.54934,-0.0613 1.36228,-1.58176 c 0.67431,-0.65471 1.61954,-0.4618 2.00128,-0.0913 z"
           sodipodi:nodetypes="ccccccccc" /><path
           id="path4784"
           style="opacity:1;fill:#ffd59c;stroke:#000000;stroke-width:0.487457;stroke-miterlimit:40;stroke-dasharray:none;stroke-opacity:1"
           d="m 153.55018,321.48837 0.71733,0.0454 -0.8151,1.42065 c -0.59319,0.47374 -1.98272,0.15248 -2.63192,-0.63659 l -5.64516,-5.95105 -1.57321,-0.0445 1.37987,-1.68353 c 0.67431,-0.65471 1.42379,-0.66331 1.87149,-0.25 z"
           sodipodi:nodetypes="ccccccccc" /></g><g
         id="g4796"
         transform="matrix(0.59120647,-0.8382132,0.8382132,0.59120647,-258.20528,279.77306)"><rect
           style="opacity:1;fill:#ffd59c;fill-opacity:1;stroke:#000000;stroke-width:0.487457;stroke-miterlimit:40;stroke-dasharray:none;stroke-opacity:1"
           id="rect4788"
           width="28.059921"
           height="5.1700811"
           x="125.05373"
           y="316.33209"
           rx="0"
           ry="0" /><path
           id="path4790"
           style="opacity:1;fill:#ffd59c;stroke:#000000;stroke-width:0.487457;stroke-miterlimit:40;stroke-dasharray:none;stroke-opacity:1"
           transform="rotate(46.33222)"
           d="m 325.3487,124.76265 0.95071,-1.04483 0.0422,2.12776 c -0.0669,0.7562 -1.25872,1.5395 -2.27776,1.46427 l -8.20257,-0.0256 -1.11848,1.10723 -0.26503,-2.16058 c -0.008,-0.93982 0.53648,-1.51249 1.22913,-1.52357 z"
           sodipodi:nodetypes="ccccccccc" /><path
           id="path4792"
           style="opacity:1;fill:#ffd59c;stroke:#000000;stroke-width:0.487457;stroke-miterlimit:40;stroke-dasharray:none;stroke-opacity:1"
           d="m 143.71967,321.65786 1.41222,-0.0337 -1.50999,1.4997 c -0.59319,0.47374 -1.98272,0.15248 -2.63192,-0.63659 l -5.65144,-6.03598 -1.54934,-0.0613 1.36228,-1.58176 c 0.67431,-0.65471 1.61954,-0.4618 2.00128,-0.0913 z"
           sodipodi:nodetypes="ccccccccc" /><path
           id="path4794"
           style="opacity:1;fill:#ffd59c;stroke:#000000;stroke-width:0.487457;stroke-miterlimit:40;stroke-dasharray:none;stroke-opacity:1"
           d="m 153.55018,321.48837 0.71733,0.0454 -0.8151,1.42065 c -0.59319,0.47374 -1.98272,0.15248 -2.63192,-0.63659 l -5.64516,-5.95105 -1.57321,-0.0445 1.37987,-1.68353 c 0.67431,-0.65471 1.42379,-0.66331 1.87149,-0.25 z"
           sodipodi:nodetypes="ccccccccc" /></g><rect
         style="opacity:1;fill:none;fill-opacity:1;fill-rule:evenodd;stroke:#000000;stroke-width:2;stroke-miterlimit:40;stroke-dasharray:none;stroke-opacity:1"
         id="rect4798"
         width="126.25761"
         height="30.247616"
         x="195.43486"
         y="222.39742"
         transform="rotate(34.627047)" /></g></g></svg>
