<?xml version="1.0" encoding="UTF-8" standalone="no"?>
<!-- Created with Inkscape (http://www.inkscape.org/) -->

<svg
   width="400"
   height="400"
   viewBox="0 0 400 400"
   version="1.1"
   id="svg34481"
   xml:space="preserve"
   inkscape:version="1.2.2 (b0a8486, 2022-12-01)"
   sodipodi:docname="borderRankLieutenantJG.svg"
   xmlns:inkscape="http://www.inkscape.org/namespaces/inkscape"
   xmlns:sodipodi="http://sodipodi.sourceforge.net/DTD/sodipodi-0.dtd"
   xmlns="http://www.w3.org/2000/svg"
   xmlns:svg="http://www.w3.org/2000/svg"><sodipodi:namedview
     id="namedview34483"
     pagecolor="#ffffff"
     bordercolor="#666666"
     borderopacity="1.0"
     inkscape:showpageshadow="2"
     inkscape:pageopacity="0.0"
     inkscape:pagecheckerboard="0"
     inkscape:deskcolor="#d1d1d1"
     inkscape:document-units="px"
     showgrid="false"
     inkscape:zoom="4.17193"
     inkscape:cx="71.309921"
     inkscape:cy="344.4449"
     inkscape:window-width="1626"
     inkscape:window-height="948"
     inkscape:window-x="2191"
     inkscape:window-y="119"
     inkscape:window-maximized="0"
     inkscape:current-layer="g13237" /><defs
     id="defs34478" /><g
     inkscape:label="Border"
     inkscape:groupmode="layer"
     id="layer1"><g
       id="g41575"><rect
         style="opacity:1;fill:#d30000;fill-opacity:1;fill-rule:evenodd;stroke:#ffd59c;stroke-width:2;stroke-miterlimit:40;stroke-dasharray:none;stroke-opacity:1"
         id="rect34812"
         width="126.25761"
         height="30.247616"
         x="195.43486"
         y="222.39742"
         rx="4"
         ry="4"
         transform="rotate(34.627047)" /><path
         id="rect45766"
         style="opacity:1;fill:#ffd59c;fill-opacity:1;stroke:#000000;stroke-width:0.45;stroke-miterlimit:40;stroke-dasharray:none;stroke-opacity:1"
         d="m 95.390026,373.33286 1.20648,0.831 4.107634,0.18509 c 1.46002,0.0755 2.15153,-0.0982 2.91449,-1.09012 l 2.75357,-3.99771 -6.00035,-0.27072 c -1.380164,-0.15891 -2.037984,0.18426 -2.932764,1.36755 z m 5.556904,-8.0677 5.89863,0.26518 c 1.41516,0.0483 2.18905,-0.25034 2.88193,-1.14051 l 2.72015,-3.9492 -6.33071,-0.28564 c -1.30378,-0.0518 -1.90011,0.47864 -2.64347,1.44211 z m 6.07545,-8.82048 6.15941,0.2769 c 1.20942,0.10771 1.93319,-0.26923 2.72907,-1.30894 l 2.20445,-3.20048 -0.94848,-0.65329 -5.03368,-0.22705 c -1.04005,-0.10919 -1.77994,0.27708 -2.36458,1.12587 z"
         sodipodi:nodetypes="ccccccccccccccccccccccc" /><rect
         style="opacity:1;fill:none;fill-opacity:1;fill-rule:evenodd;stroke:#ffd59c;stroke-width:2;stroke-miterlimit:40;stroke-dasharray:none;stroke-opacity:1"
         id="rect47378"
         width="126.25761"
         height="30.247616"
         x="195.43486"
         y="222.39742"
         rx="4"
         ry="4"
         transform="rotate(34.627047)" /></g></g><g
     inkscape:groupmode="layer"
     id="layer8"
     inkscape:label="Swatch"><g
       id="g13237"><rect
         style="opacity:1;fill:#d30000;fill-opacity:1;fill-rule:evenodd;stroke:#000000;stroke-width:2;stroke-miterlimit:40;stroke-dasharray:none;stroke-opacity:1"
         id="rect13231"
         width="126.25761"
         height="30.247616"
         x="195.43486"
         y="222.39742"
         transform="rotate(34.627047)" /><path
         id="path13233"
         style="opacity:1;fill:#ffd59c;fill-opacity:1;stroke:#000000;stroke-width:0.45;stroke-miterlimit:40;stroke-dasharray:none;stroke-opacity:1"
         d="m 96.348815,374.29165 1.20648,0.831 4.107635,0.18509 c 1.46002,0.0755 2.15153,-0.0982 2.91449,-1.09012 l 2.75357,-3.99771 -6.00035,-0.27072 c -1.380165,-0.15891 -2.037985,0.18426 -2.932765,1.36755 z m 5.556905,-8.0677 5.89863,0.26518 c 1.41516,0.0483 2.18905,-0.25034 2.88193,-1.14051 l 2.72015,-3.9492 -6.33071,-0.28564 c -1.30378,-0.0518 -1.90011,0.47864 -2.64347,1.44211 z m 6.07545,-8.82048 6.15941,0.2769 c 1.20942,0.10771 1.93319,-0.26923 2.72907,-1.30894 l 2.20445,-3.20048 -0.94848,-0.65329 -5.03368,-0.22705 c -1.04005,-0.10919 -1.77994,0.27708 -2.36458,1.12587 z"
         sodipodi:nodetypes="ccccccccccccccccccccccc" /><rect
         style="opacity:1;fill:none;fill-opacity:1;fill-rule:evenodd;stroke:#000000;stroke-width:2;stroke-miterlimit:40;stroke-dasharray:none;stroke-opacity:1"
         id="rect13235"
         width="126.25761"
         height="30.247616"
         x="195.43486"
         y="222.39742"
         transform="rotate(34.627047)" /></g></g></svg>
