<?xml version="1.0" encoding="UTF-8" standalone="no"?>
<!-- Created with Inkscape (http://www.inkscape.org/) -->

<svg
   width="400"
   height="400"
   viewBox="0 0 400 400"
   version="1.1"
   id="svg47343"
   xml:space="preserve"
   inkscape:version="1.2.2 (b0a8486, 2022-12-01)"
   sodipodi:docname="commander.svg"
   xmlns:inkscape="http://www.inkscape.org/namespaces/inkscape"
   xmlns:sodipodi="http://sodipodi.sourceforge.net/DTD/sodipodi-0.dtd"
   xmlns:xlink="http://www.w3.org/1999/xlink"
   xmlns="http://www.w3.org/2000/svg"
   xmlns:svg="http://www.w3.org/2000/svg"><sodipodi:namedview
     id="namedview47345"
     pagecolor="#ffffff"
     bordercolor="#666666"
     borderopacity="1.0"
     inkscape:showpageshadow="2"
     inkscape:pageopacity="0.0"
     inkscape:pagecheckerboard="0"
     inkscape:deskcolor="#d1d1d1"
     inkscape:document-units="px"
     showgrid="false"
     inkscape:zoom="1.475"
     inkscape:cx="84.745763"
     inkscape:cy="200"
     inkscape:window-width="1717"
     inkscape:window-height="810"
     inkscape:window-x="2437"
     inkscape:window-y="221"
     inkscape:window-maximized="0"
     inkscape:current-layer="svg47343"
     showguides="true" /><defs
     id="defs47340"><linearGradient
       inkscape:collect="always"
       id="commanderRankGradient"><stop
         style="stop-color:#f2f2f2;stop-opacity:1;"
         offset="0"
         id="stop7283" /><stop
         style="stop-color:#aeaeae;stop-opacity:1;"
         offset="0.25261438"
         id="stop7415" /><stop
         style="stop-color:#929292;stop-opacity:1;"
         offset="0.37630719"
         id="stop7421" /><stop
         style="stop-color:#4d4d4d;stop-opacity:1;"
         offset="0.5"
         id="stop7417" /><stop
         style="stop-color:#aeaeae;stop-opacity:1;"
         offset="0.75"
         id="stop7419" /><stop
         style="stop-color:#f1f1f1;stop-opacity:1;"
         offset="1"
         id="stop7285" /></linearGradient><inkscape:path-effect
       effect="perspective-envelope"
       up_left_point="126.88535,130.78866"
       up_right_point="201.82925,142.49"
       down_left_point="126.89,309.20342"
       down_right_point="201.82925,303.2"
       id="path-effect51140"
       is_visible="true"
       lpeversion="1"
       deform_type="perspective"
       horizontal_mirror="false"
       vertical_mirror="false"
       overflow_perspective="false" /><inkscape:path-effect
       effect="bend_path"
       id="path-effect51076"
       is_visible="true"
       lpeversion="1"
       bendpath="m 132.79226,287.87635 c 7.59041,8.14971 15.89991,24.44912 19.41547,34.7561"
       prop_scale="1"
       scale_y_rel="false"
       vertical="true"
       hide_knot="false" /><linearGradient
       inkscape:collect="always"
       xlink:href="#commanderRankGradient"
       id="commanderRankGradientVertical"
       x1="18.235147"
       y1="237.86584"
       x2="66.005089"
       y2="320.23874"
       gradientUnits="userSpaceOnUse" /><linearGradient
       inkscape:collect="always"
       xlink:href="#commanderRankGradient"
       id="linearGradient1737"
       x1="139.85434"
       y1="285.12982"
       x2="170.35454"
       y2="312.58743"
       gradientUnits="userSpaceOnUse" /></defs><g
     inkscape:groupmode="layer"
     id="layer9"
     inkscape:label="Original"
     style="display:none"
     sodipodi:insensitive="true"><g
       id="g48001"><g
         id="g50303"><path
           id="path47964"
           style="fill:#aeaeae;fill-opacity:1;fill-rule:evenodd;stroke:#000000;stroke-width:1px;stroke-linecap:butt;stroke-linejoin:miter;stroke-opacity:1"
           d="m 202.71186,179.15254 v 92.71187 l 21.69492,-16.27119 21.69491,16.27119 v -92.54238 l -21.69491,16.10171 z M 189.83051,159 189.831,292 224.40678,269.15254 257.62712,292 V 159 l -33.22034,23.37288 z"
           sodipodi:nodetypes="cccccccccccccc" /><path
           style="fill:#d9a14b;fill-opacity:1;stroke:#000000;stroke-width:1.02285px;stroke-linecap:butt;stroke-linejoin:miter;stroke-opacity:1"
           d="m 202.72329,204.07923 h 43.36697 v 18.45172 h -43.36697 z"
           id="path47966" /><path
           style="opacity:1;fill:#d9a14b;fill-opacity:1;stroke:#000000;stroke-width:1px;stroke-linecap:butt;stroke-linejoin:miter;stroke-opacity:1"
           d="m 202.71186,227.79661 h 43.38983 v 18.98305 h -43.38983 z"
           id="path47968" /><path
           id="path47991"
           style="fill:none;stroke:#000000;stroke-width:1px;stroke-linecap:butt;stroke-linejoin:miter;stroke-opacity:1"
           d="m 241,227.89355 v 18.844 m -6.6,-18.611 v 18.378 m -6.6,-0.034 v -18.31 m -6.6,0 v 18.31 m -6.6,-18.647 v 18.984 m -6.6,-0.3345 v -18.315" /><path
           id="path47994"
           style="fill:none;stroke:#000000;stroke-width:1px;stroke-linecap:butt;stroke-linejoin:miter;stroke-opacity:1"
           d="m 241,203.89355 v 18.844 m -6.6,-18.611 v 18.378 m -6.6,-0.034 v -18.31 m -6.6,0 v 18.31 m -6.6,-18.647 v 18.984 m -6.6,-0.3345 v -18.315" /></g></g></g><g
     inkscape:groupmode="layer"
     id="layer11"
     inkscape:label="Strap"
     style="display:inline"><path
       id="path50181"
       style="fill:#d30000;fill-opacity:1;fill-rule:evenodd;stroke:none;stroke-width:0.999998;stroke-miterlimit:9;stroke-dasharray:none;stroke-opacity:1"
       d="M 39.600108,79.3 C 7.7983389,121.99929 -5.6658354,175.61629 2.1900272,228.27431 L 3.4712747,235.5243 30.727079,382.53767 93.85,370.51036 Z"
       sodipodi:nodetypes="cccccc" /><path
       id="path4141"
       style="color:#000000;fill:#d9a14b;-inkscape-stroke:none"
       d="M 38.376953 81.03125 C 37.965683 81.595848 37.574845 82.171951 37.169922 82.740234 L 90.925781 371.06641 L 92.400391 370.78516 L 38.376953 81.03125 z M 0.0546875 200.92578 C 0.091440618 204.32306 0.22074359 207.72374 0.43164062 211.12695 L 32.332031 382.23047 L 33.804688 381.95117 L 0.0546875 200.92578 z " /><path
       id="path2330"
       style="color:#000000;fill:#000000;fill-rule:evenodd;stroke-miterlimit:9;-inkscape-stroke:none"
       d="M 39.599609 79.300781 C 7.7978721 122.00003 -5.6664016 175.61547 2.1894531 228.27344 L 3.4707031 235.52344 L 30.726562 382.53711 L 93.849609 370.50977 L 39.599609 79.300781 z M 38.798828 83.185547 L 92.101562 369.31641 L 31.925781 380.7832 L 4.9472656 235.25781 L 3.6738281 228.05273 L 3.671875 228.03906 C -3.942893 176.9727 8.771647 125.07127 38.798828 83.185547 z " /></g><g
     inkscape:groupmode="layer"
     id="layer10"
     inkscape:label="Border Insignia"
     style="display:inline"><g
       id="g50908"><path
         id="path5642"
         style="fill:url(#commanderRankGradientVertical);fill-opacity:1;fill-rule:evenodd;stroke:#000000;stroke-width:1;stroke-linecap:butt;stroke-linejoin:miter;stroke-opacity:1;stroke-dasharray:none"
         d="m 26.521652,252.07503 9.733017,52.95326 10.683087,-11.57101 14.099425,7.01589 -9.715223,-52.85646 -10.700874,11.47421 z m -9.472945,-10.15802 13.962798,75.96416 17.349727,-16.67935 21.372669,9.56202 -13.962519,-75.9642 -16.520395,16.83715 z"
         sodipodi:nodetypes="cccccccccccccc" /><path
         style="fill:#d9a14b;fill-opacity:1;stroke:#000000;stroke-width:1;stroke-linecap:butt;stroke-linejoin:miter;stroke-opacity:1;stroke-dasharray:none"
         d="m 29.145018,266.31094 24.769456,-4.55272 1.937086,10.53887 -24.769456,4.55273 z"
         id="path50307" /><path
         style="fill:#d9a14b;fill-opacity:1;stroke:#000000;stroke-width:1;stroke-linecap:butt;stroke-linejoin:miter;stroke-opacity:1;stroke-dasharray:none"
         d="m 31.628372,279.85855 24.782512,-4.55512 1.992866,10.84234 -24.782512,4.55513 z"
         id="path50309" /><path
         id="path50311"
         style="fill:none;stroke:#000000;stroke-width:0.580727px;stroke-linecap:butt;stroke-linejoin:miter;stroke-opacity:1"
         d="m 53.507183,275.89438 1.978268,10.76293 m -5.72346,-9.93698 1.929347,10.49677 m -3.773222,0.67346 -1.922208,-10.45793 m -3.769653,0.69288 1.922208,10.45793 m -5.727239,-9.95754 1.992966,10.84289 m -3.804769,0.50183 -1.922733,-10.46079" /><path
         id="path50313"
         style="fill:none;stroke:#000000;stroke-width:0.580727px;stroke-linecap:butt;stroke-linejoin:miter;stroke-opacity:1"
         d="m 50.98763,262.18655 1.978269,10.76293 m -5.72346,-9.93697 1.929347,10.49676 m -3.773222,0.67346 -1.922209,-10.45793 m -3.769652,0.69288 1.922208,10.45793 m -5.727239,-9.95753 1.992965,10.84289 m -3.804768,0.50182 -1.922734,-10.46079" /></g></g><g
     inkscape:groupmode="layer"
     id="layer12"
     inkscape:label="Insignia"
     style="display:inline"><g
       id="g52046"><path
         id="path51053"
         style="fill:url(#linearGradient1737);fill-opacity:1;fill-rule:evenodd;stroke:#000000;stroke-width:0.616;stroke-linecap:butt;stroke-linejoin:miter;stroke-dasharray:none;stroke-opacity:1"
         d="m 154.29817,285.97796 c 0.58643,0.79884 0.88841,1.17552 1.42074,1.97235 v 0 c 1.70469,2.53871 3.24061,5.12948 4.658,7.74221 v 0 c 1.41774,2.61038 2.73726,5.27672 3.95384,7.9998 0.36647,0.81866 0.72598,1.64739 1.07555,2.48729 -1.21325,-0.43899 -2.44103,-0.84762 -3.68317,-1.23652 -0.65955,-0.20691 -1.32356,-0.4082 -1.992,-0.60391 -0.28052,0.65738 -0.56841,1.31531 -0.86372,1.97371 -0.56735,1.2662 -1.16178,2.53431 -1.78977,3.79488 -0.33319,-0.81377 -0.68021,-1.62626 -1.03767,-2.43866 -1.18425,-2.68488 -2.47858,-5.31493 -3.87739,-7.89048 v 0 c -1.40308,-2.57981 -2.89479,-5.08786 -4.53118,-7.48924 v 0 c -0.5133,-0.74851 -1.03112,-1.48184 -1.56017,-2.19434 2.31005,0.27003 4.34436,0.63017 6.44099,1.03685 0.71699,-1.79451 1.43912,-3.56797 1.78595,-5.15394 z m -1.2851,-5.46411 c 2.1106,2.3121 3.42333,3.97618 5.03738,6.39844 1.61405,2.42226 3.16197,5.03582 4.58335,7.65757 1.42291,2.61996 2.7494,5.29626 3.97492,8.0298 1.06658,2.37172 2.08422,4.85252 2.9839,7.47069 -2.7518,-1.07419 -5.57959,-1.90739 -8.48841,-2.616 -1.39919,2.81923 -2.95344,5.63789 -4.73266,8.35158 -0.75244,-2.33103 -1.68372,-4.65266 -2.70964,-6.99616 -1.17506,-2.67388 -2.46218,-5.2935 -3.85558,-7.85906 -1.39902,-2.57033 -2.87791,-5.05474 -4.49447,-7.41685 v 0 c -1.4562,-2.10667 -2.90525,-4.04806 -4.51169,-5.69173 3.25473,-0.19796 6.58813,0.0769 9.84796,0.5617 1.21702,-2.58173 1.77952,-4.71037 2.36494,-7.88998 z"
         sodipodi:nodetypes="ccccccccccccccssccccccccccccssccc" /><path
         style="fill:#d9a14b;fill-opacity:1;stroke:#000000;stroke-width:0.616398;stroke-linecap:butt;stroke-linejoin:miter;stroke-dasharray:none;stroke-opacity:1"
         d="m 157.63113,290.93345 -8.15163,4.2011 c 0.7965,1.28855 1.56006,2.60272 2.29845,3.93748 l 8.20533,-4.09423 c -0.74864,-1.35661 -1.53037,-2.70618 -2.35215,-4.04435 z"
         id="path51055" /><path
         style="fill:#d9a14b;fill-opacity:1;stroke:#000000;stroke-width:0.616398;stroke-linecap:butt;stroke-linejoin:miter;stroke-dasharray:none;stroke-opacity:1"
         d="m 160.61886,296.14031 -8.21764,4.08014 c 0.74302,1.38317 1.45575,2.78161 2.13735,4.19532 l 8.25475,-4.02258 c -0.69587,-1.43335 -1.42092,-2.85094 -2.17446,-4.25288 z"
         id="path51057" /><path
         id="path51059"
         style="fill:none;stroke:#000000;stroke-width:0.21342px;stroke-linecap:butt;stroke-linejoin:miter;stroke-opacity:1"
         d="m 153.43138,299.73586 c 0.73856,1.3755 1.44749,2.76609 2.12599,4.17179 m -0.80227,-4.76421 c 0.72119,1.3447 1.41447,2.70383 2.07908,4.07741 m 1.27435,-0.63062 c -0.66439,-1.37137 -1.35693,-2.72833 -2.07693,-4.07092 m 1.24928,-0.62008 c 0.72156,1.34534 1.41591,2.70511 2.08238,4.07935 m -0.89561,-4.76264 c 0.75072,1.39713 1.4725,2.80982 2.16456,4.23815 m 1.17338,-0.66536 c -0.6707,-1.38022 -1.36877,-2.74583 -2.09354,-4.09689" /><path
         id="path51061"
         style="fill:none;stroke:#000000;stroke-width:0.21342px;stroke-linecap:butt;stroke-linejoin:miter;stroke-opacity:1"
         d="m 150.46413,294.57554 c 0.81736,1.32173 1.59935,2.66839 2.35413,4.03473 m -1.03728,-4.64862 c 0.80027,1.29741 1.56588,2.61625 2.30427,3.95176 m 1.26704,-0.64171 c -0.73732,-1.33388 -1.50291,-2.65327 -2.30397,-3.95356 m 1.23987,-0.63886 c 0.80486,1.30775 1.57319,2.63249 2.31208,3.96968 m -1.13932,-4.66965 c 0.83981,1.36295 1.63907,2.74199 2.40558,4.13218 m 1.16292,-0.674 c -0.7421,-1.34402 -1.51596,-2.67951 -2.32843,-4.00217" /></g></g></svg>
