<?xml version="1.0" encoding="UTF-8" standalone="no"?>
<!-- Created with Inkscape (http://www.inkscape.org/) -->

<svg
   width="400"
   height="400"
   viewBox="0 0 400 400"
   version="1.1"
   id="svg47343"
   xml:space="preserve"
   inkscape:version="1.2.2 (b0a8486, 2022-12-01)"
   sodipodi:docname="lieutenant.svg"
   xmlns:inkscape="http://www.inkscape.org/namespaces/inkscape"
   xmlns:sodipodi="http://sodipodi.sourceforge.net/DTD/sodipodi-0.dtd"
   xmlns:xlink="http://www.w3.org/1999/xlink"
   xmlns="http://www.w3.org/2000/svg"
   xmlns:svg="http://www.w3.org/2000/svg"><sodipodi:namedview
     id="namedview47345"
     pagecolor="#ffffff"
     bordercolor="#666666"
     borderopacity="1.0"
     inkscape:showpageshadow="2"
     inkscape:pageopacity="0.0"
     inkscape:pagecheckerboard="0"
     inkscape:deskcolor="#d1d1d1"
     inkscape:document-units="px"
     showgrid="false"
     inkscape:zoom="5.9"
     inkscape:cx="126.10169"
     inkscape:cy="273.22034"
     inkscape:window-width="1717"
     inkscape:window-height="810"
     inkscape:window-x="2613"
     inkscape:window-y="265"
     inkscape:window-maximized="0"
     inkscape:current-layer="svg47343"
     showguides="true" /><defs
     id="defs47340"><inkscape:path-effect
       effect="perspective-envelope"
       up_left_point="141.88595,276.29792"
       up_right_point="177.03,281.8"
       down_left_point="141.88595,318.49998"
       down_right_point="174.93,316.8"
       id="path-effect48270"
       is_visible="true"
       lpeversion="1"
       deform_type="perspective"
       horizontal_mirror="false"
       vertical_mirror="false"
       overflow_perspective="false" /><inkscape:path-effect
       effect="bend_path"
       id="path-effect48245"
       is_visible="true"
       lpeversion="1"
       bendpath="m 167.8661,314.74577 c -5.31074,-12.25989 -11.63842,-23.67232 -18.64407,-32.88136"
       prop_scale="1"
       scale_y_rel="false"
       vertical="true"
       hide_knot="false" /><inkscape:path-effect
       effect="bend_path"
       id="path-effect48201"
       is_visible="true"
       lpeversion="1"
       bendpath="M 149.32203,298.30509 H 167.9661"
       prop_scale="1"
       scale_y_rel="false"
       vertical="false"
       hide_knot="false" /><inkscape:path-effect
       effect="bend_path"
       id="path-effect48154"
       is_visible="true"
       lpeversion="1"
       bendpath="m 141.72619,299.21267 h 36.21765"
       prop_scale="1"
       scale_y_rel="false"
       vertical="false"
       hide_knot="false" /><linearGradient
       inkscape:collect="always"
       id="commanderRankGradient"><stop
         style="stop-color:#f2f2f2;stop-opacity:1;"
         offset="0"
         id="stop7283" /><stop
         style="stop-color:#aeaeae;stop-opacity:1;"
         offset="0.25261438"
         id="stop7415" /><stop
         style="stop-color:#929292;stop-opacity:1;"
         offset="0.37630719"
         id="stop7421" /><stop
         style="stop-color:#4d4d4d;stop-opacity:1;"
         offset="0.5"
         id="stop7417" /><stop
         style="stop-color:#aeaeae;stop-opacity:1;"
         offset="0.75"
         id="stop7419" /><stop
         style="stop-color:#f1f1f1;stop-opacity:1;"
         offset="1"
         id="stop7285" /></linearGradient><inkscape:path-effect
       effect="perspective-envelope"
       up_left_point="126.88535,130.78866"
       up_right_point="201.82925,142.49"
       down_left_point="126.89,309.20342"
       down_right_point="201.82925,303.2"
       id="path-effect51140"
       is_visible="true"
       lpeversion="1"
       deform_type="perspective"
       horizontal_mirror="false"
       vertical_mirror="false"
       overflow_perspective="false" /><inkscape:path-effect
       effect="bend_path"
       id="path-effect51076"
       is_visible="true"
       lpeversion="1"
       bendpath="m 132.79226,287.87635 c 7.59041,8.14971 15.89991,24.44912 19.41547,34.7561"
       prop_scale="1"
       scale_y_rel="false"
       vertical="true"
       hide_knot="false" /><linearGradient
       inkscape:collect="always"
       xlink:href="#commanderRankGradient"
       id="linearGradient46083"
       x1="193.91504"
       y1="219.56265"
       x2="252.40115"
       y2="234.90327"
       gradientUnits="userSpaceOnUse" /><linearGradient
       inkscape:collect="always"
       xlink:href="#commanderRankGradient"
       id="linearGradient46997"
       gradientUnits="userSpaceOnUse"
       x1="193.91504"
       y1="219.56265"
       x2="252.40115"
       y2="234.90327"
       gradientTransform="matrix(0.72667468,-0.14108203,0.14108203,0.72667468,-152.64226,139.84311)" /><linearGradient
       inkscape:collect="always"
       xlink:href="#commanderRankGradient"
       id="linearGradient48233"
       gradientUnits="userSpaceOnUse"
       x1="123.91869"
       y1="256.09821"
       x2="199.89598"
       y2="231.10127"
       gradientTransform="matrix(0.25412224,0.0097558,-0.0097558,0.25412224,117.79097,236.30384)" /></defs><g
     inkscape:groupmode="layer"
     id="layer9"
     inkscape:label="Original"
     style="display:inline"><g
       id="g46141"><path
         id="path41427"
         style="fill:url(#linearGradient46083);stroke:#000000;stroke-width:1.3;stroke-linecap:butt;stroke-linejoin:miter;stroke-dasharray:none;stroke-opacity:1;fill-opacity:1"
         d="m 195.83263,277.80647 58.48611,0.23969 -20.12002,-18.69638 -17.44223,0.0145 z m 0,-90.60295 58.48611,-0.23969 -20.03528,18.52689 -17.61172,-0.0993 z" /><rect
         style="opacity:1;fill:#d9a14b;fill-opacity:1;stroke:#000000;stroke-width:1.50047244;stroke-miterlimit:9;stroke-dasharray:none"
         id="rect41481"
         width="17.737595"
         height="53.931873"
         x="216.68628"
         y="205.42052" /><path
         style="fill:none;stroke:#000000;stroke-width:1px;stroke-linecap:butt;stroke-linejoin:miter;stroke-opacity:1"
         d="m 216.69492,211 h 17.54237"
         id="path42471"
         sodipodi:nodetypes="cc" /><path
         id="path42485"
         style="fill:none;stroke:#000000;stroke-width:1px;stroke-linecap:butt;stroke-linejoin:miter;stroke-opacity:1"
         d="m 216.65254,253.88135 h 17.54237 m -17.54237,-6.14407 h 17.54237 m -17.54237,-6.14406 h 17.54237 m -17.54237,-6.14407 h 17.54237 m -17.54237,-6.14407 h 17.54237 m -17.54237,-6.14406 h 17.54237 m -17.54237,-6.14407 h 17.54237" /></g></g><g
     inkscape:groupmode="layer"
     id="layer11"
     inkscape:label="Strap"
     style="display:inline"><path
       id="path50181"
       style="fill:#d30000;fill-opacity:1;fill-rule:evenodd;stroke:none;stroke-width:0.999998;stroke-miterlimit:9;stroke-dasharray:none;stroke-opacity:1"
       d="M 39.600108,79.3 C 7.7983389,121.99929 -5.6658354,175.61629 2.1900272,228.27431 L 3.4712747,235.5243 30.727079,382.53767 93.85,370.51036 Z"
       sodipodi:nodetypes="cccccc" /><path
       id="path4141"
       style="color:#000000;fill:#d9a14b;-inkscape-stroke:none"
       d="M 38.376953 81.03125 C 37.965683 81.595848 37.574845 82.171951 37.169922 82.740234 L 90.925781 371.06641 L 92.400391 370.78516 L 38.376953 81.03125 z M 0.0546875 200.92578 C 0.091440618 204.32306 0.22074359 207.72374 0.43164062 211.12695 L 32.332031 382.23047 L 33.804688 381.95117 L 0.0546875 200.92578 z " /><path
       id="path2330"
       style="color:#000000;fill:#000000;fill-rule:evenodd;stroke-miterlimit:9;-inkscape-stroke:none"
       d="M 39.599609 79.300781 C 7.7978721 122.00003 -5.6664016 175.61547 2.1894531 228.27344 L 3.4707031 235.52344 L 30.726562 382.53711 L 93.849609 370.50977 L 39.599609 79.300781 z M 38.798828 83.185547 L 92.101562 369.31641 L 31.925781 380.7832 L 4.9472656 235.25781 L 3.6738281 228.05273 L 3.671875 228.03906 C -3.942893 176.9727 8.771647 125.07127 38.798828 83.185547 z " /></g><g
     inkscape:groupmode="layer"
     id="layer10"
     inkscape:label="Border Insignia"
     style="display:inline"><g
       id="g49156"><path
         id="path46982"
         style="fill:url(#linearGradient46997);fill-opacity:1;stroke:#000000;stroke-width:0.962316;stroke-linecap:butt;stroke-linejoin:miter;stroke-dasharray:none;stroke-opacity:1"
         d="m 28.857856,314.08957 42.534192,-8.07716 -17.258433,-10.74761 -12.672781,2.47132 z m -12.782448,-65.83887 42.46656,-8.42551 -11.94532,16.28964 -12.812,2.41254 z" /><rect
         style="fill:#d9a14b;fill-opacity:1;stroke:#000000;stroke-width:1.11071;stroke-miterlimit:9;stroke-dasharray:none"
         id="rect46984"
         width="13.130136"
         height="39.92271"
         x="-16.096262"
         y="260.24905"
         transform="rotate(-10.987143)" /><path
         id="path46988"
         style="fill:none;stroke:#000000;stroke-width:0.740243px;stroke-linecap:butt;stroke-linejoin:miter;stroke-opacity:1"
         d="m 40.611753,293.76648 12.747597,-2.47491 m -13.614414,-1.98983 12.747596,-2.47491 m -13.614413,-1.98982 12.747596,-2.47492 m -13.614413,-1.98982 12.747596,-2.47492 m -13.614414,-1.98982 12.747596,-2.47492 m -13.614412,-1.98982 12.747596,-2.47491 m -13.614414,-1.98983 12.747596,-2.47491 m -13.565683,-1.90343 12.747596,-2.47491" /></g></g><g
     inkscape:groupmode="layer"
     id="layer12"
     inkscape:label="Insignia"
     style="display:inline"><g
       id="g49248"><path
         id="path48218"
         style="fill:url(#linearGradient48233);fill-opacity:1;stroke:#000000;stroke-width:0.550252;stroke-linecap:butt;stroke-linejoin:miter;stroke-dasharray:none;stroke-opacity:1"
         d="m 143.31991,290.82022 c 4.72401,-2.41564 9.37536,-4.19296 13.69874,-6.41371 -0.20367,2.73185 -1.20398,4.14591 -1.63699,6.67966 -1.31385,0.60306 -2.64575,1.2145 -3.9961,1.8345 -2.76399,-1.01548 -5.09666,-1.27631 -8.06565,-2.10045 z m 13.27833,23.57908 c 4.32446,-1.66027 8.84166,-3.90996 12.76011,-5.41091 -1.86004,-1.06787 -4.61132,-1.99102 -6.63858,-3.02268 -1.24475,0.50165 -2.50786,1.01045 -3.78978,1.52651 -0.86189,2.15783 -1.3756,4.81579 -2.33175,6.90708 z"
         sodipodi:nodetypes="cccccccccc" /><path
         id="rect48220"
         d="m 158.92994,307.48345 3.82687,-1.51119 c -1.95076,-4.80408 -4.33178,-9.79669 -7.32511,-14.91007 l -4.06027,1.86975 c 3.0576,4.94385 5.51596,9.82099 7.55851,14.55151 z"
         style="fill:#d9a14b;fill-opacity:1;stroke:#000000;stroke-width:0.550252;stroke-miterlimit:9;stroke-dasharray:none" /><path
         id="path48224"
         style="fill:none;stroke:#000000;stroke-width:0.254309px;stroke-linecap:butt;stroke-linejoin:miter;stroke-opacity:1"
         d="m 152.30161,294.48114 3.99703,-1.79801 m -2.99646,3.51422 3.97373,-1.74484 m -3.02579,3.44086 3.94929,-1.69653 m -3.05079,3.37276 3.92381,-1.65277 m -3.07178,3.30954 3.89739,-1.61326 m -3.08894,3.25083 3.86999,-1.57771 m -3.10248,3.19632 3.84171,-1.54589 m -3.1179,3.10902 3.81277,-1.51791" /></g></g></svg>
