<?xml version="1.0" encoding="UTF-8" standalone="no"?>
<!-- Created with Inkscape (http://www.inkscape.org/) -->

<svg
   width="400"
   height="400"
   viewBox="0 0 400 400"
   version="1.1"
   id="svg47343"
   xml:space="preserve"
   inkscape:version="1.3 (0e150ed, 2023-07-21)"
   sodipodi:docname="seniorChiefPettyOfficer.svg"
   xmlns:inkscape="http://www.inkscape.org/namespaces/inkscape"
   xmlns:sodipodi="http://sodipodi.sourceforge.net/DTD/sodipodi-0.dtd"
   xmlns:xlink="http://www.w3.org/1999/xlink"
   xmlns="http://www.w3.org/2000/svg"
   xmlns:svg="http://www.w3.org/2000/svg"><sodipodi:namedview
     id="namedview47345"
     pagecolor="#ffffff"
     bordercolor="#666666"
     borderopacity="1.0"
     inkscape:showpageshadow="2"
     inkscape:pageopacity="0.0"
     inkscape:pagecheckerboard="0"
     inkscape:deskcolor="#d1d1d1"
     inkscape:document-units="px"
     showgrid="false"
     inkscape:zoom="2.76"
     inkscape:cx="96.195652"
     inkscape:cy="263.76812"
     inkscape:window-width="2240"
     inkscape:window-height="1317"
     inkscape:window-x="2111"
     inkscape:window-y="25"
     inkscape:window-maximized="0"
     inkscape:current-layer="svg47343"
     showguides="true" /><defs
     id="defs47340"><inkscape:path-effect
       effect="fillet_chamfer"
       id="path-effect10"
       is_visible="true"
       lpeversion="1"
       nodesatellites_param="F,0,0,1,0,3.6944095,0,1 @ F,0,0,1,0,3.6466315,0,1 @ F,0,0,1,0,4.1281912,0,1 @ F,0,0,1,0,3.9110579,0,1 | F,0,0,1,0,0,0,1 @ F,0,0,1,0,0,0,1 @ F,0,0,1,0,0,0,1 @ F,0,0,1,0,0,0,1"
       radius="0"
       unit="px"
       method="auto"
       mode="F"
       chamfer_steps="1"
       flexible="false"
       use_knot_distance="true"
       apply_no_radius="true"
       apply_with_radius="true"
       only_selected="false"
       hide_knots="false" /><linearGradient
       inkscape:collect="always"
       id="commanderRankGradient"><stop
         style="stop-color:#f2f2f2;stop-opacity:1;"
         offset="0"
         id="stop7283" /><stop
         style="stop-color:#aeaeae;stop-opacity:1;"
         offset="0.25261438"
         id="stop7415" /><stop
         style="stop-color:#929292;stop-opacity:1;"
         offset="0.37630719"
         id="stop7421" /><stop
         style="stop-color:#4d4d4d;stop-opacity:1;"
         offset="0.5"
         id="stop7417" /><stop
         style="stop-color:#aeaeae;stop-opacity:1;"
         offset="0.75"
         id="stop7419" /><stop
         style="stop-color:#f1f1f1;stop-opacity:1;"
         offset="1"
         id="stop7285" /></linearGradient><linearGradient
       inkscape:collect="always"
       xlink:href="#commanderRankGradient"
       id="linearGradient19"
       x1="321.41916"
       y1="221.8293"
       x2="382.47592"
       y2="269.20248"
       gradientUnits="userSpaceOnUse" /><linearGradient
       inkscape:collect="always"
       xlink:href="#commanderRankGradient"
       id="linearGradient41"
       gradientUnits="userSpaceOnUse"
       x1="321.41916"
       y1="221.8293"
       x2="382.47592"
       y2="269.20248"
       gradientTransform="matrix(0.6510857,-0.50232536,0.50232536,0.6510857,-302.08794,337.79945)" /></defs><g
     inkscape:groupmode="layer"
     id="layer9"
     inkscape:label="Original"
     style="display:inline"><g
       id="g34"><path
         id="path10"
         style="opacity:1;fill:url(#linearGradient19);fill-opacity:1;fill-rule:evenodd;stroke:#000000;stroke-width:1;stroke-linecap:round;stroke-miterlimit:10;stroke-dasharray:none"
         d="M 368.47877 208.7855 L 339.18971 208.91245 L 318.56861 229.70932 L 318.69361 258.99839 L 339.49244 279.61948 L 368.7815 279.49448 L 389.4026 258.69565 L 389.2776 229.40659 L 368.47877 208.7855 z M 362.33815 223.79136 L 374.32447 235.67612 L 374.39674 252.55503 L 362.51197 264.54136 L 345.63307 264.61362 L 333.64674 252.73081 L 333.57447 235.84995 L 345.45924 223.86362 L 362.33815 223.79136 z "
         transform="translate(-31.521739,-33.695652)" /><path
         id="path16"
         style="fill:none;stroke:#000000;stroke-width:1px;stroke-linecap:butt;stroke-linejoin:miter;stroke-opacity:1"
         d="m 301.99275,216.03261 -14.94565,3.44203 m 14.85507,-14.13044 -14.94565,-2.98913 m 14.94565,10.41667 -14.94565,1.26812 m 15.12681,-4.98189 -14.94565,-0.63406 m 14.85507,10.32609 -14.76449,6.61232 m 14.76449,-23.27899 -15.03623,-6.15942" /><path
         id="path17"
         style="fill:none;stroke:#000000;stroke-width:1px;stroke-linecap:butt;stroke-linejoin:miter;stroke-opacity:1"
         d="m 342.94961,216.03261 14.94565,3.44203 m -14.85507,-14.13044 14.94565,-2.98913 m -14.94565,10.41667 14.94565,1.26812 m -15.12681,-4.98189 14.94565,-0.63406 m -14.85507,10.32609 14.76449,6.61232 m -14.76449,-23.27899 15.03623,-6.15942" /><path
         id="path18"
         style="fill:none;stroke:#000000;stroke-width:1px;stroke-linecap:butt;stroke-linejoin:miter;stroke-opacity:1"
         d="m 317.16908,231.02779 -3.44203,14.94565 m 14.13044,-14.85507 2.98913,14.94565 m -10.41667,-14.94565 -1.26812,14.94565 m 4.98189,-15.12681 0.63406,14.94565 m -10.32609,-14.85507 -6.61232,14.76449 m 23.27899,-14.76449 6.15942,15.03623" /><rect
         style="opacity:1;fill:#d9a14b;fill-opacity:1;fill-rule:evenodd;stroke:#000000;stroke-width:1;stroke-linecap:round;stroke-miterlimit:10;stroke-dasharray:none"
         id="rect18"
         width="15.76087"
         height="40.942028"
         x="314.58344"
         y="190.03624" /><path
         id="path29"
         style="fill:none;stroke:#000000;stroke-width:1px;stroke-linecap:butt;stroke-linejoin:miter;stroke-opacity:1"
         d="m 314.58333,227.62682 h 15.67029 m -15.67029,-3.42391 h 15.67029 m -15.67029,-3.42392 h 15.67029 m -15.67029,-3.42391 h 15.67029 m -15.67029,-3.42392 h 15.67029 m -15.67029,-3.42391 h 15.67029 m -15.67029,-3.42391 h 15.67029 m -15.67029,-3.42392 h 15.67029 m -15.67029,-3.42391 h 15.67029 m -15.67029,-3.42392 h 15.67029 m -15.67029,-3.42391 h 15.67029" /><path
         style="fill:#d9a14b;stroke:#000000;stroke-width:1px;stroke-linecap:butt;stroke-linejoin:miter;stroke-opacity:1;fill-opacity:1"
         d="M 313.9375,190.16797 300,155.43478 l 44.11232,0 -13.29591,34.66093 z"
         id="path30"
         sodipodi:nodetypes="ccccc" /><path
         id="path34"
         style="fill:none;stroke:#000000;stroke-width:1px;stroke-linecap:butt;stroke-linejoin:miter;stroke-opacity:1"
         d="m 316.93841,190.03623 -7.69928,-34.51087 m 17.75363,34.42029 7.88043,-34.32971 m -11.41304,34.23913 1.81159,-34.51087 m -4.98188,34.69203 -2.89856,-34.69203" /></g></g><g
     inkscape:groupmode="layer"
     id="layer10"
     inkscape:label="Border Insignia"
     style="display:inline"><path
       id="path35"
       style="fill:url(#linearGradient41);fill-opacity:1;fill-rule:evenodd;stroke:#000000;stroke-width:0.999999;stroke-linecap:round;stroke-miterlimit:10;stroke-dasharray:none"
       d="m 42.701569,288.64047 -19.005918,14.7953 -2.979308,23.89904 14.794029,19.00691 23.900317,2.97831 19.006897,-14.79402 2.978324,-23.90032 -14.794023,-19.0069 z m 3.539755,12.85469 13.774137,1.71697 8.525778,10.9533 -1.716966,13.77415 -10.953292,8.52577 -13.773165,-1.71569 -8.526758,-10.95457 1.716967,-13.77415 z" /><path
       id="path36"
       style="fill:none;stroke:#000000;stroke-width:0.8;stroke-linecap:butt;stroke-linejoin:miter;stroke-dasharray:none;stroke-opacity:1"
       d="m 40.50341,332.86117 -8.00188,9.74863 m 2.573845,-16.6622 -11.232415,5.5614 m 14.963457,-0.72544 -9.093891,8.33323 m 7.34632,-10.84221 -10.049403,7.09475 m 14.858981,-0.73891 -6.291413,11.72176 m -2.080678,-22.57319 -12.883908,3.54277" /><path
       id="path37"
       style="fill:none;stroke:#000000;stroke-width:0.8;stroke-linecap:butt;stroke-linejoin:miter;stroke-dasharray:none;stroke-opacity:1"
       d="m 67.169835,312.2875 11.459918,-5.26653 m -16.770002,-1.73804 8.229384,-9.45376 m -4.498342,14.28972 10.367908,-6.68192 m -12.351379,4.35494 9.412394,-7.92041 m -4.484867,14.18525 12.934485,-3.11139 M 60.162758,303.20532 66.8586,291.64193" /><path
       id="path38"
       style="fill:none;stroke:#000000;stroke-width:0.8;stroke-linecap:butt;stroke-linejoin:miter;stroke-dasharray:none;stroke-opacity:1"
       d="m 57.91696,335.00086 5.266523,11.45992 m 1.738049,-16.77001 9.453759,8.22939 m -14.289724,-4.49834 6.681924,10.3679 m -4.354943,-12.35138 7.920406,9.4124 m -14.185248,-4.48487 3.111391,12.93449 m 7.74004,-21.30658 11.56339,6.69584" /><rect
       style="fill:#d9a14b;fill-opacity:1;fill-rule:evenodd;stroke:#000000;stroke-width:0.999999;stroke-linecap:round;stroke-miterlimit:10;stroke-dasharray:none"
       id="rect38"
       width="12.960796"
       height="33.668274"
       x="-160.90549"
       y="266.90555"
       transform="rotate(-37.650889)" /><path
       id="path39"
       style="fill:none;stroke:#000000;stroke-width:0.8;stroke-linecap:butt;stroke-linejoin:miter;stroke-dasharray:none;stroke-opacity:1"
       d="m 54.525022,334.08542 10.202702,-7.87158 m -11.922619,5.64232 10.202702,-7.87158 m -11.922624,5.64232 10.202702,-7.87159 m -11.922619,5.64233 10.202702,-7.87158 m -11.922623,5.64231 10.202701,-7.87158 m -11.922618,5.64233 10.202701,-7.87159 m -11.922618,5.64233 10.202702,-7.87159 m -11.922624,5.64232 10.202702,-7.87158 m -11.922619,5.64232 10.202702,-7.87158 m -11.922624,5.64232 10.202702,-7.87159 m -11.922618,5.64233 10.202701,-7.87159" /><path
       style="fill:#d9a14b;fill-opacity:1;stroke:#000000;stroke-width:0.999999;stroke-linecap:butt;stroke-linejoin:miter;stroke-dasharray:none;stroke-opacity:1"
       d="M 35.288001,310.02092 8.7661318,294.40779 37.487033,272.24906 46.24132,301.49517 Z"
       id="path40"
       sodipodi:nodetypes="ccccc" /><path
       id="path41"
       style="fill:none;stroke:#000000;stroke-width:0.8;stroke-linecap:butt;stroke-linejoin:miter;stroke-dasharray:none;stroke-opacity:1"
       d="M 37.175674,308.42771 14.827098,289.82572 M 43.676417,303.31818 31.562568,277.00806 M 41.330885,305.03372 25.1747,281.65418 m 14.183055,25.09001 -19.313897,-21.13146" /></g></svg>
