<?xml version="1.0" encoding="UTF-8" standalone="no"?>
<!-- Created with Inkscape (http://www.inkscape.org/) -->

<svg
   width="400"
   height="400"
   viewBox="0 0 400 400"
   version="1.1"
   id="svg1"
   xml:space="preserve"
   inkscape:version="1.3.2 (091e20e, 2023-11-25)"
   sodipodi:docname="macoInsignia.svg"
   xmlns:inkscape="http://www.inkscape.org/namespaces/inkscape"
   xmlns:sodipodi="http://sodipodi.sourceforge.net/DTD/sodipodi-0.dtd"
   xmlns="http://www.w3.org/2000/svg"
   xmlns:svg="http://www.w3.org/2000/svg"><sodipodi:namedview
     id="namedview1"
     pagecolor="#ffffff"
     bordercolor="#666666"
     borderopacity="1.0"
     inkscape:showpageshadow="2"
     inkscape:pageopacity="0.0"
     inkscape:pagecheckerboard="0"
     inkscape:deskcolor="#d1d1d1"
     inkscape:document-units="px"
     showguides="true"
     inkscape:zoom="2.19"
     inkscape:cx="200"
     inkscape:cy="200"
     inkscape:window-width="1840"
     inkscape:window-height="1125"
     inkscape:window-x="2273"
     inkscape:window-y="212"
     inkscape:window-maximized="0"
     inkscape:current-layer="layer2"><sodipodi:guide
       position="161.64384,280.3653"
       orientation="0,-1"
       id="guide1"
       inkscape:locked="false" /><sodipodi:guide
       position="174.42922,69.406393"
       orientation="0,-1"
       id="guide2"
       inkscape:locked="false" /><sodipodi:guide
       position="186.75799,221.00457"
       orientation="1,0"
       id="guide3"
       inkscape:locked="false" /></sodipodi:namedview><defs
     id="defs1"><inkscape:path-effect
       effect="fillet_chamfer"
       id="path-effect3"
       is_visible="true"
       lpeversion="1"
       nodesatellites_param="F,0,0,1,0,34.885845,0,1 @ F,0,0,1,0,34.567211,0,1 @ F,0,0,1,0,38.478807,0,1"
       radius="0"
       unit="px"
       method="auto"
       mode="F"
       chamfer_steps="1"
       flexible="false"
       use_knot_distance="true"
       apply_no_radius="true"
       apply_with_radius="true"
       only_selected="false"
       hide_knots="false" /></defs><g
     inkscape:groupmode="layer"
     id="layer2"
     inkscape:label="Insignia"><path
       style="fill:#000000;fill-opacity:1;stroke:none;stroke-width:0.536212px;stroke-linecap:butt;stroke-linejoin:miter;stroke-opacity:1"
       d="m 309.2527,288.56722 h 73.91833 a 11.788384,11.788384 0 0 1 10.67627,16.78671 L 354.63,389.12072 a 9.6173031,9.6173031 0 0 1 -17.43372,-0.0294 l -38.77546,-83.556 a 11.941414,11.941414 0 0 1 10.83188,-16.96811 z"
       id="path3"
       sodipodi:nodetypes="cccc" /><path
       id="path4"
       style="fill:#670b0e;fill-opacity:1;stroke:none;stroke-width:0.504128px;stroke-linecap:butt;stroke-linejoin:miter;stroke-opacity:1"
       d="m 311.46004,291.49569 a 11.226894,11.226894 0 0 0 -10.18383,15.95335 l 36.45507,78.55607 a 9.0418476,9.0418476 0 0 0 16.39007,0.0283 l 36.87084,-78.75505 a 11.083021,11.083021 0 0 0 -10.03722,-15.78264 z m 8.91871,19.43768 h 51.61981 a 8.232178,8.232178 0 0 1 7.45565,11.72335 l -27.3866,58.4963 a 6.7160484,6.7160484 0 0 1 -12.17473,-0.0199 l -27.07764,-58.34968 a 8.339044,8.339044 0 0 1 7.56351,-11.85007 z" /><path
       id="path6"
       style="fill:#ffffff;fill-rule:evenodd;stroke-width:0.631473;stroke-linecap:round;stroke-linejoin:round;stroke-miterlimit:20;stroke-opacity:0.3"
       d="m 341.38242,322.37038 c 0,0 -5.40173,0.0113 -7.30889,1.95012 -1.83983,1.87035 -1.88189,7.54313 -1.88189,7.54313 0,0 -0.015,-5.72264 -1.80235,-7.54324 -1.83795,-1.87219 -7.51777,-1.95052 -7.51777,-1.95052 0,0 5.59279,-0.0546 7.41339,-1.84192 1.87219,-1.83795 1.90724,-7.58641 1.90724,-7.58641 0,0 0.0829,5.88704 1.9427,7.63352 1.92452,1.80726 7.24757,1.79532 7.24757,1.79532 z"
       sodipodi:nodetypes="cscscscsc" /><path
       id="text6"
       style="font-weight:bold;font-size:23.0825px;line-height:1.25;font-family:'Microgramma D Extended';-inkscape-font-specification:'Microgramma D Extended Bold';text-align:end;text-anchor:end;fill:#ffffff;stroke-width:0.477223"
       d="m 315.50091,296.12713 v 7.55182 h 2.2155 l -0.0554,-5.64971 h 0.39878 l 2.78046,5.64971 h 1.8721 l 2.78045,-5.64971 h 0.37663 l -0.0554,5.64971 h 2.21549 v -7.55182 h -4.05436 l -2.20441,4.90246 -2.19335,-4.90246 z m 27.14219,7.55182 h 2.56889 l -3.88115,-7.55182 h -3.51416 l -3.92563,7.55182 h 2.58002 l 0.63388,-1.27939 h 4.90426 z m -1.42346,-2.93241 h -3.31399 l 1.43458,-2.86448 h 0.44483 z m 17.27788,0.0226 c -0.0116,1.12088 -0.0464,1.13221 -2.63328,1.13221 -2.48248,0 -2.51728,-0.0227 -2.51728,-1.95873 0,-1.14352 0.0928,-1.58508 0.37121,-1.81152 0.23201,-0.18115 0.66122,-0.22644 2.13447,-0.22644 1.48484,0 2.16927,0.0679 2.34328,0.21511 0.1392,0.11322 0.1624,0.21512 0.1856,0.71329 h 2.35487 v -0.37362 c 0,-1.21146 -0.23201,-1.76624 -0.89322,-2.09458 -0.53362,-0.27173 -1.25284,-0.35099 -3.31771,-0.35099 -4.04853,0 -4.89535,0.19247 -5.31297,1.21146 -0.17401,0.41892 -0.22041,1.04163 -0.22041,2.72862 0,0.96238 0.0232,1.58509 0.058,1.92475 0.0928,0.7699 0.32481,1.18882 0.83522,1.47187 0.62643,0.35098 1.60086,0.44156 4.62856,0.44156 1.71686,0 2.56368,-0.0679 3.1901,-0.26041 0.85843,-0.27173 1.18324,-0.82651 1.18324,-2.04929 0,-0.11323 -0.0116,-0.28305 -0.0232,-0.71329 z m 13.86352,-4.75527 c -3.23156,0 -3.94968,0.0793 -4.5404,0.52081 -0.59072,0.44156 -0.76446,1.21147 -0.76446,3.31737 0,2.21913 0.16216,2.96638 0.76446,3.41926 0.59072,0.44156 1.30884,0.52082 4.56356,0.52082 3.19682,0 3.92652,-0.0793 4.51723,-0.52082 0.59072,-0.44156 0.76446,-1.20013 0.76446,-3.37397 0,-2.16252 -0.17374,-2.9211 -0.76446,-3.36266 -0.59071,-0.44155 -1.30884,-0.52081 -4.54039,-0.52081 z m 0,1.95872 c 2.15437,0 2.40918,0.034 2.67559,0.33966 0.20849,0.24909 0.27798,0.67932 0.27798,1.80021 0,0.91709 -0.0811,1.24543 -0.34748,1.44922 -0.31274,0.22644 -0.69495,0.27173 -2.58293,0.27173 -1.94588,0 -2.31652,-0.0339 -2.62926,-0.27173 -0.27798,-0.21512 -0.34747,-0.52081 -0.34747,-1.46054 0,-0.96238 0.0463,-1.39262 0.18532,-1.65302 0.23164,-0.44156 0.45171,-0.47553 2.76825,-0.47553 z m -42.1866,3.67315 v 2.07497 h 2.22514 v -2.07495 z m 16.4958,0 v 2.07497 h 2.15865 v -2.07495 z m 16.18653,0 v 2.07497 h 2.27057 v -2.07495 z m 16.76858,0 v 2.07497 h 2.1534 v -2.07495 z" /><path
       style="fill:#527b9c;fill-opacity:1;stroke:#000000;stroke-width:0.536212px;stroke-linecap:butt;stroke-linejoin:miter;stroke-opacity:1"
       d="m 344.75639,325.0222 c 0,0 -2.32848,-0.61597 -3.50592,-0.5194 -2.06908,0.16972 -5.92978,1.90446 -5.92978,1.90446 0,0 2.60228,0.31815 3.59249,1.08207 0.8973,0.69224 1.77461,2.89996 1.77461,2.89996 z"
       id="path14"
       sodipodi:nodetypes="cscscc" /><path
       id="path18"
       style="color:#000000;fill:#032f52;stroke-width:0.536212;-inkscape-stroke:none"
       d="m 367.47218,307.31813 c -0.0908,-0.0127 -0.18812,-0.0121 -0.29534,10e-4 -2.03002,0.24909 -5.39383,2.67155 -7.96358,3.93885 -0.79891,0.394 -1.7251,0.57413 -2.42447,1.12584 -0.69347,0.54705 -1.05132,1.42208 -1.64425,2.07677 -4.06846,4.49226 -9.14289,8.02337 -13.0712,12.63868 -2.51093,2.95005 -4.74121,6.12127 -6.88697,9.35438 -1.92111,0.25143 -4.42657,0.62016 -6.01563,1.02111 -3.31635,0.83678 -6.63863,1.84704 -9.67171,3.42777 -1.08955,0.56784 -2.99839,2.14275 -2.99839,2.14275 0,0 3.63,-0.17615 5.44695,-0.18327 2.3676,-0.009 4.7357,0.0702 7.10062,0.18327 0.49249,0.0235 1.12133,0.0637 1.77306,0.10787 -0.34713,0.53521 -0.691,1.074 -1.04101,1.60655 -1.16423,1.77142 -3.32867,5.25749 -3.9001,6.179 l 11.20285,24.14105 c -0.18022,-1.56021 -0.38123,-3.41513 -0.46395,-4.69709 -0.12658,-1.96147 0.0285,-3.90787 0.34665,-5.88681 0.34838,-2.16688 1.44829,-4.22068 2.77008,-5.97268 2.52589,-3.34801 6.35912,-5.4691 9.52195,-8.22332 1.05992,-0.92301 2.11647,-1.83292 3.16595,-2.74598 2.13696,0.40036 4.47688,0.57359 7.53629,2.16369 2.12155,1.10266 3.42331,1.95276 5.57052,3.48852 1.34364,0.96101 3.82612,2.36434 4.42585,2.702 l 0.32466,-0.52678 c -0.0867,-0.52037 -0.2173,-1.16205 -0.34351,-1.50181 -0.65777,-1.77064 -1.09464,-3.50831 -2.14171,-5.0804 -1.2747,-1.91382 -3.21996,-3.62982 -4.89712,-5.20293 -0.91117,-0.85466 -2.5508,-2.05047 -3.5524,-2.76275 1.48619,-1.67074 2.97525,-3.34749 4.02159,-5.33698 1.39621,-2.8629 2.35308,-5.93296 3.20365,-9.00249 1.05328,-3.80109 1.91333,-7.58887 2.10715,-11.58511 0.041,-0.8443 0.0669,-1.97807 0.008,-3.03818 -0.10357,-1.87673 -0.15538,-3.66438 -0.51421,-4.09804 -0.21749,-0.26284 -0.42818,-0.41652 -0.70064,-0.45452 z" /><path
       id="path17"
       style="fill:#527b9c;fill-opacity:1;stroke:none;stroke-width:0.536212;stroke-linecap:butt;stroke-linejoin:miter;stroke-dasharray:none;stroke-opacity:1"
       d="m 367.47218,307.31813 c -0.0908,-0.0127 -0.18812,-0.0121 -0.29534,10e-4 -2.03002,0.24909 -5.39383,2.67156 -7.96358,3.93885 -0.79891,0.394 -1.7251,0.57413 -2.42447,1.12584 -0.69347,0.54705 -1.05132,1.42208 -1.64425,2.07677 -4.06846,4.49225 -9.14289,8.02337 -13.0712,12.63868 -2.43409,2.85978 -4.60269,5.92869 -6.68799,9.05905 l 5.47732,-0.33618 c 0,0 0.41591,-0.14483 0.55087,-0.30581 1.24781,-1.48836 0.85925,-3.86744 1.89769,-5.50874 1.3886,-2.19475 3.62469,-3.72669 5.56948,-5.448 1.27182,-1.12565 3.14525,-1.70282 3.97865,-3.1827 0.23222,-0.41237 -0.0479,-0.99624 0.18432,-1.40861 0.25643,-0.45536 0.96817,-0.52368 1.22429,-0.97921 0.31255,-0.55592 0.0357,-1.29492 0.24401,-1.89769 0.36468,-1.05501 0.8881,-2.12643 1.71441,-2.8769 0.60133,-0.54614 1.3951,-0.9604 2.2035,-1.03996 0.25116,-0.0247 0.54898,0.0118 0.73415,0.18328 0.18937,0.17536 0.076,0.53917 0.24507,0.73415 0.0598,0.0689 0.15566,0.1408 0.24506,0.12253 0.86513,-0.17696 1.04488,-1.44447 1.71441,-2.02022 1.23646,-1.06329 3.05032,-1.37683 4.16192,-2.57005 0.32972,-0.35391 0.34808,-0.92812 0.67341,-1.28607 0.37684,-0.41461 1.40756,-0.91742 1.40756,-0.91742 l -0.0241,-0.0723 c -0.038,-0.0108 -0.0747,-0.0247 -0.1152,-0.0303 z m -37.19969,35.48213 -0.30162,0.30162 c 0.28953,0.018 0.53782,0.0301 0.8504,0.0513 -0.34713,0.5352 -0.691,1.074 -1.04101,1.60654 -0.72492,1.10299 -1.72176,2.68805 -2.59623,4.08757 -0.15723,0.87256 -0.31015,1.84978 -0.34665,2.53444 -0.0244,0.45783 -0.004,1.07732 0.0314,1.68718 l 1.57722,3.3974 c -0.0352,-0.26759 -0.0616,-0.52294 -0.0712,-0.74986 -0.082,-1.93176 0.0981,-3.92825 0.7352,-5.7538 0.55803,-1.59905 1.5131,-3.0747 2.63183,-4.34624 0.84405,-0.95936 2.99943,-2.38782 2.99943,-2.38782 z" /><path
       id="path48"
       style="color:#000000;fill:#000000;stroke-width:0.536212;-inkscape-stroke:none"
       d="m 367.30042,306.93063 c -0.16357,-0.01 -0.35201,0.0114 -0.65979,0.0492 -0.34382,0.0423 -0.83502,0.23751 -1.43269,0.52051 -0.59767,0.28299 -1.29441,0.65511 -2.00765,1.05566 -1.42706,0.80142 -2.909,1.72127 -4.16507,2.34069 -0.72946,0.35974 -1.69603,0.54112 -2.49569,1.17192 -0.80184,0.63256 -1.1688,1.5425 -1.69346,2.1218 -4.02704,4.44652 -9.10518,7.97987 -13.07854,12.64811 -2.48881,2.92407 -4.69583,6.05906 -6.81575,9.24756 -1.90093,0.25109 -4.29893,0.6003 -5.87949,0.99911 -3.32897,0.83996 -6.68114,1.85637 -9.75863,3.46024 -1.18757,0.61891 -3.0696,2.19093 -3.0696,2.19093 l -0.34142,0.28067 0.21889,0.44929 0.39797,-0.0189 c 0,0 3.63721,-0.17625 5.43019,-0.18328 2.35752,-0.009 4.71854,0.0704 7.07967,0.18328 0.29727,0.0142 0.69338,0.0408 1.07975,0.066 -0.22145,0.34328 -0.44234,0.68646 -0.66503,1.02529 -1.11908,1.70272 -3.07354,4.84716 -3.76604,5.96326 l 0.40634,0.87449 0.0461,-0.0754 c 0.42556,-0.68685 2.78375,-4.49117 3.98598,-6.32039 0.35199,-0.53558 0.69602,-1.07512 1.04205,-1.60864 l 0.37284,-0.57391 -0.68284,-0.0461 c -0.65266,-0.0443 -1.28337,-0.0851 -1.78143,-0.10892 -2.36872,-0.1132 -4.74393,-0.19259 -7.12156,-0.18327 -1.39094,0.005 -3.13691,0.0925 -4.13156,0.13928 0.56104,-0.44896 1.23421,-1.0079 1.87046,-1.33947 2.98859,-1.55755 6.28114,-2.56176 9.58478,-3.39532 1.54808,-0.39061 4.05315,-0.76098 5.9685,-1.01168 l 0.18328,-0.0241 0.10054,-0.15185 c 2.14176,-3.22708 4.36275,-6.38546 6.85764,-9.31668 3.88302,-4.5621 8.95422,-8.09154 13.06388,-12.62925 0.65629,-0.72467 1.01558,-1.57358 1.59502,-2.03069 0.59499,-0.46938 1.4896,-0.65487 2.35326,-1.08081 1.31351,-0.64778 2.79918,-1.5728 4.20382,-2.36164 1.40405,-0.78847 2.74814,-1.43118 3.63094,-1.53951 0.16047,-0.0197 0.26201,0.002 0.35504,0.0524 0.093,0.05 0.1805,0.13636 0.28172,0.25868 -0.009,-0.0103 0.0256,0.0414 0.0524,0.11101 0.0268,0.0695 0.0567,0.1652 0.0817,0.27858 0.0509,0.23076 0.0943,0.54081 0.12882,0.89962 0.069,0.71789 0.10722,1.63256 0.15918,2.57424 0.0573,1.03778 0.0321,2.16228 -0.008,2.99734 -0.19163,3.95099 -1.04255,7.70804 -2.09249,11.49713 -0.84763,3.05896 -1.79769,6.10274 -3.17433,8.92709 -1.01635,1.93058 -2.47926,3.58304 -3.96399,5.25215 l -0.29847,0.33408 0.36655,0.26078 c 0.99713,0.70909 2.63762,1.91042 3.50947,2.72819 1.68373,1.57929 3.60602,3.28393 4.83742,5.13276 0.99971,1.50097 1.43252,3.20137 2.09981,4.99766 0.0893,0.24032 0.21948,0.81416 0.30372,1.2913 0.004,0.0244 0.006,0.0416 0.009,0.0639 -0.69184,-0.38928 -2.85648,-1.59945 -4.10956,-2.49569 -2.15268,-1.53966 -3.48178,-2.40825 -5.6187,-3.51889 -3.12333,-1.62332 -5.54212,-1.80804 -7.6473,-2.20244 h -10e-4 l -0.19165,-0.0346 -0.14557,0.12672 c -1.04847,0.9122 -2.10492,1.82204 -3.16596,2.74599 -3.11825,2.71543 -6.98424,4.84644 -9.5785,8.28511 -1.34812,1.78687 -2.48343,3.89233 -2.84653,6.15072 -0.3215,1.99956 -0.47988,3.97732 -0.35084,5.97687 0.0741,1.14842 0.213,2.39769 0.35084,3.56183 l 0.88601,1.90817 0.12358,-0.0356 c -0.18449,-1.53909 -0.45421,-3.8741 -0.55821,-5.4857 -0.12411,-1.92329 0.0276,-3.83942 0.34247,-5.79779 0.33362,-2.07509 1.39832,-4.07775 2.69362,-5.79464 2.45702,-3.2567 6.25866,-5.36903 9.4654,-8.16152 1.0099,-0.87944 2.01695,-1.74792 3.01933,-2.61927 2.11338,0.38281 4.3216,0.57688 7.23362,2.09039 2.10624,1.09471 3.38054,1.92625 5.52236,3.45815 1.39783,0.99978 3.92242,2.42414 4.48972,2.74284 l 0.12463,0.0691 0.23878,-0.49536 0.0723,0.0409 -0.021,-0.14663 0.40216,-0.83468 -0.008,-0.043 c -0.0797,-0.41234 -0.17091,-0.83142 -0.28067,-1.12688 -0.64798,-1.74427 -1.08953,-3.52049 -2.1836,-5.16313 -1.3177,-1.9784 -3.28654,-3.70641 -4.95681,-5.2731 -0.8587,-0.80544 -2.24392,-1.80788 -3.24974,-2.52815 1.3935,-1.56908 2.79161,-3.17437 3.79956,-5.09087 l 0.005,-0.0105 v -10e-4 c 1.41411,-2.89961 2.37698,-5.99381 3.22984,-9.07162 1.05659,-3.81301 1.9258,-7.63163 2.12181,-11.67307 0.0414,-0.85345 0.0682,-1.99668 0.008,-3.07903 -0.0516,-0.93501 -0.0909,-1.85337 -0.16337,-2.6067 -0.0362,-0.37677 -0.0807,-0.71254 -0.14348,-0.99702 -0.062,-0.28113 -0.13171,-0.5261 -0.29953,-0.72891 -0.18731,-0.22638 -0.42898,-0.30851 -0.72786,-0.45348 -0.159,-0.0771 -0.29095,-0.12229 -0.45453,-0.13196 z" /><path
       style="fill:#000000;fill-opacity:1;stroke:none;stroke-width:0.536212px;stroke-linecap:butt;stroke-linejoin:miter;stroke-opacity:1"
       d="m 355.43057,316.11234 c 0,0 1.11114,-1.25927 1.77513,-1.83634 0.2145,-0.18642 0.53078,-0.40882 0.79575,-0.30606 0.17015,0.066 0.25393,0.30743 0.24484,0.4897 -0.0228,0.45794 -0.41434,0.83482 -0.73453,1.16301 -0.25687,0.2633 -0.56102,0.52412 -0.91817,0.61212 -0.3785,0.0932 -1.16302,-0.12243 -1.16302,-0.12243 z"
       id="path20"
       sodipodi:nodetypes="csssssc" /><path
       style="fill:#000000;fill-opacity:1;stroke:none;stroke-width:0.750696;stroke-linecap:butt;stroke-linejoin:miter;stroke-dasharray:none;stroke-opacity:1"
       d="m 352.11449,326.23412 c 0,0 3.10247,-4.08035 5.15068,-5.75664 1.92643,-1.57661 5.47436,-4.37174 6.79543,-3.89546 1.43433,0.5171 1.89286,2.25215 2.07758,3.76561 0.36013,2.95067 -0.47611,8.44019 -0.47611,8.44019 0,0 -0.47508,-3.37907 -1.21192,-4.8477 -0.5228,-1.04199 -0.94063,-2.06873 -2.07759,-2.81339 -1.23619,-0.80965 -3.32142,0.76099 -4.93426,1.73132 -1.82152,1.09588 -5.32381,3.37607 -5.32381,3.37607 z"
       id="path23"
       sodipodi:nodetypes="cssscsssc" /><path
       id="path24"
       style="fill:#ffffff;fill-opacity:1;stroke:none;stroke-width:0.536212px;stroke-linecap:butt;stroke-linejoin:miter;stroke-opacity:1"
       d="m 363.38775,316.87778 -1.00958,0.39797 0.44405,1.45364 z m 0.12253,0 0.0461,1.10175 0.88706,-0.84202 z m -1.17819,0.36655 -1.23895,0.76557 0.68807,1.14782 z m 2.26528,0.10787 -0.39797,1.14783 0.91743,-0.29115 z m -3.6121,0.85668 -0.70377,0.44405 0.39797,0.94884 z m 4.23943,0.18328 -0.5048,1.30073 0.7949,-0.47442 z m -5.47837,0.84201 -0.47442,0.30582 0.27544,0.36759 z m 5.93708,0.27545 -0.91847,1.00958 1.0253,-0.045 z m -6.73302,0.27543 -0.65769,0.53516 0.4587,0.64304 z m 3.3817,0.0303 -0.22936,0.90276 0.56659,0.47443 z m -0.94885,0.0461 -0.25973,0.88811 0.73415,0.0607 z m -1.08603,0.25973 -0.0618,0.87239 0.56659,-0.19898 z m -0.97922,0.23041 -0.2147,1.10175 0.82632,-0.3676 z m -1.28607,0.0911 -0.97921,0.84202 0.65769,0.53517 z m 5.34117,0.0618 -0.42834,0.85668 0.69959,0.46186 -0.0115,0.0125 0.45871,0.41264 -0.0607,-0.84098 -0.37388,0.40216 z m 2.34069,0.25973 -0.78023,0.87239 0.82631,-0.0303 z m -7.60541,0.41367 -0.0147,0.99388 0.85669,-0.45871 z m -1.44106,0.4451 -0.86402,0.75405 0.58857,0.39693 z m 9.18471,0.12044 -0.68911,0.76557 0.68911,0.16861 z m -8.75324,0.0765 -0.26077,1.05671 0.87239,-0.56659 z m 7.68187,0.71948 -0.49013,0.12253 0.39797,0.93314 z" /><path
       style="color:#000000;fill:#000000;stroke-width:0.536212;-inkscape-stroke:none"
       d="m 363.39718,316.03471 c -0.28415,0.0428 -0.57482,0.14074 -0.87449,0.26077 -0.59933,0.24007 -1.2466,0.60822 -1.9092,1.03682 -1.32521,0.85721 -2.7031,1.95929 -3.67075,2.75123 -2.16664,1.77321 -5.2333,5.84177 -5.2333,5.84177 -0.26208,0.33688 0.30219,0.94922 0.68283,0.7352 0,0 3.50749,-2.28232 5.30871,-3.36598 0.81875,-0.49259 1.73103,-1.08279 2.54805,-1.43689 0.81702,-0.35409 1.45186,-0.43191 1.84428,-0.17489 1.02797,0.67328 1.37532,1.43678 1.90187,2.48626 0.31788,0.63357 0.63042,1.83614 0.83783,2.84758 0.20741,1.01144 0.32466,1.84218 0.32466,1.84218 l 1.0075,0.006 c 0,0 0.85942,-5.45917 0.4786,-8.57939 -0.0957,-0.78381 -0.25921,-1.64111 -0.61266,-2.40771 -0.35345,-0.76661 -0.92632,-1.46083 -1.79819,-1.77516 -0.27413,-0.0988 -0.5516,-0.11086 -0.83574,-0.0681 z m 0.49013,1.02634 c 0.56245,0.20278 0.93742,0.63457 1.21799,1.24314 0.28059,0.60856 0.43774,1.37539 0.5268,2.10504 0.17668,1.4477 0.0472,3.55404 -0.12359,5.32128 -0.17896,-0.71579 -0.33041,-1.47541 -0.60323,-2.01918 -0.51905,-1.0345 -1.00783,-2.06505 -2.25377,-2.88108 -0.84377,-0.55264 -1.86993,-0.31431 -2.80778,0.0922 -0.93785,0.40647 -1.87441,1.02093 -2.66849,1.49866 -0.92099,0.5541 -1.56493,0.98553 -2.66954,1.69347 0.99355,-1.17237 2.16928,-2.49528 3.08217,-3.2424 0.95878,-0.78468 2.31796,-1.86877 3.57858,-2.68421 0.63032,-0.40771 1.2377,-0.7474 1.73536,-0.94674 0.49766,-0.19934 0.87322,-0.22062 0.9855,-0.18014 z"
       id="path46"
       sodipodi:nodetypes="ssssccsssssccsssssssscsssscssss" /></g></svg>
