<?xml version="1.0" encoding="UTF-8" standalone="no"?>
<!-- Created with Inkscape (http://www.inkscape.org/) -->

<svg
   width="400"
   height="400"
   viewBox="0 0 400 400"
   version="1.1"
   id="svg1"
   xml:space="preserve"
   inkscape:version="1.3.2 (091e20e, 2023-11-25)"
   sodipodi:docname="CardassianLogo.svg"
   xmlns:inkscape="http://www.inkscape.org/namespaces/inkscape"
   xmlns:sodipodi="http://sodipodi.sourceforge.net/DTD/sodipodi-0.dtd"
   xmlns="http://www.w3.org/2000/svg"
   xmlns:svg="http://www.w3.org/2000/svg"><sodipodi:namedview
     id="namedview1"
     pagecolor="#ffffff"
     bordercolor="#666666"
     borderopacity="1.0"
     inkscape:showpageshadow="2"
     inkscape:pageopacity="0.0"
     inkscape:pagecheckerboard="0"
     inkscape:deskcolor="#d1d1d1"
     inkscape:document-units="px"
     showguides="true"
     inkscape:zoom="2.1625"
     inkscape:cx="199.76879"
     inkscape:cy="200"
     inkscape:window-width="1784"
     inkscape:window-height="1078"
     inkscape:window-x="2268"
     inkscape:window-y="227"
     inkscape:window-maximized="0"
     inkscape:current-layer="layer2" /><defs
     id="defs1" /><g
     inkscape:groupmode="layer"
     id="layer2"
     inkscape:label="Logo"><path
       style="fill:#68d3c2;fill-opacity:1;stroke:none;stroke-width:0.45716px;stroke-linecap:butt;stroke-linejoin:miter;stroke-opacity:1"
       d="m 356.3133,306.84236 11.06186,-1.42011 13.60311,-9.56702 -3.8866,-10.46392 -8.52063,-8.67012 -11.88403,-6.05413 -2.4665,-8.8196 c 0,0 -7.25001,-5.53093 -7.69846,-5.53093 -0.44846,0 -5.45619,-1.27062 -5.45619,-1.27062 l -8.2964,2.01804 -5.68042,5.38145 -1.9433,8.37115 -10.31445,4.85825 -6.42784,5.00773 -6.05413,10.31445 -3.73712,10.7629 8.37115,4.78351 15.92012,13.97682 10.2397,10.09021 -6.8763,-25.03868 -0.22422,-9.79125 2.09278,-11.73455 4.03609,-2.54124 8.8196,2.09279 8.52062,-1.64434 4.26031,2.54125 1.79382,12.85568 z"
       id="path11" /><path
       style="fill:#e3f052;fill-opacity:1;stroke:none;stroke-width:0.45716px;stroke-linecap:butt;stroke-linejoin:miter;stroke-opacity:1"
       d="m 380.6793,296.37843 -13.45362,9.04382 -11.06187,1.42011 -5.60567,19.50775 9.1933,-9.19331 14.35053,-11.06187 8.07218,-4.85825 z"
       id="path10" /><path
       id="path8"
       style="fill:#232323;fill-opacity:1;fill-rule:evenodd;stroke-width:0.320012;stroke-linecap:round;stroke-linejoin:round;stroke-miterlimit:20"
       d="m 340.93352,253.45168 c -7.6105,1e-5 -16.86362,5.07418 -17.81494,15.64433 -16.98269,7.64573 -20.64702,14.12807 -27.16528,34.03517 14.51633,5.10891 33.73667,26.60145 34.98789,40.48363 0.57993,6.4343 1.33882,13.17753 -4.96804,17.44082 l 8.45566,32.13332 4.33409,0.10625 2.17062,-20.61236 2.17062,20.61236 4.33409,-0.10625 8.45566,-32.13332 c -6.30686,-4.26329 -5.54797,-11.00652 -4.96804,-17.44082 1.25122,-13.88218 20.47156,-35.37472 34.98789,-40.48363 -6.51826,-19.9071 -10.18259,-26.38944 -27.16528,-34.03517 -0.95132,-10.57015 -10.20444,-15.64432 -17.81494,-15.64433 z m 0.075,4.17962 c 6.69358,0 12.24522,5.83502 12.94244,13.23799 0.0733,0.77786 1.07019,2.01653 1.64471,2.18401 11.45699,3.33985 19.42862,9.87644 23.67229,23.29907 l -12.4326,8.5012 -9.36285,1.33755 -0.20446,-9.19052 -2.64207,-13.31834 -4.96804,-2.85368 -6.97614,1.90275 0.31698,-7.29402 5.17965,-1.90185 1.69113,-7.29402 -8.93604,6.55381 -8.93604,-6.55381 1.69113,7.29402 5.17965,1.90185 0.31698,7.29402 -6.97614,-1.90275 -4.96804,2.85368 -2.64206,13.31834 -0.21162,9.51374 5.91896,17.96852 c -9.65406,-11.29529 -16.61698,-17.65756 -28.96177,-23.5714 3.80436,-16.56624 12.23548,-24.15849 24.9268,-27.85816 0.57452,-0.16748 1.57145,-1.40615 1.64471,-2.18401 0.69722,-7.40297 6.39887,-13.23799 13.09244,-13.23799 z m 38.68713,40.08987 c 0.29485,1.0267 0.57305,2.08523 0.82682,3.19029 -12.34479,5.91384 -19.30771,12.27611 -28.96177,23.5714 l 5.55198,-16.85508 10.23341,-1.46167 z m -62.51925,0.96074 a 4.1144364,4.1144364 0 0 0 -4.11444,4.11444 4.1144364,4.1144364 0 0 0 4.11444,4.11444 4.1144364,4.1144364 0 0 0 4.11443,-4.11444 4.1144364,4.1144364 0 0 0 -4.11443,-4.11444 z" /><path
       id="path6"
       style="fill:#bd8391;fill-opacity:1;stroke:none;stroke-width:0.45716px;stroke-linecap:butt;stroke-linejoin:miter;stroke-opacity:1"
       d="m 349.66152,282.83758 3.06439,2.54117 1.19559,12.18259 -8.14673,31.84045 -3.73764,5.82968 h -1.10361 -1.10361 l -3.73764,-5.82968 -8.14673,-31.84045 1.19558,-12.18259 3.0644,-2.54117 7.17526,1.4947 0.15001,1.12058 -4.5591,2.16794 -3.1394,9.64142 2.24205,3.06439 5.90468,31.46723 0.9545,0.075 0.9545,-0.075 5.90468,-31.46723 2.24204,-3.06439 -3.13939,-9.64142 -4.5591,-2.16794 0.15,-1.12058 z m -1.71971,49.40449 -2.16704,15.99434 -3.66264,-5.90468 h -2.35722 l -3.66264,5.90468 -2.16705,-15.99434 5.15645,5.08233 h 3.7037 z m -6.42791,11.88347 5.00822,8.74496 0.74735,10.46468 c -3.11427,-1.91839 -6.21138,-7.3503 -6.33595,-12.48261 -0.12457,5.13231 -3.22169,10.56422 -6.33595,12.48261 l 0.74735,-10.46468 5.00822,-8.74496 z m -0.58038,13.15495 c 1.2457,6.67698 3.29613,9.3931 9.32534,10.38966 l -4.78321,21.52579 -2.09294,-17.78904 -2.44919,-4.5591 -2.4492,4.5591 -2.09293,17.78904 -4.78321,-21.52579 c 6.02921,-0.99656 8.07963,-3.71268 9.32534,-10.38966 z"
       sodipodi:nodetypes="ccccccccccccccccccccccccccccccccccccccccccccccccccc" /><path
       id="path7"
       style="fill:#e8d4d8;fill-opacity:1;stroke:none;stroke-width:0.45716px;stroke-linecap:butt;stroke-linejoin:miter;stroke-opacity:1"
       d="m 342.25857,286.21896 3.75281,2.74831 2.37777,8.24494 -2.37777,2.48403 -5.07786,29.96627 -5.07787,-29.96627 -2.37776,-2.48403 2.37776,-8.24494 3.75282,-2.74831 0.21161,1.16343 -2.11436,2.11347 -1.0045,6.39488 1.53309,2.90725 h 5.39842 l 1.53308,-2.90725 -1.00449,-6.39488 -2.11437,-2.11347 z"
       sodipodi:nodetypes="cccccccccccccccccc" /></g></svg>
