<?xml version="1.0" encoding="UTF-8" standalone="no"?>
<svg
   width="100%"
   height="100%"
   viewBox="0 0 400 400"
   version="1.1"
   xml:space="preserve"
   style="fill-rule:evenodd;clip-rule:evenodd;stroke-linejoin:round;stroke-miterlimit:2;"
   id="svg12"
   sodipodi:docname="LowerDecksCetaceanUniform.svg"
   inkscape:version="1.3.2 (091e20e, 2023-11-25)"
   xmlns:inkscape="http://www.inkscape.org/namespaces/inkscape"
   xmlns:sodipodi="http://sodipodi.sourceforge.net/DTD/sodipodi-0.dtd"
   xmlns="http://www.w3.org/2000/svg"
   xmlns:svg="http://www.w3.org/2000/svg"><defs
   id="defs12">
        
    
            
            
            
            
            
            
            
            
            
            
        
                
            
                
            
                
            
                
            
                
            
                
            
                
            
                
            
                
            
                
            
                    
                </defs><sodipodi:namedview
   id="namedview12"
   pagecolor="#ffffff"
   bordercolor="#666666"
   borderopacity="1.0"
   inkscape:showpageshadow="2"
   inkscape:pageopacity="0.0"
   inkscape:pagecheckerboard="0"
   inkscape:deskcolor="#d1d1d1"
   inkscape:zoom="1.4925"
   inkscape:cx="200"
   inkscape:cy="200"
   inkscape:window-width="2008"
   inkscape:window-height="810"
   inkscape:window-x="2354"
   inkscape:window-y="401"
   inkscape:window-maximized="0"
   inkscape:current-layer="layer2"
   showguides="true" />
    
<g
   inkscape:groupmode="layer"
   id="layer2"
   inkscape:label="Uniform"><path
     d="m 356.71911,360.28577 c 0.23067,-23.44794 0.64133,-48.51321 0.808,-58.20519 -9.95598,3.49199 -47.03322,14.73197 -110.99039,14.73197 h -0.0107 c -2.64932,0 -5.35598,-0.0187 -8.09864,-0.0587 -30.1386,-0.43867 -68.63583,-6.97065 -114.42772,-19.41195 -36.626573,-9.95198 -67.434496,-20.90928 -78.979801,-25.15861 l -0.822664,-0.30399 c -1.694663,9.32797 -7.82654,41.83056 -12.681195,73.77048 5.971985,1.74399 24.470499,6.95331 48.469105,12.8573 l 11.809304,24.03061 23.541271,-15.8853 c 35.84658,7.66265 76.50248,14.4213 108.40773,14.4213 59.58919,0 112.14906,-8.49065 112.14906,-8.49065 l 12.69063,13.79064 2.41866,-17.59729 5.71732,-2.56533 c -0.0173,-1.91866 -0.02,-3.89066 0,-5.92532"
     style="fill-rule:nonzero;clip-rule:evenodd;stroke-linejoin:round;stroke-miterlimit:2;fill:#2d2d2d;fill-opacity:1;stroke-width:1.33333"
     id="path1"
     sodipodi:nodetypes="ccssccccccccsccccc" /><path
     d="m 117.73517,374.26706 c 37.68391,7.37865 78.60647,13.54263 105.12774,13.54263 55.77319,0 115.11171,-7.80531 115.11171,-7.80531 l 14.0773,17.42662 1.37599,-23.09061 4.99066,-1.23199 c 0.396,11.5813 -0.13867,21.06528 0.172,26.90526 H 23.019 l 5.809294,-47.53898 c 7.530647,2.85999 25.279035,7.70575 45.201652,12.39774 l 14.250631,31.50125 z"
     style="fill-rule:nonzero;clip-rule:evenodd;stroke-linejoin:round;stroke-miterlimit:2;fill:#d30000;stroke-width:1.33333"
     id="path2"
     sodipodi:nodetypes="cscccccccccc" /><path
     d="m 351.00179,368.77775 -2.41866,17.59728 -12.69064,-13.79063 c 0,0 -52.55986,8.49065 -112.14905,8.49065 -32.36792,0 -73.11848,-6.72399 -108.64106,-14.2653 L 91.793105,382.53904 80.130467,358.8031 C 52.254537,351.97779 32.939918,346.23247 32.939918,346.23247 l -1.174663,7.02665 c 6.049318,2.69199 21.873278,7.15065 42.433227,11.9853 l 14.081298,31.12926 29.17059,-21.89328 c 37.40124,7.24531 78.46514,13.3293 105.41307,13.3293 55.7732,0 112.27706,-8.78398 112.27706,-8.78398 l 16.91195,18.40529 2.93866,-23.29194 2.02133,-0.676 v -7.31998 z"
     style="fill-rule:nonzero;clip-rule:evenodd;stroke-linejoin:round;stroke-miterlimit:2;fill:#ffffff;stroke-width:1.33333"
     id="path3" /><path
     d="m 246.52738,316.81387 c -2.65066,0 -5.35599,-0.02 -8.09998,-0.0587 -30.13726,-0.44 -68.63583,-6.97065 -114.42638,-19.41195 -36.627909,-9.95197 -67.435832,-20.91061 -78.981136,-25.15994 l -1.115997,-0.41066 0.285332,-1.16266 c 1.174664,-4.77466 2.262661,-8.94532 3.234659,-12.39731 l 0.393332,-1.39866 1.347997,0.516 c 1.134664,0.432 114.273043,43.26656 191.254193,44.37589 2.64399,0.0387 5.23598,0.056 7.79064,0.056 37.49324,0 65.13584,-4.04399 81.72113,-7.43732 17.96929,-3.67599 27.1906,-7.39865 27.2826,-7.43598 l 1.92666,-0.78666 -0.108,2.09199 c -0.003,0.0507 -0.26533,5.15599 -0.53866,12.6493 l -0.0333,0.91067 -0.85333,0.3 c -9.84531,3.46265 -46.95321,14.75996 -111.07039,14.75996 z"
     style="fill-rule:nonzero;clip-rule:evenodd;stroke-linejoin:round;stroke-miterlimit:2;fill:#d30000;stroke-width:1.33333"
     id="path4" /><path
     d="m 227.1741,345.99914 0.76933,-0.16 c 1.84933,-0.38533 45.40255,-9.53998 56.55319,-17.04263 l 0.46134,-0.31066 -0.60267,-15.80263 h 7.62665 l -0.31467,19.47595 -0.47333,0.28667 c -0.9,0.54933 -22.44928,13.49596 -54.54786,18.62662 l -0.79734,0.128 -1.52977,41.44381 -8.15198,0.38667 z"
     style="fill-rule:nonzero;clip-rule:evenodd;stroke-linejoin:round;stroke-miterlimit:2;fill:#d30000;stroke-width:1.33333"
     id="path5"
     sodipodi:nodetypes="ccccccccccccc" /><path
     id="path6"
     style="clip-rule:evenodd;fill:#000000;fill-opacity:1;fill-rule:nonzero;stroke-width:1.33333;stroke-linejoin:round;stroke-miterlimit:2"
     d="m 47.691406,254.84375 c -0.36633,-0.0548 -0.735257,0.005 -1.169922,0.30273 -0.670662,0.46 -0.761221,1.57633 -0.949218,2.32032 -11.470605,45.44774 -18.777073,86.86226 -24.234375,138.27929 -0.122666,1.15599 -0.346913,2.29599 -0.517579,3.44532 -0.06,0.40134 -0.119687,0.41898 -0.179687,0.82031 h 2.675781 c 0,0 2.890626,-20.35446 6.835938,-45.57031 4.698639,1.37864 13.41215,4.33943 41,10.96875 l 16.25,33.1582 30.744136,-21.51953 c 32.0065,6.18795 78.14271,12.62728 105.67188,12.22461 v 10.73828 h 2.80859 c 0.15769,-17.74665 0.91439,-35.02244 1.51953,-53.19531 0,0 47.84818,-9.9541 57.82813,-17.85938 -0.24902,-9.18583 -0.79344,-18.0783 -1.22852,-27.23242 48.52362,-3.67375 72.96485,-13.60156 72.96485,-13.60156 0,0 -0.26176,5.07664 -0.53906,12.66992 -0.005,0.13734 -0.0116,0.28516 -0.0156,0.42383 -8.36261,2.80796 -30.54849,9.21516 -66.48828,12.39648 l 0.004,17.97852 c 0,0 -22.60431,13.76161 -55.77344,18.74023 -1.51476,19.88112 -1.9578,23.80182 -1.87696,49.71875 l 2.19922,0.0215 0.12696,-11.04883 c 45.03557,-0.91487 77.93963,-2.9066 100.37304,-8.05274 l 17.00586,18.23438 2.78125,-23.40235 1.79883,-0.48242 c 0.232,13.39861 0.0153,20.93142 0.97656,24.69141 h 2.67383 c -4.09463,-16.3879 -0.60751,-114.88128 -0.60351,-114.97461 -0.0773,2.19066 -22.13257,6.53071 -23.8379,6.91601 -23.71585,5.35599 -48.10119,7.72541 -72.37304,8.44141 -68.70628,2.02799 -137.74656,-17.02768 -201.880861,-40.1582 -2.187989,-0.78933 -4.360842,-1.65313 -6.548828,-2.45313 -1.683993,-0.61733 -3.366265,-1.23788 -5.044922,-1.86718 -0.609332,-0.228 -1.218176,-0.45879 -1.826172,-0.68946 -0.421332,-0.15933 -0.784059,-0.32798 -1.150391,-0.38281 z m 1.00586,3.73242 c 0,0 113.590224,43.33561 191.703124,44.46094 15.59158,0.22463 29.56219,-0.2537 42.05078,-1.13281 l 0.58594,12.29687 c -13.13062,0.94046 -27.84714,1.45664 -44.29688,1.21875 -70.12362,-1.01333 -167.682705,-34.7547 -193.36523,-44.08398 0.03333,-0.13466 0.06628,-0.27159 0.09961,-0.40625 1.122661,-4.56399 2.206662,-8.74286 3.222657,-12.35352 z m -4.22461,16.49024 c 26.810518,9.61328 124.425144,42.86185 194.746094,43.86718 16.28523,0.23333 30.95559,-0.23663 44.01953,-1.14062 l 0.69727,10.17383 c -11.05594,7.43862 -55.73594,16.79658 -56.19727,16.89258 l -1.54101,0.32031 -1.23633,33.93359 c -0.312,0.005 -0.60721,0.0103 -0.92188,0.0156 -32.19583,0.51334 -73.65108,-6.1859 -110.04687,-13.86719 L 92.505859,380.17578 82.214844,358.06641 c -24.807863,-5.98132 -43.894668,-11.3989 -50.529297,-13.32422 4.045311,-25.31588 8.860464,-53.25988 12.787109,-69.67578 z m 312.542964,30.25586 c -0.33997,10.53595 -0.7238,36.80193 -0.5625,58.75781 -2.64796,1.17866 -4.91079,2.8549 -7.55078,3.3789 l -1.73437,15.44922 -10.88477,-12.17382 c -0.74133,0.1693 -1.47683,0.32893 -2.1875,0.46093 -22.27985,4.85732 -58.3649,6.82205 -98.66601,7.72071 l 1.375,-26.85743 c 32.3025,-5.16396 53.99078,-18.19842 54.91211,-18.75976 l 0.94336,-0.57422 0.0586,-15.68555 c 33.35849,-2.99997 54.80226,-8.71149 64.29687,-11.71679 z M 31.240234,347.54102 c 5.834637,1.69863 23.481304,6.73193 46.839844,12.44921 l 13.275391,26.28125 24.664061,-17.65625 c 35.81449,7.48398 76.22833,13.91536 107.79883,13.44336 v 4.28711 c -31.43316,0.46933 -71.63863,-5.90503 -107.34375,-13.34765 L 88.939453,393.07812 74.154297,363.31055 c -22.283878,-5.53066 -38.73186,-10.2566 -43.5625,-11.66993 0.212,-1.3533 0.429774,-2.72364 0.648437,-4.0996 z m 325.642576,20.50976 c 0.0147,1.44933 0.0308,2.87487 0.0508,4.26953 -2.13597,0.84133 -3.00586,0.99024 -3.00586,0.99024 l -2.8457,20.57617 -14.79883,-15.93555 c -0.74133,0.16934 -1.47683,0.32699 -2.1875,0.45899 -22.34439,4.87194 -55.5385,6.78778 -98.71484,7.68164 l 0.0508,-4.30274 c 44.04142,-0.92278 77.99551,-2.92565 100.72656,-8.19922 l 13.41992,15.15235 2.11719,-19.08789 c 4.43466,-1.01333 2.82351,-0.57419 5.1875,-1.60352 z"
     sodipodi:nodetypes="sccsccccccccccccccsccccccccccccccccccccscscccccccccccccccccccccccccccccccccccccccccccccccccccccc" /><path
     d="m 199.84083,380.10172 c 0.85466,-0.132 0.91733,-0.58667 1.176,-1.312 0.29066,-0.80666 0.58533,-1.61333 0.88799,-2.41599 0.60667,-1.61333 1.24,-3.21866 1.896,-4.81332 1.30933,-3.192 2.70933,-6.34666 4.17732,-9.46798 2.808,-5.97065 5.86665,-11.82264 9.10531,-17.57062 2.74,-4.86532 5.60932,-9.65731 8.59332,-14.3773 2.03199,-3.21333 4.11599,-6.39598 6.26531,-9.53198 0.708,-1.03066 1.41733,-2.06133 2.15066,-3.07466 0,0 0.87867,-11.1253 0.87734,-11.1253 -11.50664,-1.088 -22.98528,-2.48 -34.41859,-4.17199 -20.94661,-3.09866 -42.21456,-7.20265 -62.7905,-12.91997 -10.50798,-2.91999 -20.89862,-6.26932 -31.10126,-10.12531 -9.882642,-3.73332 -19.089286,-9.30531 -29.138594,-12.48663 -9.38131,-2.96933 -18.76262,-5.93865 -28.145263,-8.90798 -3.811991,-1.20533 -3.613324,4.36799 -4.182656,6.96132 -0.989331,4.51332 -1.955995,9.03064 -2.901326,13.55196 -2.541327,12.15464 -4.965321,24.33994 -7.00665,36.58924 -3.629324,21.77195 -11.615971,73.50115 -13.401299,85.11046 H 195.50617 c 0.0453,0 0.76,-4.42932 0.84267,-4.84132 0.35466,-1.76133 0.76133,-3.51199 1.212,-5.25332 0.10666,-0.40934 1.51733,-6.72799 1.68532,-6.69065 0,0 -29.05592,-1.788 -72.53581,-10.57198 -10.23331,-2.06666 -12.73597,-4.17199 -12.73597,-4.17199 L 89.818438,387.3697 76.379805,361.26043 47.875877,351.79512 78.3998,358.16311 91.794433,383.85637 115.07171,366.72708 c 0,0 22.17861,5.70932 39.3079,8.34532 17.12796,2.63466 45.46122,5.02932 45.46122,5.02932"
     style="fill-rule:nonzero;clip-rule:evenodd;stroke-linejoin:round;stroke-miterlimit:2;display:inline;opacity:0.2;stroke-width:1.33333;fill:#000000;fill-opacity:1"
     id="path10" /><g
     id="g15"
     style="fill-rule:evenodd;clip-rule:evenodd;stroke-linejoin:round;stroke-miterlimit:2;display:inline"
     transform="matrix(0.83221678,0,0,0.83221678,40.161529,67.496419)"><path
       style="color:#000000;fill:#a6a6a6;stroke-width:0.913966;stroke-miterlimit:40;-inkscape-stroke:none"
       d="m 322.45991,394.18881 13.65899,-42.96978 15.15091,41.29461 c 0,0 -5.72514,-8.65272 -11.18302,-9.17301 -3.86588,-0.36852 -17.62688,10.84818 -17.62688,10.84818 z"
       id="path14"
       sodipodi:nodetypes="cccsc" /><path
       style="color:#000000;fill:#000000;stroke-width:0.913966;stroke-miterlimit:40;-inkscape-stroke:none"
       d="m 336.09342,347.96428 -16.25172,49.34023 c 2.98367,-2.78441 6.3346,-5.05677 9.55348,-7.56396 3.25751,-2.5373 7.78274,-4.88311 10.72337,-4.83694 2.49538,0.0392 4.96571,2.01337 7.21484,4.30867 2.24914,2.29529 3.84303,4.5316 3.84303,4.5316 l 2.54996,3.21807 z m 0.20314,7.42215 11.65429,31.09162 c -2.35866,-2.37863 -4.69645,-4.12788 -7.90904,-4.43413 -2.90748,-0.27716 -7.72388,2.1453 -15.67803,8.45735 z"
       id="path15"
       sodipodi:nodetypes="ccssscccccscc" /></g></g></svg>
