<?xml version="1.0" encoding="UTF-8" standalone="no"?>
<!-- Created with Inkscape (http://www.inkscape.org/) -->

<svg
   version="1.1"
   id="svg171226"
   width="400"
   height="400"
   viewBox="0 0 400 400"
   sodipodi:docname="lowerDecksMale.svg"
   inkscape:version="1.3.2 (091e20e, 2023-11-25)"
   xml:space="preserve"
   xmlns:inkscape="http://www.inkscape.org/namespaces/inkscape"
   xmlns:sodipodi="http://sodipodi.sourceforge.net/DTD/sodipodi-0.dtd"
   xmlns="http://www.w3.org/2000/svg"
   xmlns:svg="http://www.w3.org/2000/svg"><defs
     id="defs171230" /><sodipodi:namedview
     id="namedview171228"
     pagecolor="#ffffff"
     bordercolor="#666666"
     borderopacity="1.0"
     inkscape:showpageshadow="2"
     inkscape:pageopacity="0.0"
     inkscape:pagecheckerboard="0"
     inkscape:deskcolor="#d1d1d1"
     showgrid="false"
     inkscape:zoom="1.8425"
     inkscape:cx="200"
     inkscape:cy="199.72863"
     inkscape:window-width="1920"
     inkscape:window-height="1145"
     inkscape:window-x="2264"
     inkscape:window-y="71"
     inkscape:window-maximized="0"
     inkscape:current-layer="g171234"><inkscape:page
       x="0"
       y="0"
       id="page171232"
       width="400"
       height="400"
       margin="0"
       bleed="0" /></sodipodi:namedview><g
     inkscape:groupmode="layer"
     id="layer3"
     inkscape:label="Neck"
     style="display:none"><path
       d="m 213.63253,151.29441 -13.54934,47.14666 c 0,0 12.42667,24.85333 21.464,31.49067 9.03734,6.636 24.148,15.816 35.02134,17.228 l 3.67066,3.67066 2.82534,-2.824 5.224,-2.25866 4.3151,-10.28435 17.92623,-23.67699 z"
       style="display:inline;fill:#cd976d;fill-opacity:1;fill-rule:nonzero;stroke:none;stroke-width:1.33333"
       id="path171974"
       sodipodi:nodetypes="cccccccccc" /><path
       d="m 200.08306,198.44081 c 0,0 12.86667,21.57066 17.836,27.06399 4.96933,5.49334 32.696,1.83067 40.54267,4.18534 6.33866,1.90133 13.09866,2.66533 15.47066,2.89066 l 16.59734,-20.79333 -76.89734,-60.49333 z"
       style="display:inline;opacity:0.199997;fill:#000000;fill-opacity:1;fill-rule:nonzero;stroke:none;stroke-width:1.33333"
       id="path171984" /><path
       d="m 211.64493,149.52841 c -1.01067,4.99733 -6.2,23.82533 -7.36934,28.788 -0.956,4.064 -1.95733,8.11866 -3.072,12.14266 -0.516,1.85867 -1.07466,3.70267 -1.63333,5.54934 -0.18666,0.616 -0.95466,1.86266 -0.88133,2.47466 0.02,0.16934 0.80667,2.38267 1.11067,1.93733 3.68799,-5.38666 5.03733,-14.18666 7.12666,-20.38133 1.49067,-4.41866 7.06133,-22.68666 8.552,-27.104 0,0 -3.83333,-3.40666 -3.83333,-3.40666"
       style="display:inline;fill:#000000;fill-opacity:1;fill-rule:nonzero;stroke:none;stroke-width:1.33333"
       id="path171994" /><path
       d="m 293.27599,213.31907 c -2.83733,2.044 -16.28266,19.912 -18.592,22.53067 -1.87866,2.13066 -4.41733,10.85066 -7.52933,10.948 -2.104,0.0653 -1.74133,-3.72534 -1.19333,-5.332 0.26266,-0.76934 21.288,-30.90934 21.288,-30.90934 0,0 6.02666,2.76267 6.02666,2.76267"
       style="display:inline;fill:#000000;fill-opacity:1;fill-rule:nonzero;stroke:none;stroke-width:1.33333"
       id="path171998" /></g><g
     id="g171234"
     inkscape:groupmode="layer"
     inkscape:label="Page 1"
     style="display:inline"><path
       id="path171958"
       style="fill:#2d2d2d;fill-opacity:1;fill-rule:nonzero;stroke:none;stroke-width:1.33333"
       d="m 194.24223,194.01442 -8.65434,12.27074 -4.10742,2.73828 c -0.004,0.0179 -0.004,0.0349 -0.008,0.0527 -1.9873,1.1534 -4.82885,2.07076 -7.0625,2.23633 l -40.07813,18.65039 -38.656276,18.60212 -13.198684,6.81052 -6.166523,7.62056 -10.418424,5.67289 c -11.834766,12.45088 -18.236587,26.45517 -24.011264,42.06344 l -14.60893,78.69588 c 0,0 0.502529,10.5717 6.644087,10.5717 h 42.386718 c 18.742349,0 32.553466,-21.75306 45.613286,-31.41016 0,0 77.47877,-4.76073 153.33203,-3.1914 75.85191,1.56934 91.18554,2.91601 91.18554,2.91601 l 3.25963,1.11809 15.59343,14.54342 -1.4761,-41.44276 c -1.52533,-11.00266 -6.3445,-45.00027 -8.67383,-52.57226 -2.78933,-9.06532 -4.29199,-11.15773 -12.44531,-16.03906 -8.15467,-4.88133 -35.08884,-19.29515 -45.54883,-21.61915 -10.46133,-2.32533 -30.30508,-14.70807 -40.52907,-19.05074 l -3.55006,3.80279 c -1.63186,2.11143 -3.49131,5.03341 -4.77439,8.69327 l -5.22461,2.25781 -2.74023,0.0293 -3.75586,-0.875 c -10.87332,-1.412 -25.98221,-10.5912 -35.01953,-17.22852 -9.03866,-6.63733 -25.06246,-32.10081 -25.06246,-32.10081 l -0.38867,-2.38282 z"
       sodipodi:nodetypes="ccccccccccccsscsccccccccccccccccc" /><path
       id="path171962"
       style="fill:#d30000;fill-opacity:1;fill-rule:nonzero;stroke:none;stroke-width:1.33333"
       d="m 195.29813,194.51603 c 0,0 -1.57094,0.58197 -2.81352,1.64589 -1.04554,0.8952 -1.76946,2.28515 -2.0146,2.43223 l 4.0498,5.77229 13.2048,17.30739 15.77344,16.30859 16.20117,10.19336 14.48437,3.9707 6.71485,-0.10742 -1.57617,21.0918 -31.41016,25.03711 -26.09766,19.57422 -50.22656,31.10742 0.85547,17.10156 c -17.07363,0.39308 -29.82031,0.74805 -29.82031,0.74805 -14.19073,8.29846 -29.762191,24.25795 -45.634769,33.29687 l 308.701169,-0.0293 -0.85742,-17.8125 -14.98828,-12.26563 -3.25781,-1.11914 c 0,0 -15.19448,-3.14047 -91.06055,-3.85156 -44.4989,-0.41709 -87.42662,0.25642 -116.95117,0.89453 l -0.76563,-12.25977 39.30079,-25.33984 39.45312,-30.5 27.91992,-23.82227 0.45508,-22.15429 c 0,0 9.15641,-5.66173 9.55859,-6.37305 0.55517,-0.98191 1.25143,-7.07129 1.25143,-7.07129 l 0.18211,-3.89431 -4.45836,-1.96647 -0.70662,7.41799 -4.61426,5.81682 -4.63672,1.28125 -14.41015,-1.77539 -18.77735,-9.65626 -16.07307,-15.89217 -12.47547,-17.08123 z m -118.309849,205.48006 -39.6875,0.002 0.002,0.002 h 39.677735 c 0.0025,-10e-4 0.0053,-0.002 0.0078,-0.004 z m -39.6875,0.002 c -5.730227,-4.61293 -11.53125,-7.99414 -11.53125,-7.99414 L 25.664062,400 Z"
       sodipodi:nodetypes="csccccccccccccccccccsccccccscccccccccccccccsccccc" /><path
       id="path4"
       style="fill:#ecfcfe;fill-opacity:1;stroke:none;stroke-width:1px;stroke-linecap:butt;stroke-linejoin:miter;stroke-opacity:1"
       d="m 257.08203,364.37695 -98.41601,0.63477 0.71875,12.76367 52.63281,-0.52148 h 77.68164 l 76.82422,3.86132 18.88476,14.59375 0.42774,-11.16015 -18.45313,-16.73828 z M 124.67773,364.5918 75.585495,400 h 16.310547 l 32.781688,-22.10352 v -6.23242 l 0.64454,6.44727 28.02929,-0.27735 -0.97851,-12.78125 -27.69532,0.17969 z m -96.781053,16.95299 -2.360574,13.30513 4.715756,5.25738 L 44.068058,400 Z"
       sodipodi:nodetypes="ccccccccccccccccccccccccc" /><path
       id="path172002"
       style="fill:#000000;fill-opacity:1;fill-rule:nonzero;stroke:none;stroke-width:1.33333"
       d="m 190.22852,196.91602 c -2.62306,3.88106 -4.98517,6.79321 -8.15235,9.85351 -5.00075,2.82862 -29.61715,11.65864 -58.14648,25.0332 -17.56291,8.23351 -34.383356,17.14969 -38.388674,18.65235 -8.445298,3.16663 -10.583541,9.04144 -11.658204,10.63476 -1.077328,0.63733 -5.047706,1.3845 -8.318359,3.61914 -9.855831,5.31259 -23.213026,30.63963 -28.861328,49.60547 C 31.054823,333.28028 24.036081,390.94615 23.314453,400 h 4.236328 l 1.353516,-13.88086 0.816406,-4.90234 c 1.510662,-11.19863 8.378273,-51.9178 11.955078,-66.44727 3.576808,-14.52944 17.955711,-37.87235 25.041016,-45.20898 7.085305,-7.33663 23.365985,5.3651 27.417969,10.92773 0.306663,-1.03467 -0.15526,-2.13012 -0.669922,-3.07812 -2.467992,-4.544 -6.364402,-7.99576 -10.761719,-10.6211 -1.478663,-0.88133 -3.620254,-1.56847 -4.65625,-2.98047 -0.306667,-0.42 4.737026,-7.39162 8.636719,-9.53711 3.985055,-2.19244 21.271726,-10.43415 39.642576,-19.26562 23.69637,-11.39162 52.61006,-23.19442 53.08203,-23.3418 0.38442,3.75451 0.32661,8.33015 2.97657,13.59766 3.90536,7.76297 8.76805,19.33204 23.78032,29.79871 10.45212,7.28729 21.7718,14.02732 31.4228,17.12902 8.05364,2.58834 13.82092,1.90976 18.09766,1.83985 0,0 -17.59676,15.17427 -28.44922,23.5957 -10.85245,8.42143 -37.11719,26.66406 -37.11719,26.66406 l -39.82031,24.72461 0.76562,13.6875 -23.88672,-0.0273 c -3.00164,-11.22285 -12.01426,-44.55406 -18.80273,-55.66211 0,0 7.84244,18.7113 9.92969,34.44726 1.61522,9.79321 2.7867,19.67505 3.71289,29.56055 0.96073,10.63383 1.95516,15.70989 1.26953,28.98047 h 6.7168 c 0.49001,-13.11166 -1.52209,-26.66923 -2.01953,-31.76953 -0.0393,-0.40272 9.85145,-0.55334 23.35546,-0.60156 L 153.14648,400 H 156.25 l -2.76562,-49.79688 38.02343,-23.83398 c 0,0 25.91685,-17.9872 37.23438,-26.74805 11.31754,-8.76086 31.88235,-27.18486 31.88235,-27.18486 0.50347,-8.25291 1.00781,-15.79484 1.36765,-23.68037 0.97107,-0.0793 2.08136,-0.25707 3.41406,-0.58398 1.37596,-0.33753 2.05279,-1.36248 2.95829,-2.24898 0.99983,-0.97883 1.27896,-1.96858 1.92004,-3.19272 1.19398,-2.27991 0.95043,-3.42599 1.07763,-4.32497 0.46818,-3.30891 -0.26039,-3.90579 0.68601,-5.35208 0.36631,-0.0155 1.25093,1.00586 1.33815,1.3389 0.57937,2.21218 0.66388,4.19696 0.0759,6.8118 -0.55392,2.46315 -1.43905,4.50818 -2.49985,5.77491 -1.68508,2.01221 -3.40195,2.92442 -6.21628,3.82009 l -0.11132,2.23047 -0.92969,19.88672 c 0,0 -20.50567,19.60426 -35.72852,30.79296 -15.22284,11.18871 -33.35479,25.33569 -50.75586,36.9668 -6.60172,4.41269 -20.32226,12.42969 -20.32226,12.42969 L 159.51953,400 h 3.55859 l -1.79882,-32.36328 c 39.34473,-0.0103 100.5778,0.68447 105.37109,0.44531 6.97464,-0.34933 69.99663,1.49307 98.94336,2.88867 0,0 -1.24584,11.66414 -2.53516,28.9961 h 5.57422 c 0.484,-9.21596 1.13754,-22.40067 1.40821,-25.91797 l 12.56836,10.33594 c 0,0 0.36824,3.01141 0.15624,15.58203 h 4.79102 l -2.30469,-57.4336 c -0.0733,-1.01867 -0.18937,-1.86516 -0.33203,-2.5625 -2.15734,-16.44925 -7.67838,-54.12103 -13.76367,-60.81836 -7.53596,-8.29863 -41.54927,-23.28336 -51.86523,-26.61132 -8.256,-2.66267 -15.86906,-7.01273 -23.6504,-10.7754 -2.75729,-1.33196 -5.5242,-2.64478 -8.29882,-3.93945 -2.576,-1.20133 -8.05321,-3.7233 -10.45187,-5.2353 -1.40264,-0.87467 -5.3242,-2.35677 -6.78551,-1.21944 -1.98933,1.54664 -0.88022,3.34795 -1.69789,6.25816 -0.38375,1.36582 -0.67177,2.96328 -1.3291,4.21128 -0.66533,1.26667 -0.89996,2.23965 -2.11063,3.02632 -2.35823,1.15467 -5.05,0.6607 -7.54883,0.33008 -40.26606,-4.42436 -61.04828,-49.90938 -61.96605,-51.23799 -0.62018,-0.8978 -1.85032,-1.17551 -2.19486,-0.9301 0,0 -2.65383,1.25143 -3.02854,3.88684 z m 4.68466,-0.0642 c 2.94057,5.63293 12.86017,22.20341 27.43452,34.98213 8.72763,7.65235 19.75406,14.10679 33.13672,16.51954 1.2815,0.23104 1.81229,0.14739 3.18164,0.20117 l 0.0176,2.53125 c -5.43496,0.38004 -9.82557,-0.70319 -19.30859,-4.6543 -9.16516,-3.81868 -21.18862,-14.87011 -28.56641,-23.22461 -6.64614,-7.52603 -17.56664,-21.55456 -18.83398,-23.92383 -0.14041,-1.78431 0.97324,-3.15796 1.71669,-3.30783 0.43815,-0.082 1.0814,0.60749 1.22181,0.87648 z m -4.10178,4.42612 c 1.9965,3.72083 11.55114,16.14229 18.12223,23.58335 7.53692,8.5347 19.47803,19.7114 29.48047,23.8789 9.22155,3.84217 14.66766,5.02901 20.36133,4.78907 l -1.67187,19.27539 -0.44922,0.35742 c -2.17221,0.0568 -8.94674,-0.9044 -12.43946,-1.91406 -15.1152,-4.36941 -29.53093,-12.36548 -44.46082,-25.82353 -6.00963,-5.41718 -10.96424,-15.23044 -14.32824,-20.8171 -3.81596,-8.2693 -2.32242,-12.30884 -1.98242,-13.96484 3.10769,-3.69884 4.45554,-5.82364 7.368,-9.3646 z m 127.47966,54.36264 c 9.48796,3.06 43.60866,18.0429 50.50195,25.63086 5.13196,5.64933 10.78207,42.5218 13.19141,61.26172 0.63862,5.392 0.82226,36.20703 0.82226,36.20703 L 370.13086,366.7832 c -0.64933,-15.30525 -1.44531,-30.8164 -1.44531,-30.8164 -1.2,9.90529 -1.74655,26.28882 -3.17188,30.13281 l -88.5039,-3.25391 -116.00586,-0.13476 c 0,0 -0.4972,-5.0385 -0.46289,-8.25391 4.76714,-2.75429 12.15351,-7.63428 18.0664,-11.69726 17.30297,-11.88957 35.65528,-25.89932 50.91016,-37.08008 15.25487,-11.18076 36.65234,-31.57227 36.65234,-31.57227 l 0.98828,-21.74023 c 0,0 3.98107,-2.51533 5.52508,-3.46169 -0.48118,0.61506 -0.34708,2.47473 -0.4854,2.95705 -0.65466,2.28 -0.85813,3.19203 -1.05413,5.50536 -0.19333,2.27067 0.13581,4.00644 1.00781,6.2251 1.46533,-4.408 0.0651,-9.24067 2.45173,-13.27267 1.596,-2.69466 1.12241,-4.86663 1.97778,-7.81611 0.33392,-1.1514 0.2635,-2.56871 0.196,-3.67102 -0.0785,-1.28337 -0.0266,-1.71205 -0.33665,-3.07971 -0.0678,-0.29887 -0.56299,-1.596 -0.56299,-1.596 1.58316,0.6562 8.23051,4.29524 15.09249,7.34727 6.86198,3.05203 16.08518,10.51052 27.32114,14.13581 z"
       sodipodi:nodetypes="ccscccsccccssccccsscssscscccccccccscccccsccsssscssscccssccccccccccccccccccccsccssccssccsscscsccccsssccccccccccccssccccccccsscsccc" /><path
       d="m 367.95412,278.712 c 0,0 3.12934,28.84534 1.144,48.11334 0,0 3.30134,-23.672 0.824,-46.24134 z"
       style="fill:#000000;fill-opacity:1;fill-rule:nonzero;stroke:none;stroke-width:1.33333"
       id="path172006" /><path
       d="m 191.51296,235.92038 c -13.39668,-13.49331 -10.47132,-25.60927 -10.47132,-25.60927 l 13.26854,-15.75294 2.24533,3.81466 c 0.0533,13.20667 10.66648,23.02517 19.01048,31.24917 7.41067,7.304 11.40134,14.18934 24.04267,17.34934 4.20667,1.052 3.568,11.54666 3.352,13.924 -0.216,2.37733 -6.74919,5.1998 -23.44933,-3.14192 -5.20686,-2.60083 -14.97718,-8.71792 -27.99837,-21.83304 z"
       style="opacity:0.199997;fill:#000000;fill-opacity:1;fill-rule:nonzero;stroke:none;stroke-width:1.33333"
       id="path172060"
       sodipodi:nodetypes="scccccsss" /><path
       d="m 176.07996,212.05676 -42.0821,18.07365 -39.28212,19.01063 -11.662779,7.5791 -6.742666,6.276 -10.226218,5.2889 -7.821782,8.23376 L 40.594354,313.84335 27.202663,391.62673 26.678065,400 h 29.32244 c 21.624703,-77.54889 34.366618,-92.52242 41.105648,-98.36756 6.739027,-5.84515 15.611687,-9.92638 23.283687,-12.71571 67.72267,-24.62667 97.21963,-26.98368 97.21963,-26.98368 0,0 -14.84032,-9.91577 -26.30316,-24.28175 -6.00556,-7.52656 -9.47002,-19.25866 -10.05305,-26.75155 z"
       style="display:inline;opacity:0.199997;fill:#000000;fill-opacity:1;fill-rule:nonzero;stroke:none;stroke-width:1.33333"
       id="path172176"
       sodipodi:nodetypes="ccccccccccczccscc" /><path
       style="opacity:0.2;fill:#000000;fill-opacity:1;stroke:none;stroke-width:0.911631px;stroke-linecap:butt;stroke-linejoin:miter;stroke-opacity:1"
       d="m 368.9541,353.5484 c 0,0 6.16873,24.64853 6.43777,33.1715 0.26904,8.52297 0.42919,13.2801 0.42919,13.2801 H 366.379 Z"
       id="path2"
       sodipodi:nodetypes="czccc" /><path
       id="path3"
       style="color:#000000;fill:#000000;-inkscape-stroke:none"
       d="M 125.17443,362.94638 72.300359,400 h 6.404719 l 48.236332,-33.23828 z m 0.67713,12.59268 L 89.025391,400 h 5.294921 l 32.818358,-20.93359 z m -96.653724,4.11939 -1.958984,2.27148 L 43.226562,400 h 4.234376 z m -1.481904,13.003 -1.692494,4.60723 L 29.083721,400 h 5.225462 z"
       sodipodi:nodetypes="cccccccccccccccccccc" /><path
       id="path5"
       style="color:#000000;fill:#000000;-inkscape-stroke:none"
       d="m 235.51758,375.14648 c -18.0253,-0.0273 -49.99234,0.22518 -76.04102,0.45313 l 0.26953,3.99805 c 26.03986,-0.22752 57.41286,-0.0946 75.31041,0.15578 30.58614,0.42783 43.39624,0.26918 65.41811,0.79432 21.40058,0.51032 63.71625,2.56712 64.77734,2.63388 l 18.82617,14.53906 2.44532,-3.16601 -19.79883,-15.28907 -0.61133,-0.0391 c 0,0 -43.67808,-2.75503 -65.51367,-3.43554 -21.78217,-0.67887 -36.02636,-0.6005 -65.08203,-0.64454 z m -82.4336,0.50977 c -11.362,0.10276 -26.92382,0.24023 -26.92382,0.24023 l 0.0391,4 c 0,0 15.62083,-0.13834 27.11719,-0.24218 z"
       sodipodi:nodetypes="sccsscccccssccccc" /><path
       d="m 153.36983,364.20779 c -14.48934,1.07867 -13.59443,-0.006 -20.24243,0.63698 l -7.42021,1.16182 c 0,0 1.7051,10.65724 3.58559,33.99341 h 19.88169 c -0.0222,-22.69333 1.33314,-26.38932 3.43666,-30.17784"
       style="opacity:0.199997;fill:#000000;fill-opacity:1;fill-rule:nonzero;stroke:none;stroke-width:1.33333"
       id="path172192"
       sodipodi:nodetypes="cccccc" /><path
       style="color:#000000;fill:#000000;-inkscape-stroke:none"
       d="m 272.13492,260.0356 c -0.43568,1.86709 -1.32327,3.98541 -2.1176,5.13984 -0.76251,1.10819 -1.78318,2.54927 -3.03515,3.84255 -1.28722,1.32971 -2.28594,2.7849 -2.28594,2.7849 l 0.80257,2.07139 c 0,0 1.92823,-1.84932 3.10928,-3.34977 1.18106,-1.50045 2.42146,-3.69939 3.15833,-5.23491 0.73912,-1.5402 1.22544,-3.5742 1.62031,-6.08648 0.30647,-1.94984 -0.0949,-4.04936 -0.0949,-4.04936 0,0 -0.7212,3.01474 -1.15688,4.88184 z"
       id="path11"
       sodipodi:nodetypes="sssccssscs" /><g
       id="g15"><path
         style="color:#000000;fill:#a6a6a6;stroke-width:0.913966;stroke-miterlimit:40;-inkscape-stroke:none"
         d="m 322.45991,394.18881 13.65899,-42.96978 15.15091,41.29461 c 0,0 -5.72514,-8.65272 -11.18302,-9.17301 -3.86588,-0.36852 -17.62688,10.84818 -17.62688,10.84818 z"
         id="path14"
         sodipodi:nodetypes="cccsc" /><path
         style="color:#000000;fill:#000000;stroke-width:0.913966;stroke-miterlimit:40;-inkscape-stroke:none"
         d="m 336.09342,347.96428 -16.25172,49.34023 c 2.98367,-2.78441 6.3346,-5.05677 9.55348,-7.56396 3.25751,-2.5373 7.78274,-4.88311 10.72337,-4.83694 2.49538,0.0392 4.96571,2.01337 7.21484,4.30867 2.24914,2.29529 3.84303,4.5316 3.84303,4.5316 l 2.54996,3.21807 z m 0.20314,7.42215 11.65429,31.09162 c -2.35866,-2.37863 -4.69645,-4.12788 -7.90904,-4.43413 -2.90748,-0.27716 -7.72388,2.1453 -15.67803,8.45735 z"
         id="path15"
         sodipodi:nodetypes="ccssscccccscc" /></g></g><g
     inkscape:groupmode="layer"
     id="layer2"
     inkscape:label="Bolian Ridge"
     style="display:none"
     sodipodi:insensitive="true"><path
       style="display:inline;fill:none;stroke:#000000;stroke-width:0.8;stroke-linecap:butt;stroke-linejoin:miter;stroke-dasharray:none;stroke-opacity:1"
       d="m 260.11976,248.62275 23.2919,-42.7347"
       id="path1746"
       sodipodi:nodetypes="cc" /><path
       style="color:#000000;display:inline;fill:#000000;fill-opacity:0.2;-inkscape-stroke:none"
       d="m 280.56961,203.94359 -23.46249,43.15852 1.7902,0.83818 23.12351,-42.81954 z"
       id="path1748"
       sodipodi:nodetypes="ccccc" /></g></svg>
