<?xml version="1.0" encoding="UTF-8" standalone="no"?>
<!-- Created with Inkscape (http://www.inkscape.org/) -->

<svg
   version="1.1"
   id="svg282014"
   width="400"
   height="400"
   viewBox="0 0 400 400"
   sodipodi:docname="lowerDecksFemale.svg"
   inkscape:version="1.3 (0e150ed, 2023-07-21)"
   xml:space="preserve"
   xmlns:inkscape="http://www.inkscape.org/namespaces/inkscape"
   xmlns:sodipodi="http://sodipodi.sourceforge.net/DTD/sodipodi-0.dtd"
   xmlns="http://www.w3.org/2000/svg"
   xmlns:svg="http://www.w3.org/2000/svg"><defs
     id="defs282018" /><sodipodi:namedview
     id="namedview282016"
     pagecolor="#ffffff"
     bordercolor="#666666"
     borderopacity="1.0"
     inkscape:showpageshadow="2"
     inkscape:pageopacity="0.0"
     inkscape:pagecheckerboard="0"
     inkscape:deskcolor="#d1d1d1"
     showgrid="false"
     inkscape:zoom="2.04"
     inkscape:cx="200"
     inkscape:cy="200"
     inkscape:window-width="1776"
     inkscape:window-height="1055"
     inkscape:window-x="2320"
     inkscape:window-y="88"
     inkscape:window-maximized="0"
     inkscape:current-layer="svg282014"><inkscape:page
       x="0"
       y="0"
       id="page282020"
       width="400"
       height="400"
       margin="0"
       bleed="0" /></sodipodi:namedview><g
     inkscape:groupmode="layer"
     id="layer3"
     inkscape:label="Neck"><path
       d="m 213.63253,151.29441 -5.49067,30.848 -9.21193,18.45217 c 0,0 13.57993,22.69982 22.61726,29.33716 9.03734,6.636 24.148,15.816 35.02134,17.228 l 3.67066,0.60693 2.82534,0.23973 5.224,-2.25866 1.832,-12.39334 13.08133,-27.18533 z"
       style="fill:#cd976d;fill-opacity:1;fill-rule:nonzero;stroke:none;stroke-width:1.33333"
       id="path283414"
       sodipodi:nodetypes="ccccccccccc" /><path
       d="m 199.16985,199.75598 c 0,0 11.14568,18.87824 18.74974,25.74882 16.89748,4.64849 35.91739,5.03279 53.5,5.14934 l 11.78267,-24.48534 -69.56933,-54.87466 -5.69867,31.472 z"
       style="opacity:0.199997;fill:#000000;fill-opacity:1;fill-rule:nonzero;stroke:none;stroke-width:1.33333"
       id="path283424"
       sodipodi:nodetypes="ccccccc" /><path
       d="m 211.64493,149.52841 c -1.01067,4.99733 -2.99139,25.24509 -4.128,30.15333 -1.11614,3.58085 -2.42213,8.10992 -4.32571,11.82632 -1.90358,3.7164 -2.7377,5.49633 -4.27987,8.42311 l 2.35504,3.10823 c 4.22257,-7.93797 7.1452,-15.38433 8.95587,-21.62566 1.29067,-4.45067 3.76533,-24.06133 5.256,-28.47867 l -3.83333,-3.40666"
       style="fill:#000000;fill-opacity:1;fill-rule:nonzero;stroke:none;stroke-width:1.33333"
       id="path283434"
       sodipodi:nodetypes="cczccccc" /><path
       d="m 285.86613,207.63814 c -2.232,2.508 -11.62934,23.48 -13.308,26.58266 -1.36534,2.52267 -2.372,12.41734 -5.128,12.788 -1.86267,0.25067 -2.084,-3.988 -1.828,-5.81866 0.124,-0.87467 14.504,-36.10934 14.504,-36.10934 0,0 5.76,2.55734 5.76,2.55734"
       style="fill:#000000;fill-opacity:1;fill-rule:nonzero;stroke:none;stroke-width:1.33333"
       id="path283438" /></g><g
     id="g282022"
     inkscape:groupmode="layer"
     inkscape:label="Page 1"><path
       id="path283350"
       style="fill:#2d2d2d;fill-opacity:1;fill-rule:nonzero;stroke:none;stroke-width:1.33333"
       d="m 198.90234,198.64258 c -4.18285,4.17387 -6.99524,9.83983 -10.23046,14.80859 -3.22718,5.3122 -4.82787,7.49107 -6.85938,11.01172 -14.34652,6.44948 -26.45648,10.66799 -50.14844,24.25195 -16.34717,4.40719 -36.791883,9.01532 -54.478513,19.41797 -3.369327,1.98133 -12.234867,6.10028 -15.736328,8.22657 -9.936666,13.29954 -9.372148,20.97017 -15.105469,36.71679 -0.656341,2.91272 -1.567847,6.39777 -3.566406,12.57227 -4.402761,16.19092 -7.37106,25.52686 -8.900391,40.02148 -0.958665,5.632 -0.927688,10.68979 -1.84375,18.00196 -0.31846,4.11345 -0.340612,11.04731 -0.964844,14.3789 0.552134,0.0642 1.23003,0.87839 1.951172,1.94922 h 50.462891 c 3.704218,-1.52068 7.373483,-3.13398 10.964844,-4.92773 4.298661,-2.148 11.447034,-7.69372 15.484374,-10.34571 2.42665,-1.59467 8.65333,-10.53464 11.228,-10.8253 0.009,-10e-4 77.2308,-5.16981 153.07864,-3.60048 28.86837,0.13315 50.12357,1.80596 80.4336,3.70703 0,0 14.14131,-0.11406 22.84765,3.25 0.97066,-10.13864 3.42392,-26.38969 1.14258,-34.06836 -1.22133,-4.10531 -3.55415,-13.66092 -4.77149,-17.76757 -6.20398,-24.60529 -15.37622,-42.72444 -34.79101,-53.43555 -12.89138,-3.90462 -24.5865,-9.43601 -36.99219,-10.875 -5.24832,-0.67437 -13.24175,-7.73496 -17.09375,-9.26563 l -8.25586,-6.82617 0.29688,-2.28515 -4.76758,-8.01172 -0.18555,0.15039 -3.8125,10.875 -5.22461,2.25781 -2.76367,-0.54297 -3.73242,-0.30273 c -10.87331,-1.412 -25.98222,-10.59121 -35.01953,-17.22852 -10.19471,-8.2966 -16.12866,-20.00358 -22.64649,-31.28906 z"
       sodipodi:nodetypes="cccccccccccccccscccccccccccccccccc" /><path
       id="path9"
       style="fill:#d30000;stroke:none;stroke-width:1px;stroke-linecap:butt;stroke-linejoin:miter;stroke-opacity:1;fill-opacity:1"
       d="M 197.74805 198.44141 L 194.10742 204.16016 L 197.22656 209.5332 L 210.57227 227.38281 C 210.57227 227.38281 220.97146 237.60898 222.53125 238.12891 C 224.09105 238.64884 233.27539 244.36719 233.27539 244.36719 L 254.76562 251.30078 L 256.82617 251.36914 L 256.5 273.31055 L 218.02539 304.33398 L 181.62891 328.59766 L 145.75391 351.82031 L 154.59375 377.12305 L 163.7793 376.25781 L 156.15234 354.41992 L 190.12109 332.58203 L 224.4375 308.14648 L 256.15234 282.15039 L 263.95117 272.96484 L 264.61328 251.62305 L 265.33789 251.64648 L 273.48438 246.44727 L 276.25781 239.3418 L 273.48438 236.39453 L 270.19141 241.76758 L 266.72461 246.44727 L 259.96484 247.14062 L 249.2207 245.23438 L 231.36914 237.95508 L 217.33203 226.34375 L 204.33398 210.57227 L 197.74805 198.44141 z " /><path
       d="m 31.482052,395.28734 c 0.446666,2.49334 1.180614,2.08466 1.540614,4.67933 h 20.166666 c 0.196,-3.43334 -0.168,-7.00134 -0.09067,-10.296 0.142667,-6.028 1.809568,-11.8813 2.717568,-17.83597 1.664043,-10.89316 4.390792,-21.53944 8.717099,-31.40937 5.682623,-10.91971 7.04473,-14.96286 12.227828,-24.25379 8.061621,-9.83474 8.681112,-10.66445 17.276729,-16.04664 9.830784,-5.05831 15.433984,-7.8084 26.708774,-12.5209 12.06134,-4.93733 26.01867,-8.93733 38.75867,-12.128 2.82667,-0.80533 5.532,-1.54666 8.11733,-2.22666 28.43467,-7.48134 48.85975,-10.78844 48.85975,-10.78844 0,0 -11.6028,-5.51607 -20.87346,-16.6534 -3.08933,-3.71334 -5.02725,-4.512 -7.25392,-8.99734 -2.228,-4.484 -3.54315,-5.33167 -8.02103,-10.32829 -6.75333,2.5483 -26.119,9.03784 -47.707,21.33251 -18.69995,5.86575 -35.845712,11.49837 -55.441672,20.31762 -6.939001,2.88838 -12.359196,4.7333 -15.263196,7.33997 -9.815593,11.6216 -13.675677,21.85662 -18.57202,40.35778 -3.949413,17.25627 -7.765364,34.88594 -9.352248,49.71932 -1.108,6.50533 -0.995824,8.39911 -2.471784,17.39312 0.117676,5.33145 -0.859554,8.65545 -0.283552,11.86611"
       style="opacity:0.199997;fill:#000000;fill-opacity:1;fill-rule:nonzero;stroke:none;stroke-width:1.33333"
       id="path283392"
       sodipodi:nodetypes="cccccccccccccccccccccc" /><path
       d="m 383.91919,399.96653 c -0.144,-0.856 -0.384,-1.68666 -0.64133,-2.34666 -0.696,-1.77734 -2.25467,-3.46 -3.18534,-5.13067 -0.88666,-1.59467 -1.816,-3.20667 -2.61466,-4.83067 -1.45734,-2.968 -2.89867,-6.17733 -1.188,-9.324 l -4.61028,-3.63741 c -17.46003,-0.9856 -29.02072,-0.93838 -44.68407,-2.18062 -2.87733,-0.17734 -12.31788,-0.35067 -15.58455,-0.51467 -9.8,-0.49333 -23.19569,-1.6513 -37.41836,-1.94597 -75.85333,-1.56933 -154.23074,4.12032 -154.23074,4.12032 C 103.61678,385.47373 98.23261,392.09496 80.469944,400 Z"
       style="fill:#d30000;fill-opacity:1;fill-rule:nonzero;stroke:none;stroke-width:1.33333"
       id="path283402"
       sodipodi:nodetypes="ccccccsccccc" /><path
       d="m 276.07346,242.23054 c 0.33067,0.75333 0.6,1.59333 0.68267,2.78933 0.224,3.21333 -1.1,3.24933 -2.696,5.944 -2.38667,4.032 -3.48134,9.40133 -4.94667,13.80933 -0.872,-2.21866 -1.20133,-3.37733 -1.008,-5.648 0.196,-2.31333 0.44933,-4.564 1.104,-6.844 0.46533,-1.62266 3.62267,-4.36666 4.41467,-5.74133 1.59866,-2.768 0.99466,-5.07867 0.372,-8.04267 0.23866,0.32 0.43733,0.32667 0.74,0.59334 0.36,1.30533 0.90133,2.14666 1.33733,3.14"
       style="fill:#000000;fill-opacity:1;fill-rule:nonzero;stroke:none;stroke-width:1.33333"
       id="path283442" /><path
       d="m 185.98384,374.61422 c 4.165,0.11825 9.37049,-0.33021 13.63628,0.46587 5.35114,0.99893 11.1576,3.48471 16.46882,5.04406 4.78206,1.40428 9.8433,3.21797 14.70576,3.81087 5.31438,0.64975 9.52107,2.82334 14.73519,4.27857 8.86004,2.47375 17.57384,5.11811 26.38839,7.12639 8.8994,2.02671 15.32186,6.07193 23.5853,-0.0867 3.8796,-2.89107 7.55753,-6.47747 11.51138,-9.44646 4.63124,-3.47797 9.43718,-5.21695 14.92112,-6.87533 2.22129,-0.67189 4.4549,-1.30743 6.66518,-2.01433 0.88439,-0.28302 6.27602,-3.46082 7.11522,-3.27959 -7.42572,-1.59537 -31.31966,-1.93473 -39.13446,-3.26236 -9.80472,-1.66426 -18.98766,-1.78492 -28.94872,-1.84228 -11.48271,-0.0672 -22.97561,1.25782 -34.46783,1.47844 -11.79255,0.2281 -23.60484,-0.63412 -35.38747,-0.66185 -3.44381,-0.008 -9.12331,-0.76455 -11.68277,1.05955 -4.32659,3.08379 1.00405,3.77134 -0.11139,4.2052"
       style="opacity:0.199997;fill:#000000;fill-opacity:1;fill-rule:nonzero;stroke:none;stroke-width:1.33333"
       id="path283492"
       sodipodi:nodetypes="ccccccccccccccccc" /><path
       id="path3"
       style="fill:#ecfcfe;fill-opacity:1;stroke:none;stroke-width:1px;stroke-linecap:butt;stroke-linejoin:miter;stroke-opacity:1"
       d="M 276.94922 367.07227 L 161.21484 369.09766 L 165.68945 381.1875 L 281.80273 379.20312 L 376.08398 385.0957 L 370.88477 372.27148 L 276.94922 367.07227 z M 119.23828 367.41797 L 97.574219 381.62891 L 66.376953 400 L 88.214844 400 L 119.06445 382.32227 L 119.13086 376.67969 L 119.58398 381.97656 L 156.14258 381.35156 L 151.4707 369.26758 L 119.21094 369.83203 L 119.23828 367.41797 z " /><path
       d="m 371.32146,366.88627 c -3,-6.6 -2.29913,-15.55053 -3.72046,-22.6332 -1.616,-8.052 -2.56261,-17.8694 -3.73194,-26.01207 -1.67467,-11.66667 -6.91897,-34.14933 -7.3683,-35.172 -0.94533,-2.14667 -4.50854,-3.80279 -6.1952,-5.43213 3.7804,11.63467 6.86863,23.93613 9.1033,35.48946 1.26267,6.528 2.13347,13.71074 3.0308,20.32941 1.07867,7.948 1.6371,14.54643 1.61274,23.00523 2.072,8.768 12.31572,35.10796 14.59172,43.5053 h 5.984 c -1.748,-8.07734 -9.2323,-23.98064 -14.83096,-36.29797"
       style="fill:#000000;fill-opacity:1;fill-rule:nonzero;stroke:none;stroke-width:1.33333"
       id="path283586"
       sodipodi:nodetypes="cccccsccccc" /><path
       id="path283446"
       style="fill:#000000;fill-opacity:1;fill-rule:nonzero;stroke:none;stroke-width:1.33333"
       d="m 197.77148,196.28516 c -0.26366,0.0623 -0.51022,0.19708 -0.71289,0.39843 -6.70009,8.84515 -8.74684,15.59451 -15.15039,25.17188 -0.71981,1.07658 -4.56224,2.45161 -5.6289,3.09961 -1.47333,0.896 -4.02844,2.26358 -8.73438,4.4082 -4.7059,2.14462 -12.46307,6.36178 -21.5957,10.50195 -9.13263,4.1402 -17.97777,6.15144 -29.99024,10.17188 -12.01243,4.02044 -39.269537,15.33508 -51.14648,20.48633 -1.801458,1.21501 -3.931004,1.84123 -5.560547,3.04101 -15.771611,29.05006 -24.623218,71.03068 -28.144531,97.73828 -1.286848,11.80772 -1.337818,18.41265 -1.617188,28.14063 -0.03067,0.17466 -0.07629,0.34877 -0.126953,0.52344 h 4.427735 c -0.464966,-3.51134 6.20144,-88.23429 29.824218,-121.20508 2.24977,-0.30739 10.651895,0.27721 15.021485,3.86133 3.13004,2.81101 8.891033,8.71812 11.429687,11.38476 -3.599332,-6.23421 -6.747692,-10.29856 -11.697265,-14.91601 -5.483187,-3.3559 -7.511417,-4.20862 -11.900391,-3.90821 6.410488,-3.26284 36.20187,-15.30401 43.25781,-17.86718 7.05597,-2.5632 20.61947,-5.91788 28.88086,-8.82032 8.26138,-2.90241 12.88737,-5.68053 18.28516,-8.47461 5.39777,-2.79404 12.36903,-6.38706 15.81836,-8.39257 3.44931,-2.00553 6.79673,-3.53552 8.02065,-4.13836 0.62847,0.85738 2.00219,3.31375 2.94551,4.73876 3.73657,5.64455 8.08318,11.16304 12.43228,15.91913 4.34906,4.75605 11.87996,9.70344 15.9746,12.52344 7.89657,5.55321 20.31191,9.46961 25.61719,10.52343 2.84147,0.85461 15.81911,2.85892 17.6836,2.35547 0,0 -14.58247,-2.89867 -22.21289,-5.55859 -7.63044,-2.65996 -25.07036,-13.9432 -29.19623,-17.50865 -4.1259,-3.56541 -10.26108,-10.19368 -12.70508,-13.24701 -2.444,-3.05196 -5.9408,-9.21626 -7.62213,-12.10958 3.04445,-5.77506 10.44213,-18.30994 13.63086,-23.22656 0.46088,1.00197 1.76186,4.34527 6.98047,11.50977 5.03266,6.90923 9.89386,11.26343 15.53515,16.96875 7.51937,6.39644 14.98087,11.70312 23.77149,14.92578 4.1213,1.512 8.42298,2.49647 12.77734,3.04883 2.85363,0.36199 5.5587,1.34883 9.35742,0.23242 3.24632,-0.52665 4.15096,-2.73188 5.53321,-5.38282 0.85141,-1.6329 1.7853,-3.06895 1.9082,-3.39648 1.27148,-3.38842 2.07745,3.85762 2.14999,6.75431 1.67541,1.77443 4.09899,3.11198 4.55704,3.39022 0.31288,0.19006 4.92759,3.13141 7.94727,5.30274 3.12135,2.24443 7.50313,7.10958 10.50781,8.13671 16.65059,3.90377 26.95726,7.00348 42.03515,11.86329 7.90376,2.67402 10.66778,4.65814 14.37696,9.11718 3.53978,4.2897 7.93778,12.97098 11.8164,21.57227 3.29334,7.30529 5.71201,15.03102 7.13868,22.95898 1.14663,4.17067 2.12559,8.37326 2.93359,12.58789 0.048,0.25333 0.0909,0.50902 0.13086,0.76368 0.62934,4.01996 0.71003,8.15484 0.80469,12.21484 0.0427,1.83733 0.0668,3.67439 0.0508,5.51172 -0.0466,3.68898 -0.60491,7.34197 -1.55078,10.93359 -0.40666,1.48134 -0.97051,3.00511 -1.20118,4.53711 -0.31083,2.05399 -1.02417,5.05023 -0.23632,7.22266 -2.75567,-0.25087 -54.96827,-4.96984 -96.57227,-5.81641 -26.09866,-0.53105 -76.51397,0.69485 -113.29687,1.75 l 1.46874,3.96485 c 36.72454,-1.04556 86.19982,-2.23662 111.7461,-1.7168 42.48016,0.86439 97.25781,5.88476 97.25781,5.88476 l 0.24805,-2.69726 c 2.20603,2.70722 2.63325,0.70799 2.47265,-0.57422 -0.55333,-4.432 0.90163,-8.86737 1.54297,-11.08203 1.44266,-4.98267 2.10133,-9.23405 2.36133,-14.49805 0.588,-11.89996 -1.70703,-21.89412 -4.20703,-33.46875 -0.57333,-2.65466 -1.24238,-5.28733 -2.01172,-7.88867 -2.724,-9.22129 -6.71752,-18.02425 -11.88281,-26.04687 -2.75932,-4.28569 -7.75657,-11.55379 -9.57813,-13.17383 -15.43354,-6.77411 -37.40389,-13.58585 -54.74609,-17.56446 -7.14604,-5.82466 -12.73917,-9.59987 -20.99805,-14.09961 0.14985,-0.42649 0.48002,-0.81962 0.6836,-1.20703 1.3,-2.49329 -2.34652,-5.72892 -3.11719,-7.90625 l -2.51563,-4.48047 c -0.30533,0.392 -0.46298,0.86665 -0.68164,1.30665 -1.05734,2.11996 -2.21745,4.26006 -3.46679,6.30273 -1.17733,1.928 -2.35514,4.23612 -4.31446,5.4707 -2.24005,1.41149 -5.12239,0.32915 -7.57812,0.0645 -40.27505,-4.34308 -57.65478,-46.32115 -57.44727,-46.79493 l 0.80469,-1.83789 c -0.27333,-0.0907 -1.84865,-0.23556 -2.22461,-0.25 z M 99.759766,310.43555 c 0,0 1.962634,4.5119 4.289064,10.875 1.16395,3.1821 2.41191,6.82327 3.54297,10.59179 1.12973,3.76873 2.14262,7.66535 2.83008,11.35157 0.99187,7.65368 2.93934,20.13349 3.46874,23.51562 -5.41678,3.79926 -17.004808,11.86794 -23.494136,15.97266 C 81.362263,388.45662 60.792969,400 60.792969,400 h 8.927734 c 0,0 15.652824,-8.83771 23.392578,-13.68945 6.792641,-4.25805 16.882709,-11.10564 21.554689,-14.28711 0.38629,2.69213 0.86047,5.70422 1.38086,9.05664 -3.72678,2.40917 -10.54261,6.79824 -15.36719,9.7168 C 95.419516,393.98012 84.548828,400 84.548828,400 h 7.851563 c 0,0 7.090653,-3.89388 10.830079,-6.13672 4.23554,-2.54041 9.61451,-5.70808 13.4707,-7.97461 0.59681,4.53786 1.0816,9.30236 1.01367,14.11133 h 5.29297 c -0.14005,-4.7715 -0.23632,-11.00446 -0.33203,-16.11328 2.47892,-0.0845 16.6525,-0.53251 34.04102,-1.04688 l -1.53125,-3.96289 c -16.66522,0.49658 -30.13213,0.92564 -32.5918,1.00977 -0.006,-0.24467 -0.016,-0.83334 -0.0215,-1.04883 -0.11004,-4.34798 -0.1698,-2.27051 -0.25,-5.93359 8.23237,-0.63782 19.46927,-0.92104 30.09375,-1.18946 l -1.67969,-4.3457 c -9.09646,0.29527 -18.19238,0.60659 -27.28906,0.80859 0,0 -4.50294,-18.8254 -5.74024,-21.71875 -1.2373,-2.89334 -3.353,-10.86993 -7.67383,-19.1914 -1.62365,-3.12928 -3.32539,-6.20459 -5.05664,-9.06446 -1.73275,-2.861 -3.48925,-5.50688 -5.216794,-7.76757 z m 158.283204,54.17383 c -32.52673,0.022 -65.05024,1.3565 -97.57422,2.47265 l 1.61719,4.36719 c 1.04423,-0.0322 2.40951,-0.0589 3.38672,-0.0937 34.14923,-1.2195 69.25849,-2.76156 104.50586,-1.5625 33.52242,1.14038 71.01919,5.2124 102.01562,7.10351 -1.18126,-6.07187 -0.41998,-4.0656 -2.25,-4.68359 -12.64118,-1.37501 -27.6149,-2.67005 -39.99219,-3.49805 -16.56125,-1.10667 -34.96788,-3.65258 -52.47851,-3.95312 -6.41005,-0.11002 -12.82071,-0.15668 -19.23047,-0.15234 z"
       sodipodi:nodetypes="ccscssscccccccccccsssscsscccsscccsccscsscssccccccccccccsccscccccscsccccccccscccccsccccsccsccsccsccccccccccccscccscccscccsssc" /><path
       id="path6"
       style="color:#000000;fill:#000000;-inkscape-stroke:none"
       d="m 195.58984,203.42578 -2.61718,1.46875 c 0,0 5.85503,10.50501 9.8457,15.45703 5.74898,7.13395 12.04627,14.19681 19.72266,19.5293 7.19767,4.99994 15.45338,8.24658 23.60937,10.9375 2.75862,0.91015 7.31739,1.67604 9.29102,1.98437 l -0.25782,20.12696 c -0.95342,0.77587 -35.459,28.84742 -50.83984,39.52929 -15.6765,10.88723 -30.40851,19.18828 -40.3418,25.62305 -6.56034,4.24978 -14.91152,9.55238 -20.75522,13.49897 L 161.3302,400 h 3.68295 l -17.26706,-47.58203 c 0.8676,-0.58449 8.55569,-5.77051 17.88868,-11.81641 9.78406,-6.3381 24.60726,-14.69596 40.41992,-25.67773 15.89544,-11.03928 51.56445,-40.10352 51.56445,-40.10352 l 0.54492,-0.44336 0.35547,-27.5625 -3,-0.0391 -0.0391,2.98438 c -2.15467,-0.35966 -6.27735,-1.09379 -8.39063,-1.79102 -8.04433,-2.65408 -16.02304,-5.82008 -22.83593,-10.55273 -7.28674,-5.06182 -13.41656,-11.89318 -19.09961,-18.94532 -3.57147,-4.43184 -9.56446,-15.04492 -9.56446,-15.04492 z m 79.05221,35.57188 c 0,0 -0.0867,2.27043 -0.62015,3.88128 -0.53343,1.61085 -2.28913,4.1631 -2.67424,4.54668 -0.64538,0.64281 -2.02583,1.97409 -3.59407,2.63764 -1.00262,0.42423 -2.27772,0.6676 -4.46062,0.89182 -0.0171,8.00906 -0.77309,19.39497 -1.13626,22.55415 -0.30439,0.37363 -3.79726,4.2665 -12.18995,11.65874 -9.57488,8.43349 -29.67623,24.36843 -45.45899,35.87695 -16.41767,11.63826 -33.29549,22.62608 -50.30469,33.37891 L 171.13867,400 h 2.82031 l -16.11523,-44.3418 c 1.73048,-1.09712 32.94115,-20.89403 48.43164,-32.18945 15.84674,-11.55518 36.07275,-27.25099 45.71875,-36.08789 1.78774,-1.63778 9.62635,-8.85543 13.04737,-13.1255 0.67215,-7.00725 1.12532,-14.24885 1.34523,-21.20263 0,0 1.00892,-0.18038 2.14489,-0.66103 1.70286,-0.72051 3.61053,-1.74026 4.93323,-3.05772 1.32421,-1.31893 1.96721,-3.26511 2.54883,-5.02148 0.58162,-1.75637 0.9375,-3.28516 0.9375,-3.28516 z"
       sodipodi:nodetypes="ccsssccssccccsscccccsssccsssccssccccssccsssccs" /><path
       d="m 199.85386,247.78521 c -2.956,-2.45467 -5.49586,-4.13921 -8.94786,-7.61521 -9.57334,-13.50887 -10.81672,-11.21418 -2.06274,-27.26703 3.5985,-6.47393 9.42644,-14.32449 9.42644,-14.32449 l 2.05459,4.26669 c 3.75062,13.68523 6.8977,18.55283 15.2417,26.77683 7.41067,7.304 11.40134,14.18934 24.04267,17.34934 4.20667,1.052 3.568,11.54666 3.352,13.924 -0.216,2.37733 -9.13063,10.73787 -23.27996,0.78187"
       style="display:inline;opacity:0.199997;fill:#000000;fill-opacity:1;fill-rule:nonzero;stroke:none;stroke-width:1.33333"
       id="path283456"
       sodipodi:nodetypes="cccccccsc" /><g
       id="g10"><path
         style="color:#000000;fill:#a6a6a6;stroke-width:0.913966;stroke-miterlimit:40;-inkscape-stroke:none"
         d="m 323.74498,394.67901 9.14268,-42.96978 19.49115,41.29461 c 0,0 -6.63457,-8.65272 -12.14714,-9.17301 -3.90461,-0.36852 -16.48669,10.84818 -16.48669,10.84818 z"
         id="path14"
         sodipodi:nodetypes="cccsc" /><path
         style="color:#000000;fill:#000000;stroke-width:0.913966;stroke-miterlimit:40;-inkscape-stroke:none"
         d="m 332.5201,348.45448 -11.06586,49.34023 c 2.69102,-2.78441 5.80312,-5.05677 8.75848,-7.56396 2.99083,-2.5373 7.2695,-4.88311 10.21499,-4.83694 2.4995,0.0392 5.17732,2.01337 7.6677,4.30867 2.49038,2.29529 4.31932,4.5316 4.31932,4.5316 l 3.75474,3.91131 z m 0.98324,7.42215 14.92215,31.09162 c -2.60867,-2.37863 -5.13031,-4.12788 -8.37509,-4.43413 -2.93661,-0.27716 -7.4984,2.1453 -14.78913,8.45735 z"
         id="path15"
         sodipodi:nodetypes="ccssscccccscc" /></g><path
       style="color:#000000;fill:#000000;fill-opacity:1;-inkscape-stroke:none"
       d="m 273.29708,260.57482 c -0.56721,2.13587 -2.36717,5.38928 -3.73067,7.19471 -1.32355,1.75253 -4.65235,3.81445 -4.65235,3.81445 l -0.0184,2.84527 c 0,0 4.47979,-3.08893 6.26642,-5.45464 1.74668,-2.3128 3.18139,-5.26437 3.46197,-7.97278 0.2617,-2.52614 -0.62056,-6.14923 -0.62056,-6.14923 0,0 -0.16388,3.67915 -0.70641,5.72222 z"
       id="path10"
       sodipodi:nodetypes="ssccsscs" /><path
       id="path11"
       style="fill:#000000;fill-opacity:0.2;stroke:none;stroke-width:1px;stroke-linecap:butt;stroke-linejoin:miter;stroke-opacity:1"
       d="m 256.98438,246.81445 -2.81836,0.49024 -1.4502,25.83203 c 0,0 -28.16782,22.43797 -46.82324,35.5293 -18.65542,13.09131 -64.99024,42.28711 -64.99024,42.2871 l 7.66211,19.89258 c -12.1414,0.57384 -23.61745,-0.17728 -29.22656,0.39258 l 0.10742,1.98438 c 0,0 0.25597,4.72793 0.47266,26.77734 h 24.39844 c 0.78556,-18.04348 1.62546,-22.2444 5.38476,-26.19922 L 159.79297,400 h 2.59961 l -10.3125,-28.43555 c 0.36676,-0.32165 0.75007,-0.65371 1.15625,-1.00586 -0.49504,0.0387 -0.98969,0.0701 -1.48438,0.10352 l -6.51757,-17.97461 47.48632,-30.33008 28.59766,-20.62304 34.85156,-28.59766 z"
       sodipodi:nodetypes="cccsccccccccccccccccc" /></g><g
     inkscape:groupmode="layer"
     id="layer1"
     inkscape:label="Bolian Ridge"
     style="display:none"><path
       style="fill:none;stroke:#000000;stroke-width:0.8;stroke-linecap:butt;stroke-linejoin:miter;stroke-dasharray:none;stroke-opacity:1"
       d="m 260.11976,248.62275 16.76647,-47.90419"
       id="path1746" /><path
       style="color:#000000;fill:#000000;fill-opacity:0.2;-inkscape-stroke:none"
       d="m 273.8747,199.19782 -16.76758,47.90429 1.7902,0.83818 16.76758,-47.90429 z"
       id="path1748"
       sodipodi:nodetypes="ccccc" /></g></svg>
