<?xml version="1.0" encoding="UTF-8" standalone="no"?>
<!-- Created with Inkscape (http://www.inkscape.org/) -->

<svg
   width="400"
   height="400"
   viewBox="0 0 400 400"
   version="1.1"
   id="svg1"
   xml:space="preserve"
   inkscape:version="1.3.2 (091e20e, 2023-11-25)"
   sodipodi:docname="lowerDecksInsignia.svg"
   xmlns:inkscape="http://www.inkscape.org/namespaces/inkscape"
   xmlns:sodipodi="http://sodipodi.sourceforge.net/DTD/sodipodi-0.dtd"
   xmlns="http://www.w3.org/2000/svg"
   xmlns:svg="http://www.w3.org/2000/svg"><sodipodi:namedview
     id="namedview1"
     pagecolor="#ffffff"
     bordercolor="#666666"
     borderopacity="1.0"
     inkscape:showpageshadow="2"
     inkscape:pageopacity="0.0"
     inkscape:pagecheckerboard="0"
     inkscape:deskcolor="#d1d1d1"
     inkscape:document-units="px"
     inkscape:zoom="4.2214275"
     inkscape:cx="291.0153"
     inkscape:cy="340.28774"
     inkscape:window-width="1440"
     inkscape:window-height="810"
     inkscape:window-x="2308"
     inkscape:window-y="422"
     inkscape:window-maximized="0"
     inkscape:current-layer="layer2" /><defs
     id="defs1" /><g
     inkscape:groupmode="layer"
     id="layer2"
     inkscape:label="Insignia"><g
       id="g7"><path
         style="display:inline;fill:#767676;fill-opacity:1;stroke:none;stroke-width:2.202;stroke-linecap:butt;stroke-linejoin:miter;stroke-dasharray:none;stroke-opacity:1"
         d="m 308.09274,394.52491 c 0,0 8.91472,-43.14358 15.13287,-64.12536 6.99098,-23.58949 23.29498,-54.35265 23.29498,-54.35265 0,0 17.45937,30.51339 23.99867,49.58124 5.69379,16.60245 14.34789,53.29015 14.34789,53.29015 0,0 -19.36388,-20.10585 -29.08826,-20.45932 -12.25017,-0.44528 -47.68615,36.06594 -47.68615,36.06594 z"
         id="path1"
         sodipodi:nodetypes="cscscsc" /><path
         style="fill:#a6a6a6;fill-opacity:1;stroke:none;stroke-width:0.851215px;stroke-linecap:butt;stroke-linejoin:miter;stroke-opacity:1"
         d="m 314.37119,381.96337 c 0,0 7.52414,-34.67832 12.84186,-52.45525 5.97864,-19.98631 19.31075,-44.60946 19.31075,-44.60946 0,0 13.50982,25.37886 19.1022,41.53419 4.86931,14.06652 12.03335,39.22819 12.03335,39.22819 0,0 -13.00658,-11.34949 -21.32282,-11.64898 -10.47627,-0.37727 -41.96534,27.95131 -41.96534,27.95131 z"
         id="path2"
         sodipodi:nodetypes="cscscsc" /><path
         id="path6"
         style="fill:none;stroke:#ffffff;stroke-width:1px;stroke-linecap:butt;stroke-linejoin:miter;stroke-opacity:0.5"
         d="m 377.22811,364.77184 5.92217,10.77835 m -68.77909,6.41318 c 0,0 7.52414,-34.67832 12.84186,-52.45525 5.97864,-19.98631 19.31075,-44.60946 19.31075,-44.60946 0,0 13.50982,25.14198 19.1022,41.29731 4.86931,14.06652 12.03335,39.46507 12.03335,39.46507 0,0 -13.00658,-11.34949 -21.32282,-11.64898 -10.47627,-0.37727 -41.96534,27.95131 -41.96534,27.95131 z m 0.20039,-0.7279 -4.97462,10.42301 m 36.95433,-106.24368 0.11844,-7.69882"
         sodipodi:nodetypes="cccscscsccccc" /><path
         style="fill:none;fill-opacity:1;stroke:#000000;stroke-width:2.202;stroke-linecap:butt;stroke-linejoin:miter;stroke-dasharray:none;stroke-opacity:1"
         d="m 308.09274,394.52491 c 0,0 8.45492,-43.52224 15.13287,-64.36224 7.93852,-24.77393 23.29498,-54.11577 23.29498,-54.11577 0,0 16.74871,30.98716 23.28801,50.05501 5.69379,16.60245 15.05855,52.81638 15.05855,52.81638 0,0 -19.36388,-20.10585 -29.08826,-20.45932 -12.25017,-0.44528 -47.68615,36.06594 -47.68615,36.06594 z"
         id="path7"
         sodipodi:nodetypes="cscscsc" /></g></g></svg>
