<?xml version="1.0" encoding="UTF-8" standalone="no"?>
<!-- Created with Inkscape (http://www.inkscape.org/) -->

<svg
   version="1.1"
   id="svg282014"
   width="400"
   height="400"
   viewBox="0 0 400 400"
   sodipodi:docname="lowerDecksFemale.svg"
   inkscape:version="1.3.2 (091e20e, 2023-11-25)"
   xml:space="preserve"
   xmlns:inkscape="http://www.inkscape.org/namespaces/inkscape"
   xmlns:sodipodi="http://sodipodi.sourceforge.net/DTD/sodipodi-0.dtd"
   xmlns="http://www.w3.org/2000/svg"
   xmlns:svg="http://www.w3.org/2000/svg"><defs
     id="defs282018" /><sodipodi:namedview
     id="namedview282016"
     pagecolor="#ffffff"
     bordercolor="#666666"
     borderopacity="1.0"
     inkscape:showpageshadow="2"
     inkscape:pageopacity="0.0"
     inkscape:pagecheckerboard="0"
     inkscape:deskcolor="#d1d1d1"
     showgrid="false"
     inkscape:zoom="2.3175"
     inkscape:cx="199.78425"
     inkscape:cy="200"
     inkscape:window-width="1848"
     inkscape:window-height="1140"
     inkscape:window-x="2497"
     inkscape:window-y="30"
     inkscape:window-maximized="0"
     inkscape:current-layer="g282022"><inkscape:page
       x="0"
       y="0"
       id="page282020"
       width="400"
       height="400"
       margin="0"
       bleed="0" /></sodipodi:namedview><g
     id="g282022"
     inkscape:groupmode="layer"
     inkscape:label="Page 1"><path
       id="path283350"
       style="fill:#2d2d2d;fill-opacity:1;fill-rule:nonzero;stroke:none;stroke-width:1.33333"
       d="m 193.9401,200.47645 c -3.26592,5.30656 -3.86687,7.52052 -6.56272,13.19047 -3.22718,5.3122 -3.53337,7.27532 -5.56488,10.79597 -14.34652,6.44948 -26.45648,10.66799 -50.14844,24.25195 -16.34717,4.40719 -36.791883,9.01532 -54.478513,19.41797 -3.369327,1.98133 -12.234867,6.10028 -15.736328,8.22657 -9.936666,13.29954 -9.372148,20.97017 -15.105469,36.71679 -0.656341,2.91272 -1.567847,6.39777 -3.566406,12.57227 -4.402761,16.19092 -7.37106,25.52686 -8.900391,40.02148 -0.958665,5.632 -0.927688,10.68979 -1.84375,18.00196 -0.31846,4.11345 -0.340612,11.04731 -0.964844,14.3789 0.552134,0.0642 1.23003,0.87839 1.951172,1.94922 h 50.462891 c 3.704218,-1.52068 7.373483,-3.13398 10.964844,-4.92773 4.298661,-2.148 11.447034,-7.69372 15.484374,-10.34571 2.42665,-1.59467 8.65333,-10.53464 11.228,-10.8253 0.009,-10e-4 77.2308,-5.16981 153.07864,-3.60048 28.86837,0.13315 50.12357,1.80596 80.4336,3.70703 0,0 17.15433,2.05989 25.86067,5.42395 0.0172,-10.25306 0.4109,-28.56364 -1.87044,-36.24231 -1.22133,-4.10531 -2.36753,-14.52392 -3.58487,-18.63057 -6.20398,-24.60529 -10.10382,-42.84846 -35.00676,-51.60168 -12.70759,-4.46663 -25.55737,-10.40688 -37.96306,-11.84587 -5.24832,-0.67437 -13.24175,-7.73496 -17.09375,-9.26563 l -8.25586,-6.82617 -0.37734,-2.0694 -5.86427,-7.46576 -2.91365,9.11949 -4.30926,2.33409 -2.99251,0.52494 -3.73242,-0.30273 c -10.87331,-1.412 -25.98222,-10.59121 -35.01953,-17.22852 -10.19471,-8.2966 -21.0909,-18.16971 -27.60873,-29.45519 z"
       sodipodi:nodetypes="cccccccccccccccscccccsccccccccccc" /><path
       id="path9"
       style="fill:#d30000;fill-opacity:1;stroke:none;stroke-width:1px;stroke-linecap:butt;stroke-linejoin:miter;stroke-opacity:1"
       d="m 193.78921,199.52782 -2.88551,5.39513 3.11914,5.37304 16.54943,17.08682 c 0,0 10.39919,10.22617 11.95898,10.7461 1.5598,0.51993 10.74414,6.23828 10.74414,6.23828 l 21.49023,6.93359 2.06055,0.0684 -0.32617,21.94141 -38.47461,31.02343 -36.39648,24.26368 -35.875,23.22265 8.83984,25.30274 9.18555,-0.86524 -7.62696,-21.83789 33.96875,-21.83789 34.31641,-24.43555 31.71484,-25.99609 7.79883,-9.18555 0.66211,-21.34179 0.72461,0.0234 8.14649,-5.19921 0.79017,-6.34268 -2.77343,-2.94727 -1.30971,4.61026 -3.4668,4.67969 -6.75977,0.69335 -10.74414,-1.90624 -17.85156,-7.2793 -14.79223,-10.58652 -15.44665,-16.0335 z"
       sodipodi:nodetypes="ccccsccccccccccccccccccccccccccc" /><path
       d="m 31.482052,395.28734 c 0.446666,2.49334 1.180614,2.08466 1.540614,4.67933 h 20.166666 c 0.196,-3.43334 -0.168,-7.00134 -0.09067,-10.296 0.142667,-6.028 1.809568,-11.8813 2.717568,-17.83597 1.664043,-10.89316 4.390792,-21.53944 8.717099,-31.40937 5.682623,-10.91971 7.04473,-14.96286 12.227828,-24.25379 8.061621,-9.83474 8.681112,-10.66445 17.276729,-16.04664 9.830784,-5.05831 15.433984,-7.8084 26.708774,-12.5209 12.06134,-4.93733 26.01867,-8.93733 38.75867,-12.128 2.82667,-0.80533 5.532,-1.54666 8.11733,-2.22666 28.43467,-7.48134 48.85975,-10.78844 48.85975,-10.78844 0,0 -11.6028,-5.51607 -20.87346,-16.6534 -3.08933,-3.71334 -5.02725,-4.512 -7.25392,-8.99734 -2.228,-4.484 -3.54315,-5.33167 -8.02103,-10.32829 -6.75333,2.5483 -26.119,9.03784 -47.707,21.33251 -18.69995,5.86575 -35.845712,11.49837 -55.441672,20.31762 -6.939001,2.88838 -12.359196,4.7333 -15.263196,7.33997 -9.815593,11.6216 -13.675677,21.85662 -18.57202,40.35778 -3.949413,17.25627 -7.765364,34.88594 -9.352248,49.71932 -1.108,6.50533 -0.995824,8.39911 -2.471784,17.39312 0.117676,5.33145 -0.859554,8.65545 -0.283552,11.86611"
       style="opacity:0.199997;fill:#000000;fill-opacity:1;fill-rule:nonzero;stroke:none;stroke-width:1.33333"
       id="path283392"
       sodipodi:nodetypes="cccccccccccccccccccccc" /><path
       d="m 381.7071,400 c 0.0446,-3.56908 -0.0655,-6.7515 0.0636,-10.25685 0.0139,-2.87982 -0.5454,-5.53188 -0.14127,-8.5863 l -9.94981,-6.45973 c -17.46003,-0.9856 -29.02072,-0.93838 -44.68407,-2.18062 -2.87733,-0.17734 -12.31788,-0.35067 -15.58455,-0.51467 -9.8,-0.49333 -23.19569,-1.6513 -37.41836,-1.94597 -75.85333,-1.56933 -154.23074,4.12032 -154.23074,4.12032 C 103.61678,385.47373 98.23261,392.09496 80.469944,400 Z"
       style="fill:#d30000;fill-opacity:1;fill-rule:nonzero;stroke:none;stroke-width:1.33333"
       id="path283402"
       sodipodi:nodetypes="ccccsccccc" /><path
       d="m 185.98384,374.61422 c 4.165,0.11825 9.37049,-0.33021 13.63628,0.46587 5.35114,0.99893 11.1576,3.48471 16.46882,5.04406 4.78206,1.40428 9.8433,3.21797 14.70576,3.81087 5.31438,0.64975 9.52107,2.82334 14.73519,4.27857 8.86004,2.47375 17.57384,5.11811 26.38839,7.12639 8.8994,2.02671 15.32186,6.07193 23.5853,-0.0867 3.8796,-2.89107 7.55753,-6.47747 11.51138,-9.44646 4.63124,-3.47797 9.43718,-5.21695 14.92112,-6.87533 2.22129,-0.67189 4.4549,-1.30743 6.66518,-2.01433 0.88439,-0.28302 6.27602,-3.46082 7.11522,-3.27959 -7.42572,-1.59537 -31.31966,-1.93473 -39.13446,-3.26236 -9.80472,-1.66426 -18.98766,-1.78492 -28.94872,-1.84228 -11.48271,-0.0672 -22.97561,1.25782 -34.46783,1.47844 -11.79255,0.2281 -23.60484,-0.63412 -35.38747,-0.66185 -3.44381,-0.008 -9.12331,-0.76455 -11.68277,1.05955 -4.32659,3.08379 1.00405,3.77134 -0.11139,4.2052"
       style="opacity:0.199997;fill:#000000;fill-opacity:1;fill-rule:nonzero;stroke:none;stroke-width:1.33333"
       id="path283492"
       sodipodi:nodetypes="ccccccccccccccccc" /><path
       id="path3"
       style="fill:#ecfcfe;fill-opacity:1;stroke:none;stroke-width:1px;stroke-linecap:butt;stroke-linejoin:miter;stroke-opacity:1"
       d="m 276.94922,367.07227 -115.73438,2.02539 4.47461,12.08984 116.11328,-1.98438 87.50575,5.03527 12.53457,5.92987 -0.62247,-9.50608 -15.45905,-8.67426 z M 119.23828,367.41797 97.574219,381.62891 66.376953,400 h 21.837891 l 30.849606,-17.67773 0.0664,-5.64258 0.45312,5.29687 36.5586,-0.625 -4.67188,-12.08398 -32.25976,0.56445 z"
       sodipodi:nodetypes="cccccccccccccccccccc" /><path
       d="m 199.85386,247.78521 c -2.956,-2.45467 -5.49586,-4.13921 -8.94786,-7.61521 -9.57334,-13.50887 -9.34583,-15.04355 -2.8718,-28.34578 3.66086,-7.52199 5.20108,-10.80481 5.20108,-10.80481 l 0.97584,1.78557 c 5.80024,13.03798 12.25575,19.18633 20.59975,27.41033 7.41067,7.304 12.15646,13.59603 24.79779,16.75603 4.20667,1.052 3.568,11.54666 3.352,13.924 -0.216,2.37733 -9.13063,10.73787 -23.27996,0.78187"
       style="display:inline;opacity:0.199997;fill:#000000;fill-opacity:1;fill-rule:nonzero;stroke:none;stroke-width:1.33333"
       id="path283456"
       sodipodi:nodetypes="ccsccccsc" /><path
       style="color:#000000;fill:#000000;fill-opacity:1;-inkscape-stroke:none"
       d="m 273.29708,260.57482 c -0.56721,2.13587 -2.36717,5.38928 -3.73067,7.19471 -1.32355,1.75253 -4.65235,3.81445 -4.65235,3.81445 l -0.0184,2.84527 c 0,0 4.47979,-3.08893 6.26642,-5.45464 1.74668,-2.3128 3.18139,-5.26437 3.46197,-7.97278 0.2617,-2.52614 -0.62056,-6.14923 -0.62056,-6.14923 0,0 -0.16388,3.67915 -0.70641,5.72222 z"
       id="path10"
       sodipodi:nodetypes="ssccsscs" /><path
       id="path11"
       style="fill:#000000;fill-opacity:0.2;stroke:none;stroke-width:1px;stroke-linecap:butt;stroke-linejoin:miter;stroke-opacity:1"
       d="m 256.98438,246.81445 -2.81836,0.49024 -1.4502,25.83203 c 0,0 -28.16782,22.43797 -46.82324,35.5293 -18.65542,13.09131 -64.99024,42.28711 -64.99024,42.2871 l 7.66211,19.89258 c -12.1414,0.57384 -23.61745,-0.17728 -29.22656,0.39258 l 0.10742,1.98438 c 0,0 0.25597,4.72793 0.47266,26.77734 h 24.39844 c 0.78556,-18.04348 1.62546,-22.2444 5.38476,-26.19922 L 159.79297,400 h 2.59961 l -10.3125,-28.43555 c 0.36676,-0.32165 0.75007,-0.65371 1.15625,-1.00586 -0.49504,0.0387 -0.98969,0.0701 -1.48438,0.10352 l -6.51757,-17.97461 47.48632,-30.33008 28.59766,-20.62304 34.85156,-28.59766 z"
       sodipodi:nodetypes="cccsccccccccccccccccc" /><path
       id="path283442"
       style="fill:#000000;fill-opacity:1;fill-rule:nonzero;stroke:none;stroke-width:1.33333"
       d="m 192.51172,198.10742 c -0.26366,0.0623 -0.51022,0.19709 -0.71289,0.39844 -3.49637,8.38742 -5.92801,14.53508 -9.89063,23.34961 -4.39607,2.89472 -9.51289,5.27609 -14.36328,7.50781 -4.70585,2.14462 -12.46312,6.36183 -21.5957,10.50195 -9.13258,4.1402 -17.97782,6.15144 -29.99024,10.17188 -11.31868,3.78828 -52.198186,20.20762 -56.707027,23.52734 -15.771531,29.04991 -24.623238,71.03083 -28.144531,97.73828 -1.286843,11.80767 -1.337818,18.4127 -1.617188,28.14063 -0.03067,0.17466 -0.07629,0.34877 -0.126953,0.52344 h 4.427735 c -0.464966,-3.51134 6.20156,-88.23444 29.824218,-121.20508 2.24976,-0.30739 10.651915,0.27721 15.021485,3.86133 3.130025,2.81096 8.891048,8.71817 11.429687,11.38476 -3.599312,-6.23416 -6.747717,-10.29861 -11.697265,-14.91601 -5.483162,-3.3559 -7.511437,-4.20862 -11.900391,-3.90821 6.410458,-3.26279 36.20192,-15.30406 43.25781,-17.86718 7.05597,-2.5632 20.61952,-5.91788 28.88086,-8.82032 8.26133,-2.90236 12.88737,-5.68053 18.28516,-8.47461 8.07106,-3.94464 15.75117,-8.62957 23.83984,-12.53125 0.62847,0.85738 2.00204,3.31328 2.94531,4.73829 3.73657,5.6445 8.08255,11.16383 12.43165,15.91992 4.34901,4.756 11.88001,9.70344 15.9746,12.52344 7.89657,5.55316 20.31196,9.46961 25.61719,10.52343 2.62612,0.78984 13.56129,2.4791 16.72852,2.34571 -2.86165,2.32657 -35.17442,28.56204 -50.08594,38.91796 -15.6764,10.88718 -30.40856,19.18833 -40.3418,25.62305 -6.56029,4.24978 -14.91216,9.55146 -20.75586,13.49805 l 5.91407,15.83594 c -8.571,0.27956 -17.14167,0.57138 -25.71289,0.76171 0,0 -4.50294,-18.8254 -5.74024,-21.71875 -1.2373,-2.89329 -3.353,-10.86998 -7.67383,-19.1914 -1.62365,-3.12928 -3.32539,-6.20459 -5.05664,-9.06446 -1.73275,-2.86095 -3.48925,-5.50693 -5.216794,-7.76757 0,0 1.962634,4.5119 4.289064,10.875 1.16395,3.18205 2.41191,6.82332 3.54297,10.59179 1.12973,3.76873 2.14262,7.66535 2.83008,11.35157 0.99182,7.65363 2.93939,20.13349 3.46874,23.51562 -5.41673,3.79926 -17.004838,11.86794 -23.494136,15.97266 C 81.362308,388.45655 60.792969,400 60.792969,400 h 8.927734 c 0,0 15.652864,-8.83776 23.392578,-13.68945 6.792606,-4.25805 16.882709,-11.10569 21.554689,-14.28711 0.38629,2.69208 0.86047,5.70422 1.38086,9.05664 -3.72678,2.40917 -10.54261,6.79824 -15.36719,9.7168 C 95.419546,393.98007 84.548828,400 84.548828,400 h 7.851563 c 0,0 7.090663,-3.89388 10.830079,-6.13672 4.23549,-2.54041 9.61456,-5.70808 13.4707,-7.97461 0.59681,4.53786 1.0816,9.30236 1.01367,14.11133 h 5.29297 c -0.14005,-4.7715 -0.23632,-11.00451 -0.33203,-16.11328 2.34963,-0.0801 16.12377,-0.51197 32.26563,-0.99219 L 161.33008,400 h 3.68359 l -17.26758,-47.58203 c 0.8676,-0.58449 8.55569,-5.77051 17.88868,-11.81641 9.78401,-6.33805 24.60731,-14.69601 40.41992,-25.67773 17.85433,-12.8725 35.03518,-26.66242 52.10937,-40.54688 l 0.33399,-25.86328 c 1.68477,0.0321 3.194,-0.21507 5.98242,-0.76758 4.264,-0.84491 6.07368,-4.29689 6.52539,-8.09179 0.10183,-0.85552 1.15793,0.14889 2.19531,1.72851 -0.0416,0.43273 -0.0576,0.37685 -0.0937,0.88672 -0.12,1.69262 -1.37465,4.77267 -1.75976,5.15625 -0.64538,0.64281 -2.02556,1.97317 -3.59375,2.63672 -1.00262,0.42423 -3.27023,0.59219 -5.45313,0.81641 -0.0171,8.00901 -0.23839,19.70019 -0.60156,22.85937 -0.30439,0.37363 -3.33978,4.0375 -11.73242,11.42969 -9.57483,8.43344 -29.67628,24.36848 -45.45899,35.87695 -16.41757,11.63821 -33.29554,22.62613 -50.30469,33.37891 L 171.13867,400 h 2.82031 l -6.3457,-17.46094 c 36.58409,-1.03641 85.08964,-2.19731 110.33594,-1.68359 34.46168,0.70123 76.61527,4.10295 91.3125,5.36328 3.10696,0.26643 10.39626,5.0754 10.88476,5.11719 0.23031,5.5341 -0.11329,8.66406 -0.11328,8.66406 h 3.20118 c 0,0 -0.1655,-21.31598 -1.09961,-32.27344 -1.59481,-18.70624 -2.63514,-37.83486 -7.72071,-56.16406 -2.25346,-8.12184 -5.88753,-15.10498 -10.53711,-23.45312 -1.60407,-2.88005 -2.52591,-4.40069 -6.07812,-8.92774 -2.52749,-1.69684 -33.29894,-13.67859 -58.39258,-19.43555 -7.14599,-5.82461 -12.73922,-9.59987 -20.99805,-14.09961 -2.23384,-1.17018 -1.65189,-2.9827 -1.66406,-3.7207 -0.0754,-3.05964 -1.86884,-3.88732 -4.35547,-5.84961 -1.64843,-1.30084 -2.76491,-2.17746 -4.55273,-3.57617 0.0183,0.7426 -0.0633,1.25674 -0.10742,1.74609 -0.28213,3.12911 -0.50404,4.27155 -0.80664,6.00977 -0.46114,2.64849 -1.40231,3.80035 -3.52344,4.73828 -2.4215,1.07074 -6.19471,0.31541 -8.65039,0.0508 -34.78281,-6.32628 -60.24462,-44.34653 -60.03711,-44.82031 l 0.37304,-1.94727 c -0.86659,-0.0907 -1.417,-0.12618 -1.79296,-0.14062 z m 0.5332,4.91406 c 0,0 4.02149,5.53389 9.8418,12.21875 5.7338,6.58561 10.25921,11.40943 16.45117,16.51172 8.54945,7.04497 15.43795,10.33008 24.22852,13.55274 3.85276,1.41349 7.86984,2.32709 11.93359,2.89648 l -0.0195,1.5586 c -2.15467,-0.35966 -6.27735,-1.09379 -8.39063,-1.79102 -8.04428,-2.65408 -16.02309,-5.82013 -22.83593,-10.55273 -7.28674,-5.06182 -14.49226,-11.32486 -20.52735,-18.07813 -3.61786,-4.04847 -9.94648,-12.43719 -11.43359,-14.41406 0.20492,-0.5374 0.5834,-1.45122 0.75195,-1.90235 z m -1.85547,4.68946 c 1.62641,2.10847 7.0968,9.17696 10.70899,13.32422 6.07255,6.97209 12.96619,13.51321 20.64258,18.8457 7.19762,4.99989 15.45343,8.24658 23.60937,10.9375 2.75862,0.91015 7.31739,1.67604 9.29102,1.98437 l -0.25782,20.12696 c -0.0217,0.0177 -0.50849,0.40957 -0.56445,0.45508 -1.24728,-0.25029 -14.17126,-2.85624 -21.44726,-5.39258 -7.63044,-2.65996 -25.06945,-13.94241 -29.19532,-17.50781 -4.12585,-3.56541 -10.26108,-10.19472 -12.70508,-13.24805 -2.44395,-3.05196 -5.94171,-9.21606 -7.62304,-12.10938 2.38398,-4.52217 5.32884,-11.76062 7.54101,-17.41601 z m 83.17578,40.09179 c -0.14819,0.8977 -1.57509,3.62775 -1.77929,4.33985 -0.65467,2.28 -0.29619,4.54214 -0.49219,6.85547 -0.19333,2.27063 0.13581,3.42981 1.00781,5.64843 1.46533,-4.40796 0.53414,-9.62029 2.71289,-14.14062 0.5454,-1.13158 0.96736,-2.50953 1.51172,-2.36914 0.54436,0.14038 2.24565,1.64571 2.52344,1.81445 0.31288,0.19006 4.92759,3.13141 7.94727,5.30274 3.1213,2.24438 7.50313,7.10963 10.50781,8.13671 7.84985,1.84043 47.09886,13.51367 57.45117,18.56446 0.14152,0.13222 0.23191,0.26428 0.36523,0.39648 0.48378,4.0689 1.72921,17.29288 1.997,21.59429 0.39445,6.33593 0.45808,27.55467 0.45808,27.55467 0,0 1.94797,-21.09567 1.53802,-27.67967 -0.22304,-3.58251 -1.1231,-14.0914 -1.64739,-18.61382 1.15006,1.72658 1.979,3.48493 2.92578,5.33985 4.44817,8.71484 7.27513,14.18009 9.48437,22.14257 4.82325,17.38405 6.70123,46.68461 8.22657,64.90821 -2.1326,-1.06631 -6.11361,-2.84434 -11.82032,-5.71875 -8.80701,-0.54519 -25.15401,-2.33607 -37.53125,-3.16407 -16.56115,-1.10667 -35.27366,-2.04995 -53.4707,-3.11328 -6.40006,-0.37398 -11.82857,-0.99652 -18.23828,-0.99218 -32.02393,0.0216 -64.0452,1.31669 -96.06641,2.42187 l -4.13281,-11.37305 c 1.73048,-1.09712 32.94125,-20.89408 48.43164,-32.18945 15.84664,-11.55513 35.92046,-27.6319 45.56641,-36.46875 1.78774,-1.63778 9.7782,-8.47407 13.19922,-12.74414 0.13818,-7.15976 0.36212,-14.24935 0.58203,-21.20313 0,0 1.77223,-0.1795 2.9082,-0.66015 1.55768,-0.65908 4.53804,-3.43103 5.83398,-4.58985 z m -30.7832,121.55665 c 8.78174,0.005 17.58468,0.13382 26.39649,0.43359 33.46498,1.13843 67.146,3.97666 97.51953,5.70898 3.49768,2.18005 10.67422,5.97888 12.09375,6.89063 0.16008,2.07609 0.41081,4.05841 0.45312,5.63281 -1.44469,-0.58257 -8.93846,-5.66012 -11.20898,-5.85547 -14.2479,-1.22585 -55.9419,-4.6031 -90.80469,-5.3125 -25.78924,-0.52477 -75.19856,0.66847 -111.85937,1.71485 l -2.60352,-7.16407 c 0.66879,-0.0169 1.35483,-0.0332 1.9043,-0.0527 25.61177,-0.91463 51.76417,-2.01108 78.10937,-1.99609 z m -92.79883,2.40234 2.67774,7.16797 c -15.44206,0.4628 -28.53768,0.87735 -30.86719,0.95703 -0.006,-0.24467 -0.016,-0.83334 -0.0215,-1.04883 -0.11004,-4.34798 -0.1698,-2.27056 -0.25,-5.93359 7.81077,-0.60516 18.33004,-0.88562 28.46093,-1.14258 z"
       sodipodi:nodetypes="cccccsccccccccccsccccscccsscccscccccccsccsccsccsccccccccscccssccssccscccccsscsccssccccscscscccccccscccssscccssscccsscccccccsssscccscscsscccscccssccscsscccsscccscccccc" /><g
       id="g10"><path
         style="color:#000000;fill:#a6a6a6;stroke-width:0.913966;stroke-miterlimit:40;-inkscape-stroke:none"
         d="m 323.74498,394.67901 9.14268,-42.96978 19.49115,41.29461 c 0,0 -6.63457,-8.65272 -12.14714,-9.17301 -3.90461,-0.36852 -16.48669,10.84818 -16.48669,10.84818 z"
         id="path14"
         sodipodi:nodetypes="cccsc" /><path
         style="color:#000000;fill:#000000;stroke-width:0.913966;stroke-miterlimit:40;-inkscape-stroke:none"
         d="m 332.5201,348.45448 -11.06586,49.34023 c 2.69102,-2.78441 5.80312,-5.05677 8.75848,-7.56396 2.99083,-2.5373 7.2695,-4.88311 10.21499,-4.83694 2.4995,0.0392 5.17732,2.01337 7.6677,4.30867 2.49038,2.29529 4.31932,4.5316 4.31932,4.5316 l 3.75474,3.91131 z m 0.98324,7.42215 14.92215,31.09162 c -2.60867,-2.37863 -5.13031,-4.12788 -8.37509,-4.43413 -2.93661,-0.27716 -7.4984,2.1453 -14.78913,8.45735 z"
         id="path15"
         sodipodi:nodetypes="ccssscccccscc" /></g><path
       id="path1"
       style="color:#000000;display:inline;fill:#000000;-inkscape-stroke:none"
       d="m 364.85547,325.46289 c 0,0 -0.51194,14.53864 -1.02735,21.63281 -0.20476,2.81845 -0.91809,7.43803 -1.38281,10.29883 -0.85612,-2.40593 -1.68043,-4.81181 -2.36133,-7.24023 -2.23763,-7.98055 -6.85351,-24.30469 -6.85351,-24.30469 0,0 1.64022,16.78278 3.95353,25.0332 2.10991,7.52499 5.40157,14.575 7.464,21.83203 1.55841,5.48362 2.99889,10.94537 3.734,16.46875 0.4375,3.28725 0.477,10.81641 0.477,10.81641 h 2.89881 c 0,0 0.10748,-7.37057 -0.39843,-11.17188 -1.19843,-7.91545 -3.33427,-15.60729 -5.94923,-23.16017 0.35883,-0.73745 2.12746,-4.40533 2.86914,-6.64844 0.86885,-2.62769 1.11038,-5.31988 1.8164,-7.77734 0.85876,-2.98907 2.37891,-9.24805 2.37891,-9.24805 0,0 -2.91971,5.69929 -3.82031,8.83398 -0.7588,2.64113 -1.00427,5.31175 -1.80078,7.72071 -0.46187,1.39684 -1.45463,3.59515 -2.16211,5.11523 -0.42045,-1.1669 -0.82916,-2.33726 -0.85892,-2.88542 0,0 1.46689,-9.099 1.79056,-13.55403 0.53275,-7.33303 -0.76758,-21.76172 -0.76758,-21.76172 z"
       sodipodi:nodetypes="cscscsssccscsscssccscc" /></g></svg>
