<?xml version="1.0" encoding="UTF-8" standalone="no"?>
<!-- Created with Inkscape (http://www.inkscape.org/) -->

<svg
   version="1.1"
   id="svg171226"
   width="400"
   height="400"
   viewBox="0 0 400 400"
   sodipodi:docname="lowerDecksMale.svg"
   inkscape:version="1.3 (0e150ed, 2023-07-21)"
   xml:space="preserve"
   xmlns:inkscape="http://www.inkscape.org/namespaces/inkscape"
   xmlns:sodipodi="http://sodipodi.sourceforge.net/DTD/sodipodi-0.dtd"
   xmlns="http://www.w3.org/2000/svg"
   xmlns:svg="http://www.w3.org/2000/svg"><defs
     id="defs171230" /><sodipodi:namedview
     id="namedview171228"
     pagecolor="#ffffff"
     bordercolor="#666666"
     borderopacity="1.0"
     inkscape:showpageshadow="2"
     inkscape:pageopacity="0.0"
     inkscape:pagecheckerboard="0"
     inkscape:deskcolor="#d1d1d1"
     showgrid="false"
     inkscape:zoom="26.360941"
     inkscape:cx="277.53183"
     inkscape:cy="259.47481"
     inkscape:window-width="1920"
     inkscape:window-height="1145"
     inkscape:window-x="2459"
     inkscape:window-y="70"
     inkscape:window-maximized="0"
     inkscape:current-layer="g171234"><inkscape:page
       x="0"
       y="0"
       id="page171232"
       width="400"
       height="400"
       margin="0"
       bleed="0" /></sodipodi:namedview><g
     inkscape:groupmode="layer"
     id="layer3"
     inkscape:label="Neck"><path
       d="m 213.63253,151.29441 -13.54934,47.14666 c 0,0 12.42667,24.85333 21.464,31.49067 9.03734,6.636 24.148,15.816 35.02134,17.228 l 3.67066,3.67066 2.82534,-2.824 5.224,-2.25866 4.3151,-10.28435 17.92623,-23.67699 z"
       style="display:inline;fill:#cd976d;fill-opacity:1;fill-rule:nonzero;stroke:none;stroke-width:1.33333"
       id="path171974"
       sodipodi:nodetypes="cccccccccc" /><path
       d="m 200.08306,198.44081 c 0,0 12.86667,21.57066 17.836,27.06399 4.96933,5.49334 32.696,1.83067 40.54267,4.18534 6.33866,1.90133 13.09866,2.66533 15.47066,2.89066 l 16.59734,-20.79333 -76.89734,-60.49333 z"
       style="display:inline;opacity:0.199997;fill:#000000;fill-opacity:1;fill-rule:nonzero;stroke:none;stroke-width:1.33333"
       id="path171984" /><path
       d="m 211.64493,149.52841 c -1.01067,4.99733 -6.2,23.82533 -7.36934,28.788 -0.956,4.064 -1.95733,8.11866 -3.072,12.14266 -0.516,1.85867 -1.07466,3.70267 -1.63333,5.54934 -0.18666,0.616 -0.95466,1.86266 -0.88133,2.47466 0.02,0.16934 0.80667,2.38267 1.11067,1.93733 3.68799,-5.38666 5.03733,-14.18666 7.12666,-20.38133 1.49067,-4.41866 7.06133,-22.68666 8.552,-27.104 0,0 -3.83333,-3.40666 -3.83333,-3.40666"
       style="display:inline;fill:#000000;fill-opacity:1;fill-rule:nonzero;stroke:none;stroke-width:1.33333"
       id="path171994" /><path
       d="m 293.27599,213.31907 c -2.83733,2.044 -16.28266,19.912 -18.592,22.53067 -1.87866,2.13066 -4.41733,10.85066 -7.52933,10.948 -2.104,0.0653 -1.74133,-3.72534 -1.19333,-5.332 0.26266,-0.76934 21.288,-30.90934 21.288,-30.90934 0,0 6.02666,2.76267 6.02666,2.76267"
       style="display:inline;fill:#000000;fill-opacity:1;fill-rule:nonzero;stroke:none;stroke-width:1.33333"
       id="path171998" /></g><g
     id="g171234"
     inkscape:groupmode="layer"
     inkscape:label="Page 1"
     style="display:inline"><path
       id="path171958"
       style="fill:#2d2d2d;fill-opacity:1;fill-rule:nonzero;stroke:none;stroke-width:1.33333"
       d="m 197.83789,194.625 -12.25,11.66016 -4.10742,2.73828 c -0.004,0.0179 -0.004,0.0349 -0.008,0.0527 -1.9873,1.1534 -4.82885,2.07076 -7.0625,2.23633 l -40.07813,18.65039 -39.423827,20.71289 -11.855469,6.04297 -6.742187,6.27734 -9.458985,6.82422 c -11.834766,12.45088 -19.196026,25.30384 -24.970703,40.91211 l -14.60893,78.69588 c 0,0 0.502529,10.5717 6.644087,10.5717 h 42.386718 c 18.742349,0 32.553466,-21.75306 45.613286,-31.41016 0,0 77.47877,-4.76073 153.33203,-3.1914 75.85191,1.56934 91.18554,2.91601 91.18554,2.91601 l 3.25963,1.11809 15.59343,14.54342 -1.4761,-41.44276 c -1.52533,-11.00266 -6.3445,-45.00027 -8.67383,-52.57226 -2.78933,-9.06532 -4.29199,-11.15773 -12.44531,-16.03906 -8.15467,-4.88133 -35.08884,-19.29515 -45.54883,-21.61915 -10.46133,-2.32533 -30.30508,-14.70807 -40.52907,-19.05074 l -3.55006,3.80279 c -1.63186,2.11143 -3.49131,5.03341 -4.77439,8.69327 l -5.22461,2.25781 -2.74023,0.0293 -3.75586,-0.875 c -10.87332,-1.412 -25.98221,-10.5912 -35.01953,-17.22852 -9.03866,-6.63733 -21.4668,-31.49023 -21.4668,-31.49023 l -0.38867,-2.38282 z"
       sodipodi:nodetypes="ccccccccccccsscsccccccccccccccccc" /><path
       id="path171962"
       style="fill:#d30000;fill-opacity:1;fill-rule:nonzero;stroke:none;stroke-width:1.33333"
       d="M 198.2832 194.3125 C 198.2832 194.3125 193.99156 198.06874 193.45508 198.39062 L 196.35156 203.75586 L 207.72461 221.67383 L 223.49805 237.98242 L 239.69922 248.17578 L 254.18359 252.14648 L 260.89844 252.03906 L 259.32227 273.13086 L 227.91211 298.16797 L 201.81445 317.74219 L 151.58789 348.84961 L 152.44336 365.95117 C 135.36973 366.34425 122.62305 366.69922 122.62305 366.69922 C 108.43232 374.99768 92.860859 390.95717 76.988281 399.99609 L 385.68945 399.9668 L 384.83203 382.1543 L 369.84375 369.88867 L 366.58594 368.76953 C 366.58594 368.76953 351.39146 365.62906 275.52539 364.91797 C 231.02649 364.50088 188.09877 365.17439 158.57422 365.8125 L 157.80859 353.55273 L 197.10938 328.21289 L 236.5625 297.71289 L 264.48242 273.89062 L 264.9375 251.73633 C 264.9375 251.73633 273.73739 245.66676 274.49609 245.36328 C 275.25479 245.0598 277.98633 239.44531 277.98633 239.44531 L 276.46875 233.52734 L 271.91797 240.05273 L 266.15039 245.66602 L 261.51367 246.94727 L 247.10352 245.17188 L 228.32617 235.51562 L 212.66016 219.41992 L 201.60938 201.93164 L 198.2832 194.3125 z M 76.988281 399.99609 L 37.300781 399.99805 L 37.302734 400 L 76.980469 400 C 76.982969 399.999 76.985781 399.99809 76.988281 399.99609 z M 37.300781 399.99805 C 31.570554 395.38512 25.769531 392.00391 25.769531 392.00391 L 25.664062 400 L 37.300781 399.99805 z " /><path
       id="path4"
       style="fill:#ecfcfe;fill-opacity:1;stroke:none;stroke-width:1px;stroke-linecap:butt;stroke-linejoin:miter;stroke-opacity:1"
       d="m 257.08203,364.37695 -98.41601,0.63477 0.71875,12.76367 52.63281,-0.52148 h 77.68164 l 76.82422,3.86132 18.88476,14.59375 0.42774,-11.16015 -18.45313,-16.73828 z M 124.67773,364.5918 75.585495,400 h 16.310547 l 32.781688,-22.10352 v -6.23242 l 0.64454,6.44727 28.02929,-0.27735 -0.97851,-12.78125 -27.69532,0.17969 z m -96.781053,16.95299 -2.360574,13.30513 4.715756,5.25738 L 44.068058,400 Z"
       sodipodi:nodetypes="ccccccccccccccccccccccccc" /><path
       d="m 278.50114,243.12312 c 0.224,3.21333 -2.84501,5.14608 -4.44101,7.84075 -2.38667,4.032 -3.48134,9.40133 -4.94667,13.80933 -0.872,-2.21866 -1.20133,-3.37733 -1.008,-5.648 0.196,-2.31333 0.44933,-4.564 1.104,-6.844 0.46533,-1.62266 3.62267,-4.36666 4.41467,-5.74133 3.19193,-4.81649 3.34663,-7.96173 2.57223,-12.06378 0.6142,0.34683 1.2401,1.10906 1.39679,1.48077 0.52598,1.24773 0.82962,2.25899 0.90815,3.54236 0.0675,1.10231 -0.0828,2.4279 -1.6e-4,3.6239 z"
       style="fill:#000000;fill-opacity:1;fill-rule:nonzero;stroke:none;stroke-width:1.33333"
       id="path172002"
       sodipodi:nodetypes="cccccccssc" /><path
       d="m 367.95412,278.712 c 0,0 3.12934,28.84534 1.144,48.11334 0,0 3.30134,-23.672 0.824,-46.24134 z"
       style="fill:#000000;fill-opacity:1;fill-rule:nonzero;stroke:none;stroke-width:1.33333"
       id="path172006" /><path
       d="m 191.51296,235.92038 c -13.39668,-13.49331 -10.47132,-25.60927 -10.47132,-25.60927 l 16.79636,-15.6851 2.24533,3.81466 c 0.0533,13.20667 7.13866,22.95733 15.48266,31.18133 7.41067,7.304 11.40134,14.18934 24.04267,17.34934 4.20667,1.052 3.568,11.54666 3.352,13.924 -0.216,2.37733 -6.74919,5.1998 -23.44933,-3.14192 -5.20686,-2.60083 -14.97718,-8.71792 -27.99837,-21.83304 z"
       style="opacity:0.199997;fill:#000000;fill-opacity:1;fill-rule:nonzero;stroke:none;stroke-width:1.33333"
       id="path172060"
       sodipodi:nodetypes="scccccsss" /><path
       d="m 176.07996,212.05676 -42.0821,18.07365 -39.090232,20.54573 -11.854667,6.044 -6.742666,6.276 -9.458667,6.824 -8.589333,6.69866 L 40.594354,313.84335 27.202663,391.62673 26.678065,400 h 29.32244 c 21.624703,-77.54889 34.366618,-92.52242 41.105648,-98.36756 6.739027,-5.84515 15.611687,-9.92638 23.283687,-12.71571 67.72267,-24.62667 97.21963,-26.98368 97.21963,-26.98368 0,0 -14.84032,-9.91577 -26.30316,-24.28175 -6.00556,-7.52656 -9.47002,-19.25866 -10.05305,-26.75155 z"
       style="display:inline;opacity:0.199997;fill:#000000;fill-opacity:1;fill-rule:nonzero;stroke:none;stroke-width:1.33333"
       id="path172176"
       sodipodi:nodetypes="ccccccccccczccscc" /><path
       style="opacity:0.2;fill:#000000;fill-opacity:1;stroke:none;stroke-width:0.911631px;stroke-linecap:butt;stroke-linejoin:miter;stroke-opacity:1"
       d="m 368.9541,353.5484 c 0,0 6.16873,24.64853 6.43777,33.1715 0.26904,8.52297 0.42919,13.2801 0.42919,13.2801 H 366.379 Z"
       id="path2"
       sodipodi:nodetypes="czccc" /><path
       id="path3"
       style="color:#000000;fill:#000000;-inkscape-stroke:none"
       d="M 125.17443,362.94638 72.300359,400 h 6.404719 l 48.236332,-33.23828 z m 0.67713,12.59268 L 89.025391,400 h 5.294921 l 32.818358,-20.93359 z m -96.653724,4.11939 -1.958984,2.27148 L 43.226562,400 h 4.234376 z m -1.481904,13.003 -1.692494,4.60723 L 29.083721,400 h 5.225462 z"
       sodipodi:nodetypes="cccccccccccccccccccc" /><path
       id="path5"
       style="color:#000000;fill:#000000;-inkscape-stroke:none"
       d="m 235.51758,375.14648 c -18.0253,-0.0273 -49.99234,0.22518 -76.04102,0.45313 l 0.26953,3.99805 c 26.03986,-0.22752 57.41286,-0.0946 75.31041,0.15578 30.58614,0.42783 43.39624,0.26918 65.41811,0.79432 21.40058,0.51032 63.71625,2.56712 64.77734,2.63388 l 18.82617,14.53906 2.44532,-3.16601 -19.79883,-15.28907 -0.61133,-0.0391 c 0,0 -43.67808,-2.75503 -65.51367,-3.43554 -21.78217,-0.67887 -36.02636,-0.6005 -65.08203,-0.64454 z m -82.4336,0.50977 c -11.362,0.10276 -26.92382,0.24023 -26.92382,0.24023 l 0.0391,4 c 0,0 15.62083,-0.13834 27.11719,-0.24218 z"
       sodipodi:nodetypes="sccsscccccssccccc" /><path
       id="path172010"
       style="fill:#000000;fill-opacity:1;fill-rule:nonzero;stroke:none;stroke-width:1.33333"
       d="m 261.99167,248.75551 c 0.97107,-0.0793 2.08188,-0.25671 3.41458,-0.58363 1.37596,-0.33753 2.73122,-1.22679 3.63672,-2.11329 0.99983,-0.97883 1.55033,-1.62937 2.19141,-2.85351 1.19399,-2.27991 1.47605,-2.59996 1.9082,-3.39844 1.12915,-2.08634 2.03407,-3.04199 2.98047,-4.48828 0.14156,-0.006 0.28854,0.0232 0.43164,0.0273 0.0234,0.82028 0.0191,4.0591 -1.51563,6.91211 -1.19604,2.22337 -3.15158,4.47183 -4.14453,5.26367 -2.05199,1.6364 -3.40166,2.72059 -6.14815,3.27705 l -0.11133,2.23137 -0.93043,19.88523 c 0,0 -20.50546,19.60447 -35.72832,30.79319 -15.22286,11.18872 -33.35452,25.33634 -50.7556,36.96746 -6.60173,4.41269 -20.32226,12.42969 -20.32226,12.42969 L 159.51953,400 h 3.55827 l -1.79882,-32.36332 c 39.34477,-0.0103 100.57811,0.68447 105.37141,0.44531 6.97465,-0.34933 69.99568,1.49321 98.94244,2.88881 0,0 -1.24492,11.66399 -2.53424,28.99596 h 5.57422 c 0.484,-9.21597 1.13754,-22.40066 1.40821,-25.91797 l 12.56836,10.33594 c 0,0 0.36824,3.0114 0.15624,15.58203 h 4.79102 l -2.30469,-57.4336 c -0.0733,-1.01867 -0.18937,-1.86516 -0.33203,-2.5625 -2.15734,-16.44927 -7.67837,-54.12103 -13.76367,-60.81836 -7.53597,-8.29864 -41.54926,-23.28335 -51.86523,-26.61132 -8.256,-2.66267 -15.86906,-7.01273 -23.6504,-10.7754 -2.7573,-1.33197 -5.52419,-2.64478 -8.29882,-3.93945 -2.576,-1.20133 -4.79666,-3.113 -7.19532,-4.625 -1.40264,-0.87467 -3.83165,-1.67834 -5.29296,-0.54101 -1.98933,1.54664 -3.57578,3.56515 -4.84375,5.73046 -0.71733,1.224 -1.59658,2.33794 -2.25391,3.58594 -0.66533,1.26667 -1.57839,2.10396 -2.78906,2.89063 -0.59467,0.38667 -1.16772,0.68759 -1.87305,0.68359 -2.57225,0.1207 -4.0356,-0.17329 -5.67578,-0.35351 -40.2661,-4.42436 -57.30517,-51.29444 -57.42383,-51.75977 -0.14,-0.54934 -0.55633,-0.9863 -1.09766,-1.1543 -0.27267,-0.084 -0.55605,-0.0931 -0.82421,-0.0352 -2.47975,0.43024 -4.20147,2.03182 -4.86317,4.55415 -3.29403,3.33055 -7.86419,7.92471 -11.03137,10.98501 -1.554,0.879 -12.16978,5.21692 -17.09765,7.47656 -4.92834,2.25985 -17.4112,8.42719 -38.27149,19.41797 -17.16088,9.04164 -33.424362,16.38211 -37.429684,17.88477 -8.445306,3.16664 -14.804242,9.80901 -15.878906,11.40234 -1.07733,0.63733 -5.047703,1.38449 -8.318359,3.61914 C 55.3258,272.90049 42.351433,295.3486 36.703125,314.31446 31.054817,333.28031 24.036082,390.94614 23.314453,400 h 4.236328 l 1.353516,-13.88086 0.816406,-4.90234 c 1.510663,-11.19864 8.378269,-51.91779 11.955078,-66.44727 3.576811,-14.52946 17.764298,-36.14578 24.84961,-43.48242 7.085312,-7.33663 23.557387,3.63853 27.609375,9.20117 0.306664,-1.03467 -0.155259,-2.13012 -0.669922,-3.07812 -2.467994,-4.544 -6.364398,-7.99576 -10.761719,-10.6211 -1.478664,-0.88133 -3.620253,-1.56847 -4.65625,-2.98047 -0.306667,-0.42 11.426612,-7.80136 12.474609,-8.19336 4.258655,-1.59731 19.878506,-8.62143 37.916016,-18.11523 20.23414,-10.64998 33.37038,-17.05127 37.48242,-19.08984 5.6992,-2.82544 11.83314,-5.1327 12.98438,-5.49219 0.38442,3.75451 0.62738,7.41608 3.27734,12.68359 3.90537,7.76298 9.04588,18.80854 24.11918,29.18718 18.39594,12.66663 21.63666,14.29854 31.28767,17.40025 8.05365,2.58834 13.82074,1.91108 18.09748,1.84117 0,0 -17.59806,15.17354 -28.45053,23.59498 -10.85246,8.42144 -37.1163,26.66392 -37.1163,26.66392 l -39.82031,24.72461 0.76562,13.6875 -23.88672,-0.0273 c -3.00165,-11.22286 -12.01425,-44.55405 -18.80273,-55.66211 0,0 7.84244,18.71128 9.92969,34.44726 1.61522,9.79322 2.7867,19.67504 3.71289,29.56055 0.96073,10.63384 1.95516,15.70988 1.26953,28.98047 h 6.7168 c 0.49001,-13.11167 -1.52208,-26.66922 -2.01953,-31.76953 -0.0393,-0.40272 9.85143,-0.55334 23.35546,-0.60156 L 153.14648,400 h 3.10306 l -2.76563,-49.79623 38.0239,-23.83459 c 0,0 25.91595,-17.98704 37.23349,-26.7479 11.31755,-8.76087 30.7977,-25.55679 30.7977,-25.55679 0,0 1.81477,-13.73905 1.74925,-16.55751 -0.0655,-2.81846 0.76303,-7.1915 0.70342,-8.75147 z m -3.3075,2.33098 c -5.43497,0.38004 -9.82614,-0.7037 -19.30917,-4.65481 -9.16517,-3.81868 -21.18862,-14.8701 -28.56641,-23.22461 -6.64615,-7.52604 -14.38109,-21.80456 -15.64843,-24.17383 -0.18721,-2.37908 1.63941,-3.73252 2.80132,-3.38155 2.39782,5.83646 9.81093,23.40325 24.38529,36.18199 8.72764,7.65235 19.75399,14.10713 33.13666,16.51988 1.28151,0.23104 1.81231,0.14745 3.18166,0.20123 z m -65.36581,-50.19391 c 1.99651,3.72084 9.04413,16.52768 15.61523,23.96875 7.53692,8.53471 19.47802,19.71139 29.48047,23.8789 9.22156,3.84217 14.66682,5.02913 20.3605,4.78919 l -1.67111,19.27527 -0.4493,0.35776 c -2.17221,0.0568 -9.01248,-0.69976 -12.43931,-1.9144 -13.27398,-4.70499 -29.26015,-13.04482 -44.19005,-26.50288 -6.00964,-5.41719 -11.23501,-14.55109 -14.59901,-20.13775 -3.81597,-8.26931 -2.25406,-11.90259 -1.91406,-13.55859 3.03985,-3.02041 6.69066,-6.95449 9.80664,-10.15625 z m 83.37695,34.46289 c 3.40135,0.17362 7.19883,3.00223 10.50196,4.4707 10.63461,4.73067 19.85778,12.18915 31.09375,15.81445 9.48797,3.06 43.60865,18.04289 50.50195,25.63086 5.13197,5.64933 10.78207,42.52178 13.19141,61.26172 0.63863,5.392 0.82226,36.20703 0.82226,36.20703 L 370.13086,366.7832 c -0.64933,-15.30527 -1.44531,-30.8164 -1.44531,-30.8164 -1.2,9.9053 -1.74655,26.28882 -3.17188,30.13281 l -88.5039,-3.25391 -116.00618,-0.13476 c 0,0 -0.4972,-5.0385 -0.46289,-8.25391 4.76715,-2.75429 12.15382,-7.63427 18.06672,-11.69726 17.30299,-11.88958 35.65501,-25.89998 50.9099,-37.08075 15.25489,-11.18077 36.65214,-31.57249 36.65214,-31.57249 l 0.98903,-21.73874 c 0,0 3.2243,-1.60606 5.02879,-3.04508 1.82052,-1.4518 3.29914,-4.28072 4.42991,-6.68013 1.13077,-2.39941 1.14062,-4.73633 1.14062,-4.73633 z"
       sodipodi:nodetypes="cssssccssccczsccccccccccccccccccccccccscccccsscccsccccsscccccsscscsczcccccccccsccccczczccssccsscccsccccsscccccccccccccccszccsccc" /><path
       d="m 153.36983,364.20779 c -14.48934,1.07867 -13.59443,-0.006 -20.24243,0.63698 l -7.42021,1.16182 c 0,0 1.7051,10.65724 3.58559,33.99341 h 19.88169 c -0.0222,-22.69333 1.33314,-26.38932 3.43666,-30.17784"
       style="opacity:0.199997;fill:#000000;fill-opacity:1;fill-rule:nonzero;stroke:none;stroke-width:1.33333"
       id="path172192"
       sodipodi:nodetypes="cccccc" /><path
       style="color:#000000;fill:#000000;-inkscape-stroke:none"
       d="m 272.13492,260.0356 c -0.43568,1.86709 -1.32327,3.98541 -2.1176,5.13984 -0.76251,1.10819 -1.78318,2.54927 -3.03515,3.84255 -1.28722,1.32971 -2.28594,2.7849 -2.28594,2.7849 l 0.80257,2.07139 c 0,0 1.92823,-1.84932 3.10928,-3.34977 1.18106,-1.50045 2.42146,-3.69939 3.15833,-5.23491 0.73912,-1.5402 1.22544,-3.5742 1.62031,-6.08648 0.30647,-1.94984 -0.0949,-4.04936 -0.0949,-4.04936 0,0 -0.7212,3.01474 -1.15688,4.88184 z"
       id="path11"
       sodipodi:nodetypes="sssccssscs" /><g
       id="g15"><path
         style="color:#000000;fill:#a6a6a6;stroke-width:0.913966;stroke-miterlimit:40;-inkscape-stroke:none"
         d="m 322.45991,394.18881 13.65899,-42.96978 15.15091,41.29461 c 0,0 -5.72514,-8.65272 -11.18302,-9.17301 -3.86588,-0.36852 -17.62688,10.84818 -17.62688,10.84818 z"
         id="path14"
         sodipodi:nodetypes="cccsc" /><path
         style="color:#000000;fill:#000000;stroke-width:0.913966;stroke-miterlimit:40;-inkscape-stroke:none"
         d="m 336.09342,347.96428 -16.25172,49.34023 c 2.98367,-2.78441 6.3346,-5.05677 9.55348,-7.56396 3.25751,-2.5373 7.78274,-4.88311 10.72337,-4.83694 2.49538,0.0392 4.96571,2.01337 7.21484,4.30867 2.24914,2.29529 3.84303,4.5316 3.84303,4.5316 l 2.54996,3.21807 z m 0.20314,7.42215 11.65429,31.09162 c -2.35866,-2.37863 -4.69645,-4.12788 -7.90904,-4.43413 -2.90748,-0.27716 -7.72388,2.1453 -15.67803,8.45735 z"
         id="path15"
         sodipodi:nodetypes="ccssscccccscc" /></g></g><g
     inkscape:groupmode="layer"
     id="layer2"
     inkscape:label="Bolian Ridge"
     style="display:none"
     sodipodi:insensitive="true"><path
       style="display:inline;fill:none;stroke:#000000;stroke-width:0.8;stroke-linecap:butt;stroke-linejoin:miter;stroke-dasharray:none;stroke-opacity:1"
       d="m 260.11976,248.62275 23.2919,-42.7347"
       id="path1746"
       sodipodi:nodetypes="cc" /><path
       style="color:#000000;display:inline;fill:#000000;fill-opacity:0.2;-inkscape-stroke:none"
       d="m 280.56961,203.94359 -23.46249,43.15852 1.7902,0.83818 23.12351,-42.81954 z"
       id="path1748"
       sodipodi:nodetypes="ccccc" /></g></svg>
