<?xml version="1.0" encoding="UTF-8" standalone="no"?>
<!-- Created with Inkscape (http://www.inkscape.org/) -->

<svg
   version="1.1"
   id="svg282014"
   width="400"
   height="400"
   viewBox="0 0 400 400"
   sodipodi:docname="lowerDecksFemale.svg"
   inkscape:version="1.3.2 (091e20e, 2023-11-25)"
   xml:space="preserve"
   xmlns:inkscape="http://www.inkscape.org/namespaces/inkscape"
   xmlns:sodipodi="http://sodipodi.sourceforge.net/DTD/sodipodi-0.dtd"
   xmlns="http://www.w3.org/2000/svg"
   xmlns:svg="http://www.w3.org/2000/svg"><defs
     id="defs282018" /><sodipodi:namedview
     id="namedview282016"
     pagecolor="#ffffff"
     bordercolor="#666666"
     borderopacity="1.0"
     inkscape:showpageshadow="2"
     inkscape:pageopacity="0.0"
     inkscape:pagecheckerboard="0"
     inkscape:deskcolor="#d1d1d1"
     showgrid="false"
     inkscape:zoom="2.3175"
     inkscape:cx="200"
     inkscape:cy="200"
     inkscape:window-width="1848"
     inkscape:window-height="1140"
     inkscape:window-x="2320"
     inkscape:window-y="60"
     inkscape:window-maximized="0"
     inkscape:current-layer="g282022"><inkscape:page
       x="0"
       y="0"
       id="page282020"
       width="400"
       height="400"
       margin="0"
       bleed="0" /></sodipodi:namedview><g
     inkscape:groupmode="layer"
     id="layer3"
     inkscape:label="Neck"
     style="display:none"
     sodipodi:insensitive="true"><path
       d="m 213.63253,151.29441 -5.49067,30.848 -9.21193,18.45217 c 0,0 13.57993,22.69982 22.61726,29.33716 9.03734,6.636 24.148,15.816 35.02134,17.228 l 3.67066,0.60693 2.82534,0.23973 5.224,-2.25866 1.832,-12.39334 13.08133,-27.18533 z"
       style="fill:#cd976d;fill-opacity:1;fill-rule:nonzero;stroke:none;stroke-width:1.33333"
       id="path283414"
       sodipodi:nodetypes="ccccccccccc" /><path
       d="m 199.16985,199.75598 c 0,0 11.14568,18.87824 18.74974,25.74882 16.89748,4.64849 35.91739,5.03279 53.5,5.14934 l 11.78267,-24.48534 -69.56933,-54.87466 -5.69867,31.472 z"
       style="opacity:0.199997;fill:#000000;fill-opacity:1;fill-rule:nonzero;stroke:none;stroke-width:1.33333"
       id="path283424"
       sodipodi:nodetypes="ccccccc" /><path
       d="m 211.64493,149.52841 c -1.01067,4.99733 -2.99139,25.24509 -4.128,30.15333 -1.11614,3.58085 -2.42213,8.10992 -4.32571,11.82632 -1.90358,3.7164 -2.7377,5.49633 -4.27987,8.42311 l 2.35504,3.10823 c 4.22257,-7.93797 7.1452,-15.38433 8.95587,-21.62566 1.29067,-4.45067 3.76533,-24.06133 5.256,-28.47867 l -3.83333,-3.40666"
       style="fill:#000000;fill-opacity:1;fill-rule:nonzero;stroke:none;stroke-width:1.33333"
       id="path283434"
       sodipodi:nodetypes="cczccccc" /><path
       d="m 285.86613,207.63814 c -2.232,2.508 -11.62934,23.48 -13.308,26.58266 -1.36534,2.52267 -2.372,12.41734 -5.128,12.788 -1.86267,0.25067 -2.084,-3.988 -1.828,-5.81866 0.124,-0.87467 14.504,-36.10934 14.504,-36.10934 0,0 5.76,2.55734 5.76,2.55734"
       style="fill:#000000;fill-opacity:1;fill-rule:nonzero;stroke:none;stroke-width:1.33333"
       id="path283438" /></g><g
     id="g282022"
     inkscape:groupmode="layer"
     inkscape:label="Page 1"><path
       id="path283350"
       style="fill:#2d2d2d;fill-opacity:1;fill-rule:nonzero;stroke:none;stroke-width:1.33333"
       d="m 193.9401,200.47645 c -3.26592,5.30656 -3.86687,7.52052 -6.56272,13.19047 -3.22718,5.3122 -3.53337,7.27532 -5.56488,10.79597 -14.34652,6.44948 -26.45648,10.66799 -50.14844,24.25195 -16.34717,4.40719 -36.791883,9.01532 -54.478513,19.41797 -3.369327,1.98133 -12.234867,6.10028 -15.736328,8.22657 -9.936666,13.29954 -9.372148,20.97017 -15.105469,36.71679 -0.656341,2.91272 -1.567847,6.39777 -3.566406,12.57227 -4.402761,16.19092 -7.37106,25.52686 -8.900391,40.02148 -0.958665,5.632 -0.927688,10.68979 -1.84375,18.00196 -0.31846,4.11345 -0.340612,11.04731 -0.964844,14.3789 0.552134,0.0642 1.23003,0.87839 1.951172,1.94922 h 50.462891 c 3.704218,-1.52068 7.373483,-3.13398 10.964844,-4.92773 4.298661,-2.148 11.447034,-7.69372 15.484374,-10.34571 2.42665,-1.59467 8.65333,-10.53464 11.228,-10.8253 0.009,-10e-4 77.2308,-5.16981 153.07864,-3.60048 28.86837,0.13315 50.12357,1.80596 80.4336,3.70703 0,0 14.14131,-0.11406 22.84765,3.25 0.97066,-10.13864 3.42392,-26.38969 1.14258,-34.06836 -1.22133,-4.10531 -3.55415,-13.66092 -4.77149,-17.76757 -6.20398,-24.60529 -15.37622,-42.72444 -34.79101,-53.43555 -12.89138,-3.90462 -24.5865,-9.43601 -36.99219,-10.875 -5.24832,-0.67437 -13.24175,-7.73496 -17.09375,-9.26563 l -8.25586,-6.82617 -0.37734,-2.0694 -5.86427,-7.46576 -2.91365,9.11949 -4.30926,2.33409 -2.99251,0.52494 -3.73242,-0.30273 c -10.87331,-1.412 -25.98222,-10.59121 -35.01953,-17.22852 -10.19471,-8.2966 -21.0909,-18.16971 -27.60873,-29.45519 z"
       sodipodi:nodetypes="cccccccccccccccsccccccccccccccccc" /><path
       id="path9"
       style="fill:#d30000;fill-opacity:1;stroke:none;stroke-width:1px;stroke-linecap:butt;stroke-linejoin:miter;stroke-opacity:1"
       d="m 193.78921,199.52782 -2.88551,5.39513 3.11914,5.37304 16.54943,17.08682 c 0,0 10.39919,10.22617 11.95898,10.7461 1.5598,0.51993 10.74414,6.23828 10.74414,6.23828 l 21.49023,6.93359 2.06055,0.0684 -0.32617,21.94141 -38.47461,31.02343 -36.39648,24.26368 -35.875,23.22265 8.83984,25.30274 9.18555,-0.86524 -7.62696,-21.83789 33.96875,-21.83789 34.31641,-24.43555 31.71484,-25.99609 7.79883,-9.18555 0.66211,-21.34179 0.72461,0.0234 8.14649,-5.19921 0.79017,-6.34268 -2.77343,-2.94727 -1.30971,4.61026 -3.4668,4.67969 -6.75977,0.69335 -10.74414,-1.90624 -17.85156,-7.2793 -14.79223,-10.58652 -15.44665,-16.0335 z"
       sodipodi:nodetypes="ccccsccccccccccccccccccccccccccc" /><path
       d="m 31.482052,395.28734 c 0.446666,2.49334 1.180614,2.08466 1.540614,4.67933 h 20.166666 c 0.196,-3.43334 -0.168,-7.00134 -0.09067,-10.296 0.142667,-6.028 1.809568,-11.8813 2.717568,-17.83597 1.664043,-10.89316 4.390792,-21.53944 8.717099,-31.40937 5.682623,-10.91971 7.04473,-14.96286 12.227828,-24.25379 8.061621,-9.83474 8.681112,-10.66445 17.276729,-16.04664 9.830784,-5.05831 15.433984,-7.8084 26.708774,-12.5209 12.06134,-4.93733 26.01867,-8.93733 38.75867,-12.128 2.82667,-0.80533 5.532,-1.54666 8.11733,-2.22666 28.43467,-7.48134 48.85975,-10.78844 48.85975,-10.78844 0,0 -11.6028,-5.51607 -20.87346,-16.6534 -3.08933,-3.71334 -5.02725,-4.512 -7.25392,-8.99734 -2.228,-4.484 -3.54315,-5.33167 -8.02103,-10.32829 -6.75333,2.5483 -26.119,9.03784 -47.707,21.33251 -18.69995,5.86575 -35.845712,11.49837 -55.441672,20.31762 -6.939001,2.88838 -12.359196,4.7333 -15.263196,7.33997 -9.815593,11.6216 -13.675677,21.85662 -18.57202,40.35778 -3.949413,17.25627 -7.765364,34.88594 -9.352248,49.71932 -1.108,6.50533 -0.995824,8.39911 -2.471784,17.39312 0.117676,5.33145 -0.859554,8.65545 -0.283552,11.86611"
       style="opacity:0.199997;fill:#000000;fill-opacity:1;fill-rule:nonzero;stroke:none;stroke-width:1.33333"
       id="path283392"
       sodipodi:nodetypes="cccccccccccccccccccccc" /><path
       d="m 383.91919,399.96653 c -0.144,-0.856 -0.384,-1.68666 -0.64133,-2.34666 -0.696,-1.77734 -2.25467,-3.46 -3.18534,-5.13067 -0.88666,-1.59467 -1.816,-3.20667 -2.61466,-4.83067 -1.45734,-2.968 -2.89867,-6.17733 -1.188,-9.324 l -4.61028,-3.63741 c -17.46003,-0.9856 -29.02072,-0.93838 -44.68407,-2.18062 -2.87733,-0.17734 -12.31788,-0.35067 -15.58455,-0.51467 -9.8,-0.49333 -23.19569,-1.6513 -37.41836,-1.94597 -75.85333,-1.56933 -154.23074,4.12032 -154.23074,4.12032 C 103.61678,385.47373 98.23261,392.09496 80.469944,400 Z"
       style="fill:#d30000;fill-opacity:1;fill-rule:nonzero;stroke:none;stroke-width:1.33333"
       id="path283402"
       sodipodi:nodetypes="ccccccsccccc" /><path
       d="m 185.98384,374.61422 c 4.165,0.11825 9.37049,-0.33021 13.63628,0.46587 5.35114,0.99893 11.1576,3.48471 16.46882,5.04406 4.78206,1.40428 9.8433,3.21797 14.70576,3.81087 5.31438,0.64975 9.52107,2.82334 14.73519,4.27857 8.86004,2.47375 17.57384,5.11811 26.38839,7.12639 8.8994,2.02671 15.32186,6.07193 23.5853,-0.0867 3.8796,-2.89107 7.55753,-6.47747 11.51138,-9.44646 4.63124,-3.47797 9.43718,-5.21695 14.92112,-6.87533 2.22129,-0.67189 4.4549,-1.30743 6.66518,-2.01433 0.88439,-0.28302 6.27602,-3.46082 7.11522,-3.27959 -7.42572,-1.59537 -31.31966,-1.93473 -39.13446,-3.26236 -9.80472,-1.66426 -18.98766,-1.78492 -28.94872,-1.84228 -11.48271,-0.0672 -22.97561,1.25782 -34.46783,1.47844 -11.79255,0.2281 -23.60484,-0.63412 -35.38747,-0.66185 -3.44381,-0.008 -9.12331,-0.76455 -11.68277,1.05955 -4.32659,3.08379 1.00405,3.77134 -0.11139,4.2052"
       style="opacity:0.199997;fill:#000000;fill-opacity:1;fill-rule:nonzero;stroke:none;stroke-width:1.33333"
       id="path283492"
       sodipodi:nodetypes="ccccccccccccccccc" /><path
       id="path3"
       style="fill:#ecfcfe;fill-opacity:1;stroke:none;stroke-width:1px;stroke-linecap:butt;stroke-linejoin:miter;stroke-opacity:1"
       d="M 276.94922 367.07227 L 161.21484 369.09766 L 165.68945 381.1875 L 281.80273 379.20312 L 376.08398 385.0957 L 370.88477 372.27148 L 276.94922 367.07227 z M 119.23828 367.41797 L 97.574219 381.62891 L 66.376953 400 L 88.214844 400 L 119.06445 382.32227 L 119.13086 376.67969 L 119.58398 381.97656 L 156.14258 381.35156 L 151.4707 369.26758 L 119.21094 369.83203 L 119.23828 367.41797 z " /><path
       d="m 371.32146,366.88627 c -3,-6.6 -2.29913,-15.55053 -3.72046,-22.6332 -1.616,-8.052 -2.56261,-17.8694 -3.73194,-26.01207 -1.67467,-11.66667 -6.91897,-34.14933 -7.3683,-35.172 -0.94533,-2.14667 -4.50854,-3.80279 -6.1952,-5.43213 3.7804,11.63467 6.86863,23.93613 9.1033,35.48946 1.26267,6.528 2.13347,13.71074 3.0308,20.32941 1.07867,7.948 1.6371,14.54643 1.61274,23.00523 2.072,8.768 12.31572,35.10796 14.59172,43.5053 h 5.984 c -1.748,-8.07734 -9.2323,-23.98064 -14.83096,-36.29797"
       style="fill:#000000;fill-opacity:1;fill-rule:nonzero;stroke:none;stroke-width:1.33333"
       id="path283586"
       sodipodi:nodetypes="cccccsccccc" /><path
       d="m 199.85386,247.78521 c -2.956,-2.45467 -5.49586,-4.13921 -8.94786,-7.61521 -9.57334,-13.50887 -9.34583,-15.04355 -2.8718,-28.34578 3.66086,-7.52199 5.20108,-10.80481 5.20108,-10.80481 l 0.97584,1.78557 c 5.80024,13.03798 12.25575,19.18633 20.59975,27.41033 7.41067,7.304 12.15646,13.59603 24.79779,16.75603 4.20667,1.052 3.568,11.54666 3.352,13.924 -0.216,2.37733 -9.13063,10.73787 -23.27996,0.78187"
       style="display:inline;opacity:0.199997;fill:#000000;fill-opacity:1;fill-rule:nonzero;stroke:none;stroke-width:1.33333"
       id="path283456"
       sodipodi:nodetypes="ccsccccsc" /><path
       style="color:#000000;fill:#000000;fill-opacity:1;-inkscape-stroke:none"
       d="m 273.29708,260.57482 c -0.56721,2.13587 -2.36717,5.38928 -3.73067,7.19471 -1.32355,1.75253 -4.65235,3.81445 -4.65235,3.81445 l -0.0184,2.84527 c 0,0 4.47979,-3.08893 6.26642,-5.45464 1.74668,-2.3128 3.18139,-5.26437 3.46197,-7.97278 0.2617,-2.52614 -0.62056,-6.14923 -0.62056,-6.14923 0,0 -0.16388,3.67915 -0.70641,5.72222 z"
       id="path10"
       sodipodi:nodetypes="ssccsscs" /><path
       id="path11"
       style="fill:#000000;fill-opacity:0.2;stroke:none;stroke-width:1px;stroke-linecap:butt;stroke-linejoin:miter;stroke-opacity:1"
       d="m 256.98438,246.81445 -2.81836,0.49024 -1.4502,25.83203 c 0,0 -28.16782,22.43797 -46.82324,35.5293 -18.65542,13.09131 -64.99024,42.28711 -64.99024,42.2871 l 7.66211,19.89258 c -12.1414,0.57384 -23.61745,-0.17728 -29.22656,0.39258 l 0.10742,1.98438 c 0,0 0.25597,4.72793 0.47266,26.77734 h 24.39844 c 0.78556,-18.04348 1.62546,-22.2444 5.38476,-26.19922 L 159.79297,400 h 2.59961 l -10.3125,-28.43555 c 0.36676,-0.32165 0.75007,-0.65371 1.15625,-1.00586 -0.49504,0.0387 -0.98969,0.0701 -1.48438,0.10352 l -6.51757,-17.97461 47.48632,-30.33008 28.59766,-20.62304 34.85156,-28.59766 z"
       sodipodi:nodetypes="cccsccccccccccccccccc" /><path
       id="path283442"
       style="fill:#000000;fill-opacity:1;fill-rule:nonzero;stroke:none;stroke-width:1.33333"
       d="m 192.51172,198.10742 c -0.26366,0.0623 -0.51022,0.19709 -0.71289,0.39844 -3.49637,8.38745 -5.92801,14.53505 -9.89063,23.34961 -0.531,1.18118 -4.56224,2.45161 -5.6289,3.09961 -1.47333,0.896 -4.02844,2.26358 -8.73438,4.4082 -4.70588,2.14462 -12.46309,6.3618 -21.5957,10.50195 -9.13261,4.1402 -17.97779,6.15144 -29.99024,10.17188 -12.01239,4.02044 -39.269561,15.33508 -51.14648,20.48633 -1.801454,1.21501 -3.931008,1.84123 -5.560547,3.04101 -15.771579,29.05 -24.623226,71.03074 -28.144531,97.73828 -1.286846,11.8077 -1.337818,18.41267 -1.617188,28.14063 -0.03067,0.17466 -0.07629,0.34877 -0.126953,0.52344 h 4.427735 c -0.464966,-3.51134 6.201488,-88.23435 29.824218,-121.20508 2.249766,-0.30739 10.651903,0.27721 15.021485,3.86133 3.130034,2.81099 8.891039,8.71814 11.429687,11.38476 -3.599324,-6.23419 -6.747702,-10.29858 -11.697265,-14.91601 -5.483177,-3.3559 -7.511425,-4.20862 -11.900391,-3.90821 6.410476,-3.26282 36.20189,-15.30403 43.25781,-17.86718 7.05597,-2.5632 20.61949,-5.91788 28.88086,-8.82032 8.26136,-2.90239 12.88737,-5.68053 18.28516,-8.47461 5.39775,-2.79402 12.36903,-6.38708 15.81836,-8.39257 3.44929,-2.00553 6.79756,-3.53584 8.02148,-4.13868 0.62847,0.85738 2.00201,3.31328 2.94531,4.73829 3.73657,5.64453 8.08255,11.16383 12.43165,15.91992 4.34904,4.75603 11.87998,9.70344 15.9746,12.52344 7.89657,5.55319 20.31193,9.46961 25.61719,10.52343 2.62612,0.78984 13.56129,2.4791 16.72852,2.34571 -2.86165,2.3266 -35.17439,28.56201 -50.08594,38.91796 -15.67646,10.88721 -30.40853,19.1883 -40.3418,25.62305 -6.56032,4.24978 -14.91216,9.55146 -20.75586,13.49805 l 5.91407,15.83594 c -8.571,0.27956 -17.14164,0.57138 -25.71289,0.76171 0,0 -4.50294,-18.8254 -5.74024,-21.71875 -1.2373,-2.89332 -3.353,-10.86995 -7.67383,-19.1914 -1.62365,-3.12928 -3.32539,-6.20459 -5.05664,-9.06446 -1.73275,-2.86098 -3.48925,-5.5069 -5.216794,-7.76757 0,0 1.962634,4.5119 4.289064,10.875 1.16395,3.18208 2.41191,6.82329 3.54297,10.59179 1.12973,3.76873 2.14262,7.66535 2.83008,11.35157 0.99185,7.65366 2.93936,20.13349 3.46874,23.51562 -5.41676,3.79926 -17.00482,11.86794 -23.494136,15.97266 C 81.362281,388.4566 60.792969,400 60.792969,400 h 8.927734 c 0,0 15.65284,-8.83773 23.392578,-13.68945 6.792627,-4.25805 16.882709,-11.10566 21.554689,-14.28711 0.38629,2.69211 0.86047,5.70422 1.38086,9.05664 -3.72678,2.40917 -10.54261,6.79824 -15.36719,9.7168 C 95.419528,393.9801 84.548828,400 84.548828,400 h 7.851563 c 0,0 7.090657,-3.89388 10.830079,-6.13672 4.23552,-2.54041 9.61453,-5.70808 13.4707,-7.97461 0.59681,4.53786 1.0816,9.30236 1.01367,14.11133 h 5.29297 c -0.14005,-4.7715 -0.23632,-11.00448 -0.33203,-16.11328 2.34963,-0.0801 16.12374,-0.51197 32.26563,-0.99219 L 161.33008,400 h 3.68359 l -17.26758,-47.58203 c 0.8676,-0.58449 8.55569,-5.77051 17.88868,-11.81641 9.78404,-6.33808 24.60728,-14.69598 40.41992,-25.67773 17.85439,-12.87253 35.03512,-26.66239 52.10937,-40.54688 l 0.33399,-25.86328 c 1.68477,0.0321 3.194,-0.21507 5.98242,-0.76758 4.26403,-0.84491 6.07368,-4.29686 6.52539,-8.09179 0.10183,-0.85552 1.15793,0.14889 2.19531,1.72851 -0.0416,0.43273 -0.0576,0.37685 -0.0937,0.88672 -0.12,1.69262 -1.37465,4.77267 -1.75976,5.15625 -0.64538,0.64281 -2.02553,1.97317 -3.59375,2.63672 -1.00262,0.42423 -3.26967,0.59208 -5.45257,0.8163 -0.0171,8.00904 -0.23959,19.70063 -0.60276,22.85981 -0.30439,0.37363 -3.33911,4.03714 -11.73178,11.42936 -9.57486,8.43347 -29.67625,24.36845 -45.45899,35.87695 -16.41763,11.63824 -33.29551,22.6261 -50.30469,33.37891 L 171.13867,400 h 2.82031 l -6.3457,-17.46094 c 36.58421,-1.03641 85.08958,-2.19731 110.33594,-1.68359 42.48008,0.86439 97.25781,5.88476 97.25781,5.88476 l 0.24805,-2.69726 c 2.20603,2.70722 2.63325,0.70799 2.47265,-0.57422 -0.55333,-4.432 0.90163,-8.86737 1.54297,-11.08203 1.44266,-4.98267 2.10133,-9.23405 2.36133,-14.49805 0.588,-11.89994 -1.70703,-21.89414 -4.20703,-33.46875 -0.57333,-2.65466 -1.24238,-5.28733 -2.01172,-7.88867 -2.724,-9.22127 -6.71754,-18.02427 -11.88281,-26.04687 -2.75932,-4.28569 -7.75657,-11.55379 -9.57813,-13.17383 -15.4335,-6.77411 -37.40393,-13.58585 -54.74609,-17.56446 -7.14602,-5.82464 -12.73919,-9.59987 -20.99805,-14.09961 -2.23387,-1.17021 -1.65189,-2.9827 -1.66406,-3.7207 -0.0754,-3.05964 -1.86884,-3.88732 -4.35547,-5.84961 -1.64843,-1.30084 -2.76491,-2.17746 -4.55273,-3.57617 0.0183,0.7426 -0.0633,1.25674 -0.10742,1.74609 -0.28213,3.12911 -0.50401,4.27155 -0.80664,6.00977 -0.46114,2.64849 -1.40231,3.80035 -3.52344,4.73828 -2.4215,1.07074 -6.19468,0.31545 -8.65039,0.0508 -34.7829,-6.32631 -60.24462,-44.34653 -60.03711,-44.82031 l 0.37304,-1.94727 c -0.86662,-0.0907 -1.417,-0.12618 -1.79296,-0.14062 z m 0.5332,4.91406 c 0,0 4.02149,5.53386 9.8418,12.21875 5.73383,6.58561 10.25918,11.4094 16.45117,16.51172 8.54948,7.04497 15.43792,10.33008 24.22852,13.55274 3.85279,1.41349 7.86984,2.32709 11.93359,2.89648 l -0.0195,1.5586 c -2.15467,-0.35966 -6.27735,-1.09379 -8.39063,-1.79102 -8.04431,-2.65408 -16.02306,-5.8201 -22.83593,-10.55273 -7.28674,-5.06182 -14.49226,-11.32483 -20.52735,-18.07813 -3.61789,-4.04847 -9.94648,-12.43719 -11.43359,-14.41406 0.20492,-0.5374 0.5834,-1.45122 0.75195,-1.90235 z m -1.85547,4.68946 c 1.62641,2.10847 7.0968,9.17696 10.70899,13.32422 6.07258,6.97212 12.96619,13.51321 20.64258,18.8457 7.19765,4.99992 15.4534,8.24658 23.60937,10.9375 2.75862,0.91015 7.31739,1.67604 9.29102,1.98437 l -0.25782,20.12696 c -0.0217,0.0177 -0.50849,0.40957 -0.56445,0.45508 -1.24728,-0.25029 -14.17123,-2.85621 -21.44726,-5.39258 -7.63044,-2.65996 -25.06945,-13.94238 -29.19532,-17.50781 -4.12588,-3.56541 -10.26108,-10.19472 -12.70508,-13.24805 -2.44398,-3.05196 -5.94171,-9.21606 -7.62304,-12.10938 2.38398,-4.5222 5.32881,-11.76059 7.54101,-17.41601 z m 88.66016,42.24023 c 0.31288,0.19006 4.92759,3.13141 7.94727,5.30274 3.12133,2.24441 7.50313,7.1096 10.50781,8.13671 16.65055,3.90377 26.9573,7.00348 42.03515,11.86329 7.90376,2.674 10.66778,4.65816 14.37696,9.11718 3.53976,4.2897 7.9378,12.971 11.8164,21.57227 3.29334,7.30527 5.71201,15.03104 7.13868,22.95898 1.14661,4.17067 2.12559,8.37328 2.93359,12.58789 0.048,0.25333 0.0909,0.50902 0.13086,0.76368 0.62934,4.01994 0.71003,8.15484 0.80469,12.21484 0.0427,1.83733 0.0668,3.67439 0.0508,5.51172 -0.0466,3.68898 -0.60493,7.34199 -1.55078,10.93359 -0.40666,1.48134 -0.97051,3.00511 -1.20118,4.53711 -0.31083,2.05399 -1.02417,5.05023 -0.23632,7.22266 -2.75567,-0.25087 -54.96835,-4.96984 -96.57227,-5.81641 -25.78933,-0.52475 -75.19844,0.66847 -111.85937,1.71485 l -2.60352,-7.16407 c 0.66879,-0.0169 1.35483,-0.0332 1.9043,-0.0527 34.14915,-1.2195 69.25855,-2.76156 104.50586,-1.5625 33.52234,1.14038 71.01925,5.21242 102.01562,7.10351 -1.18126,-6.07185 -0.41998,-4.0656 -2.25,-4.68359 -12.64116,-1.37501 -27.61492,-2.67005 -39.99219,-3.49805 -16.56121,-1.10667 -34.96792,-3.65258 -52.47851,-3.95312 -6.41005,-0.11002 -12.82073,-0.15668 -19.23047,-0.15234 -32.02402,0.0216 -64.04511,1.31669 -96.06641,2.42187 l -4.13281,-11.37305 c 1.73048,-1.09712 32.94119,-20.89405 48.43164,-32.18945 15.8467,-11.55516 35.92021,-27.63241 45.56619,-36.46929 1.78774,-1.63778 9.77842,-8.47353 13.19944,-12.7436 0.13818,-7.15979 0.363,-14.24935 0.58291,-21.20313 0,0 1.77135,-0.1795 2.90732,-0.66015 1.55768,-0.65908 4.53788,-3.43165 5.83385,-4.59047 -0.14819,0.8977 -1.57496,3.62837 -1.77916,4.34047 -0.65467,2.28 -0.29619,4.54214 -0.49219,6.85547 -0.19333,2.27066 0.13581,3.42978 1.00781,5.64843 1.46533,-4.40799 0.53489,-9.62037 2.71367,-14.14073 0.5454,-1.13158 0.96718,-2.50983 1.51154,-2.36944 0.54436,0.14038 2.24503,1.64609 2.52282,1.81483 z m -129.06641,121.81055 2.67774,7.16797 c -15.44209,0.4628 -28.53768,0.87735 -30.86719,0.95703 -0.006,-0.24467 -0.016,-0.83334 -0.0215,-1.04883 -0.11004,-4.34798 -0.1698,-2.27053 -0.25,-5.93359 7.8108,-0.60516 18.33001,-0.88562 28.46093,-1.14258 z"
       sodipodi:nodetypes="ccscssscccccccccccssssccscccsscccscccccccsccsccsccsccccccccssccsscsssccscccccscccccscsccccsccssccccccsscccsssccccsscccssccccsccccccccccccscccscccssccssccscccccscscccccsc" /><g
       id="g10"><path
         style="color:#000000;fill:#a6a6a6;stroke-width:0.913966;stroke-miterlimit:40;-inkscape-stroke:none"
         d="m 323.74498,394.67901 9.14268,-42.96978 19.49115,41.29461 c 0,0 -6.63457,-8.65272 -12.14714,-9.17301 -3.90461,-0.36852 -16.48669,10.84818 -16.48669,10.84818 z"
         id="path14"
         sodipodi:nodetypes="cccsc" /><path
         style="color:#000000;fill:#000000;stroke-width:0.913966;stroke-miterlimit:40;-inkscape-stroke:none"
         d="m 332.5201,348.45448 -11.06586,49.34023 c 2.69102,-2.78441 5.80312,-5.05677 8.75848,-7.56396 2.99083,-2.5373 7.2695,-4.88311 10.21499,-4.83694 2.4995,0.0392 5.17732,2.01337 7.6677,4.30867 2.49038,2.29529 4.31932,4.5316 4.31932,4.5316 l 3.75474,3.91131 z m 0.98324,7.42215 14.92215,31.09162 c -2.60867,-2.37863 -5.13031,-4.12788 -8.37509,-4.43413 -2.93661,-0.27716 -7.4984,2.1453 -14.78913,8.45735 z"
         id="path15"
         sodipodi:nodetypes="ccssscccccscc" /></g></g></svg>
