<?xml version="1.0" encoding="UTF-8" standalone="no"?>
<!-- Created with Inkscape (http://www.inkscape.org/) -->

<svg
   version="1.1"
   id="svg4319"
   width="400"
   height="400"
   viewBox="0 0 400 400"
   sodipodi:docname="enterpriseAverageFemale.svg"
   inkscape:version="1.2.2 (b0a8486, 2022-12-01)"
   xmlns:inkscape="http://www.inkscape.org/namespaces/inkscape"
   xmlns:sodipodi="http://sodipodi.sourceforge.net/DTD/sodipodi-0.dtd"
   xmlns="http://www.w3.org/2000/svg"
   xmlns:svg="http://www.w3.org/2000/svg">
  <defs
     id="defs4323" />
  <sodipodi:namedview
     id="namedview4321"
     pagecolor="#ffffff"
     bordercolor="#666666"
     borderopacity="1.0"
     inkscape:showpageshadow="2"
     inkscape:pageopacity="0.0"
     inkscape:pagecheckerboard="0"
     inkscape:deskcolor="#d1d1d1"
     showgrid="false"
     inkscape:zoom="2.15"
     inkscape:cx="199.76744"
     inkscape:cy="200"
     inkscape:window-width="1920"
     inkscape:window-height="1080"
     inkscape:window-x="2338"
     inkscape:window-y="160"
     inkscape:window-maximized="0"
     inkscape:current-layer="g4327">
    <inkscape:page
       x="0"
       y="0"
       id="page4325"
       width="400"
       height="400" />
  </sodipodi:namedview>
  <g
     inkscape:groupmode="layer"
     id="layer1"
     inkscape:label="Neck">
    <path
       d="m 213.63253,151.29441 -5.49067,30.848 -7.176,16.536 c 0,0 11.544,24.61599 20.58133,31.25333 9.03734,6.636 24.148,15.816 35.02134,17.228 l 3.67066,3.67066 2.82534,-2.824 5.224,-2.25866 1.832,-12.39334 13.08133,-27.18533 z"
       style="fill:#cd976d;fill-opacity:1;fill-rule:nonzero;stroke:none;stroke-width:1.33333"
       id="path21507" />
    <path
       d="m 200.96626,198.67814 c 0,0 11.984,21.33333 16.95333,26.82666 4.96934,5.492 32.69467,1.83067 40.54134,4.18534 6.34,1.90133 10.816,0.91466 12.95866,0.964 l 11.78267,-24.48534 -69.56933,-54.87466 -5.69867,31.472 z"
       style="opacity:0.199997;fill:#000000;fill-opacity:1;fill-rule:nonzero;stroke:none;stroke-width:1.33333"
       id="path21517" />
    <path
       d="m 285.86613,207.63814 c -2.232,2.508 -11.62934,23.48 -13.308,26.58266 -1.36534,2.52267 -2.372,12.41734 -5.128,12.788 -1.86267,0.25067 -2.084,-3.988 -1.828,-5.81866 0.124,-0.87467 14.504,-36.10934 14.504,-36.10934 0,0 5.76,2.55734 5.76,2.55734"
       style="fill:#000000;fill-opacity:1;fill-rule:nonzero;stroke:none;stroke-width:1.33333"
       id="path21527" />
    <path
       d="m 211.64493,149.52841 c -1.01067,4.99733 -3.35067,25.12533 -4.128,30.15333 -0.51734,3.34133 -1.74934,6.54133 -3.84667,10.988 -1.13333,2.404 -2.55733,3.41333 -3.16,5.17867 -0.20133,0.58933 -1.02533,1.72933 -0.948,2.348 0.0213,0.172 0.85733,2.48266 1.184,2.07999 3.96,-4.87733 7.66533,-12.62133 9.476,-18.86266 1.29067,-4.45067 3.76533,-24.06133 5.256,-28.47867 0,0 -3.83333,-3.40666 -3.83333,-3.40666"
       style="fill:#000000;fill-opacity:1;fill-rule:nonzero;stroke:none;stroke-width:1.33333"
       id="path21531" />
  </g>
  <g
     id="g4327"
     inkscape:groupmode="layer"
     inkscape:label="Page 1">
    <path
       d="M 274.87986,337.10187 C 268.25853,326.4552 249.83853,297.1832 241.12119,283.33654 l -0.52666,-40.17334 c 2.12133,0.43334 4.416,0.83467 7.09733,1.24 3.084,0.468 5.83867,0.792 8.41333,0.988 0.43067,0.0333 0.86534,0.052 1.296,0.0693 2.23467,0.0947 3.55334,0.21466 4.48134,1.58533 0,0 1.56666,2.31467 1.596,2.35867 -1.14,-1.68534 5.65866,-5.88667 6.384,-6.588 1.564,-1.51067 2.69333,-0.644 3.204,1.3 0.39866,1.51733 0.39066,3.09333 0.90666,4.55066 0.648,1.828 1.98134,3.34267 2.71734,5.13334 0.89466,2.18133 1.23066,4.54533 1.87466,6.65066 1.11734,3.65734 1.00667,8.03067 1.19867,11.936 0.144,2.944 0.75467,5.64667 0.47467,8.592 -0.26667,2.82 -0.512,5.64134 -0.77067,8.46267 -0.54,5.88533 -1.084,11.76933 -1.63733,17.65333 -0.88667,9.45067 -1.756,18.90534 -2.76934,28.344 -0.06,0.55467 -0.12,1.10933 -0.18133,1.66267"
       style="fill:#1f1f1f;fill-opacity:1;fill-rule:nonzero;stroke:none;stroke-width:1.33333"
       id="path21535" />
    <path
       d="m 261.86173,257.1536 c 0,2.528 -2.04934,4.57734 -4.57734,4.57734 -2.528,0 -4.57733,-2.04934 -4.57733,-4.57734 0,-2.528 2.04933,-4.57733 4.57733,-4.57733 2.528,0 4.57734,2.04933 4.57734,4.57733"
       style="fill:#000000;fill-opacity:1;fill-rule:nonzero;stroke:none;stroke-width:1.33333"
       id="path21539" />
    <path
       d="m 260.13653,257.1536 c 0,1.57467 -1.27734,2.852 -2.852,2.852 -1.576,0 -2.852,-1.27733 -2.852,-2.852 0,-1.57466 1.276,-2.852 2.852,-2.852 1.57466,0 2.852,1.27734 2.852,2.852"
       style="fill:#382e53;fill-opacity:1;fill-rule:nonzero;stroke:none;stroke-width:1.33333"
       id="path21543" />
    <path
       d="m 267.15506,292.90027 c 0,2.528 -2.04933,4.57733 -4.57733,4.57733 -2.528,0 -4.57734,-2.04933 -4.57734,-4.57733 0,-2.528 2.04934,-4.57733 4.57734,-4.57733 2.528,0 4.57733,2.04933 4.57733,4.57733"
       style="fill:#000000;fill-opacity:1;fill-rule:nonzero;stroke:none;stroke-width:1.33333"
       id="path21547" />
    <path
       d="m 265.42999,292.90027 c 0,1.57467 -1.27733,2.852 -2.852,2.852 -1.576,0 -2.852,-1.27733 -2.852,-2.852 0,-1.57467 1.276,-2.852 2.852,-2.852 1.57467,0 2.852,1.27733 2.852,2.852"
       style="fill:#382e53;fill-opacity:1;fill-rule:nonzero;stroke:none;stroke-width:1.33333"
       id="path21551" />
    <path
       d="m 274.31546,335.17947 c -0.36,-0.80134 -32.23067,-51.15467 -32.23067,-51.15467 0,0 -0.76266,-39.58666 -0.76266,-39.58666 0.007,0.40133 8.68933,1.69733 9.288,1.788 4.27733,0.65466 9.45733,-0.0267 11.416,5.00266 0.928,2.38667 1.81066,5.632 2.36533,7.95334 -0.548,-2.292 -0.484,-5.136 -0.36667,-7.43334 0.084,-1.632 0.316,-3.31066 1.748,-4.312 1.31334,-0.91733 5.06934,-2.692 6.436,-1.57466 1.22134,0.99733 1.47467,3.88666 1.55867,5.54533 0.21733,4.34667 0.488,8.404 1.45867,12.38133 1.352,5.53467 2.45466,10.83867 4.22266,16.27867 0,0 -4.77333,55.91466 -5.13333,55.112 m -5.12,-92.70133 c -0.19067,0.40133 -0.436,0.80133 -0.78267,1.26266 -0.41466,0.10534 -5.888,1.63734 -5.27866,2.53467 -1.70534,-2.51333 -4.40534,-2.152 -6.99067,-2.34133 -2.80667,-0.20667 -5.58,-0.548 -8.31467,-0.95334 -2.92,-0.43466 -5.812,-0.928 -8.64266,-1.548 l 0.58133,42.144 c 0,0 35.69467,56.796 36.09467,57.65467 0.40133,0.86 6.152,-61.93333 6.152,-61.93333 0.16666,-1.83467 -1.71867,-5.10134 -2.29467,-6.80667 -1.432,-4.24533 -1.10533,-8.25333 -1.15867,-12.74533 -0.0693,-5.79867 -2.61066,-11.46534 -4.04,-16.86667 -0.284,-1.07867 -1.708,-6.58933 -3.55733,-5.81867 -0.76533,0.32 -0.93067,2.65734 -1.1,3.33734 -0.21067,0.844 -0.376,1.46266 -0.668,2.08"
       style="fill:#000000;fill-opacity:1;fill-rule:nonzero;stroke:none;stroke-width:1.33333"
       id="path21555" />
    <path
       d="m 30.958933,399.98827 c 0.456,-3.86667 -0.481334,-8.71467 -1.390667,-12.10134 -0.24,-0.89466 -0.481333,-1.79333 -0.698667,-2.70266 -0.42,-1.768 -0.921333,-3.476 -1.405333,-5.12934 -0.964,-3.28933 -1.874667,-6.39733 -2.214667,-9.956 -1.189333,-12.44533 1.934667,-28.51866 9.553333,-49.13733 1.290667,-3.49333 2.708,-6.93066 4.214667,-10.22 5.884,-13.768 15.822666,-27.13466 27.998666,-37.66933 2.733333,-2.36533 5.690667,-4.748 8.789333,-7.08267 0.429333,-0.32266 0.988,-0.59333 1.581333,-0.88 0.337334,-0.164 0.670667,-0.32533 0.982667,-0.496 0.948,-0.51866 1.894667,-1.04 2.84,-1.56266 6.130666,-3.39334 12.610666,-6.25867 18.877332,-9.03067 4.96,-2.19333 10.088,-4.46133 15.03867,-6.98667 8.17333,-4.16933 15.86,-9.224 23.29333,-14.11333 2.37867,-1.56533 4.75067,-3.12533 7.12667,-4.64933 0.71466,-0.45734 1.43466,-0.90667 2.15866,-1.34667 4.90134,-2.976 10.11067,-5.64933 15.14667,-8.23467 l 2.25067,-1.156 c 2.832,-1.46 5.86933,-3.044 8.88133,-4.73066 1.624,-0.91067 3.1,-1.77067 4.51333,-2.62934 l 0.45467,-0.28266 c 0.49333,-0.312 0.96133,-0.60667 1.412,-0.75467 0.168,-0.056 0.35333,-0.0787 0.62,-0.0787 0.152,0 0.304,0.007 0.45467,0.0133 0.19066,0.008 0.38266,0.016 0.57466,0.016 0.29467,0 0.592,-0.0173 0.89467,-0.0707 2.948,-0.52267 5.53467,-3.46267 7.61333,-5.82533 0.47734,-0.54134 0.92134,-1.048 1.328,-1.47067 l 0.784,-0.82 c 2.18,-2.27733 4.42934,-4.62933 6.87067,-6.65333 0.352,0.21333 0.98133,0.82267 1.12533,1.116 1.98,7.21466 6.29467,15.23466 13.16267,24.43466 5.18133,6.944 10.23333,11.02134 16.70533,15.34667 2.01733,1.34667 4.51333,2.004 6.92667,2.63867 3.90933,1.02933 7.28533,1.91733 8.13333,5.31733 0.704,2.82 0.456,4.99733 0.14133,7.752 -0.0773,0.68667 -0.15866,1.39467 -0.22666,2.14133 -0.212,2.30534 -0.452,4.604 -0.69067,6.9 -0.336,3.23067 -0.684,6.572 -0.94667,9.88 -0.52933,6.66 2.76134,13.308 5.66534,19.172 0.66666,1.34667 1.32,2.66534 1.91066,3.95067 1.89867,4.12933 4.06667,8.21733 6.16134,12.17067 2.57466,4.856 5.23733,9.87733 7.388,14.95866 1.288,2.99734 2.86533,5.62934 4.39066,8.17467 0.676,1.12667 1.356,2.26133 2.01867,3.43867 l 2.32267,-1.30934 c -0.308,-0.80666 0.28933,-4.76266 0.51333,-6.252 0.108,-0.712 0.196,-1.30266 0.232,-1.66266 0.74,-7.40134 0.72,-14.92134 0.70133,-22.192 -0.0293,-11.07067 -0.0587,-22.51867 2.63334,-33.56 l 0.43333,-1.77867 c 0,0 -1.84533,0.13333 -1.85467,0.13333 -0.288,0 -0.34266,-0.0547 -0.372,-0.084 -0.496,-0.50266 -0.47066,-2.46933 -0.45733,-3.52533 0.009,-0.65733 0.0173,-1.28 -0.04,-1.788 -0.244,-2.16133 -0.57467,-4.33067 -0.89333,-6.42933 -0.54934,-3.608 -1.11734,-7.34 -1.236,-11.03734 -0.0213,-0.68266 -0.12534,-1.56266 -0.24667,-2.58 -0.29067,-2.44933 -0.832,-7.00933 0.388,-8.14533 0.48533,-0.452 0.96667,-0.68 1.43067,-0.68 0.6,0 1.272,0.39067 1.89333,1.10267 0.91867,1.052 1.85333,2.41066 2.63467,3.82666 0.252,0.45734 0.49466,0.916 0.736,1.37067 1.37466,2.59333 2.79733,5.276 5.624,7.11333 2.68133,1.74267 5.84133,2.54667 8.848,3.22 3.052,0.68534 6.12266,1.47334 9.124,2.34267 1.50666,0.436 3.00933,0.89067 4.49866,1.37733 0.53067,0.17467 1.056,0.49467 1.61334,0.83334 0.484,0.296 0.984,0.60133 1.552,0.85466 0.80533,0.36 1.63066,0.67334 2.456,0.98667 l 2.20533,0.852 c 2.33333,0.90267 4.74533,1.836 7,2.95333 4.996,2.476 9.808,5.61867 14.46133,8.65734 l 2.28,1.48533 c 8.828,5.72667 16.272,13.408 22.75867,23.484 5.06666,7.86667 9.012,16.51467 11.72666,25.70133 0.748,2.53334 1.416,5.15467 1.98534,7.792 l 0.3,1.38267 c 2.38,10.99466 4.43466,20.49066 3.88,31.73866 -0.264,5.32 -0.932,9.432 -2.31067,14.192 l -0.132,0.452 c -0.57867,1.96934 -1.54667,5.26534 -1.57067,8.82667 l -10e-4,0.28267 0.11333,0.26 c 3.288,7.52133 5.288,14.16666 6.33734,18.152 z"
       style="fill:#382e53;fill-opacity:1;fill-rule:nonzero;stroke:none;stroke-width:1.33333"
       id="path21559" />
    <path
       d="m 343.10092,400.02293 c 0,0 -12.08533,-54.46133 -14.92399,-64.14 l 4.39066,-0.26133 c 0,0 10.11733,39.02933 15.24133,64.40133 z"
       style="fill:#000000;fill-opacity:1;fill-rule:nonzero;stroke:none;stroke-width:1.33333"
       id="path21563" />
    <path
       d="m 330.64106,347.4116 -2.48533,-10.75467 5.03066,-0.096 2.48533,10.756 z"
       style="fill:#dfdfdf;fill-opacity:1;fill-rule:nonzero;stroke:none;stroke-width:1.33333"
       id="path21567" />
    <path
       d="m 334.58279,346.18027 -1.95333,-8.452 -3.38533,0.064 1.95333,8.452 z m -4.33333,1.736 -2.71467,-11.74534 6.04267,-0.11466 2.71466,11.74666 z"
       style="fill:#000000;fill-opacity:1;fill-rule:nonzero;stroke:none;stroke-width:1.33333"
       id="path21571" />
    <path
       d="m 325.06106,399.96653 h 3.29867 c -1.61867,-8.96 -7.10267,-38.684 -8.828,-45.21733 -1.93867,-7.34267 -4.64934,-28.85333 -4.64934,-28.85333 0,0 16.76534,2.08 21.66,2.692 4.89467,0.612 19.94667,5.01733 19.94667,5.01733 l -0.73334,-2.56933 c 0,0 -4.528,-1.59067 -5.26266,-1.71333 -0.73467,-0.12267 -22.884,-5.01734 -22.884,-5.01734 0,0 -15.73467,-3.064 -16.25067,-0.79733 -0.516,2.268 3.93067,27.59733 5.04134,31.88 0.944,3.63866 6.89066,35.16133 8.66133,44.57866"
       style="opacity:0.199997;fill:#000000;fill-opacity:1;fill-rule:nonzero;stroke:none;stroke-width:1.33333"
       id="path21581" />
    <path
       d="m 246.69119,288.5408 c 4.708,12.816 14.648,33.74134 17.524,38.44934 2.87734,4.708 5.49334,12.03199 0.524,9.15466 -4.96933,-2.87733 -19.87866,-15.432 -22.756,-16.47866 -2.87733,-1.04534 22.87734,22.27733 25.63334,25.63333 2.75466,3.356 2.35333,7.06266 2.35333,7.06266 h 2.87733 c 0,0 4.63867,31.84267 2.40667,47.604 h 23.372 c -4.588,-7.792 -13.29867,-23.416 -14.25867,-34.00266 -1.28133,-14.12534 -4.71866,-18.30934 -0.0107,-25.11067 4.708,-6.8 13.6,-28.772 5.75333,-19.87866 -7.84667,8.89333 -12.032,6.80133 -8.892,1.56933 3.13867,-5.23067 -1.56933,-48.65067 0,-54.404 1.56933,-5.75467 4.44533,-17.00133 4.44533,-17.00133 0,0 -2.61466,4.96933 -5.23066,4.96933 -2.616,0 -1.308,-11.50933 -2.092,-15.432 -0.78534,-3.924 -5.78267,-6.45467 -5.78267,-6.45467 l 0.028,8.808 2.616,11.77067 0.31867,6.60933 1.77333,3.592 -0.78533,10.2 -2.144,62.28133 -18.78,-34.55599 -14.648,-34.00267 3.844,-9.03067 0.776,-16.792 c 0,0 -1.74267,0.18934 -3.312,5.42134 -1.56934,5.23066 -1.56934,14.90933 -6.016,14.124 -4.44667,-0.784 -8.63067,-1.04667 -8.63067,-1.04667 l 5.23067,7.324 c 0,0 9.15466,6.80133 13.86266,19.61733"
       style="opacity:0.199997;fill:#000000;fill-opacity:1;fill-rule:nonzero;stroke:none;stroke-width:1.33333"
       id="path21597" />
    <path
       d="m 268.18853,267.422 c 2.268,0.65734 0.82666,4.18534 0.78133,5.68934 -0.38,12.74133 0.46133,25.60533 1.996,38.24933 0.82133,6.76933 1.88933,13.508 3.204,20.19867 -1.48267,0.296 -2.964,0.592 -4.44533,0.888 -0.0853,-6.52667 0.092,-13.05867 -0.36934,-19.576 -0.46133,-6.51734 -1.34933,-13 -1.63866,-19.52934 -0.0147,-0.32533 -0.028,-0.652 -0.0387,-0.97866 -0.20267,-5.80667 0.0933,-11.7 -1.33733,-17.384 -0.30534,-1.21467 -0.64534,-3.588 -1.876,-4.272 -1.97067,-1.09467 -10.184,-2.73734 -10.184,-2.73734 0,0 10.51333,0.656 10.07466,-1.53333 -0.43733,-2.19067 -0.43733,-8.54267 -0.43733,-8.54267 0,0 2.736,9.08534 4.27067,9.528"
       style="opacity:0.199997;fill:#000000;fill-opacity:1;fill-rule:nonzero;stroke:none;stroke-width:1.33333"
       id="path21613" />
    <path
       d="m 270.78559,332.43974 c 0,0 10.03334,49.72666 10.868,67.54799 h 3.82534 c 0,0 -8.96267,-60.64933 -10.664,-68.69866 l -1.94267,1.15067 z"
       style="fill:#000000;fill-opacity:1;fill-rule:nonzero;stroke:none;stroke-width:1.33333"
       id="path21623" />
    <path
       d="m 27.572933,385.4928 c 0.58,2.43867 1.336,8.55467 1.786666,14.496 h 4.674667 c 0.01733,-4.07333 -0.02267,-7.74 -0.05067,-8.33333 -0.16,-3.42934 -0.912,-6.92267 -1.581333,-10.27067 -2.224,-11.12667 -2.66,-24.15867 -0.422667,-35.284 0.832,-4.14 1.74,-8.26267 2.706667,-12.37067 1.682666,-7.15199 4.025333,-14.75333 7.357333,-21.22666 0.162667,-0.316 0.326667,-0.63067 0.493333,-0.94267 3.290667,-6.168 7.242667,-12.12666 11.069333,-17.93066 3.302667,-5.012 6.749333,-10.07467 11.205333,-14.14667 4.5,-4.112 10.281333,-6.828 15.324,-10.24 5.122667,-3.46667 10.301333,-6.59867 15.862666,-9.408 4.201339,-2.12133 8.477339,-3.96933 12.770669,-5.872 9.084,-4.028 17.376,-9.204 25.468,-14.79867 5.792,-4.004 13.55867,-8.52666 19.34,-12.54266 4.116,-2.85734 8.376,-5.508 12.75867,-7.93734 4.384,-2.428 9.01866,-4.31066 13.37066,-6.80133 3.044,-1.74267 4.64267,-1.25867 7.58934,-3.38 3.78266,-2.72133 6.104,-7.09333 9.92666,-9.668 0.68667,-0.46266 0.46267,-0.65733 1.37067,-0.38533 1.22,0.36533 2.17733,2.908 2.808,4.008 1.23466,2.15333 2.45733,4.312 3.68266,6.46933 2.484,4.37467 4.94,8.768 7.5,13.09867 3.03067,5.13066 7.17067,8.32266 13.732,11.76266 6.56134,3.44134 11.16,6.50934 15.84667,7.74934 2.40533,0.636 1.20133,6.82266 1.04667,9.47466 -0.292,4.95867 -1.34134,11.06134 -3.524,15.55867 -1.16267,-0.46 -8.23734,-2.40133 -8.50934,-3.536 0.784,3.27867 5.01867,6.37067 7.03334,8.41467 5.12666,5.204 7.576,12.56666 10.49333,19.10133 3.24267,7.264 6.99867,14.484 9.79067,21.93067 4.25466,9.52666 9.684,18.52666 13.58133,28.20666 0.13867,0.344 0.24933,0.72933 0.42533,1.056 0.224,0.41333 0.612,0.68 1.048,0.788 h 0.80267 c 0.66,-0.17733 1.148,-0.74 1.20533,-1.428 0.56534,-7.824 1.13067,-15.64666 1.696,-23.46933 0.46934,-6.492 0.93734,-12.98267 1.40667,-19.47333 0.48933,-6.776 -0.31867,-13.62134 -0.31867,-20.476 0,-2.256 -0.06,-4.52267 0.20534,-6.76934 0.12933,-1.09066 0.352,-2.14266 0.66533,-3.192 0.236,-0.792 0.35333,-1.628 0.68533,-2.404 1.08934,-2.56 3.356,-4.79466 3.14,-7.884 -0.412,0.648 -1.164,1.13867 -1.736,1.63067 -0.86133,0.73867 -1.77333,1.348 -2.66666,2.044 -0.372,0.292 -1.04534,0.93067 -1.472,0.556 -0.34667,-0.30667 -0.46934,-1.58667 -0.61734,-2.056 -0.23333,-0.73333 -0.24133,-1.57333 -0.24933,-2.33467 -0.0147,-1.39733 0.21467,-2.78266 0.21467,-4.17733 10e-4,-2.63467 0.188,-5.11067 -0.352,-7.66933 -0.54934,-2.596 -2.276,-5.72 -1.47867,-8.416 1.30267,-4.40934 6.57867,5.552 7.36667,6.508 3.924,4.75866 10.85333,4.89866 16.44133,6.88266 2.36667,0.84 4.832,0.992 7.18,1.98134 3.57867,1.50666 7.072,3.24533 10.64133,4.78133 6.808,2.92933 13.48667,6.26267 19.69467,10.39867 3.112,2.072 6.104,4.34666 8.888,6.872 2.628,2.384 4.50666,5.04133 6.71733,7.708 5.96933,7.19333 11.04667,15.19466 14.92533,23.79733 3.29334,7.30533 5.712,15.03067 7.13867,22.96 2.252,8.188 3.91067,16.392 3.99067,24.92133 0.036,3.77733 -0.19067,7.556 -0.68267,11.30133 -0.46133,3.524 -1.616,6.85467 -2.14133,10.32267 -0.364,2.408 -1.29334,6.112 0.3,8.264 2.54266,3.42933 2.96,1.108 2.79066,-0.244 -0.55333,-4.432 0.89867,-8.868 1.54134,-11.08267 1.44266,-4.98266 2.10133,-9.23333 2.36133,-14.496 0.588,-11.90133 -1.70667,-21.89466 -4.20667,-33.47066 -0.57333,-2.65467 -1.24266,-5.28667 -2.012,-7.88667 -2.72533,-9.22266 -6.71733,-18.024 -11.884,-26.04666 -6.21866,-9.66 -13.62933,-17.70267 -23.152,-23.88 -5.528,-3.58534 -11.00133,-7.308 -16.87733,-10.22 -2.70666,-1.34134 -5.544,-2.38934 -8.356,-3.48534 -1.12,-0.43733 -2.25466,-0.83733 -3.352,-1.328 -1.148,-0.51333 -2.11066,-1.35066 -3.296,-1.73733 -1.504,-0.492 -3.02133,-0.952 -4.54266,-1.392 -3.04134,-0.88133 -6.11067,-1.66933 -9.20134,-2.36267 -2.87066,-0.64266 -5.89466,-1.39866 -8.41466,-3.03733 -2.99867,-1.948 -4.25467,-4.992 -5.91867,-8.01067 -0.76933,-1.39466 -1.75067,-2.85866 -2.79733,-4.05866 -1.512,-1.732 -3.45334,-2.184 -5.23734,-0.52267 -2.23733,2.08533 -0.64933,9.072 -0.564,11.744 0.18934,5.93467 1.47334,11.69867 2.136,17.57333 0.21734,1.92934 -0.70133,6.79867 2.32,6.57867 -4.50133,18.46133 -1.50133,37.29467 -3.36533,55.93467 -0.15467,1.536 -1.30933,7.408 -0.58,8.70266 -2.18,-3.87066 -4.54,-7.284 -6.344,-11.47866 -3.924,-9.276 -9.34667,-17.99334 -13.56533,-27.16667 -3.15467,-6.86267 -8.07467,-14.70133 -7.45734,-22.46 0.44534,-5.60133 1.11867,-11.15733 1.63467,-16.764 0.344,-3.74533 1,-6.536 0.052,-10.33867 -1.63733,-6.56266 -10.60133,-5.392 -15.61333,-8.74133 -6.81734,-4.55733 -11.48667,-8.48 -16.37867,-15.03467 -5.22667,-7.00266 -10.61867,-15.524 -12.97333,-24.07333 -0.188,-0.684 -2.124,-2.612 -2.94267,-1.94533 -2.908,2.36667 -5.46666,5.11467 -8.056,7.81466 -2.06,2.148 -5.09066,6.35334 -8.212,6.90534 -0.924,0.164 -1.78666,-0.14134 -2.72666,0.16666 -0.76934,0.252 -1.45734,0.74934 -2.144,1.16534 -1.47467,0.896 -2.96667,1.76133 -4.472,2.60533 -2.91334,1.632 -5.872,3.17867 -8.84,4.708 -5.88667,3.032 -11.816,5.99867 -17.48,9.43733 -0.73334,0.44667 -1.46267,0.9 -2.18667,1.364 -9.85467,6.32134 -19.61467,13.24534 -30.30533,18.69734 -11.17867,5.70133 -22.916005,9.928 -33.954672,16.03733 -0.944,0.52267 -1.888,1.04267 -2.834666,1.56 -0.876,0.47867 -1.925334,0.87867 -2.726667,1.48133 -3.037333,2.288 -5.997333,4.66267 -8.86,7.13867 -11.449333,9.90667 -21.966666,23.212 -28.337332,38.12267 -1.532,3.34266 -2.954667,6.79466 -4.254667,10.31333 -5.425333,14.688 -11.154666,33.768 -9.629333,49.72533 0.530667,5.55733 2.425333,10.12 3.650667,15.268"
       style="fill:#000000;fill-opacity:1;fill-rule:nonzero;stroke:none;stroke-width:1.33333"
       id="path21627" />
    <path
       d="m 370.35346,361.35093 c 0.13866,14.248 4.58133,26.12134 10.40666,29.09467 0.20534,-8.976 0.272,-18.84267 0.17067,-29.19733 -0.1,-10.35467 -0.35867,-20.21734 -0.73867,-29.188 -5.76533,3.08533 -9.97733,15.04266 -9.83866,29.29066"
       style="fill:#cfc6c1;fill-opacity:1;fill-rule:nonzero;stroke:none;stroke-width:1.33333"
       id="path21631" />
    <path
       d="m 371.93959,358.58707 0.0867,-1.54267 -0.48267,-0.16267 -0.096,1.72267 -0.376,-0.12667 0.14933,-2.676 2.02934,0.68534 -0.144,2.58933 -0.37734,-0.128 0.092,-1.636 -0.42133,-0.14267 -0.0867,1.544 z"
       style="fill:#000000;fill-opacity:1;fill-rule:nonzero;stroke:none;stroke-width:1.33333"
       id="path21635" />
    <path
       d="m 371.03239,359.72947 2.04667,-0.0453 0.0147,1.12 -0.74,0.89734 c -0.212,0.256 -0.464,0.51333 -0.69333,0.70666 v 0.0187 c 0.26933,-0.0693 0.54667,-0.0933 0.85333,-0.1 l 0.59734,-0.0133 0.0107,0.88 -2.04666,0.0453 -0.012,-1.00667 0.77866,-0.92266 c 0.216,-0.256 0.476,-0.53867 0.71334,-0.752 l -0.003,-0.0187 c -0.27067,0.032 -0.55867,0.0507 -0.89333,0.0573 l -0.616,0.0133 z"
       style="fill:#000000;fill-opacity:1;fill-rule:nonzero;stroke:none;stroke-width:1.33333"
       id="path21639" />
    <path
       d="m 372.85172,364.83813 -0.092,-1.12133 0.38267,-0.14933 0.26133,3.20933 -0.38133,0.14933 -0.0933,-1.14 -1.62934,0.63734 -0.0773,-0.948 z"
       style="fill:#000000;fill-opacity:1;fill-rule:nonzero;stroke:none;stroke-width:1.33333"
       id="path21643" />
    <path
       d="m 372.69532,370.41773 -0.21733,-1.484 -0.46,0.33867 0.24267,1.65867 -0.36,0.26533 -0.376,-2.57333 1.93866,-1.42934 0.364,2.48934 -0.36,0.264 -0.22933,-1.57334 -0.40267,0.29734 0.216,1.484 z"
       style="fill:#000000;fill-opacity:1;fill-rule:nonzero;stroke:none;stroke-width:1.33333"
       id="path21647" />
    <path
       d="m 373.31252,372.06013 0.0747,0.33867 c 0.0933,0.43067 0.252,0.568 0.412,0.388 0.168,-0.18933 0.19867,-0.52133 0.11467,-0.92 -0.0453,-0.20933 -0.08,-0.31867 -0.0987,-0.37467 z m 0.59734,-1.73866 c 0.0827,0.252 0.188,0.64666 0.28933,1.10533 0.124,0.56533 0.16933,1.00667 0.12667,1.39333 -0.0373,0.324 -0.13734,0.592 -0.304,0.78134 -0.23334,0.26266 -0.468,0.0973 -0.596,-0.16667 l -0.009,0.009 c 0.008,0.324 -0.0827,0.608 -0.228,0.89334 -0.18,0.35066 -0.392,0.73733 -0.44533,0.89066 l -0.19467,-0.88133 c 0.0387,-0.12133 0.16667,-0.37867 0.36667,-0.74533 0.20533,-0.35867 0.23067,-0.592 0.15733,-0.94534 l -0.0573,-0.26 -0.716,0.808 -0.188,-0.85333 z"
       style="fill:#000000;fill-opacity:1;fill-rule:nonzero;stroke:none;stroke-width:1.33333"
       id="path21651" />
    <path
       d="m 374.13412,375.55147 c 0.0133,0.08 0.036,0.16666 0.0707,0.28 0.12933,0.42 0.30933,0.51733 0.48,0.244 0.15333,-0.24534 0.17733,-0.61467 0.056,-1.008 -0.0493,-0.16134 -0.0893,-0.25867 -0.11467,-0.304 z m 0.51734,-1.99334 c 0.0933,0.212 0.21333,0.53067 0.36133,1.012 0.14933,0.48667 0.21067,0.90534 0.19333,1.28134 -0.016,0.35733 -0.108,0.72933 -0.272,0.99066 -0.16266,0.26134 -0.336,0.368 -0.49333,0.312 -0.204,-0.076 -0.38,-0.388 -0.524,-0.85466 -0.0307,-0.10267 -0.0573,-0.2 -0.0747,-0.28134 l -0.596,0.95334 -0.23866,-0.78267 z"
       style="fill:#000000;fill-opacity:1;fill-rule:nonzero;stroke:none;stroke-width:1.33333"
       id="path21655" />
    <path
       d="m 375.22226,378.53987 0.11466,0.27466 c 0.144,0.34934 0.312,0.37467 0.44134,0.0947 0.13466,-0.296 0.12266,-0.636 -0.008,-0.96267 -0.0707,-0.16933 -0.11734,-0.252 -0.14267,-0.292 z m 0.34533,-2.07334 c 0.11067,0.18667 0.26267,0.49334 0.416,0.864 0.19067,0.46 0.29067,0.852 0.3,1.25334 0.007,0.336 -0.0547,0.66 -0.18933,0.956 -0.188,0.40933 -0.43334,0.41066 -0.58934,0.244 l -0.007,0.0147 c 0.048,0.30534 0,0.63867 -0.10267,1.012 -0.12533,0.45867 -0.27733,0.97467 -0.30933,1.15734 l -0.29734,-0.716 c 0.02,-0.14 0.10934,-0.476 0.25334,-0.96267 0.148,-0.48267 0.144,-0.72533 0.028,-1.01467 l -0.088,-0.21066 -0.57734,1.26133 -0.288,-0.692 z"
       style="fill:#000000;fill-opacity:1;fill-rule:nonzero;stroke:none;stroke-width:1.33333"
       id="path21659" />
    <path
       d="m 377.06732,379.68907 -1.29733,3.58666 -0.324,-0.624 1.29867,-3.58533 z"
       style="fill:#000000;fill-opacity:1;fill-rule:nonzero;stroke:none;stroke-width:1.33333"
       id="path21663" />
    <path
       d="m 376.51426,383.25213 c 0.0587,0.26667 0.16933,0.60934 0.31733,0.83734 0.16133,0.24666 0.29333,0.20933 0.36667,-0.0453 0.0693,-0.244 0.036,-0.49466 -0.10267,-0.948 -0.192,-0.62 -0.25733,-1.236 -0.0947,-1.804 0.18934,-0.66533 0.55467,-0.83733 0.92,-0.27733 0.17334,0.268 0.276,0.55733 0.33734,0.80267 l -0.28,0.592 c -0.0413,-0.17067 -0.12,-0.44934 -0.27067,-0.68134 -0.152,-0.232 -0.27467,-0.17066 -0.332,0.032 -0.072,0.248 -0.016,0.492 0.12933,0.98934 0.2,0.67333 0.22534,1.22933 0.0693,1.78 -0.18667,0.65466 -0.54534,0.904 -0.96934,0.25333 -0.176,-0.27067 -0.31733,-0.65467 -0.36933,-0.91067 z"
       style="fill:#000000;fill-opacity:1;fill-rule:nonzero;stroke:none;stroke-width:1.33333"
       id="path21667" />
    <path
       d="m 379.06959,385.5972 -0.61333,-0.68533 -0.20534,1.004 0.68534,0.76533 -0.16,0.784 -1.064,-1.18667 0.864,-4.23066 1.02933,1.14933 -0.16,0.784 -0.652,-0.72667 -0.17867,0.87867 0.61334,0.68533 z"
       style="fill:#000000;fill-opacity:1;fill-rule:nonzero;stroke:none;stroke-width:1.33333"
       id="path21671" />
    <path
       d="m 373.31892,361.32213 c 0.10267,10.61867 3.30267,19.52934 7.56934,22.20267 0.1,-7.04 0.11866,-14.52133 0.0427,-22.276 -0.0747,-7.756 -0.23866,-15.236 -0.476,-22.272 -4.21333,2.756 -7.23866,11.72667 -7.136,22.34533"
       style="fill:#000086;fill-opacity:1;fill-rule:nonzero;stroke:none;stroke-width:1.33333"
       id="path21675" />
    <path
       d="m 380.77426,389.77147 c -5.67334,-2.944 -9.996,-14.52934 -10.13067,-28.424 -0.13467,-13.89467 3.96133,-25.56 9.57733,-28.61467 -0.0213,-0.512 -0.044,-1.02266 -0.0653,-1.52933 -5.95733,3.128 -10.31467,15.45466 -10.172,30.15066 0.14267,14.696 4.73867,26.936 10.756,29.948 0.012,-0.508 0.024,-1.01733 0.0347,-1.53066"
       style="fill:#d30000;fill-opacity:1;fill-rule:nonzero;stroke:none;stroke-width:1.33333"
       id="path21679" />
    <path
       d="m 379.82266,331.92747 c -5.84267,3.416 -9.95067,15.73333 -9.816,29.59333 0.13333,13.85867 4.48133,26.09467 10.38933,29.39733 l 0.016,-0.72266 0.005,10e-4 c -0.044,-0.78 -0.0307,-2.48133 10e-4,-6.30933 l 0.304,0.0253 -0.304,-0.0253 c 0.0267,-3.14134 0.0667,-6.996 0.10266,-10.452 0.0453,-4.38667 0.084,-8.176 0.0787,-8.96 -0.0347,-5.49734 -0.12,-11.068 -0.25067,-16.56 -0.13733,-5.724 -0.272,-10.87334 -0.524,-15.924 z m 1.084,60.68933 c -0.14934,0.0387 -0.30534,0.052 -0.45867,0.0427 -0.992,-0.0653 -2.03333,-1.30934 -2.68133,-1.98267 -0.81334,-0.84667 -1.54,-1.77467 -2.19734,-2.74667 -1.51466,-2.23866 -2.66933,-4.712 -3.596,-7.24666 -2.24933,-6.15067 -3.23066,-12.768 -3.37466,-19.29734 -0.052,-2.352 0.012,-4.70666 0.20266,-7.052 0.48534,-5.98533 1.71867,-12.14533 4.528,-17.504 1.08134,-2.06133 2.42934,-4.03333 4.17734,-5.58799 0.57066,-0.50667 1.75733,-1.73867 2.58,-1.42134 0.88666,0.34267 0.984,1.72934 1.036,2.52667 0.10266,1.612 0.192,3.22533 0.27466,4.83866 0.172,3.412 0.308,6.82667 0.44,10.24 0.22134,5.716 0.38667,11.51467 0.49067,17.23334 0.016,0.84266 0.0107,4.784 0.004,9.348 -0.005,3.58133 -0.0107,7.57466 -0.007,10.82933 10e-4,1.40533 0.004,2.81067 0.0133,4.216 0.007,1.12 -0.012,1.852 -0.70134,2.82667 -0.216,0.30533 -0.51466,0.44933 -0.73066,0.73733"
       style="fill:#000000;fill-opacity:1;fill-rule:nonzero;stroke:none;stroke-width:1.33333"
       id="path21683" />
    <path
       d="m 378.61386,375.338 c 0.005,0.56133 -0.188,1.01867 -0.432,1.02 -0.244,0.003 -0.44667,-0.45067 -0.452,-1.012 -0.005,-0.56 0.188,-1.01733 0.432,-1.02 0.244,-0.003 0.44666,0.45067 0.452,1.012"
       style="fill:#ffffff;fill-opacity:1;fill-rule:nonzero;stroke:none;stroke-width:1.33333"
       id="path21687" />
    <path
       d="m 376.00212,367.99547 c 0.005,0.56133 -0.188,1.01866 -0.432,1.02 -0.244,0.003 -0.44666,-0.45067 -0.452,-1.012 -0.005,-0.56 0.188,-1.01734 0.432,-1.02 0.244,-0.003 0.44667,0.45066 0.452,1.012"
       style="fill:#ffffff;fill-opacity:1;fill-rule:nonzero;stroke:none;stroke-width:1.33333"
       id="path21691" />
    <path
       d="m 375.48146,359.8704 c 0.005,0.56133 -0.188,1.01867 -0.432,1.02 -0.244,0.003 -0.44667,-0.45067 -0.452,-1.012 -0.005,-0.56 0.188,-1.01733 0.432,-1.02 0.244,-0.003 0.44666,0.45067 0.452,1.012"
       style="fill:#ffffff;fill-opacity:1;fill-rule:nonzero;stroke:none;stroke-width:1.33333"
       id="path21695" />
    <path
       d="m 376.71492,361.764 c 0.005,0.56133 -0.188,1.01867 -0.432,1.02 -0.244,0.003 -0.44666,-0.45067 -0.452,-1.012 -0.005,-0.56 0.188,-1.01733 0.432,-1.02 0.244,-0.003 0.44667,0.45067 0.452,1.012"
       style="fill:#ffffff;fill-opacity:1;fill-rule:nonzero;stroke:none;stroke-width:1.33333"
       id="path21699" />
    <path
       d="m 379.47559,356.02067 c 0.005,0.56133 -0.188,1.01866 -0.432,1.02 -0.244,0.003 -0.44667,-0.45067 -0.452,-1.012 -0.005,-0.56 0.188,-1.01734 0.432,-1.02 0.244,-0.003 0.44667,0.45066 0.452,1.012"
       style="fill:#ffffff;fill-opacity:1;fill-rule:nonzero;stroke:none;stroke-width:1.33333"
       id="path21703" />
    <path
       d="m 376.50692,351.7304 c 0.005,0.56133 -0.188,1.01867 -0.432,1.02 -0.244,0.003 -0.44666,-0.45067 -0.452,-1.012 -0.005,-0.56 0.188,-1.01733 0.432,-1.02 0.244,-0.003 0.44667,0.45067 0.452,1.012"
       style="fill:#ffffff;fill-opacity:1;fill-rule:nonzero;stroke:none;stroke-width:1.33333"
       id="path21707" />
    <path
       d="m 373.22572,347.42573 0.16534,1.77467 0.728,0.72 -0.68,0.88 -0.06,1.80133 -0.58667,-1.232 -0.764,0.39467 0.31733,-1.64133 -0.412,-1.55734 0.78267,0.21734 z"
       style="fill:#ffffff;fill-opacity:1;fill-rule:nonzero;stroke:none;stroke-width:1.33333"
       id="path21711" />
    <path
       d="m 374.89012,342.28533 -0.0253,1.80667 0.63467,1.09867 -0.756,0.47333 -0.248,1.70667 -0.44134,-1.51467 -0.78666,-0.044 0.48133,-1.40933 -0.23867,-1.73334 0.74134,0.644 z"
       style="fill:#ffffff;fill-opacity:1;fill-rule:nonzero;stroke:none;stroke-width:1.33333"
       id="path21715" />
    <path
       d="m 377.05226,338.24373 -0.21467,1.732 0.50267,1.41334 -0.78534,0.0373 -0.42133,1.51067 -0.272,-1.70934 -0.76133,-0.47866 0.61733,-1.09334 -0.0507,-1.808 0.65467,1.03334 z"
       style="fill:#ffffff;fill-opacity:1;fill-rule:nonzero;stroke:none;stroke-width:1.33333"
       id="path21719" />
    <path
       d="m 379.58426,335.54 -0.39067,1.55467 0.34133,1.644 -0.77066,-0.40134 -0.568,1.22667 -0.0853,-1.80267 -0.69333,-0.88533 0.71733,-0.71333 0.14134,-1.77334 0.528,1.36134 z"
       style="fill:#ffffff;fill-opacity:1;fill-rule:nonzero;stroke:none;stroke-width:1.33333"
       id="path21723" />
    <path
       d="m 371.32146,366.88627 c -2.49467,-5.48934 -5.49467,-10.24534 -8.28667,-15.52667 -2.124,-4.01733 -1.78,-8.176 -1.78,-12.468 0,-3.39333 0.26533,-6.628 0.26,-9.992 -0.85733,3.25467 -2.544,7.71333 -2.07733,11.33733 -1.91334,-5.37866 -1.792,-11.37866 -4.19867,-16.68533 -1.03733,5.32534 0.57067,10.47733 1.584,15.46933 0.964,4.74667 1.63067,9.83734 3.832,13.66934 4.304,7.488 6.46533,16.71333 9.632,24.79333 0.69733,1.77733 7.528,22.50533 8.35733,22.50533 h 5.984 c -1.748,-8.07733 -7.708,-20.78533 -13.30666,-33.10266"
       style="fill:#000000;fill-opacity:1;fill-rule:nonzero;stroke:none;stroke-width:1.33333"
       id="path21727" />
    <path
       d="m 129.20146,375.85933 c 0.84934,6.57067 1.51867,13.328 1.796,19.66534 0,1.44266 -0.0227,2.932 -0.064,4.44133 h 10.16267 c -2.04267,-9.36667 -4.74667,-20.496 -7.87067,-31.356 -1.612,-5.604 -3.33466,-11.136 -5.13466,-16.31333 -1.8,-5.17734 -3.66934,-9.99867 -5.56534,-14.168 0,0 1.82,7.99466 3.80534,19.18133 0.99333,5.59333 2.02133,11.97867 2.87066,18.54933"
       style="fill:#000000;fill-opacity:1;fill-rule:nonzero;stroke:none;stroke-width:1.33333"
       id="path21731" />
    <path
       d="m 76.597065,341.71813 c -4.229333,0 -8.282667,-0.34133 -12.213333,-1.128 -7.406667,-1.48133 -14.842667,-2.91866 -22.113333,-4.984 -3.226667,-0.91733 -6.42,-1.96533 -9.524,-3.23999 -1.002666,-0.41334 -2.949333,-0.84134 -3.412,-1.91867 -0.405333,-0.94267 0.258667,-2.448 0.530667,-3.35333 0.044,-0.14667 0.092,-0.29067 0.130667,-0.43867 0.256,-0.97733 0.462666,-3.46533 1.830666,-3.53067 0.972,-0.0467 2.933333,1.43334 3.896,1.83067 2.909333,1.20133 5.909333,2.17467 8.938667,3.02533 7.002666,1.968 14.163999,3.33867 21.291999,4.76534 13.105333,2.62133 28.810666,-0.49734 48.695995,-4.44267 10.116,-2.008 21.5,-3.832 34.19067,-6.09867 14.81733,-2.64666 29.79467,-4.20933 44.75733,-4.84 3.76667,-0.15866 7.53333,-0.256 11.29733,-0.288 1.53867,-0.012 3.07734,-0.0147 4.616,-0.003 1.03467,0.007 3.59734,0.564 4.04,-0.716 0.25067,-0.72667 -0.404,-2.492 -0.528,-3.25334 -0.392,-2.4 -0.78933,-4.8 -1.192,-7.19866 -0.91066,-5.428 -1.84666,-10.852 -2.81333,-16.268 -1.936,-10.84667 -3.04933,-15.25867 -5.45067,-26.42534 -1.24133,-5.77066 -2.48266,-10.64266 -5.19333,-16.524 -2.276,-4.93466 -6.28933,-9.79333 -9.94266,-14.22933 -4.49867,-5.46267 -9.17334,-10.14 -14.92534,-13.32667 -2.21466,-1.22666 -4.472,-2.64933 -6.816,-3.67066 -0.65066,-0.284 -0.98,-0.0493 -1.10933,-0.71467 -0.068,-0.35067 0.48267,-0.84267 0.692,-1.08 0.57333,-0.652 1.29067,-1.24267 2.028,-1.76533 0.62,-0.44 1.408,-1.02534 2.14667,-1.25067 2.54133,-0.77733 5.404,0.70933 7.49866,2.01867 1.54134,0.96266 3.08267,1.924 4.62267,2.88666 1.444,0.90134 3.04,1.712 4.33333,2.82534 4.72,4.064 11.81867,13.89866 15.99333,19.88666 1.78,2.552 3.47467,5.18934 4.71334,7.87734 6.09733,13.224 13.656,66.98666 14.808,74.392 0.17866,1.14666 0.73066,2.65866 0.592,3.80666 -0.23334,1.928 -3.53334,0.99734 -4.96934,0.91334 -0.312,-0.0187 -31.61599,-1.74534 -68.06399,4.76533 -12.46667,2.228 -23.75467,4.13866 -33.768,6.12666 -15.196,3.016 -28.054669,5.568 -39.609335,5.568"
       style="fill:#000000;fill-opacity:1;fill-rule:nonzero;stroke:none;stroke-width:1.33333"
       id="path21735" />
    <path
       d="m 76.783865,340.3848 c -4.334667,0 -8.244,-0.36133 -11.952,-1.10133 l -1.533333,-0.30667 c -6.764,-1.34933 -13.758667,-2.74533 -20.477333,-4.65333 -3.526667,-1.00267 -6.594667,-2.04667 -9.381333,-3.19067 -0.230667,-0.096 -0.508,-0.192 -0.808,-0.296 -0.514667,-0.17866 -1.72,-0.596 -1.886667,-0.91866 -0.128,-0.31334 0.252,-1.44 0.396,-1.864 0.06933,-0.208 0.136,-0.40267 0.188,-0.57734 0.07467,-0.244 0.110667,-0.36133 0.142667,-0.48133 0.05067,-0.19467 0.1,-0.44 0.154667,-0.712 0.08267,-0.41467 0.290666,-1.46133 0.537333,-1.80933 0.388,0.10933 1.296,0.644 1.801333,0.94133 0.522667,0.308 1.017333,0.6 1.434667,0.772 2.666666,1.10133 5.638666,2.108 9.086666,3.07733 6.412,1.80267 13.033333,3.12134 19.436,4.39733 l 1.954666,0.39067 c 3.342667,0.668 6.904,0.99333 10.889333,0.99333 10.938667,0 23.622669,-2.51733 38.309329,-5.43066 10.12934,-2.01067 21.492,-3.848 34.14,-6.108 14.29867,-2.55333 29.29467,-4.17467 44.57334,-4.81867 l 0.828,-0.0347 c 3.49733,-0.13867 7.00533,-0.224 10.42266,-0.252 1.532,-0.012 3.064,-0.0147 4.59467,-0.004 0.17866,10e-4 0.412,0.024 0.672,0.0467 0.5,0.044 1.12266,0.0987 1.72933,0.0747 1.97467,-0.0787 2.70533,-1.01067 2.97067,-1.77867 0.28666,-0.83066 0.0627,-1.82266 -0.28667,-3.13333 -0.0787,-0.3 -0.15333,-0.568 -0.18533,-0.76267 -0.392,-2.40133 -0.78934,-4.804 -1.192,-7.204 -0.912,-5.432 -1.848,-10.86 -2.81467,-16.28266 -1.85067,-10.36534 -2.93467,-14.492 -5.396,-25.93334 -0.23333,-1.08266 -0.45467,-2.18666 -0.67867,-3.304 -0.99733,-4.96933 -2.34533,-8.60666 -4.62799,-13.55733 -2.364,-5.12667 -6.492,-10.14 -10.13467,-14.564 -4.15867,-5.05067 -8.62533,-10.16 -15.292,-13.85333 -0.6,-0.332 -1.20267,-0.67867 -1.80933,-1.028 -1.58667,-0.91334 -3.22534,-1.856 -4.93867,-2.62134 l 0.0333,-0.0347 c 0.45334,-0.51467 1.06934,-1.05067 1.836,-1.59334 l 0.144,-0.10266 c 0.48667,-0.34667 1.152,-0.82134 1.62534,-0.96534 0.17733,-0.0547 0.35733,-0.084 0.55066,-0.092 0.77467,-0.0293 1.42534,0.0453 2.108,0.37734 1.67334,0.81733 3.376,1.424 4.92667,2.48933 3.76133,2.58533 7.68933,4.96933 10.90133,8.30667 3.164,3.28666 5.82,7.012 8.51467,10.68133 0.184,0.252 0.36933,0.50267 0.55333,0.75333 1.068,1.448 2.12,2.90667 3.148,4.38134 1.43867,2.06533 3.256,4.792 4.53867,7.57333 6.00133,13.01733 13.59466,67.132 14.744,74.51733 0.0627,0.4 0.16533,0.84 0.27333,1.29467 0.17067,0.72133 0.36267,1.53467 0.32133,2.08133 -0.0827,0.024 -0.22933,0.0533 -0.47066,0.0627 -0.572,0.0227 -1.288,-0.076 -1.92134,-0.164 -0.424,-0.0587 -0.812,-0.10933 -1.12133,-0.128 -0.088,-0.005 -9.452,-0.52533 -23.77466,0.044 -15.42667,0.61467 -30.43467,2.20933 -44.60934,4.74133 -12.50933,2.23467 -23.81066,4.132 -33.83866,6.12133 -14.988,2.97467 -27.926669,5.54267 -39.349335,5.54267"
       style="fill:#d30000;fill-opacity:1;fill-rule:nonzero;stroke:none;stroke-width:1.33333"
       id="path21739" />
    <path
       d="m 360.67452,332.2184 c -2.692,0 -4.99333,-0.344 -6.59333,-1.12266 -5.43067,-2.63867 -27.22266,-6.124 -39.49333,-7.12267 -0.916,-0.0733 -2.44533,0.0667 -3.22933,-0.46533 -0.97734,-0.66134 -0.792,-2.088 -0.89734,-2.94 -1.38933,-11.22934 -9.88133,-47.664 -19.81066,-69.61334 -1.012,-2.236 -2.468,-4.268 -3.988,-6.184 -0.34667,-0.43733 -4.07334,-3.96 -1.236,-3.45333 1.08133,0.19467 2.20666,0.524 3.24,0.79067 1.10666,0.28533 2.49333,0.40266 3.51466,0.924 0.77867,0.396 1.58134,0.97466 2.42534,1.452 2.65866,1.50533 3.65866,3.82133 4.804,6.552 1.34533,3.20533 2.57066,6.46133 3.70933,9.74533 2.27733,6.572 4.20267,13.25867 6.04267,19.96533 3.14133,11.44934 4.88533,17.16 7.136,27.26934 0.38133,1.70933 0.844,3.41333 1.252,5.12133 0.19466,0.81867 0.38133,1.63867 0.53733,2.46 0.0813,0.428 -0.003,1.612 0.38,1.90667 0.428,0.33066 2.49733,0.26133 3.07067,0.32133 1.20533,0.12533 2.40933,0.256 3.61333,0.392 5.74667,0.65333 11.5,1.428 17.21066,2.48 5.31067,0.97867 10.896,2.25867 15.604,4.28 2.70934,1.16267 7.52,-0.124 10.23067,-0.656 2.43867,-0.48 4.85067,-1.08667 7.19867,-1.83867 0.89466,-0.288 2.40933,-1.16266 3.092,-0.788 0.85333,0.46667 1.112,2.37734 1.29866,3.15067 0.228,0.944 0.816,2.5 0.12534,3.37867 -0.936,1.18933 -4.28934,1.62933 -5.77734,2.02 -4.34266,1.13866 -8.90933,1.97466 -13.46,1.97466"
       style="fill:#000000;fill-opacity:1;fill-rule:nonzero;stroke:none;stroke-width:1.33333"
       id="path21743" />
    <path
       d="m 360.67452,331.05174 c -2.57733,0 -4.63333,-0.33734 -5.94666,-0.97467 -6.772,-3.292 -33.98267,-6.68267 -37.03467,-6.96533 -1.08933,-0.10134 -2.13066,-0.192 -3.11466,-0.272 -0.25734,-0.0213 -0.55734,-0.028 -0.876,-0.0347 -0.31067,-0.005 -0.64534,-0.0107 -0.96667,-0.04 -0.44933,-0.0427 -0.58133,-0.112 -0.58667,-0.11467 -0.21733,-0.14666 -0.25866,-1.064 -0.27466,-1.40933 -0.0107,-0.24267 -0.0227,-0.472 -0.0467,-0.672 -1.396,-11.28267 -9.98,-48.09733 -19.96267,-70.164 -1.13333,-2.504 -2.73733,-4.672 -4.15733,-6.464 -0.0613,-0.0773 -0.208,-0.236 -0.40667,-0.44667 -0.16666,-0.17733 -0.31733,-0.33866 -0.45333,-0.488 0.24267,0.0627 1.48667,0.392 1.48667,0.392 0.37733,0.0973 0.784,0.17734 1.20133,0.25734 0.74267,0.14533 1.51067,0.29466 2.04,0.564 0.408,0.208 0.82133,0.47066 1.24667,0.73866 0.36933,0.23334 0.744,0.46934 1.128,0.68534 2.18666,1.23866 3.032,3.052 4.23066,5.908 1.27067,3.02666 2.47334,6.18933 3.67867,9.66533 2.38133,6.87333 4.37733,13.90667 6.01733,19.88133 3.16267,11.53067 4.86667,17.10667 7.072,27.00934 0.228,1.02533 0.48534,2.04933 0.744,3.072 0.17334,0.688 0.34667,1.37466 0.51067,2.064 0.192,0.804 0.37467,1.60933 0.528,2.41466 0.0173,0.0947 0.0213,0.232 0.028,0.38667 0.0427,0.788 0.0893,1.68267 0.82933,2.25467 0.512,0.39333 1.20667,0.50533 1.81867,0.56266 0.47733,0.044 1.02933,0.0587 1.48933,0.0707 0.25467,0.007 0.47334,0.009 0.608,0.0227 1.204,0.124 2.40267,0.25466 3.60267,0.38933 6.63867,0.75467 12.07066,1.53733 17.09333,2.46267 5.43733,1.00266 10.76667,2.32266 15.17733,4.21733 0.928,0.39733 2.044,0.59067 3.41334,0.59067 2.21066,0 4.60533,-0.508 6.53066,-0.916 0.42,-0.088 0.812,-0.17067 1.16667,-0.24134 2.57067,-0.50533 5.048,-1.13733 7.36533,-1.88133 0.272,-0.088 0.596,-0.22 0.93867,-0.364 0.28667,-0.12 0.76667,-0.32 1.076,-0.40533 0.21867,0.40533 0.43467,1.44133 0.51067,1.812 0.0373,0.17733 0.0707,0.33733 0.10133,0.46666 0.0373,0.15067 0.0827,0.31467 0.12933,0.488 0.148,0.54134 0.45334,1.668 0.20267,1.988 -0.44533,0.56667 -2.72267,1.05067 -3.81867,1.28267 -0.47466,0.1 -0.904,0.192 -1.24266,0.28133 -4.93867,1.29467 -9.216,1.92534 -13.07734,1.92534"
       style="fill:#d30000;fill-opacity:1;fill-rule:nonzero;stroke:none;stroke-width:1.33333"
       id="path21747" />
    <path
       d="m 210.68693,371.1212 c -0.23334,-3.70533 -0.42534,-6.648 -0.53334,-8.27733 l 9.14134,-0.31867 c 0.13733,1.724 0.26,3.10533 0.35466,3.96133 0.10134,0.91734 0.22667,2.52134 0.364,4.56534 -2.37466,-0.0573 -5.67066,-0.0213 -9.32666,0.0693 m -14.15733,0.50133 -0.51867,-8.28533 12.02266,-0.41867 0.376,8.264 c -3.93066,0.11467 -8.108,0.27734 -11.87999,0.44 m -11.57067,0.55067 c -0.224,-5.00933 -0.37867,-8.43733 -0.37867,-8.43733 l 8.7,-0.30267 0.51467,8.31067 c -4.02267,0.18266 -7.284,0.348 -8.836,0.42933 m 37.82933,-5.68667 c -1.744,-9.41733 -2.94267,-43.12666 -2.94267,-43.12666 -8.30666,-1.20133 -30.67733,0.30133 -42.07199,1.35067 -11.39467,1.04933 -56.52534,9.29599 -56.52534,9.29599 0,0 0.0267,0.24267 0.0787,0.61067 -0.72933,-0.21867 -1.528,-0.29467 -2.512,-0.0333 -1.42267,0.37866 -3.028,1.74266 -2.868,3.356 0.19067,1.92266 2.19067,2.99866 3.33733,4.32533 2.47334,2.86 3.22667,6.64133 4.13867,10.19867 1.14533,4.46666 2.09333,9.076 1.66133,13.70933 -0.14933,1.59867 -0.47066,3.54133 -1.56133,4.8 -1.364,1.576 -3.14933,1.18533 -5.03467,1.04133 -3.97733,-0.30533 -7.91466,-1.13066 -11.68533,-2.436 -2.33867,-0.80933 -4.612,-1.80266 -6.79333,-2.972 -1.862669,-0.99866 -3.757336,-2.728 -5.830669,-3.23866 -1.042667,-0.256 -2.453333,-0.036 -1.252,1.348 1.529333,1.76133 3.446667,2.81066 5.230667,4.19866 7.034662,5.476 14.038662,11.07734 21.096002,16.56 0.99733,0.77467 3.988,4.59067 0.892,4.62267 -2.65334,0.028 -5.02667,-1.99867 -7.71067,-1.37867 -1.16,0.268 -2.23867,1.21867 -2.29467,2.40934 -0.036,0.78666 0.36,1.52266 0.77334,2.19333 1.424,2.31733 3.18266,4.63067 5.22266,6.64533 h 37.544 c -0.76933,-1.22 -1.54,-2.44 -2.30933,-3.66 -2.07333,-3.28533 -4.03733,-6.27066 -5.29333,-9.82133 -1.27334,-3.596 -2.15334,-7.24533 -2.76934,-10.88 -0.52266,-3.08533 -0.52533,-6.096 -0.936,-9.15733 -0.536,-3.98534 -1.40133,-7.94134 -1.39466,-11.912 0.007,-3.82134 1.07733,-7.852 1.84133,-11.59067 0.11867,-0.58267 0.5,-1.384 0.27467,-2.048 -0.37867,-1.116 -0.364,-0.34933 -1.16134,-0.92933 -1.50533,-1.09734 -1.548,-2.156 -0.06,-3.93734 1.79734,-2.15066 4.42534,-1.44533 6.968,-1.90133 3.196,-0.572 6.392,-1.14266 9.588,-1.71333 4.55067,-0.812 9.104,-1.61067 13.648,-2.45733 8.84667,-1.64934 44.98,-2.09867 44.98,-2.09867 0,0 1.09067,19.332 1.98267,31.33733 l -37.36,2.052 1.888,38.71733 h 2.61467 c -0.328,-7.65066 -0.76534,-17.51733 -1.1,-25.02666 3.23466,-0.20534 6.188,-0.384 8.87866,-0.536 l 1.58667,25.56266 h 2.76133 l -1.61333,-25.71466 c 4.79066,-0.25867 8.68666,-0.432 11.82933,-0.54134 l 1.19333,26.256 h 2.57867 c -0.38133,-8.468 -0.972,-18.58 -1.452,-26.33066 5.11333,-0.14534 7.868,-0.10134 9.336,-0.0213 0.45867,7.36 1.01467,18.30667 1.40933,26.352 h 3.34934 c -0.35067,-11.06266 -1.036,-27.46266 -2.15067,-33.48"
       style="opacity:0.199997;fill:#000000;fill-opacity:1;fill-rule:nonzero;stroke:none;stroke-width:1.33333"
       id="path21757" />
    <path
       d="m 77.618798,399.96653 c -0.756,-3.14 -1.593333,-5.79733 -2.512,-7.58533 -1.110667,-2.164 -1.510667,-4.9 -2.376,-7.16667 -0.968,-2.53466 -2.029333,-3.66533 -0.06267,-6.28 2.187999,-2.908 6.786666,-1.50533 6.971999,-5.996 0.12,-2.92666 -3.073333,-5.864 -4.704,-8.02133 -2.414666,-3.19333 -4.495999,-6.976 -4.589333,-11.07467 -0.088,-3.82533 2.262667,-6.644 2.650667,-10.25733 0.064,-0.592 0.333333,-1.45067 0.173333,-2.032 -0.110666,-0.39867 -0.446666,-0.656 -0.668,-0.99467 -0.585333,-0.89066 -0.685333,-1.88533 -0.618666,-2.928 0.04667,-0.74133 0.4,-1.404 0.856,-2.02533 0.378666,-0.51467 1.066666,-0.736 1.405333,-1.28267 0.32,-0.51466 0.326666,-1.21866 0.433333,-1.80533 0.258667,-1.42666 0.54,-2.848 0.845333,-4.26533 1.830667,-8.48133 4.492,-17.01333 9.058667,-24.44933 3.857333,-6.28 9.333333,-11.74267 16.518666,-13.95334 6.80134,-2.09333 68.268,-31.64933 82.65334,-34.26533 3.33466,-0.60533 6.67066,-1.204 10.008,-1.79467 1.532,-0.272 3.06533,-0.54266 4.59866,-0.812 1.056,-0.18533 2.66933,-0.18666 3.31867,-1.19466 0.25333,-0.39334 0.41333,-1.00934 0.78666,-1.31067 0.39467,-0.31733 1.028,-0.26 1.51734,-0.36533 0.568,-0.12134 1.09466,-0.288 1.64133,-0.38267 0.63333,-0.112 1.312,-0.404 1.94267,-0.19733 0.51866,0.976 1.05866,1.66266 2.13333,1.48133 0.296,-0.0493 2.05067,-0.59067 2.30267,-0.39333 0,0 7.32266,5.75466 14.38533,9.67733 0,0 -4.708,-5.75333 -1.56933,-12.55467 3.13866,-6.8 0,-6.27733 -4.18534,-12.032 -4.184,-5.75333 -14.124,-12.29333 -17.26266,-20.40133 -3.13867,-8.108 -6.08133,-16.65866 -9.416,-14.38533 -0.25867,0.176 -0.80667,0.27466 -1.548,0.32133 l -0.46,0.48 c -0.40667,0.424 -0.85067,0.92933 -1.32667,1.47067 -2.08,2.36266 -4.66666,5.304 -7.61466,5.82533 -0.30267,0.0533 -0.6,0.072 -0.89467,0.072 -0.192,0 -0.38267,-0.008 -0.57333,-0.0173 -0.152,-0.007 -0.304,-0.0133 -0.456,-0.0133 -0.26534,0 -0.452,0.024 -0.62,0.0787 -0.45067,0.148 -0.91867,0.44267 -1.412,0.75467 l -0.45467,0.284 c -0.80267,0.48666 -1.58133,1.32 -2.52267,1.34133 -0.70266,0.016 -1.38666,-0.18933 -2.08133,-0.25067 -0.88667,-0.0773 -1.87067,-0.264 -2.74,0.003 -0.87333,0.26667 -1.36667,0.876 -2.12,1.41467 -0.54933,0.392 -1.58267,0.80933 -1.91467,1.448 -0.41066,0.792 0.90534,1.00266 0.888,1.64 -0.02,0.67733 -2.332,1.46933 -2.90266,1.76266 -0.001,0 -2.25067,1.156 -2.25067,1.156 -5.03733,2.58534 -10.24533,5.26 -15.148,8.236 -0.724,0.44 -1.444,0.888 -2.15867,1.34667 -2.376,1.524 -4.74666,3.084 -7.12666,4.64933 -7.43334,4.888 -15.11867,9.944 -23.29334,14.112 -4.95066,2.52534 -10.07866,4.79334 -15.03866,6.98667 -6.266673,2.772 -12.746673,5.63867 -18.876006,9.03067 -0.946667,0.524 -1.893333,1.044 -2.841333,1.56266 -0.312,0.172 -0.645334,0.33334 -0.982667,0.496 -0.592,0.288 -1.152,0.55867 -1.581333,0.88134 -3.098667,2.33333 -6.056,4.716 -8.789333,7.08133 -12.176,10.53467 -22.114666,23.90267 -27.997333,37.67067 -1.508,3.288 -2.925333,6.72666 -4.216,10.21866 -0.534667,1.448 -0.758667,3.52534 -2.816,2.85334 -0.774666,0.82266 -0.846666,2.59333 -1.172,3.62 -0.172,0.54666 -0.473333,1.18 -0.54,1.77466 -0.07467,0.68534 0.128,1.21467 0.277334,1.81867 0.48,1.93867 -0.350667,3.60133 -0.888,5.47333 -0.590667,2.06267 -1.145334,4.13733 -1.652,6.22267 -0.917334,3.77066 -1.684,7.58133 -2.22,11.42533 -0.736,5.27333 -1.049334,10.64 -0.542667,15.94933 0.34,3.55867 1.250667,6.66667 2.214667,9.95734 0.484,1.652 0.985333,3.36133 1.405333,5.128 0.217333,0.90933 0.458667,1.808 0.698667,2.704 0.908,3.38 1.842666,8.216 1.392,12.07866 z"
       style="opacity:0.199997;fill:#000000;fill-opacity:1;fill-rule:nonzero;stroke:none;stroke-width:1.33333"
       id="path21773" />
    <path
       d="m 138.56546,346.78173 c 0,0 40.45467,-8.02133 70.09867,-8.02133 l -0.34934,5.58 c 0,0 -25.45866,0 -69.74933,7.324 z"
       style="fill:#000000;fill-opacity:1;fill-rule:nonzero;stroke:none;stroke-width:1.33333"
       id="path21783" />
    <path
       d="m 206.06773,344.06187 -10.75467,0.20266 -0.096,-5.05066 10.756,-0.20267 z"
       style="fill:#dfdfdf;fill-opacity:1;fill-rule:nonzero;stroke:none;stroke-width:1.33333"
       id="path21787" />
    <path
       d="m 204.83626,339.8588 -8.452,0.15867 0.064,3.39866 8.452,-0.15866 z m 1.736,4.70267 -11.74533,0.22133 -0.11467,-6.068 11.74667,-0.22133 z"
       style="fill:#000000;fill-opacity:1;fill-rule:nonzero;stroke:none;stroke-width:1.33333"
       id="path21791" />
    <path
       d="m 274.69986,335.23187 -0.55067,-3.63333 -3.608,0.308 0.54934,3.63333 -2.00534,0.17066 1.952,12.888 7.62134,-0.65066 -1.952,-12.88667 z"
       style="fill:#dfdfdf;fill-opacity:1;fill-rule:nonzero;stroke:none;stroke-width:1.33333"
       id="path21795" />
    <path
       d="m 277.89186,347.34707 -6.28667,0.536 -1.75333,-11.57067 0.672,-0.0587 0.33333,2.19467 c 0.048,0.31467 0.31334,0.54667 0.62267,0.58533 -0.28933,0.0907 -0.48,0.36 -0.432,0.676 l 0.98267,6.484 c 0.0547,0.364 0.39733,0.632 0.76666,0.60134 l 3.608,-0.308 c 0.368,-0.032 0.62134,-0.35067 0.56667,-0.71467 l -0.98267,-6.48533 c -0.048,-0.31467 -0.31333,-0.54534 -0.62266,-0.58534 0.28933,-0.0893 0.48,-0.36 0.432,-0.67466 l -0.332,-2.19467 0.672,-0.0573 z m -6.584,-14.83867 2.27467,-0.19466 0.78266,5.16933 -2.27466,0.19333 z m 3.448,7.55067 0.78267,5.16933 -2.27467,0.19333 -0.78267,-5.168 z m 1.85067,-5.656 -1.34,0.11333 -0.45067,-2.97466 c -0.0547,-0.364 -0.39733,-0.632 -0.76667,-0.60134 l -3.608,0.308 c -0.368,0.032 -0.62133,0.352 -0.56666,0.71467 l 0.45066,2.97466 -1.34,0.11467 c -0.368,0.032 -0.62133,0.352 -0.56666,0.71467 l 1.952,12.888 c 0.056,0.364 0.39866,0.63333 0.76666,0.60133 l 7.62134,-0.65067 c 0.368,-0.0307 0.62133,-0.35066 0.56666,-0.71466 l -1.952,-12.888 c -0.056,-0.36267 -0.39866,-0.632 -0.76666,-0.6"
       style="fill:#000000;fill-opacity:1;fill-rule:nonzero;stroke:none;stroke-width:1.33333"
       id="path21799" />
  </g>
</svg>
