<?xml version="1.0" encoding="UTF-8" standalone="no"?>
<!-- Generator: Adobe Illustrator 28.2.0, SVG Export Plug-In . SVG Version: 6.00 Build 0)  -->

<svg
   version="1.1"
   id="Cardassian_Ear_1"
   x="0px"
   y="0px"
   viewBox="0 0 400 400"
   enable-background="new 0 0 300 300"
   xml:space="preserve"
   sodipodi:docname="CardassianEar.svg"
   width="400"
   height="400"
   inkscape:version="1.3.2 (091e20e, 2023-11-25)"
   xmlns:inkscape="http://www.inkscape.org/namespaces/inkscape"
   xmlns:sodipodi="http://sodipodi.sourceforge.net/DTD/sodipodi-0.dtd"
   xmlns="http://www.w3.org/2000/svg"
   xmlns:svg="http://www.w3.org/2000/svg"><defs
   id="defs8" /><sodipodi:namedview
   id="namedview8"
   pagecolor="#ffffff"
   bordercolor="#666666"
   borderopacity="1.0"
   inkscape:showpageshadow="2"
   inkscape:pageopacity="0.0"
   inkscape:pagecheckerboard="0"
   inkscape:deskcolor="#d1d1d1"
   showgrid="false"
   inkscape:zoom="8.67"
   inkscape:cx="206.97809"
   inkscape:cy="164.76355"
   inkscape:window-width="1920"
   inkscape:window-height="1080"
   inkscape:window-x="2437"
   inkscape:window-y="176"
   inkscape:window-maximized="0"
   inkscape:current-layer="layer1" />








<g
   inkscape:groupmode="layer"
   id="layer1"
   inkscape:label="Ear"><path
     fill="#cd976d"
     d="m 215.13866,129.23066 c 0,0 -3.36133,-7.508 -5.37867,-9.076 -2.01733,-1.56933 -6.724,-2.35333 -9.63733,0.112 -2.91333,2.46534 -9.076,10.98134 -8.18,14.568 0.896,3.58534 5.71467,11.20534 7.732,14.344 1.98533,3.08934 3.53333,6.46667 5.28933,9.688 0.744,1.364 1.99734,4.99334 3.03334,6.38267 1.40266,1.88133 3.62133,2.92267 5.064,4.74933 1.64533,2.08534 3.644,5.216 5.948,7.55067 3.004,3.044 6.152,5.54933 9.21333,8.544 1.52933,1.496 2.98533,3.06667 4.34267,4.71733 0.576,0.69867 1.14133,1.34534 1.74533,2.004 0.476,0.52 0.83333,1.32934 1.52667,1.57067 -0.44534,-0.79733 -0.82267,-1.65067 -1.05467,-2.496 -0.35467,-1.288 -0.35067,-2.24267 -1.364,-3.29067 -0.732,-0.75733 -0.912,-1.74 -1.51467,-2.67333 -0.75333,-1.164 -1.47333,-1.80267 -2.57733,-2.65867 -0.78533,-0.608 -1.82267,-1.26133 -2.308,-2.084 -0.51467,-0.87333 -1.08267,-1.532 -1.796,-2.276 -0.628,-0.65466 -1.292,-1.15733 -2.008,-1.644 -0.53867,-0.36533 -0.96267,-0.62533 -1.29733,-1.15333 -0.22134,-0.34933 -0.34667,-0.70933 -0.62134,-1.04667 -0.744,-0.91333 -2.084,-2.24666 -2.14266,-3.524 -0.12267,-2.68266 3.20933,0.348 4.20933,0.83467 1.05067,0.51067 2.08533,1.076 3.13467,1.592 0.94266,0.46267 1.956,0.51733 2.85866,0.98933 0.78934,0.41334 1.87867,1.36 2.70534,1.3 -0.82,-1.01466 -1.38667,-2.25066 -2.24267,-3.20533 -0.848,-0.94533 -2.18,-1.7 -3.216,-2.316 -0.59733,-0.35467 -0.576,-0.588 -0.964,-1.16533 -0.59067,-0.87734 -1.84667,-1.46667 -2.77467,-1.92534 -0.58133,-0.28666 -1.53733,-0.41333 -1.99333,-0.88266 -0.17867,-0.184 -0.32267,-3.50667 -0.484,-3.70134 -0.48,-0.58 -1.24667,-0.816 -1.89467,-1.12 -1.83466,-0.86133 -3.424,-4.188 -3.43466,-5.69733 -0.004,-0.65467 0.12933,-1.27733 -0.0373,-1.92267 -0.26133,-1.01466 -0.70933,-1.892 -0.74266,-2.968 -0.0773,-2.42133 1.59733,-4.31733 2.24933,-6.536 0.74533,-2.532 0.14667,-5.4 -0.0853,-7.98266 -0.124,-1.38267 -0.33334,-2.74534 -0.56,-4.11334 -0.19334,-1.16533 -0.25467,-2.39733 -0.74267,-3.488 z"
     id="path1"
     style="stroke-width:1.33333" /><path
     id="path2"
     style="stroke-width:1.33333;fill:#000000;fill-opacity:1"
     d="M 205.4082 117.36328 C 197.87355 117.36328 189.9627 128.66494 191.4707 135.82227 C 192.97737 142.9796 202.01772 154.65698 203.90039 159.93164 C 205.08572 163.24897 208.13397 166.86461 210.7793 169.44727 C 212.09397 170.73126 212.98069 173.469 214.52734 175.125 C 216.28334 177.005 218.14216 178.7863 219.91016 180.6543 C 222.01815 182.88229 224.67811 184.61369 227.02344 186.56836 C 227.66211 187.10169 228.33124 187.44055 228.89258 188.06055 C 229.50191 188.73388 229.79022 189.60891 230.43555 190.26758 C 230.81155 190.65158 231.47624 190.73184 232.01758 191.33984 C 232.54691 191.9345 232.99917 192.71581 233.45117 193.36914 C 233.98184 194.13314 234.60442 194.76345 235.23242 195.43945 C 235.83776 196.09279 236.43559 196.6699 237.18359 197.11523 C 237.89426 197.5379 238.72864 197.77103 239.41797 198.20703 C 239.06197 197.62836 238.35752 197.16194 237.85352 196.72461 C 237.22952 196.18327 236.71781 195.67941 236.25781 194.96875 C 235.75781 194.19408 235.26816 193.29 234.66016 192.61133 C 234.0215 191.898 233.4662 191.13522 233.1582 190.19922 C 232.9262 189.49656 232.98482 188.80438 232.77148 188.12305 C 232.52082 188.39105 232.27138 188.71313 231.99805 188.95312 C 231.07138 187.81446 229.87125 186.81535 228.89258 185.66602 C 227.96725 184.57936 227.0487 183.63125 227.2207 182.30859 C 226.7567 182.67125 226.73161 183.12583 225.96094 182.8125 C 225.30094 182.54316 224.49567 181.9793 223.90234 181.55664 C 223.38767 181.18997 222.62722 180.59792 222.33789 180.03125 C 221.99656 179.36192 221.93864 178.31358 221.94531 177.65625 C 221.43864 177.47225 221.05332 178.10444 220.58398 178.14844 C 219.82399 178.21914 218.98433 177.1915 218.375 176.6875 C 217.26167 175.76884 216.44616 174.63892 216.04883 173.29492 C 215.84616 172.60692 215.8475 171.91295 215.6875 171.23828 C 215.31417 171.17698 215.15924 171.38376 214.75391 171.24609 C 214.30591 171.09543 213.96092 169.99013 213.68359 169.7168 C 212.0628 168.12142 210.51837 166.51887 209.1582 164.89062 C 211.24733 166.80506 213.74178 168.01599 216.48633 169.92383 C 217.43433 170.58249 218.621 170.7891 219.625 171.25977 C 220.601 171.7171 221.5205 172.44177 222.53516 172.78711 C 223.30983 173.04977 224.01769 173.12308 224.79102 173.45508 C 225.37502 173.70574 225.95963 174.00323 226.51562 174.33789 C 227.44762 174.89923 228.30604 175.58625 229.2207 176.18359 C 229.7927 176.55692 230.37855 176.72384 230.94922 177.0625 C 231.45455 177.36117 231.80053 177.69305 232.36719 177.87305 C 233.01919 178.07972 233.71103 178.28361 234.3457 178.59961 C 234.96303 178.90627 235.55188 179.34475 236.17188 179.60742 C 236.44654 179.72342 236.72134 179.81411 237 179.93945 C 237.324 180.08478 237.9118 180.55232 238.23047 180.45898 C 237.5678 179.77099 236.52876 179.31935 235.74609 178.80469 C 235.17276 178.42735 234.68228 177.95589 234.09961 177.58789 C 233.44895 177.17589 232.71244 176.78185 232.14844 176.22852 C 231.65244 175.74319 231.33392 175.16012 230.89258 174.68945 C 229.99525 175.13878 229.56068 174.83651 228.52734 174.08984 C 227.69801 173.48984 227.16875 172.83514 226.69141 171.98047 C 225.74075 173.8858 221.88353 170.90716 221.1582 169.17383 C 220.16753 169.63783 219.06222 169.07149 217.93555 168.41016 C 216.96355 167.83949 216.51978 167.0965 215.95312 166.17383 C 216.11578 166.43917 215.16495 166.7428 215.01562 166.74414 C 214.56496 166.74814 214.08215 166.69332 213.77148 166.41602 C 213.44482 166.12535 213.22881 165.92064 212.85547 165.69531 C 212.51814 165.49264 212.34611 164.54963 212.02344 164.4043 C 210.84878 163.87763 209.00955 160.64311 208.18555 159.64844 C 207.29088 158.56844 206.26336 157.57811 205.44336 156.43945 C 204.53269 155.17411 204.14724 153.44165 203.75391 151.95898 C 202.94191 148.89766 202.34607 145.56056 200.05273 143.19922 C 201.7114 145.17789 201.58803 148.02622 201.9707 150.43555 C 202.03756 150.85567 202.14351 151.25182 202.26367 151.64062 C 199.32762 147.03677 193.16211 139.31228 193.16211 135.63477 C 193.16211 129.04277 200.12986 120.19091 203.14453 120.37891 C 205.40186 120.52024 207.81135 121.33185 209.52734 122.83984 C 211.22867 124.3305 212.10194 127.11147 214.08594 128.2168 C 214.49527 123.4848 210.5002 117.36328 205.4082 117.36328 z " /><path
     opacity="0.2"
     d="m 205.75466,149.69466 c 0.20133,0.35467 0.912,1.68534 1.29867,0.948 1.16133,-2.21866 0.61066,-4.87066 2.456,-6.92533 2.12666,-2.36933 1.308,-5.58 0.676,-8.528 -1.12267,-5.24133 -1.996,-6.86267 -3.99334,-8.11067 -1.996,-1.248 -5.612,0.124 -5.616,0.12534 -1.24533,0.472 -2.39999,1.368 -3.25599,2.372 -1.87734,2.19866 -1.596,5.15866 -0.61067,7.68666 0.38,0.97467 2.996,6.65867 4.58,4.96 0.48266,-0.51733 0.23333,-2.13466 0.268,-2.836 0.072,-1.44666 0.18266,-6.39733 2.44266,-6.204 0.308,1.996 -1.048,4.208 -1.21466,6.17867 -0.316,3.75333 1.16,7.14 2.96933,10.33333 z"
     id="path3"
     style="stroke-width:1.33333;fill:#000000;fill-opacity:1" /><path
     id="path4"
     style="stroke-width:1.33333;fill:#000000;fill-opacity:1"
     d="M 202.96094 125.46289 C 198.43961 125.46289 195.99023 130.92578 195.99023 130.92578 C 195.99023 130.92578 201.26349 127.91287 202.77148 127.1582 C 204.17197 126.45797 207.358 129.01014 207.80078 130.88672 C 206.5859 132.01118 204.41247 134.25027 204.27734 136.00977 C 204.14025 137.79496 207.30188 136.87823 209.02734 136.25 C 209.21676 137.00522 209.39352 137.76351 209.51367 138.49414 L 204.6543 141.0957 C 204.6543 141.0957 207.48535 141.67818 209.38281 141.90234 C 209.28056 142.10477 209.15279 142.27951 208.98828 142.41406 C 206.91628 144.10873 204.84489 148.81958 206.35156 151.26758 C 207.85823 153.71558 212.37695 156.35156 212.37695 156.35156 C 212.37695 156.35156 209.36308 152.96125 208.23242 151.64258 C 207.10308 150.32392 208.98572 145.23958 211.62305 143.54492 C 214.26038 141.84892 210.30519 134.69156 210.11719 131.49023 C 209.92919 128.28891 207.48227 125.46289 202.96094 125.46289 z " /><path
     d="m 202.39466,130.36 c 0,0 -2.26,4.70933 -2.26,6.404 0,1.69466 0.188,5.83866 0.188,5.83866 0,0 -2.82533,-5.83866 -2.072,-7.53466 0.75334,-1.69467 4.144,-4.708 4.144,-4.708 z"
     id="path6"
     style="stroke-width:1.33333;fill:#000000;fill-opacity:1" /></g></svg>
