<?xml version="1.0" encoding="UTF-8" standalone="no"?>
<!-- Created with Inkscape (http://www.inkscape.org/) -->

<svg
   version="1.1"
   id="svg289391"
   width="400"
   height="400"
   viewBox="0 0 400 400"
   sodipodi:docname="DenobulanEar.svg"
   inkscape:version="1.2.2 (b0a8486, 2022-12-01)"
   xmlns:inkscape="http://www.inkscape.org/namespaces/inkscape"
   xmlns:sodipodi="http://sodipodi.sourceforge.net/DTD/sodipodi-0.dtd"
   xmlns="http://www.w3.org/2000/svg"
   xmlns:svg="http://www.w3.org/2000/svg">
  <defs
     id="defs289395" />
  <sodipodi:namedview
     id="namedview289393"
     pagecolor="#ffffff"
     bordercolor="#666666"
     borderopacity="1.0"
     inkscape:showpageshadow="2"
     inkscape:pageopacity="0.0"
     inkscape:pagecheckerboard="0"
     inkscape:deskcolor="#d1d1d1"
     showgrid="false"
     inkscape:zoom="1.475"
     inkscape:cx="182.71186"
     inkscape:cy="200"
     inkscape:window-width="1440"
     inkscape:window-height="810"
     inkscape:window-x="2576"
     inkscape:window-y="318"
     inkscape:window-maximized="0"
     inkscape:current-layer="g289399">
    <inkscape:page
       x="0"
       y="0"
       id="page289397"
       width="400"
       height="400" />
  </sodipodi:namedview>
  <g
     id="g289399"
     inkscape:groupmode="layer"
     inkscape:label="Page 1"
     style="display:inline">
    <path
       d="m 215.13853,129.23107 c 0,0 -3.36134,-7.508 -5.37867,-9.076 -2.01733,-1.56933 -6.724,-2.35333 -9.63733,0.112 -2.91333,2.46534 -9.076,10.98134 -8.18,14.56667 0.896,3.58667 5.71467,11.20533 7.732,14.344 2.01733,3.13733 5.82666,11.20533 7.732,13.78267 1.292,1.74933 2.88933,4.04666 5.324,3.10266 2.16533,-0.83866 4.43466,-4.268 4.42133,-6.53066 -0.0187,-2.92134 -2.78267,-5.264 -2.87733,-8.18267 -0.0773,-2.42133 1.59733,-4.31733 2.25066,-6.536 0.74534,-2.53067 0.14667,-5.4 -0.0867,-7.98267 -0.124,-1.38266 -0.33334,-2.74666 -0.55867,-4.11466 -0.192,-1.16267 -0.25333,-2.39467 -0.74133,-3.48534"
       style="fill:#cd976d;fill-opacity:1;fill-rule:nonzero;stroke:none;stroke-width:1.33333"
       id="path292911" />
    <path
       d="m 209.63466,160.30121 c -0.30667,-0.10267 -0.608,-0.216 -0.9,-0.35334 -0.64667,-0.30533 -1.232,-0.72266 -1.81333,-1.13733 -0.50667,-0.36133 -1.01734,-0.72667 -1.432,-1.18933 -0.30534,-0.34134 -0.55334,-0.72934 -0.8,-1.11467 -0.11734,-0.184 -0.23734,-0.37733 -0.25067,-0.59467 0.007,0.10134 0.48133,0.38 0.56933,0.44534 0.204,0.15066 0.41334,0.29466 0.628,0.43066 0.43867,0.28267 0.89734,0.53467 1.36934,0.75734 0.93733,0.44 1.912,0.63866 2.88533,0.96 0.236,0.0787 0.47333,0.084 0.72533,0.0933 0.24534,0.0107 0.46,0.076 0.71067,0.076 0.28,0 0.58267,0.0333 0.86,-0.004 0.21733,-0.0293 0.416,-0.13333 0.636,-0.18133 0.45467,-0.1 0.932,-0.11867 1.32,-0.39867 0.35733,-0.25867 0.712,-0.41333 1.02,-0.728 0.22933,-0.23333 0.372,-0.53733 0.448,-0.85333 0.032,-0.12934 0.084,-0.28 0.092,-0.412 0.004,-0.064 -0.10933,-0.4 -0.092,-0.42267 -0.10533,0.12933 -0.21733,0.26533 -0.32667,0.39467 -0.38266,0.45066 -1.064,0.75466 -1.656,0.764 -0.208,0.003 -0.92266,0.0213 -1.05733,-0.13334 -0.284,-0.324 0.30267,-0.36533 0.47067,-0.45333 0.58133,-0.304 1.29866,-1.132 1.45866,-1.76533 0.032,-0.12534 0.15467,-1.5 -0.0133,-1.47067 -0.17467,0.0307 -0.26267,0.16 -0.42533,0.24 -0.23334,0.116 -0.48134,0.12533 -0.72534,0.196 -0.38533,0.112 -0.72133,0.26267 -1.152,0.28133 -0.39466,0.0173 -0.696,-0.0387 -1.056,-0.156 -0.41866,-0.13733 -0.816,-0.20666 -1.17466,-0.48133 -0.31467,-0.24133 -0.54,-0.576 -0.83334,-0.83733 0.44534,0.45466 1.32667,0.18 1.852,0.0587 0.80134,-0.18533 1.24934,-0.45866 1.81067,-1.10666 0.47067,-0.54134 0.90933,-1.06667 1.26533,-1.68267 0.148,-0.256 0.69867,-1.824 0.89067,-1.88933 -0.43867,0.148 -0.80933,0.53733 -1.19867,0.716 -0.47066,0.21733 -1.12266,0.388 -1.68,0.29066 0.91734,-0.87466 1.80934,-1.592 2.588,-2.63733 0.42667,-0.57467 0.816,-1.10533 1.20534,-1.73467 0.684,-1.108 1.07466,-1.75333 1.01466,-3.08533 -0.0667,-1.45733 -0.29866,-2.9 -0.42933,-4.352 -0.124,-1.38133 -0.33333,-2.74533 -0.55867,-4.11333 -0.192,-1.164 -0.25333,-2.396 -0.74133,-3.48667 0,0 -3.36133,-7.508 -5.37867,-9.076 -2.01733,-1.56933 -6.724,-2.35333 -9.63733,0.112 -2.91333,2.46533 -9.076,10.98133 -8.18,14.568 0.896,3.58533 5.71467,11.20533 7.732,14.34267 2.01733,3.13733 5.82667,11.20533 7.732,13.78266 1.292,1.74934 2.88933,4.04667 5.324,3.10267 1.50133,-0.58133 3.476,-0.57733 4.256,-2.224 0.0627,-0.132 0.192,-0.264 0.232,-0.40267 -0.348,0.008 -0.68,0.128 -1.044,0.128 -0.352,0 -0.69467,0.044 -1.036,0.0387 -0.71067,-0.012 -1.436,0.0307 -2.13867,-0.0387 -0.43066,-0.0427 -0.82933,-0.236 -1.256,-0.30133 -0.392,-0.0613 -0.772,-0.14267 -1.16533,-0.24667 -0.52267,-0.13866 -1.07733,-0.24933 -1.59067,-0.43066 -0.408,-0.144 -0.77466,-0.41734 -1.164,-0.61867 -0.256,-0.13333 -0.58133,-0.256 -0.776,-0.47867 -0.15466,-0.18 -0.48266,-0.59733 -0.472,-0.828 0.244,0.112 0.49867,0.33867 0.75467,0.484 0.15467,0.088 0.32533,0.18267 0.49733,0.24934 0.22667,0.0867 0.42,0.21733 0.66134,0.272 0.54933,0.12533 1.072,0.352 1.64,0.42133 0.22666,0.028 0.42666,0.0813 0.65733,0.0813 0.24267,-10e-4 0.48933,-0.012 0.732,0 0.42,0.02 0.83333,0.056 1.25733,0.056 0.51734,0 1.07867,0.104 1.576,-0.0693 0.252,-0.0893 0.51867,-0.16267 0.772,-0.25333 0.316,-0.11467 0.69867,-0.19334 0.992,-0.356 0.63734,-0.35467 0.99867,-1.29734 0.71734,-1.98667 -0.256,0.41467 -0.56267,0.73333 -0.956,1.024 -0.68667,0.504 -1.492,0.91467 -2.344,0.892 -0.72534,-0.02 -1.40134,-0.348 -2.08267,-0.59733 -0.59733,-0.216 -1.21467,-0.37467 -1.816,-0.576"
       style="fill:#cd976d;fill-opacity:1;fill-rule:nonzero;stroke:none;stroke-width:1.33333"
       id="path292959" />
    <path
       d="m 193.16506,135.63361 c 0,-6.592 6.968,-15.444 9.98267,-15.256 2.256,0.14 4.66533,0.952 6.38,2.46 1.7,1.49333 2.57466,4.27466 4.55866,5.37866 0.40934,-4.73066 -3.58666,-10.852 -8.67866,-10.852 -7.53333,0 -15.444,11.3 -13.93733,18.45734 1.50666,7.15733 10.54666,18.836 12.43066,24.11066 1.37067,3.83467 4.71733,6.416 8.388,7.84934 1.42933,0.55733 5.94,2.708 6.13067,-0.19067 -1.25734,-0.67067 -2.74667,-1.152 -4.064,-1.82 -1.056,-0.536 -3.25734,-0.99333 -3.87067,-1.97467 0.95067,0.436 1.776,0.67067 2.91067,0.62267 0.65733,-0.028 2.904,-0.356 3.06933,-1.012 -1.75867,-0.42267 -3.37733,-0.32667 -5.268,-0.54533 -1.092,-0.12667 -4.42133,-0.81867 -4.30133,-2.31334 1.156,0.884 1.93866,0.992 3.344,0.99734 0.92933,0.004 3.12266,0.38666 3.74266,-0.0907 -1.84533,-1.07867 -4.12,-1.31333 -5.832,-2.68133 -1.35733,-1.08267 -2.884,-1.716 -3.812,-3.216 1.688,1.33466 3.27734,1.22666 5.256,1.784 0.0413,0.0547 0.04,0.0573 -0.004,0.009 -1.58133,-1.71067 -3.82133,-2.64 -5.644,-4.04667 -1.88533,-1.45733 -2.916,-3.55866 -4.25333,-5.488 -2.26533,-3.26666 -6.528,-7.95066 -6.528,-12.18266"
       style="fill:#000000;fill-opacity:1;fill-rule:nonzero;stroke:none;stroke-width:1.33333"
       id="path292963" />
    <path
       d="m 200.57733,127.20321 c 0,0 -4.368,1.62266 -4.992,6.23866 -0.624,4.61734 -0.124,6.864 1.872,9.11067 1.99733,2.24533 1.248,2.24533 4.24266,2.49467 2.99467,0.24933 4.86667,2.12133 5.616,4.86666 0,0 0.49867,-5.61466 3.36934,-7.36133 0,0 0.624,-2.12267 -0.5,-7.36267 -1.12267,-5.24133 -1.996,-6.864 -3.992,-8.112 -1.99734,-1.24666 -5.616,0.12534 -5.616,0.12534"
       style="opacity:0.199997;fill:#000000;fill-opacity:1;fill-rule:nonzero;stroke:none;stroke-width:1.33333"
       id="path292973" />
    <path
       d="m 195.99026,130.92494 c 0,0 2.448,-5.46267 6.96933,-5.46267 4.52,0 6.968,2.82534 7.15734,6.028 0.188,3.20134 4.14266,10.35867 1.50666,12.05467 -2.63733,1.69467 -4.52,6.78 -3.39066,8.09867 1.13066,1.31866 4.144,4.708 4.144,4.708 0,0 -4.52,-2.636 -6.028,-5.08534 -1.50667,-2.448 0.56533,-7.15733 2.63733,-8.852 2.072,-1.69466 -1.12933,-9.22933 -1.12933,-11.112 0,-1.884 -3.57867,-4.89733 -5.08667,-4.144 -1.50667,0.75334 -6.78,3.76667 -6.78,3.76667"
       style="fill:#000000;fill-opacity:1;fill-rule:nonzero;stroke:none;stroke-width:1.33333"
       id="path292983" />
    <path
       d="m 208.60986,130.17161 c 0,0 -4.144,3.39066 -4.332,5.83866 -0.188,2.44934 5.83867,-0.188 5.83867,-0.188 z"
       style="fill:#000000;fill-opacity:1;fill-rule:nonzero;stroke:none;stroke-width:1.33333"
       id="path292987" />
    <path
       d="m 202.39426,130.35987 c 0,0 -2.26,4.70934 -2.26,6.404 0,1.69467 0.188,5.83867 0.188,5.83867 0,0 -2.82533,-5.83867 -2.072,-7.53333 0.75334,-1.696 4.144,-4.70934 4.144,-4.70934"
       style="fill:#000000;fill-opacity:1;fill-rule:nonzero;stroke:none;stroke-width:1.33333"
       id="path292991" />
    <path
       d="m 209.92826,138.27067 -5.27333,2.82534 c 0,0 6.404,1.31866 6.404,0.75333 0,-0.56533 -0.56534,-3.76667 -0.56534,-3.76667"
       style="fill:#000000;fill-opacity:1;fill-rule:nonzero;stroke:none;stroke-width:1.33333"
       id="path292995" />
  </g>
</svg>
