<?xml version="1.0" encoding="UTF-8" standalone="no"?>
<!-- Generator: Adobe Illustrator 28.3.0, SVG Export Plug-In . SVG Version: 6.00 Build 0)  -->

<svg
   version="1.1"
   id="Ferengi_Ears_Over_4"
   x="0px"
   y="0px"
   viewBox="0 0 400 400"
   enable-background="new 0 0 300 300"
   xml:space="preserve"
   sodipodi:docname="FerengiEar4.svg"
   width="400"
   height="400"
   inkscape:version="1.3.2 (091e20e, 2023-11-25)"
   xmlns:inkscape="http://www.inkscape.org/namespaces/inkscape"
   xmlns:sodipodi="http://sodipodi.sourceforge.net/DTD/sodipodi-0.dtd"
   xmlns="http://www.w3.org/2000/svg"
   xmlns:svg="http://www.w3.org/2000/svg"><defs
   id="defs19">
	
	
	

	
	
	
	
	
</defs><sodipodi:namedview
   id="namedview19"
   pagecolor="#ffffff"
   bordercolor="#666666"
   borderopacity="1.0"
   inkscape:showpageshadow="2"
   inkscape:pageopacity="0.0"
   inkscape:pagecheckerboard="0"
   inkscape:deskcolor="#d1d1d1"
   showgrid="false"
   inkscape:zoom="2.1675"
   inkscape:cx="199.76932"
   inkscape:cy="200"
   inkscape:window-width="1920"
   inkscape:window-height="1080"
   inkscape:window-x="2524"
   inkscape:window-y="237"
   inkscape:window-maximized="0"
   inkscape:current-layer="layer2" />













<g
   inkscape:groupmode="layer"
   id="layer2"
   inkscape:label="Ear Back"><path
     fill="#cd976d"
     d="m 336.14532,124.62933 c -0.22533,0.268 -0.42933,0.55067 -0.624,0.84133 -5.30666,7.89867 -5.50133,20.404 -5.71066,29.52667 -0.0613,2.66667 0.31867,5.528 -0.28,8.092 -0.75333,3.22667 -1.75733,6.41067 -2.45333,9.66667 -1.44267,6.75866 -2.35867,13.66133 -2.09067,20.584 0.0947,2.45866 -0.328,4.64666 -0.82,7.04666 -0.21733,1.05733 -0.42933,2.068 -0.624,3.13733 -0.384,2.10267 -0.58933,4.208 -0.564,6.37334 0.009,0.82 0.0187,1.64 0.052,2.46 0.0293,0.704 0.19467,1.476 0.092,2.17466 -0.0827,0.56267 -0.29867,1.08267 -0.34933,1.65867 -0.0667,0.756 0.0293,1.51733 -0.068,2.272 -0.18134,1.39867 -0.51334,2.544 -0.26934,3.95867 0.27867,1.61466 0.908,3.08 2.288,4.05466 1.192,0.84134 2.66267,1.15067 4.052,1.59734 0.74134,0.23866 1.476,0.52266 2.248,0.62933 0.772,0.10667 1.60534,0.0147 2.23867,-0.43867 0.42266,-0.30266 0.724,-0.74266 1.03466,-1.16 1.53467,-2.064 3.61467,-3.65066 5.104,-5.74 1.78934,-2.51333 1.72267,-5.472 1.988,-8.46266 0.21467,-2.41467 1.57067,-5.00534 2.97734,-7.00934 1.02,-1.45333 1.73333,-2.40666 2.24933,-4.17866 0.57467,-1.97333 0.70933,-4.19333 0.92933,-6.22 0.24,-2.212 0.47067,-4.42533 0.81467,-6.624 0.308,-1.97867 1.06267,-4.00667 1.212,-5.984 0.30533,-4.04533 0.97067,-8.076 1.39733,-12.13067 0.1,-0.95066 0.14667,-2.22533 0.50134,-3.11333 0.356,-0.89067 1.27466,-1.744 1.92,-2.464 1.39066,-1.54933 1.87466,-2.95067 2.24133,-5.02533 0.368,-2.07867 0.52667,-3.89067 2.036,-5.50667 0.752,-0.80533 1.64267,-1.332 2.156,-2.34 1.69467,-3.336 0.77867,-6.396 0.656,-9.896 -0.0573,-1.64533 0.0253,-3.39333 0.25067,-5.00933 0.21333,-1.53067 0.62266,-2.92534 0.28266,-4.48134 -0.24533,-1.124 -0.82266,-2.056 -1.288,-3.07733 -0.668,-1.46667 -0.46133,-3.04133 -0.15733,-4.548 0.324,-1.60667 0.108,-3.33467 0.0627,-4.972 -0.0747,-2.688 -0.11067,-5.38667 -0.28934,-8.07067 -0.17466,-2.616 -9.24133,1.744 -14.124,8.196 -4.888,6.44934 0.16934,-6.80266 -9.072,4.18267 z"
     id="path1-6"
     style="stroke-width:1.33333" /><path
     opacity="0.2"
     d="m 354.09332,141.42933 c 0.12934,-0.43333 0.2,-0.88133 0.156,-1.35867 -0.116,-1.252 -0.73466,-2.55866 -1.17733,-3.72266 -0.92533,-2.43734 -1.84267,-4.87467 -1.58133,-7.532 0.17866,-1.81067 1.29866,-4.49867 3.22933,-5.14267 1.30533,-0.43467 2.096,0.89067 2.66667,1.84 1.48133,2.46533 2.13333,5.26667 3.384,7.82267 0.29333,-2.57734 -0.548,-5.56667 -0.68267,-8.156 -0.192,-3.68934 -0.88933,-7.31467 -1.08133,-11 -1.668,0.0707 -3.44134,0.69866 -5.09334,0.55333 -1.38,-0.12133 -2.552,-0.344 -3.98133,-0.17467 -5.61067,0.66267 -11.95067,2.26267 -16.84666,5.188 -6.85467,4.096 -6.248,15.82667 -7.01067,22.76934 -0.936,8.528 -1.11333,17.64933 -0.37733,26.216 0.58,6.74933 1.88666,13.37333 3.21866,20.064 0.48134,2.41733 1.24667,5.43866 0.832,7.872 -0.44666,2.624 -1.09066,5.01066 -2.26133,7.41866 -0.94667,1.948 -1.796,3.95333 -2.384,6.04133 -0.29467,1.044 -0.524,2.10667 -0.656,3.184 -0.11733,0.95334 0.004,1.952 -0.41333,2.83734 -0.46,0.97466 -0.95067,1.84933 -1.15734,2.93733 -0.28933,1.51867 -0.30933,3.14267 0.0853,4.64533 0.42533,1.62267 1.328,2.54 2.836,3.24134 1.59333,0.73866 3.30266,1.22266 5.02933,1.53066 0.31733,0.056 0.64267,0.10667 0.95867,0.0453 0.412,-0.08 0.76133,-0.34 1.09333,-0.596 3.16266,-2.44534 6.476,-5.13067 7.75733,-9.05734 0.76533,-2.344 0.16267,-5.09733 1.02933,-7.34133 0.74,-1.91467 2.192,-3.80667 3.15734,-5.64667 0.77066,-1.468 1.844,-2.796 2.4,-4.37333 0.5,-1.41733 0.36266,-2.98133 0.56133,-4.46533 0.39333,-2.948 0.57733,-5.776 0.57733,-8.76933 0,-0.96534 0.432,-2.864 -0.024,-3.656 -1.096,1.95866 -3.94266,3.756 -4.23866,6.04533 -0.10267,0.79733 0.17333,1.716 -0.12134,2.44267 -0.27066,0.664 -1.004,1.18133 -1.5,1.652 -0.58,0.552 -1.04533,0.916 -1.18933,1.744 -0.28267,1.63733 0.69733,3.428 -0.11733,5.03599 -0.41467,0.82 -1.24934,1.27067 -1.76534,1.988 -0.68133,0.94534 -0.628,2.22534 -0.63733,3.34 -0.008,0.87467 0.168,1.98134 -0.33467,2.75867 -1.17866,1.82267 -3.552,1.14533 -4.41866,-0.57467 -0.952,-1.89066 -0.86,-4.70133 -0.412,-6.74133 0.91333,-4.15333 2.14933,-8.37066 3.324,-12.47733 0.67066,-2.34533 1.616,-4.63067 2.63466,-6.83067 0.72134,-1.55733 1.79067,-2.408 2.16267,-4.152 0.27333,-1.28266 0.27733,-2.66133 0.656,-3.91733 0.796,-2.64 1.744,-4.50533 3.65467,-6.48133 1.35066,-1.39734 1.39733,-2.976 1.21066,-4.87734 -0.14266,-1.45466 -0.916,-2.848 0.18134,-4.052 0.83466,-0.916 1.104,-1.008 1.32533,-2.34933 0.108,-0.652 0.0693,-1.41467 0.28667,-2.03733 0.28933,-0.82934 0.99466,-1.14934 1.29733,-2.00267 0.40133,-1.13333 0.0413,-1.83733 0.85067,-2.82667 0.812,-0.992 1.40666,-1.32266 1.43733,-2.688 0.0293,-1.32666 0.0133,-2.43466 0.424,-3.66933 0.29467,-0.87867 0.78667,-1.68267 1.04533,-2.544 z"
     id="path2"
     style="fill:#000000;fill-opacity:1;stroke-width:1.33333" /><path
     id="path5"
     style="fill:#000000;fill-opacity:1;stroke-width:1.33333"
     d="m 344.58399,173.756 c -0.564,2.46666 0.19067,4.984 0.19333,7.48 0.004,3.33733 -0.47733,7.07733 -3.288,9.15733 0.65067,-2.372 1.33334,-4.41733 1.148,-6.95467 -0.128,-1.75333 -0.596,-3.47866 -0.372,-5.25466 0.18534,-1.47467 0.92,-2.97734 1.46134,-4.32134 0.30533,0.12267 0.47733,0.35334 0.85733,-0.10666 z m 2.54667,-51.39334 c 0,0 2.092,0.34934 3.488,5.58 1.39466,5.23067 1.22,9.068 1.91866,10.11334 0.69734,1.04666 0.872,5.58 0.17467,7.672 0,0 3.13867,-5.05734 1.91867,-7.672 -1.22,-2.616 -2.26667,-6.97467 -2.26667,-9.24134 0,-2.26666 -0.69733,-9.76533 -0.69733,-9.76533 0,0 -6.97734,-0.69733 -4.536,3.31333 m 13.776,-12.38133 c 0,1.79467 -0.0907,3.59067 -0.15067,5.384 -0.08,2.39333 0.0493,4.22267 0.56933,6.568 0.284,1.27867 0.15334,2.31867 -0.16933,3.56667 -0.88267,3.41333 1.2,5.98 1.812,9.27466 0.30533,1.644 -0.30933,3.03334 -0.84533,4.528 -0.78934,2.204 -0.49467,4.74134 -0.484,7.08 0.012,2.65867 0.3,4.89734 -1.02134,7.324 -0.86266,1.584 -2.196,2.62134 -3.28266,4.016 -1.52267,1.95334 -0.80934,4.344 -2.08267,6.436 -1.07333,1.764 -2.97733,3.04534 -3.35467,5.14134 -0.40933,2.28133 -1.084,4.54933 -1.188,6.89466 -0.092,2.09867 -0.21466,4.184 -0.21466,6.284 0,1.316 0.12133,2.49067 -0.57467,3.65067 -0.72133,1.20267 -1.168,1.54267 -1.07867,3.01067 0.104,1.71333 0.39867,3.38 0.392,5.144 -0.007,1.84266 0.43867,3.73733 0.10667,5.572 -0.37733,2.07866 -1.12933,4.62933 -2.53333,6.24266 -0.90134,1.036 -1.79867,2.108 -2.49067,3.32267 -1.39333,2.44533 -0.96133,5.28533 -1.49867,7.93066 -0.28133,1.38667 -0.492,3.05734 -1.38266,4.22267 -0.73334,0.95867 -1.94134,1.70933 -2.80934,2.616 -1.15333,1.20533 -2.11733,2.56533 -3.00533,3.96933 -2.52133,3.99067 -8.51466,1.268 -12.032,-0.68266 -2.084,-1.156 -7.09466,-11.35334 -4.29733,-11.76534 2.06667,-0.304 3.02533,1.17867 3.47333,2.97467 0.19467,0.78267 0.27867,1.568 0.396,2.356 0.23867,1.616 1.408,2.93467 2.62934,3.932 1.12666,0.92 2.78533,2.22133 4.32133,2.10667 1.05467,-0.08 1.98133,-0.76134 2.652,-1.58 0.796,-0.97067 1.53333,-2.18267 1.99466,-3.352 0.688,-1.74134 1.81467,-3.42934 2.744,-5.07734 0.22,1.54134 -0.79466,3.06534 -0.84533,4.51467 0.90933,-0.61467 1.768,-1.79067 2.23467,-2.78267 0.84,-1.784 1.46266,-3.848 1.53066,-5.824 0.112,-3.20666 1.02,-6.12 2.02934,-9.15066 -0.11334,0.34 0.39066,1.032 0.73733,1.05866 0.63067,0.0493 0.75333,-0.78266 0.95067,-1.18266 0.756,-1.52934 1.12133,-3.05867 1.21866,-4.764 0.1,-1.75067 0.352,-3.36933 0.772,-5.03067 0.24934,-0.984 0.4,-2.03066 0.29867,-3.07466 -0.18133,-1.84934 -0.208,-3.26534 0.60533,-4.98934 1.17467,-2.488 0.756,-4.836 1.06267,-7.436 0.30267,-2.56266 0.684,-5.11333 1.184,-7.64533 0.94667,-4.78667 0.60667,-9.608 2.74933,-14.14133 -0.596,2.42933 -1.12666,5.18533 -0.936,7.69333 1.09734,-0.87733 2.42134,-2.08 2.788,-3.39867 0.432,-1.54933 0.48267,-3.184 0.91067,-4.74133 0.42933,-1.56667 1.292,-2.824 2.38933,-4.03067 2.09334,-2.29866 2.42667,-3.83333 2.132,-6.97333 -0.22133,-2.36533 -0.60266,-5.056 -0.10133,-7.38533 0.232,-1.08 0.648,-1.82934 0.58133,-2.98667 -0.0573,-0.99867 0.0867,-2.05733 0.028,-3.01467 -0.064,-1.04 -0.54666,-2.14533 -0.72666,-3.18266 -0.28534,-1.64667 -0.452,-2.87334 -0.36667,-4.552 0.168,-3.312 -1.46,-6.32934 -0.61467,-9.71067 0.52534,-2.092 2.792,-6.62533 2.79334,-4.36 z" /></g><g
   inkscape:groupmode="layer"
   id="layer1"
   inkscape:label="Ear Front"><path
     fill="#cd976d"
     d="m 238.32133,100.56533 c 2.796,0.71067 6.31733,1.796 9.12533,1.29067 4.52133,-0.81334 8.828,-0.30134 13.40667,-0.66667 2.21066,-0.176 4.82,-0.31333 6.91733,-1.07467 1.39733,-0.506662 2.676,-1.430662 3.96667,-2.069329 5.70266,-2.82 12.26666,-3.872 17.74666,-6.976 3.55734,-2.016 7.09734,-5.488 11.256,-6.162666 6.856,-1.112 14.712,3.599999 20.428,6.585333 4.51734,2.358666 8.79334,5.244 13.596,7.018666 3.936,1.453334 9.16133,0.436 12.716,3.101336 2.78933,2.092 2.44133,7.324 0.69733,10.11333 -1.744,2.78933 -26.15599,11.50933 -26.15599,11.50933 l -45.68534,-3.488 -39.408,-19.18133"
     id="path1"
     style="stroke-width:1.33333" /><path
     id="path3"
     style="stroke-width:1.33333;fill:#000000;fill-opacity:1;opacity:0.2"
     d="m 276.33466,119.74666 c -10.648,-5.18266 -21.256,-10.49733 -31.876,-15.69733 1.07333,0.52533 3.54133,-0.216 4.76933,-0.232 1.924,-0.0253 3.84267,0.0667 5.76934,-0.016 3.852,-0.16533 7.69066,-0.64133 11.468,-1.41333 7.55466,-1.544 14.86933,-4.278669 21.56133,-8.110669 4.852,-2.778667 9.68533,-6.218667 15.26933,-6.504 2.83734,-0.145333 5.71334,0.576 8.14534,2.042667 -1.036,-0.624 -3.956,-0.214667 -5.176,-0.238667 -1.764,-0.03467 -3.872,-0.296 -5.60667,0.05333 -3.068,0.617334 -5.79867,2.942667 -8.16667,4.868 -3.824,3.109334 -9.23333,5.2 -13.68133,7.263999 -6.092,2.82667 -11.70533,4.49067 -18.42667,4.20934 -0.51866,-0.0213 -4.44,0.37333 -4.57333,0.21466 4.628,5.56 12.98133,3.77467 18.74133,1.26934 3.36134,-1.46267 6.87067,-2.39467 10.116,-4.192 6.02,-3.333339 11.55334,-7.836005 18.336,-9.558672 9.34134,-2.372 16.17067,2.654667 24.24667,6.380002 6.27066,2.892 13.17066,4.18667 20.052,4.76133 -0.0227,1.436 -1.38,2.56934 -2.792,2.832 -1.412,0.26267 -2.85467,-0.14 -4.22667,-0.56266 -5.188,-1.60134 -10.26,-3.58 -15.16133,-5.91467 -4.55467,-2.168002 -9.284,-5.809335 -14.30267,-6.697335 -3.89066,-0.688 -7.26133,0.889333 -10.58533,2.550666 -3.668,1.834667 -7.06533,3.085339 -10.25733,5.822669 -2.62267,2.25067 -5.70667,3.41867 -8.872,4.79067 -3.62,1.568 -8.06267,3.60133 -11.9,4.06 2.80133,-0.25867 4.95066,1.64666 7.46,0.64 2.428,-0.97467 4.76266,-2.15867 7.10666,-3.368 3.13467,-1.61734 6.22134,-3.29334 9.088,-5.33067 14.34,-10.192002 29.90934,-2.67467 42.692,5.96533 0.644,0.436 1.37733,1.15067 1.052,1.85734 -0.28533,0.61866 -1.148,0.64933 -1.81867,0.52666 -5.65866,-1.036 -9.58666,-5.72666 -14.15599,-8.79733 -5.88134,-3.952002 -13.56534,-3.748002 -19.96534,-1.26 -8.08666,3.144 -14.992,8.56267 -22.08133,13.44 2.756,1.74667 6.47733,0.764 9.17733,-1.068 2.69867,-1.83333 4.832,-4.412 7.55467,-6.21067 6.468,-4.27466 17.59467,-4.58933 24.85333,-2.30133 2.624,0.82667 5.97734,3.448 7.46534,5.73467 -2.464,3.12933 -7.96134,-3.10134 -10.652,-3.87334 -6.81867,-1.95733 -16.376,-2.83866 -21.50667,2.99334 -1.24933,1.42 -4.13333,3.812 -4.144,5.936 -0.008,1.64266 2.75867,0.17333 2.63733,1.74266 -0.22,2.812 -7.136,2.256 -8.82533,2.06934 -2.38,-0.26934 -6.62533,0.38533 -8.808,-0.67734 z M 348.24799,101.804 c -6.10933,-0.42934 -13.37733,-2.282669 -18.66266,-4.889336 -3.204,-1.58 -6.59067,-2.590666 -9.692,-4.258666 2,1.205333 3.82,2.593333 5.77733,3.862666 3.01333,1.954667 5.56533,3.1 9.27866,4.289336 3.98267,1.27466 11.072,4.18266 15.04934,2.444 0.16266,-0.38 0.0107,-0.67734 -1.75067,-1.448 z" /><path
     fill="#cd976d"
     d="m 186.23733,199.39866 c -0.84933,-1.77733 -0.87067,-3.88266 -1.34133,-6.088 -0.58134,-2.72666 -2.72667,-4.62133 -4.48134,-6.72533 -3.18133,-3.81467 -6.05466,-7.80267 -8.99866,-11.77467 -3.384,-4.56266 -6.12534,-9.49733 -9.672,-14.01066 -1.49467,-1.90134 -3.11734,-3.64534 -4.58267,-5.496 -1.53733,-1.94 -3.78533,-3.588 -5.052,-5.63467 -2.09333,-3.38133 0.0867,-6.63467 0.41733,-9.97733 0.236,-2.39334 0.16267,-5.08667 -0.26533,-7.424 -0.44,-2.40534 -1.66133,-4.73467 -2.148,-7.152 -0.57867,-2.87334 1.032,-6.956 2.692,-9.24267 1.71333,-2.35867 2.66667,-4.65867 3.76133,-7.36 1.024,-2.528 1.508,-5.19733 3.04,-7.48133 0.65067,-0.97067 1.552,-1.860002 2.34667,-2.694669 1.36933,-1.434667 2.22933,-0.917333 3.964,-1.596 4.18667,-1.637333 5.31333,-6.669333 9.51067,-8.106667 3.884,-1.329333 7.728,-2.478666 11.95466,-2.150666 6.16267,0.477333 12.392,0.392 18.492,1.5 5.54,1.006666 11.13733,1.802666 16.33867,4.148 1.95733,0.882666 2.80666,1.476 4.93066,1.681333 1.69734,0.162667 3.62267,0.157333 5.19467,0.697333 3.65067,1.253334 5.60267,5.118667 9.048,6.633336 1.74133,0.76666 4.07067,0.53733 5.94,1.03066 2.24667,0.592 4.384,1.53467 6.384,2.70934 1.816,1.06666 3.392,1.17333 5.43333,1.67466 2.79467,0.68667 5.77734,1.624 8.54,2.70134 3.53867,1.38 6.71467,3.236 10.39334,4.21066 8.87733,2.34934 14.95866,1.41067 23.00133,-1.056 8.24133,-2.52666 12.988,0.404 12.70133,6.32 -0.0907,1.872 -0.68533,4.044 -1.832,6.436 -2.228,4.64667 -8.35333,7.05067 -13.288,6.608 -5.68266,-0.51066 -11.276,-1.692 -16.78666,-3.14133 -2.956,-0.77733 -6.22667,-1.68667 -9.33867,-1.256 -1.552,0.21467 -3.02533,0.828 -4.43467,1.43333 -5.12,2.19467 -11.044,3.88267 -16.596,4.40134 -4.996,0.46666 -10.47066,0.53066 -14.94,2.92133 -4.26933,2.284 -6.83333,6.16 -9.59066,9.992 -2.38934,3.32267 -4.75734,6.776 -6.28534,10.59333 -1.57866,3.94 -1.05466,7.888 -0.50533,12.02667 0.20667,1.552 0.009,2.92933 0.0413,4.41467 0.032,1.52 0.71334,2.72 1.15867,4.16266 1.55467,5.02934 -1.72267,9.41867 -3.48667,13.73467 -1.41866,3.47467 0.49867,8.82267 0.63334,12.48933 0.15733,4.32267 -0.21867,8.75333 -0.004,13.09467 0.15866,3.21333 -1.09067,6.96266 -4.268,8.404 -1.648,0.748 -3.62267,0.68533 -5.40934,1.052 -1.488,0.30533 -2.904,0.36666 -4.39333,-0.10534 -3.16267,-1.00133 -3.74267,-4.76666 -5.09066,-7.468 -1.6,-3.20666 -4.52934,-5.316 -6.232,-8.468 -1.65334,-3.06 -1.376,-6.048 -4.58934,-8.10266 -1.14533,-0.73334 -1.84666,-1.59734 -2.30533,-2.55867 z"
     id="path4"
     style="stroke-width:1.33333" /><path
     opacity="0.2"
     d="m 182.57466,171.27066 c -1.42,-1.644 -2.73733,-3.37866 -3.72666,-5.308 -1.91067,-3.724 -2.48134,-7.91066 -3.516,-11.91866 -1.09867,-4.25067 -3.076,-8.20267 -4.5,-12.348 -1.98267,-5.77467 -3.30667,-12.47334 -1.30934,-18.472 0.70134,-2.10534 2.40667,-3.948 3.792,-5.66267 6,-7.43067 12.98934,-12.9 22.072,-16.02 5.776,-1.983999 12.14133,-1.941332 17.62133,0.76533 4.67334,2.30934 9.64667,3.95067 14.21734,6.48534 4.71333,2.61333 10.04266,4.35066 15.15066,6.33466 3.86267,1.50134 7.53467,2.80134 11.26934,4.59334 1.824,0.87466 3.912,1.384 5.504,2.50133 -2.56667,0.29067 -5.49334,-0.76267 -7.98934,-1.32267 -3.55066,-0.79733 -6.30933,-2.768 -10.112,-2.33733 -1.70666,0.19333 -3.36666,0.68 -5.032,1.184 -2.188,0.66133 -4.38666,1.35333 -6.72533,1.44933 -4.61333,0.19067 -1.936,-2.12666 -2.72667,-4.82133 -1.00133,-3.408 -7.584,-5.08267 -10.484,-5.87467 -5.69866,-1.556 -11.61866,-2.04133 -17.49999,-1.75333 -2.65734,0.13067 -5.76667,0.41333 -7.81067,2.2 -2.064,1.804 -3.38267,4.37733 -5.08133,6.496 -1.80267,2.248 -3.928,4.24667 -5.72134,6.52267 -2.612,3.31733 -5.748,6.41066 -6.70666,10.676 -1.05467,4.69333 -0.89334,8.86133 0.81466,13.45066 2.656,7.14 6.37734,13.70934 10.68934,19.912 3.788,5.448 10.56666,15.13867 18.46533,10.8 -1.256,0.912 -2.192,2.19334 -3.368,3.20667 -1.17467,1.01333 -2.77467,1.77067 -4.25733,1.31733 -0.744,-0.228 -1.36667,-0.732 -1.96267,-1.232 -3.508,-2.944 -6.81733,-6.124 -9.89867,-9.512 -0.39466,-0.43066 -0.78533,-0.868 -1.168,-1.312 z"
     id="path6"
     style="stroke-width:1.33333;fill:#000000;fill-opacity:1" /><path
     opacity="0.2"
     d="m 176.30266,170.84933 c 2.336,3.97067 5.348,7.60267 8.01334,11.272 2.00266,2.756 3.656,6.67867 7.26133,7.30267 -1.496,-1.13734 -3.05867,-2.06534 -3.74267,-3.896 -0.47066,-1.25867 -0.43333,-2.50934 -0.0413,-3.712 0.37467,-1.152 0.74,-1.26267 0.116,-2.41467 -0.84267,-1.55733 -2.45333,-2.73867 -3.836,-3.73333 -1.548,-1.11334 -2.9,-2.38934 -4.38,-3.56534 -1.236,-0.98133 -3.10133,-1.98133 -3.39067,-1.25333 z"
     id="path7"
     style="stroke-width:1.33333;fill:#000000;fill-opacity:1" /><path
     fill="#cd976d"
     d="m 316.53999,114.136 c 3.94934,-4.69734 12.81334,-3.404 18.23867,-3.45734 3.25066,-0.032 8.32266,-0.0867 10.79466,-2.432 2.33067,-2.21066 2.03067,-6.704 4.84267,-8.637329 2.79867,-1.925333 6.688,-1.228 9.27333,1.165329 1.708,1.58134 2.16667,3.76934 1.65734,5.98934 -0.256,1.11466 -0.7,2.18 -1.20667,3.20133 -0.48667,0.98133 -1.43333,1.724 -1.75067,2.784 -0.192,0.64133 -0.0507,1.57467 -0.44266,2.16933 -0.26667,0.404 -0.872,0.65467 -1.29467,0.89067 -0.58267,0.324 -1.22667,0.49333 -1.84267,0.77867 -0.58666,0.27333 -1.13866,0.65866 -1.472,1.24 -0.208,0.36133 -0.37866,0.748 -0.64533,1.06533 -0.38533,0.456 -0.87333,0.85467 -1.31467,1.26133 -0.97066,0.896 -2.12266,1.45867 -3.28533,2.07334 -1.188,0.628 -2.38,1.24533 -3.58667,1.83733 -4.73866,2.32133 -9.712,4.14 -14.98399,4.72133 -3.27467,0.36134 -10.14534,2.05067 -13.084,-0.0733 -3.45067,-2.49333 -2.28934,-11.70667 0.10266,-14.57733 z"
     id="path9"
     style="stroke-width:1.33333" /><path
     id="path10"
     style="stroke-width:1.33333;fill:#000000;fill-opacity:1;opacity:0.2"
     d="m 316.45866,115.01333 c 0.044,0.003 0.0907,0.0107 0.136,0.024 0.384,0.104 0.33733,0.948 0.32,1.29067 -0.084,1.648 -0.37867,3.488 0.32667,5.05466 0.23066,0.512 0.66666,0.84934 1.13733,1.128 1.524,0.90267 3.20267,1.57467 4.92,2.00267 1.97467,0.492 4.21467,0.072 6.19733,-0.216 1.088,-0.15867 2.08667,-0.62667 3.16,-0.84933 1.852,-0.38534 3.70133,-0.76534 5.532,-1.24934 1.84,-0.48666 3.66533,-0.812 5.424,-1.54933 0.992,-0.416 1.964,-0.96533 2.86267,-1.56 2.43866,-1.616 5.21466,-3.356 5.056,-6.65733 -0.0307,-0.65467 -0.37067,-1.588 0.408,-1.79067 0.98533,-0.25733 1.82933,0.72133 2.016,1.524 1.648,-0.16 2.684,-2.75467 2.752,-4.164 0.044,-0.91733 -0.956,-3.09067 -0.42267,-3.86933 0.54267,-0.78934 1.304,0.41866 1.97733,-0.068 0.81734,-0.59067 -0.13066,-2.10267 -0.40533,-2.75734 -0.396,-0.93866 -0.53867,-1.647996 0.684,-1.321329 2.03333,0.543999 2.78267,2.390669 2.98933,4.357329 0.088,0.84 -0.009,1.688 -0.204,2.50667 -0.40533,1.69733 -1.22,3.27867 -2.08533,4.78267 -0.612,1.06533 -1.132,2.17733 -1.75333,3.23866 -0.688,1.17867 -1.66934,1.48134 -2.78,2.07734 -0.684,0.36666 -1.072,0.76266 -1.49467,1.40933 -0.32933,0.50533 -0.72,0.90533 -1.2,1.27467 -0.25467,0.196 -0.5,0.392 -0.744,0.608 -0.948,0.836 -2.03067,1.38 -3.14533,1.96933 -1.18934,0.62933 -2.38534,1.24933 -3.59334,1.84133 -4.74666,2.328 -9.728,4.152 -15.01199,4.73467 -3.27467,0.36133 -10.14534,2.05067 -13.084,-0.0733 -1.948,-1.408 -2.20534,-4.39334 -2.15734,-6.584 0.02,-0.95067 0.49867,-7.23867 2.18267,-7.11467 z m -2.69733,2.52533 c -10e-4,-0.0173 -0.005,-0.0333 -0.007,-0.0507 -0.0333,-0.372 -0.0867,-0.72934 -0.16267,-1.07334 -0.348,-0.50533 -0.832,-0.92266 -1.508,-1.19333 -0.012,0.93467 -0.06,2.04667 0,2.97733 -0.0933,-0.59466 -0.42533,-1.17066 -0.93733,-1.54 -0.67333,1.25067 -1.59867,2.33334 -2.27733,3.584 -0.44534,0.82134 -0.81867,1.75867 -1.38,2.52267 -1.37334,1.87467 -4.53734,2.588 -6.68667,2.70933 -0.0187,-0.028 -0.0413,-0.052 -0.068,-0.072 0.35333,-0.55333 0.852,-0.90933 1.152,-1.50266 1.12,-2.21334 0.64933,-4.65867 0.684,-7.01734 -1.372,3.384 -4.57467,6.21067 -7.992,7.36667 -3.20667,1.08533 -6.91067,0.35733 -10.192,0.124 -5.112,-0.36267 -10.83333,-1.192 -14.71067,-4.77867 -0.91333,-0.84533 -1.77466,-2.04666 -2.73066,-2.80266 -2.27334,-1.80267 -5.70534,-1.132 -8.39334,-1.39734 -1.992,-0.196 -2.896,-1.58933 -4.352,-2.86933 -1.72666,-1.51867 -4.02,-3.11333 -6.172,-3.92667 -3.392,-1.28133 -7.184,-0.25466 -10.72,-0.624 -4.88133,-0.50933 -8.04133,-4.608 -11.76666,-7.19066 -2.6,-1.802669 -6.17467,1.052 -8.82934,-0.52 -3.196,-1.893336 -4.99466,-4.892002 -9.14666,-4.490669 -1.66134,0.161333 -3.07067,0.769333 -4.768,0.289333 -1.572,-0.445333 -2.55334,-1.654666 -3.984,-2.352 -2.148,-1.046666 -5.116,-1.126666 -7.02,0.381334 -0.74533,0.590666 -0.82667,0.970666 -1.924,1.261333 -1.96533,0.518667 -4.09067,1.378667 -6.09467,1.650667 -1.02,0.138666 -2.00133,0.122666 -3.00533,0.330666 -1.12133,0.230667 -2.252,0.157334 -3.36533,0.386667 -1.17867,0.242667 -2.296,0.722667 -3.39467,1.198667 -0.612,0.265333 -1.21067,0.590666 -1.82,0.814666 -0.86,0.315996 -1.78267,0.318666 -2.652,0.578666 -0.71067,0.212 -1.20267,0.69867 -1.73867,1.21867 -1.10266,1.072 -2.00133,2.34533 -2.628,3.75066 -1.064,2.38667 -2.40666,4.48534 -4.248,6.40534 -0.9,0.93866 -2.20266,1.73733 -3.03466,2.76266 -1.74934,2.15334 -0.40667,5.044 -0.588,7.476 -0.144,1.92934 -1.10667,2.66267 -1.836,4.236 -1.48,3.192 1.94133,6.23734 1.66,9.416 -0.29734,3.36134 -2.196,5.648 -1.56934,9.02267 0.36534,1.96533 0.94134,4.08 2.70134,5.26667 -0.47734,-1.62534 -1.276,-3.224 -1.384,-4.904 -0.12667,-1.98934 0.71066,-4.28267 1.248,-6.108 0.75733,-2.572 2.07066,-5.728 1.10533,-8.41867 -0.73067,-2.036 -2.72267,-2.80267 -1.376,-5.188 1.044,-1.84933 1.7,-3.26933 2.012,-5.37333 0.28267,-1.91467 0.42,-3.932 1.24933,-5.71067 0.44667,-0.95733 1.288,-1.69333 1.85334,-2.56267 0.66933,-1.032 1.768,-1.748 2.608,-2.62933 1.01733,-1.06667 1.53333,-2.54533 2.61733,-3.58667 1.13867,-1.092 2.68,-2.41066 4.32933,-2.524 0.53467,-0.036 1.772,0.18934 1.96934,0.81334 0.176,0.55333 -0.57734,1.436 -0.90134,1.82266 -0.98933,1.18 -2.33733,1.97867 -3.45733,3.01867 -1.50133,1.39467 -2.596,3.37067 -3.10667,5.30533 -0.26133,0.98934 -0.36666,2.01334 -0.856,2.89867 -0.528,0.95467 -1.168,1.89467 -1.93733,2.67333 -1.07333,1.08534 -2.056,1.69334 -2.31067,3.33334 -0.30133,1.948 0.17734,4.01866 0.088,5.98533 -0.0707,1.54933 -0.79333,2.89067 -0.94933,4.46 -0.23067,2.31333 0.512,4.61333 0.38133,6.864 -0.0893,1.55067 -0.81466,3.084 -0.75066,4.61733 0.0773,1.84534 1.176,3.076 1.60533,4.74667 0.49467,1.92133 1.308,3.74133 2.304,5.45333 1.96267,3.372 4.57733,6.29467 6.84533,9.45467 1.228,1.71067 3.80134,5.184 5.664,5.99467 -0.98666,-2.18134 -2.448,-4.116 -3.42,-6.30534 -0.90933,-2.048 -0.82933,-4.16 -1.63333,-6.19733 -2.492,-6.312 -6.19067,-13.23067 -6.58933,-20.15467 -0.428,-7.43333 2.22666,-15.19733 6.42666,-21.228 3.096,-4.44533 6.32934,-8.844 11.22134,-11.21066 2.08266,-1.008 4.25066,-1.972 6.45466,-2.40134 0.668,-0.12933 4.42,-1.01466 4.36134,0.0387 -0.0173,0.30933 -9.44,3.55733 -10.53734,4.25733 -2.16133,1.37867 -4.38666,2.844 -6.14,4.67467 -1.95333,2.04 -3.03733,4.48133 -4.48933,6.84933 -1.01067,1.648 -1.96667,3.34134 -2.484,5.20267 -0.21867,0.78667 -0.90133,4.95333 -0.0613,5.37467 0.46933,0.236 4.68266,-7.82934 5.12,-8.39067 2.26,-2.9 5.344,-5.02667 8.43066,-6.95867 1.54934,-0.97066 5.77734,-4.47866 5.81067,-0.416 0.0173,2.11734 -3.156,4.196 -4.47333,5.43334 -5.29734,4.97866 -11.988,10.49466 -12.532,18.32 -0.23067,3.31333 0.68933,6.83066 1.66266,9.97733 0.64,2.07067 1.496,4.07467 2.548,5.96933 0.516,0.93067 1.05467,1.924 1.724,2.756 0.50667,0.63067 1.61734,1.284 1.496,2.22267 0.15334,-1.17333 -0.224,-2.42933 0.0133,-3.69067 0.28533,-1.516 1.86133,-2.52133 3.00133,-3.47066 1.23733,-1.02934 2.67467,-1.632 4.29467,-1.672 4.84666,-0.12 9.02133,0.17066 13.60399,-1.356 -0.90933,2.036 -4.71999,2.77066 -6.59599,3.412 -2.26934,0.77733 -3.968,1.91466 -5.53067,3.712 -1.676,1.92666 -3.372,4.912 -2.61467,7.49733 1.48534,5.072 6.39067,11.64667 12.10134,12.17733 2.87466,0.26667 7.09866,0.23467 9.63466,-1.37733 1.52,-0.96533 3.46933,-4.57867 5.51467,-4.25067 3.18133,0.51067 -0.188,5.64267 -1.38534,6.53734 -2.39733,1.79066 -5.01733,3.32666 -7.30933,5.38933 -0.75867,0.68267 -1.94133,1.588 -2.48533,2.43333 -0.628,0.976 -0.508,2.86267 1.02933,2.172 1.09333,-0.492 2.3,-3.10266 3.184,-4 1.1,-1.116 4.02267,-3.00133 5.76667,-2.19466 3.64,1.68266 -0.592,7.87333 -1.86534,9.684 -1.024,1.456 -2.05066,2.89333 -3.34133,4.14 -1.02667,0.992 -2.04667,1.39466 -1.43333,2.59866 0.95333,1.87334 4.62133,3.79467 3.872,6.28667 -0.28934,0.96133 -1.51334,1.404 -1.916,2.248 -0.724,1.516 0.72133,2.21733 1.55866,3.47066 0.96934,1.45067 1.69067,3.54934 0.64534,5.1 -0.62667,0.928 -2.42,1.66 -3.47734,1.09067 -0.91333,-0.49067 -1.844,-2.65333 -2.464,-3.51067 -1.108,0.55467 -1.78666,1.252 -2.37866,-0.288 -0.584,-1.51733 0.19866,-1.83733 -1.356,-2.80533 -1.52267,-0.948 -5.60267,-1.97333 -4.69733,-4.35867 0.46,-1.21066 2.05733,-1.47866 1.34,-2.95066 -0.572,-1.17333 -2.15067,-1.05067 -3.12667,-1.61067 -0.776,-0.44533 -0.84933,-0.92533 -1.39467,-1.58 -1.116,-1.33733 -2.73866,-1.87066 -4.21333,-2.68 -1.29467,-0.71066 -1.76933,-1.20133 -2.48533,-2.40266 -0.75734,-1.272 -1.40534,-1.65467 -2.656,-2.75867 0.97866,1.85067 1.91066,3.22533 2.192,5.38133 0.34533,2.64534 1.65066,5.39867 3.364,7.42267 1.65866,1.95866 3.70266,3.856 4.07466,6.53066 0.42134,3.02934 0.94934,4.464 3.196,6.61734 1.16934,1.12 2.276,2.04 2.904,3.52933 0.504,1.19467 0.85734,2.412 1.644,3.55733 4.60933,6.708 13,4.23467 17.38667,-1.40133 2.08666,-2.68 1.87733,-6.08 1.46133,-9.40133 -0.39333,-3.14134 -0.42933,-6.50267 -1.23733,-9.62667 -0.864,-3.33866 -0.85067,-6.39333 0.39733,-9.816 1.17067,-3.212 2.66133,-6.34266 3.23333,-9.74 0.0307,-0.192 0.076,-0.384 0.10134,-0.57466 0.064,-0.47734 0.10533,-0.94667 0.124,-1.40534 0.003,-0.052 0.005,-0.104 0.007,-0.15466 0.0133,-0.46934 0,-0.924 -0.0427,-1.356 -0.004,-0.0413 -0.012,-0.0827 -0.0173,-0.12267 -0.0427,-0.364 -0.11466,-0.70267 -0.204,-1.028 -0.308,-0.93333 -0.90666,-1.85867 -0.936,-2.81467 -0.13866,-0.49066 -0.24933,-0.99066 -0.26,-1.53733 -0.0307,-1.48667 0.16534,-2.86267 -0.0413,-4.41467 -0.55067,-4.13866 -1.07333,-8.08666 0.50533,-12.02666 1.52934,-3.81867 3.896,-7.272 6.28534,-10.59334 2.75733,-3.832 5.32133,-7.708 9.59066,-9.992 4.46934,-2.39066 9.944,-2.45466 14.94,-2.92133 5.552,-0.51867 11.476,-2.20667 16.596,-4.40133 1.41067,-0.604 2.88267,-1.21867 4.43467,-1.43334 3.112,-0.43066 6.38267,0.47734 9.33867,1.256 5.14,1.352 10.684,2.93067 16.036,3.088 7.99866,0.23467 15.46133,-4.50933 15.872,-12.99066 0.02,-0.42 0.012,-0.81867 -0.02,-1.20134 z" /><path
     opacity="0.2"
     d="m 179.92933,139.816 c 0.14,-0.69467 0.51867,-1.39334 0.75867,-2.03334 0.872,-2.32933 1.96266,-4.576 3.25066,-6.704 0.80534,-1.32933 1.66667,-2.84133 2.748,-3.968 0.90534,-0.944 2.11467,-1.31733 3.22667,-1.94666 0.808,-0.45734 1.78,-0.82267 2.46667,-1.41467 1.28266,-1.10533 1.96133,-2.70267 3.04533,-3.97467 1.16133,-1.364 2.428,-2.08266 4.07333,-2.78666 3.44667,-1.476 7.31867,-2.36534 11.072,-1.80134 2.49733,0.376 6.848,2.93334 9.11867,0.88667 3.468,-3.12533 -1.084,-5.34267 -3.62534,-5.912 -4.04666,-0.90667 -7.77866,-1.28133 -11.816,-1.72 -2.00933,-0.21867 -3.76133,-1.116 -5.85866,-0.94533 -3.91333,0.32 -6.23733,3.10133 -8.48133,6.06133 -2.47067,3.26 -4.72134,6.50667 -7.38534,9.716 -4.63333,5.58133 -10.116,11.216 -9.30533,19.076 0.468,4.52933 3.17867,8.332 4.76,12.49467 0.62267,1.63866 1.98533,3.19866 3.096,4.52133 1.35333,1.612 2.768,3.21733 4.53067,4.396 -0.82267,-1.87067 -1.71734,-3.768 -2.628,-5.59467 -1.336,-2.67866 -3.588,-5.67333 -2.51067,-8.82666 0.58,-1.69734 0.78533,-3.52534 0.50933,-5.33067 -0.17866,-1.16933 -0.872,-2.18533 -1.072,-3.34267 -0.048,-0.28133 -0.0307,-0.56666 0.0267,-0.85066 z"
     id="path14"
     style="stroke-width:1.33333;fill:#000000;fill-opacity:1" /><path
     opacity="0.2"
     d="m 187.96933,144.924 c -2.76,0.77066 -1.336,-3.96 0.21333,-5.93867 3.54,-4.51867 7.77867,-10.036 12.20533,-13.692 3.56267,-2.94133 10.23067,-4.22933 14.48,-2.20933 6.276,2.98133 1.832,11.12666 -0.31333,15.496 -2.04933,4.17466 -2.59467,8.824 -3.63067,13.304 -0.952,4.11333 -2.84666,6.68266 -6.57333,8.89066 -3.744,2.21867 -9.52666,1.06667 -11.67733,-2.93066 -2.98667,-5.55067 6.46,-4.87734 8.80133,-7.12667 1.26933,-1.22 1.772,-3.03867 1.944,-4.79067 0.17067,-1.752 0.0667,-3.53066 0.372,-5.26533 0.388,-2.196 2.404,-5.84533 0.82533,-7.93067 -1.024,-1.352 -2.28133,-0.444 -3.12266,0.472 -1.776,1.93334 -3.56933,3.83467 -5.45867,5.67867 -1.99866,1.95067 -4.22533,3.856 -6.59466,5.33733 -0.58534,0.368 -1.072,0.59467 -1.47067,0.70534 z"
     id="path15"
     style="stroke-width:1.33333;fill:#000000;fill-opacity:1" /><path
     d="m 307.46266,130.848 c 1.288,-0.572 4.99067,-2.05067 6.11867,-2.09334 -0.27734,0.0107 -3.88934,-0.16933 -2.79467,-0.98133 -0.69333,0.51333 -1.36533,0.90667 -1.928,1.56133 -0.348,0.40534 -0.90133,1.29467 -1.396,1.51334 z"
     id="path18"
     style="stroke-width:1.33333;fill:#000000;fill-opacity:1" /><path
     id="path19"
     style="stroke-width:1.33333;fill:#000000;fill-opacity:1"
     d="m 176.36533,172.57733 c 1.54133,2.59333 3.06133,5.20133 4.744,7.70533 1.636,2.43334 3.42,4.90934 5.58267,6.908 1.792,1.656 4.27733,2.34534 5.704,4.50667 0.43733,0.66267 0.59866,1.54667 1.29333,2.07067 0.86933,0.65466 2.18533,0.752 3.164,1.33066 0.972,0.57467 1.252,1.152 1.78,2.084 0.732,-1.81466 0.14,-2.82666 0.28,-4.60533 0.11333,-1.43867 1.372,-2.304 1.52,-3.73067 -2.63333,0.25867 -2.49067,3.70534 -5.204,3.19067 -1.19333,-0.22667 -1.83333,-1.28 -2.46,-2.208 -0.78,-1.156 -1.43333,-1.62667 -2.46,-2.47467 -2.484,-2.05333 -4.672,-4.99733 -6.67867,-7.508 -1.75066,-2.192 -3.62533,-4.068 -4.68133,-6.748 3.256,1.57067 5.36133,5.92667 9.52533,5.97734 -2.31333,-2.13867 -4.92533,-3.93067 -7.20666,-6.10667 -2.00534,-1.912 -3.47334,-4.43333 -5.64134,-6.168 -6.37466,-5.10267 -10.02666,-12.56667 -13.08,-19.93467 -0.43866,-1.05733 -0.88533,-2.16533 -0.79733,-3.30666 0.06,-0.768 0.35733,-1.49334 0.55333,-2.23734 0.53734,-2.044 -0.12533,-4.07333 -0.15066,-6.12133 -0.0227,-1.912 1.27066,-3.55867 1.41066,-5.44933 0.112,-1.512 -0.532,-2.97734 -0.64266,-4.49067 -0.0933,-1.28267 0.20933,-2.592 0.856,-3.704 0.73866,-1.26933 1.89333,-2.25333 2.65866,-3.50667 0.772,-1.26266 1.11334,-2.73466 1.70667,-4.09066 1.71067,-3.90667 5.40267,-6.91467 8.42267,-9.79867 2.21733,-2.11867 4.84,-4.01467 7.75466,-4.765332 2.53467,-0.653334 5.05334,-0.453334 7.63334,0.044 4.69733,0.906662 9.48133,2.497332 14.11999,3.613332 1.672,0.40267 3.048,0.816 4.62,1.50267 5.776,2.524 12.02934,3.96 17.60134,6.876 7.01333,3.67066 14.444,4.928 21.704,8.01733 1.96533,0.836 3.99733,1.70133 5.956,2.4 4.46266,1.592 9.22933,3.272 14.13866,4.764 8.62134,2.62133 18.39334,5.592 28.444,6.49467 5.68,0.50933 8.96934,-2.44 13.20134,-5.548 1.692,-1.24267 3.552,-1.42 5.39466,-2.32 -2.42533,-2.18934 -6.12533,0.58 -7.96266,2.25466 -1.348,1.22934 -1.876,2.028 -3.82,2.492 -2.064,0.492 -4.22934,0.48934 -6.336,0.36534 -7.90667,-0.46134 -15.67734,-2.25334 -23.31467,-4.352 -12.2,-3.35334 -24.18,-7.51067 -35.83733,-12.42934 -10.064,-4.24666 -19.90934,-9.06666 -30.284,-12.484 -9.57067,-3.153329 -20.09733,-5.341329 -30.20667,-4.038662 -0.92266,0.118666 -1.76933,0.597333 -2.692,0.817333 -1.02533,0.244 -2.07066,0.397333 -3.088,0.674667 -1.72266,0.469333 -3.55866,1.078666 -5.20933,1.852002 -1.22,0.57066 -1.944,1.68933 -2.50133,2.884 -0.31867,0.68266 -0.44267,1.46 -0.848,2.09333 -0.512,0.79733 -1.268,1.44267 -1.79867,2.23333 -1.184,1.764 -1.88933,4.09734 -3.668,5.404 1.076,-0.96266 2.208,-1.96666 3.18667,-3.03466 0.59866,-0.65467 1.168,-1.32 1.82666,-1.94134 0.492,-0.464 0.988,-0.796 1.20267,-1.43066 0.53067,-1.56534 0.28133,-2.95467 2.01333,-3.65467 1.612,-0.652 2.63734,-1.88267 4.136,-2.62667 1.124,-0.557329 2.22934,-1.107996 3.41467,-1.517329 1.62533,-0.56 3.50133,-0.290667 5.16533,-0.06 -1.17066,-0.162667 -4.20933,2.715999 -5.096,3.437329 -2.04933,1.66934 -3.86933,3.62667 -5.76533,5.45067 -0.784,0.75467 -1.44533,1.67333 -2.10267,2.54267 -1.12666,1.49333 -1.828,3.312 -2.16133,5.11866 -0.30267,1.64 -1.168,2.86 -2.15467,4.204 -1.304,1.776 -2.85733,3.45467 -2.27066,5.77067 0.33866,1.33867 0.52,2.696 -0.007,3.988 -0.528,1.29467 -0.588,2.67467 -0.65733,4.07733 -0.152,3.112 0.0147,6.244 -0.42534,9.33867 -0.12266,0.868 -0.372,1.628 -0.29733,2.54933 0.12533,1.53067 0.92933,2.704 1.71867,3.97067 1.04666,1.68 1.656,3.56267 2.58266,5.292 1.99334,3.72 4.92134,6.836 7.42134,10.236 1.85866,2.51733 3.47733,5.18133 5.06933,7.86 z M 195.10266,154.572 c 2.21467,2.00533 6.40933,4.26 10.032,0.284 3.62267,-3.976 8.08133,-16.19067 4.73733,-10.79334 -3.344,5.39734 -7.80266,10.22534 -9.47466,10.50934 -1.672,0.284 -7.80267,-2.272 -5.29467,0 z m -8.37333,-13.956 c 1.51333,-2.15334 2.36,-4.89867 3.29733,-7.356 0.57467,-1.50667 1.52,-1.97334 2.83334,-2.88134 2.08266,-1.44133 4.27466,-3.016 5.86,-5.016 0.70933,-0.89466 1.10666,-2.12133 1.97999,-2.88266 0.928,-0.80934 2.56267,-1.052 3.74667,-1.30534 2.604,-0.556 4.90267,-0.668 7.44933,0.148 1.08534,0.348 1.892,0.58534 3.01734,0.64134 1.38266,0.068 2.372,0.0933 3.34666,1.21066 2.39334,2.74 -0.48266,6.36667 -1.51333,8.93067 -0.876,2.18133 -1.7,3.628 -3.54133,5.22 -0.89734,0.776 -4.63734,3.58933 -5.99867,2.984 -1.94,-0.86267 -0.38667,-5.49733 -0.308,-6.92 0.092,-1.656 0.212,-3.34 -0.076,-4.984 -0.14267,-0.81067 -0.14133,-1.46933 -0.97067,-1.83467 -0.69066,-0.304 -1.57066,-0.248 -2.24933,0.0587 -1.08,0.48933 -1.548,1.648 -2.40933,2.404 -1.08934,0.95733 -3.02133,1.37067 -4.336,2.08933 -1.93467,1.05867 -2.89733,1.85334 -3.56133,3.98534 -0.652,2.09333 -2.31867,4.12666 -4.04267,5.43066 -0.52667,0.39867 -2.108,1.85734 -2.876,1.68 -0.77333,-0.17733 0.0613,-1.18933 0.352,-1.60266 z M 191.76,168.06533 C 186.52266,164.46 181.22666,158.968 178.27733,153.31466 174.904,146.84933 171.604,138.272 176.104,131.78266 c 2.028,-2.924 4.51333,-5.50133 6.62933,-8.36 2.08,-2.80933 3.62533,-5.93333 6.09867,-8.452 1.88933,-1.924 4.03733,-4.948 6.656,-5.69866 2.988,-0.856 6.13733,-0.352 9.15466,0.0507 2.684,0.35734 5.36933,0.54534 8.072,0.82934 0.94533,0.0987 1.904,0.0427 2.86267,0.064 1.22666,0.028 2.44,0.3 3.66666,0.388 2.19067,0.15733 4.40134,0.41333 6.59867,0.66933 0.74667,0.0867 4.43333,1.16 5.11867,0.44933 -0.37867,-0.60266 -0.86934,-0.87466 -1.55734,-1.07066 -2.032,-0.58134 -4.16933,-0.824 -6.27066,-1.11067 -3.87334,-0.52933 -7.776,-1.368 -11.69734,-1.356 -2.10666,0.007 -4.14266,-0.596 -6.21466,-0.88933 -1.97067,-0.27867 -4.07467,-0.33334 -6.05467,-0.12934 -3.63066,0.37334 -8.55066,1.772 -11.29066,4.288 -3.16267,2.90267 -5.452,7.56267 -8.024,11.01067 -2.80134,3.75467 -6.27867,7.568 -7.62,12.032 -1.40934,4.69333 -0.66267,8.7 1.128,13.176 3.42133,8.55333 22.28666,39.828 33.96533,25.00533 4.212,-5.34533 6.09466,-13.504 8.352,-19.66533 -4.22934,7.104 -9.028,25.29733 -19.12,18.37867 -0.0813,-0.056 -4.716,-3.27067 -4.79733,-3.32667 z m -12.31734,-25.992 c -0.12266,-0.38533 -0.22266,-0.78 -0.28266,-1.192 -0.28534,-1.96667 0.64266,-3.88933 1.43866,-5.62933 0.93734,-2.048 1.64667,-4.18134 2.76134,-6.13067 1.508,-2.636 4.64266,-3.068 6.48133,-5.33333 1.67333,-2.06134 2.85733,-4.10134 5.13733,-5.54534 1.88667,-1.19466 3.88134,-2.224 5.96267,-3.03466 4.05733,-1.58 8.49866,-2.32934 12.83066,-1.66134 1.39067,0.21467 2.75734,0.572 4.07334,1.07067 0.67733,0.25733 1.34133,0.55067 1.988,0.88 0.244,0.124 1.64533,1.12 1.82266,1.048 -4.20133,1.716 -9.28133,-0.27467 -13.732,0.13867 -3.508,0.32533 -7.19866,1.21466 -10.04933,3.348 -2.192,1.64133 -3.02533,4.744 -5.72533,5.77066 -2.38,0.90534 -4.89067,1.47867 -6.56533,3.508 -1.69467,2.056 -3.06267,4.43067 -3.924,6.95467 -0.43067,1.26267 -0.64134,2.576 -0.71867,3.904 -0.0853,1.44667 0.33867,2.38933 0.7,3.768 0.60933,2.32267 0.316,4.98933 -0.53467,7.196 -0.288,0.748 -0.65733,1.688 -0.468,2.51733 0.19067,0.83467 1.068,1.636 1.50134,2.34934 -1.05334,-0.63867 -2.46534,-2.19334 -2.61467,-3.516 -0.16933,-1.48667 0.23333,-3.028 0.68267,-4.43067 0.316,-0.984 0.74533,-1.83867 0.41866,-2.87467 -0.332,-1.05466 -0.84533,-2.04533 -1.184,-3.10533 z" /><path
     id="path8"
     style="stroke-width:1.33333;fill:#000000;fill-opacity:1"
     d="M 194.15039 85.15625 C 192.94739 85.169917 191.74997 85.245859 190.41797 85.255859 C 187.33797 85.278529 184.25717 85.263685 181.20117 85.708984 C 178.40517 86.116984 173.75567 86.134821 171.76367 88.521484 C 170.013 90.618815 169.71914 92.691767 167.25781 94.259766 C 163.66315 96.550429 159.82212 97.781835 157.7168 101.8125 C 156.3608 104.4085 155.97287 107.40328 154.79688 110.08594 C 152.86621 114.48993 148.80697 118.12446 148.54297 122.92578 C 148.37497 125.98045 149.81176 128.86623 150.48242 131.85156 C 151.36642 135.79156 150.9023 139.90896 150.1543 143.87695 C 149.79963 145.76228 149.3818 147.71413 149.8418 149.57812 C 150.7738 153.34745 154.18453 154.34752 156.64453 156.74219 C 157.62586 157.69686 158.20252 159.24335 159.11719 160.30469 C 160.22119 161.58602 161.57927 162.52219 162.58594 163.88086 C 163.44727 165.04353 164.14449 166.30767 164.89648 167.48633 C 165.74715 168.81833 166.75299 169.86092 167.70898 171.04492 C 168.88098 172.49825 169.68812 174.37375 170.68945 175.95508 C 173.23478 179.97641 176.70194 183.2406 179.36328 187.16992 C 180.77128 189.24859 182.84848 191.27199 183.75781 193.58398 C 184.67114 195.90531 184.78086 198.54425 186.01953 200.74023 C 186.95286 202.3949 188.68459 203.80622 189.80859 205.43555 C 190.66592 206.67955 191.17575 207.55641 191.20508 209.09375 C 191.22508 210.17908 191.25044 210.92322 191.73047 211.83789 C 192.63981 213.56855 194.11139 215.38708 195.41406 216.81641 C 197.28739 218.87374 197.95502 220.90658 199.06836 223.50391 C 199.92969 225.5119 200.83922 226.56614 202.69922 227.49414 C 206.30322 229.29147 211.90388 228.14089 215.31055 225.85156 C 219.45987 223.06357 221.20207 217.35945 221.05273 212.57812 C 220.9074 207.8968 220.63281 203.27034 220.63281 198.54102 C 220.63281 196.02502 220.26083 193.43502 220.57812 190.92969 C 220.82878 188.95236 222.09791 187.55017 222.25391 185.46484 C 222.46324 182.66485 221.58167 179.84459 219.375 178.16992 C 218.38167 179.37126 218.77786 181.13541 218.86719 182.69141 C 219.14986 187.55674 216.50123 192.22807 216.36523 197.16406 C 216.27323 200.48805 216.61102 203.80147 216.92969 207.10547 C 217.18569 209.76413 217.95426 213.03077 217.18359 215.63477 C 215.99693 219.64143 214.40489 223.75673 209.71289 224.27539 C 206.77289 224.60073 203.29739 224.10628 201.52539 221.59961 C 200.72272 220.46361 200.3551 218.97403 199.78711 217.7207 C 199.26577 216.5727 198.99152 215.15201 198.74219 213.91602 C 198.50352 212.73202 197.96584 211.22706 197.95117 210.03906 C 197.96587 211.20706 197.12308 212.73017 197.45508 213.82617 C 196.98041 213.48884 196.69873 213.01337 196.30273 212.60938 C 195.79607 212.09338 195.26041 211.65494 194.81641 211.07227 C 194.26974 210.35361 193.47908 209.42976 193.31641 208.50977 C 193.11108 207.34844 193.63783 206.16807 193.45117 204.94141 C 192.8885 201.23341 187.25031 200.33879 186.57031 196.4668 C 186.15565 194.1028 186.76578 191.69824 185.06445 189.76758 C 184.53645 189.16758 183.81559 188.55305 183.18359 188.01172 C 178.5876 184.07972 175.94432 178.58892 172.73633 173.54492 C 170.33766 169.77426 167.57235 165.95686 164.92969 162.38086 C 162.33636 158.87152 159.61195 155.56004 156.25195 152.74805 C 155.29461 151.94671 154.29003 151.17058 153.58203 150.14258 C 152.30074 148.27992 152.1758 145.85142 152.45312 143.60742 C 152.72912 141.36342 153.3593 139.16039 153.41797 136.90039 C 153.49267 134.00172 152.62868 131.17389 152.02734 128.33789 C 151.42601 125.50189 151.1018 122.45805 152.20312 119.77539 C 152.94846 117.96205 154.28722 116.46061 155.19922 114.72461 C 156.69655 111.87127 156.95903 108.5514 158.42969 105.69141 C 159.64969 103.31675 161.71878 99.844655 164.05078 98.472656 C 166.23745 97.185991 168.66686 96.518149 170.63086 94.771484 C 172.0962 93.467486 172.66574 91.137993 174.31641 90.111328 C 177.9364 87.860663 182.85433 87.957838 186.98633 87.951172 C 192.04632 87.943172 197.08467 88.50201 202.11133 89.027344 C 209.05666 89.752676 215.84092 91.172898 222.26758 93.851562 C 223.32625 94.292895 224.38811 94.730646 225.55078 94.945312 C 227.94678 95.385312 230.84958 94.787293 233.01758 96.140625 C 234.30824 96.947291 235.30338 98.338188 236.49805 99.242188 C 237.60205 100.07818 238.7575 101.21808 239.9375 101.83008 C 241.5855 102.68608 243.69874 102.32472 245.44141 102.77539 C 246.47207 103.04205 247.47036 103.62097 248.45703 103.93164 C 249.45703 104.2463 250.65002 104.47384 251.66602 104.95117 C 252.55801 105.36984 253.14906 106.25178 254.01172 106.67578 C 255.27706 107.29844 257.32958 107.49355 258.74023 107.82422 C 262.94157 108.80822 267.00877 110.37945 271.02344 111.93945 C 274.37543 113.24212 277.6024 114.88009 281.28906 114.85742 C 282.79306 114.84842 284.38603 114.66933 285.7207 115.36133 C 285.27003 115.51066 282.55728 116.70147 282.33594 116.60547 C 283.42928 117.08414 284.97428 116.66295 286.09961 116.45898 C 287.72495 116.16432 289.37925 116.04384 291.03125 115.83984 C 293.90458 115.4865 296.78866 114.94422 299.47266 113.82422 C 302.02998 112.75755 304.63133 111.65631 307.47266 111.82031 C 308.82732 111.89761 310.60123 112.2803 311.58789 113.26562 C 312.48123 114.15762 312.75283 115.79788 314.27148 116.06055 C 314.99507 116.18578 315.45907 115.79756 315.85352 115.30273 C 317.68926 114.71719 319.92912 112.63559 320.96094 112.16016 C 324.77826 110.40149 330.09027 110.95194 334.18359 110.96094 C 334.78759 110.96194 335.36916 110.96194 335.92383 110.96094 C 337.61983 110.94627 339.33129 110.91117 341.00195 110.58984 C 342.68462 110.26584 344.09698 109.53136 345.57031 108.7207 C 345.97965 108.4967 346.31717 108.20884 346.70117 107.96484 C 347.43984 107.49417 348.42953 107.21689 349.26953 107.07422 C 348.34287 107.08089 347.50547 107.45251 346.60547 107.58984 C 346.94947 107.01118 347.2485 106.43583 347.45117 105.78516 C 347.65517 105.13183 347.79713 104.28423 348.23047 103.74023 C 348.95313 102.8309 350.78317 102.18355 351.8125 102.93555 C 351.5125 102.25822 350.76769 102.31106 350.17969 102.17773 C 350.02902 99.156405 355.32034 99.753875 357.01367 100.2832 C 356.50034 99.747208 355.49423 98.9375 354.71289 98.9375 C 356.43689 99.008167 357.80257 100.02667 359.00391 101.13867 C 359.90124 101.96934 360.46764 103.50895 360.40234 104.73828 C 360.22767 104.19161 359.96339 103.35481 359.41406 103.02148 C 359.79402 103.81215 359.81604 104.97919 359.77734 105.86719 C 359.72668 107.03785 359.56776 108.28723 359.12109 109.33789 C 359.10909 108.05256 358.96203 106.53206 358.08203 105.52539 C 358.09536 106.17472 358.38289 106.77849 358.43359 107.42383 C 358.47226 107.92783 358.40022 108.4193 358.35352 108.91797 C 358.31886 109.28464 358.29034 109.6862 358.125 110.01953 C 357.99034 110.29153 357.82322 110.49545 357.72852 110.80078 C 357.50585 111.51278 357.42739 112.26028 357.27539 112.98828 C 357.12205 113.72428 357.11117 114.61871 356.45117 115.10938 C 356.08983 115.37604 355.70292 115.36847 355.29492 115.48047 C 354.78958 115.62047 354.29983 115.77791 353.78516 115.89258 C 353.17983 116.02725 353.02653 116.04442 352.61719 116.59375 C 351.92519 117.51908 351.39506 118.69805 350.53906 119.49805 C 350.01639 119.98605 349.35473 120.30689 348.66406 120.46289 C 348.32673 120.54023 347.88503 120.46357 347.5957 120.62891 C 347.11303 120.90624 346.83738 121.56172 346.38672 121.90039 C 345.80138 122.34039 345.12247 122.62825 344.50781 123.01758 C 343.39047 123.72425 342.25851 124.21403 340.97852 124.58203 C 340.02386 124.8567 339.09616 125.02 338.16016 125.36133 C 335.59216 126.29866 332.93722 126.99271 330.22656 127.35938 C 329.94256 127.39667 329.65705 127.43414 329.37305 127.46484 C 328.69705 127.53817 327.91564 127.66221 327.07031 127.79688 C 323.39165 128.38487 320.01017 128.79268 316.32617 128.16602 C 314.97683 127.93669 309.45414 126.46538 309.49414 129.10938 C 311.37281 129.47337 313.14302 128.12 315.15234 128.72266 C 317.51368 129.43066 319.21859 131.03711 321.78125 131.03711 C 323.69192 131.03711 325.69957 130.71502 327.49023 130.42969 C 328.2889 130.30302 329.02868 130.18258 329.66602 130.11328 C 334.07134 129.63195 338.31405 128.32431 342.35938 126.54297 C 344.23137 125.71764 345.70791 124.73824 347.36523 123.62891 C 349.17056 122.42091 351.25277 122.11497 352.88477 120.54297 C 353.85009 119.61364 354.11897 118.40601 354.9043 117.52734 C 355.42697 116.94334 356.709 116.6322 357.40234 116.26953 C 359.84634 114.98953 358.82634 112.48625 360.625 110.54492 C 362.65837 108.35025 363.18247 107.0649 362.5918 104.12891 C 361.66647 99.528909 357.09185 96.764923 352.61719 98.044922 C 351.36919 98.400922 350.26908 99.099647 349.06641 99.570312 C 348.44375 99.814312 346.56358 100.24022 346.40625 101.04688 C 346.38091 101.17621 346.76022 101.87118 346.79492 102.08984 C 346.85722 102.48584 346.83232 103.02311 346.79102 103.42578 C 346.65502 104.74978 346.06723 106.99053 345.11523 107.89453 C 343.0179 109.8852 337.52599 110.17513 334.61133 110.20312 C 334.06999 110.20846 330.98724 110.36133 330.39258 110.36133 C 327.71524 110.35863 324.99141 110.04042 322.33008 110.45508 C 319.63808 110.87375 318.69787 112.77394 316.2832 113.58594 C 315.93792 113.70175 315.51705 113.7258 315.09375 113.75781 C 313.9326 113.41817 312.92246 112.65323 311.99414 111.86719 C 310.33414 110.46053 308.15706 110.09802 306.01172 110.16602 C 302.07706 110.29269 298.76251 112.53156 294.97852 113.21289 C 291.29319 113.87689 287.38361 113.96127 283.73828 113.16797 C 280.49428 112.46263 277.35329 112.64233 274.25195 111.125 C 270.0733 109.081 266.52333 107.79921 261.88867 106.56055 C 259.35133 105.88188 257.23169 106.14472 254.95703 104.77539 C 253.23036 103.73539 251.574 102.40554 249.75 101.54688 C 247.746 100.60288 245.44146 100.92737 243.32812 100.08203 C 241.4948 99.348703 240.03092 98.071864 238.43359 96.894531 C 236.95626 95.806532 235.49867 94.47299 233.77734 93.847656 C 230.51335 92.660991 226.82764 93.095514 223.70898 91.603516 C 221.62099 90.60485 220.00498 89.220776 217.70898 88.662109 C 211.22899 87.086111 204.46862 86.588972 197.91797 85.431641 C 196.56331 85.192307 195.35339 85.142583 194.15039 85.15625 z " /></g></svg>
