<?xml version="1.0" encoding="UTF-8" standalone="no"?>
<!-- Created with Inkscape (http://www.inkscape.org/) -->

<svg
   version="1.1"
   id="svg1242"
   width="400"
   height="400"
   viewBox="0 0 400 400"
   sodipodi:docname="FerengiEar1.svg"
   inkscape:version="1.2.2 (b0a8486, 2022-12-01)"
   xmlns:inkscape="http://www.inkscape.org/namespaces/inkscape"
   xmlns:sodipodi="http://sodipodi.sourceforge.net/DTD/sodipodi-0.dtd"
   xmlns="http://www.w3.org/2000/svg"
   xmlns:svg="http://www.w3.org/2000/svg">
  <defs
     id="defs1246" />
  <sodipodi:namedview
     id="namedview1244"
     pagecolor="#ffffff"
     bordercolor="#666666"
     borderopacity="1.0"
     inkscape:showpageshadow="2"
     inkscape:pageopacity="0.0"
     inkscape:pagecheckerboard="0"
     inkscape:deskcolor="#d1d1d1"
     showgrid="false"
     inkscape:zoom="1.475"
     inkscape:cx="55.932203"
     inkscape:cy="200"
     inkscape:window-width="1920"
     inkscape:window-height="1080"
     inkscape:window-x="2280"
     inkscape:window-y="111"
     inkscape:window-maximized="0"
     inkscape:current-layer="layer5">
    <inkscape:page
       x="0"
       y="0"
       id="page1248"
       width="400"
       height="400" />
  </sodipodi:namedview>
  <g
     inkscape:groupmode="layer"
     id="layer5"
     inkscape:label="Back">
    <path
       d="m 342.94559,176.41841 c 0,0 18.832,-30.68934 18.65867,-32.95734 -0.17467,-2.26666 -1.744,-7.49733 -1.744,-11.33333 0,-3.836 -0.34934,-17.264 -0.524,-19.87867 -0.17334,-2.616 -9.24134,1.744 -14.124,8.19467 -4.88267,6.452 0.17466,-6.8 -9.06667,4.18533 -9.24266,10.98534 -9.59066,75.32934 6.8,51.78934"
       style="fill:#cd976d;fill-opacity:1;fill-rule:nonzero;stroke:none;stroke-width:1.33333"
       id="path19074" />
    <path
       d="m 354.45439,141.54467 c -0.33733,-4.55066 -3.44133,-7.88133 -2.964,-12.72933 0.23867,-2.428 1.33333,-3.972 3.436,-5.27867 1.284,-0.79866 2.328,-1.11066 3.016,-2.584 0.72933,-1.56266 1.17467,-3.98266 1.08267,-5.7 -3.176,-0.58933 -5.91467,-1.068 -9.092,-0.69333 -5.612,0.66267 -11.95067,2.26267 -16.84667,5.188 -6.856,4.096 -6.248,15.82667 -7.01066,22.77067 -0.936,8.528 -1.11334,17.64933 -0.37734,26.21466 0.224,2.61867 2.01467,5.14134 4.33467,6.42667 5.88266,3.25867 9.82533,-7.332 12.02,-11.00267 3.70666,-6.19866 7.492,-12.396 10.79333,-18.82533 0.49867,-0.97067 1.69467,-2.62267 1.608,-3.78667"
       style="opacity:0.199997;fill:#000000;fill-opacity:1;fill-rule:nonzero;stroke:none;stroke-width:1.33333"
       id="path19084" />
    <path
       d="m 360.90612,109.98201 c 0,5.10533 -1.22,20.05333 1.22,28.772 2.44134,8.71866 -14.996,37.83866 -22.14533,44.116 -7.14933,6.27733 -1.56933,-4.18534 -1.56933,-4.18534 0,0 23.71466,-31.90933 21.62266,-38.88533 -2.092,-6.97467 -2.44133,-23.36533 -1.91733,-25.45733 0.52267,-2.09334 2.78933,-6.62667 2.78933,-4.36"
       style="fill:#000000;fill-opacity:1;fill-rule:nonzero;stroke:none;stroke-width:1.33333"
       id="path19094" />
    <path
       d="m 347.13052,122.36254 c 0,0 2.092,0.34933 3.488,5.58 1.39467,5.23067 1.22,9.068 1.91734,10.11333 0.69733,1.04667 0.872,5.58 0.17466,7.67334 0,0 3.13867,-5.05734 1.91867,-7.67334 -1.22133,-2.61466 -2.268,-6.97466 -2.268,-9.24133 0,-2.26667 -0.69733,-9.76533 -0.69733,-9.76533 0,0 -6.97467,-0.69734 -4.53334,3.31333"
       style="fill:#000000;fill-opacity:1;fill-rule:nonzero;stroke:none;stroke-width:1.33333"
       id="path19098" />
  </g>
  <g
     id="g1250"
     inkscape:groupmode="layer"
     inkscape:label="Front"
     style="display:inline">
    <path
       d="m 238.32119,100.56574 c 0,0 21.62267,5.76533 40.45467,-1.475999 18.832,-7.242667 20.228,-14.566666 26.85333,-10.381333 6.62667,4.185333 11.85734,9.068 19.87867,9.416 8.02133,0.349333 19.18133,1.394666 21.972,3.488002 2.78933,2.092 2.44,7.32266 0.69733,10.11333 -1.744,2.78933 -26.156,11.508 -26.156,11.508 l -45.68666,-3.48667 -39.408,-19.18133"
       style="fill:#cd976d;fill-opacity:1;fill-rule:nonzero;stroke:none;stroke-width:1.33333"
       id="path32090" />
    <path
       d="m 238.32119,100.56574 c 1.92534,0.49467 3.88934,0.852 5.852,1.15733 3.61467,0.56267 7.17467,1.8 10.868,1.944 2.056,0.0813 4.064,-0.23333 6.07867,-0.33733 2.57067,-0.132 5.10533,-0.0453 7.652,-0.44 1.672,-0.25867 3.34,-0.53467 4.99467,-0.85733 2.06933,-0.40267 4.232,-0.53067 6.25733,-1.06134 4.58533,-1.198662 9.07733,-3.119996 13.36133,-5.121329 2.844,-1.328 5.71867,-2.794667 8.844,-3.085333 -0.456,0.690666 -1.25733,0.96 -1.99733,1.237333 -1.09733,0.410667 -2.09467,0.756 -3.12533,1.365333 -7.592,4.48 -15.73467,7.305336 -24.5,8.361336 -1.628,0.19733 -3.256,0.39333 -4.87734,0.63333 -2.59333,0.384 -5.392,0.34 -7.86,0.74267 1.048,-0.17067 2.404,0.15733 3.46934,0.212 1.20666,0.06 2.412,0.10533 3.61866,0.12933 2.41867,0.048 4.84,0.008 7.252,-0.17067 4.74,-0.34933 9.48667,-1.176 14.176,-1.936 0.52934,-0.0853 1.056,-0.172 1.584,-0.26133 2.50267,-0.42533 5.00934,-0.9 7.39867,-1.75333 1.79333,-0.64134 3.40933,-1.21334 5.276,-1.525336 3.18933,-0.533333 6.544,-1.076 9.78267,-0.997333 3.408,0.08267 6.76133,0.837333 10.032,1.747999 3.83333,1.06667 7.60266,2.34667 11.36533,3.64133 4.112,1.41467 8.192,2.71867 12.6,2.32934 -0.34,1.05733 -1.55467,1.62133 -2.66534,1.60133 -1.112,-0.0187 -2.15866,-0.48267 -3.19866,-0.876 -2.92534,-1.108 -6.016,-1.70267 -9.02933,-2.54533 -7.77867,-2.17867 -15.24667,-5.473336 -23.524,-4.732002 -2.28534,0.205332 -4.536,0.709332 -6.71734,1.416002 -2.056,0.66533 -4.00266,1.77733 -6.08666,2.26933 -2.712,0.64133 -5.48134,0.992 -8.22267,1.476 -3.04667,0.53733 -6.12267,1.07467 -9.20267,1.43733 -3.19333,0.37467 -6.52133,0.296 -9.70533,0.64267 -0.85333,0.0933 -4.528,-0.14 -4.14,1.27333 1.54667,0.916 3.82133,0.58267 5.57733,0.58267 3.1,0 6.136,-0.19867 9.18934,-0.44933 6.488,-0.53334 13.012,-0.46267 19.352,-1.90934 1.11733,-0.25466 2.312,-0.37066 3.40666,-0.69866 0.908,-0.27067 1.66134,-0.68134 2.65867,-0.73734 1.35867,-0.0773 2.692,-0.256 4.03733,-0.48666 2.05867,-0.352 4.172,-0.556 6.26934,-0.696 4.74933,-0.31867 9.22933,-0.49067 13.82533,1.01866 3.304,1.08534 6.376,2.80134 9.69333,3.844 1.708,0.53734 3.46667,0.892 5.22267,1.24667 -0.24,0.66267 -1.12934,0.76133 -1.832,0.696 -3.836,-0.34933 -6.756,-2.50533 -10.268,-3.79733 -1.74533,-0.64134 -3.55333,-1.40267 -5.34533,-1.88934 -1.77467,-0.48133 -3.80267,-0.472 -5.636,-0.41066 -2.23334,0.076 -4.50134,-0.0333 -6.72534,0.24133 -2.504,0.30933 -4.996,0.41733 -7.48666,0.89867 -1.072,0.20666 -2.16934,0.388 -3.19734,0.636 -0.36133,0.0867 -0.71466,0.08 -1.09333,0.116 -0.85733,0.08 -1.556,0.007 -2.33467,0.384 -0.89733,0.43466 -1.90933,0.59733 -2.87466,0.864 -2.89467,0.80266 -5.80934,1.51866 -8.70934,2.26 -2.86666,0.73066 -5.84266,0.668 -8.804,0.668 -1.83866,0 -4.81733,-0.77067 -6.46933,0.036 -0.77467,0.37866 2.47733,1.872 2.59467,1.91066 1.45066,0.476 2.20666,0.30267 3.684,-0.0227 2.9,-0.64 5.892,-0.51867 8.83333,-0.80534 2.776,-0.26933 5.504,-0.7 8.252,-1.108 2.28,-0.34 4.516,-0.91866 6.78667,-1.30933 1.408,-0.244 2.94933,-0.54667 4.27866,-1.044 1.21067,-0.45333 2.42267,-0.59067 3.68534,-0.832 1.40266,-0.26667 2.65866,-0.352 4.11066,-0.352 6.692,0 13.30267,1.30267 19.74,2.98 1.60933,0.42 3.31867,0.65067 4.98,0.732 0.748,0.036 1.67467,-0.14267 2.35867,0.0533 -1.044,0.91067 -2.43734,0.79467 -3.744,0.84 -1.21334,0.0413 -2.46534,-0.14266 -3.68267,-0.21066 -1.49333,-0.084 -2.96,-0.124 -4.44666,-0.296 -1.564,-0.18134 -3.24134,0.13333 -4.68267,-0.548 -0.78133,-0.36934 -1.47467,-0.79067 -2.29867,-1.06134 -1.00533,-0.33066 -2.05866,-0.436 -3.088,-0.66533 -0.568,-0.12533 -1.11733,-0.30267 -1.68933,-0.40667 -2.23067,-0.40666 -4.48,-0.192 -6.72267,0.0467 -1.14133,0.12267 -2.356,0.208 -3.45733,0.54933 -1.03333,0.32 -2.096,1.08134 -3.03067,1.65334 -1.28266,0.78666 -2.08666,1.172 -3.132,2.384 -1.66,1.92533 -3.084,4.35333 -5.28133,5.71866 -4.09867,2.54667 -8.42,1.532 -12.992,1.18267 -2.36933,-0.18133 -4.74,-0.36133 -7.10933,-0.54267 l -39.408,-19.18133"
       style="opacity:0.199997;fill:#000000;fill-opacity:1;fill-rule:nonzero;stroke:none;stroke-width:1.33333"
       id="path32100" />
    <path
       d="m 313.78119,118.73427 c -0.0907,1.872 -0.68533,4.044 -1.832,6.436 -2.22933,4.64534 -8.35333,7.05067 -13.288,6.608 -5.68266,-0.51066 -11.27733,-1.692 -16.788,-3.14133 -2.30266,-0.60667 -3.25866,-0.79333 -5.55466,-0.32667 -2.024,0.412 -4.108,0.424 -6.13067,0.84267 -6.92667,1.43467 -13.592,3.52933 -20.088,6.30667 -5.95067,2.54533 -11.70267,5.90933 -16.85067,9.83866 -3.70666,2.82934 -7.74266,5.42667 -10.452,9.25067 -3.09066,4.36267 -3.28933,9.12133 -2.61466,14.20133 0.91733,6.89867 0.74133,9.70534 -6.60667,10.632 -14.07733,1.77734 -32.00533,-0.352 -39.15466,-14.528 -2.35467,-4.66933 -3.25867,-10.22133 -4.80267,-15.09733 -1.93333,-6.104 -3.89733,-12.40933 -5.3,-18.70267 -1.58533,-7.11466 -0.088,-12.78666 4.22533,-18.7 4.00534,-5.48933 10.84267,-9.60933 16.22267,-13.691996 4.08933,-3.104 8.108,-6.516 12.23067,-9.462666 4.56533,-3.264 9.57066,-1.470667 14.47733,0.216 22.13866,7.613333 43.98666,18.068002 66.604,24.053332 8.87733,2.34933 14.95866,1.41067 23.00133,-1.05467 8.24133,-2.52666 12.988,0.404 12.70133,6.32"
       style="fill:#cd976d;fill-opacity:1;fill-rule:nonzero;stroke:none;stroke-width:1.33333"
       id="path32110" />
    <path
       d="m 312.80746,119.68534 c -0.296,0.22533 -0.57467,0.46267 -0.82,0.62667 -5.26267,3.52533 -10.53867,0.95866 -16.33067,-0.532 -2.65866,-0.684 -9.54533,-4.21334 -11.61333,-1.516 2.316,0.96533 4.89067,1.604 7.10933,2.87866 4.49067,2.57867 2.94934,4.26 -1.09733,3.79467 -5.31733,-0.61067 -10.57733,-1.74 -15.73467,-3.156 -10.1,-2.77467 -19.81066,-6.76267 -29.484,-10.736 -7.37866,-3.03067 -13.888,-8.912 -21.39333,-11.385332 -10.2,-3.36 -21.16933,-1.313334 -30.644,3.156002 -1.12133,0.52933 -2.22266,1.06666 -3.35466,1.57066 -2.04667,0.908 -4.15867,1.504 -6.05334,2.71334 -2.16,1.37733 -4.38666,2.844 -6.14,4.67466 -1.95333,2.04 -3.03733,4.48267 -4.488,6.84934 -1.01066,1.648 -1.968,3.34 -2.48533,5.20266 -0.21867,0.78667 -0.90133,4.952 -0.0613,5.37467 1.748,-2.34267 2.77333,-5.21467 4.58,-7.37867 0.81333,0.992 0.17333,3.46934 0.128,4.65334 -0.0747,1.93066 0.056,3.86533 0.30666,5.77866 0.48134,3.68 1.41734,7.28134 2.41734,10.848 1.28266,4.57067 2.22,9.24267 3.96,13.67467 0.88,2.24533 1.95733,4.44267 3.41866,6.372 0.69334,0.916 1.472,1.77067 2.34934,2.51467 0.908,0.77066 1.552,1.67066 2.43466,2.44266 1.68267,1.47067 3.86267,2.18134 5.98,2.76 3.53734,0.968 7.248,1.248 10.90133,1.068 0.80534,-0.04 9.95467,-1.196 9.94134,-1.368 0.10933,1.35067 -1.77467,1.68934 -2.704,2.192 -2.14,1.15867 -4.46667,1.26934 -6.804,1.76267 -2.57067,0.54133 -5.108,1.24933 -7.708,1.64133 -1.28933,0.19467 -6.332,-0.172 -5.68267,2.068 1.692,0.62134 3.73867,0.19334 5.5,0.46134 2.06667,0.316 4.032,0.59466 6.24267,0.59466 2.564,0 5.14666,0.24267 7.70266,-0.0387 2.55867,-0.28267 3.396,-1.392 5.52667,-2.50934 0.45733,-0.24 0.924,-0.47066 1.384,-0.70933 0.704,-1.66667 0.52667,-4.008 0.092,-7.28 -0.676,-5.07867 -0.47733,-9.83733 2.61467,-14.20133 2.708,-3.82267 6.744,-6.42134 10.452,-9.24934 5.148,-3.92933 10.89866,-7.29333 16.84933,-9.83866 6.496,-2.77867 13.16267,-4.872 20.088,-6.30667 2.024,-0.41867 4.108,-0.43067 6.13067,-0.84267 2.296,-0.46666 3.25333,-0.28 5.556,0.32667 5.50933,1.44933 11.104,2.63067 16.78666,3.14 4.93467,0.444 11.06,-1.96133 13.288,-6.608 1.06934,-2.22933 1.64,-4.25733 1.788,-6.04 -0.31333,0.116 -0.62933,0.328 -0.92933,0.556"
       style="opacity:0.199997;fill:#000000;fill-opacity:1;fill-rule:nonzero;stroke:none;stroke-width:1.33333"
       id="path32120" />
    <path
       d="m 214.84719,103.35454 c 4.38534,2.12667 9.05467,3.63867 13.344,5.972 4.42534,2.40667 9.42534,4.00667 14.22,5.83467 3.62534,1.38133 7.07334,2.57866 10.57734,4.22933 1.71333,0.80533 3.672,1.27333 5.16533,2.30267 -2.408,0.268 -5.15467,-0.70267 -7.49867,-1.21734 -3.332,-0.73466 -5.92266,-2.54933 -9.49066,-2.15333 -1.60267,0.17867 -3.16,0.62667 -4.724,1.09067 -2.05334,0.60933 -4.11734,1.24533 -6.312,1.336 -4.32934,0.17466 -1.816,-1.96 -2.55867,-4.44 -0.94,-3.13867 -7.11867,-4.68 -9.84133,-5.40934 -5.348,-1.432 -10.904,-1.88 -16.424,-1.61466 -8.32533,0.40133 -15.968,5.104 -19.47867,12.74533 -3.552,7.72933 0.43334,16.672 3.224,23.86267 0.88,2.26933 1.93467,4.49333 2.56667,6.76666 0.59333,2.136 0.89333,3.776 2.39333,5.55867 2.744,3.256 5.34,6.792 9.892,7.31467 5.87333,0.676 10.188,-2.74534 15.26933,-4.89067 0.98667,1.244 0.176,3.20133 -0.84,4.36133 -1.08266,1.236 -2.6,2.00267 -4.12933,2.60534 -6.43333,2.53333 -14.21733,2.92 -20.43733,-0.32934 -8.016,-4.188 -9.90933,-16.31333 -12.116,-24.17733 -1.11467,-3.97733 -2.15467,-8.004 -2.56533,-12.12533 -0.21067,-2.11067 0.20533,-4.316 -0.02,-6.37734 -0.088,-0.80933 -0.436,-1.436 -0.352,-2.31333 0.0853,-0.892 0.42266,-1.75067 0.67066,-2.604 0.56534,-1.94133 1.80534,-2.648 3.53067,-3.56267 2.75867,-1.46133 5.248,-3.42933 7.51733,-5.56 1.88,-1.764 4.212,-2.76133 6.076,-4.508 1.30134,-1.21733 2.23867,-2.54933 3.90534,-3.22533 1.96133,-0.79333 4.01999,-1.36267 6.12133,-1.624 4.236,-0.52533 8.48533,0.296 12.31466,2.152"
       style="opacity:0.199997;fill:#000000;fill-opacity:1;fill-rule:nonzero;stroke:none;stroke-width:1.33333"
       id="path32136" />
    <path
       d="m 213.40879,178.05987 c -26.16399,3.30534 -35.14799,-8.55466 -37.79733,-13.80533 -1.52,-3.01733 -2.436,-6.51067 -3.32133,-9.88933 -0.436,-1.664 -0.88533,-3.384 -1.40133,-5.01067 -2.08,-6.57067 -3.91334,-12.50267 -5.26934,-18.59067 -1.452,-6.51733 -0.25466,-11.788 4.00134,-17.62266 2.96266,-4.06134 7.58533,-7.37067 12.05466,-10.572 1.34134,-0.96134 2.65734,-1.904 3.896,-2.844002 1.64267,-1.246667 3.27334,-2.542667 4.904,-3.838667 2.384,-1.894667 4.84934,-3.853333 7.296,-5.602667 1.596,-1.14 3.27067,-1.569333 5.00933,-1.569333 2.55867,0 5.25734,0.928 8.04667,1.889333 l 0.21333,0.07333 c 15.86,5.453333 31.56534,11.309336 47.47867,16.692006 10.404,3.52 22.37333,8.02133 33.508,6.972 3.66533,-0.34534 6.96933,-1.396 10.51067,-2.06267 2.32133,-0.43867 6.98133,-0.812 8.976,0.644 1.22533,0.896 2.02533,2.14 2.28266,3.56667 0,0 0.256,1.636 0.256,1.636 -0.084,1.752 -1.53333,5.392 -2.57866,7.57066 -1.99334,4.16 -8.376,5.14534 -12.69467,4.75334 -9.776,-0.87734 -20.92,-3.572 -29.41733,-6.156 -4.85467,-1.476 -9.588,-3.14267 -14.02,-4.724 -1.884,-0.67334 -3.78934,-1.484 -5.808,-2.34267 -4.20667,-1.79067 -8.55467,-2.87333 -12.74667,-4.56267 -3.072,-1.23733 -6.26533,-2.18266 -9.216,-3.704 -4.05067,-2.08933 -6.752,-4.48666 -10.972,-6.14 -4.00267,-1.568 -8.652,-2.63466 -12.96933,-2.11866 -4.98133,0.596 -11.24533,2.14 -15.188,5.40133 -2.74267,2.26933 -4.96133,5.196 -7.656,7.49867 -2.216,1.89466 -5.336,3.08933 -6.116,6.136 -0.50267,1.96933 -0.22933,4.28533 -0.384,6.32266 -0.21867,2.89734 -0.84667,5.85734 -0.17867,8.732 0.588,2.524 1.56,5.11867 2.49334,7.51334 1.30933,3.35333 2.18533,6.55466 3.144,10.02266 1.072,3.876 1.792,7.748 3.60533,11.31734 2.288,4.50533 7.73333,6.64533 12.58133,7.15733 -1.488,-1.87467 -4.01066,-2.25733 -5.74133,-3.76667 -1.49067,-1.29866 -2.76933,-2.96533 -3.95467,-4.56 -1.40933,-1.896 -3.46266,-3.66266 -4.05733,-5.936 -0.364,-1.38933 0.064,-2.71333 -0.005,-4.15466 -0.11334,-2.356 -1.032,-4.77067 -1.616,-7.04934 -1.08,-4.212 -2.46934,-8.32933 -3.30534,-12.63733 -0.72933,-3.75867 -2.588,-9.78 -0.49066,-13.39467 0.99466,-1.71466 3.73866,-3.11733 5.288,-4.156 2.05733,-1.37866 4.19466,-2.67333 6.23333,-4.07733 3.12667,-2.15333 6.12133,-4.96933 9.44133,-6.62133 1.724,-0.85734 3.884,-1.42667 5.70533,-1.82934 2.74134,-0.608 4.77467,0.84534 7.26667,1.93467 5.776,2.524 12.03067,3.96 17.60267,6.876 7.01333,3.67067 14.444,4.92667 21.704,8.01733 1.96533,0.836 3.99733,1.7 5.956,2.4 4.46266,1.592 9.22933,3.27067 14.14,4.764 8.62133,2.62 18.39333,5.592 28.444,6.49467 5.152,0.47067 11.664,-2.23067 14.252,-7.63067 1.2,-2.50133 2.21733,-4.568 2.31866,-6.67733 0.144,-2.968 -0.82133,-5.348 -2.79066,-6.87867 -1.82934,-1.42266 -5.332,-2.71333 -11.63334,-0.78 -7.87333,2.41334 -13.75333,3.296 -22.26933,1.04 -13.88667,-3.67466 -27.72667,-9.14133 -41.11067,-14.426666 -8.30933,-3.281334 -16.90133,-6.676 -25.4,-9.598667 l -0.21333,-0.072 c -4.88133,-1.681333 -10.41333,-3.585333 -15.47466,0.032 -2.50267,1.789333 -4.99467,3.769333 -7.40534,5.685333 -1.61466,1.282667 -3.22933,2.566667 -4.856,3.801334 -1.22,0.925333 -2.51733,1.853333 -3.83733,2.800006 -4.64133,3.324 -9.44,6.76133 -12.656,11.168 -4.69067,6.432 -6.06267,12.53066 -4.44933,19.77466 1.37866,6.184 3.308,12.42934 5.33066,18.816 0.49467,1.56267 0.916,3.17467 1.364,4.88 0.92,3.51467 1.87067,7.14667 3.51867,10.41467 2.56667,5.08933 10.48667,15.84533 31.52933,15.84533 2.76133,-0.001 5.752,-0.18666 8.98533,-0.59466 2.18267,-0.276 7.49334,-1.21334 7.112,-4.26 -0.048,-0.39334 -6.82533,1.536 -7.448,1.61466"
       style="fill:#000000;fill-opacity:1;fill-rule:nonzero;stroke:none;stroke-width:1.33333"
       id="path32146" />
    <path
       d="m 316.54026,114.13654 c 3.94933,-4.69733 12.81333,-3.404 18.23866,-3.45733 3.25067,-0.0307 8.32267,-0.0867 10.79467,-2.432 2.33067,-2.21067 2.03067,-6.704 4.84267,-8.637336 2.79866,-1.925333 6.688,-1.229333 9.272,1.165336 3.39333,3.14266 1.516,7.44 -0.44667,10.85466 -2.48133,4.31467 -4.26533,6.90667 -8.79733,9.33867 -6.75467,3.62533 -12.98,6.94 -20.92667,7.816 -3.27333,0.36133 -10.14533,2.05067 -13.084,-0.0733 -3.44666,-2.492 -2.28533,-11.704 0.10667,-14.57467"
       style="fill:#cd976d;fill-opacity:1;fill-rule:nonzero;stroke:none;stroke-width:1.33333"
       id="path32150" />
    <path
       d="m 316.45853,115.01281 c 0.044,0.003 0.0907,0.0107 0.136,0.024 0.384,0.10266 0.33733,0.948 0.32,1.28933 -0.084,1.64933 -0.37867,3.48933 0.32666,5.056 0.23067,0.512 0.66667,0.848 1.13734,1.128 1.524,0.90267 3.20266,1.57467 4.91866,2.00133 1.97467,0.492 4.21467,0.0733 6.19867,-0.216 1.088,-0.15733 2.08667,-0.62533 3.16,-0.84933 1.85066,-0.384 3.70133,-0.76533 5.53066,-1.24933 1.84,-0.48667 3.66534,-0.812 5.424,-1.54934 0.992,-0.41466 1.964,-0.964 2.864,-1.56 2.43867,-1.616 5.21334,-3.356 5.056,-6.65733 -0.032,-0.65467 -0.37066,-1.588 0.408,-1.79067 0.98534,-0.25733 1.82934,0.72 2.016,1.524 1.648,-0.16 2.684,-2.75466 2.752,-4.164 0.044,-0.91733 -0.95733,-3.09066 -0.42266,-3.86933 0.54266,-0.78933 1.304,0.42 1.97866,-0.068 0.81734,-0.59067 -0.13066,-2.10267 -0.40666,-2.75733 -0.39467,-0.93867 -0.53867,-1.648002 0.68533,-1.321336 2.03333,0.543996 2.78267,2.390666 2.98933,4.357336 0.088,0.84 -0.009,1.68933 -0.204,2.50666 -0.40533,1.69734 -1.22133,3.27867 -2.08533,4.78267 -2.48133,4.31467 -4.26533,6.90667 -8.796,9.33867 -6.756,3.62533 -12.98133,6.94 -20.92666,7.816 -3.27467,0.36 -10.14667,2.05066 -13.084,-0.0733 -1.948,-1.408 -2.20534,-4.39333 -2.15867,-6.584 0.02,-0.95066 0.49867,-7.23733 2.18267,-7.11466"
       style="opacity:0.199997;fill:#000000;fill-opacity:1;fill-rule:nonzero;stroke:none;stroke-width:1.33333"
       id="path32160" />
    <path
       d="m 317.03866,114.48627 c -1.22133,1.46667 -2.65467,6.43467 -2.28933,9.34534 0.24,1.90266 1.08533,3.43733 2.00266,4.10133 1.90267,1.37467 7.37334,0.33067 10.31734,-0.14 0.84533,-0.13467 1.628,-0.26 2.30266,-0.33333 7.74933,-0.85467 13.91467,-4.16267 20.44267,-7.66667 4.164,-2.23467 5.78933,-4.512 8.27066,-8.828 2.62667,-4.568 3.04534,-7.856 0.91334,-9.82933 -2.276,-2.110669 -5.92,-2.677336 -8.01067,-1.240002 -1.204,0.829332 -2.44267,2.920002 -3.052,4.386662 -0.556,1.34134 -0.54267,2.612 -1.812,3.81467 -2.85733,2.712 -6.68267,2.82667 -10.204,2.86133 -0.55067,0.004 -1.13333,0.005 -1.73733,0.004 -5.05867,-0.0253 -13.99067,-0.22133 -17.144,3.524 m 4.74,16.548 c -1.92267,0 -3.748,-0.32533 -5.15067,-1.34 -1.54533,-1.11733 -2.54133,-3.12666 -2.87733,-5.808 -0.46267,-3.676 0.43067,-7.81733 2.12667,-9.852 3.95333,-4.7 8.92133,-3.69333 14.516,-3.67333 0.59466,0 3.67599,-0.15467 4.21733,-0.15867 2.91466,-0.0293 8.40666,-0.31866 10.504,-2.308 0.952,-0.904 1.54133,-3.14533 1.67733,-4.47066 0.0413,-0.40134 0.0653,-0.93734 0.003,-1.33467 -0.036,-0.21867 -0.41334,-0.91467 -0.388,-1.044 0.15733,-0.80667 2.036,-1.231999 2.65866,-1.475999 1.20267,-0.472 2.30267,-1.169333 3.55067,-1.526667 2.76667,-0.792 5.84133,-0.224 7.97867,1.754667 4.56,4.222669 1.22533,10.022669 -0.19867,12.497329 -2.43333,4.23334 -4.396,7.20667 -9.32133,9.84934 -6.76134,3.628 -13.148,7.056 -21.41067,7.96666 -0.636,0.0693 -1.376,0.188 -2.17466,0.316 -1.79067,0.28534 -3.79867,0.608 -5.71067,0.608"
       style="fill:#000000;fill-opacity:1;fill-rule:nonzero;stroke:none;stroke-width:1.33333"
       id="path32170" />
    <path
       d="m 188.28973,138.77534 c -0.0307,-0.35333 -0.0307,-0.65867 0.012,-0.896 0.51067,-2.816 1.60933,-5.56267 3.07733,-8.072 4.91334,-8.39867 17.87733,-16.34133 27.86933,-9.85333 -3.05333,1.26 -6.74533,-0.20134 -9.98133,0.10133 -3.47467,0.32667 -6.79067,1.632 -9.57866,3.48933 -4.916,3.27467 -8.472,6.78534 -9.40134,12.412 -0.44933,2.72534 0.132,6.65334 -0.98666,8.996 0.31866,-0.66666 -0.836,-4.16933 -1.01067,-6.17733"
       style="fill:#000000;fill-opacity:1;fill-rule:nonzero;stroke:none;stroke-width:1.33333"
       id="path32174" />
    <path
       d="m 197.51773,157.76041 c -3.80667,-2.64534 -7.656,-6.676 -9.8,-10.824 -2.452,-4.74534 -4.85067,-11.04 -1.58,-15.80134 1.47467,-2.14533 3.28133,-4.03733 4.81867,-6.13466 1.512,-2.06134 2.63466,-4.35467 4.43333,-6.20267 1.37333,-1.412 2.93333,-3.63067 4.83733,-4.18133 2.97733,-0.86134 6.252,0.16133 9.244,0.308 1.40267,0.068 3.032,-0.12667 4.304,0.34133 -3.51733,-1.292 -6.89333,-2.608 -10.87333,-2.19467 -2.64,0.27334 -6.21467,1.3 -8.20667,3.14667 -2.29866,2.12933 -3.964,5.54933 -5.83333,8.07867 -2.03467,2.756 -4.56267,5.55466 -5.53733,8.83066 -1.02534,3.44267 -0.48267,6.384 0.81866,9.668 2.488,6.27734 16.2,29.228 24.688,18.35067 3.06133,-3.924 4.43067,-9.90933 6.07067,-14.43067 -3.07334,5.21334 -6.56134,18.564 -13.896,13.48667 -0.06,-0.0413 -3.42933,-2.4 -3.488,-2.44133"
       style="fill:#000000;fill-opacity:1;fill-rule:nonzero;stroke:none;stroke-width:1.33333"
       id="path32178" />
    <path
       d="m 188.95973,137.03747 c 1.80267,-5.81066 5.484,-11.19466 10.46,-14.68133 3.23066,-2.264 7.756,-4.01067 11.77066,-3.40133 1.816,0.276 4.97734,2.152 6.628,0.65066 2.52,-2.29333 -0.788,-3.92 -2.636,-4.33866 -2.94133,-0.66534 -5.65333,-0.94 -8.588,-1.26267 -1.46133,-0.16 -2.73466,-0.81867 -4.25866,-0.69333 -2.844,0.236 -4.53333,2.27733 -6.164,4.44933 -1.796,2.392 -3.432,4.77467 -5.368,7.12933 -3.368,4.096 -7.35333,8.23067 -6.764,13.99867 0.34,3.324 2.31067,6.11467 3.46,9.16933 0.16667,0.44534 1.19867,1.748 1.204,2.06134 -0.064,-3.83734 -1.216,-6.83334 -0.36667,-10.72534 0.17334,-0.79066 0.38134,-1.57733 0.62267,-2.356"
       style="opacity:0.199997;fill:#000000;fill-opacity:1;fill-rule:nonzero;stroke:none;stroke-width:1.33333"
       id="path32188" />
    <path
       d="m 194.85426,141.12987 c -1.63333,-0.628 -2.108,-1.91066 0.0627,-4.70933 2.57333,-3.316 5.65466,-7.36533 8.872,-10.048 2.64933,-2.208 9.35066,-3.48267 11.96133,-0.58 3.33867,3.71333 0.384,10.14133 -1.17333,13.91467 -2.032,4.92666 -2.75067,9.61733 -7.90667,12.70266 -5.824,3.48534 -12.94,-4.75333 -6.07067,-5.896 3.64934,-0.60666 3.97734,-0.768 5.54934,-4.2 0.62666,-1.364 5.54666,-7.208 2.59866,-8.33466 -1.71733,-0.65734 -4.008,2.99866 -4.17066,4.3 -0.50934,4.07066 -0.67334,3.73733 -4.70533,3.52666 -1.90667,-0.1 -3.78934,-0.204 -5.01734,-0.676"
       style="opacity:0.199997;fill:#000000;fill-opacity:1;fill-rule:nonzero;stroke:none;stroke-width:1.33333"
       id="path32204" />
    <path
       d="m 193.85586,137.62027 c 0,0 7.06267,-14.648 16.21733,-14.38533 9.15467,0.26133 9.416,4.44667 8.108,7.58533 -1.308,3.13867 -1.56933,-3.66266 -4.18533,-3.924 -2.616,-0.26133 -7.06133,-2.35466 -11.508,3.66134 -4.44666,6.016 -10.98666,10.46266 -8.632,7.06266"
       style="fill:#000000;fill-opacity:1;fill-rule:nonzero;stroke:none;stroke-width:1.33333"
       id="path32214" />
    <path
       d="m 198.0408,151.48294 c 2.07866,1.84667 6.01599,3.924 9.41599,0.26133 3.4,-3.66133 7.58534,-14.90933 4.44667,-9.93866 -3.13867,4.96933 -7.324,9.416 -8.89333,9.67733 -1.56934,0.26133 -7.324,-2.092 -4.96933,0"
       style="fill:#000000;fill-opacity:1;fill-rule:nonzero;stroke:none;stroke-width:1.33333"
       id="path32218" />
    <path
       d="m 302.21253,93.830674 c 0.856,-0.476 1.59066,-1.024 2.61866,-0.946666 0.84134,0.06267 1.67067,0.630666 2.45734,0.905333 1.088,0.38 2.19466,0.714667 3.28933,1.073333 2.196,0.717334 4.392,1.433334 6.60267,2.101334 5.00933,1.513333 10.07333,2.689333 15.256,3.397332 3.14533,0.43067 6.26133,0.81067 9.35999,1.46 1.24534,0.26 2.4,0.55067 3.60667,0.94133 0.928,0.30134 2.75867,0.52667 1.844,1.86534 -0.70533,1.032 -2.212,0.0187 -3.13067,-0.224 -3.476,-0.92 -6.89066,-1.92534 -10.44,-2.492 -2.82133,-0.452 -5.28533,-1.17067 -7.96266,-2.082669 -2.876,-0.98 -5.79867,-1.577333 -8.756,-2.236 -2.14933,-0.478667 -4.13333,-1.250667 -6.22933,-1.892 -0.94534,-0.289333 -1.83067,-0.628 -2.78667,-0.910667 -1.99067,-0.586666 -3.66,-0.992 -5.72933,-0.96"
       style="opacity:0.199997;fill:#000000;fill-opacity:1;fill-rule:nonzero;stroke:none;stroke-width:1.33333"
       id="path32228" />
    <path
       d="m 311.32786,127.38241 c 0.80667,-1.02667 2.42,-1.68667 3.592,-0.51334 l -1.172,-5.05866 c 0,0 -1.32,3.07866 -1.32,3.372 0,0.29333 -1.1,2.2 -1.1,2.2"
       style="fill:#000000;fill-opacity:1;fill-rule:nonzero;stroke:none;stroke-width:1.33333"
       id="path32238" />
    <path
       d="m 307.46213,130.84841 c 1.288,-0.572 4.99066,-2.05067 6.11866,-2.09334 -0.27866,0.0107 -3.88933,-0.16933 -2.796,-0.98133 -0.69333,0.51467 -1.36533,0.908 -1.928,1.56133 -0.34666,0.404 -0.9,1.29334 -1.39466,1.51334"
       style="fill:#000000;fill-opacity:1;fill-rule:nonzero;stroke:none;stroke-width:1.33333"
       id="path32242" />
  </g>
</svg>
