<?xml version="1.0" encoding="UTF-8" standalone="no"?>
<!-- Created with Inkscape (http://www.inkscape.org/) -->

<svg
   version="1.1"
   id="svg1242"
   width="400"
   height="400"
   viewBox="0 0 400 400"
   sodipodi:docname="FerengiEar2.svg"
   inkscape:version="1.2.2 (b0a8486, 2022-12-01)"
   xmlns:inkscape="http://www.inkscape.org/namespaces/inkscape"
   xmlns:sodipodi="http://sodipodi.sourceforge.net/DTD/sodipodi-0.dtd"
   xmlns="http://www.w3.org/2000/svg"
   xmlns:svg="http://www.w3.org/2000/svg">
  <defs
     id="defs1246" />
  <sodipodi:namedview
     id="namedview1244"
     pagecolor="#ffffff"
     bordercolor="#666666"
     borderopacity="1.0"
     inkscape:showpageshadow="2"
     inkscape:pageopacity="0.0"
     inkscape:pagecheckerboard="0"
     inkscape:deskcolor="#d1d1d1"
     showgrid="false"
     inkscape:zoom="1.475"
     inkscape:cx="171.18644"
     inkscape:cy="200"
     inkscape:window-width="1920"
     inkscape:window-height="1080"
     inkscape:window-x="2280"
     inkscape:window-y="111"
     inkscape:window-maximized="0"
     inkscape:current-layer="layer6">
    <inkscape:page
       x="0"
       y="0"
       id="page1248"
       width="400"
       height="400" />
  </sodipodi:namedview>
  <g
     inkscape:groupmode="layer"
     id="layer6"
     inkscape:label="Back">
    <path
       d="m 339.66906,169.75574 c 0,0 20.62266,-27.35333 20.552,-29.38267 -0.0693,-2.03066 -1.41867,-6.72133 -1.23734,-10.15466 0.18267,-3.43334 0.464,-15.45334 0.41067,-17.79467 -0.0533,-2.34267 -9.48933,1.504 -14.764,7.24933 -5.27467,5.744 0.5,-6.08533 -9.42667,3.69067 -9.92799,9.77467 -13.33333,67.36133 4.46534,46.392"
       style="fill:#cd976d;fill-opacity:1;fill-rule:nonzero;stroke:none;stroke-width:1.33333"
       id="path19038" />
    <path
       d="m 353.03626,138.61361 c -0.128,-4.07467 -3.12934,-7.07467 -2.41334,-11.41067 0.35867,-2.17067 1.54667,-3.54667 3.748,-4.704 1.344,-0.70667 2.42134,-0.98 3.19067,-2.29467 0.81733,-1.39333 1.38533,-3.55733 1.37333,-5.09466 -3.20533,-0.54667 -5.96933,-0.992 -9.22133,-0.67467 -5.74267,0.55867 -12.26933,1.952 -17.392,4.54 -7.172,3.62533 -7.10933,14.128 -8.21466,20.33733 -1.35734,7.62667 -1.97067,15.78934 -1.628,23.46 0.10533,2.34534 1.80666,4.61334 4.10666,5.77734 5.83334,2.95333 10.34933,-6.50267 12.756,-9.77334 4.06667,-5.52533 8.21467,-11.04933 11.87867,-16.78266 0.55333,-0.86667 1.84933,-2.33867 1.816,-3.38"
       style="opacity:0.199997;fill:#000000;fill-opacity:1;fill-rule:nonzero;stroke:none;stroke-width:1.33333"
       id="path19048" />
    <path
       d="m 361.09932,110.40414 c -0.24266,4.56933 -2.19333,17.94 -0.12133,25.75867 2.07067,7.81733 -17.05733,33.77466 -24.632,39.34933 -7.57466,5.57467 -1.39867,-3.75467 -1.39867,-3.75467 0,0 25.64934,-28.416 23.85067,-34.672 -1.79867,-6.25466 -1.376,-20.92666 -0.74533,-22.796 0.632,-1.87066 3.15466,-5.91466 3.04666,-3.88533"
       style="fill:#000000;fill-opacity:1;fill-rule:nonzero;stroke:none;stroke-width:1.33333"
       id="path19058" />
    <path
       d="m 346.49172,121.40107 c 0,0 2.11334,0.32534 3.28534,5.01467 1.17066,4.69067 0.812,8.124 1.472,9.064 0.66,0.94 0.62266,5 -0.18667,6.868 0,0 3.43467,-4.50667 2.316,-6.85467 -1.11733,-2.34933 -1.976,-6.25733 -1.868,-8.28533 0.10667,-2.02933 -0.24667,-8.744 -0.24667,-8.744 0,0 -7.06666,-0.66667 -4.772,2.93733"
       style="fill:#000000;fill-opacity:1;fill-rule:nonzero;stroke:none;stroke-width:1.33333"
       id="path19062" />
  </g>
  <g
     id="g1250"
     inkscape:groupmode="layer"
     inkscape:label="Front"
     style="display:inline">
    <path
       d="m 279.18439,119.74694 c -0.12133,-0.0107 -0.32,-0.188 -0.42266,-0.24667 -0.396,-0.232 -0.792,-0.464 -1.188,-0.696 -1.41867,-0.83066 -2.83734,-1.66133 -4.256,-2.492 -2.18667,-1.28 -4.37334,-2.56133 -6.56,-3.84133 -1.204,-0.704 -2.38934,-1.484 -3.628,-2.124 -1.072,-0.55333 -2.316,-0.74667 -3.376,-1.372 -0.432,-0.256 -0.76,-0.68133 -1.17467,-0.92 -0.55333,-0.316 -1.32667,-0.44533 -1.92933,-0.66 -0.99867,-0.356 -1.93467,-0.67467 -2.968,-0.94 -2.53734,-0.65467 -5.13067,-1.05067 -7.68134,-1.62667 -1.02933,-0.232 -2.048,-0.512 -3.07733,-0.752 -1.516,-0.35333 -3.22133,-0.50133 -4.65867,-1.10933 0.46934,-0.76933 1.69067,-0.788 2.46534,-1.092 1.44266,-0.56533 2.95066,-0.948 4.49066,-1.124 0.99734,-0.11467 2.07867,-0.25467 3.052,0.0173 2.28934,0.64 4.63734,1.08667 6.99067,1.41334 3.97733,0.55066 8.016,0.71866 12.02,0.40266 4.79467,-0.37866 9.556,-1.47066 13.93067,-3.494662 15.656,-7.242667 21.104,-18.185333 25.89333,-12.705333 4.788,5.479999 9.43733,7.649333 19.32,11.019999 3.104,1.058667 5.57333,1.125334 9.02,1.6 0.672,0.092 1.32933,0.124 1.93733,0.426667 0.71867,0.356 1.452,0.641329 2.20667,0.923999 1.35066,0.504 2.75733,0.868 4.11066,1.336 1.16,0.40267 2.43067,1.496 3.26534,2.37867 0.492,0.52133 1.052,1.044 1.44666,1.648 0.56267,0.85866 1.144,1.73733 1.104,2.792 -0.044,1.148 -0.44666,2.29466 -1.13333,3.216 -2.08,2.79066 -31.22,11.50933 -31.22,11.50933 z"
       style="fill:#cd976d;fill-opacity:1;fill-rule:nonzero;stroke:none;stroke-width:1.33333"
       id="path31934" />
    <path
       d="m 281.26506,119.93787 c 1.276,0.11734 2.55333,0.23467 3.83333,0.352 1.58267,0.14534 3.408,0.31334 5.35867,0.492 1.864,0.004 3.676,-0.35733 5.43733,-1.67466 1.82667,-1.36534 3.01067,-2.82134 4.39067,-5.01067 0.86933,-1.38 1.53733,-1.81733 2.604,-2.712 0.77733,-0.65067 3.48933,-1.92533 4.312,-2.25467 0.88,-0.35066 1.82533,-0.38533 2.71733,-0.46666 1.752,-0.16 3.508,-0.28934 5.2,0.33466 0.43467,0.16134 0.84534,0.408 1.27334,0.59334 0.77866,0.33866 0.61466,0.0773 1.45066,0.45333 0.68534,0.308 2.11734,0.47467 3.04934,0.844 1.72133,0.68133 3.72133,0.36667 5.588,0.548 1.77333,0.172 3.524,0.212 5.30533,0.296 1.452,0.068 2.94666,0.252 4.39466,0.20933 1.56,-0.044 3.22134,0.072 4.468,-0.83866 -0.81733,-0.196 -1.92266,-0.0173 -2.81466,-0.0533 -1.98267,-0.0813 -4.02267,-0.312 -5.94267,-0.732 -7.68,-1.67733 -14.15066,-2.856 -19.32266,-3.24666 -1.12267,-0.084 -2.1,-0.0533 -3.20667,0.18933 -0.99467,0.22 -1.94267,0.31733 -2.91467,0.79733 -1.06666,0.528 -4.30666,1.41334 -5.47866,1.68934 -1.888,0.44533 -3.74534,1.104 -5.64134,1.48933 -2.28533,0.46533 -4.552,0.95467 -6.86,1.26133 -2.44533,0.32534 -4.932,-0.34933 -7.344,0.29067 -1.228,0.32533 -1.856,0.49867 -3.06266,0.0227 -0.0973,-0.0387 -2.8,-1.532 -2.156,-1.91067 1.37333,-0.80667 3.84933,-0.036 5.37733,-0.036 2.46267,0 4.936,0.432 7.31867,-0.4 2.41066,-0.84133 7.516,-2.91867 9.81733,-3.72667 0.768,-0.26933 1.564,-0.408 2.292,-0.88533 0.632,-0.41333 1.16667,-0.284 1.836,-0.33067 0.29467,-0.0213 0.56667,0.008 0.85333,-0.0773 0.81467,-0.24267 1.67734,-0.39867 2.52267,-0.588 1.964,-0.44 3.89867,-0.42667 5.85867,-0.65733 1.74133,-0.20534 3.48533,0.0613 5.21733,0.0987 1.42267,0.032 3.616,0.704 5.55067,1.368 1.95466,0.672 3.90666,1.636 5.79866,2.46934 3.80667,1.676 9.012,2.06133 13.58933,2.412 0.83734,0.064 2.14667,-0.0467 2.43334,-0.71067 -2.09467,-0.35333 -6.16,-0.348 -8.19734,-0.88533 -3.95866,-1.044 -7.22133,-1.74267 -10.81066,-3.18 -4.99467,-2 -8.98533,-2.776 -12.68133,-2.66534 -1.63334,0.048 -3.28267,0.17334 -4.90267,0.48267 -1.05867,0.20133 -2.10267,0.34133 -3.15867,0.356 -0.776,0.0107 -1.392,0.46667 -2.11466,0.74267 -0.87334,0.33466 -1.80534,0.40666 -2.68934,0.65066 -5.01733,1.392 -13.27066,2.74534 -18.66533,3.27867 -2.53733,0.25067 -5.06133,0.44933 -7.63867,0.44933 -1.46,0 -3.35066,0.33334 -4.63733,-0.58266 -0.32133,-1.41334 2.73333,-1.18 3.44267,-1.27334 2.64666,-0.348 5.41333,-0.268 8.068,-0.644 2.56,-0.36133 5.11733,-1.25066 7.64933,-1.86266 2.28,-0.552 7.676,-2.62534 9.82267,-3.24667 1.65066,-0.47733 3.244,-1.715999 4.88666,-2.406666 1.74267,-0.733333 3.52267,-1.216 5.30667,-1.332 6.45733,-0.42 12.504,4.909336 20.98267,7.891996 3.284,1.15467 6.77333,0.528 10.26533,1.636 1.67866,0.532 3.33866,1.04267 5.00933,1.588 0.74933,0.24534 1.316,0.59734 2.04533,0.0747 0.604,-0.43467 1.52667,-1.40133 1.216,-2.22667 -1.21333,0.41734 -2.25333,-0.064 -3.47866,-0.0933 -1.476,-0.036 -2.93867,-0.15467 -4.39734,-0.38 -2.86133,-0.44267 -5.656,-1.21733 -8.43199,-2.01867 -4.48934,-1.29333 -9.208,-3.40133 -12.08667,-4.922662 -2.45467,-1.298667 -4.988,-2.412 -7.61467,-2.712 -2.49733,-0.285334 -5.13466,0.18 -7.64266,0.644 -1.468,0.270666 -2.76267,0.872 -4.19867,1.548 -1.916,0.9 -7.11733,3.138662 -9.19733,3.621332 -0.43867,0.10133 -0.87734,0.2 -1.31734,0.29733 -3.89866,0.864 -7.844,2.26 -11.78533,2.60934 -2.00533,0.17866 -4.01733,0.21866 -6.028,0.17066 -1.00267,-0.024 -2.00533,-0.0693 -3.008,-0.12933 -0.88667,-0.0547 -2.01333,-0.38267 -2.884,-0.212 2.05067,-0.40267 4.37733,-0.35867 6.53333,-0.74267 1.348,-0.24133 2.70134,-0.43733 4.05467,-0.63333 7.28667,-1.056 17.67867,-7.235999 23.904,-12.246666 0.84533,-0.681333 1.644,-1.042666 2.52533,-1.48 0.59334,-0.294666 1.23467,-0.576 1.64267,-1.389333 -2.44,0.172 -4.77867,1.789333 -7.08267,3.24 -3.472,2.185333 -11.012,7.918667 -14.82266,9.118669 -1.684,0.53066 -3.48267,0.65866 -5.20134,1.06133 -1.376,0.32267 -2.76266,0.59867 -4.15333,0.85733 -2.116,0.39467 -4.224,0.308 -6.36133,0.44 -1.67467,0.104 -3.344,0.41867 -5.05334,0.33734 -3.06933,-0.144 -6.02933,-1.38134 -9.03466,-1.944 -0.12934,-0.024 -0.25734,-0.0533 -0.38667,-0.0773 -0.20533,-0.04 -0.408,-0.0813 -0.612,-0.124 -0.86533,-0.17466 -1.72933,-0.36266 -2.58267,-0.58933 -0.71066,-0.188 -1.508,-0.22267 -2.268,-0.308 -0.46533,0.0227 -0.93066,0.0747 -1.37866,0.12667 -1.53867,0.176 -3.048,0.55733 -4.48934,1.124 -0.77466,0.304 -1.996,0.32266 -2.46533,1.092 1.43733,0.608 3.14133,0.756 4.65867,1.10933 1.02933,0.24 2.04666,0.52 3.07733,0.752 2.55067,0.576 5.14267,0.97067 7.68133,1.62533 1.03334,0.26667 1.968,0.58534 2.96667,0.94134 0.60267,0.21466 1.37733,0.344 1.92933,0.66 0.416,0.23866 0.74267,0.664 1.176,0.91866 1.06,0.62667 2.304,0.82 3.376,1.37334 0.97467,0.504 1.91734,1.08933 2.86134,1.66266 0.524,0.23334 1.03733,0.62 1.516,0.9 0.56533,0.33067 1.12933,0.66134 1.69466,0.992 0.0227,0.0133 0.044,0.0267 0.0667,0.04 0.0307,0.0173 0.0613,0.036 0.092,0.0533 l 3.95733,2.31733 c 1.41867,0.83067 2.83734,1.66133 4.256,2.492 0.14134,0.0827 0.28267,0.16533 0.42534,0.248 0.39466,0.232 0.78933,0.46267 1.18533,0.69467 0.056,0.005 0.11333,0.0107 0.17067,0.016 0.28266,0.0253 0.95066,0.0867 1.90933,0.17466"
       style="opacity:0.199997;fill:#000000;fill-opacity:1;fill-rule:nonzero;stroke:none;stroke-width:1.33333"
       id="path31944" />
    <path
       d="m 316.54026,114.13654 c 3.94933,-4.69733 12.81333,-3.404 18.23866,-3.45733 3.25067,-0.0307 9.09334,0.42 11.56534,-1.37334 2.33066,-1.68933 2.03066,-5.124 4.84266,-6.60266 2.79867,-1.472 6.688,-0.94 9.27334,0.89066 3.392,2.40267 1.51466,5.688 -0.448,8.29867 -2.48134,3.29867 -5.036,6.644 -9.568,9.076 -6.75467,3.62533 -12.98,6.94 -20.92667,7.816 -3.27333,0.36133 -10.14533,2.05067 -13.084,-0.0733 -3.44666,-2.492 -2.28533,-11.704 0.10667,-14.57467"
       style="fill:#cd976d;fill-opacity:1;fill-rule:nonzero;stroke:none;stroke-width:1.33333"
       id="path31954" />
    <path
       d="m 321.77933,131.03387 c 1.91066,0 3.92,-0.32133 5.71066,-0.608 0.79734,-0.12666 1.53734,-0.24666 2.17467,-0.316 8.26266,-0.91066 14.64933,-4.33733 21.41066,-7.96533 4.924,-2.644 7.65867,-6.508 10.092,-9.744 1.424,-1.892 4.75867,-6.32533 0.19867,-9.55333 -2.13733,-1.51467 -5.212,-1.948 -7.97867,-1.34267 -1.248,0.27333 -2.348,0.80667 -3.55066,1.16667 -0.624,0.18666 -2.50134,0.512 -2.65867,1.12933 -0.0253,0.0987 0.352,0.63067 0.388,0.79733 0.0627,0.304 0.0387,0.71334 -0.003,1.02134 -0.136,1.012 -0.72533,2.72666 -1.67733,3.41733 -2.09733,1.52133 -8.36133,1.136 -11.276,1.16533 -0.54,0.005 -3.62133,0.16 -4.21733,0.15867 -3.00933,-0.003 -6.132,-0.42267 -9.09467,0.292 -2.376,0.572 -5.86133,2.06667 -6.34533,4.77467 0.41867,-2.344 6.90933,-3.62267 8.728,-3.93734 3.46133,-0.59866 7.00267,-0.54533 10.50266,-0.528 0.604,10e-4 1.18534,0 1.73734,-0.004 3.52133,-0.0347 8.11733,0.30667 10.97466,-1.76666 1.26934,-0.92 1.256,-1.89067 1.812,-2.916 0.60934,-1.12134 1.848,-2.72 3.052,-3.35334 2.09067,-1.09866 5.73467,-0.66533 8.01067,0.948 2.132,1.508 1.71333,4.02134 -0.91333,7.51467 -2.48134,3.29867 -4.87734,6.17467 -9.04267,8.40933 -6.528,3.50267 -12.69333,6.812 -20.44133,7.66534 -0.676,0.0747 -1.45867,0.19866 -2.304,0.33333 -2.676,0.428 -5.53733,1.09733 -8.26,0.77067 -3.272,-0.39334 -3.44933,-2.784 -3.644,-5.63334 -1.284,1.27334 -0.29467,4.38 0.512,5.656 1.272,2.01467 3.86133,2.448 6.10267,2.448"
       style="fill:#000000;fill-opacity:1;fill-rule:nonzero;stroke:none;stroke-width:1.33333"
       id="path31958" />
    <path
       d="m 362.30106,106.32014 c -0.20667,-1.504 -0.956,-2.916 -2.98934,-3.332 -1.224,-0.24933 -1.08,0.29333 -0.684,1.01067 0.27467,0.5 1.22267,1.656 0.40534,2.108 -0.67334,0.37333 -1.436,-0.552 -1.97734,0.052 -0.53466,0.596 0.46667,2.25733 0.42134,2.95866 -0.068,1.07734 -1.104,3.06 -2.75067,3.18267 -0.18667,-0.61333 -1.03067,-1.36133 -2.01733,-1.16533 -0.77867,0.15466 -0.43867,0.86933 -0.408,1.36933 0.15866,2.524 -2.61734,3.85467 -5.056,5.08933 -0.89867,0.456 -2.64267,2.63867 -3.63334,3.05467 -1.76,0.73733 -3.58533,1.06267 -5.42533,1.54933 -2.004,0.52934 -4.04133,0.87467 -6.05066,1.39334 -0.87867,0.228 -1.76267,0.46 -2.652,0.65466 -1.14534,0.24934 -2.30267,0.43867 -3.47734,0.47334 -1.82,0.056 -3.63333,-0.256 -5.39866,-0.70134 -1.22,-0.30933 -2.49334,-0.72533 -3.31467,-1.67866 -1.00267,-1.16134 -1.04933,-2.69467 -1.02267,-4.144 0.003,-0.11067 -0.11733,-0.91334 -0.084,-0.95067 -0.45066,0.49333 -0.95066,0.94533 -1.29466,1.52667 -0.26134,0.44 -0.552,1.08 -0.98267,1.35466 -0.0787,-0.0987 -0.15867,-0.224 -0.24667,-0.33466 0.0507,-0.35734 0.10267,-0.71734 0.11867,-1.056 0.28667,-5.91734 -4.46,-8.848 -12.70133,-6.32134 -8.04267,2.46667 -14.124,3.40534 -23.00134,1.056 -22.61733,-5.98533 -44.07333,-11.528 -64.224,-18.013329 -4.49066,-1.446667 -9.08933,-2.985333 -12.74133,-0.190667 -3.272,2.505334 -6.37733,5.385336 -9.55733,7.985336 -4.14933,3.39333 -9.504,6.78133 -12.21467,11.25866 -2.88533,4.76534 -3.124,10.94934 -0.624,18.07334 2.17734,6.204 4.21867,12.33333 6.23734,18.18533 1.59333,4.616 2.69866,9.804 4.89466,14.12933 5.988,11.792 18.48,14.512 29.08933,13.784 0.172,0.0187 0.35067,0.036 0.56134,0.0507 0.084,0.007 1.276,-0.18667 1.97333,-0.28667 0.108,-0.0133 0.22,-0.0213 0.328,-0.0347 0.06,-0.008 0.10933,-0.0173 0.168,-0.0253 3.724,-0.52133 0.49733,-2.69866 -0.71067,-4.39733 -2.25466,-3.17067 -1.20533,-6.25067 -0.008,-9.63733 0.88934,-2.51467 1.488,-5.17467 2.224,-7.73334 1.496,-5.20133 6.18134,-8.50933 9.91067,-12.264 2.83067,-2.848 6.05333,-5.55066 9.188,-8.024 5.16533,-4.07333 13.21867,-4.652 19.488,-5.46 7.20267,-0.928 15.15467,-3.364 22.428,-1.58266 0.97333,0.23866 1.95067,0.46266 2.92933,0.67866 0.70667,0.21467 1.45334,0.34934 2.20267,0.47067 0.95067,0.18933 1.904,0.35067 2.85867,0.51067 0.90533,0.17066 1.812,0.33466 2.72266,0.468 0.988,0.144 1.98,0.256 2.97734,0.312 0.02,10e-4 0.04,0 0.06,10e-4 0.14133,0.0133 0.28,0.0373 0.42133,0.0493 2.04267,0.184 4.28667,-0.128 6.396,-0.884 0.53733,-0.19333 1.06267,-0.416 1.59333,-0.67866 1.75067,-0.86667 3.30134,-2.06934 4.41067,-3.584 0.16933,-0.23067 0.33067,-0.468 0.484,-0.72134 0.0253,-10e-4 0.052,-0.005 0.0773,-0.005 0.55067,-0.004 1.136,-0.001 1.68,0.0747 0.47467,0.0667 0.97467,0.11866 1.45334,0.20666 0.32266,1.00667 0.836,1.91734 1.67866,2.52667 2.93734,2.12267 9.80934,0.43333 13.084,0.072 7.94533,-0.87467 14.17067,-4.18933 20.92667,-7.81467 4.532,-2.43333 7.08666,-5.77866 9.56666,-9.07733 0.86534,-1.14933 1.68134,-2.35733 2.08534,-3.656 0.19466,-0.62533 0.292,-1.27467 0.204,-1.916"
       style="fill:#cd976d;fill-opacity:1;fill-rule:nonzero;stroke:none;stroke-width:1.33333"
       id="path31962" />
    <path
       d="m 362.30106,106.32014 c -0.20667,-1.504 -0.956,-2.916 -2.98934,-3.332 -1.224,-0.24933 -1.08,0.29333 -0.684,1.01067 0.27467,0.5 1.22267,1.656 0.40534,2.108 -0.67334,0.37333 -1.436,-0.552 -1.97734,0.052 -0.53466,0.596 0.46667,2.25733 0.42134,2.95866 -0.068,1.07734 -1.104,3.06 -2.75067,3.18267 -0.18667,-0.61333 -1.03067,-1.36133 -2.01733,-1.16533 -0.77867,0.15466 -0.43867,0.86933 -0.408,1.36933 0.15866,2.524 -2.61734,3.85467 -5.056,5.08933 -0.89867,0.456 -2.64267,2.63867 -3.63334,3.05467 -1.76,0.73733 -3.58533,1.06267 -5.42533,1.54933 -2.004,0.52934 -4.04133,0.87467 -6.05066,1.39334 -0.87867,0.228 -1.76267,0.46 -2.652,0.65466 -1.14534,0.24934 -2.30267,0.43867 -3.47734,0.47334 -1.82,0.056 -3.63333,-0.256 -5.39866,-0.70134 -1.22,-0.30933 -2.49334,-0.72533 -3.31467,-1.67866 -1.00267,-1.16134 -1.04933,-2.69467 -1.02267,-4.144 0.003,-0.11067 -0.11733,-0.91334 -0.084,-0.95067 -0.45066,0.49333 -0.95066,0.94533 -1.29466,1.52667 -0.26134,0.44 -0.552,1.08 -0.98267,1.35466 -0.0773,-0.0987 -0.15867,-0.224 -0.24533,-0.33333 -0.13734,-0.17333 -0.296,-0.304 -0.52134,-0.188 -0.48133,0.248 -0.48933,1.03333 -0.98,1.312 -0.1,-1.26933 -0.41333,-2.432 -0.788,-3.64267 -0.12933,-0.41733 -0.372,-0.89466 -0.424,-1.33066 0.42134,1.85333 0.16934,4.39733 -1.60666,5.508 -0.62267,0.38933 -1.36934,0.52533 -2.10134,0.58533 -3.98266,0.328 -7.80133,-1.28133 -11.58533,-2.256 -2.65867,-0.684 -9.54533,-4.21333 -11.61333,-1.516 2.31466,0.96533 4.89066,1.604 7.10933,2.87867 4.48933,2.57866 2.94933,4.26 -1.09733,3.79466 -5.31734,-0.61066 -10.57867,-1.74 -15.736,-3.156 -10.09867,-2.77466 -19.81067,-6.48 -29.48267,-9.59866 -7.37867,-2.37867 -13.31467,-6.99334 -19.99867,-8.93334 -9.084,-2.63733 -18.11733,-0.23866 -25.84933,3.47734 -0.908,0.43733 -1.79866,0.88133 -2.71733,1.296 -1.65733,0.748 -3.40533,1.23466 -4.89067,2.22666 -1.688,1.12667 -3.41733,2.32134 -4.69066,3.812 -1.412,1.65334 -2.03067,3.62667 -2.96667,5.52934 -0.648,1.31866 -1.048,3.90266 -1.18667,5.78533 -0.0587,0.792 0.0347,4.968 0.80267,5.39333 1.09333,-2.33333 1.24533,-6.88933 2.50267,-8.608 0.80933,0.79467 0.86933,4.71334 1.01466,5.904 0.236,1.93334 0.64134,3.86267 1.14134,5.764 0.956,3.63067 2.03466,7.15734 3.08933,10.62134 1.34,4.39866 2.392,8.844 4.068,13.02533 0.84267,2.10133 1.83733,4.15067 3.12133,5.94533 0.608,0.85067 1.28,1.64267 2.024,2.33334 0.768,0.71466 1.33067,1.544 2.07733,2.256 1.42,1.35466 3.19867,2.02133 4.92134,2.56666 1.964,0.62267 3.952,0.61867 5.92266,1.05867 1.264,0.28267 1.91467,1.31467 0.932,2.508 -0.82533,1.00267 -2.50933,1.05067 -3.74,1.24533 -1.01866,0.16 -5.048,-0.21866 -4.43066,1.79067 1.36933,0.572 2.976,0.21067 4.38533,0.468 1.63067,0.29733 3.228,0.69467 4.81333,1.13333 1.268,0.0173 2.52534,-0.016 3.756,-0.1 0.172,0.0187 0.35067,0.036 0.56134,0.0507 0.084,0.007 1.276,-0.18667 1.97333,-0.28667 0.108,-0.0133 0.22,-0.0213 0.328,-0.0347 0.06,-0.008 0.10933,-0.0173 0.168,-0.0253 3.724,-0.52133 0.49733,-2.69866 -0.71067,-4.39733 -2.25466,-3.17067 -1.20533,-6.25067 -0.007,-9.63733 0.888,-2.51467 1.48666,-5.17467 2.22266,-7.73334 1.496,-5.20133 6.18134,-8.50933 9.91067,-12.264 2.83067,-2.84933 6.05333,-5.55066 9.18933,-8.024 5.164,-4.07333 13.21734,-4.652 19.48667,-5.46 7.20267,-0.928 15.15467,-3.364 22.428,-1.58266 0.97333,0.23866 1.95067,0.46266 2.92933,0.67866 0.70667,0.21467 1.45334,0.34934 2.20267,0.47067 0.95067,0.18933 1.904,0.35067 2.85867,0.51067 0.90533,0.17066 1.812,0.33466 2.72266,0.468 0.988,0.144 1.98,0.256 2.97734,0.312 0.02,10e-4 0.04,0 0.06,10e-4 0.14133,0.0133 0.28,0.0373 0.42133,0.0493 2.04267,0.184 4.28667,-0.128 6.396,-0.884 0.53733,-0.19333 1.06267,-0.416 1.59333,-0.67866 0.428,-0.212 0.844,-0.44534 1.24534,-0.69867 0.0787,-0.0627 0.13866,-0.13867 0.22133,-0.19867 1.02667,-0.74666 1.876,-1.608 2.772,-2.51333 0.056,-0.0573 0.11333,-0.116 0.172,-0.17333 0.16933,-0.23067 0.33067,-0.468 0.484,-0.72134 0.0253,-10e-4 0.052,-0.005 0.0773,-0.005 0.55067,-0.004 1.136,-0.001 1.68,0.0747 0.47467,0.0667 0.97467,0.11866 1.45334,0.20666 0.32266,1.00667 0.836,1.91734 1.67866,2.52667 2.93734,2.12267 9.80934,0.43333 13.084,0.072 7.94533,-0.87467 14.17067,-4.18933 20.92667,-7.81467 4.532,-2.43333 7.08666,-5.77866 9.56666,-9.07733 0.86534,-1.14933 1.68134,-2.35733 2.08534,-3.656 0.19466,-0.62533 0.292,-1.27467 0.204,-1.916"
       style="opacity:0.199997;fill:#000000;fill-opacity:1;fill-rule:nonzero;stroke:none;stroke-width:1.33333"
       id="path31972" />
    <path
       d="m 218.15613,107.21614 c 4.00666,1.77467 7.09066,1.78667 10.91066,3.61733 3.94134,1.88934 8.55067,3.144 13.34534,4.57867 3.62533,1.084 7.072,2.024 10.57733,3.31867 1.10533,0.408 2.21067,0.616 3.34267,0.88933 1.16133,0.27867 2.20533,0.90533 3.34266,1.28133 0.724,0.23867 1.54534,0.31734 1.82667,1.09334 -1.65067,0.488 -3.93467,-0.0893 -5.63467,-0.24667 -1.70933,-0.15867 -3.436,-0.392 -5.16133,-0.51067 -0.8,-0.056 -1.67467,0.0373 -2.33333,-0.45733 -0.22667,-0.17067 -0.26267,-0.54933 -0.52667,-0.75467 -0.62667,-0.48666 -1.57467,-0.49066 -2.388,-0.62 -1.24533,-0.2 -2.35733,-0.29066 -3.608,-0.29066 -1.992,0 -3.98533,-0.0267 -5.97733,10e-4 -1.70934,0.0227 -3.35334,0.61867 -5.08,0.68 -3.85467,0.13867 -1.61734,-1.53733 -2.27867,-3.484 -0.83733,-2.46267 -4.748,-2.24933 -7.164,-2.85467 -4.75067,-1.19066 -9.58933,-1.57333 -14.32,-1.368 -7.116,0.308 -13.12533,4.12267 -15.21733,10.26534 -2.084,6.11733 2.812,17.85333 5.532,24.832 0.84933,2.17866 1.83333,4.304 2.47067,6.464 0.59599,2.01866 0.92533,3.56 2.23466,5.23866 2.38,3.052 4.63867,6.33734 8.332,6.85867 4.764,0.672 8.14267,-2.444 12.21067,-4.38933 0.83466,1.164 0.22666,2.968 -0.56667,4.02933 -0.84267,1.128 -2.048,1.81733 -3.264,2.35467 -5.09333,2.25333 -11.32133,2.52933 -16.46133,-0.48667 -6.668,-3.91467 -8.916,-15.26667 -11.212,-22.80533 -1.17733,-3.864 -2.44133,-7.81334 -3.408,-11.88934 -0.49867,-2.10266 -0.48933,-4.30933 -0.996,-6.384 -0.2,-0.81733 -0.82,-2.94666 -0.85733,-3.64533 -0.0373,-0.712 0.14266,-1.39867 0.248,-2.08267 0.24,-1.55866 1.20666,-2.124 2.56266,-2.856 2.17334,-1.17466 4.064,-2.76666 5.75734,-4.49866 1.40933,-1.44 3.29866,-2.25467 4.70666,-3.688 0.98533,-1.00534 1.648,-2.10667 3.01333,-2.664 1.612,-0.65734 3.336,-1.128 5.132,-1.34134 3.62534,-0.43333 7.40267,0.26134 10.90934,1.81467"
       style="opacity:0.199997;fill:#000000;fill-opacity:1;fill-rule:nonzero;stroke:none;stroke-width:1.33333"
       id="path31988" />
    <path
       d="m 220.66053,177.47801 c -0.55734,-0.15467 -1.23067,-0.13734 -1.648,-0.092 -0.38267,0.04 -0.76,0.15466 -1.14267,0.18 -0.336,0.024 -0.68267,-0.012 -1.02133,-0.001 -0.76134,0.024 -1.52,0.0907 -2.28267,0.076 -9.656,-0.18933 -19.28,-4.35866 -23.79866,-13.284 -1.41467,-2.79333 -2.38,-6.04533 -3.32134,-9.216 -0.46666,-1.56933 -0.95066,-3.19866 -1.48266,-4.74666 -2.168,-6.30667 -4.10934,-12.08534 -6.20934,-18.092 -2.28266,-6.528 -2.24533,-12.45334 0.60534,-17.15067 2.00533,-3.30267 5.548,-6.01067 8.99866,-8.65067 1.04,-0.79466 2.06267,-1.57733 3.02267,-2.36 1.27333,-1.04 2.536,-2.124 3.80133,-3.212 1.85734,-1.594662 3.78667,-3.251996 5.732,-4.738662 1.27333,-0.970667 2.696,-1.337334 4.224,-1.337334 2.248,0.0013 4.716,0.796 7.26667,1.616 l 0.19466,0.064 c 14.436,4.642666 29.00667,8.541336 44.92,12.765336 10.40534,2.76133 22.37334,6.092 33.508,5.044 3.66534,-0.34667 6.96934,-1.396 10.51067,-2.064 2.28933,-0.432 4.62267,-0.37867 6.912,-0.712 -2.69067,-2.06 -5.704,-1.364 -8.76133,-0.42667 -7.87334,2.41333 -13.75334,3.296 -22.268,1.04133 -13.888,-3.676 -27.72667,-6.28133 -41.11067,-10.428 -8.30933,-2.575996 -15.432,-4.873329 -23.2,-7.375996 l -0.19333,-0.06267 c -4.47467,-1.442667 -9.556,-3.081334 -13.60534,0.024 -1.98933,1.526666 -3.93999,3.209333 -5.81733,4.829333 -1.25333,1.081333 -2.504,2.160003 -3.76533,3.193333 -0.94533,0.77467 -1.95333,1.548 -2.97733,2.33467 -3.584,2.752 -7.26,5.576 -9.43067,9.172 -3.13067,5.188 -3.19333,11.74667 -0.64,18.996 2.14667,6.092 4.148,12.16 6.26667,18.27733 0.51466,1.48267 0.97066,3.00667 1.452,4.61467 0.98666,3.28933 1.99733,6.664 3.53333,9.68267 2.372,4.65866 9.27067,14.36533 25.91866,14.584 1.46667,0.02 3.28934,-0.44934 4.71067,-0.14267 0.51467,0.11067 1.27467,0.87067 1.8,0.39467 0.192,-0.17467 0.23467,-0.59467 0.28,-0.836 0.0693,-0.36667 0.0293,-0.76534 -0.0427,-1.12934 -0.0893,-0.45333 -0.47333,-0.70133 -0.93866,-0.83066"
       style="fill:#000000;fill-opacity:1;fill-rule:nonzero;stroke:none;stroke-width:1.33333"
       id="path31998" />
    <path
       d="m 207.40826,170.52121 c -1.27467,-1.71867 -3.316,-2.09067 -4.77733,-3.484 -1.26267,-1.204 -2.37734,-2.74534 -3.416,-4.22534 -1.24,-1.768 -2.99867,-3.42666 -3.61067,-5.55466 -0.376,-1.30534 -0.10533,-2.54667 -0.244,-3.90667 -0.23066,-2.23333 -1.12533,-4.54267 -1.74133,-6.72933 -1.148,-4.07334 -2.53333,-8.09734 -3.868,-12.34134 -1.17733,-3.74133 -3.88667,-11.244 -2.55467,-14.128 0.636,-1.37733 2.79867,-2.5 3.99467,-3.33466 1.592,-1.11334 3.26667,-2.16 4.84933,-3.3 2.43867,-1.75467 4.70133,-4.06667 7.38667,-5.42534 1.39866,-0.708 3.208,-1.17733 4.74533,-1.50933 2.31467,-0.5 4.22667,0.71333 6.496,1.62267 5.24533,2.10266 9.532,1.99066 14.49333,4.28 6.24667,2.88 13.58,3.86533 20.84134,6.29066 1.964,0.656 3.996,1.33467 5.956,1.88267 4.46133,1.24933 9.22933,4.46 14.13866,5.95333 8.62134,2.62 18.39334,5.592 28.444,6.49467 3.07734,0.276 6.26267,-0.52533 8.928,-2.064 2,-1.15467 6.632,-4.54133 4.63867,-7.31467 -0.72133,1.39067 -0.70133,2.59734 -1.89333,3.72 -0.99334,0.936 -2.156,1.59867 -3.43334,2.07067 -2.51866,0.93333 -5.34,1.17067 -8.00133,0.93067 -9.77733,-0.87734 -20.92133,-3.572 -29.41867,-6.156 -4.85466,-1.476 -9.58666,-4.18134 -14.01866,-5.42267 -1.884,-0.528 -3.79067,-1.164 -5.808,-1.83867 -4.208,-1.404 -9.07867,-2.25333 -12.812,-3.57866 -2.736,-0.972 -5.58,-1.71334 -8.208,-2.908 -3.60667,-1.63867 -5.064,-2.38667 -8.88534,-3.77067 -3.632,-1.316 -7.78266,-2.21467 -11.48266,-1.79067 -4.26,0.48934 -9.512,1.76267 -12.54133,4.45467 -2.09334,1.86133 -3.64934,4.252 -5.676,6.11867 -1.66,1.52933 -4.16667,2.48533 -4.45067,4.93466 -0.18267,1.57467 0.592,5.09867 0.77867,7.152 0.264,2.90134 0.196,5.84134 1.19066,8.684 0.86934,2.48 1.79867,5.01734 2.72534,7.34534 1.292,3.24 2.20933,6.30666 3.204,9.604 1.10266,3.656 1.91066,7.27066 3.57466,10.588 2.08267,4.148 6.55067,6.14533 10.456,6.656"
       style="fill:#000000;fill-opacity:1;fill-rule:nonzero;stroke:none;stroke-width:1.33333"
       id="path32002" />
    <path
       d="m 304.05853,89.909208 c 0.69866,-0.529334 1.312,-1.153334 2.1,-1 0.64533,0.125333 1.24133,0.866666 1.82666,1.245333 0.81067,0.525333 1.64,0.997333 2.45734,1.497333 1.64,1.002667 3.28133,2.001334 4.93733,2.944 3.75067,2.133334 9.26,5.254667 14.96133,6.446666 3.46,0.724 6.73333,0.12933 10.43067,0.77867 1.48533,0.26 2.864,0.552 4.30266,0.94133 0.868,0.236 2.20934,0.31467 2.72,1.19333 0.284,0.488 0.35734,2.048 -0.536,1.79867 -0.71466,-0.2 -1.27866,-0.708 -1.98133,-0.90133 -0.56667,-0.15467 -1.16133,-0.32134 -1.736,-0.44934 -4.148,-0.92 -8.22267,-1.92533 -12.45866,-2.492 -3.36667,-0.452 -5.256,-0.80133 -8.16267,-2.001329 -3.12267,-1.289333 -5.52933,-3.588 -7.764,-4.562667 -1.62133,-0.706666 -3.09467,-1.764 -4.664,-2.666666 -0.70667,-0.406667 -1.364,-0.869334 -2.08133,-1.269334 -1.492,-0.830666 -2.75067,-1.421333 -4.352,-1.502666"
       style="opacity:0.199997;fill:#000000;fill-opacity:1;fill-rule:nonzero;stroke:none;stroke-width:1.33333"
       id="path32012" />
    <path
       d="m 311.32786,127.38241 c 0.80667,-1.02667 2.42,-1.68667 3.592,-0.51334 l -1.172,-5.05866 c 0,0 -1.32,3.07866 -1.32,3.372 0,0.29333 -1.1,2.2 -1.1,2.2"
       style="fill:#000000;fill-opacity:1;fill-rule:nonzero;stroke:none;stroke-width:1.33333"
       id="path32022" />
    <path
       d="m 307.46213,130.84841 c 1.288,-0.572 4.99066,-2.05067 6.11866,-2.09334 -0.27866,0.0107 -3.88933,-0.16933 -2.796,-0.98133 -0.69333,0.51467 -1.36533,0.908 -1.928,1.56133 -0.34666,0.404 -0.9,1.29334 -1.39466,1.51334"
       style="fill:#000000;fill-opacity:1;fill-rule:nonzero;stroke:none;stroke-width:1.33333"
       id="path32026" />
    <path
       d="m 217.43706,164.20281 c -3.56133,1.60266 -14.06533,6.232 -18.516,-9.97067 -4.45066,-16.20133 -9.97066,-25.63733 -8.54666,-30.44533 1.42533,-4.80667 6.40933,-11.928 15.13333,-12.284 8.724,-0.356 18.87333,1.78 21.188,2.136 2.31466,0.356 2.46666,-1.15467 2.46666,-1.15467 l 13.24934,2.928 c 0,0 -11.8,1.25333 -16.072,0.72 -4.27334,-0.53467 -18.51734,-3.20533 -22.43334,-1.95867 -3.91733,1.24667 -10.50533,5.69734 -11.03866,10.148 -0.53467,4.45067 4.272,18.33867 4.98533,21.36534 0.712,3.02666 4.848,16.59866 8.01067,17.804 3.74,1.424 11.57333,0.712 11.57333,0.712"
       style="fill:#000000;fill-opacity:1;fill-rule:nonzero;stroke:none;stroke-width:1.33333"
       id="path32030" />
    <path
       d="m 209.77559,123.52281 c 1.588,-1.71734 3.16934,-1.77334 5.18134,-0.748 2.24666,1.14666 5.71733,2.74666 6.21866,5.46133 0.45734,2.48 -0.236,6.57867 -1.62,8.672 1.35334,-4.012 -1.468,-13.872 -7.45466,-11.652 -1.92667,0.71467 -2.36667,3.02133 -2.848,4.804 -0.86134,3.18267 -1.36267,6.21067 -1.68534,9.45733 -0.21066,2.10667 0.30134,8.432 2.364,9.712 -2.62533,-1.628 -4.01466,-4.33866 -4.91333,-7.20933 -0.98133,-3.132 0.99333,-4.42533 1.544,-7.28267 0.80533,-4.188 0.14667,-7.9 3.21333,-11.21466"
       style="fill:#000000;fill-opacity:1;fill-rule:nonzero;stroke:none;stroke-width:1.33333"
       id="path32034" />
    <path
       d="m 212.78226,118.36427 c 2.53867,0.14534 5.10267,0.452 7.30533,-0.596 -2.75066,-1.08133 -5.864,-0.976 -8.76533,-0.88533 -2.416,0.076 -5.55467,-0.18 -7.776,0.9 -1.59733,0.77733 -2.63733,2.25333 -3.45867,3.86133 -2.20533,4.31334 -2.08133,8.62134 -0.97999,13.08267 -0.076,-3.19867 0.29466,-6.74667 1.06399,-9.84933 0.78534,-3.17067 4.076,-4.58 6.93467,-5.85734 1.75733,-0.78533 3.70933,-0.76933 5.676,-0.656"
       style="fill:#000000;fill-opacity:1;fill-rule:nonzero;stroke:none;stroke-width:1.33333"
       id="path32038" />
    <path
       d="m 217.52746,142.87014 c 0.192,-0.36267 0.428,-0.7 0.71467,-1 -0.0693,0.0733 -0.45067,0.12 -0.576,0.204 -0.18267,0.12 -0.33734,0.31867 -0.44,0.504 -0.31467,0.57067 -0.428,1.39067 -0.54667,2.02533 -0.24933,1.34134 -0.29467,2.72 -0.12533,4.07334 0.092,0.72933 0.244,1.456 0.24133,2.192 -0.003,0.92 -0.32133,1.61733 -0.86133,2.33733 -0.46534,0.62 -1.07067,1.104 -1.784,1.41867 -1.32667,0.584 -2.97334,0.46266 -4.348,0.12933 -1.204,-0.292 -2.66,-0.81333 -3.65467,-1.56267 1.004,1.296 2.33867,2.352 3.876,2.92134 1.53733,0.568 3.27733,0.628 4.812,0.056 1.14,-0.42534 2.14933,-1.19067 2.86533,-2.172 0.488,-0.67067 0.848,-1.468 0.84134,-2.29734 -0.008,-1.04533 -0.58,-1.988 -1.07067,-2.91066 -0.964,-1.816 -0.91333,-4.084 0.056,-5.91867"
       style="fill:#000000;fill-opacity:1;fill-rule:nonzero;stroke:none;stroke-width:1.33333"
       id="path32042" />
    <path
       d="m 207.49293,146.14961 c -0.77734,-2.58667 -0.38667,-7.10134 -0.29734,-8.072 0.188,-2.06534 0.63734,-4.028 1.04267,-6.05067 0.344,-1.712 0.348,-3.60267 0.948,-5.26133 2.168,-6 8.54933,-1.21334 10.24,2.644 1.8,4.108 0.964,9.12266 -1.63867,12.552 -1.45066,1.91333 -2.04666,4.33333 -0.98,6.508 0.596,1.21466 1.06934,2.18266 0.0907,3.38666 -0.728,0.896 -1.79733,1.46667 -2.64,0.48667 -0.78533,-0.91067 -0.67867,-2.9 -0.78267,-3.99333 -0.192,-2.03067 -0.128,-3.768 0.74667,-5.65867 1.46533,-3.17067 5.56,-9.37733 2.592,-12.912 -2.48533,-2.96 -4.67333,-0.46533 -5.55867,2.04 -0.88266,2.50267 2.89867,3.98933 2.188,6.688 -0.55333,2.09867 -1.43866,4.044 -2.06666,6.176 -0.224,0.76 -0.628,2.84 -1.53067,3.17333 -1.23467,0.456 -1.95067,-0.36666 -2.35333,-1.70666"
       style="opacity:0.199997;fill:#000000;fill-opacity:1;fill-rule:nonzero;stroke:none;stroke-width:1.33333"
       id="path32052" />
    <path
       d="m 213.73479,116.98187 c -4.228,0.048 -8.28266,-0.0333 -11.69466,2.852 -2.50667,2.12134 -3.14933,7.10667 -2.94,10.2 0.29467,4.36134 1.032,8.74534 2.08,13.01334 0.62133,2.536 1.95866,4.67066 2.65066,7.124 -0.10933,-1.52934 -0.91066,-3.17467 -1.21333,-4.69467 -0.33067,-1.66933 -0.704,-3.288 -0.784,-5.00267 -0.22133,-4.72 0.48,-9.58133 1.26267,-14.22666 0.164,-0.97734 0.352,-1.97734 0.86266,-2.82667 1.048,-1.74 3.22134,-2.468 5.248,-2.60267 4.54534,-0.304 9.12,0.296 13.66267,0.0427 1.10933,-0.0627 -1.29333,-2.488 -1.476,-2.59067 -1.356,-0.76 -3.23867,-1.19733 -4.784,-1.25333 -0.944,-0.0347 -1.90533,-0.0453 -2.87467,-0.0347"
       style="opacity:0.199997;fill:#000000;fill-opacity:1;fill-rule:nonzero;stroke:none;stroke-width:1.33333"
       id="path32068" />
    <path
       d="m 314.34346,113.66814 c 0.56133,0.12667 1.20133,0.0933 1.67467,-0.25067 0.64666,-0.46933 1.284,-0.77733 2.012,-1.10933 0.24533,0.416 -0.26534,0.884 -0.512,1.16267 -0.37067,0.41466 -0.64934,0.8 -1.148,1.09466 -0.44934,0.26667 -1.004,0.504 -1.50134,0.64534 -0.276,0.08 -0.54933,0.0787 -0.804,-0.0867 -0.50533,-0.32933 -0.784,-0.81733 -1.132,-1.28533 -0.17333,-0.23067 -0.792,-0.54267 -0.54,-0.93867 0.332,-0.52533 1.49067,0.648 1.84267,0.74133 0.036,0.009 0.072,0.0187 0.108,0.0267"
       style="fill:#000000;fill-opacity:1;fill-rule:nonzero;stroke:none;stroke-width:1.33333"
       id="path32078" />
  </g>
</svg>
