<?xml version="1.0" encoding="UTF-8" standalone="no"?>
<!-- Created with Inkscape (http://www.inkscape.org/) -->

<svg
   version="1.1"
   id="svg6065"
   width="400"
   height="400"
   viewBox="0 0 400 400"
   sodipodi:docname="HumanEar.svg"
   inkscape:version="1.2.2 (b0a8486, 2022-12-01)"
   xmlns:inkscape="http://www.inkscape.org/namespaces/inkscape"
   xmlns:sodipodi="http://sodipodi.sourceforge.net/DTD/sodipodi-0.dtd"
   xmlns="http://www.w3.org/2000/svg"
   xmlns:svg="http://www.w3.org/2000/svg">
  <defs
     id="defs6069" />
  <sodipodi:namedview
     id="namedview6067"
     pagecolor="#ffffff"
     bordercolor="#666666"
     borderopacity="1.0"
     inkscape:showpageshadow="2"
     inkscape:pageopacity="0.0"
     inkscape:pagecheckerboard="0"
     inkscape:deskcolor="#d1d1d1"
     showgrid="false"
     inkscape:zoom="1.475"
     inkscape:cx="199.66102"
     inkscape:cy="200"
     inkscape:window-width="1440"
     inkscape:window-height="810"
     inkscape:window-x="2235"
     inkscape:window-y="163"
     inkscape:window-maximized="0"
     inkscape:current-layer="HumanEar">
    <inkscape:page
       x="0"
       y="0"
       id="page6071"
       width="400"
       height="400" />
  </sodipodi:namedview>
  <g
     id="HumanEar"
     inkscape:groupmode="layer">
    <path
       d="m 215.13853,129.23107 c 0,0 -3.36134,-7.508 -5.37867,-9.076 -2.01733,-1.56933 -6.724,-2.35333 -9.63733,0.112 -2.91333,2.46534 -9.076,10.98134 -8.18,14.56667 0.896,3.58667 5.71467,11.20533 7.732,14.344 2.01733,3.13733 5.82666,11.20533 7.732,13.78267 1.90533,2.57733 3.69733,4.37066 6.612,3.69733 2.91333,-0.672 4.25733,-0.784 5.93866,-2.91333 0.38934,-0.49334 0.28134,-1.47734 0.276,-2.05467 -0.0133,-1.37467 -0.156,-2.75067 -0.30666,-4.11467 -0.0613,-0.56 0.0427,-1.25333 -0.128,-1.788 -0.30534,-0.96 -1.124,-1.72933 -1.672,-2.55866 -0.62134,-0.93734 -1.16,-1.94134 -1.44667,-3.036 -0.44533,-1.69334 -0.264,-3.47867 -0.15467,-5.22667 0.16934,-2.70933 0.15734,-5.43067 -0.0867,-8.13467 -0.124,-1.38266 -0.33334,-2.74666 -0.55867,-4.11466 -0.192,-1.16267 -0.25333,-2.39467 -0.74133,-3.48534"
       style="fill:#cd976d;fill-opacity:1;fill-rule:nonzero;stroke:none;stroke-width:1.33333"
       id="path6713" />
    <path
       d="m 214.08613,128.21681 c 0.40933,-4.732 -3.58667,-10.85334 -8.67867,-10.85334 -7.53333,0 -15.444,11.30134 -13.93733,18.45867 1.50667,7.15733 10.548,18.83467 12.43066,24.10933 1.884,5.27334 9.40267,10.01067 12.808,7.53334 2.072,-1.50667 2.82534,-3.57867 2.82534,-3.57867 0,0 -4.144,3.20267 -8.288,0.75333 -4.14267,-2.448 -6.40267,-6.96933 -7.53334,-10.35866 -1.13066,-3.39067 -10.54799,-14.12267 -10.54799,-18.64667 0,-6.592 6.96933,-15.44533 9.98266,-15.25733 2.25733,0.14133 4.66533,0.95333 6.38133,2.46 1.69867,1.49466 2.57334,4.27466 4.55734,5.38"
       style="fill:#000000;fill-opacity:1;fill-rule:nonzero;stroke:none;stroke-width:1.33333"
       id="path6717" />
    <path
       d="m 200.57733,127.20321 c 0,0 -4.368,1.62266 -4.992,6.23866 -0.624,4.61734 -0.124,6.864 1.872,9.11067 1.99733,2.24533 1.248,2.24533 4.24266,2.49467 2.99467,0.24933 4.86667,2.12133 5.616,4.86666 0,0 0.49867,-5.61466 3.36934,-7.36133 0,0 0.624,-2.12267 -0.5,-7.36267 -1.12267,-5.24133 -1.996,-6.864 -3.992,-8.112 -1.99734,-1.24666 -5.616,0.12534 -5.616,0.12534"
       style="opacity:0.199997;fill:#000000;fill-opacity:1;fill-rule:nonzero;stroke:none;stroke-width:1.33333"
       id="path6727" />
    <path
       d="m 195.99026,130.92494 c 0,0 2.448,-5.46267 6.96933,-5.46267 4.52,0 6.968,2.82534 7.15734,6.028 0.188,3.20134 4.14266,10.35867 1.50666,12.05467 -2.63733,1.69467 -4.52,6.78 -3.39066,8.09867 1.13066,1.31866 4.144,4.708 4.144,4.708 0,0 -4.52,-2.636 -6.028,-5.08534 -1.50667,-2.448 0.56533,-7.15733 2.63733,-8.852 2.072,-1.69466 -1.12933,-9.22933 -1.12933,-11.112 0,-1.884 -3.57867,-4.89733 -5.08667,-4.144 -1.50667,0.75334 -6.78,3.76667 -6.78,3.76667"
       style="fill:#000000;fill-opacity:1;fill-rule:nonzero;stroke:none;stroke-width:1.33333"
       id="path6737" />
    <path
       d="m 208.60986,130.17161 c 0,0 -4.144,3.39066 -4.332,5.83866 -0.188,2.44934 5.83867,-0.188 5.83867,-0.188 z"
       style="fill:#000000;fill-opacity:1;fill-rule:nonzero;stroke:none;stroke-width:1.33333"
       id="path6741" />
    <path
       d="m 202.39426,130.35987 c 0,0 -2.26,4.70934 -2.26,6.404 0,1.69467 0.188,5.83867 0.188,5.83867 0,0 -2.82533,-5.83867 -2.072,-7.53333 0.75334,-1.696 4.144,-4.70934 4.144,-4.70934"
       style="fill:#000000;fill-opacity:1;fill-rule:nonzero;stroke:none;stroke-width:1.33333"
       id="path6745" />
    <path
       d="m 209.92826,138.27067 -5.27333,2.82534 c 0,0 6.404,1.31866 6.404,0.75333 0,-0.56533 -0.56534,-3.76667 -0.56534,-3.76667"
       style="fill:#000000;fill-opacity:1;fill-rule:nonzero;stroke:none;stroke-width:1.33333"
       id="path6749" />
  </g>
</svg>
