<?xml version="1.0" encoding="UTF-8" standalone="no"?>
<!-- Created with Inkscape (http://www.inkscape.org/) -->

<svg
   width="400"
   height="400"
   viewBox="0 0 400 400"
   version="1.1"
   id="svg131556"
   xml:space="preserve"
   inkscape:version="1.2.2 (b0a8486, 2022-12-01)"
   sodipodi:docname="crewman.svg"
   xmlns:inkscape="http://www.inkscape.org/namespaces/inkscape"
   xmlns:sodipodi="http://sodipodi.sourceforge.net/DTD/sodipodi-0.dtd"
   xmlns="http://www.w3.org/2000/svg"
   xmlns:svg="http://www.w3.org/2000/svg"><sodipodi:namedview
     id="namedview131558"
     pagecolor="#ffffff"
     bordercolor="#666666"
     borderopacity="1.0"
     inkscape:showpageshadow="2"
     inkscape:pageopacity="0.0"
     inkscape:pagecheckerboard="0"
     inkscape:deskcolor="#d1d1d1"
     inkscape:document-units="px"
     showgrid="false"
     showguides="true"
     inkscape:zoom="5.9"
     inkscape:cx="208.72881"
     inkscape:cy="223.72881"
     inkscape:window-width="1440"
     inkscape:window-height="810"
     inkscape:window-x="2527"
     inkscape:window-y="391"
     inkscape:window-maximized="0"
     inkscape:current-layer="g152326" /><defs
     id="defs131553" /><g
     inkscape:label="Insignia 1st"
     inkscape:groupmode="layer"
     id="layer1"
     style="display:none"
     sodipodi:insensitive="true"><g
       id="g150746"><path
         style="fill:#a1b7cc;fill-opacity:1;stroke:#000000;stroke-width:0.400393;stroke-linecap:butt;stroke-linejoin:miter;stroke-dasharray:none;stroke-opacity:1"
         d="m 228.24801,242.35683 12.71512,6.86982 1.01368,3.47707 -3.03947,5.62565 -3.37082,0.88569 -12.71512,-6.86983 z"
         id="path132489" /><path
         style="fill:#383838;fill-opacity:1;stroke:#000000;stroke-width:0.177902px;stroke-linecap:butt;stroke-linejoin:miter;stroke-opacity:1"
         d="m 228.45618,243.05431 11.94505,6.45377 0.98918,3.19822 -2.76388,5.11557 -3.1326,0.76896 -11.94505,-6.45377 z"
         id="path132497" /><path
         id="path150722"
         style="display:inline;fill:#a1b7cc;fill-opacity:1;stroke:#000000;stroke-width:0.189247px;stroke-linecap:butt;stroke-linejoin:miter;stroke-opacity:1"
         d="m 229.30227,251.75692 -1.21518,2.33462 -1.24048,-0.6731 1.05554,-1.9453 -0.37078,-5.63871 1.14732,-2.11447 1.24049,0.6731 -0.96375,1.77615 z"
         sodipodi:nodetypes="ccccccccc" /><path
         id="path150724"
         style="display:inline;fill:#a1b7cc;fill-opacity:1;stroke:#000000;stroke-width:0.189247px;stroke-linecap:butt;stroke-linejoin:miter;stroke-opacity:1"
         d="m 231.65464,253.03333 -1.21518,2.33462 -1.24048,-0.67309 1.05554,-1.94531 -0.37078,-5.63871 1.14732,-2.11446 1.24049,0.6731 -0.96375,1.77614 z"
         sodipodi:nodetypes="ccccccccc" /><path
         id="path150726"
         style="display:inline;fill:#a1b7cc;fill-opacity:1;stroke:#000000;stroke-width:0.189247px;stroke-linecap:butt;stroke-linejoin:miter;stroke-opacity:1"
         d="m 234.04688,254.33138 -1.21518,2.33462 -1.24048,-0.6731 1.05554,-1.9453 -0.37078,-5.63871 1.14732,-2.11446 1.24049,0.67309 -0.96375,1.77615 z"
         sodipodi:nodetypes="ccccccccc" /></g></g><g
     inkscape:label="Insignia 2nd"
     inkscape:groupmode="layer"
     id="g151541"
     style="display:none"
     sodipodi:insensitive="true"><g
       id="g151539"><path
         style="fill:#a1b7cc;fill-opacity:1;stroke:#000000;stroke-width:0.400393;stroke-linecap:butt;stroke-linejoin:miter;stroke-dasharray:none;stroke-opacity:1"
         d="m 228.24801,242.35683 12.71512,6.86982 1.01368,3.47707 -3.03947,5.62565 -3.37082,0.88569 -12.71512,-6.86983 z"
         id="path151529" /><path
         style="fill:#383838;fill-opacity:1;stroke:#000000;stroke-width:0.177902px;stroke-linecap:butt;stroke-linejoin:miter;stroke-opacity:1"
         d="m 228.45618,243.05431 11.94505,6.45377 0.98918,3.19822 -2.76388,5.11557 -3.1326,0.76896 -11.94505,-6.45377 z"
         id="path151531" /><path
         id="path151533"
         style="display:inline;fill:#a1b7cc;fill-opacity:1;stroke:#000000;stroke-width:0.189247px;stroke-linecap:butt;stroke-linejoin:miter;stroke-opacity:1"
         d="m 229.30227,251.75692 -1.21518,2.33462 -1.24048,-0.6731 1.05554,-1.9453 -0.37078,-5.63871 1.14732,-2.11447 1.24049,0.6731 -0.96375,1.77615 z"
         sodipodi:nodetypes="ccccccccc" /><path
         id="path151535"
         style="display:inline;fill:#a1b7cc;fill-opacity:1;stroke:#000000;stroke-width:0.189247px;stroke-linecap:butt;stroke-linejoin:miter;stroke-opacity:1"
         d="m 231.65464,253.03333 -1.21518,2.33462 -1.24048,-0.67309 1.05554,-1.94531 -0.37078,-5.63871 1.14732,-2.11446 1.24049,0.6731 -0.96375,1.77614 z"
         sodipodi:nodetypes="ccccccccc" /></g></g><g
     inkscape:label="Insignia 3rd"
     inkscape:groupmode="layer"
     id="g152328"
     style="display:inline"><g
       id="g152326"><path
         style="fill:#a1b7cc;fill-opacity:1;stroke:#000000;stroke-width:0.400393;stroke-linecap:butt;stroke-linejoin:miter;stroke-dasharray:none;stroke-opacity:1"
         d="m 228.24801,242.35683 12.71512,6.86982 1.01368,3.47707 -3.03947,5.62565 -3.37082,0.88569 -12.71512,-6.86983 z"
         id="path152318" /><path
         style="fill:#383838;fill-opacity:1;stroke:#000000;stroke-width:0.177902px;stroke-linecap:butt;stroke-linejoin:miter;stroke-opacity:1"
         d="m 228.45618,243.05431 11.94505,6.45377 0.98918,3.19822 -2.76388,5.11557 -3.1326,0.76896 -11.94505,-6.45377 z"
         id="path152320" /><path
         id="path152322"
         style="display:inline;fill:#a1b7cc;fill-opacity:1;stroke:#000000;stroke-width:0.189247px;stroke-linecap:butt;stroke-linejoin:miter;stroke-opacity:1"
         d="m 229.30227,251.75692 -1.21518,2.33462 -1.24048,-0.6731 1.05554,-1.9453 -0.37078,-5.63871 1.14732,-2.11447 1.24049,0.6731 -0.96375,1.77615 z"
         sodipodi:nodetypes="ccccccccc" /></g></g><g
     inkscape:label="Border Insignia 1st"
     inkscape:groupmode="layer"
     id="g146367"
     style="display:none"
     sodipodi:insensitive="true"><g
       id="g150757"><path
         style="fill:#a1b7cc;fill-opacity:1;stroke:#000000;stroke-width:1.27689;stroke-linecap:butt;stroke-linejoin:miter;stroke-dasharray:none;stroke-opacity:1"
         d="m 86.671255,327.06801 37.848765,26.30097 1.97385,11.38044 -11.63655,16.74572 -10.99812,1.60609 -37.848761,-26.30101 z"
         id="path146349" /><path
         style="fill:#383838;fill-opacity:1;stroke:#000000;stroke-width:0.567347px;stroke-linecap:butt;stroke-linejoin:miter;stroke-opacity:1"
         d="m 87.082511,329.35258 35.556519,24.70813 1.99554,10.48799 -10.58146,15.22738 -10.20158,1.32101 -35.55652,-24.70813 z"
         id="path146351" /><path
         id="path150684"
         style="fill:#a1b7cc;fill-opacity:1;stroke:#000000;stroke-width:0.596538px;stroke-linecap:butt;stroke-linejoin:miter;stroke-opacity:1"
         d="m 87.859195,357.93478 -4.611423,6.89663 -3.655036,-2.53617 3.977177,-5.73176 0.779918,-17.79545 4.323022,-6.23018 3.655036,2.53617 -3.631338,5.23335 z"
         sodipodi:nodetypes="ccccccccc" /><path
         id="path150686"
         style="fill:#a1b7cc;fill-opacity:1;stroke:#000000;stroke-width:0.596538px;stroke-linecap:butt;stroke-linejoin:miter;stroke-opacity:1"
         d="m 94.790355,362.74421 -4.611423,6.89663 -3.655036,-2.53618 3.977177,-5.73175 0.779918,-17.79546 4.323022,-6.23017 3.655036,2.53617 -3.631339,5.23335 z"
         sodipodi:nodetypes="ccccccccc" /><path
         id="path150688"
         style="fill:#a1b7cc;fill-opacity:1;stroke:#000000;stroke-width:0.596538px;stroke-linecap:butt;stroke-linejoin:miter;stroke-opacity:1"
         d="m 101.83899,367.63515 -4.611425,6.89662 -3.655035,-2.53617 3.977177,-5.73175 0.779917,-17.79546 4.323026,-6.23018 3.65503,2.53618 -3.63134,5.23334 z"
         sodipodi:nodetypes="ccccccccc" /></g></g><g
     inkscape:label="Border Insignia 2nd"
     inkscape:groupmode="layer"
     id="g151527"
     style="display:none"
     sodipodi:insensitive="true"><g
       id="g151525"><path
         style="fill:#a1b7cc;fill-opacity:1;stroke:#000000;stroke-width:1.27689;stroke-linecap:butt;stroke-linejoin:miter;stroke-dasharray:none;stroke-opacity:1"
         d="m 86.671255,327.06801 37.848765,26.30097 1.97385,11.38044 -11.63655,16.74572 -10.99812,1.60609 -37.848761,-26.30101 z"
         id="path151515" /><path
         style="fill:#383838;fill-opacity:1;stroke:#000000;stroke-width:0.567347px;stroke-linecap:butt;stroke-linejoin:miter;stroke-opacity:1"
         d="m 87.082511,329.35258 35.556519,24.70813 1.99554,10.48799 -10.58146,15.22738 -10.20158,1.32101 -35.55652,-24.70813 z"
         id="path151517" /><path
         id="path151519"
         style="fill:#a1b7cc;fill-opacity:1;stroke:#000000;stroke-width:0.596538px;stroke-linecap:butt;stroke-linejoin:miter;stroke-opacity:1"
         d="m 87.859195,357.93478 -4.611423,6.89663 -3.655036,-2.53617 3.977177,-5.73176 0.779918,-17.79545 4.323022,-6.23018 3.655036,2.53617 -3.631338,5.23335 z"
         sodipodi:nodetypes="ccccccccc" /><path
         id="path151521"
         style="fill:#a1b7cc;fill-opacity:1;stroke:#000000;stroke-width:0.596538px;stroke-linecap:butt;stroke-linejoin:miter;stroke-opacity:1"
         d="m 94.790355,362.74421 -4.611423,6.89663 -3.655036,-2.53618 3.977177,-5.73175 0.779918,-17.79546 4.323022,-6.23017 3.655036,2.53617 -3.631339,5.23335 z"
         sodipodi:nodetypes="ccccccccc" /></g></g><g
     inkscape:label="Border Insignia 3rd"
     inkscape:groupmode="layer"
     id="g152316"
     style="display:inline"><g
       id="g152314"><path
         style="fill:#a1b7cc;fill-opacity:1;stroke:#000000;stroke-width:1.27689;stroke-linecap:butt;stroke-linejoin:miter;stroke-dasharray:none;stroke-opacity:1"
         d="m 86.671255,327.06801 37.848765,26.30097 1.97385,11.38044 -11.63655,16.74572 -10.99812,1.60609 -37.848761,-26.30101 z"
         id="path152306" /><path
         style="fill:#383838;fill-opacity:1;stroke:#000000;stroke-width:0.567347px;stroke-linecap:butt;stroke-linejoin:miter;stroke-opacity:1"
         d="m 87.082511,329.35258 35.556519,24.70813 1.99554,10.48799 -10.58146,15.22738 -10.20158,1.32101 -35.55652,-24.70813 z"
         id="path152308" /><path
         id="path152310"
         style="fill:#a1b7cc;fill-opacity:1;stroke:#000000;stroke-width:0.596538px;stroke-linecap:butt;stroke-linejoin:miter;stroke-opacity:1"
         d="m 87.859195,357.93478 -4.611423,6.89663 -3.655036,-2.53617 3.977177,-5.73176 0.779918,-17.79545 4.323022,-6.23018 3.655036,2.53617 -3.631338,5.23335 z"
         sodipodi:nodetypes="ccccccccc" /></g></g><g
     inkscape:groupmode="layer"
     id="layer10"
     inkscape:label="Original"
     style="display:none"><g
       id="g144778"><path
         style="fill:#a1b7cc;fill-opacity:1;stroke:#000000;stroke-width:1px;stroke-linecap:butt;stroke-linejoin:miter;stroke-opacity:1"
         d="m 158.81356,169.66102 h 75.08475 l 13.22033,13.38983 v 33.22034 l -13.22033,12.37288 h -75.08475 z"
         id="path144762" /><path
         style="fill:#383838;fill-opacity:1;stroke:#000000;stroke-width:0.924261px;stroke-linecap:butt;stroke-linejoin:miter;stroke-opacity:1"
         d="m 161.48756,172.33502 h 70.53742 l 12.41967,12.17577 v 30.20825 l -12.41967,11.25103 h -70.53742 z"
         id="path144764" /><g
         id="g150682"><path
           id="path144768"
           style="fill:#a1b7cc;fill-opacity:1;stroke:#000000;stroke-width:1px;stroke-linecap:butt;stroke-linejoin:miter;stroke-opacity:1"
           d="m 193.6586,209.95784 0.2397,13.90536 h -7.45763 v -11.69491 l -15.9322,-25.25423 v -12.71187 h 7.45763 v 10.67797 z"
           sodipodi:nodetypes="ccccccccc" /><path
           id="path150651"
           style="fill:#a1b7cc;fill-opacity:1;stroke:#000000;stroke-width:1px;stroke-linecap:butt;stroke-linejoin:miter;stroke-opacity:1"
           d="m 207.80074,209.95784 0.2397,13.90536 h -7.45763 v -11.69491 l -15.9322,-25.25423 v -12.71187 h 7.45763 v 10.67797 z"
           sodipodi:nodetypes="ccccccccc" /><path
           id="path150653"
           style="fill:#a1b7cc;fill-opacity:1;stroke:#000000;stroke-width:1px;stroke-linecap:butt;stroke-linejoin:miter;stroke-opacity:1"
           d="m 222.18257,209.95784 0.2397,13.90536 h -7.45763 v -11.69491 l -15.9322,-25.25423 v -12.71187 h 7.45763 v 10.67797 z"
           sodipodi:nodetypes="ccccccccc" /></g></g></g></svg>
