<?xml version="1.0" encoding="UTF-8" standalone="no"?>
<!-- Created with Inkscape (http://www.inkscape.org/) -->

<svg
   version="1.1"
   id="svg18702"
   width="400"
   height="400"
   viewBox="0 0 400 400"
   sodipodi:docname="EnsignRankPip.svg"
   inkscape:version="1.2.2 (b0a8486, 2022-12-01)"
   xmlns:inkscape="http://www.inkscape.org/namespaces/inkscape"
   xmlns:sodipodi="http://sodipodi.sourceforge.net/DTD/sodipodi-0.dtd"
   xmlns="http://www.w3.org/2000/svg"
   xmlns:svg="http://www.w3.org/2000/svg">
  <defs
     id="defs18706">
    <clipPath
       clipPathUnits="userSpaceOnUse"
       id="clipPath18718">
      <path
         d="M 0,300 H 300 V 0 H 0 Z"
         id="path18716" />
    </clipPath>
    <clipPath
       clipPathUnits="userSpaceOnUse"
       id="clipPath18746">
      <path
         d="m 146.006,277.969 h 73.146 v -152.59 h -73.146 z"
         id="path18744" />
    </clipPath>
    <clipPath
       clipPathUnits="userSpaceOnUse"
       id="clipPath18830">
      <path
         d="m 134.842,154.031 h 47.503 v -52.522 h -47.503 z"
         id="path18828" />
    </clipPath>
    <clipPath
       clipPathUnits="userSpaceOnUse"
       id="clipPath18846">
      <path
         d="M 60.0336,143.884 H 196.46 V 44.6548 H 60.0336 Z"
         id="path18844" />
    </clipPath>
    <clipPath
       clipPathUnits="userSpaceOnUse"
       id="clipPath18866">
      <path
         d="m 207.998,124.034 h 66.869 V 41.9517 h -66.869 z"
         id="path18864" />
    </clipPath>
    <clipPath
       clipPathUnits="userSpaceOnUse"
       id="clipPath18882">
      <path
         d="M 12.7352,96.1307 H 87.7785 V 13.8165 H 12.7352 Z"
         id="path18880" />
    </clipPath>
    <clipPath
       clipPathUnits="userSpaceOnUse"
       id="clipPath18898">
      <path
         d="M 39.6054,99.692 H 60.994 V 87.9429 H 39.6054 Z"
         id="path18896" />
    </clipPath>
    <clipPath
       clipPathUnits="userSpaceOnUse"
       id="clipPath18914">
      <path
         d="M 19.9327,73.8295 H 27.238 V 56.2568 h -7.3053 z"
         id="path18912" />
    </clipPath>
    <clipPath
       clipPathUnits="userSpaceOnUse"
       id="clipPath18930">
      <path
         d="m 279.351,83.9444 h 8.991 V 28.2746 h -8.991 z"
         id="path18928" />
    </clipPath>
    <clipPath
       clipPathUnits="userSpaceOnUse"
       id="clipPath18946">
      <path
         d="M 10.2357,145.507 H 158.769 V 0.0249023 H 10.2357 Z"
         id="path18944" />
    </clipPath>
    <clipPath
       clipPathUnits="userSpaceOnUse"
       id="clipPath18962">
      <path
         d="M 91.6411,35.1519 H 116.994 V 0.0249023 H 91.6411 Z"
         id="path18960" />
    </clipPath>
    <clipPath
       clipPathUnits="userSpaceOnUse"
       id="clipPath18978">
      <path
         d="m 180.793,115.392 h 31.003 V 47.7004 h -31.003 z"
         id="path18976" />
    </clipPath>
    <clipPath
       clipPathUnits="userSpaceOnUse"
       id="clipPath18994">
      <path
         d="M 0,300 H 300 V 0 H 0 Z"
         id="path18992" />
    </clipPath>
    <clipPath
       clipPathUnits="userSpaceOnUse"
       id="clipPath19022">
      <path
         d="m 145.568,277.969 h 89.357 V 124.543 h -89.357 z"
         id="path19020" />
    </clipPath>
    <clipPath
       clipPathUnits="userSpaceOnUse"
       id="clipPath19038">
      <path
         d="M 0,300 H 300 V 0 H 0 Z"
         id="path19036" />
    </clipPath>
    <clipPath
       clipPathUnits="userSpaceOnUse"
       id="clipPath19110">
      <path
         d="m 207.998,124.034 h 66.7 V 44.4077 h -66.7 z"
         id="path19108" />
    </clipPath>
    <clipPath
       clipPathUnits="userSpaceOnUse"
       id="clipPath19126">
      <path
         d="m 279.351,83.9444 h 8.991 V 28.2746 h -8.991 z"
         id="path19124" />
    </clipPath>
    <clipPath
       clipPathUnits="userSpaceOnUse"
       id="clipPath19142">
      <path
         d="M 11.9564,107.989 H 87.3171 V 30.6538 H 11.9564 Z"
         id="path19140" />
    </clipPath>
    <clipPath
       clipPathUnits="userSpaceOnUse"
       id="clipPath19158">
      <path
         d="m 59.217,151.573 h 134.48 V 47.8951 H 59.217 Z"
         id="path19156" />
    </clipPath>
    <clipPath
       clipPathUnits="userSpaceOnUse"
       id="clipPath19174">
      <path
         d="M 9.51097,151.818 H 154.199 V 0.0248718 H 9.51097 Z"
         id="path19172" />
    </clipPath>
    <clipPath
       clipPathUnits="userSpaceOnUse"
       id="clipPath19190">
      <path
         d="M 91.4501,40.3777 H 116.418 V 2.48105 H 91.4501 Z"
         id="path19188" />
    </clipPath>
    <clipPath
       clipPathUnits="userSpaceOnUse"
       id="clipPath19206">
      <path
         d="m 129.811,158.672 h 52.534 v -57.163 h -52.534 z"
         id="path19204" />
    </clipPath>
    <clipPath
       clipPathUnits="userSpaceOnUse"
       id="clipPath19222">
      <path
         d="m 180.793,115.392 h 31.003 V 47.7004 h -31.003 z"
         id="path19220" />
    </clipPath>
    <clipPath
       clipPathUnits="userSpaceOnUse"
       id="clipPath19238">
      <path
         d="M 0,300 H 300 V 0 H 0 Z"
         id="path19236" />
    </clipPath>
    <clipPath
       clipPathUnits="userSpaceOnUse"
       id="clipPath19254">
      <path
         d="M 0,300 H 300 V 0 H 0 Z"
         id="path19252" />
    </clipPath>
    <clipPath
       clipPathUnits="userSpaceOnUse"
       id="clipPath19278">
      <path
         d="M 0,300 H 300 V 0 H 0 Z"
         id="path19276" />
    </clipPath>
    <clipPath
       clipPathUnits="userSpaceOnUse"
       id="clipPath19290">
      <path
         d="m 143,265.641 h 99.11 V 192.667 H 143 Z"
         id="path19288" />
    </clipPath>
    <clipPath
       clipPathUnits="userSpaceOnUse"
       id="clipPath19310">
      <path
         d="M 0,300 H 300 V 0 H 0 Z"
         id="path19308" />
    </clipPath>
    <clipPath
       clipPathUnits="userSpaceOnUse"
       id="clipPath19322">
      <path
         d="m 141.195,284.065 h 63.787 v -91.398 h -63.787 z"
         id="path19320" />
    </clipPath>
    <clipPath
       clipPathUnits="userSpaceOnUse"
       id="clipPath19346">
      <path
         d="M 0,300 H 300 V 0 H 0 Z"
         id="path19344" />
    </clipPath>
    <clipPath
       clipPathUnits="userSpaceOnUse"
       id="clipPath19362">
      <path
         d="m 146.5,205.084 h 11.643 v -17.52 H 146.5 Z"
         id="path19360" />
    </clipPath>
    <clipPath
       clipPathUnits="userSpaceOnUse"
       id="clipPath19394">
      <path
         d="M 0,300 H 300 V 0 H 0 Z"
         id="path19392" />
    </clipPath>
    <clipPath
       clipPathUnits="userSpaceOnUse"
       id="clipPath19406">
      <path
         d="m 146.09,214.922 h 12.566 V 183.669 H 146.09 Z"
         id="path19404" />
    </clipPath>
    <clipPath
       clipPathUnits="userSpaceOnUse"
       id="clipPath19422">
      <path
         d="m 152.488,184.652 h 12.163 v -10.1 h -12.163 z"
         id="path19420" />
    </clipPath>
    <clipPath
       clipPathUnits="userSpaceOnUse"
       id="clipPath19462">
      <path
         d="M 0,300 H 300 V 0 H 0 Z"
         id="path19460" />
    </clipPath>
    <clipPath
       clipPathUnits="userSpaceOnUse"
       id="clipPath19470">
      <path
         d="m 222.339,150.153 h 22.222 v -6.115 h -22.222 z"
         id="path19468" />
    </clipPath>
    <clipPath
       clipPathUnits="userSpaceOnUse"
       id="clipPath19486">
      <path
         d="m 215.718,157.202 h 31.66 v -3.736 h -31.66 z"
         id="path19484" />
    </clipPath>
    <clipPath
       clipPathUnits="userSpaceOnUse"
       id="clipPath19514">
      <path
         d="M 0,300 H 300 V 0 H 0 Z"
         id="path19512" />
    </clipPath>
    <clipPath
       clipPathUnits="userSpaceOnUse"
       id="clipPath19522">
      <path
         d="m 226.053,200.386 h 5.424 v -23.865 h -5.424 z"
         id="path19520" />
    </clipPath>
    <clipPath
       clipPathUnits="userSpaceOnUse"
       id="clipPath19538">
      <path
         d="M 226.053,173.927 H 245.28 V 163.448 H 226.053 Z"
         id="path19536" />
    </clipPath>
    <clipPath
       clipPathUnits="userSpaceOnUse"
       id="clipPath19570">
      <path
         d="M 0,300 H 300 V 0 H 0 Z"
         id="path19568" />
    </clipPath>
    <clipPath
       clipPathUnits="userSpaceOnUse"
       id="clipPath19578">
      <path
         d="m 241.123,195.281 h 13.732 v -7.154 h -13.732 z"
         id="path19576" />
    </clipPath>
    <clipPath
       clipPathUnits="userSpaceOnUse"
       id="clipPath19594">
      <path
         d="M 239.614,208.359 H 260.74 V 197.448 H 239.614 Z"
         id="path19592" />
    </clipPath>
    <clipPath
       clipPathUnits="userSpaceOnUse"
       id="clipPath19610">
      <path
         d="m 230.007,205.743 v 0 0 z"
         id="path19608" />
    </clipPath>
    <clipPath
       clipPathUnits="userSpaceOnUse"
       id="clipPath19622">
      <path
         d="m 195.859,210.494 h 36.375 v -22.692 h -36.375 z"
         id="path19620" />
    </clipPath>
    <clipPath
       clipPathUnits="userSpaceOnUse"
       id="clipPath19714">
      <path
         d="M 0,300 H 300 V 0 H 0 Z"
         id="path19712" />
    </clipPath>
    <clipPath
       clipPathUnits="userSpaceOnUse"
       id="clipPath19798">
      <path
         d="m 241.123,195.281 h 13.732 v -7.154 h -13.732 z"
         id="path19796" />
    </clipPath>
    <clipPath
       clipPathUnits="userSpaceOnUse"
       id="clipPath19814">
      <path
         d="M 239.614,212.099 H 260.74 V 197.448 H 239.614 Z"
         id="path19812" />
    </clipPath>
    <clipPath
       clipPathUnits="userSpaceOnUse"
       id="clipPath19830">
      <path
         d="m 207.905,207.836 h 22.102 v -2.093 h -22.102 z"
         id="path19828" />
    </clipPath>
    <clipPath
       clipPathUnits="userSpaceOnUse"
       id="clipPath19846">
      <path
         d="m 198.531,212.167 h 33.086 v -24.365 h -33.086 z"
         id="path19844" />
    </clipPath>
  </defs>
  <sodipodi:namedview
     id="namedview18704"
     pagecolor="#ffffff"
     bordercolor="#666666"
     borderopacity="1.0"
     inkscape:showpageshadow="2"
     inkscape:pageopacity="0.0"
     inkscape:pagecheckerboard="0"
     inkscape:deskcolor="#d1d1d1"
     showgrid="false"
     inkscape:zoom="1.475"
     inkscape:cx="182.71186"
     inkscape:cy="200"
     inkscape:window-width="1440"
     inkscape:window-height="810"
     inkscape:window-x="2688"
     inkscape:window-y="324"
     inkscape:window-maximized="0"
     inkscape:current-layer="g18710"
     showguides="true">
    <inkscape:page
       x="0"
       y="0"
       id="page18708"
       width="400"
       height="400" />
    <sodipodi:guide
       position="275,228.47458"
       orientation="-1,0"
       id="guide20102"
       inkscape:locked="false"
       inkscape:label=""
       inkscape:color="rgb(0,134,229)" />
    <sodipodi:guide
       position="175,178.98305"
       orientation="-1,0"
       id="guide20104"
       inkscape:locked="false"
       inkscape:label=""
       inkscape:color="rgb(0,134,229)" />
    <sodipodi:guide
       position="243.38983,125"
       orientation="0,1"
       id="guide20106"
       inkscape:locked="false"
       inkscape:label=""
       inkscape:color="rgb(0,134,229)" />
    <sodipodi:guide
       position="235.25424,225"
       orientation="0,1"
       id="guide20108"
       inkscape:locked="false"
       inkscape:label=""
       inkscape:color="rgb(0,134,229)" />
  </sodipodi:namedview>
  <g
     id="g18710"
     inkscape:groupmode="layer"
     inkscape:label="Page 1">
    <path
       d="m 237.47786,247.46707 c -2.32533,0 -4.20933,1.884 -4.20933,4.20933 0,2.32534 1.884,4.20934 4.20933,4.20934 2.32533,0 4.20933,-1.884 4.20933,-4.20934 0,-2.32533 -1.884,-4.20933 -4.20933,-4.20933"
       style="fill:#fbb03b;fill-opacity:1;fill-rule:nonzero;stroke:none;stroke-width:1.33333"
       id="path19242" />
    <path
       d="m 237.47786,248.00854 c -2.02533,0 -3.668,1.64266 -3.668,3.668 0,2.02533 1.64267,3.668 3.668,3.668 2.02533,0 3.668,-1.64267 3.668,-3.668 0,-2.02534 -1.64267,-3.668 -3.668,-3.668 m 4.88933,3.81066 c 0,2.63867 -2.13866,4.77734 -4.77733,4.77734 -2.63733,0 -4.776,-2.13867 -4.776,-4.77734 0,-2.63733 2.13867,-4.776 4.776,-4.776 2.63867,0 4.77733,2.13867 4.77733,4.776"
       style="fill:#000000;fill-opacity:1;fill-rule:nonzero;stroke:none;stroke-width:1.33333"
       id="path19246" />
  </g>
</svg>
