<?xml version="1.0" encoding="UTF-8" standalone="no"?>
<!-- Created with Inkscape (http://www.inkscape.org/) -->

<svg
   version="1.1"
   id="svg1129"
   width="400"
   height="400"
   viewBox="0 0 400 400"
   sodipodi:docname="AndorianAntenna1.svg"
   inkscape:version="1.2.2 (b0a8486, 2022-12-01)"
   xmlns:inkscape="http://www.inkscape.org/namespaces/inkscape"
   xmlns:sodipodi="http://sodipodi.sourceforge.net/DTD/sodipodi-0.dtd"
   xmlns="http://www.w3.org/2000/svg"
   xmlns:svg="http://www.w3.org/2000/svg">
  <defs
     id="defs1133" />
  <sodipodi:namedview
     id="namedview1131"
     pagecolor="#ffffff"
     bordercolor="#666666"
     borderopacity="1.0"
     inkscape:showpageshadow="2"
     inkscape:pageopacity="0.0"
     inkscape:pagecheckerboard="0"
     inkscape:deskcolor="#d1d1d1"
     showgrid="false"
     inkscape:zoom="1.475"
     inkscape:cx="190.16949"
     inkscape:cy="200"
     inkscape:window-width="1920"
     inkscape:window-height="1080"
     inkscape:window-x="2529"
     inkscape:window-y="208"
     inkscape:window-maximized="0"
     inkscape:current-layer="g1137">
    <inkscape:page
       x="0"
       y="0"
       id="page1135"
       width="400"
       height="400" />
  </sodipodi:namedview>
  <g
     id="g1137"
     inkscape:groupmode="layer"
     inkscape:label="Page 1">
    <path
       d="m 337.97639,78.768141 c 0.68533,-1.314667 2.70533,-11.932 3.572,-16.897333 0.86667,-4.965333 1.97067,-14.424 1.34,-16.867999 -0.63067,-2.444 -1.49733,-15.134667 -1.576,-16.948 -0.08,-1.813333 0,-11.745333 -0.15867,-13.716 -0.15733,-1.970666 -3.78266,-0.236 -5.912,4.808 -2.128,5.045333 -2.364,17.421333 -2.04933,20.968 0.316,3.548 -1.65467,7.094666 -2.52267,10.247999 -0.752,2.736 -3.228,5.325334 -4.932,7.505334 -1.00666,1.286666 -2.03466,2.555999 -3.06,3.826666 -0.17466,0.216 -1.544,1.577333 -1.448,1.88 0.24667,-0.0053 3.4,-0.138667 3.35867,-0.273333 0.0227,0.07467 0,0.14 0.024,0.213333 0.54267,0.03467 1.1,-0.0093 1.644,0.024 -0.0173,0.526667 -0.312,0.993333 -0.22533,1.534667 0.64533,-0.141334 1.44266,-0.072 2.10666,-0.03733 0.0133,1.248 0.612,1.033334 1.65334,0.786667 -0.0333,0.429333 -0.22934,0.861333 -0.30934,1.3 0.428,-0.384 1.18267,-0.508 1.728,-0.593333 0.0587,0.588 -0.0947,1.196 -0.0507,1.8 0.27866,-0.186667 0.648,-0.388 0.912,-0.614667 0.37866,0.889333 -0.0147,2.121333 -0.0533,3.034667 0.636,-0.08 1.24934,-0.229334 1.868,-0.353334 0.624,0.712 -0.37066,1.412 -0.204,2.057333 0.19734,0.772 1.13867,0.064 1.564,0.449334 0.348,0.316 -0.096,1.017333 0.172,1.482666 0.22,0.38 0.96267,0.828 1.38934,0.981334 -0.0507,0.378666 -0.36934,0.693333 -0.38267,1.088 -0.0147,0.458666 1.42933,2.537333 1.552,2.313333"
       style="fill:#cd976d;fill-opacity:1;fill-rule:nonzero;stroke:none;stroke-width:1.33333"
       id="path4021" />
    <path
       d="m 325.73746,57.868542 c -1.396,1.786667 -2.804,3.953333 -4.684,5.264 -0.54533,0.38 -0.876,0.488 -1.35733,1.008 -0.62667,0.674666 -1.736,0.733333 -2.26134,1.341333 0.68134,0.102667 0.97734,0.585333 1.42134,1.070667 0.636,0.696 1.16,0.673333 2.07866,0.444 0.74667,-0.188 1.46267,-0.261334 2.128,-0.553334 0.78267,-0.342666 1.368,-0.26 2.22934,-0.314666 1.14933,-0.07333 1.20933,-0.661334 2.052,-1.204 0.64266,-0.414667 1.72266,-0.210667 2.128,-1.024 0.13466,-0.270667 -0.036,-0.728 0.13066,-0.968 0.26,-0.374667 0.77067,-0.262667 1.1,-0.550667 0.31867,-0.278666 0.28134,-0.646666 0.47734,-0.982666 0.15733,-0.273334 0.464,-0.393334 0.588,-0.676 0.14,-0.322667 -0.028,-0.568 0.18266,-0.881334 0.18267,-0.272 0.58134,-0.153333 0.69334,-0.566666 0.0973,-0.356 -0.368,-0.670667 -0.228,-1.088 0.196,-0.586667 1.09066,-0.816 1.39733,-1.338667 -0.58133,-0.416 0.0213,-1.008 0.172,-1.437333 0.27067,-0.773334 -0.0693,-1.522667 -0.007,-2.289334 0.0453,-0.550666 0.38267,-0.996 0.456,-1.496 0.088,-0.605333 0.18667,-0.942666 0.17067,-1.542666 -0.008,-0.250667 -0.18133,-0.638667 -0.0573,-0.904 0.10533,-0.224 0.43466,-0.268 0.53866,-0.452 0.252,-0.448 0.0227,-0.986667 0.20134,-1.477333 0.10133,-0.284 0.48533,-0.482667 0.512,-0.793334 0.0227,-0.256 -0.25734,-0.422666 -0.32134,-0.661333 -0.156,-0.577333 0.104,-1.013333 0.084,-1.504 -0.0213,-0.541333 -0.29733,-0.746667 -0.0867,-1.337333 0.17866,-0.502667 0.33066,-0.457334 0.3,-1.085334 -0.028,-0.584 0.0947,-1.001333 0.17333,-1.497333 0.064,-0.402667 -0.056,-0.812 -0.13867,-1.364 -0.088,-0.593333 -0.032,-0.838667 0.13734,-1.382666 0.17466,-0.557334 0.19466,-0.865334 0.16133,-1.528 -0.06,-1.168 0.38,-2.129334 0.16133,-3.298667 -0.0693,-0.370667 -0.34266,-0.697333 -0.45733,-1.057333 -0.232,-0.732 -0.0293,-0.545334 0.24,-1.141334 0.37867,-0.836 0.544,-1.754666 1.09333,-2.530666 0.43734,0.09733 0.908,0.758666 1.37334,1.004 0.49333,0.26 0.98666,0.452 1.536,0.545333 0.17333,0.02933 0.97866,0.18 1.10266,0.133333 0.61067,-0.228 0.108,-6.905333 0.10667,-7.634666 -0.008,-2.58 0.0947,-5.202667 -0.112,-7.777333 -0.15733,-1.970667 -3.78267,-0.236 -5.912,4.808 -2.128,5.045333 -2.364,17.421333 -2.04933,20.967999 0.316,3.546667 -1.65467,7.094667 -2.52267,10.248 -0.752,2.736 -3.228,5.325333 -4.932,7.505333"
       style="opacity:0.199997;fill:#000000;fill-opacity:1;fill-rule:nonzero;stroke:none;stroke-width:1.33333"
       id="path4031" />
    <path
       d="m 321.23599,63.598542 c 0,0 12.036,-14.338666 11.24667,-25.926666 -0.60667,-8.933333 2.09333,-19.061333 3.13866,-23.769333 1.04667,-4.709333 5.75467,-9.6786662 7.324,-6.0159996 1.56934,3.6613336 0.524,10.4613326 -0.26133,13.8626666 -0.62,2.689333 -0.348,5.730666 -0.26267,8.46 0.112,3.566666 0.19867,7.269333 0.90267,10.758666 1.35867,6.724 1.364,13.682666 0.552,20.474666 -0.73067,6.108 -1.38133,13.216 -6.50533,17.341333 1.56133,-1.256 1.56266,-5.382667 1.864,-7.22 0.52666,-3.208 1.012,-6.421333 1.436,-9.644 0.74666,-5.681333 1.86133,-11.951999 0.96666,-17.677333 -1.308,-8.369333 -1.77333,-22.954666 -1.04533,-26.939999 0.72667,-3.986666 -2.09333,-7.585333 -2.87733,-4.708 -0.78534,2.877334 -4.52267,13.489333 -3.73334,25.077333 0.324,4.761333 -0.452,15.988 -12.74533,25.926666"
       style="fill:#000000;fill-opacity:1;fill-rule:nonzero;stroke:none;stroke-width:1.33333"
       id="path4041" />
    <path
       d="m 340.27186,5.8404099 c -0.0467,0.032 -0.0933,0.065333 -0.14,0.1 -1.468,1.084 -2.01467,2.8093333 -2.67467,4.4360001 -0.74933,1.848 -0.824,3.948 -0.76,5.913333 0.11467,3.561333 1.60534,7 4.196,8.996 1.064,0.818666 2.26534,1.906666 3.43334,0.890666 1.14133,-0.993333 1.83866,-2.456 2.224,-3.912 0.788,-2.975999 1.33066,-6.055999 1.26933,-9.142666 -0.0507,-2.570667 -0.408,-5.9399998 -2.33733,-7.8519998 -0.76534,-0.7586666 -1.616,-0.8493333 -2.63467,-0.5733333 -0.912,0.2466667 -1.80267,0.6053333 -2.576,1.144"
       style="fill:#cd976d;fill-opacity:1;fill-rule:nonzero;stroke:none;stroke-width:1.33333"
       id="path4045" />
    <path
       d="m 344.81426,19.538276 c 0.77867,-2.008 1.132,-3.942667 0.90133,-6.081333 -0.176,-1.628 0.0613,-3.7093334 -1.23466,-4.9933334 -1.456,-1.444 -3.88,0.3893333 -4.69067,1.6786664 -1.11333,1.770667 -1.43733,3.873333 -1.37067,5.924 0.072,2.236 1.024,4.213333 2.304,5.945333 2.256,3.053334 3.408,-0.712 4.09067,-2.473333"
       style="opacity:0.5;fill:#c14242;fill-opacity:1;fill-rule:nonzero;stroke:none;stroke-width:1.33333"
       id="path4055" />
    <path
       d="m 344.48066,8.4629431 c -1.456,-1.444 -3.88,0.3893333 -4.69067,1.6799999 -1.11333,1.770667 -1.43733,3.872 -1.37066,5.924 0.076,2.361333 1.048,4.292 2.63333,5.985333 0.33867,0.361333 0.72533,0.868 1.07333,1.142667 -0.548,-0.769334 -0.74666,-1.728 -0.91333,-2.622667 -0.416,-2.230666 -0.78933,-5.093333 0.10667,-7.256 0.30666,-0.741333 0.964,-1.653333 1.80666,-1.833333 1.14134,-0.245333 1.972,2.332 2.032,3.161333 0.15734,-0.717333 0.27467,-1.444 0.352,-2.174666 0.14534,-1.386667 0.024,-2.9626669 -1.02933,-4.0066669"
       style="opacity:0.199997;fill:#000000;fill-opacity:1;fill-rule:nonzero;stroke:none;stroke-width:1.33333"
       id="path4071" />
    <path
       d="m 340.47506,6.8446765 c -0.0427,0.029333 -0.084,0.058667 -0.12533,0.089333 -1.31734,0.972 -1.808,2.52 -2.4,3.9786665 -0.672,1.656 -0.74,3.54 -0.68267,5.302667 0.104,3.193333 1.44133,6.277333 3.76533,8.066666 0.95467,0.734667 2.03334,1.710667 3.08134,0.8 1.024,-0.890666 1.64933,-2.204 1.996,-3.509333 0.70666,-2.668 1.19333,-5.429333 1.13866,-8.198666 -0.0453,-2.305334 -0.36666,-5.3266672 -2.09733,-7.0413338 -0.688,-0.6813333 -1.44933,-0.7613333 -2.36533,-0.5133333 -0.81734,0.22 -1.616,0.5426666 -2.31067,1.0253333 m 4.20667,-3.9559999 c 0.128,0.061333 0.252,0.136 0.37066,0.216 1.04267,0.6973333 1.79867,1.7639999 2.3,2.9133333 2.24267,5.1386664 1.168,11.3733334 -0.36,16.5453334 -0.48,1.625333 -1.34666,3.26 -2.76666,4.369333 -1.452,1.133333 -2.948,-0.08133 -4.27067,-0.996 -3.224,-2.228 -5.07867,-6.066666 -5.22133,-10.044 -0.0867,-2.409333 0.0907,-4.8 1.08933,-6.9199999 0.724,-1.5373332 1.632,-3.8506665 3.172,-4.7506665 1.288,-0.7533333 2.916,-1.2373333 4.38267,-1.4533333 0.31066,-0.046667 0.63066,-0.08 0.93733,-0.010667 0.12667,0.028 0.24933,0.073333 0.36667,0.1306667"
       style="fill:#000000;fill-opacity:1;fill-rule:nonzero;stroke:none;stroke-width:1.33333"
       id="path4081" />
  </g>
</svg>
