<?xml version="1.0" encoding="UTF-8" standalone="no"?>
<!-- Created with Inkscape (http://www.inkscape.org/) -->

<svg
   version="1.1"
   id="svg137594"
   width="400"
   height="400"
   viewBox="0 0 400 400"
   sodipodi:docname="Mouth6.svg"
   inkscape:version="1.3 (0e150ed, 2023-07-21)"
   xmlns:inkscape="http://www.inkscape.org/namespaces/inkscape"
   xmlns:sodipodi="http://sodipodi.sourceforge.net/DTD/sodipodi-0.dtd"
   xmlns="http://www.w3.org/2000/svg"
   xmlns:svg="http://www.w3.org/2000/svg">
  <defs
     id="defs137598" />
  <sodipodi:namedview
     id="namedview137596"
     pagecolor="#ffffff"
     bordercolor="#666666"
     borderopacity="1.0"
     inkscape:showpageshadow="2"
     inkscape:pageopacity="0.0"
     inkscape:pagecheckerboard="0"
     inkscape:deskcolor="#d1d1d1"
     showgrid="false"
     inkscape:zoom="2.5175"
     inkscape:cx="200"
     inkscape:cy="200"
     inkscape:window-width="2208"
     inkscape:window-height="1220"
     inkscape:window-x="2011"
     inkscape:window-y="25"
     inkscape:window-maximized="0"
     inkscape:current-layer="g7">
    <inkscape:page
       x="0"
       y="0"
       id="page137600"
       width="400"
       height="400"
       margin="0"
       bleed="0" />
  </sodipodi:namedview>
  <g
     inkscape:groupmode="layer"
     id="layer3"
     inkscape:label="Tellarite Mouth"
     style="display:none"
     sodipodi:insensitive="true">
    <path
       id="path175972-6"
       style="fill:#cd976d;fill-opacity:1;fill-rule:nonzero;stroke:none;stroke-width:1.33333"
       d="m 311.33203,187.89844 c -0.17941,0.003 -0.33654,0.012 -0.4707,0.0273 -9.18666,1.04666 -17.26021,4.45636 -21.54688,6.56836 -2.07199,1.02133 -3.25976,1.74024 -3.25976,1.74024 0,0 0.981,0.0265 2.23828,0.0586 l -0.66797,0.082 c 0,0 2.85881,3.68957 6.05664,4.86523 3.19783,1.17567 4.64809,1.49553 8.51641,2.93946 3.34448,1.2484 6.67772,3.26059 9.85082,4.70837 0.74015,0.33771 5.21588,3.07811 5.5505,3.057 0.35819,-0.0226 3.06703,-2.83522 3.37425,-3.16156 0.61265,-0.65079 1.80327,-1.64805 2.49279,-2.41547 1.09364,-1.2172 2.42587,-2.46797 3.5711,-3.55107 1.14523,-1.0831 1.55873,-2.02423 1.89164,-3.27159 0.33435,-1.32077 0.5421,-2.05604 0.46733,-3.97851 -0.492,-2.408 -2.58658,-5.94827 -6.14257,-7.4336 -1.47067,-0.61334 -1.69448,0.37402 -5.23047,0.16602 -3.09516,-0.18317 -5.43553,-0.42484 -6.69141,-0.40039 z"
       sodipodi:nodetypes="scccccsssssssccccss" />
    <path
       id="path1"
       style="opacity:0.199997;fill:#000000;fill-opacity:1;fill-rule:nonzero;stroke:none;stroke-width:1.33333"
       d="m 292.92383,200.9707 c 0,0 11.64488,9.49206 21.97851,11.66172 0.27197,0.0571 2.45531,0.59461 2.90352,0.57227 0.21284,-0.0106 3.71296,-2.57704 4.9635,-3.87699 1.59161,-1.65449 4.05536,-5.98686 4.27752,-6.46442 -1.34853,0.78536 -1.8756,1.85708 -3.52618,3.14297 l -5.72578,5.50742 -5.9707,-2.6582 c -1.19208,-0.7559 -2.55264,-1.37185 -4.01758,-2.16016 -1.73508,-0.93368 -2.87489,-1.44386 -6.9082,-3.11719 -4.18376,-1.22544 -7.97461,-2.60742 -7.97461,-2.60742 z"
       sodipodi:nodetypes="csssccccscc" />
    <path
       d="m 329.14706,195.40027 c -1.77333,0.48667 -5.976,-0.91733 -5.976,-0.91733 0,0 -4.11467,0.46533 -5.96533,0.864 -1.84934,0.39867 -6.26,-0.13333 -8.53734,-0.39867 -2.276,-0.26666 -5.52266,1.19734 -6.19466,1.46267 -0.67334,0.26667 -16.41867,-0.17733 -16.41867,-0.17733 0,0 1.188,-0.71734 3.26,-1.73867 4.28667,-2.112 12.36,-5.52267 21.54667,-6.56933 1.07333,-0.12267 3.62533,0.164 7.16266,0.37333 3.536,0.208 3.75867,-0.77867 5.22934,-0.16533 3.556,1.48533 5.65066,5.02533 6.14266,7.43333"
       style="opacity:0.199997;fill:#000000;fill-opacity:1;fill-rule:nonzero;stroke:none;stroke-width:1.33333"
       id="path140384-2" />
    <path
       id="path140394-0"
       style="fill:#000000;fill-opacity:1;fill-rule:nonzero;stroke:none;stroke-width:1.33333"
       d="m 324.31602,205.06094 c -0.93669,0.94843 -2.27946,2.14564 -2.75506,2.68411 -0.90026,1.01927 -2.30164,2.19477 -3.8133,3.66857 -2.60137,-1.26462 -3.87532,-1.94289 -4.53287,-2.33247 -0.81583,-0.48336 -2.23715,-1.00547 -3.94135,-1.90335 -1.38255,-0.72842 -1.89645,-1.03498 -3.73555,-1.87226 -1.40545,-0.63986 -3.20067,-1.08143 -4.78646,-1.82613 1.14718,0.72483 1.45213,1.29627 3.12001,2.5082 1.66788,1.21193 2.48754,1.65508 4.74588,2.88208 1.25771,0.68334 2.56334,1.36568 3.80348,1.9846 1.81031,0.90348 5.09748,1.80747 5.28232,1.79025 0.20933,-0.0195 3.14576,-2.49588 3.94311,-3.28346 0.79735,-0.78758 1.57006,-1.59294 2.24642,-2.56396 0.67636,-0.97102 1.39879,-1.61177 2.45501,-2.82636 0.26934,-0.284 0.96265,-1.48534 0.96265,-1.48534 0,0 -1.93418,1.50212 -2.99429,2.57552 z"
       sodipodi:nodetypes="sscsssczssszzccs" />
    <path
       d="m 322.65413,194.08161 c -0.69067,-0.152 0.0627,-0.252 -0.77467,-0.20934 -0.772,0.0387 -1.656,0.716 -2.36533,0.812 -3.108,0.41734 -5.60267,-0.432 -8.688,-0.828 -1.62267,-0.20933 -5.78934,0.81867 -7.54,1.548 -1.07467,0.448 -2.40934,0.37067 -3.53067,0.432 -1.56533,0.0867 -3.13333,0.12934 -4.70133,0.16267 -1.464,0.032 -2.97467,0.18267 -4.43467,0.032 -0.88,-0.0893 -1.964,-0.3 -2.68533,-0.86133 -0.80267,-0.62267 -0.35867,-1.42 -0.39067,-2.288 0.003,0.0747 -1.096,1.35866 -1.23067,1.52933 -0.58533,0.73867 -1.17333,1.792 -1.25066,2.75467 -0.0613,0.77466 1.096,0.56133 1.528,0.44133 2.46,-0.68 5.09466,-0.98267 7.67466,-0.9 2.66,0.0867 5.24934,0.60533 7.91867,0.21333 0.57733,-0.0853 1.152,-0.204 1.71733,-0.368 2.29734,-0.66666 2.744,-0.88933 5.70134,-0.62266 1.44666,0.13066 4.08666,0.38533 5.44133,0.78666 1.20533,0.356 2.716,0.44667 3.91867,0.024 1.436,-0.50266 1.43066,-0.83866 2.95066,-1.14533 2.464,-0.49733 2.56534,0.144 4.56,0.12 0.53867,-0.007 1.16667,-0.25733 1.66534,-0.0507 0.23733,0.0987 1.27066,1.084 1.048,1.4 0.29066,-0.41066 0.20533,-0.83466 0.17866,-1.29733 -0.0133,-0.22533 -0.18933,-0.98667 -0.12133,-1.15333 -0.0307,0.0747 -0.0547,0.10133 -0.0653,0.19466 -0.35734,0.156 -0.47067,0.31334 -0.85334,0.368 -0.35066,0.0493 -0.73466,0.0347 -1.08,-0.032 -0.61066,-0.11733 -1.22,-0.244 -1.828,-0.36933 -0.87866,-0.18133 -1.82266,-0.48667 -2.76266,-0.69333"
       style="fill:#000000;fill-opacity:1;fill-rule:nonzero;stroke:none;stroke-width:1.33333"
       id="path140398-4" />
    <path
       style="fill:#000000;fill-opacity:0.3;stroke:none;stroke-width:1px;stroke-linecap:butt;stroke-linejoin:miter;stroke-opacity:1"
       d="m 317.95864,206.66915 c 0,0 0.50723,-0.75125 0.77049,-1.568 0.26326,-0.81676 0.57878,-2.32728 0.56509,-3.35446 -0.0137,-1.02719 -0.24885,-1.83867 -0.53121,-2.71032 -0.28236,-0.87165 -0.8426,-2.01142 -1.14782,-2.48315 -0.30522,-0.47174 -0.41697,-0.4797 -0.41697,-0.4797 l -4.24068,-0.77728 c 0,0 1.09821,1.00756 1.71241,1.71169 0.6142,0.70412 1.49931,1.70794 1.92493,2.53751 0.42561,0.82957 0.50853,1.42696 0.70993,2.30233 0.20141,0.87537 0.35,2.1409 0.45471,2.94525 0.10471,0.80435 0.19912,1.87613 0.19912,1.87613 z"
       id="path83082"
       sodipodi:nodetypes="czzzzcczzzzc" />
  </g>
  <g
     inkscape:groupmode="layer"
     id="g7"
     inkscape:label="Pakled Mouth">
    <path
       id="path2"
       style="fill:#cd976d;fill-opacity:1;fill-rule:nonzero;stroke:none;stroke-width:1.33333"
       d="m 311.33203,187.89844 c -0.17941,0.003 -0.33654,0.012 -0.4707,0.0273 -9.18666,1.04666 -17.26021,4.45636 -21.54688,6.56836 -2.07199,1.02133 -3.25976,1.74024 -3.25976,1.74024 0,0 0.981,0.0265 2.23828,0.0586 l -0.66797,0.082 c 0,0 2.85881,3.68957 6.05664,4.86523 3.19783,1.17567 4.64809,1.49553 8.51641,2.93946 3.34448,1.2484 6.67772,3.26059 9.85082,4.70837 0.74015,0.33771 4.32105,3.07069 5.5505,3.057 0.83026,-0.009 3.06703,-2.83522 3.37425,-3.16156 0.61265,-0.65079 1.80327,-1.64805 2.49279,-2.41547 1.09364,-1.2172 2.42587,-2.46797 3.5711,-3.55107 1.14523,-1.0831 1.55873,-2.02423 1.89164,-3.27159 0.33435,-1.32077 0.5421,-2.05604 0.46733,-3.97851 -0.492,-2.408 -2.58658,-5.94827 -6.14257,-7.4336 -1.47067,-0.61334 -1.69448,0.37402 -5.23047,0.16602 -3.09516,-0.18317 -5.43553,-0.42484 -6.69141,-0.40039 z"
       sodipodi:nodetypes="scccccsssssssccccss" />
    <path
       id="path3"
       style="opacity:0.199997;fill:#000000;fill-opacity:1;fill-rule:nonzero;stroke:none;stroke-width:1.33333"
       d="m 292.92383,200.9707 c 0,0 11.54516,10.03798 21.97851,11.66172 0.68594,0.10675 1.16674,1.08763 3.00282,1.01914 0.85539,-0.0319 0.90561,-0.84674 1.69819,-1.43217 1.17164,-0.86542 2.42007,-2.11628 3.16601,-2.89169 1.59161,-1.65449 4.05536,-5.98686 4.27752,-6.46442 -1.34853,0.78536 -1.8756,1.85708 -3.52618,3.14297 0,0 -4.91885,5.89312 -5.88377,5.94629 -0.59771,0.0329 -5.81271,-3.09707 -5.81271,-3.09707 -1.19208,-0.7559 -2.55264,-1.37185 -4.01758,-2.16016 -1.73508,-0.93368 -2.87489,-1.44386 -6.9082,-3.11719 -4.18376,-1.22544 -7.97461,-2.60742 -7.97461,-2.60742 z"
       sodipodi:nodetypes="cssssccscscc" />
    <path
       d="m 329.14706,195.40027 c -1.77333,0.48667 -5.976,-0.91733 -5.976,-0.91733 0,0 -4.11467,0.46533 -5.96533,0.864 -1.84934,0.39867 -6.26,-0.13333 -8.53734,-0.39867 -2.276,-0.26666 -5.52266,1.19734 -6.19466,1.46267 -0.67334,0.26667 -16.41867,-0.17733 -16.41867,-0.17733 0,0 1.188,-0.71734 3.26,-1.73867 4.28667,-2.112 12.36,-5.52267 21.54667,-6.56933 1.07333,-0.12267 3.62533,0.164 7.16266,0.37333 3.536,0.208 3.75867,-0.77867 5.22934,-0.16533 3.556,1.48533 5.65066,5.02533 6.14266,7.43333"
       style="opacity:0.199997;fill:#000000;fill-opacity:1;fill-rule:nonzero;stroke:none;stroke-width:1.33333"
       id="path4" />
    <path
       id="path5"
       style="fill:#000000;fill-opacity:1;fill-rule:nonzero;stroke:none;stroke-width:1.33333"
       d="m 324.31602,205.06094 c -0.93669,0.94843 -2.27946,2.14564 -2.75506,2.68411 -0.63845,0.72286 -0.86913,0.99909 -1.86775,1.92076 -0.4095,0.37794 -1.06994,2.07803 -1.928,2.09714 -2.22037,-0.0343 -2.44821,-1.60613 -2.92275,-1.84273 -1.93054,-1.04183 -3.61033,-1.75645 -5.56902,-2.74242 -1.38255,-0.72842 -1.89645,-1.03498 -3.73555,-1.87226 -1.40545,-0.63986 -3.20067,-1.08143 -4.78646,-1.82613 1.14718,0.72483 1.45213,1.29627 3.12001,2.5082 1.66788,1.21193 2.48754,1.65508 4.74588,2.88208 1.25771,0.68334 2.56334,1.36568 3.80348,1.9846 1.01465,0.50639 1.94683,0.81036 3.08303,1.15352 0.89098,0.26909 0.57575,0.85088 2.14964,0.81051 1.33962,-0.0343 1.23254,-0.77775 1.78944,-1.23937 0.96694,-0.80149 1.69737,-1.71812 2.20332,-2.21787 0.79735,-0.78758 1.57006,-1.59294 2.24642,-2.56396 0.67636,-0.97102 1.39879,-1.61177 2.45501,-2.82636 0.26934,-0.284 0.96265,-1.48534 0.96265,-1.48534 0,0 -1.93418,1.50212 -2.99429,2.57552 z"
       sodipodi:nodetypes="ssscsssczsssssszccs" />
    <path
       d="m 322.65413,194.08161 c -0.69067,-0.152 0.0627,-0.252 -0.77467,-0.20934 -0.772,0.0387 -1.656,0.716 -2.36533,0.812 -3.108,0.41734 -5.60267,-0.432 -8.688,-0.828 -1.62267,-0.20933 -5.78934,0.81867 -7.54,1.548 -1.07467,0.448 -2.40934,0.37067 -3.53067,0.432 -1.56533,0.0867 -3.13333,0.12934 -4.70133,0.16267 -1.464,0.032 -2.97467,0.18267 -4.43467,0.032 -0.88,-0.0893 -1.964,-0.3 -2.68533,-0.86133 -0.80267,-0.62267 -0.35867,-1.42 -0.39067,-2.288 0.003,0.0747 -1.096,1.35866 -1.23067,1.52933 -0.58533,0.73867 -1.17333,1.792 -1.25066,2.75467 -0.0613,0.77466 1.096,0.56133 1.528,0.44133 2.46,-0.68 5.09466,-0.98267 7.67466,-0.9 2.66,0.0867 5.24934,0.60533 7.91867,0.21333 0.57733,-0.0853 1.152,-0.204 1.71733,-0.368 2.29734,-0.66666 2.744,-0.88933 5.70134,-0.62266 1.44666,0.13066 4.08666,0.38533 5.44133,0.78666 1.20533,0.356 2.716,0.44667 3.91867,0.024 1.436,-0.50266 1.43066,-0.83866 2.95066,-1.14533 2.464,-0.49733 2.56534,0.144 4.56,0.12 0.53867,-0.007 1.16667,-0.25733 1.66534,-0.0507 0.23733,0.0987 1.27066,1.084 1.048,1.4 0.29066,-0.41066 0.20533,-0.83466 0.17866,-1.29733 -0.0133,-0.22533 -0.18933,-0.98667 -0.12133,-1.15333 -0.0307,0.0747 -0.0547,0.10133 -0.0653,0.19466 -0.35734,0.156 -0.47067,0.31334 -0.85334,0.368 -0.35066,0.0493 -0.73466,0.0347 -1.08,-0.032 -0.61066,-0.11733 -1.22,-0.244 -1.828,-0.36933 -0.87866,-0.18133 -1.82266,-0.48667 -2.76266,-0.69333"
       style="fill:#000000;fill-opacity:1;fill-rule:nonzero;stroke:none;stroke-width:1.33333"
       id="path6" />
  </g>
  <g
     id="g137602"
     inkscape:groupmode="layer"
     inkscape:label="Standard Mouth"
     style="display:none"
     sodipodi:insensitive="true">
    <path
       id="path175972"
       style="opacity:1;fill:#cd976d;fill-opacity:1;fill-rule:nonzero;stroke:none;stroke-width:1.33333"
       d="m 311.33203,187.89844 c -0.17941,0.003 -0.33654,0.012 -0.4707,0.0273 -9.18666,1.04666 -17.26021,4.45636 -21.54688,6.56836 -2.07199,1.02133 -3.25976,1.74024 -3.25976,1.74024 0,0 0.981,0.0265 2.23828,0.0586 l -0.66797,0.082 c 0,0 2.85881,3.68957 6.05664,4.86523 3.19783,1.17567 4.62592,1.58102 8.56641,2.81446 3.94048,1.23344 11.32517,2.20441 14.53515,2.27929 3.20999,0.0749 3.91456,0.0508 5.65821,-0.5664 1.74364,-0.61721 3.45087,-1.86797 4.5961,-2.95107 1.14523,-1.0831 1.55873,-2.02423 1.89164,-3.27159 0.33435,-1.32077 0.5421,-2.05604 0.46733,-3.97851 -0.492,-2.408 -2.58658,-5.94827 -6.14257,-7.4336 -1.47067,-0.61334 -1.69448,0.37402 -5.23047,0.16602 -3.09516,-0.18317 -5.43553,-0.42484 -6.69141,-0.40039 z"
       sodipodi:nodetypes="scccccsssssccccss" />
    <path
       d="m 310.35666,205.87067 c -1.95467,-0.248 -5.424,-0.768 -9.45733,-2.44133 -3.91067,-1.62267 -7.95067,-1.73867 -7.95067,-1.73867 0,0 9.67067,9.32267 21.82933,9.71733 12.15734,0.396 12.02,-8.008 12.26934,-8.544 -3.48,2.02667 -12.54534,3.53467 -16.69067,3.00667"
       style="opacity:0.199997;fill:#000000;fill-opacity:1;fill-rule:nonzero;stroke:none;stroke-width:1.33333"
       id="path140356" />
    <path
       d="m 329.14706,195.40027 c -1.77333,0.48667 -5.976,-0.91733 -5.976,-0.91733 0,0 -4.11467,0.46533 -5.96533,0.864 -1.84934,0.39867 -6.26,-0.13333 -8.53734,-0.39867 -2.276,-0.26666 -5.52266,1.19734 -6.19466,1.46267 -0.67334,0.26667 -16.41867,-0.17733 -16.41867,-0.17733 0,0 1.188,-0.71734 3.26,-1.73867 4.28667,-2.112 12.36,-5.52267 21.54667,-6.56933 1.07333,-0.12267 3.62533,0.164 7.16266,0.37333 3.536,0.208 3.75867,-0.77867 5.22934,-0.16533 3.556,1.48533 5.65066,5.02533 6.14266,7.43333"
       style="opacity:0.199997;fill:#000000;fill-opacity:1;fill-rule:nonzero;stroke:none;stroke-width:1.33333"
       id="path140384" />
    <path
       d="m 300.89959,203.4296 c 1.412,0.844 3.54134,0.91867 5.064,1.176 1.54667,0.26267 3.12134,0.436 4.684,0.448 1.712,0.0133 3.41067,-0.364 5.12267,-0.336 2.43467,0.04 5.22267,0.644 7.52133,-0.632 1.256,-0.69733 2.80934,-0.784 4.048,-1.55466 -0.21066,0.13066 -0.72266,1.156 -0.992,1.44 -1.76266,1.868 -3.37066,3.18533 -5.71733,3.64666 -1.48133,0.292 -2.81467,-0.06 -4.3,0.13867 -1.64133,0.21867 -3.28267,0.70267 -4.94133,0.46267 -2.43334,-0.352 -4.744,-1.36134 -6.892,-2.78 -1.13734,-0.75067 -2.42534,-1.30934 -3.59734,-2.00934"
       style="fill:#000000;fill-opacity:1;fill-rule:nonzero;stroke:none;stroke-width:1.33333"
       id="path140394" />
    <path
       d="m 322.65413,194.08161 c -0.69067,-0.152 0.0627,-0.252 -0.77467,-0.20934 -0.772,0.0387 -1.656,0.716 -2.36533,0.812 -3.108,0.41734 -5.60267,-0.432 -8.688,-0.828 -1.62267,-0.20933 -5.78934,0.81867 -7.54,1.548 -1.07467,0.448 -2.40934,0.37067 -3.53067,0.432 -1.56533,0.0867 -3.13333,0.12934 -4.70133,0.16267 -1.464,0.032 -2.97467,0.18267 -4.43467,0.032 -0.88,-0.0893 -1.964,-0.3 -2.68533,-0.86133 -0.80267,-0.62267 -0.35867,-1.42 -0.39067,-2.288 0.003,0.0747 -1.096,1.35866 -1.23067,1.52933 -0.58533,0.73867 -1.17333,1.792 -1.25066,2.75467 -0.0613,0.77466 1.096,0.56133 1.528,0.44133 2.46,-0.68 5.09466,-0.98267 7.67466,-0.9 2.66,0.0867 5.24934,0.60533 7.91867,0.21333 0.57733,-0.0853 1.152,-0.204 1.71733,-0.368 2.29734,-0.66666 2.744,-0.88933 5.70134,-0.62266 1.44666,0.13066 4.08666,0.38533 5.44133,0.78666 1.20533,0.356 2.716,0.44667 3.91867,0.024 1.436,-0.50266 1.43066,-0.83866 2.95066,-1.14533 2.464,-0.49733 2.56534,0.144 4.56,0.12 0.53867,-0.007 1.16667,-0.25733 1.66534,-0.0507 0.23733,0.0987 1.27066,1.084 1.048,1.4 0.29066,-0.41066 0.20533,-0.83466 0.17866,-1.29733 -0.0133,-0.22533 -0.18933,-0.98667 -0.12133,-1.15333 -0.0307,0.0747 -0.0547,0.10133 -0.0653,0.19466 -0.35734,0.156 -0.47067,0.31334 -0.85334,0.368 -0.35066,0.0493 -0.73466,0.0347 -1.08,-0.032 -0.61066,-0.11733 -1.22,-0.244 -1.828,-0.36933 -0.87866,-0.18133 -1.82266,-0.48667 -2.76266,-0.69333"
       style="display:inline;fill:#000000;fill-opacity:1;fill-rule:nonzero;stroke:none;stroke-width:1.33333"
       id="path140398" />
  </g>
  <g
     inkscape:groupmode="layer"
     id="layer13"
     inkscape:label="Philtrum">
    <path
       d="m 313.49186,179.79227 c 0,0 -2.62933,4.99067 -1.41067,6.21734 1.22,1.22666 4.48667,1.02 4.48667,1.02 0,0 -2.616,-1.41067 -2.508,-3.06667 0.108,-1.656 -0.568,-4.17067 -0.568,-4.17067"
       style="fill:#000000;fill-opacity:1;fill-rule:nonzero;stroke:none;stroke-width:1.33333"
       id="path140402" />
  </g>
</svg>
