<?xml version="1.0" encoding="UTF-8" standalone="no"?>
<!-- Created with Inkscape (http://www.inkscape.org/) -->

<svg
   version="1.1"
   id="svg100624"
   width="400"
   height="400"
   viewBox="0 0 400 400"
   sodipodi:docname="Mouth2.svg"
   inkscape:version="1.3 (0e150ed, 2023-07-21)"
   xmlns:inkscape="http://www.inkscape.org/namespaces/inkscape"
   xmlns:sodipodi="http://sodipodi.sourceforge.net/DTD/sodipodi-0.dtd"
   xmlns="http://www.w3.org/2000/svg"
   xmlns:svg="http://www.w3.org/2000/svg">
  <defs
     id="defs100628" />
  <sodipodi:namedview
     id="namedview100626"
     pagecolor="#ffffff"
     bordercolor="#666666"
     borderopacity="1.0"
     inkscape:showpageshadow="2"
     inkscape:pageopacity="0.0"
     inkscape:pagecheckerboard="0"
     inkscape:deskcolor="#d1d1d1"
     showgrid="false"
     inkscape:zoom="26.02153"
     inkscape:cx="310.87719"
     inkscape:cy="199.162"
     inkscape:window-width="1880"
     inkscape:window-height="1202"
     inkscape:window-x="2440"
     inkscape:window-y="34"
     inkscape:window-maximized="0"
     inkscape:current-layer="g6">
    <inkscape:page
       x="0"
       y="0"
       id="page100630"
       width="400"
       height="400"
       margin="0"
       bleed="0" />
  </sodipodi:namedview>
  <g
     inkscape:groupmode="layer"
     id="layer3"
     inkscape:label="Tellarite Mouth"
     style="display:none"
     sodipodi:insensitive="true">
    <path
       id="path155035-8"
       style="fill:#cd976d;fill-opacity:1;stroke:none;stroke-width:1px;stroke-linecap:butt;stroke-linejoin:miter;stroke-opacity:1"
       d="m 311.66602,189.47266 c -0.71926,-0.005 -1.26757,0.05 -1.66407,0.20703 -0.9938,0.39276 -16.64478,4.19601 -21.46484,5.125 l -0.74023,-0.22852 0.47656,0.2793 c -0.19663,0.0366 -0.50142,0.10097 -0.65039,0.125 0,0 0.6481,0.0259 0.92773,0.0371 0,0 5.25396,3.94057 7.95886,4.8125 2.70491,0.87193 6.3689,1.55514 9.43422,2.55618 1.54923,0.50593 3.07963,1.39003 4.91434,2.5931 2.14717,1.40795 3.51355,3.83945 3.51355,3.83945 l 2.65186,-2.09201 c 2.43901,-2.05832 4.65952,-3.88694 7.55256,-5.54125 0,0 3.14649,-2.72902 3.89844,-3.89649 0.75195,-1.16747 0.99023,-2.64062 0.99023,-2.64062 0.14011,-0.0112 0.26739,-0.0263 0.37305,-0.0508 0,0 -5.94439,-3.76899 -7.17773,-4.70899 -1.23333,-0.94134 -2.27243,0.10387 -5.8711,-0.10547 -2.25,-0.13083 -3.92428,-0.30256 -5.12304,-0.31054 z m -22.3379,5.57422 c 0.59625,0.0231 1.19731,0.0433 2.04493,0.0742 L 290,195.25391 Z"
       sodipodi:nodetypes="ccccccczssccczcccssccccc" />
    <path
       d="m 329.83786,194.59774 c 0,0 -5.94533,-3.76933 -7.17867,-4.70933 -1.23333,-0.94134 -2.27066,0.104 -5.86933,-0.10534 -3.6,-0.20933 -5.73067,-0.52266 -6.788,-0.104 -1.056,0.41734 -18.824,4.728 -22.37867,5.30134 0,0 13.988,0.57333 14.676,0.344 0.688,-0.22934 6.07734,-1.49067 7.912,-1.26134 1.83467,0.22934 5.38934,0.688 6.87867,0.344 1.49067,-0.344 3.66933,-1.03066 3.66933,-1.03066 0,0 7.264,1.64133 9.07867,1.22133"
       style="opacity:0.199997;fill:#000000;fill-opacity:1;fill-rule:nonzero;stroke:none;stroke-width:1.33333"
       id="path103622-3" />
    <path
       d="m 322.92973,193.37801 c -1.06534,-0.26934 -1.74267,-0.764 -2.904,-0.54 -1.16267,0.22533 -7.21334,0.58533 -8.52,0.40533 -1.30667,-0.18 -6.584,0.584 -8.37467,1.21333 -1.09867,0.38667 -2.46533,0.32 -3.61067,0.37334 -2.89733,0.13333 -5.8,0.148 -8.7,0.20533 -0.65866,0.0133 -1.372,0.0107 -1.9,-0.38267 -0.50933,-0.37733 -0.676,-1.00266 -1.04533,-1.49066 -0.13333,-0.176 -0.32,-0.34534 -0.54133,-0.34 -0.15867,0.003 -0.29867,0.0947 -0.42534,0.188 -0.92533,0.67733 -1.66933,1.6 -2.136,2.648 0.048,-0.10934 1.40534,-0.064 1.576,-0.072 2.668,-0.108 5.33867,-0.076 8.00534,0.048 2.55333,0.12 5.096,0.44533 7.64933,0.12933 0.59067,-0.0733 1.17867,-0.176 1.75733,-0.31733 4.028,-0.984 7.21334,0.136 12.088,0.136 3.18,0 4.23867,-1.772 6.78267,-1.18134 2.544,0.59067 7.20667,0.19734 7.20667,0.19734 0,0 -5.84267,-0.95067 -6.908,-1.22"
       style="fill:#000000;fill-opacity:1;fill-rule:nonzero;stroke:none;stroke-width:1.33333"
       id="path103636-0" />
    <path
       id="path9795"
       style="fill:#000000;fill-opacity:1;fill-rule:nonzero;stroke:none;stroke-width:1.33333"
       d="m 324.75,200.89844 c 0,0 -3.17299,1.46796 -4.16056,2.28948 -0.98758,0.82151 -1.94853,1.50749 -2.96698,2.41796 -1.01845,0.91047 -1.86062,1.73362 -3.04629,2.69881 -0.11341,0.028 -0.57505,-0.84467 -1.27969,-1.5873 -0.69012,-0.72732 -1.10418,-1.29468 -3.30487,-2.84068 -0.42553,-0.29895 -1.37642,-0.68448 -3.56667,-1.45639 -1.93504,-0.68196 -3.29408,-0.93204 -3.29408,-0.93204 0,0 3.19309,1.27903 5.71438,2.77833 1.01103,0.60121 1.92834,1.22957 2.80397,2.01497 1.00341,0.9 2.48946,3.55826 2.48946,3.55826 0,0 1.39927,-0.97477 2.16432,-1.72323 1.26658,-1.23912 2.17778,-2.29154 3.59237,-3.42563 3.45366,-2.76882 4.85464,-3.79254 4.85464,-3.79254 z"
       sodipodi:nodetypes="czzcssscsscssc" />
    <path
       id="path83845"
       style="opacity:0.199997;fill:#000000;fill-opacity:1;fill-rule:nonzero;stroke:none;stroke-width:1.33333"
       d="m 313.55469,207.27734 c -5.67029,-4.63485 -2.5635,-1.64979 -4.76643,-3.67922 -4.50296,-2.05711 -12.33514,-3.80125 -12.33514,-3.80124 0,0 7.92739,5.00202 12.62779,7.68168 1.53863,0.87716 3.74583,2.53739 5.21022,3.29637 1.91807,-1.11883 3.59248,-2.2147 5.31373,-3.4338 4.79844,-3.39858 4.98015,-6.0429 5.14514,-6.44269 -1.16208,0.76613 -2.01726,1.00542 -3.87576,2.38829 -1.72209,1.28138 -2.19114,1.58072 -3.51486,2.79335 l -2.94921,2.74122 z"
       sodipodi:nodetypes="cccscscsccc" />
    <path
       style="fill:#000000;fill-opacity:0.3;stroke:none;stroke-width:1px;stroke-linecap:butt;stroke-linejoin:miter;stroke-opacity:1"
       d="m 315.80108,205.7501 c 0,0 0.45356,-0.78482 0.65917,-1.61796 0.20561,-0.83314 0.41493,-2.362 0.32958,-3.38572 -0.0854,-1.02372 -0.37658,-1.81681 -0.71909,-2.66663 -0.34251,-0.84982 -0.98094,-1.9477 -1.31834,-2.39698 -0.3374,-0.44928 -0.44943,-0.44943 -0.44943,-0.44943 l -4.28459,-0.47939 c 0,0 1.16585,0.92845 1.8277,1.58799 0.66185,0.65954 1.61487,1.59913 2.09735,2.39697 0.48248,0.79784 0.60689,1.38798 0.8689,2.24716 0.26201,0.85918 0.49857,2.11125 0.65917,2.90633 0.1606,0.79508 0.32958,1.85766 0.32958,1.85766 z"
       id="path83082"
       sodipodi:nodetypes="czzzzcczzzzc" />
  </g>
  <g
     inkscape:groupmode="layer"
     id="g6"
     inkscape:label="Pakled Mouth">
    <path
       id="path1"
       style="fill:#cd976d;fill-opacity:1;stroke:none;stroke-width:1px;stroke-linecap:butt;stroke-linejoin:miter;stroke-opacity:1"
       d="m 311.66602,189.47266 c -0.71926,-0.005 -1.26757,0.05 -1.66407,0.20703 -0.9938,0.39276 -16.64478,4.19601 -21.46484,5.125 l -0.74023,-0.22852 0.47656,0.2793 c -0.19663,0.0366 -0.50142,0.10097 -0.65039,0.125 0,0 0.6481,0.0259 0.92773,0.0371 0,0 5.25396,3.94057 7.95886,4.8125 2.70491,0.87193 6.3689,1.55514 9.43422,2.55618 1.54923,0.50593 3.07963,1.39003 4.91434,2.5931 2.14717,1.40795 3.51355,3.83945 3.51355,3.83945 l 2.65186,-2.09201 c 2.43901,-2.05832 4.65952,-3.88694 7.55256,-5.54125 0,0 3.14649,-2.72902 3.89844,-3.89649 0.75195,-1.16747 0.99023,-2.64062 0.99023,-2.64062 0.14011,-0.0112 0.26739,-0.0263 0.37305,-0.0508 0,0 -5.94439,-3.76899 -7.17773,-4.70899 -1.23333,-0.94134 -2.27243,0.10387 -5.8711,-0.10547 -2.25,-0.13083 -3.92428,-0.30256 -5.12304,-0.31054 z m -22.3379,5.57422 c 0.59625,0.0231 1.19731,0.0433 2.04493,0.0742 L 290,195.25391 Z"
       sodipodi:nodetypes="ccccccczssccczcccssccccc" />
    <path
       d="m 329.83786,194.59774 c 0,0 -5.94533,-3.76933 -7.17867,-4.70933 -1.23333,-0.94134 -2.27066,0.104 -5.86933,-0.10534 -3.6,-0.20933 -5.73067,-0.52266 -6.788,-0.104 -1.056,0.41734 -18.824,4.728 -22.37867,5.30134 0,0 13.988,0.57333 14.676,0.344 0.688,-0.22934 6.07734,-1.49067 7.912,-1.26134 1.83467,0.22934 5.38934,0.688 6.87867,0.344 1.49067,-0.344 3.66933,-1.03066 3.66933,-1.03066 0,0 7.264,1.64133 9.07867,1.22133"
       style="opacity:0.199997;fill:#000000;fill-opacity:1;fill-rule:nonzero;stroke:none;stroke-width:1.33333"
       id="path2" />
    <path
       d="m 322.92973,193.37801 c -1.06534,-0.26934 -1.74267,-0.764 -2.904,-0.54 -1.16267,0.22533 -7.21334,0.58533 -8.52,0.40533 -1.30667,-0.18 -6.584,0.584 -8.37467,1.21333 -1.09867,0.38667 -2.46533,0.32 -3.61067,0.37334 -2.89733,0.13333 -5.8,0.148 -8.7,0.20533 -0.65866,0.0133 -1.372,0.0107 -1.9,-0.38267 -0.50933,-0.37733 -0.676,-1.00266 -1.04533,-1.49066 -0.13333,-0.176 -0.32,-0.34534 -0.54133,-0.34 -0.15867,0.003 -0.29867,0.0947 -0.42534,0.188 -0.92533,0.67733 -1.66933,1.6 -2.136,2.648 0.048,-0.10934 1.40534,-0.064 1.576,-0.072 2.668,-0.108 5.33867,-0.076 8.00534,0.048 2.55333,0.12 5.096,0.44533 7.64933,0.12933 0.59067,-0.0733 1.17867,-0.176 1.75733,-0.31733 4.028,-0.984 7.21334,0.136 12.088,0.136 3.18,0 4.23867,-1.772 6.78267,-1.18134 2.544,0.59067 7.20667,0.19734 7.20667,0.19734 0,0 -5.84267,-0.95067 -6.908,-1.22"
       style="fill:#000000;fill-opacity:1;fill-rule:nonzero;stroke:none;stroke-width:1.33333"
       id="path3" />
    <path
       id="path4"
       style="fill:#000000;fill-opacity:1;fill-rule:nonzero;stroke:none;stroke-width:1.33333"
       d="m 325.50541,200.42136 c 0,0 -2.86282,1.46137 -4.69858,2.79373 -1.83576,1.33236 -2.16592,1.48032 -3.18437,2.39079 -1.01845,0.91047 -1.86062,1.73362 -3.04629,2.69881 -0.11341,0.028 -0.57505,-0.84467 -1.27969,-1.5873 -0.69012,-0.72732 -1.10418,-1.29468 -3.30487,-2.84068 -0.42553,-0.29895 -1.37642,-0.68448 -3.56667,-1.45639 -1.93504,-0.68196 -4.75441,-1.27791 -4.75441,-1.27791 0,0 4.11733,1.64082 6.69297,3.22164 1.00252,0.6153 2.24704,1.45822 3.12267,2.24362 1.00341,0.9 2.6525,3.23217 2.6525,3.23217 0,0 1.35452,-1.02343 2.16432,-1.72323 1.40245,-1.21195 2.368,-1.99263 3.78259,-3.12672 3.45366,-2.76882 5.41983,-4.56853 5.41983,-4.56853 z"
       sodipodi:nodetypes="czzcssscsscssc" />
    <path
       id="path5"
       style="opacity:0.199997;fill:#000000;fill-opacity:1;fill-rule:nonzero;stroke:none;stroke-width:1.33333"
       d="m 313.55469,207.27734 c -1.5391,-1.34911 -2.93919,-2.97863 -5.70796,-4.12116 -4.05454,-1.67311 -11.39361,-3.35931 -11.39361,-3.3593 0,0 8.10078,4.71849 12.62779,7.68168 0.59717,0.39088 1.26801,0.95582 1.95052,1.55667 1.25169,1.10191 2.81163,2.97787 3.75929,3.46904 0.85089,-0.71918 1.65252,-1.97135 2.51952,-2.75514 0.85242,-0.77063 1.50158,-1.72643 2.29462,-2.408 4.491,-3.85974 5.0345,-6.0429 5.19949,-6.44269 -1.16208,0.76613 -2.07161,1.00542 -3.93011,2.38829 -1.72209,1.28138 -2.19114,1.58072 -3.51486,2.79335 l -2.94921,2.74122 z"
       sodipodi:nodetypes="cscsscsscsccc" />
  </g>
  <g
     id="g100632"
     inkscape:groupmode="layer"
     inkscape:label="Page 1"
     sodipodi:insensitive="true"
     style="display:none">
    <path
       id="path155035"
       style="fill:#cd976d;fill-opacity:1;stroke:none;stroke-width:1px;stroke-linecap:butt;stroke-linejoin:miter;stroke-opacity:1"
       d="m 311.66602,189.47266 c -0.71926,-0.005 -1.26757,0.05 -1.66407,0.20703 -0.9938,0.39276 -16.64478,4.19601 -21.46484,5.125 l -0.74023,-0.22852 0.47656,0.2793 c -0.19663,0.0366 -0.50142,0.10097 -0.65039,0.125 0,0 0.6481,0.0259 0.92773,0.0371 0,0 5.25396,3.94057 7.95886,4.8125 2.70491,0.87193 6.25292,1.93342 9.39204,2.67112 3.13912,0.73771 9.69207,1.73513 9.69207,1.73513 l 5.5918,-1.52539 3.39062,-1.52539 c 0,0 3.14649,-2.72902 3.89844,-3.89649 0.75195,-1.16747 0.99023,-2.64062 0.99023,-2.64062 0.14011,-0.0112 0.26739,-0.0263 0.37305,-0.0508 0,0 -5.94439,-3.76899 -7.17773,-4.70899 -1.23333,-0.94134 -2.27243,0.10387 -5.8711,-0.10547 -2.25,-0.13083 -3.92428,-0.30256 -5.12304,-0.31054 z m -22.3379,5.57422 c 0.59625,0.0231 1.19731,0.0433 2.04493,0.0742 L 290,195.25391 Z"
       sodipodi:nodetypes="ccccccczzccczcccssccccc" />
    <path
       d="m 310.89893,203.72174 c 3.44,0.49466 10.964,-0.92 13.852,-2.824 2.888,-1.904 0.208,-0.504 0,0 -0.208,0.504 -0.0933,8.396 -10.18267,8.024 -10.09067,-0.372 -18.116,-9.12533 -18.116,-9.12533 0,0 11.00667,3.43066 14.44667,3.92533"
       style="opacity:0.199997;fill:#000000;fill-opacity:1;fill-rule:nonzero;stroke:none;stroke-width:1.33333"
       id="path103606" />
    <path
       d="m 329.83786,194.59774 c 0,0 -5.94533,-3.76933 -7.17867,-4.70933 -1.23333,-0.94134 -2.27066,0.104 -5.86933,-0.10534 -3.6,-0.20933 -5.73067,-0.52266 -6.788,-0.104 -1.056,0.41734 -18.824,4.728 -22.37867,5.30134 0,0 13.988,0.57333 14.676,0.344 0.688,-0.22934 6.07734,-1.49067 7.912,-1.26134 1.83467,0.22934 5.38934,0.688 6.87867,0.344 1.49067,-0.344 3.66933,-1.03066 3.66933,-1.03066 0,0 7.264,1.64133 9.07867,1.22133"
       style="opacity:0.199997;fill:#000000;fill-opacity:1;fill-rule:nonzero;stroke:none;stroke-width:1.33333"
       id="path103622" />
    <path
       d="m 303.05053,201.64867 c 0,0 5.72266,1.74533 12.29333,1.32 6.57067,-0.42533 9.32667,-1.91067 9.32667,-1.91067 0,0 -4.02667,4.46134 -9.32667,4.46134 -5.29867,0 -12.29333,-3.87067 -12.29333,-3.87067"
       style="fill:#000000;fill-opacity:1;fill-rule:nonzero;stroke:none;stroke-width:1.33333"
       id="path103632" />
    <path
       d="m 322.92973,193.37801 c -1.06534,-0.26934 -1.74267,-0.764 -2.904,-0.54 -1.16267,0.22533 -7.21334,0.58533 -8.52,0.40533 -1.30667,-0.18 -6.584,0.584 -8.37467,1.21333 -1.09867,0.38667 -2.46533,0.32 -3.61067,0.37334 -2.89733,0.13333 -5.8,0.148 -8.7,0.20533 -0.65866,0.0133 -1.372,0.0107 -1.9,-0.38267 -0.50933,-0.37733 -0.676,-1.00266 -1.04533,-1.49066 -0.13333,-0.176 -0.32,-0.34534 -0.54133,-0.34 -0.15867,0.003 -0.29867,0.0947 -0.42534,0.188 -0.92533,0.67733 -1.66933,1.6 -2.136,2.648 0.048,-0.10934 1.40534,-0.064 1.576,-0.072 2.668,-0.108 5.33867,-0.076 8.00534,0.048 2.55333,0.12 5.096,0.44533 7.64933,0.12933 0.59067,-0.0733 1.17867,-0.176 1.75733,-0.31733 4.028,-0.984 7.21334,0.136 12.088,0.136 3.18,0 4.23867,-1.772 6.78267,-1.18134 2.544,0.59067 7.20667,0.19734 7.20667,0.19734 0,0 -5.84267,-0.95067 -6.908,-1.22"
       style="fill:#000000;fill-opacity:1;fill-rule:nonzero;stroke:none;stroke-width:1.33333"
       id="path103636" />
  </g>
  <g
     inkscape:groupmode="layer"
     id="layer10"
     inkscape:label="Philtrum"
     sodipodi:insensitive="true">
    <path
       d="m 313.49186,179.92254 c 0,0 -1.56,5.76533 -0.65733,7.26267 0.904,1.49733 2.54666,1.572 2.54666,1.572 0,0 -2.05333,-1.72134 -1.80666,-3.744 0.24533,-2.02134 -0.0827,-5.09067 -0.0827,-5.09067"
       style="fill:#000000;fill-opacity:1;fill-rule:nonzero;stroke:none;stroke-width:1.33333"
       id="path103640" />
  </g>
</svg>
