<?xml version="1.0" encoding="UTF-8" standalone="no"?>
<!-- Created with Inkscape (http://www.inkscape.org/) -->

<svg
   version="1.1"
   id="svg10700"
   width="400"
   height="400"
   viewBox="0 0 400 400"
   sodipodi:docname="Mouth2Lipstick.svg"
   inkscape:version="1.3 (0e150ed, 2023-07-21)"
   xmlns:inkscape="http://www.inkscape.org/namespaces/inkscape"
   xmlns:sodipodi="http://sodipodi.sourceforge.net/DTD/sodipodi-0.dtd"
   xmlns="http://www.w3.org/2000/svg"
   xmlns:svg="http://www.w3.org/2000/svg">
  <defs
     id="defs10704" />
  <sodipodi:namedview
     id="namedview10702"
     pagecolor="#ffffff"
     bordercolor="#666666"
     borderopacity="1.0"
     inkscape:showpageshadow="2"
     inkscape:pageopacity="0.0"
     inkscape:pagecheckerboard="0"
     inkscape:deskcolor="#d1d1d1"
     showgrid="false"
     inkscape:zoom="1.9425"
     inkscape:cx="200"
     inkscape:cy="199.7426"
     inkscape:window-width="1960"
     inkscape:window-height="1081"
     inkscape:window-x="2078"
     inkscape:window-y="156"
     inkscape:window-maximized="0"
     inkscape:current-layer="g14"
     showguides="true">
    <inkscape:page
       x="0"
       y="0"
       id="page10706"
       width="400"
       height="400"
       margin="0"
       bleed="0" />
  </sodipodi:namedview>
  <g
     id="g10708"
     inkscape:groupmode="layer"
     inkscape:label="Original Artwork"
     sodipodi:insensitive="true"
     style="display:none">
    <path
       d="m 311.11613,205.9552 c -1.99467,-0.23066 -5.37067,-0.716 -9.932,-2.324 -4.424,-1.56 -8.99334,-1.64133 -8.99334,-1.64133 0,0 11.03067,9.056 23.436,9.35867 12.40667,0.304 12.26534,-7.928 12.52,-8.45467 -3.55066,2.00933 -12.80133,3.54933 -17.03066,3.06133"
       style="opacity:0.199997;fill:#000000;fill-opacity:1;fill-rule:nonzero;stroke:none;stroke-width:1.33333"
       id="path17022" />
    <path
       d="m 303.99986,206.4344 c 5.172,1.19067 8.14267,1.604 11.77333,1.57867 3.63067,-0.024 9.02267,-1.36 9.90267,-2.592 0.67733,-0.948 1.44933,-1.79467 1.832,-2.90933 0.20267,-0.59067 0.364,-1.24534 0.34133,-1.86934 -0.0147,-0.42533 -0.22666,-0.75866 -0.37466,-1.09999 -0.104,-0.10534 -0.196,-0.22 -0.25467,-0.36 -0.27333,-0.65867 0.15867,-1.09067 0.32933,-1.72267 0.29334,-1.088 0.10934,-2.32667 -0.25466,-3.372 -1.21067,-3.48667 -4.78667,-5.328 -8.428,-5.22933 -2.452,0.0667 -4.67734,1.47866 -4.67734,1.47866 0,0 -3.048,-2.71733 -6.86266,-2.61333 -3.81467,0.10267 -7.22934,0.87333 -10.44,3.61333 -1.45067,1.23867 -3.12267,2.01734 -4.768,3.01734 -0.82134,0.49866 -1.64267,1.04533 -2.512,1.48 -0.33867,0.16933 -0.72934,0.28533 -1.08534,0.44133 0.092,0.84267 0.296,1.67867 0.632,2.49067 0.816,1.97466 2.40534,2.84133 4.444,3.86133 3.17867,1.58933 7.16,3.06 10.40267,3.80666"
       style="fill:#c14242;fill-opacity:1;fill-rule:nonzero;stroke:none;stroke-width:1.33333"
       id="path17032" />
    <path
       d="m 315.11293,207.22454 c 10.78266,-0.0733 12.65333,-4.26934 12.65333,-6.43467 -10e-4,9.47867 -11.53867,9.59467 -18.02667,8.096 -3.124,-0.72133 -9.10266,-2.288 -12.256,-3.70267 -2.508,-1.12533 -6.71866,-2.58266 -7.56133,-5.18399 0.14267,0.43999 2.396,1.20933 2.884,1.43599 1.04267,0.48534 2.10133,0.94267 3.176,1.372 2.14933,0.85867 4.36,1.604 6.61467,2.23334 4.376,1.22 8.34666,2.212 12.516,2.184"
       style="fill:#000000;fill-opacity:1;fill-rule:nonzero;stroke:none;stroke-width:1.33333"
       id="path17036" />
    <path
       d="m 311.68386,202.6116 c -0.808,0.02 -1.584,0.132 -2.38667,0.164 -0.34933,0.0133 -0.79333,0.016 -1.10666,-0.0893 -0.404,-0.13467 -0.36934,-0.24933 -0.64534,-0.54933 -0.49466,-0.536 -1.43333,-0.71467 -2.05066,-1.08134 -0.64534,-0.384 -1.26,-0.81333 -2.092,-0.96666 -0.66667,-0.12133 -0.692,-0.22267 -1.01067,-0.70133 -0.208,-0.312 -0.452,-0.616 -0.7,-0.91067 0.444,-0.52 1.22267,-0.47333 1.91467,-0.444 0.17733,0.356 0.44933,0.59867 0.87733,0.68133 0.63067,0.12267 0.64,-0.21866 1.112,-0.46266 0.288,-0.148 0.92267,-0.348 1.26,-0.24934 0.42533,0.124 0.23867,0.45334 0.58667,0.672 0.356,0.224 0.672,-0.11333 1.05466,-0.19466 0.50267,-0.10534 0.88667,0.0253 1.36134,0.14 0.756,0.18533 1.42933,0.63066 2.084,1.02 1.024,0.61066 1.81066,0.46933 2.98133,0.40933 0.444,-0.0227 1.06667,0.11733 1.48533,-0.0147 1.07467,-0.33866 1.32134,-1.67866 2.47467,-1.98133 0.49067,-0.12933 0.76933,0.46133 1.2,0.492 0.492,0.0347 0.61733,-0.444 0.95467,-0.64 0.72266,-0.42133 0.96,0.33467 1.55733,0.53067 0.19733,0.064 0.44933,-0.0347 0.64667,0.0347 0.21066,0.076 0.572,0.32934 0.72533,0.48267 0.27867,0.276 0.332,0.74933 0.76133,0.94 0.14667,0.76533 -0.41333,0.72533 -0.93866,1.06133 -0.40934,0.26267 -0.59467,0.66667 -0.98667,0.97733 -0.46933,0.37334 -0.92267,0.168 -1.45733,0.13067 -0.68,-0.048 -1.16267,0.23733 -1.79867,0.38933 -0.456,0.10934 -0.99067,0.18534 -1.464,0.16667 -0.464,-0.0187 -1.02267,-0.112 -1.46667,-0.23467 -0.34933,-0.0973 -0.58,-0.34533 -0.96666,-0.336 -0.50934,0.0133 -0.69334,0.36267 -1.05467,0.60134 -0.828,0.544 -1.98,-0.06 -2.912,-0.0373"
       style="opacity:0.5;fill:#ffffff;fill-opacity:1;fill-rule:nonzero;stroke:none;stroke-width:1.33333"
       id="path17046" />
    <path
       d="m 287.20013,197.18161 c 5.73866,-0.3 18.27066,-4.57067 23.72,-2.25334 5.44933,2.316 4.73333,-0.92266 8.99066,-0.32266 4.72267,0.66533 5.268,2.31733 6.26667,4.14133 2.452,0.768 3.04267,-10.17067 -7.31067,-9.888 -2.452,0.0667 -4.67733,1.47867 -4.67733,1.47867 0,0 -3.048,-2.71867 -6.86267,-2.61467 -3.81466,0.104 -7.22933,0.87333 -10.44,3.61467 -2.79466,2.38533 -9.68666,5.844 -9.68666,5.844"
       style="opacity:0.199997;fill:#000000;fill-opacity:1;fill-rule:nonzero;stroke:none;stroke-width:1.33333"
       id="path17062" />
    <path
       d="m 313.82253,180.15054 c 0,0 -2.32667,5.20267 -2.1,6.14 0.22533,0.93733 2.81066,2.55333 2.81066,2.55333 0,0 -2.036,-2.068 -1.712,-3.58666 0.32267,-1.52 1.00134,-5.10667 1.00134,-5.10667"
       style="fill:#000000;fill-opacity:1;fill-rule:nonzero;stroke:none;stroke-width:1.33333"
       id="path17072" />
    <path
       d="m 287.60413,197.75281 c 0.34133,0.004 0.708,-0.0947 1.00666,-0.15867 0.412,-0.0893 0.83067,-0.15867 1.24534,-0.23733 1.124,-0.212 2.25066,-0.42 3.37733,-0.62 2.17333,-0.388 4.35333,-0.77734 6.55067,-1.036 3.92666,-0.46267 9.31866,-1.632 11.68,-0.16667 2.36133,1.46667 2.90666,1.02667 4.088,0.496 1.18,-0.532 5.176,-2.47733 7.53733,-0.31333 0.76267,0.69866 1.46933,1.444 2.12,2.24133 0.40667,0.49733 0.78533,1.03067 1.548,0.83333 0.35867,-0.092 0.58533,-0.32533 0.68933,-0.656 0.048,-0.148 0.324,-0.68933 0.0627,-0.79466 -0.0707,-0.028 -0.25467,0.0973 -0.368,0.12666 -0.16133,0.0413 -0.31867,0.0893 -0.472,0.10934 -0.256,0.032 -0.57067,-0.0853 -0.75467,-0.25067 -0.208,-0.188 -0.41466,-0.36933 -0.64666,-0.544 -0.496,-0.37067 -0.988,-0.74933 -1.452,-1.15733 -1.18,-1.03867 -1.99734,-1.556 -4.54134,-1.53867 -2.54266,0.0173 -4.35866,1.68667 -5.26666,1.692 -0.908,0.007 -3.63334,-2.15467 -6.08534,-2.13733 -2.452,0.016 -9.74933,1.37333 -12.568,1.916 -0.93066,0.17866 -1.88266,0.276 -2.82533,0.38666 -0.78,0.092 -1.55067,0.252 -2.336,0.31867 -0.68133,0.0587 -1.35733,-0.024 -2.048,-0.0173 -0.49467,0.004 -0.86133,-0.256 -1.32533,-0.28534 -0.52667,-0.0333 -0.53067,0.47867 -0.43734,0.80267 0.088,0.30533 0.32667,0.576 0.56667,0.77733 0.184,0.156 0.41333,0.21067 0.65467,0.21334"
       style="fill:#000000;fill-opacity:1;fill-rule:nonzero;stroke:none;stroke-width:1.33333"
       id="path17076" />
  </g>
  <g
     inkscape:groupmode="layer"
     id="layer7"
     inkscape:label="Tellarite Mouth"
     style="display:none"
     sodipodi:insensitive="true">
    <path
       d="m 311.11613,205.9552 c -1.99467,-0.23066 -5.37067,-0.716 -9.932,-2.324 -4.424,-1.56 -8.99334,-1.64133 -8.99334,-1.64133 0,0 11.17195,10.78802 23.57728,11.09069 11.1326,0.2585 11.76004,-10.34256 12.0147,-10.86923 -3.55066,2.00933 -12.43731,4.23187 -16.66664,3.74387"
       style="opacity:0.199997;fill:#000000;fill-opacity:1;fill-rule:nonzero;stroke:none;stroke-width:1.33333"
       id="path1-8"
       sodipodi:nodetypes="cccccc" />
    <path
       d="m 311.26797,210.0494 c 1.00289,0.49092 4.25549,3.18464 5.29949,3.17736 1.59847,-1.07027 4.74189,-3.71891 6.08667,-4.91241 0.6644,-0.58966 2.39796,-2.27969 3.02173,-2.89328 1.1732,-1.15404 1.59334,-1.76587 1.97601,-2.88053 0.20267,-0.59067 0.4216,-1.27414 0.39893,-1.89814 -0.0147,-0.42533 -0.25546,-0.75866 -0.40346,-1.09999 -0.104,-0.10534 -0.1672,-0.22 -0.22587,-0.36 -0.27333,-0.65867 0.36438,-1.09067 0.53504,-1.72267 0.29334,-1.088 0.41231,-2.11219 0.0854,-3.97684 -0.3269,-1.86465 -2.3116,-5.42637 -6.02107,-5.40129 -3.70947,0.0251 -5.95776,2.33692 -5.95776,2.33692 0,0 -3.048,-2.71733 -6.86266,-2.61333 -3.81467,0.10267 -9.73295,1.74227 -12.31367,3.53187 -2.58072,1.7896 -3.12267,2.01734 -4.768,3.01734 -0.82134,0.49866 -1.64267,1.04533 -2.512,1.48 -0.33867,0.16933 -0.72934,0.28533 -1.08534,0.44133 0.092,0.84267 0.296,1.67867 0.632,2.49067 0.816,1.97466 2.40534,2.84133 4.444,3.86133 3.17867,1.58933 7.16,3.06 10.40256,3.80666 3.68467,0.84829 5.03029,2.51961 7.268,3.615 z"
       style="fill:#c14242;fill-opacity:1;fill-rule:nonzero;stroke:none;stroke-width:1.33333"
       id="path2-4"
       sodipodi:nodetypes="scssccccczzcczcsccccs" />
    <path
       id="path3-9"
       style="fill:#000000;fill-opacity:1;fill-rule:nonzero;stroke:none;stroke-width:1.33333"
       d="m 289.99023,200.10156 c 1.38197,2.22609 5.02428,3.97381 7.49415,5.08203 2.43052,0.79076 4.66859,2.35426 13.11634,5.65219 1.74549,0.68143 3.6026,1.93042 5.79992,3.32353 3.12705,-2.6906 3.77408,-2.85996 5.22612,-4.08539 1.89379,-1.59823 3.68485,-3.03468 4.75329,-4.57485 1.06844,-1.54017 1.52991,-2.9763 1.53011,-4.73734 0,1.56203 -0.74584,3.70134 -4.94978,6.91837 -2.15288,1.64747 -5.04972,4.36393 -6.36663,5.02552 -2.27307,-1.40959 -3.09466,-2.16267 -5.61674,-3.48013 -3.34366,-1.74662 -4.56653,-2.56181 -8.37935,-4.18446 -2.15391,-0.91666 -4.46591,-1.37571 -6.61524,-2.23438 -1.07467,-0.42933 -2.13311,-0.88575 -3.17578,-1.37109 -0.45204,-0.20996 -2.4156,-0.88584 -2.81641,-1.33399 z"
       sodipodi:nodetypes="ccscsccscsssccc" />
    <path
       id="path4-3"
       style="opacity:0.5;fill:#ffffff;fill-opacity:1;fill-rule:nonzero;stroke:none;stroke-width:1.33333"
       d="m 321.91797,197.75195 c -0.10695,0.008 -0.22583,0.046 -0.36133,0.125 -0.33734,0.196 -0.46308,0.67337 -0.95508,0.63867 -0.43067,-0.0307 -0.70855,-0.62151 -1.19922,-0.49218 -0.52962,0.13899 -0.86642,0.49984 -1.18164,0.8789 0.0165,0.0415 0.0354,0.0845 0.0508,0.125 0.361,0.95205 0.66977,1.84142 0.75977,2.98828 0.0138,0.17535 0.0172,0.36551 0.0176,0.5625 0.3459,-0.0232 0.70067,-0.0803 1.01758,-0.15624 0.636,-0.152 1.11883,-0.43668 1.79882,-0.38868 0.53466,0.0373 0.98771,0.24248 1.45704,-0.13086 0.392,-0.31066 0.57698,-0.71389 0.98632,-0.97656 0.52533,-0.336 1.08613,-0.29717 0.93946,-1.0625 -0.42933,-0.19067 -0.48305,-0.66345 -0.76172,-0.93945 -0.15333,-0.15333 -0.51395,-0.40642 -0.72461,-0.48242 -0.19734,-0.0694 -0.44916,0.0288 -0.64649,-0.0352 -0.48533,-0.15925 -0.73383,-0.68754 -1.19726,-0.6543 z m -14.8418,0.19727 c -0.33431,0.0216 -0.74494,0.16244 -0.96094,0.27344 -0.472,0.244 -0.48261,0.58556 -1.11328,0.46289 -0.428,-0.0827 -0.69962,-0.32564 -0.87695,-0.68164 -0.692,-0.0293 -1.47006,-0.0766 -1.91406,0.44336 0.248,0.29467 0.49122,0.60011 0.69922,0.91211 0.31867,0.47865 0.34505,0.57984 1.01172,0.70117 0.83199,0.15333 1.44645,0.58279 2.09179,0.96679 0.61733,0.36667 1.55612,0.54408 2.05078,1.08008 0.276,0.3 0.24053,0.41611 0.64453,0.55078 0.31333,0.1053 0.7581,0.10119 1.10743,0.0879 0.80267,-0.032 1.57872,-0.14406 2.38671,-0.16406 0.932,-0.0227 2.08412,0.58306 2.91211,0.0391 0.36133,-0.23867 0.54535,-0.58826 1.05469,-0.60156 0.31207,-0.008 0.52216,0.15046 0.77539,0.26367 -0.24554,-0.85583 -0.3763,-1.47381 -0.75976,-2.22851 -0.26031,-0.0158 -0.52489,-0.0464 -0.74414,-0.0352 -1.17067,0.06 -1.95647,0.20246 -2.98047,-0.4082 -0.65467,-0.38934 -1.32799,-0.8342 -2.08399,-1.01953 -0.47467,-0.1147 -0.85866,-0.24597 -1.36133,-0.14063 -0.38265,0.0813 -0.69868,0.41736 -1.05468,0.19336 -0.348,-0.21866 -0.16061,-0.54787 -0.58594,-0.67187 -0.0843,-0.0247 -0.18739,-0.0306 -0.29883,-0.0234 z" />
    <path
       id="path5-0"
       style="opacity:0.199997;fill:#000000;fill-opacity:1;fill-rule:nonzero;stroke:none;stroke-width:1.33333"
       d="m 309.11328,187.80859 c -0.0812,0.003 -0.16702,0.01 -0.25,0.0137 -0.19869,0.009 -0.4099,0.0221 -0.63281,0.041 -0.11678,0.01 -0.23418,0.0193 -0.35352,0.0312 -0.32498,0.0333 -0.65946,0.0713 -1.00781,0.12109 -0.25462,0.0364 -0.5146,0.0784 -0.77539,0.12305 -0.19961,0.0342 -0.41173,0.0735 -0.62891,0.11524 -0.0527,0.0101 -0.10056,0.0187 -0.15429,0.0293 -0.25509,0.0504 -0.5257,0.10807 -0.80274,0.16992 -0.0345,0.008 -0.0667,0.0136 -0.10156,0.0215 -0.30946,0.0701 -0.63027,0.14666 -0.96484,0.23242 -0.57674,0.14775 -1.14958,0.31027 -1.70703,0.48438 -0.27868,0.0871 -0.55434,0.17689 -0.82422,0.26953 -1.6188,0.55564 -3.05602,1.20609 -4.02344,1.87695 -2.58072,1.7896 -3.12225,2.01563 -4.76758,3.01563 -0.5396,0.32761 -1.08155,0.67436 -1.63476,0.99804 -0.28884,0.169 -0.57876,0.33332 -0.87696,0.48242 -0.1078,0.0539 -0.22625,0.0984 -0.3418,0.14454 -0.23263,0.13702 -0.52497,0.3136 -0.7246,0.42968 0.026,0.21141 0.059,0.42265 0.0996,0.63282 1.3e-4,6.2e-4 -1.2e-4,0.001 0,0.002 6.18448,-0.78097 17.2468,-4.25529 22.2793,-2.11524 5.44933,2.316 7.12346,0.22981 8.99024,-0.32226 3.12576,-0.78874 5.84311,1.71313 6.84178,3.53713 0.41362,0.12956 0.7059,0.0537 1.0879,-0.39065 v -0.002 c 0.0462,-0.0934 0.0897,-0.18894 0.11719,-0.29102 0.29334,-1.08799 0.4109,-2.11191 0.084,-3.97656 -0.3269,-1.86465 -2.31007,-5.42547 -6.01954,-5.40039 -3.70946,0.0251 -5.95898,2.33594 -5.95898,2.33594 0,0 -0.14071,-0.11678 -0.3457,-0.27539 -0.14659,-0.0207 -0.31615,-0.14102 -0.56446,-0.40235 -0.004,-0.004 -0.01,-0.006 -0.0137,-0.01 -0.0838,-0.0567 -0.14619,-0.10576 -0.24023,-0.16602 -0.5435,-0.34126 -1.05036,-0.61099 -1.51367,-0.82617 -0.19677,-0.0914 -0.38206,-0.16768 -0.5625,-0.24023 -0.0763,-0.0303 -0.15223,-0.0608 -0.23047,-0.0899 -0.0688,-0.0259 -0.13319,-0.0489 -0.19922,-0.0723 -0.16686,-0.0583 -0.33502,-0.11498 -0.50977,-0.16602 -0.41109,-0.12006 -0.84455,-0.21885 -1.29297,-0.2832 -0.22421,-0.0322 -0.45172,-0.0542 -0.68359,-0.0684 -0.0591,-0.004 -0.12014,-0.002 -0.17969,-0.004 -0.19158,-0.007 -0.38808,-0.011 -0.61328,-0.006 z"
       sodipodi:nodetypes="ccccsssssscssscssccscccccccssccsccscccsssccc" />
    <path
       d="m 287.60413,197.75281 c 0.34133,0.004 0.708,-0.0947 1.00666,-0.15867 0.412,-0.0893 0.83067,-0.15867 1.24534,-0.23733 1.124,-0.212 2.25066,-0.42 3.37733,-0.62 2.17333,-0.388 4.35333,-0.77734 6.55067,-1.036 3.92666,-0.46267 10.49954,-1.48799 12.86088,-0.0227 2.36133,1.46667 2.90666,1.02667 4.088,0.496 1.18,-0.532 5.05789,-2.7604 7.41922,-0.5964 0.76267,0.69866 1.32678,1.21997 1.97745,2.0173 0.40667,0.49733 0.78533,1.03067 1.548,0.83333 0.35867,-0.092 0.58533,-0.32533 0.68933,-0.656 0.048,-0.148 0.324,-0.68933 0.0627,-0.79466 -0.0707,-0.028 -0.25467,0.0973 -0.368,0.12666 -0.16133,0.0413 -0.31867,0.0893 -0.472,0.10934 -0.256,0.032 -0.50217,0.0444 -1.10089,-0.49506 -0.59872,-0.53951 -1.38119,-1.1008 -2.2616,-1.86426 -0.88041,-0.76346 -1.63075,-0.98575 -4.17475,-0.82586 -2.53771,0.1595 -3.95543,1.88828 -4.86343,1.89361 -0.908,0.007 -3.75519,-2.38014 -7.26622,-2.28134 -2.452,0.016 -9.74933,1.37333 -12.568,1.916 -0.93066,0.17866 -1.88266,0.276 -2.82533,0.38666 -0.78,0.092 -1.55067,0.252 -2.336,0.31867 -0.68133,0.0587 -1.35733,-0.024 -2.048,-0.0173 -0.49467,0.004 -0.86133,-0.256 -1.32533,-0.28534 -0.52667,-0.0333 -0.53067,0.47867 -0.43734,0.80267 0.088,0.30533 0.32667,0.576 0.56667,0.77733 0.184,0.156 0.41333,0.21067 0.65467,0.21334"
       style="fill:#000000;fill-opacity:1;fill-rule:nonzero;stroke:none;stroke-width:1.33333"
       id="path7-5"
       sodipodi:nodetypes="cccccccccccccczzsccccccsscc" />
    <path
       style="fill:#000000;fill-opacity:0.3;stroke:none;stroke-width:1.08663px;stroke-linecap:butt;stroke-linejoin:miter;stroke-opacity:1"
       d="m 317.92379,208.57851 c 0,0 0.54243,-1.83749 0.75915,-2.77085 0.2167,-0.93336 0.43733,-2.64612 0.34737,-3.79299 -0.09,-1.14687 -0.39691,-2.03535 -0.75791,-2.9874 -0.36099,-0.95204 -1.03389,-2.18199 -1.3895,-2.68532 -0.35561,-0.50332 -0.47369,-0.50349 -0.47369,-0.50349 l -1.51278,0.27131 -3.0031,-0.80836 c 0,0 1.22878,1.04013 1.92636,1.77901 0.69758,0.73888 1.70204,1.79149 2.21057,2.6853 0.50852,0.89382 0.63965,1.55495 0.9158,2.51748 0.27616,0.96252 0.52549,2.36521 0.69476,3.25592 0.16927,0.89073 0.28297,3.03939 0.28297,3.03939 z"
       id="path83082"
       sodipodi:nodetypes="czzzzccczzzzc" />
  </g>
  <g
     inkscape:groupmode="layer"
     id="g14"
     inkscape:label="Pakled Mouth">
    <path
       d="m 311.11613,205.9552 c -1.99467,-0.23066 -5.37067,-0.716 -9.932,-2.324 -4.424,-1.56 -8.99334,-1.64133 -8.99334,-1.64133 0,0 11.17195,10.78802 23.57728,11.09069 11.1326,0.2585 11.76004,-10.34256 12.0147,-10.86923 -3.55066,2.00933 -12.43731,4.23187 -16.66664,3.74387"
       style="opacity:0.199997;fill:#000000;fill-opacity:1;fill-rule:nonzero;stroke:none;stroke-width:1.33333"
       id="path8"
       sodipodi:nodetypes="cccccc" />
    <path
       d="m 311.26797,210.0494 c 1.00289,0.49092 4.25549,3.18464 5.29949,3.17736 1.15526,-0.0378 1.79728,-0.97943 2.6223,-1.64866 1.46993,-1.19235 2.60303,-2.49931 3.46437,-3.26375 0.6644,-0.58966 2.39796,-2.27969 3.02173,-2.89328 1.1732,-1.15404 1.59334,-1.76587 1.97601,-2.88053 0.20267,-0.59067 0.4216,-1.27414 0.39893,-1.89814 -0.0147,-0.42533 -0.25546,-0.75866 -0.40346,-1.09999 -0.104,-0.10534 -0.1672,-0.22 -0.22587,-0.36 -0.27333,-0.65867 0.36438,-1.09067 0.53504,-1.72267 0.29334,-1.088 0.41231,-2.11219 0.0854,-3.97684 -0.3269,-1.86465 -2.3116,-5.42637 -6.02107,-5.40129 -3.70947,0.0251 -5.95776,2.33692 -5.95776,2.33692 0,0 -3.048,-2.71733 -6.86266,-2.61333 -3.81467,0.10267 -9.73295,1.74227 -12.31367,3.53187 -2.58072,1.7896 -3.12267,2.01734 -4.768,3.01734 -0.82134,0.49866 -1.64267,1.04533 -2.512,1.48 -0.33867,0.16933 -0.72934,0.28533 -1.08534,0.44133 0.092,0.84267 0.296,1.67867 0.632,2.49067 0.816,1.97466 2.40534,2.84133 4.444,3.86133 3.17867,1.58933 7.16,3.06 10.40256,3.80666 3.68467,0.84829 5.03029,2.51961 7.268,3.615 z"
       style="fill:#c14242;fill-opacity:1;fill-rule:nonzero;stroke:none;stroke-width:1.33333"
       id="path9"
       sodipodi:nodetypes="scsssccccczzcczcsccccs" />
    <path
       id="path10"
       style="fill:#000000;fill-opacity:1;fill-rule:nonzero;stroke:none;stroke-width:1.33333"
       d="m 289.99023,200.10156 c 1.38197,2.22609 5.02428,3.97381 7.49415,5.08203 2.43052,0.79076 3.92857,1.96814 12.37631,5.26609 1.19107,0.46499 2.40194,1.2586 3.76959,2.11759 0.63661,0.39984 0.54094,1.59928 2.77036,1.59204 2.22942,-0.007 2.19657,-1.62671 2.74217,-1.99883 1.0413,-0.7102 2.0646,-1.74158 3.15963,-2.66571 1.89378,-1.59824 3.00917,-2.45553 4.07761,-3.9957 1.06844,-1.54017 1.52991,-2.9763 1.53011,-4.73734 0,1.56203 -0.74584,3.70134 -4.94978,6.91837 -1.39448,1.06711 -3.10108,2.58271 -4.48829,3.69789 -0.75445,0.6065 -0.4364,1.64256 -1.97487,1.64938 -1.53846,0.007 -1.41293,-1.37049 -1.83009,-1.64674 -1.34541,-0.89096 -1.76496,-1.14949 -3.69012,-2.15514 -3.34366,-1.74663 -4.56653,-2.56181 -8.37935,-4.18446 -2.15391,-0.91666 -4.46591,-1.37571 -6.61524,-2.23438 -1.07467,-0.42933 -2.13311,-0.88575 -3.17578,-1.37109 -0.45204,-0.20996 -2.4156,-0.88584 -2.81641,-1.33399 z"
       sodipodi:nodetypes="ccsszssccsszssssccc" />
    <path
       id="path12"
       style="opacity:0.199997;fill:#000000;fill-opacity:1;fill-rule:nonzero;stroke:none;stroke-width:1.33333"
       d="m 309.11328,187.80859 c -0.0812,0.003 -0.16702,0.01 -0.25,0.0137 -0.19869,0.009 -0.4099,0.0221 -0.63281,0.041 -0.11678,0.01 -0.23418,0.0193 -0.35352,0.0312 -0.32498,0.0333 -0.65946,0.0713 -1.00781,0.12109 -0.25462,0.0364 -0.5146,0.0784 -0.77539,0.12305 -0.19961,0.0342 -0.41173,0.0735 -0.62891,0.11524 -0.0527,0.0101 -0.10056,0.0187 -0.15429,0.0293 -0.25509,0.0504 -0.5257,0.10807 -0.80274,0.16992 -0.0345,0.008 -0.0667,0.0136 -0.10156,0.0215 -0.30946,0.0701 -0.63027,0.14666 -0.96484,0.23242 -0.57674,0.14775 -1.14958,0.31027 -1.70703,0.48438 -0.27868,0.0871 -0.55434,0.17689 -0.82422,0.26953 -1.6188,0.55564 -3.05602,1.20609 -4.02344,1.87695 -2.58072,1.7896 -3.12225,2.01563 -4.76758,3.01563 -0.5396,0.32761 -1.08155,0.67436 -1.63476,0.99804 -0.28884,0.169 -0.57876,0.33332 -0.87696,0.48242 -0.1078,0.0539 -0.22625,0.0984 -0.3418,0.14454 -0.23263,0.13702 -0.52497,0.3136 -0.7246,0.42968 0.026,0.21141 0.059,0.42265 0.0996,0.63282 1.3e-4,6.2e-4 -1.2e-4,0.001 0,0.002 6.18448,-0.78097 17.2468,-4.25529 22.2793,-2.11524 5.44933,2.316 7.12346,0.22981 8.99024,-0.32226 3.12576,-0.78874 5.84311,1.71313 6.84178,3.53713 0.41362,0.12956 0.7059,0.0537 1.0879,-0.39065 v -0.002 c 0.0462,-0.0934 0.0897,-0.18894 0.11719,-0.29102 0.29334,-1.08799 0.4109,-2.11191 0.084,-3.97656 -0.3269,-1.86465 -2.31007,-5.42547 -6.01954,-5.40039 -3.70946,0.0251 -5.95898,2.33594 -5.95898,2.33594 0,0 -0.14071,-0.11678 -0.3457,-0.27539 -0.14659,-0.0207 -0.31615,-0.14102 -0.56446,-0.40235 -0.004,-0.004 -0.01,-0.006 -0.0137,-0.01 -0.0838,-0.0567 -0.14619,-0.10576 -0.24023,-0.16602 -0.5435,-0.34126 -1.05036,-0.61099 -1.51367,-0.82617 -0.19677,-0.0914 -0.38206,-0.16768 -0.5625,-0.24023 -0.0763,-0.0303 -0.15223,-0.0608 -0.23047,-0.0899 -0.0688,-0.0259 -0.13319,-0.0489 -0.19922,-0.0723 -0.16686,-0.0583 -0.33502,-0.11498 -0.50977,-0.16602 -0.41109,-0.12006 -0.84455,-0.21885 -1.29297,-0.2832 -0.22421,-0.0322 -0.45172,-0.0542 -0.68359,-0.0684 -0.0591,-0.004 -0.12014,-0.002 -0.17969,-0.004 -0.19158,-0.007 -0.38808,-0.011 -0.61328,-0.006 z"
       sodipodi:nodetypes="ccccsssssscssscssccscccccccssccsccscccsssccc" />
    <path
       d="m 287.60413,197.75281 c 0.34133,0.004 0.708,-0.0947 1.00666,-0.15867 0.412,-0.0893 0.83067,-0.15867 1.24534,-0.23733 1.124,-0.212 2.25066,-0.42 3.37733,-0.62 2.17333,-0.388 4.35333,-0.77734 6.55067,-1.036 3.92666,-0.46267 10.49954,-1.48799 12.86088,-0.0227 2.36133,1.46667 2.90666,1.02667 4.088,0.496 1.18,-0.532 5.05789,-2.7604 7.41922,-0.5964 0.76267,0.69866 1.32678,1.21997 1.97745,2.0173 0.40667,0.49733 0.78533,1.03067 1.548,0.83333 0.35867,-0.092 0.58533,-0.32533 0.68933,-0.656 0.048,-0.148 0.324,-0.68933 0.0627,-0.79466 -0.0707,-0.028 -0.25467,0.0973 -0.368,0.12666 -0.16133,0.0413 -0.31867,0.0893 -0.472,0.10934 -0.256,0.032 -0.50217,0.0444 -1.10089,-0.49506 -0.59872,-0.53951 -1.38119,-1.1008 -2.2616,-1.86426 -0.88041,-0.76346 -1.63075,-0.98575 -4.17475,-0.82586 -2.53771,0.1595 -3.95543,1.88828 -4.86343,1.89361 -0.908,0.007 -3.75519,-2.38014 -7.26622,-2.28134 -2.452,0.016 -9.74933,1.37333 -12.568,1.916 -0.93066,0.17866 -1.88266,0.276 -2.82533,0.38666 -0.78,0.092 -1.55067,0.252 -2.336,0.31867 -0.68133,0.0587 -1.35733,-0.024 -2.048,-0.0173 -0.49467,0.004 -0.86133,-0.256 -1.32533,-0.28534 -0.52667,-0.0333 -0.53067,0.47867 -0.43734,0.80267 0.088,0.30533 0.32667,0.576 0.56667,0.77733 0.184,0.156 0.41333,0.21067 0.65467,0.21334"
       style="fill:#000000;fill-opacity:1;fill-rule:nonzero;stroke:none;stroke-width:1.33333"
       id="path13"
       sodipodi:nodetypes="cccccccccccccczzsccccccsscc" />
    <path
       d="m 312.20229,202.5828 c -0.808,0.02 -1.584,0.132 -2.38667,0.164 -0.34933,0.0133 -0.79333,0.016 -1.10666,-0.0893 -0.404,-0.13467 -0.36934,-0.24933 -0.64534,-0.54933 -0.49466,-0.536 -1.43333,-0.71467 -2.05066,-1.08134 -0.64534,-0.384 -1.26,-0.81333 -2.092,-0.96666 -0.66667,-0.12133 -0.692,-0.22267 -1.01067,-0.70133 -0.208,-0.312 -0.452,-0.616 -0.7,-0.91067 0.444,-0.52 1.22267,-0.47333 1.91467,-0.444 0.17733,0.356 0.44933,0.59867 0.87733,0.68133 0.63067,0.12267 0.64,-0.21866 1.112,-0.46266 0.288,-0.148 0.92267,-0.348 1.26,-0.24934 0.42533,0.124 0.23867,0.45334 0.58667,0.672 0.356,0.224 0.672,-0.11333 1.05466,-0.19466 0.50267,-0.10534 0.88667,0.0253 1.36134,0.14 0.756,0.18533 1.42933,0.63066 2.084,1.02 1.024,0.61066 1.81066,0.46933 2.98133,0.40933 0.444,-0.0227 1.06667,0.11733 1.48533,-0.0147 1.07467,-0.33866 1.32134,-1.67866 2.47467,-1.98133 0.49067,-0.12933 0.76933,0.46133 1.2,0.492 0.492,0.0347 0.61733,-0.444 0.95467,-0.64 0.72266,-0.42133 0.96,0.33467 1.55733,0.53067 0.19733,0.064 0.44933,-0.0347 0.64667,0.0347 0.21066,0.076 0.572,0.32934 0.72533,0.48267 0.27867,0.276 0.332,0.74933 0.76133,0.94 0.14667,0.76533 -0.41333,0.72533 -0.93866,1.06133 -0.40934,0.26267 -0.59467,0.66667 -0.98667,0.97733 -0.46933,0.37334 -0.92267,0.168 -1.45733,0.13067 -0.68,-0.048 -1.16267,0.23733 -1.79867,0.38933 -0.456,0.10934 -0.99067,0.18534 -1.464,0.16667 -0.464,-0.0187 -1.02267,-0.112 -1.46667,-0.23467 -0.34933,-0.0973 -0.58,-0.34533 -0.96666,-0.336 -0.50934,0.0133 -0.69334,0.36267 -1.05467,0.60134 -0.828,0.544 -1.98,-0.06 -2.912,-0.0373"
       style="display:inline;opacity:0.5;fill:#ffffff;fill-opacity:1;fill-rule:nonzero;stroke:none;stroke-width:1.33333"
       id="path14" />
  </g>
  <g
     id="g7"
     inkscape:groupmode="layer"
     inkscape:label="Revised Artwork"
     style="display:none"
     sodipodi:insensitive="true">
    <path
       d="m 311.11613,205.9552 c -1.99467,-0.23066 -5.37067,-0.716 -9.932,-2.324 -4.424,-1.56 -8.99334,-1.64133 -8.99334,-1.64133 0,0 11.03067,9.056 23.436,9.35867 12.40667,0.304 12.26534,-7.928 12.52,-8.45467 -3.55066,2.00933 -12.80133,3.54933 -17.03066,3.06133"
       style="opacity:0.199997;fill:#000000;fill-opacity:1;fill-rule:nonzero;stroke:none;stroke-width:1.33333"
       id="path1" />
    <path
       d="m 303.99986,206.4344 c 5.172,1.19067 8.14267,1.604 11.77333,1.57867 3.63067,-0.024 8.72947,-1.43796 9.90267,-2.592 1.1732,-1.15404 1.59334,-1.76587 1.97601,-2.88053 0.20267,-0.59067 0.4216,-1.27414 0.39893,-1.89814 -0.0147,-0.42533 -0.25546,-0.75866 -0.40346,-1.09999 -0.104,-0.10534 -0.1672,-0.22 -0.22587,-0.36 -0.27333,-0.65867 0.36438,-1.09067 0.53504,-1.72267 0.29334,-1.088 0.41231,-2.11219 0.0854,-3.97684 -0.3269,-1.86465 -2.3116,-5.42637 -6.02107,-5.40129 -3.70947,0.0251 -5.95776,2.33692 -5.95776,2.33692 0,0 -3.048,-2.71733 -6.86266,-2.61333 -3.81467,0.10267 -9.73295,1.74227 -12.31367,3.53187 -2.58072,1.7896 -3.12267,2.01734 -4.768,3.01734 -0.82134,0.49866 -1.64267,1.04533 -2.512,1.48 -0.33867,0.16933 -0.72934,0.28533 -1.08534,0.44133 0.092,0.84267 0.296,1.67867 0.632,2.49067 0.816,1.97466 2.40534,2.84133 4.444,3.86133 3.17867,1.58933 7.16,3.06 10.40267,3.80666"
       style="fill:#c14242;fill-opacity:1;fill-rule:nonzero;stroke:none;stroke-width:1.33333"
       id="path2"
       sodipodi:nodetypes="cczccccczzcczcscccc" />
    <path
       d="m 327.91027,200.76107 c -0.001,9.16185 -12.43153,9.56587 -18.91953,8.0672 -3.124,-0.72133 -8.35381,-2.2304 -11.50715,-3.64507 -2.508,-1.12533 -6.22988,-2.90852 -7.56133,-5.18399 0.14267,0.43999 2.396,1.20933 2.884,1.43599 1.04267,0.48534 2.10133,0.94267 3.176,1.372 2.14933,0.85867 4.36,1.604 6.61467,2.23334 4.376,1.22 7.59781,2.1544 11.76715,2.1264 10.78266,-0.0733 13.54619,-4.24054 13.54619,-6.40587 z"
       style="fill:#000000;fill-opacity:1;fill-rule:nonzero;stroke:none;stroke-width:1.33333"
       id="path3"
       sodipodi:nodetypes="cccccsccc" />
    <path
       d="m 312.20229,202.5828 c -0.808,0.02 -1.584,0.132 -2.38667,0.164 -0.34933,0.0133 -0.79333,0.016 -1.10666,-0.0893 -0.404,-0.13467 -0.36934,-0.24933 -0.64534,-0.54933 -0.49466,-0.536 -1.43333,-0.71467 -2.05066,-1.08134 -0.64534,-0.384 -1.26,-0.81333 -2.092,-0.96666 -0.66667,-0.12133 -0.692,-0.22267 -1.01067,-0.70133 -0.208,-0.312 -0.452,-0.616 -0.7,-0.91067 0.444,-0.52 1.22267,-0.47333 1.91467,-0.444 0.17733,0.356 0.44933,0.59867 0.87733,0.68133 0.63067,0.12267 0.64,-0.21866 1.112,-0.46266 0.288,-0.148 0.92267,-0.348 1.26,-0.24934 0.42533,0.124 0.23867,0.45334 0.58667,0.672 0.356,0.224 0.672,-0.11333 1.05466,-0.19466 0.50267,-0.10534 0.88667,0.0253 1.36134,0.14 0.756,0.18533 1.42933,0.63066 2.084,1.02 1.024,0.61066 1.81066,0.46933 2.98133,0.40933 0.444,-0.0227 1.06667,0.11733 1.48533,-0.0147 1.07467,-0.33866 1.32134,-1.67866 2.47467,-1.98133 0.49067,-0.12933 0.76933,0.46133 1.2,0.492 0.492,0.0347 0.61733,-0.444 0.95467,-0.64 0.72266,-0.42133 0.96,0.33467 1.55733,0.53067 0.19733,0.064 0.44933,-0.0347 0.64667,0.0347 0.21066,0.076 0.572,0.32934 0.72533,0.48267 0.27867,0.276 0.332,0.74933 0.76133,0.94 0.14667,0.76533 -0.41333,0.72533 -0.93866,1.06133 -0.40934,0.26267 -0.59467,0.66667 -0.98667,0.97733 -0.46933,0.37334 -0.92267,0.168 -1.45733,0.13067 -0.68,-0.048 -1.16267,0.23733 -1.79867,0.38933 -0.456,0.10934 -0.99067,0.18534 -1.464,0.16667 -0.464,-0.0187 -1.02267,-0.112 -1.46667,-0.23467 -0.34933,-0.0973 -0.58,-0.34533 -0.96666,-0.336 -0.50934,0.0133 -0.69334,0.36267 -1.05467,0.60134 -0.828,0.544 -1.98,-0.06 -2.912,-0.0373"
       style="opacity:0.5;fill:#ffffff;fill-opacity:1;fill-rule:nonzero;stroke:none;stroke-width:1.33333"
       id="path4" />
    <path
       id="path5"
       style="opacity:0.199997;fill:#000000;fill-opacity:1;fill-rule:nonzero;stroke:none;stroke-width:1.33333"
       d="m 309.11328,187.80859 c -0.0812,0.003 -0.16702,0.01 -0.25,0.0137 -0.19869,0.009 -0.4099,0.0221 -0.63281,0.041 -0.11678,0.01 -0.23418,0.0193 -0.35352,0.0312 -0.32498,0.0333 -0.65946,0.0713 -1.00781,0.12109 -0.25462,0.0364 -0.5146,0.0784 -0.77539,0.12305 -0.19961,0.0342 -0.41173,0.0735 -0.62891,0.11524 -0.0527,0.0101 -0.10056,0.0187 -0.15429,0.0293 -0.25509,0.0504 -0.5257,0.10807 -0.80274,0.16992 -0.0345,0.008 -0.0667,0.0136 -0.10156,0.0215 -0.30946,0.0701 -0.63027,0.14666 -0.96484,0.23242 -0.57674,0.14775 -1.14958,0.31027 -1.70703,0.48438 -0.27868,0.0871 -0.55434,0.17689 -0.82422,0.26953 -1.6188,0.55564 -3.05602,1.20609 -4.02344,1.87695 -2.58072,1.7896 -3.12225,2.01563 -4.76758,3.01563 -0.5396,0.32761 -1.08155,0.67436 -1.63476,0.99804 -0.28884,0.169 -0.57876,0.33332 -0.87696,0.48242 -0.1078,0.0539 -0.22625,0.0984 -0.3418,0.14454 -0.23263,0.13702 -0.52497,0.3136 -0.7246,0.42968 0.026,0.21141 0.059,0.42265 0.0996,0.63282 1.3e-4,6.2e-4 -1.2e-4,0.001 0,0.002 6.18448,-0.78097 17.2468,-4.25529 22.2793,-2.11524 5.44933,2.316 7.12346,0.22981 8.99024,-0.32226 2.67771,-0.54435 5.70055,1.85569 6.69922,3.67969 0.41362,0.12956 0.84846,-0.0889 1.23046,-0.53321 v -0.002 c 0.0462,-0.0934 0.0897,-0.18894 0.11719,-0.29102 0.29334,-1.08799 0.4109,-2.11191 0.084,-3.97656 -0.3269,-1.86465 -2.31007,-5.42547 -6.01954,-5.40039 -3.70946,0.0251 -5.95898,2.33594 -5.95898,2.33594 0,0 -0.14071,-0.11678 -0.3457,-0.27539 -0.14659,-0.0207 -0.31615,-0.14102 -0.56446,-0.40235 -0.004,-0.004 -0.01,-0.006 -0.0137,-0.01 -0.0838,-0.0567 -0.14619,-0.10576 -0.24023,-0.16602 -0.5435,-0.34126 -1.05036,-0.61099 -1.51367,-0.82617 -0.19677,-0.0914 -0.38206,-0.16768 -0.5625,-0.24023 -0.0763,-0.0303 -0.15223,-0.0608 -0.23047,-0.0899 -0.0688,-0.0259 -0.13319,-0.0489 -0.19922,-0.0723 -0.16686,-0.0583 -0.33502,-0.11498 -0.50977,-0.16602 -0.41109,-0.12006 -0.84455,-0.21885 -1.29297,-0.2832 -0.22421,-0.0322 -0.45172,-0.0542 -0.68359,-0.0684 -0.0591,-0.004 -0.12014,-0.002 -0.17969,-0.004 -0.19158,-0.007 -0.38808,-0.011 -0.61328,-0.006 z" />
    <path
       d="m 287.60413,197.75281 c 0.34133,0.004 0.708,-0.0947 1.00666,-0.15867 0.412,-0.0893 0.83067,-0.15867 1.24534,-0.23733 1.124,-0.212 2.25066,-0.42 3.37733,-0.62 2.17333,-0.388 4.35333,-0.77734 6.55067,-1.036 3.92666,-0.46267 10.49954,-1.48799 12.86088,-0.0227 2.36133,1.46667 2.90666,1.02667 4.088,0.496 1.18,-0.532 4.77277,-2.67894 7.1341,-0.51494 0.76267,0.69866 1.46933,1.444 2.12,2.24133 0.40667,0.49733 0.78533,1.03067 1.548,0.83333 0.35867,-0.092 0.58533,-0.32533 0.68933,-0.656 0.048,-0.148 0.324,-0.68933 0.0627,-0.79466 -0.0707,-0.028 -0.25467,0.0973 -0.368,0.12666 -0.16133,0.0413 -0.31867,0.0893 -0.472,0.10934 -0.256,0.032 -0.57067,-0.0853 -0.75467,-0.25067 -0.208,-0.188 -0.41466,-0.36933 -0.64666,-0.544 -0.496,-0.37067 -0.988,-0.74933 -1.452,-1.15733 -1.18,-1.03867 -1.99734,-1.556 -4.54134,-1.53867 -2.54266,0.0173 -3.95543,1.88828 -4.86343,1.89361 -0.908,0.007 -3.75519,-2.38014 -7.26622,-2.28134 -2.452,0.016 -9.74933,1.37333 -12.568,1.916 -0.93066,0.17866 -1.88266,0.276 -2.82533,0.38666 -0.78,0.092 -1.55067,0.252 -2.336,0.31867 -0.68133,0.0587 -1.35733,-0.024 -2.048,-0.0173 -0.49467,0.004 -0.86133,-0.256 -1.32533,-0.28534 -0.52667,-0.0333 -0.53067,0.47867 -0.43734,0.80267 0.088,0.30533 0.32667,0.576 0.56667,0.77733 0.184,0.156 0.41333,0.21067 0.65467,0.21334"
       style="fill:#000000;fill-opacity:1;fill-rule:nonzero;stroke:none;stroke-width:1.33333"
       id="path7"
       sodipodi:nodetypes="cccccccccccccccccsccccccsscc" />
  </g>
  <g
     inkscape:groupmode="layer"
     id="layer4"
     inkscape:label="Philtrum">
    <path
       d="m 313.82253,180.15054 c 0,0 -2.32667,5.20267 -2.1,6.14 0.22533,0.93733 2.81066,2.55333 2.81066,2.55333 0,0 -2.036,-2.068 -1.712,-3.58666 0.32267,-1.52 1.00134,-5.10667 1.00134,-5.10667"
       style="fill:#000000;fill-opacity:1;fill-rule:nonzero;stroke:none;stroke-width:1.33333"
       id="path6" />
  </g>
</svg>
