<?xml version="1.0" encoding="UTF-8" standalone="no"?>
<!-- Created with Inkscape (http://www.inkscape.org/) -->

<svg
   version="1.1"
   id="svg20300"
   width="400"
   height="400"
   viewBox="0 0 400 400"
   sodipodi:docname="Mouth3Lipstick.svg"
   inkscape:version="1.3 (0e150ed, 2023-07-21)"
   xmlns:inkscape="http://www.inkscape.org/namespaces/inkscape"
   xmlns:sodipodi="http://sodipodi.sourceforge.net/DTD/sodipodi-0.dtd"
   xmlns="http://www.w3.org/2000/svg"
   xmlns:svg="http://www.w3.org/2000/svg">
  <defs
     id="defs20304" />
  <sodipodi:namedview
     id="namedview20302"
     pagecolor="#ffffff"
     bordercolor="#666666"
     borderopacity="1.0"
     inkscape:showpageshadow="2"
     inkscape:pageopacity="0.0"
     inkscape:pagecheckerboard="0"
     inkscape:deskcolor="#d1d1d1"
     showgrid="false"
     inkscape:zoom="2.29"
     inkscape:cx="199.78166"
     inkscape:cy="200"
     inkscape:window-width="2416"
     inkscape:window-height="1129"
     inkscape:window-x="2070"
     inkscape:window-y="203"
     inkscape:window-maximized="0"
     inkscape:current-layer="g6">
    <inkscape:page
       x="0"
       y="0"
       id="page20306"
       width="400"
       height="400"
       margin="0"
       bleed="0" />
  </sodipodi:namedview>
  <g
     inkscape:groupmode="layer"
     id="layer8"
     inkscape:label="Tellarite Mouth"
     style="display:none"
     sodipodi:insensitive="true">
    <path
       d="m 307.60279,205.11187 c -1.17866,-0.23867 -2.34266,-0.55733 -3.49733,-0.87733 -1.856,-0.51467 -3.948,-0.756 -5.66,-1.684 -1.22133,-0.66267 -2.42667,-1.572 -3.91067,-1.576 -1.588,-0.004 -1.59186,0.50956 -0.89183,1.19623 2.76782,3.44625 6.05188,5.82562 9.70473,7.66767 2.49003,1.25566 7.17365,3.81727 11.48289,3.87176 3.31592,0.0419 5.40171,-2.35011 8.36622,-5.49351 1.4451,-1.5323 2.2665,-4.11924 2.59742,-6.22325 0.028,-0.52534 -2.9274,2.11843 -3.0634,2.19176 -1.05866,0.57734 -2.58933,0.464 -3.75866,0.63867 -2.824,0.42 -5.676,0.804 -8.53734,0.66267 -0.95466,-0.048 -1.89733,-0.18534 -2.832,-0.37467"
       style="opacity:0.199997;fill:#000000;fill-opacity:1;fill-rule:nonzero;stroke:none;stroke-width:1.33333"
       id="path26546-6"
       sodipodi:nodetypes="cccccsssccccc" />
    <path
       id="path26576-6"
       style="fill:#c14242;fill-opacity:1;fill-rule:nonzero;stroke:none;stroke-width:1.33333"
       d="m 307.14204,188.08087 c -6.796,0.096 -18.99751,8.39765 -18.99751,8.39765 0.52341,0.20547 0.83854,0.0902 0.98693,0.76183 0.1484,0.67162 1.22181,2.36558 2.31438,3.1391 1.09258,0.77351 2.0743,1.51168 4.27887,2.95692 2.20456,1.44525 5.20358,3.14668 8.85015,4.56957 1.81358,1.0137 4.23793,1.97565 5.42149,2.58096 2.33588,1.19465 3.63916,2.41998 5.28415,2.24416 1.9894,-0.21262 5.11218,-4.24421 6.23782,-5.51193 1.15957,-1.30595 2.60725,-3.12227 3.78192,-4.28627 0.884,-0.87467 2.0996,-2.73419 2.31964,-3.65634 0.22004,-0.92216 0.41952,-1.38653 0.20409,-1.71723 1.12851,-0.0813 1.21149,0.40381 0.95142,-0.28195 -0.003,-0.005 -0.13718,-5.04753 -2.71251,-7.01112 -2.57534,-1.96358 -3.29215,-1.96109 -4.65525,-2.03151 -2.8183,-0.14558 -6.87443,2.07584 -6.87443,2.07584 0,0 -3.13383,-2.28838 -7.39116,-2.22968 z"
       sodipodi:nodetypes="cczzzcsssczcczscc" />
    <path
       id="path26594-6"
       style="opacity:0.199997;fill:#000000;fill-opacity:1;fill-rule:nonzero;stroke:none;stroke-width:1.33333"
       d="m 307.14258,188.08008 c -6.07631,0.0858 -16.40894,6.68915 -18.54297,8.0957 3.94913,1.00072 7.17683,1.43233 10.86719,1.8418 3.58933,-0.29774 6.94671,-0.19863 10.23242,0.8789 1.632,0.39333 3.00878,0.69932 4.66211,0.19532 1.89467,-0.57866 2.92208,-1.73393 4.96875,-1.64063 0.89466,0.0413 8.49726,0.20668 9.44531,-0.17383 -0.003,-0.005 -0.13756,-5.04813 -2.71289,-7.01172 -2.57534,-1.96357 -3.2912,-1.96083 -4.6543,-2.03124 -2.81829,-0.14558 -6.875,2.07617 -6.875,2.07617 0,0 -3.1333,-2.28917 -7.39062,-2.23047 z" />
    <path
       d="m 329.1683,199.15772 c 0.51867,-0.43067 0.28533,-1.768 0.18133,-2.35334 -0.072,-0.4 -0.916,-1.00533 -0.92266,-1.18933 0.0973,2.636 -3.6433,1.03943 -5.36996,1.09276 -1.39734,0.0427 -2.70267,-0.336 -4.064,-0.536 -1.16218,-0.1055 -3.50424,2.79099 -6.11018,2.80126 -2.60595,0.0103 -5.59249,-3.23618 -8.06849,-2.95618 -1.00933,0.11467 -1.928,0.27334 -2.89733,0.576 -3.952,1.23334 -8.70604,0.46749 -12.53138,-0.66184 -0.95866,-0.284 -0.436,-1.804 -1.44266,-1.8 -0.87067,0.004 -1.38134,0.86133 -1.684,1.51733 -0.172,0.37467 -0.424,0.744 -0.57467,1.12934 -0.0213,0.052 -0.17467,1.052 -0.0293,0.95333 0.75866,-0.51467 1.16133,-1.148 2.136,-1.2 1.128,-0.0613 2.20266,0.34267 3.25066,0.704 2.84267,0.98 5.72071,0.79118 8.71404,1.02451 1.912,0.14933 3.81867,-0.172 5.72667,-0.252 1.06267,-0.0453 2.20766,0.33111 3.24596,0.88482 1.0383,0.55371 2.69154,1.01224 4.00666,1.0435 1.31513,0.0312 2.05881,-0.28938 3.46267,-0.99283 1.40386,-0.70345 3.06604,-1.30991 4.63138,-1.26857 1.46933,0.0373 2.94533,0.14933 4.41466,0.0227 0.476,-0.0413 1.34196,0.0964 2.09794,-0.0303 0.84933,-0.14268 1.63599,0.60822 1.82666,1.49086 z"
       style="fill:#000000;fill-opacity:1;fill-rule:nonzero;stroke:none;stroke-width:1.33333"
       id="path26604-6"
       sodipodi:nodetypes="ccccczccccccccccczzzccccc" />
    <path
       style="fill:#000000;fill-opacity:0.3;stroke:none;stroke-width:1px;stroke-linecap:butt;stroke-linejoin:miter;stroke-opacity:1"
       d="m 316.04678,209.83486 c 0,0 0.45356,-0.78482 0.65917,-1.61796 0.20561,-0.83314 0.41493,-2.362 0.32958,-3.38572 -0.0854,-1.02372 -0.37658,-1.81681 -0.71909,-2.66663 -0.34251,-0.84982 -0.98094,-1.9477 -1.31834,-2.39698 -0.3374,-0.44928 -0.44943,-0.44943 -0.44943,-0.44943 l -4.28459,-0.47939 c 0,0 1.16585,0.92845 1.8277,1.58799 0.66185,0.65954 1.61487,1.59913 2.09735,2.39697 0.48248,0.79784 0.60689,1.38798 0.8689,2.24716 0.26201,0.85918 0.49857,2.11125 0.65917,2.90633 0.1606,0.79508 0.32958,1.85766 0.32958,1.85766 z"
       id="path83082"
       sodipodi:nodetypes="czzzzcczzzzc" />
    <path
       id="path26580-7"
       style="fill:#000000;fill-opacity:1;fill-rule:nonzero;stroke:none;stroke-width:1.33333"
       d="m 291.18164,200.30664 c 1.31333,0.74 3.02858,2.78003 4.2832,3.69336 2.96666,2.16 5.60972,3.613 9.00353,5.15389 3.68151,1.67152 6.99364,2.70779 10.1039,5.02189 2.50517,-1.52857 4.32964,-2.99139 6.40291,-4.96632 2.43467,-2.31918 3.89513,-4.83238 4.97003,-7.10584 -1.17467,1.40837 -3.25687,3.79277 -4.76493,5.30056 -2.93245,2.93191 -3.98921,3.83884 -6.03184,5.32824 -4.92412,-2.79675 -7.29616,-3.72267 -10.48164,-5.50138 -3.20081,-1.91234 -6.5283,-2.37968 -9.49492,-4.53963 -1.25466,-0.91333 -2.67691,-1.64477 -3.99024,-2.38477 z"
       sodipodi:nodetypes="ccscscscscc" />
  </g>
  <g
     inkscape:groupmode="layer"
     id="g6"
     inkscape:label="Pakled Mouth">
    <path
       d="m 307.60279,205.11187 c -1.17866,-0.23867 -2.34266,-0.55733 -3.49733,-0.87733 -1.856,-0.51467 -3.948,-0.756 -5.66,-1.684 -1.22133,-0.66267 -2.42667,-1.572 -3.91067,-1.576 -1.588,-0.004 -1.59186,0.50956 -0.89183,1.19623 2.76782,3.44625 6.05188,5.82562 9.70473,7.66767 2.49003,1.25566 7.17365,3.81727 11.48289,3.87176 3.31592,0.0419 5.40171,-2.35011 8.36622,-5.49351 1.4451,-1.5323 2.2665,-4.11924 2.59742,-6.22325 0.028,-0.52534 -2.9274,2.11843 -3.0634,2.19176 -1.05866,0.57734 -2.58933,0.464 -3.75866,0.63867 -2.824,0.42 -5.676,0.804 -8.53734,0.66267 -0.95466,-0.048 -1.89733,-0.18534 -2.832,-0.37467"
       style="opacity:0.199997;fill:#000000;fill-opacity:1;fill-rule:nonzero;stroke:none;stroke-width:1.33333"
       id="path1"
       sodipodi:nodetypes="cccccsssccccc" />
    <path
       id="path2"
       style="fill:#c14242;fill-opacity:1;fill-rule:nonzero;stroke:none;stroke-width:1.33333"
       d="m 307.14204,188.08087 c -6.796,0.096 -18.99751,8.39765 -18.99751,8.39765 0.52341,0.20547 0.83854,0.0902 0.98693,0.76183 0.1484,0.67162 1.22181,2.36558 2.31438,3.1391 1.09258,0.77351 2.0743,1.51168 4.27887,2.95692 2.20456,1.44525 5.20358,3.14668 8.85015,4.56957 1.81358,1.0137 4.23793,1.97565 5.42149,2.58096 2.33588,1.19465 3.26214,2.66716 5.28415,2.67414 2.72796,0.009 5.11218,-4.67419 6.23782,-5.94191 1.15957,-1.30595 2.60725,-3.12227 3.78192,-4.28627 0.884,-0.87467 2.0996,-2.73419 2.31964,-3.65634 0.22004,-0.92216 0.41952,-1.38653 0.20409,-1.71723 1.12851,-0.0813 1.21149,0.40381 0.95142,-0.28195 -0.003,-0.005 -0.13718,-5.04753 -2.71251,-7.01112 -2.57534,-1.96358 -3.29215,-1.96109 -4.65525,-2.03151 -2.8183,-0.14558 -6.87443,2.07584 -6.87443,2.07584 0,0 -3.13383,-2.28838 -7.39116,-2.22968 z"
       sodipodi:nodetypes="cczzzcsssczcczscc" />
    <path
       id="path3"
       style="opacity:0.199997;fill:#000000;fill-opacity:1;fill-rule:nonzero;stroke:none;stroke-width:1.33333"
       d="m 307.14258,188.08008 c -6.07631,0.0858 -16.40894,6.68915 -18.54297,8.0957 3.94913,1.00072 7.17683,1.43233 10.86719,1.8418 3.58933,-0.29774 6.94671,-0.19863 10.23242,0.8789 1.632,0.39333 3.00878,0.69932 4.66211,0.19532 1.89467,-0.57866 2.92208,-1.73393 4.96875,-1.64063 0.89466,0.0413 8.49726,0.20668 9.44531,-0.17383 -0.003,-0.005 -0.13756,-5.04813 -2.71289,-7.01172 -2.57534,-1.96357 -3.2912,-1.96083 -4.6543,-2.03124 -2.81829,-0.14558 -6.875,2.07617 -6.875,2.07617 0,0 -3.1333,-2.28917 -7.39062,-2.23047 z" />
    <path
       d="m 329.1683,199.15772 c 0.51867,-0.43067 0.28533,-1.768 0.18133,-2.35334 -0.072,-0.4 -0.916,-1.00533 -0.92266,-1.18933 0.0973,2.636 -3.6433,1.03943 -5.36996,1.09276 -1.39734,0.0427 -2.70267,-0.336 -4.064,-0.536 -1.16218,-0.1055 -3.50424,2.79099 -6.11018,2.80126 -2.60595,0.0103 -5.59249,-3.23618 -8.06849,-2.95618 -1.00933,0.11467 -1.928,0.27334 -2.89733,0.576 -3.952,1.23334 -8.70604,0.46749 -12.53138,-0.66184 -0.95866,-0.284 -0.436,-1.804 -1.44266,-1.8 -0.87067,0.004 -1.38134,0.86133 -1.684,1.51733 -0.172,0.37467 -0.424,0.744 -0.57467,1.12934 -0.0213,0.052 -0.17467,1.052 -0.0293,0.95333 0.75866,-0.51467 1.16133,-1.148 2.136,-1.2 1.128,-0.0613 2.20266,0.34267 3.25066,0.704 2.84267,0.98 5.72071,0.79118 8.71404,1.02451 1.912,0.14933 3.81867,-0.172 5.72667,-0.252 1.06267,-0.0453 2.20766,0.33111 3.24596,0.88482 1.0383,0.55371 2.69154,1.01224 4.00666,1.0435 1.31513,0.0312 2.05881,-0.28938 3.46267,-0.99283 1.40386,-0.70345 3.06604,-1.30991 4.63138,-1.26857 1.46933,0.0373 2.94533,0.14933 4.41466,0.0227 0.476,-0.0413 1.34196,0.0964 2.09794,-0.0303 0.84933,-0.14268 1.63599,0.60822 1.82666,1.49086 z"
       style="fill:#000000;fill-opacity:1;fill-rule:nonzero;stroke:none;stroke-width:1.33333"
       id="path4"
       sodipodi:nodetypes="ccccczccccccccccczzzccccc" />
    <path
       id="path6"
       style="fill:#000000;fill-opacity:1;fill-rule:nonzero;stroke:none;stroke-width:1.33333"
       d="m 291.18164,200.30664 c 1.31333,0.74 3.02858,2.78003 4.2832,3.69336 2.96666,2.16 5.60972,3.613 9.00353,5.15389 2.31924,1.05301 4.49189,1.85391 6.55983,2.881 0.92289,1.04861 2.06022,2.25292 4.03547,2.20232 1.97525,-0.0506 2.30218,-1.38099 2.7597,-2.28982 1.07001,-0.82874 2.07751,-1.71459 3.15181,-2.73793 2.43467,-2.31918 3.89513,-4.83238 4.97003,-7.10584 -1.17467,1.40837 -3.25687,3.79277 -4.76493,5.30056 -1.66549,1.66518 -2.71205,2.61018 -3.65954,3.48294 -0.25384,0.45206 -0.77093,2.1089 -2.3723,2.15243 -1.60137,0.0435 -2.57138,-1.15689 -2.90855,-1.72857 -3.61228,-1.96044 -4.85999,-2.565 -7.57309,-4.07994 -3.25544,-1.81778 -6.5283,-2.37968 -9.49492,-4.53963 -1.25466,-0.91333 -2.67691,-1.64477 -3.99024,-2.38477 z"
       sodipodi:nodetypes="ccsczcscsczcscc" />
  </g>
  <g
     id="g20308"
     inkscape:groupmode="layer"
     inkscape:label="Standard Mouth"
     style="display:none"
     sodipodi:insensitive="true">
    <path
       d="m 307.60279,205.11187 c -1.17866,-0.23867 -2.34266,-0.55733 -3.49733,-0.87733 -1.856,-0.51467 -3.948,-0.756 -5.66,-1.684 -1.22133,-0.66267 -2.42667,-1.572 -3.91067,-1.576 -1.588,-0.004 -0.79333,1.24666 -0.0933,1.93333 2.89067,2.832 6.28538,4.93099 10.13471,6.31632 2.204,0.79467 4.53867,1.18133 6.876,1.35333 4.10933,0.30267 8.84051,-0.0863 11.31462,-2.91365 0.42267,-0.48933 0.58534,-1.008 0.91334,-1.54533 0.744,-1.21867 1.548,-1.91467 1.62266,-3.388 0.028,-0.52534 -2.436,1.38133 -2.572,1.45466 -1.05866,0.57734 -2.58933,0.464 -3.75866,0.63867 -2.824,0.42 -5.676,0.804 -8.53734,0.66267 -0.95466,-0.048 -1.89733,-0.18534 -2.832,-0.37467"
       style="opacity:0.199997;fill:#000000;fill-opacity:1;fill-rule:nonzero;stroke:none;stroke-width:1.33333"
       id="path26546"
       sodipodi:nodetypes="cccccccccccccc" />
    <path
       d="m 291.18133,200.30614 c 1.31333,0.74 3.02933,2.78133 4.284,3.69466 2.96666,2.16 6.27715,3.30024 9.98515,3.6789 8.54533,0.872 14.29866,0 16.392,-0.872 1.612,-0.67066 2.79351,-2.4949 3.42685,-4.02823 -1.17467,1.16267 -2.10819,2.04823 -3.72019,2.72023 -2.092,0.872 -7.84666,1.744 -16.39066,0.872 -3.70934,-0.37866 -7.01982,-1.52023 -9.98649,-3.68023 -1.25466,-0.91333 -2.67733,-1.64533 -3.99066,-2.38533"
       style="fill:#000000;fill-opacity:1;fill-rule:nonzero;stroke:none;stroke-width:1.33333"
       id="path26580"
       sodipodi:nodetypes="ccccccccc" />
    <path
       id="path26576"
       style="fill:#c14242;fill-opacity:1;fill-rule:nonzero;stroke:none;stroke-width:1.33333"
       d="m 307.14204,188.08087 c -6.796,0.096 -18.99751,8.39765 -18.99751,8.39765 0.52341,0.20547 0.83854,0.0902 0.98693,0.76183 0.1484,0.67162 1.22181,2.36558 2.31438,3.1391 1.09258,0.77351 2.0743,1.51168 4.27887,2.95692 2.20456,1.44525 5.94068,2.7167 9.64868,3.09537 8.54399,0.872 14.29863,9.1e-4 16.39063,-0.87109 1.61199,-0.672 2.36155,-1.46379 3.53622,-2.62779 0.884,-0.87467 2.0996,-2.73419 2.31964,-3.65634 0.22004,-0.92216 0.41952,-1.38653 0.20409,-1.71723 1.12851,-0.0813 1.21149,0.40381 0.95142,-0.28195 -0.003,-0.005 -0.13718,-5.04753 -2.71251,-7.01112 -2.57534,-1.96358 -3.29215,-1.96109 -4.65525,-2.03151 -2.8183,-0.14558 -6.87443,2.07584 -6.87443,2.07584 0,0 -3.13383,-2.28838 -7.39116,-2.22968 z"
       sodipodi:nodetypes="cczzzcsczcczscc" />
    <path
       id="path26594"
       style="opacity:0.199997;fill:#000000;fill-opacity:1;fill-rule:nonzero;stroke:none;stroke-width:1.33333"
       d="m 307.14258,188.08008 c -6.07631,0.0858 -16.40894,6.68915 -18.54297,8.0957 3.94913,1.00072 7.17683,1.43233 10.86719,1.8418 3.58933,-0.29774 6.94671,-0.19863 10.23242,0.8789 1.632,0.39333 3.00878,0.69932 4.66211,0.19532 1.89467,-0.57866 2.92208,-1.73393 4.96875,-1.64063 0.89466,0.0413 8.49726,0.20668 9.44531,-0.17383 -0.003,-0.005 -0.13756,-5.04813 -2.71289,-7.01172 -2.57534,-1.96357 -3.2912,-1.96083 -4.6543,-2.03124 -2.81829,-0.14558 -6.875,2.07617 -6.875,2.07617 0,0 -3.1333,-2.28917 -7.39062,-2.23047 z" />
    <path
       d="m 329.1683,199.15772 c 0.51867,-0.43067 0.28533,-1.768 0.18133,-2.35334 -0.072,-0.4 -0.916,-1.00533 -0.92266,-1.18933 0.0973,2.636 -3.6433,1.03943 -5.36996,1.09276 -1.39734,0.0427 -2.70267,-0.336 -4.064,-0.536 -1.16218,-0.1055 -3.50424,2.79099 -6.11018,2.80126 -2.60595,0.0103 -5.59249,-3.23618 -8.06849,-2.95618 -1.00933,0.11467 -1.928,0.27334 -2.89733,0.576 -3.952,1.23334 -8.70604,0.46749 -12.53138,-0.66184 -0.95866,-0.284 -0.436,-1.804 -1.44266,-1.8 -0.87067,0.004 -1.38134,0.86133 -1.684,1.51733 -0.172,0.37467 -0.424,0.744 -0.57467,1.12934 -0.0213,0.052 -0.17467,1.052 -0.0293,0.95333 0.75866,-0.51467 1.16133,-1.148 2.136,-1.2 1.128,-0.0613 2.20266,0.34267 3.25066,0.704 2.84267,0.98 5.72071,0.79118 8.71404,1.02451 1.912,0.14933 3.81867,-0.172 5.72667,-0.252 1.06267,-0.0453 2.20766,0.33111 3.24596,0.88482 1.0383,0.55371 2.69154,1.01224 4.00666,1.0435 1.31513,0.0312 2.05881,-0.28938 3.46267,-0.99283 1.40386,-0.70345 3.06604,-1.30991 4.63138,-1.26857 1.46933,0.0373 2.94533,0.14933 4.41466,0.0227 0.476,-0.0413 1.34196,0.0964 2.09794,-0.0303 0.84933,-0.14268 1.63599,0.60822 1.82666,1.49086 z"
       style="fill:#000000;fill-opacity:1;fill-rule:nonzero;stroke:none;stroke-width:1.33333"
       id="path26604"
       sodipodi:nodetypes="ccccczccccccccccczzzccccc" />
  </g>
  <g
     inkscape:groupmode="layer"
     id="layer2"
     inkscape:label="Philtrum"
     sodipodi:insensitive="true">
    <path
       d="m 313.82253,180.15054 c -0.612,1.36933 -1.19867,2.764 -1.676,4.188 -0.37867,1.13067 -0.38534,2.212 0.22533,3.24933 0.22133,0.37467 0.488,0.75867 0.84,1.01067 0.14133,0.1 1.216,0.37467 1.21867,0.384 -0.236,-0.64533 -0.948,-0.87733 -1.20534,-1.50133 -0.91333,-2.21867 0.17467,-5.096 0.59734,-7.33067"
       style="fill:#000000;fill-opacity:1;fill-rule:nonzero;stroke:none;stroke-width:1.33333"
       id="path26572" />
  </g>
  <g
     inkscape:groupmode="layer"
     id="layer1"
     inkscape:label="Temp"
     style="display:none;opacity:0.373591"
     sodipodi:insensitive="true">
    <path
       id="path175972"
       style="fill:#cd976d;fill-opacity:1;fill-rule:nonzero;stroke:none;stroke-width:1.33333"
       d="m 311.33203,187.89844 c -0.17941,0.003 -0.33654,0.012 -0.4707,0.0273 -9.18666,1.04666 -17.26021,4.45636 -21.54688,6.56836 -2.07199,1.02133 -3.25976,1.74024 -3.25976,1.74024 0,0 0.981,0.0265 2.23828,0.0586 l -0.66797,0.082 c 0,0 2.85881,3.68957 6.05664,4.86523 3.19783,1.17567 4.62592,1.58102 8.56641,2.81446 3.94048,1.23344 11.32517,2.20441 14.53515,2.27929 3.20999,0.0749 3.91456,0.0508 5.65821,-0.5664 1.74364,-0.61721 3.45087,-1.86797 4.5961,-2.95107 1.14523,-1.0831 1.55873,-2.02423 1.89164,-3.27159 0.33435,-1.32077 0.5421,-2.05604 0.46733,-3.97851 -0.492,-2.408 -2.58658,-5.94827 -6.14257,-7.4336 -1.47067,-0.61334 -1.69448,0.37402 -5.23047,0.16602 -3.09516,-0.18317 -5.43553,-0.42484 -6.69141,-0.40039 z"
       sodipodi:nodetypes="scccccsssssccccss" />
    <path
       d="m 310.35666,205.87067 c -1.95467,-0.248 -5.424,-0.768 -9.45733,-2.44133 -3.91067,-1.62267 -7.95067,-1.73867 -7.95067,-1.73867 0,0 9.67067,9.32267 21.82933,9.71733 12.15734,0.396 12.02,-8.008 12.26934,-8.544 -3.48,2.02667 -12.54534,3.53467 -16.69067,3.00667"
       style="opacity:0.199997;fill:#000000;fill-opacity:1;fill-rule:nonzero;stroke:none;stroke-width:1.33333"
       id="path140356" />
    <path
       d="m 329.14706,195.40027 c -1.77333,0.48667 -5.976,-0.91733 -5.976,-0.91733 0,0 -4.11467,0.46533 -5.96533,0.864 -1.84934,0.39867 -6.26,-0.13333 -8.53734,-0.39867 -2.276,-0.26666 -5.52266,1.19734 -6.19466,1.46267 -0.67334,0.26667 -16.41867,-0.17733 -16.41867,-0.17733 0,0 1.188,-0.71734 3.26,-1.73867 4.28667,-2.112 12.36,-5.52267 21.54667,-6.56933 1.07333,-0.12267 3.62533,0.164 7.16266,0.37333 3.536,0.208 3.75867,-0.77867 5.22934,-0.16533 3.556,1.48533 5.65066,5.02533 6.14266,7.43333"
       style="opacity:0.199997;fill:#000000;fill-opacity:1;fill-rule:nonzero;stroke:none;stroke-width:1.33333"
       id="path140384" />
    <path
       d="m 300.89959,203.4296 c 1.412,0.844 3.54134,0.91867 5.064,1.176 1.54667,0.26267 3.12134,0.436 4.684,0.448 1.712,0.0133 3.41067,-0.364 5.12267,-0.336 2.43467,0.04 5.22267,0.644 7.52133,-0.632 1.256,-0.69733 2.80934,-0.784 4.048,-1.55466 -0.21066,0.13066 -0.72266,1.156 -0.992,1.44 -1.76266,1.868 -3.37066,3.18533 -5.71733,3.64666 -1.48133,0.292 -2.81467,-0.06 -4.3,0.13867 -1.64133,0.21867 -3.28267,0.70267 -4.94133,0.46267 -2.43334,-0.352 -4.744,-1.36134 -6.892,-2.78 -1.13734,-0.75067 -2.42534,-1.30934 -3.59734,-2.00934"
       style="fill:#000000;fill-opacity:1;fill-rule:nonzero;stroke:none;stroke-width:1.33333"
       id="path140394" />
    <path
       d="m 322.65413,194.08161 c -0.69067,-0.152 0.0627,-0.252 -0.77467,-0.20934 -0.772,0.0387 -1.656,0.716 -2.36533,0.812 -3.108,0.41734 -5.60267,-0.432 -8.688,-0.828 -1.62267,-0.20933 -5.78934,0.81867 -7.54,1.548 -1.07467,0.448 -2.40934,0.37067 -3.53067,0.432 -1.56533,0.0867 -3.13333,0.12934 -4.70133,0.16267 -1.464,0.032 -2.97467,0.18267 -4.43467,0.032 -0.88,-0.0893 -1.964,-0.3 -2.68533,-0.86133 -0.80267,-0.62267 -0.35867,-1.42 -0.39067,-2.288 0.003,0.0747 -1.096,1.35866 -1.23067,1.52933 -0.58533,0.73867 -1.17333,1.792 -1.25066,2.75467 -0.0613,0.77466 1.096,0.56133 1.528,0.44133 2.46,-0.68 5.09466,-0.98267 7.67466,-0.9 2.66,0.0867 5.24934,0.60533 7.91867,0.21333 0.57733,-0.0853 1.152,-0.204 1.71733,-0.368 2.29734,-0.66666 2.744,-0.88933 5.70134,-0.62266 1.44666,0.13066 4.08666,0.38533 5.44133,0.78666 1.20533,0.356 2.716,0.44667 3.91867,0.024 1.436,-0.50266 1.43066,-0.83866 2.95066,-1.14533 2.464,-0.49733 2.56534,0.144 4.56,0.12 0.53867,-0.007 1.16667,-0.25733 1.66534,-0.0507 0.23733,0.0987 1.27066,1.084 1.048,1.4 0.29066,-0.41066 0.20533,-0.83466 0.17866,-1.29733 -0.0133,-0.22533 -0.18933,-0.98667 -0.12133,-1.15333 -0.0307,0.0747 -0.0547,0.10133 -0.0653,0.19466 -0.35734,0.156 -0.47067,0.31334 -0.85334,0.368 -0.35066,0.0493 -0.73466,0.0347 -1.08,-0.032 -0.61066,-0.11733 -1.22,-0.244 -1.828,-0.36933 -0.87866,-0.18133 -1.82266,-0.48667 -2.76266,-0.69333"
       style="fill:#000000;fill-opacity:1;fill-rule:nonzero;stroke:none;stroke-width:1.33333"
       id="path140398" />
    <path
       d="m 313.49186,179.79227 c 0,0 -2.62933,4.99067 -1.41067,6.21734 1.22,1.22666 4.48667,1.02 4.48667,1.02 0,0 -2.616,-1.41067 -2.508,-3.06667 0.108,-1.656 -0.568,-4.17067 -0.568,-4.17067"
       style="fill:#000000;fill-opacity:1;fill-rule:nonzero;stroke:none;stroke-width:1.33333"
       id="path140402" />
  </g>
</svg>
