<?xml version="1.0" encoding="UTF-8" standalone="no"?>
<!-- Created with Inkscape (http://www.inkscape.org/) -->

<svg
   version="1.1"
   id="svg105212"
   width="400"
   height="400"
   viewBox="0 0 400 400"
   sodipodi:docname="Mouth3.svg"
   inkscape:version="1.3 (0e150ed, 2023-07-21)"
   xmlns:inkscape="http://www.inkscape.org/namespaces/inkscape"
   xmlns:sodipodi="http://sodipodi.sourceforge.net/DTD/sodipodi-0.dtd"
   xmlns="http://www.w3.org/2000/svg"
   xmlns:svg="http://www.w3.org/2000/svg">
  <defs
     id="defs105216" />
  <sodipodi:namedview
     id="namedview105214"
     pagecolor="#ffffff"
     bordercolor="#666666"
     borderopacity="1.0"
     inkscape:showpageshadow="2"
     inkscape:pageopacity="0.0"
     inkscape:pagecheckerboard="0"
     inkscape:deskcolor="#d1d1d1"
     showgrid="false"
     inkscape:zoom="2.625"
     inkscape:cx="199.80952"
     inkscape:cy="200"
     inkscape:window-width="2208"
     inkscape:window-height="1263"
     inkscape:window-x="2184"
     inkscape:window-y="25"
     inkscape:window-maximized="0"
     inkscape:current-layer="layer1">
    <inkscape:page
       x="0"
       y="0"
       id="page105218"
       width="400"
       height="400"
       margin="0"
       bleed="0" />
  </sodipodi:namedview>
  <g
     inkscape:groupmode="layer"
     id="layer1"
     inkscape:label="Tellarite Mouth"
     style="display:none">
    <path
       id="path163975-3"
       style="fill:#cd976d;fill-opacity:1;stroke:none;stroke-width:1px;stroke-linecap:butt;stroke-linejoin:miter;stroke-opacity:1"
       d="m 311.66602,189.47266 c -0.71926,-0.005 -1.26757,0.05 -1.66407,0.20703 -2.26399,0.896 -4.87153,1.34661 -7.24218,1.97461 -1.95067,0.51734 -3.90276,1.02601 -5.85743,1.52734 -1.86665,0.47733 -4.17402,0.61699 -5.80468,1.70898 -0.596,0.39867 -1.62177,0.90106 -2.00977,1.51172 0.44,-0.69466 2.90314,-0.90411 3.61914,-0.91211 0.2643,-0.003 0.53004,0.006 0.79492,0.008 l -3.09853,0.69846 c 0,0 4.3184,3.15639 6.70627,3.89094 2.48086,0.76315 5.10648,1.50619 7.98217,2.17887 1.95194,0.4566 4.34937,2.63993 6.37164,3.87165 0.6554,0.39919 2.75618,2.63189 3.02824,2.65866 0.32922,0.0324 1.03777,-0.76572 1.76558,-1.78779 1.53462,-1.62326 3.44975,-3.03672 5.36573,-4.19439 1.55718,-0.65814 1.76327,-0.97212 3.0642,-1.86671 2.18293,-1.5011 3.32863,-4.60664 3.32863,-4.60664 l -0.50026,-1.47587 -1.56054,-0.5039 c 1.62103,0.24601 3.17116,0.40104 3.88281,0.23633 0,0 -5.94439,-3.76899 -7.17773,-4.70899 -1.23333,-0.94134 -2.27243,0.10387 -5.8711,-0.10547 -2.25,-0.13083 -3.92428,-0.30256 -5.12304,-0.31054 z"
       sodipodi:nodetypes="sccccccccssssssscccccsss" />
    <path
       d="m 324.56215,201.09284 c -0.10246,0.51839 0.0346,5.95066 -5.89604,7.45683 -1.13078,0.28718 -2.85298,1.82822 -4.13152,1.78628 -1.08614,-0.0356 -3.42106,-1.79849 -5.02275,-2.28183 -7.58798,-2.28976 -13.05958,-8.25771 -13.05958,-8.25771 0,0 8.92334,2.26787 13.52613,4.74897 0.30032,0.0923 4.39317,3.75152 4.60754,3.8477 0.27869,0.12503 4.43683,-3.78481 4.99994,-4.18698 2.32998,-1.66406 4.4131,-2.9254 4.97628,-3.11326 z"
       style="display:inline;opacity:0.199997;fill:#000000;fill-opacity:1;fill-rule:nonzero;stroke:none;stroke-width:1.33333"
       id="path2-7"
       sodipodi:nodetypes="csssccssc" />
    <path
       d="m 329.83786,194.59774 c 0,0 -5.94533,-3.76933 -7.17867,-4.70933 -1.23333,-0.94134 -2.27066,0.104 -5.86933,-0.10534 -3.6,-0.20933 -5.73067,-0.52266 -6.788,-0.104 -2.264,0.896 -4.87067,1.348 -7.24133,1.976 -1.95067,0.51734 -3.90267,1.02534 -5.85734,1.52667 -1.86666,0.47733 -4.17466,0.616 -5.80533,1.708 -0.596,0.39867 -1.62267,0.90267 -2.01067,1.51333 0.44,-0.69466 2.904,-0.90533 3.62,-0.91333 1.352,-0.016 2.71334,0.0453 4.06667,0.0507 1.57867,0.005 3.968,0.43333 5.49867,-0.108 0.692,-0.244 6.104,-1.59867 7.93866,-1.36934 1.83467,0.22934 5.38934,0.688 6.87867,0.344 1.49067,-0.344 3.66933,-1.03066 3.66933,-1.03066 0,0 7.264,1.64133 9.07867,1.22133"
       style="opacity:0.199997;fill:#000000;fill-opacity:1;fill-rule:nonzero;stroke:none;stroke-width:1.33333"
       id="path108158-5" />
    <path
       d="m 309.83526,204.2638 c 0.6281,0.317 1.65651,0.96304 3.05571,2.07665 0.8942,0.71168 1.83594,1.75277 1.94,1.77026 0,0 0.77292,-0.83059 1.55809,-1.67108 0.78517,-0.84049 1.79752,-1.35911 3.71167,-2.93918 2.65725,-2.19347 4.53554,-2.5281 4.53554,-2.5281 0,0 -2.01657,2.37427 -5.49937,4.88782 -0.52149,0.37637 -1.32337,0.97144 -2.4342,2.08797 -0.96487,0.96981 -2.04544,1.55826 -2.04544,1.55826 0,0 -1.31388,-1.16174 -2.22687,-1.86587 -1.39944,-1.0793 -2.37153,-1.53352 -2.60874,-1.66879 -3.96544,-2.26126 -6.77112,-4.32307 -6.77112,-4.32307 0,0 2.77297,0.59042 6.78473,2.61513 z"
       style="fill:#000000;fill-opacity:1;fill-rule:nonzero;stroke:none;stroke-width:1.33333"
       id="path108168-5"
       sodipodi:nodetypes="ssczscsscsscs" />
    <path
       d="m 322.92973,193.37801 c -1.06534,-0.26934 -1.74267,-0.764 -2.904,-0.54 -1.16267,0.22533 -7.21334,0.58533 -8.52,0.40533 -1.30667,-0.18 -6.59734,0.63867 -8.39734,1.30667 -1.10533,0.41066 -2.48,0.376 -3.632,0.456 -2.1,0.14666 -4.20133,0.22933 -6.30133,0.31333 -1.85733,0.0733 -3.32933,-0.25067 -4.85867,0.884 -0.41466,0.308 -1.32533,1.07067 -1.29866,1.632 0.42,0.18533 0.904,0.0267 1.32666,-0.15333 0.68667,-0.292 1.22667,-0.85734 1.908,-1.12134 1.304,-0.50666 2.65734,-0.66266 4.02667,-0.632 2.57067,0.0587 5.128,0.32134 7.696,-0.0533 0.59467,-0.0867 1.18533,-0.20267 1.768,-0.35733 4.04933,-1.07334 7.23067,0.064 12.10533,0.064 3.18,0 4.23867,-1.772 6.78267,-1.18134 1.16,0.26934 2.376,0.312 3.56267,0.324 1.93466,0.0187 1.872,1.82667 0.98133,3.18534 0.24933,-0.28267 2.68,-3.48667 2.70133,-3.47867 -1.10666,-0.408 -2.676,-0.26933 -3.86,-0.47333 -1.028,-0.17867 -2.07466,-0.324 -3.08666,-0.58"
       style="fill:#000000;fill-opacity:1;fill-rule:nonzero;stroke:none;stroke-width:1.33333"
       id="path108172-8" />
    <path
       style="fill:#000000;fill-opacity:0.3;stroke:none;stroke-width:1px;stroke-linecap:butt;stroke-linejoin:miter;stroke-opacity:1"
       d="m 315.54414,206.12695 c 0,0 0.62485,-1.0075 0.83046,-1.84064 0.20561,-0.83314 0.50058,-2.51617 0.41523,-3.53989 -0.0854,-1.02372 -0.23123,-1.78047 -0.50107,-2.69085 -0.26983,-0.91039 -0.76291,-1.97193 -1.10031,-2.42121 -0.3374,-0.44928 -0.44943,-0.44943 -0.44943,-0.44943 l -4.28459,-0.47939 c 0,0 1.16585,0.92845 1.8277,1.58799 0.66185,0.65954 1.39684,1.56279 1.80665,2.44542 0.40981,0.88263 0.5221,1.33953 0.72355,2.24716 0.20145,0.90763 0.46137,2.20486 0.57352,3.0605 0.11215,0.85564 0.15829,2.08034 0.15829,2.08034 z"
       id="path83082"
       sodipodi:nodetypes="czzzzcczzzzc" />
  </g>
  <g
     inkscape:groupmode="layer"
     id="g6"
     inkscape:label="Pakled Mouth">
    <path
       id="path1"
       style="display:inline;fill:#cd976d;fill-opacity:1;stroke:none;stroke-width:1px;stroke-linecap:butt;stroke-linejoin:miter;stroke-opacity:1"
       d="m 311.66602,189.47266 c -0.71926,-0.005 -1.26757,0.05 -1.66407,0.20703 -2.26399,0.896 -4.87153,1.34661 -7.24218,1.97461 -1.95067,0.51734 -3.90276,1.02601 -5.85743,1.52734 -1.86665,0.47733 -4.17402,0.61699 -5.80468,1.70898 -0.596,0.39867 -1.62177,0.90106 -2.00977,1.51172 0.44,-0.69466 2.90314,-0.90411 3.61914,-0.91211 0.2643,-0.003 0.53004,0.006 0.79492,0.008 l -3.09853,0.69846 c 0,0 4.3184,3.15639 6.70627,3.89094 2.48086,0.76315 5.10648,1.50619 7.98217,2.17887 1.95194,0.4566 4.34937,2.63993 6.37164,3.87165 0.6554,0.39919 2.75618,2.63189 3.02824,2.65866 0.32922,0.0324 1.03777,-0.76572 1.76558,-1.78779 1.53462,-1.62326 3.44975,-3.03672 5.36573,-4.19439 1.55718,-0.65814 1.76327,-0.97212 3.0642,-1.86671 2.18293,-1.5011 3.32863,-4.60664 3.32863,-4.60664 l -0.50026,-1.47587 -1.56054,-0.5039 c 1.62103,0.24601 3.17116,0.40104 3.88281,0.23633 0,0 -5.94439,-3.76899 -7.17773,-4.70899 -1.23333,-0.94134 -2.27243,0.10387 -5.8711,-0.10547 -2.25,-0.13083 -3.92428,-0.30256 -5.12304,-0.31054 z"
       sodipodi:nodetypes="sccccccccssssssscccccsss"
       inkscape:label="path1" />
    <path
       d="m 324.56215,201.09284 c -0.10246,0.51839 0.0346,5.95066 -5.89604,7.45683 -1.13078,0.28718 -2.85298,1.82822 -4.13152,1.78628 -1.08614,-0.0356 -3.42106,-1.79849 -5.02275,-2.28183 -7.58798,-2.28976 -13.05958,-8.25771 -13.05958,-8.25771 0,0 8.92334,2.26787 13.52613,4.74897 0.30032,0.0923 4.39317,3.75152 4.60754,3.8477 0.27869,0.12503 4.43683,-3.78481 4.99994,-4.18698 2.32998,-1.66406 4.4131,-2.9254 4.97628,-3.11326 z"
       style="display:inline;opacity:0.199997;fill:#000000;fill-opacity:1;fill-rule:nonzero;stroke:none;stroke-width:1.33333"
       id="path2"
       sodipodi:nodetypes="csssccssc" />
    <path
       d="m 329.83786,194.59774 c 0,0 -5.94533,-3.76933 -7.17867,-4.70933 -1.23333,-0.94134 -2.27066,0.104 -5.86933,-0.10534 -3.6,-0.20933 -5.73067,-0.52266 -6.788,-0.104 -2.264,0.896 -4.87067,1.348 -7.24133,1.976 -1.95067,0.51734 -3.90267,1.02534 -5.85734,1.52667 -1.86666,0.47733 -4.17466,0.616 -5.80533,1.708 -0.596,0.39867 -1.62267,0.90267 -2.01067,1.51333 0.44,-0.69466 2.904,-0.90533 3.62,-0.91333 1.352,-0.016 2.71334,0.0453 4.06667,0.0507 1.57867,0.005 3.968,0.43333 5.49867,-0.108 0.692,-0.244 6.104,-1.59867 7.93866,-1.36934 1.83467,0.22934 5.38934,0.688 6.87867,0.344 1.49067,-0.344 3.66933,-1.03066 3.66933,-1.03066 0,0 7.264,1.64133 9.07867,1.22133"
       style="opacity:0.199997;fill:#000000;fill-opacity:1;fill-rule:nonzero;stroke:none;stroke-width:1.33333"
       id="path3" />
    <path
       d="m 309.83526,204.2638 c 0.6281,0.317 1.65651,0.96304 3.05571,2.07665 0.8942,0.71168 1.83594,1.75277 1.94,1.77026 0,0 0.77292,-0.83059 1.55809,-1.67108 0.78517,-0.84049 1.79752,-1.35911 3.71167,-2.93918 2.65725,-2.19347 4.53554,-2.5281 4.53554,-2.5281 0,0 -2.01657,2.37427 -5.49937,4.88782 -0.52149,0.37637 -1.32337,0.97144 -2.4342,2.08797 -0.96487,0.96981 -2.04544,1.55826 -2.04544,1.55826 0,0 -1.31388,-1.16174 -2.22687,-1.86587 -1.39944,-1.0793 -2.37153,-1.53352 -2.60874,-1.66879 -3.96544,-2.26126 -6.77112,-4.32307 -6.77112,-4.32307 0,0 2.77297,0.59042 6.78473,2.61513 z"
       style="fill:#000000;fill-opacity:1;fill-rule:nonzero;stroke:none;stroke-width:1.33333"
       id="path4"
       sodipodi:nodetypes="ssczscsscsscs" />
    <path
       d="m 322.92973,193.37801 c -1.06534,-0.26934 -1.74267,-0.764 -2.904,-0.54 -1.16267,0.22533 -7.21334,0.58533 -8.52,0.40533 -1.30667,-0.18 -6.59734,0.63867 -8.39734,1.30667 -1.10533,0.41066 -2.48,0.376 -3.632,0.456 -2.1,0.14666 -4.20133,0.22933 -6.30133,0.31333 -1.85733,0.0733 -3.32933,-0.25067 -4.85867,0.884 -0.41466,0.308 -1.32533,1.07067 -1.29866,1.632 0.42,0.18533 0.904,0.0267 1.32666,-0.15333 0.68667,-0.292 1.22667,-0.85734 1.908,-1.12134 1.304,-0.50666 2.65734,-0.66266 4.02667,-0.632 2.57067,0.0587 5.128,0.32134 7.696,-0.0533 0.59467,-0.0867 1.18533,-0.20267 1.768,-0.35733 4.04933,-1.07334 7.23067,0.064 12.10533,0.064 3.18,0 4.23867,-1.772 6.78267,-1.18134 1.16,0.26934 2.376,0.312 3.56267,0.324 1.93466,0.0187 1.872,1.82667 0.98133,3.18534 0.24933,-0.28267 2.68,-3.48667 2.70133,-3.47867 -1.10666,-0.408 -2.676,-0.26933 -3.86,-0.47333 -1.028,-0.17867 -2.07466,-0.324 -3.08666,-0.58"
       style="fill:#000000;fill-opacity:1;fill-rule:nonzero;stroke:none;stroke-width:1.33333"
       id="path5" />
  </g>
  <g
     id="g105220"
     inkscape:groupmode="layer"
     inkscape:label="Standard Mouth"
     style="display:none">
    <path
       id="path163975"
       style="fill:#cd976d;fill-opacity:1;stroke:none;stroke-width:1px;stroke-linecap:butt;stroke-linejoin:miter;stroke-opacity:1"
       d="m 311.66602,189.47266 c -0.71926,-0.005 -1.26757,0.05 -1.66407,0.20703 -2.26399,0.896 -4.87153,1.34661 -7.24218,1.97461 -1.95067,0.51734 -3.90276,1.02601 -5.85743,1.52734 -1.86665,0.47733 -4.17402,0.61699 -5.80468,1.70898 -0.596,0.39867 -1.62177,0.90106 -2.00977,1.51172 0.44,-0.69466 2.90314,-0.90411 3.61914,-0.91211 0.2643,-0.003 0.53004,0.006 0.79492,0.008 l -3.09853,0.69846 c 0,0 4.3184,3.15639 6.70627,3.89094 2.48086,0.76315 5.10648,1.50619 7.98217,2.17887 2.87569,0.67268 6.83791,2.39606 9.8183,2.32938 2.98038,-0.0667 5.15571,-1.12311 6.71289,-1.78125 1.55718,-0.65814 1.7804,-1.04064 3.08133,-1.93523 2.18293,-1.5011 3.3115,-4.53812 3.3115,-4.53812 l -0.50026,-1.47587 -1.56054,-0.5039 c 1.62103,0.24601 3.17116,0.40104 3.88281,0.23633 0,0 -5.94439,-3.76899 -7.17773,-4.70899 -1.23333,-0.94134 -2.27243,0.10387 -5.8711,-0.10547 -2.25,-0.13083 -3.92428,-0.30256 -5.12304,-0.31054 z"
       sodipodi:nodetypes="sccccccccssssscccccsss" />
    <path
       d="m 310.89893,203.72174 c 3.44,0.49466 10.964,-0.92 13.852,-2.824 2.888,-1.904 0.208,-0.504 0,0 -0.208,0.504 -0.0933,8.396 -10.18267,8.024 -10.09067,-0.372 -18.116,-9.12533 -18.116,-9.12533 0,0 11.00667,3.43066 14.44667,3.92533"
       style="opacity:0.199997;fill:#000000;fill-opacity:1;fill-rule:nonzero;stroke:none;stroke-width:1.33333"
       id="path108142" />
    <path
       d="m 329.83786,194.59774 c 0,0 -5.94533,-3.76933 -7.17867,-4.70933 -1.23333,-0.94134 -2.27066,0.104 -5.86933,-0.10534 -3.6,-0.20933 -5.73067,-0.52266 -6.788,-0.104 -2.264,0.896 -4.87067,1.348 -7.24133,1.976 -1.95067,0.51734 -3.90267,1.02534 -5.85734,1.52667 -1.86666,0.47733 -4.17466,0.616 -5.80533,1.708 -0.596,0.39867 -1.62267,0.90267 -2.01067,1.51333 0.44,-0.69466 2.904,-0.90533 3.62,-0.91333 1.352,-0.016 2.71334,0.0453 4.06667,0.0507 1.57867,0.005 3.968,0.43333 5.49867,-0.108 0.692,-0.244 6.104,-1.59867 7.93866,-1.36934 1.83467,0.22934 5.38934,0.688 6.87867,0.344 1.49067,-0.344 3.66933,-1.03066 3.66933,-1.03066 0,0 7.264,1.64133 9.07867,1.22133"
       style="opacity:0.199997;fill:#000000;fill-opacity:1;fill-rule:nonzero;stroke:none;stroke-width:1.33333"
       id="path108158" />
    <path
       d="m 303.05053,201.64867 c 0,0 5.72266,1.74533 12.29333,1.32 6.57067,-0.42533 9.32667,-1.91067 9.32667,-1.91067 0,0 -4.02667,4.46134 -9.32667,4.46134 -5.29867,0 -12.29333,-3.87067 -12.29333,-3.87067"
       style="fill:#000000;fill-opacity:1;fill-rule:nonzero;stroke:none;stroke-width:1.33333"
       id="path108168" />
    <path
       d="m 322.92973,193.37801 c -1.06534,-0.26934 -1.74267,-0.764 -2.904,-0.54 -1.16267,0.22533 -7.21334,0.58533 -8.52,0.40533 -1.30667,-0.18 -6.59734,0.63867 -8.39734,1.30667 -1.10533,0.41066 -2.48,0.376 -3.632,0.456 -2.1,0.14666 -4.20133,0.22933 -6.30133,0.31333 -1.85733,0.0733 -3.32933,-0.25067 -4.85867,0.884 -0.41466,0.308 -1.32533,1.07067 -1.29866,1.632 0.42,0.18533 0.904,0.0267 1.32666,-0.15333 0.68667,-0.292 1.22667,-0.85734 1.908,-1.12134 1.304,-0.50666 2.65734,-0.66266 4.02667,-0.632 2.57067,0.0587 5.128,0.32134 7.696,-0.0533 0.59467,-0.0867 1.18533,-0.20267 1.768,-0.35733 4.04933,-1.07334 7.23067,0.064 12.10533,0.064 3.18,0 4.23867,-1.772 6.78267,-1.18134 1.16,0.26934 2.376,0.312 3.56267,0.324 1.93466,0.0187 1.872,1.82667 0.98133,3.18534 0.24933,-0.28267 2.68,-3.48667 2.70133,-3.47867 -1.10666,-0.408 -2.676,-0.26933 -3.86,-0.47333 -1.028,-0.17867 -2.07466,-0.324 -3.08666,-0.58"
       style="fill:#000000;fill-opacity:1;fill-rule:nonzero;stroke:none;stroke-width:1.33333"
       id="path108172" />
  </g>
  <g
     inkscape:groupmode="layer"
     id="layer11"
     inkscape:label="Philtrum">
    <path
       d="m 313.49186,179.92254 c 0,0 -1.56,5.76533 -0.65733,7.26267 0.904,1.49733 2.54666,1.572 2.54666,1.572 0,0 -2.05333,-1.72134 -1.80666,-3.744 0.24533,-2.02134 -0.0827,-5.09067 -0.0827,-5.09067"
       style="fill:#000000;fill-opacity:1;fill-rule:nonzero;stroke:none;stroke-width:1.33333"
       id="path108176" />
  </g>
</svg>
