<?xml version="1.0" encoding="UTF-8" standalone="no"?>
<!-- Created with Inkscape (http://www.inkscape.org/) -->

<svg
   version="1.1"
   id="svg1129"
   width="400"
   height="400"
   viewBox="0 0 400 400"
   sodipodi:docname="Mouth1Lipstick.svg"
   inkscape:version="1.2.2 (b0a8486, 2022-12-01)"
   xmlns:inkscape="http://www.inkscape.org/namespaces/inkscape"
   xmlns:sodipodi="http://sodipodi.sourceforge.net/DTD/sodipodi-0.dtd"
   xmlns="http://www.w3.org/2000/svg"
   xmlns:svg="http://www.w3.org/2000/svg">
  <defs
     id="defs1133" />
  <sodipodi:namedview
     id="namedview1131"
     pagecolor="#ffffff"
     bordercolor="#666666"
     borderopacity="1.0"
     inkscape:showpageshadow="2"
     inkscape:pageopacity="0.0"
     inkscape:pagecheckerboard="0"
     inkscape:deskcolor="#d1d1d1"
     showgrid="false"
     inkscape:zoom="2.15"
     inkscape:cx="126.51163"
     inkscape:cy="200"
     inkscape:window-width="1920"
     inkscape:window-height="1080"
     inkscape:window-x="2501"
     inkscape:window-y="207"
     inkscape:window-maximized="0"
     inkscape:current-layer="layer5">
    <inkscape:page
       x="0"
       y="0"
       id="page1135"
       width="400"
       height="400" />
  </sodipodi:namedview>
  <g
     id="g1137"
     inkscape:groupmode="layer"
     inkscape:label="Original Mouth"
     style="display:none"
     sodipodi:insensitive="true">
    <path
       d="m 313.57333,180.06108 c 0,0 -0.35867,6.47647 1.04133,7.97496 1.4,1.49848 3.22933,0.88893 3.22933,0.88893 0,0 -2.476,-1.29371 -3.44266,-3.91446 -0.72267,-1.95723 -0.828,-4.94943 -0.828,-4.94943"
       style="fill:#000000;fill-opacity:1;fill-rule:nonzero;stroke:none;stroke-width:1.45481"
       id="path7557" />
    <path
       d="m 310.43893,204.91549 c -1.91467,-0.21427 -5.31334,-0.66037 -9.264,-2.09935 -3.832,-1.39684 -7.788,-1.49636 -7.788,-1.49636 0,0 9.47333,8.01921 21.38266,8.35876 11.90934,0.34072 11.77467,-6.88816 12.01867,-7.34948 -3.408,1.74341 -12.28933,3.03955 -16.34933,2.58643"
       style="opacity:0.199997;fill:#000000;fill-opacity:1;fill-rule:nonzero;stroke:none;stroke-width:1.24945"
       id="path7523" />
    <path
       d="m 290.40386,197.75511 c 0,0 -3.27467,0.0632 -1.796,0.82311 1.47867,0.76106 10.03467,5.63885 15,6.71604 4.964,1.07602 7.816,1.45655 11.30133,1.45655 3.48667,0 8.66134,-1.14041 9.50667,-2.21761 0.84533,-1.07601 3.16933,-2.97749 1.37333,-6.58841 -1.796,-3.61093 -13.83733,-2.78665 -13.83733,-2.78665 l -19.964,1.77385 z"
       style="fill:#c14242;fill-opacity:1;fill-rule:nonzero;stroke:none;stroke-width:1.24945"
       id="path7533" />
    <path
       d="m 314.27586,206.05403 c 10.352,0 12.14667,-3.67415 12.14667,-5.57445 0,0 0.95066,6.96777 -12.04134,6.96777 -12.992,0 -25.13866,-8.36227 -25.13866,-8.36227 0,0 14.68133,6.96895 25.03333,6.96895"
       style="fill:#000000;fill-opacity:1;fill-rule:nonzero;stroke:none;stroke-width:1.24945"
       id="path7537" />
    <path
       d="m 301.65959,199.32628 c 1.10134,0.0246 1.23334,-1.00811 2.25067,0.0187 0.50133,0.50698 0.628,0.69314 1.35467,0.62875 0.44266,-0.0386 1.21333,-0.4578 1.61333,-0.38287 0.464,0.0867 0.68133,0.69666 1.12933,0.86526 0.552,0.20841 1.15467,-0.13699 1.672,-0.0538 0.46267,0.0738 0.60267,0.47068 1.05334,0.51868 0.44533,0.0468 0.904,-0.25056 1.112,-0.57371 0.10266,1.33594 2.30133,0.77042 2.94533,0.17679 0.39733,0.31497 0.83333,0.7435 1.30933,0.98587 0.28,-0.29974 0.31334,-0.7072 0.46667,-1.04792 0.46933,0.25642 1.21867,0.58894 1.212,-0.26578 0.95067,0.54444 1.29867,-0.74701 1.432,-1.31371 0.54667,0.19905 1.55867,0.81141 1.51467,-0.281 0.184,0.16978 0.54533,0.23652 0.80133,0.25173 0.048,-0.0597 0.032,-0.0843 0.0853,-0.13699 0.62,0.4742 1.288,1.11583 1.91867,1.51392 0.16267,-0.40629 -0.31733,-1.21184 0.46933,-0.9039 0.40534,0.15924 0.67334,0.83365 0.636,1.16968 -0.0973,0.90742 -0.824,0.79268 -1.58,0.82194 -0.78933,0.0305 -1.33066,0.37117 -2.03866,0.67676 -0.612,0.26228 -1.07734,0.60768 -1.81867,0.44024 -0.27067,-0.0608 -0.36933,-0.33018 -0.68133,-0.32315 -0.25334,0.004 -0.60534,0.30677 -0.82534,0.41448 -0.36133,0.17446 -0.412,0.25174 -0.768,0.25057 -0.52,-0.003 -0.89066,-0.29506 -1.436,-0.18383 -0.68933,0.1405 -0.93333,0.66388 -1.716,0.64983 -0.73466,-0.0129 -1.41466,-0.29623 -2.21333,-0.33135 -0.61733,-0.0281 -1.59067,0.14752 -1.82133,-0.51986 -1.22534,-0.0738 -2.33467,-0.36414 -3.388,-0.82078 -1.568,-0.68026 -3.31334,-0.91209 -5.01467,-1.19661 -1.49467,-0.24939 -2.86,-0.78331 -4.43867,-0.91562 -1.13466,-0.0948 -1.59333,-0.11473 -2.33466,-0.74232 0.51333,-0.51049 1.972,-0.19202 2.71866,-0.2529 0.69467,-0.0573 1.38,-0.37468 2.01867,-0.58777 0.428,0.57255 1.53467,1.43195 2.36133,1.45069"
       style="opacity:0.5;fill:#ffffff;fill-opacity:1;fill-rule:nonzero;stroke:none;stroke-width:1.24945"
       id="path7547" />
    <path
       d="m 286.60133,198.86695 c -0.61334,-0.13699 0.10533,-1.66496 5.49333,-3.25499 5.38667,-1.59002 14.68133,-6.20789 16.688,-6.43504 2.008,-0.22714 4.86,-0.53039 6.76133,0.60534 1.90134,1.13573 2.42934,0.68144 4.01334,-0.15104 1.584,-0.83248 4.81733,-0.41448 6.40133,1.4788 0.32,0.38052 0.748,1.07836 1.11067,1.89679 1.01466,2.28434 0.96133,5.85312 -2.79467,5.82034 -0.792,-0.007 -1.03067,-0.55265 -1.636,-0.73413 -1.272,-0.3817 -2.28133,-0.91796 -3.68533,-1.0889 -1.40934,-0.17095 -2.868,-0.10538 -4.29734,-0.14519 -2.548,-0.0714 -3.732,-0.58191 -6.28933,-0.51284 -2.73333,0.0749 -6.56533,0.24939 -9.068,0.95777 -2.26933,0.64163 -5.21067,1.6392 -7.73333,1.56309 -1.864,-0.0562 -3.14134,0.40863 -4.964,0"
       style="fill:#c14242;fill-opacity:1;fill-rule:nonzero;stroke:none;stroke-width:1.24945"
       id="path7561" />
    <path
       d="m 286.60133,198.86695 c -0.61334,-0.13699 0.10533,-1.66496 5.49333,-3.25499 5.38667,-1.59002 14.68133,-6.20789 16.688,-6.43504 2.008,-0.22714 4.86,-0.53039 6.76133,0.60534 1.90134,1.13573 2.42934,0.68144 4.01334,-0.15104 1.584,-0.83248 4.81733,-0.41448 6.40133,1.4788 0.32,0.38052 0.748,1.07836 1.11067,1.89679 1.01466,2.28434 0.96133,5.85312 -2.79467,5.82034 -0.792,-0.007 -1.03067,-0.55265 -1.636,-0.73413 -1.272,-0.3817 -2.28133,-0.91796 -3.68533,-1.0889 -1.40934,-0.17095 -2.868,-0.10538 -4.29734,-0.14519 -2.548,-0.0714 -3.732,-0.58191 -6.28933,-0.51284 -2.73333,0.0749 -6.56533,0.24939 -9.068,0.95777 -2.26933,0.64163 -5.21067,1.6392 -7.73333,1.56309 -1.864,-0.0562 -3.14134,0.40863 -4.964,0"
       style="opacity:0.199997;fill:#000000;fill-opacity:1;fill-rule:nonzero;stroke:none;stroke-width:1.24945"
       id="path7571" />
    <path
       d="m 324.82626,199.1647 c 0.88133,0.0386 1.69867,-0.16978 2.224,-0.79384 1.28,-1.52212 0.68,-3.75612 0.112,-5.36253 0.39733,1.12285 0.0173,3.14843 -0.63067,4.17996 -1.39333,2.21761 -3.56266,0.56085 -5.36,-0.4098 -1.41866,-0.76574 -3.09733,-0.34657 -4.71066,-0.22129 -1.74267,0.13582 -3.64,-0.0901 -5.25067,-0.5503 -1.448,-0.41332 -3.01467,-0.60768 -4.548,-0.10655 -2.12933,0.69549 -9.28667,1.47645 -11.4,2.27146 -2.112,0.79385 -8.66133,0.79385 -8.66133,0.79385 0,0 6.444,0.87463 8.87333,-0.15807 2.42933,-1.0327 9.06133,-1.42376 11.296,-1.88625 1.78667,-0.36882 3.71067,0.0105 5.436,0.28803 0.992,0.15806 2.064,0.44141 3.08667,0.47068 1.08,0.0293 2.21333,-0.22012 3.3,-0.2529 1.38666,-0.0433 1.87466,-0.0246 2.79466,0.5421 0.852,0.52689 2.19734,1.14159 3.43867,1.19545"
       style="fill:#000000;fill-opacity:1;fill-rule:nonzero;stroke:none;stroke-width:1.24945"
       id="path7581" />
  </g>
  <g
     inkscape:groupmode="layer"
     id="layer5"
     inkscape:label="Revised Mouth"
     style="opacity:1">
    <path
       id="path172160"
       style="fill:#c14242;fill-opacity:1;fill-rule:nonzero;stroke:none;stroke-width:1.23107"
       d="m 309.60671,188.82551 c -0.89228,0.384 -16.18238,6.5228 -19.29116,7.13347 0,0 1.6091,0.077 3.5382,0.16211 l -2.75896,0.69727 c 0,0 2.07698,2.70583 4.22253,3.86719 2.31594,1.2536 5.02741,2.66294 7.82729,3.51809 2.68499,0.82005 5.70957,1.41887 8.35015,1.65039 2.64057,0.23152 5.8726,0.50167 8.06376,-0.15039 2.19117,-0.65206 3.29824,-1.53402 4.41568,-2.43945 1.11744,-0.90543 2.22584,-2.7666 2.73236,-3.81888 0.50652,-1.05228 0.35132,-3.37695 0.35132,-3.37695 l -0.68027,-0.54171 c 0.30968,0.0209 0.57579,0.10271 0.8551,0.0241 0,0 -4.27492,-5.71769 -5.62233,-6.2642 -0.56204,-0.22797 -1.08888,-0.41728 -2.22444,-0.31732 -1.13554,0.1 -2.09416,1.12823 -3.27312,1.15044 -1.17896,0.0222 -2.97312,-1.44597 -3.81217,-1.45231 -0.83906,-0.006 -2.35976,0.0146 -2.69394,0.15814 z"
       sodipodi:nodetypes="ccccsssssscccszzccc" />
    <path
       d="m 324.21258,202.97933 c 0.29024,-0.25341 0.23846,-0.52146 0.0248,0.0145 -0.21256,0.53733 -0.0335,7.764 -10.39763,7.368 -10.36524,-0.39467 -18.60946,-9.71733 -18.60946,-9.71733 0,0 2.80406,1.57006 6.78589,3.18932 2.81067,1.14299 6.09197,1.63081 7.71984,1.80463 1.74306,0.26044 4.59161,0.45924 7.36192,-0.003 2.84624,-0.47497 5.61126,-1.62839 7.11466,-2.6561 z"
       style="opacity:0.199997;fill:#000000;fill-opacity:1;fill-rule:nonzero;stroke:none;stroke-width:1.23107"
       id="path135096"
       sodipodi:nodetypes="ccccscscc" />
    <path
       id="path135112"
       style="opacity:0.199997;fill:#000000;fill-opacity:1;fill-rule:nonzero;stroke:none;stroke-width:1.23107"
       d="m 312.30068,188.66797 c -0.83905,-0.006 -2.35985,0.0147 -2.69403,0.1582 -0.89228,0.384 -16.18232,6.52214 -19.2911,7.13281 0,0 1.60911,0.077 3.5382,0.16211 l -0.2331,0.0586 c 2.56625,0.17109 5.59833,0.36674 6.59687,0.38672 1.56485,0.0313 2.7579,-0.169 2.93378,-0.24024 0.6013,-0.244 5.31273,-1.58775 6.91657,-1.34375 1.60495,0.24534 4.72647,1.19675 6.02909,0.83008 1.30375,-0.36667 3.19686,-0.96289 3.19686,-0.96289 0,0 4.80049,0.79484 7.148,0.73047 l -0.065,-0.0527 c 0.12084,0.008 0.23204,0.0255 0.343,0.0391 0.18261,-0.012 0.34219,-0.0319 0.47953,-0.0586 -0.1002,-0.13383 -4.25826,-5.68074 -5.58953,-6.2207 -0.56204,-0.22797 -1.08893,-0.41832 -2.22449,-0.31836 -1.13554,0.1 -2.09283,1.12818 -3.27179,1.15039 -1.17896,0.0222 -2.97387,-1.44483 -3.81293,-1.45117 z" />
    <path
       d="m 305.99341,204.86828 c 1.3103,0.30302 2.44001,0.62815 3.86387,0.74389 1.42385,0.11574 2.89443,0.43077 4.73857,0.30826 1.84413,-0.12251 4.92215,-0.65467 6.5017,-1.41798 1.57956,-0.76331 2.10302,-0.91437 3.15899,-1.54504 -0.1796,0.108 -0.0862,0.61844 -0.95234,1.49978 -0.86614,0.88133 -2.57644,2.01956 -4.17308,2.49201 -1.59663,0.47244 -2.76307,0.59766 -4.09581,0.76831 -1.33273,0.17065 -2.82401,0.12524 -4.23801,-0.0708 -2.07442,-0.288 -4.22916,-0.99713 -5.73523,-1.86489 -1.50607,-0.86777 -2.1954,-1.42497 -3.20691,-2.05644 1.42676,0.58895 2.82795,0.83988 4.13825,1.1429 z"
       style="fill:#000000;fill-opacity:1;fill-rule:nonzero;stroke:none;stroke-width:1.23107"
       id="path135122"
       sodipodi:nodetypes="zzzzczzzczcz" />
    <path
       d="m 319.58246,194.65384 c -0.54332,0.0347 -1.33861,0.49036 -1.83873,0.57836 -2.18922,0.38267 -4.19242,0.45701 -6.64494,-0.22533 -2.45253,-0.68234 -5.5784,0.0234 -7.14473,0.69409 -0.96162,0.41067 -2.10517,0.66959 -3.10657,0.72559 -1.40151,0.08 -2.06889,0.0507 -3.09427,-0.0684 -1.02539,-0.11917 -1.87362,-0.24343 -3.18079,-0.38214 -0.78657,-0.0827 -1.75615,-0.276 -2.40063,-0.79067 -0.71837,-0.572 -0.32168,-1.30267 -0.35009,-2.10133 0.003,0.0693 -0.98095,1.24933 -1.10143,1.40533 -0.524,0.67733 -1.04914,1.644 -1.11848,2.52933 -0.0546,0.71067 0.9798,0.51467 1.36741,0.40534 2.19945,-0.62534 2.95177,-0.87493 5.25921,-0.7976 2.38017,0.0787 3.99329,0.73534 6.38142,0.37534 0.51604,-0.0773 1.31192,-0.39641 1.81774,-0.54708 2.05395,-0.612 4.13632,-0.42933 6.22096,-0.18533 1.01959,0.12 2.04599,0.14267 2.99966,0.51067 0.84909,0.32666 1.91414,0.40933 2.76209,0.0227 1.01163,-0.46266 1.91983,-0.94533 2.9917,-1.22666 1.73682,-0.45734 3.45827,0.55147 5.24169,0.53013 0.48195,-0.007 1.04471,-0.42502 1.46463,-0.46617 0.41992,-0.0412 1.13666,0.99466 0.9366,1.28533 0.26031,-0.37733 0.18414,-0.76667 0.16027,-1.192 -0.0113,-0.20667 -0.16935,-0.90533 -0.10797,-1.05733 -0.0273,0.068 -0.0489,0.092 -0.0591,0.17866 -0.3194,0.14267 -0.42044,0.16866 -0.76384,0.33734 -0.34339,0.16868 -0.48237,0.32524 -0.94062,0.39017 -0.45824,0.0649 -1.09006,-0.224 -1.63452,-0.34 -0.78657,-0.16533 -1.40009,-0.50525 -2.24124,-0.69592 -0.61836,-0.14 -1.28552,0.069 -1.87545,0.10762 z"
       style="fill:#000000;fill-opacity:1;fill-rule:nonzero;stroke:none;stroke-width:1.23107"
       id="path135126"
       sodipodi:nodetypes="cczcczcccccccccccccczcccczzccc" />
    <path
       d="m 304.29368,199.09644 c 1.02028,-0.0229 1.10791,-1.05995 2.08399,-0.0774 0.48104,0.4852 0.60451,0.66582 1.27502,0.57047 0.40847,-0.0575 1.1078,-0.50922 1.48058,-0.45141 0.43242,0.0668 0.65402,0.66705 1.07436,0.81641 0.51793,0.18469 1.06424,-0.18615 1.5459,-0.1251 0.43075,0.054 0.57363,0.4446 0.9924,0.47333 0.4138,0.0278 0.82842,-0.28894 1.01014,-0.62071 0.13975,1.33053 2.15605,0.67163 2.7323,0.0509 0.37833,0.29778 0.79628,0.70737 1.24501,0.92925 0.24915,-0.31146 0.26638,-0.72003 0.39689,-1.06703 0.44304,0.2362 1.14781,0.53649 1.11302,-0.31728 0.89822,0.50345 1.17713,-0.80185 1.28158,-1.3738 0.5127,0.17557 1.46997,0.74427 1.39266,-0.34542 0.17602,0.1618 0.51272,0.21307 0.75019,0.21735 0.0425,-0.0617 0.0269,-0.0856 0.0744,-0.14052 0.5898,0.44738 1.22961,1.06 1.82672,1.43089 0.13698,-0.41292 -0.3343,-1.19738 0.40419,-0.92323 0.38054,0.14182 0.65119,0.80427 0.62788,1.14163 -0.0597,0.91087 -0.73621,0.82723 -1.43504,0.88872 -0.72963,0.0641 -1.21932,0.42767 -1.86446,0.76323 -0.55773,0.28819 -0.97691,0.65318 -1.66875,0.5175 -0.25258,-0.0492 -0.35292,-0.31417 -0.6415,-0.29383 -0.23437,0.0148 -0.55008,0.33236 -0.75012,0.44937 -0.32863,0.18975 -0.37294,0.26912 -0.70252,0.28315 -0.48144,0.0191 -0.83433,-0.25683 -1.3354,-0.12241 -0.63339,0.16979 -0.84173,0.70318 -1.56669,0.72254 -0.68049,0.0183 -1.31942,-0.23564 -2.05989,-0.23666 -0.57238,-0.002 -1.4675,0.21528 -1.70335,-0.44174 -1.13672,-0.0214 -2.17331,-0.26425 -3.16364,-0.67559 -1.4742,-0.61283 -3.09756,-0.77002 -4.68194,-0.98173 -1.39192,-0.18542 -2.67362,-0.66067 -4.13937,-0.72552 -1.05349,-0.0464 -1.47874,-0.0467 -2.18597,-0.64214 0.45809,-0.53199 1.81898,-0.27601 2.5081,-0.3687 0.64112,-0.0869 1.26489,-0.43328 1.84895,-0.67345 0.41534,0.55385 1.46852,1.36537 2.23435,1.34882"
       style="opacity:0.5;fill:#ffffff;fill-opacity:1;fill-rule:nonzero;stroke:none;stroke-width:1.20258"
       id="path7547-3" />
  </g>
  <g
     inkscape:groupmode="layer"
     id="layer6"
     inkscape:label="Philtrum">
    <path
       d="m 313.49186,179.92254 c 0,0 -1.336,5.27867 -0.116,6.64933 1.21867,1.37067 3.192,1.44 3.192,1.44 0,0 -2.616,-1.57733 -2.508,-3.428 0.108,-1.85066 -0.568,-4.66133 -0.568,-4.66133"
       style="opacity:1;fill:#000000;fill-opacity:1;fill-rule:nonzero;stroke:none;stroke-width:1.33333"
       id="path135130" />
  </g>
</svg>
