<?xml version="1.0" encoding="UTF-8" standalone="no"?>
<!-- Created with Inkscape (http://www.inkscape.org/) -->

<svg
   version="1.1"
   id="svg1841"
   width="400"
   height="400"
   viewBox="0 0 400 400"
   sodipodi:docname="Mouth7.svg"
   inkscape:version="1.3 (0e150ed, 2023-07-21)"
   xmlns:inkscape="http://www.inkscape.org/namespaces/inkscape"
   xmlns:sodipodi="http://sodipodi.sourceforge.net/DTD/sodipodi-0.dtd"
   xmlns="http://www.w3.org/2000/svg"
   xmlns:svg="http://www.w3.org/2000/svg">
  <defs
     id="defs1845" />
  <sodipodi:namedview
     id="namedview1843"
     pagecolor="#ffffff"
     bordercolor="#666666"
     borderopacity="1.0"
     inkscape:showpageshadow="2"
     inkscape:pageopacity="0.0"
     inkscape:pagecheckerboard="0"
     inkscape:deskcolor="#d1d1d1"
     showgrid="false"
     inkscape:zoom="5.9"
     inkscape:cx="316.01695"
     inkscape:cy="210.42373"
     inkscape:window-width="1920"
     inkscape:window-height="1080"
     inkscape:window-x="2501"
     inkscape:window-y="245"
     inkscape:window-maximized="0"
     inkscape:current-layer="svg1841">
    <inkscape:page
       x="0"
       y="0"
       id="page1847"
       width="400"
       height="400"
       margin="0"
       bleed="0" />
  </sodipodi:namedview>
  <g
     id="g1849"
     inkscape:groupmode="layer"
     inkscape:label="Mouth 13"
     style="display:inline">
    <path
       d="m 309.91213,206.4928 c -2.436,-0.81866 -4.832,-1.796 -7.17467,-2.928 -2.63733,-1.27333 -5.65733,-3.204 -8.58133,-1.884 -0.604,0.27334 -2.128,1.296 -1.00534,2.07334 0.75467,0.524 1.66534,0.13733 2.44134,-0.10267 0.91066,-0.28 1.42666,-0.38667 2.34933,-0.016 1.65733,0.664 3.052,1.98933 4.44533,3.188 4.496,3.86667 9.816,7.44133 15.388,8.51467 1.608,0.31066 3.42267,0.33333 4.672,-0.88934 1.00134,-0.98266 1.41334,-2.55866 1.616,-4.06933 0.16134,-1.20267 0.22,-2.432 0.49467,-3.612 0.264,-1.13867 0.69467,-2.192 0.88933,-3.35867 0.0267,-0.15333 0.0467,-1.03333 0.172,-1.11866 -0.33866,0.232 -0.88666,0.384 -1.15066,0.712 -0.29334,0.36533 -0.46267,1.19866 -0.66667,1.656 -0.53333,1.19466 -1.14,2.34133 -1.70933,3.51066 -0.68667,1.408 -1.42534,2.56267 -2.988,1.98267 -0.568,-0.21067 -1.07734,-0.592 -1.604,-0.91733 -1.71734,-1.05734 -3.64534,-1.532 -5.52667,-2.08934 -0.68933,-0.20533 -1.37733,-0.42266 -2.06133,-0.652"
       style="opacity:0.199997;fill:#000000;fill-opacity:1;fill-rule:nonzero;stroke:none;stroke-width:1.33333"
       id="path1987" />
    <path
       d="m 304.32413,194.54187 c -0.39067,0.11467 -0.78134,0.248 -1.176,0.396 -0.64934,0.244 -1.88,0.31067 -2.28534,0.83734 1.93734,-0.0787 4.176,0.35333 6.092,0.628 2.188,0.31333 4.33867,0.82533 6.41067,1.52533 2.37467,0.80267 5.56533,1.572 6.94933,-1.056 0.23867,-0.45333 0.44667,-0.908 0.8,-1.30267 0.36,-0.40133 0.84267,-0.67066 0.84267,-1.244 10e-4,-0.60666 -0.564,-0.928 -1.20267,-0.724 -0.46133,0.148 -0.89333,0.56134 -1.364,0.74134 -1.04,0.39466 -2.13466,0.62133 -3.22933,0.68666 -2.536,0.14934 -4.73867,-0.448 -7.23867,-0.844 -1.60933,-0.256 -3.10133,-0.084 -4.59866,0.356"
       style="opacity:0.199997;fill:#000000;fill-opacity:1;fill-rule:nonzero;stroke:none;stroke-width:1.33333"
       id="path2015" />
    <path
       d="m 322.01199,193.16827 c 0,0 -3.82933,0.50667 -5.55066,0.94 -1.72134,0.43467 -5.82534,-0.144 -7.944,-0.43333 -2.11867,-0.29067 -5.14,1.30267 -5.76534,1.592 -0.50133,0.232 -1.152,0.17333 -1.66933,0.24667 -1.248,0.176 -2.5,0.324 -3.75067,0.46933 -1.43466,0.16667 -2.97066,0.164 -4.37733,0.48667 -0.82133,0.188 -1.56133,0.996 -1.81333,1.90266 -0.26534,0.95334 -0.14534,2.092 -0.87334,2.8 -2.092,2.03733 -2.904,-3.044 -2.01466,-4.532 0.54133,-0.908 1.38133,-1.5 2.204,-2.05466 3.37466,-2.276 7.47866,-4.88667 11.19333,-6.51067 0.756,-0.33067 1.40667,-0.82267 2.13333,-1.216 1.06934,-0.57867 2.28667,-0.71067 3.44534,-0.828 1.32266,-0.13333 4.468,0.17867 8.82533,0.40667 4.35867,0.22666 4.632,-0.848 6.444,-0.18 2.37867,0.87733 3.79333,2.696 5.18933,4.36266 1.116,1.33334 1.99467,2.98534 2.18667,4.78267 0.21467,2.01467 -0.90533,2.61467 -2.37067,3.77733 0.10934,-1.13333 -0.21333,-3.42933 -1.024,-4.232 -0.41866,-0.41466 -1.60266,-0.58 -2.168,-0.832 -0.71333,-0.32 -1.656,-1.03333 -2.3,-0.948"
       style="opacity:0.199997;fill:#000000;fill-opacity:1;fill-rule:nonzero;stroke:none;stroke-width:1.33333"
       id="path2031" />
    <path
       d="m 301.28733,202.906 c 1.1,0.768 2.42266,0.84267 3.63333,1.224 1.60933,0.508 3.16533,1.42934 4.80267,1.80134 1.12933,0.25733 2.26,0.87333 3.42133,0.88533 0.99733,0.009 1.88933,0.1 2.88133,0.42133 1.288,0.41867 2.73734,1.54267 4.064,1.564 1.51867,0.0253 1.968,-1.69733 2.388,-3.02933 0.26667,-0.84667 1.02934,-1.552 1.544,-2.19733 0.64134,-0.80267 1.088,-1.08 1.868,-1.648 -0.196,0.14266 -0.672,1.25866 -0.92133,1.568 -1.33467,1.65333 -1.56667,3.564 -2.304,5.62266 -0.50133,1.40134 -2.192,2.44 -3.48,2.12267 -1.028,-0.25333 -1.92,-0.936 -2.75333,-1.63733 -1.67734,-1.412 -3.98134,-1.37467 -5.956,-1.816 -1.036,-0.23067 -2.14667,-0.492 -3.10134,-1.012 -0.97466,-0.53067 -1.78666,-1.268 -2.776,-1.74534 -1.11866,-0.53866 -2.26933,-1.396 -3.31066,-2.124"
       style="fill:#000000;fill-opacity:1;fill-rule:nonzero;stroke:none;stroke-width:1.33333"
       id="path2041" />
    <path
       d="m 321.43279,192.92307 c -0.96,-0.196 -1.928,-0.34933 -2.89866,-0.46666 -4.88134,-0.588 -10.53334,-0.472 -15.02667,1.71466 -1,0.488 -2.21333,0.524 -3.236,0.728 -1.432,0.28667 -2.87067,0.52667 -4.312,0.756 -0.89733,0.14267 -1.78533,0.34534 -2.68533,0.46534 -0.74667,0.10133 -1.48934,-0.0333 -2.14267,0.36933 -1.052,0.64667 -2.26133,2.164 -2.21067,3.66 0.02,0.61066 0.904,1.95333 1.55334,1.76 0.456,-0.13467 0.65333,-1.78667 0.79066,-2.27867 0.24267,-0.872 0.468,-1.948 1.16,-2.48 0.75334,-0.58 2.01467,-0.54933 2.912,-0.63466 2.46667,-0.236 4.66134,-0.26934 7.144,-0.696 0.53867,-0.092 1.07334,-0.22134 1.6,-0.4 2.13734,-0.72534 2.552,-0.968 5.30534,-0.67734 1.34533,0.14134 3.80266,0.42 5.06266,0.856 1.12134,0.388 2.52667,0.48534 3.64667,0.0267 1.336,-0.548 1.33067,-0.91333 2.74533,-1.24667 2.29334,-0.54266 1.904,0.0813 4.108,0.49734 0.992,0.188 1.89467,1.44 2.004,2.516 0.0307,0.30933 -0.30666,2.97466 -0.39733,3.04799 0.71467,-0.57733 1.89333,-1.64266 2.136,-2.56266 0.236,-0.89733 -0.892,-2.19733 -1.43467,-2.77067 -0.85466,-0.904 -2.44533,-1.32666 -3.62,-1.65466 -0.72666,-0.20267 -1.46266,-0.37867 -2.204,-0.52934"
       style="fill:#000000;fill-opacity:1;fill-rule:nonzero;stroke:none;stroke-width:1.33333"
       id="path2045" />
    <path
       d="m 313.49653,179.81614 c 0,0 -2.60667,4.09733 -1.39867,5.10533 1.20933,1.00667 4.448,0.83734 4.448,0.83734 0,0 -2.59333,-1.15734 -2.48667,-2.51734 0.108,-1.36 -0.56266,-3.42533 -0.56266,-3.42533"
       style="fill:#000000;fill-opacity:1;fill-rule:nonzero;stroke:none;stroke-width:1.33333"
       id="path2049" />
    <path
       d="m 285.29293,178.41147 c -0.37467,0.67734 -0.308,2.04267 -0.47867,2.844 -0.23467,1.09867 -0.51467,2.19067 -0.79467,3.28 -0.54666,2.12 -1.10933,4.244 -1.36666,6.40934 -0.25467,2.16133 -0.188,4.30133 0.46,6.40266 0.67733,2.19867 1.73066,4.28533 2.57066,6.436 -0.0547,-0.14 -1.06933,-0.50667 -1.25733,-0.62533 -0.43733,-0.276 -0.836,-0.59867 -1.20667,-0.94134 -0.696,-0.64666 -1.29333,-1.38666 -1.84133,-2.13733 -1.24267,-1.69866 -2.212,-3.61733 -2.37467,-5.664 -0.21733,-2.72533 0.92,-5.41466 2.02534,-7.904 1.23333,-2.77733 2.784,-5.42533 4.264,-8.1"
       style="opacity:0.199997;fill:#000000;fill-opacity:1;fill-rule:nonzero;stroke:none;stroke-width:1.33333"
       id="path2059" />
    <path
       d="m 334.05959,191.31201 c 0.096,-1.44667 0.0373,-2.89734 0.11067,-4.34134 0.0667,-1.30666 -0.23467,-2.608 -0.34534,-3.92933 1.55734,1.12 1.65734,4.20533 1.74534,5.88133 0.132,2.5 0.0813,5.10667 -0.764,7.496 -0.39467,1.11734 -0.96534,2.32534 -1.85733,3.13734 -0.91734,0.83599 -2.21734,1.01199 -3.148,1.80533 3.088,-2.63333 4.00933,-6.28933 4.25866,-10.04933"
       style="opacity:0.199997;fill:#000000;fill-opacity:1;fill-rule:nonzero;stroke:none;stroke-width:1.33333"
       id="path2075" />
  </g>
</svg>
