<?xml version="1.0" encoding="UTF-8" standalone="no"?>
<!-- Created with Inkscape (http://www.inkscape.org/) -->

<svg
   version="1.1"
   id="svg1841"
   width="400"
   height="400"
   viewBox="0 0 400 400"
   sodipodi:docname="Mouth8.svg"
   inkscape:version="1.3 (0e150ed, 2023-07-21)"
   xmlns:inkscape="http://www.inkscape.org/namespaces/inkscape"
   xmlns:sodipodi="http://sodipodi.sourceforge.net/DTD/sodipodi-0.dtd"
   xmlns="http://www.w3.org/2000/svg"
   xmlns:svg="http://www.w3.org/2000/svg">
  <defs
     id="defs1845" />
  <sodipodi:namedview
     id="namedview1843"
     pagecolor="#ffffff"
     bordercolor="#666666"
     borderopacity="1.0"
     inkscape:showpageshadow="2"
     inkscape:pageopacity="0.0"
     inkscape:pagecheckerboard="0"
     inkscape:deskcolor="#d1d1d1"
     showgrid="false"
     inkscape:zoom="12.261232"
     inkscape:cx="304.57789"
     inkscape:cy="200.02069"
     inkscape:window-width="1920"
     inkscape:window-height="1080"
     inkscape:window-x="2501"
     inkscape:window-y="217"
     inkscape:window-maximized="0"
     inkscape:current-layer="layer1">
    <inkscape:page
       x="0"
       y="0"
       id="page1847"
       width="400"
       height="400"
       margin="0"
       bleed="0" />
  </sodipodi:namedview>
  <g
     inkscape:groupmode="layer"
     id="layer1"
     inkscape:label="Pakled Mouth"
     style="display:inline">
    <path
       id="path11"
       style="fill:#cd976d;fill-opacity:1;stroke:none;stroke-width:1px;stroke-linecap:butt;stroke-linejoin:miter;stroke-opacity:1"
       d="M 313.94531 186.11133 C 312.201 186.10464 310.48259 186.24542 308.80859 186.73242 C 306.19394 187.49242 303.46786 187.55609 300.89453 188.49609 C 297.16653 189.85743 293.72903 192.37865 290.45703 194.58398 C 289.63436 195.13998 288.79524 195.73201 288.25391 196.63867 C 287.39355 198.07947 288.12458 202.8815 290.06836 201.34961 C 290.28142 201.31952 292.38392 201.02377 293.52734 200.95898 C 295.26446 200.86058 297.02005 200.73985 298.74609 200.95898 C 299.60953 201.0686 301.27539 201.61133 301.27539 201.61133 L 308.04492 203.97656 L 315.13867 206.83008 L 319.625 208.86914 L 321.99023 207.80859 L 322.80664 204.79102 L 324.68164 201.9375 L 326.47656 200.55078 L 327.50977 198.32617 C 327.52555 198.6442 327.52727 198.94236 327.50391 199.18164 C 328.96923 198.01764 330.08967 197.41763 329.875 195.4043 C 329.563 192.4843 327.285 190.89202 325.125 189.19336 C 322.21967 186.90802 319.29192 186.3335 315.69727 186.16016 C 315.11093 186.13216 314.52675 186.11356 313.94531 186.11133 z M 315.94336 192.59766 C 318.16869 192.59766 320.05842 192.7322 321.98242 193.26953 C 322.74642 193.48286 323.51517 193.75923 324.3125 194.11523 C 324.87784 194.36723 326.06181 194.53455 326.48047 194.94922 C 326.64557 195.11242 326.78507 195.34844 326.91016 195.61328 L 325.74219 194.67773 L 324.0293 195.41211 L 317.66797 196.39062 L 310.32812 196.06445 L 301.35547 193.94531 L 299.00781 194.12305 C 299.99104 193.88914 300.97757 193.68363 301.96094 193.51953 C 306.5396 192.75687 311.20603 192.59766 315.94336 192.59766 z " />
    <path
       d="m 301.38493,193.99547 c 1.64666,-0.59733 3.70933,-0.83466 5.44133,-1.216 2.57067,-0.56666 5.33467,-0.70533 7.96,-0.67733 1.47467,0.0173 2.99467,0.44267 4.456,0.57733 1.096,0.1 2.39467,0.26667 3.43733,0.59867 1.09334,0.34667 2.752,1.06267 1.03334,1.95067 -1.26667,0.65466 -2.748,0.58266 -4.12934,0.74 -1.53333,0.17333 -3.07866,0.41466 -4.61866,0.41333 -1.92,-0.003 -3.76267,-0.69467 -5.68,-0.828 -1.71734,-0.11867 -3.34267,-0.17067 -5.05067,-0.328 -0.728,-0.068 -1.448,-0.18267 -2.12667,-0.38933 -0.384,-0.11734 -1.748,-0.668 -0.72266,-0.84134"
       style="fill:#ffffff;fill-opacity:1;fill-rule:nonzero;stroke:none;stroke-width:1.33333"
       id="path1861" />
    <path
       d="m 310.33866,204.60987 c -3.06,-1.21067 -6.184,-2.29467 -9.38133,-3.00533 -1.08667,-0.24134 -2.08534,-0.91867 -3.20534,-1.17334 -1.19066,-0.26933 -2.42933,-0.24 -3.55466,0.26667 -0.604,0.27333 -2.128,1.296 -1.00534,2.07467 0.75467,0.52266 1.66534,0.136 2.44,-0.10267 1.736,-0.536 3.504,0.0467 5.15467,0.64533 0.94533,0.34267 1.89467,0.668 2.82933,1.036 2.344,0.92134 4.872,1.77334 7.05334,3.04534 1.86666,1.08933 3.596,2.36933 5.48533,3.36933 1.20667,0.63867 2.66667,1.60933 4.07333,1.56133 0.848,-0.0293 2.008,-1.05733 2.53867,-1.69466 0.42,-0.50534 0.78667,-1.05734 1.04133,-1.66267 0.416,-0.988 0.54934,-2.14667 0.78934,-3.184 0.26533,-1.13867 0.696,-2.19333 0.89066,-3.35867 0.0253,-0.15466 0.0453,-1.03333 0.172,-1.12 -0.33866,0.232 -0.88666,0.384 -1.152,0.71334 -0.292,0.364 -0.46133,1.19866 -0.66533,1.656 -0.53333,1.19333 -1.14,2.34 -1.70933,3.50933 -0.68667,1.408 -1.42534,2.564 -2.988,1.98267 -0.94134,-0.34934 -1.55734,-1.124 -2.38,-1.66267 -0.912,-0.59733 -1.91734,-1.03467 -2.91867,-1.456 -1.16133,-0.48933 -2.32933,-0.97333 -3.508,-1.44"
       style="opacity:0.199997;fill:#000000;fill-opacity:1;fill-rule:nonzero;stroke:none;stroke-width:1.33333"
       id="path1871" />
    <path
       d="m 305.29106,196.04041 c 2.068,0.51733 4.18,0.92133 6.24,1.388 2.14667,0.48666 4.29867,0.97466 6.488,1.22266 1.75333,0.19867 3.78133,-0.0533 5.14267,-1.28266 0.716,-0.64667 1.61866,-1.136 0.91066,-2.18134 -0.772,0.356 -1.77733,0.41867 -2.608,0.68534 -1.41066,0.452 -2.88933,0.608 -4.35466,0.69466 -1.916,0.11334 -3.8,-0.23066 -5.676,-0.572 -1.888,-0.344 -3.70667,-0.93066 -5.63734,-1.06533 -1.20133,-0.084 -2.64133,-0.208 -3.81466,0.092 0.12266,-0.0307 0.61333,0.25467 0.756,0.30133 0.83866,0.26667 1.692,0.50134 2.55333,0.71734"
       style="opacity:0.199997;fill:#000000;fill-opacity:1;fill-rule:nonzero;stroke:none;stroke-width:1.33333"
       id="path1899" />
    <path
       d="m 321.98306,193.27014 c -1.924,-0.53733 -3.81467,-0.67333 -6.04,-0.67333 -4.73733,0 -9.404,0.16 -13.98267,0.92266 -2.12533,0.35467 -4.26266,0.88534 -6.35866,1.536 -1.65734,0.516 -3.94667,1.46934 -4.46,3.316 -0.26534,0.95467 -0.14534,2.092 -0.87334,2.80133 -2.09333,2.036 -2.904,-3.04399 -2.01466,-4.53333 0.54133,-0.90666 1.38133,-1.49866 2.204,-2.05466 3.272,-2.20534 6.70933,-4.728 10.43733,-6.08934 2.57333,-0.94 5.29867,-1.00266 7.91333,-1.76266 2.232,-0.64934 4.544,-0.68534 6.88934,-0.57334 3.59466,0.17334 6.52133,0.748 9.42666,3.03334 2.16,1.69866 4.43867,3.29066 4.75067,6.21066 0.21467,2.01334 -0.90667,2.61334 -2.372,3.77734 0.11067,-1.13334 -0.212,-3.43067 -1.02267,-4.232 -0.41866,-0.41467 -1.60266,-0.58134 -2.168,-0.83334 -0.79733,-0.356 -1.56533,-0.632 -2.32933,-0.84533"
       style="opacity:0.199997;fill:#000000;fill-opacity:1;fill-rule:nonzero;stroke:none;stroke-width:1.33333"
       id="path1915" />
    <path
       d="m 301.32439,201.936 c -0.20266,-0.064 -0.40533,-0.12666 -0.608,-0.19066 -0.536,-0.16667 -1.41866,-0.38267 -1.844,-0.74934 1.06667,0.116 2.14934,0.45467 3.19467,0.76134 2.40267,0.70533 4.76133,1.428 7.11067,2.284 3.29466,1.19866 6.58266,2.44133 9.896,3.584 0.492,0.16933 1.032,0.272 1.53066,0.124 0.49067,-0.14534 0.888,-0.51867 1.15867,-0.952 0.38133,-0.61067 0.54133,-1.328 0.756,-2.00667 0.26667,-0.84667 1.02933,-1.552 1.544,-2.19867 0.64133,-0.80266 1.08667,-1.07866 1.868,-1.64666 -0.196,0.14266 -0.672,1.25866 -0.92133,1.568 -0.92667,1.14666 -1.22134,2.47066 -1.74534,3.80666 -0.40533,1.032 -0.34533,2.13734 -1.50666,2.688 -2.216,1.04934 -4.508,-0.36666 -6.468,-1.36533 -4.47467,-2.28 -9.176,-4.20667 -13.96534,-5.70667"
       style="fill:#000000;fill-opacity:1;fill-rule:nonzero;stroke:none;stroke-width:1.33333"
       id="path1925" />
    <path
       d="m 297.55679,193.00747 c -1.30533,0.444 -2.57866,0.99867 -3.80933,1.69334 -2.088,1.17733 -4.92267,2.61733 -4.82667,5.44933 0.02,0.61066 0.904,1.95333 1.55467,1.76 0.45467,-0.136 0.652,-1.78667 0.78933,-2.27867 0.22534,-0.80933 0.41334,-1.97733 0.99734,-2.632 0.668,-0.74933 2.06266,-0.96266 2.98,-1.22266 2.59333,-0.736 5.29466,-1.152 7.952,-1.596 2.81333,-0.46934 5.656,-0.81734 8.51333,-0.824 3.11333,-0.007 6.23867,-0.0147 9.33333,0.38133 2.164,0.276 5.63334,0.89733 5.912,3.65467 0.0307,0.30933 -0.30666,2.97466 -0.39733,3.04799 0.71467,-0.57733 1.89333,-1.64266 2.136,-2.56266 0.492,-1.86933 -1.36667,-3.272 -2.73067,-4.152 -1.728,-1.116 -3.728,-1.75733 -5.74533,-2.09733 -2.36933,-0.39867 -4.784,-0.39867 -7.18667,-0.392 -5.18666,0.012 -10.55333,0.1 -15.472,1.77066"
       style="fill:#000000;fill-opacity:1;fill-rule:nonzero;stroke:none;stroke-width:1.33333"
       id="path1929" />
    <path
       d="m 313.49653,179.81614 c 0,0 -2.60667,4.09733 -1.39867,5.10533 1.20933,1.00667 4.448,0.83734 4.448,0.83734 0,0 -2.59333,-1.15734 -2.48667,-2.51734 0.108,-1.36 -0.56266,-3.42533 -0.56266,-3.42533"
       style="fill:#000000;fill-opacity:1;fill-rule:nonzero;stroke:none;stroke-width:1.33333"
       id="path1933" />
    <path
       d="m 287.09426,177.23374 c -0.452,0.67733 -0.54133,2.04267 -0.804,2.844 -0.35867,1.09867 -0.764,2.19067 -1.16933,3.28 -0.78667,2.12 -1.59334,4.244 -2.09734,6.40933 -0.50133,2.16134 -0.67866,4.30134 -0.27066,6.40267 0.42666,2.19867 1.24133,4.28533 1.836,6.436 -0.0387,-0.14 -1.01067,-0.50667 -1.18667,-0.62534 -0.40533,-0.276 -0.76667,-0.59866 -1.09733,-0.94133 -0.624,-0.64667 -1.136,-1.38666 -1.59867,-2.13733 -1.04933,-1.69867 -1.8,-3.61733 -1.728,-5.664 0.0947,-2.72533 1.53867,-5.41467 2.928,-7.904 1.54933,-2.77733 3.40267,-5.42533 5.188,-8.1"
       style="opacity:0.199997;fill:#000000;fill-opacity:1;fill-rule:nonzero;stroke:none;stroke-width:1.33333"
       id="path1943" />
    <path
       d="m 331.91426,190.55787 c -0.24133,-1.508 -0.63067,-3.01866 -0.89333,-4.524 -0.23734,-1.36266 -0.82534,-2.71466 -1.23467,-4.09066 1.74933,1.15333 2.55467,4.368 3.02533,6.11333 0.70267,2.604 1.25333,5.32 0.99333,7.816 -0.12133,1.16667 -0.38933,2.42933 -1.05733,3.284 -0.68533,0.876 -1.89066,1.06933 -2.6,1.904 2.352,-2.768 2.39334,-6.584 1.76667,-10.50267"
       style="opacity:0.199997;fill:#000000;fill-opacity:1;fill-rule:nonzero;stroke:none;stroke-width:1.33333"
       id="path1959" />
    <path
       d="m 295.54279,195.22961 c 2.31734,-0.756 5.12534,-0.0773 7.464,0.28533 3.54534,0.55067 7.07734,1.292 10.66534,1.572 3.764,0.29467 7.85866,0.24667 11.344,-1.35733 0.416,-0.192 0.87333,-0.372 1.17466,-0.72534 -0.584,-0.28666 -1.256,-0.7 -1.88666,-0.852 -0.54134,-0.13066 -0.97334,-0.13333 -1.51067,-0.39066 0.52267,0.72266 0.26,0.948 -0.42933,1.21733 -0.82134,0.32133 -1.05867,0.28533 -1.54,-0.46533 -0.288,1.46933 -2.808,0.93733 -3.85067,0.96266 -1.39867,0.0347 -1.67467,0.132 -2.32533,-1.14 0.81466,1.59334 -2.952,1.032 -3.472,0.99334 -1.50934,-0.11067 -3.688,0.10133 -4.60667,-1.34267 -0.98,0.81067 -1.84,-0.076 -2.86267,-0.22 -2.93733,-0.41467 -5.44133,0.57467 -8.164,1.46267"
       style="fill:#000000;fill-opacity:1;fill-rule:nonzero;stroke:none;stroke-width:1.33333"
       id="path1969" />
  </g>
  <g
     inkscape:groupmode="layer"
     id="g10"
     inkscape:label="Standard Mouth"
     style="display:none"
     sodipodi:insensitive="true">
    <path
       d="m 301.38493,193.99547 c 1.64666,-0.59733 3.70933,-0.83466 5.44133,-1.216 2.57067,-0.56666 5.33467,-0.70533 7.96,-0.67733 1.47467,0.0173 2.99467,0.44267 4.456,0.57733 1.096,0.1 2.39467,0.26667 3.43733,0.59867 1.09334,0.34667 2.752,1.06267 1.03334,1.95067 -1.26667,0.65466 -2.748,0.58266 -4.12934,0.74 -1.53333,0.17333 -3.07866,0.41466 -4.61866,0.41333 -1.92,-0.003 -3.76267,-0.69467 -5.68,-0.828 -1.71734,-0.11867 -3.34267,-0.17067 -5.05067,-0.328 -0.728,-0.068 -1.448,-0.18267 -2.12667,-0.38933 -0.384,-0.11734 -1.748,-0.668 -0.72266,-0.84134"
       style="fill:#ffffff;fill-opacity:1;fill-rule:nonzero;stroke:none;stroke-width:1.33333"
       id="path1" />
    <path
       d="m 305.29106,196.04041 c 2.068,0.51733 4.18,0.92133 6.24,1.388 2.14667,0.48666 4.29867,0.97466 6.488,1.22266 1.75333,0.19867 3.78133,-0.0533 5.14267,-1.28266 0.716,-0.64667 1.61866,-1.136 0.91066,-2.18134 -0.772,0.356 -1.77733,0.41867 -2.608,0.68534 -1.41066,0.452 -2.88933,0.608 -4.35466,0.69466 -1.916,0.11334 -3.8,-0.23066 -5.676,-0.572 -1.888,-0.344 -3.70667,-0.93066 -5.63734,-1.06533 -1.20133,-0.084 -2.64133,-0.208 -3.81466,0.092 0.12266,-0.0307 0.61333,0.25467 0.756,0.30133 0.83866,0.26667 1.692,0.50134 2.55333,0.71734"
       style="opacity:0.199997;fill:#000000;fill-opacity:1;fill-rule:nonzero;stroke:none;stroke-width:1.33333"
       id="path3" />
    <path
       d="m 321.98306,193.27014 c -1.924,-0.53733 -3.81467,-0.67333 -6.04,-0.67333 -4.73733,0 -9.404,0.16 -13.98267,0.92266 -2.12533,0.35467 -4.26266,0.88534 -6.35866,1.536 -1.65734,0.516 -3.94667,1.46934 -4.46,3.316 -0.26534,0.95467 -0.14534,2.092 -0.87334,2.80133 -2.09333,2.036 -2.904,-3.04399 -2.01466,-4.53333 0.54133,-0.90666 1.38133,-1.49866 2.204,-2.05466 3.272,-2.20534 6.70933,-4.728 10.43733,-6.08934 2.57333,-0.94 5.29867,-1.00266 7.91333,-1.76266 2.232,-0.64934 4.544,-0.68534 6.88934,-0.57334 3.59466,0.17334 6.52133,0.748 9.42666,3.03334 2.16,1.69866 4.43867,3.29066 4.75067,6.21066 0.21467,2.01334 -0.90667,2.61334 -2.372,3.77734 0.11067,-1.13334 -0.212,-3.43067 -1.02267,-4.232 -0.41866,-0.41467 -1.60266,-0.58134 -2.168,-0.83334 -0.79733,-0.356 -1.56533,-0.632 -2.32933,-0.84533"
       style="opacity:0.199997;fill:#000000;fill-opacity:1;fill-rule:nonzero;stroke:none;stroke-width:1.33333"
       id="path4" />
    <path
       d="m 297.55679,193.00747 c -1.30533,0.444 -2.57866,0.99867 -3.80933,1.69334 -2.088,1.17733 -4.92267,2.61733 -4.82667,5.44933 0.02,0.61066 0.904,1.95333 1.55467,1.76 0.45467,-0.136 0.652,-1.78667 0.78933,-2.27867 0.22534,-0.80933 0.41334,-1.97733 0.99734,-2.632 0.668,-0.74933 2.06266,-0.96266 2.98,-1.22266 2.59333,-0.736 5.29466,-1.152 7.952,-1.596 2.81333,-0.46934 5.656,-0.81734 8.51333,-0.824 3.11333,-0.007 6.23867,-0.0147 9.33333,0.38133 2.164,0.276 5.63334,0.89733 5.912,3.65467 0.0307,0.30933 -0.30666,2.97466 -0.39733,3.04799 0.71467,-0.57733 1.89333,-1.64266 2.136,-2.56266 0.492,-1.86933 -1.36667,-3.272 -2.73067,-4.152 -1.728,-1.116 -3.728,-1.75733 -5.74533,-2.09733 -2.36933,-0.39867 -4.784,-0.39867 -7.18667,-0.392 -5.18666,0.012 -10.55333,0.1 -15.472,1.77066"
       style="fill:#000000;fill-opacity:1;fill-rule:nonzero;stroke:none;stroke-width:1.33333"
       id="path6" />
    <path
       d="m 313.49653,179.81614 c 0,0 -2.60667,4.09733 -1.39867,5.10533 1.20933,1.00667 4.448,0.83734 4.448,0.83734 0,0 -2.59333,-1.15734 -2.48667,-2.51734 0.108,-1.36 -0.56266,-3.42533 -0.56266,-3.42533"
       style="fill:#000000;fill-opacity:1;fill-rule:nonzero;stroke:none;stroke-width:1.33333"
       id="path7" />
    <path
       d="m 287.09426,177.23374 c -0.452,0.67733 -0.54133,2.04267 -0.804,2.844 -0.35867,1.09867 -0.764,2.19067 -1.16933,3.28 -0.78667,2.12 -1.59334,4.244 -2.09734,6.40933 -0.50133,2.16134 -0.67866,4.30134 -0.27066,6.40267 0.42666,2.19867 1.24133,4.28533 1.836,6.436 -0.0387,-0.14 -1.01067,-0.50667 -1.18667,-0.62534 -0.40533,-0.276 -0.76667,-0.59866 -1.09733,-0.94133 -0.624,-0.64667 -1.136,-1.38666 -1.59867,-2.13733 -1.04933,-1.69867 -1.8,-3.61733 -1.728,-5.664 0.0947,-2.72533 1.53867,-5.41467 2.928,-7.904 1.54933,-2.77733 3.40267,-5.42533 5.188,-8.1"
       style="opacity:0.199997;fill:#000000;fill-opacity:1;fill-rule:nonzero;stroke:none;stroke-width:1.33333"
       id="path8" />
    <path
       d="m 331.91426,190.55787 c -0.24133,-1.508 -0.63067,-3.01866 -0.89333,-4.524 -0.23734,-1.36266 -0.82534,-2.71466 -1.23467,-4.09066 1.74933,1.15333 2.55467,4.368 3.02533,6.11333 0.70267,2.604 1.25333,5.32 0.99333,7.816 -0.12133,1.16667 -0.38933,2.42933 -1.05733,3.284 -0.68533,0.876 -1.89066,1.06933 -2.6,1.904 2.352,-2.768 2.39334,-6.584 1.76667,-10.50267"
       style="opacity:0.199997;fill:#000000;fill-opacity:1;fill-rule:nonzero;stroke:none;stroke-width:1.33333"
       id="path9" />
    <path
       d="m 295.54279,195.22961 c 2.31734,-0.756 5.12534,-0.0773 7.464,0.28533 3.54534,0.55067 7.07734,1.292 10.66534,1.572 3.764,0.29467 7.85866,0.24667 11.344,-1.35733 0.416,-0.192 0.87333,-0.372 1.17466,-0.72534 -0.584,-0.28666 -1.256,-0.7 -1.88666,-0.852 -0.54134,-0.13066 -0.97334,-0.13333 -1.51067,-0.39066 0.52267,0.72266 0.26,0.948 -0.42933,1.21733 -0.82134,0.32133 -1.05867,0.28533 -1.54,-0.46533 -0.288,1.46933 -2.808,0.93733 -3.85067,0.96266 -1.39867,0.0347 -1.67467,0.132 -2.32533,-1.14 0.81466,1.59334 -2.952,1.032 -3.472,0.99334 -1.50934,-0.11067 -3.688,0.10133 -4.60667,-1.34267 -0.98,0.81067 -1.84,-0.076 -2.86267,-0.22 -2.93733,-0.41467 -5.44133,0.57467 -8.164,1.46267"
       style="fill:#000000;fill-opacity:1;fill-rule:nonzero;stroke:none;stroke-width:1.33333"
       id="path10" />
    <path
       d="m 311.9942,204.43696 c 3.40855,0.67828 10.99755,-0.33117 13.98343,-2.07767 2.98588,-1.74651 0.23471,-0.49213 0,0 -0.23471,0.49213 -0.54308,8.37893 -10.59802,7.46682 -10.05623,-0.91219 -17.60098,-10.08298 -17.60098,-10.08298 0,0 10.80702,4.01553 14.21557,4.69383"
       style="opacity:0.199997;fill:#000000;fill-opacity:1;fill-rule:nonzero;stroke:none;stroke-width:1.33333"
       id="path108142" />
    <path
       d="m 316.09479,203.87631 c 6.58439,-0.0194 9.42672,-1.33203 9.42672,-1.33203 0,0 -4.29406,4.2046 -9.58398,3.87785 -5.28859,-0.32667 -12.03131,-4.62121 -12.03131,-4.62121 0,0 5.60417,2.09482 12.18857,2.07539 z"
       style="fill:#000000;fill-opacity:1;fill-rule:nonzero;stroke:none;stroke-width:1.33333"
       id="path108168"
       sodipodi:nodetypes="scscs" />
  </g>
</svg>
