<?xml version="1.0" encoding="UTF-8" standalone="no"?>
<!-- Created with Inkscape (http://www.inkscape.org/) -->

<svg
   version="1.1"
   id="svg8999"
   width="400"
   height="400"
   viewBox="0 0 400 400"
   sodipodi:docname="Mouth1.svg"
   inkscape:version="1.3 (0e150ed, 2023-07-21)"
   xmlns:inkscape="http://www.inkscape.org/namespaces/inkscape"
   xmlns:sodipodi="http://sodipodi.sourceforge.net/DTD/sodipodi-0.dtd"
   xmlns="http://www.w3.org/2000/svg"
   xmlns:svg="http://www.w3.org/2000/svg">
  <defs
     id="defs9003" />
  <sodipodi:namedview
     id="namedview9001"
     pagecolor="#ffffff"
     bordercolor="#666666"
     borderopacity="1.0"
     inkscape:showpageshadow="2"
     inkscape:pageopacity="0.0"
     inkscape:pagecheckerboard="0"
     inkscape:deskcolor="#d1d1d1"
     showgrid="false"
     inkscape:zoom="23.88"
     inkscape:cx="311.15997"
     inkscape:cy="199.85343"
     inkscape:window-width="1800"
     inkscape:window-height="810"
     inkscape:window-x="2353"
     inkscape:window-y="366"
     inkscape:window-maximized="0"
     inkscape:current-layer="g6">
    <inkscape:page
       x="0"
       y="0"
       id="page9005"
       width="400"
       height="400"
       margin="0"
       bleed="0" />
  </sodipodi:namedview>
  <g
     id="g9007"
     inkscape:groupmode="layer"
     inkscape:label="Standard Mouth"
     sodipodi:insensitive="true"
     style="display:none">
    <path
       id="path154442"
       style="opacity:1;fill:#cd976d;fill-opacity:1;fill-rule:nonzero;stroke:none;stroke-width:1.33333"
       d="m 309.625,190.39844 c -0.71823,-0.005 -1.27703,0.0546 -1.70703,0.22656 -1.08358,0.43342 -14.94725,3.39723 -19.48242,4.20898 l -1.75782,-0.43945 1.11133,0.55664 c -0.0429,0.007 -0.12608,0.0229 -0.16601,0.0293 0,0 0.22476,0.009 0.24609,0.01 0,0 5.18091,3.36647 8.25378,4.59299 3.07286,1.22653 11.79837,2.96028 11.79837,2.96028 l 9.43809,0.47994 6.231,-1.40808 c 0,0 4.68604,-2.80914 5.58388,-4.16038 0.89784,-1.35124 0.88824,-3.06045 0.88824,-3.06045 l -1.11328,-0.0957 c -1.9618,-0.65948 -7.56316,-2.58855 -8.41992,-3.44531 -1.032,-1.032 -2.29237,0.1141 -5.84571,-0.11524 -2.22166,-0.14333 -3.86153,-0.33089 -5.05859,-0.33984 z m 11.13477,2.97851 c 0,0 0.74564,0.16566 1.77539,0.37305 l -0.86133,-0.0742 -2.57813,0.19727 c 0.90975,-0.26199 1.66407,-0.4961 1.66407,-0.4961 z m -31.47657,1.66797 c 2.66874,0.1037 8.28091,0.30872 11.2461,0.32617 l -0.66797,0.22266 -10.30664,-0.48047 z"
       sodipodi:nodetypes="csccccczccczccssscccccccccccc" />
    <path
       d="m 310.89893,203.1216 c 3.44,0.45867 10.964,-0.32 13.852,-2.224 2.888,-1.90399 0.208,-0.504 0,0 -0.208,0.504 -0.0933,7.384 -10.18267,7.04 -10.09067,-0.344 -18.116,-8.14133 -18.116,-8.14133 0,0 11.00667,2.86667 14.44667,3.32533"
       style="opacity:0.199997;fill:#000000;fill-opacity:1;fill-rule:nonzero;stroke:none;stroke-width:1.33333"
       id="path9769" />
    <path
       d="m 329.83786,194.59774 c 0,0 -8.276,-2.712 -9.308,-3.744 -1.032,-1.032 -2.29333,0.11467 -5.84667,-0.11467 -3.55466,-0.22933 -5.61866,-0.57333 -6.76533,-0.11466 -1.14667,0.45866 -16.74,3.78266 -20.29467,4.356 0,0 13.988,0.57333 14.676,0.344 0.688,-0.22934 6.07734,-1.49067 7.912,-1.26134 1.83467,0.22934 5.38934,0.688 6.87867,0.344 1.49067,-0.344 3.66933,-1.03066 3.66933,-1.03066 0,0 7.264,1.64133 9.07867,1.22133"
       style="opacity:0.199997;fill:#000000;fill-opacity:1;fill-rule:nonzero;stroke:none;stroke-width:1.33333"
       id="path9785" />
    <path
       d="m 303.13066,201.4884 c 0,0 5.72267,1.18134 12.29333,0.788 6.57067,-0.39466 9.32667,-1.37866 9.32667,-1.37866 0,0 -4.02667,3.74133 -9.32667,3.74133 -5.29866,0 -12.29333,-3.15067 -12.29333,-3.15067"
       style="fill:#000000;fill-opacity:1;fill-rule:nonzero;stroke:none;stroke-width:1.33333"
       id="path9795" />
    <path
       d="m 322.92973,193.37801 c -1.06534,-0.26934 -1.74267,-0.764 -2.904,-0.54 -1.16267,0.22533 -7.21334,0.58533 -8.52,0.40533 -1.30667,-0.18 -6.584,0.584 -8.37467,1.21333 -1.09867,0.38667 -2.46533,0.32 -3.61067,0.37334 -2.89733,0.13333 -5.8,0.148 -8.7,0.20533 -0.65866,0.0133 -1.372,0.0107 -1.9,-0.38267 -0.50933,-0.37733 -0.676,-1.00266 -1.04533,-1.49066 -0.13333,-0.176 -0.32,-0.34534 -0.54133,-0.34 -0.15867,0.003 -0.29867,0.0947 -0.42534,0.188 -0.92533,0.67733 -1.66933,1.6 -2.136,2.648 0.048,-0.10934 1.40534,-0.064 1.576,-0.072 2.668,-0.108 5.33867,-0.076 8.00534,0.048 2.55333,0.12 5.096,0.44533 7.64933,0.12933 0.59067,-0.0733 1.17867,-0.176 1.75733,-0.31733 4.028,-0.984 7.21334,0.136 12.088,0.136 3.18,0 4.23867,-1.772 6.78267,-1.18134 2.544,0.59067 7.20667,0.19734 7.20667,0.19734 0,0 -5.84267,-0.95067 -6.908,-1.22"
       style="fill:#000000;fill-opacity:1;fill-rule:nonzero;stroke:none;stroke-width:1.33333"
       id="path9799" />
  </g>
  <g
     inkscape:groupmode="layer"
     id="layer1"
     inkscape:label="Tellarite Mouth"
     style="display:none">
    <path
       id="path251693"
       style="fill:#cd976d;fill-opacity:1;fill-rule:nonzero;stroke:none;stroke-width:1.33333"
       d="m 309.625,190.39844 c -0.71823,-0.005 -1.27703,0.0546 -1.70703,0.22656 -1.14667,0.45866 -16.74026,3.78213 -20.29492,4.35547 0,0 0.72323,0.0271 1.12304,0.043 0.034,0.0254 4.42876,3.21328 7.4296,4.32523 3.11576,1.15453 6.56097,1.89546 9.04807,2.57952 2.4871,0.68406 4.28847,2.21457 4.28847,2.21457 l 3.02072,2.30436 1.98844,2.37226 1.49609,-1.09571 c 1.90667,-1.54106 2.96905,-2.56946 4.82385,-4.07644 2.30289,-1.87104 3.71912,-2.64891 5.1863,-3.74229 1.60477,-1.23835 3.68331,-5.28971 3.68331,-5.28971 0.0401,-0.007 0.091,-0.009 0.12695,-0.0176 0,0 -8.27659,-2.71215 -9.30859,-3.74414 -1.032,-1.032 -2.29237,0.1141 -5.84571,-0.11524 -2.22166,-0.14333 -3.86153,-0.33089 -5.05859,-0.33984 z"
       sodipodi:nodetypes="ssccszccccscccsss" />
    <path
       id="path83845"
       style="opacity:0.199997;fill:#000000;fill-opacity:1;fill-rule:nonzero;stroke:none;stroke-width:1.33333"
       d="m 313.09405,207.28185 -2.06227,-2.15741 c 0,0 -1.53022,-0.79076 -2.38447,-1.57773 -4.24506,-2.22079 -12.19419,-3.99659 -12.19419,-3.99658 0,0 7.70927,5.84984 12.91582,7.32165 1.57463,0.44512 3.4578,2.89742 4.92219,3.6564 l 0.67636,-1.07077 c 1.46032,-0.98131 3.5984,-2.02439 4.63737,-2.36303 5.01446,-1.63441 4.98015,-6.0429 5.14514,-6.44269 -1.16208,0.76613 -1.77851,1.45609 -3.78997,2.70338 l -1.51635,1.38563 -2.12618,1.8464 c -0.81556,0.78811 -1.54738,1.36684 -2.90733,1.98745 z"
       sodipodi:nodetypes="ccccsccscccccc" />
    <path
       d="m 329.83786,194.59774 c 0,0 -8.276,-2.712 -9.308,-3.744 -1.032,-1.032 -2.29333,0.11467 -5.84667,-0.11467 -3.55466,-0.22933 -5.61866,-0.57333 -6.76533,-0.11466 -1.14667,0.45866 -16.74,3.78266 -20.29467,4.356 0,0 13.988,0.57333 14.676,0.344 0.688,-0.22934 6.07734,-1.49067 7.912,-1.26134 1.83467,0.22934 5.38934,0.688 6.87867,0.344 1.49067,-0.344 3.66933,-1.03066 3.66933,-1.03066 0,0 7.264,1.64133 9.07867,1.22133"
       style="opacity:0.199997;fill:#000000;fill-opacity:1;fill-rule:nonzero;stroke:none;stroke-width:1.33333"
       id="path9785-7" />
    <path
       id="path9795-0"
       style="fill:#000000;fill-opacity:1;fill-rule:nonzero;stroke:none;stroke-width:1.33333"
       d="m 324.78525,200.68694 c 0,0 -2.75143,1.23052 -3.88736,2.22465 -0.59943,0.52461 -1.85074,1.75364 -2.86255,2.63475 -1.07631,0.9957 -2.18765,1.92398 -3.45917,2.6526 -0.11341,0.028 -1.19423,-1.15799 -1.89455,-1.90469 -0.85099,-0.90734 -2.05584,-2.06064 -3.23286,-2.71813 -0.79012,-0.44136 -1.35669,-0.81495 -3.32283,-1.40046 -1.96635,-0.58557 -2.99507,-0.79313 -2.99507,-0.79313 0,0 2.11991,1.07907 5.22591,2.65704 0.82734,0.42032 1.9167,1.26839 3.00595,2.24937 1.17539,1.05858 2.77595,3.44515 2.77595,3.44515 0,0 1.46141,-0.91613 2.16432,-1.72323 1.39952,-0.89326 2.42772,-2.18006 3.72744,-3.19429 2.92887,-2.28556 4.75482,-4.12963 4.75482,-4.12963 z"
       sodipodi:nodetypes="csscssscsscssc" />
    <path
       d="m 322.92973,193.37801 c -1.06534,-0.26934 -1.74267,-0.764 -2.904,-0.54 -1.16267,0.22533 -7.21334,0.58533 -8.52,0.40533 -1.30667,-0.18 -6.584,0.584 -8.37467,1.21333 -1.09867,0.38667 -2.46533,0.32 -3.61067,0.37334 -2.89733,0.13333 -5.8,0.148 -8.7,0.20533 -0.65866,0.0133 -1.372,0.0107 -1.9,-0.38267 -0.50933,-0.37733 -0.676,-1.00266 -1.04533,-1.49066 -0.13333,-0.176 -0.32,-0.34534 -0.54133,-0.34 -0.15867,0.003 -0.29867,0.0947 -0.42534,0.188 -0.92533,0.67733 -1.66933,1.6 -2.136,2.648 0.048,-0.10934 1.40534,-0.064 1.576,-0.072 2.668,-0.108 5.33867,-0.076 8.00534,0.048 2.55333,0.12 5.096,0.44533 7.64933,0.12933 0.59067,-0.0733 1.17867,-0.176 1.75733,-0.31733 4.028,-0.984 7.21334,0.136 12.088,0.136 3.18,0 4.23867,-1.772 6.78267,-1.18134 2.544,0.59067 7.20667,0.19734 7.20667,0.19734 0,0 -5.84267,-0.95067 -6.908,-1.22"
       style="fill:#000000;fill-opacity:1;fill-rule:nonzero;stroke:none;stroke-width:1.33333"
       id="path9799-3" />
    <path
       style="fill:#000000;fill-opacity:0.3;stroke:none;stroke-width:1px;stroke-linecap:butt;stroke-linejoin:miter;stroke-opacity:1"
       d="m 315.80108,205.7501 c 0,0 0.45356,-0.78482 0.65917,-1.61796 0.20561,-0.83314 0.41493,-2.362 0.32958,-3.38572 -0.0854,-1.02372 -0.37658,-1.81681 -0.71909,-2.66663 -0.34251,-0.84982 -0.98094,-1.9477 -1.31834,-2.39698 -0.3374,-0.44928 -0.44943,-0.44943 -0.44943,-0.44943 l -4.28459,-0.47939 c 0,0 1.16585,0.92845 1.8277,1.58799 0.66185,0.65954 1.61487,1.59913 2.09735,2.39697 0.48248,0.79784 0.60689,1.38798 0.8689,2.24716 0.26201,0.85918 0.49857,2.11125 0.65917,2.90633 0.1606,0.79508 0.32958,1.85766 0.32958,1.85766 z"
       id="path83082"
       sodipodi:nodetypes="czzzzcczzzzc" />
  </g>
  <g
     inkscape:groupmode="layer"
     id="g6"
     inkscape:label="Pakled Mouth">
    <path
       id="path1"
       style="fill:#cd976d;fill-opacity:1;fill-rule:nonzero;stroke:none;stroke-width:1.33333"
       d="m 309.625,190.39844 c -0.71823,-0.005 -1.27703,0.0546 -1.70703,0.22656 -1.14667,0.45866 -16.74026,3.78213 -20.29492,4.35547 0,0 0.72323,0.0271 1.12304,0.043 0.034,0.0254 4.42876,3.21328 7.4296,4.32523 3.11576,1.15453 6.51909,2.14672 9.00619,2.83078 2.4871,0.68406 4.33035,1.96331 4.33035,1.96331 l 3.02072,2.30436 1.98844,2.37226 1.49609,-1.09571 c 1.90667,-1.54106 2.96905,-2.56946 4.82385,-4.07644 2.30289,-1.87104 3.71912,-2.64891 5.1863,-3.74229 1.60477,-1.23835 3.68331,-5.28971 3.68331,-5.28971 0.0401,-0.007 0.091,-0.009 0.12695,-0.0176 0,0 -8.27659,-2.71215 -9.30859,-3.74414 -1.032,-1.032 -2.29237,0.1141 -5.84571,-0.11524 -2.22166,-0.14333 -3.86153,-0.33089 -5.05859,-0.33984 z"
       sodipodi:nodetypes="ssccszccccscccsss" />
    <path
       id="path2"
       style="opacity:0.199997;fill:#000000;fill-opacity:1;fill-rule:nonzero;stroke:none;stroke-width:1.33333"
       d="m 313.09405,207.28185 -2.06227,-2.15741 c 0,0 -1.53022,-0.79076 -2.38447,-1.57773 -4.24506,-2.22079 -12.19419,-3.99659 -12.19419,-3.99658 0,0 7.94616,4.42852 12.91582,7.32165 1.41415,0.82326 3.4578,3.56744 4.92219,4.32642 2.01092,-1.05101 3.78984,-3.13619 5.43217,-4.45915 4.65913,-4.41783 4.86171,-5.68757 5.0267,-6.08736 -1.16208,0.76613 -1.77851,1.45609 -3.78997,2.70338 l -1.51635,1.38563 -2.12618,1.8464 c -0.81556,0.78811 -1.54738,1.36684 -2.90733,1.98745 z"
       sodipodi:nodetypes="ccccscscccccc" />
    <path
       d="m 329.83786,194.59774 c 0,0 -8.276,-2.712 -9.308,-3.744 -1.032,-1.032 -2.29333,0.11467 -5.84667,-0.11467 -3.55466,-0.22933 -5.61866,-0.57333 -6.76533,-0.11466 -1.14667,0.45866 -16.74,3.78266 -20.29467,4.356 0,0 13.988,0.57333 14.676,0.344 0.688,-0.22934 6.07734,-1.49067 7.912,-1.26134 1.83467,0.22934 5.38934,0.688 6.87867,0.344 1.49067,-0.344 3.66933,-1.03066 3.66933,-1.03066 0,0 7.264,1.64133 9.07867,1.22133"
       style="opacity:0.199997;fill:#000000;fill-opacity:1;fill-rule:nonzero;stroke:none;stroke-width:1.33333"
       id="path3" />
    <path
       d="m 322.92973,193.37801 c -1.06534,-0.26934 -1.74267,-0.764 -2.904,-0.54 -1.16267,0.22533 -7.21334,0.58533 -8.52,0.40533 -1.30667,-0.18 -6.584,0.584 -8.37467,1.21333 -1.09867,0.38667 -2.46533,0.32 -3.61067,0.37334 -2.89733,0.13333 -5.8,0.148 -8.7,0.20533 -0.65866,0.0133 -1.372,0.0107 -1.9,-0.38267 -0.50933,-0.37733 -0.676,-1.00266 -1.04533,-1.49066 -0.13333,-0.176 -0.32,-0.34534 -0.54133,-0.34 -0.15867,0.003 -0.29867,0.0947 -0.42534,0.188 -0.92533,0.67733 -1.66933,1.6 -2.136,2.648 0.048,-0.10934 1.40534,-0.064 1.576,-0.072 2.668,-0.108 5.33867,-0.076 8.00534,0.048 2.55333,0.12 5.096,0.44533 7.64933,0.12933 0.59067,-0.0733 1.17867,-0.176 1.75733,-0.31733 4.028,-0.984 7.21334,0.136 12.088,0.136 3.18,0 4.23867,-1.772 6.78267,-1.18134 2.544,0.59067 7.20667,0.19734 7.20667,0.19734 0,0 -5.84267,-0.95067 -6.908,-1.22"
       style="fill:#000000;fill-opacity:1;fill-rule:nonzero;stroke:none;stroke-width:1.33333"
       id="path5" />
    <path
       id="path4"
       style="fill:#000000;fill-opacity:1;fill-rule:nonzero;stroke:none;stroke-width:1.33333"
       d="m 325.50541,200.42136 c 0,0 -2.86282,1.46137 -4.69858,2.79373 -1.83576,1.33236 -2.16592,1.48032 -3.18437,2.39079 -1.01845,0.91047 -1.86062,1.73362 -3.04629,2.69881 -0.11341,0.028 -0.57505,-0.84467 -1.27969,-1.5873 -0.69012,-0.72732 -1.10418,-1.29468 -3.30487,-2.84068 -0.42553,-0.29895 -1.37642,-0.68448 -3.56667,-1.45639 -1.93504,-0.68196 -4.75441,-1.27791 -4.75441,-1.27791 0,0 4.11733,1.64082 6.69297,3.22164 1.00252,0.6153 2.24704,1.45822 3.12267,2.24362 1.00341,0.9 2.6525,3.23217 2.6525,3.23217 0,0 1.35452,-1.02343 2.16432,-1.72323 1.40245,-1.21195 2.368,-1.99263 3.78259,-3.12672 3.45366,-2.76882 5.41983,-4.56853 5.41983,-4.56853 z"
       sodipodi:nodetypes="czzcssscsscssc" />
  </g>
  <g
     inkscape:groupmode="layer"
     id="layer2"
     inkscape:label="Tellarite Philtrum">
    <path
       style="fill:#000000;fill-opacity:1;stroke:none;stroke-width:1px;stroke-linecap:butt;stroke-linejoin:miter;stroke-opacity:1"
       d="m 310.62612,176.70588 c 0,0 0.83974,1.37584 1.11765,2.2353 0.27791,0.85946 0.21573,1.7699 0.47059,2.88235 0.25486,1.11245 0.54168,2.9572 1.11764,3.76471 0.57596,0.80751 1.11244,1.0315 1.64706,1.17647 0.53462,0.14497 0.84364,0.18982 1.29412,-0.11765 0.45048,-0.30747 0.65505,-1.02493 0.88235,-1.76471 0.2273,-0.73978 0.23518,-1.7353 0.35295,-2.64706 0.11777,-0.91176 0.35294,-2.82353 0.35294,-2.82353 0,0 -0.97284,1.50587 -1.23529,2.29413 -0.26246,0.78825 -0.14973,1.69319 -0.35295,2.35294 -0.20322,0.65974 -0.44124,1.38497 -0.7647,1.58823 -0.32346,0.20326 -0.306,0.11001 -0.52941,0 -0.22342,-0.11002 -0.23751,-0.0842 -0.58824,-0.76471 -0.35073,-0.68048 -0.77836,-2.45936 -1.05882,-3.47059 -0.28047,-1.01123 -0.19121,-1.76971 -0.64707,-2.58823 -0.45586,-0.81852 -2.05882,-2.11765 -2.05882,-2.11765 z"
       id="path109669"
       sodipodi:nodetypes="czzzzzzzczzzzzzzc" />
  </g>
  <g
     inkscape:groupmode="layer"
     id="layer9"
     inkscape:label="Philtrum"
     style="display:none">
    <path
       d="m 313.49186,179.92254 c 0,0 -1.56,6.324 -0.65733,7.96667 0.904,1.64133 2.54666,1.724 2.54666,1.724 0,0 -2.05333,-1.88934 -1.80666,-4.10667 0.24533,-2.21733 -0.0827,-5.584 -0.0827,-5.584"
       style="fill:#000000;fill-opacity:1;fill-rule:nonzero;stroke:none;stroke-width:1.33333"
       id="path9803" />
  </g>
</svg>
