<?xml version="1.0" encoding="UTF-8" standalone="no"?>
<!-- Created with Inkscape (http://www.inkscape.org/) -->

<svg
   version="1.1"
   id="svg31622"
   width="400"
   height="400"
   viewBox="0 0 400 400"
   sodipodi:docname="Mouth4Lipstick.svg"
   inkscape:version="1.3 (0e150ed, 2023-07-21)"
   xmlns:inkscape="http://www.inkscape.org/namespaces/inkscape"
   xmlns:sodipodi="http://sodipodi.sourceforge.net/DTD/sodipodi-0.dtd"
   xmlns="http://www.w3.org/2000/svg"
   xmlns:svg="http://www.w3.org/2000/svg">
  <defs
     id="defs31626" />
  <sodipodi:namedview
     id="namedview31624"
     pagecolor="#ffffff"
     bordercolor="#666666"
     borderopacity="1.0"
     inkscape:showpageshadow="2"
     inkscape:pageopacity="0.0"
     inkscape:pagecheckerboard="0"
     inkscape:deskcolor="#d1d1d1"
     showgrid="false"
     inkscape:zoom="2.95"
     inkscape:cx="239.49153"
     inkscape:cy="207.9661"
     inkscape:window-width="2056"
     inkscape:window-height="990"
     inkscape:window-x="2311"
     inkscape:window-y="89"
     inkscape:window-maximized="0"
     inkscape:current-layer="layer6">
    <inkscape:page
       x="0"
       y="0"
       id="page31628"
       width="400"
       height="400"
       margin="0"
       bleed="0" />
  </sodipodi:namedview>
  <g
     id="g31630"
     inkscape:groupmode="layer"
     inkscape:label="Original Mouth"
     sodipodi:insensitive="true"
     style="display:none">
    <path
       d="m 307.53759,200.19267 c -1.26,-0.02 -2.508,-0.11733 -3.768,-0.42533 -2.88133,-0.708 -5.77466,-1.01067 -8.41466,-2.43467 -0.71734,-0.388 -2.10934,-1.452 -2.976,-1.23733 0.89733,0.84 1.41333,1.94933 2.176,2.89733 1.04666,1.30133 2.424,1.87333 3.74533,2.772 2.28,1.55333 4.924,3.024 7.672,3.51733 2.94667,0.52934 7.78267,-0.0813 10.42533,0.0547 3.636,0.188 6.77734,0.18133 8.376,-4.15733 0.29734,-0.80934 0.39734,-2.91467 1.104,-3.35733 -2.108,1.32133 -4.384,1.91066 -6.83733,1.996 -1.99867,0.0693 -5.64267,0.34666 -7.896,0.34666 -1.228,0 -2.42267,0.048 -3.60667,0.028"
       style="opacity:0.199997;fill:#000000;fill-opacity:1;fill-rule:nonzero;stroke:none;stroke-width:1.33333"
       id="path37816" />
    <path
       d="m 290.42213,193.41561 c 0,0 7.46,0.352 11.96266,-0.51067 4.42534,-0.848 7.60934,-1.192 10.11334,-0.152 2.10266,0.87467 5.648,-1.02 8.6,-0.0867 2.952,0.93334 6.73333,3.004 6.73333,3.004 l -1.04667,0.976 c 0,0 -0.932,6.452 -10.564,6.452 -9.63333,0 -17.56666,-2.79067 -21.05333,-4.88266 -3.488,-2.09334 -7.92133,-5.06534 -4.74533,-4.8"
       style="fill:#c14242;fill-opacity:1;fill-rule:nonzero;stroke:none;stroke-width:1.33333"
       id="path37826" />
    <path
       d="m 327.02893,196.55094 c 0.21866,-0.108 0.18,-0.21467 0.30266,-0.384 0.13734,-0.188 0.32934,-0.33867 0.5,-0.49733 0,0 -3.78133,-2.06934 -6.73333,-3.00267 -2.952,-0.93333 -6.49733,0.96 -8.6,0.0867 -2.504,-1.04134 -5.688,-0.696 -10.11333,0.15066 -4.50267,0.86267 -11.96267,0.512 -11.96267,0.512 -0.508,-0.0427 -0.32267,0.31467 -0.0293,0.55467 0.35466,0.28933 0.81866,0.40133 1.18266,0.688 0.34267,0.272 0.61867,0.37733 1.05467,0.508 1.084,0.324 2.17733,0.62267 3.27067,0.91867 1.264,0.34266 2.536,0.68133 3.84,0.82933 1.284,0.148 2.56133,-0.005 3.84666,-0.024 0.75334,-0.012 1.50534,-0.0467 2.25734,-0.10667 0.64533,-0.052 1.31866,-0.204 1.96666,-0.17466 0.384,0.0173 0.73467,0.176 1.12134,0.192 0.56266,0.024 1.10533,0.032 1.65466,0.16666 0.576,0.14 1.13334,0.34267 1.73334,0.332 0.896,-0.0133 3.51333,0.10134 4.29333,-0.0707 0.97333,-0.21467 1.98267,-0.54667 2.99467,-0.632 1.164,-0.0973 2.3,0.29866 3.45866,0.34133 0.7,0.0253 1.4,-0.016 2.09734,-0.0867 0.59066,-0.0587 1.31466,-0.0293 1.864,-0.30133"
       style="opacity:0.199997;fill:#000000;fill-opacity:1;fill-rule:nonzero;stroke:none;stroke-width:1.33333"
       id="path37836" />
    <path
       d="m 313.03786,181.19681 c -0.612,1.36933 -1.19867,2.764 -1.676,4.188 -0.49333,1.47066 -0.32533,3.27733 1.13867,4.088 -0.0293,-0.0173 -0.208,-0.74667 -0.24667,-0.84134 -0.52267,-1.264 -0.16667,-3.064 0.0947,-4.368 0.18933,-0.94266 0.29866,-2.19333 0.68933,-3.06666"
       style="fill:#000000;fill-opacity:1;fill-rule:nonzero;stroke:none;stroke-width:1.33333"
       id="path37846" />
    <path
       d="m 326.24039,196.99921 c 0.39334,-0.0573 0.744,-0.0493 1.13734,-0.009 0.212,0.0213 0.46266,-0.0373 0.556,-0.252 0.0467,-0.11066 0.0413,-0.24 0.0267,-0.36266 -0.052,-0.412 -0.20533,-0.80667 -0.43733,-1.13067 -0.0493,-0.068 -0.10667,-0.136 -0.18267,-0.152 -0.12133,-0.0253 -0.22533,0.0907 -0.31066,0.192 -0.696,0.82533 -1.616,1.12533 -2.608,1.13067 -0.50667,0.003 -1.012,-0.0493 -1.51867,-0.0307 -1.108,0.0427 -2.14267,-0.33467 -3.224,-0.53467 -1.904,-0.35333 -3.87333,1.46 -6.08267,1.224 -1.27333,-0.136 -3.596,-0.94533 -4.84133,-1.12266 -1.164,-0.16534 -2.172,-0.216 -3.328,0.056 -1.56667,0.36933 -3.05867,0.3 -4.63333,0.356 -1.528,0.0547 -3.044,-0.22534 -4.51867,-0.60534 -0.804,-0.20666 -1.61333,-0.31733 -2.40133,-0.59466 -0.864,-0.304 -1.69067,-0.71067 -2.45734,-1.212 -0.42533,-0.27867 -0.83066,-0.58534 -1.25466,-0.868 -0.056,-0.0373 -0.116,-0.0747 -0.184,-0.0773 -0.076,-0.003 -0.14534,0.0413 -0.208,0.0853 -0.396,0.27333 -0.756,0.59866 -1.06934,0.964 -0.04,0.0467 -0.0813,0.0987 -0.0827,0.15866 -0.003,0.10134 0.10533,0.17334 0.20533,0.176 0.1,0.003 0.19467,-0.0413 0.28933,-0.0733 0.828,-0.28267 1.84134,0.34133 2.532,0.74933 0.63867,0.37734 1.32267,0.47067 1.99734,0.732 2.53066,0.98 5.14666,1.53334 7.812,1.76667 1.70266,0.14933 3.4,-0.17067 5.09866,-0.252 0.94534,-0.044 1.89867,-0.0267 2.83467,0.14133 0.92533,0.16667 3.05733,0.4 3.996,0.49067 1.29067,0.12533 2.89067,-0.26533 4.03067,-0.43867 1.23466,-0.18933 2.48133,-0.196 3.72266,-0.15466 0.88667,0.0293 1.77334,0.104 2.66134,0.0773 0.82533,-0.024 1.63066,-0.30933 2.44266,-0.42933"
       style="fill:#000000;fill-opacity:1;fill-rule:nonzero;stroke:none;stroke-width:1.33333"
       id="path37850" />
  </g>
  <g
     inkscape:groupmode="layer"
     id="layer6"
     inkscape:label="Tellarite Mouth">
    <path
       id="path155035-8"
       style="display:inline;fill:#c14242;fill-opacity:1;stroke:none;stroke-width:1px;stroke-linecap:butt;stroke-linejoin:miter;stroke-opacity:1"
       d="m 311.66602,189.47266 c -0.71926,-0.005 -1.26757,0.05 -1.66407,0.20703 -0.9938,0.39276 -16.64478,4.19601 -21.46484,5.125 l -0.74023,-0.22852 0.47656,0.2793 c -0.19663,0.0366 -0.50142,0.10097 -0.65039,0.125 0,0 0.6481,0.0259 0.92773,0.0371 0,0 5.25396,3.94057 7.95886,4.8125 2.70491,0.87193 6.3689,1.55514 9.43422,2.55618 1.54923,0.50593 3.07963,1.39003 4.91434,2.5931 2.14717,1.40795 3.51355,3.83945 3.51355,3.83945 l 2.65186,-2.09201 c 2.43901,-2.05832 4.65952,-3.88694 7.55256,-5.54125 0,0 3.14649,-2.72902 3.89844,-3.89649 0.75195,-1.16747 0.99023,-2.64062 0.99023,-2.64062 0.14011,-0.0112 0.26739,-0.0263 0.37305,-0.0508 0,0 -5.94439,-3.76899 -7.17773,-4.70899 -1.23333,-0.94134 -2.27243,0.10387 -5.8711,-0.10547 -2.25,-0.13083 -3.92428,-0.30256 -5.12304,-0.31054 z m -22.3379,5.57422 c 0.59625,0.0231 1.19731,0.0433 2.04493,0.0742 L 290,195.25391 Z"
       sodipodi:nodetypes="ccccccczssccczcccssccccc" />
    <path
       d="m 329.83786,194.59774 c 0,0 -5.94533,-3.76933 -7.17867,-4.70933 -1.23333,-0.94134 -2.27066,0.104 -5.86933,-0.10534 -3.6,-0.20933 -5.73067,-0.52266 -6.788,-0.104 -1.056,0.41734 -18.824,4.728 -22.37867,5.30134 0,0 13.988,0.57333 14.676,0.344 0.688,-0.22934 6.07734,-1.49067 7.912,-1.26134 1.83467,0.22934 5.38934,0.688 6.87867,0.344 1.49067,-0.344 3.66933,-1.03066 3.66933,-1.03066 0,0 7.264,1.64133 9.07867,1.22133"
       style="display:inline;opacity:0.199997;fill:#000000;fill-opacity:1;fill-rule:nonzero;stroke:none;stroke-width:1.33333"
       id="path103622-3" />
    <path
       d="m 322.92973,193.37801 c -1.06534,-0.26934 -1.74267,-0.764 -2.904,-0.54 -1.16267,0.22533 -7.21334,0.58533 -8.52,0.40533 -1.30667,-0.18 -6.584,0.584 -8.37467,1.21333 -1.09867,0.38667 -2.46533,0.32 -3.61067,0.37334 -2.89733,0.13333 -5.8,0.148 -8.7,0.20533 -0.65866,0.0133 -1.372,0.0107 -1.9,-0.38267 -0.50933,-0.37733 -0.676,-1.00266 -1.04533,-1.49066 -0.13333,-0.176 -0.32,-0.34534 -0.54133,-0.34 -0.15867,0.003 -0.29867,0.0947 -0.42534,0.188 -0.92533,0.67733 -1.66933,1.6 -2.136,2.648 0.048,-0.10934 1.40534,-0.064 1.576,-0.072 2.668,-0.108 5.33867,-0.076 8.00534,0.048 2.55333,0.12 5.096,0.44533 7.64933,0.12933 0.59067,-0.0733 1.17867,-0.176 1.75733,-0.31733 4.028,-0.984 7.21334,0.136 12.088,0.136 3.18,0 4.23867,-1.772 6.78267,-1.18134 2.544,0.59067 7.20667,0.19734 7.20667,0.19734 0,0 -5.84267,-0.95067 -6.908,-1.22"
       style="display:inline;fill:#000000;fill-opacity:1;fill-rule:nonzero;stroke:none;stroke-width:1.33333"
       id="path103636-0" />
    <path
       id="path9795-0"
       style="display:inline;fill:#000000;fill-opacity:1;fill-rule:nonzero;stroke:none;stroke-width:1.33333"
       d="m 324.75,200.89844 c 0,0 -3.17299,1.46796 -4.16056,2.28948 -0.98758,0.82151 -1.94853,1.50749 -2.96698,2.41796 -1.01845,0.91047 -1.86062,1.73362 -3.04629,2.69881 -0.11341,0.028 -0.57505,-0.84467 -1.27969,-1.5873 -0.69012,-0.72732 -1.10418,-1.29468 -3.30487,-2.84068 -0.42553,-0.29895 -1.37642,-0.68448 -3.56667,-1.45639 -1.93504,-0.68196 -3.29408,-0.93204 -3.29408,-0.93204 0,0 3.19309,1.27903 5.71438,2.77833 1.01103,0.60121 1.92834,1.22957 2.80397,2.01497 1.00341,0.9 2.48946,3.55826 2.48946,3.55826 0,0 1.39927,-0.97477 2.16432,-1.72323 1.26658,-1.23912 2.17778,-2.29154 3.59237,-3.42563 3.45366,-2.76882 4.85464,-3.79254 4.85464,-3.79254 z"
       sodipodi:nodetypes="czzcssscsscssc" />
    <path
       id="path83845"
       style="display:inline;opacity:0.199997;fill:#000000;fill-opacity:1;fill-rule:nonzero;stroke:none;stroke-width:1.33333"
       d="m 313.55469,207.27734 c -5.67029,-4.63485 -2.5635,-1.64979 -4.76643,-3.67922 -4.50296,-2.05711 -12.33514,-3.80125 -12.33514,-3.80124 0,0 7.92739,5.00202 12.62779,7.68168 1.53863,0.87716 3.74583,2.53739 5.21022,3.29637 1.91807,-1.11883 3.59248,-2.2147 5.31373,-3.4338 4.79844,-3.39858 4.98015,-6.0429 5.14514,-6.44269 -1.16208,0.76613 -2.01726,1.00542 -3.87576,2.38829 -1.72209,1.28138 -2.19114,1.58072 -3.51486,2.79335 l -2.94921,2.74122 z"
       sodipodi:nodetypes="cccscscsccc" />
    <path
       style="display:inline;fill:#000000;fill-opacity:0.3;stroke:none;stroke-width:1px;stroke-linecap:butt;stroke-linejoin:miter;stroke-opacity:1"
       d="m 315.80108,205.7501 c 0,0 0.45356,-0.78482 0.65917,-1.61796 0.20561,-0.83314 0.41493,-2.362 0.32958,-3.38572 -0.0854,-1.02372 -0.37658,-1.81681 -0.71909,-2.66663 -0.34251,-0.84982 -0.98094,-1.9477 -1.31834,-2.39698 -0.3374,-0.44928 -0.44943,-0.44943 -0.44943,-0.44943 l -4.28459,-0.47939 c 0,0 1.16585,0.92845 1.8277,1.58799 0.66185,0.65954 1.61487,1.59913 2.09735,2.39697 0.48248,0.79784 0.60689,1.38798 0.8689,2.24716 0.26201,0.85918 0.49857,2.11125 0.65917,2.90633 0.1606,0.79508 0.32958,1.85766 0.32958,1.85766 z"
       id="path83082"
       sodipodi:nodetypes="czzzzcczzzzc" />
  </g>
  <g
     inkscape:groupmode="layer"
     id="layer5"
     inkscape:label="Pakled Mouth"
     style="display:none"
     sodipodi:insensitive="true">
    <path
       id="path1"
       style="fill:#c14242;fill-opacity:1;fill-rule:nonzero;stroke:none;stroke-width:1.33333"
       d="m 309.625,190.39844 c -0.71823,-0.005 -1.27703,0.0546 -1.70703,0.22656 -1.14667,0.45866 -16.74026,3.78213 -20.29492,4.35547 0,0 0.72323,0.0271 1.12304,0.043 0.034,0.0254 4.42876,3.21328 7.4296,4.32523 3.11576,1.15453 6.51909,2.14672 9.00619,2.83078 2.4871,0.68406 4.33035,1.96331 4.33035,1.96331 l 3.02072,2.30436 1.98844,2.37226 1.49609,-1.09571 c 1.90667,-1.54106 2.96905,-2.56946 4.82385,-4.07644 2.30289,-1.87104 3.71912,-2.64891 5.1863,-3.74229 1.60477,-1.23835 3.68331,-5.28971 3.68331,-5.28971 0.0401,-0.007 0.091,-0.009 0.12695,-0.0176 0,0 -8.27659,-2.71215 -9.30859,-3.74414 -1.032,-1.032 -2.29237,0.1141 -5.84571,-0.11524 -2.22166,-0.14333 -3.86153,-0.33089 -5.05859,-0.33984 z"
       sodipodi:nodetypes="ssccszccccscccsss" />
    <path
       id="path2"
       style="opacity:0.199997;fill:#000000;fill-opacity:1;fill-rule:nonzero;stroke:none;stroke-width:1.33333"
       d="m 313.09405,207.28185 -2.06227,-2.15741 c 0,0 -1.53022,-0.79076 -2.38447,-1.57773 -4.24506,-2.22079 -12.19419,-3.99659 -12.19419,-3.99658 0,0 7.94616,4.42852 12.91582,7.32165 1.41415,0.82326 3.4578,3.56744 4.92219,4.32642 2.01092,-1.05101 3.78984,-3.13619 5.43217,-4.45915 4.65913,-4.41783 4.86171,-5.68757 5.0267,-6.08736 -1.16208,0.76613 -1.77851,1.45609 -3.78997,2.70338 l -1.51635,1.38563 -2.12618,1.8464 c -0.81556,0.78811 -1.54738,1.36684 -2.90733,1.98745 z"
       sodipodi:nodetypes="ccccscscccccc" />
    <path
       d="m 329.83786,194.59774 c 0,0 -8.276,-2.712 -9.308,-3.744 -1.032,-1.032 -2.29333,0.11467 -5.84667,-0.11467 -3.55466,-0.22933 -5.61866,-0.57333 -6.76533,-0.11466 -1.14667,0.45866 -16.74,3.78266 -20.29467,4.356 0,0 13.988,0.57333 14.676,0.344 0.688,-0.22934 6.07734,-1.49067 7.912,-1.26134 1.83467,0.22934 5.38934,0.688 6.87867,0.344 1.49067,-0.344 3.66933,-1.03066 3.66933,-1.03066 0,0 7.264,1.64133 9.07867,1.22133"
       style="opacity:0.199997;fill:#000000;fill-opacity:1;fill-rule:nonzero;stroke:none;stroke-width:1.33333"
       id="path3" />
    <path
       d="m 322.92973,193.37801 c -1.06534,-0.26934 -1.74267,-0.764 -2.904,-0.54 -1.16267,0.22533 -7.21334,0.58533 -8.52,0.40533 -1.30667,-0.18 -6.584,0.584 -8.37467,1.21333 -1.09867,0.38667 -2.46533,0.32 -3.61067,0.37334 -2.89733,0.13333 -5.8,0.148 -8.7,0.20533 -0.65866,0.0133 -1.372,0.0107 -1.9,-0.38267 -0.50933,-0.37733 -0.676,-1.00266 -1.04533,-1.49066 -0.13333,-0.176 -0.32,-0.34534 -0.54133,-0.34 -0.15867,0.003 -0.29867,0.0947 -0.42534,0.188 -0.92533,0.67733 -1.66933,1.6 -2.136,2.648 0.048,-0.10934 1.40534,-0.064 1.576,-0.072 2.668,-0.108 5.33867,-0.076 8.00534,0.048 2.55333,0.12 5.096,0.44533 7.64933,0.12933 0.59067,-0.0733 1.17867,-0.176 1.75733,-0.31733 4.028,-0.984 7.21334,0.136 12.088,0.136 3.18,0 4.23867,-1.772 6.78267,-1.18134 2.544,0.59067 7.20667,0.19734 7.20667,0.19734 0,0 -5.84267,-0.95067 -6.908,-1.22"
       style="fill:#000000;fill-opacity:1;fill-rule:nonzero;stroke:none;stroke-width:1.33333"
       id="path5" />
    <path
       id="path4"
       style="fill:#000000;fill-opacity:1;fill-rule:nonzero;stroke:none;stroke-width:1.33333"
       d="m 325.50541,200.42136 c 0,0 -2.86282,1.46137 -4.69858,2.79373 -1.83576,1.33236 -2.16592,1.48032 -3.18437,2.39079 -1.01845,0.91047 -1.86062,1.73362 -3.04629,2.69881 -0.11341,0.028 -0.57505,-0.84467 -1.27969,-1.5873 -0.69012,-0.72732 -1.10418,-1.29468 -3.30487,-2.84068 -0.42553,-0.29895 -1.37642,-0.68448 -3.56667,-1.45639 -1.93504,-0.68196 -4.75441,-1.27791 -4.75441,-1.27791 0,0 4.11733,1.64082 6.69297,3.22164 1.00252,0.6153 2.24704,1.45822 3.12267,2.24362 1.00341,0.9 2.6525,3.23217 2.6525,3.23217 0,0 1.35452,-1.02343 2.16432,-1.72323 1.40245,-1.21195 2.368,-1.99263 3.78259,-3.12672 3.45366,-2.76882 5.41983,-4.56853 5.41983,-4.56853 z"
       sodipodi:nodetypes="czzcssscsscssc" />
  </g>
  <g
     inkscape:groupmode="layer"
     id="layer1"
     inkscape:label="Revised Mouth"
     style="display:none;opacity:1"
     sodipodi:insensitive="true">
    <path
       id="path154442"
       style="fill:#c14242;fill-opacity:1;fill-rule:nonzero;stroke:none;stroke-width:1.33333"
       d="m 308.29933,190.625 c -2.00131,-0.0312 -15.32861,3.39723 -19.86378,4.20898 2.04452,1.95896 5.22942,3.36822 7.65737,4.30004 3.22268,1.19656 12.00811,2.8704 12.00811,2.8704 l 9.25832,0.36009 5.93138,-1.2283 c 0,0 2.64862,-1.19119 3.75619,-2.78213 1.10758,-1.59093 1.66725,-3.70463 1.66725,-3.70463 l 0.71441,-0.0807 c -1.9618,-0.65948 -7.91256,-3.84019 -9.28067,-3.80999 -1.3681,0.0302 -4.29521,0.62703 -5.52791,0.63656 -1.2327,0.01 -4.3194,-0.73906 -6.3207,-0.7703 z"
       sodipodi:nodetypes="cccccczcczzzc" />
    <path
       d="m 310.89893,202.58228 c 3.44,0.45867 10.964,-0.32 13.852,-2.224 2.888,-1.90399 0.208,-0.504 0,0 -0.208,0.504 -0.0933,7.384 -10.18267,7.04 -10.09067,-0.344 -18.116,-8.14133 -18.116,-8.14133 0,0 11.00667,2.86667 14.44667,3.32533"
       style="opacity:0.199997;fill:#000000;fill-opacity:1;fill-rule:nonzero;stroke:none;stroke-width:1.33333"
       id="path9769" />
    <path
       d="m 320.12368,190.75872 c -2.40912,0.0485 -4.13141,0.61225 -5.44049,0.61594 -1.30908,0.004 -4.11394,-0.74544 -6.38397,-0.75025 -1.59494,-0.003 -17.12136,3.78266 -20.67603,4.356 0,0 13.988,0.57333 14.676,0.344 0.688,-0.22934 6.07734,-1.49067 7.912,-1.26134 1.83467,0.22934 5.38934,0.688 6.87867,0.344 1.49067,-0.344 3.66933,-1.03066 3.66933,-1.03066 0,0 6.69472,1.7462 8.98878,1.20635 0,0 -0.35103,-0.13932 -0.99301,-0.35767 -0.79594,-0.27071 -7.49805,-3.48919 -8.63128,-3.46637 z"
       style="opacity:0.199997;fill:#000000;fill-opacity:1;fill-rule:nonzero;stroke:none;stroke-width:1.33333"
       id="path9785"
       sodipodi:nodetypes="szscsscccss" />
    <path
       d="m 303.13066,200.94908 c 0,0 5.72267,1.18134 12.29333,0.788 6.57067,-0.39466 9.32667,-1.37866 9.32667,-1.37866 0,0 -4.02667,3.74133 -9.32667,3.74133 -5.29866,0 -12.29333,-3.15067 -12.29333,-3.15067"
       style="fill:#000000;fill-opacity:1;fill-rule:nonzero;stroke:none;stroke-width:1.33333"
       id="path9795" />
    <path
       d="m 322.92973,193.37801 c -1.06534,-0.26934 -1.74267,-0.764 -2.904,-0.54 -2.18138,1.06427 -5.65531,0.85499 -8.52,0.40533 -1.30305,-0.20454 -6.584,0.584 -8.37467,1.21333 -1.09867,0.38667 -2.46533,0.32 -3.61067,0.37334 -2.89733,0.13333 -5.8,0.148 -8.7,0.20533 -0.65866,0.0133 -1.372,0.0107 -1.9,-0.38267 -0.50933,-0.37733 -0.676,-1.00266 -1.04533,-1.49066 -0.13333,-0.176 -0.32,-0.34534 -0.54133,-0.34 -0.15867,0.003 -0.29867,0.0947 -0.42534,0.188 -0.92533,0.67733 -1.66933,1.6 -2.136,2.648 0.048,-0.10934 1.40534,-0.064 1.576,-0.072 2.668,-0.108 5.33867,-0.076 8.00534,0.048 2.55333,0.12 5.096,0.44533 7.64933,0.12933 0.59067,-0.0733 1.17867,-0.176 1.75733,-0.31733 4.028,-0.984 7.21334,0.136 12.088,0.136 3.18,0 4.23867,-1.772 6.78267,-1.18134 2.544,0.59067 7.20667,0.19734 7.20667,0.19734 0,0 -5.84267,-0.95067 -6.908,-1.22"
       style="fill:#000000;fill-opacity:1;fill-rule:nonzero;stroke:none;stroke-width:1.33333"
       id="path9799"
       sodipodi:nodetypes="ccsccccccccccccsscc" />
  </g>
  <g
     inkscape:groupmode="layer"
     id="layer2"
     inkscape:label="Philtrum">
    <path
       d="m 313.49186,179.92254 c 0,0 -1.56,6.324 -0.65733,7.96667 0.904,1.64133 2.54666,1.724 2.54666,1.724 0,0 -2.05333,-1.88934 -1.80666,-4.10667 0.24533,-2.21733 -0.0827,-5.584 -0.0827,-5.584"
       style="opacity:1;fill:#000000;fill-opacity:1;fill-rule:nonzero;stroke:none;stroke-width:1.33333"
       id="path9803" />
  </g>
</svg>
