<?xml version="1.0" encoding="UTF-8" standalone="no"?>
<!-- Created with Inkscape (http://www.inkscape.org/) -->

<svg
   version="1.1"
   id="svg154257"
   width="400"
   height="400"
   viewBox="0 0 400 400"
   sodipodi:docname="Mouth4.svg"
   inkscape:version="1.3 (0e150ed, 2023-07-21)"
   xmlns:inkscape="http://www.inkscape.org/namespaces/inkscape"
   xmlns:sodipodi="http://sodipodi.sourceforge.net/DTD/sodipodi-0.dtd"
   xmlns="http://www.w3.org/2000/svg"
   xmlns:svg="http://www.w3.org/2000/svg">
  <defs
     id="defs154261" />
  <sodipodi:namedview
     id="namedview154259"
     pagecolor="#ffffff"
     bordercolor="#666666"
     borderopacity="1.0"
     inkscape:showpageshadow="2"
     inkscape:pageopacity="0.0"
     inkscape:pagecheckerboard="0"
     inkscape:deskcolor="#d1d1d1"
     showgrid="false"
     inkscape:zoom="9.93"
     inkscape:cx="293.70594"
     inkscape:cy="201.00705"
     inkscape:window-width="2176"
     inkscape:window-height="1235"
     inkscape:window-x="2248"
     inkscape:window-y="87"
     inkscape:window-maximized="0"
     inkscape:current-layer="g6">
    <inkscape:page
       x="0"
       y="0"
       id="page154263"
       width="400"
       height="400"
       margin="0"
       bleed="0" />
  </sodipodi:namedview>
  <g
     id="g154265"
     inkscape:groupmode="layer"
     inkscape:label="Standard Mouth"
     style="display:none"
     sodipodi:insensitive="true">
    <path
       id="path144019"
       style="opacity:1;fill:#cd976d;fill-opacity:1;fill-rule:nonzero;stroke:none;stroke-width:1.33333"
       d="m 312.11719,188.72656 c -0.61642,-0.005 -1.08629,0.0449 -1.42578,0.18946 -0.90667,0.38533 -16.13498,5.49111 -19.18164,6.06445 0,0 3.13089,0.14978 6.27343,0.26562 l -7.89843,-0.0937 c 0,0 5.12319,3.11666 6.95312,3.89844 1.82993,0.78178 2.02097,0.61622 3.79492,1.16016 1.77395,0.54394 4.23233,1.47357 6.84961,2.10742 2.61728,0.63385 6.21727,1.82275 8.84961,1.58008 2.63234,-0.24267 5.01989,-1.67112 6.42969,-2.42383 1.4098,-0.75271 1.47245,-0.98395 2.21289,-1.58008 0.74044,-0.59613 1.5518,-1.11806 2.00195,-2.00195 0.45015,-0.88389 0.52539,-2.95117 0.52539,-2.95117 l -0.91797,-0.29102 c 0.46166,0.0263 0.85298,0.0165 1.10938,-0.0527 0,0 -5.09502,-4.62162 -6.15234,-5.48828 -1.05733,-0.868 -1.94592,0.0963 -5.03125,-0.0957 -1.92833,-0.12083 -3.36523,-0.27943 -4.39258,-0.28711 z m 7.79492,4.65039 c 0,0 0.86418,0.22678 2.02539,0.49024 l -1.81055,-0.18946 -1.60351,0.1836 c 0.76257,-0.2568 1.38867,-0.48438 1.38867,-0.48438 z m -9.37109,0.66016 c 0.12039,0.003 0.23174,0.0111 0.33007,0.0254 0.22249,0.0325 0.52256,0.0746 0.79493,0.11328 l -1.86719,0.0293 -3.50195,0.50781 c 1.43917,-0.34928 3.21117,-0.70412 4.24414,-0.67578 z" />
    <path
       d="m 310.87226,202.80627 c 3.46267,0.49467 11.03867,-0.92 13.94667,-2.824 2.90666,-1.904 0.208,-0.504 0,0 -0.20934,0.504 -0.0947,8.396 -10.25334,8.024 -10.15733,-0.372 -18.23866,-9.12533 -18.23866,-9.12533 0,0 11.08266,3.43066 14.54533,3.92533"
       style="opacity:0.199997;fill:#000000;fill-opacity:1;fill-rule:nonzero;stroke:none;stroke-width:1.33333"
       id="path157135" />
    <path
       d="m 327.69359,194.59774 c 0,0 -5.096,-4.62133 -6.15333,-5.488 -1.05733,-0.868 -1.94533,0.096 -5.03067,-0.096 -3.08533,-0.19333 -4.912,-0.48267 -5.81733,-0.0973 -0.90667,0.38533 -16.136,5.49066 -19.18267,6.064 0,0 11.99067,0.57333 12.58,0.344 0.58934,-0.22934 5.208,-1.49067 6.78134,-1.26134 1.572,0.22934 4.61866,0.688 5.896,0.344 1.27733,-0.344 3.14533,-1.03066 3.14533,-1.03066 0,0 6.22667,1.64133 7.78133,1.22133"
       style="opacity:0.199997;fill:#000000;fill-opacity:1;fill-rule:nonzero;stroke:none;stroke-width:1.33333"
       id="path157151" />
    <path
       d="m 302.97039,200.7332 c 0,0 5.76134,1.74534 12.37734,1.32 6.616,-0.42533 9.38933,-1.91066 9.38933,-1.91066 0,0 -4.05467,4.46133 -9.38933,4.46133 -5.33467,0 -12.37734,-3.87067 -12.37734,-3.87067"
       style="fill:#000000;fill-opacity:1;fill-rule:nonzero;stroke:none;stroke-width:1.33333"
       id="path157161" />
    <path
       d="m 321.77226,193.37801 c -0.91333,-0.26934 -1.49333,-0.764 -2.48933,-0.54 -0.996,0.22533 -6.18267,0.58533 -7.30267,0.40533 -1.12,-0.18 -5.64267,0.584 -7.17867,1.21333 -0.94133,0.38667 -2.112,0.32 -3.09466,0.37334 -1.37334,0.0733 -2.748,0.11066 -4.12267,0.14 -1.284,0.0267 -2.608,0.15733 -3.888,0.028 -0.77067,-0.0787 -1.72133,-0.26 -2.35333,-0.74267 -0.704,-0.53733 -0.31467,-1.224 -0.34267,-1.97333 0.003,0.0653 -0.96133,1.172 -1.07867,1.31866 -0.51466,0.63734 -1.02933,1.544 -1.09733,2.37467 -0.0533,0.668 0.96,0.484 1.34,0.38133 2.156,-0.58666 4.46667,-0.848 6.728,-0.776 2.33333,0.0733 4.60267,0.52134 6.94267,0.18267 0.50666,-0.0733 1.01066,-0.176 1.50666,-0.31733 3.452,-0.984 6.18267,0.136 10.36134,0.136 2.72533,0 3.63333,-1.772 5.81333,-1.18134 1.16267,0.31467 2.41733,0.33867 3.61467,0.324 0.472,-0.005 1.02266,-0.22133 1.46,-0.044 0.208,0.0853 1.11466,0.936 0.91866,1.20667 0.25467,-0.35333 0.18,-0.71867 0.156,-1.11733 -0.0107,-0.19467 -0.16533,-0.85067 -0.10533,-0.99467 -0.0267,0.0653 -0.048,0.088 -0.0587,0.168 -0.312,0.13467 -0.412,0.27067 -0.748,0.31733 -0.30666,0.0427 -0.64266,0.0307 -0.94666,-0.028 -0.53467,-0.1 -1.068,-0.20933 -1.60267,-0.31866 -0.80933,-0.164 -1.63867,-0.30134 -2.432,-0.536"
       style="fill:#000000;fill-opacity:1;fill-rule:nonzero;stroke:none;stroke-width:1.33333"
       id="path157165" />
  </g>
  <g
     inkscape:groupmode="layer"
     id="layer1"
     inkscape:label="Tellarite Mouth">
    <path
       id="path144019-8"
       style="fill:#cd976d;fill-opacity:1;fill-rule:nonzero;stroke:none;stroke-width:1.33333"
       d="m 312.11719,188.72656 c -0.61642,-0.005 -1.08629,0.0449 -1.42578,0.18946 -0.90667,0.38533 -16.13498,5.49111 -19.18164,6.06445 0,0 -0.95011,0.12107 -1.625,0.17192 0,0 5.12319,3.11666 6.95312,3.89844 1.82993,0.78178 2.03618,0.67425 3.79492,1.26553 1.85298,0.62297 3.96125,1.39618 6.69155,2.39721 2.65553,0.97361 3.66063,1.39687 6.50019,2.4784 0.46456,0.17694 3.19518,1.86347 3.53103,1.79483 0.42414,-0.0867 2.52768,-2.29412 2.84252,-2.57585 1.87088,-1.67411 2.61887,-2.32359 4.35501,-3.88413 0.84663,-0.76099 1.89427,-1.43418 2.42345,-2.63419 0.40023,-0.90759 0.52539,-2.95117 0.52539,-2.95117 l -0.91797,-0.29102 c 0.46166,0.0263 0.85298,0.0165 1.10938,-0.0527 0,0 -5.09502,-4.62162 -6.15234,-5.48828 -1.05733,-0.868 -1.94592,0.0963 -5.03125,-0.0957 -1.92833,-0.12083 -3.36523,-0.27943 -4.39258,-0.28711 z"
       sodipodi:nodetypes="ccccsssssssscccccsc" />
    <path
       d="m 317.32014,206.93102 c 0.40827,-0.27091 3.36278,-3.16521 3.36278,-3.16521 2.00514,-1.75756 4.04169,-3.41977 4.55057,-3.86334 0,0 -0.50926,8.47583 -10.6679,8.10383 -10.15733,-0.372 -18.23866,-9.12533 -18.23866,-9.12533 0,0 7.36223,2.23375 12.17441,4.1624 1.28639,0.51557 5.34394,2.41019 8.8188,3.88765 z"
       style="opacity:0.199997;fill:#000000;fill-opacity:1;fill-rule:nonzero;stroke:none;stroke-width:1.33333"
       id="path157135-7"
       sodipodi:nodetypes="cscscsc" />
    <path
       d="m 327.69359,194.59774 c 0,0 -5.096,-4.62133 -6.15333,-5.488 -1.05733,-0.868 -1.94533,0.096 -5.03067,-0.096 -3.08533,-0.19333 -4.912,-0.48267 -5.81733,-0.0973 -0.90667,0.38533 -16.136,5.49066 -19.18267,6.064 0,0 11.99067,0.57333 12.58,0.344 0.58934,-0.22934 5.208,-1.49067 6.78134,-1.26134 1.572,0.22934 4.61866,0.688 5.896,0.344 1.27733,-0.344 3.14533,-1.03066 3.14533,-1.03066 0,0 6.22667,1.64133 7.78133,1.22133"
       style="opacity:0.199997;fill:#000000;fill-opacity:1;fill-rule:nonzero;stroke:none;stroke-width:1.33333"
       id="path157151-7" />
    <path
       d="m 312.56514,204.29691 c 0.30797,0.10313 3.02596,1.19835 4.88256,2.08684 1.96049,-1.78025 3.15655,-2.72337 3.69925,-3.19045 2.01212,-1.73173 3.77451,-2.97173 3.77451,-2.97173 0,0 -1.56399,1.47798 -4.44998,4.56654 -0.59471,0.63646 -3.05532,2.80097 -3.05532,2.80097 0,0 -4.71429,-1.94217 -5.4178,-2.17948 -4.68144,-1.57913 -9.31775,-4.51834 -9.31775,-4.51834 0,0 4.07916,1.46157 9.88453,3.40565 z"
       style="fill:#000000;fill-opacity:1;fill-rule:nonzero;stroke:none;stroke-width:1.33333"
       id="path157161-4"
       sodipodi:nodetypes="scscscscs" />
    <path
       d="m 321.77226,193.37801 c -0.91333,-0.26934 -1.49333,-0.764 -2.48933,-0.54 -0.996,0.22533 -6.18267,0.58533 -7.30267,0.40533 -1.12,-0.18 -5.64267,0.584 -7.17867,1.21333 -0.94133,0.38667 -2.112,0.32 -3.09466,0.37334 -1.37334,0.0733 -2.748,0.11066 -4.12267,0.14 -1.284,0.0267 -2.608,0.15733 -3.888,0.028 -0.77067,-0.0787 -1.72133,-0.26 -2.35333,-0.74267 -0.704,-0.53733 -0.31467,-1.224 -0.34267,-1.97333 0.003,0.0653 -0.96133,1.172 -1.07867,1.31866 -0.51466,0.63734 -1.02933,1.544 -1.09733,2.37467 -0.0533,0.668 0.96,0.484 1.34,0.38133 2.156,-0.58666 4.46667,-0.848 6.728,-0.776 2.33333,0.0733 4.60267,0.52134 6.94267,0.18267 0.50666,-0.0733 1.01066,-0.176 1.50666,-0.31733 3.452,-0.984 6.18267,0.136 10.36134,0.136 2.72533,0 3.63333,-1.772 5.81333,-1.18134 1.16267,0.31467 2.41733,0.33867 3.61467,0.324 0.472,-0.005 1.02266,-0.22133 1.46,-0.044 0.208,0.0853 1.11466,0.936 0.91866,1.20667 0.25467,-0.35333 0.18,-0.71867 0.156,-1.11733 -0.0107,-0.19467 -0.16533,-0.85067 -0.10533,-0.99467 -0.0267,0.0653 -0.048,0.088 -0.0587,0.168 -0.312,0.13467 -0.412,0.27067 -0.748,0.31733 -0.30666,0.0427 -0.64266,0.0307 -0.94666,-0.028 -0.53467,-0.1 -1.068,-0.20933 -1.60267,-0.31866 -0.80933,-0.164 -1.63867,-0.30134 -2.432,-0.536"
       style="fill:#000000;fill-opacity:1;fill-rule:nonzero;stroke:none;stroke-width:1.33333"
       id="path157165-4" />
    <path
       style="display:none;fill:#000000;fill-opacity:0.3;stroke:none;stroke-width:1px;stroke-linecap:butt;stroke-linejoin:miter;stroke-opacity:1"
       d="m 317.35083,205.30943 c 0,0 0.45356,-0.78482 0.65917,-1.61796 0.20561,-0.83314 0.34042,-2.28749 0.25507,-3.31121 -0.0854,-1.02372 -0.37658,-1.7423 -0.71909,-2.59212 -0.34251,-0.84982 -0.98094,-1.76142 -1.31834,-2.2107 -0.3374,-0.44928 -0.44943,-0.44943 -0.44943,-0.44943 l -4.28459,-0.47939 c 0,0 1.16585,0.92845 1.8277,1.58799 0.66185,0.65954 1.61487,1.41285 2.09735,2.21069 0.48248,0.79784 0.79317,1.42524 1.05518,2.28442 0.26201,0.85918 0.3868,1.73869 0.5474,2.72005 0.1606,0.98136 0.32958,1.85766 0.32958,1.85766 z"
       id="path83082"
       sodipodi:nodetypes="czzzzcczzzzc" />
  </g>
  <g
     inkscape:groupmode="layer"
     id="g6"
     inkscape:label="Pakled Mouth">
    <path
       id="path1"
       style="fill:#cd976d;fill-opacity:1;fill-rule:nonzero;stroke:none;stroke-width:1.33333"
       d="m 312.11719,188.72656 c -0.61642,-0.005 -1.08629,0.0449 -1.42578,0.18946 -0.90667,0.38533 -16.13498,5.49111 -19.18164,6.06445 0,0 -0.95011,0.12107 -1.625,0.17192 0,0 5.12319,3.11666 6.95312,3.89844 1.82993,0.78178 2.03618,0.67425 3.79492,1.26553 1.85298,0.62297 3.96125,1.39618 6.69155,2.39721 2.65553,0.97361 3.66063,1.39687 6.50019,2.4784 0.46456,0.17694 3.19518,1.86347 3.53103,1.79483 0.42414,-0.0867 2.52768,-2.29412 2.84252,-2.57585 1.87088,-1.67411 2.61887,-2.32359 4.35501,-3.88413 0.84663,-0.76099 1.89427,-1.43418 2.42345,-2.63419 0.40023,-0.90759 0.52539,-2.95117 0.52539,-2.95117 l -0.91797,-0.29102 c 0.46166,0.0263 0.85298,0.0165 1.10938,-0.0527 0,0 -5.09502,-4.62162 -6.15234,-5.48828 -1.05733,-0.868 -1.94592,0.0963 -5.03125,-0.0957 -1.92833,-0.12083 -3.36523,-0.27943 -4.39258,-0.28711 z"
       sodipodi:nodetypes="ccccsssssssscccccsc" />
    <path
       d="m 317.32014,206.93102 c 0.40827,-0.27091 3.36278,-3.16521 3.36278,-3.16521 2.00514,-1.75756 4.04169,-3.41977 4.55057,-3.86334 0,0 -0.50926,8.47583 -10.6679,8.10383 -10.15733,-0.372 -18.23866,-9.12533 -18.23866,-9.12533 0,0 7.36223,2.23375 12.17441,4.1624 1.28639,0.51557 5.34394,2.41019 8.8188,3.88765 z"
       style="opacity:0.199997;fill:#000000;fill-opacity:1;fill-rule:nonzero;stroke:none;stroke-width:1.33333"
       id="path2"
       sodipodi:nodetypes="cscscsc" />
    <path
       d="m 327.69359,194.59774 c 0,0 -5.096,-4.62133 -6.15333,-5.488 -1.05733,-0.868 -1.94533,0.096 -5.03067,-0.096 -3.08533,-0.19333 -4.912,-0.48267 -5.81733,-0.0973 -0.90667,0.38533 -16.136,5.49066 -19.18267,6.064 0,0 11.99067,0.57333 12.58,0.344 0.58934,-0.22934 5.208,-1.49067 6.78134,-1.26134 1.572,0.22934 4.61866,0.688 5.896,0.344 1.27733,-0.344 3.14533,-1.03066 3.14533,-1.03066 0,0 6.22667,1.64133 7.78133,1.22133"
       style="opacity:0.199997;fill:#000000;fill-opacity:1;fill-rule:nonzero;stroke:none;stroke-width:1.33333"
       id="path3" />
    <path
       d="m 312.56514,204.29691 c 0.30797,0.10313 3.02596,1.19835 4.88256,2.08684 1.96049,-1.78025 3.15655,-2.72337 3.69925,-3.19045 2.01212,-1.73173 3.77451,-2.97173 3.77451,-2.97173 0,0 -1.56399,1.47798 -4.44998,4.56654 -0.59471,0.63646 -3.05532,2.80097 -3.05532,2.80097 0,0 -4.71429,-1.94217 -5.4178,-2.17948 -4.68144,-1.57913 -9.31775,-4.51834 -9.31775,-4.51834 0,0 4.07916,1.46157 9.88453,3.40565 z"
       style="fill:#000000;fill-opacity:1;fill-rule:nonzero;stroke:none;stroke-width:1.33333"
       id="path4"
       sodipodi:nodetypes="scscscscs" />
    <path
       d="m 321.77226,193.37801 c -0.91333,-0.26934 -1.49333,-0.764 -2.48933,-0.54 -0.996,0.22533 -6.18267,0.58533 -7.30267,0.40533 -1.12,-0.18 -5.64267,0.584 -7.17867,1.21333 -0.94133,0.38667 -2.112,0.32 -3.09466,0.37334 -1.37334,0.0733 -2.748,0.11066 -4.12267,0.14 -1.284,0.0267 -2.608,0.15733 -3.888,0.028 -0.77067,-0.0787 -1.72133,-0.26 -2.35333,-0.74267 -0.704,-0.53733 -0.31467,-1.224 -0.34267,-1.97333 0.003,0.0653 -0.96133,1.172 -1.07867,1.31866 -0.51466,0.63734 -1.02933,1.544 -1.09733,2.37467 -0.0533,0.668 0.96,0.484 1.34,0.38133 2.156,-0.58666 4.46667,-0.848 6.728,-0.776 2.33333,0.0733 4.60267,0.52134 6.94267,0.18267 0.50666,-0.0733 1.01066,-0.176 1.50666,-0.31733 3.452,-0.984 6.18267,0.136 10.36134,0.136 2.72533,0 3.63333,-1.772 5.81333,-1.18134 1.16267,0.31467 2.41733,0.33867 3.61467,0.324 0.472,-0.005 1.02266,-0.22133 1.46,-0.044 0.208,0.0853 1.11466,0.936 0.91866,1.20667 0.25467,-0.35333 0.18,-0.71867 0.156,-1.11733 -0.0107,-0.19467 -0.16533,-0.85067 -0.10533,-0.99467 -0.0267,0.0653 -0.048,0.088 -0.0587,0.168 -0.312,0.13467 -0.412,0.27067 -0.748,0.31733 -0.30666,0.0427 -0.64266,0.0307 -0.94666,-0.028 -0.53467,-0.1 -1.068,-0.20933 -1.60267,-0.31866 -0.80933,-0.164 -1.63867,-0.30134 -2.432,-0.536"
       style="fill:#000000;fill-opacity:1;fill-rule:nonzero;stroke:none;stroke-width:1.33333"
       id="path5" />
  </g>
  <g
     inkscape:groupmode="layer"
     id="layer8"
     inkscape:label="Philtrum">
    <path
       d="m 313.49186,179.92254 c 0,0 -1.56,5.31467 -0.65733,6.696 0.904,1.38 2.54666,1.44933 2.54666,1.44933 0,0 -2.05333,-1.588 -1.80666,-3.452 0.24533,-1.864 -0.0827,-4.69333 -0.0827,-4.69333"
       style="fill:#000000;fill-opacity:1;fill-rule:nonzero;stroke:none;stroke-width:1.33333"
       id="path157169" />
  </g>
</svg>
