<?xml version="1.0" encoding="UTF-8" standalone="no"?>
<!-- Created with Inkscape (http://www.inkscape.org/) -->

<svg
   version="1.1"
   id="svg137594"
   width="400"
   height="400"
   viewBox="0 0 400 400"
   sodipodi:docname="Mouth6.svg"
   inkscape:version="1.2.2 (b0a8486, 2022-12-01)"
   xmlns:inkscape="http://www.inkscape.org/namespaces/inkscape"
   xmlns:sodipodi="http://sodipodi.sourceforge.net/DTD/sodipodi-0.dtd"
   xmlns="http://www.w3.org/2000/svg"
   xmlns:svg="http://www.w3.org/2000/svg">
  <defs
     id="defs137598" />
  <sodipodi:namedview
     id="namedview137596"
     pagecolor="#ffffff"
     bordercolor="#666666"
     borderopacity="1.0"
     inkscape:showpageshadow="2"
     inkscape:pageopacity="0.0"
     inkscape:pagecheckerboard="0"
     inkscape:deskcolor="#d1d1d1"
     showgrid="false"
     inkscape:zoom="2.5"
     inkscape:cx="194.4"
     inkscape:cy="200"
     inkscape:window-width="2207"
     inkscape:window-height="1220"
     inkscape:window-x="2011"
     inkscape:window-y="25"
     inkscape:window-maximized="0"
     inkscape:current-layer="layer13">
    <inkscape:page
       x="0"
       y="0"
       id="page137600"
       width="400"
       height="400" />
  </sodipodi:namedview>
  <g
     id="g137602"
     inkscape:groupmode="layer"
     inkscape:label="Page 1">
    <path
       id="path175972"
       style="opacity:1;fill:#cd976d;fill-opacity:1;fill-rule:nonzero;stroke:none;stroke-width:1.33333"
       d="m 311.33203,187.89844 c -0.17941,0.003 -0.33654,0.012 -0.4707,0.0273 -9.18666,1.04666 -17.26021,4.45636 -21.54688,6.56836 -2.07199,1.02133 -3.25976,1.74024 -3.25976,1.74024 0,0 0.981,0.0265 2.23828,0.0586 l -0.66797,0.082 c 0,0 2.85881,3.68957 6.05664,4.86523 3.19783,1.17567 4.62592,1.58102 8.56641,2.81446 3.94048,1.23344 11.32517,2.20441 14.53515,2.27929 3.20999,0.0749 3.91456,0.0508 5.65821,-0.5664 1.74364,-0.61721 3.45087,-1.86797 4.5961,-2.95107 1.14523,-1.0831 1.55873,-2.02423 1.89164,-3.27159 0.33435,-1.32077 0.5421,-2.05604 0.46733,-3.97851 -0.492,-2.408 -2.58658,-5.94827 -6.14257,-7.4336 -1.47067,-0.61334 -1.69448,0.37402 -5.23047,0.16602 -3.09516,-0.18317 -5.43553,-0.42484 -6.69141,-0.40039 z"
       sodipodi:nodetypes="scccccsssssccccss" />
    <path
       d="m 310.35666,205.87067 c -1.95467,-0.248 -5.424,-0.768 -9.45733,-2.44133 -3.91067,-1.62267 -7.95067,-1.73867 -7.95067,-1.73867 0,0 9.67067,9.32267 21.82933,9.71733 12.15734,0.396 12.02,-8.008 12.26934,-8.544 -3.48,2.02667 -12.54534,3.53467 -16.69067,3.00667"
       style="opacity:0.199997;fill:#000000;fill-opacity:1;fill-rule:nonzero;stroke:none;stroke-width:1.33333"
       id="path140356" />
    <path
       d="m 329.14706,195.40027 c -1.77333,0.48667 -5.976,-0.91733 -5.976,-0.91733 0,0 -4.11467,0.46533 -5.96533,0.864 -1.84934,0.39867 -6.26,-0.13333 -8.53734,-0.39867 -2.276,-0.26666 -5.52266,1.19734 -6.19466,1.46267 -0.67334,0.26667 -16.41867,-0.17733 -16.41867,-0.17733 0,0 1.188,-0.71734 3.26,-1.73867 4.28667,-2.112 12.36,-5.52267 21.54667,-6.56933 1.07333,-0.12267 3.62533,0.164 7.16266,0.37333 3.536,0.208 3.75867,-0.77867 5.22934,-0.16533 3.556,1.48533 5.65066,5.02533 6.14266,7.43333"
       style="opacity:0.199997;fill:#000000;fill-opacity:1;fill-rule:nonzero;stroke:none;stroke-width:1.33333"
       id="path140384" />
    <path
       d="m 300.89959,203.4296 c 1.412,0.844 3.54134,0.91867 5.064,1.176 1.54667,0.26267 3.12134,0.436 4.684,0.448 1.712,0.0133 3.41067,-0.364 5.12267,-0.336 2.43467,0.04 5.22267,0.644 7.52133,-0.632 1.256,-0.69733 2.80934,-0.784 4.048,-1.55466 -0.21066,0.13066 -0.72266,1.156 -0.992,1.44 -1.76266,1.868 -3.37066,3.18533 -5.71733,3.64666 -1.48133,0.292 -2.81467,-0.06 -4.3,0.13867 -1.64133,0.21867 -3.28267,0.70267 -4.94133,0.46267 -2.43334,-0.352 -4.744,-1.36134 -6.892,-2.78 -1.13734,-0.75067 -2.42534,-1.30934 -3.59734,-2.00934"
       style="fill:#000000;fill-opacity:1;fill-rule:nonzero;stroke:none;stroke-width:1.33333"
       id="path140394" />
    <path
       d="m 322.65413,194.08161 c -0.69067,-0.152 0.0627,-0.252 -0.77467,-0.20934 -0.772,0.0387 -1.656,0.716 -2.36533,0.812 -3.108,0.41734 -5.60267,-0.432 -8.688,-0.828 -1.62267,-0.20933 -5.78934,0.81867 -7.54,1.548 -1.07467,0.448 -2.40934,0.37067 -3.53067,0.432 -1.56533,0.0867 -3.13333,0.12934 -4.70133,0.16267 -1.464,0.032 -2.97467,0.18267 -4.43467,0.032 -0.88,-0.0893 -1.964,-0.3 -2.68533,-0.86133 -0.80267,-0.62267 -0.35867,-1.42 -0.39067,-2.288 0.003,0.0747 -1.096,1.35866 -1.23067,1.52933 -0.58533,0.73867 -1.17333,1.792 -1.25066,2.75467 -0.0613,0.77466 1.096,0.56133 1.528,0.44133 2.46,-0.68 5.09466,-0.98267 7.67466,-0.9 2.66,0.0867 5.24934,0.60533 7.91867,0.21333 0.57733,-0.0853 1.152,-0.204 1.71733,-0.368 2.29734,-0.66666 2.744,-0.88933 5.70134,-0.62266 1.44666,0.13066 4.08666,0.38533 5.44133,0.78666 1.20533,0.356 2.716,0.44667 3.91867,0.024 1.436,-0.50266 1.43066,-0.83866 2.95066,-1.14533 2.464,-0.49733 2.56534,0.144 4.56,0.12 0.53867,-0.007 1.16667,-0.25733 1.66534,-0.0507 0.23733,0.0987 1.27066,1.084 1.048,1.4 0.29066,-0.41066 0.20533,-0.83466 0.17866,-1.29733 -0.0133,-0.22533 -0.18933,-0.98667 -0.12133,-1.15333 -0.0307,0.0747 -0.0547,0.10133 -0.0653,0.19466 -0.35734,0.156 -0.47067,0.31334 -0.85334,0.368 -0.35066,0.0493 -0.73466,0.0347 -1.08,-0.032 -0.61066,-0.11733 -1.22,-0.244 -1.828,-0.36933 -0.87866,-0.18133 -1.82266,-0.48667 -2.76266,-0.69333"
       style="fill:#000000;fill-opacity:1;fill-rule:nonzero;stroke:none;stroke-width:1.33333"
       id="path140398" />
  </g>
  <g
     inkscape:groupmode="layer"
     id="layer13"
     inkscape:label="Philtrum">
    <path
       d="m 313.49186,179.79227 c 0,0 -2.62933,4.99067 -1.41067,6.21734 1.22,1.22666 4.48667,1.02 4.48667,1.02 0,0 -2.616,-1.41067 -2.508,-3.06667 0.108,-1.656 -0.568,-4.17067 -0.568,-4.17067"
       style="fill:#000000;fill-opacity:1;fill-rule:nonzero;stroke:none;stroke-width:1.33333"
       id="path140402" />
  </g>
</svg>
