<?xml version="1.0" encoding="UTF-8" standalone="no"?>
<!-- Created with Inkscape (http://www.inkscape.org/) -->

<svg
   version="1.1"
   id="svg1129"
   width="400"
   height="400"
   viewBox="0 0 400 400"
   sodipodi:docname="Mouth6Lipstick.svg"
   inkscape:version="1.3-beta (cedbd6c, 2023-05-28)"
   xmlns:inkscape="http://www.inkscape.org/namespaces/inkscape"
   xmlns:sodipodi="http://sodipodi.sourceforge.net/DTD/sodipodi-0.dtd"
   xmlns="http://www.w3.org/2000/svg"
   xmlns:svg="http://www.w3.org/2000/svg">
  <defs
     id="defs1133" />
  <sodipodi:namedview
     id="namedview1131"
     pagecolor="#ffffff"
     bordercolor="#666666"
     borderopacity="1.0"
     inkscape:showpageshadow="2"
     inkscape:pageopacity="0.0"
     inkscape:pagecheckerboard="0"
     inkscape:deskcolor="#d1d1d1"
     showgrid="false"
     inkscape:zoom="2.6275"
     inkscape:cx="199.80971"
     inkscape:cy="200"
     inkscape:window-width="2149"
     inkscape:window-height="1264"
     inkscape:window-x="2227"
     inkscape:window-y="26"
     inkscape:window-maximized="0"
     inkscape:current-layer="svg1129">
    <inkscape:page
       x="0"
       y="0"
       id="page1135"
       width="400"
       height="400"
       margin="0"
       bleed="0" />
  </sodipodi:namedview>
  <g
     id="g1137"
     inkscape:groupmode="layer"
     inkscape:label="Mouth">
    <path
       d="m 299.91959,201.90134 c 0,0 4.816,7.51733 13.45734,7.74266 8.64266,0.22534 9.98533,-3.39333 11.30666,-5.51466 1.32134,-2.12 -11.616,-0.11467 -11.616,-0.11467 0,0 -15.25733,-4.97866 -13.148,-2.11333"
       style="opacity:0.199997;fill:#000000;fill-opacity:1;fill-rule:nonzero;stroke:none;stroke-width:1.33333"
       id="path6627" />
    <path
       id="path6637"
       style="fill:#c14242;fill-opacity:1;fill-rule:nonzero;stroke:none;stroke-width:1.33333"
       d="m 300.94141,191.35352 c -3.364,1.33465 -11.53199,4.42419 -11.22266,4.63086 0.3495,-0.14625 0.89795,-0.16821 1.61914,-0.11719 0.11832,0.12418 1.467,1.5399 3.79883,3.94336 4.97466,5.13065 9.32892,8.84692 21.40625,8.15625 7.41065,-0.424 7.79117,-3.17433 9.58984,-6.34766 1.40733,-2.48465 2.05328,-4.99576 2.25781,-5.90039 1.04042,-0.13973 1.90852,-0.1635 2.5254,0.0195 0,0 -3.46718,-2.58899 -5.76184,-4.27165 -4.25067,-3.11599 -5.65153,-3.68017 -7.85488,-1.89827 -0.65467,0.49467 -1.09459,1.32717 -2.02564,1.2275 -0.93105,-0.0997 -1.5905,-1.2642 -2.9465,-1.9482 -0.48275,-0.2435 -1.04477,-0.39684 -2.68449,-0.27761 -1.63972,0.11923 -6.42194,1.87891 -8.70126,2.7835 z"
       sodipodi:nodetypes="cccccccccczszc" />
    <path
       d="m 312.61279,201.80294 c -0.13466,-0.0173 -0.29333,-0.084 -0.65066,-0.24667 -0.584,-0.26667 -1.072,-0.336 -1.66134,-0.29733 -0.19866,0.0133 -0.26,0.232 -0.45866,0.21733 -0.21067,-0.0173 -0.50934,-0.356 -0.72667,-0.44667 -0.75067,-0.312 -0.596,0.052 -1.31467,0.128 -0.564,0.06 -0.992,-0.47333 -1.57733,-0.59866 -0.51467,-0.11067 -1.212,0.22266 -1.60533,-0.0253 -0.12534,-0.0773 -0.236,-0.57866 -0.35734,-0.69333 -0.29333,-0.27733 -0.26666,-0.15466 -0.64133,-0.29733 -0.43067,-0.164 -1.052,-0.14267 -1.43333,-0.39867 -0.0973,-0.0653 -0.716,-0.86533 -0.556,-0.892 0.83066,-0.14266 1.564,0.49067 2.38533,0.544 0.17333,0.0107 0.23333,-0.25333 0.452,-0.232 0.14,0.0133 0.29733,0.13467 0.46667,0.15467 0.404,0.048 0.892,-0.016 1.27733,0.0453 0.44533,0.0707 0.456,0.27467 0.86667,0.424 0.372,0.13467 0.788,-0.0333 1.164,0.072 0.33066,0.092 0.54933,0.36934 0.91066,0.44267 0.476,0.096 0.78934,0.0347 1.24,0.192 0.84267,0.296 1.35067,0.13066 2.18667,0.28533 0.89733,0.168 1.948,0.088 2.84933,-0.028 0.35867,-0.0467 0.57867,-0.28933 0.92267,-0.37066 0.42667,-0.10134 0.97333,-0.0267 1.416,-0.032 0.97733,-0.012 1.82533,-0.016 2.736,-0.256 0.17733,-0.0467 0.42,-0.14667 0.61467,-0.14 0.296,0.008 0.508,0.236 0.76,0.23733 0.47066,0.005 0.65866,-0.152 1.044,-0.34933 0.57866,-0.29467 1.22,-0.44 1.692,-0.984 0.12933,0.0493 0.51066,0.27066 0.56,0.428 0.16266,0.532 -1.004,1.39599 -1.40134,1.58399 -0.0387,-0.172 -0.13066,-0.18133 -0.188,-0.29599 -0.49466,0.31866 -0.928,0.61999 -1.444,0.84533 -0.244,0.10533 -0.79466,0.468 -1.064,0.48266 -0.272,0.016 -0.45866,-0.252 -0.66533,-0.268 -0.51733,-0.0373 -0.81733,0.51734 -1.26267,0.49867 -0.73733,-0.032 -0.71866,-0.7 -1.36133,0.17333 -0.85867,-0.57733 -1.55733,-0.28 -2.32533,0.30667 -0.11867,-0.128 -0.372,-0.6 -0.52,-0.62533 -0.37867,-0.064 -0.256,0.30533 -0.496,0.34933 -0.35334,0.0667 -0.8,-0.032 -1.17734,0.005 -0.37333,0.036 -0.49866,0.0827 -0.656,0.0613"
       style="opacity:0.5;fill:#ffffff;fill-opacity:1;fill-rule:nonzero;stroke:none;stroke-width:1.33333"
       id="path6647" />
    <path
       d="m 297.77256,200.71956 c -0.23067,-0.61333 -0.168,-1.59066 -0.004,-2.00266 0.3,-0.75067 1.23712,-2.10953 2.01179,-1.8802 -0.316,-0.0933 -1.08133,-1.088 -1.15467,-1.41867 -0.08,-0.36266 0.0122,0.44287 2.1e-4,0.0802 -0.016,-0.48267 -0.22533,-0.97467 -0.456,-1.396 l -6.96931,1.93596 c 0.80266,0.604 1.92398,0.38937 2.69598,1.03071 1.496,1.24266 2.632,2.84933 4.14933,4.06533 -0.11866,-0.0947 -0.208,-0.24 -0.27333,-0.41467"
       style="opacity:0.199997;fill:#000000;fill-opacity:1;fill-rule:nonzero;stroke:none;stroke-width:1.33333"
       id="path6663"
       sodipodi:nodetypes="ccccsccccc" />
    <path
       d="m 322.40042,196.91431 c 0.87467,0.0373 1.736,-0.244 2.60667,-0.128 1.91733,0.25733 1.37424,3.14303 0.6689,4.15503 0.764,-0.46 1.15734,-1.312 1.548,-2.084 0.48267,-0.95333 0.97121,-2.03456 1.03921,-3.14922 0.0133,-0.23067 0.15816,-0.45078 -0.0592,-0.53611 -0.10666,-0.0427 -0.22533,-0.0307 -0.33866,-0.0187 -0.65334,0.0693 -1.30534,0.15733 -1.956,0.244 -0.72134,0.0973 -1.28,0.25067 -1.764,0.50801 -0.57601,0.30535 -1.23692,0.32766 -1.74492,1.00899 z"
       style="opacity:0.199997;fill:#000000;fill-opacity:1;fill-rule:nonzero;stroke:none;stroke-width:1.33333"
       id="path6679"
       sodipodi:nodetypes="cccccccccc" />
    <path
       id="path6703"
       style="opacity:0.199997;fill:#000000;fill-opacity:1;fill-rule:nonzero;stroke:none;stroke-width:1.33333"
       d="m 310.68555,188.5293 c -0.25432,-0.001 -0.5682,0.0128 -0.91211,0.0351 -0.25616,0.0311 -0.52037,0.0706 -0.79688,0.12305 -0.27116,0.0515 -0.55395,0.11693 -0.83984,0.18555 -0.079,0.0207 -0.14264,0.0322 -0.22461,0.0547 -2.1436,0.58762 -5.26122,1.74734 -6.9707,2.42579 -1.682,0.66732 -4.56446,1.77323 -6.98829,2.73828 -2.42382,0.96505 -4.38903,1.78924 -4.23437,1.89258 0.3495,-0.14625 0.89795,-0.16821 1.61914,-0.11719 0.003,0.003 0.1003,0.10394 0.10547,0.10937 2.94176,0.23301 8.46367,0.6578 15.30078,1.06836 1.66,0.31334 6.88775,0.21061 8.06641,0.19727 4.96507,-0.0582 10.17915,-1.0667 13.58007,-1.52344 0.028,-0.004 0.0524,-0.006 0.0801,-0.01 0.2155,-0.0279 0.42787,-0.0519 0.62696,-0.0684 0.002,-2e-4 0.005,2.1e-4 0.008,0 0.0376,-0.003 0.0724,-0.005 0.10937,-0.008 0.0122,-7.5e-4 0.0246,-0.001 0.0371,-0.002 0.0161,-8.2e-4 0.0324,-8.3e-4 0.0488,-0.002 0.16957,-0.0106 0.33843,-0.0212 0.49414,-0.0215 0.0606,-2.2e-4 0.11342,0.006 0.17188,0.008 0.15202,0.004 0.30477,0.008 0.4414,0.0234 0.18391,0.0216 0.35347,0.0538 0.50782,0.0996 0,0 -3.46707,-2.58882 -5.76172,-4.27148 -2.6167,-1.9182 -4.2616,-2.86158 -5.6543,-2.89258 -0.74026,0.0341 -1.42175,0.3638 -2.20117,0.99414 -0.57625,0.43541 -0.98608,1.12985 -1.71094,1.22266 -0.0987,0.0126 -0.20292,0.0158 -0.31445,0.004 -0.11638,-0.0125 -0.22811,-0.0413 -0.33789,-0.084 -0.21913,-0.0853 -0.42912,-0.22475 -0.80765,-0.52245 -0.37852,-0.2977 -0.95228,-0.91333 -1.79978,-1.34083 -0.11048,-0.0557 -0.22861,-0.10434 -0.35937,-0.14844 -0.0346,-0.0119 -0.0702,-0.0225 -0.10547,-0.0332 -0.28241,-0.0815 -0.64019,-0.13411 -1.17773,-0.13672 z"
       sodipodi:nodetypes="scscscscccccssscccccccccccssscsccs" />
    <path
       d="m 310.03186,197.61319 c -4.59867,-0.46667 -10.56933,-0.28241 -13.69235,-0.66215 -3.12303,-0.37974 -4.31403,-1.12843 -5.65403,-0.55909 -0.50667,0.21466 -0.788,1.15733 -1.43733,0.94266 -0.624,-0.20666 -0.38134,-1.17866 -0.188,-1.60266 0.27866,-0.612 1.01866,-1.06267 1.67333,-1.148 0.72533,0.67066 0.90053,1.36483 5.90118,1.66169 3.08279,0.18301 5.11679,0.44877 8.58158,0.30438 2.15552,-0.0898 5.04094,-0.22096 8.5402,-0.9875 0.86667,-0.18933 2.97067,-0.18266 3.772,0.124 0.94667,0.36267 1.85467,0.54667 2.85867,0.48267 2.34667,-0.14667 4.10342,-0.31025 6.42475,-0.56625 0.52,-0.0573 1.05333,-0.0693 1.54667,-0.22933 0.49466,-0.16134 0.96,-0.50667 1.09866,-1.012 0.88267,0.34266 1.42934,1.42533 1.172,2.32266 -0.0267,0.0893 -0.0667,0.18534 -0.15066,0.22534 -0.13467,0.0613 -0.284,-0.0533 -0.40267,-0.14934 -0.992,-0.79733 -2.4,-0.728 -3.57733,-0.368 -2.47334,0.756 -4.53809,0.52759 -7.03009,1.00892 -1.38133,0.26667 -3.13733,-0.0533 -4.77295,-0.0213 -1.6543,0.032 -3.1783,0.38398 -4.66363,0.23331 z"
       style="fill:#000000;fill-opacity:1;fill-rule:nonzero;stroke:none;stroke-width:1.33333"
       id="path6713"
       sodipodi:nodetypes="czccccsscccsccccccccc" />
  </g>
  <g
     inkscape:groupmode="layer"
     id="layer1"
     inkscape:label="Philtrum">
    <path
       d="m 312.89666,180.34467 c -0.56667,1.35734 -1.86667,2.544 -2.27867,3.94267 -0.42533,1.44533 0.37867,3.01867 2.93734,4.288 -0.032,-0.0133 -1.25734,-1.73333 -1.30534,-1.82 -0.65466,-1.172 -0.80666,-1.52933 -0.62533,-2.796 0.13067,-0.91733 0.91067,-2.74933 1.272,-3.61467"
       style="fill:#000000;fill-opacity:1;fill-rule:nonzero;stroke:none;stroke-width:1.33333"
       id="path6689" />
  </g>
</svg>
