<?xml version="1.0" encoding="UTF-8" standalone="no"?>
<!-- Created with Inkscape (http://www.inkscape.org/) -->

<svg
   version="1.1"
   id="svg132270"
   width="400"
   height="400"
   viewBox="0 0 400 400"
   sodipodi:docname="TellariteMouth5.svg"
   inkscape:version="1.3-beta (cedbd6c, 2023-05-28)"
   xmlns:inkscape="http://www.inkscape.org/namespaces/inkscape"
   xmlns:sodipodi="http://sodipodi.sourceforge.net/DTD/sodipodi-0.dtd"
   xmlns="http://www.w3.org/2000/svg"
   xmlns:svg="http://www.w3.org/2000/svg">
  <defs
     id="defs132274" />
  <sodipodi:namedview
     id="namedview132272"
     pagecolor="#ffffff"
     bordercolor="#666666"
     borderopacity="1.0"
     inkscape:showpageshadow="2"
     inkscape:pageopacity="0.0"
     inkscape:pagecheckerboard="0"
     inkscape:deskcolor="#d1d1d1"
     showgrid="false"
     inkscape:zoom="2.3725"
     inkscape:cx="199.78925"
     inkscape:cy="200"
     inkscape:window-width="2039"
     inkscape:window-height="1162"
     inkscape:window-x="2174"
     inkscape:window-y="93"
     inkscape:window-maximized="0"
     inkscape:current-layer="g132278">
    <inkscape:page
       x="0"
       y="0"
       id="page132276"
       width="400"
       height="400"
       margin="0"
       bleed="0" />
  </sodipodi:namedview>
  <g
     id="g132278"
     inkscape:groupmode="layer"
     inkscape:label="Page 1">
    <path
       id="path172160"
       style="opacity:1;fill:#cd976d;fill-opacity:1;fill-rule:nonzero;stroke:none;stroke-width:1.33333"
       d="m 312.72656,188.66602 c -0.73817,-0.005 -1.29354,0.046 -1.68554,0.18945 -1.04666,0.384 -20.21076,6.49284 -23.85743,7.10351 0,0 1.88751,0.077 4.15039,0.16211 l -3.23632,0.69727 c 0,0 2.33819,2.94788 4.95312,3.86719 2.61492,0.9193 6.0889,1.75872 9.27149,2.43945 3.18257,0.68073 6.69746,1.41887 9.79492,1.65039 0.83675,0.0625 1.72413,0.1279 2.62439,0.17714 0.96538,0.0528 2.88785,3.80701 3.08171,3.81891 0.34244,0.021 1.77543,-3.88351 2.46633,-3.95436 0.62884,-0.0645 0.74746,-0.0553 1.28655,-0.19208 2.57029,-0.65206 3.86891,-1.53402 5.17969,-2.43945 1.31078,-0.90543 2.52107,-1.68796 3.11523,-2.74024 0.59416,-1.05228 0.41211,-3.37695 0.41211,-3.37695 l -1.23242,-0.4668 c 0.60296,0.0359 1.10986,0.0278 1.4375,-0.0508 0,0 -5.09331,-5.64258 -6.44531,-6.5039 -1.352,-0.86134 -2.31863,0.0963 -6.0293,-0.0957 -2.32,-0.11917 -4.05682,-0.27745 -5.28711,-0.28515 z"
       sodipodi:nodetypes="sccccssssssssscccscss" />
    <path
       style="fill:#000000;fill-opacity:0.3;stroke:none;stroke-width:1px;stroke-linecap:butt;stroke-linejoin:miter;stroke-opacity:1"
       d="m 317.75275,205.93776 c 0,0 0.45356,-0.78482 0.65917,-1.61796 0.20561,-0.83314 0.41493,-2.362 0.32958,-3.38572 -0.0854,-1.02372 -0.37658,-1.81681 -0.71909,-2.66663 -0.34251,-0.84982 -0.98094,-1.9477 -1.31834,-2.39698 -0.3374,-0.44928 -0.44943,-0.44943 -0.44943,-0.44943 l -4.28459,-0.47939 c 0,0 1.16585,0.92845 1.8277,1.58799 0.66185,0.65954 1.61487,1.59913 2.09735,2.39697 0.48248,0.79784 0.60689,1.38798 0.8689,2.24716 0.26201,0.85918 0.49857,2.11125 0.65917,2.90633 0.1606,0.79508 0.32958,1.85766 0.32958,1.85766 z"
       id="path83082"
       sodipodi:nodetypes="czzzzcczzzzc" />
    <path
       id="path135096"
       style="opacity:0.199997;fill:#000000;fill-opacity:1;fill-rule:nonzero;stroke:none;stroke-width:1.33333"
       d="m 292.94922,200.64453 c 0,0 9.66948,9.32213 21.82812,9.7168 12.15733,0.396 12.04654,-7.94173 12.29588,-8.47906 -1.54193,0.89857 -3.54856,1.75919 -6.36971,2.32172 l -1.75739,3.0916 -1.16887,1.6473 -2.76748,-4.14406 c -1.79578,0.15688 -3.43737,0.18014 -4.65235,0.0254 -4.14532,-0.528 -17.4082,-4.17969 -17.4082,-4.17969 z"
       sodipodi:nodetypes="cccccccscc" />
    <path
       d="m 330.48879,195.55081 c 0,0 -5.09333,-5.64267 -6.44533,-6.504 -1.352,-0.86134 -2.32,0.096 -6.03067,-0.096 -3.712,-0.19067 -5.92666,-0.47867 -6.972,-0.096 -1.04666,0.384 -20.21066,6.49333 -23.85733,7.104 0,0 14.34933,0.61066 15.056,0.36666 0.70533,-0.244 6.23333,-1.588 8.11467,-1.344 1.88266,0.24534 5.52933,0.73334 7.05733,0.36667 1.52933,-0.36667 3.764,-1.09867 3.764,-1.09867 0,0 7.452,1.748 9.31333,1.30134"
       style="opacity:0.199997;fill:#000000;fill-opacity:1;fill-rule:nonzero;stroke:none;stroke-width:1.33333"
       id="path135112" />
    <path
       d="m 300.89959,202.6168 c 1.412,0.69067 3.54134,0.752 5.064,0.964 1.54667,0.21334 3.12134,0.356 4.684,0.36534 1.712,0.012 1.48321,-0.14325 3.19521,-0.12058 0.99159,0.009 3.7668,4.62131 4.04173,4.61434 0.25575,-0.006 2.42081,-4.53091 2.96526,-4.61189 1.04924,-0.15606 1.5877,-0.35246 2.4418,-0.67387 1.256,-0.57067 2.64667,-0.67467 3.88534,-1.30534 -0.21067,0.108 -0.56,0.97867 -0.82934,1.212 -1.76266,1.52934 -2.76339,2.5157 -5.11006,2.89304 -0.68496,0.15554 -2.72055,3.29223 -3.37871,3.38734 -0.23486,0.0339 -2.78184,-3.00992 -3.30589,-2.95254 -1.64133,0.17867 -1.50534,0.34551 -3.164,0.14951 -2.43334,-0.288 -4.744,-1.11467 -6.892,-2.276 -1.13734,-0.61467 -2.42534,-1.072 -3.59734,-1.64534"
       style="fill:#000000;fill-opacity:1;fill-rule:nonzero;stroke:none;stroke-width:1.33333"
       id="path135122"
       sodipodi:nodetypes="ccccssccccscccc" />
    <path
       d="m 323.41466,194.18667 c -0.72533,-0.14 -1.448,-0.23066 -2.14,-0.192 -0.63733,0.0347 -1.21067,0.25067 -1.79733,0.33867 -2.568,0.38267 -5.24534,0.13867 -7.79467,-0.22533 -1.34133,-0.19067 -6.75333,0.62266 -8.59067,1.29333 -1.128,0.41067 -2.52933,0.34 -3.704,0.396 -1.644,0.08 -3.28933,0.11867 -4.93333,0.14933 -1.53733,0.0293 -3.12133,0.168 -4.65467,0.0293 -0.92266,-0.0827 -2.06,-0.276 -2.816,-0.79067 -0.84266,-0.572 -0.37733,-1.30267 -0.41066,-2.10133 0.003,0.0693 -1.15067,1.24933 -1.292,1.40533 -0.61467,0.67733 -1.23067,1.644 -1.312,2.52933 -0.064,0.71067 1.14933,0.51467 1.604,0.40534 2.58,-0.62534 5.34533,-0.904 8.052,-0.82667 2.792,0.0787 5.508,0.55467 8.30933,0.19467 0.60533,-0.0773 1.20933,-0.18667 1.80267,-0.33734 2.40933,-0.612 4.852,-0.42933 7.29733,-0.18533 1.196,0.12 2.4,0.14267 3.51867,0.51067 0.996,0.32666 2.24533,0.40933 3.24,0.0227 1.18666,-0.46266 2.252,-0.94533 3.50933,-1.22666 2.03733,-0.45734 4.02667,0.132 6.11867,0.11066 0.56533,-0.007 1.224,-0.23733 1.748,-0.0467 0.24933,0.0893 1.33333,0.99466 1.09866,1.28533 0.30534,-0.37733 0.216,-0.76667 0.188,-1.192 -0.0133,-0.20667 -0.19866,-0.90533 -0.12666,-1.05733 -0.032,0.068 -0.0573,0.092 -0.0693,0.17866 -0.37466,0.14267 -0.49333,0.28667 -0.896,0.33734 -0.36666,0.0453 -0.76933,0.032 -1.13333,-0.0293 -0.64,-0.108 -1.27867,-0.224 -1.91733,-0.34 -0.92267,-0.16533 -1.912,-0.44533 -2.89867,-0.636"
       style="fill:#000000;fill-opacity:1;fill-rule:nonzero;stroke:none;stroke-width:1.33333"
       id="path135126" />
  </g>
  <g
     inkscape:groupmode="layer"
     id="layer12"
     inkscape:label="Philtrum">
    <path
       d="m 313.49186,179.92254 c 0,0 -1.336,5.27867 -0.116,6.64933 1.21867,1.37067 3.192,1.44 3.192,1.44 0,0 -2.616,-1.57733 -2.508,-3.428 0.108,-1.85066 -0.568,-4.66133 -0.568,-4.66133"
       style="fill:#000000;fill-opacity:1;fill-rule:nonzero;stroke:none;stroke-width:1.33333"
       id="path135130" />
  </g>
</svg>
