<?xml version="1.0" encoding="UTF-8" standalone="no"?>
<!-- Created with Inkscape (http://www.inkscape.org/) -->

<svg
   version="1.1"
   id="svg1129"
   width="400"
   height="400"
   viewBox="0 0 400 400"
   sodipodi:docname="TellariteMouth6Lipstick.svg"
   inkscape:version="1.3-beta (cedbd6c, 2023-05-28)"
   xmlns:inkscape="http://www.inkscape.org/namespaces/inkscape"
   xmlns:sodipodi="http://sodipodi.sourceforge.net/DTD/sodipodi-0.dtd"
   xmlns="http://www.w3.org/2000/svg"
   xmlns:svg="http://www.w3.org/2000/svg">
  <defs
     id="defs1133" />
  <sodipodi:namedview
     id="namedview1131"
     pagecolor="#ffffff"
     bordercolor="#666666"
     borderopacity="1.0"
     inkscape:showpageshadow="2"
     inkscape:pageopacity="0.0"
     inkscape:pagecheckerboard="0"
     inkscape:deskcolor="#d1d1d1"
     showgrid="false"
     inkscape:zoom="2.6275"
     inkscape:cx="166.69838"
     inkscape:cy="200"
     inkscape:window-width="2149"
     inkscape:window-height="1264"
     inkscape:window-x="2240"
     inkscape:window-y="25"
     inkscape:window-maximized="0"
     inkscape:current-layer="g1137">
    <inkscape:page
       x="0"
       y="0"
       id="page1135"
       width="400"
       height="400"
       margin="0"
       bleed="0" />
  </sodipodi:namedview>
  <g
     id="g1137"
     inkscape:groupmode="layer"
     inkscape:label="Mouth">
    <path
       d="m 299.91959,201.90134 c 0,0 4.82789,7.77899 13.46923,8.00432 8.64266,0.22534 9.97344,-3.65499 11.29477,-5.77632 1.32134,-2.12 -11.616,-0.11467 -11.616,-0.11467 0,0 -15.25733,-4.97866 -13.148,-2.11333"
       style="opacity:0.199997;fill:#000000;fill-opacity:1;fill-rule:nonzero;stroke:none;stroke-width:1.33333"
       id="path6627"
       sodipodi:nodetypes="csccc" />
    <path
       id="path6637"
       style="fill:#c14242;fill-opacity:1;fill-rule:nonzero;stroke:none;stroke-width:1.33333"
       d="m 300.94141,191.35352 c -3.364,1.33465 -11.53199,4.42419 -11.22266,4.63086 0.3495,-0.14625 0.89795,-0.16821 1.61914,-0.11719 0.11832,0.12418 1.467,1.5399 3.79883,3.94336 4.05886,4.18613 8.76003,7.15923 15.03522,7.94339 1.12613,0.14072 1.66069,0.18716 2.89359,0.18125 0.60017,-0.003 3.48186,3.74377 3.81793,3.74154 1.00338,-0.0493 2.87058,-4.04922 3.64618,-4.1826 0.55091,-0.0947 1.05159,-0.30009 1.61338,-0.57658 2.11142,-1.03914 2.73411,-3.08307 3.98979,-5.29841 1.40733,-2.48465 2.05328,-4.99576 2.25781,-5.90039 1.04042,-0.13973 1.90852,-0.1635 2.5254,0.0195 0,0 -3.46718,-2.58899 -5.76184,-4.27165 -4.25067,-3.11599 -5.65153,-3.68017 -7.85488,-1.89827 -0.65467,0.49467 -1.09459,1.32717 -2.02564,1.2275 -0.93105,-0.0997 -1.5905,-1.2642 -2.9465,-1.9482 -0.48275,-0.2435 -1.04477,-0.39684 -2.68449,-0.27761 -1.63972,0.11923 -6.42194,1.87891 -8.70126,2.7835 z"
       sodipodi:nodetypes="ccccsscssccccczszc" />
    <path
       id="path6647"
       style="opacity:0.5;fill:#ffffff;fill-opacity:1;fill-rule:nonzero;stroke:none;stroke-width:1.33333"
       d="M 301.9375 198.23242 C 301.83635 198.22865 301.73469 198.23412 301.63086 198.25195 C 301.47086 198.27862 302.08825 199.07923 302.18555 199.14453 C 302.56688 199.40053 303.18847 199.37897 303.61914 199.54297 C 303.99381 199.68564 303.96839 199.56251 304.26172 199.83984 C 304.38306 199.95451 304.49185 200.4559 304.61719 200.5332 C 305.01052 200.78116 305.70799 200.44792 306.22266 200.55859 C 306.80799 200.68392 307.23678 201.2182 307.80078 201.1582 C 308.51945 201.0822 308.36457 200.7173 309.11523 201.0293 C 309.33256 201.11997 309.63113 201.45926 309.8418 201.47656 C 310.04046 201.49123 310.10212 201.27307 310.30078 201.25977 C 310.89012 201.2211 311.37889 201.28997 311.96289 201.55664 C 312.32022 201.71931 312.47862 201.78543 312.61328 201.80273 C 312.77062 201.82413 312.8962 201.77819 313.26953 201.74219 C 313.64687 201.70519 314.09197 201.80303 314.44531 201.73633 C 314.68531 201.69233 314.56274 201.32272 314.94141 201.38672 C 315.08941 201.41205 315.34422 201.88372 315.46289 202.01172 C 315.77618 201.7724 316.07703 201.58376 316.38281 201.48047 C 316.23504 200.99794 316.07633 200.56236 315.76758 200.04297 C 315.66382 200.09268 315.55651 200.13583 315.42969 200.15234 C 314.52836 200.26834 313.47741 200.34769 312.58008 200.17969 C 311.74408 200.02502 311.23525 200.19053 310.39258 199.89453 C 309.94192 199.73723 309.62834 199.79912 309.15234 199.70312 C 308.79101 199.6298 308.57285 199.35177 308.24219 199.25977 C 307.86619 199.15447 307.45012 199.32217 307.07812 199.1875 C 306.66746 199.03817 306.65627 198.83437 306.21094 198.76367 C 305.82561 198.70237 305.33759 198.76675 304.93359 198.71875 C 304.76425 198.69875 304.6068 198.57775 304.4668 198.56445 C 304.24813 198.54312 304.18895 198.80757 304.01562 198.79688 C 303.29696 198.75021 302.64557 198.2588 301.9375 198.23242 z M 324.61328 198.25781 C 324.14128 198.80181 323.50053 198.94752 322.92188 199.24219 C 322.53654 199.43952 322.34957 199.5968 321.87891 199.5918 C 321.62691 199.59047 321.41319 199.36152 321.11719 199.35352 C 320.92252 199.34685 320.68124 199.44744 320.50391 199.49414 C 319.67642 199.71222 318.89539 199.73467 318.02734 199.74609 C 318.22112 200.25072 318.39088 200.75127 318.49609 201.31055 C 318.64856 201.3854 318.82392 201.51912 319.14844 201.5332 C 319.59378 201.55187 319.89478 200.9959 320.41211 201.0332 C 320.61878 201.0492 320.80417 201.31678 321.07617 201.30078 C 321.34551 201.28612 321.89663 200.92369 322.14062 200.81836 C 322.65662 200.59302 323.08932 200.29132 323.58398 199.97266 C 323.64132 200.08732 323.73474 200.09753 323.77344 200.26953 C 324.17078 200.08153 325.33649 199.21755 325.17383 198.68555 C 325.12449 198.52821 324.74261 198.30711 324.61328 198.25781 z " />
    <path
       d="m 297.77256,200.71956 c -0.23067,-0.61333 -0.168,-1.59066 -0.004,-2.00266 0.3,-0.75067 1.23712,-2.10953 2.01179,-1.8802 -0.316,-0.0933 -1.08133,-1.088 -1.15467,-1.41867 -0.08,-0.36266 0.0122,0.44287 2.1e-4,0.0802 -0.016,-0.48267 -0.22533,-0.97467 -0.456,-1.396 l -6.96931,1.93596 c 0.80266,0.604 1.92398,0.38937 2.69598,1.03071 1.496,1.24266 2.632,2.84933 4.14933,4.06533 -0.11866,-0.0947 -0.208,-0.24 -0.27333,-0.41467"
       style="opacity:0.199997;fill:#000000;fill-opacity:1;fill-rule:nonzero;stroke:none;stroke-width:1.33333"
       id="path6663"
       sodipodi:nodetypes="ccccsccccc" />
    <path
       d="m 322.40042,196.91431 c 0.87467,0.0373 1.736,-0.244 2.60667,-0.128 1.91733,0.25733 1.37424,3.14303 0.6689,4.15503 0.764,-0.46 1.15734,-1.312 1.548,-2.084 0.48267,-0.95333 0.97121,-2.03456 1.03921,-3.14922 0.0133,-0.23067 0.15816,-0.45078 -0.0592,-0.53611 -0.10666,-0.0427 -0.22533,-0.0307 -0.33866,-0.0187 -0.65334,0.0693 -1.30534,0.15733 -1.956,0.244 -0.72134,0.0973 -1.28,0.25067 -1.764,0.50801 -0.57601,0.30535 -1.23692,0.32766 -1.74492,1.00899 z"
       style="opacity:0.199997;fill:#000000;fill-opacity:1;fill-rule:nonzero;stroke:none;stroke-width:1.33333"
       id="path6679"
       sodipodi:nodetypes="cccccccccc" />
    <path
       id="path6703"
       style="opacity:0.199997;fill:#000000;fill-opacity:1;fill-rule:nonzero;stroke:none;stroke-width:1.33333"
       d="m 310.68555,188.5293 c -0.25432,-0.001 -0.5682,0.0128 -0.91211,0.0351 -0.25616,0.0311 -0.52037,0.0706 -0.79688,0.12305 -0.27116,0.0515 -0.55395,0.11693 -0.83984,0.18555 -0.079,0.0207 -0.14264,0.0322 -0.22461,0.0547 -2.1436,0.58762 -5.26122,1.74734 -6.9707,2.42579 -1.682,0.66732 -4.56446,1.77323 -6.98829,2.73828 -2.42382,0.96505 -4.38903,1.78924 -4.23437,1.89258 0.3495,-0.14625 0.89795,-0.16821 1.61914,-0.11719 0.003,0.003 0.1003,0.10394 0.10547,0.10937 2.94176,0.23301 8.46367,0.6578 15.30078,1.06836 1.66,0.31334 6.88775,0.21061 8.06641,0.19727 4.96507,-0.0582 10.17915,-1.0667 13.58007,-1.52344 0.028,-0.004 0.0524,-0.006 0.0801,-0.01 0.2155,-0.0279 0.42787,-0.0519 0.62696,-0.0684 0.002,-2e-4 0.005,2.1e-4 0.008,0 0.0376,-0.003 0.0724,-0.005 0.10937,-0.008 0.0122,-7.5e-4 0.0246,-0.001 0.0371,-0.002 0.0161,-8.2e-4 0.0324,-8.3e-4 0.0488,-0.002 0.16957,-0.0106 0.33843,-0.0212 0.49414,-0.0215 0.0606,-2.2e-4 0.11342,0.006 0.17188,0.008 0.15202,0.004 0.30477,0.008 0.4414,0.0234 0.18391,0.0216 0.35347,0.0538 0.50782,0.0996 0,0 -3.46707,-2.58882 -5.76172,-4.27148 -2.6167,-1.9182 -4.2616,-2.86158 -5.6543,-2.89258 -0.74026,0.0341 -1.42175,0.3638 -2.20117,0.99414 -0.57625,0.43541 -0.98608,1.12985 -1.71094,1.22266 -0.0987,0.0126 -0.20292,0.0158 -0.31445,0.004 -0.11638,-0.0125 -0.22811,-0.0413 -0.33789,-0.084 -0.21913,-0.0853 -0.42912,-0.22475 -0.80765,-0.52245 -0.37852,-0.2977 -0.95228,-0.91333 -1.79978,-1.34083 -0.11048,-0.0557 -0.22861,-0.10434 -0.35937,-0.14844 -0.0346,-0.0119 -0.0702,-0.0225 -0.10547,-0.0332 -0.28241,-0.0815 -0.64019,-0.13411 -1.17773,-0.13672 z"
       sodipodi:nodetypes="scscscscccccssscccccccccccssscsccs" />
    <path
       d="m 310.03186,197.61319 c -4.59867,-0.46667 -10.56933,-0.28241 -13.69235,-0.66215 -3.12303,-0.37974 -4.31403,-1.12843 -5.65403,-0.55909 -0.50667,0.21466 -0.788,1.15733 -1.43733,0.94266 -0.624,-0.20666 -0.38134,-1.17866 -0.188,-1.60266 0.27866,-0.612 1.01866,-1.06267 1.67333,-1.148 0.72533,0.67066 0.90053,1.36483 5.90118,1.66169 3.08279,0.18301 5.11679,0.44877 8.58158,0.30438 2.15552,-0.0898 5.04094,-0.22096 8.5402,-0.9875 0.86667,-0.18933 2.97067,-0.18266 3.772,0.124 0.94667,0.36267 1.85467,0.54667 2.85867,0.48267 2.34667,-0.14667 4.10342,-0.31025 6.42475,-0.56625 0.52,-0.0573 1.05333,-0.0693 1.54667,-0.22933 0.49466,-0.16134 0.96,-0.50667 1.09866,-1.012 0.88267,0.34266 1.42934,1.42533 1.172,2.32266 -0.0267,0.0893 -0.0667,0.18534 -0.15066,0.22534 -0.13467,0.0613 -0.284,-0.0533 -0.40267,-0.14934 -0.992,-0.79733 -2.4,-0.728 -3.57733,-0.368 -2.47334,0.756 -4.53809,0.52759 -7.03009,1.00892 -1.38133,0.26667 -3.13733,-0.0533 -4.77295,-0.0213 -1.6543,0.032 -3.1783,0.38398 -4.66363,0.23331 z"
       style="fill:#000000;fill-opacity:1;fill-rule:nonzero;stroke:none;stroke-width:1.33333"
       id="path6713"
       sodipodi:nodetypes="czccccsscccsccccccccc" />
    <path
       id="path2"
       style="fill:#000000;fill-opacity:1;stroke:none;stroke-width:1px;stroke-linecap:butt;stroke-linejoin:miter;stroke-opacity:1"
       d="m 319.61227,208.34919 c 0.27752,-0.31716 0.59864,-0.69181 0.71361,-0.78497 0.11497,-0.0932 0.92845,-0.21333 1.53426,-0.5352 0.39688,-0.21086 0.65442,-0.35221 0.96956,-0.59031 0.58174,-0.43951 1.06421,-0.93205 1.06421,-0.93205 0,0 -1.07094,1.2805 -1.97431,1.84348 -0.65615,0.40892 -2.30733,0.99905 -2.30733,0.99905 z m -14.49809,-1.85537 c 0,0 3.4598,0.9797 4.80495,1.18934 1.34515,0.20964 3.21122,0.21408 3.21122,0.21408 0.51538,0.3568 0.68585,0.57089 1.04662,0.92769 0,0 -2.90396,-0.25942 -4.42435,-0.64225 -1.52039,-0.38283 -4.63844,-1.68886 -4.63844,-1.68886 z"
       sodipodi:nodetypes="cssscsccsccsc" />
    <path
       style="fill:#000000;fill-opacity:0.3;stroke:none;stroke-width:1px;stroke-linecap:butt;stroke-linejoin:miter;stroke-opacity:1"
       d="m 317.602,207.01278 c 0,0 0.45356,-0.78482 0.65917,-1.61796 0.20561,-0.83314 0.41493,-2.362 0.32958,-3.38572 -0.0854,-1.02372 -0.37658,-1.81681 -0.71909,-2.66663 -0.34251,-0.84982 -0.98094,-1.9477 -1.31834,-2.39698 -0.3374,-0.44928 -0.44943,-0.44943 -0.44943,-0.44943 l -4.28459,-0.47939 c 0,0 1.16585,0.92845 1.8277,1.58799 0.66185,0.65954 1.61487,1.59913 2.09735,2.39697 0.48248,0.79784 0.60689,1.38798 0.8689,2.24716 0.26201,0.85918 0.49857,2.11125 0.65917,2.90633 0.1606,0.79508 0.32958,1.85766 0.32958,1.85766 z"
       id="path83082"
       sodipodi:nodetypes="czzzzcczzzzc" />
  </g>
  <g
     inkscape:groupmode="layer"
     id="layer1"
     inkscape:label="Philtrum">
    <path
       d="m 312.89666,180.34467 c -0.56667,1.35734 -1.86667,2.544 -2.27867,3.94267 -0.42533,1.44533 0.37867,3.01867 2.93734,4.288 -0.032,-0.0133 -1.25734,-1.73333 -1.30534,-1.82 -0.65466,-1.172 -0.80666,-1.52933 -0.62533,-2.796 0.13067,-0.91733 0.91067,-2.74933 1.272,-3.61467"
       style="fill:#000000;fill-opacity:1;fill-rule:nonzero;stroke:none;stroke-width:1.33333"
       id="path6689" />
  </g>
</svg>
