<?xml version="1.0" encoding="UTF-8" standalone="no"?>
<!-- Created with Inkscape (http://www.inkscape.org/) -->

<svg
   version="1.1"
   id="svg6065"
   width="400"
   height="400"
   viewBox="0 0 400 400"
   sodipodi:docname="BolianEar.svg"
   inkscape:version="1.2.2 (b0a8486, 2022-12-01)"
   xml:space="preserve"
   xmlns:inkscape="http://www.inkscape.org/namespaces/inkscape"
   xmlns:sodipodi="http://sodipodi.sourceforge.net/DTD/sodipodi-0.dtd"
   xmlns="http://www.w3.org/2000/svg"
   xmlns:svg="http://www.w3.org/2000/svg"><defs
     id="defs6069" /><sodipodi:namedview
     id="namedview6067"
     pagecolor="#ffffff"
     bordercolor="#666666"
     borderopacity="1.0"
     inkscape:showpageshadow="2"
     inkscape:pageopacity="0.0"
     inkscape:pagecheckerboard="0"
     inkscape:deskcolor="#d1d1d1"
     showgrid="false"
     inkscape:zoom="2.4225"
     inkscape:cx="194.01445"
     inkscape:cy="200"
     inkscape:window-width="2105"
     inkscape:window-height="1189"
     inkscape:window-x="2235"
     inkscape:window-y="135"
     inkscape:window-maximized="0"
     inkscape:current-layer="HumanEar"><inkscape:page
       x="0"
       y="0"
       id="page6071"
       width="400"
       height="400" /></sodipodi:namedview><g
     id="HumanEar"
     inkscape:groupmode="layer"><path
       d="m 215.13853,129.23107 c 0,0 -3.36134,-7.508 -5.37867,-9.076 -2.01733,-1.56933 -6.724,-2.35333 -9.63733,0.112 -2.91333,2.46534 -9.076,10.98134 -8.18,14.56667 0.896,3.58667 5.71467,11.20533 7.732,14.344 2.01733,3.13733 5.82666,11.20533 7.732,13.78267 1.90533,2.57733 15.3365,18.38144 18.25117,17.70811 2.91333,-0.672 4.25733,-0.784 5.93866,-2.91333 0.38934,-0.49334 0.28134,-1.47734 0.276,-2.05467 -0.0133,-1.37467 -0.45988,-2.42005 -0.69441,-3.36723 -0.23453,-0.94719 -1.25744,-3.20977 -1.66044,-3.97718 -0.40299,-0.76741 -11.56537,-14.09197 -12.11337,-14.9213 -0.62134,-0.93734 -0.76971,-1.53049 -1.03388,-3.1392 -0.26416,-1.60871 0.0456,-3.58187 0.15493,-5.32987 0.16934,-2.70933 0.15734,-5.43067 -0.0867,-8.13467 -0.124,-1.38266 -0.33334,-2.74666 -0.55867,-4.11466 -0.192,-1.16267 -0.25333,-2.39467 -0.74133,-3.48534"
       style="fill:#cd976d;fill-opacity:1;fill-rule:nonzero;stroke:none;stroke-width:1.33333"
       id="path6713"
       sodipodi:nodetypes="ccsccsccczzczcccc" /><path
       d="m 214.08613,128.21681 c 0.40933,-4.732 -3.58667,-10.85334 -8.67867,-10.85334 -7.53333,0 -15.444,11.30134 -13.93733,18.45867 1.50667,7.15733 11.07692,19.73498 13.34282,23.30663 2.26591,3.57166 7.2612,11.00539 12.21642,16.61088 4.93573,5.58345 8.72479,6.68862 10.51534,6.17305 1.79055,-0.51557 2.87662,-0.91717 4.18927,-2.78115 0.83135,-1.18052 0.46876,-3.39574 -0.0286,-5.64456 -0.39546,-1.78806 -2.13287,-5.16651 -2.13287,-5.16651 0,0 1.20504,3.41495 1.54812,5.15552 0.305,1.5474 0.47383,3.19974 -0.1814,4.35317 -0.65471,1.15252 -1.63816,1.60442 -2.25775,1.81775 -1.93073,0.66477 -3.18851,0.38519 -5.48716,-0.97343 -4.14267,-2.448 -17.90419,-20.98353 -19.48155,-24.39268 -1.57736,-3.40915 -10.54799,-14.12267 -10.54799,-18.64667 0,-6.592 6.96933,-15.44533 9.98266,-15.25733 2.25733,0.14133 4.66533,0.95333 6.38133,2.46 1.69867,1.49466 2.57334,4.27466 4.55734,5.38"
       style="fill:#000000;fill-opacity:1;fill-rule:nonzero;stroke:none;stroke-width:1.33333"
       id="path6717"
       sodipodi:nodetypes="csszszsscsssczsccc" /><path
       id="path6727"
       style="opacity:0.199997;fill:#000000;fill-opacity:1;fill-rule:nonzero;stroke:none;stroke-width:1.33333"
       d="m 204.00586,126.55469 c -1.71803,2e-4 -3.42774,0.64844 -3.42774,0.64843 0,0 -4.36818,1.62229 -4.99218,6.23829 -0.624,4.61733 -0.12491,6.86466 1.87109,9.11132 1.99733,2.24533 1.24753,2.24481 4.24219,2.49415 0.79428,0.0661 1.55366,0.12413 1.9621,0.75016 0.40844,0.62603 0.25553,1.47993 0.33477,2.37484 0.0965,1.08969 -0.42956,1.12516 2.48047,5.6914 2.91004,4.56625 14.2738,17.26978 15.79883,18.64453 1.52502,1.37475 2.05393,1.51232 2.88281,1.64258 0.82888,0.13026 2.33399,-0.32812 2.33399,-0.32812 l -2.29883,-0.73047 -1.67774,-1.60547 -16.92968,-21.16211 0.14648,-1.9375 c 0.23804,0.47125 0.43487,0.98101 0.58399,1.52734 0,0 0.49847,-5.61466 3.36914,-7.36133 0,0 0.624,-2.12328 -0.5,-7.36328 -1.12267,-5.24132 -1.99619,-6.86333 -3.99219,-8.11133 -0.62417,-0.38958 -1.40658,-0.52352 -2.1875,-0.52343 z"
       sodipodi:nodetypes="scccszsssscccccccccs" /><path
       d="m 195.99026,130.92494 c 0,0 2.448,-5.46267 6.96933,-5.46267 4.52,0 6.968,2.82534 7.15734,6.028 0.188,3.20134 4.14266,10.35867 1.50666,12.05467 -2.63733,1.69467 -4.52,6.78 -3.39066,8.09867 0.2719,0.31711 9.46891,11.71888 13.78418,17.04223 1.223,1.5087 2.42558,3.35585 3.09052,4.02071 1.08699,1.08686 3.72467,0.97611 3.72467,0.97611 0,0 -2.89201,1.00691 -4.43942,-0.52705 -0.76021,-0.7536 -2.13785,-2.36757 -3.22811,-3.66281 -4.41524,-5.24536 -14.39991,-17.55097 -14.81584,-18.22653 -1.50667,-2.448 0.56533,-7.15733 2.63733,-8.852 2.072,-1.69466 -1.12933,-9.22933 -1.12933,-11.112 0,-1.884 -3.57867,-4.89733 -5.08667,-4.144 -1.50667,0.75334 -6.78,3.76667 -6.78,3.76667"
       style="fill:#000000;fill-opacity:1;fill-rule:nonzero;stroke:none;stroke-width:1.33333"
       id="path6737"
       sodipodi:nodetypes="cscccsscsscsscc" /><path
       d="m 208.60986,130.17161 c 0,0 -4.144,3.39066 -4.332,5.83866 -0.188,2.44934 5.83867,-0.188 5.83867,-0.188 z"
       style="fill:#000000;fill-opacity:1;fill-rule:nonzero;stroke:none;stroke-width:1.33333"
       id="path6741" /><path
       d="m 202.39426,130.35987 c 0,0 -2.26,4.70934 -2.26,6.404 0,1.69467 0.188,5.83867 0.188,5.83867 0,0 -2.82533,-5.83867 -2.072,-7.53333 0.75334,-1.696 4.144,-4.70934 4.144,-4.70934"
       style="fill:#000000;fill-opacity:1;fill-rule:nonzero;stroke:none;stroke-width:1.33333"
       id="path6745" /><path
       d="m 209.92826,138.27067 -5.27333,2.82534 c 0,0 6.404,1.31866 6.404,0.75333 0,-0.56533 -0.56534,-3.76667 -0.56534,-3.76667"
       style="fill:#000000;fill-opacity:1;fill-rule:nonzero;stroke:none;stroke-width:1.33333"
       id="path6749" /></g></svg>
