<?xml version="1.0" encoding="UTF-8" standalone="no"?>
<!-- Created with Inkscape (http://www.inkscape.org/) -->

<svg
   version="1.1"
   id="svg1242"
   width="400"
   height="400"
   viewBox="0 0 400 400"
   sodipodi:docname="FerengiEar3.svg"
   inkscape:version="1.2.2 (b0a8486, 2022-12-01)"
   xmlns:inkscape="http://www.inkscape.org/namespaces/inkscape"
   xmlns:sodipodi="http://sodipodi.sourceforge.net/DTD/sodipodi-0.dtd"
   xmlns="http://www.w3.org/2000/svg"
   xmlns:svg="http://www.w3.org/2000/svg">
  <defs
     id="defs1246" />
  <sodipodi:namedview
     id="namedview1244"
     pagecolor="#ffffff"
     bordercolor="#666666"
     borderopacity="1.0"
     inkscape:showpageshadow="2"
     inkscape:pageopacity="0.0"
     inkscape:pagecheckerboard="0"
     inkscape:deskcolor="#d1d1d1"
     showgrid="false"
     inkscape:zoom="1.475"
     inkscape:cx="85.762712"
     inkscape:cy="202.71186"
     inkscape:window-width="1920"
     inkscape:window-height="1080"
     inkscape:window-x="2280"
     inkscape:window-y="111"
     inkscape:window-maximized="0"
     inkscape:current-layer="layer7">
    <inkscape:page
       x="0"
       y="0"
       id="page1248"
       width="400"
       height="400" />
  </sodipodi:namedview>
  <g
     inkscape:groupmode="layer"
     id="layer7"
     inkscape:label="Back">
    <path
       d="m 336.14492,124.62934 c -0.22533,0.268 -0.42933,0.55067 -0.624,0.84133 -5.30666,7.89867 -5.50133,20.404 -5.71066,29.52667 -0.0613,2.66667 0.31867,5.528 -0.28133,8.092 -0.75334,3.22533 -1.75734,6.41067 -2.452,9.66667 -1.44267,6.75866 -2.35867,13.66133 -2.09067,20.584 0.22,5.70266 2.09733,14.63599 9.048,14.63999 4.74933,0.003 10.17333,0.80267 12.53466,-4.01066 2.77467,-5.65867 2.364,-12.38933 2.64534,-18.492 0.21866,-4.75467 1.24133,-9.88667 1.75066,-14.72667 0.284,-2.70266 1.13467,-5.304 1.752,-8.02266 0.94,-4.14134 2.95467,-7.59867 5.00667,-11.27867 1.05067,-1.88533 4.05733,-5.67467 3.88,-7.988 -0.17467,-2.26667 -1.744,-7.49733 -1.744,-11.33333 0,-3.83734 -0.348,-17.264 -0.52267,-19.87867 -0.17466,-2.616 -9.24266,1.74267 -14.124,8.19467 -4.88266,6.452 0.17334,-6.8 -9.068,4.18533"
       style="fill:#cd976d;fill-opacity:1;fill-rule:nonzero;stroke:none;stroke-width:1.33333"
       id="path19002" />
    <path
       d="m 354.45439,141.54467 c -0.33733,-4.55066 -3.44133,-7.88133 -2.964,-12.72933 0.23867,-2.428 1.33333,-3.972 3.436,-5.27867 1.284,-0.79866 2.328,-1.11066 3.016,-2.584 0.72933,-1.56266 1.17467,-3.98266 1.08267,-5.7 -3.176,-0.58933 -5.91467,-1.068 -9.092,-0.69333 -5.612,0.66267 -11.95067,2.26267 -16.84667,5.188 -6.856,4.096 -6.248,15.82667 -7.01066,22.77067 -0.936,8.528 -1.11334,17.64933 -0.37734,26.21466 0.58,6.75067 1.88534,13.37334 3.21867,20.06534 1.128,5.66266 1.02533,15.89733 6.87466,19.14399 2.408,1.33467 6.472,0.58667 8.75067,-0.79466 2.14933,-1.30667 4.7,-5.448 2.60933,-7.82267 -1.14,-1.29466 -2.36133,-1.80666 -3.18666,-3.592 -2.41734,-5.22933 -2.94,-9.716 -3.244,-15.37466 -0.27334,-5.07467 -1.07734,-10.56534 0.99733,-15.38667 2.928,-6.808 7.728,-13.01867 11.128,-19.64 0.49867,-0.97067 1.69467,-2.62267 1.608,-3.78667"
       style="opacity:0.199997;fill:#000000;fill-opacity:1;fill-rule:nonzero;stroke:none;stroke-width:1.33333"
       id="path19012" />
    <path
       d="m 360.90612,109.98201 c 0,5.10533 -1.22,20.05333 1.22,28.772 0.98934,3.53066 -0.71733,7.85466 -1.93866,11.11066 -1.8,4.79734 -4.62667,9.104 -6.21334,13.908 -1.15733,3.504 -2.29466,6.548 -2.65333,10.20667 -0.52533,5.36133 -1.4,10.564 -1.4,16.06667 0,9.216 0.59467,18.59066 -10.45333,20.16266 -1.704,0.24267 -4.62,0.83867 -6.05467,-0.10533 -1.62,-1.06534 -2.33333,-2.60667 -1.94933,-4.36 2.15733,-0.63067 4.22666,-0.11734 6.28933,-0.59734 1.43867,-0.33466 2.98667,-1.05333 4.25867,-1.73466 3.35066,-1.79067 3.69466,-5.26533 4.42133,-8.68 0.83467,-3.92133 0.84267,-8.22667 1.22933,-12.20933 0.43067,-4.43067 0.952,-8.92 1.95334,-13.30134 1.26133,-5.52 2.53066,-10.464 5.29066,-15.42933 1.89334,-3.408 6.39334,-9.772 5.128,-13.992 -2.092,-6.97467 -2.44133,-23.36533 -1.91733,-25.45733 0.52267,-2.09334 2.78933,-6.62667 2.78933,-4.36"
       style="fill:#000000;fill-opacity:1;fill-rule:nonzero;stroke:none;stroke-width:1.33333"
       id="path19022" />
    <path
       d="m 347.13052,122.36254 c 0,0 2.092,0.34933 3.488,5.58 1.39467,5.23067 1.22,9.068 1.91734,10.11333 0.69733,1.04667 0.872,5.58 0.17466,7.67334 0,0 3.13867,-5.05734 1.91867,-7.67334 -1.22133,-2.61466 -2.268,-6.97466 -2.268,-9.24133 0,-2.26667 -0.69733,-9.76533 -0.69733,-9.76533 0,0 -6.97467,-0.69734 -4.53334,3.31333"
       style="fill:#000000;fill-opacity:1;fill-rule:nonzero;stroke:none;stroke-width:1.33333"
       id="path19026" />
  </g>
  <g
     id="g1250"
     inkscape:groupmode="layer"
     inkscape:label="Front"
     style="display:inline">
    <path
       d="m 238.32119,100.56574 c 2.796,0.71067 6.31734,1.796 9.12534,1.29067 4.52133,-0.81467 8.828,-0.30267 13.40666,-0.66667 2.21067,-0.176 4.81867,-0.31333 6.916,-1.07467 1.39867,-0.506662 2.676,-1.430662 3.968,-2.069329 5.70267,-2.82 12.26667,-3.872 17.74667,-6.976 3.55733,-2.016 7.09733,-5.488 11.256,-6.162666 6.856,-1.113334 14.712,3.599999 20.428,6.585333 4.51733,2.36 8.79333,5.245333 13.596,7.018666 3.936,1.453334 9.16133,0.436 12.716,3.101336 2.78933,2.092 2.44,7.32266 0.69733,10.11333 -1.744,2.78933 -26.156,11.508 -26.156,11.508 l -45.68666,-3.48667 -39.408,-19.18133"
       style="fill:#cd976d;fill-opacity:1;fill-rule:nonzero;stroke:none;stroke-width:1.33333"
       id="path31754" />
    <path
       d="m 348.24839,101.80334 c -6.10933,-0.42933 -13.37733,-2.282666 -18.66266,-4.889332 -3.204,-1.58 -6.58934,-2.589334 -9.692,-4.258667 2,1.205333 3.82,2.593333 5.77733,3.862667 3.012,1.954666 5.56533,3.101333 9.27866,4.289332 3.98267,1.276 11.07334,4.18267 15.04934,2.444 0.16266,-0.38 0.009,-0.67733 -1.75067,-1.448"
       style="opacity:0.199997;fill:#000000;fill-opacity:1;fill-rule:nonzero;stroke:none;stroke-width:1.33333"
       id="path31764" />
    <path
       d="m 276.33466,119.74694 c -10.648,-5.18267 -21.256,-10.49733 -31.876,-15.69733 1.072,0.52533 3.54,-0.216 4.76933,-0.23334 1.924,-0.0253 3.84134,0.068 5.768,-0.016 3.85334,-0.16533 7.69067,-0.64 11.46934,-1.41333 7.55466,-1.544 14.868,-4.278666 21.56133,-8.110666 4.852,-2.778666 9.68533,-6.218666 15.26933,-6.504 2.83734,-0.145333 5.71334,0.576 8.14534,2.042667 -1.03467,-0.624 -3.956,-0.214667 -5.17467,-0.238667 -1.76533,-0.03467 -3.87333,-0.296 -5.60667,0.05333 -3.068,0.617333 -5.79866,2.942666 -8.16666,4.868 -3.82267,3.109333 -9.232,5.2 -13.68134,7.264006 -6.092,2.82666 -11.70533,4.49066 -18.42666,4.20933 -0.51867,-0.0227 -4.44,0.37333 -4.57334,0.21333 4.628,5.56 12.98134,3.776 18.74134,1.26934 3.36133,-1.46267 6.87066,-2.39467 10.116,-4.192 6.02,-3.33334 11.55333,-7.834673 18.336,-9.558673 9.34266,-2.372 16.17066,2.656 24.24666,6.380003 6.27067,2.892 13.17067,4.18667 20.052,4.76133 -0.0227,1.436 -1.37867,2.56934 -2.79067,2.832 -1.412,0.26134 -2.85466,-0.14 -4.22666,-0.564 -5.188,-1.60133 -10.26,-3.58 -15.16267,-5.91333 -4.55466,-2.169336 -9.284,-5.809336 -14.30266,-6.697336 -3.88934,-0.688 -7.26,0.889333 -10.58534,2.550666 -3.668,1.834667 -7.06533,3.08534 -10.256,5.824 -2.62266,2.24934 -5.70666,3.41867 -8.87333,4.78934 -3.61867,1.568 -8.06267,3.60133 -11.9,4.06 2.80133,-0.25867 4.95067,1.648 7.46,0.64 2.42933,-0.976 4.76267,-2.16 7.10667,-3.36934 3.136,-1.61733 6.22133,-3.29333 9.088,-5.33066 14.34,-10.192006 29.90933,-2.67467 42.69199,5.96533 0.644,0.43467 1.37734,1.15067 1.052,1.85733 -0.28533,0.61867 -1.148,0.64934 -1.82,0.52534 -5.65866,-1.03467 -9.58666,-5.72667 -14.15599,-8.79734 -5.88134,-3.950666 -13.56534,-3.748 -19.96534,-1.25866 -8.08666,3.144 -14.99066,8.56266 -22.08,13.44 2.756,1.74666 6.47734,0.76533 9.17734,-1.068 2.69866,-1.83334 4.83066,-4.41334 7.55333,-6.212 6.46933,-4.27467 17.59467,-4.588 24.85333,-2.3 2.624,0.82666 5.97734,3.44666 7.46667,5.73466 -2.464,3.12934 -7.96133,-3.10133 -10.65333,-3.87333 -6.81734,-1.95867 -16.37467,-2.83867 -21.50667,2.99333 -1.24933,1.42 -4.13333,3.812 -4.144,5.936 -0.008,1.64267 2.75867,0.17334 2.63733,1.74267 -0.22,2.812 -7.136,2.256 -8.82533,2.068 -2.38,-0.264 -6.62533,0.39067 -8.808,-0.672"
       style="opacity:0.199997;fill:#000000;fill-opacity:1;fill-rule:nonzero;stroke:none;stroke-width:1.33333"
       id="path31780" />
    <path
       d="m 313.78119,118.73427 c -0.0907,1.872 -0.68533,4.044 -1.832,6.436 -2.22933,4.64534 -8.35333,7.05067 -13.288,6.608 -5.68266,-0.51066 -11.27733,-1.692 -16.78666,-3.14133 -2.956,-0.77733 -6.228,-1.68667 -9.34,-1.256 -1.552,0.21467 -3.024,0.82933 -4.43467,1.43333 -5.11867,2.19467 -11.044,3.88267 -16.596,4.40134 -4.996,0.468 -10.47067,0.53066 -14.94,2.92133 -4.26933,2.284 -6.83333,6.16 -9.59067,9.992 -2.38933,3.32267 -4.756,6.776 -6.28533,10.59467 -1.57867,3.94 -1.05467,7.888 -0.50533,12.02666 0.20666,1.552 0.0107,2.928 0.0413,4.41467 0.032,1.51867 0.71333,2.72 1.15867,4.16267 0.99066,3.20133 -0.56,8.67866 -2.28267,11.524 -1.89333,3.12933 -6.204,6.644 -9.59733,8.07866 -1.81334,0.76667 -3.54267,1.756 -5.34,2.46 -1.79067,0.7 -5.20933,1.856 -7.12,1.66933 -3.41867,-0.33466 -5.86,-1.30799 -9.172,-2.43466 -5.81467,-1.97867 -8.164,-9.18667 -12.77333,-12.71467 -2.256,-1.72666 -4.76534,-3.39333 -6.59734,-5.46266 -2.18533,-2.46534 -4.18533,-5.65334 -5.73866,-8.46267 -2.61334,-4.724 -4.88534,-8.55067 -6.41867,-13.62267 -0.88933,-2.93866 -1.148,-6.12133 -1.92933,-9.328 -0.964,-3.95333 -2.36267,-7.652 -3.12934,-11.628 -1.16933,-6.072 1.29334,-11.24 1.57334,-17.23733 0.332,-7.1 3.988,-11.43867 7.98533,-17.27733 3.66667,-5.356002 8.29067,-12.102669 14.58533,-14.257336 3.884,-1.329333 7.728,-2.478666 11.956,-2.150666 8.036,0.624 16.47333,0.313333 24.09067,2.932 22.13866,7.613333 43.98666,18.068002 66.604,24.053332 8.87733,2.34933 14.95866,1.41067 23.00133,-1.05467 8.24133,-2.52666 12.988,0.404 12.70133,6.32"
       style="fill:#cd976d;fill-opacity:1;fill-rule:nonzero;stroke:none;stroke-width:1.33333"
       id="path31790" />
    <path
       d="m 313.76146,117.53867 c -10e-4,-0.0173 -0.005,-0.0333 -0.007,-0.0507 -0.032,-0.372 -0.0853,-0.73067 -0.16133,-1.07334 0,0 0,0 0,0 -0.348,-0.50533 -0.832,-0.92133 -1.508,-1.19333 -0.012,0.93467 -0.0613,2.048 0,2.97733 -0.0933,-0.59466 -0.42533,-1.17066 -0.93867,-1.54 -0.67333,1.25067 -1.59866,2.33334 -2.27733,3.584 -0.44533,0.82134 -0.81867,1.75867 -1.37867,2.524 -1.37466,1.87334 -4.53733,2.588 -6.688,2.708 -0.0187,-0.028 -0.0413,-0.052 -0.068,-0.072 0.35467,-0.55333 0.85334,-0.90933 1.152,-1.50266 1.12,-2.21334 0.65067,-4.65867 0.684,-7.016 -1.372,3.384 -4.57466,6.20933 -7.992,7.36533 -3.20666,1.08533 -6.91066,0.35733 -10.192,0.124 -3.14266,-0.22267 -6.192,-0.79333 -9.204,-1.67867 -2.708,-0.796 -5.29466,-2.09733 -7.93466,-3.09733 -3.724,-1.41067 -7.38,-2.85067 -11.00534,-4.56 0.452,0.35733 0.86534,0.86933 1.12,1.40133 -3.37466,-0.60666 -6.83866,-1.4 -10.16133,-2.2 -1.75467,-0.42266 -3.616,-0.93733 -5.27333,-1.61866 -2.62,-1.076 -4.95334,-2.836 -7.432,-4.26 -2.78934,-1.604 -5.66,-3.168 -8.35867,-4.89467 -1.976,-1.26533 -3.81067,-2.56933 -5.25467,-4.463999 0.0613,2.138669 1.132,3.371999 2.12667,5.129329 -3.392,-1.06266 -6.93333,-1.98533 -10.24133,-3.29066 -3.47067,-1.372002 -6.508,-3.950669 -9.71734,-5.846669 -1.516,-0.897333 -3.05733,-1.828 -4.54933,-2.72 0.18,0.938667 0.492,1.78 1.09867,2.494667 -0.17467,-0.206667 -2.216,0.110666 -2.55467,0.122666 -0.67066,0.02533 -1.24,-0.08133 -1.88666,-0.134666 -1.58534,-0.129334 -3.332,0.709333 -4.89467,0.946666 -0.984,0.150667 -1.91333,0.364 -2.92133,0.44 -1.25734,0.09333 -2.348,0.694667 -3.56667,0.86 -1.02,0.138667 -2.00133,0.122667 -3.00533,0.329334 -1.01734,0.210666 -2.05067,0.325333 -3.08134,0.452 -1.97466,0.242666 -4.016,0.517333 -5.75466,1.556 -1.424,0.852002 -2.52267,2.145332 -3.56,3.440002 -1.84134,2.3 -3.57867,4.68133 -5.20534,7.136 -1.56933,2.368 -1.92266,5.23866 -2.82533,7.89333 2.396,-7.052 7.768,-13.25867 14.44133,-16.60267 0.58134,-0.29066 1.176,-0.56266 1.79867,-0.75466 0.324,-0.0987 1.68533,-0.544002 1.96667,-0.26267 0.50533,0.50533 -2.13334,2.67467 -2.49467,3.05333 -1.15867,1.21067 -2.3,2.44134 -3.37867,3.72534 -1.53066,1.82133 -2.91333,3.77333 -4.408,5.63066 -1.72933,2.15067 -3.352,4.32134 -4.33866,6.91734 -1.00267,2.64666 -1.528,5.45066 -1.83867,8.25466 -0.39067,3.52 -0.364,7.07734 -0.76533,10.59334 -0.384,3.38 0.0813,6.516 0.704,9.84266 1.21733,6.50934 5.748,10.99067 9.41333,16.10134 1.228,1.71066 3.80133,5.184 5.664,5.99333 -0.98667,-2.18133 -2.448,-4.11467 -3.42,-6.30533 -0.90933,-2.048 -0.82933,-4.16 -1.63333,-6.19734 -2.49334,-6.312 -6.19067,-13.23066 -6.58934,-20.156 -0.428,-7.432 2.22667,-15.196 6.42667,-21.228 3.096,-4.44533 6.32933,-8.84266 11.22133,-11.21066 2.08267,-1.00667 4.25067,-1.972 6.45467,-2.4 0.66667,-0.13067 4.42,-1.016 4.36,0.0387 -0.0173,0.30934 -9.43867,3.55734 -10.536,4.25734 -2.16133,1.37733 -4.38667,2.844 -6.14,4.67466 -1.95333,2.04 -3.03733,4.48267 -4.48933,6.84934 -1.01067,1.648 -1.96667,3.34 -2.484,5.20266 -0.21867,0.78667 -0.90134,4.952 -0.0613,5.37467 0.468,0.23467 4.68267,-7.83067 5.12,-8.39067 2.26,-2.9 5.344,-5.028 8.43067,-6.96 1.54933,-0.96933 5.776,-4.47733 5.80933,-0.41466 0.0173,2.116 -3.156,4.19466 -4.472,5.43333 -5.29866,4.97867 -11.98933,10.49467 -12.532,18.31867 -0.24533,3.52933 0.884,7 2.136,10.308 0.468,1.23466 0.57067,2.63333 1.25867,3.73466 0.84267,1.348 2.55467,2.08667 3.65333,3.20134 2.50667,-2.52 4.00667,-5.06 7.68934,-5.15067 4.84666,-0.12133 9.02133,0.17067 13.60399,-1.356 -0.908,2.036 -4.71999,2.77067 -6.59466,3.41333 -2.27067,0.77734 -3.968,1.91467 -5.532,3.712 -1.676,1.92667 -3.37067,4.912 -2.61467,7.49734 1.48534,5.072 6.392,11.64533 12.10134,12.176 3.50399,0.32666 6.82666,-0.18267 10.08666,-1.492 1.60933,-0.64667 3.116,-1.65067 4.76267,-2.08934 0.27066,-0.072 3.484,-0.296 3.50933,-0.57333 -0.16533,1.82533 -3.33867,2.54933 -4.63867,3.49733 -2.07866,1.51734 -3.78,3.49867 -5.50533,5.388 -2.08533,2.28267 -4.124,4.62267 -5.4,7.32134 0.712,-1.50534 7.09733,-4.91734 8.70933,-4.94534 0.94667,-0.016 1.24534,2.68 1.11334,3.26667 -0.20667,0.92533 -0.95067,1.828 -1.37734,2.68133 -1.02533,2.044 -2.13866,3.89067 -3.87733,5.42 -2.492,2.192 -5.68133,3.372 -8.932,3.84934 -2.436,0.35733 -5.684,0.456 -7.95333,-0.59334 -1.31067,-0.60666 -2.57067,-1.4 -3.98533,-1.744 0.78133,1.288 1.02133,2.49867 2.188,3.54667 0.29066,0.13467 0.58666,0.26133 0.896,0.36667 3.312,1.12666 5.752,2.09999 9.172,2.43599 1.90933,0.18667 5.32799,-0.96933 7.11999,-1.67066 1.79734,-0.70267 3.52667,-1.692 5.34,-2.45867 1.272,-0.53866 2.67334,-1.36933 4.028,-2.36133 2.25867,-1.656 4.38534,-3.76133 5.56934,-5.71733 0,-0.001 0.001,-0.001 0.001,-0.003 0.25467,-0.42133 0.476,-0.872 0.69333,-1.32267 0.72667,-1.54933 1.34,-3.476 1.65867,-5.36666 0.0307,-0.192 0.076,-0.38534 0.1,-0.576 0.0653,-0.47734 0.10533,-0.94667 0.124,-1.40534 0.003,-0.0507 0.005,-0.10266 0.007,-0.15466 0.0133,-0.46934 0.001,-0.924 -0.0427,-1.356 -0.004,-0.0413 -0.012,-0.0827 -0.0173,-0.12267 -0.0427,-0.364 -0.11467,-0.704 -0.204,-1.02933 -0.30667,-0.93334 -0.90667,-1.85867 -0.936,-2.81467 -0.13867,-0.48933 -0.24934,-0.98933 -0.26,-1.536 -0.032,-1.48667 0.16533,-2.86267 -0.0413,-4.41467 -0.55066,-4.13866 -1.07333,-8.08666 0.50534,-12.028 1.52933,-3.81733 3.896,-7.27066 6.28533,-10.59333 2.75733,-3.832 5.32133,-7.708 9.59067,-9.992 4.46933,-2.39067 9.944,-2.45467 14.94,-2.92133 5.552,-0.51867 11.476,-2.20667 16.596,-4.40134 1.41066,-0.60533 2.88266,-1.21866 4.43466,-1.43333 3.112,-0.43067 6.38267,0.47733 9.33867,1.256 1.34267,0.35333 2.692,0.68933 4.044,1.004 0.48933,0.1 1.004,0.21467 1.57733,0.34 0.28,0.0613 0.56134,0.11867 0.84267,0.18 0.51467,0.10933 1.02933,0.22933 1.54533,0.33067 0.156,0.0307 0.31067,0.0627 0.46534,0.092 1.23466,0.23733 2.47466,0.44666 3.71733,0.632 0.25733,0.0387 0.51467,0.0733 0.77333,0.10933 1.26934,0.17867 2.54267,0.33733 3.82134,0.45333 0.344,0.0307 0.68933,0.0427 1.036,0.048 0.12533,0.001 0.25333,-0.005 0.38,-0.007 0.068,-0.001 0.13733,-0.001 0.20666,-0.004 0.132,-0.003 0.26267,-0.007 0.39467,-0.0147 0.11467,-0.007 0.23067,-0.0173 0.34667,-0.028 0.0867,-0.008 0.17333,-0.0133 0.26133,-0.0227 0.0653,-0.004 0.13067,-0.008 0.19733,-0.016 0.032,-0.004 0.0653,-0.008 0.1,-0.012 1.28134,-0.15333 2.57467,-0.47066 3.81334,-0.948 0.0587,-0.0227 0.116,-0.0507 0.17333,-0.0747 0.17333,-0.0693 0.34533,-0.14267 0.516,-0.21867 0.13067,-0.0587 0.26133,-0.116 0.38933,-0.17733 0.16534,-0.08 0.32667,-0.16267 0.488,-0.248 0.18667,-0.0987 0.372,-0.20134 0.55334,-0.308 0.0133,-0.008 0.0267,-0.016 0.0413,-0.024 0.0933,-0.056 0.18667,-0.11067 0.27867,-0.168 1.3,-0.81867 2.16933,-1.87467 3.22533,-2.92534 0.16667,-0.228 0.324,-0.46133 0.472,-0.70133 0.148,-0.24667 0.29067,-0.49867 0.41467,-0.76 1.148,-2.392 1.74266,-4.56267 1.83333,-6.43467 0.02,-0.41466 0.012,-0.81333 -0.02,-1.196"
       style="opacity:0.199997;fill:#000000;fill-opacity:1;fill-rule:nonzero;stroke:none;stroke-width:1.33333"
       id="path31800" />
    <path
       d="m 182.57466,171.27134 c -1.42,-1.644 -2.73733,-3.37867 -3.72666,-5.308 -1.91067,-3.72267 -2.48134,-7.91067 -3.516,-11.91867 -1.09867,-4.25066 -3.076,-8.20266 -4.5,-12.348 -1.98267,-5.77466 -3.30667,-12.47333 -1.308,-18.472 0.7,-2.10533 2.40666,-3.948 3.79066,-5.66266 6,-7.432 12.98934,-12.9 22.072,-16.02 5.776,-1.984002 12.14267,-1.941336 17.62133,0.76533 4.67334,2.30933 9.64667,3.952 14.21734,6.48533 4.71466,2.61467 10.04266,4.35067 15.152,6.336 3.86266,1.50134 7.53466,2.80134 11.26933,4.59334 1.824,0.87466 3.912,1.38266 5.50267,2.5 -2.56667,0.29066 -5.49334,-0.76134 -7.98934,-1.32267 -3.55066,-0.796 -6.30933,-2.768 -10.112,-2.336 -1.708,0.19333 -3.36666,0.68 -5.03333,1.184 -2.18667,0.66133 -4.38667,1.352 -6.724,1.44933 -4.61333,0.19067 -1.936,-2.12666 -2.728,-4.82133 -1.00133,-3.408 -7.584,-5.08267 -10.484,-5.87333 -5.69733,-1.556 -11.61733,-2.04267 -17.5,-1.75334 -2.656,0.13067 -5.76666,0.41334 -7.81066,2.2 -2.064,1.80267 -3.38267,4.37734 -5.08134,6.49467 -1.80266,2.24933 -3.928,4.248 -5.72,6.524 -2.61333,3.31733 -5.748,6.41067 -6.70666,10.67467 -1.056,4.69333 -0.89334,8.86266 0.81333,13.452 2.65733,7.13866 6.37733,13.70933 10.68933,19.91066 3.788,5.448 10.56667,15.13867 18.46533,10.8 -1.256,0.912 -2.192,2.19334 -3.36799,3.20667 -1.17467,1.01467 -2.77334,1.772 -4.25734,1.31733 -0.744,-0.228 -1.36666,-0.732 -1.96266,-1.232 -3.508,-2.944 -6.81734,-6.124 -9.89867,-9.512 -0.39333,-0.43333 -0.784,-0.86933 -1.16667,-1.31333"
       style="opacity:0.199997;fill:#000000;fill-opacity:1;fill-rule:nonzero;stroke:none;stroke-width:1.33333"
       id="path31816" />
    <path
       d="m 176.30213,170.84974 c 2.336,3.97067 5.348,7.60267 8.01333,11.272 2.00134,2.756 3.656,6.67867 7.26134,7.30267 -1.496,-1.13867 -3.05867,-2.06534 -3.744,-3.89734 -0.47067,-1.25866 -0.432,-2.50933 -0.0413,-3.712 0.37334,-1.15066 0.73867,-1.26266 0.116,-2.41466 -0.84266,-1.556 -2.45333,-2.73734 -3.836,-3.73334 -1.548,-1.11333 -2.90133,-2.388 -4.38,-3.56533 -1.23333,-0.98133 -3.1,-1.98 -3.38933,-1.252"
       style="opacity:0.199997;fill:#000000;fill-opacity:1;fill-rule:nonzero;stroke:none;stroke-width:1.33333"
       id="path31832" />
    <path
       d="m 222.25573,185.46507 c 0.20933,-2.8 -0.67334,-5.61866 -2.88,-7.29333 -0.992,1.20133 -0.59734,2.964 -0.50667,4.52 0.348,5.98933 -4.76,9.76267 -9.464,12.34 -4.12667,2.26133 -8.284,5.776 -12.936,5.07066 -3.02266,-0.45733 -5.88533,-2.30266 -8.416,-4.01599 -19.104,-12.93067 -32.38933,-35.69067 -34.888,-58.62267 -0.90933,-8.34933 -0.43466,-17.076 3.124,-24.684 2.932,-6.27067 7.76934,-11.41733 12.52534,-16.447999 2.33733,-2.472 4.74133,-4.994667 7.78666,-6.512 3.48134,-1.733333 7.49867,-2.001333 11.388,-1.953333 26.432,0.332 50.708,13.550662 75.85067,21.714662 2.43866,0.79067 4.93066,1.45467 7.30533,2.39867 3.45067,1.37333 6.28,2.90533 10.144,2.88 1.504,-0.009 3.096,-0.188 4.432,0.504 -0.45067,0.14933 -3.164,1.34 -3.38533,1.244 1.09333,0.47733 2.64,0.056 3.764,-0.148 1.62533,-0.29467 3.27866,-0.41467 4.93066,-0.61733 2.87334,-0.35334 5.75867,-0.896 8.44267,-2.016 2.55733,-1.06667 5.15733,-2.168 7.99867,-2.004 2.82266,0.16266 5.82,1.812 6.44533,4.56933 0.35333,1.56 -0.0987,3.17867 -0.584,4.70267 -0.79067,2.48133 -1.75067,5.03866 -3.692,6.77333 -2.78667,2.48933 -6.89333,2.7 -10.62267,2.48267 -7.90666,-0.46134 -15.67733,-2.252 -23.31466,-4.352 -12.2,-3.35334 -24.18,-7.51067 -35.83734,-12.428 -10.064,-4.24667 -19.90933,-9.068 -30.284,-12.48534 -10.37333,-3.417329 -21.44666,-5.406662 -32.24666,-3.773329 -1.676,0.253333 -3.40667,0.622667 -4.744,1.664 2.604,-0.518667 5.296,-0.598667 7.92533,-0.233333 -1.16933,-0.162667 -4.20933,2.714662 -5.096,3.437332 -1.764,1.43733 -3.38266,3.048 -4.84666,4.788 -2.96134,3.52 -5.272,7.564 -6.95334,11.83867 -4.23866,10.77733 -5.37333,25.15733 0.26267,35.67866 1.99333,3.72 4.92267,6.836 7.42267,10.236 3.63866,4.948 6.38133,10.472 9.804,15.56134 1.712,2.54666 3.58933,5.00133 5.81066,7.128 1.84534,1.76666 3.936,4.484 6.596,4.88533 2.82534,0.428 5.388,-1.556 7.55467,-3.41733 -2.86933,-0.52 -5.97733,1.34133 -8.63867,0.14933 -0.99333,-0.44667 -1.764,-1.26533 -2.50533,-2.06267 -2.156,-2.32133 -4.31867,-4.64266 -6.29733,-7.11866 -1.75067,-2.19334 -3.62534,-4.06934 -4.68,-6.74934 3.256,1.57067 5.36133,5.928 9.52533,5.97867 -2.31333,-2.13867 -4.92533,-3.932 -7.20533,-6.10667 -2.00534,-1.91333 -3.47467,-4.43333 -5.64134,-6.16933 -3.29066,-2.63333 -6.34666,-6.768 -8.696,-10.444 -3.20933,-5.02267 -4.216,-11.16667 -4.22666,-17.128 -0.008,-3.74133 0.352,-7.46667 0.684,-11.188 0.28933,-3.26533 0.26533,-6.288 1.668,-9.292 2.56133,-5.488 7.17866,-10.448 11.50933,-14.58667 2.21733,-2.11866 4.84133,-4.01466 7.75467,-4.765329 2.536,-0.654667 5.05466,-0.453333 7.63466,0.044 4.69734,0.906669 9.48133,2.497329 14.12,3.613329 1.672,0.40267 3.048,0.816 4.61867,1.50134 5.776,2.524 12.03066,3.96 17.60266,6.876 7.01334,3.67066 14.444,4.928 21.704,8.01733 1.96534,0.836 3.99734,1.70133 5.956,2.4 4.46267,1.592 9.22934,3.272 14.13867,4.764 8.62267,2.62133 18.39333,5.592 28.444,6.49467 5.15333,0.47066 11.664,-2.23067 14.25333,-7.63067 1.2,-2.50133 2.21734,-4.568 2.31867,-6.67733 0.144,-2.968 -0.82133,-5.348 -2.79067,-6.87867 -1.784,-1.38667 -4.09466,-1.82133 -6.30933,-1.75067 -3.93467,0.12667 -7.24933,2.36534 -11.03333,3.04667 -4.22667,0.76133 -8.57867,0.58 -12.80534,-0.0827 -1.968,-0.30933 -3.91866,-0.72133 -5.844,-1.23333 -3.20133,-0.852 -6.31866,-1.97867 -9.42533,-3.12133 -3.244,-1.192 -6.57333,-2.16267 -9.81067,-3.35067 -6.62933,-2.43067 -13.21066,-5.07867 -19.78533,-7.674666 -8.74267,-3.453333 -17.58933,-7.429333 -26.52267,-10.266666 -3.924,-1.246667 -8.76666,-1.328 -12.86933,-2.053333 -4.54266,-0.802667 -9.16266,-1.350667 -13.74266,-0.493334 -4.38667,0.821334 -9.96267,2.122667 -13.25467,5.362667 -6.076,5.981333 -11.95067,13.264002 -16.724,20.321332 -6.69067,9.89467 -5.228,22.22 -2.85733,33.34 2.46933,11.58667 7.26133,22.68667 14.108,32.36267 4.572,6.46 9.996,12.26533 15.476,17.97466 5.06,5.27334 10.17333,9.28133 17.89066,8.34667 4.40667,-0.53334 8.548,-2.38 12.45733,-4.48533 3.78667,-2.04134 7.58667,-4.50534 9.676,-8.26534 0.744,-1.34 1.19334,-2.88266 1.30934,-4.432"
       style="fill:#000000;fill-opacity:1;fill-rule:nonzero;stroke:none;stroke-width:1.33333"
       id="path31842" />
    <path
       d="m 316.54026,114.13654 c 3.94933,-4.69733 12.81333,-3.404 18.23866,-3.45733 3.25067,-0.0307 8.32267,-0.0867 10.79467,-2.432 2.33067,-2.21067 2.03067,-6.704 4.84267,-8.637336 2.79866,-1.925333 6.688,-1.229333 9.272,1.165336 3.39333,3.14266 1.516,7.44 -0.44667,10.85466 -2.48133,4.31467 -4.26533,6.90667 -8.79733,9.33867 -6.75467,3.62533 -12.98,6.94 -20.92667,7.816 -3.27333,0.36133 -10.14533,2.05067 -13.084,-0.0733 -3.44666,-2.492 -2.28533,-11.704 0.10667,-14.57467"
       style="fill:#cd976d;fill-opacity:1;fill-rule:nonzero;stroke:none;stroke-width:1.33333"
       id="path31846" />
    <path
       d="m 316.45853,115.01281 c 0.044,0.003 0.0907,0.0107 0.136,0.024 0.384,0.10266 0.33733,0.948 0.32,1.28933 -0.084,1.64933 -0.37867,3.48933 0.32666,5.056 0.23067,0.512 0.66667,0.848 1.13734,1.128 1.524,0.90267 3.20266,1.57467 4.91866,2.00133 1.97467,0.492 4.21467,0.0733 6.19867,-0.216 1.088,-0.15733 2.08667,-0.62533 3.16,-0.84933 1.85066,-0.384 3.70133,-0.76533 5.53066,-1.24933 1.84,-0.48667 3.66534,-0.812 5.424,-1.54934 0.992,-0.41466 1.964,-0.964 2.864,-1.56 2.43867,-1.616 5.21334,-3.356 5.056,-6.65733 -0.032,-0.65467 -0.37066,-1.588 0.408,-1.79067 0.98534,-0.25733 1.82934,0.72 2.016,1.524 1.648,-0.16 2.684,-2.75466 2.752,-4.164 0.044,-0.91733 -0.95733,-3.09066 -0.42266,-3.86933 0.54266,-0.78933 1.304,0.42 1.97866,-0.068 0.81734,-0.59067 -0.13066,-2.10267 -0.40666,-2.75733 -0.39467,-0.93867 -0.53867,-1.648002 0.68533,-1.321336 2.03333,0.543996 2.78267,2.390666 2.98933,4.357336 0.088,0.84 -0.009,1.68933 -0.204,2.50666 -0.40533,1.69734 -1.22133,3.27867 -2.08533,4.78267 -2.48133,4.31467 -4.26533,6.90667 -8.796,9.33867 -6.756,3.62533 -12.98133,6.94 -20.92666,7.816 -3.27467,0.36 -10.14667,2.05066 -13.084,-0.0733 -1.948,-1.408 -2.20534,-4.39333 -2.15867,-6.584 0.02,-0.95066 0.49867,-7.23733 2.18267,-7.11466"
       style="opacity:0.199997;fill:#000000;fill-opacity:1;fill-rule:nonzero;stroke:none;stroke-width:1.33333"
       id="path31856" />
    <path
       d="m 317.03866,114.48627 c -1.22133,1.46667 -2.65467,6.43467 -2.28933,9.34534 0.24,1.90266 1.08533,3.43733 2.00266,4.10133 1.90267,1.37467 7.37334,0.33067 10.31734,-0.14 0.84533,-0.13467 1.628,-0.26 2.30266,-0.33333 7.74933,-0.85467 13.91467,-4.16267 20.44267,-7.66534 0.8,-0.42933 1.69733,-0.89066 2.37733,-1.5 0.60933,-0.54666 0.90533,-1.324 1.288,-2.02533 0.25467,-0.46667 0.288,-0.50667 0.77867,-0.46 1.15733,0.10933 2.10266,-1.87733 2.62,-2.74133 0.76266,-1.26934 1.332,-2.668 1.472,-4.15334 0.0467,-0.49866 0.11866,-0.98933 0.08,-1.49333 -0.0507,-0.64533 -0.33734,-1.248 -0.35067,-1.89867 0.88,1.008 1.02533,2.528 1.036,3.81334 0.44667,-1.05067 0.60667,-2.29867 0.65733,-3.47067 0.0387,-0.888 0.0173,-2.056 -0.36266,-2.84667 0.548,0.33334 0.812,1.168 0.988,1.71467 0.0653,-1.22933 -0.50267,-2.76667 -1.4,-3.59733 -1.20134,-1.11334 -2.56534,-2.130669 -4.28934,-2.202669 0.78134,0.0013 1.78667,0.809333 2.3,1.346669 -1.69333,-0.530669 -6.984,-1.126669 -6.83466,1.89333 0.588,0.13333 1.33333,0.08 1.63333,0.75867 -1.02933,-0.752 -2.85867,-0.104 -3.58133,0.80533 -0.43334,0.544 -0.57734,1.39067 -0.78,2.04533 -0.20134,0.65067 -0.50134,1.22667 -0.84534,1.80534 0.90134,-0.136 1.73734,-0.51067 2.664,-0.51734 -0.84,0.144 -1.828,0.42134 -2.568,0.89067 -0.384,0.244 -0.72266,0.532 -1.13066,0.756 -1.47334,0.81067 -2.88534,1.54533 -4.56934,1.86933 -1.66933,0.32134 -3.38133,0.35734 -5.07733,0.372 -0.55067,0.004 -1.13333,0.005 -1.73733,0.004 -5.05867,-0.0253 -13.99067,-0.22133 -17.144,3.524 m 4.74,16.548 c -1.92267,0 -3.748,-0.32533 -5.15067,-1.34 -1.54533,-1.11733 -2.54133,-3.12666 -2.87733,-5.808 -0.46267,-3.676 0.43067,-7.81733 2.12667,-9.852 3.95333,-4.7 8.92133,-3.69333 14.516,-3.67333 0.59466,0 3.67599,-0.15467 4.21733,-0.15867 2.91466,-0.0293 8.40666,-0.31866 10.504,-2.308 0.952,-0.904 1.54133,-3.14533 1.67733,-4.47066 0.0413,-0.40134 0.0653,-0.93734 0.003,-1.33467 -0.036,-0.21867 -0.41334,-0.91467 -0.388,-1.044 0.15733,-0.80667 2.036,-1.231999 2.65866,-1.475999 1.20267,-0.472 2.30267,-1.169333 3.55067,-1.526667 2.76667,-0.792 5.84133,-0.224 7.97867,1.754667 4.56,4.222669 1.22533,10.022669 -0.19867,12.497329 -2.43333,4.23334 -4.396,7.20667 -9.32133,9.84934 -6.76134,3.628 -13.148,7.056 -21.41067,7.96666 -0.636,0.0693 -1.376,0.188 -2.17466,0.316 -1.79067,0.28534 -3.79867,0.608 -5.71067,0.608"
       style="fill:#000000;fill-opacity:1;fill-rule:nonzero;stroke:none;stroke-width:1.33333"
       id="path31866" />
    <path
       d="m 179.06426,142.19401 c -0.0427,-0.48134 -0.0427,-0.89867 0.016,-1.22134 0.70267,-3.83733 2.21467,-7.58133 4.23467,-11 6.75867,-11.444 24.596,-22.268 38.34266,-13.42666 -4.2,1.716 -9.28133,-0.27467 -13.732,0.13866 -4.78133,0.444 -9.34266,2.224 -13.17999,4.75467 -6.76134,4.46267 -11.65467,9.24533 -12.932,16.91333 -0.62,3.71467 0.18,9.06667 -1.36,12.26 0.43866,-0.90933 -1.148,-5.68266 -1.38934,-8.41866"
       style="fill:#000000;fill-opacity:1;fill-rule:nonzero;stroke:none;stroke-width:1.33333"
       id="path31870" />
    <path
       d="m 191.76013,168.06534 c -5.23733,-3.60533 -10.53333,-9.09733 -13.48267,-14.75067 -3.37333,-6.46533 -6.67333,-15.04266 -2.17333,-21.532 2.028,-2.924 4.51333,-5.50133 6.62933,-8.36 2.08,-2.80933 3.624,-5.93333 6.09867,-8.452 1.88933,-1.92533 4.036,-4.948 6.656,-5.69866 4.096,-1.17334 8.60133,0.22133 12.71733,0.42 1.93067,0.0933 4.172,-0.17334 5.92133,0.46533 -4.83866,-1.76133 -9.48266,-3.55467 -14.95999,-2.99067 -3.63067,0.37334 -8.54934,1.77067 -11.29067,4.28667 -3.16267,2.904 -5.452,7.564 -8.024,11.01067 -2.80133,3.75466 -6.27867,7.568 -7.62,12.032 -1.40933,4.69333 -0.66267,8.7 1.128,13.176 3.42133,8.55466 22.28667,39.828 33.96533,25.00666 4.212,-5.34666 6.09467,-13.504 8.352,-19.66533 -4.228,7.104 -9.02667,25.29733 -19.11866,18.37867 -0.0827,-0.056 -4.71734,-3.27067 -4.79867,-3.32667"
       style="fill:#000000;fill-opacity:1;fill-rule:nonzero;stroke:none;stroke-width:1.33333"
       id="path31874" />
    <path
       d="m 179.986,139.82574 c 2.48,-7.91733 7.54533,-15.256 14.39066,-20.00667 4.44534,-3.08533 10.67067,-5.46533 16.19467,-4.63466 2.49733,0.37466 6.848,2.932 9.11866,0.88666 3.46667,-3.12666 -1.084,-5.34266 -3.62666,-5.912 -4.04667,-0.90666 -7.77867,-1.28133 -11.816,-1.72 -2.00934,-0.21866 -3.76134,-1.116 -5.85867,-0.94533 -3.91333,0.32 -6.23733,3.10267 -8.48133,6.06133 -2.47067,3.26 -4.72133,6.50667 -7.38533,9.71734 -4.632,5.58 -10.116,11.216 -9.30534,19.076 0.468,4.52933 3.17867,8.33066 4.76,12.49466 0.23067,0.60667 1.64934,2.38134 1.65734,2.80934 -0.0893,-5.23067 -1.67334,-9.31334 -0.504,-14.616 0.23733,-1.07734 0.524,-2.14934 0.856,-3.21067"
       style="opacity:0.199997;fill:#000000;fill-opacity:1;fill-rule:nonzero;stroke:none;stroke-width:1.33333"
       id="path31884" />
    <path
       d="m 188.09573,145.40267 c -2.24667,-0.856 -2.9,-2.604 0.0867,-6.41733 3.54,-4.51867 7.77866,-10.036 12.20666,-13.692 3.644,-3.00933 12.864,-4.74533 16.456,-0.79067 4.59333,5.05867 0.528,13.82 -1.61467,18.96134 -2.79466,6.71333 -3.784,13.10666 -10.87866,17.31066 -8.012,4.748 -17.80267,-6.47866 -8.352,-8.03466 5.02133,-0.82667 5.472,-1.048 7.636,-5.72267 0.86133,-1.86 7.63066,-9.824 3.57466,-11.36 -2.36133,-0.89467 -5.51466,4.08667 -5.73866,5.86133 -0.7,5.54667 -0.92667,5.092 -6.47333,4.804 -2.62267,-0.136 -5.21334,-0.276 -6.90267,-0.92"
       style="opacity:0.199997;fill:#000000;fill-opacity:1;fill-rule:nonzero;stroke:none;stroke-width:1.33333"
       id="path31900" />
    <path
       d="m 186.72213,140.62001 c 0,0 9.716,-19.96 22.31066,-19.604 12.596,0.356 12.956,6.06 11.156,10.33733 -1.79866,4.276 -2.15866,-4.99067 -5.75733,-5.34667 -3.59867,-0.35733 -9.716,-3.208 -15.83333,4.98934 -6.11867,8.19866 -15.11467,14.25733 -11.876,9.624"
       style="fill:#000000;fill-opacity:1;fill-rule:nonzero;stroke:none;stroke-width:1.33333"
       id="path31910" />
    <path
       d="m 195.10213,154.57227 c 2.21467,2.00534 6.40933,4.26 10.032,0.284 3.62266,-3.976 8.08266,-16.19066 4.73733,-10.79333 -3.344,5.396 -7.80267,10.22533 -9.47467,10.50933 -1.67199,0.284 -7.80266,-2.272 -5.29466,0"
       style="fill:#000000;fill-opacity:1;fill-rule:nonzero;stroke:none;stroke-width:1.33333"
       id="path31914" />
    <path
       d="m 311.32786,127.38241 c 0.80667,-1.02667 2.42,-1.68667 3.592,-0.51334 l -1.172,-5.05866 c 0,0 -1.32,3.07866 -1.32,3.372 0,0.29333 -1.1,2.2 -1.1,2.2"
       style="fill:#000000;fill-opacity:1;fill-rule:nonzero;stroke:none;stroke-width:1.33333"
       id="path31918" />
    <path
       d="m 307.46213,130.84841 c 1.288,-0.572 4.99066,-2.05067 6.11866,-2.09334 -0.27866,0.0107 -3.88933,-0.16933 -2.796,-0.98133 -0.69333,0.51467 -1.36533,0.908 -1.928,1.56133 -0.34666,0.404 -0.9,1.29334 -1.39466,1.51334"
       style="fill:#000000;fill-opacity:1;fill-rule:nonzero;stroke:none;stroke-width:1.33333"
       id="path31922" />
  </g>
</svg>
