<?xml version="1.0" encoding="UTF-8" standalone="no"?>
<!-- Created with Inkscape (http://www.inkscape.org/) -->

<svg
   version="1.1"
   id="svg6065"
   width="400"
   height="400"
   viewBox="0 0 400 400"
   sodipodi:docname="TellariteEar.svg"
   inkscape:version="1.2.2 (b0a8486, 2022-12-01)"
   xml:space="preserve"
   xmlns:inkscape="http://www.inkscape.org/namespaces/inkscape"
   xmlns:sodipodi="http://sodipodi.sourceforge.net/DTD/sodipodi-0.dtd"
   xmlns="http://www.w3.org/2000/svg"
   xmlns:svg="http://www.w3.org/2000/svg"><defs
     id="defs6069" /><sodipodi:namedview
     id="namedview6067"
     pagecolor="#ffffff"
     bordercolor="#666666"
     borderopacity="1.0"
     inkscape:showpageshadow="2"
     inkscape:pageopacity="0.0"
     inkscape:pagecheckerboard="0"
     inkscape:deskcolor="#d1d1d1"
     showgrid="false"
     inkscape:zoom="2.2575"
     inkscape:cx="200"
     inkscape:cy="200"
     inkscape:window-width="1885"
     inkscape:window-height="1123"
     inkscape:window-x="1953"
     inkscape:window-y="121"
     inkscape:window-maximized="0"
     inkscape:current-layer="HumanEar"><inkscape:page
       x="0"
       y="0"
       id="page6071"
       width="400"
       height="400" /></sodipodi:namedview><g
     id="HumanEar"
     inkscape:groupmode="layer"
     inkscape:label="TellariteEar"
     style="opacity:1"><path
       style="fill:#cd976d;fill-opacity:1;stroke:none;stroke-width:0.90582px;stroke-linecap:butt;stroke-linejoin:miter;stroke-opacity:1"
       d="m 222.07432,166.6091 1.27677,-4.11403 -1.1349,-5.53266 -1.13491,-5.39079 0.28373,-6.80943 0.14186,-10.07228 1.13491,-6.95128 -4.82335,-5.95825 -12.34208,-7.80247 -9.64669,-3.54657 -7.09315,0.14186 -3.97217,3.54657 -2.26981,4.39775 -0.70931,4.39776 0.85118,1.27677 1.70235,-0.28373 0.85118,-0.70931 1.84422,0.28372 1.27677,1.70236 0.85118,1.70236 -0.14187,3.40471 1.98608,2.97913 2.26982,1.70235 0.56745,3.40472 1.27676,4.25588 2.69541,3.26285 1.98608,5.95825 2.55353,7.09315 2.83726,6.66756 2.55353,3.68845 2.83727,2.2698 3.68843,0.56745 2.83727,-1.41863 2.2698,-2.41166 z"
       id="path19753" /><path
       id="path15335"
       style="fill:#000000;fill-opacity:1;stroke:none;stroke-width:0.90582px;stroke-linecap:butt;stroke-linejoin:miter;stroke-opacity:1"
       d="m 214.87516,152.971 c -0.16166,1.34907 -0.12481,2.82892 0.24768,3.99127 0.50803,1.58533 1.985,3.07914 2.83777,3.97182 0.85276,0.89266 1.41516,1.13759 1.98501,1.56041 0.56985,0.42282 1.41889,0.99428 1.41889,0.99428 -1.01704,-1.05676 -1.60403,-1.88175 -2.46978,-2.88023 -0.86575,-0.99846 -1.76115,-2.52415 -2.21147,-3.92935 -0.45032,-1.40519 -0.56149,-2.40063 0,-3.97358 0.56148,-1.57294 2.82185,-3.60926 3.40567,-4.82278 0.5838,-1.21352 0.72517,-1.51664 0.4246,-1.98502 -0.18785,-0.29273 -0.39401,-0.40209 -0.67583,-0.39807 -0.16909,0.003 -0.36653,0.0448 -0.60152,0.11323 -0.0994,0.029 -0.20243,0.0784 -0.30783,0.13623 -0.47365,-0.34282 -1.09535,-0.77372 -1.67719,-1.05798 -0.93394,-0.45625 -2.29206,-1.0025 -3.33313,-1.13404 -0.39041,-0.0494 -0.78644,-0.0889 -1.16236,-0.0973 -0.62652,-0.0141 -1.19902,0.0571 -1.60464,0.30961 -0.64898,0.4041 -0.89087,1.02634 -0.92174,1.56041 -0.0309,0.53407 0.13364,0.81267 0.56613,1.27735 0.4325,0.46469 1.54895,0.69314 2.12833,1.13404 0.57938,0.44091 0.84618,0.76429 1.34811,1.41889 0.29194,0.38073 0.71433,1.08558 1.06505,1.68956 -0.0795,0.23456 -0.15368,0.47315 -0.21407,0.72183 -0.004,0.0149 -0.005,0.0328 -0.009,0.0477 m -12.00689,-9.11377 c -0.56298,-0.5104 -1.38897,-1.17922 -2.02802,-1.71537 -0.63905,-0.53614 -1.31822,-1.08614 -1.70372,-1.70194 -0.33264,-0.53137 -0.28617,-1.21321 -0.50952,-1.65418 0.0669,-0.48931 0.1611,-0.98985 0.29721,-1.25436 0.31983,-0.62149 0.59204,-0.78848 1.13582,-1.13581 0.54378,-0.34734 1.04683,-0.63448 2.12656,-0.7802 1.0797,-0.14572 3.05956,0.11904 4.25664,0.35559 1.1971,0.23656 1.85652,0.62378 2.90853,0.92175 0.65751,0.18623 1.71432,0.64159 2.48217,0.85098 2.6e-4,2.8e-4 0.002,-2.9e-4 0.002,0 1.01043,1.09247 1.97757,2.1083 2.82715,2.87138 2.59493,2.3307 3.23848,2.68434 4.36987,2.8236 1.1314,0.13928 3.6109,-0.8032 3.6109,-0.8032 0,0 -2.82925,-0.71963 -3.41097,-1.00313 -0.58175,-0.2835 -0.82747,-0.49529 -3.55429,-2.89438 -2.72683,-2.39909 -5.93186,-6.60694 -9.48635,-10.14624 -3.55448,-3.53931 -7.36065,-7.92891 -10.43108,-9.62965 -3.07045,-1.70074 -4.61863,-2.22735 -6.62204,-1.80633 -2.00341,0.42101 -3.35522,1.95212 -4.04631,3.1618 -0.66377,1.16187 -1.02998,1.87909 -1.16923,2.65703 -0.12928,0.72228 -0.13706,1.69981 -0.80321,1.60464 -0.66615,-0.0952 -0.53107,-1.05706 -0.39984,-2.20616 0.12529,-1.09709 0.75895,-3.04337 1.60465,-4.4141 0.84568,-1.37074 2.13084,-2.7403 3.41098,-3.6109 1.28014,-0.8706 2.14771,-1.41383 4.0125,-1.60642 1.86478,-0.1926 3.79302,0.15522 6.82019,1.20481 3.02715,1.04959 7.51902,3.65936 10.83445,5.81707 3.31546,2.15769 6.14807,4.46572 7.96309,6.02937 1.81502,1.56362 2.35107,2.6022 2.66969,3.80196 0.31861,1.19976 -0.16493,3.03487 0,4.21242 0.16492,1.17755 0.11702,2.97687 0.80321,3.3066 0.68618,0.32973 1.17477,-0.7765 1.80456,-1.90187 0.62979,-1.12538 0.78385,-3.81065 0.60152,-5.41723 -0.18233,-1.60657 -0.1976,-2.18254 -1.90009,-4.50787 -1.70251,-2.32532 -6.18148,-4.97318 -9.93572,-7.32794 -3.75426,-2.35477 -8.53525,-5.10091 -12.03751,-6.22044 -2.62668,-0.83965 -4.76264,-1.22886 -6.63442,-1.27205 -0.62393,-0.0144 -1.2184,0.0103 -1.79218,0.069 -2.29513,0.23452 -3.51467,0.64242 -5.01563,1.80633 -1.50095,1.16391 -2.56443,3.1851 -3.41098,5.01562 -0.84653,1.83051 -1.53969,4.26819 -1.60464,5.81706 -0.0649,1.54888 -0.0495,2.56361 0.60152,3.21106 0.65102,0.64746 1.39973,0.6523 2.20793,0.39984 0.56178,-0.17548 1.04825,-0.65656 1.4755,-1.22604 0.32604,0.0455 0.67239,0.10844 0.88636,0.19638 0.49358,0.20284 0.76428,0.39086 1.20659,0.85275 0.20581,0.21492 0.4963,0.65776 0.74836,1.07212 v 0.002 c -0.20785,1.02379 -0.29531,2.09562 -0.18046,3.03945 0.15322,1.25915 0.57647,2.32911 1.20481,3.33314 0.62834,1.00403 1.86015,1.96036 2.48394,2.55469 0.2116,0.20164 0.40821,0.37661 0.58913,0.53607 0.16454,0.87547 0.38635,1.70493 0.68644,2.79707 0.41396,1.50656 0.71568,3.63861 1.70195,5.17839 0.4304,0.67194 0.99237,1.25343 1.60111,1.79395 0.57945,1.60136 2.84309,7.84893 3.79135,10.26479 1.07352,2.73496 1.35885,3.29675 2.12656,5.10585 0.76769,1.80909 1.56418,4.16638 2.48392,5.7463 0.91975,1.57989 1.75161,2.77565 2.836,3.75951 1.08439,0.98385 2.36549,1.72827 3.47644,2.12832 1.11095,0.40005 2.00991,0.50422 2.9793,0.4246 0.96938,-0.0796 1.8425,-0.31534 2.69447,-0.85098 0.85195,-0.53564 1.5729,-1.75893 2.19908,-2.34062 0.62619,-0.58169 0.96114,-0.89922 1.48965,-1.20658 0.52851,-0.30736 1.30134,-0.29148 1.63118,-0.63868 0.32985,-0.34719 0.49704,-0.73637 0.35561,-1.06328 -0.14142,-0.3269 -0.4361,-0.41192 -0.92351,-0.4246 -0.48741,-0.0127 -1.15273,0.0659 -1.82809,0.48619 -0.67536,0.42029 -1.33201,1.11123 -2.01758,1.7499 -0.68557,0.6387 -1.23091,1.27767 -1.87429,1.80352 -0.64338,0.52585 -1.0308,0.73143 -1.74989,0.7432 -0.7191,0.0118 -1.43454,0.004 -2.28526,-0.30023 -0.85072,-0.30419 -1.72507,-0.73413 -2.62369,-1.56042 -0.89862,-0.82629 -1.51273,-1.74455 -2.48217,-3.47467 -0.96942,-1.73012 -2.04475,-4.64494 -2.9793,-7.02187 -0.93454,-2.37694 -1.91682,-5.27326 -2.62546,-7.23595 -0.59765,-1.65531 -1.15617,-3.21379 -1.37642,-3.8285 1.33095,0.97124 2.55175,1.83852 3.47098,2.74982 1.02964,1.02077 1.43132,1.64752 1.98679,2.76523 0.55548,1.11771 0.76714,2.65932 1.20658,3.90105 0.43944,1.24172 0.66305,2.50925 1.41711,3.54721 0.75407,1.03794 1.76375,1.90828 2.9793,2.48215 1.21557,0.57388 3.02676,0.72751 4.11511,0.78021 1.08836,0.0527 1.94892,0.21663 2.34064,-0.2123 0.39171,-0.42894 0.43713,-0.68494 0,-1.13405 -0.43714,-0.4491 -1.65758,0.0826 -2.62547,-0.0707 -0.96789,-0.15335 -2.21772,-0.36675 -3.12083,-0.92351 -0.90311,-0.55676 -1.53752,-1.38554 -2.12833,-2.26986 -0.5908,-0.8843 -0.93097,-1.80908 -1.34634,-2.9793 -0.41538,-1.17022 -0.4586,-2.86285 -1.06505,-4.04257 -0.60645,-1.17973 -1.25834,-1.85145 -2.41139,-2.90854 -1.15306,-1.05709 -3.26327,-2.05565 -4.61048,-3.19159 -1.34723,-1.13596 -2.58607,-2.12132 -3.47467,-3.54721 -0.88861,-1.42589 -1.30411,-3.44492 -1.70373,-4.82279 -0.39962,-1.37787 -0.64169,-2.17934 -0.78021,-3.4039 -0.13851,-1.22456 -0.22397,-2.72535 0,-3.90104 0.22398,-1.17569 0.56471,-2.01703 1.20658,-3.05007 0.64188,-1.03304 1.69944,-2.31423 2.69447,-2.9793 0.62496,-0.41771 1.59944,-0.71506 2.26809,-0.88989 1.50345,1.53852 3.05409,3.20012 4.57156,4.73078 -0.57426,-0.17079 -1.27598,-0.34518 -1.8028,-0.36621 -0.13273,-0.005 -0.26902,-0.008 -0.40867,-0.009 -0.97767,-0.002 -2.09856,0.13183 -2.99523,0.57675 -1.02476,0.50845 -1.76125,1.41129 -2.48393,2.34062 -0.72267,0.92934 -1.40067,2.20322 -1.77271,3.19161 -0.37205,0.98838 -0.55207,1.9624 -0.56792,2.62546 -0.0159,0.66306 -0.0493,1.03297 0.21408,1.27558 0.26336,0.2426 0.44077,0.10843 0.85098,0.0707 0.41021,-0.0377 1.0016,-0.70502 1.56041,-0.4246 0.55881,0.28042 0.36109,1.37449 0.78021,1.98501 0.41911,0.61053 0.99665,0.99826 1.70195,1.56219 0.70531,0.56393 2.02802,1.12235 2.67832,1.62225 0.68376,0.52562 1.19323,1.28488 1.61143,1.81211 -0.20186,-0.77046 -0.35069,-1.7056 -0.91366,-2.21599 z m -8.89062,-23.58565 c -0.52189,0.1376 -1.06439,0.3122 -1.43658,0.52014 -0.94024,0.52528 -1.74344,1.28378 -2.48216,2.26985 -0.56682,0.75662 -1.06022,1.57954 -1.44073,2.57196 -0.18825,-0.42267 -0.38148,-0.89671 -0.89367,-1.24531 -0.5122,-0.3486 -0.85243,-0.62602 -1.66571,-0.6566 0.17688,-0.7696 0.23679,-1.50233 0.67405,-2.1615 0.62462,-0.94159 1.27999,-1.62127 2.58009,-2.28923 0.56562,-0.2906 1.30972,-0.21619 2.36272,-0.011 1.05301,0.20518 1.38857,0.54164 2.30199,1.0017 z m 1.68249,0.99736 c 0.86515,0.62464 1.80094,1.45958 2.77053,2.39723 -0.60144,0.19942 -1.54764,0.55292 -2.20086,1.02613 -0.99724,0.72242 -2.16197,2.01037 -2.90853,3.26237 -0.74656,1.25199 -1.27139,2.7287 -1.48965,4.11511 -0.11135,0.70726 -0.11533,1.40157 -0.0707,2.08763 -0.45502,-0.44996 -0.95074,-0.98112 -1.20658,-1.44896 -0.43096,-0.78807 -0.56947,-1.36861 -0.63868,-2.34239 -0.0692,-0.97377 0.13318,-2.25868 0.42637,-3.4039 0.2932,-1.14522 0.7561,-2.50253 1.34812,-3.4039 0.59203,-0.90138 1.17386,-1.28853 1.98502,-1.70373 0.51051,-0.26129 1.38247,-0.46333 1.98502,-0.58559 z m 6.37789,9.50403 c 0.23777,-9.1e-4 0.49573,0.007 0.78728,0.0195 0.74993,0.0322 2.20994,0.39319 3.19691,0.65459 0.91218,0.94002 1.79301,1.89481 2.66439,2.85193 -0.63934,-0.14986 -1.3136,-0.20767 -2.10179,-0.31492 -1.3644,-0.18559 -3.46509,-0.32003 -4.68124,-0.14153 -1.21619,0.17848 -1.80741,0.36056 -2.55293,0.85098 -0.74553,0.49041 -1.46109,1.33886 -1.77449,1.98679 -0.21281,0.43989 -0.26639,1.02758 -0.27953,1.36403 -0.0244,-0.005 -0.21661,-0.17801 -0.24041,-0.18381 -0.41024,-0.10054 -0.80527,0.26326 -0.96971,0.0954 -0.23328,-0.23811 -0.1417,-0.56228 -0.11384,-0.98941 0.0279,-0.42713 0.18769,-0.80955 0.46945,-1.49275 0.28177,-0.6832 0.6587,-1.6668 1.27735,-2.41139 0.61863,-0.7446 1.5217,-1.53883 2.41139,-1.91603 0.66729,-0.2829 1.19389,-0.36925 1.90717,-0.3733 z"
       sodipodi:nodetypes="cssscssssssscsssssssscsccsscsssssccsscsssssssssssssssssssssssssssssscssccssscsscsssssssssssssszsssssscsssssssssssssssssssssccsssssssssssscsccscszcsszccccssssscsscccsssccsssssssccccs" /><path
       id="path21135"
       style="opacity:0.2;fill:#000000;fill-opacity:1;stroke:none;stroke-width:0.90582px;stroke-linecap:butt;stroke-linejoin:miter;stroke-opacity:1"
       d="m 189.87133,116.67275 -4.04258,3.33314 c 2.26243,-0.68617 4.45654,-0.25381 6.31244,0.78021 2.42257,1.35253 4.32505,3.26671 5.88783,5.03685 1.56278,1.77014 2.1867,3.50828 2.1867,3.50828 -2.46661,1.31237 -3.13964,2.03458 -4.52732,4.64941 -0.57946,1.13971 -0.70945,2.16945 -0.70945,3.4039 l 2.12833,-0.14153 1.13405,0.5679 0.85097,1.98679 1.98679,1.98503 2.41139,1.27734 c 0,0 0.4971,1.79326 0.85098,2.69446 0.35387,0.9012 0.61907,1.81507 1.27735,2.69624 0.65827,0.88116 1.21141,1.67566 2.06731,2.35688 0.73717,0.58673 1.90147,0.81559 2.91052,1.1472 0.28922,1.10681 0.91145,3.10602 1.45314,3.97418 0.88319,1.41549 2.76646,2.38812 4.41233,3.21106 l -1.20305,-3.21106 1.11636,-5.21201 3.0023,-2.6927 1.13581,-1.84348 c 0.23636,-1.65477 -0.51967,-3.87746 -1.70195,-5.53223 l -6.38321,-4.68124 -1.94786,-2.43439 c -2.81713,-3.00779 -6.22619,-6.89162 -7.13156,-7.78086 l -6.38497,-5.9586 -4.68126,-2.69446 z"
       sodipodi:nodetypes="cccsccccccccssscscccccccccccc" /></g></svg>
