<?xml version="1.0" encoding="UTF-8" standalone="no"?>
<!-- Created with Inkscape (http://www.inkscape.org/) -->

<svg
   width="400"
   height="400"
   viewBox="0 0 400 400"
   version="1.1"
   id="svg47343"
   xml:space="preserve"
   inkscape:version="1.2.2 (b0a8486, 2022-12-01)"
   sodipodi:docname="captain.svg"
   xmlns:inkscape="http://www.inkscape.org/namespaces/inkscape"
   xmlns:sodipodi="http://sodipodi.sourceforge.net/DTD/sodipodi-0.dtd"
   xmlns:xlink="http://www.w3.org/1999/xlink"
   xmlns="http://www.w3.org/2000/svg"
   xmlns:svg="http://www.w3.org/2000/svg"><sodipodi:namedview
     id="namedview47345"
     pagecolor="#ffffff"
     bordercolor="#666666"
     borderopacity="1.0"
     inkscape:showpageshadow="2"
     inkscape:pageopacity="0.0"
     inkscape:pagecheckerboard="0"
     inkscape:deskcolor="#d1d1d1"
     inkscape:document-units="px"
     showgrid="false"
     inkscape:zoom="7.7428192"
     inkscape:cx="127.3438"
     inkscape:cy="243.1285"
     inkscape:window-width="2007"
     inkscape:window-height="1315"
     inkscape:window-x="2437"
     inkscape:window-y="34"
     inkscape:window-maximized="0"
     inkscape:current-layer="layer12"
     showguides="true" /><defs
     id="defs47340"><inkscape:path-effect
       effect="perspective-envelope"
       up_left_point="140.80096,277.0865"
       up_right_point="170.01547,278.69"
       down_left_point="140.80096,316.66166"
       down_right_point="169.52,316.16"
       id="path-effect55788"
       is_visible="true"
       lpeversion="1"
       deform_type="perspective"
       horizontal_mirror="false"
       vertical_mirror="false"
       overflow_perspective="false" /><inkscape:path-effect
       effect="bend_path"
       id="path-effect55776"
       is_visible="true"
       lpeversion="1"
       bendpath="m 143.56164,279.08676 c 9.98478,11.6895 16.68189,24.10959 22.28311,37.26027"
       prop_scale="1"
       scale_y_rel="true"
       vertical="true"
       hide_knot="false" /><linearGradient
       inkscape:collect="always"
       id="commanderRankGradient"><stop
         style="stop-color:#f2f2f2;stop-opacity:1;"
         offset="0"
         id="stop7283" /><stop
         style="stop-color:#aeaeae;stop-opacity:1;"
         offset="0.25261438"
         id="stop7415" /><stop
         style="stop-color:#929292;stop-opacity:1;"
         offset="0.37630719"
         id="stop7421" /><stop
         style="stop-color:#4d4d4d;stop-opacity:1;"
         offset="0.5"
         id="stop7417" /><stop
         style="stop-color:#aeaeae;stop-opacity:1;"
         offset="0.75"
         id="stop7419" /><stop
         style="stop-color:#f1f1f1;stop-opacity:1;"
         offset="1"
         id="stop7285" /></linearGradient><inkscape:path-effect
       effect="perspective-envelope"
       up_left_point="126.88535,130.78866"
       up_right_point="201.82925,142.49"
       down_left_point="126.89,309.20342"
       down_right_point="201.82925,303.2"
       id="path-effect51140"
       is_visible="true"
       lpeversion="1"
       deform_type="perspective"
       horizontal_mirror="false"
       vertical_mirror="false"
       overflow_perspective="false" /><inkscape:path-effect
       effect="bend_path"
       id="path-effect51076"
       is_visible="true"
       lpeversion="1"
       bendpath="m 132.79226,287.87635 c 7.59041,8.14971 15.89991,24.44912 19.41547,34.7561"
       prop_scale="1"
       scale_y_rel="false"
       vertical="true"
       hide_knot="false" /><linearGradient
       inkscape:collect="always"
       xlink:href="#commanderRankGradient"
       id="linearGradient54215"
       x1="17.16724"
       y1="244.9485"
       x2="67.598877"
       y2="303.32516"
       gradientUnits="userSpaceOnUse" /><linearGradient
       inkscape:collect="always"
       xlink:href="#commanderRankGradient"
       id="linearGradient54217"
       x1="17.425951"
       y1="229.55769"
       x2="47.402425"
       y2="229.55769"
       gradientUnits="userSpaceOnUse" /><linearGradient
       inkscape:collect="always"
       xlink:href="#commanderRankGradient"
       id="linearGradient54219"
       x1="37.628781"
       y1="318.67825"
       x2="67.603143"
       y2="318.67825"
       gradientUnits="userSpaceOnUse" /><linearGradient
       inkscape:collect="always"
       xlink:href="#commanderRankGradient"
       id="linearGradient55863"
       x1="145.13077"
       y1="291.19705"
       x2="167.22246"
       y2="304.50018"
       gradientUnits="userSpaceOnUse" /><linearGradient
       inkscape:collect="always"
       xlink:href="#commanderRankGradient"
       id="linearGradient55871"
       x1="159.52319"
       y1="313.34897"
       x2="169.51608"
       y2="309.42203"
       gradientUnits="userSpaceOnUse" /><linearGradient
       inkscape:collect="always"
       xlink:href="#commanderRankGradient"
       id="linearGradient55881"
       x1="140.11299"
       y1="284.83569"
       x2="150.927"
       y2="281.18274"
       gradientUnits="userSpaceOnUse" /></defs><g
     inkscape:groupmode="layer"
     id="layer9"
     inkscape:label="Original"
     style="display:inline"><g
       id="g53273"><path
         style="fill:#d9a14b;fill-opacity:1;stroke:#000000;stroke-width:1.02285px;stroke-linecap:butt;stroke-linejoin:miter;stroke-opacity:1"
         d="m 306.35304,192.15542 h 43.36697 v 18.45172 h -43.36697 z"
         id="path47966" /><path
         id="path47994"
         style="fill:none;stroke:#000000;stroke-width:1px;stroke-linecap:butt;stroke-linejoin:miter;stroke-opacity:1"
         d="m 344.62975,191.96975 v 18.84399 m -6.6,-18.61099 v 18.37799 m -6.6,-0.034 v -18.31 m -6.6,0 v 18.31 m -6.6,-18.647 v 18.984 m -6.6,-0.3345 v -18.315" /><path
         style="fill:#d9a14b;fill-opacity:1;stroke:#000000;stroke-width:1.02285px;stroke-linecap:butt;stroke-linejoin:miter;stroke-opacity:1"
         d="m 306.35304,214.80383 h 43.36697 v 18.45172 h -43.36697 z"
         id="path53135" /><path
         id="path53137"
         style="fill:none;stroke:#000000;stroke-width:1px;stroke-linecap:butt;stroke-linejoin:miter;stroke-opacity:1"
         d="m 344.62975,214.61815 v 18.844 m -6.6,-18.611 v 18.378 m -6.6,-0.034 v -18.31 m -6.6,0 v 18.31 m -6.6,-18.647 v 18.984 m -6.6,-0.3345 v -18.315" /><path
         style="fill:#d9a14b;fill-opacity:1;stroke:#000000;stroke-width:1.02285px;stroke-linecap:butt;stroke-linejoin:miter;stroke-opacity:1"
         d="m 306.35304,237.45223 h 43.36697 v 18.45172 h -43.36697 z"
         id="path53141" /><path
         id="path53143"
         style="fill:none;stroke:#000000;stroke-width:1px;stroke-linecap:butt;stroke-linejoin:miter;stroke-opacity:1"
         d="m 344.62975,237.26655 v 18.844 m -6.6,-18.611 v 18.378 m -6.6,-0.034 v -18.31 m -6.6,0 v 18.31 m -6.6,-18.647 v 18.984 m -6.6,-0.3345 v -18.315" /><path
         id="path51329"
         style="fill:#aeaeae;stroke:#000000;stroke-width:1px;stroke-linecap:butt;stroke-linejoin:miter;stroke-opacity:1;fill-opacity:1;fill-rule:evenodd"
         d="m 306.84932,191.78082 21.9178,-18.99543 20.82192,18.99543 v 64.29224 l -20.82192,20.82192 -21.9178,-20.82192 z m -11.32421,-7.67123 33.24201,-29.22375 31.78083,29.22375 v 80 l -31.78083,31.05023 -33.24201,-31.05023 z" /><path
         id="path53222"
         style="fill:#aeaeae;fill-opacity:1;stroke:#000000;stroke-width:1px;stroke-linecap:butt;stroke-linejoin:miter;stroke-opacity:1"
         d="m 328.76712,127.12329 v 45.6621 m 0,0 22.28311,-37.26028 -16.07306,2.19178 -6.21005,-10.5936 -8.40182,10.5936 -16.43836,-2.19178 z" /><path
         id="path53230"
         style="fill:none;stroke:#000000;stroke-width:0.8;stroke-linecap:butt;stroke-linejoin:miter;stroke-dasharray:none;stroke-opacity:1"
         d="m 321.07168,160.79414 7.74912,1.54983 7.36166,-1.80813 m -20.53516,-7.87827 13.30265,2.19559 12.26943,-2.84135 m -30.609,-6.58674 18.08127,2.97049 16.40229,-2.97049 m -38.74558,-6.58675 22.34329,2.32473 20.79346,-2.84134" /><path
         id="path53238"
         style="fill:#aeaeae;fill-opacity:1;stroke:#000000;stroke-width:1px;stroke-linecap:butt;stroke-linejoin:miter;stroke-opacity:1"
         d="m 328.76712,322.91287 v -45.6621 m 0,0 22.28311,37.26028 -16.07306,-2.19178 -6.21005,10.5936 -8.40182,-10.5936 -16.43836,2.19178 z" /><path
         id="path53240"
         style="fill:none;stroke:#000000;stroke-width:0.8;stroke-linecap:butt;stroke-linejoin:miter;stroke-dasharray:none;stroke-opacity:1"
         d="m 321.07168,288.85456 7.74912,-1.54983 7.36166,1.80813 m -20.53516,7.87827 13.30265,-2.19559 12.26943,2.84135 m -30.609,6.58674 18.08127,-2.97049 16.40229,2.97049 m -38.74558,6.58675 22.34329,-2.32473 20.79346,2.84134" /></g></g><g
     inkscape:groupmode="layer"
     id="layer11"
     inkscape:label="Strap"
     style="display:inline"><path
       id="path50181"
       style="fill:#d30000;fill-opacity:1;fill-rule:evenodd;stroke:none;stroke-width:0.999998;stroke-miterlimit:9;stroke-dasharray:none;stroke-opacity:1"
       d="M 39.600108,79.3 C 7.7983389,121.99929 -5.6658354,175.61629 2.1900272,228.27431 L 3.4712747,235.5243 30.727079,382.53767 93.85,370.51036 Z"
       sodipodi:nodetypes="cccccc" /><path
       id="path4141"
       style="color:#000000;fill:#d9a14b;-inkscape-stroke:none"
       d="M 38.376953 81.03125 C 37.965683 81.595848 37.574845 82.171951 37.169922 82.740234 L 90.925781 371.06641 L 92.400391 370.78516 L 38.376953 81.03125 z M 0.0546875 200.92578 C 0.091440618 204.32306 0.22074359 207.72374 0.43164062 211.12695 L 32.332031 382.23047 L 33.804688 381.95117 L 0.0546875 200.92578 z " /><path
       id="path2330"
       style="color:#000000;fill:#000000;fill-rule:evenodd;stroke-miterlimit:9;-inkscape-stroke:none"
       d="M 39.599609 79.300781 C 7.7978721 122.00003 -5.6664016 175.61547 2.1894531 228.27344 L 3.4707031 235.52344 L 30.726562 382.53711 L 93.849609 370.50977 L 39.599609 79.300781 z M 38.798828 83.185547 L 92.101562 369.31641 L 31.925781 380.7832 L 4.9472656 235.25781 L 3.6738281 228.05273 L 3.671875 228.03906 C -3.942893 176.9727 8.771647 125.07127 38.798828 83.185547 z " /></g><g
     inkscape:groupmode="layer"
     id="layer10"
     inkscape:label="Border Insignia"
     style="display:inline"><g
       id="g54207"><path
         style="fill:#d9a14b;fill-opacity:1;stroke:#000000;stroke-width:1.0141;stroke-linecap:butt;stroke-linejoin:miter;stroke-dasharray:none;stroke-opacity:1"
         d="m 26.328416,257.10592 25.759285,-4.83682 2.057961,10.96003 -25.759286,4.83681 z"
         id="path54049" /><path
         id="path54051"
         style="fill:none;stroke:#000000;stroke-width:0.604365px;stroke-linecap:butt;stroke-linejoin:miter;stroke-opacity:1"
         d="m 49.04346,252.72655 2.101711,11.19303 m -5.996018,-10.31853 2.049737,10.91624 m -3.924086,0.71592 -2.042154,-10.87585 m -3.920295,0.73611 2.042155,10.87585 m -6.000035,-10.33991 2.117327,11.2762 m -3.957602,0.53742 -2.042712,-10.87882" /><path
         style="fill:#d9a14b;fill-opacity:1;stroke:#000000;stroke-width:1.0141;stroke-linecap:butt;stroke-linejoin:miter;stroke-dasharray:none;stroke-opacity:1"
         d="m 28.854442,270.55871 25.759286,-4.83681 2.05796,10.96002 -25.759284,4.83681 z"
         id="path54053" /><path
         id="path54055"
         style="fill:none;stroke:#000000;stroke-width:0.604365px;stroke-linecap:butt;stroke-linejoin:miter;stroke-opacity:1"
         d="m 51.569485,266.17933 2.101713,11.19304 m -5.99602,-10.31852 2.049739,10.91623 M 45.80083,278.686 43.758676,267.81015 m -3.920294,0.73611 2.042154,10.87585 m -6.000035,-10.3399 2.117327,11.27619 m -3.957601,0.53743 -2.042713,-10.87883" /><path
         style="fill:#d9a14b;fill-opacity:1;stroke:#000000;stroke-width:1.0141;stroke-linecap:butt;stroke-linejoin:miter;stroke-dasharray:none;stroke-opacity:1"
         d="m 31.380468,284.01149 25.759285,-4.83681 2.057961,10.96003 -25.759285,4.83682 z"
         id="path54057" /><path
         id="path54059"
         style="fill:none;stroke:#000000;stroke-width:0.604365px;stroke-linecap:butt;stroke-linejoin:miter;stroke-opacity:1"
         d="m 54.095512,279.63212 2.101712,11.19303 m -5.99602,-10.31852 2.049738,10.91624 m -3.924086,0.71591 -2.042154,-10.87584 m -3.920294,0.73611 2.042153,10.87585 m -6.000034,-10.33991 2.117327,11.2762 m -3.957602,0.53742 -2.042711,-10.87882" /><path
         id="path54061"
         style="fill:url(#linearGradient54215);fill-opacity:1;fill-rule:evenodd;stroke:#000000;stroke-width:1.0141;stroke-linecap:butt;stroke-linejoin:miter;stroke-dasharray:none;stroke-opacity:1"
         d="m 26.581419,256.82806 10.900219,-13.72752 14.486489,8.96066 7.170654,38.18856 -10.045572,14.6902 -15.341137,-9.92334 z m -7.581989,-3.29357 16.485832,-21.06599 22.136693,13.81385 8.922574,47.51872 -15.414203,21.98792 -23.208321,-14.73579 z" /><path
         id="path54063"
         style="fill:url(#linearGradient54217);fill-opacity:1;stroke:#000000;stroke-width:1.0141;stroke-linecap:butt;stroke-linejoin:miter;stroke-dasharray:none;stroke-opacity:1"
         d="m 32.388845,215.97798 5.092793,27.12256 m 0,0 9.080091,-24.61729 -9.302687,3.09454 -4.870197,-5.59981 -3.809019,7.2295 -10.008577,0.53153 z" /><path
         id="path54065"
         style="fill:none;stroke:#000000;stroke-width:0.483491;stroke-linecap:butt;stroke-linejoin:miter;stroke-dasharray:none;stroke-opacity:1"
         d="m 31.57326,236.83622 4.77571,0.0563 4.171042,-1.89507 m -13.076236,-2.38923 8.14644,-0.17953 6.970943,-3.05616 M 23.64527,228.874 l 11.07129,-0.25221 9.411392,-3.5938 m -23.748888,0.40895 13.530838,-1.11114 12.034081,-4.00686" /><path
         id="path54067"
         style="fill:url(#linearGradient54219);fill-opacity:1;stroke:#000000;stroke-width:1.0141;stroke-linecap:butt;stroke-linejoin:miter;stroke-dasharray:none;stroke-opacity:1"
         d="M 54.225684,332.27386 49.13289,305.1513 m 0,0 17.391531,19.64673 -9.791594,0.49078 -2.507143,6.98505 -6.172074,-5.35536 -9.519668,3.13529 z" /><path
         id="path54069"
         style="fill:none;stroke:#000000;stroke-width:0.483491;stroke-linecap:butt;stroke-linejoin:miter;stroke-dasharray:none;stroke-opacity:1"
         d="m 45.856119,312.90206 4.429997,-1.78485 4.574373,0.25293 m -11.318876,6.9699 7.656682,-2.78782 7.604747,0.31928 m -17.446622,7.3263 10.408679,-3.78106 10.074003,-0.065 m -22.279619,8.2338 13.012274,-3.87285 12.667882,-0.63143" /></g></g><g
     inkscape:groupmode="layer"
     id="layer12"
     inkscape:label="Insignia"
     style="display:inline"><g
       id="g55959"><path
         style="fill:#d9a14b;fill-opacity:1;stroke:#000000;stroke-width:0.616;stroke-linecap:butt;stroke-linejoin:miter;stroke-dasharray:none;stroke-opacity:1"
         d="m 156.56928,288.65387 -8.1109,4.99756 c 0.73539,1.10271 1.45118,2.21378 2.14821,3.33221 l 8.19949,-4.76771 c -0.72424,-1.19256 -1.46955,-2.38024 -2.2368,-3.56206 z"
         id="path55003" /><path
         id="path55005"
         style="fill:none;stroke:#000000;stroke-width:0.213;stroke-linecap:butt;stroke-linejoin:miter;stroke-dasharray:none;stroke-opacity:1"
         d="m 149.39877,293.02458 c 0.75541,1.13551 1.49006,2.27945 2.20488,3.43075 m -0.93275,-4.15497 c 0.74118,1.11967 1.46227,2.24696 2.16412,3.38089 m 1.24895,-0.73489 c -0.7035,-1.14093 -1.42644,-2.27563 -2.16967,-3.40315 m 1.23447,-0.76042 c 0.74805,1.13945 1.47545,2.28572 2.18306,3.43786 m -0.99502,-4.25905 c 0.78131,1.19353 1.54002,2.39398 2.27712,3.60032 m 1.19908,-0.78362 c -0.71585,-1.17478 -1.45218,-2.34445 -2.20986,-3.50806" /><path
         style="fill:#d9a14b;fill-opacity:1;stroke:#000000;stroke-width:0.616;stroke-linecap:butt;stroke-linejoin:miter;stroke-dasharray:none;stroke-opacity:1"
         d="m 159.29586,293.0285 -8.21761,4.71773 c 0.68556,1.1168 1.35281,2.24084 2.00261,3.37112 l 8.28844,-4.50771 c -0.67117,-1.19793 -1.36203,-2.39195 -2.07344,-3.58114 z"
         id="path55007" /><path
         id="path55009"
         style="fill:none;stroke:#000000;stroke-width:0.213;stroke-linecap:butt;stroke-linejoin:miter;stroke-dasharray:none;stroke-opacity:1"
         d="m 152.03322,297.15199 c 0.70373,1.14913 1.3881,2.30551 2.05398,3.46811 m -0.7671,-4.1491 c 0.6899,1.13191 1.36103,2.27033 2.01424,3.41433 m 1.26295,-0.69529 c -0.65413,-1.14999 -1.3264,-2.29479 -2.01764,-3.43347 m 1.2507,-0.71786 c 0.69514,1.14961 1.37098,2.305 2.02834,3.4652 m -0.8213,-4.24439 c 0.72546,1.20305 1.42981,2.41191 2.11394,3.62556 m 1.21503,-0.74458 c -0.66385,-1.18091 -1.34685,-2.35768 -2.04982,-3.52941" /><path
         style="fill:#d9a14b;fill-opacity:1;stroke:#000000;stroke-width:0.616;stroke-linecap:butt;stroke-linejoin:miter;stroke-dasharray:none;stroke-opacity:1"
         d="m 161.82321,297.42578 -8.3026,4.4621 c 0.63922,1.12828 1.26139,2.26268 1.86736,3.40221 l 8.35641,-4.27075 c -0.62172,-1.20107 -1.26183,-2.39923 -1.92117,-3.59356 z"
         id="path55011" /><path
         id="path55013"
         style="fill:none;stroke:#000000;stroke-width:0.213;stroke-linecap:butt;stroke-linejoin:miter;stroke-dasharray:none;stroke-opacity:1"
         d="m 154.4874,301.3235 c 0.65568,1.16012 1.29332,2.32634 1.91378,3.49764 m -0.61535,-4.13916 c 0.64217,1.14163 1.26685,2.28871 1.87485,3.44029 m 1.27373,-0.65918 c -0.60823,-1.15662 -1.23336,-2.3091 -1.87618,-3.45653 m 1.26363,-0.67896 c 0.64585,1.15739 1.27368,2.31952 1.8843,3.48544 m -0.66177,-4.22618 c 0.67344,1.21014 1.32713,2.42502 1.96198,3.6436 m 1.22764,-0.70894 c -0.61542,-1.18477 -1.2487,-2.3664 -1.90068,-3.54399" /><path
         id="path55015"
         style="fill:url(#linearGradient55863);fill-opacity:1;fill-rule:evenodd;stroke:#000000;stroke-width:0.616;stroke-linecap:butt;stroke-linejoin:miter;stroke-dasharray:none;stroke-opacity:1"
         d="m 156.43079,288.63828 c -2.15027,-0.38728 -4.30919,-0.72233 -6.47329,-1.0006 -0.45657,2.00694 -0.96447,3.9833 -1.51923,5.93117 2.55388,3.82446 4.87264,7.75149 6.99192,11.73945 2.02992,0.58896 4.04638,1.22222 6.04596,1.89485 0.76935,-2.00665 1.50144,-4.04017 2.19095,-6.10264 -2.17394,-4.2009 -4.57397,-8.36814 -7.23631,-12.46223 z m 1.10226,-2.78581 c -3.30769,-0.62716 -6.63672,-1.13014 -9.97456,-1.49229 -0.58337,3.12041 -1.2963,6.16587 -2.12231,9.144 3.21027,4.63885 6.06108,9.45596 8.62081,14.37009 3.05687,0.84346 6.08432,1.78545 9.0707,2.80965 1.24417,-2.97042 2.41299,-5.99909 3.48874,-9.09284 -2.65083,-5.3046 -5.65526,-10.57578 -9.08338,-15.73861 z" /><path
         id="path55017"
         style="fill:url(#linearGradient55881);fill-opacity:1;stroke:#000000;stroke-width:0.616;stroke-linecap:butt;stroke-linejoin:miter;stroke-dasharray:none;stroke-opacity:1"
         d="m 143.5549,279.35199 c 2.28131,2.70339 4.41075,5.47028 6.4026,8.28569 -3.0068,-1.39381 -6.06234,-2.65958 -9.15654,-3.77506 1.0706,-0.6006 2.14071,-1.19466 3.21026,-1.78223 -0.13885,-0.90502 -0.29077,-1.81444 -0.45632,-2.7284 1.02588,0.24578 2.04941,0.50667 3.07022,0.78203 0.86785,-0.85978 1.73003,-1.72173 2.58654,-2.58588 0.41641,3.43313 0.65674,6.79385 0.74584,10.08954" /><path
         id="path55019"
         style="fill:none;stroke:#000000;stroke-width:0.213;stroke-linecap:butt;stroke-linejoin:miter;stroke-dasharray:none;stroke-opacity:1;fill-opacity:1"
         d="m 149.76952,284.4767 c -0.39993,0.41801 -0.80143,0.83519 -1.20451,1.25154 -0.53084,0.19589 -1.0617,0.39377 -1.59255,0.59368 m 2.6509,-4.04023 c -0.69672,0.70048 -1.3976,1.39908 -2.10263,2.0958 -0.87584,0.34843 -1.75166,0.70228 -2.62739,1.06158 m 4.59893,-5.15452 c -0.93378,0.96572 -1.87529,1.92783 -2.82453,2.88639 -1.13016,0.52916 -2.26061,1.06641 -3.39123,1.61182 m 6.00464,-6.29068 c -1.20533,1.12572 -2.41988,2.24914 -3.64369,3.37036 -1.3843,0.74579 -2.76965,1.50235 -4.15594,2.26977" /><path
         id="path55021"
         style="fill:url(#linearGradient55871);fill-opacity:1;stroke:#000000;stroke-width:0.616;stroke-linecap:butt;stroke-linejoin:miter;stroke-dasharray:none;stroke-opacity:1"
         d="m 165.45905,315.97642 c -1.22736,-2.91227 -2.54003,-5.81886 -3.9498,-8.70552 -0.28434,3.05921 -0.6596,6.07437 -1.10515,9.04834 0.997,-0.60652 1.98963,-1.21359 2.9779,-1.82122 0.69678,0.48788 1.3892,0.98081 2.07705,1.4784 0.26168,-0.91157 0.51706,-1.82786 0.76557,-2.74899 1.11937,-0.33307 2.23511,-0.66212 3.34721,-0.98719 -2.62829,-1.72741 -5.31913,-3.39062 -8.06258,-4.96934" /><path
         id="path55023"
         style="fill:none;stroke:#000000;stroke-width:0.213;stroke-linecap:butt;stroke-linejoin:miter;stroke-dasharray:none;stroke-opacity:1"
         d="m 164.05938,308.77977 c -0.54611,0.13592 -1.09295,0.27309 -1.64052,0.41153 -0.4225,0.34028 -0.84619,0.68 -1.27104,1.01916 m 4.68021,-0.35124 c -0.92039,0.25407 -1.84302,0.51131 -2.76788,0.77175 -0.71264,0.55046 -1.42836,1.09958 -2.14716,1.64736 m 6.51084,-1.46306 c -1.24631,0.33561 -2.4969,0.6769 -3.7517,1.02396 -0.97977,0.67676 -1.96452,1.35207 -2.9542,2.02594 m 8.08189,-2.13893 c -1.49738,0.49097 -3.00145,0.98844 -4.51217,1.49251 -1.27195,0.79018 -2.55124,1.57936 -3.83786,2.36756" /></g></g></svg>
