<?xml version="1.0" encoding="UTF-8" standalone="no"?>
<!-- Created with Inkscape (http://www.inkscape.org/) -->

<svg
   width="400"
   height="400"
   viewBox="0 0 400 400"
   version="1.1"
   id="svg47343"
   xml:space="preserve"
   inkscape:version="1.2.2 (b0a8486, 2022-12-01)"
   sodipodi:docname="ensign.svg"
   xmlns:inkscape="http://www.inkscape.org/namespaces/inkscape"
   xmlns:sodipodi="http://sodipodi.sourceforge.net/DTD/sodipodi-0.dtd"
   xmlns:xlink="http://www.w3.org/1999/xlink"
   xmlns="http://www.w3.org/2000/svg"
   xmlns:svg="http://www.w3.org/2000/svg"><sodipodi:namedview
     id="namedview47345"
     pagecolor="#ffffff"
     bordercolor="#666666"
     borderopacity="1.0"
     inkscape:showpageshadow="2"
     inkscape:pageopacity="0.0"
     inkscape:pagecheckerboard="0"
     inkscape:deskcolor="#d1d1d1"
     inkscape:document-units="px"
     showgrid="false"
     inkscape:zoom="1.475"
     inkscape:cx="200"
     inkscape:cy="200"
     inkscape:window-width="1717"
     inkscape:window-height="810"
     inkscape:window-x="2437"
     inkscape:window-y="249"
     inkscape:window-maximized="0"
     inkscape:current-layer="svg47343"
     showguides="true" /><defs
     id="defs47340"><linearGradient
       inkscape:collect="always"
       id="commanderRankGradient"><stop
         style="stop-color:#f2f2f2;stop-opacity:1;"
         offset="0"
         id="stop7283" /><stop
         style="stop-color:#aeaeae;stop-opacity:1;"
         offset="0.25261438"
         id="stop7415" /><stop
         style="stop-color:#929292;stop-opacity:1;"
         offset="0.37630719"
         id="stop7421" /><stop
         style="stop-color:#4d4d4d;stop-opacity:1;"
         offset="0.5"
         id="stop7417" /><stop
         style="stop-color:#aeaeae;stop-opacity:1;"
         offset="0.75"
         id="stop7419" /><stop
         style="stop-color:#f1f1f1;stop-opacity:1;"
         offset="1"
         id="stop7285" /></linearGradient><linearGradient
       inkscape:collect="always"
       xlink:href="#commanderRankGradient"
       id="linearGradient70656"
       x1="20.658312"
       y1="279.23148"
       x2="66.73365"
       y2="297.92786"
       gradientUnits="userSpaceOnUse" /><linearGradient
       inkscape:collect="always"
       xlink:href="#commanderRankGradient"
       id="linearGradient71504"
       x1="288.47208"
       y1="200.61588"
       x2="348.80151"
       y2="258.85245"
       gradientUnits="userSpaceOnUse"
       gradientTransform="matrix(0.2071361,-0.09395797,0.09395797,0.2071361,68.952132,285.79404)" /></defs><g
     inkscape:groupmode="layer"
     id="layer9"
     inkscape:label="Original"
     style="display:inline"><g
       id="g70588"><path
         style="fill:#aeaeae;stroke:#000000;stroke-width:1px;stroke-linecap:butt;stroke-linejoin:miter;stroke-opacity:1;fill-opacity:1"
         d="m 288.47458,205.08475 40,54.23728 39.66101,-54.23728 H 340 l -11.52542,54.23728 -10.84746,-54.23728 z"
         id="path68557" /><path
         style="fill:#d9a14b;fill-opacity:1;stroke:#000000;stroke-width:1px;stroke-linecap:butt;stroke-linejoin:miter;stroke-miterlimit:2;stroke-opacity:1"
         d="m 317.50727,205.32445 10.96731,53.99758 11.40557,-53.99758 c -6.73853,6.23212 -15.39465,6.59167 -22.37288,0 z"
         id="path70422"
         sodipodi:nodetypes="cccc" /><path
         id="path70441"
         style="opacity:1;fill:none;stroke:#000000;stroke-width:0.7;stroke-linecap:butt;stroke-linejoin:miter;stroke-dasharray:none;stroke-opacity:1"
         d="m 327.35915,254.64223 c 0.70092,0.0613 1.40376,0.0674 2.10762,0.019 m -3.13131,-6.02053 c 1.45573,0.23972 2.92166,0.23949 4.38969,0.003 m -5.52081,-5.51187 c 2.2161,0.55715 4.46093,0.5513 6.70558,-0.003 m -7.97862,-5.77337 c 3.01357,1.05814 6.09125,1.05851 9.1591,0.0381 m -10.21765,-6.08739 c 3.78124,1.64872 7.67828,1.60733 11.54276,-0.05 m -12.84133,-6.09842 c 4.59065,2.49319 9.38013,2.44442 14.09679,-0.0105 m -15.11411,-5.61945 c 5.28949,3.33021 10.87364,3.22609 16.32839,-0.10035 m -17.90818,-7.11593 c 6.23213,4.79394 12.94365,4.6741 19.41548,0"
         sodipodi:nodetypes="cccccccccccccccc" /></g></g><g
     inkscape:groupmode="layer"
     id="layer11"
     inkscape:label="Strap"
     style="display:inline"><path
       id="path50181"
       style="fill:#d30000;fill-opacity:1;fill-rule:evenodd;stroke:none;stroke-width:0.999998;stroke-miterlimit:9;stroke-dasharray:none;stroke-opacity:1"
       d="M 39.600108,79.3 C 7.7983389,121.99929 -5.6658354,175.61629 2.1900272,228.27431 L 3.4712747,235.5243 30.727079,382.53767 93.85,370.51036 Z"
       sodipodi:nodetypes="cccccc" /><path
       id="path4141"
       style="color:#000000;fill:#d9a14b;-inkscape-stroke:none"
       d="M 38.376953 81.03125 C 37.965683 81.595848 37.574845 82.171951 37.169922 82.740234 L 90.925781 371.06641 L 92.400391 370.78516 L 38.376953 81.03125 z M 0.0546875 200.92578 C 0.091440618 204.32306 0.22074359 207.72374 0.43164062 211.12695 L 32.332031 382.23047 L 33.804688 381.95117 L 0.0546875 200.92578 z " /><path
       id="path2330"
       style="color:#000000;fill:#000000;fill-rule:evenodd;stroke-miterlimit:9;-inkscape-stroke:none"
       d="M 39.599609 79.300781 C 7.7978721 122.00003 -5.6664016 175.61547 2.1894531 228.27344 L 3.4707031 235.52344 L 30.726562 382.53711 L 93.849609 370.50977 L 39.599609 79.300781 z M 38.798828 83.185547 L 92.101562 369.31641 L 31.925781 380.7832 L 4.9472656 235.25781 L 3.6738281 228.05273 L 3.671875 228.03906 C -3.942893 176.9727 8.771647 125.07127 38.798828 83.185547 z " /></g><g
     inkscape:groupmode="layer"
     id="layer10"
     inkscape:label="Border Insignia"
     style="display:inline"><g
       id="g70648"><path
         style="fill:url(#linearGradient70656);fill-opacity:1;stroke:#000000;stroke-width:1;stroke-linecap:butt;stroke-linejoin:miter;stroke-opacity:1;stroke-dasharray:none"
         d="m 21.963235,280.2212 27.64595,25.75162 16.248475,-33.98447 -15.503137,2.90777 -0.745338,31.0767 -11.582458,-28.76449 z"
         id="path70630" /><path
         style="fill:#d9a14b;fill-opacity:1;stroke:#000000;stroke-width:1;stroke-linecap:butt;stroke-linejoin:miter;stroke-miterlimit:2;stroke-opacity:1;stroke-dasharray:none"
         d="m 37.98546,277.35279 11.623725,28.62003 0.704072,-30.93223 c -3.068952,4.13041 -7.801447,5.22312 -12.327797,2.3122 z"
         id="path70632"
         sodipodi:nodetypes="cccc" /><path
         id="path70634"
         style="fill:none;stroke:#000000;stroke-width:0.392436;stroke-linecap:butt;stroke-linejoin:miter;stroke-dasharray:none;stroke-opacity:1"
         d="m 48.510915,303.50946 c 0.392553,-0.0387 0.780459,-0.10794 1.163295,-0.20735 m -2.347613,-2.99379 c 0.826904,-0.0184 1.63463,-0.16999 2.419096,-0.45201 m -3.611694,-2.46656 c 1.278686,0.078 2.515017,-0.15726 3.694567,-0.69467 m -4.99301,-2.35663 c 1.76988,0.2716 3.465766,-0.0463 5.05074,-0.92559 m -6.259202,-2.29826 c 2.253913,0.51768 4.396964,0.0921 6.355068,-1.22048 m -7.70603,-2.03319 c 2.787185,0.89935 5.421221,0.37749 7.76646,-1.46267 m -8.908866,-1.53438 c 3.258761,1.28834 6.324952,0.65385 8.98682,-1.74281 m -10.6031,-2.0702 c 3.929445,1.99745 7.615209,1.23779 10.698224,-2.00656"
         sodipodi:nodetypes="cccccccccccccccc" /></g></g><g
     inkscape:groupmode="layer"
     id="layer12"
     inkscape:label="Insignia"
     style="display:inline"><g
       id="g71488"><path
         style="fill:url(#linearGradient71504);fill-opacity:1;stroke:#000000;stroke-width:0.616;stroke-linecap:butt;stroke-linejoin:miter;stroke-dasharray:none;stroke-opacity:1"
         d="m 147.97498,301.17001 13.38147,7.47618 3.1192,-14.96097 -5.8279,2.64357 2.7087,12.3174 -7.34293,-10.21529 z"
         id="path71458" /><path
         style="fill:#d9a14b;fill-opacity:1;stroke:#000000;stroke-width:0.616;stroke-linecap:butt;stroke-linejoin:miter;stroke-miterlimit:2;stroke-dasharray:none;stroke-opacity:1"
         d="m 154.01122,298.49181 7.34523,10.15438 -2.711,-12.25649 c -0.81024,1.92403 -2.56945,2.81182 -4.63423,2.10211 z"
         id="path71460"
         sodipodi:nodetypes="cccc" /><path
         id="path71462"
         style="fill:none;stroke:#000000;stroke-width:0.213;stroke-linecap:butt;stroke-linejoin:miter;stroke-dasharray:none;stroke-opacity:1"
         d="m 160.6857,307.78164 c 0.15094,-0.0532 0.2971,-0.11794 0.43835,-0.19409 m -1.21429,-0.95286 c 0.32406,-0.0871 0.62769,-0.22491 0.90955,-0.41183 m -1.66145,-0.62298 c 0.51139,-0.0928 0.97582,-0.30495 1.38869,-0.63066 m -2.19511,-0.44622 c 0.72364,-0.064 1.36117,-0.35307 1.90076,-0.85268 m -2.68841,-0.30089 c 0.93814,-0.0138 1.74147,-0.3885 2.38623,-1.09489 m -3.2329,-0.0567 c 1.18514,0.0851 2.17263,-0.37501 2.91897,-1.32668 m -3.65867,0.2561 c 1.40854,0.19282 2.55544,-0.35342 3.37277,-1.55497 m -4.37803,0.20865 c 1.74133,0.40744 3.12026,-0.24798 4.02164,-1.82424"
         sodipodi:nodetypes="cccccccccccccccc" /></g></g></svg>
