<?xml version="1.0" encoding="UTF-8" standalone="no"?>
<!-- Generator: Adobe Illustrator 28.2.0, SVG Export Plug-In . SVG Version: 6.00 Build 0)  -->

<svg
   version="1.1"
   id="Head_Binar_1"
   x="0px"
   y="0px"
   viewBox="0 0 400 400"
   enable-background="new 0 0 300 300"
   xml:space="preserve"
   sodipodi:docname="BynarHead.svg"
   width="400"
   height="400"
   inkscape:version="1.3.2 (091e20e, 2023-11-25)"
   xmlns:inkscape="http://www.inkscape.org/namespaces/inkscape"
   xmlns:sodipodi="http://sodipodi.sourceforge.net/DTD/sodipodi-0.dtd"
   xmlns="http://www.w3.org/2000/svg"
   xmlns:svg="http://www.w3.org/2000/svg"><defs
   id="defs45" /><sodipodi:namedview
   id="namedview45"
   pagecolor="#ffffff"
   bordercolor="#666666"
   borderopacity="1.0"
   inkscape:showpageshadow="2"
   inkscape:pageopacity="0.0"
   inkscape:pagecheckerboard="0"
   inkscape:deskcolor="#d1d1d1"
   showgrid="false"
   inkscape:zoom="2.1675"
   inkscape:cx="199.76932"
   inkscape:cy="200"
   inkscape:window-width="1920"
   inkscape:window-height="1080"
   inkscape:window-x="2428"
   inkscape:window-y="267"
   inkscape:window-maximized="0"
   inkscape:current-layer="layer1" />

















<g
   inkscape:groupmode="layer"
   id="layer1"
   inkscape:label="Head"><path
     fill="#cd976d"
     d="m 268.06399,221.82799 c 6.31867,2.85734 22.00534,9.34667 25.17334,10.19867 3.48133,0.93733 7.43333,1.05733 10.748,0.97867 11.64666,-0.28 14.70533,-4.25467 15.91866,-5.27734 1.34134,-1.13733 8.58667,-10.03466 9.488,-15.28666 0.46134,-2.68534 1.628,-4.72534 1.94267,-6.09734 0.37467,-1.63333 0.948,-3.092 3.08,-8.12266 4.27333,-10.08533 10.732,-25.328 10.98266,-32.852 0.184,-5.496 -0.53066,-11.57333 -1.16,-16.936 -0.34533,-2.94 -0.66266,-5.66533 -0.808,-8.03867 0.12,0.26667 0.20267,0.532 0.20267,0.79467 0.016,-1.38267 -0.53733,-3.03867 0,-5.20933 0.36667,-1.48534 0.77467,-2.96267 1.09467,-4.452 0.344,-1.596 1.136,-3.152 1.672,-4.70267 0.74,-2.13733 1.65066,-4.20267 2.192,-6.356 0.592,-2.35333 0.972,-4.78133 1.42,-7.15333 0.148,-0.78534 0.19733,-1.608 0.14933,-2.41734 -0.14533,-2.44666 -0.48933,-4.93066 -1.27333,-7.27733 -0.54,-1.61867 -1.58,-3.05067 -1.84534,-4.741332 -0.32266,-2.056 -0.664,-4.106667 -1.08933,-6.145334 -2.476,-11.878666 -8.244,-26.117332 -15.61466,-34.651999 -13.904,-16.098666 -42.63067,-28.709332 -65.39867,-28.709332 -23.86933,0 -74.64,22.905332 -74.64,64.378665 0,5.121333 0.47334,10.244002 0.65867,15.346662 0.23067,6.312 1.22267,13.3 2.09867,19.54667 0.95866,6.83067 1.048,13.82 2.856,20.512 0.75466,2.796 1.80933,5.94133 3.208,8.46667 1.25066,2.25866 3.74266,3.60266 5.73599,5.108 1.33334,1.00666 2.37867,2.284 3.88934,2.93466 2.10133,0.90534 4.31866,1.45467 6.33066,2.58134 1.47467,0.82666 2.696,2.07066 3.13734,3.73733 1.012,3.82267 11.92266,23.65467 14.316,26.23467 8.77333,9.45866 35.53466,23.60799 35.53466,23.60799 z"
     id="path1"
     style="stroke-width:1.33333" /><path
     opacity="0.2"
     d="m 257.09066,30.326666 c -1.884,0.294667 -3.76267,0.628 -5.63067,1.009333 -5.58666,1.14 -11.92266,3.986667 -17.20666,6.136 -11.01067,4.477333 -21.32934,11.732 -29.25467,20.596 -5.384,6.021333 -8.71866,11.458666 -11.45333,19.058666 -4.356,12.111999 -4.236,25.553335 -1.4,37.997335 1.26,5.528 1.496,11.31733 2.32667,16.98933 0.508,3.472 0.212,7.19333 0.78933,10.62533 0.55067,3.27734 1.91467,6.372 3.036,9.50134 1.34533,3.752 2.46933,6.544 5.16666,9.384 2.26,2.38133 5.212,3.99066 8.196,5.19466 2.43734,0.984 5.816,2.368 6.55734,5.16534 1.012,3.82266 11.92266,23.65466 14.316,26.23466 8.77066,9.45867 35.53333,23.608 35.53333,23.608 6.31867,2.85733 22.00533,9.34667 25.17333,10.19867 3.48134,0.93733 7.43334,1.05733 10.748,0.97866 2.8,-0.068 5.09334,-0.352 6.992,-0.75333 -5.46266,1.15333 -13.03066,-3.81733 -17.40933,-6.62267 -7.06533,-4.52666 -14.472,-8.76 -21.45733,-13.43733 -5.26934,-3.528 -10.696,-8.69333 -12.636,-14.912 -1.22534,-3.93066 -0.51467,-7.99866 4.48933,-7.80533 1.95333,0.076 3.80267,0.84 5.656,1.464 3.56,1.19867 7.28533,1.90933 11.036,2.10533 1.10267,0.0573 2.41067,-0.032 3,-0.96533 0.628,-0.99467 0.036,-2.28933 -0.608,-3.27467 -5.52667,-8.45733 -14.63467,-13.73866 -22.352,-20.25733 -6.22933,-5.26267 -11.656,-11.47067 -16.06,-18.33333 -4.12933,-6.43467 -6.33733,-15.252 -11.95867,-20.55067 -1.99333,-1.87867 -4.532,-4.20267 -7.096,-5.42133 -6.71733,-3.192 -17.93066,-1.24934 -23.14933,3.96133 -5.57733,-9.64533 5.112,-16.164 13.21867,-17.51333 7.34666,-1.22267 14.74133,2.004 19.57466,7.51466 1.60267,1.828 2.85467,3.90934 4.56934,5.668 1.208,1.23867 2.52,2.37734 3.91866,3.396 1.12134,0.81734 2.97734,2.444 4.48,2.12534 0.188,-0.65734 -0.568,-1.19867 -0.95333,-1.62 -1.24533,-1.35867 -2.62133,-2.7 -3.856,-4.10934 -1.32667,-1.51333 -2.28267,-3.10133 -3.232,-4.86 -1.95467,-3.61866 -4.44933,-7.056 -7.108,-10.18933 -0.908,-1.07067 -1.852,-2.11067 -2.82667,-3.12 -4.396,-4.54933 -10.48666,-9.933332 -16.76666,-10.626666 -3.20134,-0.353333 -17.31067,1.273334 -13.29334,-4.942666 1.372,-2.122667 3.64934,-3.196 6.116,-3.412 3.568,-0.313333 6.828,0.122667 10.25867,0.974666 2.67867,0.665334 5.38667,1.358667 7.89333,2.534667 2.39734,1.124 4.596,2.642667 6.604,4.362667 2.20534,1.888 4.19067,4.016 6.10134,6.198662 1.85333,2.11734 3.80666,4.18 5.504,6.428 0.43333,0.57334 1.13066,2.25467 2.00266,2.224 1.12267,-0.04 0.224,-3.59066 0.0893,-4.284 -0.72267,-3.736 -2.332,-7.262662 -4.43734,-10.417329 -2.12666,-3.185333 -4.76666,-6.030667 -7.73333,-8.449333 -7.824,-6.378667 -16.55733,-8.044 -26.06267,-8.410667 0.076,-3.258666 7.31067,-5.429333 10.01467,-5.654666 5.024,-0.418667 9.84,2.812 13.816,5.708 2.61467,1.905333 9.10267,9.915999 12.016,6.158666 1.76533,-2.277333 -0.84533,-7.118666 -1.012,-9.553333 -0.0693,-1.018666 2.50667,-10.608 3.66,-8.834666 4.14533,6.376 11.52133,12.153333 15.06533,16.665333 3.52134,4.484 7.96267,8.277333 13.68667,10.981333 4.14533,1.957333 8.80933,3.053333 13.61467,2.698666 0.452,-0.03333 0.952,-0.09467 1.23733,-0.378666 0.77733,-0.777334 -3.15867,-2.850667 -3.788,-3.294667 -1.65333,-1.161333 -3.25867,-2.368 -4.81067,-3.617333 -1.83866,-1.478667 -3.604,-3.017333 -5.292,-4.610667 -0.868,-0.82 -1.71466,-1.653333 -2.54,-2.501333 -0.632,-0.648 -1.112,-1.581333 -1.82133,-2.156 -2.992,-3.874667 -9.78267,-8.653333 -12.80133,-14.508 -3.29734,-6.393333 -5.032,-14.658666 -3.616,-21.786666 1.092,-5.498666 6.98,-13.517333 13.08933,-13.599999 -2.048,-0.644 -5.008,0.241333 -7.096,0.524 -0.948,0.129333 -1.888,0.266666 -2.828,0.413333 z"
     id="path2"
     style="stroke-width:1.33333;fill:#000000;fill-opacity:1" /><path
     d="m 344.66532,135.02133 c 0.62667,-3.132 2.236,-5.90933 3.34934,-8.86533 1.23066,-3.27067 2.372,-6.59334 3.004,-10.03867 0.77066,-4.20267 0.75066,-8.63867 -0.75467,-12.636 -0.54267,-1.44133 -1.272,-2.80667 -1.77867,-4.262666 -0.528,-1.52 -0.432,-2.985333 -0.71066,-4.545333 -0.46134,-2.588 -1.01867,-5.16 -1.68267,-7.704 -2.09733,-8.04 -5.97333,-14.559999 -8.988,-20.373333 -3.01467,-5.813333 -5.3,-12.098666 -12.332,-16.791999 -8.4,-5.606667 -24.35466,-14.026667 -33.956,-17.006666 -4.43333,-1.376 -8.58533,-2.941334 -13.22,-3.641334 -9.13866,-1.38 -18.51066,-0.652 -27.476,1.478667 -8.00933,1.904 -15.748,4.921333 -23.01733,8.776 -16.11333,8.542666 -30.86933,21.747999 -35.98266,39.254665 -3.33067,11.402667 -2.308,23.569329 -1.088,35.386669 0.9,8.712 1.65066,17.45066 3.18533,26.08133 0.76667,4.30933 1.72133,8.59333 3.03467,12.77067 1.18666,3.772 3.32933,6.67466 5.84133,9.67866 1.148,1.372 2.78666,2.50534 4.15866,3.612 0.85067,0.68667 3.14267,2.61734 4.372,1.63334 0.912,-0.72934 -0.23733,-2.03334 -0.90933,-2.75467 -1.66133,-1.78533 -3.65067,-3.268 -5.31333,-5.05733 -1.24534,-1.34 -2.84134,-2.504 -3.79734,-4.088 -0.78799,-1.30667 -1.20933,-2.99867 -1.75733,-4.44934 -1.27466,-3.376 -2.03333,-6.93066 -2.588,-10.488 -1.13466,-7.26266 -1.31866,-14.628 -2.28533,-21.90933 -2.07733,-15.66133 -3.652,-32.350666 3.19867,-46.586665 5.66266,-11.766667 16.40666,-20.277333 27.59866,-27.005333 13.42267,-8.069333 28.58,-14.306666 44.23333,-13.775999 10.75467,0.364 21.148,3.899999 31.08134,8.041333 7.972,3.324 17.064,7.127999 23.896,12.411999 5.22266,4.038667 8.4,10.477333 11.28266,15.873333 2.90267,5.434667 5.49867,9.834667 7.332,16.117333 0.78,2.673333 1.41867,5.386667 1.948,8.12 0.28267,1.456 0.49733,2.921333 0.75733,4.381333 0.216,1.209334 0.72267,2.353334 1.04,3.543996 0.516,1.93334 1.46134,3.696 1.86934,5.66134 0.42266,2.03466 0.47066,4.13066 0.40266,6.20133 -0.0907,2.752 -0.388,5.524 -1.18933,8.168 -0.82933,2.736 -2.67867,4.91333 -3.596,7.57867 -0.57333,1.66666 -1.52667,3.08133 -1.82133,4.86666 -0.3,1.82667 -0.17334,3.69467 0.009,5.52534 0.31867,3.21066 0.75733,6.40666 1.05067,9.62 0.39733,4.348 0.628,8.71066 0.70666,13.07733 0.188,10.47067 -5.90933,21.924 -7.75466,26.40667 -2.85467,6.93466 -4.244,11.85066 -6.50933,18.95866 -2.19467,6.88267 -5.02934,13.776 -9.96534,19.28667 -1.75466,1.95866 -3.79733,3.74133 -6.23733,4.76266 -2.36933,0.992 -4.98533,1.21467 -7.54267,1.20934 -13.36133,-0.0307 -26.248,-6.068 -37.09333,-11.32534 -7.072,-3.428 -13.89867,-7.31733 -20.42133,-11.64 -6.432,-4.26133 -12.556,-8.80666 -16.736,-15.49466 -3.58,-5.728 -6.19067,-11.56933 -9.97067,-17.17467 1.55333,2.30267 1.98267,5.98934 2.97867,8.648 1.29733,3.46534 2.564,7.58134 4.46533,10.728 2.92533,4.84267 6.22533,8.32533 10.46667,11.804 6.9,5.66133 14.984,9.36533 22.812,13.62267 3.332,1.812 6.70933,3.55066 10.14266,5.18133 9.31467,4.42267 20.47734,8.65733 31.65467,9.22667 3.872,0.19733 7.88533,-0.0227 11.444,-1.60934 3.576,-1.59466 6.432,-4.46 8.74267,-7.58133 6.62666,-8.956 8.176,-17.65067 11.72666,-27.94133 3.69067,-10.69733 9.98133,-20.98933 10.50533,-32.56133 1.00267,-22.07467 -2.94533,-24.73734 -1.816,-30.38667 z"
     id="path5"
     style="stroke-width:1.33333;fill:#000000;fill-opacity:1" /><path
     fill="#383838"
     d="m 209.81199,199.95333 c 0.092,-1.064 0.28267,-2.128 0.48534,-3.25467 0.32133,-1.78133 0.652,-3.61866 0.55066,-5.46133 -0.0453,-0.84267 -0.005,-1.76133 -0.16933,-2.576 -0.372,0.13733 -2.25067,0.97333 -2.264,1.432 0.032,-1.06533 0.38667,-2.00533 0.66,-3.00933 0.32133,-1.17867 0.62133,-2.356 0.99733,-3.52 0.08,-0.248 0.18934,-0.50934 0.304,-0.78134 0.39334,-0.93066 0.80267,-1.9 0.69067,-2.86533 0,0 -0.34933,-3.004 -0.34933,-3.004 0.0493,0.42667 -0.97467,1.764 -1.23334,2.124 -0.508,0.708 -1.32933,1.436 -2.17333,1.68933 -0.0667,-1.556 0.38,-3.388 0.61333,-4.93466 0.23467,-1.56534 0.55067,-3.12267 1.01467,-4.636 0.67733,-2.21467 1.68533,-4.43067 3.368,-6.06667 0,0 0.45867,-0.44533 0.45867,-0.44533 l 0.59733,0.22933 c 2.83467,1.08667 4.932,4.83467 6.78133,8.14133 1.292,2.308 2.51067,4.48934 3.964,5.90267 l 0.63334,0.616 1.86666,-1.49467 0.42267,2.99867 1.51467,-1.27067 0.468,1.388 c 0.13466,0.39734 0.276,0.69467 0.444,0.936 l 0.576,0.824 -0.028,0.35867 c -0.0227,0.284 -0.0547,0.57867 -0.0773,0.79067 -0.06,0.57466 -0.11066,1.05333 -0.0867,1.42 l 0.0773,1.17333 1.276,-0.29333 0.30133,1.448 c 0.27334,1.308 0.52667,2.52266 0.66267,3.88 0.0413,0.40533 0.11333,0.86933 0.19067,1.35866 0.072,0.456 0.156,0.99467 0.208,1.5 l 0.0707,0.684 -1.90133,0.964 c -0.94267,0.47867 -1.92267,1.21867 -2.83333,2.13867 l -1.71067,1.73066 v -2.43333 c 0,-0.004 0.0187,-0.99333 0.036,-1.972 l -1.596,1.08134 c -1.22,0.82666 -2.324,2.17866 -3.28,4.01866 l -1.028,1.97467 -0.79467,-2.08 c -0.21466,-0.56 -0.42133,-1.14933 -0.62266,-1.76667 l -0.44,-1.34533 -1.12134,0.86667 c -0.3,0.23066 -0.60133,0.53733 -0.89466,0.91066 l -1.05467,1.33733 c 0,0 -0.99867,-2.40666 -1.33467,-3.22399 l -1.05733,1.37066 c -0.424,0.55067 -0.888,1.16267 -1.36933,1.824 l -2.11334,2.90267 z"
     id="path6"
     style="stroke-width:1.33333" /><path
     opacity="0.2"
     d="m 209.81199,199.95333 c 0.092,-1.064 0.28267,-2.128 0.48534,-3.25467 0.32133,-1.78133 0.652,-3.61866 0.55066,-5.46133 l -0.14133,-2.612 -0.0373,0.0467 -2.25467,1.42133 c 0.32267,-1.59733 1.28533,-5.37467 1.656,-6.52933 0.08,-0.248 0.18933,-0.50934 0.304,-0.78134 0.39333,-0.93066 0.80267,-1.9 0.69067,-2.86533 l -0.34934,-3.004 -1.25866,2.184 -2.08134,2.44 c 0.36534,-9.736 2.37867,-13.964 4.92934,-16.44933 0,0 0.45733,-0.44534 0.45866,-0.44534 0.94934,-0.92133 3.20134,2.45067 3.132,3.35734 -0.17733,2.31066 -2.79333,4.008 -2.98933,6.35466 0.72267,-0.61466 1.55867,-1.208 2.14267,-1.908 -0.62534,2.636 -1.49334,5.57867 -2.29467,8.244 0.79733,-0.70133 1.52533,-1.55333 2.50267,-2.092 -0.26934,0.948 -0.80134,1.82 -0.916,2.804 0.58533,-0.472 1.24533,-0.932 1.98133,-1.14133 -0.464,2.46667 -1.80933,5.10933 -2.48267,7.472 1.036,-1.048 2.07467,-2.06267 3.17467,-3.016 -1.74667,3.10533 -3.93733,6.348 -5.452,9.596 -0.34667,0.74267 -0.67333,1.73867 -0.712,2.51333 2.56133,-2.97466 5.58533,-6.40266 7.592,-9.75866 -0.74933,2.92 -1.98533,5.64266 -2.29333,8.644 1.31066,-1.97867 3.03866,-3.52534 4.544,-5.324 -0.12667,1.8 -0.18,3.37866 0.304,5.12666 0.67466,-1.52 1.568,-3.26533 2.35733,-4.64266 0.0253,1.03066 0.0827,2.044 0.43733,3.01333 0.30667,-0.476 0.90267,-0.71733 1.23334,-1.004 0.0187,0.47067 0.47866,0.988 0.57333,1.38933 0.92533,-0.49066 0.648,-2.22133 1.02267,-3.196 -0.19867,0.21467 -0.67734,0.41867 -0.88534,0.63067 -0.376,-0.872 -0.42666,-2.14 -0.32133,-3.15733 0.17467,-0.0907 0.32667,-0.14934 0.50133,-0.244 1.77467,1.636 2.68267,4.09333 2.53067,6.47333 0.66133,-1.07467 0.74667,-2.312 0.88533,-3.516 -2.892,-1.392 -1.15333,-5.27467 -1.44533,-7.43067 -0.60933,0.30267 -1.25867,0.736 -1.82267,1.16267 -0.732,-0.75333 -0.47466,-2.09067 -0.516,-3.14667 -0.34266,0.22934 -0.9,0.17734 -1.21733,0.31867 -0.204,-0.936 -0.71467,-1.784 -0.964,-2.664 -0.64667,0.056 -1.29867,0.152 -1.928,0.12667 -0.76533,-1.58267 -1.528,-4.09867 -1.25867,-5.91334 0.052,-0.352 1.47867,1.80934 1.564,1.94934 0.708,1.15866 1.372,2.28933 2.36134,3.252 l 0.63333,0.616 1.86667,-1.49467 0.42266,2.99867 1.51467,-1.27067 0.468,1.388 c 0.13467,0.39733 0.276,0.69467 0.444,0.936 l 0.576,0.824 -0.028,0.35867 c -0.0227,0.284 -0.0547,0.57866 -0.0773,0.79066 -0.06,0.57467 -0.11067,1.05334 -0.0867,1.42 l 0.0773,1.17334 1.276,-0.29334 0.30134,1.448 c 0.27333,1.308 0.52666,2.52267 0.66266,3.88 0.0413,0.40534 0.11334,0.86934 0.19067,1.35867 0.072,0.456 0.156,0.99467 0.208,1.5 l 0.0707,0.684 -1.90134,0.964 c -0.94266,0.47867 -1.92266,1.21867 -2.83333,2.13867 l -1.71067,1.73066 v -2.43333 c 0,-0.004 0.0187,-0.99333 0.036,-1.972 l -1.596,1.08133 c -1.22,0.82667 -2.324,2.17867 -3.28,4.01867 l -1.028,1.97466 -0.79466,-2.08 c -0.21467,-0.56 -0.42134,-1.14933 -0.62267,-1.76666 l -0.44,-1.34533 -1.12133,0.86666 c -0.3,0.23067 -0.60134,0.53734 -0.89467,0.91067 l -1.05467,1.33733 c 0,0 -0.99866,-2.40666 -1.33466,-3.224 l -1.05734,1.37067 c -0.424,0.55067 -0.888,1.16267 -1.36933,1.824 l -2.11333,2.90266 z"
     id="path7"
     style="stroke-width:1.33333;fill:#000000;fill-opacity:1" /><path
     d="m 224.80266,178.19866 c 0.72267,-0.57866 1.54667,-1.23866 2.368,-1.60533 0.324,0.79733 0.47467,1.664 0.59467,2.51733 1.95466,-1.63866 1.76133,1.33467 2.508,2.40534 1.328,-0.49334 0.49066,2.852 0.56,3.89866 0.348,-0.08 0.864,0.136 1.21066,0.0547 0.38267,2.148 0.88534,3.95067 1.10134,6.11733 0.13733,1.372 0.65866,3.44267 0.37466,4.79734 -0.19066,0.90533 -0.9,1.57866 -1.404,2.37733 -0.32533,-0.55067 -0.61466,-1.14533 -0.94533,-1.67467 -1.97067,0.99867 -3.74133,3.024 -4.83867,4.928 -0.65733,-1.34267 -1.18533,-2.924 -1.15733,-4.448 -2.25867,1.52934 -3.80667,5.09467 -4.536,7.71867 -1.136,-1.81867 -2.03067,-4.03467 -2.70133,-6.088 -1.24267,0.96 -2.216,3.27333 -2.72,4.824 -0.71067,-1.42667 -0.83467,-3.13867 -1.44134,-4.608 -1.62133,2.104 -3.144,4.24 -4.43733,6.588 -0.32933,-1.59334 -0.57733,-3.084 -0.58267,-4.80134 -0.0107,-3.30933 1.27067,-6.64666 1.09334,-9.90933 -1.19467,1.48934 -2.27067,3.964 -2.35334,5.84534 -0.68933,-2.29467 -0.12933,-5.3 0.136,-7.63467 0.23867,-2.096 0.83867,-4.22933 1.48667,-6.244 0.316,-0.98267 1.068,-2.22133 0.952,-3.22533 -1.37067,2.376 -3.15467,4.58 -3.852,7.36 0.108,-7.136 0.164,-19.11334 6.26533,-23.77734 3.87334,0.56 6.15067,4.70667 7.89067,7.77467 0.248,0.436 0.492,0.87467 0.73733,1.31333 0.15467,0.27734 0.332,0.972 0.584,1.144 0.16134,0.11067 0.60934,0.0267 0.79734,0.0467 0.16,0.51733 0.37733,1.032 0.368,1.576 0.12933,0.009 0.26533,-0.008 0.37733,-0.0547 0.14533,0.38 0.244,0.88267 0.30533,1.28667 -0.007,-0.0413 0.39867,0.096 0.44267,0.13333 0.11333,0.0987 0.144,0.23734 0.192,0.372 0.15467,0.436 0.27733,0.65467 0.624,0.992 z m -0.748,17.712 3.192,-2.16133 c 0,0 -0.0707,3.872 -0.0707,3.88133 0.976,-0.988 2.03734,-1.792 3.092,-2.328 l 1.28667,-0.652 c -0.0507,-0.48933 -0.132,-1.008 -0.20133,-1.44933 -0.08,-0.508 -0.15467,-0.992 -0.196,-1.41467 -0.13067,-1.312 -0.38134,-2.508 -0.64534,-3.77333 -0.0307,-0.14933 -0.0627,-0.29867 -0.0933,-0.44933 l -1.424,0.328 -0.15467,-2.34534 c -0.0307,-0.45866 0.0267,-0.984 0.0907,-1.59333 0.0227,-0.204 0.0533,-0.488 0.0747,-0.76267 l -0.36934,-0.52933 c -0.26,-0.37333 -0.43466,-0.784 -0.57066,-1.18933 l -1.77334,1.488 -0.42933,-3.04534 -1.18667,0.94934 c 0,0 -1.26533,-1.232 -1.26533,-1.232 -0.284,-0.276 -0.41733,-0.54534 -0.62267,-0.876 -0.19333,-0.30934 -0.164,-0.24 -0.50533,-0.17467 -0.0947,-0.25733 -0.17067,-1.616 -0.68133,-1.428 -0.0587,-0.51733 -0.3,-1.044 -0.33467,-1.58 -0.408,-0.02 -0.616,0.004 -0.888,-0.28133 -0.47733,-0.49734 -0.77333,-1.19867 -1.10533,-1.79334 -1.77734,-3.17733 -3.77067,-6.73866 -6.26667,-7.696 -2.81867,2.744 -3.94267,7.82 -4.41333,12.792 l 2.77066,-4.80533 0.69734,6.00933 c 0.14133,1.22534 -0.34134,2.372 -0.72934,3.29334 -0.11333,0.27066 -0.22666,0.53066 -0.30533,0.77466 -0.38667,1.20134 -0.83067,2.67334 -1.13333,4.176 l 1.67333,-2.08666 0.284,5.224 c 0.10667,1.95866 -0.23467,3.85466 -0.564,5.688 -0.19733,1.09733 -0.38667,2.14933 -0.47467,3.16933 0.488,-0.66933 0.95734,-1.288 1.38667,-1.84667 l 2.11467,-2.74266 c 0,0 1.332,3.23333 1.33733,3.24933 0.32667,-0.41467 0.68267,-0.78533 1.06933,-1.084 l 2.24267,-1.732 0.88133,2.69333 c 0.196,0.60134 0.39867,1.17334 0.60667,1.72 0.85733,-1.65466 2.04,-3.324 3.604,-4.384 z"
     id="path8"
     style="stroke-width:1.33333;fill:#000000;fill-opacity:1" /><path
     opacity="0.2"
     d="M 306.48533,126.06933"
     id="path16"
     style="stroke-width:1.33333" /><path
     fill="#ffffff"
     d="m 336.11732,140.956 c 0.29734,-0.1 0.59067,-0.212 0.88,-0.33734 0.31067,-0.13466 0.616,-0.284 0.91067,-0.45066 0.27067,-0.152 0.50667,-0.37067 0.80667,-0.468 0.416,-0.13467 0.85866,-0.17067 1.09333,-0.596 0.33067,-0.59867 0.24133,-2.59067 0.0827,-3.21867 -0.27334,-1.076 -1.94534,-0.94133 -2.832,-1.076 -2.46534,-0.37333 -4.95733,0.0133 -7.372,0.27467 -1.236,0.13333 -2.11467,0.75066 -3.03867,1.404 -0.89466,0.63333 -1.78,1.02133 -2.464,1.91466 -0.47466,0.62134 -0.6,1.27734 -0.844,2.012 -0.23333,0.704 0.972,0.95067 1.42667,1.04934 1.02,0.22 2.01467,0.48933 3.06133,0.54666 1.07467,0.0587 2.152,-0.028 3.22134,-0.13066 1.348,-0.12934 2.69999,-0.28667 4.01733,-0.61734 0.35466,-0.0893 0.70533,-0.19066 1.05066,-0.30666 z"
     id="path18"
     style="stroke-width:1.33333" /><path
     fill="#ffffff"
     d="m 277.85066,133.88933 13.16133,0.63867 c 0,0 4.80134,2.61733 4.80267,2.61733 0.74933,0.40933 2.62133,2.6 2.176,3.532 -0.31867,0.66667 -1.892,-0.176 -2.4,-0.18933 -1.184,-0.0333 -2.59867,0.30533 -3.696,0.74666 -2.44267,0.984 -5.62,0.536 -8.20267,0.14267 -1.83466,-0.27867 -3.876,-0.528 -5.556,-1.372 -2.51333,-1.26267 -4.31466,-3.988 -4.31466,-3.988 z"
     id="path19"
     style="stroke-width:1.33333" /><path
     fill="#754324"
     d="m 291.34666,134.88133 c 0.14533,0.74133 0.14533,1.528 -0.0347,2.32533 -0.41866,1.85734 -1.75733,3.66534 -3.37466,4.34934 l -5.31734,-0.69734 c -1.88133,-1.268 -2.89333,-3.33333 -2.36133,-5.69466 0.15733,-0.696 0.43867,-1.33467 0.80933,-1.90534 2.732,-0.32666 7.404,0.808 10.27867,1.62267 z"
     id="path20"
     style="stroke-width:1.33333" /><ellipse
     cx="286.064"
     cy="136.40933"
     rx="2.9666665"
     ry="2.9573331"
     id="ellipse20"
     style="stroke-width:1.33333" /><path
     d="m 282.40133,141.18133 c -2.08934,-1.408 -3.08,-3.61867 -2.524,-6.088 0.16133,-0.716 0.452,-1.40133 0.864,-2.03733 l 0.10533,-0.16267 0.18933,-0.0227 c 2.70934,-0.324 7.16667,0.71067 10.43067,1.63467 l 0.21867,0.0613 0.044,0.22267 c 0.16133,0.82133 0.14933,1.65867 -0.0373,2.48533 -0.43866,1.944 -1.852,3.89734 -3.60266,4.636 l -0.0973,0.0413 -5.51333,-0.72267 z m 8.52933,-4.04533 c 0.14533,-0.64667 0.16933,-1.29867 0.0707,-1.94267 -2.59467,-0.72667 -7.044,-1.812 -9.712,-1.56933 -0.30534,0.50666 -0.524,1.048 -0.65067,1.60933 -0.47733,2.12 0.35467,4.016 2.124,5.25067 l 5.116,0.67066 c 1.484,-0.66666 2.676,-2.348 3.052,-4.01866 z"
     id="path21"
     style="stroke-width:1.33333;fill:#000000;fill-opacity:1" /><ellipse
     fill="#ffffff"
     cx="283.51465"
     cy="135.47733"
     rx="1.3946667"
     ry="1.3906666"
     id="ellipse21"
     style="stroke-width:1.33333" /><path
     fill="#754324"
     d="m 328.84399,135.04266 c -0.26533,0.10267 -0.52666,0.212 -0.78933,0.32 -0.66267,0.27334 -1.31467,0.56134 -1.87067,1.02267 -0.15066,0.124 -0.344,0.20667 -0.46666,0.36267 -0.13867,0.17733 -0.072,0.376 -0.0147,0.57333 0.13867,0.47867 0.34,0.94 0.58,1.37733 0.676,1.228 1.768,2.564 3.148,3.01734 l 5.312,-0.60534 c 1.28,-1.15733 1.936,-3.10933 1.788,-5.04533 -0.0307,-0.39333 -0.0987,-0.78267 -0.18267,-1.168 -0.0573,-0.26 -0.056,-0.492 -0.33067,-0.58267 -0.31333,-0.10266 -0.64933,-0.056 -0.97066,-0.0293 -0.532,0.044 -1.05867,0.0413 -1.59467,0.0453 -1.28,0.0107 -2.57466,0.0667 -3.80133,0.43067 -0.27333,0.0827 -0.54133,0.17867 -0.80667,0.28133 z"
     id="path25"
     style="stroke-width:1.33333" /><ellipse
     cx="331.70532"
     cy="136.608"
     rx="2.6693335"
     ry="2.9306664"
     id="ellipse25"
     style="stroke-width:1.33333;fill:#000000;fill-opacity:1" /><ellipse
     fill="#ffffff"
     cx="328.8493"
     cy="136.41199"
     rx="1.2359999"
     ry="1.244"
     id="ellipse26"
     style="stroke-width:1.33333" /><path
     d="m 336.91599,136.03733 c 0.16133,2.09467 -0.572,4.15067 -1.91467,5.36267 l -0.092,0.084 -5.51999,0.628 c 0,0 -0.08,-0.0267 -0.08,-0.0267 -1.24134,-0.40267 -2.27467,-1.21733 -2.93067,-2.348 -0.30533,-0.52667 -0.52933,-1.09867 -0.69733,-1.68267 -0.0853,-0.296 -0.21867,-0.648 -0.22934,-0.95733 -0.0107,-0.316 0.47467,-0.59467 0.70134,-0.768 0.22,-0.168 0.47333,-0.416 0.72666,-0.51067 0.14267,-0.0533 0.28134,-0.12533 0.42667,-0.17066 0.268,-0.0813 0.58667,-0.104 0.832,-0.23734 0.28,-0.152 0.61067,-0.32666 0.92133,-0.40533 0.71334,-0.18133 1.416,-0.40533 2.132,-0.57333 0.50134,-0.11734 0.99867,-0.28 1.49467,-0.43467 0.80533,-0.25067 1.576,-0.32533 2.404,-0.32667 0.284,0 0.564,0.0453 0.84133,0.10534 0.264,0.056 0.34933,0.06 0.508,0.28933 0.0827,0.11867 0.156,0.2 0.192,0.336 0.0507,0.19333 0.0933,0.39067 0.132,0.58667 0.068,0.34666 0.12533,0.696 0.152,1.04933 z m -10.70266,0.92 c 0.44,2.11067 1.33466,3.68933 3.26,4.36667 l 5.09999,-0.58 c 1.11067,-1.06534 1.712,-2.83334 1.572,-4.64667 -0.0387,-0.5 -0.13733,-1 -0.25866,-1.48667 -0.0547,-0.22 -0.12,-0.31733 -0.348,-0.384 -0.16534,-0.0493 -0.34,-0.056 -0.50934,-0.0813 -0.34533,-0.052 -0.704,-0.012 -1.05333,-0.0133 -0.284,-0.001 -0.564,0.016 -0.848,0.024 -0.43466,0.012 -0.86666,0.17866 -1.308,0.18133 -0.19066,0.001 -0.35866,0.068 -0.53733,0.136 -0.096,0.0373 -0.18667,0.0973 -0.27867,0.132 -0.21333,0.0787 -0.452,0.10533 -0.66933,0.18267 -0.64267,0.228 -1.31467,0.38 -1.97067,0.556 -0.26133,0.0707 -0.492,0.20666 -0.74666,0.284 -0.16667,0.0507 -0.33067,0.10933 -0.48134,0.19733 -0.18,0.104 -0.33466,0.244 -0.468,0.40267 -0.0853,0.10133 -0.16266,0.212 -0.23333,0.324 -0.0467,0.0733 -0.23867,0.32266 -0.22133,0.40533 z"
     id="path26"
     style="stroke-width:1.33333;fill:#000000;fill-opacity:1" /><path
     id="path27"
     style="stroke-width:1.33333;fill:#000000;fill-opacity:1"
     d="m 339.72266,134.396 c -0.40134,-0.28134 -0.88667,-0.55867 -1.30267,-0.66667 -1.89067,-0.492 -3.87067,-0.58133 -5.80533,-0.27067 -2.168,0.348 -4.24267,1.18 -6.10667,2.332 -0.60266,0.37334 -1.324,1.30267 -1.88266,1.74 -0.53467,0.41734 -0.80267,1.34534 -1.07067,1.94667 0.83733,-1.86933 4.04933,-3.40133 6.01733,-4.04 1.872,-0.608 3.90667,-0.82133 5.89067,-0.67333 1.12,0.0827 2.40666,0.17733 3.36266,0.83066 0.55067,0.376 0.79734,1.348 1.044,1.77467 0.0707,0.49067 -0.352,1.09067 -0.764,1.64 -0.24133,0.32133 -1.04533,0.99467 -1.39333,1.28 0.46,-0.18533 0.95867,-0.37067 1.40133,-0.62933 0.568,-0.332 0.916,-0.74934 1.38934,-1.17467 0.32266,-0.28933 0.99066,-0.23733 1.076,-0.76933 0.0587,-0.36667 -0.25867,-0.676 -0.37334,-1.00267 -0.132,-0.37733 -0.168,-0.816 -0.38933,-1.16 -0.19333,-0.3 -0.39067,-0.60267 -0.668,-0.832 -0.12133,-0.10267 -0.26667,-0.21467 -0.42533,-0.32533 z m -41.36,5.828 c 0.0387,-0.17467 0.012,-0.36534 -0.104,-0.57467 -0.16933,-0.304 -0.436,-0.532 -0.60133,-0.84133 -0.156,-0.29334 -0.38667,-0.56934 -0.584,-0.836 -1.524,-2.06134 -2.44267,-3.70667 -4.952,-4.34934 -2.84667,-0.73066 -5.788,-1.42133 -8.74267,-1.24666 -2.18267,0.128 -5.44133,0.60266 -7.45733,1.47066 -1.196,0.51467 -2.316,1.18267 -3.42534,1.86134 -0.32533,0.19866 -2.13733,0.93333 -1.20266,1.35333 0.85733,0.38533 2.07466,-0.10667 2.80666,-0.55733 0.848,-0.52134 1.87467,-0.83867 2.82,-1.12667 2.004,-0.612 4.11334,-1.008 6.20934,-1.08533 1.62266,-0.06 3.18666,0.18133 4.776,0.48 0.36933,0.0693 0.73866,0.14266 1.108,0.216 3.02133,0.59866 4.71733,1.916 7.25066,3.656 0.54934,0.37733 1.19867,0.73866 1.58267,1.3 0.19067,0.27866 0.0573,0.58266 0.0493,0.904 0.24,-0.18267 0.41334,-0.388 0.46667,-0.624 z" /><path
     id="path28"
     style="stroke-width:1.33333;fill:#000000;fill-opacity:1"
     d="m 305.79066,137.52533 c -0.12667,-1.01867 -0.11333,-2.184 -0.41333,-3.16667 -0.248,-0.81333 -0.76934,-2.50266 -1.668,-1.136 -0.548,0.83334 -1.248,2.368 -1.08134,3.43734 0.14934,0.96266 1.468,1.14266 1.79334,2.07066 0.48933,1.39467 1.02266,2.772 1.428,4.196 0.0467,0.0547 0.144,0.13334 0.19733,0.19734 0.268,0.31733 0.28,-0.73334 0.28,-0.744 -0.004,-0.44 -0.0413,-0.86 -0.096,-1.29867 -0.14667,-1.18533 -0.29333,-2.37067 -0.44,-3.556 z m 13.82067,-4.65619 c -0.18341,0.0224 -0.47126,0.28905 -0.90235,0.91992 -0.63733,0.93333 -0.76989,1.99855 -0.97656,3.08789 -0.43733,2.304 -1.20922,5.67043 0.0508,7.84375 1.47067,2.536 8.30163,22.0033 8.04297,23.00196 -0.25867,0.99867 -1.16138,4.70889 -3.60937,5.85156 -2.448,1.14133 -5.53907,2.99414 -5.53907,2.99414 0,0 2.11045,0.8843 5.79493,-1.35938 0.51518,-0.024 1.121,9.7e-4 1.27539,0.22852 0.28134,0.41467 1.17067,-0.209 1.63867,-0.98633 0.28752,-0.47757 0.4506,-1.36517 0.34961,-1.84765 2.54965,-2.72621 1.63672,-4.60408 1.63672,-5.45118 0,-0.99867 -7.13755,-20.18539 -8.18555,-23.02539 -0.86666,-2.34799 -0.26581,-5.15428 0.24219,-7.51562 0.1677,-0.77708 0.83665,-3.82232 0.18164,-3.74219 z m -15.5625,35.28125 c 0,0 -3.99582,6.27894 2.57617,6.84961 0,0 -3.4775,-2.56827 -2.57617,-6.84961 z m 10.92187,3.68555 c -1.27649,0.011 -2.79505,0.2212 -4.09179,0.5957 -2.964,0.856 -2.19067,2.42587 0,2.2832 2.19066,-0.14266 5.15355,-0.14328 2.96289,0.99805 0,0 3.6079,-1.56952 3.86523,-2.85351 0.14475,-0.72225 -1.09512,-1.03755 -2.73633,-1.02344 z" /><path
     id="path31"
     style="stroke-width:1.33333;fill:#000000;fill-opacity:1"
     d="m 324.95333,144.208 c 0,0 2.79733,3.40133 8.58266,3.97333 0,0 -3.84666,0.25467 -5.78533,-0.85867 -1.93867,-1.11333 -2.79733,-3.11466 -2.79733,-3.11466 z m -0.93867,-6.612 c 0,0 -1.71467,2.328 -1.55733,3.54266 0.15733,1.21334 0.664,1.97867 0.60933,1.26 -0.056,-0.71866 0.46267,-2.96266 1.10533,-4.08266 0.644,-1.12134 0.59334,-1.61467 -0.15733,-0.72 z m -26.34933,6.768 c 0,0 -6.452,3.996 -13.172,4.63866 0,0 9.828,1.596 13.172,-4.63866 z m 25.99066,-11.34 c 0.28267,-0.53734 0.652,-1.032 1.05467,-1.49467 2.088,-2.40133 5.14,-4.032 8.39067,-4.48533 1.10399,-0.15467 2.25199,-0.17334 3.31599,0.14666 0.57467,0.17334 1.12,0.45334 1.572,0.832 0.44534,0.37334 0.64934,0.88934 1.04267,1.27734 -0.48933,-0.304 -0.84533,-0.76534 -1.34667,-1.052 -0.512,-0.29334 -1.13066,-0.364 -1.728,-0.392 -5.35733,-0.24667 -10.17199,2.66933 -12.83866,6.95333 0.25467,-0.40933 0.208,-1.092 0.428,-1.56267 0.0333,-0.0747 0.0707,-0.14933 0.10933,-0.22266 z m -24.47866,3.72533 c -0.456,-1.35867 -0.55467,-2.77467 -1.06667,-4.124 -0.47733,-1.25867 -1.13733,-2.476 -2.128,-3.40533 -1.13067,-1.06 -2.604,-1.67334 -4.08267,-2.13867 -2.92533,-0.92267 -6.23733,-1.43467 -9.12533,-0.124 -1.088,0.49333 -2.14,1.068 -3.14533,1.71467 2.696,-0.58667 5.23466,-1.204 8.016,-0.89334 3.00666,0.33467 6.77466,1.4 8.54,4.03867 0.98933,1.47867 1.70533,3.22533 2.33733,4.88133 0.49733,1.30267 1.38267,3.572 0.16533,4.748 0.25067,-0.24266 0.62934,-0.55066 0.90934,-0.788 1.06133,-0.90666 -0.044,-2.844 -0.384,-3.8 -0.012,-0.0373 -0.024,-0.0733 -0.036,-0.10933 z" /><path
     d="m 273.02933,135.92666 c 0,0 1.676,3.10134 5.42133,4.172 0,0 -4.28,-3.74533 -2.44667,-5.504 0.73867,-0.70666 -2.97466,1.332 -2.97466,1.332 z"
     id="path32"
     style="stroke-width:1.33333;fill:#000000;fill-opacity:1" /><path
     id="path33"
     style="stroke-width:1.33333;fill:#000000;fill-opacity:1;opacity:0.2"
     d="m 271.09599,137.028 c -0.208,1.22533 2.71467,2.41466 3.63334,2.824 0.50133,0.224 1.28133,0.296 1.70666,0.648 -0.37866,-0.32667 -0.87866,-0.488 -1.28533,-0.76667 -1.19333,-0.81867 -2.07733,-2.02933 -2.148,-3.368 -0.005,-0.112 -1.35067,0.16133 -1.47333,0.21867 -0.27734,0.132 -0.40534,0.28266 -0.43334,0.444 z m 33.55334,-4.20934 c 0,0 -0.0573,0.0627 -0.0573,0.0627 -0.244,-1.72533 -0.74533,-3.56133 -1.16533,-5.16533 -2.24,-8.55467 -10.26,-14.42267 -19.05867,-14.43334 -3.46,-0.004 -8.15866,0.0267 -11.21466,1.672 5.116,-0.0827 19.04,-1.19866 20.988,5.49734 0.16133,0.552 -3.86934,-0.292 -4.15334,-0.368 -1.88133,-0.508 -3.71866,-1.17467 -5.7,-1.07467 -3.048,0.15467 -6.04,1.044 -8.90933,2.032 -3.04267,1.048 -5.69467,2.53733 -8.97733,2.7 -1.82134,0.0907 -3.70134,-0.36267 -5.416,-0.94533 -0.46267,-0.15734 -1.05334,-0.48534 -1.53734,-0.48134 -3.78666,0.028 -0.50666,7.352 0.152,8.81867 0.59334,1.32 1.37734,2.58533 2.49334,3.50533 0.36266,0.3 0.77466,0.56667 1.24,0.64134 0.69866,0.11333 1.388,-0.22 2.00133,-0.57334 3.01333,-1.72666 6.39733,-2.64933 9.496,-4.19866 1.20533,-0.50667 2.39467,-1.088 3.66,-1.42534 1.29867,-0.34533 2.63067,-0.57866 3.88667,-1.06666 0.96,-0.37334 1.74533,-0.568 2.804,-0.636 4.12,-0.26267 8.556,0.70133 11.28933,4.02666 0.0213,0.0253 0.0413,0.0507 0.0627,0.076 1.22533,1.52534 1.512,3.40934 2.276,5.164 0.33333,0.764 0.868,1.512 0.804,2.38534 -0.036,0.47333 -0.0573,1.23466 -0.34134,1.60533 -0.97333,1.27333 -2.268,0.99333 -3.66,1.14667 -1.02266,0.112 -1.54133,1.47333 -2.332,2.02933 -1.684,1.18667 -3.92266,1.47733 -5.92,1.7 -2.252,0.25067 -4.956,0.448 -7.15866,-0.19067 -0.22134,-0.064 -1.96267,-0.77066 -1.97734,-0.65466 -0.22933,1.80266 3.39467,3.12 4.67867,3.55733 3.61333,1.22933 7.66133,0.83333 11.04933,-0.884 1.73867,-0.88133 3.12934,-2.088 4.45467,-3.496 1.88133,-2 0.808,1.48133 0.4,2.40267 -0.40933,0.92666 -0.77867,2.028 0.528,1.84266 0.91467,-0.12933 1.336,-1.2 2.21333,-1.33733 1.02134,-0.16 1.50667,0.872 1.708,1.69467 1.252,5.12933 0.82934,10.68266 1.48667,15.89066 0.0293,0.232 0.47733,2.11467 0.30667,2.26934 1.09866,-0.988 2.17866,-1.22667 3.48533,-1.712 2.93733,-1.08934 2.05333,-4.476 1.66133,-6.78534 -0.44533,-2.61866 -0.97333,-5.224 -1.52266,-7.82266 -1.04134,-4.92267 -2.176,-9.82534 -3.35467,-14.716 -0.0653,-0.27867 -0.86533,-2.53867 -0.66933,-2.75334 z m 26.64533,-4.984 c 1.784,-0.52666 3.93333,-0.916 5.66933,-0.188 0.76267,0.32 1.12267,1.15734 1.83333,1.524 0.072,0.28 0.30267,0.572 0.404,0.884 0.544,1.68667 2.396,3.86267 4.17734,2.67734 1.32933,-0.884 1.508,-2.53734 2.05466,-3.91334 0.76,-1.91466 1.45867,-3.856 2.26267,-5.75333 0.82267,-1.94267 2.18,-4.228 1.43467,-6.42533 -0.41334,0.652 -0.69067,1.33066 -1.07334,2.00133 -0.40933,0.716 -0.864,1.28 -1.476,1.82133 -0.404,0.35734 -0.80666,0.896 -1.29333,1.136 -1.31467,0.648 -2.64133,0.73734 -3.968,0.22 -1.86267,-0.72666 -3.88533,-0.372 -5.78133,-0.0587 -1.43867,0.23733 -2.776,0.78266 -4.216,0.996 -0.064,0.0693 -0.0613,0.0747 0.0107,0.0147 1.27466,-1.488 3.29066,-2.5 5.15866,-3.02266 1.10267,-0.308 5.30533,-1.308 6.15867,-0.68667 -4.432,-3.22667 -12.81733,0.99733 -15.528,4.916 -0.508,0.73467 -0.93467,1.54 -1.59067,2.14667 -1.50133,1.39066 -2.26666,0.052 -3.76133,0.26266 -1.07067,0.15067 -2.236,3.70134 -2.52133,4.57867 -0.672,2.06267 -0.66934,6.804 2.27866,7.336 0.98267,0.17733 1.66267,-3.404 2.03334,-4.136 0.604,-1.18933 1.412,-2.27333 2.36533,-3.20533 1.404,-1.37334 3.12933,-2.42667 5.00667,-3.01334 0.11733,-0.0387 0.23733,-0.076 0.36133,-0.112 z m -8.088,13.19067 c 0.48933,0.392 0.76267,0.932 1.26667,1.25333 1.048,0.668 1.38266,1.77067 2.48533,2.33467 1.02267,0.524 2.20267,0.72533 3.324,0.92133 1.57467,0.276 3.78666,0.39467 5.14133,-0.38133 0.76667,-0.43867 1.56533,-0.82933 2.21333,-1.432 0.49734,0.716 -0.0107,2.17867 -0.412,2.79067 -0.44933,0.684 -1.388,0.85466 -1.80933,1.42666 -2.49866,0.7 -6.20133,0.228 -8.30133,-1.42266 -0.88667,-0.69734 -1.612,-1.60667 -2.29067,-2.49867 -0.71466,-0.93333 -1.43866,-1.79467 -1.61733,-2.992 z" /><path
     opacity="0.2"
     d="m 295.24933,137.63333 c 1.056,0.128 2.05333,0.728 2.52266,1.704 0.21467,0.44667 0.57334,1.30533 -0.008,1.57067 -0.484,0.22 -1.47733,-0.35467 -1.96533,-0.444 -0.796,-0.14667 -1.56533,0.328 -2.26667,0.56133 0.57734,-0.42267 1.23867,-0.87067 1.63067,-1.48533 0.44267,-0.692 0.19467,-1.17867 0.0867,-1.90667 z"
     id="path34"
     style="stroke-width:1.33333" /><path
     id="path36"
     style="stroke-width:1.33333;fill:#000000;fill-opacity:1"
     d="m 322.72399,195.28533 c 1.14534,0.12667 2.29067,0.284 3.44534,0.288 0.78,0.003 1.70933,0.48133 1.8,1.48 0.132,-0.78667 0.13466,-1.60933 0.009,-2.39733 0.17333,1.09066 -2.92933,-0.27334 -3.24267,-0.47334 -1.05333,-0.67066 -2.244,-1.18533 -3.48933,-1.35333 -1.31733,-0.17733 -2.54267,0.33467 -3.84533,0.39067 -2.524,0.108 -4.89867,-1.52667 -7.43467,-0.66 -1.38133,0.472 -2.56267,1.41333 -4,1.74133 -1.87867,0.42667 -3.736,1.12533 -5.63867,1.448 -0.89066,0.15067 -1.72533,0.036 -2.61466,0.088 -0.776,0.044 -1.584,0.28533 -1.65734,1.18667 -0.0307,0.37066 0.003,1.316 0.35734,1.55866 0.30933,0.21067 0.988,-0.54533 1.312,-0.79733 0.49333,-0.38267 0.828,-0.87467 1.436,-1.06 0.76133,-0.23333 1.55866,-0.10667 2.34,-0.15733 1.63866,-0.108 3.22666,-0.30134 4.844,-0.56934 1.54133,-0.25466 2.988,-0.97333 4.56,-1.204 0.86933,-0.128 1.76133,-0.14933 2.63066,-0.0107 0.86267,0.13733 1.636,0.51866 2.47334,0.74666 1.11733,0.30534 2.18133,-0.24266 3.28666,-0.35066 1.15067,-0.116 2.28934,-0.02 3.428,0.10533 z m -16.25733,7.56 c 3.172,0.75866 6.352,1.408 9.64667,1.33866 3.38533,-0.072 6.76,-0.752 9.89866,-2.02933 0.15734,-0.064 0.31334,-0.12933 0.46934,-0.196 -0.44,0.28933 -0.67467,0.796 -0.94534,1.248 -0.436,0.72667 -1.204,0.984 -1.94533,1.3 -2.92533,1.24933 -6.20933,1.644 -9.36667,1.40533 -1.55866,-0.11733 -3.104,-0.38533 -4.62,-0.76133 -1.35466,-0.336 -2.86933,-0.66933 -4.08933,-1.35867 -0.38533,-0.21733 -0.74667,-0.484 -1.07467,-0.78133 -0.14933,-0.13467 -0.81866,-1.06933 -0.94,-1.072 0.53334,0.012 1.008,0.35067 1.508,0.508 0.47467,0.15067 0.964,0.28 1.45867,0.39867 z" /><path
     fill="#cd976d"
     d="m 218.63866,167.576 c 4.348,-1.092 5.12667,-3.916 5.67333,-7.972 0.28134,-2.08667 0.56134,-4.164 -0.128,-6.16267 -1.22533,-3.55467 -3.12933,-6.968 -4.42,-10.61467 -1.11333,-3.148 -2.33333,-6.396 -1.90266,-9.71066 0.17066,-1.31334 0.36,-2.744 0.23466,-4.132 -0.0453,-0.504 -0.13066,-1.00267 -0.27466,-1.48667 -0.54534,-1.84533 -1.556,-3.50533 -2.99734,-4.78667 -0.71066,-0.63066 -1.60533,-1.03333 -2.29733,-1.67066 -0.652,-0.60134 -1.02533,-1.32 -1.78133,-1.836 -2.888,-1.97067 -7.488,-1.91467 -10.80667,-1.44134 -2.512,0.35867 -4.62666,0.62534 -6.55733,2.38267 -1.72667,1.572 -2.956,3.72267 -3.80267,5.87733 -1.22666,3.11867 -0.83733,5.47334 0.31334,8.45734 1.03466,2.68133 2.15333,4.308 4.35333,6.16133 2.62533,2.21333 6.268,4.21467 8.20266,6.96 1.528,2.16933 1.67067,5.04267 1.86,7.59733 0.20667,2.79867 0.75867,4.46 2.36267,6.79734 2.81867,4.10533 6.82533,6.872 11.968,5.58 z"
     id="path37"
     style="stroke-width:1.33333" /><path
     opacity="0.2"
     d="m 218.63866,167.576 c 4.348,-1.092 5.12667,-3.916 5.67333,-7.972 0.28134,-2.08667 0.56134,-4.164 -0.128,-6.16267 -1.22533,-3.55467 -3.12933,-6.968 -4.42,-10.61467 -1.11333,-3.148 -2.33333,-6.396 -1.90266,-9.71066 0.17066,-1.31334 0.36,-2.744 0.23466,-4.132 -0.0453,-0.504 -0.13066,-1.00267 -0.27466,-1.48667 -1.26134,-4.27067 -3.608,-4.732 -7.564,-5.35467 -4.43734,-0.69866 -9.628,-1.112 -13.35333,1.82934 -2.26267,1.78533 -3.2,4.768 -2.58134,7.52533 1.996,-1.26933 3.508,-2.12267 6.00933,-2.25867 2.232,-0.12133 4.80934,0.16267 6.66534,1.464 2.46933,1.732 2.89066,5.27334 1.08666,7.53334 -3.02533,3.79333 -6.78266,3.01466 -11.19466,2.96 1.25467,1.244 3.924,1.84666 5.86266,2.204 1.28534,0.236 2.57067,0.52 3.87867,0.71866 1.52133,0.232 3.528,-0.21333 4.92933,0.36267 0.06,0.94933 -2.86,2.18533 -3.44533,3.30133 -0.75733,1.44667 -0.68933,3.67867 0.61467,4.844 1.64666,-1.43466 3.75333,-3.11466 5.83866,-1.60933 3.51734,2.53867 1.87867,14.23067 -3.52933,11.51333 -0.94533,-0.47466 -2.45867,-3.11866 -3.52533,-2.996 -1.75067,0.20134 1.52533,5.24934 2.27733,5.94667 2.33867,2.16533 5.812,2.85733 8.848,2.09467 z"
     id="path38"
     style="stroke-width:1.33333;fill:#000000;fill-opacity:1" /><path
     d="m 216.80399,122.08666 c -2.70666,-2.74666 -6.91333,-4.756 -10.68666,-5.38133 -4.01734,-0.66667 -10.12933,-0.044 -13.58533,2.06933 -2.74667,1.67867 -3.544,5.59467 -4.064,8.49734 -0.78,4.35866 -0.13867,7.18933 2.33066,10.78666 1.696,2.472 3.50267,4.524 5.632,6.62267 2.66267,2.62533 4.56667,3.932 5.652,7.528 0.43333,1.43733 0.692,2.81867 0.81733,4.27067 0.37467,4.34666 2.66267,7.95733 6.01067,10.82 2.65867,2.27333 8.19067,4.364 11.69867,2.904 3.188,-1.32667 4.196,-5.32267 4.69066,-8.36 0.59467,-3.652 -0.33733,-6.876 -1.516,-10.2 -0.288,2.224 0.556,4.57733 0.33467,6.884 -0.22267,2.31866 -1.09733,4.748 -2.62667,6.56266 -3.27733,3.888 -9.784,1.22667 -12.536,-2.11066 -1.41333,-1.71334 -2.79333,-4.124 -3.472,-6.28934 -1.032,-3.29066 -0.48533,-7.18666 -2.316,-10.22933 -1.10666,-1.83867 -2.85466,-2.95733 -4.53599,-4.168 -2.06267,-1.484 -5.10267,-3.284 -6.54534,-5.336 -1.14933,-1.63467 -1.564,-4.152 -1.77333,-6.10133 -0.51333,-4.792 2.95333,-9.06934 7.17733,-10.80267 4.948,-2.03067 10.46533,-0.56533 14.65467,2.47867 3.14933,2.288 4.47866,5.924 6.27066,9.19466 2.62934,-2.332 0.396,-7.60266 -1.612,-9.64 z"
     id="path39"
     style="stroke-width:1.33333;fill:#000000;fill-opacity:1" /><path
     d="m 194.788,132.62 c -1.43867,-2.548 1.15866,-7.35867 3.62533,-8.46267 3.56666,-1.596 9.03066,0.87333 11.576,3.32 2.38666,2.29467 3.804,5.54267 3.95333,8.84267 0.16933,3.73333 -2.22133,5.37733 -5.648,6.136 -1.16667,0.25866 -3.73733,1.268 -4.60267,0.0187 1.008,0.56134 1.708,1.34134 2.95067,1.52534 4.528,0.66933 8.296,-2.47067 9.10667,-6.89867 0.57066,-3.11467 -0.408,-6.40133 -2.28267,-8.95333 -2.20133,-2.996 -5.81333,-5.53467 -9.52133,-6.144 -6.15467,-1.008 -12.86933,4.27733 -9.15733,10.616 z"
     id="path40"
     style="stroke-width:1.33333;fill:#000000;fill-opacity:1" /><path
     d="m 208.27333,149.89466 c 0.0707,-2.264 3.46266,-3.90533 5.388,-3.356 2.784,0.79467 5.212,5.00534 5.85866,7.756 0.60534,2.58 0.26,5.25867 -0.88133,7.34267 -1.292,2.356 -3.37333,2.17333 -5.75867,0.93733 -0.812,-0.42 -2.76666,-1.08 -2.82933,-2.26933 0.40933,0.84133 0.54667,1.66267 1.23867,2.38933 2.52666,2.65067 6.64266,2.87867 8.796,0.58534 1.51466,-1.61467 2.55733,-6.044 2.36133,-8.52667 -0.22933,-2.91467 -1.62533,-5.92533 -3.67333,-8.13333 -3.39867,-3.664 -10.40667,-2.424 -10.5,3.27466 z"
     id="path41"
     style="stroke-width:1.33333;fill:#000000;fill-opacity:1" /><path
     id="path42"
     style="stroke-width:1.33333;fill:#000000;fill-opacity:1;opacity:0.2"
     d="m 323.32799,194.824 c -2.62133,0.23333 -4.90933,-0.44534 -7.39466,-0.68 -3.62934,-0.34267 -7.56,-0.21467 -10.98267,1.15066 1.21067,-0.48266 2.248,-1.288 3.17467,-2.19066 0.792,-0.77334 1.748,-1.44267 2.78133,-1.85067 1.20533,-0.476 2.072,-0.27067 3.256,0.0733 0.63733,0.18534 1.21467,0.0533 1.82667,-0.268 0.82933,-0.436 1.04666,-1.29333 1.59066,-1.98666 0.83734,0.35733 1.29334,1.92 1.90934,2.584 0.62533,0.67466 1.328,1.268 2.00533,1.88933 0.508,0.46533 1.02667,1.34933 1.83333,1.27867 z m -18.27866,-21.04534 c 0,0 8.74,-4.44 15.628,-3.984 1.428,0.0947 2.96933,0.16134 4.34666,0.58667 0.29467,0.0907 0.6,0.17733 0.86,0.34667 0.572,0.372 0.73734,1.16 1.344,1.452 1.50934,2.65866 -2.82933,4.30533 -4.69733,5.07866 -1.424,0.58934 -3.18,1.83334 -4.01333,3.124 -1.028,1.59334 -2.26134,3.30134 -3.39334,1.024 -1.13066,-2.27733 -5.072,-4.52266 -6.78533,-5.464 -1.71333,-0.94266 -3.28933,-2.164 -3.28933,-2.164 z m 4.11066,30.26667 c -2.78933,-0.292 -8.452,1.59066 -6.68533,5.34 3.55867,0.20533 5.944,-1.33334 9.33067,-2.152 3.53466,-0.85467 7.08933,-0.54134 10.304,1.12666 1.40133,0.72667 1.90266,1.672 3.248,0.005 0.44533,-0.552 1.34933,-3.052 1.232,-3.75067 -0.52134,-3.13333 -6.04134,0.25067 -8.24134,0.60133 -3.62933,0.57734 -6.44933,-1.176 -9.188,-1.17066 z" /><path
     id="path45"
     style="stroke-width:1.33333;fill:#000000;fill-opacity:1;opacity:0.2"
     d="m 318.04533,103.75866 c -0.028,2.51334 -6.112,2.67734 -7.844,2.73734 -6.60267,0.228 -12.88534,-2.33067 -19.35467,-3.176 -1.68,-0.22 -4.21733,-0.94267 -5.87733,-0.568 5.38266,-1.21334 9.204,0.8 14.53733,1.34933 2.79867,0.288 7.25733,0.784 10.07067,0.752 2.828,-0.0333 5.684,-1.27733 8.468,-1.09467 z m -16.256,6.27467 c 5.09866,0.71333 11.19866,-0.55467 16.14533,-1.72533 5.09867,-1.20534 9.59067,-3.13867 14.95067,-2.39734 -2.868,0.868 -5.736,1.736 -8.604,2.60267 -2.84134,0.86 -5.70667,1.72133 -8.656,2.13067 -2.85067,0.39466 -5.664,0.0707 -8.52134,0.0707 -1.78133,0.001 -3.55733,-0.43466 -5.31466,-0.68133 z m -15.88267,0.976 c 5.54533,-0.21867 11.72133,1.824 16.92133,3.344 7.3,2.13467 15.48267,1.69067 22.76134,-0.70133 5.58933,-1.836 11.24533,-2.932 17.12666,-2.93867 -3.37867,-0.32 -6.84,-1.52533 -10.256,-1.10667 -3.644,0.44667 -6.82666,2.592 -10.20266,3.86934 -4.50534,1.704 -9.472,1.92 -14.244,1.268 -4.772,-0.652 -9.388,-2.13867 -13.92267,-3.76267 -4.70933,-1.68667 -9.776,-2.36533 -14.76133,-1.95867 -4.37334,0.356 -10.90534,1.492 -14.22,4.59467 1.14933,0.11733 2.54133,0.33067 3.70133,0.096 1.19333,-0.24133 2.32533,-0.94533 3.484,-1.34133 2.236,-0.764 4.768,-1.77067 7.16667,-1.768 2.13733,0.003 4.23866,0.492 6.44533,0.40533 z m 35.616,-61.965331 c 2.30267,3.682666 3.63067,8.428 4.24533,12.723999 0.68934,4.810667 1.72534,9.402667 1.72934,14.269333 0.003,4.902667 -0.788,9.513334 -2.56934,14.037333 -0.628,1.594667 -1.18933,3.198667 -1.82933,4.78 -0.264,0.653334 -0.69733,1.34 -0.564,2.061334 1.58133,-0.928 2.83067,-2.961334 3.8,-4.525334 1.42533,-2.297333 2.688,-4.566666 3.81733,-7.050666 2.952,-6.498667 6.03067,-14.754666 3.516,-21.930666 -2.072,-5.913333 -6.648,-11.133333 -12.14533,-14.365333 z" /></g></svg>
