<?xml version="1.0" encoding="UTF-8" standalone="no"?>
<!-- Created with Inkscape (http://www.inkscape.org/) -->

<svg
   version="1.1"
   id="svg3800"
   width="400"
   height="400"
   viewBox="0 0 400 400"
   sodipodi:docname="CaitianHead3.svg"
   inkscape:version="1.3 (0e150ed, 2023-07-21)"
   xmlns:inkscape="http://www.inkscape.org/namespaces/inkscape"
   xmlns:sodipodi="http://sodipodi.sourceforge.net/DTD/sodipodi-0.dtd"
   xmlns="http://www.w3.org/2000/svg"
   xmlns:svg="http://www.w3.org/2000/svg">
  <defs
     id="defs3804" />
  <sodipodi:namedview
     id="namedview3802"
     pagecolor="#ffffff"
     bordercolor="#666666"
     borderopacity="1.0"
     inkscape:showpageshadow="2"
     inkscape:pageopacity="0.0"
     inkscape:pagecheckerboard="0"
     inkscape:deskcolor="#d1d1d1"
     showgrid="false"
     inkscape:zoom="2.1825"
     inkscape:cx="199.54181"
     inkscape:cy="199.7709"
     inkscape:window-width="1784"
     inkscape:window-height="1093"
     inkscape:window-x="2401"
     inkscape:window-y="162"
     inkscape:window-maximized="0"
     inkscape:current-layer="layer1">
    <inkscape:page
       x="0"
       y="0"
       id="page3806"
       width="400"
       height="400"
       margin="0"
       bleed="0" />
  </sodipodi:namedview>
  <g
     inkscape:groupmode="layer"
     id="layer1"
     inkscape:label="Neck">
    <path
       d="m 270.59959,233.5344 c 3.504,-9.39333 8.23734,-18.29333 12.60267,-27.36533 l -69.56933,-54.87466 -5.49067,30.848 -6.20667,17.47466 c -6.75733,8.18533 -11.06666,18.28267 -8.58799,28.996 0.932,4.032 3.83866,6.51733 7.06533,8.89733 5.50533,4.06 11.26666,7.91734 17.376,11.048 4.96933,2.548 10.2,5.5 15.45466,7.24934 8.16,2.71733 18.64534,3.512 27.16134,2.21466 2.70933,-0.41333 7.13333,-0.96533 7.07066,-4.38533 -0.0453,-2.548 -1.396,-4.53733 -1.09066,-7.24667 0.28933,-2.58266 1.47466,-4.54 2.23333,-7.028 0.6,-1.96666 1.26533,-3.908 1.98133,-5.828"
       style="fill:#cd976d;fill-opacity:1;fill-rule:nonzero;stroke:none;stroke-width:1.33333"
       id="path3844" />
    <path
       d="m 285.86613,207.63814 c -0.0107,-0.004 -0.12534,0.15066 -0.13334,0.16133 -3.98533,5.21867 -6.39866,12.18267 -9.17866,18.08133 -0.67334,1.428 -0.752,3.01467 -1.536,4.40667 -0.18,-0.30667 -0.36,-0.61467 -0.54,-0.92267 -1.272,2.45467 -2.10534,5.028 -2.81467,7.68934 -0.37067,-0.19067 -0.74133,-0.38134 -1.11067,-0.57334 -0.64533,1.74134 -0.87866,3.63334 -0.67866,5.47867 -0.50667,0.0147 -1.01734,-0.11067 -1.46,-0.35867 -0.30134,1.22934 -0.26,2.54134 0.11733,3.74934 0.0533,0.17066 0.11467,0.352 0.068,0.52533 -0.12,0.44933 -0.75733,0.43333 -1.208,0.31867 0.12667,0.45333 1.27733,5.09733 2.22133,4.62533 -0.45066,0.212 -0.944,0.31867 -1.42666,0.40933 0.14133,1.36534 0.87466,2.46934 1.53333,3.61467 0.007,0.012 -0.87467,0.028 -0.97333,0.007 -0.312,-0.0667 -0.60134,-0.20534 -0.85734,-0.39467 -0.576,-0.42667 -0.95866,-1.076 -1.244,-1.72 -0.364,-0.81867 -0.58933,-1.69733 -0.75866,-2.576 -0.0933,-0.484 -0.148,-0.91467 -0.36267,-1.35867 -0.22,-0.456 -0.49333,-0.92 -0.56933,-1.42666 0.19733,0.0107 0.396,0.164 0.58133,0.0733 -0.0107,-0.472 -0.31733,-0.76133 -0.38,-1.20667 -0.11333,-0.804 0.06,-1.65733 0.068,-2.46133 0.005,-0.428 0.032,-0.81333 0.11067,-1.22933 0.0987,-0.52534 0.084,-1.12267 0.23466,-1.61467 0.19334,-0.0147 0.27734,0.148 0.39867,0.26667 0.084,-0.632 0.25733,-1.536 0.58667,-2.09067 0.24133,0.0307 0.33466,0.372 0.49466,0.52533 -0.068,-0.064 0.172,-1.24133 0.18267,-1.408 0.0333,-0.47333 0.0373,-0.95466 0.10667,-1.42533 0.11333,-0.76933 0.4,-1.54 0.65333,-2.27067 0.20133,-0.584 0.508,-1.14666 0.75467,-1.71333 0.24133,-0.55733 0.52533,-1.084 0.75866,-1.648 0.14134,-0.34267 0.244,-0.74133 0.42934,-1.06 0.10666,0.21867 0.28666,0.42267 0.388,0.63867 0.19866,-0.40134 0.23066,-0.896 0.38666,-1.31467 0.204,-0.54133 0.33467,-1.12 0.48667,-1.67733 0.29067,-1.07067 0.572,-2.148 0.988,-3.18 1.79467,-4.43734 3.596,-8.872 5.4,-13.30534 0.84,-2.064 1.68,-4.12933 2.52267,-6.192 0,0 5.75866,2.556 5.76,2.55734"
       style="fill:#000000;fill-opacity:1;fill-rule:nonzero;stroke:none;stroke-width:1.33333"
       id="path3848" />
    <path
       d="m 193.3472,228.6132 c 0.93333,4.032 3.83866,6.51734 7.06533,8.89734 5.42133,3.99733 11.09333,7.79066 17.09733,10.896 -0.58667,-1.844 -0.95733,-3.72 -0.96933,-5.63467 -0.0253,-3.9 2.84933,-6.91867 5.90266,-9.00267 8.35067,-5.69733 18.13334,-6.57466 27.86,-4.956 2.648,0.44 19.54267,5.112 21.116,1.84134 0,0 1.464,-3.04267 2.71467,-5.64134 2.848,-6.34533 6.04133,-12.55466 9.068,-18.844 l -69.56933,-54.87466 -5.49067,30.848 c 0,0 -0.18133,0.512 -0.19333,0.54533 -0.008,0.0453 -0.0147,0.0787 -0.0147,0.0787 -0.592,3.26933 -1.67733,6.14533 -3.11867,8.74267 l -2.88,8.108 c -1.38,1.67066 -2.89999,4.02933 -4.68266,6.73599 -3.848,6.732 -5.74133,14.32534 -3.90533,22.26"
       style="opacity:0.199997;fill:#000000;fill-opacity:1;fill-rule:nonzero;stroke:none;stroke-width:1.33333"
       id="path3858" />
    <path
       d="m 209.65746,166.45694 c 0,0 -2.076,16.92933 -5.82933,22.59867 0,0 1.51733,-1.19867 2.076,-1.996 0,0 -4.39067,10.536 -6.30667,12.85466 0.20934,-0.25333 0.88533,-0.41066 1.19067,-0.56 -0.53734,0.79067 -0.864,1.48133 -0.83867,2.456 2.008,-0.13333 3.52933,-4.28933 4.03867,-5.888 0.55866,-1.756 1.19733,-3.912 2.156,-5.34933 0.95866,-1.43733 0.92266,-0.052 1.996,-3.51333 1.10666,-3.56934 1.76266,-5.104 2.16133,-6.38267 0.4,-1.27733 0.77333,-2.352 1.23067,-5.36133 0.55866,-3.67334 1.49466,-7.208 1.49466,-7.208 z"
       style="fill:#000000;fill-opacity:1;fill-rule:nonzero;stroke:none;stroke-width:1.33333"
       id="path4060" />
  </g>
  <g
     id="g3808"
     inkscape:groupmode="layer"
     inkscape:label="Page 1">
    <path
       d="m 310.52759,64.276008 c 0.28934,-1.608 1.04934,-3.098666 2.38534,-4.291999 4.63866,-4.141334 11.27066,-5.466667 16.14933,-9.278667 -0.228,0.409333 -0.30533,1.082667 -0.57333,1.542667 0.072,-0.124 1.73066,-0.28 1.96933,-0.344 0.76667,-0.201334 1.51333,-0.470667 2.24267,-0.773334 1.47733,-0.613333 2.88266,-1.374666 4.24133,-2.196 6.02933,-3.646666 11.82933,-8.138666 14.53866,-14.631999 1.43067,1.849333 0.85867,5.026666 0.96534,7.2 0.36933,-0.177334 0.94133,-0.946667 1.33066,-0.698667 1.07467,0.684 0.864,4.013333 0.90667,5.089333 0.0987,2.441333 -0.424,4.828 -0.472,7.256 0.308,-0.216 0.45333,-0.590667 0.64933,-0.912 0.92134,0.752 0.74,3.325333 0.75067,4.454667 0.0133,1.661333 -0.24267,3.134666 -0.704,4.721333 -0.68133,2.342666 -2.244,4.377333 -2.96933,6.593333 0.48133,-0.044 0.912,-0.378667 1.412,-0.408 0.23733,2.52 -1.50267,5.205333 -2.968,7.156 -1.092,1.453333 -3.02667,2.869333 -3.788,4.496 0.67466,0.056 1.36,-0.58 1.97333,-0.770667 0.13067,1.982667 -3.11467,4.688 -4.39333,5.876 -1.924,1.786667 -4.564,3.149333 -6.296,5.085333 0.47333,0.072 0.99333,-0.02133 1.35466,-0.305333 -0.71466,0.562666 -1.06266,1.514666 -1.74266,2.145333 -1.34534,1.248 -3.02134,2.098667 -4.57867,3.076 -1.432,0.898667 -3.17733,1.778667 -4.31466,3.022667 -0.88134,0.964 -1.492,2.238666 -2.68934,2.908002 -0.652,-1.726669 -2.56533,1.46266 -2.836,2.052 -0.036,-0.448 -0.27866,-0.86534 -0.188,-1.32134 -0.76666,0.90534 -1.43733,1.79734 -1.66533,2.808 1.364,-7.810662 1.848,-17.693329 -2.34267,-24.877329 -1.056,-1.809333 -2.828,-2.698666 -4.34133,-4.116 -2.924,-2.735999 -4.656,-6.942666 -4.00667,-10.557333"
       style="fill:#cd976d;fill-opacity:1;fill-rule:nonzero;stroke:none;stroke-width:1.33333"
       id="path3820" />
    <path
       d="m 313.53866,58.584675 c -1.4,1.070667 -2.272,2.298667 -3.37067,3.596 -0.084,-0.265333 -0.176,-0.508 -0.29733,-0.777333 -0.37333,0.968 -0.90267,3.02 0.11467,3.774666 0.508,-0.762666 0.612,-1.705333 1.18933,-2.432 0.53333,-0.669333 1.25867,-1.309333 1.88533,-1.897333 1.61067,-1.509333 3.556,-2.657333 5.55734,-3.634666 1.708,-0.836 3.468,-1.566667 5.19866,-2.356 0.86,-0.392 1.716,-0.796 2.552,-1.234667 0.53334,-0.28 2.132,-0.718667 2.448,-1.136 -0.096,0.126667 -0.128,0.324 -0.12266,0.472 0.96133,0.225333 2.59866,-0.12 3.52933,-0.429333 1.40266,-0.466667 2.77466,-1.052 4.05066,-1.777334 5.74667,-3.188 11.348,-7.217333 14.79467,-12.702666 0.02,1.156 -0.0987,2.376 -0.0333,3.513333 0,0 0.0787,2.188 0.0787,2.188 l 1.956,-1.038666 c 0.58267,3.276 -0.16266,6.801333 -0.3,10.409333 0,0 -0.0693,2.821333 -0.0693,2.821333 l 1.432,-1.02 c 0.18133,2.332 -0.0853,4.797333 -0.87333,6.937333 -1.07467,2.446667 -2.61467,4.977333 -3.32,7.714667 0,0 1.252,-0.136 1.83733,-0.198667 -0.472,1.752 -1.748,3.657333 -2.89467,5.061333 -1.23333,1.418667 -2.58266,2.373333 -3.54666,4.276 0,0 -0.85867,1.746667 -0.85867,1.746667 0,0 1.08933,0.05333 1.65867,0.08133 -0.124,0.150667 -0.24934,0.301333 -0.364,0.424 -2.89734,3.4 -7.188,5.501333 -10.13067,9.305333 0,0 0.64267,0.08 1.21067,0.152 -1.26134,1.376 -3.22934,2.34 -4.85333,3.454667 -1.21467,0.778666 -2.572,1.533333 -3.724,2.682666 -0.97334,1.010667 -1.528,2.094667 -2.28934,2.770667 -0.37733,-0.226667 -0.83466,-0.293333 -1.20533,-0.08 -0.42533,0.258667 -0.736,0.553333 -1.012,0.865332 0.244,-0.831999 0.53067,-1.810665 0.53067,-1.810665 -0.27067,0.925333 -1.632,1.970665 -2.216,2.758665 -0.68,0.916 -0.86534,1.81067 -1.22934,2.86267 0.46534,-0.72 1.16134,-1.52267 1.89867,-2.024 0.076,0.48133 -0.096,1.30267 0.27333,1.66267 0.316,-0.608 2.56267,-2.656 2.392,-3.23467 0.13334,0.45333 0.30534,0.97867 0.58534,1.34533 0.40266,-0.84666 1.16,-1.36 1.78,-2.047999 0.57866,-0.644 1.02666,-1.381333 1.668,-1.973333 0.96133,-0.886667 2.23733,-1.553333 3.536,-2.301333 1.96533,-1.237334 4.11999,-2.088 5.76133,-3.913334 0.52666,-0.673333 0.872,-1.262666 1.20133,-1.48 0,0 -0.42267,-0.488 -0.42267,-0.488 1.54667,-1.338666 3.53067,-2.44 5.37467,-4.025333 2.39467,-2.322666 5.36533,-4.530666 5.90933,-7.953333 -0.036,0.232 -0.456,-0.3 -0.46666,-0.44 -0.0293,-0.366667 0.45733,-0.670667 0.67333,-0.92 2.34267,-2.830666 4.31333,-6.165333 3.624,-9.965333 0,0 -0.136,0.0093 -0.31733,0.02133 1.496,-3.132 3.01066,-6.378666 2.72666,-9.946666 -0.068,-1.74 0.264,-3.573333 -1.248,-5.049333 0.21867,-2.810667 0.536,-5.812 0.156,-8.768 -0.0813,-0.697333 -0.352,-2.006667 -1.36,-2.72 -0.152,-0.12 -0.44933,-0.225333 -0.732,-0.273333 0.0413,-2.029334 0.0387,-4.209334 -1.25866,-5.918667 l -1.484,-1.929333 c -1.81867,5.214666 -5.36934,9.662666 -9.99467,12.969333 -1.512,1.081333 -3.08,2.088 -4.588,3.169333 -1.364,0.978667 -3.07333,1.409333 -4.69333,1.866667 -1.22533,0.346666 -2.456,0.569333 -3.64,1.072 -3.444,1.462666 -6.80933,3.232 -10.09333,5.050666 -1.57867,0.873334 -3.14934,1.781334 -4.57467,2.872"
       style="fill:#000000;fill-opacity:1;fill-rule:nonzero;stroke:none;stroke-width:1.33333"
       id="path3824" />
    <path
       d="m 354.21226,53.149609 c 0.0467,-2.428 0.57066,-4.814667 0.47066,-7.256 -0.0413,-1.077333 0.16934,-4.405333 -0.90666,-5.090667 -0.0293,-0.01867 -0.0613,-0.02133 -0.0933,-0.02933 -2.13333,3.157333 -5.48933,6.333333 -7.68533,8.650666 -4.67467,4.932 -9.91333,9.142667 -15.70933,12.548 -4.732,2.78 -8.424,5.972 -8.47867,11.608 -0.0453,4.568 2.03867,7.984 4.284,11.456 0.86,1.330666 1.74934,3.002666 3.112,3.811999 1.804,1.070667 4.652,1.193334 6.74267,1.605334 0.616,0.121333 1.26,0.268 1.91333,0.404 0.45867,-0.582667 0.80133,-1.273334 1.372,-1.721334 -0.36133,0.284 -0.88267,0.377334 -1.356,0.304 1.73333,-1.934666 4.37333,-3.297333 6.296,-5.083999 1.28,-1.188 4.524,-3.894667 4.39467,-5.876 -0.61334,0.189333 -1.29867,0.826666 -1.97467,0.770666 0.76133,-1.626666 2.69733,-3.042666 3.78933,-4.496 1.464,-1.950666 3.204,-4.635999 2.96667,-7.155999 -0.49867,0.02933 -0.93067,0.364 -1.412,0.408 0.72667,-2.216 2.28933,-4.250667 2.96933,-6.593334 0.46134,-1.586666 0.71734,-3.059999 0.704,-4.721333 -0.009,-1.129333 0.17067,-3.702666 -0.74933,-4.454666 -0.196,0.32 -0.34267,0.696 -0.64933,0.912"
       style="opacity:0.199997;fill:#000000;fill-opacity:1;fill-rule:nonzero;stroke:none;stroke-width:1.33333"
       id="path3834" />
    <path
       d="m 258.61986,216.34014 c 6.31867,2.916 28.09333,11.26 30.572,11.87066 2.72267,0.672 16.98267,2.91067 19.576,2.85334 9.11067,-0.20134 11.50267,-3.05067 12.452,-3.784 1.04933,-0.816 7.21867,-11.044 8.12133,-16.296 0.46134,-2.68534 1.628,-4.72534 1.94267,-6.09734 0.37467,-1.63333 0.74533,-3.092 3.03733,-8.12266 4.59467,-10.08667 11.544,-23.872 12.03333,-31.396 0.35867,-5.496 -1.48533,-11.57333 -2.116,-16.93467 -0.34533,-2.94133 -0.66133,-5.66666 -0.80666,-8.03866 0.12,0.26666 0.20266,0.532 0.20266,0.79466 0.0173,-1.38266 -0.536,-3.04 0,-5.21066 0.496,-1.51334 0.728,-3.09467 1.27734,-4.61334 0.30266,-0.83333 0.62,-1.77333 0.856,-2.72933 0.11733,-0.244 0.236,-0.48933 0.35066,-0.72533 0.984,-2.02267 1.83334,-3.76934 1.83334,-5.87467 0,-1.95333 0.87466,-15.52933 -1.996,-29.299999 -2.476,-11.878666 -8.244,-26.117333 -15.61467,-34.651999 -13.904,-16.098666 -42.63066,-28.709333 -65.4,-28.709333 -23.86933,0 -70.32799,22.622666 -70.32799,64.095999 0,5.121333 0.47333,10.244002 0.65866,15.346662 0.23067,6.312 1.13334,12.572 2.01067,18.82 0.82667,5.896 1.05467,11.95334 2.50267,17.74267 0.52266,2.092 7.96533,18.804 10.52399,20.476 2.56,1.672 6.89467,2.30667 7.90667,6.12933 1.012,3.82267 11.92267,20.632 14.31467,23.33467 8.772,9.90933 26.08933,21.02 26.08933,21.02"
       style="fill:#cd976d;fill-opacity:1;fill-rule:nonzero;stroke:none;stroke-width:1.33333"
       id="path3868" />
    <path
       d="m 217.71533,171.65547 c 1.26133,1.60667 1.516,3.84934 1.96266,5.776 0.59867,2.584 1.652,5.384 2.89867,7.72667 -0.0267,-0.86267 0.16,-1.83867 0.58267,-2.56667 1.25466,5.17867 3.692,9.88667 4.88133,15.13467 0.51067,-1.99867 0.79867,-4.43467 0.436,-6.47733 2.21467,3.692 3.03467,8.76933 6.51867,11.51733 -0.0547,-1.36934 -0.43067,-2.76667 -0.54134,-4.13333 2.04534,4.12533 6.28534,6.99866 9.56,10.15199 0,-0.61333 -0.228,-1.432 -0.464,-2.04666 1.336,1.18933 2.42,2.636 3.76267,3.86533 1.588,1.45467 3.54,2.43067 5.46667,3.348 2.39866,1.14267 5.26533,1.816 7.45733,3.212 -0.49467,-0.0147 -0.99467,-0.012 -1.484,0.008 2.212,3.076 6.08533,4.46667 9.51733,5.38133 2.888,0.76934 6.192,1.82 9.13734,2.13334 -0.32934,0.0613 -0.72267,0.344 -1.01467,0.45866 0.88933,1.47734 4.14933,2.064 5.672,2.46134 2.97733,0.77866 6.09867,0.89466 9.01733,1.404 -0.78666,0.716 -2.36266,-0.20134 -3.00533,0.57333 5.82133,3.07467 12.14133,1.716 18.49733,2.11067 -0.20933,0.20533 -0.3,0.604 -0.524,0.816 3.04134,2.35866 8.08267,-0.808 11.01467,-1.94 -0.0613,0.324 0.10133,0.756 0.0347,1.08933 3.77333,-0.44133 4.86,-4.672 6.728,-7.47467 0.17333,0.43334 0.30933,0.856 0.41866,1.30134 0.76267,-1.52934 1.65734,-3.264 2.164,-4.864 0.47467,-1.5 0.43067,-3.09067 0.868,-4.54267 0.34534,0.744 0.38534,1.64667 0.42,2.44533 0.26134,-2.164 1.216,-4.33466 1.712,-6.484 0.484,-2.09733 0.74934,-4.79066 1.81467,-6.736 0.31067,0.38134 0.46133,0.84534 0.52667,1.356 -0.412,-4.032 2.73866,-9.29733 4.33199,-12.76399 0.17867,0.836 0.068,1.76133 0.27067,2.564 0.81467,-6.05867 5.29467,-10.68267 6.16267,-16.54934 0.508,-0.0387 0.94666,0.19334 1.23866,0.628 0.38267,-2.28933 0.94267,-4.668 1.50134,-6.92933 0.64533,-2.61467 0.624,-5.492 1.276,-8.20533 0.75866,1.02266 0.74666,2.28 1.27333,3.30533 -0.0307,-2.13067 0.0733,-3.77733 -0.55333,-5.65067 -0.55067,-1.65066 -1.26934,-3.72533 -1.25334,-5.5 0.47067,0.18134 0.852,0.59334 1.084,1.00267 -0.11733,-1.73733 -0.744,-3.36133 -1.344,-4.91333 -1.21466,-3.148 -2.05466,-6.53334 -2.912,-9.79734 0.49467,0.46134 0.87734,1.22534 1.46534,1.56 -1.136,-3.684 -0.84134,-7.72666 0.148,-11.40933 0.92533,-3.44533 3.28,-6.28933 4.03866,-9.788 -0.708,0.48 -1.44133,0.916 -2.208,1.328 1.79467,-1.80533 2.14,-4.47733 2.77867,-6.748 -0.7,0.736 -1.35867,1.652 -2.20533,2.18 1.252,-3.20133 2.424,-6.06 1.37733,-9.42667 -0.17733,0.36267 -0.524,0.75467 -0.67067,1.06 -0.232,-3.08 -0.168,-6.16133 -0.31066,-9.248 -0.148,-3.192 0.24933,-6.498662 -0.13334,-9.661329 -0.69066,-5.689333 -2.40133,-11.226666 -4.76133,-16.438666 -2.25067,-4.969333 -4.37867,-9.953333 -7.11867,-14.709333 0.072,0.564 0.104,1.148 -0.26933,1.478666 -2.27333,-2.82 -5.40533,-5.110666 -7.552,-7.995999 -1.824,-2.450667 -3.872,-4.913334 -5.71066,-7.408 -1.25467,-1.704 -2.67067,-3.169333 -4.332,-4.490667 -0.0533,0.689334 0.12533,1.344 0.13466,2.012 -1.16666,-1.493333 -3.084,-2.590666 -4.584,-3.732 -3.28666,-2.502666 -6.20933,-4.849333 -9.65466,-7.077333 0.112,0.925333 0.66,1.982667 0.972,2.832 -3.04934,-3.334667 -9.50267,-5.654666 -13.64267,-6.908 0.22133,0.801334 0.94133,1.466667 1.36667,2.166667 -2.85734,-2.373333 -7.59334,-3.142667 -11.07067,-4.036 -2.15867,-0.556 -4.21333,-0.456 -6.464,-0.534667 0.808,0.442667 1.45867,0.952 2.05867,1.64 -2.112,-0.952 -4.38667,-1.537333 -6.55334,-2.328 -1.63066,-0.593333 -3.82266,-1.353333 -5.58133,-1.228 0.65067,0.804 1.50933,1.486667 2.23733,2.246667 -2.612,0.636 -5.91866,-0.09067 -8.66533,-0.06933 -1.69333,0.01333 -3.46667,0.26 -5.22,0.465333 -2.764,0.324 -6.45067,1.085333 -8.59867,2.890667 0.64934,0.04533 1.43067,0.06 1.97334,0.204 -1.232,-0.326667 -4.32667,1.137333 -5.592,1.481333 -1.968,0.534666 -3.93067,1.088 -5.88,1.688 -2.98,0.917333 -7.13334,1.776 -9.176,4.345333 0.95733,-0.222667 2.04666,-0.536 3.004,-0.56 -1.62534,1.952 -4.18534,2.581333 -6.304,3.805333 -2.31734,1.337334 -4.87334,2.917334 -6.74667,4.842667 0.58667,0 1.16133,-0.09467 1.74267,-0.162667 -2.10934,1.278667 -3.852,2.397333 -5.20934,4.458667 -1.33866,2.034666 -2.932,4.090666 -4.52666,5.942666 -3.392,3.94 -5.95334,8.097333 -8.12533,12.78 -3.16667,6.829333 -4.776,14.454666 -6.08,21.882666 -0.42134,2.398667 -2.46534,8.097326 -1.10934,10.447996 0.59867,-0.64267 0.85067,-1.508 1.228,-2.27733 -0.0733,3.85066 0.40667,7.76933 0.072,11.552 0.59334,-0.40134 0.95734,-1.16934 0.89067,-1.928 0.82133,4.79066 0.5,9.84533 0.176,14.604 0.75733,-0.73734 1.07067,-1.84267 1.68,-2.66534 1.616,4.94 0.79467,10.172 0.65733,15.2 0.15334,-0.35333 0.48267,-0.64533 0.66934,-0.92933 1.428,4.11867 0.984,8.62133 1.87333,12.79467 0.0907,-0.28667 0.43333,-0.616 0.54533,-0.87334 3.132,2.89467 3.02267,8.868 4.03333,12.6 0.308,-0.53066 0.50534,-1.036 0.73067,-1.596 0.66,1.24934 1.85067,2.15734 2.49867,3.35867 0.52533,0.972 0.69866,2.072 1.108,3.11733 -0.0213,-0.32933 0.13333,-0.596 0.15733,-0.92266 1.21733,0.74666 3.18,1.20533 3.88267,2.50133"
       style="fill:#cd976d;fill-opacity:1;fill-rule:nonzero;stroke:none;stroke-width:1.33333"
       id="path3872" />
    <path
       d="m 260.93453,187.97267 c -1.45467,-3.072 -2.58934,-6.296 -3.36667,-9.60533 l -1.096,1.56133 c -1.09333,-4.37466 -1.664,-8.87733 -1.7,-13.38666 -0.95867,1.56133 -1.70133,3.25333 -2.2,5.01466 -1.21867,-3.1 -1.95733,-6.388 -2.18133,-9.71066 -0.59467,1.49333 -1.092,3.02666 -1.48667,4.58533 -2.40667,-3.10533 -4.04533,-6.80267 -4.728,-10.67333 -0.24,0.85333 -0.38267,1.84666 -0.84,2.60266 -1.51467,-1.688 -1.42267,-4.824 -1.524,-6.96266 -0.15067,-3.15734 0.18133,-6.20267 -0.12267,-9.30534 -0.188,-1.92 -0.29866,-3.848 -0.32933,-5.776 -0.0107,-0.604 0.44,-5.09866 0.128,-5.3 0.49467,0.31867 0.90933,0.78267 1.308,1.176 1.29333,-2.05733 0.92133,-5.2 0.908,-7.556 -0.012,-2.296 -0.58133,-4.348 -0.97333,-6.59866 0.892,0.0413 1.88933,0.908 2.67866,1.348 -0.63333,-4.172 -3.42133,-8.092 -3.05466,-12.43734 1.69866,1.48134 3.02666,4.03067 5.28,4.63467 -1.092,-3.31333 -3.03067,-6.22933 -4.384,-9.33867 2.17466,0.91467 3.77066,3.73467 5.812,5.07467 1.49066,0.97733 3.312,1.53067 4.704,2.67067 -2.51867,-4.00667 -6.06134,-7.372 -8.55067,-11.454669 -1.728,-2.836 -4.972,-7.996 -4.39867,-11.454667 1.21467,0.225334 1.73334,1.326667 2.688,1.968 -0.576,-5.161333 -0.44933,-10.357333 -0.64,-15.518666 0.54534,0.316 1.008,0.804 1.496,1.193333 0.41067,-3.333333 -0.67733,-6.921333 -0.224,-10.395999 0.29734,-2.28 0.988,-4.462667 1.29867,-6.704 0.22933,0.572 0.42933,1.197333 0.64533,1.708 0.868,-2.865333 0.704,-6.230667 2.50934,-8.78 0.48666,0.885333 0.74266,1.892 1.00933,2.838667 0.0147,-2.850667 2.024,-6.634667 3.18933,-9.126667 1.90667,-4.074666 3.908,-7.309333 8.34,-8.813333 -1.30533,2.636 -3.8,4.68 -4.976,7.370667 5.22667,-7.994667 14.45467,-11.738667 23.336,-12.446667 -7.204,-1.384 -14.34933,-1.313333 -21.57333,-1.256 -1.692,0.01333 -3.46533,0.26 -5.22,0.465334 -2.76267,0.324 -6.45067,1.086666 -8.59733,2.892 0.64933,0.044 1.42933,0.05867 1.97333,0.202666 -1.23333,-0.326666 -4.328,1.137333 -5.592,1.481333 -1.968,0.534667 -3.93067,1.088 -5.88,1.688 -2.98,0.917334 -7.13333,1.776 -9.17733,4.345334 0.95866,-0.222667 2.04666,-0.536 3.004,-0.56 -1.62534,1.952 -4.18534,2.582666 -6.30267,3.805333 -2.31867,1.338667 -4.87333,2.917333 -6.74667,4.842666 0.58667,0 1.16134,-0.09467 1.74134,-0.161333 -2.108,1.278667 -3.852,2.396 -5.208,4.458667 -1.33867,2.033333 -2.932,4.089333 -4.52667,5.941333 -3.39333,3.94 -5.95333,8.097333 -8.12533,12.78 -3.16667,6.830666 -4.77733,14.454666 -6.08,21.882666 -0.42133,2.398666 -2.46667,8.097332 -1.11067,10.448002 0.59867,-0.64267 0.852,-1.50667 1.228,-2.27734 -0.0733,3.852 0.408,7.76934 0.072,11.552 0.59334,-0.40133 0.95867,-1.16933 0.89067,-1.928 0.82267,4.79067 0.5,9.84534 0.176,14.604 0.75867,-0.73733 1.072,-1.84266 1.68133,-2.66533 1.61467,4.94133 0.79467,10.172 0.656,15.2 0.15467,-0.35333 0.484,-0.644 0.67067,-0.92933 1.42667,4.11866 0.98267,8.62133 1.87333,12.796 0.0893,-0.288 0.43334,-0.61734 0.544,-0.87467 3.13333,2.89467 3.02267,8.868 4.03467,12.6 0.308,-0.53067 0.504,-1.036 0.72933,-1.596 0.66133,1.24933 1.85067,2.15733 2.5,3.35867 0.524,0.972 0.69733,2.072 1.108,3.11866 -0.0227,-0.33066 0.132,-0.59733 0.156,-0.924 1.21867,0.74667 3.18,1.20534 3.884,2.50134 l 5.444,3.48933 c 1.26133,1.60667 1.51467,3.84933 1.96133,5.776 0.59867,2.584 1.65334,5.38533 2.89867,7.728 -0.0253,-0.864 0.16,-1.84 0.58267,-2.568 1.25466,5.17867 3.692,9.88667 4.88133,15.13467 0.512,-1.99867 0.79867,-4.43467 0.43733,-6.47734 2.21467,3.692 3.03334,8.76933 6.51734,11.51733 -0.0533,-1.36933 -0.42934,-2.76666 -0.54,-4.13333 2.04533,4.12533 6.28533,6.99867 9.55866,10.152 0,-0.61333 -0.22666,-1.432 -0.46266,-2.04533 1.33466,1.188 2.42,2.63466 3.76133,3.864 1.588,1.45466 3.54133,2.43066 5.468,3.348 2.39733,1.144 5.264,1.816 7.456,3.212 -0.49333,-0.0147 -0.99333,-0.012 -1.484,0.009 2.21333,3.07467 6.08533,4.46533 9.51867,5.38 2.88666,0.76933 6.192,1.82 9.13733,2.13333 -0.33067,0.0613 -0.724,0.344 -1.01467,0.45867 0.88934,1.47733 4.148,2.064 5.67067,2.46133 2.97867,0.77867 6.1,0.89467 9.01867,1.404 -0.788,0.716 -2.364,-0.20133 -3.00534,0.57334 5.82,3.07466 12.14,1.716 18.496,2.11066 -0.208,0.20534 -0.29866,0.604 -0.524,0.816 3.04267,2.35867 8.08267,-0.808 11.016,-1.94 -0.0613,0.324 0.10134,0.756 0.0347,1.08934 -0.004,0.0147 1.712,-0.50934 1.89867,-0.64134 0.6,-0.42 0.728,-0.708 1.036,-1.40133 0.624,-1.39867 1.07866,-2.91733 1.40533,-4.41067 -0.572,0.29467 -0.92267,0.85067 -1.552,1.07867 0.0187,-0.48933 -0.0627,-0.95867 -0.38667,-1.316 -0.92266,0.69467 -1.62533,1.612 -2.944,1.68933 -0.304,-0.46666 -0.444,-1.03466 -0.66933,-1.532 -0.64,0.34267 -1.25333,0.83067 -1.96133,0.90934 0.001,-0.38534 -0.18934,-0.65334 -0.248,-1.01867 -0.83067,0.64267 -1.592,1.48 -2.348,2.24 -0.21334,-0.32 -0.624,-0.78933 -0.952,-0.956 -0.76134,-0.388 -1.812,0.41067 -2.72134,0.33067 -1.68533,-0.14934 -3.20933,-0.0933 -4.908,-0.44667 -3.39066,-0.704 -6.39733,-2.23067 -8.072,-5.42 0.0947,0.53333 0.18934,1.06667 0.284,1.6 -2.07733,-1.84133 -4.15333,-3.68267 -6.23066,-5.52267 -0.0133,0.712 -0.0253,1.42534 -0.0373,2.13867 -2.812,-2.192 -5.28,-4.824 -7.288,-7.77067 0.016,1.08267 0.032,2.164 0.0467,3.24667 -2.96667,-4.004 -5.768,-8.13067 -8.39067,-12.368 -0.0907,1.02267 -0.18133,2.04667 -0.272,3.07067 -1.42666,-3.00134 -3.19866,-5.84 -5.26933,-8.44 -0.009,0.50667 -0.02,1.012 -0.0293,1.51867 -2.608,-3.12534 -4.81334,-6.58667 -6.556,-10.26534"
       style="opacity:0.199997;fill:#000000;fill-opacity:1;fill-rule:nonzero;stroke:none;stroke-width:1.33333"
       id="path3882" />
    <path
       d="m 322.33653,173.75147 c -0.0987,0.43467 0.364,0.828 0.80933,0.84534 0.44533,0.0173 0.856,-0.216 1.25067,-0.42134 1.27866,-0.66533 2.65866,-1.11466 3.94933,-1.75733 1.29067,-0.64133 2.52667,-1.52133 3.21733,-2.78533 1.772,-3.248 0.096,-7.92134 -1.308,-10.99734 -1.59466,-3.49466 -3.76266,-6.67866 -5.496,-10.1 -1.91333,-3.77466 -5.01066,-9.51866 -4.45733,-13.86933 0.50133,-3.92933 4.13467,-6.57067 6.34533,-9.85733 -0.95466,0.924 -1.90933,1.848 -2.864,2.77066 -0.572,0.55334 -1.32133,1.71467 -2.076,1.96667 -0.504,0.168 -4.03733,-0.85333 -4.18,-1.21067 1.11067,2.80134 1.04134,5.276 1.62134,8.148 0.628,3.11067 1.17333,6.24 1.928,9.324 0.81733,3.33734 3.01866,6.156 4.66,9.11067 1.99466,3.596 3.29333,7.588 3.684,11.68133 0.264,2.768 -3.636,4.23867 -5.77867,3.20134 -2.51467,-1.216 -6.18,-1.22267 -8.98267,-1.11734 -4.264,0.16134 -8.96266,0.43334 -13.16133,-0.23866 -1.29067,-0.20667 -2.27467,-0.39867 -3.18533,-1.30934 -0.38134,-0.38133 -1.91334,-2.976 -1.236,-3.45466 -0.91867,0.64933 -2.024,1.532 -2.328,2.67466 -0.41467,1.56534 1.01866,3.18267 2.10266,4.108 0.33867,0.28934 4.524,2.69334 4.54534,2.20934 0.0213,-0.508 -0.124,-0.87734 0.37066,-1.02534 0.44267,-0.132 0.77334,0.19867 1.15467,0.33067 0.28,0.0973 0.58667,0.10667 0.87733,0.2 0.67067,0.216 1.26934,0.62 1.88934,0.94533 0.91066,0.48 1.74933,1.04 2.44133,1.80534 1.056,1.168 2.05067,2.95866 2.332,4.516 0.392,2.168 -0.0573,4.37866 -0.64267,6.48 -0.20266,0.728 -0.79066,1.26 -1.404,1.684 1.20134,-0.0173 2.36267,0.524 3.55467,0.468 -0.23467,-0.84134 -0.532,-1.69067 -0.46667,-2.58667 0.0867,-1.156 0.5,-2.256 0.99467,-3.296 1.10533,-2.324 3.03333,-4.73467 5.19067,-6.14933 1.46933,-0.964 3.13066,-1.46934 4.648,-2.29334"
       style="fill:#000000;fill-opacity:1;fill-rule:nonzero;stroke:none;stroke-width:1.33333"
       id="path3892" />
    <path
       d="m 314.83279,122.86174 c 0.004,0.024 0.008,0.048 0.012,0.072 0.12667,0.76667 0.33467,1.76267 1.05734,2.19733 0.59466,0.35734 1.492,0.24667 2.14933,0.47867 -0.584,-0.20667 -2.46933,1.66133 -2.81467,2.06667 -0.58666,0.69066 -0.75333,1.12266 -0.836,1.98666 -0.20933,2.19334 0.35867,4.39867 0.72134,6.54267 0.39333,2.332 0.992,5.18933 0.25733,7.512 -0.78533,-2.83867 -0.45467,-6.03333 -1.348,-8.98 -0.788,-2.59867 -3.06933,-7.67467 -6.268,-7.50933 -1.392,0.0707 -1.98533,0.456 -2.49067,1.79333 -0.72266,1.91333 0.0573,4.34267 0.26,6.36533 0.328,3.27734 1.17067,6.98134 0.41067,10.232 -0.192,0.824 -0.396,1.82534 0.108,2.57067 0.436,0.64667 0.64267,0.692 0.236,1.44533 -0.496,0.916 -0.19467,1.45334 0.196,2.39867 0.12133,0.29467 0.576,0.764 0.48667,1.10133 -0.19734,0.73467 -1.376,1.21067 -2.00667,1.404 -0.79467,0.244 -1.704,0.34534 -2.43467,0.76267 -1.39733,0.8 -2.57866,1.92533 -3.91733,2.81333 -0.49467,0.32667 -2.096,0.93067 -2.14667,1.63867 0.13467,-1.892 0.112,-3.636 0.424,-5.51867 0.22,-1.332 0.58,-3.048 -0.69733,-3.88666 -1.09067,-0.71467 -2.972,-0.976 -4.232,-1.06 -3.50667,-0.232 -7.012,0.984 -10.48667,0.068 -3.816,-1.00667 -8.90266,-7.404 -9.60933,-8.50934 -0.27733,-0.43466 0.65467,0.21867 0.736,0.26 1.03067,0.52267 1.95867,1.28134 2.98133,1.832 3.92667,2.11334 9.01467,3.32267 13.46267,3.39867 2.628,0.0453 6.328,-0.41733 7.72267,-2.93867 0.60933,-1.10266 0.89466,-2.32133 1.21333,-3.528 0.22267,-0.83866 1.33333,-3.14266 1.03333,-3.884 -0.14266,-0.352 -0.328,-0.68266 -0.46,-1.03466 -0.12933,-0.34667 -1.41866,-1.148 -1.66933,-1.47334 -2.728,-3.52266 -6.99867,-4.864 -11.052,-6.08 -1.57333,-0.47066 -3.07467,-1.11333 -4.69067,-1.404 -3.568,-0.64133 -7.77066,-0.0853 -11.27333,0.49867 -1.75867,0.29333 -3.11867,1.13333 -4.616,1.94933 -1.05867,0.576 -3.49333,1.896 -4.67333,1.204 -2.85467,-1.67466 0.68533,-6.15066 2.36133,-7.14 6.93733,-4.092 15.74,-4.14266 23.348,-2.372 2.71067,0.632 5.40267,1.288 8.09333,1.992 2.484,0.64934 4.496,2.00134 6.91067,2.64134 0.38267,0.10133 0.77733,0.18533 1.18533,0.244 2.22,0.32666 4.49067,1.048 6.74134,0.556 2.09066,-0.45734 2.89733,-2.44534 3.672,-4.332 0.62266,-1.51467 0.876,-3.252 0.96,-4.884 0.272,-5.32 -0.76267,-10.63334 -1.34134,-15.852 -0.19066,-1.720002 -0.66266,-3.550669 -0.79866,-5.317336 0.072,0.933334 0.33866,1.813334 0.73066,2.66 0.20667,0.446667 0.372,0.773334 0.456,1.252 0.40534,1.859996 0.74267,3.738666 1.05067,5.617336 0.564,3.43733 1.07067,6.94266 1.036,10.432 -0.0187,1.74133 -0.124,3.46533 -0.22667,5.208 -0.0493,0.83466 -0.0533,1.68 0.076,2.50933"
       style="opacity:0.199997;fill:#000000;fill-opacity:1;fill-rule:nonzero;stroke:none;stroke-width:1.33333"
       id="path3914" />
    <path
       d="m 273.33066,130.35841 h -4.57467 c 0,0 -0.12666,7.172 14.86934,13.39866 8.02133,3.33067 13.56133,-3.92133 13.56133,-3.92133 l -1.47067,-5.556 c 0,0 -3.268,-3.104 -7.84266,-3.59467 -4.576,-0.49066 -14.54267,-0.32666 -14.54267,-0.32666"
       style="fill:#ffffff;fill-opacity:1;fill-rule:nonzero;stroke:none;stroke-width:1.33333"
       id="path3924" />
    <path
       d="m 293.82266,142.63081 c 0.752,-1.504 3.08133,-6.432 1.40533,-8.54 -1.676,-2.108 -10.75333,-3.60267 -13.94133,-3.65734 -3.18933,-0.0533 -9.26133,-0.428 -9.26133,-0.428 0,0 -1.89734,3.632 -0.492,5.284 1.40533,1.65067 10.348,8.008 13.15733,8.54934 2.81067,0.54 8.7,-0.34267 9.132,-1.208"
       style="fill:#000000;fill-opacity:1;fill-rule:nonzero;stroke:none;stroke-width:1.33333"
       id="path3928" />
    <path
       d="m 291.56959,141.62867 c 0.68267,-1.27333 2.79467,-5.44266 1.27467,-7.22666 -1.52,-1.784 -9.028,-3.704 -11.916,-3.87467 -3.656,-0.216 -6.156,-0.384 -6.156,-0.384 0,0 -1.536,5.17333 -0.26133,6.91067 1.27466,1.73866 7.54933,5.30666 10.09733,5.764 2.54933,0.45733 6.56933,-0.45734 6.96133,-1.18934"
       style="fill:#fbb03b;fill-opacity:1;fill-rule:nonzero;stroke:none;stroke-width:1.33333"
       id="path3932" />
    <path
       d="m 282.95813,137.15281 c -1.16534,3.16533 -0.41867,5.58666 1.40933,5.96 1.828,0.37333 3.52,-2.04934 3.78,-5.412 0.25867,-3.36267 -1.012,-6.392 -2.84,-6.76534 -1.828,-0.37333 -1.184,3.052 -2.34933,6.21734"
       style="fill:#000000;fill-opacity:1;fill-rule:nonzero;stroke:none;stroke-width:1.33333"
       id="path3936" />
    <path
       d="m 285.06973,133.80801 c 0,1.104 -0.888,2.028 -1.98267,2.06266 -1.09467,0.0347 -1.98267,-0.832 -1.98267,-1.93733 0,-1.104 0.888,-2.028 1.98267,-2.06267 1.09467,-0.0347 1.98267,0.83334 1.98267,1.93734"
       style="fill:#ffffff;fill-opacity:1;fill-rule:nonzero;stroke:none;stroke-width:1.33333"
       id="path3940" />
    <path
       d="m 234.75306,97.311608 c -0.25733,0.28 -0.516,0.56 -0.78667,0.856 0.28267,-0.266667 0.54,-0.556 0.78667,-0.856"
       style="opacity:0.199997;fill:#000000;fill-opacity:1;fill-rule:nonzero;stroke:none;stroke-width:1.33333"
       id="path3950" />
    <path
       d="m 301.12493,33.500276 c -0.068,-0.546667 -3.72934,-1.844 -4.296,-2.109333 -1.37067,-0.642667 -2.84134,-0.962667 -4.316,-1.329334 -3.30534,-0.822666 -6.63734,-1.536 -9.98934,-2.138666 -1.92933,-0.348 -24.252,-3.248 -24.252,-2.18 1.02,0.196 2.176,0.485333 3.108,0.865333 -3.93866,0.296 -7.73066,0.608 -11.53733,1.717333 -3.86133,1.126667 -7.592,2.642667 -11.39333,3.946667 -4.62934,1.588 -9.46934,2.912 -13.41334,5.810666 -1.364,1.002667 -2.59333,2.176 -3.90266,3.249334 -1.94267,1.594666 -4.052,2.968 -6.02934,4.516 -1.888,1.477333 -3.36133,3.233333 -5.03333,4.921333 l 0.676,-0.05867 c -0.18267,0.236 -0.356,0.477333 -0.51333,0.726667 -1.60267,2.468 -3.38134,4.546666 -5.30134,6.845333 -3.452,4.252 -6.17466,9.022666 -8.26399,14.029333 -2.73334,6.574666 -4.09867,13.5 -5.31734,20.391999 -0.42933,2.277334 -1.176,4.445334 -1.43866,6.818667 -0.144,1.724002 -0.35067,3.232002 0.59466,5.008002 0,0 1.056,1.896 1.16534,2.09067 0.112,3.29066 0.176,6.464 -0.256,9.73733 0,0 0.856,-0.612 1.67066,-1.19467 0.21734,3.364 0.0387,6.828 -0.168,10.31334 l -0.23466,3.984 c 0,0 2.568,-2.54934 2.77333,-2.75334 0.168,1.22134 0.24,2.47734 0.244,3.75067 0.0147,2.47333 -0.19067,5.012 -0.232,7.62133 0,0 0.50667,0.112 0.96267,0.21334 1.16266,3.78933 0.86933,7.944 1.78266,11.92266 0,0 0.62667,0.0293 1.208,0.0573 2.66933,2.99733 2.448,7.78933 3.604,11.66933 0,0 0.66533,2.43867 0.664,2.43867 0.28933,-0.62934 0.72,-1.63467 1.116,-2.54267 0.52133,0.61467 1.048,1.14667 1.41467,1.696 0.60933,0.84267 0.80933,2.04933 1.31733,3.324 -0.10667,-0.26933 2.40667,0.14133 2.672,0.252 1.44933,0.608 2.73067,1.82 4.10533,2.60133 -0.27733,-2.296 -3.928,-3.644 -5.54666,-4.668 0,0 -0.12667,-0.0813 -0.288,-0.18266 -0.028,-0.0987 -0.0533,-0.192 -0.0827,-0.29334 -0.32133,-1.832 -2.28933,-3.516 -3.00533,-4.86266 0,0 -0.776,-1.592 -0.77734,-1.592 -0.092,0.19733 -0.21066,0.44666 -0.34266,0.72133 -0.55334,-3.72 -0.85867,-7.776 -3.65734,-10.544 0,0 -0.18133,0.0387 -0.42,0.088 -0.21466,-1.59067 -0.29599,-3.24133 -0.41333,-4.93067 -0.11733,-2.57066 -0.64533,-5.40666 -1.54933,-7.98533 0.292,-4.32 0.66133,-8.73733 -0.7,-13.01067 0,0 -0.88533,-2.764 -0.88533,-2.764 0,0 -0.14267,0.19334 -0.33867,0.45867 0.13067,-3.10667 0.0893,-6.264 -0.42,-9.44933 0,0 -0.304,0.04 -0.724,0.0947 0.096,-3.268 -0.18267,-6.408 -0.0893,-9.40533 l 0.26933,-8.636002 c 0,0 -0.23067,0.494667 -0.268,0.572 0.0613,-0.316 0.12267,-0.632 0.15733,-0.928 1.17467,-6.262666 2.584,-12.789333 5.064,-18.562666 2.46933,-5.994667 6.07467,-11.178667 10.31733,-16.030666 1.23067,-1.510667 2.33467,-3.173334 3.46934,-4.766667 1.11333,-1.374667 2.464,-2.196 4.08266,-3.186667 2.50534,-1.584 5.07334,-3.08 7.61067,-4.613333 -1.06267,0.08133 -2.12533,0.162667 -3.188,0.244 1.164,-0.08933 3.116,-1.4 4.10267,-2.001333 1.36933,-0.834667 2.616,-1.869333 3.68266,-3.064 0.40934,-0.457333 0.796,-0.942667 1.288,-1.309333 0.67334,-0.504 1.49734,-0.754667 2.304,-0.996 3.60134,-1.08 7.204,-2.158667 10.80667,-3.237334 0.204,-0.06133 0.41467,-0.126666 0.576,-0.266666 0.172,-0.149334 0.26533,-0.368 0.38533,-0.562667 0.75734,-1.224 2.592,-1.544 3.87467,-1.901333 1.83333,-0.512 3.77067,-0.658667 5.65333,-0.888 2.37334,-0.289333 4.66667,-0.04133 7.04,0.08667 1.24667,0.06667 2.496,0.068 3.736,-0.09867 1.02267,-0.137333 2.12934,-0.616 3.16,-0.517333 1.296,0.124 8.59734,2.446666 9.03467,0.321333 1.81333,-0.130667 3.11733,0.42 4.82267,0.825333 3.07733,0.732 6.512,1.429334 9.39333,2.757333 -0.0453,-0.121333 -0.0227,-0.346666 -0.072,-0.478666 1.91333,-0.02 3.764,1.021333 5.428,1.838666 2.84267,1.396 5.23333,3.502667 8.02933,4.964 0.12134,-0.790666 -0.33733,-1.52 -0.61866,-2.226666 0.89333,1.141333 2.296,1.765333 3.368,2.704 1.37466,1.205333 2.95333,2.297333 4.45466,3.34 2.55734,1.776 4.94534,3.811999 7.392,5.745333 -0.0707,-0.265334 -0.0987,-0.541334 -0.17333,-0.812 1.22533,1.998666 2.98,3.648 4.29067,5.586666 2.80533,4.146667 6.83333,7.565333 10.17199,11.285333 0.16,-0.113333 0.32,-0.226666 0.47867,-0.34 3.44933,6.673334 6.644,13.562667 8.812,20.76 1.59867,5.178666 1.612,10.402666 1.484,15.833335 0.12,3.232 0.148,6.63333 0.35067,9.90933 0,0 0.41333,0.0787 0.944,0.17867 0.548,0.10267 -0.19867,3.64533 -0.304,4.02533 -0.312,1.12667 -0.48267,2.33467 -0.96267,3.41067 -0.50667,1.136 -1.10267,2.128 -1.10267,3.416 0.38267,-0.17467 0.86667,-0.28667 1.23867,-0.41333 0.25333,1.024 -0.32933,4.60666 -1.38933,5.108 0.336,-0.15867 0.62,-0.44534 0.952,-0.564 0.036,0.54666 -0.37467,0.876 -0.604,1.316 -0.26134,0.50266 -0.504,1.02 -0.73867,1.536 -0.48533,1.06533 -0.90933,2.16266 -1.16667,3.30666 -0.52933,2.14267 -0.83066,4.39467 -0.784,6.66267 -1.088,-1.04133 -2.17866,-2.08667 -2.17866,-2.08667 0,0 1.48933,5.636 1.48933,5.636 0.5,1.88934 1.024,3.77334 1.59067,5.644 0.24133,0.79734 0.52,1.52667 0.852,2.28134 0.34533,0.78666 0.34,1.67066 0.47466,2.50533 0.17334,1.076 0.356,2.144 0.47734,3.228 0.23733,2.11333 0.32933,4.244 0.27733,6.372 -0.10533,4.25333 -0.788,8.49333 -2.03867,12.56133 -0.25866,0.83734 -0.87866,1.86134 -1.71866,1.612 -0.86667,3.948 -2.312,7.76934 -4.272,11.304 -0.052,-0.28666 -0.10267,-0.57333 -0.15334,-0.86 -3.77466,7.75334 -7.58933,15.624 -9.16133,24.10267 -0.21466,-0.42667 -0.42933,-0.85467 -0.644,-1.28134 -0.78133,3.21467 -1.56266,6.42934 -2.344,9.64534 0.136,-0.35867 -0.57333,-0.38267 -0.75466,-0.0467 -0.0987,0.184 -1.208,2.052 -1.23334,2.02533 -1.66266,2.37734 -2.476,5.75334 -5.084,6.63867 -0.492,-0.408 -0.97733,-0.812 -0.97733,-0.812 -2.92667,0.98 -6.42267,3.736 -9.41867,2.22533 -0.22666,-0.60666 -0.44666,-1.19466 -0.44666,-1.19466 -4.72267,-0.304 -9.60267,0.41333 -14.09334,-0.57867 0.65067,-0.6 1.712,-1.57733 1.712,-1.57733 -5.30666,-1.09067 -10.81466,-1.04667 -15.76533,-3.03734 -0.472,-0.20933 -0.81067,-0.51066 -0.88533,-0.628 0,0 -0.0107,0.0347 -0.0253,0.0773 -0.024,-0.6 -0.048,-1.22534 -0.048,-1.22534 -2.78266,-0.26 -6.98266,-1.58533 -9.74666,-2.29733 -2.02267,-0.564 -3.996,-1.32133 -5.61067,-2.41467 l 2.82267,-0.024 c 0,0 -4.04134,-2.52266 -4.04134,-2.52266 -4.332,-2.484 -9.39333,-3.17867 -13.02666,-6.64 -1.81467,-2.04267 -5.49467,-5.48 -7.70934,-7.36267 0,0 0.50267,1.28267 1.00534,2.56533 -2.22,-1.924 -4.34534,-3.90533 -5.68267,-6.47466 0,0 -2.964,-5.86 -2.964,-5.86 0.10533,1.472 0.37333,4.11733 0.648,6.5 -1.42667,-2.512 -2.264,-5.50533 -3.81867,-8.04533 l -3.14933,-5.236 c 0,0 1.08933,6.00666 1.08933,6.00666 0.056,0.312 0.076,0.63867 0.104,0.96134 -1.45466,-4.08 -3.15066,-7.956 -4.03333,-12.14934 -0.38933,0.696 -0.86667,1.52 -1.21867,2.37067 0.204,-0.492 -1.48933,-4.13867 -1.76,-4.78667 -0.51333,-1.22666 -1.02533,-2.36133 -1.48533,-3.628 0.484,1.23734 0.132,2.31334 0.16667,3.53734 0.0347,1.184 0.50266,2.412 0.896,3.524 0.468,1.32 1.04,2.60266 1.64133,3.86666 0.37467,0.78667 1.788,2.64 1.732,3.47467 0.0387,-0.58133 -0.007,-1.308 -0.0347,-2.06533 1.252,3.88533 2.83334,7.58266 3.63867,11.408 0,0 0.92,4.35999 0.91867,4.35999 0.50133,-2.02266 1.14266,-4.14399 1.50533,-6.29199 1.132,2.80933 2.28267,5.66266 4.796,7.69466 0,0 2.07067,1.66 2.07067,1.66 0.008,-0.64933 -0.024,-1.35867 -0.0773,-2.08267 2.80667,3.16267 6.34134,5.66267 9.21067,8.72134 -0.0187,-0.424 -0.024,-0.90134 -0.0333,-1.4 0.21733,0.228 0.43333,0.456 0.66533,0.68266 2.62133,2.47734 5.86533,3.872 9.13333,5.12134 0.608,0.22666 1.2,0.452 1.77734,0.68533 0.30266,0.42133 0.63066,0.87867 0.63066,0.87867 2.26134,3.13066 5.90534,4.68133 9.41067,5.69466 2.392,0.556 5.37733,1.61867 8.08,2.144 0.004,0.007 0.0427,0.0653 0.0427,0.0653 0.63333,0.96933 1.416,1.404 2.09466,1.74666 2.736,1.2 5.77867,1.74267 8.76534,2.16 -0.0573,0.0707 -0.19734,0.24534 -0.19734,0.24534 0,0 1.57334,0.84266 1.57334,0.84266 5.51866,2.99067 11.85466,2.08667 17.72666,2.23067 0.016,0.31733 0.028,0.56267 0.028,0.56267 3.55734,2.6 7.96134,0.24266 11.44,-1.29467 0.36,0.39067 0.688,0.74667 0.688,0.74667 3.02134,-0.23867 4.77867,-2.77067 6.18534,-5.26134 0.2,0.61867 0.38133,1.18667 0.49733,1.54934 1.17067,-2.604 2.816,-5.17867 3.75333,-7.98 0.34134,-0.86934 0.47867,-1.832 0.60667,-2.768 0.488,0.0187 0.87333,0.0333 0.87333,0.0333 0.23467,-1.96133 1.17067,-4.05333 1.72667,-6.47333 l 0.68133,-3.36134 c 0.18134,-0.80666 0.39734,-1.57866 0.68267,-2.25066 0.54533,-0.0627 0.98667,-0.11334 0.98667,-0.11334 -0.248,0.0293 0.56666,-3.88133 0.67199,-4.20133 0.41867,-1.26 0.83734,-2.72933 1.72934,-3.72933 0.0533,0.272 0.036,0.588 0.164,0.81067 1.71866,-2.808 3.07333,-5.81734 4.364,-8.84 0.64933,-1.52134 1.28133,-3.04934 1.93733,-4.56667 0.32667,-0.756 0.65867,-1.50933 1.00133,-2.25867 0.132,-0.28666 0.28667,-0.91333 0.52134,-1.11733 0.34266,-0.3 0.32933,-0.192 0.73333,0.136 0.056,0.0453 0.124,0.0933 0.192,0.072 0.0547,-0.016 0.0867,-0.072 0.11333,-0.12267 1.452,-2.74266 2.27067,-5.872 2.268,-8.98133 -10e-4,-0.65333 -0.1,-1.58267 0.12,-2.172 0.35334,0.44933 0.632,1.21867 0.68,1.784 -0.0147,-0.168 0.42667,-0.76133 0.48534,-0.988 0.12,-0.464 0.132,-0.98267 0.192,-1.45867 0.132,-1.03733 0.248,-2.07733 0.34,-3.11866 0.18533,-2.12934 0.26666,-4.27067 0.156,-6.40667 -0.11734,-2.24667 -0.44934,-4.49067 -1.07734,-6.65333 -0.324,-1.11067 -0.78933,-2.14134 -1.2,-3.21734 -0.404,-1.06133 -0.66266,-2.21866 -0.972,-3.32266 0.67734,0.404 1.42267,0.84666 1.42267,0.84666 l -1.244,-4.07333 c -1.40933,-4.852 -0.468,-10.29333 2.03867,-14.832 0.94133,-1.704 1.62533,-3.48533 2.14666,-5.36 0.248,-0.892 0.39734,-1.83067 0.74934,-2.676 0.32533,-0.78267 0.55866,-1.54 0.66133,-2.388 -0.37867,0.32 -0.86267,0.53867 -1.212,0.876 0.65067,-1.38533 1.976,-2.58667 1.86267,-4.276 -0.36534,0.468 -0.85734,0.82667 -1.20267,1.316 0.13467,-1.31467 0.34,-2.584 0.22933,-3.94933 -0.35866,0.592 -0.74,1.22 -1.14533,1.812 0.29467,-1.92267 1.82667,-3.52267 1.71333,-5.564 -0.23866,0.49333 -0.51733,1.00933 -0.908,1.36533 -0.0293,-0.448 0.11334,-1.14133 -0.084,-1.536 0.0307,0.0613 -0.56133,0.396 -0.63466,0.41467 -0.43867,0.11466 -0.33734,0.12133 -0.568,-0.16 -0.23067,-0.28 -0.29867,-0.93334 -0.41334,-1.29067 -0.0187,-0.88 -0.0347,-1.764 -0.052,-2.66 -0.33066,-4.40533 0.30667,-8.834669 -0.31333,-13.296002 -0.84933,-6.684 -3.25467,-13.072 -6.10133,-19.138666 -1.46267,-3.114667 -2.96267,-6.212 -4.53467,-9.273333 -1.22,-2.373334 -2.74133,-5.578667 -5.3,-6.830667 0.24934,0.644 0.51334,1.648 0.51467,2.353334 -3.02533,-2.970667 -5.45067,-6.702667 -8.256,-9.901334 -1.172,-1.334666 -2.51733,-2.618666 -3.58667,-3.994666 -1.068,-1.376 -2.41866,-2.262667 -3.7,-3.418667 -1.02666,-0.926666 -2.09066,-1.896 -3.00933,-2.914666 -0.0187,0.972 0.81067,2.145333 0.95733,3.157333 -0.076,-0.528 -1.72933,-1.708 -2.168,-2.114667 -0.87333,-0.808 -1.772,-1.588 -2.70933,-2.32 -1.84267,-1.44 -3.85867,-2.677333 -5.796,-3.988 -0.68667,-0.464 -1.376,-0.924 -2.068,-1.379999 -0.29333,-0.193334 -2.048,-1.058667 -2.08533,-1.353334 0.0787,0.632 0.15733,1.262667 0.236,1.894667"
       style="fill:#000000;fill-opacity:1;fill-rule:nonzero;stroke:none;stroke-width:1.33333"
       id="path3960" />
    <path
       d="m 223.77479,68.183875 c -0.24266,-1.654667 -0.948,-3.2 -2.22266,-4.454667 -4.42667,-4.354666 -10.864,-5.873333 -15.532,-9.895999 0.21333,0.424 0.272,1.116 0.52133,1.594666 -0.0667,-0.129333 -1.68,-0.330666 -1.91333,-0.401333 -0.74267,-0.224 -1.464,-0.518667 -2.168,-0.846667 -1.42667,-0.664 -2.78,-1.477333 -4.08533,-2.353333 -5.79467,-3.881333 -11.344,-8.622666 -13.82934,-15.34 -1.44,1.858667 -0.96,5.128 -1.11733,7.352 -0.35467,-0.190666 -0.896,-0.992 -1.28,-0.749333 -1.06667,0.676 -0.94133,4.090666 -1.00933,5.192 -0.156,2.498666 0.29733,4.956 0.284,7.444 -0.29467,-0.229334 -0.428,-0.617334 -0.612,-0.950667 -0.916,0.748 -0.80267,3.389333 -0.83867,4.545333 -0.0547,1.701333 0.16,3.216 0.57067,4.853333 0.608,2.416 2.084,4.538667 2.73733,6.825334 -0.468,-0.05733 -0.88133,-0.409334 -1.368,-0.452 -0.292,2.574666 1.34,5.369333 2.72133,7.401333 1.03067,1.516 2.884,3.013333 3.588,4.698666 -0.66,0.04 -1.31333,-0.628 -1.908,-0.837333 -0.17466,2.026667 2.92534,4.877333 4.144,6.125333 1.83467,1.877333 4.376,3.336 6.02,5.361333 -0.464,0.06267 -0.96933,-0.04533 -1.31466,-0.345333 0.68266,0.593333 1,1.577333 1.648,2.24 1.28266,1.310667 2.89733,2.222667 4.39199,3.261333 1.376,0.956 3.05867,1.898666 4.13734,3.201336 0.836,1.00933 1.40133,2.32933 2.55333,3.044 0.67733,-1.752 2.46667,1.56133 2.716,2.172 0.0467,-0.45867 0.29467,-0.88 0.21733,-1.34934 0.72534,0.94667 1.35734,1.87467 1.556,2.916 -1.14133,-8.03333 -1.37333,-18.169329 2.89067,-25.425329 1.07467,-1.828 2.824,-2.694666 4.336,-4.109333 2.91867,-2.732 4.712,-6.998666 4.16533,-10.717333"
       style="fill:#cd976d;fill-opacity:1;fill-rule:nonzero;stroke:none;stroke-width:1.33333"
       id="path3964" />
    <path
       d="m 216.58493,59.221875 c -1.776,-1.057333 -3.62134,-2.002666 -5.376,-3.096 -1.25867,-0.784 -2.588,-1.636 -3.93734,-2.336 -0.72533,-0.376 -1.50933,-0.633333 -2.23066,-1.002666 -0.58667,-0.301334 -0.952,-0.901334 -1.55067,-1.176 -0.17867,0.488 0.084,1.014666 0.11867,1.508 -0.73334,0.141333 -1.16934,-0.312 -1.764,-0.637334 -0.88934,-0.486666 -1.752,-1.02 -2.59467,-1.585333 -1.68266,-1.129333 -3.28,-2.381333 -4.85333,-3.657333 -4.432,-3.5 -7.788,-8.142667 -9.436,-13.528 l -1.49467,1.94 c -1.308,1.718667 -1.36266,3.952 -1.372,6.032 -0.27733,0.04133 -0.56933,0.142667 -0.72,0.262667 -1.00133,0.705333 -1.29733,2.04 -1.39333,2.753333 -0.44267,3.018666 -0.20667,6.1 -0.0613,8.984 -1.51067,1.476 -1.232,3.361333 -1.34,5.142666 -0.364,3.646667 1.03466,7.009333 2.41866,10.254667 -0.17733,-0.01733 -0.31066,-0.02933 -0.31066,-0.02933 -0.764,3.874667 1.07866,7.338667 3.29466,10.294667 0.204,0.26 0.672,0.582666 0.63467,0.958666 -0.0133,0.144 -0.436,0.678667 -0.46667,0.44 0.448,3.518667 3.29334,5.853334 5.57334,8.289333 1.76,1.669334 3.66933,2.845334 5.14533,4.254667 0,0 -0.424,0.489333 -0.424,0.489333 0.316,0.229334 0.63867,0.842667 1.136,1.545334 1.55733,1.909333 3.63867,2.833333 5.52666,4.148 1.24934,0.797328 2.47734,1.511998 3.39334,2.442658 0.612,0.62267 1.032,1.38934 1.58,2.06134 0.58933,0.72133 1.31466,1.26533 1.68666,2.14133 0.28267,-0.368 0.464,-0.90267 0.604,-1.36267 -0.18,0.588 1.96267,2.74 2.256,3.372 0.368,-0.36133 0.22134,-1.20666 0.30667,-1.69733 0.70667,0.53067 1.36667,1.37067 1.804,2.11867 -0.33067,-1.08534 -0.48933,-2.00534 -1.13067,-2.96134 -0.55066,-0.82133 -1.85333,-1.92533 -2.09466,-2.88 0,0 0.256,1.00934 0.47333,1.868 -0.26267,-0.32533 -0.55867,-0.636 -0.96533,-0.91066 -0.35734,-0.228 -0.80534,-0.17067 -1.17867,0.0533 -0.72667,-0.712 -1.24133,-1.83467 -2.16667,-2.89467 -1.09466,-1.203992 -2.40133,-2.011992 -3.568,-2.838658 -1.55733,-1.18 -3.45466,-2.217334 -4.65199,-3.656 0.556,-0.06 1.18533,-0.126667 1.18533,-0.126667 -2.77867,-3.968 -6.91333,-6.224 -9.65867,-9.777333 -0.108,-0.129333 -0.22666,-0.286667 -0.34533,-0.444 0.55733,-0.01467 1.62133,-0.04267 1.62133,-0.04267 0,0 -0.796,-1.809333 -0.796,-1.809333 -0.89333,-1.973333 -2.18666,-2.982667 -3.356,-4.466667 -1.08533,-1.466666 -2.284,-3.448 -2.70133,-5.254666 0.56933,0.07867 1.788,0.248 1.788,0.248 -0.62133,-2.821333 -2.06267,-5.450667 -3.052,-7.982667 -0.716,-2.210666 -0.91733,-4.742666 -0.68267,-7.126666 l 1.372,1.078667 c 0,0 0,-2.890667 0,-2.890667 -0.0453,-3.7 -0.68666,-7.328 -0.0387,-10.670666 l 1.884,1.112 c 0,0 0.12933,-2.24 0.12933,-2.24 0.0907,-1.162667 0.004,-2.416 0.0533,-3.598667 3.228,5.702667 8.596,9.965333 14.12534,13.370666 1.22799,0.773334 2.55199,1.406667 3.90933,1.918667 0.9,0.34 2.48933,0.734667 3.432,0.526667 0.009,-0.152 -0.0173,-0.354667 -0.108,-0.486667 0.29866,0.434667 1.848,0.922667 2.36133,1.222667 3.292,1.921333 6.89467,3.285333 10.05867,5.427999 2.496,1.688 4.728,3.962667 5.67733,6.821334 0.44667,-0.496 0.612,-1.197334 0.58933,-1.865334 -0.0227,-0.668 -0.21466,-1.317333 -0.40533,-1.957333 -0.128,0.242667 -0.25733,0.485333 -0.38533,0.728 -1.46934,-2.536 -3.80134,-4.464 -6.26934,-6.044 -0.41466,-0.266666 -0.83466,-0.524 -1.25866,-0.776"
       style="fill:#000000;fill-opacity:1;fill-rule:nonzero;stroke:none;stroke-width:1.33333"
       id="path3968" />
    <path
       d="m 208.39586,66.900675 c -6.35867,-3.793333 -12.976,-8.022666 -18.792,-12.633333 -2.084,-1.652 -3.428,-3.704 -5.12266,-5.621333 0.003,2.641333 -0.284,5.044 0.108,7.68 0.34,2.277333 1.51866,4.827999 1.38266,7.126666 -0.94666,0.144 -1.05866,-0.825333 -1.88266,-0.956 -0.64667,4.88 4.336,7.428 5.11066,11.593333 -3.06,-0.665333 0.768,4.253333 1.27467,4.996 1.50267,2.198667 2.87733,4.541333 4.15067,6.910667 -0.36267,-0.05733 -0.82534,0.09733 -1.192,0.04267 0.72,2.985333 4.79733,4.976 6.65866,7.285333 2.69467,3.346667 5.16667,7.127992 8.604,9.789332 1.08267,0.83866 2.192,1.83466 3.36133,2.69066 -0.812,-7.527992 -0.59466,-16.309325 3.216,-22.794658 1.07467,-1.828 2.824,-2.694667 4.336,-4.109333 0.0973,-0.09067 0.18267,-0.197334 0.27734,-0.290667 -1.19467,-2.058667 -2.97067,-4.104 -4.08667,-5.426666 -2.1,-2.490667 -4.64667,-4.637334 -7.404,-6.282667"
       style="opacity:0.199997;fill:#000000;fill-opacity:1;fill-rule:nonzero;stroke:none;stroke-width:1.33333"
       id="path3978" />
    <path
       d="m 295.79906,167.33534 c 0.496,1.24 9.66267,5.27067 15.81067,5.27067 6.14933,0 18.22666,-1.31734 18.66533,-3.51334 0.44,-2.196 -0.21867,-5.49066 -0.65867,-7.24666 0,0 0.65867,3.07333 -2.63466,4.61066 -3.29334,1.53734 -5.92934,-1.09733 -10.32134,-1.09733 -4.392,0 -9.00266,1.976 -12.07733,1.53733 -3.07467,-0.44 -7.32667,-0.72266 -7.50667,-3.216 0,0 -1.716,2.55734 -1.27733,3.65467"
       style="opacity:0.300003;fill:#000000;fill-opacity:1;fill-rule:nonzero;stroke:none;stroke-width:1.33333"
       id="path3994" />
    <path
       d="m 281.74493,185.34227 c 4.49733,3.72134 14.34266,2.708 19.876,1.97867 2.98666,-0.39333 6.03866,-1.22533 9.16,-0.70933 2.888,0.476 5.656,1.66 8.73466,1.804 3.73067,0.176 7.21067,-0.012 10.556,-1.45467 -0.33866,3.88133 -4.52,5.61867 -6.17466,8.868 0.73733,-3.544 -5.30267,-3.852 -7.676,-4.11867 -3.49334,-0.392 -7.04267,-1.37333 -10.7,-1.708 -4.02,-0.36666 -7.70934,0.43067 -11.588,0.82934 -3.13734,0.32266 -7.11334,1.53066 -10.212,1.09733 -3.196,-0.44667 -6.016,-4.16533 -5.67734,-7.43067 1.676,0.15334 2.928,1.11867 3.70134,0.844"
       style="fill:#000000;fill-opacity:1;fill-rule:nonzero;stroke:none;stroke-width:1.33333"
       id="path4004" />
    <path
       d="m 319.05946,198.12267 c -0.43867,1.88533 -2.72933,3.528 -4.56133,3.672 0.0507,-0.67867 -0.11467,-1.40533 -0.0173,-2.096 -2.544,1.456 -5.70533,2.528 -8.552,2.98667 0.0533,-0.98267 0.32,-1.98934 0.15734,-2.992 -1.82267,0.948 -3.544,2.63466 -5.412,3.21066 0.0333,-0.51733 -0.30267,-1.00666 -0.292,-1.50666 -1.188,0.18933 -2.38934,1.91866 -3.08,0.21866 -1.46134,0.33334 -2.28134,1.38134 -3.71067,1.232 -1.11067,-0.116 -2.46,-1.148 -3.37467,-1.72133 -1.208,-0.75733 -2.22,-2.02666 -3.64133,-0.824 -1.29867,-0.82666 -2.28667,-2.36266 -3.69467,-3.14133 1.71467,0.948 7.04934,-0.86 9.18267,-0.992 3.184,-0.19733 6.296,-0.448 9.492,-0.29467 1.23467,0.0587 18.00533,0.0933 17.504,2.248"
       style="opacity:0.199997;fill:#000000;fill-opacity:1;fill-rule:nonzero;stroke:none;stroke-width:1.33333"
       id="path4014" />
    <path
       d="m 280.42733,188.85574 c -7.65867,-5.00267 -1.67467,-17.25733 5.40133,-20.00533 -1.96667,3.25066 -3.072,6.35733 -2.49867,10.184 0.27467,1.83466 0.45467,3.55733 1.42934,5.21066 0.808,1.372 2.256,2.60934 1.99733,4.35334 -1.26667,1.09066 -3.984,1.444 -6.32933,0.25733"
       style="opacity:0.199997;fill:#000000;fill-opacity:1;fill-rule:nonzero;stroke:none;stroke-width:1.33333"
       id="path4030" />
    <path
       d="m 333.74572,185.27521 c -1.62399,4.70266 -6.69466,5.644 -9.35466,9.43866 -0.0693,-2.832 3.38667,-6.02266 4.51867,-8.55333 1.40666,-3.14667 1.61466,-5.98 1.85066,-9.35867 2.92667,1.89334 4.12267,5.18 2.98533,8.47334"
       style="opacity:0.199997;fill:#000000;fill-opacity:1;fill-rule:nonzero;stroke:none;stroke-width:1.33333"
       id="path4046" />
    <path
       d="m 293.91866,141.28721 c -3.75867,1.98666 -8.98267,4.12666 -21.24133,-5.51734 -2.26534,-1.78266 -3.07334,-4.39333 -3.248,-5.06 8.156,-0.66266 19.836,0.82534 22.692,2.668 3.75866,2.42534 5.556,5.92267 1.79733,7.90934 m 9.804,-0.948 c -1.568,-0.64534 -3.396,-2.076 -4.36933,-3.45067 -2.14267,-3.02267 0.42266,-4.76933 2.52266,-6.6 -3.568,2.096 -12.16133,-2.76667 -17.16,-4.06533 -7.60533,-1.976 -16.45066,0.54 -16.45066,0.54 0,0 15.48,-0.83334 21.31333,3.16666 -5.28,-1.00933 -12.45467,-1.684 -18.79867,-1.01333 -2.11466,0.22267 -3.752,0.76933 -4.63866,1.712 0,0 0.50133,0.007 1.35333,0.0267 0.228,0.856 2.384,7.61733 14.66533,12.848 8.46534,3.60533 12.73867,-0.22 14.536,-1.788 1.79734,-1.568 3.432,-2.324 5.392,-0.61867 1.96134,1.70533 4.24934,0.31867 1.63467,-0.75733"
       style="fill:#000000;fill-opacity:1;fill-rule:nonzero;stroke:none;stroke-width:1.33333"
       id="path4056" />
    <path
       d="m 343.45239,136.88574 c -0.13067,2.70933 -2.48533,5.688 -7.19467,4.476 -4.71066,-1.212 -10.72799,-2.15867 -12.16666,-2.04 -0.95467,0.08 -1.95733,-1.11867 -2.53067,-1.88267 2.55867,-2.912 8.144,-6.19466 14.30133,-6.79466 2.71867,-0.26534 4.728,-0.332 6.17734,-0.31467 0.496,1.52133 1.50666,4.63333 1.41333,6.556"
       style="fill:#ffffff;fill-opacity:1;fill-rule:nonzero;stroke:none;stroke-width:1.33333"
       id="path4064" />
    <path
       d="m 325.93226,133.60507 c 0,0 -1.00533,3.43734 0.37733,5.63734 0,0 7.91467,2.03466 9.92533,2.69866 2.00934,0.664 6.02934,-0.0173 6.784,-1.30666 0.75334,-1.29067 0.50267,-9.948 -0.252,-10.79334 -0.75333,-0.84666 -6.156,-0.22933 -10.42666,1.21734 -4.272,1.44666 -6.408,2.54666 -6.408,2.54666"
       style="fill:#000000;fill-opacity:1;fill-rule:nonzero;stroke:none;stroke-width:1.33333"
       id="path4068" />
    <path
       d="m 327.99133,133.51334 c 0,0 -1.02,4.23867 0.19066,6.44533 0,0 7.072,1.272 8.832,1.948 1.76133,0.67467 5.28133,0.016 5.94267,-1.27066 0.66,-1.28534 0.44,-9.944 -0.22,-10.79467 -0.66134,-0.84933 -5.392,-0.26267 -9.13334,1.16133 -3.74133,1.42267 -5.61199,2.51067 -5.61199,2.51067"
       style="fill:#fbb03b;fill-opacity:1;fill-rule:nonzero;stroke:none;stroke-width:1.33333"
       id="path4072" />
    <path
       d="m 335.23799,136.57907 c -1.16533,3.216 -0.41867,5.60534 1.40933,5.89734 1.828,0.292 3.52,-2.20667 3.78,-5.58 0.25867,-3.37467 -1.012,-6.34667 -2.84,-6.63867 -1.828,-0.29333 -1.184,3.10533 -2.34933,6.32133"
       style="fill:#000000;fill-opacity:1;fill-rule:nonzero;stroke:none;stroke-width:1.33333"
       id="path4076" />
    <path
       d="m 342.39026,136.76721 c -0.12534,2.392 -1.86667,5.10533 -6.46134,4.39733 -7.12533,-1.096 -10.12266,-2.27333 -11.50399,-2.16933 -0.91734,0.0693 -1.87867,-1.01867 -2.42934,-1.692 2.456,-2.58 7.82,-5.50667 13.73333,-6.064 1.24534,-0.11734 2.492,-0.21067 3.74134,-0.26134 0.504,-0.0213 0.95066,-0.15733 1.40666,0.0933 1.75734,0.964 1.60267,3.988 1.51334,5.696 m 3.11733,-6.69467 1.78133,-2.40267 c 0,0 -11.70266,0.78934 -15.18399,1.74667 -3.48134,0.95733 -8.56,4.42 -9.94134,5.48667 -1.152,0.88933 -1.94933,3.936 -1.45866,3.86666 0.072,0.57067 0.336,1.256 0.956,2.06667 2.136,2.79733 2.512,1.296 2.136,0.0333 -0.37734,-1.26266 6.468,0.332 11.68399,1.69067 4.06267,1.05733 8.16534,-0.124 8.79334,-2.62667 0.62933,-2.50266 1.544,-8.63066 2.03733,-9.42 0.14267,-0.228 -0.22267,-0.36266 -0.804,-0.44133"
       style="fill:#000000;fill-opacity:1;fill-rule:nonzero;stroke:none;stroke-width:1.33333"
       id="path4080" />
    <path
       d="m 323.16826,134.74947 c 0,0 3.58,-5.48933 10.292,-7.568 6.712,-2.07866 12.56266,-2.564 12.56266,-2.564 l -0.484,2.06934 c 0,0 -9.46,1.03866 -11.82,1.99466 -2.35999,0.956 -10.55066,6.068 -10.55066,6.068"
       style="fill:#000000;fill-opacity:1;fill-rule:nonzero;stroke:none;stroke-width:1.33333"
       id="path4084" />
    <path
       d="m 336.59746,134.23267 c 0,1.02667 -0.82534,1.88534 -1.84267,1.91734 -1.01867,0.0333 -1.844,-0.77334 -1.844,-1.8 0,-1.028 0.82533,-1.88667 1.844,-1.91867 1.01733,-0.032 1.84267,0.77467 1.84267,1.80133"
       style="fill:#ffffff;fill-opacity:1;fill-rule:nonzero;stroke:none;stroke-width:1.33333"
       id="path4088" />
    <path
       d="m 319.14799,135.41454 c -0.60533,-2.22267 -1.112,-4.272 -2.12266,-6.26 1.03733,-0.21067 1.536,-0.10267 2.37333,0.112 0.452,0.116 0.708,0.332 1.228,0.332 1.088,-0.001 2.27067,-0.77333 3.17467,-1.32933 1.556,-0.95867 2.1,-2.66667 3.712,-3.696 4.08533,-2.608 8.59466,-4.07867 13.09866,-5.676 -0.076,0.472 -0.268,0.91333 -0.59333,1.27866 2.272,-0.40933 3.896,-1.45866 5.61866,-2.97866 -0.16666,0.85333 -0.58533,1.93333 -0.97333,2.73733 1.01067,-0.24 1.75067,-0.99867 2.636,-1.56133 -0.0387,1.652 0.99867,4.54533 0.216,6.04133 -0.77867,1.488 -3.71067,1.588 -5.088,1.672 -4.05333,0.24667 -7.62,0.52533 -11.19066,2.788 -2.592,1.64133 -4.95867,3.94667 -7.31467,5.86 -0.812,0.65867 -1.90533,1.41333 -2.108,2.47333 -0.14,0.728 0.508,2.87467 0.91333,3.31467 1.97334,2.14 6.788,1.43867 9.43734,2.59067 1.70533,0.74133 3.41333,1.524 5.32399,1.624 1.10934,0.0587 3.39067,-0.54534 3.64134,1.02533 0.13066,0.812 -0.93467,2.376 -1.50667,2.9 -1.744,1.6 -4.73733,0.684 -6.66533,0.20133 -3.34933,-0.83733 -6.52133,-1.95866 -10.016,-1.94666 -0.85733,-1.77734 -1.44667,-3.65334 -2.252,-5.42267 -0.74667,-1.636 -1.552,-3.03333 -1.54267,-4.94933"
       style="opacity:0.199997;fill:#000000;fill-opacity:1;fill-rule:nonzero;stroke:none;stroke-width:1.33333"
       id="path4098" />
    <path
       d="m 288.62319,172.67187 c -1.16533,0.71067 -2.31466,0.0653 -3.516,0.0213 -17.44933,-0.41067 -35.47466,0.34133 -51.944,6.652 -0.0613,0.0307 -0.10933,-0.072 -0.044,-0.1 16.31467,-6.996 34.49334,-7.88267 52.024,-7.504 1.20667,0.048 2.436,-0.488 3.52134,0.372 0.172,0.14933 0.15066,0.436 -0.0413,0.55866"
       style="fill:#cccccc;fill-opacity:1;fill-rule:nonzero;stroke:none;stroke-width:1.33333"
       id="path4108" />
    <path
       d="m 289.16306,177.89187 c -0.58533,0.38267 -1.10133,0.25334 -1.628,0.18134 -7.86133,-1.34667 -16.03333,-0.85467 -23.93467,0.0267 -8.45466,1.092 -16.86533,3.432 -24.04933,8.16534 -0.0533,0.0427 -0.12133,-0.0493 -0.0627,-0.0893 13.424,-9.39333 30.68267,-10.59466 46.564,-9.39466 1.104,0.10266 2.272,-0.36267 3.19334,0.55733 0.152,0.16667 0.11066,0.43867 -0.0827,0.55333"
       style="fill:#cccccc;fill-opacity:1;fill-rule:nonzero;stroke:none;stroke-width:1.33333"
       id="path4112" />
    <path
       d="m 288.64653,182.42427 c -0.47334,0.40134 -0.87734,0.288 -1.29734,0.23734 -6.25466,-1.05467 -12.79333,-0.25734 -19.04133,0.66933 -6.74267,1.06 -13.34533,2.92533 -19.64267,5.57867 -0.06,0.0307 -0.11066,-0.0707 -0.0453,-0.0987 11.628,-5.596 24.66,-8.16133 37.548,-7.38667 0.89867,0.0493 1.84933,-0.436 2.56267,0.44667 0.12933,0.17733 0.088,0.424 -0.084,0.55333"
       style="fill:#cccccc;fill-opacity:1;fill-rule:nonzero;stroke:none;stroke-width:1.33333"
       id="path4116" />
    <path
       d="m 298.32239,173.46907 c -1.16533,0.71067 -2.31466,0.0653 -3.516,0.0213 -17.44933,-0.41067 -35.47466,0.34133 -51.944,6.652 -0.0613,0.0307 -0.10933,-0.072 -0.044,-0.1 16.31467,-6.996 34.49334,-7.88267 52.024,-7.504 1.20667,0.048 2.436,-0.488 3.52134,0.372 0.172,0.14933 0.15066,0.436 -0.0413,0.55866"
       style="fill:#cccccc;fill-opacity:1;fill-rule:nonzero;stroke:none;stroke-width:1.33333"
       id="path4120" />
    <path
       d="m 298.86226,178.68907 c -0.58533,0.38267 -1.10133,0.25334 -1.628,0.18134 -7.86133,-1.34667 -16.03333,-0.85467 -23.93467,0.0267 -8.45466,1.092 -16.86533,3.432 -24.04933,8.16534 -0.0533,0.0427 -0.12133,-0.0493 -0.0627,-0.0893 13.424,-9.39333 30.68267,-10.59466 46.564,-9.39466 1.104,0.10266 2.272,-0.36267 3.19334,0.55733 0.152,0.16533 0.11066,0.43867 -0.0827,0.55333"
       style="fill:#cccccc;fill-opacity:1;fill-rule:nonzero;stroke:none;stroke-width:1.33333"
       id="path4124" />
    <path
       d="m 298.34573,183.22147 c -0.47334,0.40134 -0.87734,0.288 -1.29734,0.23734 -6.25466,-1.05467 -12.79333,-0.25734 -19.04133,0.66933 -6.74267,1.06 -13.34533,2.92533 -19.64267,5.57867 -0.06,0.0307 -0.11066,-0.0707 -0.0453,-0.0987 11.628,-5.596 24.66,-8.16133 37.548,-7.38667 0.89867,0.0493 1.84933,-0.436 2.56267,0.44667 0.12933,0.17733 0.088,0.424 -0.084,0.55333"
       style="fill:#cccccc;fill-opacity:1;fill-rule:nonzero;stroke:none;stroke-width:1.33333"
       id="path4128" />
    <path
       d="m 329.84786,175.76601 c 0.67733,-0.84534 1.54667,-0.32667 2.388,-0.36667 11.79466,-0.36 24.73333,0.276 34.58533,7.50533 0.0547,0.04 -0.009,0.12934 -0.0653,0.0867 -5.27334,-3.63333 -11.60534,-5.15333 -17.856,-6.008 -5.85334,-0.70133 -11.944,-1.25067 -17.78533,-0.376 -0.392,0.044 -0.77867,0.13733 -1.21067,-0.284 -0.15867,-0.14533 -0.18,-0.388 -0.056,-0.55733"
       style="fill:#cccccc;fill-opacity:1;fill-rule:nonzero;stroke:none;stroke-width:1.33333"
       id="path4132" />
    <path
       d="m 327.98079,180.99267 c 0.28534,-0.52533 0.668,-0.51866 1.03867,-0.564 11.02133,-0.98666 24.45333,-0.624 31.432,9.41334 0.0413,0.0547 -0.048,0.12 -0.0893,0.0627 -3.61733,-4.70133 -9.184,-7.21733 -14.89733,-8.228 -5.29867,-0.89066 -11,-1.21333 -16.24266,0.0573 -0.35334,0.0733 -0.696,0.192 -1.13067,-0.192 -0.16533,-0.13467 -0.21067,-0.368 -0.11067,-0.54934"
       style="fill:#cccccc;fill-opacity:1;fill-rule:nonzero;stroke:none;stroke-width:1.33333"
       id="path4136" />
    <path
       d="m 327.08586,185.52507 c 0.21467,-0.508 0.52933,-0.49333 0.824,-0.51466 4.376,-0.0427 8.83066,-0.18 13.10933,1.03733 4.52933,1.156 8.72,3.46267 12.30933,6.42133 0.052,0.0413 -0.0107,0.12934 -0.068,0.0853 -5.57066,-4.07067 -12.35866,-6.296 -19.22266,-6.66267 -1.97067,0.009 -4.08,-0.24667 -5.94933,0.428 -0.28,0.048 -0.53734,0.15867 -0.89067,-0.24667 -0.14667,-0.14533 -0.192,-0.36666 -0.112,-0.548"
       style="fill:#cccccc;fill-opacity:1;fill-rule:nonzero;stroke:none;stroke-width:1.33333"
       id="path4140" />
    <path
       d="m 322.93053,175.76601 c 0.67733,-0.84534 1.54666,-0.32667 2.388,-0.36667 11.79466,-0.36 24.73333,0.276 34.58533,7.50533 0.0547,0.04 -0.009,0.12934 -0.0653,0.0867 -5.27333,-3.63333 -11.60533,-5.15333 -17.856,-6.008 -5.85333,-0.70133 -11.94399,-1.25067 -17.78533,-0.376 -0.392,0.044 -0.77866,0.13733 -1.21066,-0.284 -0.15867,-0.14533 -0.18,-0.388 -0.056,-0.55733"
       style="fill:#cccccc;fill-opacity:1;fill-rule:nonzero;stroke:none;stroke-width:1.33333"
       id="path4144" />
    <path
       d="m 323.14973,180.44361 c 0.28533,-0.52534 0.668,-0.51867 1.03866,-0.564 11.02133,-0.98667 24.452,-0.624 31.432,9.41333 0.0413,0.0547 -0.048,0.12 -0.0893,0.0627 -3.61734,-4.70134 -9.184,-7.21734 -14.89734,-8.228 -5.29866,-0.89067 -10.99999,-1.21334 -16.24266,0.0573 -0.35333,0.0733 -0.696,0.192 -1.13067,-0.192 -0.16533,-0.13467 -0.21066,-0.368 -0.11066,-0.54933"
       style="fill:#cccccc;fill-opacity:1;fill-rule:nonzero;stroke:none;stroke-width:1.33333"
       id="path4148" />
    <path
       d="m 320.82733,185.08587 c 0.21466,-0.508 0.52933,-0.49333 0.824,-0.51466 4.376,-0.0427 8.83066,-0.18 13.10933,1.03733 4.52933,1.156 8.72,3.46267 12.30933,6.42133 0.052,0.0413 -0.0107,0.12934 -0.068,0.0853 -5.57067,-4.07067 -12.35867,-6.296 -19.22266,-6.66267 -1.97067,0.009 -4.08,-0.24667 -5.94934,0.428 -0.28,0.048 -0.53733,0.15867 -0.89066,-0.24667 -0.14667,-0.14533 -0.192,-0.36666 -0.112,-0.548"
       style="fill:#cccccc;fill-opacity:1;fill-rule:nonzero;stroke:none;stroke-width:1.33333"
       id="path4152" />
  </g>
</svg>
