<?xml version="1.0" encoding="UTF-8" standalone="no"?>
<!-- Created with Inkscape (http://www.inkscape.org/) -->

<svg
   version="1.1"
   id="svg1233"
   width="400"
   height="400"
   viewBox="0 0 400 400"
   sodipodi:docname="CatianHead2.svg"
   inkscape:version="1.2.2 (b0a8486, 2022-12-01)"
   xmlns:inkscape="http://www.inkscape.org/namespaces/inkscape"
   xmlns:sodipodi="http://sodipodi.sourceforge.net/DTD/sodipodi-0.dtd"
   xmlns="http://www.w3.org/2000/svg"
   xmlns:svg="http://www.w3.org/2000/svg">
  <defs
     id="defs1237" />
  <sodipodi:namedview
     id="namedview1235"
     pagecolor="#ffffff"
     bordercolor="#666666"
     borderopacity="1.0"
     inkscape:showpageshadow="2"
     inkscape:pageopacity="0.0"
     inkscape:pagecheckerboard="0"
     inkscape:deskcolor="#d1d1d1"
     showgrid="false"
     inkscape:zoom="1.475"
     inkscape:cx="190.16949"
     inkscape:cy="200"
     inkscape:window-width="1920"
     inkscape:window-height="1080"
     inkscape:window-x="2301"
     inkscape:window-y="203"
     inkscape:window-maximized="0"
     inkscape:current-layer="layer1">
    <inkscape:page
       x="0"
       y="0"
       id="page1239"
       width="400"
       height="400" />
  </sodipodi:namedview>
  <g
     inkscape:groupmode="layer"
     id="layer1"
     inkscape:label="Neck">
    <path
       d="m 273.53653,234.42014 c 4.93733,-8.96134 11.08666,-17.43334 10.21066,-34.60933 l -80.968,-64.97067 0.28,39.656 -2.24266,23.54133 c -4.036,12.36267 -9.948,19.86133 -7.46933,30.576 0.93333,4.032 3.83866,6.51733 7.06533,8.89733 5.50533,4.06 11.26666,7.916 17.376,11.048 4.96933,2.548 10.2,5.5 15.45466,7.24934 8.16,2.71733 18.64534,3.51066 27.16134,2.21466 2.70933,-0.41333 6.71866,-1.092 7.12266,-4.37066 0.3,-2.44267 -0.832,-4.36667 -0.144,-6.96134 0.65734,-2.47066 2.15867,-4.33333 3.29067,-6.708 0.89467,-1.87866 1.85333,-3.73066 2.86267,-5.56266"
       style="fill:#cd976d;fill-opacity:1;fill-rule:nonzero;stroke:none;stroke-width:1.33333"
       id="path1597" />
    <path
       d="m 283.74679,199.81027 c 0,0 -1.876,-1.50533 -1.876,-1.50533 -0.10666,-0.0853 -0.212,-0.16933 -0.31733,-0.25467 l -56.53733,-45.368 c -2.576,-2.06666 -5.152,-4.13333 -7.72934,-6.20133 -1.22533,-0.984 -2.476,-1.944 -3.704,-2.91867 -0.13333,-0.10666 -0.244,-0.23866 -0.37066,-0.352 l -10.43334,-8.37066 0.28,39.65733 -2.24266,23.54 c -4.036,12.36266 -9.948,19.86266 -7.46933,30.576 0.93333,4.03333 3.83866,6.51733 7.06666,8.89733 5.05333,3.72667 10.33467,7.25467 15.89067,10.23467 -0.048,-2.34667 -0.072,-4.71734 0.46666,-6.90934 0.956,-3.892 4.296,-6.716 5.376,-10.78133 1.316,3.57867 2.31067,6.15867 4.63334,9.20533 0.532,-1.836 0.50533,-4.05733 0.564,-5.968 -0.11867,3.856 4.52533,10.96 7.80266,12.768 -2.16933,-1.19733 0.26134,-14.59733 0.996,-16.3 0.24934,1.976 1.53867,4.99734 2.86934,6.37334 0.252,-1.78134 0.61466,-3.98134 1.58,-5.516 0.25333,0.38933 1.404,0.99466 1.69866,1.388 1.048,-1.308 2.03734,-2.69067 3.016,-4.05067 0.844,0.844 1.76934,1.90933 2.58934,2.86667 -0.83734,-0.97734 6.37466,-1.33067 6.88133,-1.22934 2.428,0.48534 4.816,1.372 7.292,1.85067 2.39867,0.46533 10.89467,2.94533 12.716,0.22667 0,0 0.844,-1.26 1.892,-2.82267 4.036,-7.26133 7.764,-15.40667 7.06933,-29.036"
       style="opacity:0.199997;fill:#000000;fill-opacity:1;fill-rule:nonzero;stroke:none;stroke-width:1.33333"
       id="path1607" />
    <path
       d="m 292.98639,209.7856 c -0.009,-0.004 -0.152,0.14267 -0.16133,0.15334 -4.86533,4.952 -8.33467,11.59866 -12.03867,17.21733 -0.896,1.36133 -1.19733,2.88267 -2.20266,4.20667 -0.14534,-0.29734 -0.29067,-0.59467 -0.436,-0.892 -1.66267,2.33733 -2.88267,4.79466 -3.98667,7.33733 l -1.07867,-0.564 c -0.90933,1.66133 -1.412,3.472 -1.45733,5.24267 -0.52933,0.008 -1.044,-0.11734 -1.47067,-0.36134 -0.48266,1.17467 -0.62,2.43334 -0.392,3.596 0.032,0.164 0.0707,0.33867 -10e-4,0.504 -0.18667,0.42934 -0.848,0.40667 -1.30133,0.29067 0.0693,0.436 0.63066,4.90133 1.67866,4.46133 -0.49866,0.19867 -1.028,0.29467 -1.54133,0.376 -0.04,1.30934 0.57067,2.37734 1.1,3.484 0.005,0.0107 -0.91467,0.0147 -1.01467,-0.007 -0.316,-0.068 -0.59733,-0.204 -0.83866,-0.38934 -0.54134,-0.416 -0.85067,-1.04266 -1.06,-1.664 -0.26534,-0.78933 -0.38,-1.63466 -0.436,-2.47866 -0.032,-0.46534 -0.028,-0.87867 -0.19067,-1.308 -0.16667,-0.43867 -0.388,-0.888 -0.39867,-1.37467 0.20534,0.0133 0.39067,0.164 0.596,0.0787 0.0533,-0.45334 -0.22533,-0.73467 -0.22933,-1.16267 -0.008,-0.772 0.28933,-1.58667 0.408,-2.35733 0.064,-0.41067 0.14533,-0.78 0.284,-1.17734 0.17467,-0.50266 0.24133,-1.07466 0.464,-1.54533 0.204,-0.012 0.27067,0.14533 0.38,0.26133 0.17333,-0.60533 0.47867,-1.46933 0.89733,-1.99866 0.24667,0.0333 0.29734,0.36133 0.444,0.512 -0.0627,-0.064 0.348,-1.18934 0.38267,-1.348 0.1,-0.45334 0.17067,-0.916 0.30667,-1.36534 0.224,-0.736 0.62666,-1.47066 0.99066,-2.168 0.29067,-0.55733 0.688,-1.09333 1.02134,-1.63333 0.328,-0.532 0.69733,-1.03333 1.01733,-1.572 0.19333,-0.32533 0.35467,-0.70667 0.592,-1.00933 0.0813,0.21066 0.24133,0.408 0.316,0.616 0.26267,-0.38134 0.36267,-0.85467 0.584,-1.25467 0.28533,-0.51733 0.50133,-1.06933 0.736,-1.60133 0.44933,-1.024 0.88933,-2.05334 1.46533,-3.036 2.47734,-4.232 4.96134,-8.46 7.448,-12.688 1.15734,-1.96934 2.316,-3.93734 3.476,-5.90534 0,0 5.64667,2.52267 5.648,2.524"
       style="fill:#000000;fill-opacity:1;fill-rule:nonzero;stroke:none;stroke-width:1.33333"
       id="path1665" />
    <path
       d="m 201.92706,154.77521 c 0,0 0.88,21.43733 -1.196,29.67866 0,0 1,-1.992 1.316,-3.16266 0,0 -1.85467,14.41866 -3,17.92133 0.12534,-0.38267 0.62534,-0.80933 0.84134,-1.09867 -0.3,1.15467 -0.45334,2.112 -0.28934,3.29733 1.53733,-0.86133 2.10667,-6.47599 2.26533,-8.60799 0.17467,-2.344 0.35334,-5.204 0.88534,-7.296 0.532,-2.092 0.708,-0.38267 1.03066,-4.99334 0.33334,-4.75066 0.616,-6.85733 0.73734,-8.56 0.12266,-1.70133 0.25333,-3.148 0.16666,-6.98933 -0.108,-4.68933 -0.21066,-6.65067 -0.21066,-6.65067 z"
       style="fill:#000000;fill-opacity:1;fill-rule:nonzero;stroke:none;stroke-width:1.33333"
       id="path1865" />
  </g>
  <g
     id="g1241"
     inkscape:groupmode="layer"
     inkscape:label="Head">
    <path
       d="m 333.77079,173.31281 c 3.40133,-1.212 6.60267,3.12533 8.49867,5.764 2.28933,3.18666 4.82,8.108 4.18266,12.47866 -0.87333,-0.468 -1.15333,-1.63066 -2.148,-1.96 0.0947,4.02267 1.976,7.94667 2.29734,12.01333 -0.75334,0.02 -1.268,-0.81066 -2.00134,-0.99066 -0.216,2.25866 0.83467,4.368 0.68534,6.60266 -1.13467,-0.53866 -1.80934,-2.384 -3.064,-2.49333 -0.528,2.58267 -0.28934,5.63067 -0.096,8.296 -1.52,0.77067 -5.65067,-2.32267 -6.87334,-2.89067 -0.67466,1.22534 -0.53733,2.68934 -0.70666,3.94534 -0.30134,2.22 -1.076,4.56266 -1.964,6.66533 -1.58533,0.42 -3.108,-3.636 -3.51067,-4.85867 -1.57466,-4.77333 -3.92933,-9.30266 -4.25066,-14.69066 -0.372,-6.23333 -0.412,-13.29067 2.64266,-19.63867 1.30534,-2.71466 3.55067,-7.26 6.308,-8.24266"
       style="fill:#cd976d;fill-opacity:1;fill-rule:nonzero;stroke:none;stroke-width:1.33333"
       id="path1617" />
    <path
       d="m 333.77079,173.31281 c 3.40133,-1.212 6.60267,3.12533 8.49867,5.764 2.28933,3.18666 4.82,8.108 4.18266,12.47866 -0.87333,-0.468 -1.15333,-1.63066 -2.148,-1.96 0.0947,4.02267 1.976,7.94667 2.29734,12.01333 -0.75334,0.02 -1.268,-0.81066 -2.00134,-0.99066 -0.216,2.25866 0.83467,4.368 0.68534,6.60266 -1.13467,-0.53866 -1.80934,-2.384 -3.064,-2.49333 -0.528,2.58267 -0.28934,5.63067 -0.096,8.296 -1.52,0.77067 -5.65067,-2.32267 -6.87334,-2.89067 -0.67466,1.22534 -0.53733,2.68934 -0.70666,3.94534 -0.30134,2.22 -1.076,4.56266 -1.964,6.66533 -1.58533,0.42 -3.108,-3.636 -3.51067,-4.85867 -1.57466,-4.77333 -3.92933,-9.30266 -4.25066,-14.69066 -0.372,-6.23333 -0.412,-13.29067 2.64266,-19.63867 1.30534,-2.71466 3.55067,-7.26 6.308,-8.24266"
       style="opacity:0.199997;fill:#000000;fill-opacity:1;fill-rule:nonzero;stroke:none;stroke-width:1.33333"
       id="path1627" />
    <path
       d="m 334.82599,208.428 -0.65067,1.22934 c -0.644,1.21733 -0.69466,2.33333 -0.75866,3.23466 -0.0867,2.09734 -0.64133,4.11467 -1.39333,6.148 -0.84,-0.96133 -1.33334,-2.324 -1.80934,-3.54 -1.324,-3.94266 -3.152,-7.66533 -3.97066,-11.77466 -0.80267,-6.00133 -0.58934,-12.728 1.056,-19.14667 1.33866,-3.85066 3.28133,-8.804 6.58266,-10.844 1.59467,-0.292 3.28,0.564 4.552,1.996 2.788,3.29067 5.884,7.768 6.58533,12.516 -0.11333,-0.056 -0.22266,-0.11866 -0.344,-0.15733 l -1.78266,-0.54933 0.0627,2.09866 c 0.092,3.39467 1.252,6.43067 1.92934,9.528 -0.007,-0.001 -0.012,-0.005 -0.0187,-0.007 l -1.39333,-0.36134 -0.14934,1.65467 c -0.12133,1.17333 0.0613,2.276 0.272,3.34 -0.38133,-0.26 -0.804,-0.452 -1.28133,-0.48667 0,0 -1.068,-0.0813 -1.068,-0.0813 -0.65733,2.77466 -0.612,5.68 -0.42533,8.356 -0.0307,-0.0213 -0.056,-0.0373 -0.092,-0.06 -0.724,-0.63734 -4.72,-2.61067 -5.90267,-3.09334 m 13.192,-5.35333 c -0.036,-3.44266 -1.16933,-6.708 -1.85867,-9.952 l 1.34534,0.71734 c 0,0 0.28,-2.02267 0.28,-2.02267 0.58933,-4.98 -1.708,-9.256 -4.24,-12.82933 -2.46134,-3.084 -5.80534,-7.63334 -9.90134,-6.156 -3.97733,1.76933 -6.40933,6.708 -8.05333,11.076 -1.82133,6.04933 -2.136,11.66533 -1.85333,17.19333 0.52267,6.65333 3.21467,12.59066 5.57067,18.46133 0.79333,1.44933 1.932,2.95467 4.06799,2.188 l 0.292,-0.688 c 0.95067,-2.228 1.74534,-4.592 2.08934,-6.95467 0.08,-0.52533 0.10533,-1.152 0.16,-1.75333 0.45866,0.37733 4.39333,2.06267 4.93333,2.156 0.87867,0.252 1.764,-0.20533 2.52267,-0.62533 -0.144,-2.248 -0.35467,-4.628 -0.21467,-6.79734 0.41067,0.50667 0.82533,1.06534 1.652,1.476 l 1.584,0.824 c 0,0 0.13867,-2.05466 0.13867,-2.05466 0.12533,-1.52267 -0.24534,-2.92667 -0.48667,-4.28267 0.19867,0.06 0.396,0.0893 0.584,0.064 0,0 1.388,-0.04 1.388,-0.04"
       style="fill:#000000;fill-opacity:1;fill-rule:nonzero;stroke:none;stroke-width:1.33333"
       id="path1637" />
    <path
       d="m 312.52919,66.206408 c 0.16934,-1.722666 0.81867,-3.321333 2.06667,-4.6 4.33067,-4.437333 10.864,-5.857333 15.46,-9.942666 -0.19867,0.438667 -0.22533,1.16 -0.45867,1.653333 0.11734,-0.249333 1.25067,-0.250666 1.492,-0.292 0.548,-0.09733 0.924,-0.24 1.34667,-0.597333 1.08933,-0.921333 2.21333,-1.813333 3.27466,-2.770667 0.66934,-0.601333 1.36534,-1.193333 2.04534,-1.782666 1.41066,-1.221333 2.888,-2.372 4.30533,-3.604 1.62133,-1.406667 3.65333,-2.462667 5.41067,-3.737333 0.72533,-0.526667 1.15866,-1.096 1.684,-1.782667 0.40266,-0.524 1,-1.232 1.74666,-1.101333 2.15734,0.376 1.664,2.506666 1.85334,4.152 0.356,-0.189334 0.872,-1.013334 1.27866,-0.749334 1.12534,0.733334 1.16267,4.301334 1.28534,5.454667 0.28,2.617333 -0.0667,5.174666 0.0667,7.776 0.292,-0.232 0.40934,-0.633334 0.58267,-0.977334 0.976,0.805334 0.98667,3.564 1.08,4.773334 0.13733,1.781333 -0.009,3.359999 -0.35333,5.059999 -0.50667,2.510667 -1.91867,4.692 -2.47867,7.066667 0.47733,-0.048 0.884,-0.406667 1.38133,-0.437333 0.424,2.7 -1.116,5.578666 -2.436,7.667999 -0.984,1.558667 -2.81333,3.076 -3.45466,4.818667 0.68,0.06 1.31733,-0.622667 1.91733,-0.825333 0.27733,2.122666 -2.76667,5.022666 -3.95733,6.295999 -1.79067,1.914667 -4.32934,3.374667 -5.91867,5.449334 0.47867,0.07733 0.992,-0.02267 1.332,-0.326667 -0.672,0.602667 -0.95067,1.622667 -1.58267,2.298667 -1.25333,1.337333 -2.86533,2.249333 -4.35066,3.296 -1.36534,0.964 -3.04534,1.906662 -4.09067,3.240002 -0.80933,1.03333 -1.32533,2.39866 -2.47333,3.116 -0.78,-1.84934 -2.456,1.568 -2.68267,2.2 -0.0693,-0.48134 -0.344,-0.928 -0.28666,-1.416 -0.69867,0.97066 -1.30267,1.92533 -1.456,3.008 0.784,-8.36934 0.53333,-18.961336 -4.192,-26.660002 -1.18934,-1.938667 -3.028,-2.890667 -4.64667,-4.409333 -3.12667,-2.933334 -5.172,-7.44 -4.79067,-11.314667"
       style="fill:#cd976d;fill-opacity:1;fill-rule:nonzero;stroke:none;stroke-width:1.33333"
       id="path1641" />
    <path
       d="m 315.11733,60.107342 c -1.32,1.148 -2.10134,2.462666 -3.10267,3.854666 -0.104,-0.285333 -0.21467,-0.545333 -0.356,-0.833333 -0.30133,1.036 -0.67733,3.236 0.39467,4.044 0.452,-0.817333 0.48533,-1.826667 1.00933,-2.605333 0.484,-0.717334 1.16133,-1.404 1.744,-2.033334 1.49867,-1.617333 3.35867,-2.847999 5.28667,-3.895999 1.64666,-0.894667 3.352,-1.678667 5.024,-2.524 0.832,-0.421334 1.65733,-0.853334 2.46,-1.324 0.51333,-0.298667 2.08,-0.770667 2.36533,-1.217334 -0.0867,0.136 -0.10533,0.348 -0.088,0.506667 1.68267,0.416 3.58133,-0.626667 4.868,-1.636 1.604,-1.257333 3.272,-2.432 4.78533,-3.849333 0.97467,-0.912 2.02667,-1.705334 2.96933,-2.652 0.79867,-0.802667 1.56,-1.621333 2.47067,-2.294667 1.44,-1.064 2.92933,-2.048 4.25467,-3.252 0.588,-0.534666 1.772,-0.745333 2.23333,0.04933 0.40667,0.698666 0.23867,1.766666 0.544,2.526666 1.33067,0.254667 1.852,2.834667 1.956,3.956 0.10533,1.124 0.028,2.274667 0.0107,3.392 -0.0107,0.682667 -0.0253,1.366667 -0.028,2.050667 -0.001,0.472 0.196,1.478666 0.024,1.884 0,0 0.13866,3.022666 0.13866,3.022666 l 1.35734,-1.093333 c 0.35466,2.5 0.27066,5.142666 -0.35867,7.434666 -0.892,2.621334 -2.244,5.333334 -2.74667,8.266667 0,0 1.24267,-0.145333 1.824,-0.213333 -0.34266,1.878666 -1.476,3.919999 -2.52,5.423999 -1.20533,1.74 -2.65733,3.12 -3.58933,5.045334 -1.00933,2.084 -1.86,4.626666 -3.34933,6.417333 -1.62267,1.949333 -3.70534,3.329333 -5.12534,5.506666 0,0 0.64934,0.08667 1.22134,0.162667 -1.15867,1.473333 -3.056,2.508 -4.596,3.701333 -1.15734,0.834667 -2.46,1.645334 -3.52533,2.876 -0.89867,1.084 -1.372,2.24534 -2.084,2.96934 -0.39334,-0.244 -0.856,-0.31467 -1.212,-0.0853 -0.404,0.276 -0.69334,0.59334 -0.94667,0.92667 0.18267,-0.892 0.396,-1.94 0.396,-1.94 -0.20133,0.99067 -1.48533,2.112 -2.01067,2.956 -0.612,0.98267 -0.73066,1.94 -1.01733,3.06667 0.41333,-0.77067 1.04933,-1.632 1.74933,-2.168 0.11067,0.516 10e-4,1.396 0.396,1.78133 0.27067,-0.652 2.36534,-2.84667 2.152,-3.46667 0.16667,0.48534 0.37867,1.04934 0.68534,1.44134 0.34,-0.90534 1.05866,-1.456 1.628,-2.19467 0.53066,-0.68933 0.92399,-1.48 1.52133,-2.11467 0.89466,-0.94933 2.12133,-1.664 3.36533,-2.465333 1.87333,-1.325333 3.96533,-2.237333 5.47067,-4.193333 0.476,-0.722667 0.77866,-1.354667 1.09066,-1.586667 0,0 -0.45866,-0.522667 -0.45866,-0.522667 1.44666,-1.434666 3.34933,-2.614666 5.076,-4.313333 2.22133,-2.489333 5.02933,-4.856 5.31866,-8.524 -0.02,0.249334 -0.47866,-0.321333 -0.5,-0.470666 -0.056,-0.394667 0.408,-0.72 0.60534,-0.986667 2.132,-3.033333 3.856,-6.608 2.884,-10.678666 0,0 -0.136,0.0093 -0.316,0.02267 1.26266,-3.357333 2.536,-6.837333 1.98666,-10.658666 -0.196,-1.866667 -10e-4,-3.829333 -1.62266,-5.412 -0.244,-0.238667 0.0133,-2.409333 0.0107,-2.806667 -0.004,-0.793333 -0.104,-1.392 -0.29333,-2.152 -0.43467,-1.730666 -0.33467,-3.499999 -0.924,-5.226666 -0.376,-1.102667 -0.90133,-2.073333 -1.18533,-3.24 -0.228,-0.94 -0.672,-2.430667 -1.496,-3.094667 -1.512,-1.218666 -3.00934,-0.318666 -4.088,0.970667 -0.608,0.724 -1.03067,1.485333 -1.75067,2.121333 -0.72533,0.641334 -1.54,1.174667 -2.34533,1.708 -1.58534,1.048 -3.02267,2.292 -4.492,3.489334 -1.24667,1.016 -2.464,2.185333 -3.86134,2.991999 -0.648,0.373334 -1.18,0.5 -1.84266,0.581334 -0.468,0.05733 -0.85067,0.308 -1.332,0.633333 -0.832,0.564 -1.77333,0.884 -2.63867,1.392 -1.65866,0.974667 -2.868,2.585333 -4.50933,3.628 -2.15467,1.365333 -4.436,2.504 -6.604,3.845333 -1.51333,0.937334 -3.016,1.909334 -4.36133,3.078667"
       style="fill:#000000;fill-opacity:1;fill-rule:nonzero;stroke:none;stroke-width:1.33333"
       id="path1645" />
    <path
       d="m 355.38812,54.308009 c -0.13466,0.0027 -0.29733,0.0093 -0.51733,-0.016 -0.13467,-0.586667 -0.42933,-1.165334 -0.59867,-1.728 -0.424,-1.405334 -0.59866,-2.829334 -1.21333,-4.205334 -0.30267,-0.678666 -0.65067,-1.386666 -1.15467,-1.909333 -0.228,-0.237333 -0.75733,-0.586666 -1.10533,-0.537333 -0.48933,0.06933 -0.42133,0.474667 -0.64667,0.862666 -0.316,0.542667 -0.764,0.989334 -1.184,1.450667 -0.51333,0.564 -1.14,0.977333 -1.644,1.544 -0.65866,0.741333 -1.26266,1.536 -1.91333,2.284 -1.31467,1.510667 -2.69333,2.964 -4.136,4.352 -2.82133,2.716 -5.88533,5.178666 -9.156,7.332 -4.52533,2.978666 -7.98,6.4 -7.61733,12.439999 0.29467,4.894667 2.63333,8.556 5.136,12.277333 0.95867,1.425334 1.97333,3.217334 3.396,4.084 1.88266,1.148 4.74,1.28 6.86133,1.721334 0.62533,0.129333 1.27867,0.286666 1.944,0.433333 0.41333,-0.625333 0.70667,-1.365333 1.24267,-1.845333 -0.34,0.304 -0.85334,0.404 -1.33334,0.326666 1.58934,-2.074666 4.128,-3.534666 5.91867,-5.449333 1.19067,-1.273333 4.23467,-4.173333 3.95867,-6.297333 -0.6,0.204 -1.23867,0.886667 -1.91734,0.826667 0.64,-1.744 2.47067,-3.261334 3.45467,-4.818667 1.32,-2.089333 2.86,-4.969333 2.436,-7.669333 -0.49733,0.032 -0.904,0.390667 -1.38133,0.438667 0.56,-2.376 1.972,-4.556 2.47866,-7.066667 0.344,-1.701333 0.49067,-3.278666 0.35334,-5.06 -0.104,-1.338666 -0.096,-2.293333 -0.93867,-3.392 -0.28667,-0.372 -0.44133,-0.384 -0.72267,-0.378666"
       style="opacity:0.199997;fill:#000000;fill-opacity:1;fill-rule:nonzero;stroke:none;stroke-width:1.33333"
       id="path1655" />
    <path
       d="m 222.57613,185.15881 c 0.11333,4.46933 2.62933,8.84933 5.24266,12.30666 3.48,4.604 7.98934,8.37733 12.76,11.57733 2.89734,1.94267 5.77334,3.32134 8.06534,5.836 2.18666,2.39867 4.87466,4.276 7.84666,5.59334 0.25867,-0.80267 0.27334,-1.73067 0.264,-2.61867 2.34,2.012 5.12534,4.388 8.03734,5.452 0.0747,-0.43867 0.472,-0.83067 0.53866,-1.268 2.02934,1.63867 3.50267,2.91867 6.11334,3.91733 2.42,0.928 5.14666,0.404 6.84133,1.496 0.808,0.51867 1.15067,1.56534 2.01333,2.04 0.74134,0.40934 1.60267,0.13334 2.37867,0.58267 1.64,0.94933 2.58,3.31467 3.948,4.58933 1.54267,-0.504 1.73733,-0.0947 2.96267,0.49867 1.39733,0.676 3.06133,0.94667 4.59066,1.11333 3.15067,0.34534 6.33067,0.0133 9.48934,0.0133 4.01333,0 7.724,-0.78267 11.52533,-0.10934 3.504,0.62 6.85867,-2.292 10.17733,-3.12933 0.87467,-0.22 1.63334,0.196 2.408,0.0107 0.92934,-0.22267 1.384,-0.85734 1.98534,-1.68134 0.63733,-0.872 1.20133,-1.8 1.872,-2.64666 0.61066,-0.76934 1.72933,-1.34934 2.23599,-2.11734 0.57867,-0.87866 0.60934,-2.60266 0.74667,-3.62666 0.168,-1.244 0.27867,-2.49467 0.45333,-3.73734 0.352,-2.52266 0.56,-5.41066 0.31467,-7.968 -0.12667,-1.33866 -0.164,-2.58533 -0.824,-3.748 -0.62,-1.09333 -0.81067,-2.30533 -0.808,-3.552 0.004,-2.31066 0.25067,-4.61733 0.588,-6.89999 0.976,-6.62934 5.076,-12.04934 6.24133,-18.68934 0.45467,0.848 0.74667,1.90267 1.29334,2.53867 0.26666,-1.932 0.848,-3.80133 1.132,-5.78667 0.41466,-2.888 0.29733,-5.664 0.48,-8.56666 1.26666,0.57866 1.62266,2.30133 2.55866,3.15466 0.78934,-5.96666 1.32134,-12.33333 -0.40666,-18.16933 -1.396,-4.71733 -3.59467,-11.09467 -2.92267,-16.14133 0.264,-1.97467 1.50667,-2.66667 2.59467,-4.16 1.16666,-1.60134 1.808,-3.53467 2.85333,-5.20934 1.39467,-2.232 4.048,-5.71733 4.03467,-8.32533 -0.87734,0.316 -1.48267,0.752 -2.304,0.78533 0.44266,-1.46133 3.23733,-9.34266 -0.472,-5.62666 -0.26934,-4.40534 -0.0213,-8.49467 -1.18,-12.67067 -0.25334,0.26267 -0.80667,0.46133 -1.028,0.69067 -0.68534,-14.245335 -1.91334,-28.097335 -9.652,-40.448002 -0.0627,0.710667 -0.35334,1.2 -0.64134,1.842667 0.61467,-1.374667 -4.59733,-6.257333 -5.53733,-7.142666 -1.95466,-1.841334 -4.22133,-3.444 -6.38533,-5.025334 -4.30533,-3.145333 -8.48933,-6.569333 -12.904,-9.559999 -4.24933,-2.878667 -9.66667,-5.364 -14.49733,-6.950667 0.10266,0.430667 -0.0507,0.816 0.164,1.278667 -2.94,-1.450667 -5.88267,-3.033333 -9.012,-4.154667 -2.5,-0.897333 -5.056,-1.605333 -7.54267,-2.526666 -2.00933,-0.745334 -4.29067,-1.697334 -6.46933,-1.393334 0.45466,0.864 1.12666,1.666667 1.492,2.569334 -6.04134,0.293333 -12.02267,-0.897334 -18.09334,-0.625334 -4.24666,0.190667 -8.45733,2.342667 -12.56133,2.404 0.772,0.312 1.52533,0.528 2.344,0.706667 -2.36667,1.949333 -8.064,2.410666 -11.18533,3.457333 -4.37067,1.465333 -9.552,3.085333 -13.32534,5.74 0.75867,-0.004 0.96134,0.229333 1.612,0.429333 -3.92533,1 -7.31066,3.848 -10.52266,6.098667 -3.76534,2.638666 -8.444,4.917333 -11.34934,8.568 1.06,-0.272 2.348,-0.28 3.428,-0.64 -3.30533,4.370666 -5.288,8.682666 -7.53866,13.611999 -1.99333,4.362667 -4.70267,8.585333 -5.92533,13.225333 0.62266,-0.345333 1.30666,-0.806666 1.86266,-1.256 -0.49866,3.882667 -0.23733,7.904 -0.64266,11.776 -0.308,2.937333 -1.28667,6.282667 -1.22534,9.151999 0.47734,-0.41467 1.068,-0.60533 1.47734,-1.136 -0.248,3.14667 -0.59734,5.39867 -0.29067,8.62267 0.24533,2.588 0.78533,6.132 0.076,8.59066 0.13867,-0.0107 0.264,-0.0587 0.376,-0.14266 0.14533,2.84 0.79467,5.41866 0.91467,8.18133 0.18133,4.128 -0.89867,8.18 -0.61467,12.34133 0.236,-0.656 0.74533,-1.05066 1.12,-1.56933 0.708,4.81333 1.772,9.54667 2.164,14.54133 0.36,-0.62666 0.82267,-1.27466 1.28933,-1.79866 -1.47466,1.65866 10.08533,15.95866 11.34,17.368"
       style="fill:#cd976d;fill-opacity:1;fill-rule:nonzero;stroke:none;stroke-width:1.33333"
       id="path1669" />
    <path
       d="m 353.51319,114.66947 c 0.284,-1.18 0.40533,-2.36666 -0.17067,-3.68 -0.296,-0.568 -0.83333,-1.07066 -1.46266,-1.31333 -0.0587,-0.0307 -0.12667,-0.048 -0.192,-0.0693 -0.11067,-3.32934 -0.20934,-6.728 -1.152,-10.026669 0,0 -0.43734,-0.110667 -1.02,-0.257333 -0.68667,-13.733333 -2.38667,-28.153333 -10.012,-40.078666 l -3.46934,-5.486667 -0.28666,2.504 c -3.06267,-3.329333 -6.788,-6.053333 -10.388,-8.650666 -4.968,-3.606667 -9.892,-7.853333 -15.35333,-10.917333 -3.75067,-2.102667 -7.65867,-3.798667 -11.72667,-5.14 0,0 -0.476,0.437333 -0.80667,0.741333 -5.072,-2.622666 -10.60133,-4.529333 -16.02533,-6.268 -1.90933,-0.678666 -4.16933,-1.645333 -7,-1.304 l -3.088,0.370667 1.21733,2.208 c -3.77866,-0.114667 -7.69066,-0.588 -11.76,-0.648 -5.02666,-0.5 -10.576,2.185333 -15.26933,2.468 0,0 -13.03067,0.261333 -13.03067,0.261333 1.404,0.437334 5.46267,1.642667 9.06934,2.718667 -1.22934,0.266667 -2.448,0.493333 -3.48267,0.761333 -5.47333,1.617333 -10.98933,3.330667 -15.844,6.58 l -4.82,3.364 c 0,0 0.324,0.01467 0.36667,0.01733 -5.444,4.257333 -11.61867,6.804 -16.21067,12.113333 0,0 -3.736,4.670667 -3.736,4.670667 0,0 2.65867,-0.693333 4.372,-1.14 -3.10133,5.177333 -5.19866,10.665333 -8.06933,16.057333 -1.92667,3.46 -3.25733,8.398666 -4.216,12.326666 0,0 1.62533,-1.105333 2.832,-1.924 -0.15333,3.929333 -0.0373,7.584 -0.91333,11.562667 -0.69467,2.745333 -0.62,7.013335 -0.53734,9.954665 0,0 0.49334,-0.49466 1.076,-1.08 -0.0693,1.45067 -0.0733,2.90667 0.088,4.336 0.21467,2.61467 0.79334,5.52534 0.18934,7.932 l -0.648,2.39867 c 0,0 0.56,-0.036 1.14666,-0.072 0.348,2.78 0.97067,5.41333 0.832,8.2 -0.0853,3.24533 -0.77733,6.732 -0.5,10.44667 l 0.584,7.78933 c 0,0 0.772,-2.372 1.44134,-4.42533 0.84133,4.59466 1.63866,9.13066 1.90533,13.76 0.49333,-0.80267 1.09067,-2.02267 1.724,-3.15067 2.93066,5.536 7.23333,10.16933 11.22133,14.97333 0,0 1.14667,-1.02133 1.14667,-1.02133 -3.20134,-4.05067 -6.352,-8.31733 -9.048,-12.72533 -0.67067,-1.17067 -1.452,-2.372 -1.74934,-3.64534 -0.0507,-0.13066 0.104,0.003 -0.18666,0.34 l -1.10267,-0.98 c -0.53733,-5.62266 -1.628,-11.052 -2.27866,-16.56266 -0.052,0.0613 -0.192,0.25333 -0.36134,0.49066 0.17734,-1.65866 0.4,-3.372 0.496,-5.156 0.26134,-3.484 -0.64533,-7.05466 -0.80266,-10.40533 0,0 -0.22667,-0.10533 -0.27467,-0.12667 0.82,-4.268 -0.552,-8.188 -0.16933,-12.44133 0.20266,-2.356 0.464,-5.638669 0.67866,-8.092002 -0.27066,0.196 -0.792,0.564 -1.38666,0.982667 0.36133,-2.132 0.86133,-4.314667 0.97733,-6.456 0.19467,-5.118667 0.344,-9.756 1.11733,-14.594667 l -0.30933,0.206667 c 1.26533,-2.629333 2.73333,-5.208 3.92933,-7.886666 2.072,-4.564 4.18267,-8.937334 7.09867,-12.748 l 3.95066,-5.162667 c 0,0 -0.10533,0.036 -0.10933,0.03733 0.924,-0.584 1.852,-1.164 2.75867,-1.766667 1.93066,-1.292 3.65333,-2.654667 5.41333,-3.810666 3.104,-2.476 8.83067,-3.396 12.444,-4.405334 0,0 -2.03733,-0.589333 -3.99733,-1.156 2.88133,-1.312 5.98533,-2.278666 8.968,-3.274666 3.93466,-1.170667 8.09466,-1.216 11.63333,-3.732 0,0 0.57733,-0.448 1.228,-0.953333 2.25867,-0.552 4.37733,-1.264 6.728,-1.566667 7.172,-0.528 14.62667,1.178667 22.19467,0.437333 0,0 -0.43734,-1.030666 -0.78667,-1.853333 2.428,0.716 5.036,1.892 7.19733,2.493333 3.92267,1.188 7.33467,2.973333 11.016,4.833333 l 0.89867,-0.878666 c 3.49867,1.218666 6.92533,2.737333 10.132,4.556 4.94,2.768 10.144,7.283999 14.85333,10.683999 4.444,3.266667 9.03067,6.510667 12.044,11.118667 -0.0987,-0.292 -0.0453,-0.685334 0.11067,-0.961334 0,0 0.344,0.153334 0.82933,0.369334 3.532,5.668 5.78933,12.067999 7.08667,18.717333 1.32,6.683999 1.768,13.594666 2.08933,20.563992 l 1.24667,0.46934 c 1.12133,4.86533 0.68533,11.46 1.22666,16.75333 l 0.18534,-0.17733 c -0.34934,1.048 -0.69334,2.06666 -0.948,2.98 0.44666,-0.0213 1.168,-0.0253 1.948,-0.052 -0.34,0.588 -0.704,1.15733 -1.04,1.66 -1.18934,1.62533 -2.61467,4.32933 -3.48934,6.12933 -0.76666,1.556 -2.25333,2.49333 -3.116,4.3 -0.36,0.77333 -0.57466,1.61467 -0.63333,2.45467 -0.56,6.24533 1.70267,11.91733 3.26667,17.676 0.856,3.576 0.89733,7.16666 0.61333,10.84133 -0.912,-0.41333 -2.92667,-1.32533 -2.92667,-1.32533 -0.30133,3.18666 -0.29466,7.172 -0.524,10.24666 -0.604,-1.14666 -1.112,-2.10266 -1.30933,-2.484 0.33867,0.65334 -0.55867,3.28267 -0.69467,4.048 -1.012,5.728 -2.18133,11.344 -3.59866,17.01067 -0.588,2.34667 -1.352,4.64133 -2.10533,6.93733 -0.82934,2.53067 -2.704,5.26 -1.39334,7.94533 0.54,1.104 1.02667,1.82667 1.228,3.09734 0.24667,1.57066 0.36667,3.16266 0.51734,4.744 0.14533,1.52533 0.35333,3.18533 0.26799,4.76533 -0.53733,-0.10667 -0.99066,-1.76267 -1.31333,-2.25867 0.072,3.79067 0.456,8.26667 -1.40266,11.69734 -0.33867,0.624 -0.772,1.152 -1.23067,1.69066 -0.77867,-1.22266 -1.72933,-2.07333 -2.58,-3.196 -1.304,1.076 -2.51067,2.252 -3.88533,3.26667 -1.04134,0.76933 -1.91467,1.276 -3.112,1.69867 -1.43334,0.50533 -3.74134,1.988 -5.27334,1.82933 0.18934,-0.34933 0.124,-0.84133 0.26267,-1.2 -1.98267,0.124 -4.05733,1.252 -6.08667,1.55867 -3.164,0.47866 -8.796,0.48666 -11.724,-0.89867 0.44134,3.60267 -8.28133,-2.07333 -8.68266,-2.22133 0.18933,0.428 0.088,0.74666 0.13866,1.16666 -3.69466,-1.02666 -6.29066,-3.40133 -7.35733,-7.068 -0.36533,-1.256 -0.532,-2.72933 -1.14267,-3.83466 -2.85466,0.87333 -2.76,-2.03867 -3.512,-4.004 -1.10666,1.50933 -1.408,4.37866 -1.31066,6.26133 -0.008,-0.15333 -4.29067,-0.0333 -4.68,-0.17867 -1.37867,-0.516 -2.85734,-2.06533 -4.00134,-2.97733 l -1.74933,0.68 c -3.732,-1.59067 -7.104,-5.096 -10.29067,-7.572 0,0 0.0853,2.85333 0.11867,3.96 -0.87067,-0.49867 -1.70667,-1.05333 -2.49733,-1.66933 -1.70267,-1.26534 -2.98534,-3 -4.74,-4.22667 -3.62934,-2.52533 -7.15734,-4.264 -10.54,-6.95867 -6.16,-4.83599 -12.708,-11.37199 -13.524,-19.45066 l -1.74934,0.0453 c 0.012,2.26267 0.59067,4.46134 1.428,6.49467 4.20534,10.12266 13.52667,16.76933 22.296,22.58266 1.64534,1.29067 2.876,3.05334 4.52934,4.356 2.248,1.96534 5.01866,3.324 7.716,4.55067 0.168,-0.46267 0.33466,-0.98133 0.49066,-1.51467 0.38934,0.31467 0.76934,0.63467 1.18,0.94 1.396,1.03067 2.916,2.01334 4.72267,2.70534 l 1.084,-0.628 c 1.90533,1.54666 4.05467,3.012 6.42933,3.68533 1.72267,0.58667 4.07734,0.37333 5.432,1.048 0.0733,0.11467 1.11734,1.47067 1.60134,1.8 0.40266,0.32933 1.07866,0.66133 1.59466,0.772 0.688,0.11333 1.14534,0.192 1.31067,0.21467 1.43733,1.24533 1.72133,2.66133 3.41733,4.28933 0,0 0.99467,0.98667 0.99467,0.98667 0,0 1.468,-0.44267 1.468,-0.44267 0.13467,-0.04 0.26667,-0.076 0.38267,-0.10267 0.65333,0.72934 2.02533,1.98267 2.72933,2.67067 0,0 1.71067,-1.19467 1.71067,-1.19467 0.73733,-0.59333 2.14533,-0.948 2.53466,-0.812 0.95867,1.33734 2.684,2.32 4.46,1.99067 1.05467,-0.2 1.672,-0.536 2.192,-0.884 0.508,0.78133 1.244,1.916 1.244,1.916 0.29067,-0.208 1.02934,-0.84933 1.72934,-1.40133 0.508,0.67466 1.064,1.32533 1.56133,1.92933 1.90533,-1.32533 3.82933,-2.332 6.03733,-3.2 0.13867,0.30667 1.26267,2.78267 1.26267,2.78267 1.07333,-0.66934 2.2,-1.43067 3.348,-2.18534 -0.0627,0.21067 -0.12533,0.41867 -0.17733,0.59734 0,0 4.60666,-1.04934 4.60666,-1.04934 1.86134,-0.312 3.42,-1.58266 4.83467,-2.92266 0,0 1.25867,3.808 1.25867,3.808 -0.096,-0.292 1.568,-2.05467 1.768,-2.31734 0.66533,-0.872 1.47466,-2.02666 2.32266,-2.71466 0.12534,0.25066 0.19467,0.53066 0.23467,0.812 0.672,-0.57867 1.42,-1.46934 1.93333,-2.232 0.46667,-0.692 0.54,-1.888 1.23333,-2.34534 0.064,0.17467 0.23734,0.35067 0.29334,0.492 0.40933,-0.67733 0.628,-1.77866 0.76533,-2.576 0.22933,-1.33333 0.54,-2.66933 0.728,-3.99733 0.184,-1.296 0.53067,-2.588 0.59067,-3.91067 0.0453,-1.01733 -0.12134,-1.99066 -0.056,-3.00133 0.24,0.32133 0.376,0.83067 0.744,1.04133 0.0893,-2.82 -0.25067,-5.744 -0.70267,-8.50933 -0.21867,-1.344 -0.55067,-2.688 -1.01067,-3.94267 -0.86933,-2.36933 -1.77733,-4.14 -1.108,-6.73466 0.59334,-2.30133 1.83334,-4.364 2.63867,-6.58667 0.82933,-2.288 1.53067,-4.62266 2.444,-6.87866 0.87467,-2.16267 1.80133,-4.30267 2.63867,-6.492 0.404,-1.05467 0.536,-1.97067 0.85466,-2.95067 0.58267,-0.088 1.20667,0.24667 1.64534,0.57067 -0.0453,-1.668 -0.38534,-3.40667 -0.0813,-5.05467 0.93467,-0.144 1.42134,0.684 1.89867,1.28 0.64,-1.44133 0.22,-3.216 0.64933,-4.712 0.36134,0.136 0.652,0.36267 0.93734,0.59733 0.58133,-4.16933 1.07066,-8.88933 0.56533,-13.10533 -0.79067,-6.58267 -4.47333,-13.02133 -3.89733,-19.63733 0.032,-0.74934 0.21866,-1.03734 0.78266,-1.704 1.65867,-1.58534 2.97867,-4.36667 3.91334,-6.29467 1.808,-3.3 4.616,-6.09467 4.79333,-10.34267 0,0 0.08,-3.476 0.08,-3.476 -0.35867,0.128 -0.76667,0.27334 -1.196,0.428"
       style="fill:#000000;fill-opacity:1;fill-rule:nonzero;stroke:none;stroke-width:1.33333"
       id="path1673" />
    <path
       d="m 227.50466,145.81494 c -2.50933,3.148 -3.68,7.15067 -4.80933,11.1 -1.3,4.54133 -2.64134,9.97867 -2.404,14.784 0.32133,-0.2 0.88666,-0.22667 1.25733,-0.55333 -2.19467,7.59466 -0.0533,16.91333 1.61333,24.28133 0.34934,-0.49867 0.86,-1.22133 1.224,-1.73333 -0.0987,3.95733 2.35334,8.34799 3.896,11.87866 1.63734,3.75067 2.84134,8.30933 5.32934,11.55067 1.152,-3.64 1.35333,-8.86667 1.612,-12.62134 1.83466,5.48534 4.9,9.42134 7.932,14.00267 0.57733,-1.6 -0.53867,-4.90667 -0.77867,-6.67733 -0.15467,-1.132 -0.448,-2.256 -0.35067,-3.38134 2.66134,3.624 4.28934,7.66 7.44934,10.824 -0.0747,-4.69066 0.36133,-8.876 1.788,-13.268 0.74533,1.72267 1.60666,4.55734 1.94,6.488 0.12533,-2.452 1.188,-5.16933 2.19066,-7.384"
       style="fill:#cd976d;fill-opacity:1;fill-rule:nonzero;stroke:none;stroke-width:1.33333"
       id="path1677" />
    <path
       d="m 210.96173,167.04254 c -0.16,-1.12667 -2.28267,-1.51867 -2.68267,-2.62267 -0.74933,-2.06533 -2.38267,-3.73333 -3.66533,-5.49066 -0.82134,-1.12667 -6.36933,-7.704 -4.99333,-9.25467 -0.46534,0.524 -0.92934,1.172 -1.28934,1.79867 -0.39066,-4.99467 -1.456,-9.728 -2.164,-14.54134 -0.37333,0.51867 -0.88266,0.91334 -1.11866,1.56934 -0.284,-4.16134 0.79466,-8.21334 0.61466,-12.34134 -0.12,-2.76266 -0.76933,-5.34133 -0.91466,-8.18133 -0.112,0.0853 -0.23734,0.132 -0.376,0.144 0.70933,-2.46 0.16933,-6.004 -0.076,-8.592 -0.30667,-3.224 0.0427,-5.476 0.29066,-8.62267 -0.40933,0.532 -1.00133,0.72134 -1.47733,1.136 -0.0627,-2.869329 0.91733,-6.214662 1.224,-9.151996 0.40533,-3.870666 0.144,-7.891999 0.644,-11.775999 -0.556,0.449333 -1.24,0.910666 -1.86267,1.256 1.22267,-4.64 3.932,-8.862667 5.92534,-13.225333 2.25066,-4.928 4.23199,-9.241333 7.53733,-13.612 -1.07867,0.36 -2.36667,0.368 -3.42667,0.64 2.90533,-3.650667 7.584,-5.929333 11.348,-8.566667 3.21333,-2.250666 6.59867,-5.099999 10.524,-6.099999 -0.65067,-0.2 -0.85467,-0.433334 -1.61333,-0.429334 3.77333,-2.654666 8.956,-4.274666 13.32666,-5.74 3.12134,-1.045333 8.81867,-1.508 11.184,-3.457333 -0.81733,-0.177333 -1.57066,-0.393333 -2.34266,-0.706666 4.104,-0.06 8.31333,-2.213334 12.56,-2.404 6.072,-0.272 12.05333,0.918666 18.09333,0.625333 -0.36533,-0.902667 -1.036,-1.705333 -1.49067,-2.569333 2.17867,-0.304 4.46,0.649333 6.46934,1.393333 2.48533,0.921333 5.04133,1.629333 7.54266,2.526667 0.33067,0.118666 0.652,0.26 0.98,0.388 -3.496,0.718666 -7.35066,1.6 -10.58,3.159999 -2.97333,1.434667 -5.59733,3.098667 -8.79866,4.193334 -2.86134,0.978666 -5.69734,2.072 -8.33734,3.568 -2.54266,1.438666 -5.72666,2.677333 -7.86933,4.689333 1.35733,-0.377333 2.69067,-0.812 4.03867,-0.806667 -3.19734,2.545333 -7.276,3.190667 -10.33867,6.238667 -2.864,2.849333 -6.124,6.58 -7.512,10.389333 1.46533,-1.285334 3.392,-1.972 4.97733,-2.974667 -1.56533,3.774667 -4.58533,7.154667 -6.22933,11.089333 -1.216,2.906667 -2.14933,5.818667 -2.58533,8.958667 0.404,-0.485334 0.968,-0.828 1.27866,-1.224 -0.15733,3.302666 -1.088,6.598666 -1.29333,9.829333 -0.24267,3.78 1.67733,6.834666 2.41333,10.374666 0.792,3.810666 1.07734,7.699996 2.116,11.447996 0.92934,3.352 1.46,7.396 0.16134,10.772 -1.27734,3.32534 -3.84134,6.51467 -5.912,9.41067 0.21333,-0.024 0.396,-0.13067 0.60533,-0.176 0.82667,2.164 -3.164,7.62933 -3.392,10.24133 0.308,-0.43333 0.82933,-0.66666 1.15067,-1.02266 0.06,1.88266 0.18,3.76533 0.41333,5.63466 0.096,0.76534 0.11333,1.648 0.47333,2.33867 0.332,0.63467 0.85734,1.208 1.28934,1.776 0.484,0.636 0.40533,1.19467 0.48133,1.956 0.14133,1.416 0.009,2.60267 0.82,3.80533 0.86267,1.27867 1.092,2.86267 2.00267,4.14267 0.96133,1.35067 2.45066,2.628 3.89866,3.356 0.92134,0.46267 1.17334,0.72267 1.668,1.54933 0.71067,1.184 1.65867,2.90667 2.95734,3.53067 0.84,0.40267 1.112,0.19333 1.864,0.19333 1.30666,-0.003 2.80666,1.67467 3.73466,2.52134 1.72534,1.57066 3.97067,2.74533 5.472,4.52 1.42534,1.68533 2.50934,3.65066 4.08934,5.208 1.84,1.812 3.47466,3.69466 5.01066,5.86 1.68934,2.38 3.156,4.49866 4.28,7.124 0.52267,1.22 0.904,3.40133 2.00534,4.21866 1.10533,0.82 1.50933,0.0573 2.41733,1.276 1.132,1.51867 2.24667,5.31333 2.63867,7.224 0.30933,-0.3 0.98933,-0.59867 1.312,-0.97733 -0.87334,3.69066 -1.69867,7.452 -2.012,11.236 1.55066,-2.31067 3.31866,-5.68934 4.62,-7.64267 -0.57867,0.868 -0.46667,4.72133 -0.444,5.85067 0.0307,1.51066 -0.028,3.04533 0.0587,4.53466 0.12534,2.16534 1.304,6.66134 3.55734,7.62 0.31333,-2.15066 0.77733,-4.44133 1.33866,-6.544 1.21867,3.57734 3.02134,5.396 5.696,7.736 0.69334,-0.66 1.028,-1.98 1.56534,-2.912 5.06133,4.72934 11.248,4.96 18.00133,4.96 3.876,0 8.432,-0.088 11.77333,-1.91066 2.17867,-1.188 2.99334,-3.124 3.708,-5.22134 0.36934,0.38267 0.924,0.51867 1.268,0.92934 0.65467,-2.292 -0.21733,-4.51734 -0.10666,-6.81467 0.0853,-1.74933 0.45066,-3.29867 0.35866,-5.11733 -0.11066,-2.21467 -0.58933,-4.76534 -1.36,-6.86267 -0.66,-1.79067 -2.008,-3.384 -2.34533,-5.176 1.75867,0.088 4.26,2.83333 4.42267,4.58133 0.0653,-2.24133 0.244,-5.34933 -0.52,-7.61733 1.46666,1.364 2.328,3.20134 3.18666,4.976 1.284,2.65733 1.56667,6.144 2.092,9.04 0.27867,1.53333 0.54267,3.08933 0.412,4.64133 -0.208,2.49334 -1.38933,4.75067 -2.06,7.12934 -0.32667,1.16133 -0.33067,2.368 -0.65733,3.51066 -0.37067,1.28934 -0.804,2.56 -1.464,3.73467 -1.67333,2.984 -4.34533,3.42933 -7.184,4.6 -6.00933,2.48 -11.09067,1.64133 -17.356,2.26267 -2.62533,0.26 -5.41467,0.56133 -8.12933,0.43333 -5.236,-0.24667 -9.84134,-3.03733 -14.49334,-5.27067 -2.17466,-1.04266 -4.18533,-2.38 -6.31733,-3.5 -2.20267,-1.15866 -4.34667,-0.912 -6.62,-1.78133 -2.60933,-1 -4.08267,-2.28 -6.11333,-3.91867 -0.0653,0.43734 -0.464,0.82934 -0.53867,1.268 -2.91067,-1.06266 -5.696,-3.44 -8.036,-5.452 0.009,0.888 -0.005,1.816 -0.264,2.61867 -0.06,0.188 -1.89467,-1.22 -2.02133,-1.28667 -0.88,-0.46 -1.94934,-0.23733 -2.87734,-0.52666 -0.80533,-0.25067 -1.876,-0.57734 -2.28266,-1.37734 -0.73067,-1.43466 -0.20934,-4.08266 0.14133,-5.576 0.23067,-0.98533 0.356,-0.80133 1.16133,-0.992 1.356,-0.31866 3.37067,-1.10133 3.86,-2.42 0.60934,-1.64533 1.05734,-3.33333 1.73334,-4.968 -1.04134,0.48134 -1.964,1.024 -2.95334,1.612 -0.22933,-0.43733 -0.44,-1.02 -0.76933,-1.34933 -0.51333,0.79733 -0.97467,1.68533 -1.2,2.62533 -0.896,-1.36133 -1.82267,-3.23733 -2.164,-4.848 -0.47067,0.884 -0.69467,1.85467 -1.01067,2.78667 -0.81466,-1.04133 -1.33733,-2.33733 -1.93066,-3.516 -0.70534,-1.40266 -1.52934,-3.09066 -1.60267,-4.67733 -0.388,1.756 -0.98667,3.64267 -1.66267,5.31333 -1.32666,-2.17733 -1.59466,-4.60266 -2.264,-6.99333 -0.72533,-2.58933 -1.436,-5.232 -2.77866,-7.584 -0.896,2.16933 -1.236,8.42 -0.12534,10.47067 -1.24,-4.47334 -4.43866,-7.86667 -4.96933,-12.65734 -0.648,2.028 -0.68533,4.03467 -0.648,6.252 -2.04267,-3.56933 -2.02133,-7.42133 -2.536,-11.36133 -0.19867,-1.52267 -0.45467,-3.056 -0.70133,-4.57867 -0.22534,-1.39466 -1.52934,-4.09866 -1.16,-5.44266 -0.54267,1.976 -0.88534,3.712 -0.88,5.80266 -2.50267,-8.02933 -2.99334,-18.73066 -0.64134,-26.88266 -0.87733,1.40666 -1.928,2.88 -2.716,4.32533 -2.26133,4.14533 -1.56133,9.88267 -2.37466,14.40267 -0.32267,1.788 -0.92,3.176 -0.868,5.032 0.032,1.144 2.32666,13.10133 2.32666,13.10133"
       style="display:inline;opacity:0.199997;fill:#000000;fill-opacity:1;fill-rule:nonzero;stroke:none;stroke-width:1.33333"
       id="path1687" />
    <path
       d="m 322.33653,173.75147 c -0.0987,0.43467 0.364,0.828 0.80933,0.84534 0.44533,0.0173 0.856,-0.216 1.25067,-0.42134 0.784,-0.408 1.652,-0.66933 2.38666,-1.13733 1.75467,-1.11867 3.552,-2.532 4.19734,-4.632 0.8,-2.604 0.312,-5.9 -0.24,-8.512 -0.392,-1.864 -0.50934,-3.584 -1.4,-5.31067 -1.26934,-2.45733 -3.45734,-3.69866 -5.1,-5.792 -2.384,-3.03466 -4.41734,-10.36266 -3.93867,-14.12533 0.50133,-3.92933 4.13467,-6.57067 6.34533,-9.85733 -0.95466,0.924 -1.90933,1.848 -2.864,2.77066 -0.572,0.55334 -1.32133,1.71467 -2.076,1.96667 -0.504,0.168 -4.03733,-0.85333 -4.18,-1.21067 1.11067,2.80134 1.04134,5.276 1.62134,8.148 0.596,2.94934 0.99466,5.932 1.52933,8.89067 0.17333,0.96 0.084,2.288 0.57067,3.13733 0.688,1.20267 1.95733,2.13867 2.988,3.028 1.56933,1.35334 3.28533,3.368 4.16,5.256 0.488,1.052 0.46666,2.19334 0.53066,3.352 0.0893,1.59734 0.408,3.2 0.32667,4.832 -0.14133,2.828 -2.45467,6.34934 -5.612,4.82134 -2.51467,-1.216 -6.18,-1.22267 -8.98267,-1.11734 -4.264,0.16134 -8.96266,0.43334 -13.16133,-0.23866 -1.29067,-0.20667 -2.27333,-0.39867 -3.184,-1.308 -0.508,-0.508 -1.164,-1.45467 -1.376,-2.13867 -0.46533,-1.504 -0.132,-3.16533 -0.356,-4.704 -0.46933,2.20667 -2.44533,4.304 -2.46,6.576 -0.016,2.248 1.89867,3.13467 3.56,4.11733 0.29867,0.176 3.704,1.91867 3.71467,1.68534 0.0213,-0.508 -0.124,-0.87734 0.37066,-1.02534 0.44267,-0.132 0.77334,0.19867 1.15467,0.33067 0.28,0.0973 0.58667,0.10667 0.87733,0.2 0.67067,0.216 1.26934,0.62 1.88934,0.94533 0.91066,0.48 1.74933,1.04 2.44133,1.80534 1.056,1.168 2.05067,2.95866 2.332,4.516 0.392,2.168 -0.0573,4.37866 -0.64267,6.48 -0.20266,0.728 -0.79066,1.26 -1.404,1.684 1.20134,-0.0173 2.36267,0.524 3.55467,0.468 -0.23467,-0.84134 -0.532,-1.69067 -0.46667,-2.58667 0.0867,-1.156 0.5,-2.256 0.99467,-3.296 1.10533,-2.324 3.03333,-4.73467 5.19067,-6.14933 1.46933,-0.964 3.13066,-1.46934 4.648,-2.29334"
       style="fill:#000000;fill-opacity:1;fill-rule:nonzero;stroke:none;stroke-width:1.33333"
       id="path1701" />
    <path
       d="m 313.29266,122.42481 c 0.004,0.024 0.007,0.048 0.0107,0.072 0.11333,0.76666 0.30133,1.76266 0.94933,2.19733 0.53333,0.35733 1.65867,1.684 2.248,1.916 -0.52267,-0.20667 -2.536,0.224 -2.84533,0.62933 -0.52667,0.69067 -0.676,1.12267 -0.74934,1.98667 -0.188,2.19333 0.32134,4.39867 0.64534,6.54267 0.35466,2.332 0.892,5.18933 0.232,7.512 -0.70534,-2.83867 -0.408,-6.03334 -1.21067,-8.98 -0.35733,-1.31467 -0.844,-2.608 -1.464,-3.824 -0.27733,-0.544 -0.72133,-1.044 -0.94,-1.59867 -0.23467,-0.58933 -0.11467,-1.23733 -0.60133,-1.74 -0.63334,-0.656 -1.472,0.456 -2.116,0.94 -1.43867,1.08 -3.216,2.116 -4.44934,3.41467 -0.88,0.92666 0.092,2.76266 0.19334,3.89333 0.29466,3.27867 1.05066,6.98267 0.36933,10.232 -0.17333,0.82533 -0.356,1.82667 0.096,2.572 0.392,0.64533 0.57733,0.69067 0.212,1.444 -0.44533,0.91733 -0.17467,1.45467 0.176,2.4 0.10933,0.29333 0.51733,0.76267 0.436,1.1 -0.17733,0.736 -1.23467,1.212 -1.8,1.40533 -0.71467,0.24267 -1.53067,0.34534 -2.18667,0.76267 -1.25333,0.8 -2.31333,1.92533 -3.516,2.812 -0.444,0.328 -1.88133,0.932 -1.92666,1.63867 0.12133,-1.89067 0.1,-3.63467 0.38,-5.51867 0.19866,-1.33067 0.52133,-3.04667 -0.62534,-3.88533 -0.97866,-0.71467 -2.668,-0.97734 -3.79866,-1.06 -3.14667,-0.232 -6.29334,0.984 -9.41334,0.068 -3.42533,-1.00667 -7.99066,-7.40534 -8.62533,-8.51067 -0.24933,-0.43467 0.588,0.22 0.66133,0.26133 0.924,0.52134 1.75734,1.28 2.676,1.83067 3.524,2.11467 8.09067,3.324 12.084,3.4 2.36,0.044 5.68,-0.41733 6.932,-2.93867 0.54667,-1.104 0.804,-2.32133 1.08934,-3.528 0.2,-0.83866 1.19733,-3.144 0.92666,-3.88533 -0.12666,-0.35067 -0.29333,-0.68133 -0.412,-1.03333 -0.116,-0.34667 -1.27333,-1.148 -1.49866,-1.47334 -3.344,-4.80933 -10.84667,-7.10533 -16.46134,-7.02933 -1.63466,0.0227 -3.14133,0.38933 -4.70933,0.65467 -5.536,0.936 -12.31333,0.76266 -17.42133,3.30933 -0.35734,-2.83067 1.176,-6.04 1.63066,-8.83333 0.464,-2.85734 0.76934,-5.83067 1.036,-8.652 0.404,-4.272 0.61334,-8.98534 3.20934,-12.55867 -0.464,3.59333 -0.692,9.11733 1.29866,12.312 3.35867,5.38933 7.98,5.72133 13.67867,5.38 4.36,-0.26267 8.76267,-0.92 13.11867,-0.236 3.512,0.552 6.79733,3.488 10.04133,4.95467 3.32267,1.50266 9.14,2.23866 10.696,-1.98134 0.55867,-1.51466 0.78667,-3.252 0.86133,-4.884 0.24534,-5.32 -0.684,-10.63333 -1.20266,-15.852 -0.172,-1.719996 -0.59467,-3.550662 -0.71867,-5.317329 0.0653,0.933333 0.30533,1.813333 0.65733,2.66 0.18534,0.446667 0.33334,0.773333 0.40934,1.252 0.36266,1.859999 0.66666,3.738669 0.94266,5.617329 0.50534,3.43734 0.96134,6.94267 0.92934,10.432 -0.016,1.74134 -0.11067,3.46534 -0.20267,5.208 -0.044,0.83467 -0.048,1.68 0.068,2.50934"
       style="opacity:0.199997;fill:#000000;fill-opacity:1;fill-rule:nonzero;stroke:none;stroke-width:1.33333"
       id="path1723" />
    <path
       d="m 274.28986,130.72747 h -4.10667 c 0,0 -0.11333,6.516 13.34667,12.17334 7.20133,3.02666 12.17333,-3.56267 12.17333,-3.56267 l -1.32,-5.048 c 0,0 -2.93333,-2.82 -7.04,-3.26533 -4.10666,-0.44534 -13.05333,-0.29734 -13.05333,-0.29734"
       style="fill:#ffffff;fill-opacity:1;fill-rule:nonzero;stroke:none;stroke-width:1.33333"
       id="path1733" />
    <path
       d="m 292.68399,141.87787 c 0.67467,-1.36666 2.76534,-5.844 1.26134,-7.75866 -1.504,-1.916 -9.652,-3.27467 -12.51467,-3.32267 -2.86267,-0.0493 -8.31333,-0.39067 -8.31333,-0.39067 0,0 -1.70134,3.30134 -0.44,4.80134 1.26133,1.5 9.28666,7.276 11.81066,7.768 2.52267,0.49066 7.808,-0.312 8.196,-1.09734"
       style="fill:#000000;fill-opacity:1;fill-rule:nonzero;stroke:none;stroke-width:1.33333"
       id="path1737" />
    <path
       d="m 290.66159,140.96734 c 0.612,-1.156 2.508,-4.94533 1.144,-6.56667 -1.364,-1.62 -8.104,-3.364 -10.696,-3.52 -3.28133,-0.196 -5.52533,-0.34933 -5.52533,-0.34933 0,0 -1.37867,4.70133 -0.23467,6.28 1.144,1.57867 6.776,4.82133 9.064,5.236 2.288,0.416 5.896,-0.41467 6.248,-1.08"
       style="fill:#fbb03b;fill-opacity:1;fill-rule:nonzero;stroke:none;stroke-width:1.33333"
       id="path1741" />
    <path
       d="m 282.93173,137.15281 c -1.04667,3.16533 -0.376,5.58666 1.26533,5.96 1.64,0.37333 3.15867,-2.04934 3.392,-5.412 0.23333,-3.36267 -0.908,-6.392 -2.548,-6.76534 -1.64133,-0.37333 -1.06267,3.052 -2.10933,6.21734"
       style="fill:#000000;fill-opacity:1;fill-rule:nonzero;stroke:none;stroke-width:1.33333"
       id="path1745" />
    <path
       d="m 285.06973,133.80801 c 0,1.104 -0.888,2.028 -1.98267,2.06266 -1.09467,0.0347 -1.98267,-0.832 -1.98267,-1.93733 0,-1.104 0.888,-2.028 1.98267,-2.06267 1.09467,-0.0347 1.98267,0.83334 1.98267,1.93734"
       style="fill:#ffffff;fill-opacity:1;fill-rule:nonzero;stroke:none;stroke-width:1.33333"
       id="path1749" />
    <path
       d="m 234.75306,97.311608 c -0.25733,0.28 -0.516,0.56 -0.78667,0.856 0.28267,-0.266667 0.54,-0.556 0.78667,-0.856"
       style="opacity:0.199997;fill:#000000;fill-opacity:1;fill-rule:nonzero;stroke:none;stroke-width:1.33333"
       id="path1759" />
    <path
       d="m 223.77479,71.210008 c -0.24266,-1.885333 -0.948,-3.648 -2.22266,-5.077333 -1.79334,-2.012 -4.012,-3.558667 -6.29867,-4.957333 -1.15733,-0.708 -2.392,-1.330667 -3.508,-2.101333 -0.93867,-0.648 -1.50667,-1.589334 -2.30933,-2.373334 -0.612,-0.597333 -1.256,-1.162666 -1.92134,-1.702666 -1.088,-0.882667 -2.06533,-1.597334 -3.296,-2.245334 -1.95866,-1.029333 -3.476,-2.458666 -5.03199,-3.982666 -1.09867,-1.076 -1.912,-2.26 -3.14534,-3.254667 -0.99066,-0.798666 -2.06933,-1.472 -3.1,-2.213333 -0.75466,-0.542667 -1.308,-1.266667 -2.02133,-1.813333 -0.88533,-0.677334 -2.17867,-1.049334 -3.16133,-1.605334 -0.97067,-0.549333 -1.936,-1.118666 -2.98667,-1.505333 -0.284,-0.104 -0.86133,-0.226667 -1.12133,-0.036 -0.536,0.394667 -0.20667,1.630667 -0.244,2.189333 -0.0347,0.521334 -0.0627,1.044 -0.0973,1.565334 -0.009,0.14 -0.19066,1.316 -0.12,1.36 -0.34266,-0.216 -0.82666,-1.130667 -1.228,-0.852 -1.11333,0.769333 -1.22666,4.661333 -1.36933,5.917333 -0.32933,2.848 -0.048,5.649333 -0.23333,8.486666 -0.27867,-0.262666 -0.38534,-0.704 -0.54534,-1.084 -0.968,0.852 -1.03866,3.862667 -1.15466,5.18 -0.172,1.94 -0.064,3.668 0.23466,5.533333 0.43867,2.753334 1.768,5.173334 2.26267,7.781333 -0.464,-0.06533 -0.852,-0.468 -1.336,-0.516 -0.47067,2.934667 0.96667,6.12 2.208,8.437334 0.92533,1.728 2.67467,3.434666 3.26133,5.354666 -0.66266,0.04667 -1.27066,-0.714667 -1.84933,-0.953333 -0.316,2.309333 2.58667,5.56 3.71867,6.982666 1.704,2.138667 4.14533,3.802667 5.648,6.110667 -0.468,0.072 -0.96667,-0.05067 -1.29067,-0.393333 0.64133,0.676002 0.89067,1.798662 1.49333,2.553332 1.19067,1.49467 2.74134,2.53333 4.16534,3.71867 1.30933,1.08933 2.92533,2.164 3.91466,3.648 0.76667,1.15066 1.24,2.656 2.34267,3.47066 0.79866,-1.99733 2.35733,1.78 2.56533,2.476 0.0787,-0.524 0.35467,-1.004 0.30933,-1.53866 0.66,1.07866 1.22934,2.13733 1.35467,3.324 -0.584,-9.15734 -0.112,-20.710669 4.65467,-28.982669 1.20133,-2.084 5.78133,-3.072 7.29333,-4.685333 2.91867,-3.113333 4.712,-7.976 4.16533,-12.216"
       style="fill:#cd976d;fill-opacity:1;fill-rule:nonzero;stroke:none;stroke-width:1.33333"
       id="path1769" />
    <path
       d="m 216.54906,61.049208 c -1.12533,-0.748 -2.25733,-1.487999 -3.32133,-2.323999 -3.47867,-2.732 -6.33867,-6.578667 -10.37067,-8.557334 -0.0253,0.133334 -0.18533,0.292 -0.216,0.42 -1.20267,-0.848 -2.09467,-2.162666 -3.18666,-3.152 -1.24134,-1.125333 -2.50934,-2.221333 -3.80134,-3.285333 -2.72,-2.241333 -5.57466,-4.346666 -8.448,-6.370666 -1.196,-0.842667 -3.668,-2.508 -4.71733,-0.594667 -0.268,0.488 -0.26133,1.313333 -0.32267,1.861333 -0.0733,0.649334 -0.11866,1.302667 -0.16,1.954667 -0.28,0.048 -0.58,0.162667 -0.73866,0.3 -1.05067,0.804 -1.43867,2.325333 -1.58534,3.137333 -0.65066,3.441333 -0.62933,6.954667 -0.684,10.241333 -1.61333,1.682667 -1.46533,3.832 -1.696,5.862667 -0.61733,4.157333 0.548,7.989333 1.70667,11.689333 -0.176,-0.01867 -0.308,-0.03333 -0.308,-0.03333 -1.03467,4.415999 0.568,8.365333 2.58,11.734666 0.18667,0.297333 0.63067,0.665333 0.568,1.094667 -0.024,0.162666 -0.48267,0.772 -0.49733,0.5 0.204,4.011999 2.88666,6.671999 4.99733,9.450666 1.64533,1.901333 3.47333,3.242667 4.85067,4.849333 0,0 -0.45734,0.557333 -0.45734,0.557333 0.3,0.26266 0.58,0.96 1.02934,1.76266 1.424,2.176 3.44133,3.22934 5.23866,4.728 1.19334,0.90934 2.372,1.72267 3.22267,2.784 0.56933,0.70934 0.936,1.584 1.43733,2.35067 0.53867,0.82133 1.22667,1.44267 1.53867,2.44 0.30666,-0.41867 0.52533,-1.028 0.69866,-1.55333 -0.22133,0.67066 1.77067,3.124 2.02134,3.844 0.39333,-0.412 0.30533,-1.37467 0.424,-1.93467 0.67066,0.60533 1.272,1.56267 1.65733,2.416 -0.25467,-1.23867 -0.34933,-2.288 -0.92533,-3.37733 -0.49334,-0.936 -1.71867,-2.19467 -1.89467,-3.28134 0,0 0.18533,1.14934 0.344,2.128 -0.24,-0.37066 -0.51467,-0.724 -0.90267,-1.03733 -0.34133,-0.26 -0.79333,-0.196 -1.18266,0.06 -0.676,-0.81067 -1.11334,-2.092 -1.96534,-3.29867 -1.012,-1.37333 -2.26266,-2.29333 -3.37066,-3.23733 -1.476,-1.34533 -3.30133,-2.52667 -4.39867,-4.16667 0.56,-0.068 1.19334,-0.144 1.19334,-0.144 -2.50267,-4.522659 -6.48134,-7.095993 -8.97867,-11.146659 -0.1,-0.146667 -0.208,-0.325334 -0.31467,-0.505334 0.55867,-0.016 1.624,-0.048 1.624,-0.048 0,0 -0.67066,-2.064 -0.67066,-2.064 -0.756,-2.247999 -1.98,-3.399999 -3.04534,-5.091999 -0.984,-1.670667 -2.04533,-3.929334 -2.33733,-5.989334 0.564,0.09067 1.77067,0.282667 1.77067,0.282667 -0.42534,-3.216 -1.68534,-6.213333 -2.49734,-9.1 -0.564,-2.518666 -0.588,-5.405333 -0.18933,-8.123999 l 1.29733,1.230666 c 0,0 0.20134,-3.296 0.20134,-3.296 0.21066,-4.217333 -0.17867,-8.353333 0.70133,-12.162666 l 1.80667,1.266667 c 0,0 0.284,-2.552 0.284,-2.552 -0.0147,-0.66 0.156,-1.22 0.0107,-1.874667 -0.57866,-2.598667 5.30534,0.714667 5.98667,1.236 2.40133,1.838667 4.32533,4.269333 6.54533,6.309333 1.57734,1.450667 3.184,2.865333 4.77333,4.289333 0.564,0.504 1.42134,1.454667 2.196,1.546667 0.264,0.03067 0.43334,-0.18 0.74934,-0.12 0.59466,0.113333 1.37066,0.714667 1.86666,1.037333 1.67867,1.094667 3.55734,2.269334 4.9,3.766667 1.204,1.341333 2.94267,2.034666 4.46667,2.981333 1.92933,1.197333 3.8,2.592 5.33467,4.398667 0.59733,0.704 1.28933,1.470666 1.792,2.266666 0.54666,0.865334 0.62533,1.968 1.10266,2.872 1.01067,-0.852 0.544,-3.262666 0.20267,-4.402666 -0.124,0.310666 -0.22,0.590666 -0.30933,0.9 0.14266,-0.497334 -1.84134,-2.734667 -2.19334,-3.165334 -0.78666,-0.966666 -1.672,-1.82 -2.652,-2.592 -0.89333,-0.704 -1.83466,-1.338666 -2.78133,-1.968"
       style="fill:#000000;fill-opacity:1;fill-rule:nonzero;stroke:none;stroke-width:1.33333"
       id="path1773" />
    <path
       d="m 208.57386,69.497875 c -1.92533,-1.397333 -3.34267,-3.610667 -5.19733,-5.124 -1.13334,-0.925333 -2.21067,-1.64 -3.416,-2.406667 -0.19333,0.197334 -0.344,0.473334 -0.564,0.654667 -1.29333,-1.593333 -2.34933,-3.346666 -3.648,-4.932 -1.284,-1.565333 -2.72,-2.777333 -4.268,-4.049333 -1.53467,-1.261333 -3.15467,-2.586667 -4.96933,-3.405333 -0.57067,-0.258667 -2.09067,-1.022667 -2.696,-0.368 -0.51067,0.552 -0.196,2.562666 -0.252,3.28 -0.11734,1.512 -0.18534,3.030666 -0.0787,4.545333 0.18133,2.597333 1.18267,5.502666 0.888,8.124 -0.95733,0.164 -1.00133,-0.941334 -1.81733,-1.089334 -0.984,5.561334 3.82133,8.466667 4.30666,13.216 -3.01333,-0.76 0.47334,4.848 0.928,5.693333 1.34934,2.506667 2.56267,5.178667 3.672,7.878667 -0.35866,-0.064 -0.832,0.110666 -1.196,0.048 0.512,3.404 4.452,5.673333 6.15334,8.306666 2.46266,3.813336 4.67199,8.123996 7.92533,11.158666 1.02266,0.95467 2.064,2.09067 3.17333,3.06667 -0.288,-8.58134 0.53733,-18.590669 4.79867,-25.984002 1.20133,-2.084 5.78133,-3.072 7.29333,-4.684 0.0973,-0.104 0.18133,-0.225333 0.276,-0.332 -0.86933,-1.709333 -1.85733,-3.345333 -2.75067,-5.033333 -0.46,-0.872 -1.10133,-1.58 -1.70266,-2.390667 -0.98,-1.32 -1.80667,-2.833333 -3.02,-3.944 -0.652,-0.597333 -1.47867,-1.594666 -2.31867,-1.872 -0.31467,-0.104 -0.432,0.02533 -0.67067,-0.0027 -0.53333,-0.06133 -0.17066,0.122666 -0.73066,-0.270667 -0.04,-0.028 -0.08,-0.056 -0.11867,-0.084"
       style="opacity:0.199997;fill:#000000;fill-opacity:1;fill-rule:nonzero;stroke:none;stroke-width:1.33333"
       id="path1783" />
    <path
       d="m 295.79906,167.33534 c 0.496,1.24 9.66267,5.27067 15.81067,5.27067 6.14933,0 18.22666,-1.31734 18.66533,-3.51334 0.44,-2.196 -0.21867,-5.49066 -0.65867,-7.24666 0,0 0.65867,3.07333 -2.63466,4.61066 -3.29334,1.53734 -5.92934,-1.09733 -10.32134,-1.09733 -4.392,0 -9.00266,1.976 -12.07733,1.53733 -3.07467,-0.44 -7.32667,-0.72266 -7.50667,-3.216 0,0 -1.716,2.55734 -1.27733,3.65467"
       style="opacity:0.300003;fill:#000000;fill-opacity:1;fill-rule:nonzero;stroke:none;stroke-width:1.33333"
       id="path1799" />
    <path
       d="m 279.78479,186.74921 c 4.93734,3.128 15.744,2.276 21.81867,1.66266 3.27867,-0.33066 6.628,-1.02933 10.05467,-0.596 3.172,0.40134 6.20933,1.39467 9.58933,1.51734 4.09467,0.148 7.91467,-0.0107 11.58667,-1.22267 -0.0133,0.004 -0.61334,1.76533 -0.72267,1.95467 -0.26533,0.45466 -0.59467,0.88666 -0.89467,1.31866 -0.65466,0.944 -1.33066,1.87867 -2.08933,2.74267 -1.47733,1.68533 -3.62,3.06 -5.984,2.60667 -0.17067,-1.60667 0.092,-2.296 -1.55733,-3.13867 -2.64,-1.348 -4.92134,-1.30133 -7.788,-1.26 -4.49734,0.0667 -8.972,-0.68267 -13.49867,-0.452 -4.14667,0.212 -8.29067,0.572 -12.44533,0.56667 -1.69467,-0.001 -3.216,0.54266 -4.828,0.972 -0.68934,0.184 -1.92934,0.52533 -2.27067,1.25066 -0.332,0.70534 0.24,1.788 -1.09733,1.55467 -0.66667,-0.11733 -1.21067,-1.072 -1.54934,-1.58 -0.952,-1.424 -1.532,-3.284 -1.97866,-4.996 -0.2,-0.76933 -1.07334,-2.496 -0.464,-3.23333 0.41466,-0.50267 1.088,-0.23334 1.62533,-0.11334 0.516,0.11467 2.11733,0.208 2.49333,0.44534"
       style="fill:#000000;fill-opacity:1;fill-rule:nonzero;stroke:none;stroke-width:1.33333"
       id="path1809" />
    <path
       d="m 320.66533,197.91401 c -0.44134,1.424 -2.73067,2.66533 -4.56134,2.77466 0.052,-0.51333 -0.11333,-1.064 -0.0173,-1.58533 -2.54267,1.10133 -5.70533,1.912 -8.55067,2.25733 0.052,-0.74267 0.31867,-1.50266 0.156,-2.26133 -1.82133,0.716 -3.544,1.992 -5.412,2.428 0.0333,-0.392 -0.30266,-0.76134 -0.29066,-1.14 -1.18934,0.14266 -2.39067,1.45066 -3.08134,0.16533 -1.46133,0.252 -2.28,1.044 -3.71066,0.932 -1.10934,-0.088 -2.45867,-0.868 -3.37467,-1.30133 -1.208,-0.57333 -2.22,-1.532 -3.64,-0.624 -1.29867,-0.624 -2.28667,-1.78533 -3.69467,-2.37333 3.30934,1.384 8.26,-0.75734 11.744,-0.89334 4.97734,-0.19466 9.96934,-0.832 14.948,-0.14933 0.68,0.0933 9.60534,1.29467 9.48534,1.77067"
       style="opacity:0.199997;fill:#000000;fill-opacity:1;fill-rule:nonzero;stroke:none;stroke-width:1.33333"
       id="path1819" />
    <path
       d="m 277.42573,189.01667 c -2.17467,-1.704 -3.32667,-5.14133 -3.57467,-7.38933 -0.32667,-2.96133 -0.39867,-5.82 0.772,-8.66133 1.70267,-4.128 4.34667,-7.21334 8.50267,-9.22934 -0.332,1.528 -1.71467,2.884 -2.228,4.504 -0.75467,2.38267 -0.75334,5.17734 -0.756,7.68934 -0.005,4.14266 1.89866,7.22 3.45333,10.908 0.66267,1.57333 1.42,1.48133 -0.56,2.48666 -2.32933,1.18 -4.188,0.80534 -5.60933,-0.308"
       style="opacity:0.199997;fill:#000000;fill-opacity:1;fill-rule:nonzero;stroke:none;stroke-width:1.33333"
       id="path1835" />
    <path
       d="m 336.25119,185.32654 c -1.776,4.24133 -6.308,7.016 -10.284,9.40933 0.72,-2.63466 1.70667,-3.51333 3.37067,-5.592 1.78133,-2.22666 3.156,-4.74533 4.27333,-7.29866 1.69067,-3.86 0.36667,-7.708 0.49333,-11.64134 1.21867,2.34 1.88,4.83867 2.16,7.45867 0.29867,2.776 0.97334,5.308 -0.0133,7.664"
       style="opacity:0.199997;fill:#000000;fill-opacity:1;fill-rule:nonzero;stroke:none;stroke-width:1.33333"
       id="path1851" />
    <path
       d="m 292.77013,140.65707 c -3.37334,1.80534 -8.06267,3.74934 -19.06667,-5.01333 -2.03333,-1.61867 -2.75867,-3.992 -2.916,-4.59733 7.32133,-0.60267 17.80533,0.75066 20.36933,2.42533 3.37334,2.20267 4.98667,5.38 1.61334,7.18533 m 8.8,-0.86133 c -1.40667,-0.58533 -3.048,-1.88533 -3.92267,-3.13467 -1.92267,-2.74666 0.38133,-4.33466 2.26533,-5.996 -3.20266,1.90267 -10.916,-2.51466 -15.40266,-3.69466 -6.828,-1.79467 -14.76667,0.49066 -14.76667,0.49066 0,0 13.896,-0.75733 19.13067,2.87734 -4.73867,-0.91734 -11.17867,-1.52934 -16.87334,-0.92134 -1.89866,0.20267 -3.368,0.7 -4.164,1.556 0,0 0.45067,0.007 1.21467,0.024 0.204,0.77734 2.14,6.92 13.164,11.67334 7.59867,3.276 11.43467,-0.19867 13.048,-1.624 1.61333,-1.424 3.08,-2.112 4.84,-0.56267 1.76,1.55067 3.81333,0.29067 1.46667,-0.688"
       style="fill:#000000;fill-opacity:1;fill-rule:nonzero;stroke:none;stroke-width:1.33333"
       id="path1861" />
    <path
       d="m 342.71372,136.60201 c -0.12,2.46133 -2.27466,5.168 -6.584,4.06666 -4.30933,-1.10133 -9.81733,-1.96133 -11.13333,-1.85333 -0.87333,0.0733 -1.79066,-1.016 -2.31466,-1.71067 2.34,-2.64533 7.452,-5.628 13.08666,-6.17333 2.48667,-0.24133 4.32533,-0.30133 5.652,-0.28533 0.45333,1.38133 1.37867,4.20933 1.29333,5.956"
       style="fill:#ffffff;fill-opacity:1;fill-rule:nonzero;stroke:none;stroke-width:1.33333"
       id="path1869" />
    <path
       d="m 326.68133,133.60507 c 0,0 -0.92,3.43734 0.34533,5.63734 0,0 7.24266,2.03466 9.08133,2.69866 1.84,0.664 5.51867,-0.0173 6.208,-1.30666 0.69067,-1.29067 0.46,-9.948 -0.22933,-10.79334 -0.68934,-0.84666 -5.63334,-0.22933 -9.54267,1.21734 -3.908,1.44666 -5.86266,2.54666 -5.86266,2.54666"
       style="fill:#000000;fill-opacity:1;fill-rule:nonzero;stroke:none;stroke-width:1.33333"
       id="path1873" />
    <path
       d="m 328.56559,133.51334 c 0,0 -0.93333,4.23867 0.17467,6.44533 0,0 6.47066,1.272 8.08133,1.948 1.612,0.67467 4.83333,0.016 5.43733,-1.27066 0.60534,-1.28534 0.404,-9.944 -0.20133,-10.79467 -0.604,-0.84933 -4.93333,-0.26267 -8.35733,1.16133 -3.42267,1.42267 -5.13467,2.51067 -5.13467,2.51067"
       style="fill:#fbb03b;fill-opacity:1;fill-rule:nonzero;stroke:none;stroke-width:1.33333"
       id="path1877" />
    <path
       d="m 335.23799,136.57907 c -1.16533,3.216 -0.41867,5.60534 1.40933,5.89734 1.828,0.292 3.52,-2.20667 3.78,-5.58 0.25867,-3.37467 -1.012,-6.34667 -2.84,-6.63867 -1.828,-0.29333 -1.184,3.10533 -2.34933,6.32133"
       style="fill:#000000;fill-opacity:1;fill-rule:nonzero;stroke:none;stroke-width:1.33333"
       id="path1881" />
    <path
       d="m 341.74186,136.76721 c -0.11467,2.392 -1.708,5.10533 -5.91334,4.39733 -6.51999,-1.096 -9.26266,-2.27333 -10.52666,-2.16933 -0.83867,0.0693 -1.72,-1.01867 -2.22267,-1.692 2.24667,-2.58 7.156,-5.50667 12.568,-6.064 1.13867,-0.11734 2.28,-0.21067 3.42267,-0.26134 0.46133,-0.0213 0.86933,-0.15733 1.28666,0.0933 1.608,0.964 1.468,3.988 1.38534,5.696 m 2.852,-6.35467 1.63066,-2.184 c 0,0 -10.70933,0.71733 -13.89466,1.58667 -3.18533,0.86933 -7.83333,4.01733 -9.09733,4.98533 -1.05334,0.808 -1.784,3.576 -1.33467,3.51333 0.0667,0.51867 0.308,1.14134 0.87467,1.87734 1.95466,2.54266 2.3,1.17733 1.95466,0.0307 -0.34533,-1.14666 6.18667,1.14667 10.96,2.38134 3.71733,0.96133 7.204,-0.95734 7.77867,-3.232 0.57466,-2.27467 1.41333,-7.84134 1.864,-8.55867 0.13066,-0.20667 -0.204,-0.32933 -0.736,-0.4"
       style="fill:#000000;fill-opacity:1;fill-rule:nonzero;stroke:none;stroke-width:1.33333"
       id="path1885" />
    <path
       d="m 324.15213,134.66107 c 0,0 3.276,-4.988 9.41733,-6.876 6.14266,-1.888 11.49733,-2.32933 11.49733,-2.32933 l -0.444,1.88 c 0,0 -8.656,0.94267 -10.816,1.812 -2.16,0.86933 -9.65466,5.51333 -9.65466,5.51333"
       style="fill:#000000;fill-opacity:1;fill-rule:nonzero;stroke:none;stroke-width:1.33333"
       id="path1889" />
    <path
       d="m 336.59746,134.23267 c 0,1.02667 -0.82534,1.88534 -1.84267,1.91734 -1.01867,0.0333 -1.844,-0.77334 -1.844,-1.8 0,-1.028 0.82533,-1.88667 1.844,-1.91867 1.01733,-0.032 1.84267,0.77467 1.84267,1.80133"
       style="fill:#ffffff;fill-opacity:1;fill-rule:nonzero;stroke:none;stroke-width:1.33333"
       id="path1893" />
    <path
       d="m 327.00786,123.87854 c 1.724,-1.356 3.316,-2.86133 5.14933,-4.104 1.31733,-0.89333 2.868,-0.652 4.46667,-0.67067 3.00533,-0.0347 6.50933,-0.57733 9.112,-2.236 2.58266,-1.64666 1.41333,-6.04266 1.316,-8.48 -0.124,-3.112 -1.76134,-5.592 -2.42934,-8.631996 -0.69333,-3.156 -2.808,-6.973333 -2.36933,-10.218666 0.62667,1.341333 1.74133,2.368 2.38533,3.710666 1.132,2.365334 2.15334,5.117334 2.60934,7.702666 1.25733,7.12933 7.05066,17.52 0.652,23.60267 -1.27734,1.21466 -2.21334,1.85066 -3.87734,2.00666 -3.10666,0.292 -6.088,0.592 -9.08933,1.60934 -1.848,0.62533 -3.94,0.82 -5.536,1.99466 -1.91466,1.40667 -3.632,3.07334 -5.47466,4.57067 -0.812,0.65867 -1.90534,1.41333 -2.108,2.47333 -0.14,0.728 0.508,2.87467 0.91333,3.31467 1.97333,2.14 6.788,1.43867 9.43733,2.59067 1.70533,0.74133 3.41333,1.524 5.324,1.624 1.10933,0.0587 3.39067,-0.54534 3.64133,1.02533 0.13067,0.812 -0.93466,2.376 -1.50666,2.9 -1.744,1.6 -4.73734,0.684 -6.664,0.20133 -1.15333,-0.288 -2.344,-0.55066 -3.47333,-0.924 -0.896,-0.296 -1.784,-0.79066 -2.64934,-1.18 -0.99466,-0.44666 -2.04,-0.72933 -3.05733,-1.10133 -0.59067,-0.216 -1.98667,-0.444 -2.344,-0.97067 -0.588,-0.86666 -0.34933,-2.21066 -0.73867,-3.152 -0.28533,-0.688 -0.53733,-1.356 -0.68133,-2.05733 -0.216,-1.04267 -0.19733,-2.07867 -0.27867,-3.15333 -0.0493,-0.66267 -0.272,-1.308 -0.44933,-1.94534 -0.30533,-1.1 -0.1,-2.192 -0.53333,-3.26266 -0.45734,-1.13334 -1.15734,-2.168 -1.53867,-3.332 0.7,-0.04 1.444,0.0307 2.11867,-0.068 0.87333,-0.128 1.76266,-0.50534 2.60666,-0.77334 1.31467,-0.41866 2.292,-1.112 3.44267,-1.87866 0.56,-0.37334 1.09867,-0.77334 1.624,-1.18667"
       style="opacity:0.199997;fill:#000000;fill-opacity:1;fill-rule:nonzero;stroke:none;stroke-width:1.33333"
       id="path1903" />
    <path
       d="m 283.86293,172.01041 c -0.98534,0.97466 -2.27867,0.624 -3.47734,0.87866 -17.42933,3.82934 -34.91733,9.344 -49.88533,19.29467 -0.0533,0.0427 -0.12133,-0.048 -0.064,-0.088 14.668,-10.59067 32.25067,-16.25467 49.75467,-20.14 1.204,-0.25067 2.296,-1.068 3.57866,-0.49733 0.20534,0.10133 0.25334,0.388 0.0933,0.552"
       style="fill:#cccccc;fill-opacity:1;fill-rule:nonzero;stroke:none;stroke-width:1.33333"
       id="path1913" />
    <path
       d="m 284.41159,177.30067 c -0.49466,0.512 -1.04,0.50667 -1.58533,0.56667 -8.19067,0.592 -16.228,3.17333 -23.86533,6.11733 -8.19867,3.19867 -15.884,7.772 -22.276,13.86134 -0.0453,0.0507 -0.128,-0.0267 -0.0773,-0.0773 11.70534,-12.02266 28.12534,-18.14533 44.424,-20.796 1.12667,-0.17466 2.18667,-0.90266 3.332,-0.22933 0.19067,0.12267 0.21334,0.40267 0.048,0.55733"
       style="fill:#cccccc;fill-opacity:1;fill-rule:nonzero;stroke:none;stroke-width:1.33333"
       id="path1917" />
    <path
       d="m 283.94213,182.12881 c -0.71334,0.85733 -1.65334,0.41466 -2.55734,0.57066 -12.95066,2.388 -25.12666,8.26534 -35.91466,15.71467 -0.052,0.0427 -0.12267,-0.0453 -0.0653,-0.0867 10.82534,-8.54666 23.628,-14.22933 37.10667,-16.964 0.52,-0.208 1.87867,0.007 1.43067,0.76534"
       style="fill:#cccccc;fill-opacity:1;fill-rule:nonzero;stroke:none;stroke-width:1.33333"
       id="path1921" />
    <path
       d="m 298.32799,173.28574 c -0.49466,0.54267 -1.07066,0.57333 -1.64,0.66133 -8.58,1.03334 -16.96,3.69734 -25.15066,6.408 -8.73734,3.004 -17.252,6.80667 -24.86267,12.10134 -0.0533,0.0427 -0.12267,-0.048 -0.064,-0.088 14.07467,-10.412 31.18533,-15.75467 48.164,-19.224 1.17067,-0.224 2.23867,-1.01334 3.47067,-0.412 0.2,0.108 0.24266,0.39066 0.0827,0.55333"
       style="fill:#cccccc;fill-opacity:1;fill-rule:nonzero;stroke:none;stroke-width:1.33333"
       id="path1925" />
    <path
       d="m 298.93519,178.73854 c -0.48933,0.49733 -1.01733,0.47867 -1.54533,0.524 -7.93867,0.38133 -15.77067,2.79067 -23.17067,5.608 -7.95733,3.05467 -15.368,7.57067 -21.44266,13.584 -0.044,0.052 -0.12934,-0.0227 -0.0787,-0.0747 11.09867,-11.912 27.128,-17.832 42.968,-20.056 1.09733,-0.148 2.14133,-0.84666 3.236,-0.144 0.184,0.13067 0.2,0.40667 0.0333,0.55867"
       style="fill:#cccccc;fill-opacity:1;fill-rule:nonzero;stroke:none;stroke-width:1.33333"
       id="path1929" />
    <path
       d="m 298.54679,183.68641 c -0.37466,0.492 -0.788,0.46933 -1.208,0.50933 -6.31466,0.33067 -12.44666,2.72267 -18.27066,5.08933 -6.24267,2.64934 -12.22267,6.06134 -17.732,10.01334 -0.052,0.0427 -0.124,-0.044 -0.0653,-0.088 10.37467,-8.41467 22.79734,-13.93334 35.90667,-16.32534 0.51333,-0.19733 1.82267,0.0573 1.36933,0.80134"
       style="fill:#cccccc;fill-opacity:1;fill-rule:nonzero;stroke:none;stroke-width:1.33333"
       id="path1933" />
    <path
       d="m 330.87159,176.94307 c 0.95067,-0.6 1.684,0.164 2.55067,0.38667 12.284,3.272 24.80133,8.264 33.52533,17.85333 0.0467,0.0493 -0.0333,0.12667 -0.08,0.0733 -4.78,-4.87334 -10.72267,-8.34267 -16.88267,-11.16134 -5.79733,-2.49333 -11.816,-5.004 -18.06799,-5.95866 -0.58934,-0.012 -1.62934,-0.64 -1.04534,-1.19334"
       style="fill:#cccccc;fill-opacity:1;fill-rule:nonzero;stroke:none;stroke-width:1.33333"
       id="path1937" />
    <path
       d="m 329.03519,181.73054 c 0.83067,-0.692 1.576,-0.008 2.4,0.14533 11.60533,2.09067 23.472,7.75467 29.268,18.50267 0.0347,0.0587 -0.06,0.11466 -0.096,0.0533 -3.304,-5.38666 -8.22667,-9.55333 -13.81467,-12.41466 -5.18666,-2.584 -10.888,-4.84 -16.70266,-5.204 -0.38533,-0.0427 -0.77333,-0.0267 -1.10533,-0.52534 -0.128,-0.172 -0.10534,-0.416 0.0507,-0.55733"
       style="fill:#cccccc;fill-opacity:1;fill-rule:nonzero;stroke:none;stroke-width:1.33333"
       id="path1941" />
    <path
       d="m 328.15239,186.09707 c 0.37867,-0.42133 0.69867,-0.31066 1.012,-0.24 4.54533,1.31467 9.144,2.70934 13.21733,5.23067 4.332,2.59867 8.104,6.02933 11.35334,9.868 0.0453,0.0507 -0.0347,0.12533 -0.0813,0.0733 -5.14,-5.40533 -11.44,-9.73466 -18.42533,-12.36 -2.03333,-0.64933 -4.12666,-1.57066 -6.27866,-1.50933 -0.304,-0.0387 -0.604,-0.0133 -0.848,-0.50533 -0.10534,-0.18 -0.0853,-0.40934 0.0507,-0.55734"
       style="fill:#cccccc;fill-opacity:1;fill-rule:nonzero;stroke:none;stroke-width:1.33333"
       id="path1945" />
    <path
       d="m 322.84413,177.38281 c 0.46266,-0.444 0.90666,-0.35467 1.344,-0.30267 1.276,0.36267 2.59333,0.44667 3.896,0.66933 11.13599,1.77067 22.22399,6.796 29.29199,15.82267 0,0 1.59734,2.06133 1.59734,2.06133 0.0173,0.0227 0.0133,0.0573 -0.0107,0.076 -0.0227,0.0173 -0.06,0.009 -0.0787,-0.012 l -1.676,-1.98533 c -7.968,-9.10133 -19.964,-14.064 -31.82533,-15.37867 -0.89733,-0.0933 -1.788,0.41867 -2.54933,-0.39066 -0.14933,-0.15734 -0.14667,-0.41067 0.0107,-0.56"
       style="fill:#cccccc;fill-opacity:1;fill-rule:nonzero;stroke:none;stroke-width:1.33333"
       id="path1949" />
    <path
       d="m 323.50253,182.86841 c 0.46266,-0.444 0.90666,-0.35467 1.344,-0.30267 1.276,0.36267 2.59333,0.44667 3.896,0.66933 11.13599,1.77067 22.22399,6.796 29.29199,15.82267 0,0 1.59734,2.06133 1.59734,2.06133 0.0173,0.0227 0.0133,0.0573 -0.0107,0.076 -0.0227,0.0173 -0.06,0.009 -0.0787,-0.012 l -1.676,-1.98533 c -7.968,-9.10133 -19.964,-14.06267 -31.82533,-15.37867 -0.89733,-0.0933 -1.788,0.41867 -2.54933,-0.39066 -0.14933,-0.15734 -0.14667,-0.41067 0.0107,-0.56"
       style="fill:#cccccc;fill-opacity:1;fill-rule:nonzero;stroke:none;stroke-width:1.33333"
       id="path1953" />
    <path
       d="m 321.30826,185.94041 c 0.46267,-0.444 0.90667,-0.35467 1.344,-0.30267 1.276,0.36267 2.59333,0.44667 3.896,0.66933 11.136,1.77067 22.224,6.796 29.292,15.82267 0,0 1.59733,2.06133 1.59733,2.06133 0.0173,0.0227 0.0133,0.0573 -0.0107,0.076 -0.0227,0.0173 -0.06,0.009 -0.0787,-0.012 l -1.676,-1.98533 c -7.968,-9.10133 -19.964,-14.06267 -31.82533,-15.37867 -0.89734,-0.0933 -1.788,0.41867 -2.54934,-0.39066 -0.14933,-0.15734 -0.14666,-0.41067 0.0107,-0.56"
       style="fill:#cccccc;fill-opacity:1;fill-rule:nonzero;stroke:none;stroke-width:1.33333"
       id="path1957" />
    <path
       d="m 254.30946,221.49094 c 0,0 -0.0453,-8.94667 -0.0453,-8.948 -0.288,-3.45867 2.01466,-6.20667 2.548,-9.432 -1.62934,1.336 -2.70667,3.02533 -3.5,4.95066 -0.25334,-0.85866 -0.53067,-1.712 -0.85467,-2.57733 0,0 -1.25067,-3.196 -1.25067,-3.196 l -1.18266,3.31067 c -1.10934,3.09066 -1.69334,6.36666 -1.91467,9.64933 -1.62,-2.38267 -3.01333,-5.108 -4.88267,-7.68533 l -2.336,-3.21734 c 0,0 -0.34933,3.972 -0.34933,3.972 -0.0587,1.504 0.13333,2.67867 0.376,3.94534 -1.66133,-2.62667 -3.15467,-5.32134 -4.10133,-8.29334 0,0 -2.632,-8.09333 -2.63067,-8.09333 -0.516,4.948 -0.568,10.95867 -1.35467,16.26 -1.024,-2.336 -1.8,-4.84533 -2.828,-7.22667 -0.86933,-2.01733 -1.79466,-3.876 -2.512,-5.74799 -1.69866,-3.56934 -1.06133,-8.01867 -1.004,-11.69867 0,0 -1.26933,1.776 -2.35066,3.28667 -0.52,-2.552 -0.97734,-5.09067 -1.24534,-7.62267 -0.432,-3.92 -0.372,-7.85067 0.58667,-11.424 0,0 -0.648,-0.41067 -1.21733,-0.77067 -0.15334,-4.05333 0.596,-8.23866 1.50533,-12.23866 0.62933,-2.772 1.20667,-5.58134 2.18267,-8.25734 0.44933,-1.228 0.94,-2.648 1.8,-3.648 0.73066,-0.85066 1.73866,-1.71333 1.704,-2.97733 -2.47867,0.49733 -4.39467,3.92533 -5.43467,5.94 -1.32933,2.576 -2.30267,5.38 -3.16533,8.14267 -1.368,4.38133 -2.65334,8.93866 -2.552,13.904 l 0.916,0.48 c -1.936,9.27733 1.096,18.82 3.048,27.80399 0.248,-0.35466 0.628,-0.89866 1.048,-1.49999 1.38933,4.67866 4.14133,8.87333 5.644,13.64399 1.05866,2.984 3.264,6.16534 5.35733,8.71334 0,0 0.98533,-3.28267 0.98533,-3.28267 0.63067,-2.17067 0.95867,-4.336 1.164,-6.50533 2.16,3.764 4.824,7.24933 7.15734,10.84933 0,0 1.00533,-2.96533 1.00533,-2.96533 0.33733,-1.26934 0.264,-2.46 0.0573,-3.63467 1.08934,1.73867 2.26267,3.432 3.752,4.90667 0,0 2.59334,2.58533 2.59334,2.58533 -0.16134,-4.112 -0.17867,-8.336 0.51066,-12.41333 1.10134,3.67333 1.98134,8.11733 2.77067,11.012"
       style="fill:#000000;fill-opacity:1;fill-rule:nonzero;stroke:none;stroke-width:1.33333"
       id="path1961" />
    <path
       d="m 257.37439,173.19014 c -0.14266,-0.18 -0.29066,-0.356 -0.448,-0.52 -0.97466,-1.012 -2.136,-1.796 -3.07066,-2.87067 -0.664,-0.76266 -1.44267,-1.468 -2.164,-2.16666 -0.59334,-0.576 -1.37734,-1.33334 -2.19734,-1.54534 -0.452,-0.11733 -0.82666,-0.003 -1.26,-0.192 -1.61466,-0.708 -2.16933,-1.81866 -2.89333,-3.30666 -0.52,-1.068 -1.25067,-2.84667 -2.57067,-3.11867 -0.448,-0.092 -0.656,-0.0253 -1.05466,-0.30267 -0.71867,-0.5 -1.00534,-1.42933 -1.48934,-2.11866 -0.47866,-0.68134 -0.92,-1.38267 -1.35866,-2.088 -0.72667,-1.16667 -1.50134,-2.37734 -1.77867,-3.74667 -0.268,-1.328 -0.19333,-2.78533 -0.56933,-4.044 -0.47334,1.904 -0.90934,3.97467 -0.68,5.924 0.2,1.69333 0.852,3.29333 1.72666,4.74667 0.90534,1.50266 2.04,2.85466 3.23067,4.136 0.596,0.64133 1.21067,1.264 1.82933,1.884 0.30267,0.30266 1.59067,1.22933 1.63467,1.632 0,-0.001 -0.14,-1.252 -0.14,-1.252 1.148,1.64533 2.02533,3.56266 3.55733,5.072 l 1.90267,1.964 c 0,0 -0.12533,-2.43467 -0.12533,-2.43467 0.0333,0.644 1.41333,1.08533 1.89066,1.32533 0.95467,0.47867 1.712,1.05467 2.59867,1.68667 0.91067,0.648 1.87333,1.25333 2.81067,1.86 0.776,0.50267 1.47466,1.17067 2.32933,1.49333 -0.69467,-0.55733 -1.16533,-1.328 -1.71067,-2.01733"
       style="fill:#000000;fill-opacity:1;fill-rule:nonzero;stroke:none;stroke-width:1.33333"
       id="path1965" />
  </g>
</svg>
