<?xml version="1.0" encoding="UTF-8" standalone="no"?>
<!-- Created with Inkscape (http://www.inkscape.org/) -->

<svg
   version="1.1"
   id="svg1115"
   width="400"
   height="400"
   viewBox="0 0 400 400"
   sodipodi:docname="CatianHead1.svg"
   inkscape:version="1.3 (0e150ed, 2023-07-21)"
   xmlns:inkscape="http://www.inkscape.org/namespaces/inkscape"
   xmlns:sodipodi="http://sodipodi.sourceforge.net/DTD/sodipodi-0.dtd"
   xmlns="http://www.w3.org/2000/svg"
   xmlns:svg="http://www.w3.org/2000/svg">
  <defs
     id="defs1119" />
  <sodipodi:namedview
     id="namedview1117"
     pagecolor="#ffffff"
     bordercolor="#666666"
     borderopacity="1.0"
     inkscape:showpageshadow="2"
     inkscape:pageopacity="0.0"
     inkscape:pagecheckerboard="0"
     inkscape:deskcolor="#d1d1d1"
     showgrid="false"
     inkscape:zoom="1.475"
     inkscape:cx="271.52542"
     inkscape:cy="204.40678"
     inkscape:window-width="1920"
     inkscape:window-height="1080"
     inkscape:window-x="2114"
     inkscape:window-y="64"
     inkscape:window-maximized="0"
     inkscape:current-layer="layer1">
    <inkscape:page
       x="0"
       y="0"
       id="page1121"
       width="400"
       height="400"
       margin="0"
       bleed="0" />
  </sodipodi:namedview>
  <g
     inkscape:groupmode="layer"
     id="layer1"
     inkscape:label="Neck"
     style="display:inline">
    <path
       d="m 273.53653,234.42014 c 4.93733,-8.96134 11.08666,-17.43334 10.21066,-34.60933 l -80.968,-64.97067 0.28,39.656 -2.24266,23.54133 c -4.036,12.36267 -9.948,19.86133 -7.46933,30.576 0.93333,4.032 3.83866,6.51733 7.06533,8.89733 5.50533,4.06 11.26666,7.916 17.376,11.048 4.96933,2.548 10.2,5.5 15.45466,7.24934 8.16,2.71733 18.64534,3.51066 27.16134,2.21466 2.70933,-0.41333 6.71866,-1.092 7.12266,-4.37066 0.3,-2.44267 -0.832,-4.36667 -0.144,-6.96134 0.65734,-2.47066 2.15867,-4.33333 3.29067,-6.708 0.89467,-1.87866 1.85333,-3.73066 2.86267,-5.56266"
       style="fill:#cd976d;fill-opacity:1;fill-rule:nonzero;stroke:none;stroke-width:1.33333"
       id="path1907" />
    <path
       d="m 283.74679,199.81027 c 0,0 -1.876,-1.50533 -1.876,-1.50533 -0.10666,-0.0853 -0.212,-0.16933 -0.31733,-0.25467 l -56.53733,-45.368 c -2.576,-2.06666 -5.152,-4.13333 -7.72934,-6.20133 -1.22533,-0.984 -2.476,-1.944 -3.704,-2.91867 -0.13333,-0.10666 -0.244,-0.23866 -0.37066,-0.352 l -10.43334,-8.37066 0.28,39.65733 -2.24266,23.54 c -4.036,12.36266 -9.948,19.86266 -7.46933,30.576 0.93333,4.03333 3.83866,6.51733 7.06666,8.89733 5.05333,3.72667 10.33467,7.25467 15.89067,10.23467 -0.0267,-1.31867 -0.048,-2.64134 0.0387,-3.95867 0.0693,-1.04933 0.008,-2.16 0.248,-3.17467 0.356,0.188 0.76667,0.22667 1.13734,0.37734 -0.0347,-1.77867 -0.10134,-3.72534 0.46,-5.41467 1.28133,1.60667 3.08,2.89733 4.808,3.992 0.32266,-0.78 0.23333,-1.67333 0.67466,-2.47467 0.416,-0.75733 1.00134,-1.36 1.65334,-1.91466 0.928,-0.78934 2.27333,-1.496 2.852,-2.44934 -0.616,2.14267 -0.112,4.82534 0.7,6.84267 0.66133,1.64933 1.936,3.67733 3.428,4.68933 0.0827,-0.83333 -0.0133,-1.82933 0.19333,-2.63066 1.24133,1.54666 3.16667,2.18266 4.52267,3.484 0.10933,-0.88134 -0.7,-2.31734 -0.97334,-3.176 -0.22266,-0.70134 -0.44266,-1.36 -0.488,-2.09467 -0.0973,-1.58533 0.46534,-3.08533 1.74,-4.056 1.95867,-1.49067 4.42667,-3.57867 4.52,-6.264 0.61467,1.98 0.13867,4.06 0.37867,6.10667 1.10133,0.0107 2.29867,-1.30134 2.81867,-2.184 0.44266,-0.75334 0.77466,-1.57867 1.09466,-2.38534 0.27334,0.552 0.18534,1.27067 0.448,1.78667 0.62267,-1.09333 1.56934,-1.70533 2.57467,-2.3 1.05467,-0.62533 1.84667,-0.78 3.07867,-0.87333 0.796,-0.0587 1.772,-0.24134 2.56533,-0.0813 2.428,0.48534 4.816,1.372 7.292,1.85067 2.39867,0.46533 10.89467,2.94533 12.716,0.22667 0,0 0.844,-1.26 1.892,-2.82267 4.036,-7.26133 7.764,-15.40667 7.06933,-29.036"
       style="opacity:0.199997;fill:#000000;fill-opacity:1;fill-rule:nonzero;stroke:none;stroke-width:1.33333"
       id="path1917" />
    <path
       d="m 292.98639,209.7856 c -0.009,-0.004 -0.152,0.14267 -0.16133,0.15334 -4.86533,4.952 -8.33467,11.59866 -12.03867,17.21733 -0.896,1.36133 -1.19733,2.88267 -2.20266,4.20667 -0.14534,-0.29734 -0.29067,-0.59467 -0.436,-0.892 -1.66267,2.33733 -2.88267,4.79466 -3.98667,7.33733 l -1.07867,-0.564 c -0.90933,1.66133 -1.412,3.472 -1.45733,5.24267 -0.52933,0.008 -1.044,-0.11734 -1.47067,-0.36134 -0.48266,1.17467 -0.62,2.43334 -0.392,3.596 0.032,0.164 0.0707,0.33867 -10e-4,0.504 -0.18667,0.42934 -0.848,0.40667 -1.30133,0.29067 0.0693,0.436 0.63066,4.90133 1.67866,4.46133 -0.49866,0.19867 -1.028,0.29467 -1.54133,0.376 -0.04,1.30934 0.57067,2.37734 1.1,3.484 0.005,0.0107 -0.91467,0.0147 -1.01467,-0.007 -0.316,-0.068 -0.59733,-0.204 -0.83866,-0.38934 -0.54134,-0.416 -0.85067,-1.04266 -1.06,-1.664 -0.26534,-0.78933 -0.38,-1.63466 -0.436,-2.47866 -0.032,-0.46534 -0.028,-0.87867 -0.19067,-1.308 -0.16667,-0.43867 -0.388,-0.888 -0.39867,-1.37467 0.20534,0.0133 0.39067,0.164 0.596,0.0787 0.0533,-0.45334 -0.22533,-0.73467 -0.22933,-1.16267 -0.008,-0.772 0.28933,-1.58667 0.408,-2.35733 0.064,-0.41067 0.14533,-0.78 0.284,-1.17734 0.17467,-0.50266 0.24133,-1.07466 0.464,-1.54533 0.204,-0.012 0.27067,0.14533 0.38,0.26133 0.17333,-0.60533 0.47867,-1.46933 0.89733,-1.99866 0.24667,0.0333 0.29734,0.36133 0.444,0.512 -0.0627,-0.064 0.348,-1.18934 0.38267,-1.348 0.1,-0.45334 0.17067,-0.916 0.30667,-1.36534 0.224,-0.736 0.62666,-1.47066 0.99066,-2.168 0.29067,-0.55733 0.688,-1.09333 1.02134,-1.63333 0.328,-0.532 0.69733,-1.03333 1.01733,-1.572 0.19333,-0.32533 0.35467,-0.70667 0.592,-1.00933 0.0813,0.21066 0.24133,0.408 0.316,0.616 0.26267,-0.38134 0.36267,-0.85467 0.584,-1.25467 0.28533,-0.51733 0.50133,-1.06933 0.736,-1.60133 0.44933,-1.024 0.88933,-2.05334 1.46533,-3.036 2.47734,-4.232 4.96134,-8.46 7.448,-12.688 1.15734,-1.96934 2.316,-3.93734 3.476,-5.90534 0,0 5.64667,2.52267 5.648,2.524"
       style="fill:#000000;fill-opacity:1;fill-rule:nonzero;stroke:none;stroke-width:1.33333"
       id="path1927" />
    <path
       d="m 201.92706,154.77521 c 0,0 0.88,21.43733 -1.196,29.67866 0,0 1,-1.992 1.316,-3.16266 0,0 -1.85467,14.41866 -3,17.92133 0.12534,-0.38267 0.62534,-0.80933 0.84134,-1.09867 -0.3,1.15467 -0.45334,2.112 -0.28934,3.29733 1.53733,-0.86133 2.10667,-6.47599 2.26533,-8.60799 0.17467,-2.344 0.35334,-5.204 0.88534,-7.296 0.532,-2.092 0.708,-0.38267 1.03066,-4.99334 0.33334,-4.75066 0.616,-6.85733 0.73734,-8.56 0.12266,-1.70133 0.25333,-3.148 0.16666,-6.98933 -0.108,-4.68933 -0.21066,-6.65067 -0.21066,-6.65067 z"
       style="fill:#000000;fill-opacity:1;fill-rule:nonzero;stroke:none;stroke-width:1.33333"
       id="path2083" />
  </g>
  <g
     id="g1123"
     inkscape:groupmode="layer"
     inkscape:label="Head">
    <path
       d="m 305.24173,47.216275 c 5.244,-3.135999 9.31866,-7.850666 14.72,-10.714666 2.89866,-1.537333 5.892,-2.974667 9.01466,-3.938666 3.49067,-1.078667 5.35867,-2.276 7.83867,0.550666 4.616,5.262667 6.33466,13.345333 8.128,20.001333 2.29733,8.52 1.84133,16.214666 0.528,24.937333 -1.008,6.698666 -2.68134,9.645333 -8.82667,12.863999"
       style="fill:#cd976d;fill-opacity:1;fill-rule:nonzero;stroke:none;stroke-width:1.33333"
       id="path1859" />
    <path
       d="m 305.24173,47.216275 c 5.244,-3.135999 9.31866,-7.850666 14.72,-10.714666 2.55466,-1.354667 7.32133,-4.602666 10.388,-3.969333 2.692,0.554667 3.12266,4.277333 3.04533,6.541333 0.47733,-0.545333 0.98,-1.273333 1.492,-1.881333 0.95466,2.641333 0.71466,6.589333 2.02266,8.816 0.53467,-0.893334 1.14667,-1.708 1.49067,-2.678667 0.684,3.076 1.804,6.412 1.80133,9.573333 0.12134,-0.08133 0.27067,-0.270667 0.40534,-0.354667 -0.15467,2.136 -0.34,5.722667 0.0227,7.822667 0.19734,-0.05467 0.38267,-0.156 0.588,-0.185334 0.28134,4.404 1.72534,8.733334 2.34934,13.092 0.23733,1.653333 0.54266,3.324 0.71466,4.893333 0.672,6.188 -2.304,9.952 -7.63733,12.745333"
       style="opacity:0.199997;fill:#000000;fill-opacity:1;fill-rule:nonzero;stroke:none;stroke-width:1.33333"
       id="path1869" />
    <path
       d="m 347.96079,56.701875 c -1.63467,-7.362666 -5.664,-30.754666 -16.61866,-27.606666 -6.4,1.825334 -12.68934,4.184 -17.60934,8.664 -3.24,2.914667 -5.85866,5.996 -8.936,8.713333 l 0.88934,1.486667 c 4.09066,-1.585333 7.57733,-4.265333 10.94133,-6.421333 5.244,-3.242667 11.004,-6.18 16.91866,-7.593334 0.77467,0.044 1.00534,0.445334 1.84134,1.398667 2.328,2.798667 3.82933,6.509333 5.068,10.328 1.15866,3.793333 2.424,7.948 3.23066,11.790666 1.16534,5.881333 1.01067,12.058667 0.168,18.034666 -0.716,6.753334 -1.76533,10.692 -7.56266,14.745333 0,0 0.70533,1.348 0.70533,1.348 7.69867,-2.170666 10.04133,-8.310666 10.74,-15.574666 0.848,-6.389333 1.308,-12.86 0.224,-19.313333"
       style="fill:#000000;fill-opacity:1;fill-rule:nonzero;stroke:none;stroke-width:1.33333"
       id="path1879" />
    <path
       d="m 348.06292,159.21027 c -3.35866,2.07067 -2.22533,9.14134 -2.196,12.31467 0.056,6.17333 1.90534,12.704 3.392,18.65733 1.52,6.08934 2.94,12.40667 4.89334,18.348 1.57733,4.80267 -0.808,10.50933 -2.81734,14.98533 0.056,-1.852 0.18667,-3.82133 0.0213,-5.668 -0.38534,-4.33466 -2.14,-8.46133 -4.18134,-12.268 -0.56933,2.024 -0.36533,4.41867 -0.47466,6.49867 -0.18134,3.45867 -0.99467,6.984 -1.98667,10.29333 -1.224,4.08934 -2.49733,7.89734 -2.14933,12.26 0.005,0.0613 0.0107,0.12134 0.016,0.18267 0.25866,3.13467 0.74666,6.25867 0.73466,9.41067 -0.005,1.54133 -0.13333,3.088 -0.48533,4.592 -0.35333,1.512 -0.94933,2.596 -2.02667,3.71866 -0.62533,0.65067 -1.396,1.324 -2.25733,1.628 0.14267,-1.19466 0.472,-2.384 0.61733,-3.58266 0.32534,-2.66934 0.82267,-5.272 0.62534,-7.97334 -0.0987,-1.34666 -0.632,-2.68133 -1.016,-3.97733 -0.36267,-1.224 -0.69334,-2.37067 -1.52134,-3.38 -0.12666,0.244 -0.108,0.55333 -0.17066,0.82267 -0.45067,1.94 -1.38134,3.78133 -2.16267,5.60533 -0.58667,1.372 -1.32933,2.65733 -2.05866,3.95467 -0.62934,1.11866 -1.16667,2.31733 -2.06934,3.252 -0.21333,-0.56934 -0.504,-1.10934 -0.66933,-1.69734 -0.16,-0.57333 -0.188,-1.212 -0.25733,-1.804 -0.19067,-1.62 -0.40934,-3.23733 -0.656,-4.84933 -0.492,-3.22533 -1.08,-6.43467 -1.676,-9.64267 -1.21334,-6.53066 -2.46267,-13.06933 -3.02267,-19.696 -0.608,-7.19066 -0.91067,-14.50933 -0.60533,-21.72933 0.2,-4.728 2.13733,-9.332 3.72266,-13.74933 2.41867,-6.73733 6.53333,-13.16533 11.596,-18.19467 3.30267,-3.28 6.296,-6.708 8.84133,1.688"
       style="fill:#cd976d;fill-opacity:1;fill-rule:nonzero;stroke:none;stroke-width:1.33333"
       id="path1883" />
    <path
       d="m 348.06292,159.21027 c -3.35866,2.07067 -2.22533,9.14134 -2.196,12.31467 0.056,6.17333 1.90534,12.704 3.392,18.65733 1.52,6.08934 2.94,12.40667 4.89334,18.348 1.57733,4.80267 -0.808,10.50933 -2.81734,14.98533 0.056,-1.852 0.18667,-3.82133 0.0213,-5.668 -0.38534,-4.33466 -2.14,-8.46133 -4.18134,-12.268 -0.56933,2.024 -0.36533,4.41867 -0.47466,6.49867 -0.18134,3.45867 -0.99467,6.984 -1.98667,10.29333 -1.224,4.08934 -2.49733,7.89734 -2.14933,12.26 0.005,0.0613 0.0107,0.12134 0.016,0.18267 0.25866,3.13467 0.74666,6.25867 0.73466,9.41067 -0.005,1.54133 -0.13333,3.088 -0.48533,4.592 -0.35333,1.512 -0.94933,2.596 -2.02667,3.71866 -0.62533,0.65067 -1.396,1.324 -2.25733,1.628 0.14267,-1.19466 0.472,-2.384 0.61733,-3.58266 0.32534,-2.66934 0.82267,-5.272 0.62534,-7.97334 -0.0987,-1.34666 -0.632,-2.68133 -1.016,-3.97733 -0.36267,-1.224 -0.69334,-2.37067 -1.52134,-3.38 -0.12666,0.244 -0.108,0.55333 -0.17066,0.82267 -0.45067,1.94 -1.38134,3.78133 -2.16267,5.60533 -0.58667,1.372 -1.32933,2.65733 -2.05866,3.95467 -0.62934,1.11866 -1.16667,2.31733 -2.06934,3.252 -0.21333,-0.56934 -0.504,-1.10934 -0.66933,-1.69734 -0.16,-0.57333 -0.188,-1.212 -0.25733,-1.804 -0.19067,-1.62 -0.40934,-3.23733 -0.656,-4.84933 -0.492,-3.22533 -1.08,-6.43467 -1.676,-9.64267 -1.21334,-6.53066 -2.46267,-13.06933 -3.02267,-19.696 -0.608,-7.19066 -0.91067,-14.50933 -0.60533,-21.72933 0.2,-4.728 2.13733,-9.332 3.72266,-13.74933 2.41867,-6.73733 6.53333,-13.16533 11.596,-18.19467 3.30267,-3.28 6.296,-6.708 8.84133,1.688"
       style="opacity:0.199997;fill:#000000;fill-opacity:1;fill-rule:nonzero;stroke:none;stroke-width:1.33333"
       id="path1893" />
    <path
       d="m 346.53639,200.2512 c 0,0 -1.25467,4.79467 -1.25467,4.79467 -0.968,4.79067 -0.10266,8.22933 -1.33466,12.69067 -0.60667,2.19733 -1.17334,4.40533 -1.80534,6.6 -0.61466,2.13333 -0.78133,4.31733 -0.55866,6.54133 0.16666,1.67467 0.40933,3.29467 0.45066,4.98667 0.052,2.04133 0.18134,4.06666 0.332,6.09466 0.136,1.82 0.39334,3.85067 -0.36933,5.57734 -0.56133,1.26933 -1.21733,2.47333 -1.91067,3.68 0.324,-0.85334 0.40534,-2.07334 0.536,-3.00934 0.14,-1.012 0.29067,-1.98266 0.29067,-3.00266 0,-2.08667 -0.0347,-4.13067 -0.29067,-6.2 -0.19466,-1.56934 -0.736,-3.10534 -1.32,-4.56 -0.528,-1.312 -1.25333,-2.552 -1.71866,-3.892 -0.384,-1.10667 -0.46534,-1.92134 -0.32134,-3.112 0.11467,-0.944 0.25867,-1.80267 0.49467,-2.72134 -0.56933,0.452 -1.01067,1.12667 -1.28533,1.79067 -1.444,3.48133 -0.78,7.21067 -1.13467,10.84533 -0.096,0.976 -0.44,1.93867 -0.89733,2.80667 -0.2,0.37867 -0.412,0.78133 -0.62934,1.15067 -0.42266,0.72266 -0.97999,1.28266 -1.24266,2.08133 -0.28,0.85333 -0.65333,1.68933 -1.06133,2.48667 -0.888,-7.84134 -2.58,-15.49067 -3.91467,-23.104 -1.652,-8.99867 -2.27333,-18.128 -2.33467,-27.25067 0,-2.25733 0.0293,-4.612 0.156,-6.78133 0.38934,-4.412 2.17334,-8.664 3.63734,-12.888 2.28666,-6.332 5.87333,-12.18267 10.45733,-17.132 1.32933,-1.308 2.972,-3.56667 4.712,-3.89467 1.672,-0.0173 2.45066,2.828 3.284,4.12934 -0.29334,0.14 -0.38934,0.056 -0.732,0.46933 -2.67867,3.17867 -1.924,7.79467 -1.99334,11.6 -0.19866,7.032 1.68667,14.12533 3.164,20.79333 1.18534,5.40934 2.34667,10.87867 3.99467,16.296 0.644,1.70533 0.81867,3.46267 0.61733,5.24267 -1.236,-4.644 -3.80666,-8.972 -6.01733,-13.10934 m 9.17867,6.66934 c -1.69867,-5.17467 -3.04934,-10.532 -4.52534,-15.9 -1.80933,-6.77067 -4,-13.14533 -4.26266,-20.06667 -0.12,-3.82666 -1.51334,-8.56666 1.68266,-11.452 -0.396,-3.17466 -2.62133,-8.17866 -6.48133,-5.74133 -10.89866,8.116 -17.43066,21.50267 -19.62533,34.73733 -0.56267,11.65733 0.17067,23.312 2.112,34.79067 0.968,5.73333 1.87333,11.5 3.38133,17.13333 0.43867,1.63733 0.91734,3.26533 1.284,4.92133 0.35867,1.624 0.39467,3.308 0.816,4.908 0.184,0.712 0.404,1.66667 0.79467,2.26667 -0.24,-0.36933 0.33467,-1.43867 0.47067,-1.776 0.27066,-0.67467 0.544,-1.34933 0.82666,-2.01867 0.57467,-1.37066 1.18133,-2.72933 1.864,-4.05066 0.608,-1.17867 1.276,-2.32534 1.94667,-3.47067 0.58,-0.99067 1.37066,-1.97333 1.256,-3.19067 0.13466,1.42134 0.71733,2.78267 0.97466,4.18934 0.26667,1.45333 0.39467,2.93066 0.38667,4.40666 -0.02,3.36134 -0.67067,7.056 -2.34933,10.00934 0.188,-0.332 1.068,-0.69067 1.39866,-0.90267 1.10134,-0.712 2.31734,-1.23067 3.356,-2.04667 1.06534,-0.836 1.96534,-1.88266 2.61867,-3.068 1.66,-3.00933 1.67733,-6.63866 1.35867,-10.06 -0.30934,-3.304 -0.908,-6.65066 -0.43067,-9.96666 0.43733,-3.03467 1.488,-5.936 2.33067,-8.86934 0.29733,-1.036 0.57333,-2.07866 0.80266,-3.132 0.45067,-1.47066 0.65334,-3.164 0.776,-4.88933 0.10267,0.344 0.21867,0.68533 0.30534,1.03067 0.80266,2.94933 0.672,5.652 0.53466,8.74266 0,0 -0.33733,10.24 -0.33733,10.24 2.08667,-5.03733 5.95733,-12.168 7.18933,-17.53333 0.72134,-2.96667 0.71067,-6.33067 -0.45466,-9.24133"
       style="fill:#000000;fill-opacity:1;fill-rule:nonzero;stroke:none;stroke-width:1.33333"
       id="path1903" />
    <path
       d="m 222.57613,185.15881 c 0.11333,4.46933 2.62933,8.84933 5.24266,12.30666 3.48,4.604 7.98934,8.37733 12.76,11.57733 2.89734,1.94267 5.77334,3.32134 8.06534,5.836 2.18666,2.39867 4.87466,4.276 7.84666,5.59334 0.25867,-0.80267 0.27334,-1.73067 0.264,-2.61867 2.34,2.012 5.12534,4.388 8.03734,5.452 0.0747,-0.43867 0.472,-0.83067 0.53866,-1.268 2.02934,1.63867 3.50267,2.91867 6.11334,3.91733 2.42,0.928 5.14666,0.404 6.84133,1.496 0.808,0.51867 1.15067,1.56534 2.01333,2.04 0.74134,0.40934 1.60267,0.13334 2.37867,0.58267 1.64,0.94933 2.58,3.31467 3.94667,4.58933 -0.14534,-0.13466 2.12933,0.11467 2.33466,0.17067 0.91867,0.24933 2.06667,0.576 2.96134,0.88 2.59733,0.88267 4.68533,2.81467 7.48266,3.28 1.03467,0.172 2.564,-0.37333 3.51867,-0.008 1.34267,0.51467 1.51467,2.34667 2.57733,2.908 1.96,1.032 5.42934,-1.50533 7.41067,-2.076 2.55467,-0.736 5.052,-1.11333 7.36933,-2.62133 1.768,-1.152 3.56934,-2.51467 5.48267,-3.41467 1.612,-0.75867 2.88667,-0.87467 4.00267,-2.40267 0.63733,-0.872 1.20133,-1.8 1.872,-2.64666 0.61066,-0.76934 1.72933,-1.34934 2.23599,-2.11734 0.57867,-0.87866 0.60934,-2.60266 0.74667,-3.62666 0.168,-1.244 0.27867,-2.49467 0.45333,-3.73734 0.352,-2.52266 0.56,-5.41066 0.31467,-7.968 -0.12667,-1.33866 -0.164,-2.58533 -0.824,-3.748 -0.62,-1.09333 -0.81067,-2.30533 -0.808,-3.552 0.004,-2.31066 0.25067,-4.61733 0.588,-6.89999 0.976,-6.62934 5.076,-12.04934 6.24133,-18.68934 0.45467,0.848 0.74667,1.90267 1.29334,2.53867 0.26666,-1.932 0.848,-3.80133 1.132,-5.78667 0.41466,-2.888 0.29733,-5.664 0.48,-8.56666 1.26666,0.57866 1.62266,2.30133 2.55866,3.15466 0.78934,-5.96666 1.32134,-12.33333 -0.40666,-18.16933 -1.396,-4.71733 -3.59467,-11.09467 -2.92267,-16.14133 0.264,-1.97467 1.50667,-2.66667 2.59467,-4.16 1.16666,-1.60134 1.808,-3.53467 2.85333,-5.20934 1.39467,-2.232 4.048,-5.71733 4.03467,-8.32533 -0.76534,0.276 -1.452,0.68133 -2.26934,0.80133 0.34134,-1.83333 1.64667,-2.87733 1.74267,-4.94533 0.11733,-2.56 -0.37333,-5.10933 -0.46533,-7.66267 -0.0693,-1.964 -0.292,-3.66666 -1.60934,-5.12533 -0.93733,-1.037332 -2.24533,-1.479999 -2.63066,-2.929332 -0.39867,-1.497334 -0.12934,-3.614667 -0.256,-5.197334 -0.30134,-3.776 -0.72667,-7.546666 -1.40534,-11.274666 -0.672,-3.692 -1.59333,-7.344 -2.86933,-10.874666 -0.64533,-1.785334 -1.37867,-3.537334 -2.208,-5.245334 -0.48267,-0.996 -2.75333,-3.829333 -2.66533,-4.816 -0.0627,0.710667 -0.35334,1.2 -0.64134,1.842667 0.61467,-1.374667 -4.59733,-6.257333 -5.53733,-7.142666 -1.95466,-1.841334 -4.22133,-3.444 -6.38533,-5.025334 -4.30533,-3.145333 -8.48933,-6.569333 -12.904,-9.559999 -4.24933,-2.878667 -9.66667,-5.364 -14.49733,-6.950667 0.10266,0.430667 -0.0507,0.816 0.164,1.278667 -2.94,-1.450667 -5.88267,-3.033333 -9.012,-4.154667 -2.5,-0.897333 -5.056,-1.605333 -7.54267,-2.526666 -2.00933,-0.745334 -4.29067,-1.697334 -6.46933,-1.393334 0.45466,0.864 1.12666,1.666667 1.492,2.569334 -6.04134,0.293333 -12.02267,-0.897334 -18.09334,-0.625334 -4.24666,0.190667 -8.45733,2.342667 -12.56133,2.404 0.772,0.312 1.52533,0.528 2.344,0.706667 -2.36667,1.949333 -8.064,2.410666 -11.18533,3.457333 -4.37067,1.465333 -9.552,3.085333 -13.32534,5.74 0.75867,-0.004 0.96134,0.229333 1.612,0.429333 -3.92533,1 -7.31066,3.848 -10.52266,6.098667 -3.76534,2.638666 -8.444,4.917333 -11.34934,8.568 1.06,-0.272 2.348,-0.28 3.428,-0.64 -3.30533,4.370666 -5.288,8.682666 -7.53866,13.611999 -1.99333,4.362667 -4.70267,8.585333 -5.92533,13.225333 0.62266,-0.345333 1.30666,-0.806666 1.86266,-1.256 -0.49866,3.882667 -0.23733,7.904 -0.64266,11.776 -0.308,2.937333 -1.28667,6.282667 -1.22534,9.151999 0.47734,-0.41467 1.068,-0.60533 1.47734,-1.136 -0.248,3.14667 -0.59734,5.39867 -0.29067,8.62267 0.24533,2.588 0.78533,6.132 0.076,8.59066 0.13867,-0.0107 0.264,-0.0587 0.376,-0.14266 0.14533,2.84 0.79467,5.41866 0.91467,8.18133 0.18133,4.128 -0.89867,8.18 -0.61467,12.34133 0.236,-0.656 0.74533,-1.05066 1.12,-1.56933 0.708,4.81333 1.772,9.54667 2.164,14.54133 0.36,-0.62666 0.82267,-1.27466 1.28933,-1.79866 -1.47466,1.65866 10.08533,15.95866 11.34,17.368"
       style="fill:#cd976d;fill-opacity:1;fill-rule:nonzero;stroke:none;stroke-width:1.33333"
       id="path1931" />
    <path
       d="m 339.50372,59.244675 -3.46933,-5.486666 -0.28667,2.504 c -3.06133,-3.329334 -6.78799,-6.053334 -10.38799,-8.652 -4.968,-3.606667 -9.892,-7.852 -15.35334,-10.916 -3.74933,-2.104 -7.65866,-3.8 -11.72666,-5.14 0,0 -0.476,0.436 -0.80667,0.74 -5.072,-2.622666 -10.60133,-4.528 -16.02533,-6.266666 -1.90934,-0.68 -4.16934,-1.645334 -7,-1.305334 l -3.08667,0.370667 1.216,2.209333 c -3.77733,-0.116 -7.68933,-0.589333 -11.76,-0.649333 -4.052,-0.402667 -7.99867,1.114667 -11.89733,1.957333 -3.94267,0.852 -8.188,-0.24 -11.97467,1.313334 -2.03733,0.836 -3.832,2.416 -6.004,2.798666 1.56667,0.152 3.184,0.129334 4.78667,0.242667 -1.06934,1.573333 -4.544,2.088 -6.208,2.38 -1.93467,0.34 -3.78667,0.872 -5.62134,1.662666 -1.404,0.606667 -3.80266,1.388 -4.372,2.844 1.36934,0.016 2.70934,-0.685333 4.10267,-0.521333 -1.11333,1.298667 -3.25867,2.524 -4.82533,3.185333 -1.6,0.676 -4.072,0.985334 -5.31734,2.264 0.232,-0.05067 0.58267,0.06267 0.82534,0.03867 0.25466,1.281333 -5.084,3.756 -6.08134,4.436 -2.37333,1.617333 -4.82666,3.425333 -6.63466,5.684 0,0 -3.736,4.670666 -3.736,4.670666 0,0 2.65866,-0.693333 4.372,-1.14 -3.10133,5.177333 -5.19867,10.664 -8.068,16.057333 -1.928,3.458667 -3.25867,8.397333 -4.21733,12.325333 0,0 1.62666,-1.104 2.832,-1.922666 -0.152,3.929333 -0.0373,7.583999 -0.91334,11.562666 -0.69466,2.744 -0.61866,7.011996 -0.53733,9.954666 0,0 0.49333,-0.496 1.076,-1.08 -0.0693,1.44933 -0.0733,2.90666 0.088,4.33466 0.21467,2.616 0.79333,5.52667 0.18933,7.93334 l -0.64666,2.39733 c 0,0 0.56,-0.0347 1.14533,-0.072 0.348,2.78133 0.97067,5.41333 0.832,8.20133 -0.084,3.244 -0.77733,6.73067 -0.5,10.44534 l 0.584,7.79066 c 0,0 0.772,-2.372 1.44133,-4.42666 0.84134,4.59466 1.63867,9.13066 1.90534,13.76133 0.49333,-0.804 1.09066,-2.024 1.724,-3.15067 1.48799,2.80934 3.34266,5.404 5.31599,7.88934 0.99067,1.24666 2.01334,2.468 3.04134,3.684 0.51333,0.608 1.02666,1.21733 1.54266,1.824 0.304,0.356 0.48534,0.76133 0.78267,1.12533 0.204,0.252 0.992,1.204 1.4,0.88533 0.70533,-0.552 -0.37467,-2.29333 -0.76,-2.79066 -0.956,-1.23067 -1.9,-2.472 -2.82267,-3.72934 -1.824,-2.48666 -3.57066,-5.032 -5.18,-7.66266 -0.67066,-1.16934 -1.452,-2.37067 -1.74933,-3.64534 -0.0507,-0.12933 0.104,0.004 -0.18667,0.34 l -1.10266,-0.98 c -0.53733,-5.62133 -1.628,-11.05066 -2.27733,-16.56133 -0.0533,0.0613 -0.192,0.25333 -0.36267,0.49067 0.17867,-1.66 0.4,-3.372 0.496,-5.156 0.26133,-3.484 -0.644,-7.05467 -0.80267,-10.40534 0,0 -0.22666,-0.10533 -0.27466,-0.128 0.82,-4.26666 -0.552,-8.18666 -0.16934,-12.44 0.20267,-2.35733 0.464,-5.638659 0.67867,-8.093326 -0.27067,0.197333 -0.79067,0.565333 -1.38667,0.984 0.36267,-2.133333 0.86134,-4.316 0.97734,-6.457333 0.19466,-5.118667 0.344,-9.754667 1.11733,-14.594667 l -0.30933,0.208 c 1.26533,-2.629333 2.73333,-5.209333 3.92933,-7.886666 2.072,-4.564 4.18266,-8.938667 7.09866,-12.748 l 3.95067,-5.162666 c 0,0 -0.10533,0.03467 -0.10933,0.036 0.924,-0.582667 1.852,-1.162667 2.75866,-1.766667 1.93067,-1.290667 3.65467,-2.654667 5.41334,-3.810666 3.104,-2.476 8.83066,-3.394667 12.444,-4.404 0,0 -2.03734,-0.589334 -3.996,-1.156 2.88,-1.313334 5.984,-2.278667 8.96666,-3.276 3.936,-1.169334 8.09467,-1.216 11.63334,-3.730667 0,0 0.57733,-0.448 1.228,-0.953333 2.25866,-0.552 4.37866,-1.264 6.728,-1.566667 7.172,-0.529333 14.62666,1.178667 22.19466,0.437334 0,0 -0.43733,-1.030667 -0.78666,-1.853334 2.428,0.714667 5.03733,1.892 7.19733,2.493334 3.924,1.188 7.336,2.973333 11.016,4.833333 l 0.9,-0.878667 c 3.49733,1.217333 6.924,2.737333 10.13067,4.554667 4.94,2.768 10.14533,7.285333 14.85466,10.685333 4.44267,3.265333 9.03067,6.510666 12.04267,11.118666 -0.0973,-0.292 -0.0453,-0.686667 0.112,-0.962667 0,0 0.344,0.154667 0.828,0.370667 3.53066,5.666667 5.788,12.064 7.08666,18.710666 1.07334,5.501334 1.572,11.089333 1.892,16.678667 0.0547,0.973333 -0.23866,3.173329 0.29334,3.951999 0.41466,0.608 1.368,0.90933 1.84266,1.45866 0.53334,0.616 1.18134,1.75067 1.49467,2.51334 0.79867,1.94266 0.89733,4.16266 0.996,6.21866 0.0867,1.80534 -0.0707,3.59467 -0.436,5.36267 -0.368,1.77867 -1.07467,2.63333 -1.85333,4.07867 0.448,0.3 0.91733,0.37333 1.448,0.32666 -0.26,0.56667 -0.61867,1.09067 -0.96934,1.61467 -1.18933,1.624 -2.61466,4.328 -3.48933,6.128 -0.76667,1.556 -2.25333,2.49333 -3.116,4.30133 -0.36,0.77334 -0.57467,1.61467 -0.63333,2.45467 -0.56,6.244 1.70266,11.91733 3.268,17.67467 0.85466,3.576 0.89733,7.168 0.612,10.84266 -0.912,-0.41333 -2.92667,-1.32533 -2.92667,-1.32533 -0.3,3.18667 -0.29467,7.172 -0.524,10.24667 -0.604,-1.148 -1.112,-2.104 -1.30933,-2.48534 0.33866,0.65467 -0.55867,3.284 -0.69467,4.048 -1.01067,5.728 -2.18133,11.344 -3.59867,17.012 -0.85733,3.424 -2.70266,6.732 -2.70533,10.31333 -0.79466,-0.90933 -1.392,-1.77866 -1.456,-2.99066 -0.77333,1.964 -0.94266,4.13866 -0.32666,6.16933 0.51866,1.70933 1.93866,2.724 2.21733,4.488 0.248,1.57067 0.36667,3.16133 0.51733,4.744 0.14533,1.52533 0.35333,3.18533 0.268,4.764 -0.53733,-0.10533 -0.99066,-1.76267 -1.31333,-2.25867 0.072,3.792 0.456,8.268 -1.40267,11.69734 -0.33866,0.624 -0.772,1.15333 -1.23066,1.692 -0.77867,-1.22267 -1.72934,-2.07467 -2.58,-3.196 0.0187,0.024 -8.844,7.892 -9.712,8.38266 -1.36267,0.768 -4.668,2.328 -6.228,2.03867 -0.92134,-0.16933 -1.21867,-0.92933 -2.12534,-1.15333 -2.16,-0.53334 -1.00666,1.20533 -2.604,1.576 -0.432,0.1 -2.12266,-1.32667 -2.632,-1.58 -1.44533,-0.72267 -3.27733,-1.55467 -4.83466,-1.85067 -0.0667,0.864 -0.29867,1.86133 -0.80534,2.54 -1.528,-1.41733 -2.21866,-2.21333 -4.17333,-3.072 -1.86667,-0.81867 -3.61333,-1.82933 -5.37467,-2.84933 1.43067,0.828 -0.86133,1.56533 -1.488,1.44133 -1.55066,-0.30933 -2.84,-1.84133 -3.77733,-3.00133 -2.85333,-3.532 -5.14133,-8.664 -5.64667,-13.20134 -0.24266,-2.18666 1.17734,-4.492 1.65867,-6.612 0.276,-1.21333 0.468,-2.44266 0.57333,-3.68133 0.08,-0.95467 -0.28133,-2.72533 0.0667,-3.56533 -0.688,1.66 -0.98933,3.28133 -1.868,4.90666 -1.06,1.95867 -2.29467,4.17334 -2.64267,6.40134 -0.27733,1.768 0.372,3.65733 0.29067,5.47466 -0.0813,1.81467 -1.004,3.09334 -0.68533,4.93467 -2.34934,-0.0827 -3.02134,-3.52533 -2.94667,-5.364 -0.68267,0.66667 -1.204,3.59067 -2.032,3.536 -1.316,-0.088 -2.10933,-2.832 -2.024,-3.84933 -0.86667,0.54133 -1.33733,1.61866 -2.21067,2.17866 -1.288,0.82667 -2.696,-0.42933 -3.80533,-1.176 -0.656,-0.444 -7.38933,-5.93733 -7.38,-5.948 0,0 0.0853,2.85334 0.11867,3.96 -0.86934,-0.5 -1.70667,-1.05466 -2.49734,-1.66933 -1.70266,-1.26667 -2.98533,-3 -4.74,-4.22667 -3.62933,-2.52666 -7.15733,-4.264 -10.54,-6.96 -6.16,-4.83466 -12.708,-11.37066 -13.524,-19.44933 l -1.748,0.044 c 0.0107,2.264 0.58934,4.46267 1.42667,6.496 4.20667,10.12267 13.52667,16.768 22.296,22.58267 1.64533,1.29066 2.876,3.05333 4.53067,4.356 2.24666,1.96533 5.01733,3.324 7.716,4.55066 0.16666,-0.46266 0.33333,-0.98133 0.48933,-1.516 0.38933,0.316 0.77067,0.636 1.18,0.94 1.396,1.03067 2.916,2.01334 4.72267,2.70667 0.15066,0.0573 0.904,-0.53067 1.056,-0.628 1.416,0.84667 1.532,1.316 2.19866,2.83333 0.54534,1.23867 1.644,2.976 2.78534,3.78 0.14,-1.264 0.356,-3.17866 1.144,-4.24133 1.312,2.00933 2.056,4.18533 3.04533,6.37467 0.45867,1.01333 0.96933,2.04933 1.756,2.87066 0.81333,0.84934 1.96133,1.51067 2.55733,2.51334 -0.0973,-2.45334 -0.24533,-5.09867 0.29334,-7.45867 0.148,1.65467 0.612,3.432 1.39733,4.83067 0.64,1.14533 0.532,2.58533 0.43333,3.912 1.41734,-1.04667 2.096,-5.26934 1.256,-6.832 1.33867,2.49066 5.308,5.15333 5.128,8.16266 0.732,-1.14933 1.11467,-2.98533 1.12667,-4.364 0.86133,1.47467 2.056,2.79867 2.948,4.22667 0.472,0.75467 0.90933,1.97867 1.72933,2.312 0.13867,-2.11867 0.98,-3.18267 2.80934,-4.36 1.33066,3.46933 3.332,6.14933 2.75866,10.00533 2.056,-2.96666 2.34667,-5.20133 3.07867,-8.55066 1.576,2.448 1.95867,7.38133 2.184,10.232 0.14133,1.77733 0.084,3.53733 -0.996,4.95066 3.744,-2.56666 5.71733,-4.56933 7.27733,-8.58266 1.196,-3.08134 3.69467,-5.26 5.96934,-7.392 0.21066,3.20666 -0.104,7.50933 -1.80534,10.37066 3.64134,-2.59866 7.16934,-4.86666 8.996,-8.85733 0.81867,-1.788 1.62667,-3.53733 2.57734,-5.20667 0.304,1.15867 0.18266,2.676 0.80933,3.76 1.15733,-1.476 2.176,-2.97733 3.012,-4.60133 0.33867,-0.65867 3.19067,-4.22 3.176,-4.46667 0.14533,2.472 -0.41467,5.78134 2.03466,7.428 -2.12399,-3.472 -0.20933,-7.55866 0.912,-11.01866 0.80134,-2.47067 2.96267,-7.78 1.212,-10.12534 0.24,0.32134 0.37734,0.82934 0.744,1.04 0.0893,-2.82 -0.25066,-5.744 -0.70133,-8.508 -0.22,-1.34533 -0.552,-2.688 -1.012,-3.944 -0.868,-2.368 -1.776,-4.14 -1.108,-6.73466 0.59333,-2.3 1.83333,-4.36267 2.63867,-6.58533 0.82933,-2.288 1.53066,-4.62267 2.444,-6.88 0.87466,-2.16134 1.80133,-4.30134 2.63866,-6.49067 0.404,-1.056 0.536,-1.97067 0.856,-2.952 0.58134,-0.088 1.20534,0.24667 1.644,0.57067 -0.0453,-1.66667 -0.384,-3.40534 -0.0813,-5.05334 0.93467,-0.14533 1.42133,0.68267 1.89867,1.28 0.392,-0.88133 0.38533,-1.868 0.42,-2.81333 0.016,-0.44533 0.0133,-0.88667 0.012,-1.332 0,-0.35467 0.16133,-1.01467 0.052,-1.33467 0.21866,0.644 0.44933,1.15867 0.80666,1.78667 0.24267,0.424 0.432,1.36667 0.832,1.62133 0.0347,-0.692 -0.008,-1.396 -0.13866,-2.052 -0.45734,-2.30933 -0.88667,-4.53733 -0.60667,-6.9 0.15067,-1.26266 0.42133,-2.508 0.58133,-3.76933 0.084,-0.66533 0.14134,-1.336 0.13067,-2.00667 -0.008,-0.52 -0.22533,-1.17466 0.0413,-1.65066 0.20934,0.83866 0.41867,1.70533 0.51867,2.56533 0.24267,2.08533 0.23067,4.10667 -0.0733,6.14267 -0.15067,1.01066 -0.29334,1.93066 -0.25734,2.97466 0.0267,0.82 0.396,1.54267 0.46934,2.33867 -0.31467,-3.45867 1.21066,-6.56533 1.7,-9.912 0.27333,-1.872 0.10266,-3.728 -0.23867,-5.58 -0.37867,-2.048 -0.83867,-4.19467 -1.46133,-6.18267 -0.22,-0.70266 -0.55334,-1.42266 -0.66267,-2.15333 0.47467,0.44533 1.01467,0.85467 1.43467,1.35867 0.23866,0.28533 0.39066,0.76266 0.68,0.968 -0.0973,-0.068 -0.0973,-1.45334 -0.13867,-1.66667 -0.10533,-0.53067 -0.26133,-1.06 -0.448,-1.56667 -0.41333,-1.12133 -0.8,-2.212 -1.03333,-3.388 -0.47867,-2.40533 -0.52934,-4.86933 -0.57334,-7.312 -0.016,-0.82 0.003,-1.73066 0.56134,-2.33066 0.17066,1.104 0.22133,2.26266 0.50266,3.33733 0.27867,1.064 0.6,2.112 1.00134,3.136 0.51733,1.31867 2.09733,4.204 3.75466,4.23733 -1.62,-2.796 -2.83333,-5.33066 -2.724,-8.67466 0.0827,-2.50267 1.19334,-4.804 1.78134,-7.204 0.23733,-0.96534 0.256,-1.87067 0.73333,-2.76134 0.42,-0.78533 0.98667,-1.476 1.488,-2.208 0.744,-1.08666 1.64,-2.05066 2.30267,-3.20266 1.02533,-1.78 1.244,-4.07734 -0.005,-5.78134 0.57867,1.50667 0.97867,3.00134 -0.088,4.29867 -1.09066,1.32667 -2.524,1.60933 -4.16933,1.724 1.12133,-0.844 2.72267,-1.45867 3.188,-2.96933 0.392,-1.272 0.056,-2.91067 -0.656,-4.01067 0.0147,0.89867 0.14667,2.76133 -0.88933,3.25333 -1.09334,0.52 -1.35334,-1.00533 -1.52,-1.70666 -0.22267,-0.94 -0.724,-1.76 -1.008,-2.65734 -0.27334,-0.864 -0.29867,-1.97066 -0.35067,-2.88 -0.10933,-1.92533 -0.20267,-3.75066 -0.64267,-5.64666 -0.4,-1.725333 -1.65066,-2.885333 -2.45466,-4.379999 -1.012,-1.88 -0.696,-4.68 -0.908,-6.774667 -0.25067,-2.470667 -0.56667,-4.934666 -0.98,-7.384 -0.82134,-4.877333 -2.02534,-9.706666 -3.83734,-14.315999 -1.21866,-3.101334 -2.712,-6.097334 -4.508,-8.906667"
       style="fill:#000000;fill-opacity:1;fill-rule:nonzero;stroke:none;stroke-width:1.33333"
       id="path1935" />
    <path
       d="m 210.96173,167.04254 c -0.16,-1.12667 -2.28267,-1.51867 -2.68267,-2.62267 -0.74933,-2.06533 -2.38267,-3.73333 -3.66533,-5.49066 -0.82134,-1.12667 -6.36933,-7.704 -4.99333,-9.25467 -0.46534,0.524 -0.92934,1.172 -1.28934,1.79867 -0.39066,-4.99467 -1.456,-9.728 -2.164,-14.54134 -0.37333,0.51867 -0.88266,0.91334 -1.11866,1.56934 -0.284,-4.16134 0.79466,-8.21334 0.61466,-12.34134 -0.12,-2.76266 -0.76933,-5.34133 -0.91466,-8.18133 -0.112,0.0853 -0.23734,0.132 -0.376,0.144 0.70933,-2.46 0.16933,-6.004 -0.076,-8.592 -0.30667,-3.224 0.0427,-5.476 0.29066,-8.62267 -0.40933,0.532 -1.00133,0.72134 -1.47733,1.136 -0.0627,-2.869329 0.91733,-6.214662 1.224,-9.151996 0.40533,-3.870666 0.144,-7.891999 0.644,-11.775999 -0.556,0.449333 -1.24,0.910666 -1.86267,1.256 1.22267,-4.64 3.932,-8.862667 5.92534,-13.225333 2.25066,-4.928 4.23199,-9.241333 7.53733,-13.612 -1.07867,0.36 -2.36667,0.368 -3.42667,0.64 2.90533,-3.650667 7.584,-5.929333 11.348,-8.566667 3.21333,-2.250666 6.59867,-5.099999 10.524,-6.099999 -0.65067,-0.2 -0.85467,-0.433334 -1.61333,-0.429334 3.77333,-2.654666 8.956,-4.274666 13.32666,-5.74 3.12134,-1.045333 8.81867,-1.508 11.184,-3.457333 -0.81733,-0.177333 -1.57066,-0.393333 -2.34266,-0.706666 4.104,-0.06 8.31333,-2.213334 12.56,-2.404 6.072,-0.272 12.05333,0.918666 18.09333,0.625333 -0.36533,-0.902667 -1.036,-1.705333 -1.49067,-2.569333 2.17867,-0.304 4.46,0.649333 6.46934,1.393333 2.48533,0.921333 5.04133,1.629333 7.54266,2.526667 0.33067,0.118666 0.652,0.26 0.98,0.388 -3.87066,0.796 -7.50533,2.221333 -11.30533,3.153333 -3.368,0.826666 -5.25467,2.846666 -7.88667,5.088 -2.08133,1.773333 -4.24,3.452 -1.912,5.629333 3.35334,3.136 8.15734,4.768 10.66267,9.030666 -2.13467,-1.406666 -4.49467,-3.258666 -6.836,-4.244 -3.05867,-1.288 -10.588,-4.113333 -14.152,-2.409333 0.42133,1.424 1.448,1.692 2.196,2.814667 -3.20933,-2.124 -10.90533,-2.913334 -12.41333,1.738666 4.64133,3.388 9.83866,4.584 13.252,9.865333 2.40266,3.72 4.55866,7.788 7.112,11.533333 -1.84267,-2.535999 -4.14667,-4.967999 -6.224,-7.394666 -3.26934,-3.817333 -7.408,-8.557333 -13.14267,-7.254666 -1.07467,0.244 -4.28933,1.378666 -5.084,2.175999 -1.52267,1.528 0.43067,2.693334 1.74133,3.98 1.496,1.466667 4.10267,3.013334 5.00267,4.849334 -2.25867,-0.898667 -6.288,-0.885334 -8.644,-0.124 6.02133,3.596 10.668,9.522666 15.73733,14.199999 -2.84933,-0.998666 -4.724,-4.202666 -7.51333,-5.581333 -2.924,-1.444 -6.968,-1.946667 -9.93067,-0.330667 -3.6,1.961334 -3.67866,6.76 -3.90933,10.390667 -0.24267,3.78 1.67733,6.834666 2.41333,10.374666 0.556,2.674666 0.87067,5.450666 1.128,8.169336 0.32667,3.428 0.60134,7.15733 -0.0373,10.552 -0.75867,4.03466 -3.18933,7.196 -4.92933,10.83866 -0.448,0.93734 -1.11867,1.88 -1.44667,2.864 -0.53867,1.61334 -0.74933,3.46 -1.04667,5.136 -0.34266,1.928 -0.44,3.916 -0.40133,5.87467 0.0493,2.47333 0.58933,4.78933 1.636,7.00533 0.53867,1.14134 1.27733,2.168 1.93467,3.252 0.49066,0.80934 0.84533,1.71467 1.36933,2.492 0.86267,1.27867 1.092,2.86267 2.00267,4.14267 0.96133,1.35067 2.45066,2.628 3.89866,3.356 2.57867,1.29467 2.052,4.136 2.53867,6.6 0.50533,2.56533 0.94933,5.216 2.17733,7.556 2.70667,5.16 7.544,6.35067 12.57067,8.46267 2.51467,1.056 5.21467,1.724 7.41733,3.34 1.42667,1.048 3.04667,1.90133 3.89334,3.50266 0.832,1.57334 0.98266,4.15067 2.484,5.264 1.10533,0.82 1.50933,0.0573 2.41733,1.276 1.132,1.51867 2.24667,5.31333 2.63867,7.224 0.30933,-0.3 0.98933,-0.59867 1.312,-0.97733 -0.79467,0.93066 -0.65734,3.37466 -0.852,4.564 -0.23334,1.43066 -0.89467,2.908 -0.26667,4.348 -0.16533,-2.06667 1.51467,-3.48134 2.63733,-5.164 0.90267,-1.35467 1.38,-3.25334 1.30934,-4.876 -0.0307,1.94266 0.488,3.728 0.244,5.68533 -0.144,1.156 -0.55067,2.26133 -0.92134,3.388 -0.86533,2.62667 -1.708,7.12667 0.564,9.36533 -2.004,-3.62133 2.24267,-7.58933 1.96667,-11.368 1.088,2.976 0.92133,5.83867 0.788,8.97734 -0.072,1.684 -0.536,5.06933 1.40533,5.94 -0.12933,-1.372 -0.25733,-2.58934 0.0893,-4.036 0.936,-3.90134 0.84266,-7.80534 1.16,-11.74134 0.92933,2.44934 0.69066,5.55334 0.964,8.132 0.30133,2.83734 -0.052,6.732 2.32266,8.80667 0.076,-1.92667 -1.148,-4.716 0.0947,-6.51067 0.25733,3.656 2.012,5.92267 4.63867,8.17067 0.30666,-0.932 0.23333,-2.62533 0.20933,-3.692 0.0387,1.58667 2.37067,2.672 3.348,3.608 1.31067,1.256 2.132,2.90533 3.13467,4.39467 0.0373,-2.06 -0.66534,-4.14 -0.55867,-6.35467 0.1,-2.09467 1.144,-4.16667 1.008,-6.228 0.0227,4.18533 -0.14267,9.88267 3.196,12.73867 -0.20533,-1.60134 1.01467,-3.07867 2.092,-4.11334 0.70133,1.076 1.27867,2.69734 1.396,3.94134 1.90267,-0.10534 4.352,-1.66934 5.80667,-3.03334 2.05866,-1.932 1.7,-3.73066 1.86133,-6.356 1.436,2.03067 2.25867,6.552 1.19467,8.92134 2.572,-2.976 3.77866,-7.772 3.81066,-11.6 0.0267,-3.19867 -2.64,-7.156 -1.4,-10.212 -0.048,2.73466 0.22,4.34933 1.4,6.77466 1.19734,2.45734 3.14667,5.236 3.016,8.01467 0.056,-1.18933 1.30134,-2.72533 1.47334,-4.05067 0.21733,-1.68 0.224,-3.57866 -0.21067,-5.224 -0.46267,-1.76 -1.11467,-3.504 -1.052,-5.352 0.172,1.55867 1.53333,2.86534 2.30933,4.156 0.79334,1.31867 0.83734,2.73334 1.09334,4.23467 0.003,-1.91867 -0.0213,-3.83867 10e-4,-5.75867 0.0333,-2.872 -0.256,-5.94266 -1.25067,-8.64933 -0.66,-1.79067 -2.008,-3.384 -2.34533,-5.176 1.75867,0.088 4.26,2.83333 4.42267,4.58133 0.0653,-2.24133 0.244,-5.34933 -0.52,-7.61733 1.46666,1.364 2.328,3.20134 3.18666,4.976 1.284,2.65733 1.56667,6.144 2.092,9.04 0.27867,1.53333 0.54267,3.08933 0.412,4.64133 -0.208,2.49334 -1.38933,4.75067 -2.06,7.12934 -0.32667,1.16133 -0.33067,2.368 -0.65733,3.51066 -0.37067,1.28934 -0.804,2.56 -1.464,3.73467 -1.65867,2.95733 -4.43733,2.95733 -7.00933,4.576 -2.492,1.56933 -4.29734,3.66133 -7.24,4.66667 -2.45867,0.84133 -4.99467,1.44266 -7.50534,2.32533 -2.20666,0.77733 -3.912,1.25067 -5.96533,0.0453 -2.516,-1.476 -5.41467,-2.00666 -8.07733,-3.13333 -2.38534,-1.008 -3.98,-1.83333 -6.44934,-2.41867 -4.53466,-1.07466 -7.25066,-5.444 -11.23466,-7.53733 -2.20134,-1.15733 -4.34534,-0.91067 -6.61867,-1.78 -2.60933,-1 -4.08267,-2.28 -6.11333,-3.91867 -0.0653,0.43734 -0.464,0.82934 -0.53867,1.268 -2.91067,-1.06266 -5.696,-3.44 -8.036,-5.452 0.009,0.888 -0.005,1.816 -0.264,2.61867 -0.06,0.188 -1.89467,-1.22 -2.02133,-1.28667 -0.88,-0.46 -1.94934,-0.23733 -2.87734,-0.52666 -2.00133,-0.624 -2.264,-1.848 -3.53733,-3.292 -1.18533,-1.34267 -2.31733,-2.54534 -2.92267,-4.276 -1.90533,-5.45467 -2.92533,-11.24933 -4.484,-16.812 -0.72533,-2.58933 -1.436,-5.232 -2.77866,-7.584 -0.896,2.16933 -1.236,8.42 -0.12534,10.47067 -1.24,-4.47334 -4.43866,-7.86667 -4.96933,-12.65734 -0.648,2.028 -0.68533,4.03467 -0.648,6.252 -2.04267,-3.56933 -2.02133,-7.42133 -2.536,-11.36133 -0.19867,-1.52267 -0.45467,-3.056 -0.70133,-4.57867 -0.22534,-1.39466 -1.52934,-4.09866 -1.16,-5.44266 -0.54267,1.976 -0.88534,3.712 -0.88,5.80266 -2.50267,-8.02933 -2.99334,-18.73066 -0.64134,-26.88266 -0.87733,1.40666 -1.928,2.88 -2.716,4.32533 -2.26133,4.14533 -1.56133,9.88267 -2.37466,14.40267 -0.32267,1.788 -0.92,3.176 -0.868,5.032 0.032,1.144 2.32666,13.10133 2.32666,13.10133"
       style="opacity:0.199997;fill:#000000;fill-opacity:1;fill-rule:nonzero;stroke:none;stroke-width:1.33333"
       id="path1945" />
    <path
       d="m 326.37466,147.88441 c -1.11867,-2.83467 -2.284,-5.652 -3.49467,-8.44934 -0.504,-1.16666 -1.06266,-2.316 -1.48133,-3.516 -0.26933,-0.77066 -0.57467,-1.57866 -0.72133,-2.384 -0.0493,-0.26533 -0.0507,-0.51866 0.04,-0.772 0.08,-0.224 0.232,-0.37066 0.364,-0.56666 0.684,-1.01467 1.26533,-2.07334 2.016,-3.05334 0.804,-1.052 1.72133,-2.07733 2.18,-3.34133 -0.556,0.67333 -1.33067,1.208 -2.03067,1.688 -1.12133,0.76933 -2.308,1.82 -3.808,1.30933 -0.67733,-0.23066 -1.29333,-0.78133 -2.00133,-1.028 -0.34,-0.11733 -0.692,-0.21733 -1.05067,-0.25733 -0.136,-0.016 -0.94667,0.084 -0.996,0.0373 1.05867,0.97067 1.876,2.19067 2.47733,3.48934 0.55734,1.20266 1.16934,2.36666 1.69334,3.588 0.45066,1.052 0.78266,2.12266 1.21333,3.18133 0.46667,1.148 0.932,2.29733 1.39333,3.448 0.92134,2.30267 1.82267,4.612 2.676,6.94 1.364,3.72 2.60667,7.488 3.60667,11.324 0.23333,0.89467 0.45467,1.80933 0.4,2.732 -0.12133,2.07067 -1.468,4.25067 -3.02533,5.56 -1.20534,1.01333 -2.81867,1.944 -4.39334,2.23867 -1.30266,0.244 -2.196,-0.66267 -3.29733,-1.12134 -1.088,-0.45333 -2.31467,-0.292 -3.476,-0.248 -3.51467,0.13334 -7.03333,1.72134 -10.572,0.552 -1.956,-0.64533 -3.90533,-1.50666 -5.12933,-3.20933 -0.35467,-0.49467 -3.15067,-4.892 -2.96534,-5.19467 -1.25466,2.04667 -0.488,5.94267 0.54667,7.98134 0.82933,1.636 2.26667,2.90933 3.50667,4.17466 0.528,0.53867 1.33066,0.968 2.10666,0.90667 1.06934,-0.0853 0.67467,-0.62533 1.41067,-1.164 0.376,-0.27467 1.31467,-0.24 1.79333,-0.16133 3.07067,0.49866 4.608,4.12 5.10534,6.876 0.392,2.16933 -0.0573,4.37866 -0.64267,6.48 -0.20133,0.728 -0.79067,1.26 -1.40267,1.68533 1.2,-0.0187 2.36134,0.52267 3.55467,0.468 -0.23467,-0.84267 -0.53333,-1.692 -0.46667,-2.588 0.0933,-1.25333 0.676,-2.248 1.02667,-3.41867 0.52267,-1.752 0.864,-2.84666 2.096,-4.296 1.16,-1.364 2.53333,-2.54666 4.06,-3.48266 0.41733,-0.256 0.99733,-0.48134 1.35333,-0.144 0.27334,0.25733 0.24134,0.70933 0.45867,1.016 0.452,0.64133 1.456,0.204 2.068,-0.28534 1.80667,-1.44666 3.53067,-2.996 5.16,-4.63866 1.29067,-1.30134 2.26,-2.93734 2.80933,-4.68667 0.68934,-2.19867 0.26134,-4.69467 -0.29866,-6.88267 -0.94,-3.68133 -2.47067,-7.25866 -3.86267,-10.78666"
       style="fill:#000000;fill-opacity:1;fill-rule:nonzero;stroke:none;stroke-width:1.33333"
       id="path1959" />
    <path
       d="m 274.28986,130.72747 h -4.10667 c 0,0 -0.11333,6.516 13.34667,12.17334 7.20133,3.02666 12.17333,-3.56267 12.17333,-3.56267 l -1.32,-5.048 c 0,0 -2.93333,-2.82 -7.04,-3.26533 -4.10666,-0.44534 -13.05333,-0.29734 -13.05333,-0.29734"
       style="fill:#ffffff;fill-opacity:1;fill-rule:nonzero;stroke:none;stroke-width:1.33333"
       id="path1975" />
    <path
       d="m 292.68399,141.87787 c 0.67467,-1.36666 2.76534,-5.844 1.26134,-7.75866 -1.504,-1.916 -9.652,-3.27467 -12.51467,-3.32267 -2.86267,-0.0493 -8.31333,-0.39067 -8.31333,-0.39067 0,0 -1.70134,3.30134 -0.44,4.80134 1.26133,1.5 9.28666,7.276 11.81066,7.768 2.52267,0.49066 7.808,-0.312 8.196,-1.09734"
       style="fill:#000000;fill-opacity:1;fill-rule:nonzero;stroke:none;stroke-width:1.33333"
       id="path1979" />
    <path
       d="m 290.66159,140.96734 c 0.612,-1.156 2.508,-4.94533 1.144,-6.56667 -1.364,-1.62 -8.104,-3.364 -10.696,-3.52 -3.28133,-0.196 -5.52533,-0.34933 -5.52533,-0.34933 0,0 -1.37867,4.70133 -0.23467,6.28 1.144,1.57867 6.776,4.82133 9.064,5.236 2.288,0.416 5.896,-0.41467 6.248,-1.08"
       style="fill:#fbb03b;fill-opacity:1;fill-rule:nonzero;stroke:none;stroke-width:1.33333"
       id="path1983" />
    <path
       d="m 282.93173,137.15281 c -1.04667,3.16533 -0.376,5.58666 1.26533,5.96 1.64,0.37333 3.15867,-2.04934 3.392,-5.412 0.23333,-3.36267 -0.908,-6.392 -2.548,-6.76534 -1.64133,-0.37333 -1.06267,3.052 -2.10933,6.21734"
       style="fill:#000000;fill-opacity:1;fill-rule:nonzero;stroke:none;stroke-width:1.33333"
       id="path1987" />
    <path
       d="m 285.06973,133.80801 c 0,1.104 -0.888,2.028 -1.98267,2.06266 -1.09467,0.0347 -1.98267,-0.832 -1.98267,-1.93733 0,-1.104 0.888,-2.028 1.98267,-2.06267 1.09467,-0.0347 1.98267,0.83334 1.98267,1.93734"
       style="fill:#ffffff;fill-opacity:1;fill-rule:nonzero;stroke:none;stroke-width:1.33333"
       id="path1991" />
    <path
       d="m 234.75306,97.311608 c -0.25733,0.28 -0.516,0.56 -0.78667,0.856 0.28267,-0.266667 0.54,-0.556 0.78667,-0.856"
       style="opacity:0.199997;fill:#000000;fill-opacity:1;fill-rule:nonzero;stroke:none;stroke-width:1.33333"
       id="path2001" />
    <path
       d="m 296.18919,167.12734 c 0.52134,1.016 1.272,1.51467 2.62267,2.15333 3.896,1.84134 8.45467,3.32534 12.79867,3.32534 2.54266,0 4.92133,-0.34267 7.516,-0.136 1.648,0.132 4.32,0.312 5.77866,-0.45067 1.86667,-0.976 2.668,-3.856 3.4,-5.64 0.41334,-1.00933 1.3,-4.92133 -0.99733,-4.05733 -1.18133,0.444 -1.83333,1.53733 -3.18133,1.796 -3.036,0.584 -5.41734,-1.92934 -8.65067,-1.296 -2.99867,0.588 -6.59733,2.55866 -9.50133,1.07866 -2.55067,-1.3 -5.788,-3.96 -8.856,-2.71333 -1.996,0.81067 -1.91334,2.81867 -1.428,4.59067 0.148,0.54 0.308,0.97866 0.49866,1.34933"
       style="opacity:0.300003;fill:#000000;fill-opacity:1;fill-rule:nonzero;stroke:none;stroke-width:1.33333"
       id="path2017" />
    <path
       d="m 279.78559,186.74974 c 3.80667,2.40667 8.45067,1.97733 12.71734,1.556 2.18933,-0.216 4.03466,-1.01333 6.13733,-1.45067 3.24533,-0.67466 6.336,-0.99866 9.35467,-2.424 1.23066,-0.58133 1.80266,-1.44666 2.74,-2.348 1.80933,3.41067 5.836,4.35334 8.97866,6.07867 0.78934,0.432 1.44667,1.01067 2.30267,1.196 2.07067,0.45067 4.376,0.516 6.472,0.19333 1.21467,-0.188 5.50533,-1.09466 5.82533,-2.628 -0.52,2.48667 -2.476,3.908 -3.92266,5.92667 -0.736,1.028 -1.31867,2.24933 -2.156,3.16667 -1.31334,1.44 -3.016,2.64266 -4.46267,3.94666 0.26533,-1.00933 0.60533,-1.49466 0.476,-2.61066 -0.268,-2.30267 -1.87467,-4.08267 -3.74,-5.216 -2.768,-1.684 -5.13067,-2.85334 -8.372,-3.364 -3.36933,-0.53067 -6.82933,-0.47734 -10.18667,0.11333 -2.38666,0.42 -4.56666,1.264 -6.84133,2.05733 -3.196,1.11467 -6.59067,1.34667 -9.89333,1.98534 -2.104,0.408 -5.008,0.93066 -5.05467,3.66666 -0.0213,1.29334 0.12,2.65334 0.12,3.97867 -0.0307,-3.19867 -2.06533,-5.372 -4.40533,-7.22667 -1.288,-1.02133 -2.37867,-2.59066 -2.61467,-4.29733 -0.18667,-1.34533 -0.36533,-4.32667 0.46133,-5.4 0.77334,1.05467 1.91467,1.68133 3.08934,2.192 0.86933,0.37733 2.21066,0.42533 2.97466,0.908"
       style="fill:#000000;fill-opacity:1;fill-rule:nonzero;stroke:none;stroke-width:1.33333"
       id="path2027" />
    <path
       d="m 318.77999,197.81374 c 0.007,0.016 0.012,0.0333 0.0173,0.0493 0.376,1.10134 -1.47734,2.43867 -2.35067,2.98267 -0.22667,-0.81067 -0.35067,-1.65333 -0.57333,-2.41733 -0.788,-0.016 -1.704,0.66266 -2.42,0.972 -0.888,0.38533 -1.66534,0.68266 -2.59467,0.86399 0.008,-0.12933 -0.0267,-0.28399 -0.0213,-0.41733 -0.69334,0.064 -1.52267,0.36267 -2.17334,0.61467 -0.0347,-0.13067 -0.11066,-0.26267 -0.14666,-0.396 -1.29467,-0.0493 -5.43334,1.39066 -5.45867,-0.888 -0.584,0.124 -1.124,0.52933 -1.69867,0.62 -0.49866,0.08 -1.25066,-0.47067 -1.35333,-0.45333 -1.6,0.27733 -2.76533,1.30933 -4.44,0.73466 -0.496,-0.16933 -4.42267,-1.916 -4.176,-0.47733 -0.78933,-0.23067 -1.564,-0.764 -2.344,-1.15067 -1.01067,-0.50133 -2.02933,-0.65733 -3.22533,-0.696 1.33733,-1.30666 3.356,-1.16533 5.06533,-1.46933 2.144,-0.38133 4.20533,-1.11333 6.34267,-1.52133 4.09733,-0.78267 8.40533,-1.25734 12.54666,-0.54134 2.09867,0.364 8.036,0.96134 9.004,3.59067"
       style="opacity:0.199997;fill:#000000;fill-opacity:1;fill-rule:nonzero;stroke:none;stroke-width:1.33333"
       id="path2037" />
    <path
       d="m 277.42573,189.01667 c -2.17467,-1.704 -3.32667,-5.14133 -3.57467,-7.38933 -0.32667,-2.96133 -0.39867,-5.82 0.772,-8.66133 1.70267,-4.128 4.34667,-7.21334 8.50267,-9.22934 -0.332,1.528 -1.71467,2.884 -2.228,4.504 -0.75467,2.38267 -0.75334,5.17734 -0.756,7.68934 -0.005,4.14266 1.89866,7.22 3.45333,10.908 0.66267,1.57333 1.42,1.48133 -0.56,2.48666 -2.32933,1.18 -4.188,0.80534 -5.60933,-0.308"
       style="opacity:0.199997;fill:#000000;fill-opacity:1;fill-rule:nonzero;stroke:none;stroke-width:1.33333"
       id="path2053" />
    <path
       d="m 336.25119,185.32654 c -1.776,4.24133 -6.308,7.016 -10.284,9.40933 0.72,-2.63466 1.70667,-3.51333 3.37067,-5.592 1.78133,-2.22666 3.156,-4.74533 4.27333,-7.29866 1.69067,-3.86 0.36667,-7.708 0.49333,-11.64134 1.21867,2.34 1.88,4.83867 2.16,7.45867 0.29867,2.776 0.97334,5.308 -0.0133,7.664"
       style="opacity:0.199997;fill:#000000;fill-opacity:1;fill-rule:nonzero;stroke:none;stroke-width:1.33333"
       id="path2069" />
    <path
       d="m 292.77013,140.65707 c -3.37334,1.80534 -8.06267,3.74934 -19.06667,-5.01333 -2.03333,-1.61867 -2.75867,-3.992 -2.916,-4.59733 7.32133,-0.60267 17.80533,0.75066 20.36933,2.42533 3.37334,2.20267 4.98667,5.38 1.61334,7.18533 m 8.8,-0.86133 c -1.40667,-0.58533 -3.048,-1.88533 -3.92267,-3.13467 -0.844,-1.20666 -1.07467,-2.93333 0.292,-3.884 1.97733,-1.37466 4.808,-1.60533 6.164,-3.84133 -0.73067,0.792 -2.028,1.33333 -2.976,1.764 -0.448,0.20267 -0.868,0.35733 -1.38,0.404 -2.50933,0.232 -4.696,-0.21733 -7.04533,-1.104 -2.29334,-0.86533 -4.55467,-1.82133 -6.90267,-2.53467 -2.42,-0.736 -4.93733,-1.18666 -7.43067,-1.59066 -4,-0.64934 -8.136,-1.08667 -12.072,-0.12267 1.068,-0.0493 2.13734,-0.0453 3.20534,0.012 0.48933,0.0267 0.98133,0.0613 1.468,0.0987 0.16133,0.012 1.11333,0.25066 1.18666,0.204 -0.696,0.45333 -1.568,0.57466 -2.328,0.856 -0.716,0.26533 -1.36266,0.63333 -2.01333,1.02666 1.804,-0.61333 3.72933,-0.852 5.62933,-0.86533 1.83867,-0.0133 3.54267,0.40267 5.33734,0.56267 1.89466,0.16933 3.79066,0.42533 5.63866,0.88133 0.84667,0.208 1.68667,0.45867 2.496,0.78533 0.596,0.24 1.36134,0.90934 1.95734,1.02534 -4.73867,-0.91734 -11.17867,-1.52934 -16.87467,-0.92134 -2.20133,0.236 -4.49333,0.78667 -6.66533,1.28267 0.30933,-0.0707 1.60666,0.67733 1.96,0.80667 0.70133,0.25866 1.42666,0.53333 2.008,1.01733 0.84266,0.70267 1.38,1.72933 2.07066,2.57467 1.74534,2.136 3.96534,3.85866 6.32134,5.27333 1.45066,0.87067 2.968,1.62933 4.52133,2.29867 7.59867,3.276 11.43467,-0.19867 13.048,-1.624 1.61333,-1.424 3.08,-2.112 4.84,-0.56267 1.76,1.55067 3.81333,0.29067 1.46667,-0.688"
       style="fill:#000000;fill-opacity:1;fill-rule:nonzero;stroke:none;stroke-width:1.33333"
       id="path2079" />
    <path
       d="m 342.71372,136.60201 c -0.12,2.46133 -2.27466,5.168 -6.584,4.06666 -4.30933,-1.10133 -9.81733,-1.96133 -11.13333,-1.85333 -0.87333,0.0733 -1.79066,-1.016 -2.31466,-1.71067 2.34,-2.64533 7.452,-5.628 13.08666,-6.17333 2.48667,-0.24133 4.32533,-0.30133 5.652,-0.28533 0.45333,1.38133 1.37867,4.20933 1.29333,5.956"
       style="fill:#ffffff;fill-opacity:1;fill-rule:nonzero;stroke:none;stroke-width:1.33333"
       id="path2087" />
    <path
       d="m 326.68133,133.60507 c 0,0 -0.92,3.43734 0.34533,5.63734 0,0 7.24266,2.03466 9.08133,2.69866 1.84,0.664 5.51867,-0.0173 6.208,-1.30666 0.69067,-1.29067 0.46,-9.948 -0.22933,-10.79334 -0.68934,-0.84666 -5.63334,-0.22933 -9.54267,1.21734 -3.908,1.44666 -5.86266,2.54666 -5.86266,2.54666"
       style="fill:#000000;fill-opacity:1;fill-rule:nonzero;stroke:none;stroke-width:1.33333"
       id="path2091" />
    <path
       d="m 328.56559,133.51334 c 0,0 -0.93333,4.23867 0.17467,6.44533 0,0 6.47066,1.272 8.08133,1.948 1.612,0.67467 4.83333,0.016 5.43733,-1.27066 0.60534,-1.28534 0.404,-9.944 -0.20133,-10.79467 -0.604,-0.84933 -4.93333,-0.26267 -8.35733,1.16133 -3.42267,1.42267 -5.13467,2.51067 -5.13467,2.51067"
       style="fill:#fbb03b;fill-opacity:1;fill-rule:nonzero;stroke:none;stroke-width:1.33333"
       id="path2095" />
    <path
       d="m 335.23799,136.57907 c -1.16533,3.216 -0.41867,5.60534 1.40933,5.89734 1.828,0.292 3.52,-2.20667 3.78,-5.58 0.25867,-3.37467 -1.012,-6.34667 -2.84,-6.63867 -1.828,-0.29333 -1.184,3.10533 -2.34933,6.32133"
       style="fill:#000000;fill-opacity:1;fill-rule:nonzero;stroke:none;stroke-width:1.33333"
       id="path2099" />
    <path
       d="m 341.74186,136.76721 c -0.11467,2.392 -1.708,5.10533 -5.91334,4.39733 -6.51999,-1.096 -9.26266,-2.27333 -10.52666,-2.16933 -0.83867,0.0693 -1.72,-1.01867 -2.22267,-1.692 2.24667,-2.58 7.156,-5.50667 12.568,-6.064 1.13867,-0.11734 2.28,-0.21067 3.42267,-0.26134 0.46133,-0.0213 0.86933,-0.15733 1.28666,0.0933 1.608,0.964 1.468,3.988 1.38534,5.696 m 2.852,-6.35467 1.63066,-2.184 c 0,0 -10.70933,0.71733 -13.89466,1.58667 -3.18533,0.86933 -7.83333,4.01733 -9.09733,4.98533 -1.05334,0.808 -1.784,3.576 -1.33467,3.51333 0.0667,0.51867 0.308,1.14134 0.87467,1.87734 1.95466,2.54266 2.3,1.17733 1.95466,0.0307 -0.34533,-1.14666 6.18667,1.14667 10.96,2.38134 3.71733,0.96133 7.204,-0.95734 7.77867,-3.232 0.57466,-2.27467 1.41333,-7.84134 1.864,-8.55867 0.13066,-0.20667 -0.204,-0.32933 -0.736,-0.4"
       style="fill:#000000;fill-opacity:1;fill-rule:nonzero;stroke:none;stroke-width:1.33333"
       id="path2103" />
    <path
       d="m 324.15213,134.66107 c 0,0 3.276,-4.988 9.41866,-6.876 2.21067,-0.68 4.46533,-1.22 6.74,-1.64266 0.83733,-0.156 1.68133,-0.272 2.52133,-0.41734 0.96,-0.164 1.732,-0.78533 2.70134,-1.008 0.78933,-0.18133 1.76,-0.504 2.476,-0.876 -0.48134,1.10267 -1.71467,1.89334 -2.70934,2.52267 -3.412,2.15333 -7.84,1.31467 -11.49333,2.784 -2.16,0.86933 -9.65466,5.51333 -9.65466,5.51333"
       style="fill:#000000;fill-opacity:1;fill-rule:nonzero;stroke:none;stroke-width:1.33333"
       id="path2107" />
    <path
       d="m 336.59746,134.23267 c 0,1.02667 -0.82534,1.88534 -1.84267,1.91734 -1.01867,0.0333 -1.844,-0.77334 -1.844,-1.8 0,-1.028 0.82533,-1.88667 1.844,-1.91867 1.01733,-0.032 1.84267,0.77467 1.84267,1.80133"
       style="fill:#ffffff;fill-opacity:1;fill-rule:nonzero;stroke:none;stroke-width:1.33333"
       id="path2111" />
    <path
       d="m 327.05159,123.90334 c 1.53467,-1.86533 3.03067,-3.77467 4.86667,-5.41467 3.61066,-3.22533 7.74133,-3.06266 11.888,-4.76933 -2.03334,0.83733 -6.4,2.17067 -6.85734,4.74533 2.25734,-0.40133 4.55867,-0.456 6.828,-0.78133 1.38934,-0.19867 3.31867,0.0227 4.62267,-0.43867 3.03067,-1.07066 2.82,-5.72533 2.44533,-8.23733 -0.44133,-2.95067 -1.21466,-5.84267 -2.84666,-8.372 -0.64667,-1.002666 -1.54134,-1.762666 -2.04934,-2.814666 -0.70666,-1.461333 -0.95333,-3.424 -1.33733,-5.001333 -1.312,-5.398667 -2.216,-11.056 -4.904,-15.973333 -0.66933,1.934667 -0.72267,4.254667 -1.45467,6.244 -0.71066,1.932 -1.67866,3.554667 -2.776,5.304 2.23467,-3.626667 2.95467,-7.761333 2.09867,-12.008 -0.78133,-3.884 -1.48133,-7.472 -3.33067,-11.013333 -1.36399,-2.614667 -4.26133,-5.413333 -5.03199,-8.16 1.21066,3.653333 0.75733,10.146667 -1.24,13.484 0.10933,-3.790667 -0.48134,-7.681333 -1.63867,-11.282666 -0.72933,-2.264 -1.07467,-4.969334 -2.38267,-6.998667 -0.44133,-0.686667 -3.68933,-4.676 -4.11333,-4.702667 5.11333,0.325334 11.92133,5.930667 15.55333,9.194667 5.41467,4.868 6.04,11.789333 7.56533,18.502666 0.856,3.768 2.136,7.449333 2.63734,11.293333 0.45333,3.481333 0.70533,6.781333 1.53466,10.222667 0.81067,3.358662 2.95467,6.194662 3.78934,9.686662 0.608,2.54667 1.52266,6.05467 0.64933,8.62 -0.23067,0.68267 -0.60267,1.15334 -0.772,1.828 -0.22133,0.88134 -0.0867,1.89867 -0.29467,2.81067 -0.40933,1.784 -1.268,3.41467 -2.60133,4.68267 -1.27733,1.21333 -2.21333,1.84933 -3.87733,2.00533 -3.10667,0.29333 -6.08667,0.59333 -9.08934,1.60933 -1.84666,0.62667 -3.93866,0.82134 -5.53599,1.99467 -1.91467,1.40667 -3.63067,3.07333 -5.47467,4.57067 -0.81067,0.65866 -1.90533,1.41333 -2.108,2.47466 -0.13867,0.72667 0.508,2.87467 0.91333,3.31334 1.97467,2.14 6.788,1.44 9.43734,2.59066 1.70666,0.74134 3.41333,1.524 5.32399,1.62534 1.10934,0.0573 3.39067,-0.54534 3.64134,1.02533 0.13066,0.812 -0.93467,2.37467 -1.50667,2.9 -1.744,1.6 -4.73733,0.68267 -6.664,0.20133 -1.15333,-0.288 -2.344,-0.55066 -3.47333,-0.924 -0.89467,-0.29733 -1.784,-0.792 -2.64933,-1.18133 -0.684,-0.30667 -1.68667,-0.43067 -2.21334,-0.95333 -0.472,-0.46667 -0.59733,-1.27734 -0.76666,-1.88667 -0.44,-1.58133 -1.26267,-3.18267 -1.91734,-4.68667 -0.62266,-1.43066 -1.24666,-2.86133 -1.91466,-4.27066 -0.3,-0.63067 -0.796,-1.324 -0.96667,-1.99734 -0.356,-1.408 0.0987,-2.24133 1.264,-2.972 1.25733,-0.788 2.52267,-1.56666 3.6,-2.60666 1.128,-1.08667 2.13733,-2.276 3.12933,-3.48267"
       style="opacity:0.199997;fill:#000000;fill-opacity:1;fill-rule:nonzero;stroke:none;stroke-width:1.33333"
       id="path2121" />
    <path
       d="m 240.68039,107.38561 c -0.876,3.16533 -0.99733,6.74533 -1.708,10.064 -1.06266,4.96133 -3.28533,8.87066 -5.97866,13.208 -5.24267,8.44 -12.632,15.648 -16.03334,25.104 -4.356,12.11066 -2.412,26.14266 -2.412,38.852 0,9.68933 -0.128,20.23333 -5.32533,28.71733 -1.516,2.476 -2.56933,5.60266 -1.936,8.51866 0.10267,0.47334 0.572,2.85867 1.156,2.86534 0.70533,0.008 1.27467,-1.94267 1.48267,-2.432 0.48666,-1.14 0.82666,-1.81067 1.804,-2.644 1.72,-1.46534 4.14266,-2.50134 5.524,-4.31867 -0.14267,2.70267 -3.05467,4.74533 -1.20667,7.632 -1.04667,-4.052 4.456,-6.25467 6.13867,-9.44933 2.44133,-4.63334 2.904,-9.47467 2.904,-14.636 0.0267,5.10533 0.81733,10.288 -0.64934,15.26 -0.76666,2.60133 -2.24266,5.09333 -3.644,7.484 5.96534,-2.87467 11.32667,-8.952 11.128,-15.924 2.07734,5.46133 2.69334,11.50266 1.13067,16.796 0.272,-0.92 3.608,-2.804 4.37467,-3.91067 1.13333,-1.636 1.45066,-3.35733 2.10533,-5.176 1.01867,-2.82267 1.69867,-5.692 2.00533,-8.69467 0.62667,1.64667 0.44267,3.55734 0.78667,5.28 7.092,-2.264 4.472,-13.97466 4.23333,-19.056 -0.19466,-4.14933 1.15467,-10.24266 4.66,-12.94799"
       style="fill:#cd976d;fill-opacity:1;fill-rule:nonzero;stroke:none;stroke-width:1.33333"
       id="path2131" />
    <path
       d="m 241.88013,168.75414 c -0.24,0.792 -0.66267,1.56267 -1.01334,2.304 -0.98933,2.10267 -2.26666,4.12533 -3.44133,6.18933 -0.996,1.75067 -1.86,3.50134 -2.652,5.35067 -0.77733,1.81467 -1.64533,3.896 -1.8,5.85867 -0.0267,0.34266 0.13467,1.08133 0.003,1.36933 1.53733,-3.33067 3.44666,-6.392 4.952,-9.74533 -0.52667,3.12 -0.504,6.27333 -1.372,9.36666 -0.544,1.93734 -1.15334,3.752 -2.05334,5.556 -1.06533,2.13734 -2.01866,4.39334 -2.34133,6.79067 0.4,-2.05067 -0.172,-4.19867 -0.53333,-6.22267 -0.60134,-3.364 -0.812,-6.57333 -0.33867,-9.98933 0.43867,-3.17333 0.87867,-6.304 1.56533,-9.436 0.288,-1.30933 0.532,-2.66 0.91334,-3.944 0.216,-0.72667 0.57733,-1.46533 0.69733,-2.21467 -2.932,4.472 -4.42,9.31467 -5.65333,14.54667 -0.764,3.24533 -1.26267,6.71467 -1.54,10.03867 -0.13734,1.64933 -0.484,3.348 -1.08534,4.91333 0.0907,-0.78133 0.268,-1.532 0.37334,-2.32267 0.512,-3.824 -0.18667,-7.784 -0.007,-11.65333 0.14533,-3.14 0.376,-6.40533 1.476,-9.384 0.54,-1.46267 1.03733,-2.9 1.824,-4.24933 0.828,-1.41734 1.66133,-2.82534 2.54,-4.20534 3.01733,-4.73466 5.77467,-9.64133 7.38267,-15.068 1.44,-4.86266 2.036,-9.55866 2.036,-14.604 0,-3.69066 -0.0493,-7.368 0.708,-10.96666 -1.132,5.07466 -0.008,10.416 -1.92134,15.36666 -2.12,5.48534 -5.29066,10.61734 -8.45466,15.57067 -1.22134,1.912 -2.63867,3.73733 -3.416,5.888 -0.52534,1.448 -0.81734,2.904 -1.244,4.36667 0.0533,-2.28267 0.37333,-4.49867 0.89733,-6.732 0.78133,-3.32134 2.48667,-6.12 4.03467,-9.11734 1.45733,-2.82266 2.992,-5.57466 4.096,-8.552 1.048,-2.82666 1.372,-6.27466 1.18266,-9.28533 -0.79333,1.46267 -1.34266,2.804 -2.44266,4.15067 -1.84667,2.25733 -3.652,4.61866 -5.668,6.75066 -2.68534,2.83734 -5.65067,5.688 -6.98667,9.444 -1.21333,3.41067 -1.70267,7.01734 -1.81333,10.63467 -0.71867,-1.396 -0.708,-3.176 -0.35867,-4.68 0.51067,-2.20533 0.936,-4.33867 1.89467,-6.41733 2.64133,-5.72534 7.64933,-9.916 10.564,-15.49067 2.51333,-4.80533 4.97866,-9.70133 6.392,-14.95733 0.95733,-3.55867 1.34266,-6.916 1.312,-10.58667 -0.009,-1.04133 -0.15067,-2.08133 -0.29334,-3.10933 -0.0947,-0.67867 -0.0653,-1.64134 -0.34,-2.24 -0.108,1.56666 -0.0213,3.06 -0.22933,4.62133 -0.21467,1.60133 -0.41467,3.20933 -0.75333,4.79067 -1.06267,4.96266 -3.28534,8.872 -5.97867,13.20933 -5.24267,8.43867 -12.632,15.64667 -16.03333,25.104 -4.356,12.10933 -2.412,26.14267 -2.412,38.852 0,9.68933 -0.128,20.23333 -5.324,28.71733 -1.516,2.47467 -2.56934,5.60267 -1.93734,8.51733 0.104,0.47467 0.57334,2.85867 1.15734,2.86534 0.70533,0.008 1.27333,-1.94134 1.48266,-2.43067 0.48534,-1.14 0.82667,-1.812 1.80267,-2.644 1.72,-1.46667 4.14267,-2.50133 5.524,-4.31867 -0.14267,2.70267 -3.05467,4.74534 -1.20533,7.63067 -1.04667,-4.05067 4.45466,-6.25333 6.13866,-9.448 2.44,-4.63333 2.90267,-9.47467 2.90267,-14.636 0.0267,5.10533 0.81733,10.28667 -0.648,15.26 -0.76667,2.6 -2.244,5.09333 -3.64533,7.484 5.96533,-2.87467 11.32666,-8.95333 11.128,-15.924 2.07733,5.46133 2.69333,11.50267 1.13066,16.79467 0.272,-0.92 3.608,-2.804 4.37467,-3.90934 1.13467,-1.636 1.45067,-3.35733 2.10667,-5.176 0.728,-2.01866 1.18666,-3.788 1.36933,-5.936 0.10133,-1.20266 0.35867,-2.60266 0.14933,-3.8 -0.216,-1.23466 -0.89733,-2.492 -1.25066,-3.70666 -1.148,-3.94667 -2.22534,-8.20534 -0.14534,-12.00667 -0.82533,1.50934 -1.812,3.05467 -2.53866,4.66267 -0.62267,1.37866 -1.692,3.604 -1.42667,5.13866 -0.17867,-1.03066 -0.0653,-2.128 0.0747,-3.13866 0.33733,-2.43067 0.71733,-4.70267 1.57066,-7.024 0.89467,-2.43467 2.01467,-4.77733 2.928,-7.204 1.46,-3.88267 2.36934,-7.97067 2.69734,-12.10533 0.336,-4.24934 -0.2,-8.54267 -0.59334,-12.77467 0.072,0.768 -0.22133,2.09067 -0.388,2.86 -0.028,0.13067 -0.0627,0.26133 -0.10266,0.392"
       style="opacity:0.199997;fill:#000000;fill-opacity:1;fill-rule:nonzero;stroke:none;stroke-width:1.33333"
       id="path2141" />
    <path
       d="m 237.69479,124.55201 c -0.51733,1.41866 -1.13066,2.804 -1.86133,4.14266 -1.20933,2.22134 -2.572,4.356 -3.99067,6.44934 -2.84,4.18933 -5.92533,8.212 -8.6,12.51333 -1.22933,1.97467 -2.41866,4.01467 -3.34666,6.15067 -5.66267,13.03066 -3.228,27.808 -3.39734,41.71466 -0.0707,8.832 -0.25733,17.83867 -4.24266,26.10933 -1.37467,2.39334 -3.12667,5.44934 -3.288,8.22267 0.38533,-0.47333 0.82933,-0.92 1.32533,-1.33333 1.63467,-1.49334 4.22667,-2.88934 5.55733,-4.26667 0,0 3.456,-4.12933 3.456,-4.12933 -0.0893,0.948 -0.10533,2.788 -0.248,4.496 0.61334,-0.61467 1.18,-1.23734 1.61867,-1.89734 3.25467,-4.9 2.02267,-10.98666 3.05067,-16.392 0.41066,-2.15866 1.376,-3.984 2.57733,-5.76933 -1.05733,2.01867 -0.72533,3.744 -0.54267,5.89867 0.396,4.67066 1.51467,9.74533 0.95734,14.428 -0.17734,2.02133 -0.77467,4 -1.58267,5.896 3.07067,-2.82267 5.66,-6.864 4.94133,-11.14934 -0.368,-2.18933 -0.76133,-4.25733 -0.51866,-6.51333 0.21066,-1.94533 0.69066,-4.308 2.10933,-5.78667 -0.492,1.54 -0.92533,3.21867 -0.86933,4.90134 0.0507,1.50266 0.22666,3.26 0.692,4.69333 0.41333,1.27467 1.42666,2.396 1.93866,3.664 0.73467,1.81733 1.392,3.46 1.676,5.41467 0.15734,1.08266 0.256,2.17333 0.28934,3.26666 0.0147,0.48934 0.27866,2.98667 -0.10267,3.276 0.41733,-0.31733 0.81867,-0.64133 0.936,-0.83733 1.52533,-2.36933 2.39867,-5.628 3.232,-8.288 1.08667,-3.46667 0.85467,-7.69067 -0.14,-11.14 1.84933,3.01733 3.5,6.30933 3.72667,9.82267 -0.003,-0.04 1.35466,-1.388 1.51866,-1.63334 0.41067,-0.61733 0.70267,-1.30666 0.916,-2.01333 0.464,-1.54133 0.55467,-3.18 0.54534,-4.78 -0.0213,-3.25067 -0.66,-6.504 -0.49067,-9.756 0.136,-2.59866 0.616,-5.252 1.68667,-7.63733 0.55333,-1.232 1.27333,-2.392 2.17866,-3.396 0.90267,-1.00133 1.76,-1.58 2.248,-2.92267 -0.0893,0.24534 0.19334,0.96267 0.19734,1.268 0.004,0.44934 -0.032,0.864 -0.27867,1.228 -0.46933,0.692 -1.21467,1.23067 -1.68267,1.97467 -1.01066,1.61067 -1.59066,3.46533 -1.95333,5.32 -1.79867,8.26533 5.116,22.39866 -6.15467,25.856 -0.244,0.72266 -0.52266,1.36933 -0.748,1.97466 -0.64933,1.65067 -1.01333,3.82267 -2.372,5.79467 -0.67066,0.872 -1.59866,1.62667 -2.42933,2.328 -0.776,0.656 -1.79467,1 -2.34667,1.91467 -0.76133,1.26 -1.372,3.58133 -0.71866,5.00933 -1.196,-1.21333 -2.59334,-2.98533 -2.50934,-4.80267 0.08,-1.72266 1.42934,-3.276 1.63867,-5.04133 0.25867,-2.17467 0.176,-4.38667 -0.15867,-6.548 -1.312,3.08933 -3.52533,5.732 -6.028,7.93333 -1.17466,1.03334 -2.568,1.84134 -3.54133,3.064 -0.504,0.632 -0.944,1.288 -1.232,2.04934 -0.0893,0.23466 -0.64667,1.91333 -0.38667,2.068 -0.46933,-0.28 -0.42933,-0.70534 -0.52533,-1.19867 -0.37333,-1.896 -0.92,-3.30267 -0.52267,-5.284 0.22134,-1.09733 0.76667,-2.06667 1.04934,-3.15067 -0.80267,0.85867 -1.84934,1.67467 -2.604,2.60134 -1.54534,1.9 -1.204,4.41733 -1.21734,6.65733 -0.004,0.68133 -0.14933,1.69067 0.27467,2.25867 -1.24133,-0.83067 -2.328,-2.1 -2.91467,-3.476 -0.31866,-0.752 -0.344,-1.4 -0.368,-2.19334 -0.0267,-0.83733 -0.40933,-1.61866 -0.41866,-2.49733 -0.02,-0.25733 -0.008,-0.52133 0.0293,-0.78667 -1.58267,1.18934 -2.736,2.54 -3.30933,4.456 -0.26134,0.87734 -0.42534,1.77867 -0.61067,2.67334 -0.14667,0.71333 -0.592,1.648 -0.60267,2.35733 0.032,-2.10133 -1.228,-3.88533 -2.608,-5.32933 -1.484,-1.552 -1.388,-4.03467 -1.19733,-6.01734 0.29733,-3.076 2.24533,-5.91866 3.492,-8.42266 2.348,-4.86 3.20267,-10.41334 3.528,-15.99734 0.69733,-11.50799 -0.77333,-22.85333 -0.13067,-34.45199 0.75867,-21.916 14.032,-28.87067 23.27734,-46.02667 1.404,-2.60533 2.20133,-5.39867 2.78933,-8.28667 0.56933,-2.79733 1.28133,-5.63733 1.43867,-8.468 0.0467,-0.82933 0.20533,-1.644 0.424,-2.44933 0.23733,-0.87867 0.54933,-1.83867 1.236,-2.47067 -0.532,0.49067 -0.48667,1.636 -0.53334,2.28934 -0.48133,6.75866 -0.864,13.93066 -3.228,20.404"
       style="fill:#000000;fill-opacity:1;fill-rule:nonzero;stroke:none;stroke-width:1.33333"
       id="path2151" />
    <path
       d="m 276.25506,170.84894 c -3.77333,0.696 -3.372,8.37467 -3.08267,11.30933 0.448,4.54267 2.19867,8.92267 2.424,13.50534 0.264,5.38133 -1.24133,9.80533 -4.05466,14.39999 -2.22934,3.63867 -4.864,6.71467 -5.876,10.85334 -1.51467,6.196 -0.02,12.24133 6.13066,14.944 -3.54533,-0.0827 -5.58133,-1.90534 -8.056,-4.40267 -1.04133,-1.05067 -2.12,-2.2 -2.692,-3.504 -0.78933,-1.80267 -0.34,-3.956 -1.09866,-5.648 -1.98,2.66267 -1.984,4.73467 -2.176,8.03467 -11.31734,-6.304 -1.848,-17.92534 -1.24,-26.636 -2.308,2.72266 -3.35867,6.42533 -6.60267,8.30266 2.792,-5.53466 5.07333,-10.88666 4.14533,-17.21733 -1.36933,-9.33333 -6.308,-16.99733 -2.416,-26.44666 1.644,-3.99334 3.75734,-7.328 6.368,-10.67067"
       style="fill:#cd976d;fill-opacity:1;fill-rule:nonzero;stroke:none;stroke-width:1.33333"
       id="path2155" />
    <path
       d="m 261.04813,227.954 c -0.78934,-1.80266 -0.33867,-3.95466 -1.09867,-5.648 -1.98,2.664 -1.984,4.736 -2.17467,8.03467 -11.31733,-6.30267 -1.84933,-17.92533 -1.24133,-26.636 -2.308,2.72267 -3.35733,6.42533 -6.60267,8.30267 2.792,-5.53467 5.07334,-10.88667 4.14534,-17.21733 -1.36934,-9.33334 -6.308,-16.996 -2.416,-26.44667 1.644,-3.99333 3.75733,-7.32667 6.368,-10.67067 0.28666,-2.64533 0.40666,-5.63333 -0.0467,-8.308 3.81067,5.63067 2.62,12.77467 0.848,18.964 -1.32,4.612 -2.24133,10.272 -1.61067,15.088 0.30534,2.328 1.54,5.30534 1.32267,7.51467 0,-5.164 -0.60667,-9.47867 1.388,-14.36933 1.32933,-3.25867 3.924,-6.048 4.62133,-9.55067 -1.196,5.30667 -1.772,10.876 -1.24133,16.62267 0.372,4.01466 0.99867,8.024 1.34667,12.01733 0.29066,3.328 -0.46934,6.90266 -1.21067,10.11066 -0.63067,2.728 -1.128,5.94934 -2.54667,8.37467 1.69067,-2.05733 2.45067,-4.68133 3.35867,-7.164 0.844,-2.312 1.81333,-4.69467 2.34933,-7.09466 1.22267,-5.46934 1.488,-11.572 1.44667,-17.17867 -0.14933,2.31733 1.19467,4.85733 1.58,7.14533 0.29067,1.72134 0.524,3.48134 0.652,5.22134 0.228,3.11733 0.0987,6.26533 -0.53467,9.33066 -0.29733,1.44133 -0.64266,2.992 -1.24666,4.34133 -0.49334,1.1 -1.47734,1.99334 -1.86934,3.13067 -0.23066,0.67067 -0.272,1.37333 -0.38133,2.07333 -0.55867,3.57867 -1.688,7.15467 -1.15733,10.82667 0.184,1.268 1.45733,6.368 -0.0507,7.12667 -1.524,0.768 -3.564,-2.952 -3.99733,-3.94134"
       style="opacity:0.199997;fill:#000000;fill-opacity:1;fill-rule:nonzero;stroke:none;stroke-width:1.33333"
       id="path2165" />
    <path
       d="m 271.53973,235.40614 c -0.45867,-0.39867 -0.91334,-0.79867 -1.324,-1.22267 -3.38534,-3.5 -3.73734,-8.45467 -2.57867,-12.96533 0.64667,-2.51334 2.14533,-4.84267 3.816,-7.31334 3.6,-4.972 6.528,-11.376 6.008,-17.75466 -0.552,-7.56267 -4.44,-14.24133 -3.05067,-21.816 0.388,-2.11467 1.81067,-4.04667 2.76934,-5.93867 -3.148,2.69467 -5.00534,5.06534 -5.33867,9.296 -0.264,3.33734 0.0987,6.76934 0.76267,10.04267 2.38266,9.18 1.04666,16.27066 -4.50534,23.936 -3.61466,4.56266 -5.70933,11.196 -4.55466,16.81866 -1.47867,-1.87866 -2.69067,-2.84933 -3.124,-5.364 -0.35467,-2.06 -0.27334,-4.21066 -0.008,-6.276 -0.22534,1.75467 -2.168,3.436 -2.916,5.00534 -0.32667,0.68266 -1.83867,4.616 -1.24934,5.184 -0.776,-0.748 -1.39333,-1.59734 -1.764,-2.56267 -2.084,-6.87867 3.28934,-13.60533 3.64134,-20.66 l 0.38533,-4.972 c 0,0 -3.19067,3.83067 -3.19067,3.83067 -0.0773,0.0893 -0.14133,0.18666 -0.21466,0.27733 0.344,-1.456 0.584,-2.94667 0.64266,-4.48666 0.308,-9.512 -6.19866,-18.46267 -3.572,-27.95734 0.892,-2.96 2.22,-5.772 3.764,-8.444 0.69467,-1.20533 1.63734,-2.32133 2.31067,-3.50266 0.82667,-1.448 0.32533,-2.656 0.4,-4.148 -0.148,2.96533 -2.82133,4.81066 -4.43467,7.06533 -1.568,2.18933 -2.92133,4.54667 -3.86266,7.07467 -1.96534,5.27066 -1.776,10.80933 -0.19334,16.14933 3.208,10.836 4.14134,16.18933 -1.59466,26.616 l -2.34667,4.54666 c 0,0 4.48,-2.532 4.48,-2.532 0.80933,-0.448 1.492,-1.012 2.10533,-1.63733 -0.65866,1.908 -1.316,3.82933 -1.744,5.8 -1.20933,5.076 -0.0693,10.5 3.74,14.12533 1.04134,0.99067 2.03334,2.03867 2.94934,3.16267 0.55733,0.684 0.98266,1.636 1.59733,2.264 -1.30267,-3.052 -0.796,-5.876 0.25867,-8.87067 0.332,0.99067 0.25066,2.16534 0.87333,2.96534 0.78533,1.00666 2.16933,1.92533 3.14267,2.784 2.12666,1.87466 4.55466,3.35466 6.812,5.05866 2.09733,1.58267 4.44266,3.42934 3.28933,6.36534 0.812,-2.06667 1.81067,-4.23334 0.86133,-6.432 -0.62933,-1.45467 -1.85466,-2.48134 -3.04266,-3.512"
       style="fill:#000000;fill-opacity:1;fill-rule:nonzero;stroke:none;stroke-width:1.33333"
       id="path2175" />
    <path
       d="m 291.76213,169.46321 c -1.20267,0.87866 -2.596,0.50933 -3.944,0.77866 -17.26667,3.65734 -32.38667,14.01067 -45.22134,25.76934 -1.988,1.844 -3.85733,3.96533 -5.85466,5.72799 1.716,-2.02533 3.764,-3.99066 5.628,-5.96399 11.60666,-11.40134 25.476,-21.03067 41.27733,-25.49334 1.97733,-0.57733 4.00533,-0.93733 5.984,-1.51333 0.67733,-0.11867 1.368,-0.27333 2.104,0.136 0.20933,0.11333 0.22533,0.42533 0.0267,0.55867"
       style="fill:#cccccc;fill-opacity:1;fill-rule:nonzero;stroke:none;stroke-width:1.33333"
       id="path2179" />
    <path
       d="m 292.21119,176.32201 c -0.536,0.46666 -1.08266,0.456 -1.64533,0.51733 -15.21333,1.748 -27.52,15.99333 -35.484,28.10133 0,0 -3.56,5.988 -3.56,5.988 -0.0147,0.0267 -0.0467,0.0373 -0.0733,0.0227 -0.0267,-0.0133 -0.036,-0.048 -0.024,-0.0747 l 3.37866,-6.10667 c 7.98,-13.41199 19.724,-26.02399 35.59334,-29.24133 0.588,-0.092 1.2,-0.22 1.82533,0.23334 0.192,0.13733 0.18133,0.428 -0.0107,0.56"
       style="fill:#cccccc;fill-opacity:1;fill-rule:nonzero;stroke:none;stroke-width:1.33333"
       id="path2183" />
    <path
       d="m 292.15466,182.16481 c -0.28267,0.50666 -0.64933,0.544 -1.028,0.63866 -1.208,0.10534 -2.284,0.7 -3.356,1.25334 -9.89333,5.768 -17.08533,15.27466 -23.75333,24.38533 -0.0347,0.0573 -0.13067,-0.001 -0.0907,-0.06 6.89067,-10.62 14.94667,-21.51733 26.808,-26.84133 0.59333,-0.324 1.84667,-0.12134 1.42,0.624"
       style="fill:#cccccc;fill-opacity:1;fill-rule:nonzero;stroke:none;stroke-width:1.33333"
       id="path2187" />
    <path
       d="m 298.39133,173.34587 c -0.372,0.50534 -0.80267,0.51467 -1.24,0.58934 -6.68,0.916 -12.66534,4.84533 -17.99467,8.8 -5.69333,4.32666 -10.796,9.84266 -15.148,15.51866 -0.0373,0.056 -0.132,-0.005 -0.0893,-0.064 7.98133,-11.668 19.096,-21.77866 32.97333,-25.54933 0.57333,-0.25733 1.968,-0.052 1.49867,0.70533"
       style="fill:#cccccc;fill-opacity:1;fill-rule:nonzero;stroke:none;stroke-width:1.33333"
       id="path2191" />
    <path
       d="m 298.60679,179.31454 c -0.67066,0.784 -1.49866,0.37067 -2.33733,0.54933 -12.04667,3.52534 -19.164,15.77067 -24.388,26.38267 -0.024,0.0627 -0.12933,0.0213 -0.1,-0.044 4.86,-11.716 12.448,-24.272 25.492,-27.7 0.61467,-0.24133 1.848,0.12533 1.33333,0.812"
       style="fill:#cccccc;fill-opacity:1;fill-rule:nonzero;stroke:none;stroke-width:1.33333"
       id="path2195" />
    <path
       d="m 298.49586,184.42227 c -0.16133,0.49334 -0.416,0.50134 -0.68667,0.57867 -2.03066,0.296 -3.67333,1.87867 -5.25333,3.124 -5.35867,4.85467 -9.452,10.96533 -13.23733,17.092 -0.0307,0.0587 -0.13067,0.009 -0.096,-0.0533 4.39733,-8.28799 9.61466,-16.88399 18.152,-21.41066 0.484,-0.30267 1.43066,-0.0507 1.12133,0.66933"
       style="fill:#cccccc;fill-opacity:1;fill-rule:nonzero;stroke:none;stroke-width:1.33333"
       id="path2199" />
    <path
       d="m 326.20359,174.66134 c 0.88934,-0.80533 1.84267,-0.152 2.78667,-0.0307 1.32,0.16667 2.768,0.476 4.06667,0.78934 10.26533,2.71466 18.91466,9.52666 25.49599,17.67466 0,0 3.28134,4.35467 3.28134,4.35467 0.0187,0.024 0.0133,0.0587 -0.0107,0.0773 -0.0227,0.0173 -0.0587,0.009 -0.0773,-0.0133 l -3.444,-4.208 c -7.72,-8.56667 -17.69467,-16.204 -29.42533,-17.72933 -0.94134,-0.10667 -1.872,0.41733 -2.676,-0.39067 -0.14267,-0.14667 -0.14,-0.38 0.003,-0.524"
       style="fill:#cccccc;fill-opacity:1;fill-rule:nonzero;stroke:none;stroke-width:1.33333"
       id="path2203" />
    <path
       d="m 325.08173,180.87907 c 0.452,-0.49733 0.944,-0.43066 1.40933,-0.39066 1.35333,0.328 2.744,0.472 4.08533,0.85866 10.856,2.93867 17.94,12.8 22.16,22.664 0,0 1.95467,5.05333 1.95467,5.05333 0.0107,0.028 -0.003,0.06 -0.032,0.0707 -0.0267,0.0107 -0.0587,-0.007 -0.0707,-0.0333 l -2.15067,-4.956 c -5.02666,-10.172 -13.584,-22.08133 -26.00133,-22.33733 -0.43466,-0.008 -0.84533,0.0573 -1.292,-0.37334 -0.17333,-0.13333 -0.21733,-0.39066 -0.0627,-0.556"
       style="fill:#cccccc;fill-opacity:1;fill-rule:nonzero;stroke:none;stroke-width:1.33333"
       id="path2207" />
    <path
       d="m 324.59253,186.02094 c 0.40933,-0.43467 0.75466,-0.28667 1.07733,-0.19867 9.22933,3.88267 14.62533,13.012 18.87466,21.61733 0.0307,0.0587 -0.064,0.11334 -0.0973,0.0493 -3.76267,-6.48134 -11.41066,-18.9 -19.10666,-20.38667 -0.28534,-0.048 -0.548,-0.044 -0.76134,-0.52133 -0.0987,-0.172 -0.144,-0.412 0.0133,-0.56"
       style="fill:#cccccc;fill-opacity:1;fill-rule:nonzero;stroke:none;stroke-width:1.33333"
       id="path2211" />
    <path
       d="m 321.90213,177.12374 c 0.28533,-0.59333 0.76266,-0.64933 1.20266,-0.72267 2.19867,-0.092 4.416,-0.212 6.58934,0.268 9.56266,2.084 16.05999,10.32934 20.61733,18.444 0,0 2.356,4.56 2.356,4.56 0.0133,0.0267 0.003,0.0587 -0.024,0.0733 -0.0253,0.0133 -0.06,0 -0.0747,-0.0253 l -2.54133,-4.44266 c -5.41334,-8.70534 -15.19467,-20.32934 -26.64933,-17.584 -0.39734,0.0947 -0.748,0.25333 -1.26667,-0.052 -0.19733,-0.0867 -0.30933,-0.31867 -0.20933,-0.51867"
       style="fill:#cccccc;fill-opacity:1;fill-rule:nonzero;stroke:none;stroke-width:1.33333"
       id="path2215" />
    <path
       d="m 322.23906,182.97387 c 0.40533,-0.54666 0.90933,-0.51466 1.376,-0.51333 2.284,0.296 4.58,0.61333 6.73867,1.47333 9.38933,3.792 15.55733,12.5 20.09333,21.17867 0,0 2.33733,4.844 2.33733,4.844 0.0133,0.0267 0.001,0.0587 -0.0253,0.072 -0.0267,0.0133 -0.06,0 -0.0733,-0.0253 l -2.52666,-4.73466 c -5.19734,-8.99467 -14.93734,-22.20133 -26.50267,-21.488 -0.42666,0.028 -0.81733,0.12 -1.29333,-0.26 -0.18533,-0.11467 -0.264,-0.36533 -0.124,-0.54667"
       style="fill:#cccccc;fill-opacity:1;fill-rule:nonzero;stroke:none;stroke-width:1.33333"
       id="path2219" />
    <path
       d="m 321.26706,186.41507 c 0.83467,-0.85866 1.77467,-0.17066 2.672,-0.0213 0,0 1.288,0.3 1.288,0.3 10.584,3.288 17.10133,13.336 21.68666,22.816 0,0 2.08667,4.69333 2.08667,4.69333 0.012,0.0267 0,0.0587 -0.028,0.072 -0.0267,0.012 -0.06,-0.003 -0.072,-0.0293 l -2.28,-4.58934 c -4.988,-8.96666 -11.32,-18.88133 -21.63466,-22.06533 0,0.001 -1.21467,-0.26 -1.21467,-0.26 -0.41067,-0.0387 -0.836,0.0187 -1.236,0.0293 -0.40667,-0.0133 -0.784,0.0347 -1.196,-0.39067 -0.168,-0.13333 -0.224,-0.38667 -0.072,-0.55467"
       style="fill:#cccccc;fill-opacity:1;fill-rule:nonzero;stroke:none;stroke-width:1.33333"
       id="path2223" />
    <path
       d="m 190.83213,112.21681 c 2.91333,1.38 5.884,2.64933 8.936,3.69066 0.89066,0.30267 1.788,0.58 2.68533,0.86534 0.83467,0.264 2.11467,1.244 2.892,1.14666 -0.028,-1.13466 -0.57867,-2.30133 -0.97867,-3.344 -0.384,-1.00133 -0.58266,-2.008 -0.8,-3.06933 -0.38,-1.85733 -0.13066,-3.41067 0.18934,-5.28267 0.65466,-3.83466 1.69066,-7.583996 2.252,-11.430662 0.26,-1.770667 0.46933,-4.06 1.54933,-5.564 0.79867,-1.110667 2.41733,-1.717334 3.476,-2.528 4.204,-3.22 8.45867,-6.878667 11.65333,-11.137333 0.7,-0.934667 1.28,-2.145334 1.27734,-3.336 -0.004,-1.308 -0.82267,-1.932 -1.53867,-2.904 -1.79867,-2.44 -3.62133,-4.862667 -5.40267,-7.316 -2.592,-3.572 -4.272,-7.693333 -6.40533,-11.534666 -1.952,-3.514667 -2.85067,-6.717333 -6.78,-8.724 -0.132,0.356 -0.53333,0.665333 -0.65867,0.98 0.0813,-0.202667 -5.57599,-4.562667 -6.10933,-5.066667 -0.012,0.286667 -0.15333,0.624 -0.16666,0.904 -3.12667,-1.768 -9.59734,-7.239999 -12.484,-2.394666 -0.71867,1.205333 -0.82934,1.556 -1.94267,2.706666 -1.11467,1.152 -1.748,2.414667 -2.23333,3.946667 -0.55867,1.765333 0.04,1.962667 0.0587,3.630667 0.0213,1.890666 -1.16266,4.337333 -1.55066,6.249333 -0.51467,2.536 -0.95334,5.084 -1.31467,7.645333 -0.64933,4.6 -1.096,9.236 -1.31733,13.875999 -0.65867,13.834667 2.196,32.061329 14.71333,37.990669"
       style="fill:#cd976d;fill-opacity:1;fill-rule:nonzero;stroke:none;stroke-width:1.33333"
       id="path2227" />
    <path
       d="m 190.83213,112.21681 c 2.91333,1.38 5.884,2.64933 8.936,3.69066 0.89066,0.30267 1.788,0.58 2.68533,0.86534 0.83467,0.264 2.11467,1.244 2.892,1.14666 -0.028,-1.13466 -0.57867,-2.30133 -0.97867,-3.344 -0.384,-1.00133 -0.58266,-2.008 -0.8,-3.06933 -0.38,-1.85733 -0.13066,-3.41067 0.18934,-5.28267 0.65466,-3.83466 1.69066,-7.583996 2.252,-11.430662 0.26,-1.770667 0.46933,-4.06 1.54933,-5.564 0.79867,-1.110667 2.41733,-1.717334 3.476,-2.528 2.66533,-2.041333 1.31333,-7.88 0.0133,-10.513333 -0.71733,-1.450667 -1.55733,-3.013333 -2.708,-4.156 -0.60266,-0.598667 -1.33466,-1.062667 -1.924,-1.644 -0.628,-0.62 -0.97333,-1.569333 -1.42533,-2.314667 -0.70533,-1.16 -1.4,-2.306666 -1.98667,-3.532 -0.79866,-1.672 -1.112,-3.638666 -2.124,-5.179999 -0.15066,0.181333 -0.30133,0.38 -0.444,0.584 -0.94266,-0.581334 -1.73999,-1.733334 -2.46799,-2.582667 -0.77867,-0.909333 -1.51734,-1.848 -2.3,-2.753333 0.0427,0.273333 0.0347,0.550666 -0.0867,0.764 -1.36,-1.46 -2.44267,-3.238667 -3.67867,-4.8 -1.19733,-1.510667 -2.548,-2.369334 -4.112,-3.525334 -0.684,-0.505333 -1.33466,-1.287999 -2.176,-1.533333 -1.364,-0.397333 -1.32133,1.084 -1.52933,2.030667 -0.61867,2.817333 -1.56933,5.956 -2.62933,8.665333 -1.132,2.893333 -2.696,5.598666 -3.81867,8.393333 -1.24533,3.105333 -1.35867,6.312 -1.51733,9.622666 -0.65867,13.834667 2.196,32.061329 14.71333,37.990669"
       style="opacity:0.199997;fill:#000000;fill-opacity:1;fill-rule:nonzero;stroke:none;stroke-width:1.33333"
       id="path2237" />
    <path
       d="m 218.45013,61.213742 c -1.81334,-2.866667 -3.44934,-6.693333 -4.86667,-9.814667 -2.06133,-4.010666 -3.63067,-8.837333 -7.74,-11.249333 -0.63867,-0.374666 -1.58267,-0.625333 -2.016,-0.02667 -1.724,-1.378667 -3.448,-2.757334 -5.172,-4.136 -0.772,0.581333 -1.84,-0.048 -2.62266,-0.613334 -2.52534,-1.822666 -5.83867,-3.679999 -9.076,-3.334666 -1.88934,0.201333 -3.544,1.472 -4.46934,3.070666 -1.25333,2.358667 -3.28,3.652 -4.05466,6.346667 -0.20934,0.629333 -0.476,1.305333 -0.55867,2.333333 -0.0773,0.770667 0.16533,1.596 0.26267,2.2 0.164,2.24 -0.988,3.884 -1.42134,6.273333 -3.37866,18.449333 -6.548,51.342669 13.40267,61.385339 3.33333,1.50133 6.752,2.83066 10.30133,3.74533 2.77467,0.716 5.40933,1.028 6.43467,4.09467 -0.044,-1.524 -0.001,-3.49067 -1.284,-4.428 -1.28667,-0.94134 -2.932,-1.39867 -4.40667,-1.96134 -3.17733,-1.212 -6.58933,-2.87466 -9.66933,-4.344 -5.01467,-2.572 -8.40267,-7.35066 -10.42533,-12.557333 -5.26267,-14.430666 -2.99867,-30.323999 -0.27334,-45.095999 0.66,-2.548 2.24667,-5.853333 1.384,-8.689333 -0.096,-0.570667 0.0613,-0.688 0.30134,-1.477333 0.53066,-1.685334 1.708,-2.577334 2.72933,-3.88 0.82267,-1.005334 1.11067,-2.452 2.264,-2.593334 2.96267,0.110667 5.61467,2.598667 8.29733,4.104 l 0.71467,-0.394666 c 0.69067,0.569333 1.39067,1.081333 2.12,1.568 0.69467,0.462666 1.23067,1.129333 1.932,1.593333 0.74933,0.496 1.55733,0.752 2.35466,1.14 2.712,1.32 4.22134,4.349333 5.64,6.86 1.11334,1.970666 2.43334,3.924 3.38,5.981333 0.005,0.662667 1.16534,1.96 1.532,2.513333 0.58134,0.877333 1.196,1.732 1.83334,2.569333 1.168,1.536 2.36933,3.190667 3.79066,4.502667 2.252,2.074667 5.50134,4.889333 5.584,8.22 0.57467,-2.22 -0.16266,-4.794667 -1.50533,-6.537333 -1.75467,-2.276 -3.14667,-4.941334 -4.69733,-7.368"
       style="fill:#000000;fill-opacity:1;fill-rule:nonzero;stroke:none;stroke-width:1.33333"
       id="path2247" />
    <path
       d="m 314.26159,121.12147 c 0.25734,0.23334 0.548,0.46 0.85467,0.72934 0.792,0.69733 1.01067,1.69066 1.696,2.456 1.77467,1.98133 5.268,1.91333 7.64133,2.04 -0.296,1.47866 -1.812,2.184 -3.11466,2.688 -0.82134,0.31866 -1.79734,0.504 -2.67734,0.47466 -1.368,-0.044 -1.484,-0.84 -2.53066,-1.448 -0.46267,-0.268 -1.472,-0.78266 -2.00667,-0.74266 -1.42933,0.108 -1.27467,2.164 -1.25733,3.14533 0.0333,1.788 0.41733,3.54267 0.68533,5.304 0.35333,2.332 0.89067,5.19067 0.23067,7.51333 -0.704,-2.83866 -0.408,-6.03466 -1.20934,-8.98 -0.43333,-1.58933 -0.95333,-3.36266 -2.14,-4.56933 -0.57466,-0.58533 -1.296,-0.972 -2.11466,-1.07333 -1.26,-0.15467 -1.86934,0.40666 -2.92267,0.95733 -0.81733,0.42933 -1.96133,1.02533 -2.34933,1.88933 -0.61867,1.38 -0.15734,2.85334 0.17466,4.18534 0.23867,0.96266 0.128,2.08266 0.26267,3.072 0.136,1.004 0.36133,2.00266 0.80533,2.92 0.44934,0.92933 1.296,2.024 1.492,3.03466 -0.51733,0.0573 -1.50266,-0.19066 -1.928,0.25467 -0.33733,0.352 -0.24133,1.29733 -0.0973,1.72267 0.42933,1.27733 2.36267,1.388 2.59867,2.93466 -0.688,-0.0133 -1.184,-0.24533 -1.86534,0.0853 -0.664,0.324 -0.984,1.01066 -0.76266,1.69466 0.15866,0.492 0.888,1.18267 0.75733,1.72534 -0.176,0.73466 -1.23467,1.21066 -1.8,1.404 -0.71333,0.244 -1.53067,0.34533 -2.18533,0.76266 -1.25467,0.8 -2.31467,1.92534 -3.51734,2.81334 -0.44266,0.32666 -1.88133,0.93066 -1.92533,1.63866 0.12,-1.892 0.1,-3.63466 0.38,-5.51866 0.19733,-1.33067 0.52133,-3.048 -0.62667,-3.88534 -1.27733,-0.93333 -2.308,-0.708 -3.57466,0.068 -1.12,0.68534 -2.08667,1.584 -3.15334,2.344 -1.17066,0.83334 -2.57333,1.7 -4.02266,1.76934 -1.47334,0.0707 -3.15067,0.35333 -4.57734,0.016 1.40534,-0.35734 2.8,-0.62934 4.172,-1.10667 0.50134,-0.17467 1.10267,-0.356 1.54534,-0.656 0.348,-0.236 0.65733,-0.61067 0.904,-0.93733 0.472,-0.62534 1.25733,-1.39067 1.508,-2.13867 -0.85867,0.444 -2.22134,0.208 -3.12934,0.0893 -1.396,-0.18133 -2.84933,-0.272 -4.10266,-0.98666 -1.212,-0.69067 -2.26,-1.68267 -3.22267,-2.67867 -1.53067,-1.584 -3.08133,-3.36667 -4.18267,-5.28533 -0.25066,-0.43467 0.588,0.21866 0.66,0.26 0.92534,0.52266 1.75867,1.28133 2.676,1.832 3.524,2.11333 8.092,3.32266 12.084,3.39866 2.36,0.0453 5.68,-0.416 6.932,-2.93866 0.548,-1.10267 0.804,-2.32134 1.09067,-3.528 0.19867,-0.83734 1.196,-3.14267 0.92667,-3.884 -0.128,-0.35067 -0.29467,-0.68134 -0.412,-1.03334 -0.11734,-0.348 -1.27334,-1.14933 -1.5,-1.47466 -3.34267,-4.808 -10.84534,-7.104 -16.46134,-7.028 -1.63466,0.0213 -3.14,0.388 -4.70933,0.65333 -2.376,0.40267 -4.78267,0.58533 -7.176,0.84933 -1.98133,0.22 -3.71333,0.47067 -5.1,2.06534 -0.84667,0.972 -1.42933,1.98933 -1.94,3.17333 -1.752,4.06667 -3.87067,9.332 -3.09067,13.88667 -0.32,-0.73334 -0.828,-1.18267 -0.95866,-2.04134 -0.18,-1.188 -0.148,-2.37866 -0.048,-3.58933 0.23733,-2.89467 0.232,-5.60667 1.04266,-8.39867 -0.0493,6.168 -4.40933,12.024 -7.832,16.78667 -1.668,2.32 -3.54266,4.724 -4.81333,7.292 -0.664,1.34133 -1.44533,3.09733 -1.34533,4.63733 -0.0333,-0.99066 0.25066,-1.87733 0.52,-2.82266 0.444,-1.56134 0.816,-3.192 1.44933,-4.68 1.04933,-2.464 1.976,-5.01867 2.84533,-7.552 1.00267,-2.92 1.89867,-5.87067 2.33867,-8.964 0.43067,-3.036 1.064,-6.26267 0.83333,-9.344 -0.38,1.23866 -1.168,2.46666 -1.52666,3.78666 -0.54267,1.99067 -0.752,3.904 -0.996,5.936 -0.32,2.66534 -0.804,5.748 -1.904,8.228 -0.67334,1.51467 -1.72,2.84534 -2.484,4.316 2.284,-4.40133 0.56266,-9.268 0.96666,-13.85866 0.252,-2.86667 1.30534,-5.61334 2.62934,-8.14667 1.864,-3.56267 4.02533,-7.116 6.11733,-10.53867 0.924,-1.51066 2.72267,-2.828 4.28933,-3.66266 1.068,-0.56934 2.21067,-0.89334 3.416,-1.084 -1.41333,0.22266 -2.84,-0.132 -4.26,0.0413 -1.44266,0.17733 -2.80933,0.75333 -4.02,1.544 -1.60266,1.048 -2.98133,2.45333 -4.22666,3.9 -0.84267,0.97867 -1.06134,1.94 -1.63067,3.01467 -0.764,1.44133 -1.85467,2.43733 -2.22,4.11866 1.088,-5.00266 2.796,-11.36266 6.92,-14.76666 2.15733,-1.78134 4.956,-2.584 7.71467,-2.71867 1.28,-0.0627 2.66133,-0.124 3.92666,0.0707 0.43334,0.0667 4.18667,0.836 4.196,1.232 -0.0213,-0.86134 -0.876,-1.92667 -1.50133,-2.50134 -1.148,-1.056 -2.58533,-1.784 -3.912,-2.572 -0.62533,-0.37066 -1.25867,-0.632 -1.616,-1.30533 1.432,-0.0987 3.004,0.95067 4.19867,1.59333 3.124,1.68134 5.77733,4.10134 8.74533,6.00934 1.25333,0.80666 2.67333,1.71733 4.01333,2.39066 0.692,0.348 1.44667,0.69734 2.18,1.016 0.964,0.41734 3.05467,1.672 4.12934,1.52667 -0.54134,-0.66533 -1.316,-1.08 -1.888,-1.72933 -1.12534,-1.28 -3.07734,-2.23467 -3.764,-3.78534 0.612,-0.009 1.21066,0.596 1.75466,0.88534 1.23334,0.65333 2.51734,1.25466 3.704,2.032 1.63867,1.07333 3.37734,2.08266 5.116,2.95333 2.25867,1.13067 4.57334,2.31467 6.74534,3.612 1.692,1.00933 3.25466,2.02667 5.05333,2.84 3.324,1.50267 9.14,2.24 10.696,-1.98 0.56,-1.516 0.78667,-3.252 0.86133,-4.88533 0.24534,-5.32 -0.684,-10.632 -1.20266,-15.852 -0.172,-1.720002 -0.59467,-3.549336 -0.71734,-5.316002 0.064,0.933333 0.304,1.812 0.656,2.658666 0.18534,0.446667 0.33334,0.774667 0.40934,1.252 0.364,1.861336 0.66666,3.738666 0.944,5.618666 0.50533,3.436 0.96,6.94133 0.92933,10.432 -0.0147,1.50933 -0.26533,3.148 -0.112,4.64533 0.0867,0.84534 0.45067,1.31867 0.94533,1.768"
       style="opacity:0.199997;fill:#000000;fill-opacity:1;fill-rule:nonzero;stroke:none;stroke-width:1.33333"
       id="path2257" />
    <path
       d="m 231.78199,99.319741 c -0.028,1.898669 -1.76,4.118669 -2.772,5.577329 -0.90266,1.30134 -2.09866,2.4 -3.14,3.58534 -1.29333,1.47333 -2.53066,3.02533 -3.80933,4.52666 -2.7,3.16534 -5.40667,7.11467 -6.58133,11.148 -0.49067,1.684 -1.44534,3.85334 -1.27867,5.64934 0.49467,-1.71334 1.696,-3.3 2.61733,-4.792 0.99467,-1.612 2.004,-3.26267 3.18134,-4.66534 -0.24267,2.008 -1.79467,3.964 -2.596,5.79467 -2.25334,5.14 -0.88934,10.808 -3.33467,15.936 -0.90533,1.9 -1.78267,3.588 -2.24133,5.66 -0.58534,2.64933 -1.028,5.904 0.59866,8.212 -0.56933,-3.82133 3.232,-8.78533 4.76934,-12.09333 1.83333,-3.94667 2.2,-8.33734 2.48133,-12.63867 0.39467,-6.052 1.18,-12.04 5.34667,-16.86 -1.44134,1.39333 -3.16534,2.428 -4.656,3.71067 0.63066,-1.57867 1.42266,-2.80267 2.62266,-3.99734 1.77734,-1.768 3.54534,-3.53466 5.236,-5.41066 1.752,-1.944 3.04267,-4.284 3.45334,-6.88267 0.12533,-0.796 0.588,-2.665332 0.10266,-2.459999"
       style="fill:#000000;fill-opacity:1;fill-rule:nonzero;stroke:none;stroke-width:1.33333"
       id="path2267" />
    <path
       d="m 243.37679,85.770141 c 0.948,0.036 1.86,0.137334 2.64134,0.288 0.964,0.184 1.74933,0.729333 2.688,1.073333 1.25733,0.46 2.468,0.741334 3.652,1.397334 1.584,0.878666 2.66533,2.185333 4.016,3.317333 1.552,1.301333 3.264,2.292 5.06,3.256 -1.152,-0.372 -2.024,-2.3 -2.63867,-3.3 0.70667,0.702667 1.784,1.270667 2.608,1.837333 2.05067,1.409334 4.02133,2.881334 6.208,4.118667 3.28,1.856 6.668,3.845329 9.74533,6.003999 0.80667,0.56533 1.38,1.22667 1.91734,2 -0.86267,0.0147 -2.028,-1.01333 -2.888,-1.33067 -1.896,-0.70133 -3.76934,-1.35733 -5.62,-2.176 -2.51734,-1.11466 -5.54534,-1.96 -7.65334,-3.807996 0.003,0.802667 0.67867,1.289334 0.824,2.022666 -1.64133,-0.0373 -3.9,-1.830666 -5.18133,-2.866666 -0.89067,-0.72 -1.728,-1.505333 -2.588,-2.242666 -1.42667,-1.225334 -2.8,-2.538667 -4.25467,-3.722667 -2.08933,-1.7 -4.70133,-2.649333 -7.356,-2.741333 -2.59466,-0.08933 -5.704,-0.284 -7.93866,1.292 -1.216,0.856 -2.55467,2.624 -2.66134,4.141333 -0.0547,-1.918667 0.73334,-4.109333 2.448,-5.105333 1.47467,-0.854667 3.47734,-2.038667 5.228,-1.942667 -0.98266,-0.566667 -2.316,-0.713333 -3.41066,-0.902666 1.41466,-0.513334 3.35066,-0.678667 5.15466,-0.609334"
       style="fill:#000000;fill-opacity:1;fill-rule:nonzero;stroke:none;stroke-width:1.33333"
       id="path2271" />
    <path
       d="m 347.89346,104.74241 c 0.536,-1.20534 0.68266,-2.90934 -0.008,-4.03467 -0.19334,-0.316 -2.61334,-2.615999 -2.97734,-2.159999 -0.89466,1.121333 -0.664,2.847999 -1.824,3.779999 -1.07066,0.86 -2.38666,1.1 -3.5,2.17333 -1.49066,1.43734 -3.27466,2.50267 -4.42666,4.292 2.28933,-1.756 4.98933,-3.09466 7.57333,-4.32 0.44133,-0.20933 5.65467,-0.836 5.16267,0.26934"
       style="fill:#000000;fill-opacity:1;fill-rule:nonzero;stroke:none;stroke-width:1.33333"
       id="path2275" />
    <path
       d="m 224.24719,152.25907 c -0.284,0.456 -0.55466,0.92 -0.80666,1.39467 -1.472,2.77333 -2.28134,5.86667 -2.63734,8.98667 -0.55866,4.90666 -0.36933,10.26266 1.048,15.01466 0.74934,2.51467 1.92667,4.872 2.996,7.26 0.57867,1.29334 1.12934,2.608 1.44534,3.988 0.94266,4.13334 -0.296,8.50667 -2.29867,12.13733 -0.42267,0.76534 -0.96133,1.49334 -1.27333,2.316 0.0613,-0.16266 0.50133,-0.44266 0.64533,-0.58933 0.24667,-0.252 0.488,-0.50667 0.71733,-0.77333 0.46,-0.53334 0.88134,-1.09867 1.26134,-1.69067 0.75866,-1.18533 1.35066,-2.47866 1.744,-3.82933 0.80133,-2.752 0.78,-5.71067 0.14666,-8.50667 -0.67333,-2.968 -2,-5.724 -3.12666,-8.53333 -1.11867,-2.78533 -1.80667,-5.54667 -2.068,-8.536 -0.432,-4.94933 -0.304,-9.72667 1.32533,-14.47467 1.28,-3.732 3.26133,-7.21733 5.71067,-10.30533 -0.888,0.716 -1.592,1.62933 -2.28134,2.53867 -0.88933,1.172 -1.77066,2.356 -2.548,3.60266"
       style="fill:#000000;fill-opacity:1;fill-rule:nonzero;stroke:none;stroke-width:1.33333"
       id="path2279" />
    <path
       d="m 188.96546,92.932408 c 1.65067,-0.162667 3.17334,-0.58 4.06134,-1.290667 2.708,-2.168 -1.09334,-2.972 -2.784,-4.026667 -2.74267,-1.707999 -4.04934,-2.629333 -4.356,-5.589333 -0.39067,-3.766666 -0.636,-7.297333 2.89466,-9.822666 3.38667,-2.422667 4.132,-0.808 6.17067,1.661333 0.007,-2.133333 -1.23467,-3.709333 -2.112,-5.561333 -1.14667,-2.421333 -0.70667,-6.197333 -2.59333,-8.222667 -3.74667,-4.021333 -7.88267,-0.765333 -9.844,3.038667 -0.17867,-2.78 2.57333,-6.905333 4.79466,-8.956 3.68,-3.394666 8.14534,2.613334 10.00534,5.074667 1.752,2.32 3.38666,4.770666 5.19733,7.057333 1.58666,2.001333 4.15066,3.301333 5.67333,5.348 1.68,2.26 2.588,5.092 2.74933,7.805333 0.212,3.577333 0.0573,7.253333 -0.824,10.797333 -0.87066,3.497333 -2.74933,7.954667 -5.73733,10.505329 -2.77066,2.36534 -7.83466,2.67867 -11.19466,1.45867 -3.22134,-1.16933 -9.29734,-6.611999 -8.612,-10.091999 1.38133,0.741333 4.08533,1.053333 6.51066,0.814667"
       style="opacity:0.199997;fill:#000000;fill-opacity:1;fill-rule:nonzero;stroke:none;stroke-width:1.33333"
       id="path2289" />
  </g>
</svg>
