<?xml version="1.0" encoding="UTF-8" standalone="no"?>
<!-- Generator: Adobe Illustrator 28.2.0, SVG Export Plug-In . SVG Version: 6.00 Build 0)  -->

<svg
   version="1.1"
   id="Forehead_Cardassian_1"
   x="0px"
   y="0px"
   viewBox="0 0 400 400"
   enable-background="new 0 0 300 300"
   xml:space="preserve"
   sodipodi:docname="CardassianForehead.svg"
   width="400"
   height="400"
   inkscape:version="1.3.2 (091e20e, 2023-11-25)"
   xmlns:inkscape="http://www.inkscape.org/namespaces/inkscape"
   xmlns:sodipodi="http://sodipodi.sourceforge.net/DTD/sodipodi-0.dtd"
   xmlns="http://www.w3.org/2000/svg"
   xmlns:svg="http://www.w3.org/2000/svg"><defs
   id="defs50">
	

	

	

	

	

	
	

	

	

	

	

	

	

	

	

	

	

	

	

	

	

	

	

	

	

	

	

	

	

	

	

	

	
	
	

	
</defs><sodipodi:namedview
   id="namedview50"
   pagecolor="#ffffff"
   bordercolor="#666666"
   borderopacity="1.0"
   inkscape:showpageshadow="2"
   inkscape:pageopacity="0.0"
   inkscape:pagecheckerboard="0"
   inkscape:deskcolor="#d1d1d1"
   inkscape:zoom="5.9538391"
   inkscape:cx="316.60244"
   inkscape:cy="91.201659"
   inkscape:window-width="1736"
   inkscape:window-height="1055"
   inkscape:window-x="2141"
   inkscape:window-y="138"
   inkscape:window-maximized="0"
   inkscape:current-layer="layer2" />















































<g
   inkscape:groupmode="layer"
   id="layer2"
   inkscape:label="Forehead"><path
     style="display:inline;fill:#000000;fill-opacity:1;stroke-width:1.33333"
     d="m 341.28532,127.98666 c 0.004,0.016 0.008,0.032 0.012,0.048 0.728,2.79867 1.264,5.64134 1.85467,8.47067 0.27067,1.29867 0.31333,2.67333 0.62133,3.93733 0.19467,0.80267 0.58267,1.39467 1.01734,2.04534 0.85066,1.27066 0.784,2.76266 0.7,4.45333 -0.0333,0.684 0.044,1.36 0.0707,2.02533 0.0227,0.596 -0.0413,1.19067 0.0547,1.78534 0.0973,0.596 0.33067,1.03733 0.22667,1.63466 -0.168,0.96534 -1.29734,1.55734 -2.05067,1.73067 -1.02133,0.236 -2.15067,0.88133 -3.18667,0.88267 -0.98666,0.001 -2.02933,-0.492 -2.97866,-0.81734 -0.67467,-0.232 -1.19067,-0.724 -1.788,-1.112 -0.976,-0.63466 -2.392,-0.80133 -3.53067,-0.90266 1.39067,0.124 2.76,1.216 3.87867,2.06666 0.12533,0.0947 0.164,0.34 0.304,0.424 0.27733,0.16667 0.70533,0.005 0.99733,0.108 1.01333,0.356 1.29867,1.30134 2.472,1.22934 0.59467,-0.036 1.18533,-0.15867 1.80133,-0.005 0.524,0.13067 0.97867,0.53867 1.53334,0.328 0.29333,-0.11066 0.584,-0.53333 0.86133,-0.708 0.38267,-0.24133 0.82133,-0.356 1.20267,-0.632 1.89733,-1.37466 3.668,-2.39333 3.93333,-5.21333 0.20933,-2.21333 -0.42,-4.68133 -0.66933,-6.57733 -0.32134,-2.44134 -0.67867,-4.908 -0.93067,-7.356 -0.26,-2.51734 -0.29867,-5.09734 -0.0547,-7.62 0.33467,-3.448 2.39334,-6.74267 4.09867,-9.664 0.916,-1.568 1.96933,-3.27334 2.45733,-5.04 0.89734,-3.24534 -1.43733,-6.25467 -2.88933,-9.03067 -0.776,-1.48267 -1.47467,-3.00533 -2.256,-4.485332 -0.49333,-0.936 -1.80533,-2.988 -1.76133,-4.004 0.0947,-2.158667 -0.0253,-4.84 -1.09334,-6.764 -0.75466,-1.36 -0.78666,-2.649333 -0.75466,-4.165333 0.0413,-1.885334 -0.43467,-3.592 -0.992,-5.406667 -0.58934,-1.922667 -1.39467,-3.801333 -2.43467,-5.524 -0.52133,-0.865333 -1.07333,-1.698666 -1.83333,-2.365333 -0.62267,-0.546667 -0.872,-0.504 -1.14667,-1.346667 -0.35733,-1.094666 -0.40267,-2.206666 -0.904,-3.294666 -0.808,-1.749334 -2.06533,-3.262667 -3.53333,-4.5 0,0 -1.42933,-7.48 -17.81733,-17.061333 -1.124,-0.657333 -2.20134,-1.46 -3.31467,-2.144 -1.58267,-0.972 -3.32267,-1.525333 -5.06933,-2.124 -2.29867,-0.788 -4.708,-0.912 -7.07734,-1.368 -2.28266,-0.438667 -4.61866,-0.7 -6.932,-0.998667 -3.528,-0.454666 -7.43066,-0.174666 -11.00533,-0.174666 -2.39067,0 -4.732,0.302666 -7.088,0.652 -2.02667,0.3 -4.02933,0.932 -6.02667,1.405333 -1.83733,0.436 -3.57866,1.016 -5.344,1.712 -1.06,0.417333 -2.27733,0.697333 -3.25866,1.292 -1.79467,1.089333 -3.436,3.189333 -4.008,5.210666 -0.452,1.596 0.0867,2.177334 1.15866,3.146667 1.43867,1.301333 2.876,2.601333 4.31467,3.902667 4.21333,3.812 8.42667,7.623999 12.64,11.434666 5.348,4.838667 10.696,9.677333 16.04533,14.514666 5.70534,5.161333 11.41067,10.322667 17.116,15.484 5.284,4.779999 10.56934,9.561329 15.85334,14.341329 4.08533,3.696 8.17066,7.392 12.25733,11.088 0.976,0.88267 1.94933,1.748 2.99866,2.544 0.91467,0.69867 0.96934,1.42134 1.248,2.508 z"
     id="path1" /><path
     fill="#cd976d"
     d="m 350.92399,116.524 c 0.0347,-0.29734 -0.0853,-0.596 -0.46933,-0.876 1.7,-1.49334 2.71733,-4.34267 1.428,-6.464 -2.38934,-3.93467 -4.45067,-7.588 -5.51334,-12.113336 -0.37333,-1.592 -0.228,-3.217333 -0.856,-4.813333 -0.61733,-1.568 -1.332,-2.573333 -1.25466,-4.294667 0.08,-1.795999 -0.116,-3.577333 -0.47734,-5.335999 -0.496,-2.421334 -1.03066,-4.96 -2.27733,-7.125334 -0.96667,-1.678666 -2.65333,-2.834666 -3.67733,-4.429333 -0.25334,-0.394666 -0.28,-1.076 -0.43867,-1.565333 -1.11333,-3.412 -3.34133,-6.794667 -6.316,-8.816 -2.86133,-1.944 -4.108,-5.986666 -6.61066,-8.446666 -2.14134,-2.105334 -4.884,-3.582667 -7.40534,-5.077334 -1.06266,-0.630666 -2.14266,-1.126666 -3.26,-1.663999 -1.96533,-0.944 -3.344,-2.494667 -5.26133,-3.448 -1.85733,-0.924 -3.79333,-1.450667 -5.756,-2.066667 -0.56667,-0.177333 -1.06533,-0.482667 -1.632,-0.632 -1.136,-0.3 -2.26933,-0.862667 -3.46133,-1.053333 -1.3,-0.208 -2.70534,-0.584 -3.95867,-1.009334 -0.78267,-0.265333 -1.62533,-0.402666 -2.448,-0.584 -0.74133,-0.164 -1.57467,-0.421333 -2.348,-0.425333 -0.57867,-0.0027 -1.12133,0.044 -1.65067,0.208 -0.53866,0.166667 -0.82533,0.197333 -1.372,-0.0013 -2.296,-0.832 -4.84666,-1.125334 -7.27866,-1.601334 -1.572,-0.306666 -3.43734,-0.192 -5.01067,0.02133 -1.09733,0.149333 -2.16533,0.452 -3.27733,0.498666 -1.12667,0.048 -2.23734,0.09867 -3.35867,0.265334 -1.09467,0.164 -2.22533,0.248 -3.304,0.445333 -1.012,0.186667 -1.94267,0.688 -2.91733,1.008 -1.172,0.385333 -2.36134,0.774667 -3.568,1.057333 -1.20534,0.281334 -2.572,0.664 -3.628,1.334667 -0.55467,0.352 -1.04134,0.641333 -1.66667,0.896 -1.36267,0.554667 -2.628,1.354667 -3.89467,2.094667 -1.28,0.749333 -2.084,2.326666 -3.08133,3.393333 -1.132,1.212 -2.36933,2.468 -2.69067,4.153333 -0.1,0.524 -0.11733,1.026667 -0.25866,1.550667 -0.32534,1.202666 -1.156,1.213333 -2.09334,1.88 -1.10133,0.782666 -2.296,1.569333 -3.25066,2.548 -0.96934,0.993333 -1.50267,2.417333 -2.10267,3.661333 -0.40133,0.833333 -0.70133,1.788 -0.916,2.698666 -0.316,1.337334 -0.40133,2.941334 -0.27467,4.290667 0.0987,1.046667 0.47334,2.054667 0.73467,3.074667 0.17467,0.68 0.51733,1.44 0.23067,2.088 -0.31867,0.718666 -0.65467,1.457333 -0.90934,2.238666 -0.61866,1.894667 -0.17733,4.112 0.29334,5.998667 0.84133,3.377333 4.3,4.776 3.65466,8.658666 1.016,0.09867 2.05334,-0.708 3.076,-0.885333 1.264,2.573333 -1.616,5.157333 -2.36533,7.372 0.976,-0.338667 1.88267,-0.384 2.816,-0.724 -0.007,1.421333 -1.09867,2.868 -2.156,3.781333 1.13067,-0.436 2.30667,-0.928 3.304,-1.585333 -0.56933,2.294666 -2.124,3.817333 -3.00667,5.866663 1.30534,-0.584 2.77067,-0.88533 4.044,-1.53466 0.24667,1.83066 -1.21466,3.58133 -2.156,5.00533 0.88667,-0.34133 1.75467,-0.504 2.47867,-1.064 0.0293,-0.0227 0.14933,1.516 0.13467,1.66133 -0.0547,0.55734 -0.19067,1.06267 -0.41867,1.56534 -0.48667,1.07466 -1.03733,2.01866 -1.16267,3.244 0.464,-0.17867 0.984,-0.20134 1.43867,-0.264 -1.29067,2.37866 -2.82,5.444 -2.90933,8.232 0.55466,-0.304 1.19466,-0.67734 1.65466,-1.13067 -1.39733,2.70533 -1.87066,6.712 -0.808,9.57467 0.65867,-0.53334 1.36534,-1.51334 2.148,-1.77334 0.04,1.54267 0.576,2.992 0.50267,4.536 -0.044,0.916 -0.08,1.83334 -0.0853,2.752 -0.003,0.41467 0.30266,1.984 0.10666,2.27734 0.59734,-0.888 1.26134,-1.77334 1.792,-2.70267 0.19867,3.13067 -0.55866,5.80667 0.48,9.28933 0.22,-0.856 0.524,-1.28 0.80534,-2.00933 0.23866,2.26933 1.28933,5.09467 2.604,7.236 -0.007,-0.52667 10e-4,-1.05467 -0.008,-1.58133 0.296,1.11466 0.88666,1.988 1.51866,2.87066 1.07334,1.5 2.26667,3.04134 3.412,4.45867 0.10267,-0.50267 0.22934,-1.012 0.292,-1.51867 0.62934,0.404 1.19867,1.16667 2.02134,0.97867 0.424,-0.0973 0.63066,-0.44533 0.904,-0.78133 0.29466,-0.36134 0.59333,-0.54534 0.89733,-0.86267 0.55067,-0.57467 0.788,-1.51867 0.932,-2.32533 0.31467,-1.748 0.192,-3.564 0.132,-5.33334 -0.0547,-1.6 -0.428,-2.86133 -0.10667,-4.19733 1.09734,-4.55867 4.50534,-6.55333 7.932,-8.30533 4.65734,-2.38 7.98267,-2.75734 12.63334,-2.49467 4.85466,0.27333 9.41466,0.96 14.09333,2.24667 1.732,0.476 3.53467,0.716 5.328,0.784 0.86267,0.0333 1.79333,-0.11867 2.64133,-0.004 0.956,0.128 1.85467,0.43333 2.83467,0.33466 0.23333,-0.024 0.46533,-0.0667 0.692,-0.13066 0.74,-0.21067 1.73733,-0.52134 2.26267,-1.10667 0.352,-0.39333 0.44,-0.936 0.73733,-1.36667 0.404,-0.584 1.256,-1.04266 1.956,-0.80933 0.64133,0.21333 1.13333,0.44267 1.316,1.11467 0.164,0.60666 0.32533,1.26533 0.51867,1.89066 0.15733,0.50667 0.30666,1.06934 0.57066,1.536 0.16934,0.3 0.52534,0.43067 0.836,0.55867 0.56,0.22933 1.128,1.436 1.73067,1.472 0.448,0.0267 0.964,-0.22 1.384,-0.38667 0.43067,-0.172 0.868,-0.304 1.30133,-0.46533 0.37334,-0.13867 0.72667,-0.34133 1.076,-0.52267 0.39334,-0.204 0.78667,-0.39866 1.172,-0.61066 1.10667,-0.612 2.344,-1.43067 3.532,-1.80934 1.35067,-0.42933 2.69334,-1.38666 4.07467,-1.72133 1.912,-0.464 4.02933,-0.58533 5.98666,-0.79733 1.496,-0.16267 3,-0.22534 4.504,-0.21734 0.84934,0.004 2.45867,-0.0227 2.76534,1.01467 0.27466,0.928 0.54666,1.764 0.95733,2.65733 0.37333,0.81334 0.89333,1.76 0.86667,2.68134 -0.0347,1.19866 -0.12134,2.12533 0.14933,3.74933 0.276,1.65867 1.13867,3.52133 1.16,5.128 0.024,1.82133 -0.636,3.85733 -1.24267,5.13333 -1.88266,3.95734 -3.27733,5.03334 -6.57066,1.088 0.96933,0.94134 1.412,2.62 2.29733,3.676 0.63333,0.75334 0.9,0.412 1.55467,0.48534 0.736,0.0813 1.33066,0.95733 2.06133,1.176 1.15867,0.34666 1.25867,-1.328 2.08267,-1.96 1.056,-0.80934 1.87066,0.28666 1.75466,-2.71467 -0.0547,-1.40267 -0.0747,-1.23867 0.116,-2.452 0.52934,-3.376 -0.704,-7.17333 -1.832,-10.404 -0.44,-1.26133 -0.35866,-1.328 -0.32666,-2.256 0.02,-0.56667 0.16533,-0.83733 0.0987,-1.47333 -0.0533,-0.51067 -0.368,-0.956 -0.34666,-1.496 0.0187,-0.47467 -0.39334,-1.56667 -0.16667,-1.972 0.35733,-0.636 0.424,-1.188 0.61467,-1.852 0.28933,-1.00934 1.372,-2.24934 1.988,-3.11067 0.72533,-1.01333 0.364,-1.61067 0.544,-2.71733 0.17466,-1.068 1.17333,-1.26934 1.588,-2.24934 0.25866,-0.61066 -0.136,-0.92533 0.0267,-1.44666 0.136,-0.43334 0.62134,-0.68934 0.97867,-1.04667 0.42267,-0.41467 0.97867,-0.944 1.04,-1.47733 z"
     id="path2"
     style="stroke-width:1.33333" /><path
     id="path12"
     style="opacity:0.5;fill:#000000;fill-opacity:1;stroke-width:1.33333"
     d="M 330.26172 59.816406 C 329.8416 59.811413 329.41623 59.912391 329.06836 60.103516 C 328.42702 60.484848 327.81672 60.349568 327.13672 60.240234 C 326.49138 60.289568 325.91098 60.59999 325.45898 61.222656 C 325.45898 61.222656 325.49805 61.350909 325.49805 61.349609 C 326.66471 61.785609 327.35022 61.354828 328.21289 60.798828 C 328.94355 60.590828 330.08581 61.167072 330.61914 61.316406 C 331.11381 61.400406 331.3712 61.769792 331.64453 62.203125 C 331.97257 62.303125 332.14045 61.377506 332.06445 61.076172 C 331.85008 60.216923 331.06377 59.825938 330.26172 59.816406 z M 335.45703 66.166016 C 335.07504 66.178641 334.69516 66.277422 334.37891 66.451172 C 333.73757 66.832504 333.12726 66.697225 332.44727 66.587891 C 331.80194 66.637225 331.21958 66.947646 330.76758 67.570312 C 330.76758 67.570312 330.80664 67.698566 330.80664 67.697266 C 331.97331 68.133265 332.66077 67.702484 333.52344 67.146484 C 334.2541 66.938485 335.39636 67.516682 335.92969 67.666016 C 336.42436 67.750016 336.6798 68.117449 336.95312 68.550781 C 337.28116 68.650781 337.451 67.725162 337.375 67.423828 C 337.15041 66.523663 336.29741 66.13824 335.45703 66.166016 z M 339.95703 73.089844 C 339.53691 73.084851 339.11155 73.185828 338.76367 73.376953 C 338.12234 73.758286 337.51203 73.623006 336.83203 73.513672 C 336.1867 73.563006 335.60434 73.873427 335.15234 74.496094 C 335.15234 74.496094 335.19241 74.623047 335.19141 74.623047 C 336.35808 75.059046 337.04553 74.628265 337.9082 74.072266 C 338.63887 73.864266 339.78111 74.44051 340.31445 74.589844 C 340.80911 74.673844 341.06455 75.04323 341.33789 75.476562 C 341.66592 75.576562 341.83577 74.650943 341.75977 74.349609 C 341.54539 73.49036 340.75908 73.099376 339.95703 73.089844 z M 342.72656 80.361328 C 342.30644 80.356335 341.88303 80.45536 341.53516 80.646484 C 340.89382 81.027817 340.28351 80.892536 339.60352 80.783203 C 338.95818 80.832536 338.37583 81.144912 337.92383 81.767578 C 337.92383 81.767578 337.96289 81.893878 337.96289 81.892578 C 339.12955 82.328578 339.81507 81.897796 340.67773 81.341797 C 341.40839 81.133797 342.55261 81.711995 343.08594 81.861328 C 343.58061 81.945328 343.83605 82.31276 344.10938 82.746094 C 344.43741 82.846094 344.60725 81.920473 344.53125 81.619141 C 344.31687 80.759892 343.52861 80.37086 342.72656 80.361328 z M 343.99609 88.09375 C 343.57597 88.088757 343.15256 88.189735 342.80469 88.380859 C 342.16336 88.762192 341.55109 88.626911 340.87109 88.517578 C 340.22576 88.566911 339.64536 88.877334 339.19336 89.5 C 339.19336 89.5 339.23342 89.628253 339.23242 89.626953 C 340.39909 90.062953 341.0846 89.632171 341.94727 89.076172 C 342.67793 88.868172 343.82213 89.444417 344.35547 89.59375 C 344.85013 89.67775 345.10557 90.047135 345.37891 90.480469 C 345.70694 90.580469 345.87678 89.654848 345.80078 89.353516 C 345.5864 88.494267 344.79814 88.103282 343.99609 88.09375 z M 345.95898 95.136719 C 345.577 95.149344 345.19711 95.248125 344.88086 95.421875 C 344.24086 95.803208 343.62922 95.667928 342.94922 95.558594 C 342.30389 95.607928 341.72348 95.918349 341.27148 96.541016 C 341.27148 96.541016 341.30959 96.667969 341.30859 96.667969 C 342.47526 97.103968 343.16273 96.673187 344.02539 96.117188 C 344.75606 95.909188 345.89831 96.487385 346.43164 96.636719 C 346.92631 96.720719 347.18175 97.088152 347.45508 97.521484 C 347.78311 97.621484 347.95295 96.695865 347.87695 96.394531 C 347.65237 95.494366 346.79936 95.108943 345.95898 95.136719 z M 347.22852 102.98438 C 346.84653 102.997 346.46664 103.09578 346.15039 103.26953 C 345.50905 103.65086 344.89875 103.51559 344.21875 103.40625 C 343.57341 103.45559 342.99106 103.766 342.53906 104.38867 C 342.53906 104.38867 342.57912 104.51562 342.57812 104.51562 C 343.74478 104.95162 344.43225 104.52084 345.29492 103.96484 C 346.02558 103.75684 347.16784 104.33504 347.70117 104.48438 C 348.19584 104.56837 348.45128 104.93581 348.72461 105.36914 C 349.05265 105.46914 349.22248 104.54353 349.14648 104.24219 C 348.9219 103.34202 348.06889 102.9566 347.22852 102.98438 z " /><path
     opacity="0.2"
     d="m 258.34133,147.79733 c -0.33734,-0.36133 -0.58667,-1.04 -0.67867,-1.53867 -0.04,-0.21733 0.0827,-1.95866 -0.0133,-1.99866 -2.088,-0.87867 -3.85334,-1.992 -5.74534,-3.11867 -1.06266,-0.632 -2.27466,-1.54267 -2.052,-2.94133 0.78134,0.14 2.024,1.07466 2.716,0.27333 -1.35466,-0.56267 -1.7,-1.59867 -2.22133,-2.80267 -0.62267,-1.43866 -1.23333,-2.87333 -1.092,-4.48133 0.35733,0.54667 0.93867,1.65067 1.71333,1.65867 -0.12933,-0.584 -0.53866,-1.16 -0.70933,-1.74934 -0.376,-1.3 -0.61867,-2.45066 -0.252,-3.772 0.068,-0.24266 0.148,-0.48133 0.18133,-0.74266 0.0653,-0.50667 -0.20533,-0.98267 -0.13866,-1.48534 0.16933,-1.28133 1.00666,-2.25333 1.876,-3.18533 1.16666,-1.25067 1.13866,-1.33333 1.37733,-2.88667 0.116,-0.756 0.36933,-2.09333 0.91867,-2.66266 0.35066,-0.36267 1.41333,-0.38267 1.58,-0.93467 0.0813,-0.27067 -0.492,-0.764 -0.628,-1.056 -0.40534,-0.86933 -0.364,-1.63333 0.0587,-2.456 0.52534,-1.024 0.876,-2.23333 1.668,-3.096 1.176,-1.28 2.22934,0.12933 3.66267,-0.0453 0.23333,-0.028 -0.236,-0.848 -0.292,-0.912 -0.26667,-0.30934 -0.724,-0.44534 -1.092,-0.57867 -0.836,-0.304 -1.18533,-0.41067 -1.684,-1.148 -0.72933,-1.08 -1.61067,-2.35067 -1.59333,-3.71067 0.0173,-1.34533 0.672,-1.86266 1.548,-2.701329 -0.45734,-0.125333 -0.93734,-0.185333 -1.38,-0.370667 -0.64934,-0.272 -0.46534,-0.206666 -0.72,-0.766666 -0.36,-0.790667 -0.74134,-1.761334 -0.94934,-2.608 -0.352,-1.428 -0.45333,-2.941334 -1.16666,-4.233334 -0.76,-1.376 -0.37734,-2.130666 -0.29467,-3.584 0.084,-1.466666 -1.784,-1.890666 -2.51733,-2.786666 -0.53734,-0.656 -1.06134,-1.825333 -1.44267,-2.558667 -0.432,-0.829333 -0.64267,-1.885333 -0.46933,-2.812 0.0573,-0.305333 1.13333,-2.354666 1.364,-2.269333 -0.984,-0.36 -1.83867,-0.048 -2.81467,-0.628 -0.844,-0.501333 -1.60267,-1.266667 -2.08267,-2.125333 -0.864,-1.546667 -0.81733,-3.177333 0.62667,-4.266667 -1.23067,-0.993333 -3.13867,-0.932 -4.50667,-1.781333 -3.46,-2.148 -3.1,-6.889333 -6.76,-8.758667 -0.3,0.714667 -0.55066,1.477334 -0.72666,2.225334 -0.316,1.337333 -0.40134,2.941333 -0.27467,4.290666 0.0987,1.046667 0.47333,2.054667 0.73467,3.074667 0.17466,0.68 0.51733,1.44 0.23066,2.089333 -0.31866,0.718667 -0.65466,1.457334 -0.90933,2.238667 -0.61867,1.894666 -0.17733,4.112 0.29333,5.998666 0.84134,3.377334 4.3,4.776 3.65467,8.658667 1.016,0.09867 2.05333,-0.708 3.076,-0.885334 1.264,2.573334 -1.616,5.157334 -2.36533,7.372 0.976,-0.338666 1.88266,-0.384 2.816,-0.724 -0.007,1.421334 -1.09867,2.868 -2.156,3.781334 1.13066,-0.436 2.30666,-0.928 3.304,-1.585334 -0.184,0.738667 -0.47467,1.393334 -0.80667,2.016 -0.0133,0.02933 -0.028,0.068 -0.0413,0.09067 -0.009,0.016 -0.0187,0.02533 -0.028,0.04 -0.68934,1.255996 -1.552,2.375996 -2.13067,3.719996 1.30533,-0.584 2.77067,-0.88533 4.044,-1.53467 0.24667,1.83067 -1.21467,3.58134 -2.156,5.00534 0.88667,-0.34134 1.75467,-0.504 2.47867,-1.064 0.0293,-0.0227 0.14933,1.516 0.13466,1.66133 -0.0547,0.55733 -0.19066,1.06267 -0.41866,1.56533 -0.48667,1.07467 -1.03734,2.01734 -1.16267,3.244 0.464,-0.17866 0.984,-0.20133 1.43867,-0.264 -1.29067,2.37867 -2.82,5.444 -2.90934,8.232 0.55467,-0.304 1.19467,-0.67733 1.65467,-1.13066 -1.39733,2.70533 -1.87067,6.712 -0.80933,9.57466 0.65866,-0.53333 1.36533,-1.51333 2.148,-1.77333 0.04,1.54267 0.576,2.992 0.50266,4.536 -0.044,0.916 -0.08,1.83333 -0.0853,2.752 -0.003,0.41467 0.30267,1.984 0.10667,2.27733 0.59733,-0.888 1.26133,-1.77333 1.792,-2.70266 0.19866,3.13066 -0.55867,5.80666 0.48,9.28933 0.22,-0.856 0.524,-1.28 0.80533,-2.00933 0.23867,2.26933 1.28933,5.09466 2.604,7.236 -0.007,-0.52667 0.001,-1.05467 -0.008,-1.58134 0.296,1.11467 0.88667,1.988 1.51867,2.87067 1.07333,1.5 2.26666,3.04133 3.412,4.45867 0.104,-0.50267 0.22933,-1.012 0.292,-1.51867 0.62933,0.404 1.19866,1.16667 2.02133,0.97867 0.0307,-0.007 0.0533,-0.024 0.0813,-0.0333 0.23734,-0.18 0.46534,-0.368 0.68134,-0.56933 0.0467,-0.06 0.092,-0.11867 0.14133,-0.17867 0.176,-0.216 0.35467,-0.37333 0.53333,-0.52933 0.64267,-0.77333 1.116,-1.66 1.296,-2.65867 0.005,-0.0307 0.007,-0.0613 0.0107,-0.092 -0.52,-0.216 -0.99467,-0.50266 -1.29333,-0.82133 z"
     id="path30"
     style="fill:#000000;fill-opacity:1;stroke-width:1.33333" /><path
     d="m 253.55733,111.188 c -0.956,0.82133 -1.68667,1.60133 -2.08667,2.93466 -0.48667,1.62267 -0.62,3.14934 -0.42533,4.80667 0.0907,0.77067 0.36666,1.53733 0.428,2.3 -0.78267,-0.59067 -1.10134,-1.52667 -1.32,-2.456 -0.63467,-2.70267 -0.692,-4.876 0.54533,-7.488 0.55467,-1.172 1.36267,-2.22533 1.80533,-3.452 0.48267,-1.33867 0.22934,-2.628 0.152,-4.016 -0.11866,-2.12133 -0.992,-4.302666 -1.48933,-6.385332 -1.02,-4.264 -2.15733,-8.706667 -3.784,-12.782667 -1.68667,-4.225333 -3.49467,-8.422666 -5.68267,-12.427999 -1.12533,-2.061334 -2.49066,-4.010667 -3.64133,-6.044 -1.05467,-1.865334 -3.036,-4.049334 -2.67333,-6.377333 0.964,1.169333 2.084,2.201333 3.08666,3.333333 0.93334,1.053333 0.78667,2.197333 1.42667,3.344 1.01467,1.816 2.992,2.562666 3.176,4.736 0.256,3.017333 1.472,5.277333 3.52133,7.521333 0.65067,0.712 1.05867,1.133333 1.15067,2.037333 0.156,1.553333 0.38267,2.586667 1.00533,4.026667 0.54934,1.270666 1.28,2.471999 2.228,3.485333 0.26134,0.278666 0.82534,0.568 0.90667,0.94 0.1,0.453333 -0.29333,1.481333 -0.31067,1.990666 -0.0907,2.792 0.30267,5.134667 1.62934,7.6 0.37733,0.7 0.83333,1.358666 1.20933,2.043996 0.33867,0.616 0.316,0.47334 0.12533,1.112 -0.34666,1.16534 -0.49866,1.992 -0.32666,3.296 0.248,1.88534 1.688,3.972 -0.15867,5.504 -0.17067,0.14134 -0.33733,0.28 -0.49733,0.41734 z"
     id="path38"
     style="stroke-width:1.33333;fill:#000000;fill-opacity:1" /><path
     id="path39"
     style="opacity:0.5;fill:#000000;fill-opacity:1;stroke-width:1.33333"
     d="M 249.00195 70.757812 L 248.88867 70.830078 C 248.96067 71.73141 249.32986 72.472099 249.72852 73.134766 C 250.28986 74.126765 251.4916 74.747376 251.82227 75.859375 C 251.7956 76.97804 251.50409 77.71396 251.52539 79.140625 L 251.63672 79.214844 C 252.46206 78.81751 252.94363 77.83964 252.79297 76.931641 C 252.4903 76.075641 251.98783 75.457015 251.89453 74.541016 C 251.55453 72.839684 250.51528 71.589812 249.00195 70.757812 z M 253.1543 80.261719 L 253.03906 80.330078 C 253.12706 81.976743 254.46552 82.687204 255.35352 83.783203 C 255.88952 84.389869 255.53886 85.117209 255.13086 85.671875 C 254.87486 86.286541 254.73268 87.044521 255.02734 87.867188 C 255.02734 87.867188 255.1592 87.893878 255.1582 87.892578 C 256.12223 87.040579 256.37211 85.919333 256.05078 84.75 C 256.01308 84.371334 256.05773 83.992265 256.05273 83.572266 C 256.09273 82.701599 255.53091 81.90625 255.01758 81.40625 C 254.43891 80.91025 253.87696 80.635052 253.1543 80.261719 z M 256.36914 90.726562 L 256.25781 90.800781 C 256.35248 92.375447 256.86092 93.492704 257.76758 94.720703 C 257.97958 95.018036 258.15243 95.338073 258.17773 95.691406 C 258.02573 96.804738 257.91245 97.699788 258.56445 98.814453 L 258.69531 98.830078 C 259.56465 97.776746 259.22361 96.576942 258.59961 95.599609 C 258.33828 94.534277 258.58728 93.311599 258.00195 92.322266 C 257.63528 91.6756 257.1278 91.081229 256.36914 90.726562 z M 259.66992 100.27148 C 259.38831 100.28206 259.11402 100.36021 258.88477 100.54688 L 258.92969 100.67383 C 259.93102 100.94183 260.52374 101.74987 261.42773 102.2832 C 262.30697 102.72155 263.30177 103.26668 263.54492 104.29297 C 263.13484 104.75262 262.99069 105.20226 262.91992 105.63867 C 262.79059 106.31467 263.40133 107.06111 263.22266 107.67578 C 263.13866 107.88778 262.8758 108.0505 262.73047 108.20117 C 262.46644 108.55584 262.55663 108.79425 262.41797 109.40625 L 262.47266 109.5293 C 263.17532 109.7133 263.73734 109.07422 263.77734 108.57422 C 263.71867 108.01955 263.49691 107.56479 263.90625 107.07812 C 264.0694 106.83112 264.18682 106.5798 264.25781 106.32617 C 264.79713 107.13823 265.58338 107.77236 266.39648 108.42188 C 266.77382 108.7752 267.17606 109.17653 267.66406 109.50586 L 267.77344 109.42969 C 267.6481 108.86569 267.50209 108.33198 267.24609 107.80664 C 266.82876 106.80131 265.79083 106.1522 265.16016 105.4082 C 264.6215 104.5842 263.80909 103.5717 263.12109 102.81836 C 262.48642 101.88236 261.87522 100.8507 260.69922 100.4707 C 260.40372 100.35521 260.032 100.25789 259.66992 100.27148 z " /><path
     id="path50"
     style="stroke-width:1.33333;fill:#000000;fill-opacity:1;opacity:0.2"
     d="m 299.55599,53.650665 c 1.39067,0.757334 2.388,2.398667 3.41334,3.546667 0.99866,1.117333 1.936,2.449333 2.65466,3.78 1.884,3.490666 2.856,7.624 2.472,11.606666 -0.18933,1.96 -0.428,3.934667 -0.50666,5.898667 -0.0467,1.192 -0.29067,3.021333 0.36133,4.069333 0.47867,-1.228 0.708,-2.786667 0.952,-4.098667 0.79867,-4.296 2.70933,-8.345333 1.63067,-12.799999 -0.69867,-2.881334 -2.59734,-5.670667 -4.652,-7.772 -1.78267,-1.822667 -4.11067,-3.024 -6.32534,-4.230667 z m -18.996,14.621333 c 3.21067,3.702667 7.71734,6.321333 11.93867,8.718667 1.66267,0.944 3.064,2.425333 4.19467,3.918666 0.89466,1.182667 1.59333,2.493334 2.392,3.738667 0.77066,1.201333 1.56533,1.846667 2.57866,2.76 2.13734,1.925333 3.36934,4.922666 4.816,7.350666 2.972,4.986667 3.00534,11.401336 3.58934,17.046666 0.12266,1.19067 0.19466,2.38267 0.288,3.576 0.06,0.76133 0.53333,1.72667 0.43333,2.46133 -0.27067,1.98934 -2.74133,1.22934 -4.06133,1.59067 -1.51067,0.41333 -2.50667,2.152 -3.56267,3.20933 -0.47467,-0.92133 -2.188,-0.94666 -2.872,-1.756 -0.82533,-0.97466 -0.668,-2.60266 -2.19333,-1.59466 -0.95334,0.63066 -2.06267,2.112 -3.22534,1.956 -3.232,-0.432 -3.38533,-2.54267 -3.62666,-5.31734 0.84533,0.132 1.55466,0.168 2.284,0.104 -0.0747,0.007 1.404,-0.34933 1.308,-0.308 1.20933,-0.51733 2.00133,-2.49733 3.55066,-2.364 0.312,-2.12 -0.14,-2.43066 1.44534,-3.504 1.064,-0.72133 0.636,0.288 1.13866,-1.084 0.0947,-0.25866 0.45867,-1.94666 0.47067,-2.11066 0.13067,-1.74 -1.32933,-2.78 -0.184,-4.36267 0.57333,-0.792 1.43067,-0.92 1.56133,-1.94 0.088,-0.687999 -0.608,-1.273332 -0.56533,-1.826666 0.0667,-0.846666 0.27333,-0.437333 0.60267,-1.205333 0.51866,-1.209333 1.03333,-1.396 0.564,-2.754667 -0.52267,-1.514666 -2.13734,-3.444 -3.41734,-4.425333 -0.40533,-0.309333 -1.28933,-0.342667 -1.55866,-0.626667 -0.416,-0.438666 -0.0347,-1.029333 -0.33867,-1.42 -0.28267,-0.364 -0.98667,-0.46 -1.23333,-0.788 -0.34134,-0.456 -0.35067,-0.951999 -0.6,-1.325333 -0.41334,-0.62 -1.192,-1.093333 -1.56,-1.698666 -0.29067,-0.478667 0.096,-1.298667 -0.30534,-1.734667 -0.488,-0.529333 -1.81066,-0.484 -2.488,-0.630667 -0.25733,-1.726666 -1.40133,-1.198666 -2.34533,-2.021333 -0.20533,-0.178667 -0.16933,-0.902667 -0.47333,-1.206667 -0.424,-0.425333 -0.92267,-0.197333 -1.376,-0.604 -0.36934,-0.333333 -0.4,-1.22 -0.912,-1.486666 -0.82,-0.426667 -1.056,0.274666 -1.73334,0.158666 -1.05066,-0.18 -1.844,-1.529333 -2.90133,-1.213333 -0.0867,-1.289333 -0.96133,-1.208 -2.02533,-1.186667 0.104,-1.330666 -0.77734,-2.318666 -1.11467,-3.541333 -0.30533,-1.106666 -0.17333,-2.272 -0.33333,-3.394666 -0.41334,-2.88 -1.48,-5.450667 -1.46934,-8.430667 -0.008,3.234667 1.19734,6.824 3.32,9.273333 z m 27.61867,8.725333 c 0.20933,-0.869333 0.54133,-1.866666 0.64533,-2.744 0.0573,-0.484 -0.73733,-2.851999 -0.64533,-2.983999 -0.83867,1.197333 -0.532,3.254666 -1.08267,4.615999 -0.31733,0.782667 -1.44,2.212 -2.20933,0.989334 -0.348,-0.552 -0.15733,-2.458667 -0.24667,-3.209334 -0.39466,-3.310666 -0.64666,-6.502666 -1.69066,-9.701333 -0.54934,-1.68 -1.23334,-3.352 -2.116,-4.886666 -0.75467,-1.313333 -1.96667,-2.085333 -3.27734,-2.881333 -3.73866,-2.266667 -11.38533,-5.174667 -14.46933,-1.204 -2.11067,2.717333 -2.43067,6.770666 -0.28667,9.778666 -1.68266,-2.36 0.90267,-5.464 3.15734,-6.212 2.272,-0.753333 5.18933,-0.526666 7.28666,0.649334 3.66667,2.058666 7.37334,6.307999 7.72267,10.675999 0.12,1.508 0.20933,3.004 0.08,4.508 -0.14533,1.685333 -1.66667,4.934667 -3.61867,2.625333 0.68534,0.812 1.33734,1.644 1.81467,2.598667 0.31867,0.638667 0.68667,1.138667 1.17733,1.670667 0.26534,0.286666 0.544,0.561333 0.82267,0.834666 0.124,0.121334 0.75067,0.58 0.75467,0.74 -0.009,-0.381333 0,-0.808 -0.112,-1.172 -0.204,-0.666666 -0.36934,-1.048 0.24533,-1.522666 0.60933,-0.470667 1.28533,-0.448 2.024,-0.449334 0.92267,-0.0027 1.78267,0.352 2.62667,-0.222666 0.804,-0.546667 1.18,-1.592 1.39733,-2.497334 z m 28.98133,21.957333 c -0.005,-0.125333 -0.0133,-0.249333 -0.0307,-0.368 -0.0293,-0.197333 -0.20266,-0.373333 -0.19733,-0.581333 0.012,-0.426667 0.26267,-0.437333 0.35333,-0.784 0.0987,-0.374667 0.208,-0.985333 0.12267,-1.425333 -0.0973,-0.498667 -0.42,-0.732 -0.38,-1.229334 0.0347,-0.425333 0.432,-0.793333 0.37333,-1.297333 -0.0813,-0.689333 -0.78,-1.253333 -0.78266,-2.017333 -10e-4,-0.505334 -0.0107,-0.708 -0.0947,-1.198667 -0.0787,-0.461333 0.14667,-0.816 0.0987,-1.245333 -0.0627,-0.553334 -0.44667,-0.813334 -0.38934,-1.397334 0.0587,-0.601333 0.64134,-1.211999 0.41734,-1.838666 -0.29734,-0.829333 -1.56134,-1.462667 -2.008,-2.234667 -0.45734,-0.789333 -0.21734,-1.153333 -0.268,-1.990666 -0.044,-0.737334 -0.436,-1.288 -0.732,-1.934667 -0.284,-0.62 -0.38533,-1.256 -0.61333,-1.905333 -0.55867,-1.590667 -1.152,-3.170667 -1.748,-4.748 -0.94267,-2.498667 -1.704,-5.242667 -3.09734,-7.509333 -1.56,-2.534667 -3.28533,-4.962667 -4.84666,-7.496 -1.37467,-2.229333 -2.92,-4.552 -4.82134,-6.346667 0.88534,1.876 3.272,4.572 4.84134,6.309334 1.63866,1.813333 3.50666,2.148 5.70533,2.898666 -2.44667,-0.164 -0.144,3.602667 0.69067,4.157333 1.59066,1.057334 4.76799,0.142667 5.89333,1.369334 -2.40133,0.312 -4.63333,1.830666 -3.33733,4.805333 0.60933,1.4 3.37466,2.733333 4.80533,2.724 -1.41867,0.396 -3.15467,2.089333 -2.58,3.848 0.76,2.322666 4.752,3.045333 6.56533,3.406666 -1.752,0.345334 -3.04667,2.048 -2.47733,3.838667 0.67466,2.121333 2.776,2.710666 4.48666,3.521333 -2.244,-0.193333 -3.756,2.318667 -2.69733,4.354667 0.93333,1.796 3.452,1.605333 4.49467,3.073333 -2.09334,0.153333 -4.924,1.369333 -3.68534,4.014667 0.372,0.794662 1.44934,1.868002 2.11867,2.424002 0.91333,0.75866 2.37867,0.78266 3.172,1.612 -1.50933,0.59866 -4.40667,1.26933 -2.74,3.39866 -0.13733,-0.176 -2.944,0.37734 -3.276,0.42667 -1.408,0.208 -2.81733,0.32267 -4.05333,1.10133 -1.00934,0.636 -2.08,1.264 -3.064,1.90667 0.016,-0.832 0.36133,-1.71733 1.07466,-2.26 0.50267,-0.38267 1.032,-0.384 1.24534,-1.06 0.25333,-0.804 -0.26667,-1.88667 0.308,-2.60133 0.38533,-0.48 1.276,-0.51067 1.63333,-0.972 0.0613,-0.08 0.37467,-1.02134 0.384,-1.12267 0.0547,-0.548 -0.43333,-0.89467 -0.548,-1.364 -0.0373,-0.15467 0.0533,-0.532 0.0253,-0.71467 -0.024,-0.15066 -0.21066,-0.27466 -0.24666,-0.41733 -0.096,-0.353332 -0.0787,-0.751999 -0.0947,-1.130666 z" /><path
     id="path47"
     style="stroke-width:1.33333;fill:#000000;fill-opacity:1"
     d="m 284.67466,68.295998 c -2.6,-2.576 -5.13733,-6.721333 -3.91067,-10.506666 0.54934,-1.696 1.82267,-3.281333 3.55467,-3.837333 -0.81467,0.452 -1.68667,1.697333 -2.19333,2.454666 -0.648,0.972 -0.79467,2.210667 -0.64134,3.368 0.36,2.721333 1.848,5.376 3.54934,7.481333 1.50666,1.864 3.57066,3.177334 5.568,4.502667 1.684,1.117333 3.34933,2.268 4.92133,3.54 0.792,0.64 1.55867,1.309333 2.28933,2.018666 0.508,0.493334 1.112,0.957334 1.52134,1.537334 0.40666,0.576 0.67466,1.24 1.11466,1.794666 0.26134,0.329334 0.54267,0.649334 0.81467,0.976 0.39067,0.469334 1.01067,1.001334 1.088,1.642667 -0.476,-0.529333 -1.07733,-0.958667 -1.636,-1.401333 -1.168,-0.924 -2.19067,-2.189334 -3.108,-3.349334 -0.96267,-1.218666 -2.03467,-2.354666 -3.23067,-3.345333 -3.05866,-2.532 -6.88,-4.081333 -9.70133,-6.876 z m 18.95867,11.308 c 0.94666,-0.682667 1.95066,-0.008 2.75733,-1.2 0.968,-1.429333 1.24533,-3.157333 1.308,-4.841333 0.0747,-1.985333 -0.009,-3.982667 -0.356,-5.942667 -0.45067,-2.546666 -1.35733,-5.036 -2.83867,-7.157333 -0.656,-0.938666 -1.41866,-1.798666 -2.22933,-2.608 -4.236,-4.229333 -12.608,-7.494666 -18.42933,-4.92 6.86133,-3.033333 16.08133,-1.132 20.49466,5.085334 2.468,3.477333 3.87067,7.773333 4.232,11.999999 0.172,2.008 0.13734,4.030667 -0.0333,6.037333 -0.16133,1.897334 -0.76933,3.946667 -0.29733,5.833334 0.16533,0.661333 0.38533,1.344 0.596,1.994666 0.224,0.692 0.6,1.321334 0.76666,2.032 0.172,0.738667 0.22934,1.502667 0.412,2.241333 0.23734,0.96 0.608,1.844 0.976,2.76 0.37734,0.941334 0.83467,1.841334 1.20934,2.790667 0.46533,1.182667 0.0133,2.38 0.34533,3.528 0.16533,0.572 0.524,1.116 0.7,1.696 0.26533,0.874667 0.55067,1.782669 0.73067,2.679999 0.22,1.09867 -0.0373,2.16 0.0133,3.25733 0.0373,0.81334 0.756,1.532 1.1,2.256 0.468,0.98267 0.68,2.144 0.79067,3.204 0.0893,0.852 0.04,1.74534 0.24266,2.57334 0.17734,0.724 0.50267,1.37733 0.668,2.10666 0.19067,0.83734 0.37734,1.67467 0.56134,2.51334 0.16133,0.73733 0.41466,1.488 0.47333,2.23866 0.0453,0.58134 -0.0747,1.01067 -0.108,1.572 -0.032,0.54667 0.0587,1.09867 0.12533,1.64 0.144,1.18667 0.79067,2.19867 1.184,3.30667 0.28,0.79067 0.90134,1.584 1.788,1.712 0.48267,0.0693 1.67067,-0.41067 1.84534,0.25333 -0.312,0.23067 -0.72134,0.32134 -1.048,0.52267 -0.23067,0.14267 -0.4,0.376 -0.63467,0.51067 -0.23867,0.13733 -0.42933,0.132 -0.584,0.38 -0.864,1.38533 -0.20533,3.276 -0.972,4.56933 -0.32667,0.54933 -1.152,0.896 -1.72667,1.036 0.0453,-0.78267 0.60934,-1.39333 0.56267,-2.32533 -0.29333,0.007 -0.56,0.116 -0.85067,0.128 1.18667,-1.928 0.88667,-4.636 0.20534,-6.712 -0.18,-0.54667 -0.35734,-1.07467 -0.62134,-1.588 -0.27466,-0.532 -0.62,-1.09067 -0.61466,-1.71067 0.004,-0.408 0.19866,-0.89333 0.26933,-1.3 0.112,-0.64267 0.14267,-1.26933 0.17067,-1.916 0.032,-0.72533 -0.0613,-1.38133 -0.20667,-2.08933 -0.224,-1.096 -0.556,-2.18267 -1.10667,-3.152 -0.188,-0.33067 -0.38533,-0.65334 -0.55466,-0.97867 -0.26,-0.49867 -0.15334,-0.74267 -0.132,-1.28267 0.044,-1.11866 0.0933,-2.456 -0.368,-3.5 -0.30134,-0.684 -0.664,-1.36266 -0.98934,-2.044 -0.232,-0.488 -0.78533,-1.208 -0.79333,-1.70533 -0.004,-0.288 0.14533,-0.58667 0.19467,-0.87867 0.11466,-0.66933 0.16,-1.45733 0.0733,-2.14133 -0.14667,-1.148 -0.904,-2.253332 -1.51733,-3.189332 -0.21467,-0.328 -0.23867,-0.489334 -0.188,-0.88 0.12666,-0.978667 0.20533,-1.984 0.012,-2.949334 -0.144,-0.716 -0.36267,-1.348 -0.708,-1.990666 -0.25334,-0.472 -0.696,-0.676 -0.736,-1.2 -0.0187,-0.248 0.0587,-0.508 0.04,-0.764 -0.0387,-0.529334 -0.168,-1.032 -0.32,-1.54 -0.308,-1.026667 -0.568,-2.009334 -1,-2.978667 -0.4,-0.896 -0.74,-1.805333 -1.21067,-2.669333 -0.44533,-0.818667 -0.96133,-1.597333 -1.564,-2.309333 -0.18267,-0.218667 -1.91333,-2.134667 -2.10933,-1.994667 z" /></g><g
   inkscape:groupmode="layer"
   id="layer3"
   inkscape:label="Eye Brow"
   style="display:inline"><path
     opacity="0.2"
     d="m 337.72666,150.788 c -0.0227,0.036 -0.052,0.0653 -0.0733,0.10133 0.228,0.224 0.472,0.38 0.72,0.50667 -0.20666,-0.17467 -0.42266,-0.37867 -0.64666,-0.608 z"
     id="path3"
     style="fill:#000000;fill-opacity:1;stroke-width:1.33333" /><path
     id="path5"
     style="opacity:0.2;fill:#000000;fill-opacity:1;stroke-width:1.33333"
     d="m 308.82399,125.84666 c -0.97866,0.75067 -2.41333,1.66934 -3.67466,1.80134 -0.248,0.0267 -3.11467,-0.61067 -2.68934,-1.09734 -1.38533,1.58534 -2.63066,1.89467 -4.576,1.05867 -0.77466,-0.33333 -2.24533,-0.67333 -2.864,-1.296 -0.57733,-0.58 -0.84133,-1.87467 -1.30666,-2.56133 -0.50534,0.41066 -0.832,1.04133 -0.94,1.69333 -4.14134,0.32133 -5.688,-2.84 -7.77067,-5.68 -0.67867,0.45733 -1.46667,1.75867 -1.44933,2.61333 -3.23867,-1.30933 -6.944,-3.01866 -7.03067,-7.10666 -1.53867,1.096 -1.852,3.07866 -3.93067,3.17333 -1.95866,0.0893 -4.304,-0.66133 -5.12,-2.588 -2.45733,2.88267 -6.32133,2.452 -8.90133,-0.04 -0.544,1.62133 0.168,3.27333 -1.48133,4.28133 -0.73734,0.45067 -1.39467,1.08534 -2.22667,1.36 -0.216,0.072 -2.42667,0.30667 -2.42267,0.24134 -0.0627,1.144 0.612,2.09466 0.57734,3.24266 -0.0573,1.86267 0.408,3.93734 0.76266,6.25067 0.25067,1.63733 0.504,3.27333 0.76134,4.908 0.13866,0.87867 0.28,1.76667 0.59466,2.57867 0.616,1.58933 1.95867,2.048 3.35734,2.45066 0.37066,0.10667 0.73866,0.18934 1.11333,0.23067 -0.0867,-0.984 -0.14133,-1.39067 0.048,-2.18 1.09733,-4.55867 4.50533,-6.55333 7.932,-8.30533 4.65733,-2.38 7.98267,-2.75734 12.63333,-2.49467 4.85467,0.27333 9.41467,0.96 14.09334,2.24667 1.732,0.476 3.53466,0.716 5.328,0.784 0.86266,0.0333 1.79333,-0.11867 2.64133,-0.004 0.956,0.128 1.85467,0.43333 2.83467,0.33466 0.23333,-0.024 0.46533,-0.0667 0.692,-0.13066 0.74,-0.21067 1.73733,-0.52134 2.26266,-1.10667 0.352,-0.39333 0.44,-0.936 0.73734,-1.36667 0.404,-0.584 1.256,-1.04266 1.956,-0.80933 0.22933,0.076 0.42933,0.16267 0.612,0.26133 -0.064,-1.28666 -0.32667,-2.692 -1.152,-3.61066 -0.12667,-0.14134 -0.24267,-0.27734 -0.33467,-0.404 -0.40933,0.364 -0.57867,0.896 -1.06667,1.27066 z M 350.45466,115.648 c 1.42266,-1.25067 2.348,-3.44667 1.86133,-5.37467 -0.24267,0.24533 -0.53333,0.648 -0.852,0.928 -1.43067,1.252 -3.78667,1.732 -5.56133,2.31733 -2.06,0.68 -4.316,0.768 -6.15867,2.02267 -2.148,1.46133 -4.57333,2.032 -6.30933,4.14267 -0.95733,1.16266 -2.36267,1.028 -3.552,1.73333 -1.02267,0.60667 -1.81067,2.176 -3.26667,1.78 -1.61866,-0.44133 -0.34666,-1.384 0.12134,-2.23733 0.616,-1.12667 0.932,-2.292 1.972,-3.14134 0.716,-0.584 1.76666,-0.90533 2.34266,-1.62266 0.66667,-0.828 0.412,-1.95467 1.22934,-2.852 0.52133,-0.572 1.61333,-0.68 2.00933,-1.23067 0.236,-0.328 0.15333,-1.03067 0.34933,-1.432 0.15333,-0.31333 0.556,-0.75067 0.68,-0.916 -0.30267,0.40533 -1.40133,0.724 -1.85333,1.03067 -0.66667,0.452 -1.308,0.976 -1.91733,1.50133 -1.136,0.98267 -2.17334,2.05067 -3.32,3.02 -1.16267,0.98267 -1.81734,2.48133 -3.168,3.252 -1.48,0.844 -3.568,1.384 -5.27734,1.32533 -0.63466,-0.0227 -1.22266,-0.16266 -1.85333,-0.084 -0.88133,2.48134 0.45067,4.96934 1.012,7.39467 0.36267,1.564 -0.0947,4.76267 0.648,6.16667 0.007,0.012 0.14933,-0.0253 0.372,-0.0907 0.23733,-0.12133 0.476,-0.24133 0.708,-0.36933 1.10667,-0.612 2.344,-1.43067 3.532,-1.80934 1.35067,-0.42933 2.69333,-1.38666 4.07467,-1.72133 1.912,-0.464 4.02933,-0.58533 5.98666,-0.79733 1.496,-0.16267 3,-0.22534 4.504,-0.21734 0.84933,0.004 2.45867,-0.0227 2.76667,1.01467 0.27466,0.928 0.54666,1.764 0.95733,2.65733 0.37333,0.81334 0.89333,1.76 0.86667,2.68134 -0.016,0.54933 -0.04,1.044 -0.0387,1.572 0.13467,-0.77067 0.352,-1.51334 0.708,-2.20267 0.18133,-0.352 0.304,-0.708 0.392,-1.068 -0.0627,-0.2 -0.11467,-0.40267 -0.10533,-0.62267 0.0187,-0.47466 -0.39334,-1.56666 -0.16667,-1.972 0.35733,-0.636 0.424,-1.188 0.61467,-1.852 0.016,-0.0547 0.0547,-0.116 0.0747,-0.172 0.312,-0.87866 0.928,-1.64666 1.50667,-2.39733 0.14267,-0.188 0.288,-0.37733 0.40533,-0.54133 0.72534,-1.01334 0.364,-1.61067 0.544,-2.71734 0.17467,-1.068 1.17334,-1.26933 1.588,-2.24933 0.25867,-0.61067 -0.136,-0.92533 0.0267,-1.44667 0.136,-0.43333 0.62133,-0.68933 0.97867,-1.04666 0.544,-0.54134 0.81066,-1.11867 1.03066,-1.716 -0.0427,-0.21734 -0.18,-0.43334 -0.46266,-0.64 z" /><path
     d="m 310.22266,124.97733 c -0.86667,1.78533 -1.97333,4.35333 -3.7,5.45733 -1.75067,1.11867 -4.10133,1.148 -6.104,1.03334 -2.18267,-0.124 -4.58133,-0.14134 -6.60667,-0.948 -4.17866,-1.66267 -8.388,-3.256 -12.14133,-4.98134 -4.34133,-1.99733 -10.08933,-3.73733 -15.08267,-3.73333 -1.128,0.001 -2.096,0.30533 -3.224,0.292 -1.30933,-0.016 -2.43466,-0.54533 -3.84533,-0.3 -2.28,0.39867 -2.89067,1.58533 -3.89733,3.228 -0.45334,0.74133 -0.82,1.508 -1.21734,2.27733 -0.35066,0.67867 0.028,1.21734 0.0573,2.16134 0.024,0.78133 -0.232,1.408 -0.24934,2.16533 -0.0227,0.97333 0.47334,1.828 0.39734,2.824 -0.0387,0.52133 -0.184,0.91333 0.009,1.40533 0.21467,0.548 0.59333,0.86534 0.75733,1.46134 0.148,0.54 0.14,1.18266 0.424,1.632 0.188,0.29733 0.456,0.476 0.69334,0.716 0.396,0.39866 0.74,0.888 1.13066,1.27866 0.25334,0.25334 0.57067,0 0.79334,0.316 -0.596,-0.11066 -1.81067,-0.48133 -2.32267,-0.96533 -1.06533,-1.00933 -1.90267,-2.72133 -2.26933,-4.27333 -0.252,-1.06534 -0.528,-2.12934 -0.75067,-3.22134 -0.23467,-1.15733 0.0867,-2.34666 -0.0413,-3.51333 -0.11067,-1.00533 -0.412,-1.988 0.02,-2.74267 0.33066,-0.576 0.90533,-1.008 1.096,-1.66266 0.16533,-0.572 -0.012,-1.436 0.0187,-2.03067 2.08134,-0.18133 5.71467,-1.87467 5.864,-4.22 1.81867,2.032 3.25334,1.908 5.54134,0.84933 1.464,1.988 4.46,1.488 6.548,0.97067 1.22,-0.30267 1.98,-0.80667 2.996,0.17867 1.06266,1.02933 2.22533,2.36 3.71333,2.752 0.356,0.0933 4.27467,-0.236 4.116,-0.692 0.65733,1.88133 2.61467,2.776 4.35867,3.50133 0.76933,0.32 1.80666,0.70267 2.66,0.744 0.39466,0.0187 1.028,-0.172 1.36533,-0.11867 0.96933,0.156 0.28933,0.024 1.06133,0.56 1.37734,0.956 2.33734,1.648 4.17067,1.75334 1.03733,0.06 1.952,-0.18534 2.89333,-0.368 0.452,-0.088 0.59334,-0.46 1.092,-0.42667 0.62667,0.0427 1.472,0.87733 2.08534,1.11467 1.76933,0.68666 4.54533,-0.26267 5.53333,-1.93867"
     id="path6"
     style="fill:#000000;fill-opacity:1;stroke-width:1.33333" /><path
     opacity="0.2"
     d="m 345.34799,121.63466 c -0.0307,0.716 -0.36,0.53867 -1.03067,1.01734 -0.79333,0.56533 -1.09866,1.184 -1.19866,2.136 -0.0547,0.516 0.204,0.98666 -0.11067,1.43866 -0.14533,0.208 -1.24133,0.648 -1.512,0.84267 0.75867,-0.54667 -0.72533,-4.18667 -1.384,-4.52267 -0.98133,-0.5 -3.36667,0.48134 -4.332,0.868 -0.064,-2.58533 3.136,-4.152 5.12933,-5.008 1.144,-0.492 2.356,-1.128 3.37734,-0.0467 0.64533,0.68533 1.10133,2.348 1.06133,3.27466 z"
     id="path7"
     style="fill:#000000;fill-opacity:1;stroke-width:1.33333" /><path
     id="path8"
     style="opacity:0.5;fill:#000000;fill-opacity:1;stroke-width:1.33333"
     d="m 348.61914,106.08008 c -2.10163,0.01 -4.32861,1.17358 -6.44336,1.08008 -2.092,-0.15734 -4.48038,0.4069 -6.12305,1.74023 -1.85732,0.94133 -3.97343,1.61702 -5.49609,3.17969 -0.94,0.816 -1.19439,1.91923 -1.65039,2.83789 l 0.10352,0.0859 c 0.86932,-0.69734 1.40812,-1.65258 2.18945,-2.11524 1.51334,-0.96 3.65642,-2.50962 5.09375,-3.62695 2.65867,-2.35733 6.1124,0.0312 9.17773,-1.13281 2.05333,-0.75733 3.648,-1.59067 5.86133,-1 l 0.0527,-0.1211 c -0.88083,-0.69917 -1.81034,-0.93221 -2.76563,-0.92773 z m -86.43555,3.95312 c -1.76132,1.25067 -2.53369,3.17927 -3.56836,4.94727 -0.23467,0.384 -0.54501,0.85555 -0.57031,1.43555 -0.0467,1.54932 1.22872,2.76671 2.49805,3.38671 l 0.0957,-0.0898 c -0.35867,-0.888 -0.82939,-1.61833 -1.16406,-2.34766 -0.284,-0.74799 -0.72703,-1.27959 -0.42969,-2.18359 0.56351,-1.40937 2.0582,-2.36393 3.21094,-3.33398 1.0961,0.63813 2.24259,0.68715 3.41016,1.2207 l 0.0957,-0.0918 c -0.75734,-1.42667 -2.50479,-1.94336 -3.57813,-2.94336 z m 45.46094,0.86524 c -0.53067,1.212 -0.0543,2.1119 0.59766,3.0039 0.143,0.312 0.15328,0.66087 0.14258,1.01954 -0.0547,1.45732 0.37999,3.00158 1.86132,3.65624 l 0.0937,-0.0957 c -0.06,-0.74666 -0.1062,-1.36072 -0.29687,-1.99804 -0.23333,-0.952 -1.14477,-1.73522 -1.38477,-2.69922 0.10266,-1.06933 0.0624,-2.07205 -0.8789,-2.88672 z m -39.39258,0.0742 c -0.236,0.89333 -0.30541,1.84508 -0.58007,2.70507 -0.22133,0.75334 -0.66202,1.39111 -1.16602,2.00977 -0.9507,1.29467 -1.41591,3.06239 -1.00391,4.65039 l 0.13282,0.008 0.90625,-2.125 c 0.89309,-1.94979 1.22699,-4.16005 2.33593,-6.01953 0.92758,0.40208 1.81525,1.1355 2.84766,1.42188 1.188,0.376 2.18959,0.52722 3.15625,1.33789 l 0.11133,-0.0723 c -0.16666,-0.61733 -0.58766,-1.20281 -1.125,-1.60547 -1.684,-1.01334 -3.61657,-2.15187 -5.61524,-2.31054 z m 11.88282,1.25586 c -1.72688,0.0347 -3.54215,2.40741 -4.61915,3.5664 -1.69332,1.748 -2.02779,4.2687 -1.81445,6.58203 0,0 0.12991,0.0302 0.12891,0.0332 1.27866,-2.06667 1.10511,-4.30595 2.03711,-6.36328 0.76,-1.23333 2.47511,-1.69337 3.64843,-2.33204 0.23467,-0.076 0.4463,-0.19812 0.6543,-0.10742 1.376,0.76 1.35968,2.81335 2.76367,4.13867 l 0.10938,-0.0762 c -0.37733,-1.45067 -0.19819,-2.97575 -1.24219,-4.5664 -0.525,-0.63967 -1.09039,-0.88659 -1.66601,-0.875 z m 9.03515,2.86718 c -1.51551,0.10503 -3.20504,2.59949 -4.56445,3.53907 -2.15867,1.58133 -2.43833,4.41012 -2.84766,6.80078 0,0 0.12019,0.0625 0.11719,0.0625 1.13333,-1.23867 1.6078,-2.91793 2.0918,-4.44727 0.23867,-1.67733 1.42463,-2.79885 2.91797,-3.49219 0.72799,-0.33866 1.50625,-0.90553 2.04492,-1.13086 0.3067,-0.052 0.1687,-0.0535 0.35937,0.11719 0.15466,0.188 0.35281,0.52385 0.49414,0.83985 0.64533,1.28399 0.91441,3.03526 1.92774,4.44726 l 0.12304,-0.0508 c -0.19333,-1.64133 -0.0786,-3.24723 -0.75195,-4.97656 -0.56917,-1.30959 -1.22324,-1.75673 -1.91211,-1.70899 z m 54.48047,2.72266 c -0.22799,-0.007 -0.45372,0.0407 -0.65039,0.15234 l 0.0293,0.13086 c 1.38,0 1.24808,1.38158 1.58008,2.51758 0.0787,0.38533 0.17076,0.75594 0.13476,1.11328 -0.003,0.009 -5.5e-4,0.008 -0.002,0.0137 -1.17267,0.55413 -1.98621,1.99714 -1.82617,3.31446 0.012,0.324 0.20786,0.92586 -0.10547,1.00586 -1.53351,0.032 -1.9345,1.82742 -1.53711,3.1875 -1.70773,0.75456 -0.25333,2.84582 0.58008,4.04101 0.14689,0.22035 0.28116,0.44199 0.38867,0.6543 -0.68021,0.93741 -0.16936,2.13773 0.16601,3.05273 0.37733,0.94534 0.85725,1.81308 1.28125,2.70508 l 0.12891,-0.0293 c -0.0733,-1.63199 -0.86606,-3.24031 -0.63672,-4.82031 0.0653,-0.1107 0.0251,-0.009 0.0371,-0.0234 l 0.5332,-0.66406 c -0.32533,-1.54133 -1.51631,-2.53981 -1.95898,-3.73047 0.01,-0.0613 -0.0659,0.0493 -0.006,-0.0254 0.19733,-0.15333 1.18636,-0.31286 1.45703,-0.38086 l -0.6543,-0.75781 c -0.43733,-0.50666 -0.84645,-2.23886 -0.0918,-2.63086 0.29867,-0.0813 0.86804,-0.21048 0.87304,-0.64648 0.044,-0.37466 -0.0341,-0.67337 -0.0391,-0.97071 -0.005,-0.856 0.51453,-1.59126 1.25586,-1.94726 0.44133,-0.204 1.26952,-0.42348 1.32422,-1.13281 0.0893,-1.24533 -0.40924,-2.3044 -1.00391,-3.40039 -0.24291,-0.43361 -0.75623,-0.71289 -1.25781,-0.72852 z m -34.10351,0.90234 c -1.2415,0.0151 -2.48884,0.66987 -3.54883,1.17188 0,0 0.0244,0.12986 0.0254,0.13086 1.38533,0.22533 3.0192,-0.11895 4.2832,-0.15625 -0.007,-0.001 0.0205,-0.0275 0.01,-0.0488 0.18,0.0453 -0.0742,0.97049 -0.10352,1.28516 -0.57867,2.25465 -1.17563,4.73054 0.70703,6.67187 0.21067,0.18134 0.31341,0.31842 0.41211,0.62109 0.348,0.99466 0.66247,2.05764 1.0918,3.04297 l 0.13281,-0.0156 c 0.132,-0.74534 0.17328,-1.48514 0.14258,-2.23047 -0.0427,-0.80933 -0.10042,-1.77153 -0.73242,-2.38086 -1.49733,-1.71067 -2.13686,-4.53617 -0.88086,-6.57617 0.212,-0.34134 0.17603,-1.02773 -0.30664,-1.28906 -0.40534,-0.16634 -0.81859,-0.23159 -1.23242,-0.22657 z m -10.47852,0.12305 c -0.43936,-0.0136 -0.92722,0.1743 -1.41992,0.60742 -1.43067,1.004 -2.94957,2.01711 -4.10156,3.39844 -1.32133,1.82 -1.09684,3.89899 -1.6875,6.09766 l 0.12109,0.0605 c 1.052,-1.01067 1.76953,-2.47237 1.74023,-3.98437 -0.024,-0.69467 -0.19026,-1.36455 0.17774,-1.92188 0.348,-0.56933 0.97995,-0.91907 1.61328,-1.17773 1.10267,-0.32134 2.8083,-1.24735 3.54297,-1.66602 0.24667,-0.0387 0.55942,0.64026 0.74609,0.9336 0.34933,0.57066 0.69384,1.36003 1.45117,1.69336 l 0.0742,-0.10938 c -0.36133,-0.576 -0.3562,-1.2635 -0.54687,-1.96484 -0.20563,-1.18212 -0.87217,-1.94083 -1.71094,-1.9668 z m -47.22852,1.00977 c -0.52266,0.10133 -0.44885,1.1282 -0.24218,1.4082 0.26266,0.368 0.64714,0.62964 1.11914,0.65234 0.228,0.0253 0.42393,0.0553 0.55859,0.19532 0.14,0.12799 0.2088,0.40835 0.35547,0.56835 0.312,0.25997 0.76309,0.28046 1.23242,-0.0742 0.10267,-0.38 -0.48962,-0.9589 -0.76562,-0.9336 -0.18,0.007 -0.43019,0.11841 -0.60352,0.0664 -0.43067,-0.15867 -0.44113,-1.0424 -0.73047,-1.28906 -0.20266,-0.19334 -0.44516,-0.31775 -0.92383,-0.59375 z m 92.92578,1.87695 c 0.005,-0.006 0.006,-0.008 0.004,0 -0.002,9.7e-4 -0.004,0.003 -0.006,0.004 7.6e-4,-10e-4 10e-4,-0.003 0.002,-0.004 z m -41.1875,1.20898 c -0.75999,0.336 -1.23906,0.99288 -1.53906,1.65821 -0.48663,1.01467 -0.0893,2.16812 -0.39062,3.18945 -0.65067,0.89734 -1.11529,1.64944 -1.00196,2.91211 l 0.11329,0.0723 c 1.23336,-0.55334 1.41064,-1.74842 1.30664,-2.87109 0.22933,-0.988 1.0932,-1.8636 1.31054,-2.82227 0.16666,-0.64132 0.27455,-1.25716 0.31055,-2.0625 z m -55.0957,2.95508 c -0.36667,0.104 -0.10354,0.77132 0.0645,0.97266 0.52666,0.70666 1.45509,0.82648 2.23242,0.50781 0.25733,-0.0947 0.49028,-0.17755 0.73828,-0.15625 0.244,0.0133 0.54775,0.16472 0.84375,0.13672 0.56933,-0.108 0.98103,-0.61114 0.95703,-1.25781 l -0.0977,-0.0918 c -0.65334,0.0147 -0.97762,0.0897 -1.26562,0.31641 -0.12933,0.14134 -0.27433,0.40009 -0.48633,0.46679 -0.51066,0.14933 -1.23948,-0.6554 -1.77148,-0.7207 -0.38534,-0.10397 -0.66018,0.0155 -1.21485,-0.17383 z m -0.51758,5.01563 -0.10937,0.0762 c -0.0253,0.70934 0.41742,1.24789 0.85742,1.58789 0.70134,0.552 1.64324,0.30381 2.39258,0.64648 0.23066,0.13867 0.42341,0.4287 0.69141,0.58203 0.51599,0.25734 1.33859,0.13814 1.69726,-0.50585 l -0.0469,-0.12305 c -0.62533,-0.27067 -0.89544,-0.44622 -1.38477,-0.44922 -0.23867,0.0254 -0.54355,0.1544 -0.79688,0.0957 -0.25599,-0.048 -0.45805,-0.23126 -0.63671,-0.44726 -0.764,-0.956 -1.46407,-1.21222 -2.66407,-1.46289 z m 6.45899,5.03711 -0.12695,0.0391 c -0.27333,0.73867 -0.43488,1.19587 -0.51758,1.67187 -0.0147,0.23467 -0.006,0.58144 -0.23438,0.77344 -0.22133,0.196 -0.54893,0.18711 -0.82226,0.0645 -1.17733,-0.61334 -2.12401,-0.95705 -3.5,-1.15039 l -0.0977,0.0918 c 0.31733,1.168 1.37719,1.80244 2.47852,1.89844 0.99999,0.104 2.48484,-0.49866 3.1875,-1.22266 0.436,-0.73067 0.26348,-1.65668 -0.36719,-2.16601 z m 2.33203,6.80859 c -0.36857,0.008 -0.79549,0.13191 -0.92383,0.18359 -0.54533,0.18267 -0.90503,1.05701 -1.45703,1.09571 -0.208,-0.001 -0.4238,-0.19409 -0.5918,-0.27539 -0.352,-0.112 -0.58511,-0.004 -1.17578,0.18359 -0.26666,0.44533 0.65036,1.12178 1.17969,0.92578 0.47734,-0.24533 0.77342,-0.60878 1.35742,-0.43945 1.05733,0.17467 1.97477,-0.39616 2.13477,-1.52149 -0.101,-0.11998 -0.3023,-0.15693 -0.52344,-0.15234 z m 86.73828,1.16992 c -0.21466,0.58133 -0.33209,1.16283 -0.49609,1.66016 -0.364,1.01734 -1.31183,2.17356 -1.0625,3.3789 0.21467,1.21466 0.33967,2.04976 -1.09766,2.23243 -0.576,0.0333 -0.89947,-0.36721 -1.49414,-0.64454 -1.10267,-0.56934 -2.94969,-0.22955 -3.42969,1.03711 l 0.0937,0.0977 c 1.17867,-0.47333 1.93029,-0.28693 3.01563,-0.0723 1.97466,0.33067 4.37517,-0.22269 4.17383,-2.69335 0.028,-0.54933 0.20996,-0.83976 0.41796,-1.34376 0.54936,-1.04132 0.52772,-2.55501 0.0117,-3.65234 z m -87.10937,1.88672 c 0.26933,2.14 0.48537,4.26436 1.74804,5.70703 0.22645,-0.1321 0.42313,-0.30606 0.59375,-0.51562 0.7945,0.3684 1.77659,0.25764 2.59766,-0.0781 0.41334,-0.0867 0.83101,-0.0882 1.29101,-0.13086 1.04934,0.028 2.13392,-1.12923 1.89258,-2.22656 -0.20666,-1.07867 -1.07231,-1.86616 -2.04297,-1.88086 l -0.0547,0.12109 c 0.57866,0.99067 0.85642,1.71119 0.59375,2.58985 -0.28266,0.49067 -1.03271,1.1544 -1.72071,1.0957 -0.80881,-0.20567 -1.35959,-0.38044 -2.01367,-0.46875 0.10423,-0.27127 0.19131,-0.5634 0.26172,-0.87109 -0.456,-0.3 -0.89479,-0.65502 -1.32813,-1.06836 -0.65465,-0.624 -1.40971,-1.23038 -1.76171,-2.09571 -0.024,-0.06 -0.0366,-0.11906 -0.0566,-0.17773 z m 13.34179,8.29492 c -1.256,0.0707 -1.52265,0.33079 -2.58398,0.82813 -0.23467,0.1106 -0.48747,0.17514 -0.7168,0.0898 -0.232,-0.076 -0.4118,-0.33523 -0.5918,-0.47656 -0.38934,-0.2333 -0.75325,-0.25419 -1.41992,-0.21289 l -0.0859,0.10156 c 0.0867,0.68667 0.62565,1.11858 1.18165,1.17188 0.29333,0.004 0.59618,-0.15226 0.85351,-0.15626 0.89734,0.10667 1.49535,0.78018 2.52734,0.21485 0.54,-0.34267 0.82858,-0.82033 0.92188,-1.45899 z" /><path
     d="m 352.48532,111.03333 c -0.428,1.50133 -0.75066,2.11067 -2.31866,2.49867 -1.01467,0.25066 -1.13334,0.63333 -1.91067,1.18 -0.77467,0.54533 -1.72267,0.46933 -2.50533,0.908 -0.57467,0.32266 -0.912,0.87866 -1.52667,1.208 -0.86133,0.46133 -1.94267,0.42666 -2.75067,0.85333 -0.73466,0.38933 -1.11333,1.072 -2.08933,1.56133 -0.716,0.36 -1.46933,0.50667 -2.21733,0.744 -0.99734,0.316 -0.884,0.452 -1.47067,1.39734 -1.20267,1.93733 -3.16133,2.924 -5.40533,3.14533 -0.0253,1.98533 -1.99733,2.34933 -3.588,2.496 -0.90133,0.0827 -1.68267,0.096 -2.536,0.38267 -0.928,0.312 -2.61067,1.20266 -3.61867,0.932 1.90534,0.512 3.908,-0.003 5.78934,-0.448 1.932,-0.45734 4.432,-0.78934 6.208,-1.71334 1.63999,-0.85333 2.98266,-2.456 4.27999,-3.78133 1.99334,-2.03467 4.60934,-3.51733 7.31734,-4.44533 2.93733,-1.00667 7.10933,-1.176 8.57333,-4.268 1.49867,-0.60267 1.74267,-2.81467 0.36933,-3.68134 -0.092,0.48534 -0.46133,0.54534 -0.6,1.03067 z"
     id="path19"
     style="fill:#000000;fill-opacity:1;stroke-width:1.33333" /><path
     d="m 248.79999,131.452 c -0.36266,-1.23734 -0.51333,-2.80134 -0.268,-4.06134 0.18,-0.92533 -0.18533,-1.628 -0.35466,-2.47466 -0.18667,-0.93334 0.3,-1.69067 0.61066,-2.55867 0.452,-1.26667 0.47867,-2.696 0.19867,-4.028 -0.248,0.78533 -0.13067,1.80667 -0.38533,2.65867 -0.23867,0.796 -0.61334,1.52 -0.892,2.3 -0.38534,1.07866 -0.32534,1.74266 -0.21734,2.892 0.13734,1.44266 -0.6,2.85733 -0.35333,4.29733 0.21867,1.272 1.01867,2.63733 0.83467,3.94933 -0.16534,1.18267 -0.10934,2.33067 0.70133,3.268 0.77867,0.89867 0.888,1.6 0.78,2.76 -0.0827,0.88534 -0.13867,1.81334 0.468,2.692 0.56667,0.82 1.72533,1.15067 2.54667,1.47334 1.06666,0.41733 1.65333,0.828 2.088,2.08266 0.432,1.24667 0.548,2.46934 1.55866,3.34534 0.66534,0.57733 1.35334,0.82133 2.17734,0.98266 0.936,0.18267 2.592,0.144 3.252,0.95867 0.46533,0.57467 0.61866,1.43467 1.15066,2.04667 0.78,0.89733 1.67067,1.36933 2.75067,1.616 0.436,0.1 1.98667,0.43466 2.17867,-0.0373 0.24133,-0.59333 -1.988,-1.05066 -2.26534,-1.13866 -1.39466,-0.44134 -1.95866,-1.57467 -2.77066,-2.91067 -0.79734,-1.31333 -1.636,-0.948 -2.82134,-1.28133 -1.34666,-0.37867 -2.37733,-1.25067 -3.16133,-2.536 -0.83067,-1.36134 -1.27333,-3.32934 -2.67067,-3.88 -1.04133,-0.41067 -2.09466,-0.86667 -2.91066,-1.748 -0.976,-1.05334 -1.78934,-1.86 -1.26934,-3.196 0.20934,-0.53867 0.336,-0.57867 0.18667,-1.124 -0.25467,-0.93334 -0.944,-1.736 -1.104,-2.70267 -0.15867,-0.95467 0.29467,-1.85067 0.16667,-2.78267 -0.04,-0.30133 -0.124,-0.58266 -0.20534,-0.86266 z"
     id="path36"
     style="fill:#000000;fill-opacity:1;stroke-width:1.33333" /><path
     d="m 255.59866,110.36 c -0.16533,-0.80267 -0.252,-1.88667 0.79467,-2.08934 0.53066,-0.0213 0.932,0.18134 1.432,0.0467 1.196,-0.24267 2.352,0.0107 3.15466,1.01067 0,0 -0.04,0.12666 -0.04,0.12666 -0.66,0.29067 -1.21866,0.32534 -1.75466,0.268 -0.52,-0.12133 -1.02,-0.30933 -1.49734,-0.68933 -0.29733,-0.22267 -0.796,-0.484 -0.98,-0.0907 0.052,0.40134 -0.148,1.18934 -1.00133,1.49467 0,0.003 -0.108,-0.0773 -0.108,-0.0773 z"
     id="path40"
     style="opacity:0.5;fill:#000000;fill-opacity:1;stroke-width:1.33333" /></g></svg>
