<?xml version="1.0" encoding="UTF-8" standalone="no"?>
<!-- Generator: Adobe Illustrator 28.2.0, SVG Export Plug-In . SVG Version: 6.00 Build 0)  -->

<svg
   version="1.1"
   id="Cardassian_Chin_1"
   x="0px"
   y="0px"
   viewBox="0 0 400 400"
   enable-background="new 0 0 300 300"
   xml:space="preserve"
   sodipodi:docname="CardassianChin.svg"
   width="400"
   height="400"
   inkscape:version="1.3.2 (091e20e, 2023-11-25)"
   xmlns:inkscape="http://www.inkscape.org/namespaces/inkscape"
   xmlns:sodipodi="http://sodipodi.sourceforge.net/DTD/sodipodi-0.dtd"
   xmlns="http://www.w3.org/2000/svg"
   xmlns:svg="http://www.w3.org/2000/svg"><defs
   id="defs3" /><sodipodi:namedview
   id="namedview3"
   pagecolor="#ffffff"
   bordercolor="#666666"
   borderopacity="1.0"
   inkscape:showpageshadow="2"
   inkscape:pageopacity="0.0"
   inkscape:pagecheckerboard="0"
   inkscape:deskcolor="#d1d1d1"
   inkscape:zoom="5.6639253"
   inkscape:cx="299.08586"
   inkscape:cy="236.49676"
   inkscape:window-width="1776"
   inkscape:window-height="1014"
   inkscape:window-x="2546"
   inkscape:window-y="324"
   inkscape:window-maximized="0"
   inkscape:current-layer="g7" />



<g
   inkscape:groupmode="layer"
   id="layer2"
   inkscape:label="Chin Square"
   sodipodi:insensitive="true"
   style="display:none"><path
     opacity="0.2"
     d="m 312.02571,223.44916 c -0.52133,-1.81867 -1.08133,-3.62667 -1.53867,-5.46267 -0.004,3.17467 0.51867,6.33334 -0.908,9.276 -0.58666,1.21067 -1.53466,2.072 -2.64533,2.79867 -1.23867,0.81067 -3.03867,0.94667 -4.488,1.172 -2.28,0.35333 -4.69333,0.62 -7.00133,0.412 7.61466,4.06667 28.72459,1.92534 31.00771,-0.50933 0.65932,-0.70309 -2.11319,-3.27895 -3.2525,-5.05194 -0.22189,-1.47609 -1.37921,-4.22406 -1.73521,-5.12673 -0.224,-0.56933 -0.42534,-1.12667 -0.74,-1.66267 -0.56534,-0.96533 -1.00134,-1.81066 -1.21734,-2.94266 -0.26666,1.26933 0.064,2.736 0.0773,4.02266 0.02,1.8 -0.0293,3.85334 -0.66534,5.564 -0.47466,1.27734 -2.55066,1.65334 -3.57466,0.79067 -1.07867,-0.908 -1.38934,-2.516 -1.544,-3.84533 0.007,0.82533 0.28266,3.94933 -1.17334,3.79733 -0.25866,-0.96933 -0.22933,-1.912 -0.50133,-2.876 -0.032,-0.11867 -0.0667,-0.23733 -0.1,-0.356 z"
     id="path2"
     style="fill:#000000;fill-opacity:1;stroke-width:1.33333"
     sodipodi:nodetypes="scccccsccccccccccss" /><path
     d="m 307.44171,232.64516 c -1.50133,0.824 -2.69733,0.14133 -4.10667,-0.268 -1.09866,-0.31867 -2.308,-0.12933 -3.432,-0.14133 -1.132,-0.012 -1.828,-0.38934 -2.89333,-0.68667 -0.89067,-0.248 -1.884,0.10133 -2.764,-0.0773 -0.73867,-0.14934 -1.21733,-0.69734 -1.85333,-1.02667 -1.05467,-0.54667 -2.264,-0.47333 -3.35467,-0.972 -0.492,-0.224 -0.96133,-0.41333 -1.48667,-0.564 -0.81066,-0.23333 -1.68666,-0.0133 -2.33466,-0.57467 -0.98934,-0.85733 -1.528,-1.50933 -2.776,-2.144 -1.288,-0.656 -2.60534,-1.288 -3.9,-1.90133 -0.76,-0.36 -1.46934,-0.75467 -1.97734,-1.44267 -1.24133,-1.68133 -2.644,-3.332 -4.356,-4.616 0.472,0.80667 0.98667,1.54934 1.59734,2.28934 0.804,0.97333 1.37733,2.18533 2.18133,3.14133 1.00267,1.19333 2.416,1.94533 3.44,3.14 1.18133,1.37733 3.40267,2.39733 4.996,3.22667 1.54267,0.80266 3.33588,0.70244 5.00655,1.17444 4.36133,1.232 8.28289,1.59324 12.81756,2.23991 5.276,0.752 12.22471,0.39655 17.76213,-0.6646 3.88484,-0.74447 7.81314,-2.00523 6.65901,-1.70854 -1.33678,0.34364 -4.09136,-4.11196 -4.04792,-5.99455 -0.15466,-1.804 -0.76266,-3.356 -1.62266,-5.056 0.192,2.972 0.43488,7.52689 -1.48112,9.91489 -1.28933,1.60667 -5.03488,3.17845 -7.20688,2.19178 -0.168,-1.65733 0.47733,-3.404 0.47066,-5.088 -0.008,-1.80667 -0.364,-3.55867 -1.19466,-5.16267 -0.22934,2.712 0.32666,5.196 -1.10667,7.664 -0.67333,1.15734 -1.708,2.304 -2.856,3.00134 -0.0587,0.0373 -0.12,0.072 -0.18,0.10533 z"
     id="path3"
     style="fill:#000000;fill-opacity:1;stroke-width:1.33333"
     sodipodi:nodetypes="scccccccccsccccccccssccccccccss" /></g><g
   inkscape:groupmode="layer"
   id="g5"
   inkscape:label="Chin rounded"
   sodipodi:insensitive="true"
   style="display:none"><path
     opacity="0.2"
     d="m 310.48704,217.98649 c -0.004,3.17467 0.51867,6.33334 -0.908,9.276 -0.58666,1.21067 -1.53466,2.072 -2.64533,2.79867 -1.23867,0.81067 -2.509,1.82945 -3.95833,2.05478 -2.28,0.35333 -3.47518,0.29902 -5.78318,0.091 4.56459,0.96473 12.07245,1.48907 17.66377,0.6074 3.50674,-0.55296 5.25068,-2.81962 6.13068,-3.75803 0.65932,-0.70309 1.75411,-1.81495 1.65428,-3.77322 -0.076,-1.49074 -0.82055,-3.42328 -1.17655,-4.32595 -0.224,-0.56933 -0.42534,-1.12667 -0.74,-1.66267 -0.56534,-0.96533 -1.00134,-1.81066 -1.21734,-2.94266 -0.26666,1.26933 0.064,2.736 0.0773,4.02266 0.02,1.8 -0.0293,3.85334 -0.66534,5.564 -0.47466,1.27734 -2.55066,1.65334 -3.57466,0.79067 -1.07867,-0.908 -1.38934,-2.516 -1.544,-3.84533 0.007,0.82533 0.28266,3.94933 -1.17334,3.79733 -0.25866,-0.96933 -0.22933,-1.912 -0.67598,-3.48132 -0.44664,-1.56933 -1.00664,-3.37733 -1.46398,-5.21333 z"
     id="path4"
     style="fill:#000000;fill-opacity:1;stroke-width:1.33333"
     sodipodi:nodetypes="cccccssscccccccccc" /><path
     d="m 307.44171,232.64516 c -1.50133,0.824 -2.69733,0.14133 -4.10667,-0.268 -1.09866,-0.31867 -2.308,-0.12933 -3.432,-0.14133 -1.132,-0.012 -1.828,-0.38934 -2.89333,-0.68667 -0.89067,-0.248 -1.884,0.10133 -2.764,-0.0773 -0.73867,-0.14934 -1.21733,-0.69734 -1.85333,-1.02667 -1.05467,-0.54667 -2.264,-0.47333 -3.35467,-0.972 -0.492,-0.224 -0.96133,-0.41333 -1.48667,-0.564 -0.81066,-0.23333 -1.68666,-0.0133 -2.33466,-0.57467 -0.98934,-0.85733 -1.528,-1.50933 -2.776,-2.144 -1.288,-0.656 -2.60534,-1.288 -3.9,-1.90133 -0.76,-0.36 -1.46934,-0.75467 -1.97734,-1.44267 -1.24133,-1.68133 -2.644,-3.332 -4.356,-4.616 0.472,0.80667 0.98667,1.54934 1.59734,2.28934 0.804,0.97333 1.37733,2.18533 2.18133,3.14133 1.00267,1.19333 2.416,1.94533 3.44,3.14 1.18133,1.37733 3.40267,2.39733 4.996,3.22667 1.54267,0.80266 3.33588,0.70244 5.00655,1.17444 4.36133,1.232 8.28289,1.59324 12.81756,2.23991 5.276,0.752 10.09375,0.89422 15.39009,-1.03913 1.01343,-0.36994 3.11473,-2.34237 3.53792,-3.45636 0.72314,-1.90355 0.96482,-2.05203 1.00826,-3.93462 -0.15466,-1.804 -1.1372,-4.04264 -1.9972,-5.74264 0.192,2.972 -0.002,7.90142 -1.91807,10.28942 -1.28933,1.60667 -3.78644,3.55298 -5.95844,2.56631 -0.168,-1.65733 0.47733,-3.404 0.47066,-5.088 -0.008,-1.80667 -0.80095,-3.87078 -1.63161,-5.47478 -0.22934,2.712 0.4515,5.196 -0.98183,7.664 -0.67333,1.15734 -1.39589,2.61611 -2.54389,3.31345 -0.0587,0.0373 -0.12,0.072 -0.18,0.10533 z"
     id="path5"
     style="fill:#000000;fill-opacity:1;stroke-width:1.33333"
     sodipodi:nodetypes="scccccccccsccccccccssccccccccss" /></g><g
   inkscape:groupmode="layer"
   id="g7"
   inkscape:label="Chin shorter"><path
     opacity="0.2"
     d="m 309.45799,215.1365 c -0.004,3.17467 0.51867,6.33334 -0.908,9.276 -0.58666,1.21067 -1.53466,2.072 -2.64533,2.79867 -1.23867,0.81067 -2.509,1.82945 -3.95833,2.05478 -2.28,0.35333 -3.47518,0.29902 -5.78318,0.091 4.56459,0.96473 12.07245,1.48907 17.66377,0.6074 3.50674,-0.55296 5.25068,-2.81962 6.13068,-3.75803 0.65932,-0.70309 1.75411,-1.81495 1.65428,-3.77322 -0.076,-1.49074 -0.82055,-3.42328 -1.17655,-4.32595 -0.224,-0.56933 -0.42534,-1.12667 -0.74,-1.66267 -0.56534,-0.96533 -1.00134,-1.81066 -1.21734,-2.94266 -0.26666,1.26933 0.064,2.736 0.0773,4.02266 0.02,1.8 -0.0293,3.85334 -0.66534,5.564 -0.47466,1.27734 -2.55066,1.65334 -3.57466,0.79067 -1.07867,-0.908 -1.38934,-2.516 -1.544,-3.84533 0.007,0.82533 0.28266,3.94933 -1.17334,3.79733 -0.25866,-0.96933 -0.22933,-1.912 -0.67598,-3.48132 -0.44664,-1.56933 -1.00664,-3.37733 -1.46398,-5.21333 z"
     id="path6"
     style="fill:#000000;fill-opacity:1;stroke-width:1.33333"
     sodipodi:nodetypes="cccccssscccccccccc" /><path
     d="m 306.41266,229.79517 c -1.50133,0.824 -2.69733,0.14133 -4.10667,-0.268 -1.09866,-0.31867 -2.308,-0.12933 -3.432,-0.14133 -1.132,-0.012 -1.828,-0.38934 -2.89333,-0.68667 -0.89067,-0.248 -1.884,0.10133 -2.764,-0.0773 -0.73867,-0.14934 -1.21733,-0.69734 -1.85333,-1.02667 -1.05467,-0.54667 -2.264,-0.47333 -3.35467,-0.972 -0.492,-0.224 -0.96133,-0.41333 -1.48667,-0.564 -0.81066,-0.23333 -1.68666,-0.0133 -2.33466,-0.57467 -0.98934,-0.85733 -1.528,-1.50933 -2.776,-2.144 -1.288,-0.656 -2.60534,-1.288 -3.9,-1.90133 -0.76,-0.36 -1.46934,-0.75467 -1.97734,-1.44267 -1.24133,-1.68133 -2.644,-3.332 -4.356,-4.616 0.472,0.80667 0.98667,1.54934 1.59734,2.28934 0.804,0.97333 1.37733,2.18533 2.18133,3.14133 1.00267,1.19333 2.416,1.94533 3.44,3.14 1.18133,1.37733 3.40267,2.39733 4.996,3.22667 1.54267,0.80266 3.33588,0.70244 5.00655,1.17444 4.36133,1.232 8.28289,1.59324 12.81756,2.23991 5.276,0.752 10.09375,0.89422 15.39009,-1.03913 1.01343,-0.36994 3.11473,-2.34237 3.53792,-3.45636 0.72314,-1.90355 0.96482,-2.05203 1.00826,-3.93462 -0.15466,-1.804 -1.1372,-4.04264 -1.9972,-5.74264 0.192,2.972 -0.002,7.90142 -1.91807,10.28942 -1.28933,1.60667 -3.78644,3.55298 -5.95844,2.56631 -0.168,-1.65733 0.47733,-3.404 0.47066,-5.088 -0.008,-1.80667 -0.80095,-3.87078 -1.63161,-5.47478 -0.22934,2.712 0.4515,5.196 -0.98183,7.664 -0.67333,1.15734 -1.39589,2.61611 -2.54389,3.31345 -0.0587,0.0373 -0.12,0.072 -0.18,0.10533 z"
     id="path7"
     style="fill:#000000;fill-opacity:1;stroke-width:1.33333"
     sodipodi:nodetypes="scccccccccsccccccccssccccccccss" /></g></svg>
