<?xml version="1.0" encoding="UTF-8" standalone="no"?>
<svg
   width="100%"
   height="100%"
   viewBox="0 0 400 400"
   version="1.1"
   xml:space="preserve"
   style="fill-rule:evenodd;clip-rule:evenodd;stroke-linejoin:round;stroke-miterlimit:2;"
   id="svg30"
   sodipodi:docname="Cetacean.svg"
   inkscape:version="1.3.2 (091e20e, 2023-11-25)"
   xmlns:inkscape="http://www.inkscape.org/namespaces/inkscape"
   xmlns:sodipodi="http://sodipodi.sourceforge.net/DTD/sodipodi-0.dtd"
   xmlns="http://www.w3.org/2000/svg"
   xmlns:svg="http://www.w3.org/2000/svg"><defs
   id="defs30">
        
    
            
            
            
            
            
            
            
            
            
            
            
            
            
            
            
            
            
            
            
            
            
        
                
            
                
            
                
            
                
            
                
            
                
            
                
            
                
            
                
            
                
            
                
            
                
            
                
            
                
            
                
            
                
            
                
            
                
            
                
            
                
            
                
            
                    
                
                    
                
                    
                
                    
                
                    
                
                    
                
                    
                
                    
                </defs><sodipodi:namedview
   id="namedview30"
   pagecolor="#ffffff"
   bordercolor="#666666"
   borderopacity="1.0"
   inkscape:showpageshadow="2"
   inkscape:pageopacity="0.0"
   inkscape:pagecheckerboard="0"
   inkscape:deskcolor="#d1d1d1"
   inkscape:zoom="1.905"
   inkscape:cx="202.09974"
   inkscape:cy="223.09711"
   inkscape:window-width="1960"
   inkscape:window-height="975"
   inkscape:window-x="2411"
   inkscape:window-y="292"
   inkscape:window-maximized="0"
   inkscape:current-layer="layer1"
   inkscape:lockguides="true" />
    
<g
   inkscape:groupmode="layer"
   id="layer1"
   inkscape:label="Cetacean Head"
   style="display:inline"><path
     id="path1"
     style="clip-rule:evenodd;display:inline;fill:#e8ebed;fill-rule:nonzero;stroke-width:1.33333;stroke-linejoin:round;stroke-miterlimit:2"
     d="m 255.80664,47.794922 c -8.82631,-0.163666 -18.08224,0.126501 -27.63086,0.5625 -38.19583,1.745325 -75.72165,29.082695 -95.82422,47.113281 -20.10258,18.029247 -46.906295,98.873327 -69.019529,129.117187 -3.815763,5.21875 -7.410274,14.01526 -10.77539,24.74219 22.941142,8.95438 53.122349,20.20898 73.406249,25.37695 39.6063,10.09096 78.43438,18.24062 119.26367,20.09961 31.28601,1.42447 63.5531,-3.05658 94.47266,-8.03906 4.50368,-0.72574 10.86319,-2.70009 17.54492,-5.05469 0.3602,-8.36609 0.73522,-17.21401 1.04102,-23.93555 1.45382,-1.93164 3.59783,-5.15487 5.34765,-8.6914 1.29854,-1.38812 2.36405,-2.59503 2.80078,-3.28125 2.04933,-3.22132 1.46338,-10.24803 -0.58593,-14.05469 -1.30533,-2.42399 2.08414,-12.29206 0.66015,-23.27734 -0.812,-6.26399 -6.67623,-15.40189 -7.10156,-17.42188 -0.49691,-2.36117 -2.10694,-3.8716 -4.30469,-4.83594 -0.18774,-0.1587 -0.36118,-0.33643 -0.56054,-0.47851 -2.89999,-19.69858 -5.99593,-41.3512 -6.41993,-47.22852 C 347.45043,129.20252 340.0811,92.562805 319.97852,69.878906 304.90158,52.866983 282.28558,48.285919 255.80664,47.794922 Z" /><path
     id="path2"
     style="clip-rule:evenodd;display:inline;fill:#000000;fill-opacity:1;fill-rule:nonzero;stroke-width:1.33333;stroke-linejoin:round;stroke-miterlimit:2"
     d="m 256.59766,45.550781 c -8.94224,-0.164707 -18.31986,0.129028 -27.99414,0.56836 -38.69581,1.757323 -76.71549,29.278406 -97.08204,47.43164 -20.36656,18.151889 -47.521279,99.549499 -69.923824,129.999999 -3.876447,5.26872 -7.574923,14.14931 -11.066406,24.98242 2.137151,0.8376 3.743096,1.48718 6.027344,2.3711 3.390964,-10.64644 6.983599,-19.3707 10.748047,-24.53907 21.770546,-29.88783 48.159279,-109.77847 67.951169,-127.595699 19.79055,-17.817235 56.73349,-44.83265 94.33594,-46.55664 37.60246,-1.723992 70.58897,-1.1483 90.38086,21.267578 19.79055,22.415875 27.04642,58.624371 27.70508,67.820311 0.31991,4.45729 5.25401,37.52881 -4.43946,41.92383 -7.38309,0.83347 -15.16917,3.83615 -20.26562,4.89844 -16.55992,3.45197 -54.83811,29.28125 -87.41797,29.28125 -39.23449,0 -67.5423,27.105 -65.29297,25.76367 15.22528,-9.07596 26.35238,-16.10387 39.82031,-19.61719 13.46795,-3.51333 20.13528,-1.46324 43.22852,-4.97656 23.09323,-3.51333 49.38385,-18.73948 72.42773,-27.52344 23.04391,-8.78396 29.08388,-2.74933 31.03321,0 13.90659,19.61724 6.14757,38.6494 8.49023,46.55469 2.30889,7.79134 -6.40059,16.35591 -6.65429,16.60351 -0.13788,0.13628 -0.26937,0.26957 -0.40821,0.40625 -0.26253,7.86973 -0.71076,18.12363 -1.08594,27.14454 0.83007,-0.29203 1.65944,-0.58859 2.49805,-0.89258 0.31278,-7.4802 0.65327,-15.33292 0.9082,-22.11914 0.26722,-1.34252 0.67001,-2.79439 1.4043,-3.84961 3.49332,-5.02266 8.42357,-13.65576 6.26758,-19.92774 -3.22133,-9.36929 6.44037,-20.34996 -7.90625,-45.08984 -0.91016,-1.56954 -2.0001,-2.80969 -3.2207,-3.78906 -6e-5,-3.9e-4 -0.002,-0.0176 -0.002,-0.0176 0,0 -3.45837,-3.66222 -3.5957,-6.93555 C 352.68209,160.54411 350.501,142.0674 350.125,136.88477 349.44633,127.51546 341.97788,90.623697 321.61133,67.785156 306.33644,50.65727 283.42438,46.044904 256.59766,45.550781 Z m 89.68359,162.189449 c -27.86387,0 -64.17143,32.50108 -88.47266,35.42774 -24.30255,2.92799 -59.43773,14.05493 -67.92968,18.74023 -8.49065,4.68399 -17.85938,2.63477 -17.85938,2.63477 6.14932,2.34266 12.29807,1.16897 21.08203,-2.92969 8.78396,-4.09864 57.67943,-14.93188 64.41406,-15.81055 6.73465,-0.87864 24.00901,-6.14963 32.79297,-11.12695 8.78396,-4.97731 37.77033,-22.25159 58.85157,-22.54492 8.27996,-0.11467 14.93164,29.57422 14.93164,29.57422 0.87867,-9.07729 -2.2173,-33.96485 -17.81055,-33.96485 z" /><path
     id="path4"
     style="clip-rule:evenodd;display:inline;opacity:0.2;fill:#000000;fill-opacity:1;fill-rule:nonzero;stroke-width:1.33333;stroke-linejoin:round;stroke-miterlimit:2"
     d="m 187.49609,60.017578 c -11.11776,-0.447266 -21.79079,10.068663 -30.70117,16.199219 -8.54929,5.879973 -16.7194,12.325937 -24.44336,19.253906 -20.10258,18.029257 -46.906295,98.873327 -69.019529,129.117187 -3.81048,5.21153 -7.447046,13.99291 -10.880859,24.69922 22.951443,8.96036 53.193768,20.24328 73.511718,25.41992 39.6063,10.09096 78.43438,18.24062 119.26367,20.09961 3.38721,0.15422 6.79003,0.21176 10.19727,0.23438 8.71054,-3.31002 18.31415,-5.57056 25.25976,-12.73438 5.80932,-5.99197 9.42456,-13.75757 14.64453,-20.26953 11.38661,-14.20928 29.24499,-21.2665 46.26758,-27.73047 -11.83862,1.04 -23.53174,3.68748 -34.67968,7.80078 -10.60262,3.91333 -19.22787,10.61214 -29.14649,15.32813 -18.46258,8.77595 -47.93621,9.25088 -65.32812,-1.78907 1.95197,1.24 13.94392,-3.79652 16.41992,-4.50586 5.70663,-1.63597 11.80171,-4.41501 17.65234,-5.29101 12.87595,-1.92933 26.47851,-4.81298 38.45313,-10.87695 6.25863,-3.16932 11.45899,-7.00711 18.04297,-9.3711 8.40663,-3.01997 16.63167,-6.75634 24.79296,-10.375 5.44532,-2.41466 11.30562,-4.95203 17.15625,-3.83203 10.44795,2 15.17128,13.97641 18.08594,24.20703 0.82399,-1.27333 1.38714,-2.62939 1.75781,-4.02539 1.30266,-4.90263 -2.14361,-14.28612 -5.32226,-17.88476 -6.16532,-6.97864 -12.82442,-11.79274 -22.48438,-10.83008 -9.05596,0.90267 -16.57988,5.46884 -24.33984,9.77148 -17.00525,9.43062 -34.88424,17.43326 -53.66016,22.58789 -1.24799,0 -2.85884,0.76994 -4.07617,1.08594 -1.44133,0.37333 -2.8867,0.73713 -4.33203,1.0918 -2.81066,0.69066 -5.62656,1.34961 -8.44922,1.98828 -8.06662,1.82533 -16.16827,3.48906 -24.24023,5.28906 -5.22398,1.16399 -10.37645,2.61998 -15.59375,3.80664 -4.92532,1.12133 -10.18975,2.44697 -15.26172,1.68164 -0.50133,-0.076 -1.06061,-0.21492 -1.30859,-0.65625 -0.16663,-0.296 -0.14919,-0.65547 -0.11719,-0.99414 0.50533,-5.28797 3.35134,-10.15684 7.11133,-13.91015 3.76131,-3.75332 8.39762,-6.5025 13.12695,-8.92383 2.65466,-1.35999 5.3614,-2.63164 8.16406,-3.6543 9.85595,-3.59599 21.07818,-2.23361 31.35547,-3.84961 15.35192,-2.41332 30.31566,-7.30699 44.09961,-14.48828 0,0 10.05697,-2.97283 24.99023,-10.43945 14.93194,-7.46665 35.13477,-8.34571 35.13477,-8.34571 l 1.19922,-18.01367 c -0.0783,0.57933 -0.19485,1.15347 -0.35352,1.7168 -0.43333,1.53466 -1.14027,2.97815 -2.07226,4.27148 -2.872,3.98666 -7.61576,6.60697 -11.56641,9.34961 -5.31464,3.68932 -12.15635,6.90852 -18.45898,8.36719 -3.584,0.82933 -7.03308,2.11492 -10.51172,3.29492 -9.35595,3.17329 -21.73939,4.36708 -31.52735,3.23242 -1.48931,-0.172 -3.02206,-0.42537 -4.27539,-1.24804 -4.9493,-3.24666 -4.18394,-12.65439 0.33203,-15.81836 1.49467,-1.04667 2.65813,-2.58939 4.07813,-3.74805 -0.95333,0.77733 -7.56723,0.12305 -9.19922,0.40039 -11.42529,1.94533 -22.03069,8.27834 -32.44531,13.07031 -11.27462,5.18799 -22.57491,10.32795 -33.99219,15.19727 -1.11866,0.476 -2.29848,0.9658 -3.50781,0.8418 -8.45329,-0.85999 -4.42655,-23.31517 -3.67188,-28.11914 4.13065,-26.30523 3.51109,-65.32519 26.68164,-83.25977 5.50132,-4.258648 11.93239,-7.036054 18.34571,-9.609375 3.17064,-1.270662 6.36329,-2.49123 9.50195,-3.837891 1.948,-0.834663 6.30727,-4.144344 8.44727,-3.291015 -20.21858,-8.077297 -41.95422,-4.526357 -61.35547,-15.431641 -2.59699,-1.459493 -5.18632,-2.146784 -7.75196,-2.25 z M 365.14648,235.4668 c -0.12534,-0.005 -0.22803,0.0973 -0.30273,0.19726 -0.57066,0.764 -0.69847,1.81619 -1.36914,2.49219 -0.464,0.468 -1.11872,0.68414 -1.74805,0.88281 -0.98,0.312 -2.00681,0.62646 -3.02148,0.45313 -0.536,-0.092 -1.13052,-0.37074 -1.47852,-0.80274 -0.19733,-0.244 -0.37248,-1.37211 -0.42578,-1.41211 -0.69333,-0.508 -0.87023,0.50878 -0.99023,1.16211 -0.30933,1.69466 0.27328,3.10306 0.61328,4.70703 0.67733,3.19466 1.217,6.40588 1.625,9.64454 0.0347,0.28 0.0683,0.55984 0.10156,0.83984 0.0813,0.68666 0.72402,3.32906 0.33203,3.78906 1.31199,-1.53599 3.4402,-3.39067 4.26953,-5.22265 0.73867,-1.632 1.34716,-3.45888 2.39649,-4.90821 2.05333,-2.83864 2.64776,-4.84926 1.89844,-8.41992 -0.264,-1.25733 -0.63876,-2.63481 -1.71876,-3.32812 -0.056,-0.036 -0.11494,-0.0702 -0.18164,-0.0742 z" /><path
     id="path10"
     style="clip-rule:evenodd;display:inline;fill:#ffffff;fill-rule:nonzero;stroke-width:1.33333;stroke-linejoin:round;stroke-miterlimit:2"
     d="m 157.25195,218.9082 c -3.45194,0.45629 -6.89932,0.14024 -10.39453,0.75196 -2.99892,0.52448 -5.95046,1.3425 -8.79687,2.43554 -1.80005,2.99579 -2.8464,7.3351 -1.55078,10.56055 0.41142,1.02472 1.03308,1.99201 1.78711,2.85742 1.17206,0.47888 2.36652,0.88589 3.63671,1.03711 2.98933,0.35599 5.86961,-0.40298 8.79493,-0.95898 0.58796,-0.11122 1.18035,-0.22402 1.75976,-0.375 3.40421,-3.65141 7.95725,-11.30566 4.76367,-16.3086 z" /><path
     id="path9"
     style="clip-rule:evenodd;display:inline;fill:#000000;fill-opacity:1;fill-rule:nonzero;stroke-width:1.33333;stroke-linejoin:round;stroke-miterlimit:2"
     d="m 156.60352,217.2832 c -0.12809,0.002 -0.25833,0.007 -0.39258,0.0176 -2.55599,0.19333 -5.07705,0.38182 -7.59571,0.89649 -5.06129,1.03197 -9.94077,2.95312 -14.33007,5.67578 -0.51866,0.32134 -1.10324,0.85379 -0.89258,1.42578 0.64144,-0.302 1.29055,-0.61247 1.94922,-0.92578 -1.19009,2.67723 -1.63334,5.80698 -0.50391,8.2832 0.29682,0.65057 0.69241,1.27763 1.1582,1.87109 0.76523,0.32739 1.52786,0.6693 2.29883,0.98438 -0.75321,-0.86488 -1.37406,-1.83157 -1.78515,-2.85547 -1.1151,-2.77602 -0.4942,-6.37484 0.84765,-9.23437 4.06976,-1.88895 8.39296,-3.6578 12.71875,-4 1.67866,-0.132 3.36422,-0.0883 5.04688,-0.12696 0.86747,-0.0198 1.68132,0.0965 2.48633,0.25977 1.37046,2.79409 0.62411,6.26871 -0.86915,9.40039 -0.52689,0.66037 -1.00292,1.82438 -1.41601,2.54297 -0.003,0.005 -0.005,0.009 -0.008,0.0137 -0.0558,0.0881 -0.11153,0.17682 -0.16797,0.26367 -0.0195,0.028 -0.0395,0.0589 -0.0586,0.084 -0.62667,0.81865 -1.36162,1.57821 -2.26562,2.07421 -0.89733,0.492 -1.91726,0.70483 -2.91992,0.91016 -3.62799,0.74133 -7.50266,1.46568 -10.94532,0.0977 -0.2192,0.16862 -0.34281,0.41229 -0.38476,0.67968 -0.0642,0.4092 0.0631,0.87229 0.33398,1.19727 0.44934,0.53733 1.15585,0.77511 1.83985,0.92578 2.90265,0.63866 5.94426,0.12845 8.79492,-0.71289 1.24267,-0.36666 2.49058,-0.80858 3.50391,-1.61523 0.81332,-0.64667 1.43804,-1.50035 1.99804,-2.375 0.0317,-0.0495 0.064,-0.10049 0.0957,-0.1504 3.04071,-3.69766 5.78494,-9.0041 3.82227,-13.02929 0.53579,0.12876 1.07613,0.25661 1.63672,0.36523 0.27067,0.0533 0.68062,-0.0157 0.64062,-0.28906 -0.012,-0.08 -0.0651,-0.1457 -0.11718,-0.20703 -1.34375,-1.58124 -2.59822,-2.47566 -4.51953,-2.44727 z" /><path
     id="path11"
     style="clip-rule:evenodd;display:inline;fill-rule:nonzero;stroke-width:1.33333;stroke-linejoin:round;stroke-miterlimit:2;fill:#000000;fill-opacity:1"
     d="m 154.48633,219.13867 c -2.53127,0.12024 -5.06705,0.0731 -7.62891,0.52149 -1.86642,0.32642 -3.71545,0.76571 -5.53125,1.31445 -0.91376,1.13362 -1.44531,2.48242 -1.44531,3.93164 0,4.01333 4.06605,7.26563 9.08203,7.26563 5.01599,-10e-6 9.08399,-3.2523 9.08399,-7.26563 0,-2.35075 -1.39657,-4.43938 -3.56055,-5.76758 z" /><path
     d="m 144.85964,225.05277 c 0,1.79733 -1.308,3.25332 -2.92133,3.25332 -1.61466,0 -2.92399,-1.45599 -2.92399,-3.25332 0,-1.79866 1.30933,-3.25333 2.92399,-3.25333 1.61333,0 2.92133,1.45467 2.92133,3.25333"
     style="clip-rule:evenodd;display:inline;fill:#ffffff;fill-rule:nonzero;stroke-width:1.33333;stroke-linejoin:round;stroke-miterlimit:2"
     id="path12" /><path
     d="m 182.26221,263.06335 c -4.17066,0.13733 -8.33465,-0.092 -12.47197,-0.54934 -0.74933,-0.0827 -1.59999,-0.13466 -2.15866,0.37067 -1.016,0.916 -4.19466,6.51332 -0.94533,6.60532 2.13866,0.0453 2.29599,-1.592 3.94799,-2.18 3.47332,-1.23866 6.77465,-1.85733 10.44531,-2.17999 3.02399,-0.26533 6.00131,-1.04933 8.76397,-2.308 0.41467,-0.18933 0.86934,-0.44133 0.976,-0.88399 -2.81599,0.63733 -5.65065,1.12533 -8.55731,1.12533"
     style="clip-rule:evenodd;display:inline;opacity:0.2;fill:#000000;fill-opacity:1;fill-rule:nonzero;stroke-width:1.33333;stroke-linejoin:round;stroke-miterlimit:2"
     id="path25" /><path
     id="path7"
     style="clip-rule:evenodd;display:inline;opacity:0.2;fill-rule:nonzero;stroke-width:1.33333;stroke-linejoin:round;stroke-miterlimit:2"
     d="m 154.56641,210.5625 c -0.396,-0.004 -0.79089,0.004 -1.18555,0.0195 -1.668,0.072 -3.32417,0.33515 -4.9375,0.75781 -1.61867,0.42534 -3.19433,1.01066 -4.70898,1.72266 -1.53333,0.72 -3.00483,1.56834 -4.41016,2.51367 -1.41466,0.95066 -2.76175,2.00224 -4.03906,3.12891 -0.32,0.28133 -0.63402,0.56676 -0.94336,0.85742 -0.27999,0.26134 -0.65119,0.52784 -0.86719,0.83984 -0.224,0.324 -0.4025,0.66869 -0.5625,1.02735 -0.14533,0.32267 -0.32089,0.62022 -0.43555,0.96289 -0.36134,1.08 -0.59506,2.1995 -0.76172,3.32617 -0.0627,0.42133 -0.0365,0.84163 -0.01,1.26563 0.0187,0.29064 0.0711,0.57856 0.12304,0.86523 0.10133,0.55866 0.20621,1.12391 0.43555,1.64258 0.16266,0.368 0.38353,0.70501 0.60352,1.04101 -0.21066,-0.56266 -0.41163,-1.13261 -0.51563,-1.72461 -0.1027,-0.59333 -0.10339,-1.21254 0.0859,-1.7832 0.096,-0.29334 0.23925,-0.56794 0.39258,-0.83594 0.23867,-0.42133 0.49896,-0.82648 0.76562,-1.23047 0.25867,-0.39067 0.53797,-0.65893 0.91797,-0.93359 0.752,-0.544 1.50603,-1.0865 2.30469,-1.5625 0.37067,-0.22133 0.74611,-0.45636 1.16211,-0.56836 0.20533,-0.056 0.39927,-0.19554 0.58594,-0.29687 0.20533,-0.11067 0.41248,-0.22208 0.61914,-0.33008 0.82133,-0.42533 1.67712,-0.80775 2.59179,-0.98242 1.76932,-0.33599 3.55756,-0.0225 5.32422,-0.0918 0.62,-0.024 1.22299,-0.18828 1.82032,-0.34961 0.17465,-0.048 0.35073,-0.0959 0.52539,-0.14258 1.65865,-0.45067 3.34421,-0.85065 4.9082,-1.58398 0.97333,-0.45466 2.18587,-0.28602 3.22851,-0.29102 0.21067,-0.001 0.44461,-0.0133 0.58594,-0.16797 -0.31067,-0.14 -0.62097,-0.28187 -0.93164,-0.42187 -0.972,-0.44 -1.93059,-0.64203 -3.0039,-0.61133 -1.256,0.0373 -2.50582,0.23361 -3.75782,0.32031 -2.09999,0.1747 -4.24589,0.29889 -6.33789,-0.0371 0.676,-0.43467 1.41864,-0.77369 2.16797,-1.06836 3.06666,-1.20933 6.1339,-2.41957 9.19922,-3.6289 0.19467,-0.076 0.39872,-0.16013 0.52539,-0.32813 0.24666,-0.32667 0.0601,-0.8345 -0.28125,-1.0625 -0.33999,-0.22933 -0.77426,-0.25281 -1.18359,-0.25781 z m 4.67382,9.15234 c -0.20131,0.0116 -0.3981,0.14183 -0.41211,0.33985 -0.10131,1.42533 0.12188,2.86493 0.0313,4.32226 -0.0737,1.1763 -0.24078,2.34695 -0.4961,3.48828 -0.84785,1.82657 -2.02156,3.57486 -3.25,5.06446 -0.0227,0.036 -0.0457,0.0734 -0.0684,0.10937 -0.40133,0.62667 -0.83761,1.23744 -1.34961,1.77344 0.14,-0.0573 0.28454,-0.10658 0.42188,-0.17188 1.06266,-0.50799 2.02054,-1.34193 2.42187,-2.44726 -0.1,0.37467 -0.22475,0.74253 -0.33008,1.11719 0.18875,-0.3075 0.367,-0.62132 0.53516,-0.94336 -1.71483,3.29104 -4.49409,5.86459 -8.52539,6.78125 -1.85332,0.42133 -4.02614,0.59508 -6.2168,0.45508 -3.55464,-0.22667 -7.16404,-1.2776 -9.55468,-3.4336 -0.18267,-0.164 0.50888,3.18888 0.57421,3.43555 0.45866,1.70933 1.07429,2.93775 2.73829,3.81641 3.5813,1.88931 8.41759,1.60745 11.79492,-0.56055 -1.128,0.724 -1.88839,2.08164 -3.12305,2.82031 -1.28,0.76666 -2.73147,1.29046 -4.2168,1.45313 7.23465,-0.79467 13.35588,-2.96495 16.67188,-10.04493 2.07866,-4.43597 3.05229,-9.69396 3.26562,-14.58593 0.032,-0.73067 0.0505,-1.48797 -0.21875,-2.16797 -0.0987,-0.24666 -0.25075,-0.49447 -0.49609,-0.5918 -0.0617,-0.024 -0.13016,-0.0332 -0.19727,-0.0293 z m -0.88085,8.17188 c -0.034,0.15125 -0.0701,0.30107 -0.10743,0.45117 0.0373,-0.14979 0.0734,-0.30019 0.10743,-0.45117 z m -0.28321,1.10937 c -0.057,0.20024 -0.11853,0.39816 -0.18164,0.59571 0.0631,-0.19689 0.12462,-0.3961 0.18164,-0.59571 z m -0.35547,1.11133 c -0.0704,0.20027 -0.14375,0.39888 -0.2207,0.5957 0.0773,-0.19689 0.15003,-0.39533 0.2207,-0.5957 z m -0.40625,1.05078 c -0.12022,0.284 -0.24824,0.56271 -0.38281,0.83789 0.13453,-0.2744 0.26253,-0.55476 0.38281,-0.83789 z" /></g><g
   inkscape:groupmode="layer"
   id="g39"
   inkscape:label="Cetacean neck"
   style="display:inline"><path
     id="path30"
     style="clip-rule:evenodd;display:inline;fill:#e8ebed;fill-rule:nonzero;stroke-width:1.33333;stroke-linejoin:round;stroke-miterlimit:2"
     d="M 54.314453 244.02148 C 37.185246 293.54806 25.945312 400.01367 25.945312 400.01367 L 355.9082 400.01367 C 353.18121 382.25012 355.5986 319.06201 357.50977 275.61914 C 350.73051 278.01619 344.26236 280.03226 339.69922 280.76758 C 308.77966 285.75006 276.51257 290.23111 245.22656 288.80664 C 204.39727 286.94765 165.56919 278.79799 125.96289 268.70703 C 106.24378 263.68296 77.055429 252.86494 54.314453 244.02148 z " /><path
     id="path31"
     style="clip-rule:evenodd;display:inline;fill:#000000;fill-opacity:1;fill-rule:nonzero;stroke-width:1.33333;stroke-linejoin:round;stroke-miterlimit:2"
     d="M 52.330078 243.24023 C 34.685129 293.12696 22.220703 400.01367 22.220703 400.01367 L 29.042969 400.01367 C 29.042969 400.01367 41.173835 294.61453 58.339844 245.60352 C 56.025487 244.71162 54.508178 244.09079 52.330078 243.24023 z M 359.86328 274.77734 C 359.02217 275.08308 358.19246 275.37787 357.35938 275.67188 C 355.46033 322.50633 352.44085 381.16033 354.9375 400.01367 L 357.5918 400.01367 C 355.05259 381.03159 357.92101 321.96531 359.86328 274.77734 z " /><path
     id="path32"
     style="clip-rule:evenodd;display:inline;opacity:0.2;fill:#000000;fill-opacity:1;fill-rule:nonzero;stroke-width:1.33333;stroke-linejoin:round;stroke-miterlimit:2"
     d="M 54.238281 243.99023 C 36.793057 293.50382 24.466797 400.01367 24.466797 400.01367 L 203.34961 400.01367 C 207.07226 397.26701 213.10111 351.24232 216.25977 342.90234 C 221.88507 328.05709 230.65802 314.5806 241.69531 303.19531 C 249.42981 295.21807 261.50544 293.85022 271.70703 288.69727 C 262.83804 289.10666 253.99278 289.20577 245.22656 288.80664 C 204.39727 286.94765 165.56919 278.79799 125.96289 268.70703 C 106.21916 263.67669 76.989115 252.83897 54.238281 243.99023 z " /></g></svg>
