<?xml version="1.0" encoding="UTF-8" standalone="no"?>
<!-- Created with Inkscape (http://www.inkscape.org/) -->

<svg
   version="1.1"
   id="svg1242"
   width="400"
   height="400"
   viewBox="0 0 400 400"
   sodipodi:docname="FerengiCheekAppliances.svg"
   inkscape:version="1.2.2 (b0a8486, 2022-12-01)"
   xmlns:inkscape="http://www.inkscape.org/namespaces/inkscape"
   xmlns:sodipodi="http://sodipodi.sourceforge.net/DTD/sodipodi-0.dtd"
   xmlns="http://www.w3.org/2000/svg"
   xmlns:svg="http://www.w3.org/2000/svg">
  <defs
     id="defs1246" />
  <sodipodi:namedview
     id="namedview1244"
     pagecolor="#ffffff"
     bordercolor="#666666"
     borderopacity="1.0"
     inkscape:showpageshadow="2"
     inkscape:pageopacity="0.0"
     inkscape:pagecheckerboard="0"
     inkscape:deskcolor="#d1d1d1"
     showgrid="false"
     inkscape:zoom="1.475"
     inkscape:cx="196.94915"
     inkscape:cy="200"
     inkscape:window-width="1920"
     inkscape:window-height="1080"
     inkscape:window-x="2280"
     inkscape:window-y="111"
     inkscape:window-maximized="0"
     inkscape:current-layer="g1250">
    <inkscape:page
       x="0"
       y="0"
       id="page1248"
       width="400"
       height="400" />
  </sodipodi:namedview>
  <g
     id="g1250"
     inkscape:groupmode="layer"
     inkscape:label="Page 1"
     style="display:inline">
    <path
       d="m 284.35599,158.80667 c -9.36666,-1.42533 -33.828,-6.97466 -34.87466,-15.69333 -1.04667,-8.71867 1.04666,-18.83333 -10.11334,-13.25333 -11.16,5.58 -18.484,27.9 12.55467,37.316 31.03867,9.41733 48.476,-5.928 32.43333,-8.36934"
       style="fill:#cd976d;fill-opacity:1;fill-rule:nonzero;stroke:none;stroke-width:1.33333"
       id="path32254" />
    <path
       d="m 236.67799,147.07467 c -1.14266,1.54934 -1.82666,3.456 -1.832,5.66534 -0.856,-0.65867 -0.89066,-3.24 -0.84,-4.19467 0.13734,-2.63333 0.86134,-6.35467 2.90934,-8.15733 2.03333,-1.788 5.15733,-3.06267 7.83333,-3.40267 -2.116,-0.04 -4.46533,-0.0827 -6.45067,0.75733 -1.35066,0.572 -4.99733,1.944 -5.348,3.5 0.812,-3.60133 2.288,-7.35333 5.11067,-9.852 0.57333,-0.508 1.61867,-0.90533 1.82,-1.676 -3.008,0.8 -5.74933,3.98934 -7.34267,6.54 -3.02533,4.844 -3.69066,10.908 -1.30666,16.15734 3.66666,8.072 12.67333,12.332 20.69066,14.764 0.31067,0.0947 0.62134,0.18666 0.932,0.27733 8.19734,2.37733 17.05067,3.58133 25.53467,2.172 2.16133,-0.35867 6.50933,-0.86933 8.036,-2.60933 1.65067,-1.88267 -0.70133,-0.708 -1.90667,-0.24267 -2.19333,0.84533 -3.85066,0.85867 -6.51866,0.53333 -0.55067,-0.068 -2.864,-0.0973 -6.284,-1.68266 0.536,0.85333 1.47066,1.65466 2.46133,1.82133 -2.34,-0.02 -4.88133,0.11867 -7.112,-0.69867 -1.992,-0.73066 -4.10533,-1.86 -5.87333,-3.052 0.38533,0.93067 1.20133,2.72667 2.33066,2.828 -4.33333,0.0587 -10.33866,-1.17866 -13.176,-4.69733 -1.04,-1.29067 -1.696,-3.348 -1.556,-5.00533 0.0987,-1.14667 1.008,-4.03867 2.17334,-4.54534 -1.844,0.80134 -3.16534,2.94267 -3.38134,4.9 -0.212,1.90267 1.312,3.72534 1.14667,5.47334 -2.308,-0.95734 -4.23733,-2.50267 -5.212,-4.85467 -0.852,-2.05867 -1.268,-4.70933 -0.0147,-6.68667 1.20267,-1.89866 3.28534,-2.51733 5.08267,-3.65066 -1.85067,0.116 -4.87733,1.25733 -5.84933,2.948 -0.69867,1.216 -0.93734,3.01866 -1.01334,4.47066 -0.0747,1.42534 0.72534,3.57734 0.40134,4.74267 -2.708,-0.61467 -4.808,-5.22 -4.56934,-7.70267 0.21867,-2.28133 1.168,-4.53733 3.02934,-5.932 1.83866,-1.37866 4.3,-3.608 6.77733,-3.47733 -4.21733,-0.22267 -8.38,1.448 -10.68267,4.56933"
       style="opacity:0.199997;fill:#000000;fill-opacity:1;fill-rule:nonzero;stroke:none;stroke-width:1.33333"
       id="path32264" />
    <path
       d="m 349.56959,157.46374 c 0.38667,2.31467 -0.57733,15.32 -7.67867,18.52 -2.41333,1.088 -6.81733,-5.67733 -7.90666,-6.136 -1.09067,-0.45733 -3.27333,-6.92267 1.21333,-6.93867 1.90267,-0.007 3.204,-1.40933 4.38133,-2.82666 1.188,-1.43067 2.276,-3.06534 2.69867,-5.124 0.44133,-2.15067 0.0827,-4.46934 -0.14267,-6.748 -0.064,-0.64667 -0.33066,-1.80934 -0.11733,-2.352 0.72533,-1.84534 3.56267,3.21333 3.972,3.86266 1.44133,2.29334 3.124,5.00934 3.58,7.74267"
       style="fill:#cd976d;fill-opacity:1;fill-rule:nonzero;stroke:none;stroke-width:1.33333"
       id="path32274" />
    <path
       d="m 349.56959,157.46374 c 0.38667,2.31467 -0.57733,15.32 -7.67867,18.52 -2.41333,1.08667 -6.81466,-5.67333 -7.90666,-6.13467 -0.684,-0.28933 -1.132,-1.568 -0.94267,-2.19066 2.564,2.52266 4.87867,-0.97734 6.112,-2.90134 -0.0173,2.16134 -1.1,3.54 -2.40933,4.588 1.45066,-0.19733 2.848,-0.496 3.83866,-1.828 0.95334,-1.28 0.98267,-3.09733 1.41067,-4.65066 0.64,1.16666 0.15467,4.13066 -0.33733,5.336 -0.57867,1.41733 -1.83467,2.42666 -2.38,3.73466 2.60133,-1.27333 4.29733,-3.19866 4.96533,-6.444 0.58133,-2.82933 0.64533,-4.436 0.32,-8.28133 1.36933,4.084 0.91733,8.09467 -1.54533,15.08667 2.98666,-2.86534 4.88933,-6.91467 5.22266,-11.528 0.23467,-3.228 -1.31733,-6.49867 -1.29333,-9.692 1.62,0.35066 2.37333,4.88666 2.624,6.38533"
       style="opacity:0.199997;fill:#000000;fill-opacity:1;fill-rule:nonzero;stroke:none;stroke-width:1.33333"
       id="path32284" />
    <path
       d="m 347.29892,157.78014 c 1.24267,5.50533 1.21734,10.792 -2.164,14.41067 -1.224,1.31066 -2.43466,3.04 -3.81333,4.12133 4.988,-0.84133 7.78,-6.61333 8.79467,-11.93333 0.84133,-4.412 0.14266,-10.104 -2.68,-14.14934 -1.38534,-1.98666 -3.324,-3.636 -4.872,-5.45333 0.53066,2.15867 1.564,3.94533 2.46666,5.88133 1.05734,2.27067 1.73334,4.75467 2.268,7.12267"
       style="fill:#000000;fill-opacity:1;fill-rule:nonzero;stroke:none;stroke-width:1.33333"
       id="path32294" />
    <path
       d="m 238.19039,141.15134 c 0,0 3.4,-4.316 9.15467,-3.13867 0,0 -6.8,0.784 -9.15467,3.13867"
       style="opacity:0.199997;fill:#000000;fill-opacity:1;fill-rule:nonzero;stroke:none;stroke-width:1.33333"
       id="path32304" />
    <path
       d="m 235.75479,137.00414 c 0,0 1.32,-5.33333 7.048,-6.632 0,0 -5.87333,3.51733 -7.048,6.632"
       style="opacity:0.199997;fill:#000000;fill-opacity:1;fill-rule:nonzero;stroke:none;stroke-width:1.33333"
       id="path32320" />
    <path
       d="m 241.04186,146.82374 c 0,0 3.41733,-4.43067 9.20667,-3.49867 0,0 -6.84134,1.06134 -9.20667,3.49867"
       style="opacity:0.199997;fill:#000000;fill-opacity:1;fill-rule:nonzero;stroke:none;stroke-width:1.33333"
       id="path32336" />
    <path
       d="m 343.35506,152.93454 c 0,0 3.476,5.19867 1.172,11.332 0,0 0.62266,-7.932 -1.172,-11.332"
       style="opacity:0.199997;fill:#000000;fill-opacity:1;fill-rule:nonzero;stroke:none;stroke-width:1.33333"
       id="path32352" />
    <path
       d="m 345.09479,156.46987 c 0,0 2.92,6.09467 0.0227,11.45067 0,0 1.41333,-7.60133 -0.0227,-11.45067"
       style="opacity:0.199997;fill:#000000;fill-opacity:1;fill-rule:nonzero;stroke:none;stroke-width:1.33333"
       id="path32368" />
    <path
       d="m 342.73799,160.29987 c 0,0 2.72,4.65867 -0.352,8.75734 0,0 1.66133,-5.81467 0.352,-8.75734"
       style="opacity:0.199997;fill:#000000;fill-opacity:1;fill-rule:nonzero;stroke:none;stroke-width:1.33333"
       id="path32384" />
    <path
       d="m 238.75493,152.17881 c 0,0 1.35333,-5.42934 7.03066,-6.896 0,0 -5.84,3.71466 -7.03066,6.896"
       style="opacity:0.199997;fill:#000000;fill-opacity:1;fill-rule:nonzero;stroke:none;stroke-width:1.33333"
       id="path32400" />
    <path
       d="m 251.17786,158.62881 c 0,0 -2.42,-3.32534 1.01733,-6.45734 0,0 -2.12933,4.34134 -1.01733,6.45734"
       style="opacity:0.199997;fill:#000000;fill-opacity:1;fill-rule:nonzero;stroke:none;stroke-width:1.33333"
       id="path32416" />
    <path
       d="m 260.21186,165.15814 c 0,0 -3.7,-1.79467 -2.14133,-6.176 0,0 0.164,4.83333 2.14133,6.176"
       style="opacity:0.199997;fill:#000000;fill-opacity:1;fill-rule:nonzero;stroke:none;stroke-width:1.33333"
       id="path32432" />
    <path
       d="m 244.64119,152.12081 c 0,0 0.89467,-4.20267 5.188,-3.64267 0,0 -4.36133,1.30667 -5.188,3.64267"
       style="opacity:0.199997;fill:#000000;fill-opacity:1;fill-rule:nonzero;stroke:none;stroke-width:1.33333"
       id="path32448" />
    <path
       d="m 237.15853,144.20347 c 0,0 1.24666,-4.64 6.28933,-4.80533 0,0 -5.208,2.16667 -6.28933,4.80533"
       style="opacity:0.199997;fill:#000000;fill-opacity:1;fill-rule:nonzero;stroke:none;stroke-width:1.33333"
       id="path32464" />
  </g>
</svg>
