<?xml version="1.0" encoding="UTF-8" standalone="no"?>
<!-- Created with Inkscape (http://www.inkscape.org/) -->

<svg
   version="1.1"
   id="svg1242"
   width="400"
   height="400"
   viewBox="0 0 400 400"
   sodipodi:docname="FerengiForehead.svg"
   inkscape:version="1.2.2 (b0a8486, 2022-12-01)"
   xmlns:inkscape="http://www.inkscape.org/namespaces/inkscape"
   xmlns:sodipodi="http://sodipodi.sourceforge.net/DTD/sodipodi-0.dtd"
   xmlns="http://www.w3.org/2000/svg"
   xmlns:svg="http://www.w3.org/2000/svg">
  <defs
     id="defs1246" />
  <sodipodi:namedview
     id="namedview1244"
     pagecolor="#ffffff"
     bordercolor="#666666"
     borderopacity="1.0"
     inkscape:showpageshadow="2"
     inkscape:pageopacity="0.0"
     inkscape:pagecheckerboard="0"
     inkscape:deskcolor="#d1d1d1"
     showgrid="false"
     inkscape:zoom="2.15"
     inkscape:cx="199.76744"
     inkscape:cy="200"
     inkscape:window-width="1920"
     inkscape:window-height="1080"
     inkscape:window-x="2280"
     inkscape:window-y="111"
     inkscape:window-maximized="0"
     inkscape:current-layer="svg1242">
    <inkscape:page
       x="0"
       y="0"
       id="page1248"
       width="400"
       height="400" />
  </sodipodi:namedview>
  <g
     id="g1250"
     inkscape:groupmode="layer"
     inkscape:label="Page 1"
     style="display:inline">
    <path
       d="m 181.44453,138.32947 c 1.28267,3.31867 10.08,12.8 13.37867,15.40667 3.29866,2.608 15.71199,12.29067 15.71199,12.29067"
       style="fill:#cd976d;fill-opacity:1;fill-rule:nonzero;stroke:none;stroke-width:1.33333"
       id="path19462" />
    <path
       d="m 205.80573,156.95587 c 0.32,-0.16 0.62666,-0.36 0.92,-0.60133 4.36133,-3.592 4.34666,-12.964 4.64933,-17.968 0.82267,-13.54667 -2.28533,-27.32 -1.224,-40.733332 3.796,-0.16 6.86933,3.909332 9.86133,5.969332 4.21734,2.904 8.884,4.67067 13.91334,5.952 11.73733,2.988 23.76133,6.11867 35.752,8.03733 19.64933,3.14134 37.86533,4.80534 57.052,3.00667 4.94133,-0.46267 17.41733,0.34667 20.74133,-4.24933 2.72666,-3.768 -1.68237,-8.51806 -3.02504,-12.40472 -0.48133,-1.39334 0.16934,-10.364005 0.66534,-13.008005 1.59866,-8.54 6.24666,-15.751999 4.92933,-28.927999 -0.64933,-4.022667 -8.95067,-16.345333 -12.71333,-18.421333 -3.76134,-2.076 -15.048,-7.653333 -18.94,-10.766666 -3.89067,-3.113334 -17.64133,-13.881333 -28.668,-13.881333 -11.02667,0 -17.25333,5.189333 -23.99867,5.189333 -6.74666,0 -9.72933,-5.189333 -20.36666,-5.189333 -10.63867,0 -21.14534,4.410666 -25.94534,6.615999 -4.8,2.205334 -13.10266,1.426667 -15.956,2.334667 -2.85466,0.909333 -17.25333,7.265333 -21.79333,18.162666 -4.54133,10.896 -8.952,36.970666 -8.952,50.850666 0,13.881328 7.3757,40.480718 11.65704,46.059388 3.63466,4.73467 15.04666,17.17867 21.44133,13.97333"
       style="fill:#cd976d;fill-opacity:1;fill-rule:nonzero;stroke:none;stroke-width:1.33333"
       id="path19466"
       sodipodi:nodetypes="cccccccccsccccssssccscc" />
    <path
       d="m 351.42416,66.997286 c 0,-12.205333 -9.764,-22.668 -16.39067,-25.458666 -6.62666,-2.789334 -15.34533,-8.021333 -21.62266,-13.601333 -6.27734,-5.58 -17.43734,-9.416 -26.156,-9.416 -8.71867,0 -15.69334,2.790667 -18.13467,3.836 -2.44133,1.046667 -5.23067,1.396 -10.11333,-1.045333 -4.88267,-2.441334 -14.29867,-3.138667 -18.136,-3.138667 -3.836,0 -14.996,2.092 -18.832,4.881333 -3.836,2.790667 -10.46267,3.488 -13.252,3.488 -2.79067,0 -21.88933,3.037333 -29.644,23.714666 -5.23067,13.950667 -9.06667,41.501332 -7.324,56.846664 1.744,15.344 9.34535,32.77483 12.7957,37.75272 3.45035,4.97789 8.648,8.35467 13.21867,12.17067 2.23466,1.86533 4.49333,3.70267 6.76666,5.52133 0.56133,0.44934 1.09867,0.928 1.664,1.372 0.41733,0.32667 0.88667,0.59067 1.26267,0.968 0.252,0.25467 0.41466,0.57334 0.54533,0.904 0.0813,0.20267 0.11333,0.42667 0.20933,0.624 0.0947,0.196 0.272,0.31334 0.46134,0.40534 0.54533,0.26533 1.19866,0.412 1.804,0.33333 0.38933,-0.0507 0.612,-0.488 0.708,-0.828 0.13333,-0.47333 0.16133,-1.03867 -0.0893,-1.46133 -0.27066,-0.45867 -0.68266,-0.84267 -1.04266,-1.23067 -0.41334,-0.44533 -0.83067,-0.888 -1.28134,-1.29467 -0.712,-0.644 -1.508,-1.19066 -2.256,-1.79066 -3.488,-2.78934 -18.32142,-12.91845 -21.97066,-20.924 -3.64924,-8.00555 -12.7957,-26.24473 -10.00503,-49.611391 2.78933,-23.365333 4.18533,-42.721333 16.74,-54.230666 12.55466,-11.507999 15.86799,-3.836 32.95599,-10.810666 17.08934,-6.974667 25.98267,-4.533333 31.21334,-2.789333 5.23066,1.742666 10.46266,4.533333 17.26266,1.569333 6.80134,-2.965333 17.264,-5.406667 25.45867,-1.744 8.196,3.661333 17.264,9.765333 20.75067,12.729333 3.488,2.964 11.49962,6.781846 15.69333,8.893333 7.13509,3.592437 15.25726,15.751897 15.11277,23.026223 -0.14449,7.274326 -0.57541,8.026273 -1.27274,10.847606 -0.74267,3.002666 -1.3347,3.967503 -2.38003,6.892837 -0.836,2.334666 -2.116,4.352 -2.432,6.856 -0.37467,2.971999 0.37242,5.71512 0.36575,8.70712 -0.0107,4.454671 0.62891,4.435551 1.30758,8.756871 0.51733,3.29334 0.90903,1.81673 1.83437,5.03273 0.096,0.336 1.08506,-0.74315 1.65245,-1.57039 0.728,-1.87867 -0.41595,-3.08089 -0.62934,-4.80222 -0.464,-3.77333 -0.93073,-4.30286 -1.52239,-7.35966 -0.59166,-3.056796 -0.96042,-6.899118 -0.35111,-10.375118 2.32665,-6.109333 5.05465,-11.305333 5.05465,-22.646666 z"
       style="fill:#000000;fill-opacity:1;fill-rule:nonzero;stroke:none;stroke-width:1.33333"
       id="path19470"
       sodipodi:nodetypes="scsscsscscczccccccccccccczcccccccszcccccccczcs" />
    <path
       d="m 240.55119,106.86214 c 0.33867,-0.0987 0.67067,-0.21467 0.99067,-0.34933 0.87867,-0.372 4.37867,-4.98 5.53733,-4.064 -1.244,-0.984 -2.92533,-1.40534 -4.424,-1.872 -1.24666,-0.388 -4.15866,-1.214669 -4.37066,-2.733336 -0.0907,-0.653333 0.14666,-1.304 0.408,-1.909333 1.18963,-1.046876 2.69474,-1.541616 7.02785,-2.412996 4.33311,-0.87138 8.12711,-2.53706 12.63911,-3.00906 5.28,-0.552 10.81067,0.568 15.98934,-0.878666 2.11866,-0.592 9.096,-3.334667 6.29066,-6.458667 -2.28266,-2.542667 -7.512,-2.177333 -10.60266,-2.553333 -4.26267,-0.518667 -8.55867,-1.338667 -12.428,-3.278667 -2.08934,-1.048 -4.12,-2.526666 -5.00534,-4.689333 -1.61866,-3.956 0.104,-8.324 -2.01466,-12.297333 -1.204,-2.246667 -4.532,-2.278667 -6.524,-1.649333 -1.73067,0.546666 -3.25467,1.558666 -4.872,2.353333 -1.704,0.836 -3.50667,1.188 -5.41734,1.4 -4.104,0.456 -8.27866,0.03333 -12.27866,-0.945333 -6.20134,-1.517334 -13.492,-4.033334 -18.216,-8.421334 -7.82533,-7.267999 -6.28133,-19.982666 3.23333,-25.154666 -3.54667,0.986667 -6.884,1.434667 -10.19333,3.346667 -5.98,3.456 -11.93867,8.250666 -14.66133,14.786666 -4.54134,10.896 -8.952,36.970666 -8.952,50.851999 0,10.991995 2.72636,17.474055 5.37036,28.088725 0.94534,3.79866 1.25467,9.53066 5.21467,11.23733 3.66933,1.58133 9.592,-1.608 11.50533,-4.76133 2.94667,-4.85334 3.89467,-13.34 6.35467,-18.94934 2.816,-6.42266 3.91866,-10.93866 11.00133,-10.21466 6.772,0.692 13.04,3.76533 19.772,4.656 2.67067,0.35333 5.912,0.67066 8.62533,-0.11867"
       style="opacity:0.199997;fill:#000000;fill-opacity:1;fill-rule:nonzero;stroke:none;stroke-width:1.33333"
       id="path19480"
       sodipodi:nodetypes="cccccczcccccccccccccccscccccsc" />
    <path
       d="m 280.15216,41.325286 c 4.81867,0.761334 9.52667,2.565334 14.61067,4.546667 3.916,1.526667 7.792,5.084 10.75066,8.013333 -0.16,-0.158667 -0.0667,-2.698666 0.0467,-3.053333 0.248,-0.769333 0.98267,-1.433333 1.384,-2.136 1.12533,-1.976 1.95867,-4.029333 4.05467,-5.209333 0.99733,-0.562667 2.17866,-0.732 3.22666,-1.169334 1.17734,-0.492 2.064,-1.336 3.32267,-1.686666 2.76,-0.770667 5.65867,0.205333 8.45733,-0.004 -1.7,-0.761334 -3.48266,-1.474667 -5.16133,-2.136 -3.904,-1.538667 -8.77733,-1.274667 -12.936,-1.545333 -2.68,-0.176 -5.36533,-0.072 -8.068,-0.458667 -3.53467,-0.505333 -6.98667,-1.488 -10.456,-2.428 -4.23467,-1.146667 -7.588,-3.094667 -10.94133,-5.913333 -1.51467,-1.274667 -3.23867,-2.48 -2.14134,-4.562667 -3.8,1.946667 -9.88266,2.976 -11.84266,7.328 -0.52134,1.157333 -0.68134,2.281333 -1.03334,3.461333 -1.01733,3.408 -3.032,6.244 -5.55333,8.741333 -1.848,1.829334 -2.53467,4.061334 -3.512,6.490667 1.72,-1.421333 3.852,-2.481333 5.80667,-3.52 1.96133,-1.044 3.71866,-2.721333 5.81866,-3.468 5.084,-1.804 9.67334,-2 14.16667,-1.290667"
       style="opacity:0.100006;fill:#000000;fill-opacity:1;fill-rule:nonzero;stroke:none;stroke-width:1.33333"
       id="path19496"
       sodipodi:nodetypes="cccccccccccccccccccccc" />
    <path
       d="m 309.16563,70.151019 c -1.8,0.278667 -3.34,1.369333 -4.58534,2.793333 -1.22266,1.4 -2.2,3.008 -3.504,4.332 -2.204,2.238667 -8.38933,4.989333 -7.80533,8.925333 0.43733,2.944 4.936,2.182667 7.05067,2.144 6.22266,-0.114666 12.81866,-0.808 19.02666,0.776 1.576,0.401334 14.416,6.017333 14.54,2.529333 0.032,-0.913333 -0.97866,-2.266666 -1.54,-2.979999 -2.64133,-3.362667 -5.76533,-5.438667 -9.43733,-7.558667 -2.55333,-1.474667 -5.072,-3.208 -6.61733,-5.782666 -1.41467,-2.358667 -2.416,-4.849334 -5.52134,-5.208 -0.556,-0.064 -1.092,-0.05067 -1.60666,0.02933"
       style="opacity:0.100006;fill:#000000;fill-opacity:1;fill-rule:nonzero;stroke:none;stroke-width:1.33333"
       id="path19512"
       sodipodi:nodetypes="cccccccccccc" />
    <path
       d="m 216.08496,34.035687 c -0.25467,0.341333 -0.40133,0.552 -0.38,0.56 -2.76267,-1.046667 1.72667,-7.370667 2.88267,-8.193334 1.06266,-0.756 2.23333,-1.762666 3.37466,-2.371999 1.528,-0.817334 3.76637,-5.532611 5.44104,-5.868611 -2.58667,0.988 -4.35437,8.28461 -6.4477,9.929944 -0.504,0.397333 -3.748,4.438666 -4.87067,5.944"
       style="opacity:0.100006;fill:#000000;fill-opacity:1;fill-rule:nonzero;stroke:none;stroke-width:1.33333"
       id="path19528"
       sodipodi:nodetypes="ccccccc" />
  </g>
</svg>
