<?xml version="1.0" encoding="UTF-8" standalone="no"?>
<!-- Created with Inkscape (http://www.inkscape.org/) -->

<svg
   version="1.1"
   id="svg5489"
   width="400"
   height="400"
   viewBox="0 0 400 400"
   sodipodi:docname="Haliian.svg"
   inkscape:version="1.3.1 (91b66b0, 2023-11-16)"
   xmlns:inkscape="http://www.inkscape.org/namespaces/inkscape"
   xmlns:sodipodi="http://sodipodi.sourceforge.net/DTD/sodipodi-0.dtd"
   xmlns="http://www.w3.org/2000/svg"
   xmlns:svg="http://www.w3.org/2000/svg">
  <defs
     id="defs5493">
    <clipPath
       clipPathUnits="userSpaceOnUse"
       id="clipPath5505">
      <path
         d="M 0,300 H 300 V 0 H 0 Z"
         id="path5503" />
    </clipPath>
    <clipPath
       clipPathUnits="userSpaceOnUse"
       id="clipPath5517">
      <path
         d="m 192.764,211.908 h 39.319 v -10.104 h -39.319 z"
         id="path5515" />
    </clipPath>
    <clipPath
       clipPathUnits="userSpaceOnUse"
       id="clipPath5533">
      <path
         d="m 239.256,209.657 h 21.999 v -8.1 h -21.999 z"
         id="path5531" />
    </clipPath>
    <clipPath
       clipPathUnits="userSpaceOnUse"
       id="clipPath5549">
      <path
         d="m 233.614,226.631 h 25.755 V 206.11 h -25.755 z"
         id="path5547" />
    </clipPath>
    <clipPath
       clipPathUnits="userSpaceOnUse"
       id="clipPath5565">
      <path
         d="m 249.885,220.424 h 8.512 v -3.066 h -8.512 z"
         id="path5563" />
    </clipPath>
    <clipPath
       clipPathUnits="userSpaceOnUse"
       id="clipPath5581">
      <path
         d="m 198.937,231.092 h 34.508 v -23.125 h -34.508 z"
         id="path5579" />
    </clipPath>
    <clipPath
       clipPathUnits="userSpaceOnUse"
       id="clipPath5597">
      <path
         d="m 198.937,224.31 h 13.814 v -4.217 h -13.814 z"
         id="path5595" />
    </clipPath>
    <clipPath
       clipPathUnits="userSpaceOnUse"
       id="clipPath5613">
      <path
         d="m 192.274,239.371 h 4.342 v -19.464 h -4.342 z"
         id="path5611" />
    </clipPath>
    <clipPath
       clipPathUnits="userSpaceOnUse"
       id="clipPath5629">
      <path
         d="m 230.517,205.249 h 4.559 v -12.476 h -4.559 z"
         id="path5627" />
    </clipPath>
    <clipPath
       clipPathUnits="userSpaceOnUse"
       id="clipPath5645">
      <path
         d="m 235.65,205.118 h 2.857 v -12.376 h -2.857 z"
         id="path5643" />
    </clipPath>
  </defs>
  <sodipodi:namedview
     id="namedview5491"
     pagecolor="#ffffff"
     bordercolor="#666666"
     borderopacity="1.0"
     inkscape:showpageshadow="2"
     inkscape:pageopacity="0.0"
     inkscape:pagecheckerboard="0"
     inkscape:deskcolor="#d1d1d1"
     showgrid="false"
     inkscape:zoom="1.475"
     inkscape:cx="200.67797"
     inkscape:cy="200.33898"
     inkscape:window-width="1440"
     inkscape:window-height="810"
     inkscape:window-x="2484"
     inkscape:window-y="187"
     inkscape:window-maximized="0"
     inkscape:current-layer="g5497">
    <inkscape:page
       x="0"
       y="0"
       id="page5495"
       width="400"
       height="400"
       margin="0"
       bleed="0" />
  </sodipodi:namedview>
  <g
     id="g5497">
    <path
       d="m 255.56973,128.88507 c 0.52933,0.80667 1.04666,1.43734 2.036,1.71467 0.85866,0.24133 1.57466,-0.06 2.42266,-0.084 1.22,-0.0347 2.43867,-0.10533 3.65867,-0.152 1.29867,-0.048 2.57867,-0.27733 3.85733,-0.516 1.49467,-0.27867 2.97334,-0.532 4.436,-0.976 1.06,-0.32133 2.04534,-0.82667 3.088,-1.17067 1.97467,-0.65066 4.46,-0.536 6.512,-0.552 0.70934,-0.005 1.32267,0.11467 2.00534,0.19067 0.89466,0.1 1.78133,-0.16133 2.68133,0.0347 0.76533,0.168 1.46,0.43333 2.18133,0.72933 1.53734,0.62933 3.23867,1.34267 4.83067,1.81867 2.224,0.66666 4.35067,0.684 6.644,0.88533 1.208,0.10667 2.412,0.176 3.616,0.0573 1.12933,-0.11066 2.172,-0.16266 3.3,-0.19466 1.11867,-0.032 2.22533,-0.30134 3.14133,-0.968 2.568,-1.868 3.152,-2.91867 5.95467,-2.21867 1.21467,0.304 2.42667,0.984 3.37333,1.804 0.67734,0.58533 0.41867,2.15867 1.42534,1.96 0.43466,-0.0853 0.83866,-0.34133 1.248,-0.49067 1.58666,-0.58 3.13466,-0.86533 4.79066,-1.18266 2.57867,-0.496 4.98,-2.004 7.556,-2.676 1.072,-0.28 2.36267,-0.59734 3.46533,-0.32667 1.29867,0.32 2.52667,0.96533 3.82667,1.31467 0.71867,0.192 1.95333,0.66533 2.68667,0.29866 1.40133,-0.70133 3.85333,-2.80266 4.08666,-7.12266 0.23334,-4.32 -2.68533,-21.250669 -4.08666,-25.688002 -1.40134,-4.436 -3.38534,-12.609333 -21.83333,-14.361333 -18.448,-1.750667 -66.204,3.036 -70.64,11.326666 -4.43734,8.289329 -0.93467,29.422669 3.736,36.545329"
       style="fill:#cd976d;fill-opacity:1;fill-rule:nonzero;stroke:none;stroke-width:1.33333"
       id="path5509" />
    <path
       d="m 307.88186,128.38467 c -0.33733,0.13467 -0.73867,0.0427 -1.1,0.0653 -0.54,0.032 -1.08133,0.0253 -1.62267,0.0227 -1.08266,-0.007 -2.11333,-0.29066 -3.15733,-0.544 -0.24267,-0.0587 -0.48667,-0.116 -0.732,-0.16666 -0.91733,-0.192 -1.79067,-0.62934 -2.684,-0.90534 -1.848,-0.57066 -3.72133,-1.02533 -5.60267,-1.46 -4.65733,-1.07733 -9.59866,-1.76533 -14.376,-1.376 -2.05333,0.168 -4.26933,0.22534 -6.2,1.01467 -3.396,1.39067 -6.66533,3.42533 -10.204,0.992 -1.41733,-0.97467 -5.6,-6.704 -3.956,-8.572 -2.016,2.292 -1.24,6.83733 0.10267,9.25467 1.22267,2.20133 3.22,3.41333 5.73067,3.48266 0.75866,0.0213 1.50933,-0.06 2.26,-0.13866 0.40133,-0.068 0.80266,-0.132 1.204,-0.20667 1.49466,-0.27867 2.97333,-0.532 4.436,-0.976 1.06,-0.32133 2.04533,-0.82667 3.088,-1.16933 1.97466,-0.65067 4.46,-0.536 6.512,-0.55334 0.708,-0.005 1.32266,0.11467 2.00533,0.19067 0.89467,0.1 1.78133,-0.16133 2.68133,0.036 0.76534,0.16667 1.46,0.43333 2.18134,0.728 1.53733,0.63067 3.23866,1.34267 4.82933,1.82 2.22533,0.66667 4.352,0.68267 6.64533,0.88533 1.208,0.10534 2.41067,0.176 3.616,0.0573 1.12934,-0.112 2.172,-0.164 3.3,-0.196 0.10534,-0.003 0.20934,-0.0187 0.31467,-0.0267 0.0893,-0.18533 0.17333,-0.37467 0.28,-0.54933 0.376,-0.62134 0.83333,-1.11067 1.31867,-1.65067 0.43866,-0.488 0.57733,-1.192 0.692,-1.80933 -0.048,0.25866 -0.47334,0.69333 -0.63467,0.90533 -0.244,0.31867 -0.544,0.692 -0.928,0.84533"
       style="opacity:0.199997;fill:#000000;fill-opacity:1;fill-rule:nonzero;stroke:none;stroke-width:1.33333"
       id="path5519" />
    <path
       d="m 344.30732,128.18454 c 2.70934,-1.35467 4.34,-4.796 3.984,-7.728 -0.34133,0.27333 -0.484,0.704 -0.79333,1.01067 -2.07867,2.068 -5.82667,1.64266 -8.50267,2.056 -1.61866,0.25066 -3.24266,0.332 -4.86666,0.54533 -2.65067,0.34933 -4.91733,0.98133 -6.84133,2.85333 -1.504,1.46134 -3.30134,2.176 -5.39734,2.52934 -1.08133,0.18266 -1.95466,0.17333 -2.88266,-0.41867 0.26,0.57867 0.95333,2.368 1.72666,2.216 0.43467,-0.0867 0.83734,-0.34133 1.24667,-0.492 1.58667,-0.58 3.136,-0.864 4.79067,-1.18267 2.58,-0.496 4.98,-2.00266 7.55599,-2.67466 1.072,-0.28 2.36267,-0.59734 3.46534,-0.32667 1.3,0.31867 2.528,0.96533 3.828,1.31333 0.71866,0.19334 1.95333,0.66534 2.68666,0.29867"
       style="opacity:0.199997;fill:#000000;fill-opacity:1;fill-rule:nonzero;stroke:none;stroke-width:1.33333"
       id="path5535" />
    <path
       d="m 343.07586,106.53121 c 1.76533,0.85866 2.62933,2.664 2.74933,4.50666 -0.30667,-1.004 -1.17067,-1.85733 -2.24267,-1.51466 -0.61066,0.19466 -1.03733,0.568 -1.69466,0.60266 -0.784,0.04 -1.57734,-0.22933 -2.38534,-0.10266 -0.88,0.14 -1.04666,0.584 -1.69733,1.072 -1.22133,0.91733 -2.772,0.19066 -4.136,0.55466 -1.816,0.484 -2.68666,1.63067 -4.124,2.64 -1.14666,0.804 -2.732,0.10934 -4.064,0.57334 -1.09866,0.38266 -2.08,1.08266 -3.08,1.63066 -1.56,0.85467 -2.476,1.716 -3.56133,3.148 -1.312,1.73067 -2.148,3.45334 -2.71467,5.54534 0.016,-1.476 0.45867,-2.91467 0.72934,-4.38667 0.55866,-3.04133 0.38,-5.90267 -0.692,-8.81733 -0.82667,-2.25067 -2.088,-4.28267 -3.06534,-6.456 -0.384,-0.85467 -0.42,-1.616 -0.664,-2.49734 -0.45066,-1.63466 -1.524,-3.549329 -0.556,-5.203996 0.89334,6.205336 4.892,11.154666 10.144,14.285336 2.64267,1.57466 5.80667,1.088 8.43467,-0.352 1.696,-0.93067 3.21866,-2.13867 4.87733,-3.13067 2.19867,-1.31467 5.052,-3.40667 7.74267,-2.09733"
       style="opacity:0.199997;fill:#000000;fill-opacity:1;fill-rule:nonzero;stroke:none;stroke-width:1.33333"
       id="path5551" />
    <path
       d="m 343.07586,106.53121 c 0.55866,0.272 1.23866,0.69466 1.45333,1.31333 -1.792,0.11867 -3.144,0.324 -4.80133,0.98667 -2.14667,0.85866 -4.456,0.61733 -6.548,1.35733 2.55466,-1.85467 6.52666,-5.296 9.896,-3.65733"
       style="opacity:0.350006;fill:#000000;fill-opacity:1;fill-rule:nonzero;stroke:none;stroke-width:1.33333"
       id="path5567" />
    <path
       d="m 310.37199,106.32027 c -0.52533,2.024 -1.188,4.01734 -1.50266,6.088 -0.38,2.49734 0.70666,4.076 1.56533,6.33867 0.492,1.29733 0.64,2.89067 -0.24133,3.96267 0.22666,-3.812 -2.548,-7.58934 -6.25467,-8.51067 -1.20933,-0.30133 -2.568,-0.36667 -3.48667,-1.20933 -0.76933,-0.704 -1.12533,-1.87734 -2.084,-2.28667 -1.13866,-0.484 -2.54533,0.376 -3.65066,-0.17867 -0.90934,-0.45733 -1.21067,-1.688 -2.11334,-2.15733 -1.29733,-0.676 -3.104,0.56267 -4.26933,-0.32267 -0.46533,-0.356 -0.664,-0.95333 -1.004,-1.43066 -0.90933,-1.27867 -2.81467,-0.22667 -4.06667,-0.28267 -1.27333,-0.056 -1.268,-0.732 -2.256,-1.252 -1.09733,-0.57867 -2.66533,-0.16267 -3.73333,0.27333 -1.472,0.59867 -3.03867,1.02667 -4.664,0.88134 -1.50933,-0.136 -2.55733,-1.48134 -3.87333,-1.64 -1.13467,-0.13734 -2.83467,1.088 -3.48667,1.94933 1.88933,-3.244 4.81333,-5.408 8.67467,-5.56933 2.90666,-0.12 5.93733,0.22933 8.72533,1.06933 3.08667,0.932 5.91867,2.99867 8.83467,4.42133 1.77333,0.86667 3.75066,1.18 5.54,2.004 1.67866,0.77334 3.49066,1.49334 5.37066,1.51467 0.74934,0.009 1.6,0.072 2.32534,-0.0827 2.304,-0.49333 3.48533,-3.048 4.23733,-5.03466 1.59867,-4.21867 1.99867,-8.698669 0.38267,-12.989336 2.26933,4.054667 2.304,9.037336 1.24933,13.561336 -0.0693,0.29466 -0.14267,0.58933 -0.21867,0.88266"
       style="opacity:0.199997;fill:#000000;fill-opacity:1;fill-rule:nonzero;stroke:none;stroke-width:1.33333"
       id="path5583" />
    <path
       d="m 283.66799,102.73654 c -2.72133,-0.0427 -4.99066,0.044 -7.56133,0.99067 -1.23733,0.456 -2.05733,0.51333 -3.31467,0.26533 -2.47866,-0.49067 -5.96133,0.46267 -7.54133,2.55067 1.88933,-3.24534 4.81333,-5.408 8.67467,-5.56934 2.76933,-0.11466 7.60266,-0.228 9.74266,1.76267"
       style="opacity:0.350006;fill:#000000;fill-opacity:1;fill-rule:nonzero;stroke:none;stroke-width:1.33333"
       id="path5599" />
    <path
       d="m 261.13293,84.074408 c 0.0107,0.629333 -0.0267,1.264 -0.15867,1.926667 -0.78133,3.955999 -2.19733,7.730666 -3.63867,11.482666 -0.64933,1.688 -1.23733,3.966669 -0.84266,5.769329 0.44933,2.06 2.264,3.46 4.31733,3.53734 -0.968,-1.632 -1.47333,-3.252 -1.92533,-5.16667 -0.956,-4.057332 1.96,-8.278666 2.84533,-12.139999 0.66267,-2.894666 0.668,-6.1 -0.86,-8.645333 0.084,1.128 0.244,2.172 0.26267,3.236"
       style="opacity:0.199997;fill:#000000;fill-opacity:1;fill-rule:nonzero;stroke:none;stroke-width:1.33333"
       id="path5615" />
    <path
       d="m 312.43639,133.72307 c -0.16266,-1.048 -0.28666,-2.104 -0.49066,-3.14533 -0.25334,-1.28667 -1.22134,-2.93067 -0.94934,-4.244 -0.20266,0.616 -0.452,1.20133 -0.884,1.69333 -0.46133,0.52534 -0.43733,0.61334 10e-4,1.13067 0.74,0.87067 0.884,2 0.348,3.03733 -1.05867,2.04934 -2.48934,0.15467 -3.10534,-1.18666 0.416,0.76933 0.63467,1.61733 1.04134,2.392 0.35733,0.67866 1.04266,1.36 1.812,0.98533 0.264,-0.128 0.9,-0.84533 1.22133,-0.64933 0.28933,0.176 0.036,0.88133 -0.0387,1.104 -0.53866,1.59466 -2.69866,2.976 -3.96266,1.16133 0.416,0.98267 0.85466,1.984 2.064,1.68667 0.84266,-0.20667 1.812,-0.70134 2.66666,-0.29067 1.03867,0.49733 0.82,1.848 0.57334,2.788 -0.16534,0.628 -0.57067,1.25333 -1.26,1.368 -0.16934,0.028 -0.35867,0 -0.5,-0.112 -0.13734,-0.10933 -0.20534,-0.28 -0.27334,-0.44 -0.22533,-0.53733 -0.508,-1.06933 -0.92666,-1.488 0.284,0.88933 0.13066,1.9 0.70133,2.70667 0.22267,0.31466 0.58,0.568 0.93733,0.69333 0.56134,0.19467 1.01067,-0.152 1.27467,-0.58933 1.42933,-2.37467 0.46,-4.92534 -0.0413,-7.412 -0.08,-0.39467 -0.148,-0.792 -0.20934,-1.18934"
       style="opacity:0.199997;fill:#000000;fill-opacity:1;fill-rule:nonzero;stroke:none;stroke-width:1.33333"
       id="path5631" />
    <path
       d="m 314.71293,137.57574 c 0.0187,-0.17067 0.0373,-0.34267 0.056,-0.51333 0.0787,-0.72 0.192,-1.44134 0.21466,-2.16667 0.024,-0.772 -0.0333,-1.54133 -0.0773,-2.31067 -0.0333,-0.57333 -0.0587,-1.14933 0.005,-1.72 0.0587,-0.51333 0.20267,-0.98666 0.43334,-1.44666 0.236,-0.47334 0.38266,-1.00667 0.56133,-1.508 0.0853,-0.244 0.17333,-0.488 0.268,-0.72934 0.0707,-0.18 0.28,-0.48266 0.28533,-0.672 -0.007,0.23334 0.0907,0.43334 0.19067,0.64 0.20667,0.42667 0.42667,0.828 0.70667,1.212 0.0893,0.12267 0.22666,0.25334 0.26133,0.39867 -0.25867,0.0613 -0.56267,0.23067 -0.74933,0.42133 -0.48667,0.496 -0.78,1.17067 -0.73467,1.87067 0.0733,1.11867 1.012,1.924 1.87467,2.516 -0.10267,-0.068 -0.624,0.232 -0.74934,0.26133 -0.32,0.0747 -0.66666,0.02 -0.96533,0.17734 -0.28667,0.152 -0.44933,0.468 -0.528,0.78266 -0.144,0.56667 -0.072,1.17467 0.13867,1.72 0.21066,0.54534 0.556,1.03067 0.956,1.45734 0.10133,0.108 0.22266,0.22 0.37066,0.22 -0.19066,0.124 -0.43466,0.22 -0.66666,0.22 -0.25334,0 -0.444,-0.0747 -0.67067,0.0627 -0.20267,0.12267 -0.37867,0.328 -0.51333,0.52 -0.29067,0.40934 -0.44667,0.916 -0.416,1.41867 0.032,0.512 0.25866,1.004 0.60933,1.37733 0.15067,0.16 0.39067,0.40267 0.612,0.45867 0.24667,0.0627 0.49867,-0.14533 0.728,-0.22667 0.0813,-0.028 0.13733,0.40934 0.128,0.46267 -0.06,0.328 -0.448,0.45467 -0.74267,0.44933 -0.48666,-0.008 -0.85333,-0.29733 -1.304,-0.408 -0.12533,-0.0307 -0.224,-0.0387 -0.33733,0.032 -0.068,0.0427 -0.36,0.392 -0.31867,0.45734 -0.21333,-0.34 -0.12666,-0.77334 -0.0933,-1.14667 0.048,-0.53467 0.116,-1.068 0.17467,-1.60133 0.0973,-0.896 0.19466,-1.79067 0.292,-2.68667"
       style="opacity:0.199997;fill:#000000;fill-opacity:1;fill-rule:nonzero;stroke:none;stroke-width:1.33333"
       id="path5647" />
  </g>
</svg>
