<?xml version="1.0" encoding="UTF-8" standalone="no"?>
<!-- Created with Inkscape (http://www.inkscape.org/) -->

<svg
   version="1.1"
   id="svg148948"
   width="400"
   height="400"
   viewBox="0 0 400 400"
   sodipodi:docname="Head4.svg"
   inkscape:version="1.2.2 (b0a8486, 2022-12-01)"
   xmlns:inkscape="http://www.inkscape.org/namespaces/inkscape"
   xmlns:sodipodi="http://sodipodi.sourceforge.net/DTD/sodipodi-0.dtd"
   xmlns="http://www.w3.org/2000/svg"
   xmlns:svg="http://www.w3.org/2000/svg">
  <defs
     id="defs148952" />
  <sodipodi:namedview
     id="namedview148950"
     pagecolor="#ffffff"
     bordercolor="#666666"
     borderopacity="1.0"
     inkscape:showpageshadow="2"
     inkscape:pageopacity="0.0"
     inkscape:pagecheckerboard="0"
     inkscape:deskcolor="#d1d1d1"
     showgrid="false"
     inkscape:zoom="2.1275"
     inkscape:cx="199.76498"
     inkscape:cy="200"
     inkscape:window-width="1801"
     inkscape:window-height="1071"
     inkscape:window-x="2123"
     inkscape:window-y="188"
     inkscape:window-maximized="0"
     inkscape:current-layer="layer7">
    <inkscape:page
       x="0"
       y="0"
       id="page148954"
       width="400"
       height="400" />
  </sodipodi:namedview>
  <g
     id="g148956"
     inkscape:groupmode="layer"
     inkscape:label="Page 1">
    <path
       d="m 311.20946,233.43867 c 10.76667,-0.97867 22.46933,-4.904 26.50533,-33.828 1.04533,-7.49866 9.416,-13.25333 9.24133,-30.34133 -0.17466,-17.08933 -4.18533,-31.736 -4.18533,-34.52667 0,-2.78933 6.452,-9.416 6.104,-12.032 -0.34933,-2.61466 -2.96533,-32.781329 -10.11467,-47.777329 -7.14933,-14.997332 -12.55466,-25.110666 -31.38666,-33.654665 -18.832,-8.544 -30.34133,-11.509333 -40.10667,-11.509333 -9.764,0 -36.26933,6.626666 -54.57866,23.541332 -18.30933,16.913333 -17.26267,34.699999 -17.088,50.219995 0.17333,15.51867 0.52267,32.78134 3.48667,39.93067 2.96399,7.14933 6.39733,16.78 10.09866,20.688 3.7,3.908 8.38533,6.68933 8.73333,8.25867 0.34934,1.56933 9.24267,27.72533 21.448,34.69999 12.20667,6.97467 36.44534,16.56534 39.75734,18.30934 3.31333,1.744 20.576,9.068 32.08533,8.02133"
       style="fill:#cd976d;fill-opacity:1;fill-rule:nonzero;stroke:none;stroke-width:1.33333"
       id="path149948" />
    <path
       d="m 311.20959,233.43867 c 4.01734,-0.36533 8.16534,-1.14267 11.99734,-3.47467 -3.56134,0.0213 -7.59067,0.004 -11.708,-0.316 -8.844,-0.68533 -18.06134,-2.764 -23.74267,-8.852 -7.324,-7.84666 -14.648,-28.77066 -21.70933,-32.43333 -7.06267,-3.66133 -26.78667,-19.092 -24.75734,-34.79466 1.216,-9.40934 1.484,-25.18667 4.35867,-35.21467 3.12933,-10.91867 -2.944,-22.302666 -4.03733,-33.343999 -1.156,-11.662666 0.34133,-19.446666 4.79466,-30.291999 2.12667,-5.177333 4.75734,-10.198666 8.20934,-14.624 1.78266,-2.282666 6.7,-8.519999 10.48133,-10.231999 -3.57333,1.617333 -9.21067,1.425333 -13.128,2.493333 -0.0507,0.01333 -0.10133,0.028 -0.152,0.04267 -1.42533,0.394666 -2.84267,0.824 -4.25067,1.278666 -0.18533,0.06 -0.368,0.117333 -0.55466,0.178667 -1.36,0.446666 -2.71067,0.925333 -4.05067,1.428 -0.28533,0.106666 -0.57333,0.218666 -0.86,0.328 -1.22933,0.473333 -2.45067,0.966666 -3.66133,1.484 -0.224,0.096 -0.448,0.190666 -0.67334,0.288 -1.376,0.6 -2.74133,1.225333 -4.08933,1.881333 -0.056,0.02667 -0.112,0.052 -0.168,0.08 -0.12133,0.05867 -0.24533,0.122667 -0.36667,0.182667 -7.112,3.510666 -14.252,8.055999 -20.45333,13.783999 -18.30933,16.913333 -17.26266,34.699999 -17.088,50.219992 0.17334,15.51867 0.52267,32.78134 3.48667,39.93067 2.964,7.14933 6.39733,16.78 10.09866,20.688 3.7,3.908 8.38534,6.68933 8.73334,8.25867 0.34933,1.56933 9.24266,27.72533 21.448,34.69999 12.20666,6.97467 36.44533,16.56534 39.75733,18.30934 3.31333,1.744 20.576,9.068 32.08533,8.02133"
       style="opacity:0.199997;fill:#000000;fill-opacity:1;fill-rule:nonzero;stroke:none;stroke-width:1.33333"
       id="path149958" />
    <path
       d="m 276.77066,223.15067 c 7.324,2.35467 10.20133,7.84667 31.91067,8.632 21.70933,0.784 23.01733,-18.44 25.10933,-26.54933 2.09333,-8.108 12.03333,-23.40933 12.03333,-40.09733 0,-5.27467 -4.552,-28.30934 -3.79867,-30.56934 0.75334,-2.26 5.776,-10.79866 5.02267,-15.068 -0.75333,-4.26933 -5.02267,-43.446662 -17.83066,-59.267995 -12.808,-15.821333 -45.456,-29.131999 -62.784,-28.879999 -17.328,0.250667 -69.27067,18.439999 -69.27067,62.638665 0,2.976 -0.072,5.96 -0.15733,8.929329 -0.572,19.952 2.66667,40.27467 10.81066,56.75334 0.6,1.21333 3.30134,4.948 3.576,6.25466 0.0547,0.25734 0.0787,0.564 -0.13333,0.74 -0.32267,0.268 -1.25733,0.172 -1.56667,-0.10933 -3.03066,-2.75467 -6.44933,-8.388 -7.96133,-12.45333 -3.51333,-9.44 -6.22666,-19.47867 -7.304,-29.5 -1.11066,-10.33867 -0.89866,-20.752 -0.89866,-31.133336 0,-43.321332 48.43466,-65.181331 71.41333,-65.181331 22.97866,0 51.90666,12.509333 66.22133,29.083999 14.31466,16.575999 18.43733,60.142668 18.43733,64.662668 0,4.52 -3.804,7.33466 -4.93467,12.984 -1.12933,5.65066 3.86,18.75733 3.86,30.064 0,10.46266 -2.964,22.10266 -9.50266,37.01066 -6.54,14.90933 -1.66,32.68667 -27.292,32.45867 -23.91067,-0.212 -23.324,-3.044 -36.79067,-9.048 -11.764,-5.24534 -50.32,-12.248 -56.85866,-53.836 0,0 11.86933,27.156 22.332,33.95733 10.46266,6.8 27.98666,14.83333 36.35733,17.524"
       style="fill:#000000;fill-opacity:1;fill-rule:nonzero;stroke:none;stroke-width:1.33333"
       id="path149968" />
    <path
       d="m 241.28973,153.56841 c 0,0 -0.75867,13.79466 4.61733,20.14666 8.63067,10.20134 21.448,15.69467 21.448,15.69467 0,0 -17.00267,-16.21733 -20.14133,-20.92533 -3.13867,-4.708 -4.44667,-7.84667 -5.924,-14.916"
       style="fill:#000000;fill-opacity:1;fill-rule:nonzero;stroke:none;stroke-width:1.33333"
       id="path149972" />
  </g>
  <g
     inkscape:groupmode="layer"
     id="layer7"
     inkscape:label="Bolian Seam">
    <path
       style="fill:#cd976d;fill-opacity:1;stroke:none;stroke-width:1px;stroke-linecap:butt;stroke-linejoin:miter;stroke-opacity:1"
       d="m 308.882,231.88806 7.77957,-4.70288 2.98065,3.60544 c 0,0 -3.54052,4.63972 -4.55747,4.47023 -1.01695,-0.16949 -6.20275,-3.37279 -6.20275,-3.37279 z"
       id="path1898"
       sodipodi:nodetypes="cccsc" />
    <path
       style="color:#000000;fill:#000000;-inkscape-stroke:none"
       d="m 316.5293,200.91602 -0.80078,0.006 c 0,0 0.0589,9.19637 0.51367,13.0586 0.45004,3.82246 1.33945,7.64401 1.00195,12.54492 -0.33368,4.84538 -2.83922,8.71538 -2.83922,8.71538 l 1.04704,0.11053 c 0,0 2.24111,-3.69039 2.59101,-8.77122 0.34606,-5.02526 -0.56302,-8.93211 -1.00586,-12.69336 -0.43818,-3.72149 -0.50781,-12.9707 -0.50781,-12.9707 z"
       id="path1738"
       sodipodi:nodetypes="ccssccsscc" />
    <path
       style="color:#000000;fill:#000000;fill-opacity:0.2;-inkscape-stroke:none"
       d="m 313.52513,200.92202 c 0,0 0.0589,9.19637 0.51367,13.0586 0.45004,3.82246 1.33945,7.64401 1.00195,12.54492 -0.33368,4.84538 -2.7793,8.95508 -2.7793,8.95508 l 1.70622,-0.18905 c 0,0 2.18118,-3.75032 2.53108,-8.83115 0.34606,-5.02526 -0.62295,-8.93211 -1.06579,-12.69336 -0.43818,-3.72149 -0.50781,-12.85085 -0.50781,-12.85085 z"
       id="path1894"
       sodipodi:nodetypes="cssccsscc" />
    <path
       style="color:#000000;fill:#000000;-inkscape-stroke:none"
       d="m 319.99835,230.00635 c -2.19299,0.17735 -2.59645,2.45816 -3.39376,3.11721 -0.22527,0.19294 -0.73817,-0.005 -1.04382,0.002 -0.15274,-0.0227 -0.6213,0.24754 -0.72401,0.337 -1.714,-1.04228 -4.12994,-1.7655 -6.31854,-1.6567 l 0.0857,2.73033 c 1.78502,-0.0887 3.53351,1.41791 4.59139,2.30888 l 1.13086,0.95118 1.03711,-0.87696 1.11719,0.50391 0.84961,-1.05078 c 0.94619,-1.17154 2.49061,-2.51973 3.24983,-2.60747 z"
       id="path1896"
       sodipodi:nodetypes="ccccccccccccc" />
    <path
       id="path8340"
       style="opacity:0.199997;fill:#000000;fill-opacity:1;fill-rule:nonzero;stroke:none;stroke-width:1.33333"
       d="m 312.50977,229.69531 -3.62696,2.19336 c 0,0 1.19625,0.73844 2.54883,1.52344 1.27745,0.43999 2.47658,0.67906 3.73299,0.43143 1.17408,-0.2314 2.43499,-0.82244 3.53849,-1.8787 0.54389,-0.66044 0.93946,-1.17382 0.93946,-1.17382 l -0.70313,-0.84961 c -1.67841,0.59953 -3.20413,0.96517 -4.5132,-0.13573 -0.22894,-0.19253 -1.27199,-0.0677 -1.91648,-0.11037 z"
       sodipodi:nodetypes="cccscccsc" />
  </g>
</svg>
