<?xml version="1.0" encoding="UTF-8" standalone="no"?>
<!-- Created with Inkscape (http://www.inkscape.org/) -->

<svg
   version="1.1"
   id="svg78509"
   width="400"
   height="400"
   viewBox="0 0 400 400"
   sodipodi:docname="Head10.svg"
   inkscape:version="1.3.2 (091e20e, 2023-11-25)"
   xml:space="preserve"
   xmlns:inkscape="http://www.inkscape.org/namespaces/inkscape"
   xmlns:sodipodi="http://sodipodi.sourceforge.net/DTD/sodipodi-0.dtd"
   xmlns:xlink="http://www.w3.org/1999/xlink"
   xmlns="http://www.w3.org/2000/svg"
   xmlns:svg="http://www.w3.org/2000/svg"><defs
     id="defs78513" /><sodipodi:namedview
     id="namedview78511"
     pagecolor="#ffffff"
     bordercolor="#666666"
     borderopacity="1.0"
     inkscape:showpageshadow="2"
     inkscape:pageopacity="0.0"
     inkscape:pagecheckerboard="0"
     inkscape:deskcolor="#d1d1d1"
     showgrid="false"
     inkscape:zoom="2.12"
     inkscape:cx="200"
     inkscape:cy="200"
     inkscape:window-width="1912"
     inkscape:window-height="1061"
     inkscape:window-x="2468"
     inkscape:window-y="245"
     inkscape:window-maximized="0"
     inkscape:current-layer="g78517"><inkscape:page
       x="0"
       y="0"
       id="page78515"
       width="400"
       height="400"
       margin="0"
       bleed="0" /></sodipodi:namedview><g
     id="g78517"
     inkscape:groupmode="layer"
     inkscape:label="Page 1"><path
       d="m 327.55416,227.89257 c 0.57909,-0.95974 1.63095,-3.59234 2.18219,-4.32061 2.40667,-3.18 3.96777,-5.82662 3.44378,-13.84796 -0.22934,-3.52 1.87333,-5.072 4.53466,-10.11333 3.312,-6.27733 9.416,-13.25333 9.24133,-30.34133 -0.17466,-17.08933 -4.18533,-31.736 -4.18533,-34.52667 0,-2.78933 6.452,-9.416 6.104,-12.032 -0.34933,-2.61466 -2.96533,-32.781329 -10.11467,-47.777329 -7.14933,-14.997332 -12.55466,-25.110666 -31.38666,-33.654665 -18.832,-8.544 -30.34133,-11.509333 -40.10667,-11.509333 -9.764,0 -36.26933,6.626666 -54.57866,23.541332 -18.30933,16.913333 -17.26267,34.699999 -17.088,50.219995 0.17333,15.51867 0.52267,32.78134 3.48667,39.93067 2.96399,7.14933 6.39733,16.78 10.09866,20.688 3.7,3.908 8.38533,6.68933 8.73333,8.25867 0.34934,1.56933 8.32505,26.42945 18.85896,36.92412 9.89435,9.26474 13.38976,13.66473 16.7031,15.4074 2.48533,1.308 21.79248,14.43576 38.97115,16.25976 5.72667,0.608 18.06619,-3.93612 20.94352,-4.19745 4.16397,-0.37844 10.77665,-3.30422 14.15864,-8.90927 z"
       style="fill:#cd976d;fill-opacity:1;fill-rule:nonzero;stroke:none;stroke-width:1.33333"
       id="path81497"
       sodipodi:nodetypes="scccssccssccsccccscs" /><path
       id="path81507"
       style="opacity:0.199997;fill:#000000;fill-opacity:1;fill-rule:nonzero;stroke:none;stroke-width:1.33333"
       d="m 265.08984,29.863281 c -3.3988,1.53513 -8.61646,1.466045 -12.49218,2.371094 -0.51722,0.138398 -0.98354,0.233596 -1.51368,0.384766 -0.99606,0.284414 -1.98763,0.580926 -2.9746,0.894531 -0.3462,0.110045 -0.68116,0.205048 -1.03126,0.320312 -0.0227,0.0074 -0.0456,0.01389 -0.0684,0.02148 -1.33632,0.438887 -2.66154,0.908567 -3.97852,1.40039 -0.64581,0.241348 -1.3035,0.512868 -1.95703,0.771485 -0.78021,0.308899 -1.55961,0.618233 -2.33203,0.945312 -0.64761,0.273906 -1.29951,0.566427 -1.95117,0.857422 -0.76765,0.342824 -1.53177,0.694193 -2.29102,1.054688 -0.7847,0.373215 -1.56987,0.753838 -2.35547,1.152343 -0.3638,0.185257 -0.72799,0.367944 -1.0918,0.558594 -1.11089,0.580639 -2.22221,1.179948 -3.32617,1.8125 -0.21718,0.124501 -0.43178,0.258173 -0.64844,0.384766 -0.954,0.5567 -1.9012,1.135876 -2.84374,1.732422 -0.32432,0.205648 -0.64795,0.41097 -0.97071,0.621093 -1.10335,0.718437 -2.20135,1.455441 -3.27929,2.230469 -0.006,0.0046 -0.0131,0.009 -0.0195,0.01367 -0.11859,0.0853 -0.2334,0.177561 -0.35156,0.263672 -1.00953,0.73442 -2.00282,1.497726 -2.98242,2.283203 -0.26777,0.214911 -0.53351,0.431875 -0.79883,0.650391 -1.06793,0.880091 -2.12327,1.779184 -3.14453,2.722656 -5.72166,5.285411 -9.55282,10.655466 -12.11133,16.015625 -2.4e-4,5.1e-4 2.5e-4,0.0014 0,0.002 -2.04633,4.287576 -3.27829,8.567935 -4.01172,12.792969 -1.1e-4,6.23e-4 1.1e-4,0.0013 0,0.002 -0.36657,2.112139 -0.6087,4.210941 -0.76562,6.289062 -0.0785,1.039337 -0.13684,2.073043 -0.17774,3.101563 -2e-5,6.45e-4 3e-5,0.0013 0,0.002 -0.16347,4.113391 -0.0648,8.13463 -0.0215,12.013671 1e-5,6.4e-4 -1e-5,10e-4 0,0.002 0.15166,13.57882 0.43926,28.49299 2.49414,36.79883 0.29356,1.18655 0.62364,2.23719 0.99414,3.13086 0.90527,2.18397 1.8917,4.64949 2.87891,7.0625 0.45968,1.12281 0.92678,2.23465 1.40234,3.33203 0.47125,1.08722 0.94599,2.16364 1.43164,3.17969 0.0778,0.16275 0.15426,0.33585 0.23242,0.49609 0.61126,1.25337 1.23565,2.39434 1.86719,3.44336 0.22439,0.37258 0.44901,0.74293 0.67578,1.08203 0.12132,0.18133 0.24332,0.36625 0.36524,0.53711 0.41168,0.5769 0.82529,1.11246 1.24414,1.55469 0.86011,0.90846 1.77604,1.74172 2.67578,2.52734 0.24752,0.21599 0.49229,0.43208 0.73633,0.63867 1.07145,0.90668 2.0288,1.70875 2.88672,2.43164 0.31115,0.26276 0.73947,0.60006 1,0.83789 0.093,0.0849 0.14293,0.15268 0.22851,0.23438 0.19216,0.1837 0.36931,0.36568 0.51953,0.5332 0.0891,0.0994 0.19104,0.2051 0.26367,0.29883 0.20381,0.26305 0.35092,0.50702 0.40625,0.72461 0.002,0.01 0.0154,0.0234 0.0176,0.0332 0.001,0.006 0.0219,0.0676 0.0234,0.0742 0.40513,1.73751 8.33972,26.39444 18.83398,36.84961 9.89434,9.26473 13.38979,13.66554 16.70313,15.4082 2.48533,1.308 21.79205,14.43577 38.9707,16.25977 5.72667,0.608 18.06799,-3.93594 20.94531,-4.19727 2.87633,-0.26141 6.90293,-1.76999 9.9729,-4.53233 3.06997,-2.76234 3.67321,-3.52911 4.18531,-4.37782 0.57909,-0.95974 1.39455,-3.11991 1.94579,-3.84818 1.82763,-2.41489 3.12979,-4.53103 3.70655,-9.22018 0.28971,-2.35539 1.3067,-4.74851 -0.0273,-6.9464 -0.35735,2.00955 -2.20294,5.51506 -3.97088,7.74119 -0.69195,0.92274 -0.96232,1.36229 -0.18156,3.05375 1.86469,4.03973 -0.60777,5.15121 -4.7011,7.13388 -6.67466,3.22933 -15.15377,3.73667 -22.37109,2.38867 -4.02667,-0.75067 -7.97822,-2.45964 -10.79688,-5.43164 -4.46933,-4.71199 -5.11957,-11.56795 -8.99023,-16.61328 -3.78933,-4.93866 -10.21104,-7.99199 -15.70703,-10.58398 -2.32,-1.09467 -3.10777,-3.02812 -5.1211,-4.55079 -1.25066,-0.94532 -2.49748,-1.83567 -3.66015,-2.90234 -3.04667,-2.79467 -5.73933,-6.00147 -8.11133,-9.38281 -5.00933,-7.13999 -9.4393,-16.19279 -8.2793,-25.16211 1.216,-9.40933 1.48472,-25.18685 4.35938,-35.21484 3.12933,-10.91866 -2.94378,-22.302428 -4.03711,-33.34375 -1.156,-11.662655 0.34025,-19.447647 4.79492,-30.292969 2.12666,-5.177328 4.75699,-10.197717 8.20898,-14.623047 1.78053,-2.282972 6.69264,-8.51518 10.47461,-10.230469 z"
       sodipodi:nodetypes="cccscccccscccccccccccccscscsscscscccsccssccccscsscccccsccscssssccccccccccccccc" /><path
       d="m 218.07999,171.66854 c 0,0 6.98134,19.168 13.424,29.85466 2.632,4.364 11.72123,13.47323 13.95056,15.73457 -15.14214,-9.99067 -23.86922,-23.2999 -27.37456,-45.58923 z"
       style="fill:#000000;fill-opacity:1;fill-rule:nonzero;stroke:none;stroke-width:1.33333"
       id="path81517"
       sodipodi:nodetypes="cccc" /><path
       id="path81521"
       style="fill:#000000;fill-opacity:1;fill-rule:nonzero;stroke:none;stroke-width:1.33333"
       d="m 264.94141,28.289062 c -22.97865,0 -71.41407,21.860351 -71.41407,65.181641 0,10.381317 -0.21222,20.794777 0.89844,31.134767 1.07734,10.02132 3.79136,20.05868 7.30469,29.5 1.512,4.06399 4.93028,9.69847 7.96094,12.45312 0.30934,0.28 1.24373,0.37543 1.5664,0.10743 0.21203,-0.176 0.18947,-0.4829 0.13477,-0.74024 -0.27466,-1.30666 -2.97617,-5.04191 -3.57617,-6.2539 -8.14399,-16.47999 -11.38255,-36.79998 -10.81055,-56.75196 0.0853,-2.969331 0.15625,-5.953689 0.15625,-8.929686 0,-44.199954 51.9435,-62.388625 69.27148,-62.640625 17.32799,-0.250666 49.97522,13.059544 62.78321,28.88086 12.80797,15.821317 17.0787,54.998251 17.83203,59.267581 0.75333,4.26933 -4.2701,12.80836 -5.02344,15.06836 -0.1533,0.46134 -0.0733,0.99346 -0.0703,1.46679 0.0413,6.43734 1.4938,12.74412 2.61914,19.05078 1.01466,5.69466 1.95581,15.53486 1.14648,21.35352 -1.552,11.16266 -4.96963,16.81423 -10.88178,26.85451 -1.32933,2.04133 -2.26089,3.52001 -2.38915,6.3142 0.21297,3.52965 -0.94001,6.50427 -2.47125,9.58129 -0.22223,-0.89431 -0.49554,-1.77453 -0.76758,-2.5957 -0.5748,-1.73505 -0.99626,-2.67531 -1.1836,-3.11133 l 1.04883,-5.80469 -3.30664,6.20508 c 0.50937,1.15558 0.77623,1.81206 1.35547,3.56055 0.64694,1.95281 0.71816,4.36339 0.60547,5.58007 -0.23615,2.54967 -1.51612,5.23248 -3.32227,7.08594 -1.91709,1.96732 -4.83163,3.21386 -7.7207,3.82617 -4.56171,0.96682 -9.57265,0.85738 -13.91211,-0.6289 -1.62092,-0.55518 -4.26575,-1.82444 -6.44922,-3.19922 -2.73069,-1.71934 -6.95703,-5.11328 -6.95703,-5.11328 0,0 3.4013,4.84832 5.51758,6.52343 2.11627,1.67513 4.67694,3.54146 7.01367,4.3418 1.50117,0.51416 3.05555,0.87799 4.63281,1.10742 -0.96884,0.2749 -2.01086,0.54523 -3.08203,0.7793 -7.6473,1.6711 -12.9184,1.18438 -21.77929,-0.58008 -5.37956,-1.07122 -12.37518,-3.69448 -18.60157,-7.26758 -6.22637,-3.57309 -11.52539,-6.66015 -11.52539,-6.66015 0,0 4.44176,4.62689 10.73828,8.24023 6.29654,3.61335 13.95116,7.59783 19.75782,9.09571 7.91994,2.043 15.99539,1.7382 23.90625,0.01 3.5205,-0.76931 7.69929,-2.67427 9.89257,-3.74609 0.47253,-0.0782 0.94303,-0.16313 1.40821,-0.26172 3.24163,-0.68704 6.63909,-2.06108 9.0957,-4.58203 1.70852,-1.75328 3.11228,-4.9389 3.76636,-7.33403 1.63458,-2.02742 2.32321,-2.83837 3.72365,-6.0727 1.92187,-4.43857 1.25762,-6.55128 1.80299,-9.09448 0.94939,-4.42724 2.6612,-6.95903 4.60787,-10.32835 2.48533,-4.3 4.91177,-9.49234 6.65577,-14.14701 3.38533,-9.03866 2.31263,-18.92539 0.91797,-28.24804 -1.00134,-6.68534 -4.50967,-14.95543 -3.15234,-21.7461 1.13066,-5.65066 4.93359,-8.46438 4.93359,-12.98437 0,-4.52133 -4.12285,-48.089414 -18.4375,-64.664063 -14.31466,-16.57465 -43.24207,-29.083985 -66.2207,-29.083985 z"
       sodipodi:nodetypes="cscccccccscsscccccscscccsssssscsscssscssccsscssccccsscc" /><path
       d="m 240.77413,154.90121 c 0,0 -1.70267,14.29733 3.024,20.99733 7.58933,10.756 19.53733,16.712 19.53733,16.712 0,0 -15.22133,-17.16667 -17.91067,-22.11467 -2.688,-4.948 -3.72666,-8.23066 -4.65066,-15.59466"
       style="fill:#000000;fill-opacity:1;fill-rule:nonzero;stroke:none;stroke-width:1.33333"
       id="path81525" /></g><g
     inkscape:groupmode="layer"
     id="layer1"
     inkscape:label="Image"
     style="display:none;opacity:0.5"
     sodipodi:insensitive="true"><image
       width="400"
       height="400"
       preserveAspectRatio="none"
       xlink:href="../../../../../../Pictures/STA%20Miniature%20Maker/Head10.png"
       id="image1"
       x="0"
       y="0" /></g><g
     inkscape:groupmode="layer"
     id="layer6"
     inkscape:label="Bolian Seam"
     style="display:inline"><path
       style="fill:#cd976d;fill-opacity:1;stroke:none;stroke-width:1px;stroke-linecap:butt;stroke-linejoin:miter;stroke-opacity:1"
       d="m 308.99992,233.5176 7.66066,-3.66245 3.09956,2.56501 c 0,0 -3.54052,4.63972 -4.55747,4.47023 -1.01695,-0.16949 -6.20275,-3.37279 -6.20275,-3.37279 z"
       id="path1898"
       sodipodi:nodetypes="cccsc" /><path
       style="fill:#000000;fill-opacity:0.2;stroke:none;stroke-width:1px;stroke-linecap:butt;stroke-linejoin:miter;stroke-opacity:1"
       d="m 308.99992,233.5176 7.66066,-3.66245 3.09956,2.56501 c 0,0 -3.54052,4.63972 -4.55747,4.47023 -1.01695,-0.16949 -6.20275,-3.37279 -6.20275,-3.37279 z"
       id="path93835"
       sodipodi:nodetypes="cccsc" /><path
       style="color:#000000;fill:#000000;-inkscape-stroke:none"
       d="m 316.5293,201.38772 -0.80078,0.006 c 0,0 0.0589,9.19637 0.51367,13.0586 0.45004,3.82246 2.047,7.76193 1.7095,12.66284 -0.33368,4.84538 -2.46399,8.79877 -2.46399,8.79877 l 1.04704,0.11053 c 0,0 1.86588,-3.77378 2.21578,-8.85461 0.34606,-5.02526 -1.27057,-9.05003 -1.71341,-12.81128 -0.43818,-3.72149 -0.50781,-12.9707 -0.50781,-12.9707 z"
       id="path1738"
       sodipodi:nodetypes="ccssccsscc" /><path
       style="color:#000000;fill:#000000;fill-opacity:0.2;-inkscape-stroke:none"
       d="m 313.64305,201.62957 c 0,0 0.0589,9.19637 0.51367,13.0586 0.45004,3.82246 2.047,7.76193 1.7095,12.66284 -0.33368,4.84538 -2.57084,9.16354 -2.57084,9.16354 l 1.70622,-0.18905 c 0,0 1.97272,-3.95878 2.32262,-9.03961 0.34606,-5.02526 -1.3305,-9.05003 -1.77334,-12.81128 -0.43818,-3.72149 -0.50781,-12.85085 -0.50781,-12.85085 z"
       id="path1894"
       sodipodi:nodetypes="cssccsscc" /><path
       style="color:#000000;fill:#000000;-inkscape-stroke:none"
       d="m 320.258,232.8963 c -2.1513,0.55258 -3.13364,1.82906 -3.93095,2.48811 -0.22527,0.19294 -0.73817,-0.005 -1.04382,0.002 -0.15274,-0.0227 -0.6213,0.24754 -0.72401,0.337 -1.714,-1.04228 -4.30878,-1.40911 -6.49738,-1.21113 l 0.10568,2.75929 c 1.78502,-0.0887 3.63291,0.70557 4.69079,1.59654 l 1.13086,0.95118 1.03711,-0.87696 1.11719,0.50391 0.84961,-1.05078 c 0.94619,-1.17154 2.33559,-2.35939 3.09481,-2.65559 z"
       id="path1896"
       sodipodi:nodetypes="ccccccccccccc" /></g></svg>
