<?xml version="1.0" encoding="UTF-8" standalone="no"?>
<!-- Created with Inkscape (http://www.inkscape.org/) -->

<svg
   version="1.1"
   id="svg78509"
   width="400"
   height="400"
   viewBox="0 0 400 400"
   sodipodi:docname="Head10.svg"
   inkscape:version="1.2.2 (b0a8486, 2022-12-01)"
   xml:space="preserve"
   xmlns:inkscape="http://www.inkscape.org/namespaces/inkscape"
   xmlns:sodipodi="http://sodipodi.sourceforge.net/DTD/sodipodi-0.dtd"
   xmlns="http://www.w3.org/2000/svg"
   xmlns:svg="http://www.w3.org/2000/svg"><defs
     id="defs78513" /><sodipodi:namedview
     id="namedview78511"
     pagecolor="#ffffff"
     bordercolor="#666666"
     borderopacity="1.0"
     inkscape:showpageshadow="2"
     inkscape:pageopacity="0.0"
     inkscape:pagecheckerboard="0"
     inkscape:deskcolor="#d1d1d1"
     showgrid="false"
     inkscape:zoom="2.1025"
     inkscape:cx="199.76219"
     inkscape:cy="200"
     inkscape:window-width="1905"
     inkscape:window-height="1061"
     inkscape:window-x="2468"
     inkscape:window-y="273"
     inkscape:window-maximized="0"
     inkscape:current-layer="svg78509"><inkscape:page
       x="0"
       y="0"
       id="page78515"
       width="400"
       height="400" /></sodipodi:namedview><g
     id="g78517"
     inkscape:groupmode="layer"
     inkscape:label="Page 1"><path
       d="m 264.12399,244.5408 c -0.2,-0.003 -19.64133,-15.92533 -22.92533,-18.51333 -8.632,-6.8 -13.34,-27.72533 -13.34,-27.72533 0,0 56.096,36.88533 71.23067,35.50933 0,0 -20.90134,10.88267 -34.96534,10.72933"
       style="fill:#cd976d;fill-opacity:1;fill-rule:nonzero;stroke:none;stroke-width:1.33333"
       id="path81473" /><path
       d="m 274.17679,241.76747 c -18.84,-2.372 -29.69466,-13.152 -32.97866,-15.74 -8.63067,-6.8 -13.34,-27.72533 -13.34,-27.72533 0,0 56.096,36.88533 71.23066,35.50933 0,0 -14.64933,9.248 -24.912,7.956"
       style="opacity:0.199997;fill:#000000;fill-opacity:1;fill-rule:nonzero;stroke:none;stroke-width:1.33333"
       id="path81483" /><path
       d="m 290.76279,233.13094 c 6.30267,0.808 12.37734,1.24266 16.888,0.83333 0,0 -30.532,12.10533 -43.52666,10.576 0,0 19.83066,-3.80267 26.63866,-11.40933"
       style="fill:#000000;fill-opacity:1;fill-rule:nonzero;stroke:none;stroke-width:1.33333"
       id="path81493" /><path
       d="m 311.20946,233.43867 c 5.00267,-0.45467 16.416,-3.50267 19.704,-7.84667 2.40667,-3.18 2.79066,-7.84666 2.26667,-15.868 -0.22934,-3.52 1.87333,-5.072 4.53466,-10.11333 3.312,-6.27733 9.416,-13.25333 9.24133,-30.34133 -0.17466,-17.08933 -4.18533,-31.736 -4.18533,-34.52667 0,-2.78933 6.452,-9.416 6.104,-12.032 -0.34933,-2.61466 -2.96533,-32.781329 -10.11467,-47.777329 -7.14933,-14.997332 -12.55466,-25.110666 -31.38666,-33.654665 -18.832,-8.544 -30.34133,-11.509333 -40.10667,-11.509333 -9.764,0 -36.26933,6.626666 -54.57866,23.541332 -18.30933,16.913333 -17.26267,34.699999 -17.088,50.219995 0.17333,15.51867 0.52267,32.78134 3.48667,39.93067 2.96399,7.14933 6.39733,16.78 10.09866,20.688 3.7,3.908 8.38533,6.68933 8.73333,8.25867 0.34934,1.56933 7.49467,25.96266 16.84934,36.45733 8.36133,9.38266 15.04266,14.36933 18.356,16.112 2.48533,1.308 19.45866,6.46266 36.63733,8.28666 5.72667,0.608 18.57067,0.436 21.448,0.17467"
       style="fill:#cd976d;fill-opacity:1;fill-rule:nonzero;stroke:none;stroke-width:1.33333"
       id="path81497" /><path
       d="m 241.28973,153.56841 c 1.216,-9.40934 1.484,-25.18667 4.35866,-35.21467 3.12934,-10.91867 -2.944,-22.302666 -4.03733,-33.343999 -1.156,-11.662666 0.34,-19.446666 4.79467,-30.291999 2.12666,-5.177333 4.75733,-10.198666 8.20933,-14.624 1.78133,-2.284 6.69867,-8.519999 10.48133,-10.231999 -3.57466,1.617333 -9.21066,1.424 -13.12933,2.493333 -0.032,0.008 -0.0653,0.01733 -0.0973,0.02667 -0.0187,0.0053 -0.036,0.01067 -0.0533,0.016 -1.42666,0.394666 -2.84266,0.824 -4.25066,1.278666 -0.0347,0.01067 -0.068,0.02133 -0.10134,0.032 -0.152,0.05067 -0.30266,0.096 -0.45466,0.146667 -1.36,0.446666 -2.70934,0.925333 -4.04934,1.426666 -0.28533,0.106667 -0.57333,0.22 -0.86,0.329334 -1.22933,0.473333 -2.45066,0.966666 -3.66133,1.484 -0.224,0.096 -0.448,0.190666 -0.67333,0.288 -1.376,0.6 -2.74,1.224 -4.08934,1.88 -0.012,0.0067 -0.024,0.012 -0.036,0.01733 -0.044,0.02133 -0.088,0.04133 -0.132,0.064 -0.12,0.05867 -0.24266,0.121333 -0.368,0.182667 -0.824,0.408 -1.648,0.830666 -2.472,1.266666 -0.124,0.06533 -0.24666,0.130667 -0.37066,0.196 -0.816,0.436 -1.632,0.882667 -2.444,1.346667 -0.016,0.008 -0.0307,0.01733 -0.0467,0.02533 -0.844,0.482667 -1.684,0.981334 -2.52,1.494667 -0.11867,0.07333 -0.236,0.148 -0.35467,0.221333 -0.684,0.425334 -1.36533,0.861334 -2.04266,1.306667 -0.18534,0.122667 -0.372,0.244 -0.556,0.368 -0.74134,0.496 -1.47867,1.002666 -2.20667,1.524 -0.048,0.03333 -0.0947,0.06533 -0.14267,0.1 -0.768,0.552 -1.52666,1.121333 -2.27866,1.704 -0.19334,0.149333 -0.384,0.302666 -0.576,0.453333 -0.56667,0.448 -1.12934,0.904 -1.68534,1.368 -0.20933,0.174667 -0.41866,0.348 -0.62533,0.524 -0.72,0.616 -1.43333,1.24 -2.13067,1.885333 -18.30933,16.913333 -17.26266,34.699999 -17.08933,50.218668 0.17467,15.52 0.524,32.78267 3.488,39.932 2.408,5.80933 5.12667,13.256 8.04533,17.94 0.67467,1.08133 1.35867,2.01467 2.052,2.748 2.544,2.68667 5.55467,4.84133 7.3,6.43467 0.79334,0.724 1.32667,1.33333 1.43467,1.824 0.34933,1.56933 7.49467,25.96266 16.84933,36.45733 8.36134,9.38133 15.04267,14.368 18.356,16.112 3.31334,1.744 37.43734,10.324 48.94534,9.27733 0.55333,-0.0493 10.24933,-0.92667 10.80666,-0.99867 2.276,-0.29333 4.51467,-1.20133 6.77334,-1.38266 1.84266,-0.14667 3.14933,0.0307 4.90666,-0.892 3.26,-1.71334 5.69734,-4.84934 7.79467,-7.788 2.04666,-2.86667 1.52533,-6.23734 0.60533,-9.40667 -0.38533,-1.32933 -0.416,-2.93067 -0.86,-4.15867 -0.48,-1.33066 -1.792,-2.28133 -2.63733,-3.36933 0.86667,2.58267 1.45467,5.43733 1.45467,8.52267 0,4.44933 -2.49334,9.04133 -6.58667,11.024 -6.67467,3.22933 -15.15467,3.73733 -22.372,2.38933 -4.02667,-0.75067 -7.97867,-2.46 -10.79733,-5.432 -4.46934,-4.712 -5.12,-11.56667 -8.99067,-16.612 -3.78933,-4.93867 -10.20933,-7.99333 -15.70533,-10.58533 -2.32,-1.09467 -3.10934,-3.028 -5.12267,-4.55067 -1.25067,-0.94533 -2.49733,-1.83466 -3.66,-2.90133 -3.04667,-2.79467 -5.73867,-6.00133 -8.11067,-9.38267 -5.00933,-7.14 -9.43866,-16.19333 -8.27866,-25.16266"
       style="opacity:0.199997;fill:#000000;fill-opacity:1;fill-rule:nonzero;stroke:none;stroke-width:1.33333"
       id="path81507" /><path
       d="m 246.16799,215.65254 c -16.39066,-7.672 -24.58266,-21.69467 -28.088,-43.984 0,0 6.98134,19.168 13.424,29.85466 2.632,4.364 12.43467,11.868 14.664,14.12934"
       style="fill:#000000;fill-opacity:1;fill-rule:nonzero;stroke:none;stroke-width:1.33333"
       id="path81517" /><path
       d="m 248.60933,222.80187 c 15.51866,5.05733 28.44666,7.624 43.768,9.59067 4.93733,0.63333 16.41866,0.064 21.376,-0.38934 4.95733,-0.452 9.95333,-2.08933 13.60533,-5.47333 3.65067,-3.38267 5.71067,-8.708 4.38133,-13.504 -0.32666,-1.17867 -0.84533,-2.31867 -0.94133,-3.53733 -0.192,-2.42934 1.296,-4.62667 2.62533,-6.668 6.148,-9.45067 10.744,-15.22133 12.296,-26.384 0.80933,-5.81867 -0.13067,-15.65867 -1.14533,-21.35333 -1.12534,-6.30667 -2.57734,-12.612 -2.61867,-19.04934 -0.003,-0.47333 -0.084,-1.00666 0.0693,-1.468 0.75334,-2.26 5.776,-10.79866 5.02267,-15.068 -0.75333,-4.26933 -5.02267,-43.445329 -17.83066,-59.266662 -12.808,-15.821332 -45.456,-29.131999 -62.784,-28.881332 -17.328,0.252 -69.27067,18.439999 -69.27067,62.639998 0,2.976 -0.072,5.96 -0.15733,8.929336 -0.572,19.952 2.66667,40.27333 10.81066,56.75333 0.6,1.212 3.30134,4.94667 3.576,6.25333 0.0547,0.25734 0.0787,0.564 -0.13333,0.74 -0.32267,0.268 -1.25733,0.172 -1.56667,-0.108 -3.03066,-2.75466 -6.44933,-8.38933 -7.96133,-12.45333 -3.51333,-9.44133 -6.22666,-19.47867 -7.304,-29.5 -1.11066,-10.34 -0.89866,-20.752 -0.89866,-31.133332 0,-43.321333 48.43466,-65.182665 71.41333,-65.182665 22.97866,0 51.90666,12.510666 66.22133,29.085332 14.31466,16.574666 18.43733,60.141335 18.43733,64.662665 0,4.52 -3.804,7.33333 -4.93467,12.984 -1.35733,6.79067 2.152,15.06133 3.15334,21.74667 1.39466,9.32266 2.46666,19.21066 -0.91867,28.24933 -1.744,4.65467 -3.93467,9.13867 -6.42,13.43867 -1.94667,3.36933 -5.38267,6.91466 -5.78667,10.91866 -0.26,2.588 0.0667,5.20267 -0.104,7.79867 -0.25866,3.96266 -1.73466,7.88666 -4.39466,10.83466 -3.04267,3.37334 -7.43733,5.29334 -11.90533,6.116 -4.46667,0.824 -13.704,2.01067 -18.24,1.75734 -17.576,-0.98667 -36.792,-4.18534 -51.44,-13.07867"
       style="fill:#000000;fill-opacity:1;fill-rule:nonzero;stroke:none;stroke-width:1.33333"
       id="path81521" /><path
       d="m 240.77413,154.90121 c 0,0 -1.70267,14.29733 3.024,20.99733 7.58933,10.756 19.53733,16.712 19.53733,16.712 0,0 -15.22133,-17.16667 -17.91067,-22.11467 -2.688,-4.948 -3.72666,-8.23066 -4.65066,-15.59466"
       style="fill:#000000;fill-opacity:1;fill-rule:nonzero;stroke:none;stroke-width:1.33333"
       id="path81525" /></g><g
     inkscape:groupmode="layer"
     id="layer6"
     inkscape:label="Bolian Seam"><path
       style="fill:#cd976d;fill-opacity:1;stroke:none;stroke-width:1px;stroke-linecap:butt;stroke-linejoin:miter;stroke-opacity:1"
       d="m 308.882,232.22043 7.66066,-3.66245 3.09956,2.56501 c 0,0 -3.54052,4.63972 -4.55747,4.47023 -1.01695,-0.16949 -6.20275,-3.37279 -6.20275,-3.37279 z"
       id="path1898"
       sodipodi:nodetypes="cccsc" /><path
       style="fill:#000000;fill-opacity:0.2;stroke:none;stroke-width:1px;stroke-linecap:butt;stroke-linejoin:miter;stroke-opacity:1"
       d="m 308.882,232.22043 7.66066,-3.66245 3.09956,2.56501 c 0,0 -3.54052,4.63972 -4.55747,4.47023 -1.01695,-0.16949 -6.20275,-3.37279 -6.20275,-3.37279 z"
       id="path93835"
       sodipodi:nodetypes="cccsc" /><path
       style="color:#000000;fill:#000000;-inkscape-stroke:none"
       d="m 316.5293,200.91602 -0.80078,0.006 c 0,0 0.0589,9.19637 0.51367,13.0586 0.45004,3.82246 1.33945,7.64401 1.00195,12.54492 -0.33368,4.84538 -2.83922,8.71538 -2.83922,8.71538 l 1.04704,0.11053 c 0,0 2.24111,-3.69039 2.59101,-8.77122 0.34606,-5.02526 -0.56302,-8.93211 -1.00586,-12.69336 -0.43818,-3.72149 -0.50781,-12.9707 -0.50781,-12.9707 z"
       id="path1738"
       sodipodi:nodetypes="ccssccsscc" /><path
       style="color:#000000;fill:#000000;fill-opacity:0.2;-inkscape-stroke:none"
       d="m 313.52513,200.92202 c 0,0 0.0589,9.19637 0.51367,13.0586 0.45004,3.82246 1.33945,7.64401 1.00195,12.54492 -0.33368,4.84538 -2.7793,8.95508 -2.7793,8.95508 l 1.70622,-0.18905 c 0,0 2.18118,-3.75032 2.53108,-8.83115 0.34606,-5.02526 -0.62295,-8.93211 -1.06579,-12.69336 -0.43818,-3.72149 -0.50781,-12.85085 -0.50781,-12.85085 z"
       id="path1894"
       sodipodi:nodetypes="cssccsscc" /><path
       style="color:#000000;fill:#000000;-inkscape-stroke:none"
       d="m 320.36877,230.71766 c -2.19299,0.17735 -2.96687,2.07922 -3.76418,2.73827 -0.22527,0.19294 -0.73817,-0.005 -1.04382,0.002 -0.15274,-0.0227 -0.6213,0.24754 -0.72401,0.337 -1.714,-1.04228 -4.14201,-1.61757 -6.33061,-1.41959 l -0.0194,3.09283 c 1.78502,-0.0887 3.59122,0.58049 4.6491,1.47146 l 1.13086,0.95118 1.03711,-0.87696 1.11719,0.50391 0.84961,-1.05078 c 0.94619,-1.17154 2.41898,-2.73462 3.1782,-2.82236 z"
       id="path1896"
       sodipodi:nodetypes="ccccccccccccc" /><path
       style="color:#000000;fill:#000000;-inkscape-stroke:none"
       d="m 284.64844,232.74414 c 0,0 -5.6212,4.48244 -10.58203,6.35352 -5.03119,1.89759 -12.1225,3.80385 -12.1225,3.80385 l 0.79363,0.56324 c 0,0 6.51591,-1.69695 11.61207,-3.61905 5.16651,-1.94864 10.79883,-6.47851 10.79883,-6.47851 z"
       id="path94606"
       sodipodi:nodetypes="csccscc" /><path
       style="color:#000000;fill:#000000;fill-opacity:0.2;-inkscape-stroke:none"
       d="m 282.599,231.78774 c 0,0 -5.25335,4.17765 -10.21418,6.04873 -5.03119,1.89759 -11.94383,3.78283 -11.94383,3.78283 l 1.09842,0.89956 c 0,0 6.45285,-1.67593 11.54901,-3.59803 5.16651,-1.94864 10.79883,-6.47851 10.79883,-6.47851 z"
       id="path94613"
       sodipodi:nodetypes="csccscc" /></g></svg>
