<?xml version="1.0" encoding="UTF-8" standalone="no"?>
<!-- Created with Inkscape (http://www.inkscape.org/) -->

<svg
   version="1.1"
   id="svg142922"
   width="400"
   height="400"
   viewBox="0 0 400 400"
   sodipodi:docname="Head3.svg"
   inkscape:version="1.2.2 (b0a8486, 2022-12-01)"
   xmlns:inkscape="http://www.inkscape.org/namespaces/inkscape"
   xmlns:sodipodi="http://sodipodi.sourceforge.net/DTD/sodipodi-0.dtd"
   xmlns="http://www.w3.org/2000/svg"
   xmlns:svg="http://www.w3.org/2000/svg">
  <defs
     id="defs142926" />
  <sodipodi:namedview
     id="namedview142924"
     pagecolor="#ffffff"
     bordercolor="#666666"
     borderopacity="1.0"
     inkscape:showpageshadow="2"
     inkscape:pageopacity="0.0"
     inkscape:pagecheckerboard="0"
     inkscape:deskcolor="#d1d1d1"
     showgrid="false"
     inkscape:zoom="2.265"
     inkscape:cx="199.77925"
     inkscape:cy="200"
     inkscape:window-width="1930"
     inkscape:window-height="1126"
     inkscape:window-x="2069"
     inkscape:window-y="223"
     inkscape:window-maximized="0"
     inkscape:current-layer="layer6">
    <inkscape:page
       x="0"
       y="0"
       id="page142928"
       width="400"
       height="400" />
  </sodipodi:namedview>
  <g
     id="g142930"
     inkscape:groupmode="layer"
     inkscape:label="Page 1">
    <path
       d="m 267.70199,222.64187 c 6.236,3.04133 21.72267,9.98267 24.852,10.92133 3.44,1.032 7.348,1.24934 10.62667,1.24934 11.52267,0 14.56667,-3.94267 15.77333,-4.94667 1.332,-1.11733 8.54134,-9.93467 9.45867,-15.22133 0.46933,-2.70267 1.63333,-4.73734 1.95067,-6.116 0.38,-1.64267 1.92,-5.27734 4.05199,-10.308 4.27334,-10.08667 10.732,-25.328 10.98267,-32.852 0.184,-5.496 -0.52933,-11.57333 -1.15867,-16.936 -0.34533,-2.94 -0.66266,-5.66533 -0.808,-8.03733 0.12,0.26533 0.20267,0.532 0.204,0.79333 0.016,-1.38267 -0.53733,-3.03867 0,-5.20933 0.49467,-1.51467 0.72667,-3.096 1.27734,-4.61334 0.30133,-0.83333 0.84133,-1.77466 1.11066,-2.72933 0.13467,-0.24533 0.26934,-0.49067 0.4,-0.72667 1.12267,-2.02133 2.09067,-3.768 2.09067,-5.87333 0,-1.95333 -0.956,-13.81733 -3.828,-27.589332 -2.476,-11.878667 -6.97467,-27.829333 -14.34533,-36.363999 -13.904,-16.098667 -42.63067,-28.709333 -65.39867,-28.709333 -23.87066,0 -70.32933,22.623999 -70.32933,64.097332 0,5.121333 0.47334,10.244002 0.66,15.346662 0.22934,6.31067 1.13334,12.572 2.00934,18.81867 0.828,5.89733 1.05466,11.95467 2.50266,17.74267 0.52267,2.09333 7.96533,18.804 10.52533,20.47733 2.55867,1.672 6.89467,2.30667 7.90534,6.12933 1.012,3.82267 11.92266,23.65334 14.316,26.23467 8.77066,9.45866 35.17066,24.42133 35.17066,24.42133"
       style="fill:#cd976d;fill-opacity:1;fill-rule:nonzero;stroke:none;stroke-width:1.33333"
       id="path143958" />
    <path
       d="m 257.05253,30.079609 c -3.80534,0.624 -7.904,1.670667 -12.116,3.12 -0.12267,0.04267 -0.244,0.08133 -0.36534,0.124 -0.69866,0.245333 -1.40266,0.505333 -2.10666,0.772 -0.20934,0.07867 -0.41867,0.157333 -0.628,0.237333 -0.664,0.257334 -1.32934,0.526667 -1.996,0.804 -0.24934,0.102667 -0.5,0.208 -0.75067,0.314667 -0.64533,0.274667 -1.292,0.558667 -1.93867,0.852 -0.268,0.121333 -0.536,0.246667 -0.80266,0.372 -0.64,0.297333 -1.28,0.6 -1.91867,0.916 -0.26667,0.132 -0.532,0.269333 -0.79733,0.404 -0.64534,0.325333 -1.28934,0.654667 -1.93067,0.998667 -0.23333,0.125333 -0.46533,0.258666 -0.69867,0.385333 -0.676,0.370667 -1.352,0.742667 -2.024,1.133333 -0.0333,0.02 -0.0667,0.04133 -0.10133,0.06133 -1.66133,0.968 -3.30533,1.998666 -4.92133,3.089333 -0.0333,0.02133 -0.0667,0.04267 -0.1,0.06533 -0.572,0.386667 -1.136,0.792 -1.70134,1.194667 -0.31066,0.222667 -0.62533,0.438667 -0.93333,0.665333 -0.512,0.374667 -1.01467,0.764 -1.51867,1.152 -0.35333,0.272 -0.708,0.541333 -1.05733,0.82 -0.47867,0.38 -0.94933,0.770667 -1.41867,1.162667 -0.364,0.304 -0.72666,0.608 -1.084,0.917333 -0.45333,0.392 -0.90133,0.792 -1.34533,1.194667 -0.36133,0.326666 -0.71867,0.658666 -1.07333,0.993333 -0.432,0.406667 -0.86,0.817333 -1.28267,1.234667 -0.352,0.349333 -0.69733,0.704 -1.04267,1.06 -0.41066,0.424 -0.82,0.848 -1.22,1.281333 -0.34,0.368 -0.66933,0.746667 -1,1.122667 -0.38933,0.44 -0.78,0.877333 -1.156,1.326666 -0.32533,0.389334 -0.63733,0.790667 -0.95333,1.186667 -0.364,0.456 -0.73467,0.905333 -1.08533,1.370666 -0.31067,0.410667 -0.60134,0.837334 -0.9,1.254667 -0.63334,0.884 -1.24267,1.784 -1.82934,2.701333 -0.28266,0.444 -0.57333,0.881334 -0.84533,1.332 -0.29467,0.489334 -0.56667,0.992 -0.84667,1.490667 -0.25866,0.458667 -0.52133,0.914667 -0.76666,1.382667 -0.268,0.508 -0.51734,1.028 -0.76934,1.545333 -0.23066,0.473333 -0.46266,0.948 -0.67999,1.429333 -0.23867,0.528 -0.464,1.064 -0.68534,1.601334 -0.20266,0.489333 -0.40133,0.981333 -0.59066,1.478666 -0.208,0.546667 -0.40534,1.097333 -0.596,1.653333 -0.17334,0.505334 -0.336,1.016 -0.49467,1.528 -0.17467,0.565334 -0.34533,1.133334 -0.50133,1.708 -0.14134,0.521334 -0.26934,1.050667 -0.39467,1.58 -0.14,0.581334 -0.28,1.162667 -0.4,1.753334 -0.10933,0.542666 -0.19733,1.093333 -0.292,1.642666 -0.1,0.596 -0.20933,1.189334 -0.29067,1.794667 -0.0773,0.569333 -0.12533,1.152 -0.184,1.730666 -0.06,0.601334 -0.136,1.196 -0.17733,1.806667 -0.08,1.198667 -0.128,2.413333 -0.128,3.645333 0,5.121334 0.47333,10.245333 0.66,15.346663 0.25467,7.012 1.72533,13.99733 2.32533,20.976 0.45067,5.22267 0.912,10.48933 2.18667,15.58667 0.52266,2.09333 7.96533,18.804 10.52533,20.476 2.55867,1.67333 6.89467,2.30666 7.90533,6.12933 1.012,3.82267 11.92267,23.65467 14.316,26.23467 8.77067,9.45999 35.17067,24.42266 35.17067,24.42266 6.236,3.04133 21.72267,9.98133 24.852,10.92 3.44,1.032 7.348,1.25067 10.62667,1.25067 2.77066,0 5.04,-0.232 6.92266,-0.592 -34.19733,-8.64 -47.11866,-41.94933 -49.636,-47.68933 -8.71866,-19.87867 -15.49733,-26.92267 -17.028,-32.74534 -2.86266,-10.88533 -3.46266,-13.78133 -2.09466,-23.252 0.908,-6.29466 3.77733,-7.24266 4.304,-12.18133 1.20133,-11.29333 -2.944,-22.302663 -4.03734,-33.343996 -1.15733,-11.662666 0.34,-19.446666 4.79467,-30.290666 2.12667,-5.178666 4.75733,-10.199999 8.20933,-14.625333 2.088,-2.674666 8.488,-10.802666 12.312,-10.683999 -0.66666,-0.02133 -1.32933,-0.03467 -1.98533,-0.03467 -0.532,0 -1.08667,0.02533 -1.64,0.048 -2.06,0.102667 -4.15067,0.373333 -6.24933,0.657333"
       style="opacity:0.199997;fill:#000000;fill-opacity:1;fill-rule:nonzero;stroke:none;stroke-width:1.33333"
       id="path143968" />
    <path
       d="m 344.66599,135.02067 c 1.13067,-5.65066 4.824,-8.46533 4.93467,-12.984 0.42133,-17.348 -4.124,-48.087995 -18.43867,-64.662661 -14.31466,-16.574667 -43.24133,-29.085333 -66.22,-29.085333 -22.97866,0 -71.41466,21.861333 -71.41466,65.181332 0,14.761332 1.812,31.064002 2.81333,38.526662 1.41334,15.38267 6.84933,26.53334 9.90133,30.68934 0.64,0.872 1.548,1.896 2.372,2.876 0.436,0.51733 0.94267,1.096 2.34,1.27733 0.392,0.0507 1.08,-0.69733 -0.0893,-2.288 -9.65333,-13.11867 -11.72666,-37.78933 -12.24266,-42.484 -0.096,-5.56667 -1.45867,-20.96267 -1.45867,-28.077332 0,-44.199999 51.94133,-62.387999 69.27066,-62.639999 17.328,-0.250666 48.52534,14.352 62.78267,28.881333 12.772,13.013333 16.892,40.550668 17.83066,59.266668 0.21734,4.33066 -4.26933,12.808 -5.02266,15.068 -0.75334,2.26 1.45866,10.06266 1.752,26.33333 0.188,10.47067 -5.90934,21.924 -7.75467,26.40533 -2.856,6.93467 -5.18533,13.96933 -7.46133,21.09867 -2.204,6.904 -5.04133,13.80266 -9.95067,19.252 -1.74533,1.93733 -3.77466,3.69066 -6.19333,4.664 -2.34667,0.944 -4.936,1.10666 -7.46667,1.03866 -13.21733,-0.356 -25.624,-6.67466 -37.032,-12.82933 -7.43733,-4.012 -14.61466,-8.508 -21.46933,-13.45067 -6.76,-4.87333 -13.29333,-9.81333 -17.74667,-16.99199 -3.81333,-6.14934 -6.59333,-12.39467 -10.62133,-18.41734 1.65467,2.47467 2.112,6.38934 3.172,9.22667 1.38133,3.7 2.73067,8.088 4.756,11.464 3.11733,5.19467 6.72,8.768 11.17333,12.69733 7.244,6.39467 15.748,10.752 23.97867,15.68933 3.504,2.10134 7.05467,4.12667 10.66667,6.03867 9.79733,5.18667 20.36933,9.29867 31.42266,10.14667 3.82934,0.29333 7.8,0.16933 11.328,-1.348 3.54534,-1.52534 6.38534,-4.352 8.684,-7.452 6.59867,-8.892 9.16534,-19.87467 12.716,-30.16533 3.69067,-10.69734 9.98133,-20.98934 10.50533,-32.56134 1.00134,-22.072 -2.948,-24.73333 -1.81733,-30.384"
       style="fill:#000000;fill-opacity:1;fill-rule:nonzero;stroke:none;stroke-width:1.33333"
       id="path143978" />
    <path
       d="m 243.28306,153.19467 c 0,0 0.732,7.45867 5.83467,13.40134 5.10133,5.944 12.964,24.056 12.964,24.056 l -9.75067,-24.69867 c 0,0 -5.184,-5.28667 -9.048,-12.75867"
       style="fill:#000000;fill-opacity:1;fill-rule:nonzero;stroke:none;stroke-width:1.33333"
       id="path143982" />
  </g>
  <g
     inkscape:groupmode="layer"
     id="layer6"
     inkscape:label="Bolian Seam">
    <path
       style="fill:#cd976d;fill-opacity:1;stroke:none;stroke-width:1px;stroke-linecap:butt;stroke-linejoin:miter;stroke-opacity:1"
       d="m 306.79156,233.51595 7.6625,-4.83946 2.98065,3.60544 c 0,0 -3.54052,4.63972 -4.55747,4.47023 -1.01695,-0.16949 -6.08568,-3.23621 -6.08568,-3.23621 z"
       id="path1898"
       sodipodi:nodetypes="cccsc" />
    <path
       style="color:#000000;fill:#000000;-inkscape-stroke:none"
       d="m 316.5293,200.91602 -0.80078,0.006 c 0,0 -0.54816,9.19637 -0.0934,13.0586 0.45004,3.82246 0.67719,7.47845 0.33969,12.37936 -0.33368,4.84538 -2.83922,8.71538 -2.83922,8.71538 l 1.04704,0.11053 c 0,0 2.24111,-3.69039 2.59101,-8.77122 0.34606,-5.02526 0.0992,-8.76655 -0.3436,-12.5278 -0.43818,-3.72149 0.0992,-12.9707 0.0992,-12.9707 z"
       id="path1738"
       sodipodi:nodetypes="ccssccsscc" />
    <path
       style="color:#000000;fill:#000000;fill-opacity:0.2;-inkscape-stroke:none"
       d="m 313.52513,200.92202 c 0,0 -0.27223,9.19637 0.18254,13.0586 0.45004,3.82246 0.51164,7.64401 0.17414,12.54492 -0.33368,4.84538 -2.7793,8.95508 -2.7793,8.95508 l 1.70622,-0.18905 c 0,0 2.18118,-3.75032 2.53108,-8.83115 0.34606,-5.02526 0.20486,-8.93211 -0.23798,-12.69336 -0.43818,-3.72149 -0.17668,-12.85085 -0.17668,-12.85085 z"
       id="path1894"
       sodipodi:nodetypes="cssccsscc" />
    <path
       style="color:#000000;fill:#000000;-inkscape-stroke:none"
       d="m 316.95567,229.79226 c -2.19299,0.17735 -1.81647,3.50131 -2.55859,4.82261 -0.22527,0.19294 -0.73817,-0.005 -1.04382,0.002 -0.15274,-0.0227 -0.6213,0.24754 -0.72401,0.337 -1.714,-1.04228 -3.81863,-1.70675 -6.00723,-1.59795 l 0.3494,3.68926 c 1.78502,-0.0887 2.95846,0.40023 4.01634,1.2912 l 1.13086,0.95118 1.03711,-0.87696 1.11719,0.50391 0.84961,-1.05078 c 0.94619,-1.17154 2.1601,-4.22869 2.91932,-4.31643 z"
       id="path1896"
       sodipodi:nodetypes="ccccccccccccc" />
  </g>
</svg>
