<?xml version="1.0" encoding="UTF-8" standalone="no"?>
<!-- Generator: Adobe Illustrator 28.3.0, SVG Export Plug-In . SVG Version: 6.00 Build 0)  -->

<svg
   version="1.1"
   id="Head_Kelpiens_Male_1"
   x="0px"
   y="0px"
   viewBox="0 0 400 400"
   enable-background="new 0 0 300 300"
   xml:space="preserve"
   sodipodi:docname="KelpienMale.svg"
   width="400"
   height="400"
   inkscape:version="1.3.2 (091e20e, 2023-11-25)"
   xmlns:inkscape="http://www.inkscape.org/namespaces/inkscape"
   xmlns:sodipodi="http://sodipodi.sourceforge.net/DTD/sodipodi-0.dtd"
   xmlns="http://www.w3.org/2000/svg"
   xmlns:svg="http://www.w3.org/2000/svg"><defs
   id="defs64">
	

	

	

	
</defs><sodipodi:namedview
   id="namedview64"
   pagecolor="#ffffff"
   bordercolor="#666666"
   borderopacity="1.0"
   inkscape:showpageshadow="2"
   inkscape:pageopacity="0.0"
   inkscape:pagecheckerboard="0"
   inkscape:deskcolor="#d1d1d1"
   showgrid="false"
   inkscape:zoom="2.1175"
   inkscape:cx="200"
   inkscape:cy="200"
   inkscape:window-width="1920"
   inkscape:window-height="1080"
   inkscape:window-x="2364"
   inkscape:window-y="181"
   inkscape:window-maximized="0"
   inkscape:current-layer="layer1" />




































































<g
   inkscape:groupmode="layer"
   id="layer1"
   inkscape:label="Kelpien Head"><path
     fill="#cd976d"
     d="m 194.61333,93.470664 c 0,-41.473332 46.45866,-64.095998 70.328,-64.095998 22.76933,0 51.496,12.610666 65.39866,28.709333 7.37067,8.534666 11.86933,24.485332 14.34533,36.363999 2.87067,13.772002 3.828,25.636002 3.828,27.589332 0,2.10533 -0.96933,3.852 -2.092,5.87467 -0.13066,0.236 -0.26533,0.48133 -0.39866,0.72666 -0.26934,0.95467 -0.80934,1.896 -1.112,2.72934 -0.55067,1.51866 -0.78267,3.1 -1.27734,4.61333 -0.53733,2.17067 0.016,3.82667 0,5.20933 0,-0.204 -0.06,-0.43866 -0.15466,-0.612 0.088,2.00267 1.356,3.752 2.12666,5.54 0.84534,1.96 0.57734,4.03734 -0.17466,6.148 -0.78,2.18667 -0.82267,4.00934 0.13866,6.36134 0.95334,2.32933 3.37467,4.12266 3.412,6.77466 0.048,3.46667 -2.25866,6.476 -4.13733,9.18667 -0.82133,1.184 -1.484,2.61467 -2.36667,3.72267 -1.152,1.44533 -2.81466,2.30533 -3.12666,4.324 -0.32534,2.10533 -0.29067,3.72266 -0.99467,5.79733 -1.30533,3.85067 -2.864,7.564 -3.42933,11.68266 -0.392,2.856 -1.048,5.67067 -1.968,8.404 -0.444,1.31867 -0.892,2.28267 -0.80267,3.668 0.076,1.192 0.21867,2.54267 -0.224,3.68267 -0.296,0.76267 -0.90266,1.17067 -1.38933,1.79067 -1.42667,1.816 -1.916,4.13466 -2.24933,6.35066 -0.49867,3.32 -1.24,5.93334 -4.16534,7.888 -0.78,0.52134 -1.64,0.91334 -2.53466,1.19334 -0.78134,0.24533 -1.89334,0.16666 -2.70134,0.0333 -1.68533,-0.27733 -3.26666,-0.88133 -4.85466,-1.492 -0.54,-0.208 -1.116,-0.40667 -1.69734,-0.46267 -0.48266,-0.0453 -1.00933,0.13067 -1.47466,0.23067 -1.55467,0.33467 -3.01867,1.05867 -4.50934,1.60933 -1.00133,0.36934 -2.07333,0.452 -3.10666,0.692 -1.00134,0.232 -2.14534,0.0267 -3.17334,-0.04 -1.98933,-0.13066 -3.97466,-0.31333 -5.952,-0.57066 -3.25333,-0.42534 -12.892,-4.07334 -19.12933,-7.36267 -2.168,-1.14267 -4.19067,-2.77867 -6.416,-3.69333 -3.78667,-1.55467 -8.024,-1.596 -11.74133,-3.43467 -3.016,-1.492 -4.59067,-4.544 -6.87734,-6.836 -2.732,-2.73867 -7.15466,-4.47333 -10.51066,-6.436 -3.068,-1.79467 -6.136,-3.592 -9.168,-5.44533 -1.21734,-0.744 -3.152,-1.53333 -4.068,-2.67867 -2.32934,-2.91066 -3.228,-8.10266 -4.36934,-11.56266 -0.84933,-2.57467 -1.54133,-5.216 -2.43333,-7.77467 -0.85333,-2.45067 -3.34,-3.31067 -5.73333,-4.04267 -3.49067,-1.068 -9.84267,-2.884 -12.49334,-5.816 -1.63199,-1.80533 -1.64666,-4.492 -1.90933,-6.78666 -0.35066,-3.06534 -0.628,-6.248 -1.24133,-9.17867 -0.852,-4.068 -0.7,-8.328 -2.21733,-12.16 -1.17467,-2.96533 -2.96934,-6.70267 -3.164,-9.78 -0.15734,-2.464 1.62133,-4.44133 2.32933,-6.676 0.82667,-2.60667 0.276,-5.536 0.276,-8.22667 0.003,-17.666662 -0.644,-21.731996 -0.644,-21.731996 z"
     id="path1"
     style="stroke-width:1.33333" /><path
     fill="#00a66b"
     d="m 335.09466,143.008 c 0.57466,-0.14134 0.844,-0.32134 0.844,-0.32134 l 2.78533,-2.73333 -0.0547,-5.484 -6.84799,-0.87333 c 0,0 -6.248,1.47333 -7.53067,2.728 -1.28267,1.25466 -1.90933,4.01066 -1.93733,4.092 0,0 0.136,0.84533 0.65466,0.95466 0.51867,0.10934 3.356,1.90934 4.36534,1.85467 1.00933,-0.0547 7.72133,-0.21733 7.72133,-0.21733"
     id="path2"
     style="stroke-width:1.33333" /><circle
     cx="330.3493"
     cy="137.87466"
     r="2.7839999"
     id="circle2"
     style="stroke-width:1.33333;fill:#000000;fill-opacity:1" /><circle
     fill="#ffffff"
     cx="328.11865"
     cy="135.95866"
     r="1.5266666"
     id="circle3"
     style="stroke-width:1.33333" /><path
     d="m 332.61066,217.08133 c 1.67733,-2.108 1.44133,-5.012 1.608,-7.536 0.172,-2.61867 1.00533,-5.02534 1.33333,-7.60267 0.516,-4.06533 1.892,-8.008 3.144,-11.88266 0.75067,-2.324 1.436,-4.672 2.228,-6.98267 0.68133,-1.98533 1.424,-4.144 2.836,-5.74267 1.628,-1.844 2.744,-3.83066 4.116,-5.928 1.47333,-2.252 2.492,-3.66533 2.164,-6.344 -0.248,-2.02933 -0.87867,-4.04533 -1.64667,-5.88933 -0.58933,-1.41733 -1.52266,-3.12267 -1.576,-4.64667 -0.052,-1.48666 0.76534,-2.81066 0.73334,-4.404 -0.10934,-5.368 -4.016,-9.44666 -2.884,-15.10266 1.13066,-5.65067 4.93466,-8.464 4.93466,-12.984 0,-0.0653 -10e-4,-0.13067 -0.003,-0.19467 -0.0933,-4.58667 -0.53467,-9.324 -1.56267,-13.776 -1.07333,-4.65067 -1.41733,-9.435999 -2.492,-14.086666 -0.848,-3.672 -2.14267,-7.222666 -3.244,-10.826666 -1.43333,-4.689333 -2.328,-9.678667 -4.172,-14.228 -1.664,-4.105333 -4.06933,-8.196 -6.96666,-11.549333 -14.31467,-16.574666 -43.24134,-29.085332 -66.22,-29.085332 -22.97867,0 -71.41467,21.861332 -71.41467,65.181331 0,5.212 -0.0547,10.425336 0.0333,15.637336 0.0707,4.176 -0.63734,10.18133 1.19333,14.05066 -0.076,-0.16 2.756,-1.53733 2.928,-2.068 0.39467,-1.21733 -0.44533,-4.148 -0.52,-5.516 -0.23067,-4.21333 -0.27867,-8.43733 -0.15733,-12.65466 0.0853,-2.969336 0.15866,-5.953336 0.15866,-8.929336 0,-44.199999 51.94267,-62.387998 69.27067,-62.639998 17.328,-0.250667 49.976,13.058666 62.784,28.879999 4.30399,5.317333 7.50133,12.042667 9.04933,18.697333 0.55866,2.402667 0.92,4.857333 1.676,7.210667 0.78,2.430666 2.30666,4.482666 2.936,6.973333 0.50533,2.002666 0.21066,4.133333 0.628,6.142666 0.47866,2.307996 1.1,4.574666 1.5,6.894666 0.76266,4.436 1.26133,8.91867 2.04266,13.34933 0.63067,3.57867 -1.64133,7.72667 -3.1,10.852 -0.65333,1.40134 -1.80933,3.07067 -1.984,4.63067 -0.228,2.05067 0.256,4.46133 0.45867,6.52 0.14667,1.488 0.69467,2.016 1.54,3.14133 0.97467,1.29734 1.00933,2.72534 1.1,4.38134 0.0787,1.45066 0.0547,2.67333 -0.324,3.97466 -0.24,0.82267 -0.932,1.88534 -1,2.692 -0.13467,1.57067 1.14,2.65467 1.76667,3.932 1.14133,2.32534 3.196,4.65467 2.076,7.26934 -2.428,5.66533 -10.488,3.60266 -13.68534,8.75333 -3.04533,4.90667 -3.77333,11.372 -5.06266,16.86533 1.35467,-4.80933 2.768,-11.38666 6.08666,-15.25466 1.18667,-1.38267 3.25867,-2.912 5.056,-3.45067 1.23734,-0.37067 2.69867,-0.0773 3.888,-0.596 0.0867,1.304 -1.29733,2.904 -1.90133,4.028 -0.596,1.108 -1.312,2.176 -1.84933,3.312 -0.79067,1.67467 -1.36267,3.488 -1.90267,5.264 -0.98267,3.23467 -1.60533,6.43867 -3.03467,9.676 -0.61066,1.38267 -1.148,2.79067 -1.73466,4.18 -0.34933,0.82666 -1.34533,2.40533 -1.132,3.31866 -0.46533,-1.99066 -1.05067,-4.28666 -0.61867,-6.37199 -1.32533,2.34933 -0.73733,5.05733 -0.252,7.55333 0.248,1.27066 0.532,2.57333 0.50534,3.876 -0.024,1.22 -0.72267,2.104 -0.82134,3.31733 -0.11466,1.41067 0.16534,2.868 -0.74,4.10133 -0.7,0.95334 -1.084,0.90934 -1.31333,2.2 -0.67867,3.81334 -1.97867,8.90534 -4.576,11.92534 -1.16,1.348 -3.31467,1.28666 -4.928,1.22933 -1.38267,-0.0493 -4.5,0.28 -4.82933,-1.688 -0.0707,-0.42 0.24266,-1.01467 0.33333,-1.428 1.028,-4.676 -1.00133,-9.792 0.95867,-14.35333 -1.49734,0.95733 -3.09334,0.46666 -4.53734,-0.36534 2.612,3.592 3.00934,9.968 1.45734,14.03467 -2.43067,6.36667 -10.10534,4.568 -15.636,4.47067 -2.03067,-0.036 -4.06934,-0.08 -6.09334,-0.25734 -5.412,-0.47466 -11.32533,-4.44666 -16.01466,-6.86933 -3.968,-2.05067 -7.88934,-4.73467 -12.16267,-6.00267 -3.49867,-1.03866 -7.57067,-1.988 -10.18267,-4.72666 -1.50133,-1.57467 -2.24533,-3.624 -3.592,-5.26667 -1.444,-1.76133 -2.83866,-3.31733 -3.92266,-5.38933 -3.02,-5.776 -3.77867,-13.83333 -2.79867,-20.34 0.29467,-1.956 0.83067,-3.85733 0.744,-5.88 -0.15333,-3.60533 -1.55733,-6.628 -3.36267,-9.596 0.0547,3.8 2.464,7.584 2.632,11.29867 0.152,3.368 -1.10666,6.89466 -1.452,10.31066 -0.40533,4.008 -0.832,9.47067 0.784,13.15867 0.77067,1.75866 2.052,3.34133 2.708,5.124 -1.57466,0.192 -3.368,-2.556 -4.10133,-3.67067 -2.352,-3.57466 -3.364,-7.956 -3.83067,-12.15733 -0.004,2.832 0.53067,5.50533 0.80934,8.29067 0.0693,0.69333 0.76133,2.64133 0.376,3.19066 -0.488,0.696 -4.888,-2.50533 -5.66,-2.99333 -1.352,-0.85467 -3.00934,-1.66933 -4.15334,-2.81333 -2.26,-2.26 -9.96133,-25.22934 -9.96133,-25.22934 0.0547,0.25334 -0.0507,-0.26266 0,0 0.37467,4.808 1.17733,9.64 2.336,14.31867 0.82933,3.348 1.80667,6.96533 3.62267,9.93333 2.07466,3.38934 5.23733,5.59333 8.128,8.216 2.31333,2.1 4.67866,4.072 6.41866,6.68667 0.78934,1.18666 1.316,2.43866 1.32134,3.868 -0.009,-2.34934 0.16133,-4.78934 -0.68934,-7.02934 1.628,0.85734 3.324,1.872 5.108,2.452 1.83334,0.596 4.004,0.79467 5.08134,2.632 1.72,2.93334 2.91066,4.54134 6.096,5.96534 2.32533,1.03866 4.57466,1.72933 6.79466,3.00133 2.508,1.436 5.06134,2.80267 7.64267,4.10267 5.104,2.572 10.364,4.86133 15.80667,6.61866 1.59066,0.51334 3.22266,0.976 4.88933,1.152 3.668,0.38534 7.33867,0.57734 11.02,0.78534 1.38267,0.0787 2.768,0.17733 4.15333,0.12533 0.89734,-0.0333 1.80267,-0.13467 2.66134,-0.408 0.43733,-0.13867 0.81466,-0.36933 1.232,-0.54533 0.428,-0.18 0.89066,-0.24534 1.30533,-0.46934 0.20667,-0.112 0.432,-0.42933 0.64,-0.48133 0.31733,-0.08 1.08,0.46 1.36533,0.57067 1.58934,0.61466 3.25867,1.03066 4.95467,1.216 0.53867,0.0587 1.07867,0.0947 1.62,0.11333 2.90667,0.1 6.076,-0.36133 8.08,-2.68 1.07467,-1.24267 2.04667,-2.86 2.60667,-4.39067 1.15866,-3.16533 0.19333,-7.648 2.33733,-10.34266 z"
     id="path3"
     style="stroke-width:1.33333;fill:#000000;fill-opacity:1" /><path
     d="m 241.99066,155.612 c -1.61733,-1.94134 -3.16133,-3.90134 -4.44267,-6.29467 -1.47733,-2.75867 -3.38533,-5.664 -3.372,-8.87467 0.0107,-2.62666 -0.29066,-5.932 1.78267,-7.94666 1.904,-1.84934 4.09333,-3.39067 6.092,-5.13467 2.14133,-1.868 2.26533,-3.71467 2.58533,-6.524 0.956,-8.40533 0.93867,-16.88933 -1.05333,-25.179999 -0.88133,-3.669333 -2.32533,-7.22 -3.01867,-10.938666 -0.67333,-3.604 -2.72533,-7.405334 -2.04666,-11.130667 -0.84534,1.549333 -0.608,3.704 -0.528,5.493333 0.16533,3.722667 1.19466,7.232 2.10266,10.817333 1.284,5.066667 3.26667,10.162666 3.50134,15.341336 0.112,2.488 -0.3,4.84 -0.3,7.32 0,3.848 -0.38134,7.80533 -1.72534,11.39733 -1.44266,3.85333 -8.38,4.1 -11.77066,3.96267 -3.51467,-0.14267 -6.96,-0.776 -10.176,-2.104 2.952,1.40533 5.98533,3.34933 9.29866,3.74533 2.312,0.276 6.68267,0.75333 8.744,-0.312 -2.62533,1.288 -3.92533,2.44 -4.504,5.42267 -0.23866,1.23466 -0.37066,2.57333 -1.10933,3.628 -1.60133,2.28933 -2.74133,0.86133 -4.28667,-0.54667 -5.424,-4.94133 -11.068,-9.77067 -17.884,-12.65867 -2.72133,-1.15333 -5.38266,-2.71333 -8.19066,-3.69733 0.66533,1.13067 1.756,1.696 2.78533,2.412 1.136,0.78933 2.32267,1.27333 3.608,1.772 3.89067,1.508 7.50933,3.71733 10.62667,6.49067 2.25066,2.00133 4.228,4.28 6.212,6.53866 2.00533,2.28267 4.17733,4.416 6.128,6.74267 2.068,2.46533 3.94133,5.08533 5.72266,7.764 0.46934,0.70667 0.93334,1.41733 1.39334,2.13067 3.38266,5.24666 7.36666,9.99466 12.372,13.66933 1.264,0.928 3.42666,2.74 3.63866,4.536 0.28267,2.40133 -1.78266,5.404 -3.116,7.27733 -2.72666,3.83067 -4.612,6.772 -3.94533,11.99334 0.472,3.692 2.82667,7.25066 5.34133,9.83066 1.07467,1.10267 2.74267,2.90933 4.368,2.50933 -1.14,-1.292 -1.54933,-2.96533 -2.55466,-4.28533 -0.736,-0.96666 -1.81467,-1.53333 -2.51067,-2.616 -1.48133,-2.30666 -2.06267,-5.3 -1.84133,-8.01066 0.37866,-4.632 3.56266,-7.96134 6.15333,-11.48934 1.296,-1.76666 2.44667,-3.84533 3.00267,-6.01333 2.816,-0.112 4.108,0.95467 5.52,3.32533 0.67733,1.136 1.212,2.352 1.88133,3.49334 0.372,0.63466 2.02267,2.14933 2.11333,2.72933 -0.28,-1.77467 -1.29066,-3.27467 -1.71066,-5 -0.33734,-1.38267 0.708,-3.544 0.009,-4.73867 -1.01867,-1.744 -5.00533,-2.22533 -6.82267,-2.61866 -2.53733,-0.548 -5.07866,-1.084 -7.24,-2.608 -3.17466,-2.24 -5.392,-4.89467 -7.76533,-7.90934 -1.02133,-1.296 -2.05867,-2.5 -3.068,-3.71066 z"
     id="path4"
     style="stroke-width:1.33333;fill:#000000;fill-opacity:1" /><path
     opacity="0.2"
     d="m 259.83066,185.39333 c 0.488,-0.968 0.86133,-1.98133 0.98933,-3.05333 0.0867,-0.728 -0.93333,-4.45467 -0.48933,-4.82934 0.91867,-0.77733 5.75733,4.516 6.21867,1.60534 0.45733,-2.89067 -2.44134,-5.68134 -3.33334,-8.112 5.11467,1.22666 8.26934,-6.29734 11.04934,-9.47734 1.09733,-1.25466 2.11466,-2.456 3.30533,-3.55066 -0.96533,0.864 -2.00267,1.69733 -3.152,2.38266 -2.52533,1.50667 -4.97333,3.41734 -7.79333,4.34667 -2.86267,0.94267 -5.23067,0.0587 -7.864,-1.03333 -2.75467,-1.14267 -5.48,-2.37334 -8.04934,-3.896 -8.728,-5.17467 -14.47866,-15.004 -11.536,-25.252 0.368,-1.28267 0.98934,-2.592 2.15467,-3.32 1.16267,-0.72667 2.544,-0.88 3.59733,-1.85334 1.47867,-1.36666 1.052,-7.25333 1.18134,-9.32133 0.2,-3.18533 -0.16134,-6.65333 -0.40667,-9.83067 -0.656,-8.50133 -3.24933,-16.711996 -4.08933,-25.189329 -1.156,-11.662666 0.34133,-19.446666 4.79466,-30.290666 2.12667,-5.177333 4.75734,-10.199999 8.20934,-14.623999 2.088,-2.676 8.488,-10.802667 12.312,-10.685333 -0.66667,-0.02133 -1.32934,-0.03333 -1.98667,-0.03333 -0.89467,0 -1.788,0.04533 -2.68133,0.09733 -0.644,0.04133 -1.29467,0.09067 -1.96267,0.16 -0.0507,0.0053 -0.1,0.01067 -0.15067,0.016 -4.82,0.52 -10.24666,1.789333 -15.85866,3.771999 -0.45734,0.164 -0.912,0.330667 -1.36534,0.501334 -0.40666,0.150666 -0.812,0.304 -1.22,0.462666 -0.69333,0.272 -1.37866,0.552 -2.06266,0.836 -21.97334,9.188 -45.028,29.034666 -45.028,58.250666 0,0 0.64667,4.065333 0.64667,21.733332 0,1.41333 -0.49334,3.99467 0.448,5.196 1.264,1.61333 3.66933,1.74667 5.12399,3.07733 1.48267,1.356 2.23734,4.06267 2.97467,5.88667 0.52133,1.28667 0.53867,2.48 0.71733,3.78533 0.14267,1.04534 1.06,2.844 0.39067,3.836 -0.544,0.80267 -1.31867,0.35467 -2.22267,0.35334 -1.188,3.43733 -0.59866,5.792 1.084,8.96 1.81867,3.424 3.424,8.31733 3.89867,11.93733 -0.70667,-5.09333 -4.84,-9.01467 -6.05467,-13.952 -0.12666,-0.516 0.28,-4.09467 -0.692,-3.84933 -0.47066,0.11866 -0.95066,1.908 -0.95199,2.35733 -0.001,2.11333 2.14933,5.69867 3.02399,7.62 0.532,1.16667 0.96667,2.26 1.14,3.508 0.53867,3.85067 0.88134,7.54267 1.84667,11.352 -2.06933,-1.404 -2.40933,-4.37067 -2.57333,-6.62 -0.22267,-3.05733 -0.58,-5.84133 -1.70667,-8.69467 -0.61467,-1.55466 -1.56933,-3.03333 -2.16533,-4.516 -1.076,-2.67733 0.85466,-4.34533 1.76666,-6.64 0.81734,-2.056 -0.33866,-5.05866 -1.82399,-6.68 -1.36267,-1.48666 -3.43067,-1.78266 -4.89467,-3.028 1.29467,1.10267 2.832,2.364 2.90133,4.224 -2.32266,0.50934 -3.94933,4.14 -2.1,6.124 0.91467,0.98 3.12667,-0.956 3.12267,-2.26133 0.008,3.10933 -2.32,5.68933 -1.42533,8.872 1.06933,3.80933 2.292,7.47733 2.47733,11.508 0.212,4.61467 0.26933,11.128 4.83066,13.624 2.90267,1.588 6.18534,1.912 9.216,3.03733 1.47334,0.54667 2.97467,1.328 4.32,2.13734 1.37867,0.82933 1.40134,1.27866 1.872,2.84266 0.75734,2.52134 1.56267,5.02934 2.39734,7.52534 1.05333,3.14933 1.88533,7.824 4.008,10.47733 0.80933,1.012 2.492,1.71067 3.568,2.372 2.592,1.59466 5.21466,3.13866 7.83866,4.67866 3.504,2.05734 6.99867,4.14534 10.54267,6.13067 2.82,1.58 3.98133,4.47333 6.536,6.32667 1.79467,1.30133 4.144,1.33866 6.232,1.78266 2.21333,0.472 4.15067,1.59467 6.1,2.70534 2.648,1.508 5.26667,3.10533 7.96267,4.52666 1.16,0.612 2.43866,1.236 3.77066,1.84934 l 0.49734,-0.544 c 4.62533,2.43866 8.768,4.35333 11.93066,5.356 0.11734,0.0347 0.24,0.072 0.35334,0.10533 0.164,0.0493 0.31466,0.0867 0.47333,0.13067 0.412,0.112 0.79067,0.20666 1.136,0.284 0.33333,0.0707 0.66933,0.14266 0.968,0.18133 5.69067,0.744 15.12267,1.032 18.97333,-4.368 0.468,2.928 1.704,3.472 4.536,3.61333 2.87067,0.14267 5.23867,0.0867 7.36134,-1.81066 -3.12534,-1.49867 -5.52267,-2.06134 -7.504,-5.43067 -1.62134,-2.75733 -2.028,-6.196 -3.47734,-8.93067 0.33067,3.84134 2.49467,10.52534 -2.28666,12.46667 -3.24934,1.32 -7.848,0.58667 -11.428,0.412 -4.74134,-0.232 -8.096,-1.50533 -11.84134,-4.48 -1.94266,-1.54267 -3.58533,-3.472 -5.212,-5.32 -1.68,-1.90933 -3.77733,-3.58267 -5.30666,-5.60533 -1.69334,-2.24 -1.11467,-4.74267 -0.66534,-7.12534 -1.688,-0.0493 -4.92,0.34 -6.28133,-0.93733 -2.23467,-2.09733 2.46267,-2.89733 3.60933,-3.908 -1.46933,-0.444 -3.63466,-1.02933 -4.38933,-2.532 0.936,-0.968 3.54533,-1.648 3.672,-3.22 -2.54933,0.696 -5.916,0.47867 -8.40133,-0.376 -1.09467,-0.376 -2.124,-0.84133 -2.74,-1.82 -0.26134,-0.41466 -1.076,-4.86266 -0.96534,-4.868 -2.67466,0.152 -5.192,6.056 -5.832,8.48134 -0.58666,-3.22667 0.0493,-5.852 1.83734,-8.592 0.704,-1.06667 1.46266,-2.17334 2.05333,-3.34667 z"
     id="path5"
     style="stroke-width:1.33333;fill:#000000;fill-opacity:1" /><path
     d="m 300.89199,201.61466 c -0.94133,0.22267 -1.864,0.484 -2.73866,0.79733 1.12133,-1.13466 3.22933,-2.19466 4.71866,-2.80399 0.66267,-0.27067 1.31467,-0.54667 2.01467,-0.7 5.22667,-1.14534 9.812,-0.64134 14.77467,1.19866 1.04266,0.38667 2.52933,0.78933 3.35733,1.416 -0.53067,0.15067 -1.092,0.27867 -1.63333,0.35333 0.576,0.696 1.34266,1.144 1.92666,1.80534 0.63867,0.72133 1.104,1.65466 1.65467,2.44533 1.22267,1.752 3.14533,1.41467 3.10933,3.78267 -0.0227,1.48 0.30534,6.164 2.46934,6.232 -3.312,3.52933 -3.75067,-6.30267 -4.40934,-7.26667 -0.78,-1.13867 -2.268,-2.26533 -3.30666,-3.14133 -1.70267,-1.43467 -3.04934,-3.084 -5.20534,-3.76134 -2.276,-0.71466 -4.336,-0.23733 -6.65466,-0.128 -4.04267,0.192 -7.15734,1.552 -10.49734,3.78134 -2.324,1.552 -4.492,2.628 -6.908,3.93866 -2.536,1.37467 -2.05466,2.61467 -2.84666,4.96 -0.80267,2.37734 -3.57867,3.57867 -5.928,2.16534 -1.704,-1.02534 -1.69467,-4.09067 -1.67867,-5.74534 1.32,1.584 2.49733,3.74 4.716,3.61734 3.05867,-0.17067 2.80667,-2.04667 2.45333,-4.256 2.228,-0.89867 4.30534,-2.28934 6.124,-3.848 0.84,-0.72 1.53734,-1.50934 2.528,-2.032 1.084,-0.56934 2.29467,-0.84667 3.404,-1.36134 1.344,-0.624 2.50134,-1.73466 3.84267,-2.36 -1.716,0.22134 -3.536,0.49734 -5.28667,0.91067 z"
     id="path8"
     style="stroke-width:1.33333;fill:#000000;fill-opacity:1" /><path
     d="m 322.27866,195.10666 c 0.44933,0.344 0.88533,0.71067 1.404,1.00134 0.79867,0.44666 1.71333,0.38266 2.61733,0.99333 0.652,0.44 1.22134,1.356 2.05334,1.24533 -1.18667,0.15734 0.33066,-3.464 0.38933,-3.64266 0.40533,-1.232 0.72933,-3.064 0.40133,-4.332 -0.75866,1.14266 -0.78,3.084 -2.03466,3.736 -2.54,1.32 -2.62934,-1.696 -2.556,-3.276 0.0467,-1.02134 0.29333,-2.10934 0.16666,-3.10267 -0.328,0.92133 -0.21333,3.436 -1.14266,3.98533 -1.096,0.64934 -2.21067,-1.22666 -3.37467,-1.37333 -1.03333,-0.12933 -2.73333,0.8 -3.816,1.076 -1.21067,0.308 -2.092,0.516 -3.37867,0.512 -2.44266,-0.007 -4.916,-0.97067 -7.32666,-1.468 -1.66,-0.34133 -3.312,0.20667 -4.832,0.83333 -0.96934,0.4 -2.66,1.83334 -3.59067,1.92 -2.37067,0.22134 -2.276,-3.75066 -2.348,-5.23466 -0.0533,-1.08934 -0.0133,-2.17334 -0.164,-3.25734 -0.11867,-0.86133 -0.31733,-1.712 -0.59067,-2.53733 -0.124,-0.372 -0.292,-0.72667 -0.356,-1.11467 -0.0613,-0.376 -0.0733,-0.78666 -0.30933,-1.10533 0.0693,0.35733 0.009,0.71467 0.0187,1.07333 0.008,0.352 0.10533,0.692 0.172,1.03734 0.15066,0.77733 0.27333,1.56 0.37066,2.34666 0.17867,1.96934 0.41867,3.97067 0.164,5.94534 -0.14133,1.09866 -0.51333,2.72666 -1.85466,2.87733 -1.69067,0.18933 -2.39467,-0.328 -2.48934,-1.90267 -0.0827,-1.39466 0.19467,-2.87066 0.008,-4.25333 -0.16533,-1.22 -0.764,-2.53067 -1,-3.75467 -0.23466,2.568 0.57734,5.31334 -0.19866,7.82134 -0.404,1.30533 -1.928,3.396 -3.068,4.19333 -1.58534,1.10933 -4.31467,1.00667 -6.08934,0.59067 -2.38,-0.55734 -4.59466,-0.81067 -6.33466,-2.74134 0.0333,0.83734 0.45733,1.89467 1.10666,2.45467 -0.792,0.30267 -1.46133,0.776 -2.23866,1.028 -1.8,0.58533 -3.38,0.624 -5.32934,0.62267 -1.92,0 -6.39333,-1.956 -6.84666,1.12933 0.58933,-1.6 3.30266,-0.416 4.58,-0.30267 1.896,0.168 3.92266,0.42934 5.78933,0.41334 0.89867,-0.008 1.55733,-0.33334 2.304,-0.85067 1.41067,-0.976 1.83467,-1.50933 3.59333,-1.52667 1.852,-0.02 3.38534,0.96934 5.204,0.93067 2.264,-0.048 5.02934,-0.86667 7.03334,-1.84533 -1.048,1.36 -2.86267,2.276 -4.28,3.24266 -0.87067,0.59334 -1.828,1.448 -2.46134,2.288 -0.71466,0.94533 -1.22933,2.024 -2.42933,2.44133 -1.49733,0.52 -2.47467,-0.656 -3.91733,-0.54666 1.96933,0.76266 4.34666,1.576 6.076,-0.16267 -0.36534,0.792 -0.62134,1.752 -1.05067,2.49467 -0.53467,0.92666 -1.56933,1.21866 -2.436,1.81466 1.02,-0.0173 2.13867,-0.18666 2.936,0.53734 0.92267,0.83733 0.81333,2.46266 1.66533,3.27466 -0.12,-0.70133 -0.252,-1.508 -0.37466,-2.20933 -0.17734,-1 -0.18267,-1.28933 0.69733,-1.812 1.308,-0.776 2.736,-1.128 3.608,-2.468 -1.70533,0.53333 -3.86933,2.072 -5.68,1.86533 0.35467,-2.99733 2.81067,-5.152 5.04,-6.76266 0.57733,-0.41733 3.39733,-3.10133 4.06667,-1.67333 0.308,0.65866 -0.668,1.34266 -1.10267,1.78666 1.904,-0.60266 3.28667,-2.176 5.12267,-2.912 0.96933,-0.38933 1.94666,-0.30533 2.92133,-0.54533 1.124,-0.276 2.2,-0.81867 3.31733,-1.13733 5.65467,-1.60934 11.35067,-2.084 17.17334,-1.17734 1.09866,0.17067 2.47733,0.296 3.51866,0.652 0.56667,0.19467 1.03067,0.51734 1.48267,0.864 z"
     id="path9"
     style="stroke-width:1.33333;fill:#000000;fill-opacity:1" /><path
     opacity="0.2"
     d="m 323.96799,136.04933 c 0.42667,-0.616 0.904,-1.22667 1.47467,-1.61467 0.944,-0.644 1.93733,-1.21333 2.95333,-1.736 1.808,-0.92933 3.704,-1.74 5.656,-2.31466 2.67067,-0.78534 5.31733,0.32533 4.372,3.49066 -0.368,1.232 -0.576,2.14534 -0.25733,3.432 0.52666,2.12134 2.124,3.52 2.23466,5.732 1.25334,-1.92133 1.792,-3.43466 2.45734,-5.70133 0.588,-2.00133 1.10133,-3.788 2.26666,-5.532 1.136,-1.70267 2.46934,-3.67333 2.032,-5.832 -0.264,-1.3 -1.70133,-1.988 -2.79333,-2.47067 -1.82133,-0.804 -3.30267,-1.65333 -5.32133,-1.82133 -1.69734,-0.14133 -3.50667,0.032 -5.16934,0.39467 -2.11733,0.46133 -4.16533,1.948 -5.70933,3.532 -0.764,0.784 -1.62933,1.68933 -2.63866,2.124 -1.02534,0.44133 -1.504,0.46666 -2.316,1.30933 -0.648,0.672 -1.28934,1.35333 -1.90934,2.05333 -0.54,0.608 -1.15066,1.23867 -1.556,1.94934 -0.212,0.37333 -0.20533,0.708 -0.284,1.11466 -0.14666,0.752 -0.31866,1.45067 -0.368,2.22534 -0.052,0.82933 -0.15333,1.63066 -0.17733,2.452 0.024,-0.82934 0.82933,-0.45067 1.028,-0.0307 0.22133,0.468 -0.092,1.21333 -0.02,1.72133 0.624,4.42534 2.416,7.26267 5.97867,9.912 1.456,1.08267 2.94266,1.528 4.68133,2.08934 1.75467,0.56666 3.04533,1.02933 4.79333,0.42533 1.08533,-0.37467 2.21733,-1.01333 2.79467,-2.06933 -4.45467,1.192 -8.996,-0.0707 -12.816,-2.412 -2.23733,-1.37067 -3.208,-3.43867 -3.70933,-5.98134 -0.14934,-0.75466 -0.32267,-1.536 -0.35734,-2.29466 -0.0253,-0.55734 0.15867,-2.31334 0.98534,-1.13734 0.15333,-0.95066 0.628,-1.41866 1.136,-2.17466 0.17733,-0.26667 0.36266,-0.552 0.55866,-0.83467 z"
     id="path11"
     style="stroke-width:1.33333;fill:#000000;fill-opacity:1" /><path
     opacity="0.2"
     d="m 325.94399,137.044 c 1.264,-2.51067 3.19734,-4.95734 5.46,-5.892 0.72534,-0.3 2.364,-1.18 3.12,-1.12267 -0.976,-0.0747 -3.88533,0.39867 -4.364,-0.65333 -0.52666,-1.15867 2.62,-1.91734 3.264,-2.08667 3.572,-0.94 6.92267,-1.256 10.66267,-1.11733 -1.12134,-0.628 -2.544,-0.94134 -3.80267,-1.1 -1.05333,-0.13334 -2.55333,0.084 -3.32133,-0.77734 1.03466,-1.21066 3.436,-2.16133 5.036,-2.08 -1.04134,-0.20533 -1.90534,-0.44666 -2.956,-0.53466 -1.69734,-0.14134 -3.50667,0.032 -5.16934,0.39466 -2.11733,0.46134 -4.16533,1.948 -5.70933,3.532 -0.764,0.784 -1.62933,1.68934 -2.63866,2.124 -1.02534,0.44134 -1.504,0.46667 -2.316,1.30934 -0.648,0.672 -1.28934,1.35333 -1.90934,2.05333 -0.54,0.608 -1.15066,1.23867 -1.556,1.94933 -0.212,0.37334 -0.20533,0.708 -0.284,1.11467 -0.14666,0.752 -0.31866,1.45067 -0.368,2.22533 -0.052,0.82934 -0.15333,1.63067 -0.17733,2.452 0.024,-0.82933 0.82933,-0.45066 1.028,-0.0307 0.22133,0.468 -0.092,1.21333 -0.02,1.72133 0.624,4.42533 2.416,7.26267 5.97867,9.912 1.456,1.08267 2.94266,1.528 4.68133,2.08933 1.75467,0.56667 3.04533,1.02934 4.79333,0.42534 1.08533,-0.37467 2.21733,-1.01334 2.79467,-2.06934 -0.396,0.724 -3.96,0.46667 -4.676,0.408 -1.55067,-0.124 -3.076,-0.496 -4.53067,-1.04266 -2.048,-0.768 -4.98,-1.53467 -4.60266,-4.42267 0.26,0.10933 0.496,0.0147 0.73733,0.08 -0.31067,-0.844 -1.05733,-1.47867 -0.98,-2.50667 0.0707,-0.92533 0.32667,-2.20933 0.58267,-3.16 0.27066,-0.99733 0.69333,-2.10266 1.24266,-3.19466 z"
     id="path12"
     style="stroke-width:1.33333;fill:#000000;fill-opacity:1" /><path
     fill="#00a66b"
     d="m 272.95866,137.888 c 0.276,-2.64934 5.196,-2.512 7.35067,-2.58934 2.14266,-0.076 4.28533,-0.152 6.428,-0.22933 0.74133,-0.0267 2.48266,-0.43467 3.17466,-0.11333 0,0 5.288,2.456 5.288,2.456 l 2.824,2.76266 -1.12933,1.43334 -3.33733,0.20533 c 0,0 -2.156,1.688 -4.46667,1.63733 -2.304,-0.0507 -13.23467,-1.17066 -13.29733,-1.17733 -0.65334,-0.0667 -1.92534,-1.57067 -2.24,-2.15733 -0.48534,-0.904 -0.656,-1.636 -0.59467,-2.228 z"
     id="path14"
     style="stroke-width:1.33333" /><ellipse
     cx="285.11731"
     cy="138.46399"
     rx="3.0266666"
     ry="3.0173333"
     id="ellipse14"
     style="stroke-width:1.33333;fill:#000000;fill-opacity:1" /><ellipse
     fill="#ffffff"
     cx="282.94666"
     cy="137.34534"
     rx="1.66"
     ry="1.6546667"
     id="ellipse15"
     style="stroke-width:1.33333" /><path
     d="m 328.41866,199.916 c -0.53867,1.24266 -0.86133,2.61199 -0.61333,3.94399 0.29333,1.58134 1.032,3.344 0.70533,5.00134 0.22133,-1.124 0.38933,-2.84934 0.28667,-3.97867 -0.14267,-1.556 -1.13467,-3.44533 -0.37867,-4.96666 z"
     id="path31"
     style="stroke-width:1.33333" /><path
     d="m 287.87599,202.99333 c 1.948,-0.83867 3.332,-2.62667 5.652,-2.17867 -0.93866,0.752 -1.63466,1.34933 -2.75733,1.58133 -0.808,0.168 -1.77733,0.23867 -2.89467,0.59734 z"
     id="path33"
     style="stroke-width:1.33333" /><path
     id="path40"
     style="stroke-width:1.33333;fill:#000000;fill-opacity:1"
     d="m 204.31866,150.12 c 0.31333,0.468 0.44267,0.892 0.63867,1.47866 0.468,1.41067 1.24533,2.75334 1.66933,4.18667 0.60933,2.06 0.416,3.52133 -0.31733,5.476 -0.972,-1.78933 -0.96267,-3.98667 -1.436,-5.92667 -0.59467,-2.43733 -1.85067,-4.55866 -2.62934,-6.964 0.0893,0.276 1.52134,1.05067 1.80667,1.392 0.10267,0.124 0.19067,0.24134 0.268,0.35734 z m -5.184,-7.36134 c -0.28533,1.716 0.288,3.13734 1.15467,4.54 -1.884,-1.37333 -1.98,-4.64533 -1.11467,-6.592 1.768,-3.97866 -0.26666,-8.42133 -3.432,-11.128 2.004,1.71334 4.43867,2.25067 5.6,5.00267 1.33733,3.17333 -1.71466,5.212 -2.208,8.17733 z M 193.836,128.77333 c -0.0373,-2.55333 3.15333,-7.54133 5.74133,-4.89467 2.49733,2.55467 2.89466,6.596 5.30533,9.25867 0.24267,-3.02933 -2.12667,-6.84533 -3.37333,-9.46 -0.92267,-1.936 -3.83333,-4.08667 -5.94533,-2.31067 -0.78534,0.66 -1.17467,2.176 -1.75867,3.02667 -1.00533,1.46133 -2.30533,2.696 -3.24667,4.204 -2.16266,3.464 2.18134,9.99867 3.596,13.324 2.57867,6.05733 3.67734,12.74933 3.36267,19.32667 -0.136,2.82933 -0.58267,5.44533 0.18267,8.22 1.00133,3.63066 3.56933,4.83733 7.05866,5.36 4.19467,0.628 8.22267,1.592 11.56667,4.17866 2.45733,1.90134 3.65733,4.91467 5.77866,7.12134 -0.39866,-3.08267 -1.30933,-5.912 -2.42133,-8.868 -0.47733,-1.27067 -1.076,-2.608 -2.064,-3.57067 -1.12533,-1.09467 -2.268,-0.812 -3.46133,-1.41333 -2.23334,-1.12267 -1.42667,-4.98 -2.06134,-6.996 -0.764,-2.42667 -2.60933,-4.79734 -3.09866,-7.17067 -0.30534,1.688 1.50133,4.37333 1.92666,6.064 0.41334,1.64133 1.32134,5.39067 -0.30133,6.656 -2.75333,2.148 -3.38933,-2.65867 -4.724,-4.02933 0.22133,1.31466 0.788,2.9 0.71733,4.19866 -1.58,-0.30933 -3.688,-1.304 -4.72133,-2.59066 -1.58533,-1.97334 -1.08267,-5.36 -0.984,-7.668 0.128,-2.96934 -1.21733,-6.23467 -1.93066,-9.132 -1.16667,-4.74134 -1.47467,-9.74134 -2.61067,-14.51734 -0.63333,-2.66533 -2.49467,-5.60666 -2.53333,-8.31733 z" /><path
     id="path43"
     style="stroke-width:1.33333;fill:#000000;fill-opacity:1;opacity:0.2"
     d="m 236.04799,186.62133 c -0.40266,-3.46267 -1.00133,-6.72533 -1.832,-10.16267 -0.98,-4.05866 -1.716,-7.78666 -0.78133,-11.89333 0.228,-1 0.72,-1.99333 0.972,-2.976 -0.032,1.98133 -0.30267,4.008 -0.20133,6.01733 0.10133,1.99734 0.856,3.95734 1.48533,5.82134 1.26667,3.756 1.06933,7.044 0.744,10.93066 -0.11867,1.42267 -0.184,2.95867 0,4.39067 m -16.148,-45.744 c 3.13333,4.008 4.41067,8.90133 5.59733,13.796 1.95867,8.08 2.852,17.008 2.852,24.816 0,-5.44133 0.18667,-10.86933 -0.528,-16.19333 -0.31066,-2.31734 -0.58666,-4.648 -0.604,-6.99067 -0.009,-1.224 0.0373,-2.47067 0.30134,-3.67067 0.16133,-0.732 0.56133,-2.336 1.46133,-2.39333 0.94667,-0.06 2.05067,0.85467 2.70133,1.43867 0.56667,0.508 1.01734,1.25866 1.392,1.89866 0.812,1.38667 1.18,3.40134 1.404,4.99067 0.0227,-1.15467 0.32667,-2.23467 0.048,-3.39067 -0.848,-3.524 -3.156,-6.52933 -5.44933,-9.27866 -2.83067,-3.39467 -6.28533,-4 -9.176,-5.02267 z m 10.05867,-55.405332 c 0.12133,-3.036 0.31733,-6.069333 0.88,-9.068 0.87333,-4.648 2.43466,-9.1 5.00533,-12.994666 0.52933,2.242666 1.008,4.785333 1.324,7.189333 0.42533,3.228 0.028,6.364 0.74,9.542666 0.976,4.354667 2.86667,8.238667 3.89333,12.586667 1.104,4.678666 2.38267,8.473332 2.57467,13.377332 0.096,2.472 0.216,4.932 -0.003,7.38267 -0.244,2.72666 -0.46533,6.62533 -2.204,8.896 -2.216,2.89333 -4.47066,4.06666 -8.11733,4.06666 -3.22,0 -6.55867,-0.204 -9.68133,-0.87866 -1.87334,-0.404 -3.88134,-1.11067 -5.67334,-1.884 -1.61733,-0.69867 -2.912,-2.00534 -4.46933,-2.81734 -1.79333,-0.936 -3.47067,-1.72266 -5.08667,-2.992 0.48267,0.37867 2.68667,0.0787 3.328,0.052 1.028,-0.0413 2.088,-0.144 3.06,-0.504 1.82,-0.676 3.58934,-1.87333 5.064,-3.12133 3.196,-2.704 5.532,-6.36533 6.968,-10.27733 2.20934,-6.02 2.14667,-12.293336 2.39734,-18.556002 z" /><path
     id="path50"
     style="stroke-width:1.33333;fill:#000000;fill-opacity:1"
     d="m 301.79599,105.30133 c 2.57467,1.71333 4.7,4.29067 5.864,7.444 0.54667,1.48133 1.008,3.3 0.93867,4.79067 0.29333,-6.35467 -4.13733,-12.48 -9.064,-15.09467 -0.73333,-0.38933 -4.04533,-2.02133 -2.95733,0.48 1.924,0.70267 3.34933,1.136 5.21866,2.38 z m 19.36667,0.328 c -0.76,1.42 -2.252,2.476 -3.21467,3.81867 -0.90133,1.25733 -1.70666,2.60666 -2.16266,4.084 -0.948,3.068 -1.63867,6.356 0.46266,9.22266 1.24934,1.704 3.06267,2.012 4.98934,1.888 -3.18267,2.932 -7.41067,-1.27333 -7.928,-4.356 -0.772,-4.59866 2.59866,-9.29333 4.612,-13.12133 0.468,-0.89067 0.87866,-2.708 2.13866,-2.85733 1.188,-0.14134 1.03467,1.29066 1.10267,1.32133 z m 3.84267,76.78533 c -0.11867,-1.04266 -0.31734,-7.17466 1.284,-6.84666 2.52533,0.516 -0.792,4.98533 -1.284,6.84666 z m -52.80611,-62.5631 c -1.78133,-0.001 -3.61855,0.0959 -5.31055,0.70117 -1.136,0.40666 -3.34682,2.03964 -1.66015,3.29297 1.35595,-1.828 3.57107,-2.87995 5.8164,-3.25195 1.52534,-0.25067 3.07514,-0.2216 4.61914,-0.0723 0.728,0.0707 1.4564,0.16873 2.17774,0.2754 2.39061,0.35461 4.83466,0.84617 7,1.96484 1.00666,0.52 1.85662,1.21733 2.77929,1.86133 0.78133,0.54667 1.65397,0.83106 2.41797,1.40039 1.208,0.9 3.35343,2.8393 2.9961,4.55664 -0.30267,1.45466 -2.2697,0.71681 -3.20704,0.27148 0.93467,0.30533 2.60744,1.51269 2.16211,2.66602 -0.1345,0.34828 -0.44072,0.60465 -0.81445,0.80078 -0.36231,-0.0907 -0.73341,-0.15544 -1.11523,-0.18164 -4.51066,-0.31067 -9.00782,0.29861 -13.50782,0.47461 -1.91328,0.0747 -2.93447,0.12969 -3.86914,1.92969 -1.108,2.13195 -0.37818,4.17901 1.75782,5.29101 0.392,0.204 1.63819,0.39235 1.88086,0.65235 -1.588,-1.70933 -3.47866,-4.67221 -0.22266,-6.04688 1.308,-0.552 2.98964,-0.37586 4.4043,-0.39453 3.14662,-0.04 6.4294,-0.18105 9.55468,0.26562 0.39494,0.0561 0.89424,0.21602 1.44336,0.43555 0.2124,0.41614 0.38785,0.84928 0.52539,1.24609 0.26933,0.77733 0.64149,1.77286 0.66016,2.60352 0.008,0.31334 -0.6912,2.64103 -1.00586,2.45703 1.73502,1.01399 1.41866,2.3723 0.46289,3.46289 -1.93717,0.53051 -4.28162,0.98047 -6.66406,0.98047 0,-5.9e-4 2.95407,0.69458 5.97265,0.30664 1.22452,1.08656 -4.10558,3.72195 -4.66992,4.04688 2.84934,-0.25734 4.66774,-1.57303 6.78907,-3.31836 2.03862,-1.67733 3.84861,-3.25194 5.22461,-5.58789 2.90262,-4.92533 2.09537,-10.22132 -1.86329,-14.33594 -2.92529,-3.04133 -6.42181,-5.50464 -10.48047,-6.69531 -4.62262,-1.356 -9.43662,-2.0546 -14.2539,-2.0586 z m 63.28906,1.05078 c -1.77324,0.0796 -3.28085,0.49319 -4.88086,1.74219 -3.26661,2.55067 -7.59956,5.04805 -9.35156,9 -0.408,0.92267 -0.66059,1.8535 -0.80859,2.79883 -0.18533,1.18134 -0.20732,2.38667 -0.16602,3.63867 0.136,3.92134 -0.76926,8.51177 1.94141,11.75977 1.08267,1.29867 2.84673,3.74406 4.52539,4.30273 -0.71866,-1.34933 -1.9583,-2.31746 -2.93164,-3.4668 -1.108,-1.30795 -1.164,-2.76187 -1.36133,-4.42187 -0.0777,-0.65076 -0.17072,-1.3676 -0.25781,-2.08203 0.38928,0.81597 0.95382,1.57206 1.74023,2.26758 2.604,2.30132 9.02155,3.71465 12.04688,1.44531 -3.02133,1.45467 -7.59838,-0.20262 -10.23438,-2.25195 -0.24933,-0.19333 -0.47941,-0.39056 -0.69141,-0.58789 -0.87733,-0.824 -1.66,-1.80497 -2.36132,-2.79297 -0.38164,-0.53779 -0.57834,-1.04338 -0.75391,-1.5625 0.01,-1.93189 0.3545,-3.81254 1.49219,-5.30664 l 8.61328,-4.60352 c 0.0657,-0.008 0.13157,-0.0241 0.19726,-0.0312 1.81066,-0.19866 3.90133,-0.10366 5.72266,0.15234 -4.33067,-1.47061 -11.35996,-1.3881 -15.0293,1.72657 -0.28266,-1.88533 2.06122,-3.85508 3.44922,-4.70703 2.456,-1.508 4.69047,-2.15071 7.48242,-2.74805 -1.65195,-10e-4 -3.50628,0.28379 -5.09961,0.0918 1.524,-1.54928 4.70286,-2.28378 6.74414,-2.67578 1.348,-0.26 2.727,-0.37212 4.09766,-0.29882 0.83334,0.044 3.46077,0.0851 4.02344,0.78515 -1.45333,-1.812 -4.12811,-2.06545 -6.27344,-2.16015 -0.66333,-0.0293 -1.28392,-0.0402 -1.875,-0.0137 z m -53.5664,8.4668 c -3.82994,-0.0654 -7.85643,0.45172 -10.48243,3.26367 -0.96533,1.03467 -1.76436,2.21291 -2.70703,3.26758 -4.13995,4.628 -10.28395,5.00834 -15.72656,2.51367 -1.232,-0.56533 -2.59859,-1.64751 -2.28125,-2.96484 -1.08,4.48662 4.07034,5.18544 7.26367,5.77344 1.55734,0.28667 2.86584,0.55854 4.45117,0.31054 1.78,-0.27867 3.53696,-1.04392 5.1543,-1.78125 1.40533,-0.64 3.13346,-0.90462 3.9668,-2.36328 0.68,-1.19067 0.89397,-2.37083 2.05664,-3.29883 1.716,-1.36795 3.79372,-2.28022 5.90039,-2.96289 2.95333,-0.95733 6.4465,-1.43445 9.33984,-0.45312 -0.80134,-0.89067 -2.07714,-1.02271 -3.23047,-1.10938 -1.17366,-0.088 -2.42847,-0.17352 -3.70507,-0.19531 z m 52.80468,2.47852 c -1.1724,-0.006 -2.4031,0.48107 -3.44726,0.96875 -2.09467,0.97866 -4.52415,1.3321 -6.55078,2.63476 -0.772,0.496 -2.15039,3.97071 -2.1504,3.97071 0,0 2.26063,-2.92393 3.64063,-3.41993 1.37867,-0.496 5.50564,-1.76881 8.9043,-1.13281 2.78664,0.52133 2.29882,1.59196 2.29883,3.89063 0,2.29863 -2.32618,4.24804 -2.32618,4.24804 1.796,-0.284 3.66739,-1.69749 4.27539,-3.46679 0.52133,-1.51733 -0.0382,-3.16078 -0.82226,-4.46875 1.99734,0.26533 2.12073,3.9811 2.05273,5.39843 -0.0707,1.47867 -0.54654,2.85645 -1.17187,4.23242 1.11733,-0.65464 1.78442,-3.00308 2.23242,-4.23242 0.55866,-1.53333 0.64145,-3.10932 0.68945,-4.72265 0.0227,-0.76934 0.38018,-3.59429 1.21485,-3.87696 -1.40934,0.47867 -2.46038,1.2549 -4.12305,1.10157 -1.464,-0.136 -2.78408,-0.89847 -4.21875,-1.0918 -0.16433,-0.0223 -0.33056,-0.0324 -0.49805,-0.0332 z m -21.57226,0.75781 c -0.5768,2.60269 -0.51527,5.15756 -0.29883,7.71094 4e-5,-0.0703 0,-0.1407 0,-0.21094 0,-2.45333 -0.0479,-5.364 0.29883,-7.5 z m -0.29883,7.71094 c -0.002,3.44251 -0.0534,6.90344 0.13867,10.30078 0.252,4.47062 1.20614,9.11023 0.77148,13.60351 -0.30129,3.12267 -1.28329,5.03713 -3.27929,7.34375 -0.96533,1.116 -2.14714,2.73793 -1.3418,4.16993 0.49066,0.87195 1.15402,1.25823 1.52735,1.99023 0.15329,0.3 0.2579,0.65753 0.2832,1.13086 0.0493,0.956 -0.5902,1.94248 0.3418,2.64648 2.23062,1.68667 3.25364,-3.30123 3.68164,-4.5039 1.03728,-2.90933 -0.49814,-5.89823 -0.2168,-8.85157 0.32266,-3.37861 -0.16274,-6.55128 -0.44141,-9.86328 -0.328,-3.91195 -0.56637,-7.90548 -0.87304,-11.88281 -0.15787,-2.04289 -0.4205,-4.06307 -0.5918,-6.08398 z m -22.125,16.4414 c -2.05981,-0.0644 -4.38263,1.04924 -5.85938,2.52149 -1.45595,1.452 -0.69747,4.11122 1.61719,3.33789 1.696,-0.56667 2.92775,-1.90369 4.0957,-3.04102 2.09467,-2.04 2.67388,0.69938 3.8125,1.99805 0.14266,-0.67067 0.21202,-1.36053 0.13868,-2.14453 -0.76067,-1.85908 -2.20262,-2.62181 -3.80469,-2.67188 z m 52.91797,0.20508 c -2.24266,1.564 -1.38187,3.73781 -0.78321,4.37109 1.292,1.46267 -0.0118,4.49091 -1.45312,5.37891 -1.40901,0.86903 -3.00043,1.37823 -4.52344,2.01563 2.39219,-0.69312 5.13431,-0.49389 7.23828,-1.81641 2.97466,-1.86934 0.35222,-3.71475 -0.67578,-5.71875 -0.82133,-1.60133 -0.0548,-2.8598 0.19727,-4.23047 z m -6.75977,11.76563 c -1.00354,0.29076 -1.95162,0.7232 -2.75586,1.51562 0.83643,-0.6626 1.78559,-1.10955 2.75586,-1.51562 z M 326.1582,157.08203 c -1.1447,0.17962 -2.53515,3.232 -2.91015,4.25195 0.61467,-0.71062 2.84906,-4.01899 3.51172,-1.09765 0.44134,1.94 -1.31233,4.01587 1.76367,4.17187 0.744,0.0373 2.21192,0.0353 2.55859,-0.83008 0.29466,-0.73328 -0.57655,-1.38704 -1.06055,-1.98437 -0.80395,-0.992 -2.35542,-4.24647 -3.63671,-4.50781 -0.0738,-0.015 -0.15025,-0.0159 -0.22657,-0.004 z m -33.06354,17.7193 c 0.024,0.37733 -0.11867,0.704 -0.15067,1.07467 -0.0307,0.368 0.0107,0.73733 0.068,1.10133 0.0587,0.36933 0.14267,0.73467 0.19867,1.10533 0.0187,0.11867 0.0107,1.00267 0.0573,1.03334 -0.228,-0.15734 -0.34933,-0.468 -0.50266,-0.68267 -0.19334,-0.26933 -0.372,-0.544 -0.544,-0.832 -0.312,-0.524 -0.58134,-1.088 -0.736,-1.68133 -0.11334,-0.436 -0.23867,-0.88 -0.25467,-1.33334 -0.009,-0.27066 -0.064,-0.90533 0.12533,-1.11333 0.912,-1.00133 1.69334,0.636 1.73867,1.328 z" /><path
     opacity="0.2"
     d="m 285.94266,122.55866 c 2.40267,0.988 4.99467,2.21467 6.56533,4.06667 1.87867,2.21467 3.24134,5.3 4.644,7.864 0.74267,1.35867 2.404,4.212 1.72134,5.72667 -2.168,4.816 -6.69067,8.26666 -11.30134,10.636 -2.20533,1.13333 -4.77733,1.98266 -7.25866,2.11466 -2.912,0.15467 -6.22267,0.17734 -9.14934,-0.43866 -1.00266,-0.21067 -2.11333,-0.408 -2.98666,-0.884 -1.55867,-0.84934 -2.69334,-2.42267 -3.92534,-3.668 -1.516,-1.53334 -3.168,-2.87334 -4.69866,-4.4 -1.14934,-1.14667 -2.208,-2.51467 -3.59734,-3.372 -0.90666,-0.55867 -4.11066,-1.78267 -4.136,-3.04667 -0.007,-0.364 1.26,-1.11733 1.55334,-1.36133 1.31733,-1.09334 2.35866,-2.31867 3.268,-3.776 1.38,-2.21067 2.26,-4.91334 4.008,-6.87334 2.124,-2.38 5.864,-4.37066 8.98266,-4.80933 1.25734,-0.176 2.52534,-0.43333 3.772,-0.54533 1.40934,-0.12667 3.09467,0.252 4.488,0.46933 2.02134,0.31467 4.17067,0.74267 6.08934,1.51333 0.62133,0.24667 1.284,0.50534 1.96133,0.784 z"
     id="path53"
     style="stroke-width:1.33333;fill:#000000;fill-opacity:1" /><path
     opacity="0.2"
     d="m 280.65199,135.43866 c -2.41733,0.23734 -4.732,-0.14533 -6.21866,2.20934 -0.45467,0.72 -0.26534,1.44 -0.59467,2.12666 -0.53067,1.108 -1.93333,0.184 -2.54667,-0.37733 -0.752,-0.68933 -1.45066,-1.828 -2.44933,-0.92933 -1.11333,1.00266 -0.41867,2.65066 0.396,3.55066 0.40133,0.444 0.772,0.688 1.29333,0.952 0.80667,0.40934 2.212,0.47867 2.88134,0.98534 1.43866,1.088 -1.57867,1.38266 -2.40934,1.30266 -1.65333,-0.15866 -3.25466,-1.244 -4.70266,-2.01866 -2.412,-1.29067 -5.09467,-2.42934 -7.79867,-2.87334 -1.288,-0.21066 -2.56667,-0.46 -3.78933,-0.92933 -0.59734,-0.22933 -1.18534,-0.496 -1.728,-0.83733 -0.29867,-0.188 -0.992,-0.984 -1.288,-1.02667 3.84266,0.556 10.104,3.452 12.45333,-0.90267 1.27333,-2.36 2.664,-4.58266 4.69067,-6.38933 2.23466,-1.99067 5.816,-2.79467 8.70133,-3.33467 3.03333,-0.568 5.50133,-0.008 8.46267,0.32267 -2.032,-2.992 -7.06134,-2.54533 -10.312,-2.53733 -3.02134,0.008 -5.87867,0.80266 -8.332,2.63466 -0.41467,0.31067 -1.792,1.82934 -2.41734,1.76134 -0.62,-0.0667 -1.08266,-1.536 -1.21333,-2.09867 -0.268,-1.152 0.0613,-1.984 0.664,-2.95867 0.52267,-0.84666 0.98133,-2.164 1.756,-2.796 0.844,-0.688 2.44533,-0.79466 3.48,-0.94 1.25733,-0.176 2.52533,-0.43333 3.772,-0.54533 1.40933,-0.12667 3.09467,0.252 4.488,0.46933 2.02133,0.31467 4.17067,0.74267 6.08933,1.51334 2.82,1.132 6.512,2.47866 8.52534,4.85333 1.87866,2.21467 3.24133,5.3 4.644,7.864 0.74266,1.35867 2.404,4.212 1.72133,5.72667 -1.06667,2.37066 -2.688,3.90933 -4.28533,5.93066 -2.01067,2.54534 -3.85867,4.588 -7.05467,5.68267 -3.31067,1.13333 -7.23467,0.48133 -10.488,1.632 2.33733,-1.39467 4.92133,-1.512 7.44533,-2.33733 1.08934,-0.356 2.42667,-0.516 2.94134,-1.664 -1.03867,-0.408 -2.644,-0.11734 -3.76267,-0.264 -1.04933,-0.13734 -1.964,-0.304 -2.93467,-0.66134 -0.82266,-0.30266 -1.58133,-0.66533 -2.332,-1.04266 3.26134,-0.59067 6.40134,-0.41867 9.628,-1.36667 0.484,-0.14267 1.91067,-0.24 2.17467,-0.68133 0.372,-0.62134 -0.36667,-1.524 -1.028,-1.56267 0.196,0.012 1.13467,-0.72133 1.396,-0.83733 0.572,-0.25467 1.188,-0.40667 1.748,-0.688 1.28267,-0.64667 1.716,-1.608 1.72267,-3.04267 0.0133,-2.45467 -2.52934,-3.29733 -4.55067,-3.57067 -2.968,-0.404 -5.81733,-0.6 -8.83867,-0.304 z"
     id="path54"
     style="stroke-width:1.33333;fill:#000000;fill-opacity:1" /><path
     opacity="0.2"
     d="m 279.41599,129.80533 c -1.52933,0.50533 -2.79866,1.35733 -3.19333,2.67733 -0.14933,0.49734 -0.11867,1.376 0.244,1.80267 0.524,0.61733 1.188,0.27333 1.83867,0.57467 -1.412,0.90133 -1.28134,2.85866 -1.06267,4.308 0.112,0.73733 0.31867,1.69466 0.74133,2.28133 0.336,0.46667 0.956,0.56267 0.99867,1.164 -2.02667,0.36267 -4.94133,-0.82533 -6.79333,-1.51733 -1.42934,-0.53467 -3.04667,-1.35334 -2.82667,-3.16267 0.188,-1.548 2.15467,-2.95867 3.02133,-4.2 1.01467,-1.45333 1.92534,-2.448 3.45334,-3.33867 1.504,-0.876 3.19866,-1.57333 4.92666,-1.824 0.86,-0.12533 5.516,0.29467 5.92667,-1.08666 0.37467,-1.256 -2.29333,-2.88534 -3.16667,-3.21467 -5.19866,-1.96 -10.76533,-1.304 -15.92,-3.076 1.716,-1.02667 3.844,-1.22667 5.80267,-1.40267 1.40933,-0.12666 3.09467,0.252 4.488,0.46934 2.02133,0.31466 4.17067,0.74266 6.08933,1.51333 2.82,1.132 6.512,2.47867 8.52534,4.85333 1.87866,2.21467 3.24133,5.3 4.644,7.864 0.74266,1.35867 2.40266,4.212 1.72133,5.72667 -1.084,2.40667 -2.728,4.66533 -4.33867,6.75733 -0.87733,1.14 -1.84666,2.05067 -2.93733,2.98667 -1.436,1.23333 -2.99067,1.32667 -4.764,1.908 1.53067,-0.50267 4.404,-2.12 3.984,-4.09867 -1.28667,0.496 -2.20533,0.712 -3.644,0.51867 -0.972,-0.13067 -1.912,-0.372 -2.85333,-0.62533 -0.956,-0.25734 -2.20667,-0.21867 -3.04267,-0.63734 0.70267,0.27867 1.69733,0.096 2.45733,0.06 1.08,-0.052 2.244,0.044 3.29467,-0.14666 0.56267,-0.10134 2.21067,-0.53334 2.24533,-1.26 0.0453,-0.94534 -1.56933,-0.808 -2.156,-0.89867 -1.46666,-0.228 -2.82533,-0.87333 -4.268,-1.22267 1.06,0.33334 2.364,0.46934 3.568,0.38 1.804,-0.13333 4.45467,-0.288 4.904,-2.36266 0.36267,-1.67867 -0.436,-3.8 -1.56666,-5.03867 -1.856,-2.036 -4.74,-0.848 -6.82934,-2.032 0.84,-1.25867 2.036,-3.32133 0.78267,-4.73467 -0.97333,-1.096 -3.05333,-0.376 -4.29467,0.0347 z"
     id="path55"
     style="stroke-width:1.33333;fill:#000000;fill-opacity:1" /><path
     id="path61"
     style="stroke-width:1.33333;fill:#000000;fill-opacity:1;opacity:0.2"
     d="m 339.72932,149.32533 c 1.90934,-3.82667 2.52,-7.90267 2.396,-12.18133 0.0627,2.172 1.948,3.88933 1.844,6.06533 -0.108,2.28533 -2.37866,4.98533 -4.24,6.116 z M 320.72266,139.316 c 0,0 3.60133,5.56533 9.16667,5.07466 1.74666,-0.15466 3.51466,-0.18666 5.25466,-0.40266 1.84533,-0.228 2.89333,-1.37467 4.44933,-2.30667 -0.34,1.34267 -0.51866,2.77733 -1.36266,4.02533 -1.49334,2.20934 -2.98667,2.62134 -5.53067,2.55734 -2.15333,-0.0547 -4.824,-0.368 -6.57733,-1.74534 -2.28933,-1.8 -5.4,-7.20266 -5.4,-7.20266 z" /><path
     id="path63"
     style="stroke-width:1.33333;fill:#000000;fill-opacity:1;opacity:0.2"
     d="m 277.73599,166.368 c -3.01733,-3.97067 3.11734,-6.65067 5.268,-9.22134 -1.52,1.81734 -3.11866,4.61067 -3.15333,7.03334 -0.0373,2.58533 2.844,3.40133 2.21733,6.01066 -1.73333,-0.53733 -3.25866,-2.40933 -4.332,-3.82266 z m -2.72133,-12.68934 c -0.80933,0.872 -2.24533,1.25867 -3.28667,1.70667 -1.376,0.59333 -2.40533,0.99733 -3.87733,0.99733 -2.124,0 -4.69733,0.007 -6.712,-0.764 -0.86533,-0.332 -1.784,-0.82 -2.58667,-1.23866 0.30934,0.912 2.54667,1.83866 3.4,2.16666 1.26534,0.48667 2.76534,0.58934 4.128,0.716 2.568,0.23867 4.90934,-0.25333 6.90267,-1.94 0.52667,-0.44533 1.06267,-0.84533 2.032,-1.644 z m 50.25067,-44.90533 c 1.54266,0.59467 2.78266,1.556 4.23866,-0.43867 0.95867,-1.31333 0.86,-4.16 2.196,-5.08133 0.68934,-0.476 1.876,-0.15733 2.65733,-0.15867 1.07067,-0.003 2.132,-0.088 3.168,-0.37466 1.66667,-0.46 2.55734,-1.884 3.54267,-3.310669 1.08133,-1.565333 0.848,-2.893333 0.848,-4.818667 0,-1.932 -0.0853,-3.804 -0.11467,-5.725333 1.00667,1.733333 1.66,3.701333 1.76267,5.68 0.15333,2.962667 -1.75067,7.155999 -4.61733,8.418669 -1.84,0.81066 -4.036,0.87866 -5.71067,2.08266 -0.93066,0.66934 -0.784,1.18667 -1.19333,2.09067 -0.62933,1.388 -2.38533,2.61067 -3.64667,3.364 -0.79066,0.47333 -1.72266,0.556 -2.57333,0.088 -0.488,-0.26933 -1.29733,-2.05733 -1.46133,-2.09067 0.312,0.0627 0.61333,0.16267 0.904,0.27467 z m -0.45334,-9.561332 c 1.46,-0.184 2.77334,-3.432 3.532,-4.824 1.444,-2.648 2.19467,-5.650667 2.92534,-8.710667 0.73733,-3.082666 0.82933,-5.962666 0.548,-9.110666 -0.3,-3.358667 -1.476,-6.264 -2.20134,-9.368 1.72134,2.402667 3.02,5.298667 4.088,8.174666 0.74133,1.997334 1.3,4.090667 1.44533,6.265334 0.184,2.765333 -0.332,4.604 -0.92266,7.226666 -1.06533,4.725333 -5.33467,7.690667 -9.41467,10.346667 z M 269.09866,81.477331 c 0.99467,1.276 2.276,2.314667 3.752,2.929334 3.36,1.4 6.488,3.375999 9.94267,4.503999 2.69733,0.881334 5.028,2.582667 7.672,3.504 2.23066,0.777334 4.17733,2.332 5.12,4.622667 0.0387,-2.022667 -0.696,-3.554667 -2.368,-4.621333 -4.14534,-2.645334 -8.62267,-4.726667 -13.14534,-6.656 -2.19733,-0.937333 -4.428,-1.852 -6.38666,-3.218667 -3.948,-2.756 -5.124,-6.950666 -5.116,-11.597333 0.004,-1.824 0.35333,-3.710666 0.72266,-5.478666 -1.20533,4.246666 -3.37466,7.883999 -2.01866,12.465333 0.37733,1.274666 1.00266,2.492 1.82533,3.546666 z M 294.03999,109.916 c -2.004,1.564 -5.87733,0.32266 -8.032,-0.35867 -2.00933,-0.636 -4.01466,-2.10933 -5.08266,-3.96133 -1.16267,-2.01467 -0.78267,-4.652 -2.448,-6.469336 -1.28667,-1.404 -3.41467,-2.789333 -5.39334,-2.686666 -2.324,0.12 -4.628,0.918666 -6.97866,0.954666 -3.19067,0.048 -5.824,-2.533333 -6.91867,-5.5 -1.06133,-2.874666 -1.29067,-5.930666 -1.79333,-8.974666 -0.288,-1.748 -0.66534,-3.482667 -1.1,-5.201333 -1.54134,-6.088 -4.31867,-11.430667 -2.94134,-17.892 0.77467,-3.629333 2.02934,-8.333333 4.39734,-11.249333 0.39466,-0.486667 1.97466,-0.994667 2.136,-1.342667 -1.24,2.661334 -3.11067,4.837334 -4.08667,7.684 -0.98267,2.865334 -1.42267,5.926667 -1.15067,8.950667 0.20934,2.330666 0.83067,4.604 1.62934,6.797333 0.63333,1.734667 1.66933,3.338666 1.83733,5.205333 0.37733,4.198667 1.46267,8.265333 2.43733,12.377333 0.468,1.978667 1.208,4.154667 3.07334,5.276 2.77333,1.665333 6.136,1.128 9.08666,0.466667 1.892,-0.424 6.08934,-1.366667 7.37067,0.718666 0.39467,0.642667 0.432,2.148 0.53733,2.873334 0.208,1.441333 0.67334,2.820002 0.91334,4.257332 0.236,1.424 0.772,2.84933 1.74133,3.94 1.38933,1.56133 3.38933,3.19333 5.49467,3.60533 2.848,0.55867 5.21333,-0.84666 7.00266,-2.98 0.164,0.93734 -0.97733,2.92 -1.732,3.50934 z m -41.61066,-7.032 c 0.16266,2.864 2.02533,5.592 1.652,8.552 -0.196,1.55066 -1.14667,2.90533 -1.54534,4.41066 -0.952,3.6 0.048,6.53334 3.324,8.252 1.35334,0.70934 3.44,1.28 4.88,0.52667 -2.22133,-0.60667 -6.34,-1.784 -6.55466,-4.58533 -0.11334,-1.47734 1.29733,-3.588 2.43733,-4.44267 1.47333,-1.10533 3.428,-0.53867 5.00933,-1.304 -0.768,-0.64 -1.66,-0.97333 -2.28533,-1.74267 -1.156,-1.424 -2.03867,-3.19866 -2.88933,-4.81866 -2.16134,-4.112 -3.98934,-8.529336 -6.56534,-12.409336 0.43334,3.210667 2.37467,6.147996 2.97467,9.318666 m 61.6,25.81733 c 0.0493,0.156 2.53867,0.092 2.81333,0.052 1.04934,-0.156 1.97734,-0.71466 2.984,-1.04666 -0.064,1.14666 -1.90533,2.46 -2.86,2.83866 -1.56,0.616 -2.46933,-0.38266 -2.93733,-1.844 z m -6.864,0.476 c 0.41467,0.24934 0.83867,0.47867 1.22267,0.72134 -1.35067,0.0467 -3.44267,-0.36 -4.784,-0.66134 -0.884,-0.19866 -2.25867,-0.38 -2.37334,-1.48666 -0.12133,-1.18267 1.456,-2.58 2.352,-3.10934 2.836,-1.67333 4.02934,-2.95733 4.42934,-6.35466 0.27466,1.28666 0.48666,3.676 -0.304,4.83333 -0.87067,1.27333 -2.88534,1.61867 -2.61067,3.54667 0.176,1.22933 1.092,1.924 2.068,2.51066 z m -9.632,-23.62533 c 0.0813,1.40933 -0.81333,4.01867 -1.50533,5.248 -1.032,1.83333 -2.612,2.156 -4.50134,2.58 -3.368,0.75467 -6.84,-0.224 -10.228,-0.288 -4.61333,-0.088 -9.68666,-0.89867 -14.10533,0.444 3.69333,-0.0267 7.388,-0.003 11.08267,-0.003 3.08266,0 6.552,0.16 9.508,1.04134 2.128,0.63466 4.42533,1.228 6.46133,2.00266 0.6,0.228 1.39333,0.61734 1.88533,1.07334 0.48134,0.448 0.684,1.09866 1.232,1.45466 0.72134,0.468 2.23734,0.72 2.72,0.0333 0.60667,-0.864 -0.31733,-1.69467 -0.53466,-2.484 -0.30934,-1.12267 0.21733,-1.55334 0.528,-2.524 0.304,-0.95067 0.0107,-1.832 -0.35334,-2.77334 -0.74666,-1.932 -2.06666,-3.672 -2.18933,-5.80533 z m 5.84267,31.008 c 0.97066,2.25467 0.82666,4.236 0.21466,6.66 -0.54133,2.14667 -1.42933,4.312 -1.64266,6.516 -0.17734,1.83733 -0.0107,3.75067 -0.44134,5.52933 -1.78266,-1.20933 -2.69066,-3.38933 -4.39466,-4.59733 -1.02,-0.724 -2.032,-0.72133 -1.30534,-2.21867 1.08,-2.22666 2.90134,-4.04533 3.81867,-6.412 0.43467,-1.12266 0.35067,-2.688 0.47067,-3.89066 0.16533,-1.66267 0.22533,-3.32934 -0.20667,-4.96134 -0.59333,-2.24 -2.10933,-3.73066 -3.49333,-5.552 1.44533,1.456 3.03866,2.764 4.44133,4.26267 1.244,1.32667 1.828,3.01333 2.53867,4.664 z m -19.748,75.97733 c 1.228,-0.001 2.692,0.068 3.64533,-0.764 1.13067,-0.988 0.93067,-2.524 1.35467,-3.73467 0.27333,-0.77866 0.99866,-1.628 1.752,-1.96266 -0.14534,1.19466 -0.60267,2.07066 -0.53734,3.36266 0.0653,1.28934 0.27067,2.1 -0.47466,3.18534 -1.464,2.13333 -3.744,1.12666 -5.29867,-0.23334 m 30.044,-5.572 c 1.956,0.092 3.85467,-0.40933 5.75067,-0.31733 -0.71334,1.48933 -3.79734,1.3 -5.11467,1.27867 -2.53467,-0.04 -4.63333,-1.316 -7.192,-1.272 -1.08267,0.0187 -2.10933,0.46533 -3.15333,0.60933 1.304,-0.628 3.008,-1.32933 4.48933,-1.28133 1.736,0.0573 3.43067,0.89866 5.22,0.98266 z m 2.68533,4.71867 c 2.13334,-0.18 5.13467,0.42667 6.89067,1.736 1.73867,1.29867 1.85467,3.54 1.896,5.51733 0.348,-1.28133 0.22933,-2.57333 -0.0467,-3.804 -0.35733,-1.59466 -1.16,-2.88666 -1.19866,-4.552 -0.61067,0.47867 -1.11467,1.01067 -1.956,0.928 -1.12267,-0.11066 -2.028,-0.812 -3.256,-0.668 -0.928,0.10934 -1.76534,0.76267 -2.712,0.88134 0.128,-0.0147 0.256,-0.028 0.38266,-0.0387 z m -9.73866,-0.66933 c -1.18934,0.132 -2.40934,0.001 -3.552,0.48933 -1.36667,0.58267 -2.35067,1.77733 -3.19467,2.956 -0.632,0.88133 -1.12133,1.336 -1.404,2.44933 -0.284,1.11467 -0.33733,2.27467 -0.57733,3.39734 -0.47734,-1.09734 -0.888,-2.3 -1.66267,-3.232 -0.252,-0.30267 -2.29333,-1.88534 -2.5,-1.81467 1.68133,-0.572 3.68133,-1.644 3.92,-3.58933 -0.0347,0.90666 -0.42667,2.80266 1.112,1.992 0.97333,-0.51334 1.28933,-1.88267 2.20267,-2.53467 1.34933,-0.964 5.45466,-1.82 6.736,-0.33333 -0.356,0.11466 -0.71734,0.18 -1.08,0.22 z m 35.58933,-40.648 c -0.528,-0.112 -1.64134,0.488 -2.28,0.72133 -1.07067,0.38934 -2.232,0.66667 -3.33734,1.02934 -1.28933,0.42266 -2.132,1.37333 -3.03866,2.38 -2.23067,2.47733 -2.396,5.61066 -3.34133,8.65866 0.196,-0.568 0.68133,-1.01333 1.14666,-1.39066 0.756,1.228 -0.096,3.88666 -0.20266,5.20666 -0.14,1.736 -0.32534,3.63867 -0.19467,5.368 0.68933,-2.65466 1.604,-5.64266 2.79333,-8.116 0.69333,-1.44133 1.58267,-2.54266 2.996,-3.23333 1.48667,-0.72667 2.224,-0.71867 3.08133,-2.34667 0.808,-1.532 1.77867,-2.78933 2.84134,-4.13733 0.42533,-0.54133 3.03466,-4.41333 -0.464,-4.14 z m -53.676,-1.616 c -0.97333,0.10667 -1.76133,1.15067 -1.47867,2.47467 0.36134,1.69866 1.436,3.64266 2.53467,4.98666 -0.392,-1.208 -0.98267,-2.83733 -1.16,-4 -0.228,-1.488 0.71333,-1.87066 1.81867,-2.56666 -0.51867,-0.70134 -1.148,-0.956 -1.71467,-0.89467 z m 37.05867,3.416 c -3.668,-0.0107 -3.34134,4.53733 -3.54667,7.016 -1.00933,-2.652 -0.90933,-7.39867 3.54667,-7.016 z m -21.55467,17.73333 c -0.088,-0.16 -0.196,-0.38533 -0.276,-0.72266 -0.148,-0.62267 -0.40133,-3.15334 0.0293,-3.64134 -1.3,1.47334 -3.072,3.24934 -4.98533,3.75467 -3.88533,1.02667 -6.05733,-10.31333 -6.596,-13.02133 -0.24267,-1.22 -0.22933,-2.572 -0.60667,-3.792 -2.14133,0.95333 0.716,6.81866 1.21467,8.25333 0.68267,1.96667 0.87467,4.072 0.96,6.14 0.008,0.19067 0.13467,5.56267 -1.124,4.78133 -1.55467,-0.96533 -1.93733,-4.984 -2.48933,-6.676 -0.632,-1.93733 -2.81467,-3.99066 -2.336,-6.02666 -0.636,1.69466 0.144,3.68933 0.292,5.392 0.85466,9.868 -10.652,8.27733 -17.04534,7.88133 2.91467,1.416 -0.316,3.488 -2.12,3.97333 1.008,0.888 2.864,-0.356 4.04267,-0.43733 1.47333,-0.10267 2.86133,-0.444 4.36933,-0.29467 1.392,0.13734 2.61467,0.84267 4.044,0.75867 -1.05866,1.82933 -5.31066,4.81733 -7.46133,4.688 1.91333,-0.0307 4.31867,1.028 5.97333,0.004 1.67467,-1.03734 2.34934,-2.888 3.768,-4.14133 1.252,-1.10667 3.124,-1.84934 4.772,-2.02267 1.04267,1.98 -4.372,6.056 -5.25866,7.87866 2.07733,-1.55333 4.14266,-3.33466 5.87333,-5.21866 3.95333,-4.30533 8.75867,-4.52133 13.972,-6.60533 1.33733,-0.536 1.24933,-0.42934 0.988,-0.90534 z m -2.08933,-15.632 c 0.61866,-0.0867 1.23333,-0.25466 2.056,-0.28266 1.732,-0.06 3.07466,0.96 3.97333,2.36133 1.292,2.016 0.0307,3.48533 0.17067,5.668 0.16533,2.59733 2.43466,2.60267 4.47733,2.7 0.75733,0.036 2.39733,-0.12267 2.84267,0.61067 0.68266,1.12266 -1.12267,3.24133 -1.44134,4.26133 -0.26133,0.832 -0.88533,0.98667 0.188,1.472 0.57334,0.25867 1.64667,-0.15467 2.156,-0.332 3.924,-1.36667 2.412,-6.76133 1.316,-9.53067 -0.528,-1.33333 -2.75466,-3.844 -2.63466,-5.224 0.14133,-1.61333 2.46266,-1.936 3.66266,-2.52533 2.464,-1.20933 2.58134,-2.11733 3.08134,-4.44933 0.456,-2.12 2.292,-3.664 4.01466,-4.79467 2.13334,-1.39867 3.47867,-1.816 2.716,-4.48933 -0.48533,-1.70134 -1.68,-3.52 -3.52533,-2.47734 -1.23733,0.7 -3.03733,2.97067 -2.77067,4.49067 -0.224,-0.728 -0.79466,-1.08533 -0.88533,-1.78533 -0.10533,-0.816 0.37733,-1.86934 0.59067,-2.63467 0.38666,-1.38267 0.96666,-1.95867 1.736,-3.12667 -2.64134,0.19734 -3.58667,3.71734 -3.19334,5.90667 0.28134,1.57067 1.02667,3.244 0.844,4.864 -0.0773,0.68533 -0.0253,1.244 -0.73466,1.51333 -0.292,0.11067 -1.91334,-0.45733 -1.624,-0.71733 -2.27467,2.04667 -3.12,-1.63867 -3.308,-3.26267 -0.308,-2.64 -1.37867,-5.28933 -1.91067,-7.95866 -0.28267,-1.41734 -0.55467,-3.248 -0.892,-4.344 -0.31733,4.668 0.74267,9.39333 -0.008,14.05466 -0.212,1.316 -0.63733,3.86667 -2.496,3.21734 -1.72933,-0.604 -1.23733,-3.244 -2.06,-4.48534 -1.43467,-0.732 -1,0.98667 -1.288,1.87334 -0.82667,2.54133 -3.79467,3.49333 -5.97733,2.04133 -1.46667,-0.97467 -1.48534,-3.21067 -1.94667,-4.78133 -0.56667,-1.92534 -1.14933,-3.83734 -2.21867,-5.55467 -1.412,-2.26533 -4.29333,-4.55733 -7.22,-3.95733 0.75734,-0.156 3.224,1.79333 3.88267,2.33866 1.104,0.91467 1.95733,2.624 2.17733,4.03067 0.0947,0.60533 0.19467,2.84933 -0.58533,3.072 -1.52933,0.43467 -1.804,-4.79867 -2.8,-5.57467 -2.512,-1.95466 -5.87333,0.0893 -7.396,2.348 -1.00933,1.49734 -1.39333,3.108 0.46933,3.98134 2.10534,0.98666 5.50267,0.95066 7.09867,2.56933 1.528,1.54933 1.52267,4.10133 3.048,5.69733 1.18667,1.24267 2.57867,2.34934 4.19867,2.964 0.908,0.34534 1.564,0.34267 2.216,0.252 z m 23.80533,33.12267 c 0.244,0.37466 0.45867,0.752 0.64267,1.092 -0.02,-1.25334 0.0947,-2.54534 -0.264,-3.68934 -0.67867,-2.16 -2.64134,-4.28 -4.664,-5.17066 -2.004,-0.88267 -3.92534,-1.18934 -6.03734,-1.628 -3.248,-0.676 -6.42533,0.0213 -9.74666,0.18933 -2.42934,0.12267 -5.75867,0.176 -7.824,1.46267 -1.04267,0.64933 -1.85334,1.61066 -2.82267,2.32933 -1.30933,0.96933 -2.80133,1.31067 -4.192,2.08533 3.38533,-1.388 7.04533,-1.41866 10.49333,-2.228 -1.97733,2.332 -4.39866,3.27867 -6.71733,5.08934 4.644,-2.116 9.67733,-3.83467 14.756,-2.42667 0.88933,0.24667 1.68933,0.70933 2.696,0.61467 0.676,-0.064 1.35733,-0.18934 2.1,-0.224 -0.8,-0.43067 -1.61067,-0.852 -2.448,-1.20667 -1.23867,-0.52533 -2.67467,-0.60133 -3.844,-1.024 0.52933,-0.24267 1.136,-0.42667 1.78933,-0.55333 2.81867,-0.54134 6.49734,0.003 8.47067,1.55866 -0.39733,0.31334 -0.90533,0.476 -1.35333,0.72667 2.08133,-0.084 5.216,0.012 7.09466,1.04933 2.67067,1.47467 2.336,5.32667 3.87467,7.708 0.41733,0.64534 1.06133,1.84667 1.88667,1.57734 0.67733,-0.22134 1.11866,-1.65467 1.292,-2.272 0.28933,-1.02667 0.304,-2.076 0.312,-3.17734 -0.116,0.688 -0.53867,1.24534 -0.848,1.812 -3,0.456 -4.14267,-5.79066 -4.01467,-7.94266 m -6.12267,-79.89867 c -0.35333,0.13867 -0.72133,0.23734 -1.084,0.296 -1.49466,0.24 -3.18666,-0.16666 -4.27066,-1.26266 -4.07467,-4.124 -0.804,-10.38534 1.60266,-14.36267 0.70667,-1.16933 1.472,-2.384 2.76934,-2.89733 -1.87734,4.484 -5.22267,8.552 -2.20667,13.19733 1.18133,1.81867 3.34667,2.64533 5.39867,2.944 0.26,0.0373 -0.96534,1.37467 -1.124,1.492 -0.32534,0.24267 -0.69734,0.44133 -1.08534,0.59333 z" /><path
     opacity="0.2"
     d="m 324.20133,128.15733 c -1.85334,1.12133 -2.22,3.808 -2.83734,5.68933 -0.66533,2.032 -0.944,3.676 -0.50533,5.70267 0.688,3.18533 0.49467,6.60267 1.65467,9.60533 0.40666,1.05067 1.19333,1.81734 1.748,2.77734 0.40266,0.696 0.57733,1.33333 1.228,1.85733 1.80666,1.452 4.412,1.52267 6.62133,1.55067 1.076,0.0147 2.07866,-0.11067 3.12933,-0.36267 0.59333,-0.14267 2.23467,-1.19333 2.66133,-1.16 -1.66266,-0.12933 -5.57866,0.001 -6.66133,-1.472 1.56134,-0.99867 3.88267,-1.33467 5.624,-2.056 0.736,-0.30533 1.54,-0.55867 2.22667,-0.96667 1.18533,-0.704 1.94933,-1.49733 2.47466,-2.75066 1.74534,-4.15734 1.54,-8.336 2.39467,-12.672 0.30133,-1.52667 0.73333,-3.06134 1.4,-4.49467 0.47067,-1.01067 1.56533,-2.49067 1.38667,-3.68 -0.31334,-2.08 -3.21734,-3.46 -4.99734,-3.73333 -3.49866,-0.53467 -7.46533,0.344 -10.80533,1.436 -2.284,0.748 -5.336,3.26666 -6.74266,4.72933 z"
     id="path64"
     style="stroke-width:1.33333;fill:#000000;fill-opacity:1" /></g></svg>
