<?xml version="1.0" encoding="UTF-8" standalone="no"?>
<!-- Generator: Adobe Illustrator 28.3.0, SVG Export Plug-In . SVG Version: 6.00 Build 0)  -->

<svg
   version="1.1"
   id="Head_Kelpiens_Female_1"
   x="0px"
   y="0px"
   viewBox="0 0 400 400"
   enable-background="new 0 0 300 300"
   xml:space="preserve"
   sodipodi:docname="KelpienFemale.svg"
   width="400"
   height="400"
   inkscape:version="1.3.2 (091e20e, 2023-11-25)"
   xmlns:inkscape="http://www.inkscape.org/namespaces/inkscape"
   xmlns:sodipodi="http://sodipodi.sourceforge.net/DTD/sodipodi-0.dtd"
   xmlns="http://www.w3.org/2000/svg"
   xmlns:svg="http://www.w3.org/2000/svg"><defs
   id="defs56">
	

	
	
	
	
	
	
	
	
	

	
	
	
	
	

	
	
	
	
	
	
	
	
	
	

		
	
		
	
		
	
		
	
		
	</defs><sodipodi:namedview
   id="namedview56"
   pagecolor="#ffffff"
   bordercolor="#666666"
   borderopacity="1.0"
   inkscape:showpageshadow="2"
   inkscape:pageopacity="0.0"
   inkscape:pagecheckerboard="0"
   inkscape:deskcolor="#d1d1d1"
   inkscape:zoom="7.2337024"
   inkscape:cx="293.90206"
   inkscape:cy="128.08102"
   inkscape:window-width="1992"
   inkscape:window-height="1248"
   inkscape:window-x="2424"
   inkscape:window-y="49"
   inkscape:window-maximized="0"
   inkscape:current-layer="layer2" />







































<g
   inkscape:groupmode="layer"
   id="layer2"
   inkscape:label="Kelpien Head"><path
     fill="#cd976d"
     d="m 256.17199,214.76933 c -5.50933,-3.17467 -11.076,-6.248 -16.59333,-9.408 -2.52533,-1.44667 -5.18133,-2.79867 -7.66667,-4.24134 -2.17733,-1.26266 -3.37466,-3.90799 -4.55466,-6.05466 -0.78534,-1.42933 -1.356,-3.00933 -2.11334,-4.48133 -0.64266,-1.25067 -1.416,-2.472 -2.164,-3.664 -0.96266,-1.53467 -2.372,-2.732 -2.70933,-4.56267 -0.28667,-1.556 -0.41867,-2.94267 -0.95733,-4.48933 -0.74134,-2.12534 -2.77867,-3.024 -4.74267,-3.728 -0.96533,-0.34667 -1.87733,-0.82 -2.86267,-0.56 -0.98933,0.26133 -1.94,1.312 -2.83333,1.808 -7.168,3.984 -9.236,-10.13467 -9.696,-14.16667 -0.35066,-3.06533 -0.628,-6.248 -1.24133,-9.17733 -0.852,-4.068 -0.7,-8.328 -2.21733,-12.16 -1.17467,-2.96534 -2.96934,-6.70267 -3.164,-9.78 -0.15734,-2.464 1.62133,-4.44134 2.32933,-6.676 0.82667,-2.60667 0.276,-5.536 0.276,-8.22667 0,-17.665332 -0.64667,-21.729332 -0.64667,-21.729332 0,-41.473333 46.45867,-64.095999 70.328,-64.095999 22.76933,0 51.496,12.610667 65.39867,28.709333 7.37066,8.534666 11.86933,24.485333 14.34533,36.363999 2.87066,13.771999 3.828,25.635999 3.828,27.589329 0,2.10534 -0.96934,3.852 -2.092,5.87467 -0.13067,0.236 -0.26534,0.48133 -0.39867,0.72667 -0.26933,0.95466 -0.80933,1.896 -1.112,2.72933 -0.55067,1.51867 -0.78267,3.1 -1.27733,4.61333 -0.53734,2.17067 0.016,3.82667 0,5.20934 0,-0.204 -0.06,-0.43867 -0.15467,-0.612 0.088,2.00266 1.356,3.752 2.12667,5.54 0.476,1.10533 0.412,2.02533 0.40266,3.164 -0.012,1.34133 0.32934,2.748 0.41334,4.09466 0.17466,2.80267 0.15066,5.612 0.256,8.41734 0.0987,2.64133 -0.24667,5.44266 -0.74934,8.03466 -0.83066,4.28267 -2.74266,7.984 -4.764,11.784 -1.172,2.20534 -2.01733,4.484 -2.808,6.81867 -1.30533,3.85067 -2.864,7.564 -3.42933,11.68266 -0.392,2.856 -1.048,5.67067 -1.968,8.404 -0.444,1.31867 -0.892,2.28267 -0.80266,3.668 0.076,1.192 0.21866,2.54267 -0.224,3.68267 -0.296,0.76267 -0.90267,1.17067 -1.38934,1.79067 -1.06266,1.35466 -1.61066,3.01333 -1.95866,4.67866 -0.36534,1.756 -0.792,2.83734 -1.744,4.372 -0.852,1.37334 -1.66134,2.75067 -2.85067,3.87734 -1.52667,1.44666 -3.476,2.648 -5.512,3.31733 -2.076,0.68267 -4.08,0.81333 -6.26533,1.04 -1.25467,0.13067 -2.36934,0.29867 -3.612,0.19067 -1.552,-0.136 -3.104,-0.512 -4.65867,-0.70534 -1.69867,-0.212 -3.38533,-0.50666 -5.06133,-0.85466 -1.22534,-0.25467 -2.224,-0.432 -3.456,-0.38 -0.80134,0.0333 -1.62934,-0.13334 -2.41067,-0.31067 -1.76133,-0.4 -3.48533,-0.99467 -5.184,-1.60133 -8.67467,-3.096 -16.652,-7.93334 -24.63067,-12.47734 -2.348,-1.34266 -4.688,-2.69066 -7.028,-4.03866 z"
     id="path1"
     style="stroke-width:1.33333" /><path
     opacity="0.2"
     d="m 325.59066,126.344 c 1.86267,-2.36134 7.072,-3.90534 9.95733,-4.68534 2.468,-0.66666 8.20133,-1.44266 10.57867,0.252 2.99733,2.14 -0.604,6.83734 -1.95067,8.688 -1.76,2.41734 -1.73333,5.43867 -1.164,8.296 0.61467,3.08267 1.01067,4.59467 -0.29333,7.504 -1.09467,2.44134 -3.04267,4.18267 -5.412,5.42 -5.05333,2.63867 -12.292,2.068 -15.38,-3.156 -4.01733,-6.79333 -1.372,-16.85466 3.664,-22.31866 z"
     id="path2"
     style="stroke-width:1.33333;fill:#000000;fill-opacity:1" /><path
     opacity="0.2"
     d="m 294.85066,127.95466 c -1.22133,-0.90666 -2.444,-1.74266 -3.572,-2.49733 -1.236,-0.828 -2.55467,-1.54 -3.892,-2.188 -4.00933,-1.94267 -7.73467,-1.91733 -12.26533,-1.64267 -3.52667,0.21467 -7.09867,1.11334 -10.45467,2.18934 -3.79333,1.216 -8.528,3.132 -11.43467,5.85466 -2.00266,1.876 -3.95066,6.684 -2.34266,9.15734 1.62666,2.5 6.312,2.156 8.892,2.156 1.27866,0 3.17066,-0.33867 4.256,0.28666 0.98266,0.56534 2.12666,2.06 3.08,2.852 3.51466,2.916 7.38,5.52 11.624,7.25067 4.05866,1.65467 6.86266,2.25733 11.01066,0.76 6.408,-2.31067 12.57334,-7.08533 11.38267,-14.656 -0.67333,-4.284 -2.94,-7.04267 -6.284,-9.52267 z"
     id="path3"
     style="stroke-width:1.33333;fill:#000000;fill-opacity:1" /><path
     d="m 329.48533,217.78799 c -1.42534,4.75334 -3.536,9.12667 -7.42267,12.08134 -5.06133,3.848 -11.97867,4.232 -18.26667,3.29866 -8.64933,-1.284 -16.82133,-4.71466 -24.78266,-8.332 -9.69467,-4.404 -19.34934,-9.204 -27.47867,-16.08 -4.044,-3.42 -7.80933,-7.57333 -9.08,-12.71466 -1.18267,-4.788 -0.064,-9.796 0.43733,-14.70267 0.50134,-4.90666 0.19067,-10.37466 -3.16933,-13.984 3.46,5.91334 2.436,13.29734 1.60667,20.09734 -0.82934,6.8 -1.11334,14.45199 3.33866,19.65733 -1.29066,-0.64267 -2.11466,-1.64934 -3.444,-2.17467 -1.60933,-0.63467 -3.19066,-1.29733 -4.72133,-2.112 -11.64,-6.19066 -13.47867,-20.26266 -18.35867,-31.15466 0.77467,1.72933 0.44,4.776 0.68667,6.68266 0.61733,4.75867 1.84933,8.18 4.21867,12.34267 1.91733,3.36933 4.072,6.604 6.44266,9.672 2.21334,2.864 5.076,4.56133 8.18267,6.38133 5.06133,2.96533 10.52933,5.14667 15.68133,7.93867 7.328,3.972 14.47867,8.26933 21.93067,12.01066 12.12,6.08534 25.528,10.73867 39.02267,9.39067 2.86133,-0.28533 5.76933,-0.868 8.21333,-2.38267 2.07467,-1.28533 3.70933,-3.17866 5.05733,-5.212 8.16267,-12.308 6.15867,-28.88533 12.46667,-42.23999 1.86933,-3.95734 4.436,-7.55334 6.296,-11.516 2.60533,-5.55067 2.31733,-11.24 1.87866,-17.184 -0.284,-3.85067 -0.88,-7.67734 -1.78,-11.432 -0.86,-3.588 -2.528,-7.352 -1.77733,-11.104 1.13067,-5.65067 4.93467,-8.464 4.93467,-12.984 0,-0.0653 -10e-4,-0.13067 -0.003,-0.19467 -0.0933,-4.58667 -0.53467,-9.324 -1.56267,-13.776 -1.07333,-4.65067 -1.41733,-9.435999 -2.492,-14.086666 -0.848,-3.672 -2.14266,-7.222666 -3.244,-10.826666 -1.43333,-4.689333 -2.328,-9.678667 -4.172,-14.228 -1.664,-4.105333 -4.06933,-8.196 -6.96666,-11.549333 -14.31467,-16.574666 -43.24133,-29.085332 -66.22,-29.085332 -22.97867,0 -71.41466,21.861332 -71.41466,65.181331 0,5.212 -0.0547,10.425336 0.0333,15.637336 0.0707,4.176 -0.63733,10.18133 1.19333,14.05066 -0.076,-0.16 2.756,-1.53733 2.928,-2.068 0.39467,-1.21733 -0.44533,-4.148 -0.52,-5.516 -0.23066,-4.21333 -0.27866,-8.43733 -0.15733,-12.65466 0.0853,-2.969336 0.15867,-5.953336 0.15867,-8.929336 0,-44.199999 51.94266,-62.387998 69.27066,-62.639998 17.328,-0.250667 49.976,13.058666 62.784,28.879999 4.304,5.317333 7.50133,12.042667 9.04933,18.697333 0.55867,2.402667 0.92,4.857333 1.676,7.210667 0.78,2.430666 2.30667,4.482666 2.936,6.973333 0.50533,2.002666 0.21067,4.133333 0.628,6.142666 0.47867,2.307996 1.1,4.574666 1.5,6.894666 0.76267,4.436 1.26133,8.91867 2.04267,13.34933 0.63066,3.57867 -1.64134,7.72667 -3.1,10.852 -0.65334,1.40134 -1.80934,3.07067 -1.984,4.63067 -0.61334,5.51733 1.80266,10.348 2.672,15.67067 1.08133,6.62533 1.48133,15.30933 -2.84267,20.892 -1.596,2.06133 -3.45867,3.732 -5.21867,5.652 -2.02533,2.20933 -3.56933,4.93066 -4.08799,7.90533 2.51333,-4.74 6.41999,-8.72933 11.10666,-11.34133 -5.33333,10.71333 -9.29067,22.10933 -11.74533,33.82266 -0.69867,3.35467 -1.36133,6.876 -2.36133,10.20933 z"
     id="path5"
     style="stroke-width:1.33333;fill:#000000;fill-opacity:1" /><path
     id="path8"
     style="stroke-width:1.33333;fill:#000000;fill-opacity:1"
     d="m 237.22933,129.69733 c 1.33466,-0.24933 2.61466,-0.70533 3.696,-1.51067 2.47066,-1.84 3.392,-5.08266 3.892,-8.12266 0.92133,-5.58934 0.94533,-11.32534 0.0787,-16.92267 -0.87733,-5.666666 -2.69733,-11.146666 -3.43333,-16.842665 -1.18,-9.136 0.63733,-18.36 2.31067,-27.42 -2.46667,7.814667 -3.85067,16 -4.01734,24.196 -0.0773,3.806666 0.14667,7.081333 1.29867,10.609333 1.22133,3.741333 2.35867,7.594662 2.53733,11.556002 0.112,2.488 -0.3,4.84 -0.3,7.32 0,3.848 -0.38133,7.80533 -1.72666,11.39733 -1.20667,3.22267 -5.70267,3.756 -8.64134,3.93333 -4.49733,0.27067 -9.028,-0.40933 -13.22533,-2.05733 4.468,2.88933 9.844,4.35067 15.16,4.12 0.78933,-0.0333 1.58933,-0.10933 2.37067,-0.256 z m 4.76133,25.91467 c -1.61733,-1.94134 -3.16133,-3.90134 -4.44267,-6.29467 -1.748,-3.264 -3.30266,-5.688 -5.956,-8.28533 -2.688,-2.63067 -5.628,-4.984 -8.504,-7.40134 -4.02266,-3.38133 -8.348,-6.47466 -13.208,-8.536 -2.72133,-1.15333 -5.38266,-2.71333 -8.19066,-3.69733 0.66533,1.13067 1.756,1.696 2.78533,2.412 1.136,0.78933 2.32267,1.27333 3.608,1.772 3.89067,1.508 7.50933,3.71733 10.62667,6.49067 2.25066,2.00133 4.228,4.28 6.212,6.53866 1.53733,1.74934 3.59866,3.38 4.872,5.32534 3.63066,5.54666 7.49333,10.72933 11.56933,16.00266 1.91333,2.476 3.36667,5.54534 5.44933,7.84267 1.90534,2.10267 3.59867,4.04933 5.032,6.572 1.276,2.248 1.544,4.824 2.588,7.14133 1.05067,2.33467 2.644,4.25067 4.62534,5.804 1.83066,1.436 3.98933,2.612 6.076,3.71734 1.18133,0.62666 2.80666,1.62933 4.07733,1.91066 -2.4,-1.912 -4.676,-3.77333 -6.62533,-6.34666 -1.63334,-2.156 -3.33467,-4.5 -4.508,-7.02934 -1.93334,-4.168 -2.34534,-10.26266 -6.21067,-13.192 -2.65333,-2.01066 -4.748,-4.42266 -6.808,-7.03866 -1.02133,-1.29334 -2.05867,-2.49734 -3.068,-3.708 z" /><path
     opacity="0.3"
     d="m 290.21733,194.86666 c 1.39333,-0.32266 2.82666,-0.81066 4.23333,-0.55333 1.20133,0.21867 2.17333,0.424 3.42267,0.256 1.21066,-0.16267 2.504,-0.27067 3.65066,-0.676 1.24,-0.43733 2.56934,-0.756 3.90934,-0.848 1.32266,-0.0907 2.608,0.328 3.932,0.33067 1.356,0.003 2.71466,-0.32267 4.07866,-0.38534 2.96134,-0.136 5.52,0.85467 8.29734,1.80267 1.31066,0.44667 2.71466,0.45733 4.02,0.83867 0.88933,0.26 1.612,0.89466 2.40933,1.31466 -0.0107,-0.005 -0.33333,-1.368 -0.55867,-1.616 -0.43333,-0.47866 -1.02266,-0.81866 -1.54533,-1.18933 -1.064,-0.75333 -2.15333,-1.47867 -3.224,-2.22533 -0.99467,-0.69467 -1.976,-1.496 -3.06133,-2.05334 -1.26934,-0.65066 -2.46134,-1.08666 -3.91067,-0.74 -1.836,0.44 -3.54667,0.64667 -5.42267,0.40267 -1.34933,-0.17467 -3.12933,-0.87067 -4.45466,-0.612 -0.60667,0.11867 -1.40667,0.55867 -1.96134,0.82133 -0.79466,0.37734 -1.55333,0.81067 -2.35733,1.19867 -1.39333,0.67067 -2.93733,1.11867 -4.25467,1.93867 -1.19733,0.74666 -2.38133,0.892 -3.76266,1.24933 -1.12934,0.29067 -2.29867,0.49067 -3.44,0.74533 z"
     id="path12"
     style="stroke-width:1.33333;fill:#000000;fill-opacity:1" /><path
     opacity="0.2"
     d="m 320.72266,139.316 c 0,0 3.60133,5.56533 9.16667,5.07466 1.74666,-0.15466 3.51466,-0.18666 5.25466,-0.40266 1.84533,-0.228 2.89333,-1.37467 4.44933,-2.30667 -0.34,1.34267 -0.51866,2.77733 -1.36266,4.02533 -1.49334,2.20934 -2.98667,2.62134 -5.53067,2.55734 -2.15333,-0.0547 -4.824,-0.368 -6.57733,-1.74534 -2.28933,-1.8 -5.4,-7.20266 -5.4,-7.20266 z"
     id="path14"
     style="stroke-width:1.33333" /><path
     id="path16"
     style="stroke-width:1.33333;fill:#00a66b;fill-opacity:1"
     d="m 272.95866,137.888 c 0.276,-2.64934 5.196,-2.512 7.35067,-2.58934 2.14266,-0.076 4.28533,-0.152 6.428,-0.22933 0.74133,-0.0267 2.48266,-0.43467 3.17466,-0.11333 0,0 5.288,2.456 5.288,2.456 l 2.824,2.76266 -1.12933,1.43334 -3.33733,0.20533 c 0,0 -2.156,1.688 -4.46667,1.63733 -2.304,-0.0507 -13.23467,-1.17066 -13.29733,-1.17733 -0.65334,-0.0667 -1.92534,-1.57067 -2.24,-2.15733 -0.48534,-0.904 -0.656,-1.636 -0.59467,-2.228 z m 62.136,5.12 c 0.57466,-0.14134 0.844,-0.32134 0.844,-0.32134 l 2.78533,-2.73333 -0.0547,-5.484 -6.84799,-0.87333 c 0,0 -6.248,1.47333 -7.53067,2.728 -1.28267,1.25466 -1.90933,4.01066 -1.93733,4.092 0,0 0.136,0.84533 0.65466,0.95466 0.51867,0.10934 3.356,1.90934 4.36534,1.85467 1.00933,-0.0547 7.72133,-0.21733 7.72133,-0.21733" /><circle
     cx="330.56934"
     cy="137.65599"
     r="3.1026664"
     id="circle4"
     style="stroke-width:1.33333;fill:#000000;fill-opacity:1" /><ellipse
     cx="285.17465"
     cy="138.46399"
     rx="3.46"
     ry="3.448"
     id="ellipse16"
     style="stroke-width:1.33333;fill:#000000;fill-opacity:1" /><ellipse
     fill="#ffffff"
     cx="282.69333"
     cy="137.18533"
     rx="1.8973333"
     ry="1.892"
     id="ellipse17"
     style="stroke-width:1.33333" /><circle
     fill="#ffffff"
     cx="328.11865"
     cy="135.95866"
     r="1.5266666"
     id="circle5"
     style="stroke-width:1.33333" /><path
     opacity="0.2"
     d="m 325.59066,126.344 c 1.20133,-1.52267 3.196,-2.38 4.94667,-3.07734 4.38799,-1.74666 11.78399,-4.532 15.78933,-0.576 -4.31734,-0.41733 -9.55867,-0.28 -12.75067,2.972 -1.016,1.03467 -4.91333,2.88 -4.88533,4.31467 0.344,0.0307 0.60267,0.25333 0.99467,0.19333 -1.80134,0.276 -3.41867,3.572 -4.204,4.98134 1.63733,0.0133 3.29333,-0.98934 4.96666,-0.444 -0.73866,0.79066 -1.816,1.34133 -2.72933,1.988 -0.93333,0.66 -2.62933,1.67866 -3.21867,2.664 -0.444,0.74133 -0.30666,1.81466 -0.22666,2.68533 0.26933,2.96133 3.09333,5.62533 5.99866,6.37467 1.40134,0.36133 4.26933,-0.0613 5.432,-0.648 0.0653,2.408 -3.62266,3.49066 -5.36533,4.052 -3.59733,1.15866 -6.50667,0.0627 -8.412,-3.16 -4.01733,-6.79467 -1.372,-16.856 3.664,-22.32 z"
     id="path21"
     style="stroke-width:1.33333;fill:#000000;fill-opacity:1" /><path
     id="path20"
     style="stroke-width:1.33333;fill:#000000;fill-opacity:1"
     d="M 279.37109 120.62891 C 281.05509 122.01556 283.70895 122.42883 285.73828 123.27148 C 288.07295 124.23948 293.7125 127.32603 293.03516 130.58203 C 292.77662 131.82463 291.30894 131.46859 290.30078 131.06055 C 291.22745 131.53358 292.36956 132.54222 291.99219 133.51953 C 291.86241 133.85559 291.57813 134.11279 291.22266 134.30664 C 289.56357 133.696 287.78198 133.38786 286.02539 133.33203 C 284.25872 133.27603 282.48172 133.45919 280.76172 133.86719 C 279.26838 134.22185 277.33024 135.52841 275.82227 135.31641 C 275.02129 135.20338 273.95782 134.5937 273.04492 134.6582 C 273.2092 134.46134 273.39194 134.26963 273.61719 134.08984 C 275.33319 132.72186 277.41091 131.80962 279.51758 131.12695 C 282.47091 130.16962 285.96408 129.6925 288.85742 130.67383 C 288.05608 129.78316 286.78028 129.65112 285.62695 129.56445 C 284.15987 129.45445 282.5658 129.34703 280.96094 129.36523 C 277.43023 129.40529 273.84662 130.05516 271.43945 132.63281 C 270.47412 133.66748 269.67509 134.84572 268.73242 135.90039 C 264.59244 140.52839 258.4485 140.90873 253.00586 138.41406 C 251.77386 137.84873 250.40727 136.76655 250.72461 135.44922 C 249.64461 139.93587 254.79495 140.63466 257.98828 141.22266 C 259.54562 141.50933 260.85412 141.7812 262.43945 141.5332 C 264.21945 141.25453 265.97641 140.48928 267.59375 139.75195 C 268.99908 139.11195 270.72721 138.84733 271.56055 137.38867 C 271.56305 137.3843 271.56392 137.37938 271.56641 137.375 C 271.74324 138.24278 272.13899 139.12387 272.43945 139.74219 C 272.84612 140.58086 273.13889 141.12578 273.96289 141.56445 C 274.59222 141.89912 275.86083 141.98305 276.32617 142.48438 C 274.73817 140.77505 272.84752 137.81217 276.10352 136.4375 C 278.52749 135.4135 281.84007 135.36691 284.44141 135.37891 C 286.89842 135.39042 289.26797 135.87927 291.51758 136.77344 C 291.72389 137.1817 291.89263 137.60354 292.02734 137.99219 C 292.29668 138.76952 292.66884 139.76699 292.6875 140.59766 C 292.6955 140.91099 291.99826 143.23673 291.68359 143.05273 C 293.40849 144.06081 293.10866 145.41042 292.16602 146.49805 C 290.2201 147.03396 287.88165 147.49414 285.48047 147.49414 C 285.48047 147.49355 288.43996 148.18282 291.46094 147.79297 C 292.71515 148.87528 287.35065 151.52598 286.78516 151.85156 C 289.63448 151.59423 291.45288 150.27658 293.57422 148.53125 C 295.61288 146.85391 297.42088 145.27936 298.79688 142.94336 C 301.69953 138.01802 300.89421 132.72208 296.93555 128.60742 C 294.01022 125.56608 290.51374 123.10473 286.45508 121.91406 C 285.10708 121.51806 283.72065 121.118 282.33398 120.88867 C 281.68332 120.78067 279.79776 120.98091 279.37109 120.62891 z M 290.30078 131.06055 C 290.13387 130.97535 289.97273 130.90207 289.83008 130.85547 C 289.96673 130.92039 290.12872 130.99091 290.30078 131.06055 z M 334.85352 121.67578 C 332.4571 121.69251 329.78771 122.1732 327.99805 123.69336 C 326.48072 124.98136 324.94274 126.41931 323.63477 127.91797 C 322.59744 129.10731 321.8892 130.2152 321.25586 131.64453 C 320.84786 132.5672 320.59527 133.49803 320.44727 134.44336 C 320.2619 135.6247 320.2392 136.83074 320.2832 138.08008 C 320.37654 140.79474 319.95775 143.46784 320.95508 146.0625 C 321.64938 147.86941 322.73431 149.5865 323.96484 151.11719 C 323.63771 150.51934 323.41304 149.8308 323.19336 149.27148 C 322.57142 147.68979 322.04251 145.52944 321.85352 143.30078 C 322.22044 144.45813 322.87743 145.50386 323.9375 146.44141 C 326.5415 148.74271 332.95905 150.15606 335.98438 147.88672 C 332.96305 149.34139 328.386 147.68408 325.75 145.63477 C 325.50067 145.44144 325.27059 145.24419 325.05859 145.04688 C 324.18126 144.22288 323.39857 143.24191 322.69727 142.25391 C 322.22907 141.59413 322.03761 140.98384 321.82422 140.33594 C 322.0047 138.01103 322.70555 135.86237 324.23828 134.50195 C 326.41028 132.57532 329.35812 131.06271 332.24609 130.74805 C 334.05675 130.54938 336.14742 130.64439 337.96875 130.90039 C 333.63809 129.42972 326.61071 129.51232 322.94141 132.62695 C 323.00007 132.57762 323.06714 131.45319 323.14844 131.25586 C 323.3431 130.77986 323.64722 130.34903 323.97656 129.95703 C 324.61389 129.19836 325.41753 128.50214 326.26953 127.99414 C 328.23486 126.82081 330.69227 126.51395 332.57227 125.14062 C 331.75894 125.02465 330.85692 125.26617 330.04492 125.35547 C 329.32492 125.43547 328.35511 125.68491 327.64844 125.59961 C 328.38178 124.89295 329.6262 124.43145 330.51953 123.93945 C 331.54087 123.37811 332.70651 122.85565 333.83984 122.57031 C 334.28917 122.45698 334.57914 122.39715 334.98047 122.14648 C 335.2218 121.99582 335.556 121.68201 335.86133 121.69531 C 335.5335 121.68048 335.19586 121.67339 334.85352 121.67578 z M 323.96484 151.11719 C 324.19763 151.54261 324.48103 151.92271 324.85742 152.17383 C 324.55243 151.83413 324.25615 151.47955 323.96484 151.11719 z M 343.56641 131.86914 C 341.49441 132.57447 339.88726 133.30695 337.66992 132.76562 C 335.55392 132.24965 333.40558 132.51896 331.29492 132.9043 C 330.93225 132.971 330.56898 133.04005 330.20898 133.10938 C 329.07567 133.32802 328.10625 133.50065 327.12891 134.14062 C 325.87025 134.96595 324.55824 135.37422 323.82227 136.71289 C 323.3756 137.52489 323.13812 138.69921 322.57812 139.42188 C 322.57812 139.42188 324.83875 136.49795 326.21875 136.00195 C 327.59742 135.50595 331.72439 134.23119 335.12305 134.86719 C 337.90969 135.38852 337.42188 136.45915 337.42188 138.75781 C 337.42188 141.05648 335.0957 143.00586 335.0957 143.00586 C 336.53303 142.7792 337.90466 141.89742 338.75 140.71875 C 339.126 140.19475 339.25822 139.59726 339.57422 139.05859 C 340.02089 138.29726 340.52566 137.7675 340.59766 136.82617 C 340.59066 138.04217 340.66026 139.25142 340.60156 140.46875 C 340.53086 141.94742 340.05502 143.32715 339.42969 144.70312 C 340.54702 144.04849 341.21411 141.69808 341.66211 140.46875 C 342.22077 138.93542 342.30356 137.35943 342.35156 135.74609 C 342.37426 134.97676 342.73174 132.15314 343.56641 131.86914 z " /><path
     d="m 206.56266,177.21333 c 1.59467,-0.0467 3.288,-0.72267 4.512,-1.584 1.156,-0.81467 2.268,-1.452 3.744,-1.02133 1.02933,0.30133 1.768,1.47333 2.232,2.36133 1.06933,2.04267 1.25467,4.43333 2.328,6.46933 0.644,1.22267 1.904,2.16534 2.71867,3.312 -0.42667,-1.54133 -0.36667,-3.168 -0.8,-4.68933 -0.46134,-1.62267 -1.02267,-3.22267 -1.616,-4.80267 -0.47734,-1.27066 -1.076,-2.608 -2.064,-3.57066 -1.12534,-1.09467 -2.268,-0.812 -3.46134,-1.41334 -2.23333,-1.12266 -1.42666,-4.98 -2.06133,-6.996 -0.764,-2.42666 -2.60933,-4.79733 -3.09867,-7.17066 -0.30533,1.688 1.50134,4.37333 1.92667,6.064 0.50133,1.992 1.14267,4.39866 0.024,6.25866 -0.84667,1.408 -3.16933,4.152 -5.03733,3.93067 -2.452,-0.29333 -3.908,-3.376 -4.69067,-5.384 -1.00667,-2.58533 -0.42667,-5.51067 -0.30933,-8.23733 0.128,-2.96934 -1.21733,-6.23467 -1.93067,-9.132 -1.16666,-4.74134 -1.47466,-9.74134 -2.61066,-14.51734 -0.63467,-2.668 -2.49467,-5.60933 -2.53467,-8.32 -0.0373,-2.55333 3.15333,-7.54133 5.74133,-4.89466 2.49733,2.55466 2.89467,6.596 5.30533,9.25866 0.24267,-3.02933 -2.12666,-6.84533 -3.37333,-9.46 -0.92267,-1.936 -3.83333,-4.08666 -5.94533,-2.31066 -0.78533,0.66 -1.17467,2.176 -1.75867,3.02666 -1.00533,1.46134 -2.30533,2.696 -3.24666,4.204 -2.16267,3.464 2.18133,9.99867 3.596,13.324 1.72133,4.044 2.78,8.36134 3.204,12.73334 0.18933,1.95066 0.0147,3.82533 0.001,5.728 -0.012,1.756 0.512,3.596 0.65733,5.36933 0.14,1.70133 0.48667,3.40667 1.124,4.99467 0.972,2.42133 2.74267,4.61066 5.016,5.92133 0.71467,0.416 1.54667,0.57333 2.408,0.548 z"
     id="path31"
     style="stroke-width:1.33333;fill:#000000;fill-opacity:1" /><path
     id="path32"
     style="stroke-width:1.33333;fill:#000000;fill-opacity:1"
     d="M 195.74219 129.57812 C 198.28218 131.74879 200.4647 135.43239 199.7207 138.90039 C 199.43403 140.23905 199.00942 141.4662 198.71875 142.6582 C 198.22942 144.66487 198.12074 146.57258 199.69141 148.75391 C 200.3194 149.62458 201.11259 150.24988 201.80859 151.06055 C 202.71392 152.11388 203.42782 154.04194 204.64648 154.72461 C 204.55747 154.32974 204.43889 153.92359 204.30469 153.51367 C 204.52467 154.10664 204.72071 154.70963 204.87305 155.33398 C 205.34638 157.27398 205.33659 159.47239 206.30859 161.26172 C 207.04192 159.30705 207.23628 157.84515 206.62695 155.78516 C 206.20295 154.35183 205.42503 153.01028 204.95703 151.59961 C 204.76103 151.01295 204.63169 150.58714 204.31836 150.11914 C 204.24103 150.00314 204.15345 149.88572 204.05078 149.76172 C 203.76545 149.42039 202.33344 148.64709 202.24414 148.37109 C 202.53349 149.26489 202.88921 150.11869 203.25195 150.96484 C 202.8846 150.22712 202.47826 149.51732 202.0625 148.87695 C 201.1065 147.40628 200.07619 146.34617 200.26953 144.46484 C 200.60019 141.23818 202.76171 138.23111 205.3457 136.28711 C 203.58303 136.60044 202.42168 137.32966 201.29102 138.73633 C 202.49768 133.67099 198.93285 132.30612 195.74219 129.57812 z " /><path
     id="path36"
     style="stroke-width:1.33333;fill:#000000;fill-opacity:1;opacity:0.2"
     d="m 236.04799,186.62133 c -0.40266,-3.46267 -1.00133,-6.72533 -1.832,-10.16267 -0.98,-4.05866 -1.716,-7.78666 -0.78133,-11.89333 0.228,-1 0.72,-1.99333 0.972,-2.976 -0.032,1.98133 -0.30267,4.008 -0.20133,6.01733 0.10133,1.99734 0.856,3.95734 1.48533,5.82134 1.26667,3.756 1.06933,7.044 0.744,10.93066 -0.11867,1.42267 -0.184,2.95867 0,4.39067 m -16.148,-45.744 c 3.13333,4.008 4.41067,8.90133 5.59733,13.796 1.95867,8.08 2.852,17.008 2.852,24.816 0,-5.44133 0.18667,-10.86933 -0.528,-16.19333 -0.31066,-2.31734 -0.58666,-4.648 -0.604,-6.99067 -0.009,-1.224 0.0373,-2.47067 0.30134,-3.67067 0.16133,-0.732 0.56133,-2.336 1.46133,-2.39333 0.94667,-0.06 2.05067,0.85467 2.70133,1.43867 0.56667,0.508 1.01734,1.25866 1.392,1.89866 0.812,1.38667 1.18,3.40134 1.404,4.99067 0.0227,-1.15467 0.32667,-2.23467 0.048,-3.39067 -0.848,-3.524 -3.156,-6.52933 -5.44933,-9.27866 -2.83067,-3.39467 -6.28533,-4 -9.176,-5.02267 z m 10.05867,-55.405332 c 0.12133,-3.036 0.31733,-6.069333 0.88,-9.068 0.87333,-4.648 2.43466,-9.1 5.00533,-12.994666 0.52933,2.242666 1.008,4.785333 1.324,7.189333 0.42533,3.228 0.028,6.364 0.74,9.542666 0.976,4.354667 2.86667,8.238667 3.89333,12.586667 1.104,4.678666 2.38267,8.473332 2.57467,13.377332 0.096,2.472 0.216,4.932 -0.003,7.38267 -0.244,2.72666 -0.46533,6.62533 -2.204,8.896 -2.216,2.89333 -4.47066,4.06666 -8.11733,4.06666 -3.22,0 -6.55867,-0.204 -9.68133,-0.87866 -1.87334,-0.404 -3.88134,-1.11067 -5.67334,-1.884 -1.61733,-0.69867 -2.912,-2.00534 -4.46933,-2.81734 -1.79333,-0.936 -3.47067,-1.72266 -5.08667,-2.992 0.48267,0.37867 2.68667,0.0787 3.328,0.052 1.028,-0.0413 2.088,-0.144 3.06,-0.504 1.82,-0.676 3.58934,-1.87333 5.064,-3.12133 3.196,-2.704 5.532,-6.36533 6.968,-10.27733 2.20934,-6.02 2.14667,-12.293336 2.39734,-18.556002 z" /><path
     opacity="0.2"
     d="m 339.72932,149.32533 c 1.90934,-3.82667 2.52,-7.90267 2.396,-12.18133 0.0627,2.172 1.948,3.88933 1.844,6.06533 -0.108,2.28533 -2.37866,4.98533 -4.24,6.116 z"
     id="path48"
     style="stroke-width:1.33333;fill:#000000;fill-opacity:1" /><path
     id="path49"
     style="stroke-width:1.33333;fill:#000000;fill-opacity:1;opacity:0.2"
     d="m 277.73599,166.368 c -3.01733,-3.97067 3.11734,-6.65067 5.268,-9.22134 -1.52,1.81734 -3.11866,4.61067 -3.15333,7.03334 -0.0373,2.58533 2.844,3.40133 2.21733,6.01066 -1.73333,-0.53733 -3.25866,-2.40933 -4.332,-3.82266 z m 47.52934,-57.59467 c 1.54266,0.59467 2.78266,1.556 4.23866,-0.43867 0.95867,-1.31333 0.86,-4.16 2.196,-5.08133 0.68934,-0.476 1.876,-0.15733 2.65733,-0.15867 1.07067,-0.003 2.132,-0.088 3.168,-0.37466 1.66667,-0.46 2.55734,-1.884 3.54267,-3.310669 1.08133,-1.565333 0.848,-2.893333 0.848,-4.818667 0,-1.932 -0.0853,-3.804 -0.11467,-5.725333 1.00667,1.733333 1.66,3.701333 1.76267,5.68 0.15333,2.962667 -1.75067,7.155999 -4.61733,8.418669 -1.84,0.81066 -4.036,0.87866 -5.71067,2.08266 -0.93066,0.66934 -0.784,1.18667 -1.19333,2.09067 -0.62933,1.388 -2.38533,2.61067 -3.64667,3.364 -0.79066,0.47333 -1.72266,0.556 -2.57333,0.088 -0.488,-0.26933 -1.29733,-2.05733 -1.46133,-2.09067 0.312,0.0627 0.61333,0.16267 0.904,0.27467 z m -0.45334,-9.561332 c 1.46,-0.184 2.77334,-3.432 3.532,-4.824 1.444,-2.648 2.19467,-5.650667 2.92534,-8.710667 0.73733,-3.082666 0.82933,-5.962666 0.548,-9.110666 -0.3,-3.358667 -1.476,-6.264 -2.20134,-9.368 1.72134,2.402667 3.02,5.298667 4.088,8.174666 0.74133,1.997334 1.3,4.090667 1.44533,6.265334 0.184,2.765333 -0.332,4.604 -0.92266,7.226666 -1.06533,4.725333 -5.33467,7.690667 -9.41467,10.346667 z M 269.09866,81.477331 c 0.99467,1.276 2.276,2.314667 3.752,2.929334 3.36,1.4 6.488,3.375999 9.94267,4.503999 2.69733,0.881334 5.028,2.582667 7.672,3.504 2.23066,0.777334 4.17733,2.332 5.12,4.622667 0.0387,-2.022667 -0.696,-3.554667 -2.368,-4.621333 -4.14534,-2.645334 -8.62267,-4.726667 -13.14534,-6.656 -2.19733,-0.937333 -4.428,-1.852 -6.38666,-3.218667 -3.948,-2.756 -5.124,-6.950666 -5.116,-11.597333 0.004,-1.824 0.35333,-3.710666 0.72266,-5.478666 -1.20533,4.246666 -3.37466,7.883999 -2.01866,12.465333 0.37733,1.274666 1.00266,2.492 1.82533,3.546666 z M 294.03999,109.916 c -2.004,1.564 -5.87733,0.32266 -8.032,-0.35867 -2.00933,-0.636 -4.01466,-2.10933 -5.08266,-3.96133 -1.16267,-2.01467 -0.78267,-4.652 -2.448,-6.469336 -1.28667,-1.404 -3.41467,-2.789333 -5.39334,-2.686666 -2.324,0.12 -4.628,0.918666 -6.97866,0.954666 -3.19067,0.048 -5.824,-2.533333 -6.91867,-5.5 -1.06133,-2.874666 -1.29067,-5.930666 -1.79333,-8.974666 -0.288,-1.748 -0.66534,-3.482667 -1.1,-5.201333 -1.54134,-6.088 -4.31867,-11.430667 -2.94134,-17.892 0.77467,-3.629333 2.02934,-8.333333 4.39734,-11.249333 0.39466,-0.486667 1.97466,-0.994667 2.136,-1.342667 -1.24,2.661334 -3.11067,4.837334 -4.08667,7.684 -0.98267,2.865334 -1.42267,5.926667 -1.15067,8.950667 0.20934,2.330666 0.83067,4.604 1.62934,6.797333 0.63333,1.734667 1.66933,3.338666 1.83733,5.205333 0.37733,4.198667 1.46267,8.265333 2.43733,12.377333 0.468,1.978667 1.208,4.154667 3.07334,5.276 2.77333,1.665333 6.136,1.128 9.08666,0.466667 1.892,-0.424 6.08934,-1.366667 7.37067,0.718666 0.39467,0.642667 0.432,2.148 0.53733,2.873334 0.208,1.441333 0.67334,2.820002 0.91334,4.257332 0.236,1.424 0.772,2.84933 1.74133,3.94 1.38933,1.56133 3.38933,3.19333 5.49467,3.60533 2.848,0.55867 5.21333,-0.84666 7.00266,-2.98 0.164,0.93734 -0.97733,2.92 -1.732,3.50934 z m 20.42667,20.54266 c 0.0493,0.156 2.53867,0.092 2.81333,0.052 1.04934,-0.156 1.97734,-0.71466 2.984,-1.04666 -0.064,1.14666 -1.90533,2.46 -2.86,2.83866 -1.56,0.616 -2.46933,-0.38266 -2.93733,-1.844 z m 6.67333,-5.604 c -0.35333,0.13867 -0.72133,0.23734 -1.084,0.296 -1.49466,0.24 -3.18666,-0.16666 -4.27066,-1.26266 -4.07467,-4.124 -0.804,-10.38534 1.60266,-14.36267 0.70667,-1.16933 1.472,-2.384 2.76934,-2.89733 -1.87734,4.484 -5.22267,8.552 -2.20667,13.19733 1.18133,1.81867 3.34667,2.64533 5.39867,2.944 0.26,0.0373 -0.96534,1.37467 -1.124,1.492 -0.32534,0.24267 -0.69734,0.44133 -1.08534,0.59333 z m -13.53733,6.08 c 0.41467,0.24934 0.83867,0.47867 1.22267,0.72134 -1.35067,0.0467 -3.44267,-0.36 -4.784,-0.66134 -0.884,-0.19866 -2.25867,-0.38 -2.37334,-1.48666 -0.12133,-1.18267 1.456,-2.58 2.352,-3.10934 2.836,-1.67333 4.02934,-2.95733 4.42934,-6.35466 0.27466,1.28666 0.48666,3.676 -0.304,4.83333 -0.87067,1.27333 -2.88534,1.61867 -2.61067,3.54667 0.176,1.22933 1.092,1.924 2.068,2.51066 z m 5.892,74.284 c 0.572,-0.0107 1.14267,-0.003 1.708,0.0573 1.032,0.10934 3.584,0.58 3.58133,2.00667 0,-0.248 -2.35466,-0.20667 -2.648,-0.0973 -1.01333,0.376 -2.03466,1.664 -2.676,2.48933 -2.29333,-1.39333 -6.85866,-3.94133 -9.664,-2.59067 2.40267,-1.156 5.19867,-1.74 7.85467,-1.804 0.61467,-0.0173 1.23067,-0.0493 1.844,-0.0613 z M 342.76932,172.44 c -0.76266,0.24933 -1.568,0.83066 -2.004,1.184 -0.564,0.45866 -1.03066,1.08133 -1.51333,1.63066 -1.01067,1.15067 -1.82533,2.47467 -2.95067,3.52667 -0.98,0.916 -1.96133,1.936 -2.76933,3.02 -0.784,1.04933 -0.95333,2.42667 -1.204,3.70133 -0.504,2.56667 -1.184,4.82 -1.23333,7.49334 -0.0533,2.92266 0.18667,5.84533 0.068,8.76799 -0.072,1.76934 -0.11867,3.49867 -0.11867,5.28534 0,2.33066 -0.34266,4.636 -0.34,6.93733 0.2,-1.12 0.95334,-2.17067 1.21734,-3.30933 0.32666,-1.40667 0.584,-2.85867 0.96133,-4.26 0.87866,-3.26534 1.55333,-6.60667 2.33333,-9.87733 1.18133,-4.94667 2.996,-9.63067 5.27333,-14.14134 0.90534,-1.79333 1.636,-3.676 2.53867,-5.46533 0.57333,-1.136 2.03333,-2.59867 1.392,-3.97867 -0.32267,-0.69733 -0.97067,-0.73733 -1.65067,-0.51466 z m -53.35866,-2.07867 c -0.97333,0.10667 -1.76133,1.15067 -1.47867,2.47467 0.36134,1.69866 1.436,3.64266 2.53467,4.98666 -0.392,-1.208 -0.98267,-2.83733 -1.16,-4 -0.228,-1.488 0.71333,-1.87066 1.81867,-2.56666 -0.51867,-0.70134 -1.148,-0.956 -1.71467,-0.89467 z m 39.01733,27.76667 c -0.21733,-1.26134 -1.51733,-2.46667 -2.66266,-2.97334 -0.88,-0.38933 -2.89067,-0.86 -2.62667,0.61734 0.11867,0.66266 0.41867,1.08266 0.43867,1.75733 0.06,1.984 -0.416,3.14666 -2.54534,2.97333 -1.35333,-0.11067 -2.80666,-0.472 -4.108,-0.86133 -2.53466,-0.76 -5.516,-0.8 -8.148,-0.86 -1.30533,-0.0293 -2.94,-0.036 -4.17466,0.39067 -2.10267,0.72533 -4.312,1.35333 -6.344,2.22266 -1.87867,0.804 -3.25067,-1.04267 -2.872,-2.88 0.0773,-0.376 1.764,-2.916 0.84133,-3.15466 -1.968,-0.508 -4.29067,-0.66934 -6.33067,-0.76 -2.284,-0.10134 -4.69866,0.30533 -6.788,1.05333 1.83467,-0.456 4.16134,-0.10267 6.044,-0.0147 0.71067,0.0333 1.39334,0.0413 2.08134,0.13867 1.11466,0.15733 1.87733,0.464 2.29866,1.552 0.768,1.98133 -1.16533,3.604 -0.20133,5.64533 0.50267,1.06267 1.11733,2.84 1.952,3.604 -1.79333,-3.43733 4.448,-4.65467 6.59733,-5.07733 0.524,-0.10267 1.04667,-0.20134 1.56534,-0.30134 1.77733,-0.34133 3.69466,-0.21866 5.50933,-0.432 3.29467,-0.38933 6.136,0.128 9.27067,1.05867 1.468,0.436 2.74133,1.31867 4.24133,0.46667 1.10267,-0.62667 1.71867,-1.956 2.43067,-2.94667 1.62933,-2.264 2.46133,2.47333 2.88533,3.55467 0.788,-1.38667 0.91067,-3.22667 0.64533,-4.77333 z m -67.92933,-20.752 c -1.29867,-3.664 -1.468,-7.652 -3.24667,-11.132 -1.65733,-3.24134 -4.10133,-5.90934 -6.15466,-8.88 -2.18134,-3.15467 -4.092,-6.764 -5.49867,-10.32934 -1.448,-3.66933 -2.26933,-7.66533 -1.744,-11.57466 0.444,-3.308 1.82267,-6.40667 2.73733,-9.616 1.22534,-4.29467 1.608,-8.82534 1.148,-13.268 -0.45333,-4.37867 -1.42,-9.11067 -3.31066,-13.104002 -1.03067,-2.178667 -1.15734,-3.96 -1.564,-6.234667 -0.48934,-2.734667 -0.98,-5.464 -1.25334,-8.230666 -1.156,-11.662667 0.34134,-19.446667 4.79467,-30.290666 2.12667,-5.177334 4.75733,-10.2 8.20933,-14.624 2.088,-2.676 8.488,-10.802666 12.312,-10.685333 -0.66666,-0.02133 -1.32933,-0.03333 -1.98666,-0.03333 -0.89467,0 -1.788,0.04533 -2.68134,0.09733 -0.644,0.04133 -1.29466,0.09067 -1.96266,0.16 -0.0507,0.0053 -0.1,0.01067 -0.15067,0.016 -4.82,0.52 -10.24667,1.789333 -15.85867,3.772 -0.45733,0.164 -0.912,0.330666 -1.36533,0.501333 -0.40667,0.150667 -0.812,0.304 -1.22,0.462667 -0.69333,0.272 -1.37867,0.552 -2.06267,0.836 -21.97333,9.188 -45.02799,29.034666 -45.02799,58.250665 0,0 0.64666,4.065333 0.64666,21.733329 0,1.41334 -0.49333,3.99467 0.448,5.196 1.264,1.61334 3.66934,1.74667 5.124,3.07734 1.48267,1.356 2.23733,4.06266 2.97467,5.88666 0.52133,1.28667 0.53866,2.48 0.71733,3.78534 0.14267,1.04533 1.06,2.844 0.39067,3.836 -0.544,0.80266 -1.31867,0.35466 -2.22267,0.35333 -1.188,3.43733 -0.59867,5.792 1.084,8.96 1.81867,3.424 3.424,8.31733 3.89867,11.93733 -0.70667,-5.09333 -4.84,-9.01466 -6.05467,-13.952 -0.12667,-0.516 0.28,-4.09466 -0.692,-3.84933 -0.47067,0.11867 -0.95066,1.908 -0.952,2.35733 -0.001,2.11334 2.14933,5.69867 3.024,7.62 0.532,1.16667 0.96667,2.26 1.14,3.508 0.53867,3.85067 0.88133,7.54267 1.84667,11.352 -2.06934,-1.404 -2.40934,-4.37066 -2.57334,-6.62 -0.22266,-3.05733 -0.58,-5.84133 -1.70666,-8.69466 -0.61467,-1.55467 -1.56934,-3.03334 -2.16533,-4.516 -1.076,-2.67734 0.85466,-4.34534 1.76666,-6.64 0.81733,-2.056 -0.33867,-5.05867 -1.824,-6.68 -1.36266,-1.48667 -3.43066,-1.78267 -4.89466,-3.028 1.29466,1.10266 2.832,2.364 2.90133,4.224 -2.32267,0.50933 -3.94933,4.14 -2.1,6.124 0.91467,0.98 3.12667,-0.956 3.12267,-2.26134 0.008,3.10934 -2.32,5.68934 -1.42534,8.872 1.06934,3.80934 2.292,7.47734 2.47734,11.508 0.17733,3.84 -0.77467,8.16534 0.97999,11.764 1.69067,3.46667 3.47867,6.9 7.95334,5.528 0.77733,-0.23866 1.50133,-1.148 2.15466,-1.31733 0.88,-0.228 2.09867,0.36667 2.95867,0.68667 1.47333,0.54666 2.97467,1.328 4.32,2.13733 1.37867,0.82933 1.40133,1.27867 1.872,2.84267 1.368,4.55066 3.16,8.96533 5.64133,13.02666 1.044,1.70934 2.24534,3.27067 3.19734,5.03867 0.92666,1.72267 1.81733,3.61466 3.60666,4.60533 0.70134,0.388 1.484,0.6 2.24134,0.864 1.73866,0.60667 3.36,1.50267 4.95733,2.42 3.644,2.09333 7.21067,4.32267 10.69067,6.68133 3.32133,2.25067 6.87333,3.608 10.45733,5.37734 3.65467,1.80666 6.948,4.208 10.41333,6.332 2.704,1.65866 5.87867,2.008 8.708,3.41466 3.036,1.51067 5.68,3.16267 8.96667,4.25734 3.54933,1.18133 7.188,2.06133 10.80667,3 2.18533,0.56666 4.38533,1.13066 6.656,1.15333 2.256,0.0227 4.58,-0.13867 6.808,-0.45067 1.16933,-0.164 2.32,-0.324 3.47866,-0.596 1.28534,-0.30133 2.79734,-0.32 3.98667,-0.93333 1.204,-0.62 2.42533,-1.80667 3.33733,-2.79333 1.36934,-1.48267 3.05334,-2.93734 3.31734,-5.10667 -0.97467,0.93467 -2.24,1.88 -3.47867,2.41867 -1.42933,0.62133 -2.752,1.21733 -4.29867,1.41333 -1.08933,0.13867 -2.5,0.384 -2.89866,-0.76533 -0.67334,-1.944 -0.23067,-4.428 -0.452,-6.49334 -0.328,-3.05866 -1.424,-5.90133 -1.94,-8.916 0.04,1.928 0.34933,3.912 0.45333,5.85734 0.196,3.63466 0.28133,8.06933 -2.03067,11.11866 -0.892,1.17734 -2.288,1.36667 -3.67066,1.348 -1.37867,-0.0187 -2.708,0.0667 -4.05067,-0.204 -1.66,-0.33466 -3.304,-0.81733 -4.92133,-1.292 -4.04134,-1.188 -7.97467,-2.752 -11.33067,-5.416 -5.30133,-4.20933 -12.82,-7.26666 -14.47333,-14.46666 -0.50267,-2.192 -0.22134,-4.74934 -0.22,-7.03467 0.005,-4.448 -2.87867,-7.77466 -5.23467,-11.27866 -3.12133,-4.64667 -6.15067,-9.10934 -8.028,-14.404 z" /><path
     id="path52"
     style="stroke-width:1.33333;fill:#000000;fill-opacity:1"
     d="m 313.84799,139.67066 c 0.11067,0.85734 0.196,1.71734 0.18934,2.58667 -2.188,-3.54133 -1.89734,-9.528 -0.73867,-13.38 -0.45333,1.508 0.17067,4.32667 0.11333,6.02 -0.0547,1.612 0.232,3.188 0.436,4.77333 z m -21.388,28.66267 c -0.27466,0.30667 -0.55733,0.55333 -0.60533,0.96267 -0.0613,0.528 0.364,1.3 0.95867,1.24 1.00533,-0.1 1.37866,-1.48134 1.73333,-2.20934 0.49467,-1.01466 1.60133,-1.496 2.58267,-1.98133 -1.72134,0.084 -3.496,0.68 -4.66934,1.988 z m 34.29867,0.98533 c -0.96533,-0.92533 -3.10133,-0.848 -4.19733,-0.176 0.47066,0.268 1.148,0.22 1.64133,0.564 0.67333,0.46934 1.28533,1.24667 1.67067,1.94934 0.212,0.38666 0.26933,0.864 0.704,1.01333 0.85466,0.292 1.36666,-0.58133 1.328,-1.29733 -0.044,-0.81467 -0.612,-1.54134 -1.14667,-2.05334 z m -24.96267,-64.01733 c 2.57467,1.71333 4.7,4.29067 5.864,7.444 0.54667,1.48133 1.008,3.3 0.93867,4.79067 0.29333,-6.35467 -4.13733,-12.48 -9.064,-15.09467 -0.73333,-0.38933 -4.04533,-2.02133 -2.95733,0.48 1.924,0.70267 3.34933,1.136 5.21866,2.38 z m 19.36667,0.328 c -0.76,1.42 -2.252,2.476 -3.21467,3.81867 -0.90133,1.25733 -1.70666,2.60666 -2.16266,4.084 -0.948,3.068 -1.63867,6.356 0.46266,9.22266 1.24934,1.704 3.06267,2.012 4.98934,1.888 -3.18267,2.932 -7.41067,-1.27333 -7.928,-4.356 -0.772,-4.59866 2.59866,-9.29333 4.612,-13.12133 0.468,-0.89067 0.87866,-2.708 2.13866,-2.85733 1.188,-0.14134 1.03467,1.29066 1.10267,1.32133 z m -26.62667,53.8 c -1.73866,-4.24933 -7.04,-2.768 -9.66533,-0.15067 -1.456,1.452 -0.69733,4.112 1.61733,3.33867 1.696,-0.56667 2.928,-1.904 4.096,-3.04133 2.09467,-2.04 2.67467,0.69866 3.81334,1.99733 0.14266,-0.67067 0.212,-1.36 0.13866,-2.144 z m 28.71334,1.90267 c 1.16266,-1.34667 1.212,-4.51334 3.54533,-4.04934 1.904,0.37734 3.13867,1.91734 3.368,3.804 0.0747,0.60934 0.17333,2.244 -0.32667,2.71467 -0.59066,0.556 -2.268,0.056 -2.77466,-0.50133 -0.88534,-0.97467 0.44266,-1.63467 0.46933,-2.608 0.0307,-1.09067 -1.12267,-1.84934 -2.136,-1.56667 -0.96933,0.272 -1.536,1.50133 -2.14533,2.20667 z m -11.75467,15.40266 c 0.96133,-4.36533 2.464,-8.59333 3.024,-13.06 0.36533,-2.90933 0.68667,-6.50266 0.69867,-9.43466 0.0107,-2.70934 -0.28534,-4.768 -0.428,-7.47467 0.0307,0.59467 0.40266,1.308 0.53866,1.90133 1.03334,4.52 0.91867,9.41334 0.26267,13.98267 -0.83067,5.788 -2.82533,11.52933 -2.256,17.444 0.20133,2.088 0.94133,3.832 1.808,5.71733 -0.38533,-0.008 -0.75067,-0.356 -1.112,-0.48133 -0.488,-0.16933 -1.12133,-0.21733 -1.64133,-0.16533 -1.28267,0.12666 -2.46934,0.85733 -3.72534,1.04 0.67067,-0.0973 1.416,-2.09734 1.504,-2.652 0.36934,-2.28667 0.82934,-4.556 1.32667,-6.81734 z m -25.784,18.70267 c 3.35733,-0.468 7.00533,-0.0547 10.36933,0.14533 -0.408,1.12534 -1.304,2.316 -0.812,3.62534 0.496,-0.97334 0.59467,-1.68 1.568,-2.404 2.64134,-1.96267 5.73334,-2.796 8.93067,-3.25867 2.15333,-0.312 4.08267,0.81333 6.25733,0.58 1.84,-0.19733 3.39467,-0.824 5.24934,-0.53467 1.70533,0.26534 2.904,0.316 4.404,1.284 1.364,0.87867 2.34933,2.12667 2.36,3.81067 0.41466,-0.98 0.256,-1.86133 -0.004,-2.808 0.46666,0.19733 1.088,0.164 1.63066,0.14133 0.72667,-0.0293 0.99467,0.06 1.59867,0.524 1.16133,0.89067 1.256,1.72134 1.23467,3.12 0.0187,-1.18133 0.67066,-2.87333 0.06,-3.98133 -0.59334,-1.07733 -2.33334,-0.652 -3.344,-0.832 -1.032,-0.184 -1.84,-0.91333 -2.736,-1.4 -0.972,-0.528 -1.69467,-0.74267 -2.82534,-0.78667 -2.54,-0.10133 -5.07333,0.27867 -7.61333,0.15867 -1.93467,-0.0907 -3.80667,-0.67467 -5.756,-0.43467 -1.90267,0.23334 -3.64667,1.12 -5.488,1.472 -1.21733,0.23334 -2.51333,0.32267 -3.724,0.508 -1.49867,0.22934 -2.8,-0.39466 -4.25067,-0.38933 -1.66,0.005 -3.24133,0.44667 -4.88666,0.548 -2.53334,0.156 -5.54267,0.19867 -7.73734,1.71867 -0.66133,0.45866 -0.90133,1.284 -1.21866,2.01333 -0.27867,0.64 -0.224,1.26933 -0.41734,1.86266 -0.256,-1.38933 2.092,-2.73866 2.996,-3.27999 1.35067,-0.812 2.592,-1.18534 4.15467,-1.40267 z m 18.51333,5.21466 c -0.11333,-0.36133 0.63867,-0.98399 0.844,-1.17866 1.408,-1.332 4.08534,-1.21467 5.87867,-1.16667 1.72133,0.0467 3.43467,0.292 5.10933,0.692 0.68934,0.16534 3,0.696 3.04134,1.65067 0.0213,0.484 -0.48534,0.66666 -0.892,0.74933 -1.11867,0.228 -2.488,-0.005 -3.65067,-0.004 -1.89067,0.001 -3.764,-0.15467 -5.65333,-0.14933 -0.54267,0.001 -4.344,0.0787 -4.67734,-0.59334 z m 21.71467,-15.94133 c 0.0333,0.66667 0.456,1.532 0.98667,1.45734 0.45733,-0.064 0.51333,-0.98 0.512,-1.308 -0.003,-0.804 -0.70667,-1.524 -1.35734,-0.756 -0.112,0.13333 -0.15466,0.35466 -0.14133,0.60666 z m -31.61333,0.007 c 0.0133,0.0707 0.024,0.144 0.0307,0.22133 0.056,0.644 0.13067,0.93867 0.33734,1.53334 -0.64134,-0.18134 -1.568,-0.90134 -1.79334,-1.50667 -0.56533,-1.52667 1.14,-1.76133 1.42534,-0.248 z" /><path
     opacity="0.2"
     d="m 288.55199,122.97733 c -7.992,-2.6 -18.07733,-3.884 -25.87866,0.15733 4.09466,-0.676 9.15866,-0.61333 13.04933,0.716 1.82933,0.62534 4.828,1.47334 6.35067,2.67734 1.24533,0.98533 1.152,2.48 1.23066,3.9 1.88,0.0307 4.88534,-0.41067 5.544,1.76933 0.784,2.592 -3.52933,2.384 -5.11866,3.43733 3.48533,1.804 7.236,2.636 4.98933,7.45067 -1.04,2.23067 -3.436,3.14933 -5.54,4.05067 1.26133,0.092 2.072,1.32 1.684,2.456 -0.368,1.07866 -2.28667,1.376 -1.99867,2.788 4.71467,0.248 7.232,-2.444 10.34,-5.65467 2.672,-2.76 4.976,-5.708 4.424,-9.768 -0.42133,-3.10267 -1.944,-5.34933 -3.26,-8.128 -1.20933,-2.54933 -2.89866,-4.55333 -5.816,-5.852 z"
     id="path53"
     style="stroke-width:1.33333;fill:#000000;fill-opacity:1" /><path
     opacity="0.2"
     d="m 276.20266,133.36533 c 0.0173,0.56 0.38267,0.98533 0.40533,1.63867 0.98534,-0.19067 1.94534,-0.2 2.95334,-0.132 0.59866,0.0413 1.99066,0.448 2.532,0.17333 -1.69067,0.85867 -4.48,2.03467 -5.47467,3.75733 -0.552,0.95467 -0.25733,1.688 0.44933,2.59734 0.26934,0.34666 1.49867,1.61333 2.064,1.18666 -1.26933,0.95467 -3.544,2.32534 -1.72,3.93067 -1.88,0.42933 -5.21466,-1.96533 -6.65333,-2.86933 -1.22533,-0.77067 -3.136,-1.87467 -3.76267,-3.24267 -1.19733,-2.612 3.44,-6.85867 5.43467,-8.144 2.54667,-1.64267 6.14,-2.62933 9.192,-2.40533 -1.26933,0.624 -2.68533,0.92533 -3.90133,1.66933 -0.508,0.31067 -1.228,0.73467 -1.43867,1.33733 -0.0627,0.18267 -0.0853,0.348 -0.08,0.50267 z"
     id="path54"
     style="stroke-width:1.33333;fill:#000000;fill-opacity:1" /><path
     opacity="0.2"
     d="m 334.51599,137.492 c -0.924,-0.80667 -2.452,-1.25867 -3.23066,-2.04267 -0.896,-0.90267 -0.66934,-0.85733 0.36533,-1.396 0.64267,-0.33467 1.67333,-0.53333 2.18533,-1.064 0.24667,-0.256 0.824,-2.23733 0.708,-2.23467 4.47333,-0.136 8.61733,-3.18933 12.02533,-5.80666 0.87734,3.87333 -2.3,7.16533 -3.47466,10.60266 -0.792,2.31734 -0.86667,4.79334 -1.74667,7.128 -0.38667,1.02667 -0.86533,2.16267 -1.696,2.91867 -0.16,0.14533 -2.49467,1.37333 -2.472,0.928 0.0493,-0.97733 0.98933,-3.00667 0.23733,-3.93333 -0.824,-1.01734 -2.75466,0.17866 -3.75733,0.57466 0.86267,-0.34 1.79867,-4.064 1.48933,-4.82933 -0.132,-0.328 -0.356,-0.60267 -0.63333,-0.84533 z"
     id="path55"
     style="stroke-width:1.33333;fill:#000000;fill-opacity:1" /><path
     opacity="0.1"
     d="m 314.63599,167.57333 c -1.096,4.84933 -6.50666,7.764 -10.65466,9.62133 -2.08,0.932 -4.268,1.82 -6.50934,2.26534 -1.77866,0.35333 -4.70533,0.076 -5.28533,2.34133 -0.27867,1.08533 1.20267,4.004 1.912,4.76933 1.45867,1.57334 3.47067,1.62934 5.48267,1.356 6.87066,-0.93466 12.50533,-2.00666 19.30933,-0.616 2.00667,0.41067 5.25067,1.492 6.828,-0.42133 1.228,-1.49067 1.04533,-3.9 -0.08,-5.404 -1.09867,-1.468 -3.45733,-1.7 -4.952,-2.71067 -2.97733,-2.00933 -6.92133,-7.348 -6.05067,-11.20133 z"
     id="path56"
     style="stroke-width:1.33333;fill:#000000;fill-opacity:1" /></g></svg>
