<?xml version="1.0" encoding="UTF-8" standalone="no"?>
<!-- Created with Inkscape (http://www.inkscape.org/) -->

<svg
   version="1.1"
   id="svg1115"
   width="400"
   height="400"
   viewBox="0 0 400 400"
   sodipodi:docname="KtarianHeadBits.svg"
   inkscape:version="1.3 (0e150ed, 2023-07-21)"
   xmlns:inkscape="http://www.inkscape.org/namespaces/inkscape"
   xmlns:sodipodi="http://sodipodi.sourceforge.net/DTD/sodipodi-0.dtd"
   xmlns="http://www.w3.org/2000/svg"
   xmlns:svg="http://www.w3.org/2000/svg">
  <defs
     id="defs1119" />
  <sodipodi:namedview
     id="namedview1117"
     pagecolor="#ffffff"
     bordercolor="#666666"
     borderopacity="1.0"
     inkscape:showpageshadow="2"
     inkscape:pageopacity="0.0"
     inkscape:pagecheckerboard="0"
     inkscape:deskcolor="#d1d1d1"
     showgrid="false"
     inkscape:zoom="5.9"
     inkscape:cx="306.01695"
     inkscape:cy="115.16949"
     inkscape:window-width="1920"
     inkscape:window-height="1080"
     inkscape:window-x="2338"
     inkscape:window-y="157"
     inkscape:window-maximized="0"
     inkscape:current-layer="g1123">
    <inkscape:page
       x="0"
       y="0"
       id="page1121"
       width="400"
       height="400"
       margin="0"
       bleed="0" />
  </sodipodi:namedview>
  <g
     inkscape:groupmode="layer"
     id="layer1"
     inkscape:label="EyeBrow">
    <path
       id="path1135"
       style="fill:#cd976d;fill-opacity:1;fill-rule:nonzero;stroke:none;stroke-width:1.33333"
       d="M 343.63086 106.25195 C 342.14899 106.19292 339.46492 108.48981 338.69727 109.00781 C 336.45593 110.51848 334.06297 111.42475 331.82031 113.10742 C 328.25899 115.77942 323.46686 118.43486 321.04688 122.21484 C 318.93622 125.51351 318.38117 130.26955 319.14648 134.04688 C 319.04533 133.53743 320.15154 132.76397 321.76758 131.91797 C 321.71797 132.08484 321.70218 132.24868 321.72852 132.4082 C 326.20183 130.5922 330.6842 129.08062 335.57617 129.16992 C 337.55484 129.20592 340.89976 129.15203 342.12109 131.05469 C 342.36812 131.44026 342.4105 131.88824 342.35938 132.35547 C 342.13222 133.20644 341.83784 134.06368 341.62891 134.94336 C 341.62598 134.95536 341.61997 134.97053 341.61719 134.98242 C 341.61166 135.0062 341.61086 135.03087 341.60547 135.05469 C 341.51894 135.43382 341.44872 135.8161 341.41016 136.20508 C 341.40377 136.2694 341.40315 136.334 341.39844 136.39844 C 341.38798 136.54311 341.37398 136.68767 341.37305 136.83398 C 341.37297 136.84308 341.37308 136.85223 341.37305 136.86133 C 341.37263 137.06264 341.38173 137.26597 341.40234 137.4707 C 341.4647 138.09001 341.50824 138.70897 341.54492 139.32812 C 341.58823 140.05935 341.62008 140.79009 341.64453 141.52148 C 341.6897 142.87232 341.71906 144.2235 341.78906 145.57617 C 341.81503 146.08285 341.86723 146.49129 341.91016 146.84766 C 341.94838 147.16632 341.97973 147.44577 341.9707 147.70703 C 341.97068 147.70762 341.97072 147.70839 341.9707 147.70898 C 341.97068 147.70961 341.97072 147.71031 341.9707 147.71094 C 341.96575 147.84887 341.95033 147.98449 341.91992 148.11914 C 341.88937 148.25442 341.84406 148.39043 341.7793 148.53125 C 341.64977 148.81288 341.44266 149.1137 341.125 149.4707 C 340.863 149.7647 339.65597 150.86433 338.51172 151.94531 C 337.93955 152.48565 337.38312 153.02147 336.96875 153.44922 C 336.76156 153.66309 336.58919 153.85097 336.46875 153.99805 C 336.34831 154.14512 336.27951 154.25214 336.27734 154.30664 C 336.27701 154.31431 336.26819 154.38791 336.31055 154.47266 C 336.33172 154.51503 336.36607 154.56114 336.41992 154.60156 C 336.47378 154.64199 336.54723 154.67684 336.64844 154.70117 C 336.74965 154.72551 336.87974 154.73833 337.04297 154.73242 C 337.2047 154.72657 337.39975 154.70366 337.63672 154.6543 C 337.64368 154.65285 337.65117 154.64993 337.6582 154.64844 C 337.88988 154.59923 338.16088 154.5249 338.47656 154.42188 C 338.49249 154.41668 338.50923 154.4116 338.52539 154.40625 C 338.85028 154.29865 339.22106 154.16093 339.64648 153.98438 C 340.52482 153.61971 341.21892 153.14881 341.7793 152.61719 C 341.7876 152.60932 341.79449 152.60165 341.80273 152.59375 C 342.07286 152.33482 342.31305 152.06327 342.52539 151.78125 C 342.52572 151.78082 342.52507 151.77973 342.52539 151.7793 C 342.73478 151.50108 342.91823 151.21443 343.08203 150.92383 C 343.10035 150.89134 343.11695 150.85875 343.13477 150.82617 C 343.29022 150.54199 343.42962 150.25426 343.55273 149.96875 C 343.68453 149.66311 343.7999 149.3606 343.90625 149.06445 C 344.1189 148.47224 344.29356 147.90983 344.47656 147.42383 C 344.54106 147.2525 344.58995 147.07748 344.625 146.90039 C 344.66005 146.7233 344.68157 146.5441 344.69336 146.36133 C 344.71695 145.99579 344.7003 145.6183 344.66797 145.23047 C 344.63559 144.84203 344.58761 144.44342 344.54883 144.0332 C 344.51006 143.62356 344.48005 143.2041 344.48438 142.77344 C 344.48637 142.52411 344.49014 142.27472 344.49414 142.02539 C 344.50747 141.10472 344.52972 140.18405 344.57031 139.26367 C 344.61091 138.34329 344.66986 137.42319 344.75586 136.50586 C 344.79269 136.11386 344.85572 135.72871 344.93945 135.34961 C 345.02319 134.97051 345.12792 134.59841 345.24609 134.22852 C 345.36427 133.85862 345.49656 133.49133 345.63672 133.12695 C 345.77686 132.76259 345.92455 132.39965 346.07422 132.03711 C 346.67289 130.58694 347.29812 129.13702 347.55078 127.56836 C 347.59246 127.31011 347.62349 127.04104 347.64062 126.77148 C 347.65783 126.50081 347.65473 126.23232 347.625 125.96875 C 347.93882 126.04102 348.25529 126.1155 348.57617 126.19727 C 348.51747 126.18127 348.58789 124.64753 348.58789 124.54883 C 348.59722 123.19683 348.98753 121.9246 349.1582 120.58594 C 349.35287 119.04327 349.16558 117.48159 349.01758 115.93359 C 348.88558 114.57095 348.78392 113.195 348.41992 111.875 C 347.77459 109.53767 346.06759 107.86559 344.18359 106.43359 C 344.03009 106.31693 343.84255 106.26039 343.63086 106.25195 z M 283.74805 111.8125 C 279.07385 111.76534 274.37739 111.97984 269.78906 112.40234 C 266.41174 112.713 262.29814 113.74936 259.35547 115.4707 C 257.84747 116.35336 255.55614 117.85327 254.88281 119.47461 C 253.88681 121.87194 253.84923 124.85275 253.72656 127.41406 C 253.66386 128.72206 254.13161 129.92985 255.09961 130.86719 C 256.27161 132.00185 257.72597 132.77788 259.14062 133.56055 C 259.77395 133.91122 260.48706 134.23308 261.03906 134.70508 C 262.13906 135.64508 262.51033 137.04138 262.76367 138.38672 C 262.83567 138.76405 262.96601 139.12391 263.02734 139.50391 C 263.33134 141.36922 263.75845 143.33067 264.67578 145 C 265.42512 146.36 266.62677 147.54792 268.13477 147.91992 C 265.63744 144.76394 264.63709 140.47372 265.48242 136.53906 C 265.80909 135.01639 266.40239 133.54367 267.28906 132.26367 C 268.67572 130.26233 270.75984 128.78419 273.0625 127.99219 C 275.62384 127.11219 278.40227 127.06111 281.09961 127.31445 C 286.20492 127.79445 291.48602 129.28753 295.88867 131.96484 C 296.96333 132.61817 297.92903 133.44806 298.5957 134.52539 C 298.80636 134.86406 299.1612 135.55534 299.5332 135.75 C 300.7332 136.38067 302.00796 133.52914 301.89062 132.64648 C 301.83864 132.24914 301.59025 131.90414 301.18359 131.4668 C 300.97159 131.23747 300.77883 130.98609 300.57617 130.74609 C 300.75083 130.81939 300.92823 130.88494 301.10156 130.96094 C 301.87889 131.30228 302.14727 131.69234 302.94727 131.15234 C 303.57127 130.73101 303.97465 130.04494 304.58398 129.59961 C 305.79732 128.71294 307.20506 127.82119 308.15039 126.61719 C 309.39973 125.02519 310.00134 122.91509 310 120.87109 C 310 119.36177 310.06822 118.13562 308.93359 117.01562 C 308.20292 116.2943 307.49602 115.83746 306.55469 115.4668 C 301.93736 113.6508 297.04936 112.60269 292.10938 112.19336 C 289.34988 111.96486 286.55256 111.8408 283.74805 111.8125 z " />
    <path
       id="path1145"
       style="opacity:0.199997;fill:#000000;fill-opacity:1;fill-rule:nonzero;stroke:none;stroke-width:1.33333"
       d="M 339.08789 112.51562 C 333.97139 112.66074 328.78984 115.58945 324.71484 118.4082 C 320.29885 121.46153 314.82302 127.07271 315.92969 133.08203 C 316.37102 135.4807 317.843 135.64605 319.375 134.13672 C 319.46547 134.04757 319.56317 133.95312 319.6543 133.86328 C 318.58498 135.72385 318.21475 137.90929 319.24219 139.94336 C 319.84886 139.37936 319.99973 138.4967 320.28906 137.7207 C 320.76639 136.4367 321.6752 135.36377 322.64453 134.39844 C 327.47786 129.5891 333.93274 126.97809 340.05273 124.24609 C 339.46339 124.50875 338.46283 124.39858 337.79883 124.50391 C 336.71217 124.67458 335.6274 124.90648 334.55273 125.14648 C 332.41274 125.62381 330.29415 126.22027 328.27148 127.07227 C 327.22657 127.5119 326.03457 128.12607 324.85156 128.87891 C 329.10683 125.01834 333.89844 121.42382 339.17188 120.03516 C 332.32255 121.83915 324.34699 123.29752 318.875 128.35352 C 319.10033 124.85219 322.93891 121.56159 325.74023 119.93359 C 330.62157 117.0976 338.88608 115.41242 344.33008 117.23242 C 346.26608 117.87908 346.25325 116.39071 345.41992 115.10938 C 344.51859 113.72538 343.01164 112.98235 341.43164 112.67969 C 340.99297 112.59569 340.54999 112.54539 340.11133 112.52539 C 339.77116 112.50947 339.42899 112.50595 339.08789 112.51562 z M 261.11133 114.30664 C 260.3675 114.31181 259.61093 114.41072 259.07227 114.49805 C 256.55627 114.90605 254.52692 116.86269 253.79492 119.27734 C 253.33277 120.80117 253.41652 122.46967 254.24805 124.00781 C 252.48791 120.59554 256.96878 116.91262 259.70508 115.71484 C 260.23974 115.4815 262.49546 114.33711 263.07812 114.67578 C 262.58679 114.39045 261.85516 114.30147 261.11133 114.30664 z M 269.54102 117.72461 C 267.94902 117.73044 266.35219 117.85529 264.88086 118.00195 C 263.30486 118.15929 260.96882 119.1993 259.91016 120.41797 C 258.62082 121.9033 257.71571 124.95661 257.73438 126.86328 C 257.75707 129.17795 259.01893 130.87097 260.43359 132.54297 C 259.49225 129.60163 259.64621 125.64192 261.6582 123.16992 C 262.0822 122.64992 262.55413 122.32352 263.07812 122.10352 C 261.70613 123.49284 261.15939 125.54064 261.27539 127.55664 C 261.28869 127.78464 261.29706 128.02563 261.31836 128.26562 C 261.33966 128.50829 261.37161 128.74927 261.43164 128.97461 C 261.54498 129.39861 261.75456 129.79661 261.86523 130.22461 C 262.01323 130.80328 262.26425 131.20283 262.65625 131.66016 C 262.99359 132.05483 263.31239 132.46641 263.67773 132.84375 C 262.46707 131.59041 263.77442 129.3967 264.67578 128.35938 C 265.96645 126.87671 267.6761 125.79403 269.49609 125.08203 C 272.33876 123.97003 275.58128 123.52676 278.61328 123.85742 C 282.90261 124.32409 287.40671 125.72472 291.33203 127.49805 C 293.47203 128.46339 295.65247 129.41958 297.48047 130.99023 C 298.24314 131.64623 299.11819 132.13033 300.10352 132.34766 C 300.84218 132.51166 302.21111 132.57143 301.92578 131.74609 C 301.90448 131.68479 301.87333 131.61825 301.83203 131.54492 C 301.23603 130.49559 299.89383 129.71276 299.03516 128.88477 C 297.88983 127.78077 296.98628 127.01702 295.59961 126.17969 C 294.21028 125.34235 292.86993 124.41792 291.44727 123.66992 C 289.8166 122.81258 287.92961 122.20409 286.21094 121.49609 C 284.15894 120.65076 281.84765 120.16207 279.70898 119.55273 C 277.87299 119.03007 276.03587 118.58611 274.17188 118.16211 C 272.71921 117.83077 271.13301 117.71878 269.54102 117.72461 z M 291.50977 118.44141 C 291.28331 118.43666 291.06495 118.45887 290.86328 118.51953 C 294.22728 118.9142 297.24664 120.76346 300.30664 122.07812 C 300.88397 122.32479 301.41905 122.61953 301.90039 123.01953 C 301.92709 123.04223 301.95377 123.06519 301.98047 123.08789 C 302.3858 123.43856 302.81596 123.99078 303.39062 124.05078 C 304.72662 124.19078 304.37277 121.20284 303.66211 120.71484 C 303.29011 120.46018 302.51927 120.40602 302.08594 120.30469 C 301.40594 120.14735 300.72501 120.00256 300.04102 119.86523 C 298.72235 119.59989 297.34606 119.35991 296.05273 119.14258 C 295.2194 119.00391 294.38331 118.95722 293.55664 118.81055 C 292.94364 118.70255 292.18914 118.45566 291.50977 118.44141 z M 255.54297 132.1543 C 255.68163 133.17163 255.78459 134.16859 255.80859 135.16992 C 255.87392 137.95126 255.34116 141.02244 256.42383 143.67578 C 256.83583 144.68244 257.52456 145.63233 258.33789 146.375 C 259.46989 147.407 261.05178 148.52426 262.53711 148.93359 C 263.42644 149.17759 264.34786 149.41071 265.25586 149.60938 C 265.03319 149.56005 264.49353 148.93992 264.26953 148.78125 C 263.86153 148.49325 263.52483 148.22523 263.1875 147.86523 C 262.60483 147.24523 261.84065 146.7967 261.19531 146.2207 C 259.80865 144.98203 258.80675 143.42528 258.35742 141.61328 C 257.85342 139.58528 258.04892 137.47697 257.68359 135.43164 C 257.52759 134.55697 257.36303 134.07168 256.8457 133.40234 C 256.56703 133.04234 255.61627 132.63296 255.54297 132.1543 z " />
    <path
       id="path1163"
       style="fill:#000000;fill-opacity:1;fill-rule:nonzero;stroke:none;stroke-width:1.33333"
       d="M 344.76367 106.79102 C 344.7273 106.79485 344.70038 106.81328 344.68555 106.84961 C 344.61625 107.02028 344.87579 107.29086 344.95312 107.4082 C 345.21445 107.79753 345.45931 108.21781 345.69531 108.61914 C 345.90598 108.97648 346.10621 109.32802 346.29688 109.69336 C 346.6102 110.28669 346.75211 110.88787 346.91211 111.5332 C 347.53744 114.05987 348.60205 116.82289 348.13672 119.46289 C 347.65272 122.20156 342.02997 121.83083 340.05664 122.16016 C 336.18464 122.80683 332.27888 123.65468 328.68555 125.27734 C 324.32555 127.24667 320.15209 130.36718 318.63477 135.08984 C 318.86943 134.35917 320.60055 133.32766 321.19922 132.84766 C 322.14322 132.09033 323.12215 131.37503 324.13281 130.70703 C 326.15281 129.36837 328.29286 128.2132 330.51953 127.25586 C 332.74486 126.29853 335.05664 125.53875 337.41797 124.99609 C 339.68997 124.47342 342.30663 123.60626 344.5293 124.68359 C 346.61329 125.69293 346.88475 127.43138 346.33008 129.49805 C 346.29555 129.62679 346.25288 129.75362 346.21289 129.88086 C 345.95226 130.18042 345.73467 130.48134 345.61133 130.73242 C 344.48199 133.02576 343.88698 135.80241 343.45898 138.20508 C 343.38164 138.63574 343.31316 139.05046 343.25586 139.45312 C 342.93053 141.73712 342.95379 143.67595 343.70312 145.61328 C 344.22178 146.95195 343.69936 148.18028 343.30469 149.48828 C 342.71802 151.43362 336.71702 156.29319 341.40234 153.25586 C 343.76368 151.72519 346.06278 149.28954 346.18945 146.68555 C 346.22945 145.83621 345.97471 145.28711 345.94141 144.28711 C 345.86674 142.05778 346.05764 139.74145 346.45898 137.55078 C 346.79231 135.72545 347.23628 133.83551 347.84961 132.10352 C 348.03605 131.57759 348.39576 130.93278 348.61523 130.32617 C 349.04547 129.79559 349.37513 129.18711 349.59961 128.53906 C 350.31694 126.4684 350.4095 124.14722 350.4375 121.97656 C 350.4602 120.22856 350.39298 118.4789 350.20898 116.74023 C 350.04898 115.23624 349.90851 113.69871 349.45117 112.24805 C 348.81384 110.23071 347.47259 108.75724 345.80859 107.50391 C 345.72459 107.44091 345.01828 106.76418 344.76367 106.79102 z M 267.98438 116.41797 C 265.3778 116.48133 262.8401 117.04221 260.66602 118.35938 C 257.13535 120.49804 255.08883 124.75493 256.27148 128.79492 C 257.45682 132.84959 261.32902 134.55768 261.54102 139.01367 C 261.72502 142.85233 263.83685 146.91266 267.82617 147.97266 C 266.5715 146.63532 264.70144 144.49818 264.13477 142.60352 C 263.2961 139.79419 263.97334 137.24329 262.91602 134.7793 C 261.99069 132.6273 260.34644 131.16181 259.75977 128.75781 C 259.46781 127.55781 259.29319 126.30692 259.39453 125.07227 C 259.72119 121.04693 263.23876 119.32492 266.85742 118.90625 C 269.56542 118.59292 272.3088 118.76331 274.99414 119.19531 C 276.0808 119.36998 277.15066 119.63419 278.22266 119.88086 C 278.75466 120.00219 279.35056 120.05571 279.86523 120.23438 C 280.29323 120.3837 280.71287 120.51753 281.1582 120.63086 C 282.3862 120.94286 283.61789 121.26323 284.83789 121.61523 C 286.84455 122.1939 288.82433 122.85389 290.73633 123.69922 C 291.74033 124.14322 292.72388 124.64064 293.67188 125.19531 C 296.19454 126.67531 298.41011 128.60397 300.16211 130.94531 C 300.36477 131.21597 300.62461 131.42335 300.86328 131.66602 C 301.01661 131.82335 302.17382 132.7305 302.22852 132.0625 C 302.24052 131.9025 301.95072 131.56373 301.85742 131.42773 C 301.44542 130.81707 300.93423 130.2937 300.49023 129.70703 C 300.03556 129.1057 299.54478 128.5297 299.02344 127.98438 C 298.00211 126.91504 296.86162 125.96177 295.62695 125.14844 C 294.66562 124.5151 293.65009 123.96847 292.60742 123.48047 C 289.72742 122.13114 286.6665 121.21803 283.70117 120.08203 C 281.73317 119.32736 279.71481 118.78033 277.74414 118.09766 C 274.79965 117.07766 271.33569 116.33651 267.98438 116.41797 z " />
    <path
       d="m 346.52159,124.18494 c -2.52933,-1.40933 -7.44533,-0.74 -10.09733,-0.10933 -3.308,0.78666 -6.76667,2.072 -9.66267,3.84266 -1.12666,0.68934 -5.30666,2.83467 -5.03333,4.49067 4.47333,-1.816 8.956,-3.328 13.848,-3.23867 1.97866,0.036 5.32266,-0.0173 6.544,1.88534 0.56933,0.888 0.0973,2.09866 -0.26,3.13466 0.0347,0.0853 0.072,0.17467 0.10533,0.25867 0.476,1.208 1.528,7.78533 2.03467,9.38933 0.04,-0.852 0.676,-6.48133 0.756,-7.332 0.29466,-3.136 2.288,-5.8 2.79466,-8.93733 0.196,-1.22267 0.24267,-2.676 -1.02933,-3.384"
       style="opacity:0.199997;fill:#000000;fill-opacity:1;fill-rule:nonzero;stroke:none;stroke-width:1.33333"
       id="path1177" />
  </g>
  <g
     id="g1123"
     inkscape:groupmode="layer"
     inkscape:label="Page 1">
    <path
       id="path1283"
       style="fill:#cd976d;fill-opacity:1;fill-rule:nonzero;stroke:none;stroke-width:1.33333"
       d="M 272.73242 53.427734 C 254.56083 53.883615 247.38457 70.783406 250.53711 80.914062 C 252.74511 88.008721 251.31585 98.862815 257.70117 105.24414 C 261.5865 109.12681 271.64649 107.47123 281.50781 109.33789 C 288.87048 110.73123 295.4522 113.42237 298.26953 112.73438 C 306.75752 110.65972 311.77359 101.14514 310.57227 92.285156 C 308.63493 78.015838 302.20254 57.50784 278.72656 53.839844 C 276.61069 53.509344 274.61224 53.380574 272.73242 53.427734 z M 323.40625 56.759766 C 321.35301 56.847564 319.38822 57.764632 317.53906 59.466797 C 313.73773 62.966793 310.39386 66.476219 309.64453 72.185547 C 309.06853 76.573541 310.2387 80.90067 310.9707 85.25 C 311.38137 87.691331 312.06527 90.096696 312.97461 92.443359 C 313.97061 95.012691 315.15728 97.545722 316.11328 100.26172 C 316.96528 102.68039 319.48037 106.01614 321.3457 107.60547 C 325.0417 110.75614 331.53046 108.50977 335.67578 107.64844 C 338.95045 106.96844 342.57588 106.49106 345.31055 104.40039 C 345.83855 103.99639 346.08264 103.56567 346.44531 103.01367 C 346.85064 102.39767 347.15514 101.82624 347.39648 101.12891 C 347.59781 100.55157 347.75581 99.90202 347.86914 99.304688 C 348.00647 98.590021 348.11253 97.968666 348.00586 97.25 C 347.94586 96.840667 347.87297 96.430103 347.79297 96.023438 C 347.5983 95.023438 347.36014 94.032208 347.10547 93.046875 C 346.44947 90.517545 345.66707 88.022065 344.81641 85.552734 C 343.83107 82.691404 342.74659 79.864694 341.55859 77.082031 C 340.37326 74.3087 339.08553 71.573685 337.63086 68.929688 C 336.37486 66.64569 334.99861 64.399431 333.33594 62.384766 C 332.82795 61.7701 332.29094 61.176906 331.71094 60.628906 C 328.83244 57.905659 326.04612 56.646882 323.40625 56.759766 z " />
    <path
       id="path1295"
       style="fill:#000000;fill-opacity:1;fill-rule:nonzero;stroke:none;stroke-width:1.33333"
       d="m 256.20999,97.835474 c -2,-6.994666 -3.20133,-16.819999 -4.37733,-19.673333 -0.632,-1.533333 -0.65733,-6.090666 -0.36933,-10.542666 -1.82667,4.541333 -2.136,9.409333 -0.92667,13.294666 2.208,7.094667 0.78,17.949333 7.16533,24.330669 2.17067,2.16933 6.26667,2.60933 11.172,2.9 -2.97866,-1.10267 -11.02,-4.56267 -12.664,-10.309336 m 87.38787,8.004136 c 0,0 4.68533,-5.77867 2.928,-13.482669 -1.75734,-7.704 -11.28934,-29.367999 -20.152,-34.243999 -8.86267,-4.874667 2.592,-1.424 5.04667,0.78 2.45599,2.204 15.10533,19.821333 17.00799,32.019999 1.904,12.198669 -4.83066,14.926669 -4.83066,14.926669" />
    <path
       id="path1305"
       style="opacity:0.199997;fill:#000000;fill-opacity:1;fill-rule:nonzero;stroke:none;stroke-width:1.33333"
       d="M 261.70312 56.197266 C 261.03646 56.550598 260.40231 56.93575 259.79297 57.34375 C 258.31031 58.395749 256.97134 59.633163 255.66602 60.923828 C 250.37002 66.829156 248.70245 75.016734 250.53711 80.914062 C 252.74511 88.008721 251.31584 98.862815 257.70117 105.24414 C 261.5865 109.12681 271.64649 107.47123 281.50781 109.33789 C 288.87048 110.73123 295.45219 113.42237 298.26953 112.73438 C 301.38419 111.97305 304.20252 110.12253 306.33984 107.5332 C 309.14384 104.13721 309.39627 101.86567 308.71094 97.513672 C 306.51094 100.33234 305.82278 104.74542 302.91211 106.85742 C 302.60811 107.07875 302.29213 107.27331 301.9668 107.44531 C 297.38013 109.85464 290.86188 107.48655 286.69922 105.41992 C 279.4699 101.83059 271.45466 98.942885 265.5 92.962891 C 258.80134 86.237564 255.39016 74.344708 257.77148 64.636719 C 258.53548 61.526055 260.02446 58.666596 261.70312 56.197266 z M 318.23438 58.873047 C 318.00105 59.059713 317.76839 59.25613 317.53906 59.466797 C 313.7364 62.966792 310.39386 66.474887 309.64453 72.185547 C 309.1512 75.946876 309.93877 79.665296 310.63477 83.390625 C 311.03477 80.926627 311.32397 78.480207 311.89062 76.046875 C 312.17196 74.838876 312.46186 73.646551 312.7832 72.449219 C 313.45386 69.953221 314.32326 67.502613 315.30859 65.113281 C 316.15392 63.062617 317.18667 61.042873 318.13867 59.046875 C 318.16667 58.989545 318.20368 58.93038 318.23438 58.873047 z M 312.94531 86.103516 C 312.95331 87.564847 313.06578 88.960976 313.28711 90.431641 C 313.42311 91.342307 313.61369 92.241246 313.79102 93.142578 C 313.92969 93.842577 313.94063 94.634115 314.14062 95.300781 C 314.64995 96.990113 315.52723 98.593721 316.11523 100.26172 C 316.9659 102.68039 319.48037 106.0148 321.3457 107.60547 C 325.04037 110.75614 331.53046 108.51172 335.67578 107.65039 C 337.49045 107.27306 339.32681 106.97864 341.10547 106.44531 C 342.53081 106.01731 344.11109 105.51033 345.23242 104.48633 C 345.82442 103.94633 346.27969 103.13074 346.67969 102.44141 C 347.11302 101.69608 347.4832 100.91603 347.7832 100.10938 C 348.02053 99.47204 348.22173 98.790182 348.17773 98.103516 C 348.15903 97.81685 347.84986 96.97289 348.00586 96.712891 C 347.06052 98.288889 345.8343 99.611757 344.1543 100.48242 C 338.09563 103.62509 331.14353 102.29519 325.1582 99.644531 C 323.9022 99.088532 322.70051 98.382535 321.58984 97.533203 C 319.73785 96.117205 318.17141 94.314696 316.83008 92.332031 C 316.15541 91.334699 315.53527 90.294374 314.94727 89.234375 C 314.32461 88.111709 313.81464 87.027515 312.94531 86.103516 z " />
    <path
       d="m 310.12559,90.259608 c 0.005,0.692 0.0133,1.382666 0.0387,2.072 0.04,1.048 0.0667,2.118666 0.22133,3.158666 0.14534,0.973334 0.124,1.822667 0.568,2.748 0.35334,0.737334 0.80267,1.436 1.05334,2.214666 0.22,0.684 0.28133,1.40667 0.316,2.124 0.10266,2.04533 0.0107,4.10133 -0.272,6.12933 -0.27334,1.952 -0.98267,3.73734 -1.77334,5.536 -0.716,1.63067 -0.51466,3.28534 -0.51466,5.06534 0,1.236 0.248,2.33066 0.55733,3.52 0.20133,0.77866 0.372,1.568 0.59867,2.34266 0.15466,0.528 0.324,1.15467 0.38,1.696 0.056,0.53734 0.04,1.04534 0.132,1.576 0.0667,0.39067 0.56266,1.60134 0.37466,1.94534 0.56267,-1.03067 0.86667,-2.236 1.36534,-3.304 0.828,-1.77867 1.696,-3.508 2.404,-5.34 0.70266,-1.81867 1.104,-3.89467 1.268,-5.83467 0.12266,-1.44 0.248,-2.952 0.0667,-4.39067 -0.0667,-0.54266 -0.292,-1.03733 -0.49866,-1.53733 -0.21467,-0.51867 -0.264,-1.05867 -0.428,-1.59867 -0.36667,-1.21066 -0.92267,-2.364 -1.15867,-3.61333 -0.356,-1.88933 -0.31067,-3.77867 -0.484,-5.698666 -0.496,-5.534666 -3.536,-10.052 -4.73467,-15.370666 0.504,2.132 0.50134,4.348 0.52,6.56"
       style="opacity:0.199997;fill:#000000;fill-opacity:1;fill-rule:nonzero;stroke:none;stroke-width:1.33333"
       id="path1337" />
    <path
       d="m 317.16866,118.38254 c 0.0427,-0.14 0.084,-0.28 0.12267,-0.42 0.564,-2.02267 1.08533,-4.37867 0.74133,-6.52 -0.10533,-0.66133 -0.328,-1.26933 -0.46267,-1.912 0.36267,0.55067 0.784,1.03733 1.1,1.63467 0.96134,1.82266 0.66134,4.152 -0.032,5.95066 -0.408,1.05734 -1.00533,1.98 -1.50666,2.98134 -0.21867,0.43866 -0.35467,0.944 -0.52667,1.412 -0.0947,0.25733 -0.18933,0.51466 -0.28933,0.76933 -0.0813,0.20533 -0.30934,0.536 -0.32,0.75333 0.076,-1.62266 0.70933,-3.12666 1.17333,-4.64933"
       style="opacity:0.199997;fill:#000000;fill-opacity:1;fill-rule:nonzero;stroke:none;stroke-width:1.33333"
       id="path1353" />
    <path
       d="m 308.89639,111.02561 c -0.224,0.37333 -0.416,1.2 -0.532,1.67733 -0.116,0.476 -0.24933,0.94667 -0.36666,1.43067 -0.47067,1.94266 -0.58,4.19866 -0.53067,6.27066 0.024,1.02934 0.22,2.06934 0.516,3.004 0.21467,0.67734 0.59333,1.3 0.76,1.99334 -1.112,-1.47734 -2.092,-3.47734 -2.36533,-5.696 -0.19734,-1.6 0.19066,-3.20667 0.63866,-4.60934 0.29334,-0.916 0.79734,-1.71333 1.16534,-2.55866 0.21866,-0.5 0.45066,-1.07067 0.71466,-1.512"
       style="opacity:0.199997;fill:#000000;fill-opacity:1;fill-rule:nonzero;stroke:none;stroke-width:1.33333"
       id="path1369" />
    <path
       d="m 313.36519,123.13921 c -0.116,0.27466 -0.25066,0.53333 -0.41066,0.75333 0.15733,-0.34267 0.17066,-0.93867 0.228,-1.31867 0.0853,-0.56666 0.10933,-1.104 0.22133,-1.66933 0.13467,-0.676 0.16933,-1.30667 0.128,-1.99067 -0.007,-0.11333 -0.228,-1.68 -0.432,-1.47733 0.62667,-0.624 0.44533,-1.40267 0.52133,-2.29333 0.0387,-0.452 0.008,-0.94 0.04,-1.40667 0.0227,-0.33333 0.19867,-0.76 -0.064,-1.06533 0.036,0.0427 0.72267,-2.49067 0.75734,-2.768 0.148,-1.184 0.0827,-2.568 -0.20534,-3.78667 0.164,0.69867 0.51734,1.47733 0.77467,2.15067 0.22667,0.59066 1.08133,1.608 0.84,2.248 -0.072,0.192 -0.32933,0.33866 -0.41867,0.56266 -0.30666,0.77334 -0.368,1.724 -0.0507,2.59734 0.172,0.47466 0.39866,0.66 0.32,1.12133 -0.152,0.904 -1.116,1.93867 -0.12934,2.86667 -0.344,-0.32267 -0.89066,1.228 -0.91733,1.35733 -0.15333,0.76 -0.376,1.472 -0.59867,2.216 -0.176,0.58533 -0.34533,1.28933 -0.604,1.90267"
       style="fill:#000000;fill-opacity:1;fill-rule:nonzero;stroke:none;stroke-width:1.33333"
       id="path1379" />
    <path
       d="m 316.65239,108.10041 c 0.0333,2.01733 -2.14933,-5.31334 -2.53866,-7.92667 -0.388,-2.613332 -1.38267,-7.266666 -1.99467,-8.963999 -0.612,-1.697333 2.15867,4.630667 2.43867,7.473333 0.27866,2.843996 2.036,5.886666 2.09466,9.417336"
       style="fill:#000000;fill-opacity:1;fill-rule:nonzero;stroke:none;stroke-width:1.33333"
       id="path1383" />
    <path
       d="m 311.35093,93.276274 c 0,0 -0.44667,1.717334 0.37733,3.410667 0.824,1.693333 1.22933,2.938667 1.22933,2.938667 0,0 -0.032,-5.468 -1.60666,-6.349334"
       style="fill:#000000;fill-opacity:1;fill-rule:nonzero;stroke:none;stroke-width:1.33333"
       id="path1387" />
    <path
       d="m 310.91946,113.79894 c -0.21467,0.44533 -0.38133,0.92 -0.428,1.52 -0.0227,0.284 -0.212,2.28533 0.47467,1.908 -0.672,1.372 -0.316,3.15333 -0.22134,4.59733 0.108,1.644 0.184,3.336 0.716,4.88934 1.04267,3.04133 -0.536,0.69066 -1.16,-1.33867 -0.62533,-2.02933 -1.41466,-7.18667 -1.152,-8.86133 0.26534,-1.68934 0.89867,-3.18267 1.868,-4.516 0.356,-0.49067 0.644,-1.048 0.96134,-1.57867 -0.21334,0.64533 -0.304,1.35067 -0.60267,1.944 0.18267,-0.12133 0.37867,-0.196 0.568,-0.28133 -0.364,0.164 -0.85467,1.368 -1.024,1.71733"
       style="fill:#000000;fill-opacity:1;fill-rule:nonzero;stroke:none;stroke-width:1.33333"
       id="path1391" />
    <path
       d="m 310.27186,94.660674 c -0.024,1.810667 0.92267,3.118667 1.708,4.637334 0.88,1.701332 1.10933,3.569332 0.89467,5.546662 -0.0747,0.69067 -0.268,1.52534 -0.54134,2.13734 0.072,-0.59867 0.216,-1.152 0.16667,-1.768 -0.0493,-0.608 -0.26133,-1.22667 -0.376,-1.828 -0.19333,-1.01067 -0.30533,-1.96667 -0.68,-2.932 -0.34133,-0.878669 -0.872,-1.713336 -1.09467,-2.645336 -0.168,-0.698666 -0.284,-1.46 -0.31466,-2.185333 -0.0267,-0.652 0.0613,-1.272 0.0733,-1.913333 0.052,0.310666 0.14933,0.734666 0.164,0.950666"
       style="fill:#000000;fill-opacity:1;fill-rule:nonzero;stroke:none;stroke-width:1.33333"
       id="path1395" />
  </g>
</svg>
