<?xml version="1.0" encoding="UTF-8" standalone="no"?>
<!-- Created with Inkscape (http://www.inkscape.org/) -->

<svg
   version="1.1"
   id="svg160931"
   width="400"
   height="400"
   viewBox="0 0 400 400"
   sodipodi:docname="Reman.svg"
   inkscape:version="1.3.1 (91b66b0, 2023-11-16)"
   xmlns:inkscape="http://www.inkscape.org/namespaces/inkscape"
   xmlns:sodipodi="http://sodipodi.sourceforge.net/DTD/sodipodi-0.dtd"
   xmlns="http://www.w3.org/2000/svg"
   xmlns:svg="http://www.w3.org/2000/svg">
  <defs
     id="defs160935" />
  <sodipodi:namedview
     id="namedview160933"
     pagecolor="#ffffff"
     bordercolor="#666666"
     borderopacity="1.0"
     inkscape:showpageshadow="2"
     inkscape:pageopacity="0.0"
     inkscape:pagecheckerboard="0"
     inkscape:deskcolor="#d1d1d1"
     showgrid="false"
     inkscape:zoom="2.16"
     inkscape:cx="200"
     inkscape:cy="200"
     inkscape:window-width="1736"
     inkscape:window-height="1081"
     inkscape:window-x="2393"
     inkscape:window-y="182"
     inkscape:window-maximized="0"
     inkscape:current-layer="g160939">
    <inkscape:page
       x="0"
       y="0"
       id="page160937"
       width="400"
       height="400"
       margin="0"
       bleed="0" />
  </sodipodi:namedview>
  <g
     id="g160939"
     inkscape:groupmode="layer"
     inkscape:label="Page 1">
    <path
       d="m 343.58972,140.87414 c -0.0413,-0.16933 -0.0907,-0.33067 -0.15866,-0.47867 0.0733,0.16 0.12266,0.32 0.15866,0.47867 m 5.06,16.21467 c -1.016,-2.99467 -2.95466,-5.60934 -3.79333,-8.67334 -0.344,-1.25733 -0.64533,-2.55333 -0.95467,-3.81733 -0.248,-1.01067 -0.0773,-2.39733 -0.26933,-3.488 -0.004,-1.368 -0.524,-3.00133 0.003,-5.13067 0.49466,-1.51466 0.72666,-3.096 1.27733,-4.61466 0.30267,-0.832 0.84133,-1.77334 1.112,-2.728 0.13333,-0.24534 0.268,-0.49067 0.39867,-0.72667 2.85866,-5.15067 3.724,-10.16133 2.13066,-15.89467 -0.72266,-2.60266 -2.684,-4.53066 -3.63466,-6.964 -1.58,-4.04266 0.10933,-8.411996 0.89866,-12.453329 0.56267,-2.888 0.50267,-6.188 -0.87866,-8.785333 -1.072,-2.013333 -3.04267,-3.348 -4.156,-5.36 -1.252,-2.26 -1.91067,-4.850667 -2.89867,-7.246666 -1.916,-4.650667 -4.23467,-9.292 -7.544,-13.122667 -13.90266,-16.098666 -42.63066,-28.709332 -65.39866,-28.709332 -23.86934,0 -70.328,22.623999 -70.328,64.095998 0,5.121333 0.472,10.245329 0.65867,15.346669 0.0253,0.70533 0.0867,1.408 0.128,2.112 -0.99334,-1.16 -1.92934,-2.424 -3.14134,-3.37067 -1.16,-0.90533 -2.52666,-2.08133 -4.11066,-1.54933 -1.844,0.62 -1.432,2.304 -0.96534,3.77866 0.62934,1.984 0.0347,4.23867 -0.156,6.26667 -0.284,3.04133 0.14934,6.11733 0.51734,9.12933 0.30266,2.47067 0.46533,4.88667 1.228,7.276 0.97066,3.048 3.75333,4.88134 5.53333,7.39867 0.98933,1.4 1.488,3.04133 2.372,4.51333 0.97067,1.61867 1.976,3.21734 2.99733,4.80534 2.016,3.13733 5.82667,11.20666 7.732,13.784 0.912,1.23333 1.97733,2.736 3.38,3.184 2.58933,1.47066 6.47733,2.24666 7.428,5.84 1.012,3.82266 11.92267,23.65466 14.316,26.23466 1.26267,1.36267 2.628,2.85467 4.31867,3.67467 1.708,0.828 3.62666,1.08 5.34933,1.86533 1.80533,0.824 3.26933,2.11067 4.66533,3.52533 2.092,2.12 4.75734,3.54 7.128,5.31867 1.10667,0.83067 2.20267,1.73733 3.472,2.328 2.21067,1.02667 4.75334,1.52533 6.872,2.71467 2.32667,1.308 4.02667,3.51466 6.516,4.69866 2.21467,1.05467 4.32934,2.46534 6.53334,3.66134 1.37866,0.748 2.70266,1.44266 3.916,2.44533 1.26666,1.04533 2.66,1.616 4.22,2.288 2.30266,0.99067 4.62666,2.10133 7.032,2.824 3.44,1.03067 7.348,1.24933 10.628,1.24933 11.52266,0 14.56666,-3.94266 15.772,-4.948 1.332,-1.116 8.54133,-9.93333 9.45866,-15.22 0.46934,-2.704 1.63334,-4.73733 1.952,-6.11733 0.37867,-1.64133 1.91867,-5.276 4.05067,-10.308 3.07066,-7.24133 6.176,-14.50266 8.58666,-21.99866 1.06534,-3.316 2.128,-6.33067 3.75734,-9.42534 1.59066,-3.02133 3.05866,-6.264 1.89066,-9.70666"
       style="fill:#cd976d;fill-opacity:1;fill-rule:nonzero;stroke:none;stroke-width:1.33333"
       id="path160951" />
    <path
       id="path4"
       style="fill:#ffffff;fill-opacity:0.203526;stroke:none;stroke-width:1px;stroke-linecap:butt;stroke-linejoin:miter;stroke-opacity:1"
       d="m 322.66602,184.55469 c -2.77582,0.0418 -5.59086,1.11823 -8.39649,1.22461 -3.02705,0.11477 -6.07148,-0.56387 -9.08398,-0.2461 -2.53994,0.26792 -5.06526,0.87933 -7.44727,1.80078 -2.23514,0.86465 -5.9998,3.21651 -6.63281,3.61524 0.68822,0.13094 1.49689,0.15956 2.17383,0.0293 1.12933,-0.21866 2.26987,-0.70674 3.42187,-0.94141 3.12,-0.63733 6.31085,-0.90894 9.49219,-0.96094 l -0.67774,1.42188 3.50391,-0.44532 -0.63086,0.0469 -0.43945,-1.60938 10.32226,-0.51171 -0.0742,1.39062 -4.3125,0.32031 7.64257,-0.0586 c -0.52184,-0.15551 -0.91406,-0.26367 -0.91406,-0.26367 l -0.6582,-1.31641 c 1.33067,-0.1333 2.70396,-0.11294 4.0293,0.0391 2.05158,0.23476 3.60551,1.11755 5.54296,0.0879 -0.0727,-0.38546 -0.18559,-0.7735 -0.36328,-1.00781 -1.04724,-1.38093 -2.8816,-2.12011 -4.58203,-2.45508 -0.6357,-0.12522 -1.27544,-0.1698 -1.91601,-0.16015 z M 238.77315,79.051793 c 0,0 9.58257,6.004965 13.19524,9.952403 3.96751,4.335178 12.38317,17.478224 12.38317,17.478224 l -2.77734,9.7207 -6.01953,13.88868 -11.57227,12.5 -0.92773,10.18554 9.72265,11.57422 c 0,0 3.57747,1.98465 5.55664,2.31446 4.72859,0.78798 9.90445,0.86409 14.35157,-0.92579 5.99389,-2.41242 14.81445,-12.5 14.81445,-12.5 l -1.41016,0.30665 c -1.60148,0.8938 -3.20875,1.77868 -4.90429,2.48046 -1.00133,0.41467 -4.49944,1.92918 -5.52344,0.97852 -1.24,0.43333 -2.84936,0.44688 -4.19336,0.82422 -1.55733,0.43866 -3.07983,0.30821 -4.64648,0.54687 0.29733,-0.46133 0.26012,-1.03584 0.10546,-1.5625 -1.69599,0.68266 -4.13611,1.76717 -6.05078,1.45117 0.86134,-1.13199 3.13869,-2.27062 2.91602,-3.89062 -0.31467,-2.29734 -2.93639,-0.50942 -3.90039,-1.49609 -0.48933,-0.50133 0.16405,-0.75288 0.21875,-1.29688 0.12266,-1.24534 -0.86102,-1.51286 -1.90235,-1.74219 -0.77332,-0.16933 -1.93736,-0.0554 -2.33203,-0.85937 -0.248,-0.508 0.0563,-1.37455 -0.17968,-1.94922 -0.416,-1.01867 -1.68669,-1.47611 -2.05469,-2.55078 -0.78534,-2.296 1.82151,-3.53067 2.85351,-5.13867 0.33467,-0.52266 0.40501,-0.84688 0.90235,-1.32422 0.752,-0.724 1.39295,-1.15774 1.73828,-2.17774 0.19067,-0.56 0.18982,-0.9328 0.53516,-1.35546 0.56399,-0.692 1.10527,-0.76634 1.4746,-1.76368 0.42667,-1.152 -0.0844,-1.63112 1.01563,-2.42578 0.58666,-0.424 1.54286,-0.18456 2.13086,-0.61523 1.42133,-1.04133 0.15858,-2.68548 1.00391,-3.38281 0.44399,-0.36537 1.56717,0.18084 2.08984,-0.0352 1.27733,-0.528 0.44521,-0.18294 0.47851,-1.21094 0.0253,-0.82534 -0.51722,-0.51516 -0.0879,-1.53516 0.192,-0.45732 0.84606,-0.96066 1.27539,-1.25 1.35467,-0.91199 3.18278,-1.05051 4.77344,-1.61718 -2.04533,-1.32633 -4.0927,-1.38292 -6.58203,-1.32422 3.23867,-2.23067 6.68213,-2.3277 10.57813,-2.0957 4.25475,0.2532 7.77358,2.42026 11.36523,4.42968 l 2.01562,1.2589 8.10265,2.89309 2.54586,-0.92586 -1.02155,-2.5816 c -0.50927,-0.66291 -0.98237,-1.41023 -1.55664,-1.88867 -1.29866,-1.08267 -7.34495,-4.77389 -3.90039,-3.20703 3.56363,2.48262 -5.38409,-3.91463 -6.48438,-4.70703 l -3.24023,-3.24023 -7.40821,-6.94532 -12.03711,-11.111325 z m 84.61162,65.643517 c 0.27838,0.97028 0.65991,1.89181 1.00781,2.83594 1.072,2.91866 2.07464,5.90308 3.16797,8.81641 0.39733,1.06133 0.77256,2.16618 1.61523,2.96484 2.00933,1.904 4.5973,3.24723 6.75195,4.97656 0.34174,0.27434 0.64856,0.54477 0.94336,0.82032 0.30443,0.28455 3.5576,1.29386 5.375,1.09374 1.97388,-0.21735 5.43946,-2.42968 5.43946,-2.42968 l 0.69336,-5.43946 -3.125,-4.16796 -1.09766,0.56054 0.0781,0.94727 c -5.284,5.11599 -7.88587,4.86533 -13.50586,0 -2.14133,-1.85333 -3.78619,-4.2359 -5.10352,-6.72656 -0.59733,-1.12933 -0.9813,-2.21188 -1.66797,-3.31055 -0.18602,-0.29919 -0.37864,-0.60889 -0.5625,-0.92969 z m 20.06445,-60.410154 c -4.60451,2.418021 -5.10339,9.555927 -6.18555,14.052735 -0.74273,3.087589 -1.59706,7.028629 -3.12305,10.119139 l -1.61718,4.85352 -4.86133,8.21679 9.49023,-3.58789 7.75586,-4.39843 -0.46289,-7.17579 0.92578,-10.068355 0.11524,-9.144531 z" />
    <path
       d="m 296.60426,192.66214 c 0,0 1.61067,-1.53733 4.31867,-1.75733 2.708,-0.21867 4.46533,-0.58534 4.46533,-0.58534 0,0 1.44133,-2.63733 2.03867,-3.404 0.596,-0.768 0.15733,-0.256 0.15733,-0.256 l 0.80533,3.44134 9.808,-0.732 0.29334,-3.00134 c 0,0 1.464,0.512 2.12266,3.00134 l 4.83067,1.024 -0.732,3.36666 c 0,0 -6.07467,3.148 -11.12533,3.148 -5.05067,0 -13.908,-1.09733 -15.88534,-1.976 -1.976,-0.87866 -1.09733,-2.26933 -1.09733,-2.26933"
       style="fill:#ffffff;fill-opacity:1;fill-rule:nonzero;stroke:none;stroke-width:1.33333"
       id="path160955" />
    <path
       d="m 245.12239,80.472275 c 0.552,0.341333 1.10134,0.673333 1.60934,1.006666 -0.42,-0.437333 -0.98667,-0.754666 -1.60934,-1.006666"
       style="opacity:0.199997;fill:#000000;fill-opacity:1;fill-rule:nonzero;stroke:none;stroke-width:1.33333"
       id="path160965" />
    <path
       d="m 327.43959,201.22067 c 0.0893,-0.82667 0.068,-1.62133 0.312,-2.43333 0.136,-0.45467 0.43734,-0.97333 0.11734,-1.416 -2.01067,0.69733 -4.02934,1.616 -5.89067,2.60667 -3.92933,2.09199 -8.21067,2.00933 -12.50267,1.61466 -2.14666,-0.19733 -4.25866,-0.54533 -6.32133,-1.212 -0.888,-0.288 -1.74933,-0.64133 -2.61067,-0.99466 -0.796,-0.32667 -6.304,-3.55334 -6.496,-1.9 -0.17733,1.53333 1.17734,2.19333 2.176,2.80533 0.572,0.34933 1.14934,2.01866 0.64667,2.74 -0.31733,0.456 -1.032,0.284 -1.34,0.68266 -0.30267,0.39334 0.028,0.90134 -0.36133,1.23867 -0.40267,0.34933 -1.476,0.316 -1.984,0.38933 -0.97867,0.14 -1.95067,0.11467 -2.928,0.196 -1.01867,0.084 -1.96134,0.37334 -2.99734,0.40134 -0.10533,1.28133 1.70134,2.46933 1.26267,3.63866 -1.79467,0.63067 -3.65733,-0.23466 -5.32267,-0.77733 -1.908,-0.62133 -0.668,1.18667 -0.66666,2.28533 10e-4,1.28134 -0.988,1.61467 -2.056,1.65734 -0.684,0.0267 -1.304,0.38 -1.976,0.30133 -0.46667,-0.0547 -1.048,-0.33733 -1.48934,-0.51067 -0.74,-0.292 -2.00933,-0.81333 -2.39466,-1.58533 -0.43467,-0.87067 0.55466,-1.45733 0.42933,-2.296 -0.10267,-0.692 -0.60267,-0.96667 -0.268,-1.70667 0.13067,-0.29066 0.33733,-0.44533 0.55467,-0.67866 0.41733,-0.444 0.70266,-0.51867 0.48933,-1.02934 -0.228,-0.54533 -1.24933,-1.072 -1.60933,-1.54933 -0.224,-0.29733 -0.68534,-0.964 -0.42267,-1.37067 0.244,-0.38133 0.57333,-0.18133 0.964,-0.16666 0.88267,0.0333 2.41333,0.10933 2.92667,-0.75067 -0.72267,-0.452 -1.68534,-0.21467 -2.32267,-0.796 -0.58933,-0.53733 -1.90667,-2.344 -1.90933,-3.10133 -0.007,-1.13067 1.59333,-2.432 1.20666,-3.488 -0.18933,-0.51867 -0.80933,-0.76667 -1.08,-1.252 -0.27066,-0.49067 -0.29733,-1.08933 -0.428,-1.628 -0.55466,-2.28267 -2.01466,-3.94533 -2.83866,-6.11067 -1.98667,-5.21466 -5.51734,-9.60666 -9.25867,-13.67066 -1.904,-2.06934 -4.30267,-5.09067 -6.65067,-6.60934 -2.26666,-1.46666 -4.932,-1.744 -6.92,-3.69466 -1.964,-1.928 -3.34266,-4.60934 -4.04133,-7.264 -0.536,-2.03867 -1.708,-4.524 -1.18133,-6.664 0.2,-0.81467 0.66266,-1.66 1.112,-2.39067 1.492,-2.428 3.35333,-4.87467 5.092,-7.16267 2.74,-3.60533 6.192,-6.75066 9.03466,-10.316 1.98,-2.484 3.44134,-5.37866 5.252,-8.03333 2.052,-3.012 3.084,-5.576 2.25867,-9.228 -0.76133,-3.37067 -1.95867,-5.78 -3.89067,-8.576 -2.80266,-4.055999 -7.116,-6.675999 -11.13466,-9.366666 -4.29467,-2.874666 -9.10134,-5.937333 -14.108,-7.377333 -4.32934,-1.246666 -9.528,-0.725333 -13.98267,-0.146666 -2.6,0.338666 -5.18533,0.669333 -7.80133,0.876 -1.4,0.110666 -4.752,0.866666 -5.83334,-0.134667 -3.18133,-2.948 4.044,-5.568 5.54134,-6.238667 1.66,-0.742666 3.45333,-1.625333 5.25066,-1.957333 4.68267,-0.865333 9.39467,0.144 14.024,0.889333 2.74934,0.442667 5.64267,1.017334 8.31334,1.576 1.08133,0.226667 2.52266,0.446667 3.73733,0.937334 -1.31467,-0.814667 -2.64667,-1.697334 -3.50267,-2.886667 -0.99866,-1.389333 -2.24533,-4.224 -0.50266,-5.422666 -0.23734,-0.406667 -0.71067,-1.178667 -0.67334,-1.689334 0.0747,-1.002666 0.772,-0.76 1.056,-1.390666 0.62934,-1.396 -0.86266,-2.965334 -0.0507,-4.350667 0.37333,-0.637333 1.436,-0.621333 1.744,-1.076 0.44,-0.649333 -0.0627,-1.44 0.22266,-2.136 0.644,-1.569333 1.95867,-1.225333 3.28534,-0.78 2.64,0.886667 4.86933,2.693333 7.21866,4.068 10.916,6.384 20.38534,15.305333 28.824,24.697333 3.688,4.104 7.432,8.246666 11.052,12.372002 1.26534,1.444 2.348,3.372 3.80667,4.55733 -0.0867,-2.94533 -3.23867,-5.404 -4.836,-7.633332 -2.83333,-3.952 -6.89733,-6.605334 -9.068,-10.94 -1.21733,-2.432 -3.73067,-3.302667 -5.51867,-5.201333 -2.07333,-2.201334 -3.98266,-4.78 -6.116,-7.022667 -3.39866,-3.572 -6.344,-8.116 -10.36533,-10.889333 -3.14,-2.166667 -6.04933,-4.68 -9.08667,-6.969333 -1.32533,-1 -4.224,-2.596 -4.88133,-4.164 1.41333,-1.084 0.716,-1.462667 0.56533,-2.928 1.33334,-0.205333 2.62667,0.714667 3.63867,1.484 -0.28533,-1.612 -1.67733,-2.574667 -2.1,-4.092 1.14,-0.22 2.13333,0.146667 3.10133,0.477333 -0.0467,-0.538666 0.0893,-1.149333 0.0533,-1.689333 3.364,-1.288 7.86666,2.7 9.844,4.98 3.624,4.18 6.232,9.166666 10.14933,13.104 4.78267,4.805333 9.03067,10.347999 13.11733,15.657333 -1.90533,-2.476 -3.52266,-5.277334 -5.40133,-7.798667 -1.80667,-2.422666 -3.904,-5.037333 -5.008,-7.897333 -1.45067,-3.761333 -4.90267,-7.252 -7.652,-10.033333 -2.11333,-2.138667 -4.78133,-3.793333 -6.54667,-6.268 4.94,-0.248 8.636,3.022667 13.26267,4.024 2.93467,0.634667 5.93067,0.974667 8.93067,1.068 2.90533,0.08933 6.028,-0.673333 8.87333,-0.432 -4.98533,-0.422667 -9.988,-1.668 -14.93333,-2.456 -3.93867,-0.628 -7.97467,-1.12 -11.76534,-2.24 -2.77333,-0.82 -8.664,-3.14 -9.58266,-6.221333 1.59466,-0.118667 3.66533,1.666667 4.97333,2.413333 -2.04533,-1.168 -4.11067,-2.626666 -4.31067,-5.230666 -0.21333,-2.753334 1.38,-4.025334 3.13867,-5.790667 1.68,-1.686666 4.22667,-4.418666 6.84933,-4.337333 -0.66666,-0.02133 -1.32933,-0.03467 -1.98666,-0.03467 -0.53067,0 -1.08667,0.02533 -1.63867,0.048 -2.06,0.102667 -4.15067,0.374667 -6.24933,0.657334 -8.07067,1.090666 -16.32267,4.533333 -23.59467,8.154666 -7.66267,3.816 -14.824,8.698666 -20.89733,14.750666 -6.98,6.956 -12.42667,15.553333 -15.42667,24.958666 -3.26666,10.241333 -2.24666,20.332 -1.86133,30.874672 0.0253,0.7 0.0707,1.39866 0.11867,2.09866 -0.87867,-1.02666 -1.712,-2.11066 -2.724,-3.012 -0.95334,-0.85066 -1.856,-1.796 -3.22,-1.74666 -0.82267,0.0307 -2.272,0.23333 -2.5,1.20266 -0.368,1.56934 0.932,2.93467 0.71466,4.436 -0.0893,0.62134 -0.35466,1.18934 -0.42133,1.84267 -0.0827,0.804 -0.13733,1.61067 -0.21333,2.41467 -0.28534,3.04133 0.14933,6.11733 0.51733,9.12933 0.30133,2.472 0.46533,4.88667 1.22667,7.276 0.972,3.048 3.75466,4.88133 5.53466,7.39867 0.98934,1.4 1.488,3.04133 2.37067,4.51333 0.972,1.61867 1.97733,3.21733 2.99733,4.80533 2.01733,3.13867 5.828,11.20667 7.732,13.784 0.912,1.23334 1.97733,2.736 3.38133,3.18534 2.588,1.46933 6.47734,2.24533 7.428,5.83866 1.05867,4.00134 3.57734,7.89867 5.516,11.512 2.39467,4.46134 4.808,8.996 7.65734,13.18934 2.37866,3.49999 5.99066,5.08799 9.65466,6.94133 1.56134,0.78933 3.16267,1.716 4.57334,2.828 2.664,2.10133 5.172,3.84 8.13066,5.384 3.30667,1.72666 5.596,3.84666 8.49734,6.064 1.26533,0.96666 2.396,1.23733 3.912,1.71733 1.30666,0.41467 2.51333,1.07467 3.85066,1.56667 2.18,0.804 4.11334,2.528 6.09467,3.88266 2.61867,1.79334 5.47067,3.10934 7.976,5.03334 2.32933,1.788 5.68533,2.62266 8.476,3.46 3.44,1.032 7.348,1.24933 10.62667,1.24933 2.77066,0 5.04,-0.23067 6.92266,-0.592 -2.092,0.40133 -3.90666,-1.252 -5.81333,-1.69467 -0.96533,-0.224 -1.55733,-0.20933 -2.42533,-0.86133 -0.66267,-0.49867 -1.26267,-1.172 -2.04667,-1.48667 -0.87733,-0.352 -1.28133,-0.005 -1.08267,-0.82266 0.18,-0.73867 0.78667,-1.59467 0.26534,-2.44667 -2.01334,0.96 -5.28134,1.07067 -7.27334,0.0747 -0.34266,-0.172 -1.224,-0.66667 -1.328,-1.112 -0.144,-0.61067 0.276,-0.56534 0.612,-0.94267 0.22,-0.24667 0.53867,-0.664 0.55467,-1.01733 0.0293,-0.688 -0.108,-0.47334 -0.58,-0.78534 -0.27067,-0.18 -0.92933,-0.372 -0.99067,-0.784 -0.22133,-1.476 4.136,-0.036 3.98267,-2.208 -1.424,-0.0907 -4.84,-0.73066 -3.08267,-2.88133 0.548,-0.672 1.37467,-1.264 2.15067,-1.62667 0.86267,-0.40133 1.8,-0.24933 2.66267,-0.49066 1.908,-0.53334 0.0747,-1.81734 0.89866,-2.96534 0.47734,-0.66533 1.35467,-1.01466 2.12534,-1.19066 0.72133,-0.164 1.53333,0.088 2.05066,-0.44534 0.37334,-0.384 0.408,-1.064 0.70267,-1.53066 0.60267,-0.95334 1.48667,-1.27067 2.428,-1.748 1.088,-0.55067 2.1,-1.17734 3.252,-1.60667 1.81467,-0.67467 3.58,-0.41733 5.408,-0.73467 1.41733,-0.24666 3.48667,-0.89466 4.89867,-0.516 1.7,0.45334 3.792,2.392 2.612,4.30267 -0.47467,0.76933 -1.71334,1.32267 -2.43334,1.768 0.59867,0.75733 2.29067,1.25867 1.95734,2.696 -0.104,0.44267 -0.42,0.48667 -0.46134,0.98933 -0.068,0.80934 0.86134,1.3 0.61734,2.07867 -0.21867,0.70133 -4.324,3.592 -4.07067,4.06667 0.40133,0.74933 4.49733,-2.02667 5.16933,-2.468 1.08,-0.70934 1.5,-1.72667 1.052,-3.016 -0.196,-0.564 -0.992,-1.45334 -0.70666,-2.00134 0.30133,-0.58 1.57066,-0.76 2.052,-1.17333 0.85466,-0.73067 0.38533,-1.64933 1.44266,-2.34667 1.14934,-0.75733 2.412,-1.168 2.09467,-2.70533 -0.12667,-0.608 -0.36133,-1.12133 -0.22533,-1.79867 0.248,-1.24533 0.72933,-2.29466 0.86666,-3.56933"
       style="opacity:0.199997;fill:#000000;fill-opacity:1;fill-rule:nonzero;stroke:none;stroke-width:1.33333"
       id="path160981" />
    <path
       d="m 234.20693,77.716808 c -4.18,-2.228 -8.57867,-2.678667 -13.17334,-3.662667 -3.568,-0.763999 -8.25733,-0.245333 -10.676,-3.139999 -1.62133,-1.941334 -2.152,-4.030667 -1.836,-6.612 0.484,-3.956 3.24934,-7.718667 5.932,-10.529333 1.81734,-1.904 4.98667,-4.353334 5.648,-6.876 -2.744,1.830666 -5.17333,3.728 -7.54133,6.088 -4.64533,4.629333 -8.596,9.965333 -11.612,15.790666 -2.69733,5.210666 -4.48666,10.526666 2.33733,13.076 5.336,1.994666 10.76534,-3.86 15.76267,-4.782667 2.744,-0.506667 5.39867,-0.2 8.15333,-0.084 2.30934,0.09867 4.66267,0.96 7.00534,0.732"
       style="opacity:0.199997;fill:#000000;fill-opacity:1;fill-rule:nonzero;stroke:none;stroke-width:1.33333"
       id="path160997" />
    <path
       d="m 268.46253,220.97467 c 1.11466,0.50667 2.23066,0.97067 3.376,1.48 2.632,1.16933 5.16266,2.62667 7.41066,4.432 1.02,0.81867 1.82667,1.776 2.94534,2.40267 1.348,0.75466 2.90533,1.272 4.32666,1.87866 0.93867,0.4 1.904,0.916 2.89067,1.18134 0.96533,0.26 2.328,0.81066 3.29867,0.768 -0.94,-0.0293 -1.82267,-1.41334 -2.32267,-2.06267 -0.70267,-0.90933 -1.09467,-1.756 -2.016,-2.384 -0.78267,-0.53333 -1.64,-0.89733 -2.50667,-1.27467 -1.372,-0.59733 -2.888,-0.62933 -4.31333,-1.13866 -1.96267,-0.7 -4.116,-1.892 -5.552,-3.36667 -1.632,-1.676 -2.55867,-3.73467 -3.85467,-5.62133 -0.71733,-1.044 -1.372,-2.132 -1.608,-3.38667 -0.172,-0.91067 -0.148,-1.82133 -0.53466,-2.68267 -0.96534,-2.152 -3.60134,-3.22666 -3.12267,-5.924 0.184,-1.04 0.81333,-1.912 0.808,-2.984 -0.004,-1.02 -0.25067,-2.15066 -0.65733,-3.07333 -0.78267,-1.77466 -1.64,-3.592 -2.17067,-5.46933 -0.372,-1.31467 -0.49067,-2.64133 -1.08,-3.912 -0.96667,-2.08267 -2.52133,-4.24933 -4.22133,-5.77733 -0.0773,4.472 4.14,7.34266 4.776,11.70933 0.47066,3.23333 -2.83867,5.24533 -1.75734,8.50266 0.45334,1.36534 1.3,2.59334 1.79734,3.95867 0.60266,1.656 1.75733,4.064 1.64933,5.796 -1.636,-0.55733 -3.22667,-1.69067 -4.728,-2.548 -0.75867,-0.43333 -1.512,-0.864 -2.1,-1.528 -2.43467,-2.73867 -3.04667,-7.46133 -6.536,-9.27733 0.21333,1.19066 0.62133,2.35466 0.89067,3.536 0.37066,1.62 1.40666,3.17866 1.60266,4.80266 -2.42,-1.81333 -5.54,-2.92533 -7.672,-5.08666 -2.07333,-2.10134 -1.29733,-4.67067 -1.052,-7.188 0.0787,-0.80933 -0.32,-1.47333 -0.61066,-2.212 -0.72534,-1.84667 -1.78667,-3.96667 -1.55467,-5.98267 0.12133,0.78534 -0.40133,1.58534 -0.524,2.35067 -0.25867,1.624 -0.084,3.36933 -0.0827,5.01067 0.001,1.412 0.336,3.45466 -0.45733,4.72799 -1.036,-1.44133 -1.27733,-3.25466 -2.672,-4.39999 -1.612,-1.324 -3.12933,-3.044 -2.60267,-5.22 0.43334,-1.79467 1.60267,-3.372 2.10934,-5.14134 0.25733,-0.89866 0.10533,-1.316 -0.0893,-2.09733 -0.26933,-1.084 -0.0333,-2.08933 -0.005,-3.23067 0.0693,-2.84133 -0.808,-5.66266 -1.96667,-8.23333 -0.51333,0.35067 -0.412,1.02533 -0.31466,1.56933 0.23066,1.29067 1.00266,2.51334 1.304,3.80134 0.44666,1.91466 0.08,4.11066 -0.72,5.888 -0.75334,1.67466 -1.656,3.15733 -2.004,5.01066 -0.268,1.43067 -0.152,2.93334 -0.39467,4.37334 -1.372,-0.92 -2.68133,-2.65734 -3.35467,-4.156 -0.528,-1.18 -0.668,-2.628 -0.42133,-3.89334 0.52133,-2.66933 1.31733,-4.8 0.81467,-7.604 -0.436,-2.43866 -1.452,-4.58533 -2.676,-6.696 -0.44267,-0.76266 -1.17867,-1.45333 -1.46667,-2.24533 -0.776,-2.136 1.396,-4.21467 2.19733,-5.92133 0.88667,-1.88667 0.23867,-3.78534 -0.74266,-5.58134 -0.40667,-0.74266 -0.93334,-1.19066 -0.93467,-2.08933 0,-0.63467 0.408,-1.108 0.52533,-1.704 0.33867,-1.71867 -0.72666,-3.56933 -1.34133,-5.08133 -1.17067,-2.884 -2.064,-6.03067 -4.02933,-8.504 0.66533,1.54666 1.788,3.01066 1.88,4.78666 0.0573,1.08267 -0.15334,1.57334 0.276,2.592 0.38,0.90267 1.112,1.852 1.15733,2.852 0.048,1.04134 -0.54267,1.72667 -0.91467,2.616 -0.968,2.316 1.932,4.11867 2.01467,6.42134 0.088,2.44133 -1.332,5.02933 -1.76133,7.432 -0.288,1.608 -0.136,2.77333 0.21466,4.32266 0.25467,1.128 2.03334,6.13734 0.904,6.59467 -1.57733,-3.51867 -3.776,-6.528 -4.25333,-10.512 -0.18933,-1.58933 0.264,-2.92 0.22667,-4.45333 -0.0427,-1.82267 -0.51467,-3.704 -1.03867,-5.43867 -0.66267,-2.192 -2.06267,-4.31067 -2.47733,-6.53733 -0.40534,-2.17467 -0.104,-4.46 -0.516,-6.66 -0.84934,-4.53734 -2.95334,-8.764 -5.04267,-12.796 2.112,3.388 2.18133,8.20666 1.02667,11.916 -0.772,2.47866 1.244,3.15866 1.61733,5.46666 0.44667,2.76667 -0.44,5.72134 -1.61467,8.16667 -0.57866,1.204 -0.71733,1.316 0.448,2.12267 1.08134,0.748 2.296,1.252 3.06267,2.37333 2.844,4.16133 -0.61067,8.932 -0.40533,13.264 0.12933,2.728 1.90533,4.52933 3.104,6.82667 1.27466,2.44666 2.592,4.872 3.94133,7.27866 1.86267,3.31867 3.65333,7.28934 6.26667,10.10934 1.31333,1.41466 2.57466,2.78799 4.392,3.44533 2.05466,0.744 4.04133,1.684 5.88933,2.852 2.83867,1.79333 5.11733,4.18533 8.04133,5.936 3.496,2.092 7.216,3.65866 10.568,6.01066 1.63067,1.144 3.02,2.46267 4.796,3.412 0.75467,0.40267 1.5,0.76 2.24534,1.09867"
       style="opacity:0.199997;fill:#000000;fill-opacity:1;fill-rule:nonzero;stroke:none;stroke-width:1.33333"
       id="path161013" />
    <path
       d="m 264.94159,28.288809 c -1.92,0 -3.83866,0.148 -5.74133,0.390667 -4.45733,0.568 -8.848,1.645333 -13.11867,3.029333 -4.92266,1.596 -9.70933,3.622667 -14.296,6.021333 -4.90666,2.565334 -9.59466,5.564 -13.936,9.004 -4.44666,3.522667 -8.53333,7.516 -12.04133,11.978667 -1.91333,2.434666 -3.76133,5.030666 -5.252,7.747999 -1.46266,2.669334 -2.45733,5.584 -4.13866,8.134667 -0.81334,1.233333 -1.78934,2.388 -2.28667,3.78 -0.388,1.084 -0.63067,2.517333 -0.45067,3.656 0.212,1.345333 0.64534,2.644 0.85067,3.989333 0.30533,1.988 0.12533,4.014666 -0.0547,6.017333 -0.35066,2.277333 -0.416,4.637333 -0.62266,6.933333 -0.204,2.263996 0.0253,4.450666 0.0253,6.718666 0.14533,2.70533 1.168,7.11467 4.49733,7.46 0.18267,-0.568 -0.212,-1.05333 -0.32666,-1.59467 -0.19067,-0.896 -0.12667,-1.92933 -0.18667,-2.84533 -0.21733,-3.34133 -0.60267,-6.53867 -0.36533,-9.897332 0.24133,-3.421334 0.71333,-6.836 0.656,-10.273334 -0.0253,-1.525333 -0.15467,-3.049333 -0.37467,-4.558666 -0.14267,-0.977333 -0.32267,-1.96 -0.25867,-2.945333 0.14267,-2.189334 2.01867,-3.472 2.944,-5.326667 0.80933,-1.621333 1.32933,-3.370666 2.14267,-4.990666 1.22266,-2.433334 2.63466,-4.769334 4.20666,-6.993334 3.096,-4.378666 6.8,-8.310666 10.87334,-11.793333 3.984,-3.405333 8.32133,-6.387999 12.86933,-8.987999 4.27467,-2.444 8.74,-4.553334 13.332,-6.329334 3.99067,-1.542666 8.084,-2.842666 12.25467,-3.810666 3.15866,-0.732 6.39333,-1.313333 9.64133,-1.436 0.216,-0.008 0.432,-0.01467 0.64933,-0.01733 17.328,-0.250667 48.52534,14.351999 62.78267,28.879999 3.352,3.414666 5.888,7.562666 7.924,11.869333 1.17066,2.477333 2.164,5.029333 3.064,7.617333 0.87466,2.518667 2.49866,4.302667 3.87066,6.568 0.964,1.593333 0.47067,3.281333 0.13867,5.044 -0.24667,1.314666 -0.308,2.485333 -0.96267,3.684 -0.26933,0.490666 -1.36666,2.909333 -1.78,3.077333 0.94934,-0.388 1.876,-0.872 2.71467,-1.528 -0.45733,1.085333 -0.98533,2.234667 -1.49867,3.278667 -0.544,1.105329 -1.35733,2.611999 -1.576,3.835999 0.62667,-0.73334 0.976,-1.45067 1.868,-1.91867 1.01067,3.31867 -1.90133,5.58933 -3.64666,7.85467 1.24,-0.156 2.388,-0.98534 3.56266,-1.25867 -0.79066,2.10133 -3.504,2.82267 -4.53333,4.72667 1.70533,-0.30267 3.532,-0.66134 5.332,-0.63334 -1.184,1.168 -2.788,1.676 -4.22133,2.448 -1.368,0.73734 -2.51867,1.72134 -3.95067,2.368 -2.80666,1.26667 -6.08133,1.9 -8.316,4.16934 -4.264,4.328 -8.09733,10.032 -10.312,15.69733 -0.632,1.62 -0.63866,3.316 -0.66266,5.10533 0.001,-0.112 1.15333,-1.536 1.288,-1.82133 0.40533,-0.85067 0.472,-1.812 1.19866,-2.49867 2.79334,2.73734 -0.0987,7.99067 -0.86,10.916 1.02667,-0.85333 2.10267,-1.49333 3.19467,-2.15866 2.83467,2.052 -0.64533,5.108 -1.15067,7.408 1.08934,-0.868 2.42534,-1.77067 3.48534,-0.57334 0.79466,0.896 1.14133,3.45334 0.79333,4.52267 -0.83333,2.556 -2.79867,0.616 -4.72133,0.65067 1.852,1.32533 4.04933,2.43466 5.61066,4.27733 1.78534,2.108 4.09867,5.35867 3.53467,8.22533 -0.51333,2.60534 -1.644,3.90667 -3.25467,5.69734 0.41467,-0.46134 1.45067,-0.73067 1.98667,-1.11734 0.53467,-0.38666 1.024,-0.83466 1.42667,-1.35866 0.66133,-0.85867 0.524,-1.796 0.98666,-2.66 0.51067,0.504 0.72534,1.61866 0.95067,2.30266 0.344,1.04267 0.63733,2.09867 0.96267,3.14667 1.20666,3.89867 -0.13734,7.87867 -0.75467,11.76667 0.65333,-1.42534 1.57733,-2.67734 1.936,-4.24534 0.75333,-3.29733 0.43467,-7.07066 -0.204,-10.372 -0.30267,-1.56533 -0.47867,-3.176 -0.86667,-4.72 -0.41866,-1.672 -0.99866,-3.16666 -1.716,-4.71866 -0.772,-1.66934 -2.38133,-2.73867 -2.99066,-4.53467 -1.50134,-4.43067 -2.64934,-9.15333 -4.15734,-13.672 -0.64266,-1.92667 -1.14933,-3.87467 -1.632,-5.86933 -0.44933,-1.85734 -1.98666,-4.15334 -1.63066,-6.096 0.26,-1.41867 1.60133,-2.97334 2.42666,-4.124 1.18934,-1.65734 2.48134,-3.248 3.80267,-4.80667 2.07867,-2.44933 5.72933,-3.66933 8.54133,-4.98933 2.99067,-1.40534 6.13067,-3.004 9.49067,-3.20134 5.02666,-0.296 2.41333,6.496 1.41733,9.116 -1.004,2.64134 -2.408,5.15867 -3.30133,7.83867 -0.70134,2.10667 0.15466,5.09467 0.40133,7.212 0.24133,2.05867 0.46933,3.97733 1.04133,5.928 0.7,2.384 0.404,5.044 1.45467,7.32267 0.912,1.98 2.17733,3.652 1.74667,6.012 -0.47734,2.608 -1.68134,5.01333 -2.876,7.356 -0.59734,1.172 -1.26267,2.33066 -1.77334,3.54533 -0.44666,1.06 -0.50933,2.16667 -0.86933,3.24 -0.356,1.05867 -0.93867,2.15333 -1.57333,3.08667 -0.55334,0.81333 -1.25334,1.43866 -1.50267,2.424 -0.25333,1.00533 0.1,2.04933 0.0253,3.06266 -0.124,1.672 -1.47466,3.14534 -2.29333,4.508 -0.91867,1.52934 -1.172,3.088 -1.56533,4.788 -0.59334,2.56 -1.664,4.536 -2.80667,6.808 -1.252,2.49067 -1.79466,5.57733 -2.71333,8.21733 -1.05333,3.02667 -2.05333,5.99867 -3.672,8.75867 0.0373,-1.43733 -0.26533,-2.91467 -1.13333,-4.128 0.007,1.18267 0.48533,2.11467 -0.0773,3.25733 -0.38933,0.792 -0.96133,1.26934 -1.16133,2.15334 -0.20133,0.88533 -0.15733,1.79066 -0.36933,2.69066 -1.16534,4.964 -5.62934,9.76 -10.30134,11.62267 -4.124,1.644 -8.77333,1.19733 -13.124,0.316 -2.21066,-0.44667 -4.68933,-0.82533 -6.72266,-1.82267 -0.77334,-0.38 -1.50667,-0.636 -2.30667,-0.96266 -0.94533,-0.38534 -1.66267,-1.16267 -2.608,-1.52267 -0.824,-0.31333 -1.71733,-0.15733 -2.56,-0.35733 -1.516,-0.35734 -2.448,-1.23334 -3.46933,-2.24934 -1.45467,-1.44533 -2.46534,-1.36 -4.29734,-1.94266 -1.69466,-0.53867 -1.624,-2.204 -2.3,-3.6 -0.98266,-2.02667 -3.096,-4.05734 -3.88133,-5.932 0.0813,0.956 0.988,5.82666 -0.24533,5.796 -1.01334,-0.024 -1.77467,-1.78934 -2.596,-2.39467 -0.90534,-0.66667 -1.36934,-1.04133 -2.53867,-0.68667 -0.86667,0.264 -0.424,0.56 -1.32533,-0.06 -1.23067,-0.84666 -2.13067,-2.604 -3.12934,-3.756 -1.35466,-1.564 -2.93466,-2.76 -4.568,-4.116 0.11067,1.59734 -0.83866,3.10267 -2.372,1.83067 -4.928,-4.088 -9.2,-9.456 -15.496,-11.604 -2.37466,-0.81066 -5.61066,-2.05733 -6.44666,-4.688 -0.17867,-0.56266 -0.1,-1.10933 -0.37867,-1.63866 -0.37867,-0.72 -1.31867,-1.37067 -1.864,-1.98134 -1.252,-1.404 -2.39067,-2.904 -3.452,-4.45466 -1.59867,-2.34 -3.06533,-4.772 -4.36933,-7.288 -1.112,-2.148 -3.024,-5.10934 -3.30934,-7.536 0.676,5.74133 2.57734,11.28533 5.31067,16.36533 2.37867,4.41867 5.47733,8.27333 8.772,12.01866 1.156,1.31467 2.452,2.13067 4.08133,2.86134 1.54534,0.692 3.18667,1.31866 4.45067,2.51466 1.37467,1.30267 2.20533,2.38534 3.91333,3.34667 1.78534,1.00533 3.58,1.81867 5.116,3.14667 1.63867,1.416 3.47734,2.60133 5.41867,3.556 1.532,0.75333 2.65733,1.936 4.076,2.84 1.62533,1.03466 3.28267,1.89466 5.056,2.36266 1.69333,0.44667 2.908,1.68267 4.35733,2.65867 1.53334,1.03333 3.20667,1.47867 4.804,2.32267 1.78534,0.944 3.16134,2.19466 4.65734,3.48266 1.58,1.36134 3.93333,2.09334 5.836,2.92534 4.39466,1.92266 8.93866,3.58533 13.68133,4.40666 7.452,1.28934 15.65733,0.268 21.55333,-4.46933 5.956,-4.784 8.64267,-12.43867 11.16667,-19.648 1.004,-2.868 1.648,-5.69867 2.46133,-8.616 0.37467,-1.34133 1.144,-2.26533 1.90667,-3.428 1.14666,-1.74533 1.06266,-3.712 1.584,-5.67466 0.40933,-1.54 1.3,-2.656 2.18533,-3.87867 0.87067,-1.20133 2.00533,-2.80667 2.132,-4.35067 0.132,-1.62133 -0.27333,-2.77733 0.672,-4.184 0.97733,-1.45466 2.09733,-2.86 2.488,-4.636 0.25733,-1.16666 -0.0173,-2.384 0.48933,-3.47466 0.50134,-1.07867 1.58534,-1.768 2.04667,-2.92267 1.808,-4.52267 4.86,-8.47467 3.04,-13.66133 -1.44267,-4.10934 -2.26,-8.40534 -3.62933,-12.53734 -1.08267,-3.264 -2.30934,-6.57333 -1.60667,-10.08666 0.872,-4.36 3.24667,-8.268 5.044,-12.36934 0.72267,-1.648 1.352,-3.32666 1.752,-5.07866 0.52267,-2.28267 -0.33333,-2.87734 -1.52533,-4.64934 -0.988,-1.468 -1.68267,-3.24933 -2.39067,-4.87066 -2.68,-6.13867 -0.144,-11.838666 0.48667,-18.113333 0.17733,-1.756 0.0187,-3.927999 -0.656,-5.523999 -0.356,-0.841334 -2.5,-3.758667 -4.35067,-4.964 -2.844,-8.334667 -6.72,-16.122667 -11.864,-22.077333 -14.31466,-16.574666 -43.24133,-29.085333 -66.22,-29.085333"
       style="fill:#000000;fill-opacity:1;fill-rule:nonzero;stroke:none;stroke-width:1.33333"
       id="path161023" />
    <path
       d="m 302.08839,199.45854 c 0,0 6.01867,1.74533 12.92934,1.32 6.91066,-0.42534 9.808,-1.91067 9.808,-1.91067 0,0 -4.23467,4.46133 -9.808,4.46133 -5.57334,0 -12.92934,-3.87066 -12.92934,-3.87066"
       style="fill:#000000;fill-opacity:1;fill-rule:nonzero;stroke:none;stroke-width:1.33333"
       id="path161027" />
    <path
       d="m 319.90973,179.31454 c -0.87734,0.52667 -1.56667,1.19067 -2.224,1.95467 -0.49467,0.57333 -0.976,0.96266 -1.77334,1.02533 -1.41333,0.11333 -2.89333,-0.864 -3.52133,-2.1 -0.224,-0.444 -0.20667,-0.90933 -0.46,-1.336 -0.24,-0.4 -0.676,-0.74 -1.03467,-1.028 -1.636,-1.308 -3.64133,-2.03733 -5.49866,-2.95867 -2.08134,-1.03333 -3.99334,-2.37066 -3.99334,-2.37066 1.244,0.86933 3.73734,-2.91067 4.28934,-3.62534 1.77333,-2.29733 3.62933,-4.05466 4.072,-7.09866 1.08,0.21866 2.05066,0.77733 3.20933,0.928 1.26533,0.164 2.47333,0.3 3.772,0.30666 1.70667,0.008 3.55733,-0.34 5.208,0.23467 4.052,1.40933 8.83867,6.376 6.26533,10.9 -1.71066,3.00533 -5.56666,3.52 -8.31066,5.168"
       style="opacity:0.199997;fill:#000000;fill-opacity:1;fill-rule:nonzero;stroke:none;stroke-width:1.33333"
       id="path161037" />
    <path
       d="m 310.48106,175.86321 c 0.0853,0.33066 0.19467,0.668 0.39867,0.984 0.56533,-0.94267 1.23333,-1.92934 2.14133,-2.57334 0.704,-0.49866 1.756,-0.40666 1.99867,-1.5 0.0787,-0.35733 -1.23867,-1.62666 -1.39067,-2.23733 -0.25333,-1.008 -0.0693,-2.10933 -0.0173,-3.13067 0.15066,-3.00266 -1.33067,-1.80266 -2.908,-0.22933 -1.176,1.172 -5.17734,4.04933 -3.62134,6.02667 0.668,0.848 1.62134,0.40666 2.44667,0.884 0.688,0.39866 0.76933,1.07466 0.952,1.776"
       style="fill:#000000;fill-opacity:1;fill-rule:nonzero;stroke:none;stroke-width:1.33333"
       id="path161047" />
    <path
       d="m 321.19373,173.49294 c -0.14934,0.28533 -0.25334,0.568 -0.288,0.84533 -0.17734,1.38534 1.07066,2.45467 0.348,3.968 2.97733,-2.76266 4.91733,-7.232 2.608,-11.032 1.35866,2.23467 -1.67467,4.31867 -2.668,6.21867"
       style="fill:#000000;fill-opacity:1;fill-rule:nonzero;stroke:none;stroke-width:1.33333"
       id="path161051" />
    <path
       d="m 305.79026,137.52601 c -0.12667,-1.01867 -0.11333,-2.184 -0.412,-3.16667 -0.15067,-0.49333 -0.31867,-1.328 -0.78,-1.66133 -0.796,-0.57334 -1.672,0.82266 -1.976,1.34666 -0.55067,0.95467 -0.97467,1.97867 -1.53733,2.92667 0,0 1.70933,-1.39067 2.30533,-0.596 0.59467,0.79333 3.45067,9.62667 3.45067,9.62667 -0.06,-0.48934 -0.12134,-0.97734 -0.18134,-1.46534 -0.28933,-2.33733 -0.58,-4.67333 -0.86933,-7.01066"
       style="fill:#000000;fill-opacity:1;fill-rule:nonzero;stroke:none;stroke-width:1.33333"
       id="path161055" />
    <path
       d="m 337.96372,116.87614 c -1.05866,0.576 -2.00533,1.14133 -2.71066,1.55067 -3.70667,2.14933 -7.524,4.26133 -10.71333,7.15733 -2.688,2.44133 -5.844,7.06267 -5.54667,10.88533 0.18,2.29734 1.40933,4.75067 2.00667,6.996 0.48666,1.83067 1.35466,3.54134 1.85066,5.35734 0.44934,1.64933 1.26934,3.06133 1.84134,4.676 0.56666,1.596 0.748,3.27733 1.18266,4.89333 0.48934,1.82133 1.656,2.90267 3.04534,4.02667 1.11333,0.9 2.56533,1.688 3.51733,2.74666 0.92133,1.02267 1.79066,2.50934 2.27466,3.79067 0.63067,1.67067 1.24267,3.34533 1.404,5.13467 0.25734,2.84133 -0.204,5.83333 -0.60533,8.63333 -0.232,1.62133 -0.95467,3.076 -1.57467,4.58667 -0.556,1.35333 -1.07066,2.816 -1.41333,4.21733 1.38267,-1.93867 1.97333,-4.87467 2.69333,-7.16267 0.91067,-2.89733 2.064,-5.53733 3.21734,-8.34133 0.848,-2.06133 0.94533,-4.94267 0.58666,-7.11867 -0.34666,-2.10133 -1.46933,-3.31466 -3.092,-4.61733 -2.15466,-1.72933 -4.74266,-3.07067 -6.75199,-4.97467 -0.84267,-0.79866 -1.21734,-1.904 -1.61467,-2.96533 -1.09333,-2.91333 -2.096,-5.89867 -3.168,-8.81733 -0.34933,-0.948 -0.73333,-1.87334 -1.012,-2.848 0.188,0.32933 0.38533,0.648 0.576,0.95466 0.68667,1.09867 1.07067,2.18134 1.668,3.31067 1.31733,2.49067 2.96267,4.872 5.104,6.72533 5.62,4.86534 8.22133,5.116 13.50533,0 l -1.59333,-19.46 c 0,0 -0.252,5.704 -4.86534,7.04534 -4.61333,1.34266 -8.13599,1.25866 -10.40133,0.92266 -0.984,-0.14533 -1.896,-0.552 -2.76666,-1.016 -0.60667,-0.32533 -1.15067,-0.84266 -1.74667,-1.19333 -0.0573,-0.0347 -0.11867,-0.06 -0.17867,-0.0907 -0.48666,-1.916 -0.85333,-3.89333 0.39067,-5.636 0.12933,-0.18266 0.28933,-0.35733 0.472,-0.52666 0.76667,-0.71467 1.91067,-1.31467 2.708,-1.812 2.40667,-1.50134 5.076,-2.72134 7.8,-3.52267 2.156,-0.63467 5.44,-1.036 6.90933,1.17867 0.70533,1.06533 1.46667,2.688 1.52267,3.97333 -0.009,-0.23333 1.37733,-2.536 1.572,-3.01333 0.47733,-1.17467 1.23066,-2.11467 1.78,-3.228 1.49333,-3.028 1.68533,-7.18267 1.88266,-10.50534 0.39334,-6.62533 -5.56,-4.19466 -9.756,-1.91333"
       style="opacity:0.199997;fill:#000000;fill-opacity:1;fill-rule:nonzero;stroke:none;stroke-width:1.33333"
       id="path161065" />
    <path
       d="m 298.84426,140.70641 c -0.36133,0.36533 -0.636,0.832 -1.06933,1.096 -0.34,0.20666 -0.70134,0.38 -1.05734,0.55733 -4.18533,2.092 -7.52133,3.25733 -12.316,2.5 -2.62933,-0.416 -5.18533,-1.17467 -7.78666,-1.732 -2.86134,-0.61333 -5.15467,-0.51467 -6.63467,-3.29067 -0.976,0.74667 -2.53867,1.11467 -3.724,1.59734 -1.34533,0.54666 -2.69867,1.468 -4.25733,1.32 1.25333,-0.91467 2.1,-2.20667 2.90266,-3.46534 1.88534,-2.95866 3.056,-6.524 5.87334,-8.80266 2.71466,-2.196 7.684,-1.85467 10.96933,-1.65867 2.896,0.17333 5.81867,0.58267 8.59733,1.43867 2.07334,0.64 7.00667,4.42933 7.648,5.06933 0.284,0.28267 0.27734,0.744 0.40667,1.096 0.16667,0.45067 0.44533,0.85733 0.57333,1.32933 0.104,0.38 0.30934,0.75067 0.39467,1.124 0.18133,0.79467 0.0373,1.25734 -0.52,1.82134 m 8.06667,-1.292 c 3.38133,-0.60534 3.572,4.16933 6.37066,4.76266 3.47734,0.73467 4.60934,-7.61466 5.416,-9.59733 0.872,-2.13867 2.01467,-4.212 3.32267,-6.08667 1.33467,-1.91466 3.70133,-4.31066 4.34933,-6.41333 -1.736,0.72 -6.396,4.212 -8.292,2.87733 -1.372,-0.964 -0.22933,-6.97466 -0.18933,-8.592 -2.464,1.45067 -4.92533,3.11334 -7.792,3.59734 -3.47467,0.58533 -6.84267,-2.94534 -8.876,-5.44267 -0.25067,1.49867 1.948,4.488 0.37467,5.444 -1.49467,0.908 -5.07067,-2.02267 -6.22267,-2.75733 1.06933,1.32666 2.60267,2.12533 3.90133,3.208 1.02267,0.852 1.70267,2.6 2.89334,3.09466 -0.164,1.88 -1.67734,1.71467 -3.108,1.64534 -8.00667,-0.38667 -13.34934,-7.456 -21.236,-7.92534 -3.896,-0.232 -7.34,-0.136 -10.57867,2.09467 2.48933,-0.0587 4.536,-0.001 6.58133,1.32533 -1.59066,0.56667 -3.41866,0.704 -4.77333,1.616 -0.42933,0.28934 -1.08267,0.79334 -1.27467,1.25067 -0.42933,1.02 0.11334,0.70933 0.088,1.53467 -0.0333,1.028 0.79867,0.684 -0.47866,1.212 -0.52267,0.216 -1.64534,-0.33067 -2.08934,0.0347 -0.84533,0.69734 0.416,2.34134 -1.00533,3.38267 -0.588,0.43067 -1.54267,0.19067 -2.12933,0.61467 -1.1,0.79466 -0.59067,1.27466 -1.01734,2.42666 -0.36933,0.99734 -0.91066,1.072 -1.47466,1.764 -0.34534,0.42267 -0.34267,0.79467 -0.53334,1.35467 -0.34533,1.02 -0.98666,1.45333 -1.73866,2.17733 -0.49734,0.47734 -0.568,0.80134 -0.90267,1.324 -1.032,1.608 -3.63867,2.844 -2.85333,5.14 0.368,1.07467 1.63866,1.532 2.05466,2.55067 0.236,0.57467 -0.068,1.44 0.18,1.948 0.39467,0.804 1.55734,0.69067 2.33067,0.86 1.04133,0.22933 2.02533,0.49733 1.90267,1.74267 -0.0547,0.544 -0.708,0.796 -0.21867,1.29733 0.964,0.98667 3.58533,-0.80267 3.9,1.49467 0.22267,1.62 -2.05333,2.76 -2.91467,3.892 1.91467,0.316 4.35334,-0.76934 6.04934,-1.452 0.15466,0.52666 0.19333,1.10133 -0.104,1.56266 1.56666,-0.23866 3.08933,-0.108 4.64666,-0.54666 1.344,-0.37734 2.95334,-0.39067 4.19334,-0.824 1.024,0.95066 4.52133,-0.564 5.52266,-0.97867 2.20667,-0.91333 4.27067,-2.13067 6.356,-3.284 2.59067,-1.43067 4.52534,-3.63067 7.12134,-4.99867 -0.29334,3.24534 -2.92134,5.996 -4.91867,8.376 -1.53867,1.83467 -2.92933,4.18934 -4.81333,5.68934 -1.46267,1.16533 -3.74934,1.83466 -5.432,2.67466 -0.76,0.38 -2,0.944 -2.34934,1.74934 0.90267,0.56533 2.39867,0.46933 3.336,0.0173 0.692,2.228 -2.52933,0.99867 -2.48933,3.02667 -1.04133,0.48533 -2.536,1.144 -1.092,1.972 1.412,0.80933 3.15867,-0.57734 4.232,-1.45467 1.06267,2.14667 -0.73333,1.65067 -1.13733,3.17467 -0.0907,0.34266 0.0987,0.59333 -0.0173,0.90133 -0.164,0.43867 -0.74533,0.83467 -1.08266,1.15733 -0.34134,0.328 -0.80934,0.484 -0.696,1.03067 1.43866,-0.028 2.14,1.184 1.41466,2.564 -0.56133,1.068 -1.63066,1.21867 -1.42,2.67867 0.48134,0.0253 1.08534,-0.276 1.32,-0.66534 0.752,0.54934 0.06,0.90134 -0.0733,1.55067 -0.17867,0.868 0.49067,0.864 0.79733,1.55867 0.31734,0.716 -0.0987,1.20666 -0.38666,1.88533 -0.44667,1.048 -0.24534,1.31067 0.0813,2.27733 0.26533,0.78667 -0.0453,1.30534 -0.0107,2.2 0.036,0.92 0.27734,0.992 -0.11866,1.81867 -0.66267,1.38267 0.028,1.82933 0.196,3.27467 0.0907,0.772 -0.14,0.848 0.46666,1.556 0.636,0.744 1.516,1.79066 2.36667,2.23066 0.87067,0.45067 2.332,0.79867 2.98,-0.184 0.59867,-0.908 -0.988,-1.63866 -1.70933,-2.27466 -1.01734,-0.89734 -1.99867,-1.44934 -2.67734,-2.68 -0.26666,-0.48534 -0.62933,-1.172 0.064,-1.47867 0.21467,-0.0947 0.54,-0.004 0.76934,-0.032 0.364,-0.0467 0.69866,-0.21333 1.072,-0.21467 0.352,-0.001 0.72533,0.12267 1.01866,0.336 0.252,0.18267 0.56667,0.82 0.88534,0.76267 0.64,-0.116 -0.0347,-1.25333 -0.11334,-1.616 -0.19733,-0.896 0.136,-2.05467 0.25334,-2.984 0.24933,-1.99733 0.332,-4.00533 0.76133,-5.98667 0.56,-2.58133 1.852,-5.10133 3.484,-7.17733 0.61867,-0.78667 0.93467,-1.624 1.53067,-2.444 1.25733,-1.732 0.66666,-3.52 0.76666,-5.46533 0.0573,-1.10934 0.007,-2.26267 -0.18933,-3.35467 -0.0853,-0.47333 -0.39867,-1.10533 -0.36667,-1.58 0.0187,-0.29333 -0.0853,-0.52533 0.14267,-0.776 0.61067,-0.67067 1.68667,0.148 2.352,-0.73067 0.65067,-0.86 0.168,-2.616 0.82133,-3.35066 0.47867,-0.53734 1.75867,-0.29734 2.19467,-0.78 0.68133,-0.752 -0.0893,-2.00267 0.35067,-2.66934 0.576,-0.872 1.27333,-0.116 1.06,-1.49066 -0.0467,-0.30134 -0.48534,-0.86134 -0.376,-1.17334 0.056,-0.16 0.33333,-0.116 0.4,-0.24133 0.0773,-0.14533 0.37333,-0.436 0.496,-0.59733 0.492,-0.64134 0.98933,-1.312 1.04533,-2.14667 0.0387,-0.58667 2.28,-2.85733 2.872,-2.28267 0.284,0.27734 0.0427,1.56934 0.052,1.928 0.0547,2.068 -0.244,3.492 -0.77867,5.46134 -0.356,1.31333 1.012,1.59466 -0.12133,2.816 -0.82267,0.88533 -0.18933,1.72666 -0.68133,2.70933 -0.63467,1.268 -2.34267,1.95867 -2.80534,3.26933 -0.27333,0.776 -0.26133,1.58267 -0.61733,2.384 -0.47067,1.06134 -1.172,1.97067 -1.88,2.88667 -0.692,0.89333 -1.23733,2.01867 -2.028,2.79467 0.84133,-0.612 1.90533,-0.92 2.69467,-1.61867 0.588,-0.52133 1.124,-1.12533 1.69333,-1.67333 0.67867,-0.652 1.57733,-1.232 1.98533,-2.05734 0.356,-0.71866 0.32667,-1.68 0.87334,-2.292 0.572,-0.64 1.59866,-0.816 2.38933,-0.98133 1.21067,-0.252 1.764,-1.79867 3.024,-1.968 0.76267,-0.10267 1.50667,0.24133 2.26533,-0.1 0.80934,-0.364 1.28,-1.236 2.12534,-1.576 0.29466,-0.11867 3.28266,-0.69333 3.37866,-0.46667 -0.58933,-1.38933 -3.67866,-3.16266 -3.28266,-4.76 1.49066,-0.97866 4.06533,0.744 5.612,1.00534 -1.47734,-2.37067 -7.76267,-3.084 -7.65867,-6.26134 2.012,-0.26533 3.92933,0.92534 5.90933,0.86 -1.62,-1.58266 -4.06133,-2.64533 -5.336,-4.54666 -0.42,-0.628 -2.17466,-4.85734 -2.62666,-4.776"
       style="opacity:0.199997;fill:#000000;fill-opacity:1;fill-rule:nonzero;stroke:none;stroke-width:1.33333"
       id="path161093" />
    <path
       d="m 336.57466,142.37027 c 0.58266,-0.172 1,-0.70266 1,-0.70266 l 2.37866,-2.60134 -0.296,-4.59866 -6.84799,-0.87334 c 0,0 -6.248,1.47334 -7.53067,2.728 -1.28267,1.256 -1.90933,4.01067 -1.93733,4.09334 0,0 0.13733,0.84533 0.65466,0.95466 0.51867,0.10934 3.356,1.91067 4.36667,1.856 0.724,-0.04 5.63733,-0.0267 6.46666,-0.21733 0.83067,-0.192 1.74534,-0.63867 1.74534,-0.63867"
       style="fill:#ffffff;fill-opacity:1;fill-rule:nonzero;stroke:none;stroke-width:1.33333"
       id="path161103" />
    <path
       d="m 271.55893,136.25787 4.4,-2.052 14.12,0.25067 5.17733,2.78533 2.756,2.964 -1.11733,1.39867 -3.27867,0.028 c 0,0 -2.12667,1.604 -4.396,1.428 -2.268,-0.17733 -13.05067,-1.91333 -13.05067,-1.91333 l -4.86533,-4.38267 z"
       style="fill:#ffffff;fill-opacity:1;fill-rule:nonzero;stroke:none;stroke-width:1.33333"
       id="path161107" />
    <path
       d="m 280.03306,134.13601 c -0.336,0.76133 -0.52667,1.60133 -0.52667,2.48666 0,2.06267 1.04134,4.08534 2.60134,5.208 l 5.83866,0.54667 c 2.31334,-0.896 3.956,-3.132 3.956,-5.75467 0,-0.77333 -0.148,-1.50933 -0.408,-2.192 -2.864,-0.88666 -8.16933,-0.59733 -11.46133,-0.29466"
       style="fill:#754324;fill-opacity:1;fill-rule:nonzero;stroke:none;stroke-width:1.33333"
       id="path161111" />
    <path
       d="m 288.34186,136.62241 c 0,1.452 -1.18133,2.628 -2.63733,2.628 -1.456,0 -2.63734,-1.176 -2.63734,-2.628 0,-1.452 1.18134,-2.628 2.63734,-2.628 1.456,0 2.63733,1.176 2.63733,2.628"
       style="fill:#000000;fill-opacity:1;fill-rule:nonzero;stroke:none;stroke-width:1.33333"
       id="path161115" />
    <path
       d="m 282.26573,141.41801 5.61733,0.52533 c 2.18533,-0.888 3.592,-2.96533 3.592,-5.32133 0,-0.62267 -0.104,-1.24267 -0.30933,-1.844 -2.81467,-0.78534 -7.868,-0.504 -10.83734,-0.24134 -0.26266,0.668 -0.39466,1.368 -0.39466,2.08534 0,1.856 0.912,3.72533 2.332,4.796 m 5.74,1.392 -6.05334,-0.56667 -0.0947,-0.068 c -1.688,-1.21333 -2.77867,-3.39333 -2.77867,-5.55333 0,-0.91867 0.18933,-1.81334 0.56267,-2.65734 l 0.10266,-0.22933 0.24934,-0.0227 c 3.73866,-0.34266 8.788,-0.56666 11.62666,0.312 l 0.19867,0.0613 0.0747,0.19333 c 0.28933,0.75867 0.436,1.548 0.436,2.34267 0,2.74266 -1.66,5.15733 -4.22934,6.152 z"
       style="fill:#000000;fill-opacity:1;fill-rule:nonzero;stroke:none;stroke-width:1.33333"
       id="path161119" />
    <path
       d="m 284.85266,135.94441 c 0,0.796 -0.648,1.44133 -1.44667,1.44133 -0.79866,0 -1.44666,-0.64533 -1.44666,-1.44133 0,-0.796 0.648,-1.44134 1.44666,-1.44134 0.79867,0 1.44667,0.64534 1.44667,1.44134"
       style="fill:#ffffff;fill-opacity:1;fill-rule:nonzero;stroke:none;stroke-width:1.33333"
       id="path161123" />
    <path
       d="m 298.08799,140.49361 c 0.0387,-0.18534 0.008,-0.388 -0.11866,-0.608 -0.184,-0.32 -0.47067,-0.55867 -0.64934,-0.884 -0.17066,-0.30934 -0.41733,-0.59734 -0.63066,-0.87867 -0.51334,-0.67467 -1.07067,-1.31733 -1.68,-1.908 -1.312,-1.26933 -2.932,-2.352 -4.78,-2.58533 -2.56267,-0.32267 -5.12,-0.716 -7.69734,-0.908 -2.02266,-0.15067 -4.03333,0.0587 -6.05733,0.0533 -1.232,-0.004 -2.368,0.22 -3.53733,0.58933 -1.40267,0.44134 -5.06,1.59734 -5.10267,3.432 1.07467,-0.56266 2.452,-1.31066 3.65067,-1.492 -0.736,1.33867 -1.89734,2.43334 -3.056,3.404 -1.124,0.94267 -1.91867,2.172 -3.06667,3.13467 2.84667,0.11867 4.74667,-2.87067 7.21867,-3.45067 0.79733,1.97067 2.96933,1.50267 4.10933,2.99734 -0.73867,-0.96934 -3.55333,-3.46534 -2.348,-4.58934 0.496,-0.46266 1.16267,-0.75733 1.78,-1.04666 2.512,-1.172 4.82533,-0.716 7.48933,-0.55467 2.18934,0.13067 4.44934,0.204 6.60534,0.64 1.28666,0.26133 2.51466,1.06 3.62133,1.72933 0.67733,0.41067 1.344,0.84 2.00267,1.28 0.588,0.392 1.28133,0.76667 1.69733,1.356 0.20667,0.292 0.068,0.61734 0.064,0.95734 0.25067,-0.196 0.432,-0.41734 0.48533,-0.668"
       style="fill:#000000;fill-opacity:1;fill-rule:nonzero;stroke:none;stroke-width:1.33333"
       id="path161127" />
    <path
       d="m 299.48266,136.64734 c -0.39867,-0.61867 -1.05867,-1.07733 -1.58133,-1.61067 -0.59334,-0.60533 -1.20534,-1.192 -1.84134,-1.752 -1.26533,-1.11333 -2.696,-2.29066 -4.33066,-2.804 -3.284,-1.02933 -12.49334,-2.21333 -14.472,-1.47066 0,0 11.188,0.44133 13.644,2.44666 0.27333,0.22267 0.552,0.44134 0.83066,0.656 1.47067,1.13467 2.984,2.22 4.53334,3.244 0.772,0.51067 1.78533,0.788 2.196,1.692 0.144,0.32 0.22266,0.66534 0.3,1.00667 0.13066,0.58533 0.46666,1.37333 0.36666,1.968 -0.064,0.37867 -0.41333,0.54133 -0.64933,0.8 -0.12533,0.136 -0.61333,0.56533 -0.57467,0.72933 0.04,0.168 0.396,0.244 0.556,0.232 0.29467,-0.024 0.87334,-0.348 1.08667,-0.58933 0.85333,-0.964 0.36267,-2.204 0.25333,-3.33467 -0.0453,-0.464 -0.0413,-0.77333 -0.31733,-1.21333"
       style="fill:#000000;fill-opacity:1;fill-rule:nonzero;stroke:none;stroke-width:1.33333"
       id="path161131" />
    <path
       d="m 324.17239,135.31521 c 0,0 2.03067,-4.86934 12.02267,-5.352 0,0 -4.952,1.49066 -6.836,2.32266 -1.88533,0.83334 -5.18667,3.02934 -5.18667,3.02934"
       style="fill:#000000;fill-opacity:1;fill-rule:nonzero;stroke:none;stroke-width:1.33333"
       id="path161135" />
    <path
       d="m 332.00839,134.14254 c -1.08133,0.468 -3.02133,0.45867 -3.78133,0.86667 -1.38533,0.74266 -1.956,0.93733 -3.19067,3.08933 0.25734,2.372 1.58,4.07067 3.32934,4.8 l 6.01333,-0.22133 c 1.536,-1.188 2.44,-3.32267 2.44,-5.508 0,-0.93734 -0.23334,-2.456 -0.564,-3.23467 -1.21334,0.001 -2.70667,0.19867 -4.24667,0.208"
       style="fill:#754324;fill-opacity:1;fill-rule:nonzero;stroke:none;stroke-width:1.33333"
       id="path161139" />
    <path
       d="m 334.12106,137.87521 c 0,1.53733 -1.24667,2.784 -2.784,2.784 -1.53733,0 -2.78267,-1.24667 -2.78267,-2.784 0,-1.53734 1.24534,-2.784 2.78267,-2.784 1.53733,0 2.784,1.24666 2.784,2.784"
       style="fill:#000000;fill-opacity:1;fill-rule:nonzero;stroke:none;stroke-width:1.33333"
       id="path161143" />
    <path
       d="m 330.63346,135.95867 c 0,0.84267 -0.684,1.52667 -1.52667,1.52667 -0.84266,0 -1.52666,-0.684 -1.52666,-1.52667 0,-0.84266 0.684,-1.52666 1.52666,-1.52666 0.84267,0 1.52667,0.684 1.52667,1.52666"
       style="fill:#ffffff;fill-opacity:1;fill-rule:nonzero;stroke:none;stroke-width:1.33333"
       id="path161147" />
    <path
       d="m 325.48533,138.19081 c 0.256,1.97733 1.35333,3.56 2.96133,4.268 l 5.772,-0.21067 c 1.33866,-1.10133 2.16533,-3.032 2.16533,-5.07867 0,-0.76666 -0.176,-2.10266 -0.43467,-2.79333 -1.36533,0.005 -5.03066,0.192 -5.72666,0.304 -0.65867,0.108 -1.47333,0.544 -1.78933,0.712 l -0.268,0.144 c -1.14934,0.608 -1.63867,0.868 -2.68,2.65467 m 2.80133,5.14533 -0.088,-0.036 c -1.992,-0.82933 -3.33467,-2.756 -3.596,-5.15467 l -0.0147,-0.14133 0.0707,-0.12267 c 1.21467,-2.11733 1.884,-2.472 3.09867,-3.11466 l 0.26533,-0.14134 c 0.46,-0.24666 1.19467,-0.328 1.968,-0.45333 0.67867,-0.11067 1.38133,-0.22533 1.86133,-0.432 l 0.0813,-0.036 h 0.0893 c 1.32266,-0.009 2.76133,-0.208 4.27466,-0.20933 h 0.25867 l 0.1,0.23333 c 0.364,0.85867 0.59867,2.47333 0.59867,3.44133 0,2.36534 -1,4.608 -2.60934,5.852 l -0.11066,0.0853 z"
       style="fill:#000000;fill-opacity:1;fill-rule:nonzero;stroke:none;stroke-width:1.33333"
       id="path161151" />
    <path
       d="m 336.27572,134.26734 c 2.832,0.35467 2.34134,1.436 2.35067,3.69867 0.009,2.264 -2.30667,4.468 -2.30667,4.468 2.052,-0.42934 4.30667,-2.02267 4.76934,-4.17334 0.15066,-0.7 -0.0413,-1.60666 0.268,-2.268 1.17066,0.15734 1.33466,0.82667 2.20266,1.47867 -0.36933,-1.19867 -0.62266,-2.632 -1.62666,-3.564 -2.172,-2.02 -6.608,-1.328 -9.256,-1.18 -2.37067,0.13333 -6.172,2.16933 -6.95467,2.70267 -0.78133,0.532 -2.168,4.032 -2.168,4.032 0,0 2.95334,-3.628 4.352,-4.196 1.39734,-0.56667 4.916,-1.432 8.36933,-0.99867"
       style="fill:#000000;fill-opacity:1;fill-rule:nonzero;stroke:none;stroke-width:1.33333"
       id="path161155" />
    <path
       d="m 297.55399,144.20921 c -2.38933,1.696 -4.448,3.928 -6.89733,5.46533 -2.256,1.41333 -4.84933,2.5 -7.21333,3.76133 -2.172,1.16 -4.51734,1.696 -6.72534,2.79734 0.009,1.12666 1.56267,2.09466 2.604,2.13066 1.47734,0.0507 3.468,-1.40933 4.66934,-2.152 4.09333,-2.528 8.892,-5.224 12.10666,-8.88 0.888,-1.01066 1.66134,-2.22933 2.04534,-3.52533 -0.19867,0.13067 -0.39467,0.26533 -0.58934,0.40267"
       style="fill:#000000;fill-opacity:1;fill-rule:nonzero;stroke:none;stroke-width:1.33333"
       id="path161159" />
    <path
       d="m 323.45933,136.57401 c 0,0 -1.04667,2.26666 -0.69734,3.444 0.348,1.17733 0.91467,1.91733 0.74134,1.22 -0.17467,-0.69734 -0.13067,-2.87734 0.21733,-3.96667 0.34933,-1.08933 0.21867,-1.56933 -0.26133,-0.69733"
       style="fill:#000000;fill-opacity:1;fill-rule:nonzero;stroke:none;stroke-width:1.33333"
       id="path161163" />
    <path
       d="m 203.90093,159.93107 c 0.57733,1.13334 1.188,2.24934 1.93733,3.276 1.696,2.32267 3.87067,3.368 6.48133,4.33467 1.35734,0.50267 2.51467,1.568 3.68667,2.38533 0.616,0.42934 1.28667,0.88667 1.88267,1.35334 0.176,-1.312 -1.62667,-3.188 -2.512,-3.99867 -1.19734,-1.09733 -2.75467,-1.82933 -4.13067,-2.64267 -4.14267,-2.448 -6.404,-6.968 -7.53333,-10.35866 -1.24667,-3.73867 -4.55067,-7.12267 -6.688,-10.376 -3.22267,-4.912 -6.39067,-10.12267 -7.79333,-15.868 -0.72267,-2.956 -1.10534,-5.99467 -1.144,-9.03734 -0.0373,-2.99066 0.60133,-5.93866 0.29466,-8.91333 -0.0867,-0.83333 -0.86933,-2.536 0.028,-3.132 0.944,-0.62667 2.60934,0.53733 3.19334,1.244 0.43866,0.53067 0.70133,1.052 1.21466,1.556 0.43467,0.428 1.11334,1.54533 1.652,1.76933 -1.26,-0.52533 -2.69333,-0.624 -4.01466,-0.27733 1.76133,-0.46267 4.74266,2.23733 5.95866,3.212 1.85467,1.48533 3.556,2.88933 5.73067,3.948 2.14,1.04133 4.71333,1.792 6.50133,3.39067 2.092,1.87066 3.09333,4.80266 5.388,6.42 -0.0853,-0.06 -10e-4,-1.85334 -0.0347,-2.096 -0.104,-0.764 -0.30933,-1.51067 -0.58533,-2.22934 -0.53333,-1.38933 -1.336,-2.79066 -2.34267,-3.87866 -1.89066,-2.044 -4.25066,-3.69067 -6.54,-5.24934 -2.02,-1.37466 -4.08933,-2.67733 -6.07733,-4.1 -0.992,-0.70933 -1.964,-1.44933 -2.89333,-2.24 -0.78667,-0.66933 -1.45467,-1.52 -2.37733,-2.00266 -0.94667,-0.49467 -1.97467,-0.79734 -2.97467,-1.17067 -1.05067,-0.39333 -2.48,-1.26533 -3.6,-0.88133 -2.23867,0.76933 -1.54933,3.192 -0.83467,4.94666 0.81867,2.012 0.16267,4.276 -0.0787,6.332 -0.296,2.524 -0.392,5.07067 -0.28267,7.60934 0.212,4.92266 1.26133,9.98 4.17067,13.956 1.15733,1.58266 2.53866,2.94933 3.66,4.55733 1.23333,1.76667 2.42266,3.564 3.568,5.38933 2.292,3.64934 4.40666,7.40934 6.33466,11.264 0.25067,0.50134 0.5,1.00667 0.75467,1.508"
       style="fill:#000000;fill-opacity:1;fill-rule:nonzero;stroke:none;stroke-width:1.33333"
       id="path161167" />
    <path
       d="m 202.76133,123.42494 c -0.67334,-0.492 -1.35067,-0.98 -2.00934,-1.492 -2.27199,-1.77067 -4.02399,-4.58133 -6.47999,-5.97733 -0.724,-0.412 -4.54134,-2.63467 -4.90267,-0.92 -0.96667,4.60266 -0.25467,9.43066 1.26267,13.88266 1.72266,5.05067 4.244,10.584 7.7,14.67467 1.02133,1.208 1.77999,1.32267 3.36799,1.45467 2.99467,0.24933 4.86667,2.12133 5.616,4.86666 0,0 0.49867,-5.616 3.36934,-7.36266 0,0 0.624,-2.12134 -0.5,-7.36267 -0.764,-3.56667 -1.952,-7.11333 -4.716,-9.62 -0.85334,-0.77467 -1.77734,-1.464 -2.708,-2.144"
       style="opacity:0.199997;fill:#000000;fill-opacity:1;fill-rule:nonzero;stroke:none;stroke-width:1.33333"
       id="path161177" />
    <path
       d="m 200.75066,123.88907 c -1.46266,-0.988 -2.92533,-2.06133 -3.80133,-3.372 -0.90533,-1.356 -1.34533,-2.152 -2.78933,-3.04266 -1.444,-0.892 -3.32534,-1.67067 -4.35067,-3.076 1.376,-0.388 3.09867,-0.0933 4.292,0.58133 1.676,0.948 3.14533,2.31067 4.404,3.772 1.41333,1.64267 2.81466,2.42267 4.67733,3.51733 2.08,1.22267 4.44267,2.5 5.64133,4.69734 1.028,1.884 1.08267,4.15466 1.596,6.2 0.552,2.196 3.89867,8.64533 1.204,10.37866 -0.94,0.604 -1.54133,1.53867 -2.308,2.316 -0.79466,0.804 -1.68666,1.69334 -1.70133,2.90667 -0.016,1.21467 1.16667,2.648 1.86,3.59867 0.93333,1.28 3.876,3.08266 3.46267,4.94266 -0.11867,0.53067 -0.712,0.86534 -0.772,1.30934 -0.0693,0.52133 0.37733,0.94133 0.68933,1.33066 0.824,1.024 1.77333,2.43067 2.74,3.33467 -1.49333,-1.356 -3.304,-2.24933 -4.83867,-3.496 -0.69333,-0.564 -2.208,-1.80933 -1.936,-2.83467 0.64934,-0.23866 1.41334,0.076 1.95467,-0.50666 -0.28533,-0.63334 -0.95467,-1.08267 -1.46133,-1.568 -0.98534,-0.94534 -1.86267,-1.984 -2.732,-3.04 -0.672,-0.816 -1.41867,-1.51334 -2.09334,-2.27334 -0.744,-0.84133 -2.524,-2.276 -2.124,-3.61733 0.41734,-1.39867 2.188,-1.028 3.16667,-0.88133 3.3,0.49333 3.872,-2.56667 3.712,-5.172 -0.1,-1.63067 -0.636,-3.248 -0.67067,-4.868 -0.0427,-1.948 -0.49466,-3.45734 -1.62,-5.12134 -1.10266,-1.62666 -2.036,-3.032 -3.61466,-4.23466 -0.768,-0.58534 -1.67734,-1.16667 -2.58667,-1.78134"
       style="fill:#000000;fill-opacity:1;fill-rule:nonzero;stroke:none;stroke-width:1.33333"
       id="path161187" />
    <path
       d="m 201.69653,80.443341 c 0,0 0.876,2.042667 4.81466,2.334667 3.94,0.292 15.32134,-10.36 39.25067,-0.876 2.45867,0.974667 4.86,2.096 7.19867,3.330667 4.308,2.275999 8.40666,4.937333 12.32,7.837333 1.85866,1.378666 3.67733,2.812 5.46,4.289333 0.85333,0.708 1.69866,1.426667 2.53733,2.153333 0.36,0.313334 2.11467,1.333336 1.46533,1.839996 -0.30933,0.24 -1.37466,0.092 -1.78,0.20934 0.608,0.39466 1.372,0.696 2.03867,1.05866 3.188,1.736 5.86,4.212 8.60133,6.58134 0.36,0.31066 0.75067,0.468 0.49334,0.98266 -0.11334,0.22667 -0.65067,0.5 -0.904,0.52934 -1.08667,0.12666 -2.18534,-0.752 -3.31067,-0.58667 0.87733,0.424 1.80933,0.69467 2.65867,1.17467 0.74933,0.424 1.47866,0.86666 2.20666,1.34 0.988,0.64266 2.09867,1.124 3.17334,1.63466 1.22666,0.58267 2.296,1.496 3.512,2.06134 4.08533,1.89733 12.04133,8.26533 7.004,8.46266 -5.03734,0.19734 -7.73334,-2.91866 -11.08934,-3.21066 0,0 8.9,3.648 11.08934,4.66933 1.132,0.528 4.908,0.732 5.352,-0.64667 0.44933,-1.4 -1.68667,-3.86 -2.584,-4.74666 -2.336,-2.30667 -5.74934,-3.81734 -8.432,-5.7 -2.90534,-2.03867 -5.068,-4.768 -7.52,-7.30534 -5.236,-5.41866 -10.78534,-10.557329 -16.76667,-15.145329 -6.65333,-5.104 -13.96133,-9.7 -21.99467,-12.272 -22.324,-7.149333 -32.392,-3.356 -35.01866,-1.313333 -2.62667,2.042667 -7.44134,3.502667 -9.776,1.313333"
       style="fill:#000000;fill-opacity:1;fill-rule:nonzero;stroke:none;stroke-width:1.33333"
       id="path161191" />
    <path
       d="m 227.96079,83.507608 c 0,0 18.09334,2.626667 24.22134,8.754666 6.128,6.128 15.75866,11.089336 14.73733,17.071996 -1.02133,5.98267 -11.81867,25.388 -16.196,30.204 -2.76667,3.04267 -5.43067,6.62667 -5.728,10.876 -0.19067,2.716 0.69467,5.32667 2.17733,7.58 1.03734,1.576 2.456,2.704 3.63467,4.13334 1.07867,1.308 1.69733,1.60133 3.37867,2.10933 1.276,0.38533 1.28933,1.42533 2.19333,2.32667 0.86267,0.86133 2.04133,1.10266 2.96933,1.78133 1.01467,0.74133 0.71734,1.764 1.32,2.73333 0.96534,1.548 3.06267,1.876 4.168,3.28267 0.83067,1.05867 0.59334,2.61867 1.59067,3.62667 1.12,1.132 2.75867,1.37733 3.02,3.18133 0.0813,0.56267 -0.0333,1.11733 0.11333,1.64267 0.18934,0.676 0.7,1.09333 0.96,1.76133 0.476,1.22133 0.66267,2.32133 1.372,3.48933 0.54534,0.89734 1.508,2.54534 1.24667,3.612 -1.168,-0.49466 -2.22667,-2.88 -2.85867,-3.92133 -0.66666,-1.09733 -1.55333,-2.14533 -2.16133,-3.22533 -0.71733,-1.276 -0.63467,-2.456 -1.74667,-3.52534 -1.03466,-0.996 -2.216,-1.44666 -2.52133,-2.90933 -0.24933,-1.188 0.23067,-2.49867 -0.772,-3.232 -1.11867,-0.81867 -2.57867,-0.98533 -3.68267,-1.92933 -1.10666,-0.948 -1.16266,-2.076 -1.784,-3.296 -0.728,-1.43334 -1.676,-1.356 -3.076,-1.83067 -1.61333,-0.54667 -2.49866,-1.50267 -3.51066,-2.80533 -1.07467,-1.38267 -2.81334,-2.456 -4.11334,-3.632 -1.54933,-1.40267 -3.01333,-2.89467 -4.28533,-4.55734 -1.736,-2.268 -3.94133,-5.64933 -2.99333,-8.664 1.60533,-5.10666 15.46666,-19.69733 19.40533,-27.57733 3.94,-7.87867 7.004,-15.75867 -7.87867,-26.555999 -14.88266,-10.797333 -23.2,-10.505333 -23.2,-10.505333"
       style="fill:#000000;fill-opacity:1;fill-rule:nonzero;stroke:none;stroke-width:1.33333"
       id="path161195" />
    <path
       d="m 253.55733,114.85961 c -0.82534,1.29333 -2.22,2.55866 -2.10667,4.20133 0.052,0.76133 0.704,1.476 0.65867,2.22133 -0.0653,1.06667 -2.98267,3.17334 -1.02267,3.268 -0.18667,1.21867 -0.52267,2.396 -1.08267,3.512 -1.04266,2.084 -2.61466,3.932 -3.74533,5.98667 -2.54,4.61867 -9.37467,6.18933 -8.76533,-0.97467 0.0507,-0.58933 0.38266,-1.284 0.08,-1.82666 -1.20134,0.384 -4.56534,1.14666 -5.36267,-0.36267 -0.476,-0.90133 0.19867,-1.98667 -1.15067,-2.54533 0.48,-0.79334 1.016,-0.83734 0.89867,-1.956 -0.98267,0.0307 -5.00533,-1.11867 -4.72267,-1.81734 1.588,0.52 2.33867,-2.59866 1.63734,-3.67733 -0.97067,-1.49333 -3.188,-0.916 -4.56134,-1.46533 -0.0853,-0.724 0.79467,-2.08 0.40534,-2.732 -0.35867,-0.6 -1.86667,-0.016 -2.56934,-0.29734 -0.10533,-0.80533 0.30934,-1.71466 0.0667,-2.50133 -0.33067,-1.072 -1.03733,-0.72933 -1.73467,-1.288 -0.72266,-0.58 -0.288,-0.59733 -0.324,-1.40933 -0.056,-1.28134 -0.51866,-0.824 -1.57066,-1.248 -1.672,-0.67467 0.10666,-1.47867 -0.564,-2.62134 -0.29867,-0.51066 -1.06667,-0.62133 -1.49334,-0.996 -1.49866,-1.32 -2.41333,-3.15066 -3.51333,-4.784 -0.0293,-0.0427 -0.0613,-0.08 -0.0907,-0.12 -0.30533,-0.89333 -0.47733,-1.831996 -0.43466,-2.821329 0.0387,-0.893333 0.0933,-1.881333 0.29066,-2.744 0.35467,-1.557333 1.17467,-2.709333 3.20667,-2.161333 0.492,0.133333 1.55867,0.52 2.036,0.221333 0.91733,-0.572 0.332,-2.353333 1.26667,-2.836 0.508,0.393333 1.38133,1.258667 2.036,1.308 0.532,0.04 0.612,-0.310667 1.03733,-0.757333 0.352,-0.369334 0.58667,-0.593334 1.07867,-0.713334 0.26933,-0.06667 0.84133,-0.169333 1.12933,-0.138666 0.30133,0.03067 0.604,0.328 0.89333,0.338666 0.39734,0.01467 0.82534,-0.322666 1.28534,-0.337333 0.74266,-0.02133 1.31866,0.324 2.01733,0.544 0.67067,0.210667 1.22133,0.410667 1.76133,0.828 0.60934,0.470667 1.16934,0.802667 1.972,0.609333 1.70667,-0.413333 2.208,-0.8 3.752,-0.07733 1.31734,0.616 2.424,1.642667 3.78134,2.148 0.94266,0.350667 1.62533,0.154667 2.46533,0.26 1.17067,0.146667 0.89333,0.796 1.67333,1.796 0.0587,0.07467 0.116,0.145333 0.17334,0.210667 1.688,1.962666 2.60133,-0.0067 4.37466,-0.381334 0.12534,1.406667 -0.0173,2.905334 -0.072,4.321333 -0.0427,1.1 -0.52,2.73733 0.12667,3.68933 0.464,0.684 1.736,0.96667 2.03333,1.72 0.372,0.94267 -0.58666,2.52 -0.14533,3.64133 0.57067,1.44534 2.27467,2.03734 3.08133,3.18134 0.47734,0.67466 0.264,0.87866 -0.18666,1.584 m 11.448,-4.86934 c -0.76,-3.36933 -1.95734,-5.78 -3.89067,-8.576 -2.80267,-4.054659 -7.11467,-6.674659 -11.13333,-9.365326 -4.29467,-2.874667 -9.10267,-5.937333 -14.10934,-7.378666 -4.32933,-1.245334 -9.52666,-0.724 -13.98133,-0.145334 -2.6,0.338667 -5.18533,0.668 -7.80133,0.876 -1.632,0.128 -2.844,0.617334 -4.35867,1.14 -3.85867,1.330667 -7.96,-0.288 -11.132,-2.633333 -0.92933,-0.686667 -1.90933,-2.458667 -2.82666,-1.18 -0.852,1.186667 0.56933,4.961333 1.17866,7.110666 -0.92533,1.016 -0.003,5.658667 -0.424,7.254667 -0.62266,2.356 -0.33066,4.218666 -0.488,6.577326 -0.14933,2.20934 -0.888,4.54134 0.176,6.64534 0.92934,1.83866 4.22133,5.308 6.43867,4.92533 -0.34134,-1.728 -0.284,-3.32 -0.064,-5.136 0.35733,-2.95733 1.78933,-3.244 4.032,-1.43333 1.89466,1.52933 4.944,3.272 6.24,5.348 0.46533,0.744 0.43066,1.80533 0.94933,2.56666 0.508,0.74667 1.36,0.98267 2.064,1.45734 1.63333,1.09866 2.66,1.864 3.39333,3.67066 0.48134,1.184 0.72,2.42934 1.112,3.65467 0.74,2.312 1.88267,4.432 2.45467,6.79867 0.408,1.69066 0.796,3.39466 1.29333,5.05333 0.50934,-1.356 0.016,-3.49067 -0.25733,-4.908 -0.308,-1.59733 -0.47067,-3.15467 -0.41867,-4.81067 2.53067,1.68934 3.94534,5.32934 5.47734,7.83867 1.06533,1.74667 2.37466,3.264 3.052,5.2 0.704,2.01067 1.12666,4.16133 1.236,6.28933 0.0347,0.69067 -0.10934,1.432 0.0533,2.10534 0.17467,0.72533 0.72,1.304 0.98667,1.98133 0.58666,1.488 -0.15867,2.16533 -0.552,3.504 -0.46134,1.57067 0.28666,2.96533 0.912,4.38667 0.75333,1.71066 1.53466,3.632 2.00266,5.40266 0.21734,-2.68266 -2.372,-5.97333 -0.77066,-8.568 0.76266,-1.236 1.08,-2.03466 0.74933,-3.72133 -0.184,-0.93867 -1.50933,-3.35733 -0.93067,-4.20933 1.82934,1.17066 2.77334,3.868 4.20534,5.53466 0.828,0.964 1.71733,1.87467 2.652,2.73467 0.54133,0.49867 2.884,1.88533 3.028,2.51333 -0.79334,-3.46933 -2.57334,-6.28533 -2.564,-9.984 0.004,-1.31466 -0.39734,-3.252 0.46133,-4.392 0.724,-0.95866 1.916,-1.352 2.55067,-2.504 -0.38267,0.17067 -0.78534,0.224 -1.196,0.19067 0.68533,-0.712 1.316,-1.51067 1.764,-1.93333 2.24666,-2.11867 4.63466,-4.12134 6.96266,-6.16534 1.89334,-1.664 2.36267,-4.06533 3.688,-6.07066 1.84534,-2.792 3.64134,-5.64934 5.52667,-8.41734 2.05333,-3.01066 3.084,-5.576 2.25867,-9.228"
       style="opacity:0.199997;fill:#000000;fill-opacity:1;fill-rule:nonzero;stroke:none;stroke-width:1.33333"
       id="path161205" />
    <path
       d="m 311.29266,177.67707 c -0.884,1.80134 1.70933,5.77067 3.54533,6.14667 2.69334,0.552 5.19334,-3.73733 6.44534,-5.536 -0.492,0.70667 -4.42934,1.60933 -5.36267,1.60267 -0.58267,-0.005 -4.65067,-2.17334 -4.60667,-2.25467 -0.008,0.0133 -0.0147,0.028 -0.0213,0.0413"
       style="fill:#000000;fill-opacity:1;fill-rule:nonzero;stroke:none;stroke-width:1.33333"
       id="path161215" />
    <path
       d="m 314.92653,195.80401 c -0.076,-0.0267 -0.14267,-0.1 -0.192,-0.23867 -0.10534,-0.29333 -0.088,-0.70267 -0.156,-1.02 -0.0867,-0.40133 -0.17067,-0.804 -0.34,-1.18267 0.304,0.616 0.164,1.556 -0.02,2.196 -0.1,0.35067 -0.26134,0.564 -0.65334,0.56134 -0.82266,-0.005 -0.67466,-0.88 -0.56933,-1.44267 0.0973,-0.52 0.14667,-1.04267 0.296,-1.532 -0.136,0.388 -0.34533,1.208 -0.70933,1.43333 -0.17334,-0.22 -0.18667,-0.69333 -0.27867,-0.968 -0.0653,-0.19866 -0.13867,-0.39733 -0.232,-0.58533 -0.0667,-0.13333 -0.292,-0.35867 -0.31467,-0.49067 0.08,0.468 0.30267,0.88934 0.30267,1.40267 -0.001,0.42533 0.21733,1.572 -0.24667,1.83733 -0.29066,0.16534 -1.016,-0.007 -1.22133,-0.308 -0.616,-0.9 0.62533,-2.07466 0.732,-2.93333 -0.596,0.748 -0.932,1.67867 -1.416,2.50667 -0.45733,-0.40534 -0.66133,-1.4 -0.78267,-1.97734 -0.1,-0.47066 -0.10133,-0.99466 -0.24933,-1.45066 -0.13067,-0.39867 -0.16,-0.52 0.18,-0.86267 0.35333,-0.35733 0.776,-0.25733 1.24933,-0.196 0.42667,0.056 0.77867,0.0373 1,0.44933 0.128,0.23734 0.26534,0.612 0.23067,0.89867 0.048,-0.396 0.15067,-0.868 0.32933,-1.22533 0.62267,-1.24534 1.33867,0.90533 1.36267,1.43866 0,-0.504 -0.52267,-1.65466 0.10533,-1.92666 0.15867,-0.0693 0.444,-0.0493 0.616,-0.032 0.24534,0.0253 0.31067,0.036 0.41334,0.296 0.132,0.33866 0.0947,0.72266 0.064,1.08666 -0.0293,0.348 -0.112,0.692 -0.18667,1.03867 0.16667,-0.36267 0.392,-0.73333 0.49067,-1.12133 0.092,-0.36 0.14933,-0.73734 0.28533,-1.076 -0.0253,0.064 0.316,0.42266 0.364,0.5 0.12267,0.2 0.192,0.416 0.27333,0.63733 0.024,-0.27867 0.0333,-0.888 0.16267,-1.14533 0.3,-0.59467 1.97333,-0.24 2.476,-0.19334 0.028,-0.18 0.06,-0.35733 0.0853,-0.536 0.096,-0.66666 0.19067,-1.33466 0.24667,-1.99066 0.0267,-0.31734 0.0747,-0.756 0.284,-1.02667 0.56133,0.53467 0.92667,1.51733 1.21333,2.35733 0.18,0.52667 0.33867,1.04667 0.476,1.57867 0.38,0.08 0.76,0.156 1.14134,0.19467 0.21466,0.0227 0.488,0 0.77466,-0.0293 0.496,-0.0493 1.02934,-0.11466 1.36267,0.012 0.48133,0.184 0.55067,1.232 0.192,1.57334 -0.132,-0.236 -0.624,-0.74134 -0.85867,-0.78 0.23467,0.504 0.74534,1.176 0.65334,1.76133 -0.009,0.056 -0.0333,0.108 -0.0693,0.15733 -0.23866,0.328 -1.004,0.52534 -1.37333,0.50134 0.0853,-0.44 0.0747,-0.88934 0.284,-1.284 0.18,-0.33867 0.428,-0.92534 0.11333,-1.27067 0.0173,0.468 -0.28,0.66667 -0.40666,1.07733 -0.28934,-0.112 -0.40534,-0.55333 -0.68667,-0.70533 0.17733,0.33333 0.35733,0.68 0.5,1.036 0.14267,0.36 0.12667,0.82267 -0.0453,1.18533 -0.15467,0.32267 -0.624,0.52534 -0.82134,0.19734 -0.16133,-0.26934 -0.104,-0.84934 -0.14933,-1.172 -0.0867,-0.62134 -0.416,-1.328 -0.40133,-1.94 0,0.76133 -0.0227,1.496 -0.096,2.24533 -0.0733,0.74267 0.0653,1.2 -0.63467,1.548 -0.592,0.29467 -1.32,0.408 -2.00267,0.17867 -0.296,-0.1 -0.31066,-0.17334 -0.29066,-0.53334 0.0147,-0.25733 0.13333,-0.572 0.18933,-0.83866 0.19067,-0.928 0.116,-1.896 0.27467,-2.83067 -0.10934,0.31067 -0.144,0.64667 -0.232,0.97733 -0.19467,0.73734 -0.41734,1.476 -0.7,2.196 -0.188,0.47734 -0.57867,1.64 -1.248,1.612 0.44,-0.59333 0.58,-1.04666 0.384,-1.81466 -0.136,-0.53734 -0.42934,-0.96134 -0.704,-1.432 -0.052,0.46 0.10666,0.97333 0.124,1.444 0.0133,0.34933 0.0227,0.81866 -0.0907,1.15333 -0.0947,0.27867 -0.54933,0.928 -0.85333,0.82267 m -16.856,-2.696 c 0.13066,-0.24 0.33466,-0.47734 0.58933,-0.592 0.24267,0.208 -0.048,0.72133 0.064,1.012 0.23867,-0.3 0.372,-0.68667 0.62933,-0.99467 0.224,-0.26933 0.596,-0.524 0.888,-0.70933 0.0907,-0.0587 1.19867,-0.37867 1.16267,-0.17467 -0.0493,0.27333 -0.212,0.72267 -0.32267,0.98667 0.15734,-0.22134 0.58934,-0.652 0.84134,-0.748 0.376,-0.14267 0.30266,0.21066 0.27333,0.45333 -0.024,0.19867 -0.0453,0.328 -0.02,0.53067 0.0133,0.10666 0.20533,0.60133 0.16933,0.66666 0.312,-0.56666 0.20934,-1.54133 0.75067,-1.99466 0.23867,-0.19867 0.696,-0.312 0.83333,0.012 0.116,0.27466 -0.0987,0.648 -0.18933,0.916 0.52533,-0.60667 1.172,-1.08534 1.812,-1.48 0.0493,0.136 0.0907,0.27066 0.132,0.41866 -0.005,-0.36 0.21333,-0.61066 0.332,-0.928 0.088,-0.23866 0.128,-0.50933 0.20267,-0.75733 0.28533,-0.94667 0.64933,-2.06667 1.208,-2.81067 0.208,0.192 0.25733,0.612 0.284,0.92 0.0547,0.63467 0.14933,1.268 0.244,1.89867 0.0267,0.17467 0.0587,0.34667 0.0893,0.51867 -0.016,0.001 -0.0253,-0.005 -0.0413,-0.003 0.224,1.00533 0.55333,2.00667 0.73466,3.02 0.11867,0.65867 0.24534,1.68 -0.26666,2.20667 -0.088,0.0893 -0.184,0.16 -0.28534,0.21866 -0.57866,-0.04 -1.15866,-0.0773 -1.73866,-0.12133 -0.14134,-0.0107 -0.36,-0.0173 -0.612,-0.024 -0.212,-0.34 -0.20534,-0.7 -0.32,-1.06533 -0.0867,-0.276 -0.23467,-0.47334 -0.24534,-0.78 -0.0227,-0.652 0.304,-1.26267 0.316,-1.90934 -0.528,0.73467 -0.804,1.56934 -1.112,2.408 -0.112,0.30134 -0.20933,0.67067 -0.396,0.92934 -0.25733,0.356 -1.22133,0.63733 -1.53466,0.19866 -0.16,-0.224 0.0107,-0.62 0.084,-0.82933 0.204,-0.58267 0.47333,-1.31333 0.93066,-1.74267 -0.29733,0.34667 -0.68533,0.64534 -0.976,1.01067 -0.252,0.31733 -0.42,0.656 -0.608,1.00533 -0.372,0.69067 -1.33466,0.82134 -1.43466,-0.0907 -0.0707,-0.656 0.0813,-1.10267 0.44266,-1.628 -0.39866,0.41466 -0.64533,0.90933 -0.86666,1.428 -0.41867,0.984 -1.26134,0.20533 -1.324,-0.55867 -0.14934,0.14133 -0.236,0.35333 -0.30667,0.53867 -0.46933,-0.33467 -0.72,-0.796 -0.41333,-1.356 m 30.2,-2.32134 c -0.728,-0.624 -1.88,-0.87733 -2.968,-1.172 -1.184,-0.32266 -2.39867,-0.51866 -3.62,-0.628 -0.54934,-0.048 -0.75867,0.0947 -0.996,-0.436 -0.224,-0.5 -0.492,-0.95733 -0.8,-1.41066 -0.24667,-0.36267 -1.18934,-1.22134 -1.70267,-1.09467 -0.056,0.46533 -0.0173,0.94667 -0.0387,1.424 -0.016,0.35333 0.0107,1.24667 -0.34266,1.44133 -0.256,0.14134 -1.02267,0.0267 -1.332,0.0453 -0.456,0.0253 -0.912,0.0573 -1.368,0.0933 -1.844,0.144 -3.68134,0.35467 -5.52267,0.52267 -0.472,0.0427 -0.884,0.128 -1.13467,-0.344 -0.16666,-0.31467 -0.17866,-0.70134 -0.25333,-1.044 -0.132,-0.612 -0.188,-1.31467 -0.56,-1.84534 -0.64267,0.248 -0.944,0.916 -1.20667,1.54 -0.256,0.60667 -0.45333,1.34267 -0.92666,1.82534 -0.62267,0.63466 -1.976,0.5 -2.8,0.60266 -3.512,0.44134 -7.45734,1.792 -10.99867,1.448 -0.69067,-0.068 -1.68,-0.53066 -2.42,-0.176 -1.676,0.804 -2.024,4.45467 0.47733,3.97734 1.18534,-0.22534 2.07867,-1.28934 3.24667,-1.47467 1.20933,-0.19333 2.60267,0.64 3.692,1.096 0.788,0.33067 1.604,0.62133 2.416,0.89067 0.28667,0.096 0.57733,0.17733 0.868,0.25866 1.95333,0.54934 3.89467,0.77467 5.9,1.036 2.04533,0.268 4.11733,0.552 6.18267,0.49334 2.032,-0.0573 3.96133,-0.27467 5.92933,-0.816 1.94933,-0.536 3.84,-1.268 5.712,-2.02667 0.692,-0.28133 1.38667,-0.56667 2.036,-0.93867 0.244,-0.13866 0.80667,-0.71466 1.068,-0.72133 0.40933,-0.012 0.58,0.42 0.95067,0.50267 0.704,0.156 1.04,0.26 1.2,-0.66267 0.204,-1.17733 -0.108,-1.91067 -0.688,-2.40667"
       style="fill:#000000;fill-opacity:1;fill-rule:nonzero;stroke:none;stroke-width:1.33333"
       id="path161219" />
    <path
       id="path161261"
       style="opacity:0.199997;fill:#000000;fill-opacity:1;fill-rule:nonzero;stroke:none;stroke-width:1.33333"
       d="m 319.95466,188.05054 0.65867,1.31733 c 0,0 6.29466,1.684 6.22266,2.928 -0.0733,1.244 1.68267,0.87867 1.31734,2.85467 -0.172,0.92933 0.33733,0.93067 0.99466,0.64133 0.816,-0.35733 0.84667,-1.20933 1.00534,-1.91733 0.42133,-1.87867 0.67466,-4.084 -0.45467,-5.78667 -2.01867,1.17867 -3.60133,0.24267 -5.71333,10e-4 -1.32534,-0.152 -2.7,-0.172 -4.03067,-0.0387 m -12.00467,0.43957 0.43867,1.61067 9.80933,-0.732 0.0733,-1.39067 z m -18.6656,6.2952 c -0.99066,0.496 -2.60666,2.06667 -3.00133,0.29067 -0.38133,-1.71467 1.38133,-4.42667 3.02533,-4.84934 0.168,-0.044 1.408,0.64667 1.724,0.71067 0.70267,0.14267 1.54667,0.176 2.24667,0.0413 1.12933,-0.21866 2.27067,-0.70666 3.42267,-0.94133 3.12,-0.63733 6.31066,-0.90933 9.492,-0.96133 l -0.732,1.53733 -10.76,1.464 c 0,0 -5.36267,2.68 -5.41734,2.708" />
    <path
       d="m 323.43213,144.76921 c 0,0 5.704,12.74933 10.56933,14.67866 4.864,1.92934 5.368,-0.33466 5.368,-0.33466 0,0 -3.43867,1.17333 -7.54933,-3.524 -4.11067,-4.69734 -8.388,-10.82 -8.388,-10.82"
       style="fill:#000000;fill-opacity:1;fill-rule:nonzero;stroke:none;stroke-width:1.33333"
       id="path161271" />
    <path
       d="m 190.49173,122.19721 c -0.144,-0.98 -0.668,-1.768 -0.57067,-2.79734 0.0827,-0.876 0.748,-3.02133 1.48134,-3.51333 1.188,-0.796 3.48666,0.90267 4.26533,1.74267 -0.78533,-0.92 -2.89733,-0.656 -3.788,0.17466 -1.28133,1.19467 -1.59333,2.90934 -1.388,4.39334"
       style="fill:#000000;fill-opacity:1;fill-rule:nonzero;stroke:none;stroke-width:1.33333"
       id="path161275" />
    <path
       d="m 192.20893,128.92094 c -0.19733,-1.56267 -0.90933,-2.82 -0.77733,-4.46133 0.112,-1.39734 1.01866,-4.82 2.01733,-5.60267 1.61867,-1.26933 4.74933,1.43867 5.808,2.77867 -1.06933,-1.468 -3.94533,-1.04534 -5.15733,0.27866 -1.74534,1.90534 -2.17067,4.64 -1.89067,7.00667"
       style="fill:#000000;fill-opacity:1;fill-rule:nonzero;stroke:none;stroke-width:1.33333"
       id="path161279" />
    <path
       d="m 195.33613,134.51227 c -0.21067,-1.88533 -0.972,-3.40266 -0.83067,-5.38133 0.12,-1.68533 1.088,-5.81333 2.15467,-6.75867 1.21867,-1.07866 6.35866,0.64934 6.89066,2.188 -1.34266,-0.0667 -2.992,-0.79333 -4.29199,-0.16666 -0.948,0.45733 -1.91067,1.57866 -2.46134,2.44933 -1.41066,2.228 -1.74933,5.092 -1.46133,7.66933"
       style="fill:#000000;fill-opacity:1;fill-rule:nonzero;stroke:none;stroke-width:1.33333"
       id="path161283" />
    <path
       d="m 198.30546,137.97641 c -0.21066,-1.88534 -0.972,-3.40267 -0.83066,-5.38134 0.12,-1.68533 1.088,-5.81333 2.15466,-6.75866 1.21867,-1.07867 6.35867,0.64933 6.89067,2.188 -1.34267,-0.0667 -2.992,-0.79334 -4.292,-0.16667 -0.948,0.45733 -1.91067,1.57867 -2.46133,2.44933 -1.41067,2.228 -1.74934,5.092 -1.46134,7.66934"
       style="fill:#000000;fill-opacity:1;fill-rule:nonzero;stroke:none;stroke-width:1.33333"
       id="path161287" />
    <path
       d="m 200.77986,141.73761 c -0.21067,-1.88534 -0.972,-3.40267 -0.83066,-5.38134 0.11999,-1.68533 1.08799,-5.81333 2.15466,-6.75866 1.21867,-1.07867 6.35867,0.64933 6.89067,2.188 -1.34267,-0.0667 -2.992,-0.79334 -4.292,-0.16667 -0.948,0.45733 -1.91067,1.57867 -2.46134,2.44933 -1.41066,2.228 -1.74933,5.092 -1.46133,7.66934"
       style="fill:#000000;fill-opacity:1;fill-rule:nonzero;stroke:none;stroke-width:1.33333"
       id="path161291" />
    <path
       d="m 202.59293,144.25387 c -0.192,-1.688 -0.88534,-3.04666 -0.75734,-4.82 0.10934,-1.50933 0.992,-5.20666 1.964,-6.052 1.10934,-0.968 5.79067,0.58134 6.27467,1.95867 -1.22267,-0.06 -2.724,-0.71067 -3.908,-0.14933 -0.864,0.40933 -1.74,1.41333 -2.24267,2.19333 -1.284,1.996 -1.592,4.56 -1.33066,6.86933"
       style="fill:#000000;fill-opacity:1;fill-rule:nonzero;stroke:none;stroke-width:1.33333"
       id="path161295" />
    <path
       d="m 204.53853,144.19467 c -0.016,-1.19066 -0.45467,-2.16133 -0.212,-3.40266 0.20666,-1.05734 1.19733,-3.63334 2.03066,-4.20534 0.95334,-0.652 4.52134,0.544 4.79334,1.52267 -0.95867,-0.0707 -2.092,-0.56267 -3.07067,-0.196 -0.71467,0.268 -1.48533,0.952 -1.944,1.48933 -1.172,1.37067 -1.62,3.164 -1.59733,4.792"
       style="fill:#000000;fill-opacity:1;fill-rule:nonzero;stroke:none;stroke-width:1.33333"
       id="path161299" />
    <path
       d="m 206.78839,143.28467 c -0.012,-0.69466 -0.328,-1.26 -0.15333,-1.984 0.14933,-0.61733 0.86267,-2.11866 1.464,-2.452 0.68667,-0.38133 3.25733,0.31734 3.45333,0.888 -0.69066,-0.0413 -1.508,-0.32933 -2.212,-0.11466 -0.51466,0.156 -1.07066,0.55466 -1.40133,0.868 -0.844,0.8 -1.16667,1.84533 -1.15067,2.79466"
       style="fill:#000000;fill-opacity:1;fill-rule:nonzero;stroke:none;stroke-width:1.33333"
       id="path161303" />
    <path
       d="m 300.39586,39.368542 c 1.10533,1.02 3.39733,1.421334 4.432,2.365334 1.31067,1.197333 2.94267,3.174666 2.532,5.101333 -0.52133,2.437333 -3.28,4.249333 -5.19867,5.493333 2.16534,-1.249333 4.34534,-2.632 6.512,-3.932 1.49067,-0.894667 2.22267,-1.838666 1.516,-3.510666 -1.23866,-2.925334 -6.924,-7.750667 -10.34266,-6.348 0.0973,0.32 0.29066,0.592 0.54933,0.830666"
       style="opacity:0.199997;fill:#000000;fill-opacity:1;fill-rule:nonzero;stroke:none;stroke-width:1.33333"
       id="path161313" />
    <path
       d="m 316.52106,49.271742 c 0.036,0.44 0.30133,0.985333 0.43467,1.489333 0.92533,3.498667 1.29733,7.190667 1.456,10.797333 0.316,7.153334 -0.45734,14.294667 -1.15734,21.404 1.53067,-6.308 1.292,-12.714666 1.92,-19.142666 0.236,-2.417334 0.91867,-4.881333 0.856,-7.318667 -0.0467,-1.824 0.23067,-4.372 -0.32933,-6.101333 -0.25067,-0.768 -1.21067,-2.057333 -2.156,-1.986667 -0.852,0.06533 -1.06,0.405334 -1.024,0.858667"
       style="opacity:0.199997;fill:#000000;fill-opacity:1;fill-rule:nonzero;stroke:none;stroke-width:1.33333"
       id="path161329" />
    <path
       d="m 334.99399,65.433475 c 0.96933,2.610667 -0.10667,7.033333 -0.60133,9.662666 -0.32134,1.701334 -0.724,3.537334 -1.56933,5.021334 -0.57867,1.016 -1.32,1.805333 -1.67334,2.956 -0.592,1.925333 -0.564,3.109333 -1.64933,4.938666 -1.008,1.697333 -1.684,3.049333 -2.15467,4.934667 -0.70266,2.818666 -3.27866,3.601333 -4.32666,6.198666 -0.82534,2.042666 0.16133,4.469336 -0.54267,6.603996 -0.84267,2.55334 -2.39867,5.688 -4.14933,7.772 1.852,-2.772 2.86533,-6.064 4.71333,-8.71733 0.728,-1.044 1.62133,-1.772 1.664,-3.04667 0.048,-1.41466 -0.704,-1.50266 0.31067,-3.041329 1.58133,-2.397333 3.888,-4.748 4.99066,-7.405333 1.35334,-3.261334 2.13734,-6.386667 3.33733,-9.656 1.252,-3.410667 2.77067,-6.338667 4.084,-9.617333 0.82134,-2.049333 -0.96266,-4.858667 -2.43333,-6.604"
       style="opacity:0.199997;fill:#000000;fill-opacity:1;fill-rule:nonzero;stroke:none;stroke-width:1.33333"
       id="path161345" />
    <path
       d="m 340.20812,77.773341 c 1.30667,2.3 0.11334,5.657334 -0.83333,7.76 -1.312,2.910667 -2.48267,5.882667 -3.244,8.989333 -1.03067,4.196 -1.55467,8.511996 -2.188,12.802666 -0.19333,1.30667 -0.32267,2.148 -1.056,3.23333 2.356,-3.2 3.452,-8.37333 4.37733,-12.219996 1.184,-4.92 1.66667,-13.006666 7.596,-14.607999 -2.61866,-1.014667 -3.38,-3.718667 -4.652,-5.957334"
       style="opacity:0.199997;fill:#000000;fill-opacity:1;fill-rule:nonzero;stroke:none;stroke-width:1.33333"
       id="path161361" />
    <path
       d="m 300.68706,164.39307 c -1.71333,2.35067 -2.86533,5.92667 -1.448,7.86534 -0.44,-0.60267 -1.252,-0.83467 -1.836,-1.30134 -0.59067,-0.472 -0.87467,-2.08266 -1.764,-1.39333 -5.18267,4.01733 -7.6,10.06267 -9.28,16.19733 -0.47333,1.72667 -0.91467,3.48534 -0.916,5.276 -10e-4,0.92267 0.11333,1.84 0.228,2.75467 -0.508,-0.0227 -0.72133,-0.652 -0.78933,-1.156 -0.824,-6.07733 0.38,-12.416 3.32,-17.79467 2.60533,-4.768 6.768,-8.45466 10.932,-11.836 1.01333,-0.82266 2.24266,-1.68666 3.50933,-1.37333 0.23867,0.0587 0.51333,0.248 0.444,0.484 -0.04,0.13733 -0.18267,0.21333 -0.308,0.28133 -0.70533,0.38267 -1.43867,1.1 -2.092,1.996"
       style="fill:#000000;fill-opacity:1;fill-rule:nonzero;stroke:none;stroke-width:1.33333"
       id="path161371" />
    <path
       d="m 296.88386,173.52761 c -1.27867,0.60533 -2.86533,0.752 -3.952,1.80666 -1.072,1.04134 -2.216,2.468 -2.676,3.88534 1.29067,-2.01067 3.30667,-3.14934 5.51467,-3.88 0.49866,-0.164 1.13866,-0.29467 1.59333,-0.6 0.48533,-0.32534 0.73867,-1.12934 -0.48,-1.212"
       style="opacity:0.199997;fill:#000000;fill-opacity:1;fill-rule:nonzero;stroke:none;stroke-width:1.33333"
       id="path161381" />
    <path
       d="m 294.82786,177.57307 c -2.25067,0.77067 -4.26533,2.63067 -5.59333,4.584 -0.37067,0.54534 -2.14,3.028 -0.972,3.648 0.43466,-0.37466 0.628,-1.14933 0.87866,-1.66266 0.64267,-1.32267 1.57867,-2.47334 2.452,-3.65067 0.84267,-1.136 1.58134,-1.51867 3.23467,-2.91867"
       style="opacity:0.199997;fill:#000000;fill-opacity:1;fill-rule:nonzero;stroke:none;stroke-width:1.33333"
       id="path161397" />
    <path
       d="m 293.76213,184.77281 c -0.772,0.224 -1.56134,0.428 -2.284,0.784 -1.44934,0.71466 -3.13334,2.03066 -4.012,3.392 -0.352,0.548 -0.46134,1.29866 0.12666,1.77066 -0.08,-0.064 2.224,-3.52933 2.644,-3.83866 1.26667,-0.93334 2.832,-1.36 4.104,-2.284 -0.19066,0.0613 -0.384,0.12 -0.57866,0.176"
       style="opacity:0.199997;fill:#000000;fill-opacity:1;fill-rule:nonzero;stroke:none;stroke-width:1.33333"
       id="path161413" />
    <path
       d="m 329.83293,187.73014 c 0.0653,-0.216 0.12533,-0.436 0.16133,-0.65867 0.14933,-0.94133 0.21867,-1.952 0.16267,-2.90133 -0.04,-0.66933 -0.16667,-2.81467 -0.84667,-3.19733 0.70667,0.39733 1.16533,0.61733 1.47867,1.35866 0.42133,-1.05466 0.20533,-2.37066 -0.0507,-3.43466 -0.29067,-1.20934 -1.116,-2.15734 -1.61467,-3.22134 1.88267,0.60134 1.95467,2.932 2.11334,4.48134 0.21466,2.12133 0.0787,4.18666 -0.65467,6.17866 -0.28,0.764 -0.504,1.49867 -0.97467,2.17334 0.0573,-0.25334 0.14534,-0.51334 0.22534,-0.77867"
       style="opacity:0.199997;fill:#000000;fill-opacity:1;fill-rule:nonzero;stroke:none;stroke-width:1.33333"
       id="path161429" />
  </g>
</svg>
