<?xml version="1.0" encoding="UTF-8" standalone="no"?>
<!-- Generator: Adobe Illustrator 28.2.0, SVG Export Plug-In . SVG Version: 6.00 Build 0)  -->

<svg
   version="1.1"
   id="Head_Rigelian_Female_1"
   x="0px"
   y="0px"
   sodipodi:docname="RigellianFemale.svg"
   width="400"
   height="400"
   inkscape:version="1.3.2 (091e20e, 2023-11-25)"
   xml:space="preserve"
   xmlns:inkscape="http://www.inkscape.org/namespaces/inkscape"
   xmlns:sodipodi="http://sodipodi.sourceforge.net/DTD/sodipodi-0.dtd"
   xmlns="http://www.w3.org/2000/svg"
   xmlns:svg="http://www.w3.org/2000/svg"><defs
     id="defs58" /><sodipodi:namedview
     id="namedview58"
     pagecolor="#ffffff"
     bordercolor="#666666"
     borderopacity="1.0"
     inkscape:showpageshadow="2"
     inkscape:pageopacity="0.0"
     inkscape:pagecheckerboard="0"
     inkscape:deskcolor="#d1d1d1"
     inkscape:zoom="18.4"
     inkscape:cx="324.375"
     inkscape:cy="160.32609"
     inkscape:window-width="1856"
     inkscape:window-height="1133"
     inkscape:window-x="2626"
     inkscape:window-y="43"
     inkscape:window-maximized="0"
     inkscape:current-layer="layer3" /><g
     inkscape:groupmode="layer"
     id="layer3"
     inkscape:label="Rigellian Head"><path
       fill="#cd976d"
       d="m 268.06399,221.82799 c 6.31867,2.85734 22.00534,9.34667 25.17334,10.19867 3.48133,0.93733 7.43333,1.05733 10.748,0.97867 11.64666,-0.28 14.70533,-4.25467 15.91866,-5.27734 1.34134,-1.13733 8.58667,-10.03466 9.488,-15.28666 0.46134,-2.68534 1.628,-4.72534 1.94267,-6.09734 0.37467,-1.63333 0.948,-3.092 3.08,-8.12266 4.27333,-10.08533 10.732,-25.328 10.98266,-32.852 0.184,-5.496 -0.53066,-11.57333 -1.16,-16.936 -0.34533,-2.94 -0.66266,-5.66533 -0.808,-8.03867 0.12,0.26667 0.20267,0.532 0.20267,0.79467 0.016,-1.38267 -0.53733,-3.03867 0,-5.20933 0.496,-1.51467 0.728,-3.096 1.27733,-4.61334 0.30134,-0.83333 0.84134,-1.77333 1.112,-2.72933 0.13334,-0.24533 0.268,-0.49067 0.39867,-0.72667 1.12267,-2.02266 2.092,-3.768 2.092,-5.87466 0,-1.95334 0.312,-15.52934 -2.56,-29.300002 -2.476,-11.878667 -8.244,-26.117333 -15.61466,-34.651999 -13.904,-16.098667 -42.63067,-28.709333 -65.39867,-28.709333 -23.86933,0 -70.328,22.623999 -70.328,64.095998 0,5.121334 0.47334,10.243996 0.65867,15.346666 0.23067,6.312 1.13333,12.572 2.01067,18.82 0.828,5.89733 1.05466,11.95333 2.50266,17.74267 0.52267,2.092 7.96533,18.804 10.52533,20.476 2.55867,1.672 6.89467,2.30666 7.90534,6.12933 1.012,3.82267 11.92266,23.65467 14.316,26.23467 8.77333,9.45866 35.53466,23.60799 35.53466,23.60799 z"
       id="path1"
       style="stroke-width:1.33333" /><path
       id="path59"
       style="fill:#bbaec0;fill-opacity:0.3;stroke:none;stroke-width:1.33333px;stroke-linecap:butt;stroke-linejoin:miter;stroke-opacity:1"
       d="m 313.57291,69.593748 c 1.29067,3.195994 1.63335,6.821154 2.05468,10.341146 0.29334,2.449328 0.53295,4.839943 0.29428,7.335937 -0.17733,1.854664 -0.6448,3.781984 -0.57813,5.695312 0.14533,4.194659 5.04503,7.0068 6.84636,10.661457 2.348,4.76266 -0.28092,9.50936 -0.40625,14.38802 -0.0533,2.08933 1.14829,2.76784 2.26562,4.22917 0.84914,1.11127 1.36187,2.38867 1.38282,3.79687 l -6.19271,7.97916 -0.97917,6.84896 2.93489,9.13022 2.60939,5.76041 2.60937,5.76041 3.47656,6.84896 0.21875,1.73959 1.84636,1.95573 1.08853,3.36979 -0.43489,9.45573 2.0651,-5.54166 2.39063,-3.58855 1.73958,-6.73959 1.6302,-6.41145 -4.67448,-9.56511 -4.45571,-3.6953 1.95572,-2.28386 0.43489,-2.28125 1.73958,-5.43489 1.52084,-6.73959 -1.19532,-3.15364 2.82552,-4.78125 1.19792,-6.63021 -1.73958,-6.52344 -2.39323,-4.13021 -4.23697,-4.34635 -2.06511,-3.369794 -1.95833,-7.718749 -4.67448,-12.065104 -2.60677,-5.976562 c 0,0 -2.02176,-2.675687 -3.47916,-3.369792 -0.80426,-0.383031 -2.58112,-0.330887 -2.66667,-0.328125 -0.14648,-0.184103 -0.26387,-0.408783 -0.39063,-0.622396 z m -11.15365,0.580729 c -0.0715,0.379312 -0.12107,0.758889 -0.16145,1.140625 l -3.67188,3.575521 -5.4349,8.804687 -2.71614,9.783854 -2.17448,4.78125 -3.80468,2.825516 -6.41147,5.97917 -1.95833,4.78386 0.67969,3.875 2.79948,3.73177 0.21875,4.5651 1.30208,4.34896 1.19792,1.73958 -1.05468,2.63021 0.0391,0.79427 1.23178,11.79167 1.1953,2.39062 -0.24738,0.39844 c 0.012,4.6e-4 0.0241,0.003 0.0364,0.003 l -3.8099,6.88281 -4.89062,7.39063 -0.4349,5.32552 2.71615,6.95833 6.95572,8.91146 2.71876,5.76302 0.43489,4.34635 0.32552,-7.06509 0.10934,-7.39063 1.84636,-5.32552 7.5,-10.76303 4.23957,-6.63021 1.19532,-6.30468 v -6.82292 c 0.46879,0.37445 0.88975,0.86251 1.14583,1.19792 1.12533,1.47467 1.36484,3.45489 2.02084,5.10156 -0.036,-2.108 0.16741,-4.25823 -0.69792,-6.18489 -0.73067,-1.62534 -2.3483,-4.13552 -1.26563,-5.90886 1.17333,-1.92266 2.95088,-0.0893 4.54688,-0.39062 -0.148,-0.90534 -0.54725,-1.78046 -0.69792,-2.70312 -0.332,-2.04401 -0.51059,-4.02324 -0.28125,-6.14324 0.16933,-1.56799 0.32384,-3.12052 0.39584,-4.70052 0.0627,-1.34266 0.39241,-2.87782 0.26041,-4.25781 -0.0187,-0.19066 -0.046,-0.37723 -0.0833,-0.5599 -0.31067,-1.50932 -1.70408,-2.5766 -2.38542,-3.91927 -1.84933,-3.64532 -2.60528,-8.33995 -1.61198,-12.33593 0.46,-1.85333 1.26536,-3.742508 2.22136,-5.395838 0.72933,-1.261329 2.13,-2.913837 2.08333,-4.3125 -0.0533,-1.622662 -1.08751,-3.771378 -1.52084,-5.359374 -1.48796,-5.455984 -0.90689,-12.529033 -4.10156,-17.346354 z" /><path
       opacity="0.2"
       d="m 257.05199,30.079999 c -3.80533,0.624 -7.904,1.670667 -12.116,3.12 -0.12133,0.04133 -0.24266,0.08133 -0.36533,0.124 -0.69867,0.244 -1.40267,0.504 -2.10667,0.770667 -0.20933,0.08 -0.41866,0.157333 -0.628,0.238666 -0.66266,0.257334 -1.328,0.526667 -1.99466,0.802667 -0.25067,0.104 -0.5,0.209333 -0.75067,0.316 -0.64533,0.274667 -1.292,0.558667 -1.93867,0.852 -0.268,0.121333 -0.536,0.246667 -0.80266,0.370667 -0.64,0.297333 -1.27867,0.601333 -1.91867,0.916 -0.26667,0.132 -0.532,0.269333 -0.79733,0.404 -0.644,0.326666 -1.28934,0.656 -1.93067,1 -0.23333,0.125333 -0.46533,0.257333 -0.69733,0.385333 -0.676,0.370667 -1.352,0.742667 -2.024,1.133333 -0.0347,0.02 -0.068,0.04133 -0.10134,0.06133 -1.66133,0.968 -3.30533,1.998666 -4.92133,3.089333 -0.0333,0.02267 -0.0667,0.04267 -0.0987,0.06533 -0.572,0.388 -1.136,0.793334 -1.70133,1.196 -0.31067,0.221334 -0.62533,0.438667 -0.93467,0.665334 -0.51066,0.374666 -1.01466,0.764 -1.51866,1.151999 -0.35334,0.272 -0.708,0.541334 -1.05734,0.82 -0.47733,0.38 -0.948,0.770667 -1.41866,1.162667 -0.364,0.302667 -0.72534,0.606667 -1.084,0.917333 -0.45334,0.392 -0.90134,0.792 -1.34534,1.194667 -0.36133,0.328 -0.71866,0.658667 -1.07333,0.993333 -0.432,0.406667 -0.86,0.817334 -1.28133,1.236 -0.352,0.348 -0.69734,0.704 -1.04267,1.06 -0.41067,0.424 -0.82,0.848 -1.22,1.281334 -0.34,0.368 -0.66933,0.746666 -1,1.121333 -0.388,0.44 -0.77867,0.877333 -1.156,1.326667 -0.32533,0.389333 -0.636,0.789333 -0.95333,1.186666 -0.364,0.456 -0.73467,0.905334 -1.08534,1.370667 -0.30933,0.410666 -0.6,0.836 -0.9,1.254666 -0.63333,0.882667 -1.24266,1.784 -1.828,2.701334 -0.28266,0.444 -0.57466,0.881333 -0.84533,1.332 -0.29467,0.489333 -0.56667,0.992 -0.84667,1.489333 -0.25866,0.458667 -0.52133,0.916 -0.76666,1.382667 -0.268,0.508 -0.516,1.028 -0.76934,1.545333 -0.23066,0.474667 -0.46266,0.948 -0.68133,1.430667 -0.23866,0.528 -0.46266,1.062666 -0.68533,1.6 -0.20267,0.489333 -0.40133,0.981333 -0.59067,1.478666 -0.208,0.546667 -0.40533,1.098667 -0.596,1.654667 -0.17333,0.505333 -0.336,1.014666 -0.49466,1.528 -0.17467,0.565333 -0.344,1.133333 -0.50134,1.706666 -0.14266,0.521334 -0.26933,1.050667 -0.39466,1.58 -0.13867,0.581334 -0.28,1.162667 -0.39867,1.754667 -0.10933,0.541333 -0.19867,1.093333 -0.292,1.642667 -0.10133,0.596 -0.21067,1.188 -0.292,1.793333 -0.076,0.570666 -0.124,1.153333 -0.18267,1.730666 -0.0613,0.601334 -0.13733,1.196 -0.17733,1.806667 -0.08,1.2 -0.128,2.413333 -0.128,3.646667 0,5.121333 0.47333,10.243999 0.65867,15.346659 0.256,7.012 1.72533,13.99734 2.32666,20.97467 0.44934,5.22267 0.91067,10.48933 2.18667,15.58667 0.52266,2.092 7.96533,18.804 10.52533,20.476 2.55867,1.672 6.89467,2.30666 7.90533,6.12933 1.012,3.82267 11.92267,23.65467 14.316,26.23467 8.77067,9.45866 35.53334,23.60799 35.53334,23.60799 6.31866,2.85734 22.00533,9.34667 25.17333,10.19867 3.48133,0.93733 7.43333,1.05733 10.748,0.97867 2.8,-0.068 5.09333,-0.352 6.99467,-0.75334 -34.60934,-7.716 -47.99467,-39.97866 -50.512,-45.71866 -8.71867,-19.87867 -15.496,-26.92267 -17.028,-32.74667 -2.86267,-10.88533 -3.46267,-13.78133 -2.09467,-23.25066 0.90933,-6.29467 3.77867,-7.244 4.304,-12.18134 1.20267,-11.29333 -2.94267,-22.302659 -4.03733,-33.343992 -1.156,-11.662667 0.34133,-19.446667 4.79466,-30.290666 2.12667,-5.177334 4.75734,-10.2 8.20934,-14.624 2.088,-2.676 8.488,-10.802666 12.312,-10.685333 -0.66667,-0.02133 -1.32934,-0.03333 -1.98667,-0.03333 -0.53067,0 -1.08667,0.02533 -1.64,0.04667 -2.06533,0.101334 -4.15467,0.372 -6.25467,0.656 z"
       id="path10"
       style="stroke-width:1.33333;fill:#000000;fill-opacity:1" /><path
       d="m 344.66532,135.02133 c 1.13067,-5.65067 4.824,-9.57067 4.93467,-15.424 0.42133,-22.470666 -4.12267,-45.647999 -18.43733,-62.222665 -14.31467,-16.574666 -43.24133,-29.085332 -66.22,-29.085332 -22.97867,0 -71.41466,21.861332 -71.41466,65.181331 0,14.761336 1.812,31.062666 2.81333,38.526666 1.41333,15.38267 6.84933,26.53333 9.90133,30.68933 0.64,0.872 1.54667,1.89467 2.37067,2.87467 0.436,0.51867 0.94266,1.096 2.34,1.27733 0.392,0.0507 1.08,-0.69733 -0.0893,-2.288 -9.65333,-13.11866 -11.72533,-37.78933 -12.24266,-42.484 -0.096,-5.56666 -1.45867,-20.96266 -1.45867,-28.077329 0,-44.199999 51.94267,-62.387998 69.27067,-62.639998 17.328,-0.250667 48.52533,14.351999 62.784,28.879999 12.77199,13.014666 16.89199,31.831999 17.83066,56.078668 0.21733,5.608 -4.26933,15.99733 -5.02267,18.25733 -0.75333,2.26 1.45867,10.06267 1.75067,26.332 0.188,10.47067 -5.90933,21.924 -7.75467,26.40667 -2.85466,6.93466 -4.24399,11.85066 -6.50933,18.95866 -2.19466,6.88267 -5.02933,13.776 -9.96533,19.28667 -1.75467,1.95866 -3.79733,3.74133 -6.23733,4.76266 -2.36934,0.992 -4.98534,1.21467 -7.54267,1.20934 -13.36133,-0.0307 -26.248,-6.068 -37.09333,-11.32534 -7.072,-3.428 -13.89867,-7.31733 -20.42134,-11.64 -6.432,-4.26133 -12.556,-8.80666 -16.736,-15.49466 -3.58,-5.728 -6.19066,-11.56933 -9.97066,-17.17467 1.55333,2.30267 1.98266,5.98934 2.97866,8.648 1.29734,3.46534 2.564,7.58134 4.46534,10.728 2.92533,4.84267 6.22533,8.32533 10.46666,11.804 6.9,5.66133 14.984,9.36533 22.812,13.62267 3.332,1.812 6.70934,3.55066 10.14267,5.18133 9.31467,4.42267 20.47733,8.65733 31.65467,9.22667 3.872,0.19733 7.88533,-0.0227 11.444,-1.60934 3.576,-1.59466 6.432,-4.46 8.74266,-7.58133 6.62667,-8.956 8.176,-17.65067 11.72667,-27.94133 3.69066,-10.69733 9.98133,-20.98933 10.50533,-32.56133 1,-22.07067 -2.948,-24.73334 -1.81867,-30.38267 z"
       id="path11"
       style="stroke-width:1.33333;fill:#000000;fill-opacity:1" /><path
       d="m 241.35599,153.56133 c 0.13867,1.29067 0.384,2.564 0.748,3.78667 1.04534,3.512 3.512,6.55733 5.824,9.312 2.488,2.96533 4.47334,4.92133 5.90134,8.66 1.568,4.10266 2.78933,8.11333 4.62533,12.104 0.832,1.80933 2,3.66 3.17067,5.27066 0.49466,0.68 1.45733,2.12134 2.212,2.288 -1.41867,-2.448 -2.69467,-5.46133 -3.36934,-8.20933 -0.58,-2.36133 -0.49733,-4.73467 -0.23733,-7.11467 0.12,-1.09733 0.72933,-2.3 0.764,-3.376 0.0427,-1.33866 -1.49333,-2.10266 -2.412,-2.932 -3.60133,-3.25333 -6.78933,-6.51866 -9.94267,-10.18933 -3.896,-4.53733 -6.86,-11.49867 -6.85866,-17.53867 -0.53734,2.53467 -0.71067,5.27467 -0.42534,7.93867 z"
       id="path13"
       style="stroke-width:1.33333;fill:#000000;fill-opacity:1" /><path
       opacity="0.2"
       d="m 309.76533,204.57599 c -2.97467,-0.52 -5.84,-1.42133 -8.916,-2.10533 -1.77334,-0.39467 -3.60534,-0.984 -5.38,-1.29333 -1.26134,-0.22 -1.888,0.25733 -1.616,1.512 0.30266,1.39866 1.53466,1.976 2.62933,2.684 2.82267,1.824 6.11067,2.80533 9.35467,3.57466 2.11333,0.50134 4.288,0.55334 6.48933,0.75867 1.908,0.17867 4.15867,0.36933 6.00933,-0.23467 0.896,-0.292 1.784,-0.70266 2.648,-1.072 1.32934,-0.56933 2.97467,-1.132 4.13734,-1.98266 1.15333,-0.844 2.416,-3.156 2.256,-4.57334 -2.056,1.37467 -4.22134,1.89067 -6.612,2.50534 -2.032,0.52133 -4.164,0.62533 -6.26534,0.64533 -1.636,0.0173 -3.2,-0.14933 -4.73466,-0.41867 z"
       id="path14"
       style="stroke-width:1.33333;fill:#000000;fill-opacity:1" /><path
       opacity="0.2"
       d="M 329.39599,195.568"
       id="path15"
       style="stroke-width:1.33333" /><path
       d="m 301.53733,202.80133 c 1.19466,0.176 2.41066,0.30533 3.58666,0.57466 2.316,0.532 4.54667,0.82267 6.928,0.852 2.41734,0.028 4.756,-0.22133 7.15867,-0.43866 1.49867,-0.136 2.936,-0.18134 4.364,-0.7 1.2,-0.436 2.67733,-0.57467 3.76533,-1.252 -1.14533,0.71333 -1.04133,1.988 -2.64533,2.344 -1.55867,0.34666 -3.05467,0.844 -4.62667,1.28133 -3.76266,1.048 -8.07733,0.57867 -11.872,-0.0387 -3.544,-0.576 -7.912,-0.604 -10.49733,-3.48666 0.688,0.012 1.3,0.35066 1.944,0.508 0.61867,0.15333 1.25333,0.26133 1.89467,0.356 z"
       id="path16"
       style="stroke-width:1.33333;fill:#000000;fill-opacity:1" /><path
       d="m 322.49999,195.17333 c 1.464,0.212 2.92934,0.396 4.42667,0.4 1.00533,0.003 2.204,0.48133 2.32133,1.48 0.16934,-0.78667 0.17334,-1.60933 0.012,-2.39733 0.22267,1.09066 -3.776,-0.27334 -4.18133,-0.47334 -1.928,-0.952 -3.83733,-1.32933 -6.00667,-1.58666 -1.51466,-0.18 -2.276,0.75466 -3.672,0.98266 -2.85733,0.468 -5.23733,-1.56933 -8.072,-1.31866 -2.336,0.20666 -4.216,1.64666 -6.44533,2.04 -2.42133,0.42666 -4.81733,1.12533 -7.26933,1.448 -1.012,0.13333 -1.96667,0.38933 -2.99467,0.284 -0.87867,-0.0907 -1.96267,-0.30134 -2.684,-0.86134 -0.80267,-0.624 -0.36,-1.42 -0.39067,-2.28933 0.003,0.076 -1.09466,1.35867 -1.23066,1.52933 -0.85867,1.08267 -1.384,2.16667 -2.42534,3.12667 -0.916,0.84533 -2.34666,1.69733 -2.63733,3.00533 -0.10267,0.464 2.88267,-0.64533 3.052,-0.74666 0.90267,-0.54 1.43333,-1.444 2.28533,-1.99067 2.208,-1.41867 6.00934,-1.11067 8.54,-1.24133 3.27467,-0.168 6.824,-0.492 10.01467,-1.26667 1.25867,-0.30533 2.63733,-0.75867 3.94533,-0.76133 1.54134,-0.003 3.236,0.67066 4.74267,0.98933 1.44133,0.30533 2.812,-0.24267 4.23733,-0.35067 1.44267,-0.108 3,-0.208 4.432,-10e-4 z"
       id="path17"
       style="stroke-width:1.33333;fill:#000000;fill-opacity:1" /><path
       opacity="0.2"
       d="m 321.71066,139.316 c 0,0 3.60133,5.56533 9.16667,5.07466 1.74666,-0.15466 3.51466,-0.18666 5.25466,-0.40266 1.84533,-0.228 2.89333,-1.37467 4.44933,-2.30667 -0.34,1.34267 -0.51866,2.77733 -1.36266,4.02533 -1.49334,2.20934 -2.98667,2.62134 -5.53067,2.55734 -2.15333,-0.0547 -4.824,-0.368 -6.57733,-1.74534 -2.28933,-1.8 -5.4,-7.20266 -5.4,-7.20266 z"
       id="path18"
       style="stroke-width:1.33333" /><path
       opacity="0.2"
       d="m 324.38133,151.73066 c -0.132,0.87867 -0.0773,1.768 0.044,2.63867 0.12,0.86533 -0.08,1.74933 0.17333,2.59867 0.48933,1.63466 1.07867,3.28133 1.81733,4.80266 0.19867,0.408 0.53467,0.488 0.76934,0.948 0.224,0.44 0.37733,0.93067 0.616,1.35467 0.0547,-0.68933 -0.44,-1.43333 -0.624,-1.98533 -0.26667,-0.8 -0.33067,-1.66134 -0.59067,-2.48 -1.06933,-3.37867 1.76267,-7.48534 -0.316,-10.60667 -1.24667,-1.872 -4.05467,-0.30933 -5.784,-1.476 -0.46667,0.308 -0.24133,0.736 -0.0787,1.15733 0.22,0.57067 0.41734,1.12934 0.57467,1.72534 0.21467,0.81733 0.44267,1.70266 0.80267,2.436 -0.0827,-0.87467 0.516,-2.21734 1.33066,-2.59467 1.19334,-0.55333 1.22134,0.848 1.26534,1.48133 z"
       id="path19"
       style="stroke-width:1.33333" /><path
       id="path20"
       style="stroke-width:1.33333;fill:#000000;fill-opacity:1;opacity:0.2"
       d="M 302.41992 70.173828 C 301.54926 74.797823 303.08967 79.62626 304.51367 84.044922 C 306.08033 88.904917 304.57373 93.858817 302.67773 98.382812 C 301.94974 100.11881 301.7567 101.87275 301.08203 103.60742 C 300.29803 105.62475 299.58083 107.36539 300.41016 109.52539 C 301.78348 113.10272 306.39799 114.83038 305.97266 118.87305 C 305.75666 120.92904 306.10198 123.61334 304.47266 125.13867 C 302.78332 126.72001 300.09483 126.9007 297.9375 126.35938 C 295.36283 125.71404 292.83639 124.8868 290.26172 124.24414 C 287.65639 123.59347 285.03581 123.2315 282.50781 122.46484 C 281.41048 122.1315 280.28734 122.16926 279.16602 122.39062 C 278.10202 122.59996 273.85213 124.69416 272.9668 123.54883 C 272.16547 122.51016 273.46298 120.18766 274.32031 119.48633 C 275.76031 118.30766 278.63574 117.74702 280.42773 117.42969 C 281.8184 117.18302 283.49991 117.53281 284.78125 117.13281 C 282.51325 116.96614 280.02159 116.96852 277.79492 117.19922 C 275.96025 117.38989 274.42095 117.69536 272.73828 118.44336 C 270.15028 119.59402 268.32201 121.71102 266.02734 123.29102 C 264.82601 124.11768 263.63047 124.5625 262.23047 125.0625 C 261.02647 125.49317 259.90996 125.9807 258.64062 126.2207 C 257.36063 126.46203 256.06944 126.32492 254.77344 126.40625 C 255.58944 127.03292 256.5728 127.41005 257.57812 127.63672 C 258.47812 127.83939 259.37883 128.08369 260.29883 128.17969 C 261.0815 128.26099 261.85905 128.11605 262.62305 128.24805 C 264.31905 128.54005 265.96 128.8708 267.63867 128.21484 C 267.18267 128.89884 265.9225 129.28487 265.20117 129.6582 C 263.43583 130.56887 261.47023 130.96693 259.49023 131.07227 C 258.31024 131.13497 257.10075 131.02232 255.96875 130.73828 C 254.48209 130.36628 252.8567 130.01215 251.44336 129.52148 C 252.8607 130.56148 254.99017 131.30123 256.6875 131.72656 C 258.53417 132.18923 260.44713 132.29253 262.3418 132.14453 C 262.8538 132.10453 266.68581 131.99033 266.61914 131.625 C 266.81781 132.72766 265.3662 133.99173 264.51953 134.42773 C 262.29287 135.57706 259.65555 135.86167 257.21289 135.375 C 255.97555 135.12834 254.80283 134.74428 253.66016 134.21094 C 254.41616 135.20561 255.44989 136.00895 256.69922 136.23828 C 257.46722 136.37961 258.38987 136.41284 259.14453 136.46484 C 260.88187 136.58484 262.69405 136.39357 264.35938 136.54297 C 262.39538 139.37631 255.98756 139.63806 252.99023 139.05273 C 253.3449 139.12203 253.89944 139.73648 254.30078 139.89648 C 254.78478 140.08981 255.31588 140.23791 255.81055 140.39258 C 257.42655 140.89524 258.33936 140.83118 259.44336 142.22852 C 260.32203 143.34051 260.90252 144.70816 261.97852 145.66016 C 263.19318 146.73482 264.79919 147.45275 266.00586 148.46875 C 264.70319 147.61142 264.08439 145.82453 264.17773 144.2832 C 264.34173 141.60321 266.89503 138.37397 268.56836 136.41797 C 271.3897 133.12197 275.15869 130.02904 279.69336 130.0957 C 283.47469 130.1504 287.9568 130.30514 291.57812 131.50781 C 293.50212 132.14647 297.34891 134.70375 297.99023 135.34375 C 298.63156 135.98375 298.95188 140.77539 298.31055 141.41406 C 297.76522 141.95806 296.96303 142.21259 296.3457 142.66992 C 295.64037 143.19392 294.97651 143.77295 294.22852 144.23828 C 292.74052 145.16495 291.58778 145.93281 289.81445 145.99414 C 287.96645 146.05814 286.12612 145.96763 284.30078 145.79297 C 282.60212 145.6303 280.87704 145.33217 279.23438 144.9375 C 277.14105 144.43483 275.03598 143.37709 273.08398 142.48242 C 271.99333 141.98242 270.72564 140.99706 269.54297 140.78906 C 269.54297 140.84776 269.57523 140.88696 269.61523 140.93359 C 270.41657 141.89226 275.22669 146.68586 279.55469 147.64453 C 284.46268 148.73119 290.73146 147.90987 295.43945 146.2832 C 296.52078 145.90854 297.38447 144.81419 298.48047 144.88086 C 299.39381 144.93686 300.8812 145.59438 301.5332 146.23438 C 300.8892 145.60238 299.73422 143.97777 300.57422 143.14844 C 301.51555 142.21777 302.94983 143.82513 303.53516 144.5918 C 304.6605 146.06646 304.90064 148.04669 305.55664 149.69336 C 305.52064 147.58536 305.7247 145.43253 304.85938 143.50586 C 304.12871 141.88053 302.51108 139.37294 303.59375 137.59961 C 304.76708 135.67694 306.54463 137.51028 308.14062 137.20898 C 307.99263 136.30365 307.59403 135.42853 307.44336 134.50586 C 307.11136 132.46186 306.93278 130.48328 307.16211 128.36328 C 307.33144 126.79528 307.48464 125.24211 307.55664 123.66211 C 307.61934 122.31944 307.94841 120.7843 307.81641 119.4043 C 307.79771 119.21363 307.77177 119.02641 307.73438 118.84375 C 307.42371 117.33441 306.029 116.26845 305.34766 114.92578 C 303.49833 111.28045 302.74299 106.58389 303.73633 102.58789 C 304.19633 100.73455 305.00299 98.846691 305.95898 97.193359 C 306.68831 95.932028 308.08768 94.279525 308.04102 92.880859 C 307.98772 91.258194 306.95481 89.109483 306.52148 87.521484 C 305.03349 82.06549 305.61459 74.991156 302.41992 70.173828 z M 339.68945 121.78125 C 337.17257 121.86687 334.73192 124.16825 332.60742 125.10742 C 329.88609 126.31142 326.92128 127.12057 324.11328 128.11523 C 323.81328 128.22189 323.42364 128.81773 323.20898 129.03906 C 322.56099 129.71106 321.92078 130.3918 321.30078 131.0918 C 320.76078 131.6998 320.14948 132.33035 319.74414 133.04102 C 319.53214 133.41435 319.53961 133.74958 319.46094 134.15625 C 319.31428 134.90825 319.14114 135.60619 319.0918 136.38086 C 319.0398 137.21019 318.93806 138.01266 318.91406 138.83398 C 318.93806 138.00466 319.74469 138.38276 319.94336 138.80273 C 320.16469 139.27073 319.84988 140.01606 319.92188 140.52539 C 320.04987 141.43206 320.32699 142.28065 320.59766 143.19531 C 321.07632 144.81265 322.357 146.66353 323.84766 147.51953 C 322.68633 146.16219 321.98986 144.23956 321.64453 142.49023 C 321.49519 141.73557 321.32178 140.95398 321.28711 140.19531 C 321.26181 139.63798 321.44677 137.88064 322.27344 139.05664 C 322.42677 138.10597 322.90216 137.63881 323.41016 136.88281 C 323.58749 136.61748 323.77275 136.3315 323.96875 136.04883 C 324.39542 135.43283 324.87269 134.82355 325.44336 134.43555 C 326.38736 133.79155 327.38049 133.22189 328.39648 132.69922 C 330.20448 131.76989 332.10074 130.95943 334.05273 130.38477 C 337.36073 129.41143 340.60451 131.94271 342.58984 134.4707 C 342.64054 134.5347 345.59702 131.05403 345.81836 130.7207 C 346.73302 129.33537 347.50354 127.67131 347.1582 125.97266 C 346.8942 124.67266 345.45528 123.98462 344.36328 123.50195 C 343.23928 123.00595 341.93281 122.17462 340.77148 121.89062 C 340.40948 121.80196 340.04901 121.76902 339.68945 121.78125 z M 332.36133 147.90039 L 331.59375 149.98828 C 331.59375 149.98828 340.1575 156.90441 339.9375 161.95508 C 339.7175 167.00573 338.07153 173.29258 337.74219 174.25391 C 337.41286 175.21524 335.54538 178.21835 334.88672 179.17969 C 334.22805 180.14102 333.34983 184.57507 331.8125 187.53906 C 330.28317 190.48973 328.75294 194.96257 328.73828 195.00391 C 328.65558 195.24657 328.9862 195.75395 329.01953 196.00195 C 329.2142 197.46728 328.68181 199.32993 328.48047 200.80859 C 328.17514 203.05792 328.43777 203.83771 329.11914 205.98438 C 330.00447 208.7697 329.83919 211.59552 330.00586 214.46484 C 331.50586 213.31418 332.25933 208.36639 331.88867 206.51172 C 331.526 204.69572 330.25156 203.20337 329.99023 201.35938 C 329.72756 199.50072 330.6654 197.61539 330.16406 195.77539 C 329.83473 194.56739 332.36041 189.62584 333.67773 188.08984 C 334.99507 186.55252 334.66583 182.06611 336.3125 180.02344 C 337.95917 177.98078 339.16575 173.77392 340.59375 169.44727 C 342.02175 165.12193 344.76752 161.07782 342.24219 157.67383 C 339.71953 154.2685 332.14266 149.87639 332.36133 147.90039 z M 294.13281 149.88086 C 293.24081 150.85019 292.56667 152.60466 292.5 153.97266 C 292.452 154.95666 292.89042 155.6472 293.12109 156.50586 C 293.14639 156.59786 293.1675 156.69306 293.1875 156.78906 C 294.3875 162.86239 287.83527 164.09829 285.22461 168.23828 C 284.13527 169.96628 283.55694 172.34872 283.46094 174.35938 C 283.35694 176.56337 283.7135 178.0936 284.16016 180.07227 C 284.24816 180.4616 284.38042 180.01084 284.45508 180.4668 C 284.47908 176.28414 284.02136 172.74731 286.91602 169.33398 C 288.53335 167.42599 290.85389 166.14351 292.33789 163.96484 C 293.44456 162.33952 293.8953 160.40977 294.91797 158.78711 C 295.82464 157.34977 297.31481 155.83637 296.24414 153.98438 C 295.85348 153.30971 295.1345 152.86433 294.70117 152.23633 C 294.1545 151.44566 294.19147 150.87686 294.13281 149.88086 z " /><path
       opacity="0.2"
       d="M 306.48533,126.06933"
       id="path21"
       style="stroke-width:1.33333" /><path
       fill="#ffffff"
       d="m 336.08399,143.008 c 0.57467,-0.14134 0.844,-0.32134 0.844,-0.32134 l 2.78533,-2.73333 -0.0547,-5.484 -6.848,-0.87333 c 0,0 -6.248,1.47333 -7.53067,2.728 -1.28266,1.25466 -1.90933,4.01066 -1.93733,4.092 0,0 0.136,0.84533 0.65467,0.95466 0.51866,0.10934 3.356,1.90934 4.36533,1.85467 1.00933,-0.0547 7.72133,-0.21733 7.72133,-0.21733"
       id="path23"
       style="stroke-width:1.33333" /><path
       fill="#ffffff"
       d="m 271.06933,137.72 4.46666,-2.252 14.376,-0.512 5.288,2.456 2.824,2.76266 -1.12933,1.43334 c 0,0 -3.33467,0.204 -3.33733,0.20533 -0.44934,0.028 -1.588,0.904 -2.004,1.128 -1.00267,0.54133 -1.93734,0.66933 -3.04667,0.94933 -1.90533,0.48134 -4.37733,0.20667 -6.372,0.0853 -2.36267,-0.144 -5.31467,-0.41867 -7.05467,-2.176 -0.336,-0.33867 -4.332,-3.43734 -4.26533,-3.56934 -0.003,0.001 0.25467,-0.51066 0.25467,-0.51066 z"
       id="path24"
       style="stroke-width:1.33333" /><path
       fill="#754324"
       d="m 279.36133,134.968 c -0.372,0.84266 -0.58267,1.772 -0.58267,2.752 0,2.28266 1.152,4.52133 2.87733,5.76266 l 6.46134,0.60534 c 2.56,-0.992 4.37866,-3.46534 4.37866,-6.368 0,-0.85467 -0.164,-1.67067 -0.452,-2.42534 -3.168,-0.98133 -9.03866,-0.66133 -12.68266,-0.32666 z"
       id="path25"
       style="stroke-width:1.33333" /><ellipse
       cx="285.63733"
       cy="137.72"
       rx="2.9186664"
       ry="2.908"
       id="ellipse25"
       style="stroke-width:1.33333;fill:#000000;fill-opacity:1" /><path
       d="m 288.13066,144.23866 c -1.256,0.20267 -2.62667,0.0773 -3.76267,-0.028 -0.96133,-0.0893 -1.92266,-0.18 -2.884,-0.26933 l -0.104,-0.076 c -1.868,-1.34267 -3.07466,-3.75467 -3.07466,-6.14533 0,-1.01734 0.20933,-2.00667 0.62266,-2.94134 l 0.112,-0.25333 0.27734,-0.0253 c 4.136,-0.37867 9.72533,-0.62667 12.86533,0.34533 l 0.22,0.068 0.0813,0.21467 c 0.32,0.84 0.48267,1.712 0.48267,2.592 0,2.156 -0.99333,4.40266 -2.74933,5.70533 -0.59867,0.444 -1.32134,0.68933 -2.08667,0.81333 z m -6.29867,-1.212 c 0.24134,0.18267 1.22134,0.136 1.57067,0.17734 0.632,0.0747 1.264,0.152 1.89867,0.19066 1.216,0.076 2.568,0.0787 3.71733,-0.39066 1.94933,-0.796 3.004,-3.29734 3.004,-5.28534 0,-0.68933 -0.11467,-1.376 -0.34267,-2.04 -3.11466,-0.86933 -8.70666,-0.55866 -11.992,-0.26666 -0.29066,0.73866 -0.436,1.51333 -0.436,2.308 0,2.05333 1.008,4.12133 2.58,5.30666 z"
       id="path26"
       style="stroke-width:1.33333;fill:#000000;fill-opacity:1" /><ellipse
       fill="#ffffff"
       cx="283.09467"
       cy="136.96933"
       rx="1.6"
       ry="1.5946666"
       id="ellipse26"
       style="stroke-width:1.33333" /><path
       d="m 298.26799,140.48133 c -0.31066,-0.20267 -0.60266,-0.956 -0.82,-1.25867 -0.69066,-0.96266 -1.47066,-1.86933 -2.35066,-2.664 -1.40134,-1.264 -2.684,-1.824 -4.51867,-2.31866 -1.796,-0.48534 -3.644,-0.77734 -5.50133,-0.87867 -2.78267,-0.152 -5.59067,0.12667 -8.28667,0.84 -2.68,0.708 -5.09467,2.13333 -7.78,2.81467 0.86267,0.90933 1.34267,2.124 2.26267,2.984 0.45066,0.42133 0.87733,0.50933 1.4,0.75066 0.624,0.28667 1.15466,0.76267 1.76933,1.08267 0.392,0.204 1.63867,0.39333 1.88133,0.65333 -0.804,-0.86533 -3.75066,-3.128 -3.772,-4.21333 -0.0347,-1.756 3.00934,-1.79733 4.11867,-2.18933 7.50267,-2.65334 15.30133,0.27333 21.59733,4.39733 z"
       id="path27"
       style="stroke-width:1.33333;fill:#000000;fill-opacity:1" /><path
       d="m 295.34133,130.056 c -1.30534,-0.952 -2.50934,-1.94934 -4.02534,-2.57334 -1.60666,-0.66133 -3.31466,-1.02533 -4.99866,-1.43333 -2.68667,-0.652 -6.056,-1.12667 -8.75334,-0.30533 -1.50533,0.45866 -2.88,1.16933 -3.89466,2.37866 0.73333,-0.528 2.024,-0.736 2.896,-0.84666 1.57866,-0.19867 3.12266,-0.67334 4.696,-0.872 1.79066,-0.22534 3.92533,0.516 5.7,0.88533 2.57866,0.53733 5.03866,1.64133 7.196,3.19867 0.50533,0.36533 3.73066,3.53866 1.852,3.19733 -0.51467,-0.0933 -0.78534,-0.43467 -1.172,-0.75867 -0.96267,-0.80533 -2.02934,-1.65333 -3.268,-1.96133 -3.35067,-0.83467 -12.732,-1.50267 -14.74134,-0.668 0,0 11.39067,-0.16667 13.904,1.66933 1.40534,1.02667 2.87867,1.96667 4.364,2.87334 0.72667,0.444 1.50534,1.032 2.32667,1.26533 0.776,0.22 1.73067,0.896 2.54133,0.884 0.47867,-1.18 -0.85466,-2.99067 -1.51866,-3.87333 -0.872,-1.16134 -1.932,-2.20667 -3.104,-3.06 z"
       id="path28"
       style="stroke-width:1.33333;fill:#000000;fill-opacity:1" /><path
       d="m 323.73466,135.75333 c 0,0 4.244,-4.95067 10.256,-5.48133 z"
       id="path29"
       style="stroke-width:1.33333;fill:#000000;fill-opacity:1" /><path
       fill="#754324"
       d="m 332.02533,134.24666 c -1.08934,0.42267 -3.03867,0.356 -3.79734,0.76267 -1.38666,0.74267 -1.956,0.93733 -3.192,3.08933 0.25734,2.372 1.58,4.07067 3.32934,4.8 l 6.01333,-0.22133 c 1.536,-1.188 2.44133,-3.32267 2.44133,-5.508 0,-0.93733 -0.18667,-1.82667 -0.51867,-2.63333 -1.22266,-0.12 -2.72533,-0.23867 -4.27599,-0.28934 z"
       id="path30"
       style="stroke-width:1.33333" /><circle
       cx="331.33734"
       cy="137.87466"
       r="2.7839999"
       id="circle30"
       style="stroke-width:1.33333;fill:#000000;fill-opacity:1" /><circle
       fill="#ffffff"
       cx="329.10666"
       cy="135.95866"
       r="1.5266666"
       id="circle31"
       style="stroke-width:1.33333" /><path
       d="m 328.28666,143.336 -0.088,-0.036 c -1.99067,-0.82934 -3.33467,-2.756 -3.59467,-5.15467 l -0.016,-0.14133 0.0707,-0.12267 c 1.216,-2.11733 1.884,-2.472 3.09867,-3.11467 l 0.26533,-0.14133 c 0.46,-0.24667 1.19467,-0.336 1.972,-0.42933 0.684,-0.0827 1.39067,-0.16934 1.87333,-0.356 l 0.0827,-0.032 0.0893,0.003 c 1.332,0.0427 2.78,0.14134 4.304,0.292 l 0.26,0.0253 0.1,0.24133 c 0.36533,0.88933 0.55067,1.832 0.55067,2.79867 0,2.36533 -1,4.608 -2.61067,5.852 l -0.11067,0.0853 z m -2.80133,-5.14534 c 0.256,1.97734 1.35333,3.56 2.96133,4.268 l 5.772,-0.212 c 1.33866,-1.1 2.16533,-3.03066 2.16533,-5.07866 0,-0.76667 -0.132,-1.51334 -0.392,-2.22534 -1.37467,-0.13066 -2.684,-0.21733 -3.896,-0.26 -0.572,0.204 -1.296,0.292 -1.99733,0.376 -0.66267,0.08 -1.34933,0.164 -1.66533,0.332 l -0.26934,0.14267 c -1.148,0.61067 -1.63733,0.87067 -2.67866,2.65733 z"
       id="path31"
       style="stroke-width:1.33333;fill:#000000;fill-opacity:1" /><path
       d="m 336.11199,134.86933 c 2.78667,0.52133 2.29867,1.592 2.29867,3.89067 0,2.29866 -2.32667,4.248 -2.32667,4.248 0.24,0.612 2.44133,-1.508 2.64,-1.74267 0.67467,-0.79867 1.208,-1.71867 1.564,-2.70133 0.31867,-0.87867 0.16,-2.18134 0.74133,-2.912 0.48934,-0.61734 1.33067,-0.82267 1.78,-1.52934 -0.88666,0.11334 -1.808,0.0733 -2.68,-0.124 -0.76266,-0.17333 -1.35866,-0.63733 -2.07733,-0.82933 -1.696,-0.45067 -3.74133,-0.068 -5.47733,-0.068 -2.33467,0 -6.08533,1.85333 -6.85733,2.34933 -0.772,0.496 -2.152,3.972 -2.152,3.972 0,0 2.26133,-2.924 3.64133,-3.42 1.38,-0.49733 5.50667,-1.76933 8.90533,-1.13333 z"
       id="path32"
       style="stroke-width:1.33333;fill:#000000;fill-opacity:1" /><path
       d="m 297.61333,144.49066 c 0,0 -5.26667,3.25334 -11.04,3.87334 0,0 8.65333,1.08533 11.04,-3.87334 z"
       id="path33"
       style="stroke-width:1.33333" /><path
       d="m 326.36399,146.11866 c 0,0 7.42667,3.3 10.60933,1.768 0,0 -4.24266,3.18267 -10.60933,-1.768 z"
       id="path34"
       style="stroke-width:1.33333;fill:#000000;fill-opacity:1" /><path
       d="m 310.73999,175.592 c 1.65734,-0.79734 4.51334,-2.02 3.18,-4.29067 -0.98666,-1.68 -3.59866,-2.77067 -5.27466,-3.60667 -2.212,-1.10266 -5.536,-0.64 -7.44267,0.98534 -1.38133,1.17733 -0.78133,3.97066 0.372,5.14133 1.26,1.27867 3.64267,1.12 5.25467,0.87067 0.69066,-0.10534 6.42666,-0.584 3.91066,0.9 z"
       id="path35"
       style="stroke-width:1.33333;fill:#000000;fill-opacity:1" /><path
       d="m 318.33066,134.11466 c 0.28,-1.41466 8.44533,-9.384 8.44533,-9.384 0,0 -6.31733,6.52667 -6.72533,9.228 -0.64,4.23867 -0.864,8.196 0.28667,12.32134 1.22,4.37733 2.408,8.764 3.432,13.192 1.13866,4.93066 1.81466,9.91333 -1.40267,14.232 -0.692,0.92933 -1.85467,1.56933 -2.75333,2.30133 -0.66934,0.54533 -1.77734,1.564 -2.716,1.524 -0.12934,-1.004 2.01466,-2.41067 2.62266,-3.112 2.14667,-2.47733 2.79067,-4.692 3.02,-7.90667 0.23467,-3.28533 -0.384,-6.58933 -1.21466,-9.75466 -1.93334,-7.376 -4.44534,-14.096 -3.14,-21.85467 0.0453,-0.26267 0.0933,-0.52533 0.14533,-0.78667 z"
       id="path36"
       style="stroke-width:1.33333;fill:#000000;fill-opacity:1" /><path
       d="m 301.19466,149.524 c -0.0147,0.032 -0.028,0.0667 -0.0427,0.10133 -0.416,1.05333 0.208,2.392 0.136,3.49067 -0.0667,1.012 -0.636,2.08933 -1.012,3.04133 -0.668,1.68667 -1.148,3.44 -2.28533,4.85467 -1.41467,1.75733 -2.69867,3.536 -4.13067,5.27333 -1.09066,1.32267 -2.39066,2.54667 -3.276,4.016 -1.244,2.064 -2.25066,4.36133 -2.672,6.708 1.012,-1.41333 2.02667,-2.74667 3.12267,-4.08 0.79867,-0.972 1.69067,-2.52 2.824,-3.10667 -0.104,0.0533 1.82933,2.86534 2.13067,3.084 1.03333,0.75067 2.38933,0.99734 3.63466,1.10934 -0.89733,-0.08 -2.20266,-2.716 -2.52666,-3.42134 -2.128,-4.63066 0.78,-8.01066 3.50666,-11.52266 1.42534,-1.836 2.66267,-4.15734 2.88534,-6.45067 0.0973,-1.004 -0.008,-1.96267 -0.50934,-2.80133 -0.556,-0.92534 -1.30133,-1.388 -1.78533,-0.296 z"
       id="path37"
       style="stroke-width:1.33333;fill:#000000;fill-opacity:1" /><path
       d="m 322.11599,175.12933 c 1.44667,0.032 3.46934,0.51333 4.72134,-0.39733 1.16933,-0.85067 1.41466,-2.45734 0.78933,-3.71467 -0.48933,-0.98533 -2.212,-1.80933 -3.22933,-2.00933 -1.75734,-0.34534 -1.548,0.84 -2.032,2.196 -0.45067,1.26533 -1.156,2.65733 -1.45334,3.996 0.02,-0.0813 0.524,-0.0853 1.204,-0.0707 z"
       id="path38"
       style="stroke-width:1.33333;fill:#000000;fill-opacity:1" /><path
       d="m 325.15199,150.72266 c -0.11733,-0.42133 -0.396,-0.75866 -0.94,-0.92933 -1.27333,-0.4 -2.336,1.42667 -2.28533,2.44933 0.0573,1.13734 0.948,3.06934 1.48933,4.11467 1.064,2.05333 2.09734,4.15467 3.27334,6.14667 1.716,2.908 4.84533,8.62933 1.33733,11.78666 0.36267,-0.32666 0.864,-0.524 1.23867,-0.86133 0.78,-0.70133 0.80666,-1.42933 1.33466,-2.212 1.4,1.536 2.63334,3.95067 2.58667,6.072 0.56666,-1.69467 -0.18933,-3.69867 -0.94667,-5.16933 -0.50133,-0.97334 -1.21866,-1.82667 -1.68133,-2.82134 -0.452,-0.96933 -0.52667,-1.86 -1.096,-2.79466 -0.73867,-1.21334 -1.17067,-2.58267 -1.84933,-3.82667 -1.41467,-2.59333 -3.07467,-5.308 -2.93734,-8.40667 0.0387,-0.86 0.77467,-2.47866 0.476,-3.548 z"
       id="path39"
       style="stroke-width:1.33333;fill:#000000;fill-opacity:1" /><path
       fill="#cd976d"
       d="m 215.13866,129.23066 c 0,0 -3.36133,-7.508 -5.37867,-9.076 -2.01733,-1.56933 -6.724,-2.35333 -9.63733,0.112 -2.91333,2.46534 -9.076,10.98134 -8.18,14.568 0.896,3.58534 5.71467,11.20534 7.732,14.34267 2.01733,3.13733 5.82667,11.20533 7.732,13.78267 1.292,1.74933 2.88933,4.04666 5.324,3.10266 2.164,-0.83866 4.43467,-4.268 4.42,-6.53066 -0.0187,-2.92134 -2.78267,-5.264 -2.876,-8.18267 -0.0773,-2.42133 1.59733,-4.31733 2.24933,-6.536 0.74534,-2.532 0.14667,-5.4 -0.0853,-7.98267 -0.124,-1.38266 -0.33333,-2.74533 -0.56,-4.11333 -0.19067,-1.164 -0.252,-2.396 -0.74,-3.48667 z"
       id="path40"
       style="stroke-width:1.33333" /><path
       d="m 214.08666,128.21733 c 0.40933,-4.732 -3.58667,-10.85333 -8.67867,-10.85333 -7.53466,0 -15.44533,11.30133 -13.93733,18.45866 1.50667,7.15734 10.548,18.83467 12.43067,24.10934 1.88266,5.27466 9.40133,10.01066 12.808,7.53466 2.072,-1.50666 2.82533,-3.57866 2.82533,-3.57866 0,0 -4.144,3.20133 -8.288,0.75333 -4.144,-2.448 -6.404,-6.96933 -7.53467,-10.35867 C 202.58133,150.89333 193.164,140.16 193.164,135.636 c 0,-6.592 6.96799,-15.444 9.98266,-15.256 2.25733,0.14133 4.66533,0.952 6.38133,2.46 1.7,1.49066 2.57467,4.272 4.55867,5.37733 z"
       id="path41"
       style="stroke-width:1.33333;fill:#000000;fill-opacity:1" /><path
       opacity="0.2"
       d="m 200.57733,127.20266 c 0,0 -4.368,1.62267 -4.992,6.23867 -0.624,4.61733 -0.12533,6.86267 1.872,9.10933 1.996,2.24667 1.248,2.24667 4.24266,2.496 2.99467,0.24934 4.86667,2.12134 5.616,4.86667 0,0 0.49867,-5.616 3.36934,-7.36267 0,0 0.624,-2.12133 -0.49867,-7.36266 -1.12267,-5.24134 -1.996,-6.86267 -3.99333,-8.11067 -1.99734,-1.24667 -5.616,0.12533 -5.616,0.12533 z"
       id="path42"
       style="stroke-width:1.33333;fill:#000000;fill-opacity:1" /><path
       d="m 195.99066,130.92533 c 0,0 2.448,-5.46267 6.96933,-5.46267 4.52134,0 6.96934,2.82534 7.15734,6.02667 0.188,3.20133 4.144,10.35867 1.50666,12.05467 -2.63733,1.69466 -4.52,6.78 -3.39066,8.09866 1.13066,1.31867 4.144,4.70934 4.144,4.70934 0,0 -4.52,-2.63734 -6.02667,-5.08534 -1.50667,-2.448 0.56533,-7.15733 2.63733,-8.852 2.072,-1.69466 -1.13066,-9.22933 -1.13066,-11.11333 0,-1.884 -3.57867,-4.89733 -5.08534,-4.144 -1.508,0.75467 -6.78133,3.768 -6.78133,3.768 z"
       id="path43"
       style="stroke-width:1.33333;fill:#000000;fill-opacity:1" /><path
       d="m 208.60933,130.172 c 0,0 -4.144,3.39066 -4.332,5.83866 -0.188,2.448 5.83866,-0.188 5.83866,-0.188 z"
       id="path44"
       style="stroke-width:1.33333" /><path
       d="m 202.39466,130.36 c 0,0 -2.26,4.70933 -2.26,6.404 0,1.69466 0.188,5.83866 0.188,5.83866 0,0 -2.82533,-5.83866 -2.072,-7.53466 0.75334,-1.69467 4.144,-4.708 4.144,-4.708 z"
       id="path45"
       style="stroke-width:1.33333;fill:#000000;fill-opacity:1" /><path
       d="m 209.92799,138.27066 -5.27333,2.82534 c 0,0 6.404,1.31866 6.404,0.75333 0,-0.56533 -0.56533,-3.76667 -0.56533,-3.76667"
       id="path46"
       style="stroke-width:1.33333" /><path
       id="path47"
       style="stroke-width:1.33333;fill:#000000;fill-opacity:1"
       d="M 303.05859 70.617188 C 303.03593 70.610833 303.01065 70.613239 302.98633 70.628906 C 300.81966 72.024905 298.8905 73.646277 297.20117 75.599609 C 296.57317 76.326275 296.23861 77.368027 295.33594 77.693359 C 294.34528 78.050693 292.93964 77.506156 291.93164 77.410156 C 289.89298 77.216823 288.44101 77.035422 286.40234 77.607422 C 288.56101 77.700755 291.03062 77.783204 293.11328 78.783203 C 295.38528 79.872535 292.52612 82.516517 291.93945 83.728516 C 290.85678 85.964513 290.6746 88.512732 290.19727 90.914062 C 289.79327 92.95006 289.48212 94.256117 288.43945 96.050781 C 287.53812 97.60278 286.22571 99.459387 284.48438 100.13672 C 283.68788 100.44625 282.0088 100.26743 280.55078 99.816406 C 281.44316 100.61183 281.97239 101.65018 281.19922 102.78711 C 280.63655 103.61377 279.45505 104.30178 278.76172 105.06445 C 277.92572 105.98445 277.15158 106.96236 276.40625 107.95703 C 274.28625 110.78503 277.07656 114.8488 273.97656 117.07812 C 272.8568 117.88339 271.65099 118.57316 270.55078 119.4668 C 271.69946 118.66024 273.31062 118.33449 274.60742 118.03125 C 276.38209 117.61659 276.83064 117.1722 277.80664 118.76953 C 278.61064 120.08686 279.59275 121.07852 279.19141 122.75586 C 278.82875 124.27452 278.83966 126.3625 279.84766 127.70117 C 280.421 128.6105 281.10575 129.30885 281.73242 130.10352 C 281.65375 131.13151 280.58987 132.44216 281.2832 133.54883 L 281.28516 133.54883 C 281.3305 133.65947 281.50531 133.59176 281.47461 133.48242 C 281.27194 132.66642 281.62783 132.15647 282.0625 131.48047 C 282.28783 130.94847 282.73039 130.52647 282.65039 129.86914 C 281.94505 128.28914 280.42874 126.72897 280.52344 125.1543 C 280.52611 123.63164 281.44893 122.04533 280.82227 120.36133 C 280.0036 118.08133 277.97719 116.77654 277.25586 114.56055 C 276.61453 112.41788 276.20542 111.22656 278.85742 111.22656 C 274.20676 111.22656 279.4553 106.80575 280.7793 105.73242 C 285.21662 102.13509 290.27205 106.08772 294.88672 107.37305 C 293.71872 106.05972 291.16084 105.33395 289.60352 104.64062 C 288.76352 104.26596 287.0114 103.75948 286.55273 102.99414 C 285.9474 101.98348 286.61236 100.82261 287.3457 100.11328 C 288.49636 98.998616 289.31999 98.602477 289.86133 97.007812 C 291.55599 92.01315 293.55364 87.124953 295.04297 82.015625 C 296.17097 78.143629 300.0628 73.355013 303.10547 70.791016 C 303.17247 70.735018 303.12659 70.63625 303.05859 70.617188 z M 270.55078 119.4668 C 270.36607 119.59649 270.19057 119.73595 270.0332 119.89258 C 270.20001 119.73973 270.37762 119.60745 270.55078 119.4668 z M 280.55078 99.816406 C 279.83386 99.177386 278.88868 98.693402 278.15625 98.46875 C 278.54275 99.018181 279.48816 99.487695 280.55078 99.816406 z M 278.15625 98.46875 C 278.15247 98.463379 278.14625 98.45851 278.14258 98.453125 C 278.09958 98.415795 278.09607 98.418268 278.13477 98.460938 C 278.14143 98.462951 278.14955 98.466694 278.15625 98.46875 z M 317.90234 71.689453 C 317.87434 71.737449 317.88885 71.798795 317.93555 71.828125 C 319.11422 72.633458 319.76458 73.890882 320.25391 75.185547 C 320.56591 76.01088 321.0582 77.077933 321.1582 77.947266 C 321.26353 78.863265 321.23499 78.853411 320.09766 79.080078 C 320.33366 79.032078 321.72582 80.312302 321.89648 80.542969 C 322.22582 80.988301 322.21863 81.380766 322.39062 81.884766 C 323.01995 83.738097 324.01395 85.468258 324.72461 87.294922 C 325.45528 89.173587 325.91013 91.131533 326.57812 93.019531 C 326.80345 93.658197 327.3859 94.302479 327.11523 95.007812 C 327.0099 95.283812 325.96316 96.165427 325.67383 95.996094 C 327.0325 96.789426 327.88159 98.088564 328.65625 99.476562 C 328.99892 100.08989 329.48578 100.89247 329.39648 101.61914 C 329.24448 102.8498 328.12652 102.53471 327.11719 102.74805 C 329.66918 102.67071 332.55667 104.51411 334.25 106.30078 C 338.518 110.80478 339.72356 117.96555 338.21289 123.82422 C 337.88356 125.17755 336.8682 126.04331 336.04688 127.19531 C 334.85358 128.66998 334.77958 130.27926 336.12891 131.66992 C 336.57558 132.20992 336.87946 132.7872 336.91016 133.50586 C 336.91416 133.54856 336.94623 133.59256 336.99023 133.60156 C 337.04493 133.61356 337.09738 133.57814 337.10938 133.52344 C 337.30404 132.79144 337.06712 131.94664 336.70312 131.30664 C 335.21246 129.18798 337.26737 127.97647 338.58203 126.48047 C 339.64603 125.35114 340.13763 123.659 340.4043 122.15234 C 340.65494 120.53235 340.62152 118.88029 340.35352 117.26562 C 340.16286 116.1083 339.45922 114.90908 339.33789 113.84375 C 340.23922 113.55841 341.16808 114.07847 341.94141 114.50781 C 342.36275 114.74114 343.96964 115.38228 344.18164 115.73828 C 342.99898 113.75428 340.64381 113.60213 339.00781 112.2168 C 338.12514 111.4688 337.81122 110.27458 337.19922 109.28125 C 336.85388 108.72258 336.50903 108.13114 336.0957 107.61914 C 335.66503 107.08448 335.26527 107.00584 334.83594 106.58984 C 334.07861 105.85384 334.01371 104.9998 334.62305 104.0918 C 335.56171 102.69313 337.3593 102.36046 338.91797 102.20312 C 338.5473 102.24046 337.92466 101.86328 337.47266 101.86328 C 336.90599 101.86462 336.35694 102.04489 335.82227 102.21289 C 334.79694 102.53422 333.68036 103.1834 332.56836 103.05273 C 332.20703 103.01006 331.94981 102.93374 331.75781 102.81641 C 331.33514 102.55907 331.22695 102.11126 330.98828 101.44727 C 330.47095 100.00993 329.6134 98.961967 329.30273 97.417969 C 328.55741 93.713972 328.21992 89.995751 326.69727 86.482422 C 325.87993 84.59709 324.76954 82.850478 323.9082 81.007812 C 325.42287 80.775813 327.01043 82.032578 328.62109 81.892578 C 327.62242 80.465914 325.67367 80.286197 324.23633 79.519531 C 322.35633 78.515532 322.14459 76.533904 321.16992 74.753906 C 320.45792 73.528573 319.34767 71.924119 317.90234 71.689453 z M 274.86914 119.16016 C 274.32914 119.60949 273.7186 119.96888 273.19727 120.43555 C 271.8386 121.65288 271.12433 123.54078 270.375 125.16211 C 270.003 125.96745 269.75113 126.83796 269.3418 127.64062 C 268.66313 128.96728 267.61069 130.13049 266.69336 131.28516 C 266.15069 131.96916 265.64044 132.68101 265.14844 133.40234 C 264.9991 133.62101 264.15889 135.22514 263.96289 135.23047 C 265.57622 135.19047 267.43415 131.4607 268.63281 130.2207 C 270.61948 128.16604 272.91028 126.21706 275.23828 124.42773 C 274.76895 124.58639 270.15955 126.64069 270.43555 127.30469 C 270.00355 126.26602 271.39145 124.10173 271.80078 123.17773 C 272.53012 121.53108 273.58114 120.45615 274.86914 119.16016 z M 282.43555 144.125 C 282.38355 144.1063 282.32531 144.13159 282.30664 144.18359 C 282.08664 144.77825 282.2628 145.54613 282.60547 146.07812 C 283.72413 147.61279 283.15431 148.8021 281.93164 150.24609 C 280.50631 152.09276 278.89725 153.88063 277.64258 156.00195 C 277.02125 157.22195 276.43697 158.45997 275.79297 159.66797 C 275.20897 160.76397 274.5702 161.47198 273.6582 162.30664 C 273.10753 162.81064 272.51947 163.3324 271.85547 163.67773 C 270.4808 164.39373 268.82834 164.81412 267.29102 164.93945 C 266.72969 164.98615 266.17222 165.01953 265.60156 165.01953 C 265.31622 165.01953 264.8708 164.92753 264.60547 165.01953 C 264.32147 165.11823 264.23519 165.33169 264.50586 165.54102 C 264.90186 165.84902 265.87186 165.80992 266.39453 165.80859 C 267.1132 165.80559 267.81286 165.74329 268.51953 165.66992 C 269.0822 165.61122 269.63264 165.49712 270.19531 165.45312 C 270.41798 165.43583 270.70234 165.44449 270.90234 165.36719 C 271.17301 165.84185 269.48093 166.68238 269.18359 166.87305 C 268.47693 167.32505 267.59236 167.44884 266.92969 167.96484 C 265.90036 168.76884 265.33472 169.96619 264.02539 170.38086 C 263.42539 170.57152 262.73048 170.42839 262.14648 170.62305 C 262.63981 170.80839 263.11786 170.98201 263.64453 171.02734 C 264.00053 171.05804 264.71989 170.88691 264.86523 171.15625 C 265.05856 171.51358 264.48909 172.41499 264.34375 172.73633 C 263.98775 173.52433 263.7875 174.93817 263.04883 175.46484 C 263.86083 175.08217 264.49788 174.31916 264.92188 173.53516 C 265.1432 173.12449 265.2727 172.59658 265.58203 172.25391 C 266.00203 171.78858 266.46425 172.04401 266.93359 172.30664 C 267.46559 172.60398 267.98289 172.91664 268.60156 172.91797 C 268.19889 172.80064 267.75567 172.42784 267.40234 172.20117 C 266.97567 171.92784 266.0925 171.37931 265.8125 170.91797 C 265.40316 170.24464 266.13517 169.4028 266.58984 168.9668 C 267.34051 168.24814 268.2271 167.71571 269.14844 167.23438 C 270.1471 166.71305 271.25806 166.29945 272.13672 165.57812 C 272.98872 164.87813 273.65337 163.98848 274.4707 163.25781 C 274.17603 164.16714 274.02909 165.34478 273.98242 166.30078 C 273.91842 167.63278 274.24994 168.95787 274.22461 170.2832 C 274.20591 171.21787 274.0352 172.49771 273.14453 172.98438 C 272.42053 173.38037 271.57533 173.65033 270.75 173.625 C 271.41 173.625 272.28402 173.76367 272.91602 173.625 C 273.26402 173.549 273.60603 173.34381 273.94336 173.23047 C 276.1447 172.49181 276.5608 175.29727 277.35547 176.69727 C 278.51547 178.77993 280.32065 180.64049 281.83398 182.39648 C 284.58331 185.90048 287.35423 190.13933 286.99023 194.83398 C 286.97553 194.94998 287.14893 194.98359 287.18359 194.87695 C 288.11293 192.58363 287.794 189.87127 286.97266 187.58594 C 285.738 182.75394 281.77145 179.51631 278.93945 175.68164 C 276.61279 171.92964 273.09619 167.52179 275.49219 162.98047 C 277.48686 157.8378 281.66467 154.35792 284.11133 149.44727 C 284.37533 148.8206 284.48057 148.01179 284.25391 147.31445 C 283.92857 145.96912 282.51928 145.59413 282.50195 144.2168 C 282.50095 144.1768 282.47695 144.1396 282.43555 144.125 z M 333.65039 144.70508 C 333.59569 144.70108 333.54697 144.74283 333.54297 144.79883 C 333.48697 146.66017 332.17884 147.61513 331.07617 148.98047 C 330.89354 149.19913 330.92333 149.52753 331.11133 149.74219 C 332.974 152.42485 335.47983 154.31001 337.0625 157.02734 C 337.5105 157.78734 337.89126 158.85849 338.30859 159.78516 C 339.74993 162.68915 339.14593 165.60594 338.30859 168.86328 C 337.74059 171.13528 337.97532 173.57775 336.83398 175.59375 C 336.29398 176.56042 335.57357 177.4138 334.87891 178.3418 C 332.59091 181.12579 332.60389 183.27375 331.58789 186.23242 C 330.46145 189.15185 328.39245 192.10416 328.85938 195.44336 C 328.87194 195.55493 329.04471 195.55001 329.05664 195.44531 C 329.63397 192.22132 331.90011 189.85729 333.18945 186.89062 C 334.59211 183.9013 333.83094 181.95028 335.57227 178.87695 C 336.10294 177.89295 336.79289 176.9743 337.35156 175.93164 C 338.49822 173.89564 338.59269 171.38029 339.44336 169.26562 C 340.31536 167.0683 341.2391 164.7193 341.00977 162.41797 C 340.5991 159.03264 339.2384 155.68153 336.78906 153.26953 C 335.33842 151.79901 333.79173 150.56042 332.41211 149.22461 C 332.75143 148.67272 333.14447 148.11775 333.45312 147.46094 C 333.80646 146.62494 334.07172 145.45175 333.65039 144.70508 z " /><path
       opacity="0.2"
       d="m 314.46533,70.566665 c 2.16,3.386666 2.39866,7.602666 2.78133,11.48 0.38533,3.898666 -0.64133,8.198666 1.28,11.658666 3.90133,7.026669 7.25333,14.085329 6.00667,22.211999 -0.34934,2.276 0.38266,3.468 1.464,5.44933 0.91466,1.67467 0.43066,3.356 -0.56,4.94134 0.0453,-1.51467 -0.48534,-2.88134 -1.388,-4.06267 -1.11734,-1.46133 -2.31867,-2.14133 -2.26534,-4.23067 0.12534,-4.87866 2.75467,-9.624 0.40667,-14.38666 -1.80133,-3.654669 -6.70267,-6.468002 -6.848,-10.662669 -0.0667,-1.913333 0.40133,-3.84 0.57867,-5.694667 0.23866,-2.495999 0,-4.885333 -0.29334,-7.334666 -0.42133,-3.52 -0.76533,-7.146666 -2.056,-10.342666 0.24134,0.406666 0.44134,0.866666 0.89334,0.973333 z"
       id="path52"
       style="stroke-width:1.33333;fill:#000000;fill-opacity:1" /><path
       opacity="0.2"
       d="m 329.41866,168.85066 c -1.82,-1.32 -4.04533,-2.39733 -6.00933,-3.28133 -4.244,-1.91067 -8.93067,-2.57733 -13.48667,-2.02933 -2.32667,0.28 -4.62267,0.876 -6.81067,1.78666 -2.176,0.90534 -3.67333,2.572 -5.75466,3.66 -0.396,-1.516 0.12266,-3.35866 0.568,-4.81733 0.49466,-1.61867 1.12266,-2.548 1.96533,-3.888 1.78267,-2.82933 3.57067,-5.77333 3.45867,-9.244 -0.044,-1.34267 -0.948,-3.40667 -2.736,-2.63467 -0.936,0.404 -0.99867,1.23734 -0.87867,2.096 0.064,0.46667 0.18267,0.94134 0.24133,1.35867 0.76134,5.332 -3.06666,7.764 -5.42133,12.304 -2.596,5.004 -6.07733,8.928 -7.06267,14.11867 -0.45866,2.41466 -1.77466,8.20133 0.18934,10.08266 -0.18934,-4.65466 -0.65867,-8.48666 2.16,-12.38666 0.432,-0.59867 0.92266,-1.14534 1.432,-1.67334 0.74533,-0.772 5.004,0.496 6.05466,0.51734 1.76934,0.0373 2.956,0.208 4.42934,1.21866 3.14266,2.156 6.58133,4.83334 10.37333,5.27067 3.82133,0.44 7.49733,-1.176 10.92267,-2.55467 2.09466,-0.84266 4.68133,-1.552 6.932,-1.42666 1.40133,0.0773 1.46133,-0.007 1.856,1.576 0.26533,1.06666 0.248,2.19333 0.56933,3.25066 -0.092,-0.304 0.964,-2.608 1.01733,-3.22 0.10267,-1.18133 -0.0547,-2.38 -0.32266,-3.524 -0.49734,-2.12266 -1.44,-4.78266 -3.06134,-6.08666 -0.20266,-0.15867 -0.41066,-0.31867 -0.62533,-0.47334 z"
       id="path53"
       style="stroke-width:1.33333;fill:#000000;fill-opacity:1" /><path
       opacity="0.2"
       d="m 287.29199,198.79066 c 1.684,-1.26533 3.89867,-2.35733 5.36,-2.65333 1.32134,-0.268 2.89067,0.0533 4.26534,-0.12 1.34533,-0.16933 2.67333,-0.63333 4.032,-0.87867 2.536,-0.45733 5.12666,-0.344 7.616,-0.872 2.61733,-0.55466 5.34133,-0.62933 7.99866,-0.36533 1.41867,0.14133 2.824,0.0893 4.15867,0.472 1.852,0.52933 6.21467,2.38133 8.02533,0.96133 0.50667,-0.39866 -3.82933,-5.18533 -4.33466,-5.50266 -2.87467,-1.808 -6.668,-0.18934 -9.78534,-0.312 -2.268,-0.0893 -4.78133,-1.29067 -7.028,-1.204 -1.33466,0.052 -2.59333,1.18933 -3.63066,1.94533 -1.55467,1.132 -3.29334,2.33333 -5.11734,2.94133 -1.77733,0.59334 -3.704,0.936 -5.57733,0.94267 -1.84933,0.007 -3.348,-0.77867 -5.144,-0.90667 -0.39733,-1.34933 0.0213,-2.36666 0.0453,-3.65066 0.0187,-1.00934 -0.46,-2.18267 -0.8,-3.11467 -0.72133,-1.976 -1.7,-3.96667 -2.99733,-5.63333 -1.53733,-1.976 -6.69733,-10.65067 -8.23467,-13.396 -1.53733,-2.74534 1.75734,-7.356 2.964,-9.33334 1.208,-1.976 4.72134,-6.808 5.6,-9.004 0.87867,-2.196 -1.976,-3.62266 -1.976,-3.62266 0,0 0.87867,1.31733 0.988,3.184 0.10934,1.86666 -3.29333,5.81866 -5.6,7.90533 -2.30666,2.08667 -3.73333,8.564 -3.95333,10.65067 -0.0933,0.884 0.61333,1.988 0.988,2.736 0.8,1.59866 1.71867,3.14 2.648,4.66533 2.10133,3.44933 4.33067,6.82933 6.668,10.124 0.41067,0.57867 0.82933,1.152 1.24933,1.724 0.732,0.99733 0.76667,1.47067 0.67467,2.70133 -0.20933,2.82134 -1.144,5.484 -2.828,7.764 -1.16133,1.57334 -3.31467,2.07867 -4.252,3.83467 -0.57333,1.07466 -0.424,2.62533 0.62133,3.24933 0.42534,0.25333 0.936,0.32533 1.432,0.31867 0.90267,-0.012 1.83867,-0.288 2.468,-0.93734 0.70134,-0.72266 0.92134,-1.77733 1.45867,-2.628 0.416,-0.64933 1.13867,-1.33999 1.99733,-1.98533 z"
       id="path55"
       style="stroke-width:1.33333;fill:#000000;fill-opacity:1" /><path
       d="m 327.81199,130.26133 c -0.81866,0.94 -1.62933,1.772 -2.28,2.84 -0.56533,0.92667 -1.168,2.07067 -2.11333,2.66133 0.50667,-0.772 1.052,-1.52933 1.46,-2.36133 0.34933,-0.71333 0.46533,-1.39733 0.93867,-2.06933 0.896,-1.27334 2.19066,-2.16 3.59733,-2.79067 2.25867,-1.01333 4.752,-1.368 7.21333,-1.31733 1.232,0.0253 2.47467,0.13866 3.68933,0.348 0.96667,0.16666 2.408,1.836 3.25067,0.55866 0.364,-0.552 0.72933,-1.47466 0.83733,-2.12266 0.296,-1.76934 -1.43866,-2.61334 -2.22,-3.944 0.80134,0.20933 1.71334,1.09066 2.28667,1.67066 1.14133,1.15334 1.22533,2.412 0.73733,3.932 -0.29333,0.91334 -0.86,1.72134 -1.124,2.64667 -0.11866,0.416 -0.004,0.844 -0.0947,1.22267 -0.12534,0.52666 -0.61867,1.056 -0.948,1.47066 -0.12,-1.28266 0.36933,-3.11066 -0.916,-3.96533 -1.49467,-0.99467 -3.55334,-0.84267 -5.24934,-0.69733 -1.75733,0.152 -3.51733,-0.0267 -5.27199,0.192 -1.30934,0.164 -2.90134,0.7 -3.79334,1.72533 z"
       id="path57"
       style="stroke-width:1.33333;fill:#000000;fill-opacity:1" /></g></svg>
