<?xml version="1.0" encoding="UTF-8" standalone="no"?>
<!-- Created with Inkscape (http://www.inkscape.org/) -->

<svg
   version="1.1"
   id="svg147711"
   width="400"
   height="400"
   viewBox="0 0 400 400"
   sodipodi:docname="RomulanForehead.svg"
   inkscape:version="1.2.2 (b0a8486, 2022-12-01)"
   xmlns:inkscape="http://www.inkscape.org/namespaces/inkscape"
   xmlns:sodipodi="http://sodipodi.sourceforge.net/DTD/sodipodi-0.dtd"
   xmlns="http://www.w3.org/2000/svg"
   xmlns:svg="http://www.w3.org/2000/svg">
  <defs
     id="defs147715" />
  <sodipodi:namedview
     id="namedview147713"
     pagecolor="#ffffff"
     bordercolor="#666666"
     borderopacity="1.0"
     inkscape:showpageshadow="2"
     inkscape:pageopacity="0.0"
     inkscape:pagecheckerboard="0"
     inkscape:deskcolor="#d1d1d1"
     showgrid="false"
     inkscape:zoom="2.0825"
     inkscape:cx="186.07443"
     inkscape:cy="200"
     inkscape:window-width="1980"
     inkscape:window-height="1053"
     inkscape:window-x="2409"
     inkscape:window-y="122"
     inkscape:window-maximized="0"
     inkscape:current-layer="g147719">
    <inkscape:page
       x="0"
       y="0"
       id="page147717"
       width="400"
       height="400" />
  </sodipodi:namedview>
  <g
     id="g147719"
     inkscape:groupmode="layer"
     inkscape:label="Page 1">
    <path
       d="m 311.43066,116.89574 c -0.0893,-0.30667 -0.268,-0.708 -0.552,-1.22667 -1.124,-2.05066 -2.68933,-3.95866 -4.08133,-5.82933 -3.83734,-5.15333 -7.936,-10.371999 -12.824,-14.581332 -7.196,-6.197334 -15.59334,-11.794667 -15.59334,-11.794667 3.88,2.586667 7.40267,6.472 10.72134,9.714667 1.92,1.874666 3.71866,3.762666 5.23866,5.968 2.76534,4.016002 5.804,7.770662 6.83067,12.797332 0.31333,1.532 -0.516,4.67067 1.03867,5.11467 1.79866,0.51466 3.28266,-1.06134 5.21466,-0.51867 0.53334,0.14933 4.61734,2.44667 4.00667,0.356"
       style="opacity:0.199997;fill:#000000;fill-opacity:1;fill-rule:nonzero;stroke:none;stroke-width:1.33333"
       id="path170825" />
    <path
       d="m 312.76586,109.45294 c 0.98667,2.30267 2.79867,6.39733 4.59733,5.19733 3.164,-2.108 4.89334,-6.75066 6.26267,-10.068 1.89733,-4.595996 3.94267,-9.141329 6.38533,-13.475996 1.688,-2.996 2.43467,-5.874666 2.992,-9.263999 0.19067,-1.158667 0.848,-3.362667 0.22534,-4.452 -0.24267,0.156 -0.352,0.397333 -0.47067,0.676 -1.62267,3.785333 -2.696,7.814666 -5.472,10.905333 -3.34667,3.725333 -5.43733,8.334666 -7.02533,13.037332 -0.82,2.43067 -1.51734,4.9 -2.22934,7.36533 -0.37333,1.296 -0.33733,2.356 -1.89466,1.772 -1.22934,-0.46133 -2.13867,-1.52533 -3.376,-1.96133 -0.0773,0.08 -0.0413,0.16 0.005,0.268"
       style="opacity:0.199997;fill:#000000;fill-opacity:1;fill-rule:nonzero;stroke:none;stroke-width:1.33333"
       id="path170841" />
    <path
       d="m 323.76106,109.45281 c 0,0 -4.39867,5.59733 -4.59867,6.79733 -0.19866,1.19867 0.8,0.8 2.2,0.6 1.39867,-0.2 -1,0.4 2.59867,-4.79867 3.59867,-5.19733 7.19733,-12.394662 5.59733,-10.39466 -1.59866,1.99866 -3.79866,4.99733 -5.79733,7.796"
       style="opacity:0.199997;fill:#000000;fill-opacity:1;fill-rule:nonzero;stroke:none;stroke-width:1.33333"
       id="path170857" />
    <path
       d="m 310.16693,106.65401 c 0,0 -12.59467,-14.393336 -19.992,-19.392002 0,0 17.39333,11.794666 18.792,13.594662 1.4,1.79867 3.59866,8.196 1.2,5.79734"
       style="opacity:0.199997;fill:#000000;fill-opacity:1;fill-rule:nonzero;stroke:none;stroke-width:1.33333"
       id="path170873" />
    <path
       d="m 315.70493,117.41961 c 0.0933,-1.21334 -0.464,-2.42 -0.85467,-3.55867 -1.31067,-3.55733 -3.26667,-6.73333 -6.336,-9.136 -3.92133,-3.30533 -7.39333,-6.970666 -10.78267,-10.811999 0,0 0.0813,-0.106667 0.0813,-0.106667 5.69333,3.202667 9.46933,8.558666 13.76,13.285336 2.55333,2.02133 4.42133,5.07066 4.576,8.412 0.0187,0.652 0.0333,1.36666 -0.32534,1.976 z"
       style="opacity:0.5;fill:#000000;fill-opacity:1;fill-rule:nonzero;stroke:none;stroke-width:1.33333"
       id="path170889" />
    <path
       d="m 328.01319,103.12281 c 2.19467,-3.633336 3.76134,-7.540002 6.48133,-10.888002 0,0 1.124,-2.193334 1.124,-2.193334 -0.26133,1.738667 -5.83999,11.190666 -7.24799,13.323996 -1.116,2.32667 -5.51867,8.284 -7.66,9.87734 0,0 5.548,-8.23734 7.30266,-10.12"
       style="opacity:0.5;fill:#000000;fill-opacity:1;fill-rule:nonzero;stroke:none;stroke-width:1.33333"
       id="path170905" />
  </g>
</svg>
