<?xml version="1.0" encoding="UTF-8" standalone="no"?>
<!-- Created with Inkscape (http://www.inkscape.org/) -->

<svg
   version="1.1"
   id="svg147711"
   width="400"
   height="400"
   viewBox="0 0 400 400"
   sodipodi:docname="RomulanForehead.svg"
   inkscape:version="1.3 (0e150ed, 2023-07-21)"
   xml:space="preserve"
   xmlns:inkscape="http://www.inkscape.org/namespaces/inkscape"
   xmlns:sodipodi="http://sodipodi.sourceforge.net/DTD/sodipodi-0.dtd"
   xmlns="http://www.w3.org/2000/svg"
   xmlns:svg="http://www.w3.org/2000/svg"><defs
     id="defs147715" /><sodipodi:namedview
     id="namedview147713"
     pagecolor="#ffffff"
     bordercolor="#666666"
     borderopacity="1.0"
     inkscape:showpageshadow="2"
     inkscape:pageopacity="0.0"
     inkscape:pagecheckerboard="0"
     inkscape:deskcolor="#d1d1d1"
     showgrid="false"
     inkscape:zoom="2.1"
     inkscape:cx="199.7619"
     inkscape:cy="200"
     inkscape:window-width="1984"
     inkscape:window-height="1053"
     inkscape:window-x="2409"
     inkscape:window-y="94"
     inkscape:window-maximized="0"
     inkscape:current-layer="svg147711"><inkscape:page
       x="0"
       y="0"
       id="page147717"
       width="400"
       height="400"
       margin="0"
       bleed="0" /></sodipodi:namedview><g
     id="g147719"
     inkscape:groupmode="layer"
     inkscape:label="Page 1"><path
       d="m 310.66821,116.08997 c -1.124,-2.05066 -4.82792,-3.06713 -6.48993,-4.70261 -5.25975,-5.17577 -18.84852,-13.983442 -24.33427,-17.713917 -3.2454,-2.206972 -6.00471,-4.886018 -10.46127,-8.17325 -6.86758,-5.065638 -16.02431,-17.561512 -14.10499,-13.1636 1.17092,2.683045 9.9925,11.525154 13.36953,14.395224 3.92074,3.332148 7.45886,6.988893 9.92505,8.728921 2.83413,1.999628 7.26056,5.368752 9.45814,6.899952 4.90883,3.42033 9.03767,5.35479 12.54495,10.29734 0.90494,1.27526 0.0792,3.95638 1.63391,4.40038 1.79866,0.51466 3.57729,-0.3879 5.50929,0.15477 0.53334,0.14933 5.33286,2.99383 4.72219,0.90316 -0.0893,-0.30667 -1.4886,-1.5077 -1.7726,-2.02637 z"
       style="opacity:0.199997;fill:#000000;fill-opacity:1;fill-rule:nonzero;stroke:none;stroke-width:1.33333"
       id="path170825"
       sodipodi:nodetypes="csssssssscccc" /><path
       d="m 323.62586,104.58227 c 1.89733,-4.595996 4.42286,-8.661137 6.86552,-12.995804 1.688,-2.996 3.63515,-7.315242 4.19248,-10.704575 0.19067,-1.158667 2.29057,-10.11837 1.66791,-11.207703 -0.24267,0.156 -1.23156,4.833595 -2.39343,7.431703 -1.30624,2.92095 -3.10084,9.454602 -5.35195,12.946149 -2.86632,4.445761 -5.6779,7.61422 -7.50552,12.197 -0.95026,2.38276 -2.35768,4.6599 -3.06968,7.12523 -0.37333,1.296 -0.33733,2.356 -1.89466,1.772 -1.22934,-0.46133 -3.09105,-1.16819 -4.32838,-1.60419 -0.0773,0.08 1.13721,1.50687 1.18351,1.61487 1.53401,2.09222 3.20406,4.81959 5.41188,3.29186 2.20783,-1.52773 3.85299,-6.5492 5.22232,-9.86654 z"
       style="opacity:0.199997;fill:#000000;fill-opacity:1;fill-rule:nonzero;stroke:none;stroke-width:1.33333"
       id="path170841"
       sodipodi:nodetypes="ccccssscccccc" /><path
       d="m 319.16239,116.25014 c -0.19866,1.19867 0.8,0.8 2.2,0.6 1.39867,-0.2 0.70384,-1.89647 3.82387,-5.30446 4.47592,-4.88904 8.64182,-12.737386 7.04182,-10.39784 -1.89399,3.56128 -5.15437,6.90516 -7.91526,8.98406 0,0 -4.95043,4.91824 -5.15043,6.11824 z"
       style="opacity:0.199997;fill:#000000;fill-opacity:1;fill-rule:nonzero;stroke:none;stroke-width:1.33333"
       id="path170857"
       sodipodi:nodetypes="ccsccc" /><path
       d="m 286.34563,93.004186 c 0,0 19.21918,8.500884 20.91665,10.022334 1.69855,1.51991 5.00372,7.4221 2.21546,5.49007 0,0 -14.96139,-11.914289 -23.13211,-15.512404 z"
       style="opacity:0.199997;fill:#000000;fill-opacity:1;fill-rule:nonzero;stroke:none;stroke-width:1.33333"
       id="path170873"
       sodipodi:nodetypes="cccc" /><path
       d="m 315.70493,117.41961 c 0.0933,-1.21334 -2.552,-1.94721 -3.35467,-2.84438 -3.47587,-3.88512 -6.6,-6.61429 -9.66933,-9.01696 -2.3453,-1.97688 -12.15247,-8.596474 -19.40172,-13.677867 -4.87147,-3.414675 -21.92116,-17.920445 -21.44182,-18.070224 0.18473,-0.143915 17.21543,13.801724 22.16826,17.023711 7.87246,5.121311 18.73507,12.56245 22.32914,14.9482 2.71321,1.80104 9.65943,6.38018 9.8141,9.72152 0.0187,0.652 0.0333,1.36666 -0.32534,1.976 z"
       style="opacity:0.5;fill:#000000;fill-opacity:1;fill-rule:nonzero;stroke:none;stroke-width:1.33333"
       id="path170889"
       sodipodi:nodetypes="cscscssccc" /><path
       d="m 336.52688,90.931826 c 1.04987,-2.190387 3.14298,-6.854204 4.41985,-10.538587 -0.14492,2.872526 -1.09158,6.36156 -3.3561,10.960907 -2.75292,5.591312 -6.5843,11.773174 -7.35683,12.943664 -1.116,2.32667 -7.38194,7.35166 -9.52327,8.945 0,0 6.86555,-7.51816 8.36374,-9.61068 2.47107,-3.45131 5.23893,-8.081811 7.45261,-12.700304 z"
       style="opacity:0.5;fill:#000000;fill-opacity:1;fill-rule:nonzero;stroke:none;stroke-width:1.33333"
       id="path170905"
       sodipodi:nodetypes="scsccss" /><path
       d="m 252.25298,59.584973 c 0,0 3.3532,7.101425 9.72079,12.463536 1.74347,1.468166 12.15897,11.799427 9.53907,9.109783 0,0 -16.30826,-9.809805 -19.25986,-21.573319 z"
       style="opacity:0.199997;fill:#000000;fill-opacity:1;fill-rule:nonzero;stroke:none;stroke-width:1.33333"
       id="path1"
       sodipodi:nodetypes="cscc" /></g></svg>
