<?xml version="1.0" encoding="UTF-8" standalone="no"?>
<!-- Created with Inkscape (http://www.inkscape.org/) -->

<svg
   version="1.1"
   id="svg127794"
   width="400"
   height="400"
   viewBox="0 0 400 400"
   sodipodi:docname="TellariteForehead.svg"
   inkscape:version="1.2.2 (b0a8486, 2022-12-01)"
   xmlns:inkscape="http://www.inkscape.org/namespaces/inkscape"
   xmlns:sodipodi="http://sodipodi.sourceforge.net/DTD/sodipodi-0.dtd"
   xmlns="http://www.w3.org/2000/svg"
   xmlns:svg="http://www.w3.org/2000/svg">
  <defs
     id="defs127798" />
  <sodipodi:namedview
     id="namedview127796"
     pagecolor="#ffffff"
     bordercolor="#666666"
     borderopacity="1.0"
     inkscape:showpageshadow="2"
     inkscape:pageopacity="0.0"
     inkscape:pagecheckerboard="0"
     inkscape:deskcolor="#d1d1d1"
     showgrid="false"
     inkscape:zoom="6.470027"
     inkscape:cx="312.51801"
     inkscape:cy="95.903772"
     inkscape:window-width="1733"
     inkscape:window-height="1135"
     inkscape:window-x="2689"
     inkscape:window-y="25"
     inkscape:window-maximized="0"
     inkscape:current-layer="g127802">
    <inkscape:page
       x="0"
       y="0"
       id="page127800"
       width="400"
       height="400" />
  </sodipodi:namedview>
  <g
     id="g127802"
     inkscape:groupmode="layer"
     inkscape:label="Page 1">
    <path
       id="path150588"
       style="opacity:0.199997;fill:#000000;fill-opacity:1;fill-rule:nonzero;stroke:none;stroke-width:1.33333"
       d="m 273.37039,86.223475 c -2.97066,-0.490667 -5.888,-3.349334 -8.436,-4.84 -4.12133,-2.413334 -8.5,-3.708 -12.98,-5.393334 -1.51733,-0.570666 -3.04133,-1.049333 -4.66533,-1.170666 4.16,-1.513333 10.64933,1.456 14.308,3.038666 3.08533,1.333334 5.22,4.078667 8.06,5.745334 1.332,0.781333 2.58933,1.846666 3.71333,2.62 m 18.44,14.778265 c -1.47333,-0.91867 -3.53866,-1.458666 -5.11733,-2.465332 -2.172,-1.386667 -4.236,-3.422667 -6.17467,-5.181334 -1.62666,-1.474666 -3.23466,-2.832 -5.05333,-4.038666 -2.15333,-1.429334 -4.64933,-2.561334 -6.84933,-3.969333 4.67866,1.242666 8.24933,3.530666 11.568,6.974666 2.28666,2.372 4.864,3.806667 7.45466,5.646667 1.23467,0.876 2.45867,1.682666 4.172,3.033332 m 7.9776,-0.78467 c -1.44533,-1.681329 -5.14666,-1.882662 -7.05066,-3.202662 -2.16934,-1.504 -3.852,-3.485334 -5.652,-5.293334 -3.116,-3.129333 -6.596,-5.503999 -10.13067,-8.033333 -4.16667,-2.984 -7.07467,-7.308 -11.416,-10.238666 -2.296,-1.550667 -4.70667,-2.736 -7.32133,-3.677333 -2.59334,-0.933334 -5.43867,-1.288 -7.97067,-2.26 3.96533,0.104 8.36533,1.722666 12.00533,3.410666 3.97334,1.842667 7.684,3.918667 10.728,7.06 2.43734,2.514667 5.208,5.054667 7.94667,7.226667 1.484,1.177333 3.22667,2.043999 4.616,3.367999 1.15067,1.096 1.98267,2.457334 3.132,3.589334 1.04133,1.024 2.41867,2.897333 3.83333,3.208 1.61067,0.354666 3.87467,-0.356 5.49867,-0.54 2.404,-0.270667 5.92133,-0.728 8.224,-0.02667 -2.224,0.488 -4.68933,0.466667 -6.86933,0.797333 -0.89067,0.134667 -5.07334,-0.226666 -4.98667,1.066667 0.048,0.713333 2.02667,1.270667 2.536,1.524 1.04,0.517333 2.10933,1.128 2.87733,2.021332 m 6.2012,14.28187 c -0.70133,-0.976 -1.696,-1.74133 -2.59333,-2.55067 -2.07467,-1.87066 -4.12667,-3.77733 -6.21733,-5.63866 -2.25067,-2.00267 -4.728,-4.63867 -7.444,-5.916 0.508,1.57866 3.632,2.66533 4.88666,3.80666 1.148,1.044 2.00267,2.24267 2.88,3.476 1.78667,2.51334 3.48667,4.48134 6.16934,6.00534 1.192,0.676 1.96666,2.336 3.16,2.73866 -0.13734,-0.74 -0.44134,-1.36533 -0.84134,-1.92133 m 3.86894,-3.1656 c -0.45067,-1.364 -1.84267,-1.60133 -2.87334,-2.51067 -1.20133,-1.06133 -2.07066,-2.70933 -3.19733,-3.77066 -2.416,-2.276 -5.33867,-4.19067 -8.42267,-5.501336 2.34534,0.499996 4.37734,1.765336 6.51867,2.765336 1.44267,0.67333 2.73333,1.41333 3.85333,2.53866 1.49867,1.504 4.30934,4.516 4.76267,6.58934 -0.392,0.06 -0.70667,-0.0307 -0.64133,-0.11067" />
    <path
       id="path150620"
       style="opacity:0.199997;fill:#000000;fill-opacity:1;fill-rule:nonzero;stroke:none;stroke-width:1.33333"
       d="m 322.93613,104.47227 c 3.076,-2.97066 7.212,-4.851996 10.364,-7.773329 1.69599,-1.570667 3.49999,-3.036 5.47066,-4.212 2.1,-1.253333 3.716,-0.981333 5.73467,-0.336 0.21866,-1.626667 -0.384,-4.110667 -2.41067,-3.753333 -1.17733,0.208 -2.05733,1.444 -2.97467,2.136 -1.05066,0.792 -2.30133,1.310666 -3.40266,2.073333 -0.968,0.670667 -1.78667,1.450667 -2.66667,2.230667 -2.66,2.36 -5.36133,4.354666 -7.884,6.905332 -0.748,0.756 -1.78666,1.68133 -2.23066,2.72933 m 12.99053,-18.458129 c 1.42,-0.709333 3.10666,-0.621333 4.56933,-1.125333 2.03333,-0.701333 1.89467,-3.004 -0.29733,-2.797333 -1.74134,0.164 -4.564,2.888 -6.092,3.932 -1.22933,0.839999 -2.42133,1.718666 -3.756,2.371999 -2.88,1.409334 -4.82133,4.048 -7.65467,5.637334 -0.892,0.5 -1.79733,0.761333 -2.664,1.356 1.52267,-1.046667 2.97467,-0.370667 2.12667,1.316 -0.87867,1.752 -2.18267,3.581332 -3.408,5.140002 0.97067,-1.20534 2.26533,-2.677336 3.296,-3.934669 2.25067,-2.742667 4.35733,-5.870667 7.35733,-7.829333 2.10667,-1.376 4.29067,-2.952 6.52267,-4.066667 m -23.3692,25.462669 c 0.468,-1.412 2.11467,-2.45867 2.952,-3.64267 1.048,-1.48 2.192,-2.732 3.408,-4.07733 1.604,-1.77467 3.672,-3.59867 4.83333,-5.717336 -1.408,2.643996 -3.72133,4.994666 -5.392,7.455996 -1.216,1.79067 -3.37333,4.03467 -3.26666,6.26934 0.124,2.588 1.984,0.14133 2.77066,-0.69067 3.27467,-3.46267 6.124,-7.27467 10.09467,-9.96133 -2.24533,2.80933 -4.32133,5.83466 -6.956,8.28666 -0.96133,0.896 -2.13867,1.31067 -2.77733,2.588 -0.724,1.44934 -0.67334,3.75067 0.40266,4.75067 0.0453,0.0427 0.0467,0.0427 0.004,-0.003 -0.832,-0.86933 -2.128,-2.11733 -3.544,-1.436 -0.27733,-1.00266 -0.596,-1.616 -1.40133,-2.236 -0.67333,-0.51866 -1.43867,-0.52933 -1.148,-1.52266 0.007,-0.0213 0.0133,-0.0427 0.02,-0.064" />
    <path
       id="path150748"
       style="opacity:0.199997;fill:#000000;fill-opacity:1;fill-rule:nonzero;stroke:none;stroke-width:1.33333"
       d="m 313.31093,63.634408 c 2.47333,-0.032 5.144,0.268 7.65333,0.402667 1.03467,0.056 2.076,0.12 3.00933,0.373333 2.17734,0.589334 4.23067,1.493334 6.384,2.132 -2.66666,0.333334 -6.50666,-1.137333 -9.17066,-1.544 -3.272,-0.497333 -6.53734,-1.142666 -7.876,-1.364 m -4.77267,-9.121199 c 2.632,0.133333 5.00933,0.650666 7.69467,0.965333 1.04133,0.122667 2.088,0.253333 3.02666,0.565333 2.19067,0.726667 4.25467,1.757334 6.42134,2.532 -2.684,0.158667 -6.54534,-1.550666 -9.224,-2.126666 -2.56267,-0.549334 -4.936,-1.125334 -7.55867,-1.226667 -2.78533,-0.109333 -5.57467,0.105333 -8.35867,-0.09733 1.588,-1.218667 4.78667,-0.644 6.75067,-0.644 0.424,0 0.83867,0.01067 1.248,0.032 m -53.09907,10.501996 c 2.2,0.432 4.216,0.254667 6.42,-0.489333 4.07334,-1.377333 8.1,-2.734667 11.95067,-4.676 2.46,-1.24 5.232,-2.617333 7.94667,-3.128 2.87733,-0.54 5.936,-0.717333 8.856,-1.028 2.588,-0.276 6.23066,-0.2 8.52533,-1.597333 -1.952,-0.292 -3.944,-0.106667 -5.884,0.242667 -3.34933,0.601333 -6.75733,0.765333 -10.11867,1.290666 -3.20266,0.5 -6.04,1.768 -9.05333,2.896 -3.11733,1.166667 -6.272,2.232 -9.36933,3.604 -2.66,1.177333 -5.64267,2.332 -9.27334,2.885333 m 11.8748,5.307734 c 1.768,1.265333 4.548,1.638666 6.40134,0.421333 1.13066,-0.741333 2.12266,-1.529333 3.44666,-2.221333 1.432,-0.745334 4.58134,-1.096 6.60134,-1.706667 2.804,-0.849333 7.804,-1.137333 12.80266,-1.401333 4.47067,-0.236 10.24267,-0.256 11.94,-1.196 -8.88133,1.102666 -24.54,0.201333 -30.37866,2.157333 -2.49867,0.836 -3.79334,1.889333 -6.02534,2.78 -0.468,0.188 -4.63066,1.28 -4.788,1.166667 m 67.9208,4.409599 c -0.39733,-0.137333 -3.568,-0.064 -4.408,-0.192 -1.512,-0.229333 -2.848,-0.641333 -4.31066,-0.914666 -3.08934,-0.576 -7.03334,-0.724 -9.87734,-1.516 2.09334,-0.58 6.45734,0.146667 8.92,0.490667 3.29467,0.461333 6.716,1.107999 9.676,2.131999 m -58.7084,3.4372 c 3.116,-0.476 6.05467,-1.914666 9.05334,-2.454666 2.28933,-0.412 4.676,-0.476 7.02266,-0.594667 2.924,-0.148 5.94267,-0.09067 8.944,-0.386667 2.83067,-0.278666 5.588,-1.053333 8.332,-1.567999 2.85334,-0.533334 5.63334,0.217333 8.50534,0.209333 -5.22,0.01333 -10.724,1.324 -15.80667,2.328 -2.34933,0.464 -4.52667,1.025333 -6.90267,0.965333 -2.47066,-0.06133 -4.99066,0.02533 -7.46,0.142667 -1.40933,0.068 -2.54133,-0.18 -3.90666,0.209333 -1.50934,0.430667 -2.81734,1.293333 -4.27734,1.830667 -1.81866,0.670666 -1.98,0.249333 -3.504,-0.681334 m 5.0448,5.108267 c 3.456,-0.324 6.828,-1.532 10.16534,-1.918667 2.54533,-0.294666 5.15866,-0.269333 7.73466,-0.294666 3.21067,-0.03067 6.5,0.128 9.81067,-0.036 3.12267,-0.154667 6.22133,-0.762667 9.276,-1.134667 3.176,-0.386667 6.12667,0.396 9.26267,0.492 -5.70134,-0.173333 -11.86,0.828 -17.524,1.564 -2.61734,0.338667 -5.05867,0.774667 -7.64667,0.636 -2.68933,-0.144 -5.452,-0.153333 -8.16133,-0.133333 -1.54667,0.012 -2.75467,-0.254667 -4.29067,0.052 -1.696,0.34 -3.22267,1.08 -4.87733,1.518666 -2.06267,0.546667 -2.19067,0.157334 -3.74934,-0.745333 m 8.6364,5.734133 c 2.276,-0.238667 4.632,-1.024 6.84134,-1.3 1.684,-0.209333 3.36533,-0.224 5.02933,-0.268 2.07333,-0.056 4.17067,0.0067 6.328,-0.132 2.03733,-0.130667 4.12533,-0.542667 6.15067,-0.805333 3.23866,-0.422667 6.82266,-0.876 9.992,-0.936 -1.01067,0.637333 -3.94934,1.441333 -5.11067,1.564 -1.7,0.178666 -3.22,-0.117334 -4.876,-0.03733 -1.81467,0.088 -3.796,0.517334 -5.64,0.772 -1.73733,0.238667 -3.37733,0.534667 -5.024,0.478667 -1.712,-0.05867 -3.492,-0.03333 -5.24133,0.0093 -0.99867,0.024 -1.73734,-0.126666 -2.772,0.08 -1.14534,0.229334 -2.24,0.702667 -3.37334,0.993334 -1.412,0.361333 -1.436,0.121333 -2.304,-0.418667" />
  </g>
</svg>
