<?xml version="1.0" encoding="UTF-8" standalone="no"?>
<!-- Created with Inkscape (http://www.inkscape.org/) -->

<svg
   version="1.1"
   id="svg1115"
   width="400"
   height="400"
   viewBox="0 0 400 400"
   sodipodi:docname="XindiPrimate.svg"
   inkscape:version="1.3 (0e150ed, 2023-07-21)"
   xmlns:inkscape="http://www.inkscape.org/namespaces/inkscape"
   xmlns:sodipodi="http://sodipodi.sourceforge.net/DTD/sodipodi-0.dtd"
   xmlns="http://www.w3.org/2000/svg"
   xmlns:svg="http://www.w3.org/2000/svg">
  <defs
     id="defs1119" />
  <sodipodi:namedview
     id="namedview1117"
     pagecolor="#ffffff"
     bordercolor="#666666"
     borderopacity="1.0"
     inkscape:showpageshadow="2"
     inkscape:pageopacity="0.0"
     inkscape:pagecheckerboard="0"
     inkscape:deskcolor="#d1d1d1"
     showgrid="false"
     inkscape:zoom="2.1675"
     inkscape:cx="200"
     inkscape:cy="200"
     inkscape:window-width="1920"
     inkscape:window-height="1080"
     inkscape:window-x="2412"
     inkscape:window-y="196"
     inkscape:window-maximized="0"
     inkscape:current-layer="layer1">
    <inkscape:page
       x="0"
       y="0"
       id="page1121"
       width="400"
       height="400"
       margin="0"
       bleed="0" />
  </sodipodi:namedview>
  <g
     inkscape:groupmode="layer"
     id="layer2"
     inkscape:label="Cheek">
    <path
       d="m 223.50146,123.75921 c 1.09333,1.78666 2.588,1.63333 4.13067,2.524 0.68014,0.39272 1.64265,0.77414 1.75148,1.35088 0.20672,1.09544 -0.87082,2.53636 -0.20348,3.57578 0.788,1.22667 1.63333,1.696 2.80133,2.45067 1.284,0.82933 2.08133,1.75467 1.09067,3.244 -1.18934,1.78667 -1.196,2.28 0.228,4.24 1,1.37867 2.66266,2.13067 3.104,3.89067 0.22266,0.88666 0.084,1.23066 0.65066,2.012 0.49334,0.68133 1.11334,1.09333 1.75067,1.61066 1.09067,0.88534 2.128,1.64 2.784,2.848 0.69333,1.28 1.46667,2.08667 2.58,3.12534 0.97733,0.912 1.58267,1.87466 2.41067,2.82533 1.168,1.34 3.276,2.088 4.77866,3.068 2.664,1.74133 5.208,3.67467 8.00267,5.21067 1.19067,0.65333 1.756,1.052 2.41333,2.10666 0.51467,0.82667 1.10534,1.4 1.93734,1.92667 1.41066,0.89333 3.72933,1.99733 5.46133,1.62933 3.00533,-0.64 -0.10933,-4.44666 -0.93333,-5.664 -0.80534,-1.18933 -1.22134,-2.47466 -1.752,-3.78 -0.56134,-1.38 -1.596,-2.52666 -2.528,-3.67466 -1.208,-1.488 -2.028,-3.012 -3.68,-3.952 -1.33734,-0.76267 -2.688,-1.168 -4.11867,-1.46134 -2.68667,-0.54933 -3.608,-4.472 -5.18933,-6.58133 -1.17467,-1.56667 -2.61467,-2.90533 -3.93867,-4.34 -1.196,-1.29467 -1.92267,-2.70533 -2.89733,-4.104 -1.132,-1.62533 -3.084,-2.95333 -4.47334,-4.38267 -1.396,-1.43866 -2.736,-2.93066 -3.996,-4.48933 -1.29733,-1.60667 -2.16933,-3.284 -3.13466,-5.09333 -1.03867,-1.94534 -1.78667,-4.12534 -3.05734,-5.924 -2.91466,-4.12667 -5.00133,1.536 -6.16,4.08 -0.27866,0.61466 -0.13333,1.204 0.18667,1.728"
       style="fill:#cd976d;fill-opacity:1;fill-rule:nonzero;stroke:none;stroke-width:1.33333"
       id="path1491"
       sodipodi:nodetypes="ccsccccccsccccccccccsccccccccccc" />
    <path
       d="m 223.50146,123.75921 c 0.21467,0.35066 0.508,0.672 0.80533,0.952 1.968,1.852 4.73067,2.48533 7.248,3.13733 0.272,0.0707 0.656,0.28667 0.82134,-0.0307 0.104,-0.20133 -0.052,-0.868 -0.12934,-1.096 -0.11466,-0.34133 -0.34266,-0.676 -0.53333,-0.99733 -0.41733,-0.704 -0.80533,-1.42 -1.28267,-2.08933 -0.904,-1.26534 -1.788,-2.56534 -2.38133,-4.01067 -0.27067,-0.66 -0.392,-1.24667 -0.47067,-1.93733 -0.024,-0.21067 -0.748,-2.17067 -0.78,-2.14534 -0.348,0.276 -0.62266,1.18667 -0.84,1.6 -0.864,1.64134 -1.87333,3.196 -2.644,4.88934 -0.27866,0.61466 -0.13333,1.204 0.18667,1.728"
       style="fill:#cd976d;fill-opacity:1;fill-rule:nonzero;stroke:none;stroke-width:1.33333"
       id="path1495" />
    <path
       d="m 223.50093,123.75947 c 1.3,2.00934 4.31333,3.07334 6.5,3.69734 0.67866,0.19333 1.532,0.46533 1.98533,-0.10934 -1.22933,-1.84133 -3.01867,-3.11466 -5.09467,-3.85066 -2.20933,-0.78134 -2.81866,-1.96667 -2.19733,-4.36 -0.10933,0.42266 -0.91867,1.14933 -1.14133,1.68 -0.40134,0.952 -0.652,2.01466 -0.052,2.94266"
       style="opacity:0.199997;fill:#000000;fill-opacity:1;fill-rule:nonzero;stroke:none;stroke-width:1.33333"
       id="path1505" />
    <path
       d="m 226.65173,115.11147 c 0.29333,1.68934 -0.90934,3.26667 -1.72934,4.616 -0.85866,1.352 -1.64133,2.77867 -0.788,3.76534 0.81334,1.096 2.28934,1.896 3.68267,2.61866 1.43733,0.708 2.93067,1.336 4.47867,1.92134 -1.664,-0.0427 -3.30534,-0.40667 -4.88534,-0.964 -3.90533,-1.34934 -6.868,-4.06134 -3.32933,-7.94534 1.00667,-1.30266 2.27067,-2.364 2.57067,-4.012"
       style="fill:#000000;fill-opacity:1;fill-rule:nonzero;stroke:none;stroke-width:1.33333"
       id="path1515" />
    <path
       d="m 228.51613,132.44587 c 0.21466,0.35067 0.508,0.672 0.80533,0.952 1.968,1.852 4.73067,2.48534 7.248,3.13734 0.272,0.0707 0.656,0.28666 0.82133,-0.0307 0.104,-0.20133 -0.052,-0.868 -0.12933,-1.096 -0.11467,-0.34133 -0.34267,-0.676 -0.53333,-0.99733 -0.41734,-0.704 -0.80534,-1.42 -1.28267,-2.08934 -0.904,-1.26533 -1.788,-2.56533 -2.38133,-4.01066 -0.27067,-0.66 -0.392,-1.24667 -0.47067,-1.93734 -0.024,-0.21066 -0.748,-2.17066 -0.78,-2.14533 -0.348,0.276 -0.62267,1.18667 -0.84,1.6 -0.864,1.64133 -1.87333,3.196 -2.644,4.88933 -0.27867,0.61467 -0.13333,1.204 0.18667,1.728"
       style="fill:#cd976d;fill-opacity:1;fill-rule:nonzero;stroke:none;stroke-width:1.33333"
       id="path1519" />
    <path
       id="path1529"
       style="opacity:0.199997;fill:#000000;fill-opacity:1;fill-rule:nonzero;stroke:none;stroke-width:1.33333"
       d="m 229.70898,127.82422 c -0.10933,0.42267 -0.91796,1.14903 -1.14063,1.67968 -0.40133,0.952 -0.65273,2.01341 -0.0527,2.94141 1.10946,1.71483 3.46578,2.7407 5.49218,3.39258 l 1.07814,-1.89844 c -0.9372,-0.75864 -2.01283,-1.34218 -3.1797,-1.75586 -2.20933,-0.78133 -2.8186,-1.96604 -2.19726,-4.35937 z" />
    <path
       id="path1539"
       style="fill:#000000;fill-opacity:1;fill-rule:nonzero;stroke:none;stroke-width:1.33333"
       d="m 231.66602,123.79883 c -0.3,1.64799 -1.56365,2.70906 -2.57032,4.01172 -3.53867,3.88399 -0.57525,6.59598 3.33008,7.94531 0.44027,0.15531 0.88503,0.29351 1.33399,0.41601 l 0.47852,-0.7168 c -0.474,-0.21246 -0.94382,-0.42845 -1.40626,-0.65624 -1.39333,-0.72266 -2.87026,-1.52314 -3.6836,-2.61914 -0.85333,-0.98667 -0.0696,-2.41363 0.78907,-3.76563 0.82,-1.34933 2.02185,-2.92591 1.72852,-4.61523 z" />
    <path
       d="m 232.46879,140.79041 c 0.21467,0.35066 0.508,0.672 0.80534,0.952 1.968,1.852 4.73066,2.48533 7.248,3.13733 0.272,0.0707 0.656,0.28667 0.82133,-0.0307 0.104,-0.20133 -0.052,-0.868 -0.12933,-1.096 -0.11467,-0.34133 -0.34267,-0.676 -0.53334,-0.99733 -0.41733,-0.704 -0.80533,-1.42 -1.28266,-2.08933 -0.904,-1.26534 -1.788,-2.56534 -2.38134,-4.01067 -0.27066,-0.66 -0.392,-1.24667 -0.47066,-1.93733 -0.024,-0.21067 -0.748,-2.17067 -0.78,-2.14534 -0.348,0.276 -0.62267,1.18667 -0.84,1.6 -0.864,1.64134 -1.87334,3.196 -2.644,4.88934 -0.27867,0.61466 -0.13334,1.204 0.18666,1.728"
       style="fill:#cd976d;fill-opacity:1;fill-rule:nonzero;stroke:none;stroke-width:1.33333"
       id="path1543" />
    <path
       id="path1553"
       style="opacity:0.199997;fill:#000000;fill-opacity:1;fill-rule:nonzero;stroke:none;stroke-width:1.33333"
       d="m 233.66211,136.16797 c -0.10933,0.42266 -0.91992,1.14902 -1.14258,1.67969 -0.40134,0.952 -0.65078,2.01536 -0.0508,2.94336 0.91442,1.41339 2.67646,2.35793 4.40233,3.01172 0.0253,0.009 0.0472,0.0179 0.0723,0.0273 l 1.3789,-2.07226 c -0.75624,-0.50751 -1.58277,-0.91844 -2.46288,-1.23047 -2.20933,-0.78133 -2.8186,-1.96604 -2.19726,-4.35937 z" />
    <path
       d="m 235.61893,132.14281 c 0.29333,1.68933 -0.90934,3.26666 -1.72934,4.616 -0.85866,1.352 -1.64133,2.77866 -0.788,3.76533 0.81334,1.096 2.28934,1.896 3.68267,2.61867 1.43733,0.708 2.93067,1.336 4.47867,1.92133 -1.664,-0.0427 -3.30534,-0.40667 -4.88534,-0.964 -3.90533,-1.34933 -6.868,-4.06133 -3.32933,-7.94533 1.00667,-1.30267 2.27067,-2.364 2.57067,-4.012"
       style="fill:#000000;fill-opacity:1;fill-rule:nonzero;stroke:none;stroke-width:1.33333"
       id="path1563" />
    <path
       d="m 236.31173,147.48814 c 0.21466,0.35067 0.508,0.672 0.80533,0.952 1.968,1.852 4.73067,2.48533 7.248,3.13733 0.272,0.0707 0.656,0.28667 0.82133,-0.0307 0.104,-0.20134 -0.052,-0.868 -0.12933,-1.096 -0.11467,-0.34134 -0.34267,-0.676 -0.53333,-0.99734 -0.41734,-0.704 -0.80534,-1.42 -1.28267,-2.08933 -0.904,-1.26533 -1.788,-2.56533 -2.38133,-4.01067 -0.27067,-0.66 -0.392,-1.24666 -0.47067,-1.93733 -0.024,-0.21067 -0.748,-2.17067 -0.78,-2.14533 -0.348,0.276 -0.62267,1.18666 -0.84,1.6 -0.864,1.64133 -1.87333,3.196 -2.644,4.88933 -0.27867,0.61467 -0.13333,1.204 0.18667,1.728"
       style="fill:#cd976d;fill-opacity:1;fill-rule:nonzero;stroke:none;stroke-width:1.33333"
       id="path1567" />
    <path
       d="m 236.31119,147.48854 c 1.3,2.00933 4.31334,3.07333 6.5,3.69733 0.67867,0.19334 1.532,0.46534 1.98534,-0.10933 -1.22934,-1.84133 -3.01867,-3.11467 -5.09467,-3.85067 -2.20933,-0.78133 -2.81867,-1.96666 -2.19733,-4.36 -0.10934,0.42267 -0.91867,1.14934 -1.14134,1.68 -0.40133,0.952 -0.652,2.01467 -0.052,2.94267"
       style="opacity:0.199997;fill:#000000;fill-opacity:1;fill-rule:nonzero;stroke:none;stroke-width:1.33333"
       id="path1577" />
    <path
       d="m 239.46199,138.84041 c 0.29334,1.68933 -0.90933,3.26666 -1.72933,4.616 -0.85867,1.352 -1.64133,2.77866 -0.788,3.76533 0.81333,1.096 2.28933,1.896 3.68267,2.61867 1.43733,0.708 2.93066,1.336 4.47866,1.92133 -1.664,-0.0427 -3.30533,-0.40667 -4.88533,-0.964 -3.90533,-1.34933 -6.868,-4.06133 -3.32933,-7.94533 1.00666,-1.30267 2.27066,-2.364 2.57066,-4.012"
       style="fill:#000000;fill-opacity:1;fill-rule:nonzero;stroke:none;stroke-width:1.33333"
       id="path1587" />
    <path
       d="m 241.54946,152.67187 c 0.21467,0.35067 0.508,0.672 0.80533,0.952 1.968,1.852 4.73067,2.48534 7.248,3.13734 0.272,0.0707 0.656,0.28666 0.82134,-0.0307 0.104,-0.20133 -0.052,-0.868 -0.12934,-1.096 -0.11466,-0.34133 -0.34266,-0.676 -0.53333,-0.99733 -0.41733,-0.704 -0.80533,-1.42 -1.28267,-2.08934 -0.904,-1.26533 -1.788,-2.56533 -2.38133,-4.01066 -0.27067,-0.66 -0.392,-1.24667 -0.47067,-1.93734 -0.024,-0.21066 -0.748,-2.17066 -0.78,-2.14533 -0.348,0.276 -0.62266,1.18667 -0.84,1.6 -0.864,1.64133 -1.87333,3.196 -2.644,4.88933 -0.27866,0.61467 -0.13333,1.204 0.18667,1.728"
       style="fill:#cd976d;fill-opacity:1;fill-rule:nonzero;stroke:none;stroke-width:1.33333"
       id="path1591" />
    <path
       d="m 241.54906,152.67227 c 1.3,2.00934 4.31333,3.07334 6.5,3.69734 0.67867,0.19333 1.532,0.46533 1.98533,-0.10934 -1.22933,-1.84133 -3.01866,-3.11466 -5.09466,-3.85066 -2.20934,-0.78134 -2.81867,-1.96667 -2.19734,-4.36 -0.10933,0.42266 -0.91866,1.14933 -1.14133,1.68 -0.40133,0.952 -0.652,2.01466 -0.052,2.94266"
       style="opacity:0.199997;fill:#000000;fill-opacity:1;fill-rule:nonzero;stroke:none;stroke-width:1.33333"
       id="path1601" />
    <path
       d="m 244.69973,144.02414 c 0.29333,1.68933 -0.90934,3.26667 -1.72934,4.616 -0.85866,1.352 -1.64133,2.77867 -0.788,3.76533 0.81334,1.096 2.28934,1.896 3.68267,2.61867 1.43733,0.708 2.93067,1.336 4.47867,1.92133 -1.664,-0.0427 -3.30534,-0.40666 -4.88534,-0.964 -3.90533,-1.34933 -6.868,-4.06133 -3.32933,-7.94533 1.00667,-1.30267 2.27067,-2.364 2.57067,-4.012"
       style="fill:#000000;fill-opacity:1;fill-rule:nonzero;stroke:none;stroke-width:1.33333"
       id="path1611" />
    <path
       d="m 246.08373,157.91894 c 0.21466,0.35067 0.508,0.672 0.80533,0.952 1.968,1.852 4.73067,2.48533 7.248,3.13733 0.272,0.0707 0.656,0.28667 0.82133,-0.0307 0.104,-0.20134 -0.052,-0.868 -0.12933,-1.096 -0.11467,-0.34134 -0.34267,-0.676 -0.53333,-0.99734 -0.41734,-0.704 -0.80534,-1.42 -1.28267,-2.08933 -0.904,-1.26533 -1.788,-2.56533 -2.38133,-4.01067 -0.27067,-0.66 -0.392,-1.24666 -0.47067,-1.93733 -0.024,-0.21067 -0.748,-2.17067 -0.78,-2.14533 -0.348,0.276 -0.62267,1.18666 -0.84,1.6 -0.864,1.64133 -1.87333,3.196 -2.644,4.88933 -0.27867,0.61467 -0.13333,1.204 0.18667,1.728"
       style="fill:#cd976d;fill-opacity:1;fill-rule:nonzero;stroke:none;stroke-width:1.33333"
       id="path1615" />
    <path
       d="m 246.08333,157.91934 c 1.3,2.00933 4.31333,3.07333 6.5,3.69733 0.67866,0.19334 1.532,0.46534 1.98533,-0.10933 -1.22933,-1.84133 -3.01867,-3.11467 -5.09467,-3.85067 -2.20933,-0.78133 -2.81866,-1.96666 -2.19733,-4.36 -0.10933,0.42267 -0.91867,1.14934 -1.14133,1.68 -0.40134,0.952 -0.652,2.01467 -0.052,2.94267"
       style="opacity:0.199997;fill:#000000;fill-opacity:1;fill-rule:nonzero;stroke:none;stroke-width:1.33333"
       id="path1625" />
    <path
       d="m 249.23399,149.27121 c 0.29334,1.68933 -0.90933,3.26666 -1.72933,4.616 -0.85867,1.352 -1.64133,2.77866 -0.788,3.76533 0.81333,1.096 2.28933,1.896 3.68267,2.61867 1.43733,0.708 2.93066,1.336 4.47866,1.92133 -1.664,-0.0427 -3.30533,-0.40667 -4.88533,-0.964 -3.90533,-1.34933 -6.868,-4.06133 -3.32933,-7.94533 1.00666,-1.30267 2.27066,-2.364 2.57066,-4.012"
       style="fill:#000000;fill-opacity:1;fill-rule:nonzero;stroke:none;stroke-width:1.33333"
       id="path1635" />
    <path
       d="m 252.01279,161.98147 c 0.21467,0.35067 0.508,0.672 0.80534,0.952 1.968,1.852 4.73066,2.48534 7.248,3.13734 0.272,0.0707 0.656,0.28666 0.82133,-0.0307 0.104,-0.20133 -0.052,-0.868 -0.12933,-1.096 -0.11467,-0.34133 -0.34267,-0.676 -0.53334,-0.99733 -0.41733,-0.704 -0.80533,-1.42 -1.28266,-2.08934 -0.904,-1.26533 -1.788,-2.56533 -2.38134,-4.01066 -0.27066,-0.66 -0.392,-1.24667 -0.47066,-1.93734 -0.024,-0.21066 -0.748,-2.17066 -0.78,-2.14533 -0.348,0.276 -0.62267,1.18667 -0.84,1.6 -0.864,1.64133 -1.87334,3.196 -2.644,4.88933 -0.27867,0.61467 -0.13334,1.204 0.18666,1.728"
       style="fill:#cd976d;fill-opacity:1;fill-rule:nonzero;stroke:none;stroke-width:1.33333"
       id="path1639" />
    <path
       d="m 252.01239,161.98187 c 0.86,1.328 2.33734,2.052 3.636,2.86667 0.488,0.30667 0.864,0.56933 1.42934,0.73867 0.52133,0.15466 1.84533,-0.0533 2.20933,0.17733 -2.76933,-1.76533 -7.084,-4.56267 -6.08133,-8.40533 -0.11067,0.42266 -0.91867,1.14933 -1.14134,1.68 -0.40133,0.952 -0.652,2.01466 -0.052,2.94266"
       style="opacity:0.199997;fill:#000000;fill-opacity:1;fill-rule:nonzero;stroke:none;stroke-width:1.33333"
       id="path1649" />
    <path
       d="m 255.69053,153.59121 c -1.56934,1.73733 -2.39867,4.276 -3.34534,6.34133 -0.548,2.324 2.2,3.348 3.97067,4.39733 1.44133,0.708 2.93867,1.33867 4.49067,1.92534 -1.66667,-0.044 -3.31334,-0.41067 -4.89734,-0.968 -3.964,-1.43067 -6.74,-3.89734 -3.51066,-7.98534 0.81066,-1.35066 1.75866,-2.96266 3.292,-3.71066"
       style="fill:#000000;fill-opacity:1;fill-rule:nonzero;stroke:none;stroke-width:1.33333"
       id="path1659" />
    <path
       d="m 255.94586,160.70907 c 1.75467,2.15867 4.11467,3.67734 6.492,5.016 1.44933,0.816 5.168,4.228 6.89333,4.4 -1.93866,-1.684 -5.264,-5.812 -6.664,-7.95066 -1.472,-2.252 -2.20533,-4.31334 -5.19333,-4.62534 -2.44133,-0.25466 -2.83467,1.55334 -1.528,3.16"
       style="opacity:0.199997;fill:#000000;fill-opacity:1;fill-rule:nonzero;stroke:none;stroke-width:1.33333"
       id="path1669" />
    <path
       d="m 258.52746,153.19907 c 2.59067,0.42534 4.672,2.53334 5.90267,4.74267 0,-0.001 3.756,6.47867 3.756,6.47867 -4.24667,-2.936 -5.29334,-8.464 -9.65867,-11.22134"
       style="fill:#000000;fill-opacity:1;fill-rule:nonzero;stroke:none;stroke-width:1.33333"
       id="path1679" />
    <path
       d="m 252.05306,148.09081 c -0.344,-0.66 -0.69333,-1.288 -1.08133,-1.80534 -1.17467,-1.56666 -2.61467,-2.90666 -3.93867,-4.34133 -1.19467,-1.29467 -1.92267,-2.70533 -2.896,-4.104 -1.13333,-1.62533 -3.08533,-2.952 -4.47467,-4.38267 -1.396,-1.43733 -2.736,-2.92933 -3.996,-4.48933 -1.29733,-1.60667 -2.168,-3.284 -3.13466,-5.09333 -0.25067,-0.472 -0.48534,-0.95734 -0.71467,-1.448 0.172,0.73866 0.352,1.47466 0.61333,2.184 0.516,1.40133 1.324,2.67466 1.90667,4.04533 0.51067,1.20533 0.90933,2.708 0.736,4.052 0.31467,-0.13333 0.68667,-0.172 1.02533,-0.24533 1.74934,2.19466 3.132,3.37466 3.27867,6.30533 -0.0107,-0.212 1.496,0.388 1.60933,0.46133 0.58934,0.37867 1.01467,0.98534 1.38534,1.56534 0.72666,1.14266 1.16133,2.44133 1.80533,3.628 0.644,-2.10534 4.39333,2.03466 5.18933,2.32666 1.01734,0.372 1.88134,0.82267 2.68667,1.34134"
       style="opacity:0.199997;fill:#000000;fill-opacity:1;fill-rule:nonzero;stroke:none;stroke-width:1.33333"
       id="path1689" />
    <path
       d="m 340.81626,173.48414 c 4.81866,-4.128 11.632,-10.00267 6.95466,-16.904 -0.90133,-1.33067 -5.29466,-4.57467 -5.92933,-6.08"
       style="fill:#cd976d;fill-opacity:1;fill-rule:nonzero;stroke:none;stroke-width:1.33333"
       id="path1699" />
    <path
       d="m 340.81626,173.48414 c 3.57333,-5.01467 10.48266,-11.16133 5.54933,-17.31867 0,0 -2.432,-2.656 -2.432,-2.656 -0.77867,-0.92266 -1.66267,-1.844 -2.092,-3.00933 1.97867,2.34933 5.09733,3.544 6.992,6.024 5.172,6.67467 -1.93867,14.30533 -8.01733,16.96"
       style="fill:#000000;fill-opacity:1;fill-rule:nonzero;stroke:none;stroke-width:1.33333"
       id="path1703" />
    <path
       d="m 345.50092,148.88934 c 2.64534,1.192 6.316,6.30933 3.63067,9.05733 -1.01467,-0.73866 -3.26,-2.08266 -3.70933,-3.348 -0.32267,-0.91066 0.17466,-1.696 0.35333,-2.56133 0.19467,-0.94 0.164,-1.876 -0.27467,-3.148"
       style="fill:#000000;fill-opacity:1;fill-rule:nonzero;stroke:none;stroke-width:1.33333"
       id="path1707" />
    <path
       d="m 345.77559,152.03681 c 0.0747,-0.36 0.14933,-0.77334 0.132,-1.14 -0.0147,-0.32934 -0.20667,-0.636 -0.30933,-0.94267 -0.196,-0.59467 -0.47734,-1.16 -0.69067,-1.748 -0.268,-0.74 -0.548,-1.51733 -0.64533,-2.3 -0.064,-0.50933 -0.0733,-1.20533 0.26933,-1.62667 0.35467,0.33734 0.67467,0.83067 0.94133,1.24 0.292,0.448 0.696,0.76934 1.06267,1.16 0.28,0.3 0.52,0.65067 0.736,0.99867 0.25333,0.40667 0.548,0.884 0.652,1.36 0.0867,0.40133 -0.008,0.84 -0.164,1.21467 -0.164,0.392 0.12133,0.5 0.36267,0.79066 1.49066,1.79734 2.97066,4.896 1.01066,6.90267 -1.016,-0.73867 -3.26133,-2.08267 -3.71066,-3.348 -0.32267,-0.91067 0.17466,-1.696 0.35333,-2.56133"
       style="fill:#000000;fill-opacity:1;fill-rule:nonzero;stroke:none;stroke-width:1.33333"
       id="path1711" />
    <path
       d="m 346.97759,151.85174 c 0.772,0.42533 1.192,1.11867 1.42,1.964 0.1,0.368 0.15067,0.75333 0.108,1.132 -0.009,0.0867 -0.33467,1.048 -0.4,0.99067 -0.47867,-0.42134 -1.01733,-0.80134 -1.39067,-1.31334 -0.20666,-0.284 -0.21466,-0.56666 -0.34,-0.87466 -0.0547,-0.13334 -0.124,-0.24267 -0.16266,-0.37867 -0.0773,-0.272 -0.15467,-0.548 -0.216,-0.81867 -0.0493,-0.21733 -0.11867,-0.48 -0.076,-0.704 0.096,-0.50933 0.76933,-0.156 1.05733,0.003"
       style="fill:#cd976d;fill-opacity:1;fill-rule:nonzero;stroke:none;stroke-width:1.33333"
       id="path1715" />
    <path
       d="m 344.92812,159.51601 c 0.42267,0.456 0.804,1.02666 0.93734,1.28666 0.64533,1.25334 0.0613,3.31067 -0.67467,4.40934 -1.648,2.45866 -3.98933,4.37066 -5.676,6.812 -0.53333,0.772 -1.06933,1.9 -1.576,2.5 1.952,-5.03334 4.692,-9.60134 5.51333,-14.984 0.168,-1.10134 0.86534,-0.68267 1.476,-0.024"
       style="opacity:0.199997;fill:#000000;fill-opacity:1;fill-rule:nonzero;stroke:none;stroke-width:1.33333"
       id="path1725" />
  </g>
  <g
     inkscape:groupmode="layer"
     id="layer1"
     inkscape:label="Forehead"
     style="display:inline">
    <path
       d="m 345.87772,120.58467 c 0.34667,-0.7 0.0493,-1.676 0.29467,-2.43733 0.308,-0.94933 0.908,-1.708 1.084,-2.768 0.352,-2.104 -0.08,-4.26933 -0.45733,-6.33867 -0.54134,-2.96133 -0.768,-5.83866 -1.512,-8.736 -0.84134,-3.275996 -2.69334,-6.242662 -2.868,-9.757329 -0.17067,-3.464 0.476,-7.498666 -0.97734,-10.676 -0.77066,-1.686666 -1.948,-3.204 -2.604,-4.928 -0.66533,-1.749333 -0.55333,-3.781333 -1.388,-5.461333 -1.18666,-2.384 -2.56266,-4.572 -4.45333,-6.458666 -1.54266,-1.538667 -3.06,-2.361334 -4.07466,-4.253333 -0.91734,-1.712 -2.11334,-3.085334 -3.51334,-4.417334 -2.82,-2.682666 -6.3,-4.116 -9.484,-6.294666 -2.744,-1.877333 -5.01333,-4.241333 -7.49066,-6.354667 -2.30934,-1.969333 -5.93334,-2.42 -8.67334,-3.554666 -6.444,-2.666667 -13.62666,-4.518667 -20.55866,-3.570667 0.77066,1.165333 -0.828,1.322667 -1.75334,1.46 0.30534,1.796 -3.508,1.652 -4.55333,1.804 -0.852,0.122667 -1.32,0.342667 -2.41067,0.06 -1.22133,-0.317333 -2.40533,-0.890667 -3.58266,-1.194667 0.3,0.258667 0.36,0.708 0.4,1.190667 -2.24,0.193333 -4.68534,-1.282667 -6.872,-0.709333 -1.316,0.345333 -2.572,1.156 -4.108,1.430666 -1.648,0.293334 -2.612,0.738667 -3.74667,1.789334 -1.26133,1.168 -3.04133,2.184 -3.98533,3.514666 -1.09867,1.546667 -1.72667,2.018667 -1.04267,3.914667 0.0507,0.14 -4.036,3.104 -4.20133,3.844 -0.148,0.665333 0.864,1.585333 0.84666,2.341333 -0.0133,0.642667 -0.41066,0.825333 -0.54666,1.350667 -0.62134,2.390666 0.91733,4.810666 0.65333,7.214666 -0.0933,0.850667 -2.316,5.625333 -2.98267,5.646667 0.672,-0.02133 1.46667,-0.592 1.976,-0.981334 -0.35733,0.773334 -1.072,1.476 -1.58,2.173334 -0.556,0.764 -1.03866,1.772 -1.28933,2.689333 -0.15333,0.566667 -0.56267,1.494666 -0.44667,2.082666 0.49067,-0.176 1.14134,-1.023999 1.508,-1.401333 0.36,-0.372 0.68134,-0.766666 1.02134,-1.16 -0.29867,1.013334 -0.612,1.952 -1.12267,2.881333 -0.424,0.774667 -0.81067,1.637334 -1.00667,2.458667 0.44534,-0.438667 1.06934,-0.616 1.56934,-0.961333 -0.152,0.993333 -0.73867,1.841333 -0.67734,2.892 0.36667,0.149333 0.0707,0.5 0.003,0.776 -0.108,0.44 0.009,0.486666 0.13867,0.770666 0.0947,0.208 0.256,0.461334 0.29333,0.721334 0.212,1.485333 0.648,2.973333 0.76,4.482666 0.14133,1.908 -0.268,3.937333 0.57733,5.625333 0.27734,-0.258666 0.92934,-0.446666 1.21067,-0.692 0.6,1.553334 -0.364,3.092 -0.124,4.688 0.748,-0.426666 1.44933,-0.985333 2.12933,-1.558666 0.104,2.037333 -0.304,4.078666 -0.124,6.070666 1.01067,-0.506666 1.43067,-1.532 2.116,-2.294666 0.42134,1.904 -0.872,5.522662 -1.432,7.384002 1.22,-1.628 2.9,-3.028 4.21467,-4.59734 -0.89067,1.83334 -0.892,4.08267 -1.70133,5.96934 -0.884,2.064 -2.404,3.59733 -2.656,5.944 0.39733,-0.25734 5.79466,-4.32134 5.796,-4.308 0.30933,3.49733 -2.25467,7.076 -3.13067,10.32533 1.268,-0.46933 2.80133,-2.35333 3.39333,-3.78667 -1.852,3.596 -3.94933,7.97467 -5.288,11.61067 0.52934,-0.74667 1.048,-1.54133 1.484,-2.32 -0.76,3.14933 -1.43866,6.684 -2.25466,9.904 0.268,-0.74933 0.81066,-1.65467 0.992,-2.272 0.756,3.804 2.96,7.25067 4.30266,10.94133 1.14267,-0.30266 1.81467,-3.128 2.29334,-4.32533 2.536,2.096 1.092,5.85067 3.39466,7.79867 2.38,-1.028 1.28,-6.492 1.38667,-8.66934 0.184,-3.78133 0.005,-8.06 1.76267,-11.616 1.65733,-3.352 4.92533,-3.864 8.224,-4.85733 3.25066,-0.97867 6.884,-1.20267 10.02933,-2.404 1.60667,-0.61467 2.67333,-1.53333 4.38133,-1.796 4.59467,-0.70533 9.18934,0.79733 12.95467,2.76133 3.00267,1.56534 5.83067,0.756 8.89067,1.696 3.784,1.164 5.27066,-0.76266 7.86133,-3.39333 1.88533,-1.91333 1.948,-2.08 4.59733,-1.68533 2.06267,0.308 4.72534,0.884 6.616,1.68666 1.392,0.59067 2.872,2.228 4.46,2.62534 2.21334,0.55466 4.66133,-0.33467 6.70133,-0.51867 1.67067,-0.15067 3.352,-0.132 5.016,0.0693 0.876,0.10534 1.756,0.18667 2.62534,0.33867 0.81866,0.144 1.28533,0.388 1.91333,0.74133 0.38933,0.21734 0.45733,0.53734 0.80133,-0.16"
       style="fill:#cd976d;fill-opacity:1;fill-rule:nonzero;stroke:none;stroke-width:1.33333"
       id="path1135" />
    <path
       d="m 314.92413,91.794808 c -0.16,-0.233334 -0.29334,-0.454667 -0.388,-0.658667 -1.06934,-2.302667 -2.05334,-7.824 1.056,-8.824 -1.37334,-0.373333 -2.38267,-0.288 -3.46534,-1.424 -1.604,-1.684 -2.12933,-3.950666 -3.45066,-5.778666 -1.14134,-1.578667 -2.876,-2.402667 -3.128,-4.532 -0.30934,-2.613333 1.256,-2.928 2.90266,-4.081333 -2.78666,-0.636 -5.79733,-1.365334 -8.48933,-2.408 -2.05733,-0.796 -5.428,-2.337334 -6.764,-4.18 -2.66667,-3.68 2.83333,-6.322667 5.68267,-7.18 -2.98134,0.44 -6.19334,0.564 -9.308,0.564 -4.99734,0 -10.11867,-0.381333 -14.87334,-2.021333 -2.33866,-0.806667 -5.27733,-1.765334 -6.61733,-4.032 -0.16933,-0.285334 -0.30533,-0.6 -0.312,-0.930667 -0.012,-0.770666 0.66933,-1.485333 1.10667,-2.061333 0.57733,-0.761333 1.29733,-1.458667 2.084,-2.001333 1.09066,-0.754667 2.42533,-1.164 3.688,-1.522667 1.36933,-0.389333 2.76266,-0.722667 4.18,-0.874667 1.464,-0.158666 2.868,0.07867 4.32533,0.06 -0.90267,0.01867 -1.78933,-0.277333 -2.688,-0.346666 -0.97067,-0.076 -1.94533,-0.08533 -2.916,-0.028 -2.09067,0.121333 -4.12933,0.642666 -6.11067,1.301333 -1.72133,0.572 -3.34,1.534667 -5.17733,1.704 -1.83867,0.168 -3.732,-0.004 -5.55867,-0.244 -1.03066,-0.134667 -2.43466,-0.504 -2.24266,-1.829333 0.17733,-1.218667 1.69866,-1.761334 2.26133,-2.661334 -3.47067,-0.0027 -8.864,2.705334 -10.63467,5.714667 -2.16266,3.678666 3.22934,6.528 6.11334,6.258666 1.45866,-0.136 2.85733,-0.98 4.34266,-1.297333 -0.66133,0.901333 -1.85733,2.242667 -1.27733,3.422667 0.648,1.317333 4.12,2.974666 5.28267,3.513333 3.052,1.412 6.164,3.061333 9.41866,4.109333 1.40934,0.453334 2.54934,0.917333 3.972,0.573333 2.01067,-0.485333 4.24934,-1.522666 6.028,-2.510666 -1.61866,1.245333 -2.90666,2.364 -1.74933,4.224 1.5,2.412 4.87733,3.530666 7.184,4.813333 3.32533,1.848 5.704,3.552 9.63733,2.76 -0.944,1.812 0.63734,2.424 1.91734,3.377333 1.188,0.886667 1.976,1.930667 2.74666,3.164 0.84267,1.348 1.284,2.805333 2.384,4.009333 1.344,1.468 2.83734,2.074667 4.528,2.932 -5.72533,0.970667 0.0867,12.308 2.972,14.489333 1.19067,0.9 3.85067,1.928 4.24934,-0.461333 0.25333,-1.517333 -1.876,-3.582667 -2.912,-5.101333"
       style="opacity:0.100006;fill:#000000;fill-opacity:1;fill-rule:nonzero;stroke:none;stroke-width:1.33333"
       id="path1145" />
    <path
       d="m 312.04279,91.891608 c -0.10666,-0.302667 -0.20533,-0.613334 -0.29866,-0.933334 -0.46267,-1.569333 -0.788,-3.644 -0.504,-5.311999 0.30266,-1.774667 1.58933,-2.628 0.32533,-4.138667 -0.68667,-0.822667 -1.532,-1.356 -2.15067,-2.229333 -0.75333,-1.065334 -1.356,-2.237334 -2.05066,-3.373334 -1.24267,-2.033333 -3.19467,-3.321333 -5.196,-4.679999 -1.052,-0.713334 -1.96667,-1.137334 -1.61067,-2.488 0.43867,-1.670667 2.02667,-1.408 3.48667,-1.690667 -1.48,0.161333 -3.556,-0.225333 -4.95067,-0.612 -3.35867,-0.930667 -6.86267,-2.285333 -9.86533,-4.082667 -1.02267,-0.612 -3.46134,-1.741333 -3.76,-3.057333 -0.384,-1.689333 1.42266,-2.557333 2.60133,-3.081333 -2.348,0.656 -5.6,0.153333 -8.12133,0.153333 -2.46534,0 -4.548,0.03333 -6.90267,-0.66 -2.25067,-0.662666 -4.59067,-1.690666 -6.83067,-2.593333 -1.604,-0.646667 -4.51733,-1.128 -4.6,-3.261333 -0.0587,-1.524 1.228,-2.173334 2.14134,-3.158667 -2.51067,0.764 -6.09867,1.037333 -8.71334,0.757333 -1.19333,-0.128 -6.13466,-2.463999 -5.28133,-4.358666 -1.10933,2.46 0.008,4.801333 2.35067,5.948 1.15733,0.565333 7.04666,1.136 5.64666,3.466666 2.58267,0.04533 4.508,1.853334 6.78934,2.909334 3.052,1.413333 6.164,3.062666 9.41866,4.109333 1.13334,0.365333 2.36267,0.501333 3.452,0.918666 0.37734,0.144 0.876,0.313334 1.092,0.688 0.0667,0.114667 0.27867,1.105334 0.024,1.086667 2.16934,0.158667 3.51067,-0.193333 5.25334,1.282667 1.63866,1.386666 3.75733,2.092 5.61333,3.124 1.39867,0.777333 2.76933,1.642666 4.25867,2.241333 0.95466,0.384 2.716,0.96 2.35066,2.373333 0.0147,-0.05733 2.30534,-0.158666 2.52667,-0.14 0.952,0.08267 1.13067,0.446667 1.704,1.058667 1.21733,1.298666 2.488,2.210666 3.46133,3.769333 0.68267,1.089333 1.10667,2.344 1.87867,3.378667 0.608,0.814666 1.46267,1.601333 1.31867,2.745333 -0.0747,0.585333 -0.472,1.116 -0.82134,1.568 0.81734,-0.308 1.32934,-0.514667 1.82,0.262667 0.74267,1.174666 0.28534,2.424 0.41867,3.670666 0.14267,1.325333 0.72267,2.690667 1.26133,3.896 0.91867,2.052 2.168,4.517333 4.008,5.908 0.79067,0.597333 2.72267,1.817333 3.624,0.626667 1.08534,-1.432 -2.348,-2.342667 -3.22133,-3.078667 -0.992,-0.837333 -1.53733,-1.86 -1.94667,-3.013333"
       style="opacity:0.100006;fill:#000000;fill-opacity:1;fill-rule:nonzero;stroke:none;stroke-width:1.33333"
       id="path1161" />
    <path
       d="m 245.12519,53.381075 c 0.20267,-0.301333 0.46534,-0.561333 0.8,-0.768 0.29334,1.981334 0.30534,5.070667 1.91734,6.54 1.54666,1.410667 2.92533,-1.048 3.956,-1.970666 1.47866,-1.321334 3.532,-2.502667 5.38666,-3.154667 -1.08133,0.38 -2.75466,2.288 -3.43333,3.210667 -0.93067,1.268 -1.396,3.158666 -0.89067,4.690666 0.37334,1.136 1.80534,1.909333 2.752,2.489333 1.30934,0.802667 2.87867,1.44 4.392,1.829334 1.176,0.302666 2.38267,0.512 3.54134,0.861333 1.892,0.569333 4.25866,2.466667 6.296,2.106667 2.008,-0.356 3.268,-2.468 4.51333,-3.86 1.03467,-1.157334 2.19733,-1.888 3.50933,-2.602667 -1.068,1.4 -2.264,4.108 -2.14133,5.928 0.216,3.216 5.13067,4.037333 7.53333,5 1.45467,0.584 3.54667,1.837333 5.00134,1.529333 1.10266,-0.232 1.64266,-0.781333 2.524,-1.382667 0.51466,-0.350666 1.09066,-0.550666 1.636,-0.833333 1.12533,-0.585333 2.2,-1.004 3.41333,-1.348 -1.59867,0.909334 -3.67067,1.828 -3.78,3.885333 -0.14267,2.690667 3.18133,5.028 5.212,6.26 2.536,1.54 5.58133,2.526667 8.548,2.712 -2.32,2.482667 -0.66267,4.3 0.016,7.144 0.15733,0.66 -0.15867,0.938667 -0.16933,1.589333 -2.67867,-0.04533 -3.02934,-4.201333 -6.12934,-3.554666 -0.80266,-2.454667 -3.96,-4.441333 -6.00666,-6.057333 -2.18934,-1.728 -4.35734,-4.28 -7.42267,-3.270667 -2.78267,-3.428 -8.38933,-5.534667 -12.60533,-6.461333 -1.49867,-0.329334 -3.14534,-0.193334 -4.56,-0.548 -1.42667,-0.358667 -2.76934,-1.448 -4.18667,-2.216 -2.31067,-1.250667 -4.67867,-2.56 -7.16133,-3.618667 -2.748,-1.172 -5.78934,-1.626666 -8.476,-2.813333 -1.36267,-0.602667 -2.38534,-1.696 -3.01467,-3.158667 -0.82267,-1.910666 -2.38667,-6.046666 -0.97067,-8.157333"
       style="opacity:0.100006;fill:#000000;fill-opacity:1;fill-rule:nonzero;stroke:none;stroke-width:1.33333"
       id="path1177" />
    <path
       d="m 293.52239,83.624808 c -2.27333,-1.793333 -4.33466,-3.984 -7.452,-2.52 -1.10933,0.52 -1.89866,1.552 -2.43733,2.641333 0.38267,-0.872 1.03333,-1.849333 1.18133,-2.781333 0.336,-2.114667 -1.30933,-3.069333 -2.91466,-3.974667 -1.69867,-0.957333 -3.51867,-1.694666 -5.37467,-2.284 -1.52,-0.481333 -3.588,-1.334666 -5.16133,-0.937333 -1.496,0.377333 -3.37734,0.662667 -4.35467,1.992 -0.164,0.222667 -0.296,0.468 -0.39733,0.726667 0.408,-1.04 0.97733,-2.297334 0.688,-3.457333 -0.224,-0.902667 -1.776,-1.481334 -2.552,-1.901334 -2.31067,-1.250666 -4.67867,-2.56 -7.16134,-3.618666 -1.34933,-0.576 -2.48533,-0.809334 -3.90266,-1.052 -0.85067,-0.145334 -1.57334,-0.232 -2.42267,0.076 -1.22933,0.445333 -1.588,1.382666 -2.44533,2.266666 0.0813,-0.682666 0.17333,-1.34 0.17333,-2.057333 0,-0.533333 0.13733,-1.101333 0.048,-1.630667 -0.104,-0.628 -0.308,-0.596 -0.80667,-0.904 -0.97066,-0.597333 -1.692,-1.641333 -2.13466,-2.670666 -0.82267,-1.910667 -2.38667,-6.046667 -0.97067,-8.157333 0.20267,-0.301334 0.46533,-0.561334 0.8,-0.768 0.136,-0.08267 0.0133,2.274666 0.0133,2.46 -0.005,1.109333 0.14134,2.073333 0.628,3.084 0.92667,1.922666 2.68667,3.453333 4.508,4.503999 6.08667,3.513334 13.51467,5.426667 19.96267,8.461334 4.55467,2.144 9.49067,3.341333 14.07867,5.533333 4.10933,1.964 8.18533,4.385333 11.82133,7.046666 1.652,1.209334 3.284,2.585334 4.79867,3.993333 1.356,1.261334 2.29066,3.253334 3.77333,4.376 -0.0213,-0.18 -0.072,-0.361333 -0.0987,-0.554666 0.0773,0.56 1.56,1.312 0.0947,1.728 -0.71467,0.202666 -1.62933,-0.806667 -2.056,-1.221334 -0.852,-0.830666 -1.63733,-2.190666 -2.92,-2.398666 -1.144,-0.185334 -2.58533,0.712 -3.156,1.674666 1.12,-1.038666 2.19067,-2.850666 0.75333,-4.004 -1.53066,-1.226666 -3.06133,-2.453333 -4.604,-3.670666"
       style="opacity:0.100006;fill:#000000;fill-opacity:1;fill-rule:nonzero;stroke:none;stroke-width:1.33333"
       id="path1193" />
    <path
       d="m 289.30706,38.827742 c 0.56267,1.341334 3.29467,2.648 4.51867,3.546667 2.20666,1.621333 4.57733,3.102667 6.87733,4.589333 0.96,0.621333 1.85733,1.1 2.632,1.941333 0.75467,0.82 0.988,2.001334 1.60933,2.781334 0.83734,1.053333 2.868,1.842666 3.948,2.902666 1.52134,1.492 3.06,3.24 3.66534,5.28 0.7,2.36 0.32666,5.598667 1.696,7.48 1.72266,2.370667 3.664,4.892 4.492,7.752 0.44,1.517333 0.71733,3.484 0.37066,5.010666 -0.30266,1.34 -0.61733,1.833334 -0.23066,3.184 0.70533,2.465334 1.53866,4.941333 1.8,7.505333 0.19733,1.918667 -1.25867,4.58 0.11066,6.226667 0.86267,1.037333 2.26534,1.152 3.31067,1.770667 -1.10533,-0.653334 -2.212,-3.089334 -2.648,-4.228 -0.45333,-1.184 -0.356,-2.292 0.068,-3.462667 0.44533,-1.230667 0.81733,-2.448 1.03333,-3.744 0.068,-0.401333 0.084,-0.817333 0.10667,-1.222666 0.0533,-0.909334 0.16133,-1.326667 1.02133,-1.758667 0.33867,-0.170667 0.62534,-0.216 0.99467,-0.214667 0.304,0.0013 0.36533,-0.084 0.19867,-0.362666 -0.35734,-0.596 -1.08,-0.877334 -1.42267,-1.472 -0.228,-0.394667 -0.29867,-0.970667 -0.36533,-1.42 -0.0573,-0.376 -0.052,-0.849334 -0.168,-1.205334 -0.11334,-0.348 -0.356,-0.701333 -0.51334,-1.037333 -0.38933,-0.826667 -0.76666,-1.66 -1.128,-2.498667 -0.71866,-1.665333 -1.376,-3.358666 -1.92133,-5.089333 -0.0373,-0.12 -0.0747,-0.238666 -0.11067,-0.358666 -0.22266,-0.728 -0.544,-1.693334 -0.19466,-2.449334 0.132,-0.284 1.224,-1.365333 1.56,-1.110666 -0.864,-0.653334 -2.16134,-0.716 -2.948,-1.322667 -0.86534,-0.668 -1.4,-2.594667 -1.89734,-3.554667 -1.03466,-2 -3.12266,-4.535999 -3.43733,-6.786666 -0.356,-2.541333 2.56133,-1.168 3.90667,-0.506667 -0.772,-0.38 -1.62134,-1.826666 -2.324,-2.428 -0.844,-0.722666 -1.75734,-1.358666 -2.69734,-1.949333 -1.90266,-1.193333 -3.93733,-2.156 -5.932,-3.184 -2.04266,-1.052 -4.08666,-2.149333 -5.87733,-3.604 -1.65867,-1.346666 -2.728,-3.777333 -4.63467,-4.72 -1.22266,-0.602666 -4.40933,-0.924 -5.46933,-0.28"
       style="opacity:0.100006;fill:#000000;fill-opacity:1;fill-rule:nonzero;stroke:none;stroke-width:1.33333"
       id="path1209" />
    <path
       d="m 289.37053,39.022676 c -0.60267,0.09333 -1.21467,0.14 -1.81334,0.257333 -0.9,0.174667 -1.788,0.354667 -2.70666,0.498667 1.62133,0.444 3.336,0.106666 4.96666,0.502666 1.43334,0.348 2.824,1.222667 4.008,2.093334 2.208,1.621333 4.57867,3.102666 6.87867,4.589333 0.95867,0.62 1.85733,1.098666 2.63067,1.94 1.032,1.122666 -0.94267,2.609333 -1.928,2.865333 1.548,-0.402667 2.85733,-0.581333 4.08266,0.453333 1.05734,0.894667 2.40934,1.390667 3.404,2.366667 1.52,1.492 3.05867,3.238667 3.664,5.28 0.34,1.146666 0.828,3.078666 0.63467,4.265333 -0.0973,0.594667 -1.29733,2.398667 -1.97867,2.422667 3.88534,-0.136 6.64667,5.481333 7.53334,8.543999 0.43866,1.516 0.65866,3.22 0.56266,4.793334 -0.092,1.510666 -1.424,1.736 -2.66933,2.244 0.59067,-0.241334 1.89067,0.270666 2.252,0.753333 0.384,0.512 0.26667,1.2 0.404,1.812 0.46,2.049333 1.17467,3.988 1.39067,6.097333 0.196,1.918667 -1.25867,4.58 0.11066,6.226667 0.86134,1.037333 2.264,1.152 3.31067,1.770666 -1.10533,-0.653333 -2.21333,-3.089333 -2.64933,-4.228 -0.616,-1.610666 0.172,-3.101333 0.10666,-4.753333 -0.0493,-1.257333 -0.18666,-2.626667 -0.36666,-3.882666 -0.15867,-1.114667 -0.44534,-2.309334 -0.292,-3.509334 0.14666,-1.14 0.708,-2.308 0.73066,-3.514666 0.0507,-2.633334 -1.82,-5.924 -3.168,-8.141333 -1.11733,-1.84 -2.472,-3.657334 -3.28266,-5.64 -1.596,-3.906667 -1.67867,-7.976 -5.15067,-11.069333 -1.40267,-1.249334 -2.9,-2.101334 -4.02533,-3.696 -1.24134,-1.756 -2.76267,-2.573334 -4.57467,-3.692 -1.89333,-1.170667 -9.48133,-4.881333 -8.84133,-7.552 0.13866,-0.578667 -2.14534,-0.333333 -2.40667,-0.264 -0.26933,0.072 -0.54267,0.124 -0.81733,0.166667"
       style="opacity:0.100006;fill:#000000;fill-opacity:1;fill-rule:nonzero;stroke:none;stroke-width:1.33333"
       id="path1225" />
    <path
       d="m 326.76213,98.235874 c -3.552,-0.721333 -0.53734,-8.702666 0.032,-10.688 0.52533,-1.829333 0.28133,-3.050666 0.19733,-4.689333 -0.13333,-2.597333 0.78933,-5.378666 0.36,-8.049333 -0.44267,-2.746666 -2.95333,-5.652 -5.048,-7.316 2.48933,-1.332 2.75867,-8.198666 1.368,-10.157333 -0.87067,-1.225333 -2.41467,-1.510666 -3.60133,-2.352 -1.16134,-0.824 -0.81867,-0.729333 -1.29334,-2.053333 -0.66266,-1.842667 -2.712,-3.306667 -4.15333,-4.536 -2.76133,-2.350666 -5.58133,-4.304 -8.89333,-5.62 3.58533,2.105334 7.70666,3.458667 11.2,5.601333 2.59466,1.592 3.26666,2.318667 4.11866,5.22 0.67734,2.306667 2.80667,2.294667 4.46534,4.089334 1.57066,1.697333 1.196,4.777333 0.92266,6.857333 -0.26266,2 -1.32666,3.601333 -0.47866,5.577333 0.99866,2.328 2.56266,4.330666 3.36666,6.750666 0.81867,2.461334 0.628,3.993334 -0.36666,6.218667 -0.84,1.881333 0.112,3.304 -0.28934,5.353333 -0.70266,3.586667 -4.76266,8.508 -0.27466,11.257333 -0.52267,0.05733 -0.972,-0.092 -1.632,-1.464"
       style="opacity:0.100006;fill:#000000;fill-opacity:1;fill-rule:nonzero;stroke:none;stroke-width:1.33333"
       id="path1241" />
    <path
       d="m 326.24346,98.665741 c -0.94667,-1.173333 -1.23733,-3.193333 -1.12933,-4.414667 0.204,-2.310666 1.04666,-4.492 1.68,-6.702666 0.52533,-1.830667 0.28133,-3.050667 0.19733,-4.690667 -0.13333,-2.597333 0.78933,-5.378666 0.36,-8.048 -0.44267,-2.747999 -2.95333,-5.653333 -5.048,-7.317333 2.48933,-1.332 2.75867,-8.198666 1.368,-10.157333 -0.87067,-1.225333 -2.41467,-1.510666 -3.60133,-2.352 -1.16134,-0.822666 -0.81867,-0.728 -1.29334,-2.052 -2.016,-5.613333 -10.45866,-6.494666 -13.956,-11.031999 2.33867,0.477333 5.02934,1.913333 7.15067,2.938666 2.58667,1.249334 4.97733,2.428 6.976,4.621333 2.272,2.492 4.368,4.934667 6.832,7.177334 0.50533,0.458666 1.056,0.866666 1.56533,1.321333 0.57334,0.513333 1.01334,1.158667 1.59867,1.657333 -0.924,0.129334 -1.27733,-0.233333 -1.52267,0.854667 -0.38,1.682666 -0.49333,3.42 -0.264,5.133333 0.168,1.261333 0.39334,2.742667 1.38267,3.661333 0.848,0.786667 1.912,1.314667 2.81733,2 -0.70933,-0.02533 -1.78133,-0.528 -2.48266,-0.196 -0.71467,0.337334 -0.21734,1.992 -0.0533,2.58 0.31334,1.130667 0.89734,2.16 1.28,3.264 0.44667,1.293333 0.92934,2.585333 1.16934,3.937333 0.116,0.66 0.16933,1.330667 0.1,2 -0.0627,0.612 -0.45467,1.148 -0.48267,1.750667 -0.009,0.194667 0.0427,0.356 0.20267,0.456 0.12266,0.07733 0.33466,0.102667 0.47066,0.149333 0.22934,0.07867 0.44267,0.213334 0.672,0.278667 -0.464,-0.110667 -1.08266,-0.101333 -1.51333,0.110667 -0.56133,0.276 -0.688,1.021333 -0.684,1.577333 0.007,0.804 -0.0613,1.713333 -0.28533,2.486666 -0.51734,1.793334 -2.192,3.02 -2.65867,4.8 -0.50267,1.916 0.26267,3.692 1.52933,5.072 -1.04933,0.216 -1.82533,-0.181333 -2.37733,-0.865333"
       style="opacity:0.100006;fill:#000000;fill-opacity:1;fill-rule:nonzero;stroke:none;stroke-width:1.33333"
       id="path1257" />
    <path
       d="m 333.20359,63.832408 c 1.384,1.564 1.55333,4.946667 1.17867,6.888 -0.14534,0.76 -0.87467,1.754667 -0.78667,2.478667 0.14267,1.161333 1.42133,2.638666 1.77467,3.812 0.88,2.922666 1.40133,6.566666 -0.11334,9.109333 -0.62133,1.044 -0.58933,1.750666 -0.58933,3.185333 0,1.165333 -0.0587,2.249333 -0.29333,3.364 -0.45867,2.18 -1.164,4.552 -2.94133,6.093333 1.664,-2.029333 3.95999,-3.953333 4.84933,-6.533333 0.372,-1.081333 0.0507,-2.154667 0.13466,-3.217333 0.14134,-1.792 1.84267,-2.224 2.47067,-3.813333 0.796,-2.010667 0.076,-5.558667 -0.628,-7.458667 -0.444,-1.198667 -0.74533,-1.728 -0.664,-3.037333 0.1,-1.616 0.248,-3.269333 -0.004,-4.864 -0.41333,-2.622667 -2.14267,-6.705333 -4.388,-6.006667"
       style="opacity:0.100006;fill:#000000;fill-opacity:1;fill-rule:nonzero;stroke:none;stroke-width:1.33333"
       id="path1273" />
    <path
       d="m 333.22799,63.855075 c 1.444,1.788 1.57333,4.694667 1.15467,6.865333 -0.14667,0.76 -0.876,1.754667 -0.78667,2.478667 0.14133,1.161333 1.42133,2.638666 1.77467,3.812 0.88,2.922666 1.4,6.566666 -0.11334,9.110666 -0.62266,1.042667 -0.58933,1.749333 -0.58933,3.184 -10e-4,1.165333 -0.0587,2.249333 -0.29333,3.364 -0.45867,2.18 -1.164,4.552 -2.94133,6.093333 2.81999,-2.445333 3.85999,-6.254666 4.40666,-9.836 0.316,-2.068 1.984,-3.643999 2.19867,-5.619999 0.456,-4.208 -2.98134,-7.776 -2.48534,-12.154667 0.164,-1.445333 0.88667,-3.037333 0.756,-4.506666 -0.14933,-1.672 -1.19333,-3.766667 -3.08133,-2.790667"
       style="opacity:0.100006;fill:#000000;fill-opacity:1;fill-rule:nonzero;stroke:none;stroke-width:1.33333"
       id="path1289" />
    <path
       d="m 247.87586,81.561608 c 2.04933,2.524 5.55467,3.369333 8.50267,4.373333 0.85466,0.290667 1.96266,0.761333 2.90133,0.556 1.964,-0.428 2.60667,-2.944 3.65467,-4.382666 0.78933,-1.085334 1.56933,-2.222667 2.60533,-3.104 -1.616,2.150666 -2.24133,5.490666 -0.908,7.927999 0.736,1.346667 2.72533,1.772 4.10667,2.238667 1.616,0.545333 3.31866,0.950667 5.036,0.868 0.96,-0.04667 1.91733,0.401333 2.83333,0.254667 0.96667,-0.156 1.67733,-0.925334 2.224,-1.68 1.20933,-1.670667 3.044,-3.413333 4.76133,-4.570667 -0.924,0.676 -1.89066,1.876 -2.156,3.004 -1.17333,4.981333 7.472,7.593333 11.164,7.049333 1.76934,-0.261333 2.57334,-1.056 4.09867,-1.852 -0.82,1.762667 -0.224,3.033334 1.22267,4.088 2.30533,1.681334 4.996,3.066667 7.45066,4.519996 -2.42133,0.0187 -4.724,-2.170662 -7.23333,-2.474662 -2.54667,-0.310667 -4.24267,1.105333 -6.60933,1.34 -2,0.198666 -3.92667,-0.622667 -5.83334,-1.077334 -2.37333,-0.568 -4.64666,-1.414666 -6.84933,-2.428 -1.66533,-0.766666 -3.30133,-1.566666 -5.208,-1.753333 -2.91867,-0.285333 -6.55333,0.477333 -9.364,-0.497333 -1.14533,-0.397334 -1.792,-1.474667 -2.656,-2.253334 -1.25733,-1.132 -2.85067,-1.470666 -4.53067,-2.088 -4.23466,-1.554666 -9.96133,-2.718666 -12.468,-6.774666 -1.156,-1.869333 -2.19733,-5.125333 -1.37733,-7.449333 0.37467,-1.06 1.26,-1.576 1.95333,-2.394667 1.01467,-1.194666 1.872,-2.628 3.184,-3.533333 -0.80666,0.556 -1.30266,1.452 -1.748,2.293333 -0.524,0.990667 -0.83866,1.937333 -0.856,3.072 -0.024,1.538667 0.20267,3.365333 0.87067,4.765333 0.33333,0.698667 0.74,1.361334 1.228,1.962667"
       style="opacity:0.100006;fill:#000000;fill-opacity:1;fill-rule:nonzero;stroke:none;stroke-width:1.33333"
       id="path1305" />
    <path
       d="m 243.24426,75.396275 c 0.30267,-0.856 0.87867,-1.488 1.624,-1.972 -0.10533,4.106666 -0.208,7.328 2.98933,10.374666 3.308,3.153333 9.40134,4.630667 13.808,5.762667 1.04667,0.268 2.292,0.336 3.13734,0.914666 0.63333,0.434667 0.98266,1.257334 1.644,1.684 1.69466,1.092 4.472,0.806667 6.47466,0.805334 4.68934,-0.004 8.81867,3.6 13.36134,4.465333 2.00933,0.381333 4.75733,0.613333 6.80666,0.292 1.78667,-0.278667 4.104,-1.228 5.85867,-0.677333 2.104,0.66 4.50267,2.668 6.42533,3.806662 -2.42133,0.0187 -4.72533,-2.170662 -7.23333,-2.474662 -2.54667,-0.310667 -4.24267,1.105333 -6.61067,1.34 -1.99866,0.198666 -3.92533,-0.622667 -5.83333,-1.078667 -2.372,-0.566667 -4.64667,-1.413333 -6.848,-2.426667 -1.66667,-0.768 -3.30133,-1.566666 -5.208,-1.753333 -2.91867,-0.285333 -6.55333,0.477333 -9.364,-0.497333 -1.14533,-0.397334 -1.79333,-1.474667 -2.65733,-2.253334 -1.256,-1.132 -2.84934,-1.470666 -4.53067,-2.088 -4.23467,-1.554666 -9.96,-2.718666 -12.468,-6.774666 -1.15467,-1.869333 -2.196,-5.125333 -1.376,-7.449333"
       style="opacity:0.100006;fill:#000000;fill-opacity:1;fill-rule:nonzero;stroke:none;stroke-width:1.33333"
       id="path1321" />
    <path
       d="m 337.15626,96.039874 c 3.25466,-1.298666 3.86,-6.441333 4.672,-9.162666 0.73733,-2.466667 1.48,-0.596 1.47733,1.189333 -0.005,2.177333 -0.0587,3.496 -1.348,5.289333 -1.456,2.028 -3.16,2.370667 -4.80133,2.684"
       style="opacity:0.100006;fill:#000000;fill-opacity:1;fill-rule:nonzero;stroke:none;stroke-width:1.33333"
       id="path1337" />
  </g>
  <g
     id="g1123"
     inkscape:groupmode="layer"
     inkscape:label="Eye Brows">
    <path
       d="m 310.07279,125.02667 c 0.244,2.89467 -4.348,5.328 -6.56,5.83467 -3.68666,0.844 -6.32,-1.11733 -9.75333,-1.28133 -8.86933,-0.42 -18.828,-3.03467 -27.316,0.64933 -2.30133,0.99867 -4.47333,2.28533 -6.54933,3.664 -0.58534,0.38933 -1.96267,1.85467 -2.59734,1.968 -1.79733,0.32 -3.22933,-3.86933 -3.692,-5.208 -0.91466,-2.64533 -1.28533,-5.676 -1.068,-8.46533 0.32534,-4.15467 2.68,-5.94934 4.35334,-9.34534 0.85333,-1.73066 0.844,-3.76266 1.75466,-5.59733 2.93067,-5.90533 7.58,-6.748 13.708,-5.68667 4.41867,0.76534 9.00534,1.94667 12.96,4.092 2.16134,1.17334 4.14,2.69734 6.308,3.888 4.52267,2.48534 8.27867,5.99067 12.65334,8.60667 3.02133,1.80667 6.22,2.35467 6.09066,6.6 -0.024,0.828 -0.172,1.70667 -0.292,0.28133"
       style="fill:#cd976d;fill-opacity:1;fill-rule:nonzero;stroke:none;stroke-width:1.33333"
       id="path1355" />
    <path
       d="m 341.90492,116.21001 c 2.4,-1.51467 5.188,-1.848 6.63734,0.75733 1.15733,2.07733 0.42533,5.104 -0.228,7.21333 -0.592,1.912 -1.12267,3.14534 -3.24534,3.188 -1.72533,0.036 -3.80266,-0.064 -5.432,-0.62133 -2.072,-0.71067 -1.96533,-2.17867 -2.04133,-4.252 -0.076,-2.11067 1.92533,-4.78133 4.30933,-6.28533"
       style="fill:#000000;fill-opacity:1;fill-rule:nonzero;stroke:none;stroke-width:1.33333"
       id="path1359" />
    <path
       d="m 347.38266,116.63974 c -0.17067,-1.16133 -0.46134,-2.32133 -0.564,-3.39867 -0.21334,-2.23866 -0.83334,-4.648 -2.16934,-6.49333 -1.768,-2.44267 -4.04533,-2.32533 -6.79066,-2.872 -4.86267,-0.968 -9.66667,-3.70533 -14.62933,-3.444 -1.328,0.0707 -3.30267,0.60267 -4.55467,0.15333 -1.008,-0.36 -0.73467,-0.898662 -1.45733,-1.442662 -2.88534,-2.168 -7.808,1.221332 -10.32534,2.388002 -2.19066,1.01466 -4.00266,1.324 -6.00533,0.036 -4.11867,-2.648002 -10.24,0.13066 -14.95867,-0.11067 -5.80666,-0.296 -11.67866,-0.328 -17.47733,-0.28933 -4.44667,0.0307 -7.81333,2.06266 -9.80533,6.07866 -0.91067,1.83467 -0.90267,3.868 -1.75467,5.59734 -1.67333,3.396 -4.02933,5.19066 -4.35333,9.34666 -0.21734,2.788 0.15333,5.81867 1.06666,8.464 0.46267,1.33867 1.896,5.528 3.69334,5.208 0.63333,-0.11333 2.01066,-1.57866 2.596,-1.968 2.076,-1.37866 4.248,-2.66533 6.55066,-3.664 8.48667,-3.684 18.44667,-1.06933 27.31467,-0.648 3.43467,0.16267 6.068,2.124 9.75333,1.28 1.86934,-0.42666 5.42267,-2.23066 6.34,-4.524 1.29334,0.0933 2.59067,0.15867 3.89467,0.15467 2.10533,-0.005 4.18667,-0.17867 6.26667,-0.368 -0.116,0.36933 -0.216,0.736 -0.27867,1.09867 -1.196,2.11466 -0.888,4.42933 1.904,4.10266 3.00133,-0.35066 5.99867,-1.96666 8.95467,-2.66266 2.85599,-0.67334 5.79466,-1.304 8.75866,-1.15467 3.472,0.17467 6.93467,0.17067 8.08533,-3.94533 0.46667,-1.672 0.6,-4.79467 -0.0547,-6.92267"
       style="fill:#cd976d;fill-opacity:1;fill-rule:nonzero;stroke:none;stroke-width:1.33333"
       id="path1363" />
    <path
       d="m 310.07946,125.10454 c 0.0907,3.024 -4.06133,5.184 -6.56667,5.75733 -3.68666,0.844 -6.32,-1.11866 -9.75333,-1.28133 -8.86933,-0.42133 -18.828,-3.03467 -27.316,0.64933 -2.30133,0.99867 -4.47333,2.28534 -6.54933,3.664 -0.58534,0.388 -1.96267,1.85334 -2.59734,1.96667 -2.26133,0.404 -3.32533,-3.972 -3.31733,-5.50267 0.024,-3.96666 1.84533,-7.63733 4.38,-10.632 1.66,-1.96133 3.62,-4.17066 6.14533,-4.97866 5.99734,-1.92 12.43467,3.43733 17.244,6.26666 5.99067,3.524 14.36267,8.07334 21.58934,6.80134 1.33733,-0.23467 3.18666,-1.20134 4.17866,-2.13067 0.74267,-0.69467 1.044,-2.63867 2.11867,-2.91467 1.848,-0.47466 0.84533,2.13334 0.576,3.012 -0.0293,-0.21066 -0.108,-0.44933 -0.132,-0.67733"
       style="opacity:0.199997;fill:#000000;fill-opacity:1;fill-rule:nonzero;stroke:none;stroke-width:1.33333"
       id="path1373" />
    <path
       d="m 272.48093,106.84654 c 0.90533,-0.168 1.81066,-0.36533 2.736,-0.55867 2.62533,-0.54933 5.688,-0.59333 8.156,-1.328 -2.36,1.03734 -4.70534,0.38 -5.35467,3.308 -0.84667,3.81334 4.32267,6.452 7.36667,6.84267 3.08266,0.396 6.12,-0.024 9.012,-1.148 -3.516,2.972 -1.25734,4.808 1.98266,6.39733 3.06267,1.50267 7.268,3.316 10.484,1.648 0.844,4.92267 -10.47066,0.65334 -11.87333,-0.052 -4.14133,-2.08 -8.24933,-4.94666 -12.72667,-6.25733 -6.84,-2 -13.744,-7.45333 -21.092,-7.25867 0.89867,-0.024 2.19867,-0.99866 3.19334,-1.17333 1.24133,-0.21733 2.37733,-0.009 3.61066,0.016 1.55067,0.0333 3.02667,-0.16133 4.50534,-0.436"
       style="opacity:0.199997;fill:#000000;fill-opacity:1;fill-rule:nonzero;stroke:none;stroke-width:1.33333"
       id="path1389" />
    <path
       d="m 347.43666,123.56241 c 0.68133,-2.43734 1.07733,-4.69734 -2.05867,-4.66 -1.79333,0.0213 -3.77733,0.704 -5.36667,1.508 -3.528,1.78533 -6.61466,4.34133 -10.25333,5.92933 -1.84933,0.80667 -3.53333,1.06267 -5.50933,1.24933 -0.192,0.0173 -4.71333,-0.12133 -3.51867,-1.19333 -1.69333,1.51867 -2.724,5.35333 0.908,4.92933 3.00267,-0.35066 6,-1.96666 8.956,-2.66266 2.85467,-0.67334 5.79333,-1.304 8.75867,-1.15467 3.472,0.17467 6.93333,0.17067 8.084,-3.94533"
       style="opacity:0.199997;fill:#000000;fill-opacity:1;fill-rule:nonzero;stroke:none;stroke-width:1.33333"
       id="path1405" />
    <path
       d="m 326.84093,119.85867 c 2.21866,-0.76666 4.308,-1.944 6.06933,-3.46933 1.86266,-1.61333 4.01866,-3.83067 6.544,-4.312 2.55333,-0.48667 3.65333,1.61867 6.08,1.592 -0.496,-3.788 -7.12267,-5.28533 -6.92534,-9.16667 0.008,-0.156 0.016,-0.15333 0.024,0.008 -0.848,1.748 -1.65733,7.28534 -3.932,7.45467 -2.59866,0.192 -2.24799,-3.29733 -2.22933,-4.94933 -0.0267,2.43866 -0.956,5.884 -4.08,4.42933 1.936,0.62667 3.17734,1.54133 2.20534,3.64267 -0.93067,2.01333 -2.652,3.61466 -4.36667,4.97066 0.204,-0.064 0.408,-0.12933 0.61067,-0.2"
       style="opacity:0.199997;fill:#000000;fill-opacity:1;fill-rule:nonzero;stroke:none;stroke-width:1.33333"
       id="path1421" />
    <path
       d="m 308.90159,103.35974 c -0.24533,2.48133 1.13067,2.36133 2.31334,3.83867 1.41466,1.768 -0.212,3.96 -0.524,5.824 -0.464,2.768 0.99066,4.93733 2.00133,7.34133 0.76267,1.81467 1.90267,4.476 3.808,5.38267 -0.82533,-3.33867 -3.18933,-6.20534 -3.56133,-9.692 -0.39067,-3.65734 3.53066,-5.55467 6.716,-5.872 -1.856,-1.47867 -4.344,-1.888 -5.95467,-3.74134 -0.636,-0.732 -1.58933,-1.776 -1.57733,-2.78933 0.0147,-1.184 0.77066,-1.32667 1.59333,-1.87067 1.02133,-0.67466 1.79733,-1.42533 2.74667,-2.234662 -0.216,0.184 -1.68667,0.032 -2.06667,0.105333 -0.78533,0.152 -1.51333,0.451999 -2.22933,0.801329 -1.30534,0.636 -3.10934,1.31867 -3.26534,2.90667"
       style="opacity:0.199997;fill:#000000;fill-opacity:1;fill-rule:nonzero;stroke:none;stroke-width:1.33333"
       id="path1437" />
    <path
       d="m 319.82893,123.18307 c 1.94666,-3.09066 4.964,-6.18 3.86533,-9.868 -0.16533,-0.55866 -1.15733,-1.15733 -1.2,-1.61066 -0.0333,-0.364 0.88933,-1.24134 1.08667,-1.60267 0.77066,-1.408 0.96133,-2.53467 0.564,-4.052 -0.38,-1.45467 -1.15067,-2.93333 -1.61334,-4.39467 1.56934,0.97867 3.28667,1.70534 3.90534,3.608 0.69733,2.14667 -0.136,3.388 -0.84534,5.33067 -0.56,1.53067 0.55467,2.57467 0.29467,4.33333 -0.27867,1.892 -1.62267,4.09734 -2.484,5.81334 -0.87067,1.73333 -2.91867,3.764 -4.68133,4.57466 0.272,-0.71466 0.66133,-1.424 1.108,-2.132"
       style="opacity:0.199997;fill:#000000;fill-opacity:1;fill-rule:nonzero;stroke:none;stroke-width:1.33333"
       id="path1453" />
    <path
       d="m 294.78213,102.69294 c -0.45467,1.10133 -0.17067,2.576 1.008,3.38933 1.50266,1.03467 4.428,1.48134 4.62,3.71867 0.156,1.804 -0.0907,3.31733 1.06266,4.79067 0.77467,0.98933 1.9,1.75866 2.96267,2.52533 1.75733,1.27067 3.21067,2.924 5.06933,4.05867 -0.73333,-2.5 -11.69466,-11.57067 -2.81866,-10.95734 -0.72,-2.53333 -6.69467,-1.91733 -8.55867,-3.484 -1.67333,-1.408 -1.00667,-3.65733 -0.664,-5.39866 -1.36667,-0.24934 -2.29333,0.41733 -2.68133,1.35733"
       style="opacity:0.199997;fill:#000000;fill-opacity:1;fill-rule:nonzero;stroke:none;stroke-width:1.33333"
       id="path1469" />
    <path
       d="m 346.33772,148.21814 c -0.14933,-0.18667 -0.36,-0.376 -0.57733,-0.484 -0.116,0.164 -0.0227,0.57867 -0.004,0.75867 0.0267,0.25733 0.0733,0.476 0.21333,0.69733 0.11867,0.188 0.50134,0.56533 0.752,0.42933 0.452,-0.24533 -0.0267,-0.92666 -0.20933,-1.16933 -0.0373,-0.0493 -0.1,-0.14 -0.17467,-0.232"
       style="fill:#cd976d;fill-opacity:1;fill-rule:nonzero;stroke:none;stroke-width:1.33333"
       id="path1479" />
  </g>
</svg>
