<?xml version="1.0" encoding="UTF-8" standalone="no"?>
<!-- Created with Inkscape (http://www.inkscape.org/) -->

<svg
   version="1.1"
   id="svg1142"
   width="400"
   height="400"
   viewBox="0 0 400 400"
   sodipodi:docname="XindiPrimate.svg"
   inkscape:version="1.3 (0e150ed, 2023-07-21)"
   xmlns:inkscape="http://www.inkscape.org/namespaces/inkscape"
   xmlns:sodipodi="http://sodipodi.sourceforge.net/DTD/sodipodi-0.dtd"
   xmlns="http://www.w3.org/2000/svg"
   xmlns:svg="http://www.w3.org/2000/svg">
  <defs
     id="defs1146" />
  <sodipodi:namedview
     id="namedview1144"
     pagecolor="#ffffff"
     bordercolor="#666666"
     borderopacity="1.0"
     inkscape:showpageshadow="2"
     inkscape:pageopacity="0.0"
     inkscape:pagecheckerboard="0"
     inkscape:deskcolor="#d1d1d1"
     showgrid="false"
     inkscape:zoom="4.17193"
     inkscape:cx="280.32589"
     inkscape:cy="134.35029"
     inkscape:window-width="1920"
     inkscape:window-height="1080"
     inkscape:window-x="2236"
     inkscape:window-y="105"
     inkscape:window-maximized="0"
     inkscape:current-layer="layer1">
    <inkscape:page
       x="0"
       y="0"
       id="page1148"
       width="400"
       height="400"
       margin="0"
       bleed="0" />
  </sodipodi:namedview>
  <g
     id="g1150"
     inkscape:groupmode="layer"
     inkscape:label="Page 1">
    <path
       d="m 343.99919,127.20974 c 0.60133,0.0707 1.224,0.0507 1.87067,-0.0853 1.648,-0.348 3.29066,-2.29467 3.436,-3.988 0.22933,-2.656 2.248,-4.39467 1.91066,-7.14 -0.42133,-3.43467 -2.124,-6.23067 -1.94133,-9.77867 0.18267,-3.50133 -0.364,-7.091999 -1.98533,-10.229332 0.0947,-2.158667 -0.0253,-4.84 -1.09334,-6.764 -0.75466,-1.36 -0.788,-2.650667 -0.75466,-4.165333 0.0413,-1.885334 -0.43467,-3.592 -0.992,-5.406667 -0.58934,-1.922667 -1.39467,-3.801333 -2.43334,-5.524 -0.52266,-0.865333 -1.07466,-1.698666 -1.83333,-2.365333 -0.624,-0.546667 -0.872,-0.504 -1.148,-1.348 -0.35733,-1.094667 -0.40133,-2.206667 -0.90267,-3.293333 -0.808,-1.750667 -2.06533,-3.262667 -3.53466,-4.5 0,0 -1.428,-7.48 -17.81733,-17.061333 -1.124,-0.657333 -2.20134,-1.46 -3.31467,-2.144 -1.58267,-0.972 -3.32267,-1.525333 -5.07067,-2.124 -2.29866,-0.786667 -4.708,-0.912 -7.076,-1.368 -2.28266,-0.438667 -4.61866,-0.7 -6.93333,-0.997333 -3.528,-0.454667 -7.43067,-0.174667 -11.00533,-0.174667 -2.39067,0 -4.732,0.302667 -7.088,0.652 -2.02667,0.3 -4.02934,0.932 -6.02667,1.405333 -1.83733,0.434667 -3.57867,1.016 -5.344,1.712 -1.06,0.417334 -2.27733,0.697334 -3.25733,1.292 -1.79467,1.090667 -3.436,3.190667 -4.00934,5.210667 -0.452,1.596 0.0867,2.177333 1.15867,3.146666 1.43867,1.301334 2.876,2.602667 4.31467,3.904 4.21333,3.810667 8.42666,7.622667 12.64,11.434667 5.348,4.838666 10.696,9.677333 16.04533,14.514666 l 17.116,15.485333 c 5.284,4.779999 10.568,9.561329 15.852,14.341329 4.08667,3.696 8.172,7.392 12.25733,11.08934 1.95733,1.76933 4.24,3.95066 6.96,4.26933"
       style="fill:#000000;fill-opacity:1;fill-rule:nonzero;stroke:none;stroke-width:1.33333"
       id="path1162" />
    <path
       d="m 350.08559,116.18467 c 0.0227,-1.22533 -0.26133,-2.41866 -0.98,-3.30933 -0.412,-0.50933 -0.84133,-0.62533 -1.04267,-1.26267 -0.20666,-0.65733 -0.0253,-1.81866 -0.0547,-2.47866 -0.0533,-1.172 0.17733,-2.412 0.0467,-3.57067 -0.12533,-1.12667 -0.59066,-2.18533 -0.59866,-3.35867 -0.012,-1.908 -0.66667,-3.345329 -1.08667,-5.133329 -0.37333,-1.592 -0.22933,-3.217333 -0.856,-4.813333 -0.61733,-1.568 -1.332,-2.573334 -1.256,-4.294667 0.08,-1.796 -0.116,-3.577333 -0.47733,-5.336 -0.496,-2.421333 -1.03067,-4.96 -2.276,-7.125333 -0.96667,-1.68 -2.65334,-2.834666 -3.67734,-4.429333 -0.25333,-0.394667 -0.28,-1.076 -0.43866,-1.565333 -1.11467,-3.412 -3.34134,-6.794667 -6.316,-8.816 -2.86133,-1.944 -4.108,-5.986667 -6.61067,-8.446667 -2.14266,-2.105333 -4.884,-3.582666 -7.40533,-5.077333 -1.06267,-0.629333 -2.14267,-1.126666 -3.26,-1.664 -1.96533,-0.944 -3.344,-2.493333 -5.26133,-3.448 -1.85734,-0.922666 -3.79334,-1.449333 -5.756,-2.065333 -0.56667,-0.177333 -1.06667,-0.482667 -1.632,-0.632 -1.136,-0.3 -2.26934,-0.862667 -3.46134,-1.053333 -1.30133,-0.208 -2.70666,-0.585334 -3.95866,-1.009334 -0.78267,-0.265333 -1.62534,-0.402666 -2.448,-0.584 -0.74134,-0.162666 -1.57467,-0.421333 -2.348,-0.425333 -0.57867,-0.0027 -1.12134,0.044 -1.65067,0.208 -0.53733,0.166667 -0.82533,0.197333 -1.372,0 -2.296,-0.832 -4.84667,-1.126667 -7.27867,-1.601333 -1.572,-0.306667 -3.43866,-0.192 -5.01066,0.02133 -1.09734,0.148 -2.16534,0.450667 -3.27734,0.498667 -1.12666,0.048 -2.23733,0.09867 -3.35733,0.265333 -1.09467,0.164 -2.22667,0.248 -3.30533,0.446667 -1.01067,0.185333 -1.94267,0.688 -2.91734,1.008 -1.172,0.384 -2.36,0.774666 -3.568,1.057333 -1.20533,0.281333 -2.57066,0.664 -3.628,1.334667 -0.55466,0.352 -1.04133,0.641333 -1.66533,0.894666 -1.36267,0.554667 -2.62933,1.356 -3.89467,2.096 -1.28133,0.749334 -2.08533,2.326667 -3.08133,3.393334 -1.13333,1.211999 -2.36933,2.467999 -2.69067,4.153333 -0.1,0.522666 -0.11733,1.026666 -0.25866,1.550666 -0.32534,1.202667 -1.156,1.213334 -2.09334,1.88 -1.10133,0.782667 -2.296,1.569334 -3.25066,2.548 -0.96934,0.993334 -1.50267,2.416 -2.10267,3.661334 -0.40267,0.831999 -0.70267,1.787999 -0.91733,2.697333 -0.316,1.337333 -0.40134,2.941333 -0.27467,4.290666 0.0987,1.046667 0.47333,2.054667 0.73467,3.074667 0.17466,0.68 0.51866,1.44 0.23066,2.089333 -0.31866,0.718667 -0.65466,1.457334 -0.90933,2.238667 -0.61867,1.894666 -0.17733,4.112 0.29333,5.997333 0.216,0.869333 0.47734,1.906667 0.936,2.656 0.844,1.381333 2.22534,2.122667 3.51467,3.096 0.96533,0.729333 2.044,1.244 3.04667,1.917333 0.51333,0.345333 1.12,0.664 1.356,1.274667 0.0627,0.165333 0.40666,2.338666 0.50133,2.250666 0.27733,-0.258666 0.92933,-0.446666 1.21067,-0.690666 0.60133,1.552 -0.364,3.090666 -0.124,4.686666 0.748,-0.426666 1.44933,-0.985333 2.12933,-1.558666 0.104,2.037333 -0.304,4.078666 -0.12267,6.070666 1.00934,-0.506666 1.42934,-1.532 2.11467,-2.294666 0.42133,1.904 -0.872,5.522665 -1.432,7.384005 1.22,-1.628 2.9,-3.028 4.21467,-4.59734 -0.89067,1.83334 -0.892,4.084 -1.7,5.96934 -0.88534,2.064 -2.40534,3.59733 -2.65734,5.94533 0.39734,-0.25867 5.796,-4.32267 5.796,-4.30933 0.31067,3.49733 -2.25333,7.076 -3.13066,10.32533 1.05733,-0.392 2.29333,-1.768 3.02,-3.04533 -1.756,3.44933 -3.664,7.47333 -4.91467,10.86933 0.52933,-0.74667 1.048,-1.54 1.484,-2.32 -0.76,3.14933 -1.43867,6.684 -2.25467,9.904 0.268,-0.74933 0.81067,-1.65467 0.992,-2.272 0.75734,3.804 2.96,7.25067 4.30267,10.94133 1.14267,-0.30266 1.81467,-3.128 2.29333,-4.32533 2.536,2.096 1.092,5.85067 3.39467,7.79867 1.89067,-0.81734 1.588,-3.97734 1.512,-5.61067 -0.0507,-1.10267 -0.39733,-2.31333 -0.0987,-3.36933 1.02,-3.59867 4.188,-5.17334 7.37334,-6.55734 4.33066,-1.87866 9.12533,-2.11066 13.776,-1.84933 4.85466,0.27467 9.41466,0.96133 14.09333,2.24667 1.732,0.476 3.53333,0.716 5.32667,0.784 0.86266,0.0333 1.79466,-0.11734 2.64133,-0.004 0.956,0.128 1.85467,0.43333 2.83467,0.33466 0.23333,-0.0227 0.46533,-0.0667 0.69066,-0.13066 0.74134,-0.21067 1.73867,-0.52134 2.26267,-1.10667 0.35333,-0.39333 0.44,-0.936 0.73867,-1.36667 0.404,-0.584 1.256,-1.04266 1.956,-0.81066 0.64133,0.21333 1.13333,0.44266 1.316,1.11466 0.164,0.60667 0.324,1.26534 0.51866,1.89067 0.156,0.508 0.30667,1.06933 0.57067,1.536 0.16933,0.3 0.52533,0.43067 0.836,0.55733 0.56,0.22934 1.13867,0.35067 1.74,0.38667 0.44933,0.0267 0.964,-0.21867 1.384,-0.38667 0.43067,-0.172 0.868,-0.304 1.30133,-0.46533 0.37334,-0.13867 0.72667,-0.34133 1.076,-0.52267 0.39334,-0.204 0.788,-0.39866 1.172,-0.61066 0.68934,-0.38134 1.43334,-0.572 2.18934,-0.70934 0.89066,-0.16266 1.77066,-0.472 2.624,-0.76666 1.692,-0.58534 3.356,-1.276 5.10266,-1.688 2.85467,-0.67334 5.79333,-1.30267 8.75867,-1.15467 2.12266,0.10667 5.232,0.652 6.78933,-1.12667 1.46667,-1.67466 1.48267,-4.112 2.69333,-5.97466 0.72134,-1.11067 1.22267,-2.692 1.25067,-4.22134"
       style="fill:#cd976d;fill-opacity:1;fill-rule:nonzero;stroke:none;stroke-width:1.33333"
       id="path1166" />
    <path
       d="m 346.33772,148.21814 c -0.14933,-0.18667 -0.36,-0.376 -0.57733,-0.484 -0.116,0.164 -0.0227,0.57867 -0.004,0.75867 0.0267,0.25733 0.0733,0.476 0.21333,0.69733 0.11867,0.188 0.50134,0.56533 0.752,0.42933 0.452,-0.24533 -0.0267,-0.92666 -0.20933,-1.16933 -0.0373,-0.0493 -0.1,-0.14 -0.17467,-0.232"
       style="fill:#cd976d;fill-opacity:1;fill-rule:nonzero;stroke:none;stroke-width:1.33333"
       id="path1202" />
    <path
       d="m 223.50146,123.75921 c 1.09333,1.78666 2.588,1.63333 4.13067,2.524 1.972,1.13866 0.52933,3.34 1.548,4.92666 0.788,1.22667 1.63333,1.696 2.80133,2.45067 1.284,0.82933 2.08133,1.75467 1.09067,3.244 -1.18934,1.78667 -1.196,2.28 0.228,4.24 1,1.37867 2.66266,2.13067 3.104,3.89067 0.22266,0.88666 0.084,1.23066 0.65066,2.012 0.49334,0.68133 1.11334,1.09333 1.75067,1.61066 1.09067,0.88534 2.128,1.64 2.784,2.848 0.69333,1.28 1.46667,2.08667 2.58,3.12534 0.97733,0.912 1.58267,1.87466 2.41067,2.82533 1.168,1.34 3.276,2.088 4.77866,3.068 2.664,1.74133 5.208,3.67467 8.00267,5.21067 1.19067,0.65333 1.756,1.052 2.41333,2.10666 0.51467,0.82667 1.10534,1.4 1.93734,1.92667 1.41066,0.89333 3.72933,1.99733 5.46133,1.62933 3.00533,-0.64 -0.10933,-4.44666 -0.93333,-5.664 -0.80534,-1.18933 -1.22134,-2.47466 -1.752,-3.78 -0.56134,-1.38 -1.596,-2.52666 -2.528,-3.67466 -1.208,-1.488 -2.028,-3.012 -3.68,-3.952 -1.33734,-0.76267 -2.688,-1.168 -4.11867,-1.46134 -2.68667,-0.54933 -3.608,-4.472 -5.18933,-6.58133 -1.17467,-1.56667 -2.61467,-2.90533 -3.93867,-4.34 -1.196,-1.29467 -1.92267,-2.70533 -2.89733,-4.104 -1.132,-1.62533 -3.084,-2.95333 -4.47334,-4.38267 -1.396,-1.43866 -2.736,-2.93066 -3.996,-4.48933 -1.29733,-1.60667 -2.16933,-3.284 -3.13466,-5.09333 -1.03867,-1.94534 -1.78667,-4.12534 -3.05734,-5.924 -2.91466,-4.12667 -5.00133,1.536 -6.16,4.08 -0.27866,0.61466 -0.13333,1.204 0.18667,1.728"
       style="fill:#cd976d;fill-opacity:1;fill-rule:nonzero;stroke:none;stroke-width:1.33333"
       id="path1206" />
    <path
       d="m 223.50146,123.75921 c 0.21467,0.35066 0.508,0.672 0.80533,0.952 1.968,1.852 4.73067,2.48533 7.248,3.13733 0.272,0.0707 0.656,0.28667 0.82134,-0.0307 0.104,-0.20133 -0.052,-0.868 -0.12934,-1.096 -0.11466,-0.34133 -0.34266,-0.676 -0.53333,-0.99733 -0.41733,-0.704 -0.80533,-1.42 -1.28267,-2.08933 -0.904,-1.26534 -1.788,-2.56534 -2.38133,-4.01067 -0.27067,-0.66 -0.392,-1.24667 -0.47067,-1.93733 -0.024,-0.21067 -0.748,-2.17067 -0.78,-2.14534 -0.348,0.276 -0.62266,1.18667 -0.84,1.6 -0.864,1.64134 -1.87333,3.196 -2.644,4.88934 -0.27866,0.61466 -0.13333,1.204 0.18667,1.728"
       style="fill:#cd976d;fill-opacity:1;fill-rule:nonzero;stroke:none;stroke-width:1.33333"
       id="path1210" />
    <path
       d="m 223.50093,123.75947 c 1.3,2.00934 4.31333,3.07334 6.5,3.69734 0.67866,0.19333 1.532,0.46533 1.98533,-0.10934 -1.22933,-1.84133 -3.01867,-3.11466 -5.09467,-3.85066 -2.20933,-0.78134 -2.81866,-1.96667 -2.19733,-4.36 -0.10933,0.42266 -0.91867,1.14933 -1.14133,1.68 -0.40134,0.952 -0.652,2.01466 -0.052,2.94266"
       style="opacity:0.199997;fill:#000000;fill-opacity:1;fill-rule:nonzero;stroke:none;stroke-width:1.33333"
       id="path1220" />
    <path
       d="m 226.65173,115.11147 c 0.29333,1.68934 -0.90934,3.26667 -1.72934,4.616 -0.85866,1.352 -1.64133,2.77867 -0.788,3.76534 0.81334,1.096 2.28934,1.896 3.68267,2.61866 1.43733,0.708 2.93067,1.336 4.47867,1.92134 -1.664,-0.0427 -3.30534,-0.40667 -4.88534,-0.964 -3.90533,-1.34934 -6.868,-4.06134 -3.32933,-7.94534 1.00667,-1.30266 2.27067,-2.364 2.57067,-4.012"
       style="fill:#000000;fill-opacity:1;fill-rule:nonzero;stroke:none;stroke-width:1.33333"
       id="path1230" />
    <path
       d="m 228.51613,132.44587 c 0.21466,0.35067 0.508,0.672 0.80533,0.952 1.968,1.852 4.73067,2.48534 7.248,3.13734 0.272,0.0707 0.656,0.28666 0.82133,-0.0307 0.104,-0.20133 -0.052,-0.868 -0.12933,-1.096 -0.11467,-0.34133 -0.34267,-0.676 -0.53333,-0.99733 -0.41734,-0.704 -0.80534,-1.42 -1.28267,-2.08934 -0.904,-1.26533 -1.788,-2.56533 -2.38133,-4.01066 -0.27067,-0.66 -0.392,-1.24667 -0.47067,-1.93734 -0.024,-0.21066 -0.748,-2.17066 -0.78,-2.14533 -0.348,0.276 -0.62267,1.18667 -0.84,1.6 -0.864,1.64133 -1.87333,3.196 -2.644,4.88933 -0.27867,0.61467 -0.13333,1.204 0.18667,1.728"
       style="fill:#cd976d;fill-opacity:1;fill-rule:nonzero;stroke:none;stroke-width:1.33333"
       id="path1234" />
    <path
       d="m 228.51559,132.44614 c 1.3,2.00933 4.31334,3.07333 6.5,3.69733 0.67867,0.19334 1.532,0.46534 1.98534,-0.10933 -1.22934,-1.84133 -3.01867,-3.11467 -5.09467,-3.85067 -2.20933,-0.78133 -2.81867,-1.96666 -2.19733,-4.36 -0.10934,0.42267 -0.91867,1.14934 -1.14134,1.68 -0.40133,0.952 -0.652,2.01467 -0.052,2.94267"
       style="opacity:0.199997;fill:#000000;fill-opacity:1;fill-rule:nonzero;stroke:none;stroke-width:1.33333"
       id="path1244" />
    <path
       d="m 231.66626,123.79814 c 0.29333,1.68933 -0.90933,3.26667 -1.72933,4.616 -0.85867,1.352 -1.64134,2.77867 -0.788,3.76533 0.81333,1.096 2.28933,1.896 3.68266,2.61867 1.43734,0.708 2.93067,1.336 4.47867,1.92133 -1.664,-0.0427 -3.30533,-0.40666 -4.88533,-0.964 -3.90534,-1.34933 -6.868,-4.06133 -3.32934,-7.94533 1.00667,-1.30267 2.27067,-2.364 2.57067,-4.012"
       style="fill:#000000;fill-opacity:1;fill-rule:nonzero;stroke:none;stroke-width:1.33333"
       id="path1254" />
    <path
       d="m 232.46879,140.79041 c 0.21467,0.35066 0.508,0.672 0.80534,0.952 1.968,1.852 4.73066,2.48533 7.248,3.13733 0.272,0.0707 0.656,0.28667 0.82133,-0.0307 0.104,-0.20133 -0.052,-0.868 -0.12933,-1.096 -0.11467,-0.34133 -0.34267,-0.676 -0.53334,-0.99733 -0.41733,-0.704 -0.80533,-1.42 -1.28266,-2.08933 -0.904,-1.26534 -1.788,-2.56534 -2.38134,-4.01067 -0.27066,-0.66 -0.392,-1.24667 -0.47066,-1.93733 -0.024,-0.21067 -0.748,-2.17067 -0.78,-2.14534 -0.348,0.276 -0.62267,1.18667 -0.84,1.6 -0.864,1.64134 -1.87334,3.196 -2.644,4.88934 -0.27867,0.61466 -0.13334,1.204 0.18666,1.728"
       style="fill:#cd976d;fill-opacity:1;fill-rule:nonzero;stroke:none;stroke-width:1.33333"
       id="path1258" />
    <path
       d="m 232.46826,140.79081 c 1.3,2.00933 4.31333,3.07333 6.5,3.69733 0.67867,0.19333 1.532,0.46533 1.98533,-0.10933 -1.22933,-1.84134 -3.01866,-3.11467 -5.09466,-3.85067 -2.20934,-0.78133 -2.81867,-1.96667 -2.19734,-4.36 -0.10933,0.42267 -0.91866,1.14933 -1.14133,1.68 -0.40133,0.952 -0.652,2.01467 -0.052,2.94267"
       style="opacity:0.199997;fill:#000000;fill-opacity:1;fill-rule:nonzero;stroke:none;stroke-width:1.33333"
       id="path1268" />
    <path
       d="m 235.61893,132.14281 c 0.29333,1.68933 -0.90934,3.26666 -1.72934,4.616 -0.85866,1.352 -1.64133,2.77866 -0.788,3.76533 0.81334,1.096 2.28934,1.896 3.68267,2.61867 1.43733,0.708 2.93067,1.336 4.47867,1.92133 -1.664,-0.0427 -3.30534,-0.40667 -4.88534,-0.964 -3.90533,-1.34933 -6.868,-4.06133 -3.32933,-7.94533 1.00667,-1.30267 2.27067,-2.364 2.57067,-4.012"
       style="fill:#000000;fill-opacity:1;fill-rule:nonzero;stroke:none;stroke-width:1.33333"
       id="path1278" />
    <path
       d="m 236.31173,147.48814 c 0.21466,0.35067 0.508,0.672 0.80533,0.952 1.968,1.852 4.73067,2.48533 7.248,3.13733 0.272,0.0707 0.656,0.28667 0.82133,-0.0307 0.104,-0.20134 -0.052,-0.868 -0.12933,-1.096 -0.11467,-0.34134 -0.34267,-0.676 -0.53333,-0.99734 -0.41734,-0.704 -0.80534,-1.42 -1.28267,-2.08933 -0.904,-1.26533 -1.788,-2.56533 -2.38133,-4.01067 -0.27067,-0.66 -0.392,-1.24666 -0.47067,-1.93733 -0.024,-0.21067 -0.748,-2.17067 -0.78,-2.14533 -0.348,0.276 -0.62267,1.18666 -0.84,1.6 -0.864,1.64133 -1.87333,3.196 -2.644,4.88933 -0.27867,0.61467 -0.13333,1.204 0.18667,1.728"
       style="fill:#cd976d;fill-opacity:1;fill-rule:nonzero;stroke:none;stroke-width:1.33333"
       id="path1282" />
    <path
       d="m 236.31119,147.48854 c 1.3,2.00933 4.31334,3.07333 6.5,3.69733 0.67867,0.19334 1.532,0.46534 1.98534,-0.10933 -1.22934,-1.84133 -3.01867,-3.11467 -5.09467,-3.85067 -2.20933,-0.78133 -2.81867,-1.96666 -2.19733,-4.36 -0.10934,0.42267 -0.91867,1.14934 -1.14134,1.68 -0.40133,0.952 -0.652,2.01467 -0.052,2.94267"
       style="opacity:0.199997;fill:#000000;fill-opacity:1;fill-rule:nonzero;stroke:none;stroke-width:1.33333"
       id="path1292" />
    <path
       d="m 239.46199,138.84041 c 0.29334,1.68933 -0.90933,3.26666 -1.72933,4.616 -0.85867,1.352 -1.64133,2.77866 -0.788,3.76533 0.81333,1.096 2.28933,1.896 3.68267,2.61867 1.43733,0.708 2.93066,1.336 4.47866,1.92133 -1.664,-0.0427 -3.30533,-0.40667 -4.88533,-0.964 -3.90533,-1.34933 -6.868,-4.06133 -3.32933,-7.94533 1.00666,-1.30267 2.27066,-2.364 2.57066,-4.012"
       style="fill:#000000;fill-opacity:1;fill-rule:nonzero;stroke:none;stroke-width:1.33333"
       id="path1302" />
    <path
       d="m 241.54946,152.67187 c 0.21467,0.35067 0.508,0.672 0.80533,0.952 1.968,1.852 4.73067,2.48534 7.248,3.13734 0.272,0.0707 0.656,0.28666 0.82134,-0.0307 0.104,-0.20133 -0.052,-0.868 -0.12934,-1.096 -0.11466,-0.34133 -0.34266,-0.676 -0.53333,-0.99733 -0.41733,-0.704 -0.80533,-1.42 -1.28267,-2.08934 -0.904,-1.26533 -1.788,-2.56533 -2.38133,-4.01066 -0.27067,-0.66 -0.392,-1.24667 -0.47067,-1.93734 -0.024,-0.21066 -0.748,-2.17066 -0.78,-2.14533 -0.348,0.276 -0.62266,1.18667 -0.84,1.6 -0.864,1.64133 -1.87333,3.196 -2.644,4.88933 -0.27866,0.61467 -0.13333,1.204 0.18667,1.728"
       style="fill:#cd976d;fill-opacity:1;fill-rule:nonzero;stroke:none;stroke-width:1.33333"
       id="path1306" />
    <path
       d="m 241.54906,152.67227 c 1.3,2.00934 4.31333,3.07334 6.5,3.69734 0.67867,0.19333 1.532,0.46533 1.98533,-0.10934 -1.22933,-1.84133 -3.01866,-3.11466 -5.09466,-3.85066 -2.20934,-0.78134 -2.81867,-1.96667 -2.19734,-4.36 -0.10933,0.42266 -0.91866,1.14933 -1.14133,1.68 -0.40133,0.952 -0.652,2.01466 -0.052,2.94266"
       style="opacity:0.199997;fill:#000000;fill-opacity:1;fill-rule:nonzero;stroke:none;stroke-width:1.33333"
       id="path1316" />
    <path
       d="m 244.69973,144.02414 c 0.29333,1.68933 -0.90934,3.26667 -1.72934,4.616 -0.85866,1.352 -1.64133,2.77867 -0.788,3.76533 0.81334,1.096 2.28934,1.896 3.68267,2.61867 1.43733,0.708 2.93067,1.336 4.47867,1.92133 -1.664,-0.0427 -3.30534,-0.40666 -4.88534,-0.964 -3.90533,-1.34933 -6.868,-4.06133 -3.32933,-7.94533 1.00667,-1.30267 2.27067,-2.364 2.57067,-4.012"
       style="fill:#000000;fill-opacity:1;fill-rule:nonzero;stroke:none;stroke-width:1.33333"
       id="path1326" />
    <path
       d="m 246.08373,157.91894 c 0.21466,0.35067 0.508,0.672 0.80533,0.952 1.968,1.852 4.73067,2.48533 7.248,3.13733 0.272,0.0707 0.656,0.28667 0.82133,-0.0307 0.104,-0.20134 -0.052,-0.868 -0.12933,-1.096 -0.11467,-0.34134 -0.34267,-0.676 -0.53333,-0.99734 -0.41734,-0.704 -0.80534,-1.42 -1.28267,-2.08933 -0.904,-1.26533 -1.788,-2.56533 -2.38133,-4.01067 -0.27067,-0.66 -0.392,-1.24666 -0.47067,-1.93733 -0.024,-0.21067 -0.748,-2.17067 -0.78,-2.14533 -0.348,0.276 -0.62267,1.18666 -0.84,1.6 -0.864,1.64133 -1.87333,3.196 -2.644,4.88933 -0.27867,0.61467 -0.13333,1.204 0.18667,1.728"
       style="fill:#cd976d;fill-opacity:1;fill-rule:nonzero;stroke:none;stroke-width:1.33333"
       id="path1330" />
    <path
       d="m 246.08333,157.91934 c 1.3,2.00933 4.31333,3.07333 6.5,3.69733 0.67866,0.19334 1.532,0.46534 1.98533,-0.10933 -1.22933,-1.84133 -3.01867,-3.11467 -5.09467,-3.85067 -2.20933,-0.78133 -2.81866,-1.96666 -2.19733,-4.36 -0.10933,0.42267 -0.91867,1.14934 -1.14133,1.68 -0.40134,0.952 -0.652,2.01467 -0.052,2.94267"
       style="opacity:0.199997;fill:#000000;fill-opacity:1;fill-rule:nonzero;stroke:none;stroke-width:1.33333"
       id="path1340" />
    <path
       d="m 249.23399,149.27121 c 0.29334,1.68933 -0.90933,3.26666 -1.72933,4.616 -0.85867,1.352 -1.64133,2.77866 -0.788,3.76533 0.81333,1.096 2.28933,1.896 3.68267,2.61867 1.43733,0.708 2.93066,1.336 4.47866,1.92133 -1.664,-0.0427 -3.30533,-0.40667 -4.88533,-0.964 -3.90533,-1.34933 -6.868,-4.06133 -3.32933,-7.94533 1.00666,-1.30267 2.27066,-2.364 2.57066,-4.012"
       style="fill:#000000;fill-opacity:1;fill-rule:nonzero;stroke:none;stroke-width:1.33333"
       id="path1350" />
    <path
       d="m 252.01279,161.98147 c 0.21467,0.35067 0.508,0.672 0.80534,0.952 1.968,1.852 4.73066,2.48534 7.248,3.13734 0.272,0.0707 0.656,0.28666 0.82133,-0.0307 0.104,-0.20133 -0.052,-0.868 -0.12933,-1.096 -0.11467,-0.34133 -0.34267,-0.676 -0.53334,-0.99733 -0.41733,-0.704 -0.80533,-1.42 -1.28266,-2.08934 -0.904,-1.26533 -1.788,-2.56533 -2.38134,-4.01066 -0.27066,-0.66 -0.392,-1.24667 -0.47066,-1.93734 -0.024,-0.21066 -0.748,-2.17066 -0.78,-2.14533 -0.348,0.276 -0.62267,1.18667 -0.84,1.6 -0.864,1.64133 -1.87334,3.196 -2.644,4.88933 -0.27867,0.61467 -0.13334,1.204 0.18666,1.728"
       style="fill:#cd976d;fill-opacity:1;fill-rule:nonzero;stroke:none;stroke-width:1.33333"
       id="path1354" />
    <path
       d="m 252.01239,161.98187 c 0.86,1.328 2.33734,2.052 3.636,2.86667 0.488,0.30667 0.864,0.56933 1.42934,0.73867 0.52133,0.15466 1.84533,-0.0533 2.20933,0.17733 -2.76933,-1.76533 -7.084,-4.56267 -6.08133,-8.40533 -0.11067,0.42266 -0.91867,1.14933 -1.14134,1.68 -0.40133,0.952 -0.652,2.01466 -0.052,2.94266"
       style="opacity:0.199997;fill:#000000;fill-opacity:1;fill-rule:nonzero;stroke:none;stroke-width:1.33333"
       id="path1364" />
    <path
       d="m 255.69053,153.59121 c -1.56934,1.73733 -2.39867,4.276 -3.34534,6.34133 -0.548,2.324 2.2,3.348 3.97067,4.39733 1.44133,0.708 2.93867,1.33867 4.49067,1.92534 -1.66667,-0.044 -3.31334,-0.41067 -4.89734,-0.968 -3.964,-1.43067 -6.74,-3.89734 -3.51066,-7.98534 0.81066,-1.35066 1.75866,-2.96266 3.292,-3.71066"
       style="fill:#000000;fill-opacity:1;fill-rule:nonzero;stroke:none;stroke-width:1.33333"
       id="path1374" />
    <path
       d="m 255.94586,160.70907 c 1.75467,2.15867 4.11467,3.67734 6.492,5.016 1.44933,0.816 5.168,4.228 6.89333,4.4 -1.93866,-1.684 -5.264,-5.812 -6.664,-7.95066 -1.472,-2.252 -2.20533,-4.31334 -5.19333,-4.62534 -2.44133,-0.25466 -2.83467,1.55334 -1.528,3.16"
       style="opacity:0.199997;fill:#000000;fill-opacity:1;fill-rule:nonzero;stroke:none;stroke-width:1.33333"
       id="path1384" />
    <path
       d="m 258.52746,153.19907 c 2.59067,0.42534 4.672,2.53334 5.90267,4.74267 0,-0.001 3.756,6.47867 3.756,6.47867 -4.24667,-2.936 -5.29334,-8.464 -9.65867,-11.22134"
       style="fill:#000000;fill-opacity:1;fill-rule:nonzero;stroke:none;stroke-width:1.33333"
       id="path1394" />
    <path
       d="m 252.05306,148.09081 c -0.344,-0.66 -0.69333,-1.288 -1.08133,-1.80534 -1.17467,-1.56666 -2.61467,-2.90666 -3.93867,-4.34133 -1.19467,-1.29467 -1.92267,-2.70533 -2.896,-4.104 -1.13333,-1.62533 -3.08533,-2.952 -4.47467,-4.38267 -1.396,-1.43733 -2.736,-2.92933 -3.996,-4.48933 -1.29733,-1.60667 -2.168,-3.284 -3.13466,-5.09333 -0.25067,-0.472 -0.48534,-0.95734 -0.71467,-1.448 0.172,0.73866 0.352,1.47466 0.61333,2.184 0.516,1.40133 1.324,2.67466 1.90667,4.04533 0.51067,1.20533 0.90933,2.708 0.736,4.052 0.31467,-0.13333 0.68667,-0.172 1.02533,-0.24533 1.74934,2.19466 3.132,3.37466 3.27867,6.30533 -0.0107,-0.212 1.496,0.388 1.60933,0.46133 0.58934,0.37867 1.01467,0.98534 1.38534,1.56534 0.72666,1.14266 1.16133,2.44133 1.80533,3.628 0.644,-2.10534 4.39333,2.03466 5.18933,2.32666 1.01734,0.372 1.88134,0.82267 2.68667,1.34134"
       style="opacity:0.199997;fill:#000000;fill-opacity:1;fill-rule:nonzero;stroke:none;stroke-width:1.33333"
       id="path1404" />
    <path
       d="m 340.81626,173.48414 c 4.81866,-4.128 11.632,-10.00267 6.95466,-16.904 -0.90133,-1.33067 -5.29466,-4.57467 -5.92933,-6.08"
       style="fill:#cd976d;fill-opacity:1;fill-rule:nonzero;stroke:none;stroke-width:1.33333"
       id="path1414" />
    <path
       d="m 340.81626,173.48414 c 3.57333,-5.01467 10.48266,-11.16133 5.54933,-17.31867 0,0 -2.432,-2.656 -2.432,-2.656 -0.77867,-0.92266 -1.66267,-1.844 -2.092,-3.00933 1.97867,2.34933 5.09733,3.544 6.992,6.024 5.172,6.67467 -1.93867,14.30533 -8.01733,16.96"
       style="fill:#000000;fill-opacity:1;fill-rule:nonzero;stroke:none;stroke-width:1.33333"
       id="path1418" />
    <path
       d="m 345.50092,148.88934 c 2.64534,1.192 6.316,6.30933 3.63067,9.05733 -1.01467,-0.73866 -3.26,-2.08266 -3.70933,-3.348 -0.32267,-0.91066 0.17466,-1.696 0.35333,-2.56133 0.19467,-0.94 0.164,-1.876 -0.27467,-3.148"
       style="fill:#000000;fill-opacity:1;fill-rule:nonzero;stroke:none;stroke-width:1.33333"
       id="path1422" />
    <path
       d="m 345.77559,152.03681 c 0.0747,-0.36 0.14933,-0.77334 0.132,-1.14 -0.0147,-0.32934 -0.20667,-0.636 -0.30933,-0.94267 -0.196,-0.59467 -0.47734,-1.16 -0.69067,-1.748 -0.268,-0.74 -0.548,-1.51733 -0.64533,-2.3 -0.064,-0.50933 -0.0733,-1.20533 0.26933,-1.62667 0.35467,0.33734 0.67467,0.83067 0.94133,1.24 0.292,0.448 0.696,0.76934 1.06267,1.16 0.28,0.3 0.52,0.65067 0.736,0.99867 0.25333,0.40667 0.548,0.884 0.652,1.36 0.0867,0.40133 -0.008,0.84 -0.164,1.21467 -0.164,0.392 0.12133,0.5 0.36267,0.79066 1.49066,1.79734 2.97066,4.896 1.01066,6.90267 -1.016,-0.73867 -3.26133,-2.08267 -3.71066,-3.348 -0.32267,-0.91067 0.17466,-1.696 0.35333,-2.56133"
       style="fill:#000000;fill-opacity:1;fill-rule:nonzero;stroke:none;stroke-width:1.33333"
       id="path1426" />
    <path
       d="m 346.97759,151.85174 c 0.772,0.42533 1.192,1.11867 1.42,1.964 0.1,0.368 0.15067,0.75333 0.108,1.132 -0.009,0.0867 -0.33467,1.048 -0.4,0.99067 -0.47867,-0.42134 -1.01733,-0.80134 -1.39067,-1.31334 -0.20666,-0.284 -0.21466,-0.56666 -0.34,-0.87466 -0.0547,-0.13334 -0.124,-0.24267 -0.16266,-0.37867 -0.0773,-0.272 -0.15467,-0.548 -0.216,-0.81867 -0.0493,-0.21733 -0.11867,-0.48 -0.076,-0.704 0.096,-0.50933 0.76933,-0.156 1.05733,0.003"
       style="fill:#cd976d;fill-opacity:1;fill-rule:nonzero;stroke:none;stroke-width:1.33333"
       id="path1430" />
    <path
       d="m 344.92812,159.51601 c 0.42267,0.456 0.804,1.02666 0.93734,1.28666 0.64533,1.25334 0.0613,3.31067 -0.67467,4.40934 -1.648,2.45866 -3.98933,4.37066 -5.676,6.812 -0.53333,0.772 -1.06933,1.9 -1.576,2.5 1.952,-5.03334 4.692,-9.60134 5.51333,-14.984 0.168,-1.10134 0.86534,-0.68267 1.476,-0.024"
       style="opacity:0.199997;fill:#000000;fill-opacity:1;fill-rule:nonzero;stroke:none;stroke-width:1.33333"
       id="path1440" />
    <path
       d="m 302.86986,121.54094 c -0.27733,-3.17733 -3.604,-4.84933 -6.064,-6.32133 -0.66,-0.32534 -1.008,-1.22267 -0.896,-1.908 0.532,-2.83734 3.07867,-4.756 5.37067,-6.06667 1.87733,-0.956 4.13866,-1.68933 6.24933,-0.836 l -0.20933,0.012 c 2.32933,-1.328 4.72133,-2.66667 7.39466,-3.20267 0.90534,-0.16533 1.86667,-0.26266 2.85467,-0.052 l -0.14,-0.016 c 1.75733,0.0133 3.45467,0.22267 5.15333,0.7 1.65867,0.50534 3.39867,1.32534 4.51467,2.92134 l -0.30533,-0.24 c 5.10133,2.09066 10.58799,7.53866 4.848,12.32 0,0 -0.0947,-0.0947 -0.0947,-0.0947 0.83333,-0.99467 1.576,-2.11333 1.77467,-3.336 0.52133,-4.05333 -4.04267,-6.308 -7.21067,-7.69733 -1.928,-2.556 -5.75733,-3.148 -8.82133,-3.36534 -3.25067,-0.576 -6.936,0.98134 -9.84267,2.516 -3.94533,-1.696 -8.028,2.20934 -9.904,5.31467 -0.46267,0.83333 -0.69067,1.81467 -0.16267,2.04533 0.90534,0.53067 1.81334,1.144 2.636,1.83334 1.54134,1.356 3.40134,3.248 2.98667,5.49066 0,0 -0.132,-0.0173 -0.132,-0.0173"
       style="opacity:0.5;fill:#000000;fill-opacity:1;fill-rule:nonzero;stroke:none;stroke-width:1.33333"
       id="path1472" />
    <path
       d="m 326.60506,108.13121 c 1.21067,1.304 0.62667,3.04 -0.184,4.29333 -0.48,1.376 -0.436,2.90533 -1.17733,4.212 -0.476,0.84533 -1.148,1.732 -2.16934,2.10667 l -0.0907,-0.0973 c 0.67733,-1.85466 1.19866,-3.504 2.412,-5.07466 0.28133,-0.39467 0.516,-0.81467 0.61333,-1.27734 0.0227,-1.448 0.14933,-2.63066 0.47067,-4.116 0,0 0.12533,-0.0467 0.12533,-0.0467"
       style="opacity:0.5;fill:#000000;fill-opacity:1;fill-rule:nonzero;stroke:none;stroke-width:1.33333"
       id="path1520" />
    <path
       d="m 284.42346,106.07334 c -0.476,-5.064 4.052,-9.790666 8.62133,-11.398666 1.21334,-0.369333 2.516,-0.48 3.588,-0.804 1.092,-0.377333 2.14667,-1.128 3.32934,-1.548 6.83733,-2.656 14.67733,-4.982666 21.94133,-2.721333 2.38,1.008 4.51467,1.876 6.81467,3.08 2.47733,1.266667 2.98133,4.317333 2.612,6.798667 0,0 -0.13334,0 -0.13334,0 -0.176,-4.876 -2.09866,-5.809334 -6.37466,-7.229334 -3.38,-1.470666 -6.64,-2.437333 -10.41734,-2.228 -6.08933,0.124 -12.35733,1.054667 -17.49066,4.534667 -3.568,1.041333 -6.74267,2.326667 -9.24134,5.217333 -1.596,1.735996 -2.99333,3.829336 -3.116,6.287996 z"
       style="opacity:0.5;fill:#000000;fill-opacity:1;fill-rule:nonzero;stroke:none;stroke-width:1.33333"
       id="path1536" />
    <path
       d="m 331.94306,94.585608 c 1.84933,-0.197334 3.41733,0.574666 4.784,1.669333 1.00133,0.605333 2.23866,0.76 3.14933,1.568 1.58933,1.162667 1.67733,3.674669 0.676,5.185329 0,0 -0.13067,-0.0293 -0.13067,-0.0293 -0.30266,-2.74267 -1.376,-5.125332 -3.88266,-6.334666 -1.67467,-0.373333 -3.25733,-0.694666 -4.63733,-1.932 0,0 0.0413,-0.126666 0.0413,-0.126666 z"
       style="opacity:0.5;fill:#000000;fill-opacity:1;fill-rule:nonzero;stroke:none;stroke-width:1.33333"
       id="path1552" />
    <path
       d="m 341.84786,101.84521 c 1.59466,0.4 2.164,1.968 2.192,3.39466 0.388,1.332 1.20133,2.59067 1.04133,4.04934 -0.0907,0.93733 -0.4,1.92 -1.128,2.62266 l -0.124,-0.0493 c -0.18933,-1.876 -0.21867,-3.34533 -0.028,-5.192 0.0267,-0.44533 0.004,-0.89733 -0.17333,-1.30133 -0.77867,-1.124 -1.42134,-2.008 -1.86667,-3.42267 0,0 0.0867,-0.10133 0.0867,-0.10133"
       style="opacity:0.5;fill:#000000;fill-opacity:1;fill-rule:nonzero;stroke:none;stroke-width:1.33333"
       id="path1568" />
    <path
       d="m 334.87506,116.10387 c 1.12266,-0.69733 2.01866,-1.43066 3.176,-2.00933 1.22266,-0.452 2.452,-0.88 3.54533,-1.63867 2.19333,-1.36266 5.46267,-2.21333 7.59333,-0.28666 0,0 -0.0533,0.12133 -0.0533,0.12133 -1.31067,-0.13333 -2.34933,-0.06 -3.62133,0.20933 -1.732,0.37467 -3.80534,0.392 -5.42534,1.28267 -1.02533,0.76933 -1.86533,1.81467 -3.176,2.19867 -0.62533,0.22666 -1.32666,0.38 -2.01466,0.25333 z"
       style="opacity:0.5;fill:#000000;fill-opacity:1;fill-rule:nonzero;stroke:none;stroke-width:1.33333"
       id="path1584" />
    <path
       d="m 292.80626,111.49321 c -3.87733,-2.46934 -7.85333,-4.56667 -12.15733,-6.05467 -5.844,-1.40267 -12.13734,-0.67467 -17.85867,0.86 -1.20267,0.46933 -3.19467,0.84133 -4.252,1.548 0,0 -0.096,-0.092 -0.096,-0.092 5.43733,-4.59067 13.40267,-4.98133 20.05733,-3.23733 5.3,0.95733 10.92267,2.43066 14.39734,6.87866 0,-0.001 -0.0907,0.0973 -0.0907,0.0973"
       style="opacity:0.5;fill:#000000;fill-opacity:1;fill-rule:nonzero;stroke:none;stroke-width:1.33333"
       id="path1600" />
    <path
       d="m 257.41719,103.45641 c -1.64933,-3.757336 1.00934,-7.936002 4.22667,-9.874669 1.87867,-1.129333 4.18,-1.925333 6.196,-2.750667 3.048,-4.427999 8.796,-13.099999 15.384,-12.878666 1.64133,0.570667 2.66533,1.944 3.62267,3.258667 0,0 -0.10134,0.08533 -0.10134,0.08533 -0.77733,-0.692 -1.59333,-1.349333 -2.44,-1.874667 -3.72533,-2.849333 -13.89466,8.844 -16.264,11.776 -3.95733,1.534667 -7.94133,4.161333 -9.89066,8.028 -0.53467,1.278672 -0.83734,2.726672 -0.608,4.184002 z"
       style="opacity:0.5;fill:#000000;fill-opacity:1;fill-rule:nonzero;stroke:none;stroke-width:1.33333"
       id="path1616" />
    <path
       d="m 284.33159,76.816008 c 6.744,-7.896 17.764,-9.336 27.56667,-8.648 7.89067,0.7 16.876,1.885334 22.532,8.030667 1.256,1.338666 2.29466,3.548 1.28533,5.304 0,0 -0.12,-0.05867 -0.12,-0.05867 0.79867,-2.474667 -1.384,-4.456 -3.156,-5.818667 -6.02,-4.189333 -13.48933,-5.394666 -20.62533,-6.723999 -2.41733,-0.401334 -4.88933,-0.525334 -7.336,-0.308 -7.304,0.82 -14.292,4.192 -20.14667,8.222666"
       style="opacity:0.5;fill:#000000;fill-opacity:1;fill-rule:nonzero;stroke:none;stroke-width:1.33333"
       id="path1632" />
    <path
       d="m 337.68519,80.554541 c 2.09467,1.525334 3.344,3.68 4.348,5.970667 0.80667,1.493333 2.092,2.613333 2.71867,4.248 0.99733,2.562666 -0.0427,5.554666 -2.01334,7.205333 0,0.0013 -0.112,-0.072 -0.112,-0.072 1.672,-3.852 1.32534,-7.724 -0.95733,-11.150667 -1.64133,-1.862666 -3.22,-3.697333 -4.08933,-6.119999 -10e-4,0 0.10533,-0.08133 0.10533,-0.08133"
       style="opacity:0.5;fill:#000000;fill-opacity:1;fill-rule:nonzero;stroke:none;stroke-width:1.33333"
       id="path1648" />
    <path
       d="m 345.81639,108.98921 c -0.0213,-1.344 0.44933,-2.19734 1.15867,-3.20267 0.14933,-0.35333 0.16666,-0.74533 0.13066,-1.14 -0.15333,-1.63467 -0.0173,-2.96267 0.67067,-4.50133 0,0 0.13333,-0.012 0.13333,-0.012 0.49067,0.73866 0.63067,1.57333 0.62134,2.376 0.008,1.236 -0.84667,2.24933 -1.14,3.39466 -0.0333,0.79067 0.068,1.65467 -0.49734,2.32667 -0.23466,0.32933 -0.52133,0.672 -0.976,0.84533 z"
       style="opacity:0.5;fill:#000000;fill-opacity:1;fill-rule:nonzero;stroke:none;stroke-width:1.33333"
       id="path1664" />
    <path
       d="m 251.39426,97.112541 c -2.856,-1.962667 -5.932,-4.928 -5.72133,-8.689333 0.33466,-3.586667 3.428,-6.893333 6.316,-8.324 0.556,-0.264 1.21733,-0.108 1.752,0.07867 2.72,1.084 5.04,2.908 7.18,4.864 0,0 -0.076,0.109333 -0.076,0.109333 -2.79334,-1.188 -5.35067,-2.938667 -8.23334,-3.805333 -1.236,0.42 -2.96266,1.652 -4.18,2.724 -3.41866,2.870666 -2.31733,5.583999 -0.0347,8.769333 0.96266,1.393333 2.06933,2.724 3.09066,4.177333 z"
       style="opacity:0.5;fill:#000000;fill-opacity:1;fill-rule:nonzero;stroke:none;stroke-width:1.33333"
       id="path1680" />
    <path
       d="m 263.46546,60.900542 c 3.72667,-5.201333 8.90533,-9.690667 15.09467,-11.678667 3.12666,-0.902666 6.30133,-1.333333 9.484,-1.712 4.03733,-0.288 8.48933,-1.179999 12.364,0.525334 0.0933,0.06667 0.24,0.153333 0.18,0.114666 5.336,-0.721333 10.65066,1.912 15.55333,3.758667 5.57867,2.576 12.26533,5.632 16.28667,10.070666 -5.15734,-3.729333 -11,-6.310666 -16.83734,-8.761333 -4.68266,-1.734666 -9.468,-4.321333 -14.54,-4.128 -0.192,0.0013 -0.416,0.101334 -0.85066,-0.06133 -0.23467,-0.134667 -0.248,-0.168 -0.31734,-0.216 -0.66133,-0.462667 -1.49066,-0.672 -2.336,-0.857333 -6.21866,-1.073334 -12.74933,0.257333 -18.63733,2.318666 -6.02267,2.025334 -10.92533,6.462667 -15.444,10.626667"
       style="opacity:0.5;fill:#000000;fill-opacity:1;fill-rule:nonzero;stroke:none;stroke-width:1.33333"
       id="path1696" />
    <path
       d="m 241.88559,51.364142 c 0.14534,-4.066667 3.164,-7.328 6.552,-9.225333 8.79734,-6.961333 30.888,-11.372 40.352,-4.324 2.068,1.522667 3.99467,3.202667 5.84667,4.96 l -0.0907,0.09867 c -1.93466,-1.654667 -3.92,-3.26 -6.01866,-4.682667 -8.892,-6.053333 -27.10534,-1.08 -36.52,2.492 -4.74934,1.826667 -7.80667,6.256 -9.99067,10.709333 0,0 -0.13067,-0.028 -0.13067,-0.028"
       style="opacity:0.5;fill:#000000;fill-opacity:1;fill-rule:nonzero;stroke:none;stroke-width:1.33333"
       id="path1712" />
    <path
       d="m 240.86519,87.459208 c -7.03866,-2.984 -11.292,-8.944 -6.51866,-16.084 -1.372,-4.378666 -1.90934,-11.530666 1.86133,-15.773333 1.448,-1.58 3.36933,-3.188 5.56267,-3.368 3.50666,0.544 6.33333,2.722667 9.36933,4.364 0,0.0013 -0.0573,0.121334 -0.0573,0.121334 -3.13734,-0.964 -6.128,-2.812 -9.31867,-3.177334 -1.752,0.392 -3.28133,1.714667 -4.504,2.976 -3.444,3.938667 -3.88267,10.050667 -2.49867,14.989333 -2.63333,4.282667 -1.40666,9.624 2.37334,12.772 1.172,1.094667 2.49466,2.053333 3.8,3.066666 z"
       style="opacity:0.5;fill:#000000;fill-opacity:1;fill-rule:nonzero;stroke:none;stroke-width:1.33333"
       id="path1728" />
    <path
       d="m 288.45346,36.390409 c 3.19333,-0.206667 6.19333,0.68 9.096,1.841333 3,0.810667 6.14667,1.108 9.036,2.337334 1.91733,0.810666 3.78,1.82 5.38667,3.185333 l -0.0653,0.116 c -5.00266,-1.381333 -9.536,-3.716 -14.46666,-5.221333 -3.084,-0.404 -6.09867,-0.853334 -9.008,-2.126667 0,0 0.0213,-0.132 0.0213,-0.132"
       style="opacity:0.5;fill:#000000;fill-opacity:1;fill-rule:nonzero;stroke:none;stroke-width:1.33333"
       id="path1744" />
    <path
       d="m 299.46786,48.045875 c 1.78933,0.662667 2.83867,2.082667 3.68533,3.648 1.12134,1.337334 2.69867,2.290667 3.576,3.852 0.58667,1.021334 1.056,2.157334 1.1,3.394667 l -0.124,0.04933 c -2.15333,-2.06 -3.14666,-4.693333 -4.87866,-7.013333 -1.42534,-1.038667 -2.72134,-2.098667 -3.44934,-3.833333 z"
       style="opacity:0.5;fill:#000000;fill-opacity:1;fill-rule:nonzero;stroke:none;stroke-width:1.33333"
       id="path1760" />
    <path
       d="m 312.91479,70.026142 c 0.748,0.524 1.18934,1.201333 1.404,1.969333 0.064,0.825333 0.12,1.624 0.724,2.269333 1.04267,1.316 1.61867,2.894667 1.20667,4.594667 0,0 -0.12933,0.03067 -0.12933,0.03067 -0.6,-0.658666 -0.97334,-1.334666 -1.27867,-2.049333 -0.48267,-1.057333 -0.308,-2.388 -0.77733,-3.457333 -0.80934,-0.946667 -1.45867,-1.901333 -1.27067,-3.301333 0,0 0.12133,-0.056 0.12133,-0.056"
       style="opacity:0.5;fill:#000000;fill-opacity:1;fill-rule:nonzero;stroke:none;stroke-width:1.33333"
       id="path1776" />
    <path
       d="m 317.86173,91.093608 c 0.50266,0.541333 0.67333,1.114666 0.60533,1.7 -0.224,0.584 -0.45733,1.142666 -0.10133,1.746666 0.55066,1.176 0.568,2.402667 -0.284,3.48 0,0 -0.13334,-0.008 -0.13334,-0.008 -0.396,-0.596 -0.54666,-1.150666 -0.61333,-1.72 -0.12533,-0.850666 0.48533,-1.737333 0.41067,-2.590666 -0.43334,-0.865334 -0.708,-1.636 -0.0173,-2.597334 0,0 0.13334,-0.01067 0.13334,-0.01067"
       style="opacity:0.5;fill:#000000;fill-opacity:1;fill-rule:nonzero;stroke:none;stroke-width:1.33333"
       id="path1792" />
    <path
       d="m 307.77879,110.89921 c 0.94134,0.81466 0.98134,1.81733 0.87867,2.88666 0.24,0.96267 1.152,1.74667 1.38533,2.69867 0.19067,0.636 0.23734,1.25067 0.29734,1.99867 l -0.0947,0.0947 c -1.48133,-0.65466 -1.91467,-2.19866 -1.86,-3.656 0.0107,-0.35866 -10e-4,-0.70666 -0.144,-1.01866 -0.652,-0.892 -1.12533,-1.792 -0.596,-3.004 0,0 0.13333,0 0.13333,0"
       style="opacity:0.5;fill:#000000;fill-opacity:1;fill-rule:nonzero;stroke:none;stroke-width:1.33333"
       id="path1824" />
    <path
       d="m 253.46213,77.943608 c -0.092,-4.225333 2.54133,-7.544 4.15866,-11.233333 0.88134,-1.906667 2.64934,-3.678667 4.82534,-4.036 2.42266,-0.09867 3.924,1.628 5.39466,3.154667 0,0 -0.0813,0.105333 -0.0813,0.105333 -0.92,-0.425333 -1.78933,-0.916 -2.67067,-1.302667 -2.72533,-1.576 -5.088,0.497334 -6.80666,2.510667 -2.61734,3.068 -2.49867,7.378666 -4.69067,10.833333 0,0 -0.12933,-0.032 -0.12933,-0.032"
       style="opacity:0.5;fill:#000000;fill-opacity:1;fill-rule:nonzero;stroke:none;stroke-width:1.33333"
       id="path1840" />
    <path
       d="m 236.09386,71.310008 c 1.788,-0.08933 3.17467,0.725334 4.49867,1.725334 1.468,0.665333 3.192,0.734666 4.60666,1.550666 0.93867,0.525333 1.864,1.162667 2.54534,2.110667 l -0.0733,0.110666 c -2.82133,-0.346666 -4.85866,-2.102666 -7.24933,-3.376 -1.62933,-0.281333 -3.164,-0.690666 -4.37733,-1.997333 0,0 0.0493,-0.124 0.0493,-0.124"
       style="opacity:0.5;fill:#000000;fill-opacity:1;fill-rule:nonzero;stroke:none;stroke-width:1.33333"
       id="path1856" />
    <path
       d="m 338.02772,69.387342 c 0.87734,1.304 0.612,2.697333 0.0933,3.995999 -0.16134,1.334667 0.26133,2.736 -0.18134,4.057334 -0.26133,0.865333 -0.668,1.694666 -1.34266,2.406666 l -0.12667,-0.04133 c -0.23733,-1.888 0.16533,-3.489333 0.916,-5.181333 0.17333,-0.416 0.316,-0.842667 0.30533,-1.284 -0.26266,-1.345333 -0.43066,-2.566667 0.204,-3.937333 0,0 0.132,-0.016 0.132,-0.016"
       style="opacity:0.5;fill:#000000;fill-opacity:1;fill-rule:nonzero;stroke:none;stroke-width:1.33333"
       id="path1872" />
    <path
       d="m 232.88479,76.203075 c -0.12133,1.456 0.0573,3.914666 2.032,6.524 1.6,2.113333 4.72267,4.397333 7.08134,5.773333 5.27066,3.074666 8.45466,8.234666 10.98,10.54 2.52533,2.306662 7.356,7.796002 7.356,7.796002 0,0 4.83066,-2.41467 9.992,-2.30534 0,0 -13.056,2.69067 -11.92267,-7.195996 0,0 -8.752,1.637334 -11.96267,-11.522666 0,0 -4.68133,2.964 -11.46,-5.289333 -1.384,-1.684 -2.096,-4.32 -2.096,-4.32"
       style="opacity:0.199997;fill:#000000;fill-opacity:1;fill-rule:nonzero;stroke:none;stroke-width:1.33333"
       id="path1888" />
    <path
       d="m 273.72959,104.20147 c 0,0 0.152,-0.0147 0.40267,-0.048 1.28533,-0.17466 5.164,-0.86 4.428,-2.69733 -0.87733,-2.195999 -4.172,-4.939999 -4.172,-4.939999 0,0 10.54133,5.927999 13.176,2.525333 2.63467,-3.404 5.48933,-3.624 5.48933,-3.624 0,0 4.612,-3.733333 -3.07333,-10.539999 0,0 11.47733,6.594666 19.98267,4.939999 3.95333,-0.768 8.67466,-1.537333 6.47866,-9.331999 0,0 7.15467,10.274666 11.63867,12.515999 1.31733,0.66 4.28133,-1.976 5.48933,-6.148 0,0 0.516,6.968 4.94133,10.76 1.53734,1.317334 3.732,0.549334 5.16,-1.646666 0,0 -0.65866,5.818662 0,8.673332 0.65867,2.85467 2.196,3.73333 3.184,1.75733 -0.34933,0.89067 -0.64,1.80667 -1.03866,2.67867 -0.0533,0.116 -0.16934,0.268 -0.188,0.39333 -0.0173,0.11467 0.0907,0.24534 0.14933,0.33867 0.15867,0.256 0.36,0.48667 0.592,0.67867 0.2,0.16266 0.44,0.268 0.668,0.384 0.24133,0.12133 0.48267,0.244 0.73333,0.34533 0.23867,0.0973 0.516,0.16533 0.74267,0.28 -0.228,0.136 -0.556,0.15733 -0.81067,0.19067 -0.39466,0.052 -0.788,0.0627 -1.18533,0.08 -0.58533,0.0253 -1.15867,0.19466 -1.732,0.29733 -0.65733,0.11867 -1.304,0.32667 -1.94933,0.49067 -0.416,0.10533 -0.82,0.22266 -1.22534,0.368 -0.27333,0.0987 -0.53866,0.224 -0.81066,0.32666 -0.21867,0.0827 -0.44934,0.14 -0.66534,0.22667 -0.368,0.148 -0.74,0.28 -1.09066,0.46933 -0.396,0.21467 -0.772,0.45867 -1.15734,0.692 -0.53066,0.32134 -1.01866,0.67867 -1.48266,1.08534 -0.128,0.112 -0.25867,0.25733 -0.42267,0.31066 -0.168,0.056 -0.32267,0.128 -0.484,0.20534 -0.37733,0.18266 -0.756,0.364 -1.136,0.54 0.532,-0.79334 1.52933,-1.28667 2.3,-1.77467 1.20133,-0.76133 2.37867,-1.572 3.59867,-2.29867 0.72933,-0.43333 1.36133,-1.036 2.04266,-1.532 0.48934,-0.35733 1.24267,-0.71733 1.57867,-1.24533 0.64267,-1.008 0.084,-2.796 -0.20267,-3.856 -0.644,-2.39067 -1.93866,-4.58933 -3.35866,-6.595999 -1.35334,-1.912 -3.14267,-3.238667 -5.36134,-4.006667 -0.916,-0.317333 -1.86266,-0.542666 -2.81733,-0.710666 -1.86533,-0.329334 -7.02666,-4.501334 -14.05333,-5.16 -7.02667,-0.658667 -15.81067,1.866666 -17.12933,2.634666 -1.31734,0.768 -1.976,2.854667 -0.988,5.050667 0,0 -2.30534,-3.184 -3.952,-2.854667 -1.64667,0.329334 -8.784,3.184 -10.65067,7.905336 -1.86667,4.72133 9.772,9.88133 13.944,6.69733 0,0 -1.42667,2.636 0.65867,4.832 2.08666,2.196 8.12533,5.05067 8.89466,1.64667 0,0 6.47734,6.91733 8.124,0.768 0,0 2.52534,5.38 7.24667,0.65866 1.22933,1.35867 3.68667,1.83467 5.39733,1.22667 1.576,-0.56 3.04134,-1.67867 4.10667,-2.94933 -0.256,1.284 -0.71467,2.36266 -1.69467,3.276 -0.90666,0.84533 -2.08,1.24266 -2.99733,2.004 -0.76,0.63066 -1.06667,1.71466 -1.93867,2.224 1.32934,-0.776 -1.78666,-4.204 -3.476,-2.62134 -0.38533,0.36134 0.024,1.21867 -0.0107,1.732 -1.296,-0.74933 -2.51067,-1.536 -3.99734,-1.92666 -2.08666,-0.54934 -2.30666,-0.11067 -2.30666,-0.11067 0,0 -2.196,-0.21867 -3.51334,-0.10933 -1.31733,0.10933 -3.444,-0.24267 -3.51333,2.52533 0.30933,-0.58 0.56,-1.396 0.228,-2.01467 -0.94267,-1.75866 -4.27867,-0.5 -5.45333,0.18534 -0.34667,0.20266 -1.26134,0.59466 -1.36267,1.05733 -0.0707,0.316 0.28933,0.652 0.444,0.88533 0.356,0.53734 0.552,0.66934 0.13333,0.996 -0.42266,0.32934 -1.03066,0.38267 -1.45466,0.73867 -0.364,0.30533 -0.536,0.78667 -0.86,1.12533 0.40133,-1.07866 0.79466,-1.91866 0.96266,-3.11466 0.13734,-0.97734 -0.152,-1.77467 -0.54933,-2.644 -0.384,-0.84134 -0.97733,-1.35067 -1.556,-2.06667 -0.5,-0.61867 -1.02133,-1.18533 -1.68267,-1.63067 -0.50666,-0.34133 -0.976,-0.55733 -1.568,-0.77733 -2.31066,-0.85867 -4.14666,-2.88667 -6.07866,-4.38267 -1.688,-1.308 -3.43067,-2.67733 -5.35867,-3.61866"
       style="opacity:0.199997;fill:#000000;fill-opacity:1;fill-rule:nonzero;stroke:none;stroke-width:1.33333"
       id="path1904" />
    <path
       d="m 233.84706,63.270408 c 0,0 -0.692,5.162667 0.81867,8.122667 0,0 3.33733,0.252 7.68133,2.581333 4.34533,2.330667 9.508,4.785333 8.87867,7.052 0,0 2.01466,-0.44 4.47066,0.945333 2.456,1.385334 8.43734,5.414667 9.06667,6.170667 0.63067,0.756 -0.37733,4.156 -3.21067,6.108 0,0 4.408,-2.833334 6.548,-3.149334 0,0 7.304,-10.577333 14.73467,-12.843999 0,0 6.108,-6.297333 14.356,-8.564 8.24933,-2.266667 15.93067,-1.637333 24.18,0.504 8.248,2.14 13.096,5.918666 14.79733,9.381333 0,0 3.27333,3.337333 3.904,4.282667 0.62933,0.944 3.148,4.721333 3.652,5.918666 0.50267,1.196 1.13333,-3.526666 1.13333,-3.526666 0,0 -7.17866,-3.337334 -7.05333,-11.397334 0,0 -12.71866,-4.406666 -15.93066,-5.539999 -3.21067,-1.133334 -9.004,-2.456 -12.52934,-6.36 0,0 0.88134,4.470666 -0.56666,4.596 -1.448,0.126666 -13.34934,0.252 -18.072,2.770666 -4.72267,2.518667 -10.07467,4.849333 -13.34934,2.581334 0,0 -1.32133,5.037333 -5.352,9.005333 -4.02933,3.966666 -5.86533,5.230666 -14.98533,0.06267 -1.88933,-1.070666 -3.148,-5.918666 -1.008,-10.703999 2.14133,-4.786667 3.148,-7.053334 5.352,-7.62 2.204,-0.566667 0.94533,-2.077334 2.77067,-3.652 1.82666,-1.573333 10.704,-9.318667 15.17466,-10.641333 4.47067,-1.321334 16.00134,-3.254667 19.83467,-1.385334 1.15733,0.565334 1.008,0.378667 2.96,0.630667 1.952,0.252 14.86,4.029333 20.33867,7.052 0,0 -10.39067,-6.297333 -18.63867,-8.564 -8.24933,-2.266666 -9.06667,-4.156 -9.06667,-4.156 0,0 1.85734,2.402667 -13.97866,5.226667 -8.12267,1.448 -19.70934,12.593333 -24.368,10.830666 0,0 -0.316,8.626667 -2.268,12.089333 -1.952,3.462667 -7.42934,3.085333 -11.96267,1.133334 -4.53467,-1.952 -8.564,-5.1 -8.312,-8.941334"
       style="opacity:0.199997;fill:#000000;fill-opacity:1;fill-rule:nonzero;stroke:none;stroke-width:1.33333"
       id="path1920" />
    <path
       d="m 248.50613,42.219342 c -0.16667,0.09867 -0.33467,0.198667 -0.50134,0.296 -1.28,0.749334 -2.084,2.326667 -3.08133,3.393334 -1.132,1.211999 -2.368,2.467999 -2.69067,4.153333 -0.1,0.522666 -0.116,1.025333 -0.25866,1.550666 -0.15067,0.558667 -0.41334,0.856 -0.74267,1.086667 3.692,1.222667 10.27733,4.156 10.27733,4.156 -8.73066,-3.894667 -4.896,-11.669333 -3.00266,-14.636"
       style="opacity:0.199997;fill:#000000;fill-opacity:1;fill-rule:nonzero;stroke:none;stroke-width:1.33333"
       id="path1936" />
  </g>
  <g
     inkscape:groupmode="layer"
     id="layer1"
     inkscape:label="Brow">
    <path
       d="m 308.82346,125.84601 c -2.98133,2.28666 -6.948,2.76 -10.45067,1.352 -1.504,-0.60267 -2.85733,-1.43867 -4.24,-2.26 -1.192,-0.70934 -2.45333,-1.35067 -3.52266,-2.23734 -1.752,-1.45333 -3.37467,-3.136 -5.13734,-4.604 -2.22266,-1.84933 -4.456,-3.37866 -7.128,-4.52666 -1.01866,-0.43867 -2.09333,-0.748 -3.108,-1.184 -1.396,-0.59867 -2.64,-1.14134 -4.16133,-1.31467 -1.59733,-0.18267 -3.20933,-0.17867 -4.80933,-0.036 -1.41467,0.124 -2.652,0.564 -3.99067,0.98933 -0.58133,0.184 -1.144,0.13334 -1.70133,0.32667 -0.688,0.23733 -1.27067,0.888 -1.872,1.28267 -2.42934,1.6 -4.10667,3.864 -4.90934,6.66 -0.19066,0.66266 -0.352,1.34 -0.42133,2.02266 -0.0893,0.88134 -0.328,1.72667 -0.356,2.62534 -0.0573,1.86266 0.264,3.712 0.59333,5.53733 0.232,1.292 0.468,2.584 0.70667,3.87467 0.12933,0.69333 0.26,1.39466 0.55333,2.036 0.57334,1.25466 1.82134,1.93866 3.12134,2.216 0.344,0.0733 0.68666,0.13066 1.03466,0.15866 -0.08,-0.67733 -0.132,-1.35466 0.0453,-1.97866 1.01866,-3.59867 4.18666,-5.17334 7.37333,-6.55734 4.32933,-1.87866 9.124,-2.11066 13.776,-1.84933 4.85333,0.27467 9.41467,0.96133 14.092,2.24667 1.73333,0.476 3.53467,0.716 5.328,0.784 0.86267,0.0333 1.79333,-0.11734 2.64133,-0.004 0.95467,0.128 1.85467,0.43333 2.83334,0.33466 0.23466,-0.0227 0.46533,-0.0667 0.692,-0.13066 0.74,-0.21067 1.73733,-0.52134 2.26266,-1.108 0.352,-0.392 0.44,-0.93467 0.73734,-1.36534 0.40533,-0.584 1.256,-1.044 1.95733,-0.81066 0.228,0.076 0.42933,0.16266 0.612,0.26133 -0.0627,-1.28667 -0.32667,-2.69067 -1.152,-3.61067 -0.12667,-0.14133 -0.24267,-0.276 -0.33467,-0.404 -0.408,0.368 -0.57733,0.89867 -1.06533,1.27334"
       style="opacity:0.199997;fill:#000000;fill-opacity:1;fill-rule:nonzero;stroke:none;stroke-width:1.33333"
       id="path1176" />
    <path
       d="m 348.83492,120.40534 c 0.14267,-0.22 0.26934,-0.472 0.39334,-0.72533 -0.007,-0.55067 -0.0467,-1.056 -0.26267,-1.58667 -0.13333,-0.32667 -0.43333,-0.91867 -0.78533,-1.06133 -0.72534,-0.296 -1.75467,0.10133 -2.432,0.368 -0.748,0.29333 -1.456,0.672 -2.19067,0.99466 -1.94667,0.852 -3.77467,2.348 -5.468,3.648 -1.73867,1.33467 -3.56133,2.91867 -5.424,4.03067 -1.45866,0.86933 -3.26266,1.51867 -4.86666,2.10533 -0.82534,0.30134 -1.77334,0.57867 -2.632,0.672 -1.15867,0.12534 -2.284,-0.12533 -3.43734,0.18667 -0.0227,0.007 -0.268,0.66267 -0.32,0.744 -0.15333,0.24267 -0.348,0.45733 -0.50266,0.69867 -0.36267,0.57333 -0.71867,1.156 -1.096,1.72266 -0.0213,0.0347 -0.0387,0.072 -0.0613,0.10667 0.312,-0.16 0.624,-0.316 0.928,-0.484 0.68934,-0.38 1.43467,-0.572 2.18934,-0.70933 0.89066,-0.16134 1.77066,-0.472 2.624,-0.76667 1.692,-0.584 3.356,-1.276 5.10266,-1.688 2.856,-0.67333 5.79333,-1.30267 8.75867,-1.15333 2.12266,0.10666 5.232,0.65066 6.78933,-1.128 1.46667,-1.67467 1.48267,-4.11067 2.69333,-5.97467"
       style="opacity:0.199997;fill:#000000;fill-opacity:1;fill-rule:nonzero;stroke:none;stroke-width:1.33333"
       id="path1192" />
    <path
       d="m 310.28373,125.00507 c -1.676,3.876 -4.728,9.15867 -9.74,8.696 -4.67067,-1.12666 -7.112,-5.648 -10.23467,-8.78 -3.91467,-4.484 -8.71067,-7.94266 -14.192,-10.23466 -2.65733,-1.25067 -5.37067,-2.39334 -8.17333,-2.82 -2.78667,-0.47334 -5.67867,0.0453 -8.056,1.64533 -2.412,1.54933 -4.29467,3.884 -5.97334,6.31467 l -0.116,-0.0667 c 4.95334,-10.46 13.32267,-11.612 22.87334,-6.19867 5.53333,2.43467 9.924,6.684 13.94933,11.068 8.72933,8.792 11.67867,11.996 19.66267,0.376"
       style="opacity:0.5;fill:#000000;fill-opacity:1;fill-rule:nonzero;stroke:none;stroke-width:1.33333"
       id="path1456" />
    <path
       d="m 323.42386,119.23121 c 3.16933,6.80133 -1.592,10.31866 -6.26267,14.31333 0,0 -0.12266,-0.0533 -0.12266,-0.0533 0.17866,-1.54134 1.252,-2.79467 2.31866,-3.71734 1.07067,-0.93466 2.37867,-1.51866 3.42934,-2.42533 1.06266,-1.01733 0.472,-2.59867 0.452,-3.88 -0.0427,-1.37067 -0.108,-2.75733 0.0547,-4.212 z"
       style="opacity:0.5;fill:#000000;fill-opacity:1;fill-rule:nonzero;stroke:none;stroke-width:1.33333"
       id="path1488" />
    <path
       d="m 324.01826,128.94921 c 3.39067,-0.876 6.9,-1.096 9.73466,-3.13867 3.88534,-3.53467 7.416,-8.24 12.85734,-9.336 0.604,-0.088 1.34533,-0.036 1.82,0.40933 l -0.076,0.10934 c -0.53734,-0.204 -1.07334,-0.064 -1.58667,0.13333 -3.52533,1.71467 -6.70533,4.65067 -9.988,6.79733 -2.052,1.28134 -3.47733,3.28267 -5.664,4.38534 -2.21333,1.00933 -4.72933,1.208 -7.1,0.77333 0,0 0.003,-0.13333 0.003,-0.13333"
       style="opacity:0.5;fill:#000000;fill-opacity:1;fill-rule:nonzero;stroke:none;stroke-width:1.33333"
       id="path1504" />
    <path
       d="m 305.99866,119.89187 c 1.41333,-0.66933 3.16,-1.60933 4.78133,-0.944 0.48267,0.26134 0.516,0.94534 0.30534,1.288 -1.256,2.04 -0.616,4.86534 0.88,6.576 0.632,0.60934 0.69066,1.572 0.73333,2.38134 0.0307,0.74533 -0.0107,1.48533 -0.144,2.23066 l -0.132,0.0147 c -0.42933,-0.98533 -0.74533,-2.048 -1.092,-3.04267 -0.1,-0.30266 -0.20133,-0.44 -0.412,-0.62133 -1.88267,-1.94267 -1.28667,-4.416 -0.70667,-6.672 0.0293,-0.31333 0.28267,-1.23867 0.10267,-1.284 0.0107,0.02 -0.0147,0.0453 -0.008,0.048 -1.264,0.0373 -2.9,0.38267 -4.284,0.156 0,0 -0.024,-0.13067 -0.024,-0.13067"
       style="opacity:0.5;fill:#000000;fill-opacity:1;fill-rule:nonzero;stroke:none;stroke-width:1.33333"
       id="path1808" />
  </g>
</svg>
