<?xml version="1.0" encoding="UTF-8" standalone="no"?>
<!-- Created with Inkscape (http://www.inkscape.org/) -->

<svg
   version="1.1"
   id="svg5887"
   width="400"
   height="400"
   viewBox="0 0 400 400"
   sodipodi:docname="Zaranite.svg"
   inkscape:version="1.3.1 (91b66b0, 2023-11-16)"
   xml:space="preserve"
   xmlns:inkscape="http://www.inkscape.org/namespaces/inkscape"
   xmlns:sodipodi="http://sodipodi.sourceforge.net/DTD/sodipodi-0.dtd"
   xmlns="http://www.w3.org/2000/svg"
   xmlns:svg="http://www.w3.org/2000/svg"><defs
     id="defs5891" /><sodipodi:namedview
     id="namedview5889"
     pagecolor="#ffffff"
     bordercolor="#666666"
     borderopacity="1.0"
     inkscape:showpageshadow="2"
     inkscape:pageopacity="0.0"
     inkscape:pagecheckerboard="0"
     inkscape:deskcolor="#d1d1d1"
     showgrid="false"
     inkscape:zoom="2.6275"
     inkscape:cx="200"
     inkscape:cy="200"
     inkscape:window-width="2128"
     inkscape:window-height="1264"
     inkscape:window-x="2176"
     inkscape:window-y="25"
     inkscape:window-maximized="0"
     inkscape:current-layer="g5895"><inkscape:page
       x="0"
       y="0"
       id="page5893"
       width="400"
       height="400"
       margin="0"
       bleed="0" /></sodipodi:namedview><g
     id="g5895"
     inkscape:groupmode="layer"
     inkscape:label="Page 1"><path
       d="m 305.35679,234.67707 c -8.30533,0 -20.884,-4.096 -40.78666,-13.28133 -1.87067,-0.864 -3.73334,-1.796 -5.53467,-2.77067 -11.40267,-6.16533 -21.68,-14.80533 -29.72133,-24.98266 -3.95467,-5.00667 -8.11467,-10.44667 -9.51334,-16.764 -0.35333,-1.59867 -0.99733,-3.09067 -1.31066,-4.68134 -0.21734,-1.1 -0.69867,-2.336 -1.81334,-2.80666 -0.816,-0.34534 -1.78133,-0.232 -2.65333,-0.31067 -2.36667,-0.21333 -4.53867,-1.07067 -6.228,-2.76533 -1.12267,-1.12534 -2.02,-2.45067 -2.97333,-3.72267 -1.96934,-2.62933 -4.272,-5.20533 -4.94133,-8.42133 -0.24934,-1.2 -0.248,-2.48934 0.25733,-3.60534 0.58266,-1.29066 1.73466,-2.20533 2.376,-3.45733 0.85333,-1.66667 -0.16,-2.72933 -0.71467,-4.26933 -0.40533,-1.128 -0.65067,-2.296 -0.916,-3.46667 -0.62,-2.732 -1.236,-5.46533 -1.83066,-8.20133 l -0.70534,-3.19467 c -1.42933,-6.44267 -2.90666,-13.104 -3.78666,-19.756 -0.608,-4.59733 -1.17867,-16.678666 1.01466,-29.497332 2.63867,-15.422666 8.448,-26.766666 16.80133,-32.806666 9.40667,-6.801333 19.23867,-10.752 25.82934,-12.869333 7.484,-2.402666 13.956,-3.478666 17.048,-3.478666 0.82266,0 1.36533,0.076 1.76266,0.246666 1.16134,0.497334 2.86,0.794667 4.54534,0.794667 1.97333,0 3.94933,-0.373333 5.872,-1.108 1.12666,-0.430667 2.51066,-0.649333 4.116,-0.649333 10.55066,0 29.60533,9.254666 40.02533,14.770666 16.272,8.614666 26.83733,21.502666 31.40533,38.306666 2.384,8.767999 3.20267,17.131999 3.79867,23.238665 0.396,4.04933 0.73866,7.54667 1.356,8.67867 2.02533,3.712 2.22533,9.596 0.43733,12.848 -0.47867,0.86933 -1.23067,1.64133 -2.028,2.45866 -2.32533,2.38667 -4.73067,4.85467 -2.304,10.57867 3.90533,9.22 2.788,20.22 0.52267,24.29867 -2.06667,3.72 -5.404,18.52666 -5.54267,23.4 -0.112,3.93066 -2.91733,5.928 -5.22533,6.736 2.32933,6.57066 -0.93867,11.15466 -3.59867,14.88933 -1.34266,1.884 -2.61066,3.664 -2.90666,5.356 -1.048,5.98533 -4.93334,14.27733 -12.43867,17.95066 -2.45733,1.20267 -5.332,2.31467 -9.69467,2.31467"
       style="fill:#cd976d;fill-opacity:1;fill-rule:nonzero;stroke:none;stroke-width:1.33333"
       id="path5907" /><path
       d="m 246.53639,130.00401 c 2.376,0.20533 5.06534,-1.352 6.69067,-2.95067 3.16,-3.10533 5.02933,-7.008 8.43733,-9.916 3.98,-3.39467 9.216,-5.58933 14.44,-5.58 5.252,0.0107 11.12934,0.80533 16.26534,-0.58667 2.20666,-0.59733 5.104,-1.22133 6.892,-2.732 1.528,-1.29066 2.60533,-3.30133 3.72666,-4.92666 1.04667,-1.516 1.94667,-3.116 2.36134,-4.926669 0.516,-2.253333 0.53333,-4.869333 0.63066,-7.177333 0.17734,-4.189334 -0.38133,-8.442667 -0.13466,-12.574667 3.10533,0.104 2.91733,8.182667 3.06,9.970667 0.21466,2.709333 -0.15334,5.473333 -0.15067,8.185333 0.004,4.695999 0.156,9.466669 -0.32133,14.141329 -0.084,0.81334 -0.204,2.156 -0.73467,2.78667 -1.032,1.22267 -5.29067,1.39733 -6.71333,1.48267 -3.416,0.204 -6.79334,-0.17867 -10.21067,0.292 -3.816,0.52533 -7.57467,1.412 -11.396,1.90266 -3.464,0.444 -6.97867,1.19467 -10.112,2.79467 -5.23733,2.67333 -7.99333,8.576 -13.79467,10.456 -2.62533,0.84933 -5.97866,0.15867 -8.49733,-0.788"
       style="opacity:0.149994;fill:#000000;fill-opacity:1;fill-rule:nonzero;stroke:none;stroke-width:1.33333"
       id="path5917" /><path
       d="m 306.12013,130.88241 c 1.16,-2.856 0.27333,-6.38134 2.2,-9.23334 1.364,-2.02 3.81066,-4.69333 6.504,-4.14 3.95733,0.816 3.724,6.796 4.61466,9.86267 1.81467,6.248 2.96534,12.57067 9.95467,15.03867 4.492,1.58666 8.89066,-0.148 12.56133,-2.82267 2.13067,-1.552 2.656,-3.59333 2.928,-6.132 0.19867,-1.84267 0.75333,-3.21067 1.57067,-4.904 0.648,-1.34 1.26533,-2.56267 1.38933,-4.01467 0.096,-1.10933 -0.0853,-2.17866 -0.86267,-3.02933 -0.83333,-0.912 -2.524,-1.46 -3.664,-1.83067 -4.44,-1.44533 -9.22666,-2.26666 -13.78266,-3.27333 -2.98133,-0.65867 -5.72133,-0.64667 -7.38933,-3.36 -0.84,-1.36533 -0.77067,-2.44533 -1.23467,-3.97733 -0.59467,-1.96667 -1.808,-3.78667 -2.54667,-5.7 -0.79866,-2.064 -1.43466,-4.189336 -2.208,-6.278669 -2.684,-7.253333 -5.448,-15.468 -10.29466,-21.4 -0.34,1.610667 0.68,3.801334 1.09066,5.332 0.56667,2.116 0.65334,4.177334 0.78,6.386667 0.232,4.032 0.324,8.032 0.11734,12.094666 -0.15867,3.103996 -0.35867,7.303996 -1.272,10.241336 -0.57867,1.86133 -1.356,2.436 -3.14934,3.17333 -4.26,1.748 -8.90666,2.05067 -13.38133,3.012 -2.73733,0.588 -5.47467,1.264 -8.25867,1.59733 -1.83466,0.22 -3.88,0.0147 -5.696,0.38534 -2.852,0.58266 -6.14133,2.23733 -8.59733,3.86666 -3.136,2.08 -5.38533,5.60934 -8.67067,7.46934 -2.82,1.596 -5.588,1.75866 -8.548,0.73866 -3.044,-1.04666 -6.34266,-1.32133 -9.16266,-2.72533 -2.272,-1.13333 -5.04934,-3.08133 -7.56134,-3.268 3.84667,3.38 8.00267,6.84267 13.132,8.172 3.59467,0.932 7.29867,0.924 10.83334,2.192 4.944,1.77467 4.94533,7.696 8.85333,10.72933 1.756,1.36534 3.976,1.41067 6.132,1.75467 3.90667,0.62533 7.87467,1.44933 11.85067,1.32533 3.27866,-0.10266 7.39333,-1.56133 10.30533,-2.992 3.544,-1.74266 5.548,-4.49333 7.48133,-7.82933 1.45067,-2.50667 2.26534,-5.73333 3.98134,-6.46133"
       style="opacity:0.149994;fill:#000000;fill-opacity:1;fill-rule:nonzero;stroke:none;stroke-width:1.33333"
       id="path5933" /><path
       d="m 319.53946,145.17814 c -4.23467,10e-4 -8.55067,0.43733 -12.64,1.57467 -1.24667,0.34666 -3.176,1.71733 -3.58267,-0.0267 -0.11333,-0.49067 1.08934,-2.604 1.512,-2.73733 3.94134,-1.232 8.30134,-1.31467 12.43734,-1.41067 0.43333,-0.0107 0.86533,-0.02 1.29333,-0.0333 1.59333,-0.0453 3.176,0.0413 4.736,0.39466 0.4,0.0907 1.06667,0.24534 1.75333,0.46 0.43467,0.56667 0.86534,1.14267 1.27067,1.75867 0.52933,0.80533 1.00933,1.68933 1.50933,2.56267 -2.49333,-1.628 -5.776,-2.54267 -8.28933,-2.54267 m -11.89467,-7.47867 c 0.02,-0.024 0.04,-0.048 0.06,-0.072 1.452,-1.728 1.81067,-3.64933 2.31067,-5.864 0.584,-2.59333 1.088,-5.16666 1.632,-7.59466 0.536,-2.38667 1.13733,-4.24534 3.96,-2.62534 5.07467,2.912 3.45733,8.932 4.49067,13.45734 0.58933,2.58666 1.89866,4.48533 3.33733,6.33333 -1.71333,-0.79333 -3.62667,-1.22667 -5.17467,-1.22533 -3.18266,0 -6.38933,0.32666 -9.48133,1.09466 -3.28667,0.816 -2.72667,-1.568 -1.13467,-3.504 m 41.68533,-17.17733 c -1.46266,-3.452 -6.596,-5.04533 -9.74266,-6.37867 -4.32934,-1.83333 -8.636,-3.78666 -12.63333,-6.27733 -1.63067,-1.016 -3.73067,-2.05467 -4.89334,-3.6 -1.032,-1.372 -1.544,-3.07867 -2.30266,-4.599999 -1.208,-2.42 -2.25334,-4.829333 -3.244,-7.326667 -1.924,-4.853333 -2.37467,-10.455999 -4.83067,-15.057333 -2.63333,-4.933333 -9.256,-9.674666 -13.72,-12.839999 -0.512,3.110666 1.264,7.841333 2.372,10.634666 2.45067,6.173333 5.61067,12.750666 4.62267,19.578666 -0.78534,5.431996 -4.492,9.673336 -9.452,11.830666 -4.65334,2.02533 -9.792,2.328 -14.75867,3.00133 -4.684,0.636 -9.31867,1.636 -13.84933,2.988 -4.03334,1.204 -6.64934,3.51867 -9.03734,7.02934 -1.97733,2.908 -3.748,6.424 -6.72533,8.46133 -3.31467,2.268 -6.65067,0.97333 -10.02267,-0.70667 -2.27333,-1.13333 -5.04933,-3.08133 -7.56133,-3.268 2.46533,2.168 5.03467,4.12134 7.72133,5.99867 2.01734,1.408 3.856,3.74 6.12134,4.708 2.11333,0.904 4.13466,1.16 6.052,2.524 5.152,3.664 8.76133,10.52267 12.45066,15.556 1.128,1.53867 2.10134,2.88667 3.54,4.144 3.93467,3.44133 8.93734,5.78267 14.17467,6.21867 5.77067,0.48 9.70267,-1.84134 14.664,-4.37867 6.58667,-3.36667 13.95067,-3.52 21.18667,-3.70133 0.61066,-0.0147 1.21733,-0.0307 1.82,-0.0493 2.24266,-0.068 4.468,0.0613 6.66266,0.596 1.39467,0.34 5.096,1.244 5.804,2.748 -2.07066,-4.39866 -8.516,-7.02666 -12.88666,-7.02533 -4.41734,10e-4 -8.85867,0.48667 -13.13867,1.596 -1.804,0.468 -9.68133,4.77867 -10.59067,1.428 -0.36133,-1.32933 0.83334,-2.56 1.956,-3.04667 6.1,-2.644 12.65067,-2.924 19.216,-3.07733 0.53867,-0.012 1.07467,-0.0253 1.60667,-0.04 1.98,-0.056 3.94533,0.0507 5.88267,0.488 0.70133,0.15733 2.056,0.472 3.21466,0.93467 1.02134,1.43466 2.28534,2.61333 4.21867,3.008 2.948,0.60266 5.80133,-1.46 7.2,-3.82267 1.304,-2.2 0.97066,-4.996 2.02533,-7.304 1.176,-2.57733 2.116,-5.11867 2.43067,-8.04 0.45733,-4.25467 6.14133,-8.93333 4.44666,-12.932"
       style="opacity:0.149994;fill:#000000;fill-opacity:1;fill-rule:nonzero;stroke:none;stroke-width:1.33333"
       id="path5949" /><path
       d="m 320.72986,126.32587 c -0.86667,-1.41066 -0.68533,-3.076 -0.15067,-4.59066 0.60534,-1.71334 1.69734,-3.40534 3.04134,-4.63067 1.024,-0.93333 2.168,-1.06533 3.52933,-1.11333 4.74533,-0.16534 8.91066,0.552 12.79066,3.34533 2.132,1.53467 6.504,3.364 7.07734,6.17467 0.20666,1.01066 -0.35734,1.864 -0.876,2.67733 -1.45067,2.27867 -3.28134,4.53733 -5.592,5.968 -1.01734,0.63067 -2.17734,1.40533 -3.35467,1.65867 -1.79333,0.38666 -4.77066,0.528 -6.58,0.128 -1.89866,-0.42 -3.87466,-1.31334 -5.70266,-2.00134 -0.348,-0.13066 -0.652,-0.196 -0.96,-0.41733 -0.63467,-0.45733 -0.98934,-1.19733 -1.32934,-1.88133 -0.73466,-1.47467 -1.38133,-3.10267 -1.89333,-5.31734"
       style="opacity:0.25;fill:#000000;fill-opacity:1;fill-rule:nonzero;stroke:none;stroke-width:1.33333"
       id="path5965" /><path
       d="m 261.17573,131.70307 c 2.19466,-0.0653 3.53733,-0.36 4.59733,1.62667 0.68133,1.276 1.072,2.724 1.816,3.95733 0.61867,1.024 1.72667,1.94267 2.676,2.708 3.54133,2.85734 7.93333,3.548 12.17067,4.796 4.81333,1.416 8.62,2.32134 13.092,-0.52533 2.73866,-1.74533 5.60666,-4.016 7.13733,-6.94267 1.74533,-3.33733 2.41867,-7.28 2.252,-11.016 -0.15867,-3.548 -1.46267,-6.828 -4.21067,-9.112 -2.864,-2.38 -5.86133,-3.056 -9.58666,-2.73866 -3.372,0.288 -6.79334,1.13333 -10.076,1.924 -2.13067,0.512 -4.044,1.32266 -6.13067,1.912 -2.51867,0.712 -5.856,0.76266 -8.036,2.31733 -1.308,0.93333 -2.30267,2.20267 -3.22533,3.50133 -0.96534,1.35734 -1.64667,2.77067 -3.21067,3.45067 -1.61867,0.70267 -3.11067,1.68533 -4.77467,2.324 -0.90133,0.34533 -2.404,0.404 -3.09066,0.97733 2.856,1.13467 5.61333,0.92934 8.6,0.84"
       style="opacity:0.25;fill:#000000;fill-opacity:1;fill-rule:nonzero;stroke:none;stroke-width:1.33333"
       id="path5981" /><path
       d="m 266.16146,29.816276 c 2.97333,-0.289333 5.94533,-0.844 8.92667,-0.973333 2.52533,-0.109334 4.41733,0.790666 6.696,1.548 1.53866,0.512 4.57733,0.468 5.62133,1.914666 0.704,0.977334 -0.40533,3.608 0.10667,5.214667 1.908,6 8.88666,11.837333 12.76133,16.495999 5.26,6.322667 11.22133,11.517333 16.66533,17.452 5.75867,6.277333 12.64134,12.681333 17.07067,20.061333 3.59866,5.994666 6.47333,12.558662 9.93466,18.600002 -3.37866,-0.25867 -6.18533,-4.6 -8.28933,-6.884 -2.46266,-2.67467 -5.3,-6.005336 -6.99333,-9.273336 -0.964,-1.858666 -1.66267,-3.233333 -3.252,-4.782666 -1.16133,-1.132 -2.47733,-2.133334 -3.77067,-3.109333 -2.348,-1.770667 -3.93333,-4.089334 -5.99466,-6.141334 -3.21867,-3.202666 -6.676,-6.101333 -9.816,-9.386666 -1.76267,-1.845333 -3.55867,-3.461333 -5.12534,-5.48 -1.704,-2.194667 -3.95066,-3.892 -5.77066,-6.065333 -1.384,-1.650667 -3.02934,-2.958667 -4.36934,-4.656 -0.96666,-1.225333 -1.912,-2.617333 -3.00533,-3.797333 -3.02933,-3.274667 -5.372,-6.977333 -8.876,-9.766667 -2.716,-2.161333 -5.60933,-4.368 -8.696,-5.945333 -2.93467,-1.498667 -5.88133,-2.593333 -8.91733,-3.798666 1.79066,-1.014667 3.188,-1.041334 5.09333,-1.226667"
       style="opacity:0.149994;fill:#000000;fill-opacity:1;fill-rule:nonzero;stroke:none;stroke-width:1.33333"
       id="path5997" /><path
       d="m 266.16146,29.816276 c 2.97333,-0.289333 5.94533,-0.844 8.92667,-0.973333 2.13333,-0.092 4.37733,0.452 6.28266,1.201333 2.032,0.798667 1.56534,1.232 0.45867,2.602667 -0.8,0.991999 -1.10267,1.143999 -0.77067,2.470666 0.95334,3.822667 5.28267,6.418667 7.79067,9.138667 3.84133,4.165333 7.41467,8.627999 11.03867,12.993333 2.86666,3.453333 6.164,6.539999 8.87066,10.103999 5.14134,6.769333 11.524,12.662667 17.69867,18.464 4.26133,4.002666 6.06267,8.893333 8.82533,13.904 1.43333,2.601332 3.21067,4.596002 4.976,6.972002 1.1,1.48133 1.89067,2.88 3.44133,3.93066 -3.27466,-1.69733 -5.604,-4.72933 -8.04533,-7.37866 -2.46266,-2.67467 -5.3,-6.005336 -6.99333,-9.273336 -0.964,-1.858666 -1.66267,-3.233333 -3.252,-4.782666 -1.16133,-1.132 -2.47733,-2.133334 -3.77067,-3.109333 -2.348,-1.770667 -3.93333,-4.089334 -5.99466,-6.141334 -3.21867,-3.202666 -6.676,-6.101333 -9.816,-9.386666 -1.76267,-1.845333 -3.55867,-3.461333 -5.12534,-5.48 -1.704,-2.194667 -3.95066,-3.892 -5.77066,-6.065333 -1.384,-1.650667 -3.02934,-2.958667 -4.36934,-4.656 -0.96666,-1.225333 -1.912,-2.617333 -3.00533,-3.797333 -3.02933,-3.274667 -5.372,-6.977333 -8.876,-9.766667 -2.716,-2.161333 -5.60933,-4.368 -8.696,-5.945333 -2.93467,-1.498667 -5.88133,-2.593333 -8.91733,-3.798666 1.79066,-1.014667 3.188,-1.041334 5.09333,-1.226667"
       style="opacity:0.149994;fill:#000000;fill-opacity:1;fill-rule:nonzero;stroke:none;stroke-width:1.33333"
       id="path6013" /><path
       d="m 280.86413,189.32337 c -7.23067,0.70796 -16.03067,0.5569 -23.10934,-2.0498 -3.228,-1.18934 -5.77066,-2.66534 -2.15066,-5.04134 -2.616,-2.98666 -7.20267,-4.448 -10.152,-7.25333 -3.02534,-2.87867 -5.14934,-6.636 -7.37334,-10.128 -4.75866,-7.47067 -7.104,-17.48267 -5.95333,-26.34667 0.44133,-3.39733 2.82533,-6.56133 2.356,-10.096 -0.25067,-1.87333 -2.68667,-3.428 -2.23333,-5.41733 0.72666,-3.18133 4.75333,-1.90133 6.852,-2.008 4.44533,-0.22267 12.42133,-5.11733 13.43866,-6.49733 4.09867,-5.56267 9.076,-7.90534 15.22534,-9.66267 6.148,-1.756 26.352,-6.586666 28.54666,-10.978666 2.196,-4.392 4.97867,-21.374666 2.196,-26.645332 -0.98266,-1.861334 -2.00933,-4.078667 -3.46666,-5.62 -1.26267,-1.336 -2.848,-2.26 -4.23067,-3.450667 -1.31333,-1.130666 -2.732,-2.302666 -3.86933,-3.614666 -0.93334,-1.076 -1.71067,-2.250667 -2.872,-3.069334 -0.90534,1.136 0.424,3.106667 1.03866,4.06 0.89734,1.392 1.98667,2.452 2.65067,3.965334 1.12667,2.573333 1.39467,4.798666 1.14,7.569333 -0.51067,5.537333 -2.24267,11.185333 -6.53733,14.974666 -8.83867,7.798666 -20.264,11.233333 -29.55334,18.245332 -5.844,4.41067 -13.62266,8.57733 -21.20266,6.376 -3.10267,-0.9 -5.73067,-2.66 -7.85734,-5.092 -7.1,-8.114666 -2.78,-23.405332 1.69734,-31.723998 5.41333,-10.057333 13.43866,-18.290667 22.73066,-24.821333 3.62534,-2.548 7.192,-5.118667 11.164,-7.124 3.38667,-1.709333 6.51867,-2.153333 9.97334,-3.42 -0.628,-1.282666 -2.09734,-2.464 -3.43467,-2.997333 -5.116,-2.042667 -11.516,-2.149333 -16.852,-1.172 -3.66267,0.670667 -7.276,1.625333 -10.81867,2.762667 -6.592,2.115999 -16.42266,6.066666 -25.83066,12.869333 -8.352,6.039999 -14.16133,17.382666 -16.80133,32.806665 -2.19334,12.818667 -1.62267,24.899999 -1.01334,29.495999 0.88,6.65333 2.35734,13.31467 3.78534,19.756 l 0.70533,3.19467 c 0.596,2.73733 1.212,5.47066 1.83066,8.20133 0.26534,1.17067 0.51067,2.33867 0.91734,3.46667 0.55333,1.54 1.568,2.60266 0.71333,4.27066 -0.64133,1.252 -1.79333,2.16667 -2.376,3.456 -0.504,1.11734 -0.50666,2.40667 -0.25733,3.60534 0.67066,3.216 2.97333,5.79333 4.94266,8.42133 0.95334,1.27333 1.85067,2.59733 2.97334,3.724 1.688,1.69467 3.86133,2.55067 6.228,2.76533 0.87066,0.0787 1.83733,-0.036 2.65333,0.30934 1.11333,0.472 1.59467,1.70666 1.812,2.80666 0.31467,1.592 0.95733,3.084 1.312,4.68134 1.39733,6.31866 5.55733,11.75733 9.512,16.764 8.04133,10.17866 18.32,18.81733 29.72267,24.98399 1.80133,0.97467 3.66266,1.90667 5.53466,2.77067 19.90267,9.18533 32.48134,13.28133 40.78534,13.28133 4.36266,0 7.23733,-1.11333 9.69466,-2.31466 3.62534,-1.77334 7.48667,-4.608 9.16134,-8.40534 2.05466,-4.66133 0.70266,-9.80133 2.428,-14.572 0.95466,-2.64133 4.30666,-4.544 1.18666,-6.30533 -2.568,-1.45067 -8.54133,-1.012 -11.16,-0.38933 -2.61866,0.62266 -2.91066,1.06533 -1.688,3.336 1.02,1.896 2.244,3.52666 3.20534,5.55333 1.60933,3.392 4.40666,6.77867 -0.44934,8.696 -3.832,1.512 -8.664,0.68267 -12.672,0.68 -4.57066,-0.003 -16.54133,0.70133 -16.50133,-6.37067 0.007,-1.34533 0.92667,-4.06533 1.67733,-5.15333 0.93467,-1.35333 2.45867,-2.056 3.92,-2.68933 0.70667,-0.30667 3.656,-1.164 3.52534,-2.13734 -0.18667,-1.40133 -4.124,-0.82266 -5.05467,-0.82266 -2.48267,0 -4.98533,0.18133 -7.46,0.1 -2.032,-0.0667 -3.96,-0.824 -5.96133,-1.03734 -1.696,-0.18133 -3.67867,0.51734 -5.34134,0.89867 -4.94133,1.13067 -11.348,1.91867 -15.608,-1.66133 -1.888,-1.588 -2.684,-4.39467 0.10667,-5.62 1.62533,-0.71333 4.39067,-0.11467 6.21733,-0.46933 3.64534,-0.70534 5.66601,0.0336 10.65294,0.9609 0.89158,0.16579 4.73363,0.36408 5.6123,0.15875 4.324,-1.008 7.13862,-1.14379 11.6099,-2.99082 7.02267,-3.36811 12.86753,-5.4275 20.0062,-5.42083 6.44133,0.004 12.39066,1.516 18.69333,2.35066 1.65733,0.22 6.64666,1.06 7.34533,-1.16666 1.17333,-3.744 -1.32504,-3.16803 -7.27963,-3.39799 -3.8293,-0.14789 -8.28181,-4.06834 -16.68849,-4.17559 -10.71704,-0.13673 -21.60303,5.82985 -33.67054,7.01138 z"
       style="opacity:0.149994;fill:#000000;fill-opacity:1;fill-rule:nonzero;stroke:none;stroke-width:1.33333"
       id="path6029"
       sodipodi:nodetypes="scccccccccccscccccccsccccsccccccccccccccccccccccccsccccscccsccccsccccccscccccsss" /><path
       d="m 315.05079,232.36267 c -2.45733,1.20133 -5.332,2.31467 -9.69466,2.31467 -8.304,0 -20.88267,-4.096 -40.78534,-13.28134 -1.872,-0.864 -3.73333,-1.796 -5.53466,-2.77066 -11.40267,-6.16534 -21.68134,-14.80534 -29.72267,-24.984 -3.95467,-5.00533 -8.11467,-10.44533 -9.512,-16.76267 -0.35467,-1.59866 -0.99733,-3.09066 -1.312,-4.68133 -0.21733,-1.1 -0.69867,-2.336 -1.812,-2.80667 -0.816,-0.34666 -1.78267,-0.232 -2.65333,-0.31066 -2.36667,-0.21334 -4.54,-1.07067 -6.228,-2.76534 -1.12267,-1.12533 -2.02,-2.45066 -2.97334,-3.72266 -1.96933,-2.62934 -4.272,-5.20667 -4.94266,-8.42134 -0.24933,-1.2 -0.24667,-2.48933 0.25733,-3.60533 0.58267,-1.29067 1.73467,-2.20533 2.376,-3.45733 0.85467,-1.66667 -0.16,-2.72934 -0.71333,-4.27067 -0.40667,-1.12667 -0.652,-2.29467 -0.91734,-3.46533 -0.61866,-2.732 -1.23466,-5.46534 -1.83066,-8.20267 l -0.70533,-3.19467 c -1.428,-6.44133 -2.90534,-13.10266 -3.78534,-19.75466 -0.60933,-4.59734 -1.18,-16.678669 1.01334,-29.497335 2.64,-15.422667 8.44933,-26.766666 16.80133,-32.806666 9.408,-6.802667 19.23866,-10.752 25.83066,-12.869333 3.54267,-1.137333 7.156,-2.092 10.81734,-2.762667 2.84266,-0.52 5.95866,-1.12 8.61066,0.389334 -16.34533,5.274666 -30.83466,16.130666 -40.488,30.335999 -6.07466,8.936 -10.31066,19.417333 -10.31066,30.222666 0,6.022666 1.43066,12.089332 4.26133,17.414662 1.14267,2.14934 2.54,4.428 4.19333,6.232 1.732,1.89067 4.21467,2.98534 5.78134,5.028 4.24666,5.53734 2.83466,13.41734 1.90133,19.64534 -0.65867,4.40133 -0.752,8.876 -0.284,13.30266 0.916,8.67867 3.94667,17.40667 9.65467,24.116 2.33733,2.74934 5.70266,4.156 8.52,6.29334 1.19333,0.90533 1.15066,0.62 0.80533,2.076 -0.36267,1.52533 -0.788,2.84666 -0.70267,4.45466 0.096,1.83067 0.67467,3.27067 1.63467,4.776 2.64933,4.152 5.75733,8.50267 9.29733,11.92533 9.16667,8.864 20.19867,13.96667 32.17734,17.58934 4.06666,1.23066 8.04266,2.348 12.24533,3.00133 3.52933,0.54933 7.64933,1.59333 11.23467,1.04 4.124,-0.63733 8.61733,-1.272 12.184,-3.544 2.01866,-1.28533 3.94266,-2.99467 5.24,-5.05333 0.65066,5.72133 -5.29467,10.56666 -9.92934,12.83333"
       style="opacity:0.149994;fill:#000000;fill-opacity:1;fill-rule:nonzero;stroke:none;stroke-width:1.33333"
       id="path6045" /><path
       d="m 203.78826,152.62241 c -6.832,4.33733 6.74133,16.088 9.056,11.68666 0.92,-1.748 -1.17333,-5.04533 -1.96933,-6.67333 -1.61734,-3.312 -2.87734,-6.68 -7.08667,-5.01333"
       style="opacity:0.149994;fill:#000000;fill-opacity:1;fill-rule:nonzero;stroke:none;stroke-width:1.33333"
       id="path6061" /><path
       id="path6071"
       style="fill:#000000;fill-opacity:1;fill-rule:nonzero;stroke:none;stroke-width:1.33333"
       d="M 273.56445 28.140625 C 271.00458 28.053979 269.02119 28.36657 267.61719 28.990234 C 264.98252 30.162231 261.76134 30.307926 256.63867 28.697266 C 249.61175 27.276897 231.05309 31.887211 211.64258 45.011719 C 194.06749 56.895199 190.61221 90.184846 193.68555 109.2168 C 196.76018 128.2474 202.91016 147.42578 202.91016 147.42578 L 203.93359 146.69336 C 203.93359 146.69336 197.20147 118.00089 195.88281 108.04492 C 194.56547 98.090287 194.12627 60.759338 213.1582 46.998047 C 232.18881 33.236756 254.44285 30.160399 256.49219 31.039062 C 257.40596 31.430254 258.83801 31.756335 260.52734 31.869141 C 263.86297 33.033622 270.08247 35.004461 276.83984 40.701172 C 284.30651 46.99716 298.36055 66.174397 307.14453 74.373047 C 315.92851 82.571698 327.34814 92.0861 329.10547 95.746094 C 330.86147 99.406086 337.30319 108.19114 343.45117 111.11914 C 343.45117 111.11914 333.93502 101.60324 330.56836 95.308594 C 327.20169 89.01394 315.4899 79.496736 308.16992 72.46875 C 300.84994 65.442098 284.74555 46.557643 281.37891 42.458984 C 278.4777 38.928384 270.37025 34.32289 263.5918 31.800781 C 264.94835 31.639629 266.39561 31.325052 267.91016 30.746094 C 275.0168 28.028767 293.52989 35.576808 310.95117 44.800781 C 328.37244 54.023421 337.59667 67.200675 341.69531 82.279297 C 345.79531 97.357918 345.20753 111.26438 346.96484 114.48438 C 348.72217 117.70568 349.01497 123.12476 347.4043 126.05273 C 345.79497 128.97939 339.35172 131.61464 343.01172 140.25195 C 346.67172 148.88925 345.79363 159.42951 343.59766 163.38281 C 343.25903 163.99243 342.88998 164.92496 342.51172 165.98047 C 342.38963 166.19583 342.26845 166.38997 342.14648 166.55273 C 338.99912 170.75322 337.03817 168.20248 331.68555 166.20508 C 328.27462 164.93225 327.13951 166.16016 324.82617 168.79883 C 322.98884 170.89483 319.25945 172.82312 316.43945 171.56445 C 315.08611 170.95912 314.32744 169.38972 313.02344 168.62305 C 310.7901 167.30972 308.46257 167.70195 306.19727 166.86328 C 304.32527 166.16995 304.6283 164.82795 305.04297 163.39062 C 305.18697 162.89065 305.34439 162.38147 305.42969 161.88281 C 303.22036 163.06014 300.6357 163.67223 298.31836 164.60156 C 296.25703 165.42823 294.24796 166.02925 292.22266 166.78125 C 285.91599 169.12391 280.21356 172.33199 274.74023 176.22266 C 273.70826 176.95599 272.54526 177.20539 272.05859 178.52539 C 277.87993 178.33472 282.51424 174.98105 287.76758 173.01172 C 292.28755 171.31439 297.42417 170.58923 302.24414 170.72656 C 304.88947 170.80256 307.54603 171.23711 310.02734 172.17578 C 312.23267 173.01045 314.16433 174.4616 316.375 175.24023 C 319.76566 176.43357 322.81841 173.97547 325.56641 172.35547 C 328.67972 170.51814 331.65381 171.16847 334.61914 172.98047 C 336.1695 173.92791 338.62323 175.43124 339.48438 177.35742 C 338.62782 181.37691 337.94954 185.26595 337.88867 187.39258 C 337.74334 192.51655 332.17773 193.24805 332.17773 193.24805 C 336.86306 203.34935 327.20173 208.32762 326.17773 214.18359 C 325.15243 220.03959 321.34484 227.79802 314.46484 231.16602 C 307.58354 234.53265 299.38612 235.99615 265.12891 220.18555 C 230.87167 204.37358 219.45313 174.94727 219.45312 174.94727 C 222.96645 206.71514 267.76405 223.99126 276.10938 229.11523 C 284.45335 234.23923 296.16548 236.87519 305.82812 236.72852 C 315.48945 236.58186 323.68756 228.97017 324.71289 226.1875 C 325.73689 223.40617 328.08032 212.57108 332.76562 207.59375 C 337.44962 202.61642 334.66797 195.58984 334.66797 195.58984 C 337.57731 195.27518 340.37678 193.68655 340.52344 189.58789 C 340.67011 185.48922 344.18419 173.48494 344.76953 172.46094 C 353.1095 157.86497 346.2339 142.88635 344.47656 139.37305 C 342.72056 135.85972 347.25781 129.71094 347.25781 129.71094 C 355.89511 120.92831 349.01386 114.92623 348.86719 111.85156 C 347.30053 78.949003 336.13229 55.048825 312.12305 42.019531 C 294.11609 32.247561 281.24413 28.400562 273.56445 28.140625 z M 298.36133 66.759766 C 298.36133 66.759766 301.28985 87.548361 292.50586 94.429688 C 283.72187 101.30968 265.69268 101.15888 256.30469 110.54688 C 252.93803 113.91354 247.70764 116.9831 239.07031 120.04883 C 239.07031 120.04883 253.48348 116.71668 260.88086 111.05859 C 265.42183 107.58531 292.79935 99.261012 296.16602 96.041016 C 299.53268 92.819685 302.75332 75.982423 298.36133 66.759766 z " /><path
       d="m 346.63746,132.39187 c 0,2.98667 -1.36667,6.312 -3.73067,8.20267 -0.99867,-1.47867 -0.25333,-4.02133 0.16933,-5.58133 0.29067,-1.072 0.82534,-1.91067 1.29867,-2.904 0.22,-0.46134 0.40533,-1.35467 0.85333,-1.65467 1.42,-0.95067 1.40934,1.20667 1.40934,1.93733"
       style="fill:#000000;fill-opacity:1;fill-rule:nonzero;stroke:none;stroke-width:1.33333"
       id="path6075" /><path
       d="m 350.18572,123.26974 c 0,-1.31733 -9.076,-8.19867 -15.95733,-9.516 -6.88,-1.31733 -14.34666,-5.124 -15.51866,-11.12667 -1.17067,-6.001329 -5.124,-16.102662 -12.44267,-27.961329 -1.184,-1.917333 -1.58667,-2.405333 -1.464,-1.902666 -1.464,-1.904 -0.14667,0.877333 2.04933,6.88 2.196,6.002666 -0.3335,25.938695 -2.67483,28.866695 -2.34267,2.928 -23.40157,4.50042 -32.02769,9.02302 -7.81786,4.09885 -9.33284,7.08581 -13.30187,10.78061 -4.13679,3.85096 -17.14227,-0.65166 -17.14227,-0.65166 2.97333,2.26267 6.57466,3.62133 10.30933,3.82133 4.58667,0.24667 7.9563,-0.16014 11.79816,-2.42259 7.78352,-4.58368 13.12167,-7.2486 19.94031,-9.8468 4.81397,-1.83433 13.66549,-5.44009 17.12149,-0.36276 2.67467,3.928 0.74671,10.99749 -0.59063,15.22549 -1.384,4.368 -4.27333,8.39733 -8.412,10.51333 -2.82533,1.44667 -6.06,1.94267 -9.23333,1.90267 -3.85067,-0.048 -8.11067,-0.51867 -11.75867,-1.79867 -1.59066,-0.55733 -3.12666,-1.28533 -4.52666,-2.22933 -0.68934,-0.46534 -3.81067,-2.54534 -3.72134,-3.47867 -0.41866,4.372 3.48134,8.06267 7.03467,10.164 8.12933,4.80667 19.668,2.19733 26.91467,-3.16133 3.40933,-2.52267 7.66133,-5.39467 9.424,-9.39867 1.07466,-2.44267 1.69733,-5.59867 1.87466,-8.27333 0.23067,-3.49334 -0.0867,-7.02667 0.1,-10.528 0.192,-3.644 0.432,-7.26934 0.46934,-10.916 0.924,-3.392 0.8,-7.417336 0.796,-10.452002 -0.004,-2.669334 -0.12934,-5.336 -0.308,-7.997334 -0.0627,-0.941333 -0.232,-1.926666 -0.208,-2.869333 0.0133,-0.464 0.29333,-1.694666 0.912,-1.746666 0.78,-0.06667 0.60933,0.844 0.804,1.405333 0.77866,2.246666 1.884,4.402666 2.81333,6.596 1.35333,3.193333 3.168,6.738666 3.548,10.233332 0.17333,1.58933 0.516,3.23333 1.04667,4.836 -0.144,1.132 0.21466,2.4 0.31066,3.53733 0.14667,1.74 0.22267,3.46934 0.28534,5.21867 0.15466,4.25333 -0.10134,8.56267 0.11466,12.824 0.11734,2.32 0.552,4.35333 1.35734,6.516 2.80266,7.52267 12.68133,14.36933 20.23466,9.19467 1.33333,-0.91334 2.96933,-2.23467 3.152,-3.88134 0.14667,-1.328 -0.89733,-2.34666 -0.87067,-3.65333 -1.88133,2.928 -2.66266,4.37333 -6.452,4.94 -2.08133,0.31067 -4.03599,-0.004 -5.63733,-1.39333 -2.11733,-1.84 -4.092,-3.91467 -5.456,-6.55334 -1.79466,-3.468 -4.73466,-8.95066 -2.29066,-12.79066 1.42266,-2.23334 4.768,-3.59334 7.34266,-3.212 3.876,0.57333 7.72667,1.7 11.12133,3.69066 2.264,1.328 5.18134,3.46534 5.352,6.356 0.056,0.94134 -0.24666,1.84934 -0.77066,2.62534 0,0 4.53866,-5.70934 4.53866,-7.02667"
       style="fill:#000000;fill-opacity:1;fill-rule:nonzero;stroke:none;stroke-width:1.33333"
       id="path6083"
       sodipodi:nodetypes="cccccscssccssccccccccccccccccccccccccccccccccccccc" /><path
       d="m 204.08106,144.20454 c -0.284,-2.932 -2.928,4.09867 -5.124,6.588 -2.196,2.488 4.09867,13.32267 9.22267,16.836 5.124,3.51333 8.93066,2.928 10.54133,1.60933 0,0 -7.32,-0.292 -9.80933,-2.928 -2.488,-2.63466 -9.22267,-10.97866 -8.19734,-13.468 1.024,-2.488 3.80534,-4.09866 3.36667,-8.63733"
       style="fill:#000000;fill-opacity:1;fill-rule:nonzero;stroke:none;stroke-width:1.33333"
       id="path6091" /><path
       d="m 203.05639,151.67081 c 1.30534,-1.74134 3.80667,-3.22134 6.29467,-0.58534 2.48933,2.63467 4.68533,12.29734 3.95333,14.64 0,0 -3.80666,-10.39466 -5.70933,-11.712 -1.904,-1.31733 -4.324,-0.532 -5.41733,0.732 -1.092,1.264 -0.43867,-1.31733 0.87866,-3.07466"
       style="fill:#000000;fill-opacity:1;fill-rule:nonzero;stroke:none;stroke-width:1.33333"
       id="path6095" /><path
       d="m 300.73359,192.16027 c -5.91877,2.3421 -12.06885,5.7657 -18.40618,6.35636 -9.476,0.88134 -19.27648,-4.20169 -28.11782,-7.79769 -3.36266,-1.36667 -7.63466,-2.968 -10.25866,-5.504 4.18533,2.064 9.18578,2.54706 13.49733,4.3 5.60911,2.28048 12.26466,6.41191 18.03429,6.71769 6.49874,0.34442 12.20787,-1.01067 17.78267,-4.16861 6.48916,-3.6759 14.07703,-7.56417 21.54636,-7.72817 3.732,-0.0813 7.54261,1.02037 10.80201,2.84976 3.3995,1.90803 5.56035,3.16856 8.40968,3.67256 0.872,0.15334 2.05949,-0.15782 2.85682,0.23818 0.89867,0.448 1.48817,-0.97341 1.21217,-0.007 -0.172,0.60533 -0.68134,1.06 -1.22534,1.37733 -1.9,1.104 -3.95667,1.88247 -6.286,1.52647 -1.04267,-0.15867 -2.57,-1.02687 -7.28538,-3.39765 -4.71538,-2.37077 -12.67929,-2.34587 -22.56195,1.56477 z"
       style="fill:#000000;fill-opacity:1;fill-rule:nonzero;stroke:none;stroke-width:1.33333"
       id="path6103"
       sodipodi:nodetypes="scccssscsccccccs" /><path
       d="m 329.07186,205.87707 c -1.21467,1.45467 -3,1.804 -4.77867,1.33733 -1.988,-0.52 -4.57075,-1.34349 -6.43114,-2.30964 -4.46002,-2.3162 -7.97771,-1.30219 -13.01419,0.18298 -5.95646,1.75646 -13.19067,3.31066 -19.332,1.28266 -2.50267,-0.82666 -4.75733,-2.13333 -7.06,-3.35733 3.47467,-0.852 7.044,-0.38533 10.568,-0.656 3.69867,-0.28533 7.57267,-0.23718 11.032,-1.56933 3.86368,-1.48786 7.40117,-4.1914 11.07317,-4.69407 3.60666,-0.49466 7.56665,0.69184 11.10416,2.1314 2.99574,1.21909 10.136,2.58667 7.32667,6.996 -0.14667,0.22933 -0.31333,0.44667 -0.488,0.656"
       style="fill:#000000;fill-opacity:1;fill-rule:nonzero;stroke:none;stroke-width:1.33333;opacity:1"
       id="path6107"
       sodipodi:nodetypes="ccsscccscscc" /><path
       d="m 335.68706,123.43654 c -4.93733,0 -11.40667,1.69333 -11.40667,6.64 0,4.94533 6.46934,11.27067 11.40667,11.27067 4.93733,0 8.94133,-4.00934 8.94133,-8.95467 0,-4.94667 -4.004,-8.956 -8.94133,-8.956"
       style="fill:#fbb03b;fill-opacity:1;fill-rule:nonzero;stroke:none;stroke-width:1.33333"
       id="path6111" /><path
       d="m 335.64066,123.72747 c -4.752,0 -10.97867,1.63867 -10.97867,6.424 0,4.78534 6.22667,10.90534 10.97867,10.90534 4.752,0 8.60533,-3.88 8.60533,-8.66534 0,-4.78533 -3.85333,-8.664 -8.60533,-8.664 m 9.576,8.396 c 0,5.38934 -4.46,9.75734 -9.96267,9.75734 -5.50266,0 -12.712,-6.892 -12.712,-12.28134 0,-5.38933 7.20934,-7.23466 12.712,-7.23466 5.50267,0 9.96267,4.368 9.96267,9.75866"
       style="fill:#000000;fill-opacity:1;fill-rule:nonzero;stroke:none;stroke-width:1.33333"
       id="path6115" /><path
       d="m 272.22986,133.88854 c 0,5.676 4.93733,10.27733 11.02667,10.27733 6.09066,0 14.06933,-7.26 14.06933,-12.93466 0,-5.676 -7.97867,-7.62 -14.06933,-7.62 -6.08934,0 -11.02667,4.60133 -11.02667,10.27733"
       style="fill:#fbb03b;fill-opacity:1;fill-rule:nonzero;stroke:none;stroke-width:1.33333"
       id="path6119" /><path
       d="m 272.59319,133.88854 c 0,5.572 4.79467,10.09067 10.708,10.09067 5.91334,0 13.66134,-7.128 13.66134,-12.7 0,-5.57334 -7.748,-7.48134 -13.66134,-7.48134 -5.91333,0 -10.708,4.51867 -10.708,10.09067 m 9.50267,-12.052 c 7.10533,0 16.416,2.2 16.416,8.624 0,6.42533 -9.31067,14.64267 -16.416,14.64267 -7.10533,0 -12.86533,-5.20934 -12.86533,-11.63334 0,-6.42533 5.76,-11.63333 12.86533,-11.63333"
       style="fill:#000000;fill-opacity:1;fill-rule:nonzero;stroke:none;stroke-width:1.33333"
       id="path6123" /><path
       d="m 341.62146,132.56601 c 0,5.18 -2.89867,9.37866 -5.124,9.37866 -2.22534,0 -2.936,-4.19866 -2.936,-9.37866 0,-5.18 0.71066,-9.37867 2.936,-9.37867 2.22533,0 5.124,4.19867 5.124,9.37867"
       style="fill:#000000;fill-opacity:1;fill-rule:nonzero;stroke:none;stroke-width:1.33333"
       id="path6127" /><path
       d="m 289.99213,133.87134 c 0,5.63067 -2.02667,10.19467 -4.52667,10.19467 -2.50133,0 -4.528,-4.564 -4.528,-10.19467 0,-5.63067 2.02667,-10.19467 4.528,-10.19467 2.5,0 4.52667,4.564 4.52667,10.19467"
       style="fill:#000000;fill-opacity:1;fill-rule:nonzero;stroke:none;stroke-width:1.33333"
       id="path6131" /><path
       d="m 336.28439,128.24734 c 0,2.052 -1.31333,3.71467 -2.93467,3.71467 -1.61999,0 -2.93466,-1.66267 -2.93466,-3.71467 0,-2.052 1.31467,-3.71467 2.93466,-3.71467 1.62134,0 2.93467,1.66267 2.93467,3.71467"
       style="fill:#ffffff;fill-opacity:1;fill-rule:nonzero;stroke:none;stroke-width:1.33333"
       id="path6135" /><path
       d="m 284.30293,129.19587 c 0,2.184 -1.39867,3.95467 -3.124,3.95467 -1.72534,0 -3.124,-1.77067 -3.124,-3.95467 0,-2.184 1.39866,-3.95466 3.124,-3.95466 1.72533,0 3.124,1.77066 3.124,3.95466"
       style="fill:#ffffff;fill-opacity:1;fill-rule:nonzero;stroke:none;stroke-width:1.33333"
       id="path6139" /><path
       d="m 252.53813,114.48561 c 4.1,-5.56267 9.07733,-7.90534 15.22533,-9.66134 6.14933,-1.75733 26.352,-6.587996 28.548,-10.979996 2.196,-4.392 4.97733,-21.374666 2.196,-26.643999 -2.78133,-5.270667 -6.73467,-8.198666 -6.73467,-8.198666 0,0 3.80667,4.683999 4.24534,12.150666 0.44,7.466666 2.636,11.272 -6.29467,17.567999 -8.93067,6.294667 -26.20533,10.393334 -30.74267,14.199996 -4.53866,3.80667 -10.54133,14.78667 -19.91066,17.568 0,0 9.36933,-0.43866 13.468,-6.00266 z"
       style="opacity:0.149994;fill:#000000;fill-opacity:1;fill-rule:nonzero;stroke:none;stroke-width:1.33333"
       id="path6149"
       sodipodi:nodetypes="ccsccccccc" /><path
       d="m 267.79226,178.93987 c -1.976,1.05067 -4.24933,1.88267 -6.44,2.48934 -0.98,0.27066 -1.97733,0.38666 -2.79333,0.98533 0.47333,1.24667 3.07866,0.87733 4.15466,0.87867 4.148,0.004 7.65467,-1.40134 11.612,-2.48267 6.124,-1.67333 11.79067,-4.012 17.77067,-6.08267 4.76667,-1.64933 10.58133,-3.44 15.036,-0.38 2.456,1.688 3.796,3.484 7.044,3.80934 3.272,0.328 5.032,-1.47334 7.55867,-3.192 1.692,-1.15067 3.58933,-1.904 5.59866,-2.36134 2.99334,-0.68266 5.51467,0.44934 7.57067,2.604 0.91466,0.95867 1.932,1.97467 2.744,3.012 0.97466,1.24534 1.51066,2.78 2.592,3.952 0.956,-2.29866 1.248,-4.97066 1.94,-7.35333 1.50666,-5.18933 4.908,-10.08667 4.788,-15.648 -0.0347,-1.54667 -0.43467,-2.99467 -0.59067,-4.48667 -0.144,-1.38 -0.032,-3.00266 -0.44133,-4.32933 1.072,3.46933 -1.90667,8.67467 -4.17467,11.028 -3.75733,3.89867 -9.952,0.90133 -14.332,3.292 -2.13866,1.168 -2.27066,3.34933 -4.82133,4.14 -1.91067,0.59067 -4.22133,0.644 -6.13067,0.016 -2.06266,-0.67867 -4.31733,-1.872 -6.04,-3.16267 -1.33866,-1.00133 -1.83333,-3.188 -3.20133,-3.97866 -1.608,-0.932 -4.88533,0.148 -6.53733,0.56933 -6.08267,1.552 -11.81334,4.20667 -17.31067,7.19867 -2.81467,1.53333 -5.55333,3.192 -8.328,4.79466 -2.492,1.44 -4.712,3.328 -7.268,4.688"
       style="display:inline;opacity:0.199997;fill:#000000;fill-opacity:1;fill-rule:nonzero;stroke:none;stroke-width:1.33333"
       id="path6165" /><path
       d="m 282.90893,203.53787 c -1.74534,-0.388 -2.92667,-0.87467 -4.86134,-0.70667 -2.596,0.22534 -5.28933,1.048 -7.85066,1.54667 -3.672,0.71467 -4.796,2.74667 -1.48,5.04533 1.928,1.336 4.13333,2.49467 6.37066,3.21734 1.81334,0.58533 3.95334,1.27466 5.86,1.32533 1.96934,0.052 3.22667,-1.084 4.58934,-2.31867 1.85066,-1.67733 3.87866,-3.97866 6.18133,-5.07066 2.56133,-1.21734 5.43467,-1.64534 8.152,-2.32 1.16667,-0.29067 2.29333,-0.23067 3.44933,-0.54934 3.71467,-1.02133 7.60267,-0.53866 11.26534,0.41467 3.91466,1.02 4.16133,4.02667 5.14666,7.488 0.416,1.46667 1.112,3.27067 2.91334,3.21867 2.32266,-0.0667 2.20266,-2.25334 2.90933,-3.83334 0.648,-1.44933 1.652,-2.724 2.52133,-4.072 0.57467,-0.89066 1.84,-2.496 1.40134,-3.62266 -0.66934,-1.716 -3.384,-1.352 -4.80534,-1.436 -2.50666,-0.14934 -4.928,-1.08 -7.45333,-1.308 -2.984,-0.268 -5.82933,0.048 -8.77733,0.33333 -4.12534,0.39867 -8.19334,1.456 -12.27334,2.42267 -1.816,0.42933 -3.25466,0.92 -5.12533,0.91466 -2.48667,-0.007 -5.23867,-0.11466 -7.63867,-0.58533 -0.17066,-0.0333 -0.33466,-0.068 -0.49466,-0.104"
       style="opacity:0.149994;fill:#000000;fill-opacity:1;fill-rule:nonzero;stroke:none;stroke-width:1.33333"
       id="path6181" /><path
       d="m 272.82133,139.87161 c 0,0 4.89333,-3.55867 12.53066,-4.22667 7.63734,-0.66667 10.604,0.51867 10.604,0.51867 0,0 -4.89333,6.52533 -9.788,7.93466 -4.89333,1.40934 -11.27066,-1.48266 -13.34666,-4.22666"
       style="opacity:0.149994;fill:#000000;fill-opacity:1;fill-rule:nonzero;stroke:none;stroke-width:1.33333"
       id="path6197" /><path
       d="m 326.72786,137.94374 c 0,0 3.33733,-2.892 11.27066,-2.892 7.93467,0 7.192,0.88933 7.192,0.88933 0,0 -3.55866,6.22934 -7.71066,6.6 -4.15333,0.37067 -9.41733,-2.59466 -10.752,-4.59733"
       style="opacity:0.149994;fill:#000000;fill-opacity:1;fill-rule:nonzero;stroke:none;stroke-width:1.33333"
       id="path6213" /></g></svg>
