<?xml version="1.0" encoding="UTF-8" standalone="no"?>
<!-- Created with Inkscape (http://www.inkscape.org/) -->

<svg
   version="1.1"
   id="svg282014"
   width="400"
   height="400"
   viewBox="0 0 400 400"
   sodipodi:docname="femaleNeck.svg"
   inkscape:version="1.3.2 (091e20e, 2023-11-25)"
   xml:space="preserve"
   xmlns:inkscape="http://www.inkscape.org/namespaces/inkscape"
   xmlns:sodipodi="http://sodipodi.sourceforge.net/DTD/sodipodi-0.dtd"
   xmlns="http://www.w3.org/2000/svg"
   xmlns:svg="http://www.w3.org/2000/svg"><defs
     id="defs282018"><inkscape:path-effect
   effect="skeletal"
   id="path-effect1"
   is_visible="true"
   lpeversion="1"
   pattern="m 177.3284,283.04707 c 1.936,0.17467 3.868,0.34267 5.83066,0.73333 4.088,0.816 8.12267,1.97467 12.29334,2.31867 3.36533,0.276 6.67466,0.47467 10.01199,1.05467 3.884,0.67466 8.028,1.58133 12.06134,2.01466 3.54133,0.38134 18.592,0.032 19.10266,4.25467 0.30267,2.50133 -3.01333,3.16 -4.54933,4.15733 -3.596,2.336 -4.428,1.34934 -8.71733,-0.33866 -6.4,-2.51867 -13.82534,-3.22267 -20.57467,-5.14534 -12.21866,-3.48 -24.89733,-5.396 -36.85333,-9.632 -0.76533,-0.27066 -4.756,-1.31333 -2.38533,-2.056 0.85866,-0.26933 2.23066,0.32934 3.076,0.54 1.88266,0.46934 3.76133,1.132 5.688,1.484 1.688,0.308 3.35333,0.464 5.016,0.61467 m 95.78879,13.08867 c -4.06,2.22 -10.67866,5.55066 -14.32533,0.18133 -3.38133,-4.97867 3.68933,-6.47867 7.24533,-6.95467 2.87334,-0.38533 5.63734,0.23067 8.564,-0.068 3.62934,-0.372 7.20534,-1.12266 10.74267,-2 1.55867,-0.38533 3.07067,-0.916 4.596,-1.43066 3.59467,-1.21067 6.516,-1.88667 9.676,-4.12667 0.688,-0.488 1.332,-1.064 2.10133,-0.592 0.792,0.48533 0.90134,1.892 0.62667,2.62267 -0.77333,2.07066 -3.85333,3.31066 -5.68667,4.14666 -2.97333,1.35467 -6.472,1.92 -9.61333,3.008 -4.724,1.636 -9.53333,2.81067 -13.92667,5.21334"
   copytype="single_stretched"
   prop_scale="1"
   scale_y_rel="false"
   spacing="0"
   normal_offset="0"
   tang_offset="0"
   prop_units="false"
   vertical_pattern="false"
   hide_knot="false"
   fuse_tolerance="0" />
		
		
		
		
	
	
	
	
	
</defs><sodipodi:namedview
     id="namedview282016"
     pagecolor="#ffffff"
     bordercolor="#666666"
     borderopacity="1.0"
     inkscape:showpageshadow="2"
     inkscape:pageopacity="0.0"
     inkscape:pagecheckerboard="0"
     inkscape:deskcolor="#d1d1d1"
     showgrid="false"
     inkscape:zoom="2.7375"
     inkscape:cx="200"
     inkscape:cy="200"
     inkscape:window-width="2328"
     inkscape:window-height="1308"
     inkscape:window-x="2040"
     inkscape:window-y="25"
     inkscape:window-maximized="0"
     inkscape:current-layer="layer1"
     showguides="true"><inkscape:page
       x="0"
       y="0"
       id="page282020"
       width="400"
       height="400"
       margin="0"
       bleed="0" /></sodipodi:namedview><g
     inkscape:groupmode="layer"
     id="layer7"
     inkscape:label="Standard Neck"
     style="display:none"
     sodipodi:insensitive="true"><path
       id="path5647"
       style="display:inline;fill:#cd976d;fill-opacity:1;fill-rule:nonzero;stroke:none;stroke-width:1.33333"
       d="m 195.42383,150.29883 c -0.27062,23.83325 5.58663,54.75433 -11.91211,72.86719 -9.17736,8.1499 -21.81972,14.67314 -36.19141,21.16015 -0.007,0.003 -0.0146,0.007 -0.0215,0.0117 -1.8835,0.89617 -3.7962,1.70501 -5.75586,2.35352 -6.48265,2.14399 -12.89064,4.32814 -19.5293,6.24414 -6.75333,1.94932 -12.8866,5.26412 -19.55859,7.32812 -3.943997,1.21866 -7.077708,2.14577 -4.984377,7.14844 1.278666,3.05466 4.463637,5.55234 6.792967,7.875 9.23466,9.20666 17.49307,18.89424 27.51172,26.85156 8.68399,6.89866 16.68096,14.62804 24.73828,22.33203 1.7289,1.65387 63.50885,50.39663 111.98224,50.16386 15.26413,-0.0733 24.39772,-10.99364 35.78678,-29.5106 12.47955,-17.18204 13.43549,-37.70441 15.63723,-57.98529 0.63333,-5.75599 1.35975,-11.88782 2.08203,-17.77734 0.35704,-2.91129 -0.038,-2.80094 -4.56613,-4.25046 -2.82509,-0.90435 -7.83988,-2.62322 -19.3189,-6.51153 -2.81635,-0.95399 -5.18175,-2.29896 -7.67014,-2.87764 -6.79567,-3.07439 -14.48185,-5.73744 -23.07349,-7.66407 l 8.71655,-46.15529 z"
       sodipodi:nodetypes="ccsccccccccsscssscccc" /><path
       id="path19890"
       style="fill:#000000;fill-opacity:1;fill-rule:nonzero;stroke:none;stroke-width:1.33333"
       d="m 192.58398,147.39453 c -0.0149,5.84948 1.05724,26.06743 1.27735,31.15039 0.29177,6.73798 0.15272,12.21333 0.27344,19.38867 0.0849,5.04508 -1.08847,7.0445 -2.80274,11.93946 -1.74416,4.98029 -5.181,8.36387 -8.98633,12.0332 -3.967,3.82573 -16.46984,11.61713 -30.38086,18.14453 -20.61806,9.67452 -45.02073,17.89085 -54.539059,22.09375 0.401334,0.984 1.518748,1.52145 2.580079,1.55078 1.39923,0.0369 53.85917,-20.80536 58.03516,-22.69336 21.65511,-11.48594 38.89634,-21.76709 38.83984,-43.96679 -0.0158,-6.20551 -0.22216,-14.23014 -0.17188,-19.03516 0.0588,-5.6164 -0.0761,-21.64258 -0.29101,-27.19922 0,0 -3.83399,-3.40758 -3.83399,-3.40625 z m 79.41407,51.85352 c 0,0 -6.26253,41.04273 -6.39453,41.9414 -0.56267,3.812 -0.24462,12.94299 4.35937,14.45899 0.38785,0.12687 -0.65274,-3.26 -1.18579,-5.5979 4.29415,1.15976 22.02671,7.01918 28.3418,9.90301 8.45322,3.86023 25.17187,7.93879 25.17187,7.93879 l 0.17578,-2.26562 c 0,0 -10.5822,-2.61766 -23.43164,-7.76692 -10.4493,-4.18743 -28.91876,-10.82106 -30.79101,-11.38933 0.005,-10.38993 9.08734,-44.11901 9.3811,-44.50367 0.008,-0.0107 0.12211,-0.16416 0.13281,-0.16016 -0.001,-10e-4 -5.75976,-2.55859 -5.75976,-2.55859 z"
       sodipodi:nodetypes="cssscscccssccccccsccscccc" /><path
       id="path8865"
       style="display:inline;opacity:0.199997;fill:#000000;fill-opacity:1;fill-rule:nonzero;stroke:none;stroke-width:1.33333"
       d="m 208.30807,290.01034 c 3.36533,0.276 6.67466,0.47467 10.01199,1.05467 3.884,0.67466 8.028,1.58133 12.06134,2.01466 3.54133,0.38134 18.592,0.032 19.10266,4.25467 0.30267,2.50133 -3.01333,3.16 -4.54933,4.15733 -3.596,2.336 -4.428,1.34934 -8.71733,-0.33866 -6.4,-2.51867 -13.82534,-3.22267 -20.57467,-5.14534 -12.21866,-3.48 -24.89733,-5.396 -36.85333,-9.632 -0.76533,-0.27066 -4.756,-1.31333 -2.38533,-2.056 0.85866,-0.26933 2.23066,0.32934 3.076,0.54 1.88266,0.46934 3.75384,1.17582 5.688,1.484 8.4909,1.35292 15.37246,2.87901 23.14,3.66667 z m 63.32757,9.19198 c -3.65052,-4.7848 3.32675,-6.67211 6.85112,-7.34332 2.84775,-0.54306 5.64149,-0.0803 8.54725,-0.53977 3.60333,-0.57141 7.13253,-1.51796 10.61615,-2.58887 1.53507,-0.47063 3.01553,-1.0838 4.51019,-1.68173 3.5225,-1.40689 6.40214,-2.24283 9.43392,-4.65354 0.66007,-0.52517 1.27135,-1.13578 2.06552,-0.70688 0.81754,0.44095 1.00422,1.83946 0.77023,2.58415 -0.65807,2.11013 -3.66506,3.51795 -5.44956,4.4537 -2.89417,1.51644 -6.35637,2.27368 -9.43298,3.53312 -4.62668,1.8938 -9.36398,3.33168 -13.61827,5.97277 -3.93151,2.44033 -10.35659,6.13061 -14.29357,0.97037 z M 195.42578,150.49023 c 0.19319,16.92048 0.2066,32.75045 -0.17578,49.12696 -0.12441,4.66878 0.11275,10.3588 -5.45898,17.02734 -12.57769,14.33106 -30.26606,22.6409 -48.24805,30.04688 -9.64537,3.9725 -28.87646,10.41332 -39.08789,13.57226 -3.943995,1.21866 -7.077706,2.14577 -4.984377,7.14844 1.278665,3.05466 4.463637,5.55234 6.792967,7.875 3.77047,3.75903 7.38049,7.58269 11.01172,11.35156 16.77978,-2.24915 71.15394,-28.07201 81.20117,-28.13867 8.55998,-0.0573 16.28363,7.04122 23.46094,11.0332 1.50667,0.83733 15.56797,9.02374 16.30664,5.06641 0.29333,-1.57867 -4.00315,-5.16199 -4.89648,-6.11133 -3.93334,-4.17464 -8.27971,-8.15944 -11.73438,-12.74609 -2.71066,-3.60133 -4.66824,-8.11347 -3.8789,-12.55078 0.69331,-3.89867 3.43831,-7.18988 6.70898,-9.42188 8.35064,-5.69732 18.13272,-6.5757 27.85937,-4.95703 2.648,0.44 17.83487,4.40018 19.40821,1.13086 0.90956,-9.61927 3.74874,-18.86702 6.16015,-28.18164 l -51.33984,-32.8418 z" /></g><g
     inkscape:groupmode="layer"
     id="g22"
     inkscape:label="Caitian Neck"
     style="display:none"><path
       id="path20"
       style="display:inline;fill:#cd976d;fill-opacity:1;fill-rule:nonzero;stroke:none;stroke-width:1.33333"
       d="m 195.42383,150.29883 c -0.14123,12.43756 0.47314,26.16611 -0.52066,39.63657 -0.91056,12.34207 -3.02456,24.57009 -11.39145,33.23062 -9.17736,8.1499 -21.81972,14.67314 -36.19141,21.16015 -0.007,0.003 -0.0146,0.007 -0.0215,0.0117 -1.8835,0.89617 -3.7962,1.70501 -5.75586,2.35352 -6.48265,2.14399 -12.89064,4.32814 -19.5293,6.24414 -6.75333,1.94932 -12.8866,5.26412 -19.55859,7.32812 -3.943997,1.21866 -7.077708,2.14577 -4.984377,7.14844 1.278666,3.05466 4.463637,5.55234 6.792967,7.875 9.23466,9.20666 17.49307,18.89424 27.51172,26.85156 8.68399,6.89866 16.68096,14.62804 24.73828,22.33203 1.7289,1.65387 63.50885,50.39663 111.98224,50.16386 15.26413,-0.0733 24.39772,-10.99364 35.78678,-29.5106 12.47955,-17.18204 13.43549,-37.70441 15.63723,-57.98529 0.63333,-5.75599 1.35975,-11.88782 2.08203,-17.77734 0.35704,-2.91129 -0.038,-2.80094 -4.56613,-4.25046 -2.82509,-0.90435 -7.83988,-2.62322 -19.3189,-6.51153 -2.81635,-0.95399 -5.18175,-2.29896 -7.67014,-2.87764 -6.79567,-3.07439 -14.48185,-5.73744 -23.07349,-7.66407 l 0.17931,-11.00494 8.53724,-35.15035 z"
       sodipodi:nodetypes="cscsccccccccsscsssccccc" /><path
       id="path21"
       style="opacity:1;fill:#000000;fill-opacity:1;fill-rule:nonzero;stroke:none;stroke-width:1.33333"
       d="m 193.98047,209.98242 c 2.49185,-5.11883 1.78535,-15.93489 1.47265,-21.54492 0.10132,0.16448 0.40433,0.3408 0.62891,0.52148 0.62031,-13.94689 0.0644,-20.59577 0.46094,-38.46679 0,0 -3.83399,-3.40563 -3.83399,-3.4043 0.73497,20.97317 1.90757,31.46026 -0.71484,40.04297 0,0 0.56489,-0.72503 1.24024,-1.45313 -0.0679,5.01369 -0.1625,11.77906 -1.22461,13.60938 0.20934,-0.25333 0.78255,-0.67097 1.08789,-0.82031 0.0937,4.90264 0.16075,6.16442 -1.53321,10.35351 -1.97822,4.89203 -5.41342,9.41661 -9.21875,13.08594 -3.96699,3.82573 -16.46985,11.61714 -30.38086,18.14453 -20.61804,9.67451 -45.02074,17.89086 -54.539059,22.09375 0.401334,0.984 1.518748,1.52145 2.580079,1.55078 1.39923,0.0369 53.85917,-20.80536 58.03516,-22.69336 10.27934,-5.45219 23.55982,-14.39867 26.46777,-17.08887 3.08412,-2.85316 6.82803,-8.5 9.47168,-13.93066 z m 78.33398,-10.73828 c -0.49515,3.9001 -5.55995,28.37004 -6.38476,30.82617 -0.10134,-0.216 -0.28201,-0.42 -0.38867,-0.63867 -0.10958,3.64128 -0.94074,9.80003 -0.89844,9.83984 -0.16,-0.15333 -0.25281,-0.49469 -0.49414,-0.52539 0.16098,0.60043 0.48439,1.53012 0.40039,2.16211 -0.12133,-0.11866 -0.2051,-0.28227 -0.39844,-0.26758 0.20238,0.5443 0.23595,1.21894 0.30664,1.83204 0.054,0.46843 0.22166,0.93825 0.28906,1.43164 0.10883,0.79664 0.29682,1.53195 0.41016,2.33593 0.0627,0.44534 0.11313,0.68987 0.24805,1.22071 -0.11996,-0.0204 -0.25784,-0.0559 -0.43555,-0.17774 0.076,0.50666 0.33469,1.06158 0.55469,1.51758 0.21467,0.444 0.26998,0.87538 0.36328,1.35938 0.16933,0.87867 0.39381,1.7575 0.75781,2.57617 0.28534,0.644 0.66814,1.29208 1.24414,1.71875 0.16422,0.12145 0.3463,0.21302 0.53516,0.28711 0.44969,0.40487 0.96097,0.71589 1.53906,0.90625 0.33678,0.11016 -0.38968,-2.41594 -0.93945,-4.61719 0.20097,-0.0583 0.40022,-0.12174 0.58984,-0.21094 -0.25477,0.12739 -0.52433,-0.13326 -0.78516,-0.56836 -0.0151,-0.0646 -0.0364,-0.13799 -0.0508,-0.20117 4.29415,1.15976 22.02672,7.01852 28.3418,9.90234 8.45321,3.86023 25.17188,7.93946 25.17188,7.93946 l 0.17578,-2.26563 c 0,0 -10.58222,-2.61832 -23.43164,-7.76757 -10.22868,-4.09902 -29.05375,-10.74446 -31.61719,-11.5625 -0.005,-0.0176 -0.024,-0.0916 -0.0274,-0.10352 0.45067,0.11466 1.08899,0.13097 1.20899,-0.31836 0.0467,-0.17333 -0.0151,-0.35473 -0.0684,-0.52539 -0.37733,-1.208 -0.41853,-2.51871 -0.11719,-3.74805 0.44266,0.248 0.95427,0.37212 1.46094,0.35742 -0.2,-1.84531 -1.2089,-3.93794 -1.72852,-5.8457 0.36934,0.192 0.74066,0.38355 1.11133,0.57422 0.17308,-3.30854 0.57315,-5.06652 0.82813,-8.00195 0.18,0.308 0.35906,0.6152 0.53906,0.92187 0.17164,-0.30474 5.2825,-22.69359 6.23828,-27.73242 z"
       sodipodi:nodetypes="sccccccccscscccsscccccccssccccsccccccccsccscccscccccccc" /><path
       id="path22"
       style="display:inline;opacity:0.199997;fill:#000000;fill-opacity:1;fill-rule:nonzero;stroke:none;stroke-width:1.33333"
       d="m 208.30807,290.01034 c 3.36533,0.276 6.67466,0.47467 10.01199,1.05467 3.884,0.67466 8.028,1.58133 12.06134,2.01466 3.54133,0.38134 18.592,0.032 19.10266,4.25467 0.30267,2.50133 -3.01333,3.16 -4.54933,4.15733 -3.596,2.336 -4.428,1.34934 -8.71733,-0.33866 -6.4,-2.51867 -13.82534,-3.22267 -20.57467,-5.14534 -12.21866,-3.48 -24.89733,-5.396 -36.85333,-9.632 -0.76533,-0.27066 -4.756,-1.31333 -2.38533,-2.056 0.85866,-0.26933 2.23066,0.32934 3.076,0.54 1.88266,0.46934 3.75384,1.17582 5.688,1.484 8.4909,1.35292 15.37246,2.87901 23.14,3.66667 z m 63.32757,9.19198 c -3.65052,-4.7848 3.32675,-6.67211 6.85112,-7.34332 2.84775,-0.54306 5.64149,-0.0803 8.54725,-0.53977 3.60333,-0.57141 7.13253,-1.51796 10.61615,-2.58887 1.53507,-0.47063 3.01553,-1.0838 4.51019,-1.68173 3.5225,-1.40689 6.40214,-2.24283 9.43392,-4.65354 0.66007,-0.52517 1.27135,-1.13578 2.06552,-0.70688 0.81754,0.44095 1.00422,1.83946 0.77023,2.58415 -0.65807,2.11013 -3.66506,3.51795 -5.44956,4.4537 -2.89417,1.51644 -6.35637,2.27368 -9.43298,3.53312 -4.62668,1.8938 -9.36398,3.33168 -13.61827,5.97277 -3.93151,2.44033 -10.35659,6.13061 -14.29357,0.97037 z M 195.42578,150.49023 c 0.19319,16.92048 0.2066,32.75045 -0.17578,49.12696 -0.12441,4.66878 0.11275,10.3588 -5.45898,17.02734 -12.57769,14.33106 -30.26606,22.6409 -48.24805,30.04688 -9.64537,3.9725 -28.87646,10.41332 -39.08789,13.57226 -3.943995,1.21866 -7.077706,2.14577 -4.984377,7.14844 1.278665,3.05466 4.463637,5.55234 6.792967,7.875 3.77047,3.75903 7.38049,7.58269 11.01172,11.35156 16.77978,-2.24915 71.15394,-28.07201 81.20117,-28.13867 8.55998,-0.0573 16.28363,7.04122 23.46094,11.0332 1.50667,0.83733 15.56797,9.02374 16.30664,5.06641 0.29333,-1.57867 -4.00315,-5.16199 -4.89648,-6.11133 -3.93334,-4.17464 -8.27971,-8.15944 -11.73438,-12.74609 -2.71066,-3.60133 -4.66824,-8.11347 -3.8789,-12.55078 0.69331,-3.89867 3.43831,-7.18988 6.70898,-9.42188 8.35064,-5.69732 18.13272,-6.5757 27.85937,-4.95703 2.648,0.44 17.83487,4.40018 19.40821,1.13086 0.90956,-9.61927 3.74874,-18.86702 6.16015,-28.18164 l -51.33984,-32.8418 z" /></g><g
     inkscape:groupmode="layer"
     id="layer1"
     inkscape:label="Cardassian Neck"
     style="display:inline"><path
       id="path1"
       style="display:inline;fill:#cd976d;fill-opacity:1;fill-rule:nonzero;stroke:none;stroke-width:1.33333"
       d="m 195.42383,150.29883 c -1.56214,25.77053 -4.61637,41.32253 -19.79038,62.14758 -9.17736,10.99124 -16.26618,15.0606 -24.40453,20.82447 -10.41347,7.20994 -20.05781,12.59042 -29.60273,16.69416 -7.47193,3.21247 -12.49914,8.23461 -19.17113,10.29861 -3.943997,1.21866 -7.077708,2.14577 -4.984377,7.14844 1.278666,3.05466 4.463637,5.55234 6.792967,7.875 9.23466,9.20666 17.49307,18.89424 27.51172,26.85156 8.68399,6.89866 16.68096,14.62804 24.73828,22.33203 1.7289,1.65387 63.50885,50.39663 111.98224,50.16386 15.26413,-0.0733 24.39772,-10.99364 35.78678,-29.5106 12.47955,-17.18204 13.43549,-37.70441 15.63723,-57.98529 0.63333,-5.75599 1.35975,-11.88782 2.08203,-17.77734 0.35704,-2.91129 -0.038,-2.80094 -4.56613,-4.25046 -2.82509,-0.90435 -5.51515,-2.75237 -17.12332,-9.09457 -2.60946,-1.4257 -6.86072,-6.30267 -10.51148,-9.20608 -6.66652,-4.88252 -10.09068,-9.612 -15.84098,-20.06266 l 2.1298,-24.84522 z"
       sodipodi:nodetypes="cccscccccsscssscccc" /><path
       id="path1037"
       style="display:inline;opacity:0.5;fill:#000000;fill-opacity:1;stroke-width:1.33333"
       d="m 293.57262,254.0259 c 0.22381,1.55012 0.99121,2.17855 2.30032,2.82144 1.23171,0.857 2.66899,1.16667 4.05952,1.80115 1.36169,0.70105 2.19624,2.09085 3.11273,3.17717 0.81919,1.17748 2.10766,1.67991 3.17036,2.66976 l -0.0614,0.11795 c -1.50338,-0.23385 -3.16509,-0.61264 -4.19043,-1.86665 -1.01724,-1.21822 -1.5617,-2.50207 -2.46641,-3.5133 -1.01442,-1.13474 -2.64835,-1.01413 -4.0506,-1.36148 -1.5975,-0.35293 -2.91777,-2.33455 -2.00457,-3.86722 -10e-4,8.8e-4 0.13042,0.0215 0.13042,0.0215 z m -158.61815,-4.40001 c 1.72032,-0.52902 3.22175,-0.64417 4.93344,-0.7608 0.54921,-0.12072 1.04695,-0.40361 1.51461,-0.71833 1.85148,-1.38016 3.56659,-2.33887 5.45834,-3.69233 l 0.11425,0.0687 c -0.25705,1.21793 -1.12168,2.19662 -2.05041,2.91649 -1.43208,1.13073 -3.25315,1.27868 -4.9048,1.83683 -1.51827,0.89161 -3.40323,1.47502 -5.08821,0.48049 l 0.0227,-0.13099 z m 15.11796,-8.58904 c 1.76568,-0.01 3.11408,0.24559 4.76737,0.24723 1.57156,-0.35303 2.6731,-1.67788 3.82581,-2.70244 0.79293,-0.68969 1.66804,-1.46709 2.79829,-1.87427 l 0.0867,0.10156 c -1.03628,2.02436 -2.56456,4.07633 -4.95125,4.48065 -1.19194,0.16143 -2.169,0.68473 -3.31986,0.99813 -1.17353,0.16397 -2.45713,-0.22965 -3.26521,-1.13044 z m 13.57236,-9.9591 c 1.92075,-0.777 3.76387,-0.6376 5.71197,-0.5565 3.0929,-0.70295 5.50778,-2.59975 7.95511,-4.58055 l 0.11453,0.0667 c -0.28295,1.33563 -1.15801,2.51688 -2.26403,3.33693 -1.69578,1.29308 -3.77561,1.24641 -5.7353,1.60248 -1.85812,0.69912 -3.83371,0.99521 -5.78129,0.26363 l -0.001,-0.13266 z m 11.23949,-12.8894 c 1.06625,0.13635 1.86462,0.13339 2.78509,0.2395 0.92871,0.26657 1.96505,0.27924 2.77984,-0.34979 1.63908,-1.18258 3.00239,-2.044 4.64746,-3.2692 l 0.1179,0.0611 c -0.44365,3.06093 -3.44396,3.80743 -6.02355,4.16343 -1.4119,0.71079 -3.40812,0.80512 -4.37981,-0.73496 -8.5e-4,0.001 0.0731,-0.11022 0.0731,-0.11022 z m 7.63935,-10.69142 c 1.16183,-1.01058 2.4715,-0.9124 3.80543,-0.73656 1.20952,-0.15356 2.36527,-1.07118 3.42394,-1.47491 0.715,-0.30583 1.35672,-0.56647 2.12387,-1.11364 l 0.11986,0.0581 c -0.007,1.00913 -0.79033,1.86789 -1.60309,2.32529 -1.26573,0.75019 -2.66572,0.39065 -3.99504,0.63129 -1.22398,0.59614 -2.44244,0.92237 -3.84584,0.44064 l -0.029,-0.13033 z m 5.95653,-12.79856 c 1.43466,-0.36 2.468,-0.112 3.78933,0.024 1.23467,-0.22 2.14266,-1.35866 3.18133,-1.94 0.70667,-0.41333 1.424,-0.824 2.332,-1.14133 l 0.096,0.0933 c -0.61067,1.81467 -2.32,3.02 -4.19066,3.18267 -0.46534,0.044 -0.90667,0.0867 -1.32934,0.22933 -1.23866,0.668 -2.82666,0.81067 -3.916,-0.32 -0.001,0 0.0373,-0.128 0.0373,-0.128 z m 5.45859,-14.28848 c 0.72667,-0.79467 1.088,-0.54 1.78934,-0.204 0.53466,0.0213 1.024,-0.736 1.56933,-0.804 0.19467,-0.0333 1.15467,-0.092 1.35867,0.25466 -0.29467,1.064 -1.31067,1.444 -2.256,1.056 -0.22534,-0.0853 -0.43467,-0.144 -0.63467,-0.076 -0.64667,0.44 -1.12267,0.692 -1.82667,-0.0933 v -0.13333 z" /><path
       id="path19"
       style="display:inline;opacity:0.199997;fill:#000000;fill-opacity:1;fill-rule:nonzero;stroke:none;stroke-width:1.33333"
       d="m 208.30807,290.01034 c 3.36533,0.276 6.67466,0.47467 10.01199,1.05467 3.884,0.67466 8.028,1.58133 12.06134,2.01466 3.54133,0.38134 18.592,0.032 19.10266,4.25467 0.30267,2.50133 -3.01333,3.16 -4.54933,4.15733 -3.596,2.336 -4.428,1.34934 -8.71733,-0.33866 -6.4,-2.51867 -13.82534,-3.22267 -20.57467,-5.14534 -12.21866,-3.48 -24.89733,-5.396 -36.85333,-9.632 -0.76533,-0.27066 -4.756,-1.31333 -2.38533,-2.056 0.85866,-0.26933 2.23066,0.32934 3.076,0.54 1.88266,0.46934 3.75384,1.17582 5.688,1.484 8.4909,1.35292 15.37246,2.87901 23.14,3.66667 z m 63.32757,9.19198 c -3.65052,-4.7848 3.32675,-6.67211 6.85112,-7.34332 2.84775,-0.54306 5.64149,-0.0803 8.54725,-0.53977 3.60333,-0.57141 7.13253,-1.51796 10.61615,-2.58887 1.53507,-0.47063 3.01553,-1.0838 4.51019,-1.68173 3.5225,-1.40689 6.40214,-2.24283 9.43392,-4.65354 0.66007,-0.52517 1.27135,-1.13578 2.06552,-0.70688 0.81754,0.44095 1.00422,1.83946 0.77023,2.58415 -0.65807,2.11013 -3.66506,3.51795 -5.44956,4.4537 -2.89417,1.51644 -6.35637,2.27368 -9.43298,3.53312 -4.62668,1.8938 -9.36398,3.33168 -13.61827,5.97277 -3.93151,2.44033 -10.35659,6.13061 -14.29357,0.97037 z m -38.25165,-79.06233 c 1.34134,-0.94266 3.95734,0.332 5.18267,0.89467 3.572,1.63733 6.86626,3.75985 9.91467,6.19067 3.11276,2.48214 6.43106,2.20802 8.02444,5.47479 2.66666,6.192 1.15422,12.04787 -1.33511,17.16121 -1.17867,2.42266 -3.92667,6.812 -2.78,9.4 0.84933,1.91733 4.96933,3.44666 6.356,1.16933 0.72667,-1.19467 -0.35867,-3.008 -0.248,-4.33733 0.10267,-1.228 0.63067,-2.00267 1.29333,-3.024 1.352,-2.08534 1.76883,-3.66804 2.34616,-6.16137 0.30533,-1.31733 0.93326,-3.13125 1.40659,-4.39925 0.56667,-1.516 0.63209,-3.17599 1.43609,-4.57599 0.75867,-1.32 1.288,-2.65733 2.05467,-0.40533 0.76667,2.252 0.56663,5.32652 1.1613,8.25586 1.63467,8.04133 12.65135,15.71415 20.02601,16.40349 6.736,0.62933 10.87123,0.45803 17.45257,2.02603 -0.928,-0.22133 -1.73388,-0.8937 -2.62054,-1.3057 -0.93734,-0.436 -0.79767,-1.59948 -1.53501,-2.13548 -0.73733,-0.53467 -0.9819,-1.69034 -1.8099,-2.25034 -0.828,-0.56 -2.012,-0.43467 -3.13467,-0.57867 -1.12266,-0.144 -2.15866,-1.028 -2.96133,-1.87066 -0.396,-0.416 -0.75067,-1.13334 -1.13733,-1.47334 -0.388,-0.33866 -0.38267,-0.212 -0.90667,-0.36533 -0.52267,-0.152 -1.36,-0.324 -2.00267,-0.54 -1.06933,-0.35867 -1.47385,-1.13279 -2.42185,-1.76613 -0.948,-0.63333 -0.67726,-1.59905 -1.45726,-2.39505 -0.448,-0.456 -1.06,-0.61333 -1.63867,-0.87067 -0.12933,-0.0573 -0.26933,-0.12266 -0.40533,-0.19333 -1.01734,-0.52 -1.984,-1.16933 -2.87334,-1.87333 -0.27866,-0.22134 -0.64133,-0.592 -0.772,-0.816 -0.13066,-0.224 -0.0707,-0.352 -0.152,-0.46 -0.45733,-0.61067 -0.94266,-0.612 -1.56533,-0.96934 -0.624,-0.35733 -0.89867,-0.81066 -1.368,-1.49466 -0.46933,-0.684 -0.54149,-5.30541 -0.36949,-6.32008 0.17334,-1.01467 1.44,-1.03467 1.364,-2.30667 -0.076,-1.272 -1.42933,-2.568 -2.20533,-3.636 -0.77733,-1.068 -1.24267,-2.456 -1.572,-3.64133 -0.32933,-1.18533 -0.48933,-1.99733 -0.42,-3.244 0.0267,-0.48267 2.86101,-21.40186 2.63379,-21.54751 l -73.17397,-46.90677 c -1.64039,-1.05154 -0.15885,6.01363 -0.90415,7.81363 -1.444,3.49066 -0.98029,10.57292 -1.51788,15.47799 1.71333,2.18266 0.28603,3.38354 -0.77338,6.79207 -0.82337,2.64909 -1.74184,4.78777 -3.31784,7.07044 0.64667,4.268 -0.71536,9.53567 -4.55536,11.509 -0.512,0.26267 -1.05867,0.49334 -1.46,0.90534 -0.58,0.596 -0.75467,1.464 -0.976,2.26533 -1.07333,3.892 -0.19384,6.10964 -3.8205,7.88564 -1.15334,0.56533 -1.74091,1.2343 -2.82491,1.92363 -1.44667,0.92 -1.83766,1.63291 -3.09499,2.79958 -2.35467,2.18266 -1.05399,7.06061 -4.20066,7.70061 -0.63067,0.128 -1.288,0.22934 -1.828,0.58134 -0.51733,0.33733 -0.87067,0.868 -1.23867,1.364 -2.38076,8.40628 -12.27388,9.83989 -18.64715,11.95628 1.41467,0.84933 0.007,3.94459 -1.15318,5.11659 -1.16,1.172 -9.79283,0.30733 -11.20617,1.16068 -0.41333,0.24933 -0.82933,0.55867 -0.99733,1.01067 -0.44933,1.20133 1.02667,2.18533 2.24533,2.588 6.75067,2.22933 14.90724,2.91401 22.01391,3.12734 5.38666,0.16267 12.04209,-1.41402 17.21989,-2.90579 4.2517,-1.22495 5.96513,-6.81758 8.99824,-11.3806 2.71025,-4.07731 4.99337,-8.31379 6.5107,-12.07512 3.604,-8.93467 4.36667,-17.42016 6.54134,-26.76416 1.16266,-4.99467 1.69702,-10.64539 2.80279,-15.65259 0.61624,-2.79051 1.58295,-4.87309 2.71795,-7.24071 1.50934,-1.432 4.07259,2.07597 4.53526,3.3933 0.74,2.108 -0.19067,4.876 -0.40134,7.08133 -0.524,5.488 -1.46533,10.924 -2.16266,16.39067 -1.54134,12.07866 2.00964,27.34781 8.54297,38.07981 1.48,2.43067 4.05467,5.7 7.32,5.08533 4.828,-0.90666 2.68533,-7.66533 2.68267,-11.05733 -0.004,-3.46 0.77333,-6.67067 1.37931,-9.19268 0.60599,-2.52201 0.23536,-6.83267 1.78332,-7.92201 z" /><path
       id="path8"
       style="fill:#000000;fill-opacity:1;stroke-width:1.33333"
       d="m 202.6273,178.19727 c -0.0568,2.47087 1.45893,28.476 -1.41199,34.42258 2.82878,-7.66342 4.33993,-22.24029 4.7848,-29.59679 0.44489,-7.3565 -2.94881,-23.39593 -3.37281,-4.82579 z m 71.07778,22.36914 c -0.69603,5.22486 -1.65371,14.05699 -1.78711,20.53711 -0.0175,0.0118 -0.0353,0.0211 -0.0527,0.0351 -1.00902,6.18222 -2.56349,20.7518 -0.65039,24.34571 1.91312,3.59391 0.14953,-2.51394 0.43555,-5.6836 0.14768,-1.63666 0.70151,-4.87283 1.36914,-8.23828 1.11444,5.08732 2.80996,10.39621 5.55469,13.39453 4.12832,4.50836 -0.73248,-2.42128 -1.56641,-5.57422 -0.27858,-1.05271 -0.6361,-2.67192 -0.98437,-4.48633 0.0571,0.06 0.1342,0.12533 0.18164,0.1836 1.11284,1.36789 2.22467,2.65747 3.44336,3.94336 0.73239,0.77277 1.24969,1.6193 1.51562,2.68164 1.03237,0.25096 2.27203,1.13252 2.99414,1.7207 0.72212,0.58819 0.98947,1.19869 1.39649,1.77734 0.40721,0.57735 0.37668,0.89476 0.82617,1.37305 0.45081,0.47847 1.31237,0.54039 1.88281,0.82031 1.07766,0.53072 2.01494,1.17095 3.03125,1.78321 0.58828,0.35382 1.11432,0.84448 1.55274,1.35351 0.4384,0.50903 0.68714,1.162 1.03711,1.66797 0.35128,0.50614 0.54952,0.48771 1.12304,0.8125 0.57351,0.32481 1.45887,0.54189 2.11914,0.9961 0.66026,0.45421 1.36841,1.38751 1.88086,1.98242 0.51244,0.5949 0.7547,0.90097 1.28711,1.47851 0.53109,0.57734 1.07978,0.84753 1.97266,0.97071 0.89284,0.1235 1.87291,0.4022 2.78125,0.80664 1.98516,0.88388 3.55761,2.39208 5.24219,3.77343 0.64811,0.5306 1.3401,1.08213 1.99218,1.61329 0.65077,0.53096 1.42908,0.76115 2.15039,1.18359 0.72017,0.42093 1.47635,0.92122 2.14649,1.41992 0.67013,0.4987 1.63568,1.08786 1.9375,1.81055 l 8.83984,-0.77149 c -1.09613,-0.40001 -2.7723,-0.98627 -3.76562,-1.35156 -4.57247,-1.68049 -8.7495,-3.3713 -12.79883,-5.9043 -1.24699,-0.78087 -2.21603,-1.78276 -3.44922,-2.54687 -1.2332,-0.76412 -2.51079,-1.22419 -3.85156,-1.79883 -0.60944,-0.26119 -0.9843,-0.8569 -1.4668,-1.33984 -1.21406,-1.21386 -2.73789,-2.427 -4.00195,-3.52539 -0.63192,-0.54986 -1.39735,-1.08091 -1.97852,-1.35157 -0.58117,-0.27068 -1.0608,-0.4058 -1.35742,-0.66992 -0.29666,-0.26411 -0.25481,-0.47802 -0.36914,-0.65039 -0.7189,-1.08732 -1.8354,-2.05748 -2.70898,-2.8125 -0.87359,-0.75503 -1.32432,-1.05472 -2.35352,-1.32812 -0.0755,-0.33251 -0.31708,-0.63665 -0.54297,-0.88672 -0.72678,-0.80295 -1.44924,-1.58628 -2.21289,-2.33789 -0.76384,-0.75029 -1.4414,-1.40495 -2.44336,-1.8711 -0.30945,-0.14476 -1.16635,-0.17963 -1.38672,-0.39257 -0.22037,-0.21293 -0.14978,-0.43761 -0.20508,-0.58008 -0.25554,-0.65959 -0.42368,-0.99441 -0.80078,-1.61328 -0.3771,-0.61887 -0.94754,-1.37333 -1.45508,-1.96485 -0.50754,-0.59153 -1.25665,-1.08897 -1.63476,-1.75781 -0.37812,-0.66883 -0.38893,-1.53725 -0.59375,-2.20313 -0.41344,-1.34307 -0.96901,-2.47302 -1.41406,-3.77343 -0.30093,-0.88147 -0.6454,-1.58925 -0.97071,-2.50781 -0.59625,-1.68807 0.23784,-3.46114 0.082,-5.29297 -0.15585,-1.83183 0.13007,-4.83535 -0.0234,-6.75977 -0.15219,-1.92424 1.78339,-8.71522 1.60937,-10.74219 z m -76.22026,-49.04743 c -0.18878,5.05069 -3.17348,28.17567 -4.05881,31.26901 -1.06267,3.71333 -3.21067,6.98133 -4.348,10.656 -0.28134,0.908 -0.276,1.33866 -0.784,1.96133 -0.508,0.62267 -0.88934,0.82133 -1.37067,1.46933 -1.79733,2.41734 -3.664,5.188 -4.66666,7.984 -0.32,0.89334 -0.344,1.584 -0.724,2.18534 -0.38,0.6 -0.768,0.82266 -1.10134,1.23066 -1.46533,1.796 -2.81466,3.568 -3.97066,5.52 -0.81067,1.36934 -1.48534,3.09067 -2.592,4.12 -1.10667,1.03067 -2.236,1.49733 -3.25867,2.46267 -2.56,2.416 -4.75333,5.16666 -7.156,7.69733 -1.55067,1.63333 -3.74533,2.09467 -5.604,3.2 -2.49333,1.48133 -5.08267,2.81467 -7.49467,4.372 -1.84933,1.19333 -3.524,3.124 -5.26666,4.23333 -1.74267,1.10934 -3.284,1.46 -5.06134,2.168 -0.99866,0.39867 -1.83333,0.80534 -2.74,1.34667 -1.65333,0.98533 -3.252,2.09333 -4.80133,3.19467 -1.54933,1.10133 -2.73067,1.208 -4.64133,1.84533 -1.91067,0.63733 -4.08534,1.704 -6.024,2.84 -2.64534,1.55067 -5.512,3.45467 -8.39734,4.612 -1.676,0.672 -3.356,1.01867 -4.94933,1.75733 -2.44267,1.132 -4.18533,3.11467 -6.676,4.22934 l -6.059999,-1.61067 c 0.63467,-0.284 1.64933,-0.73067 2.22267,-0.984 1.584,-0.69733 3.375999,-1.40533 4.753329,-2.11467 1.37733,-0.70933 2.29333,-1.53333 3.54667,-2.13866 2.13733,-1.032 4.496,-1.788 6.62133,-2.53467 2.12533,-0.74533 3.568,-1.63333 5.364,-2.856 1.33867,-0.912 2.57067,-1.69467 4.08533,-2.48267 1.51467,-0.788 3.86667,-1.52666 5.43867,-1.9 1.572,-0.37333 2.568,-0.64666 3.71867,-1.50266 2.01866,-1.50134 4.24533,-3.27734 6.22666,-4.536 1.98134,-1.25867 3.61067,-2.06667 5.66667,-2.68134 1.26133,-0.37733 2.04933,-0.51733 2.86,-1.524 1.188,-1.47466 2.768,-3.11066 4.24133,-4.092 1.47334,-0.98133 2.78,-1.36933 4.17067,-2.116 1.39067,-0.74666 2.704,-0.632 3.97733,-1.59466 0.78134,-0.59067 1.18534,-1.50267 1.996,-2.24934 0.81067,-0.74666 1.696,-1.54266 2.672,-2.33733 0.976,-0.79467 2.36934,-1.988 3.35734,-2.78667 0.988,-0.79866 1.99466,-1.16666 2.85733,-1.988 0.86267,-0.82133 0.96133,-1.672 1.568,-2.75999 0.60533,-1.08667 1.40133,-2.34 2.25733,-3.41734 1.208,-1.52133 2.64934,-2.98933 3.93067,-4.49466 0.73467,-0.864 0.868,-1.68934 1.29067,-2.79867 1.05733,-2.77333 2.78533,-5.28933 4.64,-7.63333 0.73333,-0.92667 1.34,-1.448 1.81866,-2.61067 2.36133,-5.72667 4.152,-11.99467 6.86267,-17.53067 0.49804,-2.5886 0.39851,-5.58263 1.07719,-8.11724 -0.0678,-3.53183 0.2007,-19.68008 2.38368,-18.67274 z" /></g><g
     inkscape:groupmode="layer"
     id="layer5"
     inkscape:label="Bolian Seam"
     style="display:none"><path
       id="path34966"
       style="color:#000000;fill:#000000;fill-opacity:0.2;-inkscape-stroke:none"
       d="m 263.52806,193.57567 c -3.27898,17.49862 -6.28628,34.58611 -8.7757,51.65149 -0.94222,6.45909 -1.86174,12.56066 -0.54687,17.4707 0.35032,1.3082 1.35567,3.42167 2.67773,5.94922 1.32207,2.52755 2.95802,5.4382 4.55469,8.19727 2.76456,4.77721 5.05099,8.51243 5.71094,9.58789 -1.29089,-0.17393 -2.45117,-0.42578 -2.45117,-0.42578 0,0 3.05207,2.60967 4.16406,2.89843 1.11199,0.28876 0.79646,0.35604 1.8125,-0.18164 1.01604,-0.53768 3.25781,-3.89258 3.25781,-3.89258 0,0 -2.48962,1.48556 -4.07422,1.72071 -0.20305,0.0301 -0.43857,0.0423 -0.69531,0.043 -0.0881,-0.14309 -3.01493,-4.89491 -6.15234,-10.31641 -1.59244,-2.75175 -3.22613,-5.65185 -4.53711,-8.1582 -1.31099,-2.50637 -2.30277,-4.65025 -2.59571,-5.74414 -1.25817,-4.69839 -0.23721,-10.63144 0.54102,-16.9336 2.09076,-16.931 5.20164,-33.57876 8.48236,-50.91036 z"
       inkscape:label="path34966" /><path
       style="color:#000000;fill:#000000;-inkscape-stroke:none"
       d="m 265.52663,194.7717 c -0.77972,3.79896 -7.83006,44.78175 -8.82825,52.17634 -0.79165,5.8645 -1.51321,10.06378 -0.20969,14.93146 0.34935,1.30456 1.34462,3.44195 2.6543,6.00586 1.30968,2.56391 2.92925,5.52203 4.50976,8.33008 3.16103,5.6161 6.35222,10.37283 6.35222,10.37283 l 0.2832,-0.12956 c 0,0 -2.67321,-5.0033 -5.82639,-10.60547 -1.57659,-2.80108 -3.13075,-5.87923 -4.43012,-8.42296 -1.29937,-2.54373 -2.28421,-4.71299 -2.57812,-5.81054 -1.26954,-4.74076 -0.32125,-9.07819 0.41796,-14.56836 0.40822,-3.03189 5.94089,-36.73779 8.65815,-51.7257 z"
       id="path34964"
       sodipodi:nodetypes="cssssssccsssssscc" /></g></svg>
