<?xml version="1.0" encoding="UTF-8" standalone="no"?>
<!-- Created with Inkscape (http://www.inkscape.org/) -->

<svg
   version="1.1"
   id="svg282014"
   width="400"
   height="400"
   viewBox="0 0 400 400"
   sodipodi:docname="femaleNeck.svg"
   inkscape:version="1.3.2 (091e20e, 2023-11-25)"
   xml:space="preserve"
   xmlns:inkscape="http://www.inkscape.org/namespaces/inkscape"
   xmlns:sodipodi="http://sodipodi.sourceforge.net/DTD/sodipodi-0.dtd"
   xmlns="http://www.w3.org/2000/svg"
   xmlns:svg="http://www.w3.org/2000/svg"><defs
     id="defs282018"><inkscape:path-effect
       effect="skeletal"
       id="path-effect1"
       is_visible="true"
       lpeversion="1"
       pattern="m 177.3284,283.04707 c 1.936,0.17467 3.868,0.34267 5.83066,0.73333 4.088,0.816 8.12267,1.97467 12.29334,2.31867 3.36533,0.276 6.67466,0.47467 10.01199,1.05467 3.884,0.67466 8.028,1.58133 12.06134,2.01466 3.54133,0.38134 18.592,0.032 19.10266,4.25467 0.30267,2.50133 -3.01333,3.16 -4.54933,4.15733 -3.596,2.336 -4.428,1.34934 -8.71733,-0.33866 -6.4,-2.51867 -13.82534,-3.22267 -20.57467,-5.14534 -12.21866,-3.48 -24.89733,-5.396 -36.85333,-9.632 -0.76533,-0.27066 -4.756,-1.31333 -2.38533,-2.056 0.85866,-0.26933 2.23066,0.32934 3.076,0.54 1.88266,0.46934 3.76133,1.132 5.688,1.484 1.688,0.308 3.35333,0.464 5.016,0.61467 m 95.78879,13.08867 c -4.06,2.22 -10.67866,5.55066 -14.32533,0.18133 -3.38133,-4.97867 3.68933,-6.47867 7.24533,-6.95467 2.87334,-0.38533 5.63734,0.23067 8.564,-0.068 3.62934,-0.372 7.20534,-1.12266 10.74267,-2 1.55867,-0.38533 3.07067,-0.916 4.596,-1.43066 3.59467,-1.21067 6.516,-1.88667 9.676,-4.12667 0.688,-0.488 1.332,-1.064 2.10133,-0.592 0.792,0.48533 0.90134,1.892 0.62667,2.62267 -0.77333,2.07066 -3.85333,3.31066 -5.68667,4.14666 -2.97333,1.35467 -6.472,1.92 -9.61333,3.008 -4.724,1.636 -9.53333,2.81067 -13.92667,5.21334"
       copytype="single_stretched"
       prop_scale="1"
       scale_y_rel="false"
       spacing="0"
       normal_offset="0"
       tang_offset="0"
       prop_units="false"
       vertical_pattern="false"
       hide_knot="false"
       fuse_tolerance="0" /></defs><sodipodi:namedview
     id="namedview282016"
     pagecolor="#ffffff"
     bordercolor="#666666"
     borderopacity="1.0"
     inkscape:showpageshadow="2"
     inkscape:pageopacity="0.0"
     inkscape:pagecheckerboard="0"
     inkscape:deskcolor="#d1d1d1"
     showgrid="false"
     inkscape:zoom="7.7428192"
     inkscape:cx="295.82248"
     inkscape:cy="230.47161"
     inkscape:window-width="2328"
     inkscape:window-height="1308"
     inkscape:window-x="2040"
     inkscape:window-y="25"
     inkscape:window-maximized="0"
     inkscape:current-layer="layer7"
     showguides="true"><inkscape:page
       x="0"
       y="0"
       id="page282020"
       width="400"
       height="400"
       margin="0"
       bleed="0" /></sodipodi:namedview><g
     inkscape:groupmode="layer"
     id="layer7"
     inkscape:label="StraightenedNeck"
     style="display:inline"><path
       id="path5647"
       style="display:inline;fill:#cd976d;fill-opacity:1;fill-rule:nonzero;stroke:none;stroke-width:1.33333"
       d="m 195.42383,150.29883 c -0.27062,23.83325 5.58663,54.75433 -11.91211,72.86719 -9.17736,8.1499 -21.81972,14.67314 -36.19141,21.16015 -0.007,0.003 -0.0146,0.007 -0.0215,0.0117 -1.8835,0.89617 -3.7962,1.70501 -5.75586,2.35352 -6.48265,2.14399 -12.89064,4.32814 -19.5293,6.24414 -6.75333,1.94932 -12.8866,5.26412 -19.55859,7.32812 -3.943997,1.21866 -7.077708,2.14577 -4.984377,7.14844 1.278666,3.05466 4.463637,5.55234 6.792967,7.875 9.23466,9.20666 17.49307,18.89424 27.51172,26.85156 8.68399,6.89866 16.68096,14.62804 24.73828,22.33203 1.7289,1.65387 63.50885,50.39663 111.98224,50.16386 15.26413,-0.0733 24.39772,-10.99364 35.78678,-29.5106 12.47955,-17.18204 13.43549,-37.70441 15.63723,-57.98529 0.63333,-5.75599 1.35975,-11.88782 2.08203,-17.77734 0.35704,-2.91129 -0.038,-2.80094 -4.56613,-4.25046 -2.82509,-0.90435 -7.83988,-2.62322 -19.3189,-6.51153 -2.81635,-0.95399 -5.18175,-2.29896 -7.67014,-2.87764 -6.79567,-3.07439 -14.48185,-5.73744 -23.07349,-7.66407 l 8.71655,-46.15529 z"
       sodipodi:nodetypes="ccsccccccccsscssscccc" /><path
       id="path19890"
       style="fill:#000000;fill-opacity:1;fill-rule:nonzero;stroke:none;stroke-width:1.33333"
       d="m 192.58398,147.39453 c -0.0149,5.84948 1.05724,26.06743 1.27735,31.15039 0.29177,6.73798 0.15272,12.21333 0.27344,19.38867 0.0849,5.04508 -1.08847,7.0445 -2.80274,11.93946 -1.74416,4.98029 -5.181,8.36387 -8.98633,12.0332 -3.967,3.82573 -16.46984,11.61713 -30.38086,18.14453 -20.61806,9.67452 -45.02073,17.89085 -54.539059,22.09375 0.401334,0.984 1.518748,1.52145 2.580079,1.55078 1.39923,0.0369 53.85917,-20.80536 58.03516,-22.69336 21.65511,-11.48594 38.89634,-21.76709 38.83984,-43.96679 -0.0158,-6.20551 -0.22216,-14.23014 -0.17188,-19.03516 0.0588,-5.6164 -0.0761,-21.64258 -0.29101,-27.19922 0,0 -3.83399,-3.40758 -3.83399,-3.40625 z m 79.41407,51.85352 c 0,0 -6.26253,41.04273 -6.39453,41.9414 -0.56267,3.812 -0.24462,12.94299 4.35937,14.45899 0.38785,0.12687 -0.65274,-3.26 -1.18579,-5.5979 4.29415,1.15976 22.02671,7.01918 28.3418,9.90301 8.45322,3.86023 25.17187,7.93879 25.17187,7.93879 l 0.17578,-2.26562 c 0,0 -10.5822,-2.61766 -23.43164,-7.76692 -10.4493,-4.18743 -28.91876,-10.82106 -30.79101,-11.38933 0.005,-10.38993 9.08734,-44.11901 9.3811,-44.50367 0.008,-0.0107 0.12211,-0.16416 0.13281,-0.16016 -0.001,-10e-4 -5.75976,-2.55859 -5.75976,-2.55859 z"
       sodipodi:nodetypes="cssscscccssccccccsccscccc" /><path
       id="path8865"
       style="display:inline;opacity:0.199997;fill:#000000;fill-opacity:1;fill-rule:nonzero;stroke:none;stroke-width:1.33333"
       d="m 208.30807,290.01034 c 3.36533,0.276 6.67466,0.47467 10.01199,1.05467 3.884,0.67466 8.028,1.58133 12.06134,2.01466 3.54133,0.38134 18.592,0.032 19.10266,4.25467 0.30267,2.50133 -3.01333,3.16 -4.54933,4.15733 -3.596,2.336 -4.428,1.34934 -8.71733,-0.33866 -6.4,-2.51867 -13.82534,-3.22267 -20.57467,-5.14534 -12.21866,-3.48 -24.89733,-5.396 -36.85333,-9.632 -0.76533,-0.27066 -4.756,-1.31333 -2.38533,-2.056 0.85866,-0.26933 2.23066,0.32934 3.076,0.54 1.88266,0.46934 3.75384,1.17582 5.688,1.484 8.4909,1.35292 15.37246,2.87901 23.14,3.66667 z m 63.32757,9.19198 c -3.65052,-4.7848 3.32675,-6.67211 6.85112,-7.34332 2.84775,-0.54306 5.64149,-0.0803 8.54725,-0.53977 3.60333,-0.57141 7.13253,-1.51796 10.61615,-2.58887 1.53507,-0.47063 3.01553,-1.0838 4.51019,-1.68173 3.5225,-1.40689 6.40214,-2.24283 9.43392,-4.65354 0.66007,-0.52517 1.27135,-1.13578 2.06552,-0.70688 0.81754,0.44095 1.00422,1.83946 0.77023,2.58415 -0.65807,2.11013 -3.66506,3.51795 -5.44956,4.4537 -2.89417,1.51644 -6.35637,2.27368 -9.43298,3.53312 -4.62668,1.8938 -9.36398,3.33168 -13.61827,5.97277 -3.93151,2.44033 -10.35659,6.13061 -14.29357,0.97037 z M 195.42578,150.49023 c 0.19319,16.92048 0.2066,32.75045 -0.17578,49.12696 -0.12441,4.66878 0.11275,10.3588 -5.45898,17.02734 -12.57769,14.33106 -30.26606,22.6409 -48.24805,30.04688 -9.64537,3.9725 -28.87646,10.41332 -39.08789,13.57226 -3.943995,1.21866 -7.077706,2.14577 -4.984377,7.14844 1.278665,3.05466 4.463637,5.55234 6.792967,7.875 3.77047,3.75903 7.38049,7.58269 11.01172,11.35156 16.77978,-2.24915 71.15394,-28.07201 81.20117,-28.13867 8.55998,-0.0573 16.28363,7.04122 23.46094,11.0332 1.50667,0.83733 15.56797,9.02374 16.30664,5.06641 0.29333,-1.57867 -4.00315,-5.16199 -4.89648,-6.11133 -3.93334,-4.17464 -8.27971,-8.15944 -11.73438,-12.74609 -2.71066,-3.60133 -4.66824,-8.11347 -3.8789,-12.55078 0.69331,-3.89867 3.43831,-7.18988 6.70898,-9.42188 8.35064,-5.69732 18.13272,-6.5757 27.85937,-4.95703 2.648,0.44 17.83487,4.40018 19.40821,1.13086 0.90956,-9.61927 3.74874,-18.86702 6.16015,-28.18164 l -51.33984,-32.8418 z" /></g></svg>
