<?xml version="1.0" encoding="UTF-8" standalone="no"?>
<!-- Created with Inkscape (http://www.inkscape.org/) -->

<svg
   version="1.1"
   id="svg4319"
   width="400"
   height="400"
   viewBox="0 0 400 400"
   sodipodi:docname="tosKlingonAverageMale.svg"
   inkscape:version="1.2.2 (b0a8486, 2022-12-01)"
   xmlns:inkscape="http://www.inkscape.org/namespaces/inkscape"
   xmlns:sodipodi="http://sodipodi.sourceforge.net/DTD/sodipodi-0.dtd"
   xmlns="http://www.w3.org/2000/svg"
   xmlns:svg="http://www.w3.org/2000/svg">
  <defs
     id="defs4323" />
  <sodipodi:namedview
     id="namedview4321"
     pagecolor="#ffffff"
     bordercolor="#666666"
     borderopacity="1.0"
     inkscape:showpageshadow="2"
     inkscape:pageopacity="0.0"
     inkscape:pagecheckerboard="0"
     inkscape:deskcolor="#d1d1d1"
     showgrid="false"
     inkscape:zoom="2.15"
     inkscape:cx="209.06977"
     inkscape:cy="188.83721"
     inkscape:window-width="1920"
     inkscape:window-height="1080"
     inkscape:window-x="2338"
     inkscape:window-y="160"
     inkscape:window-maximized="0"
     inkscape:current-layer="g4327">
    <inkscape:page
       x="0"
       y="0"
       id="page4325"
       width="400"
       height="400" />
  </sodipodi:namedview>
  <g
     inkscape:groupmode="layer"
     id="layer1"
     inkscape:label="Neck">
    <path
       d="m 210.95811,151.8758 -17.03771,41.56527 c 0,0 -2.93587,17.312 1.04546,25.18133 3.30934,6.54134 11.664,13.756 15.768,16.768 9.03733,6.63734 27.30133,15.592 38.17467,17.004 l 11.33066,-1.564 2.82534,-2.824 5.224,-2.25866 3.81333,-10.87467 13.07916,-15.41225 z"
       style="fill:#cd976d;fill-opacity:1;fill-rule:nonzero;stroke:none;stroke-width:1.33333"
       id="path12419"
       sodipodi:nodetypes="ccccccccccc" />
    <path
       d="m 273.83013,232.57094 10.15733,-13.53467 c -0.16533,-0.37333 -0.32,-0.75333 -0.468,-1.136 l -72.54,-65.98266 -18.91866,37.26933 c 0,0 0.15733,0.26533 0.44133,0.74 0.0467,0.0773 0.10133,0.16933 0.15467,0.25733 0.0347,0.0573 0.0693,0.11467 0.10666,0.176 0.0667,0.11334 0.14134,0.23467 0.21867,0.36267 0.0373,0.0627 0.0787,0.13067 0.11867,0.19733 2.75066,4.548 12.54266,20.10133 19.65199,29.404 0.001,10e-4 0.001,0.003 0.003,0.004 2.496,2.428 4.34533,4.272 5.164,5.176 4.96933,5.49333 31.03867,7.324 38.88533,9.67867 6.24934,1.87466 14.56534,-2.848 17.02534,-2.612"
       style="opacity:0.199997;fill:#000000;fill-opacity:1;fill-rule:nonzero;stroke:none;stroke-width:1.33333"
       id="path13445" />
    <path
       d="m 208.97186,150.18854 c -1.45467,4.52667 -7.26667,19.252 -8.88933,23.73333 -1.32933,3.66934 -9.56,14.62 -9.52667,15.18934 0.009,0.15866 2.25067,3.69466 2.61067,3.30933 4.368,-4.66667 6.94,-11.14933 9.64666,-16.692 1.92934,-3.95333 8.10934,-18.13067 10.04,-22.08267 0,0 -3.88133,-3.45733 -3.88133,-3.45733"
       style="fill:#000000;fill-opacity:1;fill-rule:nonzero;stroke:none;stroke-width:1.33333"
       id="path13455" />
    <path
       d="m 289.20239,220.91987 c -0.86666,-0.42267 -6.996,6.76267 -7.66666,7.46933 -2.77734,2.93467 -5.084,2.97467 -8.96134,3.288 2.71334,-4.86933 6.51867,-9.47333 9.736,-14.096 0,0 6.884,3.33467 6.892,3.33867"
       style="fill:#000000;fill-opacity:1;fill-rule:nonzero;stroke:none;stroke-width:1.33333"
       id="path13459" />
  </g>
  <g
     id="g4327"
     inkscape:groupmode="layer"
     inkscape:label="Uniform">
    <path
       d="m 258.02546,234.65934 c 3.93467,-0.204 8.59333,-0.216 12.35467,-1.512 4.52533,-1.55867 7.49866,-1.016 11.93333,0.97066 3.81467,1.70934 7.54,3.552 11.28267,5.42267 7.308,3.65333 15.28,8.092 23.54666,8.94667 10.46,1.08 37.39467,12.28933 45.54933,16.20133 8.15334,3.912 9.656,4.968 12.44534,13.47467 2.32933,7.104 7.14666,39.656 8.672,50.19466 l 1.88,71.60933 H 13.648133 L 25.934799,284.446 l 30.509333,-25.19466 8.734666,-5.31334 9.62,-5.308 6.630667,-5.768 11.106666,-6.656 c 0,0 37.287999,-18.12 37.287999,-18.12 9.53067,-5.34666 19.06,-10.69333 28.59067,-16.04 1.972,-1.10533 4.01866,-2.09199 6.28933,-1.704 2.42267,0.41467 4.63733,1.056 6.81067,-0.42133 1.96533,-1.336 4.00666,-2.47466 6.19333,-3.508 l 12.21333,-10.92933 3.58534,-3.65867 c 0,0 2.964,0.87067 5.05733,5.40534 2.092,4.53333 22.32,29.81733 26.33066,33.30533 4.01067,3.48666 19.704,14.82133 33.13067,14.124"
       style="fill:#2d2d2d;fill-opacity:1;fill-rule:nonzero;stroke:none;stroke-width:1.33333"
       id="path13463" />
    <path
       d="m 276.27573,235.00414 c -0.0507,-1.36534 -0.17067,-3.10134 0.22533,-3.66667 1.872,-2.67733 5.892,3.436 5.80267,5.04267 -0.16267,2.93733 -3.37467,4.752 -4.756,7.08666 -1.38,2.332 -3.6,5.52934 -3.824,8.26 -0.13334,1.62 1.164,5.23334 -0.648,6.248 -1.12,0.628 -3.10267,0.60134 -4.36667,0.58267 -1.832,-0.0267 -3.676,-0.35733 -5.47067,-0.70267 0.81734,0.15734 2.58534,-0.80133 3.32,-1.144 1.11467,-0.52266 2.22667,-1.216 2.93734,-2.248 0.78933,-1.14666 0.57733,-2.22933 0.828,-3.48 0.372,-1.85066 1.59866,-3.71333 2.368,-5.42533 1.44,-3.20267 2.90266,-5.448 3.55733,-9.072 0.0587,-0.324 0.0493,-0.86533 0.0267,-1.48133"
       style="fill:#000000;fill-opacity:1;fill-rule:nonzero;stroke:none;stroke-width:1.33333"
       id="path13467" />
    <path
       d="m 123.8996,349.0136 c -1.308,-7.91333 -4.33734,-16.292 -6.53467,-23.676 -1.67333,-5.62 -3.49467,-11.20266 -5.58,-16.684 -1.78533,-4.696 -5.35467,-9.68133 -6.576,-14.44533 0.003,0.0107 5.98267,23.32667 6.844,38.19733 -0.0107,6.47733 -1.07333,12.79333 -1.87733,19.19067 -0.976,7.76666 -4.65734,14.56 -5.996,22.2 3.95466,-3.56 7.912,-7.60534 11.776,-11.21334 3.79733,2.60934 5.97066,11.91067 6.50133,16.192 0.31733,2.55867 -0.312,5.91467 0.50267,8.308 1.82266,-3.06 1.45733,-6.64666 1.78,-10.09466 0.328,-3.504 0.32533,-7.05867 0.32533,-10.64267 0,-4.108 -0.34933,-8.09333 -0.58,-12.20133 -0.0947,-1.67734 -0.29867,-3.39334 -0.58533,-5.13067"
       style="fill:#000000;fill-opacity:1;fill-rule:nonzero;stroke:none;stroke-width:1.33333"
       id="path13471" />
    <path
       d="m 382.75506,399.9668 c -0.92667,0 -0.156,-66.39467 -0.772,-71.39733 -2.40934,-17.972 -8.05867,-53.22667 -13.19067,-58.13467 -3.288,-3.144 -8.15467,-4.936 -12.27867,-6.64266 -6.088,-2.51867 -12.332,-4.664 -18.60933,-6.65734 -3.22133,-1.02266 -6.508,-1.86666 -9.716,-2.92266 -3.91866,-1.29067 -8.11466,-1.884 -12.1,-3.07467 -4.70666,-1.40533 -9.31466,-3.144 -13.77733,-5.196 -4.44267,-2.04133 -8.50667,-4.748 -12.87067,-6.97467 -1.67866,-0.856 -3.37733,-1.67066 -5.096,-2.44266 -1.32,-0.59334 -3.112,-0.97867 -4.036,-2.16 -3.756,-4.808 -6.73866,1.77466 -19.56533,1.77466 -3.864,0 -22.03867,-1.86533 -35.68133,-14.34266 -13.64267,-12.476 -28.91867,-35.79733 -29.968,-37.89733 -1.04933,-2.09867 -4.78133,2.916 -7,4.944 -1.62667,1.48666 -3.428,2.71466 -5.14133,4.11866 -2.19867,1.80267 -4.47334,3.50667 -6.892,4.976 -2.73734,1.664 -4.77467,4.084 -8.17334,4.34933 -1.724,0.13467 -3.74133,-0.036 -5.37333,-0.53333 -1.18267,-0.36 -1.77867,0.17467 -2.81733,0.88 -2.204,1.496 -4.25734,3.10667 -6.47467,4.60267 -9.34133,6.304 -18.88133,12.42266 -29.332,16.744 -17.93867,7.41733 -31.391999,15.748 -35.395999,17.53466 -0.985333,0.44 -12.244,7.716 -11.932,8.17467 1.049334,1.544 3.224,2.54 4.722667,3.628 4.462667,3.24 8.414666,7.21733 10.913333,12.05733 0.521333,1.01067 0.989333,2.15734 0.676,3.13067 -4.105333,-6.07867 -21.397333,-19.87067 -27.697333,-12.992 0,0 -29.051999,17.40133 -36.466665,29.67733 -2.006667,3.32934 -1.942667,8.91734 -2.449334,12.63734 -1.097333,8.05066 -1.937333,16.13733 -2.774666,24.21733 -0.888,8.57867 -1.714667,17.164 -2.56,25.748 -1.716,17.432 -2.638667,34.73466 -4.493333,52.17333 h -5.130667 c 1.578667,-8.73067 9.385333,-105.02266 13.592,-115.33733 4.530666,-11.108 33.507999,-29.10133 40.287999,-32.14267 3.325333,-1.712 7.362666,-2.9 8.457333,-3.36666 1.094666,-1.408 5.754666,-7.24534 13.694666,-10.78667 3.766667,-1.68133 17.834669,-10.31333 34.903999,-17.37067 5.14933,-2.12933 10.132,-4.644 14.97333,-7.39733 4.588,-2.60933 9.04267,-5.44267 13.45334,-8.33867 2.69733,-1.77066 5.208,-3.53066 8.28666,-4.61333 2.19067,-0.76933 5.504,-1.90666 7.84267,-1.37333 0.728,0.16533 1.328,0.77066 1.92267,1.17066 0.824,-1.02266 2.62533,-1.65466 3.78,-2.29199 0.84933,-0.468 1.42933,-1.09867 2.16933,-1.67334 1.02667,-0.796 2.28133,-1.308 3.32667,-2.09866 1.94666,-1.47334 3.79066,-3.08267 5.57333,-4.748 1.44933,-1.35334 2.85867,-2.74934 4.23333,-4.17867 0.52934,-0.54933 1.18267,-1.292 1.732,-1.82933 1.83067,-1.79067 4.51334,-5.872 6.496,-2.49067 1.98134,3.38267 28.568,44.66133 48.15867,49.908 19.58933,5.248 24.15333,1.12266 33.232,-1.86534 1.75866,-0.57866 1.692,0.43867 3.096,1.312 2.39733,1.512 4.61866,3.42534 7.19466,4.62667 2.776,1.29467 5.54267,2.60667 8.29867,3.94 7.78267,3.76267 15.028,7.76667 23.284,9.448 10.316,2.10133 44.328,12.41867 51.86533,19.62667 6.08533,5.82 11.60533,41.86933 13.76267,57.64 0.14266,0.66133 0.25866,1.472 0.332,2.45466 l 2.30533,71.776 z"
       style="fill:#000000;fill-opacity:1;fill-rule:nonzero;stroke:none;stroke-width:1.33333"
       id="path13475" />
    <path
       d="m 363.69746,399.9668 c 0.252,-10.69467 0.284,-21.396 0.24933,-32.09333 -0.012,-3.864 -1.14267,-7.82667 -1.11867,-11.532 0.0307,-4.97334 2.80667,-9.532 3.73734,-14.38134 1.14666,-5.97466 1.37866,-12.20399 2.12,-18.24533 1.156,17.316 2.92266,33.88133 1.44666,51.13467 -0.71066,8.312 -0.58933,16.77866 -0.89066,25.11733 0,0 -5.544,0 -5.544,0"
       style="fill:#000000;fill-opacity:1;fill-rule:nonzero;stroke:none;stroke-width:1.33333"
       id="path13479" />
    <path
       d="m 260.60626,241.77387 c 0,0 16.008,-2.51067 17.996,-4.708 1.98667,-2.19733 2.196,-3.244 2.196,-3.244 l 17.78667,8.47467 c 0,0 16.53066,8.99866 23.01733,9.208 0,0 -36.616,0.94133 -38.816,3.03333 -1.73067,1.64667 -5.756,2.13733 -8.05333,2.36533 -1.43734,0.14267 -3.60134,-0.0453 -4.26667,-1.53066 -0.79333,-1.768 0.096,-4.304 1.12533,-5.752 3.348,-4.708 4.28934,-8.056 4.28934,-8.056 0,0 -4.28934,1.77866 -15.27467,0.20933"
       style="opacity:0.199997;fill:#000000;fill-opacity:1;fill-rule:nonzero;stroke:none;stroke-width:1.33333"
       id="path13489" />
    <path
       d="m 120.82213,399.9668 h 241.29066 l -0.33467,-8.37067 c 0,0 0.936,-89.97733 0.10667,-97.82399 -0.82933,-7.84667 -8.57467,-31.64934 -9.636,-34.264 -1.06,-2.616 -32.95733,-11.03867 -32.95733,-11.03867 -1.83067,5.75467 6.39067,25.94667 -5.11733,26.732 -11.50934,0.784 -134.704,2.092 -154.06,0.26133 -19.35467,-1.83066 -27.98667,-12.032 -31.12533,-15.95466 -3.13867,-3.924 -24.32534,-24.064 -27.464,-26.68 -3.138669,-2.61467 -6.800002,0 -15.432002,3.13866 -8.632,3.13867 -15.693333,10.724 -15.693333,10.724 v 2.35467 l 7.453333,2.88667 c 0,0 15.584,11.44 25.366662,35.14666 3.40934,8.264 18.968,42.78934 21.584,67.89867 1.94267,18.64533 -1.88266,36.84666 -3.98133,44.98933"
       style="fill:#7d7d7d;fill-opacity:1;fill-rule:nonzero;stroke:none;stroke-width:1.33333"
       id="path13499" />
    <path
       d="m 119.5144,399.7052 h 241.29066 l -0.33467,-8.37067 c 0,0 0.936,-89.97733 0.10667,-97.82399 -0.82934,-7.84667 -8.57467,-31.64934 -9.636,-34.264 -1.06,-2.616 -32.95733,-11.03867 -32.95733,-11.03867 -1.83067,5.75467 6.39066,25.94667 -5.11734,26.732 -11.50933,0.784 -134.70399,2.092 -154.05999,0.26133 -19.35467,-1.83066 -27.98667,-12.032 -31.12534,-15.95466 -3.13866,-3.924 -24.32533,-24.064 -27.464,-26.68 -3.138662,-2.61467 -6.799996,0 -15.431995,3.13866 -8.632,3.13867 -15.693333,10.724 -15.693333,10.724 v 2.35467 l 7.453333,2.88667 c 0,0 15.583999,11.44 25.366665,35.14666 3.40933,8.264 18.968,42.78934 21.584,67.89867 1.94267,18.64533 -1.88267,36.84666 -3.98133,44.98933"
       style="fill:#7d7d7d;fill-opacity:1;fill-rule:nonzero;stroke:none;stroke-width:1.33333"
       id="path13503" />
    <path
       d="m 362.82426,352.36173 c 0,0 3.97733,-91.28533 -12.504,-96.25466 0,0 -29.084,-10.724 -32.74667,-10.2 -3.66133,0.52267 4.44667,24.848 -7.584,26.94 -12.032,2.092 -137.05866,3.13867 -156.41466,0 -19.35467,-3.13867 -46.55733,-43.41867 -54.403999,-42.896 -7.846667,0.52267 -36.095999,14.124 -31.910666,21.448 0,0 7.94,-4.44133 25.234666,18.94 8.213329,11.104 24.413329,55.97333 27.601329,67.37466 3.18667,11.40267 5.75334,46.56 -2.616,62.25334 h 7.02534 c 4.72133,-19.47334 2.19733,-53.476 -0.55734,-63.32934 -2.50666,-8.96266 -19.08266,-56.66266 -28.271996,-68.72266 -4.681333,-6.144 -14.171999,-20.708 -22.767999,-20.92 5.514666,-5.076 20.443999,-12.49067 26.318666,-13.036 2.465329,0.756 9.701329,8.25333 15.007999,13.74933 11.62933,12.04934 26.10267,27.044 38.7,29.08667 11.31467,1.83467 53.65866,2.03333 71.33733,2.03333 36.70667,-10e-4 83.14267,-0.212 90.484,-1.488 9.836,-1.71066 8.83333,-11.29333 7.264,-19.14 -0.28533,-1.428 -0.984,-5.664 -0.41867,-6.696 4.196,0.912 14.91067,3.52534 25.984,7.69467 11.61733,4.232 12.66933,55.884 11.24133,93.00933 l -0.0173,0.47333 0.092,0.46534 c 1.336,6.67733 1.248,32.98666 0.988,46.82 h 3.808 c 0,0 1.21867,-37.14267 -0.87333,-47.60534"
       style="fill:#000000;fill-opacity:1;fill-rule:nonzero;stroke:none;stroke-width:1.33333"
       id="path13507" />
    <path
       d="m 241.23053,325.91787 c 33.85866,-0.57867 67.732,-0.288 101.57999,0.86 -33.83066,-1.588 -67.70666,-2.32133 -101.59333,-2.184 -16.944,0.0347 -33.89066,0.37333 -50.83599,0.912 -16.94667,0.54667 -33.88934,1.35067 -50.84267,2.52667 16.93733,-1.396 33.872,-2.42134 50.816,-3.188 16.944,-0.76 33.89466,-1.32 50.848,-1.57334 33.90533,-0.57866 67.82266,-0.288 101.71599,0.86134 -37.22266,-1.72667 -74.49866,-2.436 -111.78799,-2.14267 -18.64534,0.212 -37.29467,0.648 -55.94667,1.43333 -9.32666,0.392 -18.652,0.85734 -27.98533,1.45067 -7.512,0.47733 -19.64667,1.12267 -29.084,1.83733 1.48533,4.47067 2.59733,8.15467 3.028,10.30533 0.424,2.12667 0.95333,5.12667 1.5,8.55067 8.45333,-0.90667 17.19467,-1.648 25.82933,-2.30667 9.18,-0.70533 18.384,-1.28533 27.59334,-1.792 18.42133,-1.016 36.87733,-1.69066 55.34266,-2.14133 36.936,-0.77333 73.91467,-0.55333 110.868,0.67733 -33.612,-1.58 -67.268,-2.308 -100.91733,-2.17333 -16.82534,0.032 -33.64667,0.368 -50.45733,0.90133 -16.808,0.54134 -33.61067,1.33867 -50.356,2.49867 16.72933,-1.38 33.524,-2.39867 50.33066,-3.16 16.808,-0.75333 33.63333,-1.31067 50.468,-1.564 33.668,-0.576 67.36533,-0.288 101.03866,0.852 -33.65599,-1.58133 -67.35599,-2.31067 -101.05199,-2.176 -16.84934,0.0333 -33.696,0.37067 -50.53333,0.904 -16.836,0.54267 -33.66667,1.34 -50.45334,2.50533 16.77067,-1.38533 33.59334,-2.404 50.428,-3.16666 16.83467,-0.75467 33.68533,-1.312 50.544,-1.56667 33.716,-0.576 67.456,-0.288 101.17333,0.85467 -33.69866,-1.58267 -67.444,-2.31333 -101.188,-2.17733 -16.872,0.0333 -33.744,0.37066 -50.60799,0.90533 -16.864,0.54266 -33.72267,1.34266 -50.55067,2.51066 16.812,-1.388 33.66267,-2.408 50.524,-3.17199 16.86266,-0.756 33.73866,-1.31467 50.62133,-1.568 33.76267,-0.57734 67.548,-0.288 101.30933,0.856 -33.744,-1.58534 -67.532,-2.316 -101.324,-2.18 -16.896,0.0333 -33.792,0.372 -50.68399,0.908 -16.892,0.544 -33.77734,1.34533 -50.648,2.516 16.85333,-1.39067 33.732,-2.412 50.62133,-3.17734 16.89066,-0.75733 33.79066,-1.316 50.696,-1.56933 33.812,-0.57867 67.64,-0.288 101.44533,0.85733 -33.78667,-1.58666 -67.62,-2.31866 -101.45867,-2.18133 -16.92,0.0333 -33.84133,0.372 -50.75999,0.90933 -16.92,0.54534 -33.83334,1.348 -50.74667,2.52134 16.896,-1.39334 33.80267,-2.41734 50.72,-3.18267 16.91733,-0.75867 33.84266,-1.31733 50.772,-1.572"
       style="opacity:0.100006;fill:#000000;fill-opacity:1;fill-rule:nonzero;stroke:none;stroke-width:1.33333"
       id="path13517" />
    <path
       d="m 230.33013,291.54267 c 34.016,-0.42667 68.04266,0.0133 102.04133,1.304 -33.97867,-1.732 -68.00667,-2.612 -102.04933,-2.628 -17.02134,-0.0413 -34.04533,0.22 -51.072,0.68 -17.02667,0.468 -34.04933,1.192 -51.08533,2.288 17.02133,-1.316 34.03733,-2.26133 51.06266,-2.94933 17.02534,-0.68134 34.05467,-1.164 51.08667,-1.34267 34.06266,-0.42533 68.13333,0.0147 102.17466,1.308 -37.384,-1.88533 -74.82666,-2.75867 -112.28666,-2.63333 -18.73067,0.12666 -37.46667,0.47866 -56.20667,1.176 -9.37066,0.348 -18.74133,0.76933 -28.12,1.32 -7.86533,0.45866 -20.78133,1.152 -30.41466,1.88 1.99333,5.20666 4.51066,11.87866 6.952,18.564 8.08933,-0.804 16.412,-1.46667 24.644,-2.052 9.22666,-0.66134 18.476,-1.19867 27.732,-1.66267 18.51333,-0.93067 37.05733,-1.52 55.61199,-1.88667 37.112,-0.60666 74.26134,-0.22533 111.38267,1.164 -33.76267,-1.724 -67.57333,-2.6 -101.38,-2.616 -16.904,-0.0427 -33.80533,0.21734 -50.696,0.672 -16.88933,0.46267 -33.77333,1.18134 -50.604,2.26267 16.81467,-1.30133 33.692,-2.24 50.58134,-2.924 16.88933,-0.676 33.79599,-1.156 50.71066,-1.33467 33.828,-0.424 67.68,0.0107 101.50533,1.29467 -33.80666,-1.72533 -67.66,-2.60133 -101.51333,-2.61733 -16.92667,-0.044 -33.85333,0.21733 -50.77066,0.67333 -16.91734,0.464 -33.82934,1.18267 -50.70134,2.26667 16.856,-1.304 33.76134,-2.244 50.67734,-2.928 16.91733,-0.67734 33.84933,-1.15867 50.78666,-1.336 33.87467,-0.42534 67.77067,0.0107 101.63867,1.296 -33.84934,-1.72667 -67.74667,-2.604 -101.64667,-2.62 -16.95067,-0.0427 -33.90133,0.21733 -50.84666,0.67466 -16.944,0.46534 -33.884,1.18667 -50.79734,2.27334 16.89734,-1.30667 33.83067,-2.248 50.77467,-2.93467 16.944,-0.67733 33.9,-1.15867 50.86133,-1.33733 33.92133,-0.42534 67.86,0.012 101.772,1.3 -33.892,-1.72934 -67.83333,-2.608 -101.78,-2.624 -16.97467,-0.0413 -33.95066,0.21866 -50.92266,0.67733 -16.97067,0.46533 -33.93867,1.188 -50.89334,2.27733 16.93867,-1.30933 33.9,-2.252 50.87067,-2.93866 16.972,-0.67867 33.952,-1.16134 50.936,-1.33867 33.96933,-0.42667 67.952,0.012 101.908,1.30133 -33.936,-1.73066 -67.92134,-2.61066 -101.916,-2.62533 -16.99734,-0.0427 -33.99733,0.21867 -50.996,0.67867 -17,0.46666 -33.99467,1.18933 -50.99067,2.28266 16.98,-1.31333 33.96934,-2.25733 50.96667,-2.94533 16.99867,-0.68 34.004,-1.16133 51.012,-1.34"
       style="opacity:0.100006;fill:#000000;fill-opacity:1;fill-rule:nonzero;stroke:none;stroke-width:1.33333"
       id="path13533" />
    <path
       d="m 144.87493,379.21027 c 67.33733,-2.924 134.80666,-4.37867 202.26399,-4.96134 -67.46133,-0.3 -134.94799,0.272 -202.36532,2.316 67.38533,-2.92666 134.87599,-4.38 202.36132,-4.96266 -67.48933,-0.3 -134.99733,0.27066 -202.46132,2.31733 67.43199,-2.928 134.94399,-4.38267 202.45732,-4.96533 -67.51733,-0.3 -135.04666,0.272 -202.55866,2.31866 67.48,-2.92933 135.012,-4.38266 202.55466,-4.96533 -67.54666,-0.3 -135.09733,0.27067 -202.65599,2.32 67.528,-2.93067 135.08133,-4.38533 202.65066,-4.968 -67.57333,-0.3 -135.14533,0.272 -202.75066,2.32267 67.57466,-2.93334 135.148,-4.38667 202.74666,-4.97067 -37.13733,-0.17867 -74.27866,-0.048 -111.42533,0.396 -34.72667,0.46267 -75.05066,1.11733 -110.608,2.368 0.552,5.33467 0.84134,10.02533 0.592,12.64933 -0.13733,1.43734 -0.43733,3.57867 -0.828,6.08267 35.44134,-1.71867 76.24533,-2.844 111.172,-3.764 37.02933,-0.92533 74.07333,-1.54 111.12266,-1.84667 -67.43199,-0.3 -134.89866,0.27067 -202.26799,2.31334"
       style="opacity:0.100006;fill:#000000;fill-opacity:1;fill-rule:nonzero;stroke:none;stroke-width:1.33333"
       id="path13549" />
    <path
       d="m 98.261331,276.81387 c 0.414667,-0.232 0.829333,-0.464 1.272,-0.69333 1.101329,-0.58267 2.263999,-1.14667 3.441329,-1.69867 2.36134,-1.10267 4.832,-2.12267 7.33467,-3.09333 5.01867,-1.936 13.49867,-4.52934 17.91067,-5.792 -4.35467,0.80133 -12.19467,2.688 -16.964,4.012 -4.75067,1.324 -9.488,2.84666 -13.798669,4.68133 4.121329,-2.23467 8.735999,-4.184 13.389329,-5.94 4.672,-1.756 11.22267,-3.724 15.276,-4.89333 -4.404,0.81333 -10.83733,2.28533 -15.68666,3.63466 -4.83467,1.35334 -9.648,2.89867 -14.137336,4.81867 4.299996,-2.32 8.990666,-4.29333 13.727996,-6.07733 4.752,-1.78267 9.896,-3.33467 14,-4.51467 -8.87066,1.66667 -19.50266,4.25333 -28.886662,8.212 9.016002,-4.76267 18.524002,-7.95067 26.789332,-10.35067 -8.97867,1.69734 -18.24133,3.86267 -27.949332,7.97067 9.341332,-4.91333 17.478662,-7.68 25.852002,-10.11067 -4.552,0.848 -6.76534,1.072 -11.852,2.5 -5.09067,1.44 -10.132002,3.05467 -15.158669,5.23067 4.837333,-2.576 9.755999,-4.61867 14.749329,-6.49067 4.98934,-1.85866 5.91334,-2.164 10.16534,-3.37866 -4.60134,0.85866 -5.40934,0.668 -10.57467,2.12 -5.176,1.47066 -10.293332,3.108 -15.498666,5.368 5.016,-2.66 10.010666,-4.72534 15.089336,-6.62667 5.06933,-1.88533 4.58533,-1.77333 8.88666,-3 -5.11733,0.94667 -5.08666,0.516 -10.852,2.19067 -2.88266,0.84266 -5.763996,1.75066 -8.661329,2.812 -1.449333,0.53333 -2.901333,1.08666 -4.374667,1.70933 -0.733333,0.30533 -1.481333,0.636 -2.236,0.98 l -1.165333,0.556 c -0.377333,0.192 -0.652,0.32267 -1.157333,0.604 4.2,4.71333 8.26,10.23333 11.069333,15.26"
       style="opacity:0.100006;fill:#000000;fill-opacity:1;fill-rule:nonzero;stroke:none;stroke-width:1.33333"
       id="path13565" />
    <path
       d="m 77.331465,252.38227 c 0.724,0.50133 1.508,1.13067 2.316,1.81333 1.377333,-0.77733 2.918666,-1.63466 3.533333,-1.94133 2.452,-1.19867 5,-2.28133 7.584,-3.29333 5.178666,-2.012 14.616002,-4.652 17.726662,-5.74934 -3.016,0.84534 -11.711996,2.992 -16.546662,4.58667 -4.822667,1.58933 -7.038667,2.472 -11.117333,4.67067 3.872,-2.35467 6.122666,-3.48934 10.897333,-5.296 4.788,-1.81067 12.741332,-3.93067 15.581332,-4.94667 -3.03733,0.852 -10.914666,2.71067 -15.799999,4.32267 -4.877333,1.61066 -7.750666,2.73733 -11.928,4.99066 3.972,-2.41066 6.88,-3.788 11.708,-5.61466 4.838667,-1.82934 11.973329,-3.66 14.834669,-4.68267 -3.05867,0.85867 -10.117336,2.428 -15.053336,4.05733 -4.930666,1.63067 -8.461333,3.00134 -12.737333,5.31067 4.069334,-2.46533 7.634667,-4.088 12.517333,-5.93467 4.889334,-1.84666 11.205336,-3.38933 14.089336,-4.41866 -3.08134,0.86533 -9.321336,2.14666 -14.309336,3.79466 -4.983999,1.65067 -9.170666,3.26534 -13.545333,5.62934 4.168,-2.52 8.390667,-4.38667 13.326667,-6.25467 4.94,-1.864 10.437332,-3.11733 13.342662,-4.15467 -3.10266,0.872 -8.523996,1.86534 -13.562662,3.53067 -5.038667,1.67067 -9.882667,3.53067 -14.356,5.95067 4.268,-2.576 9.146667,-4.688 14.136,-6.57467 4.990666,-1.88267 9.670666,-2.848 12.597332,-3.892 -3.125332,0.88 -7.726666,1.584 -12.815999,3.26667 -5.092,1.69066 -10.593333,3.796 -15.165333,6.27066 4.365333,-2.632 9.902667,-4.988 14.945333,-6.89466 5.041333,-1.9 8.901333,-2.57734 11.851999,-3.62667 -3.471999,0.96267 -7.954666,1.59467 -13.593332,3.516 -2.817333,0.96933 -5.618667,2.02133 -8.392,3.23333 -1.385333,0.61734 -2.768,1.24934 -4.145333,1.956 -0.688,0.34534 -1.378667,0.71867 -2.070667,1.1 l -1.049333,0.61067 c -0.374667,0.228 -0.664,0.39733 -1.173333,0.74667 l 0.409333,0.56533 c 1.918667,0.86267 3.953333,1.95867 5.964,3.352"
       style="opacity:0.100006;fill:#000000;fill-opacity:1;fill-rule:nonzero;stroke:none;stroke-width:1.33333"
       id="path13581" />
    <path
       d="m 128.0616,220.3108 c 11.85066,-5.92533 32.052,-19.93066 34.20666,-19.93066 2.15467,0 7.54134,0.53866 7.54134,0.53866 0,0 15.08266,-9.83199 16.968,-11.58266 1.88533,-1.75067 6.73333,-7.676 7.94533,-6.73333 1.212,0.94266 10.50533,14.41066 12.12133,16.96933 1.616,2.55866 6.59867,7.94533 6.59867,7.94533 0,0 -2.424,2.828 0.26933,7.272 2.69333,4.444 18.584,21.27733 36.9,23.836 0,0 -7.812,6.06 -34.072,-13.46667 -26.26133,-19.52666 -33.264,-13.736 -33.93733,-12.12 -0.67333,1.616 11.17733,22.624 34.476,35.41867 0,0 -24.64533,-9.29333 -37.43867,-29.08933 0,0 -4.98266,-5.656 -9.292,-4.444 -2.032,0.572 -4.00666,1.544 -5.94666,2.35733 -4.15067,1.74133 -8.27467,3.544 -12.38534,5.37333 -5.404,2.404 -10.784,4.864 -16.13466,7.38134 -2.88667,1.35733 -5.76534,2.73333 -8.63334,4.12933 -2.792,1.36 -5.95466,2.54267 -8.54266,4.26133 -1.15867,0.76934 -2.36667,1.59467 -3.45867,2.46534 -0.37333,0.29866 -0.76933,0.89866 -1.16267,1.11466 -0.624,0.34267 -0.92533,0.0613 -1.624,-0.15466 -2.036,-0.63334 -5.056,1.388 -6.90666,2.332 -2.83734,1.448 -5.574669,3.16533 -8.425336,4.60666 -2.605333,1.31867 -5.258666,2.436 -7.594666,4.188 -2.150667,1.612 -2.548,3.496 -3.070667,6.008 -0.402666,1.93334 -2.166666,3.25067 -3.622666,4.38267 -1.541334,1.19867 -3.062667,2.42267 -4.562667,3.672 -3.736,3.11067 -7.350666,6.37733 -10.736,9.868 -4.965333,5.12 -10.370666,11.19867 -12.201333,18.27867 C 51.298932,310.80947 43.353599,399.9668 43.353599,399.9668 H 13.646933 c 0,0 8.968,-110.436 13.681333,-115.95733 3.530667,-4.136 6.845333,-8.35067 10.838666,-12.07467 7.709334,-7.18666 16.729333,-12.86666 26.090666,-17.64266 2.290667,-1.168 5.421334,-1.604 5.313334,-4.77467 -0.04667,-1.376 -0.105334,-2.26 0.934666,-3.28667 1.870667,-1.848 4.845333,-2.57733 7.070667,-3.90266 2.601333,-1.54667 4.890666,-3.55734 7.404,-5.24934 2.849333,-1.916 6.141333,-3.076 9.214666,-4.55066 1.872,-0.89867 3.477333,-0.21867 5.422667,-0.53067 1.318662,-0.21067 2.582662,-0.648 3.881332,-0.94133 1.07333,-0.24134 2.20533,-0.092 3.23067,-0.356 1.35733,-0.348 2.78,-1.33467 4.04533,-1.94667 1.33067,-0.64267 2.66,-1.28667 3.99067,-1.93067 4.44,-2.152 8.88133,-4.30533 13.296,-6.512"
       style="opacity:0.199997;fill:#000000;fill-opacity:1;fill-rule:nonzero;stroke:none;stroke-width:1.33333"
       id="path13621" />
    <path
       d="m 99.868264,381.65653 c 4.882666,-2.092 11.857336,-3.488 6.974666,4.53334 -2.40267,3.94666 -6.492,9.328 -10.027999,13.77733 h 40.821329 c 2.94534,-23.824 -7.584,-60.61733 -9.868,-72.36666 -2.44133,-12.55467 -27.20266,-46.384 -27.20266,-46.384 -4.882669,-9.416 1.39466,19.53066 3.836,48.476 2.44133,28.94666 -9.416002,54.05599 -4.533336,51.96399"
       style="opacity:0.199997;fill:#000000;fill-opacity:1;fill-rule:nonzero;stroke:none;stroke-width:1.33333"
       id="path13637" />
  </g>
  <g
     inkscape:groupmode="layer"
     id="layer2"
     inkscape:label="Pin"
     style="display:none">
    <path
       d="m 148.87266,260.44894 c 0,0 -8.87066,6.916 -8.54,9.91733 0.33067,3.00133 0.91334,4.30667 -1.95066,9.13467 -2.864,4.82933 -2.93334,5.612 -1.84934,7.04666 1.08267,1.436 5.70534,-2.87066 8.004,-5.21866 2.29734,-2.34934 5.89467,-5.48134 8.864,-5.22 2.97067,0.26 4.25334,-9.65734 4.40534,-12.78934 0.152,-3.132 -4.14267,-6.524 -8.93334,-2.87066"
       style="fill:#c7b791;fill-opacity:1;fill-rule:nonzero;stroke:none;stroke-width:1.33333"
       id="path13591" />
    <path
       d="m 149.83266,261.6436 c -4.36533,3.40667 -8.11333,7.45467 -8.02133,8.664 l 0.108,0.88667 c 0.356,2.812 0.42667,4.62267 -2.24267,9.124 -2.00266,3.376 -2.38533,4.36267 -2.24533,4.91733 0.91867,-0.41066 2.99733,-1.90266 6.00533,-4.97733 3.94134,-4.03067 7.20267,-5.87867 9.99334,-5.62533 1.1,-0.392 2.64266,-6.40534 2.88933,-11.48667 0.044,-0.89467 -0.55333,-1.848 -1.48667,-2.372 -1.408,-0.79067 -3.232,-0.47467 -5,0.86933 m -12.13333,24.068 h 0.0133 z m -0.39333,2.60934 c -0.12534,0 -0.22534,-0.0107 -0.30534,-0.0187 -0.65866,-0.068 -1.24,-0.39333 -1.636,-0.91867 -1.776,-2.352 -1.03333,-4.052 1.72267,-8.7 2.31333,-3.9 2.16933,-5.04266 1.88,-7.31866 -0.0373,-0.29734 -0.0773,-0.60667 -0.11333,-0.93734 -0.376,-3.416 6.20533,-8.94933 9.052,-11.168 0.004,-0.003 0.008,-0.007 0.012,-0.009 3.85866,-2.944 7.04533,-1.70267 8.23866,-1.03333 2.00534,1.128 3.236,3.19866 3.13467,5.276 -0.0293,0.59333 -0.728,14.544 -5.92,14.092 -1.052,-0.0893 -3.42933,0.412 -7.73467,4.81466 -5.28933,5.40667 -7.44533,5.92134 -8.33066,5.92134"
       style="fill:#000000;fill-opacity:1;fill-rule:nonzero;stroke:none;stroke-width:1.33333"
       id="path13595" />
    <path
       d="m 148.87266,260.44894 c 0,0 -8.87066,6.916 -8.54,9.91733 0.33067,3.00133 0.91334,4.30667 -1.95066,9.13467 -2.864,4.82933 -2.93334,5.612 -1.84934,7.04666 1.25334,1.66134 5.91734,-3.18266 6.72667,-3.972 -0.88933,0.592 -2.112,0.86134 -3.07733,1.31867 -0.57734,-0.904 0.29066,-2.13067 0.76933,-2.872 1.27867,-1.97867 2.24933,-4.01067 3.112,-6.18267 0.30267,-0.76133 1.09467,-2.06666 0.88533,-2.928 -0.23733,-0.97333 -1.34933,-1.19866 -2.056,-1.69466 0.75334,-1.71467 2.72934,-3.64667 4.00267,-5.01867 1.176,-1.268 2.38,-2.02933 3.77867,-2.96133 0.78266,-0.52134 1.38266,-1.13334 2.24133,-1.496 0.42667,-0.18134 2.51467,-0.528 2.65467,-0.97467 0.16266,-0.51867 -1.14267,-0.73467 -1.564,-0.812 -1.83867,-0.33867 -3.69067,0.37067 -5.13334,1.49467"
       style="opacity:0.199997;fill:#000000;fill-opacity:1;fill-rule:nonzero;stroke:none;stroke-width:1.33333"
       id="path13605" />
  </g>
</svg>
