<?xml version="1.0" encoding="UTF-8" standalone="no"?>
<!-- Created with Inkscape (http://www.inkscape.org/) -->

<svg
   version="1.1"
   id="svg4319"
   width="400"
   height="400"
   viewBox="0 0 400 400"
   sodipodi:docname="tosKlingonAverageMale.svg"
   inkscape:version="1.3.2 (091e20e, 2023-11-25)"
   xml:space="preserve"
   xmlns:inkscape="http://www.inkscape.org/namespaces/inkscape"
   xmlns:sodipodi="http://sodipodi.sourceforge.net/DTD/sodipodi-0.dtd"
   xmlns="http://www.w3.org/2000/svg"
   xmlns:svg="http://www.w3.org/2000/svg"><defs
     id="defs4323" /><sodipodi:namedview
     id="namedview4321"
     pagecolor="#ffffff"
     bordercolor="#666666"
     borderopacity="1.0"
     inkscape:showpageshadow="2"
     inkscape:pageopacity="0.0"
     inkscape:pagecheckerboard="0"
     inkscape:deskcolor="#d1d1d1"
     showgrid="false"
     inkscape:zoom="2.1675"
     inkscape:cx="200"
     inkscape:cy="200"
     inkscape:window-width="1920"
     inkscape:window-height="1080"
     inkscape:window-x="2301"
     inkscape:window-y="141"
     inkscape:window-maximized="0"
     inkscape:current-layer="g4327"><inkscape:page
       x="0"
       y="0"
       id="page4325"
       width="400"
       height="400"
       margin="0"
       bleed="0" /></sodipodi:namedview><g
     inkscape:groupmode="layer"
     id="layer1"
     inkscape:label="Neck"
     style="display:none"
     sodipodi:insensitive="true"><path
       d="m 210.95811,151.8758 -17.03771,41.56527 c 0,0 -2.93587,17.312 1.04546,25.18133 3.30934,6.54134 11.664,13.756 15.768,16.768 9.03733,6.63734 27.30133,15.592 38.17467,17.004 l 11.33066,-1.564 2.82534,-2.824 5.224,-2.25866 3.81333,-10.87467 13.07916,-15.41225 z"
       style="fill:#cd976d;fill-opacity:1;fill-rule:nonzero;stroke:none;stroke-width:1.33333"
       id="path12419"
       sodipodi:nodetypes="ccccccccccc" /><path
       d="m 273.83013,232.57094 10.15733,-13.53467 c -0.16533,-0.37333 -0.32,-0.75333 -0.468,-1.136 l -72.54,-65.98266 -18.91866,37.26933 c 0,0 0.15733,0.26533 0.44133,0.74 0.0467,0.0773 0.10133,0.16933 0.15467,0.25733 0.0347,0.0573 0.0693,0.11467 0.10666,0.176 0.0667,0.11334 0.14134,0.23467 0.21867,0.36267 0.0373,0.0627 0.0787,0.13067 0.11867,0.19733 2.75066,4.548 12.54266,20.10133 19.65199,29.404 0.001,10e-4 0.001,0.003 0.003,0.004 2.496,2.428 4.34533,4.272 5.164,5.176 4.96933,5.49333 31.03867,7.324 38.88533,9.67867 6.24934,1.87466 14.56534,-2.848 17.02534,-2.612"
       style="opacity:0.199997;fill:#000000;fill-opacity:1;fill-rule:nonzero;stroke:none;stroke-width:1.33333"
       id="path13445" /><path
       d="m 208.97186,150.18854 c -1.45467,4.52667 -7.26667,19.252 -8.88933,23.73333 -1.32933,3.66934 -9.56,14.62 -9.52667,15.18934 0.009,0.15866 2.25067,3.69466 2.61067,3.30933 4.368,-4.66667 6.94,-11.14933 9.64666,-16.692 1.92934,-3.95333 8.10934,-18.13067 10.04,-22.08267 0,0 -3.88133,-3.45733 -3.88133,-3.45733"
       style="fill:#000000;fill-opacity:1;fill-rule:nonzero;stroke:none;stroke-width:1.33333"
       id="path13455" /><path
       d="m 289.20239,220.91987 c -0.86666,-0.42267 -6.996,6.76267 -7.66666,7.46933 -2.77734,2.93467 -5.084,2.97467 -8.96134,3.288 2.71334,-4.86933 6.51867,-9.47333 9.736,-14.096 0,0 6.884,3.33467 6.892,3.33867"
       style="fill:#000000;fill-opacity:1;fill-rule:nonzero;stroke:none;stroke-width:1.33333"
       id="path13459" /></g><g
     id="g4327"
     inkscape:groupmode="layer"
     inkscape:label="Uniform"><path
       d="m 258.02546,234.65934 c 3.93467,-0.204 8.59333,-0.216 12.35467,-1.512 4.52533,-1.55867 6.35685,0.12581 10.79152,2.11247 3.81467,1.70934 8.68181,3.79667 12.42448,5.66734 7.308,3.65333 15.52467,6.78707 24.19912,9.68069 10.46,1.08 35.76352,17.83527 43.91818,21.74727 8.15334,3.912 13.24454,9.37212 16.03388,17.87879 2.32933,7.104 4.53681,27.58544 6.06215,38.1241 l 1.88,71.60933 H 19.648133 l 21.945779,-91.05397 6.864233,-21.68168 14.904414,-20.39786 10.184906,-7.63895 3.532553,-5.03534 c 6.946121,-5.97808 15.849098,-11.18966 23.980692,-15.22834 l 6.21516,-0.79928 29.14988,-11.54634 c 12.07755,-4.09845 23.17825,-10.69063 35.2401,-14.80792 3.15979,-1.15868 6.57096,-3.6936 8.7443,-5.17093 6.21003,-4.08675 9.90341,-9.76737 11.2555,-16.06524 l 2.18999,1.63203 c 0,0 2.01584,1.5686 5.34802,5.28906 6.5583,7.32247 21.68047,19.58477 25.69113,23.07277 4.01067,3.48666 19.704,14.82133 33.13067,14.124"
       style="fill:#2d2d2d;fill-opacity:1;fill-rule:nonzero;stroke:none;stroke-width:1.33333"
       id="path13463"
       sodipodi:nodetypes="ccccccscccccccccccscccscc" /><path
       d="m 271.46381,235.33038 c -0.0507,-1.36534 -0.17067,-3.10134 0.22533,-3.66667 1.872,-2.67733 4.91331,0.66303 4.82398,2.2697 -0.16267,2.93733 -2.87815,7.37359 -3.69575,10.59365 -0.77375,3.04733 -0.90859,5.77401 -1.13259,8.50467 -0.13334,1.62 -0.22008,7.07878 -2.03208,8.09344 -1.12,0.628 -2.41063,1.06271 -3.67463,1.04404 -1.832,-0.0267 -3.676,-0.35733 -5.47067,-0.70267 0.81734,0.15734 2.58534,-0.80133 3.32,-1.144 1.11467,-0.52266 2.94224,-2.46516 3.3987,-3.63209 1.10697,-3.41209 1.5104,-7.02259 2.0402,-10.56207 0.70575,-4.58926 1.51617,-5.69267 2.17084,-9.31667 0.0587,-0.324 0.0493,-0.86533 0.0267,-1.48133"
       style="fill:#000000;fill-opacity:1;fill-rule:nonzero;stroke:none;stroke-width:1.33333"
       id="path13467"
       sodipodi:nodetypes="cccscccccsscc" /><path
       id="path13471"
       style="fill:#000000;fill-opacity:1;fill-rule:nonzero;stroke:none;stroke-width:1.33333"
       d="m 192.14453,188.69727 c -1.75694,0.44435 -2.8006,4.7305 -3.92773,6.60546 -3.06914,5.10544 -8.53547,11.23334 -12.34613,14.60578 -5.84203,2.42125 -14.18966,5.30848 -20.47004,7.90144 -23.24681,9.59784 -40.29593,16.60532 -64.722896,26.63732 -7.939992,3.54132 -10.653382,7.39473 -11.748046,8.80273 -1.094666,0.46666 -2.821155,2.27824 -6.146485,3.99023 -3.064404,1.37462 -10.123119,7.865 -15.935547,14.83008 -7.047567,8.44517 -10.050758,15.16329 -13.382812,24.67188 -8.256106,23.56021 -23.884225,94.49395 -25.462891,103.22461 h 4.429688 C 29.396103,365.77371 37.8464,330.85351 47.28125,297.30273 c 5.106229,-16.01147 23.022799,-32.80928 28.976562,-36.69726 4.29511,-2.80484 12.509906,1.82173 16.615235,7.90039 0.313333,-0.97333 -0.154449,-2.12019 -0.675781,-3.13086 -2.498665,-4.84 -3.351791,-6.53344 -7.814454,-9.77344 -1.498665,-1.088 -1.481917,-0.2392 -2.53125,-1.7832 0.956743,0.5794 9.000997,-5.75141 9.986329,-6.19141 4.003996,-1.78666 17.440829,-7.6428 35.824219,-14.57226 12.08648,-4.5559 17.79784,-7.70041 28.86606,-12.41939 7.28396,-3.10554 13.44201,-3.91135 21.12369,-8.73744 2.41866,-1.46933 6.66598,-5.66272 8.53445,-8.16425 1.75404,-2.34833 4.85714,-6.1715 5.43478,-8.84689 0.53077,-2.45833 2.96087,0.42865 3.92774,1.42187 1.63752,1.68216 13.90637,15.1877 28.60547,27.19922 14.31606,11.69853 32.683,14.15827 36.50781,13.60938 13.07134,-1.87583 13.22451,-2.05074 16.13867,-1.04102 2.46753,0.85496 8.90609,3.59853 13.04688,5.41797 4.48534,1.97083 9.32602,4.44439 14.58398,6.48633 4.57868,1.77814 10.13422,4.54387 14.67383,6.41992 11.83513,4.89103 35.6274,17.8916 39.5293,19.50586 4.12399,1.70666 8.98934,3.49858 12.27734,6.64258 5.13199,4.90799 9.69902,29.94065 11.07031,48.02148 1.52629,20.12466 0.24691,71.39649 1.17358,71.39649 h 4.40064 c -0.76823,-23.92513 -0.65187,-47.89506 -2.30469,-71.77539 -1.17804,-17.02057 -1.69039,-36.32561 -11.97461,-49.98243 -7.53732,-7.20799 -46.21442,-25.04995 -54.3125,-28.59765 -4.83106,-2.11646 -15.61793,-5.75207 -31.74609,-12.32813 -2.63198,-1.07315 -8.13827,-3.12046 -10.53906,-4.62695 -1.40055,-0.87885 -0.6847,-3.27593 -2.44336,-2.69727 -9.07866,2.988 -10.46147,6.29683 -30.05078,1.04883 -19.59065,-5.24666 -48.15343,-37.92007 -50.13477,-41.30273 -0.68436,-0.89162 -1.3206,-1.15593 -1.90625,-1.00781 z m -86.93555,105.51171 c 0.003,0.0107 5.98243,23.32662 6.84375,38.19727 -0.0107,6.47732 -1.07295,12.79212 -1.87695,19.18945 -0.976,7.76666 -4.65743,14.56118 -5.99609,22.20118 3.95465,-3.56 7.91139,-7.60685 11.77539,-11.21485 3.79732,2.60934 5.97128,11.91203 6.50195,16.19336 0.31733,2.55867 -0.31271,5.91331 0.50195,8.30664 1.82266,-3.06 1.45858,-6.64575 1.78125,-10.09375 0.328,-3.504 0.32422,-7.05858 0.32422,-10.64258 0,-4.10799 -0.34941,-8.09317 -0.58007,-12.20117 -0.0947,-1.67734 -0.29733,-3.39353 -0.58399,-5.13086 -1.308,-7.91332 -4.33783,-16.29179 -6.53516,-23.67578 -1.67332,-5.61999 -3.49475,-11.20226 -5.58007,-16.68359 -1.78533,-4.696 -5.35485,-9.68132 -6.57618,-14.44532 z m 263.47657,29.50586 c -0.74134,6.04134 -0.97248,12.27144 -2.11914,18.2461 -0.93067,4.84933 -3.70759,9.40752 -3.73829,14.38086 -0.024,3.70532 1.10715,7.66725 1.11915,11.53125 0.0347,10.69732 0.002,21.39909 -0.25,32.09375 h 5.54492 c 0.30133,-8.33866 0.17996,-16.8052 0.89062,-25.11719 1.476,-17.25332 -0.29126,-33.81878 -1.44726,-51.13477 z"
       sodipodi:nodetypes="sscscccsscccsccsccsscsssssssssccsscscssscccsccccccccsccccccscccccc" /><path
       d="m 120.82213,399.9668 h 241.29066 l -0.33467,-8.37067 c 0,0 0.936,-89.97733 0.10667,-97.82399 -0.82933,-7.84667 -6.61728,-25.61406 -7.67861,-28.22872 -1.06,-2.616 -34.91472,-17.07395 -34.91472,-17.07395 -1.83067,5.75467 6.39067,25.94667 -5.11733,26.732 -11.50934,0.784 -134.704,2.092 -154.06,0.26133 -19.35467,-1.83066 -27.98667,-12.032 -31.12533,-15.95466 -3.13867,-3.924 -19.59639,-18.87369 -22.73505,-21.48969 -3.13867,-2.61467 -6.12419,0.26245 -14.127076,4.76982 -8.468884,4.76983 -14.877754,11.53958 -14.877754,11.53958 v 2.35467 l 4.525447,-0.82881 c 0,0 11.662431,7.51843 21.445093,31.22509 3.40934,8.264 18.968,42.78934 21.584,67.89867 1.94267,18.64533 -1.88266,36.84666 -3.98133,44.98933"
       style="fill:#7d7d7d;fill-opacity:1;fill-rule:nonzero;stroke:none;stroke-width:1.33333"
       id="path13499"
       sodipodi:nodetypes="cccsccccccscccccc" /><path
       d="m 119.5144,399.7052 h 241.29066 l -0.33467,-8.37067 c 0,0 0.936,-89.97733 0.10667,-97.82399 -0.82934,-7.84667 -6.45417,-25.94029 -7.5155,-28.55495 -1.06,-2.616 -35.07783,-16.74772 -35.07783,-16.74772 -1.83067,5.75467 6.39066,25.94667 -5.11734,26.732 -11.50933,0.784 -134.70399,2.092 -154.05999,0.26133 -19.35467,-1.83066 -27.98667,-12.032 -31.12534,-15.95466 -3.13866,-3.924 -15.67481,-16.56688 -18.81348,-19.18288 -3.13866,-2.61467 -8.927292,0.32284 -17.559291,3.4615 -8.632,3.13867 -14.205501,10.37798 -14.205501,10.37798 l -0.23068,1.60495 4.454485,0.75288 c 0,0 10.802471,6.84957 20.585137,30.55623 3.40933,8.264 18.968,42.78934 21.584,67.89867 1.94267,18.64533 -1.88267,36.84666 -3.98133,44.98933"
       style="fill:#7d7d7d;fill-opacity:1;fill-rule:nonzero;stroke:none;stroke-width:1.33333"
       id="path13503"
       sodipodi:nodetypes="cccsccccccscccccc" /><path
       d="m 363.47672,355.95028 c 0,0 4.5403,-86.49547 -11.68842,-94.29727 -13.98334,-6.72237 -29.73646,-14.31255 -33.39913,-13.78855 -3.66133,0.52267 3.63109,22.89061 -8.39958,24.98261 -12.032,2.092 -137.05866,3.13867 -156.41466,0 -19.35467,-3.13867 -40.39992,-37.17389 -48.24659,-36.65122 -7.846662,0.52267 -35.375966,15.42072 -31.190633,22.74472 0,0 4.522766,-6.96553 18.357224,11.3985 8.310499,11.03146 24.413329,55.97333 27.601329,67.37466 3.18667,11.40267 5.75334,46.56 -2.616,62.25334 h 7.02534 c 4.72133,-19.47334 2.19733,-53.476 -0.55734,-63.32934 -2.50666,-8.96266 -19.08266,-56.66266 -28.271996,-68.72266 -4.681333,-6.144 -7.525238,-13.97388 -16.121238,-14.18588 5.514666,-5.076 19.954652,-12.98001 25.829314,-13.52534 2.46533,0.756 3.54392,2.00855 8.85059,7.50455 11.62933,12.04934 26.10267,27.044 38.7,29.08667 11.31467,1.83467 53.65866,2.03333 71.33733,2.03333 36.70667,-10e-4 83.14267,-0.212 90.484,-1.488 9.836,-1.71066 8.83333,-11.29333 7.264,-19.14 -0.28533,-1.428 -0.16842,-3.70661 0.39691,-4.73861 4.196,0.912 15.388,6.35524 26.63646,11.28322 11.325,4.96151 11.20129,50.33806 9.77329,87.46339 l -0.0173,0.47333 0.092,0.46534 c 1.336,6.67733 1.248,32.98666 0.988,46.82 h 3.808 c 0,0 1.21867,-37.14267 -0.87333,-47.60534"
       style="fill:#000000;fill-opacity:1;fill-rule:nonzero;stroke:none;stroke-width:1.33333"
       id="path13507"
       sodipodi:nodetypes="cscccscsccccccccsccccscccccc" /><path
       d="m 241.23053,325.91787 c 33.85866,-0.57867 67.732,-0.288 101.57999,0.86 -33.83066,-1.588 -67.70666,-2.32133 -101.59333,-2.184 -16.944,0.0347 -33.89066,0.37333 -50.83599,0.912 -16.94667,0.54667 -33.88934,1.35067 -50.84267,2.52667 16.93733,-1.396 33.872,-2.42134 50.816,-3.188 16.944,-0.76 33.89466,-1.32 50.848,-1.57334 33.90533,-0.57866 67.82266,-0.288 101.71599,0.86134 -37.22266,-1.72667 -74.49866,-2.436 -111.78799,-2.14267 -18.64534,0.212 -37.29467,0.648 -55.94667,1.43333 -9.32666,0.392 -18.652,0.85734 -27.98533,1.45067 -7.512,0.47733 -19.64667,1.12267 -29.084,1.83733 1.48533,4.47067 2.59733,8.15467 3.028,10.30533 0.424,2.12667 0.95333,5.12667 1.5,8.55067 8.45333,-0.90667 17.19467,-1.648 25.82933,-2.30667 9.18,-0.70533 18.384,-1.28533 27.59334,-1.792 18.42133,-1.016 36.87733,-1.69066 55.34266,-2.14133 36.936,-0.77333 73.91467,-0.55333 110.868,0.67733 -33.612,-1.58 -67.268,-2.308 -100.91733,-2.17333 -16.82534,0.032 -33.64667,0.368 -50.45733,0.90133 -16.808,0.54134 -33.61067,1.33867 -50.356,2.49867 16.72933,-1.38 33.524,-2.39867 50.33066,-3.16 16.808,-0.75333 33.63333,-1.31067 50.468,-1.564 33.668,-0.576 67.36533,-0.288 101.03866,0.852 -33.65599,-1.58133 -67.35599,-2.31067 -101.05199,-2.176 -16.84934,0.0333 -33.696,0.37067 -50.53333,0.904 -16.836,0.54267 -33.66667,1.34 -50.45334,2.50533 16.77067,-1.38533 33.59334,-2.404 50.428,-3.16666 16.83467,-0.75467 33.68533,-1.312 50.544,-1.56667 33.716,-0.576 67.456,-0.288 101.17333,0.85467 -33.69866,-1.58267 -67.444,-2.31333 -101.188,-2.17733 -16.872,0.0333 -33.744,0.37066 -50.60799,0.90533 -16.864,0.54266 -33.72267,1.34266 -50.55067,2.51066 16.812,-1.388 33.66267,-2.408 50.524,-3.17199 16.86266,-0.756 33.73866,-1.31467 50.62133,-1.568 33.76267,-0.57734 67.548,-0.288 101.30933,0.856 -33.744,-1.58534 -67.532,-2.316 -101.324,-2.18 -16.896,0.0333 -33.792,0.372 -50.68399,0.908 -16.892,0.544 -33.77734,1.34533 -50.648,2.516 16.85333,-1.39067 33.732,-2.412 50.62133,-3.17734 16.89066,-0.75733 33.79066,-1.316 50.696,-1.56933 33.812,-0.57867 67.64,-0.288 101.44533,0.85733 -33.78667,-1.58666 -67.62,-2.31866 -101.45867,-2.18133 -16.92,0.0333 -33.84133,0.372 -50.75999,0.90933 -16.92,0.54534 -33.83334,1.348 -50.74667,2.52134 16.896,-1.39334 33.80267,-2.41734 50.72,-3.18267 16.91733,-0.75867 33.84266,-1.31733 50.772,-1.572"
       style="opacity:0.100006;fill:#000000;fill-opacity:1;fill-rule:nonzero;stroke:none;stroke-width:1.33333"
       id="path13517" /><path
       d="m 230.33013,291.54267 c 34.016,-0.42667 68.04266,0.0133 102.04133,1.304 -33.97867,-1.732 -68.00667,-2.612 -102.04933,-2.628 -17.02134,-0.0413 -34.04533,0.22 -51.072,0.68 -17.02667,0.468 -34.04933,1.192 -51.08533,2.288 17.02133,-1.316 34.03733,-2.26133 51.06266,-2.94933 17.02534,-0.68134 34.05467,-1.164 51.08667,-1.34267 34.06266,-0.42533 68.13333,0.0147 102.17466,1.308 -37.384,-1.88533 -74.82666,-2.75867 -112.28666,-2.63333 -18.73067,0.12666 -37.46667,0.47866 -56.20667,1.176 -9.37066,0.348 -18.74133,0.76933 -28.12,1.32 -7.86533,0.45866 -20.78133,1.152 -30.41466,1.88 1.99333,5.20666 4.51066,11.87866 6.952,18.564 8.08933,-0.804 16.412,-1.46667 24.644,-2.052 9.22666,-0.66134 18.476,-1.19867 27.732,-1.66267 18.51333,-0.93067 37.05733,-1.52 55.61199,-1.88667 37.112,-0.60666 74.26134,-0.22533 111.38267,1.164 -33.76267,-1.724 -67.57333,-2.6 -101.38,-2.616 -16.904,-0.0427 -33.80533,0.21734 -50.696,0.672 -16.88933,0.46267 -33.77333,1.18134 -50.604,2.26267 16.81467,-1.30133 33.692,-2.24 50.58134,-2.924 16.88933,-0.676 33.79599,-1.156 50.71066,-1.33467 33.828,-0.424 67.68,0.0107 101.50533,1.29467 -33.80666,-1.72533 -67.66,-2.60133 -101.51333,-2.61733 -16.92667,-0.044 -33.85333,0.21733 -50.77066,0.67333 -16.91734,0.464 -33.82934,1.18267 -50.70134,2.26667 16.856,-1.304 33.76134,-2.244 50.67734,-2.928 16.91733,-0.67734 33.84933,-1.15867 50.78666,-1.336 33.87467,-0.42534 67.77067,0.0107 101.63867,1.296 -33.84934,-1.72667 -67.74667,-2.604 -101.64667,-2.62 -16.95067,-0.0427 -33.90133,0.21733 -50.84666,0.67466 -16.944,0.46534 -33.884,1.18667 -50.79734,2.27334 16.89734,-1.30667 33.83067,-2.248 50.77467,-2.93467 16.944,-0.67733 33.9,-1.15867 50.86133,-1.33733 33.92133,-0.42534 67.86,0.012 101.772,1.3 -33.892,-1.72934 -67.83333,-2.608 -101.78,-2.624 -16.97467,-0.0413 -33.95066,0.21866 -50.92266,0.67733 -16.97067,0.46533 -33.93867,1.188 -50.89334,2.27733 16.93867,-1.30933 33.9,-2.252 50.87067,-2.93866 16.972,-0.67867 33.952,-1.16134 50.936,-1.33867 33.96933,-0.42667 67.952,0.012 101.908,1.30133 -33.936,-1.73066 -67.92134,-2.61066 -101.916,-2.62533 -16.99734,-0.0427 -33.99733,0.21867 -50.996,0.67867 -17,0.46666 -33.99467,1.18933 -50.99067,2.28266 16.98,-1.31333 33.96934,-2.25733 50.96667,-2.94533 16.99867,-0.68 34.004,-1.16133 51.012,-1.34"
       style="opacity:0.100006;fill:#000000;fill-opacity:1;fill-rule:nonzero;stroke:none;stroke-width:1.33333"
       id="path13533" /><path
       d="m 144.87493,379.21027 c 67.33733,-2.924 134.80666,-4.37867 202.26399,-4.96134 -67.46133,-0.3 -134.94799,0.272 -202.36532,2.316 67.38533,-2.92666 134.87599,-4.38 202.36132,-4.96266 -67.48933,-0.3 -134.99733,0.27066 -202.46132,2.31733 67.43199,-2.928 134.94399,-4.38267 202.45732,-4.96533 -67.51733,-0.3 -135.04666,0.272 -202.55866,2.31866 67.48,-2.92933 135.012,-4.38266 202.55466,-4.96533 -67.54666,-0.3 -135.09733,0.27067 -202.65599,2.32 67.528,-2.93067 135.08133,-4.38533 202.65066,-4.968 -67.57333,-0.3 -135.14533,0.272 -202.75066,2.32267 67.57466,-2.93334 135.148,-4.38667 202.74666,-4.97067 -37.13733,-0.17867 -74.27866,-0.048 -111.42533,0.396 -34.72667,0.46267 -75.05066,1.11733 -110.608,2.368 0.552,5.33467 0.84134,10.02533 0.592,12.64933 -0.13733,1.43734 -0.43733,3.57867 -0.828,6.08267 35.44134,-1.71867 76.24533,-2.844 111.172,-3.764 37.02933,-0.92533 74.07333,-1.54 111.12266,-1.84667 -67.43199,-0.3 -134.89866,0.27067 -202.26799,2.31334"
       style="opacity:0.100006;fill:#000000;fill-opacity:1;fill-rule:nonzero;stroke:none;stroke-width:1.33333"
       id="path13549" /><path
       d="m 98.261331,276.81387 c 0.414667,-0.232 0.829333,-0.464 1.272,-0.69333 1.101329,-0.58267 2.263999,-1.14667 3.441329,-1.69867 2.36134,-1.10267 4.832,-2.12267 7.33467,-3.09333 5.01867,-1.936 13.49867,-4.52934 17.91067,-5.792 -4.35467,0.80133 -12.19467,2.688 -16.964,4.012 -4.75067,1.324 -9.488,2.84666 -13.798669,4.68133 4.121329,-2.23467 8.735999,-4.184 13.389329,-5.94 4.672,-1.756 11.22267,-3.724 15.276,-4.89333 -4.404,0.81333 -10.83733,2.28533 -15.68666,3.63466 -4.83467,1.35334 -9.648,2.89867 -14.137336,4.81867 4.299996,-2.32 8.990666,-4.29333 13.727996,-6.07733 4.752,-1.78267 9.896,-3.33467 14,-4.51467 -8.87066,1.66667 -19.50266,4.25333 -28.886662,8.212 9.016002,-4.76267 18.524002,-7.95067 26.789332,-10.35067 -8.97867,1.69734 -18.24133,3.86267 -27.949332,7.97067 9.341332,-4.91333 17.478662,-7.68 25.852002,-10.11067 -4.552,0.848 -6.76534,1.072 -11.852,2.5 -5.09067,1.44 -10.132002,3.05467 -15.158669,5.23067 4.837333,-2.576 9.755999,-4.61867 14.749329,-6.49067 4.98934,-1.85866 5.91334,-2.164 10.16534,-3.37866 -4.60134,0.85866 -5.40934,0.668 -10.57467,2.12 -5.176,1.47066 -10.293332,3.108 -15.498666,5.368 5.016,-2.66 10.010666,-4.72534 15.089336,-6.62667 5.06933,-1.88533 4.58533,-1.77333 8.88666,-3 -5.11733,0.94667 -5.08666,0.516 -10.852,2.19067 -2.88266,0.84266 -5.763996,1.75066 -8.661329,2.812 -1.449333,0.53333 -2.901333,1.08666 -4.374667,1.70933 -0.733333,0.30533 -1.481333,0.636 -2.236,0.98 l -1.165333,0.556 c -0.377333,0.192 -0.652,0.32267 -1.157333,0.604 4.2,4.71333 8.26,10.23333 11.069333,15.26"
       style="opacity:0.100006;fill:#000000;fill-opacity:1;fill-rule:nonzero;stroke:none;stroke-width:1.33333"
       id="path13565" /><path
       id="path13637"
       style="opacity:0.199997;fill:#000000;fill-opacity:1;fill-rule:nonzero;stroke:none;stroke-width:1.33333"
       d="m 99.868264,381.65653 c 4.882666,-2.092 11.857336,-3.488 6.974666,4.53334 -2.40267,3.94666 -6.492,9.328 -10.027999,13.77733 h 40.821329 c 2.94534,-23.824 -7.584,-60.61733 -9.868,-72.36666 -2.44133,-12.55467 -27.20266,-46.384 -27.20266,-46.384 -4.882669,-9.416 1.39466,19.53066 3.836,48.476 2.44133,28.94666 -9.416002,54.05599 -4.533336,51.96399 m 79.883196,-174.5168 c 0,0 5.42584,-2.8257 8.47456,-6.5456 1.9874,-2.42493 1.76106,-6.03224 2.50507,-6.72311 1.88533,-1.75067 3.12868,-1.62949 4.34068,-0.68682 1.212,0.94266 6.26114,6.56183 7.87714,9.1205 1.616,2.55866 5.26146,5.73603 5.26146,5.73603 0,0 1.66057,3.49247 5.17566,7.31965 11.98852,13.05294 17.31526,16.37805 35.54391,25.28184 0,0 -16.32136,-4.23406 -32.38968,-15.48342 -23.93534,-16.75702 -29.92013,-9.16876 -30.59346,-7.55276 -0.67333,1.616 11.17833,23.36241 32.28553,37.19514 0,0 -26.72145,-18.63589 -38.01536,-31.97283 0,0 -3.93612,0.34457 -8.18548,1.75251 -6.28869,2.08364 -11.51678,4.91936 -17.57243,7.61157 -8.41443,3.74088 -13.66991,6.03223 -21.53847,9.66523 -4.2012,1.93974 -8.02865,3.77111 -13.75209,6.5316 -1.54008,-0.42834 -6.1982,0.5083 -8.06217,1.33361 -5.87387,2.60079 -10.70854,3.77634 -17.060468,7.49794 -2.319012,1.35871 -3.78056,3.99354 -4.303227,6.50554 -0.402666,1.93334 -0.239664,3.14113 -1.695664,4.27313 -1.541334,1.19867 -4.407172,3.54229 -5.907172,4.79162 -3.736,3.11067 -9.319697,12.69037 -12.311185,16.52394 -4.925526,6.31203 -8.073052,20.54504 -9.903719,27.62504 -4.041333,15.62133 -16.571296,83.02672 -16.571296,83.02672 H 19.646933 c 0,0 21.472671,-93.87907 24.156024,-100.62445 2.878204,-7.2352 7.620879,-16.58856 10.79089,-21.03445 6.403946,-8.98142 5.182959,-9.78843 15.244464,-18.01327 3.179142,-2.59881 5.168118,-3.95053 7.477164,-6.57011 7.642218,-8.66999 15.747607,-12.81787 26.403195,-15.45431 1.98487,-0.3171 5.06854,0.28008 5.08705,0.27307 5.05197,-1.91159 19.00549,-8.36823 23.35844,-10.07986 12.85959,-5.05653 30.37681,-11.65189 33.30461,-13.0001 5.17955,-2.3851 14.28269,-8.32359 14.28269,-8.32359 z m 95.83316,29.51835 c 1.98667,-2.19733 2.196,-3.244 2.196,-3.244 l 20.80431,8.88246 c 0,0 16.53066,8.99866 23.01733,9.208 0,0 -36.616,0.94133 -38.816,3.03333 -1.73067,1.64667 -5.756,2.13733 -8.05333,2.36533 -1.43734,0.14267 -4.74315,1.01495 -5.40848,-0.47041 -0.79333,-1.768 0.62687,-4.75905 1.04377,-6.48602 1.61332,-6.68303 1.92416,-8.95314 1.92416,-8.95314 -6.39648,1.61938 -10.5909,1.6076 -17.1505,1.10647 7.62983,-1.07998 13.71005,-1.75218 20.44274,-5.44202 z" /></g><g
     inkscape:groupmode="layer"
     id="layer2"
     inkscape:label="Pin"
     style="display:none"><path
       d="m 148.87266,260.44894 c 0,0 -8.87066,6.916 -8.54,9.91733 0.33067,3.00133 0.91334,4.30667 -1.95066,9.13467 -2.864,4.82933 -2.93334,5.612 -1.84934,7.04666 1.08267,1.436 5.70534,-2.87066 8.004,-5.21866 2.29734,-2.34934 5.89467,-5.48134 8.864,-5.22 2.97067,0.26 4.25334,-9.65734 4.40534,-12.78934 0.152,-3.132 -4.14267,-6.524 -8.93334,-2.87066"
       style="fill:#c7b791;fill-opacity:1;fill-rule:nonzero;stroke:none;stroke-width:1.33333"
       id="path13591" /><path
       d="m 149.83266,261.6436 c -4.36533,3.40667 -8.11333,7.45467 -8.02133,8.664 l 0.108,0.88667 c 0.356,2.812 0.42667,4.62267 -2.24267,9.124 -2.00266,3.376 -2.38533,4.36267 -2.24533,4.91733 0.91867,-0.41066 2.99733,-1.90266 6.00533,-4.97733 3.94134,-4.03067 7.20267,-5.87867 9.99334,-5.62533 1.1,-0.392 2.64266,-6.40534 2.88933,-11.48667 0.044,-0.89467 -0.55333,-1.848 -1.48667,-2.372 -1.408,-0.79067 -3.232,-0.47467 -5,0.86933 m -12.13333,24.068 h 0.0133 z m -0.39333,2.60934 c -0.12534,0 -0.22534,-0.0107 -0.30534,-0.0187 -0.65866,-0.068 -1.24,-0.39333 -1.636,-0.91867 -1.776,-2.352 -1.03333,-4.052 1.72267,-8.7 2.31333,-3.9 2.16933,-5.04266 1.88,-7.31866 -0.0373,-0.29734 -0.0773,-0.60667 -0.11333,-0.93734 -0.376,-3.416 6.20533,-8.94933 9.052,-11.168 0.004,-0.003 0.008,-0.007 0.012,-0.009 3.85866,-2.944 7.04533,-1.70267 8.23866,-1.03333 2.00534,1.128 3.236,3.19866 3.13467,5.276 -0.0293,0.59333 -0.728,14.544 -5.92,14.092 -1.052,-0.0893 -3.42933,0.412 -7.73467,4.81466 -5.28933,5.40667 -7.44533,5.92134 -8.33066,5.92134"
       style="fill:#000000;fill-opacity:1;fill-rule:nonzero;stroke:none;stroke-width:1.33333"
       id="path13595" /><path
       d="m 148.87266,260.44894 c 0,0 -8.87066,6.916 -8.54,9.91733 0.33067,3.00133 0.91334,4.30667 -1.95066,9.13467 -2.864,4.82933 -2.93334,5.612 -1.84934,7.04666 1.25334,1.66134 5.91734,-3.18266 6.72667,-3.972 -0.88933,0.592 -2.112,0.86134 -3.07733,1.31867 -0.57734,-0.904 0.29066,-2.13067 0.76933,-2.872 1.27867,-1.97867 2.24933,-4.01067 3.112,-6.18267 0.30267,-0.76133 1.09467,-2.06666 0.88533,-2.928 -0.23733,-0.97333 -1.34933,-1.19866 -2.056,-1.69466 0.75334,-1.71467 2.72934,-3.64667 4.00267,-5.01867 1.176,-1.268 2.38,-2.02933 3.77867,-2.96133 0.78266,-0.52134 1.38266,-1.13334 2.24133,-1.496 0.42667,-0.18134 2.51467,-0.528 2.65467,-0.97467 0.16266,-0.51867 -1.14267,-0.73467 -1.564,-0.812 -1.83867,-0.33867 -3.69067,0.37067 -5.13334,1.49467"
       style="opacity:0.199997;fill:#000000;fill-opacity:1;fill-rule:nonzero;stroke:none;stroke-width:1.33333"
       id="path13605" /></g></svg>
