<?xml version="1.0" encoding="UTF-8" standalone="no"?>
<!-- Created with Inkscape (http://www.inkscape.org/) -->

<svg
   width="400"
   height="400"
   viewBox="0 0 400 400"
   version="1.1"
   id="svg1"
   xml:space="preserve"
   inkscape:version="1.3.2 (091e20e, 2023-11-25)"
   sodipodi:docname="FerengiLogo.svg"
   xmlns:inkscape="http://www.inkscape.org/namespaces/inkscape"
   xmlns:sodipodi="http://sodipodi.sourceforge.net/DTD/sodipodi-0.dtd"
   xmlns="http://www.w3.org/2000/svg"
   xmlns:svg="http://www.w3.org/2000/svg"><sodipodi:namedview
     id="namedview1"
     pagecolor="#ffffff"
     bordercolor="#666666"
     borderopacity="1.0"
     inkscape:showpageshadow="2"
     inkscape:pageopacity="0.0"
     inkscape:pagecheckerboard="0"
     inkscape:deskcolor="#d1d1d1"
     inkscape:document-units="px"
     showguides="true"
     inkscape:zoom="1.9775"
     inkscape:cx="199.74716"
     inkscape:cy="200"
     inkscape:window-width="1856"
     inkscape:window-height="1004"
     inkscape:window-x="2259"
     inkscape:window-y="270"
     inkscape:window-maximized="0"
     inkscape:current-layer="layer1" /><defs
     id="defs1" /><g
     inkscape:label="Logo"
     inkscape:groupmode="layer"
     id="layer1"
     style="stroke:#000000;stroke-opacity:1;stroke-width:1.2;stroke-dasharray:none"><path
       id="path15"
       style="fill:#0aaa71;fill-opacity:1;stroke:#000000;stroke-width:1.2;stroke-linecap:butt;stroke-linejoin:miter;stroke-opacity:1;stroke-dasharray:none"
       d="m 327.27318,348.87628 h 4.06984 c 3.0146,5.40136 4.537,9.25724 14.31977,13.5661 l 9.94849,-17.33447 h 20.65063 l -26.98149,27.43369 c -11.71551,-3.15871 -19.18049,-11.06487 -22.00724,-23.66532 z m -5.08004,-3.76837 h -54.76157 c 0,25.02193 23.81605,48.38579 47.02917,48.38579 h 49.89313 l 25.17268,-43.56228 h -5.27572 l -28.63955,28.7903 c -19.54525,-0.20099 -32.82052,-16.66301 -33.41814,-33.61381 z m 5.08004,-6.33618 h 4.06984 c 3.0146,-5.40136 4.537,-9.25725 14.31977,-13.56611 l 9.94849,17.33447 h 20.65063 L 349.28043,315.1064 c -11.71551,3.15871 -19.1805,11.06487 -22.00725,23.66533 z m -5.08004,3.76836 h -54.76157 c 0,-25.02193 23.81605,-48.38579 47.02917,-48.38579 h 49.89314 l 25.17267,43.56229 h -5.27571 l -28.63956,-28.79031 c -19.54525,0.20098 -32.82051,16.66301 -33.41814,33.61381 z m 28.17324,1.28391 a 7.4915067,7.4915067 0 0 1 -7.4915,7.49151 7.4915067,7.4915067 0 0 1 -7.49151,-7.49151 7.4915067,7.4915067 0 0 1 7.49151,-7.49151 7.4915067,7.4915067 0 0 1 7.4915,7.49151 z" /></g></svg>
