<?xml version="1.0" encoding="UTF-8" standalone="no"?>
<!-- Generator: Adobe Illustrator 28.2.0, SVG Export Plug-In . SVG Version: 6.00 Build 0)  -->

<svg
   version="1.1"
   id="Body_Ferengi_Military_1"
   x="0px"
   y="0px"
   viewBox="0 0 400 400"
   enable-background="new 0 0 300 300"
   xml:space="preserve"
   sodipodi:docname="FerengiUniform.svg"
   width="400"
   height="400"
   inkscape:version="1.3.2 (091e20e, 2023-11-25)"
   xmlns:inkscape="http://www.inkscape.org/namespaces/inkscape"
   xmlns:sodipodi="http://sodipodi.sourceforge.net/DTD/sodipodi-0.dtd"
   xmlns="http://www.w3.org/2000/svg"
   xmlns:svg="http://www.w3.org/2000/svg"><defs
   id="defs349">
	
	
	

		
		
	
		
		
	
			
			
		
	
	
	
	

		
		
	
	
		
	
		
	
		
	
		
	
		
	
		
	
		
	
		
	
		
	
		
	
		
	
		
	
		
	
		
	
		
	
		
	
	
		
	
		
	
		
	
		
	
		
	
		
	
		
	
		
	
		
	
		
	
		
	
		
	
		
	
		
	
		
	
		
	
		
	
		
	
		
	
		
	
		
	
		
	
		
	
		
	
		
	
		
	
		
	
		
	
		
	
		
	
		
	
		
	
		
	
		
	
		
	
		
	
		
	
		
	
		
	
		
	
		
	
		
	
		
	
		
	
		
	
		
	
		
	
		
	
		
	
		
	
		
	
		
	
		
	
		
	
		
	
		
	
		
	
		
	
		
	
		
	
		
	
		
	
		
	
	
		
	
		
	
		
	
		
	
		
	
		
	
		
	
		
	
		
	
		
	
		
	
		
	
		
	
		
	
		
	
		
	
		
	
		
	
		
	
		
	
		
	
		
	
		
</defs><sodipodi:namedview
   id="namedview349"
   pagecolor="#ffffff"
   bordercolor="#666666"
   borderopacity="1.0"
   inkscape:showpageshadow="2"
   inkscape:pageopacity="0.0"
   inkscape:pagecheckerboard="0"
   inkscape:deskcolor="#d1d1d1"
   inkscape:zoom="2.6525"
   inkscape:cx="199.8115"
   inkscape:cy="200"
   inkscape:window-width="2224"
   inkscape:window-height="1274"
   inkscape:window-x="2129"
   inkscape:window-y="25"
   inkscape:window-maximized="0"
   inkscape:current-layer="layer6" />































































<g
   inkscape:groupmode="layer"
   id="layer7"
   inkscape:label="Neck"
   sodipodi:insensitive="true"
   style="display:none"><path
     fill="#cd976d"
     d="M 213.63199,151.29466 202.18666,198.792 c 0,0 2.66533,26.90666 11.70267,33.54399 9.03733,6.63734 35.33333,54.396 46.20666,55.808 l 3.672,3.672 2.824,-2.824 1.696,-43.244 3.81334,-10.87333 18.428,-23.08667 z"
     id="path215"
     style="stroke-width:1.33333" /><path
     opacity="0.2"
     d="m 202.18666,198.792 c 0,0 10.76267,21.21999 15.732,26.71333 4.96933,5.49333 32.69467,1.83066 40.54133,4.18533 6.33867,1.90133 13.09867,2.66667 15.47067,2.89067 L 290.52799,211.78799 213.63066,151.296 Z"
     id="path216"
     style="stroke-width:1.33333" /><path
     d="m 211.64533,149.528 c -1.01067,4.99733 -5.20667,23.99066 -6.15467,28.98933 -0.776,4.09333 -1.59733,8.17867 -2.532,12.23333 -0.432,1.87334 -0.908,3.73067 -1.38533,5.59067 -0.15867,0.62133 -0.86667,1.87733 -0.768,2.49333 0.028,0.17067 0.90266,2.4 1.18666,1.95067 3.43067,-5.42933 4.39467,-14.29467 6.204,-20.536 1.29067,-4.45067 5.792,-22.89733 7.28267,-27.316 0,10e-4 -3.83333,-3.40533 -3.83333,-3.40533 z"
     id="path217"
     style="stroke-width:1.33333" /><path
     d="m 293.27599,213.31866 c -2.83733,2.044 -16.28266,19.912 -18.592,22.53067 -1.87866,2.12933 -4.416,10.85066 -7.52933,10.94666 -2.104,0.0653 -1.74133,-3.72533 -1.19333,-5.332 0.26266,-0.76933 21.288,-30.90933 21.288,-30.90933 z"
     id="path218"
     style="stroke-width:1.33333" /></g><g
   inkscape:groupmode="layer"
   id="layer6"
   inkscape:label="Uniform"><path
     fill="#7d7d7d"
     d="m 280.17599,237.63599 c -2.23066,-0.768 -13.076,8.57467 -16.29333,9.47867 -8.63733,2.42533 -19.36133,2.916 -28.24667,1.93067 -8.26133,-0.91734 -16.58,-8.36 -24.01733,-12.04 -9.58267,-4.74134 -18.85466,-7.48934 -29.30533,-9.76667 -8.76267,-1.90933 -20.73467,-7.94533 -29.48933,-5.22267 -4.62134,1.43734 -9.6,5.52267 -13.82,7.908 -8.41734,4.75734 -16.83334,9.51467 -25.25067,14.272 l -42.245332,23.068 c 0,0 -26.269332,11.628 -37.687999,44.568 -11.418666,32.93733 -20.201333,88.168 -20.201333,88.168 H 385.06132 c 0,0 -1.916,-45.32933 -6.29733,-70.244 -4.38133,-24.91466 -11.49867,-42.71066 -18.344,-49.55466 -6.844,-6.844 -35.592,-24.64 -43.80533,-28.74667 -8.21333,-4.10667 -36.436,-13.81867 -36.43867,-13.81867 z"
     id="path1"
     style="stroke-width:1.33333" /><path
     d="m 264.01999,399.99999 c 0,0 -2.764,0 -2.76533,0 -0.0147,0 -0.48933,-14.468 -0.524,-15.292 -0.22,-5.25067 -0.41733,-10.512 -0.78,-15.75467 -0.08,-1.15066 -0.86267,-2.67466 0.188,-3.60933 2.82,-2.50933 2.99733,12.22933 3.084,13.956 0.348,6.896 0.612,13.796 0.79733,20.7 z"
     id="path2"
     style="stroke-width:1.33333;fill:#000000;fill-opacity:1" /><path
     opacity="0.2"
     d="m 265.12933,399.99999 c 0,0 14.05466,-5.164 16.68933,-11.60533 2.63467,-6.44134 2.928,-9.36934 -0.58533,-12.59067 0,0 -10.54,2.928 -18.73867,2.928 -8.19867,0 -22.54533,0.87867 -25.76533,-4.392 -3.22,-5.27067 9.66266,-14.05467 9.66266,-14.05467 l 39.23467,4.09867 11.12667,14.932 -10.272,20.684 z"
     id="path3"
     style="stroke-width:1.33333;fill:#000000;fill-opacity:1" /><path
     d="m 313.14666,272.30266 c 0,0 44.79733,13.61467 44.79733,24.156 0,0 11.41867,27.66933 12.29733,42.60133 0.87867,14.932 4.392,60.94133 4.392,60.94133 h 10.628 c 0,0 -3.16133,-62.69733 -8.87066,-79.38666 -5.70934,-16.68933 -5.15067,-27.68 -15.97067,-40.412 -10.82,-12.73067 -47.892,-30.472 -47.892,-30.472 z"
     id="path4"
     style="stroke-width:1.33333;fill:#000000;fill-opacity:1" /><ellipse
     transform="rotate(-40.701351)"
     fill="#0daa72"
     cx="84.530411"
     cy="453.35568"
     rx="1.9466181"
     ry="3.1705873"
     id="ellipse4"
     style="stroke-width:1.3333" /><ellipse
     transform="rotate(-9.7995411)"
     fill="#08a96f"
     cx="310.64264"
     cy="345.45007"
     rx="1.562652"
     ry="3.4173009"
     id="ellipse5"
     style="stroke-width:1.33332" /><ellipse
     transform="rotate(-5.353686)"
     fill="#00a66b"
     cx="335.29828"
     cy="328.75531"
     rx="1.0052952"
     ry="3.1065488"
     id="ellipse6"
     style="stroke-width:1.33328" /><ellipse
     transform="rotate(-1.5758671)"
     fill="#9eddc7"
     cx="360.27765"
     cy="305.22922"
     rx="1.0119779"
     ry="1.8439598"
     id="ellipse7"
     style="stroke-width:1.3333" /><ellipse
     transform="rotate(-88.103254)"
     fill="#00a66b"
     cx="-291.48959"
     cy="374.14603"
     rx="3.2534893"
     ry="1.7307495"
     id="ellipse8"
     style="stroke-width:1.3334" /><ellipse
     transform="rotate(-12.796648)"
     fill="#00a66b"
     cx="291.87833"
     cy="376.78723"
     rx="1.1880459"
     ry="2.5734327"
     id="ellipse9"
     style="stroke-width:1.33338" /><ellipse
     transform="rotate(-11.489712)"
     fill="#00a66b"
     cx="298.30627"
     cy="378.31549"
     rx="1.0693763"
     ry="2.7387769"
     id="ellipse10"
     style="stroke-width:1.33339" /><ellipse
     transform="rotate(-12.956394)"
     fill="#00a66b"
     cx="292.60431"
     cy="385.88284"
     rx="0.79463327"
     ry="2.7478845"
     id="ellipse11"
     style="stroke-width:1.33328" /><ellipse
     transform="rotate(-11.472867)"
     fill="#19af7a"
     cx="298.34439"
     cy="385.01889"
     rx="2.2692893"
     ry="3.4492662"
     id="ellipse12"
     style="stroke-width:1.33331" /><ellipse
     transform="rotate(-53.78559)"
     fill="#00a66b"
     cx="-34.390434"
     cy="491.23575"
     rx="2.6892941"
     ry="2.4332979"
     id="ellipse13"
     style="stroke-width:1.33331" /><ellipse
     transform="rotate(-89.123355)"
     fill="#edf9f5"
     cx="-312.12836"
     cy="386.15796"
     rx="2.4280415"
     ry="1.097352"
     id="ellipse14"
     style="stroke-width:1.33336" /><ellipse
     transform="rotate(-2.1891659)"
     fill="#7dd2b4"
     cx="359.69031"
     cy="340.25192"
     rx="1.8093873"
     ry="2.0600615"
     id="ellipse15"
     style="stroke-width:1.33337" /><ellipse
     transform="rotate(-89.037425)"
     fill="#00a66b"
     cx="-319.81757"
     cy="384.6524"
     rx="3.1787975"
     ry="1.0493765"
     id="ellipse16"
     style="stroke-width:1.33339" /><ellipse
     transform="rotate(-73.136118)"
     fill="#00a66b"
     cx="-211.14738"
     cy="453.24707"
     rx="2.8826766"
     ry="1.9680068"
     id="ellipse17"
     style="stroke-width:1.33334" /><ellipse
     transform="rotate(-8.8764135)"
     fill="#26b381"
     cx="321.84872"
     cy="387.85327"
     rx="1.5039643"
     ry="3.0719268"
     id="ellipse18"
     style="stroke-width:1.3333" /><ellipse
     transform="rotate(-17.037856)"
     fill="#00a66b"
     cx="259.69818"
     cy="436.21765"
     rx="2.0559757"
     ry="2.7359674"
     id="ellipse19"
     style="stroke-width:1.33332" /><ellipse
     fill="#00a66b"
     cx="381.02664"
     cy="341.83197"
     rx="1.2186666"
     ry="2.8733332"
     id="ellipse20"
     style="stroke-width:1.33333" /><ellipse
     transform="rotate(-75.728899)"
     fill="#17ae78"
     cx="-244.34061"
     cy="446.69321"
     rx="2.4678974"
     ry="1.3359445"
     id="ellipse21"
     style="stroke-width:1.33328" /><ellipse
     transform="rotate(-1.0371477)"
     fill="#24b280"
     cx="371.4278"
     cy="355.93533"
     rx="2.0999241"
     ry="3.0345569"
     id="ellipse22"
     style="stroke-width:1.33328" /><ellipse
     transform="rotate(-71.421916)"
     fill="#00a66b"
     cx="-219.55708"
     cy="468.59698"
     rx="2.4400249"
     ry="1.6346831"
     id="ellipse23"
     style="stroke-width:1.33335" /><ellipse
     transform="rotate(-0.40679335)"
     fill="#29b483"
     cx="378.4873"
     cy="360.11792"
     rx="1.5147048"
     ry="3.1894135"
     id="ellipse24"
     style="stroke-width:1.33337" /><ellipse
     transform="rotate(-25.417034)"
     fill="#8cd7bc"
     cx="184.73857"
     cy="491.57248"
     rx="1.8813171"
     ry="2.6613104"
     id="ellipse25"
     style="stroke-width:1.33332" /><ellipse
     transform="rotate(-76.066586)"
     fill="#8fd8be"
     cx="-270.5192"
     cy="454.30566"
     rx="3.4187503"
     ry="1.9640481"
     id="ellipse26"
     style="stroke-width:1.33337" /><ellipse
     transform="rotate(-78.954122)"
     fill="#e0f4ed"
     cx="-293.05356"
     cy="445.4278"
     rx="2.1320562"
     ry="0.96402538"
     id="ellipse27"
     style="stroke-width:1.33337" /><ellipse
     transform="rotate(-1.3580631)"
     fill="#a6e0cb"
     cx="368.72455"
     cy="389.13364"
     rx="2.0506275"
     ry="3.7025957"
     id="ellipse28"
     style="stroke-width:1.33331" /><ellipse
     transform="rotate(-87.271781)"
     fill="#1cb07b"
     cx="-361.61227"
     cy="400.7944"
     rx="2.3387449"
     ry="1.0453683"
     id="ellipse29"
     style="stroke-width:1.33338" /><ellipse
     transform="rotate(-9.8456822)"
     fill="#d4f0e6"
     cx="304.16208"
     cy="447.1637"
     rx="1.7040486"
     ry="2.7134109"
     id="ellipse30"
     style="stroke-width:1.33337" /><ellipse
     transform="rotate(-0.10313229)"
     fill="#b2e4d3"
     cx="380.31494"
     cy="389.26453"
     rx="1.0973351"
     ry="2.5880041"
     id="ellipse31"
     style="stroke-width:1.33334" /><ellipse
     transform="rotate(-14.151577)"
     fill="#00a66b"
     cx="269.5997"
     cy="476.26718"
     rx="1.5587434"
     ry="2.9641457"
     id="ellipse32"
     style="stroke-width:1.3334" /><ellipse
     transform="rotate(-6.1136725)"
     fill="#3bba8d"
     cx="338.76562"
     cy="434.44434"
     rx="1.0759864"
     ry="2.1839724"
     id="ellipse33"
     style="stroke-width:1.33332" /><g
     id="g59"
     transform="scale(1.3333333)">
	<path
   fill="#2bb584"
   d="m 229.331,196.526 c -0.24,0.405 -1.523,0.2 -2.86,-0.453 -1.328,-0.649 -2.213,-1.499 -1.984,-1.904 0.23,-0.406 1.495,-0.213 2.834,0.435 1.347,0.652 2.25,1.515 2.01,1.922 z"
   id="path33" />
	<path
   fill="#0aaa71"
   d="m 230.848,192.825 c 0.21,0.466 -0.573,0.617 -1.742,0.34 -1.16,-0.275 -2.264,-0.87 -2.472,-1.33 -0.208,-0.46 0.557,-0.616 1.715,-0.347 1.167,0.271 2.289,0.871 2.499,1.337 z"
   id="path34" />
	<path
   fill="#59c59f"
   d="m 228.227,188.171 c 0.266,-0.394 1.509,-0.182 2.782,0.477 1.281,0.663 2.1,1.524 1.823,1.918 -0.276,0.393 -1.535,0.169 -2.805,-0.495 -1.262,-0.659 -2.065,-1.508 -1.8,-1.9 z"
   id="path35" />
	<path
   fill="#45be93"
   d="m 233.676,186.254 c 0.699,0.596 0.637,1.173 -0.135,1.287 -0.768,0.113 -1.945,-0.276 -2.633,-0.867 -0.686,-0.589 -0.631,-1.161 0.126,-1.28 0.761,-0.119 1.945,0.265 2.642,0.86 z"
   id="path36" />
	<path
   fill="#b2e4d3"
   d="m 233.996,199.975 c 0.388,0.693 -0.41,1.054 -1.772,0.81 -1.351,-0.243 -2.748,-0.991 -3.131,-1.673 -0.383,-0.682 0.389,-1.049 1.735,-0.816 1.356,0.233 2.779,0.986 3.168,1.679 z"
   id="path37" />
	<path
   fill="#00a66b"
   d="m 235.323,196.972 c 0.215,0.496 -0.515,0.684 -1.624,0.421 -1.101,-0.261 -2.161,-0.868 -2.374,-1.358 -0.213,-0.49 0.5,-0.683 1.599,-0.428 1.108,0.257 2.185,0.868 2.399,1.365 z"
   id="path38" />
	<path
   fill="#a1dec8"
   d="m 236.928,194.391 c -0.143,0.359 -1.096,0.255 -2.125,-0.227 -1.024,-0.48 -1.739,-1.156 -1.602,-1.513 0.137,-0.358 1.079,-0.263 2.109,0.216 1.035,0.481 1.761,1.164 1.618,1.524 z"
   id="path39" />
	<path
   fill="#00a66b"
   d="m 236.822,190.084 c 1.174,0.36 2.285,1.24 2.476,1.963 0.19,0.721 -0.613,1.006 -1.785,0.638 -1.165,-0.365 -2.258,-1.237 -2.449,-1.951 -0.191,-0.716 0.593,-1.008 1.758,-0.65 z"
   id="path40" />
	<path
   fill="#c4ebdd"
   d="m 236.177,199.879 c 0.219,-0.371 1.429,-0.161 2.709,0.476 1.288,0.64 2.152,1.465 1.923,1.837 -0.228,0.371 -1.455,0.148 -2.733,-0.493 -1.271,-0.637 -2.118,-1.45 -1.899,-1.82 z"
   id="path41" />
	<path
   fill="#85d4b8"
   d="m 241.397,197.522 c 0.69,0.491 0.694,1.119 0.011,1.401 -0.679,0.28 -1.78,0.11 -2.459,-0.377 -0.678,-0.486 -0.686,-1.107 -0.018,-1.391 0.673,-0.286 1.777,-0.123 2.466,0.367 z"
   id="path42" />
	<path
   fill="#d6f1e7"
   d="m 240.634,193.787 c 0.79,0.004 1.965,0.589 2.621,1.309 0.657,0.721 0.54,1.297 -0.259,1.286 -0.795,-0.011 -1.962,-0.599 -2.61,-1.312 -0.648,-0.714 -0.538,-1.287 0.248,-1.283 z"
   id="path43" />
	<path
   fill="#c7ebde"
   d="m 244.685,204.738 c 0.803,0.677 0.665,1.389 -0.304,1.587 -0.961,0.197 -2.374,-0.189 -3.161,-0.858 -0.785,-0.667 -0.658,-1.371 0.288,-1.576 0.952,-0.205 2.377,0.172 3.177,0.847 z"
   id="path44" />
	<path
   fill="#00a66b"
   d="m 246.839,202.259 c 0.657,0.867 0.159,1.482 -1.102,1.373 -1.251,-0.107 -2.78,-0.886 -3.424,-1.74 -0.643,-0.852 -0.168,-1.467 1.07,-1.373 1.249,0.095 2.8,0.874 3.456,1.74 z"
   id="path45" />
	<path
   fill="#2eb686"
   d="m 246.485,198.138 c 1.012,0.461 1.694,1.274 1.518,1.811 -0.175,0.535 -1.135,0.59 -2.139,0.126 -0.999,-0.461 -1.67,-1.264 -1.503,-1.797 0.168,-0.534 1.117,-0.599 2.124,-0.14 z"
   id="path46" />
	<path
   fill="#00a66b"
   d="m 246.395,194.53 c 1.103,0.072 2.604,0.879 3.345,1.803 0.742,0.925 0.434,1.608 -0.683,1.523 -1.108,-0.084 -2.592,-0.893 -3.321,-1.805 -0.728,-0.912 -0.436,-1.592 0.659,-1.521 z"
   id="path47" />
	<path
   fill="#8cd7bc"
   d="m 251.668,206.733 c 0.414,0.634 -0.206,1.027 -1.377,0.879 -1.162,-0.148 -2.428,-0.774 -2.836,-1.399 -0.408,-0.625 0.192,-1.02 1.348,-0.882 1.165,0.14 2.451,0.768 2.865,1.402 z"
   id="path48" />
	<path
   fill="#00a66b"
   d="m 253.339,204.289 c 0.03,0.538 -0.957,0.607 -2.195,0.158 -1.23,-0.445 -2.247,-1.235 -2.281,-1.767 -0.034,-0.533 0.933,-0.612 2.166,-0.172 1.242,0.443 2.28,1.242 2.31,1.781 z"
   id="path49" />
	<path
   fill="#00a66b"
   d="m 252.016,199.287 c 0.965,0.213 2.017,0.954 2.344,1.655 0.327,0.7 -0.196,1.087 -1.164,0.867 -0.962,-0.219 -2,-0.957 -2.324,-1.649 -0.325,-0.693 0.185,-1.084 1.144,-0.873 z"
   id="path50" />
	<path
   fill="#0daa72"
   d="m 254.195,209.134 c 0.734,0.439 1.013,1.071 0.622,1.409 -0.389,0.337 -1.293,0.253 -2.019,-0.185 -0.723,-0.436 -1,-1.061 -0.619,-1.399 0.383,-0.339 1.285,-0.262 2.016,0.175 z"
   id="path51" />
	<path
   fill="#00a66b"
   d="m 254.714,205.841 c 1.027,0.236 2.149,1.137 2.501,2.008 0.351,0.871 -0.203,1.375 -1.232,1.129 -1.022,-0.245 -2.129,-1.139 -2.478,-2 -0.35,-0.862 0.189,-1.372 1.209,-1.137 z"
   id="path52" />
	<path
   fill="#33b889"
   d="m 254.483,203.287 c 0.271,-0.556 1.529,-0.489 2.817,0.155 1.297,0.649 2.123,1.631 1.838,2.189 -0.283,0.555 -1.558,0.473 -2.841,-0.177 -1.274,-0.646 -2.084,-1.613 -1.814,-2.167 z"
   id="path53" />
	<path
   fill="#e8f7f2"
   d="m 261.493,211.392 c 0.578,0.51 0.44,1.05 -0.305,1.205 -0.74,0.153 -1.799,-0.133 -2.368,-0.639 -0.568,-0.504 -0.437,-1.04 0.294,-1.198 0.736,-0.16 1.802,0.122 2.379,0.632 z"
   id="path54" />
	<path
   fill="#b8e6d6"
   d="m 262.022,207.992 c 0.717,0.38 1.093,1.009 0.837,1.402 -0.254,0.391 -1.038,0.398 -1.748,0.018 -0.708,-0.379 -1.08,-1.002 -0.832,-1.393 0.25,-0.393 1.029,-0.406 1.743,-0.027 z"
   id="path55" />
	<path
   fill="#2bb584"
   d="m 264.247,205.277 c 0.922,0.709 1.074,1.511 0.341,1.786 -0.728,0.273 -2.053,-0.078 -2.959,-0.781 -0.903,-0.7 -1.058,-1.492 -0.345,-1.771 0.717,-0.282 2.044,0.059 2.963,0.766 z"
   id="path56" />
	<path
   fill="#e3f5ef"
   d="m 262.777,214.065 c 0.691,-0.119 1.937,0.43 2.783,1.228 0.848,0.801 0.965,1.542 0.263,1.654 -0.699,0.111 -1.942,-0.444 -2.778,-1.238 -0.834,-0.791 -0.954,-1.526 -0.268,-1.644 z"
   id="path57" />
	<path
   fill="#38ba8c"
   d="m 265.003,213.438 c -0.86,-0.473 -1.251,-1.271 -0.872,-1.778 0.377,-0.505 1.375,-0.529 2.226,-0.055 0.849,0.471 1.236,1.261 0.867,1.766 -0.37,0.507 -1.364,0.538 -2.221,0.067 z"
   id="path58" />
	<path
   fill="#00a66b"
   d="m 265.494,208.148 c 0.68,-0.111 1.912,0.439 2.749,1.232 0.84,0.795 0.958,1.525 0.266,1.628 -0.689,0.103 -1.917,-0.454 -2.745,-1.241 -0.825,-0.785 -0.947,-1.508 -0.27,-1.619 z"
   id="path59" />
</g><path
     d="m 162.944,263.95733 c 0,0 -48.31067,22.83733 -52.70267,25.03333 -4.392,2.196 -7.02667,4.392 -8.344,8.784 0,0 -8.343999,0 -10.101332,3.07467 -1.757334,3.07466 -14.054667,68.51333 -17.568,99.25733 H 13.618666 c 0,0 12.297333,-75.54133 21.96,-93.98667 9.662666,-18.44533 24.594666,-32.5 34.257332,-38.64933 9.662667,-6.14933 34.696002,-18.00667 48.310662,-25.912 13.61467,-7.90533 33.37867,-19.324 33.37867,-19.324 l 19.324,36.45333 z"
     id="path60"
     style="stroke-width:1.33333;fill:#000000;fill-opacity:1" /><g
     id="g128"
     transform="scale(1.3333333)">
	<path
   fill="#00a66b"
   d="m 108.35,172.806 c 0.806,0.336 0.81,1.138 0.011,1.783 -0.791,0.639 -2.067,0.879 -2.853,0.543 -0.782,-0.335 -0.794,-1.119 -0.023,-1.758 0.779,-0.646 2.063,-0.903 2.865,-0.568 z"
   id="path61" />
	<path
   fill="#00a66b"
   d="m 109.011,176.453 c 0.721,-0.271 1.614,-0.11 1.992,0.362 0.378,0.473 0.091,1.073 -0.635,1.338 -0.721,0.264 -1.604,0.098 -1.976,-0.369 -0.372,-0.466 -0.097,-1.061 0.619,-1.331 z"
   id="path62" />
	<path
   fill="#29b483"
   d="m 100.969,174.787 c 1.029,-0.008 1.718,0.562 1.531,1.27 -0.186,0.705 -1.166,1.271 -2.184,1.268 -1.009,-0.003 -1.68,-0.565 -1.507,-1.259 0.176,-0.697 1.139,-1.271 2.16,-1.279 z"
   id="path63" />
	<path
   fill="#47bf94"
   d="m 102.69,177.991 c 0.318,-0.532 1.445,-0.841 2.522,-0.688 1.086,0.155 1.702,0.719 1.369,1.257 -0.331,0.535 -1.473,0.835 -2.545,0.674 -1.063,-0.159 -1.663,-0.714 -1.346,-1.243 z"
   id="path64" />
	<path
   fill="#e3f5ef"
   d="m 107.114,181.823 c -0.043,-0.544 0.848,-1.099 2,-1.239 1.164,-0.142 2.147,0.193 2.186,0.747 0.039,0.553 -0.879,1.108 -2.038,1.239 -1.148,0.13 -2.105,-0.205 -2.148,-0.747 z"
   id="path65" />
	<path
   fill="#38ba8c"
   d="m 114.301,185.38 c -0.755,0.333 -1.872,0.147 -2.491,-0.418 -0.62,-0.566 -0.5,-1.293 0.264,-1.62 0.76,-0.326 1.869,-0.133 2.48,0.428 0.609,0.559 0.497,1.279 -0.253,1.61 z"
   id="path66" />
	<path
   fill="#00a66b"
   d="m 119.396,188.07 c 0.056,0.696 -1.105,1.388 -2.606,1.546 -1.517,0.16 -2.799,-0.285 -2.85,-0.994 -0.051,-0.707 1.145,-1.4 2.657,-1.546 1.496,-0.145 2.743,0.3 2.799,0.994 z"
   id="path67" />
	<path
   fill="#00a66b"
   d="m 96.409,178.262 c 0.986,-0.361 2.183,-0.119 2.664,0.544 0.482,0.664 0.059,1.489 -0.937,1.839 -0.986,0.347 -2.161,0.096 -2.634,-0.557 -0.471,-0.652 -0.069,-1.468 0.907,-1.826 z"
   id="path68" />
	<path
   fill="#00a66b"
   d="m 100.626,181.853 c 0.741,-0.388 1.827,-0.324 2.422,0.146 0.597,0.471 0.467,1.167 -0.286,1.55 -0.747,0.38 -1.823,0.307 -2.407,-0.16 -0.583,-0.465 -0.463,-1.151 0.271,-1.536 z"
   id="path69" />
	<path
   fill="#00a66b"
   d="m 107.565,185.134 c 0.08,0.452 -0.75,0.947 -1.862,1.106 -1.121,0.161 -2.1,-0.08 -2.178,-0.538 -0.079,-0.458 0.772,-0.954 1.891,-1.108 1.11,-0.154 2.069,0.089 2.149,0.54 z"
   id="path70" />
	<path
   fill="#52c29a"
   d="m 112.098,189.655 c -0.697,0.525 -2.162,0.549 -3.274,0.048 -1.118,-0.504 -1.444,-1.341 -0.727,-1.865 0.712,-0.521 2.18,-0.531 3.278,-0.029 1.092,0.5 1.415,1.324 0.723,1.846 z"
   id="path71" />
	<path
   fill="#def3ec"
   d="m 116.354,193.067 c -0.695,0.425 -2.007,0.35 -2.93,-0.171 -0.927,-0.523 -1.102,-1.292 -0.391,-1.714 0.706,-0.419 2.017,-0.334 2.928,0.186 0.907,0.518 1.084,1.277 0.393,1.699 z"
   id="path72" />
	<path
   fill="#21b27e"
   d="m 117.709,196.658 c -0.779,-0.367 -0.658,-1.168 0.265,-1.784 0.916,-0.611 2.273,-0.805 3.035,-0.44 0.759,0.364 0.649,1.151 -0.25,1.763 -0.906,0.618 -2.274,0.827 -3.05,0.461 z"
   id="path73" />
	<path
   fill="#bae7d7"
   d="m 90.101,180.941 c 0.4,-0.434 1.365,-0.581 2.158,-0.326 0.796,0.257 1.109,0.821 0.697,1.257 -0.41,0.433 -1.38,0.572 -2.164,0.313 -0.78,-0.257 -1.089,-0.812 -0.691,-1.244 z"
   id="path74" />
	<path
   fill="#9eddc7"
   d="m 93.983,183.071 c 0.441,-0.399 1.331,-0.514 1.989,-0.253 0.66,0.262 0.83,0.801 0.379,1.201 -0.448,0.398 -1.339,0.505 -1.989,0.242 -0.648,-0.262 -0.817,-0.793 -0.379,-1.19 z"
   id="path75" />
	<path
   fill="#8cd7bc"
   d="m 100.984,186.239 c -0.136,0.596 -1.176,1.068 -2.33,1.053 -1.163,-0.016 -1.995,-0.52 -1.85,-1.124 0.144,-0.602 1.203,-1.07 2.357,-1.046 1.146,0.023 1.958,0.522 1.823,1.117 z"
   id="path76" />
	<path
   fill="#a8e1cd"
   d="m 105.575,190.09 c -0.624,0.721 -2.141,1.036 -3.394,0.697 -1.261,-0.341 -1.762,-1.211 -1.114,-1.937 0.643,-0.72 2.17,-1.019 3.407,-0.673 1.229,0.344 1.721,1.198 1.101,1.913 z"
   id="path77" />
	<path
   fill="#9cdcc5"
   d="m 107.472,193.954 c -0.907,-0.029 -1.506,-0.576 -1.333,-1.219 0.172,-0.641 1.045,-1.129 1.944,-1.093 0.894,0.036 1.483,0.577 1.318,1.211 -0.165,0.637 -1.027,1.13 -1.929,1.101 z"
   id="path78" />
	<path
   fill="#00a66b"
   d="m 113.19,197.717 c -1.032,0.251 -2.269,-0.248 -2.755,-1.116 -0.486,-0.868 -0.032,-1.766 1.006,-2.005 1.031,-0.237 2.249,0.266 2.729,1.122 0.48,0.856 0.045,1.75 -0.98,1.999 z"
   id="path79" />
	<path
   fill="#ade3d0"
   d="m 87.184,183.672 c 0.608,-0.315 1.58,-0.164 2.168,0.341 0.589,0.506 0.564,1.17 -0.054,1.48 -0.614,0.308 -1.579,0.149 -2.159,-0.352 -0.579,-0.5 -0.559,-1.156 0.045,-1.469 z"
   id="path80" />
	<path
   fill="#12ac75"
   d="m 93.609,187.665 c -0.466,0.575 -1.638,0.829 -2.621,0.563 -0.988,-0.267 -1.402,-0.956 -0.921,-1.534 0.478,-0.575 1.656,-0.818 2.63,-0.548 0.969,0.269 1.376,0.947 0.912,1.519 z"
   id="path81" />
	<path
   fill="#42bd91"
   d="m 97.827,189.673 c 0.482,0.478 0.118,1.187 -0.82,1.589 -0.946,0.405 -2.116,0.344 -2.607,-0.14 -0.492,-0.484 -0.112,-1.203 0.843,-1.602 0.946,-0.395 2.101,-0.325 2.584,0.153 z"
   id="path82" />
	<path
   fill="#ade3d0"
   d="m 99.271,194.581 c -0.698,-0.308 -0.732,-0.976 -0.076,-1.49 0.652,-0.51 1.735,-0.671 2.421,-0.364 0.684,0.306 0.721,0.965 0.082,1.476 -0.643,0.514 -1.731,0.685 -2.427,0.378 z"
   id="path83" />
	<path
   fill="#47bf94"
   d="m 105.185,198.6 c -1.344,0.162 -2.587,-0.455 -2.765,-1.379 -0.178,-0.921 0.775,-1.786 2.116,-1.931 1.328,-0.144 2.542,0.471 2.722,1.376 0.181,0.908 -0.742,1.774 -2.073,1.934 z"
   id="path84" />
	<path
   fill="#8fd8be"
   d="m 111.495,199.797 c 0.277,0.502 -0.474,1.13 -1.688,1.406 -1.225,0.278 -2.454,0.092 -2.735,-0.418 -0.281,-0.51 0.495,-1.144 1.724,-1.414 1.219,-0.268 2.422,-0.076 2.699,0.426 z"
   id="path85" />
	<path
   fill="#9cdcc5"
   d="m 80.368,185.825 c -0.266,-0.581 0.333,-1.265 1.346,-1.53 1.024,-0.268 2.081,-0.007 2.35,0.585 0.269,0.592 -0.353,1.281 -1.381,1.538 -1.017,0.253 -2.05,-0.013 -2.315,-0.593 z"
   id="path86" />
	<path
   fill="#5cc6a0"
   d="m 86.471,188.884 c -0.834,0.317 -1.87,0.137 -2.308,-0.405 -0.438,-0.543 -0.108,-1.236 0.733,-1.547 0.835,-0.309 1.858,-0.122 2.29,0.414 0.431,0.535 0.113,1.223 -0.715,1.538 z"
   id="path87" />
	<path
   fill="#00a66b"
   d="m 88.445,192.134 c -0.692,-0.344 -0.617,-1.105 0.165,-1.694 0.776,-0.584 1.952,-0.776 2.631,-0.433 0.676,0.342 0.609,1.09 -0.153,1.675 -0.768,0.59 -1.953,0.795 -2.643,0.452 z"
   id="path88" />
	<path
   fill="#54c39c"
   d="m 96.12,193.336 c 0.563,0.502 0.117,1.324 -1.007,1.84 -1.134,0.521 -2.529,0.536 -3.106,0.026 -0.578,-0.511 -0.108,-1.346 1.04,-1.86 1.137,-0.509 2.508,-0.509 3.073,-0.006 z"
   id="path89" />
	<path
   fill="#47bf94"
   d="m 99.432,198.744 c -0.932,0.338 -2.188,0.06 -2.8,-0.625 -0.613,-0.686 -0.341,-1.512 0.602,-1.842 0.936,-0.327 2.178,-0.041 2.78,0.637 0.6,0.676 0.343,1.494 -0.582,1.83 z"
   id="path90" />
	<path
   fill="#0daa72"
   d="m 103.573,201.73 c -0.811,0.307 -1.889,0.137 -2.403,-0.381 -0.515,-0.519 -0.265,-1.186 0.554,-1.487 0.814,-0.299 1.881,-0.123 2.388,0.39 0.506,0.512 0.266,1.173 -0.539,1.478 z"
   id="path91" />
	<path
   fill="#8ad6bb"
   d="m 80.488,190.815 c -1.188,0.307 -2.468,-0.092 -2.849,-0.893 -0.381,-0.801 0.286,-1.689 1.479,-1.982 1.182,-0.29 2.435,0.114 2.811,0.9 0.376,0.788 -0.265,1.671 -1.441,1.975 z"
   id="path92" />
	<path
   fill="#00a66b"
   d="m 84.173,192.865 c -0.621,0.289 -1.575,0.102 -2.129,-0.42 -0.554,-0.523 -0.492,-1.179 0.137,-1.464 0.625,-0.283 1.574,-0.091 2.12,0.428 0.546,0.518 0.49,1.169 -0.128,1.456 z"
   id="path93" />
	<path
   fill="#a8e1cd"
   d="m 89.481,194.118 c 0.56,0.548 0.048,1.412 -1.152,1.935 -1.213,0.529 -2.671,0.511 -3.245,-0.046 -0.575,-0.558 -0.037,-1.436 1.191,-1.956 1.215,-0.515 2.645,-0.482 3.206,0.067 z"
   id="path94" />
	<path
   fill="#a3dfca"
   d="m 93.639,197.599 c 0.456,0.662 -0.152,1.489 -1.367,1.851 -1.228,0.365 -2.609,0.118 -3.074,-0.556 -0.465,-0.674 0.17,-1.51 1.407,-1.863 1.224,-0.35 2.578,-0.095 3.034,0.568 z"
   id="path95" />
	<path
   fill="#d1efe4"
   d="m 97.672,202.161 c -0.642,0.667 -2.086,0.902 -3.228,0.519 -1.149,-0.386 -1.545,-1.247 -0.881,-1.916 0.659,-0.665 2.109,-0.884 3.236,-0.495 1.12,0.385 1.51,1.23 0.873,1.892 z"
   id="path96" />
	<path
   fill="#b5e5d4"
   d="m 101.945,204.377 c 0.252,0.598 -0.469,1.244 -1.62,1.444 -1.16,0.202 -2.315,-0.125 -2.569,-0.733 -0.254,-0.607 0.49,-1.256 1.653,-1.448 1.153,-0.19 2.284,0.14 2.536,0.737 z"
   id="path97" />
	<path
   fill="#ade3d0"
   d="m 74.518,191.261 c -0.743,0.162 -1.554,-0.249 -1.806,-0.919 -0.252,-0.669 0.15,-1.337 0.894,-1.491 0.74,-0.154 1.54,0.258 1.791,0.919 0.252,0.663 -0.14,1.33 -0.879,1.491 z"
   id="path98" />
	<path
   fill="#ebf8f3"
   d="m 76.992,193.629 c -0.655,-0.062 -1.021,-0.602 -0.817,-1.203 0.203,-0.599 0.895,-1.029 1.544,-0.962 0.646,0.066 1.008,0.6 0.811,1.195 -0.199,0.596 -0.887,1.032 -1.538,0.97 z"
   id="path99" />
	<path
   fill="#0aaa71"
   d="m 81.237,197.015 c -1.021,0.009 -1.798,-0.609 -1.73,-1.377 0.068,-0.765 0.949,-1.382 1.962,-1.381 1.006,0.001 1.767,0.612 1.707,1.368 -0.061,0.758 -0.926,1.381 -1.939,1.39 z"
   id="path100" />
	<path
   fill="#00a66b"
   d="m 86.266,200.076 c -1.135,0.332 -2.456,0.01 -2.94,-0.723 -0.484,-0.732 0.059,-1.588 1.203,-1.907 1.134,-0.317 2.431,0.013 2.906,0.733 0.475,0.721 -0.044,1.568 -1.169,1.897 z"
   id="path101" />
	<path
   fill="#c2eadb"
   d="m 89.344,203.088 c -0.947,-0.01 -1.663,-0.539 -1.595,-1.179 0.068,-0.638 0.89,-1.14 1.831,-1.123 0.934,0.017 1.637,0.541 1.575,1.173 -0.062,0.633 -0.871,1.139 -1.811,1.129 z"
   id="path102" />
	<path
   fill="#00a66b"
   d="m 93.292,206.596 c -0.982,-0.053 -1.641,-0.755 -1.468,-1.564 0.172,-0.805 1.104,-1.404 2.075,-1.342 0.965,0.062 1.612,0.755 1.45,1.551 -0.163,0.799 -1.081,1.408 -2.057,1.355 z"
   id="path103" />
	<path
   fill="#8fd8be"
   d="m 72.795,193.505 c -0.126,0.405 -0.952,0.663 -1.849,0.575 -0.903,-0.089 -1.532,-0.494 -1.4,-0.903 0.131,-0.408 0.969,-0.663 1.866,-0.57 0.891,0.092 1.508,0.494 1.383,0.898 z"
   id="path104" />
	<path
   fill="#00a66b"
   d="m 77.077,196.031 c 0.179,0.537 -0.572,1.13 -1.687,1.324 -1.125,0.196 -2.191,-0.087 -2.371,-0.633 -0.18,-0.546 0.595,-1.141 1.721,-1.328 1.115,-0.186 2.158,0.1 2.337,0.637 z"
   id="path105" />
	<path
   fill="#4ac096"
   d="m 78.83,200.676 c -0.706,-0.009 -1.221,-0.57 -1.148,-1.25 0.073,-0.678 0.703,-1.214 1.404,-1.199 0.698,0.015 1.206,0.57 1.137,1.242 -0.068,0.675 -0.691,1.216 -1.393,1.207 z"
   id="path106" />
	<path
   fill="#00a66b"
   d="m 85.195,202.026 c 0.344,0.615 -0.372,1.354 -1.611,1.653 -1.251,0.303 -2.559,0.043 -2.909,-0.583 -0.35,-0.626 0.395,-1.372 1.653,-1.663 1.244,-0.288 2.523,-0.022 2.867,0.593 z"
   id="path107" />
	<path
   fill="#ccede1"
   d="m 85.948,207.144 c -1.139,-0.289 -1.602,-1.174 -1.031,-1.97 0.567,-0.79 1.934,-1.187 3.051,-0.892 1.11,0.293 1.565,1.16 1.02,1.945 -0.549,0.79 -1.909,1.204 -3.04,0.917 z"
   id="path108" />
	<path
   fill="#00a66b"
   d="m 89.707,209.58 c -0.587,-0.412 -0.477,-1.051 0.244,-1.424 0.716,-0.37 1.761,-0.336 2.339,0.073 0.576,0.408 0.473,1.039 -0.233,1.412 -0.711,0.376 -1.765,0.35 -2.35,-0.061 z"
   id="path109" />
	<path
   fill="#38ba8c"
   d="m 64.383,194.775 c -0.579,-0.42 -0.42,-1.148 0.35,-1.622 0.764,-0.471 1.841,-0.512 2.408,-0.096 0.566,0.415 0.418,1.133 -0.335,1.607 -0.759,0.478 -1.846,0.53 -2.423,0.111 z"
   id="path110" />
	<path
   fill="#75cfaf"
   d="m 71.493,197.606 c -0.493,0.574 -1.767,0.731 -2.849,0.345 -1.089,-0.389 -1.561,-1.176 -1.05,-1.753 0.507,-0.573 1.79,-0.716 2.861,-0.325 1.064,0.389 1.528,1.163 1.038,1.733 z"
   id="path111" />
	<path
   fill="#8ad6bb"
   d="m 71.892,200.833 c -0.632,-0.431 -0.478,-1.188 0.34,-1.685 0.811,-0.494 1.968,-0.544 2.587,-0.117 0.617,0.426 0.474,1.171 -0.324,1.668 -0.805,0.502 -1.972,0.564 -2.603,0.134 z"
   id="path112" />
	<path
   fill="#19af7a"
   d="m 79.129,202.497 c 0.311,0.51 -0.279,1.147 -1.327,1.424 -1.057,0.279 -2.177,0.088 -2.494,-0.431 -0.316,-0.518 0.295,-1.16 1.358,-1.432 1.052,-0.269 2.151,-0.072 2.463,0.439 z"
   id="path113" />
	<path
   fill="#00a66b"
   d="m 81.049,207.617 c -1.234,-0.015 -2.195,-0.721 -2.135,-1.572 0.059,-0.848 1.108,-1.51 2.332,-1.482 1.214,0.028 2.15,0.726 2.101,1.561 -0.049,0.839 -1.074,1.509 -2.298,1.493 z"
   id="path114" />
	<path
   fill="#75cfaf"
   d="m 85.309,210.475 c -0.857,0.064 -1.656,-0.448 -1.779,-1.141 -0.123,-0.692 0.474,-1.297 1.329,-1.353 0.85,-0.055 1.635,0.454 1.76,1.138 0.126,0.685 -0.458,1.293 -1.31,1.356 z"
   id="path115" />
	<path
   fill="#00a66b"
   d="m 65.098,198.033 c -0.253,0.36 -1.098,0.461 -1.889,0.222 -0.795,-0.24 -1.23,-0.729 -0.97,-1.091 0.26,-0.361 1.111,-0.456 1.899,-0.214 0.783,0.24 1.212,0.724 0.96,1.083 z"
   id="path116" />
	<path
   fill="#00a66b"
   d="m 68.902,201.639 c -0.897,0.552 -2.305,0.52 -3.139,-0.077 -0.837,-0.6 -0.768,-1.534 0.149,-2.08 0.908,-0.541 2.304,-0.493 3.121,0.1 0.815,0.592 0.759,1.51 -0.131,2.057 z"
   id="path117" />
	<path
   fill="#45be93"
   d="m 72.782,202.908 c 0.393,0.41 -0.01,1.041 -0.907,1.413 -0.905,0.375 -1.968,0.345 -2.369,-0.071 -0.401,-0.416 0.018,-1.055 0.93,-1.424 0.905,-0.367 1.953,-0.329 2.346,0.082 z"
   id="path118" />
	<path
   fill="#03a76c"
   d="m 73.962,207.91 c -1.048,-0.324 -1.444,-1.172 -0.881,-1.887 0.559,-0.71 1.847,-1.014 2.876,-0.686 1.022,0.326 1.412,1.158 0.873,1.864 -0.543,0.711 -1.826,1.032 -2.868,0.709 z"
   id="path119" />
	<path
   fill="#b5e5d4"
   d="m 80.784,209.017 c 0.591,0.669 0.199,1.518 -0.886,1.901 -1.095,0.386 -2.48,0.152 -3.084,-0.528 -0.605,-0.681 -0.191,-1.541 0.918,-1.916 1.097,-0.372 2.459,-0.127 3.052,0.543 z"
   id="path120" />
	<path
   fill="#94dac1"
   d="m 84.455,212.524 c 0.186,0.399 -0.449,0.857 -1.424,1.023 -0.983,0.167 -1.938,-0.025 -2.126,-0.43 -0.188,-0.405 0.464,-0.865 1.45,-1.027 0.977,-0.16 1.914,0.035 2.1,0.434 z"
   id="path121" />
	<path
   fill="#00a66b"
   d="m 60.437,197.578 c 0.326,0.593 -0.246,1.302 -1.286,1.587 -1.05,0.287 -2.178,0.033 -2.509,-0.571 -0.331,-0.603 0.263,-1.318 1.318,-1.595 1.046,-0.274 2.151,-0.014 2.477,0.579 z"
   id="path122" />
	<path
   fill="#00a66b"
   d="m 64.067,201.608 c -0.448,0.634 -1.663,0.887 -2.717,0.56 -1.061,-0.33 -1.546,-1.118 -1.08,-1.756 0.463,-0.634 1.687,-0.873 2.73,-0.54 1.036,0.331 1.513,1.106 1.067,1.736 z"
   id="path123" />
	<path
   fill="#42bd91"
   d="m 67.539,204.256 c -0.23,0.606 -1.181,0.976 -2.131,0.824 -0.955,-0.153 -1.539,-0.776 -1.299,-1.388 0.239,-0.609 1.202,-0.971 2.147,-0.812 0.94,0.159 1.512,0.773 1.283,1.376 z"
   id="path124" />
	<path
   fill="#abe2ce"
   d="m 70.471,208.034 c -0.737,0.276 -1.759,0.024 -2.279,-0.565 -0.521,-0.59 -0.336,-1.288 0.409,-1.557 0.74,-0.267 1.752,-0.01 2.265,0.574 0.512,0.582 0.337,1.274 -0.395,1.548 z"
   id="path125" />
	<path
   fill="#75cfaf"
   d="m 75.045,210.563 c -0.356,0.473 -1.433,0.61 -2.409,0.304 -0.981,-0.308 -1.481,-0.947 -1.113,-1.422 0.367,-0.473 1.452,-0.601 2.422,-0.29 0.963,0.309 1.454,0.938 1.1,1.408 z"
   id="path126" />
	<path
   fill="#42bd91"
   d="m 78.513,213.697 c -0.343,0.322 -1.268,0.307 -2.066,-0.036 -0.802,-0.345 -1.168,-0.888 -0.816,-1.21 0.351,-0.321 1.279,-0.3 2.073,0.045 0.79,0.343 1.151,0.88 0.809,1.201 z"
   id="path127" />
	<path
   fill="#05a86e"
   d="m 77.116,216.813 c -0.152,0.572 -1.281,0.906 -2.53,0.744 -1.26,-0.164 -2.156,-0.77 -1.993,-1.35 0.163,-0.578 1.314,-0.904 2.563,-0.732 1.238,0.17 2.112,0.768 1.96,1.338 z"
   id="path128" />
</g><g
     id="g214"
     transform="scale(1.3333333)">
	<path
   fill="#36b98a"
   d="m 48.321,207.952 c 0.034,1.299 -1.21,1.273 -2.231,0.767 -0.65,-0.322 -2.048,-1.073 -1.841,-1.931 0.184,-0.766 1.468,-1.596 2.234,-1.38 0.921,0.261 1.814,1.624 1.838,2.544 z"
   id="path129" />
	<path
   fill="#2bb584"
   d="m 52.474,213.014 c -1.047,-0.528 -1.431,-2.115 -1.424,-3.145 0.007,-1.029 0.499,-1.988 1.528,-1.437 1.029,0.551 1.44,2.089 1.438,3.11 -0.003,1.02 -0.495,2 -1.542,1.472 z"
   id="path130" />
	<path
   fill="#0aaa71"
   d="m 59.41,216.422 c -0.878,0.134 -1.539,-1.464 -1.766,-2.056 -0.227,-0.592 -0.695,-2.153 0.19,-2.259 0.884,-0.106 1.525,1.481 1.759,2.076 0.234,0.595 0.695,2.105 -0.183,2.239 z"
   id="path131" />
	<path
   fill="#59c59f"
   d="m 64.331,215.506 c 0.915,0.523 1.277,1.913 1.272,2.84 -0.004,0.927 -0.459,1.761 -1.386,1.258 -0.927,-0.503 -1.307,-1.918 -1.299,-2.86 0.008,-0.942 0.498,-1.761 1.413,-1.238 z"
   id="path132" />
	<path
   fill="#45be93"
   d="m 70.679,222.13 c -0.487,0.721 -1.363,-0.042 -1.772,-0.597 -0.409,-0.555 -1.117,-1.768 -0.611,-2.49 0.505,-0.722 1.384,0.074 1.784,0.63 0.4,0.556 1.086,1.736 0.599,2.457 z"
   id="path133" />
	<path
   fill="#dbf3ea"
   d="m 43.429,213.791 c -1.498,0.312 -2.874,-1.416 -3.311,-2.672 -0.406,-1.168 0.887,-2.05 1.691,-2.627 0.613,-0.439 0.905,-0.616 1.466,-0.023 0.456,0.481 0.806,1.133 1.046,1.747 0.485,1.241 0.716,3.24 -0.892,3.575 z"
   id="path134" />
	<path
   fill="#b2e4d3"
   d="m 50.227,217.127 c -1.29,0.309 -2.324,-1.489 -2.717,-2.438 -0.393,-0.949 -0.798,-2.855 0.486,-3.111 1.284,-0.256 2.279,1.564 2.674,2.494 0.396,0.929 0.847,2.746 -0.443,3.055 z"
   id="path135" />
	<path
   fill="#00a66b"
   d="m 56.297,219.954 c -0.942,0.137 -1.643,-1.326 -1.895,-1.997 -0.253,-0.671 -0.579,-2.128 0.369,-2.237 0.949,-0.109 1.613,1.352 1.875,2.02 0.263,0.668 0.593,2.077 -0.349,2.214 z"
   id="path136" />
	<path
   fill="#a1dec8"
   d="m 61.575,222.799 c -0.819,-0.322 -1.184,-1.512 -1.236,-2.273 -0.052,-0.761 0.265,-1.59 1.078,-1.251 0.814,0.339 1.166,1.511 1.219,2.264 0.054,0.752 -0.242,1.582 -1.061,1.26 z"
   id="path137" />
	<path
   fill="#00a66b"
   d="m 68.496,224.06 c 0.261,0.897 0.12,2.007 -0.959,2.007 -1.079,0 -1.866,-1.209 -2.134,-2.117 -0.268,-0.909 -0.099,-2.047 0.989,-2.017 1.088,0.031 1.843,1.231 2.104,2.127 z"
   id="path138" />
	<path
   fill="#abe2ce"
   d="m 39.967,216.36 c -0.086,1.599 -1.293,2.366 -2.825,1.868 -1.352,-0.439 -2.228,-1.214 -1.439,-2.586 0.431,-0.749 1.73,-2.427 2.746,-2.315 1.072,0.119 1.563,2.19 1.518,3.033 z"
   id="path139" />
	<path
   fill="#36b98a"
   d="m 45.459,217.094 c 0.89,0.562 1.179,1.82 0.951,2.782 -0.228,0.962 -0.992,1.533 -1.908,0.997 -0.917,-0.536 -1.236,-1.828 -0.978,-2.799 0.257,-0.972 1.045,-1.543 1.935,-0.98 z"
   id="path140" />
	<path
   fill="#c4ebdd"
   d="m 52.122,219.932 c 1.06,0.486 1.357,2.034 1.329,3.032 -0.028,0.997 -0.522,2.082 -1.607,1.632 -1.085,-0.449 -1.413,-2.034 -1.364,-3.044 0.048,-1.01 0.582,-2.106 1.642,-1.62 z"
   id="path141" />
	<path
   fill="#c4ebdd"
   d="m 61.778,207.665 c 1.06,0.486 1.357,2.034 1.329,3.032 -0.028,0.997 -0.522,2.082 -1.607,1.632 -1.085,-0.449 -1.413,-2.034 -1.364,-3.044 0.048,-1.01 0.582,-2.106 1.642,-1.62 z"
   id="path142" />
	<path
   fill="#85d4b8"
   d="m 60.106,226.85 c -0.417,0.904 -1.647,0.087 -2.203,-0.435 -0.556,-0.522 -1.728,-1.785 -1.283,-2.697 0.445,-0.911 1.667,-0.044 2.217,0.482 0.55,0.527 1.685,1.746 1.269,2.65 z"
   id="path143" />
	<path
   fill="#d6f1e7"
   d="m 65.199,227.253 c 0.437,0.706 0.706,1.843 -0.006,2.471 -0.712,0.628 -1.591,0.036 -2.038,-0.668 -0.448,-0.704 -0.735,-1.88 0.003,-2.5 0.738,-0.62 1.604,-0.009 2.041,0.697 z"
   id="path144" />
	<path
   fill="#d6f1e7"
   d="m 74.369,218.812 c 0.437,0.706 0.706,1.843 -0.006,2.471 -0.712,0.628 -1.591,0.036 -2.038,-0.668 -0.448,-0.704 -0.735,-1.88 0.003,-2.5 0.736,-0.62 1.604,-0.009 2.041,0.697 z"
   id="path145" />
	<path
   fill="#00a66b"
   d="m 34.017,217.432 c 0.095,-0.006 0.187,0.004 0.277,0.033 1.422,0.466 0.881,3.92 0.349,4.622 -1.223,1.61 -3.403,1.253 -3.382,-0.864 0.01,-0.942 1.556,-3.71 2.756,-3.791 z"
   id="path146" />
	<path
   fill="#7dd2b4"
   d="m 42.394,225.713 c -1.224,0.726 -2.684,-0.594 -3.389,-1.554 -0.705,-0.959 -1.344,-2.755 -0.054,-3.467 1.29,-0.712 2.672,0.665 3.332,1.628 0.66,0.963 1.334,2.667 0.111,3.393 z"
   id="path147" />
	<path
   fill="#c7ebde"
   d="m 50.422,228.486 c -0.838,1.072 -2.423,-0.035 -3.187,-0.811 -0.764,-0.776 -2.013,-2.499 -1.105,-3.582 0.908,-1.083 2.48,0.078 3.219,0.875 0.737,0.797 1.911,2.446 1.073,3.518 z"
   id="path148" />
	<path
   fill="#00a66b"
   d="m 56.687,231.748 c -1.258,0.714 -2.621,-0.562 -3.252,-1.606 -0.631,-1.044 -1.093,-2.852 0.201,-3.535 1.293,-0.683 2.593,0.648 3.204,1.68 0.612,1.032 1.105,2.747 -0.153,3.461 z"
   id="path149" />
	<path
   fill="#00a66b"
   d="m 69.015,216.323 c -1.258,0.714 -2.621,-0.562 -3.252,-1.606 -0.631,-1.044 -1.093,-2.852 0.201,-3.535 1.293,-0.683 2.593,0.648 3.204,1.68 0.612,1.032 1.105,2.747 -0.153,3.461 z"
   id="path150" />
	<path
   fill="#2eb686"
   d="m 63.088,232.514 c 0.053,1.017 -0.587,1.535 -1.564,1.202 -0.977,-0.333 -1.841,-1.384 -1.895,-2.437 -0.054,-1.053 0.688,-1.555 1.662,-1.207 0.975,0.348 1.744,1.425 1.797,2.442 z"
   id="path151" />
	<path
   fill="#c7ebde"
   d="m 36.106,225.399 c 1.579,0.573 2.779,2.261 2.759,3.941 -0.02,1.68 -1.242,2.503 -2.801,1.954 -1.559,-0.549 -2.967,-2.216 -3.003,-3.932 -0.036,-1.716 1.465,-2.535 3.045,-1.963 z"
   id="path152" />
	<path
   fill="#00a66b"
   d="m 45.243,228.89 c 1.245,0.93 2.277,2.702 1.584,4.258 -0.693,1.556 -2.364,1.396 -3.631,0.483 -1.267,-0.913 -2.468,-2.71 -1.734,-4.308 0.734,-1.597 2.535,-1.363 3.781,-0.433 z"
   id="path153" />
	<path
   fill="#8cd7bc"
   d="m 52.695,236.438 c -1.147,0.52 -2.225,-0.95 -2.694,-1.821 -0.469,-0.871 -1.012,-2.592 0.156,-3.082 1.169,-0.49 2.276,0.95 2.747,1.843 0.471,0.892 0.937,2.539 -0.209,3.06 z"
   id="path154" />
	<path
   fill="#00a66b"
   d="m 58.303,239.009 c -1.172,-0.064 -1.739,-1.623 -1.895,-2.589 -0.156,-0.966 0.06,-2.386 1.243,-2.298 1.183,0.088 1.814,1.579 1.956,2.559 0.142,0.981 -0.132,2.392 -1.304,2.328 z"
   id="path155" />
	<path
   fill="#00a66b"
   d="m 64.281,238.02 c 0.26,0.906 0.038,2.047 -0.987,2.336 -1.025,0.289 -1.805,-0.605 -2.032,-1.529 -0.227,-0.924 -0.009,-2.108 1.007,-2.363 1.016,-0.255 1.751,0.65 2.012,1.556 z"
   id="path156" />
	<path
   fill="#03a76c"
   d="m 32.603,235.406 c -1.436,-0.369 -2.642,-1.8 -3.05,-3.239 -0.408,-1.439 0.499,-2.294 1.961,-1.975 1.462,0.32 2.761,1.787 2.993,3.193 0.232,1.405 -0.468,2.39 -1.904,2.021 z"
   id="path157" />
	<path
   fill="#00a66b"
   d="m 41.165,238.541 c -1.542,-0.012 -2.762,-1.61 -3.22,-2.955 -0.458,-1.345 -0.085,-2.812 1.516,-2.78 1.601,0.033 2.848,1.556 3.233,2.928 0.387,1.372 0.013,2.819 -1.529,2.807 z"
   id="path158" />
	<path
   fill="#0daa72"
   d="m 49.423,239.379 c -0.268,0.975 -1.296,0.924 -2.058,0.451 -0.762,-0.473 -1.617,-1.494 -1.355,-2.478 0.262,-0.985 1.332,-0.887 2.107,-0.425 0.775,0.462 1.574,1.477 1.306,2.452 z"
   id="path159" />
	<path
   fill="#00a66b"
   d="m 56.095,240.441 c 0.312,1.239 -0.4,2.376 -1.579,2.643 -1.179,0.267 -2.321,-0.482 -2.671,-1.726 -0.351,-1.245 0.368,-2.403 1.562,-2.64 1.194,-0.236 2.376,0.485 2.688,1.723 z"
   id="path160" />
	<path
   fill="#33b889"
   d="m 59.967,240.72 c 1.201,0.513 1.598,2.136 1.432,3.343 -0.167,1.207 -0.918,2.294 -2.12,1.801 -1.202,-0.493 -1.648,-2.123 -1.494,-3.368 0.154,-1.243 0.981,-2.289 2.182,-1.776 z"
   id="path161" />
	<path
   fill="#19af7a"
   d="m 29.617,240.575 c -1.323,0.175 -2.481,-1.535 -2.973,-2.488 -0.492,-0.953 -0.893,-2.623 0.462,-2.755 1.355,-0.133 2.519,1.511 3.017,2.487 0.499,0.977 0.817,2.581 -0.506,2.756 z"
   id="path162" />
	<path
   fill="#00a66b"
   d="m 37.084,243.768 c -1.487,-0.176 -2.542,-1.854 -2.901,-3.187 -0.359,-1.333 0.092,-2.723 1.623,-2.545 1.531,0.178 2.683,1.811 2.95,3.138 0.267,1.327 -0.185,2.77 -1.672,2.594 z"
   id="path163" />
	<path
   fill="#00a66b"
   d="m 45.489,244.711 c -0.323,1.034 -1.327,1.032 -2.138,0.486 -0.811,-0.546 -1.629,-1.646 -1.334,-2.691 0.295,-1.045 1.369,-0.987 2.198,-0.456 0.829,0.53 1.597,1.627 1.274,2.661 z"
   id="path164" />
	<path
   fill="#00a66b"
   d="m 50.606,204.833 c -0.926,-0.561 -0.684,-1.536 0.04,-2.192 0.725,-0.656 1.988,-1.187 2.932,-0.651 0.944,0.536 0.631,1.566 -0.083,2.243 -0.714,0.678 -1.963,1.161 -2.889,0.6 z"
   id="path165" />
	<path
   fill="#e8f7f2"
   d="m 51.586,247.852 c -0.635,0.845 -1.641,0.102 -2.16,-0.587 -0.52,-0.689 -1.214,-2.05 -0.584,-2.891 0.629,-0.842 1.682,-0.063 2.207,0.625 0.523,0.687 1.172,2.008 0.537,2.853 z"
   id="path166" />
	<path
   fill="#b8e6d6"
   d="m 57.399,249.08 c -0.15,0.88 -0.879,1.174 -1.631,0.822 -0.752,-0.353 -1.317,-1.266 -1.157,-2.156 0.16,-0.89 0.917,-1.174 1.666,-0.806 0.749,0.368 1.272,1.26 1.122,2.14 z"
   id="path167" />
	<path
   fill="#2bb584"
   d="m 62.931,252.141 c -0.487,1.109 -1.547,1.027 -2.356,0.214 -0.809,-0.813 -1.321,-2.327 -0.755,-3.454 0.566,-1.127 1.625,-0.984 2.374,-0.139 0.748,0.846 1.224,2.27 0.737,3.379 z"
   id="path168" />
	<path
   fill="#24b280"
   d="m 24.845,240.566 c 1.131,0.55 2.125,1.826 1.996,3.144 -0.129,1.318 -1.311,1.647 -2.461,1.13 -1.15,-0.517 -2.18,-1.856 -1.999,-3.187 0.181,-1.331 1.333,-1.637 2.464,-1.087 z"
   id="path169" />
	<path
   fill="#29b483"
   d="m 34.651,248.131 c -1.231,0.843 -2.688,-0.446 -3.426,-1.442 -0.738,-0.996 -1.464,-2.868 -0.178,-3.696 1.286,-0.827 2.816,0.442 3.534,1.48 0.718,1.038 1.301,2.814 0.07,3.658 z"
   id="path170" />
	<path
   fill="#47bf94"
   d="m 42.157,247.648 c 0.449,1.154 -10e-4,2.344 -1.2,2.743 -1.199,0.4 -2.398,-0.302 -2.876,-1.444 -0.478,-1.142 -0.034,-2.384 1.187,-2.758 1.221,-0.374 2.44,0.305 2.889,1.459 z"
   id="path171" />
	<path
   fill="#e3f5ef"
   d="m 48.059,249.105 c 0.727,0.966 0.549,2.457 -0.157,3.389 -0.706,0.932 -1.818,1.061 -2.508,0.058 -0.69,-1.003 -0.641,-2.472 0.093,-3.415 0.733,-0.943 1.845,-0.998 2.572,-0.032 z"
   id="path172" />
	<path
   fill="#e3f5ef"
   d="m 58.565,204.955 c 0.727,0.966 0.549,2.457 -0.157,3.389 -0.706,0.932 -1.818,1.061 -2.508,0.058 -0.69,-1.003 -0.641,-2.472 0.093,-3.415 0.734,-0.943 1.845,-0.998 2.572,-0.032 z"
   id="path173" />
	<path
   fill="#38ba8c"
   d="m 54.101,253.841 c -0.19,0.935 -1.046,1.099 -1.811,0.716 -0.765,-0.383 -1.464,-1.315 -1.262,-2.265 0.202,-0.951 1.091,-1.088 1.848,-0.691 0.757,0.395 1.415,1.305 1.225,2.24 z"
   id="path174" />
	<path
   fill="#00a66b"
   d="m 59.501,253.41 c 0.684,0.928 0.59,2.266 0.014,3.249 -0.577,0.983 -1.661,1.105 -2.384,0.19 -0.723,-0.915 -0.624,-2.366 0.026,-3.281 0.649,-0.914 1.66,-1.087 2.344,-0.158 z"
   id="path175" />
	<path
   fill="#3dbb8f"
   d="m 21.829,247.699 c 0.515,0.731 0.552,2.021 -0.603,2.614 -1.492,0.766 -2.132,-1.275 -1.367,-2.414 0.705,-1.049 1.52,-0.838 1.97,-0.2 z"
   id="path176" />
	<path
   fill="#00a66b"
   d="m 31.101,252.658 c -0.535,1.2 -1.882,0.981 -2.849,0.318 -0.967,-0.663 -1.986,-2.052 -1.436,-3.294 0.55,-1.242 2.033,-0.995 2.985,-0.289 0.952,0.707 1.835,2.065 1.3,3.265 z"
   id="path177" />
	<path
   fill="#00a66b"
   d="m 38.826,255.397 c -0.415,1.493 -1.832,1.468 -3.02,0.668 -1.188,-0.801 -2.346,-2.447 -1.912,-3.979 0.434,-1.532 1.98,-1.477 3.151,-0.658 1.172,0.819 2.197,2.476 1.781,3.969 z"
   id="path178" />
	<path
   fill="#00a66b"
   d="m 44.795,257.113 c -0.106,1.174 -0.922,1.766 -1.998,1.281 -1.076,-0.485 -1.899,-1.769 -1.815,-2.959 0.084,-1.191 1.02,-1.751 2.137,-1.271 1.115,0.479 1.782,1.775 1.676,2.949 z"
   id="path179" />
	<path
   fill="#00a66b"
   d="m 49.989,257.133 c 0.62,0.689 0.282,1.857 -0.182,2.526 -0.464,0.669 -1.263,1.149 -1.84,0.436 -0.577,-0.712 -0.328,-1.835 0.107,-2.531 0.436,-0.695 1.294,-1.12 1.915,-0.431 z"
   id="path180" />
	<path
   fill="#52c29a"
   d="m 57.872,260.842 c 0.28,1.18 -0.412,2.022 -1.642,1.945 -1.23,-0.077 -2.629,-0.983 -2.923,-2.223 -0.294,-1.24 0.819,-1.936 1.978,-1.866 1.158,0.07 2.307,0.963 2.587,2.144 z"
   id="path181" />
	<path
   fill="#12ac75"
   d="m 26.691,257.953 c -0.876,1.047 -2.391,0.645 -3.346,-0.152 -0.955,-0.797 -1.64,-2.233 -0.713,-3.295 0.927,-1.062 2.492,-0.662 3.426,0.167 0.934,0.829 1.508,2.232 0.633,3.28 z"
   id="path182" />
	<path
   fill="#bae7d7"
   d="m 34.921,258.426 c 0.313,1.114 -0.285,2.001 -1.449,2.067 -1.164,0.066 -2.417,-0.664 -2.755,-1.823 -0.339,-1.159 0.42,-2.029 1.587,-2.098 1.167,-0.07 2.304,0.74 2.617,1.854 z"
   id="path183" />
	<path
   fill="#9eddc7"
   d="m 41.442,261.094 c 0.258,0.912 -0.031,1.84 -1.077,1.793 -1.046,-0.047 -1.885,-1.022 -2.143,-1.962 -0.258,-0.94 0.145,-1.837 1.18,-1.79 1.035,0.047 1.782,1.047 2.04,1.959 z"
   id="path184" />
	<path
   fill="#8cd7bc"
   d="m 47.22,262.361 c 0.531,0.763 1.068,2.111 0.327,2.906 -0.741,0.794 -1.847,0.104 -2.383,-0.667 -0.536,-0.771 -0.95,-2.12 -0.16,-2.871 0.79,-0.751 1.685,-0.131 2.216,0.632 z"
   id="path185" />
	<path
   fill="#a8e1cd"
   d="m 55.191,265.417 c 0.656,1.111 0.992,2.813 -0.447,3.193 -1.44,0.38 -2.915,-1.187 -3.592,-2.273 -0.677,-1.086 -1.011,-2.715 0.504,-3.075 1.514,-0.361 2.879,1.044 3.535,2.155 z"
   id="path186" />
	<path
   fill="#9cdcc5"
   d="m 58.93,273.534 c -0.565,0.833 -1.745,-0.269 -2.203,-0.854 -0.458,-0.585 -1.469,-2.063 -0.78,-2.824 0.689,-0.761 1.752,0.263 2.236,0.895 0.484,0.632 1.313,1.95 0.747,2.783 z"
   id="path187" />
	<path
   fill="#26b381"
   d="m 21.863,264.54 c -1.189,1.028 -2.91,0.556 -3.938,-0.509 -1.028,-1.064 -1.433,-2.775 -0.191,-3.789 1.243,-1.014 2.912,-0.331 3.898,0.691 0.987,1.023 1.421,2.579 0.231,3.607 z"
   id="path188" />
	<path
   fill="#def3ec"
   d="m 30.105,266.285 c -0.999,0.411 -2.08,-0.783 -2.558,-1.527 -0.479,-0.745 -0.961,-2.159 0.076,-2.603 1.037,-0.444 2.073,0.792 2.525,1.543 0.451,0.75 0.956,2.176 -0.043,2.587 z"
   id="path189" />
	<path
   fill="#ade3d0"
   d="m 39.183,267.507 c 0.014,1.336 -1.42,1.294 -2.466,0.853 -1.045,-0.441 -2.58,-1.505 -2.522,-2.833 0.058,-1.328 1.463,-1.357 2.516,-0.906 1.053,0.452 2.458,1.55 2.472,2.886 z"
   id="path190" />
	<path
   fill="#12ac75"
   d="m 45.634,268.825 c 0.482,0.91 0.562,2.196 -0.641,2.374 -1.203,0.178 -2.337,-0.923 -2.791,-1.879 -0.454,-0.956 -0.369,-2.139 0.772,-2.34 1.141,-0.201 2.178,0.935 2.66,1.845 z"
   id="path191" />
	<path
   fill="#42bd91"
   d="m 50.955,269.63 c 1.096,0.516 2.046,1.882 2.237,3.084 0.191,1.203 -0.531,1.77 -1.627,1.258 -1.096,-0.512 -1.972,-1.901 -2.108,-3.036 -0.136,-1.135 0.402,-1.823 1.498,-1.306 z"
   id="path192" />
	<path
   fill="#00a66b"
   d="m 18.205,267.817 c 1.133,1.053 1.006,2.712 -0.013,3.829 -1.019,1.117 -2.644,1.337 -3.806,0.281 -1.161,-1.056 -1.061,-2.74 -0.018,-3.829 1.043,-1.089 2.704,-1.334 3.837,-0.281 z"
   id="path193" />
	<path
   fill="#00a66b"
   d="m 25.146,266.779 c 1.512,0.475 1.907,2.185 1.629,3.569 -0.278,1.384 -1.331,2.931 -2.988,2.753 -1.657,-0.178 -1.878,-2.442 -1.551,-3.807 0.326,-1.366 1.398,-2.99 2.91,-2.515 z"
   id="path194" />
	<path
   fill="#9cdcc5"
   d="m 34.198,269.024 c 1.232,0.837 2.111,2.564 1.497,4.047 -0.614,1.483 -2.19,1.533 -3.456,0.683 -1.267,-0.85 -2.124,-2.521 -1.483,-4.005 0.641,-1.484 2.21,-1.562 3.442,-0.725 z"
   id="path195" />
	<path
   fill="#5cc6a0"
   d="m 43.046,274.941 c -0.179,1.178 -1.352,1.201 -2.285,0.679 -0.933,-0.522 -1.88,-1.706 -1.688,-2.868 0.191,-1.162 1.25,-1.254 2.183,-0.716 0.932,0.537 1.969,1.727 1.79,2.905 z"
   id="path196" />
	<path
   fill="#00a66b"
   d="m 49.382,278.987 c -1.262,-0.152 -2.111,-1.698 -2.426,-2.702 -0.315,-1.004 -0.276,-2.39 0.975,-2.23 1.251,0.16 2.196,1.746 2.565,2.794 0.369,1.048 0.148,2.289 -1.114,2.138 z"
   id="path197" />
	<path
   fill="#54c39c"
   d="m 55.829,275.607 c 1.309,0.531 2.275,2.164 2.353,3.5 0.078,1.336 -0.88,2.048 -2.118,1.576 -1.238,-0.472 -1.966,-2.055 -2.079,-3.315 -0.113,-1.26 0.535,-2.292 1.844,-1.761 z"
   id="path198" />
	<path
   fill="#3bba8d"
   d="m 21.344,279.243 c -0.479,1.552 -2.047,2.705 -3.811,2.761 -1.764,0.056 -2.447,-1.625 -1.906,-3.242 0.541,-1.618 2.057,-2.432 3.62,-2.237 1.563,0.194 2.576,1.166 2.097,2.718 z"
   id="path199" />
	<path
   fill="#a1dec8"
   d="m 29.817,280.106 c -1.166,0.589 -2.32,-0.354 -2.696,-1.467 -0.376,-1.113 -0.262,-2.91 0.961,-3.329 1.223,-0.419 2.127,0.613 2.615,1.657 0.488,1.045 0.285,2.55 -0.88,3.139 z"
   id="path200" />
	<path
   fill="#8ad6bb"
   d="m 39.911,281.396 c -0.717,1.553 -2.382,1.611 -3.718,0.704 -1.337,-0.907 -2.254,-2.83 -1.57,-4.414 0.684,-1.583 2.405,-1.403 3.648,-0.496 1.244,0.907 2.358,2.653 1.64,4.206 z"
   id="path201" />
	<path
   fill="#00a66b"
   d="m 47.191,282.634 c -0.16,1.069 -1.413,1.016 -2.274,0.671 -0.861,-0.345 -2.042,-1.218 -1.908,-2.322 0.134,-1.104 1.39,-1.045 2.235,-0.679 0.846,0.367 2.107,1.261 1.947,2.33 z"
   id="path202" />
	<path
   fill="#a8e1cd"
   d="m 52.303,281.405 c 1.228,0.563 1.857,2.042 1.6,3.367 -0.257,1.325 -1.265,2.122 -2.464,1.654 -1.198,-0.469 -1.655,-2.008 -1.468,-3.332 0.187,-1.325 1.103,-2.252 2.332,-1.689 z"
   id="path203" />
	<path
   fill="#30b787"
   d="m 16.168,285.842 c 1.571,0.261 1.365,2.399 0.658,3.625 -0.707,1.226 -2.358,2.772 -3.882,2.188 -1.524,-0.584 -1.527,-2.373 -0.784,-3.571 0.743,-1.199 2.437,-2.504 4.008,-2.242 z"
   id="path204" />
	<path
   fill="#2bb584"
   d="m 25.43,284.447 c 0.866,1.204 -0.365,2.823 -1.174,3.645 -0.809,0.822 -2.519,2.098 -3.547,1.087 -1.028,-1.012 0.477,-2.921 1.228,-3.711 0.751,-0.79 2.627,-2.224 3.493,-1.021 z"
   id="path205" />
	<path
   fill="#ade3d0"
   d="m 35.078,287.294 c -0.63,1.241 -2.065,1.164 -3.24,0.568 -1.176,-0.596 -1.99,-2.027 -1.327,-3.337 0.663,-1.31 2.2,-1.232 3.268,-0.508 1.066,0.723 1.929,2.036 1.299,3.277 z"
   id="path206" />
	<path
   fill="#ebf8f3"
   d="m 42.212,288.844 c -0.884,0.619 -1.89,-0.277 -2.349,-1.056 -0.459,-0.779 -0.89,-2.163 0.021,-2.763 0.912,-0.6 1.913,0.416 2.374,1.182 0.46,0.767 0.838,2.018 -0.046,2.637 z"
   id="path207" />
	<path
   fill="#0aaa71"
   d="m 49.595,290.213 c -0.957,0.826 -2.138,0.373 -2.869,-0.545 -0.731,-0.918 -1.119,-2.47 -0.174,-3.318 0.945,-0.848 2.256,-0.126 2.959,0.768 0.703,0.894 1.041,2.269 0.084,3.095 z"
   id="path208" />
	<path
   fill="#00a66b"
   d="m 56.372,290.654 c -0.51,1.083 -1.541,1.468 -2.45,0.989 -0.909,-0.479 -1.425,-1.73 -0.948,-2.924 0.477,-1.194 1.664,-1.296 2.537,-0.76 0.872,0.535 1.371,1.612 0.861,2.695 z"
   id="path209" />
	<path
   fill="#0fab74"
   d="m 20.198,296.342 c -0.15,1.576 -2.256,2.253 -3.512,2.391 -1.256,0.138 -3.244,-0.183 -3.158,-1.674 0.086,-1.491 2.392,-2.033 3.562,-2.237 1.17,-0.205 3.258,-0.056 3.108,1.52 z"
   id="path210" />
	<path
   fill="#00a66b"
   d="m 28.907,291.726 c 1.584,0.649 1.349,2.581 0.687,3.888 -0.662,1.308 -2.128,2.822 -3.793,2.319 -1.665,-0.503 -1.421,-2.547 -0.747,-3.858 0.675,-1.311 2.269,-2.998 3.853,-2.349 z"
   id="path211" />
	<path
   fill="#8fd8be"
   d="m 38.221,292.638 c 0.646,0.935 -0.159,2.125 -0.88,2.737 -0.722,0.612 -2.022,1.232 -2.722,0.322 -0.701,-0.91 0.188,-2.224 0.929,-2.845 0.739,-0.62 2.027,-1.149 2.673,-0.214 z"
   id="path212" />
	<path
   fill="#00a66b"
   d="m 45.211,292.181 c 1.018,0.726 0.793,2.292 0.329,3.308 -0.464,1.016 -1.503,2.078 -2.557,1.367 -1.053,-0.711 -0.888,-2.371 -0.39,-3.425 0.498,-1.053 1.6,-1.976 2.618,-1.25 z"
   id="path213" />
	<path
   fill="#4ac096"
   d="m 51.937,296.634 c -0.626,0.799 -1.702,0.103 -2.223,-0.57 -0.521,-0.673 -1.063,-1.96 -0.35,-2.656 0.713,-0.696 1.701,-0.029 2.224,0.643 0.522,0.671 0.974,1.784 0.349,2.583 z"
   id="path214" />
</g><path
     d="m 197.24003,191.90192 c 12.17628,17.63404 24.65643,36.84857 49.40396,44.60741 4.99067,1.75866 9.40924,2.79758 14.70124,1.40025 4.62534,-1.22134 5.40074,-2.53958 7.76806,-7.27793 1.77499,0.63384 13.0027,2.05768 11.0627,7.00568 -1.484,3.78666 1.328,10.23333 2.32,13.83066 2.28667,8.28934 4.952,16.47067 7.28534,24.74667 2.51733,8.928 4.99866,18.01467 6.19733,27.232 1.284,9.86667 -3.428,17.064 -8.52667,25.276 -8.396,13.52133 -20.22266,14.85866 -35.77733,14.876 -10.95867,0.012 -17.59333,-3.42667 -26.952,-8.65334 -10.14267,-5.66399 -13.77733,-9.16266 -17.188,-20.13866 -3.216,-10.34933 -7.80666,-20.824 -12.19733,-30.75867 -10.108,-22.872 -23.068,-44.596 -39.42133,-63.568 0,0 23.71733,-11.23866 29.864,-14.05333 8.616,-3.94667 4.28599,-10.84064 8.13622,-20.48474 0.98279,1.90501 2.17095,4.29039 3.32381,5.96 z"
     id="path219"
     style="fill:#000000;fill-opacity:1;stroke-width:1.33333"
     sodipodi:nodetypes="scsccccccccsccccs" /><ellipse
     transform="rotate(-61.312715)"
     fill="#75cfaf"
     cx="-78.855049"
     cy="265.95764"
     rx="2.3558583"
     ry="1.3919164"
     id="ellipse219"
     style="stroke-width:1.33325" /><ellipse
     transform="rotate(-71.874873)"
     fill="#2bb584"
     cx="-132.76068"
     cy="254.30994"
     rx="2.9080629"
     ry="1.7547047"
     id="ellipse220"
     style="stroke-width:1.33336" /><ellipse
     transform="rotate(-19.670784)"
     fill="#0aaa71"
     cx="121.23352"
     cy="267.51105"
     rx="1.4799334"
     ry="2.8612044"
     id="ellipse221"
     style="stroke-width:1.33327" /><ellipse
     transform="rotate(-7.7120107)"
     fill="#59c59f"
     cx="177.52116"
     cy="243.17958"
     rx="2.0920947"
     ry="2.9401331"
     id="ellipse222"
     style="stroke-width:1.33339" /><ellipse
     transform="rotate(-35.619603)"
     fill="#45be93"
     cx="45.563217"
     cy="305.00534"
     rx="1.7893298"
     ry="2.7786613"
     id="ellipse223"
     style="stroke-width:1.33333" /><ellipse
     transform="rotate(-89.140542)"
     fill="#b2e4d3"
     cx="-201.37453"
     cy="197.59933"
     rx="3.2373738"
     ry="1.9373575"
     id="ellipse224"
     style="stroke-width:1.33335" /><ellipse
     transform="rotate(-20.671391)"
     fill="#00a66b"
     cx="110.77061"
     cy="270.60535"
     rx="1.5892986"
     ry="2.7546065"
     id="ellipse225"
     style="stroke-width:1.3333" /><ellipse
     transform="rotate(-10.65485)"
     fill="#a1dec8"
     cx="158.22856"
     cy="254.05"
     rx="1.6667365"
     ry="2.412101"
     id="ellipse226"
     style="stroke-width:1.33339" /><ellipse
     transform="rotate(-38.75645)"
     fill="#00a66b"
     cx="21.432301"
     cy="306.82227"
     rx="2.4012902"
     ry="3.0426121"
     id="ellipse227"
     style="stroke-width:1.33331" /><ellipse
     transform="rotate(-68.746527)"
     fill="#36b98a"
     cx="-126.494"
     cy="250.67261"
     rx="2.3480353"
     ry="1.5453566"
     id="ellipse228"
     style="stroke-width:1.33335" /><ellipse
     transform="rotate(-1.5357733)"
     fill="#c4ebdd"
     cx="188.17859"
     cy="218.26561"
     rx="1.9105886"
     ry="2.9572127"
     id="ellipse229"
     style="stroke-width:1.33328" /><ellipse
     transform="rotate(-43.431921)"
     fill="#85d4b8"
     cx="-9.9139652"
     cy="297.31726"
     rx="1.6080182"
     ry="3.0640347"
     id="ellipse230"
     style="stroke-width:1.33335" /><ellipse
     transform="rotate(-30.796714)"
     fill="#d6f1e7"
     cx="55.824276"
     cy="303.01096"
     rx="2.1706939"
     ry="2.5106981"
     id="ellipse231"
     style="stroke-width:1.33335" /><ellipse
     transform="rotate(-33.63445)"
     fill="#ade3d0"
     cx="45.916348"
     cy="314.01514"
     rx="2.0493619"
     ry="2.9720416"
     id="ellipse232"
     style="stroke-width:1.33335" /><ellipse
     transform="rotate(-7.7703272)"
     fill="#75cfaf"
     cx="192.99652"
     cy="260.1951"
     rx="3.1719422"
     ry="2.3759568"
     id="ellipse233"
     style="stroke-width:1.33331" /><ellipse
     transform="rotate(-6.0560912)"
     fill="#36b98a"
     cx="197.42432"
     cy="260.85635"
     rx="3.0772743"
     ry="2.1759582"
     id="ellipse234"
     style="stroke-width:1.33331" /><ellipse
     transform="rotate(-0.49273171)"
     fill="#2bb584"
     cx="216.18401"
     cy="230.8824"
     rx="2.07741"
     ry="2.8601058"
     id="ellipse235"
     style="stroke-width:1.33338" /><ellipse
     transform="rotate(-27.541328)"
     fill="#dbf3ea"
     cx="98.932625"
     cy="318.80002"
     rx="2.8707395"
     ry="3.3414178"
     id="ellipse236"
     style="stroke-width:1.33337" /><ellipse
     transform="rotate(-27.774552)"
     fill="#b2e4d3"
     cx="102.72814"
     cy="325.87857"
     rx="2.4013658"
     ry="3.0387077"
     id="ellipse237"
     style="stroke-width:1.33335" /><ellipse
     transform="rotate(-82.177806)"
     fill="#a1dec8"
     cx="-206.84843"
     cy="306.23138"
     rx="2.201344"
     ry="1.1360055"
     id="ellipse238"
     style="stroke-width:1.33334" /><ellipse
     transform="rotate(-69.163644)"
     fill="#00a66b"
     cx="-137.24016"
     cy="326.56076"
     rx="2.7719998"
     ry="1.64"
     id="ellipse239"
     style="stroke-width:1.33333" /><ellipse
     transform="rotate(-5.8023796)"
     fill="#abe2ce"
     cx="204.72383"
     cy="266.67981"
     rx="2.9494028"
     ry="2.9334025"
     id="ellipse240"
     style="stroke-width:1.33336" /><ellipse
     transform="rotate(-81.737818)"
     fill="#36b98a"
     cx="-210.87138"
     cy="271.20197"
     rx="2.3612835"
     ry="1.7879622"
     id="ellipse241"
     style="stroke-width:1.33331" /><ellipse
     transform="rotate(-89.152)"
     fill="#c4ebdd"
     cx="-240.88371"
     cy="253.59326"
     rx="2.8786941"
     ry="1.9640188"
     id="ellipse242"
     style="stroke-width:1.33335" /><ellipse
     transform="rotate(-50.933935)"
     fill="#85d4b8"
     cx="-25.927589"
     cy="356.66412"
     rx="1.8906184"
     ry="1.6212919"
     id="ellipse243"
     style="stroke-width:1.3333" /><ellipse
     transform="rotate(-70.677236)"
     fill="#d6f1e7"
     cx="-140.14952"
     cy="332.01611"
     rx="2.5174143"
     ry="1.34671"
     id="ellipse244"
     style="stroke-width:1.33338" /><ellipse
     transform="rotate(-74.258441)"
     fill="#ade3d0"
     cx="-156.22885"
     cy="327.95142"
     rx="2.3853452"
     ry="1.5880078"
     id="ellipse245"
     style="stroke-width:1.33334" /><ellipse
     transform="rotate(-77.919248)"
     fill="#c7ebde"
     cx="-195.00345"
     cy="292.57733"
     rx="3.1321485"
     ry="2.3881133"
     id="ellipse246"
     style="stroke-width:1.3334" /><ellipse
     transform="rotate(-75.641374)"
     fill="#00a66b"
     cx="-181.37714"
     cy="312.28308"
     rx="3.0907865"
     ry="1.9454086"
     id="ellipse247"
     style="stroke-width:1.33338" /><ellipse
     transform="rotate(-66.283022)"
     fill="#2eb686"
     cx="-123.12791"
     cy="342.30011"
     rx="2.45455"
     ry="1.5412601"
     id="ellipse248"
     style="stroke-width:1.33327" /><ellipse
     transform="rotate(-70.718877)"
     fill="#00a66b"
     cx="-144.50325"
     cy="336.81897"
     rx="3.2866323"
     ry="1.8373142"
     id="ellipse249"
     style="stroke-width:1.33332" /><ellipse
     transform="rotate(-65.700673)"
     fill="#d9f2e9"
     cx="-132.9877"
     cy="286.02689"
     rx="1.4613203"
     ry="2.3079793"
     id="ellipse250"
     style="stroke-width:1.33332" /><ellipse
     transform="rotate(-31.984734)"
     fill="#24b280"
     cx="49.098152"
     cy="322.45767"
     rx="2.1746943"
     ry="2.4453642"
     id="ellipse251"
     style="stroke-width:1.33335" /><ellipse
     transform="rotate(-46.734232)"
     fill="#29b483"
     cx="-27.967115"
     cy="331.37405"
     rx="2.5853958"
     ry="3.1027415"
     id="ellipse252"
     style="stroke-width:1.33337" /><ellipse
     transform="rotate(-41.07112)"
     fill="#3dbb8f"
     cx="-10.889924"
     cy="329.75729"
     rx="2.1613488"
     ry="1.8986802"
     id="ellipse253"
     style="stroke-width:1.33334" /><ellipse
     transform="rotate(-57.201433)"
     fill="#00a66b"
     cx="-96.81057"
     cy="321.87579"
     rx="2.2107189"
     ry="2.630729"
     id="ellipse254"
     style="stroke-width:1.33336" /><ellipse
     transform="rotate(-63.84493)"
     fill="#00a66b"
     cx="-129.15602"
     cy="317.20587"
     rx="2.7946532"
     ry="3.4319835"
     id="ellipse255"
     style="stroke-width:1.33333" /><ellipse
     transform="rotate(-70.062905)"
     fill="#00a66b"
     cx="-159.44528"
     cy="310.46048"
     rx="2.3614147"
     ry="2.798763"
     id="ellipse256"
     style="stroke-width:1.33338" /><ellipse
     transform="rotate(-24.330152)"
     fill="#21b27e"
     cx="146.28201"
     cy="346.82767"
     rx="1.998696"
     ry="2.7373736"
     id="ellipse257"
     style="stroke-width:1.33335" /><ellipse
     transform="rotate(-46.726133)"
     fill="#12ac75"
     cx="-44.671429"
     cy="336.31128"
     rx="2.2867122"
     ry="2.5653844"
     id="ellipse258"
     style="stroke-width:1.33336" /><ellipse
     transform="rotate(-8.308366)"
     fill="#bae7d7"
     cx="183.55585"
     cy="292.65167"
     rx="2.5706544"
     ry="2.1506565"
     id="ellipse259"
     style="stroke-width:1.33333" /><ellipse
     transform="rotate(-78.959745)"
     fill="#9eddc7"
     cx="-213.46062"
     cy="279.64243"
     rx="2.0253479"
     ry="2.2640162"
     id="ellipse260"
     style="stroke-width:1.33334" /><ellipse
     transform="rotate(-49.940611)"
     fill="#8cd7bc"
     cx="-44.765823"
     cy="355.49329"
     rx="2.3880694"
     ry="2.2200644"
     id="ellipse261"
     style="stroke-width:1.33337" /><ellipse
     transform="rotate(-77.443848)"
     fill="#a8e1cd"
     cx="-201.78586"
     cy="304.09326"
     rx="2.7827137"
     ry="2.9960506"
     id="ellipse262"
     style="stroke-width:1.33336" /><ellipse
     transform="rotate(-47.232962)"
     fill="#9cdcc5"
     cx="-14.798661"
     cy="371.40753"
     rx="1.7986161"
     ry="2.3692667"
     id="ellipse263"
     style="stroke-width:1.3333" /><ellipse
     transform="rotate(-68.334771)"
     fill="#00a66b"
     cx="-143.95061"
     cy="350.20233"
     rx="2.1360993"
     ry="3.3921576"
     id="ellipse264"
     style="stroke-width:1.3334" /><ellipse
     transform="rotate(-48.255117)"
     fill="#26b381"
     cx="-62.475231"
     cy="337.50177"
     rx="2.3252807"
     ry="2.7586043"
     id="ellipse265"
     style="stroke-width:1.3333" /><ellipse
     transform="rotate(-39.041887)"
     fill="#def3ec"
     cx="-0.11686692"
     cy="349.26495"
     rx="1.5626955"
     ry="2.4773791"
     id="ellipse266"
     style="stroke-width:1.33336" /><ellipse
     transform="rotate(-80.334218)"
     fill="#ade3d0"
     cx="-228.92494"
     cy="271.87262"
     rx="2.0973248"
     ry="3.0146546"
     id="ellipse267"
     style="stroke-width:1.33333" /><ellipse
     transform="rotate(-84.203321)"
     fill="#12ac75"
     cx="-245.78004"
     cy="265.44922"
     rx="2.2733641"
     ry="2.4600332"
     id="ellipse268"
     style="stroke-width:1.33335" /><ellipse
     transform="rotate(-84.203321)"
     fill="#12ac75"
     cx="-223.03818"
     cy="228.81819"
     rx="2.2733641"
     ry="2.4600332"
     id="ellipse269"
     style="stroke-width:1.33335" /><ellipse
     transform="rotate(-19.12348)"
     fill="#42bd91"
     cx="146.30965"
     cy="337.89758"
     rx="2.0999672"
     ry="2.4652948"
     id="ellipse270"
     style="stroke-width:1.33331" /><ellipse
     transform="rotate(-30.745605)"
     fill="#ade3d0"
     cx="83.541496"
     cy="365.384"
     rx="2.0732231"
     ry="2.5691969"
     id="ellipse271"
     style="stroke-width:1.33326" /><ellipse
     transform="rotate(-55.931738)"
     fill="#47bf94"
     cx="-74.467834"
     cy="374.25314"
     rx="2.7254293"
     ry="3.5094571"
     id="ellipse272"
     style="stroke-width:1.33338" /><ellipse
     transform="rotate(-84.675371)"
     fill="#8fd8be"
     cx="-244.35611"
     cy="301.94983"
     rx="2.6200397"
     ry="1.9893634"
     id="ellipse273"
     style="stroke-width:1.33335" /><ellipse
     transform="rotate(-1.6503222)"
     fill="#00a66b"
     cx="207.91965"
     cy="284.74612"
     rx="2.1546986"
     ry="3.2093809"
     id="ellipse274"
     style="stroke-width:1.33335" /><ellipse
     transform="rotate(-21.019412)"
     fill="#9cdcc5"
     cx="110.75642"
     cy="341.06064"
     rx="2.8881266"
     ry="3.1561387"
     id="ellipse275"
     style="stroke-width:1.33339" /><ellipse
     transform="rotate(-58.144017)"
     fill="#5cc6a0"
     cx="-112.42433"
     cy="346.98294"
     rx="2.0813887"
     ry="2.4133973"
     id="ellipse276"
     style="stroke-width:1.33337" /><ellipse
     transform="rotate(-24.255699)"
     fill="#00a66b"
     cx="108.93578"
     cy="354.71671"
     rx="2.0319529"
     ry="2.7586026"
     id="ellipse277"
     style="stroke-width:1.3333" /><ellipse
     transform="rotate(-11.438035)"
     fill="#54c39c"
     cx="194.41335"
     cy="323.60425"
     rx="2.3225725"
     ry="3.0878747"
     id="ellipse278"
     style="stroke-width:1.33328" /><ellipse
     transform="rotate(-71.766165)"
     fill="#47bf94"
     cx="-181.90147"
     cy="338.30685"
     rx="2.2666967"
     ry="2.9920394"
     id="ellipse279"
     style="stroke-width:1.33335" /><ellipse
     transform="rotate(-64.582966)"
     fill="#0daa72"
     cx="-134.03467"
     cy="367.14569"
     rx="1.9653164"
     ry="2.3186467"
     id="ellipse280"
     style="stroke-width:1.33332" /><ellipse
     transform="rotate(-37.099081)"
     fill="#a1dec8"
     cx="3.7659173"
     cy="362.55453"
     rx="1.7813475"
     ry="2.3533521"
     id="ellipse281"
     style="stroke-width:1.33334" /><ellipse
     transform="rotate(-54.828666)"
     fill="#8ad6bb"
     cx="-101.25233"
     cy="354.37244"
     rx="2.8585505"
     ry="3.3491971"
     id="ellipse282"
     style="stroke-width:1.33328" /><ellipse
     transform="rotate(-78.269807)"
     fill="#00a66b"
     cx="-231.90411"
     cy="294.32895"
     rx="1.7373052"
     ry="2.4732933"
     id="ellipse283"
     style="stroke-width:1.33331" /><ellipse
     transform="rotate(-9.2937201)"
     fill="#a8e1cd"
     cx="201.11018"
     cy="323.63123"
     rx="2.5254014"
     ry="3.3547568"
     id="ellipse284"
     style="stroke-width:1.33337" /><ellipse
     transform="rotate(-20.84171)"
     fill="#a3dfca"
     cx="141.30409"
     cy="360.77841"
     rx="2.7480974"
     ry="3.0774424"
     id="ellipse285"
     style="stroke-width:1.33338" /><ellipse
     transform="rotate(-62.051199)"
     fill="#d1efe4"
     cx="-126.85118"
     cy="373.05466"
     rx="2.7961049"
     ry="3.036114"
     id="ellipse286"
     style="stroke-width:1.33338" /><ellipse
     transform="rotate(-10.649219)"
     fill="#b5e5d4"
     cx="221.92674"
     cy="333.66302"
     rx="2.3680556"
     ry="2.6080611"
     id="ellipse287"
     style="stroke-width:1.33336" /><ellipse
     transform="rotate(-41.314745)"
     fill="#2bb584"
     cx="-30.634174"
     cy="364.77921"
     rx="2.20135"
     ry="1.7666801"
     id="ellipse288"
     style="stroke-width:1.33334" /><ellipse
     transform="rotate(-62.799465)"
     fill="#ade3d0"
     cx="-157.68747"
     cy="336.80539"
     rx="1.8333083"
     ry="2.783962"
     id="ellipse289"
     style="stroke-width:1.33332" /><ellipse
     transform="rotate(-43.614278)"
     fill="#ebf8f3"
     cx="-31.230505"
     cy="376.59888"
     rx="1.5533333"
     ry="2.4306664"
     id="ellipse290"
     style="stroke-width:1.33333" /><ellipse
     transform="rotate(-49.826895)"
     fill="#0aaa71"
     cx="-65.573555"
     cy="378.41116"
     rx="2.3266699"
     ry="3.0613377"
     id="ellipse291"
     style="stroke-width:1.33334" /><ellipse
     transform="rotate(-54.170603)"
     fill="#00a66b"
     cx="-88.378899"
     cy="380.22382"
     rx="2.7801247"
     ry="3.1948099"
     id="ellipse292"
     style="stroke-width:1.33339" /><ellipse
     transform="rotate(-49.014034)"
     fill="#c2eadb"
     cx="-47.497307"
     cy="393.92715"
     rx="2.0854154"
     ry="2.5561008"
     id="ellipse293"
     style="stroke-width:1.33339" /><ellipse
     transform="rotate(-48.117129)"
     fill="#00a66b"
     cx="-34.863388"
     cy="401.79648"
     rx="2.131968"
     ry="3.2399514"
     id="ellipse294"
     style="stroke-width:1.33331" /><ellipse
     transform="rotate(-82.784731)"
     fill="#00a66b"
     cx="-272.00409"
     cy="259.69873"
     rx="2.8253865"
     ry="2.4040453"
     id="ellipse295"
     style="stroke-width:1.33336" /><ellipse
     transform="rotate(-40.904569)"
     fill="#8fd8be"
     cx="-21.841192"
     cy="381.28305"
     rx="2.2213297"
     ry="1.6879972"
     id="ellipse296"
     style="stroke-width:1.33333" /><ellipse
     transform="rotate(-77.402209)"
     fill="#00a66b"
     cx="-242.24188"
     cy="302.95197"
     rx="2.7825947"
     ry="2.2532754"
     id="ellipse297"
     style="stroke-width:1.3333" /><ellipse
     transform="rotate(-50.172422)"
     fill="#4ac096"
     cx="-70.56913"
     cy="387.67075"
     rx="1.6453861"
     ry="2.7760892"
     id="ellipse298"
     style="stroke-width:1.33338" /><ellipse
     transform="rotate(-0.13178021)"
     fill="#00a66b"
     cx="261.49438"
     cy="303.08267"
     rx="2.6226735"
     ry="3.1533415"
     id="ellipse299"
     style="stroke-width:1.33334" /><ellipse
     transform="rotate(-39.058006)"
     fill="#ccede1"
     cx="20.503283"
     cy="406.18274"
     rx="2.7826362"
     ry="3.4986286"
     id="ellipse300"
     style="stroke-width:1.33332" /><ellipse
     transform="rotate(-36.620085)"
     fill="#00a66b"
     cx="45.522381"
     cy="410.72226"
     rx="2.017312"
     ry="2.2973092"
     id="ellipse301"
     style="stroke-width:1.33332" /><ellipse
     transform="rotate(-22.346165)"
     fill="#38ba8c"
     cx="94.265175"
     cy="373.70688"
     rx="2.2399909"
     ry="2.7559888"
     id="ellipse302"
     style="stroke-width:1.33333" /><ellipse
     transform="rotate(-9.985079)"
     fill="#75cfaf"
     cx="181.63754"
     cy="346.54547"
     rx="3.1574843"
     ry="2.6467931"
     id="ellipse303"
     style="stroke-width:1.3334" /><ellipse
     transform="rotate(-22.451503)"
     fill="#8ad6bb"
     cx="111.4721"
     cy="381.26624"
     rx="2.3039923"
     ry="2.8839903"
     id="ellipse304"
     style="stroke-width:1.33333" /><ellipse
     transform="rotate(-89.323874)"
     fill="#19af7a"
     cx="-306.73642"
     cy="261.93393"
     rx="2.7945817"
     ry="2.2345989"
     id="ellipse305"
     style="stroke-width:1.33329" /><ellipse
     transform="rotate(-49.428536)"
     fill="#00a66b"
     cx="-61.041924"
     cy="405.06772"
     rx="2.8626845"
     ry="3.5226884"
     id="ellipse306"
     style="stroke-width:1.33334" /><ellipse
     transform="rotate(-57.193511)"
     fill="#75cfaf"
     cx="-109.97025"
     cy="401.23889"
     rx="1.9813207"
     ry="2.8773153"
     id="ellipse307"
     style="stroke-width:1.33332" /><ellipse
     transform="rotate(-21.636489)"
     fill="#00a66b"
     cx="101.1064"
     cy="382.26285"
     rx="2.2718976"
     ry="1.6572587"
     id="ellipse308"
     style="stroke-width:1.33327" /><ellipse
     transform="rotate(-51.720487)"
     fill="#00a66b"
     cx="-98.122032"
     cy="389.05563"
     rx="3.0733414"
     ry="3.4413424"
     id="ellipse309"
     style="stroke-width:1.33334" /><ellipse
     transform="rotate(-6.3212096)"
     fill="#45be93"
     cx="217.71783"
     cy="344.12592"
     rx="1.9706266"
     ry="2.7759435"
     id="ellipse310"
     style="stroke-width:1.33331" /><ellipse
     transform="rotate(-39.754221)"
     fill="#03a76c"
     cx="-0.46107018"
     cy="413.34171"
     rx="2.8120191"
     ry="3.3586895"
     id="ellipse311"
     style="stroke-width:1.33334" /><ellipse
     transform="rotate(-40.957393)"
     fill="#b5e5d4"
     cx="-1.8233304"
     cy="419.57571"
     rx="2.9626772"
     ry="3.3106787"
     id="ellipse312"
     style="stroke-width:1.33334" /><ellipse
     transform="rotate(-78.954122)"
     fill="#94dac1"
     cx="-257.85944"
     cy="339.01285"
     rx="2.4520645"
     ry="1.7280456"
     id="ellipse313"
     style="stroke-width:1.33337" /><ellipse
     transform="rotate(-79.956507)"
     fill="#00a66b"
     cx="-278.39642"
     cy="293.8002"
     rx="2.9200723"
     ry="3.1360774"
     id="ellipse314"
     style="stroke-width:1.33337" /><ellipse
     transform="rotate(-48.709513)"
     fill="#42bd91"
     cx="-79.225151"
     cy="402.87637"
     rx="2.4867535"
     ry="2.7160947"
     id="ellipse315"
     style="stroke-width:1.33338" /><ellipse
     transform="rotate(-71.186382)"
     fill="#abe2ce"
     cx="-224.11873"
     cy="351.14722"
     rx="2.19473"
     ry="2.8334153"
     id="ellipse316"
     style="stroke-width:1.33337" /><ellipse
     transform="rotate(-17.992855)"
     fill="#75cfaf"
     cx="156.05986"
     cy="392.80722"
     rx="2.7040141"
     ry="2.253345"
     id="ellipse317"
     style="stroke-width:1.33334" /><ellipse
     transform="rotate(-13.822232)"
     fill="#42bd91"
     cx="193.60088"
     cy="382.70993"
     rx="2.3758979"
     ry="1.6559289"
     id="ellipse318"
     style="stroke-width:1.33328" /><ellipse
     transform="rotate(-57.085419)"
     fill="#99dbc4"
     cx="-146.16589"
     cy="388.14459"
     rx="1.9520427"
     ry="2.9613981"
     id="ellipse319"
     style="stroke-width:1.33336" /><ellipse
     transform="rotate(-59.616953)"
     fill="#7ad1b2"
     cx="-158.28363"
     cy="389.67566"
     rx="1.9080809"
     ry="2.4521041"
     id="ellipse320"
     style="stroke-width:1.33339" /><ellipse
     transform="rotate(-34.875614)"
     fill="#69caa8"
     cx="27.27783"
     cy="425.6633"
     rx="2.1706789"
     ry="3.1506844"
     id="ellipse321"
     style="stroke-width:1.33334" /><ellipse
     transform="rotate(-40.302978)"
     fill="#00a66b"
     cx="-5.7617717"
     cy="432.59271"
     rx="2.1532354"
     ry="3.5065072"
     id="ellipse322"
     style="stroke-width:1.33327" /><path
     d="m 155.17333,219.28266 c 0.64267,-0.0173 1.16267,0.11867 1.52133,0.444 3.59467,3.26133 -14.24666,11.58133 -16.86933,12.96933 -9.176,4.85867 -18.356,9.712 -27.53867,14.55734 -14.514662,7.66 -28.890662,15.908 -43.769328,22.852 -3.084,1.43866 -15.108,9.69066 -25.693333,28.108 -12.028,20.92933 -22.729333,54.75466 -25.893333,101.78533 h -5.629333 c 0,0 9.124,-81.144 33.279999,-111.00933 15.964,-19.73734 26.570666,-25.47334 43.259999,-33.37867 16.533329,-7.832 32.505329,-17.02533 48.381329,-26.09333 2.41334,-1.376 14.12934,-10.104 18.95067,-10.23467 z"
     id="path322"
     style="stroke-width:1.33333;fill:#000000;fill-opacity:1" /><path
     d="m 289.63333,241.71599 c -0.016,0.10934 0.0147,0.24 0.0973,0.39467 2.96933,5.58667 17.61067,9.28267 23.38,11.928 6.17067,2.82933 12.408,5.564 18.48267,8.60133 3.34266,1.67067 17.42266,9.45867 27.18933,20.68667 8.20133,9.42667 12.452,21.92667 13.65466,28.94267 2.63467,15.372 10.11334,37.08399 10.32667,87.73199 h 4.792 c 0,0 -1.064,-52.15733 -10.72667,-89.04933 -9.66266,-36.892 -24.156,-39.96666 -45.67599,-53.14266 -7.72,-4.72667 -15.84534,-8.74934 -24.18667,-12.25067 -0.79067,-0.332 -17.03867,-5.856 -17.33333,-3.84267 z"
     id="path323"
     style="stroke-width:1.33333;fill:#000000;fill-opacity:1" /><path
     d="m 113.75733,399.99999 c 0,0 0.82267,-145.59733 -48.631998,-129.052 0,0 -0.204,-1.92933 6.384,-3.68666 6.587999,-1.75734 41.366668,-7.95467 47.807998,132.73866 z"
     id="path324"
     style="stroke-width:1.33333;fill:#000000;fill-opacity:1" /><path
     opacity="0.2"
     d="m 194.416,267.70666 c 3.63866,-0.69867 7.42533,-1.336 11.14266,-1.348 3.02533,-0.009 6.30133,0.352 8.812,-1.72667 1.73467,-1.436 2.296,-4.244 2.86267,-6.31866 0.552,-2.01867 1.6,-4.904 1.4,-7.03734 -0.152,-1.616 -1.692,-1.736 -2.79734,-2.856 -1.908,-1.93466 -1.68666,-2.728 -1.09733,-4.84533 0.556,-1.99733 1.66267,-3.99467 2.86933,-5.74533 1.45867,-2.11467 2.644,-4.55867 4.25067,-6.54 1.35867,-1.676 3.13333,-2.596 4.91733,-3.68534 -0.73066,-0.57066 -1.672,-1.03466 -2.42666,-1.64666 -1.31467,-1.06667 -2.956,-1.92267 -4.17067,-3.16667 -1.528,-1.564 -2.85467,-3.36667 -4.16133,-5.144 -2.52,-3.428 -5.51867,-6.572 -7.72267,-10.208 -2.592,-4.27467 -6.07127,-6.91039 -8.57794,-11.23439 -1.17333,-2.02534 -0.69832,-1.66267 -2.71123,-2.67694 -1.57825,-0.67633 -2.08808,-1.10893 -3.50941,-1.72359 -1.48133,-0.64 -2.27208,0.12026 -3.80142,0.94296 -1.532,0.824 -3.076,1.68267 -4.476,2.712 -2.604,1.91467 -5.13333,3.924 -7.668,5.92933 -2.73733,2.16534 -5.48133,4.32667 -8.332,6.36134 -4.71866,3.36666 -10.808,3.824 -15.70266,6.76933 -2.244,1.34933 -4.47734,2.76133 -6.07334,4.85467 -1.11333,1.46 -1.20933,3.316 -1.72266,4.98 -1.15067,3.732 -4.948,4.44666 -8.07067,6.08533 -3.16667,1.66133 -6.268,3.444 -9.35067,5.256 -7.81866,4.596 -15.412,9.41733 -23.54533,13.38 -8.691999,4.236 -17.493332,8.252 -26.426665,11.95467 -3.264,2.408 -14.224,10.27733 -17.274667,12.88266 -12.202666,10.424 -20.754666,24.37467 -26.779999,40.12134 -1.570666,3.272 -3.033333,6.63733 -4.378666,10.05733 -5.381334,13.676 -8.876,28.16133 -10.484,42.656 -0.872,4.87466 -1.66,9.44 -2.334667,13.35333 -1.349333,7.82667 -2.249333,13.044 -2.249333,13.044 l -1.177333,6.856 h 33.339999 c -0.585333,0 0.272,-19.50667 0.653333,-21.39467 2.753333,-13.65733 5.869333,-26.63066 12.809333,-38.88266 7.757333,-13.69467 15.721333,-27.84933 27.907999,-38.152 9.702667,-8.20267 21.631996,-13.03333 33.687996,-16.636 13.37467,-3.996 43.24,-10.73067 43.24,-10.73067 0,0 22.83734,49.48267 31.62134,60.02267 8.78399,10.54 28.69333,21.37466 28.69333,21.37466 0,0 -24.524,20.28267 -2.04934,44.39867 h 16.104 l -11.41866,-15.11867 2.34266,-14.34666 7.612,-7.612 c 3.91734,-2.22 8.384,-5.91867 12.66934,-7.15334 2.79866,-0.80666 6.276,-0.31333 9.23866,-0.652 4.15467,-0.476 8.29734,-1.168 12.49467,-0.97866 4.50133,0.20266 8.29467,2.50133 12.80933,3.23733 3.09734,0.50533 4.936,-1.19733 7.26134,-3.472 4.57466,-4.47467 9.92,-10.26 10.53333,-17.04 0.65333,-7.22 -7.53333,-3.968 -11.76533,-2.208 -10.47067,4.35467 -20.87867,8.16133 -32.12534,9.96933 -15.68133,2.52 -30.10666,-5.09866 -38.24266,-18.32933 -3.64,-5.91866 -7.29467,-10.71333 -10.03734,-17.18533 -2.80666,-6.62533 -5.53333,-13.284 -8.212,-19.96133 C 199.95866,282.02403 197.14,274.8827 194.416,267.7067 Z"
     id="path325"
     style="display:inline;fill:#000000;fill-opacity:1;stroke-width:1.33333"
     sodipodi:nodetypes="scccccccccccccccccccccccccccccccscccccsccscccccccccccccccccss" /><path
     fill="#7d7d7d"
     d="m 251.96399,352.59066 c -2.196,0 -5.176,-0.40667 -9.11066,-1.24134 -13.51467,-2.868 -43.488,-26.73599 -59.69333,-57.60666 -7.34267,-13.98933 -15.528,-27.60933 -22.75067,-39.62533 -8.05733,-13.40667 -15.668,-26.07067 -15.668,-29.22667 0,-5.02 7.30133,-10.45467 17.36133,-12.92133 3.736,-0.91734 8.26,-4.61067 13.49867,-8.888 3.39067,-2.76934 6.89733,-5.632 10.38933,-7.892 4.416,-2.85733 4.77981,-4.53568 6.57714,-4.53568 0.092,0 0.172,0.003 0.23867,0.008 -0.0253,0.10267 -1.19501,-0.43041 -0.124,0.38667 -0.712,1.32 -2.75314,12.45034 -1.86247,21.24501 1.016,10.03466 32.53599,89.74133 48.19733,113.22 2.956,4.43066 6.788,8.25599 10.168,11.63199 3.14266,3.13734 6.39333,6.38267 6.64266,8.18 0.348,2.5 0.74267,5.332 -0.13866,6.344 -0.66267,0.76134 -2.392,0.92134 -3.72534,0.92134 z"
     id="path327"
     style="stroke-width:1.33333"
     sodipodi:nodetypes="scccscccscccccccs" /><path
     d="m 192.808,212.09066 c 0.87866,8.67067 31.62133,87.94933 47.87199,112.31067 6.09334,9.13599 16.48534,16.02399 17.128,20.64533 1.072,7.70133 1.292,11.796 -15.372,8.25866 -13.61466,-2.89066 -44.35866,-26.83866 -61.04799,-58.63333 -16.68934,-31.79333 -38.64934,-63.17466 -38.64934,-69.78133 0,-6.60667 8.784,-12.38667 18.88534,-14.86533 5.55866,-1.36267 13.13946,-9.36025 21.86357,-16.04474 4.44639,-3.40687 8.2879,-4.86926 9.03916,-3.40369 0.98549,1.92251 -0.5974,12.84309 0.28127,21.51376 z m 61.34666,138.236 c 0.22933,-0.87334 -0.12933,-3.45067 -0.304,-4.70534 -0.28133,-1.27466 -3.632,-4.61866 -6.08,-7.06133 -3.44667,-3.44133 -7.35333,-7.34 -10.41867,-11.93733 -15.76133,-23.628 -47.49733,-103.98933 -48.52399,-114.128 -0.67467,-6.66267 0.0238,-12.39098 0.91773,-17.68148 -2.72035,1.92751 -3.68305,2.82848 -5.30875,4.03542 -3.25008,2.41289 -4.22232,3.04873 -7.57165,5.78206 -5.42533,4.43067 -10.112,8.25733 -14.28667,9.28133 -8.88133,2.17867 -15.83733,7.00134 -15.83866,10.93867 0.22933,3.02267 8.28133,16.41867 15.384,28.23867 7.236,12.03866 15.43733,25.68533 22.80666,39.72533 7.26134,13.83467 18.204,27.69867 30.81067,39.04133 12.55733,11.29867 22.67733,16.50933 27.52666,17.53867 3.744,0.79466 6.66934,1.19733 8.696,1.19733 1.33734,-0.001 1.96,-0.176 2.19067,-0.26533 z"
     id="path329"
     style="fill:#000000;fill-opacity:1;stroke-width:1.33333"
     sodipodi:nodetypes="sccccscsssccccscsccccccscc" /><path
     d="M 275.14533,231.76133"
     id="path330"
     style="stroke-width:1.33333" /><path
     fill="#7d7d7d"
     d="m 269.73999,353.95332 c -1.96,0 -2.4,-0.412 -2.404,-0.416 -0.46266,-1.39466 4.02934,-7.25066 6.71334,-10.75066 1.572,-2.05067 3.19866,-4.16934 4.72,-6.33467 1.32666,-1.88933 5.36533,-7.63733 0.80266,-55.23066 -2.09333,-21.83334 -4.35066,-44.72667 -4.74533,-47.424 0.184,-1.50267 0.79867,-1.756 1.844,-1.68134 2.15467,0.15334 5.732,2.10667 9.336,5.09867 3.20133,2.65733 10.008,5.08533 15.944,7.19467 4.132,1.468 11.32267,2.952 12.45467,4.17066 1.136,4.972 -3.904,58.648 -6.74534,75.54267 -1.13333,6.74 -5.92266,13.73866 -13.48533,19.70666 -6.95067,5.48534 -15.20933,9.216 -22.09467,9.98 -0.876,0.0947 -1.664,0.144 -2.34,0.144 z"
     id="path331"
     style="stroke-width:1.33333" /><path
     opacity="0.2"
     d="m 274.22266,346.11466 c -0.1,-1.03334 -0.0147,-2.072 0.19467,-2.864 0.68133,-2.592 2.856,-4.668 4.35333,-6.8 1.32667,-1.88934 5.36533,-7.63733 0.80267,-55.23067 -2.09334,-21.83333 -4.35067,-44.72666 -4.74534,-47.424 0.18267,-1.50266 0.79867,-1.756 1.84267,-1.68133 2.00267,0.14133 4.368,1.4 6.164,2.41733 2.136,1.21067 4.91467,2.49734 6.864,3.88667 -0.62933,1.51333 -1.60267,2.16 -2.00267,3.85467 -0.552,2.34 -1.37333,6.24266 -0.972,8.37866 0.62134,3.312 1.504,6.58534 2.11734,9.93867 1.23466,6.74533 2.01866,13.52667 2.98,20.31733 0.82,5.792 0.472,11.964 0.216,17.77467 -0.36,8.17067 -0.85867,16.34267 -1.23734,24.50533 -0.244,5.248 -1.44133,9.53334 -3.54133,14.23867 -1.752,3.92533 -2.19867,8.72266 -5.69733,11.72133 -1.07867,0.92533 -2.912,1.232 -4.372,1.06133 -1.932,-0.22533 -2.77867,-2.15066 -2.96667,-4.09466 z"
     id="path332"
     style="stroke-width:1.33333;fill:#000000;fill-opacity:1" /><path
     d="m 287.32799,235.25866 c 1.55334,0.848 3.13867,1.636 4.74667,2.37333 4.64267,2.12934 9.45867,3.84667 14.292,5.484 2.76533,0.93734 8.41333,1.62 9.85333,4.58534 1.75734,3.616 -3.95333,61.07866 -6.588,76.75066 -2.63466,15.672 -22.83733,29.736 -37.332,31.34267 -14.49466,1.60666 -3.07466,-9.24267 4.83067,-20.49334 7.90267,-11.24799 -6.51535,-102.04058 -6.99327,-103.12667 -1.28876,-1.87333 -1.62802,-3.05408 0.1147,-3.17008 2.98666,-0.19867 11.36662,2.80476 13.75729,4.31009 1.088,0.68267 2.19466,1.32933 3.31866,1.944 z m -15.46666,116.56 c 13.35466,-1.48134 31.58666,-14.70667 33.828,-28.03067 2.69866,-16.05066 7.432,-65.64266 6.84,-74.05733 -0.0493,-0.69333 -2.62534,-1.176 -3.112,-1.30267 -4.77734,-1.24666 -9.432,-3.45333 -13.94267,-5.44133 -2.94933,-1.3 -5.86933,-2.664 -8.75867,-4.09067 -2.67866,-1.32266 -5.252,-2.92533 -7.98666,-4.11066 -0.136,-0.0587 -3.60318,-1.35401 -2.7536,-0.969 1.76568,3.80515 3.60026,26.45033 5.5896,47.21166 4.63333,48.33067 0.42666,54.31733 -1.15734,56.572 -1.544,2.19867 -3.18266,4.33333 -4.76666,6.4 -1.86134,2.42667 -4.45067,5.804 -5.64934,7.95067 0.544,-0.0107 1.17334,-0.0547 1.86934,-0.132 z"
     id="path333"
     style="fill:#000000;fill-opacity:1;stroke-width:1.33333"
     sodipodi:nodetypes="ccccssccccccccccscccccccc" /><path
     fill="#fbb03b"
     d="m 241.05866,399.99999 c -5.032,-4.192 -8.128,-9.87333 -8.128,-16.13333 0,-12.89334 13.108,-23.34534 29.27867,-23.34534 16.17066,0 29.27866,10.452 29.27866,23.34534 0,6.26133 -3.09733,11.94133 -8.128,16.13333 h 10.14267 c 2.98267,-4.76133 4.69467,-10.264 4.69467,-16.13333 0,-18.05067 -16.112,-32.684 -35.988,-32.684 -19.876,0 -35.988,14.63333 -35.988,32.684 0,5.86933 1.712,11.372 4.69466,16.13333 z"
     id="path334"
     style="stroke-width:1.33333" /><path
     opacity="0.2"
     d="m 295.81199,379.54932 c 0,-12.89333 -13.108,-23.34533 -29.27866,-23.34533 -10.508,0 -19.71867,4.41733 -24.884,11.04667 5.28666,-4.16 12.54666,-6.72934 20.56,-6.72934 16.17066,0 29.27866,10.452 29.27866,23.34534 0,4.51466 -1.612,8.72666 -4.39466,12.29866 5.38,-4.23333 8.71866,-10.11333 8.71866,-16.616 z"
     id="path335"
     style="stroke-width:1.33333" /><path
     opacity="0.2"
     d="m 238.47066,399.99999 c -4.95467,-5.6 -7.92533,-12.70933 -7.92533,-20.452 0,-7.41733 2.724,-14.25333 7.308,-19.73867 -7.14934,5.97334 -11.632,14.53867 -11.632,24.056 0,5.86934 1.712,11.37334 4.69466,16.13334 h 7.55467 z"
     id="path336"
     style="stroke-width:1.33333" /><path
     d="m 232.97466,399.99999 c -3.48933,-4.90267 -5.52267,-10.72933 -5.52267,-16.98 0,-17.34533 15.592,-31.45467 34.75734,-31.45467 19.16533,0 34.75733,14.11067 34.75733,31.45467 0,6.252 -2.03467,12.07867 -5.52267,16.98 h 3.496 c 2.86134,-4.8 4.488,-10.29733 4.488,-16.13333 0,-18.7 -16.696,-33.91334 -37.21866,-33.91334 -20.52267,0 -37.21867,15.21334 -37.21867,33.91334 0,5.836 1.62667,11.33333 4.48933,16.13333 z"
     id="path337"
     style="stroke-width:1.33333;fill:#000000;fill-opacity:1" /><path
     d="m 234.16133,383.86666 c 0,-12.19467 12.58266,-22.11734 28.048,-22.11734 15.46533,0 28.04666,9.92134 28.04666,22.11734 0,6.36533 -3.448,12.09466 -8.92533,16.13333 h 2.9 c 5.25067,-4.416 8.48667,-10.39733 8.48667,-16.98 0,-13.55067 -13.68667,-24.57467 -30.50934,-24.57467 -16.82266,0 -30.50933,11.024 -30.50933,24.57467 0,6.58267 3.236,12.564 8.48667,16.98 h 2.9 c -5.476,-4.03867 -8.924,-9.768 -8.924,-16.13333 z"
     id="path338"
     style="stroke-width:1.33333;fill:#000000;fill-opacity:1" /><path
     fill="#fbb03b"
     d="m 250.10533,399.99999 c -10.128,-3.67333 -17.17467,-11.80533 -17.17467,-21.256 0,-12.89333 13.108,-23.34533 29.27867,-23.34533 16.17066,0 29.27866,10.452 29.27866,23.34533 0,9.45067 -7.04666,17.58267 -17.17466,21.256 h 15.22133 c 5.396,-5.716 8.66267,-13.13733 8.66267,-21.256 0,-18.05067 -16.112,-32.684 -35.988,-32.684 -19.876,0 -35.988,14.63333 -35.988,32.684 0,8.11867 3.26666,15.54 8.66266,21.256 z"
     id="path339"
     style="stroke-width:1.33333" /><path
     opacity="0.2"
     d="m 295.81199,374.42666 c 0,-12.89334 -13.108,-23.34534 -29.27866,-23.34534 -10.508,0 -19.72,4.41734 -24.884,11.04667 5.28666,-4.16 12.54666,-6.72933 20.56,-6.72933 16.17066,0 29.27866,10.452 29.27866,23.34533 0,4.51467 -1.612,8.72667 -4.39466,12.29867 5.38,-4.232 8.71866,-10.112 8.71866,-16.616 z"
     id="path340"
     style="stroke-width:1.33333;fill:#000000;fill-opacity:1" /><path
     opacity="0.2"
     d="m 244.13599,399.99999 c -8.27866,-5.988 -13.59066,-15.21467 -13.59066,-25.57333 0,-7.41734 2.724,-14.25334 7.308,-19.73867 -7.14934,5.97333 -11.632,14.53867 -11.632,24.056 0,8.11867 3.26666,15.54 8.66266,21.256 z"
     id="path341"
     style="stroke-width:1.33333;fill:#000000;fill-opacity:1" /><path
     opacity="0.2"
     d="m 289.53733,399.99999 c 0.46666,-0.49333 0.91866,-0.99867 1.352,-1.51733 -0.632,0.528 -1.292,1.03066 -1.96534,1.51733 z"
     id="path342"
     style="stroke-width:1.33333" /><path
     d="m 234.16133,378.74399 c 0,-12.19467 12.58266,-22.116 28.048,-22.116 15.46533,0 28.04666,9.92133 28.04666,22.116 0,10.09733 -8.636,18.61733 -20.38133,21.256 h 4.62533 c 10.71734,-3.816 18.21867,-12.456 18.21867,-22.48533 0,-13.55067 -13.68667,-24.57334 -30.50933,-24.57334 -16.82267,0 -30.50934,11.024 -30.50934,24.57334 0,10.02933 7.50134,18.66933 18.21867,22.48533 h 4.62533 c -11.74666,-2.63867 -20.38266,-11.15867 -20.38266,-21.256 z"
     id="path343"
     style="stroke-width:1.33333;fill:#000000;fill-opacity:1" /><path
     d="m 237.93599,399.99999 c -6.46266,-5.71467 -10.48533,-13.68133 -10.48533,-22.48533 0,-17.344 15.592,-31.45467 34.75733,-31.45467 19.16534,0 34.75734,14.11067 34.75734,31.45467 0,8.804 -4.02267,16.76933 -10.48534,22.48533 h 4.69867 c 5.15333,-5.82 8.248,-13.21333 8.248,-21.256 0,-18.7 -16.696,-33.912 -37.21867,-33.912 -20.52266,0 -37.21866,15.21333 -37.21866,33.912 0,8.04267 3.09466,15.436 8.248,21.256 z"
     id="path344"
     style="stroke-width:1.33333;fill:#000000;fill-opacity:1" /><path
     fill="#7d7d7d"
     d="m 265.85333,372.61599 c -2.24934,0 -4.82134,-0.10533 -7.54534,-0.216 0,0 -2.97466,-0.11733 -2.97466,-0.11733 -2.74267,-0.108 -10.884,-1.192 -10.87467,-5.34534 0.005,-1.84266 2.632,-2.9 3.76267,-4.03066 2.61733,-2.61734 1.80933,-8.788 0.168,-18.64 -0.64534,-3.87467 -1.25467,-7.53334 -1.25467,-9.872 0,-2.08533 0.52267,-2.48 3.288,-2.48 0.892,0 1.9,0.0613 2.96667,0.128 1.23866,0.076 2.52,0.15467 3.848,0.15467 1.85733,0 3.44533,-0.164 4.85333,-0.49867 2.50933,-0.59733 4.5,-0.876 6.26667,-0.876 3.07333,0 5.75733,0.82533 9.56933,2.944 4.83867,2.68666 6.256,18.75333 2.66133,30.16133 -2.34,7.43333 -6.43733,8.688 -14.73466,8.688 z"
     id="path345"
     style="stroke-width:1.33333" /><path
     opacity="0.2"
     d="m 265.85333,372.61599 c -2.24934,0 -4.82134,-0.10533 -7.54534,-0.216 0,0 -2.97466,-0.11733 -2.97466,-0.11733 -2.892,-0.10667 -8.708,-0.53867 -9.31867,-4.12134 -0.636,-3.74 3.42667,-5.69333 4,-9.10266 0.57867,-3.43867 -0.40133,-6.92934 -0.90667,-10.31067 -0.412,-2.75467 -2.048,-6.744 -0.91466,-9.44133 1.072,-2.552 4.992,-4.472 7.344,-1.94 2.384,2.56533 1.63866,7.01333 1.99733,10.16533 0.8,7.016 1.33067,13.844 11.116,14.74133 4.828,0.44267 7.70933,-1.948 11.90667,-3.296 1.444,1.424 0.54266,3.336 0.0333,4.95067 -2.34267,7.43333 -6.44,8.688 -14.73733,8.688 z"
     id="path346"
     style="stroke-width:1.33333;fill:#000000;fill-opacity:1" /><path
     d="m 261.47999,329.77066 c 7.28534,-1.73467 11.448,-1.156 17.69334,2.312 6.244,3.468 7.28533,20.81066 3.64266,32.372 -3.64266,11.56133 -11.96933,10.40533 -27.58,9.82666 -2.80533,-0.104 -5.696,-0.78666 -8.44933,-1.36 -2.06,-0.42933 -5.3,-2.81866 -4.77467,-5.46133 0.22267,-1.11867 1.968,-2.02267 2.752,-2.78533 3.93467,-3.82134 2.90667,-9.83067 2.20134,-14.728 -0.73734,-5.12534 -2.13734,-10.35334 -2.13734,-15.55334 0,-7.51333 9.36667,-2.88933 16.652,-4.62266 z m 16.884,33.62933 c 3.892,-12.34933 1.25867,-26.31733 -1.68,-27.94933 -3.404,-1.89067 -5.73733,-2.628 -8.32533,-2.628 -1.55333,0 -3.352,0.256 -5.656,0.80533 -1.61067,0.38267 -3.39733,0.56933 -5.464,0.56933 -1.40933,0 -2.792,-0.0853 -4.01067,-0.16 -1.024,-0.0627 -1.992,-0.12266 -2.804,-0.12266 -0.432,0 -0.74266,0.0173 -0.95866,0.0387 -0.012,0.116 -0.0213,0.26267 -0.0213,0.44267 0,2.19467 0.62534,5.952 1.23067,9.58533 0.81067,4.87467 2,10.11067 1.436,15.07734 -0.18933,1.668 -0.67733,3.048 -1.548,4.468 -0.97733,1.592 -2.52667,3.704 -0.81333,5.424 1.26666,1.27066 4.012,1.27333 5.684,1.336 l 2.984,0.11733 c 2.81333,0.11467 5.244,0.21333 7.43866,0.21333 7.804,-0.001 10.548,-0.996 12.508,-7.21733 z"
     id="path347"
     style="stroke-width:1.33333;fill:#000000;fill-opacity:1" /><path
     id="path348"
     style="stroke-width:1.33333;fill:#000000;fill-opacity:1;opacity:0.2"
     d="m 364.97199,399.99999 c 0,0 -7.02667,-70.74933 -7.90533,-76.89866 -0.87867,-6.14934 2.34266,-16.396 2.34266,-16.396 0,0 15.408,60.68799 17.81734,93.29466 z m -113.008,-47.40933 c -2.196,0 -5.176,-0.40667 -9.11066,-1.24134 -13.51467,-2.868 -43.488,-26.73599 -59.69333,-57.60666 -7.34267,-13.98933 -15.528,-27.60933 -22.75067,-39.62533 -8.05733,-13.40667 -15.668,-26.07067 -15.668,-29.22667 0,-5.02 7.30133,-10.45467 17.36133,-12.92133 3.736,-0.91734 8.26,-4.61067 13.49867,-8.888 3.39067,-2.76934 6.89733,-5.632 10.38933,-7.892 4.416,-2.85733 8.36134,-4.15867 10.15867,-4.15867 0.092,0 0.172,0.003 0.23867,0.008 -0.0253,0.10267 -0.064,0.22934 -0.124,0.38667 -1.916,3.55333 -3.43334,7.39733 -4.44934,11.30266 -1.56666,6.02 -0.64,11.012 0.468,16.96934 -1.53066,-1.29734 -2.96133,-2.564 -5.008,-2.29867 -2.316,0.30133 -3.80933,1.87333 -4.85333,3.85867 -6.072,11.55333 -0.45467,24.60533 4.77867,35.28266 5.24,10.692 12.552,20.16667 19.48266,29.788 6.02667,8.36534 11.89467,16.96934 15.88267,26.52534 2.704,6.47866 4.72666,13.652 9.98,18.308 2.056,1.82266 4.38933,3.28933 6.83466,4.52933 0.836,0.424 2.18267,1.39733 3.164,1.02266 0.988,-0.37733 0.97467,-2.128 1.924,-2.568 1.26667,-0.58666 3.01067,1.49867 3.756,2.1 2.316,1.86667 5.86934,3.20934 7.03067,6.17334 0.85467,2.18133 2.19867,7.22533 0.43733,9.24933 -0.66533,0.76267 -2.39466,0.92267 -3.728,0.92267 z m -136.45333,46.63866 c 0,0 2.196,-56.656 -9.66266,-90.03466 0,0 30.73333,44.14533 36.45333,90.80666 h -25.444" /><path
     d="m 367.06399,399.99999 h -4.00533 c 0,0 -1.78,-53.47467 -8.91067,-77.19066 0,0 2.92,-22.39867 4.23733,-45.23734 l 3.07467,2.196 c 0,0 0.43867,11.85867 -2.97067,42.16267 -0.003,0 6.71334,30.19733 8.57467,78.06933 z"
     id="path349"
     style="stroke-width:1.33333;fill:#000000;fill-opacity:1" /></g></svg>
