<?xml version="1.0" encoding="UTF-8" standalone="no"?>
<!-- Generator: Adobe Illustrator 27.5.0, SVG Export Plug-In . SVG Version: 6.00 Build 0)  -->

<svg
   version="1.1"
   id="Layer_1"
   x="0px"
   y="0px"
   viewBox="0 0 400 400"
   enable-background="new 0 0 400 400"
   xml:space="preserve"
   sodipodi:docname="SnwDelta.svg"
   inkscape:version="1.3.2 (091e20e, 2023-11-25)"
   xmlns:inkscape="http://www.inkscape.org/namespaces/inkscape"
   xmlns:sodipodi="http://sodipodi.sourceforge.net/DTD/sodipodi-0.dtd"
   xmlns="http://www.w3.org/2000/svg"
   xmlns:svg="http://www.w3.org/2000/svg"><defs
   id="defs214">
	
	
</defs><sodipodi:namedview
   id="namedview212"
   pagecolor="#ffffff"
   bordercolor="#666666"
   borderopacity="1.0"
   inkscape:showpageshadow="2"
   inkscape:pageopacity="0.0"
   inkscape:pagecheckerboard="0"
   inkscape:deskcolor="#d1d1d1"
   showgrid="false"
   inkscape:zoom="2.12"
   inkscape:cx="198.11321"
   inkscape:cy="195.99057"
   inkscape:window-width="1920"
   inkscape:window-height="1080"
   inkscape:window-x="2383"
   inkscape:window-y="173"
   inkscape:window-maximized="0"
   inkscape:current-layer="layer2" />

<g
   inkscape:groupmode="layer"
   id="layer2"
   inkscape:label="Base Insignia"><path
     style="color:#000000;fill:#d7d7d7;stroke:#000000;stroke-opacity:1;stroke-width:2;stroke-dasharray:none"
     d="m 297.42242,393.25807 c -3.22268,0.54853 0.98394,-32.2306 10.54414,-68.11991 4.96887,-18.65333 18.74194,-51.05487 21.30733,-51.30065 5.37762,-0.5152 21.83531,30.20652 30.26962,54.63115 9.47596,27.44109 15.38992,54.84663 13.15031,55.68407 -3.97026,1.48459 -16.29462,-31.97636 -29.15944,-32.1801 -10.02907,-0.15883 -41.67228,40.52977 -46.11196,41.28544 z"
     id="path2" /><path
     style="color:#000000;fill:#eebf05;-inkscape-stroke:none;fill-opacity:1"
     d="m 331.16192,280.13251 c -7.92162,12.82335 -12.30592,28.35972 -16.92091,41.94347 -12.1278,36.19693 -13.85541,60.51121 -12.75238,61.72798 2.30604,2.52162 25.94001,-34.60631 40.65704,-35.23564 16.33033,-1.08401 24.09536,23.32822 25.85608,23.32822 0.93829,0 -4.07876,-19.98845 -17.03078,-55.26218 -5.30278,-14.36787 -18.94098,-37.90707 -19.80905,-36.50185 z"
     id="path6" /><path
     style="fill:#ffffff;fill-opacity:0.5;stroke:none;stroke-width:1px;stroke-linecap:butt;stroke-linejoin:miter;stroke-opacity:1"
     d="m 312.02754,329.53844 c 0,0 -4.53449,20.82781 -6.1705,31.35285 -0.82505,5.30784 -1.83448,16.00997 -1.83448,16.00997 0,0 8.60396,-10.39927 13.50841,-15.00935 5.0164,-4.71532 10.00153,-9.79743 16.17674,-12.84132 3.28936,-1.6214 7.0126,-2.88743 10.67331,-2.66833 5.74393,0.34379 9.83945,6.00374 9.83945,6.00374 l -5.64833,-2.70425 -5.02498,-1.13147 -8.50529,2.00124 -12.50779,10.67331 -15.34288,17.5109 -5.00311,5.16989 -1.33417,-1.00063 1.1674,-12.17424 5.33665,-25.01557 z"
     id="path4"
     sodipodi:nodetypes="cscsssccccccccccc" /><path
     style="color:#000000;fill:#000000;-inkscape-stroke:none"
     d="m 331.32812,279.42383 c -0.23911,-0.0175 -0.58832,0.15606 -0.71875,0.36719 -7.98862,12.93181 -12.37761,28.51664 -16.98437,42.07617 v 0.002 c -6.07487,18.1312 -9.54732,33.28934 -11.36328,44.08008 -0.90798,5.39537 -1.40129,9.69764 -1.59961,12.74414 -0.0992,1.52325 -0.12598,2.73022 -0.0898,3.61914 0.0181,0.44446 0.0523,0.8093 0.10546,1.10937 0.0532,0.30008 0.0661,0.52716 0.33008,0.81836 v 0.002 h 0.002 c 0.18571,0.20308 0.48143,0.32566 0.73632,0.33398 0.2549,0.008 0.47169,-0.0588 0.67969,-0.15039 0.416,-0.18316 0.82071,-0.48583 1.29297,-0.89453 0.94453,-0.81739 2.12158,-2.07433 3.51367,-3.65039 2.78418,-3.15211 6.40852,-7.57134 10.41602,-12.08203 4.0075,-4.5107 8.39819,-9.11062 12.67187,-12.60156 4.27368,-3.49095 8.4394,-5.83448 11.85352,-5.98047 h 0.008 0.008 c 7.8366,-0.5202 13.66734,5.09093 17.81641,10.98242 2.07453,2.94574 3.70755,5.93872 4.9375,8.20898 0.61497,1.13513 1.1267,2.0869 1.55859,2.78321 0.21595,0.34815 0.40921,0.63233 0.61133,0.86132 0.20212,0.229 0.40312,0.49415 0.88867,0.49414 0.3178,0 0.58856,-0.27716 0.66211,-0.43945 0.0736,-0.16229 0.0829,-0.27611 0.0918,-0.39453 0.0178,-0.23684 -2.3e-4,-0.49151 -0.0391,-0.82031 -0.0777,-0.6576 -0.25239,-1.58826 -0.52539,-2.8125 -0.546,-2.44849 -1.49241,-6.05733 -2.87305,-10.76953 -2.76128,-9.42442 -7.25599,-23.25175 -13.73633,-40.90039 h -0.002 c -2.67414,-7.24557 -7.41681,-16.73175 -11.60938,-24.25782 -2.09628,-3.76303 -4.0514,-7.03148 -5.55078,-9.28906 -0.74969,-1.12879 -1.38157,-2.00236 -1.88476,-2.58203 -0.2516,-0.28984 -0.458,-0.50478 -0.70704,-0.66992 -0.12451,-0.0826 -0.26088,-0.16999 -0.5,-0.1875 z m 0.10157,1.58789 c 0.0527,0.0547 0.0648,0.0537 0.125,0.12305 0.42951,0.49478 1.04743,1.34236 1.78125,2.44726 1.46764,2.2098 3.41538,5.46103 5.5,9.20313 4.16923,7.48418 8.89675,16.95193 11.52539,24.07421 6.47167,17.62505 10.96026,31.42819 13.71094,40.81641 1.37533,4.69411 2.316,8.28585 2.85156,10.6875 0.13847,0.62098 0.17522,0.92835 0.25976,1.38672 -0.33043,-0.57629 -0.6535,-1.14112 -1.09765,-1.96094 -1.23152,-2.27315 -2.88948,-5.31608 -5.01758,-8.33789 -4.25587,-6.04313 -10.47021,-12.09397 -18.96289,-11.53125 h -0.002 c -3.94078,0.17379 -8.24147,2.70676 -12.60547,6.27149 -4.36891,3.56873 -8.79145,8.20939 -12.82032,12.74414 -4.02886,4.53474 -7.66425,8.96415 -10.41992,12.08398 -1.37783,1.55991 -2.54184,2.79645 -3.38867,3.5293 -0.39943,0.34566 -0.71512,0.55291 -0.91211,0.64844 -4.3e-4,-0.002 4.2e-4,3.8e-4 0,-0.002 -0.0368,-0.20744 -0.0694,-0.52802 -0.0859,-0.93554 -0.0331,-0.81506 -0.009,-1.98953 0.0879,-3.48243 0.19437,-2.98579 0.68393,-7.25142 1.58594,-12.61132 1.80397,-10.71944 5.25997,-25.81599 11.3125,-43.88086 v -0.002 c 4.56081,-13.42447 8.91521,-28.65542 16.57227,-41.27148 z"
     id="path7" /></g><g
   id="g41081"
   inkscape:label="Science"
   style="display:none"><path
     id="path18248"
     style="color:#000000;display:inline;fill:#000000;stroke-width:1.85433;stroke-miterlimit:40;-inkscape-stroke:none"
     d="m 333.80329,316.98745 c -7.50792,0 -13.61047,6.15944 -13.61047,13.71187 0,7.55239 6.10255,13.70826 13.61047,13.70826 7.5079,0 13.61046,-6.15587 13.61046,-13.70826 0,-7.55243 -6.10256,-13.71187 -13.61046,-13.71187 z m 0,2.48089 c 5.07005,0 9.33604,3.39824 10.68411,8.07282 -0.62793,-0.69531 -1.447,-1.30323 -2.38672,-1.80724 -2.17714,-1.16759 -5.08974,-1.85433 -8.29739,-1.85433 -3.20766,0 -6.12026,0.68674 -8.29739,1.85433 -0.93973,0.50401 -1.7588,1.11193 -2.38671,1.80724 1.34807,-4.67458 5.61404,-8.07282 10.6841,-8.07282 z m 0,6.04829 c 2.97049,0 5.65075,0.65501 7.52234,1.65875 1.87159,1.00375 2.84667,2.27954 2.84667,3.52394 0,1.2444 -0.97508,2.51658 -2.84667,3.52033 -1.87159,1.00374 -4.55185,1.65875 -7.52234,1.65875 -2.9705,0 -5.65073,-0.65501 -7.52233,-1.65875 -1.87158,-1.00375 -2.84669,-2.27593 -2.84669,-3.52033 0,-1.2444 0.97511,-2.52019 2.84669,-3.52394 1.8716,-1.00374 4.55183,-1.65875 7.52233,-1.65875 z m -10.6841,8.3336 c 0.62813,0.69536 1.44611,1.30641 2.38671,1.81087 2.17713,1.1676 5.08973,1.85432 8.29739,1.85432 3.20765,0 6.12025,-0.68672 8.29739,-1.85432 0.94059,-0.50446 1.75857,-1.11551 2.38672,-1.81087 -1.34592,4.67721 -5.61164,8.07646 -10.68411,8.07646 -5.07248,0 -9.3382,-3.39925 -10.6841,-8.07646 z" /></g><g
   id="g41844"
   inkscape:label="Engineering"
   style="display:none"><path
     style="display:inline;fill:#000000;fill-opacity:1;stroke:none;stroke-width:2.05242px;stroke-linecap:butt;stroke-linejoin:miter;stroke-opacity:1"
     d="m 332.22662,328.30681 3.48221,5.75541 8.45048,-1.4464 0.39294,-12.74753 -9.02541,-5.3058 -11.73749,7.10295 1.90923,15.51251 c 0,0 8.7894,3.50406 12.17137,4.29578 3.38196,0.79173 7.87558,1.20773 7.87558,1.20773 v -0.51947 c 0,0 -9.78395,-4.12943 -12.9994,-6.5148 -3.21547,-2.38539 -4.94349,-4.83086 -5.13831,-8.0154 -0.19477,-3.18454 1.5707,-6.6667 3.81846,-8.12745 2.24775,-1.46076 4.6722,-1.47793 6.68232,-0.46408 2.01013,1.01386 3.40643,2.53957 3.76179,4.60308 0.35536,2.0635 0.37606,3.93989 -0.8268,5.78435 -1.20286,1.84447 -3.30592,1.29522 -4.71766,0.39418 -1.41176,-0.90105 -2.99043,-3.14468 -2.99043,-3.14468 z"
     id="path18493"
     sodipodi:nodetypes="ccccccczcczzzzzzzcc" /></g><g
   id="g6426"
   inkscape:label="Command"
   style="display:inline"><path
     d="m 332.69916,288.54111 5.64986,39.78369 6.94293,0.11658 -4.90609,4.9687 2.64401,9.09355 -6.96718,-6.35307 -5.8564,6.94524 1.43774,-9.522 -6.33469,-4.6963 7.20595,-0.34219 z"
     style="display:inline;fill:#000000;fill-opacity:1;fill-rule:nonzero;stroke:none;stroke-width:1.94912"
     id="path2508"
     sodipodi:nodetypes="ccccccccccc" /></g></svg>
