<?xml version="1.0" encoding="UTF-8" standalone="no"?>
<!-- Created with Inkscape (http://www.inkscape.org/) -->

<svg
   version="1.1"
   id="svg1152"
   width="400"
   height="400"
   viewBox="0 0 400 400"
   sodipodi:docname="OriginalSeriesAverageMale.svg"
   inkscape:version="1.3 (0e150ed, 2023-07-21)"
   xml:space="preserve"
   xmlns:inkscape="http://www.inkscape.org/namespaces/inkscape"
   xmlns:sodipodi="http://sodipodi.sourceforge.net/DTD/sodipodi-0.dtd"
   xmlns="http://www.w3.org/2000/svg"
   xmlns:svg="http://www.w3.org/2000/svg"><defs
     id="defs1156" /><sodipodi:namedview
     id="namedview1154"
     pagecolor="#ffffff"
     bordercolor="#666666"
     borderopacity="1.0"
     inkscape:showpageshadow="2"
     inkscape:pageopacity="0.0"
     inkscape:pagecheckerboard="0"
     inkscape:deskcolor="#d1d1d1"
     showgrid="false"
     inkscape:zoom="2.0875"
     inkscape:cx="200"
     inkscape:cy="200"
     inkscape:window-width="1920"
     inkscape:window-height="1080"
     inkscape:window-x="2312"
     inkscape:window-y="209"
     inkscape:window-maximized="0"
     inkscape:current-layer="g1160"><inkscape:page
       x="0"
       y="0"
       id="page1158"
       width="400"
       height="400"
       margin="0"
       bleed="0" /></sodipodi:namedview><g
     inkscape:groupmode="layer"
     id="layer5"
     inkscape:label="Neck"><path
       d="m 213.63253,151.29441 -13.54934,47.14666 c 0,0 -9.09866,12.312 -5.11733,20.18133 3.30934,6.54134 11.664,13.756 15.768,16.768 9.03733,6.63734 27.30133,15.592 38.17467,17.004 l 11.33066,-1.564 2.82534,-2.824 5.224,-2.25866 3.81333,-10.87467 18.428,-23.08667 z"
       style="fill:#cd976d;fill-opacity:1;fill-rule:nonzero;stroke:none;stroke-width:1.33333"
       id="path2468" /><path
       d="m 200.08306,198.44081 c 0,0 -8.332,14.43066 -4.03466,22.58666 1.244,2.35867 7.89599,7.77733 9.01066,9.00933 1.99467,2.20534 15.87467,-2.31466 23.512,-1.91333 11.39067,0.59733 25.19333,0.15733 29.89067,1.56667 6.33866,1.90133 13.09866,2.66533 15.47066,2.89066 l 16.59734,-20.79333 -76.89734,-60.49333 z"
       style="opacity:0.199997;fill:#000000;fill-opacity:1;fill-rule:nonzero;stroke:none;stroke-width:1.33333"
       id="path2478" /><path
       d="m 211.64493,149.52841 c -1.01067,4.99733 -6.2,23.82533 -7.36934,28.788 -0.956,4.064 -1.95733,8.11866 -3.072,12.14266 -0.516,1.85867 -1.07466,3.70267 -1.63333,5.54934 -0.18666,0.616 -0.95466,1.86266 -0.88133,2.47466 0.02,0.16934 0.80667,2.38267 1.11067,1.93733 3.68799,-5.38666 5.03733,-14.18666 7.12666,-20.38133 1.49067,-4.41866 7.06133,-22.68666 8.552,-27.104 0,0 -3.83333,-3.40666 -3.83333,-3.40666"
       style="fill:#000000;fill-opacity:1;fill-rule:nonzero;stroke:none;stroke-width:1.33333"
       id="path2488" /><path
       d="m 293.27599,213.31907 c -2.83733,2.044 -16.28266,19.912 -18.592,22.53067 -1.87866,2.13066 -4.41733,10.85066 -7.52933,10.948 -2.104,0.0653 -1.74133,-3.72534 -1.19333,-5.332 0.26266,-0.76934 21.288,-30.90934 21.288,-30.90934 0,0 6.02666,2.76267 6.02666,2.76267"
       style="fill:#000000;fill-opacity:1;fill-rule:nonzero;stroke:none;stroke-width:1.33333"
       id="path2492" /></g><g
     id="g1160"
     inkscape:groupmode="layer"
     inkscape:label="Uniform"><path
       d="m 12.988266,400.02293 c 3.601334,-23.004 7.344,-48.092 12.261333,-71.20666 1.657334,-7.79067 3.424,-15.36 6.772,-22.336 6.34,-13.20667 17.813333,-23.12533 29.266666,-31.87733 16.938666,-12.94134 36.518666,-25.57467 59.858665,-38.62 11.77467,-6.58134 25.828,-14.06267 40.77867,-19.65467 0.91733,-0.34267 1.83866,-0.67867 2.75866,-1.01467 3.17867,-1.16133 6.46667,-2.36266 9.60934,-3.84 3.948,-1.85333 7.37866,-4.39866 10.696,-6.85866 l 0.13866,-0.10267 c 0.45734,-0.33867 0.79734,-0.74 1.09734,-1.09467 0.22266,-0.26266 0.43333,-0.512 0.64133,-0.672 l 1.61867,-1.22933 c 1.23466,-0.93467 2.468,-1.868 3.672,-2.84266 2.172,-1.756 4.12666,-3.348 6.06266,-5.056 0.0547,-0.048 0.124,-0.0733 0.19467,-0.0733 0.18533,0.0427 0.26133,0.124 0.28667,0.22267 2.05199,8.05066 -3.69285,17.17123 1.26581,24.08323 11.22667,15.65467 36.10762,28.66644 45.25162,30.4871 9.144,1.82067 13.55808,1.44149 17.84542,1.03883 4.28733,-0.40267 5.86648,-6.3785 7.47048,-9.2185 0.208,-0.36933 0.41466,-0.736 0.624,-1.09333 1.316,-2.24533 2.83333,-4.04533 4.512,-5.35067 0.23866,-0.18666 0.576,-0.28 1.004,-0.28 0.976,0 2.1,0.484 2.76666,0.89867 0.82134,0.51867 1.62667,1.08933 2.43467,1.66 1.53733,1.08933 3.128,2.21467 4.90133,3.04267 2.77067,1.292 5.53067,2.60133 8.28267,3.932 1.944,0.94 3.87733,1.916 5.81333,2.89466 5.764,2.91067 11.724,5.92134 18.008,7.948 10.88267,3.51067 40.92133,18.47067 47.424,26.20134 5.41333,6.43466 15.14,43.73466 17.292,60.13333 0.98267,7.5 1.09867,15.35866 1.20933,22.95733 0.0493,3.35867 0.1,6.832 0.22667,10.21333 0.0133,0.37467 0.0107,1.516 0.009,3.12534 -0.0227,13.316 0.204,20.76266 0.64934,23.58266 z"
       style="fill:#d30000;fill-opacity:1;fill-rule:nonzero;stroke:none;stroke-width:1.33333"
       id="path2416"
       sodipodi:nodetypes="cscccccccscccccccccccccscccsccccccccc" /><path
       d="m 363.05812,400.02293 h 5.57467 c 0.484,-9.21466 0.56667,-29.24 0.17067,-41.90533 -0.308,-9.852 -3.16534,-33.24533 -3.16534,-33.24533 -1.2,9.90533 -1.29066,57.81866 -2.58,75.15066 M 278.42746,237.27494 c -0.0333,-0.304 3.16667,1.25066 6.62533,2.79066 10.63467,4.72934 22.00267,11.95067 33.23867,15.57467 9.488,3.06 36.60933,15.33733 42.992,22.924 3.488,4.14533 8.13866,12.60667 9.104,17.81067 1.756,9.47733 6.29066,21.20533 7.488,30.80666 1.88,15.07867 2.47066,30.284 2.548,45.51733 0.0453,9.09334 -0.0907,18.204 -0.24134,27.324 1.34934,-0.0187 5.73334,0.0187 7.37467,0 -1.50133,-0.404 -1.11467,-24.72133 -1.19067,-26.75733 -0.40933,-10.99733 -0.0147,-22.376 -1.44666,-33.29333 -2.15734,-16.44933 -11.95867,-54.12133 -17.59334,-60.82 -6.98133,-8.29867 -37.71866,-23.284 -48.03466,-26.612 -8.256,-2.66267 -15.86933,-7.012 -23.65067,-10.77333 -2.75733,-1.33334 -5.524,-2.64534 -8.29866,-3.94 -2.576,-1.20267 -4.79734,-3.11467 -7.196,-4.62667 -1.40267,-0.87333 -3.832,-1.676 -5.29334,-0.54 -1.98933,1.548 -3.576,3.56667 -4.844,5.73067 -1.73466,2.96133 -3.08,7.86 -6.66133,8.48 -3.02133,0.524 -8.52533,1.18266 -11.53333,0.58533 -16.54667,-3.284 -37.608,-13.54533 -48.21334,-26.13867 -9.29466,-11.03733 -1.58933,-19.964 -3.60666,-27.87999 -0.14,-0.54934 -0.556,-0.98667 -1.09733,-1.15467 -0.54534,-0.168 -1.13334,-0.04 -1.55734,0.33467 -1.95866,1.72666 -3.99066,3.37866 -6.02,5.02 -1.72266,1.39333 -3.50533,2.70266 -5.264,4.05066 -0.65333,0.50133 -1.06533,1.268 -1.72133,1.75333 -3.4,2.52134 -6.72667,5.00267 -10.608,6.82534 -3.98,1.86933 -8.15333,3.27466 -12.26667,4.81333 -14.21066,5.31333 -27.72,12.336 -40.96266,19.73867 -20.801336,11.62666 -41.082669,24.25733 -60.017335,38.72533 -11.738666,8.96933 -23.266666,19.04133 -29.659999,32.35867 -3.421333,7.12666 -5.228,14.904 -6.873333,22.636 -5.033333,23.65866 -8.776,47.58666 -12.516,71.48399 1.84,-0.0133 3.68,0.0133 5.52,0 2.793333,-24.90133 6.417333,-49.764 10.862666,-74.42399 0.841334,-4.66667 1.729334,-9.384 3.716,-13.68934 1.721334,-3.72666 4.217333,-7.03733 6.810667,-10.22 7.412,-9.09466 15.763999,-17.396 24.710666,-24.97733 8.976,-7.60533 18.542666,-14.492 28.421332,-20.872 11.265336,-7.27733 23.075996,-13.51067 34.702666,-20.10267 11.25867,-6.384 22.80267,-12.34133 34.712,-17.39866 5.03333,-2.13867 10.33333,-3.58267 15.33067,-5.812 1.728,-0.77067 3.41466,-1.63467 5.052,-2.584 0.72133,-0.41867 -1.06934,17.69066 34.81999,42.452 6.932,4.78133 25.316,13.15733 32.82,16.264 3.68934,1.52666 22.892,9.408 25.60267,4.76 2.39067,-4.09867 3.50933,-11.78667 3.668,-16.67867 0.24,-7.44 0.88533,-13.564 0.248,-19.46533 m -141.432,162.74799 c 0,0 1.06534,-39.53066 -15.55866,-69.21466 0,0 8.91466,33.48933 9.99866,69.21466 z"
       style="fill:#000000;fill-opacity:1;fill-rule:nonzero;stroke:none;stroke-width:1.33333"
       id="path2496" /><path
       d="m 318.05666,390.15667 c -0.14,-0.0213 -0.28267,-0.072 -0.41733,-0.15467 -0.42667,-0.26133 -0.65867,-0.76133 -0.55867,-1.20533 0.23067,-1.028 5.73467,-25.3 10.572,-35.86134 1.11867,-2.444 2.45333,-3.51333 4.08,-3.268 3.13066,0.472 6.00666,5.90534 9.62933,14.51867 0.76533,1.82133 1.472,3.46933 2.13333,5.008 2.816,6.568 4.852,11.312 6.9,18.96 0.12,0.45067 -0.0613,0.88133 -0.444,1.056 -0.16133,0.0747 -0.34,0.0947 -0.52,0.068 -0.24666,-0.0373 -0.492,-0.16533 -0.68133,-0.372 -2.37067,-2.56533 -9.36667,-9.01733 -13.256,-9.86933 -0.59733,-0.13067 -1.076,-0.0987 -1.46267,0.096 -1.14799,0.58266 -2.21333,1.27733 -3.40666,1.892 -3.50933,1.80666 -7.48667,3.85333 -11.77067,8.856 -0.19333,0.22666 -0.492,0.32133 -0.79733,0.276"
       style="fill:#ffd59c;fill-opacity:1;fill-rule:nonzero;stroke:none;stroke-width:1.33333"
       id="path2500" /><path
       d="m 333.48186,378.21507 c -4.54667,2.30266 -9.60267,4.14266 -15.424,10.94133 0,0 5.65867,-25.088 10.51333,-35.688 3.44534,-7.52133 7.81067,1.31867 11.87867,10.99067 4.068,9.672 6.484,14.492 8.98133,23.81866 0,0 -11.40267,-12.36533 -15.94933,-10.06266 m 17.556,9.85733 c -2.06267,-7.70133 -4.108,-12.468 -6.93734,-19.06533 -0.65866,-1.53734 -1.36533,-3.18267 -2.13066,-5.00267 -3.828,-9.10267 -6.73067,-14.476 -10.23733,-15.004 -2.856,-0.42933 -4.23867,2.588 -4.69334,3.58133 -4.86133,10.61467 -10.37733,34.944 -10.61066,35.97467 -0.16667,0.73867 0.22,1.57467 0.932,2.00933 0.224,0.13734 0.46133,0.22267 0.696,0.25734 0.508,0.0773 1.00533,-0.0813 1.32933,-0.45867 4.21467,-4.924 8.14267,-6.94533 11.608,-8.73067 1.20267,-0.61866 2.23867,-1.29866 3.40266,-1.888 0.26134,-0.132 0.60534,-0.148 1.052,-0.0507 3.26134,0.71333 9.62534,6.144 12.84667,9.63066 0.31733,0.344 0.72533,0.55734 1.13733,0.61867 0.29734,0.0453 0.59734,0.0107 0.86534,-0.112 0.63733,-0.292 0.94,-1.01067 0.74,-1.76"
       style="fill:#000000;fill-opacity:1;fill-rule:nonzero;stroke:none;stroke-width:1.33333"
       id="path2504" /><path
       id="path2550"
       style="opacity:0.199997;fill:#000000;fill-opacity:1;fill-rule:nonzero;stroke:none;stroke-width:1.33333"
       d="m 234.13626,363.8704 c 0,0 -39.06,-3.488 -60.68266,-17.43733 0,0 16.04266,22.32 60.68266,17.43733 m -83.63186,-62.496 c 0,0 51.37333,46.75067 122.01733,56.77867 0,0 -46.86267,2.31066 -83.764,-18.1 C 151.8564,319.64374 150.5044,301.3744 150.5044,301.3744 m 126.00466,-62.00693 c 0,0 77.94533,34.00267 84.22266,65.39067 0,0 -9.1,-15.94 -22.49466,-26.156 -30.864,-23.54134 -62.77467,-37.14267 -62.77467,-37.14267 z M 12.988266,400.02293 h 89.546664 c -0.15867,-0.192 -0.31467,-0.38 -0.46267,-0.55866 -11.106662,-13.36667 -25.097329,-33.22 -23.126662,-51.6 -0.574667,5.42666 4.88,9.896 7.628,13.952 4.661333,6.88133 10.142666,13.184 16.346662,18.71733 1.852,1.65067 3.90534,2.7 5.95067,4.08 -0.0547,-0.79733 -0.724,-1.556 -1.01333,-2.27333 -0.372,-0.92 -0.77467,-1.83867 -1.19467,-2.75334 -3.89067,-8.47333 -5.684,-17.416 -7.503999,-26.56266 -1.630667,-8.2 -3.641333,-17.316 -1.516,-25.608 0.188,-0.73067 0.412,-1.45333 0.682667,-2.15733 -1.037334,2.70133 12.962662,11.32533 14.932002,13.20933 4.60933,4.408 8.37466,9.70533 11.00133,15.51866 2.44933,5.41867 3.08267,12.12267 7.28267,16.592 0.68133,-10.052 -4.3,-18.3 -6.18534,-27.83333 -1.832,-9.26267 -5.988,-16.1 -12.392,-23.23466 -1.70133,-1.89467 -3.54533,-3.71467 -4.73066,-5.968 -1.42,-2.70267 -4.41467,-6.25334 -4.35467,-9.30667 0.25067,-12.828 2.43733,-24.252 11.292,-33.90133 18.228,-19.86134 39.37467,-33.50267 63.86267,-43.87067 0.728,2.09067 5.08,6.17067 7.452,9.08533 -24.87067,16.23734 -76.95334,53.40134 -72.24267,77.048 -0.328,-2.56 -0.21867,-14.468 24.16267,-36.088 13.59466,-12.056 33.10133,-26.36 50.76,-37.992 9.564,9.66 30.41599,22.28134 75.59333,34.31067 l -62.14,-38.19867 -2.484,-3.13866 c 0.63866,-0.39734 1.28933,-0.80534 1.916,-1.19067 l -2.78933,-2.79067 c 0,0 -0.54534,0.324 -1.54,0.93067 l -6.768,-8.55733 c -1.41867,-3.94267 -3.84667,-10.69734 -5.59867,-15.572 -0.0773,0.0667 -0.14133,0.13866 -0.22667,0.20133 l -0.13866,0.10267 c -3.31734,2.46 -6.748,5.00533 -10.696,6.85866 -3.14267,1.47734 -6.43067,2.67867 -9.60934,3.84 -0.92,0.336 -1.84133,0.672 -2.75866,1.01467 -14.95067,5.592 -29.004,13.07333 -40.77867,19.65467 -23.339999,13.04533 -42.919999,25.67866 -59.858665,38.62 -11.453333,8.752 -22.926666,18.67066 -29.266666,31.87733 -3.348,6.976 -5.114666,14.54533 -6.772,22.336 -4.233333,19.904 -7.145333,40.04 -10.526666,60.08266 -0.582667,3.74534 -1.162667,7.468 -1.734667,11.124" /></g><g
     inkscape:groupmode="layer"
     id="layer2"
     inkscape:label="Bolian Ridge"
     style="display:none"><path
       style="display:inline;fill:none;stroke:#000000;stroke-width:0.8;stroke-linecap:butt;stroke-linejoin:miter;stroke-dasharray:none;stroke-opacity:1"
       d="m 260.11976,248.62275 23.2919,-42.7347"
       id="path1746"
       sodipodi:nodetypes="cc" /><path
       style="color:#000000;display:inline;fill:#000000;fill-opacity:0.2;-inkscape-stroke:none"
       d="m 280.56961,203.94359 -23.46249,43.15852 1.7902,0.83818 23.12351,-42.81954 z"
       id="path1748"
       sodipodi:nodetypes="ccccc" /></g><g
     inkscape:groupmode="layer"
     id="layer1"
     inkscape:label="Command Symbol"
     style="display:inline"><path
       d="m 332.08826,353.95827 3.88266,12.84666 5.368,0.512 -3.97466,2.96667 2.72133,8.16 -5.67867,-6.28533 -4.69066,6.12 1.668,-7.88267 -6.15867,-3.32667 6.75467,-0.12 z"
       style="fill:#000000;fill-opacity:1;fill-rule:nonzero;stroke:none;stroke-width:1.33333"
       id="path2508" /></g><g
     inkscape:groupmode="layer"
     id="layer3"
     inkscape:label="Science Symbol"
     style="display:none"><path
       id="path18248"
       style="color:#000000;fill:#000000;stroke-miterlimit:40;-inkscape-stroke:none"
       d="m 332.87305,361.21094 c -4.04887,0 -7.33985,3.32166 -7.33985,7.39453 0,4.07285 3.29098,7.39258 7.33985,7.39258 4.04885,0 7.33984,-3.31973 7.33984,-7.39258 0,-4.07287 -3.29099,-7.39453 -7.33984,-7.39453 z m 0,1.33789 c 2.73417,0 5.03473,1.8326 5.76172,4.35351 -0.33863,-0.37497 -0.78034,-0.70281 -1.28711,-0.97461 -1.17409,-0.62966 -2.74479,-1 -4.47461,-1 -1.72983,0 -3.30053,0.37034 -4.47461,1 -0.50678,0.2718 -0.94849,0.59964 -1.28711,0.97461 0.72699,-2.52091 3.02754,-4.35351 5.76172,-4.35351 z m 0,3.26172 c 1.60192,0 3.04733,0.35323 4.05664,0.89453 1.00931,0.5413 1.53515,1.22931 1.53515,1.90039 0,0.67108 -0.52584,1.35714 -1.53515,1.89844 -1.00931,0.5413 -2.45472,0.89453 -4.05664,0.89453 -1.60193,0 -3.04733,-0.35323 -4.05664,-0.89453 -1.00931,-0.5413 -1.53516,-1.22736 -1.53516,-1.89844 0,-0.67108 0.52585,-1.35909 1.53516,-1.90039 1.00931,-0.5413 2.45471,-0.89453 4.05664,-0.89453 z m -5.76172,4.49414 c 0.33874,0.37499 0.77986,0.70452 1.28711,0.97656 1.17408,0.62967 2.74478,1 4.47461,1 1.72982,0 3.30052,-0.37033 4.47461,-1 0.50724,-0.27204 0.94836,-0.60157 1.28711,-0.97656 -0.72583,2.52232 -3.02624,4.35547 -5.76172,4.35547 -2.73549,0 -5.0359,-1.83315 -5.76172,-4.35547 z" /></g><g
     inkscape:groupmode="layer"
     id="layer4"
     inkscape:label="Engineering Symbol"
     style="display:none"><path
       style="fill:#000000;fill-opacity:1;stroke:none;stroke-width:1px;stroke-linecap:butt;stroke-linejoin:miter;stroke-opacity:1"
       d="m 331.43646,368.93354 1.69663,2.8042 4.11732,-0.70473 0.19145,-6.21096 -4.39744,-2.58514 -5.71884,3.46076 0.93023,7.55814 c 0,0 4.28245,1.70728 5.93024,2.09303 1.64779,0.38575 3.83721,0.58844 3.83721,0.58844 v -0.2531 c 0,0 -4.76702,-2.01198 -6.33368,-3.1742 -1.56667,-1.16223 -2.40861,-2.35373 -2.50353,-3.90533 -0.0949,-1.5516 0.76529,-3.24821 1.86046,-3.95993 1.09517,-0.71172 2.27643,-0.72009 3.25582,-0.22611 0.97939,0.49398 1.65971,1.23735 1.83285,2.24275 0.17314,1.0054 0.18323,1.91963 -0.40284,2.8183 -0.58607,0.89868 -1.61074,0.63107 -2.29858,0.19206 -0.68785,-0.43902 -1.45702,-1.53218 -1.45702,-1.53218 z"
       id="path18493"
       sodipodi:nodetypes="ccccccczcczzzzzzzcc" /></g></svg>
