<?xml version="1.0" encoding="UTF-8" standalone="no"?>
<!-- Created with Inkscape (http://www.inkscape.org/) -->

<svg
   version="1.1"
   id="svg18722"
   width="400"
   height="400"
   viewBox="0 0 400 400"
   sodipodi:docname="OriginalSeriesAverageFemaleCommandVariant.svg"
   inkscape:version="1.3 (0e150ed, 2023-07-21)"
   xml:space="preserve"
   xmlns:inkscape="http://www.inkscape.org/namespaces/inkscape"
   xmlns:sodipodi="http://sodipodi.sourceforge.net/DTD/sodipodi-0.dtd"
   xmlns:xlink="http://www.w3.org/1999/xlink"
   xmlns="http://www.w3.org/2000/svg"
   xmlns:svg="http://www.w3.org/2000/svg"><defs
     id="defs18726" /><sodipodi:namedview
     id="namedview18724"
     pagecolor="#ffffff"
     bordercolor="#666666"
     borderopacity="1.0"
     inkscape:showpageshadow="2"
     inkscape:pageopacity="0.0"
     inkscape:pagecheckerboard="0"
     inkscape:deskcolor="#d1d1d1"
     showgrid="false"
     inkscape:zoom="9.56"
     inkscape:cx="334.67573"
     inkscape:cy="288.91213"
     inkscape:window-width="2200"
     inkscape:window-height="1169"
     inkscape:window-x="2223"
     inkscape:window-y="116"
     inkscape:window-maximized="0"
     inkscape:current-layer="g18730"><inkscape:page
       x="0"
       y="0"
       id="page18728"
       width="400"
       height="400"
       margin="0"
       bleed="0" /></sodipodi:namedview><g
     inkscape:groupmode="layer"
     id="layer1"
     inkscape:label="Neck"><path
       d="m 270.11986,233.3544 13.08267,-27.18533 -69.57067,-54.87466 -5.48933,30.848 -6.20667,17.47466 c -3.96533,4.80267 -9.04133,15.21467 -18.424,23.548 -9.30133,8.26 -23.844,13.48933 -36.21333,21.172 0,0 -14.90933,16.74 61.20533,48.912 76.11333,32.172 84.74533,27.98667 88.93067,20.14 4.184,-7.84667 15.69333,-45.24933 11.76933,-53.09733 -3.92267,-7.84667 -22.456,-24.05734 -39.084,-26.93734"
       style="fill:#cd976d;fill-opacity:1;fill-rule:nonzero;stroke:none;stroke-width:1.33333"
       id="path19870" /><path
       d="m 202.26133,201.47707 c 1.444,-2.592 2.73866,-5.26133 3.86533,-7.99866 1.61733,-3.92934 2.912,-7.98534 4.096,-12.064 1.29067,-4.452 3.764,-24.06134 5.256,-28.48 0,0 -3.83333,-3.40667 -3.83333,-3.40534 -1.01067,4.996 -3.35067,25.12534 -4.128,30.15334 -0.51734,3.34 -1.75067,6.54 -3.848,10.988 -1,2.124 -1.37467,4.43466 -2.42267,6.552 -2.23733,4.52266 -5.65066,8.59199 -8.64533,12.63333 -3.14133,4.24 -6.45067,8.38133 -10.256,12.05066 -9.84667,9.496 -22.544,15.42 -35.24,20.512 0.40133,0.984 1.52,1.52134 2.58133,1.55067 1.06267,0.028 2.088,-0.35333 3.07734,-0.74267 1.776,-0.69866 3.53733,-1.43733 5.27733,-2.224 15.95467,-7.21866 30.292,-18.60266 40.228,-33.08933 1.428,-2.08267 2.76266,-4.22933 3.992,-6.436"
       style="fill:#000000;fill-opacity:1;fill-rule:nonzero;stroke:none;stroke-width:1.33333"
       id="path19890" /><path
       id="path19920"
       style="opacity:0.199997;fill:#000000;fill-opacity:1;fill-rule:nonzero;stroke:none;stroke-width:1.33333"
       d="m 271.80933,233.55747 c 1.41333,-0.552 3.08266,-0.476 4.61333,-0.2 4.716,0.84667 9.028,3.672 12.984,6.23067 4.99867,3.23333 9.27067,5.96533 12.73867,10.976 2.03866,2.94666 3.77733,6.14 4.74,9.59066 0.43733,1.564 0.708,3.164 0.83733,4.77867 0.29067,3.61333 -0.12933,7.30133 -0.992,10.83467 -1.01733,4.168 -2.632,8.15333 -4.38667,12.05733 -0.72933,1.62133 -5.0167,17.66698 -6.83705,19.62678 0.36716,-8.84683 -0.27789,-15.35357 -2.08428,-19.73878 -0.20942,-0.5084 -1.23867,-1.46 -1.688,-1.61733 -1.03867,-0.36134 -2.71467,0.496 -3.88667,0.17333 -2.664,-0.732 0.212,-2.48133 1.4,-3.472 1.45734,-1.21867 4.2,-2.92133 4.652,-4.88667 0.48267,-2.108 -1.24,-4.208 -0.94666,-6.36933 0.37066,-2.73867 2.024,-5.104 2.46266,-7.816 0.42267,-2.61067 -1.152,-5.58667 -2.62533,-7.676 -3.04533,-4.32 -7.17733,-8.352 -11.412,-11.51067 -4.40267,-3.284 -8.396,-4.69866 -13.55733,-6.268 0.692,-1.48533 2.42133,-4.10133 3.988,-4.71333 m -63.86107,-50.86946 c -0.008,0.0453 -0.0147,0.0787 -0.0147,0.0787 -0.592,3.26934 -1.67733,6.14534 -3.11866,8.74267 l -2.88,8.108 c -3.964,4.80266 -9.04,15.21466 -18.42267,23.54666 -9.30266,8.26134 -23.844,13.49067 -36.21466,21.17334 -10.01867,6.22266 13.37866,21.08133 17.79066,21.88133 11.03734,2 20.536,-7.64667 31.388,-7.71867 8.56,-0.0573 16.284,7.04134 23.46133,11.03334 1.50667,0.83733 15.568,9.02266 16.30667,5.06533 0.29333,-1.57867 -4.004,-5.16133 -4.89733,-6.11067 -3.93334,-4.17466 -8.27867,-8.15866 -11.73334,-12.74533 -2.71066,-3.60133 -4.668,-8.11467 -3.87866,-12.552 0.69333,-3.89867 3.43733,-7.18933 6.708,-9.42133 8.35066,-5.69734 18.13333,-6.57467 27.86,-4.956 2.648,0.44 19.54266,5.11066 21.116,1.84133 0,-0.001 4.45866,-9.26667 4.45866,-9.26667 l 7.324,-15.21866 -69.56933,-54.87467 -5.49067,30.848 z"
       sodipodi:nodetypes="cccccccccscccccccsccccccccccccccccccccccc" /><path
       d="m 285.86613,207.63814 c -0.0107,-0.004 -0.12534,0.15066 -0.13334,0.16133 -3.98533,5.21867 -6.39866,12.18267 -9.17866,18.08133 -1.24534,2.64134 -2.552,5.26134 -3.77467,7.91467 -1.97333,4.28533 -5.53067,8.924 -4.212,13.912 0.204,0.77333 1.896,8.104 1.39467,7.94 -4.604,-1.516 -4.92134,-10.64533 -4.35867,-14.45733 0.132,-0.89867 14.50267,-36.10934 14.50267,-36.10934 0,0 5.75866,2.556 5.76,2.55734"
       style="fill:#000000;fill-opacity:1;fill-rule:nonzero;stroke:none;stroke-width:1.33333"
       id="path19894" /></g><g
     id="g18730"
     inkscape:groupmode="layer"
     inkscape:label="Page 1"><path
       d="m 51.219732,399.9668 c 0.157333,-3.77733 -0.618667,-8.85333 -1.349333,-12.35867 -0.169334,-0.81466 -0.337334,-1.61866 -0.490667,-2.41466 -0.338667,-1.756 -0.733333,-3.45467 -1.117333,-5.09734 -0.74,-3.17466 -1.497334,-6.428 -1.810667,-9.99333 -1.090666,-12.448 0.938667,-28.52667 6.202667,-49.152 0.892,-3.49466 1.878666,-6.932 2.932,-10.21733 4.098666,-13.75733 13.951999,-27.10933 24.605332,-37.62667 2.390667,-2.36 4.978667,-4.73866 7.689333,-7.06933 0.350667,-0.30133 0.825334,-0.56533 1.329334,-0.844 0.302666,-0.16667 0.6,-0.332 0.878666,-0.50533 0.832,-0.51867 1.662667,-1.04 2.492,-1.564 5.358667,-3.384 11.027996,-6.24667 16.511996,-9.01467 4.34667,-2.19333 8.84134,-4.46133 13.196,-6.996 5.44134,-3.16667 15.18227,-7.91594 18.34893,-7.91594 2.64534,0 2.19163,2.67066 5.31444,7.06001 2.42276,3.40536 6.05909,6.1287 9.34309,8.6407 4.69613,3.59214 4.57671,2.32532 13.01488,8.4579 5.48376,3.99188 34.47279,17.04361 45.52533,20.37866 7.20533,2.176 14.24506,5.13988 20.352,7.756 13.20764,5.65794 26.19262,12.02805 39.73957,16.76401 6.01221,3.37298 12.76448,6.26512 19.51246,8.28747 5.62133,-1.40667 0.75197,-14.01948 4.48797,-18.71814 6.97333,-8.768 6.40533,-19.82 5.85466,-30.50934 -0.284,-5.508 -0.552,-10.73066 0.19867,-15.46133 h 0.0453 c 5.78134,0 11.536,3.09333 16.61334,5.824 4.59466,2.47067 9.02266,5.608 13.30533,8.64133 l 2.10133,1.48534 c 8.11467,5.71066 14.96,13.37333 20.928,23.43066 4.66667,7.86267 8.3,16.504 10.79867,25.68267 0.688,2.524 1.304,5.14533 1.83066,7.78933 2.49067,12.50667 5.31467,26.68133 3.124,40.732 -0.37466,2.404 -0.97466,4.75467 -1.73333,7.732 -0.50533,1.976 -1.06667,4.17333 -1.69467,6.88133 -0.26133,0.036 -0.51066,0.14 -0.71733,0.304 -0.508,0.424 -0.68133,1.08534 -0.46133,1.668 0.092,0.24667 0.19466,0.50134 0.30666,0.75734 0.62134,1.42 1.264,3.008 1.75334,4.972 0.33333,1.332 0.732,2.68666 1.13466,4.05066 0.65467,2.22134 1.32534,5.96667 1.69467,8.16267 z"
       style="fill:#88966c;fill-opacity:1;fill-rule:nonzero;stroke:none;stroke-width:1.33333"
       id="path19818"
       sodipodi:nodetypes="ccccccccccccccsssccssccccscccccccccccscccc" /><path
       d="m 351.92466,336.73613 c 0.13466,9.94667 1.02533,19.00934 6.07466,28.44667 4.21867,7.88667 9.26134,15.096 10.64667,24.13867 0.56267,3.65733 1.56533,7.37466 2.65067,10.908 1.23333,0.0133 2.46666,0.028 3.7,0.0427 0.46,0.005 -3.808,-15.828 -4.35334,-17.26 -3.184,-8.37066 -7.58266,-16.62133 -11.13733,-24.992 -3.84267,-9.052 -6.28667,-18.46666 -7.59467,-28.21199 -0.008,2.36533 -0.0173,4.66933 0.0133,6.92799"
       style="fill:#000000;fill-opacity:1;fill-rule:nonzero;stroke:none;stroke-width:1.33333"
       id="path19902" /><path
       style="color:#000000;fill:#000000;fill-opacity:0.2;-inkscape-stroke:none"
       d="m 315.35547,265.66406 -0.37891,0.92578 c 0,0 9.03134,3.71816 14.10742,7.19727 5.13074,3.51657 11.86244,9.5281 15.41414,14.30859 1.12887,1.51943 2.46683,4.16833 3.36218,6.06263 1.90415,4.02857 3.68225,9.08286 4.28785,8.72867 0.60559,-0.35419 -2.53103,-10.37387 -6.25557,-15.387 -3.70247,-4.98342 -11.04079,-10.97211 -16.24219,-14.53711 -5.25605,-3.60246 -14.29492,-7.29883 -14.29492,-7.29883 z"
       id="path8"
       sodipodi:nodetypes="ccssszssc" /><path
       id="path5"
       style="color:#000000;fill:#ffd59c;-inkscape-stroke:none"
       d="M 141.57617 239.42773 L 138.9668 240.9082 C 138.9668 240.9082 142.32856 246.86889 146.05078 251.0957 C 149.68056 255.21755 153.18768 258.21425 161.18359 264.75977 C 169.21996 271.33838 184.43359 282.97523 194.89648 289.75195 C 205.29067 296.48419 211.5056 299.9234 223.19141 305.63672 C 234.92786 311.37479 253.54193 319.27133 265.4082 323.38477 C 277.31284 327.51149 294.65039 331.48437 294.65039 331.48438 L 294.26172 328.24414 C 294.26172 328.24414 278.0117 324.57726 266.39062 320.54883 C 254.73119 316.50709 236.09411 308.60606 224.50781 302.94141 C 212.87086 297.25197 206.85554 293.92387 196.52734 287.23438 C 186.26786 280.58939 171.02518 268.93821 163.08398 262.4375 C 155.10235 255.90368 151.7745 253.05791 148.30078 249.11328 C 144.91951 245.27364 141.57617 239.42773 141.57617 239.42773 z M 313.76758 252.99219 L 311.33594 254.74805 C 311.33594 254.74805 312.85393 256.88154 313.49609 259.64844 C 314.16104 262.5135 314.39966 266.86693 313.98633 272.37695 C 313.57642 277.84126 312.35354 283.5039 310.15625 292.31445 C 307.97851 301.04664 304.75362 310.20481 300.13867 324.75586 C 295.53491 339.27166 286.49429 366.93161 282.36328 379.33789 C 278.23177 391.74572 275.27734 400 275.27734 400 L 278.40234 400 C 278.40234 400 281.07076 392.71314 285.20898 380.28516 C 289.34773 367.85562 298.38413 340.20992 302.99805 325.66211 C 307.60078 311.14953 310.83995 301.96853 313.06641 293.04102 C 315.27331 284.19186 316.54501 278.35446 316.97656 272.60156 C 317.40469 266.8944 317.1972 262.31977 316.41992 258.9707 C 315.61986 255.52348 313.76758 252.99219 313.76758 252.99219 z " /><path
       id="path19898"
       style="fill:#000000;fill-opacity:1;fill-rule:nonzero;stroke:none;stroke-width:1.33333"
       d="m 144.84477,235.66279 c -3.13216,0.3715 -17.33654,7.66507 -22.60454,10.73174 -9.79599,5.70133 -20.77004,9.38091 -30.443355,15.49024 -0.826666,0.52134 -1.655043,1.04126 -2.484375,1.55859 -0.766666,0.48 -1.686007,0.87842 -2.388672,1.48242 -2.659997,2.28666 -5.255674,4.66072 -7.763672,7.13672 -10.033323,9.90666 -20.285234,23.21301 -24.726562,38.125 -1.071999,3.34267 -2.063606,6.79517 -2.960938,10.3125 -3.749329,14.68932 -7.645378,33.76925 -6.248047,49.72656 0.486667,5.55734 0.892147,9.66193 1.882813,14.8086 0.889332,4.61599 2.730469,14.93164 2.730469,14.93164 h 3.93164 c 0,0 -1.439819,-8.52327 -2.146484,-11.58594 -0.204,-0.88533 -0.409657,-1.77383 -0.597656,-2.67383 -0.373333,-1.792 -2.177823,-12.24047 -2.535157,-15.70312 -1.270664,-12.28799 0.492583,-28.21295 5.392578,-48.6836 0.830666,-3.46665 1.757289,-6.87929 2.751954,-10.14062 3.842663,-13.62265 13.867068,-26.8201 24.40039,-37.21875 2.373331,-2.344 4.938957,-4.70301 7.626953,-7.01367 0.258667,-0.22133 0.68348,-0.45708 1.132813,-0.70508 0.318667,-0.176 0.633688,-0.35178 0.929687,-0.53711 0.833333,-0.52 1.665428,-1.04241 2.496094,-1.56641 5.309328,-3.35332 10.954787,-6.20237 16.412107,-8.95703 4.36667,-2.204 9.5686,-3.93505 13.94727,-6.48437 16.18135,-7.91307 21.74326,-11.9286 30.35258,-7.1126 4.4984,2.51537 8.44475,5.8088 12.34375,9.16015 l 1.66602,-2.6875 c -3.73635,-2.85158 -7.4483,-5.74356 -11.45508,-8.22461 -5.35666,-3.31666 -8.51042,-4.54142 -11.64258,-4.16992 z m 160.35054,14.76104 c -0.8111,-0.0511 -1.6285,-0.0519 -2.45117,0.008 -0.72654,3.66404 -0.78912,7.6404 -0.6582,11.74024 l 6.22461,1.51953 c -0.40497,-2.7092 -0.90307,-5.3699 -0.33399,-8.0293 4.80134,-0.24267 7.84104,0.78427 12.09571,3.07227 4.52665,2.43466 8.92636,5.5505 13.17968,8.5625 l 2.10547,1.49023 c 7.97065,5.60932 14.70399,13.15193 20.58399,23.05859 4.61065,7.77066 8.20183,16.31268 10.67382,25.38868 0.68133,2.49865 1.29117,5.09042 1.8125,7.70507 2.47067,12.40932 5.27257,26.47714 3.11524,40.31446 -0.36534,2.34399 -0.93023,4.55781 -1.71289,7.61914 -1.45067,5.68266 -1.3912,10.32385 0.57812,15.97851 1.01867,2.92533 0.79693,5.86094 1.1836,8.82227 0.336,2.56667 -0.0809,2.29297 3.09375,2.29297 -0.38933,-4.13867 -2.05474,-8.4617 -3.08008,-12.56836 -0.47333,-1.89866 -1.08794,-3.49504 -1.83594,-5.20703 -0.1,-0.22934 -0.192,-0.45755 -0.27734,-0.68555 0.49734,0.31067 0.90662,0.31273 1.02929,-0.22461 1.72666,-7.57199 3.0016,-11.41452 3.65625,-15.61719 2.15734,-13.84265 -0.43343,-27.67615 -3.13476,-41.24414 -0.52933,-2.65333 -1.14418,-5.28538 -1.85352,-7.88672 -2.51199,-9.22132 -6.1918,-18.02422 -10.95312,-26.04687 -5.73333,-9.65866 -12.56509,-17.70354 -21.34375,-23.88086 -5.09466,-3.58534 -10.14065,-7.30675 -15.55664,-10.21875 -5.07032,-2.7265 -10.46291,-5.60536 -16.14063,-5.96289 z"
       sodipodi:nodetypes="scccccccscccccccccccccccccccssccccccccccsccccccccccccccs" /><path
       id="path4"
       style="fill:#2d2d2d;stroke:none;stroke-width:1px;stroke-linecap:butt;stroke-linejoin:miter;stroke-opacity:1;fill-opacity:1"
       d="M 156.6582 225.15039 L 144.82422 235.50586 L 142.30859 238.9082 L 148.22656 249.55859 L 164.49805 263.75977 L 193.3457 285.50586 L 223.52344 302.96094 L 252.2207 315.53516 L 277.36914 323.375 L 294.23242 327.51758 L 296.15625 336.54102 L 303.99609 313.16797 L 313.75977 277.51758 L 313.75977 257.99023 L 307.84375 247.48828 L 295.41602 236.98438 L 280.62305 230.47461 L 275.07227 228.97266 C 274.34988 230.46907 273.63026 231.96618 272.93164 233.47266 L 277.36914 234.91406 L 290.38672 243.49414 L 297.63477 253.25586 L 302.07422 266.12695 L 301.18555 281.51172 L 297.93164 301.77734 L 294.97266 313.31641 L 287.72461 310.94922 L 253.55273 300.29883 L 221.15625 283.43359 L 189.79492 262.42773 L 166.86523 240.38672 L 163.90625 236.39258 L 174.70508 229.14453 L 156.6582 225.15039 z " /><path
       id="path19968"
       style="opacity:0.199997;fill:#000000;fill-opacity:1;fill-rule:nonzero;stroke:none;stroke-width:1.33333"
       d="m 140.19336,238.91406 c -3.16666,0 -12.46563,5.03388 -17.9043,8.19922 -4.35465,2.53466 -8.84864,4.80472 -13.19531,6.99805 -5.48398,2.76667 -11.155016,5.62772 -16.513672,9.01172 -0.829332,0.524 -1.658236,1.04579 -2.490234,1.56445 -0.278667,0.17467 -0.57686,0.34114 -0.88086,0.50781 -0.502665,0.27867 -0.976125,0.54046 -1.328125,0.8418 -2.710661,2.33066 -5.297457,4.70898 -7.689453,7.07031 -10.653311,10.51598 -20.506189,23.8677 -24.603515,37.625 -1.053331,3.28533 -2.040263,6.7241 -2.933594,10.21875 -5.26399,20.62529 -7.291837,36.70437 -6.201172,49.15235 0.312,3.56531 1.070549,6.81753 1.810547,9.99218 0.382665,1.64267 0.778522,3.34166 1.117187,5.09766 0.152,0.796 0.319569,1.60063 0.490235,2.41797 0.679998,3.26798 1.390755,7.88722 1.357422,11.56055 0.016,0.19198 0.02892,0.38284 0.04492,0.57617 0.0053,0.0747 0.01934,0.14541 0.02734,0.21875 h 87.998049 c 0.44,-3.90534 -1.15114,-7.65391 -1.75781,-11.75391 -0.86133,-5.82798 -2.56805,-11.12972 -4.24805,-16.76172 -0.552,-1.852 -1.66944,-3.5925 -2.55078,-5.45117 -0.636,-1.344 -2.01367,-3.60684 -1.01367,-5.07617 0.26,-0.38267 6.63882,8.11976 7.29882,8.98242 1.808,2.36 2.7481,5.0976 4.35743,7.57227 0.84131,1.29331 1.58137,2.70512 2.19335,4.17578 1.72667,-4.40133 -0.70567,-9.99619 -2.29101,-13.99219 -1.44,-3.62933 -2.0608,-7.5705 -3.85547,-11.0625 -2.00533,-3.89867 -5.01467,-7.42847 -7.63867,-10.92578 -0.62133,-0.82934 -2.16234,-4.18591 -1.125,-5.11524 0.81866,-0.73334 4.48006,2.31805 5.30273,2.77539 1.98533,1.10533 3.94325,2.51305 5.89258,3.73438 1.468,0.92 2.37646,2.37475 3.3418,3.58008 0.904,1.128 1.84594,2.40019 2.72461,3.76953 0.60933,0.94933 1.65254,2.92775 2.42187,3.34375 -0.21866,-0.11733 -0.52673,-3.23275 -0.66406,-3.69141 -0.368,-1.228 -0.87858,-2.42101 -1.50391,-3.54101 -2.38132,-4.26533 -6.00367,-8.00549 -9.125,-11.74414 -2.52265,-3.02266 -5.08556,-6.01277 -7.68554,-8.96875 -1.98134,-2.25334 -3.98296,-3.99999 -5.76563,-6.30664 -0.73466,-0.948 -2.31011,-1.68352 -2.80078,-2.6875 -2.7,-1.368 -4.42272,-6.18443 -5.02539,-8.8711 -0.85467,-3.81198 -0.415,-7.78944 0.70898,-11.49609 2.336,-7.69998 4.84597,-14.57555 10.23349,-20.45966 2.97859,-3.25313 13.78885,-12.9064 17.31683,-14.8544 0.75761,0.78942 2.02534,2.0822 2.10398,2.14023 -2.91514,2.38461 -8.19309,6.85245 -10.82031,10.04492 -4.40652,5.35461 -8.8371,10.95652 -11.82227,17.37305 -1.75641,3.77535 -3.8619,10.81887 -2.19922,11.51562 1.66271,0.69675 3.72266,-6.6196 4.90039,-9.93359 2.70521,-7.61207 6.05292,-13.1673 10.44141,-18.5 2.53736,-3.08328 7.73972,-7.5671 10.41992,-9.8125 18.58483,13.81467 61.29101,48.45943 121.07422,53.77344 -3.19598,-0.284 -9.94202,-3.51728 -12.80469,-4.83594 -18.80262,-8.65598 -37.54463,-16.02132 -55.16992,-27.0293 -9.59998,-5.99598 -18.8109,-12.58909 -27.82422,-19.42773 -8.20264,-6.22267 -16.61092,-12.39549 -23.74023,-19.77149 -4.104,-4.24665 -1.31027,-11.76633 -8.40625,-11.76367 z m 7.28906,65.78321 c 0,0 23.3655,20.74867 50.77344,29.11132 27.40927,8.36266 69.52539,9.37305 69.52539,9.37305 -63.86655,-3.6 -120.29883,-38.48437 -120.29883,-38.48437 z m 50.75391,35.16601 c 5.39731,2.92933 10.01989,7.59394 15.5332,10.58594 22.52523,12.22266 49.55768,14.05167 74.56445,10.54883 l 1.94727,-6.22266 c -30.6651,3.80521 -64.53876,-0.51543 -91.84375,-14.80469 -0.068,-0.0347 -0.13447,-0.0714 -0.20117,-0.10742 z"
       sodipodi:nodetypes="ccccccccccccccccccccccccccccscccccccccccccsccsssssccccccccccccccccc" /><path
       d="m 156.2788,377.99467 c 1.488,-10.98534 -14.33067,-40.28 -30.02534,-51.26533 0,0 31.06667,29.16133 26.272,56.61333 -1.60666,9.196 -0.84266,10.88666 0.0107,16.624 h 5.70133 c -0.83733,-5.28267 -2.96133,-14.57334 -1.95866,-21.972"
       style="fill:#000000;fill-opacity:1;fill-rule:nonzero;stroke:none;stroke-width:1.33333"
       id="path19942" /><path
       id="path19906"
       style="fill:#000000;fill-opacity:1;fill-rule:nonzero;stroke:none;stroke-width:1.33333"
       d="m 156.7793,223.99609 c -0.35824,0.0139 -0.7064,0.0569 -1.05078,0.13672 -0.77932,0.18075 -1.23061,0.533 -1.83594,0.97852 -0.60533,0.44551 -1.27254,1.01003 -1.9961,1.66015 -1.44709,1.30028 -3.10564,2.94431 -4.6875,4.56836 -3.16371,3.24814 -6.01562,6.41602 -6.01562,6.41602 l -0.54688,0.60742 0.21485,0.78906 c 0,0 0.2466,0.90415 0.62109,1.99414 0.37449,1.09001 0.82904,2.34414 1.51172,3.3418 7.18954,10.50673 17.94481,17.79242 27.51758,25.4707 11.78996,9.45669 24.16629,18.33633 37.32422,25.8711 15.54687,8.90277 31.9357,16.44038 48.75195,22.59375 12.04761,4.40843 36.84841,11.25142 36.91406,11.26953 0.34518,1.92683 0.97086,4.47166 1.56836,5.9043 -0.48602,1.52312 -0.84092,2.6614 -1.37695,4.33203 -3.75581,11.70549 -10.5396,32.42382 -13.82617,42.29297 C 276.58028,392.09278 273.73741,400 273.73741,400 h 3.20009 c 0,0 2.48249,-6.94197 5.77539,-16.83008 3.29323,-9.88909 10.07367,-30.59861 13.83594,-42.32422 3.76064,-11.72059 6.18461,-19.48935 8.80664,-27.97461 2.60915,-8.44355 5.30969,-15.92549 6.98047,-23.02734 1.64334,-6.98524 3.04521,-13.11547 3.21875,-19.08789 0.16806,-5.7841 0.22944,-10.94365 -1.80664,-16.05664 -2.00113,-5.0252 -5.04451,-8.68723 -9.64258,-12.77149 -4.80541,-4.2684 -13.41653,-8.73478 -18.4668,-10.83984 -5.15707,-2.14957 -11.43554,-3.12891 -11.43555,-3.12891 l -0.47265,2.9629 c 0,0 6.10764,0.99888 10.75391,2.93554 4.75308,1.98118 13.40539,6.56291 17.6289,10.31446 4.43085,3.93571 7.04273,7.10421 8.84766,11.63671 1.76996,4.44471 1.76267,9.11286 1.5957,14.85938 -0.1615,5.55819 -1.50044,11.51639 -3.14062,18.48828 -1.61277,6.85527 -4.29236,14.30797 -6.92579,22.83008 -2.01325,6.51518 -4.08693,13.12554 -6.56054,20.90625 -0.28466,-2.32835 -0.73398,-5.45939 -0.84961,-8.70313 -0.34983,-9.81385 1.75814,-14.3103 3.2793,-19.30078 4.6891,-15.38361 5.05993,-29.98722 5.14843,-35.71484 0.12534,-8.12131 -1.49954,-11.06043 -5.3164,-17.65821 -5.38809,-9.3137 -9.04001,-11.63249 -19.51368,-17.1582 -3.04386,-1.60589 -7.53125,-2.27148 -7.53125,-2.27148 0,0 0.1975,0.53014 -0.5625,1.99414 1.46533,0.75733 3.1144,0.85205 4.6504,1.38672 16.72129,5.83465 26.80049,23.94975 25.42382,41.59179 -0.0708,0.90766 -0.42886,6.44476 -1.10156,9.63477 -1.53457,7.2771 -3.66841,16.12014 -3.95508,17.10547 -0.48775,2.25004 -1.39576,5.9049 -1.94531,8.10156 -1.48395,-0.38904 -13.1494,-3.45696 -21.27734,-6.2168 -8.81993,-2.99478 -16.80186,-5.06173 -29.83985,-11.60742 -13.02348,-6.5384 -34.24081,-19.42985 -47.23633,-29.57617 -13.02098,-10.16621 -25.7174,-23.07979 -31.40625,-30.22461 -2.50824,-3.1502 -3.92826,-5.42058 -4.76562,-6.99219 0.2962,0.039 0.52136,0.0449 0.83594,0.0996 1.8288,0.31857 4.04325,0.81501 6.16992,1.33399 4.25332,1.03796 8.15234,2.16406 8.15234,2.16406 l 0.83203,-2.88281 c 0,0 -3.94507,-1.13904 -8.27343,-2.19532 -2.16419,-0.52813 -4.42443,-1.03658 -6.36719,-1.375 -0.97138,-0.1692 -1.81446,-0.32298 -2.58789,-0.39453 -0.38672,-0.0358 -0.75504,-0.051 -1.11328,-0.0371 z m -0.93164,3.41797 c 0.0823,0.18352 0.14294,0.3417 0.24218,0.54297 0.88509,1.79495 2.50021,4.46706 5.46094,8.18555 5.94196,7.4627 18.66199,20.38212 31.90625,30.72265 13.26974,10.36043 34.47025,23.23238 47.73633,29.89258 13.25159,6.65294 21.52606,8.81337 30.2207,11.76563 8.33341,2.8296 20.03884,5.90276 21.5,6.28515 -0.55708,2.7272 -0.10178,7.96422 0.21094,11.65625 -2.00377,-0.55609 -24.26328,-6.74551 -35.50586,-10.85937 -16.66458,-6.09788 -32.90148,-13.56512 -48.29297,-22.37891 -12.97973,-7.43272 -25.22993,-16.21838 -36.93555,-25.60742 -9.69921,-7.7797 -20.15772,-14.94203 -26.91992,-24.82422 -0.30498,-0.4457 -0.81221,-1.63304 -1.15234,-2.62304 -0.19267,-0.56077 -0.22031,-0.69101 -0.31836,-1.02344 0.47342,-0.52375 2.54791,-2.83037 5.35742,-5.71485 1.55591,-1.59741 3.1863,-3.21086 4.54492,-4.43164 0.67932,-0.61039 1.29264,-1.12361 1.76954,-1.47461 0.11419,-0.084 0.0743,-0.0511 0.17578,-0.11328 z"
       sodipodi:nodetypes="ssssscccsssssccssccssssssssccsssssscsscsscccssccssssccsccsssscsssssccssssscsssc" /></g><g
     inkscape:groupmode="layer"
     id="layer5"
     inkscape:label="Command Symbol"
     style="display:none"><path
       d="m 331.12373,349.87053 5.12933,12.40134 5.392,-0.0187 -3.66267,3.34267 3.512,7.852 -6.26933,-5.69467 -4.06533,6.55333 0.884,-8.01066 -6.456,-2.70134 6.708,-0.78533 z"
       style="fill:#000000;fill-opacity:1;fill-rule:nonzero;stroke:none;stroke-width:1.33333"
       id="path19938" /></g><g
     inkscape:groupmode="layer"
     id="layer6"
     inkscape:label="Science Symbol"
     style="display:none"><path
       id="path18248"
       style="color:#000000;display:inline;fill:#000000;stroke-miterlimit:40;-inkscape-stroke:none"
       d="m 332.5907,357.18865 c -4.00778,0.57533 -6.79337,4.33093 -6.21463,8.36247 0.57874,4.03152 4.30804,6.84993 8.31583,6.2746 4.00776,-0.57533 6.79364,-4.32902 6.2149,-8.36054 -0.57874,-4.03154 -4.30833,-6.85185 -8.3161,-6.27653 z m 0.19011,1.32432 c 2.70643,-0.38852 5.24405,1.09858 6.32187,3.49061 -0.38847,-0.32305 -0.87228,-0.58479 -1.41253,-0.78183 -1.25165,-0.45643 -2.85904,-0.59982 -4.57131,-0.35402 -1.71227,0.2458 -3.21441,0.83557 -4.2871,1.62568 -0.46302,0.34105 -0.85366,0.72833 -1.13557,1.14761 0.36141,-2.59863 2.3782,-4.73953 5.08464,-5.12805 z m 0.46348,3.22862 c 1.58566,-0.22763 3.0666,-0.0834 4.14259,0.30902 1.07598,0.39239 1.69425,0.99869 1.78961,1.66296 0.0954,0.66428 -0.32766,1.41809 -1.24981,2.09732 -0.92215,0.67923 -2.3027,1.23426 -3.88837,1.46189 -1.58567,0.22763 -3.0666,0.0834 -4.14259,-0.30902 -1.07598,-0.39239 -1.69398,-0.99676 -1.78934,-1.66103 -0.0954,-0.66427 0.32739,-1.42003 1.24954,-2.09925 0.92215,-0.67923 2.30269,-1.23426 3.88837,-1.46189 z m -5.06465,5.26726 c 0.38858,0.32305 0.87205,0.58655 1.41281,0.78375 1.25164,0.45645 2.85903,0.59983 4.5713,0.35403 1.71227,-0.2458 3.21441,-0.83556 4.28711,-1.62568 0.46344,-0.34136 0.85326,-0.73022 1.13529,-1.14954 -0.36006,2.59986 -2.37664,4.74129 -5.08436,5.12999 -2.70773,0.38871 -5.24528,-1.09896 -6.32215,-3.49255 z" /></g><g
     inkscape:groupmode="layer"
     id="layer7"
     inkscape:label="Engineering Symbol" /><g
     inkscape:groupmode="layer"
     id="layer8"
     inkscape:label="Bolian Seam"><path
       id="path34966"
       style="color:#000000;fill:#000000;fill-opacity:0.2;-inkscape-stroke:none"
       d="M 273.97266 200.25391 C 273.97266 200.25391 270.25838 210.29755 266.31836 221.11523 C 262.37834 231.93292 258.2257 243.4769 257.30273 246.64258 C 255.4757 252.90912 255.44099 259.20324 256.75586 264.11328 C 257.10618 265.42148 258.11153 267.53495 259.43359 270.0625 C 260.75566 272.59005 262.39161 275.5007 263.98828 278.25977 C 266.75284 283.03698 269.03927 286.7722 269.69922 287.84766 C 268.40833 287.67373 267.24805 287.42188 267.24805 287.42188 C 267.24805 287.42188 270.30012 290.03155 271.41211 290.32031 C 272.5241 290.60907 272.20857 290.67635 273.22461 290.13867 C 274.24065 289.60099 276.48242 286.24609 276.48242 286.24609 C 276.48242 286.24609 273.9928 287.73165 272.4082 287.9668 C 272.20515 287.99693 271.96963 288.00915 271.71289 288.00977 C 271.62475 287.86668 268.69796 283.11486 265.56055 277.69336 C 263.96811 274.94161 262.33442 272.04151 261.02344 269.53516 C 259.71245 267.02879 258.72067 264.88491 258.42773 263.79102 C 257.16956 259.09263 257.19137 252.95363 258.96875 246.85742 C 259.84798 243.84174 264.02392 232.2074 267.96289 221.39258 C 271.90186 210.57776 275.61523 200.53516 275.61523 200.53516 L 273.97266 200.25391 z " /><path
       style="color:#000000;fill:#000000;-inkscape-stroke:none"
       d="m 276.30859,200.91016 c 0,0 -3.80869,10.17677 -7.81836,21.17382 -2.00483,5.49853 -4.05928,11.20109 -5.71484,15.94336 -1.65556,4.74228 -2.90671,8.49876 -3.32422,10.20118 -1.61875,6.60056 -1.71563,10.19872 -0.41211,15.0664 0.34935,1.30456 1.34462,3.44195 2.6543,6.00586 1.30968,2.56391 2.92925,5.52203 4.50976,8.33008 3.16103,5.6161 6.35222,10.37283 6.35222,10.37283 l 0.2832,-0.12956 c 0,0 -2.67321,-5.0033 -5.82639,-10.60547 -1.57659,-2.80108 -3.13075,-5.87923 -4.43012,-8.42296 -1.29937,-2.54373 -2.28421,-4.71299 -2.57812,-5.81054 -1.26954,-4.74076 -1.18358,-8.03794 0.41796,-14.56836 0.38757,-1.58033 1.64396,-5.37467 3.29688,-10.10938 1.65292,-4.7347 3.707,-10.43557 5.71094,-15.93164 4.00787,-10.99213 7.81445,-21.16406 7.81445,-21.16406 z"
       id="path34964"
       sodipodi:nodetypes="cssssssccsssssscc" /></g><g
     inkscape:groupmode="layer"
     id="layer2"
     inkscape:label="Image"
     sodipodi:insensitive="true"
     style="display:none"><image
       width="400"
       height="400"
       preserveAspectRatio="none"
       xlink:href="../../../../../../../Pictures/STA%20Miniature%20Maker/CommandVariant2.png"
       id="image1"
       x="0"
       y="0"
       style="opacity:0.436134" /></g></svg>
