<?xml version="1.0" encoding="UTF-8" standalone="no"?>
<!-- Created with Inkscape (http://www.inkscape.org/) -->

<svg
   version="1.1"
   id="svg1152"
   width="400"
   height="400"
   viewBox="0 0 400 400"
   sodipodi:docname="OriginalSeriesAverageMaleCommandVariant.svg"
   inkscape:version="1.3.1 (91b66b0, 2023-11-16)"
   xml:space="preserve"
   xmlns:inkscape="http://www.inkscape.org/namespaces/inkscape"
   xmlns:sodipodi="http://sodipodi.sourceforge.net/DTD/sodipodi-0.dtd"
   xmlns="http://www.w3.org/2000/svg"
   xmlns:svg="http://www.w3.org/2000/svg"><defs
     id="defs1156" /><sodipodi:namedview
     id="namedview1154"
     pagecolor="#ffffff"
     bordercolor="#666666"
     borderopacity="1.0"
     inkscape:showpageshadow="2"
     inkscape:pageopacity="0.0"
     inkscape:pagecheckerboard="0"
     inkscape:deskcolor="#d1d1d1"
     showgrid="false"
     inkscape:zoom="2.1675"
     inkscape:cx="199.76932"
     inkscape:cy="200"
     inkscape:window-width="1920"
     inkscape:window-height="1080"
     inkscape:window-x="2312"
     inkscape:window-y="181"
     inkscape:window-maximized="0"
     inkscape:current-layer="layer4"><inkscape:page
       x="0"
       y="0"
       id="page1158"
       width="400"
       height="400"
       margin="0"
       bleed="0" /></sodipodi:namedview><g
     inkscape:groupmode="layer"
     id="layer5"
     inkscape:label="Neck"
     style="display:none"><path
       d="m 213.63253,151.29441 -13.54934,47.14666 c 0,0 -9.09866,12.312 -5.11733,20.18133 3.30934,6.54134 22.20292,61.66019 26.30692,64.67219 9.03733,6.63734 27.30133,15.592 38.17467,17.004 l 11.33066,-1.564 2.82534,-2.824 7.14017,-56.86944 -8.64176,-4.16808 18.428,-23.08667 z"
       style="fill:#cd976d;fill-opacity:1;fill-rule:nonzero;stroke:none;stroke-width:1.33333"
       id="path2468"
       sodipodi:nodetypes="ccccccccccc" /><path
       d="m 200.08306,198.44081 c 0,0 -8.332,14.43066 -4.03466,22.58666 1.244,2.35867 7.89599,7.77733 9.01066,9.00933 1.99467,2.20534 15.87467,-2.31466 23.512,-1.91333 11.39067,0.59733 25.19333,0.15733 29.89067,1.56667 6.33866,1.90133 13.09866,2.66533 15.47066,2.89066 l 16.59734,-20.79333 -76.89734,-60.49333 z"
       style="opacity:0.199997;fill:#000000;fill-opacity:1;fill-rule:nonzero;stroke:none;stroke-width:1.33333"
       id="path2478" /><path
       d="m 211.64493,149.52841 c -1.01067,4.99733 -6.2,23.82533 -7.36934,28.788 -0.956,4.064 -1.95733,8.11866 -3.072,12.14266 -0.516,1.85867 -1.07466,3.70267 -1.63333,5.54934 -0.18666,0.616 -0.95466,1.86266 -0.88133,2.47466 0.02,0.16934 0.80667,2.38267 1.11067,1.93733 3.68799,-5.38666 5.03733,-14.18666 7.12666,-20.38133 1.49067,-4.41866 7.06133,-22.68666 8.552,-27.104 0,0 -3.83333,-3.40666 -3.83333,-3.40666"
       style="fill:#000000;fill-opacity:1;fill-rule:nonzero;stroke:none;stroke-width:1.33333"
       id="path2488" /><path
       d="m 293.27599,213.31907 c -2.83733,2.044 -16.28266,19.912 -18.592,22.53067 -1.87866,2.13066 -4.41733,10.85066 -7.52933,10.948 -2.104,0.0653 -1.96987,-3.74286 -1.19333,-5.332 0.79096,-1.61864 21.288,-30.90934 21.288,-30.90934 l 6.02666,2.76267"
       style="fill:#000000;fill-opacity:1;fill-rule:nonzero;stroke:none;stroke-width:1.33333"
       id="path2492"
       sodipodi:nodetypes="cccscc" /></g><g
     id="g1160"
     inkscape:groupmode="layer"
     inkscape:label="Uniform"><path
       d="m 12.988266,400.02293 c 3.601334,-23.004 7.344,-48.092 12.261333,-71.20666 1.657334,-7.79067 3.424,-15.36 6.772,-22.336 6.34,-13.20667 17.813333,-23.12533 29.266666,-31.87733 16.938666,-12.94134 36.518666,-25.57467 59.858665,-38.62 11.77467,-6.58134 25.828,-14.06267 40.77867,-19.65467 4.15865,-1.5283 8.33879,-3.00302 12.368,-4.85467 6.59272,-3.27437 12.14986,-8.22666 17.864,-12.79999 2.172,-1.756 1.49679,-1.46028 2.29433,-1.20827 0.25862,3.54541 3.0436,16.32993 9.10829,29.36691 6.0647,13.03697 14.79026,23.99578 23.93426,31.0859 8.18592,8.52726 36.62224,41.13182 41.07895,40.55979 0.51892,-4.25577 8.27364,-38.21198 8.66809,-41.67359 0.39444,-3.46162 0.3146,-11.48102 0.0252,-15.22507 -0.28941,-3.74405 -3.27446,-6.5603 -1.59579,-7.86564 0.23866,-0.18666 0.576,-0.28 1.004,-0.28 0.976,0 2.1,0.484 2.76666,0.89867 0.82134,0.51867 1.62667,1.08933 2.43467,1.66 1.53733,1.08933 3.128,2.21467 4.90133,3.04267 2.77067,1.292 5.53067,2.60133 8.28267,3.932 1.944,0.94 3.87733,1.916 5.81333,2.89466 5.764,2.91067 11.724,5.92134 18.008,7.948 10.88267,3.51067 40.92133,18.47067 47.424,26.20134 5.41333,6.43466 15.14,43.73466 17.292,60.13333 0.98267,7.5 1.09867,15.35866 1.20933,22.95733 0.0493,3.35867 0.1,6.832 0.22667,10.21333 0.0133,0.37467 0.0107,1.516 0.009,3.12534 -0.0227,13.316 0.204,20.76266 0.64934,23.58266 z"
       style="display:inline;fill:#88966c;fill-opacity:1;fill-rule:nonzero;stroke:none;stroke-width:1.33333"
       id="path2416"
       sodipodi:nodetypes="csccccccczcczzcscccsccccccccc" /><path
       id="path4"
       style="color:#000000;fill:#ffd59c;-inkscape-stroke:none"
       d="m 186.03516,204.93945 -2.96875,0.41993 c 0,0 1.16703,8.41028 3.17968,14.28906 1.96125,5.72858 4.97605,12.49756 9.23633,19.56836 4.29179,7.12306 10.26872,14.30414 16.64453,22.20508 6.39315,7.92241 14.65961,17.93719 22.01563,25.38085 7.3287,7.41603 15.7576,14.88111 21.61523,19.19532 5.88985,4.33791 12.33203,7.44726 12.33203,7.44726 l 1.30664,-2.69922 c 0,0 -6.26094,-3.04075 -11.85937,-7.16406 -5.63063,-4.14701 -14.03305,-11.57586 -21.25977,-18.88867 -7.19938,-7.28517 -15.4415,-17.25644 -21.8164,-25.15625 -6.39225,-7.92129 -12.29557,-15.03822 -16.41016,-21.86719 -4.14607,-6.88123 -7.07623,-13.472 -8.9668,-18.99414 -1.83913,-5.37194 -3.04882,-13.73633 -3.04882,-13.73633 z m 98.35623,33.09709 c 0,0 1.19591,10.81415 1.01681,16.9869 -0.18269,6.29668 -0.88482,13.26037 -2.51758,22.30273 -1.64942,9.13472 -2.75855,17.07116 -7.89843,31.60742 -5.09426,14.4072 -17.94131,39.53277 -25.33594,54.54297 C 242.29751,378.41392 231.22266,400 231.22266,400 h 2.87695 c 0,0 10.84077,-20.16334 18.24805,-35.19922 7.37137,-14.96301 20.21733,-40.00444 25.47265,-54.86719 5.2097,-14.73367 6.38616,-23.0068 8.02344,-32.07421 1.65396,-9.15977 2.37519,-16.29429 2.5625,-22.75 0.1909,-6.57966 -1.27463,-16.09042 -1.27463,-16.09042 z"
       sodipodi:nodetypes="ccsssssccsssssccssssccsssscc" /><path
       style="fill:#2d2d2d;fill-opacity:1;stroke:none;stroke-width:1px;stroke-linecap:butt;stroke-linejoin:miter;stroke-opacity:1"
       d="m 185.98802,203.9521 8.41654,-7.76871 2.48167,9.80463 5.98802,20 8.14371,12.93414 21.67665,26.46706 17.60479,18.44312 18.44312,13.41317 4.19161,-12.45509 3.83234,-23.71258 -2.05471,-18.58022 -1.70779,-9.49664 10.59237,4.87592 0.9255,18.76981 -3.68352,30.2994 -4.79042,18.80239 -5.62874,12.81437 -2.51497,-5.7485 -1.07784,-3.95209 -18.2036,-12.09581 -12.21556,-13.05389 -15.56887,-16.16767 -25.50898,-35.08982 -5.98802,-15.08982 z"
       id="path3"
       sodipodi:nodetypes="ccccccccccccccccccccccccc" /><path
       id="path2496"
       style="fill:#000000;fill-opacity:1;fill-rule:nonzero;stroke:none;stroke-width:1.33333"
       d="m 184.33398,203.44141 c -3.28186,2.67326 -6.72609,5.0035 -10.60742,6.82617 -3.97998,1.86933 -8.15424,3.27383 -12.26758,4.8125 -14.21062,5.31331 -27.72025,12.33563 -40.96289,19.73828 -20.801286,11.62664 -41.082946,24.2586 -60.017574,38.72656 -11.738644,8.96931 -23.264883,19.04012 -29.658204,32.35742 -3.421325,7.12666 -5.229669,14.90474 -6.875,22.63672 -5.033321,23.65862 -8.775632,47.58709 -12.515624,71.48438 1.839996,-0.0133 3.679535,0.0133 5.519531,0 2.793327,-24.90129 6.417956,-49.7639 10.863281,-74.42383 0.841332,-4.66667 1.730135,-9.38413 3.716797,-13.68945 1.72133,-3.72666 4.217217,-7.03804 6.810547,-10.22071 7.411984,-9.09464 15.764288,-17.39525 24.710937,-24.97656 8.975982,-7.60531 18.541276,-14.49305 28.419922,-20.87305 11.265317,-7.27731 23.076477,-13.50958 34.703127,-20.10156 11.25865,-6.38398 22.80358,-12.34111 34.71289,-17.39844 5.03331,-2.13865 10.33274,-3.58317 15.33008,-5.8125 0.77156,-0.34411 4.66234,-3.32161 8.77343,-6.5039 0.4438,3.09753 2.14547,13.36951 6.55274,22.32617 5.15559,10.47745 16.17876,25.18277 25.44922,36.80859 9.33418,11.70574 22.89297,25.42628 31.33008,32.77735 7.62838,6.64643 16.37157,11.93251 18.14062,12.98242 0.73079,3.09155 2.34046,5.55951 3.10547,6.66992 -3.87863,8.94386 -8.53176,18.21818 -13.24219,28.0918 C 248.38826,362.3185 228.8125,400 228.8125,400 h 3.94336 c 0,0 18.3723,-36.22615 26.36719,-52.98438 7.95073,-16.66569 15.91788,-31.81058 20.12695,-46.82812 4.17941,-14.91169 6.65218,-30.86661 7.38477,-41.08398 0.51893,-7.23759 -0.5571,-14.83937 -0.88787,-18.53959 l 32.54412,15.07669 c 9.48798,3.06 36.60953,15.33718 42.99218,22.92383 3.488,4.14533 8.13818,12.60657 9.10352,17.81055 1.756,9.47731 6.29094,21.20533 7.48828,30.80664 1.88,15.07865 2.47149,30.28427 2.54883,45.51758 0.0453,9.09332 -0.0915,18.20424 -0.24219,27.32422 1.34934,-0.0187 5.73367,0.0187 7.375,0 -1.50133,-0.404 -1.11541,-24.72182 -1.19141,-26.75782 -0.40933,-10.99729 -0.0134,-22.37565 -1.44531,-33.29296 -2.15734,-16.44931 -11.95908,-54.12165 -17.59375,-60.82032 -6.98131,-8.29865 -37.71917,-23.28334 -48.03515,-26.61132 -8.256,-2.66267 -15.86906,-7.01213 -23.6504,-10.77344 -2.75731,-1.33334 -5.52418,-2.64675 -8.29882,-3.94141 -2.576,-1.20267 -8.81146,-4.27982 -11.21012,-5.79182 -1.40265,-0.87333 -3.83164,-1.67701 -5.29296,-0.54101 -1.98933,1.54798 1.6887,9.39782 1.96269,14.25229 0.21437,3.79807 3.3138,16.03256 0.11265,31.1489 -1.40348,6.62746 -2.9542,12.59156 -4.51562,19.18359 -5.27939,-3.19635 -8.52203,-5.45735 -19.48047,-15.38476 -6.00803,-5.44277 -13.31617,-13.55183 -24.5957,-27.26172 -10.41311,-12.65677 -17.38473,-23.17495 -20.48243,-30.31836 -4.68037,-10.79317 -5.76313,-14.11974 -7.21804,-21.30754 -0.53577,-2.64692 -1.15164,-6.57453 -1.9407,-7.20537 -0.22285,-0.17817 -0.95141,-0.26156 -1.16028,-0.2042 -0.69949,0.19208 -1.03991,1.2045 -1.87921,2.07235 -1.64935,1.70546 -3.8436,4.16257 -7.30763,6.97289 z m 8.44993,-4.98528 c 0.38416,-0.22297 0.77082,5.13719 4.02273,16.29778 2.85422,9.7957 14.24133,28.57994 24.3125,40.39648 10.07117,11.81655 33.56988,36.50281 46.375,43.12109 -0.8073,3.12632 -1.27655,5.9065 -1.31836,9.02344 -2.56108,-1.61459 -9.29872,-6.01856 -15.8164,-11.69726 -8.23455,-7.17459 -21.78704,-20.89035 -30.94336,-32.37305 -9.22007,-11.56261 -20.20662,-26.31621 -25.0918,-36.24414 -4.29873,-8.73607 -5.97121,-20.62935 -6.30664,-23.27539 3.80484,-2.95639 4.08038,-4.85124 4.76633,-5.24895 z m 81.62902,37.41221 8.0703,3.07059 c 0,0 1.70071,11.00234 1.05974,19.94193 -0.71329,9.94829 -3.1677,25.80791 -7.27735,40.4707 -1.62023,5.78086 -3.85469,11.64545 -6.4414,17.6543 -1.51053,-6.02269 -1.92533,-9.29053 -0.51367,-16.37695 0.79031,-3.96728 4.11069,-11.0896 6.11544,-21.05746 1.86373,-9.26663 2.72418,-16.97553 2.4422,-20.52745 -0.61702,-7.77201 -2.81793,-17.27435 -3.45526,-23.17566 z m 91.22574,89.00471 c -1.2,9.90531 -1.29074,57.81841 -2.58008,75.15039 h 5.57422 c 0.484,-9.21464 0.56592,-29.24096 0.16992,-41.90625 -0.308,-9.85198 -3.16406,-33.24414 -3.16406,-33.24414 z m -244.20117,5.93554 c 0,0 8.91405,33.48958 9.99805,69.21485 h 5.56054 c 0,0 1.06537,-39.53091 -15.55859,-69.21485 z"
       sodipodi:nodetypes="sccccsccccccccccccsssccsccsssccccccccccccccccsscsssssssscccssscccccscssscsccsccccccc" /><path
       id="path2550"
       style="opacity:0.199997;fill:#000000;fill-opacity:1;fill-rule:nonzero;stroke:none;stroke-width:1.33333"
       d="m 193.47461,197.38281 c -1.04068,-0.217 -15.23365,12.23652 -19.18164,14.08985 -3.14267,1.47733 -6.43071,2.68046 -9.60938,3.84179 -0.92,0.336 -1.84048,0.67101 -2.75781,1.01367 -14.95065,5.592 -29.00464,13.07297 -40.7793,19.6543 -23.339971,13.04532 -42.918768,25.67977 -59.857418,38.6211 -11.453321,8.75199 -22.927584,18.67029 -29.267578,31.87695 -3.347996,6.97599 -5.114152,14.54527 -6.771484,22.33594 -4.233329,19.90398 -7.146014,40.03939 -10.527344,60.08203 -0.582666,3.74533 -1.162375,7.469 -1.734375,11.125 h 89.546879 c -0.15867,-0.192 -0.31489,-0.37994 -0.46289,-0.5586 -11.106655,-13.36665 -25.097623,-33.21962 -23.126958,-51.59961 -0.574666,5.42666 4.880909,9.89518 7.628907,13.95118 4.661328,6.88132 10.141713,13.18347 16.345701,18.71679 1.852,1.65067 3.90585,2.70008 5.95117,4.08008 -0.0547,-0.79733 -0.72434,-1.55611 -1.01367,-2.27344 -0.372,-0.92 -0.77531,-1.83728 -1.19531,-2.75195 -3.89067,-8.47332 -5.68391,-17.4178 -7.503907,-26.56445 -1.630665,-8.19999 -3.640956,-17.31543 -1.515625,-25.60742 0.188,-0.73067 0.412927,-1.45226 0.683594,-2.15625 -1.037333,2.70132 12.962298,11.32498 14.931638,13.20898 4.60933,4.408 8.37529,9.70425 11.00196,15.51758 2.44932,5.41866 3.08125,12.12247 7.28125,16.59179 0.68132,-10.05198 -4.30021,-18.29871 -6.18555,-27.83203 -1.832,-9.26266 -5.98663,-16.09972 -12.39063,-23.23437 -1.70132,-1.89467 -3.54514,-3.71542 -4.73046,-5.96875 -1.42,-2.70267 -4.41547,-6.25331 -4.35547,-9.30664 0.25067,-12.82799 2.4383,-24.25303 11.29297,-33.90235 18.22798,-19.86132 39.37335,-33.50115 63.86132,-43.86914 0.728,2.09067 5.08113,6.16933 7.45313,9.08399 -24.87065,16.23732 -76.95481,53.40219 -72.24414,77.04883 -0.328,-2.56 -0.21726,-14.46792 24.16406,-36.08789 13.59465,-12.05599 33.10111,-26.3602 50.75977,-37.99219 9.56399,9.65999 26.35119,35.1539 69.49609,52.43359 l -46.4668,-48.95508 c -4.84586,-5.68599 -10.96282,-20.06413 -13.8164,-27.98047 -2.85359,-7.91633 -3.38457,-16.17628 -4.9043,-16.63281 z m 91.65625,46.05664 -0.20703,2.57032 c 0,0 22.44853,9.05048 53.3125,32.59179 13.39464,10.21599 22.49609,26.15625 22.49609,26.15625 -6.27732,-31.38797 -75.60156,-61.31836 -75.60156,-61.31836 z M 150.50391,301.375 c 0,0 1.35261,18.26842 38.2539,38.67773 21.26143,11.76001 45.58156,15.88346 62.58789,17.34571 l 1.43164,-3.16406 C 192.54077,339.48621 150.50391,301.375 150.50391,301.375 Z m 22.94921,45.05859 c 0,0 16.04364,22.32017 60.6836,17.4375 0,0 -39.06096,-3.48818 -60.6836,-17.4375 z"
       sodipodi:nodetypes="ccccccccccccccccccccccccccccccccccccscccccccccccccc" /></g><g
     inkscape:groupmode="layer"
     id="layer2"
     inkscape:label="Bolian Ridge"
     style="display:none"><path
       style="display:inline;fill:none;stroke:#000000;stroke-width:0.8;stroke-linecap:butt;stroke-linejoin:miter;stroke-dasharray:none;stroke-opacity:1"
       d="m 260.11976,248.62275 23.2919,-42.7347"
       id="path1746"
       sodipodi:nodetypes="cc" /><path
       style="color:#000000;display:inline;fill:#000000;fill-opacity:0.2;-inkscape-stroke:none"
       d="m 280.56961,203.94359 -23.46249,43.15852 1.7902,0.83818 23.12351,-42.81954 z"
       id="path1748"
       sodipodi:nodetypes="ccccc" /></g><g
     inkscape:groupmode="layer"
     id="layer1"
     inkscape:label="Command Symbol"
     style="display:inline" /><g
     inkscape:groupmode="layer"
     id="layer3"
     inkscape:label="Science Symbol"
     style="display:none"><path
       id="path18248"
       style="color:#000000;fill:#000000;stroke-miterlimit:40;-inkscape-stroke:none"
       d="m 332.87305,361.21094 c -4.04887,0 -7.33985,3.32166 -7.33985,7.39453 0,4.07285 3.29098,7.39258 7.33985,7.39258 4.04885,0 7.33984,-3.31973 7.33984,-7.39258 0,-4.07287 -3.29099,-7.39453 -7.33984,-7.39453 z m 0,1.33789 c 2.73417,0 5.03473,1.8326 5.76172,4.35351 -0.33863,-0.37497 -0.78034,-0.70281 -1.28711,-0.97461 -1.17409,-0.62966 -2.74479,-1 -4.47461,-1 -1.72983,0 -3.30053,0.37034 -4.47461,1 -0.50678,0.2718 -0.94849,0.59964 -1.28711,0.97461 0.72699,-2.52091 3.02754,-4.35351 5.76172,-4.35351 z m 0,3.26172 c 1.60192,0 3.04733,0.35323 4.05664,0.89453 1.00931,0.5413 1.53515,1.22931 1.53515,1.90039 0,0.67108 -0.52584,1.35714 -1.53515,1.89844 -1.00931,0.5413 -2.45472,0.89453 -4.05664,0.89453 -1.60193,0 -3.04733,-0.35323 -4.05664,-0.89453 -1.00931,-0.5413 -1.53516,-1.22736 -1.53516,-1.89844 0,-0.67108 0.52585,-1.35909 1.53516,-1.90039 1.00931,-0.5413 2.45471,-0.89453 4.05664,-0.89453 z m -5.76172,4.49414 c 0.33874,0.37499 0.77986,0.70452 1.28711,0.97656 1.17408,0.62967 2.74478,1 4.47461,1 1.72982,0 3.30052,-0.37033 4.47461,-1 0.50724,-0.27204 0.94836,-0.60157 1.28711,-0.97656 -0.72583,2.52232 -3.02624,4.35547 -5.76172,4.35547 -2.73549,0 -5.0359,-1.83315 -5.76172,-4.35547 z" /></g><g
     inkscape:groupmode="layer"
     id="layer4"
     inkscape:label="Engineering Symbol"
     style="display:none"><path
       style="fill:#000000;fill-opacity:1;stroke:none;stroke-width:1px;stroke-linecap:butt;stroke-linejoin:miter;stroke-opacity:1"
       d="m 331.43646,368.93354 1.69663,2.8042 4.11732,-0.70473 0.19145,-6.21096 -4.39744,-2.58514 -5.71884,3.46076 0.93023,7.55814 c 0,0 4.28245,1.70728 5.93024,2.09303 1.64779,0.38575 3.83721,0.58844 3.83721,0.58844 v -0.2531 c 0,0 -4.76702,-2.01198 -6.33368,-3.1742 -1.56667,-1.16223 -2.40861,-2.35373 -2.50353,-3.90533 -0.0949,-1.5516 0.76529,-3.24821 1.86046,-3.95993 1.09517,-0.71172 2.27643,-0.72009 3.25582,-0.22611 0.97939,0.49398 1.65971,1.23735 1.83285,2.24275 0.17314,1.0054 0.18323,1.91963 -0.40284,2.8183 -0.58607,0.89868 -1.61074,0.63107 -2.29858,0.19206 -0.68785,-0.43902 -1.45702,-1.53218 -1.45702,-1.53218 z"
       id="path18493"
       sodipodi:nodetypes="ccccccczcczzzzzzzcc" /></g></svg>
