<?xml version="1.0" encoding="UTF-8" standalone="no"?>
<!-- Created with Inkscape (http://www.inkscape.org/) -->

<svg
   version="1.1"
   id="svg18722"
   width="400"
   height="400"
   viewBox="0 0 400 400"
   sodipodi:docname="OriginalSeriesAverageFemaleCommandVariant.svg"
   inkscape:version="1.3.2 (091e20e, 2023-11-25)"
   xml:space="preserve"
   xmlns:inkscape="http://www.inkscape.org/namespaces/inkscape"
   xmlns:sodipodi="http://sodipodi.sourceforge.net/DTD/sodipodi-0.dtd"
   xmlns="http://www.w3.org/2000/svg"
   xmlns:svg="http://www.w3.org/2000/svg"><defs
     id="defs18726" /><sodipodi:namedview
     id="namedview18724"
     pagecolor="#ffffff"
     bordercolor="#666666"
     borderopacity="1.0"
     inkscape:showpageshadow="2"
     inkscape:pageopacity="0.0"
     inkscape:pagecheckerboard="0"
     inkscape:deskcolor="#d1d1d1"
     showgrid="false"
     inkscape:zoom="2.39"
     inkscape:cx="199.79079"
     inkscape:cy="200"
     inkscape:window-width="2200"
     inkscape:window-height="1169"
     inkscape:window-x="2223"
     inkscape:window-y="32"
     inkscape:window-maximized="0"
     inkscape:current-layer="g18730"><inkscape:page
       x="0"
       y="0"
       id="page18728"
       width="400"
       height="400"
       margin="0"
       bleed="0" /></sodipodi:namedview><g
     id="g18730"
     inkscape:groupmode="layer"
     inkscape:label="Page 1"
     style="display:inline"><path
       d="m 51.219732,399.9668 c 0.157333,-3.77733 -0.618667,-8.85333 -1.349333,-12.35867 -0.169334,-0.81466 -0.337334,-1.61866 -0.490667,-2.41466 -0.338667,-1.756 -0.733333,-3.45467 -1.117333,-5.09734 -0.74,-3.17466 -1.497334,-6.428 -1.810667,-9.99333 -1.090666,-12.448 0.938667,-28.52667 6.202667,-49.152 0.892,-3.49466 1.878666,-6.932 2.932,-10.21733 4.098666,-13.75733 13.951999,-27.10933 24.605332,-37.62667 2.390667,-2.36 4.978667,-4.73866 7.689333,-7.06933 0.350667,-0.30133 0.825334,-0.56533 1.329334,-0.844 0.302666,-0.16667 0.6,-0.332 0.878666,-0.50533 0.832,-0.51867 1.662667,-1.04 2.492,-1.564 5.358667,-3.384 11.027996,-6.24667 16.511996,-9.01467 4.34667,-2.19333 8.84134,-4.46133 13.196,-6.996 5.44134,-3.16667 15.18227,-7.91594 18.34893,-7.91594 2.64534,0 2.19163,2.67066 5.31444,7.06001 2.42276,3.40536 6.05909,6.1287 9.34309,8.6407 4.69613,3.59214 4.57671,2.32532 13.01488,8.4579 5.48376,3.99188 34.47279,17.04361 45.52533,20.37866 7.20533,2.176 14.24506,5.13988 20.352,7.756 13.20764,5.65794 26.19262,12.02805 39.73957,16.76401 6.01221,3.37298 12.76448,6.26512 19.51246,8.28747 5.62133,-1.40667 0.75197,-14.01948 4.48797,-18.71814 6.97333,-8.768 6.40533,-19.82 5.85466,-30.50934 -0.284,-5.508 -0.552,-10.73066 0.19867,-15.46133 h 0.0453 c 5.78134,0 11.536,3.09333 16.61334,5.824 4.59466,2.47067 9.02266,5.608 13.30533,8.64133 l 2.10133,1.48534 c 8.11467,5.71066 14.96,13.37333 20.928,23.43066 4.66667,7.86267 8.3,16.504 10.79867,25.68267 0.688,2.524 1.304,5.14533 1.83066,7.78933 2.49067,12.50667 5.31467,26.68133 3.124,40.732 -0.37466,2.404 -0.97466,4.75467 -1.73333,7.732 -0.50533,1.976 -1.06667,4.17333 -1.69467,6.88133 -0.26133,0.036 -0.51066,0.14 -0.71733,0.304 -0.508,0.424 -0.68133,1.08534 -0.46133,1.668 0.092,0.24667 0.19466,0.50134 0.30666,0.75734 0.62134,1.42 1.264,3.008 1.75334,4.972 0.33333,1.332 0.732,2.68666 1.13466,4.05066 0.65467,2.22134 1.32534,5.96667 1.69467,8.16267 z"
       style="fill:#88966c;fill-opacity:1;fill-rule:nonzero;stroke:none;stroke-width:1.33333"
       id="path19818"
       sodipodi:nodetypes="ccccccccccccccsssccssccccscccccccccccscccc" /><path
       d="m 351.92466,336.73613 c 0.13466,9.94667 1.02533,19.00934 6.07466,28.44667 4.21867,7.88667 9.26134,15.096 10.64667,24.13867 0.56267,3.65733 1.56533,7.37466 2.65067,10.908 1.23333,0.0133 2.46666,0.028 3.7,0.0427 0.46,0.005 -3.808,-15.828 -4.35334,-17.26 -3.184,-8.37066 -7.58266,-16.62133 -11.13733,-24.992 -3.84267,-9.052 -6.28667,-18.46666 -7.59467,-28.21199 -0.008,2.36533 -0.0173,4.66933 0.0133,6.92799"
       style="fill:#000000;fill-opacity:1;fill-rule:nonzero;stroke:none;stroke-width:1.33333"
       id="path19902" /><path
       style="color:#000000;fill:#000000;fill-opacity:0.2;-inkscape-stroke:none"
       d="m 313.26342,277.32517 -0.37891,0.92578 c 0,0 9.03134,3.71816 14.10742,7.19727 5.13074,3.51657 11.86244,9.5281 15.41414,14.30859 1.12887,1.51943 2.46683,4.16833 3.36218,6.06263 1.90415,4.02857 3.68225,9.08286 4.28785,8.72867 0.60559,-0.35419 -2.53103,-10.37387 -6.25557,-15.387 -3.70247,-4.98342 -11.04079,-10.97211 -16.24219,-14.53711 -5.25605,-3.60246 -14.29492,-7.29883 -14.29492,-7.29883 z"
       id="path8"
       sodipodi:nodetypes="ccssszssc" /><path
       id="path5"
       style="color:#000000;fill:#ffd59c;-inkscape-stroke:none"
       d="m 141.57617,239.42773 -2.60937,1.48047 c 0,0 3.36176,5.96069 7.08398,10.1875 3.62978,4.12185 7.1369,7.11855 15.13281,13.66407 8.03637,6.57861 23.25,18.21546 33.71289,24.99218 10.39419,6.73224 16.60912,10.17145 28.29493,15.88477 11.73645,5.73807 30.35052,13.63461 42.21679,17.74805 11.90464,4.12672 29.24219,8.0996 29.24219,8.09961 l -0.38867,-3.24024 c 0,0 -16.25002,-3.66688 -27.8711,-7.69531 -11.65943,-4.04174 -30.29651,-11.94277 -41.88281,-17.60742 -11.63695,-5.68944 -17.65227,-9.01754 -27.98047,-15.70703 -10.25948,-6.64499 -25.50216,-18.29617 -33.44336,-24.79688 -7.98163,-6.53382 -11.30948,-9.37959 -14.7832,-13.32422 -3.38127,-3.83964 -6.72461,-9.68555 -6.72461,-9.68555 z m 169.00104,13.77367 -1.49022,1.54665 c 0,0 2.4594,2.55191 3.10156,5.31881 0.66495,2.86506 2.21111,6.80007 1.79778,12.31009 -0.40991,5.46431 -1.63279,11.12695 -3.83008,19.9375 -2.17774,8.73219 -5.40263,17.89036 -10.01758,32.44141 -4.60376,14.5158 -13.64438,42.17575 -17.77539,54.58203 C 278.23177,391.74572 275.27734,400 275.27734,400 h 3.125 c 0,0 2.66842,-7.28686 6.80664,-19.71484 4.13875,-12.42954 13.17515,-40.07524 17.78907,-54.62305 4.60273,-14.51258 7.8419,-23.69358 10.06836,-32.62109 2.2069,-8.84916 3.4786,-14.68656 3.91015,-20.43946 0.42813,-5.70716 -1.27156,-10.065 -2.38719,-13.31705 -1.21847,-3.55182 -4.01216,-6.08311 -4.01216,-6.08311 z"
       sodipodi:nodetypes="ccsssssccssssscccsssssccsssssc" /><path
       id="path19898"
       style="fill:#000000;fill-opacity:1;fill-rule:nonzero;stroke:none;stroke-width:1.33333"
       d="m 144.84477,235.66279 c -3.13216,0.3715 -17.33654,7.66507 -22.60454,10.73174 -9.79599,5.70133 -20.77004,9.38091 -30.443355,15.49024 -0.826666,0.52134 -1.655043,1.04126 -2.484375,1.55859 -0.766666,0.48 -1.686007,0.87842 -2.388672,1.48242 -2.659997,2.28666 -5.255674,4.66072 -7.763672,7.13672 -10.033323,9.90666 -20.285234,23.21301 -24.726562,38.125 -1.071999,3.34267 -2.063606,6.79517 -2.960938,10.3125 -3.749329,14.68932 -7.645378,33.76925 -6.248047,49.72656 0.486667,5.55734 0.892147,9.66193 1.882813,14.8086 0.889332,4.61599 2.730469,14.93164 2.730469,14.93164 h 3.93164 c 0,0 -1.439819,-8.52327 -2.146484,-11.58594 -0.204,-0.88533 -0.409657,-1.77383 -0.597656,-2.67383 -0.373333,-1.792 -2.177823,-12.24047 -2.535157,-15.70312 -1.270664,-12.28799 0.492583,-28.21295 5.392578,-48.6836 0.830666,-3.46665 1.757289,-6.87929 2.751954,-10.14062 3.842663,-13.62265 13.867068,-26.8201 24.40039,-37.21875 2.373331,-2.344 4.938957,-4.70301 7.626953,-7.01367 0.258667,-0.22133 0.68348,-0.45708 1.132813,-0.70508 0.318667,-0.176 0.633688,-0.35178 0.929687,-0.53711 0.833333,-0.52 1.665428,-1.04241 2.496094,-1.56641 5.309328,-3.35332 10.954787,-6.20237 16.412107,-8.95703 4.36667,-2.204 9.5686,-3.93505 13.94727,-6.48437 16.18135,-7.91307 21.74326,-11.9286 30.35258,-7.1126 4.4984,2.51537 8.44475,5.8088 12.34375,9.16015 l 1.66602,-2.6875 c -3.73635,-2.85158 -7.4483,-5.74356 -11.45508,-8.22461 -5.35666,-3.31666 -8.51042,-4.54142 -11.64258,-4.16992 z m 152.42595,12.99388 c -1.43477,3.44884 4.6843,9.41556 4.81522,13.5154 l 6.22461,1.51953 c -0.40497,-2.7092 -4.30547,-6.10955 -3.73639,-8.76895 4.80134,-0.24267 11.24344,1.52392 15.49811,3.81192 4.52665,2.43466 8.92636,5.5505 13.17968,8.5625 l 2.10547,1.49023 c 7.97065,5.60932 14.70399,13.15193 20.58399,23.05859 4.61065,7.77066 8.20183,16.31268 10.67382,25.38868 0.68133,2.49865 1.29117,5.09042 1.8125,7.70507 2.47067,12.40932 5.27257,26.47714 3.11524,40.31446 -0.36534,2.34399 -0.93023,4.55781 -1.71289,7.61914 -1.45067,5.68266 -1.3912,10.32385 0.57812,15.97851 1.01867,2.92533 0.79693,5.86094 1.1836,8.82227 0.336,2.56667 -0.0809,2.29297 3.09375,2.29297 -0.38933,-4.13867 -2.05474,-8.4617 -3.08008,-12.56836 -0.47333,-1.89866 -1.08794,-3.49504 -1.83594,-5.20703 -0.1,-0.22934 -0.192,-0.45755 -0.27734,-0.68555 0.49734,0.31067 0.90662,0.31273 1.02929,-0.22461 1.72666,-7.57199 3.0016,-11.41452 3.65625,-15.61719 2.15734,-13.84265 -0.43343,-27.67615 -3.13476,-41.24414 -0.52933,-2.65333 -1.14418,-5.28538 -1.85352,-7.88672 -2.51199,-9.22132 -6.1918,-18.02422 -10.95312,-26.04687 -5.73333,-9.65866 -12.56509,-17.70354 -21.34375,-23.88086 -5.09466,-3.58534 -10.14065,-7.30675 -15.55664,-10.21875 -5.07032,-2.7265 -12.71014,-5.73103 -17.10972,-6.54942 -4.16699,-0.77512 -6.63868,-1.9424 -6.9555,-1.18082 z"
       sodipodi:nodetypes="scccccccscccccccccccccccccccsscccccccccsccccccccccccccss" /><path
       id="path4"
       style="fill:#2d2d2d;fill-opacity:1;stroke:none;stroke-width:1px;stroke-linecap:butt;stroke-linejoin:miter;stroke-opacity:1"
       d="m 156.6582,225.15039 -11.83398,10.35547 -2.51563,3.40234 5.91797,10.65039 16.27149,14.20118 28.84765,21.74609 30.17774,17.45508 28.69726,12.57422 25.14844,7.83984 16.86328,4.14258 1.92383,9.02344 7.83984,-23.37305 9.76368,-35.65039 -1.18344,-15.23737 -6.35981,-8.72679 -15.0292,-6.90282 -16.62941,-4.95124 -7.74435,-2.80794 c -0.13067,1.64434 -1.0236,5.79676 -1.72222,7.30324 l 4.88129,1.8852 16.6725,4.31548 c 0,0 6.63248,3.67672 9.16372,6.68953 2.53124,3.01281 4.6294,7.71956 5.18653,11.90737 0.55713,4.18781 0.19017,10.51948 0.19017,10.51948 l -3.25391,20.26562 -2.95898,11.53907 -7.24805,-2.36719 -34.17188,-10.65039 -32.39648,-16.86524 -31.36133,-21.00586 -22.92969,-22.04101 -2.95898,-3.99414 10.79883,-7.24805 z"
       sodipodi:nodetypes="ccccccccccccccccccccczzccccccccccc" /><path
       id="path19968"
       style="opacity:0.199997;fill:#000000;fill-opacity:1;fill-rule:nonzero;stroke:none;stroke-width:1.33333"
       d="m 140.19336,238.91406 c -3.16666,0 -12.46563,5.03388 -17.9043,8.19922 -4.35465,2.53466 -8.84864,4.80472 -13.19531,6.99805 -5.48398,2.76667 -11.155016,5.62772 -16.513672,9.01172 -0.829332,0.524 -1.658236,1.04579 -2.490234,1.56445 -0.278667,0.17467 -0.57686,0.34114 -0.88086,0.50781 -0.502665,0.27867 -0.976125,0.54046 -1.328125,0.8418 -2.710661,2.33066 -5.297457,4.70898 -7.689453,7.07031 -10.653311,10.51598 -20.506189,23.8677 -24.603515,37.625 -1.053331,3.28533 -2.040263,6.7241 -2.933594,10.21875 -5.26399,20.62529 -7.291837,36.70437 -6.201172,49.15235 0.312,3.56531 1.070549,6.81753 1.810547,9.99218 0.382665,1.64267 0.778522,3.34166 1.117187,5.09766 0.152,0.796 0.319569,1.60063 0.490235,2.41797 0.679998,3.26798 1.390755,7.88722 1.357422,11.56055 0.016,0.19198 0.02892,0.38284 0.04492,0.57617 0.0053,0.0747 0.01934,0.14541 0.02734,0.21875 h 87.998044 c 0.44,-3.90534 -1.15114,-7.65391 -1.75781,-11.75391 -0.86133,-5.82798 -2.56805,-11.12972 -4.24805,-16.76172 -0.552,-1.852 -1.66944,-3.5925 -2.55078,-5.45117 -0.636,-1.344 -2.01367,-3.60684 -1.01367,-5.07617 0.26,-0.38267 6.63882,8.11976 7.29882,8.98242 1.808,2.36 2.7481,5.0976 4.35743,7.57227 0.84131,1.29331 1.58137,2.70512 2.19335,4.17578 1.72667,-4.40133 -0.70567,-9.99619 -2.29101,-13.99219 -1.44,-3.62933 -2.0608,-7.5705 -3.85547,-11.0625 -2.00532,-3.89867 -5.01467,-7.42847 -7.63867,-10.92578 -0.62133,-0.82934 -2.16233,-4.18591 -1.125,-5.11524 0.81866,-0.73334 4.48007,2.31805 5.30273,2.77539 1.98533,1.10533 3.94325,2.51305 5.89259,3.73438 1.46799,0.92 2.37646,2.37475 3.3418,3.58008 0.904,1.128 1.84594,2.40019 2.72461,3.76953 0.60933,0.94933 1.65254,2.92775 2.42187,3.34375 -0.21866,-0.11733 -0.52673,-3.23275 -0.66406,-3.69141 -0.368,-1.228 -0.87858,-2.42101 -1.50391,-3.54101 -2.38132,-4.26533 -6.00367,-8.00549 -9.125,-11.74414 -2.52265,-3.02266 -5.08556,-6.01277 -7.68554,-8.96875 -1.98134,-2.25334 -3.98296,-3.99999 -5.76563,-6.30664 -0.73466,-0.948 -2.31011,-1.68352 -2.80078,-2.6875 -2.7,-1.368 -4.42272,-6.18443 -5.02539,-8.8711 -0.85467,-3.81198 -0.415,-7.78944 0.70898,-11.49609 2.336,-7.69998 4.84597,-14.57555 10.23349,-20.45966 2.97859,-3.25313 13.78885,-12.9064 17.31683,-14.8544 0.75761,0.78942 2.02534,2.0822 2.10398,2.14023 -2.91514,2.38461 -8.19309,6.85245 -10.82031,10.04492 -4.40652,5.35461 -8.8371,10.95652 -11.82227,17.37305 -1.75641,3.77535 -3.8619,10.81887 -2.19922,11.51562 1.66271,0.69675 3.72266,-6.6196 4.90039,-9.93359 2.70521,-7.61207 6.05292,-13.1673 10.44141,-18.5 2.53736,-3.08328 7.73972,-7.5671 10.41992,-9.8125 18.58483,13.81467 61.29101,48.45943 121.07422,53.77344 -3.19598,-0.284 -9.94202,-3.51728 -12.80469,-4.83594 -18.80262,-8.65598 -37.54463,-16.02132 -55.16992,-27.0293 -9.59998,-5.99598 -18.8109,-12.58909 -27.82422,-19.42773 -8.20264,-6.22267 -16.61092,-12.39549 -23.74023,-19.77149 -4.104,-4.24665 -1.31027,-11.76633 -8.40625,-11.76367 z m 7.28906,65.78321 c 0,0 23.3655,20.74867 50.77344,29.11132 27.40927,8.36266 69.52539,9.37305 69.52539,9.37305 -63.86655,-3.6 -120.29883,-38.48437 -120.29883,-38.48437 z m 50.75391,35.16601 c 5.39731,2.92933 10.01989,7.59394 15.5332,10.58594 22.52523,12.22266 49.55768,14.05167 74.56445,10.54883 l 1.94727,-6.22266 c -30.6651,3.80521 -64.53876,-0.51543 -91.84375,-14.80469 -0.068,-0.0347 -0.13447,-0.0714 -0.20117,-0.10742 z"
       sodipodi:nodetypes="ccccccccccccccccccccccccccccscccccccccccccsccsssssccccccccccccccccc" /><path
       d="m 156.2788,377.99467 c 1.488,-10.98534 -14.33067,-40.28 -30.02534,-51.26533 0,0 31.06667,29.16133 26.272,56.61333 -1.60666,9.196 -0.84266,10.88666 0.0107,16.624 h 5.70133 c -0.83733,-5.28267 -2.96133,-14.57334 -1.95866,-21.972"
       style="fill:#000000;fill-opacity:1;fill-rule:nonzero;stroke:none;stroke-width:1.33333"
       id="path19942" /><path
       id="path19906"
       style="fill:#000000;fill-opacity:1;fill-rule:nonzero;stroke:none;stroke-width:1.33333"
       d="m 156.7793,223.99609 c -0.35824,0.0139 -0.7064,0.0569 -1.05078,0.13672 -0.77932,0.18075 -1.23061,0.533 -1.83594,0.97852 -0.60533,0.44551 -1.27254,1.01003 -1.9961,1.66015 -1.44709,1.30028 -3.10564,2.94431 -4.6875,4.56836 -3.16371,3.24814 -6.01562,6.41602 -6.01562,6.41602 l -0.54688,0.60742 0.21485,0.78906 c 0,0 0.2466,0.90415 0.62109,1.99414 0.37449,1.09001 0.82904,2.34414 1.51172,3.3418 7.18954,10.50673 17.94481,17.79242 27.51758,25.4707 11.78996,9.45669 24.16629,18.33633 37.32422,25.8711 15.54687,8.90277 31.9357,16.44038 48.75195,22.59375 12.04761,4.40843 36.84841,11.25142 36.91406,11.26953 0.34518,1.92683 0.97086,4.47166 1.56836,5.9043 -0.48602,1.52312 -0.84092,2.6614 -1.37695,4.33203 -3.75581,11.70549 -10.5396,32.42382 -13.82617,42.29297 C 276.58028,392.09278 273.73741,400 273.73741,400 h 3.20009 c 0,0 2.48249,-6.94197 5.77539,-16.83008 3.29323,-9.88909 10.07367,-30.59861 13.83594,-42.32422 3.76064,-11.72059 6.18461,-19.48935 8.80664,-27.97461 2.60915,-8.44355 5.30969,-15.92549 6.98047,-23.02734 1.64334,-6.98524 2.45349,-8.97342 2.62703,-14.94584 0.16806,-5.7841 0.50368,-10.12148 -1.51078,-15.24302 -2.00113,-5.08767 -6.40127,-7.96723 -13.04498,-11.14427 -5.79849,-2.77284 -13.90211,-5.23457 -19.8415,-6.97352 -5.36203,-1.56991 -13.06277,-3.5727 -12.91485,-3.72063 l -1.06437,2.07532 c 0,0 8.29773,2.08622 13.12079,3.52726 5.64066,1.68532 14.03639,3.9946 19.01257,6.66849 6.01476,3.23196 9.84444,5.3306 11.64937,9.8631 1.76996,4.44471 1.76267,9.11286 1.5957,14.85938 -0.1615,5.55819 -0.90872,7.37434 -2.5489,14.34623 -1.61277,6.85527 -4.29236,14.30797 -6.92579,22.83008 -2.01325,6.51518 -4.08693,13.12554 -6.56054,20.90625 -0.28466,-2.32835 -0.73398,-5.45939 -0.84961,-8.70313 -0.34983,-9.81385 1.75814,-14.3103 3.2793,-19.30078 4.6891,-15.38361 4.52631,-25.11099 4.26085,-30.83314 -0.26137,-5.63399 -0.31165,-10.00849 -5.16847,-15.88305 -3.90879,-4.72786 -11.25897,-6.45493 -24.24745,-10.20548 -3.30642,-0.95476 -7.53125,-2.27148 -7.53125,-2.27148 0,0 -0.24629,0.53014 -1.00629,1.99414 1.46533,0.75733 3.1144,0.85205 4.6504,1.38672 7.8008,2.72198 19.31528,4.71259 24.66364,9.90493 6.11604,5.93762 6.8201,12.80764 6.08567,22.21933 -0.0708,0.90766 0.16286,2.30271 -0.50984,5.49272 -1.53457,7.2771 -3.66841,16.12014 -3.95508,17.10547 -0.48775,2.25004 -1.39576,5.9049 -1.94531,8.10156 -1.48395,-0.38904 -13.1494,-3.45696 -21.27734,-6.2168 -8.81993,-2.99478 -16.80186,-5.06173 -29.83985,-11.60742 -13.02348,-6.5384 -34.24081,-19.42985 -47.23633,-29.57617 -13.02098,-10.16621 -25.7174,-23.07979 -31.40625,-30.22461 -2.50824,-3.1502 -3.92826,-5.42058 -4.76562,-6.99219 0.2962,0.039 0.52136,0.0449 0.83594,0.0996 1.8288,0.31857 4.04325,0.81501 6.16992,1.33399 4.25332,1.03796 8.15234,2.16406 8.15234,2.16406 l 0.83203,-2.88281 c 0,0 -3.94507,-1.13904 -8.27343,-2.19532 -2.16419,-0.52813 -4.42443,-1.03658 -6.36719,-1.375 -0.97138,-0.1692 -1.81446,-0.32298 -2.58789,-0.39453 -0.38672,-0.0358 -0.75504,-0.051 -1.11328,-0.0371 z m -0.93164,3.41797 c 0.0823,0.18352 0.14294,0.3417 0.24218,0.54297 0.88509,1.79495 2.50021,4.46706 5.46094,8.18555 5.94196,7.4627 18.66199,20.38212 31.90625,30.72265 13.26974,10.36043 34.47025,23.23238 47.73633,29.89258 13.25159,6.65294 21.52606,8.81337 30.2207,11.76563 8.33341,2.8296 20.03884,5.90276 21.5,6.28515 -0.55708,2.7272 -0.10178,7.96422 0.21094,11.65625 -2.00377,-0.55609 -24.26328,-6.74551 -35.50586,-10.85937 -16.66458,-6.09788 -32.90148,-13.56512 -48.29297,-22.37891 -12.97973,-7.43272 -25.22993,-16.21838 -36.93555,-25.60742 -9.69921,-7.7797 -20.15772,-14.94203 -26.91992,-24.82422 -0.30498,-0.4457 -0.81221,-1.63304 -1.15234,-2.62304 -0.19267,-0.56077 -0.22031,-0.69101 -0.31836,-1.02344 0.47342,-0.52375 2.54791,-2.83037 5.35742,-5.71485 1.55591,-1.59741 3.1863,-3.21086 4.54492,-4.43164 0.67932,-0.61039 1.29264,-1.12361 1.76954,-1.47461 0.11419,-0.084 0.0743,-0.0511 0.17578,-0.11328 z"
       sodipodi:nodetypes="ssssscccsssssccssccssssssssccsssssscssssscccsssccssssccsccsssscsssssccssssscsssc" /></g></svg>
