<?xml version="1.0" encoding="UTF-8" standalone="no"?>
<!-- Created with Inkscape (http://www.inkscape.org/) -->

<svg
   version="1.1"
   id="svg1152"
   width="400"
   height="400"
   viewBox="0 0 400 400"
   sodipodi:docname="OriginalSeriesAverageMaleCommandVariant.svg"
   inkscape:version="1.3 (0e150ed, 2023-07-21)"
   xml:space="preserve"
   xmlns:inkscape="http://www.inkscape.org/namespaces/inkscape"
   xmlns:sodipodi="http://sodipodi.sourceforge.net/DTD/sodipodi-0.dtd"
   xmlns="http://www.w3.org/2000/svg"
   xmlns:svg="http://www.w3.org/2000/svg"><defs
     id="defs1156" /><sodipodi:namedview
     id="namedview1154"
     pagecolor="#ffffff"
     bordercolor="#666666"
     borderopacity="1.0"
     inkscape:showpageshadow="2"
     inkscape:pageopacity="0.0"
     inkscape:pagecheckerboard="0"
     inkscape:deskcolor="#d1d1d1"
     showgrid="false"
     inkscape:zoom="2.0875"
     inkscape:cx="200"
     inkscape:cy="200"
     inkscape:window-width="1920"
     inkscape:window-height="1080"
     inkscape:window-x="2312"
     inkscape:window-y="209"
     inkscape:window-maximized="0"
     inkscape:current-layer="svg1152"><inkscape:page
       x="0"
       y="0"
       id="page1158"
       width="400"
       height="400"
       margin="0"
       bleed="0" /></sodipodi:namedview><g
     inkscape:groupmode="layer"
     id="layer5"
     inkscape:label="Neck"><path
       d="m 213.63253,151.29441 -13.54934,47.14666 c 0,0 -9.09866,12.312 -5.11733,20.18133 3.30934,6.54134 22.20292,61.66019 26.30692,64.67219 9.03733,6.63734 27.30133,15.592 38.17467,17.004 l 11.33066,-1.564 2.82534,-2.824 7.14017,-56.86944 -8.64176,-4.16808 18.428,-23.08667 z"
       style="fill:#cd976d;fill-opacity:1;fill-rule:nonzero;stroke:none;stroke-width:1.33333"
       id="path2468"
       sodipodi:nodetypes="ccccccccccc" /><path
       d="m 200.08306,198.44081 c 0,0 -8.332,14.43066 -4.03466,22.58666 1.244,2.35867 7.89599,7.77733 9.01066,9.00933 1.99467,2.20534 15.87467,-2.31466 23.512,-1.91333 11.39067,0.59733 25.19333,0.15733 29.89067,1.56667 6.33866,1.90133 13.09866,2.66533 15.47066,2.89066 l 16.59734,-20.79333 -76.89734,-60.49333 z"
       style="opacity:0.199997;fill:#000000;fill-opacity:1;fill-rule:nonzero;stroke:none;stroke-width:1.33333"
       id="path2478" /><path
       d="m 211.64493,149.52841 c -1.01067,4.99733 -6.2,23.82533 -7.36934,28.788 -0.956,4.064 -1.95733,8.11866 -3.072,12.14266 -0.516,1.85867 -1.07466,3.70267 -1.63333,5.54934 -0.18666,0.616 -0.95466,1.86266 -0.88133,2.47466 0.02,0.16934 0.80667,2.38267 1.11067,1.93733 3.68799,-5.38666 5.03733,-14.18666 7.12666,-20.38133 1.49067,-4.41866 7.06133,-22.68666 8.552,-27.104 0,0 -3.83333,-3.40666 -3.83333,-3.40666"
       style="fill:#000000;fill-opacity:1;fill-rule:nonzero;stroke:none;stroke-width:1.33333"
       id="path2488" /><path
       d="m 293.27599,213.31907 c -2.83733,2.044 -16.28266,19.912 -18.592,22.53067 -1.87866,2.13066 -4.41733,10.85066 -7.52933,10.948 -2.104,0.0653 -1.96987,-3.74286 -1.19333,-5.332 0.79096,-1.61864 21.288,-30.90934 21.288,-30.90934 l 6.02666,2.76267"
       style="fill:#000000;fill-opacity:1;fill-rule:nonzero;stroke:none;stroke-width:1.33333"
       id="path2492"
       sodipodi:nodetypes="cccscc" /></g><g
     id="g1160"
     inkscape:groupmode="layer"
     inkscape:label="Uniform"><path
       d="m 12.988266,400.02293 c 3.601334,-23.004 7.344,-48.092 12.261333,-71.20666 1.657334,-7.79067 3.424,-15.36 6.772,-22.336 6.34,-13.20667 17.813333,-23.12533 29.266666,-31.87733 16.938666,-12.94134 36.518666,-25.57467 59.858665,-38.62 11.77467,-6.58134 25.828,-14.06267 40.77867,-19.65467 4.15865,-1.5283 8.33879,-3.00302 12.368,-4.85467 6.59272,-3.27437 12.14986,-8.22666 17.864,-12.79999 2.172,-1.756 5.32426,-5.38393 6.4212,-2.19779 1.09694,3.18613 -1.08327,17.31945 4.98142,30.35643 6.0647,13.03697 14.79026,23.99578 23.93426,31.0859 8.18592,8.52726 36.62224,41.13182 41.07895,40.55979 0.51892,-4.25577 8.27364,-38.21198 8.66809,-41.67359 0.39444,-3.46162 0.3146,-11.48102 0.0252,-15.22507 -0.28941,-3.74405 -3.27446,-6.5603 -1.59579,-7.86564 0.23866,-0.18666 0.576,-0.28 1.004,-0.28 0.976,0 2.1,0.484 2.76666,0.89867 0.82134,0.51867 1.62667,1.08933 2.43467,1.66 1.53733,1.08933 3.128,2.21467 4.90133,3.04267 2.77067,1.292 5.53067,2.60133 8.28267,3.932 1.944,0.94 3.87733,1.916 5.81333,2.89466 5.764,2.91067 11.724,5.92134 18.008,7.948 10.88267,3.51067 40.92133,18.47067 47.424,26.20134 5.41333,6.43466 15.14,43.73466 17.292,60.13333 0.98267,7.5 1.09867,15.35866 1.20933,22.95733 0.0493,3.35867 0.1,6.832 0.22667,10.21333 0.0133,0.37467 0.0107,1.516 0.009,3.12534 -0.0227,13.316 0.204,20.76266 0.64934,23.58266 z"
       style="fill:#88966c;fill-opacity:1;fill-rule:nonzero;stroke:none;stroke-width:1.33333"
       id="path2416"
       sodipodi:nodetypes="csccccccczcczzcscccsccccccccc" /><path
       id="path4"
       style="color:#000000;fill:#ffd59c;-inkscape-stroke:none"
       d="M 186.03516 204.93945 L 183.06641 205.35938 C 183.06641 205.35938 184.23344 213.76966 186.24609 219.64844 C 188.20734 225.37702 191.22214 232.146 195.48242 239.2168 C 199.77421 246.33986 205.75114 253.52094 212.12695 261.42188 C 218.5201 269.34429 226.78656 279.35907 234.14258 286.80273 C 241.47128 294.21876 249.90018 301.68384 255.75781 305.99805 C 261.64766 310.33596 268.08984 313.44531 268.08984 313.44531 L 269.39648 310.74609 C 269.39648 310.74609 263.13554 307.70534 257.53711 303.58203 C 251.90648 299.43502 243.50406 292.00617 236.27734 284.69336 C 229.07796 277.40819 220.83584 267.43692 214.46094 259.53711 C 208.06869 251.61582 202.16537 244.49889 198.05078 237.66992 C 193.90471 230.78869 190.97455 224.19792 189.08398 218.67578 C 187.24485 213.30384 186.03516 204.93945 186.03516 204.93945 z M 284.81055 238.33594 C 284.81055 238.33594 285.5873 248.85069 285.4082 255.02344 C 285.22551 261.32012 284.52338 268.28381 282.89062 277.32617 C 281.2412 286.46089 280.13207 294.39733 274.99219 308.93359 C 269.89793 323.34079 257.05088 348.46636 249.65625 363.47656 C 242.29751 378.41392 231.22266 400 231.22266 400 L 234.09961 400 C 234.09961 400 244.94038 379.83666 252.34766 364.80078 C 259.71903 349.83777 272.56499 324.79634 277.82031 309.93359 C 283.03001 295.19992 284.20647 286.92679 285.84375 277.85938 C 287.49771 268.69961 288.21894 261.56509 288.40625 255.10938 C 288.59715 248.52972 287.55078 239.31836 287.55078 239.31836 L 284.81055 238.33594 z " /><path
       style="fill:#2d2d2d;fill-opacity:1;stroke:none;stroke-width:1px;stroke-linecap:butt;stroke-linejoin:miter;stroke-opacity:1"
       d="m 185.98802,203.9521 12.21557,-9.7006 -1.31736,11.73652 5.98802,20 8.14371,12.93414 21.67665,26.46706 17.60479,18.44312 18.44312,13.41317 4.19161,-12.45509 3.83234,-23.71258 0.95808,-17.96407 -0.95808,-8.86227 8.86227,5.1497 -0.5988,17.24551 -4.19162,30.2994 -4.79042,18.80239 -5.62874,12.81437 -2.51497,-5.7485 -1.07784,-3.95209 -18.2036,-12.09581 -12.21556,-13.05389 -15.56887,-16.16767 -25.50898,-35.08982 -5.98802,-15.08982 z"
       id="path3"
       sodipodi:nodetypes="ccccccccccccccccccccccccc" /><path
       id="path2496"
       style="fill:#000000;fill-opacity:1;fill-rule:nonzero;stroke:none;stroke-width:1.33333"
       d="M 198.07227 192.24609 C 197.8041 192.30393 197.55184 192.42985 197.33984 192.61719 C 195.3812 194.34385 193.34965 195.99538 191.32031 197.63672 C 188.81846 199.39173 186.68125 201.52942 184.33398 203.44141 C 181.05212 206.11467 177.60789 208.44491 173.72656 210.26758 C 169.74658 212.13691 165.57232 213.54141 161.45898 215.08008 C 147.24836 220.39339 133.73873 227.41571 120.49609 234.81836 C 99.694804 246.445 79.413144 259.07696 60.478516 273.54492 C 48.739872 282.51423 37.213633 292.58504 30.820312 305.90234 C 27.398987 313.029 25.590643 320.80708 23.945312 328.53906 C 18.911991 352.19768 15.16968 376.12615 11.429688 400.02344 C 13.269684 400.01014 15.109223 400.03674 16.949219 400.02344 C 19.742546 375.12215 23.367175 350.25954 27.8125 325.59961 C 28.653832 320.93294 29.542635 316.21548 31.529297 311.91016 C 33.250627 308.1835 35.746514 304.87212 38.339844 301.68945 C 45.751828 292.59481 54.104132 284.2942 63.050781 276.71289 C 72.026763 269.10758 81.592057 262.21984 91.470703 255.83984 C 102.73602 248.56253 114.54718 242.33026 126.17383 235.73828 C 137.43248 229.3543 148.97741 223.39717 160.88672 218.33984 C 165.92003 216.20119 171.21946 214.75667 176.2168 212.52734 C 176.98836 212.18323 180.87914 209.20573 184.99023 206.02344 C 185.43403 209.12097 187.1357 219.39295 191.54297 228.34961 C 196.69856 238.82706 207.72173 253.53238 216.99219 265.1582 C 226.32637 276.86394 239.88516 290.58448 248.32227 297.93555 C 255.95065 304.58198 264.69384 309.86806 266.46289 310.91797 C 267.19368 314.00952 268.80335 316.47748 269.56836 317.58789 C 265.68973 326.53175 261.0366 335.80607 256.32617 345.67969 C 248.38826 362.3185 228.8125 400 228.8125 400 L 232.75586 400 C 232.75586 400 251.12816 363.77385 259.12305 347.01562 C 267.07378 330.34993 275.04093 315.20504 279.25 300.1875 C 283.42941 285.27581 285.90218 269.32089 286.63477 259.10352 C 287.1537 251.86593 286.67647 244.74319 286.3457 241.04297 L 318.29102 255.64062 C 327.779 258.70062 354.90055 270.9778 361.2832 278.56445 C 364.7712 282.70978 369.42138 291.17102 370.38672 296.375 C 372.14272 305.85231 376.67766 317.58033 377.875 327.18164 C 379.755 342.26029 380.34649 357.46591 380.42383 372.69922 C 380.46913 381.79254 380.33228 390.90346 380.18164 400.02344 C 381.53098 400.00474 385.91531 400.04214 387.55664 400.02344 C 386.05531 399.61944 386.44123 375.30162 386.36523 373.26562 C 385.9559 362.26833 386.35188 350.88997 384.91992 339.97266 C 382.76258 323.52335 372.96084 285.85101 367.32617 279.15234 C 360.34486 270.85369 329.607 255.869 319.29102 252.54102 C 311.03502 249.87835 303.42196 245.52889 295.64062 241.76758 C 292.88331 240.43424 290.11644 239.12083 287.3418 237.82617 C 284.7658 236.6235 282.54514 234.71317 280.14648 233.20117 C 278.74383 232.32784 276.31484 231.52416 274.85352 232.66016 C 272.86419 234.20814 275.53851 241.22365 275.8125 246.07812 C 276.02687 249.87619 276.11521 261.77819 272.91406 276.89453 C 271.51058 283.52199 269.95986 289.48609 268.39844 296.07812 C 263.11905 292.88177 259.87641 290.62077 248.91797 280.69336 C 242.90994 275.25059 235.6018 267.14153 224.32227 253.43164 C 213.90916 240.77487 206.93754 230.25669 203.83984 223.11328 C 199.15947 212.32011 199.02132 208.59796 199.75391 198.34766 C 199.94643 195.65393 201.17382 193.50974 198.89648 192.2832 C 198.62381 192.1992 198.34043 192.18826 198.07227 192.24609 z M 196.47852 197.24805 C 196.86268 197.02508 193.55473 203.59332 196.80664 214.75391 C 199.66086 224.54961 211.04797 243.33385 221.11914 255.15039 C 231.19031 266.96694 254.68902 291.6532 267.49414 298.27148 C 266.68684 301.3978 266.21759 304.17798 266.17578 307.29492 C 263.6147 305.68033 256.87706 301.27636 250.35938 295.59766 C 242.12483 288.42307 228.57234 274.70731 219.41602 263.22461 C 210.19595 251.662 199.2094 236.9084 194.32422 226.98047 C 190.02549 218.2444 188.35301 206.35112 188.01758 203.70508 C 191.82242 200.74869 195.79257 197.64576 196.47852 197.24805 z M 278.42773 237.03516 L 283.08203 239.41797 C 283.26931 241.09563 284.18394 249.94127 283.54297 258.88086 C 282.82968 268.82915 280.37527 284.68877 276.26562 299.35156 C 274.64539 305.13242 272.41093 310.99701 269.82422 317.00586 C 268.31369 310.98317 267.89889 307.71533 269.31055 300.62891 C 270.10086 296.66163 273.19056 289.3663 275.19531 279.39844 C 277.05904 270.13181 278.85462 260.58534 278.90625 258.98633 C 279.14648 251.54636 279.06506 242.93647 278.42773 237.03516 z M 365.63867 324.87305 C 364.43867 334.77836 364.34793 382.69146 363.05859 400.02344 L 368.63281 400.02344 C 369.11681 390.8088 369.19873 370.78248 368.80273 358.11719 C 368.49473 348.26521 365.63867 324.87305 365.63867 324.87305 z M 121.4375 330.80859 C 121.4375 330.80859 130.35155 364.29817 131.43555 400.02344 L 136.99609 400.02344 C 136.99609 400.02344 138.06146 360.49253 121.4375 330.80859 z " /><path
       id="path2550"
       style="opacity:0.199997;fill:#000000;fill-opacity:1;fill-rule:nonzero;stroke:none;stroke-width:1.33333"
       d="M 196.72461 196.63281 C 195.68393 196.41581 178.24096 209.61933 174.29297 211.47266 C 171.1503 212.94999 167.86226 214.15312 164.68359 215.31445 C 163.76359 215.65045 162.84311 215.98546 161.92578 216.32812 C 146.97513 221.92012 132.92114 229.40109 121.14648 235.98242 C 97.806509 249.02774 78.227712 261.66219 61.289062 274.60352 C 49.835741 283.35551 38.361478 293.27381 32.021484 306.48047 C 28.673488 313.45646 26.907332 321.02574 25.25 328.81641 C 21.016671 348.72039 18.103986 368.8558 14.722656 388.89844 C 14.13999 392.64377 13.560281 396.36744 12.988281 400.02344 L 102.53516 400.02344 C 102.37649 399.83144 102.22027 399.6435 102.07227 399.46484 C 90.965615 386.09819 76.974647 366.24522 78.945312 347.86523 C 78.370646 353.29189 83.826221 357.76041 86.574219 361.81641 C 91.235547 368.69773 96.715932 374.99988 102.91992 380.5332 C 104.77192 382.18387 106.82577 383.23328 108.87109 384.61328 C 108.81639 383.81595 108.14675 383.05717 107.85742 382.33984 C 107.48542 381.41984 107.08211 380.50256 106.66211 379.58789 C 102.77144 371.11457 100.9782 362.17009 99.158203 353.02344 C 97.527538 344.82345 95.517247 335.70801 97.642578 327.41602 C 97.830578 326.68535 98.055505 325.96376 98.326172 325.25977 C 97.288839 327.96109 111.28847 336.58475 113.25781 338.46875 C 117.86714 342.87675 121.6331 348.173 124.25977 353.98633 C 126.70909 359.40499 127.34102 366.1088 131.54102 370.57812 C 132.22234 360.52614 127.24081 352.27941 125.35547 342.74609 C 123.52347 333.48343 119.36884 326.64637 112.96484 319.51172 C 111.26352 317.61705 109.4197 315.7963 108.23438 313.54297 C 106.81438 310.8403 103.81891 307.28966 103.87891 304.23633 C 104.12958 291.40834 106.31721 279.9833 115.17188 270.33398 C 133.39986 250.47266 154.54523 236.83283 179.0332 226.46484 C 179.7612 228.55551 184.11433 232.63417 186.48633 235.54883 C 161.61568 251.78615 109.53152 288.95102 114.24219 312.59766 C 113.91419 310.03766 114.02493 298.12974 138.40625 276.50977 C 152.0009 264.45378 171.50736 250.14957 189.16602 238.51758 C 198.73001 248.17757 215.51721 273.67148 258.66211 290.95117 L 212.19531 241.99609 C 207.34945 236.3101 201.23249 221.93196 198.37891 214.01562 C 195.52532 206.09929 198.24434 197.08934 196.72461 196.63281 z M 285.13086 243.43945 L 284.92383 246.00977 C 284.92383 246.00977 307.37236 255.06025 338.23633 278.60156 C 351.63097 288.81755 360.73242 304.75781 360.73242 304.75781 C 354.4551 273.36984 285.13086 243.43945 285.13086 243.43945 z M 150.50391 301.375 C 150.50391 301.375 151.85652 319.64342 188.75781 340.05273 C 210.01924 351.81274 234.33937 355.93619 251.3457 357.39844 L 252.77734 354.23438 C 192.54077 339.48621 150.50391 301.375 150.50391 301.375 z M 173.45312 346.43359 C 173.45312 346.43359 189.49676 368.75376 234.13672 363.87109 C 234.13672 363.87109 195.07576 360.38291 173.45312 346.43359 z " /></g><g
     inkscape:groupmode="layer"
     id="layer2"
     inkscape:label="Bolian Ridge"
     style="display:none"><path
       style="display:inline;fill:none;stroke:#000000;stroke-width:0.8;stroke-linecap:butt;stroke-linejoin:miter;stroke-dasharray:none;stroke-opacity:1"
       d="m 260.11976,248.62275 23.2919,-42.7347"
       id="path1746"
       sodipodi:nodetypes="cc" /><path
       style="color:#000000;display:inline;fill:#000000;fill-opacity:0.2;-inkscape-stroke:none"
       d="m 280.56961,203.94359 -23.46249,43.15852 1.7902,0.83818 23.12351,-42.81954 z"
       id="path1748"
       sodipodi:nodetypes="ccccc" /></g><g
     inkscape:groupmode="layer"
     id="layer1"
     inkscape:label="Command Symbol"
     style="display:inline" /><g
     inkscape:groupmode="layer"
     id="layer3"
     inkscape:label="Science Symbol"
     style="display:none"><path
       id="path18248"
       style="color:#000000;fill:#000000;stroke-miterlimit:40;-inkscape-stroke:none"
       d="m 332.87305,361.21094 c -4.04887,0 -7.33985,3.32166 -7.33985,7.39453 0,4.07285 3.29098,7.39258 7.33985,7.39258 4.04885,0 7.33984,-3.31973 7.33984,-7.39258 0,-4.07287 -3.29099,-7.39453 -7.33984,-7.39453 z m 0,1.33789 c 2.73417,0 5.03473,1.8326 5.76172,4.35351 -0.33863,-0.37497 -0.78034,-0.70281 -1.28711,-0.97461 -1.17409,-0.62966 -2.74479,-1 -4.47461,-1 -1.72983,0 -3.30053,0.37034 -4.47461,1 -0.50678,0.2718 -0.94849,0.59964 -1.28711,0.97461 0.72699,-2.52091 3.02754,-4.35351 5.76172,-4.35351 z m 0,3.26172 c 1.60192,0 3.04733,0.35323 4.05664,0.89453 1.00931,0.5413 1.53515,1.22931 1.53515,1.90039 0,0.67108 -0.52584,1.35714 -1.53515,1.89844 -1.00931,0.5413 -2.45472,0.89453 -4.05664,0.89453 -1.60193,0 -3.04733,-0.35323 -4.05664,-0.89453 -1.00931,-0.5413 -1.53516,-1.22736 -1.53516,-1.89844 0,-0.67108 0.52585,-1.35909 1.53516,-1.90039 1.00931,-0.5413 2.45471,-0.89453 4.05664,-0.89453 z m -5.76172,4.49414 c 0.33874,0.37499 0.77986,0.70452 1.28711,0.97656 1.17408,0.62967 2.74478,1 4.47461,1 1.72982,0 3.30052,-0.37033 4.47461,-1 0.50724,-0.27204 0.94836,-0.60157 1.28711,-0.97656 -0.72583,2.52232 -3.02624,4.35547 -5.76172,4.35547 -2.73549,0 -5.0359,-1.83315 -5.76172,-4.35547 z" /></g><g
     inkscape:groupmode="layer"
     id="layer4"
     inkscape:label="Engineering Symbol"
     style="display:none"><path
       style="fill:#000000;fill-opacity:1;stroke:none;stroke-width:1px;stroke-linecap:butt;stroke-linejoin:miter;stroke-opacity:1"
       d="m 331.43646,368.93354 1.69663,2.8042 4.11732,-0.70473 0.19145,-6.21096 -4.39744,-2.58514 -5.71884,3.46076 0.93023,7.55814 c 0,0 4.28245,1.70728 5.93024,2.09303 1.64779,0.38575 3.83721,0.58844 3.83721,0.58844 v -0.2531 c 0,0 -4.76702,-2.01198 -6.33368,-3.1742 -1.56667,-1.16223 -2.40861,-2.35373 -2.50353,-3.90533 -0.0949,-1.5516 0.76529,-3.24821 1.86046,-3.95993 1.09517,-0.71172 2.27643,-0.72009 3.25582,-0.22611 0.97939,0.49398 1.65971,1.23735 1.83285,2.24275 0.17314,1.0054 0.18323,1.91963 -0.40284,2.8183 -0.58607,0.89868 -1.61074,0.63107 -2.29858,0.19206 -0.68785,-0.43902 -1.45702,-1.53218 -1.45702,-1.53218 z"
       id="path18493"
       sodipodi:nodetypes="ccccccczcczzzzzzzcc" /></g></svg>
