<?xml version="1.0" encoding="UTF-8" standalone="no"?>
<!-- Created with Inkscape (http://www.inkscape.org/) -->

<svg
   version="1.1"
   id="svg1152"
   width="400"
   height="400"
   viewBox="0 0 400 400"
   sodipodi:docname="OriginalSeriesAverageMaleJumpsuit.svg"
   inkscape:version="1.3.1 (91b66b0, 2023-11-16)"
   xml:space="preserve"
   xmlns:inkscape="http://www.inkscape.org/namespaces/inkscape"
   xmlns:sodipodi="http://sodipodi.sourceforge.net/DTD/sodipodi-0.dtd"
   xmlns="http://www.w3.org/2000/svg"
   xmlns:svg="http://www.w3.org/2000/svg"><defs
     id="defs1156" /><sodipodi:namedview
     id="namedview1154"
     pagecolor="#ffffff"
     bordercolor="#666666"
     borderopacity="1.0"
     inkscape:showpageshadow="2"
     inkscape:pageopacity="0.0"
     inkscape:pagecheckerboard="0"
     inkscape:deskcolor="#d1d1d1"
     showgrid="false"
     inkscape:zoom="1.8425"
     inkscape:cx="200"
     inkscape:cy="200"
     inkscape:window-width="1920"
     inkscape:window-height="1080"
     inkscape:window-x="2287"
     inkscape:window-y="43"
     inkscape:window-maximized="0"
     inkscape:current-layer="g1160"
     showguides="true"><inkscape:page
       x="0"
       y="0"
       id="page1158"
       width="400"
       height="400"
       margin="0"
       bleed="0" /></sodipodi:namedview><g
     inkscape:groupmode="layer"
     id="layer5"
     inkscape:label="Neck"
     style="display:none"><path
       d="m 213.63253,151.29441 -13.54934,47.14666 c 0,0 -9.09866,12.312 -5.11733,20.18133 3.30934,6.54134 11.664,13.756 15.768,16.768 9.03733,6.63734 27.30133,15.592 38.17467,17.004 l 11.33066,-1.564 2.82534,-2.824 5.224,-2.25866 3.81333,-10.87467 18.428,-23.08667 z"
       style="fill:#cd976d;fill-opacity:1;fill-rule:nonzero;stroke:none;stroke-width:1.33333"
       id="path2468" /><path
       d="m 200.08306,198.44081 c 0,0 -8.332,14.43066 -4.03466,22.58666 1.244,2.35867 7.89599,7.77733 9.01066,9.00933 1.99467,2.20534 15.87467,-2.31466 23.512,-1.91333 11.39067,0.59733 25.19333,0.15733 29.89067,1.56667 6.33866,1.90133 13.09866,2.66533 15.47066,2.89066 l 16.59734,-20.79333 -76.89734,-60.49333 z"
       style="opacity:0.199997;fill:#000000;fill-opacity:1;fill-rule:nonzero;stroke:none;stroke-width:1.33333"
       id="path2478" /><path
       d="m 211.64493,149.52841 c -1.01067,4.99733 -6.2,23.82533 -7.36934,28.788 -0.956,4.064 -1.95733,8.11866 -3.072,12.14266 -0.516,1.85867 -1.07466,3.70267 -1.63333,5.54934 -0.18666,0.616 -0.95466,1.86266 -0.88133,2.47466 0.02,0.16934 0.80667,2.38267 1.11067,1.93733 3.68799,-5.38666 5.03733,-14.18666 7.12666,-20.38133 1.49067,-4.41866 7.06133,-22.68666 8.552,-27.104 0,0 -3.83333,-3.40666 -3.83333,-3.40666"
       style="fill:#000000;fill-opacity:1;fill-rule:nonzero;stroke:none;stroke-width:1.33333"
       id="path2488" /><path
       d="m 293.27599,213.31907 c -2.83733,2.044 -16.28266,19.912 -18.592,22.53067 -1.87866,2.13066 -4.41733,10.85066 -7.52933,10.948 -2.104,0.0653 -1.74133,-3.72534 -1.19333,-5.332 0.26266,-0.76934 21.288,-30.90934 21.288,-30.90934 0,0 6.02666,2.76267 6.02666,2.76267"
       style="fill:#000000;fill-opacity:1;fill-rule:nonzero;stroke:none;stroke-width:1.33333"
       id="path2492" /></g><g
     id="g1160"
     inkscape:groupmode="layer"
     inkscape:label="Uniform"><path
       d="m 32.389464,400 c 0.453644,-2.89772 -3.19615,-9.56545 -2.099357,-12.75507 4.501139,-13.08991 6.252978,-17.41614 8.973253,-31.82853 0.473346,-2.50785 -3.80781,-6.68694 -5.021256,-10.80166 2.258239,-6.33605 4.238491,-11.57612 6.805205,-21.01043 0.560099,-2.05872 -1.856944,-4.31297 -1.91771,-6.48102 -0.06344,-2.26346 1.955685,-4.49546 2.95188,-6.57116 6.34,-13.20667 11.466028,-22.28701 22.919361,-31.03901 16.938666,-12.94134 32.925852,-24.8561 57.58322,-40.65593 8.68367,-4.85365 19.39902,-11.12988 29.57982,-16.69584 0.75575,-0.41318 2.38769,-3.73372 5.59387,-6.51905 0.91733,-0.34267 6.84483,-4.78312 7.76483,-5.11912 3.17867,-1.16133 8.7797,-5.95547 11.92237,-7.43281 1.44741,-0.67947 11.60869,-5.95066 12.27163,-4.5411 0.43988,0.93529 -0.49862,2.86597 -0.80602,3.96136 3.7955,5.79922 7.14995,9.78583 11.05685,15.33958 11.39604,19.04201 36.10762,28.66644 45.25162,30.4871 9.144,1.82067 11.57884,1.57752 15.8306,0.89491 4.86474,-0.78101 8.61091,-5.7231 10.1093,-10.16791 1.88885,-5.60305 2.17332,-10.51771 2.75441,-10.51771 1.90486,0 5.10728,1.29311 12.87311,6.12834 6.84042,4.25904 13.74861,7.65194 20.9135,10.94718 5.764,2.91067 7.65214,4.72373 9.98405,7.82824 13.08444,7.40611 57.70068,39.83144 64.20335,47.56211 4.2403,5.04032 4.10714,18.67331 3.78359,31.1254 -0.0895,3.44471 -2.70903,5.63854 -2.24271,9.19201 0.98267,7.5 3.97791,10.44702 4.08857,18.04569 0.0493,3.35867 -4.13417,9.3725 -4.0075,12.75383 -2.35784,2.74581 1.70437,3.88714 1.70267,5.49648 -0.0227,13.316 5.285,19.55412 5.73034,22.37412 z"
       style="display:inline;fill:#d30000;fill-opacity:1;fill-rule:nonzero;stroke:none;stroke-width:1.33333"
       id="path2416"
       sodipodi:nodetypes="csscsscccscccscccsssscccscccccc" /><path
       style="display:inline;fill:#2d2d2d;fill-opacity:1;stroke:none;stroke-width:1px;stroke-linecap:butt;stroke-linejoin:miter;stroke-opacity:1"
       d="m 186.57746,206.20845 c 2.30807,-3.03951 0.44623,-3.60657 2.99383,-4.01135 l 6.44755,8.94799 9.90583,13.8052 11.03432,12.16336 18.63036,9.14581 20.15466,3.72608 11.00885,-3.21798 4.72228,-7.20657 2.14362,-6.57191 7.61746,7.33756 3.12581,10.15702 1.65464,26.28008 -6.97147,64.4411 L 268.03301,400 H 259.845 l -15.65119,-31.61099 -22.74496,-48.08996 c 0,0 -14.29599,-34.19447 -22.07994,-51.53046 -7.78395,-17.33599 -14.4482,-39.98838 -14.14671,-47.37494 0.3015,-7.38655 1.35526,-15.1852 1.35526,-15.1852 z"
       id="path2"
       sodipodi:nodetypes="cccccccccccccccccczzc" /><path
       style="display:inline;fill:#000000;fill-opacity:0.3;fill-rule:nonzero;stroke:none;stroke-width:1.33333"
       d="m 78.873386,310.44098 c 5.384049,4.13876 12.013752,10.96331 18.936916,17.19461 9.187918,8.26971 18.495588,19.23673 22.415508,26.54383 5.51334,10.27745 8.12813,15.30432 9.73351,25.07922 1.24488,7.5799 1.25444,13.45512 1.47623,20.7648 h 5.56054 c 0,0 0.89207,-9.62063 -1.65787,-22.24527 -1.45389,-7.19812 -5.32753,-14.59382 -12.1007,-26.87609 -3.72488,-6.75457 -13.52706,-18.50369 -22.78324,-26.15099 -6.66541,-5.50685 -14.76012,-11.96486 -20.606624,-16.4425 -2.254887,-1.72694 -24.960124,-15.27471 -24.960124,-15.27471 0,0 17.587261,12.48841 23.985854,17.4071 z"
       id="path11"
       sodipodi:nodetypes="ssssccsssscs" /><path
       id="path2550"
       style="display:inline;opacity:0.199997;fill:#000000;fill-opacity:1;fill-rule:nonzero;stroke:none;stroke-width:1.33333"
       d="m 165.61523,210.65625 c -0.91998,0.336 -6.19928,3.97141 -7.11661,4.31408 -3.98087,1.48896 -3.64063,3.94605 -4.91268,4.72889 -9.98772,6.14653 -22.84103,14.80777 -31.48047,19.63672 -22.741151,14.8417 -42.561369,28.79307 -59.500001,41.73437 -11.453311,8.75198 -15.142434,17.95156 -21.482422,31.15821 -0.683653,1.42448 -2.160901,3.25415 -1.93576,5.31824 0.228117,2.09137 2.161107,4.4234 1.830002,6.81847 -0.942447,6.81726 -4.252216,14.23432 -5.228227,18.82227 -1.048216,4.92845 3.097142,8.42254 2.669922,11.91602 -1.298144,10.61524 -5.383662,17.27757 -7.927734,32.35742 -0.582665,3.74532 2.669656,8.88306 2.097656,12.53906 l 41.595703,-0.16602 c -0.0074,-3.47152 -6.410534,-10.33372 -2.958984,-13.55664 2.681567,-2.50392 15.299554,-1.10041 15.919922,-5.16211 0.888324,-5.81606 -6.712265,-17.20051 -9.630859,-23.21679 -1.495936,-3.08368 0.901413,-6.76652 1.390624,-10.03321 2.738268,-18.28462 4.188618,-31.38565 12.08195,-44.82496 1.941639,-3.30586 16.428978,-17.84668 25.837968,-26.95629 12.80993,-12.40233 26.42309,-21.8238 38.5474,-29.47678 0.37954,-0.23957 -0.29157,-2.60797 0.0897,-2.84484 9.68012,-6.01322 18.32639,-11.27602 28.98376,-15.78825 21.44064,28.79829 44.33538,40.76039 70.33222,37.30909 -18.87697,-7.50333 -31.63225,-12.07156 -45.97266,-26.82031 -4.71553,-4.8498 -9.57585,-16.01008 -12.20312,-22.23242 -1.62988,-3.86015 -6.19994,-12.82858 -6.75932,-13.66558 -0.52395,-2.56492 0.36902,-3.91743 -2.54198,-3.80551 -2.91099,0.11191 -18.12817,9.9571 -21.726,11.89687 z m 109.46589,22.82641 c 0,0 3.7185,7.15138 5.23349,11.76843 1.61149,4.91113 1.60751,7.50608 2.38266,20.49696 0.73756,12.36099 -3.03366,35.52161 -5.25812,55.19571 -1.03773,9.17813 -2.58005,19.26283 -4.53573,29.65514 -16.20612,-5.92924 -35.94065,-14.11412 -47.56162,-20.89773 l 10.625,19.75781 c 11.1595,5.42806 24.47257,9.14332 35.43775,11.44656 -0.72071,3.12746 -1.28173,6.63205 -1.89979,9.33841 -6.37285,-0.91871 -17.27906,-3.22966 -27.11414,-5.94512 l 2.82618,7.82617 c 6.27439,1.41843 15.27583,2.65355 22.88181,2.58708 -2.43742,8.48859 -2.81064,16.35254 -5.39549,25.28792 h 4.88868 c 0,0 0.65355,-8.96714 3.88482,-22.04778 2.79735,-11.32408 3.33382,-18.26912 5.84384,-31.07362 0.65333,-5.14189 1.04742,-16.34426 2.59868,-25.68245 3.07837,-18.53123 5.88482,-42.4847 5.77817,-55.47182 -0.10481,-12.76261 -0.52022,-16.45193 -2.10743,-21.28906 -1.68373,-5.13093 -8.50876,-10.95261 -8.50876,-10.95261 z m 82.00286,111.9314 c 0,0 -4.8406,22.685 -7.24218,31.22461 C 347.44019,385.17827 342.00781,400 342.00781,400 h 8.17188 c 0,0 2.37395,-10.16757 3.52343,-18.625 1.1495,-8.45743 3.38086,-35.96094 3.38086,-35.96094 z m -218.0332,7.20703 c -1.15519,0.21255 0.86981,11.61127 2.3711,17.44532 1.49934,5.82658 4.36966,11.85975 6.60546,17.44531 2.14171,5.3505 4.97657,12.48828 4.97657,12.48828 h 18.66211 c 0,0 -4.48147,-4.34517 -8.56641,-9.43945 -6.36561,-7.93848 -11.50321,-13.81875 -16.08984,-21.00196 -3.93118,-6.15669 -6.6553,-17.17738 -7.95899,-16.9375 z m 228.52135,8.27391 c 0,0 -0.059,5.02492 0.231,10.48786 0.30193,5.68709 0.32908,8.8683 0.0904,15.1531 C 367.7087,391.40242 365.8457,400 365.8457,400 h 10.4668 c 0,0 -0.39441,-3.11172 -1.84133,-8.59398 -1.33721,-5.06654 -2.00821,-7.44576 -3.67749,-15.14173 -1.5668,-7.22349 -3.22155,-15.36929 -3.22155,-15.36929 z m -254.09557,0.70266 c -1.1246,-0.44364 -6.53367,16.6737 -11.00976,24.38867 C 99.571246,390.97706 92.304687,400 92.304688,400 h 7.113281 c 0,0 5.050971,-7.38001 6.775391,-11.47266 3.61064,-8.56929 9.84338,-25.91972 7.2832,-26.92968 z m 5.75782,14.05859 c -1e-5,0 -0.78198,9.75405 -2.20118,14.39648 C 116.02913,393.33721 112.62891,400 112.62891,400 h 4.91211 c 0,0 1.86551,-4.83334 2.20117,-7.23828 0.78855,-5.64977 1.11359,-16.94709 -0.50781,-17.10547 z"
       sodipodi:nodetypes="ccccccsscscccssssssscccssccccssccccccccccscsssccsccscscsccssscssccsscssccssssccsss" /><path
       id="path4"
       style="color:#000000;display:inline;fill:#000000;-inkscape-stroke:none"
       d="m 183.1449,199.26178 c -1.4393,0.57732 -3.74526,1.98693 -5.5031,2.93474 -5.68453,3.06505 -7.89316,4.3172 -12.54024,7.38942 -4.64708,3.07222 -9.51827,6.29485 -11.00114,7.72933 -1.10078,1.06486 -0.81738,0.85767 -1.23323,2.36442 -6.4174,3.46759 -20.75141,11.85876 -29.4961,17.29492 -21.08008,13.1045 -43.717769,28.08873 -62.65234,42.55664 -5.096541,3.89421 -9.322692,7.77024 -12.455078,12 -4.082281,5.51249 -5.543473,11.90831 -9.161,19.44362 -0.939916,1.95786 -2.149339,5.33404 -1.817804,7.69841 0.2726,1.94405 2.36851,3.6067 2.365523,4.91852 -0.0066,2.90004 -1.947877,2.39548 -2.769532,6.25668 -0.965142,4.53657 -3.037219,10.69721 -4.68528,15.12335 -0.955728,2.56676 4.432337,7.4046 4.294655,10.17075 -0.582736,11.70766 -5.134163,20.35387 -8.058593,30.46484 -1.41895,4.90592 2.771598,8.7339 1.919921,14.17578 1.839995,-0.0133 4.87876,0.0133 6.71875,0 0.557977,-4.97407 -4.948021,-8.36804 -3.558593,-12.81445 3.284635,-10.51137 7.619474,-20.21498 6.988281,-32.26367 -0.146245,-2.79162 -4.789765,-6.35495 -3.822266,-8.97656 1.831809,-4.9637 3.354396,-10.04652 4.308594,-15.33985 0.464296,-2.57534 2.765781,-4.32071 2.720703,-6.5625 -0.03661,-1.82048 -2.190877,-4.13122 -3.554687,-6.16797 3.614432,-8.98063 7.617215,-17.86384 13.382812,-25.55468 2.343839,-2.91266 6.175773,-6.37221 9.753906,-9.4043 8.97596,-7.60528 18.861516,-14.52849 30.09961,-22.1875 12.138368,-8.27256 23.113398,-15.12141 34.920758,-22.12698 8.09636,-4.80374 18.10809,-10.70974 23.77651,-13.77063 -0.1646,4.82661 0.64336,10.75833 1.21484,14.98745 2.85746,21.1461 10.37817,38.91278 17.84741,57.01172 8.64451,20.94677 19.05605,40.14561 28.45337,60.46484 C 206.20838,371.36361 219.72852,400 219.72852,400 h 2.74448 c 0,0 -13.62049,-29.48823 -20.29765,-43.68626 -9.44132,-20.07564 -19.8618,-40.10461 -28.75354,-60.47008 -7.93052,-18.16392 -14.54258,-36.76997 -17.52452,-56.16078 -1.089,-7.08149 -2.15864,-17.26363 -0.95785,-19.68492 3.32391,-2.29214 7.97888,-5.31408 11.45314,-7.48429 6.16813,-3.85295 7.38361,-4.63384 12.78771,-7.99741 1.10187,-0.68581 3.00757,-2.00836 4.49734,-2.59814 2.14255,-0.8482 3.96659,-1.99282 4.1693,-1.43189 0,0 -1.70667,2.98752 -2.7632,4.93422 -1.05655,1.9467 -1.66396,6.257 -1.91251,8.85357 -1.20124,12.54942 3.57968,22.98425 7.30925,33.81192 5.63246,16.35214 11.33594,30.89505 18.03515,46.1914 10.17665,23.23641 19.89223,43.8006 31.33008,68.5586 C 245.66555,375.43341 258.55859,400 258.55859,400 h 3.68164 c 0,0 -13.83467,-26.06369 -19.49804,-38.52539 -11.05413,-24.32354 -21.43248,-45.18785 -31.2793,-68.44531 -6.55366,-15.47928 -12.36271,-29.63176 -17.89453,-45.78321 -2.712,-7.9183 -6.94234,-25.59992 -6.72811,-25.75012 0.21422,-0.15021 9.57381,15.60605 15.96837,21.39855 7.45796,6.75584 15.53203,12.96566 24.86524,16.93359 8.4254,3.58201 17.60655,6.23783 26.90234,6.125 5.96464,-0.0724 12.79976,-0.88767 18.02149,-4.29296 4.37602,-2.85383 7.15851,-8.19807 9.30078,-12.58399 0.21325,-0.4366 0.35566,-0.94317 0.5,-1.44726 1.84984,7.68946 2.06953,15.86484 1.99023,23.97265 -0.13825,14.13497 -2.30485,27.42688 -4.09206,42.39258 -1.98113,16.58954 -4.8648,33.50559 -7.28864,50.71057 C 271.32374,376.66 265.766,400 265.766,400 h 3.575 c 0,0 5.0102,-22.73869 6.79978,-34.6449 2.56728,-17.08029 5.04392,-34.07151 7.31403,-50.84729 1.95554,-14.45115 3.99159,-28.40939 4.13308,-42.875 0.0851,-8.69649 -0.11972,-17.69396 -2.45117,-26.30273 -0.79125,-2.92164 -2.18695,-5.55428 -3.95313,-7.5625 -1.98225,-2.2539 -6.27162,-4.72461 -6.44361,-5.44241 -0.18785,-0.78398 0.0159,-1.35906 0.24867,-2.10191 0.56626,0.24002 2.48292,1.21485 4.33587,2.33999 6.03131,3.66231 10.44792,5.67758 16.90585,9.02145 6.84646,3.54504 12.53373,7.21974 17.00291,10.20847 2.35585,3.20603 2.68643,9.83025 3.46966,17.90872 0.87169,8.99106 0.2116,17.18073 -0.92579,26.38919 -2.31711,18.76 -3.74702,37.47541 -7.67872,56.15358 C 304.80366,367.89703 298.131,400 298.131,400 h 2.51744 c 0,0 6.67164,-31.35914 9.984,-47.09518 3.9122,-18.5855 5.25108,-37.62758 7.60194,-56.66068 1.13624,-9.19932 1.85174,-17.14129 0.93359,-26.61133 -0.38268,-3.9471 -0.84274,-9.37627 -1.68945,-14.18945 16.88362,7.06931 56.89141,39.75593 61.41992,45.13867 3.48797,4.14533 5.3123,24.22647 5.54687,30.00391 0.20505,5.05032 -4.5489,10.70599 -3.35156,14.54883 0.52042,4.17405 4.15353,8.64859 4.23437,12.74023 0.11367,5.7507 -4.96022,3.80784 -4.90429,14.82422 0.024,4.82108 0.84288,9.64657 2.14453,14.98437 1.014,4.15826 1.57942,7.52357 3.54102,12.31641 1.34931,-0.0187 5.56374,0.0187 7.20507,0 -0.81479,-0.21925 -3.9542,-6.03364 -5.58398,-13.04688 -1.37321,-5.90918 -1.33049,-12.75647 -1.36524,-13.6875 -0.26225,-7.04575 4.14047,-7.90646 3.79688,-13.89453 -0.19271,-3.35829 -5.06697,-12.9361 -5.41211,-15.5039 0.21515,-2.27596 2.63535,-6.84367 2.87891,-11.54492 0.58827,-11.35463 -0.73591,-28.27839 -4.72071,-33.01563 -9.16789,-10.89784 -53.74669,-42.06306 -66.41601,-48.27344 -1.05568,-1.34655 -2.94012,-3.06215 -4.31989,-3.80845 -5.64991,-3.05596 -8.12697,-4.27448 -14.99847,-8.32436 -5.90354,-3.47936 -13.25976,-6.82581 -15.98298,-8.35678 -2.72322,-1.53097 -6.76426,-3.85206 -8.46705,-3.52273 -1.51698,0.29339 -1.23043,1.25608 -1.47916,2.35401 -0.24873,1.09794 -0.59718,3.02701 -0.65941,4.49104 -0.13969,3.28644 -0.35815,5.33585 -1.15112,7.16315 -0.93381,2.15182 -1.52234,4.41478 -6.08645,5.84201 -2.92667,0.91521 -8.31014,1.54296 -11.91699,1.06566 -8.6656,-1.14673 -17.51623,-2.82997 -26.24903,-8.18408 -7.49585,-4.59572 -13.89352,-9.84802 -16.88974,-13.50813 -2.00621,-2.45074 -5.19141,-6.46503 -10.08493,-13.19797 -2.5053,-3.44701 -5.48381,-6.89752 -7.96143,-10.73916 -0.19708,-0.30557 1.90965,-3.00053 1.66606,-3.26859 -0.54533,-0.60013 -1.86486,-1.06558 -3.24596,-1.25734 -1.38109,-0.19177 -3.64676,0.72863 -5.52074,1.4803 z m 22.24282,27.28819 c 4.8708,5.63353 9.36696,9.15078 18.10729,15.18955 7.33744,5.06946 21.1073,9.203 29.21702,9.64246 6.75924,0.36628 11.89602,-1.29409 16.21597,-4.50184 3.1389,-2.33076 4.00757,-7.04972 4.28811,-8.18144 0.34634,-1.39718 0.43214,-2.74159 0.75471,-3.55617 0.0376,-0.095 3.9941,3.53135 4.51551,4.3477 0.69599,1.08974 1.37503,2.13547 1.97656,3.16797 -0.45078,1.94938 -1.01293,4.01233 -1.58789,5.18946 -2.06058,4.21862 -4.66936,8.4119 -8.31445,10.78906 -4.52702,2.95228 -10.51445,3.93703 -16.1875,4.00586 -8.7548,0.10626 -17.66989,-2.33554 -25.85743,-5.81641 -8.96728,-3.81235 -16.63016,-10.00696 -23.91015,-16.60156 -6.21732,-5.63198 -10.20397,-11.90296 -14.61914,-18.94141 -1.65686,-2.64129 -3.89385,-4.36443 -3.74035,-7.49895 0.28345,-3.15223 0.0127,-6.16527 2.36535,-8.82946 3.90341,7.46643 9.51466,13.19632 16.77639,21.59518 z m -83.33198,108.84397 c 0,0 2.90916,8.5149 4.74218,16.59765 1.83303,8.08275 3.54362,18.49643 4.46185,27.2213 0.91823,8.72487 0.8457,20.78711 0.8457,20.78711 h 4.91211 c 0,0 0.0459,-11.24995 -1.18555,-20.10938 -1.2315,-8.85942 -3.57402,-20.23814 -6.32512,-28.40684 -2.7511,-8.1687 -7.45117,-16.08984 -7.45117,-16.08984 z m 243.58293,2.4127 c -1.2,9.90528 -1.29074,44.86144 -2.58008,62.19336 h 5.57422 c 0,0 1.04444,-11.97145 0.64844,-24.63672 -0.308,-9.85195 -3.64258,-37.55664 -3.64258,-37.55664 z"
       sodipodi:nodetypes="sszscsssssscsssccssssscccsscsssccsssssssssssssccssscssssscsssccsssssscsscsssccsssccscscsccscscsccsszssssssssssscsssscsscsssssssscscccssccccscsc" /><path
       id="path6"
       style="fill:#000000;stroke:none;stroke-width:1px;stroke-linecap:butt;stroke-linejoin:miter;stroke-opacity:1;fill-opacity:0.30000001"
       d="m 46.946108,343.9521 c 0,0 1.14645,12.14502 2.63473,18.68263 1.48828,6.53761 3.752183,15.0226 6.467066,20.35928 2.714883,5.33668 5.730113,10.57699 8.622755,11.73653 2.892642,1.15954 4.214502,0.70306 4.071856,-0.71856 -0.142646,-1.42162 -6.207329,-7.75258 -9.101796,-13.17366 -2.894467,-5.42108 -5.566691,-13.23949 -7.664671,-19.40119 -2.09798,-6.1617 -5.02994,-17.48503 -5.02994,-17.48503 z m 1.437126,-27.30539 c 0,0 7.314917,24.1957 12.934131,35.4491 5.104839,10.22328 12.700611,22.91548 18.682635,28.74251 1.143833,1.1142 4.691928,-1.52856 3.832335,-2.87425 -5.124671,-8.02267 -12.886812,-19.21814 -18.682634,-29.22156 -6.05113,-10.44408 -16.766467,-32.0958 -16.766467,-32.0958 z" /><path
       style="fill:#000000;fill-opacity:0.3;stroke:none;stroke-width:1px;stroke-linecap:butt;stroke-linejoin:miter;stroke-opacity:1"
       d="m 365.81865,352.48768 c 0,0 1.39355,-19.91919 3.99672,-28.55406 2.66899,-8.85318 10.28737,-25.01645 10.28737,-25.01645 l 1.29681,2.19679 c 0,0 -6.36283,15.39776 -8.40026,22.73747 -3.83675,13.82171 -6.05318,44.5318 -6.05318,44.5318 z"
       id="path15"
       sodipodi:nodetypes="csccscc" /></g></svg>
