<?xml version="1.0" encoding="UTF-8" standalone="no"?>
<!-- Created with Inkscape (http://www.inkscape.org/) -->

<svg
   version="1.1"
   id="svg18722"
   width="400"
   height="400"
   viewBox="0 0 400 400"
   sodipodi:docname="OriginalSeriesAverageFemale.svg"
   inkscape:version="1.2.2 (b0a8486, 2022-12-01)"
   xmlns:inkscape="http://www.inkscape.org/namespaces/inkscape"
   xmlns:sodipodi="http://sodipodi.sourceforge.net/DTD/sodipodi-0.dtd"
   xmlns="http://www.w3.org/2000/svg"
   xmlns:svg="http://www.w3.org/2000/svg">
  <defs
     id="defs18726" />
  <sodipodi:namedview
     id="namedview18724"
     pagecolor="#ffffff"
     bordercolor="#666666"
     borderopacity="1.0"
     inkscape:showpageshadow="2"
     inkscape:pageopacity="0.0"
     inkscape:pagecheckerboard="0"
     inkscape:deskcolor="#d1d1d1"
     showgrid="false"
     inkscape:zoom="1.9525"
     inkscape:cx="199.74392"
     inkscape:cy="200"
     inkscape:window-width="1783"
     inkscape:window-height="1001"
     inkscape:window-x="2223"
     inkscape:window-y="144"
     inkscape:window-maximized="0"
     inkscape:current-layer="layer8">
    <inkscape:page
       x="0"
       y="0"
       id="page18728"
       width="400"
       height="400" />
  </sodipodi:namedview>
  <g
     id="g18730"
     inkscape:groupmode="layer"
     inkscape:label="Page 1">
    <path
       d="m 51.219732,399.9668 c 0.157333,-3.77733 -0.618667,-8.85333 -1.349333,-12.35867 -0.169334,-0.81466 -0.337334,-1.61866 -0.490667,-2.41466 -0.338667,-1.756 -0.733333,-3.45467 -1.117333,-5.09734 -0.74,-3.17466 -1.497334,-6.428 -1.810667,-9.99333 -1.090666,-12.448 0.938667,-28.52667 6.202667,-49.152 0.892,-3.49466 1.878666,-6.932 2.932,-10.21733 4.098666,-13.75733 13.951999,-27.10933 24.605332,-37.62667 2.390667,-2.36 4.978667,-4.73866 7.689333,-7.06933 0.350667,-0.30133 0.825334,-0.56533 1.329334,-0.844 0.302666,-0.16667 0.6,-0.332 0.878666,-0.50533 0.832,-0.51867 1.662667,-1.04 2.492,-1.564 5.358667,-3.384 11.027996,-6.24667 16.511996,-9.01467 4.34667,-2.19333 8.84134,-4.46133 13.196,-6.996 5.44134,-3.16667 8.67334,-4.95733 11.84,-4.95733 2.64534,0 5.48934,1.15066 10.492,4.24933 3.55334,2.2 6.94667,4.79733 10.23067,7.30933 3.01733,2.308 6.13733,4.696 9.41333,6.80534 1.256,0.808 2.61067,1.79333 4.04534,2.836 2.16133,1.57333 4.38666,3.192 6.544,4.40266 2.05333,1.152 4.12666,1.68667 6.13066,2.20534 1.312,0.33733 2.66667,0.688 3.94667,1.20666 3.03067,1.232 5.99867,2.85334 8.868,4.42267 3.61733,1.976 7.33333,4.008 11.36133,5.40133 2.73733,0.948 5.62133,1.81867 8.67467,2.74 7.20533,2.176 14.612,4.41067 20.352,7.756 3.29466,1.92134 6.61066,2.97334 9.81733,3.98934 3.41467,1.084 6.64133,2.10666 9.74,4.10266 4.212,2.71334 12.504,7.26667 20.7,7.26667 1.78533,0 3.49733,-0.21733 5.08933,-0.64667 0.85867,-0.23066 1.752,-0.45466 2.66267,-0.68133 5.62133,-1.40667 11.99467,-2.99867 15.73067,-7.69733 6.97333,-8.768 6.40533,-19.82 5.85466,-30.50934 -0.284,-5.508 -0.552,-10.73066 0.19867,-15.46133 h 0.0453 c 5.78134,0 11.536,3.09333 16.61334,5.824 4.59466,2.47067 9.02266,5.608 13.30533,8.64133 l 2.10133,1.48534 c 8.11467,5.71066 14.96,13.37333 20.928,23.43066 4.66667,7.86267 8.3,16.504 10.79867,25.68267 0.688,2.524 1.304,5.14533 1.83066,7.78933 2.49067,12.50667 5.31467,26.68133 3.124,40.732 -0.37466,2.404 -0.97466,4.75467 -1.73333,7.732 -0.50533,1.976 -1.06667,4.17333 -1.69467,6.88133 -0.26133,0.036 -0.51066,0.14 -0.71733,0.304 -0.508,0.424 -0.68133,1.08534 -0.46133,1.668 0.092,0.24667 0.19466,0.50134 0.30666,0.75734 0.62134,1.42 1.264,3.008 1.75334,4.972 0.33333,1.332 0.732,2.68666 1.13466,4.05066 0.65467,2.22134 1.32534,5.96667 1.69467,8.16267 z"
       style="fill:#d1bd7f;fill-opacity:1;fill-rule:nonzero;stroke:none;stroke-width:1.33333"
       id="path19818" />
    <path
       d="m 270.11986,233.3544 13.08267,-27.18533 -69.57067,-54.87466 -5.48933,30.848 -6.20667,17.47466 c -3.96533,4.80267 -9.04133,15.21467 -18.424,23.548 -9.30133,8.26 -23.844,13.48933 -36.21333,21.172 0,0 -14.90933,16.74 61.20533,48.912 76.11333,32.172 84.74533,27.98667 88.93067,20.14 4.184,-7.84667 15.69333,-45.24933 11.76933,-53.09733 -3.92267,-7.84667 -22.456,-24.05734 -39.084,-26.93734"
       style="fill:#cd976d;fill-opacity:1;fill-rule:nonzero;stroke:none;stroke-width:1.33333"
       id="path19870" />
    <path
       d="m 202.26133,201.47707 c 1.444,-2.592 2.73866,-5.26133 3.86533,-7.99866 1.61733,-3.92934 2.912,-7.98534 4.096,-12.064 1.29067,-4.452 3.764,-24.06134 5.256,-28.48 0,0 -3.83333,-3.40667 -3.83333,-3.40534 -1.01067,4.996 -3.35067,25.12534 -4.128,30.15334 -0.51734,3.34 -1.75067,6.54 -3.848,10.988 -1,2.124 -1.37467,4.43466 -2.42267,6.552 -2.23733,4.52266 -5.65066,8.59199 -8.64533,12.63333 -3.14133,4.24 -6.45067,8.38133 -10.256,12.05066 -9.84667,9.496 -22.544,15.42 -35.24,20.512 0.40133,0.984 1.52,1.52134 2.58133,1.55067 1.06267,0.028 2.088,-0.35333 3.07734,-0.74267 1.776,-0.69866 3.53733,-1.43733 5.27733,-2.224 15.95467,-7.21866 30.292,-18.60266 40.228,-33.08933 1.428,-2.08267 2.76266,-4.22933 3.992,-6.436"
       style="fill:#000000;fill-opacity:1;fill-rule:nonzero;stroke:none;stroke-width:1.33333"
       id="path19890" />
    <path
       d="m 285.86613,207.63814 c -0.0107,-0.004 -0.12534,0.15066 -0.13334,0.16133 -3.98533,5.21867 -6.39866,12.18267 -9.17866,18.08133 -1.24534,2.64134 -2.552,5.26134 -3.77467,7.91467 -1.97333,4.28533 -5.53067,8.924 -4.212,13.912 0.204,0.77333 1.896,8.104 1.39467,7.94 -4.604,-1.516 -4.92134,-10.64533 -4.35867,-14.45733 0.132,-0.89867 14.50267,-36.10934 14.50267,-36.10934 0,0 5.75866,2.556 5.76,2.55734"
       style="fill:#000000;fill-opacity:1;fill-rule:nonzero;stroke:none;stroke-width:1.33333"
       id="path19894" />
    <path
       d="m 320.07293,258.73507 c 4.52666,2.43467 8.92533,5.55067 13.17866,8.56267 l 2.10667,1.48933 c 7.97066,5.60933 14.704,13.152 20.584,23.05867 4.61066,7.77066 8.20133,16.312 10.67333,25.388 0.68133,2.49866 1.29067,5.092 1.812,7.70666 2.47067,12.40933 5.272,26.476 3.11467,40.31333 -0.36534,2.344 -0.92934,4.55734 -1.712,7.61867 -1.45067,5.68267 -1.39067,10.324 0.57866,15.97867 1.01867,2.92533 0.796,5.86133 1.18267,8.82266 0.336,2.56667 -0.0813,2.29334 3.09333,2.29334 -0.38933,-4.13867 -2.05466,-8.46267 -3.08,-12.56934 -0.47333,-1.89866 -1.08666,-3.49466 -1.83466,-5.20666 -0.1,-0.22934 -0.192,-0.45734 -0.27734,-0.68534 0.49734,0.31067 0.90667,0.31334 1.02934,-0.224 1.72666,-7.572 3,-11.41466 3.65466,-15.61733 2.15734,-13.84267 -0.432,-27.67733 -3.13333,-41.24533 -0.52933,-2.65333 -1.14533,-5.28533 -1.85467,-7.88667 -2.512,-9.22133 -6.192,-18.024 -10.95333,-26.04666 -5.73333,-9.65867 -12.564,-17.70267 -21.34267,-23.88 -5.09466,-3.58534 -10.14133,-7.30667 -15.55733,-10.21867 -5.79466,-3.116 -12.00933,-6.432 -18.59066,-5.95467 -2.84534,14.34934 4.43466,33.40534 -5.964,46.47867 -4.008,5.03867 -11.64534,6.264 -17.628,7.876 -8.212,2.212 -17.94534,-2.14267 -24.61334,-6.43733 -6.27466,-4.04134 -13.04,-4.29334 -19.61466,-8.12534 -8.352,-4.86933 -20.056,-7.42 -29.284,-10.61466 -7.13867,-2.47334 -13.264,-6.996 -20.15733,-9.79734 -3.3,-1.34 -6.69467,-1.528 -9.912,-3.33333 -3.496,-1.96133 -7.31467,-5.13333 -10.512,-7.19333 -6.784,-4.36667 -12.78267,-9.86534 -19.66667,-14.128 -10.71333,-6.63334 -12.61733,-4.89734 -23.15333,1.236 -9.796,5.70133 -20.76934,9.38133 -30.442669,15.49066 -0.826667,0.52134 -1.654667,1.04134 -2.484,1.55867 -0.766667,0.48 -1.686667,0.87867 -2.389333,1.48267 -2.66,2.28666 -5.254667,4.66133 -7.762667,7.13733 -10.033333,9.90667 -20.286666,23.212 -24.727999,38.124 -1.072,3.34267 -2.062667,6.79467 -2.96,10.312 -3.749333,14.68933 -7.645333,33.76933 -6.248,49.72666 0.486667,5.55734 0.892,9.66267 1.882667,14.80934 0.889333,4.616 2.730666,14.932 2.730666,14.932 h 3.930667 c 0,0 -1.438667,-8.52267 -2.145333,-11.58534 -0.204,-0.88533 -0.409334,-1.77466 -0.597334,-2.67466 -0.373333,-1.792 -2.178666,-12.24134 -2.536,-15.704 -1.270666,-12.288 0.493334,-28.212 5.393334,-48.68267 0.830666,-3.46666 1.756,-6.87866 2.750666,-10.14 3.842667,-13.62266 13.866667,-26.82 24.4,-37.21866 2.373333,-2.344 4.94,-4.704 7.627999,-7.01467 0.258667,-0.22133 0.682667,-0.456 1.132,-0.704 0.318667,-0.176 0.634667,-0.352 0.930667,-0.53733 0.833333,-0.52 1.665333,-1.04267 2.496,-1.56667 5.309333,-3.35333 10.954669,-6.20267 16.411999,-8.95733 4.36667,-2.204 9.56933,-3.93467 13.948,-6.484 7.74933,-4.51067 10.648,-6.604 19.25733,-1.788 6.884,3.84933 12.468,9.54533 18.58267,14.432 9.74133,7.78533 24.58,8.16933 35.53333,15.41066 3.10533,2.052 5.30533,4.876 8.92267,6.03467 4.03333,1.29067 8.30933,1.04 12.17333,2.48533 9.63467,3.60534 20.00533,6.996 29.804,10.44934 3.36667,1.18533 8.304,2.068 11.15467,4.04133 3.096,2.144 4.25333,5.27333 8.12533,7.112 5.77333,2.74267 16.63333,3.69867 21.91467,0.48267 3.46,-2.10534 5.49333,-6.02534 8.38533,-8.772 2.73733,-2.59867 5.804,-3.248 7.34933,-6.90534 1.144,-2.70266 0.37334,-6.28 0.75067,-9.208 0.52533,-4.08 2.03867,-7.96266 2.89067,-11.97466 1.09733,-5.168 -1.48534,-9.99334 -0.44934,-14.83467 4.80134,-0.24267 7.84267,0.784 12.09734,3.072"
       style="fill:#000000;fill-opacity:1;fill-rule:nonzero;stroke:none;stroke-width:1.33333"
       id="path19898" />
    <path
       d="m 351.92466,336.73613 c 0.13466,9.94667 1.02533,19.00934 6.07466,28.44667 4.21867,7.88667 9.26134,15.096 10.64667,24.13867 0.56267,3.65733 1.56533,7.37466 2.65067,10.908 1.23333,0.0133 2.46666,0.028 3.7,0.0427 0.46,0.005 -3.808,-15.828 -4.35334,-17.26 -3.184,-8.37066 -7.58266,-16.62133 -11.13733,-24.992 -3.84267,-9.052 -6.28667,-18.46666 -7.59467,-28.21199 -0.008,2.36533 -0.0173,4.66933 0.0133,6.92799"
       style="fill:#000000;fill-opacity:1;fill-rule:nonzero;stroke:none;stroke-width:1.33333"
       id="path19902" />
    <path
       d="m 147.4724,234.48494 c 0,0 -12.032,-3.13867 -16.74,1.56933 -4.708,4.708 -11.41734,6.088 -12.576,10.47333 -1.15867,4.38667 67.15466,70.61067 178.05733,81.77067 13.62266,1.37067 23.56933,-50.75467 23.71466,-60.16 0.12534,-8.12133 -7.19466,-13.94533 -12.49066,-19.064 -7.73734,-7.47733 -16.77867,-13.976 -27.05867,-17.89733 -3.216,-1.22534 -7.532,-2.272 -7.532,-2.272 0,0 -1.504,3.712 -2.264,5.176 1.46533,0.75733 3.11467,0.85066 4.65067,1.38533 16.72133,5.83467 27.696,24.90667 25.05466,42.184 -0.13733,0.9 -0.308,1.79467 -0.51066,2.68133 -0.22934,1 -0.488,1.99334 -0.77467,2.97867 -4.708,16.216 -16.74,23.01733 -41.32667,14.64667 -24.58666,-8.36934 -122.75866,-50.91734 -110.20399,-63.472"
       style="fill:#000000;fill-opacity:1;fill-rule:nonzero;stroke:none;stroke-width:1.33333"
       id="path19906" />
    <path
       d="m 147.4724,234.48494 c 5.88,1.276 11.36133,3.588 11.36133,3.588 l -11.33467,7.392 -6.40666,-5.256 c 0,0 0.44,-7.01334 6.38,-5.724"
       style="fill:#000000;fill-opacity:1;fill-rule:nonzero;stroke:none;stroke-width:1.33333"
       id="path19910" />
    <path
       id="path19968"
       style="opacity:0.199997;fill:#000000;fill-opacity:1;fill-rule:nonzero;stroke:none;stroke-width:1.33333"
       d="m 198.23613,339.86307 c 0.0667,0.036 0.13333,0.072 0.20133,0.10666 28.788,15.06534 64.884,19.068 96.816,14.12934 3.92667,-0.60667 7.40267,-2.328 11.236,-3.248 -1.54,7.268 -11.432,9.19733 -17.372,10.05733 -25.22267,3.65067 -52.58933,1.88933 -75.348,-10.46 -5.51333,-2.992 -10.136,-7.656 -15.53333,-10.58533 M 147.48333,304.698 c 0,0 56.43066,34.884 120.29733,38.484 0,0 -42.11467,-1.01067 -69.524,-9.37333 C 170.84866,325.446 147.48333,304.698 147.48333,304.698 m 197.69306,95.2688 c -3.26,-20.37333 -11.20933,-39.16 -17.792,-52.06533 9.436,20.86133 13.16667,44.364 14.19333,52.06533 z m -17.79253,-52.06547 c -2.82267,-6.24 -6.14667,-12.244 -10.07067,-17.51066 0,0 4.552,6.692 10.07067,17.51066 m -181.19946,2.628 c -2.38134,-4.26533 -6.00534,-8.00533 -9.12667,-11.744 -2.52267,-3.02266 -5.08533,-6.01199 -7.68533,-8.96799 -1.98134,-2.25334 -3.98267,-4 -5.76534,-6.30667 -0.73466,-0.948 -2.31066,-1.68533 -2.80133,-2.68933 -2.7,-1.368 -4.42133,-6.18267 -5.024,-8.86934 -0.85467,-3.812 -0.416,-7.78933 0.708,-11.496 2.336,-7.7 5.676,-13.95466 11.54133,-19.36266 2.93867,-2.708 5.42134,-4.224 8.94934,-6.172 17.98933,13.24133 67.61199,42.032 128.54266,47.448 -3.196,-0.284 -7.64,-3.51734 -10.50267,-4.836 -18.80266,-8.656 -37.96266,-16.02134 -55.58799,-27.02934 -9.6,-5.996 -18.812,-12.588 -27.82534,-19.42666 -8.20266,-6.22267 -17.76,-12.29067 -24.88933,-19.66667 -4.104,-4.24667 -5.49467,-9.25733 -12.59067,-9.25467 -3.16666,0 -6.39866,1.792 -11.83733,4.95734 -4.35467,2.53466 -8.84933,4.804 -13.196,6.99733 -5.484,2.76667 -11.154666,5.62933 -16.513332,9.01333 -0.829334,0.524 -1.658667,1.04534 -2.490667,1.564 -0.278667,0.17467 -0.576,0.34 -0.88,0.50667 -0.502667,0.27867 -0.977333,0.54133 -1.329333,0.84267 -2.710667,2.33066 -5.297333,4.70933 -7.689333,7.07066 -10.653333,10.516 -20.506666,23.868 -24.604,37.62534 -1.053333,3.28533 -2.04,6.72266 -2.933333,10.21733 -5.264,20.62533 -7.292,36.704 -6.201333,49.152 0.312,3.56533 1.070666,6.81866 1.810666,9.99333 0.382667,1.64267 0.778667,3.34133 1.117334,5.09733 0.152,0.796 0.32,1.6 0.490666,2.41734 0.68,3.268 1.390667,7.888 1.357334,11.56133 0.016,0.192 0.02933,0.38267 0.04533,0.576 0.0053,0.0747 0.02,0.14533 0.028,0.21867 h 87.997331 c 0.44,-3.90534 -1.15066,-7.65467 -1.75733,-11.75467 -0.86133,-5.828 -2.56933,-11.128 -4.24933,-16.76 -0.552,-1.852 -1.668,-3.59333 -2.54934,-5.452 -0.636,-1.344 -2.01466,-3.60667 -1.01466,-5.076 0.26,-0.38267 6.63866,8.11867 7.29866,8.98133 1.808,2.36 2.74934,5.09867 4.35867,7.57334 0.84133,1.29333 1.58,2.704 2.192,4.17466 1.72667,-4.40133 -0.70533,-9.996 -2.29067,-13.992 -1.44,-3.62933 -2.06133,-7.56933 -3.856,-11.06133 -2.00533,-3.89867 -5.01333,-7.428 -7.63733,-10.92533 -0.62133,-0.82934 -2.16267,-4.18667 -1.12533,-5.116 0.81866,-0.73334 4.47866,2.31866 5.30133,2.776 1.98533,1.10533 3.944,2.512 5.89333,3.73333 1.468,0.92 2.376,2.37467 3.34134,3.58 0.904,1.128 1.84666,2.40133 2.72533,3.77067 0.60933,0.94933 1.652,2.92666 2.42133,3.34266 -0.21866,-0.11733 -0.52533,-3.232 -0.66266,-3.69066 -0.368,-1.228 -0.87867,-2.42134 -1.504,-3.54134" />
    <path
       id="path19920"
       style="opacity:0.199997;fill:#000000;fill-opacity:1;fill-rule:nonzero;stroke:none;stroke-width:1.33333"
       d="m 271.80933,233.55747 c 1.41333,-0.552 3.08266,-0.476 4.61333,-0.2 4.716,0.84667 9.028,3.672 12.984,6.23067 4.99867,3.23333 9.27067,5.96533 12.73867,10.976 2.03866,2.94666 3.77733,6.14 4.74,9.59066 0.43733,1.564 0.708,3.164 0.83733,4.77867 0.29067,3.61333 -0.12933,7.30133 -0.992,10.83467 -1.01733,4.168 -2.632,8.15333 -4.38667,12.05733 -0.72933,1.62133 -3.68533,7.016 -6.24533,5.72133 -1.408,-0.71066 -1.46133,-4.55466 -2.676,-5.83333 -0.37867,-0.39867 -1.23867,-1.46 -1.688,-1.61733 -1.03867,-0.36134 -2.71467,0.496 -3.88667,0.17333 -2.664,-0.732 0.212,-2.48133 1.4,-3.472 1.45734,-1.21867 4.2,-2.92133 4.652,-4.88667 0.48267,-2.108 -1.24,-4.208 -0.94666,-6.36933 0.37066,-2.73867 2.024,-5.104 2.46266,-7.816 0.42267,-2.61067 -1.152,-5.58667 -2.62533,-7.676 -3.04533,-4.32 -7.17733,-8.352 -11.412,-11.51067 -4.40267,-3.284 -8.396,-4.69866 -13.55733,-6.268 0.692,-1.48533 2.42133,-4.10133 3.988,-4.71333 m -63.86107,-50.86946 c -0.008,0.0453 -0.0147,0.0787 -0.0147,0.0787 -0.592,3.26934 -1.67733,6.14534 -3.11866,8.74267 l -2.88,8.108 c -3.964,4.80266 -9.04,15.21466 -18.42267,23.54666 -9.30266,8.26134 -23.844,13.49067 -36.21466,21.17334 -10.01867,6.22266 13.37866,21.08133 17.79066,21.88133 11.03734,2 20.536,-7.64667 31.388,-7.71867 8.56,-0.0573 16.284,7.04134 23.46133,11.03334 1.50667,0.83733 15.568,9.02266 16.30667,5.06533 0.29333,-1.57867 -4.004,-5.16133 -4.89733,-6.11067 -3.93334,-4.17466 -8.27867,-8.15866 -11.73334,-12.74533 -2.71066,-3.60133 -4.668,-8.11467 -3.87866,-12.552 0.69333,-3.89867 3.43733,-7.18933 6.708,-9.42133 8.35066,-5.69734 18.13333,-6.57467 27.86,-4.956 2.648,0.44 19.54266,5.11066 21.116,1.84133 0,-0.001 4.45866,-9.26667 4.45866,-9.26667 l 7.324,-15.21866 -69.56933,-54.87467 -5.49067,30.848 z" />
    <path
       d="m 156.2788,377.99467 c 1.488,-10.98534 -14.33067,-40.28 -30.02534,-51.26533 0,0 31.06667,29.16133 26.272,56.61333 -1.60666,9.196 -0.84266,10.88666 0.0107,16.624 h 5.70133 c -0.83733,-5.28267 -2.96133,-14.57334 -1.95866,-21.972"
       style="fill:#000000;fill-opacity:1;fill-rule:nonzero;stroke:none;stroke-width:1.33333"
       id="path19942" />
    <path
       d="m 320.72839,387.2756 c -0.14266,-0.007 -0.28933,-0.044 -0.43066,-0.11333 -0.45067,-0.21734 -0.73067,-0.69334 -0.67467,-1.144 0.12933,-1.04534 3.21333,-25.74267 6.98533,-36.728 0.87334,-2.54267 2.096,-3.73867 3.73867,-3.65467 3.16266,0.16 6.55866,5.284 11.01333,13.5 0.94133,1.736 1.808,3.30533 2.616,4.772 3.45067,6.25733 5.944,10.77867 8.736,18.188 0.16267,0.436 0.0253,0.88267 -0.33867,1.09467 -0.152,0.0893 -0.32933,0.128 -0.50933,0.11866 -0.24933,-0.012 -0.50667,-0.116 -0.716,-0.30266 -2.61067,-2.32 -10.20933,-8.05067 -14.164,-8.51467 -0.60667,-0.072 -1.08,0.007 -1.44533,0.24 -1.08534,0.692 -2.07734,1.488 -3.204,2.21733 -3.31467,2.144 -7.07067,4.57334 -10.84,9.97334 -0.17067,0.24533 -0.45867,0.36933 -0.76667,0.35333"
       style="fill:#ffd59c;fill-opacity:1;fill-rule:nonzero;stroke:none;stroke-width:1.33333"
       id="path19930" />
    <path
       d="m 334.90146,373.87173 c -4.29733,2.74 -9.148,5.06934 -14.27067,12.408 0,0 3.15867,-25.524 6.94534,-36.55066 2.68666,-7.824 7.90266,0.54266 12.90399,9.76666 5.00134,9.224 7.88,13.78267 11.28534,22.81734 0,0 -12.56667,-11.18134 -16.864,-8.44134 m 18.44133,8.07867 c -2.812,-7.46 -5.316,-12.00133 -8.78133,-18.288 -0.808,-1.46533 -1.67334,-3.03333 -2.61334,-4.768 -4.708,-8.68133 -8.12533,-13.74267 -11.66666,-13.92267 -2.88533,-0.14666 -3.96267,2.99334 -4.31733,4.02534 -3.792,11.04266 -6.884,35.79866 -7.01334,36.84666 -0.0933,0.752 0.37467,1.54534 1.12534,1.90667 0.236,0.11467 0.48,0.176 0.71866,0.188 0.51334,0.0267 0.992,-0.18 1.276,-0.588 3.71067,-5.31467 7.42,-7.71333 10.692,-9.83067 1.136,-0.73466 2.1,-1.51333 3.2,-2.21466 0.24667,-0.15734 0.588,-0.208 1.04133,-0.15467 3.316,0.38933 10.18534,5.16533 13.73334,8.31733 0.34933,0.31067 0.77733,0.484 1.19333,0.504 0.3,0.016 0.59467,-0.048 0.84933,-0.196 0.60667,-0.35466 0.836,-1.09866 0.56267,-1.82533"
       style="fill:#000000;fill-opacity:1;fill-rule:nonzero;stroke:none;stroke-width:1.33333"
       id="path19934" />
  </g>
  <g
     inkscape:groupmode="layer"
     id="layer5"
     inkscape:label="Command Symbol"
     style="display:none">
    <path
       d="m 331.12373,349.87053 5.12933,12.40134 5.392,-0.0187 -3.66267,3.34267 3.512,7.852 -6.26933,-5.69467 -4.06533,6.55333 0.884,-8.01066 -6.456,-2.70134 6.708,-0.78533 z"
       style="fill:#000000;fill-opacity:1;fill-rule:nonzero;stroke:none;stroke-width:1.33333"
       id="path19938" />
  </g>
  <g
     inkscape:groupmode="layer"
     id="layer6"
     inkscape:label="Science Symbol"
     style="display:none">
    <path
       id="path18248"
       style="color:#000000;display:inline;fill:#000000;stroke-miterlimit:40;-inkscape-stroke:none"
       d="m 332.5907,357.18865 c -4.00778,0.57533 -6.79337,4.33093 -6.21463,8.36247 0.57874,4.03152 4.30804,6.84993 8.31583,6.2746 4.00776,-0.57533 6.79364,-4.32902 6.2149,-8.36054 -0.57874,-4.03154 -4.30833,-6.85185 -8.3161,-6.27653 z m 0.19011,1.32432 c 2.70643,-0.38852 5.24405,1.09858 6.32187,3.49061 -0.38847,-0.32305 -0.87228,-0.58479 -1.41253,-0.78183 -1.25165,-0.45643 -2.85904,-0.59982 -4.57131,-0.35402 -1.71227,0.2458 -3.21441,0.83557 -4.2871,1.62568 -0.46302,0.34105 -0.85366,0.72833 -1.13557,1.14761 0.36141,-2.59863 2.3782,-4.73953 5.08464,-5.12805 z m 0.46348,3.22862 c 1.58566,-0.22763 3.0666,-0.0834 4.14259,0.30902 1.07598,0.39239 1.69425,0.99869 1.78961,1.66296 0.0954,0.66428 -0.32766,1.41809 -1.24981,2.09732 -0.92215,0.67923 -2.3027,1.23426 -3.88837,1.46189 -1.58567,0.22763 -3.0666,0.0834 -4.14259,-0.30902 -1.07598,-0.39239 -1.69398,-0.99676 -1.78934,-1.66103 -0.0954,-0.66427 0.32739,-1.42003 1.24954,-2.09925 0.92215,-0.67923 2.30269,-1.23426 3.88837,-1.46189 z m -5.06465,5.26726 c 0.38858,0.32305 0.87205,0.58655 1.41281,0.78375 1.25164,0.45645 2.85903,0.59983 4.5713,0.35403 1.71227,-0.2458 3.21441,-0.83556 4.28711,-1.62568 0.46344,-0.34136 0.85326,-0.73022 1.13529,-1.14954 -0.36006,2.59986 -2.37664,4.74129 -5.08436,5.12999 -2.70773,0.38871 -5.24528,-1.09896 -6.32215,-3.49255 z" />
  </g>
  <g
     inkscape:groupmode="layer"
     id="layer7"
     inkscape:label="Engineering Symbol">
    <path
       style="display:inline;fill:#000000;fill-opacity:1;stroke:none;stroke-width:1.11072px;stroke-linecap:butt;stroke-linejoin:miter;stroke-opacity:1"
       d="m 332.16897,364.0919 2.15346,2.93516 4.48569,-1.18553 -0.40042,-6.89029 -5.11989,-2.42659 -5.98584,4.3925 1.77417,8.27018 c 0,0 4.90614,1.46669 6.76718,1.73103 1.86104,0.26434 4.30325,0.27277 4.30325,0.27277 l -0.025,-0.28001 c 0,0 -5.47227,-1.75604 -7.3201,-2.88741 -1.84783,-1.13139 -2.89675,-2.3666 -3.1547,-4.07385 -0.25795,-1.70723 0.52648,-3.66906 1.66795,-4.56441 1.14147,-0.89536 2.44753,-1.02105 3.57976,-0.57109 1.13223,0.44996 1.95817,1.20532 2.24882,2.30057 0.29066,1.09525 0.39195,2.10571 -0.16787,3.1577 -0.5598,1.05203 -1.71982,0.85696 -2.52407,0.43906 -0.80428,-0.41789 -1.76299,-1.55147 -1.76299,-1.55147 z"
       id="path18493"
       sodipodi:nodetypes="ccccccczcczzzzzzzcc" />
  </g>
  <g
     inkscape:groupmode="layer"
     id="layer8"
     inkscape:label="Bolian Seam">
    <path
       id="path34966"
       style="color:#000000;fill:#000000;fill-opacity:0.2;-inkscape-stroke:none"
       d="M 273.97266 200.25391 C 273.97266 200.25391 270.25838 210.29755 266.31836 221.11523 C 262.37834 231.93292 258.2257 243.4769 257.30273 246.64258 C 255.4757 252.90912 255.44099 259.20324 256.75586 264.11328 C 257.10618 265.42148 258.11153 267.53495 259.43359 270.0625 C 260.75566 272.59005 262.39161 275.5007 263.98828 278.25977 C 266.75284 283.03698 269.03927 286.7722 269.69922 287.84766 C 268.40833 287.67373 267.24805 287.42188 267.24805 287.42188 C 267.24805 287.42188 270.30012 290.03155 271.41211 290.32031 C 272.5241 290.60907 272.20857 290.67635 273.22461 290.13867 C 274.24065 289.60099 276.48242 286.24609 276.48242 286.24609 C 276.48242 286.24609 273.9928 287.73165 272.4082 287.9668 C 272.20515 287.99693 271.96963 288.00915 271.71289 288.00977 C 271.62475 287.86668 268.69796 283.11486 265.56055 277.69336 C 263.96811 274.94161 262.33442 272.04151 261.02344 269.53516 C 259.71245 267.02879 258.72067 264.88491 258.42773 263.79102 C 257.16956 259.09263 257.19137 252.95363 258.96875 246.85742 C 259.84798 243.84174 264.02392 232.2074 267.96289 221.39258 C 271.90186 210.57776 275.61523 200.53516 275.61523 200.53516 L 273.97266 200.25391 z " />
    <path
       style="color:#000000;fill:#000000;-inkscape-stroke:none"
       d="m 276.30859,200.91016 c 0,0 -3.80869,10.17677 -7.81836,21.17382 -2.00483,5.49853 -4.05928,11.20109 -5.71484,15.94336 -1.65556,4.74228 -2.90671,8.49876 -3.32422,10.20118 -1.61875,6.60056 -1.71563,10.19872 -0.41211,15.0664 0.34935,1.30456 1.34462,3.44195 2.6543,6.00586 1.30968,2.56391 2.92925,5.52203 4.50976,8.33008 3.16103,5.6161 6.35222,10.37283 6.35222,10.37283 l 0.2832,-0.12956 c 0,0 -2.67321,-5.0033 -5.82639,-10.60547 -1.57659,-2.80108 -3.13075,-5.87923 -4.43012,-8.42296 -1.29937,-2.54373 -2.28421,-4.71299 -2.57812,-5.81054 -1.26954,-4.74076 -1.18358,-8.03794 0.41796,-14.56836 0.38757,-1.58033 1.64396,-5.37467 3.29688,-10.10938 1.65292,-4.7347 3.707,-10.43557 5.71094,-15.93164 4.00787,-10.99213 7.81445,-21.16406 7.81445,-21.16406 z"
       id="path34964"
       sodipodi:nodetypes="cssssssccsssssscc" />
  </g>
</svg>
