<?xml version="1.0" encoding="UTF-8" standalone="no"?>
<!-- Created with Inkscape (http://www.inkscape.org/) -->

<svg
   version="1.1"
   id="svg18722"
   width="400"
   height="400"
   viewBox="0 0 400 400"
   sodipodi:docname="OriginalSeriesAverageFemale.svg"
   inkscape:version="1.3.2 (091e20e, 2023-11-25)"
   xml:space="preserve"
   xmlns:inkscape="http://www.inkscape.org/namespaces/inkscape"
   xmlns:sodipodi="http://sodipodi.sourceforge.net/DTD/sodipodi-0.dtd"
   xmlns="http://www.w3.org/2000/svg"
   xmlns:svg="http://www.w3.org/2000/svg"><defs
     id="defs18726" /><sodipodi:namedview
     id="namedview18724"
     pagecolor="#ffffff"
     bordercolor="#666666"
     borderopacity="1.0"
     inkscape:showpageshadow="2"
     inkscape:pageopacity="0.0"
     inkscape:pagecheckerboard="0"
     inkscape:deskcolor="#d1d1d1"
     showgrid="false"
     inkscape:zoom="2.39"
     inkscape:cx="199.79079"
     inkscape:cy="200"
     inkscape:window-width="2200"
     inkscape:window-height="1169"
     inkscape:window-x="2089"
     inkscape:window-y="25"
     inkscape:window-maximized="0"
     inkscape:current-layer="layer7"><inkscape:page
       x="0"
       y="0"
       id="page18728"
       width="400"
       height="400"
       margin="0"
       bleed="0" /></sodipodi:namedview><g
     inkscape:groupmode="layer"
     id="layer1"
     inkscape:label="Neck"
     style="display:none"><path
       d="m 283.20253,206.16907 -69.57067,-54.87466 -5.48933,30.848 -6.20667,17.47466 c -3.96533,4.80267 -9.04133,15.21467 -18.424,23.548 -9.30133,8.26 -23.844,13.48933 -36.21333,21.172 0,0 -14.90933,16.74 61.20533,48.912 76.11333,32.172 84.74533,27.98667 88.93067,20.14 4.184,-7.84667 12.84368,-41.3493 8.91968,-49.1973 -6.95614,-7.11445 -22.02272,-15.66068 -39.11092,-19.49261 z"
       style="fill:#cd976d;fill-opacity:1;fill-rule:nonzero;stroke:none;stroke-width:1.33333"
       id="path19870"
       sodipodi:nodetypes="ccccccccccc" /><path
       d="m 206.12666,193.47841 c 1.61733,-3.92934 2.91275,-7.98512 4.096,-12.064 1.29142,-4.45178 3.764,-24.06134 5.256,-28.48 0,0 -3.83333,-3.40667 -3.83333,-3.40534 -1.01067,4.996 -3.07658,25.17543 -4.128,30.15334 -1.27295,6.02674 -3.68869,11.92938 -6.27067,17.54 -2.10941,4.58372 -5.35497,9.03565 -8.34947,13.07712 -3.1415,4.23987 -6.74653,7.93754 -10.55186,11.60687 -9.84667,9.496 -22.544,15.42 -35.24,20.512 0.40133,0.984 1.52,1.52134 2.58133,1.55067 1.39923,0.0369 4.17868,-1.07867 8.35467,-2.96667 15.95467,-7.21866 30.292,-18.60266 40.228,-33.08933 2.85218,-4.15977 5.62029,-8.99961 7.85733,-14.43466 z"
       style="fill:#000000;fill-opacity:1;fill-rule:nonzero;stroke:none;stroke-width:1.33333"
       id="path19890"
       sodipodi:nodetypes="ssccssscccccs" /><path
       style="opacity:0.199997;fill:#000000;fill-opacity:1;fill-rule:nonzero;stroke:none;stroke-width:1.33333"
       d="m 213.63281,151.29492 -5.49023,30.84766 -0.17578,0.49414 -0.0176,0.0508 c -0.008,0.0453 -0.0156,0.0801 -0.0156,0.0801 -0.59153,3.26679 -1.67558,6.14059 -3.11523,8.73633 -10e-4,0.002 -0.003,0.004 -0.004,0.006 l -2.8789,8.10742 c -2.973,3.60199 -6.57279,10.35879 -12.14453,17.02734 -0.92891,1.11177 -1.91219,2.2207 -2.95704,3.3125 -0.51287,0.53601 -1.0878,1.05036 -1.63086,1.57617 -0.56289,0.54503 -1.09446,1.10264 -1.6914,1.63282 -0.0139,0.0124 -0.031,0.0228 -0.0449,0.0351 -1.15045,1.01874 -2.37799,1.99279 -3.67383,2.92969 -9.18408,6.64012 -21.67015,11.48516 -32.49414,18.20703 0,0 -3.00371,3.40811 0.63086,10.08399 4.98031,5.72624 14.4995,11.31479 17.1582,11.79687 11.03733,2 20.53668,-7.64675 31.38867,-7.71875 8.55999,-0.0573 16.28362,7.04121 23.46094,11.0332 1.50667,0.83733 15.56797,9.02374 16.30664,5.06641 0.29333,-1.57867 -4.00315,-5.16199 -4.89648,-6.11133 -3.93334,-4.17465 -8.27971,-8.15943 -11.73438,-12.74609 -2.71066,-3.60133 -4.66824,-8.11346 -3.8789,-12.55078 0.69332,-3.89867 3.43831,-7.18988 6.70898,-9.42188 8.35065,-5.69733 18.13271,-6.5757 27.85937,-4.95703 2.648,0.44 19.5419,5.11112 21.11524,1.8418 0,-0.001 4.45898,-9.26563 4.45898,-9.26563 l 7.32422,-15.21875 z"
       id="path19920" /><path
       d="m 285.86613,207.63814 c -0.0107,-0.004 -0.12534,0.15066 -0.13334,0.16133 -3.98533,5.21867 -6.39866,12.18267 -9.17866,18.08133 -1.24534,2.64134 -2.552,5.26134 -3.77467,7.91467 -1.97333,4.28533 -5.53067,8.924 -4.212,13.912 0.204,0.77333 1.896,8.104 1.39467,7.94 -4.604,-1.516 -4.92134,-10.64533 -4.35867,-14.45733 0.132,-0.89867 14.50267,-36.10934 14.50267,-36.10934 0,0 5.75866,2.556 5.76,2.55734"
       style="fill:#000000;fill-opacity:1;fill-rule:nonzero;stroke:none;stroke-width:1.33333"
       id="path19894" /></g><g
     inkscape:groupmode="layer"
     id="g4"
     inkscape:label="Caitian Neck"
     sodipodi:insensitive="true"
     style="display:none"><path
       d="m 283.20253,206.16907 -69.57067,-54.87466 -5.48933,30.848 -6.20667,17.47466 c -3.96533,4.80267 -9.04133,15.21467 -18.424,23.548 -9.30133,8.26 -23.844,13.48933 -36.21333,21.172 0,0 -14.90933,16.74 61.20533,48.912 76.11333,32.172 84.74533,27.98667 88.93067,20.14 4.184,-7.84667 12.84368,-41.3493 8.91968,-49.1973 -6.95614,-7.11445 -22.02272,-15.66068 -39.11092,-19.49261 z"
       style="display:inline;fill:#cd976d;fill-opacity:1;fill-rule:nonzero;stroke:none;stroke-width:1.33333"
       id="path4"
       sodipodi:nodetypes="ccccccccccc" /><path
       id="path5"
       style="display:inline;opacity:1;fill:#000000;fill-opacity:1;fill-rule:nonzero;stroke:none;stroke-width:1.33333"
       d="m 211.64453,149.5293 c -0.81542,4.03084 -2.30988,17.83571 -3.41211,25.67578 -0.98877,5.04012 -2.47252,10.93169 -4.4043,13.84961 0,0 1.00825,-0.79925 1.6836,-1.52735 -0.15788,0.52687 -0.31498,1.05367 -0.48242,1.57813 -1.3754,3.17506 -4.0437,9.12896 -5.43164,10.80859 0.20934,-0.25333 0.88606,-0.4112 1.1914,-0.56054 -0.35542,0.52299 -0.61592,1.00416 -0.74609,1.55078 -1.92163,3.19849 -4.26663,6.01157 -6.55469,9.09961 -3.1415,4.23985 -7.33725,8.23301 -11.14258,11.90234 -9.84665,9.49598 -22.54425,15.41972 -35.24023,20.51172 0.40133,0.984 1.5207,1.52145 2.58203,1.55078 1.39923,0.0369 4.17753,-1.0788 8.35352,-2.9668 15.95463,-7.21864 30.29253,-18.60321 40.22851,-33.08984 2.85218,-4.15977 4.73171,-8.5552 6.96875,-13.99023 0.33544,-0.81495 0.83132,-2.25427 1.38281,-3.93165 0.50665,-0.47621 0.66734,-0.18149 1.51953,-2.92968 1.10666,-3.56934 1.76149,-5.10415 2.16016,-6.38282 0.4,-1.27731 0.77313,-2.35201 1.23047,-5.36132 0.55866,-3.67334 1.80923,-9.65233 1.80923,-9.65233 0.31314,-2.44333 0.76974,-8.67818 2.13804,-12.73049 0,0 -3.83399,-3.40562 -3.83399,-3.40429 z m 68.46094,55.55273 c -0.84267,2.06267 -1.68149,4.12741 -2.52149,6.19141 -1.80399,4.43333 -3.60572,8.86735 -5.40039,13.30468 -0.416,1.032 -0.69761,2.10902 -0.98828,3.17969 -0.152,0.55733 -0.28233,1.13641 -0.48633,1.67774 -0.156,0.41867 -0.18805,0.91311 -0.38671,1.31445 -0.10134,-0.216 -0.28202,-0.42 -0.38868,-0.63867 -0.18534,0.31867 -0.28834,0.71788 -0.42968,1.06055 -0.23333,0.56399 -0.51649,1.0911 -0.75782,1.64843 -0.24667,0.56667 -0.55257,1.12889 -0.7539,1.71289 -0.25333,0.73067 -0.54097,1.50216 -0.6543,2.27149 -0.0694,0.47067 -0.0722,0.9505 -0.10547,1.42383 -0.0107,0.16667 -0.25159,1.3442 -0.18359,1.4082 -0.16,-0.15333 -0.25281,-0.49469 -0.49414,-0.52539 -0.32934,0.55467 -0.50389,1.4598 -0.58789,2.09179 -0.12133,-0.11866 -0.2051,-0.28227 -0.39844,-0.26757 -0.15066,0.492 -0.13568,1.08989 -0.23438,1.61523 -0.0787,0.416 -0.10632,0.80052 -0.11132,1.22852 -0.008,0.804 -0.17974,1.65694 -0.0664,2.46093 0.0627,0.44534 0.36821,0.73504 0.37891,1.20704 -0.18533,0.0907 -0.38275,-0.0616 -0.58008,-0.0723 0.076,0.50666 0.34836,0.96978 0.56836,1.42578 0.21467,0.444 0.26998,0.87538 0.36328,1.35938 0.16933,0.87867 0.39381,1.7575 0.75781,2.57617 0.28534,0.644 0.66814,1.29208 1.24414,1.71875 0.256,0.18933 0.54542,0.32783 0.85742,0.39453 0.0987,0.021 0.97966,0.006 0.97266,-0.006 -0.65867,-1.14533 -1.39187,-2.2499 -1.5332,-3.61523 0.48266,-0.0907 0.97707,-0.19621 1.42773,-0.40821 -0.944,0.472 -2.09599,-4.17362 -2.22266,-4.62695 0.45067,0.11466 1.08899,0.13097 1.20899,-0.31836 0.0467,-0.17333 -0.0151,-0.35473 -0.0684,-0.52539 -0.37733,-1.208 -0.41853,-2.51871 -0.11719,-3.74805 0.44266,0.248 0.95427,0.37212 1.46094,0.35742 -0.2,-1.84532 0.0324,-3.73717 0.67773,-5.47851 0.36934,0.192 0.74066,0.38355 1.11133,0.57422 0.70933,-2.66134 1.54246,-5.23479 2.81446,-7.68946 0.18,0.308 0.35906,0.61521 0.53906,0.92188 0.784,-1.392 0.86377,-2.97825 1.53711,-4.40625 2.77999,-5.89865 5.19241,-12.86337 9.17773,-18.08203 0.008,-0.0107 0.12211,-0.16416 0.13281,-0.16016 -0.001,-0.001 -5.75976,-2.55664 -5.75976,-2.55664 z"
       sodipodi:nodetypes="ccccccccscccccscccccccccccccccccscccccccccccsccccccccscccccccccc" /><path
       id="path6"
       style="display:inline;opacity:0.199997;fill:#000000;fill-opacity:1;fill-rule:nonzero;stroke:none;stroke-width:1.33333"
       d="m 213.63281,151.29492 -5.49023,30.84766 -0.17578,0.49414 -0.0176,0.0508 c -0.008,0.0453 -0.0156,0.0801 -0.0156,0.0801 -0.59153,3.26679 -1.67558,6.14059 -3.11523,8.73633 -10e-4,0.002 -0.003,0.004 -0.004,0.006 l -2.8789,8.10742 c -2.973,3.60199 -6.57279,10.35879 -12.14453,17.02734 -0.92891,1.11177 -1.91219,2.2207 -2.95704,3.3125 -0.51287,0.53601 -1.0878,1.05036 -1.63086,1.57617 -0.56289,0.54503 -1.09446,1.10264 -1.6914,1.63282 -0.0139,0.0124 -0.031,0.0228 -0.0449,0.0351 -1.15045,1.01874 -2.37799,1.99279 -3.67383,2.92969 -9.18408,6.64012 -21.67015,11.48516 -32.49414,18.20703 0,0 -3.00371,3.40811 0.63086,10.08399 4.98031,5.72624 14.4995,11.31479 17.1582,11.79687 11.03733,2 20.53668,-7.64675 31.38867,-7.71875 8.55999,-0.0573 16.28362,7.04121 23.46094,11.0332 1.50667,0.83733 15.56797,9.02374 16.30664,5.06641 0.29333,-1.57867 -4.00315,-5.16199 -4.89648,-6.11133 -3.93334,-4.17465 -8.27971,-8.15943 -11.73438,-12.74609 -2.71066,-3.60133 -4.66824,-8.11346 -3.8789,-12.55078 0.69332,-3.89867 3.43831,-7.18988 6.70898,-9.42188 8.35065,-5.69733 18.13271,-6.5757 27.85937,-4.95703 2.648,0.44 19.5419,5.11112 21.11524,1.8418 0,-0.001 4.45898,-9.26563 4.45898,-9.26563 l 7.32422,-15.21875 z m 53.58594,98.47852 c 3.8015,0.73252 7.83234,0.96178 13.57227,2.90429 5.59498,1.89347 8.48223,3.22335 12.51171,7.4043 3.27912,3.71364 0.74296,7.50414 -0.34961,11.45899 -0.29333,2.16132 1.42994,4.26114 0.94727,6.36914 -0.452,1.96533 -3.195,3.66805 -4.65234,4.88672 -1.188,0.99066 -4.06439,2.74065 -1.40039,3.47265 1.172,0.32267 2.84805,-0.53517 3.88672,-0.17383 0.44932,0.15733 1.30883,1.21852 1.6875,1.61719 1.21466,1.27867 1.26973,5.12333 2.67773,5.83399 2.56,1.29466 5.51481,-4.09938 6.24414,-5.72071 1.75467,-3.90399 3.36939,-7.8906 4.38672,-12.05859 0.19584,-0.80215 0.36268,-1.61429 0.50976,-2.42969 0.2462,-4.01128 0.0353,-7.30242 -0.88671,-9.14648 -6.95614,-7.11445 -22.0212,-15.66027 -39.10938,-19.49219 0.28399,2.60456 0.0311,3.95827 -0.0254,5.07422 z"
       sodipodi:nodetypes="cccccsccscsscsccccccccccccccccscccccccccscccc" /></g><g
     inkscape:groupmode="layer"
     id="g3"
     inkscape:label="Caitian Neck straightened"
     style="display:none"><path
       d="m 272.62551,199.58617 -77.63287,-50.88054 c 0,0 -0.75416,21.94279 -0.82952,32.91902 -0.0456,6.63879 0.2283,19.91551 0.2283,19.91551 -0.8588,7.61335 -1.49689,13.29158 -10.87956,21.62491 -9.30133,8.26 -23.844,13.48933 -36.21333,21.172 0,0 -14.90933,16.74 61.20533,48.912 76.11333,32.172 84.74533,27.98667 88.93067,20.14 4.184,-7.84667 12.84368,-41.3493 8.91968,-49.1973 -6.95614,-7.11445 -22.02272,-15.66068 -39.11092,-19.49261 z"
       style="display:inline;fill:#cd976d;fill-opacity:1;fill-rule:nonzero;stroke:none;stroke-width:1.33333"
       id="path1"
       sodipodi:nodetypes="ccscccccccc" /><path
       id="path2"
       style="display:inline;opacity:1;fill:#000000;fill-opacity:1;fill-rule:nonzero;stroke:none;stroke-width:1.33333"
       d="m 192.70945,147.08845 c 0.73497,20.97319 1.90666,31.46043 -0.71575,40.04315 0,0 0.56446,-0.72529 1.23981,-1.45339 -0.0679,5.01369 -0.16151,11.77946 -1.22363,13.60978 0.20934,-0.25333 0.78146,-0.67271 1.0868,-0.82205 0.0937,4.90265 0.16247,6.16543 -1.53149,10.35453 -1.97823,4.89203 -5.41416,9.41645 -9.21949,13.08578 -9.84665,9.49598 -22.54425,15.41972 -35.24023,20.51172 0.40133,0.984 1.5207,1.52145 2.58203,1.55078 1.39923,0.0369 4.17753,-1.0788 8.35352,-2.9668 15.95463,-7.21864 28.20172,-15.12561 35.93854,-31.01881 2.49185,-5.11884 1.7855,-15.93613 1.4728,-21.54617 0.10132,0.16448 0.40583,0.34152 0.63041,0.5222 0.62031,-13.94691 0.0641,-20.59539 0.46067,-38.46643 0,0 -3.83399,-3.40562 -3.83399,-3.40429 z m 73.21951,82.98163 c -0.10134,-0.216 -0.28202,-0.42 -0.38868,-0.63867 -0.10958,3.64128 -0.93961,9.79939 -0.89731,9.8392 -0.16,-0.15333 -0.25281,-0.49469 -0.49414,-0.52539 0.16098,0.60043 0.48329,1.53171 0.39929,2.1637 -0.12133,-0.11866 -0.2051,-0.28227 -0.39844,-0.26757 0.20238,0.5443 0.23756,1.21788 0.30825,1.83098 0.054,0.46843 0.22008,0.9378 0.28748,1.43119 0.10883,0.79664 0.29751,1.53272 0.41085,2.33671 0.0627,0.44534 0.11324,0.68928 0.24816,1.22012 -0.11996,-0.0204 -0.25854,-0.0551 -0.43625,-0.17691 0.076,0.50666 0.33528,1.06131 0.55528,1.51731 0.21467,0.444 0.26998,0.87538 0.36328,1.35938 0.16933,0.87867 0.39381,1.7575 0.75781,2.57617 0.28534,0.644 0.66814,1.29208 1.24414,1.71875 0.256,0.18933 0.54542,0.32783 0.85742,0.39453 0.0987,0.021 0.97966,0.006 0.97266,-0.006 -0.65867,-1.14533 -1.39187,-2.2499 -1.5332,-3.61523 0.48266,-0.0907 0.97707,-0.19621 1.42773,-0.40821 -0.944,0.472 -2.09599,-4.17362 -2.22266,-4.62695 0.45067,0.11466 1.08899,0.13097 1.20899,-0.31836 0.0467,-0.17333 -0.0151,-0.35473 -0.0684,-0.52539 -0.37733,-1.208 -0.41853,-2.51871 -0.11719,-3.74805 0.44266,0.248 0.95427,0.37212 1.46094,0.35742 -0.2,-1.84532 -1.20851,-3.93686 -1.72813,-5.84462 0.36934,0.192 0.74066,0.38355 1.11133,0.57422 0.17308,-3.30854 0.57203,-5.06783 0.82701,-8.00327 0.18,0.308 0.35906,0.61521 0.53906,0.92188 0.17164,-0.30474 3.54807,-23.60733 4.50385,-28.64617 l -4.54897,-2.63037 c -0.49515,3.9001 -3.82535,29.28347 -4.65016,31.7396 z"
       sodipodi:nodetypes="cccccsccccsccccccccccssccccsccccccccsccccccccc" /><path
       id="path3"
       style="display:inline;opacity:0.199997;fill:#000000;fill-opacity:1;fill-rule:nonzero;stroke:none;stroke-width:1.33333"
       d="m 194.99359,148.70614 c -0.32078,12.51886 -0.0416,20.53708 -0.39244,28.23 -0.35087,7.69293 -0.59817,9.69862 -0.72958,17.37849 -0.0344,2.01018 0.7723,4.01403 0.14966,9.74066 -0.62152,5.71635 -2.65263,9.0274 -4.9699,12.21959 -2.40515,3.31325 -4.7876,6.22338 -5.53965,6.89132 -0.0139,0.0124 -0.031,0.0228 -0.0449,0.0351 -9.29902,8.23442 -23.47119,13.25182 -36.16797,21.13672 0,0 -3.00371,3.40811 0.63086,10.08399 4.98031,5.72624 14.4995,11.31479 17.1582,11.79687 11.03733,2 20.53668,-7.64675 31.38867,-7.71875 8.55999,-0.0573 16.28362,7.04121 23.46094,11.0332 1.50667,0.83733 15.56797,9.02374 16.30664,5.06641 0.29333,-1.57867 -4.00315,-5.16199 -4.89648,-6.11133 -3.93334,-4.17465 -8.27971,-8.15943 -11.73438,-12.74609 -2.71066,-3.60133 -4.66824,-8.11346 -3.8789,-12.55078 0.69332,-3.89867 3.43831,-7.18988 6.70898,-9.42188 8.35065,-5.69733 18.13271,-6.5757 27.85937,-4.95703 2.648,0.44 15.76968,4.44543 17.34302,1.17611 2.37414,-5.4249 1.4944,-21.87033 5.4222,-30.03176 z m 72.22516,101.0673 c 3.8015,0.73252 7.83234,0.96178 13.57227,2.90429 5.59498,1.89347 8.48223,3.22335 12.51171,7.4043 3.27912,3.71364 0.74296,7.50414 -0.34961,11.45899 -0.29333,2.16132 1.42994,4.26114 0.94727,6.36914 -0.452,1.96533 -3.195,3.66805 -4.65234,4.88672 -1.188,0.99066 -4.06439,2.74065 -1.40039,3.47265 1.172,0.32267 2.84805,-0.53517 3.88672,-0.17383 0.44932,0.15733 1.30883,1.21852 1.6875,1.61719 1.21466,1.27867 1.26973,5.12333 2.67773,5.83399 2.56,1.29466 5.51481,-4.09938 6.24414,-5.72071 1.75467,-3.90399 3.36939,-7.8906 4.38672,-12.05859 0.19584,-0.80215 0.36268,-1.61429 0.50976,-2.42969 0.2462,-4.01128 0.0353,-7.30242 -0.88671,-9.14648 -6.95614,-7.11445 -22.0212,-15.66027 -39.10938,-19.49219 0.28399,2.60456 0.0311,3.95827 -0.0254,5.07422 z"
       sodipodi:nodetypes="ccssssccccccccccccccccscccccccccsccccc" /></g><g
     id="g18730"
     inkscape:groupmode="layer"
     inkscape:label="Page 1"
     style="display:inline"><path
       d="m 51.219732,399.9668 c 0.157333,-3.77733 -0.618667,-8.85333 -1.349333,-12.35867 -0.169334,-0.81466 -0.337334,-1.61866 -0.490667,-2.41466 -0.338667,-1.756 -0.733333,-3.45467 -1.117333,-5.09734 -0.74,-3.17466 -1.497334,-6.428 -1.810667,-9.99333 -1.090666,-12.448 0.938667,-28.52667 6.202667,-49.152 0.892,-3.49466 1.878666,-6.932 2.932,-10.21733 4.098666,-13.75733 13.951999,-27.10933 24.605332,-37.62667 2.390667,-2.36 4.978667,-4.73866 7.689333,-7.06933 0.350667,-0.30133 0.825334,-0.56533 1.329334,-0.844 0.302666,-0.16667 0.6,-0.332 0.878666,-0.50533 0.832,-0.51867 1.662667,-1.04 2.492,-1.564 5.358667,-3.384 11.027996,-6.24667 16.511996,-9.01467 4.34667,-2.19333 8.84134,-4.46133 13.196,-6.996 5.44134,-3.16667 8.67334,-4.95733 11.84,-4.95733 2.64534,0 5.48934,1.15066 10.492,4.24933 3.55334,2.2 6.94667,4.79733 10.23067,7.30933 3.01733,2.308 6.13733,4.696 9.41333,6.80534 1.256,0.808 2.61067,1.79333 4.04534,2.836 2.16133,1.57333 4.38666,3.192 6.544,4.40266 2.05333,1.152 4.12666,1.68667 6.13066,2.20534 1.312,0.33733 2.66667,0.688 3.94667,1.20666 3.03067,1.232 5.99867,2.85334 8.868,4.42267 3.61733,1.976 7.33333,4.008 11.36133,5.40133 2.73733,0.948 5.62133,1.81867 8.67467,2.74 7.20533,2.176 14.612,4.41067 20.352,7.756 3.29466,1.92134 6.61066,2.97334 9.81733,3.98934 3.41467,1.084 6.64133,2.10666 9.74,4.10266 4.212,2.71334 12.504,7.26667 20.7,7.26667 1.78533,0 3.49733,-0.21733 5.08933,-0.64667 0.85867,-0.23066 1.752,-0.45466 2.66267,-0.68133 5.62133,-1.40667 11.99467,-2.99867 15.73067,-7.69733 6.97333,-8.768 6.40533,-19.82 5.85466,-30.50934 -0.284,-5.508 -0.552,-10.73066 0.19867,-15.46133 h 0.0453 c 5.78134,0 11.536,3.09333 16.61334,5.824 4.59466,2.47067 9.02266,5.608 13.30533,8.64133 l 2.10133,1.48534 c 8.11467,5.71066 14.96,13.37333 20.928,23.43066 4.66667,7.86267 8.3,16.504 10.79867,25.68267 0.688,2.524 1.304,5.14533 1.83066,7.78933 2.49067,12.50667 5.31467,26.68133 3.124,40.732 -0.37466,2.404 -0.97466,4.75467 -1.73333,7.732 -0.50533,1.976 -1.06667,4.17333 -1.69467,6.88133 -0.26133,0.036 -0.51066,0.14 -0.71733,0.304 -0.508,0.424 -0.68133,1.08534 -0.46133,1.668 0.092,0.24667 0.19466,0.50134 0.30666,0.75734 0.62134,1.42 1.264,3.008 1.75334,4.972 0.33333,1.332 0.732,2.68666 1.13466,4.05066 0.65467,2.22134 1.32534,5.96667 1.69467,8.16267 z"
       style="fill:#d30000;fill-opacity:1;fill-rule:nonzero;stroke:none;stroke-width:1.33333"
       id="path19818" /><path
       d="m 320.07293,258.73507 c 4.52666,2.43467 8.92533,5.55067 13.17866,8.56267 l 2.10667,1.48933 c 7.97066,5.60933 14.704,13.152 20.584,23.05867 4.61066,7.77066 8.20133,16.312 10.67333,25.388 0.68133,2.49866 1.29067,5.092 1.812,7.70666 2.47067,12.40933 5.272,26.476 3.11467,40.31333 -0.36534,2.344 -0.92934,4.55734 -1.712,7.61867 -1.45067,5.68267 -1.39067,10.324 0.57866,15.97867 1.01867,2.92533 0.796,5.86133 1.18267,8.82266 0.336,2.56667 -0.0813,2.29334 3.09333,2.29334 -0.38933,-4.13867 -2.05466,-8.46267 -3.08,-12.56934 -0.47333,-1.89866 -1.08666,-3.49466 -1.83466,-5.20666 -0.1,-0.22934 -0.192,-0.45734 -0.27734,-0.68534 0.49734,0.31067 0.90667,0.31334 1.02934,-0.224 1.72666,-7.572 3,-11.41466 3.65466,-15.61733 2.15734,-13.84267 -0.432,-27.67733 -3.13333,-41.24533 -0.52933,-2.65333 -1.14533,-5.28533 -1.85467,-7.88667 -2.512,-9.22133 -6.192,-18.024 -10.95333,-26.04666 -5.73333,-9.65867 -12.564,-17.70267 -21.34267,-23.88 -5.09466,-3.58534 -10.14133,-7.30667 -15.55733,-10.21867 -5.79466,-3.116 -14.22828,-6.28407 -20.80961,-5.80674 -2.84534,14.34934 6.65361,33.25741 -3.74505,46.33074 -4.008,5.03867 -11.64534,6.264 -17.628,7.876 -8.212,2.212 -17.94534,-2.14267 -24.61334,-6.43733 -6.27466,-4.04134 -13.04,-4.29334 -19.61466,-8.12534 -8.352,-4.86933 -20.056,-7.42 -29.284,-10.61466 -7.13867,-2.47334 -13.264,-6.996 -20.15733,-9.79734 -3.3,-1.34 -6.69467,-1.528 -9.912,-3.33333 -3.496,-1.96133 -7.31467,-5.13333 -10.512,-7.19333 -6.784,-4.36667 -12.78267,-9.86534 -19.66667,-14.128 -10.71333,-6.63334 -12.61733,-4.89734 -23.15333,1.236 -9.796,5.70133 -20.76934,9.38133 -30.442669,15.49066 -0.826667,0.52134 -1.654667,1.04134 -2.484,1.55867 -0.766667,0.48 -1.686667,0.87867 -2.389333,1.48267 -2.66,2.28666 -5.254667,4.66133 -7.762667,7.13733 -10.033333,9.90667 -20.286666,23.212 -24.727999,38.124 -1.072,3.34267 -2.062667,6.79467 -2.96,10.312 -3.749333,14.68933 -7.645333,33.76933 -6.248,49.72666 0.486667,5.55734 0.892,9.66267 1.882667,14.80934 0.889333,4.616 2.730666,14.932 2.730666,14.932 h 3.930667 c 0,0 -1.438667,-8.52267 -2.145333,-11.58534 -0.204,-0.88533 -0.409334,-1.77466 -0.597334,-2.67466 -0.373333,-1.792 -2.178666,-12.24134 -2.536,-15.704 -1.270666,-12.288 0.493334,-28.212 5.393334,-48.68267 0.830666,-3.46666 1.756,-6.87866 2.750666,-10.14 3.842667,-13.62266 13.866667,-26.82 24.4,-37.21866 2.373333,-2.344 4.94,-4.704 7.627999,-7.01467 0.258667,-0.22133 0.682667,-0.456 1.132,-0.704 0.318667,-0.176 0.634667,-0.352 0.930667,-0.53733 0.833333,-0.52 1.665333,-1.04267 2.496,-1.56667 5.309333,-3.35333 10.954669,-6.20267 16.411999,-8.95733 4.36667,-2.204 9.56933,-3.93467 13.948,-6.484 7.74933,-4.51067 10.648,-6.604 19.25733,-1.788 6.884,3.84933 12.468,9.54533 18.58267,14.432 9.74133,7.78533 24.58,8.16933 35.53333,15.41066 3.10533,2.052 5.30533,4.876 8.92267,6.03467 4.03333,1.29067 8.30933,1.04 12.17333,2.48533 9.63467,3.60534 20.00533,6.996 29.804,10.44934 3.36667,1.18533 8.304,2.068 11.15467,4.04133 3.096,2.144 4.25333,5.27333 8.12533,7.112 5.77333,2.74267 16.63333,3.69867 21.91467,0.48267 3.46,-2.10534 5.49333,-6.02534 8.38533,-8.772 2.73733,-2.59867 5.804,-3.248 7.34933,-6.90534 1.144,-2.70266 0.37334,-6.28 0.75067,-9.208 0.52533,-4.08 2.03867,-7.96266 2.89067,-11.97466 1.09733,-5.168 -1.48534,-9.99334 -0.44934,-14.83467 4.80134,-0.24267 7.84267,0.784 12.09734,3.072"
       style="fill:#000000;fill-opacity:1;fill-rule:nonzero;stroke:none;stroke-width:1.33333"
       id="path19898"
       sodipodi:nodetypes="ccccccscccccccccccccccccscccccccccccccscccccccccccccccccccccccccccccc" /><path
       d="m 351.92466,336.73613 c 0.13466,9.94667 1.02533,19.00934 6.07466,28.44667 4.21867,7.88667 9.26134,15.096 10.64667,24.13867 0.56267,3.65733 1.56533,7.37466 2.65067,10.908 1.23333,0.0133 2.46666,0.028 3.7,0.0427 0.46,0.005 -3.808,-15.828 -4.35334,-17.26 -3.184,-8.37066 -7.58266,-16.62133 -11.13733,-24.992 -3.84267,-9.052 -6.28667,-18.46666 -7.59467,-28.21199 -0.008,2.36533 -0.0173,4.66933 0.0133,6.92799"
       style="fill:#000000;fill-opacity:1;fill-rule:nonzero;stroke:none;stroke-width:1.33333"
       id="path19902" /><path
       d="m 147.4724,234.48494 c 0,0 -12.032,-3.13867 -16.74,1.56933 -4.708,4.708 -11.41734,6.088 -12.576,10.47333 -1.15867,4.38667 67.15466,70.61067 178.05733,81.77067 13.62266,1.37067 23.56933,-50.75467 23.71466,-60.16 0.12534,-8.12133 -6.1681,-15.18895 -10.83497,-17.66084 -7.04532,-3.73168 -11.56819,-4.04537 -17.08285,-3.66913 -2.62002,0.17875 -13.24761,3.30808 -14.00761,4.77208 17.13148,5.62693 23.80704,6.96743 22.28543,26.06989 -0.13733,0.9 -0.308,1.79467 -0.51066,2.68133 -0.22934,1 -0.488,1.99334 -0.77467,2.97867 -4.708,16.216 -16.74,23.01733 -41.32667,14.64667 -24.58666,-8.36934 -122.75866,-50.91734 -110.20399,-63.472"
       style="fill:#000000;fill-opacity:1;fill-rule:nonzero;stroke:none;stroke-width:1.33333"
       id="path19906"
       sodipodi:nodetypes="cscccsscccccc" /><path
       d="m 147.4724,234.48494 c 5.88,1.276 11.36133,3.588 11.36133,3.588 l -11.33467,7.392 -6.40666,-5.256 c 0,0 0.44,-7.01334 6.38,-5.724"
       style="fill:#000000;fill-opacity:1;fill-rule:nonzero;stroke:none;stroke-width:1.33333"
       id="path19910" /><path
       id="path19968"
       style="opacity:0.199997;fill:#000000;fill-opacity:1;fill-rule:nonzero;stroke:none;stroke-width:1.33333"
       d="m 198.23613,339.86307 c 0.0667,0.036 0.13333,0.072 0.20133,0.10666 28.788,15.06534 64.884,19.068 96.816,14.12934 3.92667,-0.60667 7.40267,-2.328 11.236,-3.248 -1.54,7.268 -11.432,9.19733 -17.372,10.05733 -25.22267,3.65067 -52.58933,1.88933 -75.348,-10.46 -5.51333,-2.992 -10.136,-7.656 -15.53333,-10.58533 M 147.48333,304.698 c 0,0 56.43066,34.884 120.29733,38.484 0,0 -42.11467,-1.01067 -69.524,-9.37333 C 170.84866,325.446 147.48333,304.698 147.48333,304.698 m 197.69306,95.2688 c -3.26,-20.37333 -11.52314,-38.48008 -18.10581,-51.38541 9.436,20.86133 13.48048,43.68408 14.50714,51.38541 z m -18.10634,-51.43785 c -2.82267,-6.24 -6.30357,-12.66241 -9.75686,-18.13828 0,0 4.97041,6.22129 10.48908,17.03995 m -181.61787,3.09871 c -2.38134,-4.26533 -6.00534,-8.00533 -9.12667,-11.744 -2.52267,-3.02266 -5.08533,-6.01199 -7.68533,-8.96799 -1.98134,-2.25334 -3.98267,-4 -5.76534,-6.30667 -0.73466,-0.948 -2.31066,-1.68533 -2.80133,-2.68933 -2.7,-1.368 -4.42133,-6.18267 -5.024,-8.86934 -0.85467,-3.812 -0.416,-7.78933 0.708,-11.496 2.336,-7.7 5.676,-13.95466 11.54133,-19.36266 2.93867,-2.708 5.42134,-4.224 8.94934,-6.172 17.98933,13.24133 67.61199,42.032 128.54266,47.448 -3.196,-0.284 -7.64,-3.51734 -10.50267,-4.836 -18.80266,-8.656 -37.96266,-16.02134 -55.58799,-27.02934 -9.6,-5.996 -18.812,-12.588 -27.82534,-19.42666 -8.20266,-6.22267 -17.76,-12.29067 -24.88933,-19.66667 -4.104,-4.24667 -5.49467,-9.25733 -12.59067,-9.25467 -3.16666,0 -6.39866,1.792 -11.83733,4.95734 -4.35467,2.53466 -8.84933,4.804 -13.196,6.99733 -5.484,2.76667 -11.154666,5.62933 -16.513332,9.01333 -0.829334,0.524 -1.658667,1.04534 -2.490667,1.564 -0.278667,0.17467 -0.576,0.34 -0.88,0.50667 -0.502667,0.27867 -0.977333,0.54133 -1.329333,0.84267 -2.710667,2.33066 -5.297333,4.70933 -7.689333,7.07066 -10.653333,10.516 -20.506666,23.868 -24.604,37.62534 -1.053333,3.28533 -2.04,6.72266 -2.933333,10.21733 -5.264,20.62533 -7.292,36.704 -6.201333,49.152 0.312,3.56533 1.070666,6.81866 1.810666,9.99333 0.382667,1.64267 0.778667,3.34133 1.117334,5.09733 0.152,0.796 0.32,1.6 0.490666,2.41734 0.68,3.268 1.390667,7.888 1.357334,11.56133 0.016,0.192 0.02933,0.38267 0.04533,0.576 0.0053,0.0747 0.02,0.14533 0.028,0.21867 h 87.997331 c 0.44,-3.90534 -1.15066,-7.65467 -1.75733,-11.75467 -0.86133,-5.828 -2.56933,-11.128 -4.24933,-16.76 -0.552,-1.852 -1.668,-3.59333 -2.54934,-5.452 -0.636,-1.344 -2.01466,-3.60667 -1.01466,-5.076 0.26,-0.38267 6.63866,8.11867 7.29866,8.98133 1.808,2.36 2.74934,5.09867 4.35867,7.57334 0.84133,1.29333 1.58,2.704 2.192,4.17466 1.72667,-4.40133 -0.70533,-9.996 -2.29067,-13.992 -1.44,-3.62933 -2.06133,-7.56933 -3.856,-11.06133 -2.00533,-3.89867 -5.01333,-7.428 -7.63733,-10.92533 -0.62133,-0.82934 -2.16267,-4.18667 -1.12533,-5.116 0.81866,-0.73334 4.47866,2.31866 5.30133,2.776 1.98533,1.10533 3.944,2.512 5.89333,3.73333 1.468,0.92 2.376,2.37467 3.34134,3.58 0.904,1.128 1.84666,2.40133 2.72533,3.77067 0.60933,0.94933 1.652,2.92666 2.42133,3.34266 -0.21866,-0.11733 -0.52533,-3.232 -0.66266,-3.69066 -0.368,-1.228 -0.87867,-2.42134 -1.504,-3.54134"
       sodipodi:nodetypes="ccccccccccccccccccccccccccccccccccccccccccccccccccccccccccccsccccccc" /><path
       d="m 156.2788,377.99467 c 1.488,-10.98534 -14.33067,-40.28 -30.02534,-51.26533 0,0 31.06667,29.16133 26.272,56.61333 -1.60666,9.196 -0.84266,10.88666 0.0107,16.624 h 5.70133 c -0.83733,-5.28267 -2.96133,-14.57334 -1.95866,-21.972"
       style="fill:#000000;fill-opacity:1;fill-rule:nonzero;stroke:none;stroke-width:1.33333"
       id="path19942" /><path
       d="m 320.72839,387.2756 c -0.14266,-0.007 -0.28933,-0.044 -0.43066,-0.11333 -0.45067,-0.21734 -0.73067,-0.69334 -0.67467,-1.144 0.12933,-1.04534 3.21333,-25.74267 6.98533,-36.728 0.87334,-2.54267 2.096,-3.73867 3.73867,-3.65467 3.16266,0.16 6.55866,5.284 11.01333,13.5 0.94133,1.736 1.808,3.30533 2.616,4.772 3.45067,6.25733 5.944,10.77867 8.736,18.188 0.16267,0.436 0.0253,0.88267 -0.33867,1.09467 -0.152,0.0893 -0.32933,0.128 -0.50933,0.11866 -0.24933,-0.012 -0.50667,-0.116 -0.716,-0.30266 -2.61067,-2.32 -10.20933,-8.05067 -14.164,-8.51467 -0.60667,-0.072 -1.08,0.007 -1.44533,0.24 -1.08534,0.692 -2.07734,1.488 -3.204,2.21733 -3.31467,2.144 -7.07067,4.57334 -10.84,9.97334 -0.17067,0.24533 -0.45867,0.36933 -0.76667,0.35333"
       style="fill:#ffd59c;fill-opacity:1;fill-rule:nonzero;stroke:none;stroke-width:1.33333"
       id="path19930" /><path
       d="m 334.90146,373.87173 c -4.29733,2.74 -9.148,5.06934 -14.27067,12.408 0,0 3.15867,-25.524 6.94534,-36.55066 2.68666,-7.824 7.90266,0.54266 12.90399,9.76666 5.00134,9.224 7.88,13.78267 11.28534,22.81734 0,0 -12.56667,-11.18134 -16.864,-8.44134 m 18.44133,8.07867 c -2.812,-7.46 -5.316,-12.00133 -8.78133,-18.288 -0.808,-1.46533 -1.67334,-3.03333 -2.61334,-4.768 -4.708,-8.68133 -8.12533,-13.74267 -11.66666,-13.92267 -2.88533,-0.14666 -3.96267,2.99334 -4.31733,4.02534 -3.792,11.04266 -6.884,35.79866 -7.01334,36.84666 -0.0933,0.752 0.37467,1.54534 1.12534,1.90667 0.236,0.11467 0.48,0.176 0.71866,0.188 0.51334,0.0267 0.992,-0.18 1.276,-0.588 3.71067,-5.31467 7.42,-7.71333 10.692,-9.83067 1.136,-0.73466 2.1,-1.51333 3.2,-2.21466 0.24667,-0.15734 0.588,-0.208 1.04133,-0.15467 3.316,0.38933 10.18534,5.16533 13.73334,8.31733 0.34933,0.31067 0.77733,0.484 1.19333,0.504 0.3,0.016 0.59467,-0.048 0.84933,-0.196 0.60667,-0.35466 0.836,-1.09866 0.56267,-1.82533"
       style="fill:#000000;fill-opacity:1;fill-rule:nonzero;stroke:none;stroke-width:1.33333"
       id="path19934" /><path
       style="display:inline;opacity:0.199997;fill:#000000;fill-opacity:1;fill-rule:nonzero;stroke:none;stroke-width:1.33333"
       d="m 285.39699,252.09126 c 1.8928,0.94038 5.47382,4.03474 8.56508,8.95014 2.555,4.0627 3.00052,7.65911 2.75674,11.75485 -0.38117,6.40398 -1.08912,10.29303 -2.44984,15.12615 -0.7777,2.76233 -5.85453,11.12165 -6.9279,13.02686 0.44932,0.15733 6.32976,-2.65178 6.70843,-2.25311 -1.77173,-2.376 6.55017,-7.44701 8.29425,-10.86998 4.99674,-11.11731 6.33108,-18.99204 4.00977,-23.63476 -6.95614,-7.11445 -13.88087,-12.64891 -21.68336,-13.95442 -1.33055,-0.15905 -2.57432,0.2142 0.72683,1.85427 z"
       id="path7"
       sodipodi:nodetypes="sssscccccs" /></g><g
     inkscape:groupmode="layer"
     id="layer5"
     inkscape:label="Command Symbol"
     style="display:none"><path
       d="m 331.12373,349.87053 5.12933,12.40134 5.392,-0.0187 -3.66267,3.34267 3.512,7.852 -6.26933,-5.69467 -4.06533,6.55333 0.884,-8.01066 -6.456,-2.70134 6.708,-0.78533 z"
       style="fill:#000000;fill-opacity:1;fill-rule:nonzero;stroke:none;stroke-width:1.33333"
       id="path19938" /></g><g
     inkscape:groupmode="layer"
     id="layer6"
     inkscape:label="Science Symbol"
     style="display:inline"><path
       id="path18248"
       style="color:#000000;display:inline;fill:#000000;stroke-miterlimit:40;-inkscape-stroke:none"
       d="m 332.5907,357.18865 c -4.00778,0.57533 -6.79337,4.33093 -6.21463,8.36247 0.57874,4.03152 4.30804,6.84993 8.31583,6.2746 4.00776,-0.57533 6.79364,-4.32902 6.2149,-8.36054 -0.57874,-4.03154 -4.30833,-6.85185 -8.3161,-6.27653 z m 0.19011,1.32432 c 2.70643,-0.38852 5.24405,1.09858 6.32187,3.49061 -0.38847,-0.32305 -0.87228,-0.58479 -1.41253,-0.78183 -1.25165,-0.45643 -2.85904,-0.59982 -4.57131,-0.35402 -1.71227,0.2458 -3.21441,0.83557 -4.2871,1.62568 -0.46302,0.34105 -0.85366,0.72833 -1.13557,1.14761 0.36141,-2.59863 2.3782,-4.73953 5.08464,-5.12805 z m 0.46348,3.22862 c 1.58566,-0.22763 3.0666,-0.0834 4.14259,0.30902 1.07598,0.39239 1.69425,0.99869 1.78961,1.66296 0.0954,0.66428 -0.32766,1.41809 -1.24981,2.09732 -0.92215,0.67923 -2.3027,1.23426 -3.88837,1.46189 -1.58567,0.22763 -3.0666,0.0834 -4.14259,-0.30902 -1.07598,-0.39239 -1.69398,-0.99676 -1.78934,-1.66103 -0.0954,-0.66427 0.32739,-1.42003 1.24954,-2.09925 0.92215,-0.67923 2.30269,-1.23426 3.88837,-1.46189 z m -5.06465,5.26726 c 0.38858,0.32305 0.87205,0.58655 1.41281,0.78375 1.25164,0.45645 2.85903,0.59983 4.5713,0.35403 1.71227,-0.2458 3.21441,-0.83556 4.28711,-1.62568 0.46344,-0.34136 0.85326,-0.73022 1.13529,-1.14954 -0.36006,2.59986 -2.37664,4.74129 -5.08436,5.12999 -2.70773,0.38871 -5.24528,-1.09896 -6.32215,-3.49255 z" /></g><g
     inkscape:groupmode="layer"
     id="layer7"
     inkscape:label="Engineering Symbol"
     style="display:none"><path
       style="display:inline;fill:#000000;fill-opacity:1;stroke:none;stroke-width:1.11072px;stroke-linecap:butt;stroke-linejoin:miter;stroke-opacity:1"
       d="m 332.16897,364.0919 2.15346,2.93516 4.48569,-1.18553 -0.40042,-6.89029 -5.11989,-2.42659 -5.98584,4.3925 1.77417,8.27018 c 0,0 4.90614,1.46669 6.76718,1.73103 1.86104,0.26434 4.30325,0.27277 4.30325,0.27277 l -0.025,-0.28001 c 0,0 -5.47227,-1.75604 -7.3201,-2.88741 -1.84783,-1.13139 -2.89675,-2.3666 -3.1547,-4.07385 -0.25795,-1.70723 0.52648,-3.66906 1.66795,-4.56441 1.14147,-0.89536 2.44753,-1.02105 3.57976,-0.57109 1.13223,0.44996 1.95817,1.20532 2.24882,2.30057 0.29066,1.09525 0.39195,2.10571 -0.16787,3.1577 -0.5598,1.05203 -1.71982,0.85696 -2.52407,0.43906 -0.80428,-0.41789 -1.76299,-1.55147 -1.76299,-1.55147 z"
       id="path18493"
       sodipodi:nodetypes="ccccccczcczzzzzzzcc" /></g></svg>
