<?xml version="1.0" encoding="UTF-8" standalone="no"?>
<!-- Created with Inkscape (http://www.inkscape.org/) -->

<svg
   width="400"
   height="400"
   viewBox="0 0 400 400"
   version="1.1"
   id="svg15392"
   xml:space="preserve"
   inkscape:version="1.2.2 (b0a8486, 2022-12-01)"
   sodipodi:docname="TwokAverageFemale.svg"
   xmlns:inkscape="http://www.inkscape.org/namespaces/inkscape"
   xmlns:sodipodi="http://sodipodi.sourceforge.net/DTD/sodipodi-0.dtd"
   xmlns="http://www.w3.org/2000/svg"
   xmlns:svg="http://www.w3.org/2000/svg"><sodipodi:namedview
     id="namedview15394"
     pagecolor="#ffffff"
     bordercolor="#666666"
     borderopacity="1.0"
     inkscape:showpageshadow="2"
     inkscape:pageopacity="0.0"
     inkscape:pagecheckerboard="0"
     inkscape:deskcolor="#d1d1d1"
     inkscape:document-units="px"
     showgrid="false"
     inkscape:zoom="8.46"
     inkscape:cx="262.35225"
     inkscape:cy="252.24586"
     inkscape:window-width="1869"
     inkscape:window-height="1066"
     inkscape:window-x="2401"
     inkscape:window-y="185"
     inkscape:window-maximized="0"
     inkscape:current-layer="layer2" /><defs
     id="defs15389"><inkscape:path-effect
       effect="perspective-envelope"
       up_left_point="293.53755,309.08275"
       up_right_point="354.06539,311.38"
       down_left_point="293.53755,350.55401"
       down_right_point="354.06539,347.55"
       id="path-effect34728"
       is_visible="true"
       lpeversion="1"
       deform_type="perspective"
       horizontal_mirror="false"
       vertical_mirror="false"
       overflow_perspective="false" /></defs><g
     inkscape:groupmode="layer"
     id="layer2"
     inkscape:label="Uniform"><path
       d="m 213.63253,151.29441 -5.49067,30.848 -9.21193,18.45217 c 0,0 13.57993,22.69982 22.61726,29.33716 9.03734,6.636 24.148,15.816 35.02134,17.228 l 3.72976,0.53827 2.76624,0.30839 5.224,-2.25866 1.832,-12.39334 13.08133,-27.18533 z"
       style="fill:#cd976d;fill-opacity:1;fill-rule:nonzero;stroke:none;stroke-width:1.33333"
       id="path283414"
       sodipodi:nodetypes="ccccccccccc" /><path
       d="m 199.16985,199.75598 c 0,0 11.14568,18.87824 18.74974,25.74882 16.89748,4.64849 35.91739,5.03279 53.5,5.14934 l 11.78267,-24.48534 -69.56933,-54.87466 -5.69867,31.472 z"
       style="opacity:0.199997;fill:#000000;fill-opacity:1;fill-rule:nonzero;stroke:none;stroke-width:1.33333"
       id="path283424"
       sodipodi:nodetypes="ccccccc" /><path
       d="m 285.86613,207.63814 c -2.232,2.508 -11.62934,23.48 -13.308,26.58266 -1.36534,2.52267 -2.372,12.41734 -5.128,12.788 -1.86267,0.25067 -2.084,-3.988 -1.828,-5.81866 0.124,-0.87467 14.504,-36.10934 14.504,-36.10934 0,0 5.76,2.55734 5.76,2.55734"
       style="fill:#000000;fill-opacity:1;fill-rule:nonzero;stroke:none;stroke-width:1.33333"
       id="path283438" /><path
       d="m 211.64493,149.52841 c -1.01067,4.99733 -2.99139,25.24509 -4.128,30.15333 -1.11614,3.58085 -2.42213,8.10992 -4.32571,11.82632 -1.90358,3.7164 -2.7377,5.49633 -4.27987,8.42311 l 2.35504,3.10823 c 4.22257,-7.93797 7.1452,-15.38433 8.95587,-21.62566 1.29067,-4.45067 3.76533,-24.06133 5.256,-28.47867 l -3.83333,-3.40666"
       style="fill:#000000;fill-opacity:1;fill-rule:nonzero;stroke:none;stroke-width:1.33333"
       id="path283434"
       sodipodi:nodetypes="cczccccc" /><path
       d="m 197.15857,245.26934 c 12.44419,11.15185 26.06064,20.75421 40.71596,28.69533 l 16.57092,6.81348 c 0,0 5.66658,2.14636 16.40264,-0.12131 0,0 4.02982,-0.97917 6.34897,-4.05755 4.06475,-5.52191 5.46947,-9.93329 5.8148,-14.83595 -0.70533,-1.992 -2.26933,-6.17867 -3.65733,-9.86534 -1.388,-3.688 -2.59734,-6.87866 -2.59734,-6.87866 l 0.29734,-2.28534 -4.768,-8.012 -0.18534,0.152 -3.812,10.87334 -5.22533,2.25866 -3.29681,-0.30705 -3.19919,-0.53961 c -10.87333,-1.412 -25.98267,-10.59067 -35.02,-17.228 -9.03867,-6.63734 -22.10826,-29.15541 -22.10826,-29.15541 l -1.27897,-2.01644 -1.17191,1.0391 -8.31752,13.65255 c -6.57413,9.12628 -6.37992,11.66542 -2.52126,19.10409 1.25467,2.11333 1.86192,3.63744 3.80592,5.98677"
       style="fill:#d30000;fill-opacity:1;fill-rule:nonzero;stroke:none;stroke-width:1.33333"
       id="path283406"
       sodipodi:nodetypes="cccccccccccccccccccccc" /><path
       id="path283456"
       style="opacity:0.199997;fill:#000000;fill-opacity:1;fill-rule:nonzero;stroke:none;stroke-width:1.33333"
       d="m 198.26953,198.57812 c 0,10e-6 -5.82728,7.85033 -9.42578,14.32422 -8.75394,16.05281 -7.5108,13.75879 2.0625,27.26758 3.452,3.476 5.99127,5.16057 8.94727,7.61524 3.74103,2.10094 10.89805,9.72215 13,9.84765 2.10194,0.12551 9.66592,-19.44707 9.36328,-21.19726 -0.30264,-1.75019 -4.64243,-4.83539 -6.65039,-6.81446 -8.344,-8.22396 -11.49161,-13.0902 -15.24219,-26.77539 z m 25.6543,38.9961 -8.89063,21.37109 c 2.4623,1.75888 4.43488,2.90164 5.29102,2.58399 2.64775,-0.99142 10.23586,-17.36991 7.78125,-20.61914 -0.89949,-1.19069 -2.55845,-1.9373 -4.18164,-3.33594 z m 8.36914,5.57031 -8.46289,21.05469 c 2.26798,1.09221 4.33132,1.48349 6.2168,0.76758 2.97648,-1.13017 7.32992,-14.37836 5.28515,-19.58594 -0.29205,-0.74379 -1.58725,-1.10106 -3.03906,-2.23633 z m 44.36523,3.58985 -2.87094,3.62632 -1.26389,1.94038 c 0,0 3.91647,5.07439 4.59062,9.25884 0.61757,3.83326 -0.60874,8.58317 -2.32477,11.72539 -1.58944,2.91041 -8.01852,7.66883 -8.01852,7.66883 l 10.72344,-4.46391 4.51367,-12.70507 -2.34179,-9.86133 z m -36.33984,0.52929 -5.32422,18.99024 c 4.69236,-0.18256 6.58671,-2.90389 7.54883,-5.69336 0.81581,-2.36531 1.1957,-11.29642 -2.22461,-13.29688 z"
       sodipodi:nodetypes="ccccssscccccscccssccccsscccccccsc" /><path
       d="m 276.07346,242.23054 c 0.33067,0.75333 0.6,1.59333 0.68267,2.78933 0.224,3.21333 -1.1,3.24933 -2.696,5.944 -2.38667,4.032 -3.48134,9.40133 -4.94667,13.80933 -0.872,-2.21866 -1.20133,-3.37733 -1.008,-5.648 0.196,-2.31333 0.44933,-4.564 1.104,-6.844 0.46533,-1.62266 3.62267,-4.36666 4.41467,-5.74133 1.59866,-2.768 0.99466,-5.07867 0.372,-8.04267 0.23866,0.32 0.43733,0.32667 0.74,0.59334 0.36,1.30533 0.90133,2.14666 1.33733,3.14"
       style="fill:#000000;fill-opacity:1;fill-rule:nonzero;stroke:none;stroke-width:1.33333"
       id="path283442" /><path
       d="m 166.40786,352.36173 c -13.788,1.07867 -41.09141,2.2892 -47.41674,2.93187 l 0.10802,1.98448 c 0,0 0.60202,20.67247 0.81871,42.72192 h 24.39935 c 0.988,-22.69334 5.00266,-38.22227 22.09066,-47.63827"
       style="opacity:0.199997;fill:#000000;fill-opacity:1;fill-rule:nonzero;stroke:none;stroke-width:1.33333"
       id="path283476"
       sodipodi:nodetypes="cccccc" /><path
       d="m 176.58986,354.74787 c 4.16667,0 9.35734,-0.596 13.644,0.0787 5.37734,0.84667 11.252,3.16667 16.60533,4.57467 4.82,1.268 9.93067,2.93733 14.808,3.392 5.33067,0.49867 9.59734,2.552 14.85067,3.85867 8.92667,2.22133 17.712,4.61733 26.58,6.37466 8.95333,1.77334 15.488,5.63467 23.57333,-0.756 3.796,-3 7.37067,-6.68933 11.23867,-9.76933 4.53067,-3.608 9.28533,-5.48267 14.72,-7.296 2.20133,-0.73467 4.416,-1.43333 6.60533,-2.20267 0.876,-0.308 3.648,-1.972 4.492,-1.81466 -7.468,-1.384 -28.83466,-2.71067 -36.684,-3.816 -9.848,-1.38534 -19.03066,-1.24534 -28.98933,-1.02 -11.48,0.25866 -22.93067,1.90933 -34.412,2.456 -11.78133,0.56266 -23.61333,0.036 -35.392,0.34266 -3.44266,0.0893 -9.14133,-0.50533 -11.648,1.39067 -4.23733,3.20533 1.11067,3.74133 0.008,4.20667"
       style="opacity:0.199997;fill:#000000;fill-opacity:1;fill-rule:nonzero;stroke:none;stroke-width:1.33333"
       id="path283492" /><path
       id="path283350"
       style="fill:#700000;fill-opacity:1;fill-rule:nonzero;stroke:none;stroke-width:1.33333"
       d="m 181.8125,224.46289 c -14.34653,6.44949 -26.45646,10.66797 -50.14844,24.25195 -16.34719,4.40719 -44.527641,13.60251 -56.769857,17.48963 -12.242216,3.88712 -16.062852,6.10028 -19.564317,8.22657 -13.770242,16.45254 -14.430791,36.59407 -17.400319,53.39054 -2.121333,11.89197 -2.523282,23.3537 -4.052614,37.84834 -1.99309,13.07597 -2.627226,24.69107 -1.937511,34.29686 H 383.91992 c -1.24839,-5.10449 -3.23029,-10.14052 -3.66362,-12.3086 -0.43333,-2.16808 0.0829,-4.2709 -0.30294,-7.96488 -0.38578,-3.69398 -0.28572,-5.48083 -0.22875,-11.01363 0.057,-5.5328 1.21884,-17.81157 -1.0625,-25.49024 -1.22133,-4.10532 -3.55415,-13.66091 -4.77149,-17.76757 -4.57179,-18.13193 -5.00405,-34.08241 -13.38704,-48.80626 -0.46375,-0.81451 -3.38589,-3.83976 -5.80235,-3.40344 -2.3941,0.43229 -5.46297,3.61522 -6.2916,3.19369 -3.16137,-1.60826 -6.22937,-1.87321 -12.15182,-4.08521 -9.04161,-3.37698 -21.74469,-9.77034 -34.15039,-11.20933 -5.24833,-0.67437 -13.24175,-7.73496 -17.09375,-9.26563 -4.10259,-3.17145 -3.03089,-1.02332 -7.12695,-5.58984 0,0 0.36395,0.8192 1.75195,4.50586 0.85333,2.26934 2.54604,5.05155 2.72071,7.43555 0.21332,2.88933 0.32897,6.6699 -0.32969,9.45523 -0.71334,3.00932 -5.03431,11.59799 -11.19148,14.1636 -6.15718,2.5656 -11.22536,1.24199 -16.47957,-0.51838 -5.25421,-1.76036 -16.20044,-8.46764 -16.20044,-8.46764 -18.12575,-9.08076 -28.3466,-16.04352 -39.86914,-25.81641 -2.76799,-2.37867 -6.10678,-7.24051 -8.05078,-9.58984 -1.94267,-2.34934 -3.50838,-4.5937 -4.76172,-6.70703 -4.14265,-6.31866 -3.66406,1.74608 -3.66406,-6.25391 z"
       sodipodi:nodetypes="cczccccczzzccsssscccccczzcccccc" /><path
       id="path283466"
       style="fill:#000000;fill-opacity:1;fill-rule:nonzero;stroke:none;stroke-width:1.33333"
       d="m 197.77148,196.28516 c -0.26366,0.0623 -0.51022,0.19708 -0.71289,0.39843 -6.70011,8.84517 -9.63584,15.05646 -15.15039,25.17188 -1.29333,0.0667 -4.56224,2.45161 -5.6289,3.09961 -1.47333,0.896 -4.02844,2.26358 -8.73438,4.4082 -4.70592,2.14462 -12.46305,6.36176 -21.5957,10.50195 -9.13265,4.1402 -17.97775,6.15144 -29.99024,10.17188 -12.3562,3.70052 -36.800627,13.25458 -46.025386,14.99609 -3.575653,1.58051 -6.535589,4.89496 -10.011719,5.52149 -5.151152,0.85743 -9.431932,5.06604 -11.296875,8.34179 -3.672433,6.4506 -11.524188,31.12842 -13.017465,41.93716 -2.479499,17.94729 -4.573654,35.57581 -5.503101,49.9676 -1.066289,10.21918 -0.39516,20.99978 -0.741153,29.19876 h 4.427735 c 0.05892,-25.92279 4.053081,-55.48179 7.054687,-78.10156 2.220857,-17.52981 7.716523,-30.27922 10.921071,-37.07985 3.160687,-6.70754 5.84877,-9.35487 8.875804,-9.37328 6.302821,-0.0383 15.053298,3.62582 18.16211,6.17578 3.130045,2.81104 10.560948,8.55013 13.099609,11.2168 -3.599341,-6.23423 -7.081667,-10.63252 -12.03125,-15.25 -5.483197,-3.3559 -9.016333,-4.98036 -9.894531,-5.41406 -1.581195,-0.78087 -0.77031,-2.82739 2.193359,-4.12891 0.376941,-0.16554 3.401595,-0.54866 5.236328,-1.07617 8.538975,-2.45508 27.934267,-8.05975 32.318357,-9.65234 7.05597,-2.5632 20.61945,-5.91788 28.88086,-8.82032 8.2614,-2.90243 12.88737,-5.68053 18.28516,-8.47461 5.39779,-2.79406 13.44505,-6.45282 17.65625,-9.25 4.21118,-2.79716 6.49769,-2.6775 8.26172,0.41797 2.95598,5.78533 8.94973,12.2029 13.29883,16.95899 4.34908,4.75607 11.87994,9.70344 15.9746,12.52344 7.89657,5.55323 12.95908,8.52546 21.91797,13.68945 8.95889,5.16398 16.76079,8.39219 23.56836,9.62695 6.80758,1.23477 12.1414,0.92301 18.9043,-4.18555 6.7629,-5.10855 9.98907,-19.44739 3.90039,-28.83398 -0.1261,-0.1944 -0.3466,-0.68551 -0.52539,-1.01758 0.30905,0.19623 4.92759,3.13141 7.94727,5.30274 3.12137,2.24445 7.50313,7.10956 10.50781,8.13671 16.65063,3.90377 26.95722,7.00348 42.03515,11.86329 2.16921,0.8464 7.44566,2.38956 8.28442,2.59147 0.35506,0.0855 4.80425,1.4301 4.80425,1.4301 0.13692,-0.15464 -1.99506,-1.90673 -2.87916,-2.76849 2.81596,-2.89467 6.55054,-1.71568 8.01901,-0.85265 1.46847,0.86299 3.70494,4.62785 5.64871,10.63028 1.94378,6.00243 8.53418,31.61646 9.98672,42.20405 1.45255,10.58758 2.91188,20.88835 2.88605,31.49184 0.29671,8.52373 1.09587,17.04658 1.39258,25.57031 1.37118,5.60381 3.45703,10.28906 3.45703,10.28906 -0.55333,-4.43199 -0.21868,-17.9944 -0.29492,-22.78515 -0.0762,-4.79076 -0.15008,-5.17312 -0.49219,-15.28516 -0.34212,-10.11204 -1.37516,-20.84042 -3.52734,-33.34961 -2.15218,-12.50919 -5.41666,-24.24092 -9.19336,-36.39453 -2.18992,-6.86149 -3.70132,-11.17857 -5.85156,-13.70898 -2.15024,-2.53042 -3.45393,-2.65542 -5.51563,-3.00782 -2.06169,-0.3524 -4.39981,0.28217 -6.18554,1.00196 -1.05251,0.42424 -2.3206,1.35941 -3.22852,2.08398 -14.68748,-5.90938 -32.70536,-11.08358 -48.24414,-14.64844 -7.14606,-5.82468 -12.73915,-9.59987 -20.99805,-14.09961 0.14985,-0.42649 0.48002,-0.81962 0.6836,-1.20703 1.3,-2.49331 -2.34652,-5.72892 -3.11719,-7.90625 l -2.51563,-4.48047 c -0.30533,0.392 -0.46298,0.86665 -0.68164,1.30665 -1.05734,2.11998 -2.21745,4.26006 -3.46679,6.30273 -1.17733,1.928 -2.30611,4.27181 -4.37305,5.29297 -2.06694,1.02115 -4.11536,0.77478 -7.81445,0.36133 -3.6991,-0.41344 -9.70985,-1.84826 -14.15235,-3.48438 -30.02244,-11.05693 -43.18076,-43.01698 -43,-43.42969 l 0.80469,-1.83789 c -0.27333,-0.0907 -1.84865,-0.23556 -2.22461,-0.25 z m -0.49218,5.61523 c 0.69999,0.144 0.81292,0.93283 1.04492,1.54883 0.444,1.17333 0.91044,2.33496 1.39844,3.48828 1.86412,2.63672 2.30388,3.79133 4.53711,6.47266 5.26002,6.73779 9.89384,11.26343 15.53515,16.96875 7.51939,6.39646 14.98085,11.70312 23.77149,14.92578 4.12132,1.512 8.53782,2.82641 12.89648,3.34375 4.81653,0.49541 6.63549,0.49153 9.23828,-0.0625 2.60279,-0.55403 4.79066,-3.90693 5.53321,-5.38282 0.74254,-1.47588 1.16425,-2.05695 1.9082,-3.39648 1.39867,3.856 3.50919,7.96241 5.11719,12.15039 1.60931,4.188 2.62552,10.67351 0.40234,16.14258 -2.22318,5.46907 -3.91494,8.24976 -9.77149,9.89062 -5.85654,1.64087 -13.74604,1.27699 -16.53124,0.11719 -2.78521,-1.15979 -9.27349,-3.74542 -15.87891,-6.99609 -6.60543,-3.25068 -28.03231,-17.66893 -32.1582,-21.23438 -4.1259,-3.56543 -10.26108,-9.84706 -12.70508,-12.90039 -2.444,-3.05198 -6.28742,-8.95629 -7.96875,-11.84961 3.04447,-5.77508 10.44213,-18.30994 13.63086,-23.22656 z"
       sodipodi:nodetypes="ccccsscccssccccsscccssssssscscsssscsccsscszzcccsszcsssccccccccssscccccccccccssccsssssccc" /><path
       style="color:#000000;fill:#000000;fill-opacity:0.3;-inkscape-stroke:none"
       d="m 185.89844,234.82031 c 0,0 -6.37323,3.88784 -21.1875,10.35547 -14.7654,6.4463 -62.13167,24.11967 -66.996096,25.78711 -4.892056,1.67691 -9.556638,2.07666 -12.279297,4.11523 -2.715104,2.03293 -3.88086,6.01954 -3.88086,6.01954 l 1.429688,0.45117 c 0,0 1.262095,-3.70652 3.349609,-5.26953 2.07996,-1.55736 7.205199,-1.90639 12.2851,-3.64769 5.107516,-1.75077 51.688986,-19.23233 66.609836,-25.7465 14.87198,-6.49283 21.45077,-10.78355 21.45077,-10.78355 z"
       id="path21830"
       sodipodi:nodetypes="csssccssscc" /><path
       style="fill:#000000;fill-opacity:1;stroke:none;stroke-width:1px;stroke-linecap:butt;stroke-linejoin:miter;stroke-opacity:1"
       d="m 258.62884,278.01418 6.14657,15.13003 c 0,0 -107.82841,35.12682 -110.19908,36.67866 -2.37067,1.55184 -2.14404,1.81548 -1.89125,4.25532 C 152.93787,336.51803 176.83215,400 176.83215,400 h -15.13002 c 0,0 -26.96588,-67.36839 -27.45677,-70.17713 -0.49089,-2.80874 -0.48881,-5.00688 1.89126,-7.56501 2.38007,-2.55813 122.49222,-44.24368 122.49222,-44.24368 z"
       id="path21855"
       sodipodi:nodetypes="cczzcczzc" /><path
       style="color:#000000;fill:#000000;fill-opacity:0.3;-inkscape-stroke:none"
       d="m 264.83008,292.29687 -1.41992,0.48243 c 0,0 7.66908,22.59836 15.49414,46.07812 3.91253,11.73988 7.8636,23.70111 10.91406,33.16406 1.52523,4.73148 1.98904,8.3367 2.94543,11.47703 0.95639,3.14033 1.91102,5.87051 2.04527,6.62844 0.6174,3.48574 0.40248,5.90265 0.3727,7.43164 -0.0298,1.529 -0.52574,2.44141 -0.52574,2.44141 h 2.61937 c 0,0 0.21028,-0.77369 0.24219,-2.41211 0.0319,-1.63842 -0.0981,-4.15265 -0.73047,-7.72266 -0.17819,-1.006 -0.7914,-3.14873 -1.75195,-6.30273 -0.96056,-3.154 -2.26242,-7.2661 -3.78907,-12.00195 -3.05328,-9.4717 -7.0046,-21.43535 -10.91797,-33.17774 -7.82672,-23.48477 -15.49804,-46.08594 -15.49804,-46.08594 z"
       id="path21857"
       sodipodi:nodetypes="ccsssssccsssssc" /><path
       style="fill:#000000;fill-opacity:1;stroke:none;stroke-width:1px;stroke-linecap:butt;stroke-linejoin:miter;stroke-opacity:1"
       d="m 353.13761,281.38153 c 0,0 3.2392,8.06364 4.31234,12.8997 4.39558,19.80831 16.28738,71.75622 20.32783,86.80624 5.0269,18.72437 5.67376,18.91253 5.67376,18.91253 h -5.67376 c 0,0 -10.26416,-42.33581 -14.12704,-60.79706 -2.98889,-14.28431 -6.08769,-38.40725 -8.21029,-48.23852 -0.65273,-3.02326 -2.30284,-9.58289 -2.30284,-9.58289 z"
       id="path21859"
       sodipodi:nodetypes="cssccssc" /><path
       id="path21908"
       style="color:#000000;fill:#000000;-inkscape-stroke:none;fill-opacity:0.30000001"
       d="m 266.9707,251.30469 c 0,0 -0.7086,5.86103 -0.95919,8.88371 -0.25059,3.02268 -0.50257,9.21059 -0.50257,9.21059 l 0.6908,0.0156 c 0,0 1.13836,-6.03672 1.23483,-9.06312 0.10133,-3.17917 0.22889,-8.99134 0.22889,-8.99134 z m -7.14076,0.66851 c 0,0 -1.5412,7.21199 -2.01483,10.27677 -0.47363,3.06478 -0.91055,9.95071 -0.91055,9.95071 l 0.51387,0.17937 c 0,0 1.42456,-6.70245 1.89819,-9.7669 0.47363,-3.06445 1.23615,-10.54222 1.23615,-10.54222 z m -9.97694,-1.10326 c 0,0 -1.9772,6.5995 -2.67381,9.83159 -0.69662,3.2321 -1.54767,9.97891 -1.54767,9.97891 l 0.74313,0.16917 c 0,0 1.72643,-6.45831 2.42305,-9.69008 0.69662,-3.23177 1.71485,-10.16025 1.71485,-10.16025 z m -9.67612,-3.24885 c 0,0 -2.52645,6.74217 -3.50171,10.02961 -0.97526,3.28743 -2.43345,9.98754 -2.43345,9.98754 l 0.70603,0.15241 c 0,0 2.41364,-6.4172 3.38858,-9.70496 0.97493,-3.28776 2.46103,-10.27236 2.46103,-10.27236 z m -8.07739,-3.76528 c 0,0 -2.80786,5.32712 -4.03377,8.3919 -1.22591,3.06478 -3.53065,9.99678 -3.53065,9.99678 l 0.64547,0.28248 c 0,0 3.13921,-6.907 4.36512,-9.97145 1.22592,-3.06446 3.19931,-8.45706 3.19931,-8.45706 z m -8.51516,-5.45778 c 0,0 -2.86463,5.76482 -4.11821,8.66228 -1.25358,2.89746 -3.11073,8.97324 -3.11073,8.97324 l 0.62203,0.33522 c 0,0 2.68347,-5.56724 3.93738,-8.46503 1.25391,-2.89779 3.25173,-9.08886 3.25173,-9.08886 z m -6.82583,-6.28754 c 0,0 -3.79673,5.7165 -5.38462,8.80927 -1.58789,3.09277 -4.35168,9.70559 -4.35168,9.70559 l 0.60915,0.4524 c 0,0 3.80521,-5.90172 5.3931,-8.99417 1.58789,-3.09245 4.42678,-9.56051 4.42678,-9.56051 z m -6.6418,-6.65156 c 0,0 -3.56071,5.4372 -5.19233,8.43995 -1.63162,3.00275 -4.50138,9.57214 -4.50138,9.57214 l 0.85208,0.42624 c 0,0 3.55333,-5.73256 5.16316,-8.74363 1.60983,-3.01106 4.49071,-9.31025 4.49071,-9.31025 z m -6.12067,-8.14529 c 0,0 -3.5059,5.70083 -5.23344,8.68195 -1.72754,2.98112 -5.00641,9.49731 -5.00641,9.49731 l 0.64389,0.54421 c 0,0 4.90264,-7.52269 5.76641,-9.01325 0.86377,-1.49056 4.51524,-9.24959 4.51524,-9.24959 z m -6.39967,-8.30781 c 0,0 -3.58388,5.39095 -5.19969,8.09342 -1.61581,2.70248 -4.70412,8.79008 -4.70412,8.79008 l 0.69351,0.40126 c 0,0 3.51544,-4.98266 5.04799,-7.68513 1.53256,-2.70248 4.64881,-9.1148 4.64881,-9.1148 z"
       sodipodi:nodetypes="csccscccsccscccsccscccsccscccsccscccsccscccsccscccsccscccsccscccsccscc" /><path
       style="fill:#000000;fill-opacity:1;stroke:none;stroke-width:1px;stroke-linecap:butt;stroke-linejoin:miter;stroke-opacity:1"
       d="m 102.60047,316.31206 c 0,0 9.46636,34.29124 11.82033,48.22695 C 116.77477,378.47472 117.7305,400 117.7305,400 h 8.03782 c 0,0 -2.18323,-23.23364 -5.20094,-37.35225 -3.01771,-14.11861 -17.96691,-46.33569 -17.96691,-46.33569 z"
       id="path24240"
       sodipodi:nodetypes="czcczc" /><path
       style="fill:#000000;fill-opacity:0.30000001;stroke:none;stroke-width:1px;stroke-linecap:butt;stroke-linejoin:miter;stroke-opacity:1"
       d="m 49.352415,298.6744 c -0.688484,-1.07825 -0.513741,-3.03237 0.04056,-5.08418 0.554302,-2.05181 1.72176,-4.20024 4.434065,-6.0669 2.712305,-1.86666 6.669729,-3.8752 11.367201,-3.51045 4.697472,0.36475 10.943366,4.1646 14.710496,7.18808 3.76713,3.02348 6.240433,6.35629 7.856742,9.86272 1.616309,3.50643 2.129148,7.8232 2.005977,10.36421 -0.123171,2.54101 -0.432545,3.61049 -1.337318,4.51345 -0.904773,0.90296 -1.20656,1.42397 -2.8418,0.83582 -1.63524,-0.58815 -3.677624,-5.51643 -4.179119,-6.18509 -0.501495,-0.66866 -4.427,-6.18115 -7.522412,-8.69257 -3.095412,-2.51142 -9.528389,-5.85076 -10.865707,-6.01793 -1.337318,-0.16717 -4.290868,-0.0496 -6.132654,0.87464 -1.841786,0.92425 -3.734014,3.17918 -4.900218,3.30448 -1.166204,0.1253 -1.94733,-0.30803 -2.635814,-1.38628 z"
       id="path26498"
       sodipodi:nodetypes="zzzzzzzzzzzzzzz" /><path
       style="fill:#d30000;fill-opacity:1;stroke:none;stroke-width:2.5;stroke-linecap:butt;stroke-linejoin:miter;stroke-dasharray:none;stroke-opacity:1"
       d="m 128.42639,243.87868 c 3.31159,0.30575 13.52085,7.60872 19.60492,15.37786 6.08407,7.76913 10.49421,13.56691 17.02616,23.50208 6.53195,9.93517 10.77681,20.19577 14.71264,28.96552 3.93583,8.76975 10.25924,25.57593 10.25924,25.57593 l -28.38755,10.11495 c 0,0 -5.92354,-17.31296 -9.91766,-26.03571 -3.99412,-8.72275 -8.66645,-18.10084 -15.63219,-28.04598 -6.96574,-9.94514 -20.64642,-26.34932 -26.54846,-29.74076 -5.90203,-3.39144 -8.16404,-3.2584 -10.917909,-4.68738 -2.753871,-1.42898 -3.540098,-4.09729 -1.034483,-5.28736 2.505612,-1.19007 6.923592,-1.69745 10.323832,-3.20816 3.40024,-1.51071 10.4532,-3.36444 13.27008,-4.57696 2.81688,-1.21252 3.92979,-2.25977 7.24138,-1.95403 z"
       id="path25547"
       sodipodi:nodetypes="zzzzcczzzzzzzz" /><path
       style="color:#000000;fill:#000000;-inkscape-stroke:none"
       d="m 128.57557,242.52738 c -1.79866,-0.16606 -3.15846,0.0507 -4.34375,0.47656 -1.1853,0.42582 -2.16451,0.996 -3.50781,1.57422 -3.19353,1.37465 -8.87764,3.31221 -11.97888,4.69008 -1.62827,0.72343 -3.60367,1.67245 -5.51562,2.21484 -1.93357,0.54853 -4.956634,0.50591 -6.197738,1.88095 -0.948094,1.05041 -1.412068,2.16108 -1.181641,3.48039 0.230428,1.31932 0.724762,2.13557 2.051132,3.07949 1.649352,1.17378 4.215567,1.68565 7.615237,3.00977 3.39967,1.32412 7.68527,4.66188 11.80302,8.07896 8.30103,6.88855 10.83245,13.16346 17.74884,23.03814 6.90458,9.85782 11.53785,19.15402 15.51953,27.84961 3.92139,8.56392 10.01505,25.93291 10.01505,25.93291 l 0.38868,1.24023 30.91015,-10.96875 -0.42187,-1.18164 c 0,0 -6.59091,-16.84468 -10.56974,-25.71025 -3.92417,-8.74376 -8.31439,-19.55589 -14.8086,-29.14062 -6.72721,-9.92862 -9.78112,-13.90628 -17.63768,-23.32051 -3.82259,-4.58046 -8.66609,-9.09131 -13.41808,-12.53878 -2.40166,-1.63968 -5.299,-3.58361 -6.47023,-3.6856 z m -0.23047,2.49023 c 1.31426,0.22427 4.22051,2.48784 5.23195,3.2188 4.66276,3.38274 9.56965,7.76662 13.19347,12.35324 7.26664,9.19731 9.88561,13.52461 16.77034,23.09207 6.80609,9.45817 11.14056,19.75889 15.08805,28.55461 3.62118,8.06866 9.40834,22.54223 10.06193,24.35478 l -26.10743,9.26367 c -0.59697,-1.89752 -5.94334,-16.74302 -9.72208,-24.99541 -4.00655,-8.74989 -8.71921,-18.20974 -15.7461,-28.24218 -7.01507,-10.01558 -9.49603,-16.30545 -18.2,-23.52837 -4.38475,-3.63865 -6.94167,-5.43291 -12.49248,-8.48522 -3.33347,-1.83303 -6.02686,-2.28428 -6.717658,-2.7759 -1.909522,-1.38515 -1.257499,-2.06882 -0.373398,-3.12782 0.438827,-0.54282 3.077376,-0.28098 4.866566,-0.91211 1.74902,-0.61696 3.78858,-1.44905 5.56055,-2.23633 3.69923,-1.64355 9.51325,-3.62601 11.95348,-4.6764 1.47357,-0.6343 2.46196,-1.19503 3.36523,-1.51954 0.90327,-0.3245 1.95332,-0.56216 3.26758,-0.33789 z"
       id="path25549"
       sodipodi:nodetypes="csssssssssssccccssscczcsssccssssccssssz" /><path
       id="path38359"
       style="fill:#aaaaaa;fill-opacity:1;stroke:#000000;stroke-width:1px;stroke-linecap:butt;stroke-linejoin:miter;stroke-opacity:1"
       d="m 179.68095,324.08342 c -1.06024,-0.52429 -17.93108,6.55897 -18.20508,7.3164 -0.274,0.75743 2.73997,7.75028 3.57618,8.28907 0.83621,0.53879 18.3895,-5.52506 18.69336,-6.66407 0.30386,-1.13901 -3.00422,-8.41711 -4.06446,-8.9414 z m -1.13672,4.71484 0.97461,2.27539 c -4.30739,2.11331 -8.77734,3.90151 -13.16601,4.87695 l -0.89453,-1.95117 c 4.0867,-2.28605 7.7308,-3.7985 13.08593,-5.20117 z"
       sodipodi:nodetypes="zzzzzccccc" /><path
       style="fill:#aaaaaa;fill-opacity:1;stroke:#000000;stroke-width:1px;stroke-linecap:butt;stroke-linejoin:miter;stroke-opacity:1"
       d="m 167.9496,326.25296 5.44554,12.43532 c 1.43588,0 2.70922,-0.48766 4.06383,-1.46298 l -5.44554,-12.67915 c -1.67971,0 -2.95305,0.48766 -4.06383,1.70681 z"
       id="path38364"
       sodipodi:nodetypes="ccccc" /><path
       style="color:#000000;fill:#000000;fill-opacity:0.3;-inkscape-stroke:none"
       d="m 119.84214,364.55343 -0.71875,1.3164 c 0,0 3.83424,2.09541 8.10742,4.61524 4.27319,2.51982 9.04427,5.54036 10.64454,7.08789 0.62144,0.60097 1.58709,2.68663 2.40625,5.33594 0.81915,2.64931 1.59138,5.89535 2.2539,9.03711 1.32504,6.28352 1.87661,8.05399 1.87661,8.05399 h 1.48242 c 0,0 -0.55616,-2.02677 -1.89223,-8.36259 -0.66803,-3.16791 -1.44657,-6.44511 -2.28906,-9.16992 -0.8425,-2.72481 -1.64835,-4.86393 -2.79688,-5.97461 -1.93968,-1.87576 -6.62574,-4.76627 -10.92383,-7.30078 -4.29808,-2.53451 -8.15039,-4.63867 -8.15039,-4.63867 z"
       id="path29505"
       sodipodi:nodetypes="ccssssccssssc" /><path
       style="fill:#000000;fill-opacity:0.2;stroke:none;stroke-width:1px;stroke-linecap:butt;stroke-linejoin:miter;stroke-opacity:1"
       d="m 111.34752,337.58865 c 0,0 13.12777,17.95298 18.20331,28.3688 5.07554,10.41582 9.21986,33.56974 9.21986,33.56974 L 121.98582,400 c 0,0 -6.14658,-41.37116 -6.14658,-43.26241 0,-1.89125 -4.49172,-19.14894 -4.49172,-19.14894 z"
       id="path29511"
       sodipodi:nodetypes="czccsc" /><path
       style="fill:#000000;fill-opacity:0.3;stroke:none;stroke-width:1px;stroke-linecap:butt;stroke-linejoin:miter;stroke-opacity:1"
       d="m 358.86525,305.91017 c 8.12387,20.67486 13.40593,38.17359 19.85815,60.52009 v 26.00473 l -9.92907,-36.40662 z"
       id="path30301"
       sodipodi:nodetypes="ccccc" /><path
       id="path283392"
       style="opacity:0.199997;fill:#000000;fill-opacity:1;fill-rule:nonzero;stroke:none;stroke-width:1.33333"
       d="m 180.33398,226.48242 c -6.75331,2.5483 -20.44531,9.98303 -46.17039,20.50461 -0.86986,-1.60223 -5.85286,-3.93094 -7.20145,-3.42863 -9.96586,3.71203 -21.47291,8.67591 -29.156046,11.45971 -1.179509,0.42736 3.312306,3.34368 2.126845,3.78534 -7.359397,2.74186 -14.854637,5.77719 -22.747392,9.32936 -6.938987,2.88838 -18.859678,4.37771 -21.763672,6.98438 -9.815573,11.62158 -9.894683,21.50278 -14.791016,40.0039 -3.949405,17.25625 -5.045932,35.59438 -6.632812,50.42774 -1.107998,6.50531 -0.9967,8.39859 -2.472656,17.39258 0.117676,5.33143 -0.859205,8.65654 -0.283203,11.86718 l 0.240234,0.47852 c 0.446664,2.49334 1.181016,2.08502 1.541016,4.67969 h 20.166015 c 0.196,-3.43334 -0.167174,-7.00222 -0.08984,-10.29688 0.04199,-1.77404 0.234596,-3.53043 0.482422,-5.28125 0.403551,-0.46383 0.8225,-0.9337 1.263672,-1.41015 7.254668,-7.8348 23.254255,-27.69123 26.951172,-36.40625 3.696917,-8.71504 4.563857,-8.99241 1.890625,-11.34766 -2.673232,-2.35525 -3.582562,-0.75698 -9.455078,2.83594 -3.62835,2.21988 -8.837336,7.53117 -13.671875,13.01367 1.146701,-3.62844 2.455856,-7.18804 3.972656,-10.64844 5.682611,-10.91969 7.045428,-14.96299 12.228516,-24.2539 8.061605,-9.83474 8.679791,-10.66471 17.27539,-16.04688 9.830757,-5.05829 15.434227,-7.809 26.708977,-12.52148 2.85354,-1.1681 5.81327,-2.28368 8.83793,-3.34846 0.53889,-0.18971 -0.22039,-1.67805 0.32239,-1.86454 9.2876,-3.19109 19.81957,-6.2675 29.00844,-8.56881 0.42511,-0.12111 1.43849,1.41407 1.85812,1.29584 2.37054,-0.66789 4.65357,-1.28982 6.85008,-1.86755 28.43461,-7.48132 48.85937,-10.78906 48.85937,-10.78906 0,0 -11.6024,-5.51699 -20.87304,-16.6543 -3.08933,-3.71334 -5.02724,-4.51077 -7.25391,-8.99609 -2.228,-4.484 -3.54361,-5.33151 -8.02149,-10.32813 z m -87.267574,128.1543 c -2.814002,-0.0777 -6.610819,5.1472 -11.550781,12.05078 C 76.246332,374.05132 66.666016,400 66.666016,400 h 21.277343 c 0,0 6.295585,-20.76707 6.925782,-28.61719 0.630196,-7.85012 1.610373,-15.80403 -1.251953,-16.6582 -0.178896,-0.0534 -0.363182,-0.0827 -0.550782,-0.0879 z"
       sodipodi:nodetypes="scssscccccccccccsssscccccsscscccccssccsssss" /><g
       id="g35941"><path
         style="color:#000000;fill:#d9a14b;stroke:#000000;stroke-width:1.47163;stroke-miterlimit:9;stroke-dasharray:none;stroke-opacity:1"
         d="m 301.35832,325.04555 c -4.07339,0.47152 -6.59818,3.97812 -5.57291,7.80332 l 1.31466,4.90489 c 1.01436,3.78456 5.11991,6.32195 9.10385,5.69119 l 43.03941,-6.81427 c 3.19673,-0.50611 5.12876,-3.60397 4.3553,-6.93542 l -1.00175,-4.31477 c -0.78072,-3.36277 -4.02477,-5.80012 -7.28551,-5.42269 z m 0.4066,1.5439 43.87605,-5.23401 c 2.5471,-0.30385 5.04508,1.56196 5.65866,4.19557 l 1.00843,4.32833 c 0.60839,2.61136 -0.88294,4.99179 -3.38823,5.37958 l -43.11418,6.67373 c -3.11131,0.4816 -6.24743,-1.47023 -7.03418,-4.41728 l -1.30479,-4.88752 c -0.79436,-2.97556 1.12885,-5.66032 4.29824,-6.0384 z"
         id="path34684" /><path
         id="rect18996"
         style="fill:#fbeacf;stroke-width:0.195371;stroke-miterlimit:9"
         d="m 301.56156,325.81809 43.91495,-5.16102 c 2.90394,-0.34127 5.77507,1.80959 6.47249,4.80827 l 1.0051,4.32163 c 0.69122,2.97205 -1.02062,5.71171 -3.87222,6.15816 l -43.07718,6.74412 c -3.54761,0.55542 -7.16693,-1.69004 -8.06709,-5.05521 l -1.30973,-4.89627 c -0.90934,-3.39952 1.31314,-6.49419 4.93368,-6.91968 z" /><path
         style="color:#000000;fill:#d9a14b;stroke:#000000;stroke-width:0.440392;stroke-miterlimit:9;stroke-opacity:1;-inkscape-stroke:none"
         d="m 301.35832,325.04555 c -4.07339,0.47152 -6.59818,3.97812 -5.57291,7.80332 l 1.31466,4.90489 c 1.01436,3.78456 5.11991,6.32195 9.10385,5.69119 l 43.03941,-6.81427 c 3.19673,-0.50611 5.12876,-3.60397 4.3553,-6.93542 l -1.00175,-4.31477 c -0.78072,-3.36277 -4.02477,-5.80012 -7.28551,-5.42269 z m 0.4066,1.5439 43.87605,-5.23401 c 2.5471,-0.30385 5.04508,1.56196 5.65866,4.19557 l 1.00843,4.32833 c 0.60839,2.61136 -0.88294,4.99179 -3.38823,5.37958 l -43.11418,6.67373 c -3.11131,0.4816 -6.24743,-1.47023 -7.03418,-4.41728 l -1.30479,-4.88752 c -0.79436,-2.97556 1.12885,-5.66032 4.29824,-6.0384 z"
         id="rect18998" /><path
         id="rect21363"
         style="fill:#d5def1;fill-opacity:1;stroke:#000000;stroke-width:0.348751;stroke-miterlimit:9;stroke-dasharray:none;stroke-opacity:1"
         d="m 304.27734,329.92843 c 2.11999,0.28342 3.91537,1.80672 4.41848,3.73375 0.49823,1.92844 -0.41334,3.81313 -2.24473,4.62632 l 39.60651,-5.8154 c -1.76261,-0.24128 -3.28347,-1.63881 -3.7134,-3.42505 -0.42449,-1.79051 0.35522,-3.51313 1.90112,-4.21257 z" /><path
         id="path21425"
         style="fill:#d9a14b;stroke:#000000;stroke-width:0.308275;stroke-miterlimit:9"
         d="m 347.96248,323.58415 c 0.12836,0.54677 -0.19081,1.04393 -0.71401,1.1109 -0.52456,0.0671 -1.05579,-0.32327 -1.18537,-0.87253 -0.12967,-0.54963 0.19239,-1.04799 0.71819,-1.11265 0.52444,-0.0645 1.05277,0.32715 1.18119,0.87428 z" /><path
         style="fill:#d9a14b;fill-opacity:1;stroke:#000000;stroke-width:0.352314;stroke-linecap:butt;stroke-linejoin:miter;stroke-dasharray:none;stroke-opacity:1"
         d="m 300.62931,334.01946 7.74311,-1.49067 33.72924,-4.53558 6.8702,-0.52256 0.35247,1.15498 -6.75081,1.34232 -33.6464,4.69211 -7.95284,0.65998 z"
         id="path21495" /><path
         id="path21497"
         style="fill:#d9a14b;fill-opacity:1;stroke:#000000;stroke-width:0.784871;stroke-miterlimit:9;stroke-dasharray:none;stroke-opacity:1"
         d="m 322.77553,316.71454 c -8.73229,0.8916 -14.23996,8.73165 -11.99596,17.39413 2.22036,8.57145 11.07974,14.21264 19.49929,12.73549 8.09597,-1.42035 12.89265,-8.9624 10.97409,-16.96486 -1.93747,-8.08156 -10.08688,-14.02151 -18.47742,-13.16476 z m 0.66654,2.67648 c 6.92654,-0.75144 13.70022,4.1312 15.31797,10.83427 1.60473,6.64885 -2.40038,12.89475 -9.12546,14.03178 -6.94683,1.17458 -14.20475,-3.50522 -16.01477,-10.5426 -1.82574,-7.09826 2.66375,-13.5469 9.82226,-14.32345 z" /><path
         style="fill:#d9a14b;fill-opacity:1;stroke:#000000;stroke-width:0.880786;stroke-linecap:butt;stroke-linejoin:miter;stroke-dasharray:none;stroke-opacity:1"
         d="m 319.19614,352.8968 c -2.11073,-13.57764 -1.62198,-27.54217 2.92681,-39.20336 8.57676,9.86592 14.63978,20.13923 19.50008,31.38182 0,0 -6.33051,-8.66554 -9.30923,-8.24538 -5.45056,0.65516 -13.11766,16.06692 -13.11766,16.06692 z"
         id="path21563"
         sodipodi:nodetypes="ccccc" /><path
         style="fill:#000000;fill-opacity:1;stroke:none;stroke-width:0.440392px;stroke-linecap:butt;stroke-linejoin:miter;stroke-opacity:1"
         d="m 325.231,329.62437 -1.3902,-10.76101 3.99321,10.34449 3.12506,0.70293 -2.31205,1.43726 1.01175,2.66339 -2.55368,-2.30939 -1.13056,3.19616 -0.43875,-3.19118 -2.96011,-0.87435 z"
         id="path21565" /></g><path
       style="color:#000000;fill:#000000;fill-opacity:0.3;-inkscape-stroke:none"
       d="m 259.13134,273.10547 c -2.65673,0.36824 -6.05685,0.1329 -9.7815,0.0165 -3.77934,-0.11808 -8.09233,-0.74246 -8.09233,-0.74246 0,0 5.42216,2.63348 9.18431,2.9788 3.85148,0.35353 7.70241,0.31087 10.24237,-0.37966 5.11865,-1.39158 8.79183,-6.40474 8.79183,-6.40474 0,0 -5.97057,3.92528 -10.34468,4.53154 z"
       id="path25489"
       sodipodi:nodetypes="sscsscs" /></g></svg>
