<?xml version="1.0" encoding="UTF-8" standalone="no"?>
<!-- Created with Inkscape (http://www.inkscape.org/) -->

<svg
   width="400"
   height="400"
   viewBox="0 0 400 400"
   version="1.1"
   id="svg1"
   xml:space="preserve"
   inkscape:version="1.3-alpha (95f74fb, 2023-03-31)"
   sodipodi:docname="TwokMedicalSmockFemale.svg"
   xmlns:inkscape="http://www.inkscape.org/namespaces/inkscape"
   xmlns:sodipodi="http://sodipodi.sourceforge.net/DTD/sodipodi-0.dtd"
   xmlns="http://www.w3.org/2000/svg"
   xmlns:svg="http://www.w3.org/2000/svg"><sodipodi:namedview
     id="namedview1"
     pagecolor="#ffffff"
     bordercolor="#666666"
     borderopacity="1.0"
     inkscape:showpageshadow="2"
     inkscape:pageopacity="0.0"
     inkscape:pagecheckerboard="0"
     inkscape:deskcolor="#d1d1d1"
     inkscape:document-units="px"
     inkscape:zoom="10.38"
     inkscape:cx="200"
     inkscape:cy="200.28902"
     inkscape:window-width="2128"
     inkscape:window-height="1251"
     inkscape:window-x="2075"
     inkscape:window-y="48"
     inkscape:window-maximized="0"
     inkscape:current-layer="layer2"
     showgrid="false" /><defs
     id="defs1" /><g
     inkscape:groupmode="layer"
     id="layer2"
     inkscape:label="Uniform Variant"><path
       d="m 189.5289,250.03788 c 7.67565,14.42171 11.34628,18.98304 21.50555,31.42021 l 19.2958,24.11648 c 0,0 46.26731,57.05273 57.00337,54.78506 0,0 3.72385,-37.51793 3.98324,-49.46674 0.2594,-11.94881 -5.35693,-32.49336 -6.28754,-36.01363 -0.93062,-3.52027 -7.59397,-17.35269 -8.98197,-21.03936 -1.388,-3.688 -2.46652,-4.89002 -2.46652,-4.89002 l 3.4737,-6.21588 -4.768,-8.012 -0.18534,0.152 -3.812,10.87334 -5.22533,2.25866 -3.29681,-0.30705 -3.19919,-0.53961 c -10.87333,-1.412 -25.98267,-10.59067 -35.02,-17.228 -9.03867,-6.63734 -22.10826,-29.15541 -22.10826,-29.15541 l -1.27897,-2.01644 -1.17191,1.0391 -8.31752,13.65255 c -6.57413,9.12628 -8.69607,11.66542 -6.33609,19.78531 1.25467,2.11333 1.31694,3.22871 3.26094,5.57804"
       style="fill:#d30000;fill-opacity:1;fill-rule:nonzero;stroke:none;stroke-width:1.33333"
       id="path283406"
       sodipodi:nodetypes="cccczzcccccccccccccccc" /><path
       d="m 276.07346,242.23054 c 0.33067,0.75333 0.6,1.59333 0.68267,2.78933 0.224,3.21333 -1.1,3.24933 -2.696,5.944 -2.38667,4.032 -3.48134,9.40133 -4.94667,13.80933 -0.872,-2.21866 -1.20133,-3.37733 -1.008,-5.648 0.196,-2.31333 0.44933,-4.564 1.104,-6.844 0.46533,-1.62266 3.62267,-4.36666 4.41467,-5.74133 1.59866,-2.768 0.99466,-5.07867 0.372,-8.04267 0.23866,0.32 0.43733,0.32667 0.74,0.59334 0.36,1.30533 0.90133,2.14666 1.33733,3.14"
       style="fill:#000000;fill-opacity:1;fill-rule:nonzero;stroke:none;stroke-width:1.33333"
       id="path283442" /><path
       d="m 166.40786,352.36173 c -13.788,1.07867 -41.09141,2.2892 -47.41674,2.93187 l 0.10802,1.98448 c 0,0 0.60202,20.67247 0.81871,42.72192 h 24.39935 c 0.988,-22.69334 5.00266,-38.22227 22.09066,-47.63827"
       style="opacity:0.199997;fill:#000000;fill-opacity:1;fill-rule:nonzero;stroke:none;stroke-width:1.33333"
       id="path283476"
       sodipodi:nodetypes="cccccc" /><path
       id="path283350"
       style="fill:#f3fdf9;fill-opacity:1;fill-rule:nonzero;stroke:none;stroke-width:1.33333"
       d="m 181.8125,224.46289 c 2.30181,-4.14608 7.62979,-12.92335 7.50981,-14.63368 -0.083,-1.18326 -6.48505,0.97219 -7.70068,1.4946 -2.6004,1.11751 -16.88171,21.60705 -18.26931,22.33258 -8.60812,4.50093 -17.41534,6.87496 -31.68826,15.05845 -16.34719,4.40719 -44.527641,13.60251 -56.769857,17.48963 -12.242216,3.88712 -16.062852,6.10028 -19.564317,8.22657 -13.770242,16.45254 -14.430791,36.59407 -17.400319,53.39054 -2.121333,11.89197 -2.523282,23.3537 -4.052614,37.84834 -1.99309,13.07597 -2.627226,24.69107 -1.937511,34.29686 H 383.91992 c -1.24839,-5.10449 -3.23029,-10.14052 -3.66362,-12.3086 -0.43333,-2.16808 0.0829,-4.2709 -0.30294,-7.96488 -0.38578,-3.69398 -0.28572,-5.48083 -0.22875,-11.01363 0.057,-5.5328 1.21884,-17.81157 -1.0625,-25.49024 -1.22133,-4.10532 -3.55415,-13.66091 -4.77149,-17.76757 -4.57179,-18.13193 -5.00405,-34.08241 -13.38704,-48.80626 -0.46375,-0.81451 -3.38589,-3.83976 -5.80235,-3.40344 -2.3941,0.43229 -5.46297,3.61522 -6.2916,3.19369 -3.16137,-1.60826 -6.22937,-1.87321 -12.15182,-4.08521 -9.04161,-3.37698 -21.74469,-9.77034 -34.15039,-11.20933 -5.24833,-0.67437 -13.24175,-7.73496 -17.09375,-9.26563 -4.10259,-3.17145 -3.03089,-1.02332 -7.12695,-5.58984 0,0 0.36395,0.8192 1.75195,4.50586 0.85333,2.26934 2.54604,5.05155 2.72071,7.43555 0.21332,2.88933 3.70096,14.10441 7.22701,33.95579 3.52605,19.85139 -0.91745,64.03248 -4.37712,65.82738 -3.45967,1.7949 -45.2496,-41.7817 -50.11845,-48.93706 -4.86886,-7.15535 -21.98079,-26.57939 -21.98079,-26.57939 -12.73076,-16.40253 -15.24448,-19.89708 -21.75739,-33.52354 -5.39048,-9.47349 -7.45137,-12.90057 -8.0286,-15.81801 -0.67523,-2.33263 -1.64889,-6.22709 -1.51154,-8.65953 z"
       sodipodi:nodetypes="csssczccccczzzccssssccccczzzcczc" /><path
       id="path283466"
       style="fill:#000000;fill-opacity:1;fill-rule:nonzero;stroke:none;stroke-width:1.33333"
       d="m 197.77148,196.28516 c -0.26366,0.0623 -0.51022,0.19708 -0.71289,0.39843 -2.28293,3.06185 -4.29932,6.40006 -6.25,9.78125 -1.31953,-0.002 -7.10813,0.16991 -12.41797,3.54102 -5.83372,3.70373 -9.03513,9.18368 -15.48242,20.03125 -0.70802,1.19126 -1.30291,2.35587 -1.86914,3.51172 -4.33623,2.58046 -9.09465,4.2756 -15.18554,6.60547 -6.62892,2.53563 -17.88209,5.86237 -29.89454,9.88281 -12.35612,3.70052 -36.800663,13.25458 -46.025386,14.99609 -3.575641,1.58051 -6.535601,4.89496 -10.011719,5.52149 -5.151132,0.85743 -9.43194,5.06608 -11.296875,8.34179 -3.672417,6.4506 -11.524309,31.12884 -13.017578,41.9375 -2.479491,17.94725 -4.574463,35.57509 -5.503906,49.9668 C 29.037231,381.01992 29.709274,391.80106 29.363281,400 h 4.427735 c 0.05892,-25.92267 4.053093,-55.48191 7.054687,-78.10156 2.220849,-17.52973 7.717339,-30.27949 10.921875,-37.08008 3.160675,-6.7075 5.847978,-9.35464 8.875,-9.37305 6.302797,-0.0383 15.05331,3.62586 18.16211,6.17578 3.130029,2.81104 10.560956,8.55013 13.099609,11.2168 -3.599329,-6.23419 -7.081687,-10.63252 -12.03125,-15.25 -5.483177,-3.3559 -9.016337,-4.98036 -9.894531,-5.41406 -1.581191,-0.78087 -0.770298,-2.82739 2.193359,-4.12891 0.376941,-0.16554 3.401603,-0.54866 5.236328,-1.07617 8.538943,-2.45508 27.934307,-8.05979 32.318357,-9.65234 7.05597,-2.5632 20.61949,-5.91788 28.88086,-8.82032 7.63432,-2.6821 14.39551,-5.25738 19.64844,-7.83789 -1.99336,6.68195 -2.02316,12.30602 -1.9707,15.92188 0.0448,3.08657 0.97436,11.57514 2.51172,20.43164 0.76867,4.42824 1.68979,8.89336 2.74414,12.70703 1.05432,3.81367 3.19121,11.64306 4.89257,14.39453 2.15026,3.47742 4.61767,5.54297 7.15039,7.11719 2.53275,1.57421 5.38528,2.29103 8.94727,2.51758 4.08711,0.25994 7.13505,-0.42836 10.69591,-1.32636 3.56083,-0.89798 8.37481,-1.80651 17.72596,-0.88253 5.88677,0.58166 10.41637,2.79981 17.69378,8.07063 7.29742,5.2853 13.87345,10.20479 21.39802,16.51912 14.96914,12.56146 23.66635,20.00684 27.72656,24.45312 4.06021,4.44628 8.01507,9.2048 10.8379,14.46875 1.12227,2.14355 3.2959,8.59232 5.02148,14.23828 1.72618,5.64795 3.11719,10.71094 3.11719,10.71094 h 4.12695 c 0,0 -1.67602,-6.17298 -3.41992,-11.87891 -0.7179,-2.3489 -4.14889,-14.00393 -4.43946,-23.05078 -0.18089,-5.63309 0.1032,-9.67215 1.47461,-18.0039 0.69341,-4.21257 1.62076,-10.14797 3.1543,-15.81446 1.53355,-5.66646 3.74235,-11.03048 6.53516,-13.9707 2.81559,-2.96424 6.79364,-4.38758 10.57031,-5.22266 1.88833,-0.41753 3.70366,-0.68743 5.28711,-0.96289 1.58344,-0.27546 2.88239,-0.45143 4.13867,-1.18164 1.48926,-0.86563 2.8683,-1.78493 3.74219,-3.35937 0.87389,-1.57444 1.07103,-3.46196 0.92773,-5.97852 -0.17912,-3.14571 -1.93952,-6.80114 -4.05078,-10.83789 -2.11125,-4.03671 -4.64918,-8.26741 -6.57031,-11.57812 -2.36128,-4.06927 -5.02433,-8.07114 -7.80859,-11.72657 10.2481,2.66977 18.9149,5.27198 29.92382,8.82032 2.16921,0.8464 7.4464,2.38988 8.28516,2.59179 0.35506,0.0855 4.80273,1.42969 4.80273,1.42969 0.13692,-0.15464 -1.9948,-1.90582 -2.8789,-2.76758 2.81596,-2.89463 6.55106,-1.71654 8.01953,-0.85351 1.46847,0.86299 3.70467,4.62843 5.64844,10.63086 1.94374,6.00239 8.53382,31.61557 9.98632,42.20312 1.45255,10.58754 2.91255,20.88874 2.88672,31.49219 0.29671,8.52369 1.09587,17.04662 1.39258,25.57031 1.37118,5.60381 3.45703,10.28906 3.45703,10.28906 -0.55333,-4.43195 -0.21868,-17.99444 -0.29492,-22.78515 -0.0762,-4.79076 -0.15008,-5.17316 -0.49219,-15.28516 -0.34212,-10.112 -1.37516,-20.84046 -3.52734,-33.34961 -2.15218,-12.50915 -5.41666,-24.24096 -9.19336,-36.39453 -2.18992,-6.86145 -3.70132,-11.17861 -5.85156,-13.70898 -2.15024,-2.53042 -3.45393,-2.65542 -5.51563,-3.00782 -2.06165,-0.3524 -4.39985,0.28217 -6.18554,1.00196 -1.05251,0.42424 -2.3206,1.35941 -3.22852,2.08398 -12.56054,-5.0536 -27.52978,-9.54109 -41.32812,-12.97265 -0.52753,-0.59797 -1.05687,-1.18564 -1.58594,-1.74805 -4.66449,-4.95842 -8.21838,-8.52497 -12.22656,-12.22461 -1.89343,-1.74766 -3.3363,-2.83158 -5.35104,-4.52013 -2.04392,-1.71302 -4.06511,-3.14898 -6.43583,-4.69556 -1.54555,-1.00827 -3.5975,-2.55954 -6.10175,-3.78687 l -1.16217,-2.39393 c -0.30533,0.392 -0.46298,0.86665 -0.68164,1.30665 -1.05734,2.11994 -2.21745,4.26006 -3.46679,6.30273 -1.17733,1.928 -2.30611,4.27181 -4.37305,5.29297 -2.06694,1.02115 -4.1154,0.77478 -7.81445,0.36133 -3.6991,-0.41344 -9.70985,-1.84826 -14.15235,-3.48438 -30.02232,-11.05689 -43.18076,-43.01698 -43,-43.42969 l 0.80469,-1.83789 c -0.27333,-0.0907 -1.84865,-0.23556 -2.22461,-0.25 z m -0.49218,5.61523 c 0.69999,0.144 0.81292,0.93283 1.04492,1.54883 0.444,1.17333 0.91044,2.33496 1.39844,3.48828 1.86408,2.63672 2.30388,3.79133 4.53711,6.47266 5.25998,6.73775 9.89388,11.26343 15.53515,16.96875 7.51935,6.39642 14.98089,11.70312 23.77149,14.92578 4.12128,1.512 8.53782,2.82641 12.89648,3.34375 4.81653,0.49541 6.63549,0.49153 9.23828,-0.0625 2.60279,-0.55403 4.79066,-3.90693 5.53321,-5.38282 0.7425,-1.47584 1.16425,-2.05695 1.9082,-3.39648 l 0.73047,-0.87891 1.51562,3.47266 0.25781,4.09375 c 0,0 -2.92892,4.64163 -2.49582,5.77089 0.43309,1.12927 6.03544,14.04479 8.42348,21.82018 2.62428,8.54456 4.44925,17.22108 5.61431,25.87501 1.16922,8.68485 1.53945,15.6768 1.36038,23.93431 -0.1783,8.22205 -1.22653,19.27744 -1.8015,24.87298 -0.3259,3.17155 -0.96008,7.62995 -1.06569,7.73444 -0.12265,0.12153 -2.2028,-2.22794 -3.45703,-3.5 -2.25323,-2.28526 -5.16148,-5.18151 -8.05078,-7.79492 -5.69049,-5.14707 -12.87234,-11.36392 -21.29102,-20.33789 -8.50703,-9.06814 -21.49715,-22.30648 -30.84765,-33.83203 -9.42794,-11.621 -19.47612,-24.22945 -25.61914,-34.28516 -6.20978,-10.16491 -11.3114,-19.96459 -12.45899,-25.35547 -0.59651,-2.80211 -0.50419,-4.47909 -0.33203,-5.36523 0.0861,-0.44307 0.19047,-0.68975 1.63477,-3.69336 1.44428,-3.0036 8.83263,-15.52371 12.01953,-20.4375 z m -8.91407,8.81055 c -2.49968,4.50664 -4.91579,8.9932 -7.54101,13.01172 -0.24015,0.36761 -0.39693,0.93865 -0.53711,1.66015 -0.28035,1.443 -0.32286,3.58205 0.3457,6.72266 1.38257,6.49462 6.60561,16.14582 12.88086,26.41797 6.342,10.38135 16.44056,23.01809 25.88086,34.65429 9.51774,11.73169 22.5534,25.00554 31.00781,34.01758 8.54281,9.10624 15.92716,15.33858 21.49024,20.53321 2.49808,2.33263 13.99003,13.40063 14.96983,13.22982 0.85329,-0.14877 1.50605,-4.52305 2.4579,-11.43295 0.83388,-6.05351 2.37679,-17.14052 2.62305,-25.44336 0.25061,-8.44979 -0.30982,-15.50164 -1.36819,-24.4226 -1.0421,-8.78376 -2.88484,-17.41395 -5.7022,-26.40039 -2.78263,-8.87565 -9.69566,-23.93713 -9.69566,-23.93713 0.12909,-0.27867 3.80692,-4.67776 3.91449,-4.88246 0.63182,-1.21179 0.62348,-1.30501 -0.18354,-2.66075 2.06932,1.06421 3.75738,2.33796 5.41063,3.96679 1.78961,1.80343 3.40094,2.72407 5.47799,4.64123 3.93273,3.62999 7.39935,7.10982 12.02539,12.02734 4.50499,4.7889 9.14614,11.21002 12.94335,17.75391 1.94532,3.35243 4.45186,7.53762 6.48438,11.42383 2.03252,3.88618 3.51512,7.66053 3.60352,9.21289 0.12422,2.18153 -0.10576,3.22143 -0.43164,3.80859 -0.3259,0.58716 -0.91961,1.06509 -2.25586,1.8418 -0.15649,0.091 -1.31141,0.43774 -2.81446,0.69922 -1.50305,0.26147 -3.40701,0.54259 -5.46679,0.99804 -4.11963,0.91091 -8.95064,2.52528 -12.60547,6.37305 -3.67768,3.87179 -5.88357,9.73045 -7.49414,15.68164 -1.61061,5.95122 -2.55409,12.02861 -3.24219,16.20899 -1.39158,8.45406 -1.71285,12.94657 -1.52539,18.7832 0.0331,1.03224 0.17855,2.25232 0.30273,3.43555 -5.73183,-8.21415 -17.94692,-19.83085 -36.70308,-35.57027 -7.57207,-6.35416 -14.1829,-11.35549 -21.63631,-16.70466 -7.45338,-5.34919 -12.94844,-7.97038 -19.48674,-8.72884 -9.85813,-1.14358 -15.02933,-0.15141 -19.2455,0.91184 -4.21615,1.06325 -6.80303,1.38423 -9.46348,1.21502 -3.1856,-0.20261 -5.20987,-0.75534 -7.08985,-1.92383 -1.87997,-1.16848 -4.06898,-2.82942 -6.09765,-6.16796 -1.12829,-1.85679 -3.20176,-9.39866 -4.20118,-13.01368 -0.9994,-3.61499 -1.90418,-7.9804 -2.6582,-12.32422 -1.50804,-8.6876 -2.41979,-17.50803 -2.45312,-19.80664 -0.0777,-5.35876 -0.13044,-14.02502 6.06054,-24.4414 6.44801,-10.84879 9.31145,-15.60031 14.18946,-18.69727 2.67932,-1.70106 5.65729,-2.37258 7.83007,-2.67187 z"
       sodipodi:nodetypes="cccsscscccssccccsscccssssscsssssssssszcsccssssssssssssccsccssscccssscsssccssssccccssscccccccccccsscccccsssscssssssssccsssssssssssscccsssssssssssssscsssssssssssscc" /><path
       style="fill:#000000;fill-opacity:1;stroke:none;stroke-width:1px;stroke-linecap:butt;stroke-linejoin:miter;stroke-opacity:1"
       d="m 353.13761,281.38153 c 0,0 3.2392,8.06364 4.31234,12.8997 4.39558,19.80831 16.28738,71.75622 20.32783,86.80624 5.0269,18.72437 5.67376,18.91253 5.67376,18.91253 h -5.67376 c 0,0 -10.26416,-42.33581 -14.12704,-60.79706 -2.98889,-14.28431 -6.08769,-38.40725 -8.21029,-48.23852 -0.65273,-3.02326 -2.30284,-9.58289 -2.30284,-9.58289 z"
       id="path21859"
       sodipodi:nodetypes="cssccssc" /><path
       id="path21908"
       style="color:#000000;fill:#000000;fill-opacity:0.3;-inkscape-stroke:none"
       d="m 266.9707,251.30469 c 0,0 -0.7086,5.86103 -0.95919,8.88371 -0.25059,3.02268 -0.50257,9.21059 -0.50257,9.21059 l 0.6908,0.0156 c 0,0 1.13836,-6.03672 1.23483,-9.06312 0.10133,-3.17917 0.22889,-8.99134 0.22889,-8.99134 z m -7.14076,0.66851 c 0,0 -1.5412,7.21199 -2.01483,10.27677 -0.47363,3.06478 -0.91055,9.95071 -0.91055,9.95071 l 0.51387,0.17937 c 0,0 1.42456,-6.70245 1.89819,-9.7669 0.47363,-3.06445 1.23615,-10.54222 1.23615,-10.54222 z m -9.97694,-1.10326 c 0,0 -1.9772,6.5995 -2.67381,9.83159 -0.69662,3.2321 -1.54767,9.97891 -1.54767,9.97891 l 0.74313,0.16917 c 0,0 1.72643,-6.45831 2.42305,-9.69008 0.69662,-3.23177 1.71485,-10.16025 1.71485,-10.16025 z m -9.67612,-3.24885 c 0,0 -2.52645,6.74217 -3.50171,10.02961 -0.97526,3.28743 -2.43345,9.98754 -2.43345,9.98754 l 0.70603,0.15241 c 0,0 2.41364,-6.4172 3.38858,-9.70496 0.97493,-3.28776 2.46103,-10.27236 2.46103,-10.27236 z m -8.07739,-3.76528 c 0,0 -2.80786,5.32712 -4.03377,8.3919 -1.22591,3.06478 -3.53065,9.99678 -3.53065,9.99678 l 0.64547,0.28248 c 0,0 3.13921,-6.907 4.36512,-9.97145 1.22592,-3.06446 3.19931,-8.45706 3.19931,-8.45706 z m -8.51516,-5.45778 c 0,0 -2.86463,5.76482 -4.11821,8.66228 -1.25358,2.89746 -3.11073,8.97324 -3.11073,8.97324 l 0.62203,0.33522 c 0,0 2.68347,-5.56724 3.93738,-8.46503 1.25391,-2.89779 3.25173,-9.08886 3.25173,-9.08886 z m -6.82583,-6.28754 c 0,0 -3.79673,5.7165 -5.38462,8.80927 -1.58789,3.09277 -4.35168,9.70559 -4.35168,9.70559 l 0.60915,0.4524 c 0,0 3.80521,-5.90172 5.3931,-8.99417 1.58789,-3.09245 4.42678,-9.56051 4.42678,-9.56051 z m -6.6418,-6.65156 c 0,0 -3.56071,5.4372 -5.19233,8.43995 -1.63162,3.00275 -4.50138,9.57214 -4.50138,9.57214 l 0.85208,0.42624 c 0,0 3.55333,-5.73256 5.16316,-8.74363 1.60983,-3.01106 4.49071,-9.31025 4.49071,-9.31025 z m -6.12067,-8.14529 c 0,0 -3.5059,5.70083 -5.23344,8.68195 -1.72754,2.98112 -5.00641,9.49731 -5.00641,9.49731 l 0.64389,0.54421 c 0,0 4.90264,-7.52269 5.76641,-9.01325 0.86377,-1.49056 4.51524,-9.24959 4.51524,-9.24959 z m -6.39967,-8.30781 c 0,0 -3.58388,5.39095 -5.19969,8.09342 -1.61581,2.70248 -4.70412,8.79008 -4.70412,8.79008 l 0.69351,0.40126 c 0,0 3.51544,-4.98266 5.04799,-7.68513 1.53256,-2.70248 4.64881,-9.1148 4.64881,-9.1148 z"
       sodipodi:nodetypes="csccscccsccscccsccscccsccscccsccscccsccscccsccscccsccscccsccscccsccscc" /><path
       style="fill:#000000;fill-opacity:1;stroke:none;stroke-width:1px;stroke-linecap:butt;stroke-linejoin:miter;stroke-opacity:1"
       d="m 102.60047,316.31206 c 0,0 9.46636,34.29124 11.82033,48.22695 C 116.77477,378.47472 117.7305,400 117.7305,400 h 8.03782 c 0,0 -2.18323,-23.23364 -5.20094,-37.35225 -3.01771,-14.11861 -17.96691,-46.33569 -17.96691,-46.33569 z"
       id="path24240"
       sodipodi:nodetypes="czcczc" /><path
       style="fill:#000000;fill-opacity:0.3;stroke:none;stroke-width:1px;stroke-linecap:butt;stroke-linejoin:miter;stroke-opacity:1"
       d="m 49.352415,298.6744 c -0.688484,-1.07825 -0.513741,-3.03237 0.04056,-5.08418 0.554302,-2.05181 1.72176,-4.20024 4.434065,-6.0669 2.712305,-1.86666 6.669729,-3.8752 11.367201,-3.51045 4.697472,0.36475 10.943366,4.1646 14.710496,7.18808 3.76713,3.02348 6.240433,6.35629 7.856742,9.86272 1.616309,3.50643 2.129148,7.8232 2.005977,10.36421 -0.123171,2.54101 -0.432545,3.61049 -1.337318,4.51345 -0.904773,0.90296 -1.20656,1.42397 -2.8418,0.83582 -1.63524,-0.58815 -3.677624,-5.51643 -4.179119,-6.18509 -0.501495,-0.66866 -4.427,-6.18115 -7.522412,-8.69257 -3.095412,-2.51142 -9.528389,-5.85076 -10.865707,-6.01793 -1.337318,-0.16717 -4.290868,-0.0496 -6.132654,0.87464 -1.841786,0.92425 -3.734014,3.17918 -4.900218,3.30448 -1.166204,0.1253 -1.94733,-0.30803 -2.635814,-1.38628 z"
       id="path26498"
       sodipodi:nodetypes="zzzzzzzzzzzzzzz" /><path
       style="fill:#000000;fill-opacity:0.2;stroke:none;stroke-width:1px;stroke-linecap:butt;stroke-linejoin:miter;stroke-opacity:1"
       d="m 108.26467,329.88152 c 0,0 15.05454,22.57727 22.05687,38.77343 7.00233,16.19616 8.44915,30.87224 8.44915,30.87224 L 121.98582,400 c 0,0 -6.14658,-41.37116 -6.14658,-43.26241 0,-1.89125 -7.57457,-26.85607 -7.57457,-26.85607 z"
       id="path29511"
       sodipodi:nodetypes="czccsc" /><path
       style="fill:#000000;fill-opacity:0.3;stroke:none;stroke-width:1px;stroke-linecap:butt;stroke-linejoin:miter;stroke-opacity:1"
       d="m 358.86525,305.91017 c 8.12387,20.67486 13.40593,38.17359 19.85815,60.52009 v 26.00473 l -9.92907,-36.40662 z"
       id="path30301"
       sodipodi:nodetypes="ccccc" /><path
       style="fill:#d30000;stroke:none;stroke-width:3;stroke-linecap:butt;stroke-linejoin:miter;stroke-dasharray:none;stroke-opacity:1;fill-opacity:1"
       d="m 66.577174,266.96253 c 0,0 0.0096,-4.89166 2.401631,-6.84692 2.392075,-1.95526 7.814212,-0.59818 11.175338,-1.54143 3.361126,-0.94325 5.030744,-4.3028 8.863198,-3.85356 3.832454,0.44924 7.394312,4.74839 10.789981,8.09248 3.395668,3.34409 6.700338,8.19628 9.248558,11.94605 2.54822,3.74977 6.96086,9.14134 6.1657,10.40463 -0.79516,1.26329 -15.249209,7.29675 -16.955684,6.93641 -1.706475,-0.36034 -7.193869,-9.0492 -11.175337,-13.48747 C 83.109091,274.17445 74.373796,265.5106 74.373796,265.5106 Z"
       id="path5"
       sodipodi:nodetypes="czzzzzzzzcc" /><path
       style="color:#000000;fill:#000000;-inkscape-stroke:none"
       d="m 89.191406,253.23047 c -2.370662,-0.27789 -4.222792,0.69197 -5.630859,1.65625 -1.408067,0.96427 -2.515776,1.88023 -3.8125,2.24414 -1.298354,0.36436 -3.426207,0.31026 -5.5625,0.33398 -2.136293,0.0237 -4.39857,0.0535 -6.15625,1.49024 -1.669829,1.36493 -2.283048,3.38893 -2.617188,5.01562 -0.334139,1.62669 -0.333984,2.98828 -0.333984,2.98828 l -0.0039,1.8086 1.777343,-0.33008 7.00586,-1.30664 c 0.690018,0.6857 8.382075,8.32072 12.117187,12.48437 1.894562,2.11193 4.260922,5.38166 6.357422,8.17188 1.04825,1.39511 2.030158,2.67034 2.898438,3.66406 0.43414,0.49686 0.837405,0.92348 1.242187,1.27735 0.404783,0.35386 0.752465,0.6857 1.482422,0.83984 0.836677,0.17667 1.212846,-0.003 1.84375,-0.15234 0.630906,-0.14977 1.367656,-0.37053 2.197266,-0.64649 1.65923,-0.55192 3.67387,-1.32158 5.66211,-2.14258 1.98825,-0.82099 3.94344,-1.69107 5.48243,-2.45117 0.76949,-0.38005 1.43307,-0.73012 1.96679,-1.05078 0.53372,-0.32066 0.88112,-0.36505 1.38281,-1.16211 0.3941,-0.62611 0.36098,-1.24446 0.2754,-1.7207 -0.0856,-0.47624 -0.24831,-0.89752 -0.45118,-1.33789 -0.40574,-0.88076 -0.99423,-1.82797 -1.67578,-2.84571 -1.3631,-2.03546 -3.10607,-4.32418 -4.34179,-6.14257 -2.54897,-3.75087 -5.87165,-8.66019 -9.4375,-12.17188 -1.655693,-1.63053 -3.409904,-3.56295 -5.302743,-5.19727 -1.89284,-1.63431 -3.952856,-3.03362 -6.365235,-3.3164 z m -0.349609,2.98047 c 1.420071,0.16646 3.058789,1.14187 4.753906,2.60547 1.695117,1.46359 3.418221,3.35285 5.158203,5.0664 3.225474,3.17649 6.513074,7.97008 9.060544,11.71875 1.3125,1.93137 3.05056,4.21338 4.33203,6.12696 0.64074,0.95678 1.16574,1.82899 1.44336,2.43164 0.073,0.15836 0.0802,0.21368 0.11719,0.32226 -0.0936,0.0849 0.0103,-0.0227 -0.14453,0.0703 -0.4156,0.2497 -1.02594,0.57599 -1.75,0.9336 -1.44811,0.71521 -3.36086,1.56695 -5.29883,2.36719 -1.93796,0.80023 -3.90719,1.55087 -5.46289,2.06835 -0.77785,0.25875 -1.456025,0.46003 -1.945311,0.57618 -0.489287,0.11615 -0.939356,0.0482 -0.529297,0.13476 0.303339,0.0641 0.108585,0.0455 -0.128906,-0.16211 -0.237492,-0.20761 -0.574546,-0.55444 -0.957032,-0.99218 -0.764971,-0.87549 -1.725176,-2.11722 -2.759765,-3.49415 -2.069178,-2.75385 -4.436535,-6.0467 -6.523438,-8.37304 -4.061759,-4.52777 -11.158215,-12.59935 -13.152979,-13.1052 -1.994764,-0.50586 -6.903187,1.43047 -6.903187,1.43047 0.03686,-0.26466 0.137544,-1.06421 0.198744,-1.36238 0.268668,-1.30795 0.855925,-2.70655 1.578125,-3.29688 0.634393,-0.51854 2.279898,-0.79014 4.292969,-0.8125 2.013072,-0.0224 4.275122,0.13162 6.337891,-0.44726 2.064399,-0.57934 3.472131,-1.8153 4.697265,-2.6543 1.225135,-0.839 2.12415,-1.32369 3.585938,-1.15234 z"
       id="path4"
       sodipodi:nodetypes="ssssssccccssssscssssssssssssssssssscssssscsssszccssssss" /><path
       id="path283456"
       style="opacity:0.199997;fill:#000000;fill-opacity:1;fill-rule:nonzero;stroke:none;stroke-width:1.33333"
       d="m 198.26953,198.57812 c -5.66916,7.60697 -7.65446,9.82125 -8.22619,10.34602 0,0 -5.99793,1.00089 -11.55555,4.75984 -4.65431,3.14802 -8.51114,8.33512 -9.58637,9.86229 -0.93267,1.3247 -3.10366,9.20493 -4.70194,10.14505 -12.34953,7.26406 -55.89531,21.63005 -67.541416,25.11141 -1.568527,0.46888 -4.97311,-3.6023 -7.45415,-4.1513 -2.351342,-0.5203 -6.89357,2.64931 -8.856288,3.87784 -1.484863,0.92942 -9.176617,0.52053 -10.782186,1.32375 -1.450566,0.72568 -1.85292,8.47705 -2.4955,8.76149 -6.93898,2.88838 -8.744074,3.89601 -11.648065,6.50268 -9.815563,11.62157 -9.894688,21.5028 -14.791016,40.0039 -3.949401,17.25624 -5.045934,35.59439 -6.632812,50.42774 -1.107997,6.5053 -0.996702,8.3986 -2.472656,17.39258 0.117676,5.33142 -0.859205,8.65655 -0.283203,11.86718 l 0.240234,0.47852 c 0.446663,2.49334 1.181016,2.08502 1.541016,4.67969 h 20.166015 c 0.196,-3.43334 -0.167178,-7.00222 -0.08984,-10.29688 0.04199,-1.77404 0.234596,-3.53043 0.482422,-5.28125 0.403551,-0.46383 0.822501,-0.9337 1.263672,-1.41015 7.254661,-7.8348 23.254259,-27.69124 26.951172,-36.40625 3.696913,-8.71504 4.563854,-8.99241 1.890625,-11.34766 -2.673229,-2.35525 -3.582568,-0.75698 -9.455078,2.83594 -3.628346,2.21987 -8.837341,7.53117 -13.671875,13.01367 1.1467,-3.62844 2.455858,-7.18804 3.972656,-10.64844 5.682605,-10.91968 7.045433,-14.963 12.228516,-24.2539 8.061597,-9.83474 8.6798,-10.66472 17.27539,-16.04688 9.830747,-5.05828 15.434247,-7.80901 26.708977,-12.52148 16.215,-6.63763 32.07623,-11.1787 40.02735,-12.48633 15.1153,-2.48585 21.94363,-15.40541 29.971,-14.1986 2.85955,0.4299 6.29359,2.4926 10.41148,5.95765 5.16136,4.34309 13.20736,-5.86065 13.20736,-5.86065 0,0 -4.66506,-2.78816 -12.87791,-10.61809 3.89026,3.12843 8.86386,6.72916 10.88645,6.84992 2.10193,0.12551 10.14762,-19.06171 9.84498,-20.8119 -0.30264,-1.75019 -4.64244,-4.83539 -6.65039,-6.81446 -8.344,-8.22395 -11.49162,-13.09021 -15.24219,-26.77539 z m 25.6543,38.9961 -8.89063,21.37109 c 2.4623,1.75888 4.43488,2.90164 5.29102,2.58399 2.64775,-0.99142 10.23586,-17.36992 7.78125,-20.61914 -0.89949,-1.19069 -2.55845,-1.9373 -4.18164,-3.33594 z m 8.36914,5.57031 -8.46289,21.05469 c 2.26798,1.09221 4.33132,1.48349 6.2168,0.76758 2.97647,-1.13017 7.32992,-14.37837 5.28515,-19.58594 -0.29205,-0.74379 -1.58725,-1.10106 -3.03906,-2.23633 z m 8.02539,4.11914 -5.32422,18.99024 c 4.69236,-0.18256 6.58671,-2.9039 7.54883,-5.69336 0.81581,-2.36531 1.1957,-11.29642 -2.22461,-13.29688 z M 93.066406,354.63672 c -2.813999,-0.0777 -6.610824,5.14721 -11.550781,12.05078 C 76.246337,374.05131 66.666016,400 66.666016,400 h 21.277343 c 0,0 6.295585,-20.76708 6.925782,-28.61719 0.630195,-7.85011 1.61037,-15.80403 -1.251953,-16.6582 -0.178896,-0.0534 -0.363182,-0.0827 -0.550782,-0.0879 z"
       sodipodi:nodetypes="csssssssscccccccccccsssscccccsssccssscccccscccsscccsccsccsscc" /><path
       style="color:#000000;fill:#000000;fill-opacity:0.3;-inkscape-stroke:none"
       d="m 187.1875,233.52539 c 0,0 3.03496,5.22156 7.91016,10.58203 4.87519,5.36048 10.78652,11.48726 15.20117,14.69727 8.60853,6.25948 19.16266,12.45669 27.77212,14.89381 8.54845,2.41984 16.37479,2.54459 21.88544,1.26371 5.56597,-1.29374 9.02213,-5.98272 9.02213,-5.98272 0,0 -4.44414,2.69574 -9.37891,3.84278 -4.99008,1.15987 -12.79419,0.81621 -21.08008,-1.5293 -8.22488,-2.32826 -18.59339,-7.57479 -27.04492,-13.72011 -4.11538,-2.9924 -9.95814,-8.42743 -15.28185,-14.04043 -4.95236,-5.22147 -9.00526,-10.00704 -9.00526,-10.00704 z"
       id="path6"
       sodipodi:nodetypes="csssscssssc" /><path
       style="fill:#000000;fill-opacity:0.2;stroke:none;stroke-width:1px;stroke-linecap:butt;stroke-linejoin:miter;stroke-opacity:1"
       d="m 270.52024,257.41811 c 0,0 7.16417,28.20329 8.09248,38.92101 0.92831,10.71772 2.43197,20.5562 0.96339,28.03467 -1.46858,7.47847 -7.9997,12.89231 -18.78613,4.72062 -10.78643,-8.17169 -27.64932,-22.35067 -23.4104,-18.49711 4.23892,3.85357 25.04817,26.97495 25.04817,26.97495 l 24.59669,22.26119 c 0,0 1.94321,-3.69776 3.727,-13.32786 1.78378,-9.6301 5.12411,-30.42901 4.14258,-46.7946 -0.98152,-16.36559 -3.57324,-25.97211 -7.22543,-35.54913 -3.6522,-9.57702 -10.01927,-21.00193 -10.01927,-21.00193 z"
       id="path7"
       sodipodi:nodetypes="czzzscczzzcc" /><path
       style="fill:#d30000;stroke:none;stroke-width:2.5;stroke-linecap:butt;stroke-linejoin:miter;stroke-dasharray:none;stroke-opacity:1;fill-opacity:1"
       d="m 321.00192,267.2447 c 0,0 4.49511,-3.01252 7.32178,-3.08285 2.82667,-0.0703 5.54235,2.56569 8.47784,3.08285 2.93549,0.51716 5.60276,-0.57617 8.8632,1.7341 3.26044,2.31027 4.33073,7.69308 5.39499,12.42775 1.06426,4.73467 2.31213,11.27168 2.31213,11.27168 l -17.72639,-2.6975 c 0,0 -2.2249,-8.78268 -3.56455,-12.42774 -1.33965,-3.64506 -3.85356,-8.38151 -3.85356,-8.38151 z"
       id="path9"
       sodipodi:nodetypes="czzzzcczcc" /><path
       style="color:#000000;fill:#000000;-inkscape-stroke:none"
       d="m 328.29297,262.91211 c -1.84051,0.0458 -3.71787,0.90968 -5.26367,1.70703 -1.54581,0.79736 -2.72266,1.58789 -2.72266,1.58789 l -2.29102,1.53516 2.66407,0.71093 6.66015,1.7754 c 0.25814,0.49176 2.35602,4.4572 3.56836,7.75585 0.61313,1.66827 1.32105,4.6809 1.94922,7.28907 0.31409,1.30408 0.61226,2.51125 0.89258,3.45898 0.14016,0.47387 0.2717,0.88029 0.42187,1.23438 0.0751,0.17704 0.15225,0.33996 0.26368,0.51562 0.11142,0.17567 0.22733,0.39447 0.6289,0.60547 0.28533,0.14992 0.36462,0.14903 0.55078,0.20313 0.18617,0.0541 0.41009,0.11302 0.67774,0.17968 0.53529,0.13334 1.23899,0.29563 2.0625,0.47461 1.64701,0.35797 3.76861,0.78166 5.89844,1.16211 2.12982,0.38045 4.26182,0.7172 5.95898,0.89453 0.84858,0.0887 1.58368,0.13896 2.19922,0.12891 0.30777,-0.005 0.58316,-0.0224 0.87109,-0.0801 0.28794,-0.0577 0.64342,-0.0839 1.05078,-0.57422 0.71855,-0.86482 0.542,-1.64826 0.43555,-2.49414 -0.10645,-0.84588 -0.33627,-1.80997 -0.61914,-2.8789 -0.56574,-2.13788 -1.3553,-4.67605 -1.87109,-6.97071 -1.05913,-4.71183 -1.99011,-10.40863 -5.89258,-13.17383 -1.83731,-1.30187 -3.63803,-1.68038 -5.20703,-1.76757 -1.569,-0.0872 -2.90631,0.0435 -4.16211,-0.17774 -1.17522,-0.20704 -2.50059,-0.91539 -3.92774,-1.64453 -1.42715,-0.72914 -2.98539,-1.50208 -4.79687,-1.45703 z m 0.0625,2.5 c 1.01519,-0.0252 2.22643,0.48302 3.59765,1.18359 1.37123,0.70057 2.8706,1.57075 4.63086,1.88086 1.67969,0.29592 3.14342,0.13794 4.45704,0.21094 1.31361,0.073 2.47726,0.30216 3.90039,1.31055 2.6184,1.85533 3.82904,6.9261 4.89843,11.68359 0.54847,2.44001 1.35172,5.0093 1.89453,7.06055 0.27141,1.02562 0.47586,1.92632 0.55469,2.55273 0.0199,0.15801 -7.3e-4,0.21894 -0.008,0.33008 -0.4344,0.002 -1.05281,-0.0304 -1.80859,-0.10938 -1.58668,-0.16579 -3.68426,-0.4949 -5.7793,-0.86914 -2.09504,-0.37423 -4.19346,-0.79391 -5.80664,-1.14453 -0.80659,-0.17531 -1.49392,-0.3334 -1.99024,-0.45703 -0.1884,-0.0469 -0.31725,-0.0824 -0.44336,-0.11719 -0.0821,-0.20138 -0.18888,-0.50618 -0.30664,-0.90429 -0.2518,-0.85133 -0.54528,-2.03993 -0.85742,-3.33594 -0.62428,-2.59202 -1.30863,-5.58961 -2.03515,-7.56641 -1.39337,-3.79122 -3.92188,-8.53515 -3.92188,-8.53515 l -0.25586,-0.48242 -4.83008,-1.28711 c 1.39687,-0.71253 3.13977,-1.38018 4.10938,-1.4043 z"
       id="path8" /><path
       style="fill:#000000;fill-opacity:0.2;stroke:none;stroke-width:1px;stroke-linecap:butt;stroke-linejoin:miter;stroke-opacity:1"
       d="m 328.13102,269.26782 -6.84008,-2.02312 3.08286,-2.31214 2.40847,-0.67433 c 0,0 4.08788,2.87836 5.395,5.29865 1.30711,2.42029 2.75485,6.19386 3.66089,9.53758 0.90603,3.34371 2.11945,10.88631 2.11945,10.88631 l -2.69749,-0.38535 c 0,0 -2.60116,-9.05588 -2.6975,-10.30829 -0.0963,-1.25241 -4.4316,-10.01927 -4.4316,-10.01927 z"
       id="path10"
       sodipodi:nodetypes="cccczzccscc" /><path
       style="fill:#000000;fill-opacity:0.2;stroke:none;stroke-width:1px;stroke-linecap:butt;stroke-linejoin:miter;stroke-opacity:1"
       d="m 168.78613,256.6474 c 0,0 6.16345,31.41792 9.24855,35.83815 3.0851,4.42023 4.86669,6.47524 8.28517,6.93642 3.41848,0.46118 4.80376,-0.27487 5.97302,-2.2158 1.16926,-1.94094 -2.4009,-4.83517 -5.39498,-8.18882 -2.99409,-3.35366 -6.44031,-9.96669 -10.50097,-16.37766 -4.06066,-6.41097 -7.44343,-15.88505 -7.61079,-15.99229 z"
       id="path11"
       sodipodi:nodetypes="czzzzzc" /><path
       style="fill:#d30000;fill-opacity:1;stroke:none;stroke-width:0.528597"
       d="m 341.00082,365.93336 c -0.75117,-4.14387 -1.57027,-8.2848 -2.19973,-12.43135 -0.19242,-1.26757 -0.38247,-2.53523 -0.55986,-3.80247 -0.0897,-0.64065 -0.0848,-1.40225 -0.42496,-2.01882 -0.57306,-1.03879 -1.60705,-0.88249 -2.50175,-0.76605 -0.31802,0.0414 -1.05397,0.27353 -1.26518,-0.16367 -0.18764,-0.38843 0.27557,-0.83775 0.4877,-1.06828 0.57275,-0.62239 0.98875,-1.36662 1.08237,-2.2464 0.40739,-3.82821 -4.31664,-7.32678 -7.85614,-5.63519 -2.71784,1.29892 -2.92736,4.994 -0.45703,7.3721 0.64976,0.62551 1.36532,0.95231 2.13987,1.3767 0.25659,0.1406 0.71715,0.39552 0.76329,0.70082 0.0674,0.44576 -0.70192,0.41969 -1.01361,0.46025 -0.85091,0.11075 -1.87171,0.16851 -1.90144,1.17537 -0.0317,1.07502 1.05152,2.59505 1.55702,3.61811 1.32229,2.67614 2.56188,5.37696 3.81433,8.07297 0.38961,0.83866 0.77035,1.68199 1.13775,2.52645 0.12498,0.28729 0.26094,0.84755 0.52968,1.05581 0.43882,0.3404 1.40734,0.41661 1.92654,0.55024 1.57949,0.40652 3.15901,0.84296 4.74115,1.22341 M 322.85798,345.3155 c -0.34926,-1.11347 -0.54628,-3.0244 -1.73651,-3.72473 -1.25183,-0.73657 -2.74192,-0.3319 -3.95552,-0.17396 l -8.64137,1.12464 -2.46895,0.32133 c -0.44262,0.0576 -0.92156,0.082 -1.20006,0.41759 -0.81313,0.97994 0.76174,2.26619 1.48483,3.0386 0.24387,0.26052 0.6605,0.88606 1.01379,0.98135 0.34278,0.0925 0.84591,-0.0772 1.17309,-0.11973 l 2.791,-0.36324 4.56221,-0.59375 6.97749,-0.9081 m 16.79966,-2.18641 6.9775,-0.9081 4.56221,-0.59375 2.79099,-0.36324 c 0.32718,-0.0426 0.89308,-0.0121 1.15324,-0.18302 0.26814,-0.17617 0.27506,-0.85684 0.34278,-1.15791 0.2008,-0.89265 0.87685,-2.47185 -0.46314,-3.17157 -0.45895,-0.23966 -0.915,-0.14233 -1.35761,-0.0847 l -2.46896,0.32133 -8.64136,1.12464 c -1.1929,0.15525 -2.78561,0.15272 -3.50231,1.10726 -0.72411,0.9644 0.24418,2.75348 0.60666,3.90908 m -31.79173,4.79256 2.59398,2.77358 1.0472,1.063 1.16351,-0.0953 2.95202,-0.3842 11.21766,-1.45993 c -0.24103,-0.60439 -0.56867,-1.17745 -1.13294,-1.59919 -0.98316,-0.73482 -2.22366,-1.084 -2.65197,-2.2748 l -15.18946,1.97686 m 31.98912,-4.16327 c 0.31653,1.18026 -0.57133,1.80052 -1.03623,2.70023 -0.28817,0.55768 -0.26813,1.15933 -0.11678,1.8164 l 11.21767,-1.45993 2.95201,-0.3842 1.1297,-0.20312 0.32435,-1.2415 0.71875,-3.20473 -15.18947,1.97685 m -27.73846,8.63162 c 0.75506,1.12874 2.51673,1.18364 3.66285,1.34767 3.20631,0.45887 6.42834,0.95551 9.63431,1.50665 0.95848,0.16478 1.91849,0.29646 2.87712,0.44564 0.34803,0.0542 0.85813,0.18102 1.07012,-0.10969 0.21941,-0.30091 -0.0934,-0.8147 -0.24973,-1.14464 -0.45549,-0.96148 -0.9323,-1.91697 -1.40285,-2.87402 -0.1212,-0.24655 -0.35644,-1.04554 -0.67774,-1.09525 -0.44873,-0.0694 -1.01342,0.11454 -1.44214,0.17034 l -3.11304,0.40515 -10.35889,1.34817 m 41.70394,-5.42761 -10.35889,1.34817 -3.11304,0.40515 c -0.42873,0.0558 -1.06,0.0275 -1.43169,0.20368 -0.26303,0.12469 -0.005,0.97346 0.0388,1.23298 0.16953,0.99961 0.27845,1.99898 0.4451,2.99868 0.0555,0.33298 0.0796,0.84851 0.45091,1.06387 0.37059,0.21491 0.76421,-0.0296 1.05228,-0.16654 0.79379,-0.37734 1.59105,-0.74911 2.38326,-1.12886 2.6517,-1.2711 5.28913,-2.57324 7.97002,-3.79919 0.95962,-0.43882 2.54771,-0.92615 2.56323,-2.15796 m -10.80855,25.20451 c 0.15223,0.48553 0.16678,1.60071 0.56644,1.97909 0.71761,0.67936 1.75487,0.14371 2.27121,-0.23444 1.21748,-0.89165 1.41937,-2.52426 0.68332,-4.0041 -0.95533,-1.92069 -3.08575,-2.75296 -5.02397,-3.24448 -2.8849,-0.7316 -5.96474,-1.28401 -8.78468,-2.35995 -0.48886,-0.18652 -1.08692,-0.40926 -1.44647,-0.81583 -0.95735,-1.08255 0.12717,-1.92418 1.10487,-2.05417 l -1.11161,-2.47527 c -1.04835,0.1391 -2.08188,0.65399 -2.60382,1.48725 -0.96471,1.54014 -0.24365,3.91735 1.43597,5.2146 1.3249,1.02329 3.1387,1.42558 4.67757,1.81584 2.53772,0.64355 5.15438,1.18201 7.66484,1.99558 1.01002,0.32732 2.63044,1.65941 1.36808,2.40243 -0.23698,0.13948 -0.52068,0.23355 -0.80178,0.29345 m -2.33503,-11.54043 c 0.38362,-0.0497 0.7806,-0.0559 1.18411,0.035 1.00942,0.22721 2.11044,1.22386 1.50436,2.16257 -0.36057,0.55846 -1.4403,0.80433 -2.15947,0.73565 l 0.52121,2.55211 c 0.85,0.0412 1.75459,-0.15797 2.48186,-0.45828 0.65494,-0.27045 1.20526,-0.68306 1.55526,-1.26815 1.07631,-1.79926 0.0907,-4.39655 -2.03968,-5.61914 -0.80516,-0.46206 -1.76052,-0.6816 -2.62991,-0.72609 -0.21877,-0.0112 -0.68958,-0.0938 -0.82852,0.076 -0.10793,0.13192 0.0211,0.47869 0.0497,0.647 0.1049,0.61564 0.17114,1.25226 0.36103,1.86338 m 4.73061,20.78054 c 0.8421,-0.11173 1.65104,-0.46017 2.0985,-1.11581 0.88423,-1.29565 0.0825,-3.20831 -1.27901,-4.28532 -1.0862,-0.85925 -2.44477,-1.14568 -3.71008,-1.49895 -2.04247,-0.57024 -4.16056,-1.09272 -6.16596,-1.84762 -0.46113,-0.17359 -1.06828,-0.41156 -1.39026,-0.80912 -0.75031,-0.92644 0.49427,-1.48346 1.20093,-1.57543 -0.16034,-0.5112 -0.4177,-1.60242 -0.85049,-1.99671 -0.823,-0.74977 -1.97885,0.0616 -2.45664,0.53637 -1.03969,1.03302 -1.09159,2.87491 -0.0404,4.24304 1.15891,1.50828 3.02424,2.08438 4.74561,2.56498 1.37619,0.38423 2.74691,0.80767 4.121,1.20541 0.96749,0.28006 2.50863,0.45801 3.24096,1.25829 0.5088,0.55601 -0.17193,0.543 -0.17526,0.95799 -0.006,0.68964 0.44282,1.66707 0.66108,2.36288 m -9.32209,-12.97813 c 0.44547,0.86256 0.7732,1.80397 1.11892,2.69265 0.15007,0.38571 0.27223,0.99398 0.56501,1.32429 0.25215,0.28449 0.99746,0.36785 1.34165,0.46395 1.19636,0.33402 2.46799,0.86739 3.67589,1.03305 -0.21978,-0.95361 -0.44022,-1.90689 -0.66877,-2.8604 -0.0719,-0.2997 -0.0743,-0.83351 -0.2737,-1.09834 -0.21621,-0.28718 -1.11897,-0.37211 -1.44781,-0.45583 -1.42636,-0.3631 -2.87745,-0.83653 -4.31119,-1.09937 m 4.54519,13.59982 c -0.16525,-0.52683 -0.37627,-1.04338 -0.54695,-1.56628 -0.078,-0.2383 -0.11874,-0.61317 -0.29825,-0.81795 -0.28118,-0.32075 -0.97091,0.0484 -1.21285,-0.40692 -0.22142,-0.41672 0.48705,-0.69111 0.77848,-0.7539 -0.14128,-0.45041 -0.34947,-1.5813 -0.7494,-1.9007 -1.08039,-0.86285 -2.21907,0.25229 -2.5615,1.02163 -0.75715,1.70106 0.51321,3.73693 2.54669,4.31996 0.68414,0.19615 1.38995,0.18926 2.04378,0.10416 m -1.1991,-5.24757 c 0.58633,1.86925 1.35723,3.72098 2.02633,5.57657 0.7065,1.95929 1.27152,3.95416 2.02671,5.90401 0.14956,0.3862 0.30625,0.80868 0.63262,1.11848 0.63814,0.60576 1.74514,0.64721 2.26047,0.10705 0.73044,-0.76565 -0.0698,-2.08628 -0.27355,-3.04017 -0.4432,-2.07532 -1.18601,-4.14745 -1.68657,-6.22119 -0.17297,-0.71652 -0.47552,-1.44591 -0.56227,-2.16469 z"
       id="path2" /><path
       style="fill:#d30000;stroke-width:0.528597;fill-opacity:1"
       id="path1"
       d="" /><path
       style="fill:#000000;fill-opacity:0.2;stroke:none;stroke-width:1px;stroke-linecap:butt;stroke-linejoin:miter;stroke-opacity:1"
       d="m 181.11754,312.13873 24.27745,-3.08285 14.25819,1.54142 24.66281,18.88247 34.29673,28.90173 c 0,0 -8.80113,-3.94777 -16.18498,-8.8632 -7.38385,-4.91543 -19.55535,-14.72819 -28.51637,-20.42389 -8.96102,-5.6957 -17.69275,-9.05139 -25.43353,-11.56069 -7.74078,-2.5093 -27.3603,-5.39499 -27.3603,-5.39499 z"
       id="path12"
       sodipodi:nodetypes="ccccczzzc" /></g></svg>
