<?xml version="1.0" encoding="UTF-8" standalone="no"?>
<!-- Created with Inkscape (http://www.inkscape.org/) -->

<svg
   width="400"
   height="400"
   viewBox="0 0 400 400"
   version="1.1"
   id="svg1"
   xml:space="preserve"
   inkscape:version="1.3 (0e150ed, 2023-07-21)"
   sodipodi:docname="TwokAverageFemaleEnlisted.svg"
   xmlns:inkscape="http://www.inkscape.org/namespaces/inkscape"
   xmlns:sodipodi="http://sodipodi.sourceforge.net/DTD/sodipodi-0.dtd"
   xmlns="http://www.w3.org/2000/svg"
   xmlns:svg="http://www.w3.org/2000/svg"><sodipodi:namedview
     id="namedview1"
     pagecolor="#ffffff"
     bordercolor="#666666"
     borderopacity="1.0"
     inkscape:showpageshadow="2"
     inkscape:pageopacity="0.0"
     inkscape:pagecheckerboard="0"
     inkscape:deskcolor="#d1d1d1"
     inkscape:document-units="px"
     inkscape:zoom="2.595"
     inkscape:cx="199.80732"
     inkscape:cy="200"
     inkscape:window-width="2128"
     inkscape:window-height="1251"
     inkscape:window-x="2075"
     inkscape:window-y="25"
     inkscape:window-maximized="0"
     inkscape:current-layer="layer2"
     showgrid="false" /><defs
     id="defs1" /><g
     inkscape:groupmode="layer"
     id="layer2"
     inkscape:label="Uniform Variant"><path
       id="path283350"
       style="fill:#700000;fill-opacity:1;fill-rule:nonzero;stroke:none;stroke-width:1.33333"
       d="m 181.26648,224.9479 c -1.27572,1.23177 -5.07662,3.96525 -6.29225,4.48766 -2.6004,1.11751 -10.23431,3.4953 -11.62191,4.22083 -8.60812,4.50093 -17.41534,6.87496 -31.68826,15.05845 -16.34719,4.40719 -44.527641,13.60251 -56.769857,17.48963 -12.242216,3.88712 -16.062852,6.10028 -19.564317,8.22657 -13.770242,16.45254 -14.430791,36.59407 -17.400319,53.39054 -2.121333,11.89197 -2.523282,23.3537 -4.052614,37.84834 -1.99309,13.07597 -2.627226,24.69107 -1.937511,34.29686 L 382.14875,400 c -1.24839,-5.10449 -1.45912,-10.17374 -1.89245,-12.34182 -0.91457,-4.57587 0.35647,-26.7401 -1.86668,-42.56133 -2.12496,-15.12242 -3.41785,-33.14657 -10.93759,-58.80792 -0.26357,-0.89946 -9.51688,-8.47206 -11.93334,-8.03574 -2.3941,0.43229 -6.28043,-1.42581 -7.10906,-1.84734 -3.16137,-1.60826 -6.22937,-1.87321 -12.15182,-4.08521 -9.04161,-3.37698 -20.65474,-7.45419 -34.15039,-11.20933 -9.40356,-3.53659 -27.39771,-7.13864 -28.54628,-9.41539 -3.18174,5.42301 -3.91139,6.6343 -4.10553,9.84014 -1.03909,2.98567 -2.34376,12.37628 -9.92702,14.23933 -7.58327,1.86305 -9.86329,2.77334 -24.45324,-1.8856 -14.58996,-4.65895 -25.93812,-15.17646 -39.19477,-26.10543 -5.39048,-9.47349 -10.63056,-12.32253 -11.20779,-15.23997 -0.67523,-2.33263 -2.99764,-5.64906 -3.40631,-7.59649 z"
       sodipodi:nodetypes="cssczccccczsssssccczzczc" /><path
       style="fill:#dbb9b0;stroke:none;stroke-width:1px;stroke-linecap:butt;stroke-linejoin:miter;stroke-opacity:1;fill-opacity:1"
       d="m 119.75855,381.89216 136.65281,-3.67859 88.83114,-5.31352 27.24882,-3.26986 -0.27249,-49.4566 -2.17991,-30.65492 -1.36244,-3.67859 -27.24881,-12.80694 -56.67754,-16.75802 -13.62441,-3.54235 -1.49868,5.58601 -0.54498,5.04103 -0.40873,4.35981 -5.04103,4.90479 -9.12836,3.4061 -24.66017,-4.08732 -19.61915,-11.98948 -17.98422,-16.75802 -11.03577,-16.07681 -34.74224,15.39558 -37.73961,12.53446 -35.423464,11.17201 -9.809574,4.49606 -9.128354,5.04103 8.855866,3.54235 16.758022,12.53445 15.395581,17.03051 12.261963,18.66544 7.22094,24.38769 z"
       id="path17" /><path
       d="m 223.65487,268.06695 c 9.06354,4.16979 31.77586,9.41839 33.75062,8.81823 1.97476,-0.60015 4.95137,-0.0271 8.06699,-3.9327 3.11562,-3.90563 5.41181,-10.80163 4.02381,-14.4883 -1.388,-3.688 4.08454,-9.5143 4.08454,-9.5143 l 3.4737,-6.21588 -4.768,-8.012 -0.18534,0.152 -3.812,10.87334 -5.22533,2.25866 -3.29681,-0.30705 -3.19919,-0.53961 c -10.87333,-1.412 -25.98267,-10.59067 -35.02,-17.228 -9.03867,-6.63734 -22.10826,-29.15541 -22.10826,-29.15541 l -1.27897,-2.01644 -1.17191,1.0391 -8.31752,13.65255 c -6.57413,9.12628 -6.09491,15.03729 -3.83127,19.20728 1.25467,2.11333 4.59247,7.27495 7.63584,10.99705 11.1835,10.30316 17.26261,14.76815 31.1791,24.41148 z"
       style="fill:#2d2d2d;fill-opacity:1;fill-rule:nonzero;stroke:none;stroke-width:1.33333"
       id="path283406"
       sodipodi:nodetypes="czzccccccccccccccccc" /><path
       d="m 276.07346,242.23054 c 0.33067,0.75333 0.6,1.59333 0.68267,2.78933 0.224,3.21333 -1.1,3.24933 -2.696,5.944 -2.38667,4.032 -4.05938,11.90614 -5.52471,16.31414 -0.29396,-2.98937 -0.62329,-5.88214 -0.42996,-8.15281 0.196,-2.31333 0.44933,-4.564 1.104,-6.844 0.46533,-1.62266 3.62267,-4.36666 4.41467,-5.74133 1.59866,-2.768 0.99466,-5.07867 0.372,-8.04267 0.23866,0.32 0.43733,0.32667 0.74,0.59334 0.36,1.30533 0.90133,2.14666 1.33733,3.14"
       style="fill:#000000;fill-opacity:1;fill-rule:nonzero;stroke:none;stroke-width:1.33333"
       id="path283442"
       sodipodi:nodetypes="cccccccccc" /><path
       id="path283466"
       style="fill:#000000;fill-opacity:1;fill-rule:nonzero;stroke:none;stroke-width:1.33333"
       d="m 190.99023,243.72779 c 5.68258,6.30187 15.58269,15.53726 24.83594,21.38282 9.16047,5.78693 21.30652,11.3073 29.75195,12.47923 8.22263,1.14101 13.84139,0.0506 17.69336,-2.18945 5.42341,-3.15387 6.05206,-10.60266 6.05206,-10.60266 0,0 -1.06765,1.33058 -3.64122,5.51377 -1.98771,2.49218 -5.37332,3.5375 -8.4214,3.52653 -4.01094,1.37846 -7.26906,1.55233 -11.94506,0.10601 -3.35284,-0.46525 -7.04992,0.073 -11.91857,-3.33914 -3.51413,-0.63297 -7.25095,-2.23302 -10.34031,-4.68272 -2.02032,-1.06167 -3.98136,-2.18603 -5.82065,-3.34796 -8.76999,-5.54025 -13.67925,-9.46787 -18.94336,-15.00781 -2.85486,-2.10314 -5.57182,-6.24681 -6.75,-8.83985 -2.97113,-2.26499 -5.12998,-6.37431 -5.9375,-9.0332 -1.21997,-1.35067 -1.49252,-2.47053 -1.7168,-3.86133 0.17537,-0.36204 0.32532,-1.31931 1.3711,-3.49414 1.44426,-3.0036 8.83263,-15.52371 12.01953,-20.4375 0.69999,0.144 0.81292,0.93283 1.04492,1.54883 0.444,1.17333 0.91044,2.33496 1.39844,3.48828 1.86406,2.63672 2.30388,3.79133 4.53711,6.47266 5.25996,6.73773 9.8939,11.26343 15.53515,16.96875 7.51933,6.3964 14.98091,11.70312 23.77149,14.92578 4.12126,1.512 8.53782,2.82641 12.89648,3.34375 4.81653,0.49541 6.63549,0.49153 9.23828,-0.0625 2.60279,-0.55403 4.79066,-3.90693 5.53321,-5.38282 0.74248,-1.47582 1.16425,-2.05695 1.9082,-3.39648 l 0.73047,-0.87891 1.51562,3.47266 0.25781,4.09375 c 0,0 -3.18215,6.76752 -2.49609,5.77148 l 2.02734,-2.94335 c 0.87843,-1.02801 2.19534,-2.61382 2.48351,-3.48632 0.28165,-0.85278 0.38499,-1.9175 0.0548,-3.44355 -0.61157,-2.98899 -1.72963,-5.13181 -3.09498,-7.94513 l -1.16211,-2.39454 c -0.30533,0.392 -0.46298,0.86665 -0.68164,1.30665 -1.05734,2.11992 -2.21745,4.26006 -3.46679,6.30273 -1.17733,1.928 -2.30611,4.27181 -4.37305,5.29297 -2.06694,1.02115 -4.11542,0.77478 -7.81445,0.36133 -3.6991,-0.41344 -9.70985,-1.84826 -14.15235,-3.48438 -30.02226,-11.05687 -43.18076,-43.01698 -43,-43.42969 l 0.80469,-1.83789 c -0.27333,-0.0907 -1.84865,-0.23556 -2.22461,-0.25 l -0.7793,-0.0293 c -0.26366,0.0623 -0.51022,0.19708 -0.71289,0.39843 -2.28291,3.06185 -4.29932,6.40008 -6.25,9.78125 l -2.44336,4.2461 c -2.69603,4.82055 -5.45621,10.78097 -8.62434,14.06527 -3.16813,3.28431 -7.4833,4.32648 -16.03901,8.40042 -5.58489,2.65934 -11.9521,4.80098 -17.38097,6.75348 -12.10835,4.35477 -24.73607,8.22408 -30.36193,10.107 -12.35608,3.70052 -36.800681,13.25458 -46.025386,14.99609 -3.575635,1.58051 -6.535607,4.89496 -10.011719,5.52149 -5.151122,0.85743 -9.431944,5.0661 -11.296875,8.34179 -3.672409,6.4506 -11.524313,31.12888 -13.017578,41.9375 -2.479487,17.94723 -4.574465,35.57513 -5.503906,49.9668 C 29.037233,381.0199 29.709274,391.80108 29.363281,400 h 4.427735 c 0.05892,-25.92261 4.053099,-55.48197 7.054687,-78.10156 2.220845,-17.52969 7.717345,-30.27951 10.921875,-37.08008 3.160669,-6.70748 5.847984,-9.35464 8.875,-9.37305 6.302785,-0.0383 15.053316,3.62588 18.16211,6.17578 3.130021,2.81104 10.56096,8.55013 13.099609,11.2168 -3.599323,-6.23417 -7.081697,-10.63252 -12.03125,-15.25 -5.483167,-3.3559 -9.016339,-4.98036 -9.894531,-5.41406 -1.581189,-0.78087 -0.770292,-2.82739 2.193359,-4.12891 0.376941,-0.16554 3.401607,-0.54866 5.236328,-1.07617 8.538927,-2.45508 27.934327,-8.05981 32.318357,-9.65234 7.05597,-2.5632 20.61949,-5.91794 28.88086,-8.82032 2.98245,-1.04779 5.83165,-2.07929 8.50973,-3.10117 2.15746,-0.82322 11.01428,-3.8187 19.1429,-7.76432 7.60939,-3.69359 15.04247,-7.46741 15.04247,-7.46741 0.70215,0.11275 6.03637,9.51534 9.68771,13.5646 z m 82.79279,6.37567 -1.78293,3.37394 c 0.59298,0.15448 26.20456,9.0734 40.17976,13.41915 9.37853,2.91636 17.7881,5.01434 28.15999,8.35736 2.16921,0.8464 7.4464,2.38988 8.28516,2.59179 3.73305,0.89894 16.23465,5.35823 18.04419,10.07439 1.94372,6.00237 6.08145,29.98066 7.53393,40.56819 1.45255,10.58752 2.91255,20.88876 2.88672,31.49219 0.29671,8.52367 1.09587,17.04664 1.39258,25.57031 1.37118,5.60381 3.45703,10.28906 3.45703,10.28906 -0.55333,-4.43193 -0.21868,-17.99446 -0.29492,-22.78515 -0.0762,-4.79076 -0.15008,-5.17318 -0.49219,-15.28516 -0.34212,-10.11198 -1.37516,-20.84048 -3.52734,-33.34961 -2.15218,-12.50913 -2.33159,-24.56015 -7.01345,-36.39453 -3.85933,-9.75526 -16.37953,-12.03899 -25.5498,-14.85706 -12.90844,-4.10074 -23.73303,-7.2192 -36.79221,-11.2571 -10.6787,-3.30185 -33.83987,-11.64696 -34.48652,-11.80777 z"
       sodipodi:nodetypes="ssssccccccsccccscccccccssccccscscscccsssccccccccssccccsccccsscccssscssscsccscssscccssssssc" /><path
       id="path21859"
       style="fill:#000000;fill-opacity:1;stroke:none;stroke-width:1px;stroke-linecap:butt;stroke-linejoin:miter;stroke-opacity:1"
       d="M 370.26758 368.40039 C 374.06719 384.62224 377.77734 400 377.77734 400 L 383.45117 400 C 383.45117 400 382.80424 399.81224 377.77734 381.08789 C 376.99398 378.17 375.85942 373.58907 374.59766 368.40039 L 370.26758 368.40039 z " /><path
       id="path21908"
       style="color:#000000;fill:#000000;fill-opacity:0.3;-inkscape-stroke:none"
       d="m 266.9707,251.30469 c 0,0 -0.7086,5.86103 -0.95919,8.88371 -0.25059,3.02268 -0.50257,9.21059 -0.50257,9.21059 l 0.6908,0.0156 c 0,0 1.13836,-6.03672 1.23483,-9.06312 0.10133,-3.17917 0.22889,-8.99134 0.22889,-8.99134 z m -7.14076,0.66851 c 0,0 -1.5412,7.21199 -2.01483,10.27677 -0.47363,3.06478 -0.91055,9.95071 -0.91055,9.95071 l 0.51387,0.17937 c 0,0 1.42456,-6.70245 1.89819,-9.7669 0.47363,-3.06445 1.23615,-10.54222 1.23615,-10.54222 z m -9.97694,-1.10326 c 0,0 -1.9772,6.5995 -2.67381,9.83159 -0.69662,3.2321 -1.54767,9.97891 -1.54767,9.97891 l 0.74313,0.16917 c 0,0 1.72643,-6.45831 2.42305,-9.69008 0.69662,-3.23177 1.71485,-10.16025 1.71485,-10.16025 z m -9.67612,-3.24885 c 0,0 -2.52645,6.74217 -3.50171,10.02961 -0.97526,3.28743 -2.43345,9.98754 -2.43345,9.98754 l 0.70603,0.15241 c 0,0 2.41364,-6.4172 3.38858,-9.70496 0.97493,-3.28776 2.46103,-10.27236 2.46103,-10.27236 z m -8.07739,-3.76528 c 0,0 -2.80786,5.32712 -4.03377,8.3919 -1.22591,3.06478 -3.53065,9.99678 -3.53065,9.99678 l 0.64547,0.28248 c 0,0 3.13921,-6.907 4.36512,-9.97145 1.22592,-3.06446 3.19931,-8.45706 3.19931,-8.45706 z m -8.51516,-5.45778 c 0,0 -2.86463,5.76482 -4.11821,8.66228 -1.25358,2.89746 -3.11073,8.97324 -3.11073,8.97324 l 0.62203,0.33522 c 0,0 2.68347,-5.56724 3.93738,-8.46503 1.25391,-2.89779 3.25173,-9.08886 3.25173,-9.08886 z m -6.82583,-6.28754 c 0,0 -3.79673,5.7165 -5.38462,8.80927 -1.58789,3.09277 -4.35168,9.70559 -4.35168,9.70559 l 0.60915,0.4524 c 0,0 3.80521,-5.90172 5.3931,-8.99417 1.58789,-3.09245 4.42678,-9.56051 4.42678,-9.56051 z m -6.6418,-6.65156 c 0,0 -3.56071,5.4372 -5.19233,8.43995 -1.63162,3.00275 -4.50138,9.57214 -4.50138,9.57214 l 0.85208,0.42624 c 0,0 3.55333,-5.73256 5.16316,-8.74363 1.60983,-3.01106 4.49071,-9.31025 4.49071,-9.31025 z m -6.12067,-8.14529 c 0,0 -3.5059,5.70083 -5.23344,8.68195 -1.72754,2.98112 -5.00641,9.49731 -5.00641,9.49731 l 0.64389,0.54421 c 0,0 4.90264,-7.52269 5.76641,-9.01325 0.86377,-1.49056 4.51524,-9.24959 4.51524,-9.24959 z m -6.39967,-8.30781 c 0,0 -3.58388,5.39095 -5.19969,8.09342 -1.61581,2.70248 -4.70412,8.79008 -4.70412,8.79008 l 0.69351,0.40126 c 0,0 3.51544,-4.98266 5.04799,-7.68513 1.53256,-2.70248 4.64881,-9.1148 4.64881,-9.1148 z"
       sodipodi:nodetypes="csccscccsccscccsccscccsccscccsccscccsccscccsccscccsccscccsccscccsccscc" /><path
       style="fill:#000000;fill-opacity:1;stroke:none;stroke-width:1px;stroke-linecap:butt;stroke-linejoin:miter;stroke-opacity:1"
       d="m 102.60047,316.31206 c 0,0 9.46636,34.29124 11.82033,48.22695 C 116.77477,378.47472 117.7305,400 117.7305,400 h 8.03782 c 0,0 -2.18323,-23.23364 -5.20094,-37.35225 -3.01771,-14.11861 -17.96691,-46.33569 -17.96691,-46.33569 z"
       id="path24240"
       sodipodi:nodetypes="czcczc" /><path
       style="fill:#000000;fill-opacity:0.2;stroke:none;stroke-width:1px;stroke-linecap:butt;stroke-linejoin:miter;stroke-opacity:1"
       d="m 108.26467,329.88152 c 0,0 15.05454,22.57727 22.05687,38.77343 7.00233,16.19616 8.44915,30.87224 8.44915,30.87224 L 121.98582,400 c 0,0 -6.14658,-41.37116 -6.14658,-43.26241 0,-1.89125 -7.57457,-26.85607 -7.57457,-26.85607 z"
       id="path29511"
       sodipodi:nodetypes="czccsc" /><path
       style="fill:#d30000;stroke-width:0.528597;fill-opacity:1"
       id="path1"
       d="" /><path
       style="fill:none;stroke:#000000;stroke-width:3.5;stroke-linecap:butt;stroke-linejoin:miter;stroke-dasharray:none;stroke-opacity:1"
       d="m 121.38728,382.2736 c 0,0 126.597,-2.9689 168.40077,-5.39499 41.80377,-2.42609 82.46629,-6.93641 82.46629,-6.93641"
       id="path7"
       sodipodi:nodetypes="czc" /><path
       style="color:#000000;fill:#000000;-inkscape-stroke:none"
       d="m 348.4822,275.31635 -3.7549,-0.0708 c 0,0 7.7361,27.86372 10.89423,50.19932 2.21556,15.66932 2.99336,46.24368 2.99336,46.24368 l 3.5,-0.0293 c 0,0 -1.3532,-30.46073 -2.99922,-46.40188 -2.21584,-21.45977 -10.63347,-49.94098 -10.63347,-49.94098 z m 19.0456,10.26004 -2.90439,0.26499 c 0,0 5.32872,30.5906 5.98401,44.22503 0.65578,13.64449 0.40625,39.68359 0.40625,39.68359 l 3.5,0.0332 c 0,0 0.25782,-25.98644 -0.41015,-39.88476 -0.66847,-13.90838 -6.57572,-44.32205 -6.57572,-44.32205 z"
       id="path15"
       sodipodi:nodetypes="ccsccscccsccscc" /><path
       style="color:#000000;fill:#000000;-inkscape-stroke:none"
       d="m 79.919922,262.7793 -1.056641,3.33789 c 0,0 8.429717,2.68946 15.986328,8.84375 7.710851,6.2799 17.534431,16.36119 25.431641,29.23047 7.8874,12.85329 15.63807,31.90892 20.24219,46.99414 4.58742,15.03052 6.48828,30.15039 6.48828,30.15039 l 3.47265,-0.43555 c 0,0 -1.91363,-15.33808 -6.61328,-30.73633 -4.68297,-15.34355 -12.45081,-34.5127 -20.60742,-47.80469 -8.14679,-13.276 -18.20271,-23.59595 -26.205076,-30.11328 -8.156607,-6.64294 -17.138672,-9.46679 -17.138672,-9.46679 z m -26.00586,11.16797 -1.013671,3.3496 c 12.612409,3.81867 18.88999,9.13301 24.916015,14.85352 6.083748,5.77531 10.69913,10.0886 15.746094,16.8125 5.145233,6.85481 9.10159,11.97978 14.09375,23.74805 2.40909,5.67907 5.7178,17.68035 8.34961,28.12109 2.63181,10.44074 4.63281,19.39844 4.63281,19.39844 l 3.41602,-0.76367 c 0,0 -2.01132,-8.99741 -4.65625,-19.49024 -2.64494,-10.49282 -5.87677,-22.40291 -8.51953,-28.63281 -5.11155,-12.04969 -9.38436,-17.64361 -14.517582,-24.48242 -5.231485,-6.96973 -10.061272,-11.48442 -16.134766,-17.25 -6.131216,-5.82037 -13.133113,-11.67374 -26.3125,-15.66406 z"
       id="path16" /><g
       id="g24"><path
         style="fill:#d30000;fill-opacity:1;stroke:none;stroke-width:2.28583;stroke-linecap:butt;stroke-linejoin:miter;stroke-dasharray:none;stroke-opacity:1"
         d="m 340.46904,271.98026 c 0,0 4.28357,-2.43076 6.84586,-2.28456 2.56228,0.14623 4.82926,2.76897 7.44768,3.4627 2.61843,0.69372 5.11018,-0.11123 7.89345,2.25307 2.78327,2.3643 3.3639,7.38636 3.98575,11.81286 0.62185,4.42652 1.28001,10.52155 1.28001,10.52155 l -15.84239,-3.79853 c 0,0 -1.38033,-8.22975 -2.32979,-11.67637 -0.94945,-3.44661 -2.88264,-7.98285 -2.88264,-7.98285 z"
         id="path9"
         sodipodi:nodetypes="czzzzcczcc" /><path
         style="color:#000000;fill:#000000;stroke-width:0.914331;-inkscape-stroke:none"
         d="m 347.37709,268.54596 c -1.66836,-0.0952 -3.42898,0.55799 -4.88485,1.17482 -1.45588,0.61683 -2.57747,1.2549 -2.57747,1.2549 l -2.18319,1.23868 2.35892,0.85139 5.89743,2.12672 c 0.19812,0.47076 1.81045,4.26807 2.66968,7.38714 0.43454,1.57744 0.85803,4.3963 1.2385,6.83783 0.19023,1.22077 0.37305,2.35137 0.5584,3.24243 0.0926,0.44554 0.1824,0.82851 0.29276,1.16481 0.0552,0.16815 0.11325,0.32349 0.20141,0.49308 0.0882,0.1696 0.17726,0.37913 0.52535,0.60281 0.24734,0.15892 0.31914,0.16402 0.48365,0.22758 0.16453,0.0636 0.36286,0.13434 0.6002,0.21551 0.47466,0.16234 1.0996,0.36382 1.83171,0.58955 1.46424,0.45149 3.35308,0.9987 5.25249,1.50683 1.8994,0.50812 3.80392,0.97629 5.32654,1.26566 0.76129,0.14471 1.42271,0.24568 1.98029,0.28234 0.27879,0.0183 0.52919,0.0229 0.79383,-0.009 0.26465,-0.0315 0.58811,-0.0295 0.99196,-0.44887 0.71234,-0.74044 0.60904,-1.47293 0.57365,-2.25752 -0.035,-0.7846 -0.17392,-1.68689 -0.3528,-2.68943 -0.35785,-2.00509 -0.88937,-4.39439 -1.19074,-6.53971 -0.61885,-4.40516 -1.05083,-9.70511 -4.38217,-12.53499 -1.56842,-1.33232 -3.17024,-1.81412 -4.58339,-2.01116 -1.41316,-0.19706 -2.6324,-0.17679 -3.75256,-0.47356 -1.04829,-0.27773 -2.19631,-1.02693 -3.43491,-1.80281 -1.2386,-0.77587 -2.59264,-1.60175 -4.23469,-1.69546 z m -0.12349,2.30004 c 0.92023,0.0526 1.97941,0.6095 3.16947,1.35498 1.19007,0.74548 2.48385,1.65624 4.05398,2.07223 1.49827,0.39695 2.83384,0.36105 4.01699,0.52602 1.18313,0.16498 2.21936,0.46215 3.43422,1.49413 2.23518,1.89872 2.96526,6.64474 3.5901,11.09259 0.32048,2.2812 0.86213,4.7001 1.20548,6.62394 0.17168,0.96191 0.29178,1.80414 0.31798,2.38515 0.007,0.14655 -0.0165,0.20097 -0.031,0.30247 -0.39314,-0.0305 -0.95027,-0.10642 -1.62832,-0.23529 -1.42349,-0.27053 -3.29742,-0.72911 -5.1658,-1.22895 -1.86838,-0.49981 -3.73656,-1.04162 -5.17071,-1.48384 -0.71708,-0.2211 -1.32751,-0.41751 -1.76761,-0.56803 -0.16706,-0.0571 -0.28107,-0.0993 -0.39266,-0.14066 -0.0598,-0.19102 -0.13442,-0.47883 -0.21229,-0.85314 -0.16649,-0.80042 -0.3464,-1.91363 -0.53545,-3.12684 -0.37811,-2.42641 -0.78135,-5.2297 -1.29626,-7.09887 -0.98753,-3.58483 -2.93338,-8.12903 -2.93338,-8.12903 l -0.19673,-0.46201 -4.27698,-1.54193 c 1.31503,-0.55005 2.93987,-1.03309 3.8188,-0.98294 z"
         id="path8" /><path
         style="fill:#000000;fill-opacity:0.2;stroke:none;stroke-width:0.914331px;stroke-linecap:butt;stroke-linejoin:miter;stroke-opacity:1"
         d="m 346.77287,274.36939 -6.04236,-2.36757 2.9555,-1.89302 2.22745,-0.43955 c 0,0 3.49092,2.9476 4.49915,5.26726 1.00821,2.31967 2.0462,5.89234 2.62508,9.02994 0.57886,3.13761 1.13345,10.15335 1.13345,10.15335 l -2.41261,-0.55495 c 0,0 -1.70106,-8.50865 -1.69802,-9.66574 0.003,-1.15709 -3.28763,-9.52968 -3.28763,-9.52968 z"
         id="path10"
         sodipodi:nodetypes="cccczzccscc" /></g><g
       id="g23"><path
         style="fill:#d30000;fill-opacity:1;stroke:none;stroke-width:3;stroke-linecap:butt;stroke-linejoin:miter;stroke-dasharray:none;stroke-opacity:1"
         d="m 50.74602,277.33696 c 0,0 -1.129881,-4.75939 0.741016,-7.21797 1.870941,-2.45858 7.460036,-2.40158 10.509068,-4.10166 3.049033,-1.70009 3.890337,-5.3561 7.722034,-5.81175 3.831696,-0.45565 8.296843,2.89576 12.377946,5.35709 4.081102,2.46132 8.424929,6.41046 11.776364,9.46367 3.351435,3.05321 8.898382,7.26887 8.419292,8.68261 -0.47909,1.41374 -13.130562,10.6475 -14.874034,10.69448 -1.743472,0.047 -9.103526,-7.12499 -14.009144,-10.51398 C 68.502944,280.50046 57.99012,274.1092 57.99012,274.1092 Z"
         id="path5"
         sodipodi:nodetypes="czzzzzzzzcc" /><path
         style="color:#000000;fill:#000000;-inkscape-stroke:none"
         d="m 69.540376,258.71587 c -2.370194,0.28185 -3.945526,1.65638 -5.090305,2.92207 -1.144781,1.26568 -2.008713,2.41443 -3.185031,3.07033 -1.177797,0.65671 -3.25974,1.09966 -5.331768,1.62025 -2.072032,0.52056 -4.265163,1.07641 -5.639911,2.88299 -1.306035,1.71628 -1.431024,3.82744 -1.377137,5.48722 0.05389,1.65978 0.37114,2.98389 0.37114,2.98389 l 0.417412,1.75978 1.651599,-0.73493 5.418965,-3.99226 c 0.830737,0.50615 11.179358,7.22978 15.781437,10.40908 2.334315,1.61263 5.397094,4.24135 8.08576,6.4666 1.344334,1.11262 2.59623,2.12411 3.672062,2.88829 0.537917,0.38209 1.029449,0.70306 1.505513,0.95293 0.476063,0.24986 0.891467,0.49161 1.63725,0.47151 0.854816,-0.023 1.178798,-0.28538 1.757574,-0.57754 0.578679,-0.29259 1.243758,-0.67886 1.986288,-1.14044 1.485069,-0.92316 3.265067,-2.14084 5.007434,-3.40231 1.74238,-1.26146 3.441175,-2.56296 4.760832,-3.66057 0.65982,-0.54881 1.22362,-1.04379 1.66799,-1.47993 0.44437,-0.43614 0.77188,-0.56022 1.07414,-1.4522 0.23745,-0.70068 0.0612,-1.29431 -0.1329,-1.73753 -0.19416,-0.44321 -0.45051,-0.81501 -0.75036,-1.19602 -0.5997,-0.76205 -1.3926,-1.54616 -2.29244,-2.37719 -1.799653,-1.66204 -4.027716,-3.48191 -5.652942,-4.96251 -3.35242,-3.05411 -7.727068,-7.05462 -12.012705,-9.6393 -1.9899,-1.2001 -4.145917,-2.67085 -6.367325,-3.8194 -2.221407,-1.14855 -4.550664,-2.02963 -6.962567,-1.74282 z m 0.354125,2.97993 c 1.41979,-0.16883 3.240612,0.39811 5.229976,1.42669 1.989361,1.02858 4.105075,2.46459 6.196281,3.7258 3.876556,2.33797 8.190135,6.2341 11.540585,9.28641 1.726206,1.5726 3.947932,3.38709 5.639819,4.94961 0.845946,0.78125 1.559638,1.50721 1.969978,2.02863 0.10787,0.13701 0.12776,0.18913 0.18902,0.28611 -0.0713,0.10436 0.005,-0.0245 -0.12419,0.10202 -0.34602,0.33963 -0.863585,0.79909 -1.484452,1.31549 -1.241726,1.03279 -2.90352,2.30657 -4.601834,3.53614 -1.698307,1.22956 -3.438573,2.41817 -4.83098,3.28373 -0.696202,0.43279 -1.308853,0.78648 -1.757635,1.01338 -0.448783,0.22691 -0.902301,0.26564 -0.483359,0.25432 0.309927,-0.008 0.116196,0.019 -0.163115,-0.12763 -0.279312,-0.14659 -0.687871,-0.40539 -1.161785,-0.74201 -0.94783,-0.67327 -2.170818,-1.65723 -3.497632,-2.75535 -2.653626,-2.19624 -5.722759,-4.84722 -8.294059,-6.62357 -5.004545,-3.45733 -16.919272,-10.33549 -18.295775,-9.8179 -1.376502,0.51759 -3.927835,3.13506 -3.927835,3.13506 -0.02579,-0.26596 -0.114082,-1.06698 -0.124005,-1.3712 -0.04333,-1.33456 0.202062,-2.83146 0.766922,-3.57375 0.496186,-0.65203 2.033192,-1.29938 3.985702,-1.78995 1.952503,-0.49061 4.188223,-0.86763 6.059457,-1.91099 1.872712,-1.04419 2.953894,-2.57401 3.949946,-3.67526 0.996053,-1.10126 1.757468,-1.78199 3.218967,-1.95579 z"
         id="path4"
         sodipodi:nodetypes="ssssssccccssssscssssssssssssssssssscssssscsssszccssssss" /></g><path
       id="path283456"
       style="display:inline;opacity:0.199997;fill:#000000;fill-opacity:1;fill-rule:nonzero;stroke:none;stroke-width:1.33333"
       d="m 198.26953,198.57812 c -5.87125,7.58174 -9.13122,13.07209 -12.94166,20.69353 -2.58726,4.98786 -8.51114,9.58753 -10.26075,10.44032 -1.45631,0.70984 -7.92061,4.29164 -10.38594,5.3281 -13.20776,5.55272 -71.79502,25.45616 -83.554941,29.21242 -0.739507,0.23621 -4.019402,-2.3761 -6.636686,-3.33383 -2.261561,-0.82757 -4.986153,-1.02928 -6.948871,0.19925 -1.484863,0.92942 -13.945159,7.33273 -15.550728,8.13595 -1.450566,0.72568 -0.626723,5.07095 -1.269303,5.35539 -6.93898,2.88838 3.790381,1.85235 0.886394,4.45902 -9.815563,11.62157 -6.079854,17.55172 -10.976182,36.05282 -3.949401,17.25624 -5.045934,35.59439 -6.632812,50.42774 -1.107997,6.5053 -0.996702,8.3986 -2.472656,17.39258 0.117676,5.33142 -0.859205,8.65655 -0.283203,11.86718 l 0.240234,0.47852 c 0.446663,2.49334 1.181016,2.08502 1.541016,4.67969 h 20.166015 c 0.196,-3.43334 -0.167178,-7.00222 -0.08984,-10.29688 0.04199,-1.77404 0.234596,-3.53043 0.482422,-5.28125 0.403551,-0.46383 0.822501,-0.9337 1.263672,-1.41015 7.254661,-7.8348 23.254259,-27.69124 26.951172,-36.40625 3.696913,-8.71504 4.563854,-8.99241 1.890625,-11.34766 -2.673229,-2.35525 -3.582568,-0.75698 -9.455078,2.83594 -3.628346,2.21987 -8.837341,7.53117 -13.671875,13.01367 1.1467,-3.62844 2.455858,-7.18804 3.972656,-10.64844 5.682605,-10.91968 7.045433,-14.963 12.228516,-24.2539 8.061597,-9.83474 8.6798,-10.66472 17.27539,-16.04688 9.830743,-5.05828 15.434243,-7.80901 26.708973,-12.52148 16.215,-6.63763 32.36899,-9.98041 40.02735,-12.48633 14.94145,-4.88905 26.3868,-8.36228 37.93009,-10.96583 6.58022,-1.48415 15.65975,-3.13577 15.65975,-3.13577 0,0 -4.66506,-2.78816 -12.87791,-10.61809 3.89026,3.12843 8.86386,6.72916 10.88645,6.84992 2.10193,0.12551 10.14762,-19.06171 9.84498,-20.8119 -0.30264,-1.75019 -4.64244,-4.83539 -6.65039,-6.81446 -8.344,-8.22395 -11.49162,-13.09021 -15.24219,-26.77539 z m 25.6543,38.9961 -8.89063,21.37109 c 2.4623,1.75888 4.43488,2.90164 5.29102,2.58399 2.64775,-0.99142 10.23586,-17.36992 7.78125,-20.61914 -0.89949,-1.19069 -2.55845,-1.9373 -4.18164,-3.33594 z m 8.36914,5.57031 -8.46289,21.05469 c 2.26798,1.09221 4.33132,1.48349 6.2168,0.76758 2.97647,-1.13017 7.32992,-14.37837 5.28515,-19.58594 -0.29205,-0.74379 -1.58725,-1.10106 -3.03906,-2.23633 z m 8.02539,4.11914 -5.32422,18.99024 c 4.69236,-0.18256 6.58671,-2.9039 7.54883,-5.69336 0.81581,-2.36531 1.1957,-11.29642 -2.22461,-13.29688 z M 93.066406,354.63672 c -2.813999,-0.0777 -6.610824,5.14721 -11.550781,12.05078 C 76.246337,374.05131 66.666016,400 66.666016,400 h 21.277343 c 0,0 6.295585,-20.76708 6.925782,-28.61719 0.630195,-7.85011 1.61037,-15.80403 -1.251953,-16.6582 -0.178896,-0.0534 -0.363182,-0.0827 -0.550782,-0.0879 z"
       sodipodi:nodetypes="cssssssscccccccccccsssscccccssccssscccccscccsscccsccsccsscc" /><path
       style="color:#000000;fill:#000000;fill-opacity:0.2;-inkscape-stroke:none"
       d="m 153.27148,381.85156 -1.90039,0.625 c 0,0 0.54655,1.66022 1.25,3.57422 0.70346,1.91401 1.5159,4.02697 2.25586,5.22266 1.11685,1.80468 5.73047,8.72656 5.73047,8.72656 h 1.6836 c 0,0 -4.64122,-8.04565 -5.7129,-9.77734 -0.49835,-0.80528 -1.39006,-2.98389 -2.08007,-4.86133 -0.69002,-1.87744 -1.22657,-3.50977 -1.22657,-3.50977 z m -4.11132,0.34766 -1.85352,0.74805 c 0,0 2.07005,5.13476 3.57617,8.11523 1.5154,2.99883 5.35156,8.9375 5.35156,8.9375 h 1.71094 c 0,0 -3.86648,-7.04788 -5.27734,-9.83984 -1.42014,-2.81033 -3.50781,-7.96094 -3.50781,-7.96094 z"
       id="path19"
       sodipodi:nodetypes="ccssccsscccsccsc" /><path
       id="rect7"
       style="fill:#9d9d9d;fill-rule:evenodd;stroke:#000000;stroke-width:2;stroke-linecap:round;stroke-miterlimit:10"
       d="m 158.02177,372.41304 49.57992,-1.84637 c 1.7034,-0.0634 3.1978,1.25949 3.35068,2.96622 l 1.06934,11.9378 c 0.15288,1.70672 -1.09537,3.13179 -2.79877,3.19523 l -49.57992,1.84638 c -1.7034,0.0634 -3.1978,-1.2595 -3.35068,-2.96622 L 155.223,375.60827 c -0.15288,-1.70672 1.09537,-3.13179 2.79877,-3.19523 z" /><path
       style="color:#000000;fill:#000000;fill-opacity:0.2;-inkscape-stroke:none"
       d="m 356.91874,372.77344 c 0,0 -0.20371,8.93201 -0.57617,13.4082 C 355.97019,390.657 354.65898,400 354.65898,400 h 0.99023 c 0,0 1.31036,-9.17842 1.68945,-13.73438 0.37903,-4.55512 0.58008,-13.4707 0.58008,-13.4707 z m -2.69726,0.42968 c 0,0 -0.22502,7.8355 -0.625,12.25196 -0.3994,4.40995 -1.875,14.54492 -1.875,14.54492 h 0.98828 c 0,0 1.47573,-9.95824 1.88281,-14.45313 0.4065,-4.48837 0.62695,-12.31445 0.62695,-12.31445 z"
       id="path21"
       sodipodi:nodetypes="csccscccsccscc" /><g
       id="g22"><path
         id="path39671"
         style="fill:#d9a14b;fill-opacity:1;stroke:#000000;stroke-width:1;stroke-miterlimit:9;stroke-dasharray:none;stroke-opacity:1"
         d="m 334.56275,359.42583 a 17.79091,16.301007 43.747616 0 0 -15.53981,17.02972 17.79091,16.301007 43.747616 0 0 18.51962,17.02973 17.79091,16.301007 43.747616 0 0 15.53981,-17.02973 17.79091,16.301007 43.747616 0 0 -18.51962,-17.02972 z m 0.26029,2.97512 a 14.68328,13.453626 43.747616 0 1 15.28422,14.0546 14.68328,13.453626 43.747616 0 1 -12.8249,14.05553 14.68328,13.453626 43.747616 0 1 -15.28523,-14.05553 14.68328,13.453626 43.747616 0 1 12.82591,-14.0546 z" /><path
         style="fill:#d9a14b;fill-opacity:1;stroke:#000000;stroke-width:1.1;stroke-linecap:butt;stroke-linejoin:miter;stroke-dasharray:none;stroke-opacity:1"
         d="m 324.53536,397.90208 c 0.10721,-14.94042 2.99839,-29.8037 9.84226,-41.81261 7.71629,11.77748 12.77977,24.09496 16.40832,37.64678 0,0 -5.76827,-10.91686 -9.21292,-10.9546 -6.15823,-0.19203 -17.03766,15.12043 -17.03766,15.12043 z"
         id="path39673"
         sodipodi:nodetypes="ccccc" /><path
         style="fill:#000000;fill-opacity:1;stroke:none;stroke-width:0.469126px;stroke-linecap:butt;stroke-linejoin:miter;stroke-opacity:1"
         d="m 334.99747,373.75568 0.34921,-11.88033 2.57555,11.80318 3.34809,1.23433 -2.82353,1.23432 0.6557,3.0858 -2.41653,-2.93151 -1.7927,3.31723 0.0753,-3.54867 -3.053,-1.38861 z"
         id="path39675" /></g></g></svg>
