<?xml version="1.0" encoding="UTF-8" standalone="no"?>
<!-- Created with Inkscape (http://www.inkscape.org/) -->

<svg
   version="1.1"
   id="svg13526"
   width="400"
   height="400"
   viewBox="0 0 400 400"
   sodipodi:docname="Eyes1.svg"
   inkscape:version="1.2.2 (b0a8486, 2022-12-01)"
   xmlns:inkscape="http://www.inkscape.org/namespaces/inkscape"
   xmlns:sodipodi="http://sodipodi.sourceforge.net/DTD/sodipodi-0.dtd"
   xmlns="http://www.w3.org/2000/svg"
   xmlns:svg="http://www.w3.org/2000/svg">
  <defs
     id="defs13530" />
  <sodipodi:namedview
     id="namedview13528"
     pagecolor="#ffffff"
     bordercolor="#666666"
     borderopacity="1.0"
     inkscape:showpageshadow="2"
     inkscape:pageopacity="0.0"
     inkscape:pagecheckerboard="0"
     inkscape:deskcolor="#d1d1d1"
     showgrid="false"
     inkscape:zoom="2.045"
     inkscape:cx="200"
     inkscape:cy="200"
     inkscape:window-width="1988"
     inkscape:window-height="1038"
     inkscape:window-x="2435"
     inkscape:window-y="179"
     inkscape:window-maximized="0"
     inkscape:current-layer="g1762">
    <inkscape:page
       x="0"
       y="0"
       id="page13532"
       width="400"
       height="400" />
  </sodipodi:namedview>
  <g
     id="g13534"
     inkscape:groupmode="layer"
     inkscape:label="Page 1">
    <path
       d="m 336.80719,143.55774 c 0.612,-0.15067 0.89867,-0.34267 0.89867,-0.34267 l 2.96666,-2.912 -0.0587,-5.84266 -7.29467,-0.92934 c 0,0 -6.65466,1.56934 -8.02133,2.90667 -1.36533,1.336 -2.03467,4.272 -2.064,4.35867 0,0 0.14533,0.90133 0.69867,1.01733 0.552,0.116 3.57466,2.03467 4.64933,1.976 1.076,-0.0573 8.22533,-0.232 8.22533,-0.232"
       style="fill:#ffffff;fill-opacity:1;fill-rule:nonzero;stroke:none;stroke-width:1.33333"
       id="path14542" />
    <path
       d="m 268.14893,138.39214 4.85866,-2.45733 15.63734,-0.55867 5.75333,2.68133 3.072,3.016 -1.22933,1.56267 -3.63067,0.224 c 0,0 -2.34533,1.84267 -4.85867,1.78667 -2.51333,-0.056 -14.464,-1.284 -14.464,-1.284 l -5.41733,-4.412 z"
       style="fill:#ffffff;fill-opacity:1;fill-rule:nonzero;stroke:none;stroke-width:1.33333"
       id="path14546" />
    <path
       d="m 277.90026,135.41161 c -0.36667,0.83066 -0.57333,1.748 -0.57333,2.71333 0,2.252 1.13333,4.46 2.82933,5.684 l 6.352,0.59733 c 2.51733,-0.97866 4.304,-3.41866 4.304,-6.28133 0,-0.84267 -0.16133,-1.64667 -0.444,-2.392 -3.116,-0.96667 -8.88667,-0.65067 -12.468,-0.32133"
       style="fill:#754324;fill-opacity:1;fill-rule:nonzero;stroke:none;stroke-width:1.33333"
       id="path14550" />
    <path
       d="m 286.93853,138.12521 c 0,1.584 -1.284,2.86933 -2.86934,2.86933 -1.584,0 -2.868,-1.28533 -2.868,-2.86933 0,-1.584 1.284,-2.86934 2.868,-2.86934 1.58534,0 2.86934,1.28534 2.86934,2.86934"
       style="fill:#000000;fill-opacity:1;fill-rule:nonzero;stroke:none;stroke-width:1.33333"
       id="path14554" />
    <path
       d="m 280.32893,143.35934 6.11066,0.57333 c 2.37734,-0.96933 3.908,-3.23733 3.908,-5.808 0,-0.68 -0.11333,-1.356 -0.33733,-2.012 -3.06133,-0.85733 -8.55867,-0.55066 -11.78933,-0.264 -0.28534,0.72934 -0.42934,1.49334 -0.42934,2.276 0,2.02534 0.992,4.06534 2.53734,5.23467 m 6.244,1.52 -6.58534,-0.61867 -0.10266,-0.0747 c -1.836,-1.324 -3.02134,-3.704 -3.02134,-6.06134 0,-1.00266 0.20534,-1.97866 0.612,-2.9 l 0.10934,-0.25066 0.27333,-0.0253 c 4.06533,-0.37333 9.56,-0.61866 12.64667,0.34134 l 0.216,0.0667 0.0813,0.212 c 0.31467,0.828 0.47467,1.688 0.47467,2.556 0,2.99334 -1.80667,5.628 -4.60134,6.71467 z"
       style="fill:#000000;fill-opacity:1;fill-rule:nonzero;stroke:none;stroke-width:1.33333"
       id="path14558" />
    <path
       d="m 283.14293,137.38521 c 0,0.86933 -0.704,1.57333 -1.57334,1.57333 -0.86933,0 -1.57333,-0.704 -1.57333,-1.57333 0,-0.86934 0.704,-1.57334 1.57333,-1.57334 0.86934,0 1.57334,0.704 1.57334,1.57334"
       style="fill:#ffffff;fill-opacity:1;fill-rule:nonzero;stroke:none;stroke-width:1.33333"
       id="path14562" />
    <path
       d="m 297.73679,141.40534 c 0,0 -3.644,-6.56 -8.92933,-6.924 -5.284,-0.36533 -12.756,0.54667 -15.85333,0.54667 -3.09867,0 -6.196,3.644 -6.196,3.644 0,0 4.00933,4.556 7.10666,4.92 l -4.556,-4.92 c 0,0 2.36934,-1.82267 5.468,-2.004 3.09734,-0.18267 11.48,-0.18267 14.03067,0.18133 2.552,0.36533 8.92933,4.556 8.92933,4.556"
       style="fill:#000000;fill-opacity:1;fill-rule:nonzero;stroke:none;stroke-width:1.33333"
       id="path14566" />
    <path
       d="m 332.48479,134.22507 c -1.16,0.44934 -3.236,0.37867 -4.04533,0.812 -1.47733,0.792 -2.084,1 -3.4,3.292 0.27333,2.52667 1.68267,4.336 3.54667,5.112 l 6.40533,-0.23466 c 1.636,-1.26534 2.6,-3.54 2.6,-5.868 0,-0.99867 -0.2,-1.94534 -0.552,-2.804 -1.30267,-0.12934 -2.904,-0.25467 -4.55467,-0.30934"
       style="fill:#754324;fill-opacity:1;fill-rule:nonzero;stroke:none;stroke-width:1.33333"
       id="path14578" />
    <path
       d="m 334.71679,138.09081 c 0,1.63733 -1.328,2.96533 -2.96533,2.96533 -1.63733,0 -2.96533,-1.328 -2.96533,-2.96533 0,-1.63734 1.328,-2.96534 2.96533,-2.96534 1.63733,0 2.96533,1.328 2.96533,2.96534"
       style="fill:#000000;fill-opacity:1;fill-rule:nonzero;stroke:none;stroke-width:1.33333"
       id="path14582" />
    <path
       d="m 331.00186,136.04921 c 0,0.89866 -0.728,1.62666 -1.62667,1.62666 -0.89733,0 -1.62666,-0.728 -1.62666,-1.62666 0,-0.89867 0.72933,-1.62667 1.62666,-1.62667 0.89867,0 1.62667,0.728 1.62667,1.62667"
       style="fill:#ffffff;fill-opacity:1;fill-rule:nonzero;stroke:none;stroke-width:1.33333"
       id="path14586" />
    <path
       d="m 325.51799,138.42707 c 0.27334,2.10667 1.44134,3.792 3.15467,4.54667 l 6.14933,-0.22533 c 1.42533,-1.172 2.30533,-3.22934 2.30533,-5.40934 0,-0.816 -0.14,-1.612 -0.41733,-2.37066 -1.464,-0.14 -2.85867,-0.232 -4.14933,-0.27734 -0.60933,0.21734 -1.38133,0.31067 -2.128,0.40134 -0.70667,0.0853 -1.43867,0.17466 -1.77467,0.35333 l -0.28533,0.15333 c -1.224,0.648 -1.74533,0.92534 -2.85467,2.828 m 2.984,5.48134 -0.0947,-0.0387 c -2.12,-0.884 -3.552,-2.936 -3.82934,-5.492 l -0.016,-0.14933 0.0747,-0.13067 c 1.29467,-2.25467 2.008,-2.63333 3.30133,-3.31867 l 0.28267,-0.15066 c 0.48933,-0.26134 1.272,-0.35734 2.1,-0.45734 0.72933,-0.088 1.48267,-0.17866 1.996,-0.37866 l 0.088,-0.0333 0.096,0.003 c 1.41866,0.0467 2.96133,0.15067 4.584,0.31067 l 0.27733,0.028 0.10533,0.25733 c 0.39067,0.948 0.588,1.95067 0.588,2.98133 0,2.51867 -1.06533,4.908 -2.78,6.23467 l -0.11866,0.0907 z"
       style="fill:#000000;fill-opacity:1;fill-rule:nonzero;stroke:none;stroke-width:1.33333"
       id="path14590" />
    <path
       d="m 336.83719,134.88894 c 2.968,0.556 2.448,1.69467 2.448,4.144 0,2.448 -2.47733,4.52533 -2.47733,4.52533 3.57866,-0.56533 4.73866,-4.14933 4.73866,-4.14933 l 1.31734,-5.65067 c 0,0 -3.75467,-0.75333 -9.79333,-0.75333 -2.48667,0 -6.48267,1.97467 -7.30534,2.50267 -0.82266,0.52933 -2.292,4.232 -2.292,4.232 0,0 2.40934,-3.11467 3.87867,-3.644 1.46933,-0.52934 5.86533,-1.884 9.48533,-1.20667"
       style="fill:#000000;fill-opacity:1;fill-rule:nonzero;stroke:none;stroke-width:1.33333"
       id="path14594" />
    <path
       d="m 296.21826,146.14321 c 0,0 -6.07467,2.916 -12.392,2.916 0,0 9.23333,2.18666 12.392,-2.916"
       style="fill:#000000;fill-opacity:1;fill-rule:nonzero;stroke:none;stroke-width:1.33333"
       id="path14610" />
    <path
       d="m 326.45453,146.87201 c 0,0 7.91066,3.516 11.30133,1.884 0,0 -4.52133,3.38933 -11.30133,-1.884"
       style="fill:#000000;fill-opacity:1;fill-rule:nonzero;stroke:none;stroke-width:1.33333"
       id="path14614" />
    <path
       d="m 321.49759,139.62561 c 0,0 3.836,5.92933 9.76534,5.40533 5.92799,-0.52267 6.79999,-0.17467 8.54399,-1.56933 0,0 -0.092,4.484 -2.052,5.29333 -1.95866,0.80933 -8.06133,0.46133 -10.50266,-1.45733 -2.44133,-1.91734 -5.75467,-7.672 -5.75467,-7.672"
       style="opacity:0.199997;fill:#000000;fill-opacity:1;fill-rule:nonzero;stroke:none;stroke-width:1.33333"
       id="path14624" />
    <path
       d="m 277.20666,122.88561 29.46933,2.78933"
       style="opacity:0.199997;fill:#000000;fill-opacity:1;fill-rule:nonzero;stroke:none;stroke-width:1.33333"
       id="path14656" />
    <path
       id="path1740"
       style="opacity:0.199997;fill:#000000;fill-opacity:1;fill-rule:nonzero;stroke:none;stroke-width:1.33333"
       d="m 298.12109,139 c 0.0973,1.51614 0.0189,3.05925 -0.33789,3.41602 -0.69734,0.69732 -2.44142,1.22001 -5.58008,3.13867 -3.13866,1.91867 -10.46353,0.52267 -15.51953,0 -5.05732,-0.52266 -10.98589,-4.70878 -10.11523,-3.66211 0.872,1.04533 6.1045,6.27692 10.8125,7.32226 4.70799,1.04666 15.17097,-0.17229 19.18164,-2.26562 3.35196,-1.74842 2.44902,-4.59582 3.58008,-7.94922 z" />
  </g>
  <g
     inkscape:groupmode="layer"
     id="layer2"
     inkscape:label="Nose Edge"
     sodipodi:insensitive="true">
    <path
       d="m 305.35226,133.99374 1.488,12.008 c 0,0 -2.48,-10.916 -3.076,-11.71067 -0.59467,-0.79333 -2.67867,2.68 -2.67867,2.68 l 3.77067,-6.352 z"
       style="fill:#000000;fill-opacity:1;fill-rule:nonzero;stroke:none;stroke-width:1.33333"
       id="path14606" />
  </g>
  <g
     inkscape:groupmode="layer"
     id="layer1"
     inkscape:label="Vulcan Brows"
     style="display:none"
     sodipodi:insensitive="true">
    <path
       id="path14574"
       style="fill:#000000;fill-opacity:1;fill-rule:nonzero;stroke:none;stroke-width:1.33333"
       d="m 323.65266,135.83067 c 0,0 4.52,-5.27333 10.924,-5.83866 z m -24.64027,1.38347 c 0,0 -4.92,-5.284 -8.56533,-6.196 -3.644,-0.91067 -13.848,-1.64 -16.03467,-0.728 0,0 12.39067,-0.18267 15.124,1.82133 2.73334,2.00534 10.56934,6.92534 9.476,5.10267" />
    <path
       id="path14602"
       style="fill:#000000;fill-opacity:1;fill-rule:nonzero;stroke:none;stroke-width:1.33333"
       d="m 287.17399,122.25401 c 4.03867,1.552 15.69734,1.51866 17.19334,1.46666 1.496,-0.0533 3.092,0.28534 3.092,0.28534 0,0 -1.792,3.61733 -3.58667,4.964 -1.79467,1.348 -14.52933,-0.80534 -19.75067,-2.264 -13.80533,-3.85734 -16.94,-9.22934 -21.03466,-9.56134 0,0 7.72533,-1.17866 24.08666,5.10934 m 46.24467,-0.59014 c -5.932,0.42267 -7.71467,4.136 -9.98267,6.404 -3.39066,3.39067 4.144,-0.75333 9.04134,-1.50666 4.89733,-0.75334 7.66666,-1.58267 9.41733,-0.94134 1.62266,0.59334 5.04266,-4.24133 4.80666,-7.54266 0,0 -2.39466,2.81066 -13.28266,3.58666" />
    <path
       id="path14640"
       style="opacity:0.199997;fill:#000000;fill-opacity:1;fill-rule:nonzero;stroke:none;stroke-width:1.33333"
       d="m 347.65372,125.15254 -3.31333,5.05733 c 0,0 -7.324,-0.69733 -10.288,0.17334 -2.964,0.872 -7.764,3.03466 -10.4,5.448 -2.90133,2.656 -4.596,-1.26267 -4.07333,-2.48267 0.524,-1.22133 4.53467,-5.232 4.53467,-5.232 l 16.73999,-5.928 c 2.45734,-1.32667 5.66,-3.52267 6.75734,-4.98667 z m -82.94669,-8.04316 c 2.104,2.47066 7.13841,13.81835 9.70508,13.17968 2.32533,-0.57733 13.95488,0.61774 16.04687,1.31641 2.09333,0.69733 6.27727,3.48626 6.97461,4.18359 0.34057,0.34057 0.59466,1.76364 0.6875,3.21094 h 2.02149 c 0.22226,-0.65898 0.51547,-1.33556 0.94336,-2.0293 1.316,-2.13332 2.69353,-4.04356 3.76953,-6.35156 1.05467,-2.26 1.82031,-4.94336 1.82031,-4.94336 1.59343,-2.09131 1.99323,-5.35991 2.09375,-6.60156 -0.34292,1.54428 -2.24427,4.0868 -2.88476,4.80664 -0.732,0.824 -12.44518,2.74452 -16.5625,1.00586 -4.11734,-1.73867 -24.61524,-7.77734 -24.61524,-7.77734 z m 44.10547,1.37304 c 0,0 -0.019,0.29029 -0.043,0.58789 0.0483,-0.21903 0.0657,-0.41726 0.043,-0.58789 z" />
  </g>
  <g
     inkscape:groupmode="layer"
     id="g1762"
     inkscape:label="Standard Brows">
    <path
       id="path1756"
       style="fill:#000000;fill-opacity:1;fill-rule:nonzero;stroke:none;stroke-width:1.33333"
       d="m 323.65266,135.83067 c 0,0 4.52,-5.27333 10.924,-5.83866 z m -24.64027,1.38347 c 0,0 -4.92,-5.284 -8.56533,-6.196 -3.644,-0.91067 -13.848,-1.64 -16.03467,-0.728 0,0 12.39067,-0.18267 15.124,1.82133 2.73334,2.00534 10.56934,6.92534 9.476,5.10267" />
    <path
       id="path1760"
       style="opacity:0.199997;fill:#000000;fill-opacity:1;fill-rule:nonzero;stroke:none;stroke-width:1.33333"
       d="m 347.65372,125.15254 -3.31333,5.05733 c 0,0 -7.324,-0.69733 -10.288,0.17334 -2.964,0.872 -7.764,3.03466 -10.4,5.448 -2.90133,2.656 -4.596,-1.26267 -4.07333,-2.48267 0.524,-1.22133 4.53467,-5.232 4.53467,-5.232 l 16.73999,-5.928 c 2.45734,-1.32667 5.66,-3.52267 6.75734,-4.98667 z m -82.94669,-8.04316 c 2.104,2.47066 7.13841,13.81835 9.70508,13.17968 2.32533,-0.57733 13.95488,0.61774 16.04687,1.31641 2.09333,0.69733 6.27727,3.48626 6.97461,4.18359 0.34057,0.34057 0.59466,1.76364 0.6875,3.21094 h 2.02149 c 0.22226,-0.65898 0.51547,-1.33556 0.94336,-2.0293 1.316,-2.13332 2.69353,-4.04356 3.76953,-6.35156 1.05467,-2.26 1.82031,-4.94336 1.82031,-4.94336 1.59343,-2.09131 1.99323,-5.35991 2.09375,-6.60156 -0.34292,1.54428 -2.24427,4.0868 -2.88476,4.80664 -0.732,0.824 -13.13936,1.19673 -17.60162,0.94474 -15.27941,-0.86286 -23.57612,-7.71622 -23.57612,-7.71622 z m 44.10547,1.37304 c 0,0 -0.019,0.29029 -0.043,0.58789 0.0483,-0.21903 0.0657,-0.41726 0.043,-0.58789 z"
       sodipodi:nodetypes="ccccccccccccscccccccscccc" />
    <path
       id="path1758"
       style="fill:#383838;fill-opacity:1;fill-rule:nonzero;stroke:none;stroke-width:1.33333"
       d="m 304.36733,123.72067 c 1.50378,0.10068 3.092,0.28534 3.092,0.28534 0,0 -1.792,3.61733 -3.58667,4.964 -1.79467,1.348 -9.09626,-0.64286 -23.72378,-1.40825 -14.62751,-0.7654 -13.19106,-7.2974 -15.84213,-10.61837 0,0 8.38659,3.98956 22.86724,5.31062 14.48065,1.32106 15.68956,1.36598 17.19334,1.46666 z m 19.06866,4.3472 c -3.39066,3.39067 4.17282,-0.58525 9.04134,-1.50666 3.98046,-0.75334 6.13732,-1.40675 10.15083,-0.81909 4.0135,0.58766 4.30916,-4.36358 4.07316,-7.66491 0,0 -2.39466,2.81066 -13.28266,3.58666 -5.932,0.42267 -7.71467,4.136 -9.98267,6.404 z"
       sodipodi:nodetypes="zcczczzsszccs" />
    <path
       style="color:#000000;fill:#000000;-inkscape-stroke:none"
       d="m 267.54492,123.37109 c 1.85247,2.20542 5.24056,4.0548 12.5918,4.43946 7.30462,0.38221 12.7763,1.07079 16.6582,1.49609 2.44294,0.22412 5.26664,0.69938 6.83952,-0.0935 1.57289,-0.79288 2.3578,-1.85992 2.93795,-2.92502 0.58015,-1.06511 0.86814,-1.70128 1.26941,-2.48929 -1.23628,-0.13252 -2.41282,-0.25625 -3.45703,-0.32811 -1.50775,-0.10094 -2.70761,-0.14385 -17.1875,-1.46484 -14.44399,-1.31772 -23.0816,-5.25814 -23.0816,-5.25814 0.47961,0.98181 1.57679,4.41794 3.42925,6.62335 z m -2.68139,-5.80562 c 0.81764,0.37465 8.51675,3.6822 22.28686,4.93844 14.48138,1.32112 15.70136,1.36638 17.20117,1.46679 1.3111,0.0878 1.66618,0.12542 1.98606,0.16161 -0.11746,0.23061 -0.43368,0.87509 -0.90221,1.78214 -0.57492,1.11297 -1.33859,1.83935 -2.59879,2.44448 -1.2602,0.60512 -3.95135,0.37338 -6.00862,0.14907 -3.87444,-0.42448 -9.34301,-0.81233 -16.66589,-1.1955 -7.27626,-0.38074 -10.48542,-2.17954 -12.23438,-4.26172 -1.57265,-1.87229 -1.99132,-3.80331 -3.0642,-5.48531 z m 82.04272,-0.11629 -0.39453,0.4668 c 0,0 -0.11998,0.14414 -0.49805,0.4082 -0.37807,0.26406 -1.00048,0.62992 -1.96484,1.02344 -1.92872,0.78703 -5.2245,1.67983 -10.64844,2.0664 -6.03199,0.4298 -8.31434,4.39331 -9.57874,5.95791 -1.26439,1.5646 -1.52614,1.92564 -1.77267,2.4493 0.74883,-0.0666 1.12032,-0.20353 1.52911,-0.25286 0.37723,-0.0868 0.83707,-0.22598 1.35938,-0.39844 2.08922,-0.68982 5.19299,-1.91039 7.58594,-2.36328 3.99019,-0.75518 6.09384,-1.39836 10.06836,-0.81641 1.0536,0.15427 1.90396,-0.06 2.54687,-0.5332 0.64291,-0.47322 1.07162,-1.18811 1.35547,-2.00781 0.5677,-1.6394 0.5762,-3.72369 0.45703,-5.39063 z m -1.36021,5.31923 c -0.26225,0.75732 -0.66539,1.20167 -1.19934,1.59469 -0.53395,0.39302 -1.71538,0.63037 -2.67674,0.56912 -4.22538,-0.26921 -5.28921,0.0924 -9.25993,1.0816 -2.44479,0.60905 -5.5668,1.99868 -7.62878,2.6795 -0.51549,0.17021 -0.9653,0.30635 -1.31445,0.38672 -0.31522,0.0726 -0.66915,0.268 -0.66547,0.1744 0.004,-0.0936 0.3961,-0.59437 0.81214,-1.01041 2.31816,-2.31816 3.99027,-5.91453 9.82227,-6.33008 5.46404,-0.38943 8.86254,-1.2118 10.80273,-2.10351 1.94019,-0.89171 2.04181,-0.9278 2.08961,-0.31761 0.0478,0.6102 -0.30819,1.90714 -0.78204,3.27558 z"
       id="path12880"
       sodipodi:nodetypes="ssczzccscscsscszcsscccssczccsssssccsssssscsczzs" />
    <path
       id="path12888"
       style="fill:#000000;fill-opacity:0.2;stroke:none;stroke-width:1px;stroke-linecap:butt;stroke-linejoin:miter;stroke-opacity:1"
       d="m 346.70117,118.07812 c 0,0 -0.6745,0.77361 -2.87305,1.6211 -0.6267,1.17022 -1.29666,2.21845 -1.89648,2.67187 -1.76297,1.33269 -2.13415,0.42481 -4.40039,0.97852 -2.26624,0.55371 -6.20497,1.19743 -9.16992,2.44531 -1.6119,0.67841 -3.90159,2.06788 -5.71289,3.22461 -0.73589,1.48245 5.57428,-1.65391 9.82812,-2.45898 3.98046,-0.75334 6.13884,-1.40602 10.15235,-0.81836 4.01349,0.58766 4.30826,-4.36274 4.07226,-7.66407 z m -80.07812,3.47266 c 1.51068,2.79498 4.37297,5.53281 13.52539,6.01172 14.6275,0.76539 21.92994,2.7562 23.72461,1.4082 1.79467,-1.34667 3.58593,-4.96484 3.58593,-4.96484 -1.72434,-0.16961 -0.95002,-0.13908 -2.20213,-0.22667 -0.30571,0.46404 -1.05998,0.88529 -1.95651,1.55678 -0.89653,0.67148 -1.50077,0.60497 -5.62261,0.70309 -4.0693,0.0969 -13.52567,-0.83523 -18.94921,-1.71094 -4.02483,-0.64986 -9.52381,-2.08 -12.10547,-2.77734 z"
       sodipodi:nodetypes="ccssscssccsccczssc" />
  </g>
</svg>
