<?xml version="1.0" encoding="UTF-8" standalone="no"?>
<!-- Created with Inkscape (http://www.inkscape.org/) -->

<svg
   version="1.1"
   id="svg183802"
   width="400"
   height="400"
   viewBox="0 0 400 400"
   sodipodi:docname="Eyes2.svg"
   inkscape:version="1.2.2 (b0a8486, 2022-12-01)"
   xmlns:inkscape="http://www.inkscape.org/namespaces/inkscape"
   xmlns:sodipodi="http://sodipodi.sourceforge.net/DTD/sodipodi-0.dtd"
   xmlns="http://www.w3.org/2000/svg"
   xmlns:svg="http://www.w3.org/2000/svg">
  <defs
     id="defs183806" />
  <sodipodi:namedview
     id="namedview183804"
     pagecolor="#ffffff"
     bordercolor="#666666"
     borderopacity="1.0"
     inkscape:showpageshadow="2"
     inkscape:pageopacity="0.0"
     inkscape:pagecheckerboard="0"
     inkscape:deskcolor="#d1d1d1"
     showgrid="false"
     inkscape:zoom="1.475"
     inkscape:cx="182.71186"
     inkscape:cy="200"
     inkscape:window-width="1440"
     inkscape:window-height="810"
     inkscape:window-x="2567"
     inkscape:window-y="81"
     inkscape:window-maximized="0"
     inkscape:current-layer="g183810">
    <inkscape:page
       x="0"
       y="0"
       id="page183808"
       width="400"
       height="400" />
  </sodipodi:namedview>
  <g
     id="g183810"
     inkscape:groupmode="layer"
     inkscape:label="Page 1">
    <path
       d="m 321.49759,139.62561 c 0,0 3.836,5.92933 9.76534,5.40533 5.92799,-0.52267 6.79999,-0.17467 8.54399,-1.56933 0,0 -0.092,4.484 -2.052,5.29333 -1.95866,0.80933 -8.06133,0.46133 -10.50266,-1.45733 -2.44133,-1.91734 -5.75467,-7.672 -5.75467,-7.672"
       style="opacity:0.199997;fill:#000000;fill-opacity:1;fill-rule:nonzero;stroke:none;stroke-width:1.33333"
       id="path188068" />
    <path
       d="m 323.65266,135.83067 c 2.63467,-2.41333 7.436,-4.57466 10.4,-5.44666 2.964,-0.872 10.288,-0.17467 10.288,-0.17467 l 3.31333,-5.05733 -6.80133,-2.964 -16.74,5.92933 c 0,0 -4.01067,4.01067 -4.53333,5.23067 -0.52267,1.22133 1.172,5.14 4.07333,2.48266"
       style="opacity:0.199997;fill:#000000;fill-opacity:1;fill-rule:nonzero;stroke:none;stroke-width:1.33333"
       id="path188084" />
    <path
       d="m 277.20666,122.88561 -14.82133,6.27733 c 0,0 -2.79067,0.52267 0,0 2.78933,-0.52267 9.764,1.91867 12.02666,1.12667 2.26134,-0.792 13.95467,0.61733 16.04667,1.31466 2.09333,0.69734 6.27733,3.488 6.976,4.18534 0.69733,0.69733 1.04533,5.928 0.348,6.62533 -0.69733,0.69867 -2.44133,1.22133 -5.58,3.13867 -3.13867,1.91866 -10.46267,0.524 -15.51867,0 -5.05733,-0.52267 -10.98666,-4.708 -10.11466,-3.66134 0.872,1.04667 6.104,6.27734 10.812,7.324 4.708,1.04667 15.17066,-0.17466 19.18133,-2.26666 4.01067,-2.09334 1.91733,-5.75467 4.52267,-9.97867 1.316,-2.13467 2.6,-4.08933 3.77066,-6.35067 4.05867,-7.83733 4.78934,-11.27866 4.78934,-11.27866 0,0 -4.90134,5.52666 -7.196,7.3 -2.29334,1.772 -17.32667,-6.156 -25.24267,-3.756"
       style="opacity:0.199997;fill:#000000;fill-opacity:1;fill-rule:nonzero;stroke:none;stroke-width:1.33333"
       id="path188112" />
    <path
       d="m 336.80719,143.55774 c 0.612,-0.15067 0.89867,-0.34267 0.89867,-0.34267 l 2.96666,-2.912 -0.0587,-5.84266 -7.29467,-0.92934 c 0,0 -6.65466,1.56934 -8.02133,2.90667 -1.36533,1.336 -2.03467,4.272 -2.064,4.35867 0,0 0.14533,0.90133 0.69867,1.01733 0.552,0.116 3.57466,2.03467 4.64933,1.976 1.076,-0.0573 8.22533,-0.232 8.22533,-0.232"
       style="fill:#ffffff;fill-opacity:1;fill-rule:nonzero;stroke:none;stroke-width:1.33333"
       id="path188122" />
    <path
       d="m 268.14893,138.39214 4.85866,-2.45733 15.63734,-0.55867 5.75333,2.68133 3.072,3.016 -1.22933,1.56267 -3.63067,0.224 c 0,0 -2.34533,1.84267 -4.85867,1.78667 -2.51333,-0.056 -14.464,-1.284 -14.464,-1.284 l -5.41733,-4.412 z"
       style="fill:#ffffff;fill-opacity:1;fill-rule:nonzero;stroke:none;stroke-width:1.33333"
       id="path188126" />
    <path
       d="m 277.90026,135.41161 c -0.36667,0.83066 -0.57333,1.748 -0.57333,2.71333 0,2.252 1.13333,4.46 2.82933,5.684 l 6.352,0.59733 c 2.51733,-0.97866 4.304,-3.41866 4.304,-6.28133 0,-0.84267 -0.16133,-1.64667 -0.444,-2.392 -3.116,-0.96667 -8.88667,-0.65067 -12.468,-0.32133"
       style="fill:#754324;fill-opacity:1;fill-rule:nonzero;stroke:none;stroke-width:1.33333"
       id="path188130" />
    <path
       d="m 286.93853,138.12521 c 0,1.584 -1.284,2.86933 -2.86934,2.86933 -1.584,0 -2.868,-1.28533 -2.868,-2.86933 0,-1.584 1.284,-2.86934 2.868,-2.86934 1.58534,0 2.86934,1.28534 2.86934,2.86934"
       style="fill:#000000;fill-opacity:1;fill-rule:nonzero;stroke:none;stroke-width:1.33333"
       id="path188134" />
    <path
       d="m 280.32893,143.35934 6.11066,0.57333 c 2.37734,-0.96933 3.908,-3.23733 3.908,-5.808 0,-0.68 -0.11333,-1.356 -0.33733,-2.012 -3.06133,-0.85733 -8.55867,-0.55066 -11.78933,-0.264 -0.28534,0.72934 -0.42934,1.49334 -0.42934,2.276 0,2.02534 0.992,4.06534 2.53734,5.23467 m 6.244,1.52 -6.58534,-0.61867 -0.10266,-0.0747 c -1.836,-1.324 -3.02134,-3.704 -3.02134,-6.06134 0,-1.00266 0.20534,-1.97866 0.612,-2.9 l 0.10934,-0.25066 0.27333,-0.0253 c 4.06533,-0.37333 9.56,-0.61866 12.64667,0.34134 l 0.216,0.0667 0.0813,0.212 c 0.31467,0.828 0.47467,1.688 0.47467,2.556 0,2.99334 -1.80667,5.628 -4.60134,6.71467 z"
       style="fill:#000000;fill-opacity:1;fill-rule:nonzero;stroke:none;stroke-width:1.33333"
       id="path188138" />
    <path
       d="m 283.14293,137.38521 c 0,0.86933 -0.704,1.57333 -1.57334,1.57333 -0.86933,0 -1.57333,-0.704 -1.57333,-1.57333 0,-0.86934 0.704,-1.57334 1.57333,-1.57334 0.86934,0 1.57334,0.704 1.57334,1.57334"
       style="fill:#ffffff;fill-opacity:1;fill-rule:nonzero;stroke:none;stroke-width:1.33333"
       id="path188142" />
    <path
       d="m 297.73679,141.40534 c 0,0 -3.644,-6.56 -8.92933,-6.924 -5.284,-0.36533 -12.756,0.54667 -15.85333,0.54667 -3.09867,0 -6.196,3.644 -6.196,3.644 0,0 4.00933,4.556 7.10666,4.92 l -4.556,-4.92 c 0,0 2.36934,-1.82267 5.468,-2.004 3.09734,-0.18267 11.48,-0.18267 14.03067,0.18133 2.552,0.36533 8.92933,4.556 8.92933,4.556"
       style="fill:#000000;fill-opacity:1;fill-rule:nonzero;stroke:none;stroke-width:1.33333"
       id="path188146" />
    <path
       d="m 299.01239,137.21414 c 0,0 -4.92,-5.284 -8.56533,-6.196 -3.644,-0.91067 -13.848,-1.64 -16.03467,-0.728 0,0 12.39067,-0.18267 15.124,1.82133 2.73334,2.00534 10.56934,6.92534 9.476,5.10267"
       style="fill:#000000;fill-opacity:1;fill-rule:nonzero;stroke:none;stroke-width:1.33333"
       id="path188150" />
    <path
       d="m 323.65266,135.83067 c 0,0 4.52,-5.27333 10.924,-5.83866 z"
       style="fill:#000000;fill-opacity:1;fill-rule:nonzero;stroke:none;stroke-width:1.33333"
       id="path188154" />
    <path
       d="m 332.48479,134.22507 c -1.16,0.44934 -3.236,0.37867 -4.04533,0.812 -1.47733,0.792 -2.084,1 -3.4,3.292 0.27333,2.52667 1.68267,4.336 3.54667,5.112 l 6.40533,-0.23466 c 1.636,-1.26534 2.6,-3.54 2.6,-5.868 0,-0.99867 -0.2,-1.94534 -0.552,-2.804 -1.30267,-0.12934 -2.904,-0.25467 -4.55467,-0.30934"
       style="fill:#754324;fill-opacity:1;fill-rule:nonzero;stroke:none;stroke-width:1.33333"
       id="path188158" />
    <path
       d="m 334.71679,138.09081 c 0,1.63733 -1.328,2.96533 -2.96533,2.96533 -1.63733,0 -2.96533,-1.328 -2.96533,-2.96533 0,-1.63734 1.328,-2.96534 2.96533,-2.96534 1.63733,0 2.96533,1.328 2.96533,2.96534"
       style="fill:#000000;fill-opacity:1;fill-rule:nonzero;stroke:none;stroke-width:1.33333"
       id="path188162" />
    <path
       d="m 331.00186,136.04921 c 0,0.89866 -0.728,1.62666 -1.62667,1.62666 -0.89733,0 -1.62666,-0.728 -1.62666,-1.62666 0,-0.89867 0.72933,-1.62667 1.62666,-1.62667 0.89867,0 1.62667,0.728 1.62667,1.62667"
       style="fill:#ffffff;fill-opacity:1;fill-rule:nonzero;stroke:none;stroke-width:1.33333"
       id="path188166" />
    <path
       d="m 325.51799,138.42707 c 0.27334,2.10667 1.44134,3.792 3.15467,4.54667 l 6.14933,-0.22533 c 1.42533,-1.172 2.30533,-3.22934 2.30533,-5.40934 0,-0.816 -0.14,-1.612 -0.41733,-2.37066 -1.464,-0.14 -2.85867,-0.232 -4.14933,-0.27734 -0.60933,0.21734 -1.38133,0.31067 -2.128,0.40134 -0.70667,0.0853 -1.43867,0.17466 -1.77467,0.35333 l -0.28533,0.15333 c -1.224,0.648 -1.74533,0.92534 -2.85467,2.828 m 2.984,5.48134 -0.0947,-0.0387 c -2.12,-0.884 -3.552,-2.936 -3.82934,-5.492 l -0.016,-0.14933 0.0747,-0.13067 c 1.29467,-2.25467 2.008,-2.63333 3.30133,-3.31867 l 0.28267,-0.15066 c 0.48933,-0.26134 1.272,-0.35734 2.1,-0.45734 0.72933,-0.088 1.48267,-0.17866 1.996,-0.37866 l 0.088,-0.0333 0.096,0.003 c 1.41866,0.0467 2.96133,0.15067 4.584,0.31067 l 0.27733,0.028 0.10533,0.25733 c 0.39067,0.948 0.588,1.95067 0.588,2.98133 0,2.51867 -1.06533,4.908 -2.78,6.23467 l -0.11866,0.0907 z"
       style="fill:#000000;fill-opacity:1;fill-rule:nonzero;stroke:none;stroke-width:1.33333"
       id="path188170" />
    <path
       d="m 336.83719,134.88894 c 2.968,0.556 2.448,1.69467 2.448,4.144 0,2.448 -2.47733,4.52533 -2.47733,4.52533 3.57866,-0.56533 4.73866,-4.14933 4.73866,-4.14933 l 1.31734,-5.65067 c 0,0 -3.75467,-0.75333 -9.79333,-0.75333 -2.48667,0 -6.48267,1.97467 -7.30534,2.50267 -0.82266,0.52933 -2.292,4.232 -2.292,4.232 0,0 2.40934,-3.11467 3.87867,-3.644 1.46933,-0.52934 5.86533,-1.884 9.48533,-1.20667"
       style="fill:#000000;fill-opacity:1;fill-rule:nonzero;stroke:none;stroke-width:1.33333"
       id="path188174" />
    <path
       d="m 323.43599,128.06774 c 2.268,-2.268 4.144,-5.27333 9.98267,-6.404 5.83866,-1.13067 9.41733,-3.76667 11.112,-1.69467 1.696,2.072 3.01466,4.52 1.696,6.02667 -1.31867,1.50667 -3.01334,0.94133 -4.332,-0.376 -1.31867,-1.31867 -4.52134,0.188 -9.41733,0.94133 -4.89734,0.75334 -12.432,4.89734 -9.04134,1.50667"
       style="fill:#000000;fill-opacity:1;fill-rule:nonzero;stroke:none;stroke-width:1.33333"
       id="path188178" />
    <path
       d="m 307.43626,124.16934 c 0,0 -1.78667,3.572 -3.572,4.86267 -1.78667,1.29066 -14.29067,-1.98534 -19.64933,-2.97734 -5.35867,-0.992 -20.44267,1.88534 -24.61067,4.56534 0,0 11.512,-9.328 14.98533,-11.21334 3.47334,-1.88666 8.03734,-0.39733 12.20534,0.892 4.168,1.29067 16.076,3.47334 17.56533,3.47334 1.488,0 3.076,0.39733 3.076,0.39733"
       style="fill:#000000;fill-opacity:1;fill-rule:nonzero;stroke:none;stroke-width:1.33333"
       id="path188182" />
    <path
       d="m 305.35226,133.99374 1.488,12.008 c 0,0 -2.48,-10.916 -3.076,-11.71067 -0.59467,-0.79333 -2.67867,2.68 -2.67867,2.68 l 3.77067,-6.352 z"
       style="fill:#000000;fill-opacity:1;fill-rule:nonzero;stroke:none;stroke-width:1.33333"
       id="path188186" />
    <path
       d="m 296.21826,146.14321 c 0,0 -6.07467,2.916 -12.392,2.916 0,0 9.23333,2.18666 12.392,-2.916"
       style="fill:#000000;fill-opacity:1;fill-rule:nonzero;stroke:none;stroke-width:1.33333"
       id="path188190" />
    <path
       d="m 326.45453,146.87201 c 0,0 7.91066,3.516 11.30133,1.884 0,0 -4.52133,3.38933 -11.30133,-1.884"
       style="fill:#000000;fill-opacity:1;fill-rule:nonzero;stroke:none;stroke-width:1.33333"
       id="path188194" />
  </g>
</svg>
