<?xml version="1.0" encoding="UTF-8" standalone="no"?>
<!-- Created with Inkscape (http://www.inkscape.org/) -->

<svg
   version="1.1"
   id="svg211168"
   width="400"
   height="400"
   viewBox="0 0 400 400"
   sodipodi:docname="Eyes6.svg"
   inkscape:version="1.3-alpha (95f74fb, 2023-03-31)"
   xmlns:inkscape="http://www.inkscape.org/namespaces/inkscape"
   xmlns:sodipodi="http://sodipodi.sourceforge.net/DTD/sodipodi-0.dtd"
   xmlns="http://www.w3.org/2000/svg"
   xmlns:svg="http://www.w3.org/2000/svg">
  <defs
     id="defs211172" />
  <sodipodi:namedview
     id="namedview211170"
     pagecolor="#ffffff"
     bordercolor="#666666"
     borderopacity="1.0"
     inkscape:showpageshadow="2"
     inkscape:pageopacity="0.0"
     inkscape:pagecheckerboard="0"
     inkscape:deskcolor="#d1d1d1"
     showgrid="false"
     inkscape:zoom="2.675"
     inkscape:cx="199.81308"
     inkscape:cy="200"
     inkscape:window-width="1984"
     inkscape:window-height="1283"
     inkscape:window-x="2176"
     inkscape:window-y="54"
     inkscape:window-maximized="0"
     inkscape:current-layer="g4">
    <inkscape:page
       x="0"
       y="0"
       id="page211174"
       width="400"
       height="400"
       margin="0"
       bleed="0" />
  </sodipodi:namedview>
  <g
     id="g211176"
     inkscape:groupmode="layer"
     inkscape:label="Page 1">
    <path
       d="m 321.49773,139.62574 c 0.028,0.0427 3.85733,5.92667 9.76533,5.40533 5.928,-0.52266 6.8,-0.17466 8.544,-1.56933 -0.248,0.19867 -0.24667,2.19333 -0.34134,2.564 -0.404,1.57067 -0.82533,2.32 -2.48266,2.54933 -3.20934,0.44534 -6.36267,-0.88933 -9.45333,-1.516 0.0587,1.096 0.92533,2.784 1.61866,3.64 0.576,0.70934 1.21067,1.392 1.98134,2.09734 -1.82134,-0.744 -3.544,-2.708 -4.66667,-4.13334 -2.244,-2.85066 -3.028,-6.052 -4.96533,-9.03733"
       style="opacity:0.199997;fill:#000000;fill-opacity:1;fill-rule:nonzero;stroke:none;stroke-width:1.33333"
       id="path214666" />
    <path
       d="m 336.80719,143.55774 c 0.612,-0.15067 0.89867,-0.34267 0.89867,-0.34267 l 2.96666,-2.912 -0.0587,-5.84266 -7.29467,-0.92934 c 0,0 -6.65466,1.56934 -8.02133,2.90667 -1.36533,1.336 -2.03467,4.272 -2.064,4.35867 0,0 0.14533,0.90133 0.69867,1.01733 0.552,0.116 3.57466,2.03467 4.64933,1.976 1.076,-0.0573 8.22533,-0.232 8.22533,-0.232"
       style="fill:#ffffff;fill-opacity:1;fill-rule:nonzero;stroke:none;stroke-width:1.33333"
       id="path214720" />
    <path
       d="m 270.26053,138.39214 4.50533,-2.45733 14.5,-0.55867 5.33467,2.68133 2.848,3.016 -1.13867,1.56267 -3.36667,0.224 c 0,0 -2.17466,1.84267 -4.50533,1.78667 -2.33067,-0.056 -13.41333,-1.284 -13.41333,-1.284 l -5.02267,-4.412 z"
       style="fill:#ffffff;fill-opacity:1;fill-rule:nonzero;stroke:none;stroke-width:1.33333"
       id="path214724" />
    <path
       d="m 277.90026,135.41161 c -0.36667,0.83066 -0.57333,1.748 -0.57333,2.71333 0,2.252 1.13333,4.46 2.82933,5.684 l 6.352,0.59733 c 2.51733,-0.97866 4.304,-3.41866 4.304,-6.28133 0,-0.84267 -0.16133,-1.64667 -0.444,-2.392 -3.116,-0.96667 -8.88667,-0.65067 -12.468,-0.32133"
       style="fill:#754324;fill-opacity:1;fill-rule:nonzero;stroke:none;stroke-width:1.33333"
       id="path214728" />
    <path
       d="m 286.93853,138.12521 c 0,1.584 -1.284,2.86933 -2.86934,2.86933 -1.584,0 -2.868,-1.28533 -2.868,-2.86933 0,-1.584 1.284,-2.86934 2.868,-2.86934 1.58534,0 2.86934,1.28534 2.86934,2.86934"
       style="fill:#000000;fill-opacity:1;fill-rule:nonzero;stroke:none;stroke-width:1.33333"
       id="path214732" />
    <path
       d="m 280.32893,143.35934 6.11066,0.57333 c 2.37734,-0.96933 3.908,-3.23733 3.908,-5.808 0,-0.68 -0.11333,-1.356 -0.33733,-2.012 -3.06133,-0.85733 -8.55867,-0.55066 -11.78933,-0.264 -0.28534,0.72934 -0.42934,1.49334 -0.42934,2.276 0,2.02534 0.992,4.06534 2.53734,5.23467 m 6.244,1.52 -6.58534,-0.61867 -0.10266,-0.0747 c -1.836,-1.324 -3.02134,-3.704 -3.02134,-6.06134 0,-1.00266 0.20534,-1.97866 0.612,-2.9 l 0.10934,-0.25066 0.27333,-0.0253 c 4.06533,-0.37333 9.56,-0.61866 12.64667,0.34134 l 0.216,0.0667 0.0813,0.212 c 0.31467,0.828 0.47467,1.688 0.47467,2.556 0,2.99334 -1.80667,5.628 -4.60134,6.71467 z"
       style="fill:#000000;fill-opacity:1;fill-rule:nonzero;stroke:none;stroke-width:1.33333"
       id="path214736" />
    <path
       d="m 283.14293,137.38521 c 0,0.86933 -0.704,1.57333 -1.57334,1.57333 -0.86933,0 -1.57333,-0.704 -1.57333,-1.57333 0,-0.86934 0.704,-1.57334 1.57333,-1.57334 0.86934,0 1.57334,0.704 1.57334,1.57334"
       style="fill:#ffffff;fill-opacity:1;fill-rule:nonzero;stroke:none;stroke-width:1.33333"
       id="path214740" />
    <path
       d="m 297.69666,141.40534 c 0,0 -3.38,-6.56 -8.28,-6.924 -4.9,-0.36533 -11.828,0.54667 -14.7,0.54667 -2.87333,0 -5.74533,3.644 -5.74533,3.644 0,0 3.71733,4.556 6.58933,4.92 l -4.224,-4.92 c 0,0 2.19733,-1.82267 5.06933,-2.004 2.872,-0.18267 10.64534,-0.18267 13.01067,0.18133 2.36533,0.36533 8.28,4.556 8.28,4.556"
       style="fill:#000000;fill-opacity:1;fill-rule:nonzero;stroke:none;stroke-width:1.33333"
       id="path214744" />
    <path
       d="m 323.65266,135.83067 c 0,0 5.61467,-5.91733 12.01866,-6.48266 0,0 -5.43999,2.26133 -6.72399,2.98933 -1.28267,0.72667 -5.29467,3.49333 -5.29467,3.49333"
       style="fill:#000000;fill-opacity:1;fill-rule:nonzero;stroke:none;stroke-width:1.33333"
       id="path214752" />
    <path
       d="m 332.48479,134.22507 c -1.16,0.44934 -3.236,0.37867 -4.04533,0.812 -1.47733,0.792 -2.084,1 -3.4,3.292 0.27333,2.52667 1.68267,4.336 3.54667,5.112 l 6.40533,-0.23466 c 1.636,-1.26534 2.6,-3.54 2.6,-5.868 0,-0.99867 -0.2,-1.94534 -0.552,-2.804 -1.30267,-0.12934 -2.904,-0.25467 -4.55467,-0.30934"
       style="fill:#754324;fill-opacity:1;fill-rule:nonzero;stroke:none;stroke-width:1.33333"
       id="path214756" />
    <path
       d="m 334.71679,138.09081 c 0,1.63733 -1.328,2.96533 -2.96533,2.96533 -1.63733,0 -2.96533,-1.328 -2.96533,-2.96533 0,-1.63734 1.328,-2.96534 2.96533,-2.96534 1.63733,0 2.96533,1.328 2.96533,2.96534"
       style="fill:#000000;fill-opacity:1;fill-rule:nonzero;stroke:none;stroke-width:1.33333"
       id="path214760" />
    <path
       d="m 331.00186,136.04921 c 0,0.89866 -0.728,1.62666 -1.62667,1.62666 -0.89733,0 -1.62666,-0.728 -1.62666,-1.62666 0,-0.89867 0.72933,-1.62667 1.62666,-1.62667 0.89867,0 1.62667,0.728 1.62667,1.62667"
       style="fill:#ffffff;fill-opacity:1;fill-rule:nonzero;stroke:none;stroke-width:1.33333"
       id="path214764" />
    <path
       d="m 325.51799,138.42707 c 0.27334,2.10667 1.44134,3.792 3.15467,4.54667 l 6.14933,-0.22533 c 1.42533,-1.172 2.30533,-3.22934 2.30533,-5.40934 0,-0.816 -0.14,-1.612 -0.41733,-2.37066 -1.464,-0.14 -2.85867,-0.232 -4.14933,-0.27734 -0.60933,0.21734 -1.38133,0.31067 -2.128,0.40134 -0.70667,0.0853 -1.43867,0.17466 -1.77467,0.35333 l -0.28533,0.15333 c -1.224,0.648 -1.74533,0.92534 -2.85467,2.828 m 2.984,5.48134 -0.0947,-0.0387 c -2.12,-0.884 -3.552,-2.936 -3.82934,-5.492 l -0.016,-0.14933 0.0747,-0.13067 c 1.29467,-2.25467 2.008,-2.63333 3.30133,-3.31867 l 0.28267,-0.15066 c 0.48933,-0.26134 1.272,-0.35734 2.1,-0.45734 0.72933,-0.088 1.48267,-0.17866 1.996,-0.37866 l 0.088,-0.0333 0.096,0.003 c 1.41866,0.0467 2.96133,0.15067 4.584,0.31067 l 0.27733,0.028 0.10533,0.25733 c 0.39067,0.948 0.588,1.95067 0.588,2.98133 0,2.51867 -1.06533,4.908 -2.78,6.23467 l -0.11866,0.0907 z"
       style="fill:#000000;fill-opacity:1;fill-rule:nonzero;stroke:none;stroke-width:1.33333"
       id="path214768" />
    <path
       d="m 336.83719,135.33241 c 2.968,0.67466 2.448,1.79333 2.448,4.24133 0,2.44933 -2.47733,3.984 -2.47733,3.984 3.57866,-0.56533 4.73866,-3.516 4.73866,-3.516 l 1.31734,-5.59867 c 0,0 -3.75467,-0.90266 -9.79333,-1.14533 -2.48667,-0.0987 -6.48267,1.68133 -7.30534,2.21067 -0.82266,0.528 -2.292,4.23066 -2.292,4.23066 0,0 2.40934,-3.11466 3.87867,-3.644 1.46933,-0.528 5.86533,-1.58533 9.48533,-0.76266"
       style="fill:#000000;fill-opacity:1;fill-rule:nonzero;stroke:none;stroke-width:1.33333"
       id="path214772" />
    <path
       d="m 305.35226,133.99374 1.488,12.008 c 0,0 -2.48,-10.916 -3.076,-11.71067 -0.59467,-0.79333 -2.67867,2.68 -2.67867,2.68 l 3.77067,-6.352 z"
       style="fill:#000000;fill-opacity:1;fill-rule:nonzero;stroke:none;stroke-width:1.33333"
       id="path214784" />
    <path
       d="m 296.21826,146.14321 c 0,0 -6.07467,2.916 -12.392,2.916 0,0 9.23333,2.18666 12.392,-2.916"
       style="fill:#000000;fill-opacity:1;fill-rule:nonzero;stroke:none;stroke-width:1.33333"
       id="path214788" />
    <path
       d="m 326.84679,146.21801 c 0,0 7.91067,3.516 11.30133,1.884 0,0 -4.52133,3.38933 -11.30133,-1.884"
       style="fill:#000000;fill-opacity:1;fill-rule:nonzero;stroke:none;stroke-width:1.33333"
       id="path214792" />
    <path
       d="m 268.06613,140.69441 c -0.0413,-0.056 -0.076,-0.112 -0.10267,-0.16934 -0.35333,-0.268 -0.644,-0.70266 -0.78,-1.11333 -0.0813,-0.248 0.016,-0.80133 -0.19067,-0.96267 -0.22133,-0.17466 -0.88133,0.004 -1.11466,0.0853 -0.22267,0.0773 -0.424,0.25066 -0.63734,0.33733 -0.27333,0.112 -0.616,0.11467 -0.90666,0.21467 -1.11867,0.38 -2.368,0.46933 -3.59067,0.50933 -0.52,0.0173 -1.13067,0.0467 -1.616,-0.0387 0.4,0.63467 1.632,0.39467 2.292,0.528 1.02,0.20534 1.85333,0.16934 2.864,-0.0533 0.464,-0.10133 0.93867,-0.12933 1.40533,-0.18667 0.224,0.87067 -1.336,1.15334 -1.808,1.53467 0.936,0.064 1.54134,-0.312 2.372,-0.50133 0.568,-0.12934 0.88534,0.152 1.328,0.36 0.24,0.112 0.764,0.332 0.85067,-0.092 -0.112,-0.156 -0.25733,-0.304 -0.36533,-0.452"
       style="opacity:0.199997;fill:#000000;fill-opacity:1;fill-rule:nonzero;stroke:none;stroke-width:1.33333"
       id="path214802" />
    <path
       d="m 264.48306,137.37267 c -0.796,0.004 -1.63733,0.244 -2.38667,0.41734 -0.17333,0.04 -0.71066,0.0733 -0.824,0.156 -0.51333,0.38 0.67734,0.42533 0.888,0.43466 0.976,0.0453 2.476,0.1 3.33467,-0.42933 0.564,-0.34933 -0.212,-0.504 -0.52,-0.54667 -0.16133,-0.0227 -0.32533,-0.0333 -0.492,-0.032"
       style="opacity:0.199997;fill:#000000;fill-opacity:1;fill-rule:nonzero;stroke:none;stroke-width:1.33333"
       id="path214818" />
    <path
       d="m 292.07199,133.30454 c 0,0 -4.44666,-1.96133 -8.76266,-1.43867 0,0 5.73066,-1.17733 7.63866,-0.26133 1.90934,0.91467 1.124,1.7 1.124,1.7"
       style="fill:#000000;fill-opacity:1;fill-rule:nonzero;stroke:none;stroke-width:1.33333"
       id="path214828" />
    <path
       id="rect2"
       style="opacity:0.2;fill:#000000;stroke:none;stroke-width:1.2;stroke-miterlimit:40;fill-opacity:1"
       d="M 298.07617 139.59961 C 298.11456 140.90064 298.0269 142.10688 297.74023 142.41602 C 297.09357 143.11334 295.47512 143.63736 292.56445 145.55469 C 289.65379 147.47336 282.86316 146.07869 278.17383 145.55469 C 273.48583 145.03203 267.98755 140.84591 268.79688 141.89258 C 269.60487 142.93925 274.45499 148.17013 278.82031 149.2168 C 281.61898 149.88747 284.70325 149.64252 287.53125 149.31055 C 288.76991 149.16655 295.60809 147.02825 295.99609 148.01758 C 296.24542 148.65091 295.40275 149.62147 295.21875 150.10547 C 294.68675 151.50814 294.18142 152.8935 293.13477 154.07617 C 298.70841 151.83432 298.27495 144.78895 299.75586 139.59961 L 298.07617 139.59961 z " />
  </g>
  <g
     inkscape:groupmode="layer"
     id="layer4"
     inkscape:label="Standard Brow"
     style="display:none">
    <path
       id="path214710"
       style="opacity:0.199997;fill:#000000;fill-opacity:1;fill-rule:nonzero;stroke:none;stroke-width:1.33333"
       d="m 308.74023,119.3418 c 0,0 -4.54717,5.52683 -6.67382,7.29882 -0.304,0.25333 -0.74643,0.26644 -1.1211,0.25977 -1.51333,-0.0307 -3.06028,-0.60217 -4.48828,-1.04883 -2.08533,-0.652 -4.15453,-1.35694 -6.25586,-1.96094 -2.176,-0.62399 -4.39563,-1.17348 -6.65429,-1.38281 -1.74666,-0.16133 -3.28096,0.0252 -4.87696,0.41992 -0.48,0.11867 -0.9668,0.25621 -1.4668,0.40821 -1.91599,0.58533 -3.88389,1.29852 -5.72656,2.11718 -2.156,0.95867 -4.60175,1.0362 -6.73242,2.13086 -0.916,0.472 -2.23727,0.97718 -2.83594,1.83985 1.116,0.0787 2.31054,0.0573 3.39453,0.0547 0.892,-0.003 1.86805,-0.0785 2.74805,0.0469 1.068,0.15067 2.11027,0.5744 3.1836,0.78906 1.86266,0.37067 3.66957,0.0535 5.51757,-0.17578 1.048,-0.13066 2.11793,-0.0937 3.16993,-0.043 2.17999,0.104 4.35562,0.34249 6.51562,0.64649 1.48267,0.20667 3.09305,0.35395 4.51172,0.86328 1.94,0.69733 5.82013,3.48493 6.4668,4.18359 0.35999,0.38821 0.61195,2.17672 0.66015,3.81055 h 1.67969 c 0.27093,-0.94938 0.59859,-1.84512 1.04687,-2.62891 1.22,-2.13466 2.40944,-4.0889 3.4961,-6.35156 3.76399,-7.83599 4.4414,-11.27734 4.4414,-11.27734 z m 14.91243,16.48887 c 2.63467,-2.41333 7.436,-4.57466 10.4,-5.44666 2.964,-0.872 10.288,-0.17467 10.288,-0.17467 l 3.31333,-5.05733 -6.80133,-2.964 -16.74,5.92933 c 0,0 -4.01067,4.01067 -4.53333,5.23067 -0.52267,1.22133 1.172,5.14 4.07333,2.48266" />
    <path
       id="path214780"
       style="fill:#000000;fill-opacity:1;fill-rule:nonzero;stroke:none;stroke-width:1.33333"
       d="m 277.96719,118.90374 c 2.98534,-0.0933 6.02534,0.528 8.828,1.396 4.83734,1.496 9.97067,2.344 14.96267,3.14133 1.20267,0.192 2.17067,0.10534 3.32533,-0.29333 -0.24533,0.352 -0.7,0.57333 -0.984,0.89333 0.79867,0.056 1.44,0.0213 2.12,-0.396 0.412,-0.25333 0.79067,-0.52133 1.128,-0.872 -0.344,0.84667 -1.268,1.50134 -1.76,2.24134 0.66134,-0.0413 1.05867,-0.716 1.60534,-0.924 0.0507,-0.10534 0.11466,-0.148 0.19066,-0.22534 0.0427,0.468 -0.39333,1.34267 -0.55466,1.808 -0.436,1.256 -1.6,2.11867 -2.65334,2.84134 -1.16,0.79733 -2.30666,0.84933 -3.67466,0.70666 -1.21334,-0.12666 -2.41867,-0.324 -3.62,-0.54 -2.76,-0.496 -5.49867,-1.10666 -8.23734,-1.70266 -1.47333,-0.32134 -2.94533,-0.64934 -4.428,-0.924 -5.35866,-0.992 -20.44266,1.88533 -24.61066,4.56533 0.88533,-0.56933 1.68666,-1.356 2.50933,-2.00933 1.09067,-0.86667 2.15867,-1.76534 3.28267,-2.588 1.10533,-0.80934 2.40533,-1.396 3.436,-2.29734 -0.23734,-0.0333 -0.468,0.0387 -0.70267,0.032 0.14133,0.004 0.61333,-0.60933 0.74267,-0.71733 0.68,-0.57067 1.48933,-0.94667 2.244,-1.40133 0.15066,-0.0907 0.63066,-0.56 0.77066,-0.56267 -0.54266,0.008 -1.08266,0.0933 -1.56133,0.088 0.10933,10e-4 0.68267,-0.65333 0.864,-0.74133 0.34,-0.164 0.80933,-0.34534 1.176,-0.44934 0.48267,-0.136 0.98133,-0.272 1.46933,-0.41866 1.344,-0.40667 2.732,-0.60667 4.132,-0.65067 m 45.4688,9.164 c 1.53867,-1.53867 2.888,-3.224 4.74534,-4.40933 1.676,-1.06934 3.61066,-1.576 5.50799,-2.096 1.98,-0.544 3.85067,-1.43067 5.83734,-1.94667 0.50133,-0.13067 0.95733,-0.33467 1.48266,-0.36 0.47467,-0.024 0.95334,0.0133 1.428,-0.007 -0.496,0.39734 -1.13866,0.58934 -1.56,1.06534 1.37734,0.0307 2.81867,-0.516 4.20534,-0.33067 -0.192,0.24133 -0.5,0.352 -0.70934,0.55733 0.37334,0.028 0.93334,-0.088 1.25734,0.15067 0.41333,0.30533 0.34933,1.116 0.37466,1.57733 0.22667,0.0453 0.46267,0.0373 0.60667,-0.13066 -0.028,0.42933 -0.296,0.82666 -0.22267,1.28266 0.176,-0.0573 0.372,-0.15466 0.56,-0.216 -0.048,0.0147 -0.17466,1.19067 -0.192,1.32934 -0.072,0.54933 -0.14933,1.02533 -0.53066,1.46133 -1.31867,1.50667 -3.01334,0.94133 -4.332,-0.376 -1.31867,-1.31867 -4.52134,0.188 -9.41733,0.94133 -4.89734,0.75334 -12.432,4.89734 -9.04134,1.50667" />
    <path
       id="path214832"
       style="fill:#000000;fill-opacity:1;fill-rule:nonzero;stroke:none;stroke-width:1.33333"
       d="m 340.54439,131.53201 c -0.0413,-0.0293 -0.08,-0.0573 -0.116,-0.084 -0.24267,-0.18134 -0.50133,-0.34267 -0.76933,-0.484 -0.54534,-0.28667 -1.13734,-0.48267 -1.74667,-0.57334 -0.852,-0.12666 -1.72533,-0.0533 -2.56933,0.12 -0.53067,0.10934 -1.052,0.25734 -1.56934,0.41867 -0.49199,0.15333 -0.99066,0.268 -1.47999,0.424 -1.44134,0.45733 -3.33467,0.784 -4.61067,1.63467 -0.804,0.536 0.88133,-0.65067 0.88133,-0.652 0.83467,-0.58667 1.908,-0.96267 2.856,-1.30534 0.704,-0.25333 1.43067,-0.42933 2.15333,-0.61866 0.89867,-0.236 1.71867,-0.548 2.656,-0.61867 1.284,-0.0947 2.80934,-0.0147 3.8,0.90267 0.408,0.37866 0.74,0.83066 1.036,1.30133 -0.10933,-0.17333 -0.33466,-0.332 -0.52133,-0.46533 m -41.532,5.68213 c 0,0 -4.92,-5.284 -8.56533,-6.196 -3.644,-0.91067 -13.848,-1.64 -16.03467,-0.728 0,0 12.39067,-0.18267 15.124,1.82133 2.73334,2.00534 10.56934,6.92534 9.476,5.10267" />
  </g>
  <g
     inkscape:groupmode="layer"
     id="g4"
     inkscape:label="Vulcan Brow">
    <path
       id="path2"
       style="opacity:0.199997;fill:#000000;fill-opacity:1;fill-rule:nonzero;stroke:none;stroke-width:1.33333"
       d="m 308.74023,119.3418 c 0,0 -4.54717,5.52683 -6.67382,7.29882 -0.304,0.25333 -0.74643,0.26644 -1.1211,0.25977 -1.51333,-0.0307 -3.06028,-0.60217 -4.48828,-1.04883 -2.08533,-0.652 -4.15453,-1.35694 -6.25586,-1.96094 -2.176,-0.62399 -4.39563,-1.17348 -6.65429,-1.38281 -1.74666,-0.16133 -3.28096,0.0252 -4.87696,0.41992 -0.48,0.11867 -0.9668,0.25621 -1.4668,0.40821 -1.91599,0.58533 -2.27863,-0.407 -5.16581,-1.62114 -2.88719,-1.21414 -3.90068,-1.50294 -5.98476,-2.1682 -2.08408,-0.66527 -4.99428,-1.68637 -6.24715,-1.9452 0.54803,0.0387 1.38866,4.00425 2.91136,6.70498 1.25111,2.21902 2.73681,4.39246 4.16399,4.98523 1.42718,0.59278 2.46935,0.81411 4.35363,1.02288 2.07003,0.1633 3.6831,0.04 5.51757,-0.17578 1.048,-0.13066 2.11793,-0.0937 3.16993,-0.043 2.17999,0.104 4.35562,0.34249 6.51562,0.64649 1.48267,0.20667 3.09305,0.35395 4.51172,0.86328 1.94,0.69733 5.82013,3.48493 6.4668,4.18359 0.35999,0.38821 0.61195,2.17672 0.66015,3.81055 h 1.67969 c 0.27093,-0.94938 0.59859,-1.84512 1.04687,-2.62891 1.22,-2.13466 2.40944,-4.0889 3.4961,-6.35156 3.76399,-7.83599 4.4414,-11.27734 4.4414,-11.27734 z m 14.91243,16.48887 c 2.63467,-2.41333 7.436,-4.57466 10.4,-5.44666 2.964,-0.872 10.288,-0.17467 10.288,-0.17467 l 1.73198,-3.25575 1.30098,-4.0913 -6.52096,-0.67428 -16.74,5.92933 c 0,0 -4.01067,4.01067 -4.53333,5.23067 -0.52267,1.22133 1.172,5.14 4.07333,2.48266"
       sodipodi:nodetypes="csccccsczzcszcccccccccccccsccccccc" />
    <path
       id="path3"
       style="fill:#000000;fill-opacity:1;fill-rule:nonzero;stroke:none;stroke-width:1.33333"
       d="m 278.15411,118.81028 c 3.03206,0.65437 5.83842,0.62146 8.64108,1.48946 4.83734,1.496 9.97067,2.344 14.96267,3.14133 1.20267,0.192 2.17067,0.10534 3.32533,-0.29333 -0.24533,0.352 -0.7,0.57333 -0.984,0.89333 0.79867,0.056 1.44,0.0213 2.12,-0.396 0.412,-0.25333 0.79067,-0.52133 1.128,-0.872 -0.344,0.84667 -1.268,1.50134 -1.76,2.24134 0.66134,-0.0413 1.05867,-0.716 1.60534,-0.924 0.0507,-0.10534 0.11466,-0.148 0.19066,-0.22534 0.0427,0.468 -0.39333,1.34267 -0.55466,1.808 -0.436,1.256 -1.6,2.11867 -2.65334,2.84134 -1.16,0.79733 -2.30666,0.84933 -3.67466,0.70666 -1.21334,-0.12666 -2.41867,-0.324 -3.62,-0.54 -2.76,-0.496 -5.49867,-1.10666 -8.23734,-1.70266 -1.47333,-0.32134 -2.94533,-0.64934 -4.428,-0.924 -5.35866,-0.992 -21.09686,-7.5072 -24.98449,-8.75243 1.58806,0.21054 3.62088,0.72181 5.51162,1.19706 1.89075,0.47526 2.49879,0.61335 3.90329,0.92696 -0.84481,-0.22021 -2.19697,-1.22298 -2.43164,-1.22968 0.32825,-0.13618 1.90996,0.31161 2.84548,0.49763 0.93552,0.18601 2.29717,0.28093 3.66886,0.51263 -0.54266,0.008 -2.06397,-1.30857 -2.54264,-1.31387 1.11192,0.17228 3.08932,0.35702 4.11681,0.49348 1.02749,0.13645 3.85163,0.42409 3.85163,0.42409 z m 45.28188,9.25746 c 1.53867,-1.53867 2.888,-3.224 4.74534,-4.40933 1.676,-1.06934 3.61066,-1.576 5.50799,-2.096 1.98,-0.544 4.40642,-1.06259 5.65042,-1.38592 1.244,-0.32334 1.00168,-0.40464 1.52939,-0.59365 0.52771,-0.189 1.18699,-0.6409 1.66165,-0.6612 -0.44927,0.67771 -1.0452,1.10336 -1.65346,1.39244 1.37734,0.0307 4.92147,-2.15151 6.21469,-3.04095 -0.192,0.24133 -0.54673,0.91275 -0.75607,1.11808 0.37334,0.028 0.83988,-0.32165 1.16388,-0.083 0.41333,0.30533 -0.44506,1.20946 -0.65338,1.57733 0.22667,0.0453 0.46267,0.0373 0.60667,-0.13066 -0.028,0.42933 -0.296,0.82666 -0.22267,1.28266 0.176,-0.0573 0.372,-0.15466 0.56,-0.216 -0.048,0.0147 -0.17466,1.19067 -0.192,1.32934 -0.072,0.54933 -0.24279,0.55804 -0.62412,0.99404 -1.31867,1.50667 -2.99927,1.34489 -5.07966,1.96045 -2.08039,0.61557 -4.52134,0.70202 -9.41733,1.45535 -4.89734,0.75334 -12.432,4.89734 -9.04134,1.50667"
       sodipodi:nodetypes="ccccccccccccccccczcczcczcccczzccccccccccczcc" />
    <path
       id="path4"
       style="fill:#000000;fill-opacity:1;fill-rule:nonzero;stroke:none;stroke-width:1.33333"
       d="m 340.54439,131.53201 c -0.0413,-0.0293 -0.08,-0.0573 -0.116,-0.084 -0.24267,-0.18134 -0.50133,-0.34267 -0.76933,-0.484 -0.54534,-0.28667 -1.13734,-0.48267 -1.74667,-0.57334 -0.852,-0.12666 -1.72533,-0.0533 -2.56933,0.12 -0.53067,0.10934 -1.052,0.25734 -1.56934,0.41867 -0.49199,0.15333 -0.99066,0.268 -1.47999,0.424 -1.44134,0.45733 -3.33467,0.784 -4.61067,1.63467 -0.804,0.536 0.88133,-0.65067 0.88133,-0.652 0.83467,-0.58667 1.908,-0.96267 2.856,-1.30534 0.704,-0.25333 1.43067,-0.42933 2.15333,-0.61866 0.89867,-0.236 1.71867,-0.548 2.656,-0.61867 1.284,-0.0947 2.80934,-0.0147 3.8,0.90267 0.408,0.37866 0.74,0.83066 1.036,1.30133 -0.10933,-0.17333 -0.33466,-0.332 -0.52133,-0.46533 m -41.532,5.68213 c 0,0 -4.92,-5.284 -8.56533,-6.196 -3.644,-0.91067 -13.848,-1.64 -16.03467,-0.728 0,0 12.39067,-0.18267 15.124,1.82133 2.73334,2.00534 10.56934,6.92534 9.476,5.10267" />
  </g>
</svg>
