<?xml version="1.0" encoding="UTF-8" standalone="no"?>
<!-- Created with Inkscape (http://www.inkscape.org/) -->

<svg
   version="1.1"
   id="svg189182"
   width="400"
   height="400"
   viewBox="0 0 400 400"
   sodipodi:docname="Eyes3.svg"
   inkscape:version="1.2.2 (b0a8486, 2022-12-01)"
   xmlns:inkscape="http://www.inkscape.org/namespaces/inkscape"
   xmlns:sodipodi="http://sodipodi.sourceforge.net/DTD/sodipodi-0.dtd"
   xmlns="http://www.w3.org/2000/svg"
   xmlns:svg="http://www.w3.org/2000/svg">
  <defs
     id="defs189186" />
  <sodipodi:namedview
     id="namedview189184"
     pagecolor="#ffffff"
     bordercolor="#666666"
     borderopacity="1.0"
     inkscape:showpageshadow="2"
     inkscape:pageopacity="0.0"
     inkscape:pagecheckerboard="0"
     inkscape:deskcolor="#d1d1d1"
     showgrid="false"
     inkscape:zoom="1.475"
     inkscape:cx="182.0339"
     inkscape:cy="200"
     inkscape:window-width="1440"
     inkscape:window-height="810"
     inkscape:window-x="2738"
     inkscape:window-y="208"
     inkscape:window-maximized="0"
     inkscape:current-layer="g189190">
    <inkscape:page
       x="0"
       y="0"
       id="page189188"
       width="400"
       height="400" />
  </sodipodi:namedview>
  <g
     id="g189190"
     inkscape:groupmode="layer"
     inkscape:label="Page 1">
    <path
       d="m 321.71106,139.31601 c 0,0 3.60133,5.56533 9.16667,5.07466 5.56666,-0.49066 6.38533,-0.164 8.02133,-1.47333 0,0 -0.0867,4.20933 -1.92534,4.96933 -1.84,0.76 -7.56933,0.43334 -9.85999,-1.368 -2.292,-1.8 -5.40267,-7.20266 -5.40267,-7.20266"
       style="opacity:0.199997;fill:#000000;fill-opacity:1;fill-rule:nonzero;stroke:none;stroke-width:1.33333"
       id="path193156" />
    <path
       d="m 323.65266,135.83067 c 2.63467,-2.41333 7.436,-4.57466 10.4,-5.44666 2.964,-0.872 10.288,-0.17467 10.288,-0.17467 l 3.31333,-5.05733 -6.80133,-2.964 -16.74,5.92933 c 0,0 -4.01067,4.01067 -4.53333,5.23067 -0.52267,1.22133 1.172,5.14 4.07333,2.48266"
       style="opacity:0.199997;fill:#000000;fill-opacity:1;fill-rule:nonzero;stroke:none;stroke-width:1.33333"
       id="path193172" />
    <path
       d="m 279.16613,122.38721 c -1.81467,0.356 -3.61867,1.188 -5.284,1.68533 -1.716,0.512 -2.97067,1.23467 -4.60934,1.79067 -1.68533,0.57066 -4.19333,1.47866 -5.388,2.50666 2.17067,0.003 4.22,-0.016 6.19334,0.88134 1.744,0.79333 4.76,1.73866 6.748,1.04533 2.08,-0.72533 12.828,0.56533 14.752,1.204 1.924,0.64 5.77066,3.196 6.412,3.83467 0.64133,0.63866 0.96133,5.432 0.32,6.072 -0.64,0.63866 -2.244,1.11733 -5.12934,2.87466 -2.88533,1.75734 -9.61733,0.48 -14.26666,0 -4.648,-0.47866 -10.09867,-4.31333 -9.29734,-3.35466 0.80134,0.95866 5.61067,5.752 9.93867,6.71066 4.908,1.08667 11.176,0.26534 15.884,-1.36133 2.012,-0.69467 2.956,-1.88267 3.87067,-3.672 0.78133,-1.53067 1.91333,-2.964 3.04266,-4.25467 0.81734,-0.93333 2.11334,-1.732 2.40534,-2.996 0.45066,-1.96 -0.43734,-3.70666 0.232,-5.64666 0.668,-1.93734 2.076,-3.53067 2.876,-5.412 0.56666,-1.332 0.90266,-3.824 1.77866,-4.95334 0,0 -2.62666,3.388 -4.92133,5.16 -1.08533,0.83867 -5.64667,2.14134 -6.784,1.856 -2.57467,-0.64533 -5.10133,-1.47333 -7.67733,-2.116 -2.60534,-0.65066 -5.22534,-1.01333 -7.75467,-1.78 -1.09733,-0.33333 -2.22133,-0.29466 -3.34133,-0.0747"
       style="opacity:0.199997;fill:#000000;fill-opacity:1;fill-rule:nonzero;stroke:none;stroke-width:1.33333"
       id="path193200" />
    <path
       d="m 336.08346,143.00747 c 0.57466,-0.14133 0.844,-0.32133 0.844,-0.32133 l 2.78533,-2.73467 -0.0547,-5.484 -6.84933,-0.87333 c 0,0 -6.248,1.47333 -7.52933,2.72933 -1.28267,1.25467 -1.91067,4.01067 -1.93733,4.092 0,0 0.136,0.84534 0.65466,0.95467 0.51867,0.10933 3.356,1.91067 4.36534,1.856 1.00933,-0.0547 7.72133,-0.21867 7.72133,-0.21867"
       style="fill:#ffffff;fill-opacity:1;fill-rule:nonzero;stroke:none;stroke-width:1.33333"
       id="path193210" />
    <path
       d="m 271.06893,137.72027 4.46666,-2.252 14.376,-0.51066 5.288,2.456 2.82267,2.76266 -1.12933,1.43334 -3.33734,0.204 c 0,0 -2.156,1.68933 -4.46666,1.63733 -2.30934,-0.0507 -13.296,-1.176 -13.296,-1.176 l -4.98134,-4.04267 z"
       style="fill:#ffffff;fill-opacity:1;fill-rule:nonzero;stroke:none;stroke-width:1.33333"
       id="path193214" />
    <path
       d="m 280.03306,134.98934 c -0.336,0.76133 -0.52667,1.60133 -0.52667,2.48667 0,2.06266 1.04134,4.08533 2.60134,5.208 l 5.83866,0.54666 c 2.31334,-0.896 3.956,-3.132 3.956,-5.75466 0,-0.77334 -0.148,-1.50934 -0.408,-2.192 -2.864,-0.88667 -8.16933,-0.59734 -11.46133,-0.29467"
       style="fill:#754324;fill-opacity:1;fill-rule:nonzero;stroke:none;stroke-width:1.33333"
       id="path193218" />
    <path
       d="m 288.34186,137.47574 c 0,1.452 -1.18133,2.628 -2.63733,2.628 -1.456,0 -2.63734,-1.176 -2.63734,-2.628 0,-1.452 1.18134,-2.628 2.63734,-2.628 1.456,0 2.63733,1.176 2.63733,2.628"
       style="fill:#000000;fill-opacity:1;fill-rule:nonzero;stroke:none;stroke-width:1.33333"
       id="path193222" />
    <path
       d="m 282.26573,142.27134 5.61733,0.52533 c 2.18533,-0.888 3.592,-2.96533 3.592,-5.32133 0,-0.62267 -0.104,-1.24267 -0.30933,-1.844 -2.81467,-0.78533 -7.868,-0.504 -10.83734,-0.24133 -0.26266,0.668 -0.39466,1.368 -0.39466,2.08533 0,1.856 0.912,3.72533 2.332,4.796 m 5.74,1.392 -6.05334,-0.56667 -0.0947,-0.068 c -1.688,-1.21333 -2.77867,-3.39333 -2.77867,-5.55333 0,-0.91867 0.18933,-1.81333 0.56267,-2.65733 l 0.10266,-0.22934 0.24934,-0.0227 c 3.73866,-0.34267 8.788,-0.56667 11.62666,0.312 l 0.19867,0.0613 0.0747,0.19333 c 0.28933,0.75867 0.436,1.548 0.436,2.34267 0,2.74267 -1.66,5.15733 -4.22934,6.152 z"
       style="fill:#000000;fill-opacity:1;fill-rule:nonzero;stroke:none;stroke-width:1.33333"
       id="path193226" />
    <path
       d="m 284.85266,136.79774 c 0,0.796 -0.648,1.44133 -1.44667,1.44133 -0.79866,0 -1.44666,-0.64533 -1.44666,-1.44133 0,-0.796 0.648,-1.44133 1.44666,-1.44133 0.79867,0 1.44667,0.64533 1.44667,1.44133"
       style="fill:#ffffff;fill-opacity:1;fill-rule:nonzero;stroke:none;stroke-width:1.33333"
       id="path193230" />
    <path
       d="m 298.26853,140.48107 c 0,0 -3.35067,-6.01066 -8.208,-6.344 -4.85867,-0.33466 -11.72667,0.5 -14.57467,0.5 -2.848,0 -5.696,3.34 -5.696,3.34 0,0 3.68533,4.17334 6.53333,4.508 l -4.188,-4.508 c 0,0 2.17867,-1.67066 5.02667,-1.83733 2.84667,-0.16667 10.55333,-0.16667 12.89867,0.16667 2.34533,0.33466 8.208,4.17466 8.208,4.17466"
       style="fill:#000000;fill-opacity:1;fill-rule:nonzero;stroke:none;stroke-width:1.33333"
       id="path193234" />
    <path
       d="m 299.44119,136.64094 c 0,0 -4.52266,-4.84133 -7.87333,-5.67733 -3.35067,-0.83467 -12.732,-1.50267 -14.74133,-0.66667 0,0 11.39066,-0.168 13.904,1.66933 2.512,1.836 9.716,6.344 8.71066,4.67467"
       style="fill:#000000;fill-opacity:1;fill-rule:nonzero;stroke:none;stroke-width:1.33333"
       id="path193238" />
    <path
       d="m 323.73426,135.75334 c 0,0 4.244,-4.95067 10.256,-5.48133 z"
       style="fill:#000000;fill-opacity:1;fill-rule:nonzero;stroke:none;stroke-width:1.33333"
       id="path193242" />
    <path
       d="m 332.02573,134.24614 c -1.08934,0.42267 -3.03867,0.356 -3.79734,0.76267 -1.38666,0.74266 -1.95733,0.93733 -3.192,3.08933 0.25734,2.372 1.58,4.072 3.32934,4.8 l 6.01333,-0.22133 c 1.536,-1.188 2.44133,-3.32267 2.44133,-5.508 0,-0.93734 -0.188,-1.82667 -0.51867,-2.632 -1.22266,-0.12134 -2.72533,-0.24 -4.27599,-0.29067"
       style="fill:#754324;fill-opacity:1;fill-rule:nonzero;stroke:none;stroke-width:1.33333"
       id="path193246" />
    <path
       d="m 334.12106,137.87521 c 0,1.53733 -1.24667,2.784 -2.784,2.784 -1.53733,0 -2.78267,-1.24667 -2.78267,-2.784 0,-1.53734 1.24534,-2.784 2.78267,-2.784 1.53733,0 2.784,1.24666 2.784,2.784"
       style="fill:#000000;fill-opacity:1;fill-rule:nonzero;stroke:none;stroke-width:1.33333"
       id="path193250" />
    <path
       d="m 330.63346,135.95867 c 0,0.84267 -0.684,1.52667 -1.52667,1.52667 -0.84266,0 -1.52666,-0.684 -1.52666,-1.52667 0,-0.84266 0.684,-1.52666 1.52666,-1.52666 0.84267,0 1.52667,0.684 1.52667,1.52666"
       style="fill:#ffffff;fill-opacity:1;fill-rule:nonzero;stroke:none;stroke-width:1.33333"
       id="path193254" />
    <path
       d="m 325.48533,138.19081 c 0.256,1.97733 1.35333,3.56 2.96133,4.268 l 5.772,-0.21067 c 1.33866,-1.10133 2.16533,-3.032 2.16533,-5.07867 0,-0.76666 -0.132,-1.51333 -0.392,-2.22533 -1.37467,-0.132 -2.68266,-0.21867 -3.896,-0.26 -0.572,0.20267 -1.296,0.292 -1.99733,0.376 -0.66267,0.08 -1.34933,0.164 -1.66533,0.332 l -0.268,0.144 c -1.14934,0.608 -1.63867,0.868 -2.68,2.65467 m 2.80133,5.14533 -0.088,-0.036 c -1.992,-0.82933 -3.33467,-2.756 -3.596,-5.15467 l -0.0147,-0.14133 0.0707,-0.12267 c 1.21467,-2.11733 1.884,-2.472 3.09867,-3.11466 l 0.26533,-0.14134 c 0.46,-0.24666 1.19333,-0.336 1.972,-0.42933 0.684,-0.0827 1.39067,-0.16933 1.87333,-0.356 l 0.0827,-0.032 0.0893,0.003 c 1.332,0.044 2.78,0.14266 4.304,0.292 l 0.26,0.0253 0.1,0.24267 c 0.36533,0.88933 0.55067,1.83066 0.55067,2.79866 0,2.36534 -1,4.608 -2.60934,5.852 l -0.11066,0.0853 z"
       style="fill:#000000;fill-opacity:1;fill-rule:nonzero;stroke:none;stroke-width:1.33333"
       id="path193258" />
    <path
       d="m 336.11159,134.86921 c 2.78667,0.52133 2.29867,1.592 2.29867,3.89066 0,2.29867 -2.32667,4.248 -2.32667,4.248 3.36,-0.53066 4.448,-3.89466 4.448,-3.89466 l 1.23867,-5.30534 c 0,0 -3.52534,-0.70666 -9.19467,-0.70666 -2.33466,0 -6.08533,1.852 -6.85866,2.34933 -0.772,0.496 -2.15067,3.972 -2.15067,3.972 0,0 2.26133,-2.924 3.64,-3.42 1.38,-0.49733 5.508,-1.76933 8.90533,-1.13333"
       style="fill:#000000;fill-opacity:1;fill-rule:nonzero;stroke:none;stroke-width:1.33333"
       id="path193262" />
    <path
       d="m 323.43599,128.06774 c 2.268,-2.268 4.26267,-3.90267 10.10267,-5.03333 5.83866,-1.12934 10.85066,-2.744 12.54533,-0.672 1.696,2.072 1.46133,2.12666 0.14267,3.63333 -1.31867,1.50667 -3.01334,0.94133 -4.332,-0.376 -1.31867,-1.31867 -4.52134,0.188 -9.41733,0.94133 -4.89734,0.75334 -12.432,4.89734 -9.04134,1.50667"
       style="fill:#000000;fill-opacity:1;fill-rule:nonzero;stroke:none;stroke-width:1.33333"
       id="path193266" />
    <path
       d="m 307.79226,123.96867 c 0,0 -1.78667,3.572 -3.572,4.86267 -1.78667,1.29067 -11.716,-2.86133 -17.07467,-3.85333 -5.35866,-0.992 -23.37333,2.96266 -27.54133,5.64133 0,0 8.724,-5.848 12.19733,-7.73333 3.47334,-1.88534 14.48934,-2.16267 18.65734,-0.872 4.168,1.28933 12.412,1.75866 13.90133,1.75866 1.488,0 3.432,0.196 3.432,0.196"
       style="fill:#000000;fill-opacity:1;fill-rule:nonzero;stroke:none;stroke-width:1.33333"
       id="path193270" />
    <path
       d="m 305.79026,137.52601 c -0.12667,-1.01867 -0.11333,-2.184 -0.412,-3.16667 -0.15067,-0.49333 -0.31867,-1.328 -0.78,-1.66133 -0.796,-0.57334 -1.672,0.82266 -1.976,1.34666 -0.55067,0.95467 -0.97467,1.97867 -1.53733,2.92667 0,0 1.70933,-1.39067 2.30533,-0.596 0.59467,0.79333 3.45067,9.62667 3.45067,9.62667 -0.06,-0.48934 -0.12134,-0.97734 -0.18134,-1.46534 -0.28933,-2.33733 -0.58,-4.67333 -0.86933,-7.01066"
       style="fill:#000000;fill-opacity:1;fill-rule:nonzero;stroke:none;stroke-width:1.33333"
       id="path193274" />
    <path
       d="m 296.87253,144.82201 c 0,0 -5.584,2.672 -11.39067,2.672 0,0 8.48667,2.00266 11.39067,-2.672"
       style="fill:#000000;fill-opacity:1;fill-rule:nonzero;stroke:none;stroke-width:1.33333"
       id="path193278" />
    <path
       d="m 326.36453,146.11881 c 0,0 7.42666,3.3 10.60933,1.768 0,0 -4.244,3.18266 -10.60933,-1.768"
       style="fill:#000000;fill-opacity:1;fill-rule:nonzero;stroke:none;stroke-width:1.33333"
       id="path193282" />
  </g>
</svg>
