<?xml version="1.0" encoding="UTF-8" standalone="no"?>
<!-- Created with Inkscape (http://www.inkscape.org/) -->

<svg
   version="1.1"
   id="svg189182"
   width="400"
   height="400"
   viewBox="0 0 400 400"
   sodipodi:docname="Eyes3.svg"
   inkscape:version="1.2.2 (b0a8486, 2022-12-01)"
   xmlns:inkscape="http://www.inkscape.org/namespaces/inkscape"
   xmlns:sodipodi="http://sodipodi.sourceforge.net/DTD/sodipodi-0.dtd"
   xmlns="http://www.w3.org/2000/svg"
   xmlns:svg="http://www.w3.org/2000/svg">
  <defs
     id="defs189186" />
  <sodipodi:namedview
     id="namedview189184"
     pagecolor="#ffffff"
     bordercolor="#666666"
     borderopacity="1.0"
     inkscape:showpageshadow="2"
     inkscape:pageopacity="0.0"
     inkscape:pagecheckerboard="0"
     inkscape:deskcolor="#d1d1d1"
     showgrid="false"
     inkscape:zoom="24.805306"
     inkscape:cx="299.95599"
     inkscape:cy="119.99449"
     inkscape:window-width="1929"
     inkscape:window-height="1097"
     inkscape:window-x="2249"
     inkscape:window-y="124"
     inkscape:window-maximized="0"
     inkscape:current-layer="layer1">
    <inkscape:page
       x="0"
       y="0"
       id="page189188"
       width="400"
       height="400"
       margin="0"
       bleed="0" />
  </sodipodi:namedview>
  <g
     id="g189190"
     inkscape:groupmode="layer"
     inkscape:label="Eyes Main">
    <path
       d="m 321.71106,139.31601 c 0,0 3.60133,5.56533 9.16667,5.07466 5.56666,-0.49066 6.38533,-0.164 8.02133,-1.47333 0,0 -0.0867,4.20933 -1.92534,4.96933 -1.84,0.76 -7.56933,0.43334 -9.85999,-1.368 -2.292,-1.8 -5.40267,-7.20266 -5.40267,-7.20266"
       style="opacity:0.199997;fill:#000000;fill-opacity:1;fill-rule:nonzero;stroke:none;stroke-width:1.33333"
       id="path193156" />
    <path
       id="path193200"
       style="opacity:0.199997;fill:#000000;fill-opacity:1;fill-rule:nonzero;stroke:none;stroke-width:1.33333"
       d="M 298.64844 139 C 298.6718 140.12354 298.58089 141.13646 298.31055 141.40625 C 297.67055 142.04491 296.06698 142.52392 293.18164 144.28125 C 290.29631 146.03859 283.56339 144.76125 278.91406 144.28125 C 274.26607 143.80259 268.81586 139.96907 269.61719 140.92773 C 270.41853 141.88639 275.22669 146.68001 279.55469 147.63867 C 284.46268 148.72534 290.73146 147.90401 295.43945 146.27734 C 297.45145 145.58267 298.39588 144.3948 299.31055 142.60547 C 299.96408 141.32516 300.8653 140.11758 301.80273 139 L 298.64844 139 z " />
    <path
       d="m 336.08346,143.00747 c 0.57466,-0.14133 0.844,-0.32133 0.844,-0.32133 l 2.78533,-2.73467 -0.0547,-5.484 -6.84933,-0.87333 c 0,0 -6.248,1.47333 -7.52933,2.72933 -1.28267,1.25467 -1.91067,4.01067 -1.93733,4.092 0,0 0.136,0.84534 0.65466,0.95467 0.51867,0.10933 3.356,1.91067 4.36534,1.856 1.00933,-0.0547 7.72133,-0.21867 7.72133,-0.21867"
       style="fill:#ffffff;fill-opacity:1;fill-rule:nonzero;stroke:none;stroke-width:1.33333"
       id="path193210" />
    <path
       d="m 271.06893,137.72027 4.46666,-2.252 14.376,-0.51066 5.288,2.456 2.82267,2.76266 -1.12933,1.43334 -3.33734,0.204 c 0,0 -2.156,1.68933 -4.46666,1.63733 -2.30934,-0.0507 -13.296,-1.176 -13.296,-1.176 l -4.98134,-4.04267 z"
       style="fill:#ffffff;fill-opacity:1;fill-rule:nonzero;stroke:none;stroke-width:1.33333"
       id="path193214" />
    <path
       d="m 280.03306,134.98934 c -0.336,0.76133 -0.52667,1.60133 -0.52667,2.48667 0,2.06266 1.04134,4.08533 2.60134,5.208 l 5.83866,0.54666 c 2.31334,-0.896 3.956,-3.132 3.956,-5.75466 0,-0.77334 -0.148,-1.50934 -0.408,-2.192 -2.864,-0.88667 -8.16933,-0.59734 -11.46133,-0.29467"
       style="fill:#754324;fill-opacity:1;fill-rule:nonzero;stroke:none;stroke-width:1.33333"
       id="path193218" />
    <path
       d="m 288.34186,137.47574 c 0,1.452 -1.18133,2.628 -2.63733,2.628 -1.456,0 -2.63734,-1.176 -2.63734,-2.628 0,-1.452 1.18134,-2.628 2.63734,-2.628 1.456,0 2.63733,1.176 2.63733,2.628"
       style="fill:#000000;fill-opacity:1;fill-rule:nonzero;stroke:none;stroke-width:1.33333"
       id="path193222" />
    <path
       d="m 282.26573,142.27134 5.61733,0.52533 c 2.18533,-0.888 3.592,-2.96533 3.592,-5.32133 0,-0.62267 -0.104,-1.24267 -0.30933,-1.844 -2.81467,-0.78533 -7.868,-0.504 -10.83734,-0.24133 -0.26266,0.668 -0.39466,1.368 -0.39466,2.08533 0,1.856 0.912,3.72533 2.332,4.796 m 5.74,1.392 -6.05334,-0.56667 -0.0947,-0.068 c -1.688,-1.21333 -2.77867,-3.39333 -2.77867,-5.55333 0,-0.91867 0.18933,-1.81333 0.56267,-2.65733 l 0.10266,-0.22934 0.24934,-0.0227 c 3.73866,-0.34267 8.788,-0.56667 11.62666,0.312 l 0.19867,0.0613 0.0747,0.19333 c 0.28933,0.75867 0.436,1.548 0.436,2.34267 0,2.74267 -1.66,5.15733 -4.22934,6.152 z"
       style="fill:#000000;fill-opacity:1;fill-rule:nonzero;stroke:none;stroke-width:1.33333"
       id="path193226" />
    <path
       d="m 284.85266,136.79774 c 0,0.796 -0.648,1.44133 -1.44667,1.44133 -0.79866,0 -1.44666,-0.64533 -1.44666,-1.44133 0,-0.796 0.648,-1.44133 1.44666,-1.44133 0.79867,0 1.44667,0.64533 1.44667,1.44133"
       style="fill:#ffffff;fill-opacity:1;fill-rule:nonzero;stroke:none;stroke-width:1.33333"
       id="path193230" />
    <path
       d="m 298.26853,140.48107 c 0,0 -3.35067,-6.01066 -8.208,-6.344 -4.85867,-0.33466 -11.72667,0.5 -14.57467,0.5 -2.848,0 -5.696,3.34 -5.696,3.34 0,0 3.68533,4.17334 6.53333,4.508 l -4.188,-4.508 c 0,0 2.17867,-1.67066 5.02667,-1.83733 2.84667,-0.16667 10.55333,-0.16667 12.89867,0.16667 2.34533,0.33466 8.208,4.17466 8.208,4.17466"
       style="fill:#000000;fill-opacity:1;fill-rule:nonzero;stroke:none;stroke-width:1.33333"
       id="path193234" />
    <path
       d="m 332.02573,134.24614 c -1.08934,0.42267 -3.03867,0.356 -3.79734,0.76267 -1.38666,0.74266 -1.95733,0.93733 -3.192,3.08933 0.25734,2.372 1.58,4.072 3.32934,4.8 l 6.01333,-0.22133 c 1.536,-1.188 2.44133,-3.32267 2.44133,-5.508 0,-0.93734 -0.188,-1.82667 -0.51867,-2.632 -1.22266,-0.12134 -2.72533,-0.24 -4.27599,-0.29067"
       style="fill:#754324;fill-opacity:1;fill-rule:nonzero;stroke:none;stroke-width:1.33333"
       id="path193246" />
    <path
       d="m 334.12106,137.87521 c 0,1.53733 -1.24667,2.784 -2.784,2.784 -1.53733,0 -2.78267,-1.24667 -2.78267,-2.784 0,-1.53734 1.24534,-2.784 2.78267,-2.784 1.53733,0 2.784,1.24666 2.784,2.784"
       style="fill:#000000;fill-opacity:1;fill-rule:nonzero;stroke:none;stroke-width:1.33333"
       id="path193250" />
    <path
       d="m 330.63346,135.95867 c 0,0.84267 -0.684,1.52667 -1.52667,1.52667 -0.84266,0 -1.52666,-0.684 -1.52666,-1.52667 0,-0.84266 0.684,-1.52666 1.52666,-1.52666 0.84267,0 1.52667,0.684 1.52667,1.52666"
       style="fill:#ffffff;fill-opacity:1;fill-rule:nonzero;stroke:none;stroke-width:1.33333"
       id="path193254" />
    <path
       d="m 325.48533,138.19081 c 0.256,1.97733 1.35333,3.56 2.96133,4.268 l 5.772,-0.21067 c 1.33866,-1.10133 2.16533,-3.032 2.16533,-5.07867 0,-0.76666 -0.132,-1.51333 -0.392,-2.22533 -1.37467,-0.132 -2.68266,-0.21867 -3.896,-0.26 -0.572,0.20267 -1.296,0.292 -1.99733,0.376 -0.66267,0.08 -1.34933,0.164 -1.66533,0.332 l -0.268,0.144 c -1.14934,0.608 -1.63867,0.868 -2.68,2.65467 m 2.80133,5.14533 -0.088,-0.036 c -1.992,-0.82933 -3.33467,-2.756 -3.596,-5.15467 l -0.0147,-0.14133 0.0707,-0.12267 c 1.21467,-2.11733 1.884,-2.472 3.09867,-3.11466 l 0.26533,-0.14134 c 0.46,-0.24666 1.19333,-0.336 1.972,-0.42933 0.684,-0.0827 1.39067,-0.16933 1.87333,-0.356 l 0.0827,-0.032 0.0893,0.003 c 1.332,0.044 2.78,0.14266 4.304,0.292 l 0.26,0.0253 0.1,0.24267 c 0.36533,0.88933 0.55067,1.83066 0.55067,2.79866 0,2.36534 -1,4.608 -2.60934,5.852 l -0.11066,0.0853 z"
       style="fill:#000000;fill-opacity:1;fill-rule:nonzero;stroke:none;stroke-width:1.33333"
       id="path193258" />
    <path
       d="m 336.11159,134.86921 c 2.78667,0.52133 2.29867,1.592 2.29867,3.89066 0,2.29867 -2.32667,4.248 -2.32667,4.248 3.36,-0.53066 4.448,-3.89466 4.448,-3.89466 l 1.23867,-5.30534 c 0,0 -3.52534,-0.70666 -9.19467,-0.70666 -2.33466,0 -6.08533,1.852 -6.85866,2.34933 -0.772,0.496 -2.15067,3.972 -2.15067,3.972 0,0 2.26133,-2.924 3.64,-3.42 1.38,-0.49733 5.508,-1.76933 8.90533,-1.13333"
       style="fill:#000000;fill-opacity:1;fill-rule:nonzero;stroke:none;stroke-width:1.33333"
       id="path193262" />
    <path
       d="m 305.79026,137.52601 c -0.12667,-1.01867 -0.11333,-2.184 -0.412,-3.16667 -0.15067,-0.49333 -0.31867,-1.328 -0.78,-1.66133 -0.796,-0.57334 -1.672,0.82266 -1.976,1.34666 -0.55067,0.95467 -0.97467,1.97867 -1.53733,2.92667 0,0 1.70933,-1.39067 2.30533,-0.596 0.59467,0.79333 3.45067,9.62667 3.45067,9.62667 -0.06,-0.48934 -0.12134,-0.97734 -0.18134,-1.46534 -0.28933,-2.33733 -0.58,-4.67333 -0.86933,-7.01066"
       style="fill:#000000;fill-opacity:1;fill-rule:nonzero;stroke:none;stroke-width:1.33333"
       id="path193274" />
    <path
       d="m 296.87253,144.82201 c 0,0 -5.584,2.672 -11.39067,2.672 0,0 8.48667,2.00266 11.39067,-2.672"
       style="fill:#000000;fill-opacity:1;fill-rule:nonzero;stroke:none;stroke-width:1.33333"
       id="path193278" />
    <path
       d="m 326.36453,146.11881 c 0,0 7.42666,3.3 10.60933,1.768 0,0 -4.244,3.18266 -10.60933,-1.768"
       style="fill:#000000;fill-opacity:1;fill-rule:nonzero;stroke:none;stroke-width:1.33333"
       id="path193282" />
  </g>
  <g
     inkscape:groupmode="layer"
     id="layer1"
     inkscape:label="Standard Brows"
     style="display:inline">
    <path
       id="path193172"
       style="opacity:0.199997;fill:#000000;fill-opacity:1;fill-rule:nonzero;stroke:none;stroke-width:1.33333"
       d="m 323.65266,135.83067 c 2.63467,-2.41333 7.436,-4.57466 10.4,-5.44666 2.964,-0.872 10.288,-0.17467 10.288,-0.17467 l 3.31333,-5.05733 -6.80133,-2.964 -16.74,5.92933 c 0,0 -4.01067,4.01067 -4.53333,5.23067 -0.52267,1.22133 1.172,5.14 4.07333,2.48266 M 309.64453,119.3418 c 0,0 -2.62721,3.38815 -4.92187,5.16015 -1.08533,0.83867 -5.64588,2.14081 -6.78321,1.85547 -2.57466,-0.64533 -5.10173,-1.47256 -7.67773,-2.11523 -2.60534,-0.65066 -5.22458,-1.01458 -7.75391,-1.78125 -1.09733,-0.33333 -2.2218,-0.29418 -3.34179,-0.0742 -1.81467,0.356 -3.61788,1.18822 -5.28321,1.68555 -1.716,0.512 -2.9707,1.23501 -4.60937,1.79101 -1.68533,0.57066 -4.19401,1.47786 -5.38867,2.50586 2.17066,0.003 4.22002,-0.0145 6.19335,0.88281 1.744,0.79333 4.76005,1.73825 6.74805,1.04493 2.08,-0.72533 12.82796,0.56445 14.75195,1.20312 1.924,0.64 5.77078,3.19727 6.41211,3.83594 0.37099,0.36943 0.62615,2.1223 0.65821,3.66406 h 3.15429 c 0.18332,-0.21854 0.36607,-0.43928 0.55079,-0.65039 0.81733,-0.93333 2.11229,-1.7321 2.40429,-2.99609 0.45066,-1.96 -0.43691,-3.70649 0.23242,-5.64649 0.668,-1.93734 2.07501,-3.53078 2.875,-5.41211 0.56666,-1.332 0.9033,-3.82378 1.7793,-4.95312 z" />
    <path
       id="path193242"
       style="fill:#000000;fill-opacity:1;fill-rule:nonzero;stroke:none;stroke-width:1.33333"
       d="m 323.73426,135.75334 c 0,0 4.244,-4.95067 10.256,-5.48133 z m -24.29307,0.8876 c 0,0 -4.52266,-4.84133 -7.87333,-5.67733 -3.35067,-0.83467 -12.732,-1.50267 -14.74133,-0.66667 0,0 11.39066,-0.168 13.904,1.66933 2.512,1.836 9.716,6.344 8.71066,4.67467" />
    <path
       id="path193270"
       style="fill:#383838;fill-opacity:1;fill-rule:nonzero;stroke:none;stroke-width:1.33333"
       d="m 307.79226,123.96867 c 0,0 -1.78667,3.572 -3.572,4.86267 -1.78667,1.29067 -11.716,-2.86133 -17.07467,-3.85333 -5.35866,-0.992 -23.37333,2.96266 -27.54133,5.64133 0,0 8.724,-5.848 12.19733,-7.73333 3.47334,-1.88534 14.48934,-2.16267 18.65734,-0.872 4.168,1.28933 12.412,1.75866 13.90133,1.75866 1.488,0 3.432,0.196 3.432,0.196 m 25.7464,-0.93426 c 5.83866,-1.12934 10.85066,-2.744 12.54533,-0.672 1.696,2.072 1.46133,2.12666 0.14267,3.63333 -1.31867,1.50667 -3.01334,0.94133 -4.332,-0.376 -1.31867,-1.31867 -4.52134,0.188 -9.41733,0.94133 -4.89734,0.75334 -12.58878,5.12539 -9.14824,1.66345 2.31789,-2.33926 4.36957,-4.05945 10.20957,-5.19011 z"
       sodipodi:nodetypes="ccscscscccscccc" />
    <path
       style="color:#000000;fill:#000000;-inkscape-stroke:none"
       d="m 280.86133,121.05859 c -3.72353,0.14423 -7.34333,0.66935 -9.1543,1.65235 -3.50127,1.90049 -12.24601,7.85766 -11.95877,7.78396 0.0857,-0.0334 2.87443,-1.10554 5.22435,-1.83474 2.35097,-0.72953 5.15422,-1.44436 7.99609,-2.04297 5.68374,-1.19723 11.54752,-1.9234 14.14062,-1.44336 2.65197,0.49093 6.47465,1.77705 9.85547,2.7793 1.69041,0.50112 3.27169,0.93032 4.55274,1.15624 0.64052,0.11297 1.20611,0.17639 1.67969,0.16797 0.47357,-0.008 0.86102,-0.0812 1.14062,-0.2832 0.93799,-0.6781 1.8302,-1.90719 2.50586,-2.9707 0.67566,-1.06351 1.12695,-1.96485 1.12695,-1.96485 l 0.13086,-0.25976 -0.28906,-0.0293 c 0,0 -1.94756,-0.19726 -3.45313,-0.19726 -1.44731,0 -9.73184,-0.47863 -13.84179,-1.75 -2.13543,-0.66126 -5.93273,-0.9079 -9.65625,-0.76368 z m 63.39844,0.17774 c -0.83019,-0.12707 -1.81274,-0.0817 -2.91993,0.0625 -2.21437,0.2884 -4.92749,0.97574 -7.83984,1.53906 -5.86697,1.13588 -8.97139,3.67906 -9.97703,4.91685 -1.00564,1.2378 -1.16722,1.59806 -1.51134,2.15697 1.07957,-0.26194 2.15029,-0.66412 3.00218,-0.93865 2.08099,-0.7094 4.99309,-1.62653 7.43697,-2.15825 2.44388,-0.53172 4.55188,-1.00173 6.11561,-1.30505 0.78186,-0.15167 1.44441,-0.23577 1.97656,-0.20508 0.53215,0.0307 0.92336,0.16945 1.21094,0.45703 0.67951,0.67883 1.46179,1.17565 2.27539,1.30273 0.81359,0.12708 1.65219,-0.14288 2.34765,-0.9375 0.32813,-0.3749 0.59107,-0.66096 0.78321,-0.92578 0.19214,-0.26481 0.31905,-0.51949 0.32617,-0.80469 0.0142,-0.57039 -0.39664,-1.11999 -1.24805,-2.16015 -0.46231,-0.56525 -1.14833,-0.87294 -1.97851,-1 z m -63.38282,0.22265 c 3.69481,-0.14311 7.49087,0.11669 9.52344,0.7461 4.22604,1.30728 12.42764,1.76758 13.95898,1.76758 1.33494,0 2.26733,0.0272 2.57358,0.0568 -0.10331,0.20171 -0.37874,0.76026 -0.94922,1.6582 -0.664,1.04516 -1.27475,1.8053 -2.12209,2.41787 -0.82015,0.35719 -1.73387,0.15264 -2.51758,0.0469 -1.25066,-0.22057 -1.97823,-0.43943 -4.58649,-1.10812 -2.60826,-0.66869 -6.86923,-1.76196 -9.57593,-2.26303 -2.76555,-0.51196 -8.58967,0.24355 -14.29492,1.44531 -2.85263,0.60088 -5.66672,1.31644 -8.0332,2.05078 -1.45202,0.45058 -2.26484,0.88944 -3.28711,1.33399 1.97743,-1.31636 7.40927,-4.96341 10.33007,-6.54883 1.66237,-0.90234 5.28567,-1.46041 8.98047,-1.60352 z m 64.77054,0.98899 c 0.84459,1.03183 0.96345,1.38558 0.95468,1.73718 -0.13794,0.61506 -0.28859,0.94424 -0.64694,1.35562 -0.6232,0.71206 -1.26724,0.9777 -2.21892,0.49104 -0.95167,-0.48666 -1.75564,-1.13398 -2.96833,-1.28877 -1.21269,-0.15479 -1.5988,0.11402 -2.81406,0.37415 -1.21525,0.26013 -3.00261,0.7249 -5.50665,1.24609 -2.50404,0.52119 -5.60106,1.61314 -7.66407,2.31641 -0.69576,0.23303 -1.49217,0.49248 -2.16966,0.70595 0.32076,-0.38424 0.8598,-1.05357 1.22115,-1.44754 1.87568,-1.80441 4.15652,-3.46823 9.74149,-4.7077 2.90974,-0.64576 5.6395,-1.25189 7.81445,-1.53516 1.08748,-0.14163 2.03995,-0.18014 2.80859,-0.0625 0.76864,0.11768 1.06325,0.34444 1.44827,0.81519 z"
       id="path29812"
       sodipodi:nodetypes="cscsssssccscccscccssczcczsscsssscssccscscczssscsscccczzzzcccscccc" />
    <path
       id="path14615"
       style="fill:#000000;fill-opacity:0.2;stroke:none;stroke-width:1px;stroke-linecap:butt;stroke-linejoin:miter;stroke-opacity:1"
       d="M 346.14062 122.43359 C 345.50337 122.85764 344.86705 123.22363 344.35547 123.375 C 342.68512 123.86925 342.18262 123.00452 339.56641 123.26172 C 336.95019 123.51892 332.03135 124.36921 328.84766 125.65625 C 326.84902 126.46422 324.2398 128.1687 322.48828 129.375 C 322.51882 130.25356 328.43848 127.18171 332.47656 126.56055 C 337.37255 125.80722 340.57586 124.30047 341.89453 125.61914 C 343.21319 126.93647 344.90789 127.50276 346.22656 125.99609 C 347.52828 124.50878 347.766 124.42837 346.14062 122.43359 z M 283.16406 122.77148 C 279.05999 122.77884 275.33476 123.4021 271.26562 124.74414 C 268.66446 125.60203 264.81792 127.75763 261.82227 129.54492 C 268.16349 127.01212 282.47098 124.11298 287.14648 124.97852 C 292.50515 125.97051 302.43403 130.1227 304.2207 128.83203 C 306.00603 127.54136 307.79297 123.96875 307.79297 123.96875 C 307.79297 123.96875 307.01241 123.89531 306.08008 123.83789 C 305.12456 124.8226 304.25503 125.63773 303.76367 125.88281 C 302.14925 126.68806 301.38609 126.45116 298.64258 125.99023 C 295.89907 125.5293 289.78 122.99501 284.94922 122.80469 C 284.34537 122.7809 283.75036 122.77043 283.16406 122.77148 z " />
  </g>
  <g
     inkscape:groupmode="layer"
     id="g4"
     inkscape:label="Vulcan Brows"
     sodipodi:insensitive="true"
     style="display:none">
    <path
       id="path2"
       style="opacity:0.199997;fill:#000000;fill-opacity:1;fill-rule:nonzero;stroke:none;stroke-width:1.33333"
       d="m 323.65266,135.83067 c 2.63467,-2.41333 7.436,-4.57466 10.4,-5.44666 2.964,-0.872 10.288,-0.17467 10.288,-0.17467 l 4.51183,-9.25203 -7.99983,1.2307 -16.74,5.92933 c 0,0 -4.01067,4.01067 -4.53333,5.23067 -0.52267,1.22133 1.172,5.14 4.07333,2.48266 M 309.64453,119.3418 c 0,0 -2.62721,3.38815 -4.92187,5.16015 -1.08533,0.83867 -5.64588,2.14081 -6.78321,1.85547 -2.57466,-0.64533 -5.10173,-1.47256 -7.67773,-2.11523 -2.60534,-0.65066 -5.22458,-1.01458 -7.75391,-1.78125 -1.09733,-0.33333 -2.2218,-0.29418 -3.34179,-0.0742 -1.81467,0.356 -3.49803,0.10958 -5.7626,0.12752 -1.83585,-0.32694 -2.61116,-0.0833 -4.36968,-0.48612 -1.92502,-0.38812 -4.6734,-1.51835 -6.707,-1.68884 2.29051,0.84194 5.77805,8.01536 7.75138,8.91267 1.744,0.79333 4.76005,1.73825 6.74805,1.04493 2.08,-0.72533 12.82796,0.56445 14.75195,1.20312 1.924,0.64 5.77078,3.19727 6.41211,3.83594 0.37099,0.36943 0.62615,2.1223 0.65821,3.66406 h 3.15429 c 0.18332,-0.21854 0.36607,-0.43928 0.55079,-0.65039 0.81733,-0.93333 2.11229,-1.7321 2.40429,-2.99609 0.45066,-1.96 -0.43691,-3.70649 0.23242,-5.64649 0.668,-1.93734 2.07501,-3.53078 2.875,-5.41211 0.56666,-1.332 0.9033,-3.82378 1.7793,-4.95312 z"
       sodipodi:nodetypes="csccccccccccccccccccsccccccsc" />
    <path
       id="path3"
       style="fill:#000000;fill-opacity:1;fill-rule:nonzero;stroke:none;stroke-width:1.33333"
       d="m 323.73426,135.75334 c 0,0 4.244,-4.95067 10.256,-5.48133 z m -24.29307,0.8876 c 0,0 -4.52266,-4.84133 -7.87333,-5.67733 -3.35067,-0.83467 -12.732,-1.50267 -14.74133,-0.66667 0,0 11.39066,-0.168 13.904,1.66933 2.512,1.836 9.716,6.344 8.71066,4.67467" />
    <path
       id="path4"
       style="fill:#000000;fill-opacity:1;fill-rule:nonzero;stroke:none;stroke-width:1.33333"
       d="m 307.79226,123.96867 c 0,0 -1.78667,3.572 -3.572,4.86267 -1.78667,1.29067 -11.716,-2.86133 -17.07467,-3.85333 -5.35866,-0.992 -22.53439,-2.55038 -27.18178,-5.74429 0,0 8.03313,1.38894 11.95763,1.85456 4.31228,0.51163 14.04792,0.5302 18.53749,0.92573 4.48957,0.39553 12.412,1.75866 13.90133,1.75866 1.488,0 3.432,0.196 3.432,0.196 m 15.64373,4.09907 c 2.268,-2.268 4.26267,-3.90267 10.10267,-5.03333 5.83866,-1.12934 11.56853,-2.08501 13.98352,-2.94913 2.41499,-0.86411 2.86097,-1.23327 0.38235,1.83561 0,0 -2.83191,1.99341 -5.65033,2.74006 -2.81842,0.74665 -4.88088,1.14679 -9.77687,1.90012 -4.89734,0.75334 -12.432,4.89734 -9.04134,1.50667"
       sodipodi:nodetypes="ccscszsccczszcc" />
  </g>
</svg>
