<?xml version="1.0" encoding="UTF-8" standalone="no"?>
<!-- Created with Inkscape (http://www.inkscape.org/) -->

<svg
   version="1.1"
   id="svg202860"
   width="400"
   height="400"
   viewBox="0 0 400 400"
   sodipodi:docname="Eyes5.svg"
   inkscape:version="1.2.2 (b0a8486, 2022-12-01)"
   xml:space="preserve"
   xmlns:inkscape="http://www.inkscape.org/namespaces/inkscape"
   xmlns:sodipodi="http://sodipodi.sourceforge.net/DTD/sodipodi-0.dtd"
   xmlns="http://www.w3.org/2000/svg"
   xmlns:svg="http://www.w3.org/2000/svg"><defs
     id="defs202864" /><sodipodi:namedview
     id="namedview202862"
     pagecolor="#ffffff"
     bordercolor="#666666"
     borderopacity="1.0"
     inkscape:showpageshadow="2"
     inkscape:pageopacity="0.0"
     inkscape:pagecheckerboard="0"
     inkscape:deskcolor="#d1d1d1"
     showgrid="false"
     inkscape:zoom="2.465"
     inkscape:cx="199.79716"
     inkscape:cy="200"
     inkscape:window-width="1826"
     inkscape:window-height="1206"
     inkscape:window-x="2508"
     inkscape:window-y="25"
     inkscape:window-maximized="0"
     inkscape:current-layer="g21815"
     showguides="false"><inkscape:page
       x="0"
       y="0"
       id="page202866"
       width="400"
       height="400"
       margin="0"
       bleed="0" /></sodipodi:namedview><g
     id="g202868"
     inkscape:groupmode="layer"
     inkscape:label="Eyes Main"><path
       d="m 296.82453,147.19601 c 0,0 -5.37334,3.28 -11.04534,3.624 0,0 7.94,1.732 11.04534,-3.624"
       style="fill:#000000;fill-opacity:1;fill-rule:nonzero;stroke:none;stroke-width:1.33333"
       id="path206552" /><path
       d="m 321.56666,139.62561 c 0,0 3.68667,5.92933 9.38267,5.40533 5.69733,-0.52267 6.53599,-0.17467 8.21066,-1.56933 0,0 -0.088,4.484 -1.97067,5.29333 -1.88266,0.80933 -7.74799,0.46133 -10.09333,-1.45733 -2.34533,-1.91734 -5.52933,-7.672 -5.52933,-7.672"
       style="opacity:0.199997;fill:#000000;fill-opacity:1;fill-rule:nonzero;stroke:none;stroke-width:1.33333"
       id="path206562" /><path
       d="m 336.27799,143.55774 c 0.588,-0.15067 0.864,-0.34267 0.864,-0.34267 l 2.85067,-2.912 -0.056,-5.84266 -7.00933,-0.92934 c 0,0 -6.396,1.56934 -7.70934,2.90667 -1.312,1.336 -1.95466,4.272 -1.98266,4.35867 0,0 0.14,0.90133 0.67066,1.01733 0.53067,0.116 3.43467,2.03467 4.468,1.976 1.03334,-0.0573 7.904,-0.232 7.904,-0.232"
       style="fill:#ffffff;fill-opacity:1;fill-rule:nonzero;stroke:none;stroke-width:1.33333"
       id="path206600" /><path
       d="m 270.76559,138.39214 4.41867,-2.45733 14.22133,-0.55867 5.232,2.68133 2.832,3.016 -1.22933,1.56267 -3.228,0.224 c 0,0 -2.13333,1.84267 -4.41867,1.78667 -2.28533,-0.056 -13.15466,-1.284 -13.15466,-1.284 l -4.92667,-4.412 z"
       style="fill:#ffffff;fill-opacity:1;fill-rule:nonzero;stroke:none;stroke-width:1.33333"
       id="path206604" /><path
       d="m 277.90026,135.41161 c -0.36667,0.83066 -0.57333,1.748 -0.57333,2.71333 0,2.252 1.13333,4.46 2.82933,5.684 l 6.352,0.59733 c 2.51733,-0.97866 4.304,-3.41866 4.304,-6.28133 0,-0.84267 -0.16133,-1.64667 -0.444,-2.392 -3.116,-0.96667 -8.88667,-0.65067 -12.468,-0.32133"
       style="fill:#754324;fill-opacity:1;fill-rule:nonzero;stroke:none;stroke-width:1.33333"
       id="path206608" /><path
       d="m 286.93853,138.12521 c 0,1.584 -1.284,2.86933 -2.86934,2.86933 -1.584,0 -2.868,-1.28533 -2.868,-2.86933 0,-1.584 1.284,-2.86934 2.868,-2.86934 1.58534,0 2.86934,1.28534 2.86934,2.86934"
       style="fill:#000000;fill-opacity:1;fill-rule:nonzero;stroke:none;stroke-width:1.33333"
       id="path206612" /><path
       d="m 280.32893,143.35934 6.11066,0.57333 c 2.37734,-0.96933 3.908,-3.23733 3.908,-5.808 0,-0.68 -0.11333,-1.356 -0.33733,-2.012 -3.06133,-0.85733 -8.55867,-0.55066 -11.78933,-0.264 -0.28534,0.72934 -0.42934,1.49334 -0.42934,2.276 0,2.02534 0.992,4.06534 2.53734,5.23467 m 6.244,1.52 -6.58534,-0.61867 -0.10266,-0.0747 c -1.836,-1.324 -3.02134,-3.704 -3.02134,-6.06134 0,-1.00266 0.20534,-1.97866 0.612,-2.9 l 0.10934,-0.25066 0.27333,-0.0253 c 4.06533,-0.37333 9.56,-0.61866 12.64667,0.34134 l 0.216,0.0667 0.0813,0.212 c 0.31467,0.828 0.47467,1.688 0.47467,2.556 0,2.99334 -1.80667,5.628 -4.60134,6.71467 z"
       style="fill:#000000;fill-opacity:1;fill-rule:nonzero;stroke:none;stroke-width:1.33333"
       id="path206616" /><path
       d="m 283.14293,137.38521 c 0,0.86933 -0.704,1.57333 -1.57334,1.57333 -0.86933,0 -1.57333,-0.704 -1.57333,-1.57333 0,-0.86934 0.704,-1.57334 1.57333,-1.57334 0.86934,0 1.57334,0.704 1.57334,1.57334"
       style="fill:#ffffff;fill-opacity:1;fill-rule:nonzero;stroke:none;stroke-width:1.33333"
       id="path206620" /><path
       d="m 297.73679,141.40534 c -0.0173,-0.0307 -3.196,-6.52933 -8.92933,-6.924 -5.284,-0.36533 -10.85467,0.54667 -13.672,0.54667 -2.81733,0 -5.63467,3.644 -5.63467,3.644 0,0 3.64534,4.556 6.46267,4.92 l -4.14267,-4.92 c 0,0 2.15467,-1.82267 4.972,-2.004 2.81734,-0.18267 10.44,-0.18267 12.76,0.18133 2.32134,0.36533 8.184,4.556 8.184,4.556"
       style="fill:#000000;fill-opacity:1;fill-rule:nonzero;stroke:none;stroke-width:1.33333"
       id="path206624" /><path
       d="m 332.48479,134.22507 c -1.16,0.44934 -3.236,0.37867 -4.04533,0.812 -1.47733,0.792 -2.084,1 -3.4,3.292 0.27333,2.52667 1.68267,4.336 3.54667,5.112 l 6.40533,-0.23466 c 1.636,-1.26534 2.6,-3.54 2.6,-5.868 0,-0.99867 -0.2,-1.94534 -0.552,-2.804 -1.30267,-0.12934 -2.904,-0.25467 -4.55467,-0.30934"
       style="fill:#754324;fill-opacity:1;fill-rule:nonzero;stroke:none;stroke-width:1.33333"
       id="path206636" /><path
       d="m 334.71679,138.09081 c 0,1.63733 -1.328,2.96533 -2.96533,2.96533 -1.63733,0 -2.96533,-1.328 -2.96533,-2.96533 0,-1.63734 1.328,-2.96534 2.96533,-2.96534 1.63733,0 2.96533,1.328 2.96533,2.96534"
       style="fill:#000000;fill-opacity:1;fill-rule:nonzero;stroke:none;stroke-width:1.33333"
       id="path206640" /><path
       d="m 331.00186,136.04921 c 0,0.89866 -0.728,1.62666 -1.62667,1.62666 -0.89733,0 -1.62666,-0.728 -1.62666,-1.62666 0,-0.89867 0.72933,-1.62667 1.62666,-1.62667 0.89867,0 1.62667,0.728 1.62667,1.62667"
       style="fill:#ffffff;fill-opacity:1;fill-rule:nonzero;stroke:none;stroke-width:1.33333"
       id="path206644" /><path
       d="m 325.51799,138.42707 c 0.27334,2.10667 1.44134,3.792 3.15467,4.54667 l 6.14933,-0.22533 c 1.42533,-1.172 2.30533,-3.22934 2.30533,-5.40934 0,-0.816 -0.14,-1.612 -0.41733,-2.37066 -1.464,-0.14 -2.85867,-0.232 -4.14933,-0.27734 -0.60933,0.21734 -1.38133,0.31067 -2.128,0.40134 -0.70667,0.0853 -1.43867,0.17466 -1.77467,0.35333 l -0.28533,0.15333 c -1.224,0.648 -1.74533,0.92534 -2.85467,2.828 m 2.984,5.48134 -0.0947,-0.0387 c -2.12,-0.884 -3.552,-2.936 -3.82934,-5.492 l -0.016,-0.14933 0.0747,-0.13067 c 1.29467,-2.25467 2.008,-2.63333 3.30133,-3.31867 l 0.28267,-0.15066 c 0.48933,-0.26134 1.272,-0.35734 2.1,-0.45734 0.72933,-0.088 1.48267,-0.17866 1.996,-0.37866 l 0.088,-0.0333 0.096,0.003 c 1.41866,0.0467 2.96133,0.15067 4.584,0.31067 l 0.27733,0.028 0.10533,0.25733 c 0.39067,0.948 0.588,1.95067 0.588,2.98133 0,2.51867 -1.06533,4.908 -2.78,6.23467 l -0.11866,0.0907 z"
       style="fill:#000000;fill-opacity:1;fill-rule:nonzero;stroke:none;stroke-width:1.33333"
       id="path206648" /><path
       d="m 336.30679,134.88894 c 2.852,0.556 2.35333,1.69467 2.35333,4.144 0,2.448 -2.38266,4.52533 -2.38266,4.52533 3.44,-0.56533 4.55466,-4.14933 4.55466,-4.14933 l 1.26667,-5.65067 c 0,0 -3.60933,-0.75333 -9.412,-0.75333 -2.38933,0 -6.22933,1.97467 -7.02,2.50267 -0.78933,0.52933 -2.20133,4.232 -2.20133,4.232 0,0 2.31467,-3.11467 3.72667,-3.644 1.412,-0.52934 5.63733,-1.884 9.11466,-1.20667"
       style="fill:#000000;fill-opacity:1;fill-rule:nonzero;stroke:none;stroke-width:1.33333"
       id="path206652" /><path
       d="m 326.45453,146.87201 c 0,0 7.91066,3.516 11.30133,1.884 0,0 -4.52133,3.38933 -11.30133,-1.884"
       style="fill:#000000;fill-opacity:1;fill-rule:nonzero;stroke:none;stroke-width:1.33333"
       id="path206668" /><path
       id="rect2"
       style="fill:#000000;fill-opacity:1;stroke-width:2.4;stroke-miterlimit:40;opacity:0.2"
       d="M 298.12109 139 C 298.21836 140.5158 298.13997 142.0573 297.7832 142.41406 C 297.08587 143.11273 295.49528 143.6354 292.64062 145.55273 C 289.78596 147.47139 283.12734 146.07673 278.52734 145.55273 C 273.92868 145.03006 268.53674 140.84592 269.33008 141.89258 C 270.12341 142.93925 272.82704 149.31048 281.48438 150.50781 C 290.14037 151.70515 292.36238 149.68904 296.37305 147.5957 C 299.74017 145.83938 298.94682 142.51945 300.14453 139 L 298.12109 139 z " /></g><g
     inkscape:groupmode="layer"
     id="layer5"
     inkscape:label="Nose Edge"
     sodipodi:insensitive="true"><path
       d="m 305.35226,133.99374 1.488,12.008 c 0,0 -2.48,-10.916 -3.076,-11.71067 -0.59467,-0.79333 -2.67867,2.68 -2.67867,2.68 l 3.77067,-6.352 z"
       style="fill:#000000;fill-opacity:1;fill-rule:nonzero;stroke:none;stroke-width:1.33333"
       id="path206664" /></g><g
     inkscape:groupmode="layer"
     id="layer3"
     inkscape:label="Standard Brow"
     style="display:none"
     sodipodi:insensitive="true"><path
       id="path206578"
       style="opacity:0.199997;fill:#000000;fill-opacity:1;fill-rule:nonzero;stroke:none;stroke-width:1.33333"
       d="m 323.65266,135.83067 c 2.63467,-2.41333 7.436,-4.57466 10.4,-5.44666 2.964,-0.872 10.288,-0.17467 10.288,-0.17467 0,0 3.34636,-2.75466 3.31333,-5.05733 -0.033,-2.30267 -6.80133,-2.964 -6.80133,-2.964 l -16.74,5.92933 c 0,0 -4.01067,4.01067 -4.53333,5.23067 -0.52267,1.22133 1.172,5.14 4.07333,2.48266 M 309.64453,119.3418 c 0,0 -4.90065,5.52744 -7.19531,7.30078 -2.29334,1.772 -17.3262,-6.15781 -25.24219,-3.75781 l -14.82226,6.27734 c 2.78932,-0.52267 9.76468,1.91895 12.02734,1.12695 2.26134,-0.792 13.95488,0.61713 16.04687,1.31446 2.09333,0.69733 6.2779,3.4882 6.97657,4.18554 0.34056,0.34057 0.5927,1.76397 0.68554,3.21094 h 2.02344 c 0.22891,-0.67265 0.52337,-1.35153 0.94141,-2.0293 1.316,-2.13466 2.59887,-4.08827 3.76953,-6.34961 4.05866,-7.83732 4.78906,-11.27929 4.78906,-11.27929 z"
       sodipodi:nodetypes="csczcccccccccccccccc" /><path
       id="path206632"
       style="fill:#000000;fill-opacity:1;fill-rule:nonzero;stroke:none;stroke-width:1.33333"
       d="m 339.07919,129.89774 c -12.59066,0.104 -15.42666,5.93333 -15.42666,5.93333 0,0 4.64933,-3.23866 7.86133,-4.27466 3.21333,-1.03734 7.56533,-1.65867 7.56533,-1.65867 m -40.0668,7.3164 c 0,0 -4.92,-5.284 -8.56533,-6.196 -3.644,-0.91067 -13.848,-1.64 -16.03467,-0.728 0,0 12.39067,-0.18267 15.124,1.82133 3.308,2.42667 10.316,6.504 9.476,5.10267" /><path
       id="path206660"
       style="fill:#383838;fill-opacity:1;fill-rule:nonzero;stroke:none;stroke-width:1.33333"
       d="m 308.95493,121.28521 c 0,0 -3.336,7.20666 -5.12267,8.496 -1.78667,1.29066 -15.008,-2.31867 -20.36667,-3.31067 -2.448,-0.45333 -5.06133,-0.22133 -7.51733,0.0267 -3.11467,0.31466 -6.216,0.84 -9.25733,1.57733 -1.85031,0.44133 -3.44789,0.94269 -5.07867,1.55467 -0.336,0.14666 -1.064,0.484 -1.20933,-0.12 0.63094,-1.50771 1.83418,-3.01244 2.704,-4.18667 1.31466,-1.77067 2.82133,-3.836 4.80266,-4.912 3.47334,-1.88533 14.38667,-2.78933 18.55467,-1.49867 4.168,1.28934 15.12933,4.31067 16.61867,4.31067 1.488,0 5.872,-1.93733 5.872,-1.93733 m 24.48906,-1.62417 c 5.83867,-1.13066 10.42533,-2.19733 12.12,-0.12533 1.696,2.072 1.98133,4.95333 0.66267,6.46 -1.31867,1.50667 -3.01334,0.94133 -4.332,-0.376 -1.31867,-1.31867 -4.52134,0.188 -9.41733,0.94133 -4.89734,0.75334 -12.432,4.89734 -9.04134,1.50667 2.268,-2.268 4.16934,-7.27733 10.008,-8.40667 z"
       sodipodi:nodetypes="ccccccccccscccscccc" /><path
       style="color:#000000;fill:#000000;-inkscape-stroke:none"
       d="m 282.30078,118.08398 c -1.67549,-0.0672 -3.54373,-0.0142 -5.39453,0.13672 -3.7016,0.30181 -7.29681,0.98366 -9.11523,1.97071 -2.05252,1.11466 -3.57108,3.21305 -4.88477,4.98242 -0.86499,1.1677 -2.08261,2.6808 -2.73438,4.23828 l -0.0312,0.0762 0.0195,0.0801 c 0.0487,0.2023 0.16884,0.36963 0.32617,0.45508 0.15733,0.0855 0.32664,0.0932 0.47851,0.0762 0.30374,-0.0341 0.58379,-0.17049 0.74805,-0.24219 l -0.0137,0.006 c 1.62254,-0.60889 3.20849,-1.10597 5.04883,-1.54492 h 0.002 c 3.02993,-0.73457 6.11916,-1.25874 9.22266,-1.57227 2.45386,-0.24781 5.0456,-0.47404 7.44726,-0.0293 2.66216,0.49282 7.31187,1.64328 11.51758,2.50976 2.10285,0.43324 4.09614,0.7967 5.68555,0.97071 0.7947,0.087 1.48704,0.12728 2.05078,0.10351 0.56374,-0.0238 0.99961,-0.096 1.30469,-0.31641 0.50634,-0.3654 1.04662,-1.07059 1.61718,-1.9375 0.57056,-0.8669 1.15671,-1.89353 1.6875,-2.8789 0.77718,-1.43375 1.49097,-2.90018 2.17774,-4.37891 -1.05792,0.46473 -2.1056,0.90121 -2.97266,1.23047 -1.27452,0.48151 -2.41639,1.08279 -3.40625,0.95313 -0.98986,-0.12966 -4.97902,-1.06385 -7.24023,-1.66407 -3.44435,-0.91566 -7.22518,-1.99208 -9.30274,-2.63476 -1.07932,-0.33422 -2.56279,-0.52267 -4.23828,-0.58985 z m 51.0957,1.33208 c -5.40623,1.02682 -8.71149,6.70644 -9.83245,8.145 -1.12097,1.43855 -1.53661,1.93645 -1.7742,2.3834 1.06698,-0.0891 1.67225,-0.35165 3.13983,-0.839 1.46758,-0.48735 5.15379,-1.9227 7.58593,-2.29688 2.43214,-0.37418 4.49832,-0.94734 6.0586,-1.25 0.78014,-0.15133 1.44216,-0.23533 1.9668,-0.20507 0.52464,0.0302 0.90067,0.1663 1.17773,0.44336 0.68456,0.68387 1.47408,1.18697 2.30273,1.3164 0.82866,0.12943 1.68809,-0.14819 2.39258,-0.95312 1.43446,-1.63899 1.103,-4.63394 -0.65625,-6.78321 -0.93062,-1.13783 -2.59968,-1.37957 -4.71678,-1.22849 -2.1171,0.15108 -4.72759,0.70274 -7.64452,1.26761 z m -51.10742,-0.82618 c 1.65155,0.0674 3.09689,0.24944 4.10156,0.56055 2.09044,0.64666 5.87163,1.72524 9.32227,2.64258 2.53607,0.65481 6.37269,1.84605 7.36914,1.93324 0.99645,0.0872 2.29451,-0.49722 3.58399,-0.98438 0.95343,-0.3602 0.7298,-0.55755 1.10834,-0.7207 -0.20707,0.44066 -0.70173,1.26182 -1.58984,2.91051 -0.52654,0.97746 -1.05045,1.68848 -1.71673,2.68771 -0.66628,0.99923 -2.33025,1.57605 -3.73935,1.42069 -1.4091,-0.15536 -3.54303,-0.53114 -5.63867,-0.96289 -4.19128,-0.86352 -8.83083,-2.01254 -11.52734,-2.51172 -2.49434,-0.46191 -5.04641,-0.0308 -7.89215,0.37837 -2.84574,0.40921 -5.98475,1.14815 -9.03747,1.88824 -1.86028,0.44371 -3.46841,0.94743 -5.10742,1.5625 l -0.008,0.004 -0.006,0.002 c -0.17174,0.075 -0.42292,0.18091 -0.60352,0.20117 -0.0903,0.0101 -0.15305,-9.9e-4 -0.18359,-0.0176 -0.0144,-0.008 -0.0247,-0.0459 -0.0371,-0.0625 0.62043,-1.42963 1.76424,-2.89405 2.62109,-4.05078 1.31563,-1.77197 2.81057,-3.8025 4.72071,-4.83984 1.65491,-0.89829 5.25257,-1.61325 8.91797,-1.91211 1.83269,-0.14943 3.69025,-0.19631 5.34179,-0.12891 z m 62.80313,1.07813 c 1.63275,1.99473 1.64264,4.61218 0.56655,5.80905 -0.62349,0.69347 -1.18538,0.81695 -1.86339,0.71105 -0.67801,-0.1059 -1.25231,-0.69272 -1.8245,-1.07436 -0.57219,-0.38164 -0.90222,-0.55331 -1.50196,-0.58789 -0.59973,-0.0346 -1.31783,0.0836 -2.11519,0.23824 -1.59472,0.30934 -3.57545,0.8287 -5.99031,1.42358 -2.41487,0.59487 -5.53506,1.74068 -7.59581,2.44318 -0.51519,0.17562 -0.96348,0.319 -1.3125,0.40625 -0.30385,0.0759 -0.48835,0.0822 -0.57813,0.0781 0.0838,-0.15853 0.32339,-0.45815 0.73633,-0.87109 2.34875,-2.34875 4.16565,-7.23281 9.87891,-8.33789 2.92174,-0.5658 5.44837,-0.96069 7.50792,-1.10763 2.05955,-0.14693 3.32804,-0.0647 4.09208,0.86941 z"
       id="path19217"
       sodipodi:nodetypes="cscccccscccccccssscsccczccccczczzsscsscccccczscszzsczccccsccccscccsszsszsscsccc" /><path
       id="path19225"
       style="fill:#000000;fill-opacity:0.2;stroke:none;stroke-width:1px;stroke-linecap:butt;stroke-linejoin:miter;stroke-opacity:1"
       d="m 345.97852,120.12695 c -0.60853,0.69003 -1.3255,1.35611 -2.03516,1.64453 -1.75444,0.71305 -3.47781,0.0663 -6.02344,0.42969 -2.54563,0.3634 -6.9003,1.84482 -9.82617,3.29883 -1.69798,0.84381 -3.87212,2.41536 -5.47266,3.63281 -0.24881,1.09137 5.72682,-1.93717 9.85547,-2.57226 4.89599,-0.75333 8.0993,-2.26008 9.41797,-0.94141 1.31866,1.31733 3.01336,1.88362 4.33203,0.37695 1.1984,-1.36926 1.05798,-3.86845 -0.24804,-5.86914 z m -37.02344,1.15821 c 0,0 -0.96387,0.41897 -2.10938,0.86132 -1.26118,1.25907 -2.51956,2.3839 -3.41992,2.85157 -2.61801,1.35986 -3.96319,0.74852 -7.0293,0.14453 -3.0661,-0.604 -7.06435,-2.03797 -11.11523,-2.50977 -4.05088,-0.4718 -8.53107,-0.80242 -11.97656,-0.14453 -3.4455,0.65789 -5.90115,1.89079 -8.39063,3.44336 -1.36837,0.85339 -3.1084,2.43625 -4.44531,3.72852 0.22851,0.37938 0.84105,0.10036 1.14258,-0.0312 1.63078,-0.61198 3.22977,-1.11336 5.08008,-1.55469 3.04132,-0.73733 6.14314,-1.26151 9.25781,-1.57617 2.456,-0.24803 5.06763,-0.48068 7.51562,-0.0274 5.35867,0.992 18.58052,4.60121 20.36719,3.31055 1.78667,-1.28934 5.12305,-8.49609 5.12305,-8.49609 z" /></g><g
     inkscape:groupmode="layer"
     id="g21815"
     inkscape:label="Wild Brows"
     style="display:inline"><path
       id="path21805"
       style="opacity:0.199997;fill:#000000;fill-opacity:1;fill-rule:nonzero;stroke:none;stroke-width:1.33333"
       d="m 323.65266,135.83067 c 2.63467,-2.41333 7.436,-4.57466 10.4,-5.44666 2.964,-0.872 10.288,-0.17467 10.288,-0.17467 0,0 3.34636,-2.75466 3.31333,-5.05733 -0.033,-2.30267 -6.80133,-2.964 -6.80133,-2.964 l -16.74,5.92933 c 0,0 -4.01067,4.01067 -4.53333,5.23067 -0.52267,1.22133 1.172,5.14 4.07333,2.48266 M 309.64453,119.3418 c 0,0 -4.90065,5.52744 -7.19531,7.30078 -2.29334,1.772 -17.3262,-6.15781 -25.24219,-3.75781 l -14.82226,6.27734 c 2.78932,-0.52267 9.76468,1.91895 12.02734,1.12695 2.26134,-0.792 13.95488,0.61713 16.04687,1.31446 2.09333,0.69733 6.2779,3.4882 6.97657,4.18554 0.34056,0.34057 0.5927,1.76397 0.68554,3.21094 h 2.02344 c 0.22891,-0.67265 0.52337,-1.35153 0.94141,-2.0293 1.316,-2.13466 2.59887,-4.08827 3.76953,-6.34961 4.05866,-7.83732 4.78906,-11.27929 4.78906,-11.27929 z"
       sodipodi:nodetypes="csczcccccccccccccccc" /><path
       id="path21807"
       style="fill:#000000;fill-opacity:1;fill-rule:nonzero;stroke:none;stroke-width:1.33333"
       d="m 339.07919,129.89774 c -12.59066,0.104 -15.42666,5.93333 -15.42666,5.93333 0,0 4.64933,-3.23866 7.86133,-4.27466 3.21333,-1.03734 7.56533,-1.65867 7.56533,-1.65867 m -40.0668,7.3164 c 0,0 -4.92,-5.284 -8.56533,-6.196 -3.644,-0.91067 -13.848,-1.64 -16.03467,-0.728 0,0 12.39067,-0.18267 15.124,1.82133 3.308,2.42667 10.316,6.504 9.476,5.10267" /><path
       id="path21809"
       style="fill:#383838;fill-opacity:1;fill-rule:nonzero;stroke:none;stroke-width:1.33333"
       d="m 303.83226,129.78121 c -1.78667,1.29066 -15.008,-2.31867 -20.36667,-3.31067 -2.448,-0.45333 -5.06133,-0.22133 -7.51733,0.0267 -3.11467,0.31466 -6.216,0.84 -9.25733,1.57733 -1.85031,0.44133 -3.44789,0.94269 -5.07867,1.55467 -0.336,0.14666 -1.14006,0.45865 -2.14746,0.8942 0.63094,-1.50771 3.41774,-4.95893 4.28756,-6.13316 0.18194,-0.24504 -3.21905,0.28443 -4.93063,0.64002 3.92798,-3.32411 10.61356,-5.58789 15.14395,-6.31005 0.28888,-0.045 -2.20943,-1.18945 -3.89026,-1.92711 4.17831,-0.15263 12.34443,1.24509 14.90099,1.80295 -0.19602,-0.72919 -2.3109,-2.36502 -2.0872,-2.29575 3.04593,0.28137 9.41351,4.00923 12.75515,5.10292 0.24552,0.0804 -0.47215,-1.55065 -1.68182,-2.55242 3.13519,0.89042 8.4354,4.14354 9.12039,4.14354 0.84803,0 2.9203,-1.78877 3.32848,-2.17802 0.16216,-0.15464 -0.86247,1.80989 -0.64503,1.73352 1.59278,-0.55947 3.18855,-1.26466 3.18855,-1.26466 0,0 -3.336,7.20665 -5.12267,8.49599 z m 32.10558,-12.09802 c 0,0 -1.45432,1.93003 -1.02872,1.69197 2.43286,-1.36079 7.54263,-2.39566 9.36875,-2.46834 0.33159,-0.0132 -2.06036,1.44739 -1.7591,1.45969 1.36491,0.0558 4.3008,0.43425 5.71106,0.86825 -0.90925,0.33141 -2.34792,0.71355 -2.20934,0.92939 1.27994,1.99345 1.396,4.47211 0.20617,5.83159 -1.31866,1.50667 -3.01334,0.94133 -4.332,-0.376 -1.31867,-1.31867 -4.52134,0.188 -9.41733,0.94133 -3.88363,0.5974 -9.42576,3.32706 -9.86283,2.74061 -0.11409,-0.15308 0.30258,-3.48621 1.00443,-4.18805 0.0187,0.57293 0.18713,1.55678 0.47878,1.76244 0.46638,-1.8276 3.28415,-6.08004 5.08687,-7.67998 0.27706,-0.2459 -0.19654,2.61819 0.0172,2.3019 1.14611,-1.69585 6.73605,-3.8148 6.73605,-3.8148 z"
       sodipodi:nodetypes="ccccccccccccscssscccssscssccsccssc" /><path
       id="path21813"
       style="fill:#000000;fill-opacity:0.2;stroke:none;stroke-width:1px;stroke-linecap:butt;stroke-linejoin:miter;stroke-opacity:1"
       d="m 345.97852,120.12695 c -0.60853,0.69003 -1.40041,1.08062 -2.03516,1.64453 -0.16779,0.14907 0.37733,-1.36767 0.37733,-1.36767 -1.08245,-0.12806 -4.16888,1.07977 -5.71732,1.72078 -0.20514,0.0849 1.37985,-1.92906 1.14527,-1.89558 -1.01619,0.14507 -4.11351,1.83087 -5.53614,2.86897 -0.16006,0.11679 1.01829,-2.1042 0.82644,-2.04196 -1.92339,0.62394 -5.41845,2.96834 -6.94519,4.44398 -0.16532,0.15979 0.61817,-2.0653 0.61817,-2.0653 -1.17236,0.55377 -4.68437,3.98286 -6.09083,5.69811 -0.14124,0.66108 5.72682,-1.93717 9.85547,-2.57226 4.89599,-0.75333 8.0993,-2.26008 9.41797,-0.94141 1.31866,1.31733 3.01336,1.88362 4.33203,0.37695 1.1984,-1.36926 1.05798,-3.86845 -0.24804,-5.86914 z m -37.02344,1.15821 c 0,0 -0.96387,0.41897 -2.10938,0.86132 -1.26118,1.25907 -4.45586,2.56319 -5.89408,1.99099 -0.49903,-0.19853 1.58015,1.37097 1.15281,1.41922 -1.95106,0.2203 -3.20003,0.0799 -5.70795,-0.41411 -2.15329,-0.42418 -7.04127,-3.55292 -9.75762,-4.354 -0.30539,-0.0901 1.1751,2.09226 0.3994,2.02352 -2.51577,-0.22296 -7.34565,-2.56278 -10.25474,-2.61872 -0.43888,-0.008 1.8187,1.74647 1.39767,1.7518 -3.68519,-0.8083 -12.91227,1.01476 -12.91227,1.01476 0,0 3.11364,1.07498 2.83121,1.20759 -3.22406,1.48924 -5.86396,3.70072 -8.49345,6.22792 0.48206,-0.077 1.70312,-0.63493 2.00465,-0.76654 1.63078,-0.61198 3.22977,-1.11336 5.08008,-1.55469 3.04132,-0.73733 6.14314,-1.26151 9.25781,-1.57617 2.456,-0.24803 5.06763,-0.48068 7.51562,-0.0274 5.35867,0.992 18.58052,4.60121 20.36719,3.31055 1.78667,-1.28934 5.12305,-8.49609 5.12305,-8.49609 z"
       sodipodi:nodetypes="csssssssscccscccssssssccccccccccc" /><path
       style="color:#000000;fill:#000000;-inkscape-stroke:none"
       d="m 282.33794,116.047 c 0.84562,0.67742 1.47965,1.48227 2.10159,2.20316 -2.90977,-0.60347 -13.06169,-1.85546 -14.89187,-1.70196 1.31818,0.706 2.59118,1.42943 3.84695,2.07305 -4.55191,0.80386 -10.87745,2.95477 -14.73437,6.21875 l 0.21289,0.43555 c 0.84769,-0.17611 2.12325,-0.3977 3.1582,-0.54297 0.50565,-0.071 0.9488,-0.12161 1.25586,-0.14258 -0.47346,0.62493 -1.18609,1.5334 -1.96875,2.59375 -0.88754,1.20244 -1.74414,2.43204 -2.08399,3.24414 l -0.24023,0.57032 0.57031,-0.2461 c 0.99643,-0.4308 1.7805,-0.73453 2.13477,-0.88867 1.62254,-0.60889 3.20849,-1.10597 5.04883,-1.54492 h 0.002 c 3.02993,-0.73457 6.11916,-1.25874 9.22266,-1.57227 2.45386,-0.24781 5.0456,-0.47404 7.44726,-0.0293 2.66216,0.49282 7.31187,1.64328 11.51758,2.50976 2.10285,0.43324 4.09614,0.7967 5.68555,0.97071 0.7947,0.087 1.48704,0.12728 2.05078,0.10351 0.56374,-0.0238 0.99961,-0.096 1.30469,-0.31641 0.50634,-0.3654 1.04662,-1.07059 1.61718,-1.9375 0.57056,-0.8669 1.15671,-1.89353 1.6875,-2.8789 0.77718,-1.43375 1.49097,-2.90018 2.17774,-4.37891 -1.157,0.50646 -2.32916,0.97127 -3.32617,1.34571 0.15946,-0.62586 0.28851,-1.00026 0.42385,-1.53904 -0.90412,0.65687 -1.87374,1.32399 -2.77546,1.89271 -0.30402,0.16515 -0.57705,0.25586 -0.70117,0.25586 0.0133,0 -0.15586,-0.0343 -0.36328,-0.12109 -0.20742,-0.0869 -0.4781,-0.21671 -0.79688,-0.375 -0.63755,-0.31659 -1.4644,-0.75179 -2.36718,-1.21485 -1.80556,-0.92611 -5.49464,-2.39684 -6.14877,-2.55857 0.69781,0.76112 1.40364,1.62419 1.87533,2.49607 -1.63,-0.58453 -3.86493,-1.66418 -6.16992,-2.73632 -2.11259,-0.94295 -4.75797,-2.2185 -6.77348,-2.18769 z m 6.56245,2.6405 c 2.28625,1.00958 5.33055,2.4829 7.4261,3.3206 -0.43944,-1.05485 -0.96227,-1.76072 -1.51395,-2.51396 1.41055,0.51131 3.01996,1.21721 4.51562,1.98438 0.8998,0.46152 1.72424,0.89559 2.3711,1.21679 0.32343,0.1606 0.60233,0.29414 0.82812,0.38867 0.2258,0.0945 0.37013,0.16016 0.55469,0.16016 0.2999,0 0.60562,-0.134 0.94141,-0.31641 0.68463,-0.42506 1.26511,-0.8577 1.77734,-1.28515 -0.14567,0.43852 -0.33529,1.16975 -0.39653,1.42998 0.94251,-0.42849 2.18543,-0.95353 3.03328,-1.31289 -0.20499,0.43632 -0.70345,1.51912 -1.59375,3.17187 -0.52654,0.97746 -1.10858,1.99288 -1.66602,2.83984 -0.55743,0.84697 -1.1052,1.52738 -1.49218,1.80664 -0.1416,0.10229 -0.50904,0.20065 -1.03125,0.22266 -0.52222,0.022 -1.19679,-0.0162 -1.97657,-0.10156 -1.55955,-0.17074 -3.54303,-0.53114 -5.63867,-0.96289 -4.19128,-0.86352 -8.83083,-2.01254 -11.52734,-2.51172 -2.49434,-0.46191 -5.12976,-0.22481 -7.58789,0.0234 -3.12584,0.31579 -6.2383,0.84389 -9.29102,1.58398 -1.86028,0.44371 -3.46841,0.94743 -5.10742,1.5625 l -0.008,0.004 -0.006,0.002 c -0.21073,0.092 -0.85645,0.35977 -1.4082,0.58789 0.39576,-0.71422 0.91336,-1.55427 1.61718,-2.50781 0.88105,-1.19365 1.79123,-2.34581 2.23242,-2.94141 0.0303,-0.0407 0.0685,-0.11958 0.0508,-0.21484 -0.0178,-0.0953 -0.0837,-0.15679 -0.12696,-0.18359 -0.0866,-0.0536 -0.13241,-0.0509 -0.1875,-0.0567 -0.11017,-0.0115 -0.23993,-0.007 -0.40625,0.004 -0.33263,0.0216 -0.79633,0.0768 -1.32031,0.15039 -0.6702,0.0941 -1.35065,0.22514 -2.04102,0.34961 4.28577,-2.64014 10.14253,-4.80697 14.53432,-5.78996 -1.03618,-0.70963 -2.06273,-1.22854 -2.98941,-1.64562 4.61823,0.55323 9.4237,0.81697 13.97566,1.7754 -0.43415,-0.9662 -1.65798,-2.07739 -1.90293,-2.30783 0.45376,0.15654 3.32308,1.1196 5.36113,2.06758 z m 46.44336,0.27342 c 0.31987,-0.51288 0.71751,-1.02394 1.0957,-1.52735 -2.58569,0.38866 -5.49639,2.15156 -7.02149,3.55857 0.0663,-0.8185 0.001,-1.63576 0.0574,-2.10827 -1.25946,0.74423 -2.81318,2.83341 -3.54379,3.92857 -0.88373,1.33403 -1.50779,2.57692 -1.8418,3.55078 -0.21383,-0.58592 -0.20978,-1.29183 -0.24016,-1.83398 -0.81052,0.82756 -1.05681,1.82578 -1.28516,2.83789 -0.19051,0.87878 -0.25007,1.80391 -0.27702,2.70518 1.35839,-0.43682 2.8439,-1.03245 4.0506,-1.4609 1.92526,-0.68366 4.27481,-1.51002 6.17773,-1.80274 2.46466,-0.37922 4.49832,-0.94734 6.0586,-1.25 0.78014,-0.15133 1.44216,-0.23533 1.9668,-0.20507 0.52464,0.0302 0.90067,0.1663 1.17773,0.44336 0.68456,0.68387 1.47408,1.18697 2.30273,1.3164 0.82866,0.12943 1.68809,-0.14819 2.39258,-0.95312 1.26044,-1.44016 0.48411,-5.0998 -0.16171,-5.99952 0.87119,-0.35161 1.90813,-0.64241 2.7633,-0.94599 -1.93619,-0.59926 -4.0016,-0.87799 -5.96679,-1.01757 0.69361,-0.60316 1.16134,-0.86752 1.66665,-1.41261 -1.80114,-0.18217 -7.02135,1.09517 -9.3719,2.17637 z m 6.57082,-0.40462 c 1.66347,0.1337 3.88093,0.47 5.26711,0.76981 -0.60108,0.0746 -1.42556,0.4277 -1.87042,0.6554 0.93349,1.65852 1.70962,4.18841 0.63916,5.64762 -0.61417,0.70174 -1.26144,0.89301 -1.93945,0.78711 -0.67801,-0.1059 -1.22845,-0.54232 -1.86254,-1.17578 -0.38228,-0.38228 -0.90222,-0.55331 -1.50196,-0.58789 -0.59973,-0.0346 -1.29248,0.0582 -2.08984,0.21289 -1.59472,0.30934 -3.79013,0.92562 -6.11708,1.44893 -2.32695,0.52331 -4.34355,1.14226 -6.26953,1.82617 -1.12562,0.41602 -2.18735,0.7473 -3.37961,1.19113 0.10725,-1.1909 0.36919,-2.42671 0.68816,-3.39622 0.1068,0.5546 0.37674,1.06479 0.61935,1.46761 0.68156,-1.54118 1.45985,-3.11364 2.24975,-4.31527 0.86706,-1.30888 1.83567,-2.46397 2.65625,-3.27734 -0.0679,0.59124 -0.002,1.58681 0.002,2.1518 1.79097,-1.77377 3.96859,-2.79634 6.20126,-3.69083 -0.38994,0.37459 -0.61145,0.98309 -0.73317,1.52309 2.59239,-1.00877 7.83728,-2.38022 9.06527,-2.52786 -0.61024,0.37213 -1.28947,1.0222 -1.62471,1.28963 z"
       id="path21817"
       sodipodi:nodetypes="ccccccscsccccccccssscscccccccsscccccccssssccccsscssscccccccsccsccscccccccccccccccccsscsscccccccccscsszccccccccccc" /></g><g
     inkscape:groupmode="layer"
     id="g15984"
     inkscape:label="Bolian Brows"
     style="display:none"
     sodipodi:insensitive="true"><path
       id="path15978"
       style="opacity:0.199997;fill:#000000;fill-opacity:1;fill-rule:nonzero;stroke:none;stroke-width:1.33333"
       d="m 323.65266,135.83067 c 2.63467,-2.41333 7.436,-4.57466 10.4,-5.44666 2.964,-0.872 10.288,-0.17467 10.288,-0.17467 l 3.31333,-5.05733 -6.80133,-2.964 -16.74,5.92933 c 0,0 -4.01067,4.01067 -4.53333,5.23067 -0.52267,1.22133 1.172,5.14 4.07333,2.48266 M 309.64453,119.3418 c 0,0 -4.90065,5.52744 -7.19531,7.30078 -2.29334,1.772 -17.3262,-6.15781 -25.24219,-3.75781 l -14.82226,6.27734 c 2.78932,-0.52267 9.76468,1.91895 12.02734,1.12695 2.26134,-0.792 13.95488,0.61713 16.04687,1.31446 2.09333,0.69733 6.2779,3.4882 6.97657,4.18554 0.34056,0.34057 0.5927,1.76397 0.68554,3.21094 h 2.02344 c 0.22891,-0.67265 0.52337,-1.35153 0.94141,-2.0293 1.316,-2.13466 2.59887,-4.08827 3.76953,-6.34961 4.05866,-7.83732 4.78906,-11.27929 4.78906,-11.27929 z" /><path
       style="fill:#cd976d;fill-opacity:1;stroke:none;stroke-width:1px;stroke-linecap:butt;stroke-linejoin:miter;stroke-opacity:1"
       d="m 257.70791,133.1643 3.95538,-1.41988 9.22921,-3.14401 6.18661,-1.92698 6.69371,-0.30426 9.02637,1.31846 6.99797,2.94117 c 0,0 3.27003,1.42096 5.52738,1.97769 2.25735,0.55674 5.63529,0.88209 7.96146,0.81136 2.32617,-0.0707 2.92048,-0.16514 6.13591,-1.16633 3.21543,-1.00119 12.62677,-5.88235 12.62677,-5.88235 l 8.21501,-2.12982 5.27384,-0.5071 4.05679,0.20284 2.94118,-2.43408 1.72414,-6.18661 -1.82556,-5.27383 -4.0568,-2.63692 -4.86815,0.70994 -9.02637,3.14402 -5.78093,2.02839 -9.02637,1.21704 -10.75051,0.20284 -13.69168,-1.11562 -13.18459,-1.92697 c 0,0 -10.04057,-0.70994 -10.44625,-0.70994 -0.40568,0 -4.96957,1.62272 -4.96957,1.62272 l -3.44828,4.05679 -2.83975,6.69371 z"
       id="path17807"
       sodipodi:nodetypes="ccccccczzzcccccccccccccccscccc" /><path
       id="path15980"
       style="fill:#000000;fill-opacity:1;fill-rule:nonzero;stroke:none;stroke-width:1.33333"
       d="m 339.07919,129.89774 c -12.59066,0.104 -15.42666,5.93333 -15.42666,5.93333 0,0 4.64933,-3.23866 7.86133,-4.27466 3.21333,-1.03734 7.56533,-1.65867 7.56533,-1.65867 m -40.0668,7.3164 c 0,0 -4.92,-5.284 -8.56533,-6.196 -3.644,-0.91067 -13.848,-1.64 -16.03467,-0.728 0,0 12.39067,-0.18267 15.124,1.82133 3.308,2.42667 10.316,6.504 9.476,5.10267" /><path
       style="color:#000000;fill:#000000;fill-opacity:0.3;-inkscape-stroke:none"
       d="m 318.0957,114.24414 c -4.63062,0.2847 -10.59353,0.0293 -16.42383,-0.42969 -5.79451,-0.45612 -13.61215,-1.91613 -18.48828,-2.4375 -4.81046,-0.51434 -7.67986,-1.17677 -10.57812,-0.85937 -2.79703,0.30631 -4.32175,0.59286 -6.25781,1.95117 -1.97645,1.38665 -3.21658,3.43975 -4.60157,6.05664 -0.73233,1.38371 -1.49488,3.61379 -2.15046,6.09158 -0.56828,2.14785 -0.70598,3.89572 -0.70598,3.89572 0,0 0.63248,-2.06755 1.45822,-4.10789 0.95375,-2.35665 1.63785,-4.19169 2.28299,-5.41066 1.36995,-2.58846 2.63643,-4.16883 4.39243,-5.40082 1.7964,-1.26032 3.06819,-1.42289 5.84173,-1.72663 2.67231,-0.29266 5.50619,0.34199 10.36328,0.86133 4.79142,0.51231 12.47339,1.92509 18.3635,2.38874 5.85433,0.46084 11.27144,0.20044 15.99073,-0.0897 4.69685,-0.28878 8.15693,-0.93522 12.01806,-2.00459 -3.84673,0.44638 -6.85183,0.9356 -11.50489,1.22168 z"
       id="path16059"
       sodipodi:nodetypes="ssssssscssssssscs" /><path
       style="color:#000000;fill:#000000;-inkscape-stroke:none"
       d="m 337.67187,124.20703 c -2.59272,0.56898 -4.35443,1.33288 -7.48444,2.71268 -1.53391,0.67619 -3.32713,1.66 -5.2581,2.64648 -1.93097,0.98649 -3.7213,1.72631 -5.00795,2.16044 -2.70263,0.91191 -2.97289,1.16546 -5.45465,1.34535 -2.45522,0.17797 -5.96916,0.009 -9.43353,-0.8005 -3.36872,-0.78672 -6.71699,-3.03496 -11.14474,-4.45934 -4.12308,-1.32637 -9.58639,-2.05024 -13.64041,-1.84144 -4.05387,0.2088 -7.09652,1.34428 -10.31055,2.30274 -3.29873,0.98371 -10.20149,4.18128 -10.20149,4.18128 0,0 7.31887,-2.27705 10.4886,-3.2223 3.25443,-0.9705 6.18061,-2.06117 10.07422,-2.26172 3.89345,-0.20053 9.09433,0.48288 13.18554,1.55469 4.00538,1.04932 7.81395,3.4995 11.52316,4.36573 3.61357,0.84391 7.01858,0.90271 9.53146,0.72056 2.48634,-0.18022 2.59319,-0.32973 5.29702,-1.24204 1.41657,-0.47797 3.61288,-1.43111 5.5484,-2.41992 1.93552,-0.98881 3.65331,-1.65691 5.12731,-2.25441 3.02652,-1.22683 4.86427,-1.96073 7.375,-2.51172 2.44323,-0.53617 7.65137,-1.29882 7.65137,-1.29882 0,0 -5.20599,-0.26153 -7.86622,0.32226 z"
       id="path16065"
       sodipodi:nodetypes="ssssssssscssssssssscs" /><path
       style="fill:#ffffff;fill-opacity:0.2;stroke:none;stroke-width:1px;stroke-linecap:butt;stroke-linejoin:miter;stroke-opacity:1"
       d="m 300.20284,117.24138 c 1.28508,-0.99558 10.80579,0.6508 15.41582,0.40568 4.61003,-0.24512 7.75112,-0.6413 12.17039,-1.62272 4.41927,-0.98142 9.18571,-2.81297 12.47763,-4.03218 3.29192,-1.21921 5.53013,-2.42057 7.25723,-2.14722 1.7271,0.27335 2.78455,0.79082 3.38887,2.12261 0.60432,1.33179 0.42995,4.18381 0,4.46247 -0.42995,0.27866 -0.69572,-1.20263 -3.24544,-1.62272 -2.54972,-0.42009 -6.74362,0.66537 -11.7647,1.62272 -5.02108,0.95735 -12.83127,4.05015 -18.25558,4.46247 -5.42431,0.41232 -10.92593,-0.20924 -13.7931,-1.21703 -2.86717,-1.00779 -4.9362,-1.4385 -3.65112,-2.43408 z"
       id="path20031"
       sodipodi:nodetypes="zzzzzzszzzzz" /><path
       style="color:#000000;fill:#000000;-inkscape-stroke:none"
       d="m 315.91161,114.55539 -0.55469,0.57617 c 0,0 0.86093,0.82958 1.80274,1.98047 0.9418,1.15089 1.95007,2.63428 2.24609,3.8125 0.64484,2.56658 0.74318,4.47223 -0.0977,7.24024 -0.39097,1.28709 -1.50802,2.57621 -2.54101,3.51757 -1.03299,0.94137 -1.95703,1.53711 -1.95703,1.53711 l 0.78661,0.16478 c 0,0 0.62452,-0.12136 1.70948,-1.11009 1.08496,-0.98873 2.29972,-2.33676 2.76758,-3.87695 0.87685,-2.88657 0.77128,-5.02571 0.10742,-7.66797 -0.35832,-1.4262 -1.42863,-2.93512 -2.40234,-4.125 -0.97372,-1.18989 -1.86719,-2.04883 -1.86719,-2.04883 z"
       id="path17799"
       sodipodi:nodetypes="ccssssccsssscc" /><path
       style="color:#000000;fill:#000000;fill-opacity:0.2;-inkscape-stroke:none"
       d="m 313.2271,115.03014 c 0,0 0.76552,0.91476 1.80274,1.98047 1.08523,1.11503 2.27279,2.63428 2.56881,3.8125 0.64484,2.56658 0.74318,4.47223 -0.0977,7.24024 -0.39097,1.28709 -1.79488,2.57621 -2.86373,3.51757 -1.04881,0.92371 -2.37501,1.91308 -2.37501,1.91308 l 1.21329,0.17349 c 0,0 1.12292,-0.55675 2.20788,-1.54548 1.08496,-0.98873 2.62244,-2.33676 3.0903,-3.87695 0.87685,-2.88657 0.77128,-5.02571 0.10742,-7.66797 -0.35832,-1.4262 -1.60792,-3.00683 -2.72506,-4.125 -1.08669,-1.08769 -1.48685,-1.56709 -1.48685,-1.56709 z"
       id="path17805"
       sodipodi:nodetypes="cssssccsssscc" /><path
       style="fill:#000000;fill-opacity:0.2;stroke:none;stroke-width:1px;stroke-linecap:butt;stroke-linejoin:miter;stroke-opacity:1"
       d="m 257.74257,132.95902 c 0.28686,-0.57371 1.89203,-3.43351 7.60176,-6.59774 5.70972,-3.16424 10.76205,-5.19319 19.07611,-5.02004 8.31406,0.17315 11.80495,2.84538 17.92867,4.30289 6.12371,1.45751 11.54033,2.28104 15.20351,2.00801 3.66317,-0.27303 7.55697,-2.07145 10.90063,-3.29888 3.34366,-1.22743 7.21235,-4.16543 11.04407,-4.8766 3.83171,-0.71116 7.38813,-0.44946 9.75319,-0.28686 2.36506,0.1626 3.4423,0.86058 3.4423,0.86058 l -1.57772,3.15545 -3.4423,0.86057 -3.44231,-0.14343 -6.16746,0.57372 -7.60176,2.4383 -8.89262,4.44631 -5.30688,1.86458 h -7.17147 l -6.3109,-1.29086 -7.88861,-3.72917 -8.74919,-1.72115 h -8.17548 l -9.03605,2.4383 z"
       id="path20034"
       sodipodi:nodetypes="czzzzzzzccccccccccccccc" /><path
       style="color:#000000;fill:#000000;-inkscape-stroke:none"
       d="m 340.64453,109.98748 c 3.19543,-0.79195 4.91715,-1.33777 6.55981,-1.21618 1.83206,0.13562 2.54513,0.38249 3.62393,1.32206 0.9673,0.84246 1.33103,2.2671 1.73129,3.91655 0.39659,1.63439 0.28739,2.97151 -0.20083,4.66189 -0.50001,1.73119 -1.17505,2.44384 -2.39903,3.36867 -1.22398,0.92483 -2.08438,1.69662 -3.72116,1.88273 0,0 1.41612,0.54685 2.3977,0.48135 0.98158,-0.0653 2.21998,-0.0644 3.05188,-0.64474 1.52555,-1.06433 2.47214,-2.63623 2.99053,-4.43104 0.53018,-1.83562 0.53691,-4.53255 0.0778,-6.42443 -0.45543,-1.87683 -1.55818,-3.67559 -2.74023,-4.70508 -1.07056,-0.93239 -1.97243,-1.27123 -3.97031,-1.41914 -1.99789,-0.14791 -4.61889,0.97062 -7.73956,1.90509 -3.12066,0.93447 -7.16215,2.93492 -10.70576,4.33725 3.9491,-0.47199 7.98239,-2.27621 11.04394,-3.03498 z"
       id="path20978"
       sodipodi:nodetypes="ssssszccsssscccs" /></g><g
     inkscape:groupmode="layer"
     id="g4"
     inkscape:label="Vulcan Brow"
     style="display:none"
     sodipodi:insensitive="true"><path
       id="path2"
       style="opacity:0.199997;fill:#000000;fill-opacity:1;fill-rule:nonzero;stroke:none;stroke-width:1.33333"
       d="m 323.65266,135.83067 c 2.63467,-2.41333 7.436,-4.57466 10.4,-5.44666 2.964,-0.872 10.288,-0.17467 10.288,-0.17467 0,0 2.02172,-2.02955 2.73159,-3.46116 0.70987,-1.43161 1.29383,-5.01421 1.29383,-5.01421 l -7.51342,0.45404 -16.74,5.92933 c 0,0 -4.01067,4.01067 -4.53333,5.23067 -0.52267,1.22133 1.172,5.14 4.07333,2.48266 M 309.64453,119.3418 c 0,0 -4.90065,5.52744 -7.19531,7.30078 -2.29334,1.772 -17.3262,-6.15781 -25.24219,-3.75781 l -15.53435,2.43205 c 2.36207,3.03779 9.40863,5.19457 12.73943,4.97224 2.61739,-0.29354 13.95488,0.61713 16.04687,1.31446 2.09333,0.69733 6.2779,3.4882 6.97657,4.18554 0.34056,0.34057 0.5927,1.76397 0.68554,3.21094 h 2.02344 c 0.22891,-0.67265 0.52337,-1.35153 0.94141,-2.0293 1.316,-2.13466 2.59887,-4.08827 3.76953,-6.34961 4.05866,-7.83732 4.78906,-11.27929 4.78906,-11.27929 z"
       sodipodi:nodetypes="csczccccccccccccccccc" /><path
       id="path3"
       style="fill:#000000;fill-opacity:1;fill-rule:nonzero;stroke:none;stroke-width:1.33333"
       d="m 339.07919,129.89774 c -12.59066,0.104 -15.42666,5.93333 -15.42666,5.93333 0,0 4.64933,-3.23866 7.86133,-4.27466 3.21333,-1.03734 7.56533,-1.65867 7.56533,-1.65867 m -40.0668,7.3164 c 0,0 -4.92,-5.284 -8.56533,-6.196 -3.644,-0.91067 -13.848,-1.64 -16.03467,-0.728 0,0 12.39067,-0.18267 15.124,1.82133 3.308,2.42667 10.316,6.504 9.476,5.10267" /><path
       id="path4"
       style="fill:#000000;fill-opacity:1;fill-rule:nonzero;stroke:none;stroke-width:1.33333"
       d="m 308.95493,121.28521 c 0,0 -3.336,7.20666 -5.12267,8.496 -1.78667,1.29066 -13.39672,-1.71444 -18.75539,-2.70644 -2.448,-0.45333 -7.27684,-0.42274 -9.73284,-0.17471 -3.11467,0.31466 -4.75726,0.29476 -8.51068,0.60484 -1.20267,-0.0654 -2.68432,-0.47206 -3.78563,-0.77356 -1.1013,-0.3015 -2.03234,-2.04515 -2.71601,-3.91576 -0.68367,-1.87062 -1.1751,-6.95373 -1.55632,-9.25054 2.67985,3.22408 4.66267,4.34367 9.1342,5.03284 4.47153,0.68917 13.06992,-0.57501 18.15185,0.31402 5.08193,0.88903 15.53215,4.31067 17.02149,4.31067 1.488,0 5.872,-1.93733 5.872,-1.93733 m 14.48106,6.7825 c 2.268,-2.268 4.16934,-7.27733 10.008,-8.40667 7.04713,-0.52643 15.55029,-1.61544 17.86141,-4.37135 -0.72511,2.78409 -2.40711,6.13736 -3.72577,7.64403 -1.31867,1.50667 -2.95961,2.20942 -5.68497,2.68599 -2.72536,0.47657 -4.52134,0.188 -9.41733,0.94133 -4.89734,0.75334 -12.432,4.89734 -9.04134,1.50667"
       sodipodi:nodetypes="ccccczzczzsccccszcc" /></g></svg>
