<?xml version="1.0" encoding="UTF-8" standalone="no"?>
<!-- Created with Inkscape (http://www.inkscape.org/) -->

<svg
   version="1.1"
   id="svg156786"
   width="400"
   height="400"
   viewBox="0 0 400 400"
   sodipodi:docname="Eyes9.svg"
   inkscape:version="1.2.2 (b0a8486, 2022-12-01)"
   xmlns:inkscape="http://www.inkscape.org/namespaces/inkscape"
   xmlns:sodipodi="http://sodipodi.sourceforge.net/DTD/sodipodi-0.dtd"
   xmlns="http://www.w3.org/2000/svg"
   xmlns:svg="http://www.w3.org/2000/svg">
  <defs
     id="defs156790" />
  <sodipodi:namedview
     id="namedview156788"
     pagecolor="#ffffff"
     bordercolor="#666666"
     borderopacity="1.0"
     inkscape:showpageshadow="2"
     inkscape:pageopacity="0.0"
     inkscape:pagecheckerboard="0"
     inkscape:deskcolor="#d1d1d1"
     showgrid="false"
     inkscape:zoom="11.992531"
     inkscape:cx="308.10844"
     inkscape:cy="127.32925"
     inkscape:window-width="1969"
     inkscape:window-height="1068"
     inkscape:window-x="2407"
     inkscape:window-y="192"
     inkscape:window-maximized="0"
     inkscape:current-layer="g6343"
     showguides="false">
    <inkscape:page
       x="0"
       y="0"
       id="page156792"
       width="400"
       height="400" />
  </sodipodi:namedview>
  <g
     id="g156794"
     inkscape:groupmode="layer"
     inkscape:label="Eyes">
    <path
       id="rect62889"
       style="fill:#000000;fill-opacity:0.2;stroke-width:0.5;stroke-miterlimit:40"
       d="M 299.17383 139 C 299.11608 139.0712 299.07091 139.14087 299 139.21484 C 298.64 139.59084 298.36497 140.06642 297.93164 140.34375 C 297.59164 140.56109 296.07311 141.55477 295.75977 141.77344 C 294.69977 142.51344 293.65458 143.27814 292.64258 144.13281 C 290.09858 146.27947 284.16116 144.96459 280.0625 144.53125 C 275.96383 144.09792 271.15661 139.7417 271.86328 140.8457 C 272.56995 141.95103 277.65666 148.35075 281.47266 149.35742 C 285.80065 150.49742 289.95676 149.52251 294.10742 147.47852 C 295.88209 146.60385 298.5515 142.91631 299.46484 141.09766 C 299.87274 140.28671 300.37794 139.62772 300.92578 139 L 299.17383 139 z " />
    <path
       d="m 323.01239,141.14147 c 0.49867,0.43734 0.776,1.03867 1.288,1.39734 0.616,0.43066 1.18934,0.91466 1.844,1.28533 1.43867,0.81467 3.04934,1.22533 4.668,1.06933 5.66,-0.548 6.492,-0.18266 8.156,-1.64266 0,0 -0.088,4.69333 -1.95733,5.54 -1.87067,0.848 -7.696,0.48266 -10.02667,-1.52534 -0.90133,-0.776 -1.63866,-1.79066 -2.32933,-2.78533 -0.72533,-1.04267 -1.46,-2.00267 -1.64267,-3.33867"
       style="opacity:0.199997;fill:#000000;fill-opacity:1;fill-rule:nonzero;stroke:none;stroke-width:1.33333"
       id="path164164" />
    <path
       d="m 336.60479,142.64107 c 0.59333,-0.192 1.01733,-0.78266 1.01733,-0.78266 l 2.41867,-2.9 -0.30133,-5.128 -6.96267,-0.97334 c 0,0 -6.35333,1.64267 -7.65733,3.04267 -1.304,1.39867 -1.94133,4.47067 -1.96933,4.56267 0,0 0.13866,0.94266 0.66533,1.064 0.52667,0.12133 3.412,2.12933 4.43867,2.068 0.736,-0.0427 5.95733,-0.224 6.80133,-0.43734 0.844,-0.21333 1.54933,-0.516 1.54933,-0.516"
       style="fill:#ffffff;fill-opacity:1;fill-rule:nonzero;stroke:none;stroke-width:1.33333"
       id="path164218" />
    <path
       d="m 273.57586,135.30174 3.88,-2.536 12.45067,-0.0987 4.56533,3.12934 2.43067,3.408 -0.98534,1.67466 c -1.204,0.0533 -2.32266,0.13467 -3.452,0.63334 -0.824,0.364 -1.53066,0.98933 -2.412,1.20933 -1.06533,0.26667 -2.41333,0.34533 -3.47333,0.25733 -2.448,-0.20266 -4.596,0.352 -6.80133,-0.87466 -0.36667,-0.20267 -1,-0.604 -1.39467,-0.74 -0.16667,-0.0573 -0.62533,-0.30534 -0.74267,-0.44267 -0.0307,-0.036 -4.29066,-5.016 -4.29066,-5.016 z"
       style="fill:#ffffff;fill-opacity:1;fill-rule:nonzero;stroke:none;stroke-width:1.33333"
       id="path164222" />
    <path
       d="m 291.54479,133.56494 c 0.24534,0.90933 0.73467,2.56933 0.64,3.56133 -0.22133,2.31467 -1.60933,4.44 -3.47466,5.48667 l -6.41734,-0.11067 c -2.372,-1.27066 -3.75333,-3.75466 -3.37466,-6.73333 0.112,-0.87867 0.408,-1.92133 0.80666,-2.67733 3.17467,-0.77734 8.44667,-0.12534 11.82,0.47333"
       style="fill:#754324;fill-opacity:1;fill-rule:nonzero;stroke:none;stroke-width:1.33333"
       id="path164226" />
    <path
       d="m 282.75279,136.10827 c -0.224,1.60134 0.87467,3.04267 2.45467,3.22 1.57867,0.17867 3.04133,-0.97466 3.26667,-2.576 0.224,-1.60133 -0.87467,-3.04266 -2.45467,-3.22 -1.58,-0.17866 -3.04267,0.97467 -3.26667,2.576"
       style="fill:#000000;fill-opacity:1;fill-rule:nonzero;stroke:none;stroke-width:1.33333"
       id="path164230" />
    <path
       d="m 291.72666,137.07681 c 0.0773,-0.80534 -0.36133,-2.27334 -0.54267,-3.068 -3.04266,-0.52934 -8.07333,-1.16 -11.17866,-0.49467 -0.32534,0.66933 -0.55467,1.524 -0.652,2.212 -0.364,2.59733 0.84133,5.06 3.07333,6.30667 l 6.17467,0.10533 c 1.70666,-1.008 2.92666,-2.98 3.12533,-5.06133 m -9.66267,5.844 c -2.63333,-1.41067 -3.996,-4.05734 -3.6,-7.172 0.11467,-0.90267 0.42534,-2.02134 0.868,-2.86267 l 0.11334,-0.21467 0.22,-0.0547 c 3.14666,-0.76934 8.148,-0.22 11.97733,0.45866 l 0.256,0.0453 0.0747,0.27466 c 0.272,1.00934 0.768,2.75067 0.66933,3.78134 -0.232,2.42266 -1.69733,4.71466 -3.71467,5.84666 l -0.11333,0.064 -6.65467,-0.11466 z"
       style="fill:#000000;fill-opacity:1;fill-rule:nonzero;stroke:none;stroke-width:1.33333"
       id="path164234" />
    <path
       d="m 284.87986,135.72547 c 0,0.85467 -0.68667,1.56934 -1.53467,1.59734 -0.848,0.0267 -1.53466,-0.64534 -1.53466,-1.5 0,-0.85467 0.68666,-1.56934 1.53466,-1.59734 0.848,-0.0267 1.53467,0.64534 1.53467,1.5"
       style="fill:#ffffff;fill-opacity:1;fill-rule:nonzero;stroke:none;stroke-width:1.33333"
       id="path164238" />
    <path
       d="m 288.84959,131.82481 c 1.63067,0.204 4.66534,1.48933 5.82134,2.944 0.53733,0.67733 1.17733,1.02 1.62933,1.79866 0.188,0.324 1.00533,0.68667 1.176,0.99067 0.17867,0.32 0.46533,0.54933 0.64933,0.86267 0.12667,0.216 0.15867,0.41733 0.11867,0.604 -0.052,0.25333 -0.23467,0.48 -0.484,0.684 0.004,-0.34 0.14133,-0.66934 -0.0653,-0.956 -0.416,-0.576 -1.62267,-0.864 -2.14267,-1.30934 -0.58,-0.49866 -1.168,-0.98533 -1.76533,-1.448 -0.976,-0.756 -2.064,-1.97733 -3.19734,-2.25466 -4.62933,-1.12934 -8.75866,-0.93734 -11.29066,-0.34 -2.41734,0.57066 -4.136,1.832 -4.128,2.90533 0.008,1.07467 2.92933,4.88667 2.92933,4.88667 -2.464,-0.50134 -5.28667,-2.732 -6.52267,-4.46267 -1.236,-1.73067 -2.672,-6.012 -2.672,-6.012 0,0 1.80134,1.388 2.87734,1.59733 0,0 -0.65867,-2.032 -0.65867,-2.42933 0,0 1.91467,1.71333 2.73867,1.80933 0,0 -0.86667,-1.85866 -0.86667,-2.46933 0,0 3.47067,1.26533 4.92,1.48933 1.44933,0.224 2.96267,0.112 10.93333,1.10934"
       style="fill:#000000;fill-opacity:1;fill-rule:nonzero;stroke:none;stroke-width:1.33333"
       id="path164242" />
    <path
       d="m 332.18533,133.68054 c -1.12534,0.50533 -3.144,0.496 -3.93467,0.93467 -1.44267,0.80133 -2.036,1.012 -3.32133,3.332 0.26666,2.56 1.644,4.392 3.464,5.17733 l 6.25866,-0.23733 c 1.59867,-1.28134 2.54133,-3.584 2.54133,-5.94134 0,-1.012 -0.244,-2.64933 -0.588,-3.48933 -1.26266,0 -2.81733,0.21333 -4.41999,0.224"
       style="fill:#754324;fill-opacity:1;fill-rule:nonzero;stroke:none;stroke-width:1.33333"
       id="path164254" />
    <path
       d="m 334.50519,137.70707 c 0,1.65867 -1.344,3.00267 -3.00266,3.00267 -1.65867,0 -3.00267,-1.344 -3.00267,-3.00267 0,-1.65866 1.344,-3.00266 3.00267,-3.00266 1.65866,0 3.00266,1.344 3.00266,3.00266"
       style="fill:#000000;fill-opacity:1;fill-rule:nonzero;stroke:none;stroke-width:1.33333"
       id="path164258" />
    <path
       d="m 330.74319,135.63961 c 0,0.90933 -0.73733,1.64666 -1.64666,1.64666 -0.90934,0 -1.64667,-0.73733 -1.64667,-1.64666 0,-0.90934 0.73733,-1.64667 1.64667,-1.64667 0.90933,0 1.64666,0.73733 1.64666,1.64667"
       style="fill:#ffffff;fill-opacity:1;fill-rule:nonzero;stroke:none;stroke-width:1.33333"
       id="path164262" />
    <path
       d="m 325.18986,138.04747 c 0.276,2.13334 1.46,3.84 3.19467,4.604 l 6.22666,-0.228 c 1.444,-1.18666 2.336,-3.26933 2.336,-5.47733 0,-0.82667 -0.19067,-2.268 -0.46933,-3.01333 -1.47334,0.005 -5.42667,0.20666 -6.17867,0.328 -0.71066,0.116 -1.58933,0.58666 -1.92933,0.768 l -0.28933,0.15466 c -1.23867,0.656 -1.768,0.93734 -2.89067,2.864 m 3.02133,5.55067 -0.0947,-0.04 c -2.148,-0.89333 -3.59734,-2.972 -3.87867,-5.56 l -0.016,-0.152 0.076,-0.132 c 1.31067,-2.284 2.032,-2.66667 3.34267,-3.36 l 0.28666,-0.15333 c 0.496,-0.26534 1.28934,-0.35334 2.12267,-0.488 0.732,-0.11867 1.49067,-0.24267 2.00667,-0.46667 l 0.0893,-0.0373 0.0947,-0.001 c 1.42799,-0.009 2.97999,-0.22533 4.61333,-0.22533 h 0.27866 l 0.10667,0.25067 c 0.39333,0.92666 0.64667,2.66933 0.64667,3.71333 0,2.55067 -1.07867,4.96933 -2.816,6.312 l -0.11867,0.0933 z"
       style="fill:#000000;fill-opacity:1;fill-rule:nonzero;stroke:none;stroke-width:1.33333"
       id="path164266" />
    <path
       d="m 332.64186,131.89094 c -2.40533,0.21867 -6.276,2.41867 -7.07067,3.01333 -0.796,0.59334 -2.20533,4.49467 -2.20533,4.49467 0,0 3.00267,-4.04533 4.42533,-4.67733 1.42134,-0.632 4.99867,-1.59734 8.50933,-1.11334 2.88,0.396 2.38,1.6 2.39067,4.124 0.009,2.52267 -2.34667,4.98 -2.34667,4.98 3.46667,-0.79466 5.06267,-1.73733 6.63867,-3.704 1.576,-1.96666 4.08533,-8.20266 4.08533,-8.20266 0,0 -2.96,2.13866 -5.17866,2.33466 0,0 0.97866,-1.79733 0.97866,-2.33466 0,0 -2.696,1.24533 -3.348,1.48266 0,0 0.38134,-1.012 0.32667,-1.42933 0,0 -2.06533,0.89333 -3.424,0.89333 -1.35867,0 -1.27467,-0.0893 -3.78133,0.13867"
       style="fill:#000000;fill-opacity:1;fill-rule:nonzero;stroke:none;stroke-width:1.33333"
       id="path164270" />
    <path
       d="m 297.82146,142.90881 c 0,0 -6.91467,6.07466 -12.84,7.016 0,0 9.496,-0.67467 12.84,-7.016"
       style="fill:#000000;fill-opacity:1;fill-rule:nonzero;stroke:none;stroke-width:1.33333"
       id="path164286" />
    <path
       d="m 323.26933,136.17921 c 0,0 -1.064,2.52666 -0.70934,3.84 0.35467,1.312 0.93067,2.13733 0.75334,1.36 -0.17734,-0.77734 -0.132,-3.208 0.22133,-4.42267 0.35467,-1.21467 0.22267,-1.74933 -0.26533,-0.77733"
       style="fill:#000000;fill-opacity:1;fill-rule:nonzero;stroke:none;stroke-width:1.33333"
       id="path164290" />
    <path
       d="m 324.78906,144.68974 c 0,0 2.844,3.792 8.72666,4.42933 0,0 -3.91066,0.284 -5.88266,-0.956 -1.972,-1.24133 -2.844,-3.47333 -2.844,-3.47333"
       style="fill:#000000;fill-opacity:1;fill-rule:nonzero;stroke:none;stroke-width:1.33333"
       id="path164294" />
  </g>
  <g
     inkscape:groupmode="layer"
     id="layer6"
     inkscape:label="Nose Edge"
     sodipodi:insensitive="true">
    <path
       d="m 305.79026,137.52601 c -0.12667,-1.01867 -0.11333,-2.184 -0.412,-3.16667 -0.15067,-0.49333 -0.31867,-1.328 -0.78,-1.66133 -0.796,-0.57334 -1.672,0.82266 -1.976,1.34666 -0.55067,0.95467 -0.97467,1.97867 -1.53733,2.92667 0,0 1.70933,-1.39067 2.30533,-0.596 0.59467,0.79333 3.45067,9.62667 3.45067,9.62667 -0.06,-0.48934 -0.12134,-0.97734 -0.18134,-1.46534 -0.28933,-2.33733 -0.58,-4.67333 -0.86933,-7.01066"
       style="fill:#000000;fill-opacity:1;fill-rule:nonzero;stroke:none;stroke-width:1.33333"
       id="path164282" />
  </g>
  <g
     inkscape:groupmode="layer"
     id="layer7"
     inkscape:label="Standard Brows"
     style="display:none"
     sodipodi:insensitive="true">
    <path
       id="path164208"
       style="opacity:1;fill:#000000;fill-opacity:0.2;fill-rule:nonzero;stroke:none;stroke-width:1.33333"
       d="m 283.74023,119.08984 c -2.81439,-0.0722 -5.50356,0.31915 -8.11523,0.99414 -2.42533,0.62667 -4.78395,1.49923 -7.11328,2.47657 -0.568,0.23733 -8.03737,3.56859 -7.9707,3.66992 3.43199,5.27866 10.72681,2.41414 15.74414,1.85547 4.36133,-0.48533 10.01555,-0.2043 14.21289,0.95703 2.07332,0.57334 5.81747,3.70222 6.38281,4.43555 0.25066,0.32533 1.54449,1.12794 1.67383,1.4746 0.16533,0.44533 0.44426,0.84451 0.57226,1.3125 0.10267,0.37733 0.30858,0.73872 0.39258,1.10938 0.15943,0.6889 0.0504,1.13667 -0.3457,1.625 h 1.75195 c 0.50334,-0.57672 1.04323,-1.12808 1.58399,-1.74609 0.81732,-0.93333 2.11362,-1.7321 2.40429,-2.9961 0.292,-1.268 -0.0394,-2.50339 -0.0234,-3.77539 0.012,-0.98933 0.45349,-1.73844 1.16016,-2.39844 0.74933,-0.69999 1.85049,-1.94522 1.64649,-3.08789 -0.14,-0.79466 -1.05241,-0.30261 -1.53907,-0.11328 -1.49734,0.58534 -3.39173,0.48128 -4.92773,0.11328 -2.19467,-0.528 -4.21608,-1.72647 -6.21875,-2.73047 -1.94,-0.97333 -3.93255,-2.01448 -6.06055,-2.50781 -1.789,-0.4145 -3.5223,-0.62465 -5.21094,-0.66797 z m 39.91243,16.74083 c 2.63467,-2.41333 7.436,-4.57466 10.4,-5.44666 2.964,-0.872 10.288,-0.17467 10.288,-0.17467 l 3.31333,-5.05733 -5.53467,-3.808 -9.75733,0.73333 -7.80133,4.63867 c 0,0 -4.45867,5.412 -4.98133,6.632 -0.52267,1.22133 1.172,5.14 4.07333,2.48266" />
    <path
       id="path164250"
       style="fill:#000000;fill-opacity:1;fill-rule:nonzero;stroke:none;stroke-width:1.33333"
       d="m 324.17239,135.31521 c 0,0 2.03067,-4.86934 12.02267,-5.352 0,0 -4.952,1.49066 -6.836,2.32266 -1.88533,0.83334 -5.18667,3.02934 -5.18667,3.02934 m -24.68973,0.92 c -0.39867,-0.60667 -1.05867,-1.044 -1.58133,-1.56134 -0.59334,-0.58533 -1.20534,-1.152 -1.84134,-1.692 -1.26533,-1.07466 -2.696,-2.20666 -4.33066,-2.66666 -3.284,-0.92534 -12.49334,-1.81734 -14.472,-1.01334 0,0 11.188,0.088 13.644,2.01467 0.27333,0.21467 0.552,0.42267 0.83066,0.63067 1.47067,1.088 2.984,2.124 4.53334,3.09866 0.772,0.48667 1.78533,0.732 2.196,1.62267 0.144,0.316 0.22266,0.65867 0.3,0.99867 0.13066,0.58 0.46666,1.35733 0.36666,1.956 -0.064,0.38 -0.41333,0.55466 -0.64933,0.82 -0.12533,0.14 -0.61333,0.584 -0.57467,0.748 0.04,0.16533 0.396,0.232 0.556,0.21333 0.29467,-0.032 0.87334,-0.37467 1.08667,-0.624 0.85333,-0.98933 0.36267,-2.21467 0.25333,-3.34267 -0.0453,-0.46133 -0.0413,-0.77066 -0.31733,-1.20266" />
    <path
       id="path164278"
       style="fill:#383838;fill-opacity:1;fill-rule:nonzero;stroke:none;stroke-width:1.33333"
       d="m 289.03586,120.96387 c -2.604,-0.52533 -5.252,-0.79866 -7.852,-0.82933 -3.71867,-0.0453 -7.48267,0.56933 -10.92267,2.00933 -1.80933,0.75734 -3.3,1.82667 -4.932,2.876 -1.468,0.944 -3.42133,2.16934 -5.24933,1.72267 4.23467,-3.88533 8.88533,-7.39867 14.59867,-8.82667 8.48,-2.64 17.936,-0.12266 25.43466,4.17867 1.70667,0.98 3.37867,2.07333 5.26134,2.64533 0.38133,0.11467 0.824,0.27734 1.08666,0.592 0.368,0.44 0.15734,0.98134 -0.128,1.40134 -0.27466,0.40266 -0.64,0.87066 -1.032,1.164 -0.13466,0.10133 -0.27866,0.20266 -0.44533,0.228 -0.28933,0.044 -0.556,-0.14667 -0.78667,-0.328 -4.20533,-3.3 -9.70133,-5.75734 -15.03333,-6.83334 m 34.40013,6.53267 c 2.268,-2.44267 5.88,-6.20533 12.06133,-8.012 6.18,-1.80533 8.892,-1.37333 10.58667,0.568 1.696,1.94133 1.46133,2.01467 0.14267,3.62267 -1.31867,1.608 -2.324,0.712 -3.37867,-0.68 -1.05467,-1.39334 -4.052,-0.67334 -9.19333,0.61866 -5.14267,1.29334 -13.60933,7.53334 -10.21867,3.88267" />
    <path
       id="path68813"
       style="color:#000000;fill:#000000;-inkscape-stroke:none"
       d="m 342.49219,118.11328 c -1.71309,-0.12881 -3.95986,0.22393 -7.06446,1.13086 -6.24586,1.82553 -9.90483,5.63619 -12.17578,8.08203 -0.4294,0.46233 -0.67234,0.7542 -0.78711,0.99805 -0.0287,0.061 -0.0518,0.12165 -0.0566,0.20117 -0.005,0.0795 0.0261,0.1952 0.10547,0.26563 0.0794,0.0704 0.16539,0.0838 0.23242,0.0859 0.067,0.002 0.12671,-0.007 0.18946,-0.0215 0.251,-0.058 0.57353,-0.2051 1,-0.41797 0.42647,-0.21287 0.94489,-0.492 1.52929,-0.80859 2.33761,-1.26639 5.73943,-3.14205 8.25,-3.77344 2.57017,-0.64588 4.60191,-1.14456 6.09571,-1.30859 0.7469,-0.082 1.35768,-0.08 1.82617,0.0195 0.46849,0.0995 0.7887,0.28544 1.01172,0.58007 0.53483,0.7059 1.05903,1.31658 1.70508,1.54883 0.32302,0.11613 0.68163,0.12062 1.03125,-0.0215 0.34961,-0.1421 0.68839,-0.417 1.03515,-0.83985 0.32795,-0.3999 0.59166,-0.70666 0.78516,-0.98828 0.1935,-0.28162 0.32263,-0.55246 0.33008,-0.85156 0.007,-0.29909 -0.10854,-0.59129 -0.31836,-0.91797 -0.20982,-0.32668 -0.51892,-0.69943 -0.94532,-1.1875 -0.88474,-1.01351 -2.06621,-1.64657 -3.77929,-1.77539 z m -0.0391,0.5 c 1.61159,0.12118 2.77026,0.95564 3.27659,1.47844 0.50633,0.52281 0.6267,0.69996 0.80867,0.98328 0.31839,0.49646 0.16288,0.90756 0.007,1.23765 -0.15635,0.33009 -0.42839,0.55099 -0.75977,0.95508 -0.34871,0.39482 -1.03316,0.55358 -1.51155,0.41225 -0.47839,-0.14133 -0.6774,-0.44491 -1.19724,-1.13101 -0.30431,-0.40203 -0.75388,-0.64863 -1.30468,-0.76562 -0.5508,-0.117 -1.2094,-0.11462 -1.98633,-0.0293 -1.55386,0.17063 -3.59096,0.67614 -6.16211,1.32226 -2.63209,0.66195 -5.94503,2.34772 -8.33771,3.99525 -0.54651,0.37631 -1.15919,0.71136 -1.57458,0.9187 -0.25208,0.12583 -0.37267,0.16366 -0.53907,0.23047 0.11697,-0.15769 0.18104,-0.26804 0.44727,-0.55468 2.26505,-2.43949 5.83244,-6.15361 11.94922,-7.94141 3.0754,-0.8984 5.27318,-1.23251 6.88476,-1.11133 z m -61.28707,-2.01367 c -2.2146,0.0692 -4.41642,0.41162 -6.5586,1.07812 -5.77119,1.44531 -10.45328,4.98698 -14.69726,8.88086 l -0.34375,0.31641 0.45507,0.11133 c 1.97031,0.48144 3.97329,-0.81053 5.44336,-1.75586 1.63874,-1.05366 3.11546,-2.11161 4.89258,-2.85547 3.40345,-1.4247 7.13515,-2.03517 10.82422,-1.99023 2.58448,0.0305 5.21642,0.30206 7.80469,0.82421 5.2923,1.06799 10.75821,3.51326 14.92773,6.78516 0.23733,0.18656 0.56048,0.44248 0.97852,0.37891 0.24343,-0.037 0.41949,-0.17072 0.55859,-0.27539 0.43447,-0.32512 0.80589,-0.80924 1.02422,-1.13077 0.21833,-0.32154 0.36156,-0.5882 0.41328,-0.88491 0.0517,-0.29671 -0.005,-0.63344 -0.23633,-0.91015 -0.32404,-0.38821 -0.8124,-0.5538 -1.20507,-0.67188 -1.83728,-0.55821 -3.49383,-1.63818 -5.20899,-2.62305 -5.65561,-3.24413 -12.42463,-5.48508 -19.07226,-5.27734 z m 0.0195,0.50195 c 6.52935,-0.2005 13.21037,2.00113 18.80273,5.20899 1.69818,0.97512 3.3864,2.08218 5.31445,2.66797 0.8886,0.34158 1.02213,0.69825 0.65745,1.32143 -0.26732,0.3919 -0.44512,0.79654 -1.04284,0.99421 -0.59772,0.19767 -1.93522,-0.87276 -2.81521,-1.49659 -2.14745,-1.52315 -7.6446,-3.99486 -13.01629,-5.07887 -2.61973,-0.5285 -5.28293,-0.80313 -7.89844,-0.83398 -3.74826,-0.0457 -7.5469,0.574 -11.02344,2.02929 -1.84153,0.77082 -3.34544,1.85149 -4.9707,2.89649 -1.24815,0.80262 -2.80132,1.57666 -4.2793,1.58984 4.05207,-3.64142 8.45365,-6.89986 13.82422,-8.24219 l 0.008,-0.002 0.006,-0.002 c 2.09664,-0.65273 4.25715,-0.9859 6.4336,-1.05274 z" />
    <path
       id="path68819"
       style="fill:#000000;fill-opacity:0.2;stroke:none;stroke-width:1px;stroke-linecap:butt;stroke-linejoin:miter;stroke-opacity:1"
       d="m 345.66992,119.63477 c -0.7656,0.45142 -1.50963,0.85965 -1.91992,1.00195 -1.0812,0.37499 -1.80533,-0.65979 -5.42383,0 -3.61849,0.65979 -8.4116,2.56577 -11.43945,4.7168 -1.505,1.06917 -2.96896,2.29887 -4.0625,3.26562 1.04275,-0.14904 6.90261,-4.01813 10.83008,-5.00586 5.14132,-1.292 8.13869,-2.01052 9.19336,-0.61719 1.05467,1.392 2.06023,2.28769 3.3789,0.67969 1.31866,-1.608 1.55342,-1.68172 -0.14258,-3.62305 -0.1307,-0.14972 -0.27013,-0.28653 -0.41406,-0.41796 z m -62.11328,-1.16797 c -2.89821,-0.0817 -5.41253,0.35969 -7.88476,0.85742 -3.29632,0.66364 -5.61996,1.9132 -8.50586,3.41797 -1.75545,0.91532 -4.46939,2.74388 -6.41602,4.09179 1.62479,0.0609 3.29039,-0.98511 4.58008,-1.81445 1.632,-1.04933 3.12231,-2.11766 4.93164,-2.875 3.44,-1.44 7.20321,-2.05506 10.92187,-2.00976 2.6,0.0307 5.24757,0.30474 7.85157,0.83007 5.33199,1.076 10.82787,3.53204 15.0332,6.83204 0.23067,0.18132 0.49778,0.37212 0.78711,0.32812 0.16667,-0.0253 0.31065,-0.12719 0.44531,-0.22852 0.392,-0.29334 0.75854,-0.7614 1.0332,-1.16406 0.28534,-0.42 0.49496,-0.96039 0.12696,-1.40039 -0.26266,-0.31466 -0.70461,-0.47713 -1.08594,-0.5918 -0.75228,-0.22856 -1.47121,-0.54193 -2.17188,-0.89648 -0.8189,0.11389 -1.66247,0.11875 -2.43164,-0.0996 -2.76316,-0.78445 -9.91933,-4.36174 -14.17578,-5.00391 -1.06411,-0.16054 -2.07299,-0.24621 -3.03906,-0.27343 z" />
  </g>
  <g
     inkscape:groupmode="layer"
     id="g6343"
     inkscape:label="Vulcan Brows">
    <path
       id="path6333"
       style="opacity:1;fill:#000000;fill-opacity:0.2;fill-rule:nonzero;stroke:none;stroke-width:1.33333"
       d="m 283.74023,119.08984 c -2.81439,-0.0722 -5.00125,0.13418 -7.76146,-0.12614 -2.7602,-0.26032 -5.53142,-0.13102 -7.17224,-0.29466 -1.64082,-0.16364 -9.45246,-1.67905 -9.38579,-1.57772 3.43199,5.27866 11.84709,11.55329 16.86442,10.99462 4.36133,-0.48533 10.01555,-0.2043 14.21289,0.95703 2.07332,0.57334 5.81747,3.70222 6.38281,4.43555 0.25066,0.32533 1.54449,1.12794 1.67383,1.4746 0.16533,0.44533 0.44426,0.84451 0.57226,1.3125 0.10267,0.37733 0.30858,0.73872 0.39258,1.10938 0.15943,0.6889 0.0504,1.13667 -0.3457,1.625 h 1.75195 c 0.50334,-0.57672 1.04323,-1.12808 1.58399,-1.74609 0.81732,-0.93333 2.11362,-1.7321 2.40429,-2.9961 0.292,-1.268 -0.0394,-2.50339 -0.0234,-3.77539 0.012,-0.98933 0.45349,-1.73844 1.16016,-2.39844 0.74933,-0.69999 1.85049,-1.94522 1.64649,-3.08789 -0.14,-0.79466 -1.05241,-0.30261 -1.53907,-0.11328 -1.49734,0.58534 -3.39173,0.48128 -4.92773,0.11328 -2.19467,-0.528 -4.21608,-1.72647 -6.21875,-2.73047 -1.94,-0.97333 -3.93255,-2.01448 -6.06055,-2.50781 -1.789,-0.4145 -3.5223,-0.62465 -5.21094,-0.66797 z m 39.91243,16.74083 c 2.63467,-2.41333 7.436,-4.57466 10.4,-5.44666 2.964,-0.872 10.288,-0.17467 10.288,-0.17467 0,0 3.35015,-3.80008 3.31333,-7.35686 -0.0368,-3.55678 -2.88137,-4.33866 -2.88137,-4.33866 l -12.41063,3.56352 -7.80133,4.63867 c 0,0 -4.45867,5.412 -4.98133,6.632 -0.52267,1.22133 1.172,5.14 4.07333,2.48266"
       sodipodi:nodetypes="szzccccccccccccccccccsscsczccccc" />
    <path
       id="path6335"
       style="fill:#000000;fill-opacity:1;fill-rule:nonzero;stroke:none;stroke-width:1.33333"
       d="m 324.17239,135.31521 c 0,0 2.03067,-4.86934 12.02267,-5.352 0,0 -4.952,1.49066 -6.836,2.32266 -1.88533,0.83334 -5.18667,3.02934 -5.18667,3.02934 m -24.68973,0.92 c -0.39867,-0.60667 -1.05867,-1.044 -1.58133,-1.56134 -0.59334,-0.58533 -1.20534,-1.152 -1.84134,-1.692 -1.26533,-1.07466 -2.696,-2.20666 -4.33066,-2.66666 -3.284,-0.92534 -12.49334,-1.81734 -14.472,-1.01334 0,0 11.188,0.088 13.644,2.01467 0.27333,0.21467 0.552,0.42267 0.83066,0.63067 1.47067,1.088 2.984,2.124 4.53334,3.09866 0.772,0.48667 1.78533,0.732 2.196,1.62267 0.144,0.316 0.22266,0.65867 0.3,0.99867 0.13066,0.58 0.46666,1.35733 0.36666,1.956 -0.064,0.38 -0.41333,0.55466 -0.64933,0.82 -0.12533,0.14 -0.61333,0.584 -0.57467,0.748 0.04,0.16533 0.396,0.232 0.556,0.21333 0.29467,-0.032 0.87334,-0.37467 1.08667,-0.624 0.85333,-0.98933 0.36267,-2.21467 0.25333,-3.34267 -0.0453,-0.46133 -0.0413,-0.77066 -0.31733,-1.20266" />
    <path
       id="path6337"
       style="fill:#383838;fill-opacity:1;fill-rule:nonzero;stroke:none;stroke-width:1.33333"
       d="m 289.03586,120.96387 c -2.604,-0.52533 -5.252,-0.79866 -7.852,-0.82933 -3.71867,-0.0453 -7.11876,-0.0917 -9.86135,-0.40812 -2.74259,-0.31643 -5.4611,-0.74825 -7.29049,-1.31032 -1.82939,-0.56207 -4.12888,-1.19151 -5.95688,-1.63818 5.76769,0.41891 9.09123,0.81425 16.60339,1.13795 7.51216,0.3237 17.936,-0.12266 25.43466,4.17867 1.70667,0.98 3.37867,2.07333 5.26134,2.64533 0.38133,0.11467 0.824,0.27734 1.08666,0.592 0.368,0.44 0.15734,0.98134 -0.128,1.40134 -0.27466,0.40266 -0.64,0.87066 -1.032,1.164 -0.13466,0.10133 -0.27866,0.20266 -0.44533,0.228 -0.28933,0.044 -0.556,-0.14667 -0.78667,-0.328 -4.20533,-3.3 -9.70133,-5.75734 -15.03333,-6.83334 m 34.40013,6.53267 c 2.268,-2.44267 5.88,-6.20533 12.06133,-8.012 6.18,-1.80533 8.83237,-1.49125 11.41214,-2.26219 2.57977,-0.77093 1.87407,-0.34382 0.2606,0.91041 -1.61348,1.25422 -3.03155,1.18437 -4.73481,1.91434 -1.70325,0.72997 -3.70896,1.08862 -8.83955,2.85922 -5.1306,1.77061 -13.55037,8.24089 -10.15971,4.59022"
       sodipodi:nodetypes="cczzczcccccscccczzzzc" />
    <path
       style="color:#000000;fill:#000000;-inkscape-stroke:none"
       d="m 258.09375,116.5293 -0.0781,0.49218 c 1.82236,0.44529 4.12011,1.07263 5.94336,1.63282 1.8615,0.57193 4.58436,1.00307 7.33399,1.32031 2.76319,0.3188 6.16978,0.36485 9.88867,0.41016 2.58448,0.0305 5.21642,0.30206 7.80469,0.82421 5.2923,1.06799 10.75821,3.51326 14.92773,6.78516 0.23733,0.18656 0.56048,0.44248 0.97852,0.37891 0.24343,-0.037 0.41949,-0.17072 0.55859,-0.27539 0.43447,-0.32512 0.80589,-0.80924 1.02422,-1.13077 0.21833,-0.32154 0.36156,-0.5882 0.41328,-0.88491 0.0517,-0.29671 -0.005,-0.63344 -0.23633,-0.91015 -0.32404,-0.38821 -0.8124,-0.5538 -1.20507,-0.67188 -1.83728,-0.55821 -3.49383,-1.63818 -5.20899,-2.62305 -7.59186,-4.35479 -18.05649,-3.88809 -25.54883,-4.21093 -7.50657,-0.32346 -10.8236,-0.71749 -16.5957,-1.13672 z m 90.49805,0.0644 c -0.1211,-0.0203 -0.22402,-0.003 -0.3711,0.0234 -0.29416,0.0529 -0.7348,0.17158 -1.38281,0.36523 -2.51688,0.75215 -5.20419,0.44881 -11.41016,2.26172 -6.24586,1.82553 -9.90483,5.63619 -12.17578,8.08203 -0.42885,0.46175 -0.67092,0.74935 -0.78711,0.98242 -0.029,0.0583 -0.0541,0.11521 -0.0605,0.19532 -0.006,0.0801 0.0308,0.21034 0.12109,0.27734 0.0903,0.067 0.17426,0.0666 0.23828,0.0625 0.064,-0.004 0.12114,-0.0185 0.18164,-0.0371 0.242,-0.0745 0.56161,-0.23801 0.98438,-0.47266 0.42276,-0.23464 0.93842,-0.53883 1.51953,-0.88476 2.32441,-1.38374 5.71212,-3.43822 8.22851,-4.30664 5.12144,-1.76744 7.05529,-2.27494 8.85547,-2.86524 0.89959,-0.29499 1.59277,-0.51745 2.375,-0.75195 0.78223,-0.23449 1.57949,-0.54504 2.41602,-1.19531 0.40182,-0.31236 0.7474,-0.57421 1.00586,-0.7832 0.12923,-0.1045 0.23547,-0.19486 0.32031,-0.27735 0.0848,-0.0825 0.15414,-0.13799 0.19922,-0.27344 0.0225,-0.0677 0.024,-0.19244 -0.0449,-0.28125 -0.0689,-0.0888 -0.15234,-0.11094 -0.21289,-0.12109 z m -88.04883,0.60352 c 4.40734,0.34921 7.73248,0.69329 14.125,0.96875 7.53196,0.32455 17.91487,-0.10333 25.32031,4.14453 1.69818,0.97512 3.3864,2.08218 5.31445,2.66797 0.36999,0.11125 0.55916,0.22833 0.76043,0.46945 0.13657,0.16329 0.21885,0.33164 0.18591,0.5206 -0.0329,0.18896 -0.11474,0.37532 -0.38745,0.65271 -0.27271,0.27739 -0.39955,0.4548 -1.04284,0.6257 -0.64329,0.17089 -1.04728,-0.4206 -2.69222,-1.51722 -1.64495,-1.09662 -7.75747,-4.22186 -13.12916,-5.30587 -2.61973,-0.5285 -5.19449,-0.50832 -7.81,-0.53917 -3.71844,-0.0453 -7.11396,-0.0922 -9.83594,-0.40625 -2.73554,-0.31562 -5.44881,-0.74858 -7.24609,-1.30079 -1.09522,-0.3365 -2.33377,-0.6496 -3.5625,-0.98046 z m 86.98853,0.065 c -0.24356,0.19504 -0.4417,0.40617 -0.88243,0.67346 -0.84143,0.5103 -1.52567,0.83041 -2.26865,1.09659 -0.75599,0.27084 -1.35873,0.43773 -2.33929,0.76953 -1.71609,0.58068 -3.38772,1.0945 -8.52746,2.86825 -2.6142,0.90218 -5.99986,2.96823 -8.32031,4.34961 -0.58011,0.34535 -1.09463,0.64763 -1.50781,0.87695 -0.19745,0.10959 -0.27616,0.13465 -0.42383,0.20704 0.11809,-0.14742 0.14567,-0.20952 0.35742,-0.4375 2.26505,-2.43949 5.83244,-6.15361 11.94922,-7.94141 6.15402,-1.79774 8.34197,-1.51816 10.99937,-2.18997 0.47772,-0.12077 0.70645,-0.21162 0.96377,-0.27255 z"
       id="path6415"
       sodipodi:nodetypes="ccsscccsccscccsscscsccscsccsssssssssssssscccszzzccsscscsssssscccsc" />
    <path
       id="path6423"
       style="fill:#000000;fill-opacity:0.2;stroke:none;stroke-width:1px;stroke-linecap:butt;stroke-linejoin:miter;stroke-opacity:1"
       d="m 258.07422,116.77734 c 1.828,0.44667 4.12764,1.07661 5.95703,1.63868 1.82939,0.56207 4.54843,0.99411 7.29102,1.31054 2.74258,0.31642 6.14266,0.36291 9.86132,0.40821 2.6,0.0307 5.24757,0.30474 7.85157,0.83007 5.33199,1.076 10.82787,3.53204 15.0332,6.83204 0.23067,0.18132 0.49778,0.37212 0.78711,0.32812 0.16667,-0.0253 0.31065,-0.12719 0.44531,-0.22852 0.392,-0.29334 0.75854,-0.7614 1.0332,-1.16406 0.28534,-0.42 0.49496,-0.96039 0.12696,-1.40039 -0.16145,-0.19341 -0.39139,-0.31916 -0.63282,-0.42187 -0.37852,0.19837 -0.72748,0.36016 -0.97265,0.41796 -1.25557,0.29605 -0.96324,0.19671 -2.08399,-0.16601 -1.12074,-0.36272 -1.87643,-1.54562 -4.25195,-2.58594 -2.37552,-1.04032 -7.50192,-2.46188 -10.17383,-2.91797 -2.6719,-0.45609 -2.27875,-0.12827 -5.66992,-0.33398 -3.39117,-0.20571 -9.94248,-0.32504 -14.67578,-0.91797 -2.40677,-0.30149 -5.84504,-0.95211 -8.69922,-1.53125 -0.43448,-0.0333 -0.76407,-0.0641 -1.22656,-0.0977 z m 90.47656,0.0645 c -0.16876,-0.0283 -0.67321,0.0918 -1.64062,0.38086 -0.8585,0.25655 -1.7813,0.39496 -2.78321,0.52929 -0.26841,0.31153 -0.57035,0.6049 -0.91406,0.82227 -1.28341,0.81166 -3.12449,0.3895 -5.58594,1.25 -2.46144,0.8605 -6.75386,2.66823 -8.7551,4.0024 -1.65256,1.10171 -4.97272,3.78544 -6.21169,4.71049 0.0631,0.61109 6.64594,-4.15048 10.93554,-5.63086 5.13059,-1.7706 7.1366,-2.12941 8.83985,-2.85937 1.70326,-0.72997 3.12089,-0.65985 4.73437,-1.91407 1.00842,-0.78389 1.66213,-1.24386 1.38086,-1.29101 z"
       sodipodi:nodetypes="csscccsccccssssssccsscssscssss" />
  </g>
</svg>
