<?xml version="1.0" encoding="UTF-8" standalone="no"?>
<!-- Created with Inkscape (http://www.inkscape.org/) -->

<svg
   version="1.1"
   id="svg194562"
   width="400"
   height="400"
   viewBox="0 0 400 400"
   sodipodi:docname="Eye4.svg"
   inkscape:version="1.2.2 (b0a8486, 2022-12-01)"
   xmlns:inkscape="http://www.inkscape.org/namespaces/inkscape"
   xmlns:sodipodi="http://sodipodi.sourceforge.net/DTD/sodipodi-0.dtd"
   xmlns="http://www.w3.org/2000/svg"
   xmlns:svg="http://www.w3.org/2000/svg">
  <defs
     id="defs194566" />
  <sodipodi:namedview
     id="namedview194564"
     pagecolor="#ffffff"
     bordercolor="#666666"
     borderopacity="1.0"
     inkscape:showpageshadow="2"
     inkscape:pageopacity="0.0"
     inkscape:pagecheckerboard="0"
     inkscape:deskcolor="#d1d1d1"
     showgrid="false"
     inkscape:zoom="1.475"
     inkscape:cx="201.01695"
     inkscape:cy="201.35593"
     inkscape:window-width="1440"
     inkscape:window-height="810"
     inkscape:window-x="2571"
     inkscape:window-y="149"
     inkscape:window-maximized="0"
     inkscape:current-layer="g194570">
    <inkscape:page
       x="0"
       y="0"
       id="page194568"
       width="400"
       height="400" />
  </sodipodi:namedview>
  <g
     id="g194570"
     inkscape:groupmode="layer"
     inkscape:label="Page 1">
    <path
       d="m 323.20653,141.02521 c 0.48933,0.392 0.76266,0.932 1.26666,1.25333 0.60667,0.38667 1.16934,0.82133 1.81334,1.15333 1.41466,0.73067 2.99866,1.09867 4.592,0.95867 5.56533,-0.49067 6.38399,-0.164 8.02133,-1.47333 0,0 -0.0867,4.20933 -1.92667,4.96933 -1.83867,0.76 -7.568,0.43333 -9.86,-1.368 -0.88666,-0.696 -1.612,-1.60667 -2.29066,-2.49867 -0.71334,-0.936 -1.43734,-1.796 -1.616,-2.99466"
       style="opacity:0.199997;fill:#000000;fill-opacity:1;fill-rule:nonzero;stroke:none;stroke-width:1.33333"
       id="path198388" />
    <path
       d="m 323.65266,135.83067 c 2.63467,-2.41333 7.436,-4.57466 10.4,-5.44666 2.964,-0.872 10.288,-0.17467 10.288,-0.17467 l 3.31333,-5.05733 -6.80133,-2.964 -16.74,5.92933 c 0,0 -4.01067,4.01067 -4.53333,5.23067 -0.52267,1.22133 1.172,5.14 4.07333,2.48266"
       style="opacity:0.199997;fill:#000000;fill-opacity:1;fill-rule:nonzero;stroke:none;stroke-width:1.33333"
       id="path198404" />
    <path
       d="m 279.16613,122.38721 c -1.81467,0.356 -3.61867,1.188 -5.284,1.68533 -1.716,0.512 -2.97067,1.23467 -4.60934,1.79067 -1.68533,0.57066 -4.19333,1.47866 -5.388,2.50666 2.17067,0.003 4.22,-0.016 6.19334,0.88134 1.744,0.79333 4.76,1.73866 6.748,1.04533 2.08,-0.72533 12.828,0.56533 14.752,1.204 1.924,0.64 5.77066,3.196 6.412,3.83467 0.284,0.28266 0.27733,0.74533 0.40666,1.096 0.16534,0.45066 0.44534,0.85866 0.57334,1.32933 0.10266,0.38133 0.30933,0.75067 0.39466,1.124 0.18134,0.796 0.0373,1.25733 -0.52,1.82133 -0.36133,0.36534 -0.636,0.83334 -1.07066,1.09734 -0.34,0.20666 -0.70134,0.37866 -1.056,0.55733 -1.20267,0.6 -2.38934,1.22267 -3.53734,1.92133 -2.88533,1.75734 -9.61733,0.48 -14.26666,0 -4.648,-0.47866 -10.09867,-4.31333 -9.29734,-3.35466 0.80134,0.95866 6.57067,6.53733 10.89867,7.496 4.908,1.088 9.62,0.37066 14.32667,-1.256 2.01333,-0.696 3.55333,-2.77334 4.468,-4.56267 0.78133,-1.53067 1.91333,-2.964 3.04266,-4.25467 0.81734,-0.93333 2.11334,-1.732 2.40534,-2.996 0.45066,-1.96 -0.43734,-3.70666 0.232,-5.64666 0.668,-1.93734 2.076,-3.53067 2.876,-5.412 0.56666,-1.332 0.90266,-3.824 1.77866,-4.95334 0,0 -2.62666,3.388 -4.92133,5.16 -1.08533,0.83867 -4.52667,1.45867 -5.664,1.17334 -2.57467,-0.64534 -5.1,-1.47334 -7.676,-2.11734 -2.60667,-0.64933 -6.34667,-0.32933 -8.876,-1.096 -1.09733,-0.33333 -2.22133,-0.29466 -3.34133,-0.0747"
       style="opacity:0.199997;fill:#000000;fill-opacity:1;fill-rule:nonzero;stroke:none;stroke-width:1.33333"
       id="path198432" />
    <path
       d="m 336.57466,142.37027 c 0.58266,-0.172 1,-0.70266 1,-0.70266 l 2.37866,-2.60134 -0.296,-4.59866 -6.84799,-0.87334 c 0,0 -6.248,1.47334 -7.53067,2.728 -1.28267,1.256 -1.90933,4.01067 -1.93733,4.09334 0,0 0.13733,0.84533 0.65466,0.95466 0.51867,0.10934 3.356,1.91067 4.36667,1.856 0.724,-0.04 5.63733,-0.0267 6.46666,-0.21733 0.83067,-0.192 1.74534,-0.63867 1.74534,-0.63867"
       style="fill:#ffffff;fill-opacity:1;fill-rule:nonzero;stroke:none;stroke-width:1.33333"
       id="path198442" />
    <path
       d="m 271.55893,136.25787 4.4,-2.052 14.12,0.25067 5.17733,2.78533 2.756,2.964 -1.11733,1.39867 -3.27867,0.028 c 0,0 -2.12667,1.604 -4.396,1.428 -2.268,-0.17733 -13.05067,-1.91333 -13.05067,-1.91333 l -4.86533,-4.38267 z"
       style="fill:#ffffff;fill-opacity:1;fill-rule:nonzero;stroke:none;stroke-width:1.33333"
       id="path198446" />
    <path
       d="m 280.03306,134.13601 c -0.336,0.76133 -0.52667,1.60133 -0.52667,2.48666 0,2.06267 1.04134,4.08534 2.60134,5.208 l 5.83866,0.54667 c 2.31334,-0.896 3.956,-3.132 3.956,-5.75467 0,-0.77333 -0.148,-1.50933 -0.408,-2.192 -2.864,-0.88666 -8.16933,-0.59733 -11.46133,-0.29466"
       style="fill:#754324;fill-opacity:1;fill-rule:nonzero;stroke:none;stroke-width:1.33333"
       id="path198450" />
    <path
       d="m 288.34186,136.62241 c 0,1.452 -1.18133,2.628 -2.63733,2.628 -1.456,0 -2.63734,-1.176 -2.63734,-2.628 0,-1.452 1.18134,-2.628 2.63734,-2.628 1.456,0 2.63733,1.176 2.63733,2.628"
       style="fill:#000000;fill-opacity:1;fill-rule:nonzero;stroke:none;stroke-width:1.33333"
       id="path198454" />
    <path
       d="m 282.26573,141.41801 5.61733,0.52533 c 2.18533,-0.888 3.592,-2.96533 3.592,-5.32133 0,-0.62267 -0.104,-1.24267 -0.30933,-1.844 -2.81467,-0.78534 -7.868,-0.504 -10.83734,-0.24134 -0.26266,0.668 -0.39466,1.368 -0.39466,2.08534 0,1.856 0.912,3.72533 2.332,4.796 m 5.74,1.392 -6.05334,-0.56667 -0.0947,-0.068 c -1.688,-1.21333 -2.77867,-3.39333 -2.77867,-5.55333 0,-0.91867 0.18933,-1.81334 0.56267,-2.65734 l 0.10266,-0.22933 0.24934,-0.0227 c 3.73866,-0.34266 8.788,-0.56666 11.62666,0.312 l 0.19867,0.0613 0.0747,0.19333 c 0.28933,0.75867 0.436,1.548 0.436,2.34267 0,2.74266 -1.66,5.15733 -4.22934,6.152 z"
       style="fill:#000000;fill-opacity:1;fill-rule:nonzero;stroke:none;stroke-width:1.33333"
       id="path198458" />
    <path
       d="m 284.85266,135.94441 c 0,0.796 -0.648,1.44133 -1.44667,1.44133 -0.79866,0 -1.44666,-0.64533 -1.44666,-1.44133 0,-0.796 0.648,-1.44134 1.44666,-1.44134 0.79867,0 1.44667,0.64534 1.44667,1.44134"
       style="fill:#ffffff;fill-opacity:1;fill-rule:nonzero;stroke:none;stroke-width:1.33333"
       id="path198462" />
    <path
       d="m 298.08799,140.49361 c 0.0387,-0.18534 0.008,-0.388 -0.11866,-0.608 -0.184,-0.32 -0.47067,-0.55867 -0.64934,-0.884 -0.17066,-0.30934 -0.41733,-0.59734 -0.63066,-0.87867 -0.51334,-0.67467 -1.07067,-1.31733 -1.68,-1.908 -1.312,-1.26933 -2.932,-2.352 -4.77867,-2.58533 -4.76933,-0.60134 -11.51867,-0.12 -14.316,-0.27334 -2.796,-0.152 -5.612,3.09334 -5.612,3.09334 0,0 3.59333,4.448 6.388,4.94 l -4.08533,-4.81334 c 0,0 2.148,-1.58266 4.94533,-1.6 2.79867,-0.0173 10.36533,0.39734 12.66667,0.86267 1.28666,0.26133 2.51466,1.06 3.62133,1.72933 0.67733,0.41067 1.344,0.84 2.00267,1.28 0.588,0.392 1.28133,0.76667 1.69733,1.356 0.20667,0.292 0.068,0.61734 0.064,0.95734 0.25067,-0.196 0.432,-0.41734 0.48533,-0.668"
       style="fill:#000000;fill-opacity:1;fill-rule:nonzero;stroke:none;stroke-width:1.33333"
       id="path198466" />
    <path
       d="m 299.48266,136.64734 c -0.39867,-0.61867 -1.05867,-1.07733 -1.58133,-1.61067 -0.59334,-0.60533 -1.20534,-1.192 -1.84134,-1.752 -1.26533,-1.11333 -2.696,-2.29066 -4.33066,-2.804 -3.284,-1.02933 -12.49334,-2.21333 -14.472,-1.47066 0,0 11.188,0.44133 13.644,2.44666 0.27333,0.22267 0.552,0.44134 0.83066,0.656 1.47067,1.13467 2.984,2.22 4.53334,3.244 0.772,0.51067 1.78533,0.788 2.196,1.692 0.144,0.32 0.22266,0.66534 0.3,1.00667 0.13066,0.58533 0.46666,1.37333 0.36666,1.968 -0.064,0.37867 -0.41333,0.54133 -0.64933,0.8 -0.12533,0.136 -0.61333,0.56533 -0.57467,0.72933 0.04,0.168 0.396,0.244 0.556,0.232 0.29467,-0.024 0.87334,-0.348 1.08667,-0.58933 0.85333,-0.964 0.36267,-2.204 0.25333,-3.33467 -0.0453,-0.464 -0.0413,-0.77333 -0.31733,-1.21333"
       style="fill:#000000;fill-opacity:1;fill-rule:nonzero;stroke:none;stroke-width:1.33333"
       id="path198470" />
    <path
       d="m 324.17239,135.31521 c 0,0 2.03067,-4.86934 12.02267,-5.352 0,0 -4.952,1.49066 -6.836,2.32266 -1.88533,0.83334 -5.18667,3.02934 -5.18667,3.02934"
       style="fill:#000000;fill-opacity:1;fill-rule:nonzero;stroke:none;stroke-width:1.33333"
       id="path198474" />
    <path
       d="m 332.00839,134.14254 c -1.08133,0.468 -3.02133,0.45867 -3.78133,0.86667 -1.38533,0.74266 -1.956,0.93733 -3.19067,3.08933 0.25734,2.372 1.58,4.07067 3.32934,4.8 l 6.01333,-0.22133 c 1.536,-1.188 2.44,-3.32267 2.44,-5.508 0,-0.93734 -0.23334,-2.456 -0.564,-3.23467 -1.21334,0.001 -2.70667,0.19867 -4.24667,0.208"
       style="fill:#754324;fill-opacity:1;fill-rule:nonzero;stroke:none;stroke-width:1.33333"
       id="path198478" />
    <path
       d="m 334.12106,137.87521 c 0,1.53733 -1.24667,2.784 -2.784,2.784 -1.53733,0 -2.78267,-1.24667 -2.78267,-2.784 0,-1.53734 1.24534,-2.784 2.78267,-2.784 1.53733,0 2.784,1.24666 2.784,2.784"
       style="fill:#000000;fill-opacity:1;fill-rule:nonzero;stroke:none;stroke-width:1.33333"
       id="path198482" />
    <path
       d="m 330.63346,135.95867 c 0,0.84267 -0.684,1.52667 -1.52667,1.52667 -0.84266,0 -1.52666,-0.684 -1.52666,-1.52667 0,-0.84266 0.684,-1.52666 1.52666,-1.52666 0.84267,0 1.52667,0.684 1.52667,1.52666"
       style="fill:#ffffff;fill-opacity:1;fill-rule:nonzero;stroke:none;stroke-width:1.33333"
       id="path198486" />
    <path
       d="m 325.48533,138.19081 c 0.256,1.97733 1.35333,3.56 2.96133,4.268 l 5.772,-0.21067 c 1.33866,-1.10133 2.16533,-3.032 2.16533,-5.07867 0,-0.76666 -0.176,-2.10266 -0.43467,-2.79333 -1.36533,0.005 -5.03066,0.192 -5.72666,0.304 -0.65867,0.108 -1.47333,0.544 -1.78933,0.712 l -0.268,0.144 c -1.14934,0.608 -1.63867,0.868 -2.68,2.65467 m 2.80133,5.14533 -0.088,-0.036 c -1.992,-0.82933 -3.33467,-2.756 -3.596,-5.15467 l -0.0147,-0.14133 0.0707,-0.12267 c 1.21467,-2.11733 1.884,-2.472 3.09867,-3.11466 l 0.26533,-0.14134 c 0.46,-0.24666 1.19467,-0.328 1.968,-0.45333 0.67867,-0.11067 1.38133,-0.22533 1.86133,-0.432 l 0.0813,-0.036 h 0.0893 c 1.32266,-0.009 2.76133,-0.208 4.27466,-0.20933 h 0.25867 l 0.1,0.23333 c 0.364,0.85867 0.59867,2.47333 0.59867,3.44133 0,2.36534 -1,4.608 -2.60934,5.852 l -0.11066,0.0853 z"
       style="fill:#000000;fill-opacity:1;fill-rule:nonzero;stroke:none;stroke-width:1.33333"
       id="path198490" />
    <path
       d="m 336.27572,134.26734 c 2.832,0.35467 2.34134,1.436 2.35067,3.69867 0.009,2.264 -2.30667,4.468 -2.30667,4.468 3.40934,-0.71334 4.46267,-4.24 4.46267,-4.24 l 1.23467,-5.292 c 0,0 -3.58267,-0.496 -9.34,-0.17467 -2.37067,0.13333 -6.172,2.16933 -6.95467,2.70267 -0.78133,0.532 -2.168,4.032 -2.168,4.032 0,0 2.95334,-3.628 4.352,-4.196 1.39734,-0.56667 4.916,-1.432 8.36933,-0.99867"
       style="fill:#000000;fill-opacity:1;fill-rule:nonzero;stroke:none;stroke-width:1.33333"
       id="path198494" />
    <path
       d="m 323.43599,128.06774 c 2.268,-2.268 4.60534,-5 10.444,-6.13067 5.83867,-1.12933 10.50933,-1.64666 12.204,0.42534 1.696,2.072 1.46133,2.12666 0.14267,3.63333 -1.31867,1.50667 -3.01334,0.94133 -4.332,-0.376 -1.31867,-1.31867 -4.17867,-0.90933 -9.076,-0.156 -4.89733,0.75333 -12.77333,5.99467 -9.38267,2.604"
       style="fill:#000000;fill-opacity:1;fill-rule:nonzero;stroke:none;stroke-width:1.33333"
       id="path198498" />
    <path
       d="m 271.80106,122.88561 c -3.44,1.94666 -12.196,7.73466 -12.196,7.73466 4.16667,-2.68 17.668,-8.07333 27.55067,-6.704 5.39866,0.748 15.27733,6.20534 17.064,4.91467 1.78666,-1.28933 3.572,-4.86267 3.572,-4.86267 0,0 -1.944,-0.26133 -3.432,-0.196 -1.904,0.084 -15.41734,-3.72666 -18.98934,-3.30933 -3.572,0.416 -10.172,0.5 -13.56933,2.42267"
       style="fill:#000000;fill-opacity:1;fill-rule:nonzero;stroke:none;stroke-width:1.33333"
       id="path198502" />
    <path
       d="m 305.79026,137.52601 c -0.12667,-1.01867 -0.11333,-2.184 -0.412,-3.16667 -0.15067,-0.49333 -0.31867,-1.328 -0.78,-1.66133 -0.796,-0.57334 -1.672,0.82266 -1.976,1.34666 -0.55067,0.95467 -0.97467,1.97867 -1.53733,2.92667 0,0 1.70933,-1.39067 2.30533,-0.596 0.59467,0.79333 3.45067,9.62667 3.45067,9.62667 -0.06,-0.48934 -0.12134,-0.97734 -0.18134,-1.46534 -0.28933,-2.33733 -0.58,-4.67333 -0.86933,-7.01066"
       style="fill:#000000;fill-opacity:1;fill-rule:nonzero;stroke:none;stroke-width:1.33333"
       id="path198506" />
    <path
       d="m 297.66493,144.36414 c 0,0 -6.452,3.996 -13.172,4.63867 0,0 9.828,1.596 13.172,-4.63867"
       style="fill:#000000;fill-opacity:1;fill-rule:nonzero;stroke:none;stroke-width:1.33333"
       id="path198510" />
    <path
       d="m 323.45933,136.57401 c 0,0 -1.04667,2.26666 -0.69734,3.444 0.348,1.17733 0.91467,1.91733 0.74134,1.22 -0.17467,-0.69734 -0.13067,-2.87734 0.21733,-3.96667 0.34933,-1.08933 0.21867,-1.56933 -0.26133,-0.69733"
       style="fill:#000000;fill-opacity:1;fill-rule:nonzero;stroke:none;stroke-width:1.33333"
       id="path198514" />
    <path
       d="m 324.95386,144.20801 c 0,0 2.79733,3.40133 8.58266,3.97333 0,0 -3.84666,0.25467 -5.78533,-0.85867 -1.93866,-1.112 -2.79733,-3.11466 -2.79733,-3.11466"
       style="fill:#000000;fill-opacity:1;fill-rule:nonzero;stroke:none;stroke-width:1.33333"
       id="path198518" />
  </g>
</svg>
