<?xml version="1.0" encoding="UTF-8" standalone="no"?>
<!-- Created with Inkscape (http://www.inkscape.org/) -->

<svg
   version="1.1"
   id="svg156786"
   width="400"
   height="400"
   viewBox="0 0 400 400"
   sodipodi:docname="Eyes11.svg"
   inkscape:version="1.2.2 (b0a8486, 2022-12-01)"
   xmlns:inkscape="http://www.inkscape.org/namespaces/inkscape"
   xmlns:sodipodi="http://sodipodi.sourceforge.net/DTD/sodipodi-0.dtd"
   xmlns="http://www.w3.org/2000/svg"
   xmlns:svg="http://www.w3.org/2000/svg">
  <defs
     id="defs156790" />
  <sodipodi:namedview
     id="namedview156788"
     pagecolor="#ffffff"
     bordercolor="#666666"
     borderopacity="1.0"
     inkscape:showpageshadow="2"
     inkscape:pageopacity="0.0"
     inkscape:pagecheckerboard="0"
     inkscape:deskcolor="#d1d1d1"
     showgrid="false"
     inkscape:zoom="1.9925"
     inkscape:cx="200"
     inkscape:cy="200"
     inkscape:window-width="2054"
     inkscape:window-height="1017"
     inkscape:window-x="2251"
     inkscape:window-y="163"
     inkscape:window-maximized="0"
     inkscape:current-layer="g5788">
    <inkscape:page
       x="0"
       y="0"
       id="page156792"
       width="400"
       height="400" />
  </sodipodi:namedview>
  <g
     id="g156794"
     inkscape:groupmode="layer"
     inkscape:label="Eyes">
    <path
       id="rect9954"
       style="fill:#000000;fill-opacity:0.2;stroke-width:0.799998;stroke-miterlimit:40"
       d="M 299.45703 139 C 299.35955 139.20454 299.20916 139.40114 299.00195 139.61133 C 298.64062 139.97666 298.36631 140.44303 297.93164 140.70703 C 296.64098 141.49103 295.51425 142.04131 294.04492 142.44531 C 292.51558 142.86531 290.94719 143.15145 289.36719 143.30078 C 284.71519 143.74345 280.28873 142.84369 275.91406 141.31836 C 275.53006 141.18369 275.24656 140.93697 274.86523 140.79297 C 274.3239 140.58897 273.46228 140.61258 273.01562 140.25391 C 273.21162 140.72058 273.9272 141.12174 274.2832 141.45508 C 277.90454 144.84707 281.95748 148.13952 287.24414 147.60352 C 290.2468 147.29819 293.08624 146.04351 295.62891 144.46484 C 296.45958 143.95017 297.18999 143.40717 297.83398 142.67383 C 298.22998 142.2205 298.59262 141.73883 299.00195 141.29883 C 299.33795 140.93749 299.77366 140.71147 300.09766 140.35547 C 300.48067 139.93475 300.82666 139.47063 301.16992 139 L 299.45703 139 z " />
    <path
       d="m 323.16133,141.61481 c 0.51466,0.28 0.80533,0.67333 1.33333,0.9 0.636,0.27333 1.22667,0.58266 1.9,0.81333 1.47867,0.50933 3.12933,0.74667 4.78133,0.604 5.77067,-0.49467 6.62533,-0.27067 8.30667,-1.28 0,0 -0.028,3.12533 -1.92667,3.732 -1.89867,0.60667 -7.852,0.49867 -10.25866,-0.784 -0.93067,-0.496 -1.696,-1.15467 -2.41467,-1.8 -0.75333,-0.67867 -1.51733,-1.3 -1.72133,-2.18533"
       style="opacity:0.199997;fill:#000000;fill-opacity:1;fill-rule:nonzero;stroke:none;stroke-width:1.33333"
       id="path163872" />
    <path
       d="m 336.60479,141.87041 c 0.59333,-0.20267 1.01733,-0.74934 1.01733,-0.74934 l 2.41867,-2.70666 -0.30133,-4.53867 -6.96267,-0.49067 c 0,0 -6.35333,1.79867 -7.65733,3.112 -1.304,1.31334 -1.94133,4.076 -1.96933,4.15867 0,0 0.13866,0.83067 0.66533,0.90933 0.52667,0.08 3.40933,1.53334 4.43867,1.6 1.65466,0.108 5.58266,-0.7 6.42666,-0.93466 0.844,-0.23467 1.924,-0.36 1.924,-0.36"
       style="fill:#ffffff;fill-opacity:1;fill-rule:nonzero;stroke:none;stroke-width:1.33333"
       id="path163926" />
    <path
       d="m 273.57586,134.80801 3.88,-1.80534 12.45067,0.74267 4.56533,2.848 2.43067,2.93333 -0.98534,1.29734 c -1.204,-0.0373 -2.32266,-0.0453 -3.452,0.28666 -0.824,0.24134 -1.53066,0.70267 -2.412,0.824 -1.06533,0.14534 -2.41333,0.12 -3.47333,-0.0213 -2.448,-0.32667 -4.596,-0.0173 -6.80133,-1.16133 -0.36667,-0.18934 -1,-0.55734 -1.39467,-0.69467 -0.16667,-0.0573 -0.62533,-0.28933 -0.74267,-0.408 -0.0307,-0.0333 -4.29066,-4.36533 -4.29066,-4.36533 z"
       style="fill:#ffffff;fill-opacity:1;fill-rule:nonzero;stroke:none;stroke-width:1.33333"
       id="path163930" />
    <path
       d="m 291.69453,134.16081 c 0.21733,0.93333 0.62266,1.552 0.49733,2.53866 -0.292,2.3 -1.74533,4.336 -3.64,5.26534 l -6.404,-0.512 c -2.32933,-1.42 -3.632,-3.98934 -3.16133,-6.94267 0.13866,-0.87067 0.49866,-1.292 0.92,-2.00667 3.19333,-0.45733 8.43866,0.72134 11.788,1.65734"
       style="fill:#754324;fill-opacity:1;fill-rule:nonzero;stroke:none;stroke-width:1.33333"
       id="path163934" />
    <path
       d="m 282.75279,135.28161 c -0.224,1.59333 0.87467,3.07066 2.45467,3.29866 1.57867,0.228 3.04133,-0.88 3.26667,-2.47333 0.224,-1.59333 -0.87467,-3.07067 -2.45467,-3.29867 -1.58,-0.228 -3.04267,0.88 -3.26667,2.47334"
       style="fill:#000000;fill-opacity:1;fill-rule:nonzero;stroke:none;stroke-width:1.33333"
       id="path163938" />
    <path
       d="m 291.73626,136.62107 c 0.10133,-0.8 0.0453,-1.44533 -0.416,-2.05333 -3.02267,-0.83333 -8.02533,-1.96667 -11.14533,-1.61467 -0.34667,0.636 -0.63334,0.86 -0.752,1.54134 -0.444,2.57333 0.68266,5.11066 2.87333,6.496 l 6.16267,0.49333 c 1.73466,-0.9 3.01466,-2.79467 3.27733,-4.86267 m -9.83067,5.23467 c -2.58533,-1.57467 -3.864,-4.30667 -3.372,-7.39333 0.14267,-0.896 0.51867,-1.408 0.988,-2.204 l 0.11867,-0.20267 0.22133,-0.032 c 3.16667,-0.45333 8.144,0.59733 11.94667,1.65867 l 0.25333,0.0707 0.0653,0.28134 c 0.54,1 0.65066,1.72 0.52133,2.744 -0.30667,2.40666 -1.84133,4.60533 -3.892,5.61066 l -0.11467,0.056 -6.64133,-0.53066 z"
       style="fill:#000000;fill-opacity:1;fill-rule:nonzero;stroke:none;stroke-width:1.33333"
       id="path163942" />
    <path
       d="m 284.87986,134.96614 c 0,0.85467 -0.68667,1.548 -1.53467,1.548 -0.848,0 -1.53466,-0.69333 -1.53466,-1.548 0,-0.85467 0.68666,-1.548 1.53466,-1.548 0.848,0 1.53467,0.69333 1.53467,1.548"
       style="fill:#ffffff;fill-opacity:1;fill-rule:nonzero;stroke:none;stroke-width:1.33333"
       id="path163946" />
    <path
       d="m 288.66399,131.88147 c 1.628,0.28934 4.61734,1.892 5.77334,3.15334 0.53866,0.58533 1.41066,1.644 1.86266,2.30666 0.188,0.276 1.00534,0.62534 1.176,0.884 0.17867,0.272 0.46667,0.47734 0.64934,0.744 0.12666,0.18534 0.15866,0.35067 0.11866,0.5 -0.052,0.20134 -0.23466,0.37467 -0.484,0.524 0.004,-0.27733 0.14134,-0.536 -0.0653,-0.78133 -0.416,-0.49733 -1.62267,-0.81067 -2.14133,-1.208 -0.58134,-0.444 -1.16934,-0.87733 -1.76667,-1.29467 -0.976,-0.68 -2.064,-1.74533 -3.19733,-2.04533 -4.62934,-1.224 -8.75867,-1.34133 -11.29067,-1.02267 -2.416,0.304 -4.136,1.21467 -4.128,2.08934 0.008,0.87466 2.92933,4.168 2.92933,4.168 -2.464,-0.57067 -5.28666,-2.572 -6.52266,-4.06134 -1.236,-1.48933 -2.672,-5.06666 -2.672,-5.06666 1.72533,0.76666 6.01466,0.37466 9.76933,0.296 3.75467,-0.0787 7.24133,0.32666 9.98933,0.81466"
       style="fill:#000000;fill-opacity:1;fill-rule:nonzero;stroke:none;stroke-width:1.33333"
       id="path163950" />
    <path
       d="m 332.37719,132.92041 c -1.05066,0.64666 -3.052,0.90133 -3.77866,1.44 -1.32667,0.98266 -2.20267,0.812 -3.17467,3.28 0.59867,2.50266 2.51867,4.59733 4.42533,5.13866 l 6.17467,-1.052 c 1.41733,-1.48 2.05066,-3.668 1.744,-5.87866 -0.132,-0.948 -0.58667,-2.45467 -1.03734,-3.2 -1.252,0.15733 -2.76533,0.052 -4.35333,0.272"
       style="fill:#754324;fill-opacity:1;fill-rule:nonzero;stroke:none;stroke-width:1.33333"
       id="path163962" />
    <path
       d="m 335.04332,136.99174 c 0,1.65867 -1.344,3.00267 -3.00266,3.00267 -1.65867,0 -3.00267,-1.344 -3.00267,-3.00267 0,-1.65867 1.344,-3.00267 3.00267,-3.00267 1.65866,0 3.00266,1.344 3.00266,3.00267"
       style="fill:#000000;fill-opacity:1;fill-rule:nonzero;stroke:none;stroke-width:1.33333"
       id="path163966" />
    <path
       d="m 331.08519,136.10134 c 0,0.90933 -0.73733,1.64667 -1.64666,1.64667 -0.90934,0 -1.64667,-0.73734 -1.64667,-1.64667 0,-0.90933 0.73733,-1.64667 1.64667,-1.64667 0.90933,0 1.64666,0.73734 1.64666,1.64667"
       style="fill:#ffffff;fill-opacity:1;fill-rule:nonzero;stroke:none;stroke-width:1.33333"
       id="path163970" />
    <path
       d="m 325.69546,137.70574 c 0.552,2.07867 2.26267,4.07333 4.08267,4.60533 l 6.14399,-1.03866 c 1.27734,-1.36534 1.88934,-3.32267 1.60134,-5.39334 -0.108,-0.77466 -0.484,-2.104 -0.85867,-2.768 -1.45867,0.18667 -5.352,0.412 -6.08133,0.63067 -0.68933,0.208 -1.5,0.788 -1.81333,1.01333 l -0.26667,0.19067 c -1.14267,0.812 -1.94533,0.70267 -2.808,2.76 m 4.03467,5.56533 -0.0987,-0.0267 c -2.24667,-0.60667 -4.27067,-2.93467 -4.88533,-5.464 l -0.0373,-0.148 0.0587,-0.14134 c 1.00267,-2.43466 1.98267,-2.452 3.19067,-3.31066 l 0.26533,-0.188 c 0.456,-0.328 1.232,-0.51867 2.04,-0.76267 0.71067,-0.212 1.44667,-0.43333 1.93067,-0.72267 l 0.0827,-0.0493 0.0947,-0.0133 c 1.41333,-0.196 2.924,-0.0693 4.54266,-0.272 l 0.276,-0.0333 0.14,0.22267 c 0.50934,0.82 0.988,2.42267 1.124,3.40133 0.33334,2.39334 -0.42133,4.72 -1.968,6.27734 l -0.10533,0.10666 z"
       style="fill:#000000;fill-opacity:1;fill-rule:nonzero;stroke:none;stroke-width:1.33333"
       id="path163974" />
    <path
       d="m 347.06879,130.79641 c 0,0 -2.50933,5.67333 -4.08533,7.50533 -1.576,1.83067 -3.13734,2.95333 -6.60267,3.84533 0,0 2.96933,-2.52933 2.95867,-4.77066 -0.009,-2.24 -0.16,-3.316 -3.03867,-3.51467 -3.51066,-0.24 -7.088,0.808 -8.51066,1.44533 -1.42134,0.63867 -4.424,4.39334 -4.424,4.39334 0,0 1.40933,-3.54134 2.20533,-4.112 0.79467,-0.56934 4.10667,-2.54534 6.472,-3.10667 2.128,-0.504 3.79466,-0.92267 5.45466,-0.79467 2.408,0.18534 6.32,0.668 9.57067,-0.89066"
       style="fill:#000000;fill-opacity:1;fill-rule:nonzero;stroke:none;stroke-width:1.33333"
       id="path163978" />
    <path
       d="m 297.64079,142.92107 c 0,0 -7.316,4.72667 -13.51733,4.704 0,0 9.92533,0.83334 13.51733,-4.704"
       style="fill:#000000;fill-opacity:1;fill-rule:nonzero;stroke:none;stroke-width:1.33333"
       id="path163994" />
    <path
       d="m 323.26933,136.17921 c 0,0 -1.064,2.52666 -0.70934,3.84 0.35467,1.312 0.93067,2.13733 0.75334,1.36 -0.17734,-0.77734 -0.132,-3.208 0.22133,-4.42267 0.35467,-1.21467 0.22267,-1.74933 -0.26533,-0.77733"
       style="fill:#000000;fill-opacity:1;fill-rule:nonzero;stroke:none;stroke-width:1.33333"
       id="path163998" />
    <path
       d="m 324.52093,143.42681 c 0,0 2.89466,3.076 8.86666,3.13466 0,0 -3.96933,0.58 -5.972,-0.33733 -2.004,-0.91733 -2.89466,-2.79733 -2.89466,-2.79733"
       style="fill:#000000;fill-opacity:1;fill-rule:nonzero;stroke:none;stroke-width:1.33333"
       id="path164002" />
  </g>
  <g
     inkscape:groupmode="layer"
     id="layer1"
     inkscape:label="Nose Edge"
     sodipodi:insensitive="true">
    <path
       d="m 305.79026,137.52601 c -0.12667,-1.01867 -0.11333,-2.184 -0.412,-3.16667 -0.15067,-0.49333 -0.31867,-1.328 -0.78,-1.66133 -0.796,-0.57334 -1.672,0.82266 -1.976,1.34666 -0.55067,0.95467 -0.97467,1.97867 -1.53733,2.92667 0,0 1.70933,-1.39067 2.30533,-0.596 0.59467,0.79333 3.45067,9.62667 3.45067,9.62667 -0.06,-0.48934 -0.12134,-0.97734 -0.18134,-1.46534 -0.28933,-2.33733 -0.58,-4.67333 -0.86933,-7.01066"
       style="fill:#000000;fill-opacity:1;fill-rule:nonzero;stroke:none;stroke-width:1.33333"
       id="path163990" />
  </g>
  <g
     inkscape:groupmode="layer"
     id="layer2"
     inkscape:label="Standard Brow"
     style="display:none"
     sodipodi:insensitive="true">
    <path
       id="path163916"
       style="opacity:0.199997;fill:#000000;fill-opacity:1;fill-rule:nonzero;stroke:none;stroke-width:1.33333"
       d="m 283.44531,120.41406 c -2.21416,-0.031 -4.4066,0.16563 -6.58593,0.51563 -2.53066,0.40667 -5.04226,1.01813 -7.54493,1.71679 -0.612,0.17066 -8.69753,2.55288 -8.63086,2.65821 3.40266,5.47066 10.58228,2.85764 15.59961,2.45898 4.36133,-0.34667 10.01619,0.11158 14.21485,1.40625 2.07333,0.63866 5.8181,3.88667 6.38476,4.63867 0.24934,0.332 1.54059,1.17472 1.66992,1.52539 0.16533,0.45066 0.44622,0.86004 0.57422,1.33204 0.10267,0.38 0.3092,0.75104 0.39453,1.12304 0.11412,0.50093 0.0796,0.8657 -0.0859,1.21094 h 1.73437 c 0.43346,-0.5943 0.8614,-1.19844 1.33985,-1.74609 0.81732,-0.932 2.11229,-1.7321 2.40429,-2.9961 0.45067,-1.96 -0.4369,-3.70515 0.23242,-5.64648 0.668,-1.93734 1.89212,-1.16086 2.68946,-3.01953 0.56266,-1.316 0.90082,-3.80891 1.77148,-4.90625 -1.25866,1.58667 -3.44205,4.84515 -5.49804,5.28515 -2.38133,0.508 -4.83146,-0.76533 -6.93946,-1.86132 -2.308,-1.19866 -4.48567,-2.21114 -7.01367,-2.8418 -2.26133,-0.56334 -4.49677,-0.82252 -6.71094,-0.85352 z m 40.20735,14.96995 c 2.63467,-2.41334 7.436,-4.57467 10.4,-5.44667 2.964,-0.872 10.288,-0.17467 10.288,-0.17467 l 2.80666,-7.11466 -6.29466,-0.90667 -8.49067,-0.11067 -8.24933,6.04 c 0,0 -4.01067,4.01067 -4.53333,5.23067 -0.52267,1.22133 1.172,5.14 4.07333,2.48267" />
    <path
       id="path163958"
       style="fill:#000000;fill-opacity:1;fill-rule:nonzero;stroke:none;stroke-width:1.33333"
       d="m 324.17239,134.86841 c 0,0 2.03067,-4.86934 12.02267,-5.352 0,0 -4.952,1.49066 -6.836,2.32266 -1.88533,0.83334 -5.18667,3.02934 -5.18667,3.02934 m -24.504,1.80813 c -0.36266,-0.652 -0.99333,-1.16533 -1.48533,-1.74133 -0.55733,-0.65334 -1.13333,-1.29067 -1.73467,-1.90267 -1.19733,-1.21867 -2.55733,-2.51467 -4.15466,-3.16133 -3.21334,-1.3 -12.31334,-3.244 -14.32534,-2.664 0,0 11.112,1.364 13.44534,3.57066 0.26,0.24534 0.52533,0.48667 0.792,0.72534 1.4,1.256 2.84666,2.46533 4.332,3.61733 0.74,0.57333 1.73333,0.936 2.09066,1.87333 0.12667,0.332 0.18534,0.68267 0.24267,1.032 0.0987,0.596 0.38933,1.41067 0.256,1.99734 -0.084,0.37333 -0.44,0.508 -0.68933,0.74666 -0.132,0.12667 -0.64267,0.51467 -0.61334,0.68267 0.0307,0.17067 0.38134,0.276 0.54,0.27733 0.296,0 0.88934,-0.276 1.116,-0.5 0.90267,-0.89333 0.48267,-2.17333 0.436,-3.31333 -0.0187,-0.468 0.003,-0.77733 -0.248,-1.24" />
    <path
       d="m 345.88239,121.62094 c 0.57333,0.42533 1.06,1.00667 1.01067,1.69733 -0.0307,0.424 -0.13334,0.74 -0.564,0.916 -0.60267,0.24667 -1.17067,-0.49466 -1.652,-0.73733 -0.604,-0.304 -1.308,-0.36667 -1.97334,-0.39867 -4.884,-0.23866 -9.79333,0.67067 -14.23466,2.72667 -1.528,0.708 -2.99333,1.54267 -4.472,2.35067 -0.43733,0.24 -0.9,0.48266 -1.4,0.48666 0.104,-0.3 0.316,-0.548 0.524,-0.788 1.648,-1.90666 3.31333,-3.83066 5.33333,-5.33866 1.9,-1.41734 4.22667,-2.16934 6.55467,-2.492 1.16266,-0.16267 2.42133,-0.292 3.59466,-0.18134 2.19734,0.20667 4.45067,0.284 6.47334,1.27334 0.25733,0.12533 0.54,0.288 0.80533,0.48533"
       style="fill:#383838;fill-opacity:1;fill-rule:nonzero;stroke:none;stroke-width:1.33333"
       id="path163982" />
    <path
       d="m 270.89639,119.80401 c -2.91066,1.416 -8.228,3.96266 -10.664,5.98533 1.20934,0.792 4.072,-1.21067 5.28,-1.60133 2.15067,-0.696 4.34134,-1.29734 6.56934,-1.772 4.388,-0.936 9.088,-1.496 13.63866,-0.69467 5.776,1.01867 16.26667,7.92667 18.18,6.71467 0.828,-0.524 1.66934,-1.12 2.39067,-1.812 0.68533,-0.65867 1.55467,-1.55334 1.78,-2.52267 0.036,-0.156 0.0507,-0.90667 0.18667,-0.95867 -0.26134,0.10134 -0.62267,0.14267 -0.90134,0.21067 -1.45066,0.35067 -3.09866,0.072 -4.57733,-0.212 -1.672,-0.32267 -3.31333,-0.82267 -4.932,-1.37867 -2.932,-1.00666 -5.82267,-2.2 -8.83467,-2.86133 -2.80533,-0.616 -5.668,-0.75867 -8.504,-0.732 -2.59333,0.0253 -5.228,0.028 -7.68533,0.84267 -0.66133,0.22 -1.30267,0.488 -1.92667,0.792"
       style="fill:#383838;fill-opacity:1;fill-rule:nonzero;stroke:none;stroke-width:1.33333"
       id="path163986" />
    <path
       style="color:#000000;fill:#000000;-inkscape-stroke:none"
       d="m 272.74414,118.77539 c -0.6731,0.22391 -1.32441,0.49649 -1.95703,0.80469 -3.69134,2.12999 -7.76413,3.64271 -10.97461,6.23242 0.65017,0.23245 1.12621,0.27105 1.62891,0.27144 0.49083,-0.0885 1.01502,-0.19444 1.5332,-0.42378 1.03635,-0.4587 2.07523,-1.05974 2.61523,-1.23438 2.14349,-0.69367 4.32635,-1.29297 6.54493,-1.76562 4.37227,-0.93265 9.04085,-1.48614 13.54296,-0.69336 2.81831,0.49704 6.88909,2.47019 10.47461,4.17383 1.79277,0.85181 3.46612,1.63532 4.82618,2.13476 0.68003,0.24972 1.28018,0.43058 1.78906,0.50977 0.50888,0.0792 0.93749,0.0692 1.26562,-0.13868 0.83572,-0.52888 1.69198,-1.13221 2.43164,-1.84179 0.69072,-0.66385 1.59986,-1.57207 1.84961,-2.64649 0.0508,-0.27124 0.0485,-0.46398 0.0723,-0.83007 0.0238,-0.36609 0.004,-0.42884 -0.21949,-0.3774 -0.10623,0.0406 -0.56669,0.0865 -1.40815,0.28922 -0.84147,0.20275 -2.45832,-0.0603 -3.93295,-0.34355 -1.6547,-0.31933 -3.28532,-0.817 -4.89844,-1.37109 -2.92233,-1.00334 -5.82052,-2.20149 -8.86132,-2.86914 -2.83223,-0.62191 -5.71459,-0.76309 -8.43349,-0.73702 -2.7189,0.0261 -5.38093,0.0249 -7.88877,0.85624 z m 16.21493,0.37109 c 2.9832,0.65501 5.86499,1.84354 8.80664,2.85352 1.62423,0.55791 3.27751,1.06071 4.9668,1.38672 1.48271,0.28477 3.1615,0.57692 4.6836,0.20898 0.12893,-0.0315 0.30875,-0.0801 0.4746,-0.11328 -0.0171,0.21068 -0.25302,0.78488 -0.55545,1.24411 -0.30242,0.45922 -0.65152,0.8471 -1.4226,1.4329 -0.77108,0.5858 -1.13955,0.77777 -2.0853,1.29689 -0.15585,0.0855 -0.69196,0.12597 -1.16677,0.0554 -0.45408,-0.0675 -1.03005,-0.16642 -1.69283,-0.40981 -1.32556,-0.48677 -2.68614,-0.99508 -4.60433,-1.80373 -3.65446,-1.5406 -7.64188,-3.47936 -10.59957,-4.00099 -4.5992,-0.80988 -9.33065,-0.24209 -13.73437,0.69727 -2.23742,0.47666 -4.4359,1.25646 -6.59375,1.95478 -0.668,0.21602 -1.85414,0.86003 -2.66407,1.25391 -0.80993,0.39388 -1.2399,0.41961 -1.82812,0.43551 2.53544,-1.92301 7.30727,-4.26899 10.0625,-5.60937 0.61537,-0.2998 1.24692,-0.56321 1.89648,-0.7793 2.40622,-0.79772 5.01327,-0.80478 7.72332,-0.83072 2.71004,-0.0259 5.5548,0.11712 8.33322,0.72721 z"
       id="path21991"
       sodipodi:nodetypes="ccccscccsssccczccccsccscccczzssssccczccccs" />
    <path
       style="color:#000000;fill:#000000;-inkscape-stroke:none"
       d="m 344.68746,120.67575 c -1.34322,-0.54794 -3.70131,-0.88803 -5.57094,-1.0166 -1.86963,-0.12857 -2.97274,-0.0259 -4.14191,0.13773 -2.35788,0.3268 -4.72549,1.08857 -6.66992,2.53906 -2.0489,1.52957 -3.65006,3.52817 -5.29814,5.43492 -0.31686,0.44408 -0.45287,0.67783 -0.76241,1.14516 0.79887,-0.16514 1.01295,-0.2297 2.03784,-0.71633 1.0249,-0.48664 2.77693,-1.44492 4.29224,-2.14705 4.40309,-2.03829 9.27227,-2.94182 14.11719,-2.70507 0.65814,0.0316 1.3264,0.0979 1.87304,0.37304 0.18459,0.0931 0.45173,0.33584 0.75391,0.53711 0.30218,0.20127 0.6974,0.37406 1.10547,0.20703 0.25739,-0.10519 0.44671,-0.2734 0.55664,-0.47656 0.10993,-0.20316 0.14563,-0.42479 0.16211,-0.65234 0.0584,-0.81715 -0.56937,-1.50033 -0.66602,-1.59961 -0.0966,-0.0993 -0.44587,-0.51256 -1.7891,-1.06049 z m 1.88216,2.51258 c -0.0991,0.68986 -0.62405,0.76492 -1.04883,0.54102 -0.42478,-0.2239 -0.55124,-0.30865 -1.10673,-0.54975 -0.55549,-0.2411 -1.02522,-0.29967 -3.82345,-0.43597 -2.79823,-0.1363 -7.7484,0.78051 -12.22737,2.85394 -1.54068,0.71387 -3.01024,1.55279 -4.48633,2.35937 -0.22857,0.12544 -0.44927,0.15542 -0.67383,0.24024 1.7664,-1.9622 3.58904,-4.08597 5.4004,-5.46094 1.85556,-1.38419 4.14134,-2.1268 6.43945,-2.44531 1.15614,-0.16176 1.77002,-0.21221 3.53711,-0.17969 1.76709,0.0325 3.70547,0.33507 5.09127,0.7354 1.3858,0.40033 1.78323,0.72918 2.19878,1.03806 0.41555,0.30889 0.79864,0.61377 0.69953,1.30363 z"
       id="path16794"
       sodipodi:nodetypes="zzcccczcccscsczzzzzcccccczzzz" />
    <path
       id="path16925"
       style="fill:#000000;fill-opacity:0.2;stroke:none;stroke-width:1px;stroke-linecap:butt;stroke-linejoin:miter;stroke-opacity:1"
       d="m 344.48242,120.875 c -1.86933,0.0131 -4.62501,0.10277 -6.55859,0.48047 -3.17578,0.62034 -7.44674,1.98757 -10.21289,3.51758 -1.67004,0.92372 -3.62851,2.59318 -4.92774,3.77734 0.4295,-0.0524 0.83023,-0.26461 1.21289,-0.47461 1.47867,-0.808 2.94466,-1.64356 4.47266,-2.35156 4.44133,-2.056 9.35038,-2.96522 14.23437,-2.72656 0.66534,0.032 1.37061,0.0944 1.97461,0.39843 0.48133,0.24267 1.04773,0.98495 1.65039,0.73829 0.43066,-0.176 0.53376,-0.49202 0.56446,-0.91602 0.0493,-0.69066 -0.43644,-1.27194 -1.00977,-1.69727 -0.26533,-0.19733 -0.54931,-0.36099 -0.80664,-0.48632 -0.196,-0.0959 -0.39368,-0.18008 -0.59375,-0.25977 z" />
    <path
       id="path16962"
       style="fill:#000000;fill-opacity:0.2;stroke:none;stroke-width:1px;stroke-linecap:butt;stroke-linejoin:miter;stroke-opacity:1"
       d="m 281.21875,120.02539 c -4.03741,-0.0488 -7.85967,0.57758 -11.55859,1.56055 -2.34904,0.62424 -5.70111,2.11745 -8.24414,3.33008 -0.43756,0.29803 -0.84381,0.59091 -1.1836,0.87304 1.20934,0.792 4.0713,-1.2109 5.2793,-1.60156 2.15067,-0.696 4.34231,-1.29682 6.57031,-1.77148 4.388,-0.936 9.08802,-1.49665 13.63867,-0.69532 5.776,1.01867 16.26636,7.92685 18.17969,6.71485 0.828,-0.524 1.6693,-1.1205 2.39063,-1.8125 0.6835,-0.65692 1.54919,-1.54733 1.77734,-2.51367 -1.29174,0.73926 -2.77925,1.60322 -3.73828,1.64062 -2.21223,0.0863 -6.98633,-2.24609 -6.98633,-2.24609 0,0 -9.6946,-3.13206 -14.38086,-3.41602 -0.58578,-0.0355 -1.16737,-0.0555 -1.74414,-0.0625 z" />
  </g>
  <g
     inkscape:groupmode="layer"
     id="g5788"
     inkscape:label="Bolian Brow"
     style="display:inline">
    <path
       id="path5772"
       style="opacity:0.199997;fill:#000000;fill-opacity:1;fill-rule:nonzero;stroke:none;stroke-width:1.33333"
       d="m 283.44531,120.41406 c -2.21416,-0.031 -4.4066,0.16563 -6.58593,0.51563 -2.53066,0.40667 -5.04226,1.01813 -7.54493,1.71679 -0.612,0.17066 -8.69753,2.55288 -8.63086,2.65821 3.40266,5.47066 10.58228,2.85764 15.59961,2.45898 4.36133,-0.34667 10.01619,0.11158 14.21485,1.40625 2.07333,0.63866 5.8181,3.88667 6.38476,4.63867 0.24934,0.332 1.54059,1.17472 1.66992,1.52539 0.16533,0.45066 0.44622,0.86004 0.57422,1.33204 0.10267,0.38 0.3092,0.75104 0.39453,1.12304 0.11412,0.50093 0.0796,0.8657 -0.0859,1.21094 h 1.73437 c 0.43346,-0.5943 0.8614,-1.19844 1.33985,-1.74609 0.81732,-0.932 2.11229,-1.7321 2.40429,-2.9961 0.45067,-1.96 -0.4369,-3.70515 0.23242,-5.64648 0.668,-1.93734 1.89212,-1.16086 2.68946,-3.01953 0.56266,-1.316 0.90082,-3.80891 1.77148,-4.90625 -1.25866,1.58667 -3.44205,4.84515 -5.49804,5.28515 -2.38133,0.508 -4.83146,-0.76533 -6.93946,-1.86132 -2.308,-1.19866 -4.48567,-2.21114 -7.01367,-2.8418 -2.26133,-0.56334 -4.49677,-0.82252 -6.71094,-0.85352 z m 40.20735,14.96995 c 2.63467,-2.41334 7.436,-4.57467 10.4,-5.44667 2.964,-0.872 10.288,-0.17467 10.288,-0.17467 l 2.80666,-7.11466 -6.29466,-0.90667 -8.49067,-0.11067 -8.24933,6.04 c 0,0 -4.01067,4.01067 -4.53333,5.23067 -0.52267,1.22133 1.172,5.14 4.07333,2.48267" />
    <path
       id="path5774"
       style="fill:#000000;fill-opacity:1;fill-rule:nonzero;stroke:none;stroke-width:1.33333"
       d="m 324.17239,134.86841 c 0,0 2.03067,-4.86934 12.02267,-5.352 0,0 -4.952,1.49066 -6.836,2.32266 -1.88533,0.83334 -5.18667,3.02934 -5.18667,3.02934 m -24.504,1.80813 c -0.36266,-0.652 -0.99333,-1.16533 -1.48533,-1.74133 -0.55733,-0.65334 -1.13333,-1.29067 -1.73467,-1.90267 -1.19733,-1.21867 -2.55733,-2.51467 -4.15466,-3.16133 -3.21334,-1.3 -12.31334,-3.244 -14.32534,-2.664 0,0 11.112,1.364 13.44534,3.57066 0.26,0.24534 0.52533,0.48667 0.792,0.72534 1.4,1.256 2.84666,2.46533 4.332,3.61733 0.74,0.57333 1.73333,0.936 2.09066,1.87333 0.12667,0.332 0.18534,0.68267 0.24267,1.032 0.0987,0.596 0.38933,1.41067 0.256,1.99734 -0.084,0.37333 -0.44,0.508 -0.68933,0.74666 -0.132,0.12667 -0.64267,0.51467 -0.61334,0.68267 0.0307,0.17067 0.38134,0.276 0.54,0.27733 0.296,0 0.88934,-0.276 1.116,-0.5 0.90267,-0.89333 0.48267,-2.17333 0.436,-3.31333 -0.0187,-0.468 0.003,-0.77733 -0.248,-1.24" />
    <path
       id="path5778"
       style="fill:#cd976d;fill-opacity:1;fill-rule:nonzero;stroke:none;stroke-width:1.33333"
       d="m 260.23239,125.78934 c 1.20934,0.792 4.072,-1.21067 5.28,-1.60133 2.15067,-0.696 4.34134,-1.29734 6.56934,-1.772 4.388,-0.936 9.088,-1.496 13.63866,-0.69467 5.776,1.01867 16.26667,7.92667 18.18,6.71467 0.828,-0.524 1.66934,-1.12 2.39067,-1.812 0.68533,-0.65867 1.55467,-1.55334 1.78,-2.52267 0.036,-0.156 0.0507,-0.90667 0.18667,-0.95867 -0.26134,0.10134 -0.62267,0.14267 -0.90134,0.21067 -1.45066,0.35067 -2.97319,-0.47805 -4.45186,-0.76205 -1.672,-0.32267 -3.25059,-0.71938 -4.86926,-1.27538 -2.932,-1.00666 -5.82267,-2.38059 -8.83467,-3.04192 -2.80533,-0.616 -5.60527,-0.69594 -8.44127,-0.66927 -2.59333,0.0253 -4.97706,-0.1602 -7.43439,0.65447 -0.66133,0.22 -1.99276,0.73894 -2.61676,1.04294 -2.91066,1.416 -8.03979,4.46454 -10.47579,6.48721 z m 86.66067,-2.47107 c -0.0307,0.424 -0.13334,0.74 -0.564,0.916 -0.60267,0.24667 -1.17067,-0.49466 -1.652,-0.73733 -0.604,-0.304 -1.308,-0.36667 -1.97334,-0.39867 -4.884,-0.23866 -9.79333,0.67067 -14.23466,2.72667 -1.528,0.708 -2.99333,1.54267 -4.472,2.35067 -0.43733,0.24 -0.9,0.48266 -1.4,0.48666 0.104,-0.3 0.316,-0.548 0.524,-0.788 1.648,-1.90666 3.22461,-4.14118 5.24461,-5.64918 1.9,-1.41734 4.38193,-2.23588 6.70993,-2.55854 1.16266,-0.16267 2.51005,-0.31418 3.68338,-0.20352 2.19734,0.20667 4.33058,0.0331 6.35325,1.0224 0.25733,0.12533 0.74881,0.73856 1.01414,0.93589 0.57333,0.42533 0.81602,1.20629 0.76669,1.89695 z"
       sodipodi:nodetypes="cccccccccccscccccccccccccccccc" />
    <path
       style="color:#000000;fill:#000000;-inkscape-stroke:none"
       d="m 272.55593,118.0853 c -1.59047,0.52763 -2.27305,0.8246 -4.46644,1.93392 -2.19339,1.10933 -5.06651,3.20357 -8.27699,5.79328 0.65017,0.23245 1.12621,0.27105 1.62891,0.27144 0.49083,-0.0885 1.01502,-0.19444 1.5332,-0.42378 1.03635,-0.4587 2.07523,-1.05974 2.61523,-1.23438 2.14349,-0.69367 4.32635,-1.29297 6.54493,-1.76562 4.37227,-0.93265 9.04085,-1.48614 13.54296,-0.69336 2.81831,0.49704 6.88909,2.47019 10.47461,4.17383 1.79277,0.85181 3.46612,1.63532 4.82618,2.13476 0.68003,0.24972 1.28018,0.43058 1.78906,0.50977 0.50888,0.0792 0.93749,0.0692 1.26562,-0.13868 0.83572,-0.52888 1.69198,-1.13221 2.43164,-1.84179 0.69072,-0.66385 1.59986,-1.57207 1.84961,-2.64649 0.0508,-0.27124 0.0485,-0.46398 0.0723,-0.83007 0.0238,-0.36609 0.004,-0.42884 -0.21949,-0.3774 -0.10623,0.0406 -0.56669,0.0865 -1.40815,0.28922 -0.84147,0.20275 -2.58869,-0.61011 -4.14334,-0.9671 -1.55465,-0.35699 -3.26314,-0.88354 -4.87626,-1.43763 -2.92233,-1.00334 -5.82052,-2.20149 -8.86132,-2.86914 -2.83223,-0.62191 -5.71459,-0.76309 -8.43349,-0.73702 -2.7189,0.0261 -6.2983,0.32861 -7.88877,0.85624 z m 16.21493,0.37109 c 2.9832,0.65501 5.86499,1.84354 8.80664,2.85352 1.62423,0.55791 3.3808,1.05915 4.94462,1.45326 1.56382,0.39411 3.37189,1.20047 4.89399,0.83253 0.12893,-0.0315 0.30875,-0.0801 0.4746,-0.11328 -0.0171,0.21068 -0.25302,0.78488 -0.55545,1.24411 -0.30242,0.45922 -0.65152,0.8471 -1.4226,1.4329 -0.77108,0.5858 -1.13955,0.77777 -2.0853,1.29689 -0.15585,0.0855 -0.69196,0.12597 -1.16677,0.0554 -0.45408,-0.0675 -1.03005,-0.16642 -1.69283,-0.40981 -1.32556,-0.48677 -2.68614,-0.99508 -4.60433,-1.80373 -3.65446,-1.5406 -7.64188,-3.47936 -10.59957,-4.00099 -4.5992,-0.80988 -9.33065,-0.24209 -13.73437,0.69727 -2.23742,0.47666 -4.4359,1.25646 -6.59375,1.95478 -0.668,0.21602 -1.85414,0.86003 -2.66407,1.25391 -0.80993,0.39388 -1.2399,0.41961 -1.82812,0.43551 2.53544,-1.92301 5.77368,-4.13056 7.45898,-4.95065 1.6853,-0.82009 2.7839,-1.6212 4.31179,-2.12811 1.52789,-0.50691 5.01327,-0.80478 7.72332,-0.83072 2.71004,-0.0259 5.5548,0.11712 8.33322,0.72721 z"
       id="path5780"
       sodipodi:nodetypes="zzccscccsssccczcczcsczsczcczzssssccczczzcs" />
    <path
       style="color:#000000;fill:#000000;-inkscape-stroke:none"
       d="m 344.32023,119.86492 c -1.31186,-0.45383 -3.29352,-0.63709 -5.22589,-0.67156 -1.93237,-0.0345 -2.97274,-0.0259 -4.14191,0.13773 -2.35788,0.3268 -4.72549,1.08857 -6.66992,2.53906 -2.0489,1.52957 -3.62788,3.99396 -5.27596,5.90071 -0.31686,0.44408 -0.45287,0.67783 -0.76241,1.14516 0.79887,-0.16514 1.01295,-0.2297 2.03784,-0.71633 1.0249,-0.48664 2.77693,-1.44492 4.29224,-2.14705 4.40309,-2.03829 9.27227,-2.94182 14.11719,-2.70507 0.65814,0.0316 1.3264,0.0979 1.87304,0.37304 0.18459,0.0931 0.45173,0.33584 0.75391,0.53711 0.30218,0.20127 0.6974,0.37406 1.10547,0.20703 0.25739,-0.10519 0.44671,-0.2734 0.55664,-0.47656 0.10993,-0.20316 0.14563,-0.42479 0.16211,-0.65234 0.0584,-0.81715 -0.59155,-1.96612 -0.6882,-2.0654 -0.0966,-0.0993 -0.82228,-0.9517 -2.13415,-1.40553 z m 2.24939,3.32341 c -0.0991,0.68986 -0.62405,0.76492 -1.04883,0.54102 -0.42478,-0.2239 -0.55124,-0.30865 -1.10673,-0.54975 -0.55549,-0.2411 -1.02522,-0.29967 -3.82345,-0.43597 -2.79823,-0.1363 -7.7484,0.78051 -12.22737,2.85394 -1.54068,0.71387 -3.01024,1.55279 -4.48633,2.35937 -0.22857,0.12544 -0.44927,0.15542 -0.67383,0.24024 1.7664,-1.9622 3.56686,-4.55176 5.37822,-5.92673 1.85556,-1.38419 4.14134,-2.1268 6.43945,-2.44531 1.15614,-0.16176 1.77002,-0.21221 3.53711,-0.17969 1.76709,0.0325 3.36043,0.0841 5.02853,0.48446 1.66811,0.40033 1.84597,0.98012 2.26152,1.289 0.41555,0.30889 0.82082,1.07956 0.72171,1.76942 z"
       id="path5782"
       sodipodi:nodetypes="zzcccczcccscsczzzzzcccccczzzz" />
    <path
       id="path5784"
       style="fill:#000000;fill-opacity:0.2;stroke:none;stroke-width:1px;stroke-linecap:butt;stroke-linejoin:miter;stroke-opacity:1"
       d="m 344.48242,120.875 c -1.86933,0.0131 -4.62501,0.10277 -6.55859,0.48047 -3.17578,0.62034 -7.44674,1.98757 -10.21289,3.51758 -1.67004,0.92372 -3.62851,2.59318 -4.92774,3.77734 0.4295,-0.0524 0.83023,-0.26461 1.21289,-0.47461 1.47867,-0.808 2.94466,-1.64356 4.47266,-2.35156 4.44133,-2.056 9.35038,-2.96522 14.23437,-2.72656 0.66534,0.032 1.37061,0.0944 1.97461,0.39843 0.48133,0.24267 1.04773,0.98495 1.65039,0.73829 0.43066,-0.176 0.53376,-0.49202 0.56446,-0.91602 0.0493,-0.69066 -0.43644,-1.27194 -1.00977,-1.69727 -0.26533,-0.19733 -0.54931,-0.36099 -0.80664,-0.48632 -0.196,-0.0959 -0.39368,-0.18008 -0.59375,-0.25977 z" />
    <path
       id="path5786"
       style="fill:#000000;fill-opacity:0.2;stroke:none;stroke-width:1px;stroke-linecap:butt;stroke-linejoin:miter;stroke-opacity:1"
       d="m 281.21875,120.02539 c -4.03741,-0.0488 -7.85967,0.57758 -11.55859,1.56055 -2.34904,0.62424 -5.70111,2.11745 -8.24414,3.33008 -0.43756,0.29803 -0.84381,0.59091 -1.1836,0.87304 1.20934,0.792 4.0713,-1.2109 5.2793,-1.60156 2.15067,-0.696 4.34231,-1.29682 6.57031,-1.77148 4.388,-0.936 9.08802,-1.49665 13.63867,-0.69532 5.776,1.01867 16.26636,7.92685 18.17969,6.71485 0.828,-0.524 1.6693,-1.1205 2.39063,-1.8125 0.6835,-0.65692 1.54919,-1.54733 1.77734,-2.51367 -1.29174,0.73926 -2.77925,1.60322 -3.73828,1.64062 -2.21223,0.0863 -6.98633,-2.24609 -6.98633,-2.24609 0,0 -9.6946,-3.13206 -14.38086,-3.41602 -0.58578,-0.0355 -1.16737,-0.0555 -1.74414,-0.0625 z" />
  </g>
  <g
     inkscape:groupmode="layer"
     id="g8890"
     inkscape:label="Vulcan Brow"
     style="display:none"
     sodipodi:insensitive="true">
    <path
       id="path8874"
       style="opacity:0.199997;fill:#000000;fill-opacity:1;fill-rule:nonzero;stroke:none;stroke-width:1.33333"
       d="m 276.77066,119.33271 c -3.88995,-0.4617 -10.48023,-1.95942 -16.23853,-2.03444 3.40266,5.47066 10.73374,10.86406 15.75107,10.4654 4.36133,-0.34667 10.01619,0.11158 14.21485,1.40625 2.07333,0.63866 5.8181,3.88667 6.38476,4.63867 0.24934,0.332 1.54059,1.17472 1.66992,1.52539 0.16533,0.45066 0.44622,0.86004 0.57422,1.33204 0.10267,0.38 0.3092,0.75104 0.39453,1.12304 0.11412,0.50093 0.0796,0.8657 -0.0859,1.21094 h 1.73437 c 0.43346,-0.5943 0.8614,-1.19844 1.33985,-1.74609 0.81732,-0.932 2.11229,-1.7321 2.40429,-2.9961 0.45067,-1.96 -0.4369,-3.70515 0.23242,-5.64648 0.668,-1.93734 1.89212,-1.16086 2.68946,-3.01953 0.56266,-1.316 0.90082,-3.80891 1.77148,-4.90625 -1.25866,1.58667 -3.44205,4.84515 -5.49804,5.28515 -2.38133,0.508 -4.83146,-0.76533 -6.93946,-1.86132 -2.308,-1.19866 -4.48567,-2.21114 -7.01367,-2.8418 -4.84357,-0.60811 -10.12904,-1.53257 -13.38562,-1.93487 z m 46.882,16.0513 c 2.63467,-2.41334 7.436,-4.57467 10.4,-5.44667 2.964,-0.872 10.288,-0.17467 10.288,-0.17467 0,0 3.1319,-5.15834 2.80666,-7.11466 -0.32524,-1.95632 -0.96216,-2.75736 -0.96216,-2.75736 l -13.82317,1.74002 -8.24933,6.04 c 0,0 -4.01067,4.01067 -4.53333,5.23067 -0.52267,1.22133 1.172,5.14 4.07333,2.48267"
       sodipodi:nodetypes="ccccccccccccscccccccsczccccc" />
    <path
       id="path8876"
       style="fill:#000000;fill-opacity:1;fill-rule:nonzero;stroke:none;stroke-width:1.33333"
       d="m 324.17239,134.86841 c 0,0 2.03067,-4.86934 12.02267,-5.352 0,0 -4.952,1.49066 -6.836,2.32266 -1.88533,0.83334 -5.18667,3.02934 -5.18667,3.02934 m -24.504,1.80813 c -0.36266,-0.652 -0.99333,-1.16533 -1.48533,-1.74133 -0.55733,-0.65334 -1.13333,-1.29067 -1.73467,-1.90267 -1.19733,-1.21867 -2.55733,-2.51467 -4.15466,-3.16133 -3.21334,-1.3 -12.31334,-3.244 -14.32534,-2.664 0,0 11.112,1.364 13.44534,3.57066 0.26,0.24534 0.52533,0.48667 0.792,0.72534 1.4,1.256 2.84666,2.46533 4.332,3.61733 0.74,0.57333 1.73333,0.936 2.09066,1.87333 0.12667,0.332 0.18534,0.68267 0.24267,1.032 0.0987,0.596 0.38933,1.41067 0.256,1.99734 -0.084,0.37333 -0.44,0.508 -0.68933,0.74666 -0.132,0.12667 -0.64267,0.51467 -0.61334,0.68267 0.0307,0.17067 0.38134,0.276 0.54,0.27733 0.296,0 0.88934,-0.276 1.116,-0.5 0.90267,-0.89333 0.48267,-2.17333 0.436,-3.31333 -0.0187,-0.468 0.003,-0.77733 -0.248,-1.24" />
    <path
       id="path8880"
       style="fill:#383838;fill-opacity:1;fill-rule:nonzero;stroke:none;stroke-width:1.33333"
       d="m 259.61134,117.00596 c 3.90852,1.36235 8.53431,2.19111 12.82527,2.74841 4.29097,0.55731 8.73312,1.16564 13.28378,1.96697 5.776,1.01867 16.26667,7.92667 18.18,6.71467 0.828,-0.524 1.66934,-1.12 2.39067,-1.812 0.68533,-0.65867 1.55467,-1.55334 1.78,-2.52267 0.036,-0.156 0.0507,-0.90667 0.18667,-0.95867 -0.26134,0.10134 -0.62267,0.14267 -0.90134,0.21067 -1.45066,0.35067 -3.09866,0.072 -4.57733,-0.212 -1.672,-0.32267 -3.31333,-0.82267 -4.932,-1.37867 -2.932,-1.00666 -5.82267,-2.2 -8.83467,-2.86133 -2.80533,-0.616 -4.13598,-0.74972 -9.30249,-1.17561 -5.16651,-0.42589 -13.59133,-0.54198 -20.09856,-0.71977 z m 88.3704,0.28212 c -0.20814,0.49054 -0.70996,1.75598 -1.55858,2.83703 -0.84862,1.08105 -1.48348,1.99974 -4.15859,2.72222 -2.6751,0.72248 -9.35418,0.92161 -13.79551,2.97761 -1.528,0.708 -2.99333,1.54267 -4.472,2.35067 -0.43733,0.24 -0.9,0.48266 -1.4,0.48666 0.104,-0.3 0.316,-0.548 0.524,-0.788 1.648,-1.90666 3.31333,-3.83066 5.33333,-5.33866 1.9,-1.41734 4.79341,-2.20224 6.55467,-2.492 1.76126,-0.28976 2.56804,-0.40275 4.50432,-0.62049 1.93628,-0.21774 3.1881,-0.43645 5.29056,-1.10298 2.10247,-0.66653 2.39472,-0.78721 3.1778,-1.03206 z"
       sodipodi:nodetypes="csccccccccsscczzccccczzzc" />
    <path
       style="color:#000000;fill:#000000;-inkscape-stroke:none"
       d="m 272.40434,120.00195 c 4.28977,0.55716 8.72886,1.16459 13.27343,1.96485 2.81831,0.49704 6.88909,2.47019 10.47461,4.17383 1.79277,0.85181 3.46612,1.63532 4.82618,2.13476 0.68003,0.24972 1.28018,0.43058 1.78906,0.50977 0.50888,0.0792 0.93749,0.0692 1.26562,-0.13868 0.83572,-0.52888 1.69198,-1.13221 2.43164,-1.84179 0.69072,-0.66385 1.59986,-1.57207 1.84961,-2.64649 0.0812,-0.43571 0.0607,-0.89505 0.061,-1.29373 -0.10622,0.0406 -0.77489,0.17272 -1.61635,0.37548 -0.84147,0.20275 -2.45832,-0.0603 -3.93295,-0.34355 -1.6547,-0.31933 -3.28532,-0.817 -4.89844,-1.37109 -2.92233,-1.00334 -5.82052,-2.20149 -8.86132,-2.86914 -2.8141,-0.61793 -4.16867,-0.75373 -9.33594,-1.17969 -5.18498,-0.42741 -19.84918,-0.57436 -20.17415,-0.58086 -0.10541,0.21307 8.54841,2.54791 12.848,3.10633 z m 76.01949,-3.11328 -0.51758,0.16016 c -0.7885,0.24654 -1.07719,0.36728 -3.17773,1.0332 -2.09023,0.66265 -3.3125,0.8748 -5.24219,1.0918 -1.93816,0.21795 -2.75453,0.33299 -4.51758,0.62305 -1.78934,0.29437 -4.70202,1.07543 -6.66406,2.53906 -2.0489,1.52957 -4.74105,4.59885 -5.12907,5.19756 -0.38801,0.59871 -0.72681,1.09263 -0.97584,1.49342 0.71618,-0.27312 1.34795,-0.56872 2.42756,-1.07609 1.07961,-0.50736 2.43157,-1.19606 3.94688,-1.89819 2.1801,-1.00922 4.94314,-1.57294 7.49414,-1.96875 2.551,-0.3958 4.87919,-0.6227 6.26172,-0.99609 2.71699,-0.73379 3.44553,-1.73402 4.28906,-2.80859 0.87757,-1.11793 1.38761,-2.4133 1.5918,-2.89453 z m -68.73438,1.08594 c 5.16574,0.42583 6.47298,0.5578 9.26953,1.17187 2.9832,0.65501 5.86499,1.84354 8.80664,2.85352 1.62423,0.55791 3.27751,1.06071 4.9668,1.38672 1.48271,0.28477 2.90272,0.52203 4.42482,0.15409 0.12893,-0.0315 0.30875,-0.0801 0.4746,-0.11328 -0.0285,0.18891 0.0158,0.33052 -0.0702,0.71936 -0.0861,0.38885 -1.01918,1.37351 -1.73446,2.02204 -0.71529,0.64852 -1.42739,1.0896 -2.24767,1.60872 -0.1502,0.0951 -0.66431,0.0978 -1.11793,0.0272 -0.45361,-0.0706 -0.77374,-0.1861 -1.43652,-0.42949 -1.32556,-0.48677 -2.65689,-0.87407 -4.5499,-1.70156 -3.6339,-1.58849 -7.75366,-3.67753 -10.71135,-4.19916 -4.55674,-0.8024 -9.00277,-1.41129 -13.29492,-1.96875 -3.55682,-0.46195 -8.63859,-1.94294 -9.00816,-2.1077 0,0 11.6449,0.19861 16.22872,0.57642 z m 67.15044,-0.0765 c -0.25976,0.60449 -0.50433,1.20515 -1.12348,2.16128 -0.75149,1.16051 -1.21667,1.65744 -3.84989,2.36861 -1.29257,0.34909 -3.37518,0.49727 -5.94283,0.89565 -2.56764,0.39839 -5.48199,1.29383 -7.56041,2.27398 -2.07842,0.98015 -3.01024,1.55279 -4.48633,2.35937 -0.22857,0.12544 -0.44927,0.15542 -0.67383,0.24024 0.0438,-0.0531 0.0606,-0.10608 0.10743,-0.16016 1.64792,-1.90657 3.30187,-3.81436 5.29297,-5.30078 1.83795,-1.37106 4.71213,-2.16017 6.44531,-2.44531 1.75946,-0.28947 2.55779,-0.40162 4.49219,-0.61914 1.94286,-0.21849 3.2232,-0.44288 5.33789,-1.11329 1.70989,-0.54207 1.41074,-0.48089 1.96098,-0.66045 z"
       id="path8930"
       sodipodi:nodetypes="scssscccccccsscsccsssczczcsssccsscccczzsssscscscssszccccsssc" />
    <path
       id="path8969"
       style="fill:#000000;fill-opacity:0.2;stroke:none;stroke-width:1px;stroke-linecap:butt;stroke-linejoin:miter;stroke-opacity:1"
       d="m 259.61133,117.00586 c 3.90851,1.36235 8.53521,2.19075 12.82617,2.74805 4.29097,0.55731 8.73255,1.16546 13.2832,1.96679 5.776,1.01867 16.26636,7.92685 18.17969,6.71485 0.828,-0.524 1.6693,-1.1205 2.39063,-1.8125 0.68532,-0.65867 1.55396,-1.55216 1.77929,-2.52149 0.036,-0.156 0.0515,-0.90698 0.1875,-0.95898 -0.26134,0.10134 -0.62367,0.14294 -0.90234,0.21094 -0.5443,0.13157 -1.11872,0.15524 -1.69922,0.14257 -0.42235,0.84765 -0.86176,1.57955 -1.25391,1.86719 -1.2533,0.91931 -0.81888,0.55146 -2.39648,0.35352 -1.5776,-0.19794 -3.83448,-1.76284 -6.56445,-2.75 -2.72998,-0.98716 -5.46807,-2.15319 -9.84766,-3.01563 -4.37959,-0.86244 -11.81639,-0.9323 -16.41406,-1.50781 -3.40818,-0.42662 -7.08034,-1.05829 -9.17969,-1.42774 -0.1211,-0.003 -0.26884,-0.006 -0.38867,-0.01 z m 88.37109,0.28125 c -0.68537,0.2143 -1.30511,0.43102 -2.78125,0.9043 -0.81554,0.93401 -1.66949,1.7909 -2.38281,2.20312 -2.06244,1.19189 -3.60987,0.57559 -6.12109,1.24219 -2.51123,0.6666 -6.25555,1.50883 -8.87305,2.92773 -1.63431,0.88593 -3.72784,2.67099 -5.14063,3.93946 -0.0269,0.0538 -0.0661,0.10097 -0.0859,0.1582 0.5,-0.004 0.9611,-0.24633 1.39843,-0.48633 1.47867,-0.808 2.94466,-1.64356 4.47266,-2.35156 4.44133,-2.056 11.11982,-2.25408 13.79492,-2.97656 2.67511,-0.72248 3.31154,-1.64161 4.16016,-2.72266 0.84862,-1.08105 1.35045,-2.34735 1.55859,-2.83789 z" />
  </g>
</svg>
