<?xml version="1.0" encoding="UTF-8" standalone="no"?>
<!-- Created with Inkscape (http://www.inkscape.org/) -->

<svg
   version="1.1"
   id="svg194562"
   width="400"
   height="400"
   viewBox="0 0 400 400"
   sodipodi:docname="Eyes4.svg"
   inkscape:version="1.2.2 (b0a8486, 2022-12-01)"
   xmlns:inkscape="http://www.inkscape.org/namespaces/inkscape"
   xmlns:sodipodi="http://sodipodi.sourceforge.net/DTD/sodipodi-0.dtd"
   xmlns="http://www.w3.org/2000/svg"
   xmlns:svg="http://www.w3.org/2000/svg">
  <defs
     id="defs194566" />
  <sodipodi:namedview
     id="namedview194564"
     pagecolor="#ffffff"
     bordercolor="#666666"
     borderopacity="1.0"
     inkscape:showpageshadow="2"
     inkscape:pageopacity="0.0"
     inkscape:pagecheckerboard="0"
     inkscape:deskcolor="#d1d1d1"
     showgrid="false"
     inkscape:zoom="2.0975"
     inkscape:cx="206.19785"
     inkscape:cy="187.60429"
     inkscape:window-width="1648"
     inkscape:window-height="1163"
     inkscape:window-x="2571"
     inkscape:window-y="65"
     inkscape:window-maximized="0"
     inkscape:current-layer="layer1">
    <inkscape:page
       x="0"
       y="0"
       id="page194568"
       width="400"
       height="400"
       margin="0"
       bleed="0" />
  </sodipodi:namedview>
  <g
     id="g194570"
     inkscape:groupmode="layer"
     inkscape:label="Eyes Main">
    <path
       d="m 323.20653,141.02521 c 0.48933,0.392 0.76266,0.932 1.26666,1.25333 0.60667,0.38667 1.16934,0.82133 1.81334,1.15333 1.41466,0.73067 2.99866,1.09867 4.592,0.95867 5.56533,-0.49067 6.38399,-0.164 8.02133,-1.47333 0,0 -0.0867,4.20933 -1.92667,4.96933 -1.83867,0.76 -7.568,0.43333 -9.86,-1.368 -0.88666,-0.696 -1.612,-1.60667 -2.29066,-2.49867 -0.71334,-0.936 -1.43734,-1.796 -1.616,-2.99466"
       style="opacity:0.199997;fill:#000000;fill-opacity:1;fill-rule:nonzero;stroke:none;stroke-width:1.33333"
       id="path198388" />
    <path
       d="m 336.57466,142.37027 c 0.58266,-0.172 1,-0.70266 1,-0.70266 l 2.37866,-2.60134 -0.296,-4.59866 -6.84799,-0.87334 c 0,0 -6.248,1.47334 -7.53067,2.728 -1.28267,1.256 -1.90933,4.01067 -1.93733,4.09334 0,0 0.13733,0.84533 0.65466,0.95466 0.51867,0.10934 3.356,1.91067 4.36667,1.856 0.724,-0.04 5.63733,-0.0267 6.46666,-0.21733 0.83067,-0.192 1.74534,-0.63867 1.74534,-0.63867"
       style="fill:#ffffff;fill-opacity:1;fill-rule:nonzero;stroke:none;stroke-width:1.33333"
       id="path198442" />
    <path
       d="m 271.55893,136.25787 4.4,-2.052 14.12,0.25067 5.17733,2.78533 2.756,2.964 -1.11733,1.39867 -3.27867,0.028 c 0,0 -2.12667,1.604 -4.396,1.428 -2.268,-0.17733 -13.05067,-1.91333 -13.05067,-1.91333 l -4.86533,-4.38267 z"
       style="fill:#ffffff;fill-opacity:1;fill-rule:nonzero;stroke:none;stroke-width:1.33333"
       id="path198446" />
    <path
       d="m 280.03306,134.13601 c -0.336,0.76133 -0.52667,1.60133 -0.52667,2.48666 0,2.06267 1.04134,4.08534 2.60134,5.208 l 5.83866,0.54667 c 2.31334,-0.896 3.956,-3.132 3.956,-5.75467 0,-0.77333 -0.148,-1.50933 -0.408,-2.192 -2.864,-0.88666 -8.16933,-0.59733 -11.46133,-0.29466"
       style="fill:#754324;fill-opacity:1;fill-rule:nonzero;stroke:none;stroke-width:1.33333"
       id="path198450" />
    <path
       d="m 288.34186,136.62241 c 0,1.452 -1.18133,2.628 -2.63733,2.628 -1.456,0 -2.63734,-1.176 -2.63734,-2.628 0,-1.452 1.18134,-2.628 2.63734,-2.628 1.456,0 2.63733,1.176 2.63733,2.628"
       style="fill:#000000;fill-opacity:1;fill-rule:nonzero;stroke:none;stroke-width:1.33333"
       id="path198454" />
    <path
       d="m 282.26573,141.41801 5.61733,0.52533 c 2.18533,-0.888 3.592,-2.96533 3.592,-5.32133 0,-0.62267 -0.104,-1.24267 -0.30933,-1.844 -2.81467,-0.78534 -7.868,-0.504 -10.83734,-0.24134 -0.26266,0.668 -0.39466,1.368 -0.39466,2.08534 0,1.856 0.912,3.72533 2.332,4.796 m 5.74,1.392 -6.05334,-0.56667 -0.0947,-0.068 c -1.688,-1.21333 -2.77867,-3.39333 -2.77867,-5.55333 0,-0.91867 0.18933,-1.81334 0.56267,-2.65734 l 0.10266,-0.22933 0.24934,-0.0227 c 3.73866,-0.34266 8.788,-0.56666 11.62666,0.312 l 0.19867,0.0613 0.0747,0.19333 c 0.28933,0.75867 0.436,1.548 0.436,2.34267 0,2.74266 -1.66,5.15733 -4.22934,6.152 z"
       style="fill:#000000;fill-opacity:1;fill-rule:nonzero;stroke:none;stroke-width:1.33333"
       id="path198458" />
    <path
       d="m 284.85266,135.94441 c 0,0.796 -0.648,1.44133 -1.44667,1.44133 -0.79866,0 -1.44666,-0.64533 -1.44666,-1.44133 0,-0.796 0.648,-1.44134 1.44666,-1.44134 0.79867,0 1.44667,0.64534 1.44667,1.44134"
       style="fill:#ffffff;fill-opacity:1;fill-rule:nonzero;stroke:none;stroke-width:1.33333"
       id="path198462" />
    <path
       d="m 298.08799,140.49361 c 0.0387,-0.18534 0.008,-0.388 -0.11866,-0.608 -0.184,-0.32 -0.47067,-0.55867 -0.64934,-0.884 -0.17066,-0.30934 -0.41733,-0.59734 -0.63066,-0.87867 -0.51334,-0.67467 -1.07067,-1.31733 -1.68,-1.908 -1.312,-1.26933 -2.932,-2.352 -4.77867,-2.58533 -4.76933,-0.60134 -11.51867,-0.12 -14.316,-0.27334 -2.796,-0.152 -5.612,3.09334 -5.612,3.09334 0,0 3.59333,4.448 6.388,4.94 l -4.08533,-4.81334 c 0,0 2.148,-1.58266 4.94533,-1.6 2.79867,-0.0173 10.36533,0.39734 12.66667,0.86267 1.28666,0.26133 2.51466,1.06 3.62133,1.72933 0.67733,0.41067 1.344,0.84 2.00267,1.28 0.588,0.392 1.28133,0.76667 1.69733,1.356 0.20667,0.292 0.068,0.61734 0.064,0.95734 0.25067,-0.196 0.432,-0.41734 0.48533,-0.668"
       style="fill:#000000;fill-opacity:1;fill-rule:nonzero;stroke:none;stroke-width:1.33333"
       id="path198466" />
    <path
       d="m 332.00839,134.14254 c -1.08133,0.468 -3.02133,0.45867 -3.78133,0.86667 -1.38533,0.74266 -1.956,0.93733 -3.19067,3.08933 0.25734,2.372 1.58,4.07067 3.32934,4.8 l 6.01333,-0.22133 c 1.536,-1.188 2.44,-3.32267 2.44,-5.508 0,-0.93734 -0.23334,-2.456 -0.564,-3.23467 -1.21334,0.001 -2.70667,0.19867 -4.24667,0.208"
       style="fill:#754324;fill-opacity:1;fill-rule:nonzero;stroke:none;stroke-width:1.33333"
       id="path198478" />
    <path
       d="m 334.12106,137.87521 c 0,1.53733 -1.24667,2.784 -2.784,2.784 -1.53733,0 -2.78267,-1.24667 -2.78267,-2.784 0,-1.53734 1.24534,-2.784 2.78267,-2.784 1.53733,0 2.784,1.24666 2.784,2.784"
       style="fill:#000000;fill-opacity:1;fill-rule:nonzero;stroke:none;stroke-width:1.33333"
       id="path198482" />
    <path
       d="m 330.63346,135.95867 c 0,0.84267 -0.684,1.52667 -1.52667,1.52667 -0.84266,0 -1.52666,-0.684 -1.52666,-1.52667 0,-0.84266 0.684,-1.52666 1.52666,-1.52666 0.84267,0 1.52667,0.684 1.52667,1.52666"
       style="fill:#ffffff;fill-opacity:1;fill-rule:nonzero;stroke:none;stroke-width:1.33333"
       id="path198486" />
    <path
       d="m 325.48533,138.19081 c 0.256,1.97733 1.35333,3.56 2.96133,4.268 l 5.772,-0.21067 c 1.33866,-1.10133 2.16533,-3.032 2.16533,-5.07867 0,-0.76666 -0.176,-2.10266 -0.43467,-2.79333 -1.36533,0.005 -5.03066,0.192 -5.72666,0.304 -0.65867,0.108 -1.47333,0.544 -1.78933,0.712 l -0.268,0.144 c -1.14934,0.608 -1.63867,0.868 -2.68,2.65467 m 2.80133,5.14533 -0.088,-0.036 c -1.992,-0.82933 -3.33467,-2.756 -3.596,-5.15467 l -0.0147,-0.14133 0.0707,-0.12267 c 1.21467,-2.11733 1.884,-2.472 3.09867,-3.11466 l 0.26533,-0.14134 c 0.46,-0.24666 1.19467,-0.328 1.968,-0.45333 0.67867,-0.11067 1.38133,-0.22533 1.86133,-0.432 l 0.0813,-0.036 h 0.0893 c 1.32266,-0.009 2.76133,-0.208 4.27466,-0.20933 h 0.25867 l 0.1,0.23333 c 0.364,0.85867 0.59867,2.47333 0.59867,3.44133 0,2.36534 -1,4.608 -2.60934,5.852 l -0.11066,0.0853 z"
       style="fill:#000000;fill-opacity:1;fill-rule:nonzero;stroke:none;stroke-width:1.33333"
       id="path198490" />
    <path
       d="m 336.27572,134.26734 c 2.832,0.35467 2.34134,1.436 2.35067,3.69867 0.009,2.264 -2.30667,4.468 -2.30667,4.468 3.40934,-0.71334 4.46267,-4.24 4.46267,-4.24 l 1.23467,-5.292 c 0,0 -3.58267,-0.496 -9.34,-0.17467 -2.37067,0.13333 -6.172,2.16933 -6.95467,2.70267 -0.78133,0.532 -2.168,4.032 -2.168,4.032 0,0 2.95334,-3.628 4.352,-4.196 1.39734,-0.56667 4.916,-1.432 8.36933,-0.99867"
       style="fill:#000000;fill-opacity:1;fill-rule:nonzero;stroke:none;stroke-width:1.33333"
       id="path198494" />
    <path
       d="m 297.66493,144.36414 c 0,0 -6.452,3.996 -13.172,4.63867 0,0 9.828,1.596 13.172,-4.63867"
       style="fill:#000000;fill-opacity:1;fill-rule:nonzero;stroke:none;stroke-width:1.33333"
       id="path198510" />
    <path
       d="m 323.45933,136.57401 c 0,0 -1.04667,2.26666 -0.69734,3.444 0.348,1.17733 0.91467,1.91733 0.74134,1.22 -0.17467,-0.69734 -0.13067,-2.87734 0.21733,-3.96667 0.34933,-1.08933 0.21867,-1.56933 -0.26133,-0.69733"
       style="fill:#000000;fill-opacity:1;fill-rule:nonzero;stroke:none;stroke-width:1.33333"
       id="path198514" />
    <path
       d="m 324.95386,144.20801 c 0,0 2.79733,3.40133 8.58266,3.97333 0,0 -3.84666,0.25467 -5.78533,-0.85867 -1.93866,-1.112 -2.79733,-3.11466 -2.79733,-3.11466"
       style="fill:#000000;fill-opacity:1;fill-rule:nonzero;stroke:none;stroke-width:1.33333"
       id="path198518" />
    <path
       id="path2"
       style="opacity:0.199997;fill:#000000;fill-opacity:1;fill-rule:nonzero;stroke:none;stroke-width:1.33333"
       d="M 299.38672 139 C 299.5272 139.72427 299.37466 140.16977 298.8457 140.70508 C 298.48437 141.07042 298.2081 141.53873 297.77344 141.80273 C 297.43344 142.00939 297.07341 142.18266 296.71875 142.36133 C 295.51608 142.96133 294.32964 143.58259 293.18164 144.28125 C 290.29631 146.03859 283.56339 144.76125 278.91406 144.28125 C 274.26607 143.80259 268.81586 139.96907 269.61719 140.92773 C 270.41853 141.88639 276.18763 147.46516 280.51562 148.42383 C 285.42362 149.51183 290.13513 148.79463 294.8418 147.16797 C 296.85512 146.47197 298.39588 144.3948 299.31055 142.60547 C 299.96408 141.32516 300.8653 140.11758 301.80273 139 L 299.38672 139 z " />
  </g>
  <g
     inkscape:groupmode="layer"
     id="layer1"
     inkscape:label="Nose Edge">
    <path
       d="m 305.79026,137.52601 c -0.12667,-1.01867 -0.11333,-2.184 -0.412,-3.16667 -0.15067,-0.49333 -0.31867,-1.328 -0.78,-1.66133 -0.796,-0.57334 -1.672,0.82266 -1.976,1.34666 -0.55067,0.95467 -0.97467,1.97867 -1.53733,2.92667 0,0 1.70933,-1.39067 2.30533,-0.596 0.59467,0.79333 3.45067,9.62667 3.45067,9.62667 -0.06,-0.48934 -0.12134,-0.97734 -0.18134,-1.46534 -0.28933,-2.33733 -0.58,-4.67333 -0.86933,-7.01066"
       style="fill:#000000;fill-opacity:1;fill-rule:nonzero;stroke:none;stroke-width:1.33333"
       id="path198506" />
  </g>
  <g
     inkscape:groupmode="layer"
     id="layer2"
     inkscape:label="Standard Brow"
     style="display:inline">
    <path
       id="path198432"
       style="opacity:0.199997;fill:#000000;fill-opacity:1;fill-rule:nonzero;stroke:none;stroke-width:1.33333"
       d="m 309.64453,119.3418 c 0,0 -2.62721,3.38815 -4.92187,5.16015 -1.08533,0.83867 -4.52674,1.45916 -5.66407,1.17383 -2.57466,-0.64534 -5.09978,-1.47319 -7.67578,-2.11719 -2.60666,-0.64933 -6.34567,-0.33098 -8.875,-1.09765 -1.09733,-0.33333 -2.2218,-0.29418 -3.34179,-0.0742 -1.81467,0.356 -3.61788,1.18822 -5.28321,1.68555 -1.716,0.512 -2.9707,1.23501 -4.60937,1.79101 -1.68533,0.57066 -4.19401,1.47786 -5.38867,2.50586 2.17066,0.003 4.22002,-0.0145 6.19335,0.88281 1.744,0.79333 4.76005,1.73825 6.74805,1.04493 2.08,-0.72533 12.82796,0.56445 14.75195,1.20312 1.924,0.64 5.77078,3.19727 6.41211,3.83594 0.284,0.28266 0.27692,0.74503 0.40625,1.0957 0.16534,0.45066 0.44622,0.85746 0.57422,1.32813 0.10266,0.38133 0.3092,0.75167 0.39453,1.125 0.01,0.0424 0.008,0.0747 0.0156,0.11523 h 2.44531 c 0.17895,-0.21309 0.34709,-0.44439 0.52735,-0.65039 0.81733,-0.93333 2.11229,-1.7321 2.40429,-2.99609 0.45066,-1.96 -0.43691,-3.70649 0.23242,-5.64649 0.668,-1.93734 2.07501,-3.53078 2.875,-5.41211 0.56666,-1.332 0.9033,-3.82378 1.7793,-4.95312 z m 14.00813,16.48887 c 2.63467,-2.41333 7.436,-4.57466 10.4,-5.44666 2.964,-0.872 10.288,-0.17467 10.288,-0.17467 l 3.31333,-5.05733 -6.80133,-2.964 -16.74,5.92933 c 0,0 -4.01067,4.01067 -4.53333,5.23067 -0.52267,1.22133 1.172,5.14 4.07333,2.48266" />
    <path
       id="path198474"
       style="fill:#000000;fill-opacity:1;fill-rule:nonzero;stroke:none;stroke-width:1.33333"
       d="m 324.17239,135.31521 c 0,0 2.03067,-4.86934 12.02267,-5.352 0,0 -4.952,1.49066 -6.836,2.32266 -1.88533,0.83334 -5.18667,3.02934 -5.18667,3.02934 m -24.68973,1.33213 c -0.39867,-0.61867 -1.05867,-1.07733 -1.58133,-1.61067 -0.59334,-0.60533 -1.20534,-1.192 -1.84134,-1.752 -1.26533,-1.11333 -2.696,-2.29066 -4.33066,-2.804 -3.284,-1.02933 -12.49334,-2.21333 -14.472,-1.47066 0,0 11.188,0.44133 13.644,2.44666 0.27333,0.22267 0.552,0.44134 0.83066,0.656 1.47067,1.13467 2.984,2.22 4.53334,3.244 0.772,0.51067 1.78533,0.788 2.196,1.692 0.144,0.32 0.22266,0.66534 0.3,1.00667 0.13066,0.58533 0.46666,1.37333 0.36666,1.968 -0.064,0.37867 -0.41333,0.54133 -0.64933,0.8 -0.12533,0.136 -0.61333,0.56533 -0.57467,0.72933 0.04,0.168 0.396,0.244 0.556,0.232 0.29467,-0.024 0.87334,-0.348 1.08667,-0.58933 0.85333,-0.964 0.36267,-2.204 0.25333,-3.33467 -0.0453,-0.464 -0.0413,-0.77333 -0.31733,-1.21333" />
    <path
       id="path193270"
       style="display:inline;fill:#383838;fill-opacity:1;fill-rule:nonzero;stroke:none;stroke-width:1.33333"
       d="m 307.79226,123.96867 c 0,0 -1.78667,3.572 -3.572,4.86267 -1.78667,1.29067 -11.716,-2.86133 -17.07467,-3.85333 -5.35866,-0.992 -23.37333,2.96266 -27.54133,5.64133 0,0 8.724,-5.848 12.19733,-7.73333 3.47334,-1.88534 14.48934,-2.16267 18.65734,-0.872 4.168,1.28933 12.412,1.75866 13.90133,1.75866 1.488,0 3.432,0.196 3.432,0.196 m 25.7464,-0.93426 c 5.83866,-1.12934 10.85066,-2.744 12.54533,-0.672 1.696,2.072 1.46133,2.12666 0.14267,3.63333 -1.31867,1.50667 -3.01334,0.94133 -4.332,-0.376 -1.31867,-1.31867 -4.52134,0.188 -9.41733,0.94133 -4.89734,0.75334 -12.58878,5.12539 -9.14824,1.66345 2.31789,-2.33926 4.36957,-4.05945 10.20957,-5.19011 z"
       sodipodi:nodetypes="ccscscscccscccc" />
    <path
       style="color:#000000;display:inline;fill:#000000;-inkscape-stroke:none"
       d="m 280.86133,121.05859 c -3.72353,0.14423 -7.34333,0.66935 -9.1543,1.65235 -3.50127,1.90049 -12.24601,7.85766 -11.95877,7.78396 0.0857,-0.0334 2.87443,-1.10554 5.22435,-1.83474 2.35097,-0.72953 5.15422,-1.44436 7.99609,-2.04297 5.68374,-1.19723 11.54752,-1.9234 14.14062,-1.44336 2.65197,0.49093 6.47465,1.77705 9.85547,2.7793 1.69041,0.50112 3.27169,0.93032 4.55274,1.15624 0.64052,0.11297 1.20611,0.17639 1.67969,0.16797 0.47357,-0.008 0.86102,-0.0812 1.14062,-0.2832 0.93799,-0.6781 1.8302,-1.90719 2.50586,-2.9707 0.67566,-1.06351 1.12695,-1.96485 1.12695,-1.96485 l 0.13086,-0.25976 -0.28906,-0.0293 c 0,0 -1.94756,-0.19726 -3.45313,-0.19726 -1.44731,0 -9.73184,-0.47863 -13.84179,-1.75 -2.13543,-0.66126 -5.93273,-0.9079 -9.65625,-0.76368 z m 63.39844,0.17774 c -0.83019,-0.12707 -1.81274,-0.0817 -2.91993,0.0625 -2.21437,0.2884 -4.92749,0.97574 -7.83984,1.53906 -5.86697,1.13588 -8.97139,3.67906 -9.97703,4.91685 -1.00564,1.2378 -1.16722,1.59806 -1.51134,2.15697 1.07957,-0.26194 2.15029,-0.66412 3.00218,-0.93865 2.08099,-0.7094 4.99309,-1.62653 7.43697,-2.15825 2.44388,-0.53172 4.55188,-1.00173 6.11561,-1.30505 0.78186,-0.15167 1.44441,-0.23577 1.97656,-0.20508 0.53215,0.0307 0.92336,0.16945 1.21094,0.45703 0.67951,0.67883 1.46179,1.17565 2.27539,1.30273 0.81359,0.12708 1.65219,-0.14288 2.34765,-0.9375 0.32813,-0.3749 0.59107,-0.66096 0.78321,-0.92578 0.19214,-0.26481 0.31905,-0.51949 0.32617,-0.80469 0.0142,-0.57039 -0.39664,-1.11999 -1.24805,-2.16015 -0.46231,-0.56525 -1.14833,-0.87294 -1.97851,-1 z m -63.38282,0.22265 c 3.69481,-0.14311 7.49087,0.11669 9.52344,0.7461 4.22604,1.30728 12.42764,1.76758 13.95898,1.76758 1.33494,0 2.26733,0.0272 2.57358,0.0568 -0.10331,0.20171 -0.37874,0.76026 -0.94922,1.6582 -0.664,1.04516 -1.27475,1.8053 -2.12209,2.41787 -0.82015,0.35719 -1.73387,0.15264 -2.51758,0.0469 -1.25066,-0.22057 -1.97823,-0.43943 -4.58649,-1.10812 -2.60826,-0.66869 -6.86923,-1.76196 -9.57593,-2.26303 -2.76555,-0.51196 -8.58967,0.24355 -14.29492,1.44531 -2.85263,0.60088 -5.66672,1.31644 -8.0332,2.05078 -1.45202,0.45058 -2.26484,0.88944 -3.28711,1.33399 1.97743,-1.31636 7.40927,-4.96341 10.33007,-6.54883 1.66237,-0.90234 5.28567,-1.46041 8.98047,-1.60352 z m 64.77054,0.98899 c 0.84459,1.03183 0.96345,1.38558 0.95468,1.73718 -0.13794,0.61506 -0.28859,0.94424 -0.64694,1.35562 -0.6232,0.71206 -1.26724,0.9777 -2.21892,0.49104 -0.95167,-0.48666 -1.75564,-1.13398 -2.96833,-1.28877 -1.21269,-0.15479 -1.5988,0.11402 -2.81406,0.37415 -1.21525,0.26013 -3.00261,0.7249 -5.50665,1.24609 -2.50404,0.52119 -5.60106,1.61314 -7.66407,2.31641 -0.69576,0.23303 -1.49217,0.49248 -2.16966,0.70595 0.32076,-0.38424 0.8598,-1.05357 1.22115,-1.44754 1.87568,-1.80441 4.15652,-3.46823 9.74149,-4.7077 2.90974,-0.64576 5.6395,-1.25189 7.81445,-1.53516 1.08748,-0.14163 2.03995,-0.18014 2.80859,-0.0625 0.76864,0.11768 1.06325,0.34444 1.44827,0.81519 z"
       id="path29812"
       sodipodi:nodetypes="cscsssssccscccscccssczcczsscsssscssccscscczssscsscccczzzzcccscccc" />
    <path
       id="path14615"
       style="display:inline;fill:#000000;fill-opacity:0.2;stroke:none;stroke-width:1px;stroke-linecap:butt;stroke-linejoin:miter;stroke-opacity:1"
       d="m 346.14062,122.43359 c -0.63725,0.42405 -1.27357,0.79004 -1.78515,0.94141 -1.67035,0.49425 -2.17285,-0.37048 -4.78906,-0.11328 -2.61622,0.2572 -7.53506,1.10749 -10.71875,2.39453 -1.99864,0.80797 -4.60786,2.51245 -6.35938,3.71875 0.0305,0.87856 5.9502,-2.19329 9.98828,-2.81445 4.89599,-0.75333 8.0993,-2.26008 9.41797,-0.94141 1.31866,1.31733 3.01336,1.88362 4.33203,0.37695 1.30172,-1.48731 1.53944,-1.56772 -0.0859,-3.5625 z m -62.97656,0.33789 c -4.10407,0.007 -7.8293,0.63062 -11.89844,1.97266 -2.60116,0.85789 -6.4477,3.01349 -9.44335,4.80078 6.34122,-2.5328 20.64871,-5.43194 25.32421,-4.5664 5.35867,0.99199 15.28755,5.14418 17.07422,3.85351 1.78533,-1.29067 3.57227,-4.86328 3.57227,-4.86328 0,0 -0.78056,-0.0734 -1.71289,-0.13086 -0.95552,0.98471 -1.82505,1.79984 -2.31641,2.04492 -1.61442,0.80525 -2.37758,0.56835 -5.12109,0.10742 -2.74351,-0.46093 -8.86258,-2.99522 -13.69336,-3.18554 -0.60385,-0.0238 -1.19886,-0.0343 -1.78516,-0.0332 z" />
  </g>
  <g
     inkscape:groupmode="layer"
     id="g5"
     inkscape:label="Vulcan Brow"
     style="display:none">
    <path
       id="path3"
       style="opacity:0.199997;fill:#000000;fill-opacity:1;fill-rule:nonzero;stroke:none;stroke-width:1.33333"
       d="m 309.64453,119.3418 c 0,0 -2.62721,3.38815 -4.92187,5.16015 -1.08533,0.83867 -4.52674,1.45916 -5.66407,1.17383 -2.57466,-0.64534 -5.09978,-1.47319 -7.67578,-2.11719 -2.60666,-0.64933 -6.34567,-0.33098 -8.875,-1.09765 -3.16682,-0.22873 -4.1351,0.33802 -7.44508,-0.0742 -3.30998,-0.41226 -4.40757,-0.68109 -6.83307,-1.04559 -2.42551,-0.36449 -4.37952,-1.50508 -5.69337,-0.89424 2.17066,0.003 5.5685,7.90779 7.54183,8.8051 1.744,0.79333 4.76005,1.73825 6.74805,1.04493 2.08,-0.72533 12.82796,0.56445 14.75195,1.20312 1.924,0.64 5.77078,3.19727 6.41211,3.83594 0.284,0.28266 0.27692,0.74503 0.40625,1.0957 0.16534,0.45066 0.44622,0.85746 0.57422,1.32813 0.10266,0.38133 0.3092,0.75167 0.39453,1.125 0.01,0.0424 0.008,0.0747 0.0156,0.11523 h 2.44531 c 0.17895,-0.21309 0.34709,-0.44439 0.52735,-0.65039 0.81733,-0.93333 2.11229,-1.7321 2.40429,-2.99609 0.45066,-1.96 -0.43691,-3.70649 0.23242,-5.64649 0.668,-1.93734 2.07501,-3.53078 2.875,-5.41211 0.56666,-1.332 0.9033,-3.82378 1.7793,-4.95312 z m 14.00813,16.48887 c 2.63467,-2.41333 7.436,-4.57466 10.4,-5.44666 2.964,-0.872 10.288,-0.17467 10.288,-0.17467 l 3.98757,-8.59708 -7.47557,0.57575 -16.74,5.92933 c 0,0 -4.01067,4.01067 -4.53333,5.23067 -0.52267,1.22133 1.172,5.14 4.07333,2.48266"
       sodipodi:nodetypes="ccccczzccccccccccccccsccscccccc" />
    <path
       id="path4"
       style="fill:#000000;fill-opacity:1;fill-rule:nonzero;stroke:none;stroke-width:1.33333"
       d="m 324.17239,135.31521 c 0,0 2.03067,-4.86934 12.02267,-5.352 0,0 -4.952,1.49066 -6.836,2.32266 -1.88533,0.83334 -5.18667,3.02934 -5.18667,3.02934 m -24.68973,1.33213 c -0.39867,-0.61867 -1.05867,-1.07733 -1.58133,-1.61067 -0.59334,-0.60533 -1.20534,-1.192 -1.84134,-1.752 -1.26533,-1.11333 -2.696,-2.29066 -4.33066,-2.804 -3.284,-1.02933 -12.49334,-2.21333 -14.472,-1.47066 0,0 11.188,0.44133 13.644,2.44666 0.27333,0.22267 0.552,0.44134 0.83066,0.656 1.47067,1.13467 2.984,2.22 4.53334,3.244 0.772,0.51067 1.78533,0.788 2.196,1.692 0.144,0.32 0.22266,0.66534 0.3,1.00667 0.13066,0.58533 0.46666,1.37333 0.36666,1.968 -0.064,0.37867 -0.41333,0.54133 -0.64933,0.8 -0.12533,0.136 -0.61333,0.56533 -0.57467,0.72933 0.04,0.168 0.396,0.244 0.556,0.232 0.29467,-0.024 0.87334,-0.348 1.08667,-0.58933 0.85333,-0.964 0.36267,-2.204 0.25333,-3.33467 -0.0453,-0.464 -0.0413,-0.77333 -0.31733,-1.21333" />
    <path
       id="path4b"
       style="fill:#000000;fill-opacity:1;fill-rule:nonzero;stroke:none;stroke-width:1.33333"
       d="m 307.79226,123.96867 c 0,0 -1.78667,3.572 -3.572,4.86267 -1.78667,1.29067 -11.716,-2.86133 -17.07467,-3.85333 -5.35866,-0.992 -22.53439,-2.55038 -27.18178,-5.74429 0,0 8.03313,1.38894 11.95763,1.85456 4.31228,0.51163 14.04792,0.5302 18.53749,0.92573 4.48957,0.39553 12.412,1.75866 13.90133,1.75866 1.488,0 3.432,0.196 3.432,0.196 m 15.64373,4.09907 c 2.268,-2.268 4.26267,-3.90267 10.10267,-5.03333 5.83866,-1.12934 11.56853,-2.08501 13.98352,-2.94913 2.41499,-0.86411 2.86097,-1.23327 0.38235,1.83561 0,0 -2.83191,1.99341 -5.65033,2.74006 -2.81842,0.74665 -4.88088,1.14679 -9.77687,1.90012 -4.89734,0.75334 -12.432,4.89734 -9.04134,1.50667"
       sodipodi:nodetypes="ccscszsccczszcc" />
  </g>
</svg>
