<?xml version="1.0" encoding="UTF-8" standalone="no"?>
<!-- Created with Inkscape (http://www.inkscape.org/) -->

<svg
   version="1.1"
   id="svg183802"
   width="400"
   height="400"
   viewBox="0 0 400 400"
   sodipodi:docname="Eyes2.svg"
   inkscape:version="1.2.2 (b0a8486, 2022-12-01)"
   xml:space="preserve"
   xmlns:inkscape="http://www.inkscape.org/namespaces/inkscape"
   xmlns:sodipodi="http://sodipodi.sourceforge.net/DTD/sodipodi-0.dtd"
   xmlns="http://www.w3.org/2000/svg"
   xmlns:svg="http://www.w3.org/2000/svg"><defs
     id="defs183806" /><sodipodi:namedview
     id="namedview183804"
     pagecolor="#ffffff"
     bordercolor="#666666"
     borderopacity="1.0"
     inkscape:showpageshadow="2"
     inkscape:pageopacity="0.0"
     inkscape:pagecheckerboard="0"
     inkscape:deskcolor="#d1d1d1"
     showgrid="false"
     inkscape:zoom="6.5902352"
     inkscape:cx="288.68469"
     inkscape:cy="125.33695"
     inkscape:window-width="1778"
     inkscape:window-height="1152"
     inkscape:window-x="2289"
     inkscape:window-y="25"
     inkscape:window-maximized="0"
     inkscape:current-layer="layer6"><inkscape:page
       x="0"
       y="0"
       id="page183808"
       width="400"
       height="400"
       margin="0"
       bleed="0" /></sodipodi:namedview><g
     id="g183810"
     inkscape:groupmode="layer"
     inkscape:label="Eyes Main"
     style="display:inline"><path
       d="m 321.49759,139.62561 c 0,0 3.836,5.92933 9.76534,5.40533 5.92799,-0.52267 6.79999,-0.17467 8.54399,-1.56933 0,0 -0.092,4.484 -2.052,5.29333 -1.95866,0.80933 -8.06133,0.46133 -10.50266,-1.45733 -2.44133,-1.91734 -5.75467,-7.672 -5.75467,-7.672"
       style="opacity:0.199997;fill:#000000;fill-opacity:1;fill-rule:nonzero;stroke:none;stroke-width:1.33333"
       id="path188068" /><path
       d="m 336.80719,143.55774 c 0.612,-0.15067 0.89867,-0.34267 0.89867,-0.34267 l 2.96666,-2.912 -0.0587,-5.84266 -7.29467,-0.92934 c 0,0 -6.65466,1.56934 -8.02133,2.90667 -1.36533,1.336 -2.03467,4.272 -2.064,4.35867 0,0 0.14533,0.90133 0.69867,1.01733 0.552,0.116 3.57466,2.03467 4.64933,1.976 1.076,-0.0573 8.22533,-0.232 8.22533,-0.232"
       style="fill:#ffffff;fill-opacity:1;fill-rule:nonzero;stroke:none;stroke-width:1.33333"
       id="path188122" /><path
       d="m 268.14893,138.39214 4.85866,-2.45733 15.63734,-0.55867 5.75333,2.68133 3.072,3.016 -1.22933,1.56267 -3.63067,0.224 c 0,0 -2.34533,1.84267 -4.85867,1.78667 -2.51333,-0.056 -14.464,-1.284 -14.464,-1.284 l -5.41733,-4.412 z"
       style="fill:#ffffff;fill-opacity:1;fill-rule:nonzero;stroke:none;stroke-width:1.33333"
       id="path188126" /><path
       d="m 277.90026,135.41161 c -0.36667,0.83066 -0.57333,1.748 -0.57333,2.71333 0,2.252 1.13333,4.46 2.82933,5.684 l 6.352,0.59733 c 2.51733,-0.97866 4.304,-3.41866 4.304,-6.28133 0,-0.84267 -0.16133,-1.64667 -0.444,-2.392 -3.116,-0.96667 -8.88667,-0.65067 -12.468,-0.32133"
       style="fill:#754324;fill-opacity:1;fill-rule:nonzero;stroke:none;stroke-width:1.33333"
       id="path188130" /><path
       d="m 286.93853,138.12521 c 0,1.584 -1.284,2.86933 -2.86934,2.86933 -1.584,0 -2.868,-1.28533 -2.868,-2.86933 0,-1.584 1.284,-2.86934 2.868,-2.86934 1.58534,0 2.86934,1.28534 2.86934,2.86934"
       style="fill:#000000;fill-opacity:1;fill-rule:nonzero;stroke:none;stroke-width:1.33333"
       id="path188134" /><path
       d="m 280.32893,143.35934 6.11066,0.57333 c 2.37734,-0.96933 3.908,-3.23733 3.908,-5.808 0,-0.68 -0.11333,-1.356 -0.33733,-2.012 -3.06133,-0.85733 -8.55867,-0.55066 -11.78933,-0.264 -0.28534,0.72934 -0.42934,1.49334 -0.42934,2.276 0,2.02534 0.992,4.06534 2.53734,5.23467 m 6.244,1.52 -6.58534,-0.61867 -0.10266,-0.0747 c -1.836,-1.324 -3.02134,-3.704 -3.02134,-6.06134 0,-1.00266 0.20534,-1.97866 0.612,-2.9 l 0.10934,-0.25066 0.27333,-0.0253 c 4.06533,-0.37333 9.56,-0.61866 12.64667,0.34134 l 0.216,0.0667 0.0813,0.212 c 0.31467,0.828 0.47467,1.688 0.47467,2.556 0,2.99334 -1.80667,5.628 -4.60134,6.71467 z"
       style="fill:#000000;fill-opacity:1;fill-rule:nonzero;stroke:none;stroke-width:1.33333"
       id="path188138" /><path
       d="m 283.14293,137.38521 c 0,0.86933 -0.704,1.57333 -1.57334,1.57333 -0.86933,0 -1.57333,-0.704 -1.57333,-1.57333 0,-0.86934 0.704,-1.57334 1.57333,-1.57334 0.86934,0 1.57334,0.704 1.57334,1.57334"
       style="fill:#ffffff;fill-opacity:1;fill-rule:nonzero;stroke:none;stroke-width:1.33333"
       id="path188142" /><path
       d="m 297.73679,141.40534 c 0,0 -3.644,-6.56 -8.92933,-6.924 -5.284,-0.36533 -12.756,0.54667 -15.85333,0.54667 -3.09867,0 -6.196,3.644 -6.196,3.644 0,0 4.00933,4.556 7.10666,4.92 l -4.556,-4.92 c 0,0 2.36934,-1.82267 5.468,-2.004 3.09734,-0.18267 11.48,-0.18267 14.03067,0.18133 2.552,0.36533 8.92933,4.556 8.92933,4.556"
       style="fill:#000000;fill-opacity:1;fill-rule:nonzero;stroke:none;stroke-width:1.33333"
       id="path188146" /><path
       d="m 332.48479,134.22507 c -1.16,0.44934 -3.236,0.37867 -4.04533,0.812 -1.47733,0.792 -2.084,1 -3.4,3.292 0.27333,2.52667 1.68267,4.336 3.54667,5.112 l 6.40533,-0.23466 c 1.636,-1.26534 2.6,-3.54 2.6,-5.868 0,-0.99867 -0.2,-1.94534 -0.552,-2.804 -1.30267,-0.12934 -2.904,-0.25467 -4.55467,-0.30934"
       style="fill:#754324;fill-opacity:1;fill-rule:nonzero;stroke:none;stroke-width:1.33333"
       id="path188158" /><path
       d="m 334.71679,138.09081 c 0,1.63733 -1.328,2.96533 -2.96533,2.96533 -1.63733,0 -2.96533,-1.328 -2.96533,-2.96533 0,-1.63734 1.328,-2.96534 2.96533,-2.96534 1.63733,0 2.96533,1.328 2.96533,2.96534"
       style="fill:#000000;fill-opacity:1;fill-rule:nonzero;stroke:none;stroke-width:1.33333"
       id="path188162" /><path
       d="m 331.00186,136.04921 c 0,0.89866 -0.728,1.62666 -1.62667,1.62666 -0.89733,0 -1.62666,-0.728 -1.62666,-1.62666 0,-0.89867 0.72933,-1.62667 1.62666,-1.62667 0.89867,0 1.62667,0.728 1.62667,1.62667"
       style="fill:#ffffff;fill-opacity:1;fill-rule:nonzero;stroke:none;stroke-width:1.33333"
       id="path188166" /><path
       d="m 325.51799,138.42707 c 0.27334,2.10667 1.44134,3.792 3.15467,4.54667 l 6.14933,-0.22533 c 1.42533,-1.172 2.30533,-3.22934 2.30533,-5.40934 0,-0.816 -0.14,-1.612 -0.41733,-2.37066 -1.464,-0.14 -2.85867,-0.232 -4.14933,-0.27734 -0.60933,0.21734 -1.38133,0.31067 -2.128,0.40134 -0.70667,0.0853 -1.43867,0.17466 -1.77467,0.35333 l -0.28533,0.15333 c -1.224,0.648 -1.74533,0.92534 -2.85467,2.828 m 2.984,5.48134 -0.0947,-0.0387 c -2.12,-0.884 -3.552,-2.936 -3.82934,-5.492 l -0.016,-0.14933 0.0747,-0.13067 c 1.29467,-2.25467 2.008,-2.63333 3.30133,-3.31867 l 0.28267,-0.15066 c 0.48933,-0.26134 1.272,-0.35734 2.1,-0.45734 0.72933,-0.088 1.48267,-0.17866 1.996,-0.37866 l 0.088,-0.0333 0.096,0.003 c 1.41866,0.0467 2.96133,0.15067 4.584,0.31067 l 0.27733,0.028 0.10533,0.25733 c 0.39067,0.948 0.588,1.95067 0.588,2.98133 0,2.51867 -1.06533,4.908 -2.78,6.23467 l -0.11866,0.0907 z"
       style="fill:#000000;fill-opacity:1;fill-rule:nonzero;stroke:none;stroke-width:1.33333"
       id="path188170" /><path
       d="m 336.83719,134.88894 c 2.968,0.556 2.448,1.69467 2.448,4.144 0,2.448 -2.47733,4.52533 -2.47733,4.52533 3.57866,-0.56533 4.73866,-4.14933 4.73866,-4.14933 l 1.31734,-5.65067 c 0,0 -3.75467,-0.75333 -9.79333,-0.75333 -2.48667,0 -6.48267,1.97467 -7.30534,2.50267 -0.82266,0.52933 -2.292,4.232 -2.292,4.232 0,0 2.40934,-3.11467 3.87867,-3.644 1.46933,-0.52934 5.86533,-1.884 9.48533,-1.20667"
       style="fill:#000000;fill-opacity:1;fill-rule:nonzero;stroke:none;stroke-width:1.33333"
       id="path188174" /><path
       d="m 296.21826,146.14321 c 0,0 -6.07467,2.916 -12.392,2.916 0,0 9.23333,2.18666 12.392,-2.916"
       style="fill:#000000;fill-opacity:1;fill-rule:nonzero;stroke:none;stroke-width:1.33333"
       id="path188190" /><path
       d="m 326.45453,146.87201 c 0,0 7.91066,3.516 11.30133,1.884 0,0 -4.52133,3.38933 -11.30133,-1.884"
       style="fill:#000000;fill-opacity:1;fill-rule:nonzero;stroke:none;stroke-width:1.33333"
       id="path188194" /><path
       id="path2"
       style="opacity:0.199997;fill:#000000;fill-opacity:1;fill-rule:nonzero;stroke:none;stroke-width:1.33333"
       d="m 298.12109,139 c 0.0973,1.5158 0.0189,3.0573 -0.33789,3.41406 -0.69733,0.69867 -2.44141,1.22134 -5.58008,3.13867 -3.13866,1.91866 -10.46353,0.524 -15.51953,0 -5.05732,-0.52267 -10.98723,-4.70681 -10.11523,-3.66015 0.872,1.04667 6.1045,6.27756 10.8125,7.32422 4.70799,1.04667 15.17097,-0.17558 19.18164,-2.26758 3.35218,-1.74965 2.44868,-4.59581 3.58008,-7.94922 z" /></g><g
     inkscape:groupmode="layer"
     id="layer3"
     inkscape:label="Nose Edge"><path
       d="m 305.35226,133.99374 1.488,12.008 c 0,0 -2.48,-10.916 -3.076,-11.71067 -0.59467,-0.79333 -2.67867,2.68 -2.67867,2.68 l 3.77067,-6.352 z"
       style="display:inline;fill:#000000;fill-opacity:1;fill-rule:nonzero;stroke:none;stroke-width:1.33333"
       id="path38242" /></g><g
     inkscape:groupmode="layer"
     id="layer6"
     inkscape:label="Standard Eyebrows"
     style="display:inline"><path
       d="m 323.65266,135.83067 c 2.63467,-2.41333 7.436,-4.57466 10.4,-5.44666 2.964,-0.872 10.288,-0.17467 10.288,-0.17467 l 3.31333,-5.05733 -6.80133,-2.964 -16.74,5.92933 c 0,0 -4.01067,4.01067 -4.53333,5.23067 -0.52267,1.22133 1.172,5.14 4.07333,2.48266"
       style="opacity:0.199997;fill:#000000;fill-opacity:1;fill-rule:nonzero;stroke:none;stroke-width:1.33333"
       id="path188084" /><path
       id="path188112"
       style="opacity:0.199997;fill:#000000;fill-opacity:1;fill-rule:nonzero;stroke:none;stroke-width:1.33333"
       d="m 309.64453,119.3418 c 0,0 -4.90065,5.52744 -7.19531,7.30078 -2.29334,1.772 -17.3262,-6.15781 -25.24219,-3.75781 l -14.82226,6.27734 c 2.78932,-0.52267 9.76468,1.91895 12.02734,1.12695 2.26134,-0.792 13.95488,0.61713 16.04687,1.31446 2.09333,0.69733 6.2779,3.4882 6.97657,4.18554 0.34056,0.34057 0.5927,1.76397 0.68554,3.21094 h 2.02149 c 0.22224,-0.65873 0.5156,-1.33579 0.94336,-2.0293 1.316,-2.13466 2.59887,-4.08827 3.76953,-6.34961 4.05866,-7.83732 4.78906,-11.27929 4.78906,-11.27929 z" /><path
       id="path188154"
       style="fill:#000000;fill-opacity:1;fill-rule:nonzero;stroke:none;stroke-width:1.33333"
       d="m 323.65266,135.83067 c 0,0 4.52,-5.27333 10.924,-5.83866 z m -24.64027,1.38347 c 0,0 -4.92,-5.284 -8.56533,-6.196 -3.644,-0.91067 -13.848,-1.64 -16.03467,-0.728 0,0 12.39067,-0.18267 15.124,1.82133 2.73334,2.00534 10.56934,6.92534 9.476,5.10267" /><path
       id="path188182"
       style="fill:#383838;fill-opacity:1;fill-rule:nonzero;stroke:none;stroke-width:1.33333"
       d="m 307.43626,124.16934 c 0,0 -1.78667,3.572 -3.572,4.86267 -1.78667,1.29066 -14.29067,-1.98534 -19.64933,-2.97734 -5.35867,-0.992 -20.44267,1.88534 -24.61067,4.56534 0,0 11.512,-9.328 14.98533,-11.21334 3.47334,-1.88666 8.03734,-0.39733 12.20534,0.892 4.168,1.29067 16.076,3.47334 17.56533,3.47334 1.488,0 3.076,0.39733 3.076,0.39733 m 15.99973,3.8984 c 2.268,-2.268 4.144,-5.27333 9.98267,-6.404 5.83866,-1.13067 9.41733,-3.76667 11.112,-1.69467 1.696,2.072 3.01466,4.52 1.696,6.02667 -1.31867,1.50667 -3.01334,0.94133 -4.332,-0.376 -1.31867,-1.31867 -4.52134,0.188 -9.41733,0.94133 -4.89734,0.75334 -12.432,4.89734 -9.04134,1.50667" /><path
       style="color:#000000;fill:#000000;-inkscape-stroke:none"
       d="m 346.61463,124.55134 c -0.0684,0.48603 -0.30145,0.88965 -0.61463,1.24749 -0.60514,0.69141 -1.22963,0.87503 -1.89258,0.77148 -0.66294,-0.10355 -1.37095,-0.53369 -2,-1.16211 -0.3928,-0.3928 -0.92791,-0.5685 -1.53515,-0.60351 -0.60725,-0.035 -1.30249,0.0598 -2.10157,0.21484 -1.59816,0.31001 -3.61106,0.87055 -6.03906,1.24414 -2.01031,0.30924 -4.40463,1.16362 -6.3418,1.85156 -0.96858,0.34398 -1.82362,0.64699 -2.43945,0.81836 -0.49384,0.0703 -0.9808,0.24493 -1.43217,0.27172 0.067,0.13638 0.3166,0.42091 0.42825,0.45083 0.11166,0.0299 0.21799,0.0315 0.33399,0.0234 0.23199,-0.0162 0.50551,-0.0771 0.83203,-0.16797 0.65304,-0.18173 1.51001,-0.48809 2.47852,-0.83203 1.93702,-0.6879 4.31647,-1.52755 6.23242,-1.82227 2.46798,-0.37974 4.50371,-0.94801 6.06054,-1.25 0.77842,-0.15099 1.43795,-0.23294 1.95508,-0.20312 0.51713,0.0298 0.87605,0.1612 1.14258,0.42773 h 0.002 c 0.68961,0.68891 1.48636,1.20025 2.33008,1.33203 0.84372,0.13179 1.72593,-0.15545 2.43945,-0.9707 0.40674,-0.46472 0.50022,-1.02492 0.51454,-1.60742 z"
       id="path35226"
       sodipodi:nodetypes="csscsscsccsssscssccsscc" /><path
       id="path31558"
       style="color:#000000;fill:#000000;-inkscape-stroke:none"
       d="m 277.34766,118.36719 c -1.00095,0.10955 -1.95934,0.37758 -2.85352,0.86328 -1.77726,0.96471 -5.38138,3.70345 -8.56836,6.21289 -3.18698,2.50944 -5.8125,4.9375 -5.8125,4.9375 0,0 2.87593,-2.11701 6.05859,-4.62305 3.18267,-2.50604 6.74174,-5.02754 8.43781,-5.94817 3.36997,-1.83051 7.76682,-0.4956 12.12665,0.68059 2.10498,0.65184 6.1211,1.51697 9.80859,2.22461 1.84375,0.35382 3.65939,0.61046 5.053,0.83568 1.39361,0.22523 2.38031,0.32313 2.79938,0.36524 1.69898,0.1707 3.17199,0.29112 3.17199,0.29112 0,0 -1.55354,-0.3501 -3.19095,-0.53977 -0.32133,-0.0372 -1.38461,-0.22986 -2.77287,-0.45422 -1.38826,-0.22436 -3.14591,-0.53744 -4.98633,-0.89062 -3.68083,-0.70637 -7.70261,-1.57601 -9.76562,-2.21485 -3.12438,-0.96649 -6.50304,-2.0689 -9.50586,-1.74023 z M 342.9082,119 c -0.70546,-0.0282 -1.50944,0.15082 -2.43554,0.42383 -1.8522,0.54601 -4.19347,1.4817 -7.0918,2.04297 -5.89576,1.14172 -7.87934,4.21446 -10.10491,6.57278 -0.6668,0.70659 -0.88872,1.28489 -0.88872,1.28489 0,0 0.53324,-0.45783 1.19089,-1.11549 2.29148,-2.29147 4.09734,-5.22999 9.87891,-6.3496 2.94032,-0.5694 5.30844,-1.51608 7.12891,-2.05274 0.91023,-0.26833 1.68202,-0.43122 2.30664,-0.40625 0.62462,0.025 1.09375,0.2201 1.48242,0.69531 1.22087,1.49154 2.21931,3.18338 2.1875,4.47852 l 0.40039,0.01 c 0.0368,-1.50015 -1.03216,-3.22094 -2.27734,-4.74218 -0.45867,-0.56079 -1.07188,-0.8136 -1.77735,-0.8418 z" /><path
       style="color:#000000;fill:#000000;-inkscape-stroke:none"
       d="m 305.98242,125.90234 c -0.79229,1.00916 -1.64112,1.84285 -2.44314,2.42265 -0.10102,0.073 -0.55166,0.2549 -1.04154,0.28486 -0.48987,0.0299 -1.01606,0.007 -1.94697,-0.0246 -1.48247,-0.13881 -3.14599,-0.45804 -5.14934,-0.84766 -4.00671,-0.77924 -8.41225,-1.5753 -11.11432,-2.07551 -2.81345,-0.52083 -7.94487,-0.19269 -12.89844,0.9043 -5.93504,1.31434 -11.7378,3.59182 -11.53803,3.96222 0,0 6.74949,-2.24944 11.68647,-3.17511 4.93698,-0.92568 10.06025,-1.37743 12.60547,-0.90625 2.65659,0.49179 7.12854,1.55966 11.16015,2.34375 2.01581,0.39204 3.92114,0.71397 5.45313,0.85742 0.76599,0.0717 1.43925,0.10046 1.99609,0.0664 0.55685,-0.0341 1.00005,-0.10968 1.34571,-0.35937 0.9833,-0.71086 1.90587,-2.13852 2.58736,-3.21121 0.6815,-1.07268 1.45629,-3.01054 1.45629,-3.01054 0,0 -1.40096,1.80322 -2.15889,2.76862 z"
       id="path35228"
       sodipodi:nodetypes="ssscssscssssscscs" /><path
       id="path16709"
       style="fill:#000000;fill-opacity:0.2;stroke:none;stroke-width:1px;stroke-linecap:butt;stroke-linejoin:miter;stroke-opacity:1"
       d="M 345.08594 120.68555 C 344.23695 121.49334 343.3561 122.23536 342.62891 122.60547 C 340.49519 123.69144 338.66604 123.20805 336.10352 123.82031 C 333.54099 124.43257 330.03514 125.13927 327.30273 126.39844 C 325.94847 127.02252 324.11337 128.22153 322.60352 129.27148 C 322.89801 129.96316 328.53766 127.16645 332.47656 126.56055 C 337.37255 125.80722 340.57586 124.30047 341.89453 125.61914 C 343.21319 126.93647 344.90789 127.50276 346.22656 125.99609 C 347.39619 124.6597 346.489 122.58383 345.08594 120.68555 z M 277.69727 121.94141 C 275.71916 121.95593 275.45719 122.24699 272.37305 123.36523 C 269.54899 124.38918 263.40272 128.20271 259.72266 130.55273 C 264.03324 127.89186 278.90031 125.07086 284.21484 126.05469 C 289.5735 127.04669 302.07857 130.32191 303.86523 129.03125 C 305.65056 127.74058 307.43555 124.16992 307.43555 124.16992 C 307.43555 124.16992 306.71775 123.99857 305.81445 123.88086 C 305.07278 124.5852 304.39713 125.18528 303.93359 125.48828 C 301.70654 126.94408 300.08216 126.42595 296.04492 125.48828 C 292.0077 124.55061 285.24986 122.14108 280.41406 121.99805 C 279.20511 121.96229 278.35663 121.93656 277.69727 121.94141 z " /></g><g
     inkscape:groupmode="layer"
     id="g5146"
     inkscape:label="Bolian Brows"
     style="display:none"><path
       id="path5132"
       style="opacity:0.199997;fill:#000000;fill-opacity:1;fill-rule:nonzero;stroke:none;stroke-width:1.33333"
       d="m 309.64453,119.3418 c 0,0 -4.90065,5.52744 -7.19531,7.30078 -2.29334,1.772 -17.3262,-6.15781 -25.24219,-3.75781 l -14.82226,6.27734 c 2.78932,-0.52267 9.76468,1.91895 12.02734,1.12695 2.26134,-0.792 13.95488,0.61713 16.04687,1.31446 2.09333,0.69733 6.2779,3.4882 6.97657,4.18554 0.34056,0.34057 0.5927,1.76397 0.68554,3.21094 h 2.02149 c 0.22224,-0.65873 0.5156,-1.33579 0.94336,-2.0293 1.316,-2.13466 2.59887,-4.08827 3.76953,-6.34961 4.05866,-7.83732 4.78906,-11.27929 4.78906,-11.27929 z m 14.00813,16.48887 c 2.63467,-2.41333 7.436,-4.57466 10.4,-5.44666 2.964,-0.872 10.288,-0.17467 10.288,-0.17467 l 3.31333,-5.05733 -6.80133,-2.964 -16.74,5.92933 c 0,0 -4.01067,4.01067 -4.53333,5.23067 -0.52267,1.22133 1.172,5.14 4.07333,2.48266" /><path
       id="path6819"
       style="fill:#cd976d;fill-opacity:1;stroke:none;stroke-width:1px;stroke-linecap:butt;stroke-linejoin:miter;stroke-opacity:1"
       d="m 264.80686,126.3412 c 0.28013,-1.75987 1.94013,-4.67309 2.897,-6.27682 0.95687,-1.60373 1.81163,-2.7449 2.57511,-3.43348 0.76348,-0.68858 0.82912,-0.73445 1.60944,-0.96566 0.78032,-0.23121 1.32477,-0.14387 3.00429,-0.1073 1.67952,0.0366 18.53541,1.36802 18.53541,1.36802 l 2.46781,0.2146 7.10837,-0.0805 3.64807,0.21459 1.60944,1.71674 0.42919,2.5751 -2.68241,5.90129 -1.82403,1.07296 h -3.54077 l -12.23176,-2.36051 -13.62661,-1.39485 -3.11159,0.53648 -2.46781,1.93133 -2.03863,2.14592 h -1.18026 c 0,0 -1.46038,-1.29807 -1.18026,-3.05794 z m 82.06999,-2.21816 c -1.60182,0.46399 -3.40827,0.12496 -6.411,0.64488 -3.00274,0.51993 -8.62703,1.83412 -11.49428,2.84513 -2.86725,1.01101 -4.15497,2.20079 -5.76611,2.57957 -1.61114,0.37878 -2.86092,-0.34338 -3.98316,-1.06218 -1.12224,-0.71884 -1.49397,-1.37317 -1.97263,-2.84512 -0.47866,-1.47195 -0.76212,-3.55977 -0.0379,-5.12121 0.72419,-1.56144 1.86542,-2.20984 3.83143,-3.2624 1.96601,-1.05256 6.057,-2.20003 9.36993,-3.03479 3.31293,-0.83476 6.88934,-1.6133 9.59752,-2.65545 2.70818,-1.04215 3.94065,-1.65945 5.50057,-1.59326 1.55992,0.0662 1.99285,-0.0823 3.33827,1.21391 1.34542,1.29621 3.00419,5.20431 2.88306,7.09383 -0.12113,1.88952 -0.75759,2.86611 -1.66916,3.60382 -0.91156,0.73771 -1.58472,1.12928 -3.18654,1.59327 z" /><path
       id="path5134"
       style="fill:#000000;fill-opacity:1;fill-rule:nonzero;stroke:none;stroke-width:1.33333"
       d="m 323.65266,135.83067 c 0,0 4.52,-5.27333 10.924,-5.83866 z m -24.64027,1.38347 c 0,0 -4.92,-5.284 -8.56533,-6.196 -3.644,-0.91067 -13.848,-1.64 -16.03467,-0.728 0,0 12.39067,-0.18267 15.124,1.82133 2.73334,2.00534 10.56934,6.92534 9.476,5.10267" /><path
       id="path5286"
       style="color:#000000;fill:#000000;-inkscape-stroke:none"
       d="m 295.89258,117.14257 c 0,0 2.80005,0.0409 5.40288,0.0411 1.51573,1.2e-4 2.31292,0.11455 3.41743,0.27136 1.10451,0.15681 2.13843,0.51512 2.76369,1.12658 0.62526,0.61146 0.86503,1.2003 0.78046,1.92668 -0.0846,0.72637 -0.35201,1.55913 -0.62695,2.43554 -0.47287,1.50736 -1.31325,3.16447 -1.86146,3.87968 -0.54821,0.71521 -0.8937,0.87664 -1.28621,1.02418 -0.39251,0.14754 -0.69826,0.17521 -1.66015,0.17773 -0.96189,0.003 -4.25631,-0.30597 -7.26563,-0.88867 -3.00932,-0.5827 -6.26662,-1.27641 -8.87109,-1.53906 -2.53609,-0.25576 -5.32766,-0.70802 -7.90821,-0.9668 -2.58054,-0.25878 -4.94358,-0.34159 -6.71093,0.23047 -1.72236,0.55749 -2.69277,1.48761 -3.33985,2.28906 -0.64708,0.80145 -1.06098,1.37707 -1.38643,1.61213 -0.32546,0.23506 -0.7536,0.33085 -0.92103,0.30411 -0.16743,-0.0267 -0.35958,-0.13042 -0.45895,-0.21541 -0.0994,-0.085 -0.27952,-0.25532 -0.53842,-0.6196 -0.25889,-0.36428 -0.70346,-1.17128 -0.78692,-1.37714 0.0182,0.18248 0.19632,1.08226 0.34818,1.6671 0.15186,0.58485 0.22757,0.80311 0.47324,1.06907 0.26163,0.26355 0.53398,0.32829 0.90124,0.34879 0.36726,0.0205 0.71873,-0.0795 1.32617,-0.33789 0.85568,-0.36396 1.2362,-1.0988 1.82032,-1.82226 0.58411,-0.72347 1.34629,-1.47325 2.87109,-1.9668 1.4798,-0.47899 3.76645,-0.43989 6.30273,-0.18555 2.53628,0.25435 5.32826,0.70662 7.90821,0.9668 2.51155,0.25328 5.75736,0.94025 8.77929,1.52539 3.02194,0.58514 6.12216,0.88708 7.25012,0.90234 1.12797,0.0153 1.47557,-0.0477 1.99793,-0.18359 0.52236,-0.13585 0.79111,-0.32735 1.47852,-1.00586 0.68741,-0.67851 1.94013,-3.03067 2.52071,-4.70846 0.28169,-0.81404 0.52772,-1.54497 0.63868,-2.49805 0.11095,-0.95307 -0.0742,-1.835 -1.15586,-2.89283 -0.65921,-0.64465 -2.0278,-0.96519 -3.24572,-1.13373 -1.21792,-0.16853 -2.34723,-0.1342 -4.37414,0.0276 -2.02691,0.1618 -4.58294,0.51599 -4.58294,0.51599 z m 45.34507,-5.67927 c -1.45089,0.49868 -2.95646,1.40533 -2.95646,1.40533 0,0 1.4859,-0.34775 2.90515,-0.83556 1.41925,-0.4878 3.01118,-0.63739 3.77161,-0.63709 0.93562,3.6e-4 1.58565,0.008 2.125,0.14062 0.53934,0.13253 1.21009,0.54212 1.94215,1.40053 0.73206,0.8584 1.84915,2.94199 2.05693,4.84412 0.20778,1.90213 -0.18455,2.74312 -0.82539,3.76433 -0.64717,1.03131 -1.05934,1.16637 -2.52031,1.8177 -1.29234,0.57618 -3.49961,0.21311 -6.40821,0.72266 -2.83697,0.497 -5.53833,1.10035 -8.72167,2.12147 -3.21017,1.02972 -10.00782,4.28868 -10.00782,4.28868 0,0 7.29609,-2.45807 10.36616,-3.44285 3.09689,-0.99338 5.73509,-1.49239 8.53521,-1.98293 2.7285,-0.47799 4.90493,-0.0974 6.74988,-0.63398 1.69353,-0.49257 2.72862,-1.36088 3.38895,-2.41315 0.66666,-1.06236 1.23052,-2.2734 0.97773,-4.35808 -0.25279,-2.08468 -0.99766,-4.01513 -2.16136,-5.26217 -1.16371,-1.24704 -1.89437,-1.71791 -2.59749,-1.89068 -0.70312,-0.17277 -2.18244,-0.12548 -3.13622,-0.0119 -0.95377,0.11355 -2.03294,0.4643 -3.48384,0.96298 z" /><path
       id="path5290"
       style="color:#000000;fill:#000000;fill-opacity:0.3;-inkscape-stroke:none"
       d="m 274.75781,115.11328 c -1.10243,-0.008 -1.70588,-0.0204 -2.33398,0.0137 -0.62811,0.0341 -1.23774,0.22351 -2.08985,0.75977 -0.95474,0.60084 -1.71824,1.99891 -2.46197,3.1823 -0.74373,1.18339 -1.01527,1.89234 -1.40871,2.73397 -0.81127,1.73544 -1.60295,3.94799 -1.60295,3.94799 0,0 1.0576,-1.95855 1.93756,-3.50945 0.46558,-0.82057 1.15204,-1.77323 1.86615,-2.9095 0.71412,-1.13627 1.53282,-2.17776 2.20313,-2.59961 0.77294,-0.48643 1.1232,-0.55359 1.61133,-0.60742 0.5852,-0.0645 1.43018,-0.0662 2.60147,-0.0516 2.21844,0.0276 5.73352,0.0858 9.00503,0.25211 3.16868,0.16105 9.79877,0.62762 9.79877,0.62762 0,0 -6.4724,-0.91902 -9.67481,-1.14284 -3.17181,-0.22168 -7.03444,-0.67964 -9.45117,-0.69701 z m 49.71172,0.88115 c -3.52982,1.07707 -7.14521,3.47898 -7.73815,5.52142 -0.59294,2.04244 -0.19285,3.87615 0.17694,4.98403 0.38201,1.14447 1.12651,2.0738 1.90613,2.78528 0.75973,0.61915 2.78979,0.75456 2.78979,0.75456 -0.0413,-0.15181 -1.43012,-0.79712 -2.11401,-1.22461 -0.61773,-0.56374 -1.35633,-1.74443 -1.68828,-2.73894 -0.34418,-1.0311 -0.78934,-2.16397 -0.092,-4.35134 0.69734,-2.18737 3.84125,-3.73057 7.06823,-4.77923 3.16982,-1.02664 12.4541,-3.80176 12.4541,-3.80176 0,0 -9.45862,1.78047 -12.7627,2.85059 z" /><path
       id="path6817"
       style="fill:#ffffff;fill-opacity:0.2;stroke:none;stroke-width:1px;stroke-linecap:butt;stroke-linejoin:miter;stroke-opacity:1"
       d="m 305.04292,125 c 0,0 0.5641,-1.80599 0.53648,-3.00429 -0.0276,-1.1983 -1.0205,-1.70484 -2.81652,-2.38734 -1.79602,-0.6825 -15.53112,-0.61695 -15.10194,-0.50966 0.42919,0.1073 11.19109,1.22666 12.71459,1.68992 1.52351,0.46326 3.15391,1.27767 3.54078,2.03862 0.38687,0.76095 1.12661,2.17275 1.12661,2.17275 z m 25.42918,-7.18884 c 0,0 9.26366,-4.33005 12.12447,-4.72103 2.86081,-0.39098 3.06332,-0.52594 4.29184,0.42918 1.22852,0.95512 1.71674,4.72103 1.71674,4.72103 0,0 -2.2956,-1.77823 -3.54077,-2.14592 -1.24517,-0.36769 -1.19626,-0.27397 -3.64807,-0.1073 -2.45181,0.16667 -10.94421,1.82404 -10.94421,1.82404 z" /></g><g
     inkscape:groupmode="layer"
     id="g38252"
     inkscape:label="Denobulan Eyebrows"
     style="display:none"><path
       id="path38236"
       style="opacity:0.199997;fill:#000000;fill-opacity:1;fill-rule:nonzero;stroke:none;stroke-width:1.33333"
       d="m 273.75391,124.34766 -11.36914,4.81445 c 2.78931,-0.52267 9.76468,1.91895 12.02734,1.12695 2.26134,-0.792 13.95489,0.61713 16.04687,1.31446 2.09333,0.69732 6.2779,3.4882 6.97657,4.18554 0.34056,0.34057 0.5927,1.76397 0.68554,3.21094 h 2.02149 c 0.22224,-0.65873 0.5156,-1.33579 0.94336,-2.0293 0.41221,-0.66863 0.81156,-1.31085 1.21484,-1.95898 -1.22343,-1.52656 -2.64687,-2.83793 -4.43555,-4.06055 -2.47472,-1.69156 -3.68031,-2.24442 -8.95312,-3.79297 -2.97874,-0.87481 -9.69577,-1.97939 -15.1582,-2.81054 z" /><path
       style="fill:#383838;fill-opacity:1;stroke:none;stroke-width:1px;stroke-linecap:butt;stroke-linejoin:miter;stroke-opacity:1"
       d="m 271.89905,108.76972 c 0,0 -1.58224,2.1011 -2.40943,3.66936 -0.82719,1.56826 -1.66313,4.04978 -1.66913,6.22133 -0.006,2.17155 0.64794,4.86497 1.66913,6.37306 1.02119,1.50809 1.77477,1.90475 3.49002,2.57958 1.71525,0.6748 4.22043,0.38795 6.67654,0.7587 2.45611,0.37075 8.0422,1.51739 8.0422,1.51739 0,0 -0.35932,-1.77755 -1.37864,-2.85051 -1.01932,-1.07296 -3.34278,-3.261 -4.93562,-4.56009 -1.59284,-1.29909 -3.16587,-2.02247 -4.56009,-3.27253 -1.39422,-1.25006 -2.9449,-2.90068 -3.75536,-4.18455 -0.81046,-1.28387 -1.15814,-2.14693 -1.3412,-3.21888 -0.18306,-1.07195 0.17158,-3.03286 0.17158,-3.03286 z"
       id="path38262"
       sodipodi:nodetypes="czzzzzczzzzzc" /><path
       d="m 323.65266,135.83067 c 2.63467,-2.41333 7.436,-4.57466 10.4,-5.44666 2.964,-0.872 10.288,-0.17467 10.288,-0.17467 l 3.31333,-5.05733 -6.80133,-2.964 c 0,0 -13.18532,2.54573 -15.98893,6.03663 -2.8036,3.49089 -3.79607,5.78105 -4.31873,7.00105 -0.52267,1.22133 0.20633,3.26232 3.10766,0.60498"
       style="opacity:0.199997;fill:#000000;fill-opacity:1;fill-rule:nonzero;stroke:none;stroke-width:1.33333"
       id="path38234"
       sodipodi:nodetypes="csccczcc" /><path
       style="fill:#383838;fill-opacity:1;stroke:none;stroke-width:1px;stroke-linecap:butt;stroke-linejoin:miter;stroke-opacity:1"
       d="m 334.54936,129.45279 c 0,0 1.68043,-1.18435 3.05794,-1.93133 1.37751,-0.74698 3.71509,-1.97351 5.25751,-2.41416 1.54242,-0.44065 2.55229,0.24052 3.80901,-0.48284 1.25672,-0.72336 2.29813,-2.1597 2.95064,-3.86266 0.65251,-1.70296 1.03338,-4.15552 0.48284,-6.06223 -0.55054,-1.90671 -2.53811,-3.29261 -3.48713,-4.66738 -0.94902,-1.37477 -2.25322,-3.54077 -2.25322,-3.54077 0,0 0.12038,2.86276 -0.59013,5.41845 -0.71051,2.55569 -2.85055,6.57223 -4.39914,9.49571 -1.54859,2.92348 -4.82832,8.04721 -4.82832,8.04721 z"
       id="path38296"
       sodipodi:nodetypes="czzzzzzczzc" /><path
       id="path38238"
       style="fill:#000000;fill-opacity:1;fill-rule:nonzero;stroke:none;stroke-width:1.33333"
       d="m 323.65266,135.83067 c 0,0 4.52,-5.27333 10.924,-5.83866 z m -24.64027,1.38347 c 0,0 -4.92,-5.284 -8.56533,-6.196 -3.644,-0.91067 -13.848,-1.64 -16.03467,-0.728 0,0 12.39067,-0.18267 15.124,1.82133 2.73334,2.00534 10.56934,6.92534 9.476,5.10267" /><path
       id="path38256"
       style="color:#000000;fill:#000000;-inkscape-stroke:none"
       d="m 271.94531,108.66406 c 0,0 -2.03447,1.90304 -2.89843,3.54102 -0.86388,1.63782 -1.72022,4.15432 -1.72657,6.45312 -0.006,2.27307 0.63527,5.00136 1.75586,6.65625 1.0624,1.56895 1.98978,2.08268 3.72071,2.76367 1.91451,0.7532 4.4163,0.42954 6.78515,0.78711 2.4163,0.36474 8.01563,1.51368 8.01563,1.51368 l 0.74023,0.15234 -0.15039,-0.74023 c 0,0 -0.33703,-1.86732 -1.50586,-3.09766 -1.04685,-1.10194 -3.36104,-3.2792 -4.98242,-4.60156 -1.64733,-1.34354 -3.21459,-2.06854 -4.54102,-3.25782 -1.36853,-1.22702 -2.90597,-2.87607 -3.66601,-4.08007 -0.79093,-1.25292 -1.09861,-2.02287 -1.27149,-3.03516 -0.074,-0.43329 -0.20339,-1.18748 -0.23242,-1.79492 -0.0302,-0.63162 -0.043,-1.25977 -0.043,-1.25977 z m -0.73437,2.55274 c -0.0113,0.23101 -0.0127,0.45773 0.0234,0.66992 0.19324,1.1316 0.58212,2.08753 1.4121,3.40234 0.0868,0.13743 0.18501,0.27928 0.28516,0.42188 0.006,0.32037 0.0199,0.91256 0.0684,1.76367 0.0648,1.14586 0.18039,2.50273 0.41602,3.4043 0.45465,1.73961 1.12847,3.51571 2.19336,4.86523 0.5364,0.67978 1.44674,1.38335 2.25,1.94336 -0.85079,-0.0551 -1.66336,-0.0825 -2.41016,-0.13477 -0.19926,-0.0533 -0.41544,-0.11558 -0.65039,-0.1914 -0.84519,-0.27275 -1.84093,-0.70211 -2.41602,-1.25391 -1.18412,-1.13617 -2.07457,-3.4687 -2.5039,-5.34765 -0.42346,-1.85329 -0.31354,-4.22817 -0.0527,-5.58399 0.12484,-0.6491 0.58116,-1.91788 1.00195,-3 0.14387,-0.36993 0.26115,-0.65875 0.38282,-0.95898 z m -0.79492,0.63867 c -0.0206,0.0525 -0.0339,0.0852 -0.0547,0.13867 -0.42413,1.09063 -0.88196,2.34214 -1.02539,3.08789 -0.27578,1.43388 -0.39316,3.82909 0.0547,5.78906 0.44198,1.9343 1.31195,4.31716 2.64649,5.59766 0.17942,0.17216 0.38403,0.32835 0.60351,0.4707 -1.30682,-0.5347 -1.86496,-0.89872 -2.73632,-2.18554 -0.92179,-1.36129 -1.58971,-4.02177 -1.58399,-6.0918 0.006,-2.04429 0.82083,-4.49155 1.61133,-5.99023 0.16919,-0.32077 0.32577,-0.57524 0.48438,-0.81641 z m 3.03515,4.54883 c 0.86444,1.08536 1.98989,2.23313 3.03906,3.17382 0.14738,0.13214 0.29575,0.25564 0.44532,0.37696 8.5e-4,0.0668 0.004,0.14023 0.01,0.22265 0.0268,0.36146 0.11113,0.8799 0.33985,1.52539 0.45657,1.28859 1.73407,3.91874 3.00586,5.24024 0.47242,0.4909 1.12655,0.94643 1.76757,1.33398 -0.84873,-0.15647 -1.66881,-0.30086 -2.32812,-0.40039 -0.28264,-0.0427 -0.56523,-0.0745 -0.8457,-0.10351 -0.20582,-0.13316 -0.42821,-0.28105 -0.67383,-0.45117 -0.80162,-0.55521 -1.72973,-1.27937 -2.20899,-1.88672 -0.99536,-1.2614 -1.65649,-2.98064 -2.10156,-4.6836 -0.21423,-0.81973 -0.33823,-2.17167 -0.40234,-3.30468 -0.022,-0.38927 -0.0361,-0.73271 -0.0469,-1.04297 z m 4.01758,3.96093 c 1.17484,0.86332 2.39904,1.52084 3.59961,2.5 1.5643,1.27581 3.89689,3.47361 4.88867,4.51758 0.5314,0.55937 0.82642,1.28399 1.01758,1.85938 -0.49186,-0.10043 -1.83902,-0.37523 -3.33008,-0.66407 -0.20227,-0.10135 -0.42188,-0.21388 -0.66601,-0.34765 -0.80384,-0.44043 -1.75663,-1.041 -2.32618,-1.63281 -1.15303,-1.1981 -2.46646,-3.85241 -2.89453,-5.06055 -0.16876,-0.4763 -0.24974,-0.86919 -0.28906,-1.17188 z" /><path
       id="path38294"
       style="color:#000000;fill:#000000;-inkscape-stroke:none"
       d="m 344.16016,106.2207 c 0,0 -0.18444,3.10588 -0.86524,5.55469 -0.67732,2.43631 -2.81027,6.47203 -4.35937,9.39649 -1.52502,2.87896 -4.80664,8.01171 -4.80664,8.01171 l 0.70898,0.67774 c 0,0 1.6752,-1.17776 3.00781,-1.90039 1.37076,-0.74332 3.72117,-1.96306 5.15625,-2.37305 0.67807,-0.19371 1.23246,-0.14275 1.85352,-0.11719 0.62105,0.0256 1.331,0.0123 2.06836,-0.41211 1.40123,-0.80654 2.48547,-2.33597 3.16797,-4.11718 0.68663,-1.79203 1.09538,-4.30533 0.49609,-6.38086 -0.6216,-2.15281 -2.57102,-3.65292 -3.55664,-4.8125 -1.06158,-1.24895 -2.55897,-3.26771 -2.87109,-3.52735 z m 0.64648,2.47461 c 0.0676,0.48579 0.15326,1.15054 0.23438,1.99414 0.14156,1.4723 0.22988,3.23917 0.0449,4.34375 -0.37996,2.26928 -1.41891,4.42094 -2.59766,6.40625 -1.06806,1.79893 -3.82771,4.74537 -4.2207,5.16211 -0.31768,0.16787 -0.63692,0.33866 -0.89844,0.48047 -0.59995,0.32534 -0.76326,0.47436 -1.31055,0.82813 0.94575,-1.49623 2.5421,-3.96905 3.76172,-6.27149 1.54807,-2.9225 3.69381,-6.92064 4.4375,-9.5957 0.32936,-1.18471 0.47771,-2.35775 0.54883,-3.34766 z m 0.54492,0.30078 c 0.24931,0.40403 0.50636,0.81175 0.85742,1.32032 0.11665,0.16897 0.24623,0.33452 0.38086,0.5 0.11665,0.31096 0.23875,0.65133 0.36328,1.01757 0.46354,1.36317 0.90684,3.01119 0.86524,4.03516 -0.0862,2.12022 -1.28617,4.38043 -2.16602,5.89258 -0.60342,1.03707 -1.66971,2.15799 -2.24218,2.72656 -0.21757,0.0276 -0.44427,0.0703 -0.6836,0.13867 -0.94182,0.26907 -2.09102,0.7862 -3.17187,1.32032 1.04743,-1.16165 2.59495,-2.95983 3.36328,-4.25391 1.19371,-2.01054 2.2662,-4.21163 2.66211,-6.57617 0.20298,-1.21233 0.10215,-2.98733 -0.041,-4.47657 -0.0608,-0.63211 -0.12739,-1.18664 -0.1875,-1.64453 z m 2.1211,2.81641 c 0.90061,0.96411 1.83679,1.92577 2.15429,3.02539 0.50179,1.73787 0.14963,4.13025 -0.46875,5.74414 -0.62252,1.62469 -1.62216,2.9692 -2.73437,3.60938 -0.51937,0.29894 -0.94368,0.30527 -1.52735,0.28125 -0.2241,-0.009 -0.47513,-0.0215 -0.74023,-0.0234 0.60276,-0.62617 1.40686,-1.53698 1.92969,-2.43555 0.88831,-1.52671 2.13932,-3.83202 2.23242,-6.12305 0.0464,-1.14318 -0.39087,-2.72246 -0.8457,-4.07812 z" /></g><g
     inkscape:groupmode="layer"
     id="g7"
     inkscape:label="Vulcan Eyebrows"
     style="display:none"><path
       d="m 323.65266,135.83067 c 2.63467,-2.41333 7.436,-4.57466 10.4,-5.44666 2.964,-0.872 10.288,-0.17467 10.288,-0.17467 0,0 2.78651,-4.21575 3.22858,-6.15903 0.44207,-1.94328 0.054,-5.22317 0.054,-5.22317 l -6.77053,3.36087 -16.74,5.92933 c 0,0 -4.01067,4.01067 -4.53333,5.23067 -0.52267,1.22133 1.172,5.14 4.07333,2.48266"
       style="opacity:0.199997;fill:#000000;fill-opacity:1;fill-rule:nonzero;stroke:none;stroke-width:1.33333"
       id="path3"
       sodipodi:nodetypes="csczccccc" /><path
       id="path4"
       style="opacity:0.199997;fill:#000000;fill-opacity:1;fill-rule:nonzero;stroke:none;stroke-width:1.33333"
       d="m 309.64453,119.3418 c 0,0 -4.90065,5.52744 -7.19531,7.30078 -2.29334,1.772 -17.3262,-6.15781 -25.24219,-3.75781 l -16.7955,-7.25953 c 3.1283,0.83326 11.73792,15.45582 14.00058,14.66382 2.26134,-0.792 13.95488,0.61713 16.04687,1.31446 2.09333,0.69733 6.2779,3.4882 6.97657,4.18554 0.34056,0.34057 0.5927,1.76397 0.68554,3.21094 h 2.02149 c 0.22224,-0.65873 0.5156,-1.33579 0.94336,-2.0293 1.316,-2.13466 2.59887,-4.08827 3.76953,-6.34961 4.05866,-7.83732 4.78906,-11.27929 4.78906,-11.27929 z"
       sodipodi:nodetypes="cccccccccccc" /><path
       id="path5"
       style="fill:#000000;fill-opacity:1;fill-rule:nonzero;stroke:none;stroke-width:1.33333"
       d="m 323.65266,135.83067 c 0,0 4.52,-5.27333 10.924,-5.83866 z m -24.64027,1.38347 c 0,0 -4.92,-5.284 -8.56533,-6.196 -3.644,-0.91067 -13.848,-1.64 -16.03467,-0.728 0,0 12.39067,-0.18267 15.124,1.82133 2.73334,2.00534 10.56934,6.92534 9.476,5.10267" /><path
       id="path6"
       style="fill:#000000;fill-opacity:1;fill-rule:nonzero;stroke:none;stroke-width:1.33333"
       d="m 307.43626,124.16934 c 0,0 -1.78667,3.572 -3.572,4.86267 -1.78667,1.29066 -14.38449,-1.68331 -19.73408,-2.7231 -2.17287,-0.42234 -3.99979,-0.89911 -8.2926,-1.79314 -8.16729,-1.70094 -12.28677,-7.62219 -15.28159,-9.00873 0,0 7.79744,1.74755 13.86411,3.27982 6.06667,1.53228 7.45953,1.77736 13.09392,2.7103 5.63439,0.93293 15.35691,2.27485 16.84624,2.27485 1.488,0 3.076,0.39733 3.076,0.39733 m 15.99973,3.8984 c 2.268,-2.268 4.144,-5.27333 9.98267,-6.404 5.83866,-1.13067 8.98712,-2.11136 11.67614,-2.75274 2.68903,-0.64138 3.27219,-2.13865 3.20439,-2.01171 -0.82395,1.54272 -2.30739,6.85791 -5.79926,7.59217 -3.49188,0.73426 -5.12661,1.31628 -10.0226,2.06961 -4.89734,0.75334 -12.432,4.89734 -9.04134,1.50667"
       sodipodi:nodetypes="ccssczzsccszszcc" /></g></svg>
