<?xml version="1.0" encoding="UTF-8" standalone="no"?>
<!-- Created with Inkscape (http://www.inkscape.org/) -->

<svg
   version="1.1"
   id="svg156786"
   width="400"
   height="400"
   viewBox="0 0 400 400"
   sodipodi:docname="Eyes10.svg"
   inkscape:version="1.2.2 (b0a8486, 2022-12-01)"
   xmlns:inkscape="http://www.inkscape.org/namespaces/inkscape"
   xmlns:sodipodi="http://sodipodi.sourceforge.net/DTD/sodipodi-0.dtd"
   xmlns="http://www.w3.org/2000/svg"
   xmlns:svg="http://www.w3.org/2000/svg">
  <defs
     id="defs156790" />
  <sodipodi:namedview
     id="namedview156788"
     pagecolor="#ffffff"
     bordercolor="#666666"
     borderopacity="1.0"
     inkscape:showpageshadow="2"
     inkscape:pageopacity="0.0"
     inkscape:pagecheckerboard="0"
     inkscape:deskcolor="#d1d1d1"
     showgrid="false"
     inkscape:zoom="9.08"
     inkscape:cx="288.76652"
     inkscape:cy="130.39648"
     inkscape:window-width="2141"
     inkscape:window-height="1128"
     inkscape:window-x="2131"
     inkscape:window-y="131"
     inkscape:window-maximized="0"
     inkscape:current-layer="g7101">
    <inkscape:page
       x="0"
       y="0"
       id="page156792"
       width="400"
       height="400" />
  </sodipodi:namedview>
  <g
     id="g156794"
     inkscape:groupmode="layer"
     inkscape:label="Eyes">
    <path
       d="m 323.01239,141.14147 c 0.49867,0.43734 0.776,1.03867 1.288,1.39734 0.616,0.43066 1.18934,0.91466 1.844,1.28533 1.43867,0.81467 3.04934,1.22533 4.668,1.06933 5.66,-0.548 6.492,-0.18266 8.156,-1.64266 0,0 -0.088,4.69333 -1.95733,5.54 -1.87067,0.848 -7.696,0.48266 -10.02667,-1.52534 -0.90133,-0.776 -1.63866,-1.79066 -2.32933,-2.78533 -0.72533,-1.04267 -1.46,-2.00267 -1.64267,-3.33867"
       style="opacity:0.199997;fill:#000000;fill-opacity:1;fill-rule:nonzero;stroke:none;stroke-width:1.33333"
       id="path164020" />
    <path
       d="m 336.60479,142.64107 c 0.59333,-0.192 1.01733,-0.78266 1.01733,-0.78266 l 2.41867,-2.9 -0.30133,-5.128 -6.96267,-0.97334 c 0,0 -6.35333,1.64267 -7.65733,3.04267 -1.304,1.39867 -1.94133,4.47067 -1.96933,4.56267 0,0 0.13866,0.94266 0.66533,1.064 0.52667,0.12133 3.412,2.12933 4.43867,2.068 0.736,-0.0427 5.95733,-0.224 6.80133,-0.43734 0.844,-0.21333 1.54933,-0.516 1.54933,-0.516"
       style="fill:#ffffff;fill-opacity:1;fill-rule:nonzero;stroke:none;stroke-width:1.33333"
       id="path164074" />
    <path
       d="m 273.57586,134.89254 3.88,-2.41333 12.45067,0.296 4.56533,3.27333 2.43067,3.48667 -0.98534,1.64266 c -1.204,0.0147 -2.32266,0.0613 -3.452,0.524 -0.824,0.33867 -1.53066,0.94134 -2.412,1.13334 -1.06533,0.23333 -2.41333,0.268 -3.47333,0.14666 -2.448,-0.28 -4.596,0.20667 -6.80133,-1.08933 -0.36667,-0.216 -1,-0.636 -1.39467,-0.78533 -0.16667,-0.0627 -0.62533,-0.32534 -0.74267,-0.46534 -0.0307,-0.0373 -4.29066,-5.15333 -4.29066,-5.15333 z"
       style="fill:#ffffff;fill-opacity:1;fill-rule:nonzero;stroke:none;stroke-width:1.33333"
       id="path164078" />
    <path
       d="m 291.54479,133.72534 c 0.24534,0.91733 0.73467,2.592 0.64,3.58267 -0.22133,2.30666 -1.60933,4.388 -3.47466,5.37466 l -6.41734,-0.31333 c -2.372,-1.34533 -3.75333,-3.87467 -3.37466,-6.84133 0.112,-0.87334 0.408,-1.90667 0.80666,-2.65067 3.17467,-0.67733 8.44667,0.14267 11.82,0.848"
       style="fill:#754324;fill-opacity:1;fill-rule:nonzero;stroke:none;stroke-width:1.33333"
       id="path164082" />
    <path
       d="m 282.75279,135.99001 c -0.224,1.59333 0.87467,3.07066 2.45467,3.29866 1.57867,0.228 3.04133,-0.88 3.26667,-2.47333 0.224,-1.59333 -0.87467,-3.07067 -2.45467,-3.29867 -1.58,-0.228 -3.04267,0.88 -3.26667,2.47334"
       style="fill:#000000;fill-opacity:1;fill-rule:nonzero;stroke:none;stroke-width:1.33333"
       id="path164086" />
    <path
       d="m 291.72666,137.24307 c 0.0773,-0.80266 -0.36133,-2.284 -0.54267,-3.08533 -3.04266,-0.62533 -8.07333,-1.416 -11.17866,-0.84933 -0.32534,0.65866 -0.55467,1.50666 -0.652,2.19066 -0.364,2.58667 0.84133,5.088 3.07333,6.404 l 6.17467,0.30267 c 1.70666,-0.95333 2.92666,-2.888 3.12533,-4.96267 m -9.66267,5.53734 c -2.63333,-1.49334 -3.996,-4.184 -3.6,-7.28534 0.11467,-0.9 0.42534,-2.008 0.868,-2.836 l 0.11334,-0.21066 0.22,-0.0467 c 3.14666,-0.67067 8.148,0.0373 11.97733,0.83733 l 0.256,0.0533 0.0747,0.27733 c 0.272,1.01733 0.768,2.77467 0.66933,3.80267 -0.232,2.41466 -1.69733,4.66 -3.71467,5.728 l -0.11333,0.06 -6.65467,-0.32534 z"
       style="fill:#000000;fill-opacity:1;fill-rule:nonzero;stroke:none;stroke-width:1.33333"
       id="path164090" />
    <path
       d="m 284.87986,135.67454 c 0,0.85467 -0.68667,1.548 -1.53467,1.548 -0.848,0 -1.53466,-0.69333 -1.53466,-1.548 0,-0.85467 0.68666,-1.548 1.53466,-1.548 0.848,0 1.53467,0.69333 1.53467,1.548"
       style="fill:#ffffff;fill-opacity:1;fill-rule:nonzero;stroke:none;stroke-width:1.33333"
       id="path164094" />
    <path
       d="m 288.63706,131.54561 c 1.628,0.27466 4.87733,1.99066 6.03333,3.48266 0.53734,0.69467 1.17734,1.05734 1.63067,1.85067 0.188,0.32933 1.00533,0.71733 1.17467,1.02667 0.18,0.32666 0.46666,0.56533 0.64933,0.884 0.12667,0.22 0.15867,0.42266 0.12,0.608 -0.0533,0.25066 -0.23467,0.472 -0.48533,0.668 0.004,-0.34 0.14133,-0.66534 -0.064,-0.95734 -0.41734,-0.58933 -1.624,-0.916 -2.14267,-1.37733 -0.58133,-0.51733 -1.168,-1.02133 -1.76667,-1.504 -0.97466,-0.788 -2.06266,-2.04267 -3.196,-2.356 -4.62933,-1.276 -8.76,-1.21467 -11.29066,-0.69733 -2.41734,0.49333 -4.13734,1.7 -4.12934,2.77466 0.009,1.07467 2.93067,4.97867 2.93067,4.97867 -2.464,-0.57867 -5.288,-2.9 -6.524,-4.66933 -1.236,-1.77067 -2.672,-6.096 -2.672,-6.096 1.72667,0.856 6.18933,0.92666 9.94267,0.644 3.75466,-0.284 7.04133,0.276 9.78933,0.74"
       style="fill:#000000;fill-opacity:1;fill-rule:nonzero;stroke:none;stroke-width:1.33333"
       id="path164098" />
    <path
       d="m 332.53946,133.68054 c -1.12533,0.50533 -3.144,0.496 -3.93467,0.93467 -1.44266,0.80133 -2.036,1.012 -3.32133,3.332 0.26667,2.56 1.644,4.392 3.464,5.17733 l 6.25866,-0.23733 c 1.59867,-1.28134 2.54134,-3.584 2.54134,-5.94134 0,-1.012 -0.244,-2.64933 -0.588,-3.48933 -1.26267,0 -2.81734,0.21333 -4.42,0.224"
       style="fill:#754324;fill-opacity:1;fill-rule:nonzero;stroke:none;stroke-width:1.33333"
       id="path164110" />
    <path
       d="m 334.85946,137.70707 c 0,1.65867 -1.344,3.00267 -3.00267,3.00267 -1.65866,0 -3.00266,-1.344 -3.00266,-3.00267 0,-1.65866 1.344,-3.00266 3.00266,-3.00266 1.65867,0 3.00267,1.344 3.00267,3.00266"
       style="fill:#000000;fill-opacity:1;fill-rule:nonzero;stroke:none;stroke-width:1.33333"
       id="path164114" />
    <path
       d="m 331.09733,135.63961 c 0,0.90933 -0.73734,1.64666 -1.64667,1.64666 -0.90933,0 -1.64667,-0.73733 -1.64667,-1.64666 0,-0.90934 0.73734,-1.64667 1.64667,-1.64667 0.90933,0 1.64667,0.73733 1.64667,1.64667"
       style="fill:#ffffff;fill-opacity:1;fill-rule:nonzero;stroke:none;stroke-width:1.33333"
       id="path164118" />
    <path
       d="m 325.54413,138.04747 c 0.276,2.13334 1.46,3.84 3.19466,4.604 l 6.22667,-0.228 c 1.444,-1.18666 2.336,-3.26933 2.336,-5.47733 0,-0.82667 -0.19067,-2.268 -0.46934,-3.01333 -1.47333,0.005 -5.42666,0.20666 -6.17866,0.328 -0.71067,0.116 -1.58933,0.58666 -1.92933,0.768 l -0.28934,0.15466 c -1.23866,0.656 -1.768,0.93734 -2.89066,2.864 m 3.02133,5.55067 -0.0947,-0.04 c -2.148,-0.89333 -3.59733,-2.972 -3.87866,-5.56 l -0.016,-0.152 0.076,-0.132 c 1.31066,-2.284 2.032,-2.66667 3.34266,-3.36 l 0.28667,-0.15333 c 0.496,-0.26534 1.28933,-0.35334 2.12267,-0.488 0.732,-0.11867 1.49066,-0.24267 2.00666,-0.46667 l 0.0893,-0.0373 0.0947,-0.001 c 1.428,-0.009 2.98,-0.22533 4.61333,-0.22533 h 0.27867 l 0.10667,0.25067 c 0.39333,0.92666 0.64666,2.66933 0.64666,3.71333 0,2.55067 -1.07866,4.96933 -2.816,6.312 l -0.11866,0.0933 z"
       style="fill:#000000;fill-opacity:1;fill-rule:nonzero;stroke:none;stroke-width:1.33333"
       id="path164122" />
    <path
       d="m 347.06879,130.80601 c 0,0 -2.50933,6.236 -4.08533,8.20133 -1.576,1.96667 -3.172,2.90933 -6.63867,3.70533 0,0 3.00533,-2.44266 2.99467,-4.96533 -0.009,-2.52267 -0.16,-3.744 -3.03867,-4.14 -3.51066,-0.48267 -7.088,0.48133 -8.51066,1.11333 -1.42134,0.63334 -4.424,4.67867 -4.424,4.67867 0,0 1.40933,-3.90133 2.20533,-4.496 0.79467,-0.59333 4.10667,-2.61733 6.472,-3.10667 2.128,-0.44 3.79466,-0.81066 5.45466,-0.56666 2.408,0.35466 6.32,1.13466 9.57067,-0.424"
       style="fill:#000000;fill-opacity:1;fill-rule:nonzero;stroke:none;stroke-width:1.33333"
       id="path164126" />
    <path
       d="m 297.82146,143.26827 c 0,0 -6.91467,5.85467 -12.84,6.60934 0,0 9.496,-0.37467 12.84,-6.60934"
       style="fill:#000000;fill-opacity:1;fill-rule:nonzero;stroke:none;stroke-width:1.33333"
       id="path164142" />
    <path
       d="m 324.78906,144.68974 c 0,0 2.844,3.792 8.72666,4.42933 0,0 -3.91066,0.284 -5.88266,-0.956 -1.972,-1.24133 -2.844,-3.47333 -2.844,-3.47333"
       style="fill:#000000;fill-opacity:1;fill-rule:nonzero;stroke:none;stroke-width:1.33333"
       id="path164146" />
    <path
       id="path20022"
       style="opacity:0.199997;fill:#000000;fill-opacity:1;fill-rule:nonzero;stroke:none;stroke-width:1.33333"
       d="M 299.45703 139 C 299.35958 139.2043 299.20769 139.39919 299 139.60938 C 298.63866 139.9747 298.36498 140.44303 297.93164 140.70703 C 297.59164 140.9137 296.07505 141.85841 295.76172 142.06641 C 294.70172 142.77308 293.65458 143.5068 292.64258 144.32812 C 290.09858 146.39479 284.16117 144.89212 280.0625 144.32812 C 275.9625 143.76546 271.15662 139.25481 271.86328 140.38281 C 272.56995 141.50948 277.65666 148.07061 281.47266 149.19727 C 285.80065 150.47593 289.95677 149.63208 294.10742 147.71875 C 295.88076 146.90142 298.55347 143.29715 299.4668 141.50781 C 299.912 140.63564 300.47607 139.80059 301.08398 139 L 299.45703 139 z " />
  </g>
  <g
     inkscape:groupmode="layer"
     id="layer4"
     inkscape:label="Nose Edge"
     sodipodi:insensitive="true">
    <path
       d="m 305.79026,137.52601 c -0.12667,-1.01867 -0.11333,-2.184 -0.412,-3.16667 -0.15067,-0.49333 -0.31867,-1.328 -0.78,-1.66133 -0.796,-0.57334 -1.672,0.82266 -1.976,1.34666 -0.55067,0.95467 -0.97467,1.97867 -1.53733,2.92667 0,0 1.70933,-1.39067 2.30533,-0.596 0.59467,0.79333 3.45067,9.62667 3.45067,9.62667 -0.06,-0.48934 -0.12134,-0.97734 -0.18134,-1.46534 -0.28933,-2.33733 -0.58,-4.67333 -0.86933,-7.01066"
       style="fill:#000000;fill-opacity:1;fill-rule:nonzero;stroke:none;stroke-width:1.33333"
       id="path164138" />
  </g>
  <g
     inkscape:groupmode="layer"
     id="layer3"
     inkscape:label="Standard Brows"
     style="display:none"
     sodipodi:insensitive="true">
    <path
       id="path164064"
       style="opacity:0.199997;fill:#000000;fill-opacity:1;fill-rule:nonzero;stroke:none;stroke-width:1.33333"
       d="m 309.80078,119.41992 c -1.26534,1.63333 -3.45996,4.96871 -5.5293,5.49805 -2.39732,0.61333 -4.86428,-0.53925 -6.98828,-1.53125 -2.32532,-1.08667 -4.52302,-1.99325 -7.06836,-2.50391 -4.55599,-0.91467 -9.0013,-0.62576 -13.39062,0.26758 -2.548,0.51866 -5.07571,1.23888 -7.5957,2.04688 -0.61467,0.19733 -8.75222,2.93186 -8.68555,3.0332 3.432,5.27865 10.72485,1.93187 15.74219,1.5332 4.35999,-0.348 10.01422,0.11354 14.21289,1.40821 2.07332,0.63866 5.81943,3.88409 6.38476,4.63476 0.25067,0.33333 1.54058,1.17863 1.66992,1.5293 0.16666,0.45067 0.44622,0.85746 0.57422,1.32812 0.104,0.38134 0.30919,0.75167 0.39453,1.125 0.11376,0.49936 0.0996,0.86702 -0.0645,1.21094 h 1.62695 c 0.45898,-0.60444 0.93995,-1.19086 1.42579,-1.74609 0.81599,-0.93334 2.11362,-1.7321 2.40429,-2.9961 0.45067,-1.96 -0.43495,-3.70648 0.23438,-5.64648 0.66667,-1.93733 2.075,-2.35562 2.875,-4.23828 0.56534,-1.33066 0.90134,-3.82246 1.77734,-4.95313 z m 13.85188,16.41075 c 2.63467,-2.41333 7.436,-4.57466 10.4,-5.44666 2.964,-0.872 10.288,-0.17467 10.288,-0.17467 l 2.80666,-7.11467 -6.29466,-0.90666 -8.49067,-0.11067 -8.24933,6.04 c 0,0 -4.01067,4.01067 -4.53333,5.23067 -0.52267,1.22133 1.172,5.14 4.07333,2.48266" />
    <path
       id="path164106"
       style="fill:#000000;fill-opacity:1;fill-rule:nonzero;stroke:none;stroke-width:1.33333"
       d="m 324.17239,135.31521 c 0,0 2.03067,-4.86934 12.02267,-5.352 0,0 -4.952,1.49066 -6.836,2.32266 -1.88533,0.83334 -5.18667,3.02934 -5.18667,3.02934 m -26.41733,-0.61947 c 0.0173,0.0133 0.0347,0.028 0.052,0.0413 -0.2,-0.16666 -0.35333,-0.74533 -0.50267,-0.984 -1.1,-1.74 -3.12666,-3.11866 -5.01066,-3.88133 -3.21334,-1.30133 -12.31334,-3.244 -14.32534,-2.66533 3.12267,0.45333 6.264,0.91866 9.28134,1.86533 1.932,0.60667 4.248,1.28933 5.99466,2.31067 1.63734,0.95733 3.02267,2.14133 4.51067,3.31333" />
    <path
       id="path164134"
       style="fill:#383838;fill-opacity:1;fill-rule:nonzero;stroke:none;stroke-width:1.33333"
       d="m 270.81946,120.30321 c -2.92933,1.53866 -8.28133,4.308 -10.732,6.428 1.21867,0.732 4.09867,-1.388 5.31467,-1.83067 2.16533,-0.788 4.37066,-1.484 6.61333,-2.05733 4.41867,-1.128 9.15067,-1.89734 13.73333,-1.30934 5.81867,0.748 16.38934,7.132 18.31467,5.84267 0.888,-0.596 3.124,-2.6 2.92533,-3.692 -0.18133,-0.99733 -0.208,-2.52933 -1.07866,-2.49467 -2.052,0.084 -11.576,-4.80533 -20.684,-4.60666 -6.836,0.14933 -10.744,1.79733 -14.40667,3.72 m 76.1924,0.45626 c 0.572,1.08934 0.74933,3.45334 -0.628,4.01467 -0.532,0.21733 -1.068,-0.332 -1.476,-0.6 -0.524,-0.34533 -0.98,-0.79467 -1.57734,-1.01733 -0.57733,-0.21467 -1.284,-0.14934 -1.90133,-0.152 -1.41733,-0.005 -2.83467,0.088 -4.23867,0.28 -3.008,0.40933 -5.96533,1.264 -8.72133,2.54 -1.52933,0.708 -2.99466,1.54266 -4.472,2.35066 -0.43866,0.24 -0.9,0.48267 -1.4,0.48667 0.104,-0.3 0.316,-0.548 0.524,-0.788 1.648,-1.90667 2.784,-4.664 4.80534,-6.17067 3.868,-2.88666 8.95866,-4.70666 13.82266,-3.99866 1.904,0.27733 4.25333,1.228 5.23867,3.01066 0.008,0.0147 0.016,0.0293 0.024,0.044" />
    <path
       id="path20129"
       style="color:#000000;fill:#000000;-inkscape-stroke:none"
       d="m 338.05859,117.375 c -3.7189,0.35231 -7.34733,1.93934 -10.28125,4.12891 -2.10253,1.56719 -3.23851,4.34757 -4.8457,6.20703 -0.20876,0.24088 -0.44584,0.51008 -0.57031,0.86914 l -0.11719,0.33398 0.35547,-0.002 c 0.57965,-0.005 1.07642,-0.27621 1.51758,-0.51758 1.47987,-0.80938 2.94043,-1.64164 4.45703,-2.34375 2.73274,-1.26523 5.66677,-2.11156 8.65039,-2.51758 1.39236,-0.1904 2.79732,-0.28425 4.20312,-0.27929 0.63579,0.003 1.31707,-0.049 1.81641,0.13672 0.53321,0.19875 0.97384,0.62869 1.34086,0.86971 0.36701,0.24102 0.608,0.45181 0.88966,0.61271 0.28166,0.16089 0.64243,0.28048 1.00391,0.13281 0.80572,-0.32837 1.13924,-1.17458 1.19921,-2.02344 0.06,-0.84885 0.21194,-1.60588 -0.82444,-3.01214 -1.03638,-1.40627 -3.11253,-2.22837 -5.06814,-2.51322 -1.23726,-0.18009 -2.48693,-0.19947 -3.72657,-0.082 z m 0.0449,0.5 c 1.20373,-0.1149 2.41463,-0.0958 3.60937,0.0781 1.85193,0.26974 3.81743,1.26223 4.48211,2.2633 0.66469,1.00106 0.86073,1.75241 0.80804,2.49823 -0.0527,0.74581 -0.18941,1.08074 -0.72208,1.41104 -0.17052,0.0697 -0.34507,0.0229 -0.5664,-0.10352 -0.22134,-0.12643 -0.38423,-0.16035 -0.76034,-0.39201 -0.37612,-0.23166 -0.85535,-0.61744 -1.51682,-0.864 -0.65532,-0.24368 -1.38941,-0.16539 -1.98828,-0.16797 -1.42885,-0.005 -2.8578,0.0896 -4.27344,0.2832 -3.03237,0.41265 -6.01372,1.27378 -8.79297,2.56055 -1.54206,0.71389 -3.03099,1.70851 -4.5058,2.51512 -0.22948,0.12555 -0.44945,0.15541 -0.67383,0.24024 0.0438,-0.0531 0.0606,-0.10608 0.10743,-0.16016 1.6888,-1.95388 2.82548,-4.68667 4.76562,-6.13281 2.86808,-2.14043 6.41614,-3.68461 10.02735,-4.0293 z m -52.88279,-1.54102 c -6.87406,0.15017 -10.84217,1.81869 -14.51758,3.74805 -2.92767,1.53779 -8.27389,4.29359 -10.77929,6.46094 l -0.26172,0.22461 0.29687,0.17773 c 0.38759,0.23281 0.86477,0.22517 1.35743,0.11524 0.49265,-0.10993 1.0162,-0.327 1.53711,-0.57813 1.04181,-0.50226 2.08769,-1.1485 2.63476,-1.34765 2.15852,-0.78553 4.35611,-1.47779 6.58984,-2.04883 4.40362,-1.12416 9.10487,-1.88642 13.63868,-1.30469 2.83911,0.36497 6.94031,2.13889 10.55273,3.66797 1.80621,0.76454 3.49283,1.46783 4.86328,1.90234 0.68523,0.21726 1.29034,0.36819 1.80274,0.42383 0.51239,0.0556 0.94334,0.0257 1.26757,-0.19141 0.47104,-0.31614 1.25428,-0.96893 1.91602,-1.69921 0.33087,-0.36515 0.6299,-0.74845 0.83984,-1.125 0.20995,-0.37655 0.34225,-0.75165 0.27539,-1.11914 -0.087,-0.47863 -0.13708,-1.11682 -0.28515,-1.65625 -0.074,-0.26972 -0.17097,-0.51949 -0.33594,-0.71875 -0.16496,-0.19927 -0.42203,-0.33776 -0.71289,-0.32618 -0.40607,0.0166 -1.4089,-0.25714 -2.72852,-0.69922 -1.31961,-0.44207 -2.98922,-1.03951 -4.88281,-1.63476 -3.78717,-1.19051 -8.46776,-2.37184 -13.06836,-2.27149 z m 0.0117,0.5 c 4.5074,-0.0983 9.14143,1.06457 12.90625,2.24805 1.88241,0.59174 3.54712,1.18797 4.875,1.63281 1.32788,0.44484 2.28633,0.74999 2.90625,0.72461 0.14447,-0.006 0.21802,0.0351 0.3086,0.14453 0.0906,0.10941 0.17415,0.29959 0.23828,0.53321 0.12825,0.46723 0.20227,0.94431 0.21183,1.56896 0.003,0.18141 -0.0819,0.5469 -0.26308,0.87185 -0.18117,0.32494 -0.42777,0.56929 -0.77343,0.8849 -0.71335,0.65134 -1.21658,0.93869 -1.50361,1.13022 -0.28703,0.19152 -0.60659,0.24531 -1.06353,0.19569 -0.45693,-0.0496 -1.03959,-0.19072 -1.70703,-0.40234 -1.33487,-0.42324 -3.01585,-1.01699 -4.82031,-1.78079 -3.60891,-1.52759 -7.70209,-3.21417 -10.68164,-3.59719 -4.63151,-0.59427 -9.43679,0.22691 -13.87051,1.35878 -2.2516,0.57562 -4.87702,1.46265 -6.40366,2.17039 -1.52663,0.70775 -1.94826,1.02813 -2.95511,1.51354 -0.50343,0.2427 -1.00159,0.44549 -1.42969,0.54102 -0.1714,0.0382 -0.25516,-0.0233 -0.39648,-0.0215 2.55508,-2.02763 7.35327,-4.56951 10.125,-6.02539 3.64992,-1.91598 7.49895,-3.54291 14.29687,-3.69141 z" />
    <path
       id="path20136"
       style="fill:#000000;fill-opacity:0.2;stroke:none;stroke-width:1px;stroke-linecap:butt;stroke-linejoin:miter;stroke-opacity:1"
       d="m 278.52734,119.25 c -4.04515,0.63388 -7.52843,2.2945 -10.54492,3.5957 -3.01649,1.3012 -7.57812,4.00196 -7.57812,4.00196 1.34407,0.2894 3.87707,-1.53919 4.99804,-1.94727 2.16533,-0.788 4.37062,-1.48331 6.61328,-2.05664 4.41867,-1.128 9.14977,-1.89855 13.73243,-1.31055 5.81866,0.748 16.38912,7.13308 18.31445,5.84375 0.888,-0.596 3.12445,-2.60136 2.92578,-3.69336 -0.14188,-0.78036 -0.19019,-1.88407 -0.62109,-2.3125 0,0 -0.15776,1.54098 -0.75391,2.07227 -0.59615,0.53129 -1.61042,0.8718 -3.10884,0.59961 -1.49842,-0.27219 -6.39577,-3.69966 -10.55327,-4.55469 -4.1575,-0.85503 -9.37868,-0.87216 -13.42383,-0.23828 z m 67.91407,0.70508 -1.63672,0.85156 c 0,0 -4.16883,-0.5163 -6.83203,-0.11914 -2.66321,0.39716 -5.8747,1.33601 -8.86914,2.87695 -1.56265,0.80414 -3.86287,2.52226 -5.71875,3.99024 -0.087,0.1086 -0.17388,0.21642 -0.26368,0.32031 -0.208,0.24 -0.41943,0.48711 -0.52343,0.78711 0.5,-0.004 0.96173,-0.24633 1.40039,-0.48633 1.47734,-0.808 2.94137,-1.64356 4.4707,-2.35156 2.756,-1.276 5.71466,-2.12973 8.72266,-2.53906 1.40399,-0.192 2.82095,-0.28625 4.23828,-0.28125 0.61733,0.003 1.32306,-0.0623 1.90039,0.15234 0.59734,0.22266 1.05412,0.67225 1.57812,1.01758 0.408,0.268 0.94457,0.81694 1.47657,0.59961 1.37732,-0.56133 1.19895,-2.92434 0.62695,-4.01367 -0.008,-0.0147 -0.0154,-0.0302 -0.0234,-0.0449 -0.1512,-0.27355 -0.33797,-0.52482 -0.54687,-0.75976 z" />
  </g>
  <g
     inkscape:groupmode="layer"
     id="g7101"
     inkscape:label="Vulcan Brows">
    <path
       id="path7091"
       style="opacity:0.199997;fill:#000000;fill-opacity:1;fill-rule:nonzero;stroke:none;stroke-width:1.33333"
       d="m 309.80078,119.41992 c -1.26534,1.63333 -3.45996,4.96871 -5.5293,5.49805 -2.39732,0.61333 -4.86428,-0.53925 -6.98828,-1.53125 -2.32532,-1.08667 -4.52302,-1.99325 -7.06836,-2.50391 -4.55599,-0.91467 -9.89688,-0.99017 -13.50075,-0.83374 -3.60387,0.15643 -5.89566,-0.21726 -7.5957,-0.2659 -1.70004,-0.0486 -8.53196,-2.02408 -8.46529,-1.92274 3.432,5.27865 8.63234,10.19178 13.64968,9.79311 4.35999,-0.348 11.9966,0.22367 16.19527,1.51834 2.07332,0.63866 5.81943,3.88409 6.38476,4.63476 0.25067,0.33333 1.54058,1.17863 1.66992,1.5293 0.16666,0.45067 0.44622,0.85746 0.57422,1.32812 0.104,0.38134 0.30919,0.75167 0.39453,1.125 0.11376,0.49936 0.0996,0.86702 -0.0645,1.21094 h 1.62695 c 0.45898,-0.60444 0.93995,-1.19086 1.42579,-1.74609 0.81599,-0.93334 2.11362,-1.7321 2.40429,-2.9961 0.45067,-1.96 -0.43495,-3.70648 0.23438,-5.64648 0.66667,-1.93733 2.075,-2.35562 2.875,-4.23828 0.56534,-1.33066 0.90134,-3.82246 1.77734,-4.95313 z m 13.85188,16.41075 c 2.63467,-2.41333 7.436,-4.57466 10.4,-5.44666 2.964,-0.872 10.288,-0.17467 10.288,-0.17467 0,0 2.80242,-4.32147 2.80666,-7.11467 0.004,-2.7932 -2.21977,-3.0267 -2.21977,-3.0267 l -12.56556,2.00937 -8.24933,6.04 c 0,0 -4.01067,4.01067 -4.53333,5.23067 -0.52267,1.22133 1.172,5.14 4.07333,2.48266"
       sodipodi:nodetypes="cccczzccccccccccsccsccsczccccc" />
    <path
       id="path7093"
       style="fill:#000000;fill-opacity:1;fill-rule:nonzero;stroke:none;stroke-width:1.33333"
       d="m 324.17239,135.31521 c 0,0 2.03067,-4.86934 12.02267,-5.352 0,0 -4.952,1.49066 -6.836,2.32266 -1.88533,0.83334 -5.18667,3.02934 -5.18667,3.02934 m -26.41733,-0.61947 c 0.0173,0.0133 0.0347,0.028 0.052,0.0413 -0.2,-0.16666 -0.35333,-0.74533 -0.50267,-0.984 -1.1,-1.74 -3.12666,-3.11866 -5.01066,-3.88133 -3.21334,-1.30133 -12.31334,-3.244 -14.32534,-2.66533 3.12267,0.45333 6.264,0.91866 9.28134,1.86533 1.932,0.60667 4.248,1.28933 5.99466,2.31067 1.63734,0.95733 3.02267,2.14133 4.51067,3.31333" />
    <path
       id="path7095"
       style="fill:#383838;fill-opacity:1;fill-rule:nonzero;stroke:none;stroke-width:1.33333"
       d="m 258.21846,116.14018 c 1.21867,0.732 3.3125,2.52268 5.31467,3.15335 2.00216,0.63066 5.93041,2.21984 9.41683,2.14793 3.48642,-0.0719 8.21617,-0.49559 12.79883,0.0924 5.81867,0.748 16.38934,7.132 18.31467,5.84267 0.888,-0.596 3.124,-2.6 2.92533,-3.692 -0.18133,-0.99733 -0.208,-2.52933 -1.07866,-2.49467 -2.052,0.084 -11.576,-4.80533 -20.684,-4.60666 -6.836,0.14933 -10.64478,0.40884 -14.40667,0.60499 -3.76189,0.19616 -9.99458,-1.45476 -12.601,-1.04802 z m 89.11799,3.41079 c -1.06031,1.39368 -3.29679,2.34638 -5.08127,2.68291 -1.78448,0.33654 -2.83113,0.53 -5.06466,1.05093 -2.23353,0.52093 -5.96533,1.264 -8.72133,2.54 -1.52933,0.708 -2.99466,1.54266 -4.472,2.35066 -0.43866,0.24 -0.9,0.48267 -1.4,0.48667 0.104,-0.3 0.316,-0.548 0.524,-0.788 1.648,-1.90667 2.784,-4.664 4.80534,-6.17067 3.868,-2.88666 10.63645,-3.7075 13.82266,-4.21892 3.18621,-0.51143 6.35977,-1.31776 6.40958,-1.20466 0.0498,0.1131 0.23799,1.8774 -0.82232,3.27108 z"
       sodipodi:nodetypes="czzccccczcczzzccccczzz" />
    <path
       style="color:#000000;fill:#000000;-inkscape-stroke:none"
       d="m 258.17969,115.89258 -0.21094,0.0332 v 0.35547 l 0.12109,0.0723 c 1.17275,0.70441 3.28527,2.52132 5.36914,3.17773 1.97675,0.62265 5.92989,2.23371 9.4961,2.16016 3.502,-0.0722 8.21563,-0.49346 12.76172,0.0898 2.83911,0.36497 6.94031,2.13889 10.55273,3.66797 1.80621,0.76454 3.49283,1.46783 4.86328,1.90234 0.68523,0.21726 1.29034,0.36819 1.80274,0.42383 0.51239,0.0556 0.94334,0.0257 1.26757,-0.19141 0.47104,-0.31614 1.25428,-0.96893 1.91602,-1.69921 0.33087,-0.36515 0.6299,-0.74845 0.83984,-1.125 0.20995,-0.37655 0.34225,-0.75165 0.27539,-1.11914 -0.087,-0.47863 -0.13708,-1.11682 -0.28515,-1.65625 -0.074,-0.26972 -0.17097,-0.51949 -0.33594,-0.71875 -0.16496,-0.19927 -0.42203,-0.33776 -0.71289,-0.32618 -0.40607,0.0166 -1.4089,-0.25714 -2.72852,-0.69922 -1.31961,-0.44207 -2.98922,-1.03951 -4.88281,-1.63476 -3.78717,-1.19051 -8.46776,-2.37184 -13.06836,-2.27149 -6.84029,0.14943 -10.65486,0.40946 -14.41406,0.60547 -1.83735,0.0958 -4.33095,-0.26414 -6.68555,-0.60156 -2.35459,-0.33742 -4.55729,-0.66131 -5.9414,-0.44531 z m 89.93554,0.12695 c -0.0478,-3.2e-4 -0.0921,0.003 -0.14648,0.01 -0.10885,0.0136 -0.25215,0.0399 -0.43164,0.0742 -0.35898,0.0686 -0.86031,0.17515 -1.45899,0.30078 -1.19734,0.25126 -2.78351,0.57947 -4.36914,0.83398 -3.17283,0.50927 -9.96981,1.30895 -13.93164,4.26563 -2.10253,1.56719 -3.23851,4.34757 -4.8457,6.20703 -0.20876,0.24088 -0.44584,0.51008 -0.57031,0.86914 l -0.11719,0.33398 0.35547,-0.002 c 0.57965,-0.005 1.07642,-0.27621 1.51758,-0.51758 1.47987,-0.80938 2.94043,-1.64164 4.45703,-2.34375 2.7115,-1.25539 6.43153,-2.00046 8.67383,-2.52344 2.23003,-0.52011 3.2679,-0.71027 5.05273,-1.04687 1.83153,-0.3454 4.10474,-1.29254 5.23438,-2.77734 0.56525,-0.74297 0.79382,-1.57624 0.87695,-2.23633 0.0416,-0.33005 0.0477,-0.61791 0.0391,-0.83399 -0.004,-0.10804 -0.0125,-0.19705 -0.0215,-0.26758 -0.009,-0.0705 -1.5e-4,-0.0883 -0.043,-0.18554 -2e-4,-4.4e-4 -0.0232,-0.0445 -0.0234,-0.0449 -2.9e-4,-4.2e-4 -0.0196,-0.0234 -0.0293,-0.0332 -0.0195,-0.0195 -0.0381,-0.0334 -0.0547,-0.043 -0.0332,-0.0191 -0.0566,-0.0247 -0.0762,-0.0293 -0.0392,-0.009 -0.064,-0.01 -0.0879,-0.01 z m -88.99218,0.4336 c 1.27622,-0.0464 2.92547,0.092 4.92773,0.3789 2.35382,0.33731 4.85672,0.70582 6.78125,0.60547 3.76458,-0.19629 7.56869,-0.45428 14.40039,-0.60352 4.5074,-0.0983 9.14143,1.06457 12.90625,2.24805 1.88241,0.59174 3.69018,1.1148 4.83606,1.67175 1.14589,0.55695 1.70747,0.46613 2.59185,1.33639 0.88438,0.87026 0.30783,2.31354 -0.40259,3.30291 -0.6286,0.69371 -1.21258,1.10761 -1.49961,1.29914 -0.939,0.42629 -1.79953,-0.0513 -2.65374,-0.28452 -1.33487,-0.42324 -2.58754,-0.96717 -4.392,-1.73097 -3.60891,-1.52759 -6.88225,-3.21527 -10.68164,-3.70312 -3.79939,-0.48786 -9.2804,0.069 -12.99169,0.2178 -3.71129,0.14884 -7.31032,-1.49806 -9.33789,-2.13672 -1.60832,-0.50661 -3.22582,-1.73971 -4.48437,-2.60156 z m 88.326,0.73702 c 0.25122,0.32837 -0.28424,1.34538 -0.7793,1.99609 -0.99098,1.30255 -3.20978,2.1629 -4.92774,2.58789 -1.76246,0.436 -2.41084,0.55046 -4.64786,1.07221 -2.22475,0.51888 -5.93009,1.45472 -8.73059,2.75133 -1.54206,0.71389 -3.01152,1.55276 -4.48633,2.35937 -0.22948,0.12555 -0.44945,0.15541 -0.67383,0.24024 0.0438,-0.0531 0.0606,-0.10608 0.10743,-0.16016 1.6888,-1.95388 2.82548,-4.68667 4.76562,-6.13281 3.77417,-2.81664 10.51331,-3.66027 13.71289,-4.17383 1.60058,-0.25692 3.58219,-0.7286 4.39258,-0.83789 0.81039,-0.10929 1.01591,-0.0308 1.26713,0.29756 z"
       id="path7136"
       sodipodi:nodetypes="ccccsscssscsscsscsscssscccssscccccccsssscsssccccccsscszzcccszzsczssssscccszz" />
    <path
       id="path7144"
       style="fill:#000000;fill-opacity:0.2;stroke:none;stroke-width:1px;stroke-linecap:butt;stroke-linejoin:miter;stroke-opacity:1"
       d="M 348.1582 116.2793 C 348.12825 116.21129 346.91526 116.48354 345.30273 116.81641 C 344.68597 117.94395 343.84372 119.2417 342.95117 119.82422 C 341.23029 120.94734 339.12991 120.18191 336.67383 120.92578 C 334.21775 121.66965 330.95324 123.14924 328.41406 124.55859 C 326.52337 125.60802 324.13087 127.34501 322.76172 128.35547 C 322.69966 128.4541 322.63598 128.55155 322.59766 128.66211 C 323.09766 128.65811 323.55939 128.41578 323.99805 128.17578 C 325.47539 127.36778 326.93942 126.53222 328.46875 125.82422 C 331.22475 124.54822 334.95788 123.80609 337.19141 123.28516 C 339.42493 122.76423 340.47138 122.57091 342.25586 122.23438 C 344.04034 121.89785 346.27563 120.94446 347.33594 119.55078 C 348.39625 118.1571 348.208 116.3924 348.1582 116.2793 z M 258.87109 116.57812 C 260.11085 117.42863 261.83831 118.75909 263.5332 119.29297 C 265.53536 119.92363 269.4628 121.51332 272.94922 121.44141 C 276.43564 121.36951 281.16539 120.94521 285.74805 121.5332 C 291.56671 122.2812 302.13717 128.66628 304.0625 127.37695 C 304.9505 126.78095 307.18695 124.77559 306.98828 123.68359 C 306.80695 122.68626 306.78082 121.15479 305.91016 121.18945 C 305.70949 121.19767 305.41823 121.14781 305.08203 121.07031 C 304.71064 121.92977 304.27172 122.75734 303.85547 123.01758 C 302.88455 123.62458 302.64018 123.71188 300.55078 123.01758 C 298.46137 122.32328 294.51984 120.0123 291.08008 119.38281 C 287.64031 118.75332 285.73762 119.24368 281.38672 119.05273 C 277.03581 118.86178 269.45108 118.94685 264.97852 118.17188 C 263.00105 117.82923 260.76894 117.1883 258.87109 116.57812 z " />
  </g>
</svg>
