<?xml version="1.0" encoding="UTF-8" standalone="no"?>
<!-- Created with Inkscape (http://www.inkscape.org/) -->

<svg
   version="1.1"
   id="svg202860"
   width="400"
   height="400"
   viewBox="0 0 400 400"
   sodipodi:docname="Eyes5.svg"
   inkscape:version="1.2.2 (b0a8486, 2022-12-01)"
   xmlns:inkscape="http://www.inkscape.org/namespaces/inkscape"
   xmlns:sodipodi="http://sodipodi.sourceforge.net/DTD/sodipodi-0.dtd"
   xmlns="http://www.w3.org/2000/svg"
   xmlns:svg="http://www.w3.org/2000/svg">
  <defs
     id="defs202864" />
  <sodipodi:namedview
     id="namedview202862"
     pagecolor="#ffffff"
     bordercolor="#666666"
     borderopacity="1.0"
     inkscape:showpageshadow="2"
     inkscape:pageopacity="0.0"
     inkscape:pagecheckerboard="0"
     inkscape:deskcolor="#d1d1d1"
     showgrid="false"
     inkscape:zoom="1.475"
     inkscape:cx="199.66102"
     inkscape:cy="200"
     inkscape:window-width="1440"
     inkscape:window-height="810"
     inkscape:window-x="2508"
     inkscape:window-y="88"
     inkscape:window-maximized="0"
     inkscape:current-layer="g202868">
    <inkscape:page
       x="0"
       y="0"
       id="page202866"
       width="400"
       height="400" />
  </sodipodi:namedview>
  <g
     id="g202868"
     inkscape:groupmode="layer"
     inkscape:label="Page 1">
    <path
       d="m 277.20666,122.88561 -14.82133,6.27733 c 0,0 -2.79067,0.52267 0,0 2.78933,-0.52267 9.764,1.91867 12.02666,1.12667 2.26134,-0.792 13.95467,0.61733 16.04667,1.31466 2.09333,0.69734 6.27733,3.488 6.976,4.18534 0.69733,0.69733 1.04533,5.928 0.348,6.62533 -0.69733,0.69867 -2.28667,1.22133 -5.14133,3.13867 -2.85467,1.91866 -9.51467,0.524 -14.11467,0 -4.59867,-0.52267 -9.99067,-4.708 -9.19733,-3.66134 0.79333,1.04667 3.49866,7.41867 12.156,8.616 8.656,1.19734 10.87733,-0.81866 14.888,-2.912 4.01066,-2.092 2.10666,-6.40133 4.712,-10.62533 1.316,-2.13467 2.6,-4.08933 3.77066,-6.35067 4.05867,-7.83733 4.78934,-11.27866 4.78934,-11.27866 0,0 -4.90134,5.52666 -7.196,7.3 -2.29334,1.772 -17.32667,-6.156 -25.24267,-3.756"
       style="opacity:0.199997;fill:#000000;fill-opacity:1;fill-rule:nonzero;stroke:none;stroke-width:1.33333"
       id="path206542" />
    <path
       d="m 296.82453,147.19601 c 0,0 -5.37334,3.28 -11.04534,3.624 0,0 7.94,1.732 11.04534,-3.624"
       style="fill:#000000;fill-opacity:1;fill-rule:nonzero;stroke:none;stroke-width:1.33333"
       id="path206552" />
    <path
       d="m 321.56666,139.62561 c 0,0 3.68667,5.92933 9.38267,5.40533 5.69733,-0.52267 6.53599,-0.17467 8.21066,-1.56933 0,0 -0.088,4.484 -1.97067,5.29333 -1.88266,0.80933 -7.74799,0.46133 -10.09333,-1.45733 -2.34533,-1.91734 -5.52933,-7.672 -5.52933,-7.672"
       style="opacity:0.199997;fill:#000000;fill-opacity:1;fill-rule:nonzero;stroke:none;stroke-width:1.33333"
       id="path206562" />
    <path
       d="m 323.65266,135.83067 c 2.63467,-2.41333 7.436,-4.57466 10.4,-5.44666 2.964,-0.872 10.288,-0.17467 10.288,-0.17467 l 3.31333,-5.05733 -6.80133,-2.964 -16.74,5.92933 c 0,0 -4.01067,4.01067 -4.53333,5.23067 -0.52267,1.22133 1.172,5.14 4.07333,2.48266"
       style="opacity:0.199997;fill:#000000;fill-opacity:1;fill-rule:nonzero;stroke:none;stroke-width:1.33333"
       id="path206578" />
    <path
       d="m 336.27799,143.55774 c 0.588,-0.15067 0.864,-0.34267 0.864,-0.34267 l 2.85067,-2.912 -0.056,-5.84266 -7.00933,-0.92934 c 0,0 -6.396,1.56934 -7.70934,2.90667 -1.312,1.336 -1.95466,4.272 -1.98266,4.35867 0,0 0.14,0.90133 0.67066,1.01733 0.53067,0.116 3.43467,2.03467 4.468,1.976 1.03334,-0.0573 7.904,-0.232 7.904,-0.232"
       style="fill:#ffffff;fill-opacity:1;fill-rule:nonzero;stroke:none;stroke-width:1.33333"
       id="path206600" />
    <path
       d="m 270.76559,138.39214 4.41867,-2.45733 14.22133,-0.55867 5.232,2.68133 2.832,3.016 -1.22933,1.56267 -3.228,0.224 c 0,0 -2.13333,1.84267 -4.41867,1.78667 -2.28533,-0.056 -13.15466,-1.284 -13.15466,-1.284 l -4.92667,-4.412 z"
       style="fill:#ffffff;fill-opacity:1;fill-rule:nonzero;stroke:none;stroke-width:1.33333"
       id="path206604" />
    <path
       d="m 277.90026,135.41161 c -0.36667,0.83066 -0.57333,1.748 -0.57333,2.71333 0,2.252 1.13333,4.46 2.82933,5.684 l 6.352,0.59733 c 2.51733,-0.97866 4.304,-3.41866 4.304,-6.28133 0,-0.84267 -0.16133,-1.64667 -0.444,-2.392 -3.116,-0.96667 -8.88667,-0.65067 -12.468,-0.32133"
       style="fill:#754324;fill-opacity:1;fill-rule:nonzero;stroke:none;stroke-width:1.33333"
       id="path206608" />
    <path
       d="m 286.93853,138.12521 c 0,1.584 -1.284,2.86933 -2.86934,2.86933 -1.584,0 -2.868,-1.28533 -2.868,-2.86933 0,-1.584 1.284,-2.86934 2.868,-2.86934 1.58534,0 2.86934,1.28534 2.86934,2.86934"
       style="fill:#000000;fill-opacity:1;fill-rule:nonzero;stroke:none;stroke-width:1.33333"
       id="path206612" />
    <path
       d="m 280.32893,143.35934 6.11066,0.57333 c 2.37734,-0.96933 3.908,-3.23733 3.908,-5.808 0,-0.68 -0.11333,-1.356 -0.33733,-2.012 -3.06133,-0.85733 -8.55867,-0.55066 -11.78933,-0.264 -0.28534,0.72934 -0.42934,1.49334 -0.42934,2.276 0,2.02534 0.992,4.06534 2.53734,5.23467 m 6.244,1.52 -6.58534,-0.61867 -0.10266,-0.0747 c -1.836,-1.324 -3.02134,-3.704 -3.02134,-6.06134 0,-1.00266 0.20534,-1.97866 0.612,-2.9 l 0.10934,-0.25066 0.27333,-0.0253 c 4.06533,-0.37333 9.56,-0.61866 12.64667,0.34134 l 0.216,0.0667 0.0813,0.212 c 0.31467,0.828 0.47467,1.688 0.47467,2.556 0,2.99334 -1.80667,5.628 -4.60134,6.71467 z"
       style="fill:#000000;fill-opacity:1;fill-rule:nonzero;stroke:none;stroke-width:1.33333"
       id="path206616" />
    <path
       d="m 283.14293,137.38521 c 0,0.86933 -0.704,1.57333 -1.57334,1.57333 -0.86933,0 -1.57333,-0.704 -1.57333,-1.57333 0,-0.86934 0.704,-1.57334 1.57333,-1.57334 0.86934,0 1.57334,0.704 1.57334,1.57334"
       style="fill:#ffffff;fill-opacity:1;fill-rule:nonzero;stroke:none;stroke-width:1.33333"
       id="path206620" />
    <path
       d="m 297.73679,141.40534 c -0.0173,-0.0307 -3.196,-6.52933 -8.92933,-6.924 -5.284,-0.36533 -10.85467,0.54667 -13.672,0.54667 -2.81733,0 -5.63467,3.644 -5.63467,3.644 0,0 3.64534,4.556 6.46267,4.92 l -4.14267,-4.92 c 0,0 2.15467,-1.82267 4.972,-2.004 2.81734,-0.18267 10.44,-0.18267 12.76,0.18133 2.32134,0.36533 8.184,4.556 8.184,4.556"
       style="fill:#000000;fill-opacity:1;fill-rule:nonzero;stroke:none;stroke-width:1.33333"
       id="path206624" />
    <path
       d="m 299.01239,137.21414 c 0,0 -4.92,-5.284 -8.56533,-6.196 -3.644,-0.91067 -13.848,-1.64 -16.03467,-0.728 0,0 12.39067,-0.18267 15.124,1.82133 3.308,2.42667 10.316,6.504 9.476,5.10267"
       style="fill:#000000;fill-opacity:1;fill-rule:nonzero;stroke:none;stroke-width:1.33333"
       id="path206628" />
    <path
       d="m 339.07919,129.89774 c -12.59066,0.104 -15.42666,5.93333 -15.42666,5.93333 0,0 4.64933,-3.23866 7.86133,-4.27466 3.21333,-1.03734 7.56533,-1.65867 7.56533,-1.65867"
       style="fill:#000000;fill-opacity:1;fill-rule:nonzero;stroke:none;stroke-width:1.33333"
       id="path206632" />
    <path
       d="m 332.48479,134.22507 c -1.16,0.44934 -3.236,0.37867 -4.04533,0.812 -1.47733,0.792 -2.084,1 -3.4,3.292 0.27333,2.52667 1.68267,4.336 3.54667,5.112 l 6.40533,-0.23466 c 1.636,-1.26534 2.6,-3.54 2.6,-5.868 0,-0.99867 -0.2,-1.94534 -0.552,-2.804 -1.30267,-0.12934 -2.904,-0.25467 -4.55467,-0.30934"
       style="fill:#754324;fill-opacity:1;fill-rule:nonzero;stroke:none;stroke-width:1.33333"
       id="path206636" />
    <path
       d="m 334.71679,138.09081 c 0,1.63733 -1.328,2.96533 -2.96533,2.96533 -1.63733,0 -2.96533,-1.328 -2.96533,-2.96533 0,-1.63734 1.328,-2.96534 2.96533,-2.96534 1.63733,0 2.96533,1.328 2.96533,2.96534"
       style="fill:#000000;fill-opacity:1;fill-rule:nonzero;stroke:none;stroke-width:1.33333"
       id="path206640" />
    <path
       d="m 331.00186,136.04921 c 0,0.89866 -0.728,1.62666 -1.62667,1.62666 -0.89733,0 -1.62666,-0.728 -1.62666,-1.62666 0,-0.89867 0.72933,-1.62667 1.62666,-1.62667 0.89867,0 1.62667,0.728 1.62667,1.62667"
       style="fill:#ffffff;fill-opacity:1;fill-rule:nonzero;stroke:none;stroke-width:1.33333"
       id="path206644" />
    <path
       d="m 325.51799,138.42707 c 0.27334,2.10667 1.44134,3.792 3.15467,4.54667 l 6.14933,-0.22533 c 1.42533,-1.172 2.30533,-3.22934 2.30533,-5.40934 0,-0.816 -0.14,-1.612 -0.41733,-2.37066 -1.464,-0.14 -2.85867,-0.232 -4.14933,-0.27734 -0.60933,0.21734 -1.38133,0.31067 -2.128,0.40134 -0.70667,0.0853 -1.43867,0.17466 -1.77467,0.35333 l -0.28533,0.15333 c -1.224,0.648 -1.74533,0.92534 -2.85467,2.828 m 2.984,5.48134 -0.0947,-0.0387 c -2.12,-0.884 -3.552,-2.936 -3.82934,-5.492 l -0.016,-0.14933 0.0747,-0.13067 c 1.29467,-2.25467 2.008,-2.63333 3.30133,-3.31867 l 0.28267,-0.15066 c 0.48933,-0.26134 1.272,-0.35734 2.1,-0.45734 0.72933,-0.088 1.48267,-0.17866 1.996,-0.37866 l 0.088,-0.0333 0.096,0.003 c 1.41866,0.0467 2.96133,0.15067 4.584,0.31067 l 0.27733,0.028 0.10533,0.25733 c 0.39067,0.948 0.588,1.95067 0.588,2.98133 0,2.51867 -1.06533,4.908 -2.78,6.23467 l -0.11866,0.0907 z"
       style="fill:#000000;fill-opacity:1;fill-rule:nonzero;stroke:none;stroke-width:1.33333"
       id="path206648" />
    <path
       d="m 336.30679,134.88894 c 2.852,0.556 2.35333,1.69467 2.35333,4.144 0,2.448 -2.38266,4.52533 -2.38266,4.52533 3.44,-0.56533 4.55466,-4.14933 4.55466,-4.14933 l 1.26667,-5.65067 c 0,0 -3.60933,-0.75333 -9.412,-0.75333 -2.38933,0 -6.22933,1.97467 -7.02,2.50267 -0.78933,0.52933 -2.20133,4.232 -2.20133,4.232 0,0 2.31467,-3.11467 3.72667,-3.644 1.412,-0.52934 5.63733,-1.884 9.11466,-1.20667"
       style="fill:#000000;fill-opacity:1;fill-rule:nonzero;stroke:none;stroke-width:1.33333"
       id="path206652" />
    <path
       d="m 323.43599,128.06774 c 2.268,-2.268 4.16934,-7.27733 10.008,-8.40667 5.83867,-1.13066 10.42533,-2.19733 12.12,-0.12533 1.696,2.072 1.98133,4.95333 0.66267,6.46 -1.31867,1.50667 -3.01334,0.94133 -4.332,-0.376 -1.31867,-1.31867 -4.52134,0.188 -9.41733,0.94133 -4.89734,0.75334 -12.432,4.89734 -9.04134,1.50667"
       style="fill:#000000;fill-opacity:1;fill-rule:nonzero;stroke:none;stroke-width:1.33333"
       id="path206656" />
    <path
       d="m 308.95493,121.28521 c 0,0 -3.336,7.20666 -5.12267,8.496 -1.78667,1.29066 -15.008,-2.31867 -20.36667,-3.31067 -2.448,-0.45333 -5.06133,-0.22133 -7.51733,0.0267 -3.11467,0.31466 -6.216,0.84 -9.25733,1.57733 -1.20267,0.29067 -2.39867,0.61733 -3.572,1.00667 -0.50534,0.168 -1.01867,0.33466 -1.50667,0.548 -0.336,0.14666 -1.064,0.484 -1.20933,-0.12 -0.0853,-0.36134 0.51466,-1.01334 0.704,-1.304 0.64,-0.98 1.30266,-1.944 2,-2.88267 1.31466,-1.77067 2.82133,-3.836 4.80266,-4.912 3.47334,-1.88533 14.38667,-2.78933 18.55467,-1.49867 4.168,1.28934 15.12933,4.31067 16.61867,4.31067 1.488,0 5.872,-1.93733 5.872,-1.93733"
       style="fill:#000000;fill-opacity:1;fill-rule:nonzero;stroke:none;stroke-width:1.33333"
       id="path206660" />
    <path
       d="m 305.35226,133.99374 1.488,12.008 c 0,0 -2.48,-10.916 -3.076,-11.71067 -0.59467,-0.79333 -2.67867,2.68 -2.67867,2.68 l 3.77067,-6.352 z"
       style="fill:#000000;fill-opacity:1;fill-rule:nonzero;stroke:none;stroke-width:1.33333"
       id="path206664" />
    <path
       d="m 326.45453,146.87201 c 0,0 7.91066,3.516 11.30133,1.884 0,0 -4.52133,3.38933 -11.30133,-1.884"
       style="fill:#000000;fill-opacity:1;fill-rule:nonzero;stroke:none;stroke-width:1.33333"
       id="path206668" />
  </g>
</svg>
