<?xml version="1.0" encoding="UTF-8" standalone="no"?>
<!-- Created with Inkscape (http://www.inkscape.org/) -->

<svg
   version="1.1"
   id="svg13526"
   width="400"
   height="400"
   viewBox="0 0 400 400"
   sodipodi:docname="Eyes1.svg"
   inkscape:version="1.2.2 (b0a8486, 2022-12-01)"
   xmlns:inkscape="http://www.inkscape.org/namespaces/inkscape"
   xmlns:sodipodi="http://sodipodi.sourceforge.net/DTD/sodipodi-0.dtd"
   xmlns="http://www.w3.org/2000/svg"
   xmlns:svg="http://www.w3.org/2000/svg">
  <defs
     id="defs13530" />
  <sodipodi:namedview
     id="namedview13528"
     pagecolor="#ffffff"
     bordercolor="#666666"
     borderopacity="1.0"
     inkscape:showpageshadow="2"
     inkscape:pageopacity="0.0"
     inkscape:pagecheckerboard="0"
     inkscape:deskcolor="#d1d1d1"
     showgrid="false"
     inkscape:zoom="1.475"
     inkscape:cx="182.71186"
     inkscape:cy="200"
     inkscape:window-width="1440"
     inkscape:window-height="810"
     inkscape:window-x="2435"
     inkscape:window-y="235"
     inkscape:window-maximized="0"
     inkscape:current-layer="g13534">
    <inkscape:page
       x="0"
       y="0"
       id="page13532"
       width="400"
       height="400" />
  </sodipodi:namedview>
  <g
     id="g13534"
     inkscape:groupmode="layer"
     inkscape:label="Page 1">
    <path
       d="m 336.80719,143.55774 c 0.612,-0.15067 0.89867,-0.34267 0.89867,-0.34267 l 2.96666,-2.912 -0.0587,-5.84266 -7.29467,-0.92934 c 0,0 -6.65466,1.56934 -8.02133,2.90667 -1.36533,1.336 -2.03467,4.272 -2.064,4.35867 0,0 0.14533,0.90133 0.69867,1.01733 0.552,0.116 3.57466,2.03467 4.64933,1.976 1.076,-0.0573 8.22533,-0.232 8.22533,-0.232"
       style="fill:#ffffff;fill-opacity:1;fill-rule:nonzero;stroke:none;stroke-width:1.33333"
       id="path14542" />
    <path
       d="m 268.14893,138.39214 4.85866,-2.45733 15.63734,-0.55867 5.75333,2.68133 3.072,3.016 -1.22933,1.56267 -3.63067,0.224 c 0,0 -2.34533,1.84267 -4.85867,1.78667 -2.51333,-0.056 -14.464,-1.284 -14.464,-1.284 l -5.41733,-4.412 z"
       style="fill:#ffffff;fill-opacity:1;fill-rule:nonzero;stroke:none;stroke-width:1.33333"
       id="path14546" />
    <path
       d="m 277.90026,135.41161 c -0.36667,0.83066 -0.57333,1.748 -0.57333,2.71333 0,2.252 1.13333,4.46 2.82933,5.684 l 6.352,0.59733 c 2.51733,-0.97866 4.304,-3.41866 4.304,-6.28133 0,-0.84267 -0.16133,-1.64667 -0.444,-2.392 -3.116,-0.96667 -8.88667,-0.65067 -12.468,-0.32133"
       style="fill:#756860;fill-opacity:1;fill-rule:nonzero;stroke:none;stroke-width:1.33333"
       id="path14550" />
    <path
       d="m 286.93853,138.12521 c 0,1.584 -1.284,2.86933 -2.86934,2.86933 -1.584,0 -2.868,-1.28533 -2.868,-2.86933 0,-1.584 1.284,-2.86934 2.868,-2.86934 1.58534,0 2.86934,1.28534 2.86934,2.86934"
       style="fill:#000000;fill-opacity:1;fill-rule:nonzero;stroke:none;stroke-width:1.33333"
       id="path14554" />
    <path
       d="m 280.32893,143.35934 6.11066,0.57333 c 2.37734,-0.96933 3.908,-3.23733 3.908,-5.808 0,-0.68 -0.11333,-1.356 -0.33733,-2.012 -3.06133,-0.85733 -8.55867,-0.55066 -11.78933,-0.264 -0.28534,0.72934 -0.42934,1.49334 -0.42934,2.276 0,2.02534 0.992,4.06534 2.53734,5.23467 m 6.244,1.52 -6.58534,-0.61867 -0.10266,-0.0747 c -1.836,-1.324 -3.02134,-3.704 -3.02134,-6.06134 0,-1.00266 0.20534,-1.97866 0.612,-2.9 l 0.10934,-0.25066 0.27333,-0.0253 c 4.06533,-0.37333 9.56,-0.61866 12.64667,0.34134 l 0.216,0.0667 0.0813,0.212 c 0.31467,0.828 0.47467,1.688 0.47467,2.556 0,2.99334 -1.80667,5.628 -4.60134,6.71467 z"
       style="fill:#000000;fill-opacity:1;fill-rule:nonzero;stroke:none;stroke-width:1.33333"
       id="path14558" />
    <path
       d="m 283.14293,137.38521 c 0,0.86933 -0.704,1.57333 -1.57334,1.57333 -0.86933,0 -1.57333,-0.704 -1.57333,-1.57333 0,-0.86934 0.704,-1.57334 1.57333,-1.57334 0.86934,0 1.57334,0.704 1.57334,1.57334"
       style="fill:#ffffff;fill-opacity:1;fill-rule:nonzero;stroke:none;stroke-width:1.33333"
       id="path14562" />
    <path
       d="m 297.73679,141.40534 c 0,0 -3.644,-6.56 -8.92933,-6.924 -5.284,-0.36533 -12.756,0.54667 -15.85333,0.54667 -3.09867,0 -6.196,3.644 -6.196,3.644 0,0 4.00933,4.556 7.10666,4.92 l -4.556,-4.92 c 0,0 2.36934,-1.82267 5.468,-2.004 3.09734,-0.18267 11.48,-0.18267 14.03067,0.18133 2.552,0.36533 8.92933,4.556 8.92933,4.556"
       style="fill:#000000;fill-opacity:1;fill-rule:nonzero;stroke:none;stroke-width:1.33333"
       id="path14566" />
    <path
       d="m 299.01239,137.21414 c 0,0 -4.92,-5.284 -8.56533,-6.196 -3.644,-0.91067 -13.848,-1.64 -16.03467,-0.728 0,0 12.39067,-0.18267 15.124,1.82133 2.73334,2.00534 10.56934,6.92534 9.476,5.10267"
       style="fill:#000000;fill-opacity:1;fill-rule:nonzero;stroke:none;stroke-width:1.33333"
       id="path14570" />
    <path
       d="m 323.65266,135.83067 c 0,0 4.52,-5.27333 10.924,-5.83866 z"
       style="fill:#000000;fill-opacity:1;fill-rule:nonzero;stroke:none;stroke-width:1.33333"
       id="path14574" />
    <path
       d="m 332.48479,134.22507 c -1.16,0.44934 -3.236,0.37867 -4.04533,0.812 -1.47733,0.792 -2.084,1 -3.4,3.292 0.27333,2.52667 1.68267,4.336 3.54667,5.112 l 6.40533,-0.23466 c 1.636,-1.26534 2.6,-3.54 2.6,-5.868 0,-0.99867 -0.2,-1.94534 -0.552,-2.804 -1.30267,-0.12934 -2.904,-0.25467 -4.55467,-0.30934"
       style="fill:#756860;fill-opacity:1;fill-rule:nonzero;stroke:none;stroke-width:1.33333"
       id="path14578" />
    <path
       d="m 334.71679,138.09081 c 0,1.63733 -1.328,2.96533 -2.96533,2.96533 -1.63733,0 -2.96533,-1.328 -2.96533,-2.96533 0,-1.63734 1.328,-2.96534 2.96533,-2.96534 1.63733,0 2.96533,1.328 2.96533,2.96534"
       style="fill:#000000;fill-opacity:1;fill-rule:nonzero;stroke:none;stroke-width:1.33333"
       id="path14582" />
    <path
       d="m 331.00186,136.04921 c 0,0.89866 -0.728,1.62666 -1.62667,1.62666 -0.89733,0 -1.62666,-0.728 -1.62666,-1.62666 0,-0.89867 0.72933,-1.62667 1.62666,-1.62667 0.89867,0 1.62667,0.728 1.62667,1.62667"
       style="fill:#ffffff;fill-opacity:1;fill-rule:nonzero;stroke:none;stroke-width:1.33333"
       id="path14586" />
    <path
       d="m 325.51799,138.42707 c 0.27334,2.10667 1.44134,3.792 3.15467,4.54667 l 6.14933,-0.22533 c 1.42533,-1.172 2.30533,-3.22934 2.30533,-5.40934 0,-0.816 -0.14,-1.612 -0.41733,-2.37066 -1.464,-0.14 -2.85867,-0.232 -4.14933,-0.27734 -0.60933,0.21734 -1.38133,0.31067 -2.128,0.40134 -0.70667,0.0853 -1.43867,0.17466 -1.77467,0.35333 l -0.28533,0.15333 c -1.224,0.648 -1.74533,0.92534 -2.85467,2.828 m 2.984,5.48134 -0.0947,-0.0387 c -2.12,-0.884 -3.552,-2.936 -3.82934,-5.492 l -0.016,-0.14933 0.0747,-0.13067 c 1.29467,-2.25467 2.008,-2.63333 3.30133,-3.31867 l 0.28267,-0.15066 c 0.48933,-0.26134 1.272,-0.35734 2.1,-0.45734 0.72933,-0.088 1.48267,-0.17866 1.996,-0.37866 l 0.088,-0.0333 0.096,0.003 c 1.41866,0.0467 2.96133,0.15067 4.584,0.31067 l 0.27733,0.028 0.10533,0.25733 c 0.39067,0.948 0.588,1.95067 0.588,2.98133 0,2.51867 -1.06533,4.908 -2.78,6.23467 l -0.11866,0.0907 z"
       style="fill:#000000;fill-opacity:1;fill-rule:nonzero;stroke:none;stroke-width:1.33333"
       id="path14590" />
    <path
       d="m 336.83719,134.88894 c 2.968,0.556 2.448,1.69467 2.448,4.144 0,2.448 -2.47733,4.52533 -2.47733,4.52533 3.57866,-0.56533 4.73866,-4.14933 4.73866,-4.14933 l 1.31734,-5.65067 c 0,0 -3.75467,-0.75333 -9.79333,-0.75333 -2.48667,0 -6.48267,1.97467 -7.30534,2.50267 -0.82266,0.52933 -2.292,4.232 -2.292,4.232 0,0 2.40934,-3.11467 3.87867,-3.644 1.46933,-0.52934 5.86533,-1.884 9.48533,-1.20667"
       style="fill:#000000;fill-opacity:1;fill-rule:nonzero;stroke:none;stroke-width:1.33333"
       id="path14594" />
    <path
       d="m 333.41866,121.66387 c -5.932,0.42267 -7.71467,4.136 -9.98267,6.404 -3.39066,3.39067 4.144,-0.75333 9.04134,-1.50666 4.89733,-0.75334 7.66666,-1.58267 9.41733,-0.94134 1.62266,0.59334 5.04266,-4.24133 4.80666,-7.54266 0,0 -2.39466,2.81066 -13.28266,3.58666"
       style="fill:#000000;fill-opacity:1;fill-rule:nonzero;stroke:none;stroke-width:1.33333"
       id="path14598" />
    <path
       d="m 287.17399,122.25401 c 4.03867,1.552 15.69734,1.51866 17.19334,1.46666 1.496,-0.0533 3.092,0.28534 3.092,0.28534 0,0 -1.792,3.61733 -3.58667,4.964 -1.79467,1.348 -14.52933,-0.80534 -19.75067,-2.264 -13.80533,-3.85734 -16.94,-9.22934 -21.03466,-9.56134 0,0 7.72533,-1.17866 24.08666,5.10934"
       style="fill:#000000;fill-opacity:1;fill-rule:nonzero;stroke:none;stroke-width:1.33333"
       id="path14602" />
    <path
       d="m 305.35226,133.99374 1.488,12.008 c 0,0 -2.48,-10.916 -3.076,-11.71067 -0.59467,-0.79333 -2.67867,2.68 -2.67867,2.68 l 3.77067,-6.352 z"
       style="fill:#000000;fill-opacity:1;fill-rule:nonzero;stroke:none;stroke-width:1.33333"
       id="path14606" />
    <path
       d="m 296.21826,146.14321 c 0,0 -6.07467,2.916 -12.392,2.916 0,0 9.23333,2.18666 12.392,-2.916"
       style="fill:#000000;fill-opacity:1;fill-rule:nonzero;stroke:none;stroke-width:1.33333"
       id="path14610" />
    <path
       d="m 326.45453,146.87201 c 0,0 7.91066,3.516 11.30133,1.884 0,0 -4.52133,3.38933 -11.30133,-1.884"
       style="fill:#000000;fill-opacity:1;fill-rule:nonzero;stroke:none;stroke-width:1.33333"
       id="path14614" />
    <path
       d="m 321.49759,139.62561 c 0,0 3.836,5.92933 9.76534,5.40533 5.92799,-0.52267 6.79999,-0.17467 8.54399,-1.56933 0,0 -0.092,4.484 -2.052,5.29333 -1.95866,0.80933 -8.06133,0.46133 -10.50266,-1.45733 -2.44133,-1.91734 -5.75467,-7.672 -5.75467,-7.672"
       style="opacity:0.199997;fill:#000000;fill-opacity:1;fill-rule:nonzero;stroke:none;stroke-width:1.33333"
       id="path14624" />
    <path
       d="m 347.65372,125.15254 -3.31333,5.05733 c 0,0 -7.324,-0.69733 -10.288,0.17334 -2.964,0.872 -7.764,3.03466 -10.4,5.448 -2.90133,2.656 -4.596,-1.26267 -4.07333,-2.48267 0.524,-1.22133 4.53467,-5.232 4.53467,-5.232 l 16.73999,-5.928 c 2.45734,-1.32667 5.66,-3.52267 6.75734,-4.98667 z"
       style="opacity:0.199997;fill:#000000;fill-opacity:1;fill-rule:nonzero;stroke:none;stroke-width:1.33333"
       id="path14640" />
    <path
       d="m 277.20666,122.88561 29.46933,2.78933"
       style="opacity:0.199997;fill:#000000;fill-opacity:1;fill-rule:nonzero;stroke:none;stroke-width:1.33333"
       id="path14656" />
    <path
       d="m 306.67586,125.67561 c 0,0 -0.76533,2.684 -1.82,4.944 -1.076,2.308 -2.45467,4.21733 -3.77067,6.35066 -2.60533,4.224 -0.512,7.88667 -4.52266,9.97867 -4.01067,2.09333 -14.47334,3.31333 -19.18134,2.26667 -4.708,-1.04534 -9.94,-6.27734 -10.812,-7.32267 -0.87066,-1.04667 5.05734,3.13867 10.11467,3.66133 5.056,0.52267 12.38,1.91867 15.51867,0 3.13866,-1.91866 4.88266,-2.44133 5.58,-3.13866 0.69733,-0.69734 0.34933,-5.92934 -0.348,-6.62667 -0.69734,-0.69733 -4.88267,-3.48667 -6.976,-4.184 -2.092,-0.69867 -13.72134,-1.89333 -16.04667,-1.316 -2.56667,0.63867 -7.6,-10.708 -9.704,-13.17867 0,0 20.49733,6.03867 24.61467,7.77734 4.11733,1.73866 15.83066,-0.18267 16.56266,-1.00667 0.732,-0.82267 3.11067,-4.02533 2.928,-5.39867 0,0 -0.15733,4.59467 -2.13733,7.19334"
       style="opacity:0.199997;fill:#000000;fill-opacity:1;fill-rule:nonzero;stroke:none;stroke-width:1.33333"
       id="path14672" />
  </g>
</svg>
