<?xml version="1.0" encoding="UTF-8" standalone="no"?>
<!-- Created with Inkscape (http://www.inkscape.org/) -->

<svg
   version="1.1"
   id="svg156786"
   width="400"
   height="400"
   viewBox="0 0 400 400"
   sodipodi:docname="Eyes8.svg"
   inkscape:version="1.2.2 (b0a8486, 2022-12-01)"
   xmlns:inkscape="http://www.inkscape.org/namespaces/inkscape"
   xmlns:sodipodi="http://sodipodi.sourceforge.net/DTD/sodipodi-0.dtd"
   xmlns="http://www.w3.org/2000/svg"
   xmlns:svg="http://www.w3.org/2000/svg">
  <defs
     id="defs156790" />
  <sodipodi:namedview
     id="namedview156788"
     pagecolor="#ffffff"
     bordercolor="#666666"
     borderopacity="1.0"
     inkscape:showpageshadow="2"
     inkscape:pageopacity="0.0"
     inkscape:pagecheckerboard="0"
     inkscape:deskcolor="#d1d1d1"
     showgrid="false"
     inkscape:zoom="17.86"
     inkscape:cx="332.69877"
     inkscape:cy="134.96641"
     inkscape:window-width="2222"
     inkscape:window-height="1113"
     inkscape:window-x="2110"
     inkscape:window-y="43"
     inkscape:window-maximized="0"
     inkscape:current-layer="layer9">
    <inkscape:page
       x="0"
       y="0"
       id="page156792"
       width="400"
       height="400" />
  </sodipodi:namedview>
  <g
     id="g156794"
     inkscape:groupmode="layer"
     inkscape:label="Eyes">
    <path
       id="path81126"
       style="opacity:0.199997;fill:#000000;fill-opacity:1;fill-rule:nonzero;stroke:none;stroke-width:1.33333"
       d="M 299.38672 139 C 299.5272 139.72326 299.37466 140.17172 298.8457 140.70703 C 298.48437 141.07237 298.2081 141.54007 297.77344 141.80273 C 297.43344 142.0094 297.07341 142.18204 296.71875 142.35938 C 295.51608 142.9607 294.32964 143.58454 293.18164 144.2832 C 290.29631 146.04054 283.56339 144.7632 278.91406 144.2832 C 274.26607 143.80454 268.81586 139.96907 269.61719 140.92773 C 270.41853 141.88639 276.18763 147.46516 280.51562 148.42383 C 285.42362 149.51049 290.13513 148.79268 294.8418 147.16602 C 296.85512 146.47136 298.39588 144.39347 299.31055 142.60547 C 299.96408 141.32405 300.8653 140.11731 301.80273 139 L 299.38672 139 z " />
    <path
       d="m 323.20653,141.02521 c 0.48933,0.392 0.76266,0.932 1.26666,1.25333 0.60667,0.38667 1.16934,0.82133 1.81334,1.15333 1.41466,0.73067 2.99866,1.09867 4.592,0.95867 5.56533,-0.49067 6.38399,-0.164 8.02133,-1.47333 0,0 -0.0867,4.20933 -1.92667,4.96933 -1.83867,0.76 -7.568,0.43333 -9.86,-1.368 -0.88666,-0.696 -1.612,-1.60667 -2.29066,-2.49867 -0.71334,-0.936 -1.43734,-1.796 -1.616,-2.99466"
       style="opacity:0.199997;fill:#000000;fill-opacity:1;fill-rule:nonzero;stroke:none;stroke-width:1.33333"
       id="path164312" />
    <path
       d="m 336.57466,142.37027 c 0.58266,-0.172 1,-0.70266 1,-0.70266 l 2.37866,-2.60134 -0.296,-4.59866 -6.84799,-0.87334 c 0,0 -6.248,1.47334 -7.53067,2.728 -1.28267,1.256 -1.90933,4.01067 -1.93733,4.09334 0,0 0.13733,0.84533 0.65466,0.95466 0.51867,0.10934 3.356,1.91067 4.36667,1.856 0.724,-0.04 5.63733,-0.0267 6.46666,-0.21733 0.83067,-0.192 1.74534,-0.63867 1.74534,-0.63867"
       style="fill:#ffffff;fill-opacity:1;fill-rule:nonzero;stroke:none;stroke-width:1.33333"
       id="path164366" />
    <path
       d="m 271.55893,136.25787 4.4,-2.052 14.12,0.25067 5.17733,2.78533 2.756,2.964 -1.11733,1.39867 -3.27867,0.028 c 0,0 -2.12667,1.604 -4.396,1.428 -2.268,-0.17733 -13.05067,-1.91333 -13.05067,-1.91333 l -4.86533,-4.38267 z"
       style="fill:#ffffff;fill-opacity:1;fill-rule:nonzero;stroke:none;stroke-width:1.33333"
       id="path164370" />
    <path
       d="m 280.03306,134.13601 c -0.336,0.76133 -0.52667,1.60133 -0.52667,2.48666 0,2.06267 1.04134,4.08534 2.60134,5.208 l 5.83866,0.54667 c 2.31334,-0.896 3.956,-3.132 3.956,-5.75467 0,-0.77333 -0.148,-1.50933 -0.408,-2.192 -2.864,-0.88666 -8.16933,-0.59733 -11.46133,-0.29466"
       style="fill:#754324;fill-opacity:1;fill-rule:nonzero;stroke:none;stroke-width:1.33333"
       id="path164374" />
    <path
       d="m 288.34186,136.62241 c 0,1.452 -1.18133,2.628 -2.63733,2.628 -1.456,0 -2.63734,-1.176 -2.63734,-2.628 0,-1.452 1.18134,-2.628 2.63734,-2.628 1.456,0 2.63733,1.176 2.63733,2.628"
       style="fill:#000000;fill-opacity:1;fill-rule:nonzero;stroke:none;stroke-width:1.33333"
       id="path164378" />
    <path
       d="m 282.26573,141.41801 5.61733,0.52533 c 2.18533,-0.888 3.592,-2.96533 3.592,-5.32133 0,-0.62267 -0.104,-1.24267 -0.30933,-1.844 -2.81467,-0.78534 -7.868,-0.504 -10.83734,-0.24134 -0.26266,0.668 -0.39466,1.368 -0.39466,2.08534 0,1.856 0.912,3.72533 2.332,4.796 m 5.74,1.392 -6.05334,-0.56667 -0.0947,-0.068 c -1.688,-1.21333 -2.77867,-3.39333 -2.77867,-5.55333 0,-0.91867 0.18933,-1.81334 0.56267,-2.65734 l 0.10266,-0.22933 0.24934,-0.0227 c 3.73866,-0.34266 8.788,-0.56666 11.62666,0.312 l 0.19867,0.0613 0.0747,0.19333 c 0.28933,0.75867 0.436,1.548 0.436,2.34267 0,2.74266 -1.66,5.15733 -4.22934,6.152 z"
       style="fill:#000000;fill-opacity:1;fill-rule:nonzero;stroke:none;stroke-width:1.33333"
       id="path164382" />
    <path
       d="m 284.85266,135.94441 c 0,0.796 -0.648,1.44133 -1.44667,1.44133 -0.79866,0 -1.44666,-0.64533 -1.44666,-1.44133 0,-0.796 0.648,-1.44134 1.44666,-1.44134 0.79867,0 1.44667,0.64534 1.44667,1.44134"
       style="fill:#ffffff;fill-opacity:1;fill-rule:nonzero;stroke:none;stroke-width:1.33333"
       id="path164386" />
    <path
       d="m 290.22999,133.62961 c 1.84934,0.21733 3.468,1.316 4.77867,2.58533 0.60933,0.59067 1.16667,1.23333 1.68,1.908 0.21333,0.28133 0.46133,0.56933 0.63067,0.87867 0.18,0.32533 0.46666,0.564 0.64933,0.884 0.12667,0.22 0.15867,0.42266 0.11867,0.608 -0.052,0.25066 -0.23467,0.472 -0.484,0.668 0.004,-0.34 0.14133,-0.66534 -0.0653,-0.95734 -0.416,-0.58933 -1.108,-0.964 -1.69733,-1.356 -0.65867,-0.44 -1.32533,-0.86933 -2.00267,-1.28 -1.10666,-0.66933 -2.33333,-1.468 -3.62133,-1.72933 -2.30133,-0.46533 -9.868,-0.88 -12.66533,-0.86267 -2.79734,0.0173 -4.19334,1.26534 -4.184,2.18 0.0107,0.91334 3.32266,4.23334 3.32266,4.23334 -2.79466,-0.492 -5.996,-2.46534 -7.39733,-3.97067 -1.40133,-1.50533 -3.03067,-5.18533 -3.03067,-5.18533 0,0 2.044,1.22933 3.264,1.43733 0,0 -0.74666,-1.74667 -0.74666,-2.084 0,0 2.172,1.508 3.10533,1.612 0,0 -0.98267,-1.60533 -0.98267,-2.124 0,0 3.936,1.17067 5.57867,1.4 1.644,0.22933 4.70933,0.0907 13.74933,1.15467"
       style="fill:#000000;fill-opacity:1;fill-rule:nonzero;stroke:none;stroke-width:1.33333"
       id="path164390" />
    <path
       d="m 332.00839,134.14254 c -1.08133,0.468 -3.02133,0.45867 -3.78133,0.86667 -1.38533,0.74266 -1.956,0.93733 -3.19067,3.08933 0.25734,2.372 1.58,4.07067 3.32934,4.8 l 6.01333,-0.22133 c 1.536,-1.188 2.44,-3.32267 2.44,-5.508 0,-0.93734 -0.23334,-2.456 -0.564,-3.23467 -1.21334,0.001 -2.70667,0.19867 -4.24667,0.208"
       style="fill:#754324;fill-opacity:1;fill-rule:nonzero;stroke:none;stroke-width:1.33333"
       id="path164402" />
    <path
       d="m 334.12106,137.87521 c 0,1.53733 -1.24667,2.784 -2.784,2.784 -1.53733,0 -2.78267,-1.24667 -2.78267,-2.784 0,-1.53734 1.24534,-2.784 2.78267,-2.784 1.53733,0 2.784,1.24666 2.784,2.784"
       style="fill:#000000;fill-opacity:1;fill-rule:nonzero;stroke:none;stroke-width:1.33333"
       id="path164406" />
    <path
       d="m 330.63346,135.95867 c 0,0.84267 -0.684,1.52667 -1.52667,1.52667 -0.84266,0 -1.52666,-0.684 -1.52666,-1.52667 0,-0.84266 0.684,-1.52666 1.52666,-1.52666 0.84267,0 1.52667,0.684 1.52667,1.52666"
       style="fill:#ffffff;fill-opacity:1;fill-rule:nonzero;stroke:none;stroke-width:1.33333"
       id="path164410" />
    <path
       d="m 325.48533,138.19081 c 0.256,1.97733 1.35333,3.56 2.96133,4.268 l 5.772,-0.21067 c 1.33866,-1.10133 2.16533,-3.032 2.16533,-5.07867 0,-0.76666 -0.176,-2.10266 -0.43467,-2.79333 -1.36533,0.005 -5.03066,0.192 -5.72666,0.304 -0.65867,0.108 -1.47333,0.544 -1.78933,0.712 l -0.268,0.144 c -1.14934,0.608 -1.63867,0.868 -2.68,2.65467 m 2.80133,5.14533 -0.088,-0.036 c -1.992,-0.82933 -3.33467,-2.756 -3.596,-5.15467 l -0.0147,-0.14133 0.0707,-0.12267 c 1.21467,-2.11733 1.884,-2.472 3.09867,-3.11466 l 0.26533,-0.14134 c 0.46,-0.24666 1.19467,-0.328 1.968,-0.45333 0.67867,-0.11067 1.38133,-0.22533 1.86133,-0.432 l 0.0813,-0.036 h 0.0893 c 1.32266,-0.009 2.76133,-0.208 4.27466,-0.20933 h 0.25867 l 0.1,0.23333 c 0.364,0.85867 0.59867,2.47333 0.59867,3.44133 0,2.36534 -1,4.608 -2.60934,5.852 l -0.11066,0.0853 z"
       style="fill:#000000;fill-opacity:1;fill-rule:nonzero;stroke:none;stroke-width:1.33333"
       id="path164414" />
    <path
       d="m 332.67706,132.72734 c -2.36533,0.196 -6.172,2.16933 -6.95467,2.70267 -0.78133,0.532 -2.168,4.032 -2.168,4.032 0,0 2.95334,-3.62934 4.352,-4.196 1.39734,-0.56667 4.916,-1.432 8.36933,-0.99867 2.832,0.35467 2.34134,1.436 2.35067,3.69867 0.009,2.264 -2.30667,4.468 -2.30667,4.468 3.40934,-0.71334 4.97867,-1.55867 6.528,-3.32267 1.55067,-1.764 4.01867,-7.35733 4.01867,-7.35733 0,0 -2.912,1.91866 -5.09333,2.09466 0,0 0.96133,-1.61333 0.96133,-2.09466 0,0 -2.65067,1.116 -3.292,1.33066 0,0 0.37467,-0.90933 0.32133,-1.28266 0,0 -2.032,0.80133 -3.368,0.80133 -1.336,0 -1.25333,-0.08 -3.71866,0.124"
       style="fill:#000000;fill-opacity:1;fill-rule:nonzero;stroke:none;stroke-width:1.33333"
       id="path164418" />
    <path
       d="m 297.66493,144.36414 c 0,0 -6.452,3.996 -13.172,4.63867 0,0 9.828,1.596 13.172,-4.63867"
       style="fill:#000000;fill-opacity:1;fill-rule:nonzero;stroke:none;stroke-width:1.33333"
       id="path164434" />
    <path
       d="m 323.45933,136.57401 c 0,0 -1.04667,2.26666 -0.69734,3.444 0.348,1.17733 0.91467,1.91733 0.74134,1.22 -0.17467,-0.69734 -0.13067,-2.87734 0.21733,-3.96667 0.34933,-1.08933 0.21867,-1.56933 -0.26133,-0.69733"
       style="fill:#000000;fill-opacity:1;fill-rule:nonzero;stroke:none;stroke-width:1.33333"
       id="path164438" />
    <path
       d="m 324.95386,144.20801 c 0,0 2.79733,3.40133 8.58266,3.97333 0,0 -3.84666,0.25467 -5.78533,-0.85867 -1.93866,-1.112 -2.79733,-3.11466 -2.79733,-3.11466"
       style="fill:#000000;fill-opacity:1;fill-rule:nonzero;stroke:none;stroke-width:1.33333"
       id="path164442" />
  </g>
  <g
     inkscape:groupmode="layer"
     id="layer9"
     inkscape:label="Standard Brow">
    <path
       d="m 323.65266,135.83067 c 2.63467,-2.41333 7.436,-4.57466 10.4,-5.44666 2.964,-0.872 10.288,-0.17467 10.288,-0.17467 l 3.31333,-5.05733 -3.83467,-4.98134 -11.45733,1.90667 -8.24933,4.99333 c 0,0 -4.01067,5.05734 -4.53333,6.27734 -0.52267,1.22133 1.172,5.14 4.07333,2.48266"
       style="opacity:0.199997;fill:#000000;fill-opacity:1;fill-rule:nonzero;stroke:none;stroke-width:1.33333"
       id="path164328" />
    <path
       id="path164356"
       style="opacity:0.199997;fill:#000000;fill-opacity:1;fill-rule:nonzero;stroke:none;stroke-width:1.33333"
       d="M 282.46484 119.29688 C 280.71235 119.29018 278.95983 119.44381 277.23633 119.75781 C 276.935 119.81251 276.63203 119.87217 276.33203 119.9375 C 273.7027 120.51084 271.134 121.46009 268.61133 122.35742 C 266.96333 122.94276 265.32278 123.37999 263.77344 124.22266 C 262.87478 124.71199 262.70688 125.435 263.04688 126.375 C 264.9162 131.52832 272.27763 129.16409 276.12695 128.85742 C 280.48828 128.51076 286.14313 128.9723 290.3418 130.26562 C 292.41512 130.90562 297.3489 134.69594 297.99023 135.33594 C 298.27423 135.6186 298.26715 136.07964 298.39648 136.43164 C 298.56182 136.8823 298.8427 137.28972 298.9707 137.76172 C 299.0747 138.14172 299.2799 138.51144 299.36523 138.88477 C 299.37489 138.92709 299.37306 138.95949 299.38086 139 L 301.80273 139 C 301.98605 138.78151 302.1688 138.56072 302.35352 138.34961 C 303.17085 137.41628 304.46581 136.61751 304.75781 135.35352 C 305.20847 133.39352 304.3209 131.64703 304.99023 129.70703 C 305.39689 128.52703 306.35684 127.64375 306.96484 126.56641 C 307.36484 125.85575 307.82284 122.90575 306.57617 122.59375 C 305.2695 122.26575 304.28359 124.34553 303.18359 124.76953 C 301.29427 125.49887 298.93849 124.22597 297.28516 123.41797 C 295.23983 122.41797 293.26132 121.35758 291.08398 120.65625 C 288.30399 119.76208 285.38566 119.30803 282.46484 119.29688 z " />
    <path
       d="m 299.48266,136.64734 c -0.39867,-0.61867 -1.05867,-1.07733 -1.58133,-1.61067 -0.59334,-0.60533 -1.20534,-1.192 -1.84134,-1.752 -1.26533,-1.11333 -2.696,-2.29066 -4.33066,-2.804 -3.284,-1.02933 -12.49334,-2.21333 -14.472,-1.47066 0,0 11.188,0.44133 13.644,2.44666 0.27333,0.22267 0.552,0.44134 0.83066,0.656 1.47067,1.13467 2.984,2.22 4.53334,3.244 0.772,0.51067 1.78533,0.788 2.196,1.692 0.144,0.32 0.22266,0.66534 0.3,1.00667 0.13066,0.58533 0.46666,1.37333 0.36666,1.968 -0.064,0.37867 -0.41333,0.54133 -0.64933,0.8 -0.12533,0.136 -0.61333,0.56533 -0.57467,0.72933 0.04,0.168 0.396,0.244 0.556,0.232 0.29467,-0.024 0.87334,-0.348 1.08667,-0.58933 0.85333,-0.964 0.36267,-2.204 0.25333,-3.33467 -0.0453,-0.464 -0.0413,-0.77333 -0.31733,-1.21333"
       style="fill:#000000;fill-opacity:1;fill-rule:nonzero;stroke:none;stroke-width:1.33333"
       id="path164394" />
    <path
       d="m 324.17239,135.31521 c 0,0 2.03067,-4.86934 12.02267,-5.352 0,0 -4.952,1.49066 -6.836,2.32266 -1.88533,0.83334 -5.18667,3.02934 -5.18667,3.02934"
       style="fill:#000000;fill-opacity:1;fill-rule:nonzero;stroke:none;stroke-width:1.33333"
       id="path164398" />
    <path
       id="path164426"
       style="fill:#383838;fill-opacity:1;fill-rule:nonzero;stroke:none;stroke-width:1.33333"
       d="m 268.95386,121.01801 c -0.58,0.212 -1.15733,0.432 -1.732,0.66 -0.40133,0.16 -2.84098,1.54681 -3.10387,2.19689 0.37866,0.172 2.15987,-0.44223 2.58254,-0.54089 0.72666,-0.168 1.452,-0.34534 2.17466,-0.532 4.05467,-1.04534 7.996,-2.33867 12.21867,-2.52134 1.53067,-0.0653 3.068,-0.02 4.588,0.17467 5.81867,0.748 16.456,8.21067 18.38133,6.92 0.888,-0.59467 3.124,-2.59867 2.92534,-3.692 -0.18134,-0.996 -1.904,-1.40133 -2.77467,-1.36667 -1.89467,0.0773 -4.09867,-0.88266 -5.892,-1.38 -3.04533,-0.84533 -6.084,-1.72266 -9.164,-2.43466 -1.892,-0.43734 -3.89467,-0.948 -5.84933,-0.76534 -3.66,0.344 -7.28267,1.068 -10.80667,2.11067 -1.19467,0.35333 -2.37733,0.744 -3.548,1.17067 m 54.48213,6.47853 c 2.268,-2.44267 4.60534,-5.35333 10.444,-6.932 5.83867,-1.57867 10.50933,-2.45333 12.204,-0.512 1.696,1.94133 1.46133,2.01467 0.14267,3.62267 -1.31867,1.608 -1.288,0.236 -2.60667,-0.98134 -1.31867,-1.216 -4.86667,-0.92933 -9.764,0.2 -4.89733,1.12934 -13.81066,8.25334 -10.42,4.60267" />
    <path
       id="path81181"
       style="color:#000000;fill:#000000;-inkscape-stroke:none"
       d="m 333.81445,120.32227 c -5.89716,1.59449 -8.3036,4.57104 -10.5625,7.0039 -0.42862,0.46149 -0.66145,0.72967 -0.76953,0.96094 -0.027,0.0578 -0.0549,0.11569 -0.0469,0.21484 0.008,0.0992 0.11535,0.23294 0.20898,0.26172 0.18726,0.0576 0.26773,-0.005 0.39258,-0.0547 0.49942,-0.19748 1.42319,-0.7753 2.63086,-1.50781 2.41533,-1.46502 5.87527,-3.51818 8.24414,-4.06445 2.44029,-0.56274 4.54141,-0.91284 6.17773,-0.97266 1.63633,-0.0598 2.79134,0.18728 3.36133,0.71289 0.62423,0.57627 0.90717,1.18941 1.30274,1.55078 0.0989,0.0904 0.21404,0.16777 0.35156,0.20508 0.13752,0.0373 0.29173,0.0275 0.43359,-0.0273 0.28373,-0.1096 0.54044,-0.35637 0.88086,-0.77149 0.32795,-0.3999 0.59166,-0.70666 0.78516,-0.98828 0.1935,-0.28162 0.32263,-0.55246 0.33008,-0.85156 0.007,-0.29909 -0.10854,-0.59129 -0.31836,-0.91797 -0.20982,-0.32668 -0.51892,-0.69943 -0.94532,-1.1875 -0.93439,-1.07039 -2.61544,-1.32432 -4.75584,-1.14845 -2.1404,0.17587 -4.77684,0.79133 -7.70116,1.58202 z m 7.74217,-1.08399 c 2.07824,-0.17078 3.57957,0.10758 4.33984,0.97852 0.57284,0.50389 0.88897,1.12857 0.93832,1.57346 0.0493,0.44489 -0.62655,1.11351 -0.92037,1.45018 -0.29383,0.33667 -0.5598,0.63349 -0.93685,0.32625 -0.37704,-0.30725 -0.63175,-0.82396 -1.08954,-1.2549 -0.74868,-0.69039 -2.02708,-0.90755 -3.71875,-0.84571 -1.69167,0.0618 -3.8125,0.41974 -6.26953,0.98633 -2.52846,0.58307 -6.07356,2.85437 -8.49156,4.32101 -0.94738,0.57464 -1.59902,0.99705 -2.14052,1.37009 3.50309,-4.31664 7.04979,-6.30347 10.67763,-7.33689 2.91435,-0.78799 5.53309,-1.39758 7.61133,-1.56836 z m -76.37618,3.22702 c -0.39661,0.25978 -0.72025,0.53747 -0.98464,0.80854 -0.12148,0.12455 -0.41696,0.54598 -0.45174,0.7428 -0.0297,0.16839 0.16405,0.2037 0.5559,0.14416 0.39186,-0.0595 0.54806,-0.1085 0.95958,-0.20153 0.41153,-0.093 0.82061,-0.20259 1.49828,-0.38095 0.67767,-0.17836 1.45493,-0.34601 2.17969,-0.53321 4.06501,-1.048 7.9895,-2.33291 12.16797,-2.51367 1.51863,-0.0648 3.04114,-0.0207 4.54492,0.17188 2.82416,0.36305 6.94253,2.40311 10.57031,4.20117 1.81389,0.89902 3.50844,1.73488 4.88477,2.27148 0.68816,0.2683 1.29708,0.46391 1.8125,0.55078 0.51542,0.0869 0.95399,0.0775 1.35521,-0.19031 0.40122,-0.26781 1.18419,-0.92112 1.84596,-1.65143 0.33088,-0.36516 0.6299,-0.74827 0.83984,-1.125 0.20995,-0.37673 0.34221,-0.75339 0.27539,-1.1211 -0.11458,-0.62937 -0.68217,-1.021 -1.2832,-1.25781 -0.60103,-0.23681 -1.26746,-0.33359 -1.74805,-0.31445 -1.80254,0.0735 -3.99212,-0.86572 -5.81445,-1.3711 -3.04367,-0.84487 -6.08508,-1.72347 -9.17383,-2.4375 -1.8881,-0.43644 -3.9163,-0.95768 -5.92968,-0.76953 l -10e-6,-2.6e-4 c -3.67724,0.34562 -7.31502,1.07218 -10.85352,2.11914 -1.1997,0.35482 -2.31291,0.72619 -3.52642,1.16532 -0.62021,0.2235 -1.19958,0.444 -1.58798,0.59827 -0.3884,0.15428 -1.36371,0.58795 -2.1368,1.09431 z m 7.39183,-2.37741 c 3.50949,-1.03838 7.117,-1.75918 10.75976,-2.10156 1.89593,-0.17717 3.87364,0.32153 5.76953,0.75976 3.07125,0.70998 6.10732,1.58586 9.1543,2.43164 1.76433,0.4893 3.98196,1.46973 5.96875,1.38868 0.39008,-0.0155 1.01967,0.0731 1.54297,0.27929 0.81732,0.42919 0.64631,0.79081 0.41492,1.45807 -0.18117,0.3251 -0.45915,0.68636 -0.77343,1.0332 -0.62857,0.69368 -1.21682,1.04346 -1.63355,1.32253 -0.15017,0.10067 -0.48745,0.2475 -0.94501,0.17043 -0.45756,-0.0771 -0.85146,-0.19641 -1.52221,-0.45792 -1.3415,-0.52303 -2.92438,-1.10283 -4.73782,-2.00163 -3.62688,-1.79761 -7.73596,-3.8631 -10.73047,-4.24805 -1.53622,-0.19675 -3.0862,-0.24159 -4.62891,-0.17578 -4.26685,0.18458 -8.35428,1.57138 -12.3986,2.61405 -0.72056,0.18612 -1.46455,0.36707 -2.18916,0.57166 -0.62651,0.16464 -1.33501,0.37368 -1.7207,0.48633 -0.38569,0.11265 -0.52906,0.13252 -0.62258,0.11718 0.17,-0.2914 0.84539,-0.7511 1.09881,-0.92496 0.75684,-0.42934 1.73424,-0.82014 1.93554,-0.90039 0.57256,-0.22717 1.10967,-0.4311 1.70609,-0.6504 1.18446,-0.433 2.36213,-0.82029 3.55177,-1.17213 z" />
    <path
       id="path81187"
       style="fill:#000000;fill-opacity:0.2;stroke:none;stroke-width:1px;stroke-linecap:butt;stroke-linejoin:miter;stroke-opacity:1"
       d="m 346.14648,120.12695 c -0.27761,0.29784 -0.68838,0.63479 -1.24218,0.81446 -1.13843,0.36934 -2.8882,-0.47538 -4.98242,-0.33594 -2.09423,0.13944 -5.39074,0.78699 -7.44727,1.51172 -2.05653,0.72473 -3.12294,1.38715 -4.87109,2.51953 -1.33517,0.86486 -3.80318,2.93319 -4.90821,3.87305 0.29542,0.36624 7.10456,-4.68 11.16016,-5.61524 4.89732,-1.12933 8.445,-1.41717 9.76367,-0.20117 1.31867,1.21734 1.28875,2.59042 2.60742,0.98242 1.29977,-1.58497 1.53729,-1.68736 -0.0801,-3.54883 z m -62.67382,-1.40234 c -2.01773,-0.0475 -3.33678,0.31438 -5.42188,0.64844 -2.78014,0.44541 -6.19343,1.41628 -8.8457,2.35156 -1.61325,0.56889 -3.55691,1.4549 -5.03711,2.1582 0.44922,0.12019 2.12376,-0.45325 2.5332,-0.54883 0.72666,-0.168 1.45117,-0.34459 2.17383,-0.53125 4.05467,-1.04533 7.99608,-2.33881 12.21875,-2.52148 1.53067,-0.0653 3.06789,-0.0208 4.58789,0.17383 5.81866,0.748 16.45553,8.21059 18.38086,6.91992 0.888,-0.59467 3.12444,-2.59808 2.92578,-3.69141 -0.004,-0.0237 -0.0135,-0.0453 -0.0195,-0.0684 -0.80032,0.45742 -1.77651,0.92186 -2.60156,1.02149 -1.72911,0.2088 -2.58548,-0.35535 -5.71094,-1.23242 -3.12546,-0.87707 -9.35057,-3.987 -12.87891,-4.47852 -0.88208,-0.12288 -1.63211,-0.18533 -2.30468,-0.20117 z" />
  </g>
  <g
     inkscape:groupmode="layer"
     id="layer8"
     inkscape:label="Nose Edge"
     sodipodi:insensitive="true">
    <path
       d="m 305.79026,137.63214 c -0.12667,-0.71467 -0.11333,-1.532 -0.412,-2.22133 -0.15067,-0.34534 -0.31867,-0.932 -0.78,-1.16534 -0.796,-0.40133 -1.672,0.57734 -1.976,0.944 -0.55067,0.67067 -0.97467,0.83334 -1.53733,1.78134 0,0 1.70933,-0.70267 2.30533,-0.14667 0.59467,0.55733 3.45067,9.17733 3.45067,9.17733 -0.06,-0.488 -0.12134,-0.976 -0.18134,-1.464 -0.28933,-2.33733 -0.58,-5.26533 -0.86933,-6.90533"
       style="fill:#000000;fill-opacity:1;fill-rule:nonzero;stroke:none;stroke-width:1.33333"
       id="path164430" />
  </g>
</svg>
