<?xml version="1.0" encoding="UTF-8" standalone="no"?>
<!-- Created with Inkscape (http://www.inkscape.org/) -->

<svg
   version="1.1"
   id="svg97800"
   width="400"
   height="400"
   viewBox="0 0 400 400"
   sodipodi:docname="KlingonBrows2.svg"
   inkscape:version="1.2.2 (b0a8486, 2022-12-01)"
   xmlns:inkscape="http://www.inkscape.org/namespaces/inkscape"
   xmlns:sodipodi="http://sodipodi.sourceforge.net/DTD/sodipodi-0.dtd"
   xmlns="http://www.w3.org/2000/svg"
   xmlns:svg="http://www.w3.org/2000/svg">
  <defs
     id="defs97804" />
  <sodipodi:namedview
     id="namedview97802"
     pagecolor="#ffffff"
     bordercolor="#666666"
     borderopacity="1.0"
     inkscape:showpageshadow="2"
     inkscape:pageopacity="0.0"
     inkscape:pagecheckerboard="0"
     inkscape:deskcolor="#d1d1d1"
     showgrid="false"
     inkscape:zoom="1.475"
     inkscape:cx="190.16949"
     inkscape:cy="200"
     inkscape:window-width="1440"
     inkscape:window-height="810"
     inkscape:window-x="2533"
     inkscape:window-y="329"
     inkscape:window-maximized="0"
     inkscape:current-layer="g97808">
    <inkscape:page
       x="0"
       y="0"
       id="page97806"
       width="400"
       height="400" />
  </sodipodi:namedview>
  <g
     id="g97808"
     inkscape:groupmode="layer"
     inkscape:label="Page 1">
    <path
       d="m 299.06706,127.45774 c -0.464,0 -0.91333,-0.116 -1.37333,-0.35333 l -0.40934,-0.21067 0.0533,-0.45867 c 0.008,-0.072 0.02,-0.14533 0.0333,-0.22133 -0.54267,0.29867 -1.14533,0.47067 -1.74267,0.47067 -0.49866,0 -0.964,-0.11734 -1.384,-0.35067 l -0.492,-0.27067 c 0,0 0.216,-0.61866 0.23334,-0.66133 -0.36134,0.15333 -0.75067,0.25867 -1.17734,0.26 -0.58666,0 -1.092,-0.208 -1.544,-0.48133 -0.20266,0.30266 -0.51466,0.41733 -0.78,0.41733 -0.40133,0 -0.74533,-0.23733 -0.972,-0.396 0,0 -0.84,-0.55067 -1.04133,-0.688 -0.204,0.0827 -0.42533,0.12533 -0.65867,0.12533 -0.49333,0 -1.004,-0.19333 -1.492,-0.468 l -0.104,0.104 c -0.25866,0.26 -0.632,0.39067 -1.112,0.39067 -1.03466,0 -2.55733,-0.62133 -3.56533,-1.032 -0.268,-0.11067 -0.48933,-0.20133 -0.632,-0.24933 -0.512,-0.17334 -0.996,-0.528 -1.46267,-0.872 -0.076,-0.0573 -0.15466,-0.11467 -0.23333,-0.172 0.0573,0.24 0.0827,0.50933 0.0307,0.80666 l -0.20534,1.16267 -0.88933,-0.776 c -0.0627,-0.0547 -0.23467,-0.124 -0.416,-0.19867 l 0.13333,0.34667 -1.104,-0.14 c -1.14666,-0.144 -2.04,-0.728 -2.89333,-1.31867 0.0973,0.288 0.13467,0.59067 0.048,0.90667 l -0.11867,0.432 -0.44266,0.0547 c -0.14534,0.0173 -0.292,0.0267 -0.44,0.0267 -0.76267,0 -1.508,-0.21866 -2.23067,-0.42933 -0.37467,-0.11067 -0.74267,-0.21867 -1.09467,-0.28533 -0.45333,-0.0853 -0.86933,-0.19467 -1.27466,-0.32 0.372,0.18 0.80933,0.46666 0.98266,1.072 l 0.21067,0.72933 -0.75067,0.11333 c -0.13733,0.02 -0.284,0.0307 -0.44,0.0307 -0.668,0 -1.464,-0.18667 -2.10133,-0.336 l -0.48533,-0.11067 c -0.384,-0.0813 -0.732,-0.18133 -1.05867,-0.3 0.144,0.17867 0.264,0.38 0.344,0.612 l 0.29733,0.87467 -0.924,0.007 c -0.916,0 -1.85466,-0.18 -2.72933,-0.50534 0.17333,0.296 0.30267,0.61467 0.312,0.944 l 0.0347,1.164 -1.02134,-0.55866 c -0.23333,-0.128 -0.44666,-0.26 -0.656,-0.38934 -0.444,-0.276 -0.828,-0.51466 -1.372,-0.67466 -0.52133,-0.15467 -0.95066,-0.36 -1.352,-0.592 0.0213,0.056 0.0467,0.11066 0.072,0.16533 0.11334,0.26 0.25734,0.58267 0.23067,1.01333 l -0.072,1.19467 -0.97733,-0.69067 c -0.14534,-0.10266 -0.292,-0.18266 -0.43734,-0.26266 -0.24933,-0.13867 -0.532,-0.29467 -0.81066,-0.53867 l -0.34267,-0.308 c -0.24133,-0.22 -0.48933,-0.448 -0.77333,-0.66133 l -0.36134,-0.264 c -1.252,-0.876 -2.57333,-1.45734 -3.87733,-2.23334 -0.88667,-0.52666 -1.59333,-1.16933 -2.31333,-1.92 -0.66667,-0.69733 -1.084,-1.48933 -1.66534,-2.228 -0.50266,-0.63733 -1.19866,-1.14266 -1.78266,-1.72933 -0.412,-0.412 -0.69734,-0.81733 -1.00667,-1.30667 -0.972,-1.528 -1.976,-3.10666 -2.25333,-4.99466 -0.016,-0.10667 -0.04,-0.232 -0.0667,-0.36667 -0.136,-0.716 -0.32267,-1.69733 0.11333,-2.388 0.35467,-0.56133 1.06,-0.896 1.88667,-0.896 0.664,0 1.28933,0.212 1.712,0.58133 0.21333,0.18534 0.36533,0.376 0.50933,0.55867 0.18134,0.232 0.26934,0.33867 0.452,0.41333 0.30934,0.12934 0.70134,0.13734 1.11734,0.14534 0.296,0.007 0.59066,0.0147 0.87333,0.056 0.384,0.06 0.63067,0.1 0.85733,0.1 0.25467,0 0.47467,0 0.68534,-0.61334 0.0573,-0.164 0.0387,-0.46266 0.0213,-0.75066 -0.0333,-0.54534 -0.076,-1.224 0.35467,-1.748 0.30933,-0.37734 0.668,-0.56934 1.06533,-0.56934 0.63067,0 1.07333,0.47467 1.46267,0.89334 0.144,0.15333 0.38266,0.412 0.48533,0.44933 0.11467,0.0387 0.25733,0.0573 0.436,0.0573 0.25467,0 0.52,-0.0347 0.78533,-0.068 0.32,-0.0387 0.63867,-0.076 0.94134,-0.076 0.22933,0 0.43333,0.02 0.62266,0.0627 0.47734,0.10667 0.872,0.36 1.22,0.584 0.16667,0.108 0.33067,0.216 0.50134,0.29733 0.48933,0.23067 1.048,0.364 1.53333,0.364 1.12933,0 1.30933,-0.68666 1.368,-0.912 0.19733,-0.76266 -0.59467,-1.44133 -0.32667,-2.08 0.24667,-0.58666 1.31334,-0.80666 1.86934,-0.83066 1.53866,-0.068 1.76133,2.18133 3.15866,2.18133 0.21867,0 0.472,-0.0693 0.75067,-0.204 0.12933,-0.0613 0.252,-0.132 0.37467,-0.20133 0.41333,-0.232 0.88133,-0.496 1.48666,-0.496 0.192,0 0.38667,0.0267 0.58,0.0813 0.77734,0.22 1.27467,0.844 1.71334,1.39467 0.16,0.2 0.31466,0.396 0.47733,0.55333 0.41467,0.4 1.24133,0.63733 2.21467,0.63733 0.62266,0 1.24266,-0.0987 1.70266,-0.27066 0.27734,-0.104 0.56134,-0.252 0.84134,-0.39734 0.58666,-0.304 1.19333,-0.61866 1.8,-0.61866 0.53733,0 1.25866,0.24533 1.64666,1.40933 0.084,0.25067 0.136,0.47867 0.18267,0.692 0.10533,0.476 0.14533,0.65467 0.48933,0.88133 0.45067,0.296 0.964,0.29867 1.616,0.30267 l 0.292,0.003 c 0.10934,0 0.26,-0.0253 0.42134,-0.048 0.25066,-0.0373 0.516,-0.072 0.71866,-0.072 0.172,0 0.424,0.0187 0.644,0.17466 0.77867,0.56134 0.504,1.45334 0.356,1.93334 -0.0453,0.14666 -0.12,0.39333 -0.11066,0.47466 0.032,0.068 0.39866,0.27467 1.228,0.27467 0.77066,0 1.42533,-0.172 1.64266,-0.29467 0.47734,-0.268 1.024,-0.92266 1.328,-1.59066 l 0.33067,-0.72534 0.656,0.45334 c 0.76133,0.52666 1.00533,1.46 1.184,2.14133 0.224,0.85067 0.38,1.216 0.868,1.78533 l 0.24667,0.29334 c 0.348,0.42133 0.708,0.856 1.10666,1.07733 0.41734,0.232 0.98934,0.30533 1.596,0.38533 0.716,0.0933 1.45734,0.18934 2.088,0.56534 0.90134,0.536 1.09067,1.46 1.24267,2.20266 0.11867,0.58267 0.22267,1.08667 0.59867,1.36667 0.28533,0.21067 0.95733,0.47467 2.54533,0.52933 l 0.12,0.67067 0.0187,-0.66667 c 0,0 0.85733,-0.0187 1.02533,-0.0187 0.54267,0 2.196,0 2.37467,1.67733 0.0653,0.60533 -0.17734,1.24667 -0.412,1.86667 -0.132,0.35066 -0.27067,0.71466 -0.308,0.97866 -0.16934,1.192 -0.52934,1.70934 -1.60534,2.308 -0.48266,0.26934 -1.13333,0.57867 -1.87733,0.57867"
       style="fill:#383838;fill-opacity:1;fill-rule:nonzero;stroke:none;stroke-width:1.33333"
       id="path128048" />
    <path
       d="m 318.76173,130.23761 c -0.768,-0.48667 -1.35067,-1.73067 -1.47467,-2.444 l -0.0827,-0.47067 0.41867,-0.22933 c 1.46133,-0.79734 2.47733,-1.87467 3.50933,-3.71867 0.412,-0.73467 1.10667,-0.96933 1.66667,-1.15733 0.32,-0.10667 0.62133,-0.208 0.86133,-0.38667 0.42,-0.31333 0.96134,-0.89467 1.284,-1.38267 0.28534,-0.432 0.44667,-0.98133 0.61734,-1.56266 0.18,-0.61334 0.36666,-1.24667 0.72133,-1.796 0.38933,-0.604 0.97733,-0.82534 1.44933,-1.00267 0.20267,-0.076 0.40934,-0.15067 0.59867,-0.26667 0.62933,-0.39066 0.86933,-0.96666 1.09067,-1.89333 0.0213,-0.0867 0.0387,-0.18667 0.06,-0.29333 0.116,-0.624 0.36,-1.92267 1.556,-1.93067 0.36,0 0.65333,0.19067 0.91333,0.36 0.088,0.0573 0.22,0.14267 0.272,0.16 0.0613,0.0107 0.14133,0.016 0.22133,0.016 0.364,0 0.82,-0.128 1.25067,-0.352 0.19866,-0.10267 0.356,-0.264 0.53866,-0.452 0.17734,-0.18133 0.35867,-0.36133 0.57867,-0.52133 0.22267,-0.16134 0.456,-0.26534 0.66267,-0.356 0.188,-0.084 0.34933,-0.15467 0.47066,-0.25334 0.14667,-0.11733 0.25734,-0.22133 0.36,-0.31866 0.28267,-0.268 0.57467,-0.544 1.24667,-0.82667 0.704,-0.29467 1.05067,-0.45333 1.244,-0.84667 l 1.264,0.27067 c -0.004,-0.0573 -0.0747,-0.14667 -0.12933,-0.16667 0,0 0.0373,0.0133 0.13333,0.0133 1.00933,0 3.43867,-1.168 4.89067,-1.86667 1.05733,-0.508 1.436,-0.68533 1.69733,-0.72267 0.14267,-0.0187 0.28267,-0.0293 0.42533,-0.0293 0.87334,0 1.69067,0.34667 2.48267,0.68267 0.65467,0.27733 1.27333,0.53866 1.79067,0.53866 0.272,0 0.63733,-0.0627 1.03733,-0.54933 0.62667,-0.76267 0.62533,-0.78 0.57467,-1.72267 -0.0853,-1.54133 0.48666,-2.072 1.71733,-2.61733 0.27733,-0.124 0.54533,-0.23467 0.80667,-0.34267 0.78666,-0.32666 1.46666,-0.608 2.16133,-1.11066 0.072,-0.052 0.16667,-0.128 0.276,-0.216 0.76933,-0.617336 1.584,-1.218669 2.352,-1.218669 0.31333,0 1.07067,0.114667 1.31867,1.174669 0.13866,0.6 -0.19734,1.096 -0.444,1.45733 -0.084,0.124 -0.18134,0.26533 -0.212,0.34933 -0.176,0.48 -0.14267,0.97334 -0.104,1.54667 0.0293,0.42133 0.0587,0.85733 10e-4,1.31867 -0.10667,0.87066 -0.52267,1.22266 -0.88933,1.53333 -0.14534,0.12267 -0.308,0.25733 -0.472,0.464 -0.19334,0.24533 -0.24267,0.50667 -0.31067,0.868 -0.0507,0.272 -0.10667,0.552 -0.21467,0.84533 -0.21333,0.57734 -0.60133,0.87734 -0.912,1.12 -0.192,0.14934 -0.344,0.26667 -0.43333,0.42534 -0.0947,0.168 -0.0867,0.456 -0.0787,0.76133 0.012,0.41733 0.0253,0.892 -0.20133,1.35067 -0.22133,0.45333 -0.60133,0.788 -0.936,1.084 -0.256,0.22666 -0.49867,0.44 -0.62533,0.66 -0.26667,0.46666 -0.36534,1.00133 -0.472,1.56666 -0.17867,0.96934 -0.38267,2.06667 -1.49067,2.89867 -1.46133,1.1 -3.51333,1.44533 -4.60667,1.55333 l -0.21866,0.0213 c -0.40267,0.0413 -0.81467,0.0813 -1.18134,0.0813 -0.47866,0 -1.14,-0.0573 -1.54,-0.528 -1.05866,0.92267 -2.47333,1.64133 -3.65733,2.14 -0.86667,0.36533 -2.32,0.97733 -3.588,0.97733 -0.41867,0 -0.80133,-0.0667 -1.132,-0.19733 l -0.392,-0.156 -0.028,-0.42 c -0.0413,-0.616 0,-1.21067 0.0733,-1.788 -0.75066,0.74 -1.54533,1.33067 -2.37466,1.764 -0.39467,0.20533 -1.12934,0.588 -1.78267,0.588 -0.17866,0 -0.344,-0.028 -0.49333,-0.0813 -0.69733,1.14 -1.88267,2.00266 -3.29333,2.35333 l -0.252,0.056 c -0.23867,0.048 -0.464,0.0747 -0.68134,0.1 -0.50533,0.0573 -0.83866,0.096 -1.20133,0.392 -0.104,0.084 -0.21733,0.236 -0.33733,0.39733 -0.22667,0.30267 -0.508,0.67867 -0.944,0.88134 -0.22267,0.10133 -0.44934,0.15066 -0.696,0.15066 -0.156,0 -0.30934,-0.0213 -0.464,-0.0453 -0.092,-0.0147 -0.18534,-0.0333 -0.28667,-0.0333 -0.404,0.004 -0.66267,0.22666 -1.052,0.59066 -0.37333,0.34667 -0.832,0.77467 -1.512,0.82134 -10e-4,0.0507 -0.0387,0.808 -0.0387,0.808 l -0.66133,-0.0267 c -0.52267,-0.0213 -0.84,-0.252 -1.072,-0.42133 -0.0613,-0.044 -0.124,-0.0907 -0.196,-0.132 -0.0373,-0.0213 -0.11333,-0.072 -0.20667,-0.13734 -0.004,0.0827 -0.008,0.16267 -0.0107,0.23067 -0.0227,0.57067 -0.044,1.112 -0.336,1.47467 l -0.37334,0.46266 z"
       style="fill:#383838;fill-opacity:1;fill-rule:nonzero;stroke:none;stroke-width:1.33333"
       id="path128052" />
    <path
       d="m 302.81506,122.10681 c -0.14267,0.40266 -0.28533,0.80533 -0.404,1.22533 -0.16,0.568 -0.228,1.16133 -0.29467,1.73467 -0.10133,0.88533 -0.19866,1.72266 -0.604,2.46266 -0.47466,0.86667 -0.88933,0.984 -1.23333,0.984 -0.35733,0 -0.78533,-0.14266 -1.28133,-0.308 l -1.628,-0.52266 c -2.728,-0.86667 -5.304,-1.68534 -7.892,-2.71467 -2.07867,-0.82667 -4.63334,-0.848 -7.104,-0.868 -1.19734,-0.009 -2.32934,-0.02 -3.37467,-0.11867 l -0.712,-0.068 c -1.51467,-0.148 -2.944,-0.28666 -4.42133,-0.28666 -0.852,0 -1.63867,0.0467 -2.40934,0.14266 -0.40133,0.0493 -0.82,0.084 -1.244,0.11867 -0.804,0.0653 -1.63466,0.13467 -2.41066,0.312 -0.0267,0.005 -2.34534,1.01467 -3.16134,1.672 -0.34533,-0.172 -0.70666,-0.30533 -1.06,-0.436 -0.29066,-0.108 -0.58,-0.21467 -0.85466,-0.34133 l -0.88267,-0.40934 0.44533,0.864 c 0.084,0.16267 0.0787,0.31334 0.072,0.524 -0.003,0.0707 -0.005,0.14534 -0.005,0.22534 -0.0813,0.007 -0.25733,0.012 -0.26267,0.012 -0.54666,0 -1.04666,-0.064 -1.56666,-0.18934 -0.336,-0.592 -1.02667,-0.89333 -1.696,-1.18533 -0.38134,-0.16667 -0.74267,-0.324 -0.99734,-0.52 l -0.47333,0.46133 c 0.49467,0.68 0.708,1.412 0.61067,2.04267 -0.808,-0.67467 -2.144,-1.44667 -3.12934,-1.69067 -0.10533,-0.188 -0.228,-0.348 -0.34666,-0.50533 -0.13334,-0.17333 -0.26,-0.33867 -0.34667,-0.52667 l -0.0707,-0.148 -0.16133,-0.036 c -0.69067,-0.15066 -1.08667,-0.62533 -1.54667,-1.17333 -0.136,-0.16267 -0.27466,-0.32667 -0.42266,-0.488 -0.70534,-0.764 -1.58,-1.15067 -2.39067,-1.75733 -0.71867,-0.53734 -1.076,-1.35867 -1.73333,-1.96267 -0.56,-0.51467 -1.172,-0.964 -1.76,-1.45467 -1.02934,-0.85733 -1.976,-1.72133 -2.84134,-2.75333 -1.02133,-1.21867 -1.168,-2.54933 -1.65466,-3.93867 -0.2,-0.568 -1.33867,-4.156 0.49866,-3.06666 0.65867,0.392 0.88534,1.884 1.43467,2.49066 0.76533,0.844 2.25067,1.12134 3.27467,0.61734 0.43066,2.072 1.60666,5.99066 3.928,6.58533 0.40133,-0.32267 0.37866,-0.88533 0.436,-1.34533 0.6,0.67066 2.16533,2.89066 3.40266,2.60666 1.12267,-0.25866 0.95467,-1.92933 0.95734,-2.788 0.61733,0.628 1.88533,1.848 2.968,1.396 0.976,-0.408 1.17466,-2.60133 0.76933,-3.34933 1.02133,1.85067 2.32933,3.17467 4.41067,3.168 0.82266,-0.001 1.13866,0.12133 1.53466,-0.52933 0.58934,-0.964 0.54267,-2.99867 0.524,-4.088 1.29067,2.51733 2.29334,4.22133 5.024,5.13866 0.90134,0.30267 1.54267,0.684 2.128,-0.0453 0.52267,-0.65333 0.464,-1.60533 0.42134,-2.38533 0.676,1.52666 2.72133,2.07466 3.424,0.15866 1.18666,1.12134 1.564,2.25067 3.19733,2.85334 1.03333,0.38133 3.19867,1.02 4.14533,0.49066 0.524,-0.29333 0.932,-1.084 1.44,-1.43733 1.252,2.05333 1.60134,2.98 4.09734,2.20133 1.024,1.288 3.62533,4.36 4.91733,1.476 0.816,0.90134 1.51867,2.416 2.73067,2.284 1.45733,-0.15866 3.376,-0.956 4.388,-2.04666 0.48666,-0.52534 0.50266,-1.52934 1.304,-1.72934 0.81733,-0.204 -0.044,2.78934 -0.10667,2.96534"
       style="opacity:0.199997;fill:#000000;fill-opacity:1;fill-rule:nonzero;stroke:none;stroke-width:1.33333"
       id="path128062" />
    <path
       d="m 319.51893,131.66867 c -0.98934,-0.92666 -1.324,-2.00533 -1.70667,-3.24266 -0.1,-0.32134 -0.20267,-0.65067 -0.31867,-0.984 1,-0.172 2.41334,-1.74934 2.55867,-1.976 0.65867,-1.02 0.81733,-2.12 0.97067,-3.18267 0.0173,-0.116 0.0347,-0.23333 0.052,-0.34933 0.0133,0.056 0.0267,0.11066 0.04,0.16666 0.0947,0.384 0.188,0.772 0.25866,1.17334 l 0.0453,0.26133 c 0,0 0.41466,0.0187 0.41466,0.0187 2.652,0.12133 2.85467,-3.22267 4.25734,-4.6 1.244,1.01466 -0.31867,2.552 1.82,2.61466 0.97066,0.028 2.556,-0.164 3.344,-0.80266 0.80666,-0.652 0.34133,-0.472 1.19866,-0.47467 0.552,0 1.11067,-0.0213 1.64,-0.0693 2.96267,-0.26934 3.752,-3.45734 4.976,-5.65867 -0.176,1.904 -0.0973,4.256 2.204,3.98533 2.19867,-0.25866 4.34267,-1.55866 5.38267,-3.55333 0.13733,0.48 0.25466,0.984 0.45066,1.44533 1.41067,-0.132 2.32,-1.16 3.02667,-2.33466 0.22,0.54933 0.18667,1.15733 0.26933,1.736 2.67867,-0.54134 3.66934,-2.87334 5.444,-4.76534 0.71334,-0.76133 0.78267,-1.648 1.43067,-2.39333 0.46667,-0.53733 1.36,-1.15867 1.94,-1.528 0.48933,0.58533 -0.292,1.95467 -0.416,2.636 -0.19867,1.08533 -0.31333,2.06667 -0.62267,3.12133 -0.49466,1.692 -1.28266,3.336 -1.93066,4.96267 -0.4,1.00133 -1.168,1.65467 -1.79067,2.49467 -0.68533,0.924 -1.59467,1.528 -2.56933,2.11333 -0.58534,0.352 -1.19067,0.716 -1.808,1.20667 -0.156,0.124 -0.33734,0.28933 -0.53334,0.47066 -0.54266,0.49734 -1.28533,1.17734 -1.83333,1.19067 -0.43067,0 -0.98267,-0.41867 -1.164,-0.696 l -0.17067,-0.26267 -0.27333,0.156 c -0.32,0.18134 -0.58133,0.36534 -0.81867,0.53334 -0.50266,0.35466 -0.83466,0.588 -1.41466,0.588 -0.10934,0 -0.22534,-0.008 -0.35334,-0.0253 -0.408,-0.0547 -0.81066,-0.22666 -1.23866,-0.40933 -0.50667,-0.216 -1.03067,-0.44 -1.632,-0.50533 -0.464,-0.0493 -0.93867,-0.0813 -1.41867,-0.0973 -0.21733,-0.007 -0.43733,-0.009 -0.65733,-0.009 -2.588,0 -5.55067,0.46533 -8.34,1.31333 -0.0933,0.028 -8.836,4.33867 -10.71333,5.732"
       style="opacity:0.199997;fill:#000000;fill-opacity:1;fill-rule:nonzero;stroke:none;stroke-width:1.33333"
       id="path128078" />
    <path
       d="m 299.70853,120.72894 c -0.83734,-0.028 -2.208,-0.13067 -2.92,-0.66 -1.19067,-0.88533 -0.52,-2.78 -1.784,-3.532 -1.016,-0.604 -2.60134,-0.348 -3.668,-0.94 -0.61734,-0.34267 -1.08534,-0.996 -1.536,-1.52 -0.57734,-0.67467 -0.76667,-1.13467 -0.97734,-1.93867 -0.17333,-0.65333 -0.35466,-1.464 -0.948,-1.87333 -0.32133,0.704 -0.93466,1.51733 -1.608,1.89467 -0.788,0.44266 -3.396,0.67866 -3.82,-0.32667 -0.24933,-0.59467 0.66134,-1.61467 -0.012,-2.1 -0.20533,-0.148 -1.04933,0.076 -1.40533,0.0693 -0.8,-0.0133 -1.56533,0.0453 -2.264,-0.41466 -0.784,-0.51467 -0.66133,-1.08934 -0.93733,-1.91867 -0.62667,-1.88267 -2.09067,-0.48 -3.42267,0.02 -1.27467,0.47733 -3.58267,0.48267 -4.61333,-0.51067 -0.584,-0.564 -1.07734,-1.55066 -1.91067,-1.78666 -0.792,-0.224 -1.324,0.264 -1.968,0.57466 -1.308,0.63067 -1.81467,-0.068 -2.77733,-0.78 -0.62134,-0.46 -1.90534,-1.24666 -2.48534,-0.312 -0.55333,0.896 0.33467,2.19067 -0.78533,2.788 -0.85467,0.45467 -2.05867,0.176 -2.88133,-0.21333 -0.52,-0.24667 -1.00267,-0.704 -1.58134,-0.83333 -0.86266,-0.192 -2.008,0.28933 -2.852,0.007 -0.74266,-0.24933 -1.432,-2.02666 -2.28666,-0.98266 -0.46,0.56 -0.0267,1.61466 -0.26,2.29333 -0.444,1.28933 -1.256,1.10933 -2.27067,0.95467 -0.69733,-0.10267 -1.47733,0.0347 -2.14933,-0.244 -0.568,-0.236 -0.68,-0.68134 -1.144,-1.08534 -0.66934,-0.58533 -2.124,-0.58133 -2.596,0.16667 -0.36534,0.58 -0.0413,1.69333 0.048,2.30133 0.29866,2.02667 1.548,3.74267 2.59866,5.43467 0.25734,0.41333 0.89467,1.86133 1.62267,1.62667 0.0733,0.1 0.22,0.18133 0.28133,0.26133 0.024,-0.35867 0.016,-0.728 0.0107,-1.09067 0.55733,0.82534 1.20933,1.728 1.97867,2.34267 0.86,0.68667 1.95466,1.15467 2.79866,1.816 1.60934,1.25733 2.168,2.84 4.43867,3.12533 1.24667,0.15734 1.188,-0.38133 1.008,-1.388 -0.31467,1.78267 3.57467,2.57067 4.736,2.268 2.084,-0.54533 -0.232,-2.396 -0.956,-3.22666 1.20933,0.25866 2.29467,0.94266 3.47067,1.288 0.72533,0.212 1.516,0.21466 2.25333,0.352 0.41733,-1.34534 -0.48933,-2.78534 -1.34933,-3.776 0.748,0.86133 4.428,4.18666 5.608,2.48 0.52,-0.752 0.036,-1.83467 -0.16667,-2.61467 0.916,0.848 3.05333,2.89067 4.50267,2.30667 0.88133,-0.35467 1.368,-1.512 1.264,-2.39067 1.30933,1.184 3.51466,3.57467 4.72533,1.23067 1.76,1.684 5.13733,3.08266 7.45733,3.30133 1.188,0.11067 3.32,0.744 3.63067,-0.732 0.35467,2.39067 3.30933,3.06933 5.15333,1.68933 0.18267,1.208 0.69867,1.624 1.892,1.74267 1.22134,0.12 2.83067,0.068 3.03867,-1.39467 0.11467,-0.80933 0.79867,-1.91333 0.71733,-2.68133 -0.14666,-1.37333 -1.74533,-1.036 -2.756,-1.064 -0.0453,-0.001 -0.0933,-0.003 -0.14266,-0.004 m -37.436,7.93867 c -0.76534,0.0627 -1.41067,-0.232 -2.312,-0.16667 0.08,0.21733 0.0853,0.37333 0.13066,0.59733 -1.33866,-0.005 -2.27466,-0.816 -3.25733,-1.58266 -1.33467,-1.04 -2.876,-1.64667 -4.17867,-2.78934 -2.02933,-1.77866 -4.9,-2.58266 -6.292,-5.04266 -0.356,-0.63067 -0.84,-1.02 -1.25733,-1.636 -0.54533,-0.80267 -0.95733,-1.79334 -1.61067,-2.50934 -0.48666,-0.53466 -0.988,-0.82933 -1.34133,-1.5 -0.84933,-1.61066 -1.12133,-3.488 -1.53067,-5.24133 -0.24933,-1.064 -0.97333,-2.70133 -0.48266,-3.81067 0.25733,-0.58 1.22133,-1.288 1.81733,-0.728 0.284,0.268 0.14133,0.66267 0.284,0.98134 0.424,0.952 1.404,1.10133 2.42667,1.228 1.15466,0.144 2.356,-0.34534 3.14533,0.244 0.404,0.30266 0.35867,0.644 0.89333,0.672 1.5,0.0827 0.58134,-2.38534 0.85734,-3.29867 0.524,-1.74 2.55733,-0.38667 3.476,0.37733 0.26133,0.21734 0.44266,0.56134 0.68933,0.76134 0.88133,0.712 2.29733,0.51866 3.40667,0.66666 0.17866,-0.59333 0.80133,-0.43733 1.26266,-0.468 0.72667,-0.0507 0.60934,-0.25733 0.78267,-0.976 0.26267,-1.08 0.6,-2.06133 1.868,-2.17333 1.20267,-0.10667 2.28,1.172 3.22667,1.75467 1.35066,0.82933 1.96533,0.007 3.352,-0.136 1.43333,-0.148 2.248,0.83466 3.10533,1.82 0.312,0.35866 0.70533,1.11866 1.16267,1.30666 1.02133,0.42134 3.71866,-0.98666 4.49333,-1.47466 1.024,-0.648 1.084,-1.05067 2.448,-0.47067 1.476,0.62933 0.764,1.20533 0.99733,2.604 0.1,0.59467 -0.0867,0.744 0.56267,0.712 1.356,-0.0653 1.33333,-1.87067 1.92933,-2.584 1.176,0.90267 1.49067,1.496 1.72134,2.84533 0.10666,0.62534 0.0173,2.42934 0.55066,2.73867 1.15467,0.66933 2.94134,-2.51733 3.688,-3.25467 0.988,0.932 2.008,2.32934 2.28,3.696 0.136,0.684 0.10267,1.188 0.336,1.916 0.43334,1.35467 0.65334,1.012 1.70134,0.55867 0.956,-0.41333 0.40533,-0.0987 1.03466,0.31733 0.45467,0.3 0.84134,0.14267 1.33867,0.27067 0.784,0.20133 1.68533,1.24933 2.18667,1.80267 0.30266,0.33466 0.73733,0.81066 0.908,1.19733 0.076,0.17467 -0.0227,0.412 0.0707,0.612 0.31867,0.67067 0.99734,1.50133 1.84,1.188 0.75734,-0.28133 1.076,-1.308 1.964,-1.50533 1.15734,-0.256 3.12667,1.13466 2.836,2.368 -0.152,0.648 -0.79333,1.30666 -1.056,1.94666 -0.14133,0.344 -0.35866,0.648 -0.20533,1.01467 0.21067,0.50267 1.07333,0.48533 1.35067,0.78267 1.29466,1.39066 -1.12934,3.26133 -2.24934,3.69466 -1.20533,0.46667 -2.856,0.80267 -4.12666,0.39734 -3.136,-1.00267 -6.14934,-1.924 -9.14267,-3.11334 -3.00667,-1.196 -7.156,-0.65866 -10.38667,-0.96533 -2.43466,-0.23067 -5.15866,-0.664 -7.58266,-0.51333 -2.21067,0.13733 -3.704,1.70133 -5.616,2.73066 -0.928,0.49867 -1.71067,1.524 -2.68667,1.93467 -0.292,0.124 -0.55733,0.18267 -0.80933,0.20267"
       style="fill:#000000;fill-opacity:1;fill-rule:nonzero;stroke:none;stroke-width:1.33333"
       id="path128088" />
    <path
       d="m 329.42479,124.34001 c 1.488,-0.36934 2.83334,-1.45334 3.29467,-2.95734 0.0947,1.20934 1.536,0.46134 2.128,0.152 1.49333,-0.77866 2.73333,-2.05333 3.70266,-3.40666 -0.17066,1.33733 -0.52,2.61333 -0.42933,3.97866 1.21867,0.48134 3.092,-0.30133 4.21733,-0.77466 1.504,-0.63334 3.79734,-1.812 4.56534,-3.352 -0.97867,2.00933 0.756,1.73333 2.224,1.588 1.42,-0.14 3.108,-0.54534 4.272,-1.42134 1.492,-1.12133 0.968,-2.84 1.78533,-4.26533 0.37467,-0.65067 1.224,-1.05867 1.54133,-1.70533 0.31734,-0.64267 -0.0627,-1.50534 0.29867,-2.14667 0.344,-0.612 1.03333,-0.724 1.29867,-1.448 0.25466,-0.69067 0.16,-1.30133 0.62933,-1.89467 0.56667,-0.71733 1.108,-0.72933 1.22267,-1.66666 0.12266,-1.004 -0.236,-1.99734 0.13866,-3.01467 0.164,-0.44667 0.74534,-0.932 0.63067,-1.42533 -0.37867,-1.629336 -2.31867,0.22533 -2.90533,0.65066 -1.00267,0.724 -1.96934,1.02534 -3.08934,1.52134 -1.028,0.456 -1.388,0.77333 -1.32133,1.972 0.056,1.02933 0.052,1.236 -0.72533,2.18266 -1.73734,2.116 -4.016,-0.70533 -6.15734,-0.40533 -0.66666,0.0933 -7.284,3.92133 -7.352,2.10667 -0.32133,0.65333 -0.90133,0.88 -1.584,1.16666 -0.8,0.336 -0.904,0.61467 -1.44666,1.05067 -0.356,0.28533 -0.80534,0.37067 -1.16,0.628 -0.448,0.32533 -0.696,0.764 -1.20134,1.02667 -0.55066,0.28533 -1.27999,0.51066 -1.91466,0.39466 -0.32533,-0.0587 -0.74933,-0.50666 -1.04533,-0.50533 -0.776,0.005 -0.83334,1.136 -0.972,1.71333 -0.23067,0.96134 -0.52134,1.76667 -1.388,2.304 -0.63334,0.392 -1.41734,0.41067 -1.84,1.06534 -0.61867,0.95733 -0.676,2.356 -1.34267,3.364 -0.35333,0.53466 -0.93733,1.17466 -1.44267,1.55066 -0.8,0.59334 -1.86133,0.47467 -2.34266,1.33334 -0.95334,1.70533 -1.99334,3.00933 -3.77067,3.98 0.108,0.61466 0.63733,1.65466 1.17467,1.99466 0.356,-0.44 -0.0147,-2.236 0.56266,-2.268 0.0907,-0.005 0.71734,0.46934 0.84134,0.54 0.32666,0.18667 0.512,0.448 0.96533,0.46667 0.016,-0.292 0.005,-0.596 0.0213,-0.888 1.464,0.576 1.71867,-1.29333 3.204,-1.30533 0.41867,-0.004 0.74667,0.18666 1.17734,-0.012 0.484,-0.224 0.736,-0.86134 1.14,-1.19067 0.70266,-0.572 1.36133,-0.46667 2.172,-0.628 0.0747,-0.0147 0.148,-0.0307 0.22266,-0.0493 m 0.90534,1.916 c -1.02267,0.30933 -11.04534,5.66133 -10.83334,5.84 -1.72533,-1.46 -1.76933,-3.324 -2.59466,-5.26267 0.37866,0.89067 1.992,-0.53733 2.36533,-0.876 0.888,-0.80133 1.63733,-1.92933 1.87867,-3.112 0.128,-0.63067 -0.048,-0.964 0.512,-1.332 0.73733,-0.48267 1.88933,-0.10133 2.676,-0.48267 1.492,-0.72133 0.50933,-2.86533 0.95733,-4.20533 0.32933,-0.98267 1.37067,-1.37467 2.26667,-1.74133 0.072,0.144 0.21866,0.212 0.26933,0.39333 2.06933,0.44667 0.784,-6.40667 4.32933,-5.03333 0.15734,0.31066 0.296,0.68666 0.38,1.024 1.53467,-0.0573 1.452,-0.972 2.14267,-2.07867 0.78933,-1.26533 1.308,-0.49733 2.37733,-0.784 1.17733,-0.316 0.976,-1.97067 1.852,-2.6 1.28267,-0.92 1.344,1.092 1.39067,1.884 1.42133,0.22133 2.61733,-0.15733 3.27866,-1.37867 0.432,-0.79733 0.60267,-1.28933 1.352,-1.80666 1.83467,-1.268 2.82134,-0.0493 4.91867,0.24133 2.36,0.32667 2.33733,-2.72267 3.69467,-3.97333 0.4,-0.368 1.22533,-0.54667 1.75066,-0.64 1.24934,-0.224 1.816,-0.19467 2.76134,-0.902669 0.82533,-0.616 1.79333,-1.044 2.65733,-1.608 0.29067,-0.189333 0.95467,-0.897333 1.33733,-0.878667 0.27467,0.01333 0.82,0.486667 1.02267,0.726667 0.59333,0.702667 0.416,1.161333 -0.0827,1.862667 -1.42,1.993332 -0.72266,3.354662 -0.21466,5.610662 0.50533,2.25067 -1.576,1.97734 -2.68267,3.36667 -1.21067,1.51867 0.43333,3.62133 0.076,5.316 -0.212,1.00533 -1.496,1.36933 -2.19467,2.02133 -1.1,1.02534 -0.74266,2.46267 -1.42533,3.70667 -0.54533,0.992 -1.79467,1.168 -2.61333,1.82533 -1.152,0.92667 -2.48,1.644 -3.648,2.57334 -0.63467,0.50266 -1.68267,1.712 -2.56534,1.732 -0.56533,0.0133 -1.224,-0.49867 -1.452,-0.84667 -1.13066,0.644 -1.49733,1.31333 -2.79466,1.13733 -0.952,-0.128 -1.80934,-0.79866 -2.86267,-0.91333 -0.456,-0.0493 -0.92133,-0.08 -1.39467,-0.0947 -2.952,-0.092 -6.16533,0.46134 -8.88799,1.28934"
       style="fill:#000000;fill-opacity:1;fill-rule:nonzero;stroke:none;stroke-width:1.33333"
       id="path128092" />
  </g>
</svg>
