<?xml version="1.0" encoding="UTF-8" standalone="no"?>
<!-- Created with Inkscape (http://www.inkscape.org/) -->

<svg
   version="1.1"
   id="svg127794"
   width="400"
   height="400"
   viewBox="0 0 400 400"
   sodipodi:docname="TellariteEyes2.svg"
   inkscape:version="1.2.2 (b0a8486, 2022-12-01)"
   xmlns:inkscape="http://www.inkscape.org/namespaces/inkscape"
   xmlns:sodipodi="http://sodipodi.sourceforge.net/DTD/sodipodi-0.dtd"
   xmlns="http://www.w3.org/2000/svg"
   xmlns:svg="http://www.w3.org/2000/svg">
  <defs
     id="defs127798" />
  <sodipodi:namedview
     id="namedview127796"
     pagecolor="#ffffff"
     bordercolor="#666666"
     borderopacity="1.0"
     inkscape:showpageshadow="2"
     inkscape:pageopacity="0.0"
     inkscape:pagecheckerboard="0"
     inkscape:deskcolor="#d1d1d1"
     showgrid="false"
     inkscape:zoom="18.3"
     inkscape:cx="326.44809"
     inkscape:cy="122.75956"
     inkscape:window-width="1733"
     inkscape:window-height="1135"
     inkscape:window-x="2689"
     inkscape:window-y="25"
     inkscape:window-maximized="0"
     inkscape:current-layer="g127802">
    <inkscape:page
       x="0"
       y="0"
       id="page127800"
       width="400"
       height="400" />
  </sodipodi:namedview>
  <g
     id="g127802"
     inkscape:groupmode="layer"
     inkscape:label="Page 1">
    <path
       d="m 340.59146,121.92654 c -0.0413,-1.16533 -1.11734,-1.79733 -1.91334,-2.5 -1.64933,-1.45867 -3.38666,-3.084 -5.51333,-3.816 2.49733,-0.62 5.62533,1.856 7.40267,3.44133 0.33866,-2.072 -2.572,-4.52266 -4.12134,-5.59333 1.46267,-0.86533 5.2,1.91733 6.11734,2.9 0.003,-1.048 -1.00534,-2.74133 -0.67067,-3.65333 0.804,-2.192 4.45467,-0.25467 5.448,0.79066 2.68533,2.82534 3.41733,8.94 -0.552,10.84 -1.97067,0.94267 -5.25333,-0.41733 -6.19733,-2.40933"
       style="opacity:0.199997;fill:#000000;fill-opacity:1;fill-rule:nonzero;stroke:none;stroke-width:1.33333"
       id="path150216" />
    <path
       d="m 305.18066,121.32454 c -1.58133,1.692 -3.23333,4.192 -5.82667,4.00667 -0.68,-0.0493 -1.26266,-0.37867 -1.792,-0.77867 -0.009,-0.088 -0.012,-0.184 -0.0227,-0.26533 -0.072,-0.53734 -0.31067,-1.064 -0.42134,-1.584 -0.06,-0.284 -0.076,-0.604 -0.11466,-0.896 -0.10534,-0.80267 -0.34267,-1.596 -0.58934,-2.37334 -1.24666,-3.93733 -4.472,-6.71066 -7.94533,-8.708 -1.104,-0.63333 -2.352,-1.22 -3.584,-1.52266 -0.86667,-0.212 -1.70133,-0.17734 -2.57867,-0.23334 -0.956,-0.0613 -1.91066,-0.20933 -2.864,-0.292 -2.18666,-0.18666 -4.19866,-0.0787 -6.25733,0.85334 -1.668,0.75466 -3.01733,1.764 -4.42267,2.912 -1.29866,1.06133 -2.464,2.188 -3.07333,3.77066 -0.424,1.1 -0.704,2.20667 -1.02533,3.32934 -0.24134,0.84133 -0.34134,1.776 -0.62934,2.592 0.27467,-0.23867 1.12534,-0.92667 1.51067,-0.772 0.30133,0.12 0.50133,1.03066 0.588,1.30933 0.284,0.90533 0.528,1.98 0.54933,2.92667 0.0107,0.456 0.10934,1.11066 -0.032,1.54 0.70934,-0.744 1.252,-1.748 1.86534,-2.58534 0.34533,-0.47333 0.77333,-1.36666 1.33733,-1.59333 0.72933,0.528 0.48267,2.38267 0.22267,3.064 0.73733,-0.576 1.47466,-1.172 2.23333,-1.732 0.44,-0.32533 1.228,-1.13867 1.716,-1.288 -0.0133,0.54933 -0.66,1.07067 -0.87467,1.57067 0.38134,-0.67334 1.252,-1.26934 1.83867,-1.75334 0.844,-0.696 1.74933,-1.32933 2.67867,-1.89066 0.85866,-0.52 1.72933,-0.94 2.652,-1.33467 0.51866,-0.22267 1.148,-0.58933 1.688,-0.69467 -0.0333,0.46 -0.55334,0.84134 -0.876,1.11067 -0.57867,0.48533 -1.2,0.916 -1.792,1.37467 -0.90534,0.70133 -1.76,1.42933 -2.55067,2.24933 -1.052,1.09067 -1.864,2.28267 -2.58933,3.58 -0.28134,0.50133 -0.524,1.01067 -0.72667,1.56667 1.44533,-1.26134 3.09467,-2.23067 4.49333,-3.57067 0.83467,-0.8 1.91334,-2.032 3.07734,-2.36933 0.472,0.784 -0.97067,2.068 -1.392,2.556 -0.44667,0.51866 -0.94,0.996 -1.32134,1.556 -0.22533,0.33066 -0.64533,0.888 -0.32133,1.23866 0.2,0.216 0.54533,0.34667 0.90933,0.44134 -1.388,1 -2.60666,2.25066 -3.65466,3.59333 -0.67734,0.86933 -1.704,1.724 -1.68534,2.89867 1.144,-0.308 2.24267,-1.01334 3.28134,-1.57334 1.21466,-0.65466 2.43066,-1.308 3.652,-1.95066 3.69066,-1.94134 8.476,-0.76134 11.772,1.30933 1.63066,1.024 2.99866,2.048 4.06133,3.57867 0.868,1.252 1.17067,2.412 1.06667,3.916 -0.132,1.90266 -0.68534,1.97866 -2.04934,3.112 -1.052,0.87333 -1.98133,1.62933 -3.25333,2.188 -3.636,1.596 -7.99333,1.20933 -11.72,0.15866 -1.96533,-0.55466 -3.88533,-1.34 -5.63467,-2.39866 -1.59733,-0.96667 -2.84933,-2.516 -4.45866,-3.40134 -1.90534,2.31734 -1.38934,6.67734 -0.0187,9.15067 2.652,4.788 9.37067,8.32933 14.56,5.01733 2.55733,-1.632 3.46933,-4.41066 6.50267,-5.328 3.748,-1.132 6.176,-2.78933 7.97066,-6.30133 1.09067,-2.136 1.968,-4.41467 3.388,-6.38667 1.54534,-2.14533 3.808,-3.47733 5.76267,-5.188 1.65333,-1.44666 2.81467,-3.52266 5.47067,-3.01733 1.07333,0.204 1.50533,1.13733 2.39333,1.66267 1.876,1.112 2.256,-2.084 1.99333,-3.22134 -0.404,-1.75333 -0.93866,-1.94133 -2.624,-2.456 -1.44,-0.44133 -2.716,-0.62133 -4.224,-0.548 -1.368,0.0653 -1.27066,0.0867 -1.86133,1.16267 -0.34133,0.62533 -0.72533,1.26933 -1.06933,1.91067 -0.352,0.65333 -3.23334,6.048 -3.75867,3.04133 -0.45067,-2.572 1.61867,-5.34667 2.91067,-7.04667 1.368,-1.79733 2.652,-1.35866 4.70533,-0.19466 -0.14133,-0.08 -1.17333,-1.81734 -1.52133,-2.15467 -0.52267,-0.50267 -1.54934,-1.12133 -1.76667,-1.91333 -0.144,-0.52934 0.29333,-1.90534 0.37067,-2.404 0.20533,-1.32667 0.43466,-2.66534 0.78533,-3.92667 -0.588,0.11733 -1.19067,0.28267 -1.83333,0.0907 1.17733,3.40133 -0.88,7.03866 -2.80667,8.86 -0.148,0.14 -0.296,0.29066 -0.444,0.44933"
       style="opacity:0.199997;fill:#000000;fill-opacity:1;fill-rule:nonzero;stroke:none;stroke-width:1.33333"
       id="path150276" />
    <path
       d="m 336.08346,143.00747 c 0.57466,-0.14133 0.844,-0.32133 0.844,-0.32133 l 2.78533,-2.73467 -0.0547,-5.484 -6.84933,-0.87333 c 0,0 -6.248,1.47333 -7.52933,2.72933 -1.28267,1.25467 -1.91067,4.01067 -1.93733,4.092 0,0 0.136,0.84534 0.65466,0.95467 0.51867,0.10933 3.356,1.91067 4.36534,1.856 1.00933,-0.0547 7.72133,-0.21867 7.72133,-0.21867"
       style="fill:#ffffff;fill-opacity:1;fill-rule:nonzero;stroke:none;stroke-width:1.33333"
       id="path150286" />
    <path
       d="m 271.06893,137.72027 4.46666,-2.252 14.376,-0.51066 5.288,2.456 2.82267,2.76266 -1.12933,1.43334 -3.33734,0.204 c 0,0 -2.156,1.68933 -4.46666,1.63733 -2.30934,-0.0507 -13.296,-1.176 -13.296,-1.176 l -4.98134,-4.04267 z"
       style="fill:#ffffff;fill-opacity:1;fill-rule:nonzero;stroke:none;stroke-width:1.33333"
       id="path150290" />
    <path
       d="m 280.03306,134.98934 c -0.336,0.76133 -0.52667,1.60133 -0.52667,2.48667 0,2.06266 1.04134,4.08533 2.60134,5.208 l 5.83866,0.54666 c 2.31334,-0.896 3.956,-3.132 3.956,-5.75466 0,-0.77334 -0.148,-1.50934 -0.408,-2.192 -2.864,-0.88667 -8.16933,-0.59734 -11.46133,-0.29467"
       style="fill:#754324;fill-opacity:1;fill-rule:nonzero;stroke:none;stroke-width:1.33333"
       id="path150294" />
    <path
       d="m 288.34186,137.47574 c 0,1.452 -1.18133,2.628 -2.63733,2.628 -1.456,0 -2.63734,-1.176 -2.63734,-2.628 0,-1.452 1.18134,-2.628 2.63734,-2.628 1.456,0 2.63733,1.176 2.63733,2.628"
       style="fill:#000000;fill-opacity:1;fill-rule:nonzero;stroke:none;stroke-width:1.33333"
       id="path150298" />
    <path
       d="m 282.26573,142.27134 5.61733,0.52533 c 2.18533,-0.888 3.592,-2.96533 3.592,-5.32133 0,-0.62267 -0.104,-1.24267 -0.30933,-1.844 -2.81467,-0.78533 -7.868,-0.504 -10.83734,-0.24133 -0.26266,0.668 -0.39466,1.368 -0.39466,2.08533 0,1.856 0.912,3.72533 2.332,4.796 m 5.74,1.392 -6.05334,-0.56667 -0.0947,-0.068 c -1.688,-1.21333 -2.77867,-3.39333 -2.77867,-5.55333 0,-0.91867 0.18933,-1.81333 0.56267,-2.65733 l 0.10266,-0.22934 0.24934,-0.0227 c 3.73866,-0.34267 8.788,-0.56667 11.62666,0.312 l 0.19867,0.0613 0.0747,0.19333 c 0.28933,0.75867 0.436,1.548 0.436,2.34267 0,2.74267 -1.66,5.15733 -4.22934,6.152 z"
       style="fill:#000000;fill-opacity:1;fill-rule:nonzero;stroke:none;stroke-width:1.33333"
       id="path150302" />
    <path
       d="m 284.85266,136.79774 c 0,0.796 -0.648,1.44133 -1.44667,1.44133 -0.79866,0 -1.44666,-0.64533 -1.44666,-1.44133 0,-0.796 0.648,-1.44133 1.44666,-1.44133 0.79867,0 1.44667,0.64533 1.44667,1.44133"
       style="fill:#ffffff;fill-opacity:1;fill-rule:nonzero;stroke:none;stroke-width:1.33333"
       id="path150306" />
    <path
       d="m 298.26853,140.48107 c 0,0 -3.35067,-6.01066 -8.208,-6.344 -4.85867,-0.33466 -11.72667,0.5 -14.57467,0.5 -2.848,0 -5.696,3.34 -5.696,3.34 0,0 3.68533,4.17334 6.53333,4.508 l -4.188,-4.508 c 0,0 2.17867,-1.67066 5.02667,-1.83733 2.84667,-0.16667 10.55333,-0.16667 12.89867,0.16667 2.34533,0.33466 8.208,4.17466 8.208,4.17466"
       style="fill:#000000;fill-opacity:1;fill-rule:nonzero;stroke:none;stroke-width:1.33333"
       id="path150310" />
    <path
       d="m 332.02573,134.24614 c -1.08934,0.42267 -3.03867,0.356 -3.79734,0.76267 -1.38666,0.74266 -1.95733,0.93733 -3.192,3.08933 0.25734,2.372 1.58,4.072 3.32934,4.8 l 6.01333,-0.22133 c 1.536,-1.188 2.44133,-3.32267 2.44133,-5.508 0,-0.93734 -0.188,-1.82667 -0.51867,-2.632 -1.22266,-0.12134 -2.72533,-0.24 -4.27599,-0.29067"
       style="fill:#754324;fill-opacity:1;fill-rule:nonzero;stroke:none;stroke-width:1.33333"
       id="path150314" />
    <path
       d="m 334.12106,137.87521 c 0,1.53733 -1.24667,2.784 -2.784,2.784 -1.53733,0 -2.78267,-1.24667 -2.78267,-2.784 0,-1.53734 1.24534,-2.784 2.78267,-2.784 1.53733,0 2.784,1.24666 2.784,2.784"
       style="fill:#000000;fill-opacity:1;fill-rule:nonzero;stroke:none;stroke-width:1.33333"
       id="path150318" />
    <path
       d="m 330.63346,135.95867 c 0,0.84267 -0.684,1.52667 -1.52667,1.52667 -0.84266,0 -1.52666,-0.684 -1.52666,-1.52667 0,-0.84266 0.684,-1.52666 1.52666,-1.52666 0.84267,0 1.52667,0.684 1.52667,1.52666"
       style="fill:#ffffff;fill-opacity:1;fill-rule:nonzero;stroke:none;stroke-width:1.33333"
       id="path150322" />
    <path
       d="m 325.48533,138.19081 c 0.256,1.97733 1.35333,3.56 2.96133,4.268 l 5.772,-0.21067 c 1.33866,-1.10133 2.16533,-3.032 2.16533,-5.07867 0,-0.76666 -0.132,-1.51333 -0.392,-2.22533 -1.37467,-0.132 -2.68266,-0.21867 -3.896,-0.26 -0.572,0.20267 -1.296,0.292 -1.99733,0.376 -0.66267,0.08 -1.34933,0.164 -1.66533,0.332 l -0.268,0.144 c -1.14934,0.608 -1.63867,0.868 -2.68,2.65467 m 2.80133,5.14533 -0.088,-0.036 c -1.992,-0.82933 -3.33467,-2.756 -3.596,-5.15467 l -0.0147,-0.14133 0.0707,-0.12267 c 1.21467,-2.11733 1.884,-2.472 3.09867,-3.11466 l 0.26533,-0.14134 c 0.46,-0.24666 1.19333,-0.336 1.972,-0.42933 0.684,-0.0827 1.39067,-0.16933 1.87333,-0.356 l 0.0827,-0.032 0.0893,0.003 c 1.332,0.044 2.78,0.14266 4.304,0.292 l 0.26,0.0253 0.1,0.24267 c 0.36533,0.88933 0.55067,1.83066 0.55067,2.79866 0,2.36534 -1,4.608 -2.60934,5.852 l -0.11066,0.0853 z"
       style="fill:#000000;fill-opacity:1;fill-rule:nonzero;stroke:none;stroke-width:1.33333"
       id="path150326" />
    <path
       d="m 336.11159,134.86921 c 2.78667,0.52133 2.29867,1.592 2.29867,3.89066 0,2.29867 -2.32667,4.248 -2.32667,4.248 0.72667,-0.11466 1.80133,-0.41066 2.31733,-0.98533 0.23734,-0.26267 0.29734,-0.54267 0.60267,-0.77333 0.31333,-0.23734 0.69333,-0.376 1.032,-0.57067 0.61733,-0.356 1.26533,-0.892 1.664,-1.476 1.104,-1.62 1.28133,-3.49333 1.08667,-5.40267 -0.1,-0.988 -0.22,-2.52666 -1.23067,-3.04 -0.316,0.532 -0.31333,1.176 -0.67733,1.67467 -0.276,0.37867 -0.75734,0.63333 -1.17734,0.82 -0.464,0.20667 -0.78133,0.15733 -1.31333,0.10667 -1.932,-0.18 -3.87333,-0.26 -5.812,-0.26 -2.33466,0 -6.08533,1.852 -6.85866,2.34933 -0.772,0.496 -2.15067,3.972 -2.15067,3.972 0,0 2.26133,-2.924 3.64,-3.42 1.38,-0.49733 5.508,-1.76933 8.90533,-1.13333"
       style="fill:#000000;fill-opacity:1;fill-rule:nonzero;stroke:none;stroke-width:1.33333"
       id="path150330" />
    <path
       d="m 280.03306,134.98934 c 3.212,-1.156 -11.26533,0.104 -10.98933,8.78667 0.04,1.23866 0.68933,3.72 0.68933,3.72 0,0 2.548,-9.71734 10.3,-12.50667"
       style="fill:#000000;fill-opacity:1;fill-rule:nonzero;stroke:none;stroke-width:1.33333"
       id="path150334" />
    <path
       d="m 267.97399,153.21867 c 0,0 3.496,6.548 7.93467,6.43734 4.44,-0.112 12.48667,-4.66134 13.54,-5.54934 1.05467,-0.888 2.88533,-3.052 2.88533,-3.052 0,0 -6.38133,12.81867 -16.536,16.20267 0,0 6.88134,-5.49333 8.10134,-7.15733 0,0 -3.44,2.164 -8.656,2.38533 -5.216,0.22267 -10.15467,-8.76667 -11.376,-13.54 -1.22,-4.772 4.10666,4.27333 4.10666,4.27333"
       style="opacity:0.199997;fill:#000000;fill-opacity:1;fill-rule:nonzero;stroke:none;stroke-width:1.33333"
       id="path150344" />
    <path
       d="m 315.22013,115.74574 c -1.87734,2.12 -4.06534,5.09867 -0.916,6.96933 0.99466,0.59067 2.244,0.696 3.34,1.23467 1.092,0.53733 2.24266,0.896 3.444,1.392 0.13333,-2.592 -0.33334,-5.49333 -1.16667,-7.976 0.0307,0.90667 0.304,2.76533 -0.41333,3.74 -0.816,1.112 -2.04667,1.85867 -3.35067,1.10933 -2.18533,-1.25733 -1.864,-4.356 -0.93733,-6.46933"
       style="opacity:0.199997;fill:#000000;fill-opacity:1;fill-rule:nonzero;stroke:none;stroke-width:1.33333"
       id="path150360" />
    <path
       d="m 329.08279,119.44174 c 3.77067,-0.75733 7.548,0.248 11.06667,1.464 3.68,1.27333 3.62933,3.36133 3.44933,7.03733 -0.072,1.47467 0.48667,6.36667 -1.43333,7.00134 -1.056,0.348 -3.21334,-1.40667 -4.30667,-1.66934 0.58667,-1.02533 0.8,-1.304 0.48,-2.456 -0.40133,-1.44933 -0.64267,-2.472 -2.19333,-2.77466 -1.75467,-0.34134 -3.728,0.38933 -5.30133,1.10133 -0.836,0.37733 -1.50134,0.90667 -2.26267,1.36533 -0.63067,0.38134 -1.72667,0.60667 -2.228,1.13467 1.19867,-1.26133 2.736,-2.75067 4.22267,-3.876 0.936,-0.708 2.86133,-0.90133 3.42533,-2.016 0.80666,-1.59333 -1.56933,-3.00133 -2.59733,-3.788 -0.68134,-0.52 -4.212,-1.98533 -2.32134,-2.524"
       style="opacity:0.199997;fill:#000000;fill-opacity:1;fill-rule:nonzero;stroke:none;stroke-width:1.33333"
       id="path150376" />
    <path
       d="m 260.45399,117.41401 c 0.98267,6.972 -2.424,13.47466 -1.98133,20.43466 2.3,-6.31733 5.744,-14.036 1.98133,-20.43466"
       style="fill:#000000;fill-opacity:1;fill-rule:nonzero;stroke:none;stroke-width:1.33333"
       id="path150386" />
    <path
       d="m 278.46839,158.45294 c -2.59466,0.98933 -5.17333,-0.27467 -7.21333,-2.168 -2.064,-1.88133 -3.76933,-4.24 -5.23333,-6.70933 -1.50934,-2.464 -2.768,-4.60534 -2.272,-7.676 0.61466,-5.716 2.5,-11.39067 4.492,-16.808 1.05333,-2.72667 2.08933,-5.51067 3.8,-7.90934 -3.90134,4.46934 -6.01734,10.26534 -8.052,15.77867 -1.148,3.53733 -2.26267,7.26933 -2.22934,11.08933 -0.0453,2.33734 1.46134,4.59467 2.54534,6.552 1.57333,2.56667 3.35733,5.052 5.704,7.1 2.292,2.08667 5.89866,3.608 8.936,2.224 5.39466,-2.05333 11.55733,-4.82266 14.13466,-10.32266 -3.22266,4.98533 -9.232,7.07866 -14.612,8.84933"
       style="fill:#000000;fill-opacity:1;fill-rule:nonzero;stroke:none;stroke-width:1.33333"
       id="path150390" />
    <path
       d="m 286.64173,118.79174 c -9.5,2.952 -16.59467,13.04267 -21.03867,21.49867 6.30533,-7.764 12.092,-16.57467 21.03867,-21.49867"
       style="fill:#000000;fill-opacity:1;fill-rule:nonzero;stroke:none;stroke-width:1.33333"
       id="path150394" />
    <path
       d="m 269.16733,127.52934 c 2.948,-4.012 5.66933,-7.968 7.70266,-12.53067 -3.50933,3.48134 -6.42933,7.72534 -7.70266,12.53067"
       style="fill:#000000;fill-opacity:1;fill-rule:nonzero;stroke:none;stroke-width:1.33333"
       id="path150398" />
    <path
       d="m 295.05626,123.53294 c 1.55067,1.89733 2.77333,4.068 3.54267,6.52533 -0.0987,-6.172 -4.75334,-11.21333 -9.66134,-14.49866 -5.39066,-3.14267 -12.03866,-2.60934 -17.58666,-0.44667 3.81733,-0.42667 7.132,-0.49733 10.16133,0.0107 -3.97733,1.19466 -7.544,6.744 -8.78133,9.992 2.76,-2.96 5.052,-6.14934 8.18666,-8.61867 0.60534,-0.452 1.256,-0.844 1.968,-1.09867 0.6,0.14134 1.188,0.31334 1.768,0.508 -1.53466,0.6 -2.93333,2.00534 -3.52933,3.34534 1.968,-0.752 3.42933,-2.06267 5.268,-2.668 2.73333,1.23066 5.3,3.15733 7.89733,6.02666 -2.06533,-0.60533 -4.544,-0.06 -6.90133,0.92534 0.92533,-0.676 1.864,-1.33734 2.81733,-1.984 -8.21333,2.47066 -15.252,8.50133 -19.748,15.77733 -2.01466,1.88667 -3.65066,4.116 -4.72133,6.72267 0.936,-1.20134 1.95867,-2.288 3.04267,-3.29334 -0.67467,1.43067 -0.97067,2.99734 -0.63467,4.684 0.58667,2.53467 1.304,5.06267 2.91867,7.20134 2.71066,3.91466 8.308,4.34266 12.31333,2.84533 -2.84133,0.11867 -5.73867,-0.044 -8.02267,-1.328 -3.25733,-1.748 -4.45333,-5.72533 -5.316,-9.18267 -0.50533,-2.58133 0.752,-4.96 2.40134,-7.132 3.31066,-2.27066 7.008,-3.98933 10.82666,-5.44533 3.008,-0.432 6.088,-0.73067 8.71734,0.456 3.87733,2.26133 4.99066,5.52133 4.12933,10.06267 -0.45333,2.76 -1.31467,5.508 -2.12533,8.29733 1.544,-2.46133 2.83333,-5.1 3.62,-7.976 1.52666,-5.03067 0.096,-9.47067 -4.67334,-12.05333 -1.31733,-0.55467 -2.66266,-0.77867 -4.00933,-0.78 1.55867,-0.51467 3.11467,-1.01467 4.64933,-1.516 -6.16266,0.21066 -13.284,1.872 -18.96133,5.32933 2.93733,-2.71333 5.932,-5.33867 9.05333,-7.82667 3.60134,-1.38933 8.27867,-3.664 11.39067,-2.86133"
       style="fill:#000000;fill-opacity:1;fill-rule:nonzero;stroke:none;stroke-width:1.33333"
       id="path150402" />
    <path
       d="m 279.99666,150.08787 c -3.86533,-1.23333 -6.19333,-4.09333 -8.02133,-7.672 -0.148,4.15867 3.692,8.46267 8.02133,7.672"
       style="fill:#000000;fill-opacity:1;fill-rule:nonzero;stroke:none;stroke-width:1.33333"
       id="path150406" />
    <path
       d="m 326.73386,147.43587 c 3.624,0.40667 7.38133,0.572 10.83466,-0.816 0.55734,-0.312 0.88,-0.74666 1.15334,-1.12266 1.47733,-2.29867 2.31333,-4.91867 2.524,-7.616 -0.65867,1.63066 -1.50134,3.16533 -2.30534,4.672 -0.59066,0.964 -1.18533,2.18266 -2.07066,2.77733 -3.29867,1.132 -6.984,1.19467 -10.47867,1.81467 -0.89733,-0.74267 -1.756,-1.65467 -2.59333,-2.76267 0.332,-2.42267 0.696,-5.00533 1.37067,-7.45733 3.42666,-3.40267 7.07066,-6.27067 11.63066,-8.068 -4.22666,-0.0573 -8.20133,2.30533 -10.82,5.632 0.96934,-2.452 2.388,-4.644 4.59334,-6.22267 1.73733,-0.932 3.87999,-1.432 5.96533,-1.89333 -10.39867,-1.40534 -13.992,9.204 -12.91867,17.75733 -0.86666,-1.17733 -1.72,-2.536 -2.58666,-4.09467 1.28666,6.22934 6.74666,12.788 13.70399,10.19734 2.04134,-0.636 3.88934,-1.708 5.46267,-3.06667 -6.07067,2.85067 -10.092,2.84533 -13.46533,0.26933"
       style="fill:#000000;fill-opacity:1;fill-rule:nonzero;stroke:none;stroke-width:1.33333"
       id="path150410" />
    <path
       d="m 337.94266,143.49054 c 1.016,-0.872 1.89466,-2.13067 1.76933,-3.53867 -1.40133,1.33334 -2.66667,2.34267 -4.08533,3.46667 -0.46934,0.37867 -0.95734,0.75467 -1.444,1.264 1.38,0.15867 2.692,-0.36533 3.76,-1.192"
       style="fill:#000000;fill-opacity:1;fill-rule:nonzero;stroke:none;stroke-width:1.33333"
       id="path150414" />
    <path
       d="m 345.01319,130.97014 c 1.86933,-4.79867 2.86133,-11.43067 -0.49867,-15.58267 0.69067,2.34 0.796,4.71734 0.708,7.108 -0.91866,-3.636 -3.25066,-6.88266 -6.98533,-7.892 3.028,2.18 4.73333,5.24267 5.652,8.596 -0.18533,-0.32 -0.40133,-0.62533 -0.68267,-0.89733 -3.176,-2.77067 -7.52666,-3.424 -11.50799,-3.12133 2.66133,0.52533 5.19866,1.43066 7.53733,2.71733 1.04933,0.62 2.07066,1.228 2.64,2.25467 0.396,1.224 0.53733,2.496 0.572,3.788 -0.35867,-1.17334 -0.884,-2.29067 -1.64267,-3.31067 -1.36667,-1.77467 -3.616,-2.61067 -5.69467,-3.08667 7.124,3.35334 6.604,8.776 6.26,15.68667 -0.012,2.148 -0.616,4.096 -0.968,6.19867 0.444,-0.97467 0.90934,-1.91067 1.34267,-2.912 0.20133,-0.712 0.39067,-1.45334 0.564,-2.21067 0.18133,3.54 0.33333,7.088 -1.64667,10.09733 -0.85466,1.332 -2.89466,2.06134 -3.82533,3.73067 1.356,-1.26667 3.244,-1.39733 4.80533,-2.86267 1.40134,-1.43733 2.28134,-3.288 2.692,-5.20266 0.632,-2.752 0.444,-5.616 0.48267,-8.348 0.052,-1.57734 0.15867,-3.15867 0.196,-4.75067"
       style="fill:#000000;fill-opacity:1;fill-rule:nonzero;stroke:none;stroke-width:1.33333"
       id="path150418" />
    <path
       d="m 303.84959,133.57467 c -1.69066,2.34667 -3.44933,4.90667 -3.93066,7.83734 3.29466,-4.43467 6.65733,-9.78934 10.71466,-13.40667 -2.88133,0.82667 -5.09466,3.22667 -6.784,5.56933"
       style="fill:#000000;fill-opacity:1;fill-rule:nonzero;stroke:none;stroke-width:1.33333"
       id="path150422" />
    <path
       d="m 331.69826,116.04121 c -7.80933,2.172 -11.64667,11.008 -12.38667,18.50266 -0.772,-3.00133 -2.81066,-5.724 -5.268,-7.51733 1.87734,3.896 4.08534,7.39067 5.492,11.50933 0.20267,-1.29733 0.11334,-2.592 -0.18933,-3.84266 2.75867,-6.988 5.636,-14.576 12.352,-18.652"
       style="fill:#000000;fill-opacity:1;fill-rule:nonzero;stroke:none;stroke-width:1.33333"
       id="path150426" />
    <path
       d="m 318.48293,132.66041 c -0.156,2.00266 0.34933,3.80133 0.52533,5.67866 0.33467,3.58267 1.66133,8.192 3.40133,11.30934 0.99067,1.77466 2.788,4.09466 4.56,5.09333 -0.50266,-1.92 3.50134,-2.17733 4.856,-3.14667 -0.70533,-1.232 -2.73066,-2.164 -3.86933,-3.06666 -1.108,-0.87867 -2.37067,-1.73334 -3.384,-2.668 -4.64133,-4.276 -0.936,-11.96267 1.09733,-16.59334 -1.71866,1.024 -3.36266,3.56267 -4.408,5.27467 -0.21333,-1.80667 1.34934,-4.46267 2.26267,-5.94533 0.87333,-1.416 2.02933,-2.616 3.57867,-3.27334 0.7,-0.29733 3.92533,-1.45733 4.58133,-1.04266 -1.56667,-0.988 -3.34933,-1.87734 -5.28267,-1.7 -1.832,0.168 -3.86266,1.31466 -5.16133,2.60666 -1.68267,1.67467 -2.57867,5.17467 -2.75733,7.47334"
       style="opacity:0.199997;fill:#000000;fill-opacity:1;fill-rule:nonzero;stroke:none;stroke-width:1.33333"
       id="path150436" />
  </g>
  <g
     inkscape:groupmode="layer"
     id="layer4"
     inkscape:label="Brows">
    <path
       d="m 345.36079,108.32494 c -0.132,0.24133 -0.30267,0.43333 -0.528,0.51733 -0.75333,0.28134 -1.74133,0.15334 -2.53333,0.25867 -1.18934,0.15733 -2.14934,0.56133 -3.268,0.92267 -3.63867,1.172 -8.85867,0.82 -11.58,3.97733 -1.2,1.39333 -1.904,3.30933 -3.52267,4.32933 -1.52266,0.956 -1.632,-0.67333 -1.49066,-1.80666 0.104,-0.83867 0.50666,-1.468 0.16533,-2.276 -0.36267,-0.856 -0.34133,-1.64 -0.14133,-2.53734 0.13866,-0.62666 0.27066,-1.388 0.57866,-1.956 0.4,-0.736 0.976,-1.36933 1.556,-1.964 1.92934,-1.98133 4.84267,-2.35333 7.17867,-3.73733 -0.82533,0.836 -2.01067,1.20267 -3.00933,1.78 -0.58667,0.34 -1.22,0.67867 -1.76267,1.07333 -0.25733,0.18667 -0.64267,0.36 -0.80667,0.63734 0.61334,0.0173 1.42934,-0.184 2.036,-0.30934 0.81067,-0.168 1.59867,-0.476 2.37734,-0.748 0.87866,-0.308 2.02933,-0.73733 2.71333,-1.37866 0.27333,-0.25734 0.488,-0.56534 0.77066,-0.81334 0.98134,-0.856 2.03467,-1.73733 2.95334,-2.65466 0.472,-0.472 0.896,-0.77467 1.50666,-1.01334 -0.80666,0.904 -2.09066,1.82934 -2.472,2.988 -0.024,0.072 1.26667,-0.14133 1.39067,-0.19333 0.44,-0.184 0.588,-0.448 0.892,-0.77333 0.712,-0.76134 2.06267,-1.03334 3.00533,-1.39867 0.496,-0.192 0.98267,-0.312 1.492,-0.444 0.46534,-0.12 0.8,-0.41867 1.19067,-0.71067 0.63333,0.62934 0.916,1.54 1.18133,2.36934 0.296,0.92133 0.85467,1.724 0.94934,2.71866 0.056,0.58534 -0.18134,1.09467 -0.34,1.648 -0.112,0.39467 -0.22934,1.03334 -0.48267,1.49467"
       style="opacity:0.199997;fill:#000000;fill-opacity:1;fill-rule:nonzero;stroke:none;stroke-width:1.33333"
       id="path150232" />
    <path
       d="m 295.07253,109.08774 c 0.54933,0.66933 0.948,1.37467 1.924,1.35867 0.86133,-0.0147 0.648,-0.832 0.25733,-1.288 0.26933,0.31466 0.708,0.512 1,0.82133 0.31067,0.332 0.444,0.68533 0.64,1.08533 0.41733,0.85067 0.312,1.436 -0.49067,2.07867 -1.56933,1.256 -4.39066,0.0773 -6.01333,-0.424 -1.424,-0.44 -2.99067,-0.62667 -4.496,-0.716 -2.13067,-0.12533 -4.27333,-0.0187 -6.40667,-0.112 -2.17066,-0.0933 -4.39066,-0.16133 -6.55733,0.0187 -1.248,0.10533 -2.60667,-0.14934 -3.83467,0.08 -0.636,0.11866 -1.28666,0.41733 -1.87866,0.67733 -1.644,0.72 -3.388,1.29067 -5.11067,1.79467 -0.48533,0.14266 -0.97733,0.22266 -1.46533,0.33066 -0.272,0.06 -0.544,0.128 -0.81334,0.22134 -0.48266,0.16533 -0.964,0.33866 -1.44,0.52266 -0.332,0.12934 -0.74266,0.416 -1.10266,0.42934 -0.704,0.0267 -1.67734,-0.60134 -2.348,-0.83467 -3.42934,-1.19467 -3.33067,-2.22 -3.34134,-4.248 -0.007,-1.51733 0.472,-3.01733 0.79067,-4.52133 0.132,-0.62267 0.0133,-1.348 0.46933,-1.93067 0.43467,-0.55467 1.24134,-1.05333 2.08667,-1.44667 1.18,-0.548 2.172,-0.60266 3.65333,-0.82266 -1.388,-0.22534 -2.86533,-0.32667 -4.31733,-0.36267 -0.56933,-0.0133 -1.31733,-0.06 -1.816,0.0733 -0.99733,0.268 -1.72933,1.156 -2.26267,1.64534 0.30934,-0.99067 1.156,-2.07067 3.044,-2.46667 2.16534,-0.45333 4.82534,-0.012 6.98934,0.22533 2.17466,0.23867 4.31466,0.57734 6.43466,0.924 1.83467,0.30134 3.47334,0.684 5.43467,0.80934 -0.688,-0.54 -2.452,-0.844 -3.53333,-1.176 -0.864,-0.26534 -1.752,-0.47067 -2.608,-0.77734 -0.844,-0.30133 -1.33467,-0.816 -2.164,-1.111996 -0.86,-0.306666 -1.98534,-0.401333 -2.86267,-0.661333 2.15733,0.230667 4.59333,0.581333 6.43867,1.239999 1.18666,0.42267 2.252,0.90133 3.37466,1.37067 2.748,1.15333 6.03734,1.352 9.26667,1.96666 1.06667,0.20267 1.96,0.584 2.932,0.80667 -0.492,-0.6 -1.312,-1.12267 -2.34533,-1.48 0.94933,0.13467 2.2,0.44667 3.06266,0.71733 0.77467,0.24267 1.16267,0.65734 1.756,0.99334 0.62134,0.35333 1.236,0.65333 1.78667,1.04266 0.52,0.368 1.26933,0.89467 1.93733,0.9 0.73067,0.005 0.46267,-1.15066 0.224,-1.61866 -0.316,-0.616 -0.984,-0.87867 -1.39866,-1.4 0.55733,0.7 1.60533,0.968 2.20933,1.66133 0.30267,0.348 0.44933,0.77467 0.708,1.14267 0.328,0.46666 0.78933,0.83733 1.104,1.31733 0.16267,0.24933 0.256,0.444 0.47067,0.63467 0.20133,0.17866 0.43333,0.292 0.612,0.50933"
       style="opacity:0.199997;fill:#000000;fill-opacity:1;fill-rule:nonzero;stroke:none;stroke-width:1.33333"
       id="path150248" />
    <path
       d="m 262.58266,119.37561 c -0.148,0 -0.29467,-0.0493 -0.416,-0.14534 l -0.22533,-0.17733 c -0.36934,-0.29067 -0.82534,-0.65067 -1.40134,-0.76267 -0.836,-0.164 -1.53066,-0.368 -2.208,-0.83066 -0.96533,-0.66 -2.24533,-1.75734 -2.716,-2.492 -0.0547,-0.0867 -0.10666,-0.176 -0.15733,-0.27067 -0.108,-0.20667 -0.1,-0.45467 0.02,-0.65467 0.12,-0.19866 0.336,-0.32133 0.56933,-0.32266 0.12534,0 0.248,-0.036 0.352,-0.10134 0.19734,-0.124 0.31467,-0.33733 0.31334,-0.56933 l -0.008,-0.31467 c -0.012,-0.28666 0.15866,-0.548 0.42666,-0.65066 0.0773,-0.0293 0.15867,-0.044 0.23867,-0.044 0.19467,0 0.38267,0.0853 0.51333,0.24 0.188,0.22933 0.376,0.31866 0.576,0.31866 0.26534,-0.0187 0.46134,-0.13866 0.572,-0.32533 0.37334,-0.62267 0.56267,-1.31333 0.6,-2.176 0.009,-0.21867 0.12534,-0.41733 0.31067,-0.53467 0.108,-0.068 0.23067,-0.10266 0.356,-0.10266 0.088,0 0.176,0.0173 0.25867,0.052 0.224,0.0947 0.448,0.16 0.664,0.19333 0.016,0.001 0.032,0.001 0.048,0.001 0.24,0 0.38533,-0.06 0.5,-0.16266 0.14933,-0.13334 0.23066,-0.32534 0.22266,-0.52667 -0.012,-0.26533 -0.0373,-0.512 -0.0653,-0.752 -0.028,-0.24267 0.0787,-0.48 0.27867,-0.62133 0.11466,-0.08 0.248,-0.12134 0.384,-0.12134 0.1,0 0.20133,0.0227 0.29466,0.068 0.60267,0.29734 1.25734,0.572 1.95067,0.572 0.24933,0 0.484,-0.14266 0.59733,-0.36133 0.116,-0.224 0.0987,-0.48933 -0.044,-0.69067 -0.0827,-0.116 -0.14533,-0.236 -0.2,-0.376 -0.0867,-0.228 -0.0427,-0.48533 0.116,-0.67066 0.128,-0.15067 0.31467,-0.23467 0.50667,-0.23467 0.0467,0 0.092,0.005 0.13733,0.0147 0.17467,0.036 0.30667,0.0653 0.43467,0.108 1.1,0.36933 2.10533,1.1 3.17067,1.872 0.99066,0.71866 2.01466,1.46 3.13866,1.89866 0.076,0.0293 0.15867,0.044 0.24134,0.044 0.14666,0 0.292,-0.0493 0.408,-0.14 0.184,-0.14133 0.28133,-0.37466 0.25333,-0.60533 -0.052,-0.44 -0.23467,-0.83333 -0.55467,-1.20267 -0.13866,-0.16 -0.19333,-0.376 -0.148,-0.58133 0.0467,-0.20667 0.188,-0.37867 0.38,-0.464 0.19334,-0.11467 0.27067,-0.19733 0.32267,-0.29333 0.0853,-0.15867 0.232,-0.276 0.40533,-0.32534 0.0587,-0.016 0.12,-0.0253 0.18134,-0.0253 0.116,0 0.23066,0.0307 0.332,0.0893 0.20133,0.116 0.40133,0.18134 0.61066,0.2 h 0.016 c 0.52134,0 1,-0.22933 1.52534,-0.67466 0.12133,-0.10267 0.27466,-0.15867 0.432,-0.15867 0.036,0 0.0733,0.004 0.10933,0.009 0.21333,0.036 0.40667,0.0387 0.56533,0.0427 0.24,0.007 0.36267,0.0133 0.484,0.0507 0.25334,0.11333 0.44134,0.276 0.828,0.63466 0.47734,0.44267 1.01867,0.944 1.672,0.98267 0.26134,-0.001 0.556,-0.076 0.872,-0.23067 0.0933,-0.0467 0.19334,-0.068 0.29334,-0.068 0.18666,0 0.36933,0.0773 0.49866,0.224 0.34134,0.38667 0.68134,0.64267 1.232,0.64267 0.252,0 0.532,-0.0573 0.87867,-0.18133 l 0.64267,-0.228 c 0.0733,-0.0253 0.14933,-0.0373 0.22266,-0.0373 0.23067,0 0.45067,0.11867 0.57467,0.32534 0.37333,0.63066 0.764,0.9 1.30667,0.9 0.216,0 0.444,-0.048 0.696,-0.144 0.23066,-0.088 0.46933,-0.22267 0.72933,-0.41334 0.116,-0.0853 0.25467,-0.12933 0.39467,-0.12933 0.0507,0 0.10133,0.005 0.152,0.0173 0.18933,0.044 0.35066,0.16934 0.44,0.34267 0.42266,0.81733 1.112,1.81467 1.98533,1.924 0.0413,0.005 0.11867,0.009 0.15467,0.009 0.32266,0 0.612,-0.11466 0.93733,-0.37333 0.12,-0.0947 0.26667,-0.144 0.41467,-0.144 0.116,0 0.232,0.0293 0.336,0.0907 0.052,0.0227 0.21466,0.108 0.26,0.144 0.26933,0.20933 0.49066,0.32266 0.888,0.32266 0.19866,0 0.444,0.088 0.57066,0.24134 0.12667,0.15333 0.23467,0.35466 0.196,0.55066 -0.0907,0.46534 -0.12133,0.856 -0.0947,1.19334 0.0253,0.31866 0.27333,0.57466 0.592,0.61066 0.128,0.0133 0.25866,0.02 0.38933,0.02 0.648,0 1.33867,-0.164 2.052,-0.488 0.088,-0.0413 0.18267,-0.06 0.276,-0.06 0.10933,0 0.21733,0.0267 0.316,0.0787 0.184,0.0987 0.31067,0.27733 0.34267,0.484 0.27066,1.70267 0.464,4.09867 -0.95467,5.236 -0.12133,0.0973 -0.268,0.14667 -0.41733,0.14667 -0.116,0 -0.23334,-0.0307 -0.33867,-0.0933 -0.45467,-0.268 -1.116,-0.78266 -1.51067,-1.08933 -0.52666,-0.408 -0.80666,-0.62267 -1.028,-0.73333 -3.07333,-1.53067 -7.26533,-2.376 -12.81466,-2.584 -0.51734,-0.0187 -1.036,-0.0293 -1.552,-0.0293 -2.80267,0 -5.608,0.28534 -8.33867,0.84667 -1.57333,0.324 -3.05867,0.62933 -4.40267,1.524 -0.384,0.256 -0.76133,0.52667 -1.14,0.796 -0.88266,0.63067 -1.77733,1.27067 -2.73066,1.716 -0.0787,0.0373 -0.21734,0.11467 -0.38934,0.21067 -0.17066,0.096 -0.54533,0.30533 -0.81866,0.436 -0.092,0.0427 -0.18934,0.064 -0.28667,0.064"
       style="fill:#383838;fill-opacity:1;fill-rule:nonzero;stroke:none;stroke-width:1.33333"
       id="path150446" />
    <path
       d="m 262.58266,119.37561 c -0.148,0 -0.29467,-0.0493 -0.416,-0.14534 l -0.22533,-0.17733 c -0.36934,-0.29067 -0.82534,-0.65067 -1.40134,-0.76267 -0.836,-0.164 -1.53066,-0.368 -2.208,-0.83066 -0.96533,-0.66 -2.24533,-1.75734 -2.716,-2.492 -0.0547,-0.0867 -0.10666,-0.176 -0.15733,-0.27067 -0.108,-0.20667 -0.1,-0.45467 0.02,-0.65467 0.12,-0.19866 0.336,-0.32133 0.56933,-0.32266 0.12534,0 0.248,-0.036 0.352,-0.10134 0.19734,-0.124 0.31467,-0.33733 0.31334,-0.56933 l -0.008,-0.31467 c -0.0133,-0.30933 0.24,-0.68933 0.58,-0.688 0.288,10e-4 0.768,0.464 1.024,0.61067 0.85866,0.49333 1.76,0.916 2.68933,1.25867 -0.10667,-0.24134 -0.13867,-0.54 -0.10933,-0.80667 0.404,0.003 0.82,0.29867 1.232,0.25067 0.47333,-0.0547 0.76,-0.48534 1.1,-0.75067 0.516,-0.4 0.91733,-0.06 1.564,0.10133 0.37333,0.0933 0.808,0.276 1.19866,0.21734 0.136,-1.01734 -1.68666,-1.61734 -1.61866,-2.64134 0.92266,1.256 3.072,2.40934 4.60266,2.80534 -0.0613,-0.71467 -0.86266,-1.44667 -1.13466,-2.144 1.02666,0.58533 2.056,1.044 3.12933,1.516 -0.072,-0.34 -0.38533,-0.632 -0.604,-0.884 -0.40933,-0.47467 -0.81467,-0.94934 -1.236,-1.41467 -0.47333,-0.52133 -1.08,-1.22533 -1.33333,-1.86933 0.85066,0.75466 2.02533,1.252 2.984,1.86266 0.436,0.27734 0.91866,0.60667 1.412,0.77467 0.58533,0.19867 1.41733,0.62667 2.02666,0.652 0.424,0.0187 0.49734,-0.14667 0.65867,-0.57067 0.332,0.15734 1.2,0.71867 1.60133,0.51867 0.26934,-0.13467 0.26267,-0.48533 0.30134,-0.80667 0.064,-0.532 0.17733,-1.32133 0.008,-1.87466 0.5,0.64933 1.35466,1.40533 2.08666,1.77333 0.0667,-0.124 0.18,-0.27733 0.31467,-0.33867 0.344,-0.156 0.18533,0.012 0.548,0.192 0.528,0.26134 0.956,-0.25733 1.304,-0.64 0.244,0.14534 0.35067,0.512 0.52,0.74667 0.616,-0.536 1.016,-1.06 1.236,-1.81867 0.12133,0.85734 0.304,1.76134 0.256,2.62934 -0.0133,0.23466 -0.0667,0.48133 -0.0427,0.71466 1.18,-0.48266 2.68534,-0.80933 3.308,-2.07066 0.14134,0.56266 0.18134,1.24533 0.18267,1.82666 0.94533,-0.02 1.912,-0.616 2.80133,-0.88933 0.18,0.268 0.0987,0.76 0.17734,1.096 0.46666,0.0187 0.46533,0.45467 1.028,0.276 0.46533,-0.148 0.92133,-0.532 1.34533,-0.76533 -0.052,0.32666 -1.128,1.15733 -0.624,1.43466 0.29333,0.16134 1.01333,-0.116 1.30667,-0.26266 0.37866,-0.18934 0.67866,-0.53867 1.02,-0.76267 -0.0253,0.50667 -0.36934,0.82533 -0.508,1.268 0.92933,0.33067 1.57066,0.648 2.61733,0.64933 0.52267,0 1.01467,-0.252 1.50533,-0.25333 0.028,0.46933 -0.008,0.728 -0.21866,1.09467 -0.14534,0.25333 -0.332,0.46533 -0.332,0.768 0.90933,0.0453 1.464,0.10933 1.788,-0.76134 0.2,-0.54 0.30933,-1.41733 0.808,-1.76266 0.456,1.592 0.58933,4.00933 -0.85867,5.16933 -0.12133,0.0973 -0.268,0.14667 -0.41733,0.14667 -0.116,0 -0.23334,-0.0307 -0.33867,-0.0933 -0.45467,-0.268 -1.116,-0.78266 -1.51067,-1.08933 -0.52666,-0.408 -0.80666,-0.62267 -1.028,-0.73333 -3.07333,-1.53067 -7.26533,-2.376 -12.81466,-2.584 -0.51734,-0.0187 -1.036,-0.0293 -1.552,-0.0293 -2.80267,0 -5.608,0.28534 -8.33867,0.84667 -1.57333,0.324 -3.05867,0.62933 -4.40267,1.524 -0.384,0.256 -0.76133,0.52667 -1.14,0.796 -0.88266,0.63067 -1.77733,1.27067 -2.73066,1.716 -0.0787,0.0373 -0.21734,0.11467 -0.38934,0.21067 -0.17066,0.096 -0.54533,0.30533 -0.81866,0.436 -0.092,0.0427 -0.18934,0.064 -0.28667,0.064"
       style="opacity:0.199997;fill:#000000;fill-opacity:1;fill-rule:nonzero;stroke:none;stroke-width:1.33333"
       id="path150456" />
    <path
       d="m 262.58253,118.70894 c 0.26,-0.124 0.616,-0.324 0.77866,-0.41467 0.192,-0.108 0.348,-0.19333 0.43334,-0.232 0.892,-0.41866 1.72666,-1.01333 2.608,-1.64266 0.39066,-0.27867 0.78,-0.55734 1.176,-0.82134 1.45066,-0.96666 3.01466,-1.288 4.63866,-1.62266 2.772,-0.57067 5.62267,-0.86 8.472,-0.86 0.52534,0 1.052,0.0107 1.57734,0.0293 5.64533,0.212 9.92666,1.08 13.088,2.65467 0.28,0.14 0.57866,0.36933 1.12666,0.79466 0.36,0.28 1.02934,0.80134 1.452,1.05067 1.08934,-0.87333 0.98267,-2.91067 0.71334,-4.612 -0.688,0.31333 -1.48534,0.548 -2.328,0.548 -0.15467,0 -0.31067,-0.008 -0.46267,-0.024 -0.636,-0.0707 -1.132,-0.58133 -1.18267,-1.21867 -0.036,-0.45066 0.0147,-0.916 0.104,-1.376 -0.0387,0.001 -0.076,0.003 -0.112,0.003 -0.62,0 -0.98533,-0.22133 -1.29733,-0.46267 -0.0667,-0.0293 -0.12933,-0.0613 -0.18667,-0.0947 -0.31733,0.25066 -0.76,0.51733 -1.352,0.51733 -0.056,0 -0.18266,-0.008 -0.23733,-0.0147 -1.12933,-0.14133 -1.956,-1.24 -2.49467,-2.27866 -0.27733,0.20266 -0.57066,0.37866 -0.88533,0.49866 -0.33067,0.12667 -0.636,0.188 -0.93467,0.188 -1.044,0 -1.576,-0.712 -1.88133,-1.22533 l -0.64133,0.22667 c -0.42134,0.15066 -0.772,0.22 -1.10267,0.22 -0.884,0 -1.39067,-0.48267 -1.73067,-0.86667 -0.34533,0.16933 -0.74666,0.29733 -1.196,0.29733 h -0.009 c -0.89067,-0.052 -1.552,-0.66533 -2.08533,-1.15866 -0.188,-0.176 -0.47467,-0.44 -0.57467,-0.488 -0.0453,-0.0133 -0.19333,-0.0173 -0.30133,-0.02 -0.184,-0.004 -0.40934,-0.0107 -0.65734,-0.052 -0.65466,0.556 -1.28133,0.83733 -1.87066,0.83733 -0.0387,0 -0.12134,-0.004 -0.16,-0.007 -0.34534,-0.0307 -0.63734,-0.14266 -0.88534,-0.28666 -0.104,0.19333 -0.25733,0.36 -0.44533,0.48266 -0.0627,0.04 -0.12667,0.0733 -0.192,0.10267 0.34,0.392 0.63333,0.896 0.712,1.56 0.056,0.46533 -0.136,0.92533 -0.50667,1.212 -0.23733,0.18533 -0.52533,0.28 -0.816,0.28 -0.164,0 -0.32666,-0.0293 -0.484,-0.0893 -1.20133,-0.468 -2.26133,-1.23734 -3.28666,-1.98 -1.024,-0.74267 -1.99067,-1.44267 -2.992,-1.78 -0.116,-0.0387 -0.23867,-0.0627 -0.36,-0.088 0.0333,0.0853 0.0707,0.15733 0.12133,0.22933 0.288,0.40533 0.32,0.94 0.092,1.38267 -0.22933,0.44266 -0.69067,0.72133 -1.18933,0.72133 -0.82534,0 -1.572,-0.30933 -2.24534,-0.64 0.0293,0.25467 0.056,0.51733 0.068,0.79867 0.0173,0.4 -0.14533,0.78666 -0.44266,1.05333 -0.24667,0.22 -0.564,0.33867 -0.88934,0.33867 -0.0693,0 -0.13733,-0.004 -0.20666,-0.016 -0.27467,-0.0427 -0.55067,-0.124 -0.82,-0.23734 -0.0347,0.79067 -0.19067,1.64667 -0.69334,2.48934 -0.22266,0.372 -0.61333,0.61333 -1.04666,0.64533 -0.032,0.003 -0.0653,0.004 -0.0987,0.004 -0.39733,0 -0.776,-0.17733 -1.03067,-0.488 -0.0187,-0.024 -0.0387,-0.0467 -0.0587,-0.0707 0.005,0.112 0.008,0.22534 0.009,0.33867 0.003,0.46133 -0.23333,0.89067 -0.624,1.13733 -0.21467,0.136 -0.46,0.204 -0.70667,0.204 0.0413,0.0787 0.084,0.15334 0.128,0.22267 0.408,0.636 1.60667,1.668 2.532,2.3 0.584,0.39867 1.20534,0.57867 1.95734,0.72667 0.73333,0.14266 1.284,0.57466 1.68533,0.89066 0.0707,0.056 0.16,0.12667 0.23067,0.18267 m 35.04933,0.30933 c -0.62533,0.30267 -2.85333,-1.78266 -3.42,-2.06533 -3.68533,-1.83467 -8.47067,-2.36133 -12.54267,-2.51333 -3.26,-0.12267 -6.53466,0.14533 -9.73066,0.804 -1.48534,0.30533 -2.90134,0.58133 -4.16667,1.42533 -1.30133,0.86667 -2.536,1.89467 -3.95867,2.56133 -0.288,0.13467 -1.52,0.912 -1.88933,0.848 -0.67067,-0.11466 -1.25333,-1.016 -2.05867,-1.17333 -0.87733,-0.172 -1.672,-0.4 -2.45466,-0.93467 -0.836,-0.57066 -2.31067,-1.75866 -2.90267,-2.68133 -0.748,-1.168 -0.93467,-2.85067 -1.63333,-4.10533 -0.17867,-0.32134 -0.44267,-0.55467 -0.60934,-0.95067 1.29467,0.42933 2.03467,2.19467 3.23467,2.78133 -0.0133,-2.02533 -0.8,-3.69333 -1.636,-5.41333 1.408,1.344 2.80133,2.76933 4.04933,4.292 0.94667,-1.584 0.228,-3.29467 0.55067,-4.896 0.36667,0.96 1.37733,1.864 2.31467,2.01067 -0.0453,-1.04267 -0.324,-1.812 0.012,-2.86267 1.14666,0.28 2.34666,1.31733 3.50666,1.312 -0.43333,-0.61067 -0.40133,-1.176 -0.66666,-1.832 -0.26667,-0.656 -0.86667,-1.284 -1.232,-1.904 0.94266,-0.0173 1.71466,0.96 2.576,1.28267 0.33333,0.12666 0.71733,0.15733 1.07466,0.27733 2.28,0.76667 4.15067,2.92933 6.336,3.78 -0.17333,-1.44667 -2.32933,-1.612 -2,-3.23067 0.72134,-0.032 1.42267,0.0307 2.07734,0.29067 0.0227,-0.528 0.108,-0.95867 0.22666,-1.44133 0.85067,-0.11334 1.25734,0.97466 1.94667,1.03466 0.476,0.0413 1.184,-0.59866 1.588,-1.04266 0.56,0.40266 1.116,0.16266 1.684,0.34133 0.78267,0.24533 1.57467,1.54267 2.34133,1.588 0.40134,0.024 0.99734,-0.44533 1.32134,-0.66933 1.05466,0.86 0.92533,1.54266 2.19066,1.09333 0.53334,-0.18933 1.12267,-0.396 1.64134,-0.584 0.71466,0.86 0.7,1.82 1.78666,1.40533 0.648,-0.248 1.364,-1.03733 1.89467,-1.48933 0.22667,0.96 1.22667,3.07867 2.12667,3.192 0.61466,0.076 0.99066,-0.88133 1.57733,-0.79467 0.368,0.0533 0.26267,0.35467 0.564,0.48534 0.46267,0.2 0.33867,0.404 0.97333,0.34133 0.57867,-0.0573 1.20134,-0.42933 1.768,-0.60533 -0.19466,0.99866 -0.71466,2.26933 -0.63866,3.216 1.244,0.13733 2.62533,-0.57334 3.59733,-1.34134 0.416,2.124 1.55067,6.72534 -1.42,8.168"
       style="fill:#000000;fill-opacity:1;fill-rule:nonzero;stroke:none;stroke-width:1.33333"
       id="path150466" />
    <path
       d="m 347.64092,119.72441 c 0.112,0 0.22267,-0.0493 0.31467,-0.14534 l 0.17067,-0.17733 c 0.28,-0.29067 0.62533,-0.65067 1.06133,-0.76267 0.632,-0.164 1.15867,-0.368 1.67067,-0.83066 0.732,-0.66 1.70133,-1.75734 2.05733,-2.492 0.0413,-0.0867 0.0813,-0.176 0.11867,-0.27067 0.0827,-0.20667 0.076,-0.45467 -0.0147,-0.65467 -0.0907,-0.19866 -0.25467,-0.32133 -0.43067,-0.32266 -0.0947,0 -0.188,-0.036 -0.26666,-0.10134 -0.14934,-0.124 -0.23867,-0.33733 -0.23734,-0.56933 l 0.007,-0.31467 c 0.008,-0.28666 -0.12133,-0.548 -0.324,-0.65066 -0.0587,-0.0293 -0.12,-0.044 -0.18133,-0.044 -0.14667,0 -0.28934,0.0853 -0.388,0.24 -0.14134,0.22933 -0.284,0.31866 -0.436,0.31866 -0.20134,-0.0187 -0.34934,-0.13866 -0.43334,-0.32533 -0.28266,-0.62267 -0.42533,-1.31333 -0.45466,-2.176 -0.007,-0.21867 -0.0947,-0.41733 -0.23467,-0.53467 -0.0813,-0.068 -0.17467,-0.10266 -0.26933,-0.10266 -0.0667,0 -0.13334,0.0173 -0.196,0.052 -0.16934,0.0947 -0.33867,0.16 -0.50267,0.19333 -0.012,10e-4 -0.024,10e-4 -0.036,10e-4 -0.18133,0 -0.292,-0.06 -0.37867,-0.16266 -0.11333,-0.13334 -0.17466,-0.32534 -0.168,-0.52667 0.008,-0.26533 0.028,-0.512 0.048,-0.752 0.0213,-0.24267 -0.0587,-0.48 -0.21066,-0.62133 -0.0867,-0.08 -0.188,-0.12134 -0.29067,-0.12134 -0.076,0 -0.152,0.0227 -0.22267,0.068 -0.456,0.29734 -0.952,0.572 -1.47733,0.572 -0.18933,0 -0.36533,-0.14266 -0.452,-0.36133 -0.088,-0.224 -0.0747,-0.48933 0.0333,-0.69067 0.0627,-0.116 0.11067,-0.236 0.152,-0.376 0.0653,-0.228 0.032,-0.48533 -0.088,-0.67066 -0.0973,-0.15067 -0.23866,-0.23467 -0.384,-0.23467 -0.0347,0 -0.0693,0.005 -0.104,0.0147 -0.132,0.036 -0.232,0.0653 -0.32933,0.108 -0.832,0.36933 -1.59333,1.1 -2.4,1.872 -0.75067,0.71866 -1.52533,1.46 -2.376,1.89866 -0.0587,0.0293 -0.12,0.044 -0.18267,0.044 -0.112,0 -0.22133,-0.0493 -0.30933,-0.14 -0.14,-0.14133 -0.21333,-0.37466 -0.192,-0.60533 0.04,-0.44 0.17733,-0.83333 0.42,-1.20267 0.104,-0.16 0.14533,-0.376 0.112,-0.58133 -0.036,-0.20667 -0.14267,-0.37867 -0.288,-0.464 -0.14667,-0.11467 -0.204,-0.19733 -0.244,-0.29333 -0.0653,-0.15867 -0.176,-0.276 -0.30667,-0.32534 -0.0453,-0.016 -0.0907,-0.0253 -0.13733,-0.0253 -0.088,0 -0.17467,0.0307 -0.252,0.0893 -0.152,0.116 -0.304,0.18134 -0.46267,0.2 h -0.012 c -0.39466,0 -0.75733,-0.22933 -1.15466,-0.67466 -0.092,-0.10267 -0.208,-0.15867 -0.32667,-0.15867 -0.028,0 -0.056,0.004 -0.0827,0.009 -0.16266,0.036 -0.308,0.0387 -0.428,0.0427 -0.18133,0.007 -0.27466,0.0133 -0.36666,0.0507 -0.192,0.11333 -0.33467,0.276 -0.62667,0.63466 -0.36267,0.44267 -0.772,0.944 -1.26667,0.98267 -0.19733,-0.001 -0.42,-0.076 -0.65999,-0.23067 -0.0707,-0.0467 -0.14667,-0.068 -0.22134,-0.068 -0.14133,0 -0.28,0.0773 -0.37866,0.224 -0.25867,0.38667 -0.516,0.64267 -0.932,0.64267 -0.19067,0 -0.40267,-0.0573 -0.66534,-0.18133 l -0.48666,-0.228 c -0.056,-0.0253 -0.11334,-0.0373 -0.16934,-0.0373 -0.17333,0 -0.34133,0.11867 -0.43333,0.32534 -0.284,0.63066 -0.58,0.9 -0.99067,0.9 -0.16266,0 -0.336,-0.048 -0.52666,-0.144 -0.17467,-0.088 -0.35467,-0.22267 -0.552,-0.41334 -0.088,-0.0853 -0.19334,-0.12933 -0.29867,-0.12933 -0.0387,0 -0.0773,0.005 -0.116,0.0173 -0.14267,0.044 -0.264,0.16934 -0.332,0.34267 -0.32133,0.81733 -0.84133,1.81467 -1.504,1.924 -0.0307,0.005 -0.0893,0.009 -0.116,0.009 -0.24533,0 -0.464,-0.11466 -0.71067,-0.37333 -0.0907,-0.0947 -0.20266,-0.144 -0.31333,-0.144 -0.088,0 -0.176,0.0293 -0.25467,0.0907 -0.04,0.0227 -0.16266,0.108 -0.19733,0.144 -0.204,0.20933 -0.37067,0.32266 -0.672,0.32266 -0.15067,0 -0.336,0.088 -0.432,0.24134 -0.096,0.15333 -0.17733,0.35466 -0.148,0.55066 0.068,0.46534 0.092,0.856 0.0707,1.19334 -0.0187,0.31866 -0.20667,0.57466 -0.448,0.61066 -0.096,0.0133 -0.196,0.02 -0.29467,0.02 -0.49067,0 -1.01333,-0.164 -1.55333,-0.488 -0.0667,-0.0413 -0.13867,-0.06 -0.20934,-0.06 -0.0827,0 -0.164,0.0267 -0.23866,0.0787 -0.14,0.0987 -0.23467,0.27733 -0.26,0.484 -0.204,1.70267 -0.35067,4.09867 0.724,5.236 0.0907,0.0973 0.20266,0.14667 0.31466,0.14667 0.088,0 0.17734,-0.0307 0.256,-0.0933 0.34534,-0.268 0.84534,-0.78266 1.144,-1.08933 0.4,-0.408 0.61067,-0.62267 0.77867,-0.73333 2.32667,-1.53067 5.50133,-2.376 9.70267,-2.584 0.39066,-0.0187 0.78399,-0.0293 1.17599,-0.0293 2.12134,0 4.24534,0.28534 6.312,0.84667 1.19067,0.324 2.316,0.62933 3.33334,1.524 0.29066,0.256 0.57733,0.52667 0.864,0.796 0.668,0.63067 1.34533,1.27067 2.068,1.716 0.0587,0.0373 0.164,0.11467 0.29466,0.21067 0.128,0.096 0.412,0.30533 0.61867,0.436 0.0693,0.0427 0.144,0.064 0.21733,0.064"
       style="fill:#383838;fill-opacity:1;fill-rule:nonzero;stroke:none;stroke-width:1.33333"
       id="path150470" />
    <path
       d="m 347.64092,119.72441 c 0.112,0 0.22267,-0.0493 0.31467,-0.14534 l 0.17067,-0.17733 c 0.28,-0.29067 0.62533,-0.65067 1.06133,-0.76267 0.632,-0.164 1.15867,-0.368 1.67067,-0.83066 0.732,-0.66 1.70133,-1.75734 2.05733,-2.492 0.0413,-0.0867 0.0813,-0.176 0.11867,-0.27067 0.0827,-0.20667 0.076,-0.45467 -0.0147,-0.65467 -0.0907,-0.19866 -0.25467,-0.32133 -0.43067,-0.32266 -0.0947,0 -0.188,-0.036 -0.26666,-0.10134 -0.14934,-0.124 -0.23867,-0.33733 -0.23734,-0.56933 l 0.007,-0.31467 c 0.009,-0.30933 -0.18267,-0.68933 -0.44,-0.688 -0.21867,10e-4 -0.58133,0.464 -0.77467,0.61067 -0.65066,0.49333 -1.33333,0.916 -2.036,1.25867 0.08,-0.24134 0.104,-0.54 0.0813,-0.80667 -0.30534,0.003 -0.62,0.29867 -0.932,0.25067 -0.35867,-0.0547 -0.57467,-0.48534 -0.83334,-0.75067 -0.38933,-0.4 -0.69466,-0.06 -1.184,0.10133 -0.28266,0.0933 -0.612,0.276 -0.90666,0.21734 -0.104,-1.01734 1.276,-1.61734 1.22533,-2.64134 -0.69867,1.256 -2.32667,2.40934 -3.48533,2.80534 0.0467,-0.71467 0.65333,-1.44667 0.85866,-2.144 -0.77733,0.58533 -1.556,1.044 -2.36933,1.516 0.056,-0.34 0.292,-0.632 0.45733,-0.884 0.31067,-0.476 0.61734,-0.94934 0.936,-1.41467 0.35867,-0.52133 0.81867,-1.22533 1.00934,-1.86933 -0.64267,0.75466 -1.532,1.252 -2.25867,1.86266 -0.32933,0.27734 -0.696,0.60667 -1.068,0.77467 -0.444,0.19867 -1.07467,0.62667 -1.536,0.652 -0.32,0.0187 -0.376,-0.14667 -0.49867,-0.57067 -0.25066,0.15734 -0.908,0.71867 -1.212,0.51867 -0.204,-0.13467 -0.19866,-0.48533 -0.228,-0.80667 -0.0493,-0.532 -0.13466,-1.32133 -0.005,-1.87466 -0.37867,0.64933 -1.02667,1.40533 -1.58,1.77333 -0.0507,-0.124 -0.13733,-0.27733 -0.23867,-0.33867 -0.26133,-0.156 -0.14133,0.012 -0.41466,0.192 -0.4,0.26134 -0.72534,-0.25733 -0.988,-0.64 -0.18534,0.14534 -0.26534,0.512 -0.39333,0.74667 -0.46667,-0.536 -0.76934,-1.06 -0.936,-1.81867 -0.092,0.85734 -0.22934,1.76134 -0.19334,2.62934 0.009,0.23466 0.0493,0.48133 0.032,0.71466 -0.89333,-0.48266 -2.03333,-0.80933 -2.504,-2.07066 -0.108,0.56266 -0.13733,1.24533 -0.13866,1.82666 -0.716,-0.02 -1.448,-0.616 -2.12134,-0.88933 -0.136,0.268 -0.0747,0.76 -0.13466,1.096 -0.35334,0.0187 -0.352,0.45467 -0.77867,0.276 -0.35067,-0.148 -0.69733,-0.532 -1.01733,-0.76533 0.0387,0.32666 0.85333,1.15733 0.472,1.43466 -0.22267,0.16134 -0.76667,-0.116 -0.98934,-0.26266 -0.28666,-0.18934 -0.51333,-0.53867 -0.772,-0.76267 0.0187,0.50667 0.28,0.82533 0.384,1.268 -0.704,0.33067 -1.18933,0.648 -1.98133,0.64933 -0.396,0 -0.768,-0.252 -1.14,-0.25333 -0.0213,0.46933 0.007,0.728 0.16533,1.09467 0.11067,0.25333 0.252,0.46533 0.252,0.768 -0.688,0.0453 -1.10933,0.10933 -1.35333,-0.76134 -0.152,-0.54 -0.23467,-1.41733 -0.61333,-1.76266 -0.344,1.592 -0.44534,4.00933 0.652,5.16933 0.0907,0.0973 0.20266,0.14667 0.31466,0.14667 0.088,0 0.17734,-0.0307 0.256,-0.0933 0.34534,-0.268 0.84534,-0.78266 1.144,-1.08933 0.4,-0.408 0.61067,-0.62267 0.77867,-0.73333 2.32667,-1.53067 5.50133,-2.376 9.70267,-2.584 0.39066,-0.0187 0.78399,-0.0293 1.17599,-0.0293 2.12134,0 4.24534,0.28534 6.312,0.84667 1.19067,0.324 2.316,0.62933 3.33334,1.524 0.29066,0.256 0.57733,0.52667 0.864,0.796 0.668,0.63067 1.34533,1.27067 2.068,1.716 0.0587,0.0373 0.164,0.11467 0.29466,0.21067 0.128,0.096 0.412,0.30533 0.61867,0.436 0.0693,0.0427 0.144,0.064 0.21733,0.064"
       style="opacity:0.199997;fill:#000000;fill-opacity:1;fill-rule:nonzero;stroke:none;stroke-width:1.33333"
       id="path150480" />
    <path
       d="m 347.81599,118.87547 c 0.304,-0.316 0.72,-0.748 1.27467,-0.89066 0.57066,-0.148 1.04133,-0.328 1.48266,-0.72667 0.7,-0.632 1.608,-1.664 1.91734,-2.3 0.0333,-0.0707 0.0653,-0.144 0.0973,-0.22267 -0.18667,0 -0.37333,-0.0693 -0.536,-0.204 -0.29467,-0.24666 -0.47467,-0.676 -0.472,-1.13733 10e-4,-0.11467 0.004,-0.22667 0.007,-0.33867 -0.0147,0.0227 -0.0293,0.0467 -0.044,0.0707 -0.192,0.30933 -0.47867,0.488 -0.78,0.488 -0.0253,0 -0.0507,-0.001 -0.076,-0.004 -0.32667,-0.032 -0.62267,-0.27333 -0.79067,-0.64667 -0.38133,-0.84133 -0.5,-1.69733 -0.52533,-2.48933 -0.204,0.11467 -0.41334,0.196 -0.62134,0.23867 -0.052,0.0107 -0.104,0.016 -0.156,0.016 -0.24666,0 -0.48666,-0.11867 -0.67333,-0.33867 -0.22533,-0.26667 -0.34933,-0.65333 -0.336,-1.05333 0.009,-0.28134 0.0293,-0.544 0.052,-0.79867 -0.51067,0.33067 -1.076,0.64 -1.7,0.64 -0.37733,0 -0.72667,-0.27867 -0.9,-0.72133 -0.17333,-0.44267 -0.14933,-0.97734 0.0693,-1.384 0.0387,-0.0707 0.0667,-0.14267 0.0907,-0.228 -0.0907,0.0253 -0.18267,0.0493 -0.272,0.088 -0.75733,0.336 -1.48933,1.03733 -2.264,1.77866 -0.77733,0.744 -1.58,1.512 -2.48933,1.98 -0.11867,0.0613 -0.24267,0.0907 -0.36667,0.0907 -0.22,0 -0.43867,-0.096 -0.61867,-0.28 -0.28,-0.28667 -0.42533,-0.74667 -0.38266,-1.212 0.06,-0.664 0.28266,-1.168 0.54,-1.56 -0.0507,-0.0293 -0.0987,-0.064 -0.14534,-0.104 -0.144,-0.12133 -0.25866,-0.288 -0.33733,-0.48133 -0.18933,0.144 -0.41067,0.256 -0.67067,0.28666 -0.0293,0.003 -0.092,0.007 -0.12133,0.007 -0.44667,0 -0.92133,-0.28133 -1.416,-0.83733 -0.188,0.0413 -0.35867,0.048 -0.49867,0.052 -0.0813,0.003 -0.19333,0.005 -0.228,0.02 -0.076,0.048 -0.292,0.312 -0.43466,0.48666 -0.404,0.49334 -0.90534,1.10667 -1.57867,1.16 h -0.007 c -0.34133,0 -0.64533,-0.12933 -0.90666,-0.29866 -0.25733,0.38533 -0.64,0.868 -1.30933,0.868 -0.25067,0 -0.516,-0.0693 -0.83467,-0.22 l -0.48667,-0.228 c -0.23066,0.51466 -0.63333,1.22533 -1.424,1.22533 -0.22533,0 -0.45733,-0.0613 -0.70666,-0.18667 -0.23867,-0.12 -0.46134,-0.29733 -0.67067,-0.49866 -0.408,1.03866 -1.03467,2.13733 -1.88933,2.27866 -0.0413,0.007 -0.13734,0.0147 -0.17867,0.0147 -0.44933,0 -0.78533,-0.26667 -1.024,-0.51733 -0.044,0.0333 -0.092,0.0653 -0.14267,0.0933 -0.236,0.24267 -0.512,0.464 -0.98133,0.464 -0.028,0 -0.056,-0.001 -0.0853,-0.003 0.068,0.45867 0.10666,0.92534 0.0787,1.37467 -0.0387,0.63733 -0.41333,1.14933 -0.89466,1.21867 -0.116,0.0173 -0.23334,0.0253 -0.35067,0.0253 -0.63733,0 -1.24133,-0.236 -1.76267,-0.54933 -0.204,1.70266 -0.284,3.74 0.54,4.612 0.32,-0.24934 0.82667,-0.77067 1.09867,-1.04934 0.416,-0.42666 0.64133,-0.65466 0.85467,-0.79466 2.39333,-1.576 5.63466,-2.44267 9.90933,-2.65467 0.39733,-0.02 0.796,-0.0293 1.19333,-0.0293 2.15733,0 4.316,0.28933 6.41467,0.86 1.22933,0.33333 2.41333,0.656 3.512,1.62266 0.3,0.264 0.59466,0.54134 0.88933,0.82 0.668,0.63067 1.3,1.22534 1.976,1.64267 0.064,0.04 0.18267,0.12533 0.328,0.23333 0.12267,0.0907 0.392,0.29067 0.58933,0.41467 0.0533,-0.056 0.12134,-0.12667 0.17467,-0.18267 m -27.78666,-7.67733 c 0.736,0.76933 1.78133,1.48 2.72266,1.34267 0.0573,-0.94667 -0.336,-2.21734 -0.48266,-3.216 0.42933,0.176 0.90133,0.548 1.33866,0.604 0.48134,0.064 0.38667,-0.14 0.73734,-0.34 0.228,-0.13067 0.148,-0.432 0.42666,-0.48667 0.444,-0.0867 0.728,0.872 1.19334,0.79467 0.68133,-0.112 1.43866,-2.23067 1.61066,-3.19067 0.40134,0.452 0.944,1.24 1.43467,1.488 0.82267,0.416 0.812,-0.544 1.35333,-1.404 0.392,0.188 0.83867,0.39333 1.24134,0.58267 0.95866,0.44933 0.86133,-0.23334 1.65866,-1.092 0.24667,0.224 0.69733,0.692 1.00133,0.66933 0.58,-0.0453 1.18,-1.34267 1.772,-1.588 0.43067,-0.17867 0.85067,0.06 1.276,-0.34133 0.30534,0.444 0.84134,1.084 1.20134,1.04266 0.52133,-0.06 0.83066,-1.148 1.47466,-1.03466 0.0893,0.48266 0.15467,0.91333 0.17067,1.44 0.496,-0.26 1.02667,-0.32134 1.57333,-0.28934 0.24934,1.61867 -1.38266,1.784 -1.51466,3.23067 1.65466,-0.85067 3.072,-3.01333 4.79733,-3.78 0.27067,-0.12 0.56133,-0.152 0.81467,-0.27733 0.652,-0.32267 1.236,-1.3 1.94933,-1.28267 -0.276,0.61867 -0.73067,1.24667 -0.932,1.904 -0.20133,0.65467 -0.17733,1.22 -0.50533,1.83067 0.87866,0.005 1.78666,-1.03067 2.65466,-1.312 0.25467,1.052 0.044,1.82 0.009,2.864 0.71066,-0.14667 1.47466,-1.05067 1.752,-2.012 0.24533,1.60266 -0.29867,3.31333 0.41733,4.89733 0.94533,-1.52267 2,-2.948 3.06667,-4.292 -0.63334,1.72 -1.22934,3.388 -1.23867,5.41333 0.908,-0.58666 1.468,-2.352 2.44933,-2.78133 -0.12666,0.396 -0.32666,0.62933 -0.46266,0.95067 -0.528,1.25466 -0.66934,2.93733 -1.236,4.10533 -0.448,0.92267 -1.564,2.11067 -2.19734,2.68133 -0.592,0.53467 -1.19466,0.76267 -1.85866,0.93334 -0.61067,0.15866 -1.05067,1.06 -1.55867,1.17466 -0.28,0.064 -1.212,-0.71333 -1.43067,-0.848 -1.07733,-0.66666 -2.012,-1.69466 -2.99733,-2.56133 -0.95733,-0.844 -2.03067,-1.12 -3.15467,-1.42667 -2.42,-0.65733 -4.89866,-0.92533 -7.36799,-0.804 -3.08267,0.15334 -6.70534,0.67867 -9.49467,2.51467 -0.43067,0.28267 -2.11733,2.368 -2.59067,2.06533 -2.24933,-1.44266 -1.38933,-6.044 -1.07466,-8.16933"
       style="fill:#000000;fill-opacity:1;fill-rule:nonzero;stroke:none;stroke-width:1.33333"
       id="path150490" />
  </g>
</svg>
